# https://github.com/mikedh/trimesh
v -0.00125615 0.02856061 -0.01326746
v -0.00112980 0.02856061 -0.01326746
v -0.00163251 0.02856061 -0.01326461
v -0.00163251 0.02943926 -0.01324753
v -0.00112980 0.03044520 -0.01322618
v -0.00062676 0.02893685 -0.01325322
v -0.00062676 0.02856061 -0.01326034
v -0.00062676 0.02943926 -0.01324326
v -0.00213521 0.02856061 -0.01326034
v -0.00163251 0.02994279 -0.01323472
v -0.00112980 0.03094873 -0.01321195
v -0.00062676 0.03094873 -0.01320768
v -0.00012372 0.03044520 -0.01321052
v -0.00012372 0.02943926 -0.01322903
v -0.00012372 0.02893685 -0.01323757
v -0.00012372 0.02856061 -0.01324326
v -0.00263825 0.02856061 -0.01324468
v -0.00213521 0.02893685 -0.01325038
v -0.00163251 0.03044520 -0.01322049
v -0.00163251 0.03094873 -0.01319629
v -0.00112980 0.03145113 -0.01318633
v -0.00062676 0.03145113 -0.01318775
v -0.00012372 0.03094873 -0.01319629
v 0.00022138 0.03060403 -0.01319487
v 0.00022138 0.03044520 -0.01319914
v 0.00022138 0.02994279 -0.01320768
v 0.00022138 0.02893685 -0.01321906
v 0.00022138 0.02859215 -0.01322049
v 0.00022138 0.02856061 -0.01322049
v -0.00263825 0.02893685 -0.01322760
v -0.00314129 0.02856061 -0.01320198
v -0.00213521 0.03044520 -0.01318490
v -0.00163251 0.03145113 -0.01315643
v -0.00112980 0.03195466 -0.01314932
v -0.00062676 0.03195466 -0.01315643
v 0.00022138 0.03195466 -0.01313081
v -0.00012372 0.03145113 -0.01317209
v 0.00022138 0.03145113 -0.01315928
v 0.00022138 0.03110643 -0.01317494
v 0.00022138 0.03094873 -0.01318206
v 0.00022138 0.02856061 0.00122268
v -0.00263825 0.02943926 -0.01319771
v -0.00321152 0.02856061 -0.01318775
v -0.00321152 0.02862370 -0.01318348
v -0.00314129 0.02893685 -0.01317494
v -0.00213521 0.03094873 -0.01314362
v -0.00163251 0.03195466 -0.01310519
v -0.00141274 0.03276797 -0.01304683
v -0.00112980 0.03245707 -0.01310519
v -0.00062676 0.03330305 -0.01305110
v -0.00062676 0.03296060 -0.01307957
v -0.00023663 0.03331431 -0.01305110
v 0.00022138 0.03245707 -0.01309808
v 0.00022138 0.02877915 0.00122268
v 0.00000229 0.02856061 0.00123691
v -0.00321152 0.02856061 0.00119136
v -0.00321152 0.02893685 -0.01316070
v -0.00318833 0.02948432 -0.01311231
v -0.00266816 0.03046435 -0.01310092
v -0.00251089 0.03094873 -0.01307530
v -0.00195577 0.03195466 -0.01305964
v -0.00109721 0.03294596 -0.01305822
v -0.00188487 0.03220812 -0.01304114
v -0.00124338 0.03310366 -0.01302833
v -0.00090802 0.03323095 -0.01304399
v -0.00062676 0.03355538 -0.01302121
v -0.00012372 0.03446782 -0.01293296
v -0.00012372 0.03396654 -0.01298563
v 0.00022138 0.03446782 -0.01293439
v 0.00022138 0.03396654 -0.01298136
v 0.00022138 0.03344386 -0.01302548
v 0.00022138 0.03299665 -0.01305964
v 0.00022138 0.03263843 -0.01308526
v 0.00022138 0.02928155 0.00121841
v -0.00012372 0.02856061 0.00124403
v -0.00314129 0.02856061 0.00120417
v -0.00321152 0.02887828 0.00117001
v -0.00321152 0.02947305 -0.01310804
v -0.00321152 0.02950685 -0.01310377
v -0.00305594 0.02994279 -0.01308669
v -0.00294908 0.03030889 -0.01306107
v -0.00241848 0.03126076 -0.01305110
v -0.00285600 0.03064345 -0.01303118
v -0.00231398 0.03159645 -0.01302121
v -0.00208581 0.03240863 -0.01293296
v -0.00163251 0.03346301 -0.01286749
v -0.00160092 0.03294596 -0.01297851
v -0.00112980 0.03396654 -0.01289311
v -0.00062676 0.03497135 -0.01280628
v -0.00062676 0.03446782 -0.01289311
v -0.00062676 0.03396654 -0.01296855
v -0.00012372 0.03497135 -0.01286891
v 0.00022138 0.03497135 -0.01287460
v 0.00022138 0.02978509 0.00121271
v -0.00012372 0.02893685 0.00123976
v -0.00050041 0.02856061 0.00125826
v -0.00301494 0.02856061 0.00121699
v -0.00263825 0.02943926 0.00120702
v -0.00314129 0.02893685 0.00117855
v -0.00318934 0.02948657 0.00111308
v -0.00321152 0.02945390 0.00111165
v -0.00321152 0.02994279 -0.01303972
v -0.00321152 0.03021990 -0.01298563
v -0.00312650 0.03046435 -0.01296428
v -0.00213521 0.03296060 -0.01279062
v -0.00163251 0.03396654 -0.01273653
v -0.00115534 0.03498374 -0.01264686
v -0.00112980 0.03446782 -0.01278635
v -0.00067549 0.03552332 -0.01265967
v -0.00039927 0.03626003 -0.01254722
v 0.00010007 0.03675680 -0.01254580
v -0.00012372 0.03547375 -0.01278208
v 0.00022138 0.03547375 -0.01279632
v 0.00022138 0.03028749 0.00120275
v -0.00012372 0.02943926 0.00123122
v -0.00062676 0.02893685 0.00125684
v -0.00062676 0.02856061 0.00126253
v -0.00263825 0.02856061 0.00124688
v -0.00263825 0.02893685 0.00123264
v -0.00213521 0.03044520 0.00118994
v -0.00263825 0.02994279 0.00116717
v -0.00213521 0.02994279 0.00121983
v -0.00266816 0.03046435 0.00110311
v -0.00305829 0.02994279 0.00108603
v -0.00321152 0.02982338 0.00106468
v -0.00321152 0.03094873 -0.01280486
v -0.00314129 0.03094873 -0.01284044
v -0.00250552 0.03296060 -0.01260843
v -0.00215033 0.03345174 -0.01264971
v -0.00197055 0.03396654 -0.01258565
v -0.00144097 0.03482491 -0.01257000
v -0.00100480 0.03538814 -0.01259277
v -0.00134016 0.03516059 -0.01251591
v -0.00051722 0.03597728 -0.01258708
v -0.00087576 0.03572383 -0.01253726
v -0.00076857 0.03597728 -0.01248744
v -0.00023529 0.03659459 -0.01249171
v -0.00009012 0.03694830 -0.01240346
v 0.00022138 0.03764896 -0.01222269
v 0.00022138 0.03748450 -0.01228816
v 0.00022138 0.03678384 -0.01255292
v 0.00022138 0.03663627 -0.01258281
v 0.00022138 0.03597728 -0.01270664
v 0.00022138 0.03044520 0.00119848
v -0.00012372 0.03094873 0.00119706
v -0.00062676 0.02994279 0.00123549
v -0.00062676 0.02943926 0.00124688
v -0.00100345 0.02856061 0.00127107
v -0.00251224 0.02856061 0.00125115
v -0.00213521 0.02893685 0.00125399
v -0.00213521 0.02943926 0.00123976
v -0.00163251 0.03094873 0.00119706
v -0.00163251 0.03145113 0.00115578
v -0.00213521 0.03094873 0.00114439
v -0.00163251 0.03044520 0.00122410
v -0.00251224 0.03094873 0.00107607
v -0.00295042 0.03030889 0.00106041
v -0.00321152 0.03004305 0.00102625
v -0.00321152 0.03145001 -0.01266679
v -0.00302805 0.03195466 -0.01261981
v -0.00242084 0.03327601 -0.01256003
v -0.00232776 0.03361170 -0.01249883
v -0.00189058 0.03422900 -0.01254153
v -0.00115534 0.03552332 -0.01246609
v -0.00163351 0.03544334 -0.01217429
v -0.00146651 0.03585675 -0.01210597
v -0.00100446 0.03647969 -0.01212590
v -0.00090500 0.03677032 -0.01205615
v -0.00061399 0.03695619 -0.01214583
v -0.00059081 0.03644815 -0.01238211
v -0.00012439 0.03747887 -0.01215864
v 0.00004261 0.03783371 -0.01208320
v 0.00022138 0.03791706 -0.01211166
v 0.00022138 0.03094873 0.00118425
v -0.00012372 0.03145113 0.00117855
v -0.00062676 0.03094873 0.00120987
v -0.00112980 0.03044520 0.00123407
v -0.00112980 0.02856061 0.00127107
v -0.00213521 0.02856061 0.00126253
v -0.00163251 0.02994279 0.00123976
v -0.00112980 0.03094873 0.00121699
v -0.00112980 0.03145113 0.00118567
v -0.00112980 0.03195466 0.00114582
v -0.00112980 0.03245707 0.00110027
v -0.00141207 0.03276685 0.00104760
v -0.00163251 0.03195466 0.00110454
v -0.00195577 0.03195466 0.00105899
v -0.00188487 0.03220812 0.00104048
v -0.00242016 0.03126076 0.00105187
v -0.00285600 0.03064345 0.00103052
v -0.00321152 0.03022441 0.00098782
v -0.00321152 0.03150520 -0.01264971
v -0.00321152 0.03195466 -0.01249883
v -0.00293429 0.03229148 -0.01256715
v -0.00284659 0.03262717 -0.01250737
v -0.00275720 0.03296060 -0.01243762
v -0.00264598 0.03347765 -0.01229955
v -0.00253710 0.03396654 -0.01216860
v -0.00222191 0.03396654 -0.01241912
v -0.00198870 0.03497135 -0.01212305
v -0.00190234 0.03525409 -0.01205188
v -0.00135494 0.03619131 -0.01201060
v -0.00125581 0.03647969 -0.01190812
v -0.00109385 0.03693366 -0.01175012
v -0.00077294 0.03710601 -0.01194513
v -0.00029241 0.03764220 -0.01197787
v -0.00043758 0.03730764 -0.01207608
v -0.00015531 0.03802633 -0.01181417
v 0.00022138 0.03816489 -0.01198213
v 0.00022138 0.03129343 0.00117001
v 0.00022138 0.03145113 0.00116290
v 0.00022138 0.03179696 0.00114724
v -0.00012372 0.03195466 0.00114866
v -0.00062676 0.03145113 0.00118994
v -0.00163251 0.02943926 0.00125115
v -0.00163251 0.02856061 0.00126965
v -0.00062676 0.03195466 0.00115720
v -0.00062676 0.03245707 0.00111592
v -0.00062676 0.03327263 0.00104618
v -0.00087946 0.03321293 0.00104048
v -0.00108041 0.03294483 0.00105472
v -0.00121482 0.03310254 0.00102910
v -0.00160058 0.03294483 0.00097928
v -0.00163251 0.03346301 0.00086968
v -0.00208581 0.03240863 0.00093515
v -0.00220746 0.03195466 0.00098640
v -0.00231398 0.03159645 0.00102198
v -0.00276359 0.03094873 0.00099921
v -0.00260801 0.03143761 0.00095081
v -0.00213521 0.03296060 0.00079281
v -0.00312751 0.03046435 0.00096647
v -0.00314129 0.03094873 0.00084690
v -0.00321152 0.03037986 0.00095081
v -0.00321152 0.03225881 -0.01237072
v -0.00305795 0.03296060 -0.01218568
v -0.00295546 0.03334360 -0.01209885
v -0.00287078 0.03367816 -0.01201345
v -0.00243865 0.03430898 -0.01208462
v -0.00234052 0.03464354 -0.01198498
v -0.00180153 0.03558978 -0.01194086
v -0.00139964 0.03676018 -0.01155512
v -0.00094700 0.03732792 -0.01160921
v -0.00049067 0.03788327 -0.01164194
v 0.00022138 0.03817728 -0.01197359
v -0.00035323 0.03821896 -0.01150672
v -0.00001787 0.03839243 -0.01165191
v 0.00022138 0.03229936 0.00111735
v 0.00022138 0.03245707 0.00110596
v 0.00022138 0.03280289 0.00108034
v -0.00012372 0.03296060 0.00107322
v -0.00012372 0.03328615 0.00104760
v -0.00012372 0.03353735 0.00102625
v -0.00012372 0.03396654 0.00098924
v -0.00062676 0.03352496 0.00102198
v -0.00062676 0.03396654 0.00097074
v -0.00062676 0.03446782 0.00089815
v -0.00112980 0.03396654 0.00089672
v -0.00112980 0.03446782 0.00078997
v -0.00163251 0.03396654 0.00074015
v -0.00215067 0.03345399 0.00065190
v -0.00266412 0.03246383 0.00067040
v -0.00321152 0.03142522 0.00068037
v -0.00321152 0.03094873 0.00081132
v -0.00321152 0.03088902 0.00082698
v -0.00321152 0.03246946 -0.01227535
v -0.00321152 0.03253930 -0.01224262
v -0.00321152 0.03296060 -0.01203480
v -0.00321152 0.03327151 -0.01185261
v -0.00321152 0.03343146 -0.01174585
v -0.00299209 0.03396654 -0.01166614
v -0.00291413 0.03426055 -0.01156508
v -0.00278846 0.03396654 -0.01191808
v -0.00247863 0.03487109 -0.01164906
v -0.00193930 0.03581620 -0.01160636
v -0.00237682 0.03520678 -0.01151669
v -0.00183614 0.03615076 -0.01146402
v -0.00194838 0.03633099 -0.01112810
v -0.00147457 0.03695055 -0.01124197
v -0.00128236 0.03709587 -0.01138289
v -0.00082569 0.03766361 -0.01145833
v 0.00014309 0.03872812 -0.01151811
v 0.00022138 0.03864589 -0.01162486
v -0.00065062 0.03801957 -0.01131456
v -0.00047521 0.03836202 -0.01117080
v -0.00033677 0.03869658 -0.01095729
v -0.00000141 0.03888132 -0.01118219
v 0.00022138 0.03350468 0.00102483
v 0.00022138 0.03383136 0.00099778
v 0.00022138 0.03396654 0.00098640
v 0.00022138 0.03431124 0.00095650
v -0.00012372 0.03446782 0.00093942
v -0.00012372 0.03497135 0.00087252
v -0.00062676 0.03497135 0.00080847
v -0.00067582 0.03552332 0.00065902
v -0.00100480 0.03538814 0.00059354
v -0.00115534 0.03498487 0.00064763
v -0.00144500 0.03482716 0.00057219
v -0.00197190 0.03396654 0.00058785
v -0.00242285 0.03327939 0.00056080
v -0.00250854 0.03296060 0.00061062
v -0.00303309 0.03195466 0.00062343
v -0.00321152 0.03145451 0.00067183
v -0.00321152 0.03352384 -0.01167468
v -0.00321152 0.03396428 -0.01132737
v -0.00321152 0.03402737 -0.01127329
v -0.00299209 0.03444303 -0.01125763
v -0.00281399 0.03459511 -0.01140993
v -0.00238488 0.03572270 -0.01102419
v -0.00184219 0.03666668 -0.01094306
v -0.00139224 0.03725019 -0.01104839
v -0.00093860 0.03782131 -0.01112241
v 0.00022138 0.03887006 -0.01143982
v 0.00016090 0.03921701 -0.01097864
v -0.00081057 0.03815700 -0.01089039
v -0.00042145 0.03879796 -0.01062137
v -0.00013582 0.03900748 -0.01079930
v 0.00022138 0.03446782 0.00094085
v 0.00022138 0.03481364 0.00089957
v 0.00022138 0.03497135 0.00087964
v 0.00022138 0.03531605 0.00082698
v 0.00022138 0.03581958 0.00074157
v -0.00012372 0.03547375 0.00078285
v 0.00010175 0.03675680 0.00054657
v -0.00051050 0.03597728 0.00058358
v -0.00039020 0.03624764 0.00054372
v -0.00087610 0.03572383 0.00053660
v -0.00134016 0.03516285 0.00051668
v -0.00189226 0.03423126 0.00054230
v -0.00232843 0.03361395 0.00049817
v -0.00284860 0.03263618 0.00050956
v -0.00293933 0.03230049 0.00057076
v -0.00321152 0.03179471 0.00056792
v -0.00321152 0.03444303 -0.01081211
v -0.00291581 0.03476408 -0.01107543
v -0.00298268 0.03487560 -0.01077794
v -0.00308820 0.03501978 -0.01032246
v -0.00245343 0.03583986 -0.01068969
v -0.00235531 0.03617442 -0.01044772
v -0.00192082 0.03678834 -0.01060714
v -0.00202633 0.03649095 -0.01077652
v -0.00171752 0.03696632 -0.01077652
v -0.00145609 0.03734031 -0.01077794
v -0.00127766 0.03759151 -0.01077794
v 0.00022138 0.03915280 -0.01111671
v 0.00006479 0.03931051 -0.01064272
v 0.00022138 0.03940963 -0.01071816
v 0.00022138 0.03929924 -0.01092455
v -0.00100413 0.03798916 -0.01074521
v -0.00089088 0.03825726 -0.01055447
v -0.00048765 0.03887682 -0.01027406
v -0.00026721 0.03912802 -0.01027406
v 0.00022138 0.03632198 0.00064620
v -0.00023361 0.03658220 0.00048963
v 0.00022138 0.03678496 0.00055226
v 0.00022138 0.03689310 0.00052095
v 0.00022138 0.03730426 0.00036864
v -0.00008911 0.03694830 0.00040707
v -0.00058543 0.03644139 0.00038003
v -0.00061735 0.03695619 0.00014659
v -0.00115534 0.03552332 0.00046543
v -0.00163318 0.03544446 0.00017506
v -0.00162041 0.03498487 0.00039569
v -0.00178002 0.03456582 0.00047255
v -0.00090466 0.03677032 0.00005550
v -0.00146651 0.03585450 0.00010532
v -0.00222359 0.03396654 0.00041989
v -0.00253744 0.03396654 0.00016937
v -0.00264665 0.03347878 0.00030032
v -0.00276023 0.03296060 0.00043981
v -0.00321152 0.03202788 0.00047967
v -0.00321152 0.03448697 -0.01076086
v -0.00321152 0.03482491 -0.01029826
v -0.00295647 0.03533520 -0.01018581
v -0.00242218 0.03628594 -0.01011322
v -0.00198366 0.03688071 -0.01027406
v -0.00181228 0.03713191 -0.01027406
v -0.00135057 0.03769515 -0.01044772
v -0.00001586 0.03939161 -0.01027406
v 0.00022138 0.03962028 -0.01027406
v -0.00094162 0.03831921 -0.01027406
v -0.00073933 0.03857042 -0.01027406
v -0.00141509 0.03778301 -0.01011180
v -0.00102429 0.03841722 -0.00977161
v -0.00081696 0.03866842 -0.00977161
v -0.00033609 0.03920236 -0.00986128
v 0.00022138 0.03791819 0.00011386
v 0.00004060 0.03783371 0.00008396
v -0.00012574 0.03748337 0.00016367
v -0.00044329 0.03731440 0.00008112
v -0.00190368 0.03525747 0.00005407
v -0.00199004 0.03497135 0.00012524
v -0.00077865 0.03710601 -0.00005268
v -0.00109485 0.03693366 -0.00024911
v -0.00125380 0.03647969 -0.00009254
v -0.00135293 0.03619019 0.00000853
v -0.00243932 0.03431011 0.00008539
v -0.00287078 0.03367929 0.00001422
v -0.00295748 0.03334473 0.00010105
v -0.00305997 0.03296060 0.00018930
v -0.00321152 0.03227909 0.00036864
v -0.00321152 0.03498487 -0.01002212
v -0.00321152 0.03511103 -0.00979580
v -0.00285633 0.03566976 -0.00988405
v -0.00246922 0.03636479 -0.00977161
v -0.00231297 0.03661599 -0.00977161
v -0.00186706 0.03720964 -0.00996092
v -0.00154514 0.03751041 -0.01027833
v 0.00016795 0.03971153 -0.00989259
v 0.00022138 0.03966422 -0.01015592
v -0.00127598 0.03810518 -0.00977161
v -0.00146550 0.03785285 -0.00977161
v -0.00133814 0.03818404 -0.00926915
v -0.00086030 0.03872249 -0.00943711
v -0.00037675 0.03924855 -0.00952678
v 0.00011688 0.03975997 -0.00955667
v 0.00022138 0.03816714 -0.00001283
v -0.00029476 0.03765009 -0.00002137
v -0.00180153 0.03559203 -0.00005837
v -0.00234086 0.03464354 -0.00001567
v -0.00049168 0.03788327 -0.00035586
v -0.00094969 0.03733243 -0.00038718
v -0.00139997 0.03676131 -0.00044411
v -0.00321152 0.03327714 -0.00014805
v -0.00321152 0.03306874 -0.00001567
v -0.00321152 0.03283669 0.00011243
v -0.00278913 0.03396654 -0.00008115
v -0.00291413 0.03426055 -0.00043415
v -0.00299276 0.03396654 -0.00033309
v -0.00321152 0.03343372 -0.00025196
v -0.00321152 0.03247509 0.00027897
v -0.00321152 0.03532956 -0.00926915
v -0.00299848 0.03549178 -0.00973887
v -0.00278039 0.03604600 -0.00926915
v -0.00236001 0.03668921 -0.00940010
v -0.00204314 0.03701814 -0.00978442
v -0.00191242 0.03727498 -0.00962500
v -0.00173970 0.03745972 -0.00978442
v 0.00022138 0.03982868 -0.00963923
v 0.00022138 0.03977011 -0.00984989
v -0.00177465 0.03758363 -0.00926915
v -0.00152330 0.03793283 -0.00926915
v -0.00089660 0.03876417 -0.00910261
v -0.00105588 0.03852986 -0.00926915
v -0.00136838 0.03822346 -0.00892184
v -0.00092650 0.03879684 -0.00876527
v -0.00039994 0.03927221 -0.00926915
v -0.00015833 0.03952341 -0.00926915
v 0.00009335 0.03978362 -0.00926915
v 0.00022138 0.03989627 -0.00927200
v 0.00022138 0.03876529 -0.00045408
v 0.00014141 0.03873037 -0.00048112
v -0.00001854 0.03839469 -0.00034732
v -0.00015665 0.03802520 -0.00018363
v -0.00193930 0.03581620 -0.00039430
v -0.00247863 0.03487109 -0.00035017
v -0.00035390 0.03821783 -0.00049251
v -0.00082670 0.03766699 -0.00054090
v -0.00128505 0.03709699 -0.00061350
v -0.00147692 0.03695055 -0.00075726
v -0.00194838 0.03633325 -0.00087113
v -0.00183681 0.03615189 -0.00053663
v -0.00237682 0.03520678 -0.00048255
v -0.00321152 0.03374237 -0.00047685
v -0.00281399 0.03459511 -0.00058930
v -0.00299243 0.03444303 -0.00074160
v -0.00321152 0.03402849 -0.00072595
v -0.00321152 0.03399470 -0.00069463
v -0.00321152 0.03544784 -0.00892896
v -0.00239765 0.03674779 -0.00906560
v -0.00250686 0.03650447 -0.00924780
v -0.00321152 0.03550755 -0.00875530
v -0.00222426 0.03694267 -0.00924780
v -0.00195241 0.03733130 -0.00926915
v -0.00200113 0.03739663 -0.00876527
v -0.00181833 0.03764784 -0.00876527
v -0.00121079 0.03844988 -0.00875815
v -0.00185361 0.03769740 -0.00826281
v -0.00139090 0.03825388 -0.00858592
v -0.00121179 0.03853099 -0.00826281
v -0.00096011 0.03883514 -0.00826281
v -0.00069027 0.03904804 -0.00876527
v -0.00043858 0.03931163 -0.00876527
v -0.00019261 0.03956283 -0.00876527
v 0.00005874 0.03981742 -0.00876527
v 0.00022138 0.03996611 -0.00876527
v 0.00022138 0.03887231 -0.00056083
v 0.00022138 0.03924066 -0.00099070
v 0.00016291 0.03921476 -0.00102343
v -0.00000141 0.03888019 -0.00081562
v -0.00047689 0.03836314 -0.00082843
v -0.00065196 0.03801957 -0.00068467
v -0.00093826 0.03782131 -0.00087683
v -0.00111166 0.03745972 -0.00074445
v -0.00139392 0.03725245 -0.00094942
v -0.00184387 0.03666894 -0.00105475
v -0.00238522 0.03572270 -0.00097504
v -0.00231263 0.03552332 -0.00067755
v -0.00291615 0.03476520 -0.00092522
v -0.00321152 0.03424928 -0.00095369
v -0.00298369 0.03588041 -0.00876527
v -0.00283113 0.03613161 -0.00876527
v -0.00261439 0.03647969 -0.00876527
v -0.00242151 0.03678496 -0.00876527
v -0.00225248 0.03703616 -0.00876527
v -0.00321152 0.03553120 -0.00865994
v -0.00228945 0.03708911 -0.00826281
v -0.00203810 0.03744620 -0.00826281
v -0.00187445 0.03772444 -0.00792262
v -0.00163217 0.03798916 -0.00826281
v -0.00141140 0.03827979 -0.00826281
v -0.00143962 0.03831358 -0.00776035
v -0.00123296 0.03856478 -0.00776035
v -0.00098161 0.03885992 -0.00776035
v -0.00074706 0.03911112 -0.00776035
v -0.00072152 0.03908634 -0.00826281
v -0.00046984 0.03933979 -0.00826281
v -0.00049571 0.03936232 -0.00776035
v 0.00003589 0.03983882 -0.00826281
v 0.00022138 0.04001117 -0.00826281
v 0.00022138 0.03929586 -0.00107610
v 0.00006479 0.03931051 -0.00135936
v -0.00013582 0.03900636 -0.00120136
v -0.00033643 0.03869883 -0.00104336
v -0.00081225 0.03815588 -0.00111169
v -0.00099976 0.03798916 -0.00125687
v -0.00145743 0.03733693 -0.00122271
v -0.00192183 0.03678834 -0.00139067
v -0.00202734 0.03649321 -0.00122271
v -0.00230524 0.03599643 -0.00117431
v -0.00235598 0.03617667 -0.00155151
v -0.00245545 0.03584098 -0.00131096
v -0.00289027 0.03522368 -0.00147323
v -0.00296487 0.03494769 -0.00127253
v -0.00281735 0.03509977 -0.00113731
v -0.00321152 0.03449260 -0.00124264
v -0.00321152 0.03447007 -0.00121417
v -0.00321152 0.03562921 -0.00826281
v -0.00302133 0.03594236 -0.00826281
v -0.00286843 0.03619357 -0.00826281
v -0.00268597 0.03647969 -0.00826281
v -0.00245612 0.03683791 -0.00826281
v -0.00248502 0.03687959 -0.00776035
v -0.00231566 0.03713079 -0.00776035
v -0.00203306 0.03752843 -0.00775608
v -0.00189226 0.03774809 -0.00758670
v -0.00172357 0.03794523 -0.00775608
v -0.00170845 0.03801507 -0.00725647
v -0.00145743 0.03833498 -0.00725647
v -0.00124674 0.03858619 -0.00725647
v -0.00099505 0.03887456 -0.00725647
v -0.00076319 0.03912577 -0.00725647
v -0.00051184 0.03937697 -0.00725647
v 0.00001976 0.03985121 -0.00776035
v 0.00022138 0.04003820 -0.00776035
v 0.00022138 0.03940851 -0.00128392
v 0.00022138 0.03959550 -0.00167393
v 0.00022138 0.03961803 -0.00172517
v -0.00001586 0.03939161 -0.00172517
v -0.00026721 0.03912802 -0.00172517
v -0.00042111 0.03879796 -0.00137928
v -0.00088988 0.03825500 -0.00144618
v -0.00181228 0.03713304 -0.00172517
v -0.00198433 0.03688184 -0.00172517
v -0.00242218 0.03628594 -0.00188601
v -0.00252971 0.03599643 -0.00172090
v -0.00294034 0.03530816 -0.00172517
v -0.00321152 0.03473479 -0.00157002
v -0.00321152 0.03489813 -0.00179918
v -0.00321152 0.03572383 -0.00776747
v -0.00288658 0.03622285 -0.00796817
v -0.00276493 0.03643914 -0.00778455
v -0.00290002 0.03624426 -0.00763367
v -0.00191679 0.03778301 -0.00625013
v -0.00191309 0.03777625 -0.00675401
v -0.00190368 0.03776386 -0.00725647
v -0.00171584 0.03802746 -0.00675401
v -0.00146449 0.03834400 -0.00675401
v -0.00125514 0.03859520 -0.00675401
v -0.00100345 0.03888245 -0.00675401
v -0.00077159 0.03913365 -0.00675401
v -0.00051990 0.03938373 -0.00675401
v -0.00024301 0.03962817 -0.00725647
v 0.00022138 0.04004271 -0.00763652
v 0.00022138 0.03966534 -0.00185185
v 0.00016829 0.03971040 -0.00210948
v -0.00033609 0.03920236 -0.00213653
v -0.00048597 0.03887682 -0.00172517
v -0.00073732 0.03856704 -0.00172517
v -0.00093860 0.03831583 -0.00172517
v -0.00141240 0.03777851 -0.00190024
v -0.00154379 0.03750703 -0.00172944
v -0.00186739 0.03720964 -0.00203831
v -0.00231331 0.03661599 -0.00222905
v -0.00246990 0.03636479 -0.00222905
v -0.00285667 0.03567088 -0.00210806
v -0.00321152 0.03504457 -0.00207248
v -0.00302401 0.03602460 -0.00778455
v -0.00321152 0.03572608 -0.00423461
v -0.00290002 0.03624426 -0.00749702
v -0.00171987 0.03803422 -0.00625013
v -0.00191679 0.03778301 -0.00574910
v -0.00172055 0.03803534 -0.00574910
v -0.00146886 0.03834963 -0.00625013
v -0.00126119 0.03860196 -0.00625013
v -0.00100950 0.03888808 -0.00625013
v -0.00077697 0.03913928 -0.00625013
v -0.00052562 0.03939048 -0.00625013
v -0.00024873 0.03963605 -0.00675401
v 0.00022138 0.04005285 -0.00725647
v 0.00022138 0.03973518 -0.00204685
v 0.00022138 0.03976898 -0.00215076
v 0.00011721 0.03975884 -0.00244398
v -0.00037709 0.03924855 -0.00247245
v -0.00086030 0.03872249 -0.00256355
v -0.00081528 0.03866504 -0.00222905
v -0.00102126 0.03841384 -0.00222905
v -0.00127295 0.03810180 -0.00222905
v -0.00146348 0.03784948 -0.00222905
v -0.00173869 0.03746084 -0.00221481
v -0.00191242 0.03727498 -0.00237423
v -0.00204314 0.03701814 -0.00221481
v -0.00236035 0.03668921 -0.00259913
v -0.00273503 0.03593560 -0.00225609
v -0.00278106 0.03604938 -0.00273151
v -0.00293362 0.03579817 -0.00273151
v -0.00289901 0.03574073 -0.00244256
v -0.00300083 0.03549178 -0.00225609
v -0.00321152 0.03511441 -0.00220343
v -0.00321152 0.03569792 -0.00407804
v -0.00288590 0.03622285 -0.00404103
v -0.00276493 0.03643801 -0.00422037
v -0.00289867 0.03624313 -0.00437552
v -0.00248502 0.03687959 -0.00424030
v -0.00191309 0.03777625 -0.00524664
v -0.00146953 0.03834963 -0.00574910
v -0.00171685 0.03802746 -0.00524664
v -0.00146550 0.03834400 -0.00524664
v -0.00126018 0.03860196 -0.00574910
v -0.00100883 0.03888695 -0.00574910
v -0.00077697 0.03913816 -0.00574910
v -0.00052528 0.03939048 -0.00574910
v -0.00025410 0.03964169 -0.00625013
v -0.00025511 0.03964169 -0.00574910
v 0.00022138 0.04005510 -0.00714545
v 0.00022138 0.03982756 -0.00236142
v 0.00022138 0.03986698 -0.00254077
v 0.00022138 0.03989739 -0.00272724
v 0.00009268 0.03978362 -0.00273151
v -0.00015901 0.03952453 -0.00273151
v -0.00040061 0.03927333 -0.00273151
v -0.00092617 0.03879684 -0.00323396
v -0.00089626 0.03876417 -0.00289947
v -0.00105554 0.03852986 -0.00273151
v -0.00133747 0.03818404 -0.00273151
v -0.00152363 0.03793283 -0.00273151
v -0.00177532 0.03758363 -0.00273151
v -0.00195274 0.03733243 -0.00273151
v -0.00222459 0.03694267 -0.00275286
v -0.00239765 0.03674779 -0.00293363
v -0.00250753 0.03650447 -0.00275286
v -0.00321152 0.03538026 -0.00284965
v -0.00312852 0.03547375 -0.00273151
v -0.00321152 0.03533520 -0.00273151
v -0.00321152 0.03526198 -0.00255501
v -0.00321152 0.03562808 -0.00373784
v -0.00302099 0.03594124 -0.00373784
v -0.00286776 0.03619244 -0.00373784
v -0.00268563 0.03647969 -0.00373784
v -0.00245646 0.03683791 -0.00373784
v -0.00229046 0.03708911 -0.00373784
v -0.00231734 0.03713191 -0.00424030
v -0.00190368 0.03776386 -0.00474276
v -0.00170912 0.03801507 -0.00474276
v -0.00145811 0.03833386 -0.00474276
v -0.00125346 0.03859520 -0.00524664
v -0.00100211 0.03888132 -0.00524664
v -0.00077159 0.03913252 -0.00524664
v -0.00051990 0.03938598 -0.00524664
v -0.00025242 0.03963718 -0.00524664
v 0.00022138 0.04006524 -0.00625013
v 0.00022138 0.04005961 -0.00675401
v -0.00000342 0.03986698 -0.00574910
v 0.00022138 0.04006749 -0.00574910
v -0.00000107 0.03986586 -0.00524664
v 0.00022138 0.04006524 -0.00524664
v 0.00022138 0.03993682 -0.00300053
v 0.00005740 0.03981854 -0.00323396
v -0.00019395 0.03956509 -0.00323396
v -0.00044094 0.03931388 -0.00323396
v -0.00069229 0.03904804 -0.00323396
v -0.00096011 0.03883514 -0.00373784
v -0.00121179 0.03853324 -0.00373784
v -0.00121112 0.03844988 -0.00323966
v -0.00136872 0.03822459 -0.00307454
v -0.00181900 0.03764784 -0.00323396
v -0.00200113 0.03739663 -0.00323396
v -0.00225282 0.03703729 -0.00323396
v -0.00242184 0.03678496 -0.00323396
v -0.00261473 0.03647969 -0.00323396
v -0.00283113 0.03613161 -0.00323396
v -0.00298403 0.03588041 -0.00323396
v -0.00321152 0.03548614 -0.00317276
v -0.00321152 0.03550867 -0.00324393
v -0.00203910 0.03744733 -0.00373784
v -0.00203440 0.03752956 -0.00423888
v -0.00189259 0.03774922 -0.00440542
v -0.00144097 0.03831471 -0.00424030
v -0.00124472 0.03858506 -0.00474276
v -0.00123196 0.03856591 -0.00424030
v -0.00099304 0.03887344 -0.00474276
v -0.00076386 0.03912577 -0.00474276
v -0.00051218 0.03937809 -0.00474276
v -0.00024637 0.03962930 -0.00474276
v 0.00000531 0.03986248 -0.00474276
v 0.00022138 0.04005848 -0.00474276
v 0.00022138 0.03996724 -0.00323396
v 0.00022138 0.03999878 -0.00356561
v 0.00022138 0.04001455 -0.00373784
v 0.00003220 0.03984107 -0.00373784
v -0.00021949 0.03959550 -0.00373784
v -0.00047286 0.03934430 -0.00373784
v -0.00072421 0.03908634 -0.00373784
v -0.00074874 0.03911112 -0.00424030
v -0.00098060 0.03885992 -0.00424030
v -0.00141308 0.03828091 -0.00373784
v -0.00139157 0.03825388 -0.00341046
v -0.00185462 0.03769853 -0.00373784
v -0.00187579 0.03772669 -0.00406950
v -0.00172559 0.03794523 -0.00423888
v -0.00049739 0.03936458 -0.00424030
v -0.00023529 0.03961578 -0.00424030
v 0.00001607 0.03985459 -0.00424030
v 0.00022138 0.04004271 -0.00424030
v 0.00022138 0.04005510 -0.00463031
v 0.00022138 0.04003595 -0.00410793
v -0.00163486 0.03798916 -0.00373784
f 1 2 7
f 1 7 16
f 1 16 29
f 1 29 41
f 1 41 55
f 1 55 75
f 1 75 96
f 1 96 117
f 1 117 148
f 1 148 178
f 1 178 216
f 1 216 179
f 1 179 149
f 1 149 118
f 1 118 97
f 1 97 76
f 1 76 56
f 1 56 43
f 1 43 31
f 1 31 17
f 1 17 9
f 1 9 3
f 1 3 4
f 1 4 5
f 1 5 2
f 2 6 7
f 2 5 8
f 2 8 6
f 3 9 4
f 4 9 10
f 4 10 5
f 5 10 11
f 5 11 12
f 5 12 8
f 6 8 13
f 6 13 7
f 7 13 14
f 7 14 15
f 7 15 16
f 8 12 13
f 9 17 18
f 9 18 10
f 10 19 11
f 10 18 19
f 11 19 20
f 11 20 21
f 11 21 22
f 11 22 12
f 12 22 23
f 12 23 13
f 13 23 24
f 13 24 25
f 13 25 14
f 14 25 26
f 14 26 15
f 15 26 16
f 16 26 27
f 16 27 28
f 16 28 29
f 17 30 19
f 17 19 18
f 17 31 30
f 19 30 20
f 20 32 33
f 20 33 34
f 20 34 21
f 20 30 32
f 21 35 22
f 21 34 35
f 22 35 36
f 22 36 37
f 22 37 23
f 23 37 38
f 23 38 39
f 23 39 40
f 23 40 24
f 24 40 39
f 24 39 38
f 24 38 36
f 24 36 53
f 24 53 73
f 24 73 72
f 24 72 71
f 24 71 70
f 24 70 69
f 24 69 93
f 24 93 113
f 24 113 143
f 24 143 142
f 24 142 141
f 24 141 140
f 24 140 139
f 24 139 173
f 24 173 209
f 24 209 244
f 24 244 282
f 24 282 312
f 24 312 344
f 24 344 347
f 24 347 346
f 24 346 379
f 24 379 409
f 24 409 439
f 24 439 438
f 24 438 449
f 24 449 485
f 24 485 519
f 24 519 554
f 24 554 583
f 24 583 609
f 24 609 644
f 24 644 681
f 24 681 680
f 24 680 683
f 24 683 685
f 24 685 715
f 24 715 734
f 24 734 733
f 24 733 735
f 24 735 718
f 24 718 717
f 24 717 716
f 24 716 686
f 24 686 647
f 24 647 646
f 24 646 645
f 24 645 611
f 24 611 610
f 24 610 584
f 24 584 557
f 24 557 556
f 24 556 555
f 24 555 520
f 24 520 487
f 24 487 486
f 24 486 450
f 24 450 416
f 24 416 386
f 24 386 356
f 24 356 355
f 24 355 354
f 24 354 352
f 24 352 321
f 24 321 320
f 24 320 319
f 24 319 318
f 24 318 317
f 24 317 290
f 24 290 289
f 24 289 288
f 24 288 287
f 24 287 249
f 24 249 248
f 24 248 247
f 24 247 212
f 24 212 211
f 24 211 210
f 24 210 174
f 24 174 144
f 24 144 114
f 24 114 94
f 24 94 74
f 24 74 54
f 24 54 41
f 24 41 29
f 24 29 28
f 24 28 27
f 24 27 26
f 24 26 25
f 30 31 42
f 30 42 32
f 31 43 44
f 31 44 45
f 31 45 32
f 31 32 42
f 32 45 46
f 32 46 33
f 33 46 47
f 33 47 48
f 33 48 49
f 33 49 34
f 34 49 50
f 34 50 51
f 34 51 35
f 35 51 52
f 35 52 53
f 35 53 36
f 36 38 37
f 41 54 55
f 43 56 77
f 43 77 101
f 43 101 125
f 43 125 158
f 43 158 191
f 43 191 233
f 43 233 264
f 43 264 263
f 43 263 262
f 43 262 302
f 43 302 332
f 43 332 370
f 43 370 400
f 43 400 430
f 43 430 425
f 43 425 424
f 43 424 423
f 43 423 429
f 43 429 463
f 43 463 467
f 43 467 466
f 43 466 499
f 43 499 536
f 43 536 535
f 43 535 567
f 43 567 568
f 43 568 596
f 43 596 628
f 43 628 664
f 43 664 663
f 43 663 661
f 43 661 702
f 43 702 703
f 43 703 665
f 43 665 629
f 43 629 598
f 43 598 569
f 43 569 537
f 43 537 505
f 43 505 471
f 43 471 468
f 43 468 431
f 43 431 402
f 43 402 401
f 43 401 372
f 43 372 371
f 43 371 333
f 43 333 305
f 43 305 304
f 43 304 303
f 43 303 269
f 43 269 268
f 43 268 267
f 43 267 266
f 43 266 265
f 43 265 234
f 43 234 193
f 43 193 192
f 43 192 159
f 43 159 126
f 43 126 103
f 43 103 102
f 43 102 79
f 43 79 78
f 43 78 57
f 43 57 44
f 44 57 45
f 45 57 58
f 45 58 46
f 46 58 59
f 46 59 60
f 46 60 61
f 46 61 47
f 47 61 48
f 48 62 49
f 48 61 63
f 48 63 64
f 48 64 62
f 49 62 65
f 49 65 50
f 50 65 66
f 50 66 67
f 50 67 68
f 50 68 52
f 50 52 51
f 52 68 69
f 52 69 70
f 52 70 71
f 52 71 72
f 52 72 73
f 52 73 53
f 54 74 55
f 55 74 75
f 56 76 77
f 57 78 58
f 58 78 79
f 58 79 80
f 58 80 59
f 59 80 60
f 60 81 82
f 60 82 63
f 60 63 61
f 60 80 81
f 62 64 65
f 63 82 83
f 63 83 84
f 63 84 85
f 63 85 86
f 63 86 87
f 63 87 64
f 64 87 88
f 64 88 89
f 64 89 90
f 64 90 91
f 64 91 65
f 65 91 66
f 66 91 92
f 66 92 67
f 67 92 93
f 67 93 69
f 67 69 68
f 74 94 75
f 75 95 96
f 75 94 95
f 76 97 98
f 76 98 99
f 76 99 77
f 77 99 100
f 77 100 101
f 79 102 80
f 80 102 81
f 81 102 83
f 81 83 82
f 83 102 103
f 83 103 104
f 83 104 105
f 83 105 85
f 83 85 84
f 85 105 86
f 86 105 106
f 86 106 107
f 86 107 108
f 86 108 88
f 86 88 87
f 88 108 89
f 89 108 109
f 89 109 110
f 89 110 111
f 89 111 112
f 89 112 92
f 89 92 90
f 90 92 91
f 92 112 113
f 92 113 93
f 94 114 115
f 94 115 95
f 95 115 116
f 95 116 96
f 96 116 117
f 97 118 119
f 97 119 98
f 98 120 121
f 98 121 99
f 98 119 122
f 98 122 120
f 99 121 100
f 100 123 124
f 100 124 125
f 100 125 101
f 100 121 123
f 103 126 127
f 103 127 104
f 104 127 105
f 105 127 128
f 105 128 129
f 105 129 106
f 106 129 130
f 106 130 131
f 106 131 107
f 107 132 108
f 107 131 133
f 107 133 132
f 108 132 109
f 109 132 134
f 109 134 110
f 110 135 136
f 110 136 137
f 110 137 111
f 110 134 132
f 110 132 135
f 111 137 138
f 111 138 139
f 111 139 140
f 111 140 141
f 111 141 142
f 111 142 112
f 112 142 143
f 112 143 113
f 114 144 145
f 114 145 146
f 114 146 147
f 114 147 115
f 115 147 116
f 116 147 148
f 116 148 117
f 118 149 150
f 118 150 151
f 118 151 119
f 119 151 122
f 120 122 152
f 120 152 153
f 120 153 154
f 120 154 121
f 121 154 123
f 122 151 155
f 122 155 152
f 123 156 124
f 123 154 156
f 124 156 157
f 124 157 125
f 125 157 158
f 126 159 127
f 127 159 128
f 128 159 160
f 128 160 161
f 128 161 129
f 129 161 130
f 130 161 162
f 130 162 163
f 130 163 133
f 130 133 131
f 132 133 135
f 133 164 135
f 133 163 165
f 133 165 166
f 133 166 167
f 133 167 168
f 133 168 164
f 135 164 136
f 136 164 169
f 136 169 170
f 136 170 137
f 137 170 171
f 137 171 172
f 137 172 138
f 138 172 173
f 138 173 139
f 144 174 145
f 145 174 175
f 145 175 176
f 145 176 146
f 146 177 147
f 146 176 177
f 147 177 148
f 148 177 178
f 149 179 150
f 150 179 180
f 150 180 151
f 151 180 155
f 152 181 182
f 152 182 183
f 152 183 153
f 152 155 181
f 153 183 184
f 153 184 185
f 153 185 186
f 153 186 154
f 154 186 185
f 154 185 187
f 154 187 156
f 155 180 177
f 155 177 181
f 156 187 188
f 156 188 189
f 156 189 157
f 157 189 190
f 157 190 158
f 158 190 191
f 159 192 160
f 160 192 193
f 160 193 194
f 160 194 161
f 161 194 195
f 161 195 162
f 162 195 196
f 162 196 197
f 162 197 198
f 162 198 199
f 162 199 163
f 163 199 165
f 164 168 169
f 165 200 166
f 165 199 200
f 166 200 201
f 166 201 202
f 166 202 168
f 166 168 167
f 168 202 203
f 168 203 204
f 168 204 205
f 168 205 206
f 168 206 207
f 168 207 169
f 169 207 172
f 169 172 171
f 169 171 170
f 172 207 206
f 172 206 208
f 172 208 209
f 172 209 173
f 174 210 175
f 175 210 211
f 175 211 212
f 175 212 213
f 175 213 214
f 175 214 176
f 176 214 181
f 176 181 177
f 177 180 215
f 177 215 216
f 177 216 178
f 179 216 215
f 179 215 180
f 181 214 182
f 182 217 183
f 182 214 217
f 183 217 218
f 183 218 219
f 183 219 184
f 184 219 220
f 184 220 221
f 184 221 222
f 184 222 185
f 185 188 187
f 185 222 223
f 185 223 188
f 188 223 224
f 188 224 225
f 188 225 226
f 188 226 227
f 188 227 189
f 189 227 190
f 190 227 226
f 190 226 225
f 190 225 228
f 190 228 191
f 191 228 229
f 191 229 230
f 191 230 231
f 191 231 232
f 191 232 233
f 193 234 195
f 193 195 194
f 195 234 196
f 196 234 235
f 196 235 197
f 197 235 236
f 197 236 198
f 198 236 237
f 198 237 238
f 198 238 199
f 199 238 200
f 200 238 201
f 201 239 240
f 201 240 202
f 201 238 239
f 202 240 241
f 202 241 203
f 203 241 204
f 204 241 242
f 204 242 205
f 205 242 243
f 205 243 206
f 206 243 208
f 208 244 209
f 208 243 245
f 208 245 246
f 208 246 244
f 212 247 213
f 213 217 214
f 213 247 248
f 213 248 217
f 217 248 249
f 217 249 250
f 217 250 251
f 217 251 218
f 218 251 252
f 218 252 219
f 219 252 253
f 219 253 254
f 219 254 220
f 220 254 255
f 220 255 222
f 220 222 221
f 222 255 256
f 222 256 257
f 222 257 223
f 223 257 224
f 224 257 258
f 224 258 259
f 224 259 230
f 224 230 225
f 225 229 228
f 225 230 229
f 230 259 260
f 230 260 261
f 230 261 232
f 230 232 231
f 232 261 262
f 232 262 263
f 232 263 264
f 232 264 233
f 234 265 235
f 235 266 236
f 235 265 266
f 236 266 267
f 236 267 237
f 237 267 268
f 237 268 269
f 237 269 270
f 237 270 271
f 237 271 272
f 237 272 239
f 237 239 238
f 239 272 271
f 239 271 273
f 239 273 274
f 239 274 240
f 240 274 241
f 241 274 275
f 241 275 276
f 241 276 277
f 241 277 278
f 241 278 279
f 241 279 280
f 241 280 242
f 242 280 243
f 243 280 245
f 244 246 281
f 244 281 282
f 245 281 246
f 245 280 283
f 245 283 284
f 245 284 285
f 245 285 286
f 245 286 281
f 249 287 251
f 249 251 250
f 251 287 288
f 251 288 289
f 251 289 252
f 252 289 253
f 253 290 291
f 253 291 254
f 253 289 290
f 254 291 255
f 255 291 292
f 255 292 256
f 256 292 293
f 256 293 257
f 257 293 258
f 258 293 294
f 258 294 295
f 258 295 296
f 258 296 259
f 259 296 297
f 259 297 298
f 259 298 260
f 260 298 299
f 260 299 300
f 260 300 261
f 261 300 301
f 261 301 262
f 262 301 302
f 269 303 271
f 269 271 270
f 271 303 304
f 271 304 305
f 271 305 306
f 271 306 307
f 271 307 275
f 271 275 274
f 271 274 273
f 275 307 308
f 275 308 277
f 275 277 276
f 277 308 309
f 277 309 278
f 278 309 310
f 278 310 279
f 279 310 311
f 279 311 280
f 280 311 283
f 281 312 282
f 281 286 313
f 281 313 312
f 283 311 284
f 284 311 314
f 284 314 285
f 285 314 315
f 285 315 316
f 285 316 313
f 285 313 286
f 290 317 291
f 291 317 318
f 291 318 319
f 291 319 292
f 292 319 320
f 292 320 321
f 292 321 322
f 292 322 293
f 293 322 323
f 293 323 294
f 294 324 295
f 294 323 324
f 295 324 325
f 295 325 326
f 295 326 327
f 295 327 297
f 295 297 296
f 297 327 298
f 298 327 328
f 298 328 299
f 299 328 329
f 299 329 330
f 299 330 331
f 299 331 300
f 300 331 301
f 301 331 332
f 301 332 302
f 305 333 334
f 305 334 306
f 306 334 307
f 307 334 308
f 308 334 335
f 308 335 336
f 308 336 337
f 308 337 338
f 308 338 339
f 308 339 340
f 308 340 309
f 309 340 339
f 309 339 341
f 309 341 310
f 310 341 342
f 310 342 343
f 310 343 314
f 310 314 311
f 312 313 344
f 313 316 345
f 313 345 346
f 313 346 347
f 313 347 344
f 314 343 348
f 314 348 349
f 314 349 315
f 315 349 350
f 315 350 351
f 315 351 345
f 315 345 316
f 321 352 322
f 322 352 323
f 323 353 325
f 323 325 324
f 323 352 354
f 323 354 355
f 323 355 356
f 323 356 357
f 323 357 353
f 325 353 326
f 326 353 358
f 326 358 359
f 326 359 360
f 326 360 327
f 327 361 362
f 327 362 363
f 327 363 328
f 327 360 359
f 327 359 364
f 327 364 365
f 327 365 361
f 328 363 366
f 328 366 329
f 329 366 367
f 329 367 368
f 329 368 369
f 329 369 330
f 330 369 370
f 330 370 332
f 330 332 331
f 333 371 334
f 334 371 335
f 335 371 372
f 335 372 336
f 336 338 337
f 336 372 373
f 336 373 338
f 338 373 374
f 338 374 339
f 339 375 376
f 339 376 377
f 339 377 342
f 339 342 341
f 339 374 375
f 342 377 343
f 343 377 348
f 345 351 378
f 345 378 379
f 345 379 346
f 348 377 349
f 349 380 381
f 349 381 350
f 349 377 382
f 349 382 380
f 350 381 383
f 350 383 384
f 350 384 385
f 350 385 351
f 351 385 378
f 353 357 358
f 356 386 357
f 357 386 387
f 357 387 388
f 357 388 389
f 357 389 358
f 358 389 359
f 359 389 364
f 361 366 363
f 361 363 362
f 361 365 390
f 361 390 391
f 361 391 366
f 364 389 392
f 364 392 393
f 364 393 394
f 364 394 395
f 364 395 365
f 365 395 390
f 366 391 396
f 366 396 367
f 367 396 397
f 367 397 398
f 367 398 368
f 368 399 369
f 368 398 399
f 369 399 400
f 369 400 370
f 372 401 373
f 373 401 402
f 373 402 403
f 373 403 374
f 374 403 404
f 374 404 405
f 374 405 406
f 374 406 375
f 375 406 376
f 376 407 377
f 376 406 382
f 376 382 407
f 377 407 382
f 378 385 408
f 378 408 379
f 379 408 409
f 380 382 410
f 380 410 381
f 381 410 383
f 382 406 411
f 382 411 410
f 383 410 412
f 383 412 413
f 383 413 384
f 384 413 385
f 385 413 414
f 385 414 415
f 385 415 408
f 386 416 387
f 387 416 417
f 387 417 389
f 387 389 388
f 389 417 392
f 390 396 391
f 390 395 418
f 390 418 419
f 390 419 396
f 392 417 420
f 392 420 421
f 392 421 393
f 393 421 422
f 393 422 394
f 394 422 395
f 395 422 418
f 396 419 397
f 397 423 424
f 397 424 425
f 397 425 398
f 397 419 426
f 397 426 427
f 397 427 428
f 397 428 429
f 397 429 423
f 398 425 399
f 399 430 400
f 399 425 430
f 402 431 432
f 402 432 403
f 403 432 431
f 403 431 404
f 404 431 433
f 404 433 434
f 404 434 405
f 405 435 406
f 405 434 435
f 406 435 436
f 406 436 437
f 406 437 411
f 408 415 438
f 408 438 439
f 408 439 409
f 410 411 412
f 411 437 436
f 411 436 440
f 411 440 441
f 411 441 412
f 412 442 443
f 412 443 413
f 412 441 444
f 412 444 442
f 413 443 442
f 413 442 414
f 414 442 445
f 414 445 446
f 414 446 415
f 415 446 447
f 415 447 448
f 415 448 449
f 415 449 438
f 416 450 451
f 416 451 452
f 416 452 453
f 416 453 417
f 417 453 420
f 418 422 454
f 418 454 455
f 418 455 419
f 419 455 427
f 419 427 426
f 420 456 421
f 420 453 456
f 421 456 457
f 421 457 422
f 422 457 458
f 422 458 459
f 422 459 460
f 422 460 461
f 422 461 462
f 422 462 454
f 427 463 429
f 427 429 428
f 427 455 454
f 427 454 462
f 427 462 464
f 427 464 465
f 427 465 466
f 427 466 467
f 427 467 463
f 431 468 433
f 433 469 470
f 433 470 434
f 433 468 471
f 433 471 469
f 434 436 435
f 434 470 469
f 434 469 472
f 434 472 436
f 436 472 473
f 436 473 440
f 440 473 474
f 440 474 441
f 441 474 475
f 441 475 444
f 442 444 445
f 444 476 445
f 444 475 477
f 444 477 478
f 444 478 476
f 445 476 479
f 445 479 480
f 445 480 481
f 445 481 446
f 446 481 482
f 446 482 447
f 447 482 448
f 448 482 483
f 448 483 484
f 448 484 485
f 448 485 449
f 450 486 451
f 451 456 452
f 451 486 487
f 451 487 488
f 451 488 489
f 451 489 456
f 452 456 453
f 456 489 490
f 456 490 491
f 456 491 457
f 457 491 492
f 457 492 493
f 457 493 458
f 458 493 494
f 458 494 459
f 459 494 495
f 459 495 460
f 460 495 496
f 460 496 497
f 460 497 462
f 460 462 461
f 462 497 464
f 464 497 496
f 464 496 498
f 464 498 465
f 465 498 466
f 466 498 499
f 469 473 472
f 469 471 500
f 469 500 501
f 469 501 502
f 469 502 503
f 469 503 504
f 469 504 474
f 469 474 473
f 471 505 500
f 474 504 506
f 474 506 507
f 474 507 475
f 475 507 477
f 476 478 479
f 477 507 508
f 477 508 509
f 477 509 478
f 478 509 510
f 478 510 479
f 479 510 511
f 479 511 512
f 479 512 480
f 480 512 513
f 480 513 514
f 480 514 515
f 480 515 481
f 481 515 482
f 482 515 483
f 483 515 484
f 484 515 516
f 484 516 517
f 484 517 518
f 484 518 519
f 484 519 485
f 487 520 488
f 488 520 521
f 488 521 522
f 488 522 523
f 488 523 489
f 489 523 490
f 490 492 491
f 490 523 524
f 490 524 492
f 492 524 494
f 492 494 493
f 494 524 525
f 494 525 526
f 494 526 527
f 494 527 495
f 495 527 528
f 495 528 496
f 496 528 527
f 496 527 529
f 496 529 530
f 496 530 531
f 496 531 532
f 496 532 533
f 496 533 534
f 496 534 498
f 498 534 533
f 498 533 535
f 498 535 536
f 498 536 499
f 500 505 537
f 500 537 501
f 501 537 538
f 501 538 539
f 501 539 502
f 502 539 503
f 503 539 540
f 503 540 541
f 503 541 506
f 503 506 504
f 506 541 542
f 506 542 543
f 506 543 507
f 507 543 544
f 507 544 508
f 508 510 509
f 508 544 545
f 508 545 546
f 508 546 510
f 510 546 511
f 511 546 545
f 511 545 547
f 511 547 548
f 511 548 512
f 512 548 549
f 512 549 513
f 513 549 550
f 513 550 551
f 513 551 514
f 514 517 516
f 514 516 515
f 514 551 552
f 514 552 517
f 517 552 518
f 518 552 553
f 518 553 519
f 519 553 554
f 520 555 521
f 521 555 556
f 521 556 557
f 521 557 558
f 521 558 559
f 521 559 560
f 521 560 522
f 522 560 523
f 523 560 524
f 524 560 561
f 524 561 525
f 525 561 526
f 526 561 527
f 527 530 529
f 527 561 562
f 527 562 563
f 527 563 564
f 527 564 530
f 530 565 566
f 530 566 532
f 530 532 531
f 530 564 565
f 532 567 533
f 532 566 568
f 532 568 567
f 533 567 535
f 537 569 570
f 537 570 538
f 538 570 539
f 539 570 540
f 540 570 541
f 541 570 542
f 542 570 571
f 542 571 572
f 542 572 573
f 542 573 574
f 542 574 543
f 543 575 545
f 543 545 544
f 543 574 575
f 545 575 547
f 547 575 574
f 547 574 548
f 548 574 576
f 548 576 577
f 548 577 578
f 548 578 549
f 549 578 550
f 550 578 579
f 550 579 580
f 550 580 551
f 551 580 552
f 552 580 581
f 552 581 582
f 552 582 553
f 553 582 554
f 554 582 583
f 557 584 558
f 558 584 585
f 558 585 586
f 558 586 559
f 559 586 587
f 559 587 560
f 560 587 561
f 561 587 588
f 561 588 589
f 561 589 590
f 561 590 591
f 561 591 562
f 562 591 590
f 562 590 592
f 562 592 563
f 563 592 593
f 563 593 564
f 564 593 594
f 564 594 595
f 564 595 568
f 564 568 566
f 564 566 565
f 568 595 596
f 569 572 597
f 569 597 570
f 569 598 572
f 570 597 572
f 570 572 571
f 572 599 601
f 572 601 573
f 572 598 599
f 573 600 574
f 573 601 602
f 573 602 600
f 574 600 576
f 576 600 577
f 577 600 603
f 577 603 604
f 577 604 578
f 578 604 579
f 579 604 605
f 579 605 580
f 580 605 606
f 580 606 607
f 580 607 581
f 581 607 608
f 581 608 582
f 582 608 609
f 582 609 583
f 584 610 585
f 585 610 611
f 585 611 612
f 585 612 586
f 586 612 613
f 586 613 614
f 586 614 615
f 586 615 587
f 587 615 616
f 587 616 588
f 588 616 617
f 588 617 589
f 589 617 590
f 590 617 618
f 590 618 592
f 592 618 619
f 592 619 620
f 592 620 621
f 592 621 593
f 593 621 622
f 593 622 594
f 594 623 595
f 594 622 624
f 594 624 625
f 594 625 626
f 594 626 623
f 595 623 626
f 595 626 627
f 595 627 628
f 595 628 596
f 598 629 630
f 598 630 631
f 598 631 632
f 598 632 599
f 599 632 601
f 600 602 603
f 601 632 633
f 601 633 634
f 601 634 602
f 602 635 603
f 602 634 636
f 602 636 637
f 602 637 635
f 603 635 604
f 604 635 638
f 604 638 605
f 605 638 639
f 605 639 640
f 605 640 606
f 606 640 641
f 606 641 607
f 607 642 608
f 607 641 643
f 607 643 642
f 608 642 609
f 609 642 644
f 611 645 612
f 612 646 647
f 612 647 648
f 612 648 649
f 612 649 650
f 612 650 613
f 612 645 646
f 613 650 651
f 613 651 652
f 613 652 614
f 614 652 653
f 614 653 654
f 614 654 617
f 614 617 616
f 614 616 615
f 617 654 618
f 618 654 655
f 618 655 620
f 618 620 619
f 620 655 656
f 620 656 657
f 620 657 658
f 620 658 622
f 620 622 621
f 622 658 659
f 622 659 660
f 622 660 624
f 624 660 659
f 624 659 661
f 624 661 625
f 625 662 626
f 625 661 662
f 626 662 663
f 626 663 664
f 626 664 627
f 627 664 628
f 629 665 666
f 629 666 667
f 629 667 630
f 630 667 668
f 630 668 669
f 630 669 633
f 630 633 631
f 631 633 632
f 633 669 670
f 633 670 671
f 633 671 634
f 634 672 673
f 634 673 636
f 634 671 672
f 635 637 638
f 636 673 674
f 636 674 637
f 637 674 675
f 637 675 638
f 638 675 676
f 638 676 639
f 639 676 677
f 639 677 640
f 640 677 678
f 640 678 641
f 641 678 679
f 641 679 643
f 642 680 681
f 642 681 644
f 642 643 682
f 642 682 683
f 642 683 680
f 643 679 684
f 643 684 685
f 643 685 682
f 647 686 648
f 648 686 687
f 648 687 688
f 648 688 689
f 648 689 649
f 649 689 650
f 650 689 690
f 650 690 651
f 651 690 691
f 651 691 692
f 651 692 693
f 651 693 694
f 651 694 652
f 652 694 654
f 652 654 653
f 654 694 655
f 655 694 695
f 655 695 696
f 655 696 656
f 656 696 657
f 657 696 697
f 657 697 659
f 657 659 658
f 659 697 698
f 659 698 699
f 659 699 700
f 659 700 701
f 659 701 702
f 659 702 661
f 661 663 662
f 665 703 701
f 665 701 666
f 666 701 700
f 666 700 667
f 667 700 699
f 667 699 698
f 667 698 668
f 668 698 669
f 669 698 670
f 670 698 697
f 670 697 696
f 670 696 704
f 670 704 671
f 671 704 705
f 671 705 706
f 671 706 672
f 672 706 673
f 673 706 707
f 673 707 674
f 674 708 675
f 674 707 709
f 674 709 708
f 675 708 710
f 675 710 676
f 676 710 711
f 676 711 677
f 677 711 678
f 678 711 712
f 678 712 713
f 678 713 679
f 679 713 714
f 679 714 684
f 682 685 683
f 684 714 715
f 684 715 685
f 686 716 687
f 687 716 717
f 687 717 718
f 687 718 719
f 687 719 720
f 687 720 721
f 687 721 688
f 688 721 689
f 689 721 722
f 689 722 690
f 690 722 691
f 691 722 723
f 691 723 724
f 691 724 709
f 691 709 692
f 692 709 707
f 692 707 725
f 692 725 726
f 692 726 693
f 693 726 694
f 694 726 727
f 694 727 695
f 695 727 704
f 695 704 696
f 701 703 702
f 704 727 728
f 704 728 705
f 705 728 706
f 706 728 729
f 706 729 707
f 707 729 725
f 708 709 724
f 708 724 710
f 710 724 711
f 711 724 723
f 711 723 730
f 711 730 712
f 712 730 731
f 712 731 732
f 712 732 713
f 713 732 714
f 714 732 733
f 714 733 734
f 714 734 715
f 718 735 719
f 719 735 732
f 719 732 731
f 719 731 730
f 719 730 720
f 720 730 721
f 721 730 723
f 721 723 722
f 725 736 726
f 725 729 728
f 725 728 736
f 726 736 727
f 727 736 728
f 732 735 733

