# https://github.com/mikedh/trimesh
v 0.00232100 -0.00223880 -0.00876624
v 0.00218445 -0.00223880 -0.00926914
v 0.00231979 -0.00223880 -0.00826359
v -0.00042326 -0.00743103 -0.00826359
v -0.00042446 -0.00743103 -0.00876624
v -0.00032538 -0.00712796 -0.00914124
v 0.00184731 -0.00223880 -0.00960375
v -0.00047643 -0.00728813 -0.00929308
v -0.00040271 -0.00695468 -0.00947659
v -0.00081961 -0.00761950 -0.00956834
v 0.00225695 -0.00223880 -0.00776044
v -0.00031450 -0.00715282 -0.00776044
v -0.00045709 -0.00740480 -0.00776044
v -0.00067702 -0.00778036 -0.00776044
v -0.00062989 -0.00778036 -0.00826359
v -0.00062989 -0.00778036 -0.00876624
v -0.00084861 -0.00806341 -0.00908788
v -0.00074348 -0.00778450 -0.00926092
v 0.00165759 -0.00223880 -0.00965386
v -0.00072898 -0.00727708 -0.00962045
v -0.00113016 -0.00727708 -0.00974836
v -0.00094528 -0.00795502 -0.00942323
v -0.00128000 -0.00812554 -0.00957956
v -0.00111929 -0.00778450 -0.00963566
v 0.00216270 -0.00223880 -0.00759065
v -0.00034471 -0.00709345 -0.00748119
v -0.00086674 -0.00804339 -0.00749964
v -0.00084740 -0.00806341 -0.00776044
v -0.00083290 -0.00807791 -0.00826359
v -0.00083290 -0.00807859 -0.00876624
v -0.00136097 -0.00855357 -0.00906145
v -0.00115312 -0.00826154 -0.00924247
v 0.00138450 -0.00224847 -0.00972218
v 0.00138450 -0.00223880 -0.00972317
v -0.00113016 -0.00677450 -0.00977653
v -0.00163285 -0.00778036 -0.00975659
v -0.00147093 -0.00846037 -0.00939680
v -0.00180686 -0.00858532 -0.00956360
v -0.00163648 -0.00828916 -0.00963292
v 0.00193673 -0.00223880 -0.00743232
v -0.00062264 -0.00726742 -0.00743806
v -0.00080148 -0.00778036 -0.00746798
v -0.00113016 -0.00778036 -0.00740016
v -0.00117971 -0.00824014 -0.00747571
v -0.00138030 -0.00853562 -0.00750837
v -0.00111446 -0.00831539 -0.00776044
v -0.00109995 -0.00832989 -0.00826359
v -0.00109995 -0.00832989 -0.00876624
v -0.00135130 -0.00856254 -0.00876624
v -0.00163285 -0.00874894 -0.00876624
v -0.00204612 -0.00897262 -0.00876624
v -0.00232768 -0.00906167 -0.00908539
v -0.00163648 -0.00865091 -0.00924521
v 0.00088181 -0.00224847 -0.00977578
v 0.00088181 -0.00223880 -0.00977578
v -0.00213555 -0.00778036 -0.00977653
v -0.00868744 -0.00223880 -0.00981418
v -0.00213555 -0.00828294 -0.00974187
v -0.00263944 -0.00828294 -0.00977354
v -0.00215125 -0.00891186 -0.00925942
v -0.00252827 -0.00898850 -0.00942074
v -0.00286300 -0.00904649 -0.00952944
v -0.00213555 -0.00866126 -0.00961397
v 0.00191498 -0.00223880 -0.00742833
v -0.00062747 -0.00677450 -0.00738645
v -0.00113016 -0.00727708 -0.00737348
v -0.00163285 -0.00778036 -0.00737348
v -0.00213555 -0.00828294 -0.00737348
v -0.00163285 -0.00828294 -0.00740689
v -0.00163285 -0.00859568 -0.00747446
v -0.00136580 -0.00854942 -0.00776044
v -0.00236514 -0.00904649 -0.00749989
v -0.00207392 -0.00893948 -0.00776044
v -0.00163285 -0.00870268 -0.00776044
v -0.00163285 -0.00874894 -0.00826359
v -0.00135130 -0.00856254 -0.00826359
v -0.00204733 -0.00897262 -0.00826359
v -0.00229868 -0.00907341 -0.00826359
v -0.00229868 -0.00907341 -0.00876624
v -0.00263944 -0.00918939 -0.00876624
v -0.00267328 -0.00910310 -0.00925942
v -0.00314213 -0.00828294 -0.00977653
v -0.00414631 -0.00828294 -0.00977653
v -0.00515290 -0.00778036 -0.00977504
v -0.00565559 -0.00727708 -0.00977653
v -0.00917684 -0.00223880 -0.00980845
v -0.00267328 -0.00880693 -0.00962594
v -0.00314213 -0.00878622 -0.00966708
v -0.00364483 -0.00878622 -0.00967281
v -0.00314213 -0.00917835 -0.00926914
v -0.00314213 -0.00905615 -0.00953917
v 0.00189685 -0.00223880 -0.00742634
v -0.00062747 -0.00627122 -0.00737348
v 0.00139416 -0.00223880 -0.00737423
v -0.00917684 -0.00223880 -0.00726702
v -0.00314213 -0.00878622 -0.00737622
v -0.00263944 -0.00878622 -0.00740215
v -0.00217301 -0.00878415 -0.00744928
v -0.00232647 -0.00906236 -0.00776044
v -0.00263944 -0.00908238 -0.00746997
v -0.00263944 -0.00915833 -0.00776044
v -0.00263944 -0.00918939 -0.00826359
v -0.00314213 -0.00928121 -0.00876624
v -0.00465021 -0.00828294 -0.00974861
v -0.00615828 -0.00727708 -0.00973190
v -0.00666218 -0.00677450 -0.00974138
v -0.00666218 -0.00627122 -0.00977653
v -0.00766756 -0.00526605 -0.00977653
v -0.00817025 -0.00476278 -0.00975484
v -0.00867415 -0.00375691 -0.00976357
v -0.00906083 -0.00375691 -0.00963566
v -0.00918771 -0.00223880 -0.00980421
v -0.00364483 -0.00906236 -0.00954490
v -0.00395055 -0.00905477 -0.00953717
v -0.00412939 -0.00881314 -0.00963292
v -0.00364483 -0.00919077 -0.00926914
v -0.00971095 -0.00223880 -0.00734556
v -0.00817025 -0.00526605 -0.00738221
v -0.00766756 -0.00576864 -0.00737348
v -0.00666218 -0.00677450 -0.00737348
v -0.00565559 -0.00778036 -0.00737348
v -0.00465021 -0.00828294 -0.00737348
v -0.00364483 -0.00878622 -0.00737523
v -0.00364483 -0.00911760 -0.00744305
v -0.00314213 -0.00911552 -0.00744404
v -0.00314213 -0.00923288 -0.00776044
v -0.00314213 -0.00927638 -0.00826359
v -0.00364483 -0.00929157 -0.00876624
v -0.00465021 -0.00866540 -0.00962045
v -0.00514444 -0.00829468 -0.00965062
v -0.00570030 -0.00782454 -0.00967306
v -0.00615828 -0.00766645 -0.00960399
v -0.00662834 -0.00725085 -0.00961023
v -0.00714070 -0.00674757 -0.00961521
v -0.00716487 -0.00627122 -0.00973813
v -0.00819321 -0.00527364 -0.00965685
v -0.00856660 -0.00476278 -0.00962693
v -0.00870677 -0.00428711 -0.00966383
v -0.00899075 -0.00413731 -0.00958854
v -0.00949585 -0.00275105 -0.00959477
v -0.00956352 -0.00223880 -0.00965635
v -0.00412939 -0.00911552 -0.00926790
v -0.00428527 -0.00899885 -0.00943470
v -0.00497164 -0.00857980 -0.00956859
v -0.00414631 -0.00922115 -0.00876624
v -0.00977741 -0.00223880 -0.00739044
v -0.00947169 -0.00362091 -0.00747197
v -0.00898591 -0.00466820 -0.00746449
v -0.00871765 -0.00480696 -0.00742809
v -0.00816904 -0.00575828 -0.00743457
v -0.00770381 -0.00630781 -0.00742759
v -0.00857143 -0.00526605 -0.00745003
v -0.00720354 -0.00681247 -0.00742759
v -0.00669843 -0.00731436 -0.00742759
v -0.00618607 -0.00780728 -0.00742759
v -0.00515290 -0.00828294 -0.00738296
v -0.00414631 -0.00878622 -0.00739168
v -0.00364483 -0.00923841 -0.00776044
v -0.00414631 -0.00909481 -0.00745950
v -0.00364483 -0.00928328 -0.00826359
v -0.00414631 -0.00923081 -0.00826359
v -0.00556133 -0.00813452 -0.00960399
v -0.00643742 -0.00755392 -0.00954640
v -0.00695582 -0.00706514 -0.00955912
v -0.00744884 -0.00656186 -0.00955488
v -0.00756364 -0.00627122 -0.00961023
v -0.00803974 -0.00568165 -0.00960599
v -0.00847597 -0.00511141 -0.00957707
v -0.00889649 -0.00447213 -0.00946487
v -0.00906083 -0.00428711 -0.00928610
v -0.00930734 -0.00373206 -0.00924645
v -0.00944631 -0.00305274 -0.00954416
v -0.00979312 -0.00223880 -0.00924795
v -0.00445324 -0.00906581 -0.00909935
v -0.00463208 -0.00890427 -0.00926790
v -0.00514444 -0.00862605 -0.00921978
v -0.00530636 -0.00847003 -0.00935466
v -0.00589727 -0.00802198 -0.00950302
v -0.00458254 -0.00910793 -0.00826359
v -0.00454145 -0.00909550 -0.00876624
v -0.00998283 -0.00223880 -0.00769786
v -0.00990550 -0.00246248 -0.00762805
v -0.00967228 -0.00325433 -0.00776044
v -0.00951035 -0.00370859 -0.00776044
v -0.00891462 -0.00500371 -0.00754552
v -0.00846510 -0.00558362 -0.00747546
v -0.00799987 -0.00616422 -0.00746374
v -0.00756122 -0.00667094 -0.00746374
v -0.00706095 -0.00717146 -0.00746374
v -0.00655584 -0.00765816 -0.00746374
v -0.00603623 -0.00810966 -0.00746374
v -0.00564230 -0.00827949 -0.00743532
v -0.00515290 -0.00864124 -0.00745077
v -0.00414631 -0.00918939 -0.00776044
v -0.00446411 -0.00906029 -0.00748718
v -0.00453058 -0.00908722 -0.00776044
v -0.00615465 -0.00789634 -0.00930879
v -0.00650750 -0.00761812 -0.00926914
v -0.00703436 -0.00713625 -0.00926914
v -0.00728571 -0.00689255 -0.00926914
v -0.00751772 -0.00664126 -0.00926914
v -0.00791528 -0.00601648 -0.00951448
v -0.00837568 -0.00544693 -0.00940677
v -0.00896658 -0.00458535 -0.00912952
v -0.00901612 -0.00475725 -0.00873383
v -0.00928197 -0.00421739 -0.00872685
v -0.00937985 -0.00388256 -0.00886822
v -0.00944389 -0.00354704 -0.00906345
v -0.00949344 -0.00323431 -0.00924645
v -0.00964690 -0.00275105 -0.00926914
v -0.00980158 -0.00223880 -0.00922975
v -0.00479280 -0.00898228 -0.00876624
v -0.00515290 -0.00877793 -0.00876624
v -0.00547312 -0.00858187 -0.00876624
v -0.00540545 -0.00853562 -0.00901931
v -0.00598427 -0.00808757 -0.00916767
v -0.00633591 -0.00797159 -0.00876624
v -0.00483509 -0.00901128 -0.00826359
v -0.01000096 -0.00223880 -0.00774100
v -0.01000821 -0.00223880 -0.00777989
v -0.00972424 -0.00325433 -0.00826359
v -0.00951156 -0.00379972 -0.00826235
v -0.00942214 -0.00399578 -0.00809380
v -0.00902700 -0.00480696 -0.00773227
v -0.00893758 -0.00503616 -0.00788087
v -0.00850981 -0.00564920 -0.00776044
v -0.00789594 -0.00649973 -0.00760860
v -0.00739688 -0.00700577 -0.00756547
v -0.00689056 -0.00750628 -0.00757619
v -0.00546587 -0.00857635 -0.00747646
v -0.00515290 -0.00879864 -0.00776044
v -0.00667305 -0.00768647 -0.00872835
v -0.00684827 -0.00746900 -0.00887071
v -0.00714433 -0.00725844 -0.00872111
v -0.00743917 -0.00704788 -0.00857152
v -0.00736667 -0.00697677 -0.00890662
v -0.00764702 -0.00675241 -0.00871638
v -0.00792374 -0.00652804 -0.00852639
v -0.00785486 -0.00644105 -0.00886149
v -0.00779686 -0.00627260 -0.00931577
v -0.00798536 -0.00610623 -0.00917914
v -0.00817992 -0.00578037 -0.00929308
v -0.00844093 -0.00554565 -0.00907142
v -0.00893637 -0.00503409 -0.00854434
v -0.00853277 -0.00527364 -0.00925119
v -0.00943302 -0.00402201 -0.00853312
v -0.00948256 -0.00373206 -0.00872685
v -0.00964569 -0.00325433 -0.00876624
v -0.00982816 -0.00271930 -0.00873258
v -0.00988858 -0.00235064 -0.00887794
v -0.00990429 -0.00223880 -0.00892906
v -0.00515290 -0.00885525 -0.00826359
v -0.00554321 -0.00862951 -0.00826359
v -0.00572567 -0.00841204 -0.00876624
v -0.00608457 -0.00816006 -0.00876624
v -0.00640358 -0.00802682 -0.00826359
v -0.00692198 -0.00753666 -0.00853561
v -0.01002392 -0.00223880 -0.00826359
v -0.00987529 -0.00278557 -0.00826359
v -0.00943302 -0.00402201 -0.00842915
v -0.00993933 -0.00253083 -0.00854259
v -0.00933997 -0.00421739 -0.00826235
v -0.00894362 -0.00504513 -0.00826359
v -0.00878653 -0.00529643 -0.00826359
v -0.00853518 -0.00568441 -0.00826359
v -0.00908863 -0.00476278 -0.00826359
v -0.00792495 -0.00653011 -0.00794395
v -0.00743313 -0.00704236 -0.00790082
v -0.00692802 -0.00754287 -0.00791154
v -0.00638062 -0.00800266 -0.00776044
v -0.00552146 -0.00861432 -0.00776044
v -0.00744521 -0.00705479 -0.00826359
v -0.00769656 -0.00678416 -0.00826359
v -0.00693044 -0.00754563 -0.00826359
v -0.00718179 -0.00730677 -0.00826359
v -0.00792736 -0.00653218 -0.00826359
v -0.00811950 -0.00627122 -0.00826359
v -0.00836238 -0.00593501 -0.00826359
v -0.00849410 -0.00562366 -0.00876624
v -0.00831646 -0.00587495 -0.00876624
v -0.00803853 -0.00627260 -0.00872286
v -0.00996229 -0.00223880 -0.00873258
v -0.00579455 -0.00845761 -0.00826359
v -0.00615224 -0.00820562 -0.00826359
v -0.00666218 -0.00779140 -0.00826359
v -0.00996713 -0.00223880 -0.00871488
f 1 2 7
f 1 7 19
f 1 19 34
f 1 34 55
f 1 55 57
f 1 57 86
f 1 86 112
f 1 112 141
f 1 141 173
f 1 173 211
f 1 211 251
f 1 251 282
f 1 282 286
f 1 286 258
f 1 258 220
f 1 220 219
f 1 219 181
f 1 181 146
f 1 146 117
f 1 117 95
f 1 95 94
f 1 94 92
f 1 92 64
f 1 64 40
f 1 40 25
f 1 25 11
f 1 11 3
f 1 3 4
f 1 4 5
f 1 5 6
f 1 6 2
f 2 6 8
f 2 8 9
f 2 9 10
f 2 10 7
f 3 11 12
f 3 12 4
f 4 12 13
f 4 13 14
f 4 14 15
f 4 15 16
f 4 16 5
f 5 16 17
f 5 17 6
f 6 17 18
f 6 18 8
f 7 10 20
f 7 20 21
f 7 21 19
f 8 18 10
f 8 10 9
f 10 18 22
f 10 22 23
f 10 23 24
f 10 24 20
f 11 25 26
f 11 26 12
f 12 26 27
f 12 27 13
f 13 27 14
f 14 27 28
f 14 28 15
f 15 28 29
f 15 29 30
f 15 30 16
f 16 30 17
f 17 22 18
f 17 30 31
f 17 31 32
f 17 32 22
f 19 33 34
f 19 21 33
f 20 24 21
f 21 35 34
f 21 34 33
f 21 24 36
f 21 36 35
f 22 32 37
f 22 37 23
f 23 37 38
f 23 38 39
f 23 39 24
f 24 39 36
f 25 40 26
f 26 41 42
f 26 42 27
f 26 40 41
f 27 42 43
f 27 43 44
f 27 44 45
f 27 45 28
f 28 45 46
f 28 46 47
f 28 47 29
f 29 47 30
f 30 47 48
f 30 48 31
f 31 37 32
f 31 48 49
f 31 49 50
f 31 50 51
f 31 51 52
f 31 52 53
f 31 53 37
f 34 35 54
f 34 54 55
f 35 36 56
f 35 56 57
f 35 57 54
f 36 39 58
f 36 58 59
f 36 59 56
f 37 53 38
f 38 53 60
f 38 60 61
f 38 61 62
f 38 62 63
f 38 63 39
f 39 63 58
f 40 64 65
f 40 65 41
f 41 65 43
f 41 43 42
f 43 65 66
f 43 66 67
f 43 67 68
f 43 68 69
f 43 69 44
f 44 69 70
f 44 70 45
f 45 71 46
f 45 70 72
f 45 72 73
f 45 73 74
f 45 74 75
f 45 75 71
f 46 71 47
f 47 71 76
f 47 76 49
f 47 49 48
f 49 76 75
f 49 75 50
f 50 75 51
f 51 75 77
f 51 77 78
f 51 78 79
f 51 79 52
f 52 60 53
f 52 79 80
f 52 80 81
f 52 81 61
f 52 61 60
f 54 57 55
f 56 59 82
f 56 82 57
f 57 83 84
f 57 84 85
f 57 85 86
f 57 82 83
f 58 63 87
f 58 87 88
f 58 88 59
f 59 88 89
f 59 89 82
f 61 81 62
f 62 87 63
f 62 81 90
f 62 90 91
f 62 91 88
f 62 88 87
f 64 92 65
f 65 93 66
f 65 92 94
f 65 94 93
f 66 93 95
f 66 95 67
f 67 95 68
f 68 96 97
f 68 97 69
f 68 95 96
f 69 97 98
f 69 98 70
f 70 98 72
f 71 75 76
f 72 99 73
f 72 98 100
f 72 100 101
f 72 101 99
f 73 77 74
f 73 99 77
f 74 77 75
f 77 99 78
f 78 99 102
f 78 102 80
f 78 80 79
f 80 102 103
f 80 103 81
f 81 103 90
f 82 89 83
f 83 104 84
f 83 89 104
f 84 104 105
f 84 105 106
f 84 106 85
f 85 106 107
f 85 107 86
f 86 108 109
f 86 109 110
f 86 110 111
f 86 111 112
f 86 107 108
f 88 91 113
f 88 113 89
f 89 113 114
f 89 114 115
f 89 115 104
f 90 103 116
f 90 116 91
f 91 116 113
f 93 94 95
f 95 117 118
f 95 118 119
f 95 119 120
f 95 120 121
f 95 121 122
f 95 122 123
f 95 123 96
f 96 123 124
f 96 124 125
f 96 125 97
f 97 125 100
f 97 100 98
f 99 101 102
f 100 125 126
f 100 126 101
f 101 126 127
f 101 127 102
f 102 127 103
f 103 127 128
f 103 128 116
f 104 129 130
f 104 130 131
f 104 131 105
f 104 115 129
f 105 131 132
f 105 132 133
f 105 133 106
f 106 133 134
f 106 134 135
f 106 135 108
f 106 108 107
f 108 135 109
f 109 135 136
f 109 136 137
f 109 137 138
f 109 138 110
f 110 138 111
f 111 138 137
f 111 137 139
f 111 139 140
f 111 140 141
f 111 141 112
f 113 116 114
f 114 142 143
f 114 143 144
f 114 144 129
f 114 129 115
f 114 116 142
f 116 128 145
f 116 145 142
f 117 146 147
f 117 147 148
f 117 148 149
f 117 149 118
f 118 150 151
f 118 151 119
f 118 149 152
f 118 152 150
f 119 151 153
f 119 153 120
f 120 153 121
f 121 153 154
f 121 154 155
f 121 155 156
f 121 156 122
f 122 156 123
f 123 156 157
f 123 157 124
f 124 158 125
f 124 157 159
f 124 159 158
f 125 158 126
f 126 158 160
f 126 160 127
f 127 160 128
f 128 160 161
f 128 161 145
f 129 144 130
f 130 144 162
f 130 162 131
f 131 162 132
f 132 163 133
f 132 162 163
f 133 163 164
f 133 164 134
f 134 164 165
f 134 165 166
f 134 166 135
f 135 166 167
f 135 167 136
f 136 167 168
f 136 168 137
f 137 168 139
f 139 168 169
f 139 169 170
f 139 170 171
f 139 171 172
f 139 172 140
f 140 172 173
f 140 173 141
f 142 145 174
f 142 174 143
f 143 174 175
f 143 175 144
f 144 176 177
f 144 177 178
f 144 178 162
f 144 175 176
f 145 161 179
f 145 179 180
f 145 180 174
f 146 181 182
f 146 182 147
f 147 182 183
f 147 183 184
f 147 184 185
f 147 185 148
f 148 185 186
f 148 186 152
f 148 152 149
f 150 187 151
f 150 152 186
f 150 186 187
f 151 187 188
f 151 188 153
f 153 188 189
f 153 189 154
f 154 190 155
f 154 189 190
f 155 190 191
f 155 191 192
f 155 192 156
f 156 193 157
f 156 192 193
f 157 193 159
f 158 159 194
f 158 194 160
f 159 195 194
f 159 193 195
f 160 194 161
f 161 194 196
f 161 196 179
f 162 178 163
f 163 178 197
f 163 197 198
f 163 198 199
f 163 199 164
f 164 199 200
f 164 200 165
f 165 200 201
f 165 201 202
f 165 202 167
f 165 167 166
f 167 202 168
f 168 202 203
f 168 203 169
f 169 204 170
f 169 203 204
f 170 204 205
f 170 205 206
f 170 206 207
f 170 207 171
f 171 207 208
f 171 208 209
f 171 209 172
f 172 209 210
f 172 210 211
f 172 211 173
f 174 180 212
f 174 212 213
f 174 213 176
f 174 176 175
f 176 213 214
f 176 214 215
f 176 215 177
f 177 215 178
f 178 216 217
f 178 217 197
f 178 215 216
f 179 196 218
f 179 218 180
f 180 218 212
f 181 219 182
f 182 219 183
f 183 219 220
f 183 220 221
f 183 221 184
f 184 221 222
f 184 222 223
f 184 223 224
f 184 224 185
f 185 224 225
f 185 225 226
f 185 226 227
f 185 227 186
f 186 227 187
f 187 227 188
f 188 228 189
f 188 227 228
f 189 228 190
f 190 228 229
f 190 229 191
f 191 230 192
f 191 229 230
f 192 230 193
f 193 230 195
f 194 195 196
f 195 230 231
f 195 231 196
f 196 231 218
f 197 217 198
f 198 217 232
f 198 232 233
f 198 233 199
f 199 233 234
f 199 234 235
f 199 235 236
f 199 236 200
f 200 236 201
f 201 236 237
f 201 237 238
f 201 238 239
f 201 239 240
f 201 240 202
f 202 240 239
f 202 239 241
f 202 241 242
f 202 242 203
f 203 242 243
f 203 243 244
f 203 244 245
f 203 245 204
f 204 244 205
f 204 245 244
f 205 244 206
f 206 246 207
f 206 244 246
f 207 246 247
f 207 247 208
f 208 247 248
f 208 248 209
f 209 248 210
f 210 248 249
f 210 249 250
f 210 250 251
f 210 251 211
f 212 218 252
f 212 252 213
f 213 252 253
f 213 253 214
f 214 253 254
f 214 254 215
f 215 254 216
f 216 254 255
f 216 255 217
f 217 256 257
f 217 257 232
f 217 255 256
f 218 231 252
f 220 258 259
f 220 259 221
f 221 260 222
f 221 259 261
f 221 261 246
f 221 246 260
f 222 260 223
f 223 260 262
f 223 262 224
f 224 262 225
f 225 263 264
f 225 264 265
f 225 265 226
f 225 262 266
f 225 266 263
f 226 265 267
f 226 267 227
f 227 267 268
f 227 268 228
f 228 268 269
f 228 269 229
f 229 269 270
f 229 270 230
f 230 270 271
f 230 271 231
f 231 271 252
f 232 257 233
f 233 257 234
f 234 257 235
f 235 272 273
f 235 273 238
f 235 238 237
f 235 237 236
f 235 257 274
f 235 274 275
f 235 275 272
f 238 276 277
f 238 277 278
f 238 278 265
f 238 265 244
f 238 244 279
f 238 279 280
f 238 280 281
f 238 281 241
f 238 241 239
f 238 273 276
f 241 281 280
f 241 280 243
f 241 243 242
f 243 280 279
f 243 279 244
f 244 263 266
f 244 266 246
f 244 265 264
f 244 264 263
f 246 261 248
f 246 248 247
f 246 266 260
f 248 261 249
f 249 261 250
f 250 261 251
f 251 261 282
f 252 271 253
f 253 271 283
f 253 283 254
f 254 283 255
f 255 283 284
f 255 284 256
f 256 284 271
f 256 271 270
f 256 270 269
f 256 269 285
f 256 285 257
f 257 285 274
f 258 286 261
f 258 261 259
f 260 266 262
f 261 286 282
f 265 278 267
f 267 278 277
f 267 277 276
f 267 276 273
f 267 273 272
f 267 272 268
f 268 272 269
f 269 272 275
f 269 275 274
f 269 274 285
f 271 284 283

