# https://github.com/mikedh/trimesh
v 0.00081066 0.01278134 -0.00574919
v 0.00080948 0.01278134 -0.00619142
v 0.00060564 0.01350804 -0.00574919
v 0.00078592 0.01278134 -0.00524666
v 0.00080830 0.01278134 -0.00625029
v 0.00079181 0.01284128 -0.00625029
v 0.00060446 0.01350599 -0.00625029
v 0.00050785 0.01384704 -0.00625029
v 0.00022271 0.01485300 -0.00574919
v 0.00019207 0.01487121 -0.00523805
v 0.00059268 0.01346262 -0.00524666
v 0.00064688 0.01315001 -0.00485038
v 0.00073525 0.01278134 -0.00471398
v 0.00078710 0.01278134 -0.00669395
v 0.00066338 0.01320831 -0.00675426
v 0.00048192 0.01384704 -0.00675426
v 0.00019089 0.01487121 -0.00673272
v 0.00021446 0.01487121 -0.00627326
v 0.00022035 0.01485300 -0.00625029
v 0.00021681 0.01487121 -0.00578078
v 0.00021681 0.01487121 -0.00574919
v 0.00020621 0.01487121 -0.00552377
v 0.00014730 0.01487121 -0.00474270
v 0.00062803 0.01308372 -0.00451440
v 0.00067516 0.01278134 -0.00424017
v 0.00078356 0.01278134 -0.00675426
v 0.00076707 0.01284128 -0.00675426
v 0.00064570 0.01314898 -0.00715628
v 0.00014847 0.01487121 -0.00725679
v 0.00018971 0.01487121 -0.00675426
v 0.00008013 0.01487121 -0.00421863
v 0.00001062 0.01487121 -0.00373764
v -0.00008011 0.01487121 -0.00323367
v -0.00018380 0.01487121 -0.00274980
v -0.00018851 0.01487121 -0.00273114
v -0.00031930 0.01487121 -0.00222861
v -0.00033815 0.01487121 -0.00216830
v -0.00034404 0.01434992 -0.00187971
v -0.00043123 0.01434992 -0.00162844
v -0.00064568 0.01278134 -0.00072245
v 0.00073643 0.01278134 -0.00728837
v 0.00062803 0.01308638 -0.00749082
v 0.00007660 0.01487121 -0.00780239
v -0.00036879 0.01464678 -0.00195724
v -0.00046305 0.01487121 -0.00179212
v -0.00047365 0.01487121 -0.00176054
v -0.00068692 0.01487121 -0.00122211
v -0.00060444 0.01434992 -0.00122211
v -0.00075408 0.01384704 -0.00078132
v -0.00082713 0.01278134 -0.00041232
v 0.00067870 0.01278134 -0.00774783
v 0.00000826 0.01487121 -0.00826328
v -0.00083185 0.01487121 -0.00090767
v -0.00083656 0.01487121 -0.00089762
v -0.00098738 0.01487121 -0.00064635
v -0.00123953 0.01487121 -0.00029171
v -0.00145397 0.01487121 -0.00004045
v -0.00107928 0.01278134 -0.00016105
v 0.00067634 0.01278134 -0.00775932
v -0.00008600 0.01487121 -0.00878448
v -0.00008247 0.01487121 -0.00876581
v -0.00170494 0.01487121 0.00018498
v -0.00133025 0.01278134 0.00007729
v 0.00063510 0.01278134 -0.00794597
v -0.00019440 0.01487121 -0.00928127
v -0.00203014 0.01487121 0.00042763
v -0.00204193 0.01487121 0.00043624
v -0.00163307 0.01278134 0.00028835
v -0.00043359 0.01434992 -0.01036961
v -0.00034522 0.01434992 -0.01011834
v -0.00038764 0.01487121 -0.00998337
v -0.00032755 0.01487121 -0.00978954
v -0.00032165 0.01487121 -0.00976800
v -0.00064686 0.01278134 -0.01127703
v -0.00196180 0.01278134 0.00049798
v -0.00228465 0.01487121 0.00058556
v -0.00047601 0.01487121 -0.01023751
v -0.00060562 0.01434992 -0.01077737
v -0.00068810 0.01487121 -0.01077737
v -0.00079650 0.01278134 -0.01154409
v -0.00075644 0.01384704 -0.01121960
v -0.00229408 0.01487121 0.00059131
v -0.00199126 0.01278134 0.00051234
v -0.00083538 0.01487121 -0.01110474
v -0.00082713 0.01278134 -0.01158860
v -0.00099680 0.01487121 -0.01137036
v -0.00098738 0.01487121 -0.01135600
v -0.00262635 0.01487121 0.00074350
v -0.00221278 0.01278134 0.00062002
v -0.00124660 0.01487121 -0.01171782
v -0.00123953 0.01487121 -0.01170921
v -0.00104747 0.01278134 -0.01180972
v -0.00146222 0.01487121 -0.01196909
v -0.00145397 0.01487121 -0.01196047
v -0.00263931 0.01487121 0.00074925
v -0.00263931 0.01278134 0.00079375
v -0.00107810 0.01278134 -0.01183987
v -0.00129962 0.01278134 -0.01205093
v -0.00170494 0.01487121 -0.01218446
v -0.00312358 0.01487121 0.00092011
v -0.00314243 0.01278134 0.00095313
v -0.00133025 0.01278134 -0.01207677
v -0.00204311 0.01487121 -0.01243573
v -0.00314243 0.01487121 0.00092585
v -0.00349002 0.01487121 0.00101631
v -0.00344996 0.01278134 0.00102923
v -0.00159301 0.01278134 -0.01226199
v -0.00163307 0.01278134 -0.01228784
v -0.00192646 0.01278134 -0.01247593
v -0.00229525 0.01487121 -0.01259223
v -0.00350416 0.01487121 0.00101918
v -0.00347941 0.01278134 0.00103641
v -0.00196298 0.01278134 -0.01249746
v -0.00230704 0.01487121 -0.01259797
v -0.00374688 0.01487121 0.00106656
v -0.00370093 0.01278134 0.00107948
v -0.00221395 0.01278134 -0.01261951
v -0.00263931 0.01485300 -0.01275160
v -0.00263931 0.01487121 -0.01275017
v -0.00375513 0.01487121 0.00106799
v -0.00414749 0.01278134 0.00116276
v -0.00258511 0.01278134 -0.01276883
v -0.00263931 0.01278134 -0.01279037
v -0.00314243 0.01487121 -0.01292533
v -0.00265698 0.01487121 -0.01275735
v -0.00414749 0.01487121 0.00112973
v -0.00465061 0.01278134 0.00123168
v -0.00308234 0.01278134 -0.01293108
v -0.00314243 0.01278134 -0.01294831
v -0.00341932 0.01278134 -0.01302010
v -0.00345585 0.01284128 -0.01302871
v -0.00353479 0.01487121 -0.01301722
v -0.00463294 0.01487121 0.00119147
v -0.00465061 0.01485300 0.00119435
v -0.00471071 0.01278134 0.00123885
v -0.00345349 0.01278134 -0.01302871
v -0.00367501 0.01278134 -0.01307322
v -0.00378694 0.01487121 -0.01305886
v -0.00370800 0.01284128 -0.01307896
v -0.00414749 0.01278134 -0.01316224
v -0.00513606 0.01487121 0.00124460
v -0.00515373 0.01284128 0.00128336
v -0.00515373 0.01278134 0.00128336
v -0.00370446 0.01278134 -0.01307896
v -0.00414749 0.01487121 -0.01311630
v -0.00459170 0.01278134 -0.01322398
v -0.00465061 0.01284128 -0.01323116
v -0.00465061 0.01487121 -0.01318952
v -0.00416634 0.01487121 -0.01311917
v -0.00515373 0.01487121 0.00124603
v -0.00563682 0.01487121 0.00128193
v -0.00565568 0.01278134 0.00132069
v -0.00465061 0.01278134 -0.01323116
v -0.00515373 0.01278134 -0.01328428
v -0.00515373 0.01485300 -0.01324695
v -0.00515373 0.01487121 -0.01324552
v -0.00613994 0.01487121 0.00129916
v -0.00565568 0.01485300 0.00128336
v -0.00615880 0.01278134 0.00133362
v -0.00565568 0.01278134 -0.01332018
v -0.00565568 0.01284128 -0.01332018
v -0.00517259 0.01487121 -0.01324695
v -0.00565568 0.01487121 -0.01328285
v -0.00615880 0.01487121 0.00129916
v -0.00666192 0.01284128 0.00132357
v -0.00666192 0.01278134 0.00132357
v -0.00666192 0.01485300 0.00129054
v -0.00609871 0.01278134 -0.01333310
v -0.00615880 0.01485300 -0.01330008
v -0.00615880 0.01487121 -0.01329864
v -0.00664307 0.01487121 0.00129054
v -0.00716504 0.01284128 0.00127762
v -0.00716504 0.01278134 0.00127762
v -0.00666192 0.01487121 0.00128911
v -0.00716504 0.01487121 0.00123885
v -0.00716504 0.01434992 0.00124890
v -0.00615880 0.01278134 -0.01333454
v -0.00666192 0.01487121 -0.01329003
v -0.00617647 0.01487121 -0.01329864
v -0.00722395 0.01278134 0.00126614
v -0.00766816 0.01278134 0.00117424
v -0.00770351 0.01487121 0.00110963
v -0.00766816 0.01434992 0.00113404
v -0.00766816 0.01334437 0.00115989
v -0.00766816 0.01284128 0.00117281
v -0.00660183 0.01278134 -0.01332592
v -0.00667959 0.01487121 -0.01328859
v -0.00666192 0.01434992 -0.01329864
v -0.00799572 0.01278134 0.00107230
v -0.00772472 0.01487121 0.00110389
v -0.00666192 0.01278134 -0.01332449
v -0.00710495 0.01278134 -0.01328285
v -0.00716504 0.01278134 -0.01327710
v -0.00716504 0.01487121 -0.01324121
v -0.00793798 0.01434992 0.00104933
v -0.00802635 0.01278134 0.00106082
v -0.00791913 0.01487121 0.00104071
v -0.00792620 0.01470079 0.00104358
v -0.00766816 0.01278134 -0.01317803
v -0.00766816 0.01384704 -0.01315650
v -0.00766816 0.01487121 -0.01313352
v -0.00824787 0.01278134 0.00096318
v -0.00812061 0.01487121 0.00094882
v -0.00797687 0.01278134 -0.01309045
v -0.00801810 0.01284128 -0.01307753
v -0.00794505 0.01487121 -0.01305168
v -0.00819013 0.01434992 0.00093446
v -0.00829618 0.01278134 0.00094021
v -0.00866026 0.01487121 0.00067315
v -0.00867322 0.01278134 0.00076073
v -0.00802046 0.01278134 -0.01307753
v -0.00827261 0.01278134 -0.01298277
v -0.00819602 0.01487121 -0.01294256
v -0.00890181 0.01487121 0.00053531
v -0.00893715 0.01425356 0.00054680
v -0.00897368 0.01334437 0.00057121
v -0.00899371 0.01284128 0.00058413
v -0.00899607 0.01278134 0.00058556
v -0.00867322 0.01278134 -0.01278606
v -0.00821370 0.01487121 -0.01293395
v -0.00891123 0.01487121 0.00052957
v -0.00892419 0.01458888 0.00053675
v -0.00924704 0.01278134 0.00039891
v -0.00902552 0.01278134 0.00056403
v -0.00900314 0.01278134 -0.01259366
v -0.00867322 0.01384704 -0.01273724
v -0.00867322 0.01434992 -0.01271283
v -0.00871328 0.01487121 -0.01266402
v -0.00917634 0.01487121 0.00030846
v -0.00917634 0.01485300 0.00030989
v -0.00913393 0.01439268 0.00037881
v -0.00920462 0.01384704 0.00035871
v -0.00949565 0.01384704 0.00010744
v -0.00953689 0.01278134 0.00014764
v -0.00925411 0.01278134 -0.01239552
v -0.00925175 0.01284128 -0.01239409
v -0.00898075 0.01334437 -0.01257787
v -0.00876513 0.01487121 -0.01263243
v -0.00944617 0.01487121 0.00007442
v -0.00945677 0.01485300 0.00006724
v -0.00956635 0.01278134 0.00011462
v -0.00978786 0.01278134 -0.00013808
v -0.00953689 0.01278134 -0.01214426
v -0.00919284 0.01434992 -0.01233378
v -0.00912921 0.01483480 -0.01235388
v -0.00907855 0.01487121 -0.01239552
v -0.00892891 0.01465496 -0.01254054
v -0.00945559 0.01487121 0.00006580
v -0.00967239 0.01487121 -0.00020700
v -0.00996814 0.01334437 -0.00041950
v -0.00998817 0.01284128 -0.00039365
v -0.00981261 0.01278134 -0.00016823
v -0.00978786 0.01278134 -0.01186284
v -0.00947327 0.01434992 -0.01208252
v -0.00913510 0.01487121 -0.01234527
v -0.00945206 0.01487121 -0.01206098
v -0.00968182 0.01485300 -0.00021705
v -0.00993515 0.01414492 -0.00046257
v -0.00989509 0.01487121 -0.00049990
v -0.01019554 0.01278134 -0.00071958
v -0.01001763 0.01278134 -0.00043242
v -0.00999053 0.01278134 -0.00039078
v -0.00998935 0.01278134 -0.01161157
v -0.00978551 0.01284128 -0.01185997
v -0.00945795 0.01487121 -0.01205380
v -0.00992101 0.01448024 -0.00048411
v -0.00990451 0.01485300 -0.00050995
v -0.00990333 0.01487121 -0.00051139
v -0.01004944 0.01485300 -0.00076122
v -0.01038407 0.01284128 -0.00107566
v -0.01038642 0.01278134 -0.00107135
v -0.01016727 0.01278134 -0.01132298
v -0.00998699 0.01284128 -0.01160870
v -0.00976548 0.01334437 -0.01183269
v -0.00967475 0.01487121 -0.01178531
v -0.01004355 0.01487121 -0.00075404
v -0.01036404 0.01334437 -0.00112160
v -0.01004826 0.01487121 -0.00076265
v -0.01028038 0.01487121 -0.00122211
v -0.01050189 0.01278134 -0.00132262
v -0.01040056 0.01278134 -0.00110150
v -0.01019319 0.01278134 -0.01127990
v -0.00993397 0.01413347 -0.01153548
v -0.00994575 0.01384704 -0.01155271
v -0.00991983 0.01446879 -0.01151394
v -0.00990451 0.01485300 -0.01148810
v -0.00990333 0.01487121 -0.01148666
v -0.01044298 0.01420343 -0.00145327
v -0.01047833 0.01334437 -0.00137287
v -0.01042884 0.01453876 -0.00149061
v -0.01040881 0.01487121 -0.00151932
v -0.01049954 0.01284128 -0.00132836
v -0.01052193 0.01278134 -0.00137431
v -0.01038760 0.01278134 -0.01092957
v -0.01018848 0.01284128 -0.01127990
v -0.00990923 0.01487121 -0.01147804
v -0.01065153 0.01278134 -0.00172608
v -0.01041470 0.01485300 -0.00152937
v -0.01049718 0.01487121 -0.00178351
v -0.01041352 0.01487121 -0.00153224
v -0.01048893 0.01278134 -0.01070845
v -0.01038525 0.01284128 -0.01092383
v -0.01004826 0.01485300 -0.01123683
v -0.01004708 0.01487121 -0.01123539
v -0.01081060 0.01278134 -0.00223292
v -0.01062915 0.01487121 -0.00221425
v -0.01050189 0.01278134 -0.01067830
v -0.01047951 0.01334437 -0.01062661
v -0.01028038 0.01487121 -0.01077737
v -0.01045830 0.01384704 -0.01058067
v -0.01005533 0.01487121 -0.01121960
v -0.01082238 0.01278134 -0.00227599
v -0.01075404 0.01487121 -0.00271247
v -0.01091075 0.01278134 -0.00261197
v -0.01065153 0.01278134 -0.01027484
v -0.01044298 0.01420855 -0.01054621
v -0.01042884 0.01454387 -0.01051175
v -0.01041588 0.01485300 -0.01047155
v -0.01041470 0.01487121 -0.01046868
v -0.01075758 0.01487121 -0.00273114
v -0.01075994 0.01485300 -0.00273114
v -0.01090840 0.01284128 -0.00262489
v -0.01091547 0.01278134 -0.00263494
v -0.01078939 0.01278134 -0.00983118
v -0.01064682 0.01284128 -0.01027484
v -0.01050779 0.01436567 -0.01031648
v -0.01041824 0.01487121 -0.01046006
v -0.01085066 0.01487121 -0.00323367
v -0.01092961 0.01350926 -0.00302548
v -0.01094375 0.01317394 -0.00294794
v -0.01095788 0.01284128 -0.00287615
v -0.01084477 0.01384704 -0.00273114
v -0.01095906 0.01278134 -0.00285892
v -0.01080942 0.01278134 -0.00976657
v -0.01049718 0.01487121 -0.01021741
v -0.01102622 0.01278134 -0.00323367
v -0.01091075 0.01487121 -0.00363426
v -0.01092961 0.01450970 -0.00354380
v -0.01094375 0.01417438 -0.00344617
v -0.01095788 0.01384704 -0.00336289
v -0.01091075 0.01278134 -0.00939182
v -0.01071870 0.01384704 -0.00977088
v -0.01063386 0.01485300 -0.00977088
v -0.01063150 0.01487121 -0.00977088
v -0.01110046 0.01278134 -0.00373764
v -0.01094846 0.01487121 -0.00390562
v -0.01096142 0.01278134 -0.00914487
v -0.01094492 0.01318949 -0.00905728
v -0.01089308 0.01335194 -0.00924250
v -0.01075994 0.01485300 -0.00926835
v -0.01063622 0.01487121 -0.00975365
v -0.01114759 0.01284128 -0.00424017
v -0.01115230 0.01278134 -0.00424017
v -0.01097909 0.01487121 -0.00422294
v -0.01102387 0.01434992 -0.00424017
v -0.01110635 0.01334437 -0.00424017
v -0.01102858 0.01278134 -0.00876581
v -0.01102387 0.01284128 -0.00876581
v -0.01093078 0.01352481 -0.00898262
v -0.01085420 0.01487121 -0.00876581
v -0.01075758 0.01487121 -0.00926835
v -0.01118529 0.01284128 -0.00474270
v -0.01115701 0.01278134 -0.00430047
v -0.01101444 0.01487121 -0.00472547
v -0.01110163 0.01384704 -0.00474270
v -0.01109221 0.01278134 -0.00832215
v -0.01096024 0.01384704 -0.00865095
v -0.01091782 0.01384704 -0.00890222
v -0.01090133 0.01435851 -0.00874428
v -0.01094492 0.01419648 -0.00856337
v -0.01093078 0.01453180 -0.00846430
v -0.01085773 0.01487121 -0.00874284
v -0.01119000 0.01278134 -0.00474270
v -0.01103919 0.01487121 -0.00522800
v -0.01112520 0.01384704 -0.00524666
v -0.01121357 0.01278134 -0.00524666
v -0.01101562 0.01487121 -0.00474270
v -0.01110046 0.01278134 -0.00826328
v -0.01109574 0.01284128 -0.00826328
v -0.01091782 0.01485300 -0.00835374
v -0.01091665 0.01487121 -0.00834800
v -0.01105450 0.01487121 -0.00573053
v -0.01104154 0.01485300 -0.00524666
v -0.01122064 0.01284128 -0.00574919
v -0.01122535 0.01278134 -0.00574919
v -0.01114759 0.01278134 -0.00781962
v -0.01094728 0.01487121 -0.00809530
v -0.01091900 0.01487121 -0.00832933
v -0.01105450 0.01487121 -0.00574919
v -0.01122653 0.01278134 -0.00580950
v -0.01115348 0.01278134 -0.00775932
v -0.01114876 0.01284128 -0.00775932
v -0.01110753 0.01334437 -0.00775932
v -0.01098145 0.01487121 -0.00775788
v -0.01105215 0.01487121 -0.00625029
v -0.01105450 0.01485300 -0.00625029
v -0.01117940 0.01334437 -0.00625029
v -0.01122064 0.01284128 -0.00625029
v -0.01122535 0.01278134 -0.00625029
v -0.01118883 0.01278134 -0.00725679
v -0.01118411 0.01284128 -0.00725679
v -0.01101680 0.01487121 -0.00725679
v -0.01103683 0.01487121 -0.00675426
v -0.01108042 0.01434992 -0.00675426
v -0.01122417 0.01278134 -0.00631059
v -0.01120768 0.01278134 -0.00681312
v -0.01120532 0.01284128 -0.00675426
v -0.01121003 0.01278134 -0.00675426
f 1 2 3
f 1 3 4
f 1 4 13
f 1 13 25
f 1 25 40
f 1 40 50
f 1 50 58
f 1 58 63
f 1 63 68
f 1 68 75
f 1 75 83
f 1 83 89
f 1 89 96
f 1 96 101
f 1 101 106
f 1 106 112
f 1 112 116
f 1 116 121
f 1 121 127
f 1 127 135
f 1 135 143
f 1 143 152
f 1 152 159
f 1 159 166
f 1 166 173
f 1 173 180
f 1 180 181
f 1 181 189
f 1 189 196
f 1 196 202
f 1 202 208
f 1 208 210
f 1 210 218
f 1 218 224
f 1 224 223
f 1 223 234
f 1 234 241
f 1 241 242
f 1 242 252
f 1 252 262
f 1 262 261
f 1 261 260
f 1 260 271
f 1 271 281
f 1 281 280
f 1 280 293
f 1 293 297
f 1 297 305
f 1 305 312
f 1 312 314
f 1 314 323
f 1 323 333
f 1 333 336
f 1 336 345
f 1 345 353
f 1 353 363
f 1 363 373
f 1 373 376
f 1 376 385
f 1 385 390
f 1 390 399
f 1 399 405
f 1 405 408
f 1 408 406
f 1 406 400
f 1 400 391
f 1 391 386
f 1 386 378
f 1 378 366
f 1 366 357
f 1 357 347
f 1 347 341
f 1 341 334
f 1 334 324
f 1 324 315
f 1 315 307
f 1 307 301
f 1 301 294
f 1 294 282
f 1 282 272
f 1 272 263
f 1 263 253
f 1 253 243
f 1 243 235
f 1 235 225
f 1 225 219
f 1 219 212
f 1 212 211
f 1 211 204
f 1 204 199
f 1 199 193
f 1 193 192
f 1 192 191
f 1 191 186
f 1 186 177
f 1 177 168
f 1 168 160
f 1 160 154
f 1 154 153
f 1 153 146
f 1 146 140
f 1 140 144
f 1 144 137
f 1 137 136
f 1 136 130
f 1 130 129
f 1 129 128
f 1 128 123
f 1 123 122
f 1 122 117
f 1 117 113
f 1 113 109
f 1 109 108
f 1 108 107
f 1 107 102
f 1 102 98
f 1 98 97
f 1 97 92
f 1 92 85
f 1 85 80
f 1 80 74
f 1 74 64
f 1 64 59
f 1 59 51
f 1 51 41
f 1 41 26
f 1 26 14
f 1 14 5
f 1 5 2
f 2 5 6
f 2 6 7
f 2 7 3
f 3 7 8
f 3 8 9
f 3 9 10
f 3 10 11
f 3 11 4
f 4 11 12
f 4 12 13
f 5 14 6
f 6 14 7
f 7 14 15
f 7 15 8
f 8 15 16
f 8 16 17
f 8 17 18
f 8 18 19
f 8 19 9
f 9 20 21
f 9 21 22
f 9 22 10
f 9 19 20
f 10 22 21
f 10 21 20
f 10 20 18
f 10 18 17
f 10 17 30
f 10 30 29
f 10 29 43
f 10 43 52
f 10 52 61
f 10 61 60
f 10 60 65
f 10 65 73
f 10 73 72
f 10 72 71
f 10 71 77
f 10 77 79
f 10 79 84
f 10 84 87
f 10 87 86
f 10 86 91
f 10 91 90
f 10 90 94
f 10 94 93
f 10 93 99
f 10 99 103
f 10 103 110
f 10 110 114
f 10 114 119
f 10 119 125
f 10 125 124
f 10 124 132
f 10 132 138
f 10 138 145
f 10 145 149
f 10 149 148
f 10 148 156
f 10 156 162
f 10 162 163
f 10 163 170
f 10 170 179
f 10 179 178
f 10 178 187
f 10 187 194
f 10 194 201
f 10 201 206
f 10 206 213
f 10 213 220
f 10 220 228
f 10 228 238
f 10 238 246
f 10 246 255
f 10 255 256
f 10 256 265
f 10 265 275
f 10 275 287
f 10 287 296
f 10 296 304
f 10 304 311
f 10 311 309
f 10 309 319
f 10 319 327
f 10 327 335
f 10 335 344
f 10 344 351
f 10 351 361
f 10 361 360
f 10 360 372
f 10 372 381
f 10 381 388
f 10 388 387
f 10 387 394
f 10 394 402
f 10 402 403
f 10 403 395
f 10 395 389
f 10 389 382
f 10 382 374
f 10 374 377
f 10 377 364
f 10 364 354
f 10 354 346
f 10 346 337
f 10 337 328
f 10 328 320
f 10 320 313
f 10 313 306
f 10 306 299
f 10 299 300
f 10 300 291
f 10 291 279
f 10 279 278
f 10 278 276
f 10 276 268
f 10 268 259
f 10 259 249
f 10 249 248
f 10 248 239
f 10 239 229
f 10 229 221
f 10 221 214
f 10 214 209
f 10 209 203
f 10 203 197
f 10 197 190
f 10 190 182
f 10 182 175
f 10 175 174
f 10 174 171
f 10 171 164
f 10 164 157
f 10 157 151
f 10 151 150
f 10 150 141
f 10 141 133
f 10 133 126
f 10 126 120
f 10 120 115
f 10 115 111
f 10 111 105
f 10 105 104
f 10 104 100
f 10 100 95
f 10 95 88
f 10 88 82
f 10 82 76
f 10 76 67
f 10 67 66
f 10 66 62
f 10 62 57
f 10 57 56
f 10 56 55
f 10 55 54
f 10 54 53
f 10 53 47
f 10 47 46
f 10 46 45
f 10 45 37
f 10 37 36
f 10 36 35
f 10 35 34
f 10 34 33
f 10 33 32
f 10 32 31
f 10 31 23
f 10 23 12
f 10 12 11
f 12 23 24
f 12 24 13
f 13 24 25
f 14 26 27
f 14 27 15
f 15 27 28
f 15 28 29
f 15 29 16
f 16 30 17
f 16 29 30
f 18 20 19
f 23 31 24
f 24 31 25
f 25 31 32
f 25 32 33
f 25 33 34
f 25 34 35
f 25 35 36
f 25 36 37
f 25 37 38
f 25 38 39
f 25 39 40
f 26 41 27
f 27 41 28
f 28 41 29
f 29 41 42
f 29 42 43
f 37 44 38
f 37 45 44
f 38 44 46
f 38 46 39
f 39 46 47
f 39 47 48
f 39 48 40
f 40 48 49
f 40 49 50
f 41 51 42
f 42 51 43
f 43 51 52
f 44 45 46
f 47 53 48
f 48 53 54
f 48 54 49
f 49 54 55
f 49 55 50
f 50 56 57
f 50 57 58
f 50 55 56
f 51 59 60
f 51 60 61
f 51 61 52
f 57 62 63
f 57 63 58
f 59 64 65
f 59 65 60
f 62 66 63
f 63 66 67
f 63 67 68
f 64 69 70
f 64 70 71
f 64 71 72
f 64 72 73
f 64 73 65
f 64 74 69
f 67 75 68
f 67 76 75
f 69 77 70
f 69 74 78
f 69 78 79
f 69 79 77
f 70 77 71
f 74 80 81
f 74 81 78
f 75 76 82
f 75 82 83
f 78 81 84
f 78 84 79
f 80 85 86
f 80 86 87
f 80 87 84
f 80 84 81
f 82 88 89
f 82 89 83
f 85 90 91
f 85 91 86
f 85 92 93
f 85 93 94
f 85 94 90
f 88 95 89
f 89 95 96
f 92 97 93
f 93 97 98
f 93 98 99
f 95 100 96
f 96 100 101
f 98 102 99
f 99 102 103
f 100 104 101
f 101 105 106
f 101 104 105
f 102 107 103
f 103 107 108
f 103 108 109
f 103 109 110
f 105 111 112
f 105 112 106
f 109 113 110
f 110 113 114
f 111 115 112
f 112 115 116
f 113 117 114
f 114 117 118
f 114 118 119
f 115 120 121
f 115 121 116
f 117 122 118
f 118 122 123
f 118 123 124
f 118 124 125
f 118 125 119
f 120 126 121
f 121 126 127
f 123 128 124
f 124 128 129
f 124 129 130
f 124 130 131
f 124 131 132
f 126 133 134
f 126 134 127
f 127 134 135
f 130 136 131
f 131 136 137
f 131 137 132
f 132 137 139
f 132 139 140
f 132 140 138
f 133 141 134
f 134 141 135
f 135 141 142
f 135 142 143
f 137 144 139
f 138 140 145
f 139 144 140
f 140 146 147
f 140 147 148
f 140 148 149
f 140 149 145
f 141 150 142
f 142 151 152
f 142 152 143
f 142 150 151
f 146 153 147
f 147 153 154
f 147 154 155
f 147 155 148
f 148 155 156
f 151 157 158
f 151 158 152
f 152 157 159
f 152 158 157
f 154 160 161
f 154 161 155
f 155 162 156
f 155 161 163
f 155 163 162
f 157 164 159
f 159 165 166
f 159 164 167
f 159 167 165
f 160 168 161
f 161 168 169
f 161 169 163
f 163 169 170
f 164 171 167
f 165 167 172
f 165 172 173
f 165 173 166
f 167 171 174
f 167 174 175
f 167 175 176
f 167 176 172
f 168 177 169
f 169 177 178
f 169 178 179
f 169 179 170
f 172 180 173
f 172 176 181
f 172 181 180
f 175 182 183
f 175 183 184
f 175 184 185
f 175 185 181
f 175 181 176
f 177 186 178
f 178 186 188
f 178 188 187
f 181 185 189
f 182 190 183
f 183 190 184
f 184 190 185
f 185 190 189
f 186 191 188
f 187 188 191
f 187 191 192
f 187 192 193
f 187 193 194
f 189 190 195
f 189 195 196
f 190 197 198
f 190 198 195
f 193 199 194
f 194 199 200
f 194 200 201
f 195 198 196
f 196 198 202
f 197 203 198
f 198 203 202
f 199 204 200
f 200 204 205
f 200 205 201
f 201 205 206
f 202 203 207
f 202 207 208
f 203 209 210
f 203 210 207
f 204 211 205
f 205 211 212
f 205 212 206
f 206 212 213
f 207 210 208
f 209 214 215
f 209 215 216
f 209 216 217
f 209 217 218
f 209 218 210
f 212 219 220
f 212 220 213
f 214 221 215
f 215 221 222
f 215 222 223
f 215 223 216
f 216 223 224
f 216 224 217
f 217 224 218
f 219 225 226
f 219 226 220
f 220 226 227
f 220 227 228
f 221 229 230
f 221 230 231
f 221 231 223
f 221 223 222
f 223 231 232
f 223 232 233
f 223 233 234
f 225 235 236
f 225 236 237
f 225 237 238
f 225 238 228
f 225 228 226
f 226 228 227
f 229 239 240
f 229 240 230
f 230 240 233
f 230 233 232
f 230 232 231
f 233 241 234
f 233 240 242
f 233 242 241
f 235 243 236
f 236 243 244
f 236 244 245
f 236 245 246
f 236 246 247
f 236 247 237
f 237 247 238
f 238 247 246
f 239 248 240
f 240 248 249
f 240 249 250
f 240 250 251
f 240 251 252
f 240 252 242
f 243 253 254
f 243 254 244
f 244 254 245
f 245 255 246
f 245 254 256
f 245 256 255
f 249 257 258
f 249 258 250
f 249 259 267
f 249 267 257
f 250 258 260
f 250 260 261
f 250 261 251
f 251 261 262
f 251 262 252
f 253 263 273
f 253 273 264
f 253 264 256
f 253 256 254
f 256 264 265
f 257 266 258
f 257 267 266
f 258 266 260
f 259 268 267
f 260 266 269
f 260 269 270
f 260 270 271
f 263 272 273
f 264 273 274
f 264 274 265
f 265 274 275
f 266 267 269
f 267 268 276
f 267 276 269
f 269 277 270
f 269 276 278
f 269 278 279
f 269 279 277
f 270 277 280
f 270 280 281
f 270 281 271
f 272 282 283
f 272 283 284
f 272 284 273
f 273 284 275
f 273 275 274
f 275 284 283
f 275 283 285
f 275 285 286
f 275 286 287
f 277 279 288
f 277 288 289
f 277 289 280
f 279 290 288
f 279 291 290
f 280 289 292
f 280 292 293
f 282 294 295
f 282 295 283
f 283 295 296
f 283 296 286
f 283 286 285
f 286 296 287
f 288 290 297
f 288 297 293
f 288 293 289
f 289 293 292
f 290 291 298
f 290 298 299
f 290 299 297
f 291 300 298
f 294 301 302
f 294 302 303
f 294 303 295
f 295 303 296
f 296 303 304
f 297 299 305
f 298 300 299
f 299 306 305
f 301 307 308
f 301 308 302
f 302 309 303
f 302 308 310
f 302 310 309
f 303 309 311
f 303 311 304
f 305 306 312
f 306 313 314
f 306 314 312
f 307 315 308
f 308 315 310
f 309 310 316
f 309 316 317
f 309 317 318
f 309 318 319
f 310 315 316
f 313 320 321
f 313 321 314
f 314 321 322
f 314 322 323
f 315 324 325
f 315 325 316
f 316 325 317
f 317 325 326
f 317 326 327
f 317 327 318
f 318 327 319
f 320 328 321
f 321 323 322
f 321 328 329
f 321 329 330
f 321 330 331
f 321 331 332
f 321 332 323
f 323 332 331
f 323 331 333
f 324 334 335
f 324 335 325
f 325 335 326
f 326 335 327
f 328 336 329
f 328 337 338
f 328 338 339
f 328 339 340
f 328 340 336
f 329 336 330
f 330 336 331
f 331 336 333
f 334 341 342
f 334 342 335
f 335 342 343
f 335 343 344
f 336 340 339
f 336 339 345
f 337 346 338
f 338 346 345
f 338 345 339
f 341 347 348
f 341 348 349
f 341 349 350
f 341 350 343
f 341 343 342
f 343 350 351
f 343 351 344
f 345 346 352
f 345 352 353
f 346 354 355
f 346 355 356
f 346 356 352
f 347 357 348
f 348 357 358
f 348 358 359
f 348 359 350
f 348 350 349
f 350 359 360
f 350 360 361
f 350 361 351
f 352 356 362
f 352 362 363
f 352 363 353
f 354 364 365
f 354 365 355
f 355 365 362
f 355 362 356
f 357 366 358
f 358 366 367
f 358 367 368
f 358 368 359
f 359 368 360
f 360 368 369
f 360 369 367
f 360 367 370
f 360 370 371
f 360 371 372
f 362 373 363
f 362 365 374
f 362 374 375
f 362 375 376
f 362 376 373
f 364 377 365
f 365 377 374
f 366 378 379
f 366 379 370
f 366 370 367
f 367 369 368
f 370 379 371
f 371 379 380
f 371 380 372
f 372 380 381
f 374 382 383
f 374 383 375
f 375 383 382
f 375 382 376
f 376 382 384
f 376 384 385
f 378 386 379
f 379 386 387
f 379 387 380
f 380 388 381
f 380 387 388
f 382 389 390
f 382 390 384
f 384 390 385
f 386 391 392
f 386 392 393
f 386 393 387
f 387 393 394
f 389 395 396
f 389 396 397
f 389 397 390
f 390 397 398
f 390 398 399
f 391 400 401
f 391 401 392
f 392 401 393
f 393 401 402
f 393 402 394
f 395 403 396
f 396 403 404
f 396 404 405
f 396 405 397
f 397 405 398
f 398 405 399
f 400 406 401
f 401 406 407
f 401 407 402
f 402 407 404
f 402 404 403
f 404 407 405
f 405 407 408
f 406 408 407

