# https://github.com/mikedh/trimesh
v 0.00021781 0.01487142 -0.00574989
v 0.00014939 0.01729185 -0.00574989
v 0.00013615 0.01729185 -0.00524684
v 0.00011739 0.01729185 -0.00474380
v 0.00019132 0.01487142 -0.00523827
v 0.00021450 0.01487142 -0.00625007
v 0.00014939 0.01729185 -0.00625007
v 0.00015050 0.01729185 -0.00603285
v 0.00008098 0.01729185 -0.00424075
v 0.00003794 0.01729185 -0.00373771
v 0.00014719 0.01487142 -0.00474380
v 0.00020457 0.01487142 -0.00647158
v 0.00011519 0.01729185 -0.00725616
v 0.00013615 0.01729185 -0.00675312
v 0.00014167 0.01729185 -0.00655304
v -0.00001171 0.01729185 -0.00324753
v 0.00008098 0.01487142 -0.00421932
v 0.00019132 0.01487142 -0.00673168
v 0.00019022 0.01487142 -0.00675312
v 0.00007877 0.01729185 -0.00775921
v 0.00001036 0.01487142 -0.00373771
v -0.00003047 0.01729185 -0.00314034
v 0.00015712 0.01487142 -0.00715470
v 0.00004015 0.01729185 -0.00824082
v -0.00008013 0.01487142 -0.00323466
v -0.00010661 0.01729185 -0.00273162
v 0.00014829 0.01487142 -0.00725616
v 0.00000153 0.01729185 -0.00864382
v -0.00018385 0.01487142 -0.00275020
v -0.00012427 0.01729185 -0.00265159
v 0.00012622 0.01487142 -0.00742623
v -0.00001171 0.01729185 -0.00875101
v -0.00021916 0.01729185 -0.00223000
v -0.00018827 0.01487142 -0.00273162
v 0.00007656 0.01487142 -0.00780208
v 0.00000815 0.01487142 -0.00826225
v 0.00000484 0.01487142 -0.00828083
v -0.00008233 0.01487142 -0.00876530
v -0.00010771 0.01729185 -0.00926834
v -0.00031958 0.01487142 -0.00222857
v -0.00035379 0.01729185 -0.00176554
v -0.00019158 0.01487142 -0.00926834
v -0.00020261 0.01729185 -0.00969564
v -0.00033834 0.01487142 -0.00216855
v -0.00054579 0.01729185 -0.00125107
v -0.00047406 0.01487142 -0.00176126
v -0.00046303 0.01487142 -0.00179270
v -0.00019489 0.01487142 -0.00928120
v -0.00022027 0.01729185 -0.00977139
v -0.00067931 0.01487142 -0.00124106
v -0.00057889 0.01729185 -0.00117961
v -0.00083710 0.01487142 -0.00089665
v -0.00068703 0.01487142 -0.00122248
v -0.00032179 0.01487142 -0.00976853
v -0.00032730 0.01487142 -0.00978854
v -0.00032510 0.01729185 -0.01013295
v -0.00079297 0.01729185 -0.00075088
v -0.00082386 0.01729185 -0.00069800
v -0.00098828 0.01487142 -0.00064513
v -0.00038689 0.01487142 -0.00998289
v -0.00047627 0.01487142 -0.01023870
v -0.00050275 0.01729185 -0.01063171
v -0.00092317 0.01729185 -0.00054080
v -0.00123987 0.01487142 -0.00029214
v -0.00049172 0.01487142 -0.01028015
v -0.00054579 0.01729185 -0.01074889
v -0.00115270 0.01729185 -0.00022783
v -0.00118801 0.01729185 -0.00018353
v -0.00144622 0.01487142 -0.00004919
v -0.00068814 0.01487142 -0.01077748
v -0.00069255 0.01487142 -0.01078748
v -0.00083600 0.01487142 -0.01110474
v -0.00079186 0.01729185 -0.01125337
v -0.00137670 0.01729185 0.00003799
v -0.00145394 0.01487142 -0.00004062
v -0.00098718 0.01487142 -0.01135626
v -0.00089890 0.01729185 -0.01142915
v -0.00160070 0.01729185 0.00023091
v -0.00170553 0.01487142 0.00018518
v -0.00123877 0.01487142 -0.01170925
v -0.00097283 0.01729185 -0.01153490
v -0.00194167 0.01729185 0.00050244
v -0.00204209 0.01487142 0.00043671
v -0.00145394 0.01487142 -0.01195935
v -0.00121670 0.01729185 -0.01186502
v -0.00114938 0.01729185 -0.01177928
v -0.00198029 0.01729185 0.00052531
v -0.00228375 0.01487142 0.00058533
v -0.00146277 0.01487142 -0.01196935
v -0.00138553 0.01713240 -0.01203080
v -0.00154884 0.01729185 -0.01219943
v -0.00219326 0.01729185 0.00064107
v -0.00229368 0.01487142 0.00059105
v -0.00170553 0.01487142 -0.01218371
v -0.00159077 0.01729185 -0.01223659
v -0.00225285 0.01729185 0.00066822
v -0.00263906 0.01487142 0.00074968
v -0.00204319 0.01487142 -0.01243524
v -0.00192843 0.01729185 -0.01251098
v -0.00263906 0.01729185 0.00083971
v -0.00314224 0.01487142 0.00092689
v -0.00229478 0.01487142 -0.01259101
v -0.00218002 0.01729185 -0.01264532
v -0.00310693 0.01729185 0.00098977
v -0.00350418 0.01487142 0.00101978
v -0.00230692 0.01487142 -0.01259673
v -0.00263906 0.01487142 -0.01275107
v -0.00263906 0.01729185 -0.01284682
v -0.00335411 0.01729185 0.00104979
v -0.00375577 0.01487142 0.00106837
v -0.00314224 0.01487142 -0.01292542
v -0.00311024 0.01729185 -0.01299259
v -0.00338611 0.01729185 0.00105551
v -0.00363990 0.01729185 0.00109552
v -0.00414750 0.01487142 0.00112982
v -0.00353508 0.01487142 -0.01301688
v -0.00335631 0.01729185 -0.01304832
v -0.00372156 0.01729185 0.00110553
v -0.00465068 0.01487142 0.00119413
v -0.00379991 0.01487142 -0.01306118
v -0.00414750 0.01487142 -0.01311692
v -0.00358032 0.01729185 -0.01308405
v -0.00414750 0.01729185 0.00115412
v -0.00513510 0.01487142 0.00124415
v -0.00416626 0.01487142 -0.01311978
v -0.00465068 0.01487142 -0.01318980
v -0.00363990 0.01729185 -0.01309263
v -0.00422364 0.01729185 0.00116126
v -0.00515386 0.01487142 0.00124558
v -0.00465068 0.01729185 0.00119556
v -0.00515386 0.01487142 -0.01324554
v -0.00414750 0.01729185 -0.01315122
v -0.00565593 0.01487142 0.00128274
v -0.00472682 0.01729185 0.00120128
v -0.00517262 0.01487142 -0.01324697
v -0.00465068 0.01729185 -0.01319123
v -0.00615911 0.01487142 0.00129988
v -0.00515386 0.01729185 0.00123129
v -0.00523000 0.01729185 0.00123558
v -0.00565593 0.01729185 0.00125701
v -0.00573207 0.01729185 0.00125987
v -0.00565593 0.01487142 -0.01328270
v -0.00515386 0.01729185 -0.01322839
v -0.00666119 0.01487142 0.00128988
v -0.00615911 0.01729185 0.00126987
v -0.00623525 0.01729185 0.00126844
v -0.00615911 0.01487142 -0.01329985
v -0.00565593 0.01729185 -0.01325697
v -0.00557980 0.01729185 -0.01325268
v -0.00666119 0.01729185 0.00125701
v -0.00714672 0.01487142 0.00124129
v -0.00666119 0.01487142 -0.01328984
v -0.00615911 0.01729185 -0.01326983
v -0.00673733 0.01729185 0.00124844
v -0.00716437 0.01729185 0.00119556
v -0.00716437 0.01585916 0.00122128
v -0.00716437 0.01487142 0.00123843
v -0.00667995 0.01487142 -0.01328841
v -0.00666119 0.01729185 -0.01325840
v -0.00757927 0.01729185 0.00109695
v -0.00764769 0.01535617 0.00111553
v -0.00770396 0.01487142 0.00110981
v -0.00716437 0.01487142 -0.01324125
v -0.00716437 0.01686491 -0.01320267
v -0.00716437 0.01729185 -0.01319409
v -0.00761789 0.01729185 0.00108409
v -0.00791914 0.01487142 0.00104122
v -0.00766755 0.01487142 -0.01313407
v -0.00759693 0.01729185 -0.01309405
v -0.00783086 0.01729185 0.00100978
v -0.00812549 0.01487142 0.00094690
v -0.00767748 0.01487142 -0.01313121
v -0.00771059 0.01582955 -0.01309834
v -0.00763996 0.01636192 -0.01310549
v -0.00789045 0.01636192 -0.01303260
v -0.00786838 0.01686491 -0.01302546
v -0.00780990 0.01729185 -0.01302974
v -0.00788052 0.01729185 0.00098691
v -0.00817073 0.01729185 0.00084972
v -0.00864301 0.01487142 0.00068251
v -0.00794562 0.01487142 -0.01305118
v -0.00793018 0.01535617 -0.01304546
v -0.00792135 0.01564190 -0.01304118
v -0.00790811 0.01597739 -0.01303689
v -0.00819611 0.01487142 -0.01294257
v -0.00812107 0.01582955 -0.01294543
v -0.00817073 0.01636192 -0.01290541
v -0.00817073 0.01686491 -0.01288683
v -0.00812549 0.01729185 -0.01289112
v -0.00784741 0.01729185 -0.01301831
v -0.00823252 0.01729185 0.00081685
v -0.00856356 0.01729185 0.00062963
v -0.00890233 0.01487142 0.00053531
v -0.00821377 0.01487142 -0.01293399
v -0.00871364 0.01487142 -0.01266389
v -0.00864963 0.01535617 -0.01268104
v -0.00817073 0.01729185 -0.01286969
v -0.00862977 0.01585916 -0.01267247
v -0.00860218 0.01729185 0.00060534
v -0.00891115 0.01487142 0.00052960
v -0.00876439 0.01487142 -0.01263102
v -0.00891557 0.01499059 -0.01253099
v -0.00861101 0.01636192 -0.01266246
v -0.00859115 0.01686491 -0.01265103
v -0.00857460 0.01729185 -0.01264103
v -0.00881515 0.01729185 0.00045814
v -0.00886040 0.01729185 0.00042099
v -0.00917709 0.01487142 0.00030952
v -0.00907888 0.01487142 -0.01239522
v -0.00890122 0.01535617 -0.01252098
v -0.00886150 0.01636192 -0.01249097
v -0.00882619 0.01729185 -0.01246096
v -0.00910757 0.01729185 0.00020662
v -0.00945627 0.01487142 0.00006657
v -0.00913516 0.01487142 -0.01234520
v -0.00910316 0.01729185 -0.01220944
v -0.00945185 0.01487142 -0.01206081
v -0.00914509 0.01729185 0.00016946
v -0.00942758 0.01560778 0.00003513
v -0.00967255 0.01487142 -0.00020639
v -0.00942427 0.01555969 -0.01203080
v -0.00939227 0.01636192 -0.01199364
v -0.00937240 0.01686491 -0.01196935
v -0.00935475 0.01729185 -0.01194791
v -0.00967475 0.01487142 -0.01178499
v -0.00935916 0.01729185 -0.00005062
v -0.00937571 0.01686491 -0.00002775
v -0.00941434 0.01594303 0.00001798
v -0.00968027 0.01487142 -0.00021640
v -0.00959089 0.01636192 -0.01174212
v -0.00952247 0.01729185 -0.01173498
v -0.00990317 0.01487142 -0.01148774
v -0.00938785 0.01729185 -0.00008778
v -0.00956772 0.01686491 -0.00027928
v -0.00990317 0.01487142 -0.00051079
v -0.00956992 0.01686491 -0.01171783
v -0.00955227 0.01729185 -0.01169639
v -0.01004772 0.01487142 -0.01123622
v -0.00986345 0.01585916 -0.01141771
v -0.00955006 0.01729185 -0.00030214
v -0.00958868 0.01729185 -0.00035788
v -0.00986124 0.01585916 -0.00058082
v -0.01004883 0.01487142 -0.00076231
v -0.00984248 0.01636192 -0.01138056
v -0.00982151 0.01686491 -0.01134197
v -0.00980386 0.01729185 -0.01130767
v -0.01028607 0.01487142 -0.01076461
v -0.01000579 0.01585916 -0.01116619
v -0.00980165 0.01729185 -0.00069086
v -0.00981931 0.01686491 -0.00065656
v -0.00984027 0.01636192 -0.00061797
v -0.01000690 0.01585916 -0.00083234
v -0.01027283 0.01487142 -0.00120676
v -0.00998483 0.01636192 -0.01112904
v -0.00994510 0.01729185 -0.01105615
v -0.01041518 0.01487142 -0.01046879
v -0.01007531 0.01729185 -0.01077748
v -0.00982372 0.01729185 -0.00072801
v -0.00996496 0.01686491 -0.00090808
v -0.00998593 0.01636192 -0.00086950
v -0.01028055 0.01487142 -0.00122248
v -0.01041849 0.01487142 -0.01046021
v -0.01027283 0.01729185 -0.01027443
v -0.00994620 0.01729185 -0.00094238
v -0.00996827 0.01729185 -0.00098954
v -0.01011062 0.01686491 -0.00122248
v -0.01040856 0.01487142 -0.00151831
v -0.01050125 0.01487142 -0.01020440
v -0.01030924 0.01686491 -0.01027443
v -0.01042732 0.01652753 -0.00999718
v -0.01039531 0.01729185 -0.00988286
v -0.01007421 0.01729185 -0.00122248
v -0.01027393 0.01729185 -0.00172553
v -0.01041407 0.01487142 -0.00153260
v -0.01063256 0.01487142 -0.00977139
v -0.01046483 0.01729185 -0.00963133
v -0.01039752 0.01729185 -0.00210853
v -0.01041518 0.01686491 -0.00204422
v -0.01042842 0.01654293 -0.00199706
v -0.01049683 0.01487142 -0.00178412
v -0.01045601 0.01585916 -0.00190845
v -0.01047697 0.01535617 -0.00184557
v -0.01075835 0.01487142 -0.00926834
v -0.01055090 0.01729185 -0.00926834
v -0.01040856 0.01729185 -0.00214711
v -0.01063256 0.01487142 -0.00222857
v -0.01085436 0.01487142 -0.00876530
v -0.01081353 0.01535617 -0.00876530
v -0.01065022 0.01729185 -0.00876530
v -0.01046704 0.01729185 -0.00236005
v -0.01075394 0.01487142 -0.00271304
v -0.01085767 0.01487142 -0.00874386
v -0.01091725 0.01487142 -0.00834800
v -0.01071311 0.01729185 -0.00833942
v -0.01048249 0.01729185 -0.00242579
v -0.01059063 0.01686491 -0.00273162
v -0.01067559 0.01585916 -0.00273162
v -0.01075835 0.01487142 -0.00273162
v -0.01094815 0.01487142 -0.00808647
v -0.01093712 0.01510787 -0.00801359
v -0.01072415 0.01729185 -0.00826225
v -0.01055421 0.01729185 -0.00273162
v -0.01056856 0.01729185 -0.00280736
v -0.01064691 0.01729185 -0.00323466
v -0.01072525 0.01636192 -0.00323466
v -0.01084663 0.01487142 -0.00321608
v -0.01098125 0.01487142 -0.00775778
v -0.01077160 0.01729185 -0.00783638
v -0.01085767 0.01636192 -0.00775921
v -0.01081573 0.01686491 -0.00775921
v -0.01065794 0.01729185 -0.00331041
v -0.01091394 0.01487142 -0.00365482
v -0.01084994 0.01487142 -0.00323466
v -0.01101657 0.01487142 -0.00725616
v -0.01093932 0.01563764 -0.00753341
v -0.01077932 0.01729185 -0.00775921
v -0.01071863 0.01729185 -0.00373771
v -0.01084111 0.01585916 -0.00373771
v -0.01089408 0.01531328 -0.00378344
v -0.01093822 0.01511687 -0.00398066
v -0.01094705 0.01487142 -0.00389634
v -0.01103753 0.01487142 -0.00673597
v -0.01099670 0.01535617 -0.00675312
v -0.01089298 0.01636192 -0.00725616
v -0.01081573 0.01729185 -0.00725616
v -0.01081022 0.01729185 -0.00733333
v -0.01072746 0.01729185 -0.00381345
v -0.01077601 0.01729185 -0.00424075
v -0.01092387 0.01545236 -0.00414500
v -0.01093822 0.01561868 -0.00448084
v -0.01097905 0.01487142 -0.00422217
v -0.01094815 0.01487142 -0.00390634
v -0.01105298 0.01487142 -0.00625007
v -0.01093932 0.01613234 -0.00655304
v -0.01087091 0.01686491 -0.00675312
v -0.01083229 0.01729185 -0.00683029
v -0.01081132 0.01729185 -0.00474380
v -0.01101436 0.01487142 -0.00472522
v -0.01084774 0.01686491 -0.00474380
v -0.01101546 0.01487142 -0.00474380
v -0.01105519 0.01487142 -0.00574989
v -0.01101546 0.01535617 -0.00574989
v -0.01085656 0.01729185 -0.00574989
v -0.01094374 0.01618872 -0.00625007
v -0.01084994 0.01729185 -0.00632725
v -0.01081573 0.01729185 -0.00481954
v -0.01083891 0.01729185 -0.00524684
v -0.01103974 0.01487142 -0.00524684
v -0.01094043 0.01615887 -0.00541405
v -0.01085215 0.01729185 -0.00625007
f 1 2 3
f 1 3 4
f 1 4 5
f 1 5 11
f 1 11 17
f 1 17 21
f 1 21 25
f 1 25 29
f 1 29 34
f 1 34 40
f 1 40 44
f 1 44 47
f 1 47 46
f 1 46 50
f 1 50 53
f 1 53 52
f 1 52 59
f 1 59 64
f 1 64 69
f 1 69 75
f 1 75 79
f 1 79 83
f 1 83 88
f 1 88 93
f 1 93 97
f 1 97 101
f 1 101 105
f 1 105 110
f 1 110 115
f 1 115 119
f 1 119 124
f 1 124 129
f 1 129 133
f 1 133 137
f 1 137 144
f 1 144 151
f 1 151 157
f 1 157 162
f 1 162 167
f 1 167 171
f 1 171 180
f 1 180 193
f 1 193 200
f 1 200 208
f 1 208 214
f 1 214 220
f 1 220 229
f 1 229 235
f 1 235 243
f 1 243 253
f 1 253 261
f 1 261 267
f 1 267 274
f 1 274 280
f 1 280 286
f 1 286 291
f 1 291 298
f 1 298 306
f 1 306 313
f 1 313 312
f 1 312 321
f 1 321 332
f 1 332 331
f 1 331 338
f 1 338 340
f 1 340 348
f 1 348 341
f 1 341 333
f 1 333 322
f 1 322 314
f 1 314 307
f 1 307 299
f 1 299 293
f 1 293 292
f 1 292 287
f 1 287 283
f 1 283 275
f 1 275 268
f 1 268 262
f 1 262 256
f 1 256 247
f 1 247 238
f 1 238 232
f 1 232 225
f 1 225 217
f 1 217 215
f 1 215 209
f 1 209 201
f 1 201 195
f 1 195 194
f 1 194 185
f 1 185 181
f 1 181 172
f 1 172 168
f 1 168 163
f 1 163 158
f 1 158 152
f 1 152 147
f 1 147 142
f 1 142 135
f 1 135 131
f 1 131 126
f 1 126 125
f 1 125 121
f 1 121 120
f 1 120 116
f 1 116 111
f 1 111 107
f 1 107 106
f 1 106 102
f 1 102 98
f 1 98 94
f 1 94 89
f 1 89 84
f 1 84 80
f 1 80 76
f 1 76 72
f 1 72 71
f 1 71 70
f 1 70 65
f 1 65 61
f 1 61 60
f 1 60 55
f 1 55 54
f 1 54 48
f 1 48 42
f 1 42 38
f 1 38 37
f 1 37 36
f 1 36 35
f 1 35 31
f 1 31 27
f 1 27 23
f 1 23 19
f 1 19 18
f 1 18 12
f 1 12 6
f 1 6 7
f 1 7 8
f 1 8 2
f 2 8 7
f 2 7 15
f 2 15 14
f 2 14 13
f 2 13 20
f 2 20 24
f 2 24 28
f 2 28 32
f 2 32 39
f 2 39 43
f 2 43 49
f 2 49 56
f 2 56 62
f 2 62 66
f 2 66 73
f 2 73 77
f 2 77 81
f 2 81 86
f 2 86 85
f 2 85 91
f 2 91 95
f 2 95 99
f 2 99 103
f 2 103 108
f 2 108 112
f 2 112 117
f 2 117 122
f 2 122 127
f 2 127 132
f 2 132 136
f 2 136 143
f 2 143 149
f 2 149 148
f 2 148 153
f 2 153 159
f 2 159 165
f 2 165 169
f 2 169 177
f 2 177 190
f 2 190 189
f 2 189 197
f 2 197 205
f 2 205 212
f 2 212 216
f 2 216 224
f 2 224 231
f 2 231 237
f 2 237 246
f 2 246 255
f 2 255 257
f 2 257 263
f 2 263 271
f 2 271 276
f 2 276 284
f 2 284 289
f 2 289 294
f 2 294 301
f 2 301 308
f 2 308 316
f 2 316 326
f 2 326 325
f 2 325 336
f 2 336 345
f 2 345 350
f 2 350 343
f 2 343 347
f 2 347 346
f 2 346 337
f 2 337 328
f 2 328 327
f 2 327 317
f 2 317 311
f 2 311 304
f 2 304 303
f 2 303 302
f 2 302 295
f 2 295 290
f 2 290 285
f 2 285 277
f 2 277 273
f 2 273 272
f 2 272 265
f 2 265 264
f 2 264 258
f 2 258 249
f 2 249 241
f 2 241 240
f 2 240 233
f 2 233 226
f 2 226 218
f 2 218 213
f 2 213 207
f 2 207 206
f 2 206 199
f 2 199 192
f 2 192 191
f 2 191 179
f 2 179 178
f 2 178 170
f 2 170 166
f 2 166 160
f 2 160 155
f 2 155 154
f 2 154 150
f 2 150 146
f 2 146 145
f 2 145 141
f 2 141 140
f 2 140 139
f 2 139 138
f 2 138 134
f 2 134 130
f 2 130 128
f 2 128 123
f 2 123 118
f 2 118 114
f 2 114 113
f 2 113 109
f 2 109 104
f 2 104 100
f 2 100 96
f 2 96 92
f 2 92 87
f 2 87 82
f 2 82 78
f 2 78 74
f 2 74 68
f 2 68 67
f 2 67 63
f 2 63 58
f 2 58 57
f 2 57 51
f 2 51 45
f 2 45 41
f 2 41 33
f 2 33 30
f 2 30 26
f 2 26 22
f 2 22 16
f 2 16 10
f 2 10 9
f 2 9 4
f 2 4 3
f 4 9 5
f 5 9 10
f 5 10 11
f 6 12 13
f 6 13 14
f 6 14 15
f 6 15 7
f 10 16 11
f 11 16 17
f 12 18 13
f 13 18 19
f 13 19 20
f 16 21 17
f 16 22 21
f 19 23 24
f 19 24 20
f 21 22 25
f 22 26 25
f 23 27 24
f 24 27 28
f 25 26 29
f 26 30 29
f 27 31 32
f 27 32 28
f 29 30 33
f 29 33 34
f 31 35 32
f 32 35 36
f 32 36 37
f 32 37 38
f 32 38 39
f 33 40 34
f 33 41 40
f 38 42 39
f 39 42 43
f 40 41 44
f 41 45 46
f 41 46 47
f 41 47 44
f 42 48 49
f 42 49 43
f 45 50 46
f 45 51 52
f 45 52 53
f 45 53 50
f 48 54 49
f 49 54 55
f 49 55 56
f 51 57 52
f 52 57 58
f 52 58 59
f 55 60 56
f 56 61 62
f 56 60 61
f 58 63 59
f 59 63 64
f 61 65 66
f 61 66 62
f 63 67 64
f 64 67 68
f 64 68 69
f 65 70 66
f 66 70 71
f 66 71 72
f 66 72 73
f 68 74 69
f 69 74 75
f 72 76 73
f 73 76 77
f 74 78 79
f 74 79 75
f 76 80 81
f 76 81 77
f 78 82 79
f 79 82 83
f 80 84 85
f 80 85 86
f 80 86 81
f 82 87 88
f 82 88 83
f 84 89 85
f 85 89 90
f 85 90 91
f 87 92 93
f 87 93 88
f 89 94 95
f 89 95 91
f 89 91 90
f 92 96 97
f 92 97 93
f 94 98 99
f 94 99 95
f 96 100 97
f 97 100 101
f 98 102 99
f 99 102 103
f 100 104 101
f 101 104 105
f 102 106 103
f 103 106 107
f 103 107 108
f 104 109 105
f 105 109 110
f 107 111 108
f 108 111 112
f 109 113 110
f 110 113 114
f 110 114 115
f 111 116 112
f 112 116 117
f 114 118 119
f 114 119 115
f 116 120 117
f 117 120 121
f 117 121 122
f 118 123 119
f 119 123 124
f 121 125 122
f 122 125 126
f 122 126 127
f 123 128 124
f 124 128 130
f 124 130 129
f 126 131 132
f 126 132 127
f 129 130 134
f 129 134 133
f 131 135 136
f 131 136 132
f 133 134 138
f 133 138 139
f 133 139 140
f 133 140 141
f 133 141 137
f 135 142 136
f 136 142 143
f 137 141 145
f 137 145 146
f 137 146 144
f 142 147 148
f 142 148 149
f 142 149 143
f 144 146 150
f 144 150 151
f 147 152 153
f 147 153 148
f 150 154 151
f 151 154 155
f 151 155 156
f 151 156 157
f 152 158 159
f 152 159 153
f 155 160 161
f 155 161 156
f 156 161 157
f 157 161 162
f 158 163 159
f 159 163 164
f 159 164 165
f 160 166 167
f 160 167 162
f 160 162 161
f 163 168 164
f 164 168 165
f 165 168 169
f 166 170 167
f 167 170 171
f 168 172 173
f 168 173 174
f 168 174 169
f 169 174 175
f 169 175 176
f 169 176 177
f 170 178 171
f 171 178 179
f 171 179 180
f 172 181 182
f 172 182 183
f 172 183 173
f 173 183 184
f 173 184 175
f 173 175 174
f 175 184 185
f 175 185 186
f 175 186 187
f 175 187 176
f 176 187 188
f 176 188 189
f 176 189 190
f 176 190 177
f 179 191 180
f 180 191 192
f 180 192 193
f 181 185 182
f 182 185 183
f 183 185 184
f 185 194 187
f 185 187 186
f 187 194 195
f 187 195 196
f 187 196 188
f 188 197 189
f 188 196 198
f 188 198 197
f 192 199 193
f 193 199 200
f 195 201 202
f 195 202 203
f 195 203 198
f 195 198 196
f 197 198 203
f 197 203 204
f 197 204 205
f 199 206 200
f 200 206 207
f 200 207 208
f 201 209 202
f 202 209 210
f 202 210 205
f 202 205 204
f 202 204 203
f 205 210 211
f 205 211 212
f 207 213 208
f 208 213 214
f 209 215 211
f 209 211 210
f 211 215 212
f 212 215 217
f 212 217 216
f 213 218 219
f 213 219 214
f 214 219 220
f 216 217 221
f 216 221 222
f 216 222 223
f 216 223 224
f 217 225 221
f 218 226 227
f 218 227 228
f 218 228 219
f 219 228 220
f 220 228 229
f 221 225 222
f 222 225 223
f 223 225 230
f 223 230 231
f 223 231 224
f 225 232 230
f 226 233 228
f 226 228 227
f 228 233 229
f 229 233 234
f 229 234 235
f 230 232 236
f 230 236 231
f 231 236 237
f 232 238 239
f 232 239 237
f 232 237 236
f 233 240 234
f 234 240 235
f 235 240 241
f 235 241 242
f 235 242 252
f 235 252 243
f 237 239 244
f 237 244 245
f 237 245 246
f 238 247 248
f 238 248 239
f 239 248 254
f 239 254 244
f 241 249 250
f 241 250 251
f 241 251 242
f 242 251 260
f 242 260 252
f 243 252 253
f 244 254 245
f 245 254 246
f 246 254 255
f 247 256 257
f 247 257 255
f 247 255 254
f 247 254 248
f 249 258 250
f 250 258 259
f 250 259 260
f 250 260 251
f 252 260 253
f 253 260 259
f 253 259 261
f 256 262 263
f 256 263 257
f 258 264 259
f 259 264 261
f 261 264 265
f 261 265 266
f 261 266 267
f 262 268 269
f 262 269 263
f 263 269 270
f 263 270 271
f 265 272 266
f 266 272 267
f 267 273 274
f 267 272 273
f 268 275 270
f 268 270 269
f 270 275 271
f 271 275 276
f 273 277 278
f 273 278 279
f 273 279 274
f 274 279 281
f 274 281 282
f 274 282 280
f 275 283 276
f 276 283 284
f 277 285 278
f 278 285 286
f 278 286 279
f 279 286 281
f 280 282 286
f 281 286 282
f 283 287 288
f 283 288 289
f 283 289 284
f 285 290 286
f 286 290 291
f 287 292 288
f 288 292 289
f 289 292 293
f 289 293 294
f 290 295 296
f 290 296 297
f 290 297 291
f 291 297 298
f 293 299 300
f 293 300 301
f 293 301 294
f 295 302 296
f 296 302 303
f 296 303 297
f 297 303 304
f 297 304 305
f 297 305 298
f 298 305 306
f 299 307 300
f 300 308 301
f 300 307 309
f 300 309 310
f 300 310 308
f 304 311 312
f 304 312 305
f 305 312 313
f 305 313 306
f 307 314 315
f 307 315 309
f 308 310 316
f 309 315 310
f 310 315 316
f 311 317 312
f 312 317 318
f 312 318 319
f 312 319 320
f 312 320 321
f 314 322 323
f 314 323 324
f 314 324 315
f 315 324 325
f 315 325 326
f 315 326 316
f 317 327 320
f 317 320 318
f 318 320 319
f 320 328 329
f 320 329 330
f 320 330 331
f 320 331 332
f 320 332 321
f 320 327 328
f 322 333 334
f 322 334 323
f 323 334 335
f 323 335 325
f 323 325 324
f 325 335 336
f 328 330 329
f 328 337 330
f 330 338 331
f 330 337 339
f 330 339 340
f 330 340 338
f 333 341 342
f 333 342 343
f 333 343 344
f 333 344 345
f 333 345 334
f 334 345 335
f 335 345 336
f 337 346 339
f 339 346 347
f 339 347 340
f 340 347 348
f 341 348 349
f 341 349 342
f 342 349 343
f 343 349 347
f 343 350 344
f 344 350 345
f 347 349 348

