# https://github.com/mikedh/trimesh
v 0.00022138 0.02843394 0.00122411
v 0.00037985 0.02843394 0.00121280
v 0.00037985 0.02893735 0.00121280
v 0.00022138 0.02877974 0.00122270
v 0.00022138 0.02793053 0.00121987
v 0.00088285 0.02893735 0.00116755
v 0.00088285 0.02994182 0.00117320
v 0.00037985 0.02793053 0.00120714
v 0.00037985 0.02944076 0.00120855
v 0.00022138 0.02928315 0.00121845
v 0.00022138 0.02777292 0.00121704
v 0.00088285 0.02843394 0.00116189
v 0.00138526 0.02994182 0.00111805
v 0.00138526 0.03044288 0.00111522
v 0.00088285 0.03044288 0.00116613
v 0.00037985 0.02994182 0.00120431
v 0.00022138 0.02742947 0.00120855
v 0.00037985 0.02742947 0.00119441
v 0.00088285 0.02793053 0.00115058
v 0.00022138 0.02978421 0.00121280
v 0.00138526 0.02944076 0.00111239
v 0.00173448 0.02994182 0.00106290
v 0.00175678 0.03044288 0.00106149
v 0.00175385 0.03094629 0.00105866
v 0.00171981 0.03144971 0.00105300
v 0.00138526 0.03094629 0.00110391
v 0.00037985 0.03044288 0.00119441
v 0.00164527 0.03223541 0.00104169
v 0.00088285 0.03094629 0.00114916
v 0.00022138 0.02692606 0.00119158
v 0.00037985 0.02692606 0.00117744
v 0.00037985 0.02642264 0.00115340
v 0.00088285 0.02742947 0.00112653
v 0.00129429 0.02793053 0.00107846
v 0.00141343 0.02847158 0.00107846
v 0.00138526 0.02893735 0.00109967
v 0.00022138 0.03028527 0.00120290
v 0.00170689 0.02944076 0.00105866
v 0.00200858 0.03044288 0.00101623
v 0.00200505 0.03094629 0.00102048
v 0.00197160 0.03144971 0.00101765
v 0.00192523 0.03195312 0.00101340
v 0.00184306 0.03242360 0.00101199
v 0.00167403 0.03195312 0.00104593
v 0.00022138 0.03044288 0.00119865
v 0.00037985 0.03094629 0.00117744
v 0.00022138 0.03094629 0.00118451
v 0.00155488 0.03256945 0.00103603
v 0.00088285 0.03144971 0.00112795
v 0.00037985 0.03144971 0.00115765
v 0.00022138 0.02676845 0.00118593
v 0.00022138 0.02626503 0.00116330
v 0.00080948 0.02642264 0.00108270
v 0.00022138 0.02576162 0.00113785
v 0.00037985 0.02591923 0.00112371
v 0.00122092 0.02742947 0.00106290
v 0.00154608 0.02793053 0.00101906
v 0.00159949 0.02832808 0.00103179
v 0.00164233 0.02866212 0.00104169
v 0.00166816 0.02893735 0.00104876
v 0.00195869 0.02944076 0.00099361
v 0.00198627 0.02994182 0.00100492
v 0.00239125 0.03044288 0.00091866
v 0.00239125 0.03094629 0.00093139
v 0.00239125 0.03144971 0.00093280
v 0.00239125 0.03195312 0.00092997
v 0.00239125 0.03245653 0.00092290
v 0.00239125 0.03295994 0.00090028
v 0.00188826 0.03295994 0.00097522
v 0.00022138 0.03144971 0.00116330
v 0.00138643 0.03294112 0.00102048
v 0.00121975 0.03275999 0.00104593
v 0.00088285 0.03195312 0.00110532
v 0.00037985 0.03195312 0.00113219
v 0.00022138 0.03179551 0.00114633
v 0.00106128 0.02642264 0.00102330
v 0.00111234 0.02674022 0.00103603
v 0.00040685 0.02542288 0.00108553
v 0.00072262 0.02591923 0.00106290
v 0.00022138 0.02524645 0.00110532
v 0.00147212 0.02742947 0.00099926
v 0.00188826 0.02793053 0.00092149
v 0.00184130 0.02847158 0.00097664
v 0.00191995 0.02893735 0.00098230
v 0.00239125 0.02994182 0.00089179
v 0.00289425 0.03044288 0.00074472
v 0.00289425 0.03094629 0.00077018
v 0.00289425 0.03144971 0.00078432
v 0.00289425 0.03195312 0.00079422
v 0.00289425 0.03245653 0.00079705
v 0.00289425 0.03295994 0.00078715
v 0.00289425 0.03346100 0.00076593
v 0.00289425 0.03396441 0.00073765
v 0.00289425 0.03446783 0.00070796
v 0.00239125 0.03346100 0.00086917
v 0.00239125 0.03396441 0.00083381
v 0.00239125 0.03446783 0.00079280
v 0.00188826 0.03396441 0.00088755
v 0.00065101 0.03322576 0.00104169
v 0.00188826 0.03446783 0.00084230
v 0.00138526 0.03446783 0.00088048
v 0.00088285 0.03446783 0.00091725
v 0.00088285 0.03245653 0.00107987
v 0.00084411 0.03294112 0.00105300
v 0.00022138 0.03195312 0.00113785
v 0.00037985 0.03245653 0.00110249
v 0.00135415 0.02691429 0.00098654
v 0.00097382 0.02591923 0.00100209
v 0.00026775 0.02491476 0.00107421
v 0.00066099 0.02559460 0.00104734
v 0.00022138 0.02484419 0.00107704
v 0.00138526 0.02642264 0.00092997
v 0.00188826 0.02742947 0.00087058
v 0.00239125 0.02793053 0.00074190
v 0.00239125 0.02843394 0.00079280
v 0.00239125 0.02893735 0.00082957
v 0.00239125 0.02944076 0.00086209
v 0.00289425 0.02994182 0.00071220
v 0.00325169 0.03044288 0.00059200
v 0.00327634 0.03094629 0.00060755
v 0.00330686 0.03144971 0.00061887
v 0.00333327 0.03195312 0.00062735
v 0.00335440 0.03245653 0.00063018
v 0.00336438 0.03295994 0.00062877
v 0.00336320 0.03346100 0.00062028
v 0.00335029 0.03396441 0.00060755
v 0.00332975 0.03446783 0.00059624
v 0.00327810 0.03497124 0.00057786
v 0.00289425 0.03497124 0.00066553
v 0.00239125 0.03497124 0.00073907
v 0.00022138 0.03350335 0.00102472
v 0.00037985 0.03295994 0.00106573
v 0.00022138 0.03245653 0.00110532
v 0.00037985 0.03446783 0.00094128
v 0.00037985 0.03396441 0.00098512
v 0.00188826 0.03497124 0.00078715
v 0.00138526 0.03497124 0.00082957
v 0.00088285 0.03497124 0.00086209
v 0.00022138 0.03229892 0.00111664
v 0.00059232 0.02526056 0.00103179
v 0.00051954 0.02491476 0.00101340
v 0.00084998 0.02542288 0.00097805
v 0.00138526 0.02591923 0.00087199
v 0.00022138 0.02469834 0.00106290
v 0.00022138 0.02450074 0.00104310
v 0.00188826 0.02692606 0.00081543
v 0.00302807 0.02793053 0.00049301
v 0.00339666 0.02793053 0.00034453
v 0.00321765 0.02994182 0.00057362
v 0.00389966 0.03044288 0.00029362
v 0.00466149 0.03263531 0.00004191
v 0.00360561 0.03245653 0.00051705
v 0.00361558 0.03295994 0.00052412
v 0.00361441 0.03346100 0.00052412
v 0.00360208 0.03396441 0.00052129
v 0.00358154 0.03446783 0.00051422
v 0.00352930 0.03497124 0.00050008
v 0.00338257 0.03550523 0.00048877
v 0.00320649 0.03535938 0.00055523
v 0.00312432 0.03569577 0.00053402
v 0.00293181 0.03550523 0.00059058
v 0.00278919 0.03589102 0.00056230
v 0.00264070 0.03622742 0.00053826
v 0.00239125 0.03547465 0.00066977
v 0.00022138 0.03383033 0.00099785
v 0.00022138 0.03325164 0.00104452
v 0.00022138 0.03279998 0.00107987
v 0.00022138 0.03446783 0.00093987
v 0.00022138 0.03431022 0.00095684
v 0.00037985 0.03497124 0.00088189
v 0.00022138 0.03481363 0.00090028
v 0.00022138 0.03396441 0.00098654
v 0.00188826 0.03547465 0.00071785
v 0.00138526 0.03547465 0.00076028
v 0.00088285 0.03547465 0.00079139
v 0.00022138 0.02427726 0.00101765
v 0.00036401 0.02438077 0.00099219
v 0.00088285 0.02491476 0.00089886
v 0.00138526 0.02541582 0.00079705
v 0.00188826 0.02642264 0.00075038
v 0.00237130 0.02588630 0.00047321
v 0.00289425 0.02591923 0.00022150
v 0.00315074 0.02565812 0.00003908
v 0.00375410 0.02793053 0.00013807
v 0.00422247 0.02994182 0.00009847
v 0.00463214 0.03230127 0.00002494
v 0.00481468 0.03246359 -0.00017304
v 0.00516683 0.03466307 -0.00045586
v 0.00466149 0.03272235 0.00004191
v 0.00389966 0.03497124 0.00032049
v 0.00389966 0.03547465 0.00029221
v 0.00389966 0.03597571 0.00025544
v 0.00339666 0.03597571 0.00043220
v 0.00339666 0.03647912 0.00036574
v 0.00289425 0.03647912 0.00046190
v 0.00293181 0.03602511 0.00052129
v 0.00230556 0.03634033 0.00055523
v 0.00244055 0.03649794 0.00051564
v 0.00188826 0.03597571 0.00064715
v 0.00022138 0.03497124 0.00087906
v 0.00037985 0.03547465 0.00080553
v 0.00186537 0.03649794 0.00056937
v 0.00138526 0.03597571 0.00068392
v 0.00088285 0.03597571 0.00071503
v 0.00022138 0.02417140 0.00100492
v 0.00022138 0.02390794 0.00096815
v 0.00037985 0.02390794 0.00092149
v 0.00088285 0.02441135 0.00082250
v 0.00088285 0.02390794 0.00073624
v 0.00239125 0.02541582 0.00036291
v 0.00115988 0.02360448 0.00055240
v 0.00322469 0.02546052 -0.00023668
v 0.00456993 0.02638971 -0.00222775
v 0.00399415 0.02793053 -0.00021688
v 0.00370245 0.02760354 0.00008716
v 0.00287664 0.02546052 0.00013241
v 0.00215120 0.02363271 0.00004191
v 0.00237247 0.02344452 -0.00022819
v 0.00266711 0.02359272 -0.00043465
v 0.00467616 0.03010649 -0.00042758
v 0.00449363 0.02993947 -0.00024233
v 0.00508173 0.03245653 -0.00071889
v 0.00528187 0.03448429 -0.00068637
v 0.00527776 0.03498065 -0.00067647
v 0.00516683 0.03482068 -0.00045586
v 0.00422775 0.03597571 0.00008857
v 0.00418842 0.03647912 0.00006029
v 0.00389966 0.03647912 0.00019463
v 0.00339666 0.03698253 0.00027665
v 0.00289425 0.03698253 0.00037281
v 0.00201738 0.03667672 0.00052978
v 0.00239125 0.03698253 0.00043503
v 0.00022138 0.03531469 0.00082674
v 0.00088285 0.03647912 0.00063301
v 0.00037985 0.03597571 0.00072351
v 0.00168224 0.03674729 0.00054109
v 0.00138526 0.03647912 0.00060331
v 0.00022138 0.02374092 0.00094411
v 0.00022138 0.02324691 0.00086068
v 0.00037985 0.02340452 0.00083523
v 0.00037985 0.02290111 0.00073341
v 0.00064984 0.02260942 0.00054957
v 0.00468966 0.02653321 -0.00239462
v 0.00520968 0.02843394 -0.00235785
v 0.00508525 0.02843394 -0.00210614
v 0.00372123 0.02403497 -0.00236634
v 0.00022138 0.02169433 0.00051281
v 0.00022138 0.02134148 0.00038554
v 0.00022138 0.02088511 0.00020877
v 0.00022138 0.02079102 0.00017201
v 0.00022138 0.02063105 0.00010554
v 0.00022138 0.02055578 0.00007160
v 0.00225861 0.02305167 -0.00035546
v 0.00259374 0.02325632 -0.00056758
v 0.00022138 0.02026408 -0.00007971
v 0.00022138 0.02015117 -0.00014617
v 0.00567394 0.03066401 -0.00245260
v 0.00569448 0.03094629 -0.00241300
v 0.00548084 0.03446783 -0.00122232
v 0.00562346 0.03698253 -0.00156312
v 0.00514688 0.03515708 -0.00047849
v 0.00444022 0.03647912 -0.00014052
v 0.00435570 0.03694254 -0.00015466
v 0.00415673 0.03674965 0.00003766
v 0.00391198 0.03694254 0.00010837
v 0.00373473 0.03748595 0.00007019
v 0.00365902 0.03775177 0.00003908
v 0.00339666 0.03748595 0.00016211
v 0.00289425 0.03748595 0.00025685
v 0.00239125 0.03748595 0.00032332
v 0.00186537 0.03694254 0.00049160
v 0.00188826 0.03748595 0.00037140
v 0.00022138 0.03581810 0.00074190
v 0.00088285 0.03685550 0.00056372
v 0.00037985 0.03647912 0.00063301
v 0.00138526 0.03705075 0.00050574
v 0.00022138 0.02274350 0.00076169
v 0.00022138 0.02225656 0.00065281
v 0.00022138 0.02191311 0.00057220
v 0.00464681 0.02619917 -0.00261664
v 0.00516859 0.02816577 -0.00245543
v 0.00527365 0.02843394 -0.00273118
v 0.00218113 0.02155084 -0.00141464
v 0.00209544 0.02121680 -0.00158433
v 0.00215824 0.02111800 -0.00191948
v 0.00313372 0.02217422 -0.00355561
v 0.00375586 0.02388441 -0.00277926
v 0.00022138 0.01985241 -0.00032718
v 0.00022138 0.01979831 -0.00036112
v 0.00022138 0.01962658 -0.00047708
v 0.00022138 0.01947603 -0.00059445
v 0.00022138 0.01931371 -0.00072172
v 0.00574202 0.02939842 -0.00471095
v 0.00570152 0.03060990 -0.00273118
v 0.00576315 0.03094629 -0.00273118
v 0.00595449 0.03346100 -0.00273118
v 0.00571033 0.03698253 -0.00181483
v 0.00537226 0.03698253 -0.00124918
v 0.00568157 0.03727188 -0.00189968
v 0.00550255 0.03745772 -0.00172998
v 0.00527424 0.03748595 -0.00134676
v 0.00472898 0.03798936 -0.00087444
v 0.00479355 0.03745066 -0.00070475
v 0.00466266 0.03725776 -0.00045869
v 0.00441909 0.03745066 -0.00032435
v 0.00408806 0.03708369 0.00000655
v 0.00398593 0.03748595 -0.00004436
v 0.00385622 0.03794701 -0.00012920
v 0.00388616 0.03846924 -0.00036536
v 0.00339666 0.03849042 -0.00017304
v 0.00339666 0.03810227 -0.00001042
v 0.00339666 0.03785057 0.00006736
v 0.00307678 0.03821048 0.00002635
v 0.00290305 0.03801994 0.00010413
v 0.00239125 0.03798936 0.00018190
v 0.00188826 0.03798936 0.00023564
v 0.00138526 0.03748595 0.00041241
v 0.00022138 0.03632151 0.00064573
v 0.00088285 0.03710721 0.00051281
v 0.00037985 0.03682022 0.00056089
v 0.00022138 0.03678493 0.00055240
v 0.00443317 0.02491476 -0.00474347
v 0.00518503 0.02712601 -0.00443661
v 0.00529889 0.02742947 -0.00474347
v 0.00022138 0.01919845 -0.00081505
v 0.00022138 0.01907142 -0.00092535
v 0.00022138 0.01882912 -0.00118272
v 0.00022138 0.01873267 -0.00130009
v 0.00022138 0.01861741 -0.00144575
v 0.00022138 0.01840099 -0.00177241
v 0.00022138 0.01839393 -0.00178372
v 0.00022138 0.01838452 -0.00179928
v 0.00022138 0.01822691 -0.00207786
v 0.00022138 0.01816104 -0.00222775
v 0.00022490 0.01796344 -0.00273118
v 0.00182193 0.01989946 -0.00373803
v 0.00315837 0.02212718 -0.00389076
v 0.00529889 0.02742947 -0.00725636
v 0.00574143 0.02939842 -0.00728888
v 0.00617106 0.03212249 -0.00703717
v 0.00617106 0.03212249 -0.00694525
v 0.00617048 0.03212249 -0.00496407
v 0.00617693 0.03518295 -0.00388652
v 0.00614700 0.03547465 -0.00360369
v 0.00617224 0.03574988 -0.00391338
v 0.00569800 0.03849042 -0.00340430
v 0.00566689 0.03875624 -0.00346935
v 0.00477124 0.03898912 -0.00173564
v 0.00469436 0.03881740 -0.00140474
v 0.00475892 0.03846219 -0.00123080
v 0.00466970 0.03827400 -0.00095081
v 0.00450830 0.03798936 -0.00062273
v 0.00459751 0.03759416 -0.00052798
v 0.00425709 0.03798936 -0.00038233
v 0.00418138 0.03828811 -0.00044455
v 0.00404404 0.03862215 -0.00053930
v 0.00370890 0.03879858 -0.00043607
v 0.00339666 0.03889738 -0.00037809
v 0.00291949 0.03903382 -0.00032435
v 0.00290305 0.03846219 -0.00004718
v 0.00239125 0.03859627 -0.00001607
v 0.00198099 0.03868096 0.00001362
v 0.00164585 0.03874447 0.00003625
v 0.00138526 0.03798936 0.00027382
v 0.00088285 0.03748595 0.00042230
v 0.00022138 0.03689314 0.00052129
v 0.00037985 0.03707192 0.00048735
v 0.00443259 0.02491476 -0.00725636
v 0.00520674 0.02708837 -0.00725636
v 0.00520616 0.02708837 -0.00474347
v 0.00402056 0.02390794 -0.00574891
v 0.00022138 0.01812576 -0.00231543
v 0.00022138 0.01795403 -0.00274249
v 0.00022138 0.01778466 -0.00325016
v 0.00022138 0.01771409 -0.00355844
v 0.00022138 0.01767410 -0.00373803
v 0.00022138 0.01757294 -0.00424004
v 0.00022138 0.01750472 -0.00474347
v 0.00172157 0.01953719 -0.00574891
v 0.00192230 0.01988299 -0.00574891
v 0.00316776 0.02208248 -0.00590870
v 0.00378286 0.02338335 -0.00578002
v 0.00518503 0.02712601 -0.00756322
v 0.00527307 0.02843394 -0.00926865
v 0.00567394 0.03066401 -0.00954865
v 0.00570152 0.03060990 -0.00926865
v 0.00576315 0.03094629 -0.00926865
v 0.00595390 0.03346100 -0.00926865
v 0.00617693 0.03518531 -0.00811332
v 0.00618045 0.03547465 -0.00814443
v 0.00621626 0.03397382 -0.00627779
v 0.00620804 0.03347512 -0.00624102
v 0.00620863 0.03347276 -0.00575881
v 0.00621743 0.03397853 -0.00572204
v 0.00618045 0.03547465 -0.00385540
v 0.00618574 0.03647912 -0.00589739
v 0.00616813 0.03674024 -0.00597800
v 0.00573146 0.03849042 -0.00373803
v 0.00474894 0.03938903 -0.00222775
v 0.00468849 0.03929729 -0.00190958
v 0.00566396 0.03925259 -0.00598507
v 0.00482172 0.04004535 -0.00421742
v 0.00464505 0.04024060 -0.00403500
v 0.00461571 0.04020766 -0.00373803
v 0.00474777 0.03987833 -0.00323461
v 0.00469612 0.03980540 -0.00287118
v 0.00463331 0.03972072 -0.00253603
v 0.00459575 0.03915379 -0.00157443
v 0.00442202 0.03901735 -0.00119969
v 0.00458401 0.03860804 -0.00106959
v 0.00438270 0.03844807 -0.00074434
v 0.00424829 0.03888327 -0.00087444
v 0.00412386 0.03921731 -0.00099606
v 0.00391668 0.03900794 -0.00070899
v 0.00378873 0.03935845 -0.00088010
v 0.00339666 0.03914909 -0.00053364
v 0.00310437 0.03922907 -0.00047849
v 0.00276865 0.03929729 -0.00043748
v 0.00239125 0.03936786 -0.00039930
v 0.00239125 0.03899383 -0.00019849
v 0.00184365 0.03894678 -0.00009102
v 0.00188826 0.03942432 -0.00035829
v 0.00161886 0.03874447 0.00003625
v 0.00088285 0.03798936 0.00025968
v 0.00037985 0.03748595 0.00034877
v 0.00022138 0.03730481 0.00036857
v 0.00464623 0.02619917 -0.00938319
v 0.00401998 0.02390794 -0.00625092
v 0.00315837 0.02212718 -0.00811049
v 0.00375527 0.02388441 -0.00922057
v 0.00022138 0.01746709 -0.00524690
v 0.00022138 0.01743886 -0.00574891
v 0.00172157 0.01953719 -0.00625092
v 0.00192171 0.01988299 -0.00625092
v 0.00316776 0.02208248 -0.00609113
v 0.00378227 0.02338335 -0.00621981
v 0.00516859 0.02816577 -0.00954440
v 0.00520909 0.02843394 -0.00964056
v 0.00467616 0.03010649 -0.01157225
v 0.00569448 0.03094629 -0.00958683
v 0.00548025 0.03446783 -0.01077751
v 0.00570974 0.03698253 -0.01018358
v 0.00614700 0.03547465 -0.00839614
v 0.00617224 0.03574988 -0.00808786
v 0.00618574 0.03647912 -0.00610385
v 0.00616813 0.03674024 -0.00602183
v 0.00457169 0.03964074 -0.00222775
v 0.00423010 0.03982657 -0.00185867
v 0.00441263 0.03950430 -0.00171726
v 0.00566396 0.03925259 -0.00601618
v 0.00472429 0.04033234 -0.00574891
v 0.00471196 0.04031823 -0.00524690
v 0.00469553 0.04029705 -0.00474347
v 0.00467499 0.04027353 -0.00437014
v 0.00436450 0.04044290 -0.00373803
v 0.00429348 0.04037703 -0.00323461
v 0.00454469 0.04013003 -0.00323461
v 0.00442437 0.04002418 -0.00268451
v 0.00432048 0.03992773 -0.00222775
v 0.00426062 0.03937492 -0.00133120
v 0.00411036 0.03971131 -0.00152352
v 0.00394954 0.03953488 -0.00117706
v 0.00354574 0.03969484 -0.00102293
v 0.00338551 0.03951606 -0.00080515
v 0.00321119 0.03977953 -0.00094232
v 0.00291949 0.03947842 -0.00060717
v 0.00239125 0.03961956 -0.00055485
v 0.00188826 0.03967602 -0.00051809
v 0.00138526 0.03939374 -0.00035970
v 0.00142458 0.03894678 -0.00008536
v 0.00128313 0.03872095 0.00002494
v 0.00088285 0.03838691 0.00009847
v 0.00038748 0.03799641 0.00014231
v 0.00022138 0.03791643 0.00011403
v 0.00456934 0.02638971 -0.00977208
v 0.00468907 0.02653556 -0.00960521
v 0.00372123 0.02403497 -0.00963349
v 0.00182193 0.01989946 -0.00826321
v 0.00313548 0.02217422 -0.00844563
v 0.00022138 0.01744121 -0.00625799
v 0.00022138 0.01747179 -0.00675435
v 0.00022138 0.01751178 -0.00725636
v 0.00022138 0.01751649 -0.00731292
v 0.00508466 0.02843394 -0.00989228
v 0.00399298 0.02793053 -0.01178295
v 0.00375351 0.02793053 -0.01213648
v 0.00449245 0.02993947 -0.01175750
v 0.00422129 0.02994182 -0.01209830
v 0.00463214 0.03230362 -0.01202477
v 0.00481468 0.03246359 -0.01182679
v 0.00508114 0.03245653 -0.01128094
v 0.00528070 0.03448429 -0.01131488
v 0.00562287 0.03698253 -0.01043530
v 0.00568098 0.03726953 -0.01009874
v 0.00569800 0.03849042 -0.00859553
v 0.00566689 0.03875624 -0.00853189
v 0.00573146 0.03849042 -0.00826321
v 0.00414264 0.04024530 -0.00249927
v 0.00405754 0.04017943 -0.00222775
v 0.00369951 0.04028529 -0.00192089
v 0.00390494 0.04000300 -0.00172291
v 0.00467557 0.04027588 -0.00763393
v 0.00469670 0.04029941 -0.00725636
v 0.00471196 0.04031823 -0.00675435
v 0.00472429 0.04033234 -0.00625092
v 0.00446487 0.04058404 -0.00574891
v 0.00444961 0.04056993 -0.00524690
v 0.00442378 0.04054876 -0.00474347
v 0.00415321 0.04075577 -0.00448186
v 0.00439913 0.04050171 -0.00425843
v 0.00411271 0.04072989 -0.00414671
v 0.00405519 0.04069461 -0.00373803
v 0.00421542 0.04030646 -0.00283441
v 0.00389613 0.04065227 -0.00319360
v 0.00377523 0.03984304 -0.00135807
v 0.00335440 0.03997948 -0.00124353
v 0.00316365 0.04025942 -0.00146272
v 0.00289425 0.04009004 -0.00115020
v 0.00239125 0.04018414 -0.00104414
v 0.00289425 0.03983834 -0.00088576
v 0.00239125 0.03993243 -0.00080657
v 0.00138526 0.03964544 -0.00056899
v 0.00188826 0.03996537 -0.00076980
v 0.00101491 0.03931611 -0.00041061
v 0.00088285 0.03863862 -0.00002173
v 0.00056063 0.03829282 0.00006170
v 0.00022549 0.03816814 -0.00001183
v 0.00022138 0.03816108 -0.00001042
v 0.00322469 0.02546052 -0.01176315
v 0.00315015 0.02565812 -0.01203891
v 0.00266652 0.02359272 -0.01156518
v 0.00215824 0.02111800 -0.01007894
v 0.00209427 0.02121680 -0.01041550
v 0.00218113 0.02155319 -0.01058519
v 0.00259316 0.02325868 -0.01143084
v 0.00022138 0.01758000 -0.00775979
v 0.00022138 0.01760352 -0.00788706
v 0.00022138 0.01767645 -0.00826321
v 0.00022138 0.01778466 -0.00870300
v 0.00022138 0.01780583 -0.00877654
v 0.00022138 0.01782230 -0.00882745
v 0.00022197 0.01796815 -0.00926865
v 0.00022138 0.01816810 -0.00977208
v 0.00370245 0.02760354 -0.01208699
v 0.00339666 0.02793053 -0.01234436
v 0.00389966 0.03044288 -0.01229345
v 0.00466149 0.03263766 -0.01204174
v 0.00516566 0.03466543 -0.01154255
v 0.00527659 0.03497830 -0.01132336
v 0.00537167 0.03698253 -0.01075206
v 0.00466325 0.03725776 -0.01154114
v 0.00479355 0.03744831 -0.01129367
v 0.00527424 0.03748595 -0.01065307
v 0.00550197 0.03745772 -0.01026985
v 0.00516566 0.03481598 -0.01154255
v 0.00514629 0.03515237 -0.01151993
v 0.00469083 0.03881269 -0.01059085
v 0.00476889 0.03898677 -0.01026419
v 0.00468790 0.03929729 -0.01009025
v 0.00474835 0.03939374 -0.00977208
v 0.00463860 0.03972777 -0.00947653
v 0.00469788 0.03980540 -0.00914138
v 0.00474953 0.03988068 -0.00876522
v 0.00461629 0.04020766 -0.00826321
v 0.00464564 0.04024295 -0.00796908
v 0.00394485 0.04044761 -0.00269300
v 0.00380575 0.04036057 -0.00222775
v 0.00337025 0.04060287 -0.00225604
v 0.00335733 0.04033940 -0.00174271
v 0.00349820 0.04017943 -0.00158574
v 0.00436509 0.04044526 -0.00826321
v 0.00440030 0.04050406 -0.00774706
v 0.00415438 0.04075812 -0.00752504
v 0.00442495 0.04055111 -0.00725636
v 0.00445019 0.04056993 -0.00675435
v 0.00446487 0.04058404 -0.00625092
v 0.00421366 0.04080047 -0.00625092
v 0.00421307 0.04080047 -0.00574891
v 0.00419840 0.04078870 -0.00524690
v 0.00417258 0.04076988 -0.00474347
v 0.00389966 0.04092044 -0.00474347
v 0.00392665 0.04085222 -0.00428530
v 0.00380340 0.04083810 -0.00373803
v 0.00372651 0.04079341 -0.00333501
v 0.00363847 0.04075107 -0.00299986
v 0.00289425 0.04051347 -0.00172574
v 0.00289425 0.04031117 -0.00140191
v 0.00188826 0.04021707 -0.00101727
v 0.00239125 0.04039350 -0.00129585
v 0.00138526 0.03989009 -0.00082071
v 0.00067919 0.03921495 -0.00050112
v 0.00086113 0.03902676 -0.00027768
v 0.00104425 0.03980305 -0.00090555
v 0.00022138 0.03816579 -0.00001324
v 0.00047728 0.03887856 -0.00036677
v 0.00022138 0.03876565 -0.00045445
v 0.00287664 0.02546052 -0.01213224
v 0.00289425 0.02591923 -0.01222133
v 0.00237188 0.02344687 -0.01177164
v 0.00215061 0.02363506 -0.01204174
v 0.00225802 0.02305167 -0.01164437
v 0.00022138 0.01840334 -0.01022742
v 0.00022138 0.01873503 -0.01070115
v 0.00022138 0.01883147 -0.01081570
v 0.00022138 0.01895850 -0.01094862
v 0.00022138 0.01920550 -0.01118478
v 0.00022138 0.01936547 -0.01131347
v 0.00022138 0.01947603 -0.01139831
v 0.00022138 0.01981007 -0.01164295
v 0.00022138 0.01988299 -0.01169104
v 0.00022138 0.01796815 -0.00927006
v 0.00237071 0.02588630 -0.01247304
v 0.00188826 0.02642264 -0.01274738
v 0.00302631 0.02793053 -0.01249284
v 0.00239125 0.02843394 -0.01279122
v 0.00289425 0.02994182 -0.01270920
v 0.00321647 0.02994182 -0.01257203
v 0.00324875 0.03044288 -0.01258900
v 0.00327458 0.03094629 -0.01260597
v 0.00330627 0.03144971 -0.01261870
v 0.00333268 0.03195312 -0.01262718
v 0.00360502 0.03245653 -0.01251688
v 0.00361500 0.03295994 -0.01252395
v 0.00466149 0.03272000 -0.01204174
v 0.00441674 0.03744831 -0.01167407
v 0.00425357 0.03798936 -0.01161750
v 0.00459340 0.03759180 -0.01146902
v 0.00472840 0.03798936 -0.01112256
v 0.00468966 0.03698253 -0.01156942
v 0.00435570 0.03694254 -0.01184517
v 0.00466912 0.03827400 -0.01104903
v 0.00475716 0.03845984 -0.01076620
v 0.00422657 0.03597571 -0.01208699
v 0.00418725 0.03647912 -0.01205871
v 0.00443904 0.03647912 -0.01185932
v 0.00458401 0.03860804 -0.01092600
v 0.00442202 0.03901500 -0.01079731
v 0.00459575 0.03914673 -0.01042540
v 0.00441322 0.03950665 -0.01028540
v 0.00423068 0.03982893 -0.01014399
v 0.00457638 0.03964544 -0.00977208
v 0.00432518 0.03993243 -0.00977208
v 0.00442848 0.04002653 -0.00932521
v 0.00454704 0.04013239 -0.00876522
v 0.00429583 0.04037939 -0.00876522
v 0.00354456 0.04070872 -0.00273118
v 0.00318536 0.04077224 -0.00244270
v 0.00289425 0.04070637 -0.00207786
v 0.00405402 0.04069696 -0.00826321
v 0.00411388 0.04072989 -0.00786019
v 0.00392783 0.04085692 -0.00771878
v 0.00389966 0.04092514 -0.00725636
v 0.00417375 0.04077224 -0.00725636
v 0.00419840 0.04078870 -0.00675435
v 0.00389966 0.04096043 -0.00675435
v 0.00389966 0.04097925 -0.00625092
v 0.00389966 0.04097925 -0.00574891
v 0.00389966 0.04096043 -0.00524690
v 0.00344303 0.04117685 -0.00524690
v 0.00335557 0.04117214 -0.00475054
v 0.00339666 0.04110628 -0.00424004
v 0.00339666 0.04102630 -0.00373803
v 0.00344127 0.04088280 -0.00319360
v 0.00329336 0.04081693 -0.00273118
v 0.00263365 0.04075342 -0.00198170
v 0.00243645 0.04066403 -0.00173140
v 0.00188826 0.04039821 -0.00126898
v 0.00148386 0.04032999 -0.00135383
v 0.00229852 0.04079106 -0.00190251
v 0.00134417 0.04015826 -0.00120110
v 0.00049900 0.03936080 -0.00083626
v 0.00032057 0.03904793 -0.00065808
v 0.00022138 0.03887150 -0.00056051
v 0.00070912 0.03969484 -0.00106252
v 0.00114873 0.04024530 -0.00149241
v 0.00239125 0.02541582 -0.01236133
v 0.00115929 0.02360448 -0.01255223
v 0.00022138 0.02025467 -0.01192578
v 0.00022138 0.02049461 -0.01204881
v 0.00022138 0.02061223 -0.01210679
v 0.00022138 0.02088982 -0.01221709
v 0.00022138 0.02100979 -0.01226234
v 0.00022138 0.02134383 -0.01238537
v 0.00022138 0.02154378 -0.01245607
v 0.00022138 0.02189664 -0.01256638
v 0.00065043 0.02261177 -0.01254941
v 0.00022138 0.01992769 -0.01171932
v 0.00138526 0.02491476 -0.01270779
v 0.00138526 0.02541582 -0.01279688
v 0.00088285 0.02390794 -0.01273607
v 0.00138526 0.02591923 -0.01287041
v 0.00188826 0.02692606 -0.01281102
v 0.00239125 0.02793053 -0.01273748
v 0.00188826 0.02793053 -0.01291849
v 0.00188826 0.02843394 -0.01295526
v 0.00239125 0.02893735 -0.01282374
v 0.00289425 0.03044288 -0.01274172
v 0.00289425 0.03094629 -0.01276718
v 0.00289425 0.03144971 -0.01278273
v 0.00289425 0.03195312 -0.01279546
v 0.00335381 0.03245653 -0.01262860
v 0.00336320 0.03295994 -0.01262577
v 0.00361382 0.03346100 -0.01252395
v 0.00360267 0.03396441 -0.01251971
v 0.00357861 0.03446783 -0.01251264
v 0.00389966 0.03547465 -0.01228779
v 0.00415614 0.03674729 -0.01203749
v 0.00408278 0.03708369 -0.01200497
v 0.00398006 0.03748595 -0.01195406
v 0.00418079 0.03828576 -0.01155528
v 0.00385446 0.03794466 -0.01187063
v 0.00450536 0.03798936 -0.01137427
v 0.00438211 0.03844807 -0.01125407
v 0.00424829 0.03888091 -0.01112539
v 0.00389966 0.03597571 -0.01225385
v 0.00389966 0.03647912 -0.01219163
v 0.00412386 0.03921731 -0.01100519
v 0.00426003 0.03937727 -0.01066863
v 0.00411330 0.03971366 -0.01048055
v 0.00390670 0.04000300 -0.01027833
v 0.00406047 0.04018414 -0.00977208
v 0.00414675 0.04024765 -0.00951046
v 0.00421836 0.04030882 -0.00917532
v 0.00389496 0.04064991 -0.00879351
v 0.00289425 0.04097454 -0.00273118
v 0.00289425 0.04082869 -0.00232957
v 0.00372358 0.04079106 -0.00864361
v 0.00380223 0.04083810 -0.00826321
v 0.00339666 0.04110628 -0.00775979
v 0.00342190 0.04117685 -0.00675435
v 0.00346416 0.04118626 -0.00625092
v 0.00347531 0.04118626 -0.00574891
v 0.00322352 0.04128741 -0.00574891
v 0.00319241 0.04127565 -0.00524690
v 0.00316130 0.04126389 -0.00492306
v 0.00312609 0.04124977 -0.00458792
v 0.00308500 0.04123566 -0.00424004
v 0.00297994 0.04119567 -0.00373803
v 0.00284847 0.04113686 -0.00327703
v 0.00243645 0.04088515 -0.00218109
v 0.00202149 0.04079106 -0.00190251
v 0.00186771 0.04066167 -0.00173140
v 0.00168577 0.04073930 -0.00202978
v 0.00134417 0.04042643 -0.00168615
v 0.00239125 0.04109216 -0.00273118
v 0.00022138 0.03924083 -0.00099181
v 0.00058176 0.03978894 -0.00139767
v 0.00022138 0.03929493 -0.00107525
v 0.00087933 0.04013474 -0.00168615
v 0.00104425 0.04031587 -0.00182756
v 0.00089341 0.02342334 -0.01262860
v 0.00022138 0.02194369 -0.01258051
v 0.00038572 0.02242593 -0.01262294
v 0.00037985 0.02290111 -0.01273607
v 0.00088285 0.02441135 -0.01282374
v 0.00088285 0.02491476 -0.01289869
v 0.00037985 0.02340452 -0.01283647
v 0.00084763 0.02543229 -0.01297647
v 0.00096854 0.02591923 -0.01300051
v 0.00138526 0.02642264 -0.01292697
v 0.00135180 0.02692370 -0.01298495
v 0.00146802 0.02742947 -0.01299768
v 0.00153962 0.02793053 -0.01301748
v 0.00165701 0.02910202 -0.01304576
v 0.00239125 0.03044288 -0.01291566
v 0.00239125 0.03094629 -0.01292839
v 0.00289425 0.03245653 -0.01279688
v 0.00336262 0.03346100 -0.01262011
v 0.00335147 0.03396441 -0.01261163
v 0.00332740 0.03446783 -0.01259890
v 0.00351698 0.03497124 -0.01249567
v 0.00390905 0.03694254 -0.01210537
v 0.00372886 0.03748595 -0.01206719
v 0.00365608 0.03774706 -0.01203749
v 0.00388616 0.03846924 -0.01163447
v 0.00404404 0.03862215 -0.01146053
v 0.00339666 0.03597571 -0.01242920
v 0.00339666 0.03647912 -0.01236416
v 0.00378873 0.03935845 -0.01112115
v 0.00395072 0.03953723 -0.01082277
v 0.00391668 0.03900794 -0.01129084
v 0.00377757 0.03984304 -0.01064176
v 0.00370010 0.04028529 -0.01007611
v 0.00380927 0.04035822 -0.00977208
v 0.00394720 0.04044526 -0.00931249
v 0.00353635 0.04070402 -0.00926865
v 0.00362556 0.04074401 -0.00898017
v 0.00265009 0.04126154 -0.00347359
v 0.00328514 0.04081693 -0.00926865
v 0.00343364 0.04087809 -0.00879351
v 0.00339666 0.04102394 -0.00826321
v 0.00297877 0.04119332 -0.00826321
v 0.00307972 0.04123331 -0.00775979
v 0.00334736 0.04117214 -0.00721111
v 0.00292888 0.04133211 -0.00721111
v 0.00289425 0.04137445 -0.00675435
v 0.00321354 0.04128271 -0.00625092
v 0.00289425 0.04140033 -0.00625092
v 0.00289425 0.04140738 -0.00574891
v 0.00289425 0.04138621 -0.00524690
v 0.00293299 0.04133681 -0.00475054
v 0.00283380 0.04132740 -0.00424004
v 0.00272815 0.04128741 -0.00373803
v 0.00186771 0.04085928 -0.00220937
v 0.00139641 0.04064756 -0.00220937
v 0.00188826 0.04101689 -0.00273118
v 0.00157131 0.04079106 -0.00236492
v 0.00239125 0.04120978 -0.00320067
v 0.00212420 0.04126389 -0.00345238
v 0.00049900 0.03986186 -0.00172574
v 0.00024779 0.03964309 -0.00172574
v 0.00022138 0.03959604 -0.00167342
v 0.00022138 0.03940785 -0.00128312
v 0.00095211 0.04038174 -0.00222775
v 0.00070031 0.04020061 -0.00222775
v 0.00022138 0.02241652 -0.01268799
v 0.00022138 0.02290111 -0.01279263
v 0.00037985 0.02390794 -0.01292132
v 0.00036107 0.02438547 -0.01299061
v 0.00022138 0.02339511 -0.01288597
v 0.00051132 0.02491476 -0.01301182
v 0.00058586 0.02527232 -0.01303021
v 0.00065688 0.02560872 -0.01304717
v 0.00071734 0.02591923 -0.01306132
v 0.00105482 0.02642264 -0.01302172
v 0.00121681 0.02742947 -0.01306132
v 0.00128783 0.02793053 -0.01307687
v 0.00088285 0.02793053 -0.01314899
v 0.00138526 0.02944076 -0.01310374
v 0.00168048 0.02944076 -0.01305142
v 0.00199918 0.03044288 -0.01301465
v 0.00199155 0.03094629 -0.01301748
v 0.00239125 0.03195312 -0.01292697
v 0.00239125 0.03245653 -0.01292273
v 0.00289425 0.03295994 -0.01278556
v 0.00289425 0.03446783 -0.01270920
v 0.00326519 0.03497124 -0.01257486
v 0.00289425 0.03346100 -0.01276435
v 0.00289425 0.03396441 -0.01273890
v 0.00339666 0.03698253 -0.01227224
v 0.00339666 0.03784821 -0.01206719
v 0.00339666 0.03809992 -0.01198941
v 0.00339666 0.03849042 -0.01182679
v 0.00339666 0.03748595 -0.01215911
v 0.00370890 0.03879858 -0.01156518
v 0.00310965 0.03567225 -0.01253102
v 0.00319476 0.03533586 -0.01255223
v 0.00289425 0.03698253 -0.01237264
v 0.00299344 0.03597571 -0.01251405
v 0.00284436 0.03642972 -0.01247587
v 0.00339666 0.03914909 -0.01146760
v 0.00338257 0.03951606 -0.01119327
v 0.00354046 0.03969484 -0.01097691
v 0.00316541 0.04026177 -0.01053853
v 0.00350054 0.04017708 -0.01041126
v 0.00335851 0.04034175 -0.01025570
v 0.00337142 0.04060287 -0.00974521
v 0.00318713 0.04077224 -0.00955854
v 0.00239125 0.04138621 -0.00424004
v 0.00239125 0.04131799 -0.00373803
v 0.00239125 0.04126389 -0.00345238
v 0.00289425 0.04097219 -0.00926865
v 0.00284788 0.04113450 -0.00872139
v 0.00264950 0.04126154 -0.00852482
v 0.00272756 0.04128741 -0.00826321
v 0.00282793 0.04132740 -0.00775979
v 0.00239125 0.04142855 -0.00725636
v 0.00239125 0.04145443 -0.00675435
v 0.00239125 0.04146854 -0.00625092
v 0.00239125 0.04146854 -0.00574891
v 0.00239125 0.04145678 -0.00524690
v 0.00239125 0.04142855 -0.00474347
v 0.00124146 0.04069226 -0.00273118
v 0.00192934 0.04114156 -0.00326430
v 0.00149325 0.04083575 -0.00273118
v 0.00207549 0.04128741 -0.00373803
v 0.00182369 0.04116979 -0.00373803
v 0.00022138 0.03973483 -0.00204675
v 0.00022138 0.03966426 -0.00185160
v 0.00022138 0.03961721 -0.00172574
v 0.00064573 0.04024060 -0.00254734
v 0.00035344 0.03991361 -0.00225745
v 0.00022138 0.03976777 -0.00215139
v 0.00022138 0.02390794 -0.01296657
v 0.00022138 0.02428197 -0.01301606
v 0.00022138 0.02450074 -0.01304010
v 0.00022138 0.02472892 -0.01306414
v 0.00026012 0.02491476 -0.01307263
v 0.00040274 0.02543229 -0.01308536
v 0.00080303 0.02642264 -0.01308111
v 0.00091630 0.02692370 -0.01308960
v 0.00088285 0.02742947 -0.01312637
v 0.00088285 0.02843394 -0.01315748
v 0.00138526 0.02994182 -0.01311364
v 0.00037985 0.02642264 -0.01315465
v 0.00037985 0.02692606 -0.01317727
v 0.00037985 0.02742947 -0.01319424
v 0.00037985 0.02793053 -0.01320697
v 0.00171629 0.02994182 -0.01305849
v 0.00174798 0.03044288 -0.01305990
v 0.00174035 0.03094629 -0.01305707
v 0.00188826 0.03245653 -0.01300334
v 0.00239125 0.03295994 -0.01289869
v 0.00239125 0.03446783 -0.01279122
v 0.00289425 0.03497124 -0.01266253
v 0.00239125 0.03346100 -0.01286617
v 0.00239125 0.03396441 -0.01283081
v 0.00289425 0.03748595 -0.01225668
v 0.00307737 0.03821048 -0.01202618
v 0.00290364 0.03846219 -0.01195265
v 0.00291597 0.03903382 -0.01167124
v 0.00339666 0.03889738 -0.01162174
v 0.00292301 0.03549112 -0.01259041
v 0.00239125 0.03698253 -0.01243345
v 0.00239125 0.03748595 -0.01232173
v 0.00264363 0.03622977 -0.01253809
v 0.00239125 0.03656381 -0.01250981
v 0.00274165 0.03597571 -0.01255648
v 0.00309791 0.03922907 -0.01152134
v 0.00320591 0.03977717 -0.01105468
v 0.00239125 0.04017943 -0.01095145
v 0.00289425 0.04030882 -0.01059368
v 0.00243116 0.04066167 -0.01026843
v 0.00289425 0.04051112 -0.01027409
v 0.00289425 0.04070402 -0.00991914
v 0.00289425 0.04082634 -0.00966743
v 0.00239125 0.04108981 -0.00926865
v 0.00243116 0.04088280 -0.00981591
v 0.00239125 0.04126389 -0.00854604
v 0.00239125 0.04131564 -0.00826321
v 0.00239125 0.04138621 -0.00775979
v 0.00239125 0.04120743 -0.00879633
v 0.00207549 0.04128741 -0.00826321
v 0.00201386 0.04131564 -0.00775979
v 0.00198158 0.04133446 -0.00725636
v 0.00196690 0.04134622 -0.00675435
v 0.00196280 0.04135093 -0.00625092
v 0.00196221 0.04135093 -0.00574891
v 0.00196632 0.04134622 -0.00524690
v 0.00198158 0.04133446 -0.00474347
v 0.00201444 0.04131564 -0.00424004
v 0.00142634 0.04088280 -0.00323461
v 0.00117455 0.04072989 -0.00323461
v 0.00084118 0.04041232 -0.00272128
v 0.00176265 0.04119332 -0.00424004
v 0.00061169 0.04026883 -0.00288391
v 0.00041859 0.04007122 -0.00272128
v 0.00022138 0.03986657 -0.00254027
v 0.00022138 0.03982657 -0.00236210
v 0.00022138 0.02491476 -0.01307970
v 0.00037985 0.02591923 -0.01312354
v 0.00088285 0.02944076 -0.01316737
v 0.00088285 0.02994182 -0.01317162
v 0.00138526 0.03044288 -0.01311222
v 0.00022138 0.02642264 -0.01317020
v 0.00022138 0.02591923 -0.01314475
v 0.00022138 0.02692606 -0.01319141
v 0.00022138 0.02742947 -0.01320838
v 0.00022138 0.02793053 -0.01321828
v 0.00037985 0.02843394 -0.01321121
v 0.00138526 0.03094629 -0.01310091
v 0.00163470 0.03219777 -0.01304010
v 0.00155958 0.03245653 -0.01303728
v 0.00188826 0.03295994 -0.01297364
v 0.00188826 0.03446783 -0.01284496
v 0.00239125 0.03497124 -0.01273890
v 0.00188826 0.03346100 -0.01293263
v 0.00188826 0.03396441 -0.01289021
v 0.00290364 0.03802229 -0.01210396
v 0.00165407 0.03874918 -0.01203749
v 0.00239125 0.03899383 -0.01179285
v 0.00239125 0.03935610 -0.01159487
v 0.00276278 0.03929023 -0.01155811
v 0.00198921 0.03667437 -0.01252961
v 0.00184834 0.03693549 -0.01249001
v 0.00188826 0.03748595 -0.01236840
v 0.00239125 0.03798936 -0.01217608
v 0.00239125 0.03631210 -0.01255082
v 0.00239125 0.03547465 -0.01267102
v 0.00239125 0.03597571 -0.01260031
v 0.00239125 0.03960780 -0.01143791
v 0.00291597 0.03947372 -0.01138700
v 0.00289425 0.03983128 -0.01110842
v 0.00188826 0.04021707 -0.01098398
v 0.00239125 0.04038880 -0.01069974
v 0.00239125 0.03992773 -0.01118619
v 0.00188826 0.03996537 -0.01122579
v 0.00228971 0.04079106 -0.01009591
v 0.00262485 0.04075107 -0.01001389
v 0.00201973 0.04079106 -0.01009591
v 0.00188826 0.04101924 -0.00926865
v 0.00212479 0.04126389 -0.00854462
v 0.00192993 0.04114392 -0.00873411
v 0.00182428 0.04116979 -0.00826321
v 0.00176265 0.04119332 -0.00775979
v 0.00173037 0.04120508 -0.00725636
v 0.00171570 0.04121213 -0.00675435
v 0.00171100 0.04121449 -0.00625092
v 0.00171100 0.04121449 -0.00574891
v 0.00171511 0.04121213 -0.00524690
v 0.00173037 0.04120508 -0.00474347
v 0.00134241 0.04088986 -0.00373379
v 0.00114638 0.04074636 -0.00356410
v 0.00088285 0.04051583 -0.00323461
v 0.00138526 0.04095808 -0.00424004
v 0.00033407 0.04006887 -0.00323461
v 0.00022138 0.03989715 -0.00272835
v 0.00058528 0.04029000 -0.00323461
v 0.00022138 0.02542523 -0.01311364
v 0.00037985 0.02994182 -0.01320273
v 0.00088285 0.03044288 -0.01316455
v 0.00037985 0.02893735 -0.01321121
v 0.00037985 0.02944076 -0.01320697
v 0.00022138 0.02843394 -0.01322253
v 0.00088285 0.03094629 -0.01314758
v 0.00130778 0.03245653 -0.01305283
v 0.00120038 0.03275764 -0.01304435
v 0.00137528 0.03293877 -0.01302172
v 0.00088285 0.03144971 -0.01312637
v 0.00138526 0.03446783 -0.01288738
v 0.00188826 0.03497124 -0.01278698
v 0.00138526 0.03346100 -0.01297788
v 0.00160066 0.03874918 -0.01203749
v 0.00188826 0.03941726 -0.01164013
v 0.00184834 0.03894678 -0.01190740
v 0.00138526 0.03798936 -0.01227224
v 0.00188826 0.03597571 -0.01264839
v 0.00184834 0.03649559 -0.01256920
v 0.00165407 0.03673553 -0.01253951
v 0.00138526 0.03703429 -0.01250415
v 0.00138526 0.03748595 -0.01240941
v 0.00188826 0.03547465 -0.01271769
v 0.00188826 0.03966896 -0.01147750
v 0.00148093 0.04032999 -0.01064600
v 0.00188826 0.04039821 -0.01073226
v 0.00138526 0.03964544 -0.01143084
v 0.00138526 0.03989009 -0.01117912
v 0.00186654 0.04066167 -0.01026843
v 0.00168400 0.04073930 -0.00997571
v 0.00186654 0.04085928 -0.00979329
v 0.00156838 0.04079341 -0.00964056
v 0.00149091 0.04083810 -0.00926865
v 0.00142400 0.04088515 -0.00876522
v 0.00134124 0.04089221 -0.00827170
v 0.00138526 0.04096043 -0.00775979
v 0.00138526 0.04097689 -0.00725636
v 0.00138526 0.04098630 -0.00675435
v 0.00138526 0.04099572 -0.00625092
v 0.00138526 0.04099572 -0.00574891
v 0.00138526 0.04098630 -0.00524690
v 0.00138526 0.04097454 -0.00474347
v 0.00112114 0.04076518 -0.00389924
v 0.00030649 0.04009240 -0.00373803
v 0.00022138 0.03996772 -0.00323461
v 0.00055828 0.04031352 -0.00373803
v 0.00022138 0.02994182 -0.01320697
v 0.00037985 0.03044288 -0.01319424
v 0.00022138 0.02893735 -0.01321970
v 0.00022138 0.02944076 -0.01321404
v 0.00037985 0.03094629 -0.01317586
v 0.00088285 0.03195312 -0.01310232
v 0.00066510 0.03323517 -0.01304293
v 0.00037985 0.03195312 -0.01312637
v 0.00085292 0.03342572 -0.01301606
v 0.00088285 0.03446783 -0.01291708
v 0.00088285 0.03497124 -0.01286051
v 0.00138526 0.03497124 -0.01282940
v 0.00088285 0.03396441 -0.01296516
v 0.00126553 0.03872095 -0.01202618
v 0.00141402 0.03894678 -0.01191588
v 0.00088285 0.03748595 -0.01242213
v 0.00088285 0.03798936 -0.01225810
v 0.00138526 0.03939374 -0.01164154
v 0.00088285 0.03597571 -0.01270779
v 0.00138526 0.03547465 -0.01275445
v 0.00088285 0.03547465 -0.01278556
v 0.00088285 0.03647912 -0.01262718
v 0.00088285 0.03709780 -0.01251264
v 0.00088285 0.03684609 -0.01256072
v 0.00134241 0.04042879 -0.01031651
v 0.00134241 0.04016062 -0.01079873
v 0.00114579 0.04024530 -0.01051166
v 0.00101256 0.03931846 -0.01159063
v 0.00104308 0.03980540 -0.01109711
v 0.00139465 0.04064756 -0.00979329
v 0.00123911 0.04069226 -0.00926865
v 0.00117279 0.04072989 -0.00876522
v 0.00114403 0.04074871 -0.00844563
v 0.00112114 0.04076518 -0.00811049
v 0.00110999 0.04077224 -0.00775979
v 0.00109180 0.04078635 -0.00625092
v 0.00109180 0.04078635 -0.00574891
v 0.00111292 0.04076988 -0.00424004
v 0.00086172 0.04057934 -0.00424004
v 0.00054126 0.04032763 -0.00424004
v 0.00028947 0.04010416 -0.00424004
v 0.00022138 0.04003594 -0.00410712
v 0.00022138 0.04001477 -0.00373803
v 0.00022138 0.03044288 -0.01319849
v 0.00022138 0.03060285 -0.01319424
v 0.00022138 0.03094629 -0.01318293
v 0.00037985 0.03144971 -0.01315182
v 0.00022138 0.03195312 -0.01313061
v 0.00022138 0.03245653 -0.01309808
v 0.00022138 0.03263766 -0.01308536
v 0.00055358 0.03323517 -0.01304293
v 0.00022138 0.03396441 -0.01298071
v 0.00037985 0.03446783 -0.01293546
v 0.00022138 0.03144971 -0.01315889
v 0.00037985 0.03497124 -0.01287748
v 0.00088285 0.03863391 -0.01197669
v 0.00088285 0.03838221 -0.01209689
v 0.00037985 0.03681787 -0.01256072
v 0.00022138 0.03678258 -0.01255223
v 0.00037985 0.03706957 -0.01248577
v 0.00037985 0.03748595 -0.01234719
v 0.00037985 0.03547465 -0.01280253
v 0.00037985 0.03597571 -0.01272193
v 0.00037985 0.03647912 -0.01263142
v 0.00104367 0.04031587 -0.01017651
v 0.00070736 0.03969484 -0.01094014
v 0.00057941 0.03979129 -0.01060499
v 0.00087874 0.04013944 -0.01031651
v 0.00085996 0.03902676 -0.01172215
v 0.00067742 0.03921731 -0.01150013
v 0.00095152 0.04038174 -0.00977208
v 0.00064573 0.04024060 -0.00945249
v 0.00084118 0.04041232 -0.00927855
v 0.00061169 0.04026883 -0.00911734
v 0.00088285 0.04051583 -0.00876522
v 0.00058586 0.04029000 -0.00876522
v 0.00092511 0.04059816 -0.00827170
v 0.00055887 0.04031117 -0.00826321
v 0.00085820 0.04057934 -0.00775979
v 0.00085233 0.04058640 -0.00725636
v 0.00084000 0.04059110 -0.00625092
v 0.00084000 0.04059110 -0.00574891
v 0.00085644 0.04058640 -0.00474347
v 0.00053304 0.04033469 -0.00474347
v 0.00028125 0.04011357 -0.00474347
v 0.00022138 0.04004300 -0.00424004
v 0.00022138 0.03299523 -0.01305990
v 0.00022138 0.03344218 -0.01302455
v 0.00022138 0.03359744 -0.01301182
v 0.00022138 0.03446783 -0.01293404
v 0.00022138 0.03497124 -0.01287465
v 0.00056650 0.03828341 -0.01205871
v 0.00023136 0.03816814 -0.01198659
v 0.00039100 0.03799641 -0.01213931
v 0.00022138 0.03663673 -0.01258334
v 0.00022138 0.03748359 -0.01228779
v 0.00022138 0.03764826 -0.01222274
v 0.00022138 0.03791643 -0.01211244
v 0.00022138 0.03547465 -0.01279688
v 0.00022138 0.03597571 -0.01270779
v 0.00069973 0.04020061 -0.00977208
v 0.00049665 0.03936080 -0.01116498
v 0.00022138 0.03929964 -0.01092458
v 0.00049724 0.03986186 -0.01027409
v 0.00022138 0.03940785 -0.01071812
v 0.00024545 0.03964309 -0.01027409
v 0.00047904 0.03888091 -0.01163164
v 0.00022138 0.03886915 -0.01143932
v 0.00031999 0.03904793 -0.01134175
v 0.00035344 0.03991597 -0.00974379
v 0.00022138 0.03982893 -0.00963915
v 0.00022138 0.03989715 -0.00927289
v 0.00041859 0.04007122 -0.00927855
v 0.00033407 0.04006887 -0.00876522
v 0.00030766 0.04009004 -0.00826321
v 0.00054243 0.04032763 -0.00775979
v 0.00053480 0.04033469 -0.00725636
v 0.00053304 0.04033705 -0.00675435
v 0.00053187 0.04033940 -0.00625092
v 0.00053069 0.04033940 -0.00574891
v 0.00053069 0.04033705 -0.00524690
v 0.00027949 0.04011592 -0.00524690
v 0.00022138 0.04006417 -0.00524690
v 0.00022138 0.04005946 -0.00474347
v 0.00022138 0.03816343 -0.01198234
v 0.00022138 0.03817755 -0.01197386
v 0.00022138 0.03977012 -0.00984985
v 0.00022138 0.03915144 -0.01111690
v 0.00022138 0.03966426 -0.01015672
v 0.00022138 0.03961956 -0.01027409
v 0.00022138 0.03864567 -0.01162457
v 0.00022138 0.03996537 -0.00876522
v 0.00029064 0.04010181 -0.00775979
v 0.00022138 0.04001006 -0.00826321
v 0.00022138 0.04001947 -0.00811190
v 0.00022138 0.04004300 -0.00763676
v 0.00028360 0.04010886 -0.00725636
v 0.00022138 0.04005476 -0.00714606
v 0.00022138 0.04005946 -0.00675435
v 0.00028184 0.04011357 -0.00675435
v 0.00022138 0.04006417 -0.00625092
v 0.00027949 0.04011827 -0.00574891
v 0.00022138 0.04006652 -0.00564568
v 0.00022138 0.04003829 -0.00775979
v 0.00022138 0.04005241 -0.00725636
v 0.00022138 0.04006652 -0.00574891
f 1 2 3
f 1 3 4
f 1 4 10
f 1 10 20
f 1 20 37
f 1 37 45
f 1 45 47
f 1 47 70
f 1 70 75
f 1 75 105
f 1 105 139
f 1 139 133
f 1 133 167
f 1 167 166
f 1 166 131
f 1 131 165
f 1 165 172
f 1 172 169
f 1 169 168
f 1 168 171
f 1 171 200
f 1 200 233
f 1 233 273
f 1 273 318
f 1 318 321
f 1 321 366
f 1 366 426
f 1 426 474
f 1 474 528
f 1 528 594
f 1 594 596
f 1 596 673
f 1 673 746
f 1 746 748
f 1 748 813
f 1 813 812
f 1 812 880
f 1 880 879
f 1 879 878
f 1 878 883
f 1 883 949
f 1 949 948
f 1 948 1007
f 1 1007 1054
f 1 1054 1098
f 1 1098 1097
f 1 1097 1141
f 1 1141 1179
f 1 1179 1178
f 1 1178 1198
f 1 1198 1201
f 1 1201 1196
f 1 1196 1194
f 1 1194 1193
f 1 1193 1200
f 1 1200 1191
f 1 1191 1199
f 1 1199 1190
f 1 1190 1189
f 1 1189 1187
f 1 1187 1167
f 1 1167 1166
f 1 1166 1182
f 1 1182 1184
f 1 1184 1185
f 1 1185 1160
f 1 1160 1158
f 1 1158 1183
f 1 1183 1163
f 1 1163 1186
f 1 1186 1181
f 1 1181 1180
f 1 1180 1153
f 1 1153 1152
f 1 1152 1151
f 1 1151 1114
f 1 1114 1150
f 1 1150 1155
f 1 1155 1154
f 1 1154 1146
f 1 1146 1145
f 1 1145 1107
f 1 1107 1144
f 1 1144 1143
f 1 1143 1142
f 1 1142 1105
f 1 1105 1104
f 1 1104 1103
f 1 1103 1109
f 1 1109 1101
f 1 1101 1100
f 1 1100 1099
f 1 1099 1056
f 1 1056 1059
f 1 1059 1058
f 1 1058 1014
f 1 1014 959
f 1 959 958
f 1 958 957
f 1 957 955
f 1 955 956
f 1 956 1009
f 1 1009 950
f 1 950 887
f 1 887 886
f 1 886 885
f 1 885 884
f 1 884 820
f 1 820 817
f 1 817 816
f 1 816 752
f 1 752 685
f 1 685 684
f 1 684 683
f 1 683 682
f 1 682 681
f 1 681 680
f 1 680 679
f 1 679 678
f 1 678 687
f 1 687 610
f 1 610 609
f 1 609 608
f 1 608 607
f 1 607 606
f 1 606 605
f 1 605 604
f 1 604 603
f 1 603 602
f 1 602 543
f 1 543 611
f 1 611 541
f 1 541 540
f 1 540 539
f 1 539 538
f 1 538 537
f 1 537 536
f 1 536 483
f 1 483 482
f 1 482 481
f 1 481 480
f 1 480 432
f 1 432 431
f 1 431 378
f 1 378 377
f 1 377 376
f 1 376 375
f 1 375 374
f 1 374 373
f 1 373 372
f 1 372 334
f 1 334 333
f 1 333 332
f 1 332 331
f 1 331 330
f 1 330 329
f 1 329 328
f 1 328 327
f 1 327 326
f 1 326 325
f 1 325 292
f 1 292 291
f 1 291 290
f 1 290 289
f 1 289 288
f 1 288 256
f 1 256 255
f 1 255 252
f 1 252 251
f 1 251 250
f 1 250 249
f 1 249 248
f 1 248 247
f 1 247 279
f 1 279 278
f 1 278 277
f 1 277 239
f 1 239 238
f 1 238 206
f 1 206 205
f 1 205 176
f 1 176 145
f 1 145 144
f 1 144 111
f 1 111 80
f 1 80 54
f 1 54 52
f 1 52 51
f 1 51 30
f 1 30 17
f 1 17 11
f 1 11 5
f 1 5 2
f 2 6 7
f 2 7 3
f 2 5 8
f 2 8 12
f 2 12 6
f 3 7 9
f 3 9 10
f 3 10 4
f 5 11 8
f 6 12 13
f 6 13 7
f 7 13 14
f 7 14 15
f 7 15 16
f 7 16 9
f 8 11 17
f 8 17 18
f 8 18 19
f 8 19 12
f 9 16 10
f 10 16 20
f 12 19 21
f 12 21 13
f 13 21 22
f 13 22 23
f 13 23 14
f 14 23 24
f 14 24 25
f 14 25 26
f 14 26 15
f 15 27 16
f 15 26 28
f 15 28 29
f 15 29 46
f 15 46 27
f 16 27 37
f 16 37 20
f 17 30 31
f 17 31 18
f 18 31 19
f 19 31 32
f 19 32 33
f 19 33 34
f 19 34 35
f 19 35 36
f 19 36 21
f 21 38 22
f 21 36 38
f 22 39 40
f 22 40 23
f 22 38 39
f 23 40 24
f 24 40 41
f 24 41 25
f 25 41 42
f 25 42 43
f 25 43 44
f 25 44 26
f 26 44 28
f 27 45 37
f 27 46 47
f 27 47 45
f 28 44 43
f 28 43 48
f 28 48 29
f 29 48 49
f 29 49 50
f 29 50 46
f 30 51 31
f 31 51 52
f 31 52 32
f 32 53 33
f 32 52 54
f 32 54 55
f 32 55 53
f 33 53 34
f 34 53 56
f 34 56 57
f 34 57 58
f 34 58 59
f 34 59 60
f 34 60 35
f 35 60 36
f 36 60 38
f 38 61 62
f 38 62 39
f 38 60 61
f 39 62 63
f 39 63 64
f 39 64 40
f 40 64 65
f 40 65 66
f 40 66 67
f 40 67 41
f 41 67 42
f 42 67 43
f 43 67 68
f 43 68 69
f 43 69 48
f 46 50 47
f 47 50 70
f 48 69 71
f 48 71 72
f 48 72 73
f 48 73 49
f 49 73 50
f 50 73 103
f 50 103 74
f 50 74 75
f 50 75 70
f 53 76 77
f 53 77 56
f 53 55 78
f 53 78 79
f 53 79 76
f 54 80 55
f 55 80 78
f 56 77 81
f 56 81 57
f 57 81 82
f 57 82 83
f 57 83 58
f 58 83 59
f 59 83 84
f 59 84 60
f 60 84 61
f 61 63 62
f 61 84 63
f 63 84 85
f 63 85 86
f 63 86 87
f 63 87 88
f 63 88 64
f 64 88 89
f 64 89 90
f 64 90 65
f 65 90 66
f 66 90 67
f 67 90 91
f 67 91 92
f 67 92 68
f 68 92 93
f 68 93 94
f 68 94 95
f 68 95 69
f 69 95 96
f 69 96 97
f 69 97 98
f 69 98 71
f 71 99 72
f 71 98 100
f 71 100 101
f 71 101 102
f 71 102 99
f 72 103 73
f 72 99 104
f 72 104 103
f 74 105 75
f 74 103 106
f 74 106 105
f 76 107 81
f 76 81 77
f 76 79 108
f 76 108 107
f 78 80 109
f 78 109 79
f 79 109 110
f 79 110 108
f 80 111 109
f 81 107 82
f 82 107 112
f 82 112 113
f 82 113 114
f 82 114 115
f 82 115 83
f 83 115 116
f 83 116 84
f 84 116 117
f 84 117 85
f 85 117 86
f 86 117 116
f 86 116 118
f 86 118 119
f 86 119 120
f 86 120 87
f 87 120 121
f 87 121 122
f 87 122 88
f 88 122 123
f 88 123 89
f 89 123 90
f 90 123 124
f 90 124 125
f 90 125 91
f 91 125 126
f 91 126 127
f 91 127 92
f 92 127 93
f 93 127 94
f 94 97 96
f 94 96 95
f 94 127 128
f 94 128 129
f 94 129 97
f 97 100 98
f 97 129 130
f 97 130 100
f 99 131 132
f 99 132 133
f 99 133 106
f 99 106 104
f 99 102 134
f 99 134 135
f 99 135 131
f 100 130 136
f 100 136 137
f 100 137 101
f 101 137 102
f 102 137 138
f 102 138 134
f 103 104 106
f 105 106 139
f 106 133 139
f 107 108 112
f 108 110 140
f 108 140 141
f 108 141 142
f 108 142 143
f 108 143 112
f 109 140 110
f 109 111 144
f 109 144 145
f 109 145 140
f 112 143 146
f 112 146 113
f 113 146 114
f 114 146 147
f 114 147 115
f 115 147 148
f 115 148 118
f 115 118 116
f 118 149 119
f 118 148 149
f 119 149 150
f 119 150 120
f 120 150 121
f 121 150 151
f 121 151 122
f 122 151 152
f 122 152 123
f 123 152 153
f 123 153 124
f 124 153 154
f 124 154 155
f 124 155 125
f 125 155 156
f 125 156 126
f 126 156 127
f 127 156 157
f 127 157 128
f 128 157 158
f 128 158 159
f 128 159 129
f 129 159 160
f 129 160 161
f 129 161 162
f 129 162 130
f 130 162 163
f 130 163 164
f 130 164 173
f 130 173 136
f 131 166 132
f 131 135 165
f 132 167 133
f 132 166 167
f 134 168 169
f 134 169 135
f 134 138 170
f 134 170 171
f 134 171 168
f 135 169 172
f 135 172 165
f 136 173 174
f 136 174 137
f 137 174 138
f 138 174 175
f 138 175 170
f 140 145 141
f 141 145 176
f 141 176 177
f 141 177 142
f 142 177 178
f 142 178 143
f 143 178 179
f 143 179 180
f 143 180 146
f 146 180 147
f 147 180 148
f 148 180 181
f 148 181 182
f 148 182 183
f 148 183 184
f 148 184 185
f 148 185 150
f 148 150 149
f 150 185 151
f 151 186 187
f 151 187 188
f 151 188 225
f 151 225 189
f 151 189 153
f 151 153 152
f 151 185 186
f 153 189 154
f 154 189 155
f 155 189 156
f 156 189 190
f 156 190 191
f 156 191 192
f 156 192 157
f 157 192 193
f 157 193 158
f 158 193 159
f 159 193 160
f 160 193 194
f 160 194 195
f 160 195 196
f 160 196 162
f 160 162 161
f 162 196 163
f 163 197 164
f 163 196 195
f 163 195 198
f 163 198 197
f 164 197 199
f 164 199 173
f 170 200 171
f 170 175 201
f 170 201 200
f 173 199 174
f 174 199 202
f 174 202 203
f 174 203 204
f 174 204 175
f 175 204 201
f 176 205 177
f 177 205 206
f 177 206 207
f 177 207 178
f 178 207 208
f 178 208 179
f 179 181 180
f 179 208 209
f 179 209 181
f 181 210 183
f 181 183 182
f 181 209 211
f 181 211 210
f 183 212 213
f 183 213 214
f 183 214 215
f 183 215 184
f 183 210 216
f 183 216 217
f 183 217 218
f 183 218 219
f 183 219 212
f 184 215 214
f 184 214 220
f 184 220 221
f 184 221 185
f 185 221 220
f 185 220 186
f 186 220 187
f 187 222 223
f 187 223 188
f 187 220 222
f 188 223 224
f 188 224 225
f 189 225 226
f 189 226 191
f 189 191 190
f 191 226 192
f 192 226 227
f 192 227 228
f 192 228 193
f 193 228 194
f 194 228 229
f 194 229 230
f 194 230 195
f 195 230 198
f 197 198 231
f 197 231 199
f 198 230 232
f 198 232 231
f 199 231 202
f 200 201 233
f 201 204 234
f 201 234 235
f 201 235 233
f 202 231 236
f 202 236 237
f 202 237 203
f 203 237 204
f 204 237 234
f 206 238 207
f 207 238 239
f 207 239 240
f 207 240 209
f 207 209 208
f 209 240 241
f 209 241 211
f 210 211 216
f 211 241 242
f 211 242 217
f 211 217 216
f 212 219 213
f 213 243 244
f 213 244 245
f 213 245 214
f 213 219 246
f 213 246 243
f 214 245 220
f 217 242 247
f 217 247 248
f 217 248 249
f 217 249 250
f 217 250 251
f 217 251 252
f 217 252 218
f 218 253 254
f 218 254 219
f 218 252 255
f 218 255 256
f 218 256 253
f 219 254 246
f 220 245 244
f 220 244 257
f 220 257 258
f 220 258 222
f 222 258 223
f 223 259 260
f 223 260 224
f 223 258 259
f 224 260 225
f 225 260 261
f 225 261 226
f 226 261 227
f 227 262 263
f 227 263 264
f 227 264 228
f 227 261 262
f 228 264 265
f 228 265 229
f 229 266 267
f 229 267 268
f 229 268 230
f 229 265 266
f 230 268 269
f 230 269 270
f 230 270 232
f 231 232 271
f 231 271 236
f 232 270 272
f 232 272 271
f 233 235 273
f 234 274 275
f 234 275 235
f 234 237 236
f 234 236 276
f 234 276 274
f 235 275 273
f 236 271 276
f 239 277 240
f 240 277 241
f 241 277 278
f 241 278 242
f 242 278 279
f 242 279 247
f 243 246 280
f 243 280 281
f 243 281 244
f 244 281 282
f 244 282 257
f 246 254 283
f 246 283 284
f 246 284 285
f 246 285 286
f 246 286 287
f 246 287 280
f 253 256 288
f 253 288 289
f 253 289 254
f 254 289 290
f 254 290 291
f 254 291 292
f 254 292 283
f 257 282 293
f 257 293 294
f 257 294 295
f 257 295 258
f 258 295 296
f 258 296 259
f 259 296 297
f 259 297 260
f 260 298 261
f 260 297 299
f 260 299 300
f 260 300 301
f 260 301 302
f 260 302 303
f 260 303 304
f 260 304 298
f 261 298 304
f 261 304 262
f 262 304 263
f 263 304 305
f 263 305 264
f 264 305 306
f 264 306 265
f 265 306 266
f 266 307 267
f 266 306 307
f 267 308 309
f 267 309 310
f 267 310 311
f 267 311 312
f 267 312 268
f 267 307 308
f 268 312 269
f 269 312 313
f 269 313 314
f 269 314 315
f 269 315 270
f 270 315 316
f 270 316 272
f 271 272 317
f 271 317 276
f 272 316 317
f 273 275 318
f 274 276 319
f 274 319 275
f 275 319 320
f 275 320 321
f 275 321 318
f 276 317 319
f 280 322 323
f 280 323 281
f 280 287 322
f 281 323 282
f 282 323 324
f 282 324 293
f 283 292 325
f 283 325 284
f 284 325 326
f 284 326 327
f 284 327 328
f 284 328 329
f 284 329 330
f 284 330 331
f 284 331 332
f 284 332 285
f 285 332 333
f 285 333 334
f 285 334 335
f 285 335 336
f 285 336 286
f 286 337 287
f 286 336 337
f 287 337 322
f 293 324 338
f 293 338 339
f 293 339 340
f 293 340 341
f 293 341 342
f 293 342 295
f 293 295 294
f 295 342 296
f 296 342 343
f 296 343 344
f 296 344 297
f 297 344 345
f 297 345 299
f 299 345 346
f 299 346 347
f 299 347 348
f 299 348 349
f 299 349 300
f 300 349 301
f 301 349 350
f 301 350 351
f 301 351 302
f 302 351 352
f 302 352 353
f 302 353 303
f 303 353 304
f 304 353 354
f 304 354 305
f 305 307 306
f 305 354 307
f 307 354 308
f 308 354 355
f 308 355 309
f 309 355 356
f 309 356 357
f 309 357 310
f 310 357 358
f 310 358 359
f 310 359 360
f 310 360 313
f 310 313 311
f 311 313 312
f 313 315 314
f 313 360 361
f 313 361 362
f 313 362 363
f 313 363 315
f 315 363 316
f 316 364 317
f 316 363 364
f 317 365 319
f 317 364 365
f 319 365 320
f 320 366 321
f 320 365 367
f 320 367 366
f 322 368 369
f 322 369 370
f 322 370 323
f 322 337 371
f 322 371 368
f 323 370 324
f 324 370 369
f 324 369 338
f 334 372 335
f 335 372 373
f 335 373 336
f 336 373 374
f 336 374 375
f 336 375 376
f 336 376 377
f 336 377 378
f 336 378 379
f 336 379 337
f 337 379 380
f 337 380 381
f 337 381 382
f 337 382 371
f 338 369 383
f 338 383 384
f 338 384 339
f 339 384 385
f 339 385 386
f 339 386 387
f 339 387 340
f 340 387 388
f 340 388 389
f 340 389 390
f 340 390 391
f 340 391 392
f 340 392 393
f 340 393 341
f 341 393 342
f 342 393 394
f 342 394 395
f 342 395 343
f 343 395 344
f 344 395 345
f 345 395 396
f 345 396 397
f 345 397 398
f 345 398 347
f 345 347 346
f 347 399 400
f 347 400 348
f 347 398 401
f 347 401 402
f 347 402 403
f 347 403 404
f 347 404 405
f 347 405 406
f 347 406 407
f 347 407 399
f 348 400 408
f 348 408 349
f 349 408 409
f 349 409 410
f 349 410 350
f 350 410 351
f 351 410 411
f 351 411 352
f 352 411 355
f 352 355 353
f 353 355 354
f 355 411 412
f 355 412 356
f 356 412 413
f 356 413 414
f 356 414 357
f 357 414 415
f 357 415 416
f 357 416 358
f 358 416 417
f 358 417 359
f 359 417 418
f 359 418 419
f 359 419 420
f 359 420 360
f 360 420 361
f 361 420 362
f 362 420 363
f 363 420 421
f 363 421 422
f 363 422 423
f 363 423 364
f 364 424 365
f 364 423 424
f 365 424 367
f 366 367 425
f 366 425 426
f 367 424 425
f 368 427 383
f 368 383 369
f 368 371 428
f 368 428 429
f 368 429 430
f 368 430 427
f 371 382 428
f 378 431 379
f 379 431 432
f 379 432 433
f 379 433 380
f 380 433 434
f 380 434 435
f 380 435 381
f 381 435 382
f 382 436 428
f 382 435 436
f 383 427 437
f 383 437 384
f 384 437 438
f 384 438 385
f 385 438 439
f 385 439 440
f 385 440 387
f 385 387 386
f 387 440 388
f 388 440 441
f 388 441 442
f 388 442 443
f 388 443 389
f 389 443 390
f 390 443 444
f 390 444 445
f 390 445 391
f 391 445 394
f 391 394 392
f 392 394 393
f 394 445 396
f 394 396 395
f 396 445 446
f 396 446 397
f 397 446 450
f 397 450 401
f 397 401 398
f 399 447 400
f 399 407 447
f 400 447 448
f 400 448 449
f 400 449 408
f 401 450 505
f 401 505 451
f 401 451 452
f 401 452 453
f 401 453 454
f 401 454 402
f 402 454 403
f 403 454 455
f 403 455 404
f 404 455 456
f 404 456 457
f 404 457 405
f 405 457 406
f 406 457 458
f 406 458 407
f 407 458 459
f 407 459 447
f 408 449 460
f 408 460 409
f 409 412 410
f 409 460 413
f 409 413 412
f 410 412 411
f 413 460 461
f 413 461 462
f 413 462 463
f 413 463 415
f 413 415 414
f 415 464 416
f 415 463 464
f 416 464 417
f 417 464 465
f 417 465 466
f 417 466 467
f 417 467 418
f 418 467 419
f 419 467 422
f 419 422 421
f 419 421 420
f 422 467 468
f 422 468 469
f 422 469 470
f 422 470 423
f 423 470 471
f 423 471 424
f 424 471 472
f 424 472 425
f 425 472 473
f 425 473 426
f 426 473 474
f 427 475 476
f 427 476 437
f 427 430 477
f 427 477 475
f 428 436 429
f 429 436 435
f 429 435 434
f 429 434 433
f 429 433 478
f 429 478 479
f 429 479 430
f 430 479 477
f 432 480 433
f 433 480 481
f 433 481 482
f 433 482 483
f 433 483 478
f 437 476 438
f 438 484 439
f 438 476 475
f 438 475 484
f 439 484 485
f 439 485 486
f 439 486 487
f 439 487 488
f 439 488 489
f 439 489 490
f 439 490 491
f 439 491 440
f 440 491 492
f 440 492 441
f 441 492 493
f 441 493 442
f 442 444 443
f 442 493 494
f 442 494 444
f 444 494 495
f 444 495 496
f 444 496 497
f 444 497 446
f 444 446 445
f 446 497 450
f 447 459 448
f 448 459 498
f 448 498 499
f 448 499 500
f 448 500 501
f 448 501 461
f 448 461 449
f 449 461 460
f 450 497 496
f 450 496 502
f 450 502 503
f 450 503 504
f 450 504 505
f 451 505 576
f 451 576 506
f 451 506 452
f 452 506 507
f 452 507 453
f 453 507 508
f 453 508 454
f 454 508 509
f 454 509 510
f 454 510 455
f 455 510 509
f 455 509 511
f 455 511 512
f 455 512 456
f 456 513 457
f 456 512 514
f 456 514 513
f 457 513 498
f 457 498 458
f 458 498 459
f 461 501 515
f 461 515 462
f 462 515 463
f 463 515 516
f 463 516 465
f 463 465 464
f 465 516 517
f 465 517 518
f 465 518 519
f 465 519 520
f 465 520 466
f 466 520 467
f 467 520 521
f 467 521 468
f 468 522 469
f 468 521 523
f 468 523 522
f 469 522 524
f 469 524 525
f 469 525 471
f 469 471 470
f 471 525 472
f 472 526 473
f 472 525 526
f 473 526 527
f 473 527 474
f 474 527 528
f 475 529 530
f 475 530 485
f 475 485 484
f 475 477 531
f 475 531 529
f 477 479 532
f 477 532 533
f 477 533 534
f 477 534 535
f 477 535 531
f 478 483 536
f 478 536 537
f 478 537 538
f 478 538 539
f 478 539 540
f 478 540 541
f 478 541 542
f 478 542 543
f 478 543 532
f 478 532 479
f 485 530 544
f 485 544 486
f 486 544 530
f 486 530 545
f 486 545 488
f 486 488 487
f 488 545 546
f 488 546 547
f 488 547 489
f 489 547 490
f 490 547 548
f 490 548 492
f 490 492 491
f 492 548 549
f 492 549 493
f 493 550 551
f 493 551 552
f 493 552 553
f 493 553 554
f 493 554 494
f 493 549 555
f 493 555 556
f 493 556 550
f 494 554 557
f 494 557 558
f 494 558 496
f 494 496 495
f 496 558 559
f 496 559 560
f 496 560 561
f 496 561 562
f 496 562 563
f 496 563 564
f 496 564 565
f 496 565 502
f 498 513 514
f 498 514 566
f 498 566 567
f 498 567 499
f 499 567 500
f 500 567 568
f 500 568 569
f 500 569 570
f 500 570 515
f 500 515 501
f 502 565 571
f 502 571 572
f 502 572 573
f 502 573 574
f 502 574 503
f 503 574 575
f 503 575 504
f 504 575 576
f 504 576 505
f 506 576 577
f 506 577 578
f 506 578 579
f 506 579 507
f 507 579 580
f 507 580 508
f 508 580 509
f 509 580 581
f 509 581 582
f 509 582 511
f 511 582 583
f 511 583 512
f 512 583 584
f 512 584 514
f 514 584 585
f 514 585 566
f 515 570 516
f 516 570 517
f 517 570 569
f 517 569 586
f 517 586 587
f 517 587 518
f 518 587 519
f 519 588 523
f 519 523 521
f 519 521 520
f 519 587 589
f 519 589 588
f 522 523 588
f 522 588 590
f 522 590 524
f 524 591 592
f 524 592 525
f 524 590 593
f 524 593 591
f 525 592 526
f 526 592 527
f 527 594 528
f 527 592 595
f 527 595 596
f 527 596 594
f 529 531 530
f 530 597 598
f 530 598 545
f 530 531 599
f 530 599 600
f 530 600 597
f 531 535 601
f 531 601 599
f 532 543 602
f 532 602 533
f 533 602 603
f 533 603 604
f 533 604 605
f 533 605 606
f 533 606 534
f 534 606 607
f 534 607 535
f 535 607 608
f 535 608 609
f 535 609 610
f 535 610 601
f 541 611 542
f 542 611 543
f 545 598 612
f 545 612 613
f 545 613 614
f 545 614 615
f 545 615 616
f 545 616 617
f 545 617 546
f 546 617 618
f 546 618 619
f 546 619 620
f 546 620 547
f 547 620 621
f 547 621 622
f 547 622 623
f 547 623 624
f 547 624 555
f 547 555 548
f 548 555 549
f 550 556 551
f 551 625 626
f 551 626 627
f 551 627 628
f 551 628 552
f 551 556 629
f 551 629 630
f 551 630 625
f 552 628 553
f 553 628 631
f 553 631 632
f 553 632 554
f 554 632 557
f 555 633 556
f 555 624 633
f 556 633 634
f 556 634 635
f 556 635 629
f 557 636 637
f 557 637 638
f 557 638 558
f 557 632 636
f 558 638 559
f 559 638 639
f 559 639 640
f 559 640 641
f 559 641 561
f 559 561 560
f 561 642 643
f 561 643 562
f 561 641 642
f 562 643 644
f 562 644 563
f 563 644 564
f 564 644 645
f 564 645 571
f 564 571 565
f 566 585 567
f 567 585 646
f 567 646 568
f 568 646 647
f 568 647 648
f 568 648 569
f 569 648 586
f 571 645 649
f 571 649 650
f 571 650 573
f 571 573 572
f 573 651 652
f 573 652 653
f 573 653 574
f 573 650 651
f 574 653 575
f 575 653 654
f 575 654 576
f 576 654 577
f 577 654 655
f 577 655 656
f 577 656 657
f 577 657 578
f 578 657 658
f 578 658 579
f 579 658 580
f 580 658 581
f 581 658 659
f 581 659 660
f 581 660 661
f 581 661 582
f 582 661 583
f 583 661 662
f 583 662 584
f 584 662 663
f 584 663 585
f 585 663 664
f 585 664 646
f 586 648 665
f 586 665 666
f 586 666 587
f 587 666 589
f 588 589 667
f 588 667 668
f 588 668 590
f 589 666 669
f 589 669 667
f 590 668 670
f 590 670 593
f 591 671 672
f 591 672 673
f 591 673 596
f 591 596 595
f 591 595 592
f 591 593 674
f 591 674 671
f 593 670 675
f 593 675 674
f 597 676 612
f 597 612 598
f 597 600 677
f 597 677 676
f 599 601 678
f 599 678 679
f 599 679 680
f 599 680 600
f 600 680 681
f 600 681 682
f 600 682 683
f 600 683 684
f 600 684 685
f 600 685 686
f 600 686 677
f 601 610 687
f 601 687 678
f 612 688 689
f 612 689 613
f 612 676 677
f 612 677 690
f 612 690 688
f 613 689 691
f 613 691 692
f 613 692 614
f 614 692 693
f 614 693 615
f 615 693 694
f 615 694 695
f 615 695 696
f 615 696 697
f 615 697 616
f 616 697 617
f 617 697 618
f 618 697 619
f 619 697 620
f 620 697 698
f 620 698 621
f 621 698 699
f 621 699 700
f 621 700 701
f 621 701 623
f 621 623 622
f 623 701 702
f 623 702 703
f 623 703 624
f 624 703 704
f 624 704 705
f 624 705 706
f 624 706 633
f 625 630 707
f 625 707 708
f 625 708 709
f 625 709 626
f 626 710 627
f 626 709 711
f 626 711 710
f 627 710 712
f 627 712 628
f 628 712 631
f 629 635 630
f 630 635 707
f 631 712 710
f 631 710 713
f 631 713 714
f 631 714 636
f 631 636 632
f 633 706 715
f 633 715 634
f 634 716 707
f 634 707 635
f 634 715 716
f 636 714 637
f 637 714 717
f 637 717 718
f 637 718 638
f 638 718 639
f 639 718 719
f 639 719 640
f 640 719 720
f 640 720 721
f 640 721 722
f 640 722 642
f 640 642 641
f 642 722 643
f 643 722 644
f 644 722 723
f 644 723 645
f 645 723 724
f 645 724 649
f 646 664 647
f 647 664 725
f 647 725 726
f 647 726 648
f 648 726 665
f 649 724 727
f 649 727 728
f 649 728 650
f 650 728 651
f 651 728 729
f 651 729 652
f 652 729 730
f 652 730 655
f 652 655 653
f 653 655 654
f 655 730 731
f 655 731 656
f 656 731 732
f 656 732 657
f 657 732 658
f 658 732 659
f 659 732 733
f 659 733 734
f 659 734 735
f 659 735 660
f 660 735 736
f 660 736 737
f 660 737 661
f 661 737 662
f 662 737 738
f 662 738 663
f 663 738 739
f 663 739 725
f 663 725 664
f 665 726 740
f 665 740 669
f 665 669 666
f 667 669 741
f 667 741 742
f 667 742 668
f 668 742 743
f 668 743 744
f 668 744 675
f 668 675 670
f 669 740 745
f 669 745 741
f 671 746 672
f 671 674 746
f 672 746 673
f 674 675 747
f 674 747 748
f 674 748 746
f 675 749 747
f 675 744 750
f 675 750 749
f 677 686 751
f 677 751 690
f 685 752 686
f 686 752 753
f 686 753 754
f 686 754 751
f 688 690 689
f 689 690 755
f 689 755 756
f 689 756 691
f 690 751 754
f 690 754 757
f 690 757 755
f 691 756 758
f 691 758 759
f 691 759 760
f 691 760 692
f 692 760 694
f 692 694 693
f 694 760 761
f 694 761 762
f 694 762 763
f 694 763 695
f 695 763 764
f 695 764 765
f 695 765 696
f 696 765 697
f 697 765 698
f 698 765 699
f 699 765 766
f 699 766 700
f 700 766 767
f 700 767 701
f 701 767 702
f 702 767 768
f 702 768 703
f 703 768 704
f 704 768 769
f 704 769 705
f 705 770 771
f 705 771 715
f 705 715 706
f 705 769 770
f 707 772 708
f 707 716 772
f 708 773 774
f 708 774 709
f 708 772 773
f 709 774 711
f 710 775 776
f 710 776 714
f 710 714 713
f 710 711 775
f 711 774 775
f 714 776 717
f 715 777 716
f 715 771 777
f 716 778 772
f 716 777 778
f 717 779 780
f 717 780 719
f 717 719 718
f 717 776 781
f 717 781 779
f 719 782 720
f 719 780 782
f 720 782 783
f 720 783 721
f 721 783 784
f 721 784 722
f 722 784 785
f 722 785 724
f 722 724 723
f 724 786 787
f 724 787 727
f 724 785 786
f 725 739 788
f 725 788 745
f 725 745 740
f 725 740 726
f 727 789 790
f 727 790 791
f 727 791 728
f 727 787 789
f 728 791 729
f 729 792 793
f 729 793 794
f 729 794 730
f 729 791 792
f 730 794 795
f 730 795 796
f 730 796 797
f 730 797 731
f 731 797 733
f 731 733 732
f 733 797 798
f 733 798 799
f 733 799 800
f 733 800 734
f 734 800 801
f 734 801 735
f 735 801 736
f 736 801 737
f 737 801 802
f 737 802 738
f 738 802 803
f 738 803 788
f 738 788 739
f 741 745 804
f 741 804 743
f 741 743 742
f 743 805 750
f 743 750 744
f 743 804 806
f 743 806 807
f 743 807 805
f 745 808 809
f 745 809 806
f 745 806 804
f 745 788 808
f 747 749 810
f 747 810 811
f 747 811 812
f 747 812 813
f 747 813 748
f 749 750 810
f 750 805 814
f 750 814 815
f 750 815 810
f 752 816 754
f 752 754 753
f 754 816 817
f 754 817 757
f 755 757 818
f 755 818 756
f 756 818 819
f 756 819 758
f 757 820 818
f 757 817 820
f 758 819 821
f 758 821 759
f 759 821 822
f 759 822 823
f 759 823 824
f 759 824 825
f 759 825 761
f 759 761 760
f 761 825 762
f 762 825 826
f 762 826 763
f 763 826 827
f 763 827 764
f 764 827 828
f 764 828 829
f 764 829 830
f 764 830 831
f 764 831 765
f 765 831 766
f 766 832 833
f 766 833 767
f 766 831 832
f 767 833 834
f 767 834 835
f 767 835 768
f 768 835 769
f 769 835 770
f 770 836 837
f 770 837 771
f 770 835 838
f 770 838 839
f 770 839 836
f 771 837 777
f 772 778 840
f 772 840 773
f 773 840 774
f 774 841 842
f 774 842 843
f 774 843 775
f 774 840 844
f 774 844 841
f 775 843 845
f 775 845 776
f 776 845 781
f 777 846 778
f 777 837 847
f 777 847 846
f 778 848 840
f 778 846 849
f 778 849 850
f 778 850 848
f 779 781 845
f 779 845 851
f 779 851 852
f 779 852 853
f 779 853 780
f 780 853 782
f 782 854 855
f 782 855 783
f 782 853 854
f 783 855 856
f 783 856 857
f 783 857 784
f 784 857 786
f 784 786 785
f 786 857 858
f 786 858 789
f 786 789 787
f 788 803 859
f 788 859 860
f 788 860 861
f 788 861 808
f 789 858 862
f 789 862 863
f 789 863 790
f 790 863 791
f 791 863 792
f 792 863 864
f 792 864 865
f 792 865 793
f 793 865 866
f 793 866 795
f 793 795 794
f 795 866 796
f 796 867 868
f 796 868 798
f 796 798 797
f 796 866 867
f 798 868 869
f 798 869 799
f 799 869 870
f 799 870 871
f 799 871 800
f 800 871 872
f 800 872 802
f 800 802 801
f 802 872 859
f 802 859 803
f 805 807 873
f 805 873 814
f 806 809 874
f 806 874 875
f 806 875 807
f 807 875 873
f 808 861 809
f 809 861 860
f 809 860 859
f 809 859 876
f 809 876 877
f 809 877 874
f 810 878 811
f 810 815 878
f 811 879 880
f 811 880 812
f 811 878 879
f 814 881 815
f 814 873 881
f 815 881 882
f 815 882 883
f 815 883 878
f 818 820 884
f 818 884 819
f 819 884 885
f 819 885 821
f 821 885 886
f 821 886 887
f 821 887 822
f 822 887 823
f 823 887 888
f 823 888 824
f 824 888 889
f 824 889 890
f 824 890 825
f 825 890 826
f 826 890 891
f 826 891 892
f 826 892 827
f 827 892 828
f 828 893 894
f 828 894 829
f 828 892 895
f 828 895 896
f 828 896 897
f 828 897 898
f 828 898 893
f 829 894 899
f 829 899 830
f 830 899 831
f 831 899 900
f 831 900 832
f 832 900 901
f 832 901 902
f 832 902 834
f 832 834 833
f 834 902 903
f 834 903 838
f 834 838 835
f 836 904 905
f 836 905 837
f 836 839 903
f 836 903 906
f 836 906 907
f 836 907 904
f 837 905 847
f 838 903 839
f 840 848 844
f 841 844 908
f 841 908 909
f 841 909 842
f 842 909 843
f 843 909 910
f 843 910 911
f 843 911 912
f 843 912 845
f 844 848 908
f 845 912 851
f 846 913 849
f 846 847 905
f 846 905 913
f 848 914 915
f 848 915 908
f 848 850 916
f 848 916 917
f 848 917 914
f 849 913 918
f 849 918 916
f 849 916 850
f 851 919 852
f 851 912 919
f 852 919 920
f 852 920 853
f 853 920 854
f 854 920 921
f 854 921 922
f 854 922 923
f 854 923 924
f 854 924 856
f 854 856 855
f 856 924 925
f 856 925 857
f 857 925 858
f 858 926 862
f 858 925 926
f 859 872 876
f 862 927 864
f 862 864 863
f 862 926 928
f 862 928 927
f 864 929 930
f 864 930 931
f 864 931 865
f 864 927 932
f 864 932 929
f 865 931 866
f 866 931 867
f 867 931 933
f 867 933 934
f 867 934 935
f 867 935 868
f 868 935 936
f 868 936 869
f 869 936 937
f 869 937 938
f 869 938 870
f 870 938 939
f 870 939 871
f 871 939 940
f 871 940 941
f 871 941 872
f 872 941 876
f 873 875 942
f 873 942 943
f 873 943 944
f 873 944 881
f 874 877 875
f 875 877 942
f 876 941 877
f 877 941 945
f 877 945 942
f 881 946 947
f 881 947 948
f 881 948 949
f 881 949 882
f 881 944 946
f 882 949 883
f 887 950 888
f 888 950 889
f 889 950 951
f 889 951 890
f 890 895 892
f 890 892 891
f 890 951 895
f 893 952 894
f 893 898 952
f 894 953 954
f 894 954 900
f 894 900 899
f 894 952 953
f 895 955 896
f 895 951 956
f 895 956 955
f 896 955 957
f 896 957 958
f 896 958 897
f 897 958 898
f 898 958 959
f 898 959 1014
f 898 1014 960
f 898 960 953
f 898 953 952
f 900 954 901
f 901 954 961
f 901 961 902
f 902 961 962
f 902 962 963
f 902 963 964
f 902 964 903
f 903 964 906
f 904 965 966
f 904 966 905
f 904 907 964
f 904 964 967
f 904 967 968
f 904 968 965
f 905 966 918
f 905 918 913
f 906 964 907
f 908 915 969
f 908 969 909
f 909 969 970
f 909 970 910
f 910 970 971
f 910 971 911
f 911 971 972
f 911 972 973
f 911 973 919
f 911 919 912
f 914 917 974
f 914 974 975
f 914 975 976
f 914 976 915
f 915 976 970
f 915 970 977
f 915 977 969
f 916 978 917
f 916 918 966
f 916 966 979
f 916 979 980
f 916 980 978
f 917 978 974
f 919 973 981
f 919 981 982
f 919 982 920
f 920 983 921
f 920 982 983
f 921 984 985
f 921 985 922
f 921 983 986
f 921 986 987
f 921 987 984
f 922 985 923
f 923 988 989
f 923 989 924
f 923 985 988
f 924 989 925
f 925 989 926
f 926 989 928
f 927 928 988
f 927 988 990
f 927 990 991
f 927 991 992
f 927 992 932
f 928 989 988
f 929 932 992
f 929 992 930
f 930 992 931
f 931 992 933
f 933 992 993
f 933 993 994
f 933 994 934
f 934 994 995
f 934 995 935
f 935 995 996
f 935 996 936
f 936 996 997
f 936 997 937
f 937 997 998
f 937 998 938
f 938 998 999
f 938 999 1000
f 938 1000 939
f 939 1000 1001
f 939 1001 940
f 940 1001 945
f 940 945 941
f 942 945 1002
f 942 1002 943
f 943 1003 1004
f 943 1004 946
f 943 946 944
f 943 1002 1003
f 945 1001 1005
f 945 1005 1002
f 946 1006 1007
f 946 1007 947
f 946 1004 1008
f 946 1008 1006
f 947 1007 948
f 950 1009 951
f 951 1009 956
f 953 1010 1011
f 953 1011 954
f 953 960 1012
f 953 1012 1013
f 953 1013 1010
f 954 1011 961
f 960 1014 1012
f 961 1011 962
f 962 1011 1015
f 962 1015 963
f 963 1016 1017
f 963 1017 1018
f 963 1018 964
f 963 1015 1019
f 963 1019 1016
f 964 1018 967
f 965 1020 1067
f 965 1067 1021
f 965 1021 966
f 965 968 1022
f 965 1022 1020
f 966 1021 979
f 967 1018 1022
f 967 1022 968
f 969 977 970
f 970 1023 1024
f 970 1024 1025
f 970 1025 971
f 970 976 1026
f 970 1026 1023
f 971 1025 972
f 972 1025 1024
f 972 1024 981
f 972 981 973
f 974 978 1027
f 974 1027 1028
f 974 1028 1029
f 974 1029 1030
f 974 1030 975
f 975 1030 1031
f 975 1031 976
f 976 1031 1026
f 978 980 1027
f 979 1021 1032
f 979 1032 1027
f 979 1027 980
f 981 1024 1033
f 981 1033 986
f 981 986 982
f 982 986 983
f 984 1034 1035
f 984 1035 985
f 984 987 1036
f 984 1036 1037
f 984 1037 1034
f 985 1035 988
f 986 1033 987
f 987 1033 1036
f 988 1035 990
f 990 1035 1038
f 990 1038 1039
f 990 1039 1040
f 990 1040 991
f 991 993 992
f 991 1040 1039
f 991 1039 1041
f 991 1041 1042
f 991 1042 993
f 993 1042 994
f 994 1042 1043
f 994 1043 995
f 995 1043 1044
f 995 1044 1045
f 995 1045 996
f 996 1045 997
f 997 1045 1046
f 997 1046 1047
f 997 1047 1048
f 997 1048 998
f 998 1048 1049
f 998 1049 999
f 999 1049 1000
f 1000 1049 1050
f 1000 1050 1051
f 1000 1051 1005
f 1000 1005 1001
f 1002 1005 1052
f 1002 1052 1003
f 1003 1052 1004
f 1004 1052 1008
f 1005 1051 1052
f 1006 1008 1053
f 1006 1053 1054
f 1006 1054 1007
f 1008 1055 1053
f 1008 1052 1055
f 1010 1056 1099
f 1010 1099 1057
f 1010 1057 1011
f 1010 1013 1058
f 1010 1058 1059
f 1010 1059 1056
f 1011 1057 1015
f 1012 1014 1058
f 1012 1058 1013
f 1015 1057 1060
f 1015 1060 1019
f 1016 1019 1061
f 1016 1061 1017
f 1017 1062 1018
f 1017 1061 1063
f 1017 1063 1062
f 1018 1062 1064
f 1018 1064 1022
f 1019 1060 1102
f 1019 1102 1061
f 1020 1065 1066
f 1020 1066 1067
f 1020 1022 1064
f 1020 1064 1068
f 1020 1068 1065
f 1021 1067 1032
f 1023 1069 1070
f 1023 1070 1024
f 1023 1026 1071
f 1023 1071 1072
f 1023 1072 1069
f 1024 1073 1033
f 1024 1070 1073
f 1026 1031 1071
f 1027 1074 1028
f 1027 1032 1067
f 1027 1067 1075
f 1027 1075 1076
f 1027 1076 1074
f 1028 1077 1030
f 1028 1030 1029
f 1028 1074 1077
f 1030 1078 1031
f 1030 1077 1079
f 1030 1079 1078
f 1031 1078 1071
f 1033 1073 1036
f 1034 1080 1039
f 1034 1039 1038
f 1034 1038 1035
f 1034 1037 1081
f 1034 1081 1082
f 1034 1082 1080
f 1036 1073 1083
f 1036 1083 1037
f 1037 1084 1081
f 1037 1083 1084
f 1039 1080 1085
f 1039 1085 1041
f 1041 1085 1086
f 1041 1086 1042
f 1042 1086 1043
f 1043 1086 1087
f 1043 1087 1044
f 1044 1087 1088
f 1044 1088 1089
f 1044 1089 1045
f 1045 1089 1090
f 1045 1090 1046
f 1046 1090 1047
f 1047 1090 1048
f 1048 1090 1091
f 1048 1091 1092
f 1048 1092 1049
f 1049 1092 1050
f 1050 1092 1093
f 1050 1093 1051
f 1051 1093 1052
f 1052 1093 1094
f 1052 1094 1095
f 1052 1095 1055
f 1053 1096 1097
f 1053 1097 1098
f 1053 1098 1054
f 1053 1055 1095
f 1053 1095 1096
f 1057 1099 1100
f 1057 1100 1101
f 1057 1101 1060
f 1060 1101 1109
f 1060 1109 1102
f 1061 1102 1063
f 1062 1068 1064
f 1062 1063 1103
f 1062 1103 1104
f 1062 1104 1105
f 1062 1105 1106
f 1062 1106 1107
f 1062 1107 1108
f 1062 1108 1065
f 1062 1065 1068
f 1063 1102 1109
f 1063 1109 1103
f 1065 1108 1066
f 1066 1110 1117
f 1066 1117 1076
f 1066 1076 1075
f 1066 1075 1067
f 1066 1108 1110
f 1069 1111 1083
f 1069 1083 1073
f 1069 1073 1070
f 1069 1072 1112
f 1069 1112 1111
f 1071 1078 1113
f 1071 1113 1114
f 1071 1114 1115
f 1071 1115 1072
f 1072 1115 1116
f 1072 1116 1112
f 1074 1076 1117
f 1074 1117 1077
f 1077 1117 1118
f 1077 1118 1119
f 1077 1119 1079
f 1078 1079 1119
f 1078 1119 1113
f 1080 1082 1120
f 1080 1120 1085
f 1081 1084 1082
f 1082 1084 1121
f 1082 1121 1122
f 1082 1122 1123
f 1082 1123 1120
f 1083 1111 1124
f 1083 1124 1125
f 1083 1125 1084
f 1084 1125 1121
f 1085 1120 1126
f 1085 1126 1086
f 1086 1126 1127
f 1086 1127 1128
f 1086 1128 1087
f 1087 1128 1129
f 1087 1129 1130
f 1087 1130 1088
f 1088 1130 1131
f 1088 1131 1089
f 1089 1132 1133
f 1089 1133 1134
f 1089 1134 1090
f 1089 1131 1132
f 1090 1134 1135
f 1090 1135 1091
f 1091 1135 1136
f 1091 1136 1137
f 1091 1137 1092
f 1092 1137 1138
f 1092 1138 1093
f 1093 1138 1094
f 1094 1138 1139
f 1094 1139 1095
f 1095 1139 1140
f 1095 1140 1096
f 1096 1140 1141
f 1096 1141 1097
f 1105 1142 1106
f 1106 1143 1144
f 1106 1144 1107
f 1106 1142 1143
f 1107 1145 1108
f 1108 1145 1110
f 1110 1146 1117
f 1110 1145 1146
f 1111 1112 1147
f 1111 1147 1148
f 1111 1148 1124
f 1112 1116 1149
f 1112 1149 1147
f 1113 1119 1150
f 1113 1150 1114
f 1114 1151 1116
f 1114 1116 1115
f 1116 1151 1152
f 1116 1152 1153
f 1116 1153 1149
f 1117 1154 1118
f 1117 1146 1154
f 1118 1155 1119
f 1118 1154 1155
f 1119 1155 1150
f 1120 1123 1156
f 1120 1156 1126
f 1121 1125 1157
f 1121 1157 1158
f 1121 1158 1122
f 1122 1159 1123
f 1122 1158 1160
f 1122 1160 1161
f 1122 1161 1159
f 1123 1159 1156
f 1124 1162 1125
f 1124 1148 1162
f 1125 1162 1163
f 1125 1163 1164
f 1125 1164 1157
f 1126 1156 1127
f 1127 1156 1165
f 1127 1165 1166
f 1127 1166 1167
f 1127 1167 1168
f 1127 1168 1129
f 1127 1129 1128
f 1129 1168 1167
f 1129 1167 1169
f 1129 1169 1131
f 1129 1131 1130
f 1131 1169 1133
f 1131 1133 1132
f 1133 1169 1170
f 1133 1170 1171
f 1133 1171 1134
f 1134 1171 1172
f 1134 1172 1135
f 1135 1172 1136
f 1136 1172 1173
f 1136 1173 1174
f 1136 1174 1175
f 1136 1175 1137
f 1137 1175 1176
f 1137 1176 1139
f 1137 1139 1138
f 1139 1176 1140
f 1140 1176 1177
f 1140 1177 1178
f 1140 1178 1179
f 1140 1179 1141
f 1147 1149 1148
f 1148 1149 1153
f 1148 1153 1180
f 1148 1180 1181
f 1148 1181 1162
f 1156 1159 1182
f 1156 1182 1165
f 1157 1164 1183
f 1157 1183 1158
f 1159 1161 1184
f 1159 1184 1182
f 1160 1185 1161
f 1161 1185 1184
f 1162 1186 1163
f 1162 1181 1186
f 1163 1183 1164
f 1165 1182 1166
f 1167 1187 1169
f 1169 1187 1170
f 1170 1188 1171
f 1170 1187 1189
f 1170 1189 1190
f 1170 1190 1188
f 1171 1188 1172
f 1172 1188 1191
f 1172 1191 1192
f 1172 1192 1193
f 1172 1193 1194
f 1172 1194 1195
f 1172 1195 1196
f 1172 1196 1173
f 1173 1196 1174
f 1174 1196 1197
f 1174 1197 1175
f 1175 1197 1177
f 1175 1177 1176
f 1177 1197 1198
f 1177 1198 1178
f 1188 1190 1199
f 1188 1199 1191
f 1191 1200 1192
f 1192 1200 1193
f 1194 1196 1195
f 1196 1201 1197
f 1197 1201 1198

