# https://github.com/mikedh/trimesh
v -0.00064633 0.01278041 -0.01127842
v -0.00034863 0.01216607 -0.01107451
v -0.00079646 0.01278041 -0.01154496
v -0.00069637 0.01278041 -0.01090298
v 0.00074852 0.01068926 -0.00919862
v 0.00078445 0.01062284 -0.00919862
v 0.00093715 0.01032766 -0.00919862
v 0.00062405 0.01054812 -0.01000582
v -0.00029986 0.01183492 -0.01113590
v 0.00016851 0.01114125 -0.01059776
v 0.00021470 0.01082854 -0.01066839
v -0.00082726 0.01278041 -0.01158910
v 0.00037895 0.01087836 -0.00919862
v 0.00067024 0.01072984 -0.00919862
v -0.00358872 0.01278041 -0.00919862
v 0.00105007 0.00978896 -0.00919862
v 0.00091533 0.01032582 -0.00926967
v 0.00073055 0.01035903 -0.00981200
v 0.00084732 0.00982309 -0.00977249
v 0.00065484 0.01021328 -0.01007308
v 0.00053294 0.01035903 -0.01025470
v 0.00005558 0.01082854 -0.01091980
v -0.00024084 0.01133219 -0.01120148
v 0.00055219 0.00982309 -0.01038461
v 0.00026218 0.01032582 -0.01073356
v -0.00078620 0.01233765 -0.01163115
v -0.00104797 0.01278041 -0.01181066
v -0.00044615 0.01133219 -0.01145247
v -0.01095048 0.01278041 -0.00919862
v 0.00106418 0.00969948 -0.00919862
v 0.00104494 0.00977789 -0.00922216
v 0.00107702 0.00932036 -0.00933693
v 0.00110781 0.00881671 -0.00944540
v 0.00091662 0.00932036 -0.00977249
v 0.00068692 0.00982309 -0.01013278
v 0.00009536 0.01032582 -0.01098497
v -0.00019592 0.01082854 -0.01124941
v 0.00011974 0.01001588 -0.01101944
v 0.00072157 0.00932036 -0.01019542
v 0.00058555 0.00932036 -0.01044683
v 0.00027373 0.00983785 -0.01082226
v -0.00074129 0.01183492 -0.01167151
v -0.00104541 0.01233765 -0.01188255
v -0.00107877 0.01278041 -0.01184093
v -0.00040509 0.01082854 -0.01150040
v -0.01091070 0.01278041 -0.00939243
v -0.01096588 0.01259685 -0.00919862
v 0.00111936 0.00932036 -0.00919862
v 0.00119122 0.00881671 -0.00919862
v 0.00112706 0.00850309 -0.00950300
v 0.00119379 0.00879642 -0.00919862
v 0.00097821 0.00881671 -0.00977249
v 0.00063046 0.00856950 -0.01052755
v 0.00014156 0.00968104 -0.01104761
v -0.00038327 0.01053060 -0.01152520
v 0.00072798 0.00876875 -0.01030473
v 0.00106034 0.00781218 -0.00984648
v 0.00111295 0.00680581 -0.00997386
v 0.00079599 0.00831399 -0.01027530
v -0.00069766 0.01133219 -0.01170682
v -0.00100948 0.01183492 -0.01192291
v -0.00130076 0.01278041 -0.01205114
v -0.01092482 0.01244280 -0.00946138
v -0.01080933 0.01278041 -0.00976744
v -0.01109933 0.01082854 -0.00926967
v -0.01114809 0.01039684 -0.00919862
v 0.00104879 0.00832690 -0.00973885
v 0.00121304 0.00832690 -0.00930919
v 0.00128105 0.00781218 -0.00926967
v 0.00143503 0.00630308 -0.00926967
v 0.00114374 0.00816732 -0.00954882
v 0.00124768 0.00832414 -0.00919862
v 0.00084861 0.00781218 -0.01027530
v 0.00114503 0.00617025 -0.01004618
v 0.00064458 0.00831399 -0.01054857
v 0.00046749 0.00831399 -0.01079998
v 0.00049188 0.00781218 -0.01083824
v 0.00016081 0.00932036 -0.01107241
v -0.00005734 0.00932036 -0.01132382
v -0.00004707 0.00983785 -0.01124184
v -0.00035889 0.01019483 -0.01154916
v 0.00112835 0.00650510 -0.01001170
v 0.00116171 0.00781218 -0.00959507
v -0.00065660 0.01082854 -0.01173709
v -0.00097483 0.01133219 -0.01195823
v -0.00133028 0.01278041 -0.01207721
v -0.01093893 0.01210796 -0.00952696
v -0.01065149 0.01278041 -0.01027530
v -0.01094791 0.01019575 -0.01005753
v -0.01114039 0.01032582 -0.00926967
v -0.01118017 0.00982309 -0.00926967
v -0.01118787 0.00989320 -0.00919862
v 0.00130928 0.00774116 -0.00919862
v 0.00145685 0.00630862 -0.00919862
v 0.00146198 0.00622006 -0.00919862
v 0.00145043 0.00580036 -0.00926967
v 0.00122459 0.00632338 -0.00981537
v 0.00114503 0.00594057 -0.01004618
v 0.00074467 0.00630308 -0.01068941
v 0.00102056 0.00632338 -0.01023831
v 0.00067024 0.00781218 -0.01058683
v 0.00069462 0.00730853 -0.01062299
v 0.00072029 0.00680581 -0.01065704
v 0.00051497 0.00730853 -0.01087440
v 0.00021599 0.00831399 -0.01113632
v 0.00018775 0.00881671 -0.01110563
v -0.00003424 0.00881671 -0.01135661
v -0.00033579 0.00982309 -0.01157145
v -0.00094018 0.01082854 -0.01198850
v -0.00129692 0.01233765 -0.01210201
v -0.00159334 0.01278041 -0.01226177
v -0.01100437 0.01034888 -0.00981453
v -0.01095048 0.01183492 -0.00956648
v -0.01105827 0.00982309 -0.00977249
v -0.01087220 0.01034888 -0.01024503
v -0.01050264 0.01278041 -0.01067932
v -0.01087990 0.00982309 -0.01035476
v -0.01096203 0.00982309 -0.01010293
v -0.01116991 0.00831399 -0.00977249
v -0.01109548 0.00932036 -0.00977249
v -0.01144195 0.00557620 -0.00952780
v -0.01121739 0.00932036 -0.00926967
v -0.01122509 0.00939047 -0.00919862
v 0.00147481 0.00580036 -0.00919862
v 0.00145813 0.00573763 -0.00919862
v 0.00120149 0.00541939 -0.00967495
v 0.00112578 0.00560480 -0.01001002
v 0.00122972 0.00578375 -0.00981453
v 0.00101157 0.00578375 -0.01023831
v 0.00073440 0.00580036 -0.01067134
v 0.00056117 0.00630308 -0.01094082
v 0.00053935 0.00680581 -0.01090845
v 0.00024037 0.00781218 -0.01116280
v -0.00001243 0.00831399 -0.01138730
v -0.00030885 0.00932036 -0.01159625
v -0.00088629 0.00999743 -0.01203012
v -0.00090682 0.01032582 -0.01201457
v -0.00126099 0.01183492 -0.01212556
v -0.00163312 0.01278041 -0.01228868
v -0.01038715 0.01278041 -0.01093073
v -0.01040640 0.01233765 -0.01097109
v -0.01066561 0.01032582 -0.01077854
v -0.01089787 0.00932036 -0.01041110
v -0.01098128 0.00932036 -0.01015969
v -0.01070667 0.00982309 -0.01077854
v -0.01136752 0.00576623 -0.00972624
v -0.01137394 0.00529671 -0.00981032
v -0.01145093 0.00529671 -0.00955891
v -0.01159722 0.00378853 -0.00926967
v -0.01154076 0.00479398 -0.00926967
v -0.01152279 0.00529671 -0.00919862
v -0.01148943 0.00577176 -0.00919862
v -0.01123022 0.00932036 -0.00919862
v 0.00131698 0.00527918 -0.00919862
v 0.00128233 0.00526996 -0.00928522
v 0.00110653 0.00508362 -0.00946348
v 0.00103980 0.00526996 -0.00981453
v 0.00078701 0.00529855 -0.01026689
v 0.00068436 0.00546643 -0.01060113
v 0.00054577 0.00580036 -0.01092274
v 0.00030966 0.00630308 -0.01123680
v 0.00028785 0.00680581 -0.01121283
v 0.00001067 0.00781218 -0.01141421
v -0.00028575 0.00881671 -0.01161685
v 0.00008125 0.00630308 -0.01148778
v -0.00087089 0.00966259 -0.01204147
v -0.00108390 0.00982678 -0.01216886
v -0.00115833 0.01032582 -0.01218273
v -0.00119169 0.01082854 -0.01216550
v -0.00122634 0.01133219 -0.01214616
v -0.00060655 0.00932036 -0.01184766
v -0.00051544 0.00730853 -0.01192754
v -0.00046925 0.00630308 -0.01196622
v -0.00163312 0.01233765 -0.01232904
v -0.00192697 0.01278041 -0.01247660
v -0.01019339 0.01278041 -0.01128136
v -0.01043720 0.01161538 -0.01103500
v -0.01091583 0.00881671 -0.01046449
v -0.01099924 0.00881671 -0.01021308
v -0.01108522 0.00730853 -0.01027530
v -0.01074388 0.00932036 -0.01077854
v -0.01094021 0.00811290 -0.01053512
v -0.01092867 0.00844774 -0.01050275
v -0.01047056 0.01082854 -0.01109427
v -0.01049109 0.01032582 -0.01113043
v -0.01091070 0.00580036 -0.01097151
v -0.01089274 0.00630308 -0.01093199
v -0.01118787 0.00580036 -0.01027530
v -0.01122124 0.00529671 -0.01027530
v -0.01138805 0.00479398 -0.00986035
v -0.01146633 0.00479398 -0.00960894
v -0.01111986 0.00680581 -0.01027530
v -0.01162031 0.00335775 -0.00926967
v -0.01163443 0.00335775 -0.00919862
v -0.01157797 0.00436228 -0.00919862
v -0.01155359 0.00479398 -0.00919862
v 0.00122459 0.00511868 -0.00919862
v 0.00116299 0.00501444 -0.00919862
v 0.00067666 0.00499968 -0.01009326
v -0.00014973 0.00335775 -0.00925621
v 0.00055860 0.00513159 -0.01042876
v 0.00038922 0.00528102 -0.01078821
v 0.00022112 0.00543046 -0.01113127
v 0.00029426 0.00580036 -0.01121535
v -0.00017026 0.00630308 -0.01171481
v 0.00005815 0.00580036 -0.01146634
v -0.00074385 0.00680581 -0.01212640
v -0.00072076 0.00630308 -0.01214069
v -0.00113010 0.00932036 -0.01222477
v -0.00155484 0.00982309 -0.01244928
v -0.00157922 0.01032582 -0.01243414
v -0.00160489 0.01082854 -0.01241690
v -0.00193467 0.01233765 -0.01251402
v -0.00019336 0.00580036 -0.01169211
v -0.00050004 0.00580036 -0.01194394
v -0.00075155 0.00580036 -0.01212051
v -0.00196290 0.01278041 -0.01249847
v -0.00998936 0.01278041 -0.01161181
v -0.01032042 0.01082854 -0.01134568
v -0.01087477 0.00680581 -0.01089205
v -0.01085681 0.00730853 -0.01085169
v -0.01096845 0.00730853 -0.01059986
v -0.01034096 0.01032582 -0.01138142
v -0.01051162 0.00982309 -0.01116406
v -0.01053087 0.00932036 -0.01119517
v -0.01062583 0.00730853 -0.01128136
v -0.01073362 0.00580036 -0.01128136
v -0.01092610 0.00529671 -0.01100683
v -0.01101977 0.00580036 -0.01072010
v -0.01103517 0.00529671 -0.01075542
v -0.01133031 0.00335775 -0.01027530
v -0.01141628 0.00378853 -0.00994948
v -0.01140217 0.00429125 -0.00990534
v -0.01148044 0.00429125 -0.00965393
v -0.01149456 0.00378853 -0.00969807
v -0.01152151 0.00335775 -0.00967285
v -0.00013690 0.00335775 -0.00919862
v -0.00060912 0.00335775 -0.00969134
v -0.00184998 0.00350903 -0.01105980
v -0.00097868 0.00412245 -0.01093157
v -0.00077978 0.00445821 -0.01112160
v -0.00044487 0.00460396 -0.01095806
v 0.00007740 0.00509562 -0.01097530
v 0.00022240 0.00495633 -0.01063980
v -0.00009968 0.00526903 -0.01130280
v -0.00027805 0.00544245 -0.01161769
v -0.00113010 0.00580036 -0.01235510
v -0.00113010 0.00630308 -0.01238243
v -0.00113010 0.00730853 -0.01233030
v -0.00140214 0.00630308 -0.01252873
v -0.00180635 0.00982309 -0.01257666
v -0.00183073 0.01032582 -0.01256489
v -0.00187308 0.01118460 -0.01254429
v -0.00218618 0.01233765 -0.01263006
v -0.00221441 0.01278041 -0.01261955
v -0.00218489 0.01278041 -0.01260567
v -0.00082085 0.00548765 -0.01207426
v -0.01000732 0.01233765 -0.01163535
v -0.01042950 0.00800128 -0.01152520
v -0.01037945 0.00932036 -0.01144616
v -0.01036020 0.00982309 -0.01141505
v -0.00978789 0.01278041 -0.01186322
v -0.01044233 0.00766552 -0.01154370
v -0.01045516 0.00730853 -0.01156178
v -0.01049109 0.00630308 -0.01161055
v -0.01050906 0.00580036 -0.01163451
v -0.01076570 0.00529671 -0.01128136
v -0.01093380 0.00499046 -0.01102449
v -0.01112500 0.00335775 -0.01077854
v -0.01110318 0.00378853 -0.01077854
v -0.01107752 0.00429125 -0.01077854
v -0.01103004 0.00481151 -0.01082563
v -0.01142783 0.00335775 -0.00998648
v -0.01143938 0.00335775 -0.00995032
v -0.01150611 0.00335775 -0.00973507
v -0.00228883 0.00335775 -0.01126118
v -0.00217848 0.00342324 -0.01124899
v -0.00237481 0.00352563 -0.01154370
v -0.00131488 0.00398224 -0.01109049
v -0.00096841 0.00461872 -0.01145667
v -0.00061040 0.00477922 -0.01129818
v -0.00025752 0.00493972 -0.01113926
v -0.00044102 0.00510669 -0.01147433
v -0.00063093 0.00529671 -0.01178544
v -0.00175245 0.00540555 -0.01260567
v -0.00141240 0.00580036 -0.01252117
v -0.00166391 0.00580036 -0.01264309
v -0.00165365 0.00630308 -0.01264225
v -0.00169984 0.00730853 -0.01262585
v -0.00172166 0.00781218 -0.01261660
v -0.00178582 0.00932036 -0.01258717
v -0.00213613 0.00982309 -0.01271540
v -0.00213613 0.01032582 -0.01269564
v -0.00213613 0.01082854 -0.01267462
v -0.00216051 0.01183492 -0.01264141
v -0.00263915 0.01278041 -0.01279065
v -0.00258525 0.01278041 -0.01276921
v -0.00098895 0.00515188 -0.01195319
v -0.00132386 0.00499876 -0.01207553
v -0.00190900 0.00507071 -0.01252327
v -0.00160360 0.00526165 -0.01244087
v -0.00980586 0.01233765 -0.01188676
v -0.01002785 0.01183492 -0.01166142
v -0.00953639 0.01278041 -0.01214447
v -0.01004839 0.01133219 -0.01168664
v -0.01006892 0.01082854 -0.01171102
v -0.01008945 0.01032582 -0.01173499
v -0.01030888 0.00580036 -0.01188592
v -0.01052574 0.00529671 -0.01165511
v -0.01032556 0.00529671 -0.01190694
v -0.01082473 0.00335775 -0.01134526
v -0.01081831 0.00481151 -0.01123680
v -0.01094150 0.00465561 -0.01103920
v -0.01095048 0.00429125 -0.01105391
v -0.01097229 0.00335775 -0.01109385
v -0.00262888 0.00335775 -0.01152814
v -0.00273026 0.00391213 -0.01214784
v -0.00239406 0.00404589 -0.01203012
v -0.00130333 0.00447851 -0.01159331
v -0.00288296 0.00335775 -0.01171775
v -0.00356947 0.00335775 -0.01221847
v -0.00456524 0.00335775 -0.01294411
v -0.00077593 0.00495356 -0.01161811
v -0.00339239 0.00454216 -0.01304164
v -0.00290221 0.00507532 -0.01303702
v -0.00265198 0.00526442 -0.01296681
v -0.00213613 0.00580036 -0.01284447
v -0.00213613 0.00630308 -0.01283774
v -0.00213613 0.00730853 -0.01280369
v -0.00263915 0.01133219 -0.01285035
v -0.00263915 0.01183492 -0.01283101
v -0.00308186 0.01278041 -0.01293107
v -0.00114678 0.00480874 -0.01177325
v -0.00472693 0.00335775 -0.01305468
v -0.00477441 0.00340479 -0.01311942
v -0.00982639 0.01183492 -0.01191282
v -0.00950302 0.01278041 -0.01217474
v -0.00955435 0.01233765 -0.01216129
v -0.00994573 0.00881671 -0.01205072
v -0.00993418 0.00911097 -0.01203895
v -0.00992135 0.00944674 -0.01202508
v -0.00990723 0.00982309 -0.01200910
v -0.00988798 0.01032582 -0.01198640
v -0.00986745 0.01082854 -0.01196243
v -0.00984692 0.01133219 -0.01193805
v -0.00998294 0.00781218 -0.01208940
v -0.01033967 0.00479398 -0.01192376
v -0.01053857 0.00479398 -0.01167235
v -0.01000219 0.00730853 -0.01210748
v -0.01005737 0.00580036 -0.01215961
v -0.01007405 0.00529671 -0.01217390
v -0.01056295 0.00378853 -0.01170388
v -0.01057322 0.00335775 -0.01171733
v -0.00327562 0.00479398 -0.01308200
v -0.00488348 0.00335775 -0.01315137
v -0.00512729 0.00335775 -0.01325521
v -0.00565597 0.00335775 -0.01343515
v -0.00364518 0.00479398 -0.01319888
v -0.00309854 0.00526442 -0.01311732
v -0.00282906 0.00541017 -0.01305972
v -0.00255574 0.00580036 -0.01299119
v -0.00257627 0.00630308 -0.01298531
v -0.00263915 0.00982309 -0.01289786
v -0.00263915 0.01032582 -0.01288230
v -0.00298947 0.00932036 -0.01301810
v -0.00314217 0.01278041 -0.01294915
v -0.00925408 0.01278041 -0.01239630
v -0.00927205 0.01233765 -0.01241270
v -0.00957488 0.01183492 -0.01217937
v -0.00959541 0.01133219 -0.01219703
v -0.00961594 0.01082854 -0.01221468
v -0.01036534 0.00378853 -0.01195571
v -0.01037689 0.00335775 -0.01196874
v -0.00963648 0.01032582 -0.01223150
v -0.00977506 0.00580036 -0.01241102
v -0.00979046 0.00529671 -0.01242573
v -0.01008816 0.00479398 -0.01218610
v -0.00515295 0.00378853 -0.01339858
v -0.00615899 0.00335775 -0.01349317
v -0.00565597 0.00378853 -0.01347047
v -0.00465122 0.00429125 -0.01336873
v -0.00414820 0.00479398 -0.01332332
v -0.00364518 0.00529671 -0.01325059
v -0.00280725 0.00580036 -0.01306561
v -0.00282778 0.00630308 -0.01305930
v -0.00287526 0.00730853 -0.01304585
v -0.00288809 0.00758342 -0.01304206
v -0.00324097 0.00932036 -0.01307696
v -0.00345270 0.01278041 -0.01302945
v -0.00341934 0.01278041 -0.01302104
v -0.00900257 0.01278041 -0.01259348
v -0.00931311 0.01133219 -0.01244886
v -0.00933364 0.01082854 -0.01246609
v -0.01012538 0.00335775 -0.01221679
v -0.00935417 0.01032582 -0.01248291
v -0.00939395 0.00932036 -0.01251402
v -0.00941448 0.00881671 -0.01252873
v -0.00942603 0.00853261 -0.01253672
v -0.00943758 0.00819776 -0.01254555
v -0.00952355 0.00580036 -0.01260567
v -0.00953895 0.00529671 -0.01261660
v -0.00980458 0.00479398 -0.01243750
v -0.01010100 0.00429125 -0.01219703
v -0.00666200 0.00335775 -0.01349359
v -0.00615899 0.00378853 -0.01349107
v -0.00565597 0.00429125 -0.01346542
v -0.00515295 0.00479398 -0.01343473
v -0.00515295 0.00429125 -0.01343852
v -0.00465122 0.00479398 -0.01339774
v -0.00414820 0.00529671 -0.01333005
v -0.00364518 0.00580036 -0.01324386
v -0.00314217 0.00580036 -0.01314465
v -0.00314217 0.00680581 -0.01311942
v -0.00321274 0.00881671 -0.01308368
v -0.00364518 0.00932036 -0.01316609
v -0.00370421 0.01278041 -0.01307990
v -0.00867407 0.01278041 -0.01278687
v -0.00904107 0.01183492 -0.01261786
v -0.00983024 0.00378853 -0.01245937
v -0.00984179 0.00335775 -0.01246820
v -0.00906160 0.01133219 -0.01263006
v -0.00908213 0.01082854 -0.01264225
v -0.00910266 0.01032582 -0.01265360
v -0.00917709 0.00730853 -0.01274525
v -0.00917709 0.00630308 -0.01279065
v -0.00917709 0.00580036 -0.01281294
v -0.00917709 0.00529671 -0.01283312
v -0.00955307 0.00479398 -0.01262585
v -0.00666200 0.00529671 -0.01345954
v -0.00615899 0.01233765 -0.01334224
v -0.00615899 0.01133219 -0.01335990
v -0.00615899 0.01032582 -0.01337756
v -0.00716502 0.00335775 -0.01345954
v -0.00565597 0.01082854 -0.01335990
v -0.00565597 0.01032582 -0.01336831
v -0.00515295 0.00932036 -0.01335906
v -0.00465122 0.00730853 -0.01335443
v -0.00414820 0.00680581 -0.01330314
v -0.00364518 0.00781218 -0.01320014
v -0.00414820 0.00730853 -0.01329389
v -0.00414820 0.00881671 -0.01326573
v -0.00414820 0.00932036 -0.01325563
v -0.00364518 0.00881671 -0.01317828
v -0.00414820 0.01278041 -0.01316230
v -0.00867407 0.01183492 -0.01282933
v -0.00827243 0.01278041 -0.01298320
v -0.00959028 0.00335775 -0.01265023
v -0.00867407 0.01133219 -0.01285119
v -0.00867407 0.01082854 -0.01287306
v -0.00867407 0.01032582 -0.01289366
v -0.00917709 0.00479398 -0.01285035
v -0.00883832 0.00529671 -0.01300633
v -0.00885757 0.00479398 -0.01301432
v -0.00887682 0.00429125 -0.01302188
v -0.00891146 0.00335775 -0.01303618
v -0.00666200 0.00680581 -0.01343263
v -0.00615899 0.01278041 -0.01333425
v -0.00565597 0.01133219 -0.01335107
v -0.00766804 0.00335775 -0.01339017
v -0.00716502 0.00429125 -0.01344272
v -0.00515295 0.00982309 -0.01334939
v -0.00465122 0.00932036 -0.01331786
v -0.00465122 0.00831399 -0.01333635
v -0.00465122 0.01278041 -0.01323251
v -0.00459091 0.01278041 -0.01322410
v -0.00802092 0.01278041 -0.01307822
v -0.00838792 0.01032582 -0.01302987
v -0.00917709 0.00378853 -0.01288273
v -0.00917709 0.00335775 -0.01289618
v -0.00895253 0.00335775 -0.01301474
v -0.00841101 0.00982309 -0.01303786
v -0.00858681 0.00529671 -0.01310386
v -0.00860606 0.00479398 -0.01311101
v -0.00862531 0.00429125 -0.01311774
v -0.00865996 0.00335775 -0.01312951
v -0.00666200 0.01278041 -0.01332458
v -0.00660169 0.01278041 -0.01332584
v -0.00609868 0.01278041 -0.01333299
v -0.00565597 0.01183492 -0.01334098
v -0.00766804 0.00479398 -0.01336200
v -0.00716502 0.00529671 -0.01342422
v -0.00817105 0.00335775 -0.01328128
v -0.00565597 0.01278041 -0.01332122
v -0.00515295 0.01082854 -0.01332837
v -0.00515295 0.01133219 -0.01331744
v -0.00515295 0.01183492 -0.01330608
v -0.00515295 0.01278041 -0.01328422
v -0.00817105 0.00580036 -0.01322284
v -0.00817105 0.00781218 -0.01316819
v -0.00766804 0.01278041 -0.01317828
v -0.00817105 0.00529671 -0.01323630
v -0.00817105 0.00429125 -0.01325984
v -0.00823906 0.00335775 -0.01326026
v -0.00716502 0.01278041 -0.01327708
v -0.00766804 0.00529671 -0.01335191
v -0.00766804 0.00580036 -0.01334056
v -0.00559566 0.01278041 -0.01331702
f 1 2 3
f 1 3 12
f 1 12 27
f 1 27 44
f 1 44 62
f 1 62 86
f 1 86 111
f 1 111 139
f 1 139 175
f 1 175 217
f 1 217 256
f 1 256 255
f 1 255 297
f 1 297 296
f 1 296 332
f 1 332 366
f 1 366 390
f 1 390 389
f 1 389 416
f 1 416 444
f 1 444 465
f 1 465 464
f 1 464 487
f 1 487 497
f 1 497 483
f 1 483 478
f 1 478 457
f 1 457 477
f 1 477 476
f 1 476 494
f 1 494 490
f 1 490 466
f 1 466 446
f 1 446 417
f 1 417 391
f 1 391 367
f 1 367 337
f 1 337 304
f 1 304 262
f 1 262 218
f 1 218 176
f 1 176 140
f 1 140 116
f 1 116 88
f 1 88 64
f 1 64 46
f 1 46 29
f 1 29 15
f 1 15 4
f 1 4 5
f 1 5 6
f 1 6 7
f 1 7 8
f 1 8 2
f 2 9 3
f 2 8 10
f 2 10 11
f 2 11 9
f 3 9 12
f 4 13 14
f 4 14 5
f 4 15 13
f 5 14 13
f 5 13 15
f 5 15 29
f 5 29 47
f 5 47 66
f 5 66 92
f 5 92 123
f 5 123 153
f 5 153 152
f 5 152 151
f 5 151 196
f 5 196 195
f 5 195 194
f 5 194 237
f 5 237 198
f 5 198 197
f 5 197 154
f 5 154 125
f 5 125 124
f 5 124 95
f 5 95 94
f 5 94 93
f 5 93 72
f 5 72 51
f 5 51 49
f 5 49 48
f 5 48 30
f 5 30 16
f 5 16 7
f 5 7 6
f 7 16 17
f 7 17 8
f 8 17 18
f 8 18 19
f 8 19 20
f 8 20 21
f 8 21 11
f 8 11 10
f 9 11 22
f 9 22 23
f 9 23 12
f 11 21 24
f 11 24 25
f 11 25 22
f 12 26 27
f 12 23 28
f 12 28 26
f 16 30 31
f 16 31 17
f 17 31 18
f 18 31 19
f 19 31 32
f 19 32 33
f 19 33 34
f 19 34 35
f 19 35 20
f 20 35 24
f 20 24 21
f 22 25 36
f 22 36 23
f 23 37 28
f 23 36 38
f 23 38 37
f 24 35 39
f 24 39 40
f 24 40 25
f 25 41 38
f 25 38 36
f 25 40 41
f 26 42 43
f 26 43 44
f 26 44 27
f 26 28 45
f 26 45 42
f 28 37 45
f 29 46 47
f 30 48 32
f 30 32 31
f 32 48 49
f 32 49 33
f 33 50 34
f 33 49 51
f 33 51 50
f 34 50 52
f 34 52 39
f 34 39 35
f 37 38 45
f 38 41 53
f 38 53 54
f 38 54 55
f 38 55 45
f 39 56 40
f 39 52 57
f 39 57 58
f 39 58 59
f 39 59 56
f 40 56 53
f 40 53 41
f 42 60 43
f 42 45 60
f 43 60 61
f 43 61 62
f 43 62 44
f 45 55 60
f 46 63 47
f 46 64 63
f 47 63 65
f 47 65 66
f 50 57 67
f 50 67 52
f 50 51 68
f 50 68 69
f 50 69 70
f 50 70 71
f 50 71 57
f 51 72 68
f 52 67 57
f 53 56 59
f 53 59 73
f 53 73 74
f 53 74 75
f 53 75 54
f 54 75 76
f 54 76 77
f 54 77 78
f 54 78 79
f 54 79 80
f 54 80 81
f 54 81 55
f 55 81 60
f 57 71 58
f 58 82 59
f 58 71 83
f 58 83 82
f 59 82 74
f 59 74 73
f 60 84 61
f 60 81 84
f 61 84 85
f 61 85 86
f 61 86 62
f 63 87 65
f 63 64 87
f 64 88 89
f 64 89 87
f 65 90 66
f 65 87 90
f 66 90 91
f 66 91 92
f 68 72 69
f 69 72 93
f 69 93 94
f 69 94 70
f 70 94 95
f 70 95 96
f 70 96 74
f 70 74 97
f 70 97 83
f 70 83 71
f 74 82 97
f 74 96 98
f 74 98 99
f 74 99 100
f 74 100 75
f 75 101 76
f 75 100 101
f 76 101 77
f 77 101 102
f 77 102 103
f 77 103 104
f 77 104 105
f 77 105 106
f 77 106 78
f 78 106 79
f 79 106 105
f 79 105 107
f 79 107 108
f 79 108 81
f 79 81 80
f 81 108 109
f 81 109 84
f 82 83 97
f 84 109 85
f 85 109 110
f 85 110 86
f 86 110 111
f 87 89 112
f 87 112 113
f 87 113 114
f 87 114 91
f 87 91 90
f 88 115 89
f 88 116 117
f 88 117 115
f 89 117 118
f 89 118 119
f 89 119 120
f 89 120 114
f 89 114 112
f 89 115 117
f 91 114 121
f 91 121 122
f 91 122 123
f 91 123 92
f 95 124 96
f 96 124 125
f 96 125 126
f 96 126 127
f 96 127 128
f 96 128 98
f 98 128 127
f 98 127 129
f 98 129 130
f 98 130 99
f 99 130 131
f 99 131 132
f 99 132 103
f 99 103 100
f 100 103 101
f 101 103 102
f 103 132 104
f 104 132 105
f 105 132 131
f 105 131 133
f 105 133 134
f 105 134 107
f 107 134 108
f 108 134 135
f 108 135 136
f 108 136 137
f 108 137 109
f 109 137 110
f 110 138 111
f 110 137 138
f 111 138 139
f 112 114 113
f 114 120 121
f 116 140 141
f 116 141 142
f 116 142 117
f 117 143 144
f 117 144 118
f 117 142 145
f 117 145 143
f 118 144 121
f 118 121 119
f 119 121 120
f 121 146 147
f 121 147 148
f 121 148 149
f 121 149 150
f 121 150 151
f 121 151 152
f 121 152 122
f 121 144 146
f 122 152 153
f 122 153 123
f 125 154 126
f 126 154 155
f 126 155 156
f 126 156 157
f 126 157 127
f 127 157 158
f 127 158 159
f 127 159 130
f 127 130 129
f 130 159 160
f 130 160 131
f 131 160 161
f 131 161 162
f 131 162 133
f 133 162 163
f 133 163 134
f 134 163 135
f 135 164 136
f 135 163 165
f 135 165 164
f 136 166 167
f 136 167 168
f 136 168 169
f 136 169 170
f 136 170 138
f 136 138 137
f 136 164 171
f 136 171 172
f 136 172 173
f 136 173 166
f 138 170 174
f 138 174 139
f 139 174 175
f 140 176 141
f 141 177 142
f 141 176 177
f 142 177 145
f 143 178 179
f 143 179 144
f 143 145 178
f 144 179 180
f 144 180 147
f 144 147 146
f 145 181 182
f 145 182 183
f 145 183 178
f 145 177 184
f 145 184 185
f 145 185 186
f 145 186 187
f 145 187 181
f 147 188 189
f 147 189 190
f 147 190 191
f 147 191 148
f 147 180 192
f 147 192 188
f 148 191 193
f 148 193 149
f 149 193 194
f 149 194 150
f 150 194 195
f 150 195 196
f 150 196 151
f 154 197 155
f 155 197 198
f 155 198 156
f 156 199 157
f 156 198 200
f 156 200 199
f 157 199 158
f 158 199 201
f 158 201 159
f 159 201 202
f 159 202 203
f 159 203 160
f 160 203 204
f 160 204 161
f 161 204 165
f 161 165 162
f 162 165 163
f 164 205 172
f 164 172 171
f 164 165 205
f 165 204 206
f 165 206 205
f 166 207 167
f 166 173 207
f 167 207 208
f 167 208 209
f 167 209 210
f 167 210 211
f 167 211 168
f 168 211 212
f 168 212 213
f 168 213 174
f 168 174 169
f 169 174 170
f 172 205 173
f 173 205 214
f 173 214 215
f 173 215 216
f 173 216 208
f 173 208 207
f 174 213 175
f 175 213 217
f 176 218 219
f 176 219 184
f 176 184 177
f 178 183 180
f 178 180 179
f 180 183 192
f 181 187 220
f 181 220 221
f 181 221 182
f 182 192 183
f 182 221 220
f 182 220 187
f 182 187 222
f 182 222 189
f 182 189 188
f 182 188 192
f 184 219 185
f 185 219 223
f 185 223 224
f 185 224 186
f 186 224 225
f 186 225 226
f 186 226 227
f 186 227 228
f 186 228 230
f 186 230 229
f 186 229 222
f 186 222 187
f 189 222 229
f 189 229 230
f 189 230 231
f 189 231 232
f 189 232 233
f 189 233 190
f 190 233 234
f 190 234 191
f 191 234 193
f 193 234 235
f 193 235 236
f 193 236 275
f 193 275 274
f 193 274 273
f 193 273 231
f 193 231 269
f 193 269 315
f 193 315 311
f 193 311 353
f 193 353 373
f 193 373 394
f 193 394 420
f 193 420 447
f 193 447 469
f 193 469 470
f 193 470 455
f 193 455 475
f 193 475 493
f 193 493 482
f 193 482 459
f 193 459 433
f 193 433 404
f 193 404 379
f 193 379 357
f 193 357 356
f 193 356 355
f 193 355 334
f 193 334 322
f 193 322 321
f 193 321 320
f 193 320 316
f 193 316 276
f 193 276 238
f 193 238 200
f 193 200 237
f 193 237 194
f 198 237 200
f 199 200 201
f 200 238 239
f 200 239 240
f 200 240 241
f 200 241 242
f 200 242 243
f 200 243 244
f 200 244 201
f 201 244 243
f 201 243 202
f 202 243 203
f 203 243 245
f 203 245 246
f 203 246 206
f 203 206 204
f 205 206 214
f 206 246 214
f 208 216 247
f 208 247 248
f 208 248 249
f 208 249 209
f 209 249 210
f 210 249 248
f 210 248 250
f 210 250 251
f 210 251 252
f 210 252 253
f 210 253 213
f 210 213 211
f 211 213 212
f 213 253 254
f 213 254 255
f 213 255 256
f 213 256 217
f 214 246 215
f 215 257 216
f 215 246 257
f 216 257 247
f 218 258 259
f 218 259 260
f 218 260 261
f 218 261 223
f 218 223 219
f 218 262 302
f 218 302 258
f 223 261 224
f 224 261 260
f 224 260 225
f 225 260 259
f 225 259 226
f 226 259 227
f 227 259 263
f 227 263 264
f 227 264 265
f 227 265 266
f 227 266 267
f 227 267 228
f 228 268 269
f 228 269 270
f 228 270 271
f 228 271 272
f 228 272 230
f 228 267 268
f 230 272 271
f 230 271 231
f 231 273 232
f 231 271 270
f 231 270 269
f 232 273 274
f 232 274 235
f 232 235 234
f 232 234 233
f 235 274 275
f 235 275 236
f 238 276 277
f 238 277 239
f 239 277 278
f 239 278 279
f 239 279 240
f 240 279 241
f 241 279 278
f 241 278 280
f 241 280 281
f 241 281 282
f 241 282 242
f 242 282 243
f 243 282 283
f 243 283 245
f 245 283 246
f 246 283 284
f 246 284 257
f 247 285 286
f 247 286 248
f 247 257 285
f 248 286 250
f 250 286 287
f 250 287 288
f 250 288 289
f 250 289 290
f 250 290 291
f 250 291 251
f 251 291 292
f 251 292 293
f 251 293 294
f 251 294 295
f 251 295 252
f 252 295 254
f 252 254 253
f 254 295 296
f 254 296 297
f 254 297 255
f 257 284 298
f 257 298 299
f 257 299 300
f 257 300 301
f 257 301 285
f 258 302 336
f 258 336 303
f 258 303 259
f 259 303 263
f 262 304 302
f 263 303 305
f 263 305 306
f 263 306 307
f 263 307 264
f 264 307 308
f 264 308 265
f 265 308 266
f 266 309 267
f 266 308 310
f 266 310 309
f 267 309 311
f 267 311 312
f 267 312 268
f 268 313 269
f 268 312 313
f 269 313 314
f 269 314 315
f 276 316 278
f 276 278 277
f 278 317 318
f 278 318 319
f 278 319 280
f 278 316 320
f 278 320 321
f 278 321 322
f 278 322 317
f 280 323 283
f 280 283 281
f 280 319 323
f 281 283 282
f 283 323 284
f 284 323 298
f 285 301 300
f 285 300 324
f 285 324 325
f 285 325 326
f 285 326 287
f 285 287 286
f 287 326 327
f 287 327 288
f 288 327 328
f 288 328 329
f 288 329 289
f 289 329 292
f 289 292 290
f 290 292 291
f 292 329 330
f 292 330 331
f 292 331 293
f 293 331 294
f 294 331 295
f 295 331 296
f 296 331 332
f 298 323 299
f 299 323 333
f 299 333 318
f 299 318 334
f 299 334 300
f 300 334 335
f 300 335 324
f 302 304 336
f 303 336 345
f 303 345 305
f 304 337 338
f 304 338 339
f 304 339 340
f 304 340 341
f 304 341 342
f 304 342 343
f 304 343 344
f 304 344 345
f 304 345 336
f 305 345 344
f 305 344 306
f 306 344 343
f 306 343 307
f 307 343 308
f 308 343 342
f 308 342 341
f 308 341 340
f 308 340 339
f 308 339 346
f 308 346 310
f 309 310 347
f 309 347 348
f 309 348 311
f 310 346 349
f 310 349 350
f 310 350 351
f 310 351 347
f 311 348 352
f 311 352 353
f 311 315 312
f 312 315 313
f 313 315 314
f 317 322 318
f 318 333 319
f 318 322 334
f 319 333 323
f 324 354 325
f 324 335 355
f 324 355 356
f 324 356 357
f 324 357 354
f 325 354 358
f 325 358 359
f 325 359 360
f 325 360 326
f 326 360 327
f 327 361 328
f 327 360 361
f 328 361 362
f 328 362 363
f 328 363 364
f 328 364 330
f 328 330 329
f 330 364 365
f 330 365 366
f 330 366 332
f 330 332 331
f 334 355 335
f 337 367 368
f 337 368 338
f 338 369 339
f 338 368 392
f 338 392 369
f 339 369 370
f 339 370 371
f 339 371 346
f 346 371 349
f 347 372 373
f 347 373 348
f 347 351 372
f 348 373 352
f 349 371 374
f 349 374 350
f 350 374 395
f 350 395 375
f 350 375 351
f 351 375 376
f 351 376 377
f 351 377 373
f 351 373 372
f 352 373 353
f 354 357 378
f 354 378 358
f 357 379 380
f 357 380 381
f 357 381 378
f 358 378 381
f 358 381 382
f 358 382 359
f 359 382 383
f 359 383 360
f 360 384 361
f 360 383 384
f 361 384 362
f 362 384 385
f 362 385 386
f 362 386 387
f 362 387 363
f 363 387 364
f 364 387 365
f 365 387 388
f 365 388 389
f 365 389 390
f 365 390 366
f 367 391 368
f 368 391 392
f 369 392 370
f 370 392 371
f 371 392 393
f 371 393 395
f 371 395 374
f 373 377 394
f 375 395 396
f 375 396 397
f 375 397 398
f 375 398 399
f 375 399 376
f 376 399 400
f 376 400 401
f 376 401 402
f 376 402 377
f 377 402 419
f 377 419 403
f 377 403 394
f 379 404 405
f 379 405 380
f 380 406 407
f 380 407 408
f 380 408 381
f 380 405 406
f 381 408 409
f 381 409 382
f 382 409 410
f 382 410 383
f 383 411 412
f 383 412 384
f 383 410 411
f 384 412 385
f 385 412 386
f 386 412 387
f 387 412 413
f 387 413 414
f 387 414 388
f 388 414 415
f 388 415 389
f 389 415 416
f 391 417 418
f 391 418 398
f 391 398 397
f 391 397 396
f 391 396 395
f 391 395 393
f 391 393 392
f 394 403 419
f 394 419 420
f 398 418 421
f 398 421 422
f 398 422 423
f 398 423 399
f 399 423 400
f 400 423 424
f 400 424 425
f 400 425 426
f 400 426 427
f 400 427 401
f 401 428 420
f 401 420 419
f 401 419 402
f 401 427 428
f 404 429 430
f 404 430 431
f 404 431 432
f 404 432 405
f 404 433 429
f 405 432 434
f 405 434 435
f 405 435 406
f 406 435 407
f 407 436 409
f 407 409 408
f 407 435 436
f 409 437 410
f 409 436 437
f 410 438 411
f 410 437 438
f 411 439 412
f 411 438 440
f 411 440 441
f 411 441 442
f 411 442 439
f 412 439 443
f 412 443 415
f 412 415 413
f 413 415 414
f 415 444 416
f 415 443 442
f 415 442 444
f 417 445 423
f 417 423 422
f 417 422 421
f 417 421 418
f 417 446 445
f 420 428 447
f 423 425 424
f 423 445 425
f 425 445 426
f 426 445 448
f 426 448 449
f 426 449 450
f 426 450 427
f 427 451 428
f 427 450 452
f 427 452 453
f 427 453 454
f 427 454 455
f 427 455 451
f 428 451 447
f 429 456 430
f 429 433 456
f 430 456 457
f 430 457 458
f 430 458 431
f 431 458 432
f 432 458 434
f 433 459 460
f 433 460 456
f 434 458 436
f 434 436 435
f 436 461 462
f 436 462 463
f 436 463 437
f 436 458 461
f 437 463 438
f 438 463 462
f 438 462 440
f 439 442 443
f 440 462 441
f 441 462 442
f 442 462 464
f 442 464 465
f 442 465 444
f 445 446 448
f 446 466 467
f 446 467 449
f 446 449 448
f 447 451 468
f 447 468 469
f 449 467 450
f 450 467 452
f 451 455 470
f 451 470 468
f 452 467 471
f 452 471 453
f 453 471 454
f 454 471 455
f 455 471 472
f 455 472 473
f 455 473 474
f 455 474 475
f 456 476 477
f 456 477 457
f 456 460 476
f 457 478 458
f 458 478 479
f 458 479 461
f 459 480 481
f 459 481 460
f 459 482 480
f 460 481 476
f 461 479 483
f 461 483 484
f 461 484 462
f 462 484 485
f 462 485 486
f 462 486 487
f 462 487 464
f 466 488 489
f 466 489 471
f 466 471 467
f 466 490 488
f 468 470 469
f 471 489 488
f 471 488 472
f 472 488 491
f 472 491 473
f 473 491 474
f 474 491 475
f 475 491 492
f 475 492 493
f 476 481 494
f 478 483 479
f 480 495 494
f 480 494 481
f 480 482 495
f 482 493 492
f 482 492 496
f 482 496 495
f 483 497 484
f 484 497 485
f 485 497 486
f 486 497 487
f 488 490 491
f 490 496 492
f 490 492 491
f 490 494 496
f 494 495 496

