# https://github.com/mikedh/trimesh
v -0.00341780 0.00335775 0.00011005
v -0.00452114 0.00335775 0.00091461
v -0.00635328 0.00145856 0.00108639
v -0.00341780 -0.00041001 -0.00222435
v -0.00341780 0.00335775 -0.01210519
v -0.00479592 0.00335775 0.00110547
v -0.00617489 0.00180601 0.00115392
v -0.00667456 0.00128373 0.00116273
v -0.00684957 0.00096357 0.00108345
v -0.00706432 0.00062829 0.00094397
v -0.00739997 0.00050767 0.00104968
v -0.00740336 0.00000826 0.00054610
v -0.00720805 -0.00013117 0.00028329
v -0.00716578 -0.00041001 -0.00004411
v -0.00341780 -0.00041001 -0.00977519
v -0.00356914 0.00335775 -0.01221824
v -0.00488216 0.00335775 0.00115099
v -0.00615967 0.00227851 0.00134185
v -0.00666272 0.00177577 0.00136681
v -0.00716578 0.00127303 0.00134038
v -0.00720552 0.00078578 0.00113484
v -0.00766883 0.00076992 0.00124348
v -0.00766883 0.00045677 0.00108786
v -0.00766883 0.00020522 0.00084561
v -0.00766883 -0.00003416 0.00059455
v -0.00752510 -0.00041001 0.00013207
v -0.00739237 -0.00041001 0.00007922
v -0.00716578 -0.00041001 -0.01195250
v -0.00721059 -0.00012822 -0.01228430
v -0.00707362 0.00010711 -0.01245021
v -0.00740928 0.00051394 -0.01304482
v -0.00707362 0.00063087 -0.01294352
v -0.00685126 0.00096652 -0.01308152
v -0.00635244 0.00145856 -0.01308740
v -0.00456595 0.00335775 -0.01294352
v -0.00502251 0.00335775 0.00121852
v -0.00558390 0.00335775 0.00142407
v -0.00565661 0.00328472 0.00142847
v -0.00615967 0.00278161 0.00145930
v -0.00666272 0.00227851 0.00147545
v -0.00716578 0.00177577 0.00144903
v -0.00766883 0.00127303 0.00138590
v -0.00817105 0.00040624 0.00111575
v -0.00817105 0.00076992 0.00125082
v -0.00817105 0.00015469 0.00090874
v -0.00817105 -0.00008875 0.00065621
v -0.00769335 -0.00041001 0.00018640
v -0.00763163 -0.00032186 0.00026421
v -0.00752764 -0.00041001 -0.01213014
v -0.00740843 0.00001121 -0.01254270
v -0.00766883 0.00046083 -0.01308446
v -0.00766883 0.00076992 -0.01323862
v -0.00721143 0.00078726 -0.01312851
v -0.00766883 0.00020928 -0.01284662
v -0.00667541 0.00128373 -0.01316815
v -0.00617489 0.00180601 -0.01315346
v -0.00488385 0.00335775 -0.01315053
v -0.00472744 0.00335775 -0.01305363
v -0.00565661 0.00335775 0.00143435
v -0.00615967 0.00328472 0.00149307
v -0.00666272 0.00278161 0.00150041
v -0.00716578 0.00227851 0.00147692
v -0.00766883 0.00177577 0.00141673
v -0.00817105 0.00127303 0.00131542
v -0.00867410 0.00045936 0.00107611
v -0.00867410 0.00020780 0.00090580
v -0.00867410 0.00076992 0.00114512
v -0.00892690 0.00051727 0.00104087
v -0.00867410 -0.00008912 0.00065328
v -0.00817105 -0.00034030 0.00036845
v -0.00817105 -0.00041001 0.00028623
v -0.00769674 -0.00041001 -0.01218594
v -0.00763502 -0.00032149 -0.01226522
v -0.00766883 -0.00003490 -0.01259556
v -0.00817105 0.00040772 -0.01311676
v -0.00817105 0.00015616 -0.01290828
v -0.00817105 0.00076992 -0.01325183
v -0.00766883 0.00127303 -0.01338397
v -0.00716578 0.00127303 -0.01334286
v -0.00817105 -0.00009170 -0.01265722
v -0.00666272 0.00177577 -0.01337222
v -0.00615967 0.00227851 -0.01334139
v -0.00512312 0.00325558 -0.01322100
v -0.00512904 0.00335775 -0.01325477
v -0.00608696 0.00335775 0.00148867
v -0.00615967 0.00335775 0.00149307
v -0.00666272 0.00328472 0.00149601
v -0.00716578 0.00278161 0.00146958
v -0.00766883 0.00227851 0.00141232
v -0.00817105 0.00177577 0.00131396
v -0.00867410 0.00127303 0.00116861
v -0.00942995 0.00001453 0.00053876
v -0.00917631 -0.00002973 0.00058574
v -0.00894972 0.00076992 0.00105262
v -0.00920083 0.00076992 0.00093076
v -0.00965231 0.00076992 0.00067970
v -0.00954071 0.00026719 0.00060776
v -0.00919660 -0.00041001 0.00015116
v -0.00882375 -0.00041001 0.00024072
v -0.00867410 -0.00034067 0.00035670
v -0.00867410 -0.00041001 0.00027155
v -0.00802816 -0.00041001 -0.01226669
v -0.00858955 0.00044313 -0.01308740
v -0.00867410 -0.00008949 -0.01265135
v -0.00817105 0.00127303 -0.01331790
v -0.00892521 0.00051911 -0.01304041
v -0.00872398 0.00072013 -0.01312557
v -0.00766883 0.00177577 -0.01341774
v -0.00716578 0.00177577 -0.01345444
v -0.00817105 -0.00034325 -0.01237093
v -0.00666272 0.00227851 -0.01347206
v -0.00615967 0.00278161 -0.01345885
v -0.00565661 0.00328472 -0.01342801
v -0.00565661 0.00335775 -0.01343389
v -0.00659001 0.00335775 0.00149454
v -0.00666272 0.00335775 0.00149454
v -0.00709307 0.00335775 0.00146518
v -0.00716578 0.00328472 0.00146077
v -0.00759528 0.00335775 0.00140058
v -0.00766883 0.00335775 0.00139030
v -0.00716578 0.00335775 0.00145930
v -0.00817105 0.00335775 0.00127725
v -0.00857095 0.00335775 0.00114512
v -0.00863859 0.00328472 0.00112456
v -0.00896156 0.00127303 0.00105849
v -0.00979181 0.00026719 0.00044479
v -0.01000065 -0.00004191 0.00009096
v -0.00963033 -0.00011383 0.00027008
v -0.00967937 -0.00039674 -0.00006613
v -0.00963033 -0.00041001 -0.00004998
v -0.00930736 -0.00041001 0.00011886
v -0.00921351 0.00127303 0.00092929
v -0.00964639 0.00127303 0.00067677
v -0.00990342 0.00076992 0.00051820
v -0.00817105 -0.00041001 -0.01229164
v -0.00872398 0.00027235 -0.01293030
v -0.00867410 -0.00034104 -0.01236505
v -0.00913911 -0.00041001 -0.01217859
v -0.00917631 -0.00003158 -0.01258675
v -0.00817105 0.00177577 -0.01331790
v -0.00867410 0.00127303 -0.01317549
v -0.00914757 0.00072013 -0.01295526
v -0.00896072 0.00085439 -0.01305803
v -0.00943249 0.00001305 -0.01253977
v -0.00954156 0.00026719 -0.01261024
v -0.00964978 0.00076992 -0.01268365
v -0.00766883 0.00227851 -0.01341186
v -0.00716578 0.00278161 -0.01346912
v -0.00716578 0.00227851 -0.01347500
v -0.00666272 0.00278161 -0.01349849
v -0.00851346 -0.00041001 -0.01228724
v -0.00615967 0.00328472 -0.01349261
v -0.00615967 0.00335775 -0.01349261
v -0.00863690 0.00335775 0.00112309
v -0.00888885 0.00335775 0.00102619
v -0.00917631 0.00335775 0.00087937
v -0.01043606 0.00051431 0.00003664
v -0.01017397 0.00031477 0.00016290
v -0.01033630 0.00017903 -0.00006173
v -0.01049017 -0.00004596 -0.00039647
v -0.01015790 -0.00021157 -0.00024231
v -0.01004546 -0.00041001 -0.00035536
v -0.00971065 -0.00041001 -0.00010137
v -0.00967937 -0.00041001 -0.00008081
v -0.00952887 0.00335775 0.00067677
v -0.00958721 0.00335775 0.00064300
v -0.00958890 0.00328472 0.00064447
v -0.00989834 0.00127303 0.00051380
v -0.01018242 0.00076992 0.00027155
v -0.00867410 -0.00041001 -0.01228430
v -0.00931412 -0.00041001 -0.01212280
v -0.00920590 -0.00031743 -0.01226081
v -0.00867410 0.00177577 -0.01316521
v -0.00817105 0.00335775 -0.01328120
v -0.00766883 0.00335775 -0.01338984
v -0.00897255 0.00127303 -0.01306391
v -0.00922366 0.00127303 -0.01293471
v -0.00963202 -0.00011863 -0.01227403
v -0.01000318 -0.00004781 -0.01209785
v -0.00979351 0.00026719 -0.01244874
v -0.00943756 -0.00041001 -0.01206995
v -0.00964639 -0.00041001 -0.01194662
v -0.00967937 -0.00040153 -0.01193635
v -0.00990173 0.00076992 -0.01251628
v -0.00964470 0.00127303 -0.01268365
v -0.00716578 0.00335775 -0.01345885
v -0.00716578 0.00328472 -0.01346031
v -0.00673543 0.00335775 -0.01348821
v -0.00666272 0.00328472 -0.01349408
v -0.00666272 0.00335775 -0.01349261
v -0.01064067 0.00076992 -0.00021589
v -0.01088755 0.00076992 -0.00054623
v -0.01083175 0.00026719 -0.00062551
v -0.01055189 0.00031477 -0.00022323
v -0.01043776 0.00076992 0.00003958
v -0.01093997 0.00001158 -0.00096612
v -0.01063813 -0.00018502 -0.00078994
v -0.01050539 -0.00041001 -0.00090152
v -0.01034644 -0.00041001 -0.00069157
v -0.01031432 -0.00038124 -0.00061376
v -0.01029656 -0.00041001 -0.00063138
v -0.00980196 0.00335775 0.00049618
v -0.00985353 0.00278161 0.00048297
v -0.00983832 0.00335775 0.00046975
v -0.01008435 0.00335775 0.00025540
v -0.01015452 0.00227851 0.00024219
v -0.01016720 0.00177577 0.00025246
v -0.01022977 0.00126049 0.00021869
v -0.01043691 0.00108418 0.00003811
v -0.00895902 0.00177577 -0.01305803
v -0.00894634 0.00227851 -0.01305069
v -0.00892436 0.00302542 -0.01304041
v -0.00872398 0.00282735 -0.01311970
v -0.00866311 0.00328472 -0.01312997
v -0.00866057 0.00335775 -0.01312851
v -0.00921098 0.00177577 -0.01292737
v -0.01004630 -0.00041001 -0.01164565
v -0.01015875 -0.00021489 -0.01175723
v -0.01049271 -0.00004633 -0.01160160
v -0.01033799 0.00017608 -0.01193635
v -0.01017566 0.00031329 -0.01216685
v -0.01043776 0.00051136 -0.01203912
v -0.00967937 -0.00041001 -0.01192607
v -0.01018242 0.00076992 -0.01226962
v -0.00989581 0.00127303 -0.01251040
v -0.00959228 0.00328472 -0.01265135
v -0.01058909 0.00126049 -0.00017037
v -0.01061361 0.00177577 -0.00023350
v -0.01060093 0.00227851 -0.00024819
v -0.01057641 0.00328472 -0.00027902
v -0.01087656 0.00127303 -0.00056384
v -0.01102789 0.00127303 -0.00081490
v -0.01103804 0.00076992 -0.00079728
v -0.01099239 0.00026719 -0.00087657
v -0.01058402 -0.00041001 -0.00102045
v -0.01116486 0.00026719 -0.00122306
v -0.01136355 0.00024948 -0.00170755
v -0.01141766 0.00007022 -0.00205845
v -0.01100084 -0.00007068 -0.00122306
v -0.01091460 -0.00041001 -0.00159304
v -0.01087317 -0.00041001 -0.00150935
v -0.01078947 -0.00032223 -0.00122306
v -0.01071169 -0.00041001 -0.00122306
v -0.01012578 0.00335775 0.00021869
v -0.01042846 0.00141946 0.00002930
v -0.00891168 0.00335775 -0.01303601
v -0.00913235 0.00282735 -0.01293617
v -0.00917631 0.00328472 -0.01289800
v -0.00869693 0.00335775 -0.01311529
v -0.00923549 0.00335775 -0.01286130
v -0.01024837 -0.00041001 -0.01143276
v -0.01031432 -0.00038161 -0.01139606
v -0.01050286 -0.00041001 -0.01112738
v -0.01058318 -0.00022264 -0.01124924
v -0.01093574 0.00001895 -0.01102608
v -0.01085204 0.00021887 -0.01130209
v -0.01055358 0.00031329 -0.01177485
v -0.01043860 0.00076992 -0.01203912
v -0.01100760 0.00035423 -0.01114940
v -0.01088585 0.00076992 -0.01145185
v -0.01063898 0.00076992 -0.01178365
v -0.01043691 0.00107127 -0.01203765
v -0.00984423 0.00328472 -0.01246929
v -0.00959059 0.00335775 -0.01264988
v -0.01022892 0.00125274 -0.01221530
v -0.01016636 0.00177577 -0.01224907
v -0.01015368 0.00227851 -0.01223879
v -0.01037942 0.00328472 -0.00002796
v -0.01054598 0.00335775 -0.00024525
v -0.01057472 0.00335775 -0.00028195
v -0.01086472 0.00177577 -0.00058293
v -0.01099154 0.00278161 -0.00087510
v -0.01101606 0.00177577 -0.00083546
v -0.01123926 0.00127303 -0.00122306
v -0.01125786 0.00076992 -0.00122306
v -0.01147938 0.00040550 -0.00186318
v -0.01108961 -0.00025215 -0.00173545
v -0.01153011 0.00024948 -0.00222729
v -0.01166031 0.00026719 -0.00273087
v -0.01146247 -0.00001904 -0.00239319
v -0.01128830 -0.00020641 -0.00222729
v -0.01101690 -0.00041001 -0.00183675
v -0.01034053 0.00335775 0.00000581
v -0.00895311 0.00335775 -0.01301399
v -0.00917631 0.00335775 -0.01289506
v -0.01029656 -0.00041001 -0.01137991
v -0.01060009 -0.00041001 -0.01096882
v -0.01069816 -0.00041001 -0.01080438
v -0.01082160 -0.00024846 -0.01082640
v -0.01088416 -0.00041001 -0.01045349
v -0.01089516 -0.00041001 -0.01043146
v -0.01101606 -0.00008949 -0.01068986
v -0.01141681 0.00007649 -0.00994403
v -0.01136101 0.00025317 -0.01028758
v -0.01111582 0.00021887 -0.01082640
v -0.01147430 0.00041178 -0.01012902
v -0.01125702 0.00076992 -0.01077795
v -0.01103720 0.00076992 -0.01120079
v -0.01087486 0.00127303 -0.01143423
v -0.01057472 0.00328472 -0.01171906
v -0.01058656 0.00278161 -0.01173521
v -0.01059924 0.00227851 -0.01174989
v -0.01061108 0.00177577 -0.01176457
v -0.01058656 0.00125274 -0.01182917
v -0.01012493 0.00335775 -0.01221677
v -0.01012747 0.00328472 -0.01221824
v -0.01041831 0.00177577 -0.01201710
v -0.00988313 0.00335775 -0.01243112
v -0.00984170 0.00335775 -0.01246783
v -0.01037688 0.00335775 -0.00003090
v -0.01078947 0.00335775 -0.00059468
v -0.01085288 0.00227851 -0.00060348
v -0.01084020 0.00278161 -0.00062404
v -0.01082836 0.00328472 -0.00064606
v -0.01095518 0.00335775 -0.00086335
v -0.01097717 0.00335775 -0.00090006
v -0.01118853 0.00227851 -0.00122306
v -0.01139990 0.00127303 -0.00158716
v -0.01140836 0.00076992 -0.00156074
v -0.01149713 0.00076992 -0.00181326
v -0.01162649 0.00076992 -0.00222876
v -0.01175585 0.00076992 -0.00273087
v -0.01150136 -0.00007473 -0.00273087
v -0.01175162 0.00026719 -0.00323446
v -0.01133057 -0.00032629 -0.00273087
v -0.01114626 -0.00041001 -0.00222729
v -0.01090615 -0.00041001 -0.01040650
v -0.01101437 -0.00041001 -0.01015838
v -0.01108708 -0.00024846 -0.01026116
v -0.01128830 -0.00020752 -0.00977372
v -0.01146416 -0.00002125 -0.00960782
v -0.01152757 0.00025317 -0.00977372
v -0.01165862 0.00026719 -0.00926867
v -0.01175162 0.00076992 -0.00926867
v -0.01162226 0.00076992 -0.00977225
v -0.01149206 0.00076992 -0.01018041
v -0.01140751 0.00076992 -0.01043146
v -0.01139906 0.00127303 -0.01040944
v -0.01123588 0.00127303 -0.01077795
v -0.01102536 0.00127303 -0.01118170
v -0.01083851 0.00278161 -0.01136963
v -0.01085035 0.00227851 -0.01139165
v -0.01057303 0.00335775 -0.01171612
v -0.01099999 0.00227851 -0.01114059
v -0.01040563 0.00335775 -0.01193194
v -0.01039210 0.00278161 -0.01198626
v -0.01037688 0.00335775 -0.01196865
v -0.01082583 0.00335775 -0.00064900
v -0.01113189 0.00335775 -0.00122306
v -0.01116232 0.00278161 -0.00122306
v -0.01138722 0.00177577 -0.00162680
v -0.01148783 0.00127303 -0.00183822
v -0.01160789 0.00127303 -0.00222876
v -0.01173809 0.00127303 -0.00273087
v -0.01183194 0.00127303 -0.00323446
v -0.01184716 0.00076992 -0.00323446
v -0.01154871 -0.00014481 -0.00323446
v -0.01194185 0.00059251 -0.00400085
v -0.01196214 0.00046784 -0.00433706
v -0.01181757 0.00026719 -0.00373804
v -0.01127139 -0.00041001 -0.00273087
v -0.01137792 -0.00039637 -0.00323446
v -0.01108031 -0.00041001 -0.00997339
v -0.01114711 -0.00041001 -0.00977225
v -0.01123757 -0.00041001 -0.00941989
v -0.01127562 -0.00041001 -0.00926867
v -0.01133226 -0.00032924 -0.00926867
v -0.01150305 -0.00007805 -0.00926867
v -0.01174993 0.00026719 -0.00876508
v -0.01195030 0.00049772 -0.00805742
v -0.01184631 0.00076992 -0.00876508
v -0.01183532 0.00127303 -0.00876508
v -0.01173725 0.00127303 -0.00926867
v -0.01160873 0.00127303 -0.00977225
v -0.01148614 0.00127303 -0.01015838
v -0.01133396 0.00328472 -0.01027437
v -0.01132973 0.00335775 -0.01027437
v -0.01112597 0.00335775 -0.01077795
v -0.01115641 0.00278161 -0.01077795
v -0.01099323 0.00335775 -0.01104957
v -0.01097378 0.00328472 -0.01109655
v -0.01098731 0.00278161 -0.01111857
v -0.01084612 0.00335775 -0.01130797
v -0.01082414 0.00335775 -0.01134467
v -0.01130436 0.00335775 -0.00165323
v -0.01133311 0.00335775 -0.00172517
v -0.01133734 0.00328472 -0.00172517
v -0.01137538 0.00282440 -0.00176041
v -0.01144894 0.00268497 -0.00195127
v -0.01150643 0.00335775 -0.00226106
v -0.01143964 0.00302062 -0.00197917
v -0.01162649 0.00328472 -0.00273087
v -0.01172034 0.00328472 -0.00323446
v -0.01194523 0.00105135 -0.00397442
v -0.01194523 0.00092779 -0.00397442
v -0.01191733 0.00076402 -0.00377915
v -0.01158337 -0.00018981 -0.00373804
v -0.01196806 0.00076402 -0.00419758
v -0.01201710 0.00076992 -0.00474374
v -0.01187252 0.00028710 -0.00419758
v -0.01197990 0.00042468 -0.00474374
v -0.01186829 0.00017313 -0.00474374
v -0.01136777 -0.00041001 -0.00323446
v -0.01143034 -0.00041001 -0.00373804
v -0.01138722 -0.00041001 -0.00338862
v -0.01136439 -0.00041001 -0.00879004
v -0.01154871 -0.00014518 -0.00876508
v -0.01184462 0.00030481 -0.00823947
v -0.01185815 0.00021592 -0.00775938
v -0.01196130 0.00046710 -0.00775938
v -0.01201118 0.00076992 -0.00725726
v -0.01198243 0.00076992 -0.00775938
v -0.01195369 0.00076992 -0.00808238
v -0.01191649 0.00076992 -0.00833344
v -0.01194946 0.00113102 -0.00806036
v -0.01191649 0.00128852 -0.00824241
v -0.01172034 0.00328472 -0.00876508
v -0.01162480 0.00328472 -0.00926867
v -0.01170934 0.00177577 -0.00926867
v -0.01150643 0.00335775 -0.00973408
v -0.01150897 0.00328472 -0.00973995
v -0.01158168 0.00177577 -0.00977225
v -0.01143034 0.00328472 -0.00999248
v -0.01134579 0.00335775 -0.01022739
v -0.01097209 0.00335775 -0.01109214
v -0.01141428 0.00335775 -0.00196302
v -0.01162226 0.00335775 -0.00273087
v -0.01143203 0.00328472 -0.00200266
v -0.01142949 0.00335775 -0.00201000
v -0.01170258 0.00335775 -0.00316105
v -0.01171611 0.00335775 -0.00323446
v -0.01177191 0.00335775 -0.00366463
v -0.01178121 0.00335775 -0.00373804
v -0.01194439 0.00205351 -0.00447800
v -0.01196383 0.00124057 -0.00423429
v -0.01160451 -0.00021268 -0.00424016
v -0.01143541 -0.00041001 -0.00380558
v -0.01200272 0.00127303 -0.00474374
v -0.01203992 0.00076992 -0.00524586
v -0.01199173 0.00039739 -0.00524586
v -0.01187759 0.00014584 -0.00524586
v -0.01136777 -0.00041001 -0.00876508
v -0.01137792 -0.00039674 -0.00876508
v -0.01158252 -0.00019018 -0.00826297
v -0.01160704 -0.00021748 -0.00775938
v -0.01187421 0.00017829 -0.00725726
v -0.01197398 0.00042985 -0.00725726
v -0.01205176 0.00076992 -0.00625009
v -0.01203316 0.00076992 -0.00675368
v -0.01200357 0.00127303 -0.00725726
v -0.01196721 0.00128852 -0.00778728
v -0.01193931 0.00146631 -0.00797227
v -0.01179305 0.00335775 -0.00826297
v -0.01185646 0.00227851 -0.00826297
v -0.01171611 0.00335775 -0.00876508
v -0.01162057 0.00335775 -0.00926867
v -0.01152165 0.00335775 -0.00967242
v -0.01143964 0.00335775 -0.00994990
v -0.01142780 0.00335775 -0.00998514
v -0.01182602 0.00335775 -0.00416675
v -0.01195284 0.00177577 -0.00441194
v -0.01183363 0.00335775 -0.00424016
v -0.01187929 0.00335775 -0.00474374
v -0.01195115 0.00217006 -0.00474374
v -0.01197398 0.00177577 -0.00474374
v -0.01188774 0.00012776 -0.00574945
v -0.01161634 -0.00022596 -0.00474374
v -0.01146754 -0.00041001 -0.00435468
v -0.01146247 -0.00041001 -0.00424016
v -0.01194270 0.00252637 -0.00500068
v -0.01202471 0.00127303 -0.00524586
v -0.01204162 0.00127303 -0.00574945
v -0.01205514 0.00076992 -0.00574945
v -0.01199765 0.00037932 -0.00574945
v -0.01138722 -0.00041001 -0.00861386
v -0.01143034 -0.00041001 -0.00826297
v -0.01146923 -0.00041001 -0.00775938
v -0.01158760 -0.00028313 -0.00723965
v -0.01163917 -0.00023592 -0.00675368
v -0.01188520 0.00014768 -0.00675368
v -0.01198581 0.00039923 -0.00675368
v -0.01203908 0.00127303 -0.00625009
v -0.01202302 0.00127303 -0.00675368
v -0.01199596 0.00037821 -0.00625009
v -0.01194270 0.00252452 -0.00699593
v -0.01195115 0.00216638 -0.00725726
v -0.01194439 0.00205056 -0.00752447
v -0.01195284 0.00177577 -0.00761697
v -0.01184462 0.00335775 -0.00775938
v -0.01180066 0.00335775 -0.00818956
v -0.01190380 0.00335775 -0.00524586
v -0.01164509 -0.00023592 -0.00574945
v -0.01189112 0.00012666 -0.00625009
v -0.01165016 -0.00023592 -0.00625009
v -0.01148191 -0.00041001 -0.00474374
v -0.01193509 0.00279378 -0.00519888
v -0.01199596 0.00177577 -0.00524586
v -0.01194946 0.00263444 -0.00533542
v -0.01198243 0.00227851 -0.00574945
v -0.01195453 0.00271706 -0.00625009
v -0.01149121 -0.00041001 -0.00733948
v -0.01150390 -0.00041001 -0.00696510
v -0.01150897 -0.00041001 -0.00675368
v -0.01194861 0.00262190 -0.00666118
v -0.01196130 0.00232572 -0.00679919
v -0.01199427 0.00177577 -0.00675368
v -0.01188436 0.00335775 -0.00718386
v -0.01188098 0.00335775 -0.00725726
v -0.01193424 0.00278641 -0.00679919
v -0.01190211 0.00335775 -0.00675368
v -0.01191479 0.00335775 -0.00567604
v -0.01151489 -0.00041001 -0.00574945
v -0.01148783 -0.00041001 -0.00491846
v -0.01151996 -0.00041001 -0.00625009
v -0.01191649 0.00335775 -0.00574945
v -0.01191564 0.00335775 -0.00625009
v -0.01193931 0.00296862 -0.00625009
f 1 2 3
f 1 3 4
f 1 4 15
f 1 15 5
f 1 5 16
f 1 16 35
f 1 35 58
f 1 58 57
f 1 57 84
f 1 84 114
f 1 114 153
f 1 153 190
f 1 190 188
f 1 188 186
f 1 186 175
f 1 175 174
f 1 174 215
f 1 215 249
f 1 249 246
f 1 246 284
f 1 284 285
f 1 285 250
f 1 250 264
f 1 264 309
f 1 309 308
f 1 308 305
f 1 305 347
f 1 347 345
f 1 345 343
f 1 343 384
f 1 384 383
f 1 383 425
f 1 425 380
f 1 380 378
f 1 378 377
f 1 377 424
f 1 424 459
f 1 459 458
f 1 458 420
f 1 420 457
f 1 457 456
f 1 456 455
f 1 455 453
f 1 453 490
f 1 490 489
f 1 489 508
f 1 508 507
f 1 507 510
f 1 510 516
f 1 516 515
f 1 515 511
f 1 511 491
f 1 491 463
f 1 463 462
f 1 462 460
f 1 460 433
f 1 433 432
f 1 432 431
f 1 431 430
f 1 430 427
f 1 427 390
f 1 390 429
f 1 429 426
f 1 426 386
f 1 386 385
f 1 385 349
f 1 349 316
f 1 316 315
f 1 315 348
f 1 348 311
f 1 311 270
f 1 270 269
f 1 269 310
f 1 310 283
f 1 283 244
f 1 244 205
f 1 205 204
f 1 204 202
f 1 202 166
f 1 166 165
f 1 165 156
f 1 156 155
f 1 155 154
f 1 154 123
f 1 123 122
f 1 122 120
f 1 120 119
f 1 119 121
f 1 121 117
f 1 117 116
f 1 116 115
f 1 115 86
f 1 86 85
f 1 85 59
f 1 59 37
f 1 37 36
f 1 36 17
f 1 17 6
f 1 6 2
f 2 6 3
f 3 6 7
f 3 7 8
f 3 8 9
f 3 9 4
f 4 9 10
f 4 10 11
f 4 11 12
f 4 12 13
f 4 13 14
f 4 14 27
f 4 27 26
f 4 26 47
f 4 47 71
f 4 71 101
f 4 101 99
f 4 99 98
f 4 98 131
f 4 131 130
f 4 130 164
f 4 164 163
f 4 163 162
f 4 162 201
f 4 201 199
f 4 199 198
f 4 198 235
f 4 235 243
f 4 243 241
f 4 241 240
f 4 240 282
f 4 282 326
f 4 326 361
f 4 361 403
f 4 403 405
f 4 405 404
f 4 404 437
f 4 437 469
f 4 469 468
f 4 468 495
f 4 495 513
f 4 513 512
f 4 512 514
f 4 514 503
f 4 503 502
f 4 502 501
f 4 501 477
f 4 477 476
f 4 476 475
f 4 475 442
f 4 442 406
f 4 406 366
f 4 366 365
f 4 365 364
f 4 364 363
f 4 363 328
f 4 328 327
f 4 327 291
f 4 291 290
f 4 290 288
f 4 288 287
f 4 287 253
f 4 253 286
f 4 286 251
f 4 251 217
f 4 217 223
f 4 223 182
f 4 182 181
f 4 181 171
f 4 171 138
f 4 138 170
f 4 170 151
f 4 151 135
f 4 135 102
f 4 102 72
f 4 72 49
f 4 49 28
f 4 28 15
f 5 15 16
f 6 17 7
f 7 17 18
f 7 18 19
f 7 19 8
f 8 19 20
f 8 20 9
f 9 20 21
f 9 21 11
f 9 11 10
f 11 21 22
f 11 22 23
f 11 23 24
f 11 24 12
f 12 24 25
f 12 25 26
f 12 26 27
f 12 27 14
f 12 14 13
f 15 28 29
f 15 29 30
f 15 30 31
f 15 31 32
f 15 32 33
f 15 33 34
f 15 34 16
f 16 34 35
f 17 36 18
f 18 37 38
f 18 38 39
f 18 39 19
f 18 36 37
f 19 39 40
f 19 40 41
f 19 41 20
f 20 41 42
f 20 42 22
f 20 22 21
f 22 43 23
f 22 42 44
f 22 44 43
f 23 43 45
f 23 45 24
f 24 45 46
f 24 46 25
f 25 46 47
f 25 47 48
f 25 48 26
f 26 48 47
f 28 49 50
f 28 50 29
f 29 50 30
f 30 50 31
f 31 51 52
f 31 52 53
f 31 53 33
f 31 33 32
f 31 50 54
f 31 54 51
f 33 53 55
f 33 55 34
f 34 55 56
f 34 56 57
f 34 57 58
f 34 58 35
f 37 59 39
f 37 39 38
f 39 59 60
f 39 60 40
f 40 60 61
f 40 61 62
f 40 62 41
f 41 62 63
f 41 63 42
f 42 64 44
f 42 63 64
f 43 44 65
f 43 65 66
f 43 66 45
f 44 64 67
f 44 67 68
f 44 68 65
f 45 66 69
f 45 69 46
f 46 69 70
f 46 70 47
f 47 70 71
f 49 72 73
f 49 73 74
f 49 74 50
f 50 74 54
f 51 75 52
f 51 54 76
f 51 76 75
f 52 75 77
f 52 77 78
f 52 78 79
f 52 79 53
f 53 79 55
f 54 74 80
f 54 80 76
f 55 79 81
f 55 81 56
f 56 81 82
f 56 82 57
f 57 82 83
f 57 83 84
f 59 85 60
f 60 85 86
f 60 86 61
f 61 87 62
f 61 86 87
f 62 87 88
f 62 88 89
f 62 89 63
f 63 89 90
f 63 90 64
f 64 90 91
f 64 91 67
f 65 68 66
f 66 92 93
f 66 93 69
f 66 68 92
f 67 91 94
f 67 94 68
f 68 94 95
f 68 95 96
f 68 96 97
f 68 97 92
f 69 93 98
f 69 98 99
f 69 99 100
f 69 100 70
f 70 100 71
f 71 100 101
f 72 102 80
f 72 80 74
f 72 74 73
f 75 103 77
f 75 76 104
f 75 104 103
f 76 80 104
f 77 105 78
f 77 103 106
f 77 106 107
f 77 107 105
f 78 105 108
f 78 108 109
f 78 109 79
f 79 109 81
f 80 102 110
f 80 110 137
f 80 137 104
f 81 109 111
f 81 111 112
f 81 112 82
f 82 112 113
f 82 113 84
f 82 84 83
f 84 113 114
f 86 115 87
f 87 115 116
f 87 116 117
f 87 117 88
f 88 117 118
f 88 118 89
f 89 119 120
f 89 120 90
f 89 118 121
f 89 121 119
f 90 122 91
f 90 120 122
f 91 122 123
f 91 123 124
f 91 124 125
f 91 125 94
f 92 97 126
f 92 126 127
f 92 127 128
f 92 128 129
f 92 129 130
f 92 130 131
f 92 131 93
f 93 131 98
f 94 125 95
f 95 132 96
f 95 125 132
f 96 132 133
f 96 133 134
f 96 134 97
f 97 134 126
f 99 101 100
f 102 135 110
f 103 104 136
f 103 136 106
f 104 137 138
f 104 138 139
f 104 139 136
f 105 140 108
f 105 107 141
f 105 141 140
f 106 142 143
f 106 143 107
f 106 136 139
f 106 139 144
f 106 144 145
f 106 145 146
f 106 146 142
f 107 143 141
f 108 140 147
f 108 147 148
f 108 148 149
f 108 149 109
f 109 149 150
f 109 150 111
f 110 135 151
f 110 151 137
f 111 150 152
f 111 152 112
f 112 114 113
f 112 152 114
f 114 152 153
f 117 121 118
f 123 154 124
f 124 154 155
f 124 155 125
f 125 155 156
f 125 156 132
f 126 134 157
f 126 157 158
f 126 158 127
f 127 158 159
f 127 159 160
f 127 160 161
f 127 161 162
f 127 162 163
f 127 163 128
f 128 163 129
f 129 163 164
f 129 164 130
f 132 156 165
f 132 165 166
f 132 166 167
f 132 167 133
f 133 167 168
f 133 168 134
f 134 168 169
f 134 169 157
f 137 151 170
f 137 170 138
f 138 171 172
f 138 172 139
f 139 172 171
f 139 171 144
f 140 141 173
f 140 173 174
f 140 174 175
f 140 175 147
f 141 143 176
f 141 176 173
f 142 146 177
f 142 177 143
f 143 177 176
f 144 178 179
f 144 179 180
f 144 180 145
f 144 171 181
f 144 181 182
f 144 182 183
f 144 183 178
f 145 180 146
f 146 180 184
f 146 184 185
f 146 185 177
f 147 186 187
f 147 187 148
f 147 175 186
f 148 188 189
f 148 189 149
f 148 187 188
f 149 189 150
f 150 189 153
f 150 153 152
f 153 189 190
f 157 191 192
f 157 192 193
f 157 193 194
f 157 194 159
f 157 159 158
f 157 169 195
f 157 195 191
f 159 194 160
f 160 193 196
f 160 196 197
f 160 197 198
f 160 198 199
f 160 199 200
f 160 200 162
f 160 162 161
f 160 194 193
f 162 200 201
f 166 202 168
f 166 168 167
f 168 202 203
f 168 203 204
f 168 204 205
f 168 205 206
f 168 206 207
f 168 207 208
f 168 208 209
f 168 209 169
f 169 209 195
f 173 176 210
f 173 210 211
f 173 211 212
f 173 212 213
f 173 213 214
f 173 214 174
f 174 214 215
f 176 177 210
f 177 185 216
f 177 216 211
f 177 211 210
f 178 183 179
f 179 183 217
f 179 217 218
f 179 218 219
f 179 219 220
f 179 220 221
f 179 221 180
f 180 221 222
f 180 222 184
f 182 223 183
f 183 223 217
f 184 224 225
f 184 225 185
f 184 222 224
f 185 226 216
f 185 225 226
f 186 188 187
f 188 190 189
f 191 195 209
f 191 209 227
f 191 227 192
f 192 227 228
f 192 228 229
f 192 229 230
f 192 230 231
f 192 231 232
f 192 232 233
f 192 233 234
f 192 234 193
f 193 234 196
f 196 235 198
f 196 198 197
f 196 234 236
f 196 236 237
f 196 237 238
f 196 238 239
f 196 239 240
f 196 240 241
f 196 241 242
f 196 242 243
f 196 243 235
f 199 201 200
f 202 204 203
f 205 244 206
f 206 244 209
f 206 209 208
f 206 208 207
f 209 245 227
f 209 244 245
f 211 216 212
f 212 246 214
f 212 214 213
f 212 216 247
f 212 247 248
f 212 248 246
f 214 246 249
f 214 249 215
f 216 226 250
f 216 250 248
f 216 248 247
f 217 251 218
f 218 251 219
f 219 251 252
f 219 252 253
f 219 253 254
f 219 254 255
f 219 255 256
f 219 256 257
f 219 257 220
f 220 257 222
f 220 222 221
f 222 258 224
f 222 257 259
f 222 259 260
f 222 260 261
f 222 261 258
f 224 258 262
f 224 262 225
f 225 263 264
f 225 264 226
f 225 262 265
f 225 265 266
f 225 266 267
f 225 267 263
f 226 264 250
f 227 245 228
f 228 245 229
f 229 245 230
f 230 245 268
f 230 268 269
f 230 269 270
f 230 270 271
f 230 271 231
f 231 271 232
f 232 271 272
f 232 272 273
f 232 273 274
f 232 274 233
f 233 274 275
f 233 275 234
f 234 275 236
f 236 275 276
f 236 276 237
f 237 276 238
f 238 277 239
f 238 276 278
f 238 278 279
f 238 279 280
f 238 280 281
f 238 281 277
f 239 277 240
f 240 277 282
f 241 243 242
f 244 283 268
f 244 268 245
f 246 248 284
f 248 250 285
f 248 285 284
f 251 286 252
f 252 286 253
f 253 287 255
f 253 255 254
f 255 287 288
f 255 288 289
f 255 289 290
f 255 290 291
f 255 291 292
f 255 292 293
f 255 293 294
f 255 294 295
f 255 295 259
f 255 259 256
f 256 259 257
f 258 261 262
f 259 295 296
f 259 296 297
f 259 297 298
f 259 298 260
f 260 298 299
f 260 299 300
f 260 300 301
f 260 301 302
f 260 302 303
f 260 303 304
f 260 304 261
f 261 304 262
f 262 305 306
f 262 306 267
f 262 267 266
f 262 266 265
f 262 304 302
f 262 302 301
f 262 301 300
f 262 300 307
f 262 307 305
f 263 267 306
f 263 306 308
f 263 308 309
f 263 309 264
f 268 283 310
f 268 310 269
f 270 311 312
f 270 312 271
f 271 312 272
f 272 312 313
f 272 313 314
f 272 314 315
f 272 315 316
f 272 316 274
f 272 274 273
f 274 316 317
f 274 317 318
f 274 318 319
f 274 319 275
f 275 319 276
f 276 320 321
f 276 321 322
f 276 322 279
f 276 279 278
f 276 319 320
f 277 281 282
f 279 323 280
f 279 322 356
f 279 356 324
f 279 324 323
f 280 323 325
f 280 325 326
f 280 326 281
f 281 326 282
f 288 290 289
f 291 327 292
f 292 327 328
f 292 328 329
f 292 329 293
f 293 296 294
f 293 329 330
f 293 330 331
f 293 331 332
f 293 332 296
f 294 296 295
f 296 332 333
f 296 333 334
f 296 334 335
f 296 335 336
f 296 336 337
f 296 337 297
f 297 337 338
f 297 338 339
f 297 339 298
f 298 339 340
f 298 340 299
f 299 341 342
f 299 342 343
f 299 343 300
f 299 340 344
f 299 344 341
f 300 343 345
f 300 345 307
f 302 304 303
f 305 307 346
f 305 346 347
f 305 308 306
f 307 345 346
f 311 313 312
f 311 348 314
f 311 314 313
f 314 348 315
f 316 349 350
f 316 350 317
f 317 350 318
f 318 350 349
f 318 349 351
f 318 351 352
f 318 352 320
f 318 320 319
f 320 352 321
f 321 352 353
f 321 353 354
f 321 354 322
f 322 354 355
f 322 355 356
f 323 324 357
f 323 357 362
f 323 362 325
f 324 356 358
f 324 358 359
f 324 359 360
f 324 360 357
f 325 361 326
f 325 362 361
f 328 363 329
f 329 363 330
f 330 364 331
f 330 363 364
f 331 364 365
f 331 365 366
f 331 366 367
f 331 367 368
f 331 368 333
f 331 333 332
f 333 368 369
f 333 369 370
f 333 370 334
f 334 370 371
f 334 371 372
f 334 372 373
f 334 373 374
f 334 374 335
f 335 374 375
f 335 375 336
f 336 375 337
f 337 375 338
f 338 375 376
f 338 376 377
f 338 377 378
f 338 378 379
f 338 379 339
f 339 380 381
f 339 381 382
f 339 382 344
f 339 344 340
f 339 379 380
f 341 383 384
f 341 384 343
f 341 343 342
f 341 344 383
f 344 382 383
f 345 347 346
f 349 385 351
f 351 385 386
f 351 386 387
f 351 387 388
f 351 388 389
f 351 389 352
f 352 389 353
f 353 390 354
f 353 389 391
f 353 391 390
f 354 390 392
f 354 392 393
f 354 393 355
f 355 393 394
f 355 394 356
f 356 394 395
f 356 395 396
f 356 396 358
f 357 360 397
f 357 397 362
f 358 396 395
f 358 395 398
f 358 398 399
f 358 399 359
f 359 400 360
f 359 399 401
f 359 401 400
f 360 400 402
f 360 402 397
f 361 362 403
f 362 397 404
f 362 404 405
f 362 405 403
f 366 406 367
f 367 406 368
f 368 406 407
f 368 407 369
f 369 407 408
f 369 408 370
f 370 409 410
f 370 410 411
f 370 411 412
f 370 412 413
f 370 413 414
f 370 414 371
f 370 408 409
f 371 414 372
f 372 414 415
f 372 415 416
f 372 416 417
f 372 417 418
f 372 418 419
f 372 419 373
f 373 420 421
f 373 421 374
f 373 419 420
f 374 421 422
f 374 422 375
f 375 423 376
f 375 422 423
f 376 423 424
f 376 424 377
f 378 380 379
f 380 425 381
f 381 425 383
f 381 383 382
f 386 426 391
f 386 391 387
f 387 391 389
f 387 389 388
f 390 427 392
f 390 391 428
f 390 428 429
f 391 426 428
f 392 427 430
f 392 430 393
f 393 431 432
f 393 432 394
f 393 430 431
f 394 432 433
f 394 433 434
f 394 434 435
f 394 435 399
f 394 399 398
f 394 398 395
f 397 402 436
f 397 436 437
f 397 437 404
f 399 435 438
f 399 438 439
f 399 439 401
f 400 401 402
f 401 439 440
f 401 440 402
f 402 440 441
f 402 441 436
f 406 442 443
f 406 443 407
f 407 443 444
f 407 444 409
f 407 409 408
f 409 444 445
f 409 445 446
f 409 446 410
f 410 446 447
f 410 447 448
f 410 448 449
f 410 449 411
f 411 449 450
f 411 450 412
f 412 450 451
f 412 451 415
f 412 415 413
f 413 415 414
f 415 451 452
f 415 452 453
f 415 453 454
f 415 454 416
f 416 454 417
f 417 454 455
f 417 455 456
f 417 456 418
f 418 456 457
f 418 457 419
f 419 457 420
f 420 458 421
f 421 458 422
f 422 458 423
f 423 458 459
f 423 459 424
f 426 429 428
f 433 460 434
f 434 461 435
f 434 460 462
f 434 462 463
f 434 463 464
f 434 464 465
f 434 465 438
f 434 438 461
f 435 461 438
f 436 441 466
f 436 466 467
f 436 467 468
f 436 468 469
f 436 469 437
f 438 465 470
f 438 470 471
f 438 471 439
f 439 471 472
f 439 472 473
f 439 473 440
f 440 473 474
f 440 474 466
f 440 466 441
f 442 475 443
f 443 475 476
f 443 476 444
f 444 476 445
f 445 477 478
f 445 478 479
f 445 479 480
f 445 480 446
f 445 476 477
f 446 480 481
f 446 481 447
f 447 481 448
f 448 473 482
f 448 482 483
f 448 483 449
f 448 481 484
f 448 484 473
f 449 483 450
f 450 483 485
f 450 485 486
f 450 486 487
f 450 487 488
f 450 488 451
f 451 488 489
f 451 489 452
f 452 489 490
f 452 490 453
f 453 455 454
f 463 491 470
f 463 470 464
f 464 470 465
f 466 492 467
f 466 474 493
f 466 493 494
f 466 494 492
f 467 495 468
f 467 492 495
f 470 491 496
f 470 496 497
f 470 497 471
f 471 497 472
f 472 497 498
f 472 498 499
f 472 499 500
f 472 500 482
f 472 482 473
f 473 484 474
f 474 484 493
f 477 501 478
f 478 501 479
f 479 501 502
f 479 502 503
f 479 503 514
f 479 514 494
f 479 494 493
f 479 493 480
f 480 493 484
f 480 484 481
f 482 500 504
f 482 504 505
f 482 505 506
f 482 506 483
f 483 506 505
f 483 505 485
f 485 507 508
f 485 508 486
f 485 505 509
f 485 509 510
f 485 510 507
f 486 508 487
f 487 489 488
f 487 508 489
f 491 511 499
f 491 499 498
f 491 498 496
f 492 512 513
f 492 513 495
f 492 494 514
f 492 514 512
f 496 498 497
f 499 511 515
f 499 515 516
f 499 516 517
f 499 517 500
f 500 517 510
f 500 510 504
f 504 510 509
f 504 509 505
f 510 517 516

