# https://github.com/mikedh/trimesh
v -0.01085448 0.01729185 -0.00602033
v -0.01085231 0.01729185 -0.00625195
v 0.00014983 0.01729185 -0.00602033
v -0.01072329 0.01887788 -0.00602033
v -0.01072329 0.01887788 -0.00625195
v -0.01083496 0.01729185 -0.00675508
v 0.00014983 0.01729185 -0.00625195
v 0.00022138 0.01744075 -0.00625195
v 0.00022030 0.01743854 -0.00602033
v -0.01067125 0.01938082 -0.00602033
v -0.01067234 0.01938082 -0.00625195
v -0.01070486 0.01887788 -0.00675508
v -0.01065499 0.01938082 -0.00675508
v -0.01081545 0.01729185 -0.00725750
v 0.00014224 0.01729185 -0.00655482
v 0.00022138 0.01744075 -0.00625836
v 0.00022138 0.01762494 -0.00602033
v -0.01064198 0.01961133 -0.00602033
v -0.01060729 0.01988376 -0.00602033
v -0.01060729 0.01988376 -0.00625195
v -0.01059319 0.01988376 -0.00675508
v -0.01067993 0.01887788 -0.00725750
v -0.01072438 0.01837494 -0.00725750
v -0.01056392 0.01988376 -0.00725750
v -0.01062355 0.01938082 -0.00725750
v -0.01081003 0.01729185 -0.00733375
v -0.01068969 0.01837494 -0.00776063
v 0.00013573 0.01729185 -0.00675508
v 0.00022138 0.01747273 -0.00678287
v 0.00022138 0.02855838 -0.00602033
v -0.01052706 0.02038670 -0.00602033
v -0.01052598 0.02038670 -0.00625195
v -0.01051405 0.02038670 -0.00675508
v -0.01048044 0.02042530 -0.00727888
v -0.01064415 0.01887788 -0.00776063
v -0.01046201 0.02029075 -0.00776063
v -0.01052056 0.01988376 -0.00776063
v -0.01058669 0.01938082 -0.00776063
v -0.01077967 0.01729185 -0.00776063
v -0.01063331 0.01837494 -0.00826377
v -0.01072438 0.01729185 -0.00826377
v 0.00011513 0.01729185 -0.00725750
v 0.00022138 0.01751023 -0.00725750
v 0.00022138 0.02855838 -0.01322028
v -0.00475712 0.02855838 -0.00602033
v -0.01049453 0.02054994 -0.00602033
v -0.01045659 0.02073854 -0.00602033
v -0.01045550 0.02073523 -0.00625195
v -0.01044900 0.02070986 -0.00675508
v -0.01044249 0.02067898 -0.00712495
v -0.01043057 0.02061832 -0.00745989
v -0.01058777 0.01887788 -0.00826377
v -0.01053248 0.01938082 -0.00826377
v -0.01041756 0.02054222 -0.00776063
v -0.01044466 0.02019479 -0.00809843
v -0.01055850 0.01837494 -0.00876690
v -0.01064957 0.01729185 -0.00876690
v 0.00007936 0.01729185 -0.00776063
v 0.00022138 0.01757862 -0.00776063
v 0.00022138 0.01751685 -0.00731451
v 0.00022138 0.02843265 -0.01322242
v -0.00012447 0.02855838 -0.01324308
v -0.00699918 0.02855838 -0.00743210
v -0.00762149 0.02735397 -0.00602033
v -0.01042623 0.02087420 -0.00602033
v -0.01040021 0.02098670 -0.00625195
v -0.01039588 0.02096133 -0.00675508
v -0.01039262 0.02086317 -0.00727888
v -0.01034709 0.02088964 -0.00776063
v -0.01051188 0.01887788 -0.00876690
v -0.01044466 0.01971942 -0.00857947
v -0.01046093 0.01934994 -0.00875479
v -0.01046635 0.01988597 -0.00826519
v -0.01042406 0.02005472 -0.00843409
v -0.01029071 0.02088964 -0.00826377
v -0.01039262 0.02037126 -0.00826519
v -0.01043816 0.01916133 -0.00903914
v -0.01045225 0.01887788 -0.00910541
v -0.01047502 0.01837494 -0.00920946
v -0.01055091 0.01729185 -0.00926932
v 0.00004033 0.01729185 -0.00824168
v 0.00022138 0.01760288 -0.00788891
v 0.00022138 0.02792971 -0.01321885
v -0.00012447 0.02792971 -0.01324522
v -0.00012447 0.02843265 -0.01324451
v -0.00062752 0.02855838 -0.01326090
v -0.00062752 0.02843265 -0.01326375
v -0.00705772 0.02855838 -0.00764946
v -0.00787302 0.02710140 -0.00602033
v -0.01040021 0.02099001 -0.00602033
v -0.01030155 0.02139258 -0.00602033
v -0.01030047 0.02139258 -0.00625195
v -0.01028854 0.02139258 -0.00675508
v -0.01026578 0.02139258 -0.00725750
v -0.01022566 0.02139258 -0.00776063
v -0.01041647 0.01949663 -0.00891442
v -0.01039371 0.01988597 -0.00875479
v -0.01031239 0.02038670 -0.00876690
v -0.01016928 0.02139258 -0.00826377
v -0.01009448 0.02139258 -0.00876690
v -0.01021265 0.02088964 -0.00876690
v -0.01040021 0.01887788 -0.00935698
v -0.01029505 0.01988376 -0.00926932
v -0.01037419 0.01934994 -0.00923227
v -0.01042081 0.01837494 -0.00946103
v -0.01043274 0.01810031 -0.00951305
v -0.01053573 0.01729185 -0.00933417
v 0.00000130 0.01729185 -0.00864504
v 0.00022138 0.01767678 -0.00826377
v 0.00022138 0.02742677 -0.01320816
v -0.00012447 0.02742677 -0.01323738
v -0.00062752 0.02792971 -0.01326731
v -0.00062752 0.02742677 -0.01326375
v -0.00113058 0.02855838 -0.01326874
v -0.00113058 0.02843265 -0.01327230
v -0.00113058 0.02792971 -0.01328157
v -0.00706314 0.02855838 -0.00776063
v -0.00787518 0.02710030 -0.00625195
v -0.00793590 0.02698559 -0.00602033
v -0.01015302 0.02189552 -0.00602033
v -0.01015302 0.02189552 -0.00625195
v -0.01013784 0.02189552 -0.00675508
v -0.01011508 0.02189552 -0.00725750
v -0.01007821 0.02189552 -0.00776063
v -0.01021699 0.02038670 -0.00926932
v -0.01011833 0.02088964 -0.00926932
v -0.01000774 0.02193302 -0.00828158
v -0.00998064 0.02179957 -0.00876690
v -0.00995028 0.02170471 -0.00910541
v -0.00999582 0.02140251 -0.00927146
v -0.01023542 0.01938082 -0.00977174
v -0.01029288 0.01887788 -0.00977174
v -0.01016386 0.01988376 -0.00977174
v -0.01008689 0.02038670 -0.00977174
v -0.01033625 0.01837494 -0.00977174
v -0.01038287 0.01790839 -0.00974680
v -0.01046526 0.01729185 -0.00963278
v -0.00001171 0.01729185 -0.00875194
v 0.00022138 0.01778376 -0.00870490
v 0.00022138 0.02692383 -0.01319177
v -0.00012447 0.02642089 -0.01320745
v -0.00012447 0.02692383 -0.01322313
v -0.00062752 0.02692383 -0.01325449
v -0.00113058 0.02440912 -0.01322455
v -0.00113058 0.02491206 -0.01323810
v -0.00113058 0.02541501 -0.01325021
v -0.00113058 0.02742677 -0.01327943
v -0.00113058 0.02591795 -0.01326019
v -0.00113058 0.02642089 -0.01326874
v -0.00113058 0.02692383 -0.01327587
v -0.00125634 0.02855838 -0.01326874
v -0.00263865 0.02692383 -0.01329226
v -0.00213560 0.02792971 -0.01327587
v -0.00163363 0.02692383 -0.01328941
v -0.00213560 0.02642089 -0.01329582
v -0.00263865 0.02642089 -0.01329938
v -0.00700677 0.02855838 -0.00825878
v -0.00746428 0.02777530 -0.00776063
v -0.00768003 0.02742677 -0.00725750
v -0.00787410 0.02708375 -0.00675508
v -0.00800637 0.02684883 -0.00625195
v -0.00800637 0.02684993 -0.00602033
v -0.01008363 0.02210288 -0.00602033
v -0.01000124 0.02234663 -0.00625195
v -0.00999365 0.02233008 -0.00675508
v -0.00998281 0.02229699 -0.00725750
v -0.00996438 0.02224185 -0.00776063
v -0.00994486 0.02219001 -0.00812623
v -0.00999256 0.02086869 -0.00977460
v -0.00995896 0.02124258 -0.00960926
v -0.00992426 0.02212604 -0.00846117
v -0.00990041 0.02205104 -0.00876690
v -0.00969008 0.02239846 -0.00926932
v -0.00985704 0.02188119 -0.00927146
v -0.00991342 0.02157788 -0.00944107
v -0.01007605 0.01938082 -0.01027488
v -0.01013459 0.01887788 -0.01027488
v -0.00991776 0.02003597 -0.01048369
v -0.01018121 0.01837494 -0.01027488
v -0.00994161 0.02068780 -0.01005681
v -0.00996871 0.02038670 -0.01014232
v -0.01022458 0.01787200 -0.01027488
v -0.01039479 0.01729185 -0.00988363
v -0.00009411 0.01729185 -0.00919378
v 0.00022138 0.01796906 -0.00927431
v 0.00022138 0.01782126 -0.00882819
v 0.00022138 0.01780472 -0.00877759
v 0.00022138 0.02642089 -0.01317111
v -0.00012447 0.02541501 -0.01316968
v -0.00012447 0.02591795 -0.01318963
v -0.00062752 0.02491206 -0.01319890
v -0.00113058 0.02390618 -0.01320674
v -0.00163363 0.02340324 -0.01322740
v -0.00163363 0.02390618 -0.01324380
v -0.00163363 0.02440912 -0.01325520
v -0.00163363 0.02642089 -0.01328727
v -0.00163363 0.02491206 -0.01326446
v -0.00163363 0.02541501 -0.01327302
v -0.00163363 0.02591795 -0.01328085
v -0.00213560 0.02855838 -0.01326090
v -0.00213560 0.02843265 -0.01326446
v -0.00314171 0.02642089 -0.01328941
v -0.00263865 0.02742677 -0.01328228
v -0.00213560 0.02591795 -0.01329511
v -0.00263865 0.02591795 -0.01330081
v -0.00314171 0.02591795 -0.01329511
v -0.00698834 0.02855838 -0.00838064
v -0.00741550 0.02767714 -0.00851177
v -0.00732768 0.02790655 -0.00831223
v -0.00743827 0.02772346 -0.00817682
v -0.00791855 0.02667015 -0.00850821
v -0.00783832 0.02700986 -0.00776063
v -0.00786217 0.02705728 -0.00725750
v -0.00799770 0.02683228 -0.00675508
v -0.00819935 0.02642089 -0.00675508
v -0.00821453 0.02642089 -0.00625195
v -0.00821561 0.02642089 -0.00602033
v -0.01000124 0.02234663 -0.00602033
v -0.00995353 0.02248229 -0.00602033
v -0.00991234 0.02259810 -0.00625195
v -0.00990692 0.02258155 -0.00675508
v -0.00989499 0.02254846 -0.00725750
v -0.00987656 0.02249332 -0.00776063
v -0.00986246 0.02237420 -0.00828158
v -0.00990583 0.02102310 -0.00994349
v -0.00973020 0.02189552 -0.00977174
v -0.00986680 0.02140251 -0.00977460
v -0.00971502 0.02139258 -0.01027488
v -0.00978332 0.02239846 -0.00876690
v -0.00950577 0.02291243 -0.00924581
v -0.00947000 0.02275140 -0.00967482
v -0.00954263 0.02244148 -0.00981379
v -0.00994053 0.01970067 -0.01054854
v -0.00996221 0.01938082 -0.01059842
v -0.00999040 0.01887788 -0.01066042
v -0.00988848 0.02038670 -0.01039389
v -0.00973237 0.02038670 -0.01077801
v -0.00982994 0.01987494 -0.01074095
v -0.00984295 0.02086869 -0.01024495
v -0.01001425 0.01837494 -0.01070889
v -0.01027336 0.01729185 -0.01027488
v -0.01037961 0.01729185 -0.00993280
v -0.00010821 0.01729185 -0.00926932
v 0.00022138 0.01816869 -0.00977174
v 0.00022138 0.02591795 -0.01314474
v -0.00012447 0.02491206 -0.01314117
v -0.00062752 0.02440912 -0.01317823
v -0.00113058 0.02340324 -0.01318037
v -0.00163363 0.02290140 -0.01320317
v -0.00414782 0.01729185 -0.01315186
v -0.00465087 0.01729185 -0.01319177
v -0.00515392 0.01729185 -0.01322954
v -0.00565589 0.01729185 -0.01325734
v -0.00213560 0.02340324 -0.01325520
v -0.00213560 0.02390618 -0.01326731
v -0.00213560 0.02541501 -0.01329012
v -0.00263865 0.02855838 -0.01324522
v -0.00263865 0.02792971 -0.01327016
v -0.00263865 0.02843265 -0.01325164
v -0.00364476 0.02591795 -0.01327373
v -0.00314171 0.02692383 -0.01327658
v -0.00615895 0.02088964 -0.01324665
v -0.00615895 0.01729185 -0.01327016
v -0.00263865 0.02541501 -0.01329725
v -0.00658611 0.01729185 -0.01326019
v -0.00615895 0.01988376 -0.01325520
v -0.00615895 0.02038670 -0.01325164
v -0.00691786 0.02855838 -0.00876690
v -0.00738948 0.02762419 -0.00876690
v -0.00774075 0.02692383 -0.00876690
v -0.00701110 0.02837419 -0.00876690
v -0.00723553 0.02792971 -0.00876690
v -0.00789253 0.02661831 -0.00876690
v -0.00801504 0.02636684 -0.00876690
v -0.00850834 0.02534001 -0.00876690
v -0.00841402 0.02564993 -0.00845618
v -0.00843678 0.02569736 -0.00812124
v -0.00833487 0.02599074 -0.00776063
v -0.00817225 0.02642089 -0.00725750
v -0.00835872 0.02603706 -0.00725750
v -0.00837173 0.02606464 -0.00675508
v -0.00837932 0.02608008 -0.00625195
v -0.00838041 0.02608118 -0.00602033
v -0.00991234 0.02259810 -0.00602033
v -0.00985921 0.02273707 -0.00602033
v -0.00979633 0.02290140 -0.00625195
v -0.00978440 0.02290140 -0.00675508
v -0.00976055 0.02290140 -0.00725750
v -0.00972152 0.02290140 -0.00776063
v -0.00966731 0.02290140 -0.00826377
v -0.00959576 0.02290140 -0.00876690
v -0.00942446 0.02263890 -0.01000977
v -0.00948084 0.02230361 -0.01017724
v -0.00955022 0.02193633 -0.01031692
v -0.00951445 0.02136280 -0.01079013
v -0.00963045 0.02088964 -0.01077801
v -0.00947542 0.02179626 -0.01063121
v -0.00943747 0.02317493 -0.00906265
v -0.00940061 0.02308560 -0.00939760
v -0.00936375 0.02291243 -0.00981379
v -0.00985054 0.01938082 -0.01084999
v -0.00987764 0.01887788 -0.01091199
v -0.00952312 0.02038670 -0.01119492
v -0.00947000 0.02088964 -0.01110298
v -0.00991667 0.01795692 -0.01099965
v -0.01001533 0.01782237 -0.01081008
v -0.01007496 0.01729185 -0.01077801
v -0.00020253 0.01729185 -0.00969549
v 0.00022138 0.01838486 -0.01019506
v -0.00021987 0.01729185 -0.00977103
v 0.00022138 0.02542493 -0.01311481
v 0.00022138 0.02491206 -0.01307989
v -0.00008544 0.02438265 -0.01309343
v -0.00062752 0.02390618 -0.01314901
v -0.00364042 0.01729185 -0.01309343
v -0.00314171 0.02855838 -0.01320246
v -0.00314171 0.02792971 -0.01323881
v -0.00314171 0.02843265 -0.01321173
v -0.00314171 0.02742677 -0.01325805
v -0.00414782 0.02541501 -0.01325591
v -0.00364476 0.02642089 -0.01325876
v -0.00666200 0.01736795 -0.01325734
v -0.00666200 0.01787200 -0.01325164
v -0.00666200 0.01837494 -0.01324522
v -0.00666200 0.01887788 -0.01323810
v -0.00666200 0.01938082 -0.01323026
v -0.00666200 0.01988376 -0.01322099
v -0.00666200 0.02038670 -0.01320959
v -0.00615895 0.02139258 -0.01323382
v -0.00666200 0.01729185 -0.01325805
v -0.00685065 0.02855838 -0.00907049
v -0.00733310 0.02751280 -0.00926932
v -0.00762908 0.02692383 -0.00926932
v -0.00681812 0.02855838 -0.00921730
v -0.00783724 0.02650802 -0.00926932
v -0.00796192 0.02625655 -0.00926932
v -0.00812671 0.02591795 -0.00926932
v -0.00845630 0.02523302 -0.00926932
v -0.00871108 0.02491206 -0.00876690
v -0.00890840 0.02462199 -0.00837779
v -0.00853002 0.02545471 -0.00827873
v -0.00881299 0.02486574 -0.00823170
v -0.00892900 0.02466831 -0.00804213
v -0.00894526 0.02470361 -0.00776063
v -0.00861025 0.02541501 -0.00776063
v -0.00845738 0.02573927 -0.00776063
v -0.00847907 0.02578559 -0.00725750
v -0.00849208 0.02581317 -0.00675508
v -0.00849858 0.02582861 -0.00625195
v -0.00849967 0.02582971 -0.00602033
v -0.00979633 0.02290140 -0.00602033
v -0.00959359 0.02340324 -0.00625195
v -0.00958275 0.02340324 -0.00675508
v -0.00955890 0.02340324 -0.00725750
v -0.00943313 0.02366464 -0.00755183
v -0.00950794 0.02343412 -0.00773640
v -0.00941470 0.02362273 -0.00788749
v -0.00949602 0.02331390 -0.00826377
v -0.00946024 0.02322898 -0.00876690
v -0.00938543 0.02244148 -0.01031692
v -0.00942338 0.02213155 -0.01051291
v -0.00894526 0.02369883 -0.01008389
v -0.00901465 0.02340324 -0.01026063
v -0.00922389 0.02290140 -0.01027488
v -0.00939844 0.02151060 -0.01096615
v -0.00943639 0.02117530 -0.01104383
v -0.00936158 0.02193633 -0.01079013
v -0.00935507 0.02348045 -0.00876690
v -0.00916751 0.02390618 -0.00876690
v -0.00895502 0.02422273 -0.00913107
v -0.00931388 0.02336685 -0.00924581
v -0.00916318 0.02340324 -0.00977174
v -0.00953938 0.01985178 -0.01131250
v -0.00962286 0.01938082 -0.01128115
v -0.00968141 0.01887788 -0.01128115
v -0.00937350 0.02038670 -0.01144648
v -0.00940820 0.01999736 -0.01150064
v -0.00928027 0.02136280 -0.01123910
v -0.00932038 0.02088964 -0.01135455
v -0.00993077 0.01762163 -0.01102958
v -0.00994161 0.01736795 -0.01105025
v -0.00994486 0.01729185 -0.01105595
v 0.00022138 0.01840251 -0.01022784
v -0.00032504 0.01729185 -0.01013306
v 0.00022138 0.02472677 -0.01306421
v -0.00021229 0.02390618 -0.01307775
v -0.00335637 0.01729185 -0.01304924
v -0.00358080 0.01729185 -0.01308416
v -0.00366102 0.02855838 -0.01310697
v -0.00364476 0.02792971 -0.01317253
v -0.00364476 0.02692383 -0.01323738
v -0.00414782 0.02591795 -0.01323524
v -0.00465087 0.02541501 -0.01320317
v -0.00615895 0.02189552 -0.01321386
v -0.00716505 0.01729185 -0.01319391
v -0.00716505 0.01837494 -0.01317538
v -0.00716505 0.01887788 -0.01316540
v -0.00666200 0.02088964 -0.01319534
v -0.00742525 0.02719294 -0.00955439
v -0.00695473 0.02826390 -0.00926932
v -0.00692112 0.02819662 -0.00955082
v -0.00680620 0.02855838 -0.00926932
v -0.00792831 0.02618817 -0.00955367
v -0.00842594 0.02517126 -0.00953372
v -0.00860700 0.02491206 -0.00926932
v -0.00887696 0.02455471 -0.00876690
v -0.00898971 0.02430324 -0.00876690
v -0.00938977 0.02356537 -0.00826377
v -0.00907753 0.02440912 -0.00776063
v -0.00896477 0.02474662 -0.00725750
v -0.00865362 0.02541501 -0.00725750
v -0.00911873 0.02440912 -0.00725750
v -0.00867638 0.02541501 -0.00675508
v -0.00868939 0.02541501 -0.00625195
v -0.00869048 0.02541501 -0.00602033
v -0.00959359 0.02340324 -0.00602033
v -0.00945915 0.02372310 -0.00625195
v -0.00945373 0.02371096 -0.00675508
v -0.00944289 0.02368780 -0.00725750
v -0.00933014 0.02393927 -0.00725750
v -0.00932472 0.02386207 -0.00773640
v -0.00921522 0.02239846 -0.01077801
v -0.00898971 0.02379037 -0.00977174
v -0.00849316 0.02490434 -0.00972899
v -0.00837607 0.02506758 -0.00986867
v -0.00845630 0.02473229 -0.01010954
v -0.00888671 0.02357199 -0.01041883
v -0.00896152 0.02323670 -0.01059700
v -0.00908728 0.02192199 -0.01131892
v -0.00901465 0.02239846 -0.01117639
v -0.00904717 0.02393817 -0.00928714
v -0.00943205 0.01966207 -0.01153841
v -0.00945265 0.01938082 -0.01156621
v -0.00948301 0.01887788 -0.01160897
v -0.00972586 0.01837494 -0.01128115
v -0.00901465 0.02139258 -0.01165743
v -0.00906885 0.02088964 -0.01172798
v -0.00909379 0.02039883 -0.01182561
v -0.00925099 0.01985178 -0.01173725
v -0.00896694 0.02177199 -0.01159115
v -0.00980067 0.01736795 -0.01130181
v -0.00980175 0.01782237 -0.01123055
v -0.00980392 0.01729185 -0.01130751
v 0.00016609 0.01856133 -0.01060698
v 0.00022138 0.01873450 -0.01070105
v -0.00050284 0.01729185 -0.01063192
v -0.00054513 0.01729185 -0.01074951
v 0.00022138 0.02449956 -0.01304069
v 0.00010863 0.02419846 -0.01303713
v -0.00030661 0.02351574 -0.01305779
v -0.00311027 0.01729185 -0.01299223
v -0.00445572 0.02729221 -0.01306064
v -0.00395483 0.02832236 -0.01306136
v -0.00378028 0.02855838 -0.01307561
v -0.00368596 0.02846684 -0.01311124
v -0.00667501 0.02238082 -0.01309058
v -0.00693738 0.02220214 -0.01304995
v -0.00414782 0.02692383 -0.01316968
v -0.00615895 0.02239846 -0.01318821
v -0.00666200 0.02139258 -0.01317182
v -0.00759655 0.01729185 -0.01309414
v -0.00752066 0.01887788 -0.01307846
v -0.00716505 0.01938082 -0.01314973
v -0.00716505 0.01988376 -0.01313120
v -0.00711844 0.02088964 -0.01310055
v -0.00677259 0.02839184 -0.00973968
v -0.00687667 0.02810728 -0.00988577
v -0.00672488 0.02855838 -0.00959572
v -0.00668802 0.02855838 -0.00973896
v -0.00787952 0.02608780 -0.00988862
v -0.00800528 0.02591905 -0.00974110
v -0.00737864 0.02710030 -0.00988862
v -0.00827416 0.02536979 -0.00972899
v -0.00934532 0.02397457 -0.00602033
v -0.00945915 0.02372310 -0.00602033
v -0.00902657 0.02288486 -0.01077017
v -0.00895285 0.02270618 -0.01107733
v -0.00796083 0.02575251 -0.01013520
v -0.00805190 0.02543927 -0.01029198
v -0.00789795 0.02562236 -0.01047086
v -0.00839450 0.02409589 -0.01096544
v -0.00797710 0.02528706 -0.01065544
v -0.00846931 0.02376059 -0.01111724
v -0.00891273 0.02210729 -0.01151276
v -0.00886395 0.02239846 -0.01142795
v -0.00925641 0.01938082 -0.01181778
v -0.00928786 0.01887788 -0.01186053
v -0.00950686 0.01837494 -0.01164104
v -0.00882600 0.02139258 -0.01190899
v -0.00888129 0.02088964 -0.01197955
v -0.00891382 0.02057530 -0.01202159
v -0.00894309 0.02024001 -0.01205509
v -0.00878480 0.02192199 -0.01176860
v -0.00952854 0.01787200 -0.01166741
v -0.00954914 0.01736795 -0.01169306
v -0.00955239 0.01729185 -0.01169662
v 0.00022138 0.01883045 -0.01081650
v -0.00079232 0.01729185 -0.01125335
v 0.00022138 0.02428118 -0.01301646
v 0.00003924 0.02390618 -0.01302002
v -0.00263865 0.01729185 -0.01284685
v -0.00013314 0.02337015 -0.01299508
v 0.00022138 0.02390618 -0.01296729
v -0.00401229 0.02855838 -0.01300292
v -0.00666200 0.02189552 -0.01313832
v -0.00465087 0.02591795 -0.01316398
v -0.00615895 0.02290140 -0.01314545
v -0.00698834 0.02189552 -0.01306563
v -0.00731142 0.02139258 -0.01300719
v -0.00723986 0.02189552 -0.01297441
v -0.00712928 0.02238082 -0.01293735
v -0.00685173 0.02253743 -0.01302216
v -0.00705989 0.02139258 -0.01308559
v -0.00781013 0.01729185 -0.01303000
v -0.00784808 0.01729185 -0.01301860
v -0.00784374 0.01736795 -0.01301789
v -0.00779604 0.01837494 -0.01299793
v -0.00777219 0.01887788 -0.01298582
v -0.00748922 0.01938082 -0.01306777
v -0.00720625 0.02039552 -0.01309984
v -0.00743176 0.02023450 -0.01304710
v -0.00740249 0.02056979 -0.01303713
v -0.00736996 0.02088964 -0.01302715
v -0.00652214 0.02855838 -0.01024138
v -0.00696015 0.02777199 -0.01013449
v -0.00746212 0.02676500 -0.01013377
v -0.00837607 0.02355435 -0.01145218
v -0.00845088 0.02321905 -0.01157262
v -0.00740357 0.02614295 -0.01100107
v -0.00783507 0.02543927 -0.01080509
v -0.00645818 0.02855838 -0.01039389
v -0.00633350 0.02845471 -0.01081365
v -0.00639963 0.02816022 -0.01100464
v -0.00690160 0.02715324 -0.01100392
v -0.00790012 0.02512383 -0.01099038
v -0.00798035 0.02478853 -0.01112935
v -0.00851701 0.02290140 -0.01165885
v -0.00859290 0.02239516 -0.01180994
v -0.00896911 0.01988376 -0.01208217
v -0.00903633 0.01887788 -0.01214845
v -0.00931171 0.01837494 -0.01189260
v -0.00900489 0.01938082 -0.01211709
v -0.00850725 0.02189552 -0.01212279
v -0.00857447 0.02139258 -0.01218693
v -0.00862977 0.02088964 -0.01223325
v -0.00866988 0.02036795 -0.01228599
v -0.00842703 0.02016060 -0.01254183
v -0.00869807 0.01988376 -0.01233374
v -0.00845305 0.02222641 -0.01206720
v -0.00933231 0.01787200 -0.01191897
v -0.00935507 0.01729185 -0.01194819
v 0.00022138 0.01895839 -0.01094905
v -0.00089965 0.01729185 -0.01142938
v 0.00022138 0.01920435 -0.01118565
v 0.00018127 0.01903670 -0.01110726
v -0.00218005 0.01729185 -0.01264588
v 0.00022138 0.02339332 -0.01288533
v 0.00022138 0.02290140 -0.01279340
v -0.00413264 0.02846684 -0.01297014
v -0.00413589 0.02855838 -0.01294947
v -0.00766811 0.02139258 -0.01284542
v -0.00766811 0.02088964 -0.01289460
v -0.00766811 0.02189552 -0.01276703
v -0.00716505 0.02290140 -0.01280908
v -0.00817116 0.01729185 -0.01287037
v -0.00817116 0.01787200 -0.01284542
v -0.00817116 0.01837494 -0.01282262
v -0.00817116 0.01887788 -0.01279411
v -0.00774075 0.01938082 -0.01297227
v -0.00745670 0.01988376 -0.01305566
v -0.00770822 0.01988376 -0.01295731
v -0.00762691 0.02039552 -0.01295446
v -0.00748380 0.02580765 -0.01114075
v -0.00688317 0.02661170 -0.01148568
v -0.00696557 0.02627640 -0.01160042
v -0.00795650 0.02423706 -0.01158331
v -0.00803889 0.02390618 -0.01168451
v -0.00817767 0.02342199 -0.01179640
v -0.00831536 0.02290140 -0.01191042
v -0.00698508 0.02681794 -0.01115073
v -0.00628146 0.02855838 -0.01081365
v -0.00605161 0.02855838 -0.01126404
v -0.00648311 0.02782493 -0.01115287
v -0.00838583 0.02256170 -0.01199523
v -0.00875770 0.01887788 -0.01240001
v -0.00878263 0.01837494 -0.01242282
v -0.00906018 0.01837494 -0.01217125
v -0.00872842 0.01938082 -0.01236866
v -0.00823188 0.02189552 -0.01237436
v -0.00830018 0.02139258 -0.01243850
v -0.00835222 0.02088964 -0.01248482
v -0.00839342 0.02049589 -0.01251689
v -0.00804865 0.02139258 -0.01262806
v -0.00810069 0.02088964 -0.01265728
v -0.00820369 0.02035141 -0.01265728
v -0.00817116 0.01988376 -0.01272427
v -0.00844654 0.01988376 -0.01255680
v -0.00806383 0.02290140 -0.01217624
v -0.00786434 0.02251538 -0.01249765
v -0.00910029 0.01736795 -0.01220688
v -0.00910355 0.01729185 -0.01220902
v -0.00908078 0.01787200 -0.01218978
v -0.00097229 0.01729185 -0.01153485
v 0.00022138 0.01980876 -0.01164246
v 0.00022138 0.01947678 -0.01139873
v 0.00022138 0.01936538 -0.01131464
v -0.00192852 0.01729185 -0.01251119
v 0.00022138 0.02241611 -0.01268793
v 0.00022138 0.02194405 -0.01258031
v 0.00013573 0.02162530 -0.01254326
v -0.00465087 0.02792971 -0.01285184
v -0.00467147 0.02855838 -0.01268650
v -0.00798035 0.02189552 -0.01258245
v -0.00768546 0.02236758 -0.01265229
v -0.00752825 0.02290140 -0.01261167
v -0.00718999 0.02340214 -0.01266797
v -0.00469532 0.02847015 -0.01269648
v -0.00857447 0.01729185 -0.01264089
v -0.00857122 0.01736795 -0.01263947
v -0.00855171 0.01787200 -0.01262735
v -0.00853111 0.01837494 -0.01261452
v -0.00850617 0.01887788 -0.01259813
v -0.00817116 0.01938082 -0.01276133
v -0.00708049 0.02643522 -0.01130324
v -0.00596163 0.02855838 -0.01141655
v -0.00638120 0.02762199 -0.01148853
v -0.00596488 0.02829699 -0.01160683
v -0.00646577 0.02728669 -0.01160398
v -0.00582936 0.02802346 -0.01194249
v -0.00632916 0.02701096 -0.01193964
v -0.00684631 0.02591795 -0.01195674
v -0.00790446 0.02362383 -0.01201946
v -0.00798035 0.02328854 -0.01209571
v -0.00847798 0.01938082 -0.01257889
v -0.00880323 0.01787200 -0.01244135
v -0.00793048 0.02218008 -0.01254682
v -0.00777978 0.02290140 -0.01242781
v -0.00737430 0.02356979 -0.01250834
v -0.00745236 0.02323449 -0.01256392
v -0.00882275 0.01736795 -0.01245845
v -0.00906126 0.01729185 -0.01224751
v -0.00114901 0.01729185 -0.01178000
v 0.00022138 0.01992788 -0.01171943
v -0.00188082 0.01729185 -0.01247342
v 0.00022138 0.02154369 -0.01245703
v 0.00022138 0.02134295 -0.01238576
v 0.00022138 0.02100986 -0.01226247
v 0.00022138 0.02088964 -0.01221757
v 0.00022138 0.02189552 -0.01256606
v -0.00506177 0.02792971 -0.01263661
v -0.00478531 0.02855838 -0.01262022
v -0.00882600 0.01729185 -0.01246059
v -0.00582719 0.02855838 -0.01160754
v -0.00569601 0.02855838 -0.01177858
v -0.00544773 0.02855838 -0.01207789
v -0.00591284 0.02768816 -0.01204084
v -0.00641156 0.02667567 -0.01203727
v -0.00647444 0.02642089 -0.01209642
v -0.00758354 0.02390618 -0.01218907
v -0.00767895 0.02342971 -0.01230238
v -0.00502708 0.02855838 -0.01245489
v -0.00538594 0.02764294 -0.01252615
v -0.00596163 0.02628743 -0.01257461
v -0.00121731 0.01729185 -0.01186481
v 0.00022138 0.02025435 -0.01192610
v -0.00159135 0.01729185 -0.01223682
v 0.00022138 0.02061170 -0.01210711
v -0.00496528 0.02832787 -0.01258031
v -0.00547809 0.02843265 -0.01210711
v -0.00154798 0.01729185 -0.01219976
v 0.00010321 0.02017935 -0.01201162
v 0.00019428 0.02051464 -0.01208787
v 0.00022138 0.02049369 -0.01204868
f 1 2 6
f 1 6 14
f 1 14 26
f 1 26 39
f 1 39 41
f 1 41 57
f 1 57 80
f 1 80 107
f 1 107 137
f 1 137 183
f 1 183 242
f 1 242 241
f 1 241 307
f 1 307 382
f 1 382 443
f 1 443 496
f 1 496 551
f 1 551 601
f 1 601 641
f 1 641 652
f 1 652 618
f 1 618 565
f 1 565 515
f 1 515 514
f 1 514 461
f 1 461 395
f 1 395 330
f 1 330 265
f 1 265 263
f 1 263 253
f 1 253 252
f 1 252 251
f 1 251 250
f 1 250 315
f 1 315 388
f 1 388 387
f 1 387 451
f 1 451 501
f 1 501 556
f 1 556 607
f 1 607 644
f 1 644 666
f 1 666 670
f 1 670 664
f 1 664 642
f 1 642 603
f 1 603 553
f 1 553 498
f 1 498 447
f 1 447 446
f 1 446 384
f 1 384 310
f 1 310 308
f 1 308 243
f 1 243 184
f 1 184 138
f 1 138 108
f 1 108 81
f 1 81 58
f 1 58 42
f 1 42 28
f 1 28 15
f 1 15 7
f 1 7 3
f 1 3 9
f 1 9 17
f 1 17 30
f 1 30 45
f 1 45 64
f 1 64 89
f 1 89 119
f 1 119 162
f 1 162 217
f 1 217 283
f 1 283 350
f 1 350 415
f 1 415 474
f 1 474 475
f 1 475 416
f 1 416 351
f 1 351 285
f 1 285 284
f 1 284 219
f 1 219 218
f 1 218 163
f 1 163 120
f 1 120 91
f 1 91 90
f 1 90 65
f 1 65 47
f 1 47 46
f 1 46 31
f 1 31 19
f 1 19 18
f 1 18 10
f 1 10 4
f 1 4 5
f 1 5 2
f 2 5 6
f 3 7 16
f 3 16 8
f 3 8 9
f 4 10 11
f 4 11 5
f 5 12 6
f 5 11 13
f 5 13 12
f 6 12 14
f 7 15 16
f 8 16 29
f 8 29 43
f 8 43 60
f 8 60 59
f 8 59 82
f 8 82 109
f 8 109 139
f 8 139 187
f 8 187 186
f 8 186 185
f 8 185 244
f 8 244 309
f 8 309 383
f 8 383 445
f 8 445 497
f 8 497 552
f 8 552 554
f 8 554 606
f 8 606 605
f 8 605 604
f 8 604 643
f 8 643 665
f 8 665 673
f 8 673 667
f 8 667 648
f 8 648 647
f 8 647 646
f 8 646 645
f 8 645 649
f 8 649 609
f 8 609 608
f 8 608 558
f 8 558 557
f 8 557 503
f 8 503 499
f 8 499 448
f 8 448 385
f 8 385 312
f 8 312 311
f 8 311 245
f 8 245 188
f 8 188 140
f 8 140 110
f 8 110 83
f 8 83 61
f 8 61 44
f 8 44 30
f 8 30 17
f 8 17 9
f 10 18 11
f 11 18 19
f 11 19 20
f 11 20 21
f 11 21 13
f 12 22 23
f 12 23 14
f 12 13 22
f 13 21 24
f 13 24 25
f 13 25 22
f 14 23 27
f 14 27 26
f 15 28 29
f 15 29 16
f 19 31 20
f 20 31 32
f 20 32 33
f 20 33 21
f 21 33 34
f 21 34 24
f 22 35 27
f 22 27 23
f 22 25 35
f 24 34 36
f 24 36 37
f 24 37 38
f 24 38 25
f 25 38 35
f 26 27 39
f 27 35 52
f 27 52 40
f 27 40 41
f 27 41 39
f 28 42 43
f 28 43 29
f 30 44 62
f 30 62 86
f 30 86 114
f 30 114 151
f 30 151 200
f 30 200 257
f 30 257 316
f 30 316 389
f 30 389 454
f 30 454 504
f 30 504 560
f 30 560 612
f 30 612 651
f 30 651 661
f 30 661 655
f 30 655 654
f 30 654 653
f 30 653 625
f 30 625 582
f 30 582 581
f 30 581 531
f 30 531 524
f 30 524 469
f 30 469 468
f 30 468 402
f 30 402 334
f 30 334 331
f 30 331 268
f 30 268 207
f 30 207 157
f 30 157 117
f 30 117 88
f 30 88 63
f 30 63 45
f 31 46 32
f 32 46 47
f 32 47 48
f 32 48 49
f 32 49 33
f 33 49 50
f 33 50 34
f 34 50 51
f 34 51 36
f 35 38 53
f 35 53 52
f 36 51 54
f 36 54 55
f 36 55 37
f 37 55 38
f 38 55 53
f 40 52 56
f 40 56 57
f 40 57 41
f 42 58 59
f 42 59 60
f 42 60 43
f 44 61 62
f 45 63 64
f 47 65 66
f 47 66 48
f 48 66 67
f 48 67 49
f 49 67 50
f 50 67 68
f 50 68 51
f 51 68 69
f 51 69 54
f 52 70 56
f 52 53 70
f 53 71 72
f 53 72 70
f 53 55 73
f 53 73 74
f 53 74 71
f 54 69 75
f 54 75 76
f 54 76 55
f 55 76 74
f 55 74 73
f 56 70 77
f 56 77 78
f 56 78 79
f 56 79 57
f 57 79 80
f 58 81 59
f 59 81 82
f 61 83 84
f 61 84 85
f 61 85 62
f 62 85 87
f 62 87 86
f 63 88 89
f 63 89 64
f 65 90 66
f 66 90 91
f 66 91 92
f 66 92 67
f 67 92 93
f 67 93 94
f 67 94 68
f 68 94 95
f 68 95 69
f 69 95 99
f 69 99 75
f 70 72 77
f 71 96 77
f 71 77 72
f 71 74 97
f 71 97 96
f 74 76 98
f 74 98 97
f 75 99 100
f 75 100 101
f 75 101 98
f 75 98 76
f 77 102 78
f 77 96 103
f 77 103 104
f 77 104 102
f 78 102 79
f 79 102 105
f 79 105 106
f 79 106 80
f 80 106 107
f 81 108 109
f 81 109 82
f 83 110 111
f 83 111 84
f 84 112 85
f 84 111 113
f 84 113 112
f 85 112 87
f 86 87 115
f 86 115 114
f 87 112 116
f 87 116 115
f 88 117 89
f 89 118 119
f 89 117 118
f 91 120 121
f 91 121 92
f 92 121 93
f 93 121 122
f 93 122 123
f 93 123 94
f 94 123 124
f 94 124 95
f 95 124 99
f 96 97 103
f 97 98 125
f 97 125 103
f 98 101 126
f 98 126 125
f 99 124 127
f 99 127 128
f 99 128 100
f 100 128 129
f 100 129 130
f 100 130 126
f 100 126 101
f 102 104 131
f 102 131 132
f 102 132 105
f 103 133 131
f 103 131 104
f 103 125 134
f 103 134 133
f 105 132 106
f 106 132 135
f 106 135 136
f 106 136 137
f 106 137 107
f 108 138 139
f 108 139 109
f 110 140 141
f 110 141 142
f 110 142 111
f 111 143 113
f 111 142 144
f 111 144 145
f 111 145 146
f 111 146 143
f 112 113 150
f 112 150 147
f 112 147 116
f 113 143 148
f 113 148 149
f 113 149 199
f 113 199 150
f 114 115 151
f 115 116 152
f 115 152 153
f 115 153 151
f 116 147 196
f 116 196 154
f 116 154 155
f 116 155 156
f 116 156 152
f 117 157 158
f 117 158 159
f 117 159 160
f 117 160 118
f 118 160 161
f 118 161 119
f 119 161 162
f 120 163 121
f 121 163 164
f 121 164 165
f 121 165 122
f 122 165 166
f 122 166 123
f 123 166 167
f 123 167 124
f 124 167 168
f 124 168 127
f 125 126 169
f 125 169 134
f 126 130 170
f 126 170 169
f 127 168 171
f 127 171 128
f 128 171 172
f 128 172 129
f 129 172 173
f 129 173 174
f 129 174 175
f 129 175 130
f 130 175 170
f 131 176 177
f 131 177 132
f 131 133 178
f 131 178 176
f 132 177 179
f 132 179 182
f 132 182 135
f 133 134 178
f 134 169 180
f 134 180 181
f 134 181 178
f 135 182 183
f 135 183 136
f 136 183 137
f 138 184 185
f 138 185 186
f 138 186 187
f 138 187 139
f 140 188 189
f 140 189 190
f 140 190 141
f 141 190 191
f 141 191 144
f 141 144 142
f 143 146 148
f 144 191 192
f 144 192 193
f 144 193 194
f 144 194 145
f 145 194 146
f 146 194 195
f 146 195 148
f 147 150 196
f 148 195 197
f 148 197 198
f 148 198 149
f 149 198 199
f 150 199 196
f 151 153 201
f 151 201 200
f 152 156 202
f 152 202 203
f 152 203 153
f 153 203 201
f 154 196 204
f 154 204 155
f 155 204 205
f 155 205 156
f 156 205 206
f 156 206 202
f 157 207 208
f 157 208 209
f 157 209 210
f 157 210 158
f 158 210 211
f 158 211 212
f 158 212 213
f 158 213 159
f 159 213 160
f 160 213 214
f 160 214 161
f 161 214 215
f 161 215 216
f 161 216 217
f 161 217 162
f 163 218 164
f 164 218 219
f 164 219 220
f 164 220 221
f 164 221 165
f 165 221 166
f 166 221 222
f 166 222 223
f 166 223 167
f 167 223 168
f 168 223 224
f 168 224 171
f 169 170 225
f 169 225 180
f 170 175 226
f 170 226 227
f 170 227 228
f 170 228 225
f 171 224 229
f 171 229 172
f 172 229 173
f 173 229 230
f 173 230 231
f 173 231 232
f 173 232 226
f 173 226 174
f 174 226 175
f 176 178 233
f 176 233 234
f 176 234 177
f 177 235 179
f 177 234 235
f 178 181 236
f 178 236 237
f 178 237 238
f 178 238 233
f 179 235 182
f 180 225 239
f 180 239 236
f 180 236 181
f 182 235 240
f 182 240 241
f 182 241 242
f 182 242 183
f 184 243 185
f 185 243 244
f 188 245 189
f 189 245 246
f 189 246 247
f 189 247 191
f 189 191 190
f 191 247 192
f 192 248 249
f 192 249 193
f 192 247 248
f 193 249 250
f 193 250 251
f 193 251 252
f 193 252 194
f 194 252 253
f 194 253 254
f 194 254 255
f 194 255 195
f 195 255 197
f 196 199 256
f 196 256 204
f 197 255 198
f 198 255 199
f 199 255 256
f 200 201 258
f 200 258 259
f 200 259 257
f 201 203 258
f 202 260 261
f 202 261 258
f 202 258 203
f 202 206 262
f 202 262 260
f 204 256 263
f 204 263 264
f 204 264 205
f 205 264 263
f 205 263 206
f 206 263 265
f 206 265 266
f 206 266 267
f 206 267 262
f 207 268 208
f 208 269 270
f 208 270 211
f 208 211 210
f 208 210 209
f 208 268 271
f 208 271 272
f 208 272 269
f 211 270 273
f 211 273 274
f 211 274 275
f 211 275 276
f 211 276 277
f 211 277 212
f 212 277 278
f 212 278 213
f 213 278 279
f 213 279 215
f 213 215 214
f 215 279 280
f 215 280 281
f 215 281 216
f 216 281 282
f 216 282 283
f 216 283 217
f 219 284 220
f 220 284 285
f 220 285 286
f 220 286 221
f 221 286 287
f 221 287 288
f 221 288 222
f 222 288 289
f 222 289 223
f 223 289 290
f 223 290 224
f 224 290 291
f 224 291 229
f 225 228 239
f 226 228 227
f 226 232 292
f 226 292 293
f 226 293 294
f 226 294 228
f 228 295 296
f 228 296 239
f 228 294 297
f 228 297 295
f 229 291 230
f 230 291 298
f 230 298 299
f 230 299 231
f 231 292 232
f 231 299 300
f 231 300 292
f 233 238 301
f 233 301 234
f 234 301 235
f 235 302 240
f 235 301 302
f 236 239 296
f 236 296 237
f 237 303 238
f 237 296 304
f 237 304 303
f 238 303 301
f 240 305 306
f 240 306 307
f 240 307 241
f 240 302 305
f 243 308 244
f 244 308 310
f 244 310 309
f 245 311 246
f 246 311 312
f 246 312 313
f 246 313 314
f 246 314 247
f 247 314 248
f 248 314 315
f 248 315 250
f 248 250 249
f 253 263 256
f 253 256 255
f 253 255 254
f 257 259 317
f 257 317 318
f 257 318 316
f 258 261 319
f 258 319 259
f 259 319 317
f 260 320 321
f 260 321 261
f 260 262 320
f 261 321 319
f 262 267 322
f 262 322 323
f 262 323 324
f 262 324 325
f 262 325 326
f 262 326 327
f 262 327 328
f 262 328 329
f 262 329 320
f 265 330 266
f 266 330 267
f 267 330 322
f 268 331 271
f 269 332 333
f 269 333 270
f 269 272 334
f 269 334 332
f 270 333 335
f 270 335 273
f 271 331 334
f 271 334 272
f 273 335 336
f 273 336 274
f 274 336 337
f 274 337 338
f 274 338 275
f 275 338 339
f 275 339 276
f 276 339 340
f 276 340 341
f 276 341 277
f 277 341 340
f 277 340 342
f 277 342 343
f 277 343 344
f 277 344 345
f 277 345 346
f 277 346 278
f 278 346 279
f 279 346 280
f 280 346 347
f 280 347 348
f 280 348 281
f 281 348 282
f 282 348 349
f 282 349 350
f 282 350 283
f 285 351 286
f 286 351 416
f 286 416 352
f 286 352 353
f 286 353 287
f 287 353 354
f 287 354 288
f 288 354 355
f 288 355 289
f 289 356 290
f 289 355 356
f 290 356 357
f 290 357 358
f 290 358 359
f 290 359 291
f 291 359 298
f 292 360 361
f 292 361 293
f 292 300 362
f 292 362 363
f 292 363 364
f 292 364 360
f 293 361 294
f 294 361 297
f 295 297 365
f 295 365 296
f 296 365 366
f 296 366 304
f 297 361 367
f 297 367 365
f 298 359 368
f 298 368 369
f 298 369 370
f 298 370 371
f 298 371 299
f 299 371 372
f 299 372 300
f 300 372 362
f 301 303 373
f 301 373 374
f 301 374 302
f 302 375 305
f 302 374 375
f 303 304 379
f 303 379 376
f 303 376 377
f 303 377 373
f 304 366 378
f 304 378 379
f 305 380 307
f 305 307 306
f 305 375 380
f 307 381 382
f 307 380 381
f 309 310 383
f 310 384 383
f 312 385 386
f 312 386 313
f 313 386 314
f 314 386 387
f 314 387 388
f 314 388 315
f 316 318 390
f 316 390 389
f 317 319 321
f 317 321 391
f 317 391 318
f 318 391 392
f 318 392 393
f 318 393 458
f 318 458 390
f 320 392 321
f 320 329 394
f 320 394 392
f 321 392 391
f 322 330 395
f 322 395 323
f 323 395 324
f 324 395 325
f 325 395 326
f 326 395 396
f 326 396 327
f 327 396 397
f 327 397 328
f 328 398 329
f 328 397 398
f 329 398 394
f 332 399 333
f 332 334 400
f 332 400 401
f 332 401 399
f 333 399 335
f 334 402 400
f 335 399 403
f 335 403 336
f 336 403 337
f 337 403 404
f 337 404 338
f 338 404 405
f 338 405 339
f 339 405 406
f 339 406 340
f 340 343 342
f 340 406 407
f 340 407 369
f 340 369 368
f 340 368 408
f 340 408 357
f 340 357 343
f 343 357 409
f 343 409 344
f 344 410 411
f 344 411 345
f 344 409 355
f 344 355 412
f 344 412 410
f 345 411 347
f 345 347 346
f 347 411 348
f 348 411 410
f 348 410 413
f 348 413 349
f 349 413 414
f 349 414 350
f 350 414 415
f 352 416 475
f 352 475 417
f 352 417 418
f 352 418 353
f 353 418 419
f 353 419 354
f 354 419 355
f 355 419 420
f 355 420 412
f 355 409 421
f 355 421 357
f 355 357 356
f 357 408 358
f 357 421 409
f 358 408 368
f 358 368 359
f 360 422 361
f 360 364 422
f 361 422 367
f 362 372 423
f 362 423 404
f 362 404 424
f 362 424 425
f 362 425 426
f 362 426 427
f 362 427 363
f 363 427 364
f 364 427 428
f 364 428 422
f 365 378 366
f 365 367 429
f 365 429 378
f 367 422 430
f 367 430 429
f 369 407 370
f 370 431 371
f 370 407 406
f 370 406 405
f 370 405 404
f 370 404 431
f 371 431 423
f 371 423 372
f 373 377 374
f 374 377 432
f 374 432 433
f 374 433 375
f 375 434 435
f 375 435 380
f 375 433 434
f 376 379 436
f 376 436 437
f 376 437 438
f 376 438 377
f 377 438 439
f 377 439 432
f 378 429 440
f 378 440 379
f 379 440 436
f 380 435 381
f 381 441 443
f 381 443 382
f 381 435 442
f 381 442 441
f 383 444 445
f 383 384 446
f 383 446 447
f 383 447 444
f 385 448 449
f 385 449 386
f 386 449 450
f 386 450 387
f 387 450 451
f 389 452 453
f 389 453 454
f 389 390 455
f 389 455 456
f 389 456 457
f 389 457 452
f 390 458 455
f 392 394 459
f 392 459 393
f 393 459 458
f 394 398 460
f 394 460 459
f 395 461 396
f 396 461 397
f 397 461 462
f 397 462 463
f 397 463 398
f 398 463 464
f 398 464 465
f 398 465 460
f 399 401 466
f 399 466 467
f 399 467 403
f 400 402 401
f 401 402 468
f 401 468 469
f 401 469 466
f 403 470 471
f 403 471 404
f 403 467 472
f 403 472 470
f 404 471 473
f 404 473 425
f 404 425 424
f 404 423 431
f 410 412 418
f 410 418 413
f 412 420 418
f 413 418 414
f 414 418 417
f 414 417 415
f 415 417 474
f 417 475 474
f 418 420 419
f 422 428 476
f 422 476 477
f 422 477 430
f 425 473 470
f 425 470 478
f 425 478 426
f 426 478 479
f 426 479 480
f 426 480 427
f 427 481 428
f 427 480 482
f 427 482 481
f 428 481 483
f 428 483 477
f 428 477 476
f 429 430 484
f 429 484 440
f 430 477 485
f 430 485 484
f 432 439 433
f 433 439 486
f 433 486 487
f 433 487 434
f 434 487 541
f 434 541 488
f 434 488 443
f 434 443 435
f 435 443 441
f 435 441 442
f 436 440 489
f 436 489 490
f 436 490 437
f 437 490 491
f 437 491 438
f 438 491 492
f 438 492 439
f 439 492 486
f 440 484 493
f 440 493 489
f 443 488 494
f 443 494 495
f 443 495 496
f 444 447 445
f 445 447 497
f 447 498 497
f 448 499 449
f 449 499 500
f 449 500 450
f 450 500 451
f 451 500 502
f 451 502 503
f 451 503 501
f 452 504 453
f 452 457 504
f 453 504 454
f 455 458 456
f 456 505 457
f 456 458 506
f 456 506 507
f 456 507 505
f 457 505 508
f 457 508 509
f 457 509 510
f 457 510 511
f 457 511 512
f 457 512 504
f 458 459 506
f 459 460 505
f 459 505 507
f 459 507 506
f 460 465 513
f 460 513 505
f 461 514 462
f 462 514 515
f 462 515 516
f 462 516 517
f 462 517 518
f 462 518 519
f 462 519 464
f 462 464 463
f 464 519 520
f 464 520 465
f 465 520 521
f 465 521 522
f 465 522 523
f 465 523 513
f 466 469 467
f 467 469 524
f 467 524 525
f 467 525 472
f 470 473 471
f 470 472 526
f 470 526 478
f 472 525 526
f 477 483 527
f 477 527 528
f 477 528 485
f 478 480 479
f 478 526 480
f 480 529 530
f 480 530 482
f 480 526 525
f 480 525 524
f 480 524 531
f 480 531 532
f 480 532 533
f 480 533 534
f 480 534 529
f 481 482 535
f 481 535 483
f 482 530 535
f 483 535 536
f 483 536 527
f 484 485 537
f 484 537 538
f 484 538 493
f 485 528 537
f 486 492 539
f 486 539 487
f 487 540 541
f 487 539 542
f 487 542 540
f 488 541 494
f 489 493 543
f 489 543 544
f 489 544 490
f 490 544 491
f 491 544 545
f 491 545 492
f 492 545 546
f 492 546 547
f 492 547 548
f 492 548 539
f 493 538 549
f 493 549 543
f 494 541 550
f 494 550 495
f 495 550 496
f 496 550 551
f 497 498 552
f 498 553 554
f 498 554 555
f 498 555 552
f 499 503 500
f 500 503 502
f 501 503 557
f 501 557 558
f 501 558 556
f 504 559 560
f 504 512 511
f 504 511 559
f 505 513 508
f 508 513 509
f 509 561 510
f 509 513 523
f 509 523 562
f 509 562 561
f 510 561 563
f 510 563 511
f 511 563 564
f 511 564 560
f 511 560 559
f 515 565 516
f 516 565 517
f 517 566 567
f 517 567 518
f 517 565 566
f 518 567 568
f 518 568 569
f 518 569 570
f 518 570 519
f 519 570 520
f 520 570 521
f 521 570 569
f 521 569 571
f 521 571 522
f 522 572 523
f 522 571 572
f 523 572 562
f 527 536 573
f 527 573 574
f 527 574 575
f 527 575 576
f 527 576 528
f 528 576 577
f 528 577 578
f 528 578 579
f 528 579 537
f 529 573 535
f 529 535 530
f 529 534 580
f 529 580 573
f 531 581 532
f 532 581 533
f 533 581 582
f 533 582 583
f 533 583 534
f 534 583 580
f 535 573 536
f 537 579 584
f 537 584 538
f 538 584 549
f 539 548 542
f 540 585 586
f 540 586 587
f 540 587 541
f 540 542 588
f 540 588 585
f 541 587 550
f 542 548 588
f 543 589 590
f 543 590 544
f 543 549 589
f 544 590 545
f 545 591 592
f 545 592 546
f 545 590 591
f 546 592 547
f 547 592 593
f 547 593 594
f 547 594 595
f 547 595 596
f 547 596 597
f 547 597 588
f 547 588 548
f 549 584 598
f 549 598 599
f 549 599 589
f 550 587 551
f 551 600 601
f 551 587 602
f 551 602 600
f 552 555 554
f 553 603 604
f 553 604 605
f 553 605 606
f 553 606 554
f 556 558 608
f 556 608 609
f 556 609 610
f 556 610 607
f 560 611 612
f 560 564 611
f 561 593 563
f 561 562 596
f 561 596 595
f 561 595 594
f 561 594 593
f 562 572 571
f 562 571 596
f 563 593 613
f 563 613 614
f 563 614 564
f 564 615 616
f 564 616 617
f 564 617 611
f 564 614 615
f 565 618 566
f 566 618 619
f 566 619 567
f 567 619 620
f 567 620 621
f 567 621 568
f 568 621 622
f 568 622 623
f 568 623 571
f 568 571 569
f 571 623 596
f 573 580 624
f 573 624 574
f 574 624 580
f 574 580 625
f 574 625 626
f 574 626 627
f 574 627 628
f 574 628 575
f 575 628 629
f 575 629 630
f 575 630 631
f 575 631 632
f 575 632 577
f 575 577 576
f 577 632 578
f 578 632 579
f 579 632 584
f 580 583 625
f 582 625 583
f 584 632 633
f 584 633 598
f 585 588 597
f 585 597 634
f 585 634 586
f 586 634 622
f 586 622 621
f 586 621 635
f 586 635 602
f 586 602 587
f 589 599 636
f 589 636 613
f 589 613 590
f 590 613 593
f 590 593 591
f 591 593 592
f 596 623 634
f 596 634 597
f 598 633 637
f 598 637 599
f 599 637 638
f 599 638 639
f 599 639 615
f 599 615 636
f 600 640 641
f 600 641 601
f 600 602 635
f 600 635 640
f 603 642 604
f 604 642 643
f 607 610 645
f 607 645 646
f 607 646 647
f 607 647 648
f 607 648 644
f 609 649 610
f 610 649 645
f 611 617 612
f 612 650 651
f 612 617 616
f 612 616 650
f 613 636 614
f 614 636 615
f 615 639 616
f 616 639 650
f 618 652 619
f 619 652 620
f 620 652 621
f 621 652 640
f 621 640 635
f 622 634 623
f 625 653 627
f 625 627 626
f 627 653 654
f 627 654 629
f 627 629 628
f 629 654 655
f 629 655 656
f 629 656 630
f 630 657 631
f 630 656 657
f 631 657 632
f 632 657 658
f 632 658 659
f 632 659 633
f 633 659 660
f 633 660 637
f 637 660 638
f 638 660 659
f 638 659 661
f 638 661 662
f 638 662 639
f 639 662 663
f 639 663 650
f 640 652 641
f 642 664 665
f 642 665 643
f 644 648 667
f 644 667 666
f 650 668 651
f 650 663 668
f 651 668 661
f 655 661 669
f 655 669 658
f 655 658 656
f 656 658 657
f 658 669 661
f 658 661 659
f 661 668 662
f 662 668 663
f 664 670 671
f 664 671 665
f 665 671 672
f 665 672 673
f 666 667 670
f 667 673 672
f 667 672 670
f 670 672 671

