# https://github.com/mikedh/trimesh
v 0.00105694 0.00746876 -0.00712391
v 0.00110548 0.00739013 -0.00712391
v 0.00105244 0.00746876 -0.00723063
v -0.00329698 0.00746876 -0.00712391
v 0.00111399 0.00737539 -0.00712391
v 0.00110098 0.00737293 -0.00744002
v 0.00104243 0.00746876 -0.00744002
v -0.00329698 0.00746876 -0.00893410
v -0.00329698 0.00328537 -0.00712391
v 0.00121507 0.00719724 -0.00712391
v 0.00122457 0.00715670 -0.00744002
v 0.00108496 0.00734468 -0.00787284
v 0.00101040 0.00746876 -0.00787284
v 0.00102992 0.00746876 -0.00761536
v -0.00329698 0.00644657 -0.00988404
v 0.00047398 0.00746876 -0.00871769
v 0.00089581 0.00641667 -0.00988404
v 0.00045297 0.00643182 -0.00988404
v -0.00222164 0.00328537 -0.00712391
v -0.00329698 0.00328537 -0.00988404
v 0.00138970 0.00688395 -0.00712391
v 0.00120706 0.00712844 -0.00787284
v 0.00144825 0.00677870 -0.00712391
v 0.00144074 0.00676682 -0.00744002
v 0.00105544 0.00730700 -0.00830567
v 0.00118504 0.00709076 -0.00830567
v 0.00095736 0.00746876 -0.00830567
v 0.00059208 0.00746876 -0.00869310
v 0.00079874 0.00746876 -0.00863744
v 0.00118854 0.00623893 -0.00988404
v -0.00105122 0.00328537 -0.00830567
v 0.00003063 0.00383292 -0.00712391
v -0.00160265 0.00328537 -0.00988404
v 0.00154933 0.00653544 -0.00769371
v 0.00147977 0.00672055 -0.00712391
v 0.00155784 0.00655059 -0.00744002
v 0.00115352 0.00703425 -0.00865852
v 0.00136919 0.00674348 -0.00830567
v 0.00089682 0.00746876 -0.00845318
v 0.00115452 0.00656533 -0.00948040
v 0.00123858 0.00633313 -0.00961630
v 0.00143074 0.00626965 -0.00913079
v 0.00154633 0.00609764 -0.00895950
v 0.00123108 0.00607676 -0.00988404
v -0.00100118 0.00328537 -0.00873822
v 0.00027433 0.00391319 -0.00712391
v 0.00021228 0.00389230 -0.00712391
v -0.00135996 0.00328537 -0.00960387
v -0.00056884 0.00390295 -0.00988404
v 0.00166992 0.00631101 -0.00744002
v 0.00162139 0.00633845 -0.00785204
v 0.00153282 0.00650103 -0.00798226
v 0.00156384 0.00656246 -0.00712391
v 0.00165491 0.00637531 -0.00712391
v 0.00168544 0.00631101 -0.00712391
v 0.00148228 0.00636835 -0.00873822
v 0.00125960 0.00678484 -0.00877685
v 0.00121206 0.00666116 -0.00917104
v 0.00151280 0.00645476 -0.00830567
v 0.00155133 0.00587813 -0.00897814
v 0.00149278 0.00587813 -0.00919455
v 0.00136168 0.00587813 -0.00960387
v 0.00156784 0.00615211 -0.00873822
v 0.00168794 0.00587813 -0.00830567
v 0.00160437 0.00587813 -0.00873822
v 0.00125310 0.00588878 -0.00988404
v -0.00101269 0.00328537 -0.00899300
v 0.00026081 0.00392179 -0.00744002
v 0.00049050 0.00407577 -0.00712391
v -0.00103070 0.00328537 -0.00917104
v -0.00033916 0.00407168 -0.00988404
v -0.00027361 0.00399100 -0.00960387
v 0.00178101 0.00599485 -0.00712391
v 0.00181504 0.00587813 -0.00712391
v 0.00179452 0.00587813 -0.00744002
v 0.00160687 0.00623811 -0.00830567
v 0.00155233 0.00564347 -0.00898111
v 0.00117754 0.00554313 -0.00988404
v 0.00175099 0.00587813 -0.00787284
v 0.00158185 0.00556934 -0.00873822
v 0.00024830 0.00392998 -0.00767156
v 0.00047698 0.00408806 -0.00744002
v 0.00069015 0.00423344 -0.00712391
v -0.00020405 0.00394022 -0.00935260
v -0.00014851 0.00390254 -0.00906405
v 0.00011920 0.00402212 -0.00873822
v 0.00018375 0.00396929 -0.00830567
v 0.00022629 0.00394104 -0.00796011
v -0.00007395 0.00428013 -0.00988404
v 0.00018926 0.00441200 -0.00969681
v 0.00003914 0.00423385 -0.00957307
v 0.00178051 0.00556197 -0.00712391
v 0.00176650 0.00544526 -0.00712391
v 0.00174248 0.00544526 -0.00744002
v 0.00152481 0.00526875 -0.00842670
v 0.00148128 0.00535352 -0.00873822
v 0.00141873 0.00547761 -0.00914349
v 0.00123058 0.00543051 -0.00960441
v 0.00107596 0.00527694 -0.00974922
v 0.00104944 0.00534287 -0.00988404
v 0.00169044 0.00544526 -0.00787284
v 0.00161588 0.00542560 -0.00829189
v 0.00074970 0.00430429 -0.00744002
v 0.00076371 0.00429201 -0.00712391
v 0.00025681 0.00435548 -0.00940853
v 0.00030935 0.00430921 -0.00917104
v 0.00000962 0.00406635 -0.00919347
v 0.00038942 0.00423836 -0.00873822
v 0.00048999 0.00421583 -0.00828675
v 0.00069015 0.00435466 -0.00813005
v 0.00071617 0.00433296 -0.00787284
v 0.00011470 0.00444067 -0.00988404
v 0.00037941 0.00466837 -0.00988404
v 0.00064161 0.00483382 -0.00974436
v 0.00071367 0.00476502 -0.00945581
v 0.00161838 0.00513688 -0.00712391
v 0.00160537 0.00515244 -0.00744002
v 0.00157685 0.00518848 -0.00787284
v 0.00126510 0.00506152 -0.00873822
v 0.00119655 0.00513565 -0.00917104
v 0.00114501 0.00519298 -0.00946068
v 0.00155483 0.00521714 -0.00813843
v 0.00082276 0.00508650 -0.00988404
v 0.00096587 0.00449718 -0.00744002
v 0.00097988 0.00448367 -0.00712391
v 0.00052552 0.00449473 -0.00917104
v 0.00060609 0.00442797 -0.00873822
v 0.00065212 0.00438702 -0.00841860
v 0.00110248 0.00480597 -0.00847561
v 0.00113200 0.00477648 -0.00818706
v 0.00093234 0.00452913 -0.00787284
v 0.00060308 0.00487027 -0.00988404
v 0.00089481 0.00501361 -0.00960252
v 0.00098839 0.00491900 -0.00917104
v 0.00077222 0.00471137 -0.00917104
v 0.00142673 0.00492064 -0.00712391
v 0.00141272 0.00493620 -0.00744002
v 0.00137970 0.00497183 -0.00787284
v 0.00106395 0.00484529 -0.00873822
v 0.00116302 0.00474577 -0.00787284
v 0.00119605 0.00471342 -0.00744002
v 0.00114851 0.00464175 -0.00712391
v 0.00084728 0.00464421 -0.00873822
v 0.00121056 0.00470031 -0.00712391
f 1 2 3
f 1 3 7
f 1 7 14
f 1 14 13
f 1 13 27
f 1 27 39
f 1 39 29
f 1 29 28
f 1 28 16
f 1 16 8
f 1 8 4
f 1 4 9
f 1 9 19
f 1 19 32
f 1 32 47
f 1 47 46
f 1 46 69
f 1 69 83
f 1 83 104
f 1 104 125
f 1 125 142
f 1 142 144
f 1 144 136
f 1 136 116
f 1 116 93
f 1 93 92
f 1 92 74
f 1 74 73
f 1 73 55
f 1 55 54
f 1 54 53
f 1 53 35
f 1 35 23
f 1 23 21
f 1 21 10
f 1 10 5
f 1 5 2
f 2 5 6
f 2 6 3
f 3 6 7
f 4 8 15
f 4 15 20
f 4 20 9
f 5 10 11
f 5 11 6
f 6 12 13
f 6 13 14
f 6 14 7
f 6 11 12
f 8 16 17
f 8 17 18
f 8 18 15
f 9 20 33
f 9 33 48
f 9 48 70
f 9 70 67
f 9 67 45
f 9 45 31
f 9 31 19
f 10 21 11
f 11 22 12
f 11 21 23
f 11 23 24
f 11 24 22
f 12 25 13
f 12 22 26
f 12 26 25
f 13 25 27
f 15 18 17
f 15 17 30
f 15 30 44
f 15 44 66
f 15 66 78
f 15 78 100
f 15 100 123
f 15 123 132
f 15 132 113
f 15 113 112
f 15 112 89
f 15 89 71
f 15 71 49
f 15 49 33
f 15 33 20
f 16 28 17
f 17 28 29
f 17 29 30
f 19 31 32
f 22 24 34
f 22 34 26
f 23 35 24
f 24 35 36
f 24 36 34
f 25 26 37
f 25 37 27
f 26 34 38
f 26 38 37
f 27 37 39
f 29 39 40
f 29 40 30
f 30 40 41
f 30 41 42
f 30 42 43
f 30 43 44
f 31 45 46
f 31 46 47
f 31 47 32
f 33 49 48
f 34 36 50
f 34 50 51
f 34 51 52
f 34 52 38
f 35 53 36
f 36 53 54
f 36 54 55
f 36 55 50
f 37 38 56
f 37 56 57
f 37 57 58
f 37 58 40
f 37 40 39
f 38 52 59
f 38 59 56
f 40 58 41
f 41 58 42
f 42 57 56
f 42 56 43
f 42 58 57
f 43 60 61
f 43 61 62
f 43 62 44
f 43 56 63
f 43 63 64
f 43 64 65
f 43 65 60
f 44 62 66
f 45 67 46
f 46 68 69
f 46 67 68
f 48 49 70
f 49 71 72
f 49 72 70
f 50 55 73
f 50 73 74
f 50 74 75
f 50 75 76
f 50 76 51
f 51 76 59
f 51 59 52
f 56 59 76
f 56 76 63
f 60 77 61
f 60 65 77
f 61 77 62
f 62 77 78
f 62 78 66
f 63 76 79
f 63 79 64
f 64 79 80
f 64 80 77
f 64 77 65
f 67 70 68
f 68 81 82
f 68 82 69
f 68 70 81
f 69 82 83
f 70 72 84
f 70 84 85
f 70 85 86
f 70 86 87
f 70 87 88
f 70 88 81
f 71 89 72
f 72 89 90
f 72 90 91
f 72 91 84
f 74 92 75
f 75 92 93
f 75 93 94
f 75 94 79
f 75 79 76
f 77 95 96
f 77 96 97
f 77 97 98
f 77 98 78
f 77 80 95
f 78 98 99
f 78 99 100
f 79 94 101
f 79 101 80
f 80 101 102
f 80 102 95
f 81 88 82
f 82 103 83
f 82 88 103
f 83 103 104
f 84 91 105
f 84 105 106
f 84 106 107
f 84 107 108
f 84 108 86
f 84 86 85
f 86 108 87
f 87 108 109
f 87 109 88
f 88 109 110
f 88 110 111
f 88 111 103
f 89 112 90
f 90 112 113
f 90 113 114
f 90 114 115
f 90 115 91
f 91 115 105
f 93 116 117
f 93 117 94
f 94 117 118
f 94 118 101
f 95 119 120
f 95 120 121
f 95 121 96
f 95 102 122
f 95 122 119
f 96 121 97
f 97 121 98
f 98 121 99
f 99 121 123
f 99 123 100
f 101 118 122
f 101 122 102
f 103 111 124
f 103 124 125
f 103 125 104
f 105 115 106
f 106 115 126
f 106 126 108
f 106 108 107
f 108 126 127
f 108 127 128
f 108 128 109
f 109 128 110
f 110 128 129
f 110 129 130
f 110 130 131
f 110 131 111
f 111 131 124
f 113 132 114
f 114 132 123
f 114 123 133
f 114 133 115
f 115 133 121
f 115 121 134
f 115 134 135
f 115 135 126
f 116 136 117
f 117 136 137
f 117 137 118
f 118 137 138
f 118 138 122
f 119 122 129
f 119 129 139
f 119 139 120
f 120 139 134
f 120 134 121
f 121 133 123
f 122 138 129
f 124 131 140
f 124 140 141
f 124 141 142
f 124 142 125
f 126 135 127
f 127 135 143
f 127 143 128
f 128 143 129
f 129 138 130
f 129 143 139
f 130 140 131
f 130 138 140
f 134 139 135
f 135 139 143
f 136 144 141
f 136 141 137
f 137 141 140
f 137 140 138
f 141 144 142

