# https://github.com/mikedh/trimesh
v -0.00732680 0.02058066 -0.00637863
v -0.00748640 0.02054841 -0.00637863
v -0.00688991 0.02043842 -0.00637863
v -0.00601612 0.02153419 -0.00767306
v -0.00643831 0.02153419 -0.00768435
v -0.00646149 0.02153419 -0.00768506
v -0.00694519 0.02153419 -0.00782473
v -0.00767766 0.02050954 -0.00637863
v -0.00601612 0.02011010 -0.00637863
v -0.00601612 0.02153419 -0.01174613
v -0.00695500 0.02153419 -0.00784448
v -0.00710256 0.02153419 -0.00818520
v -0.00754793 0.02081387 -0.00721102
v -0.00789432 0.02021761 -0.00637863
v -0.00601612 0.01308563 -0.00637863
v -0.00601612 0.02151434 -0.01176306
v -0.00626176 0.02127534 -0.01157754
v -0.00613917 0.02153419 -0.01154438
v -0.00710345 0.02153419 -0.00830582
v -0.00754971 0.02081801 -0.00744028
v -0.00789432 0.02021761 -0.00657473
v -0.00800577 0.02000177 -0.00657473
v -0.00800533 0.02000177 -0.00637863
v -0.01057007 0.01308563 -0.00637863
v -0.00601612 0.01308563 -0.01358374
v -0.00601612 0.02148209 -0.01178987
v -0.00603262 0.02146803 -0.01177576
v -0.00621807 0.02153419 -0.01141036
v -0.00632685 0.02102558 -0.01167700
v -0.00670044 0.02042023 -0.01158600
v -0.00706422 0.01985291 -0.01146397
v -0.00662599 0.02070885 -0.01145268
v -0.00704059 0.02153419 -0.00873895
v -0.00715294 0.02132165 -0.00873895
v -0.00730942 0.02102558 -0.00873895
v -0.00748373 0.02069479 -0.00873895
v -0.00718370 0.02138119 -0.00830582
v -0.00754748 0.02081636 -0.00769141
v -0.00788897 0.02020355 -0.00700786
v -0.00814442 0.01972721 -0.00657473
v -0.00824606 0.01952542 -0.00637863
v -0.01057007 0.01308563 -0.00657473
v -0.01055759 0.01316419 -0.00637863
v -0.01054198 0.01326260 -0.00657473
v -0.00601612 0.01323614 -0.01358304
v -0.00602861 0.01308563 -0.01358374
v -0.00601612 0.02100987 -0.01211507
v -0.00624304 0.02080560 -0.01198104
v -0.00670044 0.02085274 -0.01116346
v -0.00629832 0.02153419 -0.01125305
v -0.00713956 0.01999929 -0.01117545
v -0.00675216 0.02012085 -0.01174543
v -0.00713778 0.01956429 -0.01159306
v -0.00749800 0.01898705 -0.01146679
v -0.00742087 0.01928725 -0.01132712
v -0.00720554 0.01971646 -0.01132571
v -0.00696169 0.02153419 -0.00917207
v -0.00712797 0.02127451 -0.00903663
v -0.00756977 0.02042602 -0.00907331
v -0.00759652 0.02047812 -0.00873895
v -0.00736826 0.02102558 -0.00830582
v -0.00753099 0.02078493 -0.00797992
v -0.00762995 0.02062119 -0.00785012
v -0.00788184 0.02012499 -0.00786705
v -0.00798304 0.01995711 -0.00771892
v -0.00788184 0.02018784 -0.00744028
v -0.00844044 0.01914087 -0.00657473
v -0.00851712 0.01898787 -0.00637863
v -0.01056695 0.01308563 -0.00668266
v -0.01054154 0.01326260 -0.00637863
v -0.01051880 0.01323614 -0.00744028
v -0.01047333 0.01366866 -0.00657473
v -0.01045951 0.01366866 -0.00700786
v -0.00601612 0.01410200 -0.01357739
v -0.00602861 0.01323614 -0.01358304
v -0.00646149 0.01308563 -0.01357034
v -0.00601612 0.02086928 -0.01220606
v -0.00668127 0.01995049 -0.01198809
v -0.00662510 0.02114054 -0.01099557
v -0.00706422 0.02028791 -0.01101250
v -0.00647352 0.02153419 -0.01086930
v -0.00757378 0.01913839 -0.01117827
v -0.00750156 0.01942701 -0.01102238
v -0.00741775 0.01970819 -0.01088764
v -0.00711594 0.01908877 -0.01199091
v -0.00718949 0.01925747 -0.01174966
v -0.00756977 0.01869843 -0.01159235
v -0.00792998 0.01811953 -0.01146608
v -0.00807086 0.01798391 -0.01132712
v -0.00800622 0.01827253 -0.01117757
v -0.00686272 0.02153419 -0.00960449
v -0.00709677 0.02121579 -0.00932515
v -0.00753767 0.02036482 -0.00936183
v -0.00766027 0.02019611 -0.00919888
v -0.00790234 0.01971811 -0.00920593
v -0.00800444 0.01956760 -0.00908390
v -0.00792330 0.01983802 -0.00873895
v -0.00775969 0.02015972 -0.00873895
v -0.00762371 0.02053187 -0.00830582
v -0.00781318 0.02015972 -0.00830582
v -0.00796699 0.01992568 -0.00800743
v -0.00806596 0.01975946 -0.00786705
v -0.00884969 0.01822870 -0.00772879
v -0.00874938 0.01846191 -0.00744028
v -0.00811366 0.01972721 -0.00744028
v -0.00858131 0.01886134 -0.00657473
v -0.00876588 0.01849416 -0.00637863
v -0.01054154 0.01308563 -0.00744028
v -0.01047288 0.01366866 -0.00637863
v -0.01044569 0.01366866 -0.00744028
v -0.01050320 0.01323614 -0.00787340
v -0.01039710 0.01410200 -0.00657473
v -0.01036990 0.01410200 -0.00744028
v -0.00602861 0.01366866 -0.01358021
v -0.00646149 0.01366866 -0.01356258
v -0.00602861 0.01453452 -0.01357104
v -0.00601612 0.01453452 -0.01357104
v -0.00689437 0.01308563 -0.01353577
v -0.00601612 0.02061374 -0.01234785
v -0.00619043 0.02027468 -0.01235702
v -0.00654842 0.01972721 -0.01227096
v -0.00643563 0.02011258 -0.01217291
v -0.00662777 0.01941543 -0.01236267
v -0.00712664 0.02040699 -0.01072399
v -0.00719262 0.02014980 -0.01088129
v -0.00668662 0.02125880 -0.01070706
v -0.00660103 0.02153419 -0.01053776
v -0.00793444 0.01856115 -0.01102308
v -0.00799730 0.01868685 -0.01073457
v -0.00756398 0.01955188 -0.01073386
v -0.00754793 0.01822125 -0.01198950
v -0.00762059 0.01839079 -0.01174895
v -0.00800176 0.01783091 -0.01159094
v -0.00836108 0.01724954 -0.01146326
v -0.00828396 0.01755470 -0.01132500
v -0.00843687 0.01740501 -0.01117475
v -0.00836643 0.01769363 -0.01102379
v -0.00677400 0.02153419 -0.00996566
v -0.00722962 0.02062697 -0.01005949
v -0.00747303 0.02015642 -0.01007924
v -0.00706378 0.02115294 -0.00960449
v -0.00735890 0.02059307 -0.00960449
v -0.00750825 0.02030941 -0.00960449
v -0.00754302 0.01994305 -0.01025206
v -0.00762059 0.02009274 -0.00960449
v -0.00797278 0.01950392 -0.00937241
v -0.00887109 0.01784001 -0.00908813
v -0.00879040 0.01811126 -0.00873895
v -0.00794960 0.01989012 -0.00830582
v -0.00881625 0.01816254 -0.00830582
v -0.00883320 0.01819562 -0.00801731
v -0.00893172 0.01802939 -0.00787340
v -0.00917825 0.01752162 -0.00783813
v -0.00927544 0.01734960 -0.00767024
v -0.00898031 0.01799631 -0.00744028
v -0.00885771 0.01824524 -0.00744028
v -0.00886619 0.01826260 -0.00700786
v -0.00875785 0.01847845 -0.00700786
v -0.00856526 0.01886134 -0.00700786
v -0.00876588 0.01849416 -0.00657473
v -0.00887376 0.01827831 -0.00637863
v -0.01052504 0.01308563 -0.00787340
v -0.01043811 0.01386548 -0.00637863
v -0.01043009 0.01366866 -0.00787340
v -0.01047333 0.01323614 -0.00830582
v -0.01039620 0.01410200 -0.00637863
v -0.01035965 0.01429800 -0.00637863
v -0.01031507 0.01453452 -0.00637863
v -0.01031507 0.01453452 -0.00657473
v -0.01030080 0.01453452 -0.00700786
v -0.01028654 0.01453452 -0.00744028
v -0.01035385 0.01410200 -0.00787340
v -0.00646149 0.01410200 -0.01355623
v -0.00602861 0.01496704 -0.01356117
v -0.00601612 0.01496704 -0.01356187
v -0.00732680 0.01308563 -0.01346735
v -0.00689437 0.01323614 -0.01353295
v -0.00601612 0.02021265 -0.01255242
v -0.00626711 0.01998605 -0.01243815
v -0.00670222 0.01912681 -0.01244026
v -0.00705932 0.01854626 -0.01236126
v -0.00750379 0.01986531 -0.01046933
v -0.00735043 0.02015972 -0.01046933
v -0.00662733 0.02153419 -0.01046933
v -0.00828440 0.01797812 -0.01088835
v -0.00842974 0.01782181 -0.01073527
v -0.00792463 0.01897547 -0.01054340
v -0.00835752 0.01811044 -0.01054411
v -0.00761257 0.01964947 -0.01046933
v -0.00797902 0.01735291 -0.01198739
v -0.00805125 0.01752327 -0.01174825
v -0.00843018 0.01696092 -0.01158600
v -0.00885638 0.01608099 -0.01157472
v -0.00878728 0.01636962 -0.01145056
v -0.00886396 0.01652922 -0.01116205
v -0.00849750 0.01711556 -0.01132500
v -0.00879486 0.01681785 -0.01100897
v -0.00849304 0.01755470 -0.01088835
v -0.00674413 0.02153419 -0.01008629
v -0.00710212 0.02079320 -0.01021891
v -0.00797679 0.01907967 -0.01025489
v -0.00780605 0.01972721 -0.00960449
v -0.00867404 0.01799631 -0.00960449
v -0.00883855 0.01777385 -0.00937664
v -0.00905432 0.01756297 -0.00873895
v -0.00889873 0.01789542 -0.00873895
v -0.00909533 0.01713128 -0.00960449
v -0.00926563 0.01689724 -0.00934137
v -0.00937084 0.01673101 -0.00918689
v -0.00929104 0.01695182 -0.00905286
v -0.00892369 0.01794586 -0.00830582
v -0.00910514 0.01756297 -0.00830582
v -0.00951172 0.01669876 -0.00830582
v -0.00955897 0.01669876 -0.00787340
v -0.00918004 0.01757702 -0.00744028
v -0.00968380 0.01642585 -0.00787340
v -0.00958483 0.01669876 -0.00744028
v -0.00938645 0.01713128 -0.00744028
v -0.00899458 0.01799631 -0.00700786
v -0.00887376 0.01827831 -0.00657473
v -0.00900840 0.01799631 -0.00657473
v -0.00894732 0.01812367 -0.00637863
v -0.01049517 0.01308563 -0.00829947
v -0.01039933 0.01366866 -0.00830582
v -0.01042964 0.01323614 -0.00873895
v -0.01045193 0.01308563 -0.00873895
v -0.01048002 0.01308563 -0.00845608
v -0.01027004 0.01473134 -0.00637863
v -0.01021476 0.01496704 -0.00657473
v -0.01027004 0.01453452 -0.00787340
v -0.01019069 0.01494553 -0.00744028
v -0.01018177 0.01491328 -0.00787340
v -0.01032220 0.01410200 -0.00830582
v -0.00646149 0.01453452 -0.01354142
v -0.00689437 0.01366866 -0.01352096
v -0.00602861 0.01540038 -0.01354494
v -0.00601612 0.01540038 -0.01354565
v -0.00772357 0.01308563 -0.01335025
v -0.00732680 0.01323614 -0.01346241
v -0.00601612 0.02014401 -0.01258276
v -0.00603931 0.02014236 -0.01256371
v -0.00633220 0.01972721 -0.01249599
v -0.00647442 0.01928063 -0.01256794
v -0.00624438 0.01907636 -0.01284870
v -0.00645747 0.01890435 -0.01274077
v -0.00713288 0.01825764 -0.01243815
v -0.00756353 0.01738764 -0.01243603
v -0.00784082 0.01713128 -0.01226602
v -0.00871193 0.01710647 -0.01087988
v -0.00885549 0.01694520 -0.01072046
v -0.00879976 0.01725946 -0.01046933
v -0.00865398 0.01756297 -0.01046933
v -0.00846585 0.01797812 -0.01042771
v -0.00840968 0.01821464 -0.01025559
v -0.00792018 0.01680296 -0.01235632
v -0.00834771 0.01592469 -0.01234926
v -0.00846986 0.01618023 -0.01206075
v -0.00840210 0.01646885 -0.01197539
v -0.00876543 0.01583290 -0.01187381
v -0.00882339 0.01557157 -0.01195776
v -0.00890854 0.01583290 -0.01165725
v -0.00920901 0.01540038 -0.01142164
v -0.00912253 0.01579403 -0.01129467
v -0.00891835 0.01624143 -0.01131795
v -0.00922060 0.01591229 -0.01098711
v -0.00913144 0.01622903 -0.01086648
v -0.00891255 0.01668387 -0.01087988
v -0.00857151 0.01799631 -0.01003621
v -0.00881224 0.01771927 -0.00960449
v -0.00891656 0.01750342 -0.00960449
v -0.00945332 0.01669876 -0.00873895
v -0.00923665 0.01683521 -0.00960449
v -0.00887466 0.01741659 -0.00995720
v -0.00933919 0.01661854 -0.00960449
v -0.00949745 0.01626541 -0.00960449
v -0.00960712 0.01622241 -0.00912904
v -0.00966106 0.01637210 -0.00830582
v -0.00918628 0.01759191 -0.00700786
v -0.00940160 0.01713128 -0.00700786
v -0.00975023 0.01615625 -0.00830582
v -0.00976984 0.01620918 -0.00787340
v -0.00969584 0.01645397 -0.00744028
v -0.00970787 0.01648374 -0.00681105
v -0.00900751 0.01799631 -0.00637863
v -0.00941453 0.01713128 -0.00657473
v -0.01035385 0.01366866 -0.00873895
v -0.01037124 0.01323614 -0.00917137
v -0.01043187 0.01308563 -0.00888850
v -0.01021521 0.01496704 -0.00637863
v -0.01014878 0.01521927 -0.00657473
v -0.01014343 0.01519777 -0.00689640
v -0.01013853 0.01517875 -0.00718492
v -0.01023839 0.01453452 -0.00830582
v -0.01016661 0.01485456 -0.00830582
v -0.01013407 0.01516138 -0.00744028
v -0.01012560 0.01512913 -0.00787340
v -0.01011044 0.01507124 -0.00830582
v -0.01013674 0.01473548 -0.00892518
v -0.01027494 0.01410200 -0.00873895
v -0.00689437 0.01410200 -0.01350262
v -0.00646149 0.01496704 -0.01351461
v -0.00602861 0.01583290 -0.01351955
v -0.00601612 0.01583290 -0.01352096
v -0.00793979 0.01308563 -0.01326771
v -0.00771332 0.01323614 -0.01334672
v -0.00732680 0.01366866 -0.01343984
v -0.00601612 0.01977352 -0.01274289
v -0.00602549 0.01976607 -0.01273865
v -0.00601612 0.01929469 -0.01291571
v -0.00601612 0.01911606 -0.01297073
v -0.00607140 0.01890435 -0.01299966
v -0.00631080 0.01878774 -0.01289314
v -0.00759919 0.01616783 -0.01288679
v -0.00752965 0.01645645 -0.01284023
v -0.00746902 0.01669876 -0.01279367
v -0.00774988 0.01629353 -0.01272525
v -0.00762461 0.01713128 -0.01249035
v -0.00799195 0.01651434 -0.01243180
v -0.00927901 0.01606032 -0.01069859
v -0.00906368 0.01669876 -0.01046933
v -0.00883944 0.01734299 -0.01024501
v -0.00877569 0.01756131 -0.01007500
v -0.00841770 0.01563607 -0.01242615
v -0.00852648 0.01580147 -0.01220324
v -0.00870257 0.01541692 -0.01218843
v -0.00888134 0.01528295 -0.01203606
v -0.00898611 0.01541692 -0.01179551
v -0.00931645 0.01540038 -0.01120508
v -0.00927678 0.01562367 -0.01112396
v -0.00925716 0.01512499 -0.01151687
v -0.00931422 0.01579403 -0.01086648
v -0.00963075 0.01630180 -0.00873895
v -0.00930040 0.01653749 -0.00992616
v -0.00896248 0.01717180 -0.01007500
v -0.00964858 0.01589906 -0.00960449
v -0.00968425 0.01598837 -0.00924473
v -0.00937619 0.01629601 -0.01005666
v -0.00970698 0.01604957 -0.00895622
v -0.00972169 0.01608513 -0.00873895
v -0.00971189 0.01649284 -0.00657473
v -0.00982156 0.01583290 -0.00873895
v -0.00987505 0.01583290 -0.00830582
v -0.00978010 0.01623730 -0.00744028
v -0.00991250 0.01583290 -0.00787340
v -0.00980640 0.01626541 -0.00657473
v -0.00966731 0.01659042 -0.00637863
v -0.01029813 0.01323614 -0.00960449
v -0.01032086 0.01308563 -0.00960449
v -0.01036856 0.01308563 -0.00932162
v -0.01039353 0.01308563 -0.00917137
v -0.01029367 0.01366866 -0.00917137
v -0.01014923 0.01521927 -0.00637863
v -0.01009172 0.01543594 -0.00637863
v -0.01009127 0.01543511 -0.00657473
v -0.01006987 0.01540038 -0.00744028
v -0.01015101 0.01479337 -0.00863666
v -0.01005204 0.01540038 -0.00787340
v -0.01009617 0.01494967 -0.00876434
v -0.01001860 0.01540038 -0.00830582
v -0.00997135 0.01540038 -0.00873895
v -0.00990671 0.01540038 -0.00917137
v -0.01003198 0.01496704 -0.00917137
v -0.00995396 0.01496704 -0.00960449
v -0.01005694 0.01453452 -0.00960449
v -0.01012025 0.01456843 -0.00921158
v -0.01016349 0.01444686 -0.00909377
v -0.00689437 0.01453452 -0.01347228
v -0.00602861 0.01626541 -0.01348216
v -0.00601612 0.01626541 -0.01348428
v -0.00819257 0.01308563 -0.01313439
v -0.00792954 0.01323614 -0.01326278
v -0.00767275 0.01366866 -0.01333332
v -0.00732680 0.01410200 -0.01340598
v -0.00601612 0.01889856 -0.01302999
v -0.00732680 0.01583290 -0.01312522
v -0.00767855 0.01583290 -0.01293476
v -0.00802271 0.01528874 -0.01288256
v -0.00795673 0.01557653 -0.01283600
v -0.00789521 0.01583290 -0.01278803
v -0.00805035 0.01626541 -0.01248470
v -0.00819925 0.01580147 -0.01254607
v -0.00931913 0.01614964 -0.01046933
v -0.00921971 0.01636631 -0.01046933
v -0.00944396 0.01540038 -0.01090175
v -0.00944306 0.01583290 -0.01046933
v -0.00926429 0.01646058 -0.01021397
v -0.00817696 0.01541940 -0.01271185
v -0.00846496 0.01540038 -0.01247130
v -0.00876097 0.01496704 -0.01232175
v -0.00893529 0.01496704 -0.01210590
v -0.00916577 0.01497531 -0.01175107
v -0.00937708 0.01497531 -0.01135745
v -0.00960222 0.01493975 -0.01087071
v -0.00929818 0.01483637 -0.01159588
v -0.00970877 0.01562119 -0.00982811
v -0.00973150 0.01568238 -0.00960449
v -0.00976093 0.01583951 -0.00912904
v -0.00959731 0.01579237 -0.00999741
v -0.00975468 0.01639194 -0.00637863
v -0.00971233 0.01649366 -0.00637863
v -0.00993256 0.01583290 -0.00744028
v -0.00995129 0.01583290 -0.00700786
v -0.00996956 0.01583290 -0.00657473
v -0.00996956 0.01583290 -0.00637863
v -0.00979793 0.01628361 -0.00637863
v -0.01021966 0.01366866 -0.00960449
v -0.01014076 0.01389029 -0.00982388
v -0.01016126 0.01366866 -0.00990359
v -0.01019827 0.01324689 -0.01005737
v -0.01028876 0.01308563 -0.00975404
v -0.01013897 0.01431288 -0.00938229
v -0.00982512 0.01540038 -0.00960449
v -0.00974354 0.01537557 -0.00999741
v -0.00985588 0.01496704 -0.01003621
v -0.00996154 0.01453452 -0.01003621
v -0.01011980 0.01420951 -0.00960449
v -0.00689437 0.01496704 -0.01342714
v -0.00602861 0.01669876 -0.01343560
v -0.00601612 0.01669876 -0.01343772
v -0.00852113 0.01308563 -0.01293264
v -0.00819257 0.01323614 -0.01312240
v -0.00788897 0.01366866 -0.01324514
v -0.00761970 0.01410200 -0.01331286
v -0.00757423 0.01440468 -0.01329523
v -0.00735534 0.01454279 -0.01334813
v -0.00601612 0.01856115 -0.01311534
v -0.00710301 0.01560299 -0.01328041
v -0.00731610 0.01543511 -0.01321833
v -0.00775969 0.01496704 -0.01310476
v -0.00779134 0.01541940 -0.01297990
v -0.00601612 0.01839906 -0.01315626
v -0.00601612 0.01829320 -0.01318236
v -0.00609191 0.01799631 -0.01321551
v -0.00617751 0.01764153 -0.01325643
v -0.00808513 0.01496704 -0.01292206
v -0.00830134 0.01496704 -0.01276334
v -0.00967355 0.01506545 -0.01057514
v -0.00961292 0.01537557 -0.01044605
v -0.00966864 0.01550293 -0.01011592
v -0.00854476 0.01496704 -0.01254678
v -0.00881224 0.01464451 -0.01238312
v -0.00897363 0.01451384 -0.01222299
v -0.00921525 0.01453452 -0.01188581
v -0.00950681 0.01453452 -0.01133488
v -0.00965794 0.01453452 -0.01099698
v -0.00971456 0.01477683 -0.01070494
v -0.00933919 0.01453452 -0.01166924
v -0.01006452 0.01406148 -0.00999529
v -0.01010509 0.01366866 -0.01011945
v -0.01013006 0.01339823 -0.01021538
v -0.01015591 0.01310961 -0.01030920
v -0.01022457 0.01308563 -0.01004961
v -0.00971724 0.01521431 -0.01028663
v -0.00974755 0.01493975 -0.01044605
v -0.00984117 0.01453452 -0.01046933
v -0.00992810 0.01410200 -0.01046933
v -0.00724076 0.01496704 -0.01332767
v -0.00716498 0.01531437 -0.01330299
v -0.00693315 0.01543511 -0.01335307
v -0.00602861 0.01713128 -0.01338270
v -0.00601612 0.01713128 -0.01338552
v -0.00873735 0.01308563 -0.01276123
v -0.00850909 0.01323614 -0.01292488
v -0.00819257 0.01366866 -0.01308007
v -0.00783592 0.01410200 -0.01321975
v -0.00773517 0.01454279 -0.01319717
v -0.00751806 0.01469330 -0.01327336
v -0.00745698 0.01496704 -0.01324867
v -0.00624750 0.01735291 -0.01328323
v -0.00601612 0.01756875 -0.01332485
v -0.00603128 0.01752327 -0.01332697
v -0.00815690 0.01453452 -0.01296650
v -0.00601612 0.01799631 -0.01324655
v -0.00837267 0.01453452 -0.01282260
v -0.00865086 0.01451384 -0.01257500
v -0.00885147 0.01435589 -0.01242756
v -0.00925493 0.01420951 -0.01195282
v -0.00961693 0.01410035 -0.01130948
v -0.00969227 0.01424342 -0.01108093
v -0.00974265 0.01453452 -0.01078042
v -0.00936995 0.01407967 -0.01179199
v -0.00964724 0.01366866 -0.01142446
v -0.01009751 0.01308563 -0.01051166
v -0.01015279 0.01308563 -0.01033178
v -0.01015770 0.01308563 -0.01031555
v -0.01000746 0.01366866 -0.01046933
v -0.01008726 0.01324689 -0.01045946
v -0.00977876 0.01410035 -0.01092291
v -0.00986747 0.01366866 -0.01090175
v -0.00994861 0.01323614 -0.01090175
v -0.00897095 0.01308563 -0.01254466
v -0.00872576 0.01323614 -0.01274994
v -0.00847566 0.01366866 -0.01290160
v -0.00844222 0.01402178 -0.01287550
v -0.00823447 0.01414004 -0.01298837
v -0.00840611 0.01431040 -0.01284799
v -0.00860182 0.01414004 -0.01270761
v -0.00888001 0.01410200 -0.01245719
v -0.00912030 0.01407967 -0.01216233
v -0.00928034 0.01392089 -0.01199303
v -0.00957235 0.01319314 -0.01172427
v -0.00965616 0.01308563 -0.01161704
v -0.00972080 0.01395480 -0.01114794
v -0.00968068 0.01330892 -0.01149712
v -0.00974844 0.01366866 -0.01120790
v -0.00977341 0.01319314 -0.01134546
v -0.00997269 0.01308563 -0.01090175
v -0.00979213 0.01308563 -0.01134264
v -0.00991116 0.01308563 -0.01105200
v -0.00918761 0.01308563 -0.01230905
v -0.00895891 0.01323614 -0.01253338
v -0.00869232 0.01366866 -0.01271537
v -0.00892147 0.01366866 -0.01249881
v -0.00917513 0.01323614 -0.01229283
v -0.00913813 0.01366866 -0.01223992
v -0.00934186 0.01323614 -0.01207627
v -0.00957814 0.01308563 -0.01174402
v -0.00973239 0.01308563 -0.01147314
v -0.00935435 0.01308563 -0.01209249
f 1 2 8
f 1 8 14
f 1 14 23
f 1 23 41
f 1 41 68
f 1 68 107
f 1 107 161
f 1 161 222
f 1 222 284
f 1 284 346
f 1 346 400
f 1 400 399
f 1 399 405
f 1 405 404
f 1 404 353
f 1 353 352
f 1 352 289
f 1 289 228
f 1 228 168
f 1 168 167
f 1 167 166
f 1 166 163
f 1 163 109
f 1 109 70
f 1 70 43
f 1 43 24
f 1 24 15
f 1 15 9
f 1 9 3
f 1 3 4
f 1 4 5
f 1 5 6
f 1 6 7
f 1 7 2
f 2 7 8
f 3 9 4
f 4 10 18
f 4 18 28
f 4 28 50
f 4 50 81
f 4 81 127
f 4 127 184
f 4 184 199
f 4 199 138
f 4 138 91
f 4 91 57
f 4 57 33
f 4 33 19
f 4 19 12
f 4 12 11
f 4 11 7
f 4 7 6
f 4 6 5
f 4 9 15
f 4 15 25
f 4 25 45
f 4 45 74
f 4 74 117
f 4 117 175
f 4 175 237
f 4 237 303
f 4 303 369
f 4 369 419
f 4 419 461
f 4 461 470
f 4 470 473
f 4 473 432
f 4 432 431
f 4 431 426
f 4 426 374
f 4 374 310
f 4 310 309
f 4 309 307
f 4 307 240
f 4 240 178
f 4 178 119
f 4 119 77
f 4 77 47
f 4 47 26
f 4 26 16
f 4 16 10
f 7 11 8
f 8 11 12
f 8 12 13
f 8 13 14
f 10 16 17
f 10 17 18
f 12 19 20
f 12 20 13
f 13 20 14
f 14 21 22
f 14 22 23
f 14 20 21
f 15 24 42
f 15 42 69
f 15 69 108
f 15 108 162
f 15 162 223
f 15 223 227
f 15 227 226
f 15 226 288
f 15 288 350
f 15 350 349
f 15 349 348
f 15 348 410
f 15 410 452
f 15 452 485
f 15 485 484
f 15 484 483
f 15 483 507
f 15 507 509
f 15 509 508
f 15 508 518
f 15 518 502
f 15 502 517
f 15 517 519
f 15 519 510
f 15 510 491
f 15 491 462
f 15 462 420
f 15 420 370
f 15 370 304
f 15 304 238
f 15 238 176
f 15 176 118
f 15 118 76
f 15 76 46
f 15 46 25
f 16 26 27
f 16 27 17
f 17 28 18
f 17 27 29
f 17 29 30
f 17 30 31
f 17 31 32
f 17 32 28
f 19 33 34
f 19 34 35
f 19 35 36
f 19 36 37
f 19 37 38
f 19 38 20
f 20 38 21
f 21 39 22
f 21 38 39
f 22 39 40
f 22 40 41
f 22 41 23
f 24 43 44
f 24 44 42
f 25 46 75
f 25 75 45
f 26 29 27
f 26 47 48
f 26 48 29
f 28 49 50
f 28 32 51
f 28 51 49
f 29 48 52
f 29 52 30
f 30 52 53
f 30 53 31
f 31 51 32
f 31 53 54
f 31 54 55
f 31 55 56
f 31 56 51
f 33 57 58
f 33 58 34
f 34 58 35
f 35 58 59
f 35 59 36
f 36 59 60
f 36 60 37
f 37 61 62
f 37 62 38
f 37 60 61
f 38 62 63
f 38 63 64
f 38 64 65
f 38 65 66
f 38 66 39
f 39 66 67
f 39 67 40
f 40 67 41
f 41 67 68
f 42 44 69
f 43 70 44
f 44 71 69
f 44 70 109
f 44 109 72
f 44 72 73
f 44 73 71
f 45 75 74
f 46 76 75
f 47 77 48
f 48 78 52
f 48 77 78
f 49 79 50
f 49 51 80
f 49 80 79
f 50 79 81
f 51 56 82
f 51 82 83
f 51 83 84
f 51 84 80
f 52 78 53
f 53 85 86
f 53 86 87
f 53 87 54
f 53 78 85
f 54 87 88
f 54 88 89
f 54 89 90
f 54 90 82
f 54 82 55
f 55 82 56
f 57 91 92
f 57 92 59
f 57 59 58
f 59 93 94
f 59 94 95
f 59 95 96
f 59 96 97
f 59 97 98
f 59 98 60
f 59 92 93
f 60 98 99
f 60 99 61
f 61 99 62
f 62 99 63
f 63 99 64
f 64 100 101
f 64 101 65
f 64 99 100
f 65 101 102
f 65 102 103
f 65 103 104
f 65 104 105
f 65 105 66
f 66 105 106
f 66 106 67
f 67 106 68
f 68 106 107
f 69 71 108
f 71 73 110
f 71 110 164
f 71 164 111
f 71 111 108
f 72 109 112
f 72 112 113
f 72 113 73
f 73 113 110
f 74 114 76
f 74 76 115
f 74 115 116
f 74 116 117
f 74 75 114
f 75 76 114
f 76 118 115
f 77 119 120
f 77 120 121
f 77 121 122
f 77 122 78
f 78 122 121
f 78 121 123
f 78 123 85
f 79 80 124
f 79 124 81
f 80 84 125
f 80 125 124
f 81 126 127
f 81 124 126
f 82 128 83
f 82 90 128
f 83 128 129
f 83 129 130
f 83 130 84
f 84 130 125
f 85 123 131
f 85 131 86
f 86 131 132
f 86 132 133
f 86 133 87
f 87 133 88
f 88 133 134
f 88 134 135
f 88 135 89
f 89 135 136
f 89 136 90
f 90 136 137
f 90 137 128
f 91 138 139
f 91 139 140
f 91 140 141
f 91 141 93
f 91 93 92
f 93 142 143
f 93 143 144
f 93 144 145
f 93 145 95
f 93 95 94
f 93 141 142
f 95 146 147
f 95 147 96
f 95 145 146
f 96 147 148
f 96 148 97
f 97 149 100
f 97 100 98
f 97 148 149
f 98 100 99
f 100 149 101
f 101 149 150
f 101 150 151
f 101 151 103
f 101 103 102
f 103 151 152
f 103 152 153
f 103 153 154
f 103 154 155
f 103 155 156
f 103 156 104
f 104 156 157
f 104 157 158
f 104 158 105
f 105 158 159
f 105 159 106
f 106 159 158
f 106 158 160
f 106 160 107
f 107 160 220
f 107 220 161
f 108 111 162
f 109 163 112
f 110 113 164
f 111 165 162
f 111 164 165
f 112 166 167
f 112 167 168
f 112 168 169
f 112 169 113
f 112 163 166
f 113 169 170
f 113 170 171
f 113 171 172
f 113 172 164
f 115 173 116
f 115 118 173
f 116 173 174
f 116 174 175
f 116 175 117
f 118 176 177
f 118 177 173
f 119 178 179
f 119 179 120
f 120 179 123
f 120 123 121
f 123 180 181
f 123 181 131
f 123 179 180
f 124 125 130
f 124 130 182
f 124 182 183
f 124 183 126
f 126 184 127
f 126 183 144
f 126 144 184
f 128 137 185
f 128 185 186
f 128 186 129
f 129 187 130
f 129 186 188
f 129 188 187
f 130 189 182
f 130 187 189
f 131 190 191
f 131 191 133
f 131 133 132
f 131 181 190
f 133 191 192
f 133 192 134
f 134 136 135
f 134 192 193
f 134 193 194
f 134 194 195
f 134 195 196
f 134 196 136
f 136 196 195
f 136 195 197
f 136 197 137
f 137 197 198
f 137 198 186
f 137 186 185
f 138 199 144
f 138 144 139
f 139 144 140
f 140 144 143
f 140 143 142
f 140 142 141
f 144 199 200
f 144 200 184
f 144 183 182
f 144 182 189
f 144 189 201
f 144 201 202
f 144 202 145
f 145 202 146
f 146 202 203
f 146 203 204
f 146 204 147
f 147 205 206
f 147 206 148
f 147 204 207
f 147 207 208
f 147 208 209
f 147 209 210
f 147 210 205
f 148 206 149
f 149 206 150
f 150 206 151
f 151 206 211
f 151 211 152
f 152 211 153
f 153 211 206
f 153 206 212
f 153 212 213
f 153 213 214
f 153 214 154
f 154 215 155
f 154 214 216
f 154 216 217
f 154 217 218
f 154 218 215
f 155 219 220
f 155 220 157
f 155 157 156
f 155 215 219
f 157 220 160
f 157 160 158
f 161 220 221
f 161 221 222
f 162 165 223
f 164 224 165
f 164 172 224
f 165 225 226
f 165 226 227
f 165 227 223
f 165 224 225
f 168 228 169
f 169 228 229
f 169 229 170
f 170 229 171
f 171 230 172
f 171 229 231
f 171 231 232
f 171 232 230
f 172 230 293
f 172 293 233
f 172 233 224
f 173 234 174
f 173 177 235
f 173 235 234
f 174 236 237
f 174 237 175
f 174 234 236
f 176 238 239
f 176 239 235
f 176 235 177
f 178 240 241
f 178 241 179
f 179 241 240
f 179 240 242
f 179 242 180
f 180 242 243
f 180 243 244
f 180 244 245
f 180 245 246
f 180 246 181
f 181 246 247
f 181 247 248
f 181 248 190
f 184 200 199
f 186 198 249
f 186 249 250
f 186 250 251
f 186 251 252
f 186 252 253
f 186 253 188
f 187 201 189
f 187 188 254
f 187 254 201
f 188 253 254
f 190 248 255
f 190 255 256
f 190 256 257
f 190 257 258
f 190 258 193
f 190 193 192
f 190 192 191
f 193 258 259
f 193 259 260
f 193 260 261
f 193 261 262
f 193 262 263
f 193 263 264
f 193 264 194
f 194 264 195
f 195 264 265
f 195 265 266
f 195 266 197
f 197 266 267
f 197 267 250
f 197 250 249
f 197 249 198
f 201 254 268
f 201 268 203
f 201 203 202
f 203 268 269
f 203 269 204
f 204 269 270
f 204 270 207
f 205 210 271
f 205 271 213
f 205 213 206
f 206 213 212
f 207 272 208
f 207 270 273
f 207 273 272
f 208 272 274
f 208 274 209
f 209 274 275
f 209 275 276
f 209 276 271
f 209 271 210
f 213 271 277
f 213 277 216
f 213 216 214
f 215 278 221
f 215 221 219
f 215 218 279
f 215 279 278
f 216 277 280
f 216 280 281
f 216 281 282
f 216 282 217
f 217 282 283
f 217 283 218
f 218 283 279
f 219 221 220
f 221 284 222
f 221 278 285
f 221 285 284
f 224 286 225
f 224 233 286
f 225 287 288
f 225 288 226
f 225 286 287
f 228 289 229
f 229 289 352
f 229 352 290
f 229 290 291
f 229 291 292
f 229 292 231
f 230 232 294
f 230 294 293
f 231 292 295
f 231 295 296
f 231 296 232
f 232 296 297
f 232 297 294
f 233 293 298
f 233 298 299
f 233 299 286
f 234 235 300
f 234 300 301
f 234 301 302
f 234 302 236
f 235 239 300
f 236 302 303
f 236 303 237
f 238 304 305
f 238 305 239
f 239 305 306
f 239 306 300
f 240 307 308
f 240 308 242
f 242 308 243
f 243 308 244
f 244 308 307
f 244 307 309
f 244 309 310
f 244 310 311
f 244 311 312
f 244 312 313
f 244 313 314
f 244 314 315
f 244 315 316
f 244 316 317
f 244 317 245
f 245 317 247
f 245 247 246
f 247 317 318
f 247 318 255
f 247 255 248
f 250 267 266
f 250 266 319
f 250 319 320
f 250 320 251
f 251 321 252
f 251 320 321
f 252 321 253
f 253 321 254
f 254 321 322
f 254 322 268
f 255 318 256
f 256 318 323
f 256 323 257
f 257 323 324
f 257 324 260
f 257 260 258
f 258 260 259
f 260 325 326
f 260 326 327
f 260 327 261
f 260 324 323
f 260 323 325
f 261 327 262
f 262 328 329
f 262 329 263
f 262 327 330
f 262 330 328
f 263 329 265
f 263 265 264
f 265 319 266
f 265 329 331
f 265 331 319
f 268 322 269
f 269 322 273
f 269 273 270
f 271 276 332
f 271 332 277
f 272 273 333
f 272 333 274
f 273 321 334
f 273 334 333
f 273 322 321
f 274 333 275
f 275 335 336
f 275 336 276
f 275 333 337
f 275 337 335
f 276 336 338
f 276 338 332
f 277 332 338
f 277 338 339
f 277 339 280
f 278 279 285
f 279 283 340
f 279 340 285
f 280 339 341
f 280 341 342
f 280 342 281
f 281 343 282
f 281 342 344
f 281 344 343
f 282 343 345
f 282 345 283
f 283 345 340
f 284 285 346
f 285 340 346
f 286 299 298
f 286 298 287
f 287 347 348
f 287 348 349
f 287 349 350
f 287 350 288
f 287 298 351
f 287 351 347
f 290 352 353
f 290 353 354
f 290 354 291
f 291 354 292
f 292 354 355
f 292 355 295
f 293 294 356
f 293 356 298
f 294 297 356
f 295 355 296
f 296 355 357
f 296 357 297
f 297 358 356
f 297 357 359
f 297 359 358
f 298 356 358
f 298 358 360
f 298 360 361
f 298 361 362
f 298 362 363
f 298 363 364
f 298 364 365
f 298 365 366
f 298 366 351
f 300 367 301
f 300 306 367
f 301 367 302
f 302 367 368
f 302 368 369
f 302 369 303
f 304 370 371
f 304 371 305
f 305 371 372
f 305 372 306
f 306 372 373
f 306 373 367
f 310 374 311
f 311 374 375
f 311 375 376
f 311 376 313
f 311 313 312
f 313 376 377
f 313 377 378
f 313 378 314
f 314 378 379
f 314 379 316
f 314 316 315
f 316 380 317
f 316 379 381
f 316 381 380
f 317 380 318
f 318 380 323
f 319 382 383
f 319 383 320
f 319 331 384
f 319 384 385
f 319 385 382
f 320 383 321
f 321 383 386
f 321 386 333
f 321 333 334
f 323 380 381
f 323 381 387
f 323 387 388
f 323 388 389
f 323 389 325
f 325 389 326
f 326 389 390
f 326 390 391
f 326 391 327
f 327 391 330
f 328 384 329
f 328 330 392
f 328 392 393
f 328 393 384
f 329 384 331
f 330 391 394
f 330 394 392
f 333 386 337
f 335 337 395
f 335 395 396
f 335 396 336
f 336 396 397
f 336 397 338
f 337 386 382
f 337 382 398
f 337 398 395
f 338 397 341
f 338 341 339
f 340 345 399
f 340 399 400
f 340 400 346
f 341 361 360
f 341 360 342
f 341 397 361
f 342 360 359
f 342 359 344
f 343 344 401
f 343 401 402
f 343 402 345
f 344 359 357
f 344 357 401
f 345 402 403
f 345 403 404
f 345 404 405
f 345 405 399
f 347 351 406
f 347 406 407
f 347 407 408
f 347 408 409
f 347 409 410
f 347 410 348
f 351 366 411
f 351 411 406
f 353 403 354
f 353 404 403
f 354 403 355
f 355 403 357
f 357 403 402
f 357 402 401
f 358 359 360
f 361 397 396
f 361 396 412
f 361 412 363
f 361 363 362
f 363 412 413
f 363 413 414
f 363 414 415
f 363 415 364
f 364 415 407
f 364 407 416
f 364 416 365
f 365 416 411
f 365 411 366
f 367 373 417
f 367 417 368
f 368 417 418
f 368 418 419
f 368 419 369
f 370 420 421
f 370 421 371
f 371 421 422
f 371 422 372
f 372 422 423
f 372 423 373
f 373 423 424
f 373 424 425
f 373 425 417
f 374 426 375
f 375 427 428
f 375 428 429
f 375 429 430
f 375 430 376
f 375 426 431
f 375 431 432
f 375 432 433
f 375 433 434
f 375 434 427
f 376 430 377
f 377 429 435
f 377 435 436
f 377 436 387
f 377 387 378
f 377 430 429
f 378 387 381
f 378 381 379
f 382 386 383
f 382 385 398
f 384 393 437
f 384 437 438
f 384 438 385
f 385 438 439
f 385 439 398
f 387 436 388
f 388 436 440
f 388 440 389
f 389 440 441
f 389 441 390
f 390 441 442
f 390 442 443
f 390 443 391
f 391 443 394
f 392 394 444
f 392 444 445
f 392 445 393
f 393 445 446
f 393 446 437
f 394 443 447
f 394 447 444
f 395 398 439
f 395 439 413
f 395 413 412
f 395 412 396
f 406 411 416
f 406 416 407
f 407 448 408
f 407 415 448
f 408 448 449
f 408 449 450
f 408 450 409
f 409 450 451
f 409 451 452
f 409 452 410
f 413 453 414
f 413 439 453
f 414 453 454
f 414 454 455
f 414 455 415
f 415 455 456
f 415 456 448
f 417 457 458
f 417 458 459
f 417 459 460
f 417 460 418
f 417 425 457
f 418 460 461
f 418 461 419
f 420 462 463
f 420 463 464
f 420 464 421
f 421 464 422
f 422 464 465
f 422 465 423
f 423 465 424
f 424 466 467
f 424 467 457
f 424 457 425
f 424 465 466
f 427 458 467
f 427 467 468
f 427 468 428
f 427 434 469
f 427 469 470
f 427 470 471
f 427 471 458
f 428 468 429
f 429 468 467
f 429 467 466
f 429 466 472
f 429 472 435
f 432 473 433
f 433 473 434
f 434 473 470
f 434 470 469
f 435 472 474
f 435 474 436
f 436 474 440
f 437 453 438
f 437 446 454
f 437 454 453
f 438 453 439
f 440 474 475
f 440 475 441
f 441 475 476
f 441 476 442
f 442 476 477
f 442 477 443
f 443 477 447
f 444 447 478
f 444 478 479
f 444 479 445
f 445 479 480
f 445 480 446
f 446 480 455
f 446 455 454
f 447 477 481
f 447 481 482
f 447 482 478
f 448 456 449
f 449 456 450
f 450 456 451
f 451 483 484
f 451 484 485
f 451 485 452
f 451 456 486
f 451 486 487
f 451 487 483
f 455 480 456
f 456 480 488
f 456 488 489
f 456 489 490
f 456 490 486
f 457 467 458
f 458 471 460
f 458 460 459
f 460 471 470
f 460 470 461
f 462 491 492
f 462 492 493
f 462 493 463
f 463 493 464
f 464 493 494
f 464 494 495
f 464 495 465
f 465 495 472
f 465 472 466
f 472 495 496
f 472 496 474
f 474 496 475
f 475 496 476
f 476 496 497
f 476 497 498
f 476 498 499
f 476 499 477
f 477 499 500
f 477 500 501
f 477 501 502
f 477 502 481
f 478 482 503
f 478 503 479
f 479 488 480
f 479 503 490
f 479 490 488
f 481 504 482
f 481 502 504
f 482 505 503
f 482 504 506
f 482 506 505
f 483 487 490
f 483 490 507
f 486 490 487
f 488 490 489
f 490 506 508
f 490 508 509
f 490 509 507
f 490 503 505
f 490 505 506
f 491 510 511
f 491 511 492
f 492 511 512
f 492 512 493
f 493 512 494
f 494 512 497
f 494 497 496
f 494 496 495
f 497 512 498
f 498 512 513
f 498 513 514
f 498 514 515
f 498 515 499
f 499 515 500
f 500 515 516
f 500 516 517
f 500 517 501
f 501 517 502
f 502 518 504
f 504 518 506
f 506 518 508
f 510 519 516
f 510 516 514
f 510 514 513
f 510 513 511
f 511 513 512
f 514 516 515
f 516 519 517

