# https://github.com/mikedh/trimesh
v -0.01103871 0.00746873 -0.00359083
v -0.01109994 0.00682336 -0.00357561
v -0.01103400 0.00751787 -0.00359083
v -0.00339232 0.00746873 -0.00359083
v -0.01109366 0.00682336 -0.00353809
v -0.01103714 0.00746406 -0.00357561
v -0.00328400 0.00682336 -0.00357561
v -0.01098377 0.00802033 -0.00359083
v -0.00308150 0.00811057 -0.00359083
v -0.01108345 0.00682336 -0.00348085
v -0.01100418 0.00738240 -0.00333437
v -0.00337348 0.00811057 -0.00227362
v -0.00328949 0.00682336 -0.00355395
v -0.01097435 0.00805247 -0.00355511
v -0.01096807 0.00811057 -0.00355382
v -0.01097357 0.00811057 -0.00359083
v -0.01103165 0.00682336 -0.00319861
v -0.01095081 0.00746873 -0.00311325
v -0.01089351 0.00804213 -0.00311183
v -0.01088645 0.00811057 -0.00311183
v -0.01095709 0.00811057 -0.00349425
v -0.00353673 0.00761769 -0.00227362
v -0.01067609 0.00811057 -0.00227362
v -0.00375572 0.00682336 -0.00258990
v -0.01098848 0.00682336 -0.00298934
v -0.01079932 0.00804213 -0.00267951
v -0.01079226 0.00811057 -0.00267951
v -0.00360737 0.00746873 -0.00227362
v -0.01067688 0.00810578 -0.00227362
v -0.01089194 0.00682336 -0.00258990
v -0.01097121 0.00682336 -0.00291160
v -0.01085583 0.00746873 -0.00267938
v -0.01068630 0.00801504 -0.00227362
v -0.01073810 0.00746873 -0.00227362
v -0.01091706 0.00682336 -0.00267938
v -0.01085270 0.00723709 -0.00258990
v -0.01088409 0.00717660 -0.00267938
f 1 2 3
f 1 3 8
f 1 8 16
f 1 16 9
f 1 9 4
f 1 4 7
f 1 7 2
f 2 5 6
f 2 6 3
f 2 7 13
f 2 13 24
f 2 24 30
f 2 30 35
f 2 35 31
f 2 31 25
f 2 25 17
f 2 17 10
f 2 10 5
f 3 6 8
f 4 9 7
f 5 10 11
f 5 11 6
f 6 11 8
f 7 9 12
f 7 12 13
f 8 14 15
f 8 15 16
f 8 11 14
f 9 16 15
f 9 15 21
f 9 21 20
f 9 20 27
f 9 27 23
f 9 23 12
f 10 17 11
f 11 17 18
f 11 18 19
f 11 19 20
f 11 20 21
f 11 21 15
f 11 15 14
f 12 22 13
f 12 23 29
f 12 29 33
f 12 33 34
f 12 34 28
f 12 28 22
f 13 22 24
f 17 25 18
f 18 25 19
f 19 25 26
f 19 26 27
f 19 27 20
f 22 28 24
f 23 27 29
f 24 28 34
f 24 34 30
f 25 31 26
f 26 32 33
f 26 33 27
f 26 31 32
f 27 33 29
f 30 34 33
f 30 33 36
f 30 36 37
f 30 37 35
f 31 35 37
f 31 37 32
f 32 37 36
f 32 36 33

