# https://github.com/mikedh/trimesh
v 0.00266338 -0.00175006 -0.00311233
v 0.00266338 -0.00175006 -0.00441019
v 0.00262206 -0.00175006 -0.00295838
v 0.00241924 -0.00213838 -0.00288237
v -0.00062557 -0.00774325 -0.00311233
v 0.00241924 -0.00213838 -0.00464293
v 0.00248810 -0.00191260 -0.00471281
v 0.00254444 -0.00175006 -0.00473897
v -0.00062557 -0.00774325 -0.00441019
v 0.00254444 -0.00175006 -0.00279719
v 0.00248810 -0.00191260 -0.00281946
v -0.00055045 -0.00745863 -0.00281862
v -0.00103497 -0.00820291 -0.00287486
v -0.00081587 -0.00797050 -0.00311233
v -0.00055045 -0.00745863 -0.00471475
v -0.00046156 -0.00710488 -0.00477266
v 0.00219388 -0.00191260 -0.00487038
v 0.00219388 -0.00175006 -0.00489654
v -0.00081587 -0.00797050 -0.00441019
v -0.00103497 -0.00820291 -0.00465184
v 0.00235789 -0.00175006 -0.00271005
v -0.00046281 -0.00710488 -0.00276907
v -0.00079584 -0.00757704 -0.00273928
v -0.00093481 -0.00797050 -0.00281111
v -0.00102620 -0.00821100 -0.00311233
v -0.00130915 -0.00836985 -0.00282475
v -0.00148067 -0.00862358 -0.00289045
v -0.00093356 -0.00797050 -0.00472533
v -0.00079459 -0.00757704 -0.00480718
v -0.00083590 -0.00710488 -0.00493218
v 0.00176070 -0.00191260 -0.00494387
v 0.00176070 -0.00175006 -0.00494471
v -0.00102620 -0.00821100 -0.00441019
v -0.00148067 -0.00862358 -0.00463291
v -0.00130915 -0.00836985 -0.00470946
v 0.00219388 -0.00175006 -0.00266300
v 0.00219388 -0.00191260 -0.00268165
v -0.00083590 -0.00710488 -0.00263127
v -0.00126783 -0.00797050 -0.00267330
v -0.00126157 -0.00842722 -0.00311233
v -0.00170102 -0.00840368 -0.00268834
v -0.00170102 -0.00868830 -0.00282614
v -0.00147817 -0.00862505 -0.00311233
v -0.00263875 -0.00910751 -0.00282503
v -0.00213420 -0.00896704 -0.00311233
v -0.00170102 -0.00875597 -0.00311233
v -0.00126783 -0.00797050 -0.00488485
v -0.00126783 -0.00753806 -0.00494582
v -0.00948957 -0.00175006 -0.00530662
v -0.00126157 -0.00842722 -0.00441019
v -0.00147817 -0.00862505 -0.00441019
v -0.00170102 -0.00875597 -0.00441019
v -0.00213420 -0.00896704 -0.00441019
v -0.00263875 -0.00910751 -0.00470807
v -0.00170102 -0.00868830 -0.00470529
v -0.00170102 -0.00840368 -0.00486481
v 0.00192346 -0.00175006 -0.00263043
v -0.00126783 -0.00753806 -0.00262013
v -0.00213420 -0.00840368 -0.00262319
v -0.00299932 -0.00883613 -0.00264268
v -0.00213420 -0.00879347 -0.00276100
v -0.00299932 -0.00914796 -0.00278048
v -0.00299932 -0.00924283 -0.00311233
v -0.00256739 -0.00913472 -0.00311233
v -0.00235079 -0.00905235 -0.00311233
v -0.00213420 -0.00840368 -0.00493997
v -0.00170102 -0.00797050 -0.00494582
v -0.00429637 -0.00840368 -0.00494582
v -0.00472955 -0.00840368 -0.00494304
v -0.00559467 -0.00797050 -0.00493023
v -0.00602785 -0.00753806 -0.00494304
v -0.00646104 -0.00710488 -0.00494387
v -0.00732615 -0.00623925 -0.00494471
v -0.00775934 -0.00580681 -0.00493608
v -0.00819127 -0.00537436 -0.00491102
v -0.00980006 -0.00175006 -0.00518552
v -0.00256613 -0.00840368 -0.00494582
v -0.00235079 -0.00905235 -0.00441019
v -0.00256739 -0.00913472 -0.00441019
v -0.00299932 -0.00922813 -0.00441019
v -0.00299932 -0.00913987 -0.00475345
v -0.00299932 -0.00883613 -0.00491325
v -0.00213420 -0.00879347 -0.00478018
v -0.00083590 -0.00667243 -0.00262013
v -0.00905764 -0.00175006 -0.00246256
v -0.00256613 -0.00840368 -0.00262013
v -0.00343250 -0.00883613 -0.00263962
v -0.00343250 -0.00915532 -0.00277742
v -0.00343250 -0.00926269 -0.00311233
v -0.00299932 -0.00924063 -0.00354495
v -0.00343250 -0.00926269 -0.00354495
v -0.00386444 -0.00883613 -0.00491687
v -0.00343250 -0.00883613 -0.00491882
v -0.00516274 -0.00840368 -0.00489543
v -0.00604538 -0.00799551 -0.00480328
v -0.00649860 -0.00757557 -0.00481414
v -0.00693303 -0.00714459 -0.00481525
v -0.00736747 -0.00671362 -0.00481581
v -0.00779314 -0.00627014 -0.00480941
v -0.00820003 -0.00579872 -0.00478240
v -0.00854308 -0.00537436 -0.00475150
v -0.00866577 -0.00498090 -0.00480885
v -0.00972995 -0.00306578 -0.00467105
v -0.01005546 -0.00175006 -0.00481637
v -0.00891241 -0.00486323 -0.00471754
v -0.00932807 -0.00398363 -0.00470557
v -0.00343250 -0.00924210 -0.00441019
v -0.00343250 -0.00914575 -0.00475930
v -0.00945702 -0.00175006 -0.00248260
v -0.00602785 -0.00710488 -0.00262013
v -0.00429637 -0.00840368 -0.00263071
v -0.00386444 -0.00840368 -0.00262709
v -0.00386444 -0.00883613 -0.00269530
v -0.00386444 -0.00910604 -0.00283310
v -0.00386444 -0.00920091 -0.00311233
v -0.00386444 -0.00924283 -0.00354495
v -0.00386444 -0.00924136 -0.00397757
v -0.00386444 -0.00923769 -0.00441019
v -0.00386444 -0.00914428 -0.00475707
v -0.00429637 -0.00883613 -0.00486286
v -0.00516274 -0.00871478 -0.00473591
v -0.00557464 -0.00840221 -0.00476765
v -0.00637841 -0.00786828 -0.00472923
v -0.00591267 -0.00825733 -0.00471197
v -0.00681409 -0.00745642 -0.00473034
v -0.00724978 -0.00702619 -0.00473090
v -0.00767170 -0.00659595 -0.00473146
v -0.00806106 -0.00614659 -0.00472004
v -0.00844918 -0.00564869 -0.00468664
v -0.00974372 -0.00310697 -0.00441019
v -0.01012307 -0.00175006 -0.00457834
v -0.00954215 -0.00364385 -0.00441019
v -0.00966986 -0.00332319 -0.00441019
v -0.00883604 -0.00515152 -0.00448508
v -0.00936187 -0.00404982 -0.00441019
v -0.00915279 -0.00450874 -0.00441019
v -0.00982135 -0.00175006 -0.00277213
v -0.00933307 -0.00321067 -0.00282419
v -0.00894872 -0.00407629 -0.00279078
v -0.00851178 -0.00494192 -0.00279607
v -0.00819127 -0.00494192 -0.00265827
v -0.00775934 -0.00537436 -0.00263321
v -0.00732615 -0.00580681 -0.00262069
v -0.00689297 -0.00623925 -0.00262013
v -0.00646104 -0.00667243 -0.00262013
v -0.00646104 -0.00710488 -0.00267442
v -0.00516274 -0.00797050 -0.00264741
v -0.00516274 -0.00833308 -0.00277881
v -0.00426131 -0.00883981 -0.00278828
v -0.00464817 -0.00869713 -0.00281751
v -0.00409230 -0.00905897 -0.00288655
v -0.00417868 -0.00909795 -0.00311233
v -0.00432516 -0.00913325 -0.00353214
v -0.00429637 -0.00917002 -0.00397757
v -0.00429637 -0.00916046 -0.00441019
v -0.00429637 -0.00910310 -0.00470306
v -0.00469950 -0.00885305 -0.00476236
v -0.00453550 -0.00906118 -0.00464376
v -0.00541689 -0.00864638 -0.00466965
v -0.00667012 -0.00774766 -0.00441019
v -0.00618059 -0.00814039 -0.00441019
v -0.00645353 -0.00792417 -0.00441019
v -0.00731989 -0.00709826 -0.00441019
v -0.00753523 -0.00688204 -0.00441019
v -0.00773680 -0.00666581 -0.00441019
v -0.00795339 -0.00642606 -0.00441019
v -0.00810614 -0.00620984 -0.00441019
v -0.00973871 -0.00309079 -0.00397757
v -0.00983011 -0.00277822 -0.00397757
v -0.01012307 -0.00175006 -0.00411092
v -0.01012683 -0.00175006 -0.00441019
v -0.00936312 -0.00405276 -0.00397757
v -0.00953840 -0.00364385 -0.00397757
v -0.00966485 -0.00330701 -0.00397757
v -0.00884105 -0.00515814 -0.00419639
v -0.00892743 -0.00498090 -0.00436843
v -0.00832273 -0.00590095 -0.00441019
v -0.00847422 -0.00568472 -0.00441019
v -0.00871835 -0.00533171 -0.00436843
v -0.00915028 -0.00450874 -0.00397757
v -0.00926296 -0.00426972 -0.00397757
v -0.00989020 -0.00175006 -0.00294167
v -0.00928800 -0.00346734 -0.00287430
v -0.00887861 -0.00436459 -0.00284758
v -0.00843916 -0.00520595 -0.00285426
v -0.00819377 -0.00535965 -0.00277102
v -0.00778563 -0.00582593 -0.00274123
v -0.00732615 -0.00623925 -0.00268555
v -0.00689297 -0.00667243 -0.00267971
v -0.00686042 -0.00706811 -0.00282141
v -0.00646104 -0.00742995 -0.00281250
v -0.00560093 -0.00798668 -0.00275153
v -0.00546196 -0.00824336 -0.00283171
v -0.00493738 -0.00861329 -0.00290966
v -0.00439527 -0.00899278 -0.00311233
v -0.00448792 -0.00903985 -0.00337931
v -0.00456554 -0.00907368 -0.00366772
v -0.00458683 -0.00908104 -0.00397757
v -0.00456429 -0.00907147 -0.00441019
v -0.00478088 -0.00899057 -0.00441019
v -0.00516274 -0.00881554 -0.00441019
v -0.00544068 -0.00866109 -0.00441019
v -0.00565727 -0.00851327 -0.00441019
v -0.00596525 -0.00829704 -0.00441019
v -0.00666135 -0.00774178 -0.00397757
v -0.00688671 -0.00752556 -0.00397757
v -0.00710205 -0.00731375 -0.00397757
v -0.00595148 -0.00829263 -0.00397757
v -0.00616807 -0.00812789 -0.00397757
v -0.00644476 -0.00791167 -0.00397757
v -0.00731238 -0.00709752 -0.00397757
v -0.00752897 -0.00687468 -0.00397757
v -0.00772929 -0.00665846 -0.00397757
v -0.00794463 -0.00641650 -0.00397757
v -0.00810238 -0.00620027 -0.00397757
v -0.00847171 -0.00568031 -0.00397757
v -0.00884105 -0.00515814 -0.00419305
v -0.00972369 -0.00304372 -0.00370920
v -0.01011306 -0.00175006 -0.00391159
v -0.00922666 -0.00418955 -0.00354495
v -0.00932431 -0.00397333 -0.00354495
v -0.00945577 -0.00364385 -0.00354495
v -0.00892368 -0.00497354 -0.00402017
v -0.00882978 -0.00513828 -0.00390435
v -0.00967612 -0.00289516 -0.00342079
v -0.00946578 -0.00321067 -0.00311233
v -0.00994654 -0.00175006 -0.00311233
v -0.00923542 -0.00375564 -0.00300877
v -0.00915279 -0.00404688 -0.00313655
v -0.00880349 -0.00465362 -0.00299846
v -0.00834401 -0.00550160 -0.00311233
v -0.00794713 -0.00598332 -0.00297202
v -0.00754650 -0.00646062 -0.00289045
v -0.00804980 -0.00569502 -0.00282141
v -0.00871334 -0.00491618 -0.00313070
v -0.00849425 -0.00528537 -0.00311233
v -0.00763289 -0.00623925 -0.00282336
v -0.00728859 -0.00663198 -0.00282976
v -0.00669265 -0.00733655 -0.00287653
v -0.00711958 -0.00689969 -0.00288321
v -0.00593771 -0.00785283 -0.00281139
v -0.00622567 -0.00773957 -0.00293249
v -0.00574991 -0.00814186 -0.00301433
v -0.00517025 -0.00854268 -0.00307725
v -0.00503128 -0.00866918 -0.00319807
v -0.00476711 -0.00877435 -0.00307725
v -0.00471703 -0.00896263 -0.00353214
v -0.00517025 -0.00872140 -0.00355859
v -0.00540687 -0.00863756 -0.00371198
v -0.00516274 -0.00881112 -0.00397757
v -0.00480217 -0.00899278 -0.00397757
v -0.00543191 -0.00865447 -0.00397757
v -0.00564850 -0.00850959 -0.00397757
v -0.00637715 -0.00785798 -0.00354495
v -0.00659375 -0.00768736 -0.00354495
v -0.00683788 -0.00747113 -0.00354495
v -0.00705447 -0.00726300 -0.00354495
v -0.00588388 -0.00824336 -0.00354495
v -0.00610047 -0.00807420 -0.00354495
v -0.00747764 -0.00682099 -0.00354495
v -0.00767796 -0.00660477 -0.00354495
v -0.00789330 -0.00634884 -0.00354495
v -0.00844667 -0.00564354 -0.00365937
v -0.00871209 -0.00533171 -0.00402017
v -0.01001165 -0.00175006 -0.00333142
v -0.01005672 -0.00175006 -0.00354495
v -0.00962103 -0.00319743 -0.00355692
v -0.00907016 -0.00450874 -0.00354495
v -0.00892493 -0.00450947 -0.00313070
v -0.00928425 -0.00388287 -0.00329718
v -0.00932681 -0.00362399 -0.00313655
v -0.00878596 -0.00505665 -0.00354495
v -0.00890114 -0.00484043 -0.00354495
v -0.00885607 -0.00475438 -0.00328716
v -0.00839284 -0.00556852 -0.00337068
v -0.00800097 -0.00605833 -0.00326043
v -0.00782444 -0.00621719 -0.00311455
v -0.00759157 -0.00650990 -0.00311233
v -0.00738750 -0.00672612 -0.00311233
v -0.00696308 -0.00716886 -0.00311233
v -0.00856060 -0.00540452 -0.00352713
v -0.00644852 -0.00762411 -0.00309089
v -0.00674649 -0.00738656 -0.00311233
v -0.00629703 -0.00779547 -0.00322090
v -0.00602535 -0.00796830 -0.00311762
v -0.00582378 -0.00819702 -0.00330303
v -0.00556838 -0.00847135 -0.00355859
v -0.00560093 -0.00829263 -0.00314017
v -0.00532049 -0.00858534 -0.00342357
v -0.00805355 -0.00613261 -0.00354495
f 1 2 8
f 1 8 18
f 1 18 32
f 1 32 49
f 1 49 76
f 1 76 104
f 1 104 131
f 1 131 171
f 1 171 170
f 1 170 219
f 1 219 266
f 1 266 265
f 1 265 227
f 1 227 182
f 1 182 137
f 1 137 109
f 1 109 85
f 1 85 57
f 1 57 36
f 1 36 21
f 1 21 10
f 1 10 3
f 1 3 4
f 1 4 5
f 1 5 9
f 1 9 2
f 2 6 7
f 2 7 8
f 2 9 6
f 3 10 11
f 3 11 4
f 4 11 12
f 4 12 5
f 5 12 13
f 5 13 14
f 5 14 19
f 5 19 9
f 6 9 15
f 6 15 7
f 7 15 8
f 8 15 16
f 8 16 17
f 8 17 18
f 9 19 20
f 9 20 15
f 10 21 12
f 10 12 11
f 12 22 23
f 12 23 24
f 12 24 13
f 12 21 22
f 13 25 14
f 13 24 26
f 13 26 27
f 13 27 25
f 14 25 33
f 14 33 19
f 15 20 28
f 15 28 29
f 15 29 16
f 16 29 17
f 17 29 30
f 17 30 18
f 18 30 31
f 18 31 32
f 19 33 20
f 20 33 34
f 20 34 35
f 20 35 28
f 21 36 37
f 21 37 23
f 21 23 22
f 23 37 38
f 23 38 39
f 23 39 24
f 24 39 26
f 25 27 40
f 25 40 50
f 25 50 33
f 26 39 41
f 26 41 42
f 26 42 27
f 27 43 40
f 27 42 44
f 27 44 45
f 27 45 46
f 27 46 43
f 28 35 47
f 28 47 29
f 29 47 30
f 30 47 48
f 30 48 31
f 31 48 49
f 31 49 32
f 33 50 34
f 34 50 51
f 34 51 52
f 34 52 53
f 34 53 54
f 34 54 55
f 34 55 35
f 35 55 56
f 35 56 47
f 36 57 38
f 36 38 37
f 38 57 58
f 38 58 39
f 39 58 59
f 39 59 41
f 40 43 51
f 40 51 50
f 41 59 60
f 41 60 61
f 41 61 42
f 42 61 44
f 43 46 52
f 43 52 51
f 44 62 63
f 44 63 64
f 44 64 65
f 44 65 45
f 44 61 62
f 45 65 78
f 45 78 53
f 45 53 52
f 45 52 46
f 47 56 66
f 47 66 67
f 47 67 48
f 48 67 49
f 49 68 69
f 49 69 70
f 49 70 71
f 49 71 72
f 49 72 73
f 49 73 74
f 49 74 75
f 49 75 76
f 49 67 66
f 49 66 77
f 49 77 68
f 53 78 54
f 54 79 80
f 54 80 81
f 54 81 82
f 54 82 83
f 54 83 55
f 54 78 79
f 55 83 56
f 56 83 82
f 56 82 66
f 57 84 58
f 57 85 84
f 58 84 85
f 58 85 59
f 59 85 86
f 59 86 60
f 60 86 87
f 60 87 88
f 60 88 62
f 60 62 61
f 62 88 89
f 62 89 63
f 63 90 79
f 63 79 64
f 63 89 91
f 63 91 90
f 64 79 78
f 64 78 65
f 66 82 77
f 68 92 69
f 68 77 93
f 68 93 92
f 69 92 94
f 69 94 70
f 70 95 96
f 70 96 71
f 70 94 95
f 71 96 97
f 71 97 98
f 71 98 72
f 72 98 73
f 73 98 74
f 74 98 99
f 74 99 75
f 75 99 100
f 75 100 101
f 75 101 102
f 75 102 76
f 76 103 104
f 76 102 105
f 76 105 106
f 76 106 103
f 77 82 93
f 79 90 80
f 80 90 91
f 80 91 107
f 80 107 81
f 81 107 108
f 81 108 82
f 82 108 93
f 85 109 110
f 85 110 111
f 85 111 112
f 85 112 86
f 86 112 87
f 87 112 111
f 87 111 113
f 87 113 88
f 88 113 114
f 88 114 115
f 88 115 89
f 89 115 116
f 89 116 91
f 91 116 117
f 91 117 118
f 91 118 107
f 92 119 120
f 92 120 94
f 92 93 108
f 92 108 119
f 94 120 121
f 94 121 122
f 94 122 95
f 95 123 96
f 95 122 124
f 95 124 123
f 96 123 125
f 96 125 126
f 96 126 97
f 97 126 98
f 98 126 127
f 98 127 99
f 99 127 128
f 99 128 100
f 100 128 101
f 101 129 105
f 101 105 102
f 101 128 129
f 103 130 131
f 103 131 104
f 103 106 132
f 103 132 133
f 103 133 130
f 105 129 134
f 105 134 106
f 106 135 132
f 106 134 136
f 106 136 135
f 107 118 119
f 107 119 108
f 109 137 138
f 109 138 139
f 109 139 140
f 109 140 141
f 109 141 142
f 109 142 143
f 109 143 144
f 109 144 145
f 109 145 110
f 110 145 146
f 110 146 147
f 110 147 111
f 111 147 113
f 113 147 148
f 113 148 149
f 113 149 114
f 114 149 150
f 114 150 151
f 114 151 115
f 115 151 152
f 115 152 153
f 115 153 116
f 116 153 154
f 116 154 117
f 117 154 118
f 118 154 155
f 118 155 156
f 118 156 119
f 119 156 120
f 120 156 157
f 120 157 121
f 121 157 156
f 121 156 158
f 121 158 159
f 121 159 122
f 122 159 124
f 123 160 125
f 123 124 160
f 124 159 161
f 124 161 162
f 124 162 160
f 125 160 126
f 126 163 164
f 126 164 127
f 126 160 163
f 127 165 166
f 127 166 128
f 127 164 165
f 128 166 129
f 129 166 167
f 129 167 134
f 130 133 174
f 130 174 168
f 130 168 169
f 130 169 170
f 130 170 171
f 130 171 131
f 132 172 173
f 132 173 133
f 132 135 172
f 133 173 174
f 134 175 176
f 134 176 136
f 134 167 177
f 134 177 178
f 134 178 179
f 134 179 175
f 135 136 172
f 136 176 180
f 136 180 181
f 136 181 172
f 137 182 183
f 137 183 138
f 138 183 139
f 139 184 140
f 139 183 184
f 140 184 185
f 140 185 186
f 140 186 141
f 141 186 187
f 141 187 188
f 141 188 142
f 142 188 143
f 143 188 189
f 143 189 146
f 143 146 144
f 144 146 145
f 146 189 190
f 146 190 191
f 146 191 192
f 146 192 147
f 147 192 148
f 148 150 149
f 148 192 193
f 148 193 150
f 150 193 194
f 150 194 151
f 151 194 195
f 151 195 152
f 152 195 196
f 152 196 197
f 152 197 153
f 153 197 154
f 154 197 198
f 154 198 155
f 155 198 199
f 155 199 158
f 155 158 156
f 158 199 200
f 158 200 201
f 158 201 159
f 159 202 203
f 159 203 204
f 159 204 161
f 159 201 202
f 160 162 205
f 160 205 206
f 160 206 207
f 160 207 163
f 161 204 208
f 161 208 209
f 161 209 210
f 161 210 205
f 161 205 162
f 163 207 164
f 164 207 211
f 164 211 212
f 164 212 165
f 165 212 213
f 165 213 166
f 166 213 214
f 166 214 215
f 166 215 216
f 166 216 167
f 167 216 217
f 167 217 177
f 168 218 169
f 168 174 218
f 169 218 219
f 169 219 170
f 172 181 220
f 172 220 221
f 172 221 173
f 173 221 222
f 173 222 218
f 173 218 174
f 175 179 178
f 175 178 217
f 175 217 176
f 176 217 180
f 177 217 178
f 180 217 223
f 180 223 224
f 180 224 220
f 180 220 181
f 182 218 225
f 182 225 226
f 182 226 183
f 182 227 218
f 183 226 228
f 183 228 184
f 184 228 229
f 184 229 230
f 184 230 185
f 185 231 232
f 185 232 233
f 185 233 234
f 185 234 186
f 185 230 235
f 185 235 236
f 185 236 231
f 186 234 187
f 187 234 237
f 187 237 188
f 188 238 190
f 188 190 189
f 188 237 238
f 190 239 191
f 190 238 240
f 190 240 239
f 191 239 241
f 191 241 192
f 192 241 193
f 193 241 239
f 193 239 242
f 193 242 243
f 193 243 244
f 193 244 194
f 194 244 245
f 194 245 246
f 194 246 195
f 195 246 196
f 196 247 197
f 196 246 248
f 196 248 247
f 197 247 249
f 197 249 250
f 197 250 251
f 197 251 198
f 198 251 200
f 198 200 199
f 200 251 201
f 201 251 250
f 201 250 202
f 202 250 252
f 202 252 253
f 202 253 203
f 203 253 204
f 204 253 208
f 205 210 254
f 205 254 255
f 205 255 256
f 205 256 206
f 206 256 257
f 206 257 207
f 207 257 211
f 208 253 249
f 208 249 258
f 208 258 209
f 209 259 254
f 209 254 210
f 209 258 259
f 211 257 212
f 212 257 260
f 212 260 261
f 212 261 213
f 213 261 214
f 214 261 262
f 214 262 263
f 214 263 215
f 215 263 216
f 216 263 224
f 216 224 264
f 216 264 217
f 217 264 224
f 217 224 223
f 218 227 265
f 218 265 266
f 218 266 219
f 218 222 267
f 218 267 225
f 220 224 268
f 220 268 269
f 220 269 229
f 220 229 270
f 220 270 221
f 221 270 222
f 222 270 228
f 222 228 271
f 222 271 267
f 224 263 272
f 224 272 273
f 224 273 268
f 225 267 226
f 226 267 271
f 226 271 228
f 228 270 229
f 229 269 230
f 230 269 274
f 230 274 235
f 231 236 275
f 231 275 232
f 232 275 276
f 232 276 262
f 232 262 277
f 232 277 233
f 233 278 260
f 233 260 279
f 233 279 280
f 233 280 240
f 233 240 238
f 233 238 237
f 233 237 234
f 233 277 262
f 233 262 278
f 235 274 272
f 235 272 236
f 236 272 281
f 236 281 263
f 236 263 275
f 239 255 282
f 239 282 242
f 239 240 280
f 239 280 283
f 239 283 255
f 242 282 255
f 242 255 284
f 242 284 285
f 242 285 243
f 243 285 286
f 243 286 287
f 243 287 288
f 243 288 244
f 244 288 289
f 244 289 245
f 245 289 248
f 245 248 246
f 247 248 249
f 248 289 249
f 249 252 250
f 249 289 288
f 249 288 287
f 249 287 258
f 249 253 252
f 254 259 285
f 254 285 284
f 254 284 255
f 255 283 256
f 256 283 257
f 257 283 280
f 257 280 279
f 257 279 260
f 258 286 285
f 258 285 259
f 258 287 286
f 260 278 261
f 261 278 262
f 262 276 290
f 262 290 263
f 263 281 272
f 263 290 276
f 263 276 275
f 268 273 274
f 268 274 269
f 272 274 273

