# https://github.com/mikedh/trimesh
v -0.00404767 0.00328299 -0.00006629
v -0.00404767 0.00316031 -0.00015741
v -0.00404767 0.00328496 -0.00025721
v -0.00414216 0.00328496 0.00001182
v -0.00577773 0.00215653 0.00059327
v -0.00590142 0.00186809 0.00049491
v -0.00572857 0.00167404 0.00020708
v -0.00543971 0.00183948 0.00007980
v -0.00404767 -0.00007468 -0.00262062
v -0.00404767 0.00328496 -0.01265281
v -0.00418519 0.00328496 0.00004653
v -0.00440336 0.00328134 0.00021721
v -0.00469068 0.00328496 0.00044284
v -0.00470605 0.00328496 0.00045441
v -0.00489811 0.00328496 0.00059761
v -0.00508171 0.00328496 0.00071043
v -0.00561871 0.00245780 0.00064100
v -0.00603893 0.00200063 0.00067282
v -0.00618950 0.00170825 0.00060484
v -0.00602587 0.00154742 0.00035317
v -0.00586147 0.00138593 0.00009137
v -0.00615032 0.00123859 0.00021142
v -0.00630090 0.00095015 0.00009137
v -0.00628553 0.00050187 -0.00033242
v -0.00657362 0.00038544 -0.00021961
v -0.00676875 0.00009700 -0.00036280
v -0.00657516 -0.00003718 -0.00065063
v -0.00654289 -0.00007468 -0.00071861
v -0.00404767 -0.00007468 -0.01009559
v -0.00543894 0.00183717 -0.01279601
v -0.00531833 0.00212561 -0.01290304
v -0.00560795 0.00199767 -0.01305636
v -0.00577696 0.00215850 -0.01330948
v -0.00537134 0.00262191 -0.01328778
v -0.00418442 0.00328496 -0.01276274
v -0.00439875 0.00328496 0.00021576
v -0.00511321 0.00328496 0.00072923
v -0.00647145 0.00155893 0.00067861
v -0.00513626 0.00325931 0.00073068
v -0.00563945 0.00289161 0.00084783
v -0.00606505 0.00245023 0.00088110
v -0.00650141 0.00202234 0.00089701
v -0.00662202 0.00128595 0.00060195
v -0.00633393 0.00142014 0.00050070
v -0.00646146 0.00111789 0.00034883
v -0.00658899 0.00082879 0.00019696
v -0.00643764 0.00066533 -0.00006339
v -0.00677336 0.00054002 0.00006823
v -0.00691548 0.00026605 -0.00009811
v -0.00705684 0.00000327 -0.00026444
v -0.00687400 -0.00007468 -0.00047996
v -0.00660435 -0.00007468 -0.00067233
v -0.00654366 -0.00007468 -0.01200049
v -0.00657516 -0.00003784 -0.01206558
v -0.00676798 0.00009634 -0.01235486
v -0.00657362 0.00038478 -0.01249660
v -0.00628553 0.00050187 -0.01238234
v -0.00630090 0.00094982 -0.01280758
v -0.00614956 0.00123859 -0.01292763
v -0.00586070 0.00138495 -0.01280758
v -0.00572780 0.00167306 -0.01292040
v -0.00590756 0.00187006 -0.01320968
v -0.00619642 0.00171384 -0.01331671
v -0.00604277 0.00200162 -0.01338614
v -0.00561794 0.00245286 -0.01336299
v -0.00497109 0.00309716 -0.01326319
v -0.00440413 0.00328496 -0.01293631
v -0.00528376 0.00284852 -0.01334853
v -0.00554496 0.00328496 0.00094185
v -0.00554573 0.00328134 0.00094185
v -0.00581230 0.00306460 0.00099826
v -0.00692240 0.00113203 0.00065691
v -0.00689474 0.00155038 0.00085940
v -0.00594521 0.00277583 0.00095197
v -0.00638310 0.00232887 0.00096644
v -0.00708450 0.00088141 0.00058170
v -0.00679641 0.00099718 0.00048479
v -0.00692931 0.00071072 0.00032569
v -0.00706145 0.00043543 0.00016514
v -0.00713289 -0.00007468 -0.00031507
v -0.00699538 -0.00007468 -0.00039462
v -0.00732726 0.00036637 0.00023456
v -0.00732726 0.00014995 0.00001760
v -0.00732726 -0.00005758 -0.00019791
v -0.00687246 -0.00007468 -0.01223770
v -0.00705607 0.00000294 -0.01245032
v -0.00706222 0.00043576 -0.01288134
v -0.00677413 0.00054035 -0.01278444
v -0.00658975 0.00082912 -0.01291316
v -0.00643764 0.00066533 -0.01265137
v -0.00646069 0.00111657 -0.01306359
v -0.00662125 0.00128332 -0.01331960
v -0.00633240 0.00142573 -0.01321546
v -0.00602818 0.00154972 -0.01306793
v -0.00647068 0.00156222 -0.01339337
v -0.00648681 0.00200787 -0.01361033
v -0.00606198 0.00244694 -0.01360020
v -0.00559566 0.00284852 -0.01353222
v -0.00474984 0.00328496 -0.01320244
v -0.00470682 0.00328496 -0.01317062
v -0.00507557 0.00328496 -0.01342519
v -0.00575929 0.00328496 0.00100549
v -0.00576237 0.00328134 0.00100694
v -0.00623329 0.00261731 0.00100260
v -0.00606505 0.00289161 0.00100983
v -0.00732726 0.00111789 0.00079576
v -0.00689474 0.00189999 0.00097367
v -0.00732726 0.00155038 0.00094185
v -0.00667195 0.00219271 0.00099971
v -0.00732726 0.00059725 0.00045152
v -0.00732726 0.00081366 0.00062943
v -0.00732726 -0.00007468 -0.00021816
v -0.00767296 0.00051568 0.00052529
v -0.00775977 0.00006872 0.00009860
v -0.00775977 -0.00007468 -0.00006050
v -0.00735338 -0.00007468 -0.00020803
v -0.00699461 -0.00007468 -0.01232159
v -0.00732726 -0.00007468 -0.01249516
v -0.00732726 -0.00005692 -0.01251541
v -0.00732726 0.00015127 -0.01273236
v -0.00732726 0.00036768 -0.01295366
v -0.00732726 0.00059462 -0.01316918
v -0.00708450 0.00088141 -0.01329791
v -0.00679564 0.00099488 -0.01320100
v -0.00692163 0.00113038 -0.01337312
v -0.00689474 0.00155038 -0.01357561
v -0.00664814 0.00216870 -0.01372170
v -0.00636005 0.00232361 -0.01368265
v -0.00592907 0.00284852 -0.01368120
v -0.00513856 0.00328496 -0.01345846
v -0.00513472 0.00325733 -0.01344688
v -0.00559797 0.00325931 -0.01366818
v -0.00602587 0.00328496 0.00102574
v -0.00650141 0.00245023 0.00100983
v -0.00602894 0.00328134 0.00102574
v -0.00646146 0.00284852 0.00102863
v -0.00775977 0.00111789 0.00085796
v -0.00779434 0.00066993 0.00066125
v -0.00689474 0.00211640 0.00100549
v -0.00718053 0.00209536 0.00100694
v -0.00732572 0.00196380 0.00098813
v -0.00775977 0.00155038 0.00092883
v -0.00796182 0.00046405 0.00057013
v -0.00779434 0.00031901 0.00036908
v -0.00802174 0.00003846 0.00013042
v -0.00813083 -0.00007468 0.00000893
v -0.00744019 -0.00007468 -0.01253710
v -0.00775977 0.00006970 -0.01281192
v -0.00778973 0.00031835 -0.01308673
v -0.00766451 0.00051207 -0.01324439
v -0.00732726 0.00081103 -0.01334564
v -0.00732726 0.00111789 -0.01351342
v -0.00689474 0.00188026 -0.01368988
v -0.00689474 0.00209667 -0.01372604
v -0.00689474 0.00241570 -0.01374050
v -0.00646146 0.00284852 -0.01374629
v -0.00648681 0.00244694 -0.01372893
v -0.00622868 0.00261205 -0.01371881
v -0.00583996 0.00310045 -0.01371157
v -0.00558798 0.00328496 -0.01366963
v -0.00645839 0.00328496 0.00102863
v -0.00646146 0.00328134 0.00103008
v -0.00689474 0.00241570 0.00101995
v -0.00819229 0.00111789 0.00082035
v -0.00819229 0.00068506 0.00068150
v -0.00719589 0.00241570 0.00100838
v -0.00741253 0.00241570 0.00098235
v -0.00775977 0.00198287 0.00093317
v -0.00819229 0.00155038 0.00084494
v -0.00819229 0.00046438 0.00056868
v -0.00845810 0.00002991 0.00013910
v -0.00831060 0.00002991 0.00013910
v -0.00821841 -0.00007468 0.00001471
v -0.00775977 -0.00007468 -0.01265281
v -0.00802020 0.00003846 -0.01284663
v -0.00795337 0.00046175 -0.01328778
v -0.00784121 -0.00007468 -0.01267451
v -0.00778973 0.00066796 -0.01337746
v -0.00775977 0.00111789 -0.01357561
v -0.00732726 0.00155038 -0.01365950
v -0.00718283 0.00209305 -0.01372315
v -0.00719896 0.00241570 -0.01372604
v -0.00689474 0.00284852 -0.01373761
v -0.00646453 0.00328496 -0.01374484
v -0.00646146 0.00328496 -0.01374484
v -0.00600359 0.00328496 -0.01373761
v -0.00600206 0.00325931 -0.01373761
v -0.00614495 0.00284852 -0.01372893
v -0.00562716 0.00328496 -0.01367975
v -0.00595135 0.00328496 -0.01373472
v -0.00646146 0.00328496 0.00102863
v -0.00668117 0.00328496 0.00101995
v -0.00689474 0.00284852 0.00102140
v -0.00862480 0.00111789 0.00070464
v -0.00889138 0.00083010 0.00058748
v -0.00858332 0.00068539 0.00061641
v -0.00841200 0.00046767 0.00056579
v -0.00712905 0.00314913 0.00100115
v -0.00715748 0.00284852 0.00100404
v -0.00737412 0.00284852 0.00097656
v -0.00775977 0.00241570 0.00092160
v -0.00819229 0.00198287 0.00083337
v -0.00862480 0.00155038 0.00070898
v -0.00874618 0.00004734 0.00011885
v -0.00857179 -0.00007468 0.00000025
v -0.00830906 0.00003024 -0.01285531
v -0.00813083 -0.00007468 -0.01272369
v -0.00821610 -0.00007468 -0.01272947
v -0.00819229 0.00046142 -0.01328778
v -0.00819229 0.00068506 -0.01340205
v -0.00819229 0.00111789 -0.01353801
v -0.00775977 0.00155038 -0.01364504
v -0.00732726 0.00196248 -0.01370434
v -0.00741560 0.00241570 -0.01369856
v -0.00712905 0.00314518 -0.01371736
v -0.00691702 0.00328496 -0.01372459
v -0.00710370 0.00328496 0.00099971
v -0.00891673 0.00111789 0.00060050
v -0.00913337 0.00111789 0.00049925
v -0.00972414 0.00085083 0.00014633
v -0.00950904 0.00069789 0.00023890
v -0.00904426 0.00068539 0.00047611
v -0.00870009 0.00054167 0.00054120
v -0.00905732 0.00031045 0.00026783
v -0.00729038 0.00328496 0.00097656
v -0.00753545 0.00328496 0.00093462
v -0.00775977 0.00328496 0.00089556
v -0.00819229 0.00328496 0.00078998
v -0.00861328 0.00328134 0.00064968
v -0.00862480 0.00241570 0.00067716
v -0.00890828 0.00155038 0.00059761
v -0.00905732 0.00009404 0.00007112
v -0.00905732 -0.00007468 -0.00012559
v -0.00902044 -0.00007468 -0.00011402
v -0.00864247 -0.00007468 -0.00000988
v -0.00845349 0.00003024 -0.01285531
v -0.00825989 -0.00007468 -0.01272947
v -0.00841968 0.00046569 -0.01328344
v -0.00858793 0.00068145 -0.01333840
v -0.00819229 0.00155038 -0.01355970
v -0.00889676 0.00082320 -0.01330658
v -0.00862480 0.00111789 -0.01342663
v -0.00775977 0.00198287 -0.01364649
v -0.00775977 0.00284852 -0.01362624
v -0.00775977 0.00328496 -0.01361467
v -0.00737489 0.00284852 -0.01369277
v -0.00729499 0.00328496 -0.01369133
v -0.00912415 0.00155038 0.00049057
v -0.00949060 0.00111789 0.00029531
v -0.00966576 0.00056239 0.00010728
v -0.00972414 0.00111789 0.00014633
v -0.00994079 0.00111789 -0.00003447
v -0.01018892 0.00111789 -0.00024998
v -0.01017202 0.00068506 -0.00026734
v -0.01014437 0.00046175 -0.00029482
v -0.00937767 0.00039038 0.00019406
v -0.00861251 0.00328496 0.00064968
v -0.00882915 0.00328134 0.00056145
v -0.00884068 0.00305934 0.00056579
v -0.00888831 0.00198287 0.00058893
v -0.00969879 0.00004010 -0.00030494
v -0.00940994 -0.00002699 -0.00022394
v -0.00944604 -0.00007468 -0.00029771
v -0.00856565 -0.00007468 -0.01271935
v -0.00874234 0.00004899 -0.01283506
v -0.00905732 0.00031078 -0.01298404
v -0.00870854 0.00053476 -0.01325596
v -0.00862480 0.00155038 -0.01342519
v -0.00819229 0.00284852 -0.01352210
v -0.00892134 0.00111789 -0.01331960
v -0.00904733 0.00068145 -0.01319087
v -0.00951134 0.00069296 -0.01295511
v -0.00972568 0.00084260 -0.01286399
v -0.00913798 0.00111789 -0.01321402
v -0.00819229 0.00328496 -0.01350908
v -0.00910495 0.00198287 0.00048045
v -0.00947140 0.00198287 0.00026349
v -0.00953055 0.00155696 0.00024903
v -0.00992312 0.00035847 -0.00020659
v -0.00971262 0.00141718 0.00013765
v -0.00970187 0.00170529 0.00012898
v -0.00988317 0.00155696 -0.00001711
v -0.00992312 0.00198287 -0.00008364
v -0.01017126 0.00155038 -0.00026734
v -0.01040480 0.00111789 -0.00050021
v -0.01058610 0.00081794 -0.00071427
v -0.01041863 0.00067816 -0.00054938
v -0.01056075 0.00052950 -0.00074754
v -0.01047624 0.00022001 -0.00091532
v -0.01022887 0.00029138 -0.00055228
v -0.01015051 0.00002596 -0.00072006
v -0.00992312 0.00014206 -0.00040185
v -0.00882915 0.00328496 0.00056000
v -0.00905732 0.00328496 0.00043850
v -0.00992312 -0.00006284 -0.00061881
v -0.00992542 -0.00007468 -0.00063472
v -0.00962274 -0.00007468 -0.00039173
v -0.00864094 -0.00007468 -0.01270778
v -0.00905732 0.00009437 -0.01279022
v -0.00905732 -0.00007468 -0.01260798
v -0.00938151 0.00038939 -0.01291172
v -0.00862480 0.00198287 -0.01340928
v -0.00861174 0.00328496 -0.01336589
v -0.00890751 0.00155038 -0.01331382
v -0.00966960 0.00055384 -0.01282638
v -0.00972568 0.00111789 -0.01286399
v -0.00949060 0.00111789 -0.01301152
v -0.00989162 0.00069296 -0.01268897
v -0.01017279 0.00068506 -0.01245032
v -0.01018969 0.00111789 -0.01246623
v -0.00994232 0.00111789 -0.01268319
v -0.00912415 0.00155038 -0.01320678
v -0.00940917 0.00328496 0.00022733
v -0.00962581 0.00328496 0.00006967
v -0.00989469 0.00284852 -0.00012993
v -0.01015282 0.00198287 -0.00028614
v -0.01014206 0.00222658 -0.00029771
v -0.01041863 0.00152374 -0.00055806
v -0.01058457 0.00111789 -0.00071717
v -0.01074052 0.00111789 -0.00094859
v -0.01094487 0.00111789 -0.00127837
v -0.01093334 0.00068506 -0.00129283
v -0.01069596 0.00067816 -0.00091532
v -0.01102323 0.00043445 -0.00156186
v -0.01065371 0.00034302 -0.00103682
v -0.01055691 0.00005458 -0.00118869
v -0.01024424 -0.00007336 -0.00094859
v -0.01024270 -0.00007468 -0.00094859
v -0.00921865 -0.00007468 -0.01253999
v -0.00941224 -0.00003751 -0.01249805
v -0.00970033 0.00003945 -0.01241271
v -0.00992312 0.00035814 -0.01251107
v -0.00885220 0.00275709 -0.01328778
v -0.00882838 0.00328134 -0.01327621
v -0.00882762 0.00328496 -0.01327621
v -0.01014437 0.00046175 -0.01242139
v -0.00970187 0.00170956 -0.01284518
v -0.00945449 0.00241570 -0.01296813
v -0.00947370 0.00198287 -0.01297970
v -0.00953055 0.00155959 -0.01296523
v -0.01041632 0.00068243 -0.01216972
v -0.01058917 0.00082517 -0.01200628
v -0.01040557 0.00111789 -0.01222034
v -0.01014283 0.00223217 -0.01241994
v -0.00992312 0.00198287 -0.01263401
v -0.00967114 0.00241570 -0.01282204
v -0.00969034 0.00198287 -0.01283651
v -0.00905732 0.00328134 -0.01315616
v -0.00987318 0.00328496 -0.00014729
v -0.01012823 0.00251535 -0.00031217
v -0.01034411 0.00198287 -0.00051612
v -0.01056305 0.00164971 -0.00074609
v -0.01057458 0.00136127 -0.00073018
v -0.01068751 0.00198287 -0.00098475
v -0.01062682 0.00328496 -0.00107876
v -0.01078738 0.00328496 -0.00138106
v -0.01105626 0.00111789 -0.00149533
v -0.01104935 0.00068506 -0.00150979
v -0.01064218 -0.00005297 -0.00147652
v -0.01079276 0.00024468 -0.00137527
v -0.01117918 0.00068506 -0.00181498
v -0.01135587 0.00070973 -0.00228072
v -0.01141733 0.00058212 -0.00253818
v -0.01145651 0.00043017 -0.00282601
v -0.01107162 0.00034170 -0.00181498
v -0.01099941 0.00004504 -0.00204640
v -0.01094487 0.00012529 -0.00181498
v -0.01048162 -0.00007468 -0.00125378
v -0.00936538 -0.00007468 -0.01247635
v -0.00944143 -0.00007468 -0.01243875
v -0.00962888 -0.00007468 -0.01232882
v -0.00992465 -0.00007468 -0.01208727
v -0.00992312 -0.00006744 -0.01209740
v -0.01014975 0.00002695 -0.01199470
v -0.00992312 0.00014173 -0.01231291
v -0.00906039 0.00328496 -0.01315327
v -0.01022503 0.00029138 -0.01216249
v -0.01047010 0.00022165 -0.01179655
v -0.01065678 0.00034565 -0.01167216
v -0.01055537 0.00053640 -0.01196144
v -0.00943375 0.00284852 -0.01295656
v -0.01069980 0.00068243 -0.01179655
v -0.01093565 0.00068506 -0.01141325
v -0.01094487 0.00111789 -0.01143350
v -0.01074436 0.00111789 -0.01176762
v -0.01058841 0.00111789 -0.01200483
v -0.01027881 0.00239235 -0.01223625
v -0.01012823 0.00252094 -0.01240403
v -0.00987395 0.00328134 -0.01257182
v -0.00995999 0.00239235 -0.01256892
v -0.01057688 0.00138297 -0.01198892
v -0.00965039 0.00284852 -0.01280468
v -0.00941224 0.00328134 -0.01294499
v -0.00941378 0.00328496 -0.01294354
v -0.01008906 0.00328496 -0.00035412
v -0.01008982 0.00328134 -0.00035412
v -0.01011133 0.00284852 -0.00032953
v -0.01026959 0.00328496 -0.00057108
v -0.01028956 0.00284852 -0.00054649
v -0.01027727 0.00238873 -0.00047996
v -0.01048469 0.00328496 -0.00085891
v -0.01094948 0.00328496 -0.00173543
v -0.01099096 0.00241570 -0.00163129
v -0.01101785 0.00188750 -0.00157198
v -0.01103475 0.00155038 -0.00153727
v -0.01119761 0.00111789 -0.00181498
v -0.01065447 -0.00007468 -0.00153149
v -0.01061068 -0.00007468 -0.00145772
v -0.01080198 -0.00007468 -0.00181643
v -0.01144268 0.00087089 -0.00244705
v -0.01147802 0.00070973 -0.00268137
v -0.01157789 0.00068506 -0.00311239
v -0.01166240 0.00068506 -0.00354487
v -0.01148878 0.00036965 -0.00311239
v -0.01137124 0.00015324 -0.00311239
v -0.01133129 0.00027230 -0.00268137
v -0.01114998 0.00021442 -0.00221274
v -0.01105088 -0.00003423 -0.00233423
v -0.01101093 -0.00007468 -0.00230097
v -0.01095024 -0.00007468 -0.00213608
v -0.01009136 -0.00007468 -0.01193396
v -0.01024117 -0.00007271 -0.01176762
v -0.01055384 0.00005721 -0.01152463
v -0.01079429 0.00025125 -0.01133370
v -0.01101708 0.00044530 -0.01114422
v -0.01104320 0.00068506 -0.01119774
v -0.01105242 0.00111789 -0.01121654
v -0.01103321 0.00155038 -0.01117604
v -0.01092412 0.00155038 -0.01139300
v -0.01062682 0.00328134 -0.01163889
v -0.01064756 0.00284852 -0.01167071
v -0.01066753 0.00241570 -0.01170253
v -0.01056382 0.00167108 -0.01197156
v -0.01008982 0.00328496 -0.01236064
v -0.01011210 0.00284852 -0.01238523
v -0.01028880 0.00284852 -0.01216972
v -0.00987549 0.00328496 -0.01256892
v -0.00962888 0.00328496 -0.01278733
v -0.01103629 0.00328496 -0.00195239
v -0.01105933 0.00284852 -0.00189887
v -0.01115536 0.00155038 -0.00181498
v -0.01131746 0.00155038 -0.00224745
v -0.01137200 0.00110572 -0.00228072
v -0.01144268 0.00095311 -0.00244705
v -0.01159479 0.00111789 -0.00311239
v -0.01168006 0.00111789 -0.00354487
v -0.01152949 0.00029598 -0.00354487
v -0.01174690 0.00111789 -0.00397879
v -0.01172616 0.00068506 -0.00397879
v -0.01122911 -0.00007468 -0.00309504
v -0.01113001 -0.00007468 -0.00267992
v -0.01141195 0.00007957 -0.00354487
v -0.01107623 -0.00007468 -0.00249912
v -0.01023886 -0.00007468 -0.01176762
v -0.01024347 -0.00007468 -0.01176183
v -0.01047932 -0.00007468 -0.01145954
v -0.01063604 -0.00007468 -0.01122233
v -0.01064372 -0.00005593 -0.01123535
v -0.01094487 0.00013483 -0.01090123
v -0.01107393 0.00035124 -0.01090123
v -0.01141656 0.00059067 -0.01017514
v -0.01136048 0.00071499 -0.01043260
v -0.01117841 0.00068506 -0.01090123
v -0.01119454 0.00111789 -0.01090123
v -0.01101708 0.00189013 -0.01114278
v -0.01086958 0.00241570 -0.01133370
v -0.01078354 0.00328134 -0.01133370
v -0.01062759 0.00328496 -0.01163600
v -0.01048239 0.00328496 -0.01185440
v -0.01050544 0.00284852 -0.01188767
v -0.01052772 0.00241570 -0.01191949
v -0.01026652 0.00328496 -0.01214368
v -0.01113923 0.00328496 -0.00224456
v -0.01114077 0.00328134 -0.00224745
v -0.01122988 0.00241570 -0.00224745
v -0.01142885 0.00124188 -0.00249912
v -0.01148417 0.00110572 -0.00265823
v -0.01146957 0.00155038 -0.00277394
v -0.01145190 0.00188980 -0.00284192
v -0.01155023 0.00155038 -0.00311239
v -0.01143730 0.00305605 -0.00333514
v -0.01163474 0.00155038 -0.00354487
v -0.01177763 0.00068506 -0.00441126
v -0.01161092 0.00025224 -0.00441126
v -0.01154102 0.00021343 -0.00396577
v -0.01143346 0.00004339 -0.00381390
v -0.01170158 0.00155038 -0.00397879
v -0.01175612 0.00155038 -0.00441126
v -0.01180068 0.00111789 -0.00441126
v -0.01187212 0.00089391 -0.00504189
v -0.01131515 -0.00007468 -0.00354487
v -0.01065371 -0.00007468 -0.01118906
v -0.01079967 -0.00007468 -0.01089978
v -0.01085575 -0.00007468 -0.01078407
v -0.01099787 0.00004701 -0.01066547
v -0.01115383 0.00021540 -0.01050058
v -0.01145574 0.00043182 -0.00988586
v -0.01157943 0.00068506 -0.00960381
v -0.01147802 0.00071499 -0.01003339
v -0.01144191 0.00087911 -0.01026482
v -0.01144191 0.00093996 -0.01026482
v -0.01137200 0.00109749 -0.01043260
v -0.01131592 0.00155038 -0.01046876
v -0.01115306 0.00155038 -0.01090123
v -0.01100325 0.00217857 -0.01111385
v -0.01099096 0.00241570 -0.01108348
v -0.01094487 0.00328496 -0.01096776
v -0.01078431 0.00328496 -0.01133081
v -0.01126445 0.00328496 -0.00267992
v -0.01141349 0.00155038 -0.00255843
v -0.01136432 0.00328134 -0.00311239
v -0.01142501 0.00328496 -0.00340457
v -0.01158865 0.00198287 -0.00354487
v -0.01182757 0.00072354 -0.00487700
v -0.01183679 0.00064395 -0.00527620
v -0.01165087 0.00025224 -0.00484373
v -0.01146266 -0.00000166 -0.00441126
v -0.01139351 -0.00007468 -0.00418417
v -0.01136663 -0.00007468 -0.00390936
v -0.01151259 0.00328496 -0.00397879
v -0.01146112 0.00328496 -0.00362153
v -0.01179376 0.00155038 -0.00484373
v -0.01156637 0.00328496 -0.00441126
v -0.01184447 0.00108269 -0.00487700
v -0.01187212 0.00091529 -0.00504189
v -0.01188749 0.00081070 -0.00571012
v -0.01187750 0.00086036 -0.00527620
v -0.01094794 -0.00007468 -0.01057579
v -0.01100940 -0.00007468 -0.01041235
v -0.01105011 -0.00003357 -0.01037763
v -0.01133052 0.00027362 -0.01003339
v -0.01137124 0.00015390 -0.00960381
v -0.01148801 0.00037031 -0.00960381
v -0.01166240 0.00068506 -0.00916990
v -0.01159786 0.00111789 -0.00960381
v -0.01168237 0.00111789 -0.00916990
v -0.01148570 0.00109749 -0.01005798
v -0.01142808 0.00122839 -0.01021708
v -0.01127290 0.00198287 -0.01046876
v -0.01108084 0.00241570 -0.01086652
v -0.01109083 0.00201379 -0.01094173
v -0.01105703 0.00284852 -0.01081011
v -0.01103321 0.00328496 -0.01074936
v -0.01136355 0.00328496 -0.00311239
v -0.01184524 0.00059429 -0.00571012
v -0.01148109 -0.00002929 -0.00484373
v -0.01167546 0.00025224 -0.00527620
v -0.01141502 -0.00007468 -0.00441126
v -0.01160171 0.00328134 -0.00484373
v -0.01181758 0.00155038 -0.00527620
v -0.01185676 0.00119189 -0.00527620
v -0.01160094 0.00328496 -0.00484084
v -0.01187750 0.00097548 -0.00527620
v -0.01189594 0.00111789 -0.00614259
v -0.01189287 0.00078340 -0.00614259
v -0.01103859 -0.00007468 -0.01032990
v -0.01107547 -0.00007468 -0.01021275
v -0.01112847 -0.00007468 -0.01003629
v -0.01114614 -0.00007468 -0.00996541
v -0.01122911 -0.00007468 -0.00962117
v -0.01141118 0.00008056 -0.00916990
v -0.01152949 0.00029697 -0.00916990
v -0.01172616 0.00068506 -0.00873742
v -0.01143884 0.00307282 -0.00939119
v -0.01155331 0.00155038 -0.00960381
v -0.01143807 0.00220257 -0.00982077
v -0.01144960 0.00198287 -0.00986272
v -0.01147264 0.00155038 -0.00994372
v -0.01174613 0.00111789 -0.00873742
v -0.01170234 0.00155038 -0.00873742
v -0.01163781 0.00155038 -0.00916990
v -0.01139121 0.00198287 -0.01007968
v -0.01126983 0.00328134 -0.01003629
v -0.01122911 0.00241570 -0.01046876
v -0.01118379 0.00284852 -0.01046876
v -0.01113692 0.00328496 -0.01046876
v -0.01184984 0.00056699 -0.00614259
v -0.01145113 -0.00007468 -0.00484373
v -0.01144268 -0.00007468 -0.00473959
v -0.01149262 -0.00004442 -0.00527620
v -0.01169005 0.00025224 -0.00571012
v -0.01162014 0.00328134 -0.00527620
v -0.01187136 0.00133956 -0.00591117
v -0.01186521 0.00127477 -0.00562189
v -0.01163781 0.00328496 -0.00570578
v -0.01188442 0.00112545 -0.00574339
v -0.01187289 0.00135633 -0.00614259
v -0.01187289 0.00135370 -0.00657362
v -0.01189517 0.00111789 -0.00657362
v -0.01189287 0.00078242 -0.00657362
v -0.01185061 0.00056600 -0.00657362
v -0.01126983 -0.00007468 -0.00941000
v -0.01131439 -0.00007468 -0.00916990
v -0.01143193 0.00004570 -0.00888929
v -0.01154178 0.00021508 -0.00874176
v -0.01161400 0.00025224 -0.00830495
v -0.01177994 0.00068506 -0.00830495
v -0.01144729 0.00328496 -0.00921329
v -0.01139812 0.00328496 -0.00947075
v -0.01137892 0.00328496 -0.00956621
v -0.01138430 0.00324286 -0.00956187
v -0.01146650 0.00237426 -0.00960526
v -0.01150798 0.00198287 -0.00960381
v -0.01131439 0.00284852 -0.01003629
v -0.01179760 0.00111789 -0.00830495
v -0.01151797 0.00328496 -0.00873453
v -0.01151797 0.00328134 -0.00873742
v -0.01145881 0.00328496 -0.00914531
v -0.01175382 0.00155038 -0.00830495
v -0.01126906 0.00328496 -0.01003629
v -0.01170004 0.00025224 -0.00614259
v -0.01146880 -0.00007468 -0.00521111
v -0.01147187 -0.00007468 -0.00527620
v -0.01149876 -0.00005429 -0.00571012
v -0.01148493 -0.00007468 -0.00571012
v -0.01150414 -0.00006218 -0.00614259
v -0.01165625 0.00328496 -0.00614259
v -0.01165625 0.00328496 -0.00657362
v -0.01187059 0.00133594 -0.00679492
v -0.01188288 0.00111328 -0.00696559
v -0.01187750 0.00096627 -0.00733876
v -0.01188595 0.00081004 -0.00700609
v -0.01184831 0.00059396 -0.00700609
v -0.01167776 0.00025224 -0.00743856
v -0.01169159 0.00025224 -0.00700609
v -0.01169927 0.00025224 -0.00657362
v -0.01133359 -0.00007468 -0.00903972
v -0.01136509 -0.00007468 -0.00879673
v -0.01146189 -0.00000101 -0.00830495
v -0.01165318 0.00025224 -0.00787248
v -0.01181835 0.00068506 -0.00787248
v -0.01187750 0.00085510 -0.00733876
v -0.01183294 0.00111789 -0.00787248
v -0.01156867 0.00328134 -0.00830495
v -0.01156790 0.00328496 -0.00830495
v -0.01178762 0.00155038 -0.00787248
v -0.01149569 -0.00007468 -0.00614259
v -0.01150337 -0.00006087 -0.00657362
v -0.01149415 -0.00007468 -0.00657362
v -0.01160094 0.00328496 -0.00787248
v -0.01160171 0.00328134 -0.00787248
v -0.01162014 0.00328134 -0.00743856
v -0.01186290 0.00125471 -0.00708275
v -0.01184600 0.00070052 -0.00746604
v -0.01148109 -0.00002863 -0.00787248
v -0.01149108 -0.00004311 -0.00743856
v -0.01149799 -0.00005199 -0.00700609
v -0.01141426 -0.00007468 -0.00830495
v -0.01148340 -0.00007468 -0.00696270
v -0.01145036 -0.00007468 -0.00787248
v -0.01146957 -0.00007468 -0.00743856
f 1 2 9
f 1 9 29
f 1 29 10
f 1 10 3
f 1 3 4
f 1 4 5
f 1 5 6
f 1 6 7
f 1 7 8
f 1 8 2
f 2 8 9
f 3 10 35
f 3 35 67
f 3 67 100
f 3 100 99
f 3 99 101
f 3 101 130
f 3 130 160
f 3 160 189
f 3 189 190
f 3 190 186
f 3 186 185
f 3 185 184
f 3 184 216
f 3 216 247
f 3 247 245
f 3 245 275
f 3 275 303
f 3 303 335
f 3 335 376
f 3 376 394
f 3 394 438
f 3 438 437
f 3 437 434
f 3 434 472
f 3 472 469
f 3 469 468
f 3 468 508
f 3 508 507
f 3 507 543
f 3 543 576
f 3 576 610
f 3 610 600
f 3 600 599
f 3 599 598
f 3 598 608
f 3 608 606
f 3 606 635
f 3 635 640
f 3 640 618
f 3 618 617
f 3 617 585
f 3 585 552
f 3 552 523
f 3 523 520
f 3 520 521
f 3 521 512
f 3 512 544
f 3 544 509
f 3 509 473
f 3 473 439
f 3 439 402
f 3 402 356
f 3 356 355
f 3 355 401
f 3 401 398
f 3 398 395
f 3 395 349
f 3 349 314
f 3 314 313
f 3 313 294
f 3 294 293
f 3 293 257
f 3 257 228
f 3 228 227
f 3 227 226
f 3 226 225
f 3 225 217
f 3 217 192
f 3 192 191
f 3 191 161
f 3 161 133
f 3 133 102
f 3 102 69
f 3 69 37
f 3 37 16
f 3 16 15
f 3 15 14
f 3 14 13
f 3 13 36
f 3 36 11
f 3 11 4
f 4 11 5
f 5 12 13
f 5 13 14
f 5 14 15
f 5 15 16
f 5 16 17
f 5 17 18
f 5 18 19
f 5 19 6
f 5 11 12
f 6 19 20
f 6 20 7
f 7 20 21
f 7 21 9
f 7 9 8
f 9 21 22
f 9 22 23
f 9 23 24
f 9 24 25
f 9 25 26
f 9 26 27
f 9 27 28
f 9 28 52
f 9 52 51
f 9 51 81
f 9 81 80
f 9 80 112
f 9 112 116
f 9 116 115
f 9 115 146
f 9 146 173
f 9 173 205
f 9 205 235
f 9 235 234
f 9 234 233
f 9 233 263
f 9 263 297
f 9 297 296
f 9 296 328
f 9 328 368
f 9 368 408
f 9 408 407
f 9 407 409
f 9 409 420
f 9 420 419
f 9 419 453
f 9 453 451
f 9 451 450
f 9 450 491
f 9 491 519
f 9 519 518
f 9 518 548
f 9 548 579
f 9 579 578
f 9 578 612
f 9 612 613
f 9 613 615
f 9 615 637
f 9 637 639
f 9 639 649
f 9 649 651
f 9 651 650
f 9 650 648
f 9 648 628
f 9 628 627
f 9 627 593
f 9 593 592
f 9 592 560
f 9 560 559
f 9 559 558
f 9 558 557
f 9 557 556
f 9 556 529
f 9 529 528
f 9 528 494
f 9 494 493
f 9 493 492
f 9 492 457
f 9 457 456
f 9 456 455
f 9 455 454
f 9 454 421
f 9 421 372
f 9 372 371
f 9 371 370
f 9 370 369
f 9 369 329
f 9 329 300
f 9 300 298
f 9 298 264
f 9 264 237
f 9 237 208
f 9 208 207
f 9 207 177
f 9 177 174
f 9 174 147
f 9 147 118
f 9 118 117
f 9 117 85
f 9 85 53
f 9 53 29
f 10 29 30
f 10 30 31
f 10 31 32
f 10 32 33
f 10 33 34
f 10 34 35
f 11 36 12
f 12 36 13
f 16 37 17
f 17 37 18
f 18 38 19
f 18 37 39
f 18 39 40
f 18 40 41
f 18 41 42
f 18 42 38
f 19 38 43
f 19 43 44
f 19 44 20
f 20 44 22
f 20 22 21
f 22 44 23
f 23 44 45
f 23 45 46
f 23 46 47
f 23 47 24
f 24 47 25
f 25 47 48
f 25 48 26
f 26 48 49
f 26 49 50
f 26 50 51
f 26 51 27
f 27 51 52
f 27 52 28
f 29 53 54
f 29 54 55
f 29 55 56
f 29 56 57
f 29 57 58
f 29 58 59
f 29 59 60
f 29 60 61
f 29 61 30
f 30 61 32
f 30 32 31
f 32 61 62
f 32 62 33
f 33 62 63
f 33 63 64
f 33 64 65
f 33 65 34
f 34 66 67
f 34 67 35
f 34 65 68
f 34 68 66
f 37 40 39
f 37 69 70
f 37 70 71
f 37 71 40
f 38 72 43
f 38 42 73
f 38 73 72
f 40 71 74
f 40 74 41
f 41 74 75
f 41 75 42
f 42 75 73
f 43 72 76
f 43 76 77
f 43 77 45
f 43 45 44
f 45 77 46
f 46 48 47
f 46 77 76
f 46 76 78
f 46 78 48
f 48 78 79
f 48 79 49
f 49 79 50
f 50 80 81
f 50 81 51
f 50 79 82
f 50 82 83
f 50 83 84
f 50 84 80
f 53 85 54
f 54 85 55
f 55 85 86
f 55 86 87
f 55 87 88
f 55 88 56
f 56 88 89
f 56 89 90
f 56 90 57
f 57 90 58
f 58 90 89
f 58 89 91
f 58 91 59
f 59 91 92
f 59 92 93
f 59 93 94
f 59 94 60
f 60 94 61
f 61 94 62
f 62 94 93
f 62 93 63
f 63 92 95
f 63 95 64
f 63 93 92
f 64 95 96
f 64 96 97
f 64 97 98
f 64 98 65
f 65 98 68
f 66 99 100
f 66 100 67
f 66 68 101
f 66 101 99
f 68 98 101
f 69 102 103
f 69 103 70
f 70 103 71
f 71 104 75
f 71 75 74
f 71 103 105
f 71 105 104
f 72 73 106
f 72 106 76
f 73 75 107
f 73 107 108
f 73 108 106
f 75 104 109
f 75 109 107
f 76 110 79
f 76 79 78
f 76 106 111
f 76 111 110
f 79 110 82
f 80 84 112
f 82 110 113
f 82 113 83
f 83 113 114
f 83 114 84
f 84 114 115
f 84 115 116
f 84 116 112
f 85 117 86
f 86 117 118
f 86 118 119
f 86 119 120
f 86 120 121
f 86 121 87
f 87 121 122
f 87 122 123
f 87 123 88
f 88 123 124
f 88 124 89
f 89 124 91
f 91 124 92
f 92 124 123
f 92 123 125
f 92 125 126
f 92 126 95
f 95 126 96
f 96 127 128
f 96 128 97
f 96 126 127
f 97 128 129
f 97 129 98
f 98 130 131
f 98 131 101
f 98 129 132
f 98 132 130
f 101 131 130
f 102 133 103
f 103 133 105
f 104 105 134
f 104 134 109
f 105 133 135
f 105 135 136
f 105 136 134
f 106 108 137
f 106 137 138
f 106 138 111
f 107 109 139
f 107 139 108
f 108 139 140
f 108 140 141
f 108 141 142
f 108 142 137
f 109 134 139
f 110 111 113
f 111 138 143
f 111 143 113
f 113 143 144
f 113 144 114
f 114 144 143
f 114 143 145
f 114 145 115
f 115 145 146
f 118 147 119
f 119 147 148
f 119 148 149
f 119 149 150
f 119 150 120
f 120 150 121
f 121 150 122
f 122 150 151
f 122 151 123
f 123 151 152
f 123 152 125
f 125 152 126
f 126 152 153
f 126 153 127
f 127 154 155
f 127 155 156
f 127 156 157
f 127 157 158
f 127 158 128
f 127 153 154
f 128 158 129
f 129 158 159
f 129 159 132
f 130 132 160
f 132 159 160
f 133 161 162
f 133 162 136
f 133 136 135
f 134 136 139
f 136 162 193
f 136 193 163
f 136 163 139
f 137 164 165
f 137 165 138
f 137 142 164
f 138 165 143
f 139 163 140
f 140 163 166
f 140 166 167
f 140 167 141
f 141 167 142
f 142 167 168
f 142 168 169
f 142 169 164
f 143 170 171
f 143 171 172
f 143 172 145
f 143 165 170
f 145 172 173
f 145 173 146
f 147 174 148
f 148 175 176
f 148 176 149
f 148 174 177
f 148 177 175
f 149 176 150
f 150 176 178
f 150 178 151
f 151 178 152
f 152 179 180
f 152 180 153
f 152 178 179
f 153 180 154
f 154 180 181
f 154 181 155
f 155 182 183
f 155 183 184
f 155 184 156
f 155 181 182
f 156 184 185
f 156 185 186
f 156 186 187
f 156 187 188
f 156 188 157
f 157 188 158
f 158 188 159
f 159 189 160
f 159 188 190
f 159 190 189
f 161 191 162
f 162 191 192
f 162 192 193
f 163 193 166
f 164 169 194
f 164 194 195
f 164 195 196
f 164 196 165
f 165 196 197
f 165 197 170
f 166 193 198
f 166 198 199
f 166 199 167
f 167 200 201
f 167 201 168
f 167 199 198
f 167 198 200
f 168 201 169
f 169 201 202
f 169 202 203
f 169 203 194
f 170 197 171
f 171 204 205
f 171 205 173
f 171 173 172
f 171 197 204
f 175 206 176
f 175 177 207
f 175 207 208
f 175 208 206
f 176 206 209
f 176 209 210
f 176 210 178
f 178 210 179
f 179 210 211
f 179 211 212
f 179 212 180
f 180 212 213
f 180 213 181
f 181 213 182
f 182 214 215
f 182 215 183
f 182 213 212
f 182 212 214
f 183 215 216
f 183 216 184
f 186 190 187
f 187 190 188
f 192 217 193
f 193 217 198
f 194 203 218
f 194 218 195
f 195 219 220
f 195 220 221
f 195 221 222
f 195 222 223
f 195 223 196
f 195 218 219
f 196 223 197
f 197 223 224
f 197 224 204
f 198 217 225
f 198 225 200
f 200 225 226
f 200 226 227
f 200 227 201
f 201 227 202
f 202 227 228
f 202 228 203
f 203 228 229
f 203 229 230
f 203 230 231
f 203 231 218
f 204 224 232
f 204 232 233
f 204 233 234
f 204 234 235
f 204 235 205
f 206 236 209
f 206 208 237
f 206 237 236
f 209 236 238
f 209 238 210
f 210 238 239
f 210 239 211
f 211 240 212
f 211 239 241
f 211 241 242
f 211 242 240
f 212 243 214
f 212 240 243
f 214 243 244
f 214 244 245
f 214 245 246
f 214 246 215
f 215 246 247
f 215 247 216
f 218 231 219
f 219 231 248
f 219 248 249
f 219 249 220
f 220 250 221
f 220 249 251
f 220 251 252
f 220 252 253
f 220 253 254
f 220 254 255
f 220 255 250
f 221 250 256
f 221 256 222
f 222 256 223
f 223 256 224
f 224 256 232
f 228 257 229
f 229 231 230
f 229 257 258
f 229 258 259
f 229 259 260
f 229 260 231
f 231 260 248
f 232 256 261
f 232 261 262
f 232 262 233
f 233 262 263
f 236 237 264
f 236 264 265
f 236 265 238
f 238 265 266
f 238 266 267
f 238 267 239
f 239 267 241
f 240 242 268
f 240 268 269
f 240 269 245
f 240 245 244
f 240 244 243
f 241 270 242
f 241 267 271
f 241 271 272
f 241 272 273
f 241 273 274
f 241 274 270
f 242 270 268
f 245 247 246
f 245 269 275
f 248 260 259
f 248 259 258
f 248 258 276
f 248 276 249
f 249 276 277
f 249 277 278
f 249 278 251
f 250 255 279
f 250 279 256
f 251 278 280
f 251 280 252
f 252 280 281
f 252 281 282
f 252 282 253
f 253 282 283
f 253 283 284
f 253 284 285
f 253 285 286
f 253 286 254
f 254 286 287
f 254 287 288
f 254 288 255
f 255 288 289
f 255 289 290
f 255 290 291
f 255 291 292
f 255 292 261
f 255 261 279
f 256 279 261
f 257 293 258
f 258 293 294
f 258 294 276
f 261 292 291
f 261 291 295
f 261 295 296
f 261 296 297
f 261 297 262
f 262 297 263
f 264 298 265
f 265 299 266
f 265 298 300
f 265 300 299
f 266 299 301
f 266 301 267
f 267 301 271
f 268 302 303
f 268 303 275
f 268 275 269
f 268 270 304
f 268 304 302
f 270 274 304
f 271 301 305
f 271 305 272
f 272 305 273
f 273 306 307
f 273 307 274
f 273 305 308
f 273 308 309
f 273 309 310
f 273 310 311
f 273 311 306
f 274 307 312
f 274 312 304
f 276 294 277
f 277 313 281
f 277 281 278
f 277 294 313
f 278 281 280
f 281 313 314
f 281 314 283
f 281 283 282
f 283 315 316
f 283 316 284
f 283 314 315
f 284 316 285
f 285 316 317
f 285 317 318
f 285 318 319
f 285 319 286
f 286 288 287
f 286 319 320
f 286 320 321
f 286 321 322
f 286 322 323
f 286 323 288
f 288 323 322
f 288 322 324
f 288 324 325
f 288 325 289
f 289 325 326
f 289 326 291
f 289 291 290
f 291 296 295
f 291 326 327
f 291 327 328
f 291 328 296
f 299 300 329
f 299 329 330
f 299 330 301
f 301 330 331
f 301 331 332
f 301 332 305
f 302 304 303
f 303 304 333
f 303 333 334
f 303 334 335
f 304 312 333
f 305 332 336
f 305 336 308
f 306 311 337
f 306 337 338
f 306 338 339
f 306 339 340
f 306 340 307
f 307 340 339
f 307 339 312
f 308 336 309
f 309 336 341
f 309 341 342
f 309 342 310
f 310 343 344
f 310 344 345
f 310 345 346
f 310 346 311
f 310 342 343
f 311 346 347
f 311 347 337
f 312 339 348
f 312 348 334
f 312 334 333
f 314 349 315
f 315 349 316
f 316 349 317
f 317 349 350
f 317 350 351
f 317 351 318
f 318 351 352
f 318 352 353
f 318 353 319
f 319 353 320
f 320 353 352
f 320 352 354
f 320 354 321
f 321 354 355
f 321 355 356
f 321 356 357
f 321 357 358
f 321 358 322
f 322 358 324
f 324 359 360
f 324 360 325
f 324 358 361
f 324 361 362
f 324 362 363
f 324 363 364
f 324 364 365
f 324 365 366
f 324 366 367
f 324 367 359
f 325 360 326
f 326 368 327
f 326 360 359
f 326 359 368
f 327 368 328
f 329 369 330
f 330 369 370
f 330 370 371
f 330 371 331
f 331 371 372
f 331 372 373
f 331 373 374
f 331 374 375
f 331 375 336
f 331 336 332
f 334 348 335
f 335 348 376
f 336 375 374
f 336 374 377
f 336 377 378
f 336 378 379
f 336 379 380
f 336 380 341
f 337 347 381
f 337 381 338
f 338 381 348
f 338 348 339
f 341 380 342
f 342 380 382
f 342 382 383
f 342 383 384
f 342 384 385
f 342 385 386
f 342 386 343
f 343 386 344
f 344 387 388
f 344 388 389
f 344 389 390
f 344 390 345
f 344 386 391
f 344 391 387
f 345 390 346
f 346 390 389
f 346 389 392
f 346 392 393
f 346 393 347
f 347 393 381
f 348 381 393
f 348 393 394
f 348 394 376
f 349 395 396
f 349 396 397
f 349 397 350
f 350 397 398
f 350 398 399
f 350 399 400
f 350 400 352
f 350 352 351
f 352 400 399
f 352 399 398
f 352 398 401
f 352 401 354
f 354 401 355
f 356 402 403
f 356 403 404
f 356 404 405
f 356 405 357
f 357 405 406
f 357 406 358
f 358 406 361
f 359 407 408
f 359 408 368
f 359 367 409
f 359 409 407
f 361 406 410
f 361 410 362
f 362 410 363
f 363 410 411
f 363 411 412
f 363 412 364
f 364 412 413
f 364 413 414
f 364 414 415
f 364 415 416
f 364 416 417
f 364 417 365
f 365 417 366
f 366 417 418
f 366 418 419
f 366 419 420
f 366 420 409
f 366 409 367
f 372 421 373
f 373 421 374
f 374 421 422
f 374 422 423
f 374 423 378
f 374 378 377
f 378 423 379
f 379 423 424
f 379 424 425
f 379 425 380
f 380 425 383
f 380 383 382
f 383 425 426
f 383 426 384
f 384 426 427
f 384 427 428
f 384 428 429
f 384 429 430
f 384 430 431
f 384 431 432
f 384 432 385
f 385 432 433
f 385 433 391
f 385 391 386
f 387 434 435
f 387 435 388
f 387 391 433
f 387 433 436
f 387 436 434
f 388 435 389
f 389 435 434
f 389 434 437
f 389 437 438
f 389 438 392
f 392 438 393
f 393 438 394
f 395 398 396
f 396 398 397
f 402 439 440
f 402 440 441
f 402 441 403
f 403 441 404
f 404 441 406
f 404 406 405
f 406 441 442
f 406 442 443
f 406 443 444
f 406 444 410
f 410 444 445
f 410 445 412
f 410 412 411
f 412 445 446
f 412 446 413
f 413 447 414
f 413 446 448
f 413 448 449
f 413 449 447
f 414 447 452
f 414 452 415
f 415 450 451
f 415 451 416
f 415 452 450
f 416 451 418
f 416 418 417
f 418 451 453
f 418 453 419
f 421 454 422
f 422 454 455
f 422 455 456
f 422 456 423
f 423 456 457
f 423 457 458
f 423 458 424
f 424 458 459
f 424 459 425
f 425 460 461
f 425 461 462
f 425 462 463
f 425 463 426
f 425 459 460
f 426 463 427
f 427 463 464
f 427 464 428
f 428 464 465
f 428 465 429
f 429 465 466
f 429 466 430
f 430 466 467
f 430 467 508
f 430 508 468
f 430 468 469
f 430 469 470
f 430 470 471
f 430 471 431
f 431 471 433
f 431 433 432
f 433 471 472
f 433 472 436
f 434 436 472
f 439 473 474
f 439 474 475
f 439 475 442
f 439 442 440
f 440 442 441
f 442 475 444
f 442 444 443
f 444 475 474
f 444 474 476
f 444 476 477
f 444 477 445
f 445 477 478
f 445 478 479
f 445 479 480
f 445 480 446
f 446 480 481
f 446 481 482
f 446 482 487
f 446 487 448
f 447 449 483
f 447 483 484
f 447 484 485
f 447 485 486
f 447 486 452
f 448 487 488
f 448 488 489
f 448 489 490
f 448 490 449
f 449 490 483
f 450 452 491
f 452 486 491
f 457 492 458
f 458 492 493
f 458 493 459
f 459 493 494
f 459 494 495
f 459 495 460
f 460 495 496
f 460 496 497
f 460 497 461
f 461 497 498
f 461 498 499
f 461 499 500
f 461 500 462
f 462 500 463
f 463 500 464
f 464 501 502
f 464 502 503
f 464 503 504
f 464 504 505
f 464 505 465
f 464 500 501
f 465 505 466
f 466 505 467
f 467 505 506
f 467 506 507
f 467 507 508
f 469 472 470
f 470 472 471
f 473 509 474
f 474 509 510
f 474 510 476
f 476 510 477
f 477 510 478
f 478 509 479
f 478 510 509
f 479 509 511
f 479 511 480
f 480 511 481
f 481 512 513
f 481 513 482
f 481 511 512
f 482 513 487
f 483 514 515
f 483 515 516
f 483 516 484
f 483 490 514
f 484 516 517
f 484 517 486
f 484 486 485
f 486 517 518
f 486 518 519
f 486 519 491
f 487 520 488
f 487 513 521
f 487 521 520
f 488 522 489
f 488 520 523
f 488 523 522
f 489 522 524
f 489 524 525
f 489 525 490
f 490 525 526
f 490 526 527
f 490 527 515
f 490 515 514
f 494 528 495
f 495 528 529
f 495 529 530
f 495 530 496
f 496 530 531
f 496 531 497
f 497 532 533
f 497 533 534
f 497 534 498
f 497 531 532
f 498 535 500
f 498 500 499
f 498 534 536
f 498 536 535
f 500 535 501
f 501 535 537
f 501 537 538
f 501 538 539
f 501 539 503
f 501 503 502
f 503 539 540
f 503 540 504
f 504 541 505
f 504 540 541
f 505 541 540
f 505 540 506
f 506 540 507
f 507 540 542
f 507 542 543
f 509 544 511
f 511 544 512
f 512 521 513
f 515 527 526
f 515 526 545
f 515 545 516
f 516 546 517
f 516 545 547
f 516 547 546
f 517 546 548
f 517 548 518
f 522 525 524
f 522 523 549
f 522 549 550
f 522 550 551
f 522 551 525
f 523 552 549
f 525 551 553
f 525 553 526
f 526 553 554
f 526 554 555
f 526 555 545
f 529 556 530
f 530 556 557
f 530 557 558
f 530 558 531
f 531 558 532
f 532 558 559
f 532 559 560
f 532 560 561
f 532 561 562
f 532 562 533
f 533 562 534
f 534 562 563
f 534 563 569
f 534 569 536
f 535 536 564
f 535 564 565
f 535 565 566
f 535 566 567
f 535 567 568
f 535 568 537
f 536 569 570
f 536 570 571
f 536 571 564
f 537 568 538
f 538 568 572
f 538 572 573
f 538 573 574
f 538 574 539
f 539 574 540
f 540 574 542
f 542 574 575
f 542 575 543
f 543 575 576
f 545 555 577
f 545 577 547
f 546 578 579
f 546 579 548
f 546 547 580
f 546 580 578
f 547 577 581
f 547 581 580
f 549 552 585
f 549 585 582
f 549 582 583
f 549 583 584
f 549 584 550
f 550 584 551
f 551 584 553
f 553 584 586
f 553 586 554
f 554 586 583
f 554 583 587
f 554 587 588
f 554 588 589
f 554 589 590
f 554 590 555
f 555 590 591
f 555 591 577
f 560 592 561
f 561 593 594
f 561 594 562
f 561 592 593
f 562 594 595
f 562 595 596
f 562 596 597
f 562 597 563
f 563 597 569
f 564 571 598
f 564 598 599
f 564 599 600
f 564 600 601
f 564 601 602
f 564 602 603
f 564 603 565
f 565 603 566
f 566 603 602
f 566 602 601
f 566 601 600
f 566 600 573
f 566 573 567
f 567 573 568
f 568 573 604
f 568 604 572
f 569 605 609
f 569 609 570
f 569 597 605
f 570 606 607
f 570 607 608
f 570 608 571
f 570 609 606
f 571 608 598
f 572 604 573
f 573 600 610
f 573 610 576
f 573 576 575
f 573 575 574
f 577 611 581
f 577 591 611
f 578 580 612
f 580 613 612
f 580 581 614
f 580 614 615
f 580 615 613
f 581 611 616
f 581 616 614
f 582 585 617
f 582 617 583
f 583 617 587
f 583 586 584
f 587 617 618
f 587 618 588
f 588 618 619
f 588 619 589
f 589 619 620
f 589 620 621
f 589 621 622
f 589 622 590
f 590 622 623
f 590 623 591
f 591 623 624
f 591 624 625
f 591 625 626
f 591 626 611
f 593 627 594
f 594 627 628
f 594 628 629
f 594 629 596
f 594 596 595
f 596 629 630
f 596 630 597
f 597 630 631
f 597 631 632
f 597 632 605
f 605 621 633
f 605 633 609
f 605 632 621
f 606 609 634
f 606 634 635
f 606 608 607
f 609 633 636
f 609 636 634
f 611 626 616
f 614 616 637
f 614 637 615
f 616 626 638
f 616 638 639
f 616 639 637
f 618 640 641
f 618 641 642
f 618 642 619
f 619 643 621
f 619 621 620
f 619 642 641
f 619 641 636
f 619 636 633
f 619 633 643
f 621 632 622
f 621 643 633
f 622 632 644
f 622 644 623
f 623 644 631
f 623 631 630
f 623 630 624
f 624 630 645
f 624 645 646
f 624 646 625
f 625 646 647
f 625 647 638
f 625 638 626
f 628 648 629
f 629 648 645
f 629 645 630
f 631 644 632
f 634 636 641
f 634 641 640
f 634 640 635
f 638 647 639
f 639 647 649
f 645 648 650
f 645 650 646
f 646 651 647
f 646 650 651
f 647 651 649

