# https://github.com/mikedh/trimesh
v -0.01073933 0.00746876 -0.00227362
v -0.01073112 0.00746876 -0.00224618
v -0.01071779 0.00760945 -0.00224618
v -0.01067572 0.00804220 -0.00224618
v -0.01067675 0.00811069 -0.00227362
v -0.00360746 0.00746876 -0.00227362
v -0.01065726 0.00746876 -0.00202918
v -0.01058442 0.00811069 -0.00199417
v -0.01066752 0.00811069 -0.00224240
v -0.00337254 0.00811069 -0.00227362
v -0.00353668 0.00761775 -0.00227362
v -0.00069501 0.00746876 -0.00138733
v -0.01061520 0.00746876 -0.00190617
v -0.01051261 0.00804220 -0.00176803
v -0.01051056 0.00811069 -0.00178191
v -0.00083556 0.00811069 -0.00147438
v -0.00040059 0.00746876 -0.00128893
v -0.01053928 0.00746876 -0.00168981
v -0.01053313 0.00760945 -0.00170810
v -0.01048081 0.00811069 -0.00170684
v -0.00061089 0.00811069 -0.00135264
v -0.00032775 0.00746876 -0.00125329
v -0.01044285 0.00746876 -0.00146871
v -0.01034334 0.00811069 -0.00138071
v -0.00053805 0.00811069 -0.00129429
v -0.00026927 0.00746876 -0.00120282
v -0.01040182 0.00746876 -0.00138071
v -0.01038951 0.00760945 -0.00138071
v -0.01032180 0.00811069 -0.00133750
v -0.00053805 0.00811069 -0.00106657
v -0.00025902 0.00746876 -0.00109653
v -0.01028282 0.00746876 -0.00115267
v -0.01018946 0.00811069 -0.00107981
v -0.00054010 0.00811069 -0.00102998
v -0.00025902 0.00746876 -0.00108770
v -0.01021819 0.00746876 -0.00103313
v -0.01021203 0.00760945 -0.00104323
v -0.01019254 0.00804220 -0.00107445
v -0.01005507 0.00811069 -0.00086344
v -0.00065090 0.00811069 -0.00085777
v -0.00037802 0.00746876 -0.00092463
v -0.00062628 0.00780676 -0.00074075
v -0.01012688 0.00746876 -0.00088710
v -0.01007662 0.00760945 -0.00082654
v -0.01005815 0.00804220 -0.00085808
v -0.01002019 0.00811069 -0.00081424
v -0.00067860 0.00811069 -0.00081929
v -0.00067039 0.00804220 -0.00079626
v -0.00056678 0.00746876 -0.00068303
v -0.00057498 0.00751828 -0.00069060
v -0.00089916 0.00811069 -0.00057990
v -0.01008277 0.00746876 -0.00081677
v -0.00983861 0.00811069 -0.00056255
v -0.00080683 0.00746876 -0.00047297
v -0.00112280 0.00811069 -0.00036353
v -0.00111254 0.00804220 -0.00035249
v -0.00106945 0.00776541 -0.00031338
v -0.00993710 0.00746876 -0.00062121
v -0.00984169 0.00804220 -0.00055908
v -0.00969396 0.00746876 -0.00031338
v -0.00966421 0.00811069 -0.00034618
v -0.00102945 0.00747693 -0.00028215
v -0.00102842 0.00746876 -0.00028152
v -0.00133926 0.00811069 -0.00019163
v -0.00985708 0.00746876 -0.00051713
v -0.00958214 0.00746876 -0.00020740
v -0.00944775 0.00811069 -0.00013170
v -0.00963036 0.00811069 -0.00031149
v -0.00103560 0.00746876 -0.00027648
v -0.00132900 0.00804220 -0.00018532
v -0.00166856 0.00811069 0.00002852
v -0.00948982 0.00746876 -0.00012130
v -0.00947032 0.00760945 -0.00011404
v -0.00941082 0.00811069 -0.00009764
v -0.00124693 0.00746876 -0.00013896
v -0.00123565 0.00761649 -0.00016987
v -0.00187887 0.00811069 0.00015405
v -0.00165523 0.00804220 0.00003104
v -0.00932875 0.00746876 0.00002505
v -0.00923232 0.00760945 0.00010233
v -0.00921078 0.00811069 0.00008466
v -0.00160804 0.00760945 0.00006606
v -0.00159368 0.00746876 0.00007520
v -0.00212816 0.00811069 0.00027107
v -0.00187169 0.00804220 0.00015784
v -0.00923848 0.00746876 0.00010706
v -0.00899432 0.00811069 0.00023764
v -0.00917590 0.00811069 0.00010958
v -0.00181013 0.00746876 0.00018654
v -0.00182450 0.00760945 0.00017992
v -0.00213431 0.00804220 0.00027958
v -0.00256620 0.00811069 0.00045148
v -0.00909280 0.00746876 0.00020673
v -0.00899740 0.00804220 0.00023953
v -0.00893790 0.00811069 0.00027107
v -0.00213431 0.00760945 0.00031586
v -0.00213431 0.00746876 0.00032689
v -0.00285037 0.00811069 0.00054799
v -0.00256620 0.00760945 0.00047766
v -0.00902202 0.00746876 0.00025309
v -0.00901586 0.00760945 0.00024994
v -0.00877170 0.00746876 0.00039912
v -0.00864450 0.00760945 0.00046630
v -0.00859013 0.00811069 0.00047324
v -0.00257851 0.00746876 0.00048870
v -0.00280421 0.00746876 0.00056093
v -0.00306683 0.00811069 0.00060634
v -0.00865065 0.00746876 0.00046946
v -0.00856550 0.00811069 0.00048649
v -0.00300835 0.00746876 0.00061360
v -0.00303092 0.00760945 0.00061454
v -0.00337767 0.00811069 0.00067573
v -0.00343204 0.00804220 0.00069024
v -0.00850395 0.00746876 0.00054358
v -0.00841675 0.00793783 0.00057039
v -0.00840957 0.00811069 0.00056723
v -0.00316121 0.00746876 0.00064766
v -0.00343204 0.00760945 0.00070380
v -0.00343204 0.00811069 0.00068772
v -0.00379622 0.00811069 0.00074796
v -0.00386496 0.00811069 0.00075932
v -0.00843419 0.00746876 0.00057827
v -0.00822697 0.00811069 0.00063505
v -0.00828134 0.00811069 0.00061486
v -0.00343204 0.00746876 0.00070790
v -0.00386496 0.00760945 0.00077477
v -0.00429788 0.00811069 0.00081262
v -0.00819209 0.00746876 0.00066722
v -0.00819209 0.00760945 0.00066280
v -0.00775917 0.00811069 0.00078266
v -0.00386496 0.00746876 0.00077887
v -0.00429788 0.00760945 0.00082807
v -0.00400550 0.00746876 0.00079622
v -0.00466206 0.00811069 0.00084984
v -0.00789971 0.00746876 0.00075553
v -0.00775917 0.00804220 0.00078423
v -0.00769044 0.00811069 0.00079622
v -0.00473079 0.00811069 0.00085678
v -0.00443842 0.00746876 0.00084637
v -0.00429788 0.00746876 0.00083217
v -0.00775917 0.00746876 0.00079685
v -0.00732625 0.00804220 0.00086813
v -0.00732625 0.00811069 0.00086655
v -0.00473079 0.00760945 0.00087160
v -0.00516371 0.00811069 0.00089336
v -0.00473079 0.00746876 0.00087570
v -0.00746680 0.00746876 0.00085268
v -0.00732625 0.00746876 0.00087885
v -0.00725752 0.00811069 0.00087412
v -0.00559560 0.00811069 0.00091986
v -0.00516371 0.00804220 0.00089525
v -0.00516371 0.00746876 0.00091039
v -0.00703388 0.00746876 0.00090976
v -0.00689333 0.00811069 0.00091260
v -0.00559560 0.00746876 0.00093468
v -0.00602750 0.00811069 0.00093500
v -0.00689333 0.00746876 0.00092459
v -0.00646041 0.00746876 0.00094730
v -0.00646041 0.00811069 0.00093468
v -0.00602750 0.00760945 0.00094540
v -0.00602750 0.00746876 0.00094824
v -0.00602750 0.00804220 0.00093657
f 1 2 3
f 1 3 4
f 1 4 5
f 1 5 10
f 1 10 11
f 1 11 6
f 1 6 12
f 1 12 17
f 1 17 22
f 1 22 26
f 1 26 31
f 1 31 35
f 1 35 41
f 1 41 49
f 1 49 54
f 1 54 63
f 1 63 69
f 1 69 75
f 1 75 83
f 1 83 89
f 1 89 97
f 1 97 105
f 1 105 106
f 1 106 110
f 1 110 117
f 1 117 125
f 1 125 131
f 1 131 133
f 1 133 140
f 1 140 139
f 1 139 146
f 1 146 152
f 1 152 155
f 1 155 161
f 1 161 158
f 1 158 157
f 1 157 153
f 1 153 148
f 1 148 147
f 1 147 141
f 1 141 135
f 1 135 128
f 1 128 122
f 1 122 114
f 1 114 108
f 1 108 102
f 1 102 100
f 1 100 93
f 1 93 86
f 1 86 79
f 1 79 72
f 1 72 66
f 1 66 60
f 1 60 65
f 1 65 58
f 1 58 52
f 1 52 43
f 1 43 36
f 1 36 32
f 1 32 27
f 1 27 23
f 1 23 18
f 1 18 13
f 1 13 7
f 1 7 2
f 2 7 3
f 3 7 8
f 3 8 4
f 4 8 9
f 4 9 5
f 5 9 8
f 5 8 15
f 5 15 20
f 5 20 24
f 5 24 29
f 5 29 33
f 5 33 39
f 5 39 46
f 5 46 53
f 5 53 61
f 5 61 68
f 5 68 67
f 5 67 74
f 5 74 81
f 5 81 88
f 5 88 87
f 5 87 95
f 5 95 104
f 5 104 109
f 5 109 116
f 5 116 124
f 5 124 123
f 5 123 130
f 5 130 137
f 5 137 143
f 5 143 149
f 5 149 154
f 5 154 159
f 5 159 156
f 5 156 150
f 5 150 145
f 5 145 138
f 5 138 134
f 5 134 127
f 5 127 121
f 5 121 120
f 5 120 119
f 5 119 112
f 5 112 107
f 5 107 98
f 5 98 92
f 5 92 84
f 5 84 77
f 5 77 71
f 5 71 64
f 5 64 55
f 5 55 51
f 5 51 47
f 5 47 40
f 5 40 34
f 5 34 30
f 5 30 25
f 5 25 21
f 5 21 16
f 5 16 10
f 6 11 12
f 7 13 8
f 8 13 14
f 8 14 15
f 10 16 12
f 10 12 11
f 12 16 17
f 13 18 19
f 13 19 14
f 14 19 20
f 14 20 15
f 16 21 22
f 16 22 17
f 18 23 24
f 18 24 19
f 19 24 20
f 21 25 22
f 22 25 26
f 23 27 28
f 23 28 24
f 24 28 29
f 25 30 35
f 25 35 31
f 25 31 26
f 27 32 33
f 27 33 28
f 28 33 29
f 30 34 35
f 32 36 37
f 32 37 38
f 32 38 33
f 33 38 45
f 33 45 39
f 34 40 35
f 35 40 42
f 35 42 41
f 36 43 44
f 36 44 45
f 36 45 37
f 37 45 38
f 39 45 46
f 40 47 48
f 40 48 42
f 41 42 50
f 41 50 49
f 42 48 51
f 42 51 50
f 43 52 44
f 44 52 53
f 44 53 46
f 44 46 45
f 47 51 48
f 49 50 55
f 49 55 56
f 49 56 57
f 49 57 54
f 50 51 55
f 52 58 53
f 53 58 59
f 53 59 60
f 53 60 61
f 54 57 62
f 54 62 63
f 55 64 56
f 56 64 57
f 57 64 62
f 58 65 59
f 59 65 60
f 60 66 67
f 60 67 68
f 60 68 61
f 62 69 63
f 62 64 70
f 62 70 69
f 64 71 70
f 66 72 67
f 67 72 73
f 67 73 74
f 69 70 76
f 69 76 75
f 70 71 76
f 71 77 78
f 71 78 76
f 72 79 80
f 72 80 81
f 72 81 73
f 73 81 74
f 75 78 82
f 75 82 83
f 75 76 78
f 77 84 85
f 77 85 83
f 77 83 82
f 77 82 78
f 79 86 80
f 80 86 87
f 80 87 88
f 80 88 81
f 83 85 90
f 83 90 89
f 84 91 89
f 84 89 90
f 84 90 85
f 84 92 91
f 86 93 94
f 86 94 87
f 87 94 95
f 89 91 96
f 89 96 97
f 91 92 96
f 92 98 99
f 92 99 97
f 92 97 96
f 93 100 101
f 93 101 94
f 94 101 95
f 95 101 102
f 95 102 103
f 95 103 104
f 97 99 105
f 98 106 105
f 98 105 99
f 98 107 106
f 100 102 101
f 102 108 103
f 103 108 104
f 104 108 109
f 106 107 111
f 106 111 110
f 107 112 113
f 107 113 111
f 108 114 115
f 108 115 116
f 108 116 109
f 110 111 117
f 111 113 118
f 111 118 117
f 112 119 113
f 113 119 120
f 113 120 121
f 113 121 118
f 114 122 115
f 115 123 124
f 115 124 116
f 115 122 123
f 117 118 125
f 118 121 126
f 118 126 131
f 118 131 125
f 121 127 132
f 121 132 126
f 122 128 123
f 123 128 129
f 123 129 130
f 126 132 133
f 126 133 131
f 127 134 132
f 128 135 130
f 128 130 129
f 130 135 136
f 130 136 137
f 132 134 138
f 132 138 139
f 132 139 140
f 132 140 133
f 135 141 136
f 136 141 137
f 137 141 142
f 137 142 143
f 138 144 139
f 138 145 144
f 139 144 146
f 141 147 142
f 142 148 149
f 142 149 143
f 142 147 148
f 144 145 146
f 145 150 151
f 145 151 146
f 146 151 152
f 148 153 149
f 149 153 154
f 150 155 152
f 150 152 151
f 150 156 155
f 153 157 154
f 154 157 158
f 154 158 159
f 155 160 161
f 155 156 162
f 155 162 160
f 156 159 162
f 158 161 159
f 159 161 160
f 159 160 162

