# https://github.com/mikedh/trimesh
v -0.00404767 -0.00007479 -0.01009581
v -0.00404767 0.00143684 -0.01018547
v -0.00337744 0.00220067 -0.01028401
v -0.00337744 -0.00007479 -0.01009581
v -0.00404767 -0.00007479 -0.00777004
v -0.00404767 0.00143684 -0.00770391
v -0.00337744 0.00220067 -0.00761400
v -0.00216816 0.00220067 -0.01009111
v -0.00216816 0.00201756 -0.01009503
v -0.00216816 0.00198281 -0.01009555
v -0.00216816 0.00155000 -0.01008823
v -0.00256628 -0.00007479 -0.01008510
v -0.00267207 -0.00007479 -0.01008771
v -0.00299900 -0.00007479 -0.01009555
v -0.00337744 -0.00007479 -0.00777004
v -0.00216816 -0.00007479 -0.00777030
v -0.00216816 0.00220067 -0.00777030
v -0.00216816 -0.00007479 -0.00998420
f 1 2 3
f 1 3 4
f 1 4 14
f 1 14 13
f 1 13 12
f 1 12 18
f 1 18 16
f 1 16 15
f 1 15 5
f 1 5 6
f 1 6 2
f 2 6 7
f 2 7 3
f 3 7 17
f 3 17 8
f 3 8 9
f 3 9 10
f 3 10 11
f 3 11 12
f 3 12 13
f 3 13 14
f 3 14 4
f 5 15 7
f 5 7 6
f 7 15 16
f 7 16 17
f 8 17 16
f 8 16 18
f 8 18 11
f 8 11 10
f 8 10 9
f 11 18 12

