# https://github.com/mikedh/trimesh
v -0.01101504 0.00746876 -0.00924556
v -0.01103430 0.00746876 -0.00913209
v -0.01102828 0.00760945 -0.00909224
v -0.01100180 0.00760945 -0.00924556
v -0.00343730 0.00746876 -0.00924556
v -0.01109209 0.00746876 -0.00873798
v -0.01101263 0.00791421 -0.00900699
v -0.01097290 0.00805194 -0.00915921
v -0.01095725 0.00805006 -0.00924556
v -0.00328319 0.00811069 -0.00924556
v 0.00047317 0.00746876 -0.00871750
v -0.01101865 0.00811069 -0.00881050
v -0.01114146 0.00746876 -0.00830513
v -0.01098253 0.00811069 -0.00905958
v -0.01096568 0.00811069 -0.00916087
v -0.01095243 0.00809762 -0.00924556
v -0.00006500 0.00811069 -0.00875293
v -0.01095003 0.00811069 -0.00924556
v 0.00058995 0.00746876 -0.00869315
v -0.01103190 0.00811069 -0.00869315
v -0.01117396 0.00746876 -0.00787228
v -0.01112701 0.00760945 -0.00830513
v 0.00038046 0.00811069 -0.00862728
v 0.00079703 0.00746876 -0.00863724
v -0.01107403 0.00811069 -0.00830735
v -0.01122573 0.00746876 -0.00657429
v -0.01115952 0.00760945 -0.00787228
v 0.00042381 0.00811069 -0.00859573
v 0.00068988 0.00784615 -0.00853318
v 0.00089576 0.00746876 -0.00845292
v -0.01110534 0.00811069 -0.00787228
v -0.01122573 0.00746876 -0.00614199
v -0.01116433 0.00804214 -0.00614199
v -0.01115590 0.00811069 -0.00657429
v -0.01112219 0.00811069 -0.00743999
v 0.00057069 0.00811069 -0.00831897
v 0.00057550 0.00811069 -0.00830403
v 0.00095596 0.00746876 -0.00830513
v -0.01121490 0.00746876 -0.00584973
v -0.01120647 0.00755749 -0.00586910
v -0.01114748 0.00811069 -0.00586910
v -0.01115590 0.00811069 -0.00614199
v 0.00061885 0.00811069 -0.00787228
v 0.00073563 0.00791911 -0.00787228
v 0.00100893 0.00746876 -0.00787228
v -0.01119804 0.00746876 -0.00541688
v -0.01116072 0.00760945 -0.00484344
v -0.01113905 0.00811069 -0.00564050
v 0.00064774 0.00811069 -0.00743999
v 0.00095475 0.00760945 -0.00743999
v 0.00102819 0.00746876 -0.00761490
v -0.01117517 0.00746876 -0.00484344
v -0.01115350 0.00746876 -0.00455173
v -0.01112821 0.00760945 -0.00441059
v -0.01107524 0.00811069 -0.00440837
v -0.01111497 0.00804214 -0.00484344
v -0.01112460 0.00811069 -0.00527629
v 0.00066580 0.00811069 -0.00700714
v 0.00105107 0.00746876 -0.00723020
v 0.00104023 0.00746876 -0.00743999
v -0.01114266 0.00746876 -0.00441059
v -0.01109330 0.00746876 -0.00397774
v -0.01103190 0.00805251 -0.00396500
v -0.01102588 0.00811069 -0.00396500
v -0.01110172 0.00811069 -0.00477480
v -0.01110654 0.00811069 -0.00484344
v 0.00067784 0.00811069 -0.00657429
v 0.00107394 0.00746876 -0.00657429
v 0.00106431 0.00746876 -0.00688924
v 0.00105829 0.00746876 -0.00704976
v -0.01105959 0.00746876 -0.00373419
v -0.01101384 0.00791527 -0.00370707
v -0.01100300 0.00811069 -0.00377792
v 0.00067664 0.00811069 -0.00614199
v 0.00107394 0.00746876 -0.00614199
v -0.01103792 0.00746876 -0.00359083
v -0.01103430 0.00751797 -0.00359083
v -0.01102949 0.00760945 -0.00361684
v -0.01098374 0.00802033 -0.00359083
v -0.01098374 0.00811069 -0.00365393
v 0.00066821 0.00811069 -0.00583866
v 0.00106431 0.00746876 -0.00583589
v -0.00339276 0.00746876 -0.00359083
v -0.01097772 0.00807356 -0.00359083
v -0.01097290 0.00811069 -0.00359083
v 0.00065135 0.00811069 -0.00537924
v 0.00100050 0.00756673 -0.00574180
v 0.00105829 0.00746876 -0.00567593
v 0.00047437 0.00746876 -0.00400209
v -0.00308213 0.00811069 -0.00359083
v 0.00064654 0.00811069 -0.00527629
v 0.00075008 0.00794254 -0.00527629
v 0.00104144 0.00746876 -0.00527629
v 0.00003372 0.00811069 -0.00398936
v -0.00040332 0.00811069 -0.00392903
v 0.00079101 0.00746876 -0.00408014
v 0.00062246 0.00811069 -0.00489879
v 0.00101013 0.00746876 -0.00484344
v 0.00061885 0.00811069 -0.00484344
v 0.00092465 0.00760945 -0.00484344
v 0.00042501 0.00811069 -0.00411667
v 0.00095475 0.00746876 -0.00441059
v 0.00068988 0.00784515 -0.00418364
v 0.00098485 0.00746876 -0.00464251
v 0.00057550 0.00811069 -0.00441169
f 1 2 3
f 1 3 4
f 1 4 9
f 1 9 16
f 1 16 18
f 1 18 10
f 1 10 5
f 1 5 11
f 1 11 19
f 1 19 24
f 1 24 30
f 1 30 38
f 1 38 45
f 1 45 51
f 1 51 60
f 1 60 59
f 1 59 70
f 1 70 69
f 1 69 68
f 1 68 75
f 1 75 82
f 1 82 88
f 1 88 93
f 1 93 98
f 1 98 104
f 1 104 102
f 1 102 96
f 1 96 89
f 1 89 83
f 1 83 76
f 1 76 71
f 1 71 62
f 1 62 61
f 1 61 53
f 1 53 52
f 1 52 46
f 1 46 39
f 1 39 32
f 1 32 26
f 1 26 21
f 1 21 13
f 1 13 6
f 1 6 2
f 2 6 3
f 3 6 7
f 3 7 8
f 3 8 4
f 4 8 9
f 5 10 11
f 6 12 7
f 6 13 12
f 7 12 14
f 7 14 8
f 8 14 15
f 8 15 16
f 8 16 9
f 10 17 11
f 10 18 15
f 10 15 14
f 10 14 12
f 10 12 20
f 10 20 25
f 10 25 31
f 10 31 35
f 10 35 34
f 10 34 42
f 10 42 41
f 10 41 48
f 10 48 57
f 10 57 66
f 10 66 65
f 10 65 55
f 10 55 64
f 10 64 73
f 10 73 80
f 10 80 85
f 10 85 90
f 10 90 95
f 10 95 94
f 10 94 101
f 10 101 105
f 10 105 99
f 10 99 97
f 10 97 91
f 10 91 86
f 10 86 81
f 10 81 74
f 10 74 67
f 10 67 58
f 10 58 49
f 10 49 43
f 10 43 37
f 10 37 36
f 10 36 28
f 10 28 23
f 10 23 17
f 11 17 19
f 12 13 20
f 13 21 27
f 13 27 22
f 13 22 20
f 15 18 16
f 17 23 24
f 17 24 19
f 20 22 25
f 21 26 27
f 22 27 25
f 23 28 29
f 23 29 24
f 24 29 30
f 25 27 31
f 26 32 33
f 26 33 34
f 26 34 35
f 26 35 31
f 26 31 27
f 28 36 29
f 29 36 37
f 29 37 38
f 29 38 30
f 32 39 40
f 32 40 41
f 32 41 33
f 33 41 42
f 33 42 34
f 37 43 44
f 37 44 45
f 37 45 38
f 39 46 40
f 40 46 47
f 40 47 48
f 40 48 41
f 43 49 50
f 43 50 44
f 44 50 51
f 44 51 45
f 46 52 47
f 47 53 54
f 47 54 55
f 47 55 56
f 47 56 48
f 47 52 53
f 48 56 57
f 49 58 59
f 49 59 50
f 50 59 60
f 50 60 51
f 53 61 54
f 54 61 62
f 54 62 63
f 54 63 64
f 54 64 55
f 55 65 56
f 56 65 66
f 56 66 57
f 58 67 68
f 58 68 69
f 58 69 70
f 58 70 59
f 62 71 72
f 62 72 73
f 62 73 63
f 63 73 64
f 67 74 75
f 67 75 68
f 71 76 77
f 71 77 78
f 71 78 72
f 72 79 80
f 72 80 73
f 72 78 79
f 74 81 75
f 75 81 82
f 76 83 90
f 76 90 85
f 76 85 84
f 76 84 79
f 76 79 77
f 77 79 78
f 79 84 80
f 80 84 85
f 81 86 87
f 81 87 82
f 82 87 88
f 83 89 90
f 86 91 92
f 86 92 93
f 86 93 88
f 86 88 87
f 89 94 95
f 89 95 90
f 89 96 94
f 91 97 92
f 92 97 93
f 93 97 99
f 93 99 100
f 93 100 98
f 94 96 101
f 96 102 103
f 96 103 101
f 98 100 105
f 98 105 104
f 99 105 100
f 101 103 105
f 102 104 105
f 102 105 103

