# https://github.com/mikedh/trimesh
v 0.00266338 -0.00175080 -0.00830566
v 0.00266338 -0.00175080 -0.00917097
v 0.00262199 -0.00175080 -0.00814646
v 0.00241885 -0.00213815 -0.00807320
v -0.00062204 -0.00774929 -0.00817098
v -0.00061702 -0.00775737 -0.00845951
v -0.00049162 -0.00753760 -0.00917097
v 0.00241885 -0.00213815 -0.00941330
v 0.00257560 -0.00175080 -0.00959053
v -0.00061702 -0.00775737 -0.00939385
v 0.00254425 -0.00175080 -0.00797684
v 0.00248782 -0.00191250 -0.00800304
v -0.00054931 -0.00746042 -0.00800079
v -0.00103334 -0.00820426 -0.00806278
v -0.00101955 -0.00821749 -0.00830566
v -0.00076750 -0.00792937 -0.00831158
v -0.00079383 -0.00797494 -0.00873846
v -0.00100325 -0.00823513 -0.00917097
v -0.00078756 -0.00797494 -0.00917097
v -0.00061577 -0.00775884 -0.00873846
v -0.00061577 -0.00775884 -0.00917097
v 0.00244268 -0.00175080 -0.00984835
v -0.00055307 -0.00751996 -0.00956432
v -0.00059570 -0.00736414 -0.00984243
v -0.00101704 -0.00822117 -0.00946824
v -0.00085277 -0.00794774 -0.00957531
v -0.00068850 -0.00765300 -0.00968238
v 0.00235866 -0.00175080 -0.00787738
v -0.00046027 -0.00710541 -0.00794303
v -0.00079383 -0.00757803 -0.00790837
v -0.00093177 -0.00797053 -0.00798952
v -0.00130796 -0.00837038 -0.00800445
v -0.00147976 -0.00862470 -0.00808109
v -0.00125655 -0.00843359 -0.00830566
v -0.00101077 -0.00822705 -0.00873846
v -0.00125153 -0.00845123 -0.00917097
v -0.00147349 -0.00862837 -0.00941189
v -0.00147223 -0.00862984 -0.00830566
v 0.00219314 -0.00175080 -0.00995993
v -0.00053928 -0.00710541 -0.00988638
v -0.00083396 -0.00751996 -0.00992048
v -0.00083521 -0.00710541 -0.01002417
v -0.00109729 -0.00813885 -0.00975677
v -0.00097691 -0.00784998 -0.00987286
v -0.00128539 -0.00838875 -0.00958433
v 0.00219439 -0.00175080 -0.00781933
v 0.00219439 -0.00191250 -0.00784554
v -0.00083521 -0.00710541 -0.00778355
v -0.00126783 -0.00797053 -0.00783004
v -0.00170171 -0.00840345 -0.00784948
v -0.00170171 -0.00868938 -0.00800896
v -0.00234876 -0.00905321 -0.00808757
v -0.00170171 -0.00876508 -0.00830566
v -0.00146847 -0.00863278 -0.00873846
v -0.00146847 -0.00863278 -0.00917097
v -0.00170171 -0.00877905 -0.00917097
v -0.00210047 -0.00898265 -0.00917097
v -0.00232619 -0.00906056 -0.00941499
v -0.00170923 -0.00870702 -0.00957531
v -0.00157004 -0.00855634 -0.00970042
v -0.00170171 -0.00877464 -0.00873846
v 0.00176177 -0.00191250 -0.01004812
v 0.00176177 -0.00175080 -0.01004192
v -0.00125279 -0.00798449 -0.00994133
v -0.00126783 -0.00753760 -0.01006672
v -0.00083521 -0.00667248 -0.01007292
v -0.00138696 -0.00826821 -0.00987737
v 0.00192353 -0.00175080 -0.00777340
v -0.00126783 -0.00753760 -0.00777002
v -0.00170171 -0.00797053 -0.00777002
v -0.00213433 -0.00840345 -0.00777594
v -0.00256695 -0.00883638 -0.00786695
v -0.00217571 -0.00884594 -0.00796529
v -0.00256695 -0.00909437 -0.00802671
v -0.00233873 -0.00905688 -0.00830566
v -0.00212304 -0.00897162 -0.00830566
v -0.00256695 -0.00913994 -0.00830566
v -0.00210800 -0.00897750 -0.00873846
v -0.00232368 -0.00906277 -0.00873846
v -0.00231616 -0.00906497 -0.00917097
v -0.00216317 -0.00893193 -0.00957700
v -0.00256695 -0.00914803 -0.00917097
v -0.00256695 -0.00910025 -0.00951220
v -0.00256695 -0.00901352 -0.00972859
v -0.00185846 -0.00865704 -0.00985173
v -0.00083521 -0.00623956 -0.01008672
v 0.00003003 -0.00277762 -0.01009602
v -0.00866628 -0.00175080 -0.01028819
v -0.00170923 -0.00840860 -0.00992837
v -0.00170171 -0.00797053 -0.01006982
v -0.00126783 -0.00710541 -0.01008250
v -0.00949015 -0.00175080 -0.00740964
v -0.00256695 -0.00840345 -0.00777002
v -0.00299957 -0.00883638 -0.00780271
v -0.00299957 -0.00913921 -0.00796219
v -0.00299957 -0.00922815 -0.00830566
v -0.00256695 -0.00914582 -0.00873846
v -0.00299957 -0.00923917 -0.00917097
v -0.00296822 -0.00913847 -0.00964378
v -0.00280395 -0.00904954 -0.00981482
v -0.00213433 -0.00871951 -0.00990104
v -0.00429618 -0.00840345 -0.01008165
v -0.00602792 -0.00710541 -0.01009602
v -0.00924938 -0.00175080 -0.01025353
v -0.00256695 -0.00840345 -0.01008419
v -0.00299957 -0.00840345 -0.01009095
v -0.00213433 -0.00840345 -0.01003882
v -0.00972088 -0.00175080 -0.00749727
v -0.00819228 -0.00537444 -0.00780524
v -0.00775841 -0.00580663 -0.00778017
v -0.00732579 -0.00623956 -0.00777143
v -0.00646054 -0.00710541 -0.00777228
v -0.00602792 -0.00753760 -0.00777284
v -0.00559530 -0.00797053 -0.00778580
v -0.00472880 -0.00840345 -0.00777340
v -0.00429618 -0.00840345 -0.00777002
v -0.00343219 -0.00883638 -0.00779763
v -0.00343219 -0.00914509 -0.00795712
v -0.00343219 -0.00923917 -0.00830566
v -0.00343219 -0.00925902 -0.00917097
v -0.00343219 -0.00918478 -0.00960377
v -0.00309237 -0.00906938 -0.00983764
v -0.00256695 -0.00879669 -0.00994612
v -0.00386356 -0.00883638 -0.00997120
v -0.00425480 -0.00884152 -0.00992442
v -0.00472880 -0.00840345 -0.01001882
v -0.00516268 -0.00797053 -0.01006559
v -0.00559530 -0.00753760 -0.01008419
v -0.00343219 -0.00883638 -0.00998331
v -0.00646054 -0.00710541 -0.01004023
v -0.00732579 -0.00580663 -0.01009602
v -0.00775841 -0.00537444 -0.01008278
v -0.00819228 -0.00494151 -0.01005601
v -0.00932964 -0.00175080 -0.01022930
v -0.00979988 -0.00175080 -0.00753052
v -0.00819981 -0.00579855 -0.00793373
v -0.00779226 -0.00626969 -0.00790696
v -0.00866503 -0.00498121 -0.00790668
v -0.00854339 -0.00537444 -0.00796472
v -0.00736717 -0.00671291 -0.00790048
v -0.00693204 -0.00714437 -0.00790104
v -0.00649816 -0.00757509 -0.00790189
v -0.00604548 -0.00799625 -0.00791260
v -0.00516268 -0.00840345 -0.00782074
v -0.00386356 -0.00883638 -0.00779933
v -0.00386356 -0.00914362 -0.00795909
v -0.00386356 -0.00923550 -0.00830566
v -0.00386356 -0.00924064 -0.00917097
v -0.00343219 -0.00907747 -0.00984525
v -0.00386356 -0.00916199 -0.00960377
v -0.00386356 -0.00906571 -0.00983341
v -0.00296822 -0.00887754 -0.00994077
v -0.00408301 -0.00905395 -0.00982158
v -0.00472880 -0.00868056 -0.00988103
v -0.00511879 -0.00839316 -0.00991287
v -0.00560282 -0.00798964 -0.00996415
v -0.00606178 -0.00757288 -0.00998219
v -0.00594014 -0.00785807 -0.00990611
v -0.00646054 -0.00743029 -0.00990216
v -0.00685931 -0.00706939 -0.00989484
v -0.00689316 -0.00667248 -0.01003798
v -0.00732579 -0.00623956 -0.01002811
v -0.00778599 -0.00582795 -0.00997514
v -0.00819354 -0.00535754 -0.00994330
v -0.00851205 -0.00494151 -0.00991794
v -0.00864622 -0.00450932 -0.00995908
v -0.00862490 -0.00407640 -0.01006277
v -0.00952400 -0.00175080 -0.01013406
v -0.00894843 -0.00407640 -0.00992499
v -0.00992904 -0.00175080 -0.00764745
v -0.00932964 -0.00398746 -0.00800952
v -0.00891457 -0.00486287 -0.00799769
v -0.00806061 -0.00614548 -0.00799628
v -0.00767063 -0.00659531 -0.00798473
v -0.00844809 -0.00564860 -0.00802953
v -0.00724929 -0.00702603 -0.00798529
v -0.00681416 -0.00745601 -0.00798586
v -0.00637778 -0.00786836 -0.00798670
v -0.00591256 -0.00825792 -0.00800389
v -0.00557524 -0.00840272 -0.00794838
v -0.00516268 -0.00871290 -0.00798050
v -0.00429618 -0.00883638 -0.00785568
v -0.00429618 -0.00910246 -0.00801516
v -0.00429618 -0.00915685 -0.00830566
v -0.00429618 -0.00916787 -0.00873846
v -0.00432502 -0.00913406 -0.00918365
v -0.00417079 -0.00909511 -0.00960377
v -0.00438772 -0.00899514 -0.00960377
v -0.00494700 -0.00862029 -0.00982101
v -0.00546489 -0.00824175 -0.00988216
v -0.00622856 -0.00774120 -0.00979002
v -0.00669253 -0.00733547 -0.00983764
v -0.00712139 -0.00690181 -0.00983510
v -0.00729067 -0.00662985 -0.00988526
v -0.00763176 -0.00623956 -0.00989033
v -0.00804933 -0.00569711 -0.00989484
v -0.00843806 -0.00520245 -0.00985877
v -0.00887821 -0.00436526 -0.00986807
v -0.00961429 -0.00175080 -0.01007827
v -0.00928826 -0.00346927 -0.00984271
v -0.00933340 -0.00321054 -0.00989258
v -0.00982119 -0.00175080 -0.00994387
v -0.00972965 -0.00306722 -0.00804446
v -0.01000929 -0.00175080 -0.00783934
v -0.00926568 -0.00427632 -0.00821268
v -0.00883682 -0.00515099 -0.00821916
v -0.00795403 -0.00642772 -0.00830566
v -0.00753144 -0.00687755 -0.00830566
v -0.00731575 -0.00709806 -0.00830566
v -0.00773709 -0.00666146 -0.00830566
v -0.00710258 -0.00731416 -0.00830566
v -0.00666870 -0.00774635 -0.00830566
v -0.00645176 -0.00792790 -0.00830566
v -0.00541724 -0.00864601 -0.00804615
v -0.00618467 -0.00814473 -0.00830566
v -0.00453068 -0.00905909 -0.00807546
v -0.00469745 -0.00885182 -0.00795571
v -0.00455199 -0.00906791 -0.00830566
v -0.00457707 -0.00907894 -0.00873846
v -0.00456579 -0.00907379 -0.00904784
v -0.00448679 -0.00903925 -0.00933637
v -0.00472880 -0.00881874 -0.00960377
v -0.00501095 -0.00865998 -0.00960377
v -0.00532068 -0.00858427 -0.00928904
v -0.00522789 -0.00852547 -0.00960377
v -0.00560282 -0.00829394 -0.00958546
v -0.00575330 -0.00814693 -0.00971732
v -0.00603043 -0.00797420 -0.00960941
v -0.00630254 -0.00780221 -0.00950149
v -0.00645302 -0.00762507 -0.00962885
v -0.00674770 -0.00738619 -0.00960377
v -0.00696464 -0.00717303 -0.00960377
v -0.00717280 -0.00695620 -0.00960377
v -0.00754398 -0.00645712 -0.00982186
v -0.00794901 -0.00598598 -0.00975001
v -0.00849198 -0.00528183 -0.00960377
v -0.00871268 -0.00491652 -0.00958602
v -0.00880422 -0.00465412 -0.00971845
v -0.00923684 -0.00375813 -0.00971028
v -0.00946632 -0.00321054 -0.00960377
v -0.00994659 -0.00175080 -0.00960377
v -0.01008202 -0.00175080 -0.00803066
v -0.01012716 -0.00175080 -0.00830566
v -0.00983750 -0.00277762 -0.00830566
v -0.00974345 -0.00310838 -0.00830566
v -0.00967072 -0.00332521 -0.00830566
v -0.00954532 -0.00364347 -0.00830566
v -0.00927446 -0.00429543 -0.00850121
v -0.00918543 -0.00446743 -0.00833638
v -0.00934719 -0.00410947 -0.00833638
v -0.00893087 -0.00498121 -0.00834032
v -0.00884184 -0.00515908 -0.00850769
v -0.00871644 -0.00533181 -0.00834032
v -0.00832270 -0.00589924 -0.00830566
v -0.00810576 -0.00621163 -0.00830566
v -0.00794776 -0.00642111 -0.00873846
v -0.00884184 -0.00515908 -0.00852826
v -0.00810325 -0.00620501 -0.00873846
v -0.00710634 -0.00731783 -0.00873846
v -0.00773082 -0.00665411 -0.00873846
v -0.00688940 -0.00752731 -0.00873846
v -0.00666494 -0.00774341 -0.00873846
v -0.00644800 -0.00792128 -0.00873846
v -0.00596773 -0.00829688 -0.00830566
v -0.00565549 -0.00851371 -0.00830566
v -0.00543981 -0.00866071 -0.00830566
v -0.00516268 -0.00880771 -0.00830566
v -0.00617840 -0.00813738 -0.00873846
v -0.00596146 -0.00829467 -0.00873846
v -0.00476768 -0.00898338 -0.00830566
v -0.00479401 -0.00898632 -0.00873846
v -0.00471752 -0.00896501 -0.00918365
v -0.00516268 -0.00880404 -0.00873846
v -0.00540470 -0.00863645 -0.00900050
v -0.00517146 -0.00872319 -0.00915520
v -0.00556771 -0.00847475 -0.00915520
v -0.00583230 -0.00820206 -0.00942879
v -0.00611319 -0.00808519 -0.00917097
v -0.00638530 -0.00786909 -0.00917097
v -0.00660099 -0.00769049 -0.00917097
v -0.00684175 -0.00747439 -0.00917097
v -0.00705869 -0.00726932 -0.00917097
v -0.00726183 -0.00705249 -0.00917097
v -0.00758912 -0.00650637 -0.00960377
v -0.00789509 -0.00635349 -0.00917097
v -0.00782361 -0.00621971 -0.00960490
v -0.00800293 -0.00606168 -0.00946148
v -0.00811328 -0.00582795 -0.00960490
v -0.00834401 -0.00549792 -0.00960377
v -0.00855970 -0.00540384 -0.00918732
v -0.00878541 -0.00505765 -0.00917097
v -0.00890203 -0.00484155 -0.00917097
v -0.00885563 -0.00475482 -0.00942992
v -0.00892460 -0.00450932 -0.00958602
v -0.00915283 -0.00404773 -0.00958123
v -0.00928449 -0.00388456 -0.00942175
v -0.00945754 -0.00364347 -0.00917097
v -0.00932838 -0.00362583 -0.00958123
v -0.00962056 -0.00319731 -0.00915858
v -0.00972338 -0.00304370 -0.00900614
v -0.00967573 -0.00289522 -0.00929467
v -0.01005569 -0.00175080 -0.00917097
v -0.01014723 -0.00175080 -0.00871705
v -0.00973843 -0.00309074 -0.00873846
v -0.00966570 -0.00330757 -0.00873846
v -0.00954156 -0.00364347 -0.00873846
v -0.00927446 -0.00429543 -0.00854179
v -0.00844433 -0.00564272 -0.00905404
v -0.00805685 -0.00613739 -0.00917097
v -0.00767815 -0.00660266 -0.00917097
v -0.00918041 -0.00446743 -0.00870690
v -0.00892586 -0.00497386 -0.00869901
v -0.00883055 -0.00513924 -0.00881679
v -0.00871017 -0.00533181 -0.00869901
v -0.00846941 -0.00567874 -0.00873846
v -0.00564671 -0.00851077 -0.00873846
v -0.00542978 -0.00865336 -0.00873846
v -0.00589625 -0.00824910 -0.00917097
v -0.00829009 -0.00579487 -0.00918732
v -0.00926568 -0.00427485 -0.00883003
v -0.00906881 -0.00450932 -0.00917097
v -0.00922430 -0.00418959 -0.00917097
v -0.00932587 -0.00397349 -0.00917097
v -0.00934845 -0.00410874 -0.00870690
f 1 2 9
f 1 9 22
f 1 22 39
f 1 39 63
f 1 63 88
f 1 88 104
f 1 104 134
f 1 134 168
f 1 168 199
f 1 199 202
f 1 202 241
f 1 241 302
f 1 302 303
f 1 303 243
f 1 243 242
f 1 242 204
f 1 204 170
f 1 170 135
f 1 135 108
f 1 108 92
f 1 92 68
f 1 68 46
f 1 46 28
f 1 28 11
f 1 11 3
f 1 3 4
f 1 4 5
f 1 5 6
f 1 6 7
f 1 7 2
f 2 8 9
f 2 7 10
f 2 10 8
f 3 11 12
f 3 12 4
f 4 12 13
f 4 13 5
f 5 13 14
f 5 14 15
f 5 15 16
f 5 16 6
f 6 16 17
f 6 17 18
f 6 18 19
f 6 19 20
f 6 20 7
f 7 20 21
f 7 21 10
f 8 10 9
f 9 10 23
f 9 23 24
f 9 24 22
f 10 21 19
f 10 19 18
f 10 18 25
f 10 25 26
f 10 26 27
f 10 27 23
f 11 28 29
f 11 29 13
f 11 13 12
f 13 29 30
f 13 30 31
f 13 31 14
f 14 31 32
f 14 32 33
f 14 33 15
f 15 33 34
f 15 34 35
f 15 35 16
f 16 35 18
f 16 18 17
f 18 36 37
f 18 37 25
f 18 35 38
f 18 38 36
f 19 21 20
f 22 24 40
f 22 40 41
f 22 41 42
f 22 42 39
f 23 27 24
f 24 27 43
f 24 43 44
f 24 44 41
f 24 41 40
f 25 43 26
f 25 37 45
f 25 45 43
f 26 43 27
f 28 46 47
f 28 47 30
f 28 30 29
f 30 47 48
f 30 48 49
f 30 49 31
f 31 49 32
f 32 49 50
f 32 50 51
f 32 51 33
f 33 38 34
f 33 51 52
f 33 52 53
f 33 53 38
f 34 38 35
f 36 38 54
f 36 54 55
f 36 55 37
f 37 55 56
f 37 56 57
f 37 57 58
f 37 58 59
f 37 59 60
f 37 60 45
f 38 53 61
f 38 61 54
f 39 62 63
f 39 42 62
f 41 44 64
f 41 64 65
f 41 65 42
f 42 66 62
f 42 65 66
f 43 45 60
f 43 60 67
f 43 67 44
f 44 67 64
f 46 68 48
f 46 48 47
f 48 68 69
f 48 69 49
f 49 69 70
f 49 70 71
f 49 71 50
f 50 71 72
f 50 72 73
f 50 73 51
f 51 73 74
f 51 74 52
f 52 75 76
f 52 76 53
f 52 74 77
f 52 77 75
f 53 76 78
f 53 78 61
f 54 61 56
f 54 56 55
f 56 61 57
f 57 61 78
f 57 78 79
f 57 79 80
f 57 80 58
f 58 81 59
f 58 80 82
f 58 82 83
f 58 83 84
f 58 84 81
f 59 85 60
f 59 81 85
f 60 85 67
f 62 66 86
f 62 86 87
f 62 87 88
f 62 88 63
f 64 67 89
f 64 89 90
f 64 90 65
f 65 90 91
f 65 91 66
f 66 91 86
f 67 85 89
f 68 92 69
f 69 92 70
f 70 92 71
f 71 92 93
f 71 93 94
f 71 94 72
f 72 94 95
f 72 95 74
f 72 74 73
f 74 95 96
f 74 96 77
f 75 77 79
f 75 79 78
f 75 78 76
f 77 97 79
f 77 96 97
f 79 97 80
f 80 97 82
f 81 84 85
f 82 97 98
f 82 98 83
f 83 98 99
f 83 99 100
f 83 100 84
f 84 100 85
f 85 100 101
f 85 101 89
f 86 91 88
f 86 88 87
f 88 102 103
f 88 103 104
f 88 91 105
f 88 105 106
f 88 106 102
f 89 101 107
f 89 107 90
f 90 107 105
f 90 105 91
f 92 108 109
f 92 109 110
f 92 110 111
f 92 111 112
f 92 112 113
f 92 113 114
f 92 114 115
f 92 115 116
f 92 116 93
f 93 117 94
f 93 116 117
f 94 117 118
f 94 118 95
f 95 118 119
f 95 119 96
f 96 98 97
f 96 119 120
f 96 120 98
f 98 120 121
f 98 121 99
f 99 121 122
f 99 122 100
f 100 123 101
f 100 122 123
f 101 123 107
f 102 124 125
f 102 125 126
f 102 126 127
f 102 127 128
f 102 128 103
f 102 106 129
f 102 129 124
f 103 128 130
f 103 130 131
f 103 131 104
f 104 131 132
f 104 132 133
f 104 133 134
f 105 123 129
f 105 129 106
f 105 107 123
f 108 135 109
f 109 136 137
f 109 137 110
f 109 135 138
f 109 138 139
f 109 139 136
f 110 137 140
f 110 140 111
f 111 140 112
f 112 140 113
f 113 140 141
f 113 141 142
f 113 142 114
f 114 142 143
f 114 143 144
f 114 144 115
f 115 144 145
f 115 145 116
f 116 145 117
f 117 145 118
f 118 145 146
f 118 146 119
f 119 146 147
f 119 147 120
f 120 147 148
f 120 148 121
f 121 149 122
f 121 148 150
f 121 150 151
f 121 151 149
f 122 152 123
f 122 149 129
f 122 129 152
f 123 152 129
f 124 151 153
f 124 153 125
f 124 129 149
f 124 149 151
f 125 153 154
f 125 154 126
f 126 154 155
f 126 155 156
f 126 156 127
f 127 156 130
f 127 130 128
f 130 156 157
f 130 157 158
f 130 158 159
f 130 159 160
f 130 160 161
f 130 161 131
f 131 161 162
f 131 162 132
f 132 162 133
f 133 162 163
f 133 163 164
f 133 164 165
f 133 165 166
f 133 166 167
f 133 167 134
f 134 167 169
f 134 169 168
f 135 170 171
f 135 171 172
f 135 172 138
f 136 173 137
f 136 139 173
f 137 173 174
f 137 174 140
f 138 172 139
f 139 172 175
f 139 175 173
f 140 174 176
f 140 176 141
f 141 176 142
f 142 177 178
f 142 178 143
f 142 176 177
f 143 178 179
f 143 179 180
f 143 180 144
f 144 181 182
f 144 182 145
f 144 180 181
f 145 182 146
f 146 182 183
f 146 183 147
f 147 183 184
f 147 184 185
f 147 185 148
f 148 185 186
f 148 186 187
f 148 187 150
f 150 187 153
f 150 153 151
f 153 187 188
f 153 188 189
f 153 189 154
f 154 189 190
f 154 190 155
f 155 190 156
f 156 190 158
f 156 158 157
f 158 190 191
f 158 191 192
f 158 192 159
f 159 192 160
f 160 192 193
f 160 193 194
f 160 194 162
f 160 162 161
f 162 195 163
f 162 194 195
f 163 196 164
f 163 195 196
f 164 197 165
f 164 196 197
f 165 198 169
f 165 169 166
f 165 197 198
f 166 169 167
f 168 169 199
f 169 198 200
f 169 200 201
f 169 201 202
f 169 202 199
f 170 203 171
f 170 204 203
f 171 203 205
f 171 205 172
f 172 205 206
f 172 206 175
f 173 175 207
f 173 207 174
f 174 208 209
f 174 209 176
f 174 207 210
f 174 210 208
f 175 206 207
f 176 211 212
f 176 212 177
f 176 209 211
f 177 212 178
f 178 212 213
f 178 213 179
f 179 214 180
f 179 213 215
f 179 215 214
f 180 214 181
f 181 216 183
f 181 183 217
f 181 217 182
f 181 214 216
f 182 217 183
f 183 216 184
f 184 216 218
f 184 218 219
f 184 219 185
f 185 219 220
f 185 220 186
f 186 220 221
f 186 221 187
f 187 221 188
f 188 221 222
f 188 222 189
f 189 222 223
f 189 223 224
f 189 224 225
f 189 225 226
f 189 226 227
f 189 227 190
f 190 227 191
f 191 228 229
f 191 229 230
f 191 230 192
f 191 227 228
f 192 231 232
f 192 232 193
f 192 230 231
f 193 232 233
f 193 233 234
f 193 234 194
f 194 234 195
f 195 234 196
f 196 234 235
f 196 235 197
f 197 235 236
f 197 236 237
f 197 237 238
f 197 238 198
f 198 239 200
f 198 238 239
f 200 240 202
f 200 202 201
f 200 239 240
f 202 240 241
f 203 204 242
f 203 242 243
f 203 243 244
f 203 244 245
f 203 245 246
f 203 246 247
f 203 247 205
f 205 248 249
f 205 249 206
f 205 247 250
f 205 250 248
f 206 249 251
f 206 251 252
f 206 252 253
f 206 253 254
f 206 254 255
f 206 255 207
f 207 256 210
f 207 255 257
f 207 257 258
f 207 258 256
f 208 259 209
f 208 210 259
f 209 259 211
f 210 256 260
f 210 260 259
f 211 259 212
f 212 261 262
f 212 262 213
f 212 259 261
f 213 263 215
f 213 262 263
f 214 215 264
f 214 264 265
f 214 265 266
f 214 266 267
f 214 267 216
f 215 263 268
f 215 268 269
f 215 269 264
f 216 267 270
f 216 270 218
f 218 270 219
f 219 270 271
f 219 271 220
f 220 272 221
f 220 271 273
f 220 273 274
f 220 274 272
f 221 272 222
f 222 275 223
f 222 272 275
f 223 275 224
f 224 275 274
f 224 274 226
f 224 226 225
f 226 274 276
f 226 276 277
f 226 277 227
f 227 277 228
f 228 278 229
f 228 277 278
f 229 279 280
f 229 280 230
f 229 278 279
f 230 280 231
f 231 280 281
f 231 281 282
f 231 282 232
f 232 282 233
f 233 282 283
f 233 283 310
f 233 310 284
f 233 284 234
f 234 284 285
f 234 285 286
f 234 286 235
f 235 286 285
f 235 285 287
f 235 287 288
f 235 288 289
f 235 289 236
f 236 290 291
f 236 291 237
f 236 289 290
f 237 291 292
f 237 292 293
f 237 293 238
f 238 293 294
f 238 294 295
f 238 295 239
f 239 295 296
f 239 296 297
f 239 297 298
f 239 298 240
f 240 298 299
f 240 299 300
f 240 300 301
f 240 301 241
f 241 301 300
f 241 300 302
f 243 303 244
f 244 303 245
f 245 303 304
f 245 304 305
f 245 305 246
f 246 305 306
f 246 306 247
f 247 306 307
f 247 307 248
f 247 248 250
f 248 252 251
f 248 251 249
f 248 307 257
f 248 257 252
f 252 255 254
f 252 254 253
f 252 257 255
f 256 258 308
f 256 308 309
f 256 309 285
f 256 285 310
f 256 310 283
f 256 283 260
f 257 307 311
f 257 311 312
f 257 312 313
f 257 313 314
f 257 314 315
f 257 315 258
f 258 315 308
f 259 260 282
f 259 282 261
f 260 283 282
f 261 282 262
f 262 280 279
f 262 279 263
f 262 282 281
f 262 281 280
f 263 279 268
f 264 269 265
f 265 269 316
f 265 316 266
f 266 316 317
f 266 317 273
f 266 273 267
f 267 273 271
f 267 271 270
f 268 278 318
f 268 318 269
f 268 279 278
f 269 318 274
f 269 274 316
f 272 274 275
f 273 317 274
f 274 317 316
f 274 318 276
f 276 318 277
f 277 318 278
f 284 310 285
f 285 309 287
f 287 309 319
f 287 319 288
f 288 319 289
f 289 319 308
f 289 308 290
f 290 308 291
f 291 308 313
f 291 313 292
f 292 320 321
f 292 321 293
f 292 313 320
f 293 321 294
f 294 321 295
f 295 321 322
f 295 322 296
f 296 323 297
f 296 322 323
f 297 299 298
f 297 323 306
f 297 306 300
f 297 300 299
f 300 304 303
f 300 303 302
f 300 306 305
f 300 305 304
f 306 323 320
f 306 320 324
f 306 324 307
f 307 324 320
f 307 320 311
f 308 319 309
f 308 315 313
f 311 320 312
f 312 320 313
f 313 315 314
f 320 322 321
f 320 323 322

