# https://github.com/mikedh/trimesh
v -0.00710328 0.02153419 -0.00830569
v -0.00710170 0.02153419 -0.00818537
v -0.00610353 0.02362331 -0.00637284
v -0.00610432 0.02362331 -0.00657455
v -0.00632614 0.02314111 -0.00744012
v -0.00621840 0.02335646 -0.00744012
v -0.00631742 0.02310951 -0.00787326
v -0.00691395 0.02189232 -0.00830569
v -0.00703753 0.02153887 -0.00873883
v -0.00703991 0.02153419 -0.00873883
v -0.00695435 0.02153419 -0.00784495
v -0.00617245 0.02319027 -0.00637284
v -0.00589835 0.02399666 -0.00637284
v -0.00577952 0.02421435 -0.00657455
v -0.00609402 0.02362331 -0.00700769
v -0.00607422 0.02362331 -0.00744012
v -0.00586746 0.02394282 -0.00787326
v -0.00629128 0.02306036 -0.00830569
v -0.00645368 0.02275723 -0.00830569
v -0.00662321 0.02244006 -0.00830569
v -0.00539689 0.02473751 -0.00822713
v -0.00598866 0.02362331 -0.00830569
v -0.00685057 0.02189232 -0.00873883
v -0.00614552 0.02322070 -0.00873883
v -0.00624454 0.02297375 -0.00895540
v -0.00668580 0.02212523 -0.00899715
v -0.00696148 0.02153419 -0.00917197
v -0.00703674 0.02153419 -0.00875652
v -0.00694405 0.02153419 -0.00782442
v -0.00596648 0.02290236 -0.00637284
v -0.00524400 0.02518693 -0.00637284
v -0.00507605 0.02549240 -0.00637284
v -0.00562821 0.02448939 -0.00657455
v -0.00577398 0.02420382 -0.00700769
v -0.00543016 0.02479837 -0.00744012
v -0.00560049 0.02448939 -0.00744012
v -0.00576606 0.02418860 -0.00744012
v -0.00588409 0.02397208 -0.00744012
v -0.00557117 0.02448939 -0.00787326
v -0.00575021 0.02415934 -0.00787326
v -0.00582230 0.02385973 -0.00860223
v -0.00580329 0.02382344 -0.00889099
v -0.00537788 0.02470357 -0.00851518
v -0.00549354 0.02453152 -0.00834532
v -0.00584211 0.02389484 -0.00830569
v -0.00541590 0.02477262 -0.00787326
v -0.00529549 0.02498914 -0.00787326
v -0.00494692 0.02557199 -0.00809549
v -0.00456746 0.02610100 -0.00873883
v -0.00548086 0.02446013 -0.00873883
v -0.00562742 0.02405635 -0.00917126
v -0.00577715 0.02377429 -0.00917126
v -0.00676660 0.02191105 -0.00915356
v -0.00665569 0.02206788 -0.00928591
v -0.00686166 0.02153419 -0.00960440
v -0.00461420 0.02153419 -0.00637284
v -0.00492474 0.02576393 -0.00637284
v -0.00486850 0.02586458 -0.00657455
v -0.00498891 0.02564806 -0.00657455
v -0.00515131 0.02535430 -0.00657455
v -0.00561633 0.02448939 -0.00700769
v -0.00531846 0.02502776 -0.00700769
v -0.00513705 0.02535430 -0.00700769
v -0.00498099 0.02563402 -0.00700769
v -0.00511962 0.02535430 -0.00744012
v -0.00544601 0.02439576 -0.00917126
v -0.00536283 0.02467665 -0.00873883
v -0.00490494 0.02549708 -0.00873883
v -0.00522657 0.02492126 -0.00873883
v -0.00497227 0.02561763 -0.00744012
v -0.00450963 0.02642987 -0.00756044
v -0.00461975 0.02619346 -0.00787326
v -0.00447477 0.02636668 -0.00830569
v -0.00444625 0.02631752 -0.00873883
v -0.00454053 0.02605184 -0.00909624
v -0.00540957 0.02432905 -0.00951097
v -0.00621523 0.02291757 -0.00924416
v -0.00661846 0.02199649 -0.00960440
v -0.00673254 0.02177997 -0.00960440
v -0.00584290 0.02346648 -0.00960440
v -0.00644497 0.02232536 -0.00960440
v -0.00677373 0.02153419 -0.00996605
v 0.00098980 0.02153419 -0.00637284
v -0.00486850 0.02586458 -0.00637284
v -0.00477343 0.02603078 -0.00637284
v -0.00466490 0.02622038 -0.00657455
v -0.00464985 0.02622038 -0.00700769
v -0.00485978 0.02585054 -0.00700769
v -0.00532797 0.02461228 -0.00917126
v -0.00449775 0.02640881 -0.00787326
v -0.00451518 0.02643924 -0.00727168
v -0.00440981 0.02661128 -0.00742597
v -0.00416978 0.02702209 -0.00744012
v -0.00404303 0.02723861 -0.00744012
v -0.00415631 0.02699751 -0.00787326
v -0.00435753 0.02665225 -0.00787326
v -0.00430920 0.02665225 -0.00830569
v -0.00425217 0.02665225 -0.00873883
v -0.00408581 0.02687813 -0.00898654
v -0.00417612 0.02667565 -0.00914719
v -0.00443200 0.02620516 -0.00921301
v -0.00451280 0.02600269 -0.00938500
v -0.00529549 0.02447886 -0.00963483
v -0.00537392 0.02426234 -0.00979973
v -0.00550384 0.02409380 -0.00963483
v -0.00657806 0.02187125 -0.01003966
v -0.00674363 0.02153419 -0.01008637
v 0.00098980 0.02153419 -0.01345947
v 0.00098980 0.03349076 -0.00637284
v -0.00466490 0.02622038 -0.00637284
v -0.00452627 0.02645913 -0.00657455
v -0.00451914 0.02644743 -0.00700769
v -0.00439318 0.02666395 -0.00700769
v -0.00405095 0.02725148 -0.00700769
v -0.00370872 0.02783784 -0.00700769
v -0.00370001 0.02782145 -0.00744012
v -0.00402877 0.02721403 -0.00787326
v -0.00413175 0.02695538 -0.00830569
v -0.00410323 0.02690739 -0.00873883
v -0.00395905 0.02704783 -0.00914719
v -0.00406125 0.02683600 -0.00927530
v -0.00375863 0.02749024 -0.00873883
v -0.00363108 0.02770559 -0.00873883
v -0.00348611 0.02795020 -0.00873883
v -0.00359940 0.02765175 -0.00917126
v -0.00372694 0.02743640 -0.00917126
v -0.00402322 0.02676694 -0.00960440
v -0.00414522 0.02655042 -0.00960440
v -0.00451597 0.02557667 -0.01026189
v -0.00500634 0.02481241 -0.01003612
v -0.00518775 0.02448939 -0.01003612
v -0.00534381 0.02420733 -0.01003612
v -0.00545868 0.02399081 -0.01003612
v -0.00621998 0.02249507 -0.01015360
v -0.00666045 0.02164420 -0.01018616
v -0.00662638 0.02153419 -0.01046926
v 0.00097317 0.02153419 -0.01346230
v 0.00098980 0.02275723 -0.01347716
v 0.00098980 0.03348959 -0.00660923
v 0.00096604 0.03347321 -0.00657455
v 0.00096604 0.03347321 -0.00637284
v -0.00452627 0.02645913 -0.00637284
v -0.00440031 0.02667565 -0.00637284
v -0.00418404 0.02704666 -0.00637284
v -0.00405729 0.02726201 -0.00657455
v -0.00390756 0.02751716 -0.00657455
v -0.00371506 0.02784252 -0.00657455
v -0.00321518 0.02859975 -0.00765810
v -0.00355503 0.02801105 -0.00787326
v -0.00366515 0.02776294 -0.00822076
v -0.00355424 0.02757450 -0.00960440
v -0.00368099 0.02735916 -0.00960440
v -0.00384022 0.02708529 -0.00960440
v -0.00322786 0.02818778 -0.00943878
v -0.00342194 0.02795020 -0.00917126
v -0.00355345 0.02792445 -0.00834108
v -0.00331421 0.02832589 -0.00830569
v -0.00328569 0.02827907 -0.00873883
v -0.00325321 0.02822757 -0.00917126
v -0.00365168 0.02730883 -0.00983654
v -0.00373090 0.02709231 -0.01000286
v -0.00402084 0.02633156 -0.01046926
v -0.00446844 0.02549123 -0.01055065
v -0.00496752 0.02474336 -0.01031851
v -0.00361286 0.02724095 -0.01012459
v -0.00324291 0.02777932 -0.01033549
v -0.00369446 0.02695186 -0.01039282
v -0.00541432 0.02390654 -0.01036027
v -0.00577873 0.02334476 -0.01012034
v -0.00643863 0.02189232 -0.01046926
v -0.00585478 0.02305685 -0.01038150
v -0.00624613 0.02211235 -0.01069007
v -0.00647270 0.02153419 -0.01086913
v 0.00089553 0.02153419 -0.01347433
v 0.00089553 0.02275723 -0.01348778
v 0.00098980 0.02319027 -0.01347787
v 0.00098980 0.03348725 -0.00700769
v 0.00085117 0.03338309 -0.00637284
v 0.00074977 0.03330350 -0.00657455
v -0.00390835 0.02751716 -0.00637284
v -0.00381804 0.02766931 -0.00637284
v -0.00371506 0.02784252 -0.00637284
v -0.00321518 0.02859975 -0.00765669
v -0.00182487 0.03062802 -0.00744012
v -0.00197539 0.03040799 -0.00787326
v -0.00232317 0.02985791 -0.00830569
v -0.00246893 0.02964139 -0.00830569
v -0.00268599 0.02931603 -0.00830569
v -0.00282621 0.02909951 -0.00830569
v -0.00320013 0.02857635 -0.00794686
v -0.00331421 0.02841249 -0.00783079
v -0.00332133 0.02797009 -0.00959166
v -0.00328410 0.02784720 -0.01003612
v -0.00350909 0.02747970 -0.01000286
v -0.00237941 0.02950914 -0.00952442
v -0.00234852 0.02946232 -0.00981247
v -0.00317874 0.02854241 -0.00830569
v -0.00314943 0.02849559 -0.00873883
v -0.00278264 0.02903162 -0.00895186
v -0.00290068 0.02878585 -0.00917126
v -0.00333401 0.02753822 -0.01047563
v -0.00357563 0.02709231 -0.01050960
v -0.00364614 0.02686643 -0.01068087
v -0.00491920 0.02465792 -0.01060727
v -0.00482968 0.02490136 -0.01046501
v -0.00505387 0.02450343 -0.01046501
v -0.00319300 0.02769622 -0.01062425
v -0.00277630 0.02858805 -0.01022509
v -0.00239843 0.02911121 -0.01039070
v -0.00226930 0.02925283 -0.01050889
v -0.00529232 0.02405284 -0.01049049
v -0.00536600 0.02381525 -0.01064832
v -0.00550463 0.02365257 -0.01049049
v -0.00580646 0.02296322 -0.01067026
v -0.00531530 0.02371811 -0.01090169
v -0.00542858 0.02350276 -0.01090169
v -0.00538263 0.02341381 -0.01112533
v -0.00626039 0.02170623 -0.01115152
v -0.00629762 0.02153419 -0.01125273
v -0.00582151 0.02256061 -0.01113878
v 0.00046299 0.02153419 -0.01351963
v 0.00089553 0.02319027 -0.01348778
v 0.00046299 0.02189232 -0.01352175
v 0.00098980 0.02362331 -0.01346938
v 0.00098980 0.03347906 -0.00746277
v 0.00097713 0.03346267 -0.00787326
v 0.00076086 0.03329297 -0.00787326
v 0.00074977 0.03330350 -0.00637284
v 0.00048755 0.03308698 -0.00657455
v -0.00161811 0.03092530 -0.00637284
v -0.00161890 0.03092530 -0.00657455
v -0.00161653 0.03092295 -0.00700769
v -0.00160860 0.03091710 -0.00744012
v -0.00181141 0.03062451 -0.00787326
v -0.00179319 0.03059876 -0.00830569
v -0.00195559 0.03038224 -0.00830569
v -0.00214571 0.03011422 -0.00830569
v -0.00193578 0.03035532 -0.00866239
v -0.00205857 0.03015636 -0.00877917
v -0.00229623 0.02981695 -0.00873883
v -0.00244120 0.02960043 -0.00873883
v -0.00268203 0.02922357 -0.00877988
v -0.00300683 0.02881510 -0.00830569
v -0.00231841 0.02941434 -0.01003612
v -0.00260836 0.02924814 -0.00917126
v -0.00241031 0.02955595 -0.00917126
v -0.00226613 0.02977247 -0.00917126
v -0.00204907 0.03008496 -0.00917126
v -0.00224712 0.02966480 -0.00964261
v -0.00200629 0.03002059 -0.00960440
v -0.00195163 0.02994452 -0.01003612
v -0.00213621 0.02968118 -0.01003612
v -0.00327539 0.02740831 -0.01082738
v -0.00403748 0.02592778 -0.01101634
v -0.00409848 0.02603546 -0.01072829
v -0.00500079 0.02436884 -0.01081605
v -0.00454924 0.02520215 -0.01077359
v -0.00291098 0.02796307 -0.01090240
v -0.00314943 0.02753822 -0.01094344
v -0.00234772 0.02902811 -0.01067946
v -0.00191043 0.02945413 -0.01110269
v -0.00201342 0.02968704 -0.01043316
v -0.00187637 0.02983450 -0.01055348
v -0.00196905 0.02954542 -0.01081393
v -0.00510140 0.02409263 -0.01093708
v -0.00493979 0.02426116 -0.01110481
v -0.00500079 0.02394048 -0.01133483
v -0.00494692 0.02384100 -0.01155210
v -0.00609482 0.02186774 -0.01131147
v -0.00618671 0.02156462 -0.01143957
v -0.00621761 0.02153419 -0.01140985
v 0.00003045 0.02153419 -0.01355218
v 0.00046299 0.02232536 -0.01352175
v 0.00046299 0.02275723 -0.01351892
v 0.00046299 0.02319027 -0.01351538
v 0.00089553 0.02362331 -0.01347858
v 0.00098980 0.02405635 -0.01345451
v 0.00098980 0.03347087 -0.00789024
v 0.00098980 0.03345448 -0.00830640
v 0.00077274 0.03328478 -0.00830569
v 0.00052241 0.03306826 -0.00830569
v 0.00051290 0.03307645 -0.00787326
v 0.00027128 0.03290557 -0.00657455
v 0.00048755 0.03308698 -0.00637284
v -0.00152305 0.03103999 -0.00637284
v -0.00143907 0.03114182 -0.00657455
v -0.00143749 0.03113947 -0.00700769
v -0.00143353 0.03113362 -0.00744012
v -0.00159514 0.03090306 -0.00787326
v -0.00142323 0.03111841 -0.00787326
v -0.00157692 0.03088199 -0.00830569
v -0.00154998 0.03084922 -0.00873883
v -0.00191677 0.03032957 -0.00895044
v -0.00192073 0.02990239 -0.01026472
v -0.00189538 0.03030148 -0.00917126
v -0.00185022 0.03023711 -0.00960440
v -0.00142798 0.03068420 -0.01003612
v -0.00158167 0.03046768 -0.01003612
v -0.00321360 0.02730064 -0.01111613
v -0.00366673 0.02646967 -0.01115931
v -0.00448983 0.02509564 -0.01106235
v -0.00464034 0.02493998 -0.01091160
v -0.00284126 0.02782731 -0.01124494
v -0.00185102 0.02936401 -0.01133483
v -0.00193024 0.02905152 -0.01157121
v -0.00198807 0.02914749 -0.01133483
v -0.00277393 0.02771963 -0.01153299
v -0.00182725 0.02968704 -0.01093566
v -0.00152701 0.02995739 -0.01120036
v -0.00162999 0.02969406 -0.01134120
v -0.00175041 0.03007326 -0.01043316
v -0.00148819 0.03033542 -0.01069432
v -0.00411908 0.02563870 -0.01119823
v -0.00457063 0.02480773 -0.01123220
v -0.00466886 0.02451514 -0.01136031
v -0.00488117 0.02415700 -0.01133483
v -0.00321676 0.02644041 -0.01198666
v -0.00448190 0.02421786 -0.01193782
v -0.00486137 0.02362331 -0.01185643
v -0.00492791 0.02337285 -0.01195764
v -0.00588488 0.02189232 -0.01166534
v -0.00582309 0.02213108 -0.01156909
v -0.00449696 0.02467665 -0.01152096
v -0.00322786 0.02689335 -0.01157263
v -0.00276759 0.02727489 -0.01196189
v -0.00600926 0.02153419 -0.01175806
v -0.00613839 0.02153419 -0.01154432
v -0.00040288 0.02153419 -0.01357342
v 0.00003045 0.02189232 -0.01355006
v 0.00003045 0.02232536 -0.01354581
v 0.00003045 0.02275723 -0.01353944
v 0.00003045 0.02319027 -0.01353166
v 0.00003045 0.02362331 -0.01352175
v 0.00046299 0.02362331 -0.01350476
v 0.00089553 0.02405635 -0.01346230
v 0.00098980 0.02448939 -0.01343753
v 0.00098980 0.03342288 -0.00873883
v 0.00079254 0.03327073 -0.00873883
v 0.00053350 0.03305421 -0.00873883
v 0.00031723 0.03286110 -0.00873883
v 0.00030534 0.03287280 -0.00830569
v -0.00018740 0.03249477 -0.00680881
v 0.00027128 0.03290557 -0.00637284
v -0.00143828 0.03114182 -0.00637284
v -0.00122280 0.03139813 -0.00657455
v -0.00122122 0.03139696 -0.00700769
v -0.00121726 0.03139228 -0.00744012
v -0.00120696 0.03138057 -0.00787326
v -0.00140739 0.03109851 -0.00830569
v -0.00138362 0.03106574 -0.00873883
v -0.00135114 0.03102010 -0.00917126
v -0.00149294 0.03077432 -0.00942958
v -0.00152226 0.03038458 -0.01046926
v -0.00146363 0.03073452 -0.00971834
v -0.00106753 0.03121672 -0.00988183
v -0.00118953 0.03100605 -0.01002975
v -0.00136698 0.03060110 -0.01046926
v -0.00294979 0.02755227 -0.01136738
v -0.00316369 0.02721052 -0.01133483
v -0.00145175 0.02984738 -0.01148911
v -0.00154681 0.02955946 -0.01163916
v -0.00168782 0.02922708 -0.01174956
v -0.00182884 0.02889352 -0.01185997
v -0.00192073 0.02860561 -0.01198878
v -0.00229940 0.02808479 -0.01191093
v -0.00239605 0.02824045 -0.01162288
v -0.00230732 0.02852953 -0.01146293
v -0.00285948 0.02743172 -0.01167383
v -0.00157454 0.03010720 -0.01086418
v -0.00142640 0.03024648 -0.01098308
v -0.00103268 0.03073804 -0.01107438
v -0.00112299 0.03042906 -0.01133483
v -0.00134876 0.03010720 -0.01134120
v -0.00114992 0.03089135 -0.01046926
v -0.00109288 0.03081879 -0.01078633
v -0.00404699 0.02551113 -0.01148699
v -0.00407155 0.02425765 -0.01240776
v -0.00443912 0.02370992 -0.01233416
v -0.00456271 0.02392878 -0.01204540
v -0.00284602 0.02698697 -0.01206309
v -0.00272323 0.02676343 -0.01235185
v -0.00462371 0.02358820 -0.01219403
v -0.00500238 0.02308494 -0.01205460
v -0.00580408 0.02166176 -0.01197321
v -0.00595460 0.02153419 -0.01184299
v -0.00238733 0.02779571 -0.01203054
v -0.00247527 0.02751716 -0.01212679
v -0.00235010 0.02730181 -0.01241626
v -0.00260123 0.02714381 -0.01224003
v -0.00047814 0.02153419 -0.01357625
v -0.00040288 0.02189232 -0.01356917
v -0.00040288 0.02275723 -0.01355501
v -0.00083542 0.02189232 -0.01358474
v -0.00083542 0.02232536 -0.01357695
v -0.00040288 0.02319027 -0.01354369
v -0.00040288 0.02362331 -0.01352883
v 0.00003045 0.02405635 -0.01350618
v 0.00046299 0.02405635 -0.01348707
v 0.00089553 0.02448939 -0.01344461
v 0.00098980 0.02492126 -0.01341842
v 0.00098980 0.03341937 -0.00878341
v 0.00098980 0.03338426 -0.00917126
v 0.00081790 0.03324966 -0.00917126
v 0.00055568 0.03303315 -0.00917126
v 0.00033941 0.03284237 -0.00917126
v 0.00010809 0.03262585 -0.00917126
v 0.00008749 0.03264458 -0.00873883
v -0.00059380 0.03203598 -0.00830569
v -0.00037753 0.03223963 -0.00830569
v -0.00039258 0.03225367 -0.00787326
v -0.00015888 0.03247019 -0.00787326
v -0.00017077 0.03248073 -0.00744012
v -0.00060885 0.03205120 -0.00787326
v -0.00061598 0.03205822 -0.00744012
v -0.00062311 0.03206524 -0.00691781
v -0.00062470 0.03206758 -0.00657455
v -0.00018740 0.03249477 -0.00673733
v -0.00001233 0.03265043 -0.00637284
v -0.00112457 0.03151283 -0.00637284
v -0.00103901 0.03161465 -0.00657455
v -0.00103822 0.03161348 -0.00700769
v -0.00103347 0.03160880 -0.00744012
v -0.00119112 0.03136068 -0.00830569
v -0.00102317 0.03159709 -0.00787326
v -0.00116656 0.03133493 -0.00873883
v -0.00113487 0.03129982 -0.00917126
v -0.00109685 0.03125300 -0.00960440
v -0.00133530 0.03094285 -0.00958599
v -0.00102872 0.03116756 -0.01016917
v -0.00091860 0.03146952 -0.00960440
v -0.00065322 0.03166849 -0.01003612
v -0.00062311 0.03163337 -0.01026472
v -0.00106120 0.03034362 -0.01156484
v -0.00112933 0.03007794 -0.01173258
v -0.00106040 0.02990941 -0.01199373
v -0.00154048 0.02911355 -0.01204611
v -0.00166485 0.02875776 -0.01216147
v -0.00179160 0.02838323 -0.01228249
v -0.00199044 0.02838323 -0.01206592
v -0.00092019 0.03096977 -0.01091867
v -0.00063103 0.03121204 -0.01113949
v -0.00096296 0.03064557 -0.01133483
v -0.00098356 0.03110787 -0.01046926
v -0.00068569 0.03127641 -0.01090169
v -0.00280324 0.02647435 -0.01243607
v -0.00452072 0.02342083 -0.01242475
v -0.00506575 0.02272797 -0.01219969
v -0.00550621 0.02186657 -0.01220252
v -0.00567416 0.02153419 -0.01220464
v -0.00572090 0.02153419 -0.01214873
v -0.00243487 0.02701272 -0.01249269
v -0.00150007 0.02862316 -0.01243041
v -0.00157533 0.02838323 -0.01249057
v -0.00083542 0.02153419 -0.01358828
v -0.00126796 0.02189232 -0.01359394
v -0.00126796 0.02232536 -0.01358474
v -0.00126796 0.02319027 -0.01355501
v -0.00126796 0.02362331 -0.01353944
v -0.00083542 0.02448939 -0.01349910
v -0.00040288 0.02535430 -0.01345310
v 0.00003045 0.02448939 -0.01348566
v 0.00046299 0.02492126 -0.01344744
v 0.00046299 0.02448939 -0.01346725
v 0.00089553 0.02535430 -0.01340426
v 0.00098980 0.02535430 -0.01339860
v 0.00098980 0.03332223 -0.00960440
v 0.00085750 0.03321807 -0.00960440
v 0.00059212 0.03300155 -0.00960440
v 0.00037585 0.03281311 -0.00960440
v 0.00013898 0.03259660 -0.00960440
v -0.00010818 0.03241987 -0.00917126
v -0.00035535 0.03222441 -0.00873883
v -0.00012878 0.03243976 -0.00873883
v -0.00057162 0.03201258 -0.00873883
v -0.00076967 0.03179606 -0.00873883
v -0.00079027 0.03181946 -0.00830569
v -0.00080690 0.03183468 -0.00787326
v -0.00081720 0.03184287 -0.00744012
v -0.00082829 0.03184521 -0.00657455
v -0.00073323 0.03194938 -0.00637284
v -0.00062470 0.03206758 -0.00637284
v -0.00036010 0.03232507 -0.00637284
v -0.00022622 0.03245264 -0.00637284
v -0.00018423 0.03249243 -0.00637284
v -0.00014304 0.03253105 -0.00637284
v -0.00103901 0.03161348 -0.00637284
v -0.00094078 0.03172232 -0.00637284
v -0.00100653 0.03157720 -0.00830569
v -0.00098594 0.03155145 -0.00873883
v -0.00095742 0.03151634 -0.00917126
v -0.00074036 0.03142388 -0.01043316
v -0.00070233 0.03172349 -0.00960440
v -0.00050983 0.03194001 -0.00960440
v -0.00045992 0.03188500 -0.01003612
v -0.00020483 0.03208163 -0.01031143
v -0.00015730 0.03203130 -0.01060019
v -0.00057320 0.03157603 -0.01055348
v -0.00066431 0.03081762 -0.01161014
v -0.00054785 0.03066781 -0.01189890
v -0.00025949 0.03085039 -0.01204894
v -0.00078234 0.03004868 -0.01215298
v -0.00061994 0.02989887 -0.01241767
v -0.00091306 0.02968118 -0.01228957
v -0.00100970 0.02940966 -0.01238158
v -0.00140184 0.02891108 -0.01233487
v -0.00050349 0.03149176 -0.01090169
v -0.00022226 0.03166849 -0.01117700
v -0.00013116 0.03156315 -0.01146576
v -0.00053993 0.03110553 -0.01142825
v -0.00072847 0.03096860 -0.01130439
v -0.00287374 0.02622038 -0.01249906
v -0.00415077 0.02396857 -0.01248208
v -0.00429574 0.02358820 -0.01254011
v -0.00406442 0.02337870 -0.01283807
v -0.00428861 0.02321719 -0.01271917
v -0.00457855 0.02319027 -0.01247925
v -0.00495722 0.02256295 -0.01242829
v -0.00539372 0.02170506 -0.01243112
v -0.00543571 0.02153419 -0.01247004
v -0.00215760 0.02712157 -0.01265618
v -0.00227009 0.02665225 -0.01279348
v -0.00257429 0.02663235 -0.01255710
v -0.00111348 0.02912057 -0.01246438
v -0.00126162 0.02878585 -0.01252383
v -0.00148898 0.02774070 -0.01285223
v -0.00186686 0.02723041 -0.01281896
v -0.00091068 0.02153419 -0.01358969
v -0.00134401 0.02153419 -0.01359748
v -0.00170129 0.02189232 -0.01359889
v -0.00170129 0.02232536 -0.01358899
v -0.00126796 0.02405635 -0.01352175
v -0.00170129 0.02275723 -0.01357271
v -0.00083542 0.02492126 -0.01347787
v -0.00040288 0.02578734 -0.01342904
v 0.00003045 0.02578734 -0.01341983
v 0.00046299 0.02535430 -0.01342691
v 0.00089553 0.02578734 -0.01337949
v 0.00098980 0.02569371 -0.01337949
v 0.00098980 0.03324850 -0.00995402
v 0.00064203 0.03295824 -0.01003612
v 0.00042576 0.03276981 -0.01003612
v 0.00018493 0.03255329 -0.01003612
v -0.00007808 0.03238827 -0.00960440
v -0.00032841 0.03220335 -0.00917126
v -0.00054468 0.03198098 -0.00917126
v -0.00074115 0.03176446 -0.00917126
v -0.00029356 0.03217175 -0.00960440
v -0.00024365 0.03212142 -0.01003612
v -0.00003134 0.03233794 -0.01003612
v 0.00022375 0.03251584 -0.01031285
v -0.00008996 0.03195991 -0.01090169
v -0.00028722 0.03174339 -0.01090169
v 0.00027920 0.03246317 -0.01060161
v 0.00012631 0.03217994 -0.01090169
v -0.00025157 0.03127407 -0.01163491
v -0.00039971 0.03097796 -0.01176726
v -0.00012720 0.03113830 -0.01192367
v 0.00004392 0.03096860 -0.01219544
v -0.00007333 0.03063387 -0.01233770
v 0.00016116 0.03127992 -0.01205248
v 0.00021503 0.03079772 -0.01243466
v -0.00036723 0.03007092 -0.01247429
v -0.00040288 0.02968118 -0.01263920
v -0.00099624 0.02852719 -0.01282250
v 0.00020157 0.03210738 -0.01118762
v 0.00003520 0.03183936 -0.01132704
v 0.00030376 0.03201024 -0.01147637
v 0.00015720 0.03172115 -0.01164411
v -0.00361524 0.02421435 -0.01282462
v -0.00378873 0.02448939 -0.01254365
v -0.00399470 0.02362331 -0.01278145
v -0.00413809 0.02308962 -0.01288974
v -0.00450409 0.02252316 -0.01284303
v -0.00444150 0.02275723 -0.01279278
v -0.00369367 0.02392644 -0.01288195
v -0.00377843 0.02362331 -0.01293362
v -0.00473382 0.02272797 -0.01255144
v -0.00516874 0.02186657 -0.01255568
v -0.00493900 0.02166176 -0.01284444
v -0.00510299 0.02153419 -0.01275739
v -0.00196509 0.02694133 -0.01287771
v -0.00233980 0.02641934 -0.01284303
v -0.00271134 0.02587863 -0.01279561
v -0.00316369 0.02504766 -0.01281047
v -0.00125212 0.02838206 -0.01271917
v -0.00125212 0.02791040 -0.01290601
v -0.00170129 0.02665225 -0.01309427
v -0.00171397 0.02708529 -0.01295273
v -0.00205382 0.02665225 -0.01292725
v -0.00109685 0.02823811 -0.01287346
v -0.00170129 0.02153419 -0.01360102
v -0.00213383 0.02153419 -0.01360173
v -0.00213383 0.02189232 -0.01359394
v -0.00213383 0.02232536 -0.01357766
v -0.00170129 0.02319027 -0.01355501
v -0.00170129 0.02362331 -0.01353237
v -0.00126796 0.02448939 -0.01349698
v -0.00083542 0.02535430 -0.01345098
v -0.00083542 0.02578734 -0.01341559
v -0.00040288 0.02622038 -0.01339223
v 0.00003045 0.02622038 -0.01338799
v 0.00046299 0.02578734 -0.01340214
v 0.00098980 0.02578734 -0.01337383
v 0.00089553 0.02622038 -0.01334623
v 0.00098980 0.03322509 -0.01003683
v 0.00067451 0.03293132 -0.01026614
v 0.00047725 0.03269959 -0.01043387
v 0.00035367 0.03239646 -0.01090169
v 0.00073788 0.03288334 -0.01055489
v 0.00056994 0.03259074 -0.01090169
v 0.00030614 0.03156900 -0.01193287
v 0.00059450 0.03171179 -0.01203903
v 0.00086701 0.03141920 -0.01234194
v 0.00046299 0.03088667 -0.01248137
v 0.00046299 0.03054726 -0.01262646
v 0.00000035 0.02971044 -0.01280764
v 0.00003045 0.03011422 -0.01265052
v 0.00090821 0.03185106 -0.01210131
v -0.00016364 0.02944594 -0.01284373
v -0.00042348 0.02927975 -0.01279348
v -0.00058192 0.02899417 -0.01283524
v -0.00070788 0.02870626 -0.01288620
v -0.00084572 0.02838206 -0.01293291
v 0.00064440 0.03252286 -0.01116355
v 0.00077274 0.03242455 -0.01145160
v 0.00059212 0.03213664 -0.01163703
v 0.00044952 0.03186043 -0.01178495
v -0.00279294 0.02559071 -0.01285718
v -0.00324291 0.02475858 -0.01286992
v -0.00389805 0.02321719 -0.01299236
v -0.00422523 0.02275723 -0.01294211
v -0.00331975 0.02448939 -0.01291946
v -0.00345522 0.02406454 -0.01297891
v -0.00475759 0.02153419 -0.01299024
v -0.00480987 0.02153419 -0.01295909
v -0.00242298 0.02613143 -0.01289540
v -0.00126796 0.02751716 -0.01301642
v -0.00083542 0.02795020 -0.01305818
v -0.00126796 0.02708529 -0.01313462
v -0.00168228 0.02621453 -0.01321317
v -0.00213383 0.02578734 -0.01314382
v -0.00217106 0.02625315 -0.01299024
v -0.00256637 0.02153419 -0.01358403
v -0.00256637 0.02232536 -0.01354794
v -0.00213383 0.02275723 -0.01355289
v -0.00256637 0.02189232 -0.01356988
v -0.00170129 0.02405635 -0.01350335
v -0.00126796 0.02492126 -0.01346230
v -0.00083542 0.02622038 -0.01336888
v -0.00126796 0.02535430 -0.01342196
v -0.00040288 0.02665225 -0.01334340
v 0.00003045 0.02727840 -0.01327970
v 0.00003045 0.02706188 -0.01330377
v 0.00003045 0.02665225 -0.01334694
v 0.00046299 0.02622038 -0.01336888
v 0.00046299 0.02665225 -0.01332924
v 0.00098980 0.02622038 -0.01334057
v 0.00092088 0.02668502 -0.01330447
v 0.00098980 0.02675524 -0.01329456
v 0.00098980 0.03310103 -0.01044378
v 0.00088761 0.03303315 -0.01043387
v 0.00098980 0.03300037 -0.01071697
v 0.00098980 0.03294537 -0.01085144
v 0.00088761 0.03282833 -0.01093920
v 0.00077195 0.03199970 -0.01192579
v 0.00098980 0.03145899 -0.01235468
v 0.00098980 0.03128343 -0.01244881
v 0.00098980 0.03197981 -0.01205177
v 0.00098980 0.03184989 -0.01212750
v 0.00098980 0.03127407 -0.01245306
v 0.00089553 0.03054726 -0.01270785
v 0.00030376 0.02987430 -0.01284373
v 0.00086701 0.03101424 -0.01252808
v 0.00012551 0.02958521 -0.01287771
v -0.00040288 0.02838323 -0.01306667
v -0.00042348 0.02883617 -0.01293716
v 0.00098980 0.03286929 -0.01101280
v 0.00090821 0.03261649 -0.01131855
v 0.00098980 0.03257085 -0.01146222
v 0.00098980 0.03239529 -0.01167313
v -0.00286028 0.02535430 -0.01290035
v -0.00382755 0.02272680 -0.01316788
v -0.00433456 0.02235813 -0.01299519
v -0.00299891 0.02448939 -0.01310135
v -0.00343145 0.02362331 -0.01312400
v -0.00301159 0.02491072 -0.01296122
v -0.00434248 0.02153419 -0.01320822
v -0.00393370 0.02232536 -0.01321742
v -0.00256637 0.02535430 -0.01306243
v -0.00083542 0.02751716 -0.01315656
v -0.00126717 0.02666161 -0.01323653
v -0.00141056 0.02635380 -0.01326696
v -0.00183834 0.02578734 -0.01325847
v -0.00239130 0.02477262 -0.01329740
v -0.00254815 0.02491892 -0.01319760
v -0.00299891 0.02153419 -0.01354794
v -0.00299891 0.02189232 -0.01352883
v -0.00256637 0.02275723 -0.01351609
v -0.00213383 0.02362331 -0.01349556
v -0.00170129 0.02448939 -0.01346655
v -0.00112220 0.02652234 -0.01329598
v -0.00082591 0.02666161 -0.01330943
v -0.00067540 0.02691324 -0.01328820
v -0.00040288 0.02699517 -0.01329952
v -0.00126796 0.02578734 -0.01337454
v 0.00003045 0.02795020 -0.01319902
v 0.00003045 0.02751716 -0.01325210
v 0.00046299 0.02795020 -0.01319477
v 0.00046299 0.02700453 -0.01329527
v 0.00079413 0.02691675 -0.01328820
v 0.00098980 0.02687228 -0.01328324
v 0.00098980 0.03217526 -0.01188403
v 0.00098980 0.03054726 -0.01270926
v 0.00089553 0.03017976 -0.01281047
v 0.00059212 0.02992930 -0.01285789
v 0.00045428 0.02971044 -0.01289540
v 0.00046299 0.02924814 -0.01299448
v 0.00003045 0.02881510 -0.01303765
v 0.00003045 0.02838323 -0.01312825
v -0.00040288 0.02795020 -0.01315726
v 0.00098980 0.03266331 -0.01132563
v -0.00358276 0.02285086 -0.01325635
v -0.00269075 0.02448939 -0.01324785
v -0.00299337 0.02408210 -0.01321530
v -0.00343541 0.02323006 -0.01322733
v -0.00401768 0.02197776 -0.01325705
v -0.00412700 0.02153419 -0.01329952
v -0.00365802 0.02256295 -0.01328678
v -0.00096376 0.02681142 -0.01327262
v -0.00152622 0.02606589 -0.01329386
v -0.00191518 0.02556731 -0.01328183
v -0.00214175 0.02491892 -0.01333491
v -0.00213383 0.02448939 -0.01340568
v -0.00247448 0.02448939 -0.01332217
v -0.00284522 0.02395453 -0.01330589
v -0.00276284 0.02424244 -0.01327546
v -0.00343145 0.02153419 -0.01348636
v -0.00299891 0.02232536 -0.01349556
v -0.00213383 0.02405635 -0.01345664
v -0.00170129 0.02492126 -0.01341842
v -0.00126717 0.02621453 -0.01331651
v -0.00040288 0.02721169 -0.01326979
v -0.00040288 0.02751716 -0.01322733
v -0.00162207 0.02578734 -0.01331651
v 0.00046299 0.02881510 -0.01307233
v 0.00046299 0.02838323 -0.01313886
v 0.00098980 0.02795020 -0.01316929
v 0.00098980 0.02785657 -0.01317991
v 0.00098980 0.02751716 -0.01321742
v 0.00089553 0.02881510 -0.01307092
v 0.00098980 0.02828960 -0.01312895
v 0.00098980 0.03011305 -0.01282604
v 0.00089553 0.02996324 -0.01286567
v 0.00089553 0.02968118 -0.01292512
v 0.00089553 0.02924814 -0.01300581
v -0.00329440 0.02311302 -0.01331155
v -0.00371743 0.02232536 -0.01330943
v -0.00386954 0.02185721 -0.01333208
v -0.00386557 0.02153419 -0.01338091
v -0.00256637 0.02362331 -0.01342974
v -0.00259806 0.02408210 -0.01335472
v -0.00293553 0.02362331 -0.01333278
v -0.00343541 0.02272680 -0.01333278
v -0.00343145 0.02189232 -0.01345381
v -0.00299891 0.02275723 -0.01344885
v 0.00098980 0.02915451 -0.01301501
v 0.00098980 0.02881510 -0.01306596
v 0.00098980 0.02872147 -0.01307729
v 0.00098980 0.02995973 -0.01286497
v 0.00098980 0.02968704 -0.01291875
v 0.00098980 0.02924814 -0.01300014
v -0.00343145 0.02232536 -0.01339719
f 1 2 3
f 1 3 4
f 1 4 5
f 1 5 6
f 1 6 7
f 1 7 8
f 1 8 9
f 1 9 10
f 1 10 28
f 1 28 27
f 1 27 55
f 1 55 82
f 1 82 107
f 1 107 136
f 1 136 173
f 1 173 219
f 1 219 271
f 1 271 327
f 1 327 326
f 1 326 385
f 1 385 450
f 1 450 449
f 1 449 519
f 1 519 580
f 1 580 635
f 1 635 634
f 1 634 687
f 1 687 727
f 1 727 759
f 1 759 737
f 1 737 696
f 1 696 643
f 1 643 592
f 1 592 591
f 1 591 528
f 1 528 527
f 1 527 454
f 1 454 390
f 1 390 328
f 1 328 272
f 1 272 221
f 1 221 174
f 1 174 137
f 1 137 108
f 1 108 83
f 1 83 56
f 1 56 29
f 1 29 11
f 1 11 2
f 2 11 12
f 2 12 3
f 3 12 30
f 3 30 56
f 3 56 83
f 3 83 109
f 3 109 141
f 3 141 178
f 3 178 228
f 3 228 284
f 3 284 343
f 3 343 418
f 3 418 485
f 3 485 484
f 3 484 483
f 3 483 482
f 3 482 481
f 3 481 480
f 3 480 487
f 3 487 486
f 3 486 419
f 3 419 344
f 3 344 285
f 3 285 230
f 3 230 182
f 3 182 181
f 3 181 180
f 3 180 144
f 3 144 143
f 3 143 142
f 3 142 110
f 3 110 85
f 3 85 84
f 3 84 57
f 3 57 32
f 3 32 31
f 3 31 13
f 3 13 14
f 3 14 4
f 4 14 15
f 4 15 6
f 4 6 5
f 6 15 16
f 6 16 17
f 6 17 7
f 7 18 19
f 7 19 20
f 7 20 8
f 7 17 21
f 7 21 22
f 7 22 18
f 8 23 9
f 8 20 24
f 8 24 23
f 9 23 25
f 9 25 26
f 9 26 27
f 9 27 28
f 9 28 10
f 11 29 12
f 12 29 30
f 13 31 14
f 14 31 32
f 14 32 33
f 14 33 15
f 15 33 34
f 15 34 35
f 15 35 36
f 15 36 37
f 15 37 38
f 15 38 16
f 16 38 39
f 16 39 40
f 16 40 17
f 17 40 21
f 18 22 41
f 18 41 42
f 18 42 19
f 19 42 20
f 20 42 24
f 21 43 44
f 21 44 45
f 21 45 22
f 21 40 39
f 21 39 46
f 21 46 47
f 21 47 48
f 21 48 49
f 21 49 43
f 22 45 44
f 22 44 50
f 22 50 41
f 23 24 42
f 23 42 25
f 25 42 51
f 25 51 52
f 25 52 26
f 26 53 27
f 26 52 53
f 27 53 54
f 27 54 55
f 29 56 30
f 32 57 58
f 32 58 59
f 32 59 60
f 32 60 33
f 33 60 34
f 34 60 61
f 34 61 35
f 35 46 36
f 35 61 62
f 35 62 63
f 35 63 64
f 35 64 65
f 35 65 47
f 35 47 46
f 36 46 37
f 37 46 39
f 37 39 38
f 41 50 42
f 42 50 66
f 42 66 51
f 43 67 50
f 43 50 44
f 43 49 68
f 43 68 69
f 43 69 67
f 47 65 70
f 47 70 71
f 47 71 72
f 47 72 48
f 48 72 73
f 48 73 74
f 48 74 49
f 49 74 75
f 49 75 68
f 50 67 89
f 50 89 66
f 51 66 76
f 51 76 52
f 52 76 77
f 52 77 53
f 53 77 54
f 54 78 79
f 54 79 55
f 54 77 76
f 54 76 80
f 54 80 81
f 54 81 78
f 55 79 82
f 57 84 58
f 58 84 85
f 58 85 86
f 58 86 87
f 58 87 88
f 58 88 64
f 58 64 63
f 58 63 59
f 59 63 62
f 59 62 61
f 59 61 60
f 64 88 70
f 64 70 65
f 66 89 76
f 67 69 75
f 67 75 89
f 68 75 69
f 70 88 71
f 71 90 72
f 71 88 87
f 71 87 91
f 71 91 92
f 71 92 93
f 71 93 94
f 71 94 95
f 71 95 96
f 71 96 90
f 72 90 73
f 73 90 96
f 73 96 97
f 73 97 74
f 74 97 98
f 74 98 99
f 74 99 100
f 74 100 75
f 75 100 101
f 75 101 102
f 75 102 89
f 76 89 102
f 76 102 103
f 76 103 104
f 76 104 105
f 76 105 80
f 78 106 82
f 78 82 79
f 78 81 106
f 80 106 81
f 80 105 104
f 80 104 106
f 82 106 107
f 83 108 138
f 83 138 176
f 83 176 224
f 83 224 277
f 83 277 336
f 83 336 400
f 83 400 465
f 83 465 538
f 83 538 603
f 83 603 657
f 83 657 659
f 83 659 711
f 83 711 749
f 83 749 748
f 83 748 747
f 83 747 751
f 83 751 768
f 83 768 767
f 83 767 766
f 83 766 771
f 83 771 770
f 83 770 769
f 83 769 752
f 83 752 713
f 83 713 670
f 83 670 667
f 83 667 666
f 83 666 669
f 83 669 668
f 83 668 712
f 83 712 680
f 83 680 679
f 83 679 721
f 83 721 677
f 83 677 663
f 83 663 662
f 83 662 660
f 83 660 605
f 83 605 539
f 83 539 466
f 83 466 402
f 83 402 401
f 83 401 337
f 83 337 279
f 83 279 278
f 83 278 225
f 83 225 177
f 83 177 139
f 83 139 109
f 85 110 86
f 86 110 142
f 86 142 111
f 86 111 112
f 86 112 91
f 86 91 87
f 91 112 113
f 91 113 92
f 92 113 114
f 92 114 93
f 93 114 115
f 93 115 94
f 94 115 116
f 94 116 95
f 95 116 117
f 95 117 118
f 95 118 97
f 95 97 96
f 97 118 119
f 97 119 98
f 98 119 99
f 99 120 121
f 99 121 100
f 99 119 122
f 99 122 123
f 99 123 124
f 99 124 125
f 99 125 126
f 99 126 120
f 100 121 101
f 101 121 102
f 102 121 127
f 102 127 128
f 102 128 129
f 102 129 130
f 102 130 131
f 102 131 104
f 102 104 103
f 104 132 133
f 104 133 106
f 104 131 132
f 106 134 135
f 106 135 107
f 106 133 134
f 107 135 136
f 108 137 138
f 109 139 140
f 109 140 141
f 111 142 143
f 111 143 144
f 111 144 145
f 111 145 115
f 111 115 114
f 111 114 113
f 111 113 112
f 115 145 146
f 115 146 147
f 115 147 148
f 115 148 116
f 116 148 149
f 116 149 117
f 117 149 150
f 117 150 118
f 118 150 122
f 118 122 119
f 120 126 121
f 121 151 152
f 121 152 153
f 121 153 127
f 121 126 154
f 121 154 151
f 122 150 123
f 123 150 124
f 124 155 125
f 124 150 156
f 124 156 157
f 124 157 158
f 124 158 159
f 124 159 155
f 125 155 154
f 125 154 126
f 127 153 160
f 127 160 161
f 127 161 129
f 127 129 128
f 129 162 163
f 129 163 164
f 129 164 131
f 129 131 130
f 129 161 165
f 129 165 166
f 129 166 167
f 129 167 162
f 131 164 132
f 132 168 169
f 132 169 133
f 132 164 168
f 133 169 134
f 134 169 168
f 134 168 135
f 135 170 136
f 135 168 171
f 135 171 170
f 136 170 172
f 136 172 173
f 137 174 138
f 138 174 175
f 138 175 176
f 139 177 140
f 140 178 141
f 140 177 179
f 140 179 178
f 144 180 145
f 145 180 146
f 146 180 147
f 147 180 181
f 147 181 182
f 147 182 183
f 147 183 148
f 148 183 184
f 148 184 185
f 148 185 186
f 148 186 187
f 148 187 188
f 148 188 189
f 148 189 190
f 148 190 191
f 148 191 149
f 149 156 150
f 149 191 157
f 149 157 156
f 151 192 193
f 151 193 194
f 151 194 152
f 151 154 192
f 152 194 160
f 152 160 153
f 154 159 195
f 154 195 196
f 154 196 193
f 154 193 192
f 154 155 159
f 157 191 190
f 157 190 197
f 157 197 158
f 158 197 198
f 158 198 199
f 158 199 159
f 159 199 200
f 159 200 195
f 160 194 161
f 161 194 165
f 162 167 201
f 162 201 202
f 162 202 203
f 162 203 163
f 163 204 205
f 163 205 164
f 163 203 204
f 164 205 206
f 164 206 168
f 165 194 166
f 166 207 201
f 166 201 167
f 166 194 193
f 166 193 208
f 166 208 209
f 166 209 210
f 166 210 207
f 168 206 211
f 168 211 212
f 168 212 213
f 168 213 171
f 170 171 213
f 170 213 212
f 170 212 214
f 170 214 172
f 172 214 215
f 172 215 216
f 172 216 217
f 172 217 173
f 173 218 219
f 173 217 220
f 173 220 218
f 174 221 175
f 175 222 176
f 175 221 223
f 175 223 273
f 175 273 222
f 176 222 224
f 177 225 226
f 177 226 227
f 177 227 179
f 178 179 228
f 179 227 229
f 179 229 284
f 179 284 228
f 182 230 183
f 183 230 231
f 183 231 184
f 184 231 232
f 184 232 233
f 184 233 185
f 185 233 234
f 185 234 235
f 185 235 236
f 185 236 237
f 185 237 186
f 186 237 238
f 186 238 239
f 186 239 240
f 186 240 187
f 187 241 188
f 187 240 241
f 188 241 242
f 188 242 189
f 189 242 199
f 189 199 243
f 189 243 190
f 190 243 197
f 193 196 244
f 193 244 208
f 195 245 246
f 195 246 247
f 195 247 248
f 195 248 249
f 195 249 196
f 195 200 245
f 196 249 250
f 196 250 251
f 196 251 252
f 196 252 244
f 197 243 199
f 197 199 198
f 199 242 246
f 199 246 245
f 199 245 200
f 201 207 203
f 201 203 202
f 203 207 253
f 203 253 254
f 203 254 255
f 203 255 204
f 204 256 212
f 204 212 211
f 204 211 206
f 204 206 205
f 204 255 257
f 204 257 256
f 207 258 259
f 207 259 253
f 207 210 260
f 207 260 261
f 207 261 258
f 208 244 209
f 209 244 210
f 210 244 262
f 210 262 263
f 210 263 264
f 210 264 260
f 212 215 214
f 212 256 265
f 212 265 215
f 215 265 217
f 215 217 216
f 217 265 266
f 217 266 267
f 217 267 268
f 217 268 220
f 218 269 270
f 218 270 271
f 218 271 219
f 218 220 268
f 218 268 269
f 221 272 223
f 222 273 274
f 222 274 275
f 222 275 276
f 222 276 224
f 223 272 273
f 224 276 277
f 225 278 226
f 226 278 279
f 226 279 280
f 226 280 227
f 227 280 281
f 227 281 282
f 227 282 283
f 227 283 229
f 229 283 343
f 229 343 284
f 230 285 231
f 231 285 286
f 231 286 287
f 231 287 232
f 232 287 288
f 232 288 233
f 233 289 234
f 233 288 290
f 233 290 289
f 234 289 291
f 234 291 235
f 235 291 292
f 235 292 238
f 235 238 236
f 236 238 237
f 238 293 239
f 238 292 293
f 239 293 240
f 240 293 247
f 240 247 241
f 241 246 242
f 241 247 246
f 244 252 294
f 244 294 262
f 247 293 248
f 248 250 249
f 248 293 295
f 248 295 250
f 250 295 296
f 250 296 297
f 250 297 298
f 250 298 251
f 251 298 294
f 251 294 252
f 253 259 299
f 253 299 254
f 254 300 301
f 254 301 255
f 254 299 300
f 255 301 302
f 255 302 257
f 256 257 302
f 256 302 301
f 256 301 266
f 256 266 265
f 258 303 259
f 258 261 303
f 259 303 299
f 260 264 261
f 261 304 305
f 261 305 306
f 261 306 307
f 261 307 303
f 261 264 308
f 261 308 309
f 261 309 310
f 261 310 304
f 262 294 263
f 263 294 311
f 263 311 312
f 263 312 264
f 264 312 308
f 266 301 313
f 266 313 314
f 266 314 315
f 266 315 316
f 266 316 268
f 266 268 267
f 268 317 318
f 268 318 319
f 268 319 320
f 268 320 321
f 268 321 322
f 268 322 270
f 268 270 269
f 268 316 315
f 268 315 323
f 268 323 324
f 268 324 325
f 268 325 317
f 270 322 326
f 270 326 327
f 270 327 271
f 272 328 329
f 272 329 273
f 273 329 274
f 274 329 275
f 275 329 330
f 275 330 331
f 275 331 332
f 275 332 333
f 275 333 334
f 275 334 276
f 276 334 335
f 276 335 277
f 277 335 336
f 279 337 338
f 279 338 280
f 280 338 339
f 280 339 281
f 281 339 340
f 281 340 341
f 281 341 342
f 281 342 282
f 282 342 283
f 283 342 417
f 283 417 343
f 285 344 286
f 286 344 345
f 286 345 346
f 286 346 287
f 287 346 347
f 287 347 288
f 288 347 348
f 288 348 290
f 289 290 349
f 289 349 291
f 290 348 423
f 290 423 349
f 291 349 350
f 291 350 292
f 292 350 293
f 293 350 351
f 293 351 352
f 293 352 295
f 294 298 297
f 294 297 353
f 294 353 311
f 295 352 354
f 295 354 296
f 296 354 297
f 297 354 355
f 297 355 356
f 297 356 357
f 297 357 353
f 299 303 358
f 299 358 359
f 299 359 300
f 300 313 301
f 300 359 313
f 303 307 358
f 304 310 360
f 304 360 305
f 305 360 361
f 305 361 362
f 305 362 363
f 305 363 364
f 305 364 365
f 305 365 325
f 305 325 366
f 305 366 307
f 305 307 367
f 305 367 306
f 306 367 307
f 307 368 324
f 307 324 359
f 307 359 358
f 307 366 368
f 308 312 369
f 308 369 309
f 309 369 370
f 309 370 371
f 309 371 372
f 309 372 373
f 309 373 360
f 309 360 310
f 311 353 312
f 312 370 369
f 312 353 357
f 312 357 374
f 312 374 375
f 312 375 371
f 312 371 370
f 313 359 324
f 313 324 314
f 314 376 323
f 314 323 315
f 314 324 376
f 317 377 378
f 317 378 379
f 317 379 318
f 317 325 380
f 317 380 381
f 317 381 377
f 318 379 320
f 318 320 319
f 320 382 383
f 320 383 384
f 320 384 321
f 320 379 382
f 321 384 385
f 321 385 326
f 321 326 322
f 323 376 324
f 324 368 325
f 325 368 366
f 325 365 364
f 325 364 386
f 325 386 387
f 325 387 388
f 325 388 389
f 325 389 380
f 328 390 391
f 328 391 330
f 328 330 329
f 330 391 331
f 331 392 332
f 331 391 393
f 331 393 392
f 332 392 333
f 333 392 394
f 333 394 395
f 333 395 396
f 333 396 397
f 333 397 334
f 334 397 398
f 334 398 399
f 334 399 335
f 335 399 336
f 336 399 400
f 337 401 338
f 338 401 402
f 338 402 403
f 338 403 404
f 338 404 339
f 339 404 405
f 339 405 340
f 340 405 406
f 340 406 407
f 340 407 408
f 340 408 409
f 340 409 410
f 340 410 411
f 340 411 341
f 341 411 412
f 341 412 342
f 342 412 410
f 342 410 413
f 342 413 414
f 342 414 415
f 342 415 416
f 342 416 481
f 342 481 417
f 343 417 418
f 344 419 345
f 345 419 420
f 345 420 421
f 345 421 346
f 346 421 347
f 347 421 422
f 347 422 424
f 347 424 348
f 348 424 423
f 349 423 425
f 349 425 350
f 350 425 426
f 350 426 351
f 351 426 427
f 351 427 352
f 352 427 428
f 352 428 354
f 354 428 355
f 355 429 356
f 355 428 427
f 355 427 430
f 355 430 431
f 355 431 432
f 355 432 429
f 356 374 357
f 356 429 374
f 360 373 433
f 360 433 434
f 360 434 361
f 361 434 435
f 361 435 362
f 362 435 363
f 363 435 364
f 364 436 437
f 364 437 438
f 364 438 439
f 364 439 387
f 364 387 386
f 364 435 436
f 371 375 440
f 371 440 441
f 371 441 442
f 371 442 372
f 372 433 373
f 372 442 433
f 374 429 443
f 374 443 375
f 375 443 444
f 375 444 440
f 377 445 446
f 377 446 378
f 377 381 445
f 378 446 382
f 378 382 379
f 380 389 381
f 381 389 388
f 381 388 445
f 382 446 383
f 383 446 447
f 383 447 384
f 384 448 449
f 384 449 450
f 384 450 385
f 384 447 446
f 384 446 448
f 387 439 388
f 388 451 445
f 388 439 438
f 388 438 452
f 388 452 453
f 388 453 451
f 390 454 393
f 390 393 391
f 392 393 394
f 393 454 455
f 393 455 394
f 394 456 395
f 394 455 456
f 395 456 396
f 396 456 457
f 396 457 458
f 396 458 397
f 397 458 459
f 397 459 460
f 397 460 461
f 397 461 536
f 397 536 462
f 397 462 463
f 397 463 398
f 398 463 399
f 399 463 462
f 399 462 464
f 399 464 465
f 399 465 400
f 402 466 403
f 403 466 467
f 403 467 468
f 403 468 404
f 404 468 469
f 404 469 405
f 405 469 470
f 405 470 406
f 406 470 471
f 406 471 472
f 406 472 473
f 406 473 407
f 407 473 408
f 408 474 475
f 408 475 476
f 408 476 424
f 408 424 477
f 408 477 413
f 408 413 409
f 408 473 472
f 408 472 474
f 409 413 410
f 410 412 411
f 413 477 422
f 413 422 478
f 413 478 414
f 414 478 415
f 415 478 422
f 415 422 421
f 415 421 416
f 416 421 479
f 416 479 480
f 416 480 481
f 417 482 483
f 417 483 484
f 417 484 485
f 417 485 418
f 417 481 482
f 419 486 420
f 420 486 487
f 420 487 479
f 420 479 421
f 422 477 424
f 423 424 488
f 423 488 489
f 423 489 425
f 424 476 488
f 425 489 490
f 425 490 426
f 426 490 427
f 427 490 430
f 429 491 443
f 429 432 491
f 430 490 492
f 430 492 431
f 431 492 493
f 431 493 494
f 431 494 432
f 432 494 495
f 432 495 496
f 432 496 497
f 432 497 491
f 433 435 434
f 433 442 498
f 433 498 435
f 435 498 499
f 435 499 500
f 435 500 501
f 435 501 502
f 435 502 503
f 435 503 504
f 435 504 505
f 435 505 436
f 436 505 437
f 437 452 438
f 437 505 452
f 440 444 441
f 441 444 506
f 441 506 507
f 441 507 508
f 441 508 509
f 441 509 498
f 441 498 510
f 441 510 442
f 442 510 498
f 443 491 497
f 443 497 444
f 444 497 506
f 445 511 512
f 445 512 446
f 445 451 511
f 446 512 513
f 446 513 514
f 446 514 515
f 446 515 516
f 446 516 517
f 446 517 448
f 448 518 449
f 448 517 518
f 449 518 519
f 451 453 520
f 451 520 521
f 451 521 522
f 451 522 511
f 452 505 504
f 452 504 523
f 452 523 524
f 452 524 453
f 453 524 525
f 453 525 526
f 453 526 520
f 454 527 455
f 455 527 528
f 455 528 529
f 455 529 456
f 456 530 457
f 456 529 530
f 457 530 458
f 458 531 459
f 458 530 532
f 458 532 595
f 458 595 531
f 459 531 533
f 459 533 460
f 460 534 535
f 460 535 461
f 460 533 534
f 461 535 536
f 462 536 464
f 464 536 602
f 464 602 537
f 464 537 538
f 464 538 465
f 466 539 540
f 466 540 467
f 467 540 468
f 468 540 541
f 468 541 469
f 469 541 542
f 469 542 470
f 470 542 543
f 470 543 471
f 471 543 544
f 471 544 474
f 471 474 472
f 474 545 475
f 474 544 545
f 475 545 546
f 475 546 489
f 475 489 488
f 475 488 476
f 479 487 480
f 489 546 490
f 490 546 492
f 492 546 493
f 493 546 545
f 493 545 547
f 493 547 548
f 493 548 494
f 494 548 495
f 495 548 549
f 495 549 550
f 495 550 496
f 496 551 552
f 496 552 497
f 496 550 553
f 496 553 554
f 496 554 551
f 497 552 506
f 498 509 508
f 498 508 555
f 498 555 556
f 498 556 499
f 499 556 557
f 499 557 500
f 500 558 559
f 500 559 502
f 500 502 501
f 500 557 560
f 500 560 558
f 502 559 561
f 502 561 562
f 502 562 563
f 502 563 564
f 502 564 523
f 502 523 504
f 502 504 503
f 506 552 507
f 507 552 551
f 507 551 565
f 507 565 566
f 507 566 508
f 508 566 567
f 508 567 568
f 508 568 555
f 511 569 570
f 511 570 512
f 511 522 569
f 512 570 513
f 513 570 569
f 513 569 571
f 513 571 514
f 514 572 573
f 514 573 574
f 514 574 515
f 514 571 569
f 514 569 575
f 514 575 576
f 514 576 572
f 515 574 516
f 516 574 577
f 516 577 518
f 516 518 517
f 518 578 519
f 518 577 578
f 519 578 579
f 519 579 580
f 520 526 521
f 521 526 581
f 521 581 582
f 521 582 583
f 521 583 522
f 522 583 584
f 522 584 569
f 523 564 524
f 524 564 585
f 524 585 525
f 525 586 587
f 525 587 588
f 525 588 589
f 525 589 581
f 525 581 526
f 525 585 564
f 525 564 590
f 525 590 586
f 528 591 529
f 529 591 592
f 529 592 593
f 529 593 530
f 530 594 532
f 530 593 594
f 531 595 596
f 531 596 597
f 531 597 533
f 532 594 595
f 533 597 598
f 533 598 534
f 534 598 599
f 534 599 600
f 534 600 601
f 534 601 535
f 535 601 602
f 535 602 536
f 537 603 538
f 537 602 655
f 537 655 604
f 537 604 657
f 537 657 603
f 539 605 606
f 539 606 540
f 540 606 541
f 541 606 550
f 541 550 542
f 542 550 549
f 542 549 543
f 543 549 547
f 543 547 544
f 544 547 545
f 547 549 548
f 550 606 607
f 550 607 553
f 551 554 565
f 553 608 554
f 553 607 609
f 553 609 610
f 553 610 608
f 554 608 565
f 555 568 557
f 555 557 556
f 557 611 560
f 557 568 611
f 558 561 559
f 558 560 612
f 558 612 561
f 560 611 612
f 561 613 614
f 561 614 615
f 561 615 616
f 561 616 617
f 561 617 563
f 561 563 562
f 561 612 618
f 561 618 613
f 563 617 616
f 563 616 619
f 563 619 620
f 563 620 621
f 563 621 564
f 564 621 622
f 564 622 623
f 564 623 590
f 565 608 624
f 565 624 567
f 565 567 566
f 567 624 625
f 567 625 626
f 567 626 568
f 568 626 627
f 568 627 611
f 569 584 628
f 569 628 629
f 569 629 575
f 572 576 630
f 572 630 631
f 572 631 573
f 573 577 574
f 573 631 579
f 573 579 578
f 573 578 577
f 575 629 632
f 575 632 576
f 576 632 633
f 576 633 630
f 579 634 635
f 579 635 580
f 579 631 634
f 581 589 636
f 581 636 582
f 582 636 628
f 582 628 583
f 583 628 584
f 586 590 587
f 587 589 588
f 587 590 637
f 587 637 638
f 587 638 639
f 587 639 640
f 587 640 641
f 587 641 642
f 587 642 589
f 589 642 636
f 590 623 637
f 592 643 593
f 593 643 594
f 594 644 645
f 594 645 596
f 594 596 595
f 594 643 646
f 594 646 644
f 596 647 597
f 596 645 644
f 596 644 647
f 597 648 598
f 597 647 648
f 598 648 599
f 599 649 600
f 599 648 650
f 599 650 649
f 600 649 651
f 600 651 652
f 600 652 653
f 600 653 654
f 600 654 601
f 601 655 602
f 601 654 656
f 601 656 655
f 604 655 658
f 604 658 659
f 604 659 657
f 605 660 661
f 605 661 606
f 606 661 609
f 606 609 607
f 608 610 624
f 609 661 662
f 609 662 663
f 609 663 664
f 609 664 610
f 610 664 624
f 611 627 665
f 611 665 612
f 612 665 618
f 613 666 667
f 613 667 614
f 613 618 668
f 613 668 669
f 613 669 666
f 614 667 670
f 614 670 615
f 615 671 672
f 615 672 616
f 615 670 673
f 615 673 671
f 616 672 619
f 618 665 668
f 619 674 675
f 619 675 676
f 619 676 622
f 619 622 621
f 619 621 620
f 619 672 674
f 622 676 638
f 622 638 623
f 623 638 637
f 624 664 677
f 624 677 678
f 624 678 625
f 625 678 679
f 625 679 680
f 625 680 626
f 626 680 665
f 626 665 627
f 628 681 632
f 628 632 629
f 628 636 681
f 630 682 683
f 630 683 631
f 630 633 684
f 630 684 685
f 630 685 682
f 631 683 634
f 632 681 686
f 632 686 633
f 633 686 684
f 634 683 682
f 634 682 688
f 634 688 687
f 636 642 689
f 636 689 684
f 636 684 686
f 636 686 681
f 638 690 691
f 638 691 692
f 638 692 639
f 638 676 675
f 638 675 690
f 639 692 640
f 640 692 693
f 640 693 694
f 640 694 641
f 641 689 642
f 641 694 695
f 641 695 689
f 643 696 646
f 644 646 696
f 644 696 697
f 644 697 698
f 644 698 699
f 644 699 647
f 647 699 700
f 647 700 648
f 648 700 650
f 649 701 702
f 649 702 703
f 649 703 704
f 649 704 651
f 649 650 705
f 649 705 701
f 650 700 705
f 651 704 706
f 651 706 707
f 651 707 652
f 652 707 708
f 652 708 653
f 653 708 709
f 653 709 654
f 654 709 656
f 655 656 658
f 656 709 710
f 656 710 659
f 656 659 658
f 659 710 711
f 660 662 661
f 663 677 664
f 665 680 712
f 665 712 668
f 670 713 671
f 670 671 673
f 671 713 714
f 671 714 715
f 671 715 672
f 672 715 716
f 672 716 717
f 672 717 718
f 672 718 675
f 672 675 674
f 675 718 719
f 675 719 720
f 675 720 690
f 677 721 678
f 678 721 679
f 682 722 688
f 682 685 722
f 684 689 695
f 684 695 723
f 684 723 724
f 684 724 685
f 685 724 725
f 685 725 722
f 687 726 727
f 687 688 726
f 688 722 728
f 688 728 726
f 690 720 729
f 690 729 691
f 691 729 692
f 692 701 730
f 692 730 693
f 692 729 701
f 693 730 731
f 693 731 694
f 694 731 732
f 694 732 733
f 694 733 734
f 694 734 735
f 694 735 736
f 694 736 723
f 694 723 695
f 696 737 697
f 697 737 738
f 697 738 698
f 698 738 739
f 698 739 699
f 699 739 700
f 700 740 705
f 700 739 740
f 701 705 741
f 701 741 730
f 701 729 702
f 702 729 703
f 703 742 704
f 703 729 743
f 703 743 742
f 704 742 706
f 705 744 741
f 705 740 733
f 705 733 744
f 706 708 707
f 706 742 743
f 706 743 720
f 706 720 719
f 706 719 745
f 706 745 746
f 706 746 708
f 708 747 748
f 708 748 749
f 708 749 709
f 708 746 750
f 708 750 751
f 708 751 747
f 709 749 710
f 710 749 711
f 713 752 714
f 714 752 753
f 714 753 715
f 715 753 754
f 715 754 717
f 715 717 716
f 717 755 745
f 717 745 719
f 717 719 718
f 717 754 755
f 720 743 729
f 722 756 728
f 722 725 724
f 722 724 723
f 722 723 736
f 722 736 735
f 722 735 756
f 726 728 757
f 726 757 727
f 727 757 758
f 727 758 759
f 728 756 757
f 730 741 744
f 730 744 732
f 730 732 731
f 732 744 733
f 733 740 739
f 733 739 760
f 733 760 761
f 733 761 734
f 734 761 735
f 735 761 762
f 735 762 763
f 735 763 756
f 737 759 764
f 737 764 738
f 738 764 765
f 738 765 760
f 738 760 739
f 745 755 746
f 746 755 750
f 750 755 766
f 750 766 767
f 750 767 768
f 750 768 751
f 752 769 753
f 753 769 754
f 754 769 770
f 754 770 755
f 755 771 766
f 755 770 771
f 756 763 757
f 757 763 772
f 757 772 758
f 758 772 759
f 759 772 764
f 760 765 761
f 761 765 772
f 761 772 762
f 762 772 763
f 764 772 765

