# https://github.com/mikedh/trimesh
v -0.00299869 0.01886134 0.00090254
v -0.00256597 0.01842883 0.00090092
v -0.00256597 0.01886134 0.00090173
v -0.00256597 0.01929469 0.00090011
v -0.00256597 0.01972721 0.00089849
v -0.00299869 0.01929469 0.00090011
v -0.00601612 0.01309059 0.00086606
v -0.00601612 0.01308563 0.00086606
v -0.00213392 0.01842883 0.00089038
v -0.00213392 0.01886134 0.00089362
v -0.00083506 0.02102558 0.00087741
v -0.00126778 0.02059307 0.00088470
v -0.00126778 0.02102558 0.00088714
v -0.00256597 0.01799631 0.00089686
v -0.00126778 0.02145810 0.00088633
v -0.00170120 0.02102558 0.00089038
v -0.00170120 0.02145810 0.00088795
v -0.00213392 0.02102558 0.00089038
v -0.00299869 0.01972721 0.00089281
v -0.00343142 0.01929469 0.00088470
v -0.00343142 0.01886134 0.00089200
v -0.00205849 0.02153419 0.00088551
v -0.00213392 0.02145810 0.00088551
v -0.00601612 0.01324854 0.00086444
v -0.00601612 0.01308563 -0.00737919
v -0.00574524 0.01308563 0.00086444
v -0.00040233 0.02059307 0.00086119
v -0.00040233 0.02102558 0.00086606
v -0.00256597 0.01756297 0.00089119
v -0.00213392 0.01756297 0.00087903
v -0.00083506 0.02145810 0.00087741
v -0.00083506 0.02153419 0.00087660
v -0.00119235 0.02153419 0.00088389
v -0.00126778 0.02153419 0.00088470
v -0.00170120 0.02153419 0.00088714
v -0.00213392 0.02153419 0.00088389
v -0.00256597 0.02102558 0.00087984
v -0.00256597 0.02145810 0.00086768
v -0.00386415 0.01929469 0.00085714
v -0.00386415 0.01886134 0.00087092
v -0.00601612 0.01454692 0.00085066
v -0.00601612 0.01411358 0.00085552
v 0.00098980 0.01308563 -0.00737919
v -0.00601612 0.02065592 -0.00737919
v -0.00444706 0.01308563 0.00083850
v -0.00429687 0.01323614 0.00084012
v -0.00429687 0.01366866 0.00085228
v -0.00386415 0.01410200 0.00085471
v -0.00256597 0.01713128 0.00088470
v -0.00213392 0.01713128 0.00087336
v -0.00083506 0.01886134 0.00085066
v -0.00040233 0.02015972 0.00085390
v 0.00003040 0.02059307 0.00083769
v 0.00003040 0.02102558 0.00084336
v 0.00003040 0.02145810 0.00084336
v -0.00040233 0.02145810 0.00086363
v -0.00040233 0.02153419 0.00086282
v -0.00249122 0.02153419 0.00086930
v -0.00256597 0.02153419 0.00086444
v -0.00292326 0.02153419 0.00083850
v -0.00429687 0.01886134 0.00083931
v -0.00429687 0.01842883 0.00085633
v -0.00601612 0.01497944 0.00083850
v 0.00098980 0.02153419 -0.00737919
v 0.00098980 0.01308563 -0.00207665
v -0.00601612 0.02153419 -0.00503881
v -0.00503203 0.02153419 -0.00737919
v -0.00386415 0.01308563 0.00082390
v -0.00386415 0.01323614 0.00082958
v -0.00386415 0.01366866 0.00084336
v -0.00213392 0.01669876 0.00086444
v -0.00256597 0.01669876 0.00087579
v -0.00170120 0.01713128 0.00085471
v -0.00083506 0.01842883 0.00084255
v -0.00040233 0.01972721 0.00084579
v -0.00040233 0.01929469 0.00083606
v 0.00003040 0.02015972 0.00082634
v 0.00046312 0.02059307 0.00079634
v 0.00046312 0.02102558 0.00080688
v 0.00046312 0.02145810 0.00081093
v 0.00046312 0.02153419 0.00081093
v 0.00010583 0.02153419 0.00083769
v 0.00003040 0.02153419 0.00084255
v -0.00032690 0.02153419 0.00085957
v -0.00299869 0.02153419 0.00083120
v -0.00299869 0.02145810 0.00083525
v -0.00429687 0.01929469 0.00081337
v -0.00472960 0.01842883 0.00081255
v -0.00601612 0.01541196 0.00082228
v -0.00343142 0.02102558 0.00081337
v 0.00098980 0.02153419 0.00075500
v 0.00088008 0.01308563 -0.00181642
v 0.00098980 0.01326012 -0.00181804
v -0.00601612 0.02153419 -0.00096766
v -0.00358161 0.01308563 0.00080850
v -0.00343142 0.01366866 0.00082309
v -0.00343142 0.01410200 0.00083850
v -0.00213392 0.01626541 0.00084903
v -0.00170120 0.01669876 0.00084093
v -0.00126778 0.01756297 0.00084174
v -0.00040233 0.01886134 0.00082472
v -0.00083506 0.01799631 0.00082877
v 0.00003040 0.01929469 0.00079796
v 0.00046312 0.02015972 0.00078094
v 0.00089585 0.02102558 0.00075662
v 0.00089585 0.02145810 0.00076635
v 0.00089585 0.02153419 0.00076797
v 0.00053856 0.02153419 0.00080364
v -0.00335598 0.02153419 0.00078742
v -0.00386415 0.02059307 0.00078337
v -0.00472960 0.01886134 0.00078175
v -0.00601612 0.01584530 0.00079958
v -0.00601612 0.01583290 0.00080040
v -0.00343142 0.02145810 0.00078256
v 0.00097129 0.02153419 0.00075824
v 0.00098980 0.02111903 0.00074446
v 0.00080327 0.01308563 -0.00165834
v 0.00098980 0.01343462 -0.00159917
v -0.00595509 0.02153419 -0.00087281
v -0.00601612 0.02151599 -0.00095226
v -0.00343142 0.01308563 0.00079958
v -0.00343142 0.01323614 0.00080607
v -0.00170120 0.01626541 0.00082147
v -0.00126778 0.01713128 0.00082715
v -0.00040233 0.01842883 0.00080850
v 0.00003040 0.01886134 0.00077932
v 0.00089585 0.02059307 0.00073635
v 0.00046312 0.01972721 0.00075986
v -0.00343142 0.02153419 0.00077526
v -0.00386415 0.02102558 0.00074041
v -0.00472960 0.01929469 0.00073716
v -0.00516233 0.01842883 0.00073311
v -0.00516233 0.01799631 0.00077608
v -0.00429687 0.02015972 0.00073960
v -0.00559505 0.01713128 0.00076959
v -0.00601612 0.01627782 0.00076392
v 0.00098980 0.02068652 0.00072419
v 0.00072372 0.01308563 -0.00150675
v 0.00098980 0.01365129 -0.00136164
v -0.00601612 0.02148209 -0.00092550
v -0.00601612 0.02121662 -0.00072770
v -0.00583713 0.02153419 -0.00070176
v -0.00314888 0.01308563 0.00077202
v -0.00170120 0.01583290 0.00079634
v -0.00126778 0.01669876 0.00080526
v -0.00040233 0.01799631 0.00078580
v 0.00003040 0.01842883 0.00075094
v 0.00046312 0.01929469 0.00073473
v 0.00089585 0.02015972 0.00070960
v -0.00378871 0.02153419 0.00069339
v -0.00386415 0.02145810 0.00068366
v -0.00429687 0.02059307 0.00068366
v -0.00472960 0.01972721 0.00068204
v -0.00516233 0.01886134 0.00067961
v -0.00559505 0.01799631 0.00067150
v -0.00601612 0.01671034 0.00071771
v 0.00098980 0.02025317 0.00069663
v 0.00065720 0.01308563 -0.00139164
v 0.00098980 0.01386383 -0.00116384
v 0.00070177 0.01341560 -0.00113628
v 0.00059479 0.01308563 -0.00128706
v -0.00601612 0.02095860 -0.00056152
v -0.00563826 0.02153419 -0.00046667
v -0.00587760 0.02137292 -0.00065069
v -0.00299869 0.01308563 0.00075419
v -0.00213392 0.01453452 0.00075743
v -0.00256597 0.01410200 0.00077608
v -0.00126778 0.01626541 0.00077608
v -0.00083506 0.01669876 0.00075013
v -0.00040233 0.01756297 0.00075338
v 0.00046312 0.01886134 0.00070474
v 0.00003040 0.01799631 0.00071609
v 0.00089585 0.01972721 0.00068042
v -0.00386552 0.02153419 0.00067150
v -0.00430510 0.02100078 0.00061962
v -0.00473783 0.02013491 0.00061962
v -0.00517056 0.01926740 0.00061800
v -0.00560260 0.01839327 0.00061475
v -0.00597429 0.01756297 0.00062043
v -0.00601612 0.01739509 0.00063097
v -0.00601612 0.01721811 0.00065448
v 0.00098980 0.01981983 0.00066583
v 0.00098980 0.01427732 -0.00085984
v 0.00020733 0.01308563 -0.00078202
v 0.00034723 0.01308563 -0.00095064
v 0.00039386 0.01308563 -0.00100900
v 0.00056256 0.01308563 -0.00124004
v -0.00601612 0.02071794 -0.00041803
v -0.00575484 0.02113475 -0.00036209
v -0.00543732 0.02153419 -0.00024455
v -0.00271615 0.01308563 0.00071771
v -0.00256597 0.01366866 0.00074527
v -0.00126778 0.01583290 0.00074446
v -0.00083506 0.01626541 0.00071203
v 0.00046312 0.01842883 0.00066583
v 0.00091162 0.01888285 0.00060584
v 0.00089585 0.01929469 0.00064637
v 0.00003040 0.01756297 0.00067555
v -0.00410211 0.02153419 0.00059854
v -0.00415423 0.02145810 0.00059449
v -0.00458833 0.02059307 0.00059368
v -0.00502037 0.01972721 0.00059287
v -0.00545035 0.01886134 0.00059124
v -0.00581656 0.01822539 0.00056855
v -0.00601612 0.01752989 0.00061232
v -0.00575141 0.01851401 0.00054423
v 0.00098980 0.01941295 0.00063340
v 0.00098980 0.01438483 -0.00078364
v 0.00020527 0.01308563 -0.00077959
v -0.00583096 0.02084613 -0.00028022
v -0.00601612 0.02046323 -0.00027779
v -0.00540304 0.02153419 -0.00021455
v -0.00256597 0.01308563 0.00069258
v -0.00213392 0.01366866 0.00067880
v -0.00213392 0.01410200 0.00072095
v -0.00126778 0.01540038 0.00070393
v -0.00083506 0.01583290 0.00066501
v -0.00040233 0.01669876 0.00067150
v 0.00048781 0.01799300 0.00061394
v 0.00098980 0.01881751 0.00057990
v 0.00098980 0.01894156 0.00059205
v 0.00006126 0.01711308 0.00061881
v -0.00413572 0.02153419 0.00058719
v -0.00452798 0.02084034 0.00057260
v -0.00496002 0.01997448 0.00057179
v -0.00539069 0.01910531 0.00057098
v -0.00601612 0.01780031 0.00056855
v -0.00531937 0.01939310 0.00054423
v -0.00566706 0.01886134 0.00050450
v -0.00601612 0.01828245 0.00046802
v -0.00601612 0.01805668 0.00051828
v 0.00075458 0.01419297 -0.00065150
v -0.00000526 0.01308563 -0.00054206
v 0.00029236 0.01337673 -0.00067906
v 0.00098980 0.01464616 -0.00061745
v -0.00515890 0.02153419 -0.00000297
v -0.00601612 0.02021596 -0.00016267
v -0.00589405 0.02059307 -0.00022266
v -0.00224502 0.01308563 0.00063340
v -0.00170120 0.01410200 0.00064313
v -0.00170120 0.01453452 0.00069177
v -0.00126778 0.01496704 0.00065448
v -0.00038039 0.01626045 0.00061638
v 0.00022653 0.01695678 0.00056125
v 0.00064828 0.01784662 0.00055801
v 0.00098980 0.01866866 0.00056368
v -0.00006218 0.01669876 0.00059692
v -0.00428522 0.02153419 0.00052477
v -0.00445460 0.02112896 0.00054260
v -0.00488733 0.02026310 0.00054342
v -0.00523639 0.01972721 0.00050450
v -0.00555871 0.01926740 0.00045749
v -0.00601612 0.01894322 0.00030265
v -0.00601612 0.01889856 0.00031400
v -0.00601612 0.01837425 0.00044614
v -0.00598801 0.01839327 0.00045586
v -0.00019180 0.01308563 -0.00034183
v 0.00098980 0.01472555 -0.00057449
v -0.00021168 0.01308563 -0.00032156
v -0.00510609 0.02153419 0.00004243
v -0.00515753 0.02149449 0.00001567
v -0.00601612 0.02016882 -0.00014159
v -0.00214147 0.01308563 0.00061232
v -0.00210169 0.01321216 0.00061962
v -0.00142757 0.01410200 0.00058152
v -0.00148381 0.01388450 0.00056611
v -0.00022197 0.01611325 0.00055720
v 0.00015384 0.01669876 0.00053936
v 0.00046312 0.01669876 0.00042587
v 0.00044324 0.01711308 0.00050694
v 0.00089585 0.01756297 0.00041533
v 0.00057765 0.01756297 0.00053531
v 0.00098980 0.01842717 0.00052720
v -0.00435036 0.02153419 0.00049478
v -0.00437094 0.02145810 0.00050369
v -0.00480435 0.02059307 0.00050450
v -0.00512735 0.02013491 0.00045667
v -0.00469531 0.02100078 0.00045586
v -0.00563689 0.01976773 0.00028481
v -0.00601612 0.01911771 0.00025482
v 0.00098980 0.01496704 -0.00044478
v 0.00023750 0.01390187 -0.00030697
v -0.00013488 0.01336019 -0.00025995
v -0.00042085 0.01308563 -0.00016510
v -0.00497099 0.02153419 0.00015024
v -0.00601612 0.01978179 0.00002621
v -0.00537423 0.02080064 0.00013079
v -0.00197208 0.01308563 0.00057422
v -0.00192750 0.01308563 0.00056368
v -0.00188773 0.01308563 0.00055152
v -0.00121086 0.01410200 0.00051666
v -0.00075894 0.01496704 0.00052558
v -0.00030221 0.01583290 0.00053288
v -0.00040233 0.01496704 0.00039587
v 0.00089585 0.01713128 0.00033507
v 0.00046312 0.01626541 0.00033345
v 0.00098980 0.01765642 0.00039425
v 0.00098980 0.01810713 0.00047208
v -0.00471520 0.02153419 0.00030103
v -0.00520347 0.02063111 0.00028400
v -0.00553471 0.02015972 0.00023050
v -0.00597018 0.01929469 0.00023050
v -0.00601612 0.01925830 0.00021429
v 0.00098980 0.01504725 -0.00040425
v 0.00031911 0.01419049 -0.00024617
v 0.00098980 0.01521431 -0.00032318
v -0.00004641 0.01366866 -0.00019591
v -0.00052783 0.01308563 -0.00009052
v -0.00037696 0.01322373 -0.00014078
v -0.00062589 0.01346522 0.00012998
v -0.00475840 0.02153419 0.00027752
v -0.00500940 0.02137375 0.00017700
v -0.00601612 0.01949234 0.00013889
v -0.00580902 0.01993892 0.00013160
v -0.00544487 0.02051202 0.00017781
v -0.00180406 0.01308563 0.00052315
v -0.00170806 0.01308563 0.00048991
v -0.00131099 0.01371166 0.00047289
v -0.00083506 0.01410200 0.00037723
v -0.00087140 0.01456429 0.00048586
v -0.00040233 0.01453452 0.00029778
v 0.00098980 0.01713128 0.00029292
v 0.00098980 0.01722059 0.00031157
v 0.00092122 0.01668801 0.00022969
v 0.00098980 0.01672770 0.00020861
v 0.00079161 0.01626541 0.00018916
v -0.00587965 0.01965030 0.00017862
v -0.00509855 0.02102558 0.00022969
v 0.00010103 0.01453452 0.00004080
v 0.00003040 0.01410117 -0.00007917
v 0.00098980 0.01534249 -0.00027049
v 0.00098980 0.01547316 -0.00021699
v 0.00098980 0.01553022 -0.00019429
v 0.00046312 0.01457091 -0.00019834
v -0.00074796 0.01308563 0.00006269
v 0.00018813 0.01485126 0.00010079
v -0.00017671 0.01430048 0.00013889
v -0.00079665 0.01363310 0.00024914
v -0.00102433 0.01308563 0.00021185
v -0.00095644 0.01308563 0.00017943
v -0.00084603 0.01308563 0.00012187
v -0.00141797 0.01308563 0.00038209
v -0.00126778 0.01323614 0.00035615
v 0.00071480 0.01597845 0.00015349
v 0.00098980 0.01644983 0.00014052
v 0.00090614 0.01541692 -0.00017970
v 0.00098980 0.01593627 -0.00003864
v 0.00063320 0.01569065 0.00010890
v -0.00126024 0.01308563 0.00031562
v 0.00098980 0.01624722 0.00007323
f 1 2 3
f 1 3 4
f 1 4 5
f 1 5 6
f 1 6 7
f 1 7 8
f 1 8 2
f 2 9 10
f 2 10 11
f 2 11 12
f 2 12 13
f 2 13 3
f 2 8 14
f 2 14 9
f 3 13 15
f 3 15 16
f 3 16 4
f 4 16 5
f 5 16 17
f 5 17 18
f 5 18 6
f 6 19 20
f 6 20 21
f 6 21 7
f 6 18 22
f 6 22 23
f 6 23 19
f 7 24 42
f 7 42 41
f 7 41 63
f 7 63 89
f 7 89 113
f 7 113 112
f 7 112 136
f 7 136 156
f 7 156 181
f 7 181 180
f 7 180 205
f 7 205 227
f 7 227 231
f 7 231 230
f 7 230 255
f 7 255 254
f 7 254 253
f 7 253 280
f 7 280 303
f 7 303 313
f 7 313 286
f 7 286 262
f 7 262 237
f 7 237 211
f 7 211 188
f 7 188 162
f 7 162 141
f 7 141 140
f 7 140 120
f 7 120 94
f 7 94 66
f 7 66 44
f 7 44 25
f 7 25 8
f 7 21 24
f 8 25 43
f 8 43 65
f 8 65 92
f 8 92 117
f 8 117 138
f 8 138 158
f 8 158 161
f 8 161 187
f 8 187 186
f 8 186 185
f 8 185 184
f 8 184 209
f 8 209 233
f 8 233 257
f 8 257 259
f 8 259 284
f 8 284 308
f 8 308 335
f 8 335 341
f 8 341 340
f 8 340 339
f 8 339 349
f 8 349 342
f 8 342 317
f 8 317 316
f 8 316 290
f 8 290 289
f 8 289 288
f 8 288 263
f 8 263 239
f 8 239 213
f 8 213 191
f 8 191 165
f 8 165 143
f 8 143 121
f 8 121 95
f 8 95 68
f 8 68 45
f 8 45 26
f 8 26 14
f 9 27 28
f 9 28 11
f 9 11 10
f 9 14 29
f 9 29 30
f 9 30 27
f 11 28 31
f 11 31 13
f 11 13 12
f 13 31 15
f 14 26 29
f 15 17 16
f 15 31 32
f 15 32 33
f 15 33 34
f 15 34 35
f 15 35 17
f 17 35 22
f 17 22 18
f 19 23 36
f 19 36 37
f 19 37 20
f 20 37 38
f 20 38 39
f 20 39 40
f 20 40 41
f 20 41 21
f 21 41 42
f 21 42 24
f 22 35 34
f 22 34 33
f 22 33 32
f 22 32 57
f 22 57 84
f 22 84 83
f 22 83 82
f 22 82 81
f 22 81 108
f 22 108 107
f 22 107 115
f 22 115 91
f 22 91 64
f 22 64 67
f 22 67 66
f 22 66 94
f 22 94 119
f 22 119 142
f 22 142 163
f 22 163 190
f 22 190 212
f 22 212 236
f 22 236 260
f 22 260 285
f 22 285 311
f 22 311 299
f 22 299 274
f 22 274 248
f 22 248 223
f 22 223 199
f 22 199 174
f 22 174 150
f 22 150 129
f 22 129 109
f 22 109 85
f 22 85 60
f 22 60 59
f 22 59 58
f 22 58 36
f 22 36 23
f 25 44 67
f 25 67 64
f 25 64 43
f 26 45 46
f 26 46 47
f 26 47 48
f 26 48 49
f 26 49 29
f 27 30 50
f 27 50 51
f 27 51 52
f 27 52 53
f 27 53 54
f 27 54 28
f 28 54 55
f 28 55 56
f 28 56 31
f 29 49 50
f 29 50 30
f 31 56 57
f 31 57 32
f 36 58 37
f 37 58 38
f 38 58 59
f 38 59 60
f 38 60 39
f 39 61 62
f 39 62 40
f 39 60 61
f 40 62 41
f 41 62 63
f 43 64 91
f 43 91 116
f 43 116 137
f 43 137 157
f 43 157 182
f 43 182 207
f 43 207 221
f 43 221 220
f 43 220 246
f 43 246 273
f 43 273 298
f 43 298 297
f 43 297 323
f 43 323 322
f 43 322 325
f 43 325 345
f 43 345 350
f 43 350 347
f 43 347 333
f 43 333 332
f 43 332 331
f 43 331 306
f 43 306 304
f 43 304 281
f 43 281 258
f 43 258 235
f 43 235 208
f 43 208 183
f 43 183 159
f 43 159 139
f 43 139 118
f 43 118 93
f 43 93 65
f 44 66 67
f 45 68 69
f 45 69 46
f 46 69 70
f 46 70 47
f 47 70 48
f 48 70 71
f 48 71 72
f 48 72 49
f 49 72 71
f 49 71 50
f 50 71 73
f 50 73 74
f 50 74 51
f 51 74 75
f 51 75 52
f 52 75 53
f 53 75 76
f 53 76 101
f 53 101 77
f 53 77 78
f 53 78 79
f 53 79 54
f 54 79 80
f 54 80 81
f 54 81 55
f 55 81 82
f 55 82 83
f 55 83 84
f 55 84 56
f 56 84 57
f 60 85 86
f 60 86 61
f 61 87 88
f 61 88 89
f 61 89 62
f 61 86 85
f 61 85 90
f 61 90 87
f 62 89 63
f 65 93 92
f 68 95 96
f 68 96 69
f 69 96 97
f 69 97 70
f 70 97 71
f 71 98 99
f 71 99 73
f 71 97 96
f 71 96 98
f 73 99 100
f 73 100 74
f 74 101 76
f 74 76 75
f 74 100 102
f 74 102 101
f 77 101 103
f 77 103 78
f 78 103 104
f 78 104 105
f 78 105 79
f 79 105 106
f 79 106 107
f 79 107 80
f 80 107 108
f 80 108 81
f 85 109 90
f 87 110 111
f 87 111 88
f 87 90 110
f 88 111 112
f 88 112 113
f 88 113 89
f 90 109 114
f 90 114 110
f 91 115 116
f 92 93 117
f 93 118 117
f 94 120 119
f 95 121 122
f 95 122 96
f 96 122 99
f 96 99 98
f 99 123 124
f 99 124 102
f 99 102 100
f 99 122 121
f 99 121 123
f 101 102 125
f 101 125 103
f 102 124 145
f 102 145 125
f 103 125 126
f 103 126 104
f 104 127 105
f 104 126 128
f 104 128 127
f 105 116 115
f 105 115 106
f 105 127 137
f 105 137 116
f 106 115 107
f 109 129 114
f 110 114 129
f 110 129 130
f 110 130 134
f 110 134 111
f 111 131 132
f 111 132 133
f 111 133 112
f 111 134 131
f 112 133 135
f 112 135 136
f 117 118 138
f 118 139 138
f 119 120 140
f 119 140 141
f 119 141 142
f 121 143 144
f 121 144 123
f 123 144 145
f 123 145 124
f 125 145 146
f 125 146 126
f 126 146 147
f 126 147 148
f 126 148 128
f 127 128 148
f 127 148 149
f 127 149 137
f 129 150 130
f 130 150 151
f 130 151 152
f 130 152 134
f 131 153 154
f 131 154 132
f 131 134 153
f 132 154 155
f 132 155 156
f 132 156 136
f 132 136 135
f 132 135 133
f 134 152 153
f 137 149 157
f 138 139 158
f 139 159 160
f 139 160 161
f 139 161 158
f 141 162 142
f 142 162 164
f 142 164 163
f 143 165 166
f 143 166 167
f 143 167 144
f 144 168 145
f 144 167 166
f 144 166 168
f 145 168 146
f 146 168 169
f 146 169 170
f 146 170 147
f 147 171 148
f 147 170 172
f 147 172 171
f 148 173 149
f 148 171 173
f 149 173 157
f 150 174 151
f 151 175 152
f 151 174 175
f 152 176 153
f 152 175 176
f 153 177 154
f 153 176 177
f 154 177 178
f 154 178 179
f 154 179 155
f 155 179 180
f 155 180 181
f 155 181 156
f 157 173 182
f 159 183 160
f 160 183 184
f 160 184 185
f 160 185 186
f 160 186 187
f 160 187 161
f 162 188 189
f 162 189 163
f 162 163 164
f 163 189 190
f 165 191 192
f 165 192 166
f 166 192 191
f 166 191 193
f 166 193 168
f 168 193 169
f 169 193 194
f 169 194 170
f 170 194 172
f 171 172 195
f 171 195 196
f 171 196 197
f 171 197 173
f 172 194 198
f 172 198 195
f 173 197 182
f 174 199 200
f 174 200 175
f 175 200 176
f 176 200 201
f 176 201 202
f 176 202 177
f 177 203 178
f 177 202 203
f 178 204 205
f 178 205 179
f 178 203 206
f 178 206 204
f 179 205 180
f 182 197 207
f 183 208 209
f 183 209 184
f 188 210 189
f 188 211 210
f 189 210 190
f 190 210 212
f 191 213 214
f 191 214 215
f 191 215 193
f 193 216 194
f 193 215 216
f 194 216 217
f 194 217 218
f 194 218 198
f 195 198 219
f 195 219 196
f 196 219 220
f 196 220 221
f 196 221 197
f 197 221 207
f 198 218 222
f 198 222 219
f 199 223 200
f 200 224 201
f 200 223 224
f 201 224 225
f 201 225 202
f 202 225 226
f 202 226 203
f 203 226 206
f 204 227 205
f 204 206 227
f 206 226 228
f 206 228 229
f 206 229 230
f 206 230 231
f 206 231 227
f 208 232 233
f 208 233 234
f 208 234 209
f 208 235 232
f 209 234 233
f 210 236 212
f 210 211 237
f 210 237 238
f 210 238 236
f 213 239 214
f 214 240 241
f 214 241 215
f 214 239 240
f 215 241 216
f 216 242 217
f 216 241 240
f 216 240 242
f 217 243 218
f 217 242 243
f 218 243 222
f 219 222 244
f 219 244 245
f 219 245 246
f 219 246 220
f 222 243 247
f 222 247 244
f 223 248 249
f 223 249 224
f 224 249 250
f 224 250 228
f 224 228 225
f 225 228 226
f 228 250 251
f 228 251 229
f 229 251 252
f 229 252 253
f 229 253 254
f 229 254 255
f 229 255 256
f 229 256 230
f 230 256 255
f 232 257 233
f 232 235 257
f 235 258 259
f 235 259 257
f 236 238 261
f 236 261 260
f 237 262 238
f 238 262 261
f 239 263 264
f 239 264 240
f 240 265 242
f 240 264 265
f 242 265 243
f 243 244 247
f 243 265 266
f 243 266 244
f 244 267 268
f 244 268 269
f 244 269 270
f 244 270 271
f 244 271 272
f 244 272 245
f 244 266 267
f 245 272 271
f 245 271 273
f 245 273 246
f 248 274 275
f 248 275 249
f 249 275 276
f 249 276 250
f 250 276 251
f 251 276 252
f 252 276 277
f 252 277 253
f 253 277 278
f 253 278 279
f 253 279 280
f 258 281 282
f 258 282 259
f 259 282 283
f 259 283 284
f 260 261 262
f 260 262 286
f 260 286 287
f 260 287 285
f 263 288 264
f 264 288 265
f 265 288 266
f 266 288 289
f 266 289 290
f 266 290 291
f 266 291 292
f 266 292 267
f 267 292 293
f 267 293 268
f 268 293 294
f 268 294 269
f 269 295 271
f 269 271 270
f 269 294 296
f 269 296 295
f 271 295 297
f 271 297 298
f 271 298 273
f 274 299 278
f 274 278 276
f 274 276 275
f 276 278 277
f 278 299 300
f 278 300 279
f 279 300 301
f 279 301 302
f 279 302 280
f 280 302 303
f 281 304 282
f 282 305 283
f 282 304 306
f 282 306 305
f 283 305 307
f 283 307 284
f 284 307 309
f 284 309 310
f 284 310 308
f 285 287 312
f 285 312 311
f 286 313 314
f 286 314 287
f 287 314 327
f 287 327 315
f 287 315 312
f 290 316 291
f 291 316 317
f 291 317 318
f 291 318 319
f 291 319 294
f 291 294 320
f 291 320 292
f 292 320 293
f 293 320 294
f 294 319 321
f 294 321 296
f 295 322 323
f 295 323 297
f 295 296 324
f 295 324 325
f 295 325 322
f 296 326 324
f 296 321 326
f 299 311 300
f 300 311 301
f 301 327 302
f 301 311 328
f 301 328 327
f 302 327 303
f 303 327 313
f 305 329 330
f 305 330 310
f 305 310 307
f 305 306 331
f 305 331 332
f 305 332 333
f 305 333 334
f 305 334 329
f 307 310 309
f 308 310 335
f 310 330 329
f 310 329 336
f 310 336 337
f 310 337 338
f 310 338 339
f 310 339 340
f 310 340 341
f 310 341 335
f 311 312 328
f 312 315 328
f 313 327 314
f 315 327 328
f 317 342 318
f 318 342 319
f 319 342 343
f 319 343 321
f 321 343 338
f 321 338 337
f 321 337 344
f 321 344 326
f 324 326 325
f 325 326 345
f 326 344 345
f 329 334 346
f 329 346 333
f 329 333 347
f 329 347 336
f 333 346 334
f 336 347 348
f 336 348 337
f 337 348 344
f 338 343 349
f 338 349 339
f 342 349 343
f 344 348 345
f 345 348 350
f 347 350 348

