# https://github.com/mikedh/trimesh
v -0.01126985 0.00682323 -0.00712356
v -0.01127109 0.00682323 -0.00710237
v -0.01123494 0.00717658 -0.00712356
v 0.00142300 0.00682323 -0.00712356
v -0.01129229 0.00682323 -0.00657410
v -0.01125614 0.00717658 -0.00657410
v -0.01122622 0.00746876 -0.00657410
v -0.01121251 0.00738997 -0.00712356
v 0.00138934 0.00688414 -0.00712356
v 0.00142674 0.00682323 -0.00705305
v -0.01129353 0.00682323 -0.00614134
v -0.01125738 0.00717658 -0.00614134
v -0.01122622 0.00746876 -0.00614134
v -0.01120877 0.00746876 -0.00700686
v -0.01120378 0.00746876 -0.00712356
v 0.00121482 0.00719750 -0.00712356
v 0.00120983 0.00721595 -0.00698081
v 0.00124598 0.00717658 -0.00657410
v 0.00144170 0.00682323 -0.00657410
v -0.01127608 0.00682323 -0.00570858
v -0.01118134 0.00746876 -0.00498407
v -0.01121001 0.00746876 -0.00570858
v 0.00105650 0.00746876 -0.00712356
v 0.00111384 0.00737544 -0.00712356
v 0.00110138 0.00739717 -0.00712356
v 0.00111260 0.00739458 -0.00681931
v 0.00111634 0.00740052 -0.00657410
v 0.00111634 0.00740002 -0.00614134
v 0.00124473 0.00717658 -0.00614134
v 0.00143920 0.00682323 -0.00614134
v -0.01124118 0.00682323 -0.00484340
v -0.01120503 0.00717658 -0.00484340
v -0.01117511 0.00746876 -0.00484340
v 0.00106522 0.00746876 -0.00688877
v 0.00107021 0.00746876 -0.00673769
v 0.00107395 0.00746876 -0.00657410
v 0.00107395 0.00746876 -0.00614134
v 0.00111260 0.00739389 -0.00590759
v 0.00106896 0.00746876 -0.00597671
v 0.00110761 0.00738599 -0.00561932
v 0.00120858 0.00721569 -0.00574157
v 0.00142549 0.00682323 -0.00571170
v -0.01120877 0.00682323 -0.00441064
v -0.01115391 0.00746876 -0.00455131
v 0.00105899 0.00746876 -0.00567524
v 0.00122354 0.00715655 -0.00527616
v 0.00104154 0.00746876 -0.00527616
v 0.00110013 0.00737297 -0.00527616
v 0.00141053 0.00682323 -0.00533556
v -0.01115765 0.00682323 -0.00397788
v -0.01109408 0.00746876 -0.00397788
v -0.01111028 0.00746876 -0.00411855
v -0.01117261 0.00717658 -0.00441064
v -0.01114270 0.00746876 -0.00441064
v 0.00108517 0.00734536 -0.00484340
v 0.00120734 0.00712900 -0.00484340
v 0.00140804 0.00682323 -0.00527616
v 0.00101037 0.00746876 -0.00484340
v -0.01114644 0.00682323 -0.00389800
v -0.01106042 0.00746876 -0.00373406
v 0.00098544 0.00746876 -0.00464231
v 0.00118490 0.00709045 -0.00441064
v 0.00137563 0.00682323 -0.00485869
v -0.01109906 0.00682323 -0.00357569
v -0.01103674 0.00746876 -0.00357569
v 0.00095552 0.00746876 -0.00441064
v 0.00105400 0.00730681 -0.00441064
v 0.00115249 0.00703339 -0.00405499
v 0.00132576 0.00682323 -0.00441064
v 0.00133574 0.00682323 -0.00449990
v -0.00328415 0.00682323 -0.00357569
v -0.00340008 0.00746876 -0.00357569
v 0.00079097 0.00746876 -0.00407965
v 0.00124224 0.00682323 -0.00395531
v 0.00124972 0.00682323 -0.00399560
v 0.00097422 0.00695801 -0.00376636
v -0.00328914 0.00685135 -0.00357569
v 0.00085704 0.00682323 -0.00358228
v 0.00047558 0.00746876 -0.00400219
v 0.00119612 0.00682323 -0.00390043
v 0.00086452 0.00682323 -0.00358715
f 1 2 3
f 1 3 8
f 1 8 15
f 1 15 23
f 1 23 25
f 1 25 24
f 1 24 16
f 1 16 9
f 1 9 4
f 1 4 10
f 1 10 19
f 1 19 30
f 1 30 42
f 1 42 49
f 1 49 57
f 1 57 63
f 1 63 70
f 1 70 69
f 1 69 75
f 1 75 74
f 1 74 80
f 1 80 81
f 1 81 78
f 1 78 71
f 1 71 64
f 1 64 59
f 1 59 50
f 1 50 43
f 1 43 31
f 1 31 20
f 1 20 11
f 1 11 5
f 1 5 2
f 2 5 3
f 3 5 6
f 3 6 7
f 3 7 8
f 4 9 10
f 5 11 12
f 5 12 6
f 6 12 7
f 7 13 22
f 7 22 21
f 7 21 33
f 7 33 44
f 7 44 54
f 7 54 52
f 7 52 51
f 7 51 60
f 7 60 65
f 7 65 72
f 7 72 79
f 7 79 73
f 7 73 66
f 7 66 61
f 7 61 58
f 7 58 47
f 7 47 45
f 7 45 39
f 7 39 37
f 7 37 36
f 7 36 35
f 7 35 34
f 7 34 23
f 7 23 15
f 7 15 14
f 7 14 8
f 7 12 13
f 8 14 15
f 9 16 10
f 10 16 17
f 10 17 18
f 10 18 19
f 11 20 21
f 11 21 12
f 12 21 22
f 12 22 13
f 16 24 17
f 17 24 18
f 18 24 25
f 18 25 26
f 18 26 27
f 18 27 28
f 18 28 29
f 18 29 19
f 19 29 30
f 20 31 21
f 21 32 33
f 21 31 32
f 23 34 25
f 25 34 35
f 25 35 26
f 26 35 27
f 27 35 36
f 27 36 37
f 27 37 28
f 28 38 29
f 28 37 39
f 28 39 38
f 29 38 40
f 29 40 41
f 29 41 42
f 29 42 30
f 31 43 44
f 31 44 32
f 32 44 33
f 38 39 45
f 38 45 40
f 40 46 41
f 40 45 47
f 40 47 48
f 40 48 46
f 41 46 42
f 42 46 49
f 43 50 51
f 43 51 52
f 43 52 53
f 43 53 44
f 44 53 54
f 46 48 55
f 46 55 56
f 46 56 57
f 46 57 49
f 47 58 48
f 48 58 55
f 50 59 60
f 50 60 51
f 52 54 53
f 55 58 61
f 55 61 62
f 55 62 56
f 56 62 63
f 56 63 57
f 59 64 60
f 60 64 65
f 61 66 67
f 61 67 62
f 62 68 69
f 62 69 70
f 62 70 63
f 62 67 68
f 64 71 77
f 64 77 72
f 64 72 65
f 66 73 68
f 66 68 67
f 68 74 75
f 68 75 69
f 68 73 76
f 68 76 74
f 71 78 77
f 72 77 78
f 72 78 79
f 73 78 76
f 73 79 78
f 74 76 80
f 76 78 81
f 76 81 80

