# https://github.com/mikedh/trimesh
v -0.00602861 0.01308563 0.00086672
v -0.00601612 0.01309059 0.00086601
v -0.00601612 0.01324854 0.00086459
v -0.00601612 0.01411358 0.00085608
v -0.00617885 0.01308563 0.00086247
v -0.00601612 0.01308563 0.00086601
v -0.00601612 0.01454692 0.00085112
v -0.00602861 0.01453452 0.00085112
v -0.00646149 0.01308563 0.00085183
v -0.00601612 0.01308563 -0.00637792
v -0.00601612 0.01497944 0.00083835
v -0.00646149 0.01410200 0.00083126
v -0.00646149 0.01323614 0.00084899
v -0.00602861 0.01496704 0.00083835
v -0.00661129 0.01308563 0.00084048
v -0.00601612 0.02011010 -0.00637792
v -0.01057014 0.01308563 -0.00637792
v -0.00601612 0.01540038 0.00082275
v -0.00646149 0.01453452 0.00081850
v -0.00689438 0.01323614 0.00081566
v -0.00689438 0.01308563 0.00081850
v -0.00688992 0.02043842 -0.00637792
v -0.00601612 0.02153419 -0.00503905
v -0.01057059 0.01308563 -0.00622049
v -0.01055766 0.01316419 -0.00637792
v -0.00601612 0.01584530 0.00080006
v -0.00602861 0.01583290 0.00079935
v -0.00689438 0.01410200 0.00078020
v -0.00689438 0.01366866 0.00080219
v -0.00646149 0.01496704 0.00079439
v -0.00732682 0.01323614 0.00074546
v -0.00704418 0.01308563 0.00079581
v -0.00732682 0.02058066 -0.00637792
v -0.00605402 0.02153419 -0.00503905
v -0.00601612 0.02153419 -0.00096784
v -0.01057014 0.01308563 -0.00614107
v -0.01054161 0.01326260 -0.00614107
v -0.01054161 0.01326260 -0.00637792
v -0.00601612 0.01627782 0.00076389
v -0.00689438 0.01453452 0.00074971
v -0.00732682 0.01366866 0.00072276
v -0.00646149 0.01540038 0.00075680
v -0.00771156 0.01323614 0.00062987
v -0.00773697 0.01308563 0.00062845
v -0.00747706 0.01308563 0.00070645
v -0.00732682 0.01308563 0.00074971
v -0.00748643 0.02054841 -0.00637792
v -0.00692514 0.02153419 -0.00489226
v -0.00646149 0.02153419 -0.00502983
v -0.00619534 0.02153419 -0.00126143
v -0.00626221 0.02127534 -0.00113804
v -0.00601612 0.02151599 -0.00095224
v -0.01056479 0.01308563 -0.00596733
v -0.01047206 0.01366866 -0.00614107
v -0.01047295 0.01366866 -0.00637792
v -0.01051798 0.01323614 -0.00527591
v -0.00602861 0.01626541 0.00076248
v -0.00601612 0.01671034 0.00071780
v -0.00602861 0.01669876 0.00071638
v -0.00732682 0.01410200 0.00068802
v -0.00689438 0.01496704 0.00070787
v -0.00767099 0.01366866 0.00061639
v -0.00794027 0.01308563 0.00055186
v -0.00781945 0.01308563 0.00059795
v -0.00767768 0.02050954 -0.00637792
v -0.00695323 0.02153419 -0.00487028
v -0.00621852 0.02153419 -0.00130611
v -0.00713958 0.01999929 -0.00154012
v -0.00662600 0.02070885 -0.00126356
v -0.00632686 0.02102558 -0.00103805
v -0.00624349 0.02080560 -0.00073453
v -0.00706424 0.01985291 -0.00125221
v -0.00670045 0.02042023 -0.00112953
v -0.00601612 0.02149284 -0.00093380
v -0.01056078 0.01308563 -0.00584535
v -0.01044219 0.01366866 -0.00527591
v -0.01039538 0.01410200 -0.00614107
v -0.01043818 0.01386548 -0.00637792
v -0.01054874 0.01308563 -0.00548298
v -0.01054161 0.01308563 -0.00527591
v -0.01050148 0.01323614 -0.00484262
v -0.01042614 0.01366866 -0.00484262
v -0.00601612 0.01721811 0.00065398
v -0.00735848 0.01454858 0.00063057
v -0.00757336 0.01441378 0.00057881
v -0.00761794 0.01410200 0.00059654
v -0.00601612 0.01739509 0.00063128
v -0.00650073 0.01630015 0.00064192
v -0.00693138 0.01543098 0.00063767
v -0.00724390 0.01496704 0.00060930
v -0.00788722 0.01366866 0.00052846
v -0.00792778 0.01323614 0.00054619
v -0.00817923 0.01308563 0.00042421
v -0.00819260 0.01323614 0.00040507
v -0.00754661 0.02081222 -0.00550142
v -0.00718595 0.02136631 -0.00484262
v -0.00789435 0.02021761 -0.00637792
v -0.00710392 0.02153419 -0.00441004
v -0.00629877 0.02153419 -0.00146283
v -0.00670045 0.02085274 -0.00155218
v -0.00706424 0.02028791 -0.00170394
v -0.00741732 0.01970819 -0.00182875
v -0.00750158 0.01942618 -0.00169401
v -0.00757336 0.01913756 -0.00153871
v -0.00720556 0.01971563 -0.00139049
v -0.00675217 0.02012085 -0.00097068
v -0.00668128 0.01995049 -0.00072744
v -0.00601612 0.02095860 -0.00056150
v -0.00601612 0.02121662 -0.00072815
v -0.00742045 0.01928725 -0.00138908
v -0.00749802 0.01898622 -0.00125008
v -0.00713735 0.01956429 -0.00112315
v -0.01036373 0.01410200 -0.00527591
v -0.01028482 0.01453452 -0.00527591
v -0.01029997 0.01453452 -0.00570849
v -0.01031469 0.01453452 -0.00614107
v -0.01035971 0.01429800 -0.00637792
v -0.01039627 0.01410200 -0.00637792
v -0.01053358 0.01308563 -0.00506742
v -0.01047117 0.01323614 -0.00441004
v -0.01052422 0.01308563 -0.00484262
v -0.01039493 0.01366866 -0.00441004
v -0.01031602 0.01410200 -0.00441004
v -0.01026788 0.01453452 -0.00484262
v -0.00752343 0.01470240 0.00055966
v -0.00783461 0.01410200 0.00050293
v -0.00601612 0.01752989 0.00061214
v -0.00710079 0.01559555 0.00056321
v -0.00819260 0.01366866 0.00036323
v -0.00831431 0.01308563 0.00034337
v -0.00850958 0.01323614 0.00020863
v -0.00852161 0.01308563 0.00021501
v -0.00754884 0.02081718 -0.00527591
v -0.00800536 0.02000177 -0.00637792
v -0.00800536 0.02000094 -0.00614107
v -0.00789390 0.02021761 -0.00614107
v -0.00736873 0.02102558 -0.00441004
v -0.00759654 0.02047812 -0.00397746
v -0.00748331 0.02069479 -0.00397746
v -0.00730944 0.02102558 -0.00397746
v -0.00708920 0.02153419 -0.00430934
v -0.00754750 0.02081636 -0.00502274
v -0.00753145 0.02078576 -0.00473412
v -0.00642583 0.02153419 -0.00173585
v -0.00662511 0.02114136 -0.00172096
v -0.00712665 0.02040699 -0.00199256
v -0.00719263 0.02014980 -0.00183442
v -0.00756355 0.01955106 -0.00198263
v -0.00799689 0.01868602 -0.00198192
v -0.00842977 0.01782181 -0.00198121
v -0.00793403 0.01856032 -0.00169401
v -0.00836602 0.01769363 -0.00169259
v -0.00800580 0.01827170 -0.00153941
v -0.00619177 0.02027633 -0.00035798
v -0.00601612 0.02087094 -0.00050902
v -0.00718951 0.01925747 -0.00096642
v -0.00711595 0.01908877 -0.00072531
v -0.00662778 0.01941543 -0.00035372
v -0.00654887 0.01972721 -0.00044520
v -0.00793001 0.01811870 -0.00125079
v -0.00800134 0.01783091 -0.00112527
v -0.01018406 0.01491907 -0.00484262
v -0.01019253 0.01495215 -0.00527591
v -0.01031513 0.01453452 -0.00637792
v -0.01021572 0.01496704 -0.00614107
v -0.01027010 0.01473134 -0.00637792
v -0.01042837 0.01323614 -0.00397746
v -0.01050639 0.01308563 -0.00459300
v -0.01049346 0.01308563 -0.00441713
v -0.01045066 0.01308563 -0.00397746
v -0.01035169 0.01366866 -0.00397746
v -0.01027233 0.01410200 -0.00397746
v -0.01023667 0.01453452 -0.00441004
v -0.01016846 0.01485870 -0.00441004
v -0.00746012 0.01496704 0.00053626
v -0.00775971 0.01496704 0.00039372
v -0.00773430 0.01454858 0.00048307
v -0.00815604 0.01453452 0.00025118
v -0.00823406 0.01413922 0.00027175
v -0.00601612 0.01780031 0.00056888
v -0.00731568 0.01543098 0.00050293
v -0.00619177 0.01756297 0.00054690
v -0.00608835 0.01799631 0.00050080
v -0.00847614 0.01366866 0.00018523
v -0.00844270 0.01402013 0.00015970
v -0.00859651 0.01308563 0.00015970
v -0.00824610 0.01952542 -0.00637792
v -0.00788187 0.02018701 -0.00527591
v -0.00788900 0.02020190 -0.00570849
v -0.00814356 0.01972721 -0.00614107
v -0.00751228 0.02074854 -0.00441004
v -0.00756935 0.02042602 -0.00364345
v -0.00762374 0.02053187 -0.00441004
v -0.00776016 0.02015972 -0.00397746
v -0.00712799 0.02127534 -0.00368033
v -0.00715296 0.02132165 -0.00397746
v -0.00704061 0.02153419 -0.00397746
v -0.00798307 0.01995711 -0.00499650
v -0.00788231 0.02012499 -0.00484829
v -0.00763042 0.02062201 -0.00486460
v -0.00647353 0.02153419 -0.00184718
v -0.00735045 0.02015972 -0.00224714
v -0.00750381 0.01986531 -0.00224714
v -0.00668663 0.02125880 -0.00200887
v -0.00792422 0.01897464 -0.00217268
v -0.00849308 0.01755470 -0.00182804
v -0.00828399 0.01797812 -0.00182804
v -0.00835711 0.01811044 -0.00217197
v -0.00846544 0.01797812 -0.00228827
v -0.00865402 0.01756297 -0.00224714
v -0.00885687 0.01694686 -0.00199398
v -0.00879401 0.01681619 -0.00170535
v -0.00843691 0.01740501 -0.00154225
v -0.00828355 0.01755470 -0.00139120
v -0.00807045 0.01798308 -0.00138978
v -0.00626756 0.01998771 -0.00027713
v -0.00601612 0.02071794 -0.00041825
v -0.00754795 0.01822125 -0.00072673
v -0.00698221 0.01886134 -0.00044378
v -0.00670223 0.01912681 -0.00027571
v -0.00836067 0.01724705 -0.00125363
v -0.00842933 0.01695843 -0.00113165
v -0.00805083 0.01752327 -0.00096855
v -0.00797905 0.01735291 -0.00072815
v -0.01012700 0.01513574 -0.00484262
v -0.01013591 0.01516882 -0.00527591
v -0.01013948 0.01518288 -0.00549503
v -0.01018986 0.01501004 -0.00566736
v -0.01021527 0.01496704 -0.00637792
v -0.01014394 0.01519942 -0.00578366
v -0.01014929 0.01522010 -0.00614107
v -0.01014929 0.01521927 -0.00637792
v -0.01037175 0.01323614 -0.00354417
v -0.01039404 0.01308563 -0.00354417
v -0.01029462 0.01366866 -0.00354417
v -0.01013636 0.01473382 -0.00379096
v -0.01018406 0.01456760 -0.00395193
v -0.01015152 0.01479502 -0.00407958
v -0.01011006 0.01507537 -0.00441004
v -0.00802185 0.01528626 0.00016608
v -0.00808427 0.01496704 0.00020721
v -0.00732682 0.01583290 0.00040719
v -0.00779003 0.01541857 0.00026465
v -0.00840570 0.01430875 0.00013134
v -0.00601612 0.01805668 0.00051853
v -0.00601612 0.01828245 0.00046818
v -0.00646149 0.01756297 0.00042067
v -0.00869236 0.01366866 -0.00000128
v -0.00873783 0.01308563 0.00004553
v -0.00860186 0.01413922 -0.00000908
v -0.00851715 0.01898787 -0.00637792
v -0.00858046 0.01886134 -0.00614107
v -0.00876547 0.01849416 -0.00614107
v -0.00886623 0.01826178 -0.00570849
v -0.00885776 0.01824524 -0.00527591
v -0.00753725 0.02036482 -0.00335483
v -0.00746057 0.02057901 -0.00351722
v -0.00721492 0.02105288 -0.00353921
v -0.00800491 0.01956760 -0.00362856
v -0.00766074 0.02019611 -0.00351722
v -0.00781366 0.02015972 -0.00441004
v -0.00792333 0.01983802 -0.00397746
v -0.00696125 0.02153419 -0.00354417
v -0.00703972 0.02153419 -0.00397250
v -0.00796746 0.01992568 -0.00470788
v -0.00884973 0.01822870 -0.00498587
v -0.00806599 0.01976029 -0.00484829
v -0.00662065 0.02153419 -0.00222941
v -0.00754304 0.01994305 -0.00246485
v -0.00797682 0.01907967 -0.00246131
v -0.00803255 0.01884315 -0.00228898
v -0.00871153 0.01710729 -0.00183584
v -0.00840971 0.01821464 -0.00246060
v -0.00883948 0.01734216 -0.00247194
v -0.00879980 0.01726029 -0.00224714
v -0.00928128 0.01606528 -0.00201171
v -0.00913193 0.01623233 -0.00184647
v -0.00886311 0.01652757 -0.00155502
v -0.00603975 0.02014318 -0.00015020
v -0.00601612 0.02021596 -0.00016225
v -0.00601612 0.02046323 -0.00027784
v -0.00633265 0.01972721 -0.00021898
v -0.00705933 0.01854626 -0.00035514
v -0.00713289 0.01825764 -0.00027784
v -0.00676599 0.01886134 -0.00021827
v -0.00647487 0.01928063 -0.00014736
v -0.00878687 0.01636879 -0.00126639
v -0.00885597 0.01608017 -0.00114087
v -0.00849174 0.01669876 -0.00103592
v -0.00756355 0.01738764 -0.00027997
v -0.00840481 0.01647464 -0.00073737
v -0.00847213 0.01618602 -0.00065511
v -0.00811191 0.01667478 -0.00050902
v -0.00799198 0.01651517 -0.00028422
v -0.01005344 0.01540038 -0.00484262
v -0.01007172 0.01540038 -0.00527591
v -0.01009490 0.01536647 -0.00566736
v -0.01009178 0.01543677 -0.00614107
v -0.01009133 0.01543594 -0.00637792
v -0.01029997 0.01323614 -0.00311159
v -0.01032227 0.01308563 -0.00311159
v -0.01022196 0.01366866 -0.00311159
v -0.01016355 0.01444603 -0.00362005
v -0.01011986 0.01456760 -0.00350304
v -0.01005700 0.01453452 -0.00311159
v -0.00995268 0.01496704 -0.00311159
v -0.01003115 0.01496704 -0.00354417
v -0.00990587 0.01540038 -0.00354417
v -0.00997096 0.01540038 -0.00397746
v -0.01009534 0.01495050 -0.00395193
v -0.01001956 0.01540038 -0.00441004
v -0.00830049 0.01496704 0.00004411
v -0.00767679 0.01583290 0.00021643
v -0.00759833 0.01616618 0.00016963
v -0.00795453 0.01557488 0.00011857
v -0.00817655 0.01541857 -0.00000624
v -0.00837226 0.01453452 0.00010439
v -0.00736160 0.01629271 0.00026820
v -0.00607140 0.01890435 0.00028380
v -0.00650162 0.01803352 0.00027884
v -0.00864956 0.01451302 -0.00014310
v -0.00885107 0.01435506 -0.00028919
v -0.00601612 0.01837425 0.00044620
v -0.00887871 0.01410200 -0.00025940
v -0.00891883 0.01366866 -0.00021756
v -0.00895495 0.01323614 -0.00018282
v -0.00896698 0.01308563 -0.00017076
v -0.00876592 0.01849416 -0.00637792
v -0.00887381 0.01827749 -0.00614107
v -0.00897902 0.01799631 -0.00527591
v -0.00735848 0.02059307 -0.00311159
v -0.00686139 0.02153419 -0.00311159
v -0.00709634 0.02121497 -0.00339171
v -0.00762106 0.02009274 -0.00311159
v -0.00750783 0.02030941 -0.00311159
v -0.00797370 0.01950557 -0.00333994
v -0.00790282 0.01971811 -0.00350871
v -0.00803211 0.01962218 -0.00397746
v -0.00819706 0.01929469 -0.00397746
v -0.00879089 0.01811209 -0.00397746
v -0.00887113 0.01784001 -0.00362856
v -0.00794963 0.01989095 -0.00441004
v -0.00693183 0.02153419 -0.00341653
v -0.00840035 0.01906148 -0.00470221
v -0.00824966 0.01929469 -0.00441004
v -0.00927415 0.01734629 -0.00506316
v -0.00915556 0.01756297 -0.00484262
v -0.00893176 0.01802939 -0.00484191
v -0.00892418 0.01794669 -0.00441004
v -0.00883324 0.01819644 -0.00469724
v -0.00662689 0.02153419 -0.00224714
v -0.00710213 0.02079320 -0.00249747
v -0.00674370 0.02153419 -0.00263079
v -0.00676287 0.02153419 -0.00270880
v -0.00780741 0.01972721 -0.00311159
v -0.00800313 0.01913177 -0.00267972
v -0.00843646 0.01826756 -0.00267972
v -0.00857199 0.01799631 -0.00267972
v -0.00877573 0.01756049 -0.00264143
v -0.00887336 0.01741493 -0.00275986
v -0.00929912 0.01653419 -0.00279319
v -0.00926345 0.01645976 -0.00250527
v -0.00922110 0.01636879 -0.00224714
v -0.00906551 0.01669876 -0.00224714
v -0.00890234 0.01704361 -0.00224714
v -0.00922065 0.01591560 -0.00172308
v -0.00932052 0.01615294 -0.00224714
v -0.00944668 0.01583290 -0.00224714
v -0.00944624 0.01540038 -0.00181385
v -0.00931784 0.01579568 -0.00184647
v -0.00927816 0.01562698 -0.00158905
v -0.00891750 0.01624060 -0.00139900
v -0.00601612 0.02016882 -0.00014169
v -0.00602593 0.01976773 0.00002355
v -0.00601612 0.01978179 0.00002567
v -0.00645793 0.01890435 0.00002496
v -0.00618732 0.01929469 0.00008879
v -0.00624438 0.01907636 0.00013275
v -0.00912302 0.01579568 -0.00141957
v -0.00890903 0.01583290 -0.00105436
v -0.00882700 0.01557984 -0.00075297
v -0.00877038 0.01583290 -0.00083807
v -0.00688859 0.01803352 0.00002000
v -0.00774946 0.01629271 0.00000723
v -0.00852964 0.01580064 -0.00051257
v -0.00841729 0.01563525 -0.00029061
v -0.00819795 0.01580064 -0.00017218
v -0.00991434 0.01583290 -0.00484262
v -0.00993440 0.01583290 -0.00527591
v -0.00995224 0.01583290 -0.00570849
v -0.00996962 0.01583290 -0.00614107
v -0.00996962 0.01583290 -0.00637792
v -0.01022240 0.01308563 -0.00266767
v -0.01019744 0.01324110 -0.00266058
v -0.01016222 0.01366866 -0.00281304
v -0.01014126 0.01389443 -0.00288892
v -0.01016088 0.01399780 -0.00311159
v -0.01013903 0.01431537 -0.00333143
v -0.01012031 0.01421447 -0.00311159
v -0.00996071 0.01453452 -0.00267972
v -0.00985505 0.01496704 -0.00267972
v -0.00970927 0.01562201 -0.00288750
v -0.00982429 0.01540038 -0.00311159
v -0.00973156 0.01567990 -0.00311159
v -0.00976321 0.01583703 -0.00357396
v -0.00982875 0.01583290 -0.00397746
v -0.00987912 0.01583290 -0.00441004
v -0.00846366 0.01540038 -0.00024593
v -0.00854212 0.01496704 -0.00017218
v -0.00752878 0.01645480 0.00012353
v -0.00639908 0.01842883 0.00022849
v -0.00674013 0.01791361 0.00017530
v -0.00667237 0.01820223 0.00012992
v -0.00789301 0.01583290 0.00006893
v -0.00601612 0.01889856 0.00031359
v -0.00601612 0.01894322 0.00030224
v -0.00601612 0.01911771 0.00025473
v -0.00631125 0.01878774 0.00017743
v -0.00601612 0.01856528 0.00039797
v -0.00881006 0.01464368 -0.00033316
v -0.00897322 0.01451302 -0.00049271
v -0.00925453 0.01421530 -0.00076361
v -0.00911901 0.01408381 -0.00055228
v -0.00913550 0.01366866 -0.00047357
v -0.00917161 0.01323614 -0.00042322
v -0.00918365 0.01308563 -0.00040762
v -0.00904233 0.01308563 -0.00025090
v -0.00887381 0.01827831 -0.00637792
v -0.00894737 0.01812367 -0.00637792
v -0.00900755 0.01799631 -0.00637792
v -0.00900666 0.01799631 -0.00614107
v -0.00919792 0.01752410 -0.00523478
v -0.00971283 0.01649449 -0.00621907
v -0.00683999 0.02153419 -0.00302366
v -0.00824209 0.01886134 -0.00311159
v -0.00805484 0.01923515 -0.00311159
v -0.00876949 0.01798887 -0.00350801
v -0.00883859 0.01777385 -0.00333994
v -0.00867497 0.01799631 -0.00311159
v -0.00848773 0.01837094 -0.00311159
v -0.00868344 0.01842883 -0.00441004
v -0.00881674 0.01816254 -0.00441004
v -0.00889877 0.01789542 -0.00397746
v -0.00895673 0.01760266 -0.00350801
v -0.00905838 0.01756297 -0.00397746
v -0.00929466 0.01695926 -0.00366969
v -0.00970213 0.01647051 -0.00570849
v -0.00969277 0.01644818 -0.00527591
v -0.00968252 0.01642337 -0.00484262
v -0.00955680 0.01669876 -0.00484262
v -0.00910964 0.01756297 -0.00441004
v -0.00951980 0.01669876 -0.00441004
v -0.00934593 0.01706594 -0.00441004
v -0.00668574 0.02153419 -0.00242868
v -0.00881228 0.01771844 -0.00311159
v -0.00933478 0.01661027 -0.00311159
v -0.00949126 0.01626541 -0.00311159
v -0.00937535 0.01629519 -0.00266128
v -0.00959781 0.01579320 -0.00271802
v -0.00966959 0.01550293 -0.00259959
v -0.00961431 0.01537474 -0.00227054
v -0.00967316 0.01506462 -0.00214219
v -0.00960183 0.01493892 -0.00184647
v -0.00931739 0.01540038 -0.00150892
v -0.00920951 0.01540038 -0.00129263
v -0.00601612 0.01977517 0.00002851
v -0.00601612 0.01925830 0.00021431
v -0.00601612 0.01949234 0.00013914
v -0.00898704 0.01542188 -0.00091749
v -0.00888183 0.01529204 -0.00067993
v -0.00870351 0.01542188 -0.00052746
v -0.00875834 0.01496704 -0.00039343
v -0.00975340 0.01616452 -0.00441004
v -0.00977124 0.01620752 -0.00484262
v -0.00978194 0.01623233 -0.00527591
v -0.00979174 0.01625384 -0.00570849
v -0.00978595 0.01630842 -0.00610136
v -0.00979798 0.01628361 -0.00637792
v -0.01015954 0.01308563 -0.00242443
v -0.01015419 0.01309969 -0.00241166
v -0.01012834 0.01338831 -0.00250385
v -0.01010292 0.01366866 -0.00259746
v -0.00992683 0.01410200 -0.00224714
v -0.01006369 0.01406396 -0.00271943
v -0.00983989 0.01453452 -0.00224714
v -0.00974716 0.01493892 -0.00227054
v -0.00971640 0.01521431 -0.00243081
v -0.00974315 0.01537474 -0.00271802
v -0.00964685 0.01589658 -0.00311159
v -0.00971150 0.01606115 -0.00373777
v -0.00972799 0.01610084 -0.00397746
v -0.00893578 0.01496704 -0.00060972
v -0.00921530 0.01453452 -0.00083098
v -0.00933879 0.01453452 -0.00104727
v -0.00937000 0.01408381 -0.00092388
v -0.00946006 0.01366866 -0.00094870
v -0.00953852 0.01323614 -0.00094870
v -0.00928173 0.01392751 -0.00072106
v -0.00930536 0.01366866 -0.00068986
v -0.00934414 0.01323614 -0.00063951
v -0.00935663 0.01308563 -0.00062461
v -0.00966736 0.01659042 -0.00637792
v -0.00971239 0.01649366 -0.00637792
v -0.00975474 0.01639194 -0.00637792
v -0.00931918 0.01701053 -0.00397746
v -0.00946630 0.01669876 -0.00397746
v -0.00960539 0.01622903 -0.00357396
v -0.00937312 0.01672605 -0.00353283
v -0.00966469 0.01638119 -0.00441004
v -0.00971373 0.01477600 -0.00201171
v -0.00965755 0.01453452 -0.00172025
v -0.00937713 0.01497531 -0.00135858
v -0.00925721 0.01512416 -0.00119902
v -0.00916626 0.01497531 -0.00096501
v -0.01015508 0.01308563 -0.00240883
v -0.01009579 0.01308563 -0.00221098
v -0.01008598 0.01324110 -0.00225920
v -0.01000529 0.01366866 -0.00224714
v -0.00977792 0.01409787 -0.00179329
v -0.00974181 0.01453452 -0.00193725
v -0.00994600 0.01323614 -0.00181385
v -0.00986530 0.01366866 -0.00181385
v -0.00963749 0.01631751 -0.00397746
v -0.00929822 0.01483554 -0.00112031
v -0.00950598 0.01453452 -0.00138127
v -0.00961609 0.01409787 -0.00140822
v -0.00964507 0.01366866 -0.00129689
v -0.00968475 0.01323614 -0.00121108
v -0.00969812 0.01308563 -0.00118271
v -0.00964864 0.01308563 -0.00109336
v -0.00956839 0.01308563 -0.00095720
v -0.00944757 0.01308563 -0.00076503
v -0.00969188 0.01424011 -0.00163586
v -0.01000395 0.01308563 -0.00192094
v -0.00996918 0.01308563 -0.00181385
v -0.00986619 0.01308563 -0.00156140
v -0.00978818 0.01323614 -0.00142808
v -0.00974672 0.01366866 -0.00151318
v -0.00971952 0.01395149 -0.00156991
v -0.00979709 0.01308563 -0.00139475
f 1 2 3
f 1 3 4
f 1 4 5
f 1 5 9
f 1 9 15
f 1 15 21
f 1 21 32
f 1 32 46
f 1 46 45
f 1 45 44
f 1 44 64
f 1 64 63
f 1 63 93
f 1 93 130
f 1 130 132
f 1 132 186
f 1 186 249
f 1 249 327
f 1 327 427
f 1 427 426
f 1 426 501
f 1 501 532
f 1 532 531
f 1 531 530
f 1 530 529
f 1 529 540
f 1 540 536
f 1 536 535
f 1 535 534
f 1 534 516
f 1 516 515
f 1 515 479
f 1 479 393
f 1 393 301
f 1 301 234
f 1 234 170
f 1 170 169
f 1 169 168
f 1 168 121
f 1 121 119
f 1 119 80
f 1 80 79
f 1 79 75
f 1 75 53
f 1 53 36
f 1 36 24
f 1 24 17
f 1 17 10
f 1 10 6
f 1 6 2
f 2 6 10
f 2 10 16
f 2 16 23
f 2 23 35
f 2 35 52
f 2 52 74
f 2 74 109
f 2 109 108
f 2 108 155
f 2 155 217
f 2 217 281
f 2 281 280
f 2 280 373
f 2 373 375
f 2 375 466
f 2 466 468
f 2 468 467
f 2 467 417
f 2 417 416
f 2 416 415
f 2 415 419
f 2 419 323
f 2 323 246
f 2 246 245
f 2 245 180
f 2 180 127
f 2 127 87
f 2 87 83
f 2 83 58
f 2 58 39
f 2 39 26
f 2 26 18
f 2 18 11
f 2 11 7
f 2 7 4
f 2 4 3
f 4 7 8
f 4 8 5
f 5 8 9
f 7 11 14
f 7 14 8
f 8 12 13
f 8 13 9
f 8 14 19
f 8 19 12
f 9 13 15
f 10 17 25
f 10 25 38
f 10 38 55
f 10 55 78
f 10 78 118
f 10 118 117
f 10 117 164
f 10 164 166
f 10 166 229
f 10 229 232
f 10 232 299
f 10 299 392
f 10 392 478
f 10 478 504
f 10 504 503
f 10 503 502
f 10 502 430
f 10 430 429
f 10 429 428
f 10 428 328
f 10 328 251
f 10 251 187
f 10 187 134
f 10 134 97
f 10 97 65
f 10 65 47
f 10 47 33
f 10 33 22
f 10 22 16
f 11 18 14
f 12 19 20
f 12 20 13
f 13 20 15
f 14 18 19
f 15 20 21
f 16 22 23
f 17 24 25
f 18 26 27
f 18 27 19
f 19 28 29
f 19 29 20
f 19 27 30
f 19 30 28
f 20 29 31
f 20 31 32
f 20 32 21
f 22 33 23
f 23 34 49
f 23 49 48
f 23 48 66
f 23 66 98
f 23 98 141
f 23 141 197
f 23 197 264
f 23 264 263
f 23 263 343
f 23 343 332
f 23 332 434
f 23 434 354
f 23 354 353
f 23 353 454
f 23 454 351
f 23 351 268
f 23 268 201
f 23 201 144
f 23 144 99
f 23 99 67
f 23 67 50
f 23 50 35
f 23 33 34
f 24 36 37
f 24 37 38
f 24 38 25
f 26 39 27
f 27 39 30
f 28 30 40
f 28 40 41
f 28 41 31
f 28 31 29
f 30 39 42
f 30 42 40
f 31 43 44
f 31 44 45
f 31 45 46
f 31 46 32
f 31 41 43
f 33 47 48
f 33 48 49
f 33 49 34
f 35 50 51
f 35 51 52
f 36 53 37
f 37 54 55
f 37 55 38
f 37 53 56
f 37 56 54
f 39 57 42
f 39 58 59
f 39 59 57
f 40 60 41
f 40 42 61
f 40 61 60
f 41 62 43
f 41 60 62
f 42 57 61
f 43 62 63
f 43 63 64
f 43 64 44
f 47 65 48
f 48 65 66
f 50 67 68
f 50 68 69
f 50 69 51
f 51 70 71
f 51 71 52
f 51 69 72
f 51 72 73
f 51 73 70
f 52 71 74
f 53 75 56
f 54 76 77
f 54 77 78
f 54 78 55
f 54 56 76
f 56 75 79
f 56 79 80
f 56 80 81
f 56 81 82
f 56 82 76
f 57 59 61
f 58 83 59
f 59 83 61
f 60 61 84
f 60 84 85
f 60 85 86
f 60 86 62
f 61 83 87
f 61 87 88
f 61 88 89
f 61 89 90
f 61 90 84
f 62 91 92
f 62 92 63
f 62 86 91
f 63 92 94
f 63 94 93
f 65 95 96
f 65 96 66
f 65 97 95
f 66 96 98
f 67 99 100
f 67 100 68
f 68 72 69
f 68 100 101
f 68 101 102
f 68 102 103
f 68 103 104
f 68 104 105
f 68 105 72
f 70 73 71
f 71 73 106
f 71 106 107
f 71 107 108
f 71 108 109
f 71 109 74
f 72 105 110
f 72 110 111
f 72 111 112
f 72 112 73
f 73 112 106
f 76 82 113
f 76 113 77
f 77 113 114
f 77 114 115
f 77 115 116
f 77 116 117
f 77 117 118
f 77 118 78
f 80 119 81
f 81 120 82
f 81 119 121
f 81 121 120
f 82 122 123
f 82 123 124
f 82 124 114
f 82 114 113
f 82 120 122
f 84 90 125
f 84 125 85
f 85 126 86
f 85 125 126
f 86 126 91
f 87 127 89
f 87 89 88
f 89 128 90
f 89 127 128
f 90 128 125
f 91 129 94
f 91 94 92
f 91 126 129
f 93 94 130
f 94 131 132
f 94 132 130
f 94 129 131
f 95 97 133
f 95 133 98
f 95 98 96
f 97 134 135
f 97 135 136
f 97 136 133
f 98 137 138
f 98 138 139
f 98 139 140
f 98 140 141
f 98 133 142
f 98 142 143
f 98 143 137
f 99 144 100
f 100 144 145
f 100 145 101
f 101 146 147
f 101 147 102
f 101 145 146
f 102 148 103
f 102 147 148
f 103 148 149
f 103 149 150
f 103 150 151
f 103 151 104
f 104 111 110
f 104 110 105
f 104 151 152
f 104 152 153
f 104 153 111
f 106 112 107
f 107 154 155
f 107 155 108
f 107 112 156
f 107 156 157
f 107 157 158
f 107 158 159
f 107 159 154
f 111 153 160
f 111 160 161
f 111 161 112
f 112 161 156
f 114 124 162
f 114 162 163
f 114 163 115
f 115 163 116
f 116 164 117
f 116 163 165
f 116 165 166
f 116 166 164
f 120 167 122
f 120 121 168
f 120 168 169
f 120 169 170
f 120 170 167
f 122 171 123
f 122 167 171
f 123 172 173
f 123 173 124
f 123 171 172
f 124 173 174
f 124 174 162
f 125 175 176
f 125 176 177
f 125 177 126
f 125 128 175
f 126 177 178
f 126 178 179
f 126 179 129
f 127 180 128
f 128 181 175
f 128 180 182
f 128 182 183
f 128 183 181
f 129 184 131
f 129 179 185
f 129 185 184
f 131 184 186
f 131 186 132
f 133 136 142
f 134 187 135
f 135 188 189
f 135 189 136
f 135 187 190
f 135 190 188
f 136 189 142
f 137 143 191
f 137 191 138
f 138 192 139
f 138 191 193
f 138 193 194
f 138 194 192
f 139 192 140
f 140 195 196
f 140 196 141
f 140 192 195
f 141 196 197
f 142 189 188
f 142 188 198
f 142 198 199
f 142 199 200
f 142 200 143
f 143 200 193
f 143 193 191
f 144 201 146
f 144 146 145
f 146 202 203
f 146 203 148
f 146 148 147
f 146 201 204
f 146 204 202
f 148 205 149
f 148 203 205
f 149 205 208
f 149 208 150
f 150 206 152
f 150 152 207
f 150 207 151
f 150 208 209
f 150 209 210
f 150 210 211
f 150 211 206
f 151 207 152
f 152 206 212
f 152 212 213
f 152 213 153
f 153 213 214
f 153 214 215
f 153 215 160
f 154 159 158
f 154 158 216
f 154 216 217
f 154 217 155
f 156 161 218
f 156 218 157
f 157 218 219
f 157 219 158
f 158 219 220
f 158 220 216
f 160 215 214
f 160 214 221
f 160 221 161
f 161 221 222
f 161 222 223
f 161 223 224
f 161 224 218
f 162 174 225
f 162 225 226
f 162 226 163
f 163 226 227
f 163 227 228
f 163 228 165
f 165 229 166
f 165 228 227
f 165 227 230
f 165 230 231
f 165 231 232
f 165 232 229
f 167 233 171
f 167 170 234
f 167 234 233
f 171 233 235
f 171 235 236
f 171 236 172
f 172 236 237
f 172 237 173
f 173 237 236
f 173 236 238
f 173 238 174
f 174 238 239
f 174 239 225
f 175 181 176
f 176 240 241
f 176 241 178
f 176 178 177
f 176 181 242
f 176 242 243
f 176 243 240
f 178 244 185
f 178 185 179
f 178 241 244
f 180 245 182
f 181 183 242
f 182 245 183
f 183 245 246
f 183 246 247
f 183 247 242
f 184 185 248
f 184 248 249
f 184 249 186
f 185 244 250
f 185 250 248
f 187 251 252
f 187 252 190
f 188 190 252
f 188 252 253
f 188 253 254
f 188 254 255
f 188 255 198
f 192 256 257
f 192 257 258
f 192 258 195
f 192 194 259
f 192 259 260
f 192 260 256
f 193 200 199
f 193 199 261
f 193 261 194
f 194 261 262
f 194 262 259
f 195 258 263
f 195 263 264
f 195 264 197
f 195 197 196
f 198 265 199
f 198 255 266
f 198 266 267
f 198 267 265
f 199 265 261
f 201 268 204
f 202 269 203
f 202 204 269
f 203 269 270
f 203 270 205
f 204 268 269
f 205 270 271
f 205 271 208
f 206 211 272
f 206 272 212
f 208 273 209
f 208 271 270
f 208 270 273
f 209 273 210
f 210 274 275
f 210 275 211
f 210 273 274
f 211 276 277
f 211 277 212
f 211 212 272
f 211 275 276
f 212 277 278
f 212 278 213
f 213 221 214
f 213 278 221
f 216 279 280
f 216 280 281
f 216 281 217
f 216 220 282
f 216 282 279
f 218 224 219
f 219 224 283
f 219 283 220
f 220 283 284
f 220 284 285
f 220 285 286
f 220 286 282
f 221 278 287
f 221 287 288
f 221 288 222
f 222 288 289
f 222 289 224
f 222 224 223
f 224 290 284
f 224 284 283
f 224 289 288
f 224 288 291
f 224 291 292
f 224 292 293
f 224 293 294
f 224 294 290
f 225 239 295
f 225 295 296
f 225 296 226
f 226 296 297
f 226 297 298
f 226 298 227
f 227 298 230
f 230 298 231
f 231 298 232
f 232 298 299
f 233 300 235
f 233 234 301
f 233 301 300
f 235 302 303
f 235 303 236
f 235 300 302
f 236 303 304
f 236 304 305
f 236 305 306
f 236 306 307
f 236 307 308
f 236 308 309
f 236 309 310
f 236 310 238
f 238 310 239
f 239 310 311
f 239 311 295
f 240 312 241
f 240 243 313
f 240 313 314
f 240 314 315
f 240 315 316
f 240 316 312
f 241 312 317
f 241 317 244
f 242 318 243
f 242 247 319
f 242 319 320
f 242 320 318
f 243 318 313
f 244 317 321
f 244 321 322
f 244 322 250
f 246 323 247
f 247 323 319
f 248 250 324
f 248 324 325
f 248 325 326
f 248 326 327
f 248 327 249
f 250 322 324
f 251 328 253
f 251 253 252
f 253 328 329
f 253 329 254
f 254 329 330
f 254 330 255
f 255 330 266
f 256 331 332
f 256 332 333
f 256 333 257
f 256 260 334
f 256 334 335
f 256 335 331
f 257 333 258
f 258 333 263
f 259 336 337
f 259 337 260
f 259 262 338
f 259 338 339
f 259 339 340
f 259 340 341
f 259 341 336
f 260 337 336
f 260 336 334
f 261 265 342
f 261 342 262
f 262 342 338
f 263 333 343
f 265 267 266
f 265 266 344
f 265 344 345
f 265 345 342
f 266 330 346
f 266 346 347
f 266 347 348
f 266 348 349
f 266 349 350
f 266 350 344
f 268 351 269
f 269 351 352
f 269 352 353
f 269 353 354
f 269 354 331
f 269 331 335
f 269 335 334
f 269 334 355
f 269 355 270
f 270 355 356
f 270 356 357
f 270 357 273
f 273 357 358
f 273 358 359
f 273 359 274
f 274 359 360
f 274 360 361
f 274 361 362
f 274 362 363
f 274 363 364
f 274 364 365
f 274 365 275
f 275 365 276
f 276 366 277
f 276 365 364
f 276 364 363
f 276 363 367
f 276 367 368
f 276 368 369
f 276 369 370
f 276 370 371
f 276 371 366
f 277 366 278
f 278 366 372
f 278 372 287
f 279 373 280
f 279 282 374
f 279 374 375
f 279 375 373
f 282 286 374
f 284 290 285
f 285 376 286
f 285 290 376
f 286 377 374
f 286 376 378
f 286 378 377
f 287 372 288
f 288 372 379
f 288 379 380
f 288 380 381
f 288 381 382
f 288 382 291
f 290 383 376
f 290 294 384
f 290 384 383
f 291 382 381
f 291 381 292
f 292 381 385
f 292 385 386
f 292 386 293
f 293 386 294
f 294 386 387
f 294 387 384
f 295 311 388
f 295 388 389
f 295 389 296
f 296 389 390
f 296 390 391
f 296 391 298
f 296 298 297
f 298 391 392
f 298 392 299
f 300 301 393
f 300 393 394
f 300 394 395
f 300 395 396
f 300 396 302
f 302 396 397
f 302 397 303
f 303 397 398
f 303 398 304
f 304 398 399
f 304 399 305
f 305 399 396
f 305 396 400
f 305 400 306
f 306 401 402
f 306 402 403
f 306 403 308
f 306 308 307
f 306 400 401
f 308 403 402
f 308 402 404
f 308 404 405
f 308 405 406
f 308 406 309
f 309 406 407
f 309 407 311
f 309 311 310
f 311 407 388
f 312 316 408
f 312 408 409
f 312 409 317
f 313 318 320
f 313 320 314
f 314 410 315
f 314 320 319
f 314 319 411
f 314 411 412
f 314 412 378
f 314 378 413
f 314 413 410
f 315 414 387
f 315 387 386
f 315 386 316
f 315 410 414
f 316 386 408
f 317 409 321
f 319 415 416
f 319 416 417
f 319 417 418
f 319 418 411
f 319 323 419
f 319 419 415
f 321 409 420
f 321 420 322
f 322 420 421
f 322 421 422
f 322 422 423
f 322 423 324
f 324 423 424
f 324 424 425
f 324 425 325
f 325 425 426
f 325 426 427
f 325 427 326
f 326 427 327
f 328 428 329
f 329 428 429
f 329 429 430
f 329 430 431
f 329 431 330
f 330 432 346
f 330 431 433
f 330 433 432
f 331 354 434
f 331 434 332
f 332 343 333
f 334 336 355
f 336 435 436
f 336 436 356
f 336 356 355
f 336 341 437
f 336 437 438
f 336 438 439
f 336 439 440
f 336 440 435
f 338 342 339
f 339 342 345
f 339 345 340
f 340 441 442
f 340 442 443
f 340 443 341
f 340 345 441
f 341 444 438
f 341 438 437
f 341 443 445
f 341 445 446
f 341 446 444
f 344 350 345
f 345 350 441
f 346 432 433
f 346 433 447
f 346 447 448
f 346 448 449
f 346 449 450
f 346 450 347
f 347 451 348
f 347 450 452
f 347 452 453
f 347 453 451
f 348 451 349
f 349 443 442
f 349 442 350
f 349 451 443
f 350 442 441
f 351 454 352
f 352 454 353
f 356 436 357
f 357 440 439
f 357 439 358
f 357 436 435
f 357 435 440
f 358 439 455
f 358 455 359
f 359 455 360
f 360 455 361
f 361 456 457
f 361 457 458
f 361 458 362
f 361 455 438
f 361 438 456
f 362 458 367
f 362 367 363
f 366 371 379
f 366 379 372
f 367 458 459
f 367 459 368
f 368 459 460
f 368 460 461
f 368 461 369
f 369 461 462
f 369 462 463
f 369 463 464
f 369 464 371
f 369 371 370
f 371 464 465
f 371 465 379
f 374 466 375
f 374 377 466
f 376 383 378
f 377 378 466
f 378 418 467
f 378 467 468
f 378 468 466
f 378 383 413
f 378 412 418
f 379 465 380
f 380 465 469
f 380 469 381
f 381 469 470
f 381 470 471
f 381 471 386
f 381 386 385
f 383 384 410
f 383 410 413
f 384 387 414
f 384 414 410
f 386 471 472
f 386 472 408
f 388 407 473
f 388 473 474
f 388 474 475
f 388 475 389
f 389 475 476
f 389 476 390
f 390 476 391
f 391 476 477
f 391 477 478
f 391 478 392
f 393 479 480
f 393 480 394
f 394 481 395
f 394 480 481
f 395 481 482
f 395 482 483
f 395 483 484
f 395 484 396
f 396 484 400
f 396 399 397
f 397 399 398
f 400 484 483
f 400 483 485
f 400 485 401
f 401 486 487
f 401 487 488
f 401 488 402
f 401 485 486
f 402 459 458
f 402 458 489
f 402 489 490
f 402 490 404
f 402 488 460
f 402 460 459
f 404 490 405
f 405 490 406
f 406 490 491
f 406 491 407
f 407 491 473
f 408 472 409
f 409 472 420
f 411 418 412
f 417 467 418
f 420 472 492
f 420 492 421
f 421 492 422
f 422 492 493
f 422 493 494
f 422 494 495
f 422 495 496
f 422 496 497
f 422 497 498
f 422 498 423
f 423 498 424
f 424 498 499
f 424 499 500
f 424 500 425
f 425 500 426
f 426 500 501
f 430 502 433
f 430 433 431
f 433 502 503
f 433 503 504
f 433 504 478
f 433 478 477
f 433 477 447
f 438 455 439
f 438 444 456
f 443 451 445
f 444 446 456
f 445 451 453
f 445 453 452
f 445 452 505
f 445 505 446
f 446 505 506
f 446 506 490
f 446 490 507
f 446 507 508
f 446 508 456
f 447 477 476
f 447 476 448
f 448 476 475
f 448 475 449
f 449 475 474
f 449 474 509
f 449 509 452
f 449 452 450
f 452 509 506
f 452 506 505
f 456 508 457
f 457 507 490
f 457 490 489
f 457 489 458
f 457 508 507
f 460 488 487
f 460 487 461
f 461 487 462
f 462 487 486
f 462 486 510
f 462 510 463
f 463 510 511
f 463 511 512
f 463 512 464
f 464 512 513
f 464 513 465
f 465 513 469
f 469 513 514
f 469 514 470
f 470 514 493
f 470 493 492
f 470 492 472
f 470 472 471
f 473 491 509
f 473 509 474
f 479 515 480
f 480 515 516
f 480 516 517
f 480 517 481
f 481 517 518
f 481 518 483
f 481 483 482
f 483 519 520
f 483 520 485
f 483 518 521
f 483 521 522
f 483 522 519
f 485 520 510
f 485 510 486
f 490 506 523
f 490 523 491
f 491 523 509
f 493 514 524
f 493 524 494
f 494 525 526
f 494 526 495
f 494 524 525
f 495 527 528
f 495 528 529
f 495 529 530
f 495 530 496
f 495 526 527
f 496 530 497
f 497 530 531
f 497 531 499
f 497 499 498
f 499 531 532
f 499 532 500
f 500 532 501
f 506 509 523
f 510 520 511
f 511 520 533
f 511 533 525
f 511 525 512
f 512 524 513
f 512 525 524
f 513 524 514
f 516 534 521
f 516 521 517
f 517 521 518
f 519 533 520
f 519 522 521
f 519 521 533
f 521 534 535
f 521 535 536
f 521 536 537
f 521 537 538
f 521 538 539
f 521 539 533
f 525 533 526
f 526 533 539
f 526 539 538
f 526 538 527
f 527 538 537
f 527 537 528
f 528 537 529
f 529 537 540
f 536 540 537

