# https://github.com/mikedh/trimesh
v -0.00646141 0.00328537 -0.01374620
v -0.00677883 0.00328537 -0.01373129
v -0.00646141 0.00746876 -0.01366388
v -0.00631208 0.00501279 -0.01371833
v -0.00625741 0.00525687 -0.01371574
v -0.00602893 0.00371456 -0.01374491
v -0.00600363 0.00328537 -0.01373842
v -0.00691673 0.00328537 -0.01372481
v -0.00632106 0.00746876 -0.01366453
v -0.00707259 0.00343403 -0.01371314
v -0.00689470 0.00746876 -0.01363989
v -0.00621498 0.00525687 -0.01371574
v -0.00602893 0.00746876 -0.01366582
v -0.00602893 0.00414744 -0.01373583
v -0.00548874 0.00469007 -0.01371314
v -0.00536798 0.00440135 -0.01371574
v -0.00536226 0.00414744 -0.01371703
v -0.00559809 0.00374446 -0.01372740
v -0.00574415 0.00338939 -0.01372611
v -0.00595141 0.00328537 -0.01373518
v -0.00729535 0.00328537 -0.01369240
v -0.00732718 0.00746876 -0.01359387
v -0.00602893 0.00717636 -0.01367230
v -0.00602893 0.00631101 -0.01369045
v -0.00588858 0.00746876 -0.01366128
v -0.00559564 0.00674348 -0.01366906
v -0.00559564 0.00587813 -0.01368916
v -0.00559564 0.00717636 -0.01365869
v -0.00559564 0.00746876 -0.01365156
v -0.00516316 0.00544526 -0.01367879
v -0.00516316 0.00501279 -0.01368916
v -0.00519907 0.00455943 -0.01370147
v -0.00473069 0.00501279 -0.01365934
v -0.00536879 0.00390909 -0.01371703
v -0.00545529 0.00362037 -0.01370212
v -0.00558829 0.00328537 -0.01367101
v -0.00562665 0.00328537 -0.01367943
v -0.00776292 0.00328537 -0.01361396
v -0.00775884 0.00746876 -0.01351219
v -0.00545529 0.00746876 -0.01364378
v -0.00516316 0.00631101 -0.01365675
v -0.00473069 0.00587813 -0.01363730
v -0.00429739 0.00544526 -0.01360813
v -0.00429739 0.00501279 -0.01361137
v -0.00386492 0.00501279 -0.01351932
v -0.00513868 0.00328537 -0.01345839
v -0.00329699 0.00506644 -0.01335078
v -0.00819539 0.00328537 -0.01350830
v -0.00819213 0.00717636 -0.01339097
v -0.00819213 0.00746876 -0.01338190
v -0.00516316 0.00746876 -0.01362628
v -0.00516316 0.00674348 -0.01364573
v -0.00473069 0.00631101 -0.01362498
v -0.00502281 0.00746876 -0.01361526
v -0.00473069 0.00674348 -0.01361267
v -0.00473069 0.00746876 -0.01359128
v -0.00458952 0.00746876 -0.01357637
v -0.00429739 0.00746876 -0.01354460
v -0.00415704 0.00746876 -0.01352775
v -0.00386492 0.00746876 -0.01349210
v -0.00386492 0.00717636 -0.01350052
v -0.00386492 0.00674348 -0.01351284
v -0.00386492 0.00544526 -0.01354720
v -0.00343244 0.00544526 -0.01346358
v -0.00329699 0.00544853 -0.01342727
v -0.00507503 0.00328537 -0.01342533
v -0.00329699 0.00488051 -0.01326716
v -0.00861155 0.00328537 -0.01336569
v -0.00843285 0.00746876 -0.01329374
v -0.00372457 0.00746876 -0.01347006
v -0.00343244 0.00587813 -0.01347006
v -0.00329699 0.00587813 -0.01344153
v -0.00474945 0.00328537 -0.01320299
v -0.00329699 0.00481580 -0.01323475
v -0.00329699 0.00458728 -0.01308436
v -0.00329699 0.00444722 -0.01299102
v -0.00882779 0.00328537 -0.01327624
v -0.00866133 0.00717636 -0.01319197
v -0.00864909 0.00746876 -0.01318484
v -0.00343244 0.00746876 -0.01342403
v -0.00329699 0.00660874 -0.01342144
v -0.00329699 0.00631101 -0.01342987
v -0.00470621 0.00328537 -0.01317122
v -0.00329699 0.00428627 -0.01288276
v -0.00329699 0.00407823 -0.01273043
v -0.00905790 0.00328537 -0.01315567
v -0.00906035 0.00328537 -0.01315437
v -0.00890041 0.00746876 -0.01303899
v -0.00329699 0.00746876 -0.01339357
v -0.00329699 0.00704162 -0.01340783
v -0.00440102 0.00328537 -0.01293462
v -0.00329699 0.00400820 -0.01267663
v -0.00329699 0.00382145 -0.01252624
v -0.00902199 0.00746876 -0.01296833
v -0.00941367 0.00328537 -0.01294370
v -0.00329699 0.00746876 -0.00712391
v -0.00418642 0.00328537 -0.01276479
v -0.00329699 0.00359539 -0.01232075
v -0.00389837 0.00328537 -0.01253077
v -0.00414154 0.00328537 -0.01272848
v -0.00418479 0.00328537 -0.01276349
v -0.00923823 0.00746876 -0.01282248
v -0.00927658 0.00656697 -0.01285165
v -0.00926516 0.00685528 -0.01284257
v -0.00925129 0.00717636 -0.01283220
v -0.00962909 0.00328537 -0.01278747
v -0.00329699 0.00328537 -0.00712391
v -0.01120478 0.00746876 -0.00712391
v -0.00329699 0.00337752 -0.01210813
v -0.00351486 0.00328537 -0.01220212
v -0.00948874 0.00746876 -0.01259430
v -0.00987552 0.00328537 -0.01256967
v -0.01163317 0.00328537 -0.00712391
v -0.00329699 0.00328537 -0.01200701
v -0.01117459 0.00746876 -0.00787326
v -0.01123497 0.00717636 -0.00712391
v -0.00329699 0.00330175 -0.01202516
v -0.00971069 0.00701377 -0.01242122
v -0.00969927 0.00730249 -0.01240826
v -0.00969193 0.00746876 -0.01240048
v -0.01009013 0.00328537 -0.01236029
v -0.01120478 0.00717636 -0.00787326
v -0.01160135 0.00328537 -0.00787326
v -0.01114276 0.00746876 -0.00830563
v -0.01143733 0.00478795 -0.00806902
v -0.01026802 0.00328537 -0.01214184
v -0.00985512 0.00746876 -0.01219694
v -0.01156789 0.00328537 -0.00830563
v -0.01109299 0.00746876 -0.00873864
v -0.01011216 0.00674348 -0.01194413
v -0.01048262 0.00328537 -0.01185532
v -0.01009421 0.00717636 -0.01191626
v -0.01008197 0.00746876 -0.01189746
v -0.01151812 0.00328537 -0.00873540
v -0.01103587 0.00746876 -0.00913277
v -0.01143326 0.00388452 -0.00891626
v -0.01062787 0.00328537 -0.01163687
v -0.01021824 0.00746876 -0.01168095
v -0.01144794 0.00359580 -0.00901608
v -0.01145855 0.00328537 -0.00914703
v -0.01099833 0.00746876 -0.00934798
v -0.01144713 0.00328537 -0.00921444
v -0.01060584 0.00371456 -0.01160511
v -0.01078291 0.00328537 -0.01133479
v -0.01040102 0.00746876 -0.01133479
v -0.01058462 0.00414744 -0.01157075
v -0.01094774 0.00746876 -0.00960143
v -0.01139817 0.00328537 -0.00947114
v -0.01142346 0.00336154 -0.00930455
v -0.01057809 0.00659400 -0.01113060
v -0.01094529 0.00328537 -0.01096725
v -0.01056504 0.00688272 -0.01109819
v -0.01053893 0.00746876 -0.01102235
v -0.01091673 0.00746876 -0.00974469
v -0.01137858 0.00328537 -0.00956708
v -0.01094611 0.00328537 -0.01096530
v -0.01103260 0.00328537 -0.01075009
v -0.01072824 0.00746876 -0.01046941
v -0.01113705 0.00328537 -0.01046941
v -0.01085308 0.00746876 -0.01003704
v -0.01127006 0.00328537 -0.01003380
v -0.01100975 0.00527898 -0.01026652
v -0.01099588 0.00556689 -0.01021401
v -0.01126924 0.00328537 -0.01003704
f 1 2 3
f 1 3 4
f 1 4 5
f 1 5 6
f 1 6 7
f 1 7 20
f 1 20 37
f 1 37 36
f 1 36 46
f 1 46 66
f 1 66 73
f 1 73 83
f 1 83 91
f 1 91 97
f 1 97 101
f 1 101 100
f 1 100 99
f 1 99 110
f 1 110 114
f 1 114 107
f 1 107 113
f 1 113 123
f 1 123 128
f 1 128 134
f 1 134 140
f 1 140 142
f 1 142 148
f 1 148 155
f 1 155 161
f 1 161 164
f 1 164 159
f 1 159 157
f 1 157 156
f 1 156 151
f 1 151 144
f 1 144 137
f 1 137 131
f 1 131 126
f 1 126 121
f 1 121 112
f 1 112 106
f 1 106 95
f 1 95 87
f 1 87 86
f 1 86 77
f 1 77 68
f 1 68 48
f 1 48 38
f 1 38 21
f 1 21 8
f 1 8 2
f 2 8 3
f 3 9 5
f 3 5 4
f 3 8 10
f 3 10 11
f 3 11 22
f 3 22 39
f 3 39 50
f 3 50 69
f 3 69 79
f 3 79 88
f 3 88 94
f 3 94 102
f 3 102 111
f 3 111 120
f 3 120 127
f 3 127 133
f 3 133 138
f 3 138 145
f 3 145 153
f 3 153 158
f 3 158 160
f 3 160 154
f 3 154 147
f 3 147 141
f 3 141 135
f 3 135 129
f 3 129 124
f 3 124 115
f 3 115 108
f 3 108 96
f 3 96 89
f 3 89 80
f 3 80 70
f 3 70 60
f 3 60 59
f 3 59 58
f 3 58 57
f 3 57 56
f 3 56 54
f 3 54 51
f 3 51 40
f 3 40 29
f 3 29 25
f 3 25 13
f 3 13 9
f 5 12 6
f 5 9 13
f 5 13 12
f 6 14 15
f 6 15 16
f 6 16 17
f 6 17 18
f 6 18 7
f 6 12 14
f 7 18 19
f 7 19 20
f 8 21 10
f 10 21 22
f 10 22 11
f 12 13 23
f 12 23 24
f 12 24 14
f 13 25 26
f 13 26 27
f 13 27 15
f 13 15 23
f 14 24 15
f 15 27 26
f 15 26 16
f 15 24 23
f 16 26 28
f 16 28 29
f 16 29 30
f 16 30 31
f 16 31 32
f 16 32 17
f 17 32 33
f 17 33 34
f 17 34 18
f 18 34 19
f 19 34 35
f 19 35 36
f 19 36 37
f 19 37 20
f 21 38 22
f 22 38 39
f 25 29 28
f 25 28 26
f 29 40 30
f 30 40 41
f 30 41 33
f 30 33 31
f 31 33 32
f 33 41 42
f 33 42 43
f 33 43 44
f 33 44 34
f 34 44 45
f 34 45 35
f 35 45 36
f 36 45 47
f 36 47 46
f 38 48 39
f 39 48 49
f 39 49 50
f 40 51 52
f 40 52 41
f 41 52 42
f 42 53 43
f 42 52 51
f 42 51 54
f 42 54 53
f 43 53 55
f 43 55 56
f 43 56 57
f 43 57 58
f 43 58 59
f 43 59 60
f 43 60 61
f 43 61 62
f 43 62 63
f 43 63 44
f 44 63 64
f 44 64 45
f 45 64 65
f 45 65 47
f 46 47 67
f 46 67 66
f 47 65 72
f 47 72 82
f 47 82 81
f 47 81 90
f 47 90 89
f 47 89 96
f 47 96 107
f 47 107 114
f 47 114 117
f 47 117 109
f 47 109 98
f 47 98 93
f 47 93 92
f 47 92 85
f 47 85 84
f 47 84 76
f 47 76 75
f 47 75 74
f 47 74 67
f 48 68 49
f 49 68 50
f 50 68 69
f 53 54 55
f 54 56 55
f 60 70 71
f 60 71 61
f 61 71 62
f 62 71 63
f 63 71 64
f 64 71 72
f 64 72 65
f 66 67 74
f 66 74 75
f 66 75 76
f 66 76 73
f 68 77 69
f 69 77 78
f 69 78 79
f 70 80 71
f 71 80 81
f 71 81 82
f 71 82 72
f 73 76 84
f 73 84 85
f 73 85 83
f 77 86 78
f 78 86 87
f 78 87 79
f 79 87 88
f 80 89 90
f 80 90 81
f 83 85 92
f 83 92 93
f 83 93 91
f 87 94 88
f 87 95 94
f 91 93 97
f 93 98 99
f 93 99 100
f 93 100 101
f 93 101 97
f 94 95 103
f 94 103 104
f 94 104 105
f 94 105 102
f 95 106 103
f 96 108 116
f 96 116 113
f 96 113 107
f 98 109 99
f 99 109 110
f 102 105 106
f 102 106 112
f 102 112 111
f 103 106 104
f 104 106 105
f 108 115 122
f 108 122 116
f 109 117 110
f 110 117 114
f 111 118 119
f 111 119 120
f 111 112 118
f 112 121 118
f 113 116 122
f 113 122 123
f 115 124 125
f 115 125 122
f 118 121 119
f 119 121 120
f 120 121 126
f 120 126 127
f 122 125 123
f 123 125 128
f 124 129 128
f 124 128 125
f 126 130 127
f 126 131 130
f 127 130 132
f 127 132 133
f 128 129 134
f 129 135 136
f 129 136 134
f 130 131 132
f 131 137 133
f 131 133 132
f 133 137 138
f 134 136 139
f 134 139 140
f 135 141 142
f 135 142 140
f 135 140 139
f 135 139 136
f 137 143 138
f 137 144 143
f 138 143 146
f 138 146 145
f 141 147 148
f 141 148 149
f 141 149 142
f 142 149 148
f 143 144 146
f 144 150 145
f 144 145 146
f 144 151 150
f 145 150 152
f 145 152 153
f 147 154 155
f 147 155 148
f 150 151 156
f 150 156 152
f 152 156 157
f 152 157 153
f 153 157 159
f 153 159 158
f 154 160 155
f 155 160 161
f 158 159 162
f 158 162 163
f 158 163 160
f 159 164 162
f 160 163 164
f 160 164 161
f 162 164 163

