# https://github.com/mikedh/trimesh
v -0.00098993 0.00328496 -0.00397761
v -0.00100147 0.00328496 -0.00424381
v -0.00099097 0.00328496 -0.00382178
v 0.00003086 0.00321941 -0.00311221
v 0.00003086 0.00321941 -0.00441015
v -0.00103821 0.00328496 -0.00441015
v -0.00099307 0.00328496 -0.00354506
v 0.00046384 0.00311000 -0.00282900
v 0.00075512 0.00308043 -0.00286950
v 0.00046384 0.00315485 -0.00311221
v -0.00104976 0.00328496 -0.00311221
v -0.00213299 0.00328496 -0.00230741
v 0.00046384 0.00315485 -0.00441015
v 0.00075512 0.00308043 -0.00465781
v 0.00046384 0.00311000 -0.00470449
v -0.00216816 0.00328496 -0.00545240
v -0.00216816 0.00328496 -0.00229411
v 0.00079290 0.00308782 -0.00311221
v 0.00132875 0.00276697 -0.00277891
v 0.00162738 0.00268614 -0.00283178
v 0.00132875 0.00290497 -0.00311221
v 0.00100913 0.00304001 -0.00311221
v 0.00079290 0.00308782 -0.00441015
v 0.00100913 0.00304198 -0.00441015
v 0.00132875 0.00290645 -0.00441015
v 0.00162738 0.00268614 -0.00470078
v 0.00132875 0.00276845 -0.00476200
v -0.00216816 -0.00175006 -0.00494596
v 0.00132875 0.00241556 -0.00492154
v 0.00176173 0.00198283 -0.00494133
v 0.00219419 0.00155011 -0.00493391
v 0.00262717 0.00068514 -0.00493545
v 0.00262717 0.00025241 -0.00494504
v 0.00262717 -0.00018031 -0.00494535
v 0.00262717 -0.00061353 -0.00493978
v 0.00219419 -0.00147899 -0.00494009
v 0.00176173 -0.00175006 -0.00494473
v 0.00132875 -0.00175006 -0.00494596
v -0.00216816 -0.00175006 -0.00262401
v -0.00213299 -0.00175006 -0.00262401
v 0.00192338 -0.00175006 -0.00263050
v 0.00219419 -0.00147899 -0.00263143
v 0.00262717 -0.00061353 -0.00262277
v 0.00262717 0.00025241 -0.00262555
v 0.00262717 0.00068514 -0.00262741
v 0.00219419 0.00155011 -0.00263669
v 0.00176173 0.00198283 -0.00262617
v 0.00132875 0.00241556 -0.00264101
v 0.00100913 0.00304346 -0.00354506
v 0.00176750 0.00243478 -0.00274830
v 0.00166884 0.00271325 -0.00311221
v 0.00209814 0.00230270 -0.00280581
v 0.00215797 0.00235445 -0.00311221
v 0.00188507 0.00257081 -0.00311221
v 0.00132875 0.00290793 -0.00354506
v 0.00100913 0.00304346 -0.00397761
v 0.00132875 0.00290793 -0.00397761
v 0.00166884 0.00271325 -0.00441015
v 0.00188507 0.00257081 -0.00441015
v 0.00215797 0.00235445 -0.00441015
v 0.00209814 0.00230270 -0.00472706
v 0.00176750 0.00243478 -0.00479508
v 0.00222305 0.00200797 -0.00480498
v 0.00262717 0.00111738 -0.00489773
v 0.00297670 0.00068514 -0.00477591
v 0.00301659 0.00025241 -0.00478550
v 0.00301606 -0.00018031 -0.00478581
v 0.00298562 -0.00061353 -0.00478024
v 0.00262717 -0.00104626 -0.00490299
v 0.00219419 -0.00175006 -0.00489650
v 0.00219419 -0.00175006 -0.00266297
v 0.00262717 -0.00104626 -0.00265555
v 0.00298247 -0.00061353 -0.00276067
v 0.00301134 -0.00018031 -0.00275788
v 0.00301186 0.00025241 -0.00275788
v 0.00297408 0.00068514 -0.00276500
v 0.00262717 0.00111738 -0.00266080
v 0.00222305 0.00200797 -0.00273902
v 0.00249019 0.00188032 -0.00281632
v 0.00237473 0.00215385 -0.00311221
v 0.00237473 0.00215385 -0.00441015
v 0.00249019 0.00188032 -0.00471717
v 0.00263189 0.00153778 -0.00477808
v 0.00292159 0.00111738 -0.00473819
v 0.00319135 0.00025241 -0.00441015
v 0.00319083 -0.00018031 -0.00441015
v 0.00312733 -0.00061353 -0.00441015
v 0.00293314 -0.00104626 -0.00474345
v 0.00264081 -0.00147209 -0.00478395
v 0.00254477 -0.00175006 -0.00473912
v 0.00235898 -0.00175006 -0.00270996
v 0.00264081 -0.00147209 -0.00275881
v 0.00293314 -0.00104626 -0.00279313
v 0.00312470 -0.00061353 -0.00311221
v 0.00318611 -0.00018031 -0.00311221
v 0.00318663 0.00025241 -0.00311221
v 0.00292159 0.00111738 -0.00279870
v 0.00263189 0.00153778 -0.00276469
v 0.00287593 0.00138549 -0.00284878
v 0.00253007 0.00193749 -0.00311221
v 0.00253007 0.00193749 -0.00441015
v 0.00287593 0.00138549 -0.00468192
v 0.00311001 0.00068514 -0.00441015
v 0.00319345 0.00025241 -0.00397761
v 0.00319293 -0.00018031 -0.00397761
v 0.00312733 -0.00061353 -0.00354506
v 0.00302289 -0.00104626 -0.00441015
v 0.00287908 -0.00132325 -0.00468347
v 0.00266286 -0.00175006 -0.00441015
v 0.00254477 -0.00175006 -0.00279715
v 0.00287908 -0.00132325 -0.00284755
v 0.00302289 -0.00104626 -0.00311221
v 0.00319293 -0.00018031 -0.00354506
v 0.00319345 0.00025241 -0.00354506
v 0.00310738 0.00068514 -0.00311221
v 0.00299979 0.00111738 -0.00311221
v 0.00289220 0.00141161 -0.00311221
v 0.00274683 0.00162798 -0.00311221
v 0.00274683 0.00162798 -0.00441015
v 0.00289220 0.00141161 -0.00441015
v 0.00299979 0.00111738 -0.00441015
v 0.00311001 0.00068514 -0.00354506
v 0.00289693 -0.00135381 -0.00441015
v 0.00276992 -0.00157017 -0.00441015
v 0.00266286 -0.00175006 -0.00311221
v 0.00262192 -0.00175006 -0.00295823
v 0.00289693 -0.00135381 -0.00311221
v 0.00276992 -0.00157017 -0.00311221
f 1 2 6
f 1 6 16
f 1 16 17
f 1 17 12
f 1 12 11
f 1 11 7
f 1 7 3
f 1 3 4
f 1 4 5
f 1 5 2
f 2 5 6
f 3 7 4
f 4 8 9
f 4 9 10
f 4 10 13
f 4 13 5
f 4 7 11
f 4 11 12
f 4 12 8
f 5 13 14
f 5 14 15
f 5 15 16
f 5 16 6
f 8 12 17
f 8 17 9
f 9 18 10
f 9 17 19
f 9 19 20
f 9 20 21
f 9 21 22
f 9 22 18
f 10 18 23
f 10 23 13
f 13 23 14
f 14 23 24
f 14 24 25
f 14 25 26
f 14 26 27
f 14 27 16
f 14 16 15
f 16 28 39
f 16 39 17
f 16 27 29
f 16 29 30
f 16 30 31
f 16 31 32
f 16 32 33
f 16 33 34
f 16 34 35
f 16 35 36
f 16 36 37
f 16 37 38
f 16 38 28
f 17 39 40
f 17 40 41
f 17 41 42
f 17 42 43
f 17 43 44
f 17 44 45
f 17 45 46
f 17 46 47
f 17 47 48
f 17 48 19
f 18 22 49
f 18 49 56
f 18 56 23
f 19 48 50
f 19 50 20
f 20 51 21
f 20 50 52
f 20 52 53
f 20 53 54
f 20 54 51
f 21 51 55
f 21 55 49
f 21 49 22
f 23 56 24
f 24 56 57
f 24 57 25
f 25 57 58
f 25 58 26
f 26 58 59
f 26 59 60
f 26 60 61
f 26 61 62
f 26 62 27
f 27 62 29
f 28 38 37
f 28 37 70
f 28 70 90
f 28 90 109
f 28 109 125
f 28 125 126
f 28 126 110
f 28 110 91
f 28 91 71
f 28 71 41
f 28 41 40
f 28 40 39
f 29 62 30
f 30 62 63
f 30 63 31
f 31 63 64
f 31 64 32
f 32 64 65
f 32 65 66
f 32 66 33
f 33 66 34
f 34 66 67
f 34 67 35
f 35 67 68
f 35 68 69
f 35 69 36
f 36 69 70
f 36 70 37
f 41 71 42
f 42 71 72
f 42 72 43
f 43 72 73
f 43 73 74
f 43 74 75
f 43 75 44
f 44 75 45
f 45 75 76
f 45 76 77
f 45 77 46
f 46 77 78
f 46 78 47
f 47 78 48
f 48 78 50
f 49 55 57
f 49 57 56
f 50 78 52
f 51 58 57
f 51 57 55
f 51 54 59
f 51 59 58
f 52 78 79
f 52 79 80
f 52 80 53
f 53 60 59
f 53 59 54
f 53 80 81
f 53 81 60
f 60 81 61
f 61 81 82
f 61 82 63
f 61 63 62
f 63 82 83
f 63 83 64
f 64 83 84
f 64 84 65
f 65 84 85
f 65 85 66
f 66 85 67
f 67 85 86
f 67 86 68
f 68 86 87
f 68 87 88
f 68 88 69
f 69 88 89
f 69 89 70
f 70 89 90
f 71 91 72
f 72 91 92
f 72 92 93
f 72 93 73
f 73 93 94
f 73 94 95
f 73 95 74
f 74 95 96
f 74 96 75
f 75 96 76
f 76 96 97
f 76 97 77
f 77 97 98
f 77 98 78
f 78 98 79
f 79 98 99
f 79 99 80
f 80 99 100
f 80 100 101
f 80 101 81
f 81 101 102
f 81 102 82
f 82 102 83
f 83 102 84
f 84 102 103
f 84 103 85
f 85 104 105
f 85 105 86
f 85 103 104
f 86 105 87
f 87 105 113
f 87 113 106
f 87 106 112
f 87 112 107
f 87 107 88
f 88 108 89
f 88 107 108
f 89 108 90
f 90 108 109
f 91 110 92
f 92 111 93
f 92 110 111
f 93 111 112
f 93 112 94
f 94 106 113
f 94 113 95
f 94 112 106
f 95 113 114
f 95 114 96
f 96 114 115
f 96 115 97
f 97 115 99
f 97 99 98
f 99 115 116
f 99 116 117
f 99 117 118
f 99 118 100
f 100 118 119
f 100 119 101
f 101 119 102
f 102 119 120
f 102 120 121
f 102 121 103
f 103 121 116
f 103 116 122
f 103 122 114
f 103 114 104
f 104 114 113
f 104 113 105
f 107 112 127
f 107 127 123
f 107 123 108
f 108 123 124
f 108 124 109
f 109 124 128
f 109 128 125
f 110 126 111
f 111 127 112
f 111 126 125
f 111 125 128
f 111 128 127
f 114 122 115
f 115 122 116
f 116 121 120
f 116 120 117
f 117 120 119
f 117 119 118
f 123 127 128
f 123 128 124

