# https://github.com/mikedh/trimesh
v 0.00098980 0.02285178 0.00077016
v 0.00098980 0.02241850 0.00076737
v 0.00132928 0.02275768 0.00073250
v 0.00132928 0.02319097 0.00073390
v 0.00098980 0.02319097 0.00076877
v 0.00098980 0.02198521 0.00076179
v 0.00132928 0.02232440 0.00072692
v 0.00176224 0.02319097 0.00066974
v 0.00176224 0.02362207 0.00067253
v 0.00132928 0.02362207 0.00072971
v 0.00098980 0.02328288 0.00076737
v 0.00098980 0.02155411 0.00075482
v 0.00176224 0.02275768 0.00065998
v 0.00098980 0.02112082 0.00074366
v 0.00132928 0.02189330 0.00071577
v 0.00213619 0.02362207 0.00060280
v 0.00238479 0.02405536 0.00056095
v 0.00239575 0.02448646 0.00056374
v 0.00176224 0.02405536 0.00066695
v 0.00217953 0.02448646 0.00059861
v 0.00098980 0.02362207 0.00076040
v 0.00176224 0.02448646 0.00065858
v 0.00176224 0.02491974 0.00064882
v 0.00132928 0.02405536 0.00071856
v 0.00176224 0.02232440 0.00064603
v 0.00210224 0.02319097 0.00059861
v 0.00098980 0.02102673 0.00073948
v 0.00132928 0.02146001 0.00069903
v 0.00206516 0.02275768 0.00059024
v 0.00235293 0.02362207 0.00055119
v 0.00262764 0.02405536 0.00048983
v 0.00262764 0.02448646 0.00049819
v 0.00262764 0.02491974 0.00050098
v 0.00262764 0.02535303 0.00049959
v 0.00238165 0.02491974 0.00056095
v 0.00216543 0.02491974 0.00059443
v 0.00235972 0.02535303 0.00055817
v 0.00098980 0.02371617 0.00075761
v 0.00214297 0.02535303 0.00058885
v 0.00176224 0.02535303 0.00063487
v 0.00132928 0.02448646 0.00070321
v 0.00180141 0.02186923 0.00061674
v 0.00098980 0.02068754 0.00072414
v 0.00132928 0.02102673 0.00067811
v 0.00199726 0.02199834 0.00057211
v 0.00231846 0.02319097 0.00054003
v 0.00262764 0.02362207 0.00047030
v 0.00306060 0.02405536 0.00033362
v 0.00306060 0.02448646 0.00035175
v 0.00306060 0.02491974 0.00036709
v 0.00306060 0.02535303 0.00037546
v 0.00306060 0.02578632 0.00037407
v 0.00306060 0.02621742 0.00036430
v 0.00262764 0.02578632 0.00048843
v 0.00229704 0.02578632 0.00054980
v 0.00208082 0.02578632 0.00058048
v 0.00132928 0.02491974 0.00068648
v 0.00098980 0.02414727 0.00074087
v 0.00132928 0.02535303 0.00066835
v 0.00176224 0.02578632 0.00061395
v 0.00172881 0.02146001 0.00061116
v 0.00194503 0.02146001 0.00055817
v 0.00098980 0.02025425 0.00069624
v 0.00132928 0.02059344 0.00064743
v 0.00166875 0.02102673 0.00059722
v 0.00228190 0.02275768 0.00052888
v 0.00224273 0.02232440 0.00051632
v 0.00262764 0.02319097 0.00044380
v 0.00306060 0.02362207 0.00030991
v 0.00392548 0.02319097 -0.00008061
v 0.00343559 0.02491974 0.00021228
v 0.00345962 0.02535303 0.00021786
v 0.00347476 0.02578632 0.00021925
v 0.00348208 0.02621742 0.00021925
v 0.00348521 0.02665070 0.00021507
v 0.00348051 0.02708399 0.00020531
v 0.00306060 0.02665070 0.00034896
v 0.00306060 0.02708399 0.00032804
v 0.00262764 0.02621742 0.00046612
v 0.00262764 0.02665070 0.00043962
v 0.00262764 0.02708399 0.00041033
v 0.00217274 0.02621085 0.00053864
v 0.00201397 0.02606205 0.00057072
v 0.00098980 0.02458055 0.00072135
v 0.00132928 0.02578632 0.00064743
v 0.00098980 0.02578632 0.00066556
v 0.00175754 0.02621085 0.00058327
v 0.00132928 0.02621742 0.00061674
v 0.00188497 0.02102673 0.00054003
v 0.00219468 0.02146001 0.00047030
v 0.00216282 0.02186923 0.00051214
v 0.00098980 0.01982096 0.00066556
v 0.00135278 0.02017985 0.00060838
v 0.00159668 0.02059344 0.00058048
v 0.00262764 0.02275768 0.00041312
v 0.00262764 0.02232440 0.00038104
v 0.00306060 0.02319097 0.00027644
v 0.00349304 0.02102673 -0.00008340
v 0.00423153 0.02319097 -0.00022286
v 0.00459817 0.02535303 -0.00028144
v 0.00460391 0.02562657 -0.00027726
v 0.00369777 0.02621742 0.00012860
v 0.00370143 0.02665070 0.00012999
v 0.00369621 0.02708399 0.00012860
v 0.00368002 0.02751728 0.00012302
v 0.00346380 0.02751728 0.00019415
v 0.00306060 0.02751728 0.00030015
v 0.00262764 0.02751728 0.00037686
v 0.00219468 0.02665070 0.00050098
v 0.00219468 0.02708399 0.00046612
v 0.00189907 0.02635090 0.00055956
v 0.00098980 0.02587823 0.00065998
v 0.00098980 0.02621742 0.00063766
v 0.00161078 0.02649533 0.00057211
v 0.00098980 0.02631151 0.00063069
v 0.00116946 0.02692206 0.00057072
v 0.00151259 0.02004636 0.00055677
v 0.00181342 0.02059344 0.00051493
v 0.00219468 0.02102673 0.00042985
v 0.00262764 0.02189330 0.00034478
v 0.00098980 0.01941393 0.00063209
v 0.00112455 0.01904411 0.00056932
v 0.00372963 0.02075756 -0.00027865
v 0.00305016 0.02100922 0.00009652
v 0.00262764 0.01886248 -0.00004574
v 0.00290444 0.01852110 -0.00024518
v 0.00419445 0.02287585 -0.00025215
v 0.00444775 0.02319097 -0.00045717
v 0.00500710 0.02514076 -0.00073332
v 0.00485303 0.02531145 -0.00054922
v 0.00501912 0.02542962 -0.00071519
v 0.00506873 0.02751728 -0.00068312
v 0.00505463 0.02794838 -0.00069288
v 0.00424407 0.02881495 -0.00023542
v 0.00392548 0.02794838 -0.00002621
v 0.00392548 0.02838166 -0.00004992
v 0.00392548 0.02881495 -0.00008061
v 0.00363458 0.02794838 0.00011047
v 0.00341784 0.02794838 0.00017602
v 0.00306060 0.02794838 0.00025970
v 0.00262764 0.02794838 0.00032944
v 0.00219468 0.02751728 0.00042846
v 0.00131988 0.02707305 0.00054422
v 0.00176224 0.02751728 0.00046612
v 0.00098980 0.02674480 0.00059582
v 0.00132928 0.02751728 0.00050098
v 0.00098980 0.02718247 0.00055538
v 0.00098980 0.02697020 0.00057630
v 0.00145410 0.01972905 0.00054003
v 0.00176224 0.01972905 0.00042706
v 0.00219468 0.02059344 0.00037546
v 0.00098980 0.01929577 0.00062232
v 0.00098980 0.01894345 0.00059164
v 0.00098980 0.01881871 0.00057909
v 0.00106658 0.01875525 0.00055398
v 0.00382834 0.02060438 -0.00050320
v 0.00459921 0.02291306 -0.00069567
v 0.00330294 0.01857800 -0.00068869
v 0.00176224 0.01929577 0.00036709
v 0.00176224 0.01886248 0.00029875
v 0.00132928 0.01842919 0.00040057
v 0.00098980 0.01722124 0.00031130
v 0.00098980 0.01713152 0.00029317
v 0.00098980 0.01678795 0.00022065
v 0.00098980 0.01672887 0.00020810
v 0.00115588 0.01682515 0.00015649
v 0.00098980 0.01645095 0.00013976
v 0.00108277 0.01653848 0.00011744
v 0.00098980 0.01624744 0.00007281
v 0.00178104 0.01625619 -0.00037489
v 0.00219416 0.01629120 -0.00061059
v 0.00242552 0.01645095 -0.00071519
v 0.00307053 0.01840512 -0.00049901
v 0.00544529 0.02728750 -0.00115731
v 0.00556175 0.02361551 -0.00265940
v 0.00563278 0.02405536 -0.00268032
v 0.00528495 0.02751728 -0.00093556
v 0.00529801 0.02793743 -0.00098576
v 0.00547297 0.02997038 -0.00156735
v 0.00489012 0.02968152 -0.00086861
v 0.00467337 0.02968152 -0.00064127
v 0.00443365 0.02924824 -0.00040139
v 0.00421691 0.02924824 -0.00025494
v 0.00392548 0.02924824 -0.00012663
v 0.00355780 0.02838166 0.00009234
v 0.00345857 0.02879088 0.00007700
v 0.00334106 0.02838166 0.00015091
v 0.00329092 0.02862894 0.00013697
v 0.00306060 0.02838166 0.00020810
v 0.00219468 0.02794838 0.00037686
v 0.00318438 0.02891780 0.00012023
v 0.00304859 0.02923730 0.00009792
v 0.00289609 0.02908630 0.00013976
v 0.00274620 0.02937297 0.00012163
v 0.00245790 0.02949552 0.00013836
v 0.00176224 0.02794838 0.00041591
v 0.00098980 0.02751728 0.00051911
v 0.00098980 0.02727875 0.00054561
v 0.00132928 0.02794838 0.00045077
v 0.00137942 0.01929577 0.00051075
v 0.00129272 0.01888436 0.00048843
v 0.00098980 0.01866991 0.00056374
v 0.00099032 0.01842919 0.00052748
v 0.00451826 0.01927169 -0.00266219
v 0.00501285 0.02123680 -0.00245717
v 0.00517319 0.02146001 -0.00268032
v 0.00248715 0.01629120 -0.00096345
v 0.00098980 0.01765890 0.00039359
v 0.00098980 0.01593670 -0.00003876
v 0.00098980 0.01547277 -0.00021729
v 0.00098980 0.01521455 -0.00032328
v 0.00098980 0.01504824 -0.00040418
v 0.00098980 0.01496727 -0.00044462
v 0.00098980 0.01464778 -0.00061756
v 0.00098980 0.01438518 -0.00078353
v 0.00233778 0.01616428 -0.00082816
v 0.00243701 0.01602204 -0.00111687
v 0.00603128 0.02621742 -0.00311268
v 0.00554191 0.02751728 -0.00138186
v 0.00544790 0.02751728 -0.00115173
v 0.00572261 0.02362207 -0.00311268
v 0.00544581 0.02778644 -0.00115592
v 0.00565367 0.02968152 -0.00181421
v 0.00557742 0.03011481 -0.00179469
v 0.00541030 0.03025924 -0.00163848
v 0.00491727 0.03101859 -0.00137628
v 0.00496376 0.03062469 -0.00122844
v 0.00500919 0.03033583 -0.00116289
v 0.00484624 0.03011262 -0.00091742
v 0.00463002 0.03011262 -0.00068312
v 0.00433808 0.02972310 -0.00039999
v 0.00418035 0.02960712 -0.00027726
v 0.00349304 0.02924824 0.00001144
v 0.00414170 0.02989598 -0.00029957
v 0.00396883 0.02972310 -0.00021031
v 0.00219468 0.02924824 0.00019973
v 0.00176224 0.02881495 0.00030015
v 0.00349304 0.02968152 -0.00005550
v 0.00306060 0.02968152 0.00002679
v 0.00261250 0.02965526 0.00008955
v 0.00219468 0.02978000 0.00011047
v 0.00219468 0.02956336 0.00015231
v 0.00176224 0.02924824 0.00024017
v 0.00098980 0.02760919 0.00050796
v 0.00132928 0.02881495 0.00033362
v 0.00098980 0.02881495 0.00035036
v 0.00098980 0.01842919 0.00052748
v 0.00460861 0.01939862 -0.00279469
v 0.00375104 0.01724093 -0.00281700
v 0.00368837 0.01695208 -0.00297181
v 0.00526302 0.02146001 -0.00311268
v 0.00098980 0.01427795 -0.00086024
v 0.00098980 0.01411820 -0.00097740
v 0.00098980 0.01386436 -0.00116429
v 0.00162384 0.01423856 -0.00153667
v 0.00199622 0.01428889 -0.00199134
v 0.00615975 0.02491974 -0.00527725
v 0.00607776 0.02621742 -0.00354504
v 0.00622556 0.02838166 -0.00397879
v 0.00583542 0.02968152 -0.00220194
v 0.00573515 0.02232440 -0.00527725
v 0.00580879 0.02275768 -0.00527725
v 0.00551580 0.03043649 -0.00192719
v 0.00500501 0.03118928 -0.00160222
v 0.00579103 0.03008418 -0.00226889
v 0.00461488 0.03127681 -0.00111826
v 0.00468016 0.03097920 -0.00104713
v 0.00477783 0.03049995 -0.00096484
v 0.00459190 0.03037741 -0.00071659
v 0.00435844 0.03011262 -0.00049204
v 0.00437463 0.03053059 -0.00061756
v 0.00407851 0.03011262 -0.00032468
v 0.00376880 0.03042336 -0.00027865
v 0.00386177 0.03011262 -0.00024518
v 0.00349304 0.03011262 -0.00014058
v 0.00306060 0.03011262 -0.00005690
v 0.00262764 0.03011262 -0.00000390
v 0.00124310 0.02995287 0.00014673
v 0.00176224 0.02964432 0.00017044
v 0.00219468 0.03011262 0.00003655
v 0.00132928 0.02924824 0.00026946
v 0.00098980 0.02890905 0.00033641
v 0.00377925 0.01710964 -0.00311547
v 0.00456317 0.01911851 -0.00311268
v 0.00511730 0.02012295 -0.00480584
v 0.00372232 0.01689737 -0.00326052
v 0.00292272 0.01506356 -0.00397879
v 0.00518833 0.02016234 -0.00527725
v 0.00098980 0.01364553 -0.00136791
v 0.00098980 0.01343545 -0.00159943
v 0.00175075 0.01412039 -0.00183792
v 0.00098980 0.01326038 -0.00181840
v 0.00098980 0.01298028 -0.00223262
v 0.00098980 0.01290806 -0.00235536
v 0.00098980 0.01277677 -0.00260919
v 0.00159772 0.01295621 -0.00368729
v 0.00164212 0.01290150 -0.00397879
v 0.00615923 0.02491974 -0.00743903
v 0.00631539 0.02640342 -0.00642788
v 0.00631539 0.02640342 -0.00628422
v 0.00632479 0.02665070 -0.00622146
v 0.00580879 0.02275768 -0.00743903
v 0.00625063 0.02838166 -0.00441114
v 0.00630965 0.02947582 -0.00633304
v 0.00590019 0.03132933 -0.00397879
v 0.00588608 0.03125492 -0.00373611
v 0.00588086 0.02992224 -0.00242649
v 0.00588191 0.02968152 -0.00241812
v 0.00573515 0.02232440 -0.00743903
v 0.00518885 0.02016234 -0.00743903
v 0.00495383 0.03141248 -0.00169985
v 0.00575343 0.03140592 -0.00357293
v 0.00505463 0.03180857 -0.00228702
v 0.00501337 0.03164226 -0.00201924
v 0.00464987 0.03175824 -0.00149483
v 0.00472926 0.03141686 -0.00136233
v 0.00453654 0.03156567 -0.00120613
v 0.00435009 0.03139717 -0.00095090
v 0.00444932 0.03097920 -0.00083095
v 0.00453027 0.03066627 -0.00076680
v 0.00423310 0.03097920 -0.00067335
v 0.00391817 0.03055904 -0.00037489
v 0.00364502 0.03071222 -0.00031213
v 0.00349774 0.03055904 -0.00024657
v 0.00306060 0.03054591 -0.00016150
v 0.00262764 0.03054591 -0.00010711
v 0.00176224 0.03097920 -0.00012942
v 0.00098980 0.02997038 0.00015231
v 0.00098980 0.02975374 0.00019415
v 0.00098980 0.02968809 0.00020670
v 0.00176224 0.03054591 -0.00002900
v 0.00132928 0.03054591 -0.00000111
v 0.00098980 0.02924824 0.00028481
v 0.00443887 0.01799809 -0.00527725
v 0.00287154 0.01470248 -0.00614196
v 0.00375052 0.01642250 -0.00614196
v 0.00098980 0.01275707 -0.00264964
v 0.00098980 0.01260608 -0.00300250
v 0.00098980 0.01250104 -0.00326052
v 0.00098980 0.01239819 -0.00354085
v 0.00142694 0.01268486 -0.00397879
v 0.00156534 0.01256231 -0.00614196
v 0.00602814 0.02621742 -0.00960360
v 0.00607880 0.02621742 -0.00916985
v 0.00622243 0.02838166 -0.00873749
v 0.00632479 0.02665070 -0.00648366
v 0.00572157 0.02362207 -0.00960360
v 0.00631539 0.02924824 -0.00630654
v 0.00630965 0.02947582 -0.00638046
v 0.00588713 0.03172760 -0.00629817
v 0.00585161 0.03154597 -0.00397879
v 0.00526249 0.02146001 -0.00960360
v 0.00456317 0.01911851 -0.00960360
v 0.00511574 0.02012295 -0.00790904
v 0.00443783 0.01799809 -0.00743903
v 0.00479611 0.03184358 -0.00181561
v 0.00500972 0.03206460 -0.00245857
v 0.00494182 0.03192893 -0.00216986
v 0.00456526 0.03204710 -0.00161198
v 0.00440649 0.03190704 -0.00133304
v 0.00413387 0.03205366 -0.00116986
v 0.00424825 0.03176480 -0.00107363
v 0.00416364 0.03122867 -0.00071938
v 0.00392548 0.03097920 -0.00051436
v 0.00349304 0.03141248 -0.00053249
v 0.00349774 0.03096607 -0.00036233
v 0.00335621 0.03081288 -0.00028563
v 0.00306060 0.03089823 -0.00026052
v 0.00281252 0.03118271 -0.00030376
v 0.00265219 0.03101421 -0.00023681
v 0.00219468 0.03097920 -0.00017545
v 0.00252423 0.03123304 -0.00028563
v 0.00219468 0.03128556 -0.00026610
v 0.00176224 0.03134902 -0.00024100
v 0.00132928 0.03097920 -0.00011408
v 0.00098980 0.03026799 0.00007560
v 0.00156534 0.01256450 -0.00657432
v 0.00286997 0.01470467 -0.00657432
v 0.00375000 0.01642250 -0.00657432
v 0.00098980 0.01228220 -0.00396065
v 0.00098980 0.01227783 -0.00397879
v 0.00098980 0.01221218 -0.00441114
v 0.00098980 0.01216622 -0.00483653
v 0.00098980 0.01212465 -0.00527725
v 0.00098980 0.01206775 -0.00593834
v 0.00098980 0.01205681 -0.00614196
v 0.00098980 0.01205462 -0.00657432
v 0.00544372 0.02729188 -0.01155618
v 0.00553982 0.02751728 -0.01133442
v 0.00583281 0.02968152 -0.01051434
v 0.00588243 0.02968152 -0.01029816
v 0.00562756 0.02405536 -0.01003596
v 0.00588138 0.02992443 -0.01028979
v 0.00588504 0.03125055 -0.00897599
v 0.00590019 0.03132933 -0.00873749
v 0.00625167 0.02838166 -0.00830514
v 0.00631539 0.02924824 -0.00640556
v 0.00516953 0.02146001 -0.01003596
v 0.00555862 0.02361988 -0.01005409
v 0.00588713 0.03172760 -0.00641393
v 0.00583333 0.03186109 -0.00614894
v 0.00566099 0.03227687 -0.00614196
v 0.00568188 0.03184358 -0.00397879
v 0.00546043 0.03208211 -0.00373053
v 0.00554713 0.03183264 -0.00357014
v 0.00460861 0.01940080 -0.00992020
v 0.00372180 0.01689737 -0.00945437
v 0.00377925 0.01711182 -0.00959942
v 0.00368785 0.01695208 -0.00974168
v 0.00292220 0.01506356 -0.00873749
v 0.00465300 0.03218058 -0.00190069
v 0.00504889 0.03213682 -0.00268032
v 0.00497838 0.03244756 -0.00298576
v 0.00491988 0.03235346 -0.00268032
v 0.00463107 0.03257010 -0.00235117
v 0.00478618 0.03226593 -0.00226052
v 0.00455482 0.03246944 -0.00206247
v 0.00447387 0.03230532 -0.00177935
v 0.00414745 0.03249789 -0.00159246
v 0.00424668 0.03227687 -0.00149065
v 0.00393697 0.03185234 -0.00093834
v 0.00402837 0.03151752 -0.00078493
v 0.00396413 0.03229438 -0.00127307
v 0.00363040 0.03245193 -0.00120055
v 0.00384557 0.03216308 -0.00109176
v 0.00390094 0.03138841 -0.00066917
v 0.00306060 0.03141248 -0.00043207
v 0.00374008 0.03165101 -0.00072077
v 0.00349304 0.03172760 -0.00068033
v 0.00305642 0.03186547 -0.00063709
v 0.00306060 0.03111487 -0.00032328
v 0.00265219 0.03139060 -0.00036233
v 0.00219468 0.03184358 -0.00047949
v 0.00132928 0.03134902 -0.00023821
v 0.00176224 0.03156348 -0.00032328
v 0.00098980 0.03064001 -0.00002900
v 0.00098980 0.01215091 -0.00773471
v 0.00098980 0.01216404 -0.00787139
v 0.00098980 0.01219905 -0.00821867
v 0.00142590 0.01268486 -0.00873749
v 0.00164160 0.01290150 -0.00873749
v 0.00500501 0.02516046 -0.01197877
v 0.00501755 0.02544932 -0.01199830
v 0.00527660 0.02751728 -0.01177654
v 0.00544633 0.02751728 -0.01156036
v 0.00544477 0.02778206 -0.01155897
v 0.00564427 0.02968152 -0.01090207
v 0.00557324 0.03010825 -0.01091880
v 0.00578999 0.03008636 -0.01044739
v 0.00551475 0.03043431 -0.01078631
v 0.00585109 0.03154597 -0.00873749
v 0.00501076 0.02123899 -0.01025632
v 0.00504627 0.02146001 -0.01029816
v 0.00459817 0.02291743 -0.01201782
v 0.00451617 0.01927169 -0.01005269
v 0.00583072 0.03186109 -0.00656456
v 0.00561294 0.03232064 -0.00661616
v 0.00548759 0.03253947 -0.00650040
v 0.00547871 0.03253071 -0.00614196
v 0.00503113 0.03295963 -0.00484350
v 0.00501442 0.03293555 -0.00458687
v 0.00498987 0.03290273 -0.00429817
v 0.00496062 0.03286115 -0.00397879
v 0.00502382 0.03251758 -0.00327446
v 0.00491101 0.03278894 -0.00354504
v 0.00243649 0.01602204 -0.01159663
v 0.00375052 0.01724093 -0.00989788
v 0.00199517 0.01429108 -0.01072215
v 0.00485930 0.03268171 -0.00312244
v 0.00458511 0.03293774 -0.00287279
v 0.00468382 0.03271235 -0.00270961
v 0.00450729 0.03285896 -0.00258409
v 0.00438665 0.03273642 -0.00221031
v 0.00410880 0.03290273 -0.00206944
v 0.00423937 0.03258761 -0.00181421
v 0.00394898 0.03280426 -0.00180027
v 0.00392548 0.03257667 -0.00151157
v 0.00362518 0.03288741 -0.00164546
v 0.00348364 0.03270578 -0.00138325
v 0.00334211 0.03252415 -0.00114058
v 0.00348886 0.03229438 -0.00103179
v 0.00349304 0.03194425 -0.00080166
v 0.00262764 0.03184358 -0.00054643
v 0.00319848 0.03202521 -0.00075285
v 0.00290967 0.03208649 -0.00071659
v 0.00262764 0.03213682 -0.00068730
v 0.00219468 0.03221341 -0.00064685
v 0.00176224 0.03184358 -0.00043904
v 0.00098980 0.03128994 -0.00026749
v 0.00132928 0.03156567 -0.00032747
v 0.00098980 0.01220999 -0.00829956
v 0.00159720 0.01295621 -0.00902899
v 0.00098980 0.01227564 -0.00871518
v 0.00098980 0.01228002 -0.00873749
v 0.00098980 0.01239819 -0.00917543
v 0.00460025 0.02543619 -0.01243484
v 0.00444410 0.02319097 -0.01225492
v 0.00422788 0.02319097 -0.01248923
v 0.00505985 0.02751728 -0.01202619
v 0.00504889 0.02794838 -0.01201922
v 0.00529383 0.02793525 -0.01172912
v 0.00546879 0.02996163 -0.01114474
v 0.00540768 0.03025049 -0.01107361
v 0.00500136 0.03118052 -0.01110709
v 0.00494913 0.03141248 -0.01100806
v 0.00501180 0.03163788 -0.01069426
v 0.00505254 0.03180638 -0.01042787
v 0.00500919 0.03206460 -0.01025632
v 0.00554400 0.03183045 -0.00914475
v 0.00568135 0.03184358 -0.00873749
v 0.00382625 0.02060876 -0.01221169
v 0.00372754 0.02076194 -0.01243484
v 0.00419184 0.02288023 -0.01245994
v 0.00330241 0.01858019 -0.01202619
v 0.00503008 0.03295744 -0.00787139
v 0.00505097 0.03298807 -0.00743903
v 0.00487654 0.03320472 -0.00743903
v 0.00489116 0.03322003 -0.00700667
v 0.00490474 0.03323535 -0.00657432
v 0.00490474 0.03323317 -0.00614196
v 0.00489116 0.03321785 -0.00570961
v 0.00487706 0.03320253 -0.00527725
v 0.00505045 0.03298588 -0.00527725
v 0.00484729 0.03317627 -0.00484350
v 0.00474440 0.03311281 -0.00397879
v 0.00469426 0.03306029 -0.00354504
v 0.00462741 0.03298370 -0.00311268
v 0.00233517 0.01616647 -0.01188533
v 0.00242396 0.01645533 -0.01199830
v 0.00248558 0.01629339 -0.01175144
v 0.00098980 0.01275926 -0.01006525
v 0.00098980 0.01280303 -0.01014893
v 0.00098980 0.01298247 -0.01048226
v 0.00098980 0.01325819 -0.01088951
v 0.00174971 0.01412039 -0.01087557
v 0.00162279 0.01424075 -0.01117822
v 0.00448483 0.03327693 -0.00354504
v 0.00435061 0.03323098 -0.00307502
v 0.00413648 0.03335571 -0.00290487
v 0.00436106 0.03305591 -0.00270961
v 0.00421900 0.03299245 -0.00235675
v 0.00403777 0.03329881 -0.00268032
v 0.00391399 0.03313907 -0.00226052
v 0.00381998 0.03299683 -0.00193416
v 0.00326794 0.03335571 -0.00203737
v 0.00333688 0.03295306 -0.00156735
v 0.00306060 0.03279988 -0.00128841
v 0.00271225 0.03286990 -0.00121589
v 0.00242343 0.03293118 -0.00116150
v 0.00306060 0.03258324 -0.00109874
v 0.00305642 0.03225061 -0.00086443
v 0.00262764 0.03235346 -0.00082537
v 0.00219468 0.03243005 -0.00077377
v 0.00176224 0.03223310 -0.00063151
v 0.00098980 0.03146063 -0.00035815
v 0.00098980 0.03153722 -0.00039999
v 0.00132928 0.03184358 -0.00047949
v 0.00098980 0.01256669 -0.00961615
v 0.00098980 0.01273081 -0.00999970
v 0.00342828 0.02491974 -0.01292438
v 0.00345126 0.02535303 -0.01292856
v 0.00368576 0.02621742 -0.01283930
v 0.00368837 0.02665070 -0.01284070
v 0.00460025 0.02562219 -0.01243484
v 0.00392548 0.02319097 -0.01262731
v 0.00349304 0.02102673 -0.01262591
v 0.00423623 0.02881495 -0.01247528
v 0.00442373 0.02924824 -0.01231211
v 0.00467024 0.02968152 -0.01207082
v 0.00488646 0.02968152 -0.01184488
v 0.00484207 0.03011262 -0.01179886
v 0.00500919 0.03033583 -0.01155339
v 0.00496114 0.03062469 -0.01148226
v 0.00490944 0.03101421 -0.01133721
v 0.00472142 0.03141248 -0.01135116
v 0.00464674 0.03175605 -0.01121866
v 0.00479349 0.03184139 -0.01089788
v 0.00494025 0.03192674 -0.01054502
v 0.00504836 0.03213463 -0.01003596
v 0.00465196 0.03217840 -0.01081281
v 0.00478514 0.03226593 -0.01045437
v 0.00463055 0.03256792 -0.01036371
v 0.00491884 0.03235127 -0.01003596
v 0.00497838 0.03244537 -0.00973052
v 0.00545887 0.03207992 -0.00898296
v 0.00496062 0.03285896 -0.00873749
v 0.00498882 0.03290054 -0.00840974
v 0.00501285 0.03293337 -0.00812104
v 0.00290288 0.01852548 -0.01246831
v 0.00306896 0.01840731 -0.01221448
v 0.00484990 0.03317408 -0.00787139
v 0.00463368 0.03341261 -0.00787139
v 0.00466032 0.03343887 -0.00743903
v 0.00468852 0.03346513 -0.00657432
v 0.00468852 0.03346513 -0.00614196
v 0.00467494 0.03345200 -0.00570961
v 0.00466032 0.03343887 -0.00527725
v 0.00463107 0.03341042 -0.00484350
v 0.00454228 0.03332945 -0.00397879
v 0.00219259 0.01629339 -0.01210290
v 0.00098980 0.01407444 -0.01170820
v 0.00098980 0.01428014 -0.01185464
v 0.00098980 0.01327570 -0.01091043
v 0.00098980 0.01353830 -0.01121727
v 0.00098980 0.01365209 -0.01134837
v 0.00098980 0.01401316 -0.01165660
v 0.00426809 0.03345637 -0.00354504
v 0.00420176 0.03340604 -0.00319357
v 0.00396570 0.03350452 -0.00307502
v 0.00350453 0.03372991 -0.00308478
v 0.00382103 0.03341917 -0.00268032
v 0.00371971 0.03336446 -0.00245299
v 0.00349304 0.03330100 -0.00213639
v 0.00349304 0.03341480 -0.00235257
v 0.00309089 0.03372991 -0.00265940
v 0.00309821 0.03350670 -0.00220752
v 0.00263339 0.03369709 -0.00226191
v 0.00297913 0.03341042 -0.00196066
v 0.00241873 0.03336228 -0.00159385
v 0.00219468 0.03293337 -0.00116010
v 0.00176224 0.03244975 -0.00076540
v 0.00132928 0.03215651 -0.00066917
v 0.00098980 0.03185015 -0.00058967
v 0.00306060 0.02491974 -0.01307501
v 0.00306060 0.02405536 -0.01304293
v 0.00306060 0.02448646 -0.01305966
v 0.00306060 0.02535303 -0.01308198
v 0.00346380 0.02578632 -0.01292856
v 0.00346954 0.02621742 -0.01292717
v 0.00347267 0.02665070 -0.01292298
v 0.00368002 0.02708399 -0.01283791
v 0.00392548 0.02794838 -0.01267473
v 0.00306060 0.02319097 -0.01298435
v 0.00306060 0.02362207 -0.01301782
v 0.00262764 0.01886248 -0.01266496
v 0.00304598 0.02101797 -0.01280862
v 0.00392548 0.02838166 -0.01265381
v 0.00392548 0.02881495 -0.01262452
v 0.00420751 0.02924824 -0.01245436
v 0.00417356 0.02956992 -0.01243344
v 0.00433390 0.02970122 -0.01230932
v 0.00462532 0.03011262 -0.01203038
v 0.00458981 0.03036647 -0.01199690
v 0.00477522 0.03049558 -0.01174725
v 0.00467337 0.03097920 -0.01165799
v 0.00460809 0.03126806 -0.01159105
v 0.00453340 0.03155472 -0.01150736
v 0.00456317 0.03204491 -0.01110151
v 0.00455430 0.03246725 -0.01065242
v 0.00468277 0.03271235 -0.01000528
v 0.00450729 0.03285677 -0.01012940
v 0.00458459 0.03293774 -0.00984070
v 0.00485930 0.03268171 -0.00959244
v 0.00502382 0.03251977 -0.00944182
v 0.00491205 0.03278894 -0.00916985
v 0.00469583 0.03306029 -0.00916985
v 0.00474440 0.03311718 -0.00873749
v 0.00177843 0.01625838 -0.01233860
v 0.00098980 0.01620805 -0.01277514
v 0.00108172 0.01654067 -0.01283233
v 0.00115432 0.01682953 -0.01287138
v 0.00098980 0.01673106 -0.01292298
v 0.00460130 0.03338416 -0.00821727
v 0.00432293 0.03365551 -0.00786441
v 0.00438926 0.03365332 -0.00743903
v 0.00440754 0.03366864 -0.00700667
v 0.00442164 0.03368177 -0.00657432
v 0.00442164 0.03368177 -0.00614196
v 0.00440806 0.03366864 -0.00570961
v 0.00438821 0.03365551 -0.00527725
v 0.00432189 0.03365113 -0.00485605
v 0.00432606 0.03350452 -0.00397879
v 0.00098980 0.01447709 -0.01198575
v 0.00098980 0.01464778 -0.01209732
v 0.00098980 0.01496727 -0.01227166
v 0.00098980 0.01504167 -0.01230932
v 0.00098980 0.01534147 -0.01244600
v 0.00098980 0.01547277 -0.01250178
v 0.00400800 0.03372116 -0.00397879
v 0.00389780 0.03368396 -0.00355759
v 0.00365651 0.03376930 -0.00342091
v 0.00336770 0.03383058 -0.00321031
v 0.00325541 0.03378462 -0.00292161
v 0.00349304 0.03357235 -0.00268032
v 0.00296712 0.03384152 -0.00279050
v 0.00278119 0.03377368 -0.00250180
v 0.00249290 0.03381307 -0.00241672
v 0.00258899 0.03344981 -0.00181561
v 0.00238374 0.03336228 -0.00159385
v 0.00196540 0.03292899 -0.00116150
v 0.00132928 0.03237316 -0.00083932
v 0.00179775 0.03273423 -0.00101645
v 0.00106762 0.03208649 -0.00071101
v 0.00098980 0.03190704 -0.00062454
v 0.00262764 0.02405536 -0.01319355
v 0.00262764 0.02448646 -0.01320053
v 0.00262764 0.02362207 -0.01317682
v 0.00262764 0.02535303 -0.01320611
v 0.00306060 0.02578632 -0.01307779
v 0.00262764 0.02491974 -0.01320471
v 0.00346432 0.02708399 -0.01291601
v 0.00365599 0.02751728 -0.01282954
v 0.00262764 0.02232440 -0.01308895
v 0.00262764 0.02275768 -0.01312103
v 0.00262764 0.02319097 -0.01315171
v 0.00176224 0.01886248 -0.01301085
v 0.00176224 0.01929577 -0.01307779
v 0.00098980 0.01702210 -0.01298435
v 0.00098980 0.01713152 -0.01300667
v 0.00098980 0.01756481 -0.01309035
v 0.00132928 0.01799809 -0.01303316
v 0.00132928 0.01842919 -0.01311266
v 0.00176224 0.01972905 -0.01313777
v 0.00219468 0.02059344 -0.01308616
v 0.00219468 0.02102673 -0.01314056
v 0.00262764 0.02189330 -0.01305269
v 0.00349304 0.02881495 -0.01276538
v 0.00392548 0.02924824 -0.01257710
v 0.00360272 0.02794838 -0.01281559
v 0.00412551 0.02985878 -0.01240973
v 0.00435844 0.03011262 -0.01221448
v 0.00437098 0.03052403 -0.01209593
v 0.00452400 0.03065533 -0.01194251
v 0.00434591 0.03138841 -0.01175841
v 0.00444044 0.03097920 -0.01187417
v 0.00424511 0.03176043 -0.01163847
v 0.00440388 0.03190267 -0.01138045
v 0.00412812 0.03204929 -0.01154223
v 0.00424302 0.03227687 -0.01122145
v 0.00414379 0.03249570 -0.01111964
v 0.00447021 0.03230532 -0.01093554
v 0.00423623 0.03258542 -0.01090207
v 0.00410775 0.03290273 -0.01064823
v 0.00438665 0.03273423 -0.01050597
v 0.00421900 0.03299245 -0.01035953
v 0.00436106 0.03305591 -0.01000528
v 0.00413439 0.03335571 -0.00980862
v 0.00435113 0.03323098 -0.00963986
v 0.00448483 0.03327693 -0.00916985
v 0.00462741 0.03298370 -0.00960360
v 0.00454542 0.03333383 -0.00873749
v 0.00457153 0.03335571 -0.00850598
v 0.00098980 0.01583385 -0.01263846
v 0.00098980 0.01626713 -0.01279328
v 0.00098980 0.01662602 -0.01289648
v 0.00432920 0.03350452 -0.00873749
v 0.00439970 0.03351983 -0.00833861
v 0.00408216 0.03375836 -0.00830514
v 0.00412081 0.03378025 -0.00800388
v 0.00415476 0.03379994 -0.00771658
v 0.00417252 0.03381088 -0.00743903
v 0.00419132 0.03382401 -0.00700667
v 0.00420542 0.03383276 -0.00657432
v 0.00420542 0.03383276 -0.00614196
v 0.00419184 0.03382401 -0.00570961
v 0.00417199 0.03381088 -0.00527725
v 0.00415371 0.03379994 -0.00500947
v 0.00407851 0.03375617 -0.00441114
v 0.00386177 0.03387653 -0.00441114
v 0.00379178 0.03383714 -0.00397879
v 0.00373538 0.03380432 -0.00370961
v 0.00306060 0.03404284 -0.00354504
v 0.00309089 0.03390279 -0.00308478
v 0.00263339 0.03387872 -0.00265940
v 0.00262764 0.03403847 -0.00311268
v 0.00232159 0.03381307 -0.00241672
v 0.00222131 0.03346075 -0.00178353
v 0.00209493 0.03334477 -0.00161896
v 0.00167711 0.03289397 -0.00120752
v 0.00132928 0.03260293 -0.00105550
v 0.00098980 0.03206460 -0.00073332
v 0.00098980 0.03196832 -0.00066359
v 0.00234718 0.02405536 -0.01326887
v 0.00230592 0.02319097 -0.01325353
v 0.00233256 0.02362207 -0.01326189
v 0.00223019 0.02232440 -0.01322842
v 0.00226936 0.02275768 -0.01324097
v 0.00232316 0.02535303 -0.01326887
v 0.00262764 0.02578632 -0.01319355
v 0.00306060 0.02621742 -0.01306664
v 0.00235032 0.02448646 -0.01327026
v 0.00233987 0.02491974 -0.01327026
v 0.00306060 0.02665070 -0.01305130
v 0.00343925 0.02751728 -0.01290485
v 0.00219468 0.02146001 -0.01317961
v 0.00128906 0.01889530 -0.01320053
v 0.00098980 0.01842919 -0.01323819
v 0.00105874 0.01877276 -0.01326887
v 0.00136845 0.01929577 -0.01322424
v 0.00144000 0.01972905 -0.01325353
v 0.00180089 0.02059344 -0.01322842
v 0.00187192 0.02102673 -0.01325353
v 0.00338598 0.02794838 -0.01288393
v 0.00306060 0.02794838 -0.01296203
v 0.00349304 0.02924824 -0.01271378
v 0.00349304 0.02968152 -0.01264823
v 0.00395891 0.02970122 -0.01249760
v 0.00383879 0.03011262 -0.01246413
v 0.00405501 0.03011262 -0.01238463
v 0.00390929 0.03054591 -0.01233860
v 0.00422422 0.03097920 -0.01204014
v 0.00415841 0.03121991 -0.01199411
v 0.00402262 0.03150877 -0.01192717
v 0.00383983 0.03215870 -0.01162173
v 0.00362100 0.03244756 -0.01151294
v 0.00396047 0.03229219 -0.01143763
v 0.00393123 0.03184796 -0.01177375
v 0.00392548 0.03257010 -0.01119914
v 0.00394846 0.03279988 -0.01091322
v 0.00381946 0.03299683 -0.01077654
v 0.00391504 0.03313907 -0.01045716
v 0.00403777 0.03329663 -0.01003596
v 0.00372180 0.03336665 -0.01026469
v 0.00382155 0.03341698 -0.01003596
v 0.00350140 0.03372554 -0.00962592
v 0.00396413 0.03350014 -0.00963986
v 0.00420176 0.03340604 -0.00951992
v 0.00426809 0.03345637 -0.00916985
v 0.00400696 0.03372116 -0.00873749
v 0.00386594 0.03387653 -0.00830514
v 0.00395630 0.03388528 -0.00786441
v 0.00392548 0.03394218 -0.00743903
v 0.00392548 0.03396625 -0.00700667
v 0.00392548 0.03398157 -0.00657432
v 0.00392548 0.03398157 -0.00614196
v 0.00392548 0.03396625 -0.00570961
v 0.00392548 0.03393999 -0.00527725
v 0.00395421 0.03388310 -0.00485605
v 0.00349304 0.03409755 -0.00484350
v 0.00349304 0.03404503 -0.00441114
v 0.00349304 0.03396406 -0.00397879
v 0.00288721 0.03424417 -0.00410849
v 0.00262764 0.03414788 -0.00354504
v 0.00219468 0.03399032 -0.00311268
v 0.00218423 0.03386559 -0.00266638
v 0.00203330 0.03377806 -0.00251435
v 0.00218423 0.03371022 -0.00226191
v 0.00176224 0.03341480 -0.00193416
v 0.00176224 0.03329444 -0.00171798
v 0.00141075 0.03299683 -0.00149622
v 0.00129167 0.03283708 -0.00136373
v 0.00106553 0.03252634 -0.00112942
v 0.00098980 0.03238410 -0.00104016
v 0.00208970 0.02319097 -0.01331210
v 0.00211634 0.02362207 -0.01331489
v 0.00198890 0.02204867 -0.01328560
v 0.00201397 0.02232440 -0.01329258
v 0.00205262 0.02275768 -0.01330234
v 0.00193093 0.02146001 -0.01327026
v 0.00210642 0.02535303 -0.01330095
v 0.00225892 0.02578632 -0.01326050
v 0.00213410 0.02448646 -0.01331071
v 0.00176224 0.02362207 -0.01338044
v 0.00176224 0.02405536 -0.01337347
v 0.00262764 0.02708399 -0.01311406
v 0.00306060 0.02751728 -0.01300388
v 0.00306060 0.02708399 -0.01303037
v 0.00213096 0.02405536 -0.01331350
v 0.00098980 0.01847515 -0.01324516
v 0.00098980 0.01882965 -0.01329118
v 0.00111828 0.01906161 -0.01328421
v 0.00150267 0.02007918 -0.01327166
v 0.00158415 0.02059344 -0.01329258
v 0.00165570 0.02102673 -0.01330931
v 0.00262764 0.02794838 -0.01303595
v 0.00296294 0.02881495 -0.01287277
v 0.00317916 0.02881495 -0.01283233
v 0.00262764 0.02751728 -0.01308198
v 0.00303762 0.02922635 -0.01280722
v 0.00306060 0.02968152 -0.01273191
v 0.00306060 0.03011262 -0.01264823
v 0.00349304 0.03011262 -0.01256315
v 0.00375418 0.03040367 -0.01243205
v 0.00362674 0.03069253 -0.01240137
v 0.00392548 0.03097920 -0.01219356
v 0.00389728 0.03138404 -0.01204153
v 0.00373381 0.03164663 -0.01199411
v 0.00349304 0.03193330 -0.01190764
v 0.00348364 0.03229219 -0.01167612
v 0.00333271 0.03251977 -0.01157152
v 0.00347267 0.03270140 -0.01132745
v 0.00361212 0.03288303 -0.01106525
v 0.00326533 0.03335571 -0.01067752
v 0.00349304 0.03329881 -0.01058129
v 0.00349304 0.03341698 -0.01036511
v 0.00349304 0.03356798 -0.01003596
v 0.00324705 0.03378025 -0.00978491
v 0.00336300 0.03382839 -0.00949621
v 0.00365129 0.03376711 -0.00928840
v 0.00389624 0.03368177 -0.00915451
v 0.00379074 0.03383495 -0.00873749
v 0.00349304 0.03404503 -0.00830514
v 0.00349304 0.03409536 -0.00787139
v 0.00349304 0.03412819 -0.00743903
v 0.00353535 0.03415882 -0.00657432
v 0.00353587 0.03415882 -0.00614196
v 0.00349304 0.03413038 -0.00527725
v 0.00300942 0.03429231 -0.00484350
v 0.00294988 0.03426605 -0.00441114
v 0.00316662 0.03417852 -0.00441114
v 0.00262764 0.03434921 -0.00484350
v 0.00262764 0.03430544 -0.00441114
v 0.00262764 0.03425292 -0.00405131
v 0.00262764 0.03420916 -0.00383513
v 0.00236546 0.03424417 -0.00409036
v 0.00219468 0.03407567 -0.00354504
v 0.00185311 0.03385246 -0.00311268
v 0.00192310 0.03381745 -0.00280166
v 0.00177216 0.03370584 -0.00266638
v 0.00176224 0.03355704 -0.00224657
v 0.00154027 0.03336228 -0.00202481
v 0.00112194 0.03292242 -0.00160919
v 0.00098980 0.03250008 -0.00116429
v 0.00176224 0.02319097 -0.01337765
v 0.00179514 0.02189986 -0.01332605
v 0.00176224 0.02232440 -0.01334976
v 0.00171471 0.02146001 -0.01332326
v 0.00176224 0.02491974 -0.01335394
v 0.00176224 0.02535303 -0.01334279
v 0.00204218 0.02578632 -0.01329118
v 0.00215499 0.02618240 -0.01324655
v 0.00132928 0.02362207 -0.01343623
v 0.00132928 0.02319097 -0.01344042
v 0.00098980 0.01896095 -0.01330374
v 0.00098980 0.01919729 -0.01332466
v 0.00098980 0.01956931 -0.01335394
v 0.00132928 0.02059344 -0.01335534
v 0.00132928 0.02102673 -0.01338742
v 0.00219468 0.02794838 -0.01308616
v 0.00262764 0.02838166 -0.01298017
v 0.00287833 0.02906879 -0.01285464
v 0.00219468 0.02751728 -0.01313498
v 0.00198420 0.02601171 -0.01328282
v 0.00219468 0.02708399 -0.01317124
v 0.00271852 0.02935765 -0.01283372
v 0.00262764 0.03011262 -0.01270402
v 0.00243022 0.02947801 -0.01285185
v 0.00259578 0.02964432 -0.01279885
v 0.00262764 0.03054591 -0.01260220
v 0.00306060 0.03054591 -0.01254223
v 0.00333845 0.03080194 -0.01242787
v 0.00348678 0.03095950 -0.01234837
v 0.00349304 0.03141248 -0.01217403
v 0.00349304 0.03171666 -0.01203177
v 0.00317237 0.03201427 -0.01195646
v 0.00306060 0.03257667 -0.01161197
v 0.00241926 0.03292899 -0.01155339
v 0.00270807 0.03286772 -0.01149621
v 0.00306060 0.03279331 -0.01141950
v 0.00304076 0.03224404 -0.01184349
v 0.00332383 0.03294650 -0.01114195
v 0.00262764 0.03330757 -0.01105688
v 0.00262764 0.03346950 -0.01084070
v 0.00263286 0.03369490 -0.01045297
v 0.00278014 0.03377368 -0.01021169
v 0.00308567 0.03372772 -0.01005409
v 0.00295876 0.03383933 -0.00992299
v 0.00308567 0.03389623 -0.00962592
v 0.00306060 0.03403628 -0.00916985
v 0.00350140 0.03386121 -0.00915451
v 0.00373224 0.03380432 -0.00899970
v 0.00349304 0.03396187 -0.00873749
v 0.00288721 0.03424417 -0.00860081
v 0.00294675 0.03426605 -0.00830514
v 0.00300420 0.03429231 -0.00787139
v 0.00303867 0.03430982 -0.00743903
v 0.00310134 0.03430544 -0.00703038
v 0.00306060 0.03434264 -0.00657432
v 0.00306060 0.03434264 -0.00614196
v 0.00346118 0.03416539 -0.00567753
v 0.00304232 0.03430763 -0.00527725
v 0.00262764 0.03437984 -0.00527725
v 0.00232211 0.03426167 -0.00441114
v 0.00210589 0.03416758 -0.00441114
v 0.00221087 0.03415445 -0.00395926
v 0.00163637 0.03374523 -0.00311268
v 0.00178835 0.03389185 -0.00354504
v 0.00131570 0.03345856 -0.00271101
v 0.00147081 0.03340604 -0.00224657
v 0.00125459 0.03327037 -0.00224657
v 0.00102793 0.03298588 -0.00189790
v 0.00098980 0.03294212 -0.00186442
v 0.00098980 0.03286772 -0.00170403
v 0.00098980 0.03272985 -0.00147670
v 0.00132928 0.02146001 -0.01340555
v 0.00132928 0.02189330 -0.01341810
v 0.00132928 0.02232440 -0.01342786
v 0.00132928 0.02275768 -0.01343623
v 0.00132928 0.02535303 -0.01337905
v 0.00176224 0.02578632 -0.01332047
v 0.00132928 0.02405536 -0.01342507
v 0.00132928 0.02448646 -0.01341113
v 0.00132928 0.02491974 -0.01339579
v 0.00098980 0.02319097 -0.01347807
v 0.00098980 0.02362207 -0.01346970
v 0.00098980 0.02275768 -0.01347668
v 0.00098980 0.02016890 -0.01339718
v 0.00098980 0.02102673 -0.01344878
v 0.00098980 0.02059344 -0.01342647
v 0.00176224 0.02794838 -0.01312382
v 0.00176224 0.02838166 -0.01306943
v 0.00176224 0.02881495 -0.01301224
v 0.00219468 0.02838166 -0.01302759
v 0.00262764 0.02881495 -0.01292159
v 0.00176224 0.02751728 -0.01317263
v 0.00186043 0.02630057 -0.01327166
v 0.00173456 0.02662225 -0.01325632
v 0.00173456 0.02618240 -0.01329258
v 0.00219468 0.03011262 -0.01274307
v 0.00219468 0.03054591 -0.01264544
v 0.00219468 0.02974936 -0.01282117
v 0.00219468 0.02953491 -0.01286301
v 0.00176224 0.03097920 -0.01258547
v 0.00219468 0.03097920 -0.01253386
v 0.00261720 0.03099670 -0.01247250
v 0.00306060 0.03086978 -0.01244879
v 0.00306060 0.03108642 -0.01238463
v 0.00306060 0.03141248 -0.01227026
v 0.00304076 0.03186109 -0.01207082
v 0.00288355 0.03207773 -0.01199411
v 0.00219468 0.03293337 -0.01155757
v 0.00219468 0.03313907 -0.01133442
v 0.00219468 0.03334915 -0.01110011
v 0.00258899 0.03306029 -0.01134419
v 0.00258899 0.03271891 -0.01164823
v 0.00262764 0.03234471 -0.01188672
v 0.00219468 0.03242568 -0.01193972
v 0.00219468 0.03271016 -0.01172912
v 0.00306060 0.03299901 -0.01120193
v 0.00219468 0.03348482 -0.01088393
v 0.00249185 0.03381307 -0.01029956
v 0.00263286 0.03387872 -0.01005409
v 0.00262764 0.03403409 -0.00960360
v 0.00262764 0.03420697 -0.00887418
v 0.00262764 0.03425292 -0.00865800
v 0.00262764 0.03430544 -0.00830514
v 0.00262764 0.03434921 -0.00787139
v 0.00262764 0.03414132 -0.00916985
v 0.00262764 0.03438203 -0.00743903
v 0.00262764 0.03439735 -0.00700667
v 0.00262764 0.03440829 -0.00657432
v 0.00262764 0.03440829 -0.00614196
v 0.00262764 0.03439516 -0.00570961
v 0.00225683 0.03429669 -0.00527725
v 0.00228451 0.03428137 -0.00484350
v 0.00176224 0.03397938 -0.00441114
v 0.00172046 0.03390717 -0.00394252
v 0.00206829 0.03418071 -0.00484350
v 0.00132928 0.03355704 -0.00311268
v 0.00157161 0.03377806 -0.00354504
v 0.00110522 0.03336446 -0.00287558
v 0.00116267 0.03332507 -0.00258688
v 0.00098980 0.03314126 -0.00239580
v 0.00098980 0.03309749 -0.00227307
v 0.00098980 0.03299901 -0.00200250
v 0.00098980 0.03297275 -0.00193276
v 0.00098980 0.02146001 -0.01345855
v 0.00098980 0.02232440 -0.01347110
v 0.00098980 0.02535303 -0.01339857
v 0.00098980 0.02569222 -0.01337905
v 0.00132928 0.02578632 -0.01335394
v 0.00098980 0.02405536 -0.01345436
v 0.00098980 0.02448646 -0.01343763
v 0.00132928 0.02794838 -0.01315590
v 0.00132928 0.02881495 -0.01304711
v 0.00176224 0.02924824 -0.01294390
v 0.00132928 0.02751728 -0.01320471
v 0.00157161 0.02645813 -0.01328421
v 0.00121490 0.02995287 -0.01286301
v 0.00176224 0.03054591 -0.01268310
v 0.00132928 0.02924824 -0.01297877
v 0.00132928 0.03097920 -0.01260220
v 0.00176224 0.03134902 -0.01247250
v 0.00132928 0.03054591 -0.01271378
v 0.00219468 0.03127243 -0.01244321
v 0.00261720 0.03138185 -0.01234418
v 0.00219468 0.03148689 -0.01236510
v 0.00219468 0.03184358 -0.01223261
v 0.00262764 0.03184358 -0.01215869
v 0.00262764 0.03212806 -0.01202340
v 0.00195339 0.03293337 -0.01155757
v 0.00176224 0.03244318 -0.01194809
v 0.00179044 0.03305153 -0.01135395
v 0.00176224 0.03329444 -0.01099969
v 0.00219468 0.03220903 -0.01206803
v 0.00176224 0.03222654 -0.01208059
v 0.00176224 0.03341480 -0.01078212
v 0.00218371 0.03371022 -0.01045297
v 0.00232055 0.03381307 -0.01029956
v 0.00219468 0.03399251 -0.00960360
v 0.00236546 0.03424417 -0.00862313
v 0.00232159 0.03426167 -0.00830514
v 0.00228347 0.03428137 -0.00787139
v 0.00225631 0.03429669 -0.00743903
v 0.00224586 0.03430325 -0.00700667
v 0.00224168 0.03430763 -0.00657432
v 0.00224064 0.03430763 -0.00614196
v 0.00224429 0.03430325 -0.00570961
v 0.00204009 0.03419384 -0.00527725
v 0.00176224 0.03400345 -0.00484350
v 0.00150319 0.03381963 -0.00441114
v 0.00152408 0.03380650 -0.00406386
v 0.00154811 0.03379119 -0.00377516
v 0.00132928 0.03362050 -0.00354504
v 0.00107493 0.03338854 -0.00311268
v 0.00098980 0.03329663 -0.00298576
v 0.00098980 0.03324630 -0.00276400
v 0.00098980 0.03322441 -0.00268032
v 0.00098980 0.02578632 -0.01337347
v 0.00132928 0.02621742 -0.01332047
v 0.00098980 0.02785647 -0.01317961
v 0.00098980 0.02828757 -0.01312940
v 0.00098980 0.02872085 -0.01307779
v 0.00098980 0.02881495 -0.01306524
v 0.00098980 0.02915414 -0.01301503
v 0.00098980 0.02751728 -0.01321726
v 0.00132928 0.02676231 -0.01327305
v 0.00108329 0.02684765 -0.01328003
v 0.00098980 0.02675355 -0.01329397
v 0.00098980 0.02686954 -0.01328282
v 0.00098980 0.02924824 -0.01299969
v 0.00098980 0.02968590 -0.01291880
v 0.00098980 0.02995944 -0.01286441
v 0.00098980 0.03054591 -0.01270820
v 0.00132928 0.03135121 -0.01247807
v 0.00098980 0.03011262 -0.01282535
v 0.00176224 0.03156567 -0.01239300
v 0.00176224 0.03184358 -0.01227445
v 0.00179044 0.03273423 -0.01169983
v 0.00166510 0.03289616 -0.01151015
v 0.00132928 0.03215870 -0.01204711
v 0.00132928 0.03237316 -0.01187835
v 0.00153766 0.03336446 -0.01069426
v 0.00141023 0.03299901 -0.01122285
v 0.00132928 0.03156785 -0.01238881
v 0.00132928 0.03184358 -0.01223679
v 0.00176224 0.03355923 -0.01046832
v 0.00203173 0.03377806 -0.01020472
v 0.00218371 0.03386559 -0.01004991
v 0.00219468 0.03407785 -0.00916985
v 0.00192101 0.03381963 -0.00991601
v 0.00185050 0.03385465 -0.00960360
v 0.00221087 0.03415664 -0.00875563
v 0.00210485 0.03416758 -0.00830514
v 0.00206725 0.03418071 -0.00787139
v 0.00204009 0.03419384 -0.00743903
v 0.00202912 0.03419821 -0.00700667
v 0.00202546 0.03420040 -0.00657432
v 0.00202390 0.03420040 -0.00614196
v 0.00202807 0.03420040 -0.00570961
v 0.00176224 0.03402534 -0.00527725
v 0.00148753 0.03383276 -0.00484350
v 0.00128697 0.03367083 -0.00441114
v 0.00135957 0.03368177 -0.00394252
v 0.00103420 0.03341917 -0.00354504
v 0.00098980 0.03334258 -0.00325494
v 0.00098980 0.03332070 -0.00311268
v 0.00098980 0.02621742 -0.01334000
v 0.00098980 0.02665946 -0.01330234
v 0.00098980 0.03100546 -0.01254781
v 0.00099294 0.03127900 -0.01245158
v 0.00132928 0.03260512 -0.01166218
v 0.00129115 0.03283927 -0.01135395
v 0.00106135 0.03209086 -0.01200806
v 0.00112141 0.03292242 -0.01110709
v 0.00102688 0.03298807 -0.01081978
v 0.00125146 0.03327255 -0.01046832
v 0.00146768 0.03340823 -0.01046832
v 0.00098980 0.03128337 -0.01244879
v 0.00098980 0.03145844 -0.01235395
v 0.00098980 0.03185015 -0.01212801
v 0.00177112 0.03370584 -0.01004991
v 0.00163428 0.03374742 -0.00960360
v 0.00178574 0.03389623 -0.00916985
v 0.00171941 0.03390936 -0.00877934
v 0.00176224 0.03397938 -0.00830514
v 0.00176224 0.03400564 -0.00787139
v 0.00176224 0.03402534 -0.00743903
v 0.00176224 0.03403409 -0.00700667
v 0.00176224 0.03403628 -0.00614196
v 0.00176224 0.03403409 -0.00570961
v 0.00147760 0.03383933 -0.00527725
v 0.00127078 0.03367958 -0.00484350
v 0.00098980 0.03345419 -0.00439022
v 0.00100913 0.03343887 -0.00397879
v 0.00098980 0.03338416 -0.00354504
v 0.00098980 0.03127243 -0.01245297
v 0.00106188 0.03252853 -0.01158965
v 0.00098980 0.03197926 -0.01205130
v 0.00098980 0.03217402 -0.01188393
v 0.00098980 0.03239504 -0.01167333
v 0.00098980 0.03286772 -0.01101225
v 0.00098980 0.03257010 -0.01146134
v 0.00098980 0.03266420 -0.01132605
v 0.00098980 0.03294431 -0.01085046
v 0.00098980 0.03299901 -0.01071657
v 0.00098980 0.03309968 -0.01044321
v 0.00116111 0.03332726 -0.01013080
v 0.00131465 0.03345856 -0.01000667
v 0.00132928 0.03355923 -0.00960360
v 0.00156952 0.03378025 -0.00916985
v 0.00154654 0.03379119 -0.00895088
v 0.00152356 0.03380650 -0.00866218
v 0.00150267 0.03382182 -0.00830514
v 0.00148753 0.03383276 -0.00787139
v 0.00147760 0.03383933 -0.00743903
v 0.00147290 0.03384371 -0.00700667
v 0.00147290 0.03384371 -0.00570961
v 0.00126086 0.03368396 -0.00527725
v 0.00098980 0.03347388 -0.00486302
v 0.00098980 0.03342355 -0.00397879
v 0.00098980 0.03322441 -0.01003735
v 0.00098980 0.03324848 -0.00995367
v 0.00110470 0.03336446 -0.00984210
v 0.00132928 0.03362269 -0.00916985
v 0.00107493 0.03338854 -0.00960360
v 0.00135957 0.03368177 -0.00877934
v 0.00101017 0.03343887 -0.00873749
v 0.00128645 0.03366864 -0.00830514
v 0.00127131 0.03367739 -0.00787139
v 0.00126086 0.03368396 -0.00743903
v 0.00125616 0.03368834 -0.00700667
v 0.00125616 0.03368834 -0.00570961
v 0.00098980 0.03348044 -0.00527725
v 0.00098980 0.03327037 -0.00984767
v 0.00098980 0.03332070 -0.00960360
v 0.00103472 0.03341917 -0.00916985
v 0.00098980 0.03338416 -0.00916985
v 0.00098980 0.03342355 -0.00873749
v 0.00098980 0.03345419 -0.00830514
v 0.00098980 0.03347169 -0.00787139
v 0.00098980 0.03348701 -0.00700667
v 0.00098980 0.03348920 -0.00660779
v 0.00098980 0.03348920 -0.00614196
v 0.00098980 0.03348701 -0.00570961
f 1 2 3
f 1 3 4
f 1 4 5
f 1 5 11
f 1 11 21
f 1 21 38
f 1 38 58
f 1 58 84
f 1 84 86
f 1 86 112
f 1 112 113
f 1 113 115
f 1 115 145
f 1 145 148
f 1 148 147
f 1 147 198
f 1 198 197
f 1 197 244
f 1 244 246
f 1 246 282
f 1 282 333
f 1 333 330
f 1 330 329
f 1 329 328
f 1 328 376
f 1 376 436
f 1 436 489
f 1 489 555
f 1 555 556
f 1 556 623
f 1 623 694
f 1 694 772
f 1 772 771
f 1 771 843
f 1 843 913
f 1 913 984
f 1 984 983
f 1 983 982
f 1 982 1056
f 1 1056 1055
f 1 1055 1054
f 1 1054 1053
f 1 1053 1108
f 1 1108 1107
f 1 1107 1106
f 1 1106 1157
f 1 1157 1156
f 1 1156 1186
f 1 1186 1211
f 1 1211 1184
f 1 1184 1210
f 1 1210 1224
f 1 1224 1235
f 1 1235 1234
f 1 1234 1233
f 1 1233 1232
f 1 1232 1231
f 1 1231 1230
f 1 1230 1229
f 1 1229 1228
f 1 1228 1226
f 1 1226 1225
f 1 1225 1213
f 1 1213 1212
f 1 1212 1197
f 1 1197 1196
f 1 1196 1195
f 1 1195 1192
f 1 1192 1194
f 1 1194 1193
f 1 1193 1191
f 1 1191 1190
f 1 1190 1189
f 1 1189 1171
f 1 1171 1170
f 1 1170 1169
f 1 1169 1187
f 1 1187 1160
f 1 1160 1124
f 1 1124 1126
f 1 1126 1123
f 1 1123 1122
f 1 1122 1121
f 1 1121 1115
f 1 1115 1114
f 1 1114 1113
f 1 1113 1112
f 1 1112 1111
f 1 1111 1116
f 1 1116 1120
f 1 1120 1119
f 1 1119 1159
f 1 1159 1158
f 1 1158 1109
f 1 1109 1060
f 1 1060 1059
f 1 1059 1063
f 1 1063 1062
f 1 1062 995
f 1 995 994
f 1 994 996
f 1 996 1058
f 1 1058 1057
f 1 1057 998
f 1 998 999
f 1 999 997
f 1 997 926
f 1 926 925
f 1 925 924
f 1 924 860
f 1 860 859
f 1 859 787
f 1 787 710
f 1 710 709
f 1 709 708
f 1 708 662
f 1 662 745
f 1 745 744
f 1 744 659
f 1 659 743
f 1 743 678
f 1 678 677
f 1 677 676
f 1 676 675
f 1 675 674
f 1 674 673
f 1 673 602
f 1 602 601
f 1 601 606
f 1 606 605
f 1 605 604
f 1 604 603
f 1 603 534
f 1 534 533
f 1 533 532
f 1 532 531
f 1 531 559
f 1 559 558
f 1 558 495
f 1 495 494
f 1 494 493
f 1 493 491
f 1 491 439
f 1 439 438
f 1 438 437
f 1 437 387
f 1 387 386
f 1 386 385
f 1 385 384
f 1 384 383
f 1 383 382
f 1 382 381
f 1 381 380
f 1 380 340
f 1 340 339
f 1 339 338
f 1 338 337
f 1 337 295
f 1 295 294
f 1 294 293
f 1 293 292
f 1 292 290
f 1 290 289
f 1 289 254
f 1 254 253
f 1 253 252
f 1 252 215
f 1 215 214
f 1 214 213
f 1 213 212
f 1 212 211
f 1 211 210
f 1 210 209
f 1 209 169
f 1 169 167
f 1 167 165
f 1 165 164
f 1 164 163
f 1 163 162
f 1 162 208
f 1 208 247
f 1 247 202
f 1 202 154
f 1 154 153
f 1 153 152
f 1 152 121
f 1 121 92
f 1 92 63
f 1 63 43
f 1 43 27
f 1 27 14
f 1 14 12
f 1 12 6
f 1 6 2
f 2 6 7
f 2 7 3
f 3 7 8
f 3 8 9
f 3 9 4
f 4 9 10
f 4 10 5
f 5 10 11
f 6 12 7
f 7 13 8
f 7 12 14
f 7 14 15
f 7 15 13
f 8 13 16
f 8 16 17
f 8 17 18
f 8 18 9
f 9 19 10
f 9 18 20
f 9 20 19
f 10 21 11
f 10 19 22
f 10 22 23
f 10 23 24
f 10 24 21
f 13 15 25
f 13 25 26
f 13 26 16
f 14 27 28
f 14 28 15
f 15 28 25
f 16 26 17
f 17 26 29
f 17 29 30
f 17 30 31
f 17 31 32
f 17 32 18
f 18 32 33
f 18 33 34
f 18 34 35
f 18 35 20
f 19 20 36
f 19 36 22
f 20 35 37
f 20 37 36
f 21 24 38
f 22 36 39
f 22 39 23
f 23 39 40
f 23 40 24
f 24 40 41
f 24 41 38
f 25 29 26
f 25 28 42
f 25 42 29
f 27 43 28
f 28 43 44
f 28 44 42
f 29 42 45
f 29 45 46
f 29 46 30
f 30 46 47
f 30 47 31
f 31 47 48
f 31 48 49
f 31 49 50
f 31 50 32
f 32 50 51
f 32 51 33
f 33 51 52
f 33 52 34
f 34 37 35
f 34 52 53
f 34 53 54
f 34 54 37
f 36 37 39
f 37 54 55
f 37 55 56
f 37 56 39
f 38 41 57
f 38 57 58
f 39 56 40
f 40 59 57
f 40 57 41
f 40 56 60
f 40 60 85
f 40 85 59
f 42 44 61
f 42 61 62
f 42 62 45
f 43 63 44
f 44 63 92
f 44 92 64
f 44 64 65
f 44 65 61
f 45 62 66
f 45 66 46
f 46 66 47
f 47 66 67
f 47 67 68
f 47 68 69
f 47 69 48
f 48 69 70
f 48 70 71
f 48 71 49
f 49 71 72
f 49 72 50
f 50 72 51
f 51 72 73
f 51 73 74
f 51 74 52
f 52 74 75
f 52 75 53
f 53 75 76
f 53 76 77
f 53 77 54
f 54 77 78
f 54 78 79
f 54 79 55
f 55 79 80
f 55 80 81
f 55 81 82
f 55 82 56
f 56 82 83
f 56 83 60
f 57 59 58
f 58 59 84
f 59 85 86
f 59 86 84
f 60 83 87
f 60 87 88
f 60 88 85
f 61 65 62
f 62 65 89
f 62 89 90
f 62 90 91
f 62 91 67
f 62 67 66
f 64 93 65
f 64 92 93
f 65 93 94
f 65 94 89
f 67 91 68
f 68 91 95
f 68 95 69
f 69 95 96
f 69 96 97
f 69 97 70
f 70 97 98
f 70 98 99
f 70 99 100
f 70 100 71
f 71 100 72
f 72 100 101
f 72 101 73
f 73 102 74
f 73 101 102
f 74 102 103
f 74 103 75
f 75 103 104
f 75 104 105
f 75 105 76
f 76 105 106
f 76 106 77
f 77 106 78
f 78 80 79
f 78 106 107
f 78 107 80
f 80 107 81
f 81 107 108
f 81 108 82
f 82 108 109
f 82 109 83
f 83 109 110
f 83 110 111
f 83 111 87
f 85 112 86
f 85 88 113
f 85 113 112
f 87 111 114
f 87 114 88
f 88 115 113
f 88 114 116
f 88 116 115
f 89 94 117
f 89 117 118
f 89 118 119
f 89 119 90
f 90 120 96
f 90 96 91
f 90 119 120
f 91 96 95
f 92 121 93
f 93 121 122
f 93 122 117
f 93 117 94
f 96 120 97
f 97 120 98
f 98 123 99
f 98 120 124
f 98 124 125
f 98 125 126
f 98 126 123
f 99 123 127
f 99 127 128
f 99 128 129
f 99 129 130
f 99 130 100
f 100 130 131
f 100 131 132
f 100 132 101
f 101 104 103
f 101 103 102
f 101 132 133
f 101 133 134
f 101 134 135
f 101 135 105
f 101 105 104
f 105 135 134
f 105 134 136
f 105 136 137
f 105 137 138
f 105 138 106
f 106 138 139
f 106 139 107
f 107 139 140
f 107 140 108
f 108 140 141
f 108 141 142
f 108 142 110
f 108 110 109
f 110 142 111
f 111 142 114
f 114 143 116
f 114 142 144
f 114 144 143
f 115 116 145
f 116 143 146
f 116 146 147
f 116 147 148
f 116 148 145
f 117 122 149
f 117 149 118
f 118 149 119
f 119 149 150
f 119 150 151
f 119 151 124
f 119 124 120
f 121 152 122
f 122 152 153
f 122 153 154
f 122 154 155
f 122 155 149
f 123 156 157
f 123 157 127
f 123 126 158
f 123 158 156
f 124 151 150
f 124 150 159
f 124 159 125
f 125 159 160
f 125 160 161
f 125 161 162
f 125 162 163
f 125 163 164
f 125 164 165
f 125 165 166
f 125 166 126
f 126 166 167
f 126 167 168
f 126 168 169
f 126 169 170
f 126 170 171
f 126 171 172
f 126 172 173
f 126 173 158
f 127 157 128
f 128 157 129
f 129 174 131
f 129 131 130
f 129 157 175
f 129 175 176
f 129 176 174
f 131 174 177
f 131 177 132
f 132 177 133
f 133 177 178
f 133 178 179
f 133 179 180
f 133 180 181
f 133 181 182
f 133 182 183
f 133 183 134
f 134 183 137
f 134 137 136
f 137 183 184
f 137 184 185
f 137 185 138
f 138 185 139
f 139 185 186
f 139 186 187
f 139 187 140
f 140 187 188
f 140 188 189
f 140 189 141
f 141 190 142
f 141 189 191
f 141 191 192
f 141 192 193
f 141 193 194
f 141 194 195
f 141 195 190
f 142 190 196
f 142 196 144
f 143 144 146
f 144 196 199
f 144 199 146
f 146 197 198
f 146 198 147
f 146 199 197
f 149 200 150
f 149 155 200
f 150 200 201
f 150 201 159
f 154 202 155
f 155 201 200
f 155 202 203
f 155 203 161
f 155 161 201
f 156 204 205
f 156 205 157
f 156 158 204
f 157 205 206
f 157 206 175
f 158 173 172
f 158 172 207
f 158 207 204
f 159 201 160
f 160 201 161
f 161 203 208
f 161 208 162
f 165 167 166
f 167 169 168
f 169 209 170
f 170 209 210
f 170 210 171
f 171 210 211
f 171 211 212
f 171 212 213
f 171 213 214
f 171 214 215
f 171 215 172
f 172 215 216
f 172 216 217
f 172 217 207
f 174 218 219
f 174 219 220
f 174 220 177
f 174 176 218
f 175 221 176
f 175 206 221
f 176 221 218
f 177 220 222
f 177 222 178
f 178 222 179
f 179 222 223
f 179 223 224
f 179 224 225
f 179 225 226
f 179 226 227
f 179 227 228
f 179 228 229
f 179 229 180
f 180 229 230
f 180 230 181
f 181 231 182
f 181 230 231
f 182 231 232
f 182 232 183
f 183 232 184
f 184 233 186
f 184 186 185
f 184 232 234
f 184 234 235
f 184 235 233
f 186 188 187
f 186 233 188
f 188 233 191
f 188 191 189
f 190 195 236
f 190 236 237
f 190 237 196
f 191 233 192
f 192 233 238
f 192 238 239
f 192 239 194
f 192 194 193
f 194 239 195
f 195 239 240
f 195 240 241
f 195 241 242
f 195 242 243
f 195 243 236
f 196 237 199
f 197 199 244
f 199 237 245
f 199 245 246
f 199 246 244
f 202 247 203
f 203 247 208
f 204 248 206
f 204 206 205
f 204 207 249
f 204 249 250
f 204 250 248
f 206 248 251
f 206 251 221
f 207 217 249
f 215 252 216
f 216 252 253
f 216 253 254
f 216 254 255
f 216 255 256
f 216 256 217
f 217 250 249
f 217 256 250
f 218 257 258
f 218 258 259
f 218 259 260
f 218 260 219
f 218 221 257
f 219 260 222
f 219 222 220
f 221 251 261
f 221 261 262
f 221 262 257
f 222 260 223
f 223 260 224
f 224 263 264
f 224 264 225
f 224 260 265
f 224 265 263
f 225 264 226
f 226 264 266
f 226 266 227
f 227 266 267
f 227 267 228
f 228 267 268
f 228 268 269
f 228 269 229
f 229 269 230
f 230 270 231
f 230 269 270
f 231 270 234
f 231 234 232
f 233 235 238
f 234 270 271
f 234 271 272
f 234 272 273
f 234 273 274
f 234 274 235
f 235 274 238
f 236 243 237
f 237 243 245
f 238 274 273
f 238 273 275
f 238 275 276
f 238 276 239
f 239 276 240
f 240 276 277
f 240 277 241
f 241 278 279
f 241 279 242
f 241 277 280
f 241 280 278
f 242 279 243
f 243 281 245
f 243 279 281
f 245 281 246
f 246 281 282
f 248 250 283
f 248 283 284
f 248 284 285
f 248 285 251
f 250 286 283
f 250 256 287
f 250 287 286
f 251 285 288
f 251 288 261
f 254 289 255
f 255 289 290
f 255 290 291
f 255 291 256
f 256 291 292
f 256 292 293
f 256 293 294
f 256 294 295
f 256 295 296
f 256 296 297
f 256 297 287
f 257 298 299
f 257 299 300
f 257 300 301
f 257 301 259
f 257 259 258
f 257 262 302
f 257 302 298
f 259 303 304
f 259 304 305
f 259 305 306
f 259 306 307
f 259 307 308
f 259 308 260
f 259 301 303
f 260 308 307
f 260 307 265
f 261 309 302
f 261 302 262
f 261 288 310
f 261 310 309
f 263 311 264
f 263 265 306
f 263 306 312
f 263 312 313
f 263 313 314
f 263 314 311
f 264 311 315
f 264 315 316
f 264 316 266
f 265 307 306
f 266 316 317
f 266 317 318
f 266 318 319
f 266 319 320
f 266 320 267
f 267 320 269
f 267 269 268
f 269 320 271
f 269 271 270
f 271 320 321
f 271 321 272
f 272 321 322
f 272 322 273
f 273 322 323
f 273 323 275
f 275 323 324
f 275 324 276
f 276 324 325
f 276 325 326
f 276 326 277
f 277 326 327
f 277 327 280
f 278 328 329
f 278 329 330
f 278 330 281
f 278 281 279
f 278 280 331
f 278 331 327
f 278 327 332
f 278 332 328
f 280 327 331
f 281 333 282
f 281 330 333
f 283 286 284
f 284 286 334
f 284 334 285
f 285 334 288
f 286 287 334
f 287 297 335
f 287 335 336
f 287 336 334
f 288 334 310
f 290 292 291
f 295 337 296
f 296 337 338
f 296 338 339
f 296 339 340
f 296 340 341
f 296 341 297
f 297 341 342
f 297 342 335
f 298 343 344
f 298 344 345
f 298 345 346
f 298 346 299
f 298 302 347
f 298 347 343
f 299 346 301
f 299 301 300
f 301 346 397
f 301 397 348
f 301 348 303
f 302 309 347
f 303 348 304
f 304 348 397
f 304 397 349
f 304 349 400
f 304 400 350
f 304 350 305
f 305 350 351
f 305 351 306
f 306 351 312
f 309 310 352
f 309 352 347
f 310 353 354
f 310 354 352
f 310 334 355
f 310 355 353
f 311 314 356
f 311 356 315
f 312 351 357
f 312 357 313
f 313 357 314
f 314 357 358
f 314 358 356
f 315 356 359
f 315 359 317
f 315 317 316
f 317 359 360
f 317 360 361
f 317 361 362
f 317 362 318
f 318 363 319
f 318 362 363
f 319 363 320
f 320 363 321
f 321 363 364
f 321 364 322
f 322 364 323
f 323 325 324
f 323 364 365
f 323 365 366
f 323 366 367
f 323 367 325
f 325 367 368
f 325 368 369
f 325 369 370
f 325 370 326
f 326 370 371
f 326 371 327
f 327 371 372
f 327 372 373
f 327 373 374
f 327 374 375
f 327 375 332
f 328 332 376
f 332 375 376
f 334 336 355
f 335 342 377
f 335 377 378
f 335 378 379
f 335 379 336
f 336 379 355
f 340 380 341
f 341 380 381
f 341 381 382
f 341 382 342
f 342 382 383
f 342 383 384
f 342 384 385
f 342 385 386
f 342 386 387
f 342 387 377
f 343 388 389
f 343 389 390
f 343 390 391
f 343 391 345
f 343 345 344
f 343 347 392
f 343 392 388
f 345 391 393
f 345 393 394
f 345 394 395
f 345 395 349
f 345 349 396
f 345 396 346
f 346 396 397
f 347 352 398
f 347 398 399
f 347 399 392
f 349 397 396
f 349 395 400
f 350 400 401
f 350 401 351
f 351 401 402
f 351 402 403
f 351 403 404
f 351 404 405
f 351 405 357
f 352 354 406
f 352 406 398
f 353 406 354
f 353 355 407
f 353 407 408
f 353 408 409
f 353 409 406
f 355 379 410
f 355 410 407
f 356 358 411
f 356 411 359
f 357 405 412
f 357 412 413
f 357 413 414
f 357 414 415
f 357 415 416
f 357 416 411
f 357 411 358
f 359 361 360
f 359 411 417
f 359 417 418
f 359 418 419
f 359 419 420
f 359 420 361
f 361 421 422
f 361 422 362
f 361 420 419
f 361 419 423
f 361 423 424
f 361 424 425
f 361 425 421
f 362 422 363
f 363 422 426
f 363 426 364
f 364 426 365
f 365 427 366
f 365 426 428
f 365 428 429
f 365 429 430
f 365 430 427
f 366 427 431
f 366 431 367
f 367 431 368
f 368 431 369
f 369 431 427
f 369 427 432
f 369 432 372
f 369 372 370
f 370 372 371
f 372 432 433
f 372 433 373
f 373 433 374
f 374 434 375
f 374 433 435
f 374 435 434
f 375 434 436
f 375 436 376
f 377 387 437
f 377 437 438
f 377 438 439
f 377 439 440
f 377 440 441
f 377 441 378
f 378 441 410
f 378 410 379
f 388 442 443
f 388 443 444
f 388 444 445
f 388 445 389
f 388 392 442
f 389 445 446
f 389 446 390
f 390 446 447
f 390 447 448
f 390 448 449
f 390 449 393
f 390 393 391
f 392 399 442
f 393 449 394
f 394 450 451
f 394 451 395
f 394 449 450
f 395 451 400
f 398 452 453
f 398 453 454
f 398 454 399
f 398 406 455
f 398 455 452
f 399 454 442
f 400 451 456
f 400 456 402
f 400 402 401
f 402 456 457
f 402 457 458
f 402 458 459
f 402 459 460
f 402 460 403
f 403 460 461
f 403 461 462
f 403 462 463
f 403 463 404
f 404 464 413
f 404 413 412
f 404 412 405
f 404 463 465
f 404 465 464
f 406 409 455
f 407 409 408
f 407 410 409
f 409 466 467
f 409 467 455
f 409 410 468
f 409 468 466
f 410 441 468
f 411 416 417
f 413 464 469
f 413 469 470
f 413 470 471
f 413 471 414
f 414 471 415
f 415 417 416
f 415 471 470
f 415 470 472
f 415 472 417
f 417 472 473
f 417 473 474
f 417 474 475
f 417 475 419
f 417 419 418
f 419 475 474
f 419 474 476
f 419 476 477
f 419 477 423
f 421 428 422
f 421 425 428
f 422 428 426
f 423 477 424
f 424 477 478
f 424 478 479
f 424 479 480
f 424 480 481
f 424 481 425
f 425 481 482
f 425 482 428
f 427 430 483
f 427 483 433
f 427 433 432
f 428 482 429
f 429 482 484
f 429 484 430
f 430 484 485
f 430 485 486
f 430 486 483
f 433 483 487
f 433 487 488
f 433 488 435
f 434 489 436
f 434 435 490
f 434 490 489
f 435 488 490
f 439 491 440
f 440 492 441
f 440 491 493
f 440 493 494
f 440 494 495
f 440 495 492
f 441 492 468
f 442 496 443
f 442 454 497
f 442 497 498
f 442 498 496
f 443 496 499
f 443 499 444
f 444 499 500
f 444 500 501
f 444 501 446
f 444 446 445
f 446 501 502
f 446 502 447
f 447 502 448
f 448 502 503
f 448 503 504
f 448 504 450
f 448 450 449
f 450 504 505
f 450 505 506
f 450 506 507
f 450 507 508
f 450 508 451
f 451 508 509
f 451 509 510
f 451 510 457
f 451 457 456
f 452 511 454
f 452 454 453
f 452 455 511
f 454 511 512
f 454 512 513
f 454 513 497
f 455 514 511
f 455 467 514
f 457 510 458
f 458 510 515
f 458 515 516
f 458 516 517
f 458 517 518
f 458 518 519
f 458 519 520
f 458 520 459
f 459 520 521
f 459 521 522
f 459 522 523
f 459 523 460
f 460 523 522
f 460 522 524
f 460 524 461
f 461 524 525
f 461 525 462
f 462 525 463
f 463 525 526
f 463 526 465
f 464 465 469
f 465 526 527
f 465 527 469
f 466 528 529
f 466 529 530
f 466 530 467
f 466 468 528
f 467 530 514
f 468 492 531
f 468 531 532
f 468 532 533
f 468 533 534
f 468 534 535
f 468 535 536
f 468 536 528
f 469 527 470
f 470 527 537
f 470 537 538
f 470 538 539
f 470 539 540
f 470 540 472
f 472 540 541
f 472 541 473
f 473 541 474
f 474 541 542
f 474 542 543
f 474 543 544
f 474 544 476
f 476 544 478
f 476 478 477
f 478 544 545
f 478 545 546
f 478 546 479
f 479 546 547
f 479 547 480
f 480 547 548
f 480 548 549
f 480 549 550
f 480 550 551
f 480 551 484
f 480 484 481
f 481 484 482
f 483 486 487
f 484 551 485
f 485 551 549
f 485 549 552
f 485 552 553
f 485 553 486
f 486 553 487
f 487 553 554
f 487 554 488
f 488 554 490
f 489 490 555
f 490 556 555
f 490 554 557
f 490 557 556
f 492 495 558
f 492 558 559
f 492 559 531
f 496 560 561
f 496 561 562
f 496 562 563
f 496 563 564
f 496 564 499
f 496 498 565
f 496 565 560
f 497 513 498
f 498 513 512
f 498 512 566
f 498 566 565
f 499 564 500
f 500 567 568
f 500 568 569
f 500 569 570
f 500 570 502
f 500 502 501
f 500 564 567
f 502 570 571
f 502 571 572
f 502 572 573
f 502 573 503
f 503 573 574
f 503 574 504
f 504 574 575
f 504 575 576
f 504 576 505
f 505 576 577
f 505 577 506
f 506 577 578
f 506 578 508
f 506 508 507
f 508 579 509
f 508 578 580
f 508 580 581
f 508 581 582
f 508 582 583
f 508 583 584
f 508 584 579
f 509 579 585
f 509 585 510
f 510 585 586
f 510 586 587
f 510 587 588
f 510 588 515
f 511 514 512
f 512 514 589
f 512 589 566
f 514 530 529
f 514 529 590
f 514 590 589
f 515 588 591
f 515 591 517
f 515 517 516
f 517 591 592
f 517 592 593
f 517 593 518
f 518 593 519
f 519 593 594
f 519 594 595
f 519 595 520
f 520 595 596
f 520 596 597
f 520 597 521
f 521 597 522
f 522 597 524
f 524 597 598
f 524 598 525
f 525 598 599
f 525 599 526
f 526 599 537
f 526 537 527
f 528 600 529
f 528 536 601
f 528 601 602
f 528 602 600
f 529 600 589
f 529 589 590
f 534 603 535
f 535 603 604
f 535 604 605
f 535 605 536
f 536 605 606
f 536 606 601
f 537 599 607
f 537 607 608
f 537 608 538
f 538 608 539
f 539 608 609
f 539 609 610
f 539 610 611
f 539 611 612
f 539 612 542
f 539 542 541
f 539 541 540
f 542 612 543
f 543 612 544
f 544 612 613
f 544 613 545
f 545 613 612
f 545 612 614
f 545 614 615
f 545 615 616
f 545 616 617
f 545 617 618
f 545 618 619
f 545 619 546
f 546 619 547
f 547 619 548
f 548 619 549
f 549 619 620
f 549 620 621
f 549 621 553
f 549 553 552
f 549 551 550
f 553 621 554
f 554 621 622
f 554 622 557
f 556 557 622
f 556 622 623
f 560 624 561
f 560 565 625
f 560 625 626
f 560 626 624
f 561 627 628
f 561 628 562
f 561 624 627
f 562 628 563
f 563 628 629
f 563 629 630
f 563 630 631
f 563 631 564
f 564 631 632
f 564 632 567
f 565 566 633
f 565 633 634
f 565 634 625
f 566 635 636
f 566 636 633
f 566 589 635
f 567 632 637
f 567 637 638
f 567 638 639
f 567 639 568
f 568 639 640
f 568 640 641
f 568 641 569
f 569 641 642
f 569 642 570
f 570 642 571
f 571 642 643
f 571 643 572
f 572 643 644
f 572 644 645
f 572 645 573
f 573 645 646
f 573 646 574
f 574 646 575
f 575 646 647
f 575 647 576
f 576 647 648
f 576 648 577
f 577 648 580
f 577 580 578
f 579 584 585
f 580 649 581
f 580 648 649
f 581 649 582
f 582 650 583
f 582 649 651
f 582 651 652
f 582 652 650
f 583 650 584
f 584 650 652
f 584 652 653
f 584 653 654
f 584 654 585
f 585 654 655
f 585 655 586
f 586 655 656
f 586 656 657
f 586 657 587
f 587 657 588
f 588 657 591
f 589 600 658
f 589 658 659
f 589 659 660
f 589 660 661
f 589 661 662
f 589 662 635
f 591 657 663
f 591 663 592
f 592 663 664
f 592 664 665
f 592 665 593
f 593 665 666
f 593 666 667
f 593 667 594
f 594 667 668
f 594 668 595
f 595 668 669
f 595 669 596
f 596 669 597
f 597 669 670
f 597 670 598
f 598 670 671
f 598 671 672
f 598 672 599
f 599 672 607
f 600 602 673
f 600 673 674
f 600 674 675
f 600 675 676
f 600 676 677
f 600 677 678
f 600 678 658
f 607 672 679
f 607 679 680
f 607 680 608
f 608 680 609
f 609 680 681
f 609 681 610
f 610 681 682
f 610 682 683
f 610 683 611
f 611 683 684
f 611 684 612
f 612 684 614
f 614 684 615
f 615 684 683
f 615 683 685
f 615 685 686
f 615 686 616
f 616 686 617
f 617 686 687
f 617 687 619
f 617 619 688
f 617 688 618
f 618 688 619
f 619 689 620
f 619 687 766
f 619 766 689
f 620 689 690
f 620 690 621
f 621 691 622
f 621 690 692
f 621 692 691
f 622 693 694
f 622 694 623
f 622 691 693
f 624 626 695
f 624 695 696
f 624 696 627
f 625 634 697
f 625 697 626
f 626 697 695
f 627 698 699
f 627 699 630
f 627 630 629
f 627 629 628
f 627 696 700
f 627 700 698
f 630 701 631
f 630 699 701
f 631 701 702
f 631 702 632
f 632 702 637
f 633 703 634
f 633 636 703
f 634 703 704
f 634 704 705
f 634 705 697
f 635 706 707
f 635 707 636
f 635 662 708
f 635 708 709
f 635 709 710
f 635 710 711
f 635 711 712
f 635 712 706
f 636 707 713
f 636 713 714
f 636 714 715
f 636 715 716
f 636 716 703
f 637 702 638
f 638 717 718
f 638 718 639
f 638 702 719
f 638 719 717
f 639 718 640
f 640 718 720
f 640 720 641
f 641 720 721
f 641 721 642
f 642 721 643
f 643 722 723
f 643 723 645
f 643 645 644
f 643 721 722
f 645 723 646
f 646 724 647
f 646 723 725
f 646 725 724
f 647 726 727
f 647 727 648
f 647 724 726
f 648 727 728
f 648 728 729
f 648 729 730
f 648 730 731
f 648 731 649
f 649 730 732
f 649 732 733
f 649 733 734
f 649 734 651
f 649 731 730
f 651 734 735
f 651 735 736
f 651 736 652
f 652 736 737
f 652 737 738
f 652 738 739
f 652 739 740
f 652 740 653
f 653 740 655
f 653 655 654
f 655 740 656
f 656 740 739
f 656 739 741
f 656 741 657
f 657 741 742
f 657 742 663
f 658 743 659
f 658 678 743
f 659 744 660
f 660 744 745
f 660 745 662
f 660 662 661
f 663 742 746
f 663 746 747
f 663 747 664
f 664 747 748
f 664 748 749
f 664 749 750
f 664 750 665
f 665 750 751
f 665 751 666
f 666 751 752
f 666 752 667
f 667 752 753
f 667 753 754
f 667 754 668
f 668 754 755
f 668 755 669
f 669 755 756
f 669 756 670
f 670 756 757
f 670 757 671
f 671 757 672
f 672 757 758
f 672 758 679
f 679 758 759
f 679 759 760
f 679 760 680
f 680 760 761
f 680 761 681
f 681 761 762
f 681 762 682
f 682 762 763
f 682 763 683
f 683 763 685
f 685 764 686
f 685 763 765
f 685 765 764
f 686 764 687
f 687 764 765
f 687 765 766
f 689 766 767
f 689 767 768
f 689 768 690
f 690 769 692
f 690 768 769
f 691 692 769
f 691 769 770
f 691 770 693
f 693 771 772
f 693 772 694
f 693 770 771
f 695 773 696
f 695 697 774
f 695 774 775
f 695 775 773
f 696 773 700
f 697 705 776
f 697 776 777
f 697 777 774
f 698 778 779
f 698 779 780
f 698 780 699
f 698 700 781
f 698 781 782
f 698 782 778
f 699 780 701
f 700 773 781
f 701 780 783
f 701 783 784
f 701 784 702
f 702 784 719
f 703 716 785
f 703 785 704
f 704 785 705
f 705 785 776
f 706 786 707
f 706 712 786
f 707 786 713
f 710 787 712
f 710 712 711
f 712 787 788
f 712 788 786
f 713 786 788
f 713 788 789
f 713 789 790
f 713 790 715
f 713 715 714
f 715 791 792
f 715 792 785
f 715 785 716
f 715 790 791
f 717 719 793
f 717 793 794
f 717 794 795
f 717 795 718
f 718 795 796
f 718 796 797
f 718 797 720
f 719 784 793
f 720 797 798
f 720 798 799
f 720 799 721
f 721 799 722
f 722 799 800
f 722 800 801
f 722 801 723
f 723 801 802
f 723 802 725
f 724 725 802
f 724 802 726
f 726 802 803
f 726 803 728
f 726 728 727
f 728 804 805
f 728 805 806
f 728 806 730
f 728 730 729
f 728 803 807
f 728 807 804
f 730 808 809
f 730 809 733
f 730 733 732
f 730 806 808
f 733 809 810
f 733 810 811
f 733 811 812
f 733 812 735
f 733 735 734
f 735 812 737
f 735 737 736
f 737 812 813
f 737 813 814
f 737 814 815
f 737 815 816
f 737 816 817
f 737 817 738
f 738 817 739
f 739 817 818
f 739 818 741
f 741 818 746
f 741 746 742
f 746 819 748
f 746 748 747
f 746 818 819
f 748 819 820
f 748 820 749
f 749 820 750
f 750 820 821
f 750 821 822
f 750 822 751
f 751 822 823
f 751 823 752
f 752 823 753
f 753 823 824
f 753 824 825
f 753 825 754
f 754 825 826
f 754 826 755
f 755 826 756
f 756 826 827
f 756 827 757
f 757 827 828
f 757 828 759
f 757 759 758
f 759 828 829
f 759 829 830
f 759 830 760
f 760 830 831
f 760 831 761
f 761 831 832
f 761 832 762
f 762 832 765
f 762 765 763
f 765 832 833
f 765 833 834
f 765 834 766
f 766 835 836
f 766 836 837
f 766 837 767
f 766 834 835
f 767 837 768
f 768 837 838
f 768 838 839
f 768 839 769
f 769 840 841
f 769 841 770
f 769 839 840
f 770 842 771
f 770 841 842
f 771 842 843
f 773 775 844
f 773 844 845
f 773 845 781
f 774 844 775
f 774 777 846
f 774 846 847
f 774 847 848
f 774 848 844
f 776 785 849
f 776 849 777
f 777 849 846
f 778 850 851
f 778 851 779
f 778 782 852
f 778 852 853
f 778 853 854
f 778 854 850
f 779 851 855
f 779 855 856
f 779 856 857
f 779 857 783
f 779 783 780
f 781 845 858
f 781 858 782
f 782 858 852
f 783 857 784
f 784 856 793
f 784 857 856
f 785 792 849
f 787 859 788
f 788 860 861
f 788 861 789
f 788 859 860
f 789 861 790
f 790 862 792
f 790 792 791
f 790 861 862
f 792 863 864
f 792 864 849
f 792 862 863
f 793 856 794
f 794 865 866
f 794 866 867
f 794 867 795
f 794 856 868
f 794 868 865
f 795 869 796
f 795 867 869
f 796 870 871
f 796 871 872
f 796 872 873
f 796 873 798
f 796 798 797
f 796 869 870
f 798 873 799
f 799 873 800
f 800 873 874
f 800 874 875
f 800 875 801
f 801 875 802
f 802 875 876
f 802 876 803
f 803 877 807
f 803 876 877
f 804 807 877
f 804 877 878
f 804 878 879
f 804 879 805
f 805 880 881
f 805 881 882
f 805 882 808
f 805 808 806
f 805 879 880
f 808 882 809
f 809 882 810
f 810 882 883
f 810 883 884
f 810 884 813
f 810 813 811
f 811 813 812
f 813 884 883
f 813 883 885
f 813 885 886
f 813 886 814
f 814 886 887
f 814 887 815
f 815 887 888
f 815 888 889
f 815 889 816
f 816 889 890
f 816 890 817
f 817 890 818
f 818 890 819
f 819 890 891
f 819 891 820
f 820 891 892
f 820 892 893
f 820 893 821
f 821 893 822
f 822 893 894
f 822 894 895
f 822 895 823
f 823 895 824
f 824 895 896
f 824 896 825
f 825 896 826
f 826 896 897
f 826 897 827
f 827 897 829
f 827 829 828
f 829 897 898
f 829 898 899
f 829 899 900
f 829 900 830
f 830 900 832
f 830 832 831
f 832 899 901
f 832 901 902
f 832 902 903
f 832 903 904
f 832 904 833
f 832 900 899
f 833 904 905
f 833 905 834
f 834 905 906
f 834 906 907
f 834 907 908
f 834 908 836
f 834 836 835
f 836 908 909
f 836 909 910
f 836 910 838
f 836 838 837
f 838 911 839
f 838 910 911
f 839 911 912
f 839 912 840
f 840 912 841
f 841 912 842
f 842 913 843
f 842 912 913
f 844 914 845
f 844 848 915
f 844 915 916
f 844 916 914
f 845 914 853
f 845 853 858
f 846 915 847
f 846 849 915
f 847 915 848
f 849 917 915
f 849 864 917
f 850 918 919
f 850 919 920
f 850 920 851
f 850 854 918
f 851 920 921
f 851 921 855
f 852 858 853
f 853 922 854
f 853 914 923
f 853 923 922
f 854 922 918
f 855 921 868
f 855 868 856
f 860 924 861
f 861 924 925
f 861 925 926
f 861 926 927
f 861 927 862
f 862 927 863
f 863 927 864
f 864 928 917
f 864 927 928
f 865 929 930
f 865 930 931
f 865 931 866
f 865 868 932
f 865 932 929
f 866 931 869
f 866 869 867
f 868 921 933
f 868 933 934
f 868 934 932
f 869 931 935
f 869 935 870
f 870 936 871
f 870 935 937
f 870 937 938
f 870 938 936
f 871 936 939
f 871 939 940
f 871 940 874
f 871 874 872
f 872 874 873
f 874 940 941
f 874 941 942
f 874 942 875
f 875 943 876
f 875 942 943
f 876 943 877
f 877 944 878
f 877 943 944
f 878 945 879
f 878 944 945
f 879 945 880
f 880 946 947
f 880 947 948
f 880 948 949
f 880 949 881
f 880 945 950
f 880 950 946
f 881 949 951
f 881 951 882
f 882 951 883
f 883 951 952
f 883 952 953
f 883 953 954
f 883 954 955
f 883 955 885
f 885 955 956
f 885 956 886
f 886 956 957
f 886 957 887
f 887 957 958
f 887 958 888
f 888 958 959
f 888 959 889
f 889 959 960
f 889 960 961
f 889 961 890
f 890 961 891
f 891 961 962
f 891 962 892
f 892 962 963
f 892 963 964
f 892 964 893
f 893 964 965
f 893 965 894
f 894 965 966
f 894 966 895
f 895 966 967
f 895 967 968
f 895 968 896
f 896 968 969
f 896 969 970
f 896 970 897
f 897 970 971
f 897 971 898
f 898 971 972
f 898 972 901
f 898 901 899
f 901 972 973
f 901 973 905
f 901 905 902
f 902 905 903
f 903 905 904
f 905 973 974
f 905 974 975
f 905 975 906
f 906 975 907
f 907 976 908
f 907 975 977
f 907 977 976
f 908 976 909
f 909 976 978
f 909 978 979
f 909 979 910
f 910 979 911
f 911 979 980
f 911 980 981
f 911 981 912
f 912 981 982
f 912 982 983
f 912 983 984
f 912 984 913
f 914 916 985
f 914 985 986
f 914 986 987
f 914 987 988
f 914 988 923
f 915 917 928
f 915 928 985
f 915 985 916
f 918 922 991
f 918 991 919
f 919 989 990
f 919 990 920
f 919 991 992
f 919 992 993
f 919 993 989
f 920 990 933
f 920 933 921
f 922 923 994
f 922 994 995
f 922 995 991
f 923 988 996
f 923 996 994
f 926 997 928
f 926 928 927
f 928 998 985
f 928 997 999
f 928 999 998
f 929 1000 1001
f 929 1001 1002
f 929 1002 1003
f 929 1003 1004
f 929 1004 930
f 929 932 1005
f 929 1005 1000
f 930 1004 931
f 931 1004 935
f 932 934 1006
f 932 1006 1007
f 932 1007 1005
f 933 990 1008
f 933 1008 1006
f 933 1006 934
f 935 1004 937
f 936 1009 1010
f 936 1010 939
f 936 938 937
f 936 937 1011
f 936 1011 1009
f 937 1012 1011
f 937 1004 1003
f 937 1003 1002
f 937 1002 1012
f 939 1010 1013
f 939 1013 1014
f 939 1014 1015
f 939 1015 1016
f 939 1016 940
f 940 1016 941
f 941 1016 1017
f 941 1017 942
f 942 1017 1018
f 942 1018 943
f 943 1018 1019
f 943 1019 944
f 944 1019 945
f 945 1019 1020
f 945 1020 950
f 946 950 947
f 947 1021 1022
f 947 1022 1023
f 947 1023 952
f 947 952 1024
f 947 1024 948
f 947 950 1025
f 947 1025 1026
f 947 1026 1027
f 947 1027 1028
f 947 1028 1021
f 948 1024 1029
f 948 1029 951
f 948 951 949
f 950 1026 1025
f 950 1020 1026
f 951 1029 952
f 952 1023 953
f 952 1029 1024
f 953 1023 1030
f 953 1030 1031
f 953 1031 954
f 954 1031 955
f 955 1031 1032
f 955 1032 957
f 955 957 956
f 957 1032 1033
f 957 1033 958
f 958 1033 959
f 959 1033 963
f 959 963 960
f 960 963 961
f 961 963 962
f 963 1034 1035
f 963 1035 1036
f 963 1036 1037
f 963 1037 964
f 963 1033 1038
f 963 1038 1034
f 964 1037 965
f 965 1037 1039
f 965 1039 966
f 966 1039 968
f 966 968 967
f 968 1039 1040
f 968 1040 1041
f 968 1041 1042
f 968 1042 969
f 969 1042 1043
f 969 1043 972
f 969 972 971
f 969 971 970
f 972 1043 1044
f 972 1044 1045
f 972 1045 973
f 973 1045 974
f 974 1046 1047
f 974 1047 977
f 974 977 975
f 974 1045 1048
f 974 1048 1046
f 976 1049 978
f 976 977 1050
f 976 1050 1049
f 977 1047 1050
f 978 1051 1052
f 978 1052 979
f 978 1049 1051
f 979 1052 980
f 980 1052 1053
f 980 1053 1054
f 980 1054 1055
f 980 1055 981
f 981 1055 1056
f 981 1056 982
f 985 998 986
f 986 998 987
f 987 998 1057
f 987 1057 988
f 988 1058 996
f 988 1057 1058
f 989 1059 1060
f 989 1060 1061
f 989 1061 990
f 989 993 1062
f 989 1062 1063
f 989 1063 1059
f 990 1061 1008
f 991 995 992
f 992 995 1062
f 992 1062 993
f 1000 1064 1065
f 1000 1065 1001
f 1000 1005 1067
f 1000 1067 1064
f 1001 1065 1002
f 1002 1065 1071
f 1002 1071 1066
f 1002 1066 1012
f 1005 1007 1068
f 1005 1068 1067
f 1006 1008 1007
f 1007 1008 1068
f 1008 1061 1068
f 1009 1011 1069
f 1009 1069 1070
f 1009 1070 1013
f 1009 1013 1010
f 1011 1012 1069
f 1012 1066 1071
f 1012 1071 1069
f 1013 1072 1073
f 1013 1073 1014
f 1013 1070 1069
f 1013 1069 1074
f 1013 1074 1072
f 1014 1073 1075
f 1014 1075 1015
f 1015 1075 1017
f 1015 1017 1016
f 1017 1075 1018
f 1018 1075 1076
f 1018 1076 1077
f 1018 1077 1078
f 1018 1078 1079
f 1018 1079 1019
f 1019 1080 1020
f 1019 1079 1080
f 1020 1080 1027
f 1020 1027 1026
f 1021 1081 1022
f 1021 1028 1082
f 1021 1082 1081
f 1022 1081 1023
f 1023 1081 1083
f 1023 1083 1084
f 1023 1084 1030
f 1027 1080 1085
f 1027 1085 1086
f 1027 1086 1082
f 1027 1082 1028
f 1030 1084 1087
f 1030 1087 1088
f 1030 1088 1089
f 1030 1089 1031
f 1031 1089 1033
f 1031 1033 1032
f 1033 1089 1090
f 1033 1090 1038
f 1034 1091 1035
f 1034 1038 1091
f 1035 1091 1036
f 1036 1091 1037
f 1037 1091 1092
f 1037 1092 1039
f 1038 1090 1091
f 1039 1092 1093
f 1039 1093 1094
f 1039 1094 1040
f 1040 1094 1041
f 1041 1094 1095
f 1041 1095 1096
f 1041 1096 1097
f 1041 1097 1042
f 1042 1097 1098
f 1042 1098 1044
f 1042 1044 1043
f 1044 1098 1099
f 1044 1099 1048
f 1044 1048 1045
f 1046 1100 1101
f 1046 1101 1102
f 1046 1102 1103
f 1046 1103 1047
f 1046 1048 1099
f 1046 1099 1100
f 1047 1103 1050
f 1049 1050 1104
f 1049 1104 1105
f 1049 1105 1051
f 1050 1103 1104
f 1051 1105 1106
f 1051 1106 1107
f 1051 1107 1108
f 1051 1108 1052
f 1052 1108 1053
f 1060 1109 1061
f 1061 1109 1158
f 1061 1158 1110
f 1061 1110 1068
f 1064 1067 1111
f 1064 1111 1112
f 1064 1112 1113
f 1064 1113 1065
f 1065 1113 1114
f 1065 1114 1115
f 1065 1115 1071
f 1067 1116 1111
f 1067 1068 1117
f 1067 1117 1118
f 1067 1118 1119
f 1067 1119 1120
f 1067 1120 1116
f 1068 1110 1117
f 1069 1071 1121
f 1069 1121 1122
f 1069 1122 1123
f 1069 1123 1074
f 1071 1115 1121
f 1072 1124 1125
f 1072 1125 1073
f 1072 1074 1126
f 1072 1126 1124
f 1073 1125 1127
f 1073 1127 1077
f 1073 1077 1075
f 1074 1123 1126
f 1075 1077 1076
f 1077 1127 1078
f 1078 1127 1128
f 1078 1128 1085
f 1078 1085 1079
f 1079 1085 1080
f 1081 1082 1129
f 1081 1129 1130
f 1081 1130 1083
f 1082 1086 1131
f 1082 1131 1132
f 1082 1132 1129
f 1083 1130 1084
f 1084 1133 1087
f 1084 1130 1134
f 1084 1134 1133
f 1085 1128 1086
f 1086 1128 1135
f 1086 1135 1136
f 1086 1136 1131
f 1087 1133 1137
f 1087 1137 1138
f 1087 1138 1088
f 1088 1138 1089
f 1089 1138 1139
f 1089 1139 1090
f 1090 1140 1091
f 1090 1139 1138
f 1090 1138 1141
f 1090 1141 1142
f 1090 1142 1140
f 1091 1140 1143
f 1091 1143 1144
f 1091 1144 1092
f 1092 1144 1093
f 1093 1144 1145
f 1093 1145 1094
f 1094 1145 1146
f 1094 1146 1095
f 1095 1146 1147
f 1095 1147 1096
f 1096 1147 1148
f 1096 1148 1149
f 1096 1149 1097
f 1097 1149 1150
f 1097 1150 1098
f 1098 1150 1099
f 1099 1150 1151
f 1099 1151 1100
f 1100 1151 1152
f 1100 1152 1101
f 1101 1152 1153
f 1101 1153 1102
f 1102 1153 1154
f 1102 1154 1155
f 1102 1155 1104
f 1102 1104 1103
f 1104 1155 1105
f 1105 1155 1156
f 1105 1156 1157
f 1105 1157 1106
f 1110 1158 1159
f 1110 1159 1117
f 1117 1159 1119
f 1117 1119 1118
f 1124 1160 1125
f 1125 1160 1161
f 1125 1161 1135
f 1125 1135 1127
f 1127 1135 1128
f 1129 1132 1130
f 1130 1132 1162
f 1130 1162 1163
f 1130 1163 1134
f 1131 1136 1164
f 1131 1164 1132
f 1132 1164 1162
f 1133 1134 1165
f 1133 1165 1166
f 1133 1166 1167
f 1133 1167 1168
f 1133 1168 1137
f 1134 1163 1165
f 1135 1161 1169
f 1135 1169 1170
f 1135 1170 1136
f 1136 1170 1171
f 1136 1171 1164
f 1137 1172 1138
f 1137 1168 1172
f 1138 1172 1141
f 1140 1142 1143
f 1141 1172 1173
f 1141 1173 1142
f 1142 1173 1174
f 1142 1174 1143
f 1143 1174 1144
f 1144 1174 1175
f 1144 1175 1176
f 1144 1176 1145
f 1145 1176 1146
f 1146 1176 1177
f 1146 1177 1178
f 1146 1178 1147
f 1147 1178 1179
f 1147 1179 1148
f 1148 1179 1180
f 1148 1180 1149
f 1149 1180 1181
f 1149 1181 1150
f 1150 1181 1151
f 1151 1181 1182
f 1151 1182 1152
f 1152 1182 1183
f 1152 1183 1153
f 1153 1183 1184
f 1153 1184 1185
f 1153 1185 1154
f 1154 1185 1155
f 1155 1185 1186
f 1155 1186 1156
f 1160 1187 1161
f 1161 1187 1169
f 1162 1164 1188
f 1162 1188 1163
f 1163 1188 1165
f 1164 1171 1189
f 1164 1189 1190
f 1164 1190 1191
f 1164 1191 1188
f 1165 1192 1166
f 1165 1188 1193
f 1165 1193 1194
f 1165 1194 1192
f 1166 1192 1195
f 1166 1195 1196
f 1166 1196 1197
f 1166 1197 1167
f 1167 1198 1168
f 1167 1197 1198
f 1168 1198 1199
f 1168 1199 1172
f 1172 1199 1173
f 1173 1199 1200
f 1173 1200 1201
f 1173 1201 1174
f 1174 1201 1175
f 1175 1201 1202
f 1175 1202 1203
f 1175 1203 1176
f 1176 1203 1204
f 1176 1204 1177
f 1177 1204 1205
f 1177 1205 1178
f 1178 1205 1206
f 1178 1206 1179
f 1179 1206 1207
f 1179 1207 1180
f 1180 1207 1208
f 1180 1208 1181
f 1181 1208 1182
f 1182 1208 1223
f 1182 1223 1209
f 1182 1209 1183
f 1183 1209 1210
f 1183 1210 1184
f 1184 1211 1185
f 1185 1211 1186
f 1188 1191 1193
f 1197 1212 1198
f 1198 1212 1213
f 1198 1213 1214
f 1198 1214 1199
f 1199 1214 1200
f 1200 1215 1201
f 1200 1214 1216
f 1200 1216 1215
f 1201 1215 1202
f 1202 1215 1203
f 1203 1215 1217
f 1203 1217 1204
f 1204 1217 1218
f 1204 1218 1219
f 1204 1219 1205
f 1205 1219 1220
f 1205 1220 1221
f 1205 1221 1206
f 1206 1221 1222
f 1206 1222 1207
f 1207 1222 1223
f 1207 1223 1208
f 1209 1223 1210
f 1210 1223 1224
f 1213 1225 1214
f 1214 1225 1226
f 1214 1226 1216
f 1215 1216 1227
f 1215 1227 1217
f 1216 1226 1228
f 1216 1228 1227
f 1217 1227 1218
f 1218 1227 1229
f 1218 1229 1230
f 1218 1230 1219
f 1219 1230 1220
f 1220 1230 1231
f 1220 1231 1221
f 1221 1231 1222
f 1222 1231 1232
f 1222 1232 1233
f 1222 1233 1234
f 1222 1234 1223
f 1223 1234 1235
f 1223 1235 1224
f 1227 1228 1229

