# https://github.com/mikedh/trimesh
v -0.00601612 0.01308563 -0.01358400
v -0.00256597 0.01713128 -0.01359559
v -0.00256597 0.01669876 -0.01358888
v -0.00429687 0.01366866 -0.01356692
v -0.00559505 0.01308563 -0.01357729
v -0.00601612 0.01308563 -0.00737919
v -0.00601612 0.01323614 -0.01358339
v -0.00299869 0.01929469 -0.01361024
v -0.00343142 0.01799631 -0.01360658
v -0.00256597 0.01756297 -0.01359804
v -0.00213392 0.01842883 -0.01359742
v -0.00213392 0.01799631 -0.01359438
v -0.00213392 0.01756297 -0.01359071
v -0.00213392 0.01713128 -0.01358583
v -0.00299869 0.01886134 -0.01361024
v -0.00213392 0.01669876 -0.01357668
v -0.00299869 0.01540038 -0.01357180
v -0.00343142 0.01453452 -0.01356448
v -0.00343142 0.01496704 -0.01357363
v -0.00386415 0.01366866 -0.01355655
v -0.00386415 0.01323614 -0.01354679
v -0.00429687 0.01323614 -0.01355655
v -0.00429687 0.01308563 -0.01355228
v 0.00098980 0.01308563 -0.00737919
v -0.00601612 0.02065592 -0.00737919
v -0.00601612 0.01410200 -0.01357729
v -0.00256597 0.02059307 -0.01360597
v -0.00256597 0.02015972 -0.01361146
v -0.00516233 0.01583290 -0.01358400
v -0.00559505 0.01540038 -0.01357546
v -0.00516233 0.01626541 -0.01357851
v -0.00126778 0.02015972 -0.01359254
v -0.00126778 0.02059307 -0.01359559
v -0.00170120 0.01886134 -0.01359193
v -0.00170120 0.01842883 -0.01358827
v -0.00126778 0.01886134 -0.01357973
v -0.00170120 0.01756297 -0.01357668
v -0.00170120 0.01713128 -0.01356814
v -0.00170120 0.01669876 -0.01355533
v -0.00213392 0.01626541 -0.01356265
v -0.00386415 0.01308563 -0.01354191
v 0.00098980 0.01308563 -0.01063624
v 0.00098980 0.02153419 -0.00737919
v -0.00503203 0.02153419 -0.00737919
v -0.00601612 0.02153419 -0.00767323
v -0.00601612 0.01453452 -0.01357119
v -0.00256597 0.02102558 -0.01359865
v -0.00213392 0.02145810 -0.01360414
v -0.00213392 0.02102558 -0.01360719
v -0.00126778 0.02102558 -0.01359742
v -0.00559505 0.01583290 -0.01356509
v -0.00601612 0.01496704 -0.01356204
v -0.00516233 0.01669876 -0.01356753
v -0.00126778 0.01972721 -0.01358888
v -0.00083506 0.02102558 -0.01358888
v -0.00126778 0.01929469 -0.01358461
v -0.00083506 0.02015972 -0.01358095
v -0.00083506 0.01972721 -0.01357607
v -0.00083506 0.01929469 -0.01356997
v -0.00083506 0.01886134 -0.01356265
v -0.00126778 0.01799631 -0.01356570
v -0.00083506 0.01842883 -0.01355411
v -0.00126778 0.01756297 -0.01355594
v -0.00126778 0.01713128 -0.01354130
v -0.00170120 0.01626541 -0.01353703
v -0.00343142 0.01323614 -0.01352361
v -0.00343142 0.01308563 -0.01351690
v 0.00087871 0.01308563 -0.01089978
v 0.00098980 0.01325847 -0.01088941
v 0.00098980 0.02153419 -0.01345955
v -0.00601612 0.02153419 -0.01174653
v -0.00256597 0.02145810 -0.01358705
v -0.00213392 0.02153419 -0.01360230
v -0.00170120 0.02145810 -0.01360169
v -0.00170120 0.02153419 -0.01360108
v -0.00126778 0.02145810 -0.01359681
v -0.00083506 0.02145810 -0.01358888
v -0.00601612 0.01540038 -0.01354557
v -0.00559505 0.01626541 -0.01354801
v -0.00516233 0.01713128 -0.01354984
v -0.00472960 0.01799631 -0.01355167
v -0.00472960 0.01756297 -0.01356875
v -0.00083506 0.02059307 -0.01358522
v -0.00040233 0.02102558 -0.01357668
v -0.00040233 0.02059307 -0.01357180
v -0.00040233 0.02015972 -0.01356509
v -0.00040233 0.01972721 -0.01355716
v -0.00083506 0.01799631 -0.01354130
v -0.00040233 0.01929469 -0.01354801
v -0.00040233 0.01886134 -0.01353642
v -0.00083506 0.01756297 -0.01352239
v -0.00126778 0.01669876 -0.01352056
v -0.00170120 0.01583290 -0.01351324
v -0.00299869 0.01323614 -0.01348152
v -0.00299869 0.01308563 -0.01347176
v -0.00213392 0.01496704 -0.01350287
v 0.00072235 0.01308563 -0.01120847
v 0.00098980 0.01327418 -0.01091138
v 0.00098980 0.02145810 -0.01345894
v 0.00089585 0.02153419 -0.01347419
v -0.00601612 0.02151434 -0.01176362
v -0.00600926 0.02153419 -0.01175812
v -0.00256597 0.02153419 -0.01358400
v -0.00134391 0.02153419 -0.01359742
v -0.00126778 0.02153419 -0.01359620
v -0.00091049 0.02153419 -0.01359010
v -0.00040233 0.02145810 -0.01357485
v -0.00083506 0.02153419 -0.01358827
v -0.00601612 0.01583290 -0.01352056
v -0.00559505 0.01669876 -0.01352422
v -0.00516233 0.01756297 -0.01352666
v -0.00472960 0.01842883 -0.01352788
v -0.00299869 0.02145810 -0.01355167
v 0.00003040 0.02145810 -0.01355289
v 0.00003040 0.02102558 -0.01355350
v 0.00003040 0.02059307 -0.01354801
v -0.00040233 0.01842883 -0.01352056
v 0.00003040 0.02015972 -0.01353703
v 0.00003040 0.01972721 -0.01352361
v 0.00003040 0.01929469 -0.01350958
v -0.00083506 0.01713128 -0.01349799
v -0.00040233 0.01799631 -0.01349860
v -0.00126778 0.01626541 -0.01349250
v -0.00213392 0.01453452 -0.01347298
v -0.00256597 0.01366866 -0.01346199
v -0.00256597 0.01323614 -0.01342539
v -0.00256597 0.01308563 -0.01341014
v 0.00063800 0.01308563 -0.01134756
v 0.00098980 0.01365046 -0.01134817
v 0.00098980 0.02102558 -0.01344857
v 0.00089585 0.02102558 -0.01346565
v 0.00089585 0.02145810 -0.01347359
v 0.00046312 0.02153419 -0.01351995
v -0.00601612 0.02148209 -0.01178985
v -0.00595440 0.02153419 -0.01184292
v -0.00299869 0.02153419 -0.01354740
v -0.00047777 0.02153419 -0.01357668
v -0.00040233 0.02153419 -0.01357363
v 0.00003040 0.02153419 -0.01355228
v -0.00601612 0.01626541 -0.01348396
v -0.00559505 0.01713128 -0.01348945
v -0.00516233 0.01799631 -0.01349433
v -0.00472960 0.01886134 -0.01349494
v -0.00429687 0.01972721 -0.01349494
v -0.00343142 0.02145810 -0.01349372
v 0.00046312 0.02145810 -0.01351934
v 0.00046312 0.02102558 -0.01351568
v 0.00046312 0.02059307 -0.01350714
v 0.00003040 0.01886134 -0.01349067
v 0.00046312 0.02015972 -0.01349189
v -0.00040233 0.01756297 -0.01346931
v -0.00083506 0.01669876 -0.01346687
v 0.00003040 0.01842883 -0.01346199
v -0.00126778 0.01583290 -0.01345772
v -0.00213392 0.01366866 -0.01339428
v -0.00214215 0.01308563 -0.01332839
v 0.00058999 0.01308563 -0.01142626
v 0.00060988 0.01313111 -0.01143968
v 0.00069903 0.01341973 -0.01157572
v 0.00098980 0.01365708 -0.01135427
v 0.00098980 0.02059307 -0.01342661
v 0.00089585 0.02059307 -0.01344613
v -0.00601612 0.02100987 -0.01211500
v -0.00572124 0.02153419 -0.01214917
v -0.00587760 0.02137209 -0.01206376
v -0.00343142 0.02153419 -0.01348640
v -0.00601612 0.01669876 -0.01343820
v -0.00559505 0.01756297 -0.01344369
v -0.00516233 0.01842883 -0.01344918
v -0.00386415 0.02102558 -0.01345162
v 0.00046312 0.01972721 -0.01347114
v 0.00046312 0.01929469 -0.01344552
v -0.00040233 0.01713128 -0.01343027
v 0.00003040 0.01799631 -0.01342600
v -0.00083506 0.01626541 -0.01342539
v 0.00046312 0.01886134 -0.01341502
v -0.00165936 0.01406065 -0.01334181
v -0.00210375 0.01321547 -0.01333571
v -0.00148723 0.01388946 -0.01328203
v -0.00186098 0.01334530 -0.01329728
v -0.00196934 0.01308563 -0.01328813
v 0.00038906 0.01308563 -0.01170078
v 0.00098980 0.01407388 -0.01170871
v 0.00098980 0.01401186 -0.01165747
v 0.00020938 0.01308563 -0.01192162
v 0.00098980 0.02016799 -0.01339794
v 0.00089585 0.02015972 -0.01341868
v -0.00601612 0.02086928 -0.01220590
v -0.00567392 0.02153419 -0.01220468
v -0.00594755 0.02100326 -0.01220529
v -0.00386552 0.02153419 -0.01338086
v -0.00386415 0.02145810 -0.01339245
v -0.00601612 0.01713128 -0.01338574
v -0.00559505 0.01799631 -0.01339123
v -0.00516233 0.01886134 -0.01339428
v 0.00089585 0.01972721 -0.01338879
v 0.00003040 0.01756297 -0.01338635
v -0.00040233 0.01669876 -0.01338330
v -0.00083506 0.01583290 -0.01337476
v 0.00090682 0.01889442 -0.01331802
v 0.00046312 0.01842883 -0.01337537
v 0.00089585 0.01929469 -0.01335524
v -0.00097976 0.01496704 -0.01330155
v -0.00126847 0.01406065 -0.01324177
v -0.00155238 0.01366866 -0.01326373
v -0.00189733 0.01308563 -0.01326861
v 0.00021967 0.01697001 -0.01327654
v -0.00076374 0.01496704 -0.01323994
v 0.00098980 0.01427898 -0.01185573
v 0.00020390 0.01308563 -0.01192772
v 0.00020527 0.01309224 -0.01193077
v 0.00029031 0.01338086 -0.01203387
v 0.00098980 0.01972721 -0.01336622
v -0.00583028 0.02084447 -0.01243467
v -0.00601612 0.02061374 -0.01234743
v -0.00575347 0.02113309 -0.01235231
v -0.00543595 0.02153419 -0.01247005
v -0.00414669 0.02145810 -0.01330704
v -0.00412680 0.02153419 -0.01329972
v -0.00516919 0.01926492 -0.01333266
v -0.00601612 0.01756875 -0.01332473
v -0.00560260 0.01839740 -0.01333205
v 0.00098980 0.01956842 -0.01335401
v 0.00098980 0.01919545 -0.01332534
v 0.00005783 0.01712053 -0.01333083
v 0.00048370 0.01800375 -0.01332595
v -0.00038724 0.01627617 -0.01332839
v 0.00098980 0.01895893 -0.01330460
v 0.00098980 0.01882744 -0.01329118
v -0.00126778 0.01366866 -0.01316551
v -0.00170737 0.01308563 -0.01320516
v -0.00171080 0.01321547 -0.01323140
v 0.00064143 0.01786399 -0.01327288
v 0.00056805 0.01756297 -0.01325031
v 0.00043981 0.01712053 -0.01322224
v 0.00046312 0.01669876 -0.01314050
v 0.00013943 0.01669876 -0.01325397
v 0.00003040 0.01583290 -0.01312708
v 0.00066611 0.01390683 -0.01196798
v 0.00075458 0.01419545 -0.01206437
v 0.00098980 0.01464616 -0.01209853
v -0.00001281 0.01308563 -0.01216320
v -0.00515753 0.02153419 -0.01271102
v -0.00601612 0.02021265 -0.01255241
v -0.00544967 0.01886134 -0.01330704
v -0.00538863 0.01910200 -0.01328630
v -0.00531800 0.01939062 -0.01326007
v -0.00434282 0.02153419 -0.01320821
v -0.00445049 0.02110746 -0.01325763
v -0.00436271 0.02145810 -0.01321797
v -0.00601612 0.01799631 -0.01324665
v -0.00581930 0.01823200 -0.01328569
v -0.00587485 0.01799631 -0.01330460
v 0.00098980 0.01847266 -0.01324543
v -0.00040233 0.01496704 -0.01311000
v -0.00083506 0.01410200 -0.01309169
v -0.00126778 0.01323614 -0.01307278
v -0.00126024 0.01308563 -0.01303191
v 0.00097952 0.01842883 -0.01324238
v 0.00089585 0.01756297 -0.01313013
v 0.00089585 0.01713128 -0.01304960
v 0.00046312 0.01626541 -0.01305021
v 0.00060577 0.01444768 -0.01235292
v 0.00098980 0.01493561 -0.01225471
v -0.00022609 0.01308563 -0.01236756
v 0.00015658 0.01366866 -0.01233584
v -0.00510335 0.02153419 -0.01275739
v -0.00601612 0.02012168 -0.01259206
v -0.00575210 0.01852062 -0.01326007
v -0.00566638 0.01886134 -0.01322041
v -0.00475772 0.02153419 -0.01299043
v -0.00476869 0.02149366 -0.01299592
v -0.00555802 0.01926492 -0.01317283
v -0.00601612 0.01829320 -0.01318259
v 0.00098980 0.01841642 -0.01323628
v 0.00003040 0.01540038 -0.01303252
v -0.00040233 0.01453452 -0.01301178
v -0.00079734 0.01363558 -0.01296419
v -0.00091255 0.01323614 -0.01291600
v -0.00095644 0.01308563 -0.01289648
v 0.00098980 0.01756379 -0.01308986
v 0.00098980 0.01713128 -0.01300751
v 0.00098980 0.01702129 -0.01298494
v 0.00098980 0.01673101 -0.01292332
v 0.00092054 0.01668966 -0.01294467
v 0.00079093 0.01626541 -0.01290502
v 0.00047958 0.01583455 -0.01293918
v -0.00023500 0.01308563 -0.01237611
v 0.00022996 0.01391345 -0.01240295
v 0.00068737 0.01473630 -0.01242308
v 0.00098980 0.01504064 -0.01230961
v 0.00098980 0.01496704 -0.01227118
v -0.00480984 0.02153419 -0.01295931
v -0.00500734 0.02137209 -0.01289099
v -0.00537355 0.02079899 -0.01284584
v -0.00601612 0.01977352 -0.01274336
v -0.00598938 0.01839740 -0.01317100
v -0.00601612 0.01856115 -0.01311549
v -0.00601612 0.01889856 -0.01302947
v -0.00596949 0.01929469 -0.01294589
v -0.00587828 0.01964864 -0.01289404
v -0.00563620 0.01976607 -0.01299897
v -0.00601612 0.01911606 -0.01297029
v -0.00601612 0.01839906 -0.01315636
v -0.00017808 0.01430213 -0.01285438
v -0.00062795 0.01346852 -0.01284462
v -0.00069653 0.01323614 -0.01279887
v -0.00074796 0.01308563 -0.01277325
v 0.00098980 0.01662516 -0.01289648
v 0.00071480 0.01597928 -0.01286964
v -0.00043799 0.01308563 -0.01254021
v -0.00023157 0.01309721 -0.01237916
v 0.00031705 0.01420207 -0.01246761
v 0.00046175 0.01456925 -0.01251764
v 0.00075252 0.01496704 -0.01247005
v 0.00098980 0.01547150 -0.01250178
v 0.00098980 0.01534166 -0.01244626
v -0.00580833 0.01993644 -0.01284706
v -0.00601612 0.01929469 -0.01291539
v 0.00063457 0.01569065 -0.01282510
v 0.00018675 0.01485126 -0.01281656
v 0.00043295 0.01498440 -0.01269943
v 0.00098980 0.01626541 -0.01279399
v 0.00090614 0.01541527 -0.01253899
v 0.00098980 0.01583372 -0.01263843
v 0.00098980 0.01620835 -0.01277508
v 0.00087391 0.01583455 -0.01271712
f 1 2 3
f 1 3 4
f 1 4 5
f 1 5 23
f 1 23 41
f 1 41 67
f 1 67 95
f 1 95 127
f 1 127 156
f 1 156 181
f 1 181 206
f 1 206 231
f 1 231 258
f 1 258 280
f 1 280 308
f 1 308 311
f 1 311 288
f 1 288 265
f 1 265 242
f 1 242 210
f 1 210 185
f 1 185 182
f 1 182 157
f 1 157 128
f 1 128 97
f 1 97 68
f 1 68 42
f 1 42 24
f 1 24 6
f 1 6 25
f 1 25 45
f 1 45 71
f 1 71 101
f 1 101 134
f 1 134 163
f 1 163 188
f 1 188 215
f 1 215 244
f 1 244 268
f 1 268 296
f 1 296 319
f 1 319 303
f 1 303 299
f 1 299 298
f 1 298 304
f 1 304 274
f 1 274 251
f 1 251 221
f 1 221 193
f 1 193 167
f 1 167 140
f 1 140 109
f 1 109 78
f 1 78 52
f 1 52 46
f 1 46 26
f 1 26 7
f 1 7 8
f 1 8 9
f 1 9 2
f 2 10 11
f 2 11 12
f 2 12 13
f 2 13 14
f 2 14 3
f 2 9 15
f 2 15 10
f 3 14 16
f 3 16 17
f 3 17 18
f 3 18 19
f 3 19 4
f 4 20 21
f 4 21 22
f 4 22 5
f 4 19 20
f 5 22 23
f 6 24 43
f 6 43 44
f 6 44 25
f 7 26 8
f 8 27 28
f 8 28 15
f 8 15 9
f 8 26 29
f 8 29 30
f 8 30 31
f 8 31 27
f 10 15 11
f 11 32 12
f 11 15 28
f 11 28 33
f 11 33 32
f 12 32 34
f 12 34 13
f 13 34 35
f 13 35 14
f 14 35 36
f 14 36 37
f 14 37 38
f 14 38 16
f 16 18 17
f 16 38 39
f 16 39 40
f 16 40 21
f 16 21 18
f 18 21 20
f 18 20 19
f 21 41 23
f 21 23 22
f 21 40 41
f 24 42 69
f 24 69 98
f 24 98 129
f 24 129 160
f 24 160 184
f 24 184 183
f 24 183 209
f 24 209 241
f 24 241 264
f 24 264 292
f 24 292 291
f 24 291 317
f 24 317 316
f 24 316 325
f 24 325 326
f 24 326 323
f 24 323 309
f 24 309 284
f 24 284 283
f 24 283 282
f 24 282 281
f 24 281 275
f 24 275 254
f 24 254 229
f 24 229 228
f 24 228 224
f 24 224 223
f 24 223 213
f 24 213 186
f 24 186 161
f 24 161 130
f 24 130 99
f 24 99 70
f 24 70 43
f 25 44 45
f 26 46 30
f 26 30 29
f 27 47 48
f 27 48 28
f 27 31 47
f 28 48 49
f 28 49 50
f 28 50 33
f 30 51 31
f 30 46 52
f 30 52 51
f 31 51 53
f 31 53 47
f 32 54 35
f 32 35 34
f 32 33 55
f 32 55 83
f 32 83 54
f 33 50 55
f 35 54 56
f 35 56 36
f 36 56 57
f 36 57 58
f 36 58 59
f 36 59 37
f 37 59 60
f 37 60 61
f 37 61 38
f 38 61 62
f 38 62 63
f 38 63 39
f 39 63 64
f 39 64 65
f 39 65 66
f 39 66 41
f 39 41 40
f 41 66 67
f 42 68 69
f 43 70 100
f 43 100 133
f 43 133 139
f 43 139 138
f 43 138 137
f 43 137 108
f 43 108 106
f 43 106 105
f 43 105 104
f 43 104 75
f 43 75 73
f 43 73 103
f 43 103 136
f 43 136 166
f 43 166 191
f 43 191 219
f 43 219 248
f 43 248 271
f 43 271 293
f 43 293 267
f 43 267 243
f 43 243 217
f 43 217 189
f 43 189 164
f 43 164 135
f 43 135 102
f 43 102 71
f 43 71 45
f 43 45 44
f 47 72 73
f 47 73 48
f 47 53 72
f 48 74 49
f 48 73 75
f 48 75 74
f 49 74 76
f 49 76 50
f 50 76 77
f 50 77 55
f 51 52 78
f 51 78 79
f 51 79 53
f 53 79 80
f 53 80 81
f 53 81 82
f 53 82 72
f 54 83 57
f 54 57 56
f 55 77 84
f 55 84 83
f 57 83 84
f 57 84 85
f 57 85 58
f 58 85 59
f 59 85 86
f 59 86 60
f 60 86 87
f 60 87 62
f 60 62 61
f 62 88 63
f 62 87 89
f 62 89 90
f 62 90 88
f 63 88 64
f 64 88 91
f 64 91 92
f 64 92 65
f 65 92 93
f 65 93 67
f 65 67 66
f 67 94 95
f 67 93 96
f 67 96 94
f 68 97 98
f 68 98 69
f 70 99 132
f 70 132 100
f 71 102 101
f 72 81 103
f 72 103 73
f 72 82 81
f 74 75 104
f 74 104 76
f 76 104 105
f 76 105 106
f 76 106 77
f 77 107 84
f 77 106 108
f 77 108 107
f 78 109 110
f 78 110 79
f 79 110 111
f 79 111 80
f 80 111 81
f 81 112 113
f 81 113 103
f 81 111 112
f 84 107 114
f 84 114 115
f 84 115 85
f 85 115 116
f 85 116 86
f 86 116 87
f 87 116 89
f 88 90 117
f 88 117 91
f 89 116 118
f 89 118 90
f 90 118 119
f 90 119 120
f 90 120 117
f 91 121 92
f 91 117 122
f 91 122 121
f 92 123 93
f 92 121 123
f 93 123 124
f 93 124 95
f 93 95 96
f 94 96 95
f 95 125 126
f 95 126 127
f 95 124 125
f 97 128 129
f 97 129 98
f 99 130 131
f 99 131 132
f 100 132 146
f 100 146 133
f 101 102 134
f 102 135 134
f 103 113 136
f 107 108 137
f 107 137 138
f 107 138 139
f 107 139 114
f 109 140 141
f 109 141 110
f 110 141 142
f 110 142 111
f 111 142 112
f 112 142 143
f 112 143 144
f 112 144 145
f 112 145 136
f 112 136 113
f 114 139 133
f 114 133 115
f 115 133 146
f 115 146 147
f 115 147 116
f 116 148 118
f 116 147 148
f 117 120 149
f 117 149 122
f 118 148 119
f 119 148 120
f 120 148 150
f 120 150 149
f 121 122 151
f 121 151 152
f 121 152 123
f 122 149 153
f 122 153 151
f 123 152 154
f 123 154 124
f 124 154 126
f 124 126 125
f 126 155 127
f 126 154 155
f 127 155 156
f 128 157 129
f 129 158 159
f 129 159 160
f 129 157 158
f 130 161 162
f 130 162 131
f 131 147 132
f 131 162 150
f 131 150 148
f 131 148 147
f 132 147 146
f 134 135 163
f 135 164 165
f 135 165 163
f 136 145 166
f 140 167 141
f 141 167 168
f 141 168 169
f 141 169 142
f 142 169 170
f 142 170 143
f 143 170 144
f 144 170 166
f 144 166 145
f 149 150 171
f 149 171 172
f 149 172 153
f 150 162 171
f 151 173 152
f 151 153 174
f 151 174 173
f 152 175 154
f 152 173 175
f 153 172 176
f 153 176 174
f 154 175 155
f 155 177 178
f 155 178 156
f 155 175 177
f 156 178 177
f 156 177 179
f 156 179 180
f 156 180 181
f 157 182 159
f 157 159 158
f 159 183 184
f 159 184 160
f 159 182 185
f 159 185 183
f 161 186 187
f 161 187 162
f 162 187 172
f 162 172 171
f 163 165 188
f 164 189 190
f 164 190 165
f 165 190 188
f 166 170 192
f 166 192 191
f 167 193 194
f 167 194 168
f 168 194 169
f 169 194 195
f 169 195 170
f 170 195 192
f 172 187 196
f 172 196 176
f 173 174 197
f 173 197 198
f 173 198 175
f 174 176 197
f 175 198 199
f 175 199 177
f 176 200 201
f 176 201 197
f 176 196 202
f 176 202 200
f 177 199 203
f 177 203 179
f 179 204 205
f 179 205 206
f 179 206 181
f 179 181 180
f 179 203 207
f 179 207 208
f 179 208 204
f 183 185 209
f 185 210 211
f 185 211 212
f 185 212 209
f 186 213 196
f 186 196 187
f 188 214 215
f 188 190 216
f 188 216 214
f 189 217 216
f 189 216 190
f 191 218 219
f 191 192 195
f 191 195 220
f 191 220 218
f 193 221 194
f 194 222 195
f 194 221 222
f 195 222 220
f 196 213 223
f 196 223 224
f 196 224 202
f 197 207 225
f 197 225 198
f 197 201 226
f 197 226 207
f 198 227 199
f 198 225 207
f 198 207 227
f 199 227 203
f 200 202 224
f 200 224 228
f 200 228 229
f 200 229 201
f 201 229 226
f 203 227 207
f 204 230 231
f 204 231 232
f 204 232 205
f 204 208 230
f 205 232 206
f 206 232 231
f 207 226 233
f 207 233 234
f 207 234 235
f 207 235 236
f 207 236 237
f 207 237 208
f 208 237 238
f 208 238 230
f 209 212 239
f 209 239 240
f 209 240 241
f 210 242 211
f 211 242 212
f 212 240 239
f 212 242 240
f 214 216 217
f 214 217 243
f 214 243 244
f 214 244 215
f 218 220 245
f 218 245 246
f 218 246 247
f 218 247 219
f 219 247 249
f 219 249 250
f 219 250 248
f 220 222 245
f 221 251 252
f 221 252 253
f 221 253 222
f 222 253 252
f 222 252 245
f 226 229 233
f 229 254 233
f 230 238 255
f 230 255 256
f 230 256 257
f 230 257 231
f 231 257 258
f 233 254 259
f 233 259 234
f 234 259 260
f 234 260 235
f 235 260 236
f 236 260 261
f 236 261 262
f 236 262 238
f 236 238 237
f 238 262 255
f 240 242 241
f 241 242 263
f 241 263 264
f 242 265 266
f 242 266 263
f 243 267 244
f 244 267 268
f 245 252 269
f 245 269 246
f 246 269 247
f 247 269 270
f 247 270 250
f 247 250 249
f 248 250 272
f 248 272 271
f 250 270 273
f 250 273 272
f 251 274 269
f 251 269 252
f 254 275 259
f 255 262 276
f 255 276 256
f 256 276 257
f 257 276 277
f 257 277 278
f 257 278 279
f 257 279 258
f 258 279 280
f 259 275 260
f 260 281 261
f 260 275 281
f 261 281 282
f 261 282 283
f 261 283 284
f 261 284 285
f 261 285 262
f 262 285 286
f 262 286 287
f 262 287 276
f 263 266 288
f 263 288 289
f 263 289 290
f 263 290 291
f 263 291 292
f 263 292 264
f 265 288 266
f 267 293 294
f 267 294 295
f 267 295 296
f 267 296 268
f 269 274 297
f 269 297 270
f 270 297 298
f 270 298 299
f 270 299 273
f 271 294 293
f 271 272 300
f 271 300 301
f 271 301 294
f 272 273 302
f 272 302 303
f 272 303 300
f 273 299 302
f 274 304 297
f 276 287 305
f 276 305 277
f 277 305 278
f 278 305 279
f 279 305 306
f 279 306 280
f 280 306 307
f 280 307 308
f 284 309 286
f 284 286 285
f 286 310 287
f 286 309 310
f 287 310 305
f 288 311 312
f 288 312 289
f 289 313 290
f 289 312 311
f 289 311 313
f 290 314 315
f 290 315 316
f 290 316 317
f 290 317 291
f 290 313 314
f 294 301 295
f 295 301 318
f 295 318 296
f 296 318 319
f 297 304 298
f 299 303 302
f 300 303 319
f 300 319 301
f 301 319 318
f 305 310 320
f 305 320 321
f 305 321 306
f 306 321 322
f 306 322 314
f 306 314 307
f 307 314 308
f 308 314 313
f 308 313 311
f 309 323 310
f 310 323 320
f 314 322 324
f 314 324 315
f 315 324 316
f 316 324 325
f 320 323 326
f 320 326 327
f 320 327 321
f 321 327 325
f 321 325 322
f 322 325 324
f 325 327 326

