# https://github.com/mikedh/trimesh
v -0.01089268 0.00682323 -0.00258971
v -0.01079307 0.00682323 -0.00224620
v -0.01073095 0.00746876 -0.00224620
v -0.01084983 0.00726618 -0.00258971
v -0.00375513 0.00682323 -0.00258971
v -0.01076950 0.00682323 -0.00217701
v -0.01061527 0.00746876 -0.00190617
v -0.01077165 0.00746876 -0.00238701
v -0.01082948 0.00746876 -0.00258971
v -0.00375191 0.00746820 -0.00258971
v -0.00023776 0.00682323 -0.00166174
v -0.01062277 0.00682323 -0.00175701
v -0.01062920 0.00717658 -0.00186792
v -0.01053923 0.00746876 -0.00168956
v -0.00375727 0.00746876 -0.00258971
v -0.00040057 0.00746876 -0.00128868
v -0.00032773 0.00746876 -0.00125322
v -0.00026883 0.00746876 -0.00120280
v -0.00018207 0.00740115 -0.00117012
v 0.00004928 0.00682323 -0.00136204
v -0.01059813 0.00682323 -0.00168886
v -0.01056600 0.00688724 -0.00161515
v -0.01044283 0.00746876 -0.00146878
v -0.00025919 0.00746876 -0.00109641
v -0.00018207 0.00740115 -0.00115726
v -0.00012102 0.00717658 -0.00108841
v -0.00004069 0.00682323 -0.00100566
v -0.01056814 0.00682323 -0.00160785
v -0.01052959 0.00682323 -0.00152650
v -0.01047389 0.00682323 -0.00140933
v -0.01040213 0.00746876 -0.00138082
v -0.00025919 0.00746876 -0.00108772
v -0.00037807 0.00746876 -0.00092465
v -0.00056658 0.00746876 -0.00068336
v -0.00023884 0.00682323 -0.00078975
v -0.01043748 0.00682323 -0.00134153
v -0.01021898 0.00746876 -0.00103313
v -0.01028217 0.00746876 -0.00115274
v -0.01042784 0.00717658 -0.00138082
v -0.00080650 0.00746876 -0.00047301
v -0.00051624 0.00717658 -0.00063990
v -0.00045519 0.00682323 -0.00059436
v -0.01024683 0.00682323 -0.00098898
v -0.01023183 0.00717658 -0.00101262
v -0.01008295 0.00746876 -0.00081687
v -0.00102821 0.00746876 -0.00028144
v -0.00072296 0.00682323 -0.00037810
v -0.01022219 0.00682323 -0.00094934
v -0.01011187 0.00682323 -0.00077306
v -0.01009581 0.00717658 -0.00079671
v -0.00993729 0.00746876 -0.00062147
v -0.00124670 0.00746876 -0.00013889
v -0.00098858 0.00717658 -0.00025502
v -0.00093931 0.00682323 -0.00022512
v -0.01006689 0.00682323 -0.00071431
v -0.00985696 0.00746876 -0.00051717
v -0.00126813 0.00717658 -0.00007805
v -0.00159373 0.00746876 0.00007528
v -0.00126813 0.00682323 -0.00002867
v -0.00990409 0.00682323 -0.00050848
v -0.00970059 0.00732071 -0.00030578
v -0.00969309 0.00746876 -0.00031343
v -0.00181008 0.00746876 0.00018654
v -0.00156160 0.00717658 0.00009441
v -0.00152411 0.00682323 0.00011388
v -0.00986017 0.00682323 -0.00045424
v -0.00971237 0.00703226 -0.00029291
v -0.00958277 0.00746876 -0.00020773
v -0.00213354 0.00746876 0.00032701
v -0.00177795 0.00717658 0.00020010
v -0.00174046 0.00682323 0.00021505
v -0.00972094 0.00682323 -0.00028457
v -0.00948959 0.00746876 -0.00012116
v -0.00213354 0.00717658 0.00034995
v -0.00257910 0.00746876 0.00048868
v -0.00213354 0.00682323 0.00037533
v -0.00940604 0.00682323 0.00000262
v -0.00923896 0.00746876 0.00010692
v -0.00280403 0.00746876 0.00056100
v -0.00260267 0.00718170 0.00051163
v -0.00254697 0.00682323 0.00051267
v -0.00931072 0.00682323 0.00008815
v -0.00926466 0.00685590 0.00012709
v -0.00909222 0.00746876 0.00020671
v -0.00279332 0.00732937 0.00056378
v -0.00300860 0.00746876 0.00061350
v -0.00277189 0.00704091 0.00056969
v -0.00275690 0.00682323 0.00057386
v -0.00926573 0.00682323 0.00012813
v -0.00922289 0.00682323 0.00015629
v -0.00902260 0.00746876 0.00025295
v -0.00299253 0.00682323 0.00063227
v -0.00343274 0.00746876 0.00070807
v -0.00908258 0.00682323 0.00024773
v -0.00903439 0.00717658 0.00025990
v -0.00877198 0.00746876 0.00039932
v -0.00343274 0.00682323 0.00072754
v -0.00357305 0.00746876 0.00073101
v -0.00867558 0.00682323 0.00048451
v -0.00866166 0.00717658 0.00047651
v -0.00864988 0.00746876 0.00046956
v -0.00386545 0.00746876 0.00077865
v -0.00386545 0.00717658 0.00078699
v -0.00386545 0.00682323 0.00079638
v -0.00863595 0.00682323 0.00050433
v -0.00850421 0.00746876 0.00054361
v -0.00400576 0.00746876 0.00079638
v -0.00421890 0.00682323 0.00084088
v -0.00845923 0.00682323 0.00058951
v -0.00844530 0.00717658 0.00058360
v -0.00843352 0.00746876 0.00057838
v -0.00429816 0.00746876 0.00083219
v -0.00429816 0.00717658 0.00084088
v -0.00429816 0.00682323 0.00085062
v -0.00819146 0.00682323 0.00068721
v -0.00819146 0.00717658 0.00067643
v -0.00827393 0.00746876 0.00063714
v -0.00443846 0.00746876 0.00084645
v -0.00473086 0.00717658 0.00088434
v -0.00473086 0.00682323 0.00089443
v -0.00465161 0.00682323 0.00088643
v -0.00811220 0.00682323 0.00071085
v -0.00790013 0.00746876 0.00075535
v -0.00819146 0.00746876 0.00066704
v -0.00473086 0.00746876 0.00087565
v -0.00516357 0.00746876 0.00091042
v -0.00508431 0.00682323 0.00092120
v -0.00516357 0.00717658 0.00091807
v -0.00775875 0.00682323 0.00081307
v -0.00775875 0.00746876 0.00079707
v -0.00559521 0.00746876 0.00093476
v -0.00516357 0.00682323 0.00092711
v -0.00767949 0.00682323 0.00082767
v -0.00732604 0.00746876 0.00087878
v -0.00746742 0.00746876 0.00085236
v -0.00602792 0.00746876 0.00094832
v -0.00559521 0.00682323 0.00094971
v -0.00732604 0.00682323 0.00089234
v -0.00703364 0.00746876 0.00090972
v -0.00646063 0.00746876 0.00094727
v -0.00602792 0.00682323 0.00096222
v -0.00724679 0.00682323 0.00090068
v -0.00689334 0.00746876 0.00092433
v -0.00646063 0.00717658 0.00095318
v -0.00646063 0.00682323 0.00096014
v -0.00689334 0.00682323 0.00093719
v -0.00689334 0.00717658 0.00093024
f 1 2 3
f 1 3 4
f 1 4 9
f 1 9 15
f 1 15 10
f 1 10 5
f 1 5 11
f 1 11 20
f 1 20 27
f 1 27 35
f 1 35 42
f 1 42 47
f 1 47 54
f 1 54 59
f 1 59 65
f 1 65 71
f 1 71 76
f 1 76 81
f 1 81 88
f 1 88 92
f 1 92 97
f 1 97 104
f 1 104 108
f 1 108 114
f 1 114 121
f 1 121 120
f 1 120 127
f 1 127 132
f 1 132 137
f 1 137 141
f 1 141 145
f 1 145 146
f 1 146 142
f 1 142 138
f 1 138 133
f 1 133 129
f 1 129 122
f 1 122 115
f 1 115 109
f 1 109 105
f 1 105 99
f 1 99 94
f 1 94 90
f 1 90 89
f 1 89 82
f 1 82 77
f 1 77 72
f 1 72 66
f 1 66 60
f 1 60 55
f 1 55 49
f 1 49 48
f 1 48 43
f 1 43 36
f 1 36 30
f 1 30 29
f 1 29 28
f 1 28 21
f 1 21 12
f 1 12 6
f 1 6 2
f 2 6 7
f 2 7 3
f 3 7 14
f 3 14 23
f 3 23 31
f 3 31 38
f 3 38 37
f 3 37 45
f 3 45 51
f 3 51 56
f 3 56 62
f 3 62 68
f 3 68 73
f 3 73 78
f 3 78 84
f 3 84 91
f 3 91 96
f 3 96 101
f 3 101 106
f 3 106 111
f 3 111 117
f 3 117 124
f 3 124 123
f 3 123 130
f 3 130 135
f 3 135 134
f 3 134 139
f 3 139 143
f 3 143 140
f 3 140 136
f 3 136 131
f 3 131 126
f 3 126 125
f 3 125 118
f 3 118 112
f 3 112 107
f 3 107 102
f 3 102 98
f 3 98 93
f 3 93 86
f 3 86 79
f 3 79 75
f 3 75 69
f 3 69 63
f 3 63 58
f 3 58 52
f 3 52 46
f 3 46 40
f 3 40 34
f 3 34 33
f 3 33 32
f 3 32 24
f 3 24 18
f 3 18 17
f 3 17 16
f 3 16 15
f 3 15 9
f 3 9 8
f 3 8 4
f 4 8 9
f 5 10 11
f 6 12 13
f 6 13 7
f 7 13 14
f 10 15 16
f 10 16 11
f 11 16 17
f 11 17 18
f 11 18 19
f 11 19 20
f 12 21 22
f 12 22 14
f 12 14 13
f 14 22 23
f 18 24 19
f 19 25 20
f 19 24 32
f 19 32 25
f 20 25 26
f 20 26 27
f 21 28 22
f 22 29 30
f 22 30 31
f 22 31 23
f 22 28 29
f 25 32 26
f 26 32 33
f 26 33 34
f 26 34 27
f 27 34 35
f 30 36 37
f 30 37 38
f 30 38 39
f 30 39 31
f 31 39 38
f 34 40 41
f 34 41 35
f 35 41 42
f 36 43 44
f 36 44 37
f 37 44 45
f 40 46 41
f 41 46 42
f 42 46 47
f 43 48 44
f 44 48 49
f 44 49 45
f 45 49 50
f 45 50 51
f 46 52 53
f 46 53 47
f 47 53 54
f 49 55 51
f 49 51 50
f 51 55 56
f 52 57 54
f 52 54 53
f 52 58 57
f 54 57 59
f 55 60 56
f 56 60 61
f 56 61 62
f 57 58 59
f 58 63 64
f 58 64 59
f 59 64 65
f 60 66 61
f 61 66 67
f 61 67 68
f 61 68 62
f 63 69 70
f 63 70 65
f 63 65 64
f 65 70 71
f 66 72 67
f 67 72 73
f 67 73 68
f 69 74 71
f 69 71 70
f 69 75 74
f 71 74 76
f 72 77 73
f 73 77 78
f 74 75 76
f 75 79 80
f 75 80 81
f 75 81 76
f 77 82 78
f 78 83 84
f 78 82 83
f 79 85 81
f 79 81 80
f 79 86 85
f 81 85 87
f 81 87 88
f 82 89 83
f 83 90 91
f 83 91 84
f 83 89 90
f 85 86 87
f 86 92 88
f 86 88 87
f 86 93 92
f 90 94 91
f 91 94 95
f 91 95 96
f 92 93 97
f 93 98 97
f 94 99 95
f 95 99 96
f 96 99 100
f 96 100 101
f 97 98 102
f 97 102 103
f 97 103 104
f 99 105 106
f 99 106 100
f 100 106 101
f 102 107 103
f 103 107 108
f 103 108 104
f 105 109 110
f 105 110 111
f 105 111 106
f 107 112 113
f 107 113 108
f 108 113 114
f 109 115 116
f 109 116 110
f 110 116 117
f 110 117 111
f 112 118 113
f 113 118 119
f 113 119 120
f 113 120 121
f 113 121 114
f 115 122 123
f 115 123 116
f 116 123 124
f 116 124 117
f 118 125 119
f 119 125 126
f 119 126 120
f 120 126 128
f 120 128 127
f 122 129 130
f 122 130 123
f 126 131 128
f 127 128 132
f 128 131 132
f 129 133 134
f 129 134 135
f 129 135 130
f 131 136 137
f 131 137 132
f 133 138 134
f 134 138 139
f 136 140 141
f 136 141 137
f 138 142 139
f 139 142 143
f 140 144 141
f 140 143 147
f 140 147 144
f 141 144 145
f 142 146 147
f 142 147 143
f 144 147 146
f 144 146 145

