# https://github.com/mikedh/trimesh
v 0.00098980 0.01308563 -0.00207772
v 0.00087920 0.01308563 -0.00181650
v -0.00081937 0.01043342 -0.00139628
v -0.00062961 0.01043342 -0.00184631
v 0.00098980 0.01304357 -0.00213877
v 0.00098980 0.01308563 -0.01063549
v 0.00080353 0.01308563 -0.00165892
v -0.00088690 0.01043342 -0.00125573
v -0.00049805 0.01043342 -0.00223814
v 0.00098980 0.01290623 -0.00235456
v 0.00098980 0.01297841 -0.00223388
v 0.00098980 0.01298048 -0.01048217
v -0.00082054 0.01043342 -0.01131977
v 0.00093508 0.01308563 -0.01076610
v 0.00072320 0.01308563 -0.00150701
v -0.00099168 0.01043342 -0.00106692
v -0.00043635 0.01043342 -0.00245251
v 0.00098980 0.01275644 -0.00264985
v 0.00098980 0.01277643 -0.00261010
v -0.00050504 0.01043342 -0.01047507
v -0.00057023 0.01043342 -0.01066246
v -0.00067501 0.01043342 -0.01094640
v -0.00072274 0.01043342 -0.01107275
v 0.00098980 0.01280161 -0.01014854
v 0.00072203 0.01308563 -0.01120762
v 0.00069759 0.01298931 -0.01115083
v 0.00087804 0.01308563 -0.01089955
v -0.00099284 0.01043342 -0.01165055
v 0.00065684 0.01308563 -0.00139202
v -0.00105105 0.01043342 -0.00096328
v -0.00037465 0.01043342 -0.00268676
v 0.00098980 0.01260534 -0.00300193
v 0.00098980 0.01275800 -0.01006620
v -0.00037930 0.01043342 -0.01002787
v -0.00112207 0.01043342 -0.01186634
v 0.00063821 0.01308563 -0.01134675
v 0.00059397 0.01308563 -0.00128696
v -0.00112207 0.01043342 -0.00084971
v -0.00030014 0.01043342 -0.00311266
v 0.00098980 0.01239921 -0.00353572
v 0.00098980 0.01249968 -0.00326031
v 0.00098980 0.01256484 -0.00309988
v 0.00098980 0.01256484 -0.00961617
v 0.00098980 0.01239765 -0.00917465
v 0.00098980 0.01239506 -0.00916755
v -0.00033506 0.01043342 -0.00980640
v -0.00135374 0.01043342 -0.01218577
v 0.00058931 0.01308563 -0.01142625
v 0.00056254 0.01308563 -0.00124012
v -0.00122568 0.01043342 -0.00069922
v -0.00015927 0.01043342 -0.00399569
v 0.00098980 0.01228083 -0.00396020
v 0.00098980 0.01227797 -0.00873739
v -0.00030130 0.01043342 -0.00960339
v -0.00151906 0.01043342 -0.01237884
v 0.00020396 0.01308563 -0.01192739
v 0.00020862 0.01308563 -0.01192171
v 0.00038907 0.01308563 -0.01170024
v 0.00039373 0.01308563 -0.00101013
v -0.00135374 0.01043342 -0.00053028
v -0.00008243 0.01043342 -0.00484324
v 0.00098980 0.01220995 -0.00441166
v 0.00098980 0.01227667 -0.00397866
v 0.00098980 0.01227356 -0.00871610
v -0.00014181 0.01043342 -0.00844068
v -0.00027685 0.01043342 -0.00944297
v -0.00023494 0.01308563 -0.01237601
v -0.00001258 0.01308563 -0.01216306
v -0.00171348 0.01043342 -0.01256056
v 0.00034716 0.01308563 -0.00095050
v -0.00144222 0.01043342 -0.00042097
v -0.00005449 0.01043342 -0.00527624
v 0.00098980 0.01216400 -0.00483614
v 0.00098980 0.01220865 -0.00829871
v -0.00009640 0.01043342 -0.00805879
v -0.00012551 0.01043342 -0.00830439
v -0.00199755 0.01043342 -0.01279197
v -0.00043868 0.01308563 -0.01253927
v 0.00020513 0.01308563 -0.00078014
v -0.00151906 0.01043342 -0.00033721
v -0.00000559 0.01308563 -0.00054164
v -0.00003353 0.01043342 -0.00572343
v 0.00098980 0.01206717 -0.00593922
v 0.00098980 0.01210066 -0.00553746
v 0.00098980 0.01219827 -0.00821921
v -0.00006380 0.01043342 -0.00765560
v -0.00074836 0.01308563 -0.01277351
v -0.00221409 0.01043342 -0.01293110
v -0.00007195 0.01308563 -0.00047065
v -0.00021166 0.01308563 -0.00032159
v -0.00171232 0.01043342 -0.00015407
v -0.00002655 0.01043342 -0.00596620
v 0.00098980 0.01205496 -0.00614224
v 0.00098980 0.01216296 -0.00787139
v 0.00098980 0.01215024 -0.00773369
v 0.00098980 0.01212480 -0.00743981
v -0.00004285 0.01043342 -0.00725810
v -0.00095675 0.01308563 -0.01289561
v -0.00256684 0.01043342 -0.01310997
v -0.00042121 0.01308563 -0.00016543
v -0.00199871 0.01043342 0.00007734
v -0.00184504 0.01043342 -0.00004617
v -0.00002422 0.01043342 -0.00614224
v -0.00002306 0.01043342 -0.00636796
v 0.00098980 0.01205444 -0.00657382
v -0.00003121 0.01043342 -0.00701249
v -0.00126061 0.01308563 -0.01303189
v -0.00291145 0.01043342 -0.01324484
v -0.00052832 0.01308563 -0.00009018
v -0.00074836 0.01308563 0.00006172
v -0.00210116 0.01043342 0.00014264
v -0.00002306 0.01043342 -0.00657382
v -0.00170766 0.01308563 -0.01320509
v -0.00312799 0.01043342 -0.01330589
v -0.00193934 0.01305629 -0.01327608
v -0.00189743 0.01308563 -0.01326756
v -0.00084615 0.01308563 0.00012135
v -0.00221525 0.01043342 0.00021505
v -0.00196961 0.01308563 -0.01328743
v -0.00329564 0.01043342 -0.01334280
v -0.00214307 0.01308563 -0.01332718
v -0.00095675 0.01308563 0.00017955
v -0.00256684 0.01043342 0.00039250
v -0.00343185 0.01043342 -0.01337261
v -0.00256684 0.01308563 -0.01340953
v -0.00102427 0.01308563 0.00021221
v -0.00126061 0.01308563 0.00031584
v -0.00141894 0.01308563 0.00038257
v -0.00291727 0.01043342 0.00052737
v -0.00386493 0.01043342 -0.01344928
v -0.00299993 0.01308563 -0.01347199
v -0.00170883 0.01308563 0.00048904
v -0.00180429 0.01308563 0.00052311
v -0.00188811 0.01308563 0.00055151
v -0.00192770 0.01308563 0.00056428
v -0.00313381 0.01043342 0.00058842
v -0.00429802 0.01043342 -0.01349896
v -0.00343185 0.01308563 -0.01351600
v -0.00197194 0.01308563 0.00057422
v -0.00343185 0.01043342 0.00065372
v -0.00473110 0.01043342 -0.01353162
v -0.00516186 0.01043342 -0.01356285
v -0.00559494 0.01043342 -0.01358982
v -0.00386493 0.01308563 -0.01354155
v -0.00224552 0.01308563 0.00063385
v -0.00363791 0.01043342 0.00069205
v -0.00582196 0.01043342 -0.01359976
v -0.00429802 0.01308563 -0.01355149
v -0.00602803 0.01043342 -0.01360828
v -0.00256684 0.01308563 0.00069205
v -0.00386493 0.01043342 0.00073181
v -0.00559494 0.01308563 -0.01357705
v -0.00646111 0.01043342 -0.01360970
v -0.00602803 0.01308563 -0.01358415
v -0.00271703 0.01308563 0.00071761
v -0.00407100 0.01043342 0.00075878
v -0.00689303 0.01043342 -0.01358556
v -0.00689303 0.01063903 -0.01358273
v -0.00646111 0.01280265 -0.01357421
v -0.00646111 0.01308563 -0.01356995
v -0.00299993 0.01308563 0.00075452
v -0.00315011 0.01308563 0.00077156
v -0.00429802 0.01043342 0.00078291
v -0.00732611 0.01043342 -0.01353446
v -0.00689303 0.01193710 -0.01355859
v -0.00689303 0.01280265 -0.01354155
v -0.00689303 0.01308563 -0.01353588
v -0.00343185 0.01308563 0.00079995
v -0.00450292 0.01043342 0.00079995
v -0.00775920 0.01043342 -0.01343934
v -0.00732611 0.01063903 -0.01353020
v -0.00732611 0.01150458 -0.01351174
v -0.00732611 0.01193710 -0.01350180
v -0.00732611 0.01280265 -0.01347625
v -0.00732611 0.01308563 -0.01346631
v -0.00358203 0.01308563 0.00080847
v -0.00536792 0.01043342 0.00085958
v -0.00516186 0.01043342 0.00084538
v -0.00808867 0.01043342 -0.01332860
v -0.00775920 0.01150458 -0.01340385
v -0.00775920 0.01193710 -0.01338823
v -0.00772311 0.01308563 -0.01334990
v -0.00386493 0.01308563 0.00082408
v -0.00559494 0.01043342 0.00087235
v -0.00820276 0.01043342 -0.01328034
v -0.00807936 0.01063903 -0.01332435
v -0.00803395 0.01150458 -0.01330731
v -0.00801183 0.01193710 -0.01329737
v -0.00799204 0.01227641 -0.01328885
v -0.00795828 0.01280265 -0.01327466
v -0.00793849 0.01308563 -0.01326756
v -0.00444820 0.01308563 0.00083828
v -0.00602803 0.01043342 0.00089081
v -0.00830521 0.01043342 -0.01323633
v -0.00829473 0.01063903 -0.01323207
v -0.00825049 0.01150458 -0.01320935
v -0.00822721 0.01193710 -0.01319658
v -0.00815852 0.01240051 -0.01320083
v -0.00819228 0.01280265 -0.01315682
v -0.00819228 0.01308563 -0.01313411
v -0.00559494 0.01308563 0.00086100
v -0.00574512 0.01308563 0.00086384
v -0.00602803 0.01280265 0.00086951
v -0.00623293 0.01043342 0.00089223
v -0.00862420 0.01043342 -0.01306029
v -0.00862420 0.01063903 -0.01304893
v -0.00859976 0.01193710 -0.01298079
v -0.00857414 0.01236987 -0.01296517
v -0.00854387 0.01280265 -0.01294671
v -0.00852059 0.01308563 -0.01293252
v -0.00602803 0.01308563 0.00086667
v -0.00646111 0.01043342 0.00089365
v -0.00889314 0.01043342 -0.01288851
v -0.00888382 0.01063903 -0.01288141
v -0.00886287 0.01107181 -0.01286579
v -0.00884889 0.01135946 -0.01285443
v -0.00883260 0.01164815 -0.01284308
v -0.00879068 0.01236987 -0.01280901
v -0.00875925 0.01280265 -0.01278203
v -0.00873713 0.01308563 -0.01276074
v -0.00646111 0.01193710 0.00087377
v -0.00617821 0.01308563 0.00086241
v -0.00646111 0.01236987 0.00086667
v -0.00689303 0.01043342 0.00087235
v -0.00910968 0.01043342 -0.01270679
v -0.00910036 0.01063903 -0.01269685
v -0.00907941 0.01107181 -0.01267414
v -0.00931341 0.01107181 -0.01245835
v -0.00902353 0.01236987 -0.01259180
v -0.00899442 0.01280265 -0.01256624
v -0.00897114 0.01308563 -0.01254495
v -0.00689303 0.01150458 0.00085816
v -0.00646111 0.01308563 0.00085106
v -0.00646111 0.01280265 0.00085816
v -0.00709909 0.01043342 0.00084680
v -0.00923308 0.01043342 -0.01259322
v -0.00933437 0.01063903 -0.01248106
v -0.00927616 0.01174187 -0.01241860
v -0.00956022 0.01043342 -0.01223546
v -0.00955091 0.01063903 -0.01222268
v -0.00923890 0.01236987 -0.01237601
v -0.00920980 0.01280265 -0.01233910
v -0.00918768 0.01308563 -0.01230928
v -0.00689303 0.01193710 0.00084822
v -0.00732611 0.01150458 0.00079569
v -0.00732611 0.01107181 0.00080563
v -0.00732611 0.01043342 0.00081699
v -0.00689303 0.01308563 0.00081841
v -0.00934368 0.01043342 -0.01248958
v -0.00955790 0.01105260 -0.01216022
v -0.00971157 0.01089553 -0.01198986
v -0.00965103 0.01043342 -0.01212189
v -0.00972321 0.01063903 -0.01200689
v -0.00940771 0.01236987 -0.01215880
v -0.00937744 0.01280265 -0.01212331
v -0.00935416 0.01308563 -0.01209207
v -0.00704321 0.01308563 0.00079569
v -0.00732611 0.01280265 0.00075736
v -0.00775920 0.01043342 0.00071903
v -0.00753218 0.01043342 0.00077298
v -0.00988737 0.01043342 -0.01176697
v -0.00986874 0.01063903 -0.01176697
v -0.00980704 0.01105260 -0.01179820
v -0.00969411 0.01118396 -0.01196430
v -0.00973253 0.01043342 -0.01201967
v -0.00964987 0.01193710 -0.01189190
v -0.00962309 0.01236987 -0.01184647
v -0.00959399 0.01280265 -0.01179536
v -0.00957769 0.01308563 -0.01174425
v -0.00732611 0.01308563 0.00074884
v -0.00775920 0.01193710 0.00067076
v -0.00791986 0.01043342 0.00066650
v -0.01007830 0.01043342 -0.01142199
v -0.00980354 0.01150458 -0.01171728
v -0.01006898 0.01063903 -0.01140069
v -0.00977793 0.01193710 -0.01167469
v -0.00975115 0.01236987 -0.01163068
v -0.00972205 0.01280265 -0.01157957
v -0.00970691 0.01301995 -0.01155118
v -0.00965569 0.01308563 -0.01161648
v -0.00747630 0.01308563 0.00070625
v -0.00775920 0.01236987 0.00065372
v -0.00801300 0.01193710 0.00058416
v -0.00808518 0.01043342 0.00061113
v -0.01017842 0.01043342 -0.01120620
v -0.01016910 0.01063903 -0.01118490
v -0.01015280 0.01097030 -0.01114799
v -0.01006200 0.01109751 -0.01130841
v -0.01000146 0.01150458 -0.01133397
v -0.00995023 0.01193710 -0.01133397
v -0.00989668 0.01236987 -0.01133397
v -0.00984080 0.01280265 -0.01133397
v -0.00979190 0.01308563 -0.01134249
v -0.00973136 0.01308563 -0.01147310
v -0.00773592 0.01308563 0.00062817
v -0.00799204 0.01236987 0.00057422
v -0.00830055 0.01043342 0.00051744
v -0.00818763 0.01043342 0.00056854
v -0.01029018 0.01043342 -0.01090097
v -0.01021101 0.01109751 -0.01093930
v -0.01013651 0.01125899 -0.01110824
v -0.01027039 0.01063903 -0.01090097
v -0.01012137 0.01150458 -0.01106707
v -0.01009576 0.01193710 -0.01099041
v -0.01001776 0.01280265 -0.01090097
v -0.00997235 0.01308563 -0.01090097
v -0.00781857 0.01308563 0.00059836
v -0.00797807 0.01260768 0.00056712
v -0.00820858 0.01236987 0.00046065
v -0.00822954 0.01193710 0.00047343
v -0.00844841 0.01043342 0.00043793
v -0.01042872 0.01043342 -0.01046939
v -0.01036469 0.01107181 -0.01046939
v -0.01019472 0.01150458 -0.01084986
v -0.01016910 0.01193710 -0.01077462
v -0.01040893 0.01063903 -0.01046939
v -0.01015048 0.01224526 -0.01071925
v -0.01007946 0.01238156 -0.01087825
v -0.01013301 0.01253369 -0.01066246
v -0.01011555 0.01280265 -0.01060284
v -0.01009692 0.01308563 -0.01051198
v -0.00793965 0.01308563 0.00055151
v -0.00795479 0.01289611 0.00055861
v -0.00815037 0.01277227 0.00046349
v -0.00817831 0.01308563 0.00042374
v -0.00854387 0.01280265 0.00022782
v -0.00857298 0.01236987 0.00024344
v -0.00862420 0.01043342 0.00033998
v -0.01053816 0.01043342 -0.01008040
v -0.01048344 0.01107181 -0.01003639
v -0.01031579 0.01150458 -0.01046939
v -0.01019937 0.01238156 -0.01049920
v -0.01017725 0.01280265 -0.01038563
v -0.01015280 0.01308563 -0.01033168
v -0.00831336 0.01308563 0.00034282
v -0.00852059 0.01308563 0.00021505
v -0.00859626 0.01308563 0.00015968
v -0.00878952 0.01236987 0.00009295
v -0.00888149 0.01063903 0.00016394
v -0.00889197 0.01043342 0.00017104
v -0.01058705 0.01043342 -0.00988023
v -0.01058240 0.01052195 -0.00986177
v -0.01056726 0.01081038 -0.00979363
v -0.01043338 0.01150458 -0.01003639
v -0.01032627 0.01236987 -0.01003639
v -0.01027155 0.01280265 -0.01003639
v -0.01015746 0.01308563 -0.01031465
v -0.00873713 0.01308563 0.00004469
v -0.00876042 0.01280265 0.00006740
v -0.00898976 0.01280265 -0.00014839
v -0.00901770 0.01236987 -0.00012284
v -0.00933320 0.01063903 -0.00023641
v -0.00910851 0.01043342 -0.00000926
v -0.00899559 0.01043342 0.00008728
v -0.01063711 0.01043342 -0.00961759
v -0.01059287 0.01107181 -0.00950117
v -0.01055329 0.01107181 -0.00971696
v -0.01053117 0.01149108 -0.00958068
v -0.01047180 0.01193710 -0.00960339
v -0.01041824 0.01236987 -0.00960339
v -0.01022382 0.01308563 -0.01004917
v -0.01036353 0.01280265 -0.00960339
v -0.01028902 0.01308563 -0.00975388
v -0.00881746 0.01308563 -0.00002914
v -0.00896648 0.01308563 -0.00017110
v -0.00904215 0.01308563 -0.00025061
v -0.00920631 0.01280265 -0.00037980
v -0.00923425 0.01236987 -0.00034714
v -0.00934368 0.01043342 -0.00022647
v -0.00954975 0.01063903 -0.00049337
v -0.00956022 0.01043342 -0.00047917
v -0.00944613 0.01043342 -0.00034572
v -0.01068019 0.01043342 -0.00937624
v -0.01071628 0.01043342 -0.00917039
v -0.01064876 0.01107181 -0.00917039
v -0.01057774 0.01133791 -0.00942025
v -0.01056028 0.01162634 -0.00931662
v -0.01054398 0.01195138 -0.00917181
v -0.01049159 0.01236987 -0.00917039
v -0.01032045 0.01308563 -0.00960339
v -0.01043571 0.01280265 -0.00917039
v -0.01039379 0.01308563 -0.00917039
v -0.00918302 0.01308563 -0.00040819
v -0.00924356 0.01308563 -0.00048343
v -0.00937861 0.01280265 -0.00059559
v -0.00940655 0.01236987 -0.00056293
v -0.00971041 0.01088774 -0.00072761
v -0.00972321 0.01063903 -0.00070916
v -0.00973253 0.01043342 -0.00069638
v -0.01074888 0.01043342 -0.00894324
v -0.01075703 0.01063903 -0.00873739
v -0.01070813 0.01107181 -0.00873739
v -0.01060102 0.01149108 -0.00917181
v -0.01058356 0.01181638 -0.00902842
v -0.01056610 0.01210507 -0.00889072
v -0.01049275 0.01280265 -0.00873739
v -0.01043105 0.01308563 -0.00888788
v -0.00935649 0.01308563 -0.00062540
v -0.00962309 0.01236987 -0.00087242
v -0.00964754 0.01193710 -0.00082699
v -0.00967315 0.01150458 -0.00078440
v -0.00969294 0.01117643 -0.00075317
v -0.00980587 0.01104793 -0.00091785
v -0.00986874 0.01063903 -0.00094908
v -0.00988853 0.01043342 -0.00094908
v -0.00981169 0.01043342 -0.00082273
v -0.01077798 0.01043342 -0.00873739
v -0.01082571 0.01043342 -0.00830439
v -0.01065574 0.01150458 -0.00873739
v -0.01080243 0.01063903 -0.00830439
v -0.01075121 0.01107181 -0.00830439
v -0.01059986 0.01195138 -0.00874307
v -0.01054049 0.01277695 -0.00828452
v -0.01045084 0.01308563 -0.00873739
v -0.01047995 0.01308563 -0.00845488
v -0.00944730 0.01308563 -0.00076595
v -0.00961611 0.01283925 -0.00097038
v -0.00972554 0.01271931 -0.00112938
v -0.00974883 0.01236987 -0.00108821
v -0.00977560 0.01193710 -0.00104278
v -0.00980238 0.01150458 -0.00100019
v -0.01006898 0.01063903 -0.00131394
v -0.01007946 0.01043342 -0.00129264
v -0.00997352 0.01043342 -0.00110099
v -0.01085715 0.01043342 -0.00787139
v -0.01069765 0.01150458 -0.00830439
v -0.01083386 0.01063903 -0.00787139
v -0.01057541 0.01261547 -0.00812551
v -0.01049508 0.01308563 -0.00829871
v -0.00956837 0.01308563 -0.00095760
v -0.00970459 0.01300800 -0.00116913
v -0.00981053 0.01283925 -0.00134091
v -0.00989202 0.01236987 -0.00138208
v -0.00999913 0.01150458 -0.00138208
v -0.01006083 0.01109336 -0.00140764
v -0.01015280 0.01096355 -0.00156806
v -0.01016910 0.01063903 -0.00152973
v -0.01012719 0.01043342 -0.00139486
v -0.01086530 0.01043342 -0.00764425
v -0.01084900 0.01063903 -0.00743981
v -0.01082688 0.01107181 -0.00657382
v -0.01078031 0.01107181 -0.00787139
v -0.01061849 0.01236987 -0.00787139
v -0.01055446 0.01288079 -0.00787139
v -0.01052535 0.01308563 -0.00787139
v -0.00964754 0.01308563 -0.00109389
v -0.00969760 0.01308563 -0.00118333
v -0.00979656 0.01308563 -0.00139486
v -0.00986641 0.01308563 -0.00156238
v -0.01001310 0.01280265 -0.00181508
v -0.01013534 0.01125198 -0.00161065
v -0.01021101 0.01109336 -0.00177817
v -0.01027388 0.01063903 -0.00181508
v -0.01029484 0.01043342 -0.00181508
v -0.01024012 0.01043342 -0.00166460
v -0.01017958 0.01043342 -0.00150843
v -0.01088043 0.01043342 -0.00721267
v -0.01087927 0.01063903 -0.00657382
v -0.01088043 0.01063903 -0.00614224
v -0.01077333 0.01150458 -0.00614224
v -0.01077216 0.01150458 -0.00657382
v -0.01057308 0.01302202 -0.00680522
v -0.01056843 0.01298646 -0.00709341
v -0.01056260 0.01294258 -0.00743981
v -0.01054165 0.01308563 -0.00743981
v -0.00996886 0.01308563 -0.00181508
v -0.01009343 0.01193710 -0.00173416
v -0.01000379 0.01308563 -0.00192156
v -0.01011322 0.01280265 -0.00212315
v -0.01013068 0.01251422 -0.00206210
v -0.01014815 0.01222579 -0.00200390
v -0.01007597 0.01237013 -0.00184206
v -0.01036353 0.01107181 -0.00224666
v -0.01041242 0.01063903 -0.00224666
v -0.01043454 0.01043342 -0.00224666
v -0.01036120 0.01043342 -0.00201951
v -0.01089557 0.01043342 -0.00677967
v -0.01090255 0.01043342 -0.00657382
v -0.01090372 0.01043342 -0.00614224
v -0.01086530 0.01063903 -0.00570924
v -0.01081291 0.01107181 -0.00570924
v -0.01063595 0.01236987 -0.00527624
v -0.01059055 0.01272970 -0.00527624
v -0.01064992 0.01236987 -0.00570924
v -0.01059287 0.01282757 -0.00574189
v -0.01057308 0.01302280 -0.00590657
v -0.01060801 0.01280265 -0.00614224
v -0.01060801 0.01280265 -0.00657382
v -0.01057658 0.01304513 -0.00657382
v -0.01056028 0.01308563 -0.00686627
v -0.01009576 0.01308563 -0.00221117
v -0.01015513 0.01308563 -0.00240850
v -0.01017376 0.01280265 -0.00234036
v -0.01026806 0.01280265 -0.00267966
v -0.01042988 0.01150458 -0.00267966
v -0.01048344 0.01107181 -0.00267966
v -0.01047762 0.01043342 -0.00239573
v -0.01087345 0.01043342 -0.00527624
v -0.01083386 0.01063903 -0.00484324
v -0.01074306 0.01150458 -0.00527624
v -0.01072676 0.01150458 -0.00484324
v -0.01067320 0.01193710 -0.00484324
v -0.01058240 0.01266454 -0.00484324
v -0.01055446 0.01288105 -0.00484324
v -0.01056260 0.01294596 -0.00527624
v -0.01056843 0.01298827 -0.00561838
v -0.01056493 0.01308563 -0.00596904
v -0.01057658 0.01304591 -0.00614224
v -0.01054863 0.01308563 -0.00548351
v -0.01056959 0.01308563 -0.00657382
v -0.01022266 0.01308563 -0.00266830
v -0.01032161 0.01308563 -0.00311266
v -0.01036353 0.01280265 -0.00311266
v -0.01055446 0.01107181 -0.00299625
v -0.01056843 0.01082050 -0.00291817
v -0.01054049 0.01043342 -0.00262713
v -0.01058356 0.01053207 -0.00284718
v -0.01058938 0.01043342 -0.00282589
v -0.01053233 0.01066136 -0.00269386
v -0.01085715 0.01043342 -0.00484324
v -0.01084085 0.01043342 -0.00461609
v -0.01080243 0.01063903 -0.00441166
v -0.01075121 0.01107181 -0.00441166
v -0.01057541 0.01261287 -0.00459338
v -0.01052419 0.01308563 -0.00484324
v -0.01053350 0.01308563 -0.00506897
v -0.01050672 0.01308563 -0.00459480
v -0.01056959 0.01308563 -0.00614224
v -0.01039379 0.01308563 -0.00354566
v -0.01057774 0.01133454 -0.00329580
v -0.01053001 0.01148901 -0.00313679
v -0.01043571 0.01280265 -0.00354566
v -0.01060102 0.01148901 -0.00354708
v -0.01059287 0.01107181 -0.00321204
v -0.01061499 0.01066136 -0.00308285
v -0.01064177 0.01043342 -0.00309704
v -0.01060917 0.01043342 -0.00292810
v -0.01056726 0.01043342 -0.00273503
v -0.01082571 0.01043342 -0.00441166
v -0.01070813 0.01107181 -0.00397866
v -0.01065574 0.01150458 -0.00397866
v -0.01064294 0.01193710 -0.00441166
v -0.01059171 0.01236235 -0.00443437
v -0.01058007 0.01221307 -0.00411637
v -0.01054747 0.01236235 -0.00397440
v -0.01053932 0.01277539 -0.00443437
v -0.01049275 0.01308563 -0.00441876
v -0.01041359 0.01308563 -0.00369614
v -0.01064992 0.01107181 -0.00354566
v -0.01049159 0.01280265 -0.00397866
v -0.01056610 0.01210351 -0.00382817
v -0.01058356 0.01181508 -0.00369189
v -0.01071977 0.01043342 -0.00354566
v -0.01077915 0.01043342 -0.00397866
v -0.01075703 0.01063903 -0.00397866
v -0.01046481 0.01308563 -0.00412630
v -0.01044968 0.01308563 -0.00397866
f 1 2 3
f 1 3 4
f 1 4 5
f 1 5 11
f 1 11 10
f 1 10 19
f 1 19 18
f 1 18 32
f 1 32 42
f 1 42 41
f 1 41 40
f 1 40 52
f 1 52 63
f 1 63 62
f 1 62 73
f 1 73 84
f 1 84 83
f 1 83 93
f 1 93 105
f 1 105 96
f 1 96 95
f 1 95 94
f 1 94 85
f 1 85 74
f 1 74 64
f 1 64 53
f 1 53 45
f 1 45 44
f 1 44 43
f 1 43 33
f 1 33 24
f 1 24 12
f 1 12 6
f 1 6 14
f 1 14 27
f 1 27 25
f 1 25 36
f 1 36 48
f 1 48 58
f 1 58 57
f 1 57 56
f 1 56 68
f 1 68 67
f 1 67 78
f 1 78 87
f 1 87 98
f 1 98 107
f 1 107 113
f 1 113 116
f 1 116 119
f 1 119 121
f 1 121 125
f 1 125 131
f 1 131 138
f 1 138 144
f 1 144 148
f 1 148 152
f 1 152 154
f 1 154 160
f 1 160 167
f 1 167 175
f 1 175 182
f 1 182 191
f 1 191 200
f 1 200 210
f 1 210 220
f 1 220 231
f 1 231 243
f 1 243 256
f 1 256 269
f 1 269 280
f 1 280 294
f 1 294 293
f 1 293 306
f 1 306 321
f 1 321 334
f 1 334 347
f 1 347 361
f 1 361 363
f 1 363 380
f 1 380 382
f 1 382 397
f 1 397 414
f 1 414 415
f 1 415 429
f 1 429 445
f 1 445 465
f 1 465 490
f 1 490 510
f 1 510 528
f 1 528 507
f 1 507 509
f 1 509 526
f 1 526 525
f 1 525 527
f 1 527 547
f 1 547 556
f 1 556 557
f 1 557 548
f 1 548 529
f 1 529 512
f 1 512 511
f 1 511 492
f 1 492 491
f 1 491 468
f 1 468 466
f 1 466 449
f 1 449 448
f 1 448 447
f 1 447 446
f 1 446 430
f 1 430 416
f 1 416 398
f 1 398 384
f 1 384 383
f 1 383 366
f 1 366 365
f 1 365 364
f 1 364 348
f 1 348 337
f 1 337 336
f 1 336 335
f 1 335 325
f 1 325 322
f 1 322 307
f 1 307 295
f 1 295 281
f 1 281 270
f 1 270 257
f 1 257 248
f 1 248 233
f 1 233 222
f 1 222 211
f 1 211 202
f 1 202 201
f 1 201 192
f 1 192 183
f 1 183 176
f 1 176 168
f 1 168 162
f 1 162 161
f 1 161 155
f 1 155 150
f 1 150 145
f 1 145 139
f 1 139 135
f 1 135 134
f 1 134 133
f 1 133 132
f 1 132 128
f 1 128 127
f 1 127 126
f 1 126 122
f 1 122 117
f 1 117 110
f 1 110 109
f 1 109 100
f 1 100 90
f 1 90 89
f 1 89 81
f 1 81 79
f 1 79 70
f 1 70 59
f 1 59 49
f 1 49 37
f 1 37 29
f 1 29 15
f 1 15 7
f 1 7 2
f 2 7 3
f 3 7 8
f 3 8 16
f 3 16 30
f 3 30 38
f 3 38 50
f 3 50 60
f 3 60 71
f 3 71 80
f 3 80 91
f 3 91 102
f 3 102 101
f 3 101 111
f 3 111 118
f 3 118 123
f 3 123 129
f 3 129 136
f 3 136 140
f 3 140 146
f 3 146 151
f 3 151 156
f 3 156 163
f 3 163 169
f 3 169 178
f 3 178 177
f 3 177 184
f 3 184 193
f 3 193 204
f 3 204 212
f 3 212 224
f 3 224 235
f 3 235 247
f 3 247 260
f 3 260 259
f 3 259 272
f 3 272 284
f 3 284 298
f 3 298 297
f 3 297 311
f 3 311 328
f 3 328 340
f 3 340 354
f 3 354 353
f 3 353 369
f 3 369 372
f 3 372 371
f 3 371 389
f 3 389 406
f 3 406 405
f 3 405 424
f 3 424 423
f 3 423 438
f 3 438 456
f 3 456 455
f 3 455 454
f 3 454 476
f 3 476 475
f 3 475 497
f 3 497 516
f 3 516 538
f 3 538 518
f 3 518 537
f 3 537 536
f 3 536 553
f 3 553 554
f 3 554 539
f 3 539 521
f 3 521 520
f 3 520 498
f 3 498 479
f 3 479 478
f 3 478 477
f 3 477 457
f 3 457 439
f 3 439 425
f 3 425 408
f 3 408 407
f 3 407 390
f 3 390 374
f 3 374 373
f 3 373 355
f 3 355 341
f 3 341 329
f 3 329 312
f 3 312 299
f 3 299 285
f 3 285 273
f 3 273 261
f 3 261 265
f 3 265 252
f 3 252 239
f 3 239 249
f 3 249 236
f 3 236 225
f 3 225 213
f 3 213 205
f 3 205 194
f 3 194 185
f 3 185 179
f 3 179 170
f 3 170 164
f 3 164 157
f 3 157 153
f 3 153 149
f 3 149 147
f 3 147 143
f 3 143 142
f 3 142 141
f 3 141 137
f 3 137 130
f 3 130 124
f 3 124 120
f 3 120 114
f 3 114 108
f 3 108 99
f 3 99 88
f 3 88 77
f 3 77 69
f 3 69 55
f 3 55 47
f 3 47 35
f 3 35 28
f 3 28 13
f 3 13 23
f 3 23 22
f 3 22 21
f 3 21 20
f 3 20 34
f 3 34 46
f 3 46 54
f 3 54 66
f 3 66 65
f 3 65 76
f 3 76 75
f 3 75 86
f 3 86 97
f 3 97 106
f 3 106 112
f 3 112 104
f 3 104 103
f 3 103 92
f 3 92 82
f 3 82 72
f 3 72 61
f 3 61 51
f 3 51 39
f 3 39 31
f 3 31 17
f 3 17 9
f 3 9 4
f 4 9 10
f 4 10 11
f 4 11 5
f 6 12 13
f 6 13 14
f 7 15 8
f 8 15 16
f 9 17 18
f 9 18 19
f 9 19 10
f 12 20 21
f 12 21 22
f 12 22 23
f 12 23 13
f 12 24 20
f 13 25 26
f 13 26 27
f 13 27 14
f 13 28 25
f 15 29 30
f 15 30 16
f 17 31 18
f 18 31 32
f 20 24 33
f 20 33 34
f 25 28 35
f 25 35 36
f 25 27 26
f 29 37 30
f 30 37 38
f 31 39 40
f 31 40 41
f 31 41 42
f 31 42 32
f 33 43 34
f 34 43 44
f 34 44 45
f 34 45 46
f 35 47 48
f 35 48 36
f 37 49 38
f 38 49 50
f 39 51 52
f 39 52 40
f 45 53 46
f 46 53 54
f 47 55 56
f 47 56 57
f 47 57 58
f 47 58 48
f 49 59 50
f 50 59 60
f 51 61 62
f 51 62 63
f 51 63 52
f 53 64 65
f 53 65 66
f 53 66 54
f 55 67 68
f 55 68 56
f 55 69 67
f 59 70 60
f 60 70 71
f 61 72 73
f 61 73 62
f 64 74 75
f 64 75 76
f 64 76 65
f 67 69 77
f 67 77 78
f 70 79 71
f 71 79 81
f 71 81 80
f 72 82 83
f 72 83 84
f 72 84 73
f 74 85 75
f 75 85 86
f 77 87 78
f 77 88 87
f 80 81 89
f 80 89 90
f 80 90 91
f 82 92 93
f 82 93 83
f 85 94 86
f 86 94 95
f 86 95 96
f 86 96 97
f 87 88 98
f 88 99 98
f 90 100 101
f 90 101 102
f 90 102 91
f 92 103 93
f 93 103 104
f 93 104 105
f 96 105 97
f 97 105 106
f 98 99 107
f 99 108 107
f 100 109 101
f 101 109 110
f 101 110 111
f 104 112 105
f 105 112 106
f 107 108 113
f 108 114 115
f 108 115 116
f 108 116 113
f 110 117 118
f 110 118 111
f 114 119 115
f 114 120 121
f 114 121 119
f 115 119 116
f 117 122 118
f 118 122 123
f 120 124 121
f 121 124 125
f 122 126 123
f 123 126 127
f 123 127 128
f 123 128 129
f 124 130 125
f 125 130 131
f 128 132 129
f 129 132 133
f 129 133 134
f 129 134 135
f 129 135 136
f 130 137 131
f 131 137 138
f 135 139 136
f 136 139 140
f 137 141 138
f 138 141 142
f 138 142 143
f 138 143 144
f 139 145 140
f 140 145 146
f 143 147 144
f 144 147 149
f 144 149 148
f 145 150 146
f 146 150 151
f 148 149 152
f 149 153 154
f 149 154 152
f 150 155 151
f 151 155 156
f 153 157 158
f 153 158 159
f 153 159 154
f 154 159 160
f 155 161 156
f 156 161 162
f 156 162 163
f 157 164 158
f 158 160 159
f 158 164 165
f 158 165 160
f 160 165 166
f 160 166 167
f 162 168 163
f 163 168 169
f 164 170 171
f 164 171 167
f 164 167 166
f 164 166 165
f 167 171 172
f 167 172 173
f 167 173 174
f 167 174 175
f 168 176 177
f 168 177 178
f 168 178 169
f 170 179 180
f 170 180 174
f 170 174 173
f 170 173 172
f 170 172 171
f 174 180 175
f 175 180 181
f 175 181 182
f 176 183 184
f 176 184 177
f 179 185 186
f 179 186 181
f 179 181 180
f 181 186 187
f 181 187 188
f 181 188 182
f 182 188 189
f 182 189 190
f 182 190 191
f 183 192 193
f 183 193 184
f 185 194 187
f 185 187 186
f 187 194 195
f 187 195 188
f 188 195 196
f 188 196 189
f 189 196 197
f 189 197 190
f 190 197 191
f 191 197 198
f 191 198 199
f 191 199 200
f 192 201 193
f 193 201 202
f 193 202 203
f 193 203 204
f 194 205 195
f 195 205 196
f 196 205 206
f 196 206 197
f 197 206 207
f 197 207 199
f 197 199 198
f 199 207 208
f 199 208 200
f 200 208 209
f 200 209 210
f 202 211 203
f 203 211 212
f 203 212 204
f 205 213 206
f 206 213 214
f 206 214 207
f 207 214 215
f 207 215 216
f 207 216 208
f 208 216 217
f 208 217 218
f 208 218 209
f 209 218 210
f 210 218 219
f 210 219 220
f 211 221 212
f 211 222 223
f 211 223 221
f 212 221 224
f 213 225 214
f 214 225 215
f 215 225 216
f 216 225 226
f 216 226 217
f 217 226 227
f 217 227 218
f 218 227 228
f 218 228 229
f 218 229 230
f 218 230 219
f 219 230 220
f 220 230 231
f 221 223 232
f 221 232 224
f 222 233 234
f 222 234 223
f 223 234 232
f 224 232 235
f 225 236 226
f 226 236 237
f 226 237 228
f 226 228 227
f 228 238 229
f 228 237 239
f 228 239 240
f 228 240 238
f 229 238 230
f 230 238 241
f 230 241 242
f 230 242 231
f 231 242 243
f 232 234 244
f 232 244 245
f 232 245 246
f 232 246 247
f 232 247 235
f 233 244 234
f 233 248 244
f 236 249 237
f 237 249 239
f 238 240 250
f 238 250 251
f 238 251 241
f 239 252 240
f 240 252 253
f 240 253 251
f 240 251 250
f 241 251 254
f 241 254 242
f 242 254 255
f 242 255 243
f 243 255 256
f 244 248 245
f 245 248 257
f 245 257 258
f 245 258 259
f 245 259 260
f 245 260 246
f 246 260 247
f 251 253 261
f 251 261 262
f 251 262 263
f 251 263 264
f 251 264 254
f 252 265 253
f 253 265 261
f 254 264 266
f 254 266 255
f 255 266 267
f 255 267 268
f 255 268 256
f 256 268 269
f 257 270 258
f 258 270 259
f 259 270 271
f 259 271 272
f 261 273 262
f 262 274 263
f 262 273 275
f 262 275 274
f 263 274 264
f 264 274 266
f 266 274 276
f 266 276 277
f 266 277 267
f 267 277 278
f 267 278 268
f 268 278 279
f 268 279 269
f 269 279 280
f 270 281 271
f 271 282 283
f 271 283 284
f 271 284 272
f 271 281 282
f 273 285 286
f 273 286 275
f 274 275 276
f 275 286 287
f 275 287 288
f 275 288 277
f 275 277 276
f 277 288 289
f 277 289 290
f 277 290 291
f 277 291 278
f 278 291 292
f 278 292 279
f 279 292 293
f 279 293 294
f 279 294 280
f 281 295 282
f 282 295 296
f 282 296 283
f 283 296 297
f 283 297 298
f 283 298 284
f 285 299 286
f 286 299 287
f 287 300 301
f 287 301 290
f 287 290 288
f 287 299 302
f 287 302 300
f 288 290 289
f 290 301 291
f 291 301 292
f 292 301 303
f 292 303 304
f 292 304 305
f 292 305 306
f 292 306 293
f 295 307 308
f 295 308 296
f 296 308 309
f 296 309 310
f 296 310 297
f 297 310 311
f 299 312 316
f 299 316 302
f 300 302 313
f 300 313 314
f 300 314 301
f 301 314 315
f 301 315 303
f 302 316 313
f 303 315 304
f 304 315 317
f 304 317 318
f 304 318 305
f 305 318 319
f 305 319 320
f 305 320 306
f 306 320 321
f 307 322 323
f 307 323 308
f 308 323 324
f 308 324 309
f 309 324 325
f 309 325 326
f 309 326 327
f 309 327 328
f 309 328 311
f 309 311 310
f 312 329 316
f 313 316 329
f 313 329 330
f 313 330 331
f 313 331 314
f 314 331 315
f 315 331 317
f 317 331 319
f 317 319 318
f 319 331 332
f 319 332 320
f 320 332 333
f 320 333 334
f 320 334 321
f 322 325 323
f 323 325 324
f 325 335 326
f 326 335 336
f 326 336 337
f 326 337 338
f 326 338 327
f 327 338 339
f 327 339 340
f 327 340 328
f 329 341 330
f 330 341 342
f 330 342 343
f 330 343 344
f 330 344 331
f 331 344 332
f 332 344 345
f 332 345 333
f 333 345 346
f 333 346 347
f 333 347 334
f 337 348 349
f 337 349 338
f 338 349 350
f 338 350 351
f 338 351 352
f 338 352 353
f 338 353 354
f 338 354 339
f 339 354 340
f 341 355 342
f 342 355 343
f 343 355 356
f 343 356 357
f 343 357 344
f 344 357 358
f 344 358 359
f 344 359 360
f 344 360 345
f 345 360 362
f 345 362 346
f 346 361 347
f 346 362 363
f 346 363 361
f 348 364 349
f 349 364 350
f 350 364 365
f 350 365 366
f 350 366 367
f 350 367 368
f 350 368 351
f 351 368 352
f 352 369 353
f 352 368 370
f 352 370 371
f 352 371 372
f 352 372 369
f 355 373 356
f 356 373 374
f 356 374 375
f 356 375 376
f 356 376 358
f 356 358 357
f 358 360 359
f 358 376 377
f 358 377 360
f 360 377 378
f 360 378 379
f 360 379 362
f 362 380 363
f 362 379 381
f 362 381 382
f 362 382 380
f 366 383 367
f 367 383 384
f 367 384 385
f 367 385 386
f 367 386 368
f 368 386 387
f 368 387 370
f 370 387 388
f 370 388 371
f 371 388 389
f 374 390 391
f 374 391 375
f 375 391 392
f 375 392 393
f 375 393 376
f 376 393 377
f 377 393 378
f 378 393 394
f 378 394 379
f 379 394 381
f 381 394 395
f 381 395 396
f 381 396 397
f 381 397 382
f 384 398 385
f 385 398 399
f 385 399 400
f 385 400 401
f 385 401 402
f 385 402 387
f 385 387 386
f 387 402 403
f 387 403 404
f 387 404 388
f 388 404 405
f 388 405 406
f 388 406 389
f 390 407 391
f 391 407 408
f 391 408 392
f 392 409 395
f 392 395 394
f 392 394 393
f 392 408 410
f 392 410 411
f 392 411 409
f 395 409 412
f 395 412 413
f 395 413 396
f 396 414 397
f 396 413 415
f 396 415 414
f 398 416 399
f 399 416 417
f 399 417 418
f 399 418 419
f 399 419 420
f 399 420 421
f 399 421 400
f 400 421 401
f 401 421 402
f 402 421 403
f 403 421 404
f 404 421 422
f 404 422 423
f 404 423 424
f 404 424 405
f 408 425 427
f 408 427 410
f 409 411 426
f 409 426 412
f 410 427 411
f 411 427 428
f 411 428 426
f 412 426 413
f 413 426 428
f 413 428 429
f 413 429 415
f 416 430 417
f 417 430 431
f 417 431 418
f 418 431 432
f 418 432 433
f 418 433 419
f 419 433 434
f 419 434 422
f 419 422 420
f 420 422 421
f 422 434 435
f 422 435 436
f 422 436 437
f 422 437 438
f 422 438 423
f 425 439 427
f 427 439 457
f 427 457 440
f 427 440 441
f 427 441 442
f 427 442 428
f 428 442 443
f 428 443 444
f 428 444 445
f 428 445 429
f 430 446 431
f 431 446 447
f 431 447 448
f 431 448 432
f 432 448 449
f 432 449 450
f 432 450 433
f 433 450 451
f 433 451 436
f 433 436 434
f 434 436 435
f 436 451 452
f 436 452 453
f 436 453 454
f 436 454 455
f 436 455 437
f 437 456 438
f 437 455 456
f 440 457 477
f 440 477 458
f 440 458 441
f 441 458 459
f 441 459 460
f 441 460 461
f 441 461 462
f 441 462 463
f 441 463 464
f 441 464 442
f 442 464 443
f 443 464 444
f 444 464 445
f 445 464 465
f 449 466 450
f 450 467 451
f 450 466 468
f 450 468 469
f 450 469 470
f 450 470 471
f 450 471 472
f 450 472 467
f 451 467 452
f 452 467 471
f 452 471 473
f 452 473 474
f 452 474 453
f 453 474 475
f 453 475 476
f 453 476 454
f 458 477 478
f 458 478 479
f 458 479 459
f 459 479 498
f 459 498 480
f 459 480 481
f 459 481 460
f 460 481 482
f 460 482 483
f 460 483 484
f 460 484 485
f 460 485 486
f 460 486 487
f 460 487 488
f 460 488 461
f 461 488 462
f 462 488 489
f 462 489 490
f 462 490 465
f 462 465 463
f 463 465 464
f 467 472 471
f 468 491 469
f 469 491 492
f 469 492 493
f 469 493 473
f 469 473 470
f 470 473 471
f 473 493 494
f 473 494 495
f 473 495 496
f 473 496 497
f 473 497 474
f 474 497 475
f 480 498 499
f 480 499 481
f 481 499 501
f 481 501 500
f 481 500 482
f 482 500 501
f 482 501 502
f 482 502 503
f 482 503 483
f 483 503 504
f 483 504 505
f 483 505 506
f 483 506 485
f 483 485 484
f 485 506 486
f 486 507 508
f 486 508 487
f 486 506 509
f 486 509 507
f 487 508 488
f 488 508 489
f 489 510 490
f 489 508 510
f 492 511 494
f 492 494 493
f 494 511 512
f 494 512 513
f 494 513 514
f 494 514 515
f 494 515 495
f 495 515 496
f 496 516 497
f 496 515 517
f 496 517 518
f 496 518 519
f 496 519 516
f 498 520 499
f 499 520 521
f 499 521 522
f 499 522 523
f 499 523 524
f 499 524 501
f 501 524 502
f 502 524 503
f 503 524 504
f 504 525 526
f 504 526 505
f 504 524 527
f 504 527 525
f 505 526 509
f 505 509 506
f 507 528 508
f 508 528 510
f 512 529 532
f 512 532 513
f 513 530 531
f 513 531 514
f 513 532 533
f 513 533 530
f 514 531 530
f 514 530 534
f 514 534 515
f 515 534 535
f 515 535 536
f 515 536 537
f 515 537 518
f 515 518 517
f 516 519 538
f 518 538 519
f 521 539 522
f 522 539 540
f 522 540 523
f 523 540 541
f 523 541 542
f 523 542 524
f 524 542 543
f 524 543 544
f 524 544 545
f 524 545 546
f 524 546 527
f 527 546 547
f 529 548 532
f 530 533 549
f 530 549 534
f 532 548 550
f 532 550 551
f 532 551 552
f 532 552 533
f 533 552 549
f 534 549 553
f 534 553 535
f 535 553 536
f 539 554 555
f 539 555 540
f 540 555 549
f 540 549 552
f 540 552 551
f 540 551 541
f 541 544 542
f 541 551 544
f 542 544 543
f 544 551 545
f 545 551 550
f 545 550 546
f 546 550 556
f 546 556 547
f 548 557 550
f 549 555 553
f 550 557 556
f 553 555 554

