# https://github.com/mikedh/trimesh
v -0.00602749 0.00746876 -0.01366616
v -0.00632006 0.00746876 -0.01366473
v -0.00646025 0.00804220 -0.01365299
v -0.00646025 0.00811069 -0.01365155
v -0.00602749 0.00811069 -0.01365270
v -0.00588731 0.00746876 -0.01366158
v -0.00646025 0.00746876 -0.01366387
v -0.00646025 0.00760945 -0.01366129
v -0.00652932 0.00811069 -0.01364812
v -0.00566382 0.00811069 -0.01363953
v -0.00559474 0.00746876 -0.01365155
v -0.00675281 0.00746876 -0.01364812
v -0.00689300 0.00811069 -0.01362865
v -0.00559474 0.00811069 -0.01363695
v -0.00545456 0.00746876 -0.01364382
v -0.00689300 0.00746876 -0.01364010
v -0.00732676 0.00746876 -0.01359400
v -0.00732676 0.00760945 -0.01359143
v -0.00732676 0.00811069 -0.01358112
v -0.00523209 0.00811069 -0.01361462
v -0.00516301 0.00746876 -0.01362664
v -0.00775951 0.00746876 -0.01351211
v -0.00775951 0.00760945 -0.01350868
v -0.00775951 0.00811069 -0.01349579
v -0.00516301 0.00811069 -0.01361032
v -0.00502282 0.00746876 -0.01361548
v -0.00819227 0.00746876 -0.01338241
v -0.00819227 0.00760945 -0.01337783
v -0.00822274 0.00811069 -0.01334948
v -0.00479933 0.00811069 -0.01357969
v -0.00473026 0.00746876 -0.01359143
v -0.00843302 0.00746876 -0.01329394
v -0.00825525 0.00811069 -0.01333774
v -0.00473026 0.00811069 -0.01357367
v -0.00459007 0.00746876 -0.01357654
v -0.00864940 0.00746876 -0.01318513
v -0.00842693 0.00760945 -0.01329136
v -0.00841474 0.00790729 -0.01328535
v -0.00830401 0.00811069 -0.01331942
v -0.00429751 0.00811069 -0.01352700
v -0.00429751 0.00746876 -0.01354504
v -0.00902221 0.00746876 -0.01296867
v -0.00864330 0.00760945 -0.01318198
v -0.00850718 0.00811069 -0.01322923
v -0.00386476 0.00811069 -0.01347375
v -0.00386476 0.00760945 -0.01348806
v -0.00386476 0.00746876 -0.01349207
v -0.00901612 0.00760945 -0.01296552
v -0.00923859 0.00746876 -0.01282293
v -0.00899275 0.00811069 -0.01295235
v -0.00859048 0.00811069 -0.01318571
v -0.00858540 0.00804779 -0.01319143
v -0.00350108 0.00811069 -0.01341534
v -0.00343200 0.00760945 -0.01341963
v -0.00343200 0.00746876 -0.01342393
v -0.00372457 0.00746876 -0.01347002
v -0.00948849 0.00746876 -0.01259445
v -0.00923249 0.00760945 -0.01281807
v -0.00920913 0.00811069 -0.01279974
v -0.00343200 0.00811069 -0.01340417
v -0.00327760 0.00746876 -0.01338957
v -0.00969166 0.00746876 -0.01240089
v -0.00946919 0.00760945 -0.01260160
v -0.00924671 0.00811069 -0.01276567
v -0.00306732 0.00811069 -0.01332228
v -0.00300840 0.00746876 -0.01332944
v -0.00978613 0.00746876 -0.01228350
v -0.00968556 0.00760945 -0.01239431
v -0.00944582 0.00811069 -0.01258328
v -0.00944887 0.00804220 -0.01258614
v -0.00285094 0.00811069 -0.01326387
v -0.00280421 0.00746876 -0.01327676
v -0.00291189 0.00746876 -0.01330482
v -0.00985521 0.00746876 -0.01219760
v -0.00966220 0.00811069 -0.01236768
v -0.00985927 0.00760945 -0.01217813
v -0.00983997 0.00804220 -0.01215551
v -0.00261526 0.00811069 -0.01318542
v -0.00256650 0.00760945 -0.01319515
v -0.00257869 0.00746876 -0.01320603
v -0.00274529 0.00746876 -0.01325900
v -0.01008174 0.00746876 -0.01189782
v -0.00983692 0.00811069 -0.01215150
v -0.00256650 0.00811069 -0.01316853
v -0.00242632 0.00746876 -0.01315392
v -0.01007565 0.00760945 -0.01188866
v -0.01021787 0.00746876 -0.01168165
v -0.01005736 0.00804220 -0.01185774
v -0.01005330 0.00811069 -0.01185229
v -0.00220181 0.00811069 -0.01302336
v -0.00213375 0.00760945 -0.01303596
v -0.00213375 0.00746876 -0.01304655
v -0.01021177 0.00760945 -0.01167220
v -0.01040072 0.00746876 -0.01133519
v -0.01019247 0.00804220 -0.01164127
v -0.01018942 0.00811069 -0.01163583
v -0.01007565 0.00811069 -0.01181794
v -0.00212766 0.00811069 -0.01299072
v -0.00180462 0.00746876 -0.01290482
v -0.00201693 0.00746876 -0.01299759
v -0.01053887 0.00746876 -0.01102281
v -0.01038853 0.00760945 -0.01133519
v -0.01034281 0.00811069 -0.01133519
v -0.00190315 0.00811069 -0.01288621
v -0.00181985 0.00760945 -0.01289852
v -0.00173452 0.00746876 -0.01287075
v -0.01053278 0.00760945 -0.01100449
v -0.01063538 0.00746876 -0.01074136
v -0.01060693 0.00760945 -0.01078832
v -0.01051246 0.00804220 -0.01094493
v -0.01051043 0.00811069 -0.01093119
v -0.00187573 0.00811069 -0.01287218
v -0.00158824 0.00746876 -0.01279401
v -0.01058255 0.00804220 -0.01074136
v -0.00345334 0.00746876 -0.01074136
v -0.01057646 0.00810378 -0.01074136
v -0.01057544 0.00811069 -0.01074136
v -0.00170506 0.00811069 -0.01277254
v -0.00160348 0.00760945 -0.01278485
v -0.00149478 0.00746876 -0.01273933
v -0.00083550 0.00746876 -0.01132002
v -0.00090254 0.00811069 -0.01121923
v -0.00326845 0.00811069 -0.01074136
v -0.00166443 0.00811069 -0.01274734
v -0.00114838 0.00746876 -0.01252115
v -0.00040072 0.00746876 -0.01142739
v -0.00086293 0.00811069 -0.01123069
v -0.00138914 0.00811069 -0.01256381
v -0.00102546 0.00748422 -0.01243697
v -0.00102343 0.00746876 -0.01243811
v -0.00026866 0.00746876 -0.01151329
v -0.00053887 0.00811069 -0.01142252
v -0.00133733 0.00811069 -0.01252687
v -0.00106813 0.00777270 -0.01240375
v -0.00101226 0.00746876 -0.01242981
v -0.00025748 0.00746876 -0.01162782
v -0.00054090 0.00811069 -0.01168537
v -0.00115447 0.00811069 -0.01238572
v -0.00056325 0.00746876 -0.01203726
v -0.00070750 0.00746876 -0.01216525
v -0.00032046 0.00746876 -0.01172288
v -0.00067703 0.00811069 -0.01189639
v -0.00112095 0.00811069 -0.01235479
v -0.00057239 0.00752073 -0.01202924
v -0.00053074 0.00746876 -0.01200147
v -0.00062522 0.00780921 -0.01197570
v -0.00066890 0.00804220 -0.01191929
v -0.00071563 0.00811069 -0.01194535
v -0.00093099 0.00811069 -0.01217298
v -0.00089747 0.00811069 -0.01213891
f 1 2 3
f 1 3 4
f 1 4 5
f 1 5 6
f 1 6 11
f 1 11 15
f 1 15 21
f 1 21 26
f 1 26 31
f 1 31 35
f 1 35 41
f 1 41 47
f 1 47 56
f 1 56 55
f 1 55 61
f 1 61 66
f 1 66 73
f 1 73 72
f 1 72 81
f 1 81 80
f 1 80 85
f 1 85 92
f 1 92 100
f 1 100 99
f 1 99 106
f 1 106 113
f 1 113 120
f 1 120 125
f 1 125 130
f 1 130 135
f 1 135 140
f 1 140 139
f 1 139 145
f 1 145 141
f 1 141 136
f 1 136 131
f 1 131 126
f 1 126 121
f 1 121 115
f 1 115 108
f 1 108 101
f 1 101 94
f 1 94 87
f 1 87 82
f 1 82 74
f 1 74 67
f 1 67 62
f 1 62 57
f 1 57 49
f 1 49 42
f 1 42 36
f 1 36 32
f 1 32 27
f 1 27 22
f 1 22 17
f 1 17 16
f 1 16 12
f 1 12 7
f 1 7 2
f 2 7 8
f 2 8 3
f 3 8 9
f 3 9 4
f 4 9 13
f 4 13 19
f 4 19 24
f 4 24 29
f 4 29 33
f 4 33 39
f 4 39 44
f 4 44 51
f 4 51 50
f 4 50 59
f 4 59 64
f 4 64 69
f 4 69 75
f 4 75 83
f 4 83 89
f 4 89 97
f 4 97 96
f 4 96 103
f 4 103 111
f 4 111 117
f 4 117 123
f 4 123 122
f 4 122 127
f 4 127 132
f 4 132 137
f 4 137 142
f 4 142 148
f 4 148 150
f 4 150 149
f 4 149 143
f 4 143 138
f 4 138 133
f 4 133 128
f 4 128 124
f 4 124 118
f 4 118 112
f 4 112 104
f 4 104 98
f 4 98 90
f 4 90 84
f 4 84 78
f 4 78 71
f 4 71 65
f 4 65 60
f 4 60 53
f 4 53 45
f 4 45 40
f 4 40 34
f 4 34 30
f 4 30 25
f 4 25 20
f 4 20 14
f 4 14 10
f 4 10 5
f 5 10 11
f 5 11 6
f 7 12 8
f 8 12 13
f 8 13 9
f 10 14 11
f 11 14 15
f 12 16 13
f 13 16 17
f 13 17 18
f 13 18 19
f 14 20 21
f 14 21 15
f 17 22 18
f 18 22 19
f 19 22 23
f 19 23 24
f 20 25 21
f 21 25 26
f 22 27 23
f 23 27 24
f 24 27 28
f 24 28 29
f 25 30 31
f 25 31 26
f 27 32 28
f 28 32 33
f 28 33 29
f 30 34 31
f 31 34 35
f 32 36 37
f 32 37 33
f 33 37 38
f 33 38 39
f 34 40 41
f 34 41 35
f 36 42 48
f 36 48 43
f 36 43 44
f 36 44 38
f 36 38 37
f 38 44 39
f 40 45 46
f 40 46 47
f 40 47 41
f 42 49 48
f 43 48 50
f 43 50 51
f 43 51 52
f 43 52 44
f 44 52 51
f 45 53 54
f 45 54 55
f 45 55 56
f 45 56 46
f 46 56 47
f 48 49 50
f 49 57 58
f 49 58 50
f 50 58 59
f 53 60 54
f 54 60 61
f 54 61 55
f 57 62 63
f 57 63 58
f 58 63 64
f 58 64 59
f 60 65 66
f 60 66 61
f 62 67 68
f 62 68 69
f 62 69 70
f 62 70 63
f 63 70 64
f 64 70 69
f 65 71 72
f 65 72 73
f 65 73 66
f 67 74 68
f 68 75 69
f 68 74 76
f 68 76 77
f 68 77 75
f 71 78 79
f 71 79 80
f 71 80 81
f 71 81 72
f 74 82 76
f 75 77 83
f 76 82 77
f 77 82 83
f 78 84 79
f 79 84 85
f 79 85 80
f 82 86 83
f 82 87 86
f 83 86 88
f 83 88 89
f 84 90 91
f 84 91 92
f 84 92 85
f 86 87 93
f 86 93 88
f 87 94 93
f 88 93 95
f 88 95 96
f 88 96 97
f 88 97 89
f 90 98 99
f 90 99 100
f 90 100 91
f 91 100 92
f 93 94 95
f 94 101 102
f 94 102 96
f 94 96 95
f 96 102 103
f 98 104 105
f 98 105 99
f 99 105 106
f 101 107 103
f 101 103 102
f 101 108 109
f 101 109 107
f 103 107 110
f 103 110 111
f 104 112 106
f 104 106 105
f 106 112 113
f 107 109 114
f 107 114 110
f 108 114 109
f 108 115 123
f 108 123 117
f 108 117 116
f 108 116 114
f 110 114 111
f 111 114 116
f 111 116 117
f 112 118 119
f 112 119 113
f 113 119 120
f 115 121 122
f 115 122 123
f 118 124 120
f 118 120 119
f 120 124 125
f 121 126 122
f 122 126 127
f 124 128 129
f 124 129 125
f 125 129 130
f 126 131 132
f 126 132 127
f 128 133 129
f 129 133 134
f 129 134 135
f 129 135 130
f 131 136 132
f 132 136 137
f 133 138 134
f 134 139 140
f 134 140 135
f 134 138 139
f 136 141 142
f 136 142 137
f 138 143 139
f 139 143 144
f 139 144 145
f 141 145 146
f 141 146 142
f 142 146 147
f 142 147 148
f 143 149 144
f 144 149 146
f 144 146 145
f 146 149 150
f 146 150 148
f 146 148 147

