# https://github.com/mikedh/trimesh
v -0.00337744 -0.00007479 -0.00494595
v -0.00337744 0.00220067 -0.00515906
v -0.00216816 -0.00007479 -0.00494595
v -0.00404767 -0.00007479 -0.00494569
v -0.00216816 0.00220067 -0.00494595
v -0.00404767 0.00143684 -0.00501199
v -0.00337744 0.00220067 -0.00247129
v -0.00216816 -0.00007479 -0.00273096
v -0.00404767 -0.00007479 -0.00262020
v -0.00216816 0.00220067 -0.00262046
v -0.00404767 0.00143684 -0.00253285
v -0.00337744 -0.00007479 -0.00262020
v -0.00299900 -0.00007479 -0.00262046
v -0.00289303 -0.00007479 -0.00262283
v -0.00256628 -0.00007479 -0.00263020
v -0.00216816 0.00151525 -0.00262573
v -0.00216816 0.00194806 -0.00262046
v -0.00246050 -0.00007479 -0.00265677
f 1 2 3
f 1 3 8
f 1 8 18
f 1 18 15
f 1 15 14
f 1 14 13
f 1 13 12
f 1 12 9
f 1 9 4
f 1 4 2
f 2 5 3
f 2 4 6
f 2 6 11
f 2 11 7
f 2 7 10
f 2 10 5
f 3 5 10
f 3 10 17
f 3 17 16
f 3 16 8
f 4 9 11
f 4 11 6
f 7 11 9
f 7 9 12
f 7 12 13
f 7 13 14
f 7 14 15
f 7 15 16
f 7 16 17
f 7 17 10
f 8 16 18
f 15 18 16

