# https://github.com/mikedh/trimesh
v -0.00501009 -0.00007501 -0.01014829
v -0.00501009 -0.00174990 -0.01009596
v -0.00501009 -0.00007501 -0.00772943
v -0.00256624 -0.00007501 -0.01008554
v -0.00256624 -0.00104633 -0.01009596
v -0.00216816 -0.00174990 -0.01009312
v -0.00229529 -0.00174990 -0.01009596
v -0.00501009 -0.00174990 -0.00777015
v -0.00216816 -0.00174990 -0.00777015
v -0.00216816 -0.00007501 -0.00777015
v -0.00216816 -0.00007501 -0.00998421
v -0.00216816 -0.00144427 -0.01008720
f 1 2 8
f 1 8 3
f 1 3 10
f 1 10 11
f 1 11 4
f 1 4 5
f 1 5 6
f 1 6 7
f 1 7 2
f 2 7 6
f 2 6 9
f 2 9 8
f 3 8 9
f 3 9 10
f 4 11 12
f 4 12 6
f 4 6 5
f 6 12 11
f 6 11 10
f 6 10 9

