# https://github.com/mikedh/trimesh
v -0.00160913 0.03008544 0.00121565
v -0.00214130 0.02955387 0.00120993
v -0.00214130 0.02902231 0.00121422
v -0.00160913 0.02955387 0.00121422
v -0.00127302 0.03042064 0.00121136
v -0.00127302 0.03095221 0.00120563
v -0.00160913 0.03061700 0.00120849
v -0.00214130 0.03008544 0.00119990
v -0.00247529 0.02922065 0.00120276
v -0.00247529 0.02868711 0.00120993
v -0.00247529 0.02815554 0.00120849
v -0.00247529 0.02795720 0.00120706
v -0.00214130 0.02848876 0.00120993
v -0.00127302 0.02935751 0.00120563
v -0.00127302 0.02988908 0.00120993
v -0.00214130 0.02689208 0.00119704
v -0.00160913 0.02742563 0.00119561
v -0.00127302 0.03114857 0.00120133
v -0.00160913 0.03114857 0.00119704
v -0.00247529 0.02975222 0.00118988
v -0.00214130 0.03061700 0.00118415
v -0.00247529 0.02742563 0.00120276
v -0.00127302 0.02776083 0.00118988
v -0.00160913 0.02689208 0.00118844
v -0.00247529 0.02709043 0.00119990
v -0.00247529 0.02602730 0.00118844
v -0.00247529 0.02549375 0.00117985
v -0.00127302 0.02742563 0.00118558
v -0.00127302 0.03148576 0.00119274
v -0.00127302 0.03168212 0.00118701
v -0.00127302 0.03201732 0.00117699
v -0.00160913 0.03168212 0.00117985
v -0.00247529 0.03028180 0.00117126
v -0.00214130 0.03114857 0.00116410
v -0.00127302 0.02689208 0.00117699
v -0.00127302 0.02722927 0.00118272
v -0.00160913 0.02636052 0.00117699
v -0.00247529 0.02496218 0.00116840
v -0.00127302 0.03254889 0.00115551
v -0.00160913 0.03221368 0.00115694
v -0.00247529 0.03081535 0.00114835
v -0.00214130 0.03168212 0.00113832
v -0.00127302 0.02669572 0.00117269
v -0.00247529 0.02442863 0.00115264
v -0.00160913 0.02582895 0.00115980
v -0.00127302 0.03308244 0.00112114
v -0.00160913 0.03274525 0.00112114
v -0.00247529 0.03134691 0.00111684
v -0.00214130 0.03221368 0.00109966
v -0.00127302 0.02616415 0.00115408
v -0.00214130 0.02476384 0.00114835
v -0.00247529 0.02389707 0.00113403
v -0.00127302 0.03361400 0.00107674
v -0.00160913 0.03327880 0.00106815
v -0.00247529 0.03188046 0.00107244
v -0.00214130 0.03274525 0.00104094
v -0.00127302 0.02563259 0.00112973
v -0.00247529 0.02336550 0.00110968
v -0.00127302 0.03414557 0.00102089
v -0.00160913 0.03381036 0.00100371
v -0.00247529 0.03241203 0.00100657
v -0.00214130 0.03327880 0.00095931
v -0.00127302 0.02509904 0.00109822
v -0.00247529 0.02283195 0.00108247
v -0.00127302 0.03470093 0.00094642
v -0.00127302 0.03516109 0.00087625
v -0.00247529 0.03294161 0.00091921
v -0.00148956 0.03487548 0.00086766
v -0.00195324 0.03421499 0.00084904
v -0.00127302 0.02456747 0.00105956
v -0.00247529 0.02230039 0.00105096
v -0.00127302 0.03529200 0.00085477
v -0.00247529 0.03327880 0.00085906
v -0.00138741 0.03522258 0.00083615
v -0.00184885 0.03457002 0.00081037
v -0.00247529 0.03334822 0.00084474
v -0.00127302 0.02403393 0.00101516
v -0.00247529 0.02176882 0.00101230
v -0.00247529 0.01997380 0.00087625
v -0.00127302 0.03558159 0.00079748
v -0.00127773 0.03557563 0.00079748
v -0.00230818 0.03391152 0.00077600
v -0.00241398 0.03355648 0.00082183
v -0.00175565 0.03487548 0.00077027
v -0.00247529 0.03350689 0.00080608
v -0.00127302 0.02350236 0.00096217
v -0.00247529 0.01997380 -0.01307375
v -0.00233607 0.01997380 0.00084188
v -0.00127302 0.03580373 0.00073734
v -0.00213495 0.03437168 0.00072874
v -0.00247529 0.03383416 0.00071013
v -0.00158253 0.03540307 0.00070297
v -0.00127302 0.02297080 0.00089773
v -0.00247529 0.02210204 -0.01323271
v -0.00160913 0.02423029 -0.01328283
v -0.00160913 0.02369872 -0.01324273
v -0.00127302 0.02476384 -0.01327854
v -0.00127302 0.02423029 -0.01323557
v -0.00127302 0.02369872 -0.01318402
v -0.00234184 0.01997380 -0.01304224
v -0.00207093 0.01997380 0.00074736
v -0.00127302 0.02254039 0.00083901
v -0.00127302 0.02259989 0.00084761
v -0.00127302 0.03625596 0.00059842
v -0.00247529 0.03394920 0.00067432
v -0.00214130 0.03487548 0.00056835
v -0.00165679 0.03598224 0.00048099
v -0.00247529 0.02263361 -0.01326708
v -0.00214130 0.02316716 -0.01326851
v -0.00160913 0.02476384 -0.01331577
v -0.00127302 0.02529540 -0.01331291
v -0.00214130 0.02369872 -0.01330145
v -0.00127302 0.02317311 -0.01312101
v -0.00207516 0.01997380 -0.01294629
v -0.00127302 0.02263361 -0.01305227
v -0.00127302 0.02253444 -0.01303938
v -0.00160913 0.01997380 0.00052968
v -0.00127302 0.02238171 0.00081467
v -0.00127302 0.03645034 0.00053684
v -0.00151675 0.03647216 0.00040079
v -0.00247529 0.03453631 0.00048242
v -0.00213989 0.03536737 0.00040223
v -0.00247529 0.02316716 -0.01329858
v -0.00214130 0.02423029 -0.01332866
v -0.00160913 0.02529540 -0.01334012
v -0.00127302 0.02582895 -0.01334012
v -0.00161066 0.01997380 -0.01272861
v -0.00127302 0.02228452 -0.01299212
v -0.00127491 0.01997380 0.00033492
v -0.00127302 0.01997380 0.00033349
v -0.00127302 0.03679347 0.00042657
v -0.00140648 0.03684901 0.00033349
v -0.00196148 0.03583547 0.00034924
v -0.00247529 0.03490523 0.00035497
v -0.00247529 0.02369872 -0.01332436
v -0.00247529 0.02423029 -0.01334584
v -0.00214130 0.02476384 -0.01335014
v -0.00127302 0.02636052 -0.01336160
v -0.00127773 0.01997380 -0.01253528
v -0.00127302 0.01997380 -0.01253242
v -0.00127302 0.03692240 0.00038218
v -0.00186604 0.03619051 0.00027907
v -0.00127302 0.03722587 0.00026045
v -0.00129880 0.03720207 0.00025329
v -0.00241915 0.03516308 0.00029625
v -0.00247529 0.03495680 0.00033635
v -0.00247529 0.02476384 -0.01336160
v -0.00214130 0.02529540 -0.01336589
v -0.00160913 0.02636052 -0.01337735
v -0.00160913 0.02582895 -0.01336017
v -0.00127302 0.02689208 -0.01337592
v -0.00178283 0.03647216 0.00020603
v -0.00205669 0.03647216 -0.00006034
v -0.00231642 0.03551613 0.00020746
v -0.00127302 0.03728140 0.00023181
v -0.00148215 0.03753727 -0.00010760
v -0.00162561 0.03703347 0.00004277
v -0.00247529 0.03511547 0.00026761
v -0.00247529 0.02529540 -0.01337449
v -0.00214130 0.02582895 -0.01337878
v -0.00160913 0.02689208 -0.01338881
v -0.00127302 0.02742563 -0.01338594
v -0.00194665 0.03686488 -0.00016918
v -0.00247529 0.03585133 -0.00013194
v -0.00247529 0.03543084 0.00009862
v -0.00127302 0.03777330 -0.00005318
v -0.00138153 0.03786454 -0.00020498
v -0.00247529 0.02636052 -0.01339167
v -0.00214130 0.02636052 -0.01338881
v -0.00214130 0.02689208 -0.01339453
v -0.00160913 0.02742563 -0.01339453
v -0.00127302 0.02795720 -0.01339167
v -0.00240056 0.03619447 -0.00025367
v -0.00247529 0.03592472 -0.00017347
v -0.00184485 0.03721992 -0.00028374
v -0.00127302 0.03791809 -0.00013767
v -0.00127302 0.03821164 -0.00033816
v -0.00247529 0.02722728 -0.01340026
v -0.00214130 0.02742563 -0.01340026
v -0.00160913 0.02902231 -0.01340886
v -0.00127302 0.02902231 -0.01340170
v -0.00247529 0.03613695 -0.00031382
v -0.00232289 0.03647216 -0.00036251
v -0.00247529 0.03652372 -0.00061742
v -0.00176777 0.03758090 -0.00048137
v -0.00197289 0.03743215 -0.00063890
v -0.00213718 0.03699579 -0.00051574
v -0.00127302 0.03839015 -0.00049140
v -0.00139942 0.03842586 -0.00069619
v -0.00150051 0.03805297 -0.00051574
v -0.00247529 0.02775885 -0.01340456
v -0.00214130 0.02848876 -0.01340886
v -0.00160913 0.02955387 -0.01341315
v -0.00127302 0.02955387 -0.01340599
v -0.00242727 0.03677364 -0.00074774
v -0.00247529 0.03660108 -0.00068043
v -0.00186545 0.03778718 -0.00079500
v -0.00127302 0.03851709 -0.00060167
v -0.00127302 0.03879279 -0.00086661
v -0.00128738 0.03877891 -0.00087520
v -0.00247529 0.02795720 -0.01340599
v -0.00214130 0.02902231 -0.01341172
v -0.00160913 0.03008544 -0.01341458
v -0.00127302 0.03008544 -0.01340886
v -0.00247529 0.03672802 -0.00079214
v -0.00232771 0.03712868 -0.00093964
v -0.00214189 0.03753529 -0.00104418
v -0.00127302 0.03882056 -0.00089668
v -0.00138412 0.03893362 -0.00123036
v -0.00195618 0.03793594 -0.00115016
v -0.00247529 0.02848876 -0.01340599
v -0.00247529 0.02902231 -0.01340313
v -0.00214130 0.02955387 -0.01340886
v -0.00127302 0.03061700 -0.01340886
v -0.00160913 0.03061700 -0.01340886
v -0.00247529 0.03693033 -0.00101411
v -0.00241492 0.03728339 -0.00129337
v -0.00247529 0.03699380 -0.00108572
v -0.00127302 0.03902882 -0.00113727
v -0.00127361 0.03928866 -0.00147524
v -0.00184791 0.03829098 -0.00137357
v -0.00247529 0.02955387 -0.01339310
v -0.00214130 0.03008544 -0.01340026
v -0.00127302 0.03114857 -0.01340170
v -0.00160913 0.03114857 -0.01339740
v -0.00127302 0.03168212 -0.01339024
v -0.00247470 0.03738851 -0.00157692
v -0.00247529 0.03722190 -0.00135495
v -0.00247529 0.03702752 -0.00112438
v -0.00232065 0.03765429 -0.00157692
v -0.00127302 0.03928667 -0.00147381
v -0.00127302 0.03947708 -0.00176166
v -0.00134799 0.03940766 -0.00183040
v -0.00143978 0.03912006 -0.00162275
v -0.00192335 0.03841197 -0.00172872
v -0.00173976 0.03859445 -0.00156117
v -0.00204762 0.03809462 -0.00156117
v -0.00247529 0.03008544 -0.01337878
v -0.00214130 0.03061700 -0.01338451
v -0.00160913 0.03168212 -0.01338021
v -0.00127302 0.03221368 -0.01336733
v -0.00247529 0.03738851 -0.00157979
v -0.00247529 0.03738653 -0.00157692
v -0.00238820 0.03776933 -0.00190344
v -0.00247529 0.03766818 -0.00199939
v -0.00127302 0.03959014 -0.00198364
v -0.00127302 0.03964964 -0.00210823
v -0.00139224 0.03947312 -0.00210823
v -0.00160607 0.03913395 -0.00210823
v -0.00247529 0.03061700 -0.01335444
v -0.00214130 0.03114857 -0.01336446
v -0.00214130 0.03168212 -0.01333725
v -0.00160913 0.03221368 -0.01335300
v -0.00127302 0.03274525 -0.01333582
v -0.00244234 0.03786057 -0.00225860
v -0.00247529 0.03777925 -0.00221134
v -0.00227358 0.03804900 -0.00209104
v -0.00127302 0.03985989 -0.00262092
v -0.00128538 0.03984998 -0.00264097
v -0.00186780 0.03885428 -0.00240610
v -0.00146461 0.03958419 -0.00264097
v -0.00247529 0.03114857 -0.01332436
v -0.00247529 0.03168212 -0.01328426
v -0.00214130 0.03221368 -0.01329715
v -0.00160913 0.03274525 -0.01331291
v -0.00127302 0.03327880 -0.01329572
v -0.00247529 0.03791412 -0.00250921
v -0.00247529 0.03782289 -0.00230156
v -0.00232924 0.03820966 -0.00264097
v -0.00247529 0.03797164 -0.00264097
v -0.00127302 0.03996501 -0.00293025
v -0.00132751 0.03990948 -0.00299326
v -0.00175518 0.03911411 -0.00260660
v -0.00178660 0.03925891 -0.00317370
v -0.00191064 0.03892370 -0.00275983
v -0.00247529 0.03221368 -0.01322555
v -0.00214130 0.03274525 -0.01323701
v -0.00160913 0.03327880 -0.01325992
v -0.00127302 0.03381036 -0.01324560
v -0.00237785 0.03828701 -0.00305484
v -0.00247529 0.03816007 -0.00315652
v -0.00127302 0.04000072 -0.00305914
v -0.00127302 0.04005229 -0.00326393
v -0.00135881 0.03995510 -0.00334842
v -0.00149451 0.03970518 -0.00317227
v -0.00182932 0.03932833 -0.00370501
v -0.00241327 0.03834453 -0.00341000
v -0.00247529 0.03273335 -0.01314821
v -0.00214130 0.03327880 -0.01315251
v -0.00127302 0.03528407 -0.01305227
v -0.00160913 0.03381036 -0.01319834
v -0.00127302 0.03434986 -0.01317972
v -0.00247529 0.03820569 -0.00329973
v -0.00127302 0.04011179 -0.00353316
v -0.00138400 0.03999080 -0.00370501
v -0.00160419 0.03966551 -0.00370501
v -0.00185639 0.03936998 -0.00412175
v -0.00199890 0.03906254 -0.00370501
v -0.00243375 0.03837627 -0.00370501
v -0.00247529 0.03830883 -0.00370501
v -0.00247529 0.03826123 -0.00349879
v -0.00247529 0.03327880 -0.01305370
v -0.00195183 0.03419912 -0.01304797
v -0.00138518 0.03521465 -0.01303508
v -0.00127302 0.03556770 -0.01299355
v -0.00127302 0.03487548 -0.01311241
v -0.00127302 0.04014551 -0.00370501
v -0.00127302 0.04023675 -0.00423775
v -0.00141601 0.04003642 -0.00423775
v -0.00170952 0.03961593 -0.00427498
v -0.00187851 0.03940370 -0.00447691
v -0.00200373 0.03916965 -0.00427498
v -0.00229959 0.03869759 -0.00423775
v -0.00246835 0.03843181 -0.00423775
v -0.00247529 0.03841990 -0.00423775
v -0.00247529 0.03332640 -0.01304367
v -0.00240833 0.03354656 -0.01301933
v -0.00230677 0.03390160 -0.01297493
v -0.00127302 0.03594852 -0.01288614
v -0.00158124 0.03539911 -0.01289903
v -0.00127302 0.04023476 -0.00796262
v -0.00187839 0.03940370 -0.00772202
v -0.00187851 0.03940370 -0.00450841
v -0.00247529 0.03847346 -0.00748143
v -0.00247529 0.03846354 -0.00477048
v -0.00247529 0.03843776 -0.00437952
v -0.00247529 0.03842189 -0.00425064
v -0.00247529 0.03361202 -0.01296491
v -0.00247529 0.03382425 -0.01290619
v -0.00214130 0.03487548 -0.01276012
v -0.00165620 0.03598224 -0.01267706
v -0.00127302 0.03645034 -0.01273577
v -0.00151557 0.03647216 -0.01259972
v -0.00127302 0.04014551 -0.00849392
v -0.00138400 0.03999080 -0.00849392
v -0.00141566 0.04003444 -0.00796262
v -0.00185627 0.03936998 -0.00807718
v -0.00200396 0.03916965 -0.00792538
v -0.00229994 0.03869759 -0.00796262
v -0.00246835 0.03843181 -0.00796262
v -0.00247529 0.03843776 -0.00781941
v -0.00170904 0.03961593 -0.00792538
v -0.00160407 0.03966551 -0.00849392
v -0.00247529 0.03433598 -0.01273864
v -0.00247529 0.03484969 -0.01256822
v -0.00247529 0.03487548 -0.01255963
v -0.00213742 0.03536539 -0.01259829
v -0.00127302 0.03692240 -0.01258254
v -0.00186498 0.03618852 -0.01247943
v -0.00140601 0.03684703 -0.01253385
v -0.00247529 0.03494291 -0.01253671
v -0.00127302 0.04005229 -0.00893500
v -0.00135893 0.03995510 -0.00885051
v -0.00182920 0.03932833 -0.00849392
v -0.00199926 0.03906254 -0.00849392
v -0.00247529 0.03841594 -0.00798696
v -0.00247529 0.03841990 -0.00796262
v -0.00127302 0.03717826 -0.01247800
v -0.00247529 0.03579580 -0.01209276
v -0.00205457 0.03647216 -0.01213859
v -0.00178177 0.03647216 -0.01240496
v -0.00129821 0.03720207 -0.01245222
v -0.00241762 0.03515911 -0.01249518
v -0.00247529 0.03520671 -0.01241212
v -0.00127302 0.03999873 -0.00914123
v -0.00132728 0.03990948 -0.00920567
v -0.00149427 0.03970518 -0.00902809
v -0.00178636 0.03925692 -0.00902666
v -0.00241339 0.03834453 -0.00878893
v -0.00243387 0.03837627 -0.00849392
v -0.00247529 0.03830883 -0.00849392
v -0.00127302 0.03727744 -0.01243074
v -0.00247529 0.03584737 -0.01206412
v -0.00194583 0.03686289 -0.01202975
v -0.00162490 0.03703347 -0.01224170
v -0.00148132 0.03753727 -0.01209133
v -0.00138141 0.03786454 -0.01199395
v -0.00127302 0.03768206 -0.01219731
v -0.00127302 0.03986386 -0.00956083
v -0.00128467 0.03984799 -0.00955940
v -0.00146426 0.03958221 -0.00955940
v -0.00237632 0.03828503 -0.00914409
v -0.00247529 0.03815809 -0.00904241
v -0.00247529 0.03820569 -0.00890063
v -0.00247529 0.03613100 -0.01188225
v -0.00239868 0.03619051 -0.01194383
v -0.00184379 0.03721793 -0.01191662
v -0.00127302 0.03791611 -0.01206126
v -0.00127302 0.03821759 -0.01185504
v -0.00127302 0.03983014 -0.00964389
v -0.00127302 0.03969923 -0.00996181
v -0.00139012 0.03946915 -0.01009213
v -0.00186615 0.03885230 -0.00978710
v -0.00175388 0.03911213 -0.00958947
v -0.00190934 0.03892172 -0.00943337
v -0.00232701 0.03820768 -0.00955940
v -0.00247529 0.03796768 -0.00955940
v -0.00247529 0.03647216 -0.01161731
v -0.00232077 0.03647216 -0.01183499
v -0.00197266 0.03743215 -0.01156146
v -0.00176706 0.03758090 -0.01171899
v -0.00213671 0.03699579 -0.01168319
v -0.00150039 0.03805297 -0.01168319
v -0.00127302 0.03851709 -0.01159726
v -0.00127302 0.03964370 -0.01009213
v -0.00134528 0.03940370 -0.01036280
v -0.00160183 0.03913395 -0.01009213
v -0.00244222 0.03785859 -0.00994176
v -0.00247529 0.03791412 -0.00968828
v -0.00247529 0.03659711 -0.01151850
v -0.00242657 0.03677166 -0.01145119
v -0.00186533 0.03778718 -0.01140393
v -0.00139930 0.03842387 -0.01150274
v -0.00128714 0.03877891 -0.01132373
v -0.00127302 0.03876899 -0.01135381
v -0.00127302 0.03947113 -0.01043011
v -0.00127302 0.03928667 -0.01071796
v -0.00192229 0.03840999 -0.01046591
v -0.00238762 0.03776933 -0.01029549
v -0.00247529 0.03777727 -0.00998902
v -0.00247529 0.03693232 -0.01117623
v -0.00247529 0.03698190 -0.01112324
v -0.00232760 0.03712669 -0.01125929
v -0.00214130 0.03753529 -0.01115475
v -0.00195501 0.03793198 -0.01104877
v -0.00138282 0.03893164 -0.01096857
v -0.00127302 0.03881858 -0.01130368
v -0.00127302 0.03902684 -0.01106023
v -0.00184579 0.03828701 -0.01082107
v -0.00204598 0.03809263 -0.01063633
v -0.00173705 0.03859246 -0.01063633
v -0.00231936 0.03765231 -0.01062344
v -0.00247529 0.03739049 -0.01061628
v -0.00247529 0.03766619 -0.01019954
v -0.00247529 0.03702157 -0.01107884
v -0.00241445 0.03728339 -0.01090556
f 1 2 3
f 1 3 4
f 1 4 15
f 1 15 5
f 1 5 6
f 1 6 7
f 1 7 2
f 2 7 8
f 2 8 9
f 2 9 10
f 2 10 3
f 3 10 11
f 3 11 12
f 3 12 13
f 3 13 4
f 4 14 15
f 4 13 16
f 4 16 17
f 4 17 14
f 5 15 14
f 5 14 23
f 5 23 28
f 5 28 36
f 5 36 35
f 5 35 43
f 5 43 50
f 5 50 57
f 5 57 63
f 5 63 70
f 5 70 77
f 5 77 86
f 5 86 93
f 5 93 103
f 5 103 102
f 5 102 118
f 5 118 130
f 5 130 140
f 5 140 128
f 5 128 116
f 5 116 115
f 5 115 113
f 5 113 99
f 5 99 98
f 5 98 97
f 5 97 111
f 5 111 126
f 5 126 138
f 5 138 151
f 5 151 162
f 5 162 172
f 5 172 181
f 5 181 194
f 5 194 204
f 5 204 214
f 5 214 224
f 5 224 226
f 5 226 241
f 5 241 254
f 5 254 266
f 5 266 279
f 5 279 292
f 5 292 306
f 5 306 290
f 5 290 305
f 5 305 319
f 5 319 332
f 5 332 348
f 5 348 358
f 5 358 372
f 5 372 378
f 5 378 388
f 5 388 389
f 5 389 404
f 5 404 415
f 5 415 427
f 5 427 428
f 5 428 417
f 5 417 416
f 5 416 405
f 5 405 391
f 5 391 390
f 5 390 379
f 5 379 365
f 5 365 352
f 5 352 334
f 5 334 321
f 5 321 308
f 5 308 307
f 5 307 294
f 5 294 283
f 5 283 282
f 5 282 271
f 5 271 258
f 5 258 247
f 5 247 246
f 5 246 232
f 5 232 231
f 5 231 219
f 5 219 208
f 5 208 199
f 5 199 198
f 5 198 188
f 5 188 177
f 5 177 176
f 5 176 166
f 5 166 155
f 5 155 143
f 5 143 141
f 5 141 131
f 5 131 119
f 5 119 104
f 5 104 89
f 5 89 80
f 5 80 72
f 5 72 66
f 5 66 65
f 5 65 59
f 5 59 53
f 5 53 46
f 5 46 39
f 5 39 31
f 5 31 30
f 5 30 29
f 5 29 18
f 5 18 6
f 6 18 19
f 6 19 7
f 7 19 8
f 8 20 9
f 8 19 21
f 8 21 20
f 9 20 33
f 9 33 41
f 9 41 48
f 9 48 55
f 9 55 61
f 9 61 67
f 9 67 73
f 9 73 76
f 9 76 85
f 9 85 91
f 9 91 105
f 9 105 121
f 9 121 134
f 9 134 146
f 9 146 158
f 9 158 165
f 9 165 164
f 9 164 174
f 9 174 182
f 9 182 184
f 9 184 196
f 9 196 205
f 9 205 216
f 9 216 218
f 9 218 229
f 9 229 228
f 9 228 243
f 9 243 242
f 9 242 245
f 9 245 256
f 9 256 268
f 9 268 267
f 9 267 270
f 9 270 281
f 9 281 293
f 9 293 301
f 9 301 300
f 9 300 315
f 9 315 327
f 9 327 326
f 9 326 325
f 9 325 324
f 9 324 341
f 9 341 357
f 9 357 356
f 9 356 371
f 9 371 384
f 9 384 383
f 9 383 397
f 9 397 409
f 9 409 420
f 9 420 434
f 9 434 433
f 9 433 435
f 9 435 422
f 9 422 421
f 9 421 410
f 9 410 398
f 9 398 385
f 9 385 373
f 9 373 359
f 9 359 364
f 9 364 351
f 9 351 346
f 9 346 345
f 9 345 344
f 9 344 329
f 9 329 328
f 9 328 316
f 9 316 302
f 9 302 288
f 9 288 276
f 9 276 263
f 9 263 262
f 9 262 250
f 9 250 238
f 9 238 222
f 9 222 212
f 9 212 211
f 9 211 201
f 9 201 191
f 9 191 178
f 9 178 168
f 9 168 159
f 9 159 147
f 9 147 136
f 9 136 135
f 9 135 123
f 9 123 108
f 9 108 94
f 9 94 87
f 9 87 79
f 9 79 78
f 9 78 71
f 9 71 64
f 9 64 58
f 9 58 52
f 9 52 44
f 9 44 38
f 9 38 27
f 9 27 26
f 9 26 25
f 9 25 22
f 9 22 12
f 9 12 11
f 9 11 10
f 12 22 16
f 12 16 13
f 14 17 23
f 16 24 17
f 16 22 25
f 16 25 26
f 16 26 27
f 16 27 24
f 17 24 28
f 17 28 23
f 18 29 19
f 19 29 30
f 19 30 31
f 19 31 32
f 19 32 21
f 20 21 33
f 21 32 34
f 21 34 33
f 24 35 36
f 24 36 28
f 24 27 38
f 24 38 37
f 24 37 35
f 31 39 32
f 32 39 40
f 32 40 34
f 33 34 41
f 34 40 42
f 34 42 41
f 35 37 43
f 37 38 44
f 37 44 45
f 37 45 43
f 39 46 40
f 40 46 47
f 40 47 42
f 41 42 48
f 42 47 49
f 42 49 48
f 43 45 50
f 44 51 45
f 44 52 51
f 45 51 52
f 45 52 50
f 46 53 47
f 47 53 54
f 47 54 49
f 48 49 55
f 49 54 56
f 49 56 55
f 50 52 58
f 50 58 57
f 53 59 54
f 54 59 60
f 54 60 56
f 55 56 61
f 56 60 62
f 56 62 61
f 57 58 64
f 57 64 63
f 59 65 60
f 60 65 66
f 60 66 62
f 61 62 67
f 62 66 68
f 62 68 69
f 62 69 67
f 63 64 71
f 63 71 78
f 63 78 70
f 66 72 68
f 67 69 73
f 68 72 74
f 68 74 69
f 69 74 75
f 69 75 76
f 69 76 73
f 70 78 79
f 70 79 77
f 72 80 81
f 72 81 74
f 74 81 75
f 75 82 83
f 75 83 76
f 75 81 84
f 75 84 82
f 76 83 85
f 77 79 86
f 79 87 100
f 79 100 114
f 79 114 127
f 79 127 139
f 79 139 140
f 79 140 130
f 79 130 129
f 79 129 117
f 79 117 101
f 79 101 88
f 79 88 86
f 80 89 81
f 81 89 84
f 82 84 90
f 82 90 91
f 82 91 85
f 82 85 83
f 84 92 90
f 84 89 92
f 86 88 93
f 87 94 95
f 87 95 96
f 87 96 97
f 87 97 98
f 87 98 99
f 87 99 100
f 88 101 102
f 88 102 103
f 88 103 93
f 89 104 92
f 90 105 91
f 90 92 106
f 90 106 105
f 92 104 107
f 92 107 106
f 94 108 109
f 94 109 95
f 95 110 111
f 95 111 97
f 95 97 96
f 95 109 112
f 95 112 110
f 99 113 100
f 100 113 115
f 100 115 116
f 100 116 114
f 101 117 118
f 101 118 102
f 104 119 120
f 104 120 107
f 105 106 121
f 106 107 120
f 106 120 122
f 106 122 121
f 108 123 112
f 108 112 109
f 110 112 124
f 110 124 125
f 110 125 126
f 110 126 111
f 112 123 124
f 114 116 127
f 116 128 127
f 117 129 118
f 118 129 130
f 119 131 120
f 120 131 132
f 120 132 133
f 120 133 122
f 121 122 134
f 122 133 134
f 123 135 124
f 124 136 137
f 124 137 125
f 124 135 136
f 125 138 126
f 125 137 138
f 127 128 139
f 128 140 139
f 131 141 132
f 132 142 133
f 132 141 143
f 132 143 144
f 132 144 142
f 133 142 145
f 133 145 146
f 133 146 134
f 136 147 148
f 136 148 137
f 137 148 149
f 137 149 150
f 137 150 138
f 138 150 149
f 138 149 151
f 142 144 152
f 142 152 153
f 142 153 154
f 142 154 145
f 143 155 144
f 144 155 156
f 144 156 157
f 144 157 152
f 145 154 158
f 145 158 146
f 147 159 148
f 148 159 160
f 148 160 149
f 149 160 161
f 149 161 151
f 151 161 162
f 152 163 153
f 152 157 163
f 153 163 164
f 153 164 165
f 153 165 154
f 154 165 158
f 155 166 167
f 155 167 156
f 156 167 163
f 156 163 157
f 159 168 169
f 159 169 160
f 160 169 161
f 161 170 179
f 161 179 171
f 161 171 172
f 161 172 162
f 161 169 170
f 163 173 174
f 163 174 164
f 163 167 175
f 163 175 173
f 166 176 167
f 167 176 177
f 167 177 175
f 168 178 179
f 168 179 170
f 168 170 169
f 171 179 180
f 171 180 181
f 171 181 172
f 173 182 174
f 173 175 183
f 173 183 184
f 173 184 182
f 175 177 185
f 175 185 186
f 175 186 187
f 175 187 183
f 177 188 189
f 177 189 190
f 177 190 185
f 178 191 192
f 178 192 179
f 179 192 193
f 179 193 180
f 180 193 194
f 180 194 181
f 183 187 184
f 184 187 195
f 184 195 196
f 185 197 186
f 185 190 197
f 186 197 195
f 186 195 187
f 188 198 189
f 189 198 199
f 189 199 200
f 189 200 197
f 189 197 190
f 191 201 192
f 192 201 202
f 192 202 193
f 193 203 204
f 193 204 194
f 193 202 203
f 195 205 196
f 195 197 206
f 195 206 205
f 197 207 206
f 197 200 208
f 197 208 209
f 197 209 210
f 197 210 207
f 199 208 200
f 201 211 202
f 202 211 212
f 202 212 213
f 202 213 203
f 203 214 204
f 203 213 215
f 203 215 214
f 205 206 216
f 206 207 217
f 206 217 218
f 206 218 216
f 207 210 217
f 208 219 209
f 209 219 220
f 209 220 221
f 209 221 210
f 210 221 217
f 212 222 223
f 212 223 213
f 213 223 215
f 214 215 224
f 215 225 226
f 215 226 224
f 215 223 225
f 217 227 228
f 217 228 229
f 217 229 218
f 217 221 230
f 217 230 227
f 219 231 220
f 220 231 232
f 220 232 233
f 220 233 234
f 220 234 235
f 220 235 236
f 220 236 221
f 221 236 235
f 221 235 237
f 221 237 230
f 222 238 223
f 223 238 239
f 223 239 225
f 225 239 240
f 225 240 226
f 226 240 241
f 227 242 243
f 227 243 228
f 227 230 244
f 227 244 245
f 227 245 242
f 230 237 244
f 232 246 233
f 233 235 234
f 233 246 247
f 233 247 248
f 233 248 249
f 233 249 244
f 233 244 235
f 235 244 237
f 238 250 251
f 238 251 239
f 239 251 240
f 240 252 253
f 240 253 241
f 240 251 252
f 241 253 254
f 244 255 256
f 244 256 245
f 244 249 257
f 244 257 255
f 247 258 259
f 247 259 248
f 248 260 249
f 248 259 261
f 248 261 260
f 249 260 255
f 249 255 257
f 250 262 252
f 250 252 251
f 252 263 264
f 252 264 265
f 252 265 253
f 252 262 263
f 253 265 266
f 253 266 254
f 255 267 268
f 255 268 256
f 255 260 269
f 255 269 270
f 255 270 267
f 258 271 259
f 259 271 272
f 259 272 261
f 260 261 273
f 260 273 269
f 261 272 274
f 261 274 275
f 261 275 273
f 263 276 264
f 264 276 277
f 264 277 278
f 264 278 265
f 265 278 279
f 265 279 266
f 269 273 275
f 269 275 280
f 269 280 270
f 270 280 281
f 271 282 272
f 272 282 283
f 272 283 284
f 272 284 285
f 272 285 274
f 274 285 286
f 274 286 287
f 274 287 280
f 274 280 275
f 276 288 277
f 277 289 290
f 277 290 291
f 277 291 278
f 277 288 289
f 278 291 279
f 279 291 292
f 280 287 281
f 281 287 293
f 283 294 284
f 284 295 296
f 284 296 286
f 284 286 285
f 284 294 295
f 286 297 298
f 286 298 287
f 286 296 297
f 287 299 300
f 287 300 301
f 287 301 293
f 287 298 299
f 288 302 289
f 289 302 303
f 289 303 304
f 289 304 290
f 290 304 305
f 290 306 291
f 291 306 292
f 294 307 295
f 295 307 308
f 295 308 309
f 295 309 310
f 295 310 296
f 296 310 311
f 296 311 297
f 297 311 312
f 297 312 298
f 298 312 313
f 298 313 314
f 298 314 299
f 299 314 300
f 300 314 315
f 302 316 303
f 303 316 317
f 303 317 304
f 304 317 318
f 304 318 305
f 305 318 320
f 305 320 319
f 308 321 322
f 308 322 323
f 308 323 311
f 308 311 309
f 309 311 310
f 311 323 324
f 311 324 325
f 311 325 326
f 311 326 314
f 311 314 313
f 311 313 312
f 314 326 327
f 314 327 315
f 316 328 317
f 317 328 329
f 317 329 318
f 318 329 330
f 318 330 331
f 318 331 320
f 319 320 332
f 320 331 333
f 320 333 332
f 321 334 335
f 321 335 336
f 321 336 322
f 322 337 338
f 322 338 339
f 322 339 340
f 322 340 341
f 322 341 324
f 322 324 323
f 322 336 342
f 322 342 335
f 322 335 343
f 322 343 337
f 329 344 330
f 330 344 345
f 330 345 346
f 330 346 347
f 330 347 333
f 330 333 331
f 332 333 348
f 333 349 350
f 333 350 348
f 333 347 351
f 333 351 349
f 334 352 353
f 334 353 335
f 335 353 343
f 335 342 336
f 337 354 355
f 337 355 338
f 337 343 354
f 338 355 339
f 339 356 340
f 339 355 356
f 340 356 357
f 340 357 341
f 343 353 354
f 346 351 347
f 348 350 358
f 349 359 360
f 349 360 361
f 349 361 362
f 349 362 350
f 349 351 363
f 349 363 359
f 350 362 358
f 351 364 363
f 352 365 366
f 352 366 353
f 353 366 367
f 353 367 354
f 354 368 369
f 354 369 355
f 354 367 368
f 355 369 370
f 355 370 356
f 356 370 371
f 358 362 372
f 359 373 360
f 359 363 364
f 360 374 361
f 360 373 374
f 361 374 375
f 361 375 362
f 362 375 376
f 362 376 377
f 362 377 378
f 362 378 372
f 365 379 366
f 366 379 380
f 366 380 381
f 366 381 368
f 366 368 367
f 368 381 382
f 368 382 369
f 369 382 383
f 369 383 384
f 369 384 371
f 369 371 370
f 373 385 386
f 373 386 374
f 374 386 387
f 374 387 377
f 374 377 376
f 374 376 375
f 377 388 378
f 377 387 389
f 377 389 388
f 379 390 380
f 380 390 391
f 380 391 381
f 381 391 392
f 381 392 393
f 381 393 394
f 381 394 395
f 381 395 382
f 382 396 397
f 382 397 383
f 382 395 394
f 382 394 396
f 385 398 399
f 385 399 386
f 386 399 387
f 387 400 401
f 387 401 389
f 387 399 402
f 387 402 400
f 389 403 404
f 389 401 403
f 391 405 392
f 392 406 407
f 392 407 393
f 392 405 406
f 393 396 394
f 393 407 408
f 393 408 409
f 393 409 396
f 396 409 397
f 398 410 411
f 398 411 399
f 399 411 402
f 400 412 403
f 400 403 401
f 400 402 411
f 400 411 412
f 403 413 404
f 403 412 413
f 404 413 414
f 404 414 415
f 405 416 406
f 406 416 417
f 406 417 418
f 406 418 419
f 406 419 407
f 407 419 408
f 408 419 420
f 408 420 409
f 410 421 411
f 411 421 422
f 411 422 423
f 411 423 412
f 412 423 424
f 412 424 425
f 412 425 426
f 412 426 414
f 412 414 413
f 414 426 427
f 414 427 415
f 417 428 426
f 417 426 429
f 417 429 430
f 417 430 431
f 417 431 418
f 418 431 430
f 418 430 419
f 419 432 433
f 419 433 434
f 419 434 420
f 419 430 432
f 422 435 423
f 423 435 436
f 423 436 424
f 424 436 425
f 425 429 426
f 425 436 429
f 426 428 427
f 429 436 432
f 429 432 430
f 432 436 433
f 433 436 435

