# https://github.com/mikedh/trimesh
v -0.00127282 0.03042157 0.00121177
v -0.00127282 0.03008676 0.00121034
v -0.00107668 0.03008676 0.00120747
v -0.00107668 0.03061891 0.00120891
v -0.00107668 0.03115105 0.00120318
v -0.00127282 0.03095372 0.00120461
v -0.00127282 0.02955462 0.00120747
v -0.00001228 0.03061891 0.00118457
v -0.00054438 0.03061891 0.00119746
v -0.00107668 0.02955462 0.00120318
v -0.00001228 0.03115105 0.00118744
v -0.00054438 0.03115105 0.00119746
v -0.00107668 0.03168098 0.00119030
v -0.00127282 0.03115105 0.00120032
v 0.00052001 0.03327741 0.00114021
v -0.00127282 0.02776085 0.00119030
v -0.00054438 0.02955462 0.00118887
v -0.00001228 0.03008676 0.00117885
v 0.00052001 0.03061891 0.00116597
v 0.00052001 0.03115105 0.00117026
v -0.00107668 0.02795819 0.00118744
v -0.00001228 0.03168098 0.00118028
v 0.00052001 0.03168098 0.00116597
v 0.00052001 0.03274527 0.00115166
v -0.00127282 0.03201800 0.00117742
v -0.00127282 0.03148586 0.00119173
v -0.00001228 0.03327741 0.00114307
v -0.00107668 0.03221312 0.00117456
v 0.00075304 0.03327741 0.00113162
v 0.00052001 0.03487385 0.00107580
v -0.00001228 0.03434170 0.00110729
v -0.00001228 0.03380956 0.00112732
v -0.00127282 0.02742604 0.00118601
v -0.00054438 0.02902247 0.00118314
v -0.00054438 0.02849033 0.00117599
v 0.00052001 0.03008676 0.00115452
v 0.00075304 0.03061891 0.00115023
v 0.00075304 0.03085172 0.00115452
v 0.00075304 0.03115105 0.00115738
v -0.00107668 0.02689168 0.00117026
v 0.00075304 0.03138165 0.00115738
v 0.00075304 0.03191379 0.00115309
v -0.00107668 0.02742604 0.00118028
v 0.00075304 0.03274527 0.00114307
v -0.00107668 0.03274527 0.00115452
v -0.00127282 0.03255015 0.00115452
v 0.00075304 0.03380956 0.00111015
v 0.00075304 0.03487385 0.00106578
v 0.00075304 0.03510666 0.00105576
v 0.00052001 0.03540821 0.00104861
v -0.00001228 0.03487385 0.00107723
v -0.00054438 0.03434170 0.00108725
v -0.00127282 0.02722870 0.00118314
v 0.00052001 0.02955462 0.00113877
v 0.00075304 0.03031958 0.00114307
v -0.00054438 0.02689168 0.00113591
v -0.00127282 0.02689168 0.00117599
v -0.00127282 0.02669656 0.00117169
v -0.00127282 0.02616441 0.00115452
v -0.00107668 0.02635953 0.00115023
v -0.00107668 0.03327741 0.00112160
v -0.00127282 0.03308229 0.00112160
v 0.00075304 0.03540821 0.00104002
v 0.00075304 0.03564102 0.00102571
v 0.00075304 0.03594035 0.00100281
v 0.00052001 0.03594035 0.00100710
v -0.00001228 0.03540821 0.00103859
v -0.00054438 0.03487385 0.00104288
v -0.00107668 0.03380956 0.00108153
v 0.00075304 0.02978743 0.00112732
v -0.00001228 0.02689168 0.00108009
v -0.00001228 0.02742604 0.00110586
v 0.00075304 0.02925529 0.00110586
v -0.00107668 0.02582739 0.00112589
v -0.00054438 0.02635953 0.00110729
v -0.00127282 0.02582739 0.00113877
v -0.00127282 0.03361444 0.00107723
v 0.00075304 0.03617317 0.00098420
v 0.00075304 0.03647250 0.00095558
v 0.00052001 0.03647250 0.00095558
v -0.00001228 0.03594035 0.00098849
v -0.00107668 0.03434170 0.00103000
v -0.00054438 0.03540821 0.00098993
v 0.00052001 0.02742604 0.00103859
v 0.00052001 0.02795819 0.00107294
v -0.00054438 0.02582739 0.00106721
v -0.00001228 0.02635953 0.00103716
v 0.00075304 0.02872314 0.00108296
v 0.00052001 0.02849033 0.00109727
v -0.00127282 0.02563227 0.00112876
v -0.00127282 0.02510013 0.00109870
v -0.00107668 0.02529524 0.00109154
v -0.00127282 0.03414658 0.00102141
v 0.00075304 0.03670531 0.00093268
v 0.00075304 0.03700464 0.00090119
v 0.00052001 0.03700464 0.00089833
v -0.00001228 0.03647250 0.00092266
v -0.00054438 0.03594035 0.00092409
v -0.00107668 0.03487385 0.00096559
v 0.00052001 0.02689168 0.00098993
v 0.00075304 0.02765885 0.00101426
v 0.00075304 0.02819100 0.00105290
v -0.00127282 0.02456798 0.00106006
v -0.00127282 0.02403584 0.00101569
v -0.00054438 0.02529524 0.00102141
v -0.00107668 0.02369881 0.00094699
v -0.00001228 0.02582739 0.00097704
v -0.00127282 0.03470090 0.00094556
v 0.00075304 0.03743923 0.00084537
v 0.00052001 0.03742149 0.00084251
v 0.00021004 0.03732615 0.00082676
v 0.00001469 0.03698690 0.00085110
v -0.00032345 0.03679844 0.00083249
v -0.00051821 0.03642815 0.00085396
v -0.00082045 0.03622195 0.00082247
v -0.00090216 0.03594035 0.00084823
v 0.00075304 0.02712671 0.00096416
v 0.00052001 0.02635953 0.00092838
v -0.00127282 0.02350369 0.00096273
v -0.00127282 0.02297155 0.00089689
v -0.00127282 0.02259905 0.00084823
v -0.00127282 0.03516209 0.00087686
v 0.00075304 0.03785386 0.00078526
v 0.00052001 0.03768756 0.00080100
v 0.00052001 0.03806893 0.00072515
v 0.00001469 0.03751683 0.00074518
v -0.00014476 0.03715320 0.00079241
v -0.00067825 0.03657671 0.00077810
v -0.00001228 0.03806893 0.00059920
v -0.00116831 0.03594035 0.00074948
v -0.00127282 0.03558116 0.00079814
v -0.00127282 0.03529069 0.00085539
v -0.00102948 0.03642815 0.00067362
v 0.00075304 0.02661009 0.00090262
v -0.00011878 0.02476310 0.00086398
v 0.00075304 0.02605577 0.00082676
v -0.00127282 0.02253918 0.00083965
v 0.00075304 0.03830174 0.00070654
v 0.00075304 0.03883389 0.00059061
v 0.00052001 0.03860108 0.00060063
v -0.00054438 0.03753679 0.00054338
v 0.00026279 0.03938821 0.00028289
v -0.00002954 0.03861216 0.00041600
v -0.00035756 0.03844365 0.00033299
v 0.00075304 0.03992257 0.00030150
v -0.00127282 0.03580288 0.00073803
v -0.00127282 0.03559224 0.00079528
v -0.00110346 0.03701573 0.00044462
v -0.00127282 0.03679400 0.00042745
v -0.00127282 0.03645033 0.00053765
v -0.00127282 0.03625521 0.00059920
v -0.00077722 0.02336622 0.00083106
v -0.00127282 0.02238175 0.00081388
v 0.00023661 0.02506243 0.00081388
v -0.00127282 0.01997823 0.00033442
v 0.00075304 0.02596708 0.00080816
v 0.00075304 0.03966537 0.00037020
v -0.00053883 0.03803345 0.00038165
v -0.00021834 0.03879841 0.00024997
v 0.00075304 0.03994474 0.00029291
v 0.00037841 0.03966537 0.00021706
v 0.00014836 0.04007113 -0.00015793
v -0.00071256 0.03818645 0.00021133
v -0.00082799 0.03783168 0.00029864
v -0.00092358 0.03753679 0.00035589
v -0.00127282 0.03692260 0.00038308
v -0.00032028 0.02403584 0.00080673
v -0.00127282 0.01997602 0.00033299
v -0.00100965 0.01997602 0.00010828
v 0.00075304 0.02391832 0.00026429
v 0.00075304 0.02396932 0.00028432
v 0.00075304 0.02428195 0.00038594
v 0.00075304 0.02499591 0.00058202
v 0.00075304 0.02556575 0.00071656
v -0.00002240 0.03965650 -0.00006204
v 0.00075304 0.03996691 0.00028146
v 0.00052715 0.04018864 0.00002527
v -0.00020644 0.03982723 -0.00032968
v -0.00032583 0.03947246 -0.00020230
v 0.00064317 0.04062544 -0.00014505
v 0.00028837 0.04042589 -0.00027815
v -0.00058207 0.03865207 0.00005389
v -0.00080657 0.03886050 -0.00024953
v -0.00091525 0.03850573 -0.00014362
v -0.00127282 0.03728180 0.00023137
v -0.00127282 0.03722637 0.00026142
v -0.00127282 0.01997602 -0.01253245
v -0.00073120 0.01997602 -0.00015936
v 0.00075304 0.02340170 0.00003529
v 0.00075304 0.02378307 0.00020704
v 0.00075304 0.04066979 -0.00011070
v -0.00003549 0.04022855 -0.00048139
v -0.00034686 0.04002900 -0.00068463
v 0.00075304 0.04086934 -0.00022377
v 0.00013547 0.04061657 -0.00063310
v 0.00075304 0.04095360 -0.00028531
v 0.00075304 0.04147687 -0.00074188
v 0.00027370 0.04097134 -0.00080915
v -0.00090870 0.03913322 -0.00063883
v -0.00127282 0.03851682 -0.00060162
v -0.00127005 0.03821971 -0.00034113
v -0.00127282 0.03791816 -0.00013646
v -0.00081946 0.03941260 -0.00076478
v -0.00101104 0.01997602 -0.01230917
v -0.00127282 0.02228419 -0.01299188
v -0.00087459 0.02300481 -0.01300046
v -0.00031631 0.02403140 -0.01300762
v 0.00075304 0.02605799 -0.01302623
v 0.00075304 0.02576309 -0.01296182
v 0.00075304 0.02527751 -0.01284732
v 0.00075304 0.02478084 -0.01272280
v 0.00075304 0.02449038 -0.01264122
v 0.00075304 0.02428860 -0.01258397
v 0.00075304 0.02400701 -0.01248808
v 0.00075304 0.02394049 -0.01246375
v -0.00044681 0.01997602 -0.00054580
v 0.00075304 0.02276756 -0.00028531
v 0.00075304 0.02286290 -0.00022234
v 0.00075304 0.02300924 -0.00015077
v -0.00021933 0.04038376 -0.00088357
v -0.00072248 0.03979840 -0.00104387
v 0.00075304 0.04151900 -0.00078625
v 0.00040142 0.04127288 -0.00100952
v 0.00017533 0.04110437 -0.00116409
v -0.00127282 0.03821084 -0.00033827
v -0.00127282 0.03879398 -0.00086640
v -0.00089819 0.03953233 -0.00104387
v -0.00116672 0.03911992 -0.00104959
v -0.00127282 0.03882059 -0.00089645
v -0.00073299 0.01997602 -0.01204439
v 0.00075304 0.02370325 -0.01235784
v 0.00075304 0.02316223 -0.01211309
v 0.00075304 0.02292720 -0.01200575
v -0.00127282 0.02253475 -0.01303911
v -0.00077523 0.02335957 -0.01303195
v 0.00075304 0.02612450 -0.01303625
v -0.00028319 0.01997602 -0.00078911
v 0.00075304 0.02224207 -0.00066459
v 0.00075304 0.02244384 -0.00051717
v 0.00075304 0.02258352 -0.00041699
v -0.00031492 0.04051236 -0.00123852
v -0.00080201 0.03991813 -0.00133012
v 0.00075304 0.04156335 -0.00084922
v 0.00068958 0.04163208 -0.00104387
v 0.00030999 0.04145914 -0.00146465
v -0.00127282 0.03902901 -0.00113833
v -0.00044185 0.01997602 -0.01164937
v 0.00075304 0.02286512 -0.01197570
v -0.00127282 0.02263452 -0.01305342
v -0.00106201 0.02317554 -0.01307775
v -0.00067964 0.02369881 -0.01305628
v 0.00052001 0.02635953 -0.01312785
v 0.00075304 0.02635953 -0.01306773
v -0.00051404 0.02421765 -0.01308777
v -0.00016995 0.01997602 -0.00101668
v 0.00075304 0.02196712 -0.00090933
v 0.00075304 0.02204029 -0.00083777
v -0.00039247 0.04060771 -0.00157629
v -0.00068381 0.04019973 -0.00153479
v -0.00087539 0.04002456 -0.00168507
v -0.00127282 0.03947690 -0.00176235
v -0.00127282 0.03928843 -0.00147324
v 0.00075304 0.04168751 -0.00103385
v 0.00075304 0.04180060 -0.00120274
v 0.00024633 0.04153674 -0.00181960
v -0.00025384 0.04096469 -0.00191263
v 0.00075304 0.04194915 -0.00145750
v 0.00074809 0.04210214 -0.00175806
v 0.00075304 0.02226424 -0.01151913
v -0.00043313 0.01997602 -0.01163506
v 0.00075304 0.02258796 -0.01176817
v -0.00127282 0.02317332 -0.01312212
v -0.00107668 0.02369881 -0.01315074
v -0.00054438 0.02476310 -0.01316506
v 0.00052001 0.02689168 -0.01319082
v 0.00075304 0.02690942 -0.01313643
v 0.00007319 0.01997602 -0.00157772
v 0.00075304 0.02170992 -0.00117841
v -0.00094619 0.04012656 -0.00210871
v -0.00121234 0.03973854 -0.00210871
v -0.00127282 0.03958998 -0.00198420
v -0.00075798 0.04039263 -0.00210871
v 0.00019913 0.04159217 -0.00210871
v -0.00031611 0.04104229 -0.00226758
v 0.00042561 0.04185824 -0.00210871
v -0.00047180 0.04076291 -0.00209726
v 0.00075304 0.04210436 -0.00175520
v 0.00075304 0.04210880 -0.00176665
v 0.00075304 0.04222409 -0.00210871
v 0.00069176 0.04216201 -0.00210871
v 0.00075304 0.02198708 -0.01128011
v -0.00017511 0.01997602 -0.01119567
v -0.00127282 0.02369881 -0.01318366
v -0.00107668 0.02423096 -0.01320943
v -0.00054438 0.02529524 -0.01322374
v 0.00052001 0.02742604 -0.01323805
v 0.00075304 0.02742604 -0.01319082
v -0.00001228 0.02635953 -0.01323662
v 0.00021301 0.01997602 -0.00199565
v 0.00075304 0.02137290 -0.00162352
v 0.00075304 0.02153697 -0.00139739
v -0.00127282 0.03986049 -0.00262110
v -0.00080240 0.04045250 -0.00241071
v -0.00127282 0.03964984 -0.00210871
v -0.00127282 0.03983166 -0.00255097
v -0.00014576 0.04137266 -0.00264114
v -0.00036490 0.04110659 -0.00264114
v 0.00075304 0.04226844 -0.00227760
v 0.00062532 0.04223075 -0.00264114
v 0.00035917 0.04194250 -0.00264114
v 0.00012039 0.04167643 -0.00264114
v 0.00075304 0.02171214 -0.01101533
v -0.00016916 0.01997602 -0.01118422
v -0.00127282 0.02423096 -0.01323662
v -0.00107668 0.02476310 -0.01325666
v -0.00054438 0.02582739 -0.01326954
v 0.00052001 0.02795819 -0.01327526
v 0.00075304 0.02795819 -0.01323519
v -0.00001228 0.02689168 -0.01327956
v 0.00028817 0.01997602 -0.00226186
v 0.00075304 0.02125981 -0.00179670
v -0.00127282 0.03986714 -0.00263970
v -0.00066199 0.04070305 -0.00260965
v -0.00084286 0.04050793 -0.00276565
v -0.00127282 0.03996470 -0.00293025
v -0.00020327 0.04143696 -0.00317356
v -0.00041508 0.04117089 -0.00317356
v -0.00068123 0.04082500 -0.00317356
v -0.00088371 0.04055893 -0.00317356
v 0.00075304 0.04236157 -0.00264114
v 0.00030801 0.04200458 -0.00317356
v 0.00006288 0.04173851 -0.00317356
v 0.00075304 0.02145715 -0.01068328
v 0.00007359 0.01997602 -0.01062603
v -0.00016658 0.01997602 -0.01117849
v -0.00127282 0.02476310 -0.01327813
v -0.00107668 0.02529524 -0.01329673
v -0.00054438 0.02635953 -0.01330818
v -0.00001228 0.02742604 -0.01330818
v 0.00052001 0.02849033 -0.01330103
v 0.00075304 0.02902247 -0.01329673
v 0.00075304 0.02849033 -0.01326811
v 0.00037167 0.01997602 -0.00264257
v 0.00075304 0.02109352 -0.00210871
v 0.00075304 0.02119108 -0.00191979
v -0.00117922 0.04015760 -0.00317213
v -0.00127282 0.04000017 -0.00305906
v 0.00007180 0.04183607 -0.00374176
v -0.00023698 0.04147687 -0.00370598
v -0.00045177 0.04121080 -0.00370598
v -0.00071772 0.04088043 -0.00370598
v -0.00092735 0.04061436 -0.00370598
v -0.00119349 0.04025738 -0.00370598
v -0.00127282 0.04005117 -0.00326373
v 0.00075304 0.04245469 -0.00317356
v 0.00057416 0.04227509 -0.00317356
v 0.00027509 0.04204006 -0.00358719
v 0.00075304 0.02126647 -0.01039704
v 0.00021301 0.01997602 -0.01020954
v -0.00127282 0.02529524 -0.01331247
v -0.00107668 0.02582739 -0.01332822
v -0.00054438 0.02689168 -0.01333538
v 0.00052001 0.02902247 -0.01332106
v 0.00075304 0.02955462 -0.01331820
v 0.00046964 0.01997602 -0.00317499
v 0.00075304 0.02086071 -0.00264114
v 0.00024990 0.04206445 -0.00394213
v -0.00027625 0.04152565 -0.00452894
v -0.00074747 0.04091812 -0.00423840
v -0.00095967 0.04065205 -0.00423840
v -0.00122582 0.04030172 -0.00423840
v -0.00127282 0.04014651 -0.00370598
v -0.00127282 0.04011104 -0.00353423
v 0.00075304 0.04251899 -0.00371170
v 0.00075304 0.02110017 -0.01009075
v 0.00028718 0.01997602 -0.00994333
v -0.00127282 0.02582739 -0.01333967
v -0.00107668 0.02635953 -0.01335255
v -0.00107668 0.02689168 -0.01336972
v -0.00054438 0.02742604 -0.01335112
v 0.00052001 0.02955462 -0.01333967
v 0.00075304 0.03008676 -0.01333681
v 0.00054381 0.01997602 -0.00370598
v 0.00075304 0.02065672 -0.00314779
v 0.00023721 0.04207775 -0.00423840
v 0.00075304 0.04255447 -0.00408096
v -0.00028994 0.04154117 -0.00488389
v -0.00046704 0.04131501 -0.00473218
v -0.00077146 0.04094916 -0.00476939
v -0.00098149 0.04068309 -0.00476939
v -0.00127282 0.04023520 -0.00423840
v 0.00075304 0.02101370 -0.00990898
v 0.00037207 0.01997602 -0.00956119
v -0.00127282 0.02635953 -0.01336114
v -0.00127282 0.02689168 -0.01337688
v -0.00107668 0.02742604 -0.01337974
v -0.00054438 0.02849033 -0.01337545
v -0.00001228 0.02955462 -0.01337116
v -0.00054438 0.02795819 -0.01336543
v 0.00052001 0.03008676 -0.01335398
v 0.00075304 0.03061891 -0.01334969
v 0.00059320 0.01997602 -0.00423840
v 0.00075304 0.02051703 -0.00370598
v 0.00056940 0.04239039 -0.00423124
v 0.00075304 0.04257221 -0.00438296
v 0.00022174 0.04209328 -0.00476939
v -0.00029906 0.04155226 -0.00530181
v -0.00053943 0.04126180 -0.00530181
v -0.00078475 0.04096247 -0.00530181
v -0.00098129 0.04067866 -0.00743007
v -0.00127282 0.04023520 -0.00796249
v -0.00079030 0.04096025 -0.00583424
v -0.00079030 0.04096025 -0.00636523
v 0.00075304 0.02085627 -0.00955976
v 0.00047004 0.01997602 -0.00902877
v -0.00127282 0.02742604 -0.01338547
v -0.00107668 0.02795819 -0.01338690
v -0.00054438 0.02902247 -0.01338404
v -0.00001228 0.03008676 -0.01337974
v 0.00052001 0.03061891 -0.01336543
v 0.00075304 0.03115105 -0.01335684
v 0.00063266 0.01997602 -0.00476939
v 0.00075304 0.02041725 -0.00423840
v 0.00075304 0.04258773 -0.00476939
v 0.00050613 0.04235935 -0.00476939
v 0.00021579 0.04209993 -0.00530181
v -0.00005036 0.04181833 -0.00530181
v 0.00075304 0.04262099 -0.00583424
v -0.00030402 0.04155670 -0.00583424
v -0.00055014 0.04126180 -0.00583424
v -0.00095967 0.04065205 -0.00796249
v -0.00122582 0.04030172 -0.00796249
v -0.00078416 0.04096247 -0.00689765
v -0.00076928 0.04094695 -0.00743007
v -0.00127282 0.04014651 -0.00849491
v -0.00054994 0.04126180 -0.00636523
v 0.00075304 0.02071437 -0.00919909
v 0.00054520 0.01997602 -0.00849635
v -0.00127282 0.02795819 -0.01339119
v -0.00107668 0.02849033 -0.01339262
v -0.00107668 0.02955462 -0.01340264
v -0.00001228 0.03115105 -0.01338833
v 0.00052001 0.03115105 -0.01336972
v 0.00075304 0.03168098 -0.01335398
v 0.00063286 0.01997602 -0.00477369
v 0.00075304 0.02034187 -0.00476939
v 0.00021361 0.04210214 -0.00583424
v -0.00005254 0.04182277 -0.00583424
v 0.00048729 0.04236822 -0.00583424
v 0.00075304 0.04262320 -0.00606896
v -0.00030402 0.04155670 -0.00636523
v -0.00074687 0.04091812 -0.00796249
v -0.00071891 0.04088043 -0.00849491
v -0.00092735 0.04061436 -0.00849491
v -0.00119349 0.04025738 -0.00849491
v -0.00053824 0.04126180 -0.00689765
v -0.00028934 0.04154117 -0.00728981
v -0.00046486 0.04131280 -0.00745154
v -0.00048072 0.04124184 -0.00796249
v -0.00127282 0.04005117 -0.00893574
v -0.00029846 0.04155004 -0.00689765
v 0.00075304 0.02064120 -0.00896866
v 0.00059597 0.01997602 -0.00796536
v 0.00075304 0.02059685 -0.00880549
v 0.00075304 0.02051260 -0.00849491
v -0.00127282 0.02955462 -0.01340694
v -0.00107668 0.03008676 -0.01340694
v -0.00054438 0.03115105 -0.01339835
v -0.00001228 0.03168098 -0.01338547
v -0.00107668 0.03061891 -0.01340837
v 0.00052001 0.03168098 -0.01336686
v 0.00075304 0.03274527 -0.01334253
v 0.00065448 0.01997602 -0.00530611
v 0.00075304 0.02029752 -0.00529609
v 0.00021599 0.04209993 -0.00636523
v -0.00005016 0.04182277 -0.00636523
v 0.00048610 0.04236600 -0.00636523
v 0.00075304 0.04262542 -0.00636666
v 0.00022312 0.04209106 -0.00743007
v -0.00023758 0.04147909 -0.00849491
v -0.00020307 0.04143696 -0.00902734
v -0.00041468 0.04117089 -0.00902734
v -0.00088272 0.04055893 -0.00902734
v -0.00068083 0.04082500 -0.00902734
v -0.00001109 0.04179394 -0.00796249
v -0.00026058 0.04150792 -0.00796249
v 0.00023740 0.04207775 -0.00796249
v 0.00025010 0.04206445 -0.00825303
v -0.00127282 0.04000017 -0.00914040
v -0.00117822 0.04015760 -0.00902734
v 0.00063484 0.01997602 -0.00743293
v 0.00075304 0.02047712 -0.00832746
v -0.00127282 0.03008676 -0.01340980
v -0.00107668 0.03115105 -0.01340551
v -0.00054438 0.03168098 -0.01339262
v -0.00001228 0.03221312 -0.01337545
v 0.00052001 0.03274527 -0.01335255
v -0.00127282 0.03061891 -0.01340837
v 0.00075304 0.03327741 -0.01333108
v 0.00066459 0.01997602 -0.00583424
v 0.00075304 0.02026204 -0.00579273
v 0.00075304 0.04260768 -0.00691482
v 0.00050633 0.04235713 -0.00743007
v 0.00007141 0.04183386 -0.00845627
v 0.00006308 0.04173629 -0.00902734
v 0.00011940 0.04167865 -0.00955976
v -0.00014675 0.04137266 -0.00955976
v -0.00036490 0.04110659 -0.00955976
v -0.00084167 0.04050571 -0.00943238
v 0.00075304 0.04256999 -0.00778502
v 0.00075304 0.04254782 -0.00808415
v 0.00027766 0.04203784 -0.00860798
v 0.00075304 0.04251234 -0.00848776
v 0.00075304 0.04246799 -0.00888564
v 0.00075304 0.04244804 -0.00902734
v -0.00127282 0.03986492 -0.00955976
v -0.00080220 0.04045250 -0.00978733
v 0.00063504 0.01997602 -0.00743007
v 0.00075304 0.02041060 -0.00796249
v -0.00127282 0.03115105 -0.01340264
v -0.00107668 0.03168098 -0.01339549
v -0.00054438 0.03221312 -0.01337974
v -0.00001228 0.03274527 -0.01336400
v 0.00052001 0.03327741 -0.01333824
v 0.00075304 0.03380956 -0.01331104
v 0.00066578 0.01997602 -0.00636523
v 0.00075304 0.02025983 -0.00583424
v 0.00075304 0.04258773 -0.00743007
v 0.00075304 0.04258551 -0.00748016
v 0.00030979 0.04200237 -0.00902734
v 0.00035937 0.04194472 -0.00955976
v 0.00069156 0.04216201 -0.01009075
v 0.00042541 0.04186046 -0.01009075
v -0.00031651 0.04104229 -0.00993904
v 0.00019635 0.04159439 -0.01009075
v -0.00066199 0.04070083 -0.00958981
v 0.00057594 0.04227066 -0.00902734
v 0.00075304 0.04239926 -0.00933219
v -0.00127282 0.03983166 -0.00964420
v -0.00075897 0.04039263 -0.01009075
v -0.00094559 0.04012656 -0.01009075
v 0.00065626 0.01997602 -0.00689765
v 0.00075304 0.02039730 -0.00787089
v 0.00075304 0.02033743 -0.00743007
v -0.00127282 0.03168098 -0.01338976
v -0.00107668 0.03221312 -0.01337545
v -0.00054438 0.03274527 -0.01336400
v -0.00001228 0.03327741 -0.01334539
v -0.00001228 0.03434170 -0.01330675
v 0.00052001 0.03434170 -0.01329816
v 0.00075304 0.03410889 -0.01329959
v 0.00075304 0.02025761 -0.00636523
v 0.00075304 0.02025761 -0.00631656
v 0.00075304 0.04235935 -0.00955976
v 0.00062552 0.04222853 -0.00955976
v 0.00075304 0.04222409 -0.01009075
v 0.00074789 0.04210214 -0.01044140
v 0.00024395 0.04154117 -0.01038559
v -0.00025642 0.04096690 -0.01029399
v -0.00047299 0.04076735 -0.01010649
v -0.00121174 0.03973632 -0.01009075
v -0.00127282 0.03969862 -0.00996194
v -0.00087519 0.04002456 -0.01051440
v 0.00075304 0.02029087 -0.00688334
v -0.00127282 0.03221312 -0.01336686
v -0.00107668 0.03274527 -0.01334969
v -0.00054438 0.03327741 -0.01334253
v -0.00001228 0.03487385 -0.01327956
v 0.00052001 0.03487385 -0.01327669
v 0.00075304 0.03464103 -0.01327813
v 0.00075304 0.04210436 -0.01044427
v 0.00075304 0.04209549 -0.01046430
v 0.00075304 0.04195137 -0.01074340
v 0.00030999 0.04145914 -0.01074053
v -0.00018998 0.04087821 -0.01062317
v -0.00039187 0.04061214 -0.01062317
v -0.00068321 0.04020194 -0.01066468
v -0.00127282 0.03947246 -0.01043139
v -0.00127282 0.03964319 -0.01009075
v -0.00080161 0.03991813 -0.01086935
v -0.00107391 0.03966093 -0.01061602
v -0.00127282 0.03274527 -0.01333538
v -0.00107668 0.03327741 -0.01331677
v 0.00052001 0.03540821 -0.01324807
v -0.00054438 0.03434170 -0.01327956
v -0.00054438 0.03487385 -0.01324091
v -0.00001228 0.03540821 -0.01323662
v 0.00075304 0.03487385 -0.01326811
v 0.00075304 0.03540821 -0.01324091
v 0.00075304 0.04169417 -0.01115559
v 0.00068998 0.04163208 -0.01115559
v 0.00017235 0.04110437 -0.01103108
v -0.00031274 0.04051014 -0.01095665
v -0.00127282 0.03928621 -0.01071763
v -0.00072069 0.03979840 -0.01115559
v -0.00089740 0.03953233 -0.01115559
v -0.00127282 0.03902679 -0.01105970
v -0.00021616 0.04037933 -0.01131160
v -0.00127282 0.03327741 -0.01329530
v -0.00107668 0.03380956 -0.01327383
v 0.00052001 0.03594035 -0.01320513
v 0.00075304 0.03594035 -0.01320084
v -0.00054438 0.03540821 -0.01318796
v -0.00001228 0.03594035 -0.01318653
v 0.00075304 0.04156335 -0.01134881
v 0.00040499 0.04127510 -0.01118708
v 0.00027885 0.04096690 -0.01138602
v -0.00034467 0.04002456 -0.01151340
v -0.00081926 0.03941260 -0.01143469
v -0.00127282 0.03881837 -0.01130301
v -0.00116593 0.03911770 -0.01114987
v -0.00127282 0.03380956 -0.01324664
v 0.00075304 0.03647250 -0.01315504
v 0.00052001 0.03647250 -0.01315504
v -0.00054438 0.03594035 -0.01312069
v -0.00001228 0.03647250 -0.01312355
v -0.00107668 0.03434170 -0.01321944
v -0.00107668 0.03487385 -0.01315790
v 0.00052001 0.03700464 -0.01309779
v 0.00075304 0.04147244 -0.01145759
v 0.00013864 0.04061214 -0.01156493
v -0.00003370 0.04022412 -0.01171664
v -0.00020624 0.03982723 -0.01186835
v -0.00080617 0.03886050 -0.01194993
v -0.00090831 0.03913322 -0.01156064
v -0.00127282 0.03851682 -0.01159785
v -0.00127282 0.03876959 -0.01135310
v -0.00127282 0.03435057 -0.01317937
v 0.00075304 0.03700464 -0.01309922
v -0.00108640 0.03539934 -0.01308205
v -0.00089581 0.03594035 -0.01304626
v -0.00081926 0.03621973 -0.01302193
v -0.00051781 0.03642594 -0.01305342
v -0.00032266 0.03679844 -0.01303195
v 0.00001528 0.03698690 -0.01305056
v 0.00021123 0.03732393 -0.01302623
v 0.00052001 0.03743258 -0.01304197
v -0.00127282 0.03487385 -0.01311210
v 0.00075304 0.03744588 -0.01304340
v 0.00075304 0.04094695 -0.01190986
v 0.00029115 0.04042367 -0.01191988
v 0.00014856 0.04006891 -0.01204153
v -0.00032583 0.03947246 -0.01199716
v -0.00058167 0.03865207 -0.01225336
v -0.00071217 0.03817980 -0.01241079
v -0.00091445 0.03850573 -0.01205584
v -0.00127282 0.03791594 -0.01206157
v -0.00126925 0.03821971 -0.01185833
v -0.00127282 0.03821749 -0.01185547
v -0.00127282 0.03822636 -0.01184831
v -0.00127282 0.03528404 -0.01305342
v -0.00127044 0.03557007 -0.01299474
v -0.00116196 0.03594035 -0.01294608
v -0.00102869 0.03642594 -0.01287165
v -0.00067746 0.03657449 -0.01297756
v -0.00014357 0.03715320 -0.01299188
v 0.00052001 0.03806893 -0.01293033
v -0.00001228 0.03806893 -0.01279866
v 0.00052001 0.03769865 -0.01300333
v 0.00075304 0.03771195 -0.01300762
v 0.00075304 0.04066535 -0.01208590
v 0.00064595 0.04062101 -0.01205012
v 0.00037960 0.03966537 -0.01241652
v 0.00026358 0.03938821 -0.01248235
v -0.00002220 0.03965650 -0.01213743
v 0.00052874 0.04018864 -0.01222330
v -0.00021775 0.03879841 -0.01244944
v -0.00035737 0.03844365 -0.01253245
v -0.00082422 0.03782503 -0.01249667
v -0.00127282 0.03727737 -0.01243083
v -0.00127282 0.03556785 -0.01299331
v -0.00127282 0.03594922 -0.01288597
v -0.00127282 0.03645033 -0.01273568
v -0.00110306 0.03701573 -0.01264408
v -0.00054438 0.03753679 -0.01274141
v -0.00051781 0.03698690 -0.01291888
v 0.00001528 0.03751461 -0.01294465
v 0.00075304 0.03806893 -0.01294894
v 0.00052001 0.03860108 -0.01280438
v 0.00075304 0.03860108 -0.01284160
v -0.00002914 0.03861216 -0.01261546
v 0.00075304 0.03992035 -0.01250096
v 0.00075304 0.03996691 -0.01248092
v -0.00092040 0.03753679 -0.01255392
v -0.00127282 0.03692260 -0.01258254
v -0.00127282 0.03717759 -0.01247663
v 0.00075304 0.03966537 -0.01256966
f 1 2 3
f 1 3 4
f 1 4 5
f 1 5 6
f 1 6 14
f 1 14 26
f 1 26 25
f 1 25 46
f 1 46 62
f 1 62 77
f 1 77 93
f 1 93 108
f 1 108 122
f 1 122 132
f 1 132 131
f 1 131 147
f 1 147 146
f 1 146 151
f 1 151 150
f 1 150 149
f 1 149 166
f 1 166 186
f 1 186 185
f 1 185 202
f 1 202 225
f 1 225 200
f 1 200 226
f 1 226 229
f 1 229 246
f 1 246 262
f 1 262 261
f 1 261 281
f 1 281 304
f 1 304 305
f 1 305 302
f 1 302 322
f 1 322 325
f 1 325 347
f 1 347 354
f 1 354 373
f 1 373 372
f 1 372 391
f 1 391 411
f 1 411 435
f 1 435 460
f 1 460 489
f 1 489 516
f 1 516 539
f 1 539 562
f 1 562 579
f 1 579 578
f 1 578 594
f 1 594 597
f 1 597 610
f 1 610 627
f 1 627 626
f 1 626 650
f 1 650 649
f 1 649 647
f 1 647 670
f 1 670 686
f 1 686 685
f 1 685 673
f 1 673 672
f 1 672 671
f 1 671 651
f 1 651 638
f 1 638 628
f 1 628 612
f 1 612 599
f 1 599 582
f 1 582 565
f 1 565 545
f 1 545 520
f 1 520 498
f 1 498 493
f 1 493 466
f 1 466 439
f 1 439 416
f 1 416 395
f 1 395 394
f 1 394 377
f 1 377 360
f 1 360 336
f 1 336 314
f 1 314 293
f 1 293 272
f 1 272 249
f 1 249 234
f 1 234 205
f 1 205 187
f 1 187 168
f 1 168 155
f 1 155 153
f 1 153 137
f 1 137 121
f 1 121 120
f 1 120 119
f 1 119 104
f 1 104 103
f 1 103 91
f 1 91 90
f 1 90 76
f 1 76 59
f 1 59 58
f 1 58 57
f 1 57 53
f 1 53 33
f 1 33 16
f 1 16 7
f 1 7 2
f 2 7 3
f 3 8 9
f 3 9 4
f 3 7 10
f 3 10 8
f 4 9 11
f 4 11 12
f 4 12 5
f 5 13 14
f 5 14 6
f 5 12 15
f 5 15 13
f 7 16 10
f 8 10 17
f 8 17 34
f 8 34 18
f 8 18 19
f 8 19 20
f 8 20 11
f 8 11 9
f 10 16 21
f 10 21 17
f 11 22 12
f 11 20 23
f 11 23 24
f 11 24 22
f 12 22 24
f 12 24 15
f 13 25 26
f 13 26 14
f 13 15 27
f 13 27 32
f 13 32 28
f 13 28 25
f 15 24 44
f 15 44 29
f 15 29 47
f 15 47 30
f 15 30 31
f 15 31 32
f 15 32 27
f 16 33 21
f 17 21 34
f 18 34 35
f 18 35 19
f 19 36 37
f 19 37 38
f 19 38 39
f 19 39 20
f 19 35 40
f 19 40 36
f 20 39 41
f 20 41 42
f 20 42 23
f 21 33 43
f 21 43 35
f 21 35 34
f 23 42 44
f 23 44 24
f 25 28 45
f 25 45 46
f 28 32 31
f 28 31 45
f 29 44 42
f 29 42 41
f 29 41 39
f 29 39 38
f 29 38 37
f 29 37 55
f 29 55 70
f 29 70 73
f 29 73 88
f 29 88 102
f 29 102 101
f 29 101 117
f 29 117 134
f 29 134 136
f 29 136 156
f 29 156 174
f 29 174 173
f 29 173 172
f 29 172 171
f 29 171 170
f 29 170 190
f 29 190 189
f 29 189 219
f 29 219 218
f 29 218 217
f 29 217 240
f 29 240 239
f 29 239 238
f 29 238 257
f 29 257 256
f 29 256 278
f 29 278 301
f 29 301 300
f 29 300 321
f 29 321 345
f 29 345 344
f 29 344 366
f 29 366 384
f 29 384 403
f 29 403 423
f 29 423 446
f 29 446 474
f 29 474 501
f 29 501 527
f 29 527 553
f 29 553 552
f 29 552 564
f 29 564 544
f 29 544 543
f 29 543 519
f 29 519 492
f 29 492 465
f 29 465 464
f 29 464 462
f 29 462 437
f 29 437 414
f 29 414 392
f 29 392 375
f 29 375 358
f 29 358 333
f 29 333 312
f 29 312 291
f 29 291 269
f 29 269 271
f 29 271 248
f 29 248 233
f 29 233 232
f 29 232 231
f 29 231 215
f 29 215 214
f 29 214 213
f 29 213 212
f 29 212 211
f 29 211 210
f 29 210 209
f 29 209 208
f 29 208 236
f 29 236 253
f 29 253 276
f 29 276 297
f 29 297 318
f 29 318 342
f 29 342 341
f 29 341 364
f 29 364 382
f 29 382 401
f 29 401 421
f 29 421 444
f 29 444 472
f 29 472 499
f 29 499 525
f 29 525 551
f 29 551 570
f 29 570 588
f 29 588 589
f 29 589 602
f 29 602 613
f 29 613 629
f 29 629 639
f 29 639 660
f 29 660 678
f 29 678 680
f 29 680 687
f 29 687 682
f 29 682 683
f 29 683 661
f 29 661 640
f 29 640 620
f 29 620 605
f 29 605 590
f 29 590 573
f 29 573 572
f 29 572 571
f 29 571 556
f 29 556 554
f 29 554 538
f 29 538 515
f 29 515 514
f 29 514 513
f 29 513 511
f 29 511 510
f 29 510 529
f 29 529 528
f 29 528 502
f 29 502 478
f 29 478 450
f 29 450 428
f 29 428 424
f 29 424 405
f 29 405 386
f 29 386 374
f 29 374 355
f 29 355 330
f 29 330 308
f 29 308 289
f 29 289 288
f 29 288 287
f 29 287 267
f 29 267 264
f 29 264 263
f 29 263 243
f 29 243 222
f 29 222 197
f 29 197 196
f 29 196 194
f 29 194 191
f 29 191 176
f 29 176 160
f 29 160 145
f 29 145 157
f 29 157 139
f 29 139 138
f 29 138 123
f 29 123 109
f 29 109 95
f 29 95 94
f 29 94 79
f 29 79 78
f 29 78 65
f 29 65 64
f 29 64 63
f 29 63 49
f 29 49 48
f 29 48 47
f 30 47 48
f 30 48 49
f 30 49 50
f 30 50 31
f 31 50 51
f 31 51 52
f 31 52 45
f 33 53 43
f 35 43 40
f 36 54 70
f 36 70 55
f 36 55 37
f 36 40 56
f 36 56 54
f 40 43 53
f 40 53 57
f 40 57 58
f 40 58 59
f 40 59 60
f 40 60 56
f 45 52 61
f 45 61 62
f 45 62 46
f 49 63 50
f 50 63 64
f 50 64 65
f 50 65 66
f 50 66 67
f 50 67 51
f 51 67 52
f 52 67 68
f 52 68 69
f 52 69 62
f 52 62 61
f 54 56 70
f 56 71 72
f 56 72 73
f 56 73 70
f 56 60 74
f 56 74 75
f 56 75 71
f 59 76 74
f 59 74 60
f 62 69 77
f 65 78 66
f 66 78 79
f 66 79 80
f 66 80 81
f 66 81 67
f 67 81 68
f 68 82 77
f 68 77 69
f 68 81 83
f 68 83 82
f 71 84 85
f 71 85 72
f 71 75 86
f 71 86 87
f 71 87 84
f 72 85 88
f 72 88 89
f 72 89 73
f 73 89 88
f 74 76 90
f 74 90 91
f 74 91 75
f 75 91 92
f 75 92 86
f 77 82 93
f 79 94 80
f 80 94 95
f 80 95 96
f 80 96 81
f 81 96 97
f 81 97 98
f 81 98 83
f 82 83 93
f 83 98 99
f 83 99 93
f 84 87 100
f 84 100 101
f 84 101 102
f 84 102 85
f 85 102 88
f 86 92 103
f 86 103 104
f 86 104 105
f 86 105 87
f 87 105 106
f 87 106 107
f 87 107 100
f 91 103 92
f 93 99 108
f 95 109 96
f 96 109 110
f 96 110 97
f 97 110 111
f 97 111 112
f 97 112 113
f 97 113 98
f 98 113 114
f 98 114 115
f 98 115 116
f 98 116 99
f 99 116 108
f 100 117 101
f 100 107 118
f 100 118 117
f 104 119 105
f 105 119 106
f 106 119 120
f 106 120 121
f 106 121 118
f 106 118 107
f 108 116 122
f 109 123 110
f 110 124 111
f 110 123 124
f 111 124 125
f 111 125 126
f 111 126 127
f 111 127 113
f 111 113 112
f 113 128 115
f 113 115 114
f 113 127 126
f 113 126 129
f 113 129 128
f 115 130 131
f 115 131 132
f 115 132 116
f 115 128 133
f 115 133 130
f 116 132 122
f 117 118 134
f 118 121 135
f 118 135 136
f 118 136 134
f 121 137 135
f 123 138 124
f 124 138 125
f 125 138 139
f 125 139 140
f 125 140 126
f 126 140 129
f 128 129 141
f 128 141 133
f 129 142 143
f 129 143 144
f 129 144 141
f 129 140 145
f 129 145 142
f 130 146 147
f 130 147 131
f 130 133 146
f 133 148 149
f 133 149 150
f 133 150 151
f 133 151 146
f 133 141 148
f 135 137 136
f 136 137 152
f 136 152 153
f 136 153 154
f 136 154 155
f 136 155 156
f 137 153 152
f 139 157 140
f 140 157 145
f 141 144 158
f 141 158 148
f 142 159 144
f 142 144 143
f 142 145 160
f 142 160 161
f 142 161 162
f 142 162 159
f 144 163 164
f 144 164 165
f 144 165 148
f 144 148 158
f 144 159 163
f 148 166 149
f 148 165 166
f 153 155 167
f 153 167 154
f 154 167 155
f 155 168 169
f 155 169 170
f 155 170 171
f 155 171 172
f 155 172 173
f 155 173 174
f 155 174 156
f 159 162 175
f 159 175 163
f 160 176 161
f 161 176 177
f 161 177 162
f 162 178 179
f 162 179 163
f 162 163 175
f 162 177 180
f 162 180 181
f 162 181 178
f 163 179 182
f 163 182 183
f 163 183 184
f 163 184 185
f 163 185 186
f 163 186 164
f 164 186 166
f 164 166 165
f 168 187 204
f 168 204 230
f 168 230 247
f 168 247 270
f 168 270 292
f 168 292 313
f 168 313 335
f 168 335 334
f 168 334 359
f 168 359 376
f 168 376 393
f 168 393 415
f 168 415 438
f 168 438 463
f 168 463 491
f 168 491 518
f 168 518 542
f 168 542 526
f 168 526 500
f 168 500 473
f 168 473 445
f 168 445 422
f 168 422 402
f 168 402 383
f 168 383 365
f 168 365 343
f 168 343 320
f 168 320 299
f 168 299 277
f 168 277 255
f 168 255 237
f 168 237 216
f 168 216 188
f 168 188 169
f 169 188 189
f 169 189 190
f 169 190 170
f 176 191 180
f 176 180 177
f 178 181 192
f 178 192 193
f 178 193 183
f 178 183 179
f 179 183 182
f 180 191 194
f 180 194 181
f 181 195 192
f 181 194 196
f 181 196 197
f 181 197 198
f 181 198 195
f 183 199 200
f 183 200 201
f 183 201 202
f 183 202 184
f 183 193 203
f 183 203 199
f 184 202 185
f 187 205 206
f 187 206 207
f 187 207 208
f 187 208 209
f 187 209 210
f 187 210 211
f 187 211 212
f 187 212 213
f 187 213 214
f 187 214 215
f 187 215 204
f 188 216 217
f 188 217 218
f 188 218 219
f 188 219 189
f 192 195 193
f 193 195 198
f 193 198 220
f 193 220 221
f 193 221 203
f 197 222 198
f 198 222 223
f 198 223 224
f 198 224 220
f 199 203 200
f 200 225 201
f 200 203 226
f 201 225 202
f 203 221 227
f 203 227 228
f 203 228 229
f 203 229 226
f 204 215 231
f 204 231 232
f 204 232 233
f 204 233 230
f 205 234 206
f 206 235 207
f 206 234 235
f 207 235 208
f 208 235 236
f 216 237 238
f 216 238 239
f 216 239 240
f 216 240 217
f 220 241 242
f 220 242 221
f 220 224 241
f 221 242 227
f 222 243 244
f 222 244 223
f 223 244 245
f 223 245 224
f 224 245 241
f 227 242 246
f 227 246 228
f 228 246 229
f 230 233 248
f 230 248 247
f 234 249 235
f 235 249 250
f 235 250 251
f 235 251 236
f 236 252 253
f 236 251 254
f 236 254 252
f 237 255 256
f 237 256 257
f 237 257 238
f 241 258 259
f 241 259 242
f 241 245 258
f 242 260 261
f 242 261 262
f 242 262 246
f 242 259 260
f 243 263 244
f 244 263 264
f 244 264 245
f 245 265 266
f 245 266 258
f 245 264 267
f 245 267 268
f 245 268 265
f 247 269 270
f 247 248 271
f 247 271 269
f 249 272 273
f 249 273 250
f 250 273 254
f 250 254 251
f 252 254 273
f 252 273 274
f 252 274 275
f 252 275 276
f 252 276 253
f 255 277 278
f 255 278 256
f 258 260 259
f 258 266 260
f 260 279 280
f 260 280 281
f 260 281 261
f 260 266 282
f 260 282 279
f 265 283 284
f 265 284 266
f 265 268 285
f 265 285 283
f 266 284 286
f 266 286 282
f 267 287 268
f 268 287 288
f 268 288 289
f 268 289 290
f 268 290 285
f 269 291 292
f 269 292 270
f 272 293 273
f 273 293 294
f 273 294 295
f 273 295 274
f 274 295 275
f 275 296 297
f 275 297 276
f 275 295 298
f 275 298 296
f 277 299 300
f 277 300 301
f 277 301 278
f 279 302 280
f 279 282 303
f 279 303 302
f 280 304 281
f 280 302 305
f 280 305 304
f 282 286 284
f 282 284 303
f 283 285 284
f 284 285 306
f 284 306 307
f 284 307 303
f 285 290 311
f 285 311 306
f 289 308 290
f 290 308 309
f 290 309 310
f 290 310 311
f 291 312 313
f 291 313 292
f 293 314 294
f 294 315 295
f 294 314 315
f 295 315 316
f 295 316 298
f 296 317 318
f 296 318 297
f 296 298 319
f 296 319 317
f 298 316 319
f 299 320 321
f 299 321 300
f 302 303 322
f 303 323 324
f 303 324 325
f 303 325 322
f 303 307 323
f 306 311 326
f 306 326 307
f 307 326 327
f 307 327 328
f 307 328 329
f 307 329 324
f 307 324 323
f 308 330 309
f 309 331 310
f 309 330 331
f 310 331 332
f 310 332 311
f 311 332 326
f 312 333 334
f 312 334 335
f 312 335 313
f 314 336 315
f 315 336 337
f 315 337 316
f 316 338 319
f 316 337 338
f 317 319 339
f 317 339 340
f 317 340 341
f 317 341 342
f 317 342 318
f 319 338 339
f 320 343 344
f 320 344 345
f 320 345 321
f 324 329 346
f 324 346 347
f 324 347 325
f 326 332 348
f 326 348 349
f 326 349 350
f 326 350 351
f 326 351 327
f 327 351 352
f 327 352 328
f 328 352 329
f 329 352 353
f 329 353 354
f 329 354 346
f 330 355 356
f 330 356 331
f 331 356 357
f 331 357 332
f 332 357 348
f 333 358 359
f 333 359 334
f 336 360 337
f 337 360 361
f 337 361 338
f 338 361 362
f 338 362 339
f 339 362 340
f 340 363 364
f 340 364 341
f 340 362 363
f 343 365 366
f 343 366 344
f 346 354 347
f 348 357 367
f 348 367 349
f 349 367 368
f 349 368 369
f 349 369 350
f 350 369 351
f 351 369 370
f 351 370 352
f 352 370 371
f 352 371 353
f 353 371 372
f 353 372 373
f 353 373 354
f 355 374 367
f 355 367 357
f 355 357 356
f 358 375 376
f 358 376 359
f 360 377 361
f 361 377 378
f 361 378 362
f 362 379 380
f 362 380 381
f 362 381 363
f 362 378 379
f 363 381 382
f 363 382 364
f 365 383 384
f 365 384 366
f 367 385 368
f 367 374 386
f 367 386 385
f 368 385 387
f 368 387 388
f 368 388 389
f 368 389 369
f 369 389 370
f 370 389 390
f 370 390 371
f 371 390 391
f 371 391 372
f 375 392 393
f 375 393 376
f 377 394 378
f 378 394 379
f 379 395 396
f 379 396 397
f 379 397 398
f 379 398 399
f 379 399 380
f 379 394 395
f 380 399 400
f 380 400 381
f 381 400 382
f 382 400 401
f 383 402 403
f 383 403 384
f 385 386 404
f 385 404 405
f 385 405 406
f 385 406 387
f 386 405 404
f 387 407 408
f 387 408 389
f 387 389 388
f 387 406 407
f 389 408 409
f 389 409 390
f 390 410 411
f 390 411 391
f 390 409 412
f 390 412 413
f 390 413 410
f 392 414 393
f 393 414 415
f 395 416 396
f 396 416 417
f 396 417 418
f 396 418 397
f 397 418 419
f 397 419 398
f 398 419 420
f 398 420 399
f 399 420 400
f 400 420 401
f 401 420 421
f 402 422 403
f 403 422 423
f 405 424 425
f 405 425 406
f 406 426 427
f 406 427 407
f 406 425 428
f 406 428 426
f 407 429 430
f 407 430 408
f 407 427 429
f 408 430 409
f 409 430 412
f 410 431 432
f 410 432 411
f 410 413 433
f 410 433 434
f 410 434 431
f 411 432 435
f 412 430 413
f 413 430 436
f 413 436 433
f 414 437 415
f 415 437 438
f 416 439 440
f 416 440 417
f 417 440 418
f 418 440 441
f 418 441 419
f 419 442 443
f 419 443 420
f 419 441 467
f 419 467 442
f 420 443 421
f 421 443 471
f 421 471 444
f 422 445 446
f 422 446 423
f 424 428 425
f 426 447 448
f 426 448 427
f 426 428 449
f 426 449 447
f 427 448 429
f 428 450 449
f 429 451 430
f 429 448 451
f 430 451 436
f 431 434 452
f 431 452 453
f 431 453 454
f 431 454 432
f 432 454 455
f 432 455 435
f 433 436 456
f 433 456 457
f 433 457 434
f 434 457 458
f 434 458 459
f 434 459 452
f 435 455 460
f 436 451 461
f 436 461 456
f 437 462 438
f 438 462 464
f 438 464 465
f 438 465 463
f 439 466 440
f 440 466 441
f 441 466 467
f 442 468 469
f 442 469 471
f 442 471 443
f 442 467 470
f 442 470 468
f 444 471 472
f 445 473 446
f 446 473 474
f 447 475 476
f 447 476 451
f 447 451 448
f 447 449 477
f 447 477 475
f 449 450 478
f 449 478 477
f 451 476 479
f 451 479 461
f 452 459 480
f 452 480 453
f 453 480 481
f 453 481 482
f 453 482 454
f 454 483 455
f 454 482 484
f 454 484 483
f 455 483 460
f 456 461 457
f 457 485 486
f 457 486 458
f 457 461 479
f 457 479 487
f 457 487 488
f 457 488 485
f 458 486 459
f 459 486 480
f 460 483 490
f 460 490 489
f 463 465 492
f 463 492 491
f 466 493 467
f 467 493 470
f 468 494 495
f 468 495 469
f 468 470 494
f 469 495 496
f 469 496 497
f 469 497 471
f 470 493 498
f 470 498 494
f 471 497 472
f 472 497 499
f 473 500 501
f 473 501 474
f 475 479 476
f 475 477 479
f 477 478 479
f 478 502 479
f 479 502 503
f 479 503 487
f 480 486 488
f 480 488 504
f 480 504 481
f 481 504 505
f 481 505 506
f 481 506 507
f 481 507 508
f 481 508 482
f 482 508 484
f 483 509 489
f 483 489 490
f 483 484 508
f 483 508 509
f 485 488 486
f 487 503 510
f 487 510 511
f 487 511 488
f 488 512 505
f 488 505 504
f 488 511 513
f 488 513 514
f 488 514 515
f 488 515 512
f 489 509 517
f 489 517 516
f 491 492 518
f 492 519 518
f 494 520 521
f 494 521 495
f 494 498 520
f 495 521 522
f 495 522 523
f 495 523 496
f 496 523 497
f 497 523 524
f 497 524 499
f 499 524 550
f 499 550 525
f 500 526 527
f 500 527 501
f 502 528 503
f 503 528 529
f 503 529 510
f 505 512 530
f 505 530 531
f 505 531 506
f 506 531 532
f 506 532 533
f 506 533 507
f 507 534 508
f 507 533 535
f 507 535 534
f 508 534 517
f 508 517 536
f 508 536 509
f 509 536 517
f 512 515 537
f 512 537 530
f 515 538 537
f 516 517 539
f 517 540 541
f 517 541 539
f 517 534 540
f 518 519 543
f 518 543 544
f 518 544 542
f 520 545 521
f 521 545 546
f 521 546 547
f 521 547 523
f 521 523 522
f 523 547 548
f 523 548 524
f 524 548 549
f 524 549 550
f 525 550 551
f 526 542 552
f 526 552 553
f 526 553 527
f 530 537 538
f 530 538 554
f 530 554 555
f 530 555 531
f 531 555 532
f 532 555 554
f 532 554 556
f 532 556 557
f 532 557 533
f 533 557 558
f 533 558 535
f 534 535 558
f 534 558 559
f 534 559 560
f 534 560 540
f 539 541 561
f 539 561 562
f 540 560 559
f 540 559 563
f 540 563 541
f 541 563 561
f 542 544 564
f 542 564 552
f 545 565 546
f 546 565 566
f 546 566 567
f 546 567 547
f 547 567 549
f 547 549 548
f 549 568 569
f 549 569 550
f 549 567 568
f 550 569 570
f 550 570 551
f 556 571 557
f 557 571 572
f 557 572 573
f 557 573 574
f 557 574 558
f 558 574 559
f 559 574 575
f 559 575 576
f 559 576 577
f 559 577 563
f 561 578 579
f 561 579 562
f 561 563 578
f 563 577 580
f 563 580 581
f 563 581 578
f 565 582 566
f 566 582 583
f 566 583 568
f 566 568 567
f 568 584 569
f 568 583 585
f 568 585 586
f 568 586 587
f 568 587 584
f 569 588 570
f 569 584 589
f 569 589 588
f 573 590 591
f 573 591 574
f 574 591 592
f 574 592 575
f 575 592 576
f 576 592 577
f 577 592 593
f 577 593 580
f 578 581 594
f 580 595 596
f 580 596 597
f 580 597 594
f 580 594 581
f 580 593 598
f 580 598 595
f 582 599 583
f 583 599 600
f 583 600 586
f 583 586 585
f 584 587 601
f 584 601 602
f 584 602 589
f 586 600 603
f 586 603 604
f 586 604 587
f 587 604 614
f 587 614 601
f 590 605 591
f 591 605 606
f 591 606 592
f 592 606 607
f 592 607 598
f 592 598 593
f 595 598 608
f 595 608 609
f 595 609 596
f 596 609 610
f 596 610 611
f 596 611 597
f 597 611 610
f 598 607 608
f 599 612 600
f 600 612 603
f 601 613 602
f 601 614 613
f 603 615 616
f 603 616 604
f 603 612 617
f 603 617 618
f 603 618 615
f 604 616 619
f 604 619 614
f 605 620 607
f 605 607 606
f 607 620 621
f 607 621 608
f 608 621 622
f 608 622 623
f 608 623 624
f 608 624 609
f 609 624 625
f 609 625 626
f 609 626 627
f 609 627 610
f 612 628 618
f 612 618 617
f 613 614 629
f 614 619 629
f 615 618 630
f 615 630 631
f 615 631 632
f 615 632 633
f 615 633 634
f 615 634 616
f 616 634 635
f 616 635 636
f 616 636 637
f 616 637 619
f 618 628 638
f 618 638 630
f 619 637 639
f 619 639 629
f 620 640 641
f 620 641 621
f 621 641 622
f 622 641 623
f 623 641 642
f 623 642 643
f 623 643 624
f 624 644 645
f 624 645 646
f 624 646 647
f 624 647 648
f 624 648 649
f 624 649 650
f 624 650 626
f 624 626 625
f 624 643 644
f 630 651 631
f 630 638 651
f 631 651 632
f 632 651 652
f 632 652 653
f 632 653 654
f 632 654 655
f 632 655 634
f 632 634 633
f 634 656 657
f 634 657 636
f 634 636 635
f 634 655 658
f 634 658 656
f 636 657 659
f 636 659 637
f 637 659 660
f 637 660 639
f 640 661 662
f 640 662 641
f 641 662 642
f 642 663 664
f 642 664 665
f 642 665 643
f 642 662 666
f 642 666 663
f 643 665 644
f 644 665 645
f 645 665 667
f 645 667 668
f 645 668 669
f 645 669 670
f 645 670 646
f 646 670 647
f 647 649 648
f 651 671 652
f 652 671 672
f 652 672 653
f 653 672 654
f 654 672 673
f 654 673 674
f 654 674 675
f 654 675 655
f 655 675 676
f 655 676 658
f 656 658 677
f 656 677 657
f 657 678 659
f 657 677 679
f 657 679 680
f 657 680 678
f 658 679 677
f 658 676 675
f 658 675 668
f 658 668 681
f 658 681 664
f 658 664 682
f 658 682 679
f 659 678 660
f 661 683 662
f 662 683 666
f 663 666 683
f 663 683 664
f 664 681 668
f 664 668 667
f 664 667 665
f 664 683 682
f 668 675 674
f 668 674 684
f 668 684 669
f 669 684 685
f 669 685 686
f 669 686 670
f 673 685 674
f 674 685 684
f 679 682 687
f 679 687 680

