# https://github.com/mikedh/trimesh
v 0.00075367 0.03115137 0.00115779
v 0.00075367 0.03085117 0.00115352
v 0.00105267 0.03115137 0.00113931
v 0.00105267 0.03168323 0.00113931
v 0.00075367 0.03168323 0.00115494
v 0.00075367 0.03061951 0.00114926
v 0.00105267 0.03061951 0.00113079
v 0.00158506 0.03115137 0.00108816
v 0.00158506 0.03221509 0.00109953
v 0.00105267 0.03221509 0.00113505
v 0.00075367 0.03191725 0.00115352
v 0.00158506 0.03274459 0.00109953
v 0.00075367 0.03031931 0.00114358
v 0.00075367 0.02978744 0.00112653
v 0.00105267 0.03008765 0.00111232
v 0.00158506 0.03061951 0.00107111
v 0.00211745 0.03168323 0.00102423
v 0.00211745 0.03221509 0.00103702
v 0.00211745 0.03274459 0.00104554
v 0.00105267 0.03274459 0.00113079
v 0.00075367 0.03244675 0.00114642
v 0.00211745 0.03327881 0.00104554
v 0.00158506 0.03327881 0.00109385
v 0.00075367 0.02955343 0.00111800
v 0.00075367 0.02925558 0.00110664
v 0.00105267 0.02955343 0.00109101
v 0.00105267 0.02902157 0.00106259
v 0.00158506 0.03008765 0.00104128
v 0.00211745 0.03115137 0.00100292
v 0.00264984 0.03221509 0.00093187
v 0.00264984 0.03274459 0.00095176
v 0.00264984 0.03327881 0.00096739
v 0.00075367 0.03274459 0.00114216
v 0.00105267 0.03327881 0.00112084
v 0.00075367 0.03297861 0.00113789
v 0.00264984 0.03381067 0.00096739
v 0.00211745 0.03381067 0.00103702
v 0.00158506 0.03381067 0.00107680
v 0.00075367 0.02872372 0.00108248
v 0.00075367 0.02818950 0.00105264
v 0.00105267 0.02848971 0.00102707
v 0.00158506 0.02955343 0.00100860
v 0.00211745 0.03061951 0.00097166
v 0.00264984 0.03168323 0.00091056
v 0.00309896 0.03327881 0.00086936
v 0.00313428 0.03381067 0.00087220
v 0.00075367 0.03327881 0.00113079
v 0.00075367 0.03487440 0.00106543
v 0.00075367 0.03351047 0.00112226
v 0.00315447 0.03434253 0.00086794
v 0.00315068 0.03487440 0.00086652
v 0.00314375 0.03540625 0.00086225
v 0.00264984 0.03487440 0.00094892
v 0.00211745 0.03434253 0.00101854
v 0.00264984 0.03540625 0.00093472
v 0.00211745 0.03540625 0.00097592
v 0.00105267 0.03540625 0.00102991
v 0.00075367 0.03510841 0.00105549
v 0.00075367 0.02765764 0.00101428
v 0.00105267 0.02795784 0.00098444
v 0.00158506 0.02902157 0.00096882
v 0.00211745 0.03008765 0.00093045
v 0.00267633 0.03117737 0.00087362
v 0.00292612 0.03137357 0.00082247
v 0.00336515 0.03327881 0.00079547
v 0.00340048 0.03381067 0.00080684
v 0.00342066 0.03434253 0.00081252
v 0.00341688 0.03487440 0.00081252
v 0.00340994 0.03540625 0.00081110
v 0.00336831 0.03594048 0.00080684
v 0.00310211 0.03594048 0.00084804
v 0.00264984 0.03594048 0.00090346
v 0.00211745 0.03594048 0.00094608
v 0.00158506 0.03594048 0.00097450
v 0.00075367 0.03540625 0.00103986
v 0.00105267 0.03594048 0.00099723
v 0.00075367 0.03564027 0.00102565
v 0.00075367 0.02712578 0.00096455
v 0.00105267 0.02742598 0.00093045
v 0.00163237 0.02844716 0.00089777
v 0.00191370 0.02859844 0.00084094
v 0.00199318 0.02902157 0.00086367
v 0.00214016 0.02956997 0.00087788
v 0.00240509 0.02975671 0.00082673
v 0.00245177 0.03008765 0.00084236
v 0.00287187 0.03101900 0.00080684
v 0.00408047 0.03077080 0.00033086
v 0.00371398 0.03274459 0.00062924
v 0.00371398 0.03327881 0.00067044
v 0.00371398 0.03381067 0.00070028
v 0.00371398 0.03434253 0.00071875
v 0.00371398 0.03540625 0.00072870
v 0.00371398 0.03594048 0.00072585
v 0.00371398 0.03647234 0.00070028
v 0.00371398 0.03700420 0.00067186
v 0.00371398 0.03753606 0.00063918
v 0.00318412 0.03651725 0.00079690
v 0.00300813 0.03637070 0.00083242
v 0.00290341 0.03672527 0.00081821
v 0.00269525 0.03651725 0.00085373
v 0.00211745 0.03647234 0.00090488
v 0.00158506 0.03647234 0.00093472
v 0.00075367 0.03594048 0.00100292
v 0.00105267 0.03647234 0.00095603
v 0.00075367 0.02661047 0.00090204
v 0.00105204 0.02692958 0.00086794
v 0.00133085 0.02713287 0.00082389
v 0.00184116 0.02824387 0.00081679
v 0.00348122 0.02869772 0.00030529
v 0.00233318 0.02940214 0.00080400
v 0.00436117 0.03115137 0.00019162
v 0.00521211 0.03327881 -0.00006981
v 0.00481913 0.03327881 0.00019588
v 0.00454726 0.03297152 0.00029676
v 0.00425268 0.03060296 0.00017031
v 0.00463935 0.03061951 -0.00010391
v 0.00424574 0.03434253 0.00049852
v 0.00424574 0.03487440 0.00052268
v 0.00424574 0.03540625 0.00054257
v 0.00424574 0.03594048 0.00055251
v 0.00424574 0.03647234 0.00054541
v 0.00424574 0.03700420 0.00053262
v 0.00424574 0.03753606 0.00050989
v 0.00424574 0.03806792 0.00046300
v 0.00424574 0.03859978 0.00041043
v 0.00371398 0.03806792 0.00058235
v 0.00318159 0.03753606 0.00071449
v 0.00318159 0.03700420 0.00075995
v 0.00264984 0.03753606 0.00076564
v 0.00254828 0.03689546 0.00083384
v 0.00215845 0.03704675 0.00085231
v 0.00200832 0.03737532 0.00083242
v 0.00158506 0.03700420 0.00088641
v 0.00075367 0.03617213 0.00098444
v 0.00075367 0.03647234 0.00095603
v 0.00105267 0.03700420 0.00090488
v 0.00075367 0.02635990 0.00086794
v 0.00079152 0.02608333 0.00082105
v 0.00372534 0.02847079 0.00002965
v 0.00403253 0.02860081 -0.00017921
v 0.00100284 0.02587532 0.00068607
v 0.00075367 0.02499597 0.00058235
v 0.00075367 0.02428210 0.00038628
v 0.00087479 0.02434119 0.00034223
v 0.00292486 0.02608570 -0.00023747
v 0.00516228 0.03274459 -0.00012522
v 0.00562654 0.03505641 -0.00019484
v 0.00566061 0.03540625 -0.00016074
v 0.00531052 0.03540625 0.00001970
v 0.00463494 0.03540625 0.00036070
v 0.00396945 0.02824623 -0.00027015
v 0.00610090 0.03153667 -0.00240707
v 0.00558807 0.03297861 -0.00074044
v 0.00542343 0.03278005 -0.00054295
v 0.00465134 0.03594048 0.00036780
v 0.00466143 0.03647234 0.00036923
v 0.00466269 0.03700420 0.00036780
v 0.00465134 0.03753606 0.00035786
v 0.00462358 0.03806792 0.00033655
v 0.00458448 0.03859978 0.00031523
v 0.00454663 0.03896381 0.00029961
v 0.00427034 0.03913873 0.00034365
v 0.00318159 0.03806792 0.00065055
v 0.00371398 0.03859978 0.00051273
v 0.00264984 0.03806792 0.00070170
v 0.00211745 0.03806792 0.00074290
v 0.00236346 0.03725240 0.00081679
v 0.00158506 0.03743205 0.00083952
v 0.00158506 0.03806792 0.00076422
v 0.00075367 0.03670399 0.00093329
v 0.00075367 0.03700420 0.00090062
v 0.00158506 0.03859978 0.00069744
v 0.00105267 0.03746278 0.00084662
v 0.00075367 0.03720513 0.00087646
v 0.00075367 0.02605733 0.00082673
v 0.00075367 0.02596514 0.00080826
v 0.00075367 0.02556565 0.00071733
v 0.00075367 0.02397007 0.00028398
v 0.00075367 0.02391807 0.00026408
v 0.00075367 0.02378333 0.00020725
v 0.00075367 0.02340276 0.00003533
v 0.00075367 0.02316165 -0.00007834
v 0.00075367 0.02301036 -0.00015080
v 0.00075367 0.02286380 -0.00022326
v 0.00079152 0.02289217 -0.00024031
v 0.00075367 0.02276689 -0.00028578
v 0.00075367 0.02258251 -0.00041649
v 0.00075367 0.02244304 -0.00051737
v 0.00075367 0.02224212 -0.00066372
v 0.00237923 0.02397244 -0.00131588
v 0.00267948 0.02419227 -0.00153184
v 0.00327810 0.02634099 -0.00052305
v 0.00547831 0.03327881 -0.00047333
v 0.00589085 0.03540625 -0.00051169
v 0.00619678 0.03753606 -0.00066087
v 0.00586561 0.03753606 -0.00039376
v 0.00560573 0.03793318 -0.00023178
v 0.00488978 0.03806792 0.00021151
v 0.00491753 0.03753606 0.00021436
v 0.00514651 0.02907121 -0.00213001
v 0.00348564 0.02650409 -0.00070776
v 0.00453212 0.02711869 -0.00234740
v 0.00535720 0.02902157 -0.00264151
v 0.00613938 0.03134520 -0.00276086
v 0.00664527 0.03353647 -0.00289158
v 0.00658156 0.03381067 -0.00255910
v 0.00485067 0.03859978 0.00020299
v 0.00474596 0.03913873 0.00019588
v 0.00477813 0.03966587 0.00010779
v 0.00446399 0.03931838 0.00027545
v 0.00410949 0.03955477 0.00031666
v 0.00371398 0.03913401 0.00044169
v 0.00318159 0.03913401 0.00049994
v 0.00264984 0.03859978 0.00062782
v 0.00211745 0.03859978 0.00067470
v 0.00105267 0.03859978 0.00068181
v 0.00105267 0.03806792 0.00076422
v 0.00211745 0.03913401 0.00059514
v 0.00158506 0.03913401 0.00061219
v 0.00075367 0.03743914 0.00084520
v 0.00075367 0.02204119 -0.00083848
v 0.00075367 0.02196555 -0.00090952
v 0.00075367 0.02171026 -0.00117806
v 0.00295703 0.02441211 -0.00174923
v 0.00639548 0.03753606 -0.00104450
v 0.00668060 0.03966587 -0.00175917
v 0.00652038 0.03966587 -0.00149348
v 0.00617092 0.03797810 -0.00069213
v 0.00550291 0.03966587 -0.00030567
v 0.00554139 0.03913401 -0.00027725
v 0.00527519 0.03913401 -0.00008402
v 0.00529349 0.03859978 -0.00006413
v 0.00458258 0.02701468 -0.00264151
v 0.00525501 0.02795784 -0.00476991
v 0.00611225 0.03034058 -0.00449711
v 0.00666230 0.03241365 -0.00487647
v 0.00703826 0.03487440 -0.00530272
v 0.00693859 0.03594048 -0.00317290
v 0.00666167 0.03381067 -0.00282480
v 0.00523671 0.03966587 -0.00011954
v 0.00516607 0.04019773 -0.00016785
v 0.00477813 0.04019773 0.00000834
v 0.00427034 0.03970605 0.00025414
v 0.00394990 0.03991170 0.00028256
v 0.00374931 0.03970605 0.00034507
v 0.00318159 0.03966587 0.00041895
v 0.00264984 0.03913401 0.00055109
v 0.00158506 0.03966587 0.00051557
v 0.00105267 0.03913401 0.00057667
v 0.00075367 0.03830194 0.00070596
v 0.00075367 0.03785518 0.00078553
v 0.00211745 0.03966587 0.00049710
v 0.00075367 0.02153770 -0.00139686
v 0.00389880 0.02529854 -0.00368582
v 0.00075367 0.02145496 -0.00151053
v 0.00075367 0.02137459 -0.00162420
v 0.00075367 0.02126113 -0.00179612
v 0.00075367 0.02119258 -0.00191973
v 0.00075367 0.02109330 -0.00210870
v 0.00242527 0.02285435 -0.00338034
v 0.00247069 0.02280234 -0.00370571
v 0.00666609 0.04000153 -0.00178617
v 0.00717388 0.03833030 -0.00396856
v 0.00717388 0.03833976 -0.00396856
v 0.00619930 0.04019773 -0.00121642
v 0.00625418 0.03966587 -0.00115106
v 0.00575649 0.03966587 -0.00057136
v 0.00570729 0.04019773 -0.00063104
v 0.00543163 0.04019773 -0.00036534
v 0.00400793 0.02547819 -0.00385063
v 0.00527078 0.02795784 -0.00530272
v 0.00612676 0.03029567 -0.00476991
v 0.00462548 0.02643791 -0.00583411
v 0.00612929 0.03028858 -0.00509670
v 0.00666230 0.03241365 -0.00732172
v 0.00703826 0.03487440 -0.00689831
v 0.00717892 0.03619341 -0.00607565
v 0.00719532 0.03647234 -0.00598330
v 0.00509605 0.04055703 -0.00021189
v 0.00424574 0.04019773 0.00016178
v 0.00478948 0.04073195 -0.00013801
v 0.00424574 0.04072959 0.00002539
v 0.00359476 0.04002280 0.00030529
v 0.00374931 0.04019773 0.00024703
v 0.00318159 0.04012208 0.00032944
v 0.00105267 0.03966587 0.00045021
v 0.00211745 0.04019773 0.00038486
v 0.00211745 0.04053339 0.00030529
v 0.00171311 0.04052157 0.00030529
v 0.00155541 0.04024264 0.00036923
v 0.00075367 0.03883380 0.00058945
v 0.00286115 0.04045066 0.00028398
v 0.00353673 0.02439320 -0.00583411
v 0.00075367 0.02085928 -0.00264151
v 0.00075367 0.02065599 -0.00314732
v 0.00075367 0.02051653 -0.00370571
v 0.00075367 0.02041725 -0.00423710
v 0.00075367 0.02034160 -0.00476991
v 0.00234012 0.02242650 -0.00583411
v 0.00251422 0.02269361 -0.00583411
v 0.00677080 0.04126145 -0.00370571
v 0.00666798 0.04158293 -0.00339455
v 0.00607188 0.04143637 -0.00193110
v 0.00597853 0.04125908 -0.00158725
v 0.00562591 0.04161602 -0.00123773
v 0.00647244 0.04018591 -0.00159578
v 0.00719659 0.03684582 -0.00596909
v 0.00719028 0.03913401 -0.00602308
v 0.00718712 0.03944130 -0.00603161
v 0.00612929 0.04050975 -0.00128462
v 0.00557923 0.04100143 -0.00077454
v 0.00562591 0.04072959 -0.00072339
v 0.00528844 0.04073195 -0.00043496
v 0.00373732 0.02476432 -0.00583411
v 0.00527078 0.02795784 -0.00689831
v 0.00373732 0.02476432 -0.00636550
v 0.00462548 0.02644027 -0.00636550
v 0.00612929 0.03028858 -0.00710291
v 0.00612676 0.03029567 -0.00742970
v 0.00611225 0.03034058 -0.00770250
v 0.00613938 0.03134520 -0.00943875
v 0.00664527 0.03353647 -0.00930804
v 0.00693859 0.03594048 -0.00902671
v 0.00717388 0.03833030 -0.00823247
v 0.00719532 0.03647234 -0.00621631
v 0.00717892 0.03619341 -0.00612396
v 0.00530484 0.04121181 -0.00065235
v 0.00497430 0.04091160 -0.00028009
v 0.00461917 0.04110780 -0.00019911
v 0.00371398 0.04072959 0.00011632
v 0.00423502 0.04127563 -0.00015648
v 0.00371398 0.04126145 -0.00005276
v 0.00318159 0.04038920 0.00027119
v 0.00135797 0.04044829 0.00028113
v 0.00105267 0.04007008 0.00033513
v 0.00076629 0.03995425 0.00029676
v 0.00075367 0.03966587 0.00037065
v 0.00075367 0.03941530 0.00043743
v 0.00267002 0.04069886 0.00023993
v 0.00211745 0.04079814 0.00023709
v 0.00211745 0.04126145 0.00008222
v 0.00353673 0.02439320 -0.00636550
v 0.00075367 0.02029669 -0.00529562
v 0.00075367 0.02026360 -0.00579291
v 0.00075367 0.02026123 -0.00583411
v 0.00075367 0.02025887 -0.00631719
v 0.00075367 0.02025887 -0.00636550
v 0.00233949 0.02242650 -0.00636550
v 0.00251422 0.02269361 -0.00636550
v 0.00667555 0.04212661 -0.00597051
v 0.00669574 0.04163730 -0.00370571
v 0.00653993 0.04190441 -0.00370571
v 0.00558365 0.04313360 -0.00341728
v 0.00570665 0.04286649 -0.00321410
v 0.00564673 0.04268683 -0.00264151
v 0.00559248 0.04261355 -0.00233603
v 0.00569278 0.04232280 -0.00213854
v 0.00562717 0.04214079 -0.00175491
v 0.00598042 0.04178622 -0.00210870
v 0.00572116 0.04179331 -0.00157731
v 0.00551868 0.04197060 -0.00139971
v 0.00532124 0.04180276 -0.00103171
v 0.00547894 0.04135600 -0.00088394
v 0.00568268 0.04121181 -0.00105444
v 0.00719659 0.03684582 -0.00623052
v 0.00719028 0.03913401 -0.00617795
v 0.00718712 0.03944130 -0.00616801
v 0.00512380 0.04163730 -0.00071345
v 0.00525501 0.02795784 -0.00742970
v 0.00400793 0.02547819 -0.00834898
v 0.00535720 0.02902157 -0.00955952
v 0.00610090 0.03153667 -0.00979396
v 0.00658156 0.03381067 -0.00964193
v 0.00666167 0.03381067 -0.00937481
v 0.00639485 0.03753606 -0.01115653
v 0.00668060 0.03966587 -0.01044044
v 0.00717388 0.03833976 -0.00823247
v 0.00478948 0.04127563 -0.00035113
v 0.00440533 0.04146237 -0.00027441
v 0.00318159 0.04072959 0.00018310
v 0.00318159 0.04126145 0.00002254
v 0.00405019 0.04156638 -0.00022752
v 0.00371398 0.04164202 -0.00019484
v 0.00105267 0.04033719 0.00022430
v 0.00155541 0.04071068 0.00020867
v 0.00154721 0.04130400 -0.00006981
v 0.00075367 0.03994480 0.00029392
v 0.00075367 0.03992352 0.00030103
v 0.00115738 0.04115508 -0.00015364
v 0.00075367 0.04067049 -0.00010959
v 0.00264984 0.04126145 0.00008222
v 0.00264984 0.04179567 -0.00012522
v 0.00237292 0.04206515 -0.00024315
v 0.00216413 0.04180040 -0.00015364
v 0.00389880 0.02529854 -0.00851379
v 0.00247069 0.02280234 -0.00849390
v 0.00075367 0.02029196 -0.00689831
v 0.00075367 0.02033688 -0.00742970
v 0.00667555 0.04212661 -0.00622910
v 0.00621823 0.04271047 -0.00583411
v 0.00596213 0.04292085 -0.00476991
v 0.00612676 0.04262065 -0.00439765
v 0.00595393 0.04282394 -0.00422715
v 0.00627374 0.04226607 -0.00370571
v 0.00561140 0.04316196 -0.00370571
v 0.00536540 0.04347871 -0.00423710
v 0.00506325 0.04367018 -0.00390036
v 0.00500332 0.04363473 -0.00354658
v 0.00532313 0.04327779 -0.00321410
v 0.00515093 0.04321633 -0.00264151
v 0.00507712 0.04315487 -0.00231898
v 0.00550859 0.04305086 -0.00306350
v 0.00541712 0.04295158 -0.00264151
v 0.00529096 0.04283339 -0.00214990
v 0.00550480 0.04249536 -0.00198082
v 0.00533386 0.04234881 -0.00155458
v 0.00516354 0.04220225 -0.00117948
v 0.00496863 0.04199187 -0.00082569
v 0.00677080 0.04126145 -0.00849390
v 0.00478570 0.04180513 -0.00061967
v 0.00458258 0.02701468 -0.00955952
v 0.00514651 0.02907121 -0.01006960
v 0.00453212 0.02711869 -0.00985221
v 0.00558807 0.03297861 -0.01145917
v 0.00396882 0.02824623 -0.01192946
v 0.00463935 0.03061951 -0.01209570
v 0.00589085 0.03540625 -0.01168792
v 0.00619615 0.03753606 -0.01153874
v 0.00652038 0.03966587 -0.01070613
v 0.00666546 0.04000153 -0.01041344
v 0.00461412 0.04213370 -0.00072623
v 0.00423502 0.04176494 -0.00038097
v 0.00312861 0.04180749 -0.00017495
v 0.00371398 0.04190677 -0.00032272
v 0.00327053 0.04199660 -0.00027583
v 0.00291603 0.04206042 -0.00024599
v 0.00134473 0.04150965 -0.00025878
v 0.00169986 0.04162784 -0.00018348
v 0.00080288 0.04098015 -0.00025736
v 0.00075367 0.04086905 -0.00022326
v 0.00264984 0.04206515 -0.00024315
v 0.00201841 0.04198241 -0.00030141
v 0.00264984 0.04232990 -0.00041081
v 0.00264984 0.04270574 -0.00067650
v 0.00228019 0.04264901 -0.00072481
v 0.00295703 0.02441211 -0.01045180
v 0.00075367 0.02041015 -0.00796251
v 0.00075367 0.02047871 -0.00832766
v 0.00075367 0.02051416 -0.00849390
v 0.00075367 0.02059690 -0.00880506
v 0.00075367 0.02064181 -0.00896846
v 0.00075367 0.02071509 -0.00920005
v 0.00242527 0.02285435 -0.00881927
v 0.00669574 0.04163730 -0.00849390
v 0.00653993 0.04190441 -0.00849390
v 0.00612676 0.04262065 -0.00780480
v 0.00596276 0.04292085 -0.00742970
v 0.00621823 0.04271047 -0.00636550
v 0.00572747 0.04329906 -0.00583411
v 0.00571549 0.04328015 -0.00530272
v 0.00569593 0.04325651 -0.00476991
v 0.00565871 0.04321397 -0.00423710
v 0.00541460 0.04352126 -0.00476991
v 0.00509920 0.04369619 -0.00423710
v 0.00477813 0.04387820 -0.00423710
v 0.00480651 0.04377419 -0.00371566
v 0.00464566 0.04372692 -0.00317290
v 0.00491186 0.04357563 -0.00317290
v 0.00493520 0.04305323 -0.00196377
v 0.00514967 0.04269865 -0.00170803
v 0.00474974 0.04349053 -0.00265714
v 0.00440912 0.04361109 -0.00249090
v 0.00476551 0.04324470 -0.00212859
v 0.00499638 0.04255682 -0.00135282
v 0.00480525 0.04234408 -0.00102319
v 0.00666735 0.04158293 -0.00880648
v 0.00348564 0.02650409 -0.01149185
v 0.00542280 0.03277768 -0.01165667
v 0.00516165 0.03274459 -0.01207439
v 0.00547831 0.03327881 -0.01172629
v 0.00403190 0.02860081 -0.01202040
v 0.00327747 0.02634099 -0.01167656
v 0.00292486 0.02608570 -0.01196214
v 0.00348122 0.02869772 -0.01250490
v 0.00425268 0.03060296 -0.01236992
v 0.00407984 0.03077080 -0.01253047
v 0.00436054 0.03115137 -0.01239123
v 0.00521211 0.03327881 -0.01212980
v 0.00562717 0.03505641 -0.01200477
v 0.00566061 0.03540625 -0.01203887
v 0.00586498 0.03753606 -0.01180443
v 0.00554076 0.03913401 -0.01192236
v 0.00550102 0.03966587 -0.01189394
v 0.00617029 0.03797810 -0.01150748
v 0.00625418 0.03966587 -0.01104997
v 0.00619867 0.04019773 -0.01098319
v 0.00647244 0.04018591 -0.01060383
v 0.00562591 0.04161602 -0.01096188
v 0.00597853 0.04126145 -0.01061520
v 0.00607188 0.04143873 -0.01026994
v 0.00464188 0.04267974 -0.00122210
v 0.00424574 0.04250009 -0.00085695
v 0.00424574 0.04223298 -0.00065945
v 0.00373480 0.04236772 -0.00060688
v 0.00312861 0.04227316 -0.00040797
v 0.00318159 0.04269629 -0.00069071
v 0.00100914 0.04130400 -0.00036250
v 0.00167842 0.04219516 -0.00065661
v 0.00132328 0.04205806 -0.00078165
v 0.00105267 0.04166566 -0.00064951
v 0.00075367 0.04095415 -0.00028436
v 0.00077891 0.04153565 -0.00076886
v 0.00075367 0.04147656 -0.00074186
v 0.00318159 0.04296104 -0.00093083
v 0.00318159 0.04322579 -0.00119653
v 0.00264984 0.04297286 -0.00096351
v 0.00264984 0.04319033 -0.00122921
v 0.00235967 0.04313832 -0.00129172
v 0.00192506 0.04254973 -0.00083280
v 0.00075367 0.02110039 -0.01009091
v 0.00075367 0.02126586 -0.01039639
v 0.00075367 0.02135568 -0.01053279
v 0.00075367 0.02145496 -0.01068340
v 0.00075367 0.02171262 -0.01101587
v 0.00267948 0.02419227 -0.01066777
v 0.00075367 0.02085692 -0.00955952
v 0.00075367 0.02101293 -0.00990905
v 0.00627374 0.04226607 -0.00849390
v 0.00595519 0.04282394 -0.00797388
v 0.00570855 0.04287121 -0.00898693
v 0.00558365 0.04313360 -0.00878233
v 0.00565998 0.04321633 -0.00796251
v 0.00569656 0.04325651 -0.00742970
v 0.00571549 0.04328015 -0.00689831
v 0.00572747 0.04329906 -0.00636550
v 0.00546506 0.04356381 -0.00583411
v 0.00544614 0.04354727 -0.00530272
v 0.00514840 0.04373164 -0.00476991
v 0.00477813 0.04394202 -0.00476991
v 0.00436938 0.04413349 -0.00476991
v 0.00422555 0.04411931 -0.00419732
v 0.00424574 0.04403421 -0.00370571
v 0.00455357 0.04367964 -0.00284611
v 0.00424574 0.04390657 -0.00317290
v 0.00458006 0.04316196 -0.00178617
v 0.00478822 0.04286649 -0.00157020
v 0.00423754 0.04350944 -0.00212433
v 0.00423754 0.04374583 -0.00265714
v 0.00405461 0.04368910 -0.00231330
v 0.00598042 0.04178622 -0.01009233
v 0.00562717 0.04214079 -0.01044470
v 0.00569404 0.04232280 -0.01006392
v 0.00559500 0.04261828 -0.00986784
v 0.00565115 0.04269156 -0.00955952
v 0.00372534 0.02847079 -0.01222926
v 0.00237923 0.02397244 -0.01088373
v 0.00075367 0.02226339 -0.01152027
v 0.00075367 0.02258724 -0.01176891
v 0.00079089 0.02289217 -0.01195930
v 0.00075367 0.02286380 -0.01197635
v 0.00075367 0.02316165 -0.01211275
v 0.00075367 0.02370296 -0.01235855
v 0.00075367 0.02394171 -0.01246370
v 0.00076818 0.02399135 -0.01247506
v 0.00087542 0.02434828 -0.01254184
v 0.00184116 0.02824387 -0.01301640
v 0.00191244 0.02859844 -0.01304055
v 0.00240446 0.02975908 -0.01302776
v 0.00287124 0.03101663 -0.01300645
v 0.00075367 0.02428683 -0.01258447
v 0.00075367 0.02449011 -0.01264130
v 0.00075367 0.02478087 -0.01272229
v 0.00105267 0.02529618 -0.01272229
v 0.00100221 0.02587532 -0.01288852
v 0.00079089 0.02608570 -0.01302066
v 0.00133022 0.02713523 -0.01302350
v 0.00292738 0.03137121 -0.01302350
v 0.00371398 0.03327881 -0.01286863
v 0.00454600 0.03297388 -0.01249637
v 0.00481724 0.03327881 -0.01239550
v 0.00531052 0.03540625 -0.01221931
v 0.00465134 0.03594048 -0.01256742
v 0.00465954 0.03647234 -0.01256884
v 0.00465765 0.03700420 -0.01256742
v 0.00491501 0.03753606 -0.01241112
v 0.00489672 0.03806792 -0.01240970
v 0.00560510 0.03793318 -0.01196783
v 0.00527456 0.03913401 -0.01211417
v 0.00523482 0.03966587 -0.01207865
v 0.00516480 0.04019773 -0.01203034
v 0.00543100 0.04019773 -0.01183427
v 0.00570729 0.04019773 -0.01156857
v 0.00575712 0.03966587 -0.01162825
v 0.00564042 0.04063976 -0.01149327
v 0.00557545 0.04099433 -0.01142081
v 0.00612929 0.04050975 -0.01091499
v 0.00570729 0.04126145 -0.01107555
v 0.00550165 0.04126145 -0.01134124
v 0.00532061 0.04180276 -0.01116790
v 0.00551868 0.04197060 -0.01079991
v 0.00572116 0.04179331 -0.01062230
v 0.00424574 0.04305086 -0.00140965
v 0.00395936 0.04311705 -0.00132156
v 0.00424574 0.04278375 -0.00112264
v 0.00392656 0.04257337 -0.00079301
v 0.00357142 0.04263483 -0.00074470
v 0.00360422 0.04318560 -0.00124768
v 0.00152955 0.04237008 -0.00098482
v 0.00118766 0.04218807 -0.00113685
v 0.00075367 0.04156402 -0.00084842
v 0.00075367 0.04151910 -0.00078591
v 0.00345977 0.04366073 -0.00183590
v 0.00315447 0.04352363 -0.00162562
v 0.00295892 0.04365600 -0.00184585
v 0.00261010 0.04360400 -0.00205755
v 0.00224361 0.04320924 -0.00157589
v 0.00197741 0.04305086 -0.00157589
v 0.00173645 0.04267974 -0.00118800
v 0.00075367 0.02198919 -0.01128015
v 0.00561204 0.04316433 -0.00849390
v 0.00551237 0.04305559 -0.00913754
v 0.00515534 0.04321869 -0.00955952
v 0.00532503 0.04327779 -0.00898693
v 0.00500080 0.04363236 -0.00865446
v 0.00506514 0.04367255 -0.00829925
v 0.00536855 0.04348108 -0.00796251
v 0.00541586 0.04352363 -0.00742970
v 0.00544614 0.04354727 -0.00689831
v 0.00546506 0.04356381 -0.00636550
v 0.00519887 0.04376237 -0.00583411
v 0.00517994 0.04375292 -0.00530272
v 0.00477813 0.04398221 -0.00530272
v 0.00442173 0.04415477 -0.00530272
v 0.00410318 0.04423750 -0.00476991
v 0.00397135 0.04418786 -0.00399272
v 0.00389187 0.04416422 -0.00370571
v 0.00370200 0.04410749 -0.00317858
v 0.00371398 0.04393730 -0.00264151
v 0.00381428 0.04359454 -0.00195809
v 0.00424574 0.04323997 -0.00167535
v 0.00366793 0.04373401 -0.00212433
v 0.00533449 0.04234881 -0.01064646
v 0.00550480 0.04249536 -0.01022305
v 0.00529159 0.04283575 -0.01005255
v 0.00507902 0.04315487 -0.00988205
v 0.00542154 0.04295867 -0.00955952
v 0.00075367 0.02400789 -0.01248785
v 0.00163174 0.02844716 -0.01309596
v 0.00158506 0.02902157 -0.01316843
v 0.00199129 0.02902157 -0.01306329
v 0.00211745 0.03008765 -0.01313149
v 0.00075367 0.02527727 -0.01284732
v 0.00075367 0.02576422 -0.01296241
v 0.00075367 0.02605733 -0.01302634
v 0.00075367 0.02612352 -0.01303629
v 0.00105204 0.02693195 -0.01306755
v 0.00105267 0.02742598 -0.01312864
v 0.00267633 0.03117501 -0.01307323
v 0.00264984 0.03168323 -0.01311017
v 0.00295388 0.03168323 -0.01303203
v 0.00336768 0.03327881 -0.01299651
v 0.00331658 0.03274459 -0.01297804
v 0.00371398 0.03381067 -0.01289989
v 0.00424574 0.03434253 -0.01269813
v 0.00424574 0.03487440 -0.01272229
v 0.00424574 0.03540625 -0.01274360
v 0.00463494 0.03540625 -0.01256031
v 0.00424574 0.03594048 -0.01275354
v 0.00424574 0.03647234 -0.01275070
v 0.00464882 0.03753606 -0.01255889
v 0.00463052 0.03806792 -0.01254184
v 0.00485635 0.03859978 -0.01240260
v 0.00529412 0.03859978 -0.01213548
v 0.00477813 0.03966587 -0.01230456
v 0.00474533 0.03913401 -0.01239408
v 0.00477813 0.04019773 -0.01220653
v 0.00509605 0.04054994 -0.01198772
v 0.00523545 0.04126145 -0.01157284
v 0.00512317 0.04163493 -0.01148475
v 0.00496863 0.04198950 -0.01137392
v 0.00516354 0.04219989 -0.01102013
v 0.00370957 0.04339125 -0.00157873
v 0.00138131 0.04254264 -0.00141818
v 0.00083315 0.04201314 -0.00140255
v 0.00075367 0.04180040 -0.00120363
v 0.00318159 0.04398221 -0.00264151
v 0.00315447 0.04375764 -0.00205755
v 0.00331343 0.04366073 -0.00183590
v 0.00276085 0.04372692 -0.00220105
v 0.00240635 0.04364655 -0.00242412
v 0.00186639 0.04311469 -0.00187284
v 0.00156929 0.04276484 -0.00158725
v 0.00490681 0.04357563 -0.00902671
v 0.00464062 0.04372455 -0.00902671
v 0.00480525 0.04377419 -0.00848396
v 0.00477813 0.04388056 -0.00796251
v 0.00510236 0.04369855 -0.00796251
v 0.00514967 0.04373164 -0.00742970
v 0.00517994 0.04375292 -0.00689831
v 0.00519887 0.04376237 -0.00636550
v 0.00477813 0.04400112 -0.00583411
v 0.00444381 0.04416186 -0.00583411
v 0.00415554 0.04425878 -0.00530272
v 0.00371398 0.04438879 -0.00530272
v 0.00371398 0.04435097 -0.00476991
v 0.00376192 0.04427296 -0.00419732
v 0.00362567 0.04423987 -0.00370571
v 0.00351654 0.04420677 -0.00335903
v 0.00499575 0.04255682 -0.01084679
v 0.00515030 0.04269865 -0.01049159
v 0.00493015 0.04305323 -0.01023726
v 0.00476299 0.04324233 -0.01007244
v 0.00440912 0.04361109 -0.00970445
v 0.00474722 0.04349053 -0.00953963
v 0.00105267 0.02795784 -0.01318264
v 0.00105267 0.02848971 -0.01322668
v 0.00158506 0.02955343 -0.01320963
v 0.00211745 0.03061951 -0.01317127
v 0.00075367 0.02635990 -0.01306755
v 0.00075367 0.02691067 -0.01313717
v 0.00075367 0.02742598 -0.01319116
v 0.00211745 0.03115137 -0.01319968
v 0.00264984 0.03221509 -0.01313149
v 0.00310148 0.03327881 -0.01307039
v 0.00340237 0.03381067 -0.01300645
v 0.00371398 0.03434253 -0.01291694
v 0.00371398 0.03487440 -0.01292547
v 0.00371398 0.03540625 -0.01293115
v 0.00371398 0.03594048 -0.01292689
v 0.00424574 0.03700420 -0.01273792
v 0.00459015 0.03859978 -0.01251911
v 0.00424574 0.03753606 -0.01271092
v 0.00454663 0.03895435 -0.01249922
v 0.00445706 0.03931129 -0.01247364
v 0.00424574 0.04019773 -0.01235998
v 0.00424574 0.04072959 -0.01222500
v 0.00478507 0.04072722 -0.01206160
v 0.00461286 0.04110780 -0.01200193
v 0.00496737 0.04090451 -0.01191526
v 0.00478633 0.04180513 -0.01157994
v 0.00478507 0.04127563 -0.01184421
v 0.00461412 0.04213133 -0.01147480
v 0.00480462 0.04234408 -0.01117500
v 0.00105898 0.04232280 -0.00158725
v 0.00128480 0.04262301 -0.00177196
v 0.00075367 0.04210533 -0.00175491
v 0.00075367 0.04194932 -0.00145796
v 0.00319610 0.04411931 -0.00317858
v 0.00261010 0.04378365 -0.00261736
v 0.00338345 0.04420677 -0.00335903
v 0.00234012 0.04368437 -0.00277933
v 0.00214457 0.04351654 -0.00261736
v 0.00178691 0.04317378 -0.00222663
v 0.00159957 0.04297522 -0.00207318
v 0.00454915 0.04367728 -0.00934924
v 0.00424574 0.04389948 -0.00902671
v 0.00424574 0.04403185 -0.00849390
v 0.00422492 0.04411931 -0.00799661
v 0.00436811 0.04413586 -0.00742970
v 0.00477813 0.04394439 -0.00742970
v 0.00477813 0.04398221 -0.00689831
v 0.00477813 0.04400112 -0.00636550
v 0.00444381 0.04416186 -0.00636550
v 0.00417761 0.04426587 -0.00583411
v 0.00371398 0.04440297 -0.00583411
v 0.00318159 0.04434860 -0.00530272
v 0.00318159 0.04432260 -0.00476991
v 0.00327937 0.04423987 -0.00370571
v 0.00464062 0.04267738 -0.01097609
v 0.00478570 0.04286649 -0.01062799
v 0.00457564 0.04315960 -0.01040918
v 0.00423754 0.04350472 -0.01007386
v 0.00405461 0.04368673 -0.00988489
v 0.00423754 0.04374110 -0.00953963
v 0.00075367 0.02795784 -0.01323521
v 0.00105267 0.02902157 -0.01326362
v 0.00158506 0.03008765 -0.01324231
v 0.00158506 0.03061951 -0.01327215
v 0.00211745 0.03168323 -0.01321673
v 0.00264984 0.03327881 -0.01316701
v 0.00313618 0.03381067 -0.01307465
v 0.00342129 0.03434253 -0.01301214
v 0.00342823 0.03487440 -0.01301498
v 0.00342193 0.03540625 -0.01301498
v 0.00336389 0.03594048 -0.01300645
v 0.00371398 0.03647234 -0.01290415
v 0.00424574 0.03806792 -0.01266403
v 0.00371398 0.03753606 -0.01283737
v 0.00371398 0.03700420 -0.01287432
v 0.00426593 0.03913401 -0.01254326
v 0.00424574 0.03859978 -0.01261004
v 0.00410192 0.03954767 -0.01251627
v 0.00426593 0.03970132 -0.01245091
v 0.00374300 0.04019773 -0.01244523
v 0.00371398 0.04072959 -0.01231593
v 0.00393918 0.03990461 -0.01248075
v 0.00371398 0.04126145 -0.01214827
v 0.00423565 0.04127563 -0.01204313
v 0.00440659 0.04146237 -0.01192520
v 0.00424574 0.04223298 -0.01154016
v 0.00424574 0.04249773 -0.01134266
v 0.00423565 0.04176494 -0.01181864
v 0.00122298 0.04267974 -0.00210870
v 0.00095679 0.04242918 -0.00210870
v 0.00075367 0.04211006 -0.00176628
v 0.00301317 0.04415950 -0.00370571
v 0.00264984 0.04391130 -0.00317290
v 0.00229218 0.04371746 -0.00317290
v 0.00202598 0.04353545 -0.00317290
v 0.00172383 0.04322342 -0.00264151
v 0.00145827 0.04301068 -0.00264151
v 0.00371398 0.04393257 -0.00955952
v 0.00370200 0.04410513 -0.00902103
v 0.00388871 0.04416422 -0.00849390
v 0.00396693 0.04418550 -0.00819695
v 0.00403379 0.04420914 -0.00784174
v 0.00410192 0.04423514 -0.00742970
v 0.00442173 0.04415477 -0.00689831
v 0.00415554 0.04425641 -0.00689831
v 0.00417761 0.04426587 -0.00636550
v 0.00371398 0.04440533 -0.00636550
v 0.00318159 0.04436279 -0.00583411
v 0.00286683 0.04421859 -0.00530272
v 0.00288638 0.04420677 -0.00476991
v 0.00290594 0.04419495 -0.00442039
v 0.00293369 0.04418313 -0.00406518
v 0.00313933 0.04426350 -0.00423994
v 0.00424574 0.04278375 -0.01107555
v 0.00395873 0.04311705 -0.01087947
v 0.00424574 0.04304850 -0.01078712
v 0.00424574 0.04323524 -0.01052142
v 0.00381554 0.04359218 -0.01023868
v 0.00346103 0.04366309 -0.01036655
v 0.00366857 0.04373401 -0.01007386
v 0.00075367 0.02848971 -0.01326931
v 0.00105267 0.02955343 -0.01329204
v 0.00105267 0.03008765 -0.01331335
v 0.00105267 0.03061951 -0.01333040
v 0.00158506 0.03115137 -0.01328493
v 0.00211745 0.03221509 -0.01323094
v 0.00211745 0.03274459 -0.01323947
v 0.00211745 0.03327881 -0.01324373
v 0.00264984 0.03381067 -0.01316985
v 0.00315510 0.03434253 -0.01307323
v 0.00315573 0.03540625 -0.01306186
v 0.00316204 0.03487440 -0.01306755
v 0.00309833 0.03594048 -0.01304766
v 0.00318159 0.03753606 -0.01291268
v 0.00371398 0.03806792 -0.01277912
v 0.00318096 0.03651252 -0.01299366
v 0.00300245 0.03636124 -0.01303203
v 0.00318159 0.03700420 -0.01295530
v 0.00371398 0.03913401 -0.01264130
v 0.00374300 0.03970132 -0.01254468
v 0.00358467 0.04002044 -0.01250490
v 0.00318159 0.04038683 -0.01247080
v 0.00318159 0.04072959 -0.01238271
v 0.00318159 0.04126145 -0.01222073
v 0.00313618 0.04180749 -0.01202608
v 0.00371398 0.04163966 -0.01200619
v 0.00405146 0.04156638 -0.01197351
v 0.00373038 0.04236772 -0.01158989
v 0.00391836 0.04257337 -0.01140660
v 0.00371398 0.04190677 -0.01187689
v 0.00115044 0.04274593 -0.00264151
v 0.00088425 0.04249536 -0.00264151
v 0.00075367 0.04226844 -0.00227778
v 0.00075367 0.04222352 -0.00210870
v 0.00264984 0.04398457 -0.00370571
v 0.00224865 0.04374819 -0.00370571
v 0.00198246 0.04356618 -0.00370571
v 0.00166580 0.04327070 -0.00317290
v 0.00139961 0.04305795 -0.00317290
v 0.00318159 0.04398221 -0.00955952
v 0.00351654 0.04420677 -0.00884058
v 0.00362252 0.04423987 -0.00849390
v 0.00375940 0.04427296 -0.00799661
v 0.00371398 0.04435097 -0.00742970
v 0.00371398 0.04438879 -0.00689831
v 0.00318159 0.04435097 -0.00689831
v 0.00318159 0.04436279 -0.00636550
v 0.00285926 0.04422568 -0.00583411
v 0.00260063 0.04404603 -0.00530272
v 0.00262019 0.04404367 -0.00476991
v 0.00269651 0.04406258 -0.00423994
v 0.00360422 0.04318560 -0.01095193
v 0.00328189 0.04366309 -0.01036655
v 0.00313555 0.04375764 -0.01014490
v 0.00318159 0.04322579 -0.01100308
v 0.00313555 0.04352599 -0.01057541
v 0.00075367 0.02902157 -0.01329630
v 0.00075367 0.02955343 -0.01331903
v 0.00075367 0.03008765 -0.01333608
v 0.00075367 0.03061951 -0.01335029
v 0.00105267 0.03115137 -0.01333893
v 0.00158506 0.03221509 -0.01329488
v 0.00158506 0.03274459 -0.01329914
v 0.00158506 0.03327881 -0.01329346
v 0.00211745 0.03381067 -0.01323521
v 0.00264984 0.03434253 -0.01315990
v 0.00264984 0.03540625 -0.01313291
v 0.00264984 0.03487440 -0.01314854
v 0.00264984 0.03594048 -0.01310165
v 0.00264984 0.03753606 -0.01296383
v 0.00318159 0.03806792 -0.01285300
v 0.00288954 0.03671581 -0.01301782
v 0.00318159 0.03913401 -0.01270382
v 0.00318159 0.03966587 -0.01261857
v 0.00318159 0.04011972 -0.01252905
v 0.00285989 0.04045066 -0.01248359
v 0.00266939 0.04069886 -0.01243954
v 0.00264984 0.04126145 -0.01228041
v 0.00292802 0.04206515 -0.01195646
v 0.00328315 0.04199423 -0.01192236
v 0.00313618 0.04227553 -0.01178738
v 0.00318159 0.04268920 -0.01150322
v 0.00110566 0.04279084 -0.00317290
v 0.00083946 0.04254028 -0.00317290
v 0.00075367 0.04245281 -0.00317290
v 0.00075367 0.04236063 -0.00264151
v 0.00222468 0.04376946 -0.00423710
v 0.00195849 0.04358036 -0.00423710
v 0.00162921 0.04329906 -0.00370571
v 0.00136365 0.04308632 -0.00370571
v 0.00292675 0.04365836 -0.01035661
v 0.00276149 0.04372692 -0.01000140
v 0.00261010 0.04378365 -0.00958226
v 0.00319484 0.04411931 -0.00902103
v 0.00338092 0.04420677 -0.00884058
v 0.00318159 0.04432260 -0.00742970
v 0.00327810 0.04423987 -0.00849390
v 0.00290404 0.04419732 -0.00778917
v 0.00288449 0.04420677 -0.00742970
v 0.00286620 0.04422096 -0.00689831
v 0.00285926 0.04422568 -0.00636550
v 0.00259306 0.04404840 -0.00583411
v 0.00221459 0.04377656 -0.00476991
v 0.00318159 0.04295395 -0.01126878
v 0.00264984 0.04270338 -0.01152169
v 0.00264984 0.04297049 -0.01123610
v 0.00264984 0.04319033 -0.01097041
v 0.00075367 0.03115137 -0.01335740
v 0.00105267 0.03168323 -0.01333750
v 0.00105267 0.03274459 -0.01333040
v 0.00105267 0.03221509 -0.01333466
v 0.00105267 0.03327881 -0.01332046
v 0.00158506 0.03381067 -0.01327783
v 0.00211745 0.03434253 -0.01321816
v 0.00211745 0.03540625 -0.01317695
v 0.00211745 0.03487440 -0.01319826
v 0.00211745 0.03594048 -0.01314285
v 0.00215403 0.03703729 -0.01304908
v 0.00235589 0.03723585 -0.01301640
v 0.00200075 0.03737059 -0.01303203
v 0.00215403 0.03754315 -0.01300077
v 0.00264984 0.03806792 -0.01290273
v 0.00264984 0.03859978 -0.01283027
v 0.00264984 0.03913401 -0.01275497
v 0.00264984 0.03966587 -0.01266403
v 0.00266939 0.04024264 -0.01254184
v 0.00211745 0.04019773 -0.01258873
v 0.00211745 0.04053575 -0.01250632
v 0.00211745 0.04080287 -0.01243812
v 0.00211745 0.04126145 -0.01228183
v 0.00264984 0.04179567 -0.01207297
v 0.00264984 0.04206751 -0.01195788
v 0.00264984 0.04233226 -0.01178738
v 0.00107412 0.04282157 -0.00370571
v 0.00080792 0.04257101 -0.00370571
v 0.00075367 0.04251900 -0.00371139
v 0.00194839 0.04358745 -0.00476991
v 0.00160209 0.04332270 -0.00476991
v 0.00161344 0.04331325 -0.00423710
v 0.00134725 0.04310050 -0.00423710
v 0.00100221 0.04279084 -0.00423142
v 0.00079152 0.04258755 -0.00404955
v 0.00261010 0.04360636 -0.01014490
v 0.00235967 0.04313832 -0.01090789
v 0.00240635 0.04364655 -0.00977549
v 0.00264984 0.04391366 -0.00902671
v 0.00301191 0.04416186 -0.00849390
v 0.00313933 0.04426350 -0.00796393
v 0.00293306 0.04418313 -0.00814296
v 0.00269588 0.04406258 -0.00796393
v 0.00261830 0.04404367 -0.00742970
v 0.00220954 0.04377892 -0.00742970
v 0.00260000 0.04404603 -0.00689831
v 0.00259306 0.04404840 -0.00636550
v 0.00220323 0.04378128 -0.00583411
v 0.00220828 0.04377892 -0.00530272
v 0.00194209 0.04359454 -0.00530272
v 0.00227767 0.04264901 -0.01147480
v 0.00237607 0.04206278 -0.01195646
v 0.00075367 0.03168323 -0.01335455
v 0.00075367 0.03274459 -0.01334319
v 0.00075367 0.03221509 -0.01334887
v 0.00075367 0.03327881 -0.01333040
v 0.00105267 0.03381067 -0.01330056
v 0.00105267 0.03487440 -0.01325652
v 0.00158506 0.03434253 -0.01325510
v 0.00158506 0.03540625 -0.01320537
v 0.00158506 0.03594048 -0.01317269
v 0.00158506 0.03647234 -0.01313149
v 0.00158506 0.03806792 -0.01296241
v 0.00158506 0.03859978 -0.01289705
v 0.00211745 0.03806792 -0.01293825
v 0.00105267 0.03647234 -0.01315422
v 0.00105267 0.03700420 -0.01310023
v 0.00211745 0.03859978 -0.01287005
v 0.00211745 0.03913401 -0.01279759
v 0.00211745 0.03966587 -0.01270382
v 0.00158506 0.03966587 -0.01271660
v 0.00172131 0.04052630 -0.01250490
v 0.00156046 0.04071304 -0.01240828
v 0.00216602 0.04180040 -0.01204313
v 0.00075367 0.04255446 -0.00408081
v 0.00159452 0.04332743 -0.00530272
v 0.00131886 0.04312651 -0.00609270
v 0.00132833 0.04311705 -0.00530272
v 0.00133653 0.04310996 -0.00476991
v 0.00105267 0.04285703 -0.00476991
v 0.00077260 0.04260646 -0.00476991
v 0.00078017 0.04259937 -0.00440476
v 0.00224108 0.04321160 -0.01062372
v 0.00173582 0.04268211 -0.01101445
v 0.00197489 0.04305323 -0.01062372
v 0.00192316 0.04255210 -0.01136966
v 0.00214520 0.04351654 -0.00958226
v 0.00234075 0.04368437 -0.00942028
v 0.00207077 0.04331561 -0.01013070
v 0.00186261 0.04311705 -0.01033387
v 0.00178754 0.04317378 -0.00998009
v 0.00229218 0.04371746 -0.00902671
v 0.00264984 0.04398694 -0.00849390
v 0.00224739 0.04374819 -0.00849390
v 0.00222090 0.04376946 -0.00796251
v 0.00194335 0.04359218 -0.00742970
v 0.00194019 0.04359454 -0.00689831
v 0.00193704 0.04359691 -0.00636550
v 0.00220323 0.04378128 -0.00636550
v 0.00193704 0.04359691 -0.00583411
v 0.00153396 0.04328961 -0.00588384
v 0.00202157 0.04198241 -0.01190105
v 0.00154847 0.04180040 -0.01180727
v 0.00170175 0.04162784 -0.01201329
v 0.00075367 0.03381067 -0.01331051
v 0.00075367 0.03410852 -0.01329914
v 0.00075367 0.03464274 -0.01327783
v 0.00075367 0.03487440 -0.01326788
v 0.00105267 0.03540625 -0.01323094
v 0.00105267 0.03594048 -0.01319684
v 0.00105267 0.03806792 -0.01297235
v 0.00105267 0.03859978 -0.01288994
v 0.00158506 0.03913401 -0.01281322
v 0.00075367 0.03594048 -0.01320111
v 0.00075367 0.03647234 -0.01315422
v 0.00075367 0.03700420 -0.01309881
v 0.00105267 0.03913401 -0.01277770
v 0.00105267 0.03966587 -0.01264982
v 0.00156046 0.04024028 -0.01256884
v 0.00136617 0.04044593 -0.01247932
v 0.00154847 0.04130400 -0.01212838
v 0.00075367 0.04257573 -0.00444028
v 0.00131886 0.04312651 -0.00610691
v 0.00075367 0.04262537 -0.00636692
v 0.00075367 0.04262301 -0.00583411
v 0.00110566 0.04293503 -0.00588384
v 0.00075367 0.04258755 -0.00476991
v 0.00156866 0.04276720 -0.01061236
v 0.00131886 0.04206042 -0.01142223
v 0.00138068 0.04254264 -0.01078286
v 0.00158506 0.04216206 -0.01151600
v 0.00202598 0.04353545 -0.00902671
v 0.00172383 0.04322342 -0.00955952
v 0.00128417 0.04262537 -0.01042907
v 0.00160020 0.04297758 -0.01013070
v 0.00122235 0.04267974 -0.01009091
v 0.00145827 0.04301068 -0.00955952
v 0.00198120 0.04356618 -0.00849390
v 0.00195470 0.04358272 -0.00796251
v 0.00160146 0.04332507 -0.00742970
v 0.00153396 0.04328961 -0.00631719
v 0.00134725 0.04150965 -0.01193941
v 0.00075367 0.03540625 -0.01324089
v 0.00075367 0.03744624 -0.01304339
v 0.00075367 0.03771335 -0.01300645
v 0.00075367 0.03859978 -0.01284164
v 0.00075367 0.03806792 -0.01294820
v 0.00075367 0.03966587 -0.01256884
v 0.00076692 0.03995425 -0.01249637
v 0.00105267 0.04006772 -0.01253474
v 0.00105267 0.04033246 -0.01242107
v 0.00132202 0.04312178 -0.00646212
v 0.00076124 0.04261592 -0.00689831
v 0.00075367 0.04260883 -0.00689831
v 0.00132769 0.04311705 -0.00689831
v 0.00133526 0.04310996 -0.00742970
v 0.00110566 0.04174603 -0.01152453
v 0.00077954 0.04153565 -0.01142933
v 0.00122046 0.04215734 -0.01115653
v 0.00083252 0.04201314 -0.01079706
v 0.00105835 0.04232280 -0.01061236
v 0.00166580 0.04327070 -0.00902671
v 0.00139961 0.04305795 -0.00902671
v 0.00075367 0.04210533 -0.01044470
v 0.00095616 0.04242918 -0.01009091
v 0.00115107 0.04274593 -0.00955952
v 0.00163048 0.04329906 -0.00849390
v 0.00161344 0.04331561 -0.00796251
v 0.00116117 0.04115271 -0.01204455
v 0.00080603 0.04097543 -0.01193799
v 0.00101104 0.04130400 -0.01183427
v 0.00075367 0.03992116 -0.01250064
v 0.00075367 0.03996607 -0.01248075
v 0.00075367 0.04066340 -0.01208576
v 0.00077260 0.04260646 -0.00742970
v 0.00075367 0.04258755 -0.00742970
v 0.00134725 0.04310050 -0.00796251
v 0.00075367 0.04094706 -0.01190957
v 0.00075367 0.04147183 -0.01145775
v 0.00075367 0.04156402 -0.01134835
v 0.00075367 0.04169403 -0.01115653
v 0.00095427 0.04189732 -0.01115653
v 0.00075367 0.04195168 -0.01074307
v 0.00075367 0.04209588 -0.01046317
v 0.00110818 0.04279084 -0.00902671
v 0.00136428 0.04308632 -0.00849390
v 0.00075367 0.04222352 -0.01009091
v 0.00088488 0.04249536 -0.00955952
v 0.00078143 0.04259701 -0.00776075
v 0.00075367 0.04256864 -0.00778491
v 0.00075367 0.04258519 -0.00747943
v 0.00107916 0.04281921 -0.00849390
v 0.00084262 0.04253791 -0.00902671
v 0.00075367 0.04251191 -0.00848822
v 0.00075367 0.04254973 -0.00808470
v 0.00075367 0.04236063 -0.00955952
v 0.00075367 0.04240081 -0.00933219
v 0.00075367 0.04244809 -0.00902671
v 0.00075367 0.04246700 -0.00888605
f 1 2 3
f 1 3 4
f 1 4 5
f 1 5 11
f 1 11 21
f 1 21 33
f 1 33 35
f 1 35 47
f 1 47 49
f 1 49 48
f 1 48 58
f 1 58 75
f 1 75 77
f 1 77 103
f 1 103 134
f 1 134 135
f 1 135 170
f 1 170 171
f 1 171 174
f 1 174 220
f 1 220 251
f 1 251 250
f 1 250 291
f 1 291 338
f 1 338 337
f 1 337 388
f 1 388 387
f 1 387 390
f 1 390 440
f 1 440 511
f 1 511 513
f 1 513 611
f 1 611 610
f 1 610 685
f 1 685 747
f 1 747 746
f 1 746 805
f 1 805 868
f 1 868 867
f 1 867 920
f 1 920 919
f 1 919 970
f 1 970 1016
f 1 1016 1063
f 1 1063 1068
f 1 1068 1066
f 1 1066 1065
f 1 1065 1095
f 1 1095 1117
f 1 1117 1132
f 1 1132 1131
f 1 1131 1136
f 1 1136 1135
f 1 1135 1140
f 1 1140 1139
f 1 1139 1138
f 1 1138 1137
f 1 1137 1128
f 1 1128 1105
f 1 1105 1125
f 1 1125 1124
f 1 1124 1122
f 1 1122 1121
f 1 1121 1120
f 1 1120 1119
f 1 1119 1115
f 1 1115 1114
f 1 1114 1113
f 1 1113 1089
f 1 1089 1087
f 1 1087 1088
f 1 1088 1086
f 1 1086 1085
f 1 1085 1057
f 1 1057 1056
f 1 1056 1055
f 1 1055 1084
f 1 1084 1049
f 1 1049 1048
f 1 1048 1047
f 1 1047 1046
f 1 1046 997
f 1 997 995
f 1 995 996
f 1 996 994
f 1 994 942
f 1 942 894
f 1 894 893
f 1 893 892
f 1 892 891
f 1 891 835
f 1 835 775
f 1 775 721
f 1 721 720
f 1 720 719
f 1 719 655
f 1 655 654
f 1 654 653
f 1 653 652
f 1 652 572
f 1 572 571
f 1 571 570
f 1 570 647
f 1 647 563
f 1 563 562
f 1 562 561
f 1 561 560
f 1 560 558
f 1 558 557
f 1 557 619
f 1 619 524
f 1 524 523
f 1 523 522
f 1 522 521
f 1 521 520
f 1 520 527
f 1 527 526
f 1 526 452
f 1 452 451
f 1 451 450
f 1 450 449
f 1 449 448
f 1 448 447
f 1 447 398
f 1 398 397
f 1 397 347
f 1 347 346
f 1 346 345
f 1 345 344
f 1 344 343
f 1 343 298
f 1 298 297
f 1 297 296
f 1 296 295
f 1 295 294
f 1 294 259
f 1 259 258
f 1 258 257
f 1 257 256
f 1 256 255
f 1 255 253
f 1 253 223
f 1 223 222
f 1 222 221
f 1 221 189
f 1 189 188
f 1 188 187
f 1 187 186
f 1 186 184
f 1 184 183
f 1 183 182
f 1 182 181
f 1 181 180
f 1 180 179
f 1 179 178
f 1 178 143
f 1 143 142
f 1 142 177
f 1 177 176
f 1 176 175
f 1 175 137
f 1 137 105
f 1 105 78
f 1 78 59
f 1 59 40
f 1 40 39
f 1 39 25
f 1 25 24
f 1 24 14
f 1 14 13
f 1 13 6
f 1 6 2
f 2 6 7
f 2 7 3
f 3 7 8
f 3 8 9
f 3 9 12
f 3 12 4
f 4 10 11
f 4 11 5
f 4 12 10
f 6 13 7
f 7 13 14
f 7 14 15
f 7 15 16
f 7 16 8
f 8 17 18
f 8 18 19
f 8 19 9
f 8 16 17
f 9 19 22
f 9 22 12
f 10 12 20
f 10 20 11
f 11 20 21
f 12 22 23
f 12 23 20
f 14 24 15
f 15 24 25
f 15 25 26
f 15 26 16
f 16 26 27
f 16 27 28
f 16 28 29
f 16 29 17
f 17 30 31
f 17 31 32
f 17 32 18
f 17 29 44
f 17 44 30
f 18 32 19
f 19 32 36
f 19 36 22
f 20 33 21
f 20 23 34
f 20 34 35
f 20 35 33
f 22 36 37
f 22 37 23
f 23 37 38
f 23 38 34
f 25 39 26
f 26 39 27
f 27 39 40
f 27 40 41
f 27 41 42
f 27 42 28
f 28 42 43
f 28 43 29
f 29 43 44
f 30 44 45
f 30 45 31
f 31 45 32
f 32 45 46
f 32 46 36
f 34 47 35
f 34 38 48
f 34 48 49
f 34 49 47
f 36 46 50
f 36 50 51
f 36 51 52
f 36 52 53
f 36 53 37
f 37 54 38
f 37 53 55
f 37 55 54
f 38 54 56
f 38 56 57
f 38 57 58
f 38 58 48
f 40 59 41
f 41 60 61
f 41 61 42
f 41 59 60
f 42 61 43
f 43 61 62
f 43 62 63
f 43 63 44
f 44 63 64
f 44 64 45
f 45 64 65
f 45 65 66
f 45 66 46
f 46 66 67
f 46 67 50
f 50 67 68
f 50 68 51
f 51 68 69
f 51 69 52
f 52 55 53
f 52 69 70
f 52 70 71
f 52 71 55
f 54 55 56
f 55 71 72
f 55 72 73
f 55 73 56
f 56 73 74
f 56 74 57
f 57 75 58
f 57 74 76
f 57 76 77
f 57 77 75
f 59 78 60
f 60 78 79
f 60 79 61
f 61 79 80
f 61 80 81
f 61 81 82
f 61 82 83
f 61 83 62
f 62 83 84
f 62 84 85
f 62 85 63
f 63 85 64
f 64 85 84
f 64 84 86
f 64 86 87
f 64 87 88
f 64 88 89
f 64 89 65
f 65 89 90
f 65 90 66
f 66 90 91
f 66 91 67
f 67 91 92
f 67 92 68
f 68 92 93
f 68 93 69
f 69 93 70
f 70 93 94
f 70 94 95
f 70 95 96
f 70 96 97
f 70 97 71
f 71 97 98
f 71 98 72
f 72 98 99
f 72 99 100
f 72 100 101
f 72 101 73
f 73 101 102
f 73 102 74
f 74 102 76
f 76 103 77
f 76 102 104
f 76 104 103
f 78 105 79
f 79 105 106
f 79 106 107
f 79 107 80
f 80 107 81
f 81 107 108
f 81 108 109
f 81 109 110
f 81 110 84
f 81 84 82
f 82 84 83
f 84 110 109
f 84 109 86
f 86 109 87
f 87 111 112
f 87 112 113
f 87 113 114
f 87 114 89
f 87 89 88
f 87 109 115
f 87 115 116
f 87 116 111
f 89 114 90
f 90 117 118
f 90 118 119
f 90 119 91
f 90 114 113
f 90 113 117
f 91 119 120
f 91 120 92
f 92 120 93
f 93 120 121
f 93 121 122
f 93 122 123
f 93 123 94
f 94 123 95
f 95 123 96
f 96 123 124
f 96 124 125
f 96 125 126
f 96 126 127
f 96 127 128
f 96 128 97
f 97 128 98
f 98 128 99
f 99 128 127
f 99 127 129
f 99 129 130
f 99 130 100
f 100 130 101
f 101 130 131
f 101 131 132
f 101 132 102
f 102 132 133
f 102 133 104
f 103 104 134
f 104 135 134
f 104 133 136
f 104 136 135
f 105 137 138
f 105 138 107
f 105 107 106
f 107 138 109
f 107 109 108
f 109 139 140
f 109 140 116
f 109 116 115
f 109 138 141
f 109 141 142
f 109 142 143
f 109 143 144
f 109 144 145
f 109 145 139
f 111 116 112
f 112 116 146
f 112 146 147
f 112 147 148
f 112 148 113
f 113 148 149
f 113 149 150
f 113 150 119
f 113 119 118
f 113 118 117
f 116 140 151
f 116 151 152
f 116 152 153
f 116 153 154
f 116 154 146
f 119 150 155
f 119 155 120
f 120 155 156
f 120 156 157
f 120 157 121
f 121 157 122
f 122 157 158
f 122 158 123
f 123 158 159
f 123 159 160
f 123 160 161
f 123 161 124
f 124 161 125
f 125 161 162
f 125 162 126
f 126 163 127
f 126 162 164
f 126 164 163
f 127 163 165
f 127 165 129
f 129 165 166
f 129 166 132
f 129 132 167
f 129 167 130
f 130 167 131
f 131 167 132
f 132 168 136
f 132 136 133
f 132 166 169
f 132 169 168
f 135 136 170
f 136 171 170
f 136 168 169
f 136 169 172
f 136 172 173
f 136 173 174
f 136 174 171
f 137 175 138
f 138 175 176
f 138 176 177
f 138 177 141
f 139 145 140
f 140 145 151
f 141 177 142
f 143 178 144
f 144 178 145
f 145 178 179
f 145 179 180
f 145 180 181
f 145 181 182
f 145 182 183
f 145 183 184
f 145 184 185
f 145 185 186
f 145 186 187
f 145 187 188
f 145 188 189
f 145 189 190
f 145 190 191
f 145 191 192
f 145 192 151
f 146 154 153
f 146 153 193
f 146 193 194
f 146 194 147
f 147 194 148
f 148 194 195
f 148 195 196
f 148 196 197
f 148 197 198
f 148 198 199
f 148 199 157
f 148 157 156
f 148 156 155
f 148 155 149
f 149 155 150
f 151 200 152
f 151 192 201
f 151 201 202
f 151 202 200
f 152 200 203
f 152 203 204
f 152 204 205
f 152 205 206
f 152 206 153
f 153 206 194
f 153 194 193
f 157 199 158
f 158 199 198
f 158 198 207
f 158 207 159
f 159 207 160
f 160 207 161
f 161 207 208
f 161 208 209
f 161 209 210
f 161 210 162
f 162 210 211
f 162 211 164
f 163 164 212
f 163 212 213
f 163 213 214
f 163 214 165
f 164 211 212
f 165 214 215
f 165 215 166
f 166 215 172
f 166 172 169
f 172 216 217
f 172 217 173
f 172 215 218
f 172 218 219
f 172 219 216
f 173 217 220
f 173 220 174
f 184 186 185
f 189 221 190
f 190 221 191
f 191 221 222
f 191 222 223
f 191 223 224
f 191 224 192
f 192 224 201
f 194 206 225
f 194 225 195
f 195 225 226
f 195 226 227
f 195 227 228
f 195 228 229
f 195 229 230
f 195 230 196
f 196 230 197
f 197 230 231
f 197 231 232
f 197 232 198
f 198 232 231
f 198 231 207
f 200 202 203
f 201 224 202
f 202 224 233
f 202 233 203
f 203 234 235
f 203 235 204
f 203 233 234
f 204 236 205
f 204 235 236
f 205 236 237
f 205 237 238
f 205 238 239
f 205 239 206
f 206 238 225
f 206 239 238
f 207 231 240
f 207 240 208
f 208 240 209
f 209 240 241
f 209 241 242
f 209 242 210
f 210 242 243
f 210 243 211
f 211 243 244
f 211 244 245
f 211 245 212
f 212 245 246
f 212 246 213
f 213 246 247
f 213 247 214
f 214 247 215
f 215 247 218
f 216 219 248
f 216 248 249
f 216 249 250
f 216 250 251
f 216 251 217
f 217 251 220
f 218 247 246
f 218 246 252
f 218 252 248
f 218 248 219
f 223 253 224
f 224 254 233
f 224 253 255
f 224 255 256
f 224 256 257
f 224 257 258
f 224 258 259
f 224 259 260
f 224 260 261
f 224 261 254
f 225 238 226
f 226 262 227
f 226 238 263
f 226 263 264
f 226 264 262
f 227 262 265
f 227 265 266
f 227 266 228
f 228 266 267
f 228 267 229
f 229 240 231
f 229 231 230
f 229 267 268
f 229 268 269
f 229 269 241
f 229 241 240
f 233 254 270
f 233 270 234
f 234 271 272
f 234 272 235
f 234 270 273
f 234 273 271
f 235 272 236
f 236 272 274
f 236 274 318
f 236 318 275
f 236 275 276
f 236 276 237
f 237 276 326
f 237 326 277
f 237 277 278
f 237 278 263
f 237 263 238
f 241 269 279
f 241 279 242
f 242 280 243
f 242 279 281
f 242 281 282
f 242 282 280
f 243 280 244
f 244 283 245
f 244 280 284
f 244 284 283
f 245 283 246
f 246 283 285
f 246 285 252
f 248 286 249
f 248 252 287
f 248 287 288
f 248 288 289
f 248 289 290
f 248 290 286
f 249 286 291
f 249 291 250
f 252 285 292
f 252 292 287
f 254 293 270
f 254 261 293
f 259 294 260
f 260 294 295
f 260 295 261
f 261 295 296
f 261 296 297
f 261 297 298
f 261 298 299
f 261 299 300
f 261 300 293
f 262 264 301
f 262 301 302
f 262 302 303
f 262 303 304
f 262 304 305
f 262 305 306
f 262 306 265
f 263 278 307
f 263 307 264
f 264 307 308
f 264 308 309
f 264 309 301
f 265 310 311
f 265 311 312
f 265 312 268
f 265 268 266
f 265 306 310
f 266 268 267
f 268 312 269
f 269 312 311
f 269 311 313
f 269 313 279
f 270 293 314
f 270 314 273
f 271 315 318
f 271 318 274
f 271 274 272
f 271 273 315
f 273 314 316
f 273 316 317
f 273 317 315
f 275 318 319
f 275 319 320
f 275 320 321
f 275 321 322
f 275 322 276
f 276 323 324
f 276 324 325
f 276 325 326
f 276 322 323
f 277 326 325
f 277 325 278
f 278 325 365
f 278 365 307
f 279 313 327
f 279 327 328
f 279 328 281
f 280 282 284
f 281 328 329
f 281 329 282
f 282 330 284
f 282 329 331
f 282 331 332
f 282 332 330
f 283 284 333
f 283 333 285
f 284 330 333
f 285 333 292
f 286 290 334
f 286 334 335
f 286 335 336
f 286 336 337
f 286 337 338
f 286 338 291
f 287 292 339
f 287 339 288
f 288 339 340
f 288 340 289
f 289 340 341
f 289 341 334
f 289 334 290
f 292 333 339
f 293 342 316
f 293 316 314
f 293 300 349
f 293 349 342
f 298 343 299
f 299 343 344
f 299 344 345
f 299 345 346
f 299 346 347
f 299 347 348
f 299 348 349
f 299 349 300
f 301 350 351
f 301 351 302
f 301 309 350
f 302 351 352
f 302 352 353
f 302 353 354
f 302 354 355
f 302 355 356
f 302 356 357
f 302 357 358
f 302 358 359
f 302 359 303
f 303 359 360
f 303 360 304
f 304 360 305
f 305 360 358
f 305 358 361
f 305 361 362
f 305 362 363
f 305 363 311
f 305 311 364
f 305 364 306
f 306 364 310
f 307 365 366
f 307 366 308
f 308 366 367
f 308 367 309
f 309 367 399
f 309 399 350
f 310 364 311
f 311 363 368
f 311 368 327
f 311 327 313
f 315 369 319
f 315 319 318
f 315 317 369
f 316 342 370
f 316 370 317
f 317 370 369
f 319 369 320
f 320 369 371
f 320 371 321
f 321 372 322
f 321 371 372
f 322 373 374
f 322 374 323
f 322 372 373
f 323 375 376
f 323 376 324
f 323 374 373
f 323 373 375
f 324 376 377
f 324 377 365
f 324 365 325
f 327 368 328
f 328 368 378
f 328 378 329
f 329 378 379
f 329 379 331
f 330 380 333
f 330 332 381
f 330 381 380
f 331 379 382
f 331 382 332
f 332 382 383
f 332 383 381
f 333 380 339
f 334 384 336
f 334 336 335
f 334 341 385
f 334 385 386
f 334 386 384
f 336 387 388
f 336 388 337
f 336 384 389
f 336 389 390
f 336 390 387
f 339 380 391
f 339 391 340
f 340 391 341
f 341 391 392
f 341 392 393
f 341 393 394
f 341 394 385
f 342 395 370
f 342 349 396
f 342 396 395
f 347 397 348
f 348 397 398
f 348 398 396
f 348 396 349
f 350 399 458
f 350 458 400
f 350 400 401
f 350 401 402
f 350 402 352
f 350 352 351
f 352 402 403
f 352 403 404
f 352 404 353
f 353 403 405
f 353 405 406
f 353 406 407
f 353 407 408
f 353 408 409
f 353 409 410
f 353 410 411
f 353 411 412
f 353 412 356
f 353 356 355
f 353 355 354
f 353 404 403
f 356 412 413
f 356 413 411
f 356 411 414
f 356 414 415
f 356 415 357
f 357 415 358
f 358 415 416
f 358 416 361
f 358 360 359
f 361 416 417
f 361 417 362
f 362 368 363
f 362 417 418
f 362 418 368
f 365 377 366
f 366 377 367
f 367 377 419
f 367 419 399
f 368 418 420
f 368 420 378
f 369 370 421
f 369 421 371
f 370 395 421
f 371 422 372
f 371 421 423
f 371 423 422
f 372 424 373
f 372 422 425
f 372 425 426
f 372 426 424
f 373 424 427
f 373 427 375
f 375 427 428
f 375 428 376
f 376 429 430
f 376 430 377
f 376 428 429
f 377 430 419
f 378 420 379
f 379 420 431
f 379 431 432
f 379 432 382
f 380 381 391
f 381 383 433
f 381 433 391
f 382 432 434
f 382 434 383
f 383 434 435
f 383 435 436
f 383 436 433
f 384 386 437
f 384 437 389
f 385 394 438
f 385 438 386
f 386 438 437
f 389 437 439
f 389 439 390
f 390 439 440
f 391 433 436
f 391 436 392
f 392 436 441
f 392 441 393
f 393 442 438
f 393 438 394
f 393 441 443
f 393 443 444
f 393 444 445
f 393 445 442
f 395 446 421
f 395 396 446
f 396 398 447
f 396 447 448
f 396 448 449
f 396 449 450
f 396 450 451
f 396 451 452
f 396 452 453
f 396 453 446
f 399 419 454
f 399 454 455
f 399 455 456
f 399 456 457
f 399 457 458
f 400 458 535
f 400 535 459
f 400 459 460
f 400 460 461
f 400 461 401
f 401 461 462
f 401 462 403
f 401 403 402
f 403 462 405
f 405 462 406
f 406 463 464
f 406 464 407
f 406 462 463
f 407 464 465
f 407 465 466
f 407 466 408
f 408 466 467
f 408 467 468
f 408 468 410
f 408 410 409
f 410 468 411
f 411 469 470
f 411 470 414
f 411 413 412
f 411 468 471
f 411 471 472
f 411 472 473
f 411 473 469
f 414 470 415
f 415 470 416
f 416 470 474
f 416 474 417
f 417 474 418
f 418 474 475
f 418 475 431
f 418 431 420
f 419 476 454
f 419 430 476
f 421 446 423
f 422 423 425
f 423 446 477
f 423 477 425
f 424 478 479
f 424 479 480
f 424 480 427
f 424 426 478
f 425 481 426
f 425 477 482
f 425 482 483
f 425 483 481
f 426 481 484
f 426 484 485
f 426 485 486
f 426 486 487
f 426 487 488
f 426 488 479
f 426 479 478
f 427 489 490
f 427 490 428
f 427 480 479
f 427 479 489
f 428 491 492
f 428 492 493
f 428 493 494
f 428 494 429
f 428 490 491
f 429 495 496
f 429 496 430
f 429 494 495
f 430 496 497
f 430 497 498
f 430 498 499
f 430 499 500
f 430 500 476
f 431 475 501
f 431 501 502
f 431 502 503
f 431 503 432
f 432 503 434
f 434 503 504
f 434 504 505
f 434 505 435
f 435 505 436
f 436 505 506
f 436 506 443
f 436 443 441
f 437 507 439
f 437 438 442
f 437 442 508
f 437 508 509
f 437 509 510
f 437 510 507
f 439 511 440
f 439 507 512
f 439 512 513
f 439 513 511
f 442 445 508
f 443 506 444
f 444 506 514
f 444 514 515
f 444 515 516
f 444 516 445
f 445 516 517
f 445 517 518
f 445 518 519
f 445 519 508
f 446 482 477
f 446 453 520
f 446 520 521
f 446 521 522
f 446 522 523
f 446 523 524
f 446 524 525
f 446 525 482
f 452 526 453
f 453 526 527
f 453 527 520
f 454 476 455
f 455 528 529
f 455 529 456
f 455 476 530
f 455 530 531
f 455 531 528
f 456 529 457
f 457 529 532
f 457 532 533
f 457 533 458
f 458 533 534
f 458 534 535
f 459 535 629
f 459 629 536
f 459 536 460
f 460 536 537
f 460 537 461
f 461 537 463
f 461 463 462
f 463 537 538
f 463 538 464
f 464 538 539
f 464 539 465
f 465 539 540
f 465 540 541
f 465 541 542
f 465 542 466
f 466 542 467
f 467 543 468
f 467 542 544
f 467 544 543
f 468 543 471
f 469 473 545
f 469 545 546
f 469 546 474
f 469 474 470
f 471 543 472
f 472 547 473
f 472 543 548
f 472 548 549
f 472 549 547
f 473 547 545
f 474 546 501
f 474 501 475
f 476 500 550
f 476 550 551
f 476 551 552
f 476 552 553
f 476 553 554
f 476 554 530
f 479 488 489
f 481 483 555
f 481 555 484
f 482 525 483
f 483 525 556
f 483 556 557
f 483 557 558
f 483 558 559
f 483 559 560
f 483 560 561
f 483 561 562
f 483 562 563
f 483 563 564
f 483 564 565
f 483 565 484
f 483 484 555
f 484 566 567
f 484 567 568
f 484 568 569
f 484 569 486
f 484 486 485
f 484 565 570
f 484 570 571
f 484 571 572
f 484 572 573
f 484 573 574
f 484 574 575
f 484 575 576
f 484 576 566
f 486 569 577
f 486 577 578
f 486 578 579
f 486 579 580
f 486 580 488
f 486 488 487
f 488 580 490
f 488 490 489
f 490 581 582
f 490 582 583
f 490 583 584
f 490 584 585
f 490 585 586
f 490 586 587
f 490 587 491
f 490 580 581
f 491 587 492
f 492 588 493
f 492 587 588
f 493 589 590
f 493 590 591
f 493 591 592
f 493 592 593
f 493 593 494
f 493 588 589
f 494 593 495
f 495 593 592
f 495 592 496
f 496 592 594
f 496 594 595
f 496 595 596
f 496 596 497
f 497 596 597
f 497 597 498
f 498 597 595
f 498 595 598
f 498 598 599
f 498 599 600
f 498 600 551
f 498 551 601
f 498 601 499
f 499 601 500
f 500 601 550
f 501 546 545
f 501 545 602
f 501 602 603
f 501 603 604
f 501 604 502
f 502 604 605
f 502 605 503
f 503 605 504
f 504 605 606
f 504 606 506
f 504 506 505
f 506 606 607
f 506 607 514
f 507 510 512
f 508 519 509
f 509 519 608
f 509 608 609
f 509 609 512
f 509 512 510
f 512 610 611
f 512 611 513
f 512 609 610
f 514 607 515
f 515 517 516
f 515 607 612
f 515 612 613
f 515 613 517
f 517 613 614
f 517 614 518
f 518 614 615
f 518 615 616
f 518 616 617
f 518 617 618
f 518 618 519
f 519 618 608
f 524 619 556
f 524 556 525
f 528 531 529
f 529 531 620
f 529 620 532
f 530 554 531
f 531 554 553
f 531 553 621
f 531 621 622
f 531 622 623
f 531 623 624
f 531 624 625
f 531 625 626
f 531 626 620
f 532 620 626
f 532 626 627
f 532 627 533
f 533 627 628
f 533 628 534
f 534 628 629
f 534 629 535
f 536 629 700
f 536 700 630
f 536 630 631
f 536 631 537
f 537 631 538
f 538 631 632
f 538 632 539
f 539 632 633
f 539 633 540
f 540 633 703
f 540 703 634
f 540 634 541
f 541 634 635
f 541 635 542
f 542 635 636
f 542 636 544
f 543 544 548
f 544 636 637
f 544 637 638
f 544 638 548
f 545 547 639
f 545 639 640
f 545 640 602
f 547 549 639
f 548 638 549
f 549 638 641
f 549 641 639
f 550 601 551
f 551 642 643
f 551 643 552
f 551 600 642
f 552 643 553
f 553 644 645
f 553 645 646
f 553 646 621
f 553 643 644
f 556 619 557
f 558 560 559
f 563 647 564
f 564 647 570
f 564 570 565
f 566 576 567
f 567 576 648
f 567 648 649
f 567 649 650
f 567 650 568
f 568 650 649
f 568 649 651
f 568 651 577
f 568 577 569
f 572 652 573
f 573 652 574
f 574 652 653
f 574 653 575
f 575 653 654
f 575 654 655
f 575 655 576
f 576 655 656
f 576 656 657
f 576 657 648
f 577 651 658
f 577 658 659
f 577 659 660
f 577 660 661
f 577 661 662
f 577 662 578
f 578 662 661
f 578 661 663
f 578 663 579
f 579 663 580
f 580 663 664
f 580 664 665
f 580 665 666
f 580 666 667
f 580 667 581
f 581 667 582
f 582 668 583
f 582 667 666
f 582 666 668
f 583 668 584
f 584 668 669
f 584 669 670
f 584 670 586
f 584 586 585
f 586 671 672
f 586 672 673
f 586 673 587
f 586 670 671
f 587 673 588
f 588 673 672
f 588 672 589
f 589 674 590
f 589 672 675
f 589 675 674
f 590 676 677
f 590 677 591
f 590 674 676
f 591 677 595
f 591 595 594
f 591 594 592
f 595 678 679
f 595 679 598
f 595 597 596
f 595 677 678
f 598 679 599
f 599 679 680
f 599 680 681
f 599 681 600
f 600 681 642
f 602 640 603
f 603 640 682
f 603 682 607
f 603 607 605
f 603 605 604
f 605 607 606
f 607 682 612
f 608 618 683
f 608 683 609
f 609 683 684
f 609 684 610
f 610 684 685
f 612 641 638
f 612 638 686
f 612 686 687
f 612 687 688
f 612 688 613
f 612 682 640
f 612 640 639
f 612 639 641
f 613 688 614
f 614 688 687
f 614 687 686
f 614 686 689
f 614 689 615
f 615 689 690
f 615 690 616
f 616 691 617
f 616 690 691
f 617 691 692
f 617 692 618
f 618 692 683
f 621 646 645
f 621 645 622
f 622 645 693
f 622 693 624
f 622 624 623
f 624 693 694
f 624 694 695
f 624 695 625
f 625 695 696
f 625 696 697
f 625 697 626
f 626 697 627
f 627 697 698
f 627 698 628
f 628 698 699
f 628 699 629
f 629 699 700
f 630 700 762
f 630 762 701
f 630 701 632
f 630 632 631
f 632 701 633
f 633 701 702
f 633 702 764
f 633 764 703
f 634 703 704
f 634 704 705
f 634 705 706
f 634 706 635
f 635 706 707
f 635 707 636
f 636 707 708
f 636 708 637
f 637 708 638
f 638 708 686
f 642 681 709
f 642 709 710
f 642 710 643
f 643 710 644
f 644 710 645
f 645 710 711
f 645 711 712
f 645 712 713
f 645 713 714
f 645 714 693
f 648 657 649
f 649 657 715
f 649 715 716
f 649 716 717
f 649 717 651
f 651 717 718
f 651 718 658
f 655 719 656
f 656 720 657
f 656 719 720
f 657 720 721
f 657 721 715
f 658 718 659
f 659 718 722
f 659 722 723
f 659 723 724
f 659 724 660
f 660 724 661
f 661 724 725
f 661 725 663
f 663 725 726
f 663 726 666
f 663 666 665
f 663 665 664
f 666 726 668
f 668 726 727
f 668 727 728
f 668 728 669
f 669 728 729
f 669 729 730
f 669 730 670
f 670 730 671
f 671 731 672
f 671 730 732
f 671 732 731
f 672 731 675
f 674 675 733
f 674 733 734
f 674 734 676
f 675 731 733
f 676 735 736
f 676 736 737
f 676 737 677
f 676 734 735
f 677 737 738
f 677 738 739
f 677 739 679
f 677 679 678
f 679 740 680
f 679 739 741
f 679 741 740
f 680 740 742
f 680 742 743
f 680 743 709
f 680 709 681
f 683 744 684
f 683 692 745
f 683 745 744
f 684 744 746
f 684 746 747
f 684 747 685
f 686 748 749
f 686 749 689
f 686 708 750
f 686 750 748
f 689 749 690
f 690 749 751
f 690 751 752
f 690 752 753
f 690 753 691
f 691 753 754
f 691 754 745
f 691 745 692
f 693 714 755
f 693 755 694
f 694 755 756
f 694 756 757
f 694 757 695
f 695 757 696
f 696 757 758
f 696 758 759
f 696 759 760
f 696 760 697
f 697 760 698
f 698 760 699
f 699 760 761
f 699 761 700
f 700 761 762
f 701 762 763
f 701 763 702
f 702 763 820
f 702 820 764
f 703 764 765
f 703 765 704
f 704 765 822
f 704 822 766
f 704 766 767
f 704 767 705
f 705 767 768
f 705 768 750
f 705 750 708
f 705 708 707
f 705 707 706
f 709 743 769
f 709 769 770
f 709 770 711
f 709 711 710
f 711 771 712
f 711 770 771
f 712 771 772
f 712 772 713
f 713 772 773
f 713 773 774
f 713 774 755
f 713 755 714
f 715 721 775
f 715 775 716
f 716 775 776
f 716 776 717
f 717 777 718
f 717 776 777
f 718 777 778
f 718 778 722
f 722 779 780
f 722 780 723
f 722 778 779
f 723 780 724
f 724 780 781
f 724 781 725
f 725 781 782
f 725 782 726
f 726 782 727
f 727 782 728
f 728 782 783
f 728 783 784
f 728 784 729
f 729 785 786
f 729 786 730
f 729 784 785
f 730 786 732
f 731 732 787
f 731 787 733
f 732 788 787
f 732 786 789
f 732 789 788
f 733 790 734
f 733 787 791
f 733 791 790
f 734 790 792
f 734 792 793
f 734 793 735
f 735 794 795
f 735 795 736
f 735 793 792
f 735 792 796
f 735 796 794
f 736 795 797
f 736 797 798
f 736 798 738
f 736 738 737
f 738 798 799
f 738 799 741
f 738 741 739
f 740 741 799
f 740 799 742
f 742 800 801
f 742 801 769
f 742 769 743
f 742 799 802
f 742 802 800
f 744 745 746
f 745 754 803
f 745 803 804
f 745 804 805
f 745 805 746
f 748 806 749
f 748 750 768
f 748 768 806
f 749 806 807
f 749 807 751
f 751 808 809
f 751 809 752
f 751 807 808
f 752 809 810
f 752 810 753
f 753 810 811
f 753 811 803
f 753 803 754
f 755 774 756
f 756 812 813
f 756 813 757
f 756 774 812
f 757 813 814
f 757 814 815
f 757 815 758
f 758 815 816
f 758 816 817
f 758 817 759
f 759 818 760
f 759 817 819
f 759 819 818
f 760 818 761
f 761 818 762
f 762 818 763
f 763 818 820
f 764 820 821
f 764 821 765
f 765 821 822
f 766 822 823
f 766 823 824
f 766 824 767
f 767 824 825
f 767 825 826
f 767 826 827
f 767 827 768
f 768 827 826
f 768 826 806
f 769 828 829
f 769 829 830
f 769 830 771
f 769 771 770
f 769 801 828
f 771 830 831
f 771 831 832
f 771 832 772
f 772 832 773
f 773 833 834
f 773 834 812
f 773 812 774
f 773 832 833
f 775 835 776
f 776 835 836
f 776 836 778
f 776 778 777
f 778 836 837
f 778 837 838
f 778 838 839
f 778 839 840
f 778 840 779
f 779 840 780
f 780 841 842
f 780 842 843
f 780 843 781
f 780 840 841
f 781 843 844
f 781 844 783
f 781 783 782
f 783 844 784
f 784 845 785
f 784 844 846
f 784 846 845
f 785 789 786
f 785 845 847
f 785 847 788
f 785 788 789
f 787 788 791
f 788 848 849
f 788 849 791
f 788 847 850
f 788 850 851
f 788 851 852
f 788 852 848
f 790 791 849
f 790 849 853
f 790 853 792
f 792 854 796
f 792 853 854
f 794 796 855
f 794 855 856
f 794 856 795
f 795 856 857
f 795 857 858
f 795 858 797
f 796 854 855
f 797 858 859
f 797 859 860
f 797 860 861
f 797 861 798
f 798 861 799
f 799 861 802
f 800 862 863
f 800 863 801
f 800 802 864
f 800 864 862
f 801 863 828
f 802 861 864
f 803 811 865
f 803 865 866
f 803 866 804
f 804 866 867
f 804 867 868
f 804 868 805
f 806 826 807
f 807 869 808
f 807 826 869
f 808 870 871
f 808 871 809
f 808 869 870
f 809 871 872
f 809 872 810
f 810 872 873
f 810 873 811
f 811 873 865
f 812 874 875
f 812 875 813
f 812 834 833
f 812 833 874
f 813 875 814
f 814 875 876
f 814 876 815
f 815 876 877
f 815 877 816
f 816 877 878
f 816 878 817
f 817 878 879
f 817 879 819
f 818 819 820
f 819 879 821
f 819 821 820
f 821 879 880
f 821 880 881
f 821 881 822
f 822 881 935
f 822 935 882
f 822 882 823
f 823 882 883
f 823 883 884
f 823 884 824
f 824 884 885
f 824 885 825
f 825 885 826
f 826 885 869
f 828 863 829
f 829 886 833
f 829 833 831
f 829 831 830
f 829 863 886
f 831 833 832
f 833 887 888
f 833 888 874
f 833 886 889
f 833 889 890
f 833 890 887
f 835 891 836
f 836 892 837
f 836 891 892
f 837 892 838
f 838 892 893
f 838 893 894
f 838 894 895
f 838 895 839
f 839 895 896
f 839 896 841
f 839 841 840
f 841 897 842
f 841 896 897
f 842 898 899
f 842 899 843
f 842 897 898
f 843 899 900
f 843 900 845
f 843 845 846
f 843 846 844
f 845 901 847
f 845 900 902
f 845 902 901
f 847 903 851
f 847 851 850
f 847 901 903
f 848 904 905
f 848 905 849
f 848 852 851
f 848 851 906
f 848 906 904
f 849 905 853
f 851 903 906
f 853 907 908
f 853 908 854
f 853 905 907
f 854 908 855
f 855 908 909
f 855 909 856
f 856 910 911
f 856 911 857
f 856 909 910
f 857 911 912
f 857 912 858
f 858 912 913
f 858 913 859
f 859 913 860
f 860 913 914
f 860 914 861
f 861 914 864
f 862 864 915
f 862 915 916
f 862 916 863
f 863 916 886
f 864 914 915
f 865 873 917
f 865 917 918
f 865 918 866
f 866 918 919
f 866 919 920
f 866 920 867
f 869 885 870
f 870 921 871
f 870 885 921
f 871 922 923
f 871 923 872
f 871 921 922
f 872 923 873
f 873 924 917
f 873 923 924
f 874 888 925
f 874 925 926
f 874 926 927
f 874 927 928
f 874 928 929
f 874 929 875
f 875 929 878
f 875 878 876
f 876 878 877
f 878 930 879
f 878 929 931
f 878 931 930
f 879 930 880
f 880 930 932
f 880 932 933
f 880 933 934
f 880 934 881
f 881 934 935
f 882 935 988
f 882 988 936
f 882 936 883
f 883 936 937
f 883 937 921
f 883 921 884
f 884 921 885
f 886 916 938
f 886 938 889
f 887 890 925
f 887 925 888
f 889 938 939
f 889 939 940
f 889 940 941
f 889 941 890
f 890 941 925
f 894 942 895
f 895 942 943
f 895 943 897
f 895 897 896
f 897 944 898
f 897 943 945
f 897 945 944
f 898 946 947
f 898 947 899
f 898 944 946
f 899 947 948
f 899 948 901
f 899 901 902
f 899 902 900
f 901 949 903
f 901 948 950
f 901 950 949
f 903 951 952
f 903 952 906
f 903 949 951
f 904 953 954
f 904 954 955
f 904 955 956
f 904 956 905
f 904 906 953
f 905 956 957
f 905 957 907
f 906 952 953
f 907 958 908
f 907 957 958
f 908 959 909
f 908 958 959
f 909 959 960
f 909 960 910
f 910 960 961
f 910 961 911
f 911 962 963
f 911 963 912
f 911 961 962
f 912 963 964
f 912 964 965
f 912 965 913
f 913 965 966
f 913 966 967
f 913 967 916
f 913 916 915
f 913 915 914
f 916 939 938
f 916 967 939
f 917 924 968
f 917 968 969
f 917 969 918
f 918 969 970
f 918 970 919
f 921 937 971
f 921 971 922
f 922 971 972
f 922 972 973
f 922 973 923
f 923 973 974
f 923 974 924
f 924 974 975
f 924 975 976
f 924 976 968
f 925 977 926
f 925 941 978
f 925 978 977
f 926 977 979
f 926 979 927
f 927 980 981
f 927 981 928
f 927 979 980
f 928 981 929
f 929 981 931
f 930 982 983
f 930 983 932
f 930 931 982
f 931 981 983
f 931 983 982
f 932 983 984
f 932 984 933
f 933 984 985
f 933 985 934
f 934 985 986
f 934 986 987
f 934 987 935
f 935 987 988
f 936 988 1040
f 936 1040 989
f 936 989 990
f 936 990 937
f 937 990 991
f 937 991 971
f 939 992 940
f 939 967 993
f 939 993 992
f 940 992 941
f 941 992 978
f 942 994 945
f 942 945 943
f 944 995 946
f 944 945 994
f 944 994 996
f 944 996 995
f 946 997 1046
f 946 1046 998
f 946 998 947
f 946 995 997
f 947 998 999
f 947 999 1000
f 947 1000 949
f 947 949 950
f 947 950 948
f 949 1001 1002
f 949 1002 951
f 949 1000 1001
f 951 1002 1003
f 951 1003 954
f 951 954 952
f 952 954 953
f 954 1004 1005
f 954 1005 1006
f 954 1006 955
f 954 1003 1007
f 954 1007 1008
f 954 1008 1004
f 955 1006 956
f 956 1009 1010
f 956 1010 957
f 956 1006 1009
f 957 1010 958
f 958 1010 959
f 959 1011 960
f 959 1010 1011
f 960 1011 961
f 961 1011 1012
f 961 1012 962
f 962 1013 963
f 962 1012 1013
f 963 1013 964
f 964 1013 1014
f 964 1014 1015
f 964 1015 993
f 964 993 965
f 965 993 966
f 966 993 967
f 968 976 969
f 969 1016 970
f 969 976 1016
f 971 991 972
f 972 1017 1018
f 972 1018 1019
f 972 1019 1020
f 972 1020 974
f 972 974 973
f 972 991 1017
f 974 1020 1021
f 974 1021 1022
f 974 1022 1023
f 974 1023 975
f 975 1023 976
f 976 1023 1016
f 977 978 1024
f 977 1024 979
f 978 1025 1026
f 978 1026 1024
f 978 992 1027
f 978 1027 1025
f 979 1028 1029
f 979 1029 980
f 979 1024 1030
f 979 1030 1031
f 979 1031 1032
f 979 1032 1028
f 980 1029 1033
f 980 1033 1034
f 980 1034 983
f 980 983 981
f 983 1034 984
f 984 1034 1035
f 984 1035 1036
f 984 1036 985
f 985 1036 986
f 986 1036 1080
f 986 1080 1037
f 986 1037 1038
f 986 1038 1039
f 986 1039 1040
f 986 1040 988
f 986 988 987
f 989 1040 1039
f 989 1039 1041
f 989 1041 991
f 989 991 990
f 991 1041 1042
f 991 1042 1017
f 992 993 1043
f 992 1043 1044
f 992 1044 1027
f 993 1015 1045
f 993 1045 1043
f 998 1046 1047
f 998 1047 1048
f 998 1048 999
f 999 1048 1049
f 999 1049 1050
f 999 1050 1001
f 999 1001 1000
f 1001 1050 1002
f 1002 1051 1003
f 1002 1050 1051
f 1003 1051 1007
f 1004 1052 1005
f 1004 1008 1052
f 1005 1053 1054
f 1005 1054 1010
f 1005 1010 1009
f 1005 1009 1006
f 1005 1052 1053
f 1007 1051 1055
f 1007 1055 1056
f 1007 1056 1008
f 1008 1056 1057
f 1008 1057 1052
f 1010 1054 1011
f 1011 1054 1012
f 1012 1054 1053
f 1012 1053 1058
f 1012 1058 1059
f 1012 1059 1060
f 1012 1060 1013
f 1013 1060 1061
f 1013 1061 1014
f 1014 1061 1062
f 1014 1062 1045
f 1014 1045 1015
f 1016 1023 1063
f 1017 1042 1018
f 1018 1042 1041
f 1018 1041 1039
f 1018 1039 1064
f 1018 1064 1065
f 1018 1065 1066
f 1018 1066 1067
f 1018 1067 1019
f 1019 1067 1066
f 1019 1066 1020
f 1020 1066 1021
f 1021 1066 1022
f 1022 1066 1068
f 1022 1068 1063
f 1022 1063 1023
f 1024 1026 1031
f 1024 1031 1030
f 1025 1069 1026
f 1025 1027 1070
f 1025 1070 1071
f 1025 1071 1069
f 1026 1069 1031
f 1027 1044 1072
f 1027 1072 1070
f 1028 1073 1029
f 1028 1032 1074
f 1028 1074 1073
f 1029 1073 1033
f 1031 1069 1075
f 1031 1075 1076
f 1031 1076 1032
f 1032 1076 1077
f 1032 1077 1078
f 1032 1078 1074
f 1033 1073 1079
f 1033 1079 1035
f 1033 1035 1034
f 1035 1079 1036
f 1036 1079 1080
f 1037 1080 1081
f 1037 1081 1064
f 1037 1064 1082
f 1037 1082 1038
f 1038 1082 1039
f 1039 1082 1064
f 1043 1045 1083
f 1043 1083 1044
f 1044 1083 1072
f 1045 1062 1083
f 1049 1084 1050
f 1050 1084 1051
f 1051 1084 1055
f 1052 1085 1086
f 1052 1086 1053
f 1052 1057 1085
f 1053 1087 1058
f 1053 1086 1088
f 1053 1088 1087
f 1058 1087 1059
f 1059 1089 1090
f 1059 1090 1091
f 1059 1091 1061
f 1059 1061 1060
f 1059 1087 1089
f 1061 1091 1090
f 1061 1090 1092
f 1061 1092 1062
f 1062 1092 1083
f 1064 1081 1093
f 1064 1093 1065
f 1065 1094 1095
f 1065 1093 1096
f 1065 1096 1097
f 1065 1097 1094
f 1069 1071 1075
f 1070 1072 1083
f 1070 1083 1098
f 1070 1098 1099
f 1070 1099 1100
f 1070 1100 1071
f 1071 1100 1101
f 1071 1101 1102
f 1071 1102 1075
f 1073 1074 1103
f 1073 1103 1079
f 1074 1078 1104
f 1074 1104 1103
f 1075 1077 1076
f 1075 1102 1105
f 1075 1105 1106
f 1075 1106 1077
f 1077 1107 1078
f 1077 1106 1129
f 1077 1129 1107
f 1078 1107 1104
f 1079 1103 1108
f 1079 1108 1080
f 1080 1108 1109
f 1080 1109 1081
f 1081 1109 1118
f 1081 1118 1097
f 1081 1097 1096
f 1081 1096 1093
f 1083 1092 1090
f 1083 1090 1110
f 1083 1110 1111
f 1083 1111 1112
f 1083 1112 1098
f 1089 1113 1090
f 1090 1113 1114
f 1090 1114 1115
f 1090 1115 1110
f 1094 1116 1095
f 1094 1097 1116
f 1095 1116 1117
f 1097 1118 1116
f 1098 1112 1099
f 1099 1112 1111
f 1099 1111 1119
f 1099 1119 1120
f 1099 1120 1121
f 1099 1121 1122
f 1099 1122 1123
f 1099 1123 1100
f 1100 1123 1101
f 1101 1123 1122
f 1101 1122 1124
f 1101 1124 1125
f 1101 1125 1105
f 1101 1105 1102
f 1103 1104 1127
f 1103 1127 1108
f 1104 1107 1126
f 1104 1126 1127
f 1105 1128 1106
f 1106 1128 1129
f 1107 1129 1126
f 1108 1127 1109
f 1109 1127 1118
f 1110 1115 1111
f 1111 1115 1119
f 1116 1130 1131
f 1116 1131 1132
f 1116 1132 1117
f 1116 1118 1130
f 1118 1127 1130
f 1126 1133 1127
f 1126 1129 1134
f 1126 1134 1135
f 1126 1135 1133
f 1127 1133 1136
f 1127 1136 1130
f 1128 1137 1129
f 1129 1137 1138
f 1129 1138 1134
f 1130 1136 1131
f 1133 1135 1136
f 1134 1138 1139
f 1134 1139 1140
f 1134 1140 1135

