# https://github.com/mikedh/trimesh
v -0.01203002 0.00134193 -0.00636610
v -0.01198597 0.00158673 -0.00711262
v -0.01200799 0.00138239 -0.00692050
v -0.01200386 0.00130146 -0.00716075
v -0.01200524 0.00094538 -0.00716075
v -0.01201075 0.00088671 -0.00689834
v -0.01201350 0.00076330 -0.00636283
v -0.01201350 0.00076330 -0.00583712
v -0.01202864 0.00134193 -0.00583403
v -0.01174232 0.00506862 -0.00636610
v -0.01172993 0.00506862 -0.00689834
v -0.01198459 0.00157055 -0.00716075
v -0.01171754 0.00506862 -0.00716075
v -0.01198734 0.00080983 -0.00716075
v -0.01198734 0.00055491 -0.00653807
v -0.01198872 0.00054277 -0.00618323
v -0.01200799 0.00089278 -0.00530560
v -0.01198872 0.00054277 -0.00601671
v -0.01198734 0.00055491 -0.00566188
v -0.01200662 0.00137227 -0.00530560
v -0.01168863 0.00560071 -0.00530560
v -0.01174094 0.00506862 -0.00583403
v -0.01169964 0.00560071 -0.00583403
v -0.01169964 0.00560071 -0.00636610
v -0.01168863 0.00560071 -0.00689834
v -0.01169689 0.00533770 -0.00716075
v -0.01196807 0.00067833 -0.00716075
v -0.01197633 0.00062168 -0.00689834
v -0.01188548 0.00045173 -0.00716075
v -0.01180564 0.00027774 -0.00716075
v -0.01182078 0.00027774 -0.00689834
v -0.01186621 0.00033034 -0.00636283
v -0.01186758 0.00033034 -0.00583712
v -0.01197771 0.00062775 -0.00530560
v -0.01181940 0.00027774 -0.00530560
v -0.01197633 0.00062370 -0.00530560
v -0.01164458 0.00613280 -0.00530560
v -0.01165697 0.00613280 -0.00583403
v -0.01145874 0.00856061 -0.00619104
v -0.01167624 0.00560071 -0.00716075
v -0.01134587 0.00985747 -0.00636610
v -0.01128530 0.01038956 -0.00689834
v -0.01146563 0.00811147 -0.00716075
v -0.01169001 0.00007744 -0.00716075
v -0.01156061 -0.00013701 -0.00716075
v -0.01156474 -0.00014308 -0.00689834
v -0.01157162 -0.00015320 -0.00636610
v -0.01157162 -0.00015117 -0.00583403
v -0.01156336 -0.00013904 -0.00530560
v -0.01128668 0.01038552 -0.00530560
v -0.01134587 0.00985747 -0.00583403
v -0.01145874 0.00856061 -0.00600691
v -0.01130044 0.01038956 -0.00636610
v -0.01123987 0.01092166 -0.00689834
v -0.01129493 0.01012655 -0.00716075
v -0.01137065 -0.00040205 -0.00716075
v -0.01137340 -0.00040812 -0.00689834
v -0.01138028 -0.00041823 -0.00583403
v -0.01138028 -0.00041823 -0.00636610
v -0.01137065 -0.00040812 -0.00530560
v -0.01123987 0.01092166 -0.00530560
v -0.01130044 0.01038956 -0.00583403
v -0.01125364 0.01092166 -0.00636610
v -0.01124813 0.01065865 -0.00716075
v -0.01114351 0.01198585 -0.00689834
v -0.01092051 0.01435499 -0.00707213
v -0.01123987 -0.00056795 -0.00716075
v -0.01111460 -0.00073992 -0.00636610
v -0.01111323 -0.00073992 -0.00583403
v -0.01110635 -0.00073587 -0.00530560
v -0.01110497 -0.00073385 -0.00716075
v -0.01119169 0.01144971 -0.00530560
v -0.01115590 0.01198585 -0.00583403
v -0.01120546 0.01145375 -0.00636610
v -0.01091776 0.01431048 -0.00716075
v -0.01096181 0.01411625 -0.00636610
v -0.01092602 0.01440759 -0.00671730
v -0.01090261 0.01460991 -0.00689617
v -0.01080075 0.01571254 -0.00689834
v -0.01075119 0.01624463 -0.00689834
v -0.01073605 0.01624463 -0.00716075
v -0.01076083 0.01598162 -0.00716075
v -0.01098796 -0.00086940 -0.00716075
v -0.01087646 -0.00100293 -0.00689834
v -0.01087921 -0.00100496 -0.00636610
v -0.01087921 -0.00100496 -0.00583403
v -0.01087921 -0.00100091 -0.00530560
v -0.01109396 0.01251794 -0.00530560
v -0.01100999 0.01358416 -0.00583403
v -0.01086407 0.01518044 -0.00636610
v -0.01071402 0.01677673 -0.00636610
v -0.01059426 0.01784092 -0.00689834
v -0.01070990 0.01651574 -0.00716075
v -0.01076496 0.01624463 -0.00636610
v -0.01087508 -0.00099888 -0.00716075
v -0.01074431 -0.00112837 -0.00716075
v -0.01060941 -0.00125583 -0.00716075
v -0.01061354 -0.00125583 -0.00636610
v -0.01087508 -0.00100496 -0.00530560
v -0.01061354 -0.00125583 -0.00583403
v -0.01099622 0.01358416 -0.00530560
v -0.01092602 0.01440354 -0.00549191
v -0.01081451 0.01571254 -0.00583403
v -0.01071265 0.01677673 -0.00583403
v -0.01055572 0.01837301 -0.00636610
v -0.01076496 0.01624463 -0.00583403
v -0.01051029 0.01879990 -0.00647342
v -0.01049790 0.01879990 -0.00689834
v -0.01048276 0.01879990 -0.00716075
v -0.01055159 0.01811202 -0.00716075
v -0.01065759 0.01704783 -0.00716075
v -0.01015514 -0.00167058 -0.00716075
v -0.01061078 -0.00125381 -0.00530560
v -0.01094391 0.01415469 -0.00530560
v -0.01080075 0.01571254 -0.00530560
v -0.01069888 0.01677673 -0.00530560
v -0.01060665 0.01784092 -0.00583403
v -0.01051305 0.01879990 -0.00636610
v -0.01075119 0.01624463 -0.00530560
v 0.00052973 0.01879990 -0.00716075
v -0.01001748 -0.00173734 -0.00716075
v -0.00999408 -0.00165035 -0.00530560
v -0.01026251 -0.00151884 -0.00530560
v -0.01059151 0.01784092 -0.00530560
v -0.01049790 0.01879990 -0.00540892
v -0.01051029 0.01879990 -0.00583403
v 0.00054074 0.01879990 -0.00689834
v 0.00134328 0.01296304 -0.00689834
v 0.00133502 0.01290842 -0.00716075
v -0.00959213 -0.00186278 -0.00716075
v -0.00959626 -0.00172520 -0.00530560
v -0.01049515 0.01879585 -0.00530560
v -0.01049378 0.01879990 -0.00530560
v 0.00054350 0.01879990 -0.00679102
v 0.00142449 0.01251794 -0.00636610
v 0.00140385 0.01251794 -0.00689834
v 0.00135429 0.01276679 -0.00716075
v -0.00906077 -0.00186885 -0.00716075
v -0.00959213 -0.00172520 -0.00530560
v 0.00054212 0.01879990 -0.00530560
v 0.00055038 0.01879990 -0.00636610
v 0.00142449 0.01251794 -0.00583403
v 0.00149195 0.01198585 -0.00583403
v 0.00148919 0.01198585 -0.00636610
v 0.00147267 0.01198585 -0.00689834
v 0.00055175 0.01879990 -0.00625878
v 0.00145340 0.01198585 -0.00716075
v -0.00852805 -0.00183850 -0.00716075
v -0.00906490 -0.00172116 -0.00530560
v 0.00055038 0.01879990 -0.00572671
v 0.00140522 0.01251794 -0.00530560
v 0.00147405 0.01198990 -0.00530560
v 0.00055175 0.01879990 -0.00583403
v 0.00155114 0.01145375 -0.00583403
v 0.00153875 0.01145375 -0.00530560
v 0.00153049 0.01145375 -0.00689834
v 0.00166815 0.01038956 -0.00583403
v 0.00177552 0.00932537 -0.00636610
v 0.00151535 0.01145375 -0.00716075
v -0.00841379 -0.00181827 -0.00716075
v -0.00852805 -0.00167867 -0.00530560
v 0.00159656 0.01092166 -0.00530560
v 0.00174799 0.00932537 -0.00689834
v 0.00172321 0.00985747 -0.00583403
v 0.00185398 0.00856871 -0.00618451
v 0.00182920 0.00876495 -0.00636337
v 0.00180167 0.00879328 -0.00689834
v 0.00175900 0.00905427 -0.00716075
v -0.00808204 -0.00174746 -0.00716075
v -0.00820593 -0.00161798 -0.00530560
v 0.00165025 0.01039361 -0.00530560
v 0.00177689 0.00932537 -0.00583403
v 0.00185398 0.00856871 -0.00602470
v 0.00201091 0.00666490 -0.00636610
v 0.00183884 0.00838258 -0.00689834
v 0.00178515 0.00879328 -0.00716075
v 0.00185398 0.00803864 -0.00716075
v 0.00185123 0.00806898 -0.00716075
v -0.00692297 -0.00125987 -0.00716075
v -0.00699180 -0.00115669 -0.00530560
v -0.00746809 -0.00133878 -0.00530560
v 0.00170256 0.00985747 -0.00530560
v 0.00180030 0.00879328 -0.00530560
v 0.00182783 0.00876495 -0.00584202
v 0.00183746 0.00838055 -0.00530560
v 0.00186086 0.00811349 -0.00530560
v 0.00187050 0.00828344 -0.00584202
v 0.00201091 0.00666490 -0.00583403
v 0.00203294 0.00613280 -0.00583403
v 0.00203156 0.00613280 -0.00636610
v 0.00198476 0.00666490 -0.00689834
v 0.00196686 0.00666490 -0.00716075
v -0.00596213 -0.00068529 -0.00716075
v -0.00672200 -0.00102114 -0.00530560
v 0.00198200 0.00666895 -0.00530560
v 0.00200265 0.00613280 -0.00530560
v 0.00192281 0.00568366 -0.00530560
v 0.00193795 0.00565129 -0.00583403
v 0.00193795 0.00565129 -0.00636610
v 0.00192143 0.00568164 -0.00689834
v 0.00191317 0.00570389 -0.00716075
v 0.00200265 0.00613280 -0.00689834
v 0.00197650 0.00639582 -0.00716075
v -0.00639850 -0.00080466 -0.00530560
v 0.00031086 0.00362811 -0.00716075
v 0.00027094 0.00372523 -0.00530560
v 0.00181268 0.00541458 -0.00530560
v 0.00182507 0.00538423 -0.00583403
v 0.00182507 0.00538423 -0.00636610
v 0.00181268 0.00541458 -0.00689834
v 0.00180167 0.00543683 -0.00716075
v 0.00198476 0.00613280 -0.00716075
v 0.00085460 0.00419865 -0.00716075
v 0.00086699 0.00418449 -0.00689834
v 0.00088075 0.00417235 -0.00636610
v 0.00088213 0.00417235 -0.00583403
v 0.00086699 0.00418651 -0.00530560
v 0.00053661 0.00391945 -0.00530560
v 0.00158693 0.00506862 -0.00530560
v 0.00161171 0.00506862 -0.00583403
v 0.00161171 0.00506862 -0.00636610
v 0.00158693 0.00506862 -0.00689834
v 0.00154701 0.00504434 -0.00716075
v 0.00114092 0.00452438 -0.00716075
v 0.00113404 0.00448594 -0.00689834
v 0.00114781 0.00446976 -0.00636610
v 0.00114781 0.00446976 -0.00583403
v 0.00113266 0.00448594 -0.00530560
v 0.00135842 0.00475098 -0.00530560
v 0.00137081 0.00473681 -0.00583403
v 0.00137081 0.00473681 -0.00636610
v 0.00135842 0.00475098 -0.00689834
v 0.00134741 0.00476514 -0.00716075
f 1 2 3
f 1 3 4
f 1 4 5
f 1 5 6
f 1 6 7
f 1 7 8
f 1 8 9
f 1 9 22
f 1 22 10
f 1 10 11
f 1 11 2
f 2 12 4
f 2 4 3
f 2 11 13
f 2 13 12
f 4 12 13
f 4 13 26
f 4 26 40
f 4 40 43
f 4 43 55
f 4 55 64
f 4 64 75
f 4 75 82
f 4 82 81
f 4 81 93
f 4 93 111
f 4 111 110
f 4 110 109
f 4 109 120
f 4 120 129
f 4 129 137
f 4 137 147
f 4 147 159
f 4 159 168
f 4 168 176
f 4 176 178
f 4 178 177
f 4 177 192
f 4 192 203
f 4 203 212
f 4 212 201
f 4 201 211
f 4 211 223
f 4 223 233
f 4 233 224
f 4 224 213
f 4 213 205
f 4 205 193
f 4 193 179
f 4 179 169
f 4 169 160
f 4 160 148
f 4 148 138
f 4 138 130
f 4 130 121
f 4 121 112
f 4 112 97
f 4 97 96
f 4 96 95
f 4 95 83
f 4 83 71
f 4 71 67
f 4 67 56
f 4 56 45
f 4 45 44
f 4 44 30
f 4 30 29
f 4 29 27
f 4 27 14
f 4 14 5
f 5 14 15
f 5 15 6
f 6 15 7
f 7 15 16
f 7 16 18
f 7 18 8
f 8 17 9
f 8 18 19
f 8 19 17
f 9 17 20
f 9 20 21
f 9 21 22
f 10 22 23
f 10 23 38
f 10 38 24
f 10 24 25
f 10 25 11
f 11 25 26
f 11 26 13
f 14 27 28
f 14 28 15
f 15 28 29
f 15 29 30
f 15 30 31
f 15 31 32
f 15 32 16
f 16 32 33
f 16 33 18
f 17 19 34
f 17 34 36
f 17 36 35
f 17 35 49
f 17 49 60
f 17 60 70
f 17 70 87
f 17 87 99
f 17 99 113
f 17 113 123
f 17 123 122
f 17 122 131
f 17 131 139
f 17 139 149
f 17 149 161
f 17 161 170
f 17 170 181
f 17 181 180
f 17 180 194
f 17 194 204
f 17 204 206
f 17 206 218
f 17 218 217
f 17 217 228
f 17 228 229
f 17 229 219
f 17 219 207
f 17 207 197
f 17 197 196
f 17 196 195
f 17 195 186
f 17 186 185
f 17 185 183
f 17 183 182
f 17 182 171
f 17 171 162
f 17 162 155
f 17 155 152
f 17 152 151
f 17 151 140
f 17 140 133
f 17 133 132
f 17 132 124
f 17 124 116
f 17 116 119
f 17 119 115
f 17 115 114
f 17 114 101
f 17 101 88
f 17 88 72
f 17 72 61
f 17 61 50
f 17 50 37
f 17 37 21
f 17 21 20
f 18 33 19
f 19 33 35
f 19 35 36
f 19 36 34
f 21 37 38
f 21 38 23
f 21 23 22
f 24 38 39
f 24 39 25
f 25 40 26
f 25 39 41
f 25 41 42
f 25 42 43
f 25 43 40
f 27 29 28
f 30 44 31
f 31 44 45
f 31 45 46
f 31 46 32
f 32 46 47
f 32 47 33
f 33 47 48
f 33 48 49
f 33 49 35
f 37 50 51
f 37 51 52
f 37 52 38
f 38 52 39
f 39 52 62
f 39 62 53
f 39 53 41
f 41 53 54
f 41 54 42
f 42 54 55
f 42 55 43
f 45 56 46
f 46 56 57
f 46 57 59
f 46 59 47
f 47 58 48
f 47 59 58
f 48 58 60
f 48 60 49
f 50 61 62
f 50 62 51
f 51 62 52
f 53 62 63
f 53 63 54
f 54 64 55
f 54 63 74
f 54 74 65
f 54 65 66
f 54 66 64
f 56 67 57
f 57 67 59
f 58 59 68
f 58 68 69
f 58 69 70
f 58 70 60
f 59 67 71
f 59 71 68
f 61 72 73
f 61 73 62
f 62 73 74
f 62 74 63
f 64 66 75
f 65 74 76
f 65 76 77
f 65 77 78
f 65 78 66
f 66 78 79
f 66 79 80
f 66 80 81
f 66 81 82
f 66 82 75
f 68 71 83
f 68 83 84
f 68 84 85
f 68 85 86
f 68 86 69
f 69 86 87
f 69 87 70
f 72 88 89
f 72 89 73
f 73 89 74
f 74 89 76
f 76 89 103
f 76 103 90
f 76 90 77
f 77 90 78
f 78 90 79
f 79 90 94
f 79 94 80
f 80 91 92
f 80 92 111
f 80 111 93
f 80 93 81
f 80 94 91
f 83 95 84
f 84 95 96
f 84 96 85
f 85 96 97
f 85 97 98
f 85 98 100
f 85 100 86
f 86 99 87
f 86 100 99
f 88 101 102
f 88 102 89
f 89 102 103
f 90 103 106
f 90 106 94
f 91 104 105
f 91 105 92
f 91 94 106
f 91 106 104
f 92 105 107
f 92 107 108
f 92 108 109
f 92 109 110
f 92 110 111
f 97 112 98
f 98 112 100
f 99 100 113
f 100 112 113
f 101 114 102
f 102 114 115
f 102 115 103
f 103 115 119
f 103 119 106
f 104 116 117
f 104 117 105
f 104 106 119
f 104 119 116
f 105 117 118
f 105 118 107
f 107 118 126
f 107 126 125
f 107 125 133
f 107 133 140
f 107 140 150
f 107 150 153
f 107 153 146
f 107 146 141
f 107 141 134
f 107 134 127
f 107 127 120
f 107 120 109
f 107 109 108
f 112 121 122
f 112 122 123
f 112 123 113
f 116 124 125
f 116 125 126
f 116 126 117
f 117 126 118
f 120 127 128
f 120 128 129
f 121 130 122
f 122 130 131
f 124 132 125
f 125 132 133
f 127 134 135
f 127 135 128
f 128 135 136
f 128 136 137
f 128 137 129
f 130 138 131
f 131 138 139
f 134 141 135
f 135 142 143
f 135 143 144
f 135 144 145
f 135 145 136
f 135 141 146
f 135 146 153
f 135 153 142
f 136 145 137
f 137 145 147
f 138 148 149
f 138 149 139
f 140 151 142
f 140 142 150
f 142 151 152
f 142 152 143
f 142 153 150
f 143 154 144
f 143 152 155
f 143 155 154
f 144 156 145
f 144 154 157
f 144 157 158
f 144 158 156
f 145 156 159
f 145 159 147
f 148 160 161
f 148 161 149
f 154 155 157
f 155 162 157
f 156 158 163
f 156 163 159
f 157 162 164
f 157 164 158
f 158 164 165
f 158 165 166
f 158 166 167
f 158 167 163
f 159 163 168
f 160 169 170
f 160 170 161
f 162 171 164
f 163 167 168
f 164 172 173
f 164 173 165
f 164 171 172
f 165 174 166
f 165 173 188
f 165 188 174
f 166 174 175
f 166 175 167
f 167 176 168
f 167 175 177
f 167 177 178
f 167 178 176
f 169 179 180
f 169 180 181
f 169 181 170
f 171 182 172
f 172 182 183
f 172 183 184
f 172 184 173
f 173 184 185
f 173 185 186
f 173 186 187
f 173 187 188
f 174 188 189
f 174 189 190
f 174 190 191
f 174 191 175
f 175 191 177
f 177 191 192
f 179 193 194
f 179 194 180
f 183 185 184
f 186 195 188
f 186 188 187
f 188 195 189
f 189 196 197
f 189 197 198
f 189 198 199
f 189 199 190
f 189 195 196
f 190 199 200
f 190 200 201
f 190 201 202
f 190 202 191
f 191 202 203
f 191 203 192
f 193 204 194
f 193 205 206
f 193 206 204
f 197 207 198
f 198 207 208
f 198 208 209
f 198 209 199
f 199 209 210
f 199 210 200
f 200 210 201
f 201 210 211
f 201 212 202
f 202 212 203
f 205 213 214
f 205 214 215
f 205 215 216
f 205 216 217
f 205 217 218
f 205 218 206
f 207 219 208
f 208 219 220
f 208 220 221
f 208 221 209
f 209 221 222
f 209 222 210
f 210 222 223
f 210 223 211
f 213 224 225
f 213 225 214
f 214 225 226
f 214 226 215
f 215 226 216
f 216 226 227
f 216 227 217
f 217 227 228
f 219 229 220
f 220 229 230
f 220 230 231
f 220 231 221
f 221 231 232
f 221 232 222
f 222 232 233
f 222 233 223
f 224 233 225
f 225 233 232
f 225 232 226
f 226 232 231
f 226 231 230
f 226 230 227
f 227 230 229
f 227 229 228

