# https://github.com/mikedh/trimesh
v -0.00586811 0.01880113 -0.01339279
v -0.00267436 0.02848802 -0.01340423
v -0.00267436 0.02795545 -0.01340710
v -0.00247529 0.02795545 -0.01340567
v -0.00533542 0.01880113 -0.01338706
v -0.00640001 0.01880113 -0.01335559
v -0.00586811 0.02156951 -0.01337276
v -0.00533542 0.02369857 -0.01337419
v -0.00267436 0.02902059 -0.01339708
v -0.00247529 0.02902059 -0.01340280
v -0.00247529 0.02848802 -0.01340567
v -0.00247529 0.02775665 -0.01340423
v -0.00247529 0.02722531 -0.01339994
v -0.00247529 0.02635896 -0.01339136
v -0.00247529 0.02582639 -0.01338420
v -0.00247529 0.02529382 -0.01337419
v -0.00522841 0.01880113 -0.01338134
v -0.00586811 0.02210208 -0.01336846
v -0.00693190 0.01880113 -0.01325972
v -0.00693190 0.01890789 -0.01325829
v -0.00640001 0.02156951 -0.01331409
v -0.00533542 0.02423114 -0.01336703
v -0.00320626 0.02848802 -0.01338134
v -0.00267436 0.02955193 -0.01338420
v -0.00247529 0.02955193 -0.01339422
v -0.00247529 0.02476248 -0.01336131
v -0.00480352 0.01880113 -0.01335845
v -0.00586811 0.02316599 -0.01335129
v -0.00640001 0.02210208 -0.01330551
v -0.00733240 0.01880113 -0.01314096
v -0.00744807 0.01880113 -0.01310662
v -0.00693190 0.01997303 -0.01322967
v -0.00640001 0.02263342 -0.01329263
v -0.00586811 0.02369857 -0.01334128
v -0.00533542 0.02476248 -0.01335129
v -0.00320626 0.02902059 -0.01336560
v -0.00267436 0.03008450 -0.01336560
v -0.00247529 0.03008450 -0.01337848
v -0.00247529 0.02423114 -0.01334557
v -0.00427084 0.01880113 -0.01331123
v -0.00740794 0.01944046 -0.01310090
v -0.00693190 0.02103694 -0.01320106
v -0.00770379 0.01880113 -0.01300790
v -0.00769906 0.01890789 -0.01300647
v -0.00693190 0.02210208 -0.01316958
v -0.00640001 0.02316599 -0.01327403
v -0.00586811 0.02423114 -0.01332268
v -0.00533542 0.02529382 -0.01332840
v -0.00373894 0.02848802 -0.01333556
v -0.00320626 0.02955193 -0.01333699
v -0.00267436 0.03061707 -0.01333699
v -0.00480352 0.02635896 -0.01333126
v -0.00247529 0.03061707 -0.01335559
v -0.00247529 0.02369857 -0.01332554
v -0.00373894 0.01880113 -0.01325114
v -0.00735129 0.02050437 -0.01308230
v -0.00792174 0.01880113 -0.01288485
v -0.00799649 0.01890789 -0.01283763
v -0.00767389 0.01944046 -0.01299502
v -0.00732375 0.02103694 -0.01307228
v -0.00729385 0.02156951 -0.01306227
v -0.00693190 0.02263342 -0.01314812
v -0.00640001 0.02369857 -0.01324971
v -0.00640001 0.02423114 -0.01321394
v -0.00586811 0.02476248 -0.01328548
v -0.00480352 0.02689153 -0.01329692
v -0.00427084 0.02795545 -0.01329978
v -0.00373894 0.02902059 -0.01330122
v -0.00267436 0.03114964 -0.01329978
v -0.00247529 0.03114964 -0.01332411
v -0.00247529 0.02316599 -0.01329835
v -0.00320626 0.01880113 -0.01317816
v -0.00798626 0.01880113 -0.01284764
v -0.00839305 0.01880113 -0.01258723
v -0.00799649 0.01944046 -0.01280901
v -0.00726552 0.02210208 -0.01305082
v -0.00764635 0.01997303 -0.01298214
v -0.00723405 0.02263342 -0.01303651
v -0.00697833 0.02317581 -0.01310233
v -0.00688627 0.02369857 -0.01310233
v -0.00681703 0.02423114 -0.01307944
v -0.00640001 0.02476248 -0.01315670
v -0.00586811 0.02529382 -0.01322967
v -0.00480352 0.02742288 -0.01324398
v -0.00427084 0.02848802 -0.01324684
v -0.00320626 0.03061707 -0.01324971
v -0.00267436 0.03133616 -0.01328261
v -0.00247529 0.03133616 -0.01330694
v -0.00247529 0.02263342 -0.01326831
v -0.00311105 0.01880113 -0.01315956
v -0.00838833 0.01890789 -0.01258437
v -0.00865979 0.01880113 -0.01236116
v -0.00799649 0.01997303 -0.01277753
v -0.00761723 0.02050437 -0.01296783
v -0.00758970 0.02103694 -0.01295209
v -0.00756058 0.02156951 -0.01293492
v -0.00718684 0.02335988 -0.01301505
v -0.00715222 0.02369857 -0.01300074
v -0.00708298 0.02423114 -0.01296783
v -0.00672969 0.02476248 -0.01304653
v -0.00480352 0.02795545 -0.01317816
v -0.00667776 0.02505453 -0.01302507
v -0.00427084 0.02902059 -0.01317960
v -0.00320626 0.03114964 -0.01317673
v -0.00321255 0.03133616 -0.01314669
v -0.00247529 0.03133616 0.00111720
v -0.00270504 0.01880113 -0.01307944
v -0.00247529 0.01880113 -0.01302077
v -0.00831358 0.02050437 -0.01252857
v -0.00799649 0.02050437 -0.01274319
v -0.00886908 0.01880113 -0.01214940
v -0.00865428 0.01890789 -0.01235687
v -0.00827109 0.02138544 -0.01249423
v -0.00828840 0.02103694 -0.01250854
v -0.00753147 0.02210208 -0.01291489
v -0.00799649 0.02103694 -0.01270742
v -0.00750078 0.02263342 -0.01289486
v -0.00741817 0.02317581 -0.01289629
v -0.00746380 0.02369857 -0.01281760
v -0.00699642 0.02476248 -0.01291775
v -0.00746380 0.02423114 -0.01274033
v -0.00534644 0.02739833 -0.01309088
v -0.00481847 0.02847084 -0.01309518
v -0.00688548 0.02525578 -0.01285766
v -0.00595702 0.02689153 -0.01293492
v -0.00500653 0.02863772 -0.01299359
v -0.00509623 0.02828309 -0.01303079
v -0.00562340 0.02720445 -0.01302936
v -0.00428579 0.02953598 -0.01309518
v -0.00375468 0.03059866 -0.01309375
v -0.00357528 0.03114964 -0.01305941
v -0.00352807 0.03133616 -0.01304224
v -0.00248788 0.03133616 0.00111577
v -0.00267436 0.03061707 0.00113866
v -0.00247529 0.03081586 0.00114725
v -0.00247529 0.01880113 0.00082245
v -0.00892259 0.01880113 -0.01209503
v -0.00891708 0.01890789 -0.01209074
v -0.00862910 0.01944046 -0.01232969
v -0.00825063 0.02174008 -0.01247706
v -0.00792095 0.02263342 -0.01262873
v -0.00804291 0.02156460 -0.01263731
v -0.00860392 0.01997303 -0.01230107
v -0.00889111 0.01944046 -0.01206355
v -0.00857953 0.02050437 -0.01227102
v -0.00886436 0.01997303 -0.01203494
v -0.00795793 0.02210208 -0.01264876
v -0.00788318 0.02316599 -0.01260297
v -0.00783519 0.02369857 -0.01257006
v -0.00748819 0.02472812 -0.01262301
v -0.00732611 0.02529382 -0.01257865
v -0.00777696 0.02423114 -0.01252571
v -0.00773919 0.02452810 -0.01249423
v -0.00456433 0.02934700 -0.01303222
v -0.00582719 0.02739833 -0.01287197
v -0.00695944 0.02582639 -0.01264733
v -0.00643227 0.02690012 -0.01265448
v -0.00543535 0.02795545 -0.01293922
v -0.00394273 0.03076310 -0.01299359
v -0.00529844 0.02847084 -0.01287769
v -0.00490975 0.02902059 -0.01294351
v -0.00402928 0.03040846 -0.01303079
v -0.00384123 0.03114964 -0.01294065
v -0.00378930 0.03133616 -0.01291632
v -0.00267436 0.03133616 0.00108572
v -0.00267436 0.03114964 0.00110289
v -0.00320626 0.03008450 0.00110432
v -0.00320626 0.02955193 0.00113866
v -0.00320626 0.02902059 0.00116585
v -0.00267436 0.03008450 0.00116441
v -0.00247529 0.03028329 0.00117157
v -0.00247529 0.02229965 0.00105138
v -0.00266020 0.01880113 0.00087110
v -0.00918932 0.01880113 -0.01176594
v -0.00818690 0.02263342 -0.01241983
v -0.00883761 0.02050437 -0.01200489
v -0.00852366 0.02152779 -0.01221665
v -0.00877702 0.02167014 -0.01193192
v -0.00848196 0.02210208 -0.01218660
v -0.00844734 0.02263342 -0.01215369
v -0.00814913 0.02316599 -0.01238120
v -0.00810192 0.02369857 -0.01232969
v -0.00768175 0.02488274 -0.01244558
v -0.00680444 0.02635896 -0.01258580
v -0.00724034 0.02564846 -0.01251855
v -0.00671553 0.02672955 -0.01252428
v -0.00804291 0.02423114 -0.01226673
v -0.00826794 0.02451215 -0.01196053
v -0.00628198 0.02742288 -0.01259153
v -0.00476654 0.02953598 -0.01287769
v -0.00590194 0.02797017 -0.01266021
v -0.00537162 0.02903899 -0.01266593
v -0.00423229 0.03059866 -0.01287626
v -0.00430153 0.03115823 -0.01266164
v -0.00424960 0.03133616 -0.01263731
v -0.00301978 0.03133616 0.00100989
v -0.00320626 0.03061707 0.00105567
v -0.00373894 0.02902059 0.00110289
v -0.00373894 0.02848802 0.00113723
v -0.00373894 0.02795545 0.00116441
v -0.00320626 0.02848802 0.00118445
v -0.00267436 0.02955193 0.00118445
v -0.00247529 0.02975072 0.00119017
v -0.00247529 0.02283222 0.00108143
v -0.00320626 0.01880113 0.00098270
v -0.00278215 0.01880113 0.00089685
v -0.00937738 0.01880113 -0.01149981
v -0.00934669 0.01944046 -0.01145259
v -0.00933174 0.01974969 -0.01142970
v -0.00879591 0.02131550 -0.01195624
v -0.00881007 0.02103694 -0.01197341
v -0.00840879 0.02316599 -0.01211506
v -0.00893518 0.02152288 -0.01172874
v -0.00893911 0.02210208 -0.01162858
v -0.00871408 0.02263342 -0.01184893
v -0.00835764 0.02369857 -0.01206355
v -0.00830099 0.02423114 -0.01200060
v -0.00785092 0.02529382 -0.01209503
v -0.00759284 0.02529382 -0.01236116
v -0.00715536 0.02600310 -0.01245131
v -0.00662976 0.02708419 -0.01245703
v -0.00618914 0.02780206 -0.01252857
v -0.00865428 0.02373170 -0.01166292
v -0.00852524 0.02423114 -0.01168868
v -0.00875263 0.02423114 -0.01134528
v -0.00838440 0.02471830 -0.01169297
v -0.00820264 0.02486678 -0.01187468
v -0.00575480 0.02848802 -0.01259582
v -0.00566117 0.02887456 -0.01253143
v -0.00522369 0.02955193 -0.01259582
v -0.00483657 0.03009922 -0.01266450
v -0.00468550 0.03061707 -0.01259296
v -0.00459108 0.03098766 -0.01252857
v -0.00449115 0.03133616 -0.01246132
v -0.00321334 0.03133616 0.00095408
v -0.00320626 0.03114964 0.00098556
v -0.00373894 0.02955193 0.00105281
v -0.00373894 0.03008450 0.00098556
v -0.00427084 0.02795545 0.00110003
v -0.00480352 0.02635896 0.00113294
v -0.00427084 0.02742288 0.00113580
v -0.00427084 0.02689153 0.00116298
v -0.00373894 0.02742288 0.00118302
v -0.00267436 0.02902059 0.00119875
v -0.00247529 0.02921815 0.00120305
v -0.00247529 0.02336479 0.00111004
v -0.00331327 0.01880113 0.00099844
v -0.00937266 0.01890789 -0.01149122
v -0.00956858 0.01880113 -0.01115641
v -0.00950484 0.01944046 -0.01115641
v -0.00943482 0.01994480 -0.01119361
v -0.00937659 0.02156951 -0.01098471
v -0.00923575 0.02156951 -0.01125084
v -0.00867474 0.02316599 -0.01179170
v -0.00890370 0.02263342 -0.01158280
v -0.00811687 0.02529382 -0.01176308
v -0.00777303 0.02565459 -0.01200489
v -0.00725293 0.02674305 -0.01201634
v -0.00707039 0.02635896 -0.01237261
v -0.00654714 0.02742288 -0.01238120
v -0.00602154 0.02848802 -0.01238549
v -0.00610180 0.02815669 -0.01245989
v -0.00882345 0.02357708 -0.01146690
v -0.00878804 0.02393172 -0.01140967
v -0.00888954 0.02423114 -0.01107915
v -0.00883682 0.02462995 -0.01097756
v -0.00869205 0.02478948 -0.01115498
v -0.00831594 0.02529382 -0.01149695
v -0.00826401 0.02556379 -0.01142541
v -0.00557226 0.02922920 -0.01246275
v -0.00512691 0.02993111 -0.01253000
v -0.00503564 0.03028575 -0.01245846
v -0.00451161 0.03133616 -0.01244558
v -0.00345490 0.03133616 0.00087682
v -0.00375704 0.03060480 0.00089828
v -0.00427084 0.02848802 0.00104852
v -0.00480352 0.02689153 0.00109573
v -0.00427084 0.02902059 0.00098270
v -0.00480352 0.02795545 0.00097841
v -0.00428815 0.02953966 0.00089828
v -0.00533542 0.02529382 0.00113008
v -0.00480352 0.02582639 0.00115869
v -0.00373894 0.02689153 0.00119160
v -0.00320626 0.02795545 0.00119589
v -0.00480352 0.02529382 0.00117443
v -0.00267436 0.02848802 0.00120734
v -0.00247529 0.02868558 0.00121020
v -0.00373894 0.01880113 0.00105424
v -0.00247529 0.02389736 0.00113437
v -0.00978417 0.01880113 -0.01069712
v -0.00943088 0.02050437 -0.01109059
v -0.00934669 0.02210208 -0.01092748
v -0.00920506 0.02210208 -0.01119361
v -0.00886122 0.02316599 -0.01152556
v -0.00918775 0.02259048 -0.01110490
v -0.00769120 0.02600923 -0.01190616
v -0.00716953 0.02709892 -0.01191904
v -0.00672733 0.02781433 -0.01202063
v -0.00682411 0.02742288 -0.01211506
v -0.00629536 0.02848802 -0.01211936
v -0.00619779 0.02888315 -0.01202349
v -0.00906815 0.02316599 -0.01115641
v -0.00893439 0.02373170 -0.01120220
v -0.00926722 0.02316599 -0.01074004
v -0.00922158 0.02368261 -0.01059124
v -0.00908310 0.02423114 -0.01062414
v -0.00891472 0.02478948 -0.01065562
v -0.00878017 0.02498581 -0.01085308
v -0.00851029 0.02529382 -0.01115641
v -0.00773998 0.02664488 -0.01143685
v -0.00780843 0.02635896 -0.01152986
v -0.00832853 0.02577608 -0.01111778
v -0.00817903 0.02591965 -0.01126945
v -0.00576346 0.02955193 -0.01211936
v -0.00548964 0.02955193 -0.01238549
v -0.00495145 0.03061707 -0.01237833
v -0.00477048 0.03133616 -0.01219233
v -0.00353830 0.03133616 0.00084677
v -0.00403558 0.03041950 0.00083389
v -0.00456826 0.02935436 0.00083389
v -0.00480352 0.02742288 0.00104279
v -0.00586811 0.02476248 0.00108572
v -0.00533542 0.02582639 0.00109144
v -0.00481926 0.02847206 0.00089542
v -0.00534723 0.02739956 0.00089113
v -0.00533542 0.02689153 0.00097125
v -0.00586811 0.02529382 0.00102992
v -0.00533542 0.02635896 0.00103707
v -0.00464773 0.02902059 0.00086251
v -0.00586811 0.02423114 0.00112292
v -0.00533542 0.02476248 0.00115440
v -0.00586811 0.01890789 0.00119303
v -0.00533542 0.02423114 0.00116871
v -0.00533542 0.02369857 0.00117300
v -0.00247529 0.02815424 0.00120877
v -0.00586811 0.01880113 0.00119303
v -0.00384595 0.01880113 0.00106712
v -0.00247529 0.02442870 0.00115297
v -0.00437785 0.01880113 0.00112292
v -0.00427084 0.01880113 0.00111290
v -0.00953160 0.02156951 -0.01062414
v -0.00988646 0.01880113 -0.01043098
v -0.00986521 0.01923062 -0.01037375
v -0.00932938 0.02238432 -0.01089457
v -0.00663999 0.02816896 -0.01192190
v -0.00728598 0.02742288 -0.01154559
v -0.00709006 0.02742288 -0.01181173
v -0.00611045 0.02923779 -0.01192476
v -0.00566432 0.02993970 -0.01202206
v -0.00930420 0.02273896 -0.01083161
v -0.00936951 0.02316599 -0.01047391
v -0.00934040 0.02349609 -0.01039235
v -0.00930184 0.02385073 -0.01028504
v -0.00926014 0.02425322 -0.01010189
v -0.00911772 0.02476248 -0.01009188
v -0.00884705 0.02517479 -0.01049823
v -0.00872981 0.02532941 -0.01065562
v -0.00765500 0.02699952 -0.01127946
v -0.00721280 0.02771984 -0.01144544
v -0.00827424 0.02611722 -0.01091460
v -0.00512613 0.03099257 -0.01201634
v -0.00501990 0.03133616 -0.01193049
v -0.00365475 0.03133616 0.00079383
v -0.00394667 0.03077414 0.00079383
v -0.00447699 0.02970900 0.00079383
v -0.00500810 0.02863895 0.00079383
v -0.00509701 0.02828431 0.00083103
v -0.00640001 0.02423114 0.00101418
v -0.00667776 0.02505576 0.00082531
v -0.00640001 0.02476248 0.00095551
v -0.00640001 0.02369857 0.00104995
v -0.00640001 0.02316599 0.00107284
v -0.00640001 0.02263342 0.00109144
v -0.00586811 0.02369857 0.00114009
v -0.00597512 0.01880113 0.00118588
v -0.00586811 0.02156951 0.00117300
v -0.00640001 0.01880113 0.00115583
v -0.00586811 0.02210208 0.00116871
v -0.00586811 0.02316599 0.00115011
v -0.00247529 0.02795545 0.00120734
v -0.00544243 0.01880113 0.00118874
v -0.00533542 0.01880113 0.00118731
v -0.00480352 0.01880113 0.00115869
v -0.00247529 0.02496127 0.00116871
v -0.00947101 0.02210208 -0.01062414
v -0.00984712 0.01958649 -0.01031938
v -0.00971886 0.02156951 -0.01009188
v -0.00965906 0.02210208 -0.01009188
v -0.00999661 0.01880113 -0.01009188
v -0.00939783 0.02259048 -0.01064274
v -0.00557226 0.03029434 -0.01191761
v -0.00668169 0.02878621 -0.01144687
v -0.00622376 0.02955193 -0.01154846
v -0.00603019 0.02955193 -0.01181459
v -0.00958746 0.02263342 -0.01009188
v -0.00950170 0.02316599 -0.01009188
v -0.00939941 0.02368261 -0.01010189
v -0.00936243 0.02409124 -0.00993019
v -0.00891865 0.02532941 -0.01012336
v -0.00931207 0.02444588 -0.00976708
v -0.00925857 0.02476125 -0.00957678
v -0.00878253 0.02552943 -0.01032224
v -0.00852760 0.02582639 -0.01062414
v -0.00774706 0.02719340 -0.01092462
v -0.00754642 0.02739097 -0.01112350
v -0.00712468 0.02807448 -0.01128375
v -0.00833168 0.02623870 -0.01062414
v -0.00773447 0.02769775 -0.01036803
v -0.00766130 0.02754804 -0.01072287
v -0.00504980 0.03133616 -0.01189615
v -0.00379717 0.03133616 0.00071943
v -0.00384988 0.03114964 0.00074375
v -0.00438257 0.03008450 0.00074375
v -0.00491368 0.02902059 0.00074375
v -0.00529844 0.02847206 0.00067937
v -0.00543692 0.02795545 0.00074089
v -0.00681703 0.02423114 0.00087968
v -0.00688705 0.02369857 0.00090257
v -0.00648026 0.02582639 0.00073087
v -0.00688548 0.02525701 0.00065933
v -0.00699642 0.02476248 0.00071800
v -0.00708298 0.02423114 0.00076808
v -0.00673048 0.02476248 0.00084677
v -0.00693190 0.02263342 0.00094979
v -0.00693190 0.02210208 0.00097268
v -0.00640001 0.02210208 0.00110575
v -0.00640001 0.01890789 0.00115440
v -0.00650623 0.01880113 0.00113437
v -0.00640001 0.02156951 0.00111434
v -0.00247529 0.02655653 0.00119446
v -0.00247529 0.02549262 0.00117872
v -0.00247529 0.02582639 0.00118445
v -0.00247529 0.02602519 0.00118731
v -0.00982823 0.01997303 -0.01025642
v -0.00980148 0.02050437 -0.01017057
v -0.00986679 0.02084306 -0.00984864
v -0.00984869 0.02119769 -0.00978282
v -0.00982980 0.02156951 -0.00970842
v -0.00980935 0.02212662 -0.00954387
v -0.00974011 0.02263342 -0.00955961
v -0.01011621 0.01880113 -0.00966692
v -0.00614901 0.02984644 -0.01144401
v -0.00659357 0.02914084 -0.01128375
v -0.00965355 0.02316599 -0.00955961
v -0.00954812 0.02369857 -0.00955961
v -0.00941042 0.02425322 -0.00957678
v -0.00907995 0.02529382 -0.00955961
v -0.00883997 0.02565950 -0.00996740
v -0.00935534 0.02458332 -0.00941224
v -0.00870700 0.02583253 -0.01012336
v -0.00832066 0.02675041 -0.00999315
v -0.00819320 0.02691362 -0.01013909
v -0.00825850 0.02661666 -0.01034799
v -0.00721674 0.02825977 -0.01092891
v -0.00728362 0.02792109 -0.01112636
v -0.00796816 0.02742288 -0.01009188
v -0.00778562 0.02780083 -0.01009188
v -0.00666989 0.02982680 -0.01036803
v -0.00754327 0.02790759 -0.01057693
v -0.00712783 0.02861564 -0.01072287
v -0.00560924 0.03089808 -0.01143399
v -0.00525202 0.03133616 -0.01161427
v -0.00409852 0.03133616 0.00053771
v -0.00423622 0.03060480 0.00067937
v -0.00476890 0.02953966 0.00068080
v -0.00582719 0.02739956 0.00067364
v -0.00537162 0.02903899 0.00046760
v -0.00590273 0.02797140 0.00046188
v -0.00643227 0.02690135 0.00045616
v -0.00715300 0.02369857 0.00080099
v -0.00718762 0.02336724 0.00081529
v -0.00697911 0.02317949 0.00090257
v -0.00696023 0.02582885 0.00044900
v -0.00732847 0.02529382 0.00038032
v -0.00748819 0.02472812 0.00042468
v -0.00746380 0.02423114 0.00054058
v -0.00746380 0.02369857 0.00061641
v -0.00723798 0.02263342 0.00083819
v -0.00727103 0.02210208 0.00085393
v -0.00729542 0.02156951 0.00086251
v -0.00769906 0.01880113 0.00080814
v -0.00750393 0.01880113 0.00087253
v -0.00693190 0.02156951 0.00098556
v -0.00693190 0.01890789 0.00104279
v -0.00693190 0.01880113 0.00104423
v -0.01014611 0.01880113 -0.00955961
v -0.01002809 0.01997303 -0.00955961
v -0.00989590 0.02156951 -0.00944228
v -0.00987465 0.02196587 -0.00935643
v -0.00985341 0.02232051 -0.00926200
v -0.00983295 0.02263342 -0.00915326
v -0.00648262 0.02952125 -0.01112636
v -0.00605616 0.03020230 -0.01127231
v -0.00668405 0.02932368 -0.01092891
v -0.00986285 0.02291934 -0.00878267
v -0.00978338 0.02312427 -0.00898585
v -0.00965828 0.02369857 -0.00902734
v -0.00953160 0.02423114 -0.00902734
v -0.00888797 0.02576626 -0.00955961
v -0.00929555 0.02493796 -0.00912464
v -0.00921214 0.02524351 -0.00898013
v -0.00876680 0.02603255 -0.00955961
v -0.00823804 0.02710505 -0.00971271
v -0.00938131 0.02476125 -0.00898013
v -0.00771087 0.02818369 -0.00974133
v -0.00690751 0.02955193 -0.01009188
v -0.00671946 0.02992252 -0.01009188
v -0.00613012 0.03087599 -0.01034656
v -0.00647239 0.03003664 -0.01057693
v -0.00659435 0.02967832 -0.01072287
v -0.00673520 0.02952125 -0.01057693
v -0.00551718 0.03125272 -0.01125514
v -0.00548964 0.03133616 -0.01122366
v -0.00425353 0.03133616 0.00044185
v -0.00430389 0.03116314 0.00046617
v -0.00483815 0.03010168 0.00046760
v -0.00522527 0.02955193 0.00039892
v -0.00575638 0.02848802 0.00039749
v -0.00680680 0.02635896 0.00038748
v -0.00741817 0.02317949 0.00069654
v -0.00750393 0.02263342 0.00069654
v -0.00753776 0.02210208 0.00071943
v -0.00724192 0.02565337 0.00032023
v -0.00768254 0.02488274 0.00024583
v -0.00773919 0.02452810 0.00029447
v -0.00777696 0.02423114 0.00032595
v -0.00783440 0.02369857 0.00036888
v -0.00788161 0.02316599 0.00040179
v -0.00792489 0.02263342 0.00043040
v -0.00756137 0.02156951 0.00073660
v -0.00763691 0.01997303 0.00078238
v -0.00766602 0.01944046 0.00079526
v -0.00769356 0.01890789 0.00080671
v -0.00798626 0.01880113 0.00064646
v -0.00704206 0.01880113 0.00101275
v -0.01026099 0.01880113 -0.00902734
v -0.00991400 0.02212662 -0.00906168
v -0.00998166 0.02156951 -0.00902734
v -0.00988252 0.02263342 -0.00888712
v -0.00621510 0.03004891 -0.01111921
v -0.00614743 0.03037655 -0.01091746
v -0.00994862 0.02263342 -0.00849508
v -0.00988567 0.02303101 -0.00849508
v -0.00983217 0.02329730 -0.00849508
v -0.00974955 0.02369857 -0.00849508
v -0.00962129 0.02423114 -0.00849508
v -0.00893282 0.02587793 -0.00907742
v -0.00882974 0.02617121 -0.00893434
v -0.00831279 0.02726948 -0.00902734
v -0.00932859 0.02503367 -0.00876980
v -0.00925227 0.02535640 -0.00849508
v -0.00905950 0.02582639 -0.00849508
v -0.00819162 0.02753577 -0.00902734
v -0.00814362 0.02738852 -0.00954530
v -0.00945999 0.02476248 -0.00849508
v -0.00785092 0.02798612 -0.00956247
v -0.00712704 0.02967710 -0.00902734
v -0.00707904 0.02952371 -0.00955961
v -0.00717740 0.02924515 -0.00973703
v -0.00663999 0.03030293 -0.00971986
v -0.00619228 0.03099379 -0.00999172
v -0.00658019 0.03018880 -0.01009188
v -0.00577211 0.03133616 -0.01062414
v -0.00621117 0.03049804 -0.01062414
v -0.00631345 0.03066615 -0.01013766
v -0.00596253 0.03133616 -0.01013337
v -0.00556046 0.03133616 -0.01108487
v -0.00450689 0.03133616 0.00026013
v -0.00459344 0.03099502 0.00033024
v -0.00468943 0.03061707 0.00039606
v -0.00512849 0.02993602 0.00033168
v -0.00566117 0.02887456 0.00033168
v -0.00618992 0.02780451 0.00032881
v -0.00671631 0.02672955 0.00032595
v -0.00796187 0.02210208 0.00045330
v -0.00799649 0.02103694 0.00050480
v -0.00799649 0.02050437 0.00054058
v -0.00799649 0.01997303 0.00057492
v -0.00799649 0.01944046 0.00060639
v -0.00715694 0.02600801 0.00025155
v -0.00759442 0.02529382 0.00015855
v -0.00785092 0.02529382 -0.00010759
v -0.00826873 0.02451460 -0.00023779
v -0.00804291 0.02423114 0.00006697
v -0.00810035 0.02369857 0.00012993
v -0.00814835 0.02316599 0.00018144
v -0.00819083 0.02263342 0.00022436
v -0.00822782 0.02210208 0.00025727
v -0.00825063 0.02172658 0.00027730
v -0.00799649 0.01890789 0.00063501
v -0.00807910 0.01880113 0.00058779
v -0.01035147 0.01880113 -0.00849508
v -0.01007294 0.02156951 -0.00849508
v -0.01001550 0.02210208 -0.00849508
v -0.00562419 0.03133616 -0.01095896
v -0.01001471 0.02263342 -0.00796281
v -0.00991400 0.02320526 -0.00798570
v -0.00985420 0.02341019 -0.00817887
v -0.00981722 0.02368016 -0.00798570
v -0.00968503 0.02423114 -0.00796281
v -0.00886751 0.02625220 -0.00849508
v -0.00823962 0.02764008 -0.00849508
v -0.00934984 0.02509135 -0.00849508
v -0.00928453 0.02544353 -0.00796281
v -0.00912402 0.02582639 -0.00796281
v -0.00890056 0.02632460 -0.00796281
v -0.00798862 0.02795545 -0.00902734
v -0.00952058 0.02476248 -0.00796281
v -0.00691853 0.03008450 -0.00902734
v -0.00678241 0.03010904 -0.00954960
v -0.00808461 0.02795545 -0.00849508
v -0.00717504 0.02977281 -0.00849508
v -0.00668248 0.03038392 -0.00936502
v -0.00653298 0.03058394 -0.00954960
v -0.00610809 0.03133616 -0.00966835
v -0.00609550 0.03133616 -0.00970985
v -0.00452813 0.03133616 0.00024010
v -0.00549122 0.02955193 0.00018716
v -0.00503800 0.03029066 0.00026013
v -0.00557305 0.02922920 0.00026300
v -0.00610258 0.02815915 0.00026013
v -0.00662976 0.02708542 0.00025727
v -0.00826873 0.02137195 0.00029304
v -0.00804212 0.02155724 0.00043756
v -0.00833404 0.01997303 0.00034598
v -0.00835922 0.01944046 0.00036458
v -0.00838912 0.01880113 0.00038605
v -0.00654793 0.02742288 0.00018144
v -0.00707275 0.02635896 0.00016999
v -0.00682411 0.02742288 -0.00008469
v -0.00724900 0.02673937 -0.00018771
v -0.00777067 0.02564601 -0.00019630
v -0.00811687 0.02529382 -0.00043382
v -0.00820500 0.02486924 -0.00032078
v -0.00838597 0.02472076 -0.00050393
v -0.00875342 0.02423114 -0.00085591
v -0.00852681 0.02423114 -0.00051108
v -0.00865428 0.02373170 -0.00053827
v -0.00830178 0.02423114 -0.00019916
v -0.00835843 0.02369857 -0.00013620
v -0.00840879 0.02316599 -0.00008469
v -0.00845049 0.02263342 -0.00004177
v -0.00848590 0.02210208 -0.00000886
v -0.00852366 0.02152288 0.00001689
v -0.00883525 0.02050437 -0.00019916
v -0.00886043 0.01997303 -0.00017054
v -0.00891865 0.01880113 -0.00011045
v -0.00865507 0.01880113 0.00015568
v -0.01037115 0.01880113 -0.00836917
v -0.01034754 0.01889071 -0.00846503
v -0.01037980 0.01905760 -0.00810017
v -0.01013903 0.02156951 -0.00796281
v -0.01008159 0.02210208 -0.00796281
v -0.01006349 0.02263342 -0.00743054
v -0.00997222 0.02316599 -0.00743054
v -0.00987151 0.02349118 -0.00782402
v -0.00983453 0.02384337 -0.00743054
v -0.00972830 0.02423114 -0.00743054
v -0.00825929 0.02768180 -0.00819890
v -0.00937974 0.02517725 -0.00796281
v -0.00930735 0.02550366 -0.00743054
v -0.00917044 0.02582639 -0.00743054
v -0.00890685 0.02641050 -0.00747347
v -0.00879355 0.02662157 -0.00767951
v -0.00827896 0.02772352 -0.00784405
v -0.00955835 0.02476248 -0.00743054
v -0.00939783 0.02523737 -0.00743054
v -0.00672339 0.03046000 -0.00902734
v -0.00701531 0.03008450 -0.00849508
v -0.00677218 0.03055571 -0.00849508
v -0.00772582 0.02874694 -0.00819604
v -0.00719313 0.02980962 -0.00819031
v -0.00709399 0.03005137 -0.00799286
v -0.00665730 0.03086617 -0.00815740
v -0.00617419 0.03133616 -0.00939364
v -0.00477363 0.03133616 -0.00000314
v -0.00522527 0.03061707 -0.00008469
v -0.00566511 0.02994215 -0.00017770
v -0.00495538 0.03061707 0.00018144
v -0.00576425 0.02955193 -0.00007897
v -0.00619858 0.02888438 -0.00017627
v -0.00602233 0.02848802 0.00018573
v -0.00828447 0.02103694 0.00030592
v -0.00844262 0.01880113 0.00034026
v -0.00629614 0.02848802 -0.00008040
v -0.00672733 0.02781555 -0.00017913
v -0.00716953 0.02709401 -0.00028072
v -0.00826322 0.02556256 -0.00077578
v -0.00831673 0.02529382 -0.00069995
v -0.00869362 0.02478948 -0.00104478
v -0.00878725 0.02393049 -0.00079009
v -0.00883682 0.02463118 -0.00122363
v -0.00888954 0.02423114 -0.00112204
v -0.00867552 0.02316599 -0.00040806
v -0.00882345 0.02357585 -0.00073286
v -0.00871722 0.02263342 -0.00034940
v -0.00875185 0.02210208 -0.00030075
v -0.00877860 0.02167382 -0.00026641
v -0.00879591 0.02131918 -0.00024352
v -0.00880928 0.02103694 -0.00022778
v -0.00918460 0.01880113 -0.00044526
v -0.00897216 0.01880113 -0.00017627
v -0.01040498 0.01880113 -0.00809588
v -0.01030033 0.01997303 -0.00796281
v -0.01041993 0.01880113 -0.00794278
v -0.01039632 0.01921835 -0.00774533
v -0.01035541 0.01993253 -0.00739191
v -0.01018624 0.02156951 -0.00743054
v -0.01013037 0.02210208 -0.00743054
v -0.01009811 0.02263342 -0.00689828
v -0.00988882 0.02357708 -0.00743054
v -0.01000606 0.02316599 -0.00689828
v -0.00990613 0.02365193 -0.00689828
v -0.00984948 0.02391822 -0.00689828
v -0.00975820 0.02423114 -0.00689828
v -0.00774706 0.02878743 -0.00784119
v -0.00958825 0.02476248 -0.00689828
v -0.00941278 0.02527664 -0.00689828
v -0.00932072 0.02554293 -0.00689828
v -0.00919955 0.02582639 -0.00689828
v -0.00896350 0.02635896 -0.00689828
v -0.00880850 0.02665593 -0.00732466
v -0.00845285 0.02742288 -0.00743054
v -0.00829784 0.02776156 -0.00743054
v -0.00816566 0.02802785 -0.00743054
v -0.00793590 0.02848802 -0.00743054
v -0.00626074 0.03133616 -0.00902734
v -0.00663291 0.03082200 -0.00849508
v -0.00646138 0.03114964 -0.00849508
v -0.00721438 0.02985135 -0.00783547
v -0.00678477 0.03066002 -0.00797283
v -0.00667776 0.03090790 -0.00780256
v -0.00643699 0.03133616 -0.00795852
v -0.00638899 0.03133616 -0.00830907
v -0.00504036 0.03133616 -0.00028358
v -0.00512770 0.03099625 -0.00018199
v -0.00557383 0.03029679 -0.00028072
v -0.00611045 0.02923901 -0.00027499
v -0.00663999 0.02817019 -0.00027786
v -0.00709006 0.02742288 -0.00038803
v -0.00728598 0.02742288 -0.00065416
v -0.00721280 0.02771984 -0.00075575
v -0.00765422 0.02699584 -0.00092030
v -0.00827424 0.02611722 -0.00128659
v -0.00832774 0.02577485 -0.00108341
v -0.00851107 0.02529382 -0.00104335
v -0.00878017 0.02498581 -0.00134811
v -0.00893518 0.02373170 -0.00099899
v -0.00906736 0.02316599 -0.00104335
v -0.00891393 0.02478948 -0.00154557
v -0.00908704 0.02423114 -0.00157561
v -0.00922394 0.02368507 -0.00160852
v -0.00926722 0.02316599 -0.00146115
v -0.00886122 0.02316599 -0.00067419
v -0.00890213 0.02263342 -0.00061553
v -0.00893832 0.02210208 -0.00056688
v -0.00893518 0.02152534 -0.00047102
v -0.00937029 0.01880113 -0.00071140
v -0.00922237 0.01880113 -0.00049820
v -0.01046635 0.01880113 -0.00743054
v -0.01039396 0.01972760 -0.00718874
v -0.01022086 0.02156951 -0.00689828
v -0.01016499 0.02210208 -0.00689828
v -0.01011385 0.02263342 -0.00636601
v -0.01002415 0.02316599 -0.00636601
v -0.00990455 0.02374029 -0.00632595
v -0.00985498 0.02394644 -0.00647619
v -0.00979204 0.02417837 -0.00632595
v -0.00960949 0.02476248 -0.00636601
v -0.00940649 0.02534413 -0.00637746
v -0.00932545 0.02555520 -0.00656347
v -0.00923417 0.02577731 -0.00637746
v -0.00897767 0.02635896 -0.00636601
v -0.00870621 0.02696148 -0.00636601
v -0.00869913 0.02694553 -0.00689828
v -0.00848275 0.02742288 -0.00689828
v -0.00831201 0.02779224 -0.00689828
v -0.00818139 0.02805852 -0.00689828
v -0.00740164 0.02955193 -0.00743054
v -0.00796580 0.02848802 -0.00689828
v -0.00711445 0.03018390 -0.00689828
v -0.00636224 0.03133616 -0.00849508
v -0.00709871 0.03015445 -0.00743054
v -0.00686188 0.03061707 -0.00743054
v -0.00669428 0.03092630 -0.00743054
v -0.00669507 0.03092753 -0.00477064
v -0.00643699 0.03133616 -0.00423981
v -0.00505610 0.03133616 -0.00030504
v -0.00614901 0.02984766 -0.00075575
v -0.00622454 0.02955193 -0.00064987
v -0.00603098 0.02955193 -0.00038374
v -0.00639607 0.02901322 -0.00051394
v -0.00668169 0.02878621 -0.00075432
v -0.00712468 0.02807570 -0.00091457
v -0.00754642 0.02739220 -0.00107626
v -0.00833168 0.02623870 -0.00157561
v -0.00852839 0.02582639 -0.00157561
v -0.00873060 0.02532818 -0.00154557
v -0.00774706 0.02719340 -0.00127514
v -0.00766130 0.02754804 -0.00147689
v -0.00779742 0.02739220 -0.00162283
v -0.00773447 0.02769898 -0.00183173
v -0.00878332 0.02552820 -0.00187609
v -0.00884390 0.02517356 -0.00170296
v -0.00930341 0.02274141 -0.00136957
v -0.00932938 0.02238677 -0.00130519
v -0.00918618 0.02259170 -0.00109343
v -0.00911694 0.02476248 -0.00210788
v -0.00926329 0.02425568 -0.00209643
v -0.00930420 0.02385441 -0.00191043
v -0.00934040 0.02349854 -0.00180741
v -0.00936951 0.02316599 -0.00172728
v -0.00920427 0.02210208 -0.00100328
v -0.00923575 0.02156951 -0.00094462
v -0.00926093 0.02103694 -0.00089597
v -0.00928689 0.02050437 -0.00084875
v -0.00932623 0.01969693 -0.00078008
v -0.00941278 0.01880113 -0.00078437
v -0.01049861 0.01880113 -0.00689828
v -0.01032787 0.02050437 -0.00689828
v -0.01023817 0.02156951 -0.00636601
v -0.01018073 0.02210208 -0.00636601
v -0.01011228 0.02263342 -0.00583518
v -0.01002415 0.02316599 -0.00583518
v -0.00985970 0.02396608 -0.00612134
v -0.00985970 0.02396608 -0.00607842
v -0.00979204 0.02417837 -0.00587381
v -0.00960556 0.02476248 -0.00583518
v -0.00932938 0.02556624 -0.00601117
v -0.00932938 0.02556624 -0.00620862
v -0.00897767 0.02635896 -0.00583518
v -0.00849770 0.02742288 -0.00636601
v -0.00870621 0.02696148 -0.00583518
v -0.00831988 0.02780942 -0.00636601
v -0.00819005 0.02807448 -0.00636601
v -0.00798390 0.02848802 -0.00636601
v -0.00725608 0.02993356 -0.00636601
v -0.00711760 0.03019985 -0.00636601
v -0.00725608 0.02993356 -0.00583518
v -0.00686188 0.03061707 -0.00477064
v -0.00667854 0.03090790 -0.00439577
v -0.00665730 0.03086740 -0.00404092
v -0.00636224 0.03133616 -0.00370611
v -0.00525359 0.03133616 -0.00058262
v -0.00568320 0.03061707 -0.00066132
v -0.00561003 0.03089931 -0.00076577
v -0.00605695 0.03020230 -0.00092745
v -0.00648262 0.02952248 -0.00107339
v -0.00659357 0.02914084 -0.00091600
v -0.00721752 0.02826100 -0.00126942
v -0.00728440 0.02792109 -0.00107339
v -0.00825850 0.02661666 -0.00185176
v -0.00712861 0.02861686 -0.00147546
v -0.00754406 0.02790759 -0.00162283
v -0.00726867 0.02845857 -0.00162140
v -0.00720257 0.02876412 -0.00183030
v -0.00778640 0.02780206 -0.00210788
v -0.00796895 0.02742288 -0.00210788
v -0.00819320 0.02691362 -0.00206066
v -0.00832145 0.02675164 -0.00220661
v -0.00870778 0.02583253 -0.00207640
v -0.00883997 0.02565950 -0.00223093
v -0.00891629 0.02532818 -0.00207640
v -0.00939705 0.02259170 -0.00155844
v -0.00947180 0.02210208 -0.00157561
v -0.00934826 0.02210208 -0.00126942
v -0.00931364 0.02444956 -0.00243125
v -0.00936243 0.02409493 -0.00226527
v -0.00939941 0.02368507 -0.00209643
v -0.00950091 0.02316599 -0.00210788
v -0.00958431 0.02263342 -0.00210788
v -0.00937895 0.02156951 -0.00121075
v -0.00940492 0.02103694 -0.00116210
v -0.00954812 0.01890789 -0.00104335
v -0.00955835 0.01880113 -0.00104335
v -0.01051356 0.01880113 -0.00636601
v -0.01050019 0.01890789 -0.00583518
v -0.01023502 0.02156951 -0.00583518
v -0.01017758 0.02210208 -0.00583518
v -0.01009497 0.02263342 -0.00530291
v -0.00990455 0.02374029 -0.00587381
v -0.01000606 0.02316599 -0.00530291
v -0.00990613 0.02365193 -0.00530291
v -0.00985498 0.02394644 -0.00572357
v -0.00975820 0.02423114 -0.00530291
v -0.00940334 0.02534291 -0.00583375
v -0.00958353 0.02476248 -0.00530291
v -0.00931994 0.02553925 -0.00530291
v -0.00919798 0.02582639 -0.00530291
v -0.00923339 0.02577731 -0.00583375
v -0.00896350 0.02635896 -0.00530291
v -0.00849770 0.02742288 -0.00583518
v -0.00869913 0.02694553 -0.00530291
v -0.00831988 0.02780942 -0.00583518
v -0.00819005 0.02807570 -0.00583518
v -0.00798468 0.02848802 -0.00583518
v -0.00724742 0.02991761 -0.00530291
v -0.00709871 0.03015567 -0.00477064
v -0.00721438 0.02985135 -0.00436286
v -0.00709478 0.03005137 -0.00420547
v -0.00678555 0.03066002 -0.00422550
v -0.00717504 0.02977281 -0.00370611
v -0.00701531 0.03008450 -0.00370611
v -0.00677218 0.03055571 -0.00370611
v -0.00663369 0.03082200 -0.00370611
v -0.00635909 0.03114964 -0.00317241
v -0.00630716 0.03133616 -0.00341851
v -0.00544558 0.03133616 -0.00089311
v -0.00549122 0.03133616 -0.00097467
v -0.00621510 0.03004891 -0.00108055
v -0.00668484 0.02932491 -0.00127085
v -0.00673598 0.02952248 -0.00162283
v -0.00701137 0.02897273 -0.00162140
v -0.00666989 0.02982803 -0.00183173
v -0.00744256 0.02848802 -0.00210788
v -0.00771165 0.02818492 -0.00245557
v -0.00823883 0.02710628 -0.00247989
v -0.00875814 0.02601537 -0.00254428
v -0.00887066 0.02583253 -0.00269023
v -0.00908153 0.02529382 -0.00264015
v -0.00926014 0.02476248 -0.00262155
v -0.00965749 0.02210208 -0.00210788
v -0.00953396 0.02156951 -0.00157561
v -0.00935456 0.02458455 -0.00278609
v -0.00940964 0.02425568 -0.00262155
v -0.00954812 0.02369857 -0.00264015
v -0.00965355 0.02316599 -0.00264015
v -0.00973932 0.02263342 -0.00264015
v -0.00978102 0.01880113 -0.00150550
v -0.00959926 0.01880113 -0.00112633
v -0.01051120 0.01880113 -0.00594249
v -0.01051041 0.01880113 -0.00583518
v -0.01049468 0.01880113 -0.00530291
v -0.01039318 0.01971901 -0.00501818
v -0.01021693 0.02156951 -0.00530291
v -0.01016027 0.02210208 -0.00530291
v -0.01013195 0.02210208 -0.00477064
v -0.01006428 0.02263342 -0.00477064
v -0.00984948 0.02391822 -0.00530291
v -0.00997222 0.02316599 -0.00477064
v -0.00988882 0.02357708 -0.00477064
v -0.00983374 0.02384214 -0.00477064
v -0.00972437 0.02423114 -0.00477064
v -0.00955205 0.02476248 -0.00477064
v -0.00930656 0.02549998 -0.00477064
v -0.00917123 0.02582639 -0.00477064
v -0.00893596 0.02635896 -0.00477064
v -0.00848275 0.02742288 -0.00530291
v -0.00880535 0.02664856 -0.00477064
v -0.00868496 0.02691485 -0.00477064
v -0.00831201 0.02779224 -0.00530291
v -0.00818139 0.02805852 -0.00530291
v -0.00796659 0.02848802 -0.00530291
v -0.00778168 0.02885615 -0.00530291
v -0.00764792 0.02912244 -0.00530291
v -0.00723326 0.02988939 -0.00477064
v -0.00774706 0.02878866 -0.00435427
v -0.00762982 0.02898745 -0.00420118
v -0.00732217 0.02960101 -0.00420547
v -0.00719313 0.02980962 -0.00400801
v -0.00772660 0.02874817 -0.00399943
v -0.00755271 0.02902059 -0.00370611
v -0.00745751 0.02902059 -0.00317241
v -0.00712704 0.02967832 -0.00317241
v -0.00691853 0.03008450 -0.00317241
v -0.00672261 0.03046000 -0.00317241
v -0.00625995 0.03133616 -0.00317241
v -0.00668248 0.03038392 -0.00283474
v -0.00653298 0.03058394 -0.00265016
v -0.00617340 0.03133616 -0.00280755
v -0.00621353 0.03133616 -0.00297639
v -0.00562419 0.03133616 -0.00124080
v -0.00614743 0.03037655 -0.00128229
v -0.00659435 0.02967955 -0.00147689
v -0.00647239 0.03003664 -0.00162283
v -0.00621117 0.03049804 -0.00157561
v -0.00587047 0.03114964 -0.00157561
v -0.00577290 0.03133616 -0.00157561
v -0.00613012 0.03087599 -0.00185319
v -0.00671946 0.02992252 -0.00210788
v -0.00690830 0.02955193 -0.00210788
v -0.00711996 0.02913103 -0.00210788
v -0.00725372 0.02886474 -0.00210788
v -0.00717740 0.02924638 -0.00245986
v -0.00721910 0.02932982 -0.00281471
v -0.00766051 0.02861441 -0.00317241
v -0.00779348 0.02834812 -0.00317241
v -0.00798941 0.02795545 -0.00317241
v -0.00785171 0.02798612 -0.00263585
v -0.00814362 0.02739097 -0.00265016
v -0.00819241 0.02753945 -0.00317241
v -0.00827896 0.02719218 -0.00283474
v -0.00831515 0.02727317 -0.00317241
v -0.00848983 0.02689153 -0.00317241
v -0.00879591 0.02609636 -0.00289913
v -0.00896980 0.02582639 -0.00317241
v -0.00921372 0.02524596 -0.00321677
v -0.00929791 0.02493918 -0.00306796
v -0.00971965 0.02156951 -0.00210788
v -0.00980856 0.02212785 -0.00265445
v -0.00983059 0.02156951 -0.00248848
v -0.00984712 0.01958649 -0.00188038
v -0.00986521 0.01923185 -0.00182744
v -0.00988646 0.01880113 -0.00177164
v -0.00980227 0.01880113 -0.00155844
v -0.00977630 0.01890789 -0.00151981
v -0.00938052 0.02476248 -0.00321677
v -0.00953002 0.02423114 -0.00317241
v -0.00965749 0.02369857 -0.00317241
v -0.00978259 0.02312427 -0.00321391
v -0.00986285 0.02291934 -0.00341851
v -0.00983295 0.02263342 -0.00304507
v -0.00985341 0.02232296 -0.00293490
v -0.01046714 0.01880113 -0.00477064
v -0.01029640 0.02050437 -0.00477064
v -0.01018860 0.02156951 -0.00477064
v -0.01014060 0.02156951 -0.00423838
v -0.01008316 0.02210208 -0.00423838
v -0.01001550 0.02263342 -0.00423838
v -0.00991400 0.02320526 -0.00421405
v -0.00987072 0.02349118 -0.00437574
v -0.00981722 0.02368016 -0.00421405
v -0.00967873 0.02423114 -0.00423838
v -0.00951192 0.02476248 -0.00423838
v -0.00937738 0.02517479 -0.00423838
v -0.00928453 0.02544108 -0.00423838
v -0.00912559 0.02582639 -0.00423838
v -0.00879512 0.02662525 -0.00450022
v -0.00845442 0.02742288 -0.00477064
v -0.00829784 0.02776156 -0.00477064
v -0.00816644 0.02802785 -0.00477064
v -0.00793669 0.02848802 -0.00477064
v -0.00776673 0.02882670 -0.00477064
v -0.00827896 0.02772352 -0.00435570
v -0.00785564 0.02853710 -0.00420118
v -0.00825929 0.02768303 -0.00400086
v -0.00784148 0.02844384 -0.00370611
v -0.00707904 0.02952493 -0.00263872
v -0.00678241 0.03010904 -0.00265016
v -0.00663999 0.03030293 -0.00247989
v -0.00614193 0.03133616 -0.00267735
v -0.00610730 0.03133616 -0.00253427
v -0.00569264 0.03133616 -0.00138961
v -0.00587440 0.03133616 -0.00183745
v -0.00596253 0.03133616 -0.00206639
v -0.00619228 0.03099379 -0.00220804
v -0.00631345 0.03066615 -0.00206209
v -0.00658019 0.03018880 -0.00210788
v -0.00808461 0.02795545 -0.00370611
v -0.00823962 0.02764130 -0.00370611
v -0.00836158 0.02737502 -0.00370611
v -0.00870306 0.02642277 -0.00317241
v -0.00858189 0.02689153 -0.00370611
v -0.00882345 0.02615649 -0.00317241
v -0.00906186 0.02582639 -0.00370611
v -0.00925306 0.02536009 -0.00370611
v -0.00933017 0.02503735 -0.00342281
v -0.00991085 0.01997303 -0.00220804
v -0.00999740 0.01880113 -0.00210788
v -0.00982823 0.01997303 -0.00194190
v -0.00984869 0.02120260 -0.00241408
v -0.00986679 0.02084796 -0.00234969
v -0.00988410 0.02050437 -0.00229389
v -0.00987544 0.02196833 -0.00284189
v -0.00989669 0.02156951 -0.00275461
v -0.01013746 0.01890789 -0.00264015
v -0.00991321 0.01880113 -0.00185033
v -0.00945763 0.02476248 -0.00370611
v -0.00961736 0.02423114 -0.00370611
v -0.00974876 0.02369857 -0.00370611
v -0.00988410 0.02263342 -0.00331120
v -0.00983138 0.02329730 -0.00370611
v -0.00988567 0.02303101 -0.00370611
v -0.00994940 0.02263342 -0.00370611
v -0.00991714 0.02212785 -0.00313664
v -0.01042150 0.01880113 -0.00425268
v -0.01039790 0.01923553 -0.00444442
v -0.01037980 0.01959017 -0.00466333
v -0.01019489 0.02103694 -0.00423838
v -0.01039239 0.01880113 -0.00397654
v -0.01007530 0.02156951 -0.00370611
v -0.01001707 0.02210208 -0.00370611
v -0.00985420 0.02341019 -0.00402089
v -0.00935062 0.02509380 -0.00370611
v -0.00888089 0.02638841 -0.00428846
v -0.00877702 0.02658598 -0.00414537
v -0.00867631 0.02683877 -0.00428846
v -0.00837810 0.02747196 -0.00420118
v -0.00816251 0.02792231 -0.00420118
v -0.00610180 0.03133616 -0.00251280
v -0.00886987 0.02625834 -0.00370611
v -0.01014768 0.01880113 -0.00264015
v -0.00998638 0.02156951 -0.00317241
v -0.01009418 0.02050437 -0.00317241
v -0.01026492 0.01880113 -0.00317241
v -0.01040577 0.01880113 -0.00410245
v -0.01037901 0.01905514 -0.00408957
v -0.01030269 0.01997303 -0.00423838
v -0.01037193 0.01880113 -0.00382773
v -0.01034911 0.01888948 -0.00373473
v -0.01023581 0.01997303 -0.00370611
v -0.01027830 0.01880113 -0.00325111
v -0.01028931 0.01944046 -0.00370611
v -0.01035305 0.01880113 -0.00370325
f 1 2 3
f 1 3 4
f 1 4 5
f 1 5 17
f 1 17 27
f 1 27 40
f 1 40 55
f 1 55 72
f 1 72 90
f 1 90 107
f 1 107 108
f 1 108 136
f 1 136 173
f 1 173 206
f 1 206 205
f 1 205 247
f 1 247 288
f 1 288 337
f 1 337 340
f 1 340 339
f 1 339 383
f 1 383 382
f 1 382 381
f 1 381 336
f 1 336 375
f 1 375 377
f 1 377 428
f 1 428 485
f 1 485 535
f 1 535 482
f 1 482 481
f 1 481 534
f 1 534 591
f 1 591 627
f 1 627 684
f 1 684 648
f 1 648 647
f 1 647 702
f 1 702 701
f 1 701 759
f 1 759 758
f 1 758 818
f 1 818 875
f 1 875 930
f 1 930 929
f 1 929 1005
f 1 1005 1004
f 1 1004 1067
f 1 1067 1059
f 1 1059 1092
f 1 1092 1095
f 1 1095 1102
f 1 1102 1104
f 1 1104 1099
f 1 1099 1080
f 1 1080 1096
f 1 1096 1076
f 1 1076 1014
f 1 1014 933
f 1 933 932
f 1 932 931
f 1 931 876
f 1 876 819
f 1 819 760
f 1 760 705
f 1 705 703
f 1 703 649
f 1 649 592
f 1 592 536
f 1 536 486
f 1 486 441
f 1 441 389
f 1 389 342
f 1 342 290
f 1 290 249
f 1 249 207
f 1 207 174
f 1 174 137
f 1 137 111
f 1 111 92
f 1 92 74
f 1 74 73
f 1 73 57
f 1 57 43
f 1 43 31
f 1 31 30
f 1 30 19
f 1 19 6
f 1 6 7
f 1 7 8
f 1 8 2
f 2 9 10
f 2 10 11
f 2 11 3
f 2 8 22
f 2 22 9
f 3 11 4
f 4 11 10
f 4 10 25
f 4 25 38
f 4 38 53
f 4 53 70
f 4 70 88
f 4 88 106
f 4 106 135
f 4 135 171
f 4 171 203
f 4 203 245
f 4 245 287
f 4 287 335
f 4 335 380
f 4 380 430
f 4 430 433
f 4 433 432
f 4 432 431
f 4 431 384
f 4 384 338
f 4 338 289
f 4 289 246
f 4 246 204
f 4 204 172
f 4 172 136
f 4 136 108
f 4 108 89
f 4 89 71
f 4 71 54
f 4 54 39
f 4 39 26
f 4 26 16
f 4 16 15
f 4 15 14
f 4 14 13
f 4 13 12
f 4 12 5
f 5 12 13
f 5 13 14
f 5 14 15
f 5 15 16
f 5 16 17
f 6 18 7
f 6 19 20
f 6 20 21
f 6 21 18
f 7 18 8
f 8 18 22
f 9 23 24
f 9 24 25
f 9 25 10
f 9 22 23
f 16 26 27
f 16 27 17
f 18 28 22
f 18 21 29
f 18 29 28
f 19 30 20
f 20 30 31
f 20 31 32
f 20 32 33
f 20 33 29
f 20 29 21
f 22 28 34
f 22 34 35
f 22 35 36
f 22 36 23
f 23 36 24
f 24 36 37
f 24 37 38
f 24 38 25
f 26 39 27
f 27 39 40
f 28 29 34
f 29 33 34
f 31 41 42
f 31 42 32
f 31 43 44
f 31 44 41
f 32 42 33
f 33 42 45
f 33 45 46
f 33 46 47
f 33 47 34
f 34 47 35
f 35 47 48
f 35 48 36
f 36 49 50
f 36 50 51
f 36 51 37
f 36 48 52
f 36 52 49
f 37 51 53
f 37 53 38
f 39 54 40
f 40 54 55
f 41 56 45
f 41 45 42
f 41 44 56
f 43 57 44
f 44 57 58
f 44 58 59
f 44 59 60
f 44 60 56
f 45 56 60
f 45 60 61
f 45 61 62
f 45 62 46
f 46 63 47
f 46 62 63
f 47 63 64
f 47 64 65
f 47 65 66
f 47 66 48
f 48 66 52
f 49 52 67
f 49 67 68
f 49 68 50
f 50 68 51
f 51 68 69
f 51 69 70
f 51 70 53
f 52 66 67
f 54 71 72
f 54 72 55
f 57 73 58
f 58 73 74
f 58 74 75
f 58 75 59
f 59 76 61
f 59 61 60
f 59 75 77
f 59 77 76
f 61 76 62
f 62 76 78
f 62 78 79
f 62 79 80
f 62 80 63
f 63 80 64
f 64 80 81
f 64 81 82
f 64 82 83
f 64 83 65
f 65 84 66
f 65 83 84
f 66 84 85
f 66 85 67
f 67 85 68
f 68 85 86
f 68 86 87
f 68 87 69
f 69 87 88
f 69 88 70
f 71 89 72
f 72 89 90
f 74 91 75
f 74 92 91
f 75 91 93
f 75 93 94
f 75 94 77
f 76 77 94
f 76 94 95
f 76 95 78
f 78 95 96
f 78 96 97
f 78 97 79
f 79 97 80
f 80 97 98
f 80 98 81
f 81 98 99
f 81 99 100
f 81 100 82
f 82 101 83
f 82 100 102
f 82 102 101
f 83 101 84
f 84 101 85
f 85 101 86
f 86 101 103
f 86 103 104
f 86 104 87
f 87 104 105
f 87 105 132
f 87 132 164
f 87 164 195
f 87 195 234
f 87 234 273
f 87 273 317
f 87 317 362
f 87 362 410
f 87 410 462
f 87 462 513
f 87 513 567
f 87 567 595
f 87 595 563
f 87 563 566
f 87 566 616
f 87 616 615
f 87 615 675
f 87 675 727
f 87 727 782
f 87 782 734
f 87 734 733
f 87 733 787
f 87 787 843
f 87 843 907
f 87 907 967
f 87 967 971
f 87 971 970
f 87 970 1041
f 87 1041 1042
f 87 1042 1090
f 87 1090 1045
f 87 1045 1044
f 87 1044 978
f 87 978 1043
f 87 1043 972
f 87 972 909
f 87 909 908
f 87 908 844
f 87 844 788
f 87 788 735
f 87 735 676
f 87 676 617
f 87 617 568
f 87 568 514
f 87 514 463
f 87 463 411
f 87 411 363
f 87 363 318
f 87 318 274
f 87 274 235
f 87 235 196
f 87 196 165
f 87 165 133
f 87 133 106
f 87 106 88
f 89 107 90
f 89 108 107
f 91 109 110
f 91 110 93
f 91 92 109
f 92 111 112
f 92 112 113
f 92 113 114
f 92 114 109
f 93 110 95
f 93 95 94
f 95 110 96
f 96 115 97
f 96 110 116
f 96 116 115
f 97 115 117
f 97 117 118
f 97 118 119
f 97 119 98
f 98 119 99
f 99 120 102
f 99 102 100
f 99 119 121
f 99 121 120
f 101 102 122
f 101 122 123
f 101 123 103
f 102 120 124
f 102 124 125
f 102 125 126
f 102 126 127
f 102 127 128
f 102 128 123
f 102 123 122
f 103 123 129
f 103 129 105
f 103 105 104
f 105 129 130
f 105 130 131
f 105 131 132
f 106 133 134
f 106 134 135
f 109 114 116
f 109 116 110
f 111 137 138
f 111 138 112
f 112 138 139
f 112 139 113
f 113 140 141
f 113 141 142
f 113 142 114
f 113 139 143
f 113 143 144
f 113 144 145
f 113 145 146
f 113 146 140
f 114 142 116
f 115 116 117
f 116 142 117
f 117 142 147
f 117 147 141
f 117 141 148
f 117 148 118
f 118 148 119
f 119 148 149
f 119 149 121
f 120 121 150
f 120 150 151
f 120 151 124
f 121 149 152
f 121 152 153
f 121 153 150
f 123 128 127
f 123 127 154
f 123 154 129
f 124 155 125
f 124 151 156
f 124 156 157
f 124 157 155
f 125 155 158
f 125 158 126
f 126 159 154
f 126 154 127
f 126 158 155
f 126 155 160
f 126 160 161
f 126 161 159
f 129 154 130
f 130 154 131
f 131 154 132
f 132 154 162
f 132 162 159
f 132 159 163
f 132 163 164
f 133 165 166
f 133 166 167
f 133 167 134
f 134 168 169
f 134 169 170
f 134 170 135
f 134 167 168
f 135 170 171
f 136 172 173
f 137 174 138
f 138 174 144
f 138 144 139
f 139 144 143
f 140 175 148
f 140 148 141
f 140 146 176
f 140 176 177
f 140 177 178
f 140 178 179
f 140 179 180
f 140 180 175
f 141 147 142
f 144 146 145
f 144 174 146
f 146 174 176
f 148 175 181
f 148 181 149
f 149 181 182
f 149 182 152
f 150 153 183
f 150 183 151
f 151 184 156
f 151 183 185
f 151 185 186
f 151 186 184
f 152 182 187
f 152 187 153
f 153 187 188
f 153 188 183
f 154 159 162
f 155 157 160
f 156 184 157
f 157 184 189
f 157 189 160
f 159 161 190
f 159 190 163
f 160 190 161
f 160 189 191
f 160 191 192
f 160 192 190
f 163 190 193
f 163 193 164
f 164 193 194
f 164 194 195
f 165 196 197
f 165 197 166
f 166 197 167
f 167 197 198
f 167 198 199
f 167 199 168
f 168 199 169
f 169 171 170
f 169 199 200
f 169 200 243
f 169 243 201
f 169 201 202
f 169 202 171
f 171 202 203
f 172 204 205
f 172 205 206
f 172 206 173
f 174 207 208
f 174 208 209
f 174 209 178
f 174 178 210
f 174 210 211
f 174 211 176
f 175 180 181
f 176 211 177
f 177 211 210
f 177 210 178
f 178 212 180
f 178 180 179
f 178 209 213
f 178 213 214
f 178 214 215
f 178 215 212
f 180 212 181
f 181 212 182
f 182 212 216
f 182 216 217
f 182 217 187
f 183 188 218
f 183 218 219
f 183 219 185
f 184 186 189
f 185 219 220
f 185 220 186
f 186 220 221
f 186 221 222
f 186 222 189
f 187 217 188
f 188 217 223
f 188 223 224
f 188 224 225
f 188 225 226
f 188 226 227
f 188 227 218
f 189 228 192
f 189 192 191
f 189 222 229
f 189 229 228
f 190 192 193
f 192 228 229
f 192 229 230
f 192 230 231
f 192 231 193
f 193 231 194
f 194 231 195
f 195 231 230
f 195 230 232
f 195 232 233
f 195 233 234
f 196 235 236
f 196 236 197
f 197 237 198
f 197 236 238
f 197 238 237
f 198 239 281
f 198 281 240
f 198 240 241
f 198 241 199
f 198 237 239
f 199 241 242
f 199 242 200
f 200 242 243
f 201 243 244
f 201 244 203
f 201 203 202
f 203 244 245
f 204 246 205
f 205 246 247
f 207 248 208
f 207 249 248
f 208 248 249
f 208 249 209
f 209 214 213
f 209 249 250
f 209 250 251
f 209 251 252
f 209 252 253
f 209 253 214
f 212 215 254
f 212 254 216
f 214 255 215
f 214 253 255
f 215 255 254
f 216 254 217
f 217 254 223
f 218 227 256
f 218 256 257
f 218 257 219
f 219 257 258
f 219 258 259
f 219 259 220
f 220 259 221
f 221 259 260
f 221 260 261
f 221 261 262
f 221 262 229
f 221 229 222
f 223 254 263
f 223 263 264
f 223 264 224
f 224 264 225
f 225 264 265
f 225 265 266
f 225 266 267
f 225 267 226
f 226 267 268
f 226 268 227
f 227 268 269
f 227 269 256
f 229 262 270
f 229 270 271
f 229 271 230
f 230 271 233
f 230 233 232
f 233 271 270
f 233 270 272
f 233 272 273
f 233 273 234
f 235 274 275
f 235 275 236
f 236 275 238
f 237 276 277
f 237 277 239
f 237 238 278
f 237 278 279
f 237 279 276
f 238 275 280
f 238 280 278
f 239 277 281
f 240 281 242
f 240 242 241
f 242 281 282
f 242 282 243
f 243 283 284
f 243 284 244
f 243 282 285
f 243 285 283
f 244 286 245
f 244 284 286
f 245 286 287
f 246 288 247
f 246 289 288
f 249 290 252
f 249 252 250
f 250 252 291
f 250 291 251
f 251 291 252
f 252 290 292
f 252 292 253
f 253 292 293
f 253 293 255
f 254 255 294
f 254 294 263
f 255 293 295
f 255 295 294
f 256 269 257
f 257 296 297
f 257 297 258
f 257 269 296
f 258 297 298
f 258 298 299
f 258 299 259
f 259 299 260
f 260 299 261
f 261 270 262
f 261 299 300
f 261 300 301
f 261 301 270
f 263 294 302
f 263 302 264
f 264 302 303
f 264 303 265
f 265 303 304
f 265 304 305
f 265 305 306
f 265 306 266
f 266 306 307
f 266 307 308
f 266 308 267
f 267 308 309
f 267 309 269
f 267 269 268
f 269 310 311
f 269 311 297
f 269 297 296
f 269 309 312
f 269 312 313
f 269 313 310
f 270 301 314
f 270 314 315
f 270 315 273
f 270 273 272
f 273 315 316
f 273 316 317
f 274 318 319
f 274 319 320
f 274 320 275
f 275 320 280
f 276 279 321
f 276 321 322
f 276 322 323
f 276 323 277
f 277 323 281
f 278 280 324
f 278 324 279
f 279 324 325
f 279 325 326
f 279 326 327
f 279 327 328
f 279 328 321
f 280 329 324
f 280 320 329
f 281 323 322
f 281 322 330
f 281 330 331
f 281 331 282
f 282 331 285
f 283 332 286
f 283 286 284
f 283 285 333
f 283 333 334
f 283 334 332
f 285 331 333
f 286 332 287
f 287 332 336
f 287 336 335
f 288 289 337
f 289 338 339
f 289 339 340
f 289 340 337
f 290 341 292
f 290 342 343
f 290 343 341
f 292 341 344
f 292 344 293
f 293 344 295
f 294 295 302
f 295 344 302
f 297 345 298
f 297 311 310
f 297 310 346
f 297 346 347
f 297 347 345
f 298 345 348
f 298 348 301
f 298 301 300
f 298 300 299
f 301 348 349
f 301 349 314
f 302 344 350
f 302 350 304
f 302 304 303
f 304 350 351
f 304 351 352
f 304 352 305
f 305 352 353
f 305 353 306
f 306 353 354
f 306 354 307
f 307 354 355
f 307 355 356
f 307 356 308
f 308 356 357
f 308 357 312
f 308 312 309
f 310 313 358
f 310 358 359
f 310 359 346
f 312 357 360
f 312 360 313
f 313 360 358
f 314 349 316
f 314 316 315
f 316 349 317
f 317 349 361
f 317 361 362
f 318 363 364
f 318 364 319
f 319 364 320
f 320 364 365
f 320 365 366
f 320 366 367
f 320 367 324
f 320 324 329
f 321 328 322
f 322 328 327
f 322 327 368
f 322 368 330
f 324 367 369
f 324 369 325
f 325 369 326
f 326 369 370
f 326 370 327
f 327 370 368
f 330 368 371
f 330 371 372
f 330 372 373
f 330 373 374
f 330 374 331
f 331 374 333
f 332 375 336
f 332 334 376
f 332 376 377
f 332 377 375
f 333 378 376
f 333 376 334
f 333 374 379
f 333 379 378
f 335 336 381
f 335 381 382
f 335 382 380
f 338 383 339
f 338 384 383
f 341 385 344
f 341 343 386
f 341 386 387
f 341 387 388
f 341 388 385
f 342 389 343
f 343 389 386
f 344 385 390
f 344 390 350
f 345 347 348
f 346 359 348
f 346 348 347
f 348 391 349
f 348 359 392
f 348 392 393
f 348 393 394
f 348 394 391
f 349 391 361
f 350 390 351
f 351 395 396
f 351 396 352
f 351 390 395
f 352 396 397
f 352 397 353
f 353 397 398
f 353 398 354
f 354 398 355
f 355 399 356
f 355 398 400
f 355 400 401
f 355 401 399
f 356 399 402
f 356 402 357
f 357 403 360
f 357 402 403
f 358 360 404
f 358 404 405
f 358 405 359
f 359 405 406
f 359 406 392
f 360 403 407
f 360 407 408
f 360 408 409
f 360 409 404
f 361 391 410
f 361 410 362
f 363 411 412
f 363 412 364
f 364 412 413
f 364 413 414
f 364 414 365
f 365 414 366
f 366 369 367
f 366 414 415
f 366 415 416
f 366 416 369
f 368 370 417
f 368 417 418
f 368 418 371
f 369 416 419
f 369 419 420
f 369 420 421
f 369 421 422
f 369 422 423
f 369 423 370
f 370 423 417
f 371 418 424
f 371 424 425
f 371 425 372
f 372 425 373
f 373 426 374
f 373 425 426
f 374 426 379
f 376 378 377
f 377 378 427
f 377 427 428
f 378 379 426
f 378 426 429
f 378 429 427
f 380 382 430
f 382 431 432
f 382 432 433
f 382 433 430
f 382 383 384
f 382 384 431
f 385 388 395
f 385 395 390
f 386 434 387
f 386 389 434
f 387 434 435
f 387 435 436
f 387 436 437
f 387 437 438
f 387 438 388
f 388 438 439
f 388 439 440
f 388 440 395
f 389 435 434
f 389 441 436
f 389 436 435
f 391 394 442
f 391 442 410
f 392 406 443
f 392 443 442
f 392 442 393
f 393 442 394
f 395 440 396
f 396 440 444
f 396 444 397
f 397 444 445
f 397 445 398
f 398 445 446
f 398 446 400
f 399 401 447
f 399 447 448
f 399 448 402
f 400 446 449
f 400 449 401
f 401 449 447
f 402 448 450
f 402 450 451
f 402 451 452
f 402 452 453
f 402 453 403
f 403 453 407
f 404 409 454
f 404 454 455
f 404 455 405
f 405 455 406
f 406 455 443
f 407 453 408
f 408 453 456
f 408 456 457
f 408 457 458
f 408 458 459
f 408 459 409
f 409 460 454
f 409 459 460
f 410 442 461
f 410 461 462
f 411 463 464
f 411 464 412
f 412 464 465
f 412 465 413
f 413 465 414
f 414 465 415
f 415 466 416
f 415 465 467
f 415 467 468
f 415 468 469
f 415 469 466
f 416 466 420
f 416 420 419
f 417 423 422
f 417 422 470
f 417 470 418
f 418 470 471
f 418 471 472
f 418 472 424
f 420 466 469
f 420 469 473
f 420 473 474
f 420 474 421
f 421 474 475
f 421 475 476
f 421 476 422
f 422 476 477
f 422 477 470
f 424 472 478
f 424 478 479
f 424 479 425
f 425 479 480
f 425 480 481
f 425 481 482
f 425 482 483
f 425 483 426
f 426 483 484
f 426 484 429
f 427 429 428
f 428 429 484
f 428 484 485
f 436 441 486
f 436 486 437
f 437 486 487
f 437 487 438
f 438 487 488
f 438 488 489
f 438 489 439
f 439 489 490
f 439 490 440
f 440 490 491
f 440 491 444
f 442 443 492
f 442 492 493
f 442 493 461
f 443 455 454
f 443 454 494
f 443 494 492
f 444 491 495
f 444 495 496
f 444 496 445
f 445 496 497
f 445 497 498
f 445 498 446
f 446 498 449
f 447 499 448
f 447 449 500
f 447 500 501
f 447 501 499
f 448 499 502
f 448 502 503
f 448 503 451
f 448 451 450
f 449 498 504
f 449 504 500
f 451 456 452
f 451 503 456
f 452 456 453
f 454 460 494
f 456 503 505
f 456 505 457
f 457 506 458
f 457 505 506
f 458 506 507
f 458 507 508
f 458 508 509
f 458 509 510
f 458 510 511
f 458 511 460
f 458 460 459
f 460 510 494
f 460 511 510
f 461 493 512
f 461 512 513
f 461 513 462
f 463 514 515
f 463 515 464
f 464 515 516
f 464 516 465
f 465 516 467
f 467 516 517
f 467 517 518
f 467 518 468
f 468 518 469
f 469 518 519
f 469 519 473
f 470 477 471
f 471 477 520
f 471 520 521
f 471 521 522
f 471 522 478
f 471 478 472
f 473 519 474
f 474 519 523
f 474 523 524
f 474 524 475
f 475 524 525
f 475 525 476
f 476 525 526
f 476 526 527
f 476 527 477
f 477 521 520
f 477 527 528
f 477 528 529
f 477 529 521
f 478 522 479
f 479 522 530
f 479 530 531
f 479 531 532
f 479 532 533
f 479 533 480
f 480 533 481
f 481 533 534
f 482 535 483
f 483 535 484
f 484 535 485
f 486 536 488
f 486 488 487
f 488 536 489
f 489 537 490
f 489 536 538
f 489 538 537
f 490 537 539
f 490 539 491
f 491 539 495
f 492 494 540
f 492 540 493
f 493 540 512
f 494 510 541
f 494 541 540
f 495 497 496
f 495 539 542
f 495 542 543
f 495 543 544
f 495 544 545
f 495 545 497
f 497 545 498
f 498 545 546
f 498 546 504
f 499 501 547
f 499 547 548
f 499 548 549
f 499 549 553
f 499 553 502
f 500 504 550
f 500 550 501
f 501 550 551
f 501 551 552
f 501 552 547
f 502 553 503
f 503 553 554
f 503 554 505
f 504 546 555
f 504 555 550
f 505 554 556
f 505 556 557
f 505 557 558
f 505 558 559
f 505 559 506
f 506 559 507
f 507 559 560
f 507 560 561
f 507 561 562
f 507 562 508
f 508 563 564
f 508 564 509
f 508 562 565
f 508 565 561
f 508 561 566
f 508 566 563
f 509 564 541
f 509 541 510
f 512 540 541
f 512 541 513
f 513 541 567
f 514 568 569
f 514 569 570
f 514 570 515
f 515 570 517
f 515 517 516
f 517 570 571
f 517 571 572
f 517 572 518
f 518 572 573
f 518 573 519
f 519 573 574
f 519 574 523
f 521 529 575
f 521 575 522
f 522 575 576
f 522 576 577
f 522 577 578
f 522 578 579
f 522 579 530
f 523 574 580
f 523 580 581
f 523 581 524
f 524 581 582
f 524 582 583
f 524 583 525
f 525 583 584
f 525 584 526
f 526 584 585
f 526 585 586
f 526 586 527
f 527 586 587
f 527 587 528
f 528 587 529
f 529 587 588
f 529 588 589
f 529 589 575
f 530 579 531
f 531 579 532
f 532 579 590
f 532 590 534
f 532 534 533
f 534 590 591
f 536 592 593
f 536 593 538
f 537 538 594
f 537 594 539
f 538 593 594
f 539 594 542
f 541 595 567
f 541 564 563
f 541 563 595
f 542 594 653
f 542 653 596
f 542 596 543
f 543 596 597
f 543 597 598
f 543 598 544
f 544 598 545
f 545 598 599
f 545 599 546
f 546 599 600
f 546 600 555
f 547 552 548
f 548 552 601
f 548 601 602
f 548 602 553
f 548 553 549
f 550 555 603
f 550 603 551
f 551 603 604
f 551 604 552
f 552 604 605
f 552 605 606
f 552 606 601
f 553 607 556
f 553 556 554
f 553 602 607
f 555 600 608
f 555 608 603
f 556 607 557
f 557 609 610
f 557 610 558
f 557 607 611
f 557 611 612
f 557 612 609
f 558 610 559
f 559 610 560
f 560 610 613
f 560 613 614
f 560 614 615
f 560 615 561
f 561 565 562
f 561 615 616
f 561 616 566
f 568 617 618
f 568 618 619
f 568 619 569
f 569 619 620
f 569 620 571
f 569 571 570
f 571 620 572
f 572 620 621
f 572 621 573
f 573 621 622
f 573 622 574
f 574 622 580
f 575 589 623
f 575 623 624
f 575 624 576
f 576 624 625
f 576 625 626
f 576 626 577
f 577 626 627
f 577 627 578
f 578 627 579
f 579 627 591
f 579 591 590
f 580 622 628
f 580 628 629
f 580 629 581
f 581 629 630
f 581 630 631
f 581 631 582
f 582 631 632
f 582 632 633
f 582 633 634
f 582 634 583
f 583 634 635
f 583 635 636
f 583 636 637
f 583 637 638
f 583 638 639
f 583 639 584
f 584 639 585
f 585 639 640
f 585 640 641
f 585 641 586
f 586 641 587
f 587 641 642
f 587 642 588
f 588 642 643
f 588 643 589
f 589 643 644
f 589 644 645
f 589 645 646
f 589 646 647
f 589 647 648
f 589 648 623
f 592 649 650
f 592 650 593
f 593 650 649
f 593 649 651
f 593 651 652
f 593 652 653
f 593 653 594
f 596 653 709
f 596 709 654
f 596 654 655
f 596 655 597
f 597 655 656
f 597 656 598
f 598 656 599
f 599 656 657
f 599 657 600
f 600 657 658
f 600 658 608
f 601 606 659
f 601 659 602
f 602 659 611
f 602 611 607
f 603 608 660
f 603 660 604
f 604 660 661
f 604 661 605
f 605 661 662
f 605 662 663
f 605 663 664
f 605 664 606
f 606 664 665
f 606 665 659
f 608 658 666
f 608 666 667
f 608 667 660
f 609 668 610
f 609 612 669
f 609 669 670
f 609 670 668
f 610 668 613
f 611 659 612
f 612 659 671
f 612 671 672
f 612 672 673
f 612 673 674
f 612 674 669
f 613 668 614
f 614 668 675
f 614 675 615
f 617 676 677
f 617 677 678
f 617 678 679
f 617 679 618
f 618 679 680
f 618 680 681
f 618 681 682
f 618 682 620
f 618 620 619
f 620 682 621
f 621 682 628
f 621 628 622
f 623 648 683
f 623 683 624
f 624 683 625
f 625 683 648
f 625 648 626
f 626 648 684
f 626 684 627
f 628 682 630
f 628 630 629
f 630 685 686
f 630 686 687
f 630 687 631
f 630 682 685
f 631 687 632
f 632 687 688
f 632 688 633
f 633 688 689
f 633 689 634
f 634 689 635
f 635 689 690
f 635 690 636
f 636 691 637
f 636 690 692
f 636 692 693
f 636 693 691
f 637 691 638
f 638 694 639
f 638 691 695
f 638 695 694
f 639 694 640
f 640 694 641
f 641 694 696
f 641 696 642
f 642 696 697
f 642 697 698
f 642 698 643
f 643 698 699
f 643 699 644
f 644 699 700
f 644 700 645
f 645 700 701
f 645 701 702
f 645 702 647
f 645 647 646
f 649 703 651
f 651 704 652
f 651 703 705
f 651 705 706
f 651 706 704
f 652 704 706
f 652 706 707
f 652 707 708
f 652 708 709
f 652 709 653
f 654 709 763
f 654 763 710
f 654 710 655
f 655 711 656
f 655 710 712
f 655 712 711
f 656 711 657
f 657 711 712
f 657 712 713
f 657 713 714
f 657 714 658
f 658 714 715
f 658 715 717
f 658 717 666
f 659 665 716
f 659 716 671
f 660 667 661
f 661 667 717
f 661 717 718
f 661 718 719
f 661 719 662
f 662 719 720
f 662 720 721
f 662 721 722
f 662 722 663
f 663 722 723
f 663 723 664
f 664 723 665
f 665 723 724
f 665 724 725
f 665 725 726
f 665 726 716
f 666 717 667
f 668 727 675
f 668 670 728
f 668 728 729
f 668 729 727
f 669 674 670
f 670 674 728
f 671 716 730
f 671 730 672
f 672 730 673
f 673 731 674
f 673 730 732
f 673 732 731
f 674 731 732
f 674 732 733
f 674 733 734
f 674 734 729
f 674 729 728
f 676 735 736
f 676 736 677
f 677 736 678
f 678 736 737
f 678 737 738
f 678 738 681
f 678 681 680
f 678 680 679
f 681 738 739
f 681 739 686
f 681 686 685
f 681 685 682
f 686 739 687
f 687 739 740
f 687 740 741
f 687 741 688
f 688 741 742
f 688 742 743
f 688 743 744
f 688 744 745
f 688 745 746
f 688 746 690
f 688 690 689
f 690 746 747
f 690 747 692
f 691 693 748
f 691 748 749
f 691 749 695
f 692 747 750
f 692 750 751
f 692 751 693
f 693 751 752
f 693 752 753
f 693 753 748
f 694 695 754
f 694 754 696
f 695 749 754
f 696 754 755
f 696 755 756
f 696 756 697
f 697 756 698
f 698 756 757
f 698 757 758
f 698 758 759
f 698 759 701
f 698 701 699
f 699 701 700
f 705 760 706
f 706 760 707
f 707 760 761
f 707 761 708
f 708 761 762
f 708 762 763
f 708 763 709
f 710 763 822
f 710 822 764
f 710 764 765
f 710 765 712
f 712 765 713
f 713 765 766
f 713 766 714
f 714 766 767
f 714 767 715
f 715 767 768
f 715 768 769
f 715 769 717
f 716 726 730
f 717 769 718
f 718 769 719
f 719 769 770
f 719 770 771
f 719 771 720
f 720 771 772
f 720 772 773
f 720 773 721
f 721 773 774
f 721 774 775
f 721 775 722
f 722 775 776
f 722 776 723
f 723 776 724
f 724 776 777
f 724 777 778
f 724 778 725
f 725 778 726
f 726 779 730
f 726 778 780
f 726 780 781
f 726 781 779
f 727 729 782
f 729 734 782
f 730 779 783
f 730 783 732
f 732 783 784
f 732 784 733
f 733 784 785
f 733 785 786
f 733 786 787
f 735 788 737
f 735 737 736
f 737 788 789
f 737 789 790
f 737 790 791
f 737 791 738
f 738 791 790
f 738 790 792
f 738 792 742
f 738 742 741
f 738 741 740
f 738 740 739
f 742 793 794
f 742 794 795
f 742 795 743
f 742 792 793
f 743 795 744
f 744 796 797
f 744 797 798
f 744 798 745
f 744 795 799
f 744 799 800
f 744 800 801
f 744 801 802
f 744 802 796
f 745 798 746
f 746 798 747
f 747 798 803
f 747 803 804
f 747 804 750
f 748 753 749
f 749 753 805
f 749 805 806
f 749 806 807
f 749 807 754
f 750 804 808
f 750 808 809
f 750 809 751
f 751 809 810
f 751 810 752
f 752 810 811
f 752 811 753
f 753 811 812
f 753 812 805
f 754 807 813
f 754 813 755
f 755 813 814
f 755 814 756
f 756 814 815
f 756 815 816
f 756 816 817
f 756 817 757
f 757 817 758
f 758 817 818
f 760 819 761
f 761 819 820
f 761 820 762
f 762 820 821
f 762 821 763
f 763 821 822
f 764 822 823
f 764 823 824
f 764 824 765
f 765 825 766
f 765 824 826
f 765 826 825
f 766 825 767
f 767 825 768
f 768 825 769
f 769 825 826
f 769 826 827
f 769 827 828
f 769 828 829
f 769 829 830
f 769 830 770
f 770 830 771
f 771 830 772
f 772 830 773
f 773 830 829
f 773 829 831
f 773 831 833
f 773 833 774
f 774 832 775
f 774 833 892
f 774 892 832
f 775 832 776
f 776 832 834
f 776 834 777
f 777 834 835
f 777 835 778
f 778 835 836
f 778 836 780
f 779 781 783
f 780 836 781
f 781 836 837
f 781 837 838
f 781 838 785
f 781 785 784
f 781 784 783
f 785 838 786
f 786 839 840
f 786 840 841
f 786 841 787
f 786 838 839
f 787 841 842
f 787 842 843
f 788 844 845
f 788 845 789
f 789 845 846
f 789 846 847
f 789 847 848
f 789 848 849
f 789 849 793
f 789 793 790
f 790 793 792
f 793 849 794
f 794 849 850
f 794 850 851
f 794 851 795
f 795 851 799
f 796 802 797
f 797 802 852
f 797 852 803
f 797 803 798
f 799 850 800
f 799 851 850
f 800 850 853
f 800 853 854
f 800 854 802
f 800 802 801
f 802 854 855
f 802 855 856
f 802 856 857
f 802 857 858
f 802 858 852
f 803 852 858
f 803 858 859
f 803 859 860
f 803 860 861
f 803 861 862
f 803 862 863
f 803 863 808
f 803 808 804
f 805 812 864
f 805 864 806
f 806 864 865
f 806 865 866
f 806 866 813
f 806 813 807
f 808 863 867
f 808 867 809
f 809 867 868
f 809 868 810
f 810 868 869
f 810 869 811
f 811 869 870
f 811 870 812
f 812 870 871
f 812 871 864
f 813 866 814
f 814 866 872
f 814 872 873
f 814 873 874
f 814 874 816
f 814 816 815
f 816 874 817
f 817 874 875
f 817 875 818
f 819 876 821
f 819 821 820
f 821 876 877
f 821 877 878
f 821 878 879
f 821 879 822
f 822 879 823
f 823 879 936
f 823 936 880
f 823 880 824
f 824 881 826
f 824 880 882
f 824 882 883
f 824 883 881
f 826 881 884
f 826 884 827
f 827 884 885
f 827 885 828
f 828 886 829
f 828 885 887
f 828 887 888
f 828 888 886
f 829 886 888
f 829 888 889
f 829 889 890
f 829 890 831
f 831 890 889
f 831 889 891
f 831 891 833
f 832 892 894
f 832 894 834
f 833 891 893
f 833 893 892
f 834 894 895
f 834 895 835
f 835 895 896
f 835 896 836
f 836 896 837
f 837 896 839
f 837 839 838
f 839 896 897
f 839 897 840
f 840 898 841
f 840 897 898
f 841 899 900
f 841 900 901
f 841 901 842
f 841 898 899
f 842 901 900
f 842 900 902
f 842 902 903
f 842 903 904
f 842 904 905
f 842 905 843
f 843 905 906
f 843 906 907
f 844 908 846
f 844 846 845
f 846 908 909
f 846 909 847
f 847 909 910
f 847 910 848
f 848 910 911
f 848 911 849
f 849 911 850
f 850 911 853
f 853 911 912
f 853 912 913
f 853 913 855
f 853 855 854
f 855 913 856
f 856 914 857
f 856 913 914
f 857 914 915
f 857 915 916
f 857 916 917
f 857 917 858
f 858 917 860
f 858 860 859
f 860 917 862
f 860 862 861
f 862 917 918
f 862 918 919
f 862 919 920
f 862 920 863
f 863 920 921
f 863 921 867
f 864 871 865
f 865 871 922
f 865 922 999
f 865 999 923
f 865 923 866
f 866 923 872
f 867 921 924
f 867 924 925
f 867 925 868
f 868 925 926
f 868 926 869
f 869 926 927
f 869 927 870
f 870 927 928
f 870 928 871
f 871 928 922
f 872 929 930
f 872 930 875
f 872 875 874
f 872 874 873
f 872 923 929
f 876 931 877
f 877 931 932
f 877 932 933
f 877 933 878
f 878 933 934
f 878 934 935
f 878 935 936
f 878 936 879
f 880 936 937
f 880 937 938
f 880 938 882
f 881 883 939
f 881 939 884
f 882 938 940
f 882 940 941
f 882 941 883
f 883 941 942
f 883 942 939
f 884 939 885
f 885 939 943
f 885 943 944
f 885 944 887
f 887 944 945
f 887 945 888
f 888 945 946
f 888 946 889
f 889 946 891
f 891 946 947
f 891 947 893
f 892 893 948
f 892 948 894
f 893 947 949
f 893 949 950
f 893 950 948
f 894 948 951
f 894 951 895
f 895 951 952
f 895 952 896
f 896 952 953
f 896 953 954
f 896 954 955
f 896 955 897
f 897 955 956
f 897 956 898
f 898 956 899
f 899 957 958
f 899 958 959
f 899 959 900
f 899 956 957
f 900 959 960
f 900 960 902
f 902 960 959
f 902 959 961
f 902 961 962
f 902 962 963
f 902 963 964
f 902 964 903
f 903 964 965
f 903 965 904
f 904 965 905
f 905 965 966
f 905 966 906
f 906 967 907
f 906 966 968
f 906 968 969
f 906 969 970
f 906 970 971
f 906 971 967
f 909 972 973
f 909 973 910
f 910 973 911
f 911 973 974
f 911 974 912
f 912 914 913
f 912 974 914
f 914 974 975
f 914 975 976
f 914 976 977
f 914 977 978
f 914 978 979
f 914 979 980
f 914 980 981
f 914 981 982
f 914 982 983
f 914 983 915
f 915 983 916
f 916 984 985
f 916 985 964
f 916 964 963
f 916 963 986
f 916 986 987
f 916 987 988
f 916 988 989
f 916 989 990
f 916 990 917
f 916 983 982
f 916 982 981
f 916 981 984
f 917 990 991
f 917 991 992
f 917 992 918
f 918 992 993
f 918 993 994
f 918 994 995
f 918 995 919
f 919 995 996
f 919 996 920
f 920 996 997
f 920 997 998
f 920 998 921
f 921 998 924
f 922 928 1000
f 922 1000 1001
f 922 1001 999
f 923 999 1002
f 923 1002 1003
f 923 1003 1004
f 923 1004 1005
f 923 1005 1006
f 923 1006 929
f 924 998 1007
f 924 1007 1008
f 924 1008 925
f 925 1008 926
f 926 1008 1009
f 926 1009 1010
f 926 1010 927
f 927 1010 1011
f 927 1011 1012
f 927 1012 928
f 928 1012 1013
f 928 1013 1000
f 929 1006 1005
f 933 1014 934
f 934 1014 1015
f 934 1015 1016
f 934 1016 935
f 935 1016 937
f 935 937 936
f 937 1016 1017
f 937 1017 1018
f 937 1018 1019
f 937 1019 938
f 938 1019 940
f 939 942 943
f 940 1019 1020
f 940 1020 1021
f 940 1021 941
f 941 1021 1022
f 941 1022 942
f 942 1022 1023
f 942 1023 943
f 943 1023 1024
f 943 1024 944
f 944 1024 1025
f 944 1025 945
f 945 1025 1026
f 945 1026 1027
f 945 1027 946
f 946 1027 947
f 947 1027 1028
f 947 1028 949
f 948 950 1029
f 948 1029 951
f 949 1028 950
f 950 1028 1029
f 951 1029 1030
f 951 1030 952
f 952 1030 1031
f 952 1031 1032
f 952 1032 953
f 953 1032 1033
f 953 1033 956
f 953 956 954
f 954 956 955
f 956 1033 957
f 957 1033 1032
f 957 1032 1031
f 957 1031 1034
f 957 1034 1035
f 957 1035 958
f 958 1035 961
f 958 961 959
f 961 1035 1036
f 961 1036 1037
f 961 1037 962
f 962 1037 963
f 963 1037 986
f 964 985 1038
f 964 1038 1039
f 964 1039 965
f 965 1039 966
f 966 1039 968
f 968 1039 1040
f 968 1040 969
f 969 1041 970
f 969 1040 1042
f 969 1042 1041
f 972 1043 973
f 973 1043 976
f 973 976 975
f 973 975 974
f 976 1043 977
f 977 1043 978
f 978 1044 979
f 979 1044 1045
f 979 1045 1046
f 979 1046 1047
f 979 1047 1048
f 979 1048 980
f 980 1048 1046
f 980 1046 1040
f 980 1040 984
f 980 984 981
f 984 1040 1039
f 984 1039 1038
f 984 1038 985
f 986 1037 987
f 987 1037 988
f 988 991 989
f 988 1037 1049
f 988 1049 1050
f 988 1050 991
f 989 991 990
f 991 993 992
f 991 1050 993
f 993 1050 1051
f 993 1051 994
f 994 1052 995
f 994 1051 1053
f 994 1053 1052
f 995 1052 1054
f 995 1054 996
f 996 1054 1055
f 996 1055 1056
f 996 1056 997
f 997 1056 1057
f 997 1057 998
f 998 1057 1007
f 999 1058 1059
f 999 1059 1060
f 999 1060 1002
f 999 1001 1061
f 999 1061 1062
f 999 1062 1063
f 999 1063 1058
f 1000 1013 1064
f 1000 1064 1001
f 1001 1064 1065
f 1001 1065 1066
f 1001 1066 1061
f 1002 1060 1059
f 1002 1059 1003
f 1003 1059 1067
f 1003 1067 1004
f 1007 1057 1068
f 1007 1068 1069
f 1007 1069 1008
f 1008 1069 1070
f 1008 1070 1009
f 1009 1070 1011
f 1009 1011 1010
f 1011 1071 1012
f 1011 1070 1072
f 1011 1072 1073
f 1011 1073 1074
f 1011 1074 1071
f 1012 1071 1013
f 1013 1071 1075
f 1013 1075 1064
f 1014 1076 1077
f 1014 1077 1078
f 1014 1078 1015
f 1015 1078 1077
f 1015 1077 1016
f 1016 1077 1017
f 1017 1077 1079
f 1017 1079 1080
f 1017 1080 1081
f 1017 1081 1018
f 1018 1081 1082
f 1018 1082 1074
f 1018 1074 1019
f 1019 1074 1073
f 1019 1073 1020
f 1020 1083 1022
f 1020 1022 1021
f 1020 1073 1083
f 1022 1083 1070
f 1022 1070 1069
f 1022 1069 1023
f 1023 1069 1068
f 1023 1068 1024
f 1024 1068 1084
f 1024 1084 1025
f 1025 1084 1026
f 1026 1084 1056
f 1026 1056 1055
f 1026 1055 1027
f 1027 1085 1028
f 1027 1055 1086
f 1027 1086 1085
f 1028 1085 1086
f 1028 1086 1087
f 1028 1087 1034
f 1028 1034 1029
f 1029 1034 1030
f 1030 1034 1031
f 1034 1087 1088
f 1034 1088 1036
f 1034 1036 1089
f 1034 1089 1035
f 1035 1089 1036
f 1036 1088 1086
f 1036 1086 1053
f 1036 1053 1051
f 1036 1051 1050
f 1036 1050 1049
f 1036 1049 1037
f 1040 1090 1042
f 1040 1046 1090
f 1045 1090 1046
f 1046 1048 1047
f 1052 1053 1091
f 1052 1091 1054
f 1053 1086 1091
f 1054 1091 1055
f 1055 1091 1086
f 1056 1084 1057
f 1057 1084 1068
f 1058 1063 1059
f 1059 1063 1062
f 1059 1062 1066
f 1059 1066 1092
f 1061 1066 1062
f 1064 1075 1093
f 1064 1093 1094
f 1064 1094 1065
f 1065 1094 1095
f 1065 1095 1066
f 1066 1095 1092
f 1070 1083 1072
f 1071 1074 1082
f 1071 1082 1075
f 1072 1083 1073
f 1075 1082 1093
f 1076 1096 1097
f 1076 1097 1098
f 1076 1098 1077
f 1077 1098 1079
f 1079 1098 1080
f 1080 1098 1097
f 1080 1097 1096
f 1080 1099 1081
f 1081 1094 1093
f 1081 1093 1082
f 1081 1099 1100
f 1081 1100 1101
f 1081 1101 1094
f 1086 1088 1087
f 1094 1102 1095
f 1094 1101 1103
f 1094 1103 1102
f 1099 1104 1100
f 1100 1103 1101
f 1100 1104 1103
f 1102 1103 1104

