# https://github.com/mikedh/trimesh
v -0.01158550 0.00134283 -0.00227144
v -0.01146276 0.00116504 -0.00182508
v -0.01152856 0.00134283 -0.00206612
v -0.01152350 0.00187415 -0.00216644
v -0.01148933 0.00284376 -0.00227144
v -0.01157411 0.00082185 -0.00227144
v -0.01146276 0.00101412 -0.00182508
v -0.01148300 0.00293886 -0.00227144
v -0.01109706 0.00134283 -0.00104314
v -0.01136532 0.00134283 -0.00161868
v -0.01093888 0.00560166 -0.00127841
v -0.01092623 0.00590764 -0.00130258
v -0.01108693 0.00506828 -0.00157538
v -0.01104771 0.00560166 -0.00157538
v -0.01123372 0.00560166 -0.00210762
v -0.01131217 0.00453696 -0.00210762
v -0.01143239 0.00365418 -0.00227144
v -0.01150325 0.00044145 -0.00227144
v -0.01149819 0.00045179 -0.00223644
v -0.01144251 0.00066059 -0.00188137
v -0.01152350 0.00082599 -0.00207839
v -0.01135646 0.00082599 -0.00161868
v -0.01108820 0.00080945 -0.00104314
v -0.01093762 0.00080945 -0.00075627
v -0.01093888 0.00134283 -0.00075230
v -0.01092876 0.00169222 -0.00076890
v -0.01091737 0.00204781 -0.00078730
v -0.01090598 0.00240754 -0.00080715
v -0.01088953 0.00293886 -0.00083782
v -0.01104644 0.00240754 -0.00107345
v -0.01102872 0.00293886 -0.00110376
v -0.01101101 0.00347225 -0.00113660
v -0.01099329 0.00400357 -0.00117052
v -0.01097558 0.00453696 -0.00120480
v -0.01095786 0.00506828 -0.00123944
v -0.01079969 0.00560166 -0.00101211
v -0.01091104 0.00626116 -0.00134155
v -0.01099583 0.00610404 -0.00154146
v -0.01079969 0.00610404 -0.00109221
v -0.01038464 0.00898805 -0.00078911
v -0.01036945 0.00932504 -0.00081834
v -0.01050485 0.00932504 -0.00108464
v -0.01045550 0.01038975 -0.00118026
v -0.01039223 0.01172528 -0.00130800
v -0.01119070 0.00613298 -0.00210762
v -0.01124890 0.00596966 -0.00227144
v -0.01133875 0.00484707 -0.00227144
v -0.01138051 0.00432195 -0.00227144
v -0.01141720 0.00385678 -0.00227144
v -0.01138177 0.00020783 -0.00227144
v -0.01136026 0.00027606 -0.00207839
v -0.01112236 0.00022851 -0.00152594
v -0.01099329 0.00041251 -0.00104314
v -0.01092496 0.00054069 -0.00077431
v -0.01074148 0.00080945 -0.00048997
v -0.01075160 0.00134283 -0.00048636
v -0.01055167 0.00506828 -0.00054807
v -0.01053269 0.00560166 -0.00057152
v -0.01087182 0.00347225 -0.00087066
v -0.01085410 0.00400357 -0.00090458
v -0.01081740 0.00506828 -0.00097350
v -0.01051118 0.00613298 -0.00060075
v -0.01048714 0.00666637 -0.00063395
v -0.01044032 0.00773108 -0.00070251
v -0.01040109 0.00863453 -0.00076241
v -0.01089333 0.00666637 -0.00138991
v -0.01091610 0.00843193 -0.00186513
v -0.01094521 0.00773108 -0.00178178
v -0.01067821 0.00985636 -0.00157538
v -0.01072630 0.00932504 -0.00157538
v -0.00985950 0.01439015 -0.00077576
v -0.00984305 0.01474574 -0.00080643
v -0.01034415 0.00985636 -0.00086524
v -0.00991138 0.01624460 -0.00120624
v -0.00988481 0.01677799 -0.00125748
v -0.00986709 0.01712118 -0.00129284
v -0.01037452 0.01208087 -0.00134841
v -0.01062886 0.01038975 -0.00157538
v -0.01087941 0.00932504 -0.00198132
v -0.01096292 0.00932504 -0.00224763
v -0.01095533 0.00949663 -0.00227144
v -0.01110338 -0.00026353 -0.00227144
v -0.01106036 -0.00026767 -0.00212891
v -0.01099962 -0.00009814 -0.00167028
v -0.01091990 0.00001557 -0.00131521
v -0.01083259 0.00014581 -0.00104314
v -0.01045044 -0.00005059 -0.00069890
v -0.01062000 0.00032774 -0.00055889
v -0.01043525 0.00047039 -0.00019408
v -0.01047575 0.00080945 -0.00014753
v -0.01048587 0.00134283 -0.00013707
v -0.01036060 0.00506828 -0.00028249
v -0.01034288 0.00560166 -0.00030558
v -0.01032137 0.00613298 -0.00033481
v -0.01029733 0.00666637 -0.00036837
v -0.00987215 0.01025537 -0.00022944
v -0.01011005 0.00985636 -0.00051090
v -0.00992277 0.01305048 -0.00068013
v -0.00989746 0.01358387 -0.00071766
v -0.00947735 0.01677799 -0.00056106
v -0.00944825 0.01730931 -0.00059894
v -0.00936979 0.01879990 -0.00071044
v -0.00979623 0.01571328 -0.00089195
v -0.00977092 0.01624460 -0.00093994
v -0.00974308 0.01677799 -0.00099154
v -0.00955834 0.01879990 -0.00104314
v -0.00959883 0.01879990 -0.00112505
v -0.00984811 0.01747677 -0.00133434
v -0.00983040 0.01784063 -0.00138089
v -0.00994555 0.01730311 -0.00153713
v -0.01006576 0.01624460 -0.00157538
v -0.01035300 0.01251916 -0.00139929
v -0.01085663 0.00985636 -0.00205458
v -0.01046056 0.01251916 -0.00166559
v -0.01040868 0.01358387 -0.00179585
v -0.01092370 0.00985636 -0.00227144
v -0.01097305 -0.00047440 -0.00227144
v -0.01087435 -0.00045373 -0.00196581
v -0.01080095 -0.00026767 -0.00152594
v -0.01041754 -0.00054883 -0.00127299
v -0.01054787 -0.00023872 -0.00107453
v -0.01026822 -0.00040618 -0.00091793
v -0.01010499 -0.00022839 -0.00053616
v -0.01029606 0.00011687 -0.00034419
v -0.01009486 0.00030914 -0.00000644
v -0.00989240 0.00050140 0.00031326
v -0.01020495 0.00080945 0.00011841
v -0.01022140 0.00134283 0.00012887
v -0.00981395 0.00560166 0.00024939
v -0.01007715 0.00560166 -0.00001655
v -0.01005564 0.00613298 -0.00003603
v -0.01003159 0.00666637 -0.00005877
v -0.00998351 0.00773108 -0.00010640
v -0.00993669 0.00879165 -0.00015547
v -0.00991391 0.00932504 -0.00018109
v -0.00989113 0.00985636 -0.00020779
v -0.00932803 0.01598825 -0.00024388
v -0.00985444 0.01061096 -0.00025145
v -0.00994808 0.01251916 -0.00064369
v -0.00946976 0.01619705 -0.00047012
v -0.00931032 0.01634384 -0.00026589
v -0.00928754 0.01677799 -0.00029512
v -0.00923313 0.01784063 -0.00037306
v -0.00918378 0.01879990 -0.00044414
v -0.00922174 0.01879990 -0.00049791
v -0.00941282 0.01879990 -0.00078369
v -0.00978104 0.01879990 -0.00150429
v -0.00990758 0.01837402 -0.00171539
v -0.00980256 0.01879990 -0.00155806
v -0.00988607 0.01879990 -0.00177059
v -0.01039476 0.01387951 -0.00183374
v -0.01084018 0.01035460 -0.00215453
v -0.01088827 0.01024089 -0.00227144
v -0.01093256 -0.00053229 -0.00227144
v -0.01065543 -0.00077831 -0.00212169
v -0.01034668 -0.00101193 -0.00192287
v -0.01050738 -0.00064393 -0.00157538
v -0.00944572 -0.00216553 -0.00227144
v -0.01006449 -0.00073490 -0.00111278
v -0.00991265 -0.00056537 -0.00072813
v -0.00994175 -0.00004852 -0.00017351
v -0.00886616 0.00050347 0.00084730
v -0.00924072 0.00080945 0.00078416
v -0.00959250 0.00080945 0.00058028
v -0.00993795 0.00080945 0.00034971
v -0.00968488 0.00014581 0.00018155
v -0.00954189 0.00030500 0.00038507
v -0.00995567 0.00134283 0.00036414
v -0.00979117 0.00613298 0.00023027
v -0.00954821 0.00560166 0.00045002
v -0.00952543 0.00613298 0.00043450
v -0.00935714 0.00985636 0.00031182
v -0.00976586 0.00666637 0.00020717
v -0.00971651 0.00773108 0.00015990
v -0.00964565 0.00932504 0.00008485
v -0.00962287 0.00985636 0.00005815
v -0.00941661 0.01411519 -0.00014501
v -0.00939130 0.01464858 -0.00017207
v -0.00936600 0.01517990 -0.00020022
v -0.00934069 0.01571328 -0.00022872
v -0.00891805 0.01879990 -0.00011001
v -0.00897246 0.01879990 -0.00017532
v -0.00991265 0.01879990 -0.00184962
v -0.01037705 0.01423510 -0.00188678
v -0.01025177 0.01624460 -0.00210762
v -0.01039729 0.01527500 -0.00227144
v -0.01044664 -0.00108635 -0.00227144
v -0.01043525 -0.00109876 -0.00227144
v -0.00930905 -0.00225856 -0.00227144
v -0.00933056 0.00000937 0.00028945
v -0.00852830 0.00045799 0.00088267
v -0.00852830 0.00080945 0.00103422
v -0.00897372 0.00080945 0.00089782
v -0.00906103 -0.00002371 0.00033130
v -0.00852830 0.00019130 0.00065353
v -0.00903320 0.00134283 0.00093246
v -0.00929893 0.00134283 0.00080545
v -0.00959250 0.00134283 0.00061637
v -0.00933942 0.01023676 0.00029774
v -0.00913822 0.00560166 0.00071596
v -0.00911418 0.00613298 0.00070080
v -0.00906103 0.00932504 0.00054492
v -0.00906103 0.00985636 0.00051317
v -0.00838911 0.01879990 0.00038615
v -0.00867509 0.01837402 0.00017722
v -0.00865484 0.01879990 0.00015629
v -0.00870799 0.01879990 0.00010253
v -0.00999743 0.01879990 -0.00210762
v -0.01032137 0.01604613 -0.00227144
v -0.00906103 -0.00232059 -0.00227144
v -0.00881681 -0.00105948 -0.00076998
v -0.00799557 0.00044972 0.00089710
v -0.00799557 0.00080945 0.00109448
v -0.00799557 0.00134283 0.00124315
v -0.00852830 0.00134283 0.00112660
v -0.00852830 -0.00007333 0.00038759
v -0.00799557 0.00018303 0.00064596
v -0.00852830 0.00187415 0.00112190
v -0.00852830 0.00240754 0.00110495
v -0.00852830 0.00347225 0.00107066
v -0.00889274 0.00506828 0.00086932
v -0.00887249 0.00560166 0.00085885
v -0.00877885 0.01624460 0.00027465
v -0.00884845 0.00613298 0.00084694
v -0.00878897 0.00740856 0.00081699
v -0.00877252 0.00773108 0.00080906
v -0.00874469 0.00826033 0.00079607
v -0.00871685 0.00879165 0.00078271
v -0.00866244 0.00985636 0.00075493
v -0.00798545 0.01879990 0.00064704
v -0.00807909 0.01879990 0.00058822
v -0.00844226 0.01879990 0.00034141
v -0.00875101 0.01677799 0.00025192
v -0.01002780 0.01879990 -0.00221479
v -0.01005690 0.01866759 -0.00227144
v -0.00852830 -0.00231852 -0.00227144
v -0.00852830 -0.00106154 -0.00076782
v -0.00761216 0.00049107 0.00086643
v -0.00744639 0.00077637 0.00099200
v -0.00746411 0.00134283 0.00125433
v -0.00747170 0.00185555 0.00133697
v -0.00799557 0.00187415 0.00126768
v -0.00799557 -0.00006713 0.00038002
v -0.00821828 -0.00105741 -0.00077143
v -0.00762734 -0.00002785 0.00033383
v -0.00799557 0.00240754 0.00125650
v -0.00799557 0.00347225 0.00122799
v -0.00799557 0.00453696 0.00119912
v -0.00799557 0.00506828 0.00118469
v -0.00799557 0.00560166 0.00116990
v -0.00799557 0.00613298 0.00115474
v -0.00799557 0.00666637 0.00113886
v -0.00799557 0.00719769 0.00112263
v -0.00799557 0.00773108 0.00110531
v -0.00852830 0.00453696 0.00103566
v -0.00852830 0.00506828 0.00101798
v -0.00852830 0.00560166 0.00099922
v -0.00852830 0.00613298 0.00097865
v -0.00847895 0.00826033 0.00091406
v -0.00769947 0.01879990 0.00080869
v -0.01004298 0.01879990 -0.00227144
v -0.01004931 0.01874201 -0.00227144
v -0.00800063 -0.00231232 -0.00227144
v -0.00725785 0.00057583 0.00079029
v -0.00744259 0.00026779 0.00056188
v -0.00693137 0.00095623 0.00090576
v -0.00693137 0.00134283 0.00112623
v -0.00693137 0.00177492 0.00130593
v -0.00693137 0.00203955 0.00136439
v -0.00730087 0.00201887 0.00136511
v -0.00759824 0.00240754 0.00133408
v -0.00768935 -0.00053436 -0.00022764
v -0.00727303 0.00004451 0.00025372
v -0.00746411 -0.00222756 -0.00227144
v -0.00733377 -0.00047027 -0.00030486
v -0.00746411 0.00613298 0.00127165
v -0.00746411 0.00666637 0.00125794
v -0.00746411 0.00719769 0.00124387
v -0.00693137 0.01879990 0.00104541
v -0.00704146 0.01879990 0.00101293
v -0.00746411 0.01624460 0.00097360
v -0.00744259 0.01879990 0.00089205
v -0.00750333 0.01879990 0.00087256
v -0.00771465 0.01850220 0.00081447
v 0.00015358 0.01879990 -0.00227144
v -0.00693137 0.00014581 0.00015413
v -0.00693137 0.00041044 0.00042115
v -0.00693137 0.00068954 0.00068709
v -0.00664793 0.00106167 0.00083215
v -0.00644167 0.00138625 0.00090793
v -0.00644420 0.00191964 0.00118866
v -0.00629615 0.00228970 0.00130052
v -0.00665172 0.00212844 0.00135573
v -0.00644420 0.00244269 0.00137377
v -0.00639864 0.00293886 0.00141022
v -0.00693137 0.00240754 0.00139109
v -0.00693137 0.00293886 0.00139975
v -0.00733250 0.00240754 0.00136944
v -0.00719711 0.00427026 0.00135176
v -0.00639864 0.01879990 0.00115582
v -0.00746411 0.00560166 0.00128392
v -0.00693137 -0.00010641 -0.00011217
v -0.00693137 -0.00060465 -0.00067797
v -0.00693137 -0.00037310 -0.00041239
v -0.00639864 -0.00170864 -0.00227144
v -0.00650620 0.01879990 0.00113453
v 0.00083309 0.01251916 -0.00227144
v 0.00011182 0.01879990 -0.00210762
v -0.00662515 -0.00001751 -0.00021176
v -0.00662515 0.00051174 0.00031759
v -0.00626957 0.00066680 0.00017398
v -0.00093340 0.00491322 -0.00034022
v -0.00074359 0.00526881 -0.00019228
v -0.00134465 0.00533704 0.00028656
v -0.00290868 0.00477677 0.00083540
v -0.00575329 0.00284583 0.00128861
v -0.00610887 0.00264529 0.00136006
v -0.00238607 0.00531430 0.00082926
v -0.00590514 0.00299055 0.00137161
v -0.00586718 0.00347225 0.00139831
v -0.00639864 0.00347225 0.00141491
v -0.00705791 0.00560166 0.00134021
v -0.00716168 0.00462585 0.00134887
v -0.00729075 0.00293886 0.00136475
v -0.00668968 0.00652165 0.00135429
v -0.00597347 0.01879990 0.00118650
v -0.00664793 -0.00053229 -0.00076277
v -0.00533444 -0.00085067 -0.00227144
v -0.00606964 -0.00004232 -0.00071766
v -0.00645938 -0.00020771 -0.00056286
v 0.00085967 0.01198577 -0.00219963
v 0.00093686 0.01145445 -0.00227144
v -0.00006407 0.01879990 -0.00157538
v -0.00627084 0.00012721 -0.00036332
v -0.00644799 0.00031948 -0.00001907
v -0.00606584 0.00048073 -0.00018109
v -0.00071702 0.00471682 -0.00069457
v -0.00055251 0.00507655 -0.00051703
v -0.00019314 0.00523987 -0.00069385
v -0.00038928 0.00548382 -0.00033950
v -0.00055758 0.00563681 -0.00011903
v -0.00105994 0.00554791 0.00019058
v -0.00122444 0.00569056 0.00035151
v -0.00559765 0.00320142 0.00135320
v -0.00206466 0.00560166 0.00073653
v -0.00233040 0.00560166 0.00084658
v -0.00267458 0.00560166 0.00095628
v -0.00320605 0.00506828 0.00103747
v -0.00551413 0.00347225 0.00136583
v -0.00503961 0.00421651 0.00135609
v -0.00532053 0.00402631 0.00137269
v -0.00586718 0.00400357 0.00140264
v -0.00586718 0.01879990 0.00119407
v 0.00005614 0.00421444 -0.00227144
v -0.00013114 0.00412968 -0.00210762
v -0.00023617 0.00422892 -0.00178467
v -0.00038169 0.00436330 -0.00142996
v -0.00073600 0.00420411 -0.00123222
v -0.00091821 0.00436330 -0.00087751
v 0.00088877 0.01145445 -0.00213793
v 0.00102923 0.01038975 -0.00227144
v -0.00022098 0.01879990 -0.00118928
v -0.00054872 0.00454109 -0.00104603
v -0.00036144 0.00488635 -0.00085947
v 0.00031681 0.00525848 -0.00123114
v 0.00016243 0.00546522 -0.00087643
v -0.00004889 0.00565128 -0.00054301
v -0.00001599 0.00507241 -0.00104530
v -0.00026021 0.00583941 -0.00023017
v -0.00089797 0.00613298 0.00023568
v -0.00116370 0.00613298 0.00038471
v -0.00160912 0.00613298 0.00059941
v -0.00427151 0.00453696 0.00123449
v -0.00513451 0.00386299 0.00134093
v -0.00203050 0.00613298 0.00076828
v -0.00229623 0.00613298 0.00085560
v -0.00320605 0.00560166 0.00109845
v -0.00373878 0.00506828 0.00118361
v -0.00267458 0.00613298 0.00096638
v -0.00503961 0.00443359 0.00135609
v -0.00427151 0.00506828 0.00127851
v -0.00528509 0.00458244 0.00136728
v -0.00533444 0.01879990 0.00118758
v -0.00544200 0.01879990 0.00118902
v 0.00018395 0.00434055 -0.00227144
v 0.00013459 0.00439017 -0.00210762
v 0.00029150 0.00476023 -0.00178503
v -0.00003750 0.00456176 -0.00160749
v -0.00019314 0.00471889 -0.00121418
v 0.00078501 0.01118569 -0.00184204
v 0.00089510 0.01097275 -0.00205458
v 0.00096596 0.01038975 -0.00210762
v 0.00111907 0.00932504 -0.00227144
v -0.00035511 0.01879990 -0.00092298
v 0.00016117 0.00490288 -0.00143032
v 0.00048131 0.00511376 -0.00163023
v 0.00079260 0.00532670 -0.00183013
v 0.00069137 0.00560166 -0.00144656
v 0.00040665 0.00562647 -0.00104963
v 0.00028138 0.00582081 -0.00074725
v 0.00030542 0.00613298 -0.00072127
v 0.00002324 0.00613298 -0.00045497
v -0.00024249 0.00613298 -0.00021537
v -0.00054492 0.00613298 -0.00000067
v -0.00054492 0.00666637 -0.00000428
v -0.00090556 0.00666637 0.00023243
v -0.00117129 0.00666637 0.00038182
v -0.00217981 0.01879990 0.00071560
v -0.00226080 0.01879990 0.00074663
v -0.00243542 0.01879990 0.00081194
v -0.00373878 0.00560166 0.00119840
v -0.00320605 0.00613298 0.00109556
v -0.00266066 0.01879990 0.00087220
v -0.00480298 0.00506828 0.00133011
v -0.00480298 0.01879990 0.00115979
v -0.00491054 0.01879990 0.00116557
v -0.00331361 0.01879990 0.00099886
v -0.00373878 0.01879990 0.00105479
v -0.00427151 0.00560166 0.00127238
v 0.00030542 0.00446873 -0.00227144
v 0.00038767 0.00465686 -0.00210762
v 0.00065467 0.00496284 -0.00210762
v 0.00066986 0.01097275 -0.00161399
v 0.00079893 0.01083010 -0.00181714
v 0.00081664 0.01038975 -0.00178719
v 0.00122030 0.00666637 -0.00204267
v 0.00127725 0.00737549 -0.00227144
v 0.00126206 0.00757189 -0.00227144
v 0.00105074 0.00932504 -0.00210762
v 0.00100898 0.00985636 -0.00210762
v -0.00062338 0.01879990 -0.00050007
v 0.00035477 0.01145445 -0.00116727
v 0.00065847 0.01038975 -0.00152089
v 0.00086599 0.00522953 -0.00210762
v 0.00098494 0.00529362 -0.00227144
v 0.00116210 0.00557892 -0.00227144
v 0.00112666 0.00562854 -0.00213432
v 0.00087232 0.00560166 -0.00171250
v 0.00077362 0.00597379 -0.00132604
v 0.00060785 0.00614332 -0.00109005
v 0.00079260 0.00632732 -0.00129861
v 0.00030669 0.00666637 -0.00072019
v 0.00002451 0.00666637 -0.00045425
v -0.00024249 0.00666637 -0.00021573
v -0.00135604 0.01879990 0.00027898
v -0.00137629 0.01879990 0.00029161
v -0.00158255 0.01879990 0.00041754
v -0.00320605 0.01879990 0.00098370
v -0.00278214 0.01879990 0.00089710
v -0.00427151 0.01879990 0.00111360
v -0.00437907 0.01879990 0.00112335
v -0.00384634 0.01879990 0.00106778
v 0.00055850 0.00474576 -0.00227144
v 0.00069896 0.00490909 -0.00227144
v 0.00083689 0.00985636 -0.00175255
v 0.00093432 0.00719769 -0.00160064
v 0.00092547 0.00667671 -0.00152667
v 0.00122284 0.00613298 -0.00203112
v 0.00134178 0.00613298 -0.00227144
v 0.00133039 0.00666637 -0.00227144
v 0.00085587 0.00932504 -0.00172080
v -0.00080686 0.01879990 -0.00023919
v 0.00078121 0.00686071 -0.00131666
v 0.00069390 0.00932504 -0.00145450
v 0.00067618 0.00985636 -0.00148661
v 0.00074958 0.00773108 -0.00136357
v 0.00089889 0.00517165 -0.00227144
v 0.00081032 0.00504967 -0.00227144
v 0.00127598 0.00576706 -0.00227144
v 0.00092673 0.00614332 -0.00153244
v 0.00079260 0.00650511 -0.00129861
v 0.00061291 0.00667671 -0.00109005
v -0.00085241 0.01879990 -0.00019480
v -0.00110170 0.01879990 0.00004371
f 1 2 3
f 1 3 4
f 1 4 5
f 1 5 8
f 1 8 17
f 1 17 49
f 1 49 48
f 1 48 47
f 1 47 46
f 1 46 81
f 1 81 116
f 1 116 153
f 1 153 186
f 1 186 209
f 1 209 235
f 1 235 262
f 1 262 261
f 1 261 285
f 1 285 307
f 1 307 332
f 1 332 361
f 1 361 393
f 1 393 428
f 1 428 427
f 1 427 460
f 1 460 459
f 1 459 469
f 1 469 436
f 1 436 435
f 1 435 467
f 1 467 468
f 1 468 454
f 1 454 453
f 1 453 420
f 1 420 385
f 1 385 354
f 1 354 328
f 1 328 305
f 1 305 274
f 1 274 263
f 1 263 236
f 1 236 210
f 1 210 189
f 1 189 158
f 1 158 188
f 1 188 187
f 1 187 154
f 1 154 117
f 1 117 82
f 1 82 50
f 1 50 18
f 1 18 6
f 1 6 7
f 1 7 2
f 2 8 3
f 2 7 9
f 2 9 10
f 2 10 11
f 2 11 12
f 2 12 13
f 2 13 14
f 2 14 15
f 2 15 16
f 2 16 17
f 2 17 8
f 3 8 4
f 4 8 5
f 6 18 19
f 6 19 20
f 6 20 21
f 6 21 7
f 7 21 20
f 7 20 22
f 7 22 23
f 7 23 9
f 9 23 24
f 9 24 25
f 9 25 26
f 9 26 27
f 9 27 28
f 9 28 29
f 9 29 30
f 9 30 31
f 9 31 10
f 10 31 32
f 10 32 33
f 10 33 34
f 10 34 35
f 10 35 11
f 11 35 36
f 11 36 12
f 12 37 38
f 12 38 14
f 12 14 13
f 12 36 39
f 12 39 40
f 12 40 41
f 12 41 42
f 12 42 43
f 12 43 44
f 12 44 37
f 14 38 15
f 15 38 45
f 15 45 46
f 15 46 47
f 15 47 48
f 15 48 49
f 15 49 17
f 15 17 16
f 18 50 51
f 18 51 19
f 19 51 52
f 19 52 20
f 20 52 53
f 20 53 54
f 20 54 22
f 22 54 23
f 23 54 24
f 24 54 55
f 24 55 56
f 24 56 25
f 25 56 26
f 26 56 57
f 26 57 58
f 26 58 27
f 27 58 28
f 28 58 29
f 29 59 32
f 29 32 31
f 29 31 30
f 29 58 59
f 32 59 60
f 32 60 33
f 33 60 34
f 34 60 35
f 35 60 61
f 35 61 36
f 36 62 63
f 36 63 64
f 36 64 65
f 36 65 39
f 36 61 62
f 37 66 67
f 37 67 68
f 37 68 38
f 37 44 69
f 37 69 70
f 37 70 66
f 38 68 45
f 39 65 40
f 40 71 41
f 40 65 71
f 41 71 72
f 41 72 73
f 41 73 43
f 41 43 42
f 43 73 74
f 43 74 44
f 44 74 75
f 44 75 76
f 44 76 77
f 44 77 78
f 44 78 69
f 45 68 67
f 45 67 79
f 45 79 80
f 45 80 81
f 45 81 46
f 50 82 83
f 50 83 51
f 51 83 84
f 51 84 52
f 52 84 85
f 52 85 53
f 53 85 54
f 54 85 86
f 54 86 87
f 54 87 88
f 54 88 89
f 54 89 90
f 54 90 55
f 55 90 91
f 55 91 56
f 56 91 92
f 56 92 93
f 56 93 57
f 57 93 58
f 58 93 94
f 58 94 62
f 58 62 61
f 58 61 60
f 58 60 59
f 62 94 63
f 63 94 64
f 64 94 95
f 64 95 96
f 64 96 97
f 64 97 65
f 65 97 98
f 65 98 99
f 65 99 71
f 66 70 67
f 67 70 79
f 69 78 79
f 69 79 70
f 71 99 100
f 71 100 101
f 71 101 102
f 71 102 72
f 72 102 103
f 72 103 73
f 73 103 104
f 73 104 74
f 74 104 75
f 75 104 105
f 75 105 106
f 75 106 76
f 76 106 107
f 76 107 108
f 76 108 109
f 76 109 110
f 76 110 111
f 76 111 112
f 76 112 77
f 77 112 78
f 78 113 79
f 78 112 114
f 78 114 115
f 78 115 113
f 79 113 80
f 80 113 81
f 81 113 116
f 82 117 83
f 83 117 118
f 83 118 84
f 84 118 85
f 85 118 119
f 85 119 120
f 85 120 121
f 85 121 87
f 85 87 86
f 87 121 120
f 87 120 122
f 87 122 123
f 87 123 124
f 87 124 88
f 88 124 89
f 89 124 125
f 89 125 126
f 89 126 127
f 89 127 90
f 90 127 128
f 90 128 91
f 91 128 129
f 91 129 130
f 91 130 92
f 92 130 93
f 93 130 131
f 93 131 132
f 93 132 133
f 93 133 134
f 93 134 135
f 93 135 136
f 93 136 94
f 94 136 96
f 94 96 95
f 96 136 137
f 96 137 141
f 96 141 138
f 96 138 97
f 97 138 139
f 97 139 98
f 98 139 138
f 98 138 140
f 98 140 99
f 99 140 100
f 100 140 141
f 100 141 142
f 100 142 143
f 100 143 144
f 100 144 145
f 100 145 101
f 101 145 102
f 102 145 144
f 102 144 182
f 102 182 181
f 102 181 207
f 102 207 206
f 102 206 232
f 102 232 204
f 102 204 231
f 102 231 230
f 102 230 260
f 102 260 283
f 102 283 282
f 102 282 280
f 102 280 279
f 102 279 306
f 102 306 300
f 102 300 326
f 102 326 353
f 102 353 384
f 102 384 383
f 102 383 416
f 102 416 415
f 102 415 451
f 102 451 450
f 102 450 452
f 102 452 418
f 102 418 417
f 102 417 448
f 102 448 449
f 102 449 413
f 102 413 410
f 102 410 409
f 102 409 408
f 102 408 447
f 102 447 446
f 102 446 445
f 102 445 474
f 102 474 473
f 102 473 462
f 102 462 431
f 102 431 394
f 102 394 362
f 102 362 333
f 102 333 308
f 102 308 285
f 102 285 261
f 102 261 234
f 102 234 208
f 102 208 183
f 102 183 150
f 102 150 149
f 102 149 147
f 102 147 107
f 102 107 106
f 102 106 146
f 102 146 104
f 102 104 103
f 104 146 106
f 104 106 105
f 107 147 109
f 107 109 108
f 109 148 110
f 109 147 149
f 109 149 150
f 109 150 148
f 110 148 111
f 111 148 150
f 111 150 151
f 111 151 115
f 111 115 114
f 111 114 112
f 113 152 153
f 113 153 116
f 113 115 151
f 113 151 152
f 117 154 118
f 118 154 155
f 118 155 156
f 118 156 157
f 118 157 119
f 119 157 120
f 120 157 158
f 120 158 159
f 120 159 122
f 122 159 160
f 122 160 123
f 123 161 124
f 123 160 161
f 124 161 125
f 125 161 126
f 126 162 163
f 126 163 164
f 126 164 165
f 126 165 127
f 126 161 166
f 126 166 167
f 126 167 162
f 127 165 168
f 127 168 128
f 128 168 129
f 129 169 131
f 129 131 130
f 129 168 170
f 129 170 171
f 129 171 172
f 129 172 169
f 131 169 132
f 132 169 133
f 133 169 134
f 134 169 173
f 134 173 174
f 134 174 135
f 135 175 176
f 135 176 136
f 135 174 175
f 136 176 177
f 136 177 178
f 136 178 179
f 136 179 180
f 136 180 137
f 137 180 181
f 137 181 141
f 138 141 140
f 141 181 182
f 141 182 142
f 142 182 143
f 143 182 144
f 150 183 151
f 151 184 152
f 151 183 185
f 151 185 184
f 152 184 185
f 152 185 153
f 153 185 186
f 154 187 155
f 155 187 156
f 156 187 188
f 156 188 158
f 156 158 157
f 158 189 160
f 158 160 159
f 160 189 190
f 160 190 161
f 161 190 166
f 162 191 192
f 162 192 193
f 162 193 163
f 162 167 190
f 162 190 194
f 162 194 195
f 162 195 191
f 163 193 196
f 163 196 197
f 163 197 164
f 164 197 198
f 164 198 165
f 165 198 168
f 166 190 167
f 168 198 170
f 169 172 199
f 169 199 173
f 170 200 171
f 170 198 200
f 171 200 201
f 171 201 202
f 171 202 203
f 171 203 172
f 172 203 204
f 172 204 199
f 173 199 174
f 174 199 175
f 175 199 176
f 176 199 205
f 176 205 177
f 177 205 206
f 177 206 178
f 178 206 207
f 178 207 181
f 178 181 179
f 179 181 180
f 183 208 185
f 185 208 209
f 185 209 186
f 189 210 211
f 189 211 194
f 189 194 190
f 191 212 213
f 191 213 192
f 191 195 212
f 192 213 214
f 192 214 215
f 192 215 193
f 193 215 196
f 194 216 195
f 194 211 216
f 195 216 217
f 195 217 212
f 196 215 218
f 196 218 219
f 196 219 220
f 196 220 221
f 196 221 197
f 197 221 222
f 197 222 200
f 197 200 198
f 199 204 223
f 199 223 205
f 200 222 224
f 200 224 225
f 200 225 226
f 200 226 201
f 201 226 227
f 201 227 228
f 201 228 229
f 201 229 230
f 201 230 202
f 202 230 203
f 203 230 231
f 203 231 204
f 204 232 223
f 205 223 233
f 205 233 232
f 205 232 206
f 208 234 209
f 209 234 235
f 210 236 237
f 210 237 211
f 211 237 216
f 212 238 213
f 212 217 238
f 213 238 239
f 213 239 240
f 213 240 214
f 214 240 241
f 214 241 242
f 214 242 215
f 215 242 218
f 216 243 217
f 216 237 244
f 216 244 243
f 217 243 245
f 217 245 238
f 218 242 246
f 218 246 247
f 218 247 248
f 218 248 249
f 218 249 250
f 218 250 251
f 218 251 252
f 218 252 253
f 218 253 219
f 219 253 220
f 220 253 254
f 220 254 255
f 220 255 221
f 221 255 256
f 221 256 222
f 222 256 257
f 222 257 258
f 222 258 259
f 222 259 260
f 222 260 224
f 223 232 233
f 224 260 225
f 225 260 226
f 226 260 227
f 227 260 228
f 228 260 230
f 228 230 229
f 234 261 262
f 234 262 235
f 236 263 237
f 237 263 244
f 238 264 239
f 238 245 265
f 238 265 264
f 239 266 267
f 239 267 240
f 239 264 266
f 240 267 268
f 240 268 269
f 240 269 270
f 240 270 241
f 241 270 242
f 242 270 271
f 242 271 246
f 243 244 263
f 243 263 272
f 243 272 245
f 245 273 265
f 245 272 274
f 245 274 275
f 245 275 273
f 246 271 276
f 246 276 277
f 246 277 278
f 246 278 247
f 247 278 248
f 248 278 249
f 249 278 279
f 249 279 250
f 250 279 251
f 251 279 252
f 252 279 253
f 253 279 254
f 254 257 256
f 254 256 255
f 254 279 280
f 254 280 281
f 254 281 282
f 254 282 283
f 254 283 284
f 254 284 257
f 257 284 258
f 258 284 259
f 259 284 260
f 260 284 283
f 263 274 272
f 264 265 273
f 264 273 286
f 264 286 287
f 264 287 288
f 264 288 289
f 264 289 266
f 266 289 267
f 267 289 290
f 267 290 291
f 267 291 292
f 267 292 268
f 268 292 293
f 268 293 269
f 269 293 294
f 269 294 295
f 269 295 296
f 269 296 270
f 270 296 297
f 270 297 298
f 270 298 271
f 271 298 299
f 271 299 300
f 271 300 301
f 271 301 276
f 273 302 286
f 273 275 303
f 273 303 304
f 273 304 302
f 274 305 303
f 274 303 275
f 276 301 300
f 276 300 277
f 277 300 306
f 277 306 278
f 278 306 279
f 280 282 281
f 285 308 307
f 286 302 309
f 286 309 287
f 287 310 288
f 287 309 310
f 288 310 289
f 289 310 311
f 289 311 312
f 289 312 313
f 289 313 314
f 289 314 290
f 290 314 315
f 290 315 291
f 291 315 292
f 292 316 317
f 292 317 293
f 292 315 318
f 292 318 316
f 293 317 294
f 294 317 319
f 294 319 295
f 295 297 296
f 295 319 320
f 295 320 321
f 295 321 297
f 297 322 323
f 297 323 299
f 297 299 324
f 297 324 298
f 297 321 325
f 297 325 300
f 297 300 322
f 298 324 299
f 299 323 300
f 300 323 322
f 300 325 326
f 302 304 327
f 302 327 309
f 303 327 304
f 303 305 327
f 305 328 329
f 305 329 330
f 305 330 309
f 305 309 327
f 307 331 332
f 307 308 333
f 307 333 331
f 309 330 329
f 309 329 334
f 309 334 335
f 309 335 310
f 310 335 311
f 311 335 336
f 311 336 337
f 311 337 312
f 312 337 338
f 312 338 313
f 313 338 339
f 313 339 340
f 313 340 341
f 313 341 314
f 314 341 342
f 314 342 343
f 314 343 318
f 314 318 315
f 316 318 317
f 317 318 344
f 317 344 319
f 318 343 345
f 318 345 346
f 318 346 347
f 318 347 348
f 318 348 344
f 319 344 349
f 319 349 320
f 320 349 350
f 320 350 351
f 320 351 352
f 320 352 321
f 321 352 353
f 321 353 325
f 325 353 326
f 328 354 355
f 328 355 356
f 328 356 357
f 328 357 358
f 328 358 359
f 328 359 329
f 329 336 334
f 329 359 337
f 329 337 336
f 331 360 332
f 331 333 360
f 332 360 361
f 333 362 360
f 334 336 335
f 337 359 363
f 337 363 364
f 337 364 338
f 338 364 339
f 339 365 366
f 339 366 367
f 339 367 340
f 339 364 368
f 339 368 365
f 340 367 369
f 340 369 341
f 341 369 342
f 342 369 343
f 343 369 370
f 343 370 371
f 343 371 372
f 343 372 345
f 344 348 373
f 344 373 374
f 344 374 349
f 345 372 346
f 346 372 375
f 346 375 376
f 346 376 347
f 347 377 378
f 347 378 348
f 347 376 379
f 347 379 377
f 348 378 373
f 349 374 350
f 350 380 351
f 350 374 378
f 350 378 381
f 350 381 380
f 351 380 352
f 352 380 382
f 352 382 383
f 352 383 384
f 352 384 353
f 354 385 386
f 354 386 355
f 355 386 356
f 356 386 387
f 356 387 388
f 356 388 357
f 357 388 389
f 357 389 358
f 358 389 363
f 358 363 359
f 360 390 391
f 360 391 392
f 360 392 393
f 360 393 361
f 360 362 390
f 362 394 390
f 363 389 364
f 364 389 368
f 365 368 389
f 365 389 395
f 365 395 396
f 365 396 397
f 365 397 398
f 365 398 399
f 365 399 366
f 366 399 400
f 366 400 367
f 367 400 369
f 369 400 401
f 369 401 402
f 369 402 403
f 369 403 404
f 369 404 370
f 370 404 405
f 370 405 406
f 370 406 407
f 370 407 371
f 371 407 372
f 372 407 408
f 372 408 375
f 373 378 374
f 375 408 409
f 375 409 410
f 375 410 376
f 376 410 379
f 377 411 378
f 377 379 412
f 377 412 411
f 378 411 381
f 379 410 413
f 379 413 412
f 380 381 414
f 380 414 415
f 380 415 416
f 380 416 382
f 381 411 417
f 381 417 418
f 381 418 419
f 381 419 414
f 382 416 383
f 385 420 421
f 385 421 386
f 386 421 387
f 387 421 422
f 387 422 397
f 387 397 396
f 387 396 395
f 387 395 388
f 388 395 389
f 390 423 424
f 390 424 425
f 390 425 426
f 390 426 427
f 390 427 428
f 390 428 429
f 390 429 430
f 390 430 392
f 390 392 391
f 390 394 423
f 392 430 428
f 392 428 393
f 394 431 432
f 394 432 433
f 394 433 423
f 397 422 434
f 397 434 435
f 397 435 436
f 397 436 437
f 397 437 438
f 397 438 398
f 398 438 439
f 398 439 400
f 398 400 399
f 400 439 440
f 400 440 401
f 401 440 441
f 401 441 442
f 401 442 402
f 402 442 443
f 402 443 403
f 403 443 444
f 403 444 404
f 404 444 405
f 405 444 445
f 405 445 406
f 406 445 446
f 406 446 447
f 406 447 407
f 407 447 408
f 411 412 448
f 411 448 417
f 412 413 449
f 412 449 448
f 414 419 450
f 414 450 451
f 414 451 415
f 418 452 419
f 419 452 450
f 420 453 421
f 421 453 422
f 422 454 434
f 422 453 454
f 423 433 455
f 423 455 425
f 423 425 424
f 425 455 426
f 426 456 457
f 426 457 458
f 426 458 459
f 426 459 460
f 426 460 427
f 426 455 461
f 426 461 456
f 428 430 429
f 431 462 463
f 431 463 432
f 432 464 465
f 432 465 433
f 432 463 466
f 432 466 464
f 433 465 455
f 434 467 435
f 434 454 468
f 434 468 467
f 436 469 437
f 437 469 438
f 438 469 439
f 439 469 458
f 439 458 470
f 439 470 441
f 439 441 440
f 441 471 442
f 441 470 458
f 441 458 471
f 442 471 472
f 442 472 462
f 442 462 473
f 442 473 474
f 442 474 443
f 443 474 445
f 443 445 444
f 455 465 461
f 456 461 465
f 456 465 464
f 456 464 457
f 457 463 471
f 457 471 458
f 457 464 466
f 457 466 463
f 458 469 459
f 462 472 471
f 462 471 463

