# https://github.com/mikedh/trimesh
v 0.00070428 0.00325166 -0.00379773
v 0.00067592 0.00325166 -0.00423016
v 0.00064757 0.00325166 -0.00333589
v 0.00105204 0.00307713 -0.00317254
v 0.00105204 0.00308942 -0.00370477
v 0.00157145 0.00283131 -0.00423669
v 0.00065652 0.00325166 -0.00434421
v 0.00058339 0.00325166 -0.00317254
v 0.00148787 0.00278214 -0.00276981
v 0.00157443 0.00283622 -0.00317254
v 0.00035950 0.00325166 -0.00286069
v 0.00157443 0.00283622 -0.00370477
v 0.00183712 0.00266046 -0.00423669
v 0.00148488 0.00277353 -0.00458270
v 0.00044458 0.00325166 -0.00468190
v 0.00102966 0.00284114 -0.00261151
v 0.00083712 0.00268873 -0.00236203
v 0.00119234 0.00257319 -0.00241519
v 0.00186399 0.00215037 -0.00236707
v 0.00207145 0.00226714 -0.00267239
v 0.00240727 0.00216881 -0.00287138
v 0.00184010 0.00266537 -0.00317254
v -0.00002109 0.00325166 -0.00266229
v 0.00184010 0.00266537 -0.00370477
v 0.00211622 0.00244290 -0.00370477
v 0.00211622 0.00243553 -0.00423669
v 0.00240428 0.00216635 -0.00452716
v 0.00211622 0.00228435 -0.00458121
v -0.00163901 0.00325166 -0.00529164
v 0.00019234 0.00325166 -0.00475852
v 0.00158339 0.00220691 -0.00235222
v -0.00053154 0.00325166 -0.00251201
v -0.00152408 0.00325166 -0.00227174
v 0.00158339 0.00187382 -0.00231896
v 0.00195652 0.00187382 -0.00235222
v 0.00243115 0.00120395 -0.00235193
v 0.00233414 0.00155917 -0.00238579
v 0.00222369 0.00187382 -0.00248974
v 0.00241921 0.00218356 -0.00317254
v 0.00211622 0.00244290 -0.00317254
v 0.00251025 0.00187382 -0.00275585
v 0.00296846 0.00119658 -0.00282267
v 0.00286996 0.00152352 -0.00317254
v 0.00264011 0.00187382 -0.00317254
v 0.00241921 0.00218356 -0.00370477
v 0.00241622 0.00218110 -0.00423669
v 0.00262966 0.00187382 -0.00423669
v 0.00286100 0.00151984 -0.00423669
v 0.00296548 0.00119166 -0.00455983
v 0.00249981 0.00187382 -0.00458121
v 0.00211622 0.00187382 -0.00470091
v -0.00170169 0.00325166 -0.00530560
v -0.00145841 0.00286203 -0.00227174
v 0.00211622 0.00080818 -0.00230738
v -0.01145992 0.00325166 -0.00227174
v 0.00214010 0.00136497 -0.00233411
v 0.00247742 0.00080818 -0.00234064
v 0.00279831 0.00027597 -0.00241638
v 0.00274309 0.00080818 -0.00247637
v 0.00265802 0.00137726 -0.00260438
v 0.00264160 0.00187382 -0.00370477
v 0.00299384 0.00125681 -0.00317254
v 0.00302518 0.00080818 -0.00274248
v 0.00313712 0.00080818 -0.00317254
v 0.00287145 0.00152352 -0.00370477
v 0.00299235 0.00125312 -0.00423669
v 0.00267593 0.00135759 -0.00463289
v 0.00312966 0.00080818 -0.00423669
v 0.00301772 0.00080818 -0.00460527
v 0.00264906 0.00080818 -0.00472496
v 0.00264906 0.00027597 -0.00474219
v 0.00264906 -0.00025624 -0.00474219
v 0.00264906 -0.00078845 -0.00473179
v -0.00107781 -0.00717494 -0.00474249
v -0.00160916 -0.00770714 -0.00474249
v -0.00214199 -0.00823935 -0.00474249
v -0.00580618 -0.00034351 -0.00530560
v -0.01186141 0.00325166 -0.00530560
v -0.00161065 0.00267644 -0.00227174
v -0.00107781 -0.00664150 -0.00230738
v 0.00211622 -0.00078845 -0.00230738
v 0.00253264 0.00027597 -0.00234064
v -0.01147335 0.00325166 -0.00230946
v -0.01148678 0.00293824 -0.00228184
v -0.01148977 0.00284237 -0.00227174
v 0.00279981 -0.00025624 -0.00241608
v 0.00307443 0.00027597 -0.00268279
v 0.00299384 0.00125681 -0.00370477
v 0.00323712 0.00027597 -0.00317254
v 0.00323861 0.00027597 -0.00370477
v 0.00313712 0.00080818 -0.00370477
v 0.00321921 0.00027597 -0.00423669
v 0.00305802 0.00027597 -0.00462250
v 0.00305652 -0.00025624 -0.00462250
v 0.00302667 -0.00078845 -0.00461210
v 0.00297742 -0.00117562 -0.00456904
v 0.00267443 -0.00134032 -0.00463824
v -0.00107781 -0.00770714 -0.00470714
v -0.00160916 -0.00823935 -0.00469883
v -0.00267483 -0.00877156 -0.00470685
v -0.00320617 -0.00877156 -0.00473803
v -0.00699125 -0.00115841 -0.00530560
v -0.00672260 -0.00102198 -0.00530560
v -0.00639872 -0.00080688 -0.00530560
v -0.00607334 -0.00057212 -0.00530560
v -0.01200619 0.00136988 -0.00530560
v -0.01186141 0.00325166 -0.00530144
v -0.00267483 -0.00823935 -0.00230738
v -0.00160916 -0.00717494 -0.00230738
v -0.00533454 -0.00085236 -0.00227174
v -0.00160916 -0.00770714 -0.00231837
v -0.00104050 -0.00721181 -0.00233411
v 0.00215205 -0.00135630 -0.00233411
v 0.00243712 -0.00120266 -0.00235193
v 0.00248190 -0.00078845 -0.00234064
v 0.00253264 -0.00025624 -0.00234064
v -0.01147484 0.00325166 -0.00231480
v -0.01168529 0.00134161 -0.00264032
v -0.01155992 0.00175583 -0.00227174
v 0.00274757 -0.00078845 -0.00246419
v 0.00303414 -0.00078845 -0.00273031
v 0.00307443 -0.00025624 -0.00268219
v 0.00323563 -0.00025624 -0.00317254
v 0.00323712 -0.00025624 -0.00370477
v 0.00321772 -0.00025624 -0.00423669
v 0.00314608 -0.00078845 -0.00423669
v 0.00301026 -0.00123953 -0.00423669
v -0.00078080 -0.00800705 -0.00453548
v -0.00070020 -0.00770714 -0.00458715
v -0.00111662 -0.00820617 -0.00458329
v -0.00160916 -0.00861177 -0.00457884
v -0.00214945 -0.00879000 -0.00462042
v -0.00267483 -0.00911817 -0.00458715
v -0.00320617 -0.00915504 -0.00461804
v -0.00373901 -0.00915750 -0.00461953
v -0.00373901 -0.00877156 -0.00473952
v -0.00905991 -0.00172135 -0.00530560
v -0.00852857 -0.00167955 -0.00530560
v -0.00820618 -0.00162056 -0.00530560
v -0.00746290 -0.00133909 -0.00530560
v -0.01200917 0.00089053 -0.00530560
v -0.01200619 0.00136743 -0.00530382
v -0.01199873 0.00121010 -0.00476922
v -0.01184201 0.00325166 -0.00476922
v -0.00320617 -0.00860686 -0.00234064
v -0.00267483 -0.00858473 -0.00234064
v -0.00227931 -0.00854663 -0.00235193
v -0.00211811 -0.00826270 -0.00233411
v -0.00639872 -0.00170905 -0.00227174
v -0.00746290 -0.00223020 -0.00227174
v -0.00800021 -0.00231255 -0.00227174
v -0.00852857 -0.00232115 -0.00227174
v -0.00427185 -0.00823935 -0.00230738
v -0.00373901 -0.00860931 -0.00234064
v -0.00160916 -0.00808079 -0.00235193
v -0.00132856 -0.00798738 -0.00236648
v -0.00121960 -0.00770714 -0.00235193
v -0.00076886 -0.00705940 -0.00235193
v 0.00235354 -0.00155664 -0.00238044
v -0.00083751 -0.00741338 -0.00237985
v -0.01150917 0.00325166 -0.00246241
v -0.01179873 0.00134161 -0.00317254
v -0.01167186 0.00080818 -0.00264032
v -0.01157484 0.00081924 -0.00227174
v -0.01158529 0.00134161 -0.00227174
v -0.01154798 0.00325166 -0.00264032
v 0.00298040 -0.00118053 -0.00280693
v 0.00315354 -0.00078845 -0.00317254
v 0.00315354 -0.00078845 -0.00370477
v 0.00301324 -0.00124322 -0.00370477
v 0.00286996 -0.00150871 -0.00370477
v -0.00055094 -0.00770714 -0.00370477
v -0.00057184 -0.00770714 -0.00423669
v -0.00076289 -0.00802671 -0.00423669
v -0.00103751 -0.00829343 -0.00423669
v -0.00132110 -0.00852696 -0.00452449
v -0.00233304 -0.00906778 -0.00453874
v -0.00267483 -0.00920544 -0.00423669
v -0.00320617 -0.00928287 -0.00423669
v -0.00373901 -0.00929025 -0.00423669
v -0.00427185 -0.00911817 -0.00458537
v -0.00427185 -0.00877156 -0.00470536
v -0.00999424 -0.00165129 -0.00530560
v -0.00959275 -0.00172749 -0.00530560
v -0.01197783 0.00062627 -0.00530560
v -0.01199873 0.00099869 -0.00476922
v -0.01199126 0.00112160 -0.00446954
v -0.01180470 0.00325166 -0.00423669
v -0.00320617 -0.00887235 -0.00245380
v -0.00267483 -0.00885145 -0.00250993
v -0.00212707 -0.00876910 -0.00261893
v -0.00192557 -0.00845568 -0.00238608
v -0.00905991 -0.00232115 -0.00227174
v -0.00930917 -0.00226093 -0.00227174
v -0.00586737 -0.00717494 -0.00230738
v -0.00533454 -0.00770714 -0.00231064
v -0.00481961 -0.00825656 -0.00233411
v -0.00465394 -0.00854909 -0.00235193
v -0.00427185 -0.00858965 -0.00234064
v -0.00373901 -0.00887603 -0.00245617
v -0.00130766 -0.00853680 -0.00286336
v -0.00114050 -0.00817667 -0.00268457
v -0.00077632 -0.00801074 -0.00286039
v -0.00095393 -0.00770714 -0.00247667
v -0.00160916 -0.00834628 -0.00248409
v -0.00068080 -0.00770714 -0.00274308
v -0.01178529 0.00080818 -0.00317254
v -0.01167783 0.00293824 -0.00317254
v -0.01174499 0.00325166 -0.00370477
v -0.01184798 0.00187382 -0.00370477
v -0.01188678 0.00134161 -0.00370477
v -0.01150320 0.00043944 -0.00227174
v -0.01165395 0.00325166 -0.00317254
v -0.00033453 -0.00732120 -0.00317254
v 0.00286846 -0.00150871 -0.00317254
v 0.00301324 -0.00124322 -0.00317254
v -0.00054796 -0.00770714 -0.00317254
v -0.00075990 -0.00803040 -0.00370477
v -0.00103005 -0.00829589 -0.00370477
v -0.00129572 -0.00854786 -0.00370477
v -0.00130468 -0.00854171 -0.00423669
v -0.00160916 -0.00873714 -0.00423669
v -0.00202259 -0.00896576 -0.00423669
v -0.00228826 -0.00908498 -0.00423669
v -0.00267483 -0.00921281 -0.00370477
v -0.00320617 -0.00929516 -0.00370477
v -0.00373901 -0.00930500 -0.00370477
v -0.00427185 -0.00923002 -0.00370477
v -0.00427185 -0.00921158 -0.00423669
v -0.00460767 -0.00906286 -0.00453488
v -0.00533454 -0.00862038 -0.00458834
v -0.00479125 -0.00879122 -0.00461804
v -0.00533454 -0.00823935 -0.00470833
v -0.01025842 -0.00152223 -0.00530560
v -0.01195843 0.00073320 -0.00476922
v -0.01199126 0.00105277 -0.00446954
v -0.01197634 0.00062258 -0.00530560
v -0.01175395 0.00027597 -0.00423669
v -0.01170470 0.00027597 -0.00370477
v -0.01195544 0.00131580 -0.00426996
v -0.01182858 0.00293824 -0.00423669
v -0.00320617 -0.00916488 -0.00272021
v -0.00267483 -0.00912309 -0.00277604
v -0.00160916 -0.00862775 -0.00275021
v -0.00233005 -0.00907269 -0.00285178
v -0.00944499 -0.00216751 -0.00227174
v -0.00693155 -0.00610929 -0.00230738
v -0.00692707 -0.00663781 -0.00233411
v -0.00638528 -0.00716142 -0.00233411
v -0.00584200 -0.00768748 -0.00233678
v -0.00533454 -0.00808202 -0.00234391
v -0.00564797 -0.00800090 -0.00235609
v -0.00500916 -0.00844584 -0.00240450
v -0.00416588 -0.00911203 -0.00279030
v -0.00373901 -0.00916119 -0.00272229
v -0.00129124 -0.00855155 -0.00317254
v -0.00102557 -0.00829712 -0.00317254
v -0.00202110 -0.00897190 -0.00317254
v -0.00160916 -0.00875189 -0.00317254
v -0.00075841 -0.00803040 -0.00317254
v -0.01154798 0.00034234 -0.00264032
v -0.01187335 0.00080818 -0.00370477
v -0.01142111 0.00007685 -0.00264032
v -0.01138081 0.00020591 -0.00227174
v -0.00160916 -0.00875435 -0.00370477
v -0.00201513 -0.00897805 -0.00370477
v -0.00228229 -0.00908990 -0.00370477
v -0.00228677 -0.00909113 -0.00317254
v -0.00267483 -0.00921158 -0.00317254
v -0.00320617 -0.00929516 -0.00317254
v -0.00373901 -0.00929639 -0.00317254
v -0.00431364 -0.00915996 -0.00313482
v -0.00463006 -0.00908007 -0.00328718
v -0.00467931 -0.00909728 -0.00370477
v -0.00466289 -0.00908498 -0.00423669
v -0.00492856 -0.00897190 -0.00423669
v -0.00564648 -0.00853680 -0.00453696
v -0.00584051 -0.00823566 -0.00461418
v -0.00641364 -0.00772435 -0.00464091
v -0.00586737 -0.00770714 -0.00473625
v -0.01026290 -0.00151977 -0.00530560
v -0.01193902 0.00084874 -0.00426996
v -0.01181962 0.00027720 -0.00530560
v -0.01181962 0.00027597 -0.00530144
v -0.01178828 0.00027597 -0.00476922
v -0.00891215 -0.00508421 -0.00373684
v -0.00922708 -0.00447211 -0.00367566
v -0.01148380 -0.00003254 -0.00327352
v -0.01145395 0.00001417 -0.00291860
v -0.01159126 0.00022558 -0.00312680
v -0.00932409 -0.00423981 -0.00347875
v -0.00746290 -0.00557708 -0.00230797
v -0.01043604 -0.00109941 -0.00227174
v -0.00744499 -0.00609085 -0.00233440
v -0.00725543 -0.00645713 -0.00235193
v -0.00674499 -0.00697459 -0.00235193
v -0.00620021 -0.00749696 -0.00235193
v -0.00710021 -0.00681112 -0.00245439
v -0.00655394 -0.00732980 -0.00248766
v -0.00600319 -0.00785218 -0.00252508
v -0.00584200 -0.00807342 -0.00267744
v -0.00517185 -0.00857244 -0.00275912
v -0.00481961 -0.00867323 -0.00260527
v -0.00451812 -0.00902844 -0.00293227
v -0.00887633 -0.00492319 -0.00317254
v -0.00881663 -0.00481872 -0.00285178
v -0.00827185 -0.00532757 -0.00236678
v -0.01110320 -0.00026484 -0.00227174
v -0.00480468 -0.00893995 -0.00313482
v -0.00562707 -0.00852328 -0.00338965
v -0.00533454 -0.00875435 -0.00370477
v -0.00494498 -0.00897928 -0.00370477
v -0.00533454 -0.00875681 -0.00423669
v -0.00567483 -0.00855646 -0.00423669
v -0.00594200 -0.00837087 -0.00423669
v -0.00630170 -0.00810538 -0.00423669
v -0.00624498 -0.00805744 -0.00457438
v -0.00678678 -0.00755965 -0.00458181
v -0.00695096 -0.00719460 -0.00464566
v -0.01087932 -0.00100231 -0.00530560
v -0.01061066 -0.00125551 -0.00530560
v -0.01156440 -0.00014193 -0.00530560
v -0.00878529 -0.00530176 -0.00439440
v -0.00879723 -0.00531651 -0.00393553
v -0.00891514 -0.00509281 -0.00422481
v -0.00879723 -0.00531651 -0.00403948
v -0.00877932 -0.00528701 -0.00358092
v -0.01093305 -0.00053402 -0.00227174
v -0.00796738 -0.00553407 -0.00234361
v -0.00777185 -0.00590034 -0.00235252
v -0.00761066 -0.00625556 -0.00250845
v -0.00742708 -0.00660585 -0.00265873
v -0.00724349 -0.00695369 -0.00280901
v -0.00669722 -0.00746992 -0.00284257
v -0.00635095 -0.00766044 -0.00268368
v -0.00614648 -0.00798369 -0.00287999
v -0.00552707 -0.00845690 -0.00303503
v -0.00534349 -0.00863636 -0.00319630
v -0.00872409 -0.00518991 -0.00317254
v -0.00824350 -0.00581799 -0.00295365
v -0.00834350 -0.00543697 -0.00264032
v -0.00774946 -0.00640059 -0.00286336
v -0.00786290 -0.00609085 -0.00266764
v -0.01097335 -0.00047502 -0.00227174
v -0.00566140 -0.00854663 -0.00370477
v -0.00583006 -0.00831556 -0.00319630
v -0.00621215 -0.00803778 -0.00317254
v -0.00628827 -0.00809800 -0.00370477
v -0.00592707 -0.00836472 -0.00370477
v -0.00656887 -0.00788414 -0.00423669
v -0.00684797 -0.00761865 -0.00423669
v -0.00739424 -0.00709504 -0.00423669
v -0.00765991 -0.00683693 -0.00423669
v -0.00732111 -0.00702990 -0.00458211
v -0.00748379 -0.00666239 -0.00464537
v -0.01110619 -0.00073805 -0.00530560
v -0.00783006 -0.00649892 -0.00458151
v -0.01137335 -0.00040619 -0.00530560
v -0.00831066 -0.00591509 -0.00455151
v -0.00815096 -0.00622114 -0.00423669
v -0.00834051 -0.00595565 -0.00423669
v -0.00863902 -0.00552792 -0.00422481
v -0.00834051 -0.00595074 -0.00370477
v -0.00863603 -0.00552792 -0.00373684
v -0.00831066 -0.00590894 -0.00330827
v -0.00703902 -0.00729662 -0.00317254
v -0.00758827 -0.00674475 -0.00317254
v -0.00732260 -0.00703113 -0.00317254
v -0.00677334 -0.00753875 -0.00317254
v -0.00647931 -0.00780424 -0.00317254
v -0.00844797 -0.00561519 -0.00314759
v -0.00810469 -0.00609577 -0.00314759
v -0.00781364 -0.00647926 -0.00317254
v -0.00655394 -0.00787185 -0.00370477
v -0.00684200 -0.00760513 -0.00370477
v -0.00710767 -0.00735807 -0.00370477
v -0.00739126 -0.00709259 -0.00370477
v -0.00765693 -0.00682955 -0.00370477
v -0.00788529 -0.00657021 -0.00423669
v -0.00814499 -0.00621745 -0.00370477
v -0.00787932 -0.00656284 -0.00370477
f 1 2 7
f 1 7 15
f 1 15 30
f 1 30 29
f 1 29 52
f 1 52 78
f 1 78 107
f 1 107 144
f 1 144 188
f 1 188 209
f 1 209 213
f 1 213 166
f 1 166 161
f 1 161 117
f 1 117 83
f 1 83 55
f 1 55 33
f 1 33 32
f 1 32 23
f 1 23 11
f 1 11 8
f 1 8 3
f 1 3 4
f 1 4 5
f 1 5 6
f 1 6 2
f 2 6 7
f 3 8 4
f 4 9 10
f 4 10 5
f 4 8 11
f 4 11 9
f 5 10 12
f 5 12 6
f 6 12 24
f 6 24 13
f 6 13 14
f 6 14 7
f 7 14 15
f 9 11 16
f 9 16 17
f 9 17 18
f 9 18 19
f 9 19 20
f 9 20 21
f 9 21 22
f 9 22 10
f 10 22 24
f 10 24 12
f 11 23 16
f 13 24 25
f 13 25 26
f 13 26 27
f 13 27 14
f 14 27 28
f 14 28 29
f 14 29 30
f 14 30 15
f 16 23 17
f 17 31 19
f 17 19 18
f 17 23 32
f 17 32 33
f 17 33 31
f 19 31 34
f 19 34 35
f 19 35 36
f 19 36 37
f 19 37 38
f 19 38 21
f 19 21 20
f 21 39 40
f 21 40 22
f 21 38 41
f 21 41 42
f 21 42 43
f 21 43 44
f 21 44 39
f 22 40 25
f 22 25 24
f 25 40 39
f 25 39 45
f 25 45 46
f 25 46 26
f 26 46 27
f 27 46 47
f 27 47 48
f 27 48 49
f 27 49 50
f 27 50 51
f 27 51 28
f 28 51 29
f 29 51 52
f 31 33 34
f 33 53 54
f 33 54 34
f 33 55 85
f 33 85 119
f 33 119 165
f 33 165 164
f 33 164 212
f 33 212 264
f 33 264 308
f 33 308 344
f 33 344 328
f 33 328 293
f 33 293 246
f 33 246 194
f 33 194 193
f 33 193 152
f 33 152 151
f 33 151 150
f 33 150 149
f 33 149 110
f 33 110 79
f 33 79 53
f 34 54 56
f 34 56 35
f 35 56 36
f 36 56 54
f 36 54 57
f 36 57 58
f 36 58 59
f 36 59 37
f 37 59 60
f 37 60 41
f 37 41 38
f 39 44 61
f 39 61 45
f 41 60 42
f 42 62 43
f 42 60 59
f 42 59 63
f 42 63 64
f 42 64 62
f 43 62 65
f 43 65 61
f 43 61 44
f 45 61 46
f 46 61 47
f 47 61 65
f 47 65 48
f 48 65 66
f 48 66 49
f 49 67 50
f 49 66 68
f 49 68 69
f 49 69 67
f 50 67 51
f 51 67 70
f 51 70 52
f 52 70 71
f 52 71 72
f 52 72 73
f 52 73 74
f 52 74 75
f 52 75 76
f 52 76 77
f 52 77 105
f 52 105 104
f 52 104 103
f 52 103 102
f 52 102 140
f 52 140 139
f 52 139 138
f 52 138 137
f 52 137 184
f 52 184 183
f 52 183 234
f 52 234 281
f 52 281 321
f 52 321 320
f 52 320 356
f 52 356 358
f 52 358 322
f 52 322 283
f 52 283 237
f 52 237 185
f 52 185 141
f 52 141 106
f 52 106 78
f 53 79 80
f 53 80 81
f 53 81 54
f 54 81 116
f 54 116 82
f 54 82 57
f 55 83 84
f 55 84 85
f 57 82 58
f 58 86 87
f 58 87 63
f 58 63 59
f 58 82 86
f 62 88 65
f 62 64 91
f 62 91 88
f 63 87 89
f 63 89 64
f 64 89 90
f 64 90 91
f 65 88 66
f 66 88 91
f 66 91 68
f 67 69 70
f 68 91 90
f 68 90 92
f 68 92 69
f 69 92 93
f 69 93 70
f 70 93 71
f 71 93 72
f 72 93 94
f 72 94 73
f 73 94 95
f 73 95 96
f 73 96 97
f 73 97 98
f 73 98 74
f 74 98 75
f 75 98 76
f 76 98 99
f 76 99 100
f 76 100 101
f 76 101 102
f 76 102 103
f 76 103 104
f 76 104 105
f 76 105 77
f 78 106 107
f 79 108 109
f 79 109 80
f 79 110 108
f 80 109 111
f 80 111 112
f 80 112 81
f 81 113 114
f 81 114 115
f 81 115 116
f 81 112 113
f 82 116 86
f 83 117 84
f 84 117 118
f 84 118 119
f 84 119 85
f 86 116 115
f 86 115 114
f 86 114 120
f 86 120 121
f 86 121 122
f 86 122 87
f 87 122 89
f 89 123 124
f 89 124 90
f 89 122 123
f 90 124 125
f 90 125 92
f 92 125 94
f 92 94 93
f 94 125 95
f 95 125 126
f 95 126 96
f 96 126 127
f 96 127 128
f 96 128 129
f 96 129 97
f 97 129 98
f 98 129 128
f 98 128 130
f 98 130 99
f 99 130 131
f 99 131 132
f 99 132 100
f 100 133 134
f 100 134 101
f 100 132 133
f 101 134 135
f 101 135 136
f 101 136 137
f 101 137 138
f 101 138 139
f 101 139 140
f 101 140 102
f 106 141 142
f 106 142 143
f 106 143 144
f 106 144 107
f 108 145 146
f 108 146 147
f 108 147 148
f 108 148 111
f 108 111 109
f 108 110 149
f 108 149 150
f 108 150 151
f 108 151 152
f 108 152 193
f 108 193 153
f 108 153 154
f 108 154 145
f 111 148 155
f 111 155 156
f 111 156 157
f 111 157 112
f 112 158 114
f 112 114 113
f 112 157 158
f 114 159 120
f 114 158 160
f 114 160 159
f 117 161 118
f 118 162 207
f 118 207 163
f 118 163 164
f 118 164 165
f 118 165 119
f 118 161 166
f 118 166 162
f 120 167 121
f 120 159 167
f 121 168 123
f 121 123 122
f 121 167 168
f 123 168 124
f 124 168 169
f 124 169 126
f 124 126 125
f 126 169 127
f 127 169 170
f 127 170 171
f 127 171 172
f 127 172 173
f 127 173 128
f 128 173 174
f 128 174 175
f 128 175 176
f 128 176 130
f 130 176 131
f 131 176 177
f 131 177 132
f 132 177 133
f 133 177 178
f 133 178 179
f 133 179 134
f 134 179 180
f 134 180 135
f 135 180 181
f 135 181 182
f 135 182 136
f 136 182 183
f 136 183 184
f 136 184 137
f 141 185 186
f 141 186 143
f 141 143 142
f 143 186 236
f 143 236 187
f 143 187 144
f 144 187 188
f 145 189 146
f 145 154 189
f 146 189 147
f 147 189 190
f 147 190 191
f 147 191 192
f 147 192 156
f 147 156 155
f 147 155 148
f 153 193 194
f 153 194 195
f 153 195 196
f 153 196 197
f 153 197 198
f 153 198 199
f 153 199 154
f 154 199 200
f 154 200 189
f 156 201 202
f 156 202 203
f 156 203 204
f 156 204 160
f 156 160 157
f 156 192 205
f 156 205 201
f 157 160 158
f 159 160 167
f 160 204 203
f 160 203 206
f 160 206 167
f 162 166 208
f 162 208 209
f 162 209 210
f 162 210 211
f 162 211 262
f 162 262 207
f 163 207 212
f 163 212 164
f 166 213 208
f 167 214 215
f 167 215 216
f 167 216 168
f 167 206 203
f 167 203 214
f 168 216 170
f 168 170 169
f 170 216 171
f 171 216 215
f 171 215 214
f 171 214 172
f 172 217 218
f 172 218 174
f 172 174 173
f 172 214 217
f 174 218 219
f 174 219 175
f 175 219 220
f 175 220 221
f 175 221 176
f 176 221 222
f 176 222 223
f 176 223 177
f 177 223 224
f 177 224 178
f 178 224 225
f 178 225 226
f 178 226 179
f 179 226 227
f 179 227 180
f 180 227 228
f 180 228 229
f 180 229 181
f 181 229 230
f 181 230 231
f 181 231 232
f 181 232 182
f 182 232 231
f 182 231 233
f 182 233 183
f 183 233 234
f 185 235 236
f 185 236 186
f 185 237 238
f 185 238 239
f 185 239 235
f 187 236 211
f 187 211 240
f 187 240 241
f 187 241 188
f 188 241 209
f 189 242 190
f 189 200 242
f 190 242 243
f 190 243 191
f 191 244 192
f 191 243 245
f 191 245 244
f 192 244 205
f 194 246 195
f 195 247 248
f 195 248 249
f 195 249 196
f 195 246 247
f 196 249 250
f 196 250 251
f 196 251 198
f 196 198 197
f 198 251 252
f 198 252 253
f 198 253 254
f 198 254 255
f 198 255 200
f 198 200 199
f 200 255 242
f 201 256 257
f 201 257 203
f 201 203 202
f 201 205 244
f 201 244 245
f 201 245 258
f 201 258 259
f 201 259 256
f 203 260 217
f 203 217 214
f 203 257 260
f 207 239 261
f 207 261 212
f 207 262 239
f 208 213 209
f 209 241 240
f 209 240 210
f 210 240 211
f 211 236 262
f 212 261 263
f 212 263 264
f 217 260 218
f 218 260 257
f 218 257 219
f 219 257 256
f 219 256 220
f 220 256 265
f 220 265 221
f 221 265 222
f 222 265 223
f 223 265 266
f 223 266 224
f 224 267 225
f 224 266 267
f 225 267 268
f 225 268 269
f 225 269 270
f 225 270 226
f 226 270 227
f 227 270 271
f 227 271 228
f 228 271 272
f 228 272 273
f 228 273 274
f 228 274 275
f 228 275 229
f 229 275 230
f 230 275 276
f 230 276 277
f 230 277 231
f 231 277 278
f 231 278 233
f 233 278 279
f 233 279 280
f 233 280 281
f 233 281 234
f 235 282 236
f 235 239 262
f 235 262 282
f 236 282 262
f 237 283 284
f 237 284 285
f 237 285 238
f 238 285 286
f 238 286 287
f 238 287 239
f 239 288 289
f 239 289 290
f 239 290 261
f 239 287 291
f 239 291 288
f 242 270 243
f 242 255 271
f 242 271 270
f 243 270 269
f 243 269 245
f 245 269 268
f 245 268 258
f 246 292 247
f 246 293 292
f 247 292 248
f 248 292 294
f 248 294 295
f 248 295 296
f 248 296 249
f 249 297 250
f 249 296 297
f 250 252 251
f 250 297 252
f 252 297 298
f 252 298 299
f 252 299 300
f 252 300 301
f 252 301 302
f 252 302 253
f 253 302 303
f 253 303 254
f 254 271 255
f 254 303 304
f 254 304 272
f 254 272 271
f 256 259 265
f 258 266 259
f 258 268 266
f 259 266 265
f 261 290 289
f 261 289 263
f 263 289 291
f 263 291 305
f 263 305 264
f 264 305 306
f 264 306 307
f 264 307 308
f 266 268 267
f 272 304 273
f 273 304 309
f 273 309 310
f 273 310 311
f 273 311 312
f 273 312 274
f 274 312 276
f 274 276 275
f 276 312 313
f 276 313 277
f 277 314 315
f 277 315 316
f 277 316 317
f 277 317 278
f 277 313 314
f 278 317 279
f 279 318 319
f 279 319 320
f 279 320 321
f 279 321 280
f 279 317 318
f 280 321 281
f 283 322 323
f 283 323 284
f 284 324 286
f 284 286 285
f 284 323 325
f 284 325 326
f 284 326 324
f 286 324 327
f 286 327 291
f 286 291 287
f 288 291 289
f 291 327 305
f 292 293 328
f 292 328 294
f 294 328 329
f 294 329 330
f 294 330 295
f 295 298 296
f 295 330 298
f 296 298 297
f 298 330 307
f 298 307 331
f 298 331 332
f 298 332 333
f 298 333 299
f 299 333 334
f 299 334 335
f 299 335 300
f 300 335 336
f 300 336 301
f 301 336 302
f 302 309 304
f 302 304 303
f 302 336 337
f 302 337 338
f 302 338 309
f 305 327 339
f 305 339 306
f 306 339 340
f 306 340 341
f 306 341 307
f 307 341 340
f 307 340 342
f 307 342 343
f 307 343 331
f 307 330 329
f 307 329 328
f 307 328 344
f 307 344 308
f 309 338 310
f 310 345 311
f 310 338 337
f 310 337 346
f 310 346 347
f 310 347 348
f 310 348 349
f 310 349 345
f 311 345 314
f 311 314 313
f 311 313 312
f 314 345 349
f 314 349 315
f 315 349 316
f 316 349 348
f 316 348 350
f 316 350 317
f 317 350 318
f 318 350 351
f 318 351 352
f 318 352 353
f 318 353 354
f 318 354 319
f 319 354 355
f 319 355 320
f 320 355 357
f 320 357 356
f 322 358 359
f 322 359 323
f 323 359 360
f 323 360 361
f 323 361 362
f 323 362 326
f 323 326 325
f 324 326 360
f 324 360 363
f 324 363 364
f 324 364 327
f 326 362 361
f 326 361 360
f 327 364 363
f 327 363 365
f 327 365 339
f 331 343 342
f 331 342 332
f 332 342 333
f 333 366 334
f 333 342 367
f 333 367 368
f 333 368 366
f 334 366 369
f 334 369 336
f 334 336 335
f 336 369 370
f 336 370 347
f 336 347 346
f 336 346 337
f 339 365 371
f 339 371 340
f 340 371 365
f 340 365 372
f 340 372 342
f 342 372 373
f 342 373 367
f 347 370 374
f 347 374 348
f 348 374 350
f 350 374 375
f 350 375 376
f 350 376 377
f 350 377 351
f 351 377 352
f 352 377 353
f 353 377 378
f 353 378 379
f 353 379 357
f 353 357 354
f 354 357 355
f 356 357 358
f 357 379 359
f 357 359 358
f 359 379 360
f 360 379 380
f 360 380 363
f 363 380 365
f 365 380 381
f 365 381 373
f 365 373 372
f 366 368 377
f 366 377 376
f 366 376 375
f 366 375 374
f 366 374 369
f 367 373 378
f 367 378 368
f 368 378 377
f 369 374 370
f 373 381 378
f 378 381 379
f 379 381 380

