# https://github.com/mikedh/trimesh
v -0.01157316 0.00134096 -0.00996996
v -0.01150625 0.00240731 -0.00996996
v -0.01150499 0.00240731 -0.00997495
v -0.01152266 0.00187413 -0.01003274
v -0.01152771 0.00134096 -0.01013333
v -0.01146207 0.00116186 -0.01037448
v -0.01146207 0.00101776 -0.01037448
v -0.01156685 0.00096629 -0.00996996
v -0.01142041 0.00362600 -0.00996996
v -0.01144945 0.00151799 -0.01033809
v -0.01136487 0.00134096 -0.01058102
v -0.01109851 0.00134301 -0.01115676
v -0.01108715 0.00506907 -0.01062454
v -0.01092683 0.00590692 -0.01089743
v -0.01093819 0.00560019 -0.01092168
v -0.01095839 0.00506907 -0.01096057
v -0.01108841 0.00080984 -0.01115676
v -0.01135603 0.00082837 -0.01058102
v -0.01144187 0.00066162 -0.01031811
v -0.01152266 0.00082837 -0.01012121
v -0.01156306 0.00082219 -0.00996996
v -0.01140022 0.00389567 -0.00996996
v -0.01127398 0.00506907 -0.01009231
v -0.01101141 0.00347160 -0.01106330
v -0.01102908 0.00294048 -0.01109683
v -0.01097606 0.00453590 -0.01099553
v -0.01099373 0.00400478 -0.01102941
v -0.01091799 0.00205529 -0.01141360
v -0.01092935 0.00169915 -0.01143144
v -0.01093945 0.00134301 -0.01144820
v -0.01093693 0.00080984 -0.01144428
v -0.01104675 0.00240731 -0.01112787
v -0.01089022 0.00294048 -0.01136295
v -0.01104675 0.00560019 -0.01062454
v -0.01067814 0.00719766 -0.01115676
v -0.01080059 0.00610454 -0.01110789
v -0.01079933 0.00560019 -0.01118780
v -0.01123358 0.00560019 -0.01009231
v -0.01099500 0.00610454 -0.01065843
v -0.01091168 0.00626100 -0.01085819
v -0.01047995 0.00985736 -0.01107008
v -0.01050520 0.00932419 -0.01111681
v -0.01081827 0.00506907 -0.01122668
v -0.01092557 0.00054016 -0.01142644
v -0.01099373 0.00040841 -0.01115676
v -0.01112123 0.00022520 -0.01067626
v -0.01149237 0.00044547 -0.00996996
v -0.01149994 0.00047017 -0.00996996
v -0.01125757 0.00572370 -0.00996996
v -0.01083594 0.00453590 -0.01126164
v -0.01090663 0.00240731 -0.01139398
v -0.01053297 0.00560019 -0.01162835
v -0.01075136 0.00134301 -0.01171432
v -0.01055191 0.00506907 -0.01165153
v -0.01074126 0.00080984 -0.01171039
v -0.01034488 0.00985736 -0.01133619
v -0.01038527 0.00899070 -0.01141146
v -0.01040042 0.00863662 -0.01143786
v -0.01041810 0.00826195 -0.01146283
v -0.01048879 0.00666654 -0.01156592
v -0.01051151 0.00613336 -0.01159909
v -0.01119066 0.00613336 -0.01009231
v -0.01096722 0.00719766 -0.01048078
v -0.01093062 0.00807874 -0.01037733
v -0.01089401 0.00666654 -0.01081039
v -0.01067941 0.00985736 -0.01062454
v -0.00986771 0.01713038 -0.01090849
v -0.00988538 0.01677630 -0.01094344
v -0.00991063 0.01624518 -0.01099374
v -0.01047616 0.00080984 -0.01205213
v -0.01043451 0.00047017 -0.01200576
v -0.01062260 0.00032813 -0.01164404
v -0.01045597 -0.00005889 -0.01150706
v -0.01083846 0.00014285 -0.01115676
v -0.01092178 0.00001316 -0.01088780
v -0.01135856 0.00027666 -0.01012121
v -0.01099878 -0.00009594 -0.01053322
v -0.01137497 0.00022314 -0.00996996
v -0.01121338 0.00625482 -0.00996996
v -0.01034362 0.00560019 -0.01189410
v -0.01048500 0.00134301 -0.01206247
v -0.01036129 0.00506907 -0.01191729
v -0.00977050 0.01624518 -0.01125985
v -0.00982226 0.01518089 -0.01135439
v -0.00986013 0.01438833 -0.01142395
v -0.00989674 0.01358342 -0.01148209
v -0.01010882 0.00985736 -0.01168935
v -0.00987149 0.01025056 -0.01196973
v -0.01029691 0.00666654 -0.01183168
v -0.01032089 0.00613336 -0.01186485
v -0.01114522 0.00666654 -0.01009231
v -0.01087886 0.00932419 -0.01021574
v -0.01091547 0.00843282 -0.01033452
v -0.01096849 0.00917391 -0.00996996
v -0.01095586 0.00932419 -0.00996996
v -0.01085614 0.00985736 -0.01014118
v -0.01040800 0.01358342 -0.01039945
v -0.01006463 0.01624518 -0.01062454
v -0.00985003 0.01748446 -0.01086818
v -0.00956852 0.01879990 -0.01115676
v -0.00974525 0.01677630 -0.01120956
v -0.01020728 0.00080984 -0.01231824
v -0.01022622 0.00134301 -0.01232859
v -0.00989548 0.00049899 -0.01251551
v -0.01009619 0.00030754 -0.01219375
v -0.01029691 0.00011609 -0.01186164
v -0.01010629 -0.00023181 -0.01166687
v -0.01027040 -0.00041297 -0.01128804
v -0.01042062 -0.00055089 -0.01093310
v -0.01055317 -0.00024416 -0.01112894
v -0.01050772 -0.00065176 -0.01062454
v -0.01080312 -0.00026475 -0.01067626
v -0.01087255 -0.00045002 -0.01023179
v -0.01105811 -0.00026475 -0.01006948
v -0.01099878 -0.00040885 -0.00996996
v -0.01112881 -0.00019681 -0.00996996
v -0.00988917 0.00985736 -0.01199042
v -0.00993587 0.00879307 -0.01204285
v -0.00998258 0.00773083 -0.01209279
v -0.01000656 0.00719766 -0.01211705
v -0.01003055 0.00666654 -0.01214060
v -0.01005453 0.00613336 -0.01216343
v -0.01007726 0.00560019 -0.01218483
v -0.00986518 0.00436091 -0.01249268
v -0.00937791 0.01879990 -0.01150064
v -0.00942588 0.01784060 -0.01156984
v -0.00945239 0.01730948 -0.01160623
v -0.00985382 0.01060463 -0.01194797
v -0.00928954 0.01677630 -0.01190659
v -0.00932741 0.01598580 -0.01195581
v -0.00936528 0.01518089 -0.01199933
v -0.00939053 0.01464771 -0.01202716
v -0.00894365 0.01837377 -0.01211705
v -0.00897143 0.01784060 -0.01214131
v -0.01105433 0.00773083 -0.01009231
v -0.01089527 0.01001588 -0.00996996
v -0.01083973 0.01034937 -0.01004344
v -0.01037644 0.01422776 -0.01031027
v -0.01039285 0.01387162 -0.01036413
v -0.00988664 0.01879990 -0.01043155
v -0.01001288 0.01677630 -0.01062454
v -0.00983236 0.01784060 -0.01082252
v -0.00980459 0.01837377 -0.01075403
v -0.00978313 0.01879990 -0.01069766
v -0.00994092 0.00080984 -0.01255261
v -0.00995986 0.00134301 -0.01256866
v -0.00989295 0.00347160 -0.01251693
v -0.00987654 0.00400478 -0.01250302
v -0.00959251 0.00080984 -0.01278162
v -0.00923779 0.00080984 -0.01298281
v -0.00886413 0.00050311 -0.01304738
v -0.00954202 0.00030342 -0.01258578
v -0.00968592 0.00014285 -0.01238138
v -0.00994218 -0.00004860 -0.01202644
v -0.00991567 -0.00056530 -0.01147210
v -0.01006590 -0.00073617 -0.01109006
v -0.00986013 -0.00105319 -0.01089208
v -0.00948016 -0.00202896 -0.00996996
v -0.01035498 -0.00101819 -0.01028423
v -0.01065416 -0.00078146 -0.01008054
v -0.01081069 -0.00065382 -0.00996996
v -0.00865962 0.01879990 -0.01236247
v -0.00969224 0.00826195 -0.01233429
v -0.00974147 0.00719766 -0.01238316
v -0.00976672 0.00666654 -0.01240671
v -0.00979196 0.00613336 -0.01242954
v -0.00981595 0.00560019 -0.01245094
v -0.00983741 0.00506907 -0.01246949
v -0.00985129 0.00471499 -0.01248162
v -0.00954959 0.00560019 -0.01265070
v -0.00957105 0.00506907 -0.01266497
v -0.00964174 0.00453795 -0.01264250
v -0.00934004 0.01879990 -0.01155415
v -0.00921001 0.01837377 -0.01179743
v -0.00923652 0.01784060 -0.01183560
v -0.00926303 0.01730948 -0.01187199
v -0.00892219 0.01879990 -0.01209601
v -0.00886917 0.01879990 -0.01214987
v -0.01034867 0.01562761 -0.00996996
v -0.01025020 0.01624518 -0.01009231
v -0.01019844 0.01677630 -0.01009231
v -0.01014543 0.01730948 -0.01009231
v -0.01003939 0.01837377 -0.01009231
v -0.00999647 0.01879990 -0.01009231
v -0.00959251 0.00134301 -0.01282157
v -0.00959251 0.00347160 -0.01272918
v -0.00959251 0.00240731 -0.01277591
v -0.00959251 0.00400478 -0.01270421
v -0.00929964 0.00134301 -0.01300635
v -0.00897143 0.00080984 -0.01309767
v -0.00903328 0.00134301 -0.01313192
v -0.00852834 0.00045576 -0.01308555
v -0.00852834 0.00019020 -0.01284975
v -0.00906105 -0.00002389 -0.01253013
v -0.00933120 0.00000904 -0.01248947
v -0.00852834 0.00080984 -0.01323644
v -0.00954202 -0.00012065 -0.01221087
v -0.00959251 -0.00065794 -0.01157769
v -0.00959251 -0.00092350 -0.01125557
v -0.00906105 -0.00223071 -0.00996996
v -0.01049384 -0.00101202 -0.00996996
v -0.00839326 0.01879990 -0.01258756
v -0.00867856 0.01837377 -0.01238316
v -0.00870380 0.01784060 -0.01240742
v -0.00933625 0.01020321 -0.01249553
v -0.00935266 0.00985736 -0.01250873
v -0.00940189 0.00879307 -0.01254619
v -0.00942588 0.00826195 -0.01256473
v -0.00947511 0.00719766 -0.01260076
v -0.00950036 0.00666654 -0.01261789
v -0.00952560 0.00613336 -0.01263501
v -0.00913932 0.00560019 -0.01291682
v -0.00916204 0.00506907 -0.01293109
v -0.00918855 0.01879990 -0.01176675
v -0.01011513 0.01796411 -0.00996996
v -0.01003055 0.01879990 -0.00996996
v -0.00924283 0.00294048 -0.01297603
v -0.00926177 0.00240731 -0.01298638
v -0.00918350 0.00453590 -0.01294357
v -0.00920370 0.00400478 -0.01295499
v -0.00897648 0.00294048 -0.01310731
v -0.00899541 0.00240731 -0.01311658
v -0.00901435 0.00187413 -0.01312550
v -0.00893734 0.00400478 -0.01308876
v -0.00852834 0.00134301 -0.01332526
v -0.00852834 0.00187413 -0.01332027
v -0.00799562 0.00080984 -0.01329565
v -0.00799562 0.00044753 -0.01309981
v -0.00799562 0.00018197 -0.01284405
v -0.00852834 -0.00007124 -0.01258364
v -0.00889947 -0.00054678 -0.01198400
v -0.00881616 -0.00105937 -0.01142930
v -0.00925420 -0.00050149 -0.01193477
v -0.00799562 0.00134301 -0.01344191
v -0.00917214 -0.00101408 -0.01137615
v -0.00852834 -0.00106348 -0.01143500
v -0.00852834 -0.00222865 -0.00996996
v -0.00883130 0.01518089 -0.01251658
v -0.00879343 0.01596727 -0.01248626
v -0.00877955 0.01624518 -0.01247520
v -0.00798552 0.01879990 -0.01284868
v -0.00906105 0.00932419 -0.01274202
v -0.00906105 0.00985736 -0.01270885
v -0.00906105 0.00879307 -0.01277449
v -0.00911407 0.00613336 -0.01290112
v -0.00874294 0.00826195 -0.01299494
v -0.00878712 0.00739940 -0.01301634
v -0.00880479 0.00704326 -0.01302490
v -0.00792240 0.01879990 -0.01288471
v -0.00770401 0.01879990 -0.01300885
v -0.00884771 0.00613336 -0.01304666
v -0.00887296 0.00560019 -0.01305879
v 0.00014663 0.01879990 -0.00996996
v -0.00891714 0.00453590 -0.01307912
v -0.00889568 0.00506907 -0.01306914
v -0.00852834 0.00506907 -0.01321682
v -0.00799562 0.00187413 -0.01346759
v -0.00799562 0.00240731 -0.01345511
v -0.00799562 0.00773083 -0.01330564
v -0.00799562 0.00666654 -0.01333846
v -0.00799562 0.00613336 -0.01335416
v -0.00799562 0.00560019 -0.01336949
v -0.00744523 0.00077484 -0.01319220
v -0.00760934 0.00049076 -0.01306664
v -0.00746416 0.00134301 -0.01345404
v -0.00761565 -0.00002801 -0.01253441
v -0.00799562 -0.00006712 -0.01257793
v -0.00819760 -0.00106142 -0.01143251
v -0.00747552 0.00185972 -0.01353680
v -0.00816099 -0.00222659 -0.00996996
v -0.00906105 0.00826195 -0.01280659
v -0.00744775 0.01879990 -0.01310695
v -0.00852834 0.00560019 -0.01319863
v -0.00852834 0.00613336 -0.01317794
v 0.00084598 0.01224533 -0.00996996
v 0.00013653 0.01879990 -0.01000991
v -0.00799562 0.00826195 -0.01328816
v -0.00760681 0.00240731 -0.01353537
v -0.00730637 0.00202647 -0.01356605
v -0.00746416 0.00613336 -0.01347080
v -0.00693145 0.01879990 -0.01326069
v -0.00733161 0.01879990 -0.01314191
v -0.00725461 0.00057516 -0.01299244
v -0.00693145 0.00134301 -0.01332276
v -0.00693145 0.00095600 -0.01310552
v -0.00726092 0.00003786 -0.01246057
v -0.00693145 0.00204911 -0.01356426
v -0.00693145 0.00178355 -0.01350291
v -0.00747552 -0.00025034 -0.01221622
v -0.00769013 -0.00053442 -0.01197187
v -0.00799562 -0.00033268 -0.01226580
v -0.00801077 -0.00086174 -0.01164154
v -0.00784287 -0.00103878 -0.01140397
v -0.00763080 -0.00221218 -0.00996996
v -0.00799562 0.00879307 -0.01326961
v 0.00087123 0.01198595 -0.00996996
v 0.00085987 0.01198595 -0.01000242
v -0.00006040 0.01879990 -0.01062454
v -0.00002379 0.01879990 -0.01051716
v 0.00011507 0.01879990 -0.01009231
v -0.00720285 0.00431357 -0.01355285
v -0.00730006 0.00294048 -0.01356640
v -0.00734171 0.00240731 -0.01357104
v -0.00693145 0.01837377 -0.01327140
v -0.00639873 0.01879990 -0.01335558
v -0.00693145 0.00294048 -0.01360101
v -0.00693145 0.00240731 -0.01359137
v -0.00665246 0.00106304 -0.01302954
v -0.00693145 0.00069044 -0.01289113
v -0.00693145 0.00040429 -0.01262502
v -0.00665499 0.00213352 -0.01355428
v -0.00630026 0.00228997 -0.01350041
v -0.00644670 0.00192354 -0.01338662
v -0.00644417 0.00138830 -0.01310410
v -0.00693145 0.00013874 -0.01235926
v -0.00693145 -0.00010624 -0.01209315
v -0.00664868 -0.00053237 -0.01143643
v -0.00693145 -0.00060442 -0.01152062
v -0.00733540 -0.00047061 -0.01189410
v -0.00639873 0.00294048 -0.01360992
v -0.00644670 0.00244436 -0.01357282
v -0.00652623 -0.00171400 -0.00996996
v 0.00087502 0.01194684 -0.00996996
v 0.00093182 0.01135602 -0.00996996
v 0.00088764 0.01145483 -0.01006235
v -0.00018663 0.01879990 -0.01093667
v -0.00586727 0.01879990 -0.01339375
v -0.00639873 0.00347160 -0.01361385
v -0.00662217 0.00050928 -0.01252050
v -0.00134548 0.00533669 -0.01248626
v -0.00074460 0.00526876 -0.01200790
v -0.00093521 0.00491468 -0.01185950
v -0.00610965 0.00264405 -0.01355998
v -0.00590641 0.00244436 -0.01337699
v -0.00238693 0.00531404 -0.01302883
v -0.00290955 0.00477675 -0.01303525
v -0.00662595 -0.00001772 -0.01198863
v -0.00551886 -0.00113348 -0.00996996
v -0.00619422 -0.00152461 -0.00996996
v -0.00586727 0.00400478 -0.01360101
v -0.00586727 0.00347160 -0.01359672
v -0.00590641 0.00298989 -0.01357104
v 0.00102271 0.01027526 -0.00996996
v 0.00106942 0.00971944 -0.00996996
v 0.00089521 0.01096901 -0.01014439
v 0.00078413 0.01117692 -0.01035664
v 0.00077150 0.01145483 -0.01032846
v -0.00021945 0.01879990 -0.01101407
v -0.00533455 0.01879990 -0.01338697
v -0.00626744 0.00066985 -0.01237246
v -0.00071683 0.00471705 -0.01150492
v -0.00122556 0.00569283 -0.01255189
v -0.00105893 0.00554872 -0.01239030
v -0.00055777 0.00563724 -0.01208067
v -0.00038987 0.00548491 -0.01186057
v -0.00019294 0.00523993 -0.01150599
v -0.00055272 0.00507731 -0.01168292
v -0.00559713 0.00320193 -0.01355320
v -0.00320621 0.00506907 -0.01323608
v -0.00267475 0.00560019 -0.01315475
v -0.00233139 0.00560019 -0.01304631
v -0.00206503 0.00560019 -0.01293608
v -0.00497226 -0.00061883 -0.00996996
v -0.00036210 0.00488586 -0.01134047
v -0.00055019 0.00454001 -0.01115462
v -0.00019294 0.00471911 -0.01098589
v -0.00529163 0.00457089 -0.01356747
v -0.00503916 0.00441650 -0.01355642
v -0.00532319 0.00402536 -0.01357211
v -0.00551760 0.00347160 -0.01356462
v -0.00503916 0.00421681 -0.01355642
v 0.00123984 0.00761967 -0.00996996
v 0.00100756 0.00985736 -0.01009231
v 0.00105048 0.00932419 -0.01009231
v 0.00131558 0.00666654 -0.00996996
v 0.00081568 0.01039054 -0.01041086
v -0.00035326 0.01879990 -0.01128019
v -0.00032549 0.01879990 -0.01122668
v -0.00480310 0.01879990 -0.01335915
v -0.00026111 0.00583899 -0.01196973
v -0.00160932 0.00613336 -0.01279910
v -0.00116370 0.00613336 -0.01258471
v -0.00089734 0.00613336 -0.01243703
v -0.00004903 0.00565165 -0.01165688
v 0.00016178 0.00546432 -0.01132335
v 0.00031705 0.00525846 -0.01096841
v -0.00001621 0.00507113 -0.01115462
v -0.00513763 0.00386068 -0.01354036
v -0.00427164 0.00453590 -0.01343370
v -0.00373893 0.00506907 -0.01338305
v -0.00320621 0.00560019 -0.01329744
v -0.00267475 0.00613336 -0.01316652
v -0.00229478 0.00613336 -0.01305594
v -0.00202968 0.00613336 -0.01296818
v -0.00038230 0.00436503 -0.01076865
v -0.00023713 0.00422916 -0.01041407
v -0.00013488 0.00413035 -0.01009231
v 0.00016809 0.00435680 -0.00996996
v 0.00016178 0.00490438 -0.01076936
v -0.00003767 0.00456266 -0.01059172
v -0.00480310 0.00506907 -0.01352895
v -0.00427164 0.00506907 -0.01347829
v 0.00130169 0.00684152 -0.00996996
v 0.00132316 0.00613336 -0.00996996
v 0.00121838 0.00666654 -0.01016294
v 0.00083588 0.00985736 -0.01044582
v 0.00066799 0.01096901 -0.01058530
v -0.00055903 0.01879990 -0.01160587
v 0.00065663 0.01039054 -0.01067697
v 0.00033220 0.01198595 -0.01100373
v 0.00035366 0.01145483 -0.01103298
v -0.00427164 0.01879990 -0.01331206
v 0.00028044 0.00582046 -0.01145284
v -0.00054514 0.00613336 -0.01219981
v -0.00024218 0.00613336 -0.01198400
v 0.00002292 0.00613336 -0.01174499
v 0.00030695 0.00613336 -0.01147888
v -0.00214203 0.01879990 -0.01289791
v -0.00117001 0.00666654 -0.01258079
v -0.00090366 0.00666654 -0.01243489
v -0.00054514 0.00666654 -0.01219838
v 0.00040668 0.00562489 -0.01115034
v 0.00079296 0.00532640 -0.01036984
v 0.00048116 0.00511436 -0.01056960
v 0.00069071 0.00560019 -0.01075296
v -0.00373893 0.00560019 -0.01339946
v -0.00320621 0.00613336 -0.01329565
v -0.00270505 0.01879990 -0.01307948
v -0.00243869 0.01879990 -0.01301135
v -0.00237305 0.01879990 -0.01298638
v 0.00029180 0.00476234 -0.01041479
v 0.00013148 0.00439385 -0.01009231
v 0.00038648 0.00465941 -0.01009231
v 0.00042056 0.00462853 -0.00996996
v -0.00427164 0.00560019 -0.01347330
v 0.00129917 0.00592751 -0.00996996
v 0.00122090 0.00613336 -0.01017115
v 0.00092425 0.00666448 -0.01067127
v 0.00085608 0.00932419 -0.01047900
v -0.00061962 0.01879990 -0.01169933
v 0.00069324 0.00932419 -0.01074511
v 0.00079296 0.00648744 -0.01090099
v -0.00373893 0.01879990 -0.01325142
v 0.00077403 0.00597485 -0.01087353
v -0.00024218 0.00666654 -0.01198435
v 0.00002418 0.00666654 -0.01174749
v 0.00030948 0.00666654 -0.01148102
v 0.00079296 0.00633099 -0.01090099
v 0.00060739 0.00614572 -0.01111003
v -0.00203978 0.01879990 -0.01284761
v -0.00158155 0.01879990 -0.01261717
v -0.00138083 0.01879990 -0.01249482
v -0.00135558 0.01877931 -0.01247877
v 0.00086492 0.00522964 -0.01009231
v 0.00065284 0.00496202 -0.01009231
v 0.00087123 0.00560019 -0.01048684
v 0.00112623 0.00562901 -0.01006556
v 0.00115147 0.00559401 -0.00996996
v -0.00320621 0.01879990 -0.01317901
v 0.00068566 0.00492291 -0.00996996
v 0.00122974 0.00572370 -0.00996996
v 0.00092551 0.00614572 -0.01066734
v -0.00077237 0.01879990 -0.01191836
v 0.00061244 0.00666448 -0.01111003
v -0.00080393 0.01879990 -0.01196331
v -0.00132907 0.01879990 -0.01245486
v -0.00110311 0.01879990 -0.01224690
v 0.00089016 0.00518641 -0.00996996
f 1 2 3
f 1 3 4
f 1 4 5
f 1 5 6
f 1 6 7
f 1 7 8
f 1 8 21
f 1 21 48
f 1 48 47
f 1 47 78
f 1 78 116
f 1 116 115
f 1 115 161
f 1 161 201
f 1 201 158
f 1 158 200
f 1 200 237
f 1 237 270
f 1 270 294
f 1 294 322
f 1 322 339
f 1 339 338
f 1 338 363
f 1 363 398
f 1 398 434
f 1 434 460
f 1 460 468
f 1 468 458
f 1 458 461
f 1 461 436
f 1 436 404
f 1 404 375
f 1 375 403
f 1 403 372
f 1 372 344
f 1 344 343
f 1 343 324
f 1 324 323
f 1 323 296
f 1 296 275
f 1 275 253
f 1 253 216
f 1 216 215
f 1 215 179
f 1 179 136
f 1 136 95
f 1 95 94
f 1 94 79
f 1 79 49
f 1 49 22
f 1 22 9
f 1 9 2
f 2 9 3
f 3 10 5
f 3 5 4
f 3 9 10
f 5 10 6
f 6 11 12
f 6 12 7
f 6 10 13
f 6 13 14
f 6 14 15
f 6 15 16
f 6 16 11
f 7 17 18
f 7 18 19
f 7 19 20
f 7 20 21
f 7 21 8
f 7 12 17
f 9 22 23
f 9 23 10
f 10 23 13
f 11 24 25
f 11 25 12
f 11 16 26
f 11 26 27
f 11 27 24
f 12 28 29
f 12 29 30
f 12 30 31
f 12 31 17
f 12 25 32
f 12 32 33
f 12 33 28
f 13 23 38
f 13 38 34
f 13 34 14
f 14 35 36
f 14 36 37
f 14 37 15
f 14 34 38
f 14 38 39
f 14 39 40
f 14 40 41
f 14 41 42
f 14 42 35
f 15 37 16
f 16 37 43
f 16 43 50
f 16 50 26
f 17 31 44
f 17 44 18
f 18 44 19
f 19 44 45
f 19 45 46
f 19 46 47
f 19 47 48
f 19 48 21
f 19 21 20
f 22 49 38
f 22 38 23
f 24 33 25
f 24 27 33
f 25 33 32
f 26 50 33
f 26 33 27
f 28 33 51
f 28 51 52
f 28 52 29
f 29 53 30
f 29 52 54
f 29 54 53
f 30 53 31
f 31 55 44
f 31 53 55
f 33 50 52
f 33 52 51
f 35 42 56
f 35 56 57
f 35 57 36
f 36 57 37
f 37 57 58
f 37 58 59
f 37 59 60
f 37 60 61
f 37 61 43
f 38 49 62
f 38 62 39
f 39 62 63
f 39 63 40
f 40 63 64
f 40 64 65
f 40 65 66
f 40 66 41
f 41 66 67
f 41 67 68
f 41 68 69
f 41 69 56
f 41 56 42
f 43 61 52
f 43 52 50
f 44 55 70
f 44 70 71
f 44 71 72
f 44 72 73
f 44 73 74
f 44 74 75
f 44 75 45
f 45 75 46
f 46 76 47
f 46 75 77
f 46 77 76
f 47 76 78
f 49 79 62
f 52 61 80
f 52 80 54
f 53 81 55
f 53 54 80
f 53 80 82
f 53 82 81
f 55 81 70
f 56 69 83
f 56 83 84
f 56 84 85
f 56 85 57
f 57 85 86
f 57 86 87
f 57 87 58
f 58 87 59
f 59 87 88
f 59 88 60
f 60 88 89
f 60 89 90
f 60 90 61
f 61 90 80
f 62 91 92
f 62 92 93
f 62 93 64
f 62 64 63
f 62 79 94
f 62 94 95
f 62 95 91
f 64 93 65
f 65 93 66
f 66 92 96
f 66 96 97
f 66 97 98
f 66 98 99
f 66 99 67
f 66 93 92
f 67 99 100
f 67 100 68
f 68 100 101
f 68 101 83
f 68 83 69
f 70 102 71
f 70 81 103
f 70 103 102
f 71 102 104
f 71 104 105
f 71 105 106
f 71 106 73
f 71 73 72
f 73 107 108
f 73 108 109
f 73 109 110
f 73 110 75
f 73 75 74
f 73 106 107
f 75 110 109
f 75 109 111
f 75 111 112
f 75 112 113
f 75 113 77
f 76 77 114
f 76 114 78
f 77 113 115
f 77 115 114
f 78 114 116
f 80 90 117
f 80 117 118
f 80 118 119
f 80 119 120
f 80 120 121
f 80 121 122
f 80 122 123
f 80 123 82
f 81 82 123
f 81 123 124
f 81 124 103
f 83 101 125
f 83 125 84
f 84 125 85
f 85 125 126
f 85 126 127
f 85 127 86
f 86 127 87
f 87 127 128
f 87 128 88
f 88 128 129
f 88 129 130
f 88 130 131
f 88 131 132
f 88 132 133
f 88 133 134
f 88 134 117
f 88 117 90
f 88 90 89
f 91 135 92
f 91 95 135
f 92 95 96
f 92 135 95
f 95 136 96
f 96 136 137
f 96 137 138
f 96 138 139
f 96 139 97
f 97 139 140
f 97 140 141
f 97 141 98
f 98 141 99
f 99 142 100
f 99 141 142
f 100 142 143
f 100 143 144
f 100 144 140
f 100 140 184
f 100 184 216
f 100 216 253
f 100 253 276
f 100 276 300
f 100 300 299
f 100 299 298
f 100 298 326
f 100 326 348
f 100 348 378
f 100 378 377
f 100 377 408
f 100 408 440
f 100 440 463
f 100 463 465
f 100 465 467
f 100 467 466
f 100 466 452
f 100 452 451
f 100 451 450
f 100 450 418
f 100 418 430
f 100 430 429
f 100 429 428
f 100 428 459
f 100 459 443
f 100 443 412
f 100 412 379
f 100 379 349
f 100 349 327
f 100 327 305
f 100 305 281
f 100 281 282
f 100 282 272
f 100 272 250
f 100 250 249
f 100 249 241
f 100 241 202
f 100 202 162
f 100 162 178
f 100 178 177
f 100 177 214
f 100 214 173
f 100 173 125
f 100 125 101
f 102 145 104
f 102 103 146
f 102 146 145
f 103 147 146
f 103 124 148
f 103 148 147
f 104 145 149
f 104 149 150
f 104 150 151
f 104 151 152
f 104 152 153
f 104 153 154
f 104 154 105
f 105 154 106
f 106 154 107
f 107 154 155
f 107 155 108
f 108 155 156
f 108 156 109
f 109 156 157
f 109 157 158
f 109 158 159
f 109 159 111
f 111 113 112
f 111 159 113
f 113 159 160
f 113 160 161
f 113 161 115
f 114 115 116
f 117 134 162
f 117 162 163
f 117 163 118
f 118 163 164
f 118 164 165
f 118 165 119
f 119 165 120
f 120 165 166
f 120 166 121
f 121 166 122
f 122 166 167
f 122 167 123
f 123 167 168
f 123 168 169
f 123 169 124
f 124 169 170
f 124 170 171
f 124 171 172
f 124 172 148
f 125 173 126
f 126 173 174
f 126 174 175
f 126 175 176
f 126 176 127
f 127 176 128
f 128 176 129
f 129 176 177
f 129 177 130
f 130 177 131
f 131 177 133
f 131 133 132
f 133 177 178
f 133 178 162
f 133 162 134
f 136 179 180
f 136 180 137
f 137 180 138
f 138 180 181
f 138 181 140
f 138 140 139
f 140 181 182
f 140 182 183
f 140 183 184
f 140 144 142
f 140 142 141
f 142 144 143
f 145 146 185
f 145 185 149
f 146 147 186
f 146 186 187
f 146 187 185
f 147 148 188
f 147 188 186
f 148 172 188
f 149 185 189
f 149 189 150
f 150 190 151
f 150 189 191
f 150 191 190
f 151 192 193
f 151 193 194
f 151 194 195
f 151 195 152
f 151 190 196
f 151 196 192
f 152 195 153
f 153 195 154
f 154 195 197
f 154 197 155
f 155 198 199
f 155 199 158
f 155 158 157
f 155 157 156
f 155 197 198
f 158 201 159
f 158 199 200
f 159 201 160
f 160 201 161
f 162 202 203
f 162 203 163
f 163 203 204
f 163 204 164
f 164 204 205
f 164 205 165
f 165 205 166
f 166 205 206
f 166 206 167
f 167 206 207
f 167 207 208
f 167 208 209
f 167 209 210
f 167 210 211
f 167 211 168
f 168 211 169
f 169 211 170
f 170 212 213
f 170 213 171
f 170 211 212
f 171 213 188
f 171 188 172
f 173 214 174
f 174 214 177
f 174 177 175
f 175 177 176
f 179 215 183
f 179 183 182
f 179 182 181
f 179 181 180
f 183 215 184
f 184 215 216
f 185 187 217
f 185 217 218
f 185 218 189
f 186 188 219
f 186 219 220
f 186 220 187
f 187 220 217
f 188 213 219
f 189 221 222
f 189 222 223
f 189 223 191
f 189 218 224
f 189 224 221
f 190 191 225
f 190 225 196
f 191 223 226
f 191 226 225
f 192 196 227
f 192 227 228
f 192 228 193
f 193 229 230
f 193 230 194
f 193 228 229
f 194 230 231
f 194 231 232
f 194 232 233
f 194 233 195
f 195 233 198
f 195 198 197
f 196 225 234
f 196 234 227
f 198 233 235
f 198 235 200
f 198 200 199
f 200 236 237
f 200 235 232
f 200 232 236
f 202 206 205
f 202 205 238
f 202 238 239
f 202 239 240
f 202 240 204
f 202 204 203
f 202 241 242
f 202 242 243
f 202 243 211
f 202 211 210
f 202 210 209
f 202 209 208
f 202 208 207
f 202 207 206
f 204 240 205
f 205 240 239
f 205 239 238
f 211 243 242
f 211 242 244
f 211 244 245
f 211 245 212
f 212 246 247
f 212 247 248
f 212 248 213
f 212 245 241
f 212 241 249
f 212 249 250
f 212 250 246
f 213 248 251
f 213 251 252
f 213 252 219
f 217 220 254
f 217 254 218
f 218 254 224
f 219 252 255
f 219 255 220
f 220 255 254
f 221 226 222
f 221 224 226
f 222 226 223
f 224 254 256
f 224 256 226
f 225 226 257
f 225 257 234
f 226 258 257
f 226 256 259
f 226 259 260
f 226 260 261
f 226 261 262
f 226 262 258
f 227 263 264
f 227 264 228
f 227 234 265
f 227 265 263
f 228 264 229
f 229 266 267
f 229 267 230
f 229 264 266
f 230 267 268
f 230 268 236
f 230 236 232
f 230 232 231
f 232 235 233
f 234 257 269
f 234 269 265
f 236 268 270
f 236 270 237
f 241 245 271
f 241 271 244
f 241 244 242
f 244 271 245
f 246 250 247
f 247 250 248
f 248 250 251
f 250 272 273
f 250 273 274
f 250 274 252
f 250 252 251
f 252 274 273
f 252 273 255
f 253 275 276
f 254 255 273
f 254 273 256
f 256 273 277
f 256 277 259
f 257 258 278
f 257 278 279
f 257 279 269
f 258 280 278
f 258 262 281
f 258 281 280
f 259 277 272
f 259 272 282
f 259 282 281
f 259 281 260
f 260 281 261
f 261 281 262
f 263 283 264
f 263 265 284
f 263 284 285
f 263 285 283
f 264 283 286
f 264 286 266
f 265 269 279
f 265 279 287
f 265 287 288
f 265 288 284
f 266 286 289
f 266 289 290
f 266 290 267
f 267 290 291
f 267 291 268
f 268 291 292
f 268 292 293
f 268 293 294
f 268 294 270
f 272 277 295
f 272 295 273
f 273 295 277
f 275 296 297
f 275 297 298
f 275 298 299
f 275 299 300
f 275 300 276
f 278 301 302
f 278 302 303
f 278 303 279
f 278 280 304
f 278 304 305
f 278 305 301
f 279 303 306
f 279 306 307
f 279 307 287
f 280 281 304
f 281 305 304
f 283 285 308
f 283 308 309
f 283 309 310
f 283 310 286
f 284 288 311
f 284 311 312
f 284 312 313
f 284 313 314
f 284 314 308
f 284 308 285
f 286 310 315
f 286 315 316
f 286 316 317
f 286 317 318
f 286 318 319
f 286 319 289
f 287 307 320
f 287 320 321
f 287 321 311
f 287 311 288
f 289 319 294
f 289 294 290
f 290 294 293
f 290 293 291
f 291 293 292
f 294 319 318
f 294 318 322
f 296 323 297
f 297 323 324
f 297 324 325
f 297 325 326
f 297 326 298
f 301 306 302
f 301 305 306
f 302 306 303
f 305 327 306
f 306 328 320
f 306 320 307
f 306 327 328
f 308 329 309
f 308 314 330
f 308 330 331
f 308 331 332
f 308 332 329
f 309 329 310
f 310 329 315
f 311 321 333
f 311 333 312
f 312 334 313
f 312 333 335
f 312 335 336
f 312 336 334
f 313 334 336
f 313 336 314
f 314 336 330
f 315 329 337
f 315 337 316
f 316 337 317
f 317 338 339
f 317 339 322
f 317 322 318
f 317 337 338
f 320 328 340
f 320 340 341
f 320 341 342
f 320 342 321
f 321 342 333
f 324 343 325
f 325 343 344
f 325 344 345
f 325 345 346
f 325 346 347
f 325 347 348
f 325 348 326
f 327 349 340
f 327 340 328
f 329 350 338
f 329 338 337
f 329 332 351
f 329 351 350
f 330 336 335
f 330 335 352
f 330 352 353
f 330 353 354
f 330 354 331
f 331 354 355
f 331 355 356
f 331 356 357
f 331 357 332
f 332 357 351
f 333 342 358
f 333 358 335
f 335 359 360
f 335 360 361
f 335 361 362
f 335 362 352
f 335 358 359
f 338 350 351
f 338 351 364
f 338 364 365
f 338 365 366
f 338 366 363
f 340 367 368
f 340 368 369
f 340 369 341
f 340 349 367
f 341 370 342
f 341 369 371
f 341 371 370
f 342 370 358
f 344 372 373
f 344 373 345
f 345 373 374
f 345 374 346
f 346 374 375
f 346 375 376
f 346 376 377
f 346 377 378
f 346 378 348
f 346 348 347
f 349 379 368
f 349 368 367
f 351 357 364
f 352 380 353
f 352 362 381
f 352 381 382
f 352 382 383
f 352 383 380
f 353 380 354
f 354 380 355
f 355 380 384
f 355 384 356
f 356 384 385
f 356 385 386
f 356 386 387
f 356 387 364
f 356 364 357
f 358 370 388
f 358 388 389
f 358 389 359
f 359 389 390
f 359 390 360
f 360 390 391
f 360 391 392
f 360 392 393
f 360 393 361
f 361 393 394
f 361 394 381
f 361 381 362
f 363 366 395
f 363 395 396
f 363 396 397
f 363 397 398
f 364 387 366
f 364 366 365
f 366 387 386
f 366 386 399
f 366 399 400
f 366 400 396
f 366 396 395
f 368 401 402
f 368 402 371
f 368 371 369
f 368 379 401
f 370 371 388
f 371 402 390
f 371 390 388
f 372 403 374
f 372 374 373
f 374 403 375
f 375 404 405
f 375 405 376
f 376 406 407
f 376 407 377
f 376 405 406
f 377 407 409
f 377 409 410
f 377 410 411
f 377 411 408
f 379 412 401
f 380 413 384
f 380 383 414
f 380 414 415
f 380 415 416
f 380 416 417
f 380 417 413
f 381 394 418
f 381 418 382
f 382 418 419
f 382 419 420
f 382 420 383
f 383 420 421
f 383 421 414
f 384 413 385
f 385 413 422
f 385 422 386
f 386 423 424
f 386 424 399
f 386 422 425
f 386 425 423
f 388 390 389
f 390 402 426
f 390 426 391
f 391 426 427
f 391 427 392
f 392 427 428
f 392 428 429
f 392 429 393
f 393 429 394
f 394 429 430
f 394 430 418
f 396 400 431
f 396 431 432
f 396 432 397
f 397 432 398
f 398 432 433
f 398 433 434
f 399 424 431
f 399 431 400
f 401 435 402
f 401 412 435
f 402 435 426
f 404 436 437
f 404 437 405
f 405 437 438
f 405 438 439
f 405 439 406
f 406 439 409
f 406 409 407
f 408 411 440
f 409 439 441
f 409 441 411
f 409 411 410
f 411 441 442
f 411 442 440
f 412 443 435
f 413 417 444
f 413 444 425
f 413 425 422
f 414 421 445
f 414 445 415
f 415 445 446
f 415 446 416
f 416 446 447
f 416 447 417
f 417 447 448
f 417 448 449
f 417 449 444
f 418 450 419
f 419 450 451
f 419 451 420
f 420 451 452
f 420 452 453
f 420 453 421
f 421 453 445
f 423 454 455
f 423 455 431
f 423 431 424
f 423 425 456
f 423 456 457
f 423 457 458
f 423 458 454
f 425 444 456
f 426 435 459
f 426 459 427
f 427 459 428
f 431 455 433
f 431 433 432
f 433 455 460
f 433 460 434
f 435 443 459
f 436 461 444
f 436 444 437
f 437 462 448
f 437 448 442
f 437 442 438
f 437 444 462
f 438 442 441
f 438 441 439
f 440 442 463
f 442 448 447
f 442 447 464
f 442 464 465
f 442 465 463
f 444 461 456
f 444 449 448
f 444 448 462
f 445 453 466
f 445 466 446
f 446 466 467
f 446 467 447
f 447 467 465
f 447 465 464
f 452 466 453
f 454 468 460
f 454 460 455
f 454 458 468
f 456 461 457
f 457 461 458

