# https://github.com/mikedh/trimesh
v -0.00247568 0.03133686 -0.01330770
v -0.00267381 0.03133686 -0.01328302
v -0.00247568 0.03168276 -0.01328373
v -0.00247568 0.03133686 -0.00610366
v -0.00267381 0.03168276 -0.01325199
v -0.00321274 0.03133686 -0.01314692
v -0.00247568 0.03221453 -0.01322520
v -0.00247568 0.03803676 -0.00610366
v -0.00374703 0.03133686 -0.00610366
v -0.00267381 0.03221453 -0.01318289
v -0.00322360 0.03166109 -0.01309403
v -0.00352758 0.03133686 -0.01304185
v -0.00247568 0.03273512 -0.01314833
v -0.00247568 0.03839872 -0.00704154
v -0.00257338 0.03801859 -0.00610366
v -0.00524947 0.03289094 -0.00610366
v -0.00634596 0.03133686 -0.00747522
v -0.00304719 0.03221453 -0.01306230
v -0.00268583 0.03272743 -0.01309192
v -0.00341281 0.03182461 -0.01299390
v -0.00378890 0.03133686 -0.01291704
v -0.00247568 0.03327947 -0.01305384
v -0.00247568 0.03841410 -0.00711982
v -0.00294483 0.03781035 -0.00610366
v -0.00280718 0.03790678 -0.00610366
v -0.00267381 0.03799972 -0.00610366
v -0.00532158 0.03308241 -0.00610366
v -0.00641807 0.03133686 -0.00782922
v -0.00539564 0.03327947 -0.00610366
v -0.00296499 0.03253666 -0.01303127
v -0.00249002 0.03327947 -0.01304961
v -0.00331355 0.03221453 -0.01294101
v -0.00287155 0.03289164 -0.01299108
v -0.00424914 0.03133686 -0.01263849
v -0.00369818 0.03166109 -0.01287473
v -0.00247568 0.03332698 -0.01304397
v -0.00247568 0.03847489 -0.00748228
v -0.00249429 0.03845043 -0.00743080
v -0.00294483 0.03781035 -0.00636669
v -0.00310379 0.03753713 -0.00636669
v -0.00394128 0.03609694 -0.00610366
v -0.00643591 0.03133686 -0.00795968
v -0.00518666 0.03386155 -0.00610366
v -0.00376719 0.03222151 -0.01266106
v -0.00316777 0.03272743 -0.01287190
v -0.00247568 0.03361418 -0.01296569
v -0.00275600 0.03327947 -0.01293255
v -0.00247568 0.03382591 -0.01290716
v -0.00449069 0.03133686 -0.01246220
v -0.00449844 0.03134315 -0.01245444
v -0.00414755 0.03168276 -0.01259125
v -0.00247568 0.03843785 -0.00782005
v -0.00273856 0.03806960 -0.00743080
v -0.00294095 0.03780476 -0.00664947
v -0.00394089 0.03609624 -0.00636669
v -0.00409443 0.03583071 -0.00610366
v -0.00409443 0.03583001 -0.00636669
v -0.00613930 0.03196017 -0.00768819
v -0.00613930 0.03196017 -0.00773966
v -0.00638822 0.03133686 -0.00831085
v -0.00509050 0.03404253 -0.00610366
v -0.00518666 0.03386225 -0.00635541
v -0.00560850 0.03302791 -0.00711770
v -0.00361094 0.03274700 -0.01258984
v -0.00322980 0.03328016 -0.01265401
v -0.00268350 0.03432204 -0.01262580
v -0.00247568 0.03487618 -0.01256022
v -0.00247568 0.03433812 -0.01273863
v -0.00451085 0.03133686 -0.01244528
v -0.00476985 0.03133686 -0.01219282
v -0.00441353 0.03168276 -0.01237194
v -0.00396377 0.03240320 -0.01245162
v -0.00405566 0.03204892 -0.01252637
v -0.00247568 0.03842108 -0.00796320
v -0.00268699 0.03806960 -0.00796320
v -0.00291846 0.03776563 -0.00743080
v -0.00293203 0.03778939 -0.00700417
v -0.00408164 0.03580695 -0.00689910
v -0.00421540 0.03561688 -0.00610366
v -0.00433250 0.03540795 -0.00636669
v -0.00431078 0.03540795 -0.00689910
v -0.00449961 0.03507603 -0.00689910
v -0.00560850 0.03302791 -0.00725662
v -0.00559377 0.03299926 -0.00761132
v -0.00540107 0.03327947 -0.00796320
v -0.00557283 0.03296082 -0.00796320
v -0.00571551 0.03269459 -0.00796320
v -0.00532973 0.03327947 -0.00849561
v -0.00553638 0.03289164 -0.00849561
v -0.00611410 0.03191265 -0.00809507
v -0.00636185 0.03133686 -0.00849561
v -0.00507034 0.03408027 -0.00610366
v -0.00507034 0.03408027 -0.00616995
v -0.00506646 0.03407398 -0.00652465
v -0.00520721 0.03379726 -0.00689910
v -0.00352060 0.03310337 -0.01252567
v -0.00305804 0.03381194 -0.01257221
v -0.00249390 0.03487618 -0.01254964
v -0.00247568 0.03494396 -0.01253624
v -0.00501916 0.03133686 -0.01193121
v -0.00468184 0.03168276 -0.01210538
v -0.00387731 0.03274700 -0.01236559
v -0.00247568 0.03841619 -0.00798788
v -0.00261991 0.03806960 -0.00849561
v -0.00285991 0.03766361 -0.00849561
v -0.00289210 0.03771951 -0.00796320
v -0.00347834 0.03674890 -0.00774389
v -0.00366444 0.03647219 -0.00743080
v -0.00391143 0.03604384 -0.00743080
v -0.00427783 0.03540795 -0.00743080
v -0.00448410 0.03504947 -0.00743080
v -0.00433250 0.03540795 -0.00610366
v -0.00450852 0.03509070 -0.00636669
v -0.00442206 0.03524723 -0.00610366
v -0.00464772 0.03481049 -0.00689910
v -0.00463415 0.03478394 -0.00743080
v -0.00487725 0.03434371 -0.00743080
v -0.00504591 0.03403555 -0.00743080
v -0.00548133 0.03323474 -0.00743291
v -0.00482452 0.03434371 -0.00796320
v -0.00501877 0.03398593 -0.00796320
v -0.00516300 0.03371970 -0.00796320
v -0.00498543 0.03392164 -0.00849561
v -0.00455040 0.03463440 -0.00882492
v -0.00509593 0.03359671 -0.00888275
v -0.00567790 0.03262541 -0.00849561
v -0.00622654 0.03159191 -0.00849561
v -0.00563913 0.03255274 -0.00892788
v -0.00626027 0.03133686 -0.00902801
v -0.00494937 0.03429270 -0.00635541
v -0.00465508 0.03482587 -0.00636669
v -0.00506065 0.03406350 -0.00689910
v -0.00342289 0.03345835 -0.01244457
v -0.00296964 0.03413058 -0.01251015
v -0.00247568 0.03520670 -0.01241284
v -0.00504940 0.03133686 -0.01189665
v -0.00503389 0.03134874 -0.01190935
v -0.00414174 0.03274700 -0.01209974
v -0.00458762 0.03204752 -0.01201089
v -0.00405062 0.03310267 -0.01200595
v -0.00373966 0.03328016 -0.01222526
v -0.00247568 0.03830858 -0.00849561
v -0.00247568 0.03820586 -0.00890108
v -0.00281726 0.03758744 -0.00902801
v -0.00399246 0.03565252 -0.00866414
v -0.00442206 0.03494256 -0.00849561
v -0.00445618 0.03500196 -0.00796320
v -0.00422277 0.03540795 -0.00796320
v -0.00460817 0.03473712 -0.00796320
v -0.00457444 0.03467702 -0.00849561
v -0.00475706 0.03434371 -0.00849561
v -0.00294134 0.03727299 -0.00929880
v -0.00439221 0.03483774 -0.00901250
v -0.00451046 0.03456312 -0.00917962
v -0.00465353 0.03436886 -0.00901250
v -0.00495673 0.03378888 -0.00904705
v -0.00505599 0.03352124 -0.00923745
v -0.00559842 0.03247587 -0.00928258
v -0.00614085 0.03143050 -0.00932489
v -0.00617342 0.03133686 -0.00939541
v -0.00359504 0.03381194 -0.01208282
v -0.00332441 0.03381194 -0.01234867
v -0.00247568 0.03542542 -0.01229437
v -0.00525141 0.03133686 -0.01161458
v -0.00395834 0.03345765 -0.01189383
v -0.00350470 0.03413547 -0.01199044
v -0.00247568 0.03815834 -0.00904423
v -0.00252608 0.03809266 -0.00899205
v -0.00249235 0.03794172 -0.00956042
v -0.00276957 0.03748472 -0.00950965
v -0.00289830 0.03719682 -0.00965350
v -0.00423983 0.03487618 -0.00956042
v -0.00446355 0.03447927 -0.00956042
v -0.00461011 0.03421304 -0.00956042
v -0.00482452 0.03381194 -0.00956042
v -0.00501722 0.03344787 -0.00956042
v -0.00610750 0.03133686 -0.00966901
v -0.00249817 0.03583560 -0.01204967
v -0.00247568 0.03579647 -0.01209269
v -0.00548947 0.03133686 -0.01122462
v -0.00506918 0.03194969 -0.01142348
v -0.00513897 0.03168276 -0.01152221
v -0.00462252 0.03264637 -0.01154618
v -0.00408358 0.03369175 -0.01153842
v -0.00387924 0.03384618 -0.01170485
v -0.00340544 0.03449045 -0.01186562
v -0.00295103 0.03516128 -0.01196717
v -0.00247568 0.03796897 -0.00956042
v -0.00247568 0.03791377 -0.00968946
v -0.00247568 0.03777751 -0.00998846
v -0.00345391 0.03617381 -0.00975152
v -0.00400991 0.03515080 -0.00984319
v -0.00456397 0.03412778 -0.00991371
v -0.00510640 0.03308451 -0.00994192
v -0.00609781 0.03134944 -0.00967959
v -0.00609471 0.03133686 -0.00971062
v -0.00247568 0.03584818 -0.01206448
v -0.00247568 0.03613188 -0.01188255
v -0.00453024 0.03300135 -0.01141079
v -0.00555965 0.03133686 -0.01108570
v -0.00398703 0.03404603 -0.01138963
v -0.00353301 0.03471825 -0.01151092
v -0.00247568 0.03647219 -0.01161811
v -0.00247568 0.03766710 -0.01020001
v -0.00255904 0.03756997 -0.01010834
v -0.00294405 0.03674541 -0.01036713
v -0.00410102 0.03487478 -0.01004910
v -0.00439919 0.03432065 -0.01009141
v -0.00450697 0.03402157 -0.01026841
v -0.00466400 0.03383150 -0.01009141
v -0.00564921 0.03203983 -0.00996801
v -0.00596211 0.03133686 -0.01013443
v -0.00562324 0.03133686 -0.01095948
v -0.00560618 0.03142630 -0.01090095
v -0.00446665 0.03331930 -0.01120276
v -0.00419408 0.03384618 -0.01119007
v -0.00288085 0.03609974 -0.01130431
v -0.00297933 0.03574476 -0.01148060
v -0.00407543 0.03420395 -0.01103493
v -0.00247568 0.03659797 -0.01151939
v -0.00247568 0.03738549 -0.01062382
v -0.00405333 0.03469659 -0.01046938
v -0.00395330 0.03505087 -0.01019789
v -0.00273739 0.03695574 -0.01057657
v -0.00416500 0.03436677 -0.01063792
v -0.00444804 0.03383150 -0.01066119
v -0.00460003 0.03366729 -0.01050817
v -0.00504785 0.03297340 -0.01029662
v -0.00576359 0.03172189 -0.01012385
v -0.00558873 0.03192523 -0.01032271
v -0.00577135 0.03133686 -0.01062382
v -0.00506569 0.03247447 -0.01088261
v -0.00461786 0.03316836 -0.01105538
v -0.00452481 0.03352334 -0.01086287
v -0.00247568 0.03698300 -0.01112308
v -0.00247568 0.03693408 -0.01117738
v -0.00397579 0.03455893 -0.01082409
v -0.00296770 0.03625627 -0.01094961
v -0.00247568 0.03702143 -0.01107936
v -0.00286883 0.03661055 -0.01072184
v -0.00514090 0.03261842 -0.01052791
v -0.00471751 0.03331930 -0.01066119
f 1 2 3
f 1 3 7
f 1 7 13
f 1 13 22
f 1 22 36
f 1 36 46
f 1 46 48
f 1 48 68
f 1 68 67
f 1 67 99
f 1 99 135
f 1 135 163
f 1 163 179
f 1 179 197
f 1 197 198
f 1 198 203
f 1 203 220
f 1 220 236
f 1 236 235
f 1 235 239
f 1 239 221
f 1 221 204
f 1 204 190
f 1 190 189
f 1 189 188
f 1 188 167
f 1 167 143
f 1 143 142
f 1 142 103
f 1 103 74
f 1 74 52
f 1 52 37
f 1 37 23
f 1 23 14
f 1 14 8
f 1 8 4
f 1 4 9
f 1 9 17
f 1 17 28
f 1 28 42
f 1 42 60
f 1 60 91
f 1 91 129
f 1 129 160
f 1 160 177
f 1 177 196
f 1 196 212
f 1 212 231
f 1 231 213
f 1 213 200
f 1 200 180
f 1 180 164
f 1 164 136
f 1 136 100
f 1 100 70
f 1 70 69
f 1 69 49
f 1 49 34
f 1 34 21
f 1 21 12
f 1 12 6
f 1 6 2
f 2 5 3
f 2 6 5
f 3 5 7
f 4 8 15
f 4 15 26
f 4 26 25
f 4 25 24
f 4 24 41
f 4 41 56
f 4 56 79
f 4 79 112
f 4 112 114
f 4 114 92
f 4 92 61
f 4 61 43
f 4 43 29
f 4 29 27
f 4 27 16
f 4 16 9
f 5 6 10
f 5 10 7
f 6 11 10
f 6 12 11
f 7 10 13
f 8 14 15
f 9 16 17
f 10 11 18
f 10 18 19
f 10 19 13
f 11 12 18
f 12 20 18
f 12 21 20
f 13 19 22
f 14 23 24
f 14 24 25
f 14 25 26
f 14 26 15
f 16 27 17
f 17 27 29
f 17 29 28
f 18 20 30
f 18 30 19
f 19 30 31
f 19 31 22
f 20 32 33
f 20 33 30
f 20 21 32
f 21 34 35
f 21 35 32
f 22 31 36
f 23 37 38
f 23 38 24
f 24 39 40
f 24 40 41
f 24 38 39
f 28 29 43
f 28 43 42
f 30 33 31
f 31 33 36
f 32 35 34
f 32 34 44
f 32 44 45
f 32 45 33
f 33 46 36
f 33 45 47
f 33 47 48
f 33 48 46
f 34 49 50
f 34 50 51
f 34 51 44
f 37 52 53
f 37 53 38
f 38 53 54
f 38 54 39
f 39 54 40
f 40 55 41
f 40 54 55
f 41 55 57
f 41 57 56
f 42 43 58
f 42 58 59
f 42 59 60
f 43 61 62
f 43 62 63
f 43 63 58
f 44 51 64
f 44 64 45
f 45 64 65
f 45 65 47
f 47 65 66
f 47 66 67
f 47 67 68
f 47 68 48
f 49 69 50
f 50 69 70
f 50 70 71
f 50 71 72
f 50 72 73
f 50 73 51
f 51 73 64
f 52 74 53
f 53 74 75
f 53 75 76
f 53 76 77
f 53 77 54
f 54 77 78
f 54 78 55
f 55 78 57
f 56 57 79
f 57 80 79
f 57 78 81
f 57 81 82
f 57 82 80
f 58 63 83
f 58 83 59
f 59 83 84
f 59 84 85
f 59 85 86
f 59 86 87
f 59 87 88
f 59 88 89
f 59 89 90
f 59 90 60
f 60 90 91
f 61 92 93
f 61 93 62
f 62 93 94
f 62 94 95
f 62 95 83
f 62 83 63
f 64 73 96
f 64 96 65
f 65 96 97
f 65 97 98
f 65 98 66
f 66 98 67
f 67 98 99
f 70 100 101
f 70 101 71
f 71 101 102
f 71 102 72
f 72 96 73
f 72 102 96
f 74 103 75
f 75 103 104
f 75 104 105
f 75 105 106
f 75 106 76
f 76 106 107
f 76 107 108
f 76 108 77
f 77 108 109
f 77 109 78
f 78 109 110
f 78 110 111
f 78 111 81
f 79 80 112
f 80 113 93
f 80 93 114
f 80 114 112
f 80 82 115
f 80 115 113
f 81 111 82
f 82 111 116
f 82 116 115
f 83 117 118
f 83 118 119
f 83 119 84
f 83 95 117
f 84 119 118
f 84 118 120
f 84 120 121
f 84 121 122
f 84 122 85
f 85 122 123
f 85 123 86
f 86 123 88
f 86 88 87
f 88 123 124
f 88 124 125
f 88 125 89
f 89 126 90
f 89 125 126
f 90 126 127
f 90 127 91
f 91 127 125
f 91 125 128
f 91 128 129
f 92 114 93
f 93 130 94
f 93 113 131
f 93 131 130
f 94 131 115
f 94 115 132
f 94 132 95
f 94 130 131
f 95 132 117
f 96 102 133
f 96 133 134
f 96 134 97
f 97 134 99
f 97 99 98
f 99 134 135
f 100 136 137
f 100 137 101
f 101 138 102
f 101 137 139
f 101 139 138
f 102 138 140
f 102 140 141
f 102 141 133
f 103 142 104
f 104 142 143
f 104 143 105
f 105 143 144
f 105 144 145
f 105 145 146
f 105 146 147
f 105 147 148
f 105 148 107
f 105 107 106
f 107 111 110
f 107 110 109
f 107 109 108
f 107 148 147
f 107 147 149
f 107 149 111
f 111 149 116
f 113 115 131
f 115 116 132
f 116 149 117
f 116 117 132
f 117 149 120
f 117 120 118
f 120 149 150
f 120 150 151
f 120 151 121
f 121 151 122
f 122 151 123
f 123 151 124
f 124 151 150
f 124 150 145
f 124 145 144
f 124 144 152
f 124 152 153
f 124 153 154
f 124 154 155
f 124 155 125
f 125 155 156
f 125 156 157
f 125 157 128
f 125 127 126
f 128 157 129
f 129 157 158
f 129 158 159
f 129 159 160
f 133 141 161
f 133 161 162
f 133 162 135
f 133 135 134
f 135 162 163
f 136 164 165
f 136 165 137
f 137 140 139
f 137 165 140
f 138 139 140
f 140 166 161
f 140 161 141
f 140 165 166
f 143 167 168
f 143 168 144
f 144 168 169
f 144 169 152
f 145 150 146
f 146 150 149
f 146 149 147
f 152 169 170
f 152 170 171
f 152 171 154
f 152 154 153
f 154 171 172
f 154 172 173
f 154 173 174
f 154 174 155
f 155 174 156
f 156 174 157
f 157 174 175
f 157 175 176
f 157 176 158
f 158 160 159
f 158 176 177
f 158 177 160
f 161 166 178
f 161 178 162
f 162 178 163
f 163 178 179
f 164 180 181
f 164 181 182
f 164 182 165
f 165 182 183
f 165 183 184
f 165 184 185
f 165 185 186
f 165 186 166
f 166 187 178
f 166 186 187
f 167 188 169
f 167 169 168
f 169 188 189
f 169 189 170
f 170 189 171
f 171 189 190
f 171 190 191
f 171 191 172
f 172 191 192
f 172 192 173
f 173 192 193
f 173 193 174
f 174 193 175
f 175 193 177
f 175 177 176
f 177 193 194
f 177 194 195
f 177 195 196
f 178 197 179
f 178 187 198
f 178 198 197
f 180 199 181
f 180 200 199
f 181 199 184
f 181 184 183
f 181 183 182
f 184 199 201
f 184 201 202
f 184 202 185
f 185 202 186
f 186 203 198
f 186 198 187
f 186 202 203
f 190 204 205
f 190 205 192
f 190 192 191
f 192 205 204
f 192 204 206
f 192 206 207
f 192 207 193
f 193 207 208
f 193 208 209
f 193 209 210
f 193 210 194
f 194 210 209
f 194 209 211
f 194 211 195
f 195 211 196
f 196 211 212
f 199 200 213
f 199 213 214
f 199 214 215
f 199 215 216
f 199 216 201
f 201 217 218
f 201 218 202
f 201 216 219
f 201 219 217
f 202 218 220
f 202 220 203
f 204 221 206
f 206 222 209
f 206 209 223
f 206 223 208
f 206 208 207
f 206 221 224
f 206 224 222
f 208 223 209
f 209 222 225
f 209 225 226
f 209 226 227
f 209 227 228
f 209 228 229
f 209 229 211
f 211 229 212
f 212 229 228
f 212 228 230
f 212 230 231
f 213 231 214
f 214 231 232
f 214 232 233
f 214 233 215
f 215 233 234
f 215 234 216
f 216 234 219
f 217 220 218
f 217 219 235
f 217 235 236
f 217 236 220
f 219 234 226
f 219 226 237
f 219 237 238
f 219 238 239
f 219 239 235
f 221 239 238
f 221 238 240
f 221 240 222
f 221 222 224
f 222 240 225
f 225 240 237
f 225 237 226
f 226 234 227
f 227 241 230
f 227 230 228
f 227 234 242
f 227 242 241
f 230 241 231
f 231 241 242
f 231 242 232
f 232 234 233
f 232 242 234
f 237 240 238

