# https://github.com/mikedh/trimesh
v 0.00052986 0.01879990 -0.00716075
v 0.00091012 0.01566492 -0.00716075
v 0.00052299 0.01879990 -0.00732353
v -0.01048253 0.01879990 -0.00716075
v 0.00089523 0.01566492 -0.00743078
v 0.00051841 0.01879990 -0.00743078
v -0.01079062 0.01566492 -0.00716075
v -0.01046649 0.01879990 -0.00743078
v -0.01057874 0.01784247 -0.00716075
v 0.00084025 0.01566492 -0.00779513
v 0.00034432 0.01879990 -0.00902759
v 0.00036036 0.01879990 -0.00892008
v 0.00042335 0.01879990 -0.00849551
v 0.00043480 0.01879990 -0.00838799
v 0.00047718 0.01879990 -0.00796314
v 0.00048634 0.01879990 -0.00785590
v -0.01076084 0.01598375 -0.00716075
v -0.01077802 0.01566492 -0.00738101
v -0.01041953 0.01879990 -0.00794362
v -0.01046077 0.01837489 -0.00796314
v -0.01051460 0.01784247 -0.00796314
v -0.01056270 0.01784247 -0.00743078
v -0.01060508 0.01758009 -0.00716075
v 0.00083109 0.01566492 -0.00783885
v 0.00022291 0.01879990 -0.00966638
v 0.00027445 0.01879990 -0.00940019
v 0.00028934 0.01879990 -0.00932182
v -0.01071045 0.01651587 -0.00716075
v -0.01072076 0.01624582 -0.00743078
v -0.01077459 0.01566492 -0.00743078
v -0.01040464 0.01879990 -0.00809706
v -0.01062111 0.01677824 -0.00796314
v -0.01039777 0.01870170 -0.00826810
v -0.01066922 0.01677824 -0.00743078
v -0.01065776 0.01704829 -0.00716075
v 0.00018054 0.01784247 -0.00996996
v 0.00024010 0.01784247 -0.00975960
v 0.00014618 0.01879990 -0.00996996
v 0.00052872 0.01566492 -0.00812153
v -0.00004280 0.01726524 -0.00996996
v -0.01067265 0.01624582 -0.00796314
v -0.01072648 0.01566492 -0.00796314
v -0.01037143 0.01879990 -0.00837066
v -0.01038746 0.01806679 -0.00873474
v -0.01055468 0.01677824 -0.00849551
v -0.01060737 0.01624582 -0.00849551
v -0.01003127 0.01879990 -0.00996996
v -0.00259461 0.01566492 -0.00996996
v -0.01065776 0.01571371 -0.00849551
v -0.01066234 0.01566492 -0.00849551
v -0.01072076 0.01566492 -0.00801181
v -0.01035081 0.01879990 -0.00849578
v -0.01033936 0.01879990 -0.00856425
v -0.01026033 0.01879990 -0.00902759
v -0.01030386 0.01837489 -0.00902759
v -0.01035654 0.01787070 -0.00901990
v -0.01042526 0.01731035 -0.00895005
v -0.01051803 0.01624582 -0.00902759
v -0.01056957 0.01571371 -0.00902759
v -0.01012747 0.01784247 -0.00996996
v -0.01038059 0.01587113 -0.00978627
v -0.01036341 0.01624582 -0.00971615
v -0.01011602 0.01879990 -0.00966720
v -0.01034394 0.01566492 -0.00996996
v -0.01065433 0.01566492 -0.00854390
v -0.01023743 0.01879990 -0.00913484
v -0.01039090 0.01704123 -0.00929185
v -0.01045046 0.01682949 -0.00907957
v -0.01057415 0.01566492 -0.00902759
v -0.01033593 0.01575391 -0.00996996
v -0.01043786 0.01566492 -0.00964025
v -0.01045160 0.01566492 -0.00958718
v -0.01043099 0.01624582 -0.00944997
v -0.01040923 0.01668649 -0.00936445
v -0.01024315 0.01784247 -0.00955968
v -0.01018932 0.01837489 -0.00955968
v -0.01014580 0.01879990 -0.00955968
v -0.01056385 0.01566492 -0.00907599
f 1 2 3
f 1 3 6
f 1 6 16
f 1 16 15
f 1 15 14
f 1 14 13
f 1 13 12
f 1 12 11
f 1 11 27
f 1 27 26
f 1 26 25
f 1 25 38
f 1 38 47
f 1 47 63
f 1 63 77
f 1 77 66
f 1 66 54
f 1 54 53
f 1 53 52
f 1 52 43
f 1 43 31
f 1 31 19
f 1 19 8
f 1 8 4
f 1 4 9
f 1 9 23
f 1 23 35
f 1 35 28
f 1 28 17
f 1 17 7
f 1 7 2
f 2 5 6
f 2 6 3
f 2 7 18
f 2 18 30
f 2 30 42
f 2 42 51
f 2 51 50
f 2 50 65
f 2 65 69
f 2 69 78
f 2 78 72
f 2 72 71
f 2 71 64
f 2 64 48
f 2 48 39
f 2 39 24
f 2 24 10
f 2 10 5
f 4 8 22
f 4 22 9
f 5 10 11
f 5 11 12
f 5 12 13
f 5 13 14
f 5 14 15
f 5 15 16
f 5 16 6
f 7 17 18
f 8 19 20
f 8 20 21
f 8 21 22
f 9 22 23
f 10 24 25
f 10 25 26
f 10 26 27
f 10 27 11
f 17 28 29
f 17 29 18
f 18 29 30
f 19 31 20
f 20 31 21
f 21 32 34
f 21 34 22
f 21 31 33
f 21 33 32
f 22 34 23
f 23 34 35
f 24 36 37
f 24 37 38
f 24 38 25
f 24 39 40
f 24 40 36
f 28 35 34
f 28 34 29
f 29 34 32
f 29 32 41
f 29 41 42
f 29 42 30
f 31 43 33
f 32 33 41
f 33 43 44
f 33 44 45
f 33 45 46
f 33 46 41
f 36 40 48
f 36 48 64
f 36 64 70
f 36 70 60
f 36 60 47
f 36 47 38
f 36 38 37
f 39 48 40
f 41 49 50
f 41 50 51
f 41 51 42
f 41 46 49
f 43 52 44
f 44 52 53
f 44 53 54
f 44 54 55
f 44 55 56
f 44 56 57
f 44 57 58
f 44 58 46
f 44 46 45
f 46 58 59
f 46 59 49
f 47 60 61
f 47 61 62
f 47 62 63
f 49 65 50
f 49 59 65
f 54 66 67
f 54 67 55
f 55 67 56
f 56 67 68
f 56 68 57
f 57 68 58
f 58 68 67
f 58 67 59
f 59 69 65
f 59 67 69
f 60 70 61
f 61 70 64
f 61 64 71
f 61 71 62
f 62 71 72
f 62 72 73
f 62 73 74
f 62 74 75
f 62 75 76
f 62 76 63
f 63 76 77
f 66 77 67
f 67 74 69
f 67 77 76
f 67 76 74
f 69 74 78
f 72 78 73
f 73 78 74
f 74 76 75

