# https://github.com/mikedh/trimesh
v 0.00098214 0.01528400 -0.00530144
v 0.00098214 0.01528400 -0.00530471
v 0.00096043 0.01528400 -0.00487317
v 0.00113958 0.01411552 -0.00476922
v 0.00124952 0.01358781 -0.00530560
v 0.00099843 0.01518035 -0.00530560
v 0.00099707 0.01518506 -0.00530560
v 0.00082606 0.01528400 -0.00530560
v 0.00095500 0.01528400 -0.00476922
v 0.00107851 0.01411552 -0.00423669
v 0.00116130 0.01358428 -0.00423669
v 0.00121966 0.01358428 -0.00476922
v 0.00130517 0.01322737 -0.00530144
v 0.00130517 0.01322737 -0.00530560
v -0.01083943 0.01528400 -0.00530560
v 0.00086135 0.01528400 -0.00430797
v 0.00106629 0.01358428 -0.00370477
v 0.00115180 0.01305186 -0.00370477
v 0.00131195 0.01220848 -0.00401246
v 0.00123188 0.01305186 -0.00423669
v 0.00133638 0.01239106 -0.00436737
v 0.00131331 0.01274561 -0.00455300
v 0.00129159 0.01305658 -0.00474605
v 0.00133095 0.01288342 -0.00490791
v 0.00134317 0.01296116 -0.00530144
v 0.00134317 0.01296116 -0.00530560
v -0.01090187 0.01461259 -0.00530560
v -0.01083943 0.01528400 -0.00530144
v 0.00055733 0.01528400 -0.00403325
v 0.00036731 0.01393883 -0.00227174
v 0.00066455 0.01350065 -0.00227174
v 0.00070527 0.01342055 -0.00227174
v 0.00078670 0.01331925 -0.00237272
v 0.00103372 0.01305186 -0.00317254
v 0.00130245 0.01158890 -0.00352092
v 0.00121966 0.01251945 -0.00370477
v 0.00133503 0.01185393 -0.00387554
v 0.00143682 0.01145462 -0.00423669
v 0.00136353 0.01201295 -0.00420878
v 0.00129431 0.01254890 -0.00420878
v 0.00150332 0.01145462 -0.00476922
v 0.00143546 0.01198703 -0.00476922
v 0.00135946 0.01254890 -0.00474605
v 0.00147346 0.01199057 -0.00530560
v 0.00140424 0.01252298 -0.00530560
v -0.01094394 0.01415556 -0.00530560
v -0.01092087 0.01435228 -0.00513690
v -0.01083400 0.01528400 -0.00519749
v 0.00009994 0.01410020 -0.00227174
v -0.00246118 0.01528400 -0.00227174
v 0.00075413 0.01322973 -0.00227174
v 0.00080163 0.01305186 -0.00233559
v 0.00107036 0.01145462 -0.00264032
v 0.00101200 0.01198703 -0.00264032
v 0.00124138 0.01142871 -0.00321531
v 0.00132281 0.01123317 -0.00342113
v 0.00116537 0.01198703 -0.00317254
v 0.00110022 0.01251945 -0.00317254
v 0.00135403 0.01142871 -0.00370090
v 0.00128345 0.01201295 -0.00370090
v 0.00149654 0.01092220 -0.00423669
v 0.00156169 0.01092220 -0.00476922
v 0.00153861 0.01145462 -0.00530144
v 0.00153861 0.01145462 -0.00530560
v -0.01123982 0.01092220 -0.00530560
v -0.01123982 0.01092220 -0.00530144
v -0.01093715 0.01399772 -0.00487227
v -0.01080957 0.01528400 -0.00476922
v -0.01121132 0.01092220 -0.00476922
v -0.01039561 0.01528400 -0.00227174
v 0.00077449 0.01305186 -0.00227174
v 0.00082877 0.01256421 -0.00227174
v 0.00112330 0.01092220 -0.00264032
v 0.00132553 0.00967009 -0.00288415
v 0.00130788 0.01002464 -0.00294088
v 0.00129024 0.01038979 -0.00300473
v 0.00126173 0.01092220 -0.00309888
v 0.00133910 0.01092220 -0.00336500
v 0.00151282 0.00985738 -0.00370477
v 0.00146261 0.01038979 -0.00370477
v 0.00140967 0.01092220 -0.00370477
v 0.00160512 0.00985738 -0.00423669
v 0.00161462 0.01038979 -0.00476922
v 0.00164991 0.01039450 -0.00530560
v 0.00159562 0.01092574 -0.00530560
v -0.01128596 0.01038979 -0.00530560
v -0.01128596 0.01038979 -0.00530144
v -0.01125882 0.01038979 -0.00476922
v -0.01095887 0.01362904 -0.00472467
v -0.01101587 0.01305186 -0.00476922
v -0.01077293 0.01518035 -0.00423669
v -0.01076207 0.01528400 -0.00423669
v -0.01092222 0.01383635 -0.00451736
v -0.01121403 0.01038979 -0.00423669
v -0.01039697 0.01528400 -0.00227441
v -0.01039697 0.01527576 -0.00227174
v 0.00093600 0.01145462 -0.00227174
v 0.00117351 0.01038979 -0.00264032
v 0.00134045 0.00932496 -0.00284257
v 0.00165126 0.00666524 -0.00317254
v 0.00143682 0.00932496 -0.00317254
v 0.00137981 0.00985149 -0.00314017
v 0.00123730 0.00985149 -0.00268011
v 0.00136489 0.01038979 -0.00327114
v 0.00156169 0.00932496 -0.00370477
v 0.00165534 0.00932496 -0.00423669
v 0.00171777 0.00932496 -0.00476922
v 0.00170148 0.00986209 -0.00530560
v -0.01164428 0.00613283 -0.00530560
v -0.01135111 0.00932496 -0.00476922
v -0.01164428 0.00613283 -0.00530144
v -0.01146376 0.00808698 -0.00490613
v -0.01145291 0.00796094 -0.00455122
v -0.01092222 0.01330629 -0.00398276
v -0.01069828 0.01528400 -0.00370477
v -0.01074985 0.01528400 -0.00413274
v -0.01101859 0.01251945 -0.00423669
v -0.01120317 0.00985738 -0.00370477
v -0.01115567 0.01038979 -0.00370477
v -0.01146784 0.00760639 -0.00437331
v -0.01139862 0.00826249 -0.00423669
v -0.01145155 0.00741439 -0.00401840
v -0.01040919 0.01528400 -0.00231510
v -0.01040647 0.01518035 -0.00227174
v 0.00102965 0.01038979 -0.00227174
v 0.00124545 0.00932496 -0.00257646
v 0.00130517 0.00782784 -0.00241281
v 0.00131874 0.00747211 -0.00237272
v 0.00147618 0.00666524 -0.00264032
v 0.00166212 0.00613283 -0.00317254
v 0.00179649 0.00663226 -0.00374991
v 0.00174084 0.00719766 -0.00370477
v 0.00148839 0.00613283 -0.00264032
v 0.00183856 0.00678774 -0.00403919
v 0.00182228 0.00719766 -0.00414967
v 0.00186435 0.00719766 -0.00441608
v 0.00185078 0.00747447 -0.00449597
v 0.00185213 0.00802573 -0.00501068
v 0.00180056 0.00879372 -0.00530560
v 0.00175170 0.00932496 -0.00530560
v -0.01168906 0.00559688 -0.00530560
v -0.01143933 0.00826366 -0.00474486
v -0.01161985 0.00613283 -0.00476922
v -0.01157913 0.00613283 -0.00423669
v -0.01090322 0.01309780 -0.00368843
v -0.01100909 0.01198703 -0.00370477
v -0.01061142 0.01528400 -0.00317254
v -0.01091544 0.01269849 -0.00350013
v -0.01112445 0.00985738 -0.00317254
v -0.01134161 0.00826249 -0.00370477
v -0.01144476 0.00679717 -0.00352627
v -0.01093172 0.01234276 -0.00339291
v -0.01146648 0.00705866 -0.00388089
v -0.01047298 0.01528400 -0.00255181
v -0.01092630 0.01015303 -0.00236381
v -0.01041462 0.01518035 -0.00229906
v -0.01088829 0.01024255 -0.00227174
v 0.00111922 0.00932496 -0.00227174
v 0.00126173 0.00757223 -0.00227174
v 0.00130109 0.00705984 -0.00227174
v 0.00133095 0.00666524 -0.00227174
v 0.00134860 0.00666524 -0.00230916
v 0.00184535 0.00597381 -0.00399107
v 0.00180192 0.00614343 -0.00374991
v 0.00185213 0.00632836 -0.00395722
v 0.00185213 0.00643202 -0.00395722
v 0.00133910 0.00582422 -0.00232995
v 0.00139882 0.00570760 -0.00264032
v 0.00135403 0.00613283 -0.00229758
v 0.00188199 0.00663226 -0.00422452
v 0.00194443 0.00666524 -0.00476922
v 0.00198243 0.00666524 -0.00530144
v 0.00186028 0.00811054 -0.00530144
v 0.00183721 0.00838028 -0.00530560
v -0.01170535 0.00506800 -0.00476922
v -0.01166328 0.00560041 -0.00476922
v -0.01172843 0.00506800 -0.00530560
v -0.01172843 0.00506800 -0.00530144
v -0.01178543 0.00400317 -0.00476922
v -0.01162256 0.00560041 -0.00423669
v -0.01049469 0.01528400 -0.00263438
v -0.01067249 0.01464793 -0.00317254
v -0.01091544 0.01163602 -0.00294860
v -0.01145969 0.00644262 -0.00341905
v -0.01126289 0.00826249 -0.00317254
v -0.01115431 0.00826249 -0.00264032
v -0.01106202 0.00932496 -0.00264032
v -0.01101452 0.00985738 -0.00264032
v -0.01093172 0.01128147 -0.00286990
v -0.01089915 0.01198703 -0.00303681
v -0.01082450 0.01305186 -0.00317254
v -0.01138776 0.00773007 -0.00370477
v -0.01143119 0.00722121 -0.00370417
v -0.01148005 0.00663815 -0.00370417
v -0.01152212 0.00613283 -0.00370477
v -0.01156556 0.00560041 -0.00370477
v -0.01077428 0.01358428 -0.00317254
v -0.01096566 0.01035445 -0.00262814
v -0.01120046 0.00773007 -0.00264032
v -0.01129139 0.00666524 -0.00264032
v -0.01133618 0.00613283 -0.00264032
v -0.01093987 0.00985738 -0.00232104
v -0.01055713 0.01464793 -0.00264032
v -0.01091001 0.01000579 -0.00227174
v 0.00134045 0.00613283 -0.00227174
v 0.00188064 0.00579006 -0.00434599
v 0.00189014 0.00614343 -0.00419600
v 0.00166348 0.00560041 -0.00370477
v 0.00127531 0.00576532 -0.00227174
v 0.00058311 0.00325166 -0.00317254
v 0.00064826 0.00325166 -0.00333589
v 0.00148296 0.00555212 -0.00312710
v 0.00196343 0.00613283 -0.00476922
v 0.00200279 0.00613283 -0.00530560
v 0.00198243 0.00666524 -0.00530560
v 0.00186028 0.00811171 -0.00530560
v -0.01170671 0.00453558 -0.00423669
v -0.01182072 0.00325166 -0.00445588
v -0.01178814 0.00347193 -0.00423669
v -0.01186279 0.00325166 -0.00530560
v -0.01176778 0.00453558 -0.00530144
v -0.01185058 0.00325166 -0.00498840
v -0.01182479 0.00347193 -0.00476922
v -0.01142305 0.00613283 -0.00308314
v -0.01172843 0.00347193 -0.00370477
v -0.01147191 0.00613283 -0.00334926
v -0.01144476 0.00560041 -0.00296791
v -0.01137961 0.00560041 -0.00264032
v -0.01144476 0.00411743 -0.00242766
v -0.01123575 0.00613283 -0.00227174
v -0.01095480 0.00949811 -0.00227174
v -0.01092358 0.00985738 -0.00227174
v 0.00179106 0.00545906 -0.00476922
v 0.00190507 0.00572527 -0.00476922
v 0.00116130 0.00557803 -0.00227174
v 0.00036053 0.00325166 -0.00286069
v 0.00070391 0.00325166 -0.00379773
v 0.00192271 0.00568404 -0.00530560
v -0.01184108 0.00325166 -0.00476922
v -0.01180443 0.00325166 -0.00423669
v -0.00170248 0.00325166 -0.00530560
v -0.01174471 0.00325166 -0.00370477
v -0.01149362 0.00560041 -0.00323432
v -0.01145562 0.00532360 -0.00291088
v -0.01141897 0.00511511 -0.00265724
v -0.01142983 0.00453558 -0.00250191
v -0.01163885 0.00347193 -0.00317254
v -0.01154791 0.00325166 -0.00264032
v -0.01145698 0.00376288 -0.00236886
v -0.01133890 0.00484773 -0.00227174
v 0.00181278 0.00541430 -0.00530144
v 0.00192135 0.00568051 -0.00530144
v 0.00098486 0.00529416 -0.00227174
v 0.00089935 0.00517048 -0.00227174
v 0.00081113 0.00504797 -0.00227174
v 0.00069984 0.00490780 -0.00227174
v 0.00055868 0.00474643 -0.00227174
v -0.00002086 0.00325166 -0.00266229
v 0.00067676 0.00325166 -0.00423016
v 0.00181278 0.00541430 -0.00530560
v 0.00192135 0.00568051 -0.00530560
v -0.00163869 0.00326108 -0.00530560
v -0.00163869 0.00325166 -0.00529164
v -0.01169178 0.00325166 -0.00339173
v -0.01165378 0.00325166 -0.00317254
v -0.01150991 0.00325166 -0.00246241
v -0.01146784 0.00347193 -0.00233827
v -0.01141762 0.00385711 -0.00227174
v 0.00030624 0.00446844 -0.00227174
v 0.00018408 0.00434005 -0.00227174
v 0.00005515 0.00421519 -0.00227174
v -0.00022987 0.00394781 -0.00227174
v -0.00063026 0.00359208 -0.00227174
v -0.00053254 0.00325166 -0.00251201
v 0.00065640 0.00325166 -0.00434421
v 0.00158747 0.00506800 -0.00530560
v -0.00001679 0.00364980 -0.00530560
v 0.00019223 0.00325166 -0.00475852
v -0.01147462 0.00325166 -0.00231480
v -0.01146105 0.00325166 -0.00227174
v -0.01147326 0.00325166 -0.00230946
v -0.00152468 0.00325166 -0.00227174
v 0.00044468 0.00325166 -0.00468190
v 0.00113280 0.00448493 -0.00530560
v 0.00135810 0.00475114 -0.00530560
v 0.00027095 0.00372518 -0.00530560
v 0.00053697 0.00391954 -0.00530560
v 0.00086678 0.00418574 -0.00530560
f 1 2 8
f 1 8 15
f 1 15 28
f 1 28 48
f 1 48 68
f 1 68 92
f 1 92 116
f 1 116 115
f 1 115 147
f 1 147 181
f 1 181 154
f 1 154 123
f 1 123 95
f 1 95 70
f 1 70 50
f 1 50 29
f 1 29 16
f 1 16 9
f 1 9 3
f 1 3 4
f 1 4 5
f 1 5 2
f 2 5 6
f 2 6 7
f 2 7 8
f 3 9 4
f 4 10 11
f 4 11 12
f 4 12 13
f 4 13 5
f 4 9 10
f 5 13 14
f 5 14 26
f 5 26 45
f 5 45 44
f 5 44 64
f 5 64 85
f 5 85 84
f 5 84 108
f 5 108 140
f 5 140 139
f 5 139 174
f 5 174 216
f 5 216 215
f 5 215 214
f 5 214 238
f 5 238 261
f 5 261 260
f 5 260 276
f 5 276 285
f 5 285 284
f 5 284 288
f 5 288 287
f 5 287 286
f 5 286 277
f 5 277 262
f 5 262 241
f 5 241 220
f 5 220 177
f 5 177 141
f 5 141 109
f 5 109 86
f 5 86 65
f 5 65 46
f 5 46 27
f 5 27 15
f 5 15 8
f 5 8 7
f 5 7 6
f 9 16 10
f 10 17 18
f 10 18 11
f 10 16 17
f 11 18 19
f 11 19 20
f 11 20 21
f 11 21 22
f 11 22 23
f 11 23 12
f 12 23 24
f 12 24 13
f 13 24 25
f 13 25 26
f 13 26 14
f 15 27 28
f 16 29 30
f 16 30 31
f 16 31 32
f 16 32 33
f 16 33 17
f 17 33 34
f 17 34 18
f 18 35 36
f 18 36 37
f 18 37 19
f 18 34 35
f 19 37 38
f 19 38 39
f 19 39 21
f 19 21 40
f 19 40 20
f 20 40 21
f 21 39 38
f 21 38 41
f 21 41 22
f 22 41 42
f 22 42 43
f 22 43 23
f 23 43 24
f 24 43 42
f 24 42 44
f 24 44 45
f 24 45 25
f 25 45 26
f 27 46 47
f 27 47 28
f 28 47 48
f 29 49 30
f 29 50 49
f 30 49 50
f 30 50 70
f 30 70 96
f 30 96 124
f 30 124 157
f 30 157 204
f 30 204 232
f 30 232 231
f 30 231 230
f 30 230 250
f 30 250 268
f 30 268 280
f 30 280 282
f 30 282 273
f 30 273 272
f 30 272 271
f 30 271 270
f 30 270 269
f 30 269 257
f 30 257 256
f 30 256 255
f 30 255 254
f 30 254 253
f 30 253 235
f 30 235 209
f 30 209 205
f 30 205 161
f 30 161 160
f 30 160 159
f 30 159 158
f 30 158 125
f 30 125 97
f 30 97 72
f 30 72 71
f 30 71 51
f 30 51 32
f 30 32 31
f 32 51 33
f 33 51 52
f 33 52 53
f 33 53 54
f 33 54 55
f 33 55 56
f 33 56 57
f 33 57 58
f 33 58 34
f 34 58 56
f 34 56 35
f 35 56 59
f 35 59 37
f 35 37 60
f 35 60 36
f 36 60 37
f 37 59 61
f 37 61 38
f 38 61 41
f 41 62 63
f 41 63 44
f 41 44 42
f 41 61 62
f 44 63 64
f 46 65 66
f 46 66 47
f 47 67 68
f 47 68 48
f 47 66 69
f 47 69 67
f 51 71 52
f 52 71 72
f 52 72 53
f 53 73 74
f 53 74 75
f 53 75 76
f 53 76 77
f 53 77 56
f 53 56 55
f 53 55 54
f 53 72 73
f 56 78 79
f 56 79 80
f 56 80 81
f 56 81 59
f 56 58 57
f 56 77 76
f 56 76 78
f 59 81 61
f 61 82 62
f 61 81 82
f 62 82 83
f 62 83 84
f 62 84 85
f 62 85 63
f 63 85 64
f 65 86 87
f 65 87 66
f 66 87 110
f 66 110 88
f 66 88 69
f 67 89 68
f 67 69 90
f 67 90 89
f 68 91 92
f 68 89 93
f 68 93 91
f 69 94 93
f 69 93 90
f 69 88 94
f 70 95 96
f 72 97 73
f 73 98 74
f 73 97 98
f 74 99 100
f 74 100 101
f 74 101 102
f 74 102 75
f 74 98 103
f 74 103 99
f 75 102 104
f 75 104 76
f 76 104 78
f 78 104 105
f 78 105 79
f 79 105 106
f 79 106 82
f 79 82 80
f 80 82 81
f 82 106 107
f 82 107 83
f 83 107 108
f 83 108 84
f 86 109 111
f 86 111 87
f 87 111 112
f 87 112 110
f 88 110 113
f 88 113 94
f 89 90 93
f 91 114 115
f 91 115 116
f 91 116 92
f 91 93 117
f 91 117 114
f 93 94 117
f 94 118 119
f 94 119 114
f 94 114 117
f 94 113 120
f 94 120 121
f 94 121 122
f 94 122 118
f 95 123 124
f 95 124 96
f 97 125 126
f 97 126 98
f 98 126 103
f 99 103 126
f 99 126 127
f 99 127 128
f 99 128 129
f 99 129 100
f 100 130 131
f 100 131 132
f 100 132 101
f 100 129 133
f 100 133 130
f 101 132 105
f 101 105 104
f 101 104 102
f 105 132 134
f 105 134 106
f 106 134 135
f 106 135 136
f 106 136 137
f 106 137 107
f 107 137 138
f 107 138 139
f 107 139 140
f 107 140 108
f 109 141 111
f 110 112 142
f 110 142 113
f 111 141 112
f 112 141 143
f 112 143 142
f 113 142 143
f 113 143 144
f 113 144 120
f 114 145 115
f 114 119 146
f 114 146 145
f 115 145 148
f 115 148 147
f 118 149 119
f 118 122 150
f 118 150 151
f 118 151 149
f 119 149 152
f 119 152 148
f 119 148 146
f 120 144 122
f 120 122 121
f 122 144 153
f 122 153 150
f 123 154 155
f 123 155 156
f 123 156 124
f 124 156 155
f 124 155 157
f 125 158 128
f 125 128 127
f 125 127 126
f 128 158 159
f 128 159 160
f 128 160 161
f 128 161 162
f 128 162 129
f 129 162 133
f 130 163 164
f 130 164 165
f 130 165 166
f 130 166 131
f 130 133 167
f 130 167 168
f 130 168 163
f 131 166 134
f 131 134 132
f 133 162 169
f 133 169 167
f 134 166 170
f 134 170 135
f 135 170 136
f 136 170 171
f 136 171 137
f 137 171 138
f 138 171 172
f 138 172 173
f 138 173 174
f 138 174 139
f 141 175 176
f 141 176 143
f 141 177 178
f 141 178 179
f 141 179 175
f 143 176 180
f 143 180 144
f 144 180 153
f 145 146 148
f 147 148 152
f 147 152 182
f 147 182 183
f 147 183 181
f 149 151 184
f 149 184 185
f 149 185 186
f 149 186 187
f 149 187 188
f 149 188 189
f 149 189 183
f 149 183 190
f 149 190 191
f 149 191 152
f 150 192 151
f 150 153 192
f 151 193 194
f 151 194 195
f 151 195 196
f 151 196 184
f 151 192 193
f 152 191 197
f 152 197 182
f 153 196 195
f 153 195 194
f 153 194 193
f 153 193 192
f 153 180 196
f 154 181 155
f 155 183 189
f 155 189 198
f 155 198 188
f 155 188 187
f 155 187 186
f 155 186 199
f 155 199 200
f 155 200 201
f 155 201 202
f 155 202 157
f 155 181 203
f 155 203 183
f 157 202 204
f 161 205 169
f 161 169 162
f 163 206 207
f 163 207 165
f 163 165 164
f 163 168 208
f 163 208 206
f 165 207 166
f 166 207 170
f 167 169 205
f 167 205 209
f 167 209 210
f 167 210 211
f 167 211 168
f 168 212 208
f 168 211 212
f 170 207 213
f 170 213 171
f 171 213 214
f 171 214 172
f 172 214 215
f 172 215 216
f 172 216 173
f 173 216 174
f 175 217 180
f 175 180 176
f 175 179 218
f 175 218 219
f 175 219 217
f 177 220 178
f 178 220 221
f 178 221 222
f 178 222 179
f 179 222 223
f 179 223 218
f 180 217 196
f 181 183 203
f 182 197 183
f 183 197 190
f 184 224 185
f 184 196 225
f 184 225 226
f 184 226 224
f 185 201 200
f 185 200 199
f 185 199 186
f 185 224 201
f 188 198 189
f 190 197 191
f 196 217 219
f 196 219 225
f 201 224 227
f 201 227 228
f 201 228 229
f 201 229 230
f 201 230 202
f 202 231 232
f 202 232 204
f 202 230 231
f 206 233 234
f 206 234 213
f 206 213 207
f 206 208 211
f 206 211 233
f 208 212 211
f 209 235 236
f 209 236 210
f 210 236 258
f 210 258 274
f 210 274 282
f 210 282 280
f 210 280 281
f 210 281 279
f 210 279 266
f 210 266 248
f 210 248 265
f 210 265 264
f 210 264 242
f 210 242 240
f 210 240 218
f 210 218 239
f 210 239 222
f 210 222 220
f 210 220 241
f 210 241 263
f 210 263 278
f 210 278 283
f 210 283 275
f 210 275 259
f 210 259 237
f 210 237 211
f 211 237 233
f 213 234 214
f 214 234 238
f 218 223 239
f 218 240 219
f 219 240 242
f 219 242 225
f 220 222 221
f 222 239 223
f 224 226 227
f 225 242 243
f 225 243 226
f 226 243 227
f 227 243 244
f 227 244 228
f 228 245 246
f 228 246 229
f 228 244 245
f 229 246 244
f 229 244 247
f 229 247 248
f 229 248 249
f 229 249 230
f 230 249 250
f 233 251 234
f 233 237 251
f 234 251 252
f 234 252 238
f 235 253 236
f 236 253 254
f 236 254 255
f 236 255 256
f 236 256 257
f 236 257 258
f 237 259 260
f 237 260 251
f 238 252 261
f 241 262 263
f 242 264 247
f 242 247 243
f 243 247 244
f 244 246 245
f 247 264 265
f 247 265 248
f 248 266 249
f 249 266 267
f 249 267 268
f 249 268 250
f 251 260 261
f 251 261 252
f 257 269 258
f 258 269 270
f 258 270 271
f 258 271 272
f 258 272 273
f 258 273 274
f 259 275 260
f 260 275 276
f 262 277 278
f 262 278 263
f 266 279 267
f 267 280 268
f 267 279 281
f 267 281 280
f 273 282 274
f 275 283 284
f 275 284 285
f 275 285 276
f 277 286 283
f 277 283 278
f 283 286 287
f 283 287 288
f 283 288 284

