# https://github.com/mikedh/trimesh
v 0.00066581 0.01997368 -0.00636511
v 0.00055174 0.01880002 -0.00625859
v 0.00055112 0.01880002 -0.00636511
v 0.00054374 0.01880002 -0.00678986
v 0.00065627 0.01997368 -0.00689775
v 0.00066458 0.01997368 -0.00583521
v 0.00055297 0.01880002 -0.00583521
v 0.00054097 0.01880002 -0.00689775
v 0.00063475 0.01997368 -0.00743312
v 0.00065443 0.01997368 -0.00530258
v 0.00054313 0.01880002 -0.00530258
v 0.00052376 0.01880002 -0.00732249
v 0.00051884 0.01880002 -0.00743038
v 0.00059601 0.01997368 -0.00796438
v 0.00063260 0.01997368 -0.00476994
v 0.00051853 0.01880002 -0.00476994
v 0.00048655 0.01880002 -0.00785513
v 0.00047794 0.01880002 -0.00796165
v 0.00054497 0.01997368 -0.00849702
v 0.00059324 0.01997368 -0.00423731
v 0.00047641 0.01880002 -0.00423731
v 0.00043520 0.01880002 -0.00838776
v 0.00042414 0.01880002 -0.00849429
v 0.00046995 0.01997368 -0.00902829
v 0.00054405 0.01997368 -0.00370877
v 0.00042291 0.01880002 -0.00370604
v 0.00036110 0.01880002 -0.00891903
v 0.00034450 0.01880002 -0.00902692
v 0.00037217 0.01997368 -0.00956092
v 0.00054374 0.01997368 -0.00370604
v 0.00046964 0.01997368 -0.00317613
v 0.00034173 0.01880002 -0.00317340
v 0.00028946 0.01880002 -0.00932055
v 0.00027440 0.01880002 -0.00939977
v 0.00023351 0.01880002 -0.00961145
v 0.00022274 0.01880002 -0.00966608
v 0.00028700 0.01997368 -0.00994333
v 0.00037156 0.01997368 -0.00264213
v 0.00022244 0.01880002 -0.00254244
v 0.00013727 0.01880002 -0.01000888
v 0.00011575 0.01880002 -0.01009083
v 0.00021291 0.01997368 -0.01020964
v 0.00028793 0.01997368 -0.00226246
v 0.00011298 0.01880002 -0.00210813
v -0.00002323 0.01880002 -0.01051693
v 0.00007362 0.01997368 -0.01062483
v 0.00021291 0.01997368 -0.00199478
v -0.00006351 0.01880002 -0.00157686
v -0.00005951 0.01880002 -0.01062346
v -0.00018619 0.01880002 -0.01093621
v -0.00021847 0.01880002 -0.01101269
v 0.00002689 0.01997368 -0.01073272
v 0.00007331 0.01997368 -0.00157823
v -0.00022032 0.01880002 -0.00119036
v -0.00032516 0.01880002 -0.01122575
v -0.00016928 0.01997368 -0.01118478
v -0.00016989 0.01997368 -0.00101692
v -0.00017666 0.01997368 -0.00100326
v -0.00024768 0.01880002 -0.00113573
v -0.00035284 0.01880002 -0.01127901
v -0.00017512 0.01997368 -0.01119570
v -0.00028366 0.01997368 -0.00079020
v -0.00035407 0.01880002 -0.00092405
v -0.00055792 0.01880002 -0.01160542
v -0.00043339 0.01997368 -0.01163547
v -0.00029811 0.01981155 -0.01138417
v -0.00044323 0.01997368 -0.00055120
v -0.00062249 0.01880002 -0.00050067
v -0.00061941 0.01880002 -0.01169829
v -0.00043862 0.01997368 -0.01164366
v -0.00044723 0.01997368 -0.00054574
v -0.00080574 0.01880002 -0.00023981
v -0.00044231 0.01997368 -0.01164912
v -0.00077222 0.01880002 -0.01191817
v -0.00068213 0.01997368 -0.00022616
v -0.00073287 0.01997173 -0.00015787
v -0.00085186 0.01880002 -0.00019475
v -0.00080389 0.01880002 -0.01196324
v -0.00073225 0.01997173 -0.01204245
v -0.00073317 0.01997368 -0.01204382
v -0.00073164 0.01997368 -0.00015924
v -0.00100959 0.01997368 0.00010845
v -0.00110121 0.01880002 0.00004289
v -0.00100467 0.01880002 -0.01215444
v -0.00101082 0.01997368 -0.01231014
v -0.00127463 0.01997368 0.00033516
v -0.00135518 0.01880002 0.00027780
v -0.00133366 0.01880002 0.00025868
v -0.00110244 0.01880002 -0.01224595
v -0.00132813 0.01880002 -0.01245354
v -0.00127616 0.01997173 -0.01253548
v -0.00127739 0.01997368 -0.01253548
v -0.00160884 0.01997368 0.00052909
v -0.00160884 0.01997173 0.00052909
v -0.00158148 0.01880002 0.00041710
v -0.00137578 0.01880002 0.00029145
v -0.00138040 0.01880002 -0.01249451
v -0.00151568 0.01880002 -0.01257645
v -0.00158117 0.01880002 -0.01261606
v -0.00161038 0.01997368 -0.01272942
v -0.00207066 0.01997368 0.00074761
v -0.00170693 0.01880002 0.00047992
v -0.00217920 0.01880002 0.00071483
v -0.00203930 0.01880002 -0.01284687
v -0.00214107 0.01880002 -0.01289740
v -0.00207435 0.01997173 -0.01294657
v -0.00207527 0.01997368 -0.01294657
v -0.00233601 0.01997368 0.00084184
v -0.00240365 0.01914669 0.00081999
v -0.00243501 0.01880002 0.00081180
v -0.00207097 0.01997173 0.00074761
v -0.00226037 0.01880002 0.00074624
v -0.00237260 0.01880002 -0.01298617
v -0.00243839 0.01880002 -0.01301076
v -0.00234185 0.01997368 -0.01304217
v -0.00247529 0.01997368 0.00087735
v -0.00247529 0.01908476 0.00083638
v -0.00247529 0.01880002 0.00082272
v -0.00247529 0.01880002 -0.01302032
v -0.00247529 0.01997368 -0.01307495
f 1 2 3
f 1 3 4
f 1 4 5
f 1 5 9
f 1 9 14
f 1 14 19
f 1 19 24
f 1 24 29
f 1 29 37
f 1 37 42
f 1 42 46
f 1 46 52
f 1 52 56
f 1 56 61
f 1 61 65
f 1 65 70
f 1 70 73
f 1 73 80
f 1 80 85
f 1 85 92
f 1 92 100
f 1 100 107
f 1 107 115
f 1 115 120
f 1 120 116
f 1 116 108
f 1 108 101
f 1 101 93
f 1 93 86
f 1 86 82
f 1 82 81
f 1 81 75
f 1 75 71
f 1 71 67
f 1 67 62
f 1 62 58
f 1 58 57
f 1 57 53
f 1 53 47
f 1 47 43
f 1 43 38
f 1 38 31
f 1 31 30
f 1 30 25
f 1 25 20
f 1 20 15
f 1 15 10
f 1 10 6
f 1 6 7
f 1 7 2
f 2 7 11
f 2 11 16
f 2 16 21
f 2 21 26
f 2 26 32
f 2 32 39
f 2 39 44
f 2 44 48
f 2 48 54
f 2 54 59
f 2 59 63
f 2 63 68
f 2 68 72
f 2 72 77
f 2 77 83
f 2 83 88
f 2 88 87
f 2 87 96
f 2 96 95
f 2 95 102
f 2 102 103
f 2 103 112
f 2 112 110
f 2 110 118
f 2 118 119
f 2 119 114
f 2 114 113
f 2 113 105
f 2 105 104
f 2 104 99
f 2 99 98
f 2 98 97
f 2 97 90
f 2 90 89
f 2 89 84
f 2 84 78
f 2 78 74
f 2 74 69
f 2 69 64
f 2 64 60
f 2 60 55
f 2 55 51
f 2 51 50
f 2 50 49
f 2 49 45
f 2 45 41
f 2 41 40
f 2 40 36
f 2 36 35
f 2 35 34
f 2 34 33
f 2 33 28
f 2 28 27
f 2 27 23
f 2 23 22
f 2 22 18
f 2 18 17
f 2 17 13
f 2 13 12
f 2 12 8
f 2 8 4
f 2 4 3
f 4 8 5
f 5 8 9
f 6 10 11
f 6 11 7
f 8 12 9
f 9 12 13
f 9 13 14
f 10 15 11
f 11 15 16
f 13 17 14
f 14 17 18
f 14 18 19
f 15 20 16
f 16 20 21
f 18 22 19
f 19 22 23
f 19 23 24
f 20 25 21
f 21 25 26
f 23 27 24
f 24 27 28
f 24 28 29
f 25 30 26
f 26 30 31
f 26 31 32
f 28 33 29
f 29 33 34
f 29 34 35
f 29 35 36
f 29 36 37
f 31 38 32
f 32 38 39
f 36 40 37
f 37 40 41
f 37 41 42
f 38 43 39
f 39 43 44
f 41 45 42
f 42 45 46
f 43 47 44
f 44 47 48
f 45 49 46
f 46 49 50
f 46 50 51
f 46 51 52
f 47 53 48
f 48 53 54
f 51 55 56
f 51 56 52
f 53 57 54
f 54 57 58
f 54 58 59
f 55 60 56
f 56 60 61
f 58 62 59
f 59 62 63
f 60 64 65
f 60 65 66
f 60 66 61
f 61 66 65
f 62 67 68
f 62 68 63
f 64 69 70
f 64 70 65
f 67 71 72
f 67 72 68
f 69 73 70
f 69 74 73
f 71 75 72
f 72 75 76
f 72 76 77
f 73 74 78
f 73 78 79
f 73 79 80
f 75 81 76
f 76 81 82
f 76 82 77
f 77 82 83
f 78 84 85
f 78 85 80
f 78 80 79
f 82 86 87
f 82 87 88
f 82 88 83
f 84 89 85
f 85 90 91
f 85 91 92
f 85 89 90
f 86 93 94
f 86 94 95
f 86 95 96
f 86 96 87
f 90 97 91
f 91 98 99
f 91 99 100
f 91 100 92
f 91 97 98
f 93 101 94
f 94 102 95
f 94 101 103
f 94 103 102
f 99 104 100
f 100 104 105
f 100 105 106
f 100 106 107
f 101 108 109
f 101 109 110
f 101 110 111
f 101 111 103
f 103 111 112
f 105 113 106
f 106 113 114
f 106 114 115
f 106 115 107
f 108 116 117
f 108 117 118
f 108 118 110
f 108 110 109
f 110 112 111
f 114 119 115
f 115 119 120
f 116 120 119
f 116 119 118
f 116 118 117

