# https://github.com/mikedh/trimesh
v -0.01073702 0.01639189 -0.00530560
v -0.01070651 0.01639189 -0.00476922
v -0.01066922 0.01677822 -0.00476922
v -0.01069860 0.01677822 -0.00530144
v -0.01069860 0.01677822 -0.00530560
v 0.00080799 0.01639189 -0.00530560
v -0.01069408 0.01639189 -0.00462309
v -0.01062175 0.01677822 -0.00423669
v -0.01042173 0.01879990 -0.00425125
v -0.01061610 0.01731045 -0.00476922
v -0.01059124 0.01784245 -0.00530144
v -0.01049518 0.01879660 -0.00530560
v -0.01064549 0.01730645 -0.00530560
v -0.01046693 0.01879990 -0.00476922
v -0.01047258 0.01879990 -0.00487643
v 0.00054242 0.01879990 -0.00530560
v 0.00054242 0.01879990 -0.00530144
v 0.00080460 0.01639189 -0.00522244
v -0.01065905 0.01639189 -0.00423669
v -0.01055621 0.01677822 -0.00370477
v -0.01039686 0.01869949 -0.00393049
v -0.01039234 0.01879990 -0.00397504
v -0.01040591 0.01879990 -0.00410186
v -0.01049405 0.01879990 -0.00530560
v -0.01049405 0.01879990 -0.00530144
v 0.00080347 0.01639189 -0.00519511
v 0.00051756 0.01879990 -0.00476922
v -0.01059350 0.01639189 -0.00370477
v -0.01050422 0.01639189 -0.00317254
v -0.01040591 0.01772412 -0.00335757
v -0.01038782 0.01807887 -0.00345796
v -0.01050309 0.01731045 -0.00370477
v -0.01041382 0.01837492 -0.00382178
v -0.01037200 0.01879990 -0.00382624
v 0.00077861 0.01639189 -0.00476922
v 0.00050965 0.01879990 -0.00466170
v -0.01048727 0.01639189 -0.00308463
v -0.01039121 0.01704646 -0.00290554
v -0.01037426 0.01740144 -0.00300266
v -0.01035844 0.01787781 -0.00317700
v -0.01030759 0.01837492 -0.00317254
v -0.01026464 0.01879990 -0.00317254
v -0.01027820 0.01879990 -0.00324976
v -0.01037313 0.01837492 -0.00355597
v -0.01043981 0.01787781 -0.00366319
v -0.01035279 0.01879990 -0.00370298
v 0.00066334 0.01677822 -0.00423669
v 0.00068820 0.01639189 -0.00424679
v 0.00047575 0.01879990 -0.00423669
v 0.00042263 0.01879990 -0.00370477
v 0.00034127 0.01879990 -0.00317254
v -0.01042399 0.01639189 -0.00277723
v -0.01040478 0.01677822 -0.00285237
v -0.01031663 0.01725860 -0.00269288
v -0.01019119 0.01837492 -0.00264032
v -0.01014824 0.01879990 -0.00264032
v 0.00053564 0.01731045 -0.00370477
v 0.00023956 0.01784245 -0.00244281
v 0.00019096 0.01784245 -0.00227174
v 0.00029154 0.01731045 -0.00274991
v 0.00026894 0.01702996 -0.00286633
v 0.00043167 0.01639189 -0.00380099
v 0.00027233 0.01879990 -0.00280812
v -0.01035618 0.01639189 -0.00251112
v -0.01005671 0.01866908 -0.00227174
v -0.01004315 0.01879990 -0.00227174
v 0.00022148 0.01879990 -0.00254201
v 0.00015367 0.01879990 -0.00227174
v 0.00007795 0.01754051 -0.00227174
v -0.00003392 0.01726543 -0.00227174
v -0.00287497 0.01639189 -0.00227233
v -0.01028612 0.01639189 -0.00227174
v -0.00287497 0.01646143 -0.00227174
v -0.01022283 0.01639189 -0.00227174
f 1 2 3
f 1 3 4
f 1 4 5
f 1 5 13
f 1 13 12
f 1 12 24
f 1 24 16
f 1 16 6
f 1 6 18
f 1 18 26
f 1 26 35
f 1 35 48
f 1 48 62
f 1 62 71
f 1 71 74
f 1 74 72
f 1 72 64
f 1 64 52
f 1 52 37
f 1 37 29
f 1 29 28
f 1 28 19
f 1 19 7
f 1 7 2
f 2 7 3
f 3 8 9
f 3 9 10
f 3 10 4
f 3 7 8
f 4 11 12
f 4 12 13
f 4 13 5
f 4 10 14
f 4 14 15
f 4 15 11
f 6 16 17
f 6 17 18
f 7 19 8
f 8 19 28
f 8 28 20
f 8 20 21
f 8 21 22
f 8 22 23
f 8 23 9
f 9 23 22
f 9 22 34
f 9 34 46
f 9 46 43
f 9 43 42
f 9 42 56
f 9 56 66
f 9 66 68
f 9 68 67
f 9 67 63
f 9 63 51
f 9 51 50
f 9 50 49
f 9 49 36
f 9 36 27
f 9 27 17
f 9 17 16
f 9 16 24
f 9 24 25
f 9 25 15
f 9 15 14
f 9 14 10
f 11 15 12
f 12 15 25
f 12 25 24
f 17 26 18
f 17 27 26
f 20 28 29
f 20 29 30
f 20 30 31
f 20 31 32
f 20 32 33
f 20 33 21
f 21 33 34
f 21 34 22
f 26 27 35
f 27 36 35
f 29 37 38
f 29 38 39
f 29 39 30
f 30 39 40
f 30 40 41
f 30 41 31
f 31 41 42
f 31 42 43
f 31 43 44
f 31 44 45
f 31 45 32
f 32 45 34
f 32 34 33
f 34 44 46
f 34 45 44
f 35 47 48
f 35 36 49
f 35 49 50
f 35 50 51
f 35 51 47
f 37 52 53
f 37 53 38
f 38 53 54
f 38 54 55
f 38 55 56
f 38 56 42
f 38 42 39
f 39 42 41
f 39 41 40
f 43 46 44
f 47 51 57
f 47 57 48
f 48 58 59
f 48 59 60
f 48 60 61
f 48 61 62
f 48 57 58
f 51 63 57
f 52 64 54
f 52 54 53
f 54 64 55
f 55 64 56
f 56 64 65
f 56 65 66
f 57 63 67
f 57 67 58
f 58 67 68
f 58 68 59
f 59 69 61
f 59 61 60
f 59 68 66
f 59 66 65
f 59 65 72
f 59 72 74
f 59 74 73
f 59 73 70
f 59 70 69
f 61 69 70
f 61 70 62
f 62 70 71
f 64 72 65
f 70 73 71
f 71 73 74

