# https://github.com/mikedh/trimesh
v -0.00374712 0.03133616 -0.00610366
v -0.00524966 0.03289095 -0.00610366
v -0.00247529 0.03133616 -0.00610366
v -0.00634584 0.03133616 -0.00472317
v -0.00539545 0.03327965 -0.00610366
v -0.00247529 0.03803684 -0.00610366
v -0.00247529 0.03133616 0.00111760
v -0.00643657 0.03133616 -0.00423897
v -0.00518646 0.03386165 -0.00610366
v -0.00267382 0.03799985 -0.00610366
v -0.00247529 0.03840041 -0.00516001
v -0.00247529 0.03134872 0.00111690
v -0.00248770 0.03133616 0.00111619
v -0.00613955 0.03196073 -0.00445880
v -0.00613955 0.03196073 -0.00451253
v -0.00636173 0.03133616 -0.00370459
v -0.00518646 0.03386095 -0.00585697
v -0.00509068 0.03404239 -0.00610366
v -0.00560833 0.03302773 -0.00508367
v -0.00560833 0.03302773 -0.00494583
v -0.00280721 0.03790704 -0.00610366
v -0.00294486 0.03781004 -0.00610366
v -0.00247529 0.03841507 -0.00508650
v -0.00247529 0.03188118 0.00107236
v -0.00267382 0.03133616 0.00108650
v -0.00557266 0.03296004 -0.00423685
v -0.00540050 0.03327965 -0.00423685
v -0.00516280 0.03371929 -0.00423685
v -0.00559360 0.03299912 -0.00459099
v -0.00611396 0.03191258 -0.00410396
v -0.00553621 0.03289165 -0.00370459
v -0.00532954 0.03327965 -0.00370459
v -0.00512791 0.03365579 -0.00370459
v -0.00498521 0.03392167 -0.00370459
v -0.00630667 0.03133616 -0.00341690
v -0.00563935 0.03255250 -0.00327411
v -0.00509611 0.03359647 -0.00331794
v -0.00622641 0.03159157 -0.00370459
v -0.00520701 0.03379536 -0.00530138
v -0.00450828 0.03509055 -0.00583364
v -0.00507013 0.03408077 -0.00604994
v -0.00507013 0.03408077 -0.00610366
v -0.00548115 0.03323499 -0.00476841
v -0.00519072 0.03376954 -0.00476912
v -0.00504570 0.03403541 -0.00476912
v -0.00487703 0.03434386 -0.00476912
v -0.00394099 0.03609684 -0.00610366
v -0.00394138 0.03609754 -0.00583364
v -0.00310345 0.03753718 -0.00583364
v -0.00294447 0.03781004 -0.00583364
v -0.00249429 0.03845136 -0.00476912
v -0.00247529 0.03846531 -0.00476982
v -0.00247529 0.03241293 0.00100662
v -0.00267382 0.03168229 0.00105540
v -0.00301969 0.03133616 0.00101087
v -0.00475721 0.03434386 -0.00370459
v -0.00501895 0.03398517 -0.00423685
v -0.00482429 0.03434386 -0.00423685
v -0.00567774 0.03262508 -0.00370459
v -0.00455054 0.03463486 -0.00337448
v -0.00625937 0.03133616 -0.00317232
v -0.00603447 0.03176185 -0.00317232
v -0.00505578 0.03352110 -0.00296309
v -0.00465368 0.03436898 -0.00318717
v -0.00495652 0.03378908 -0.00315324
v -0.00464670 0.03480932 -0.00530138
v -0.00463391 0.03478420 -0.00476912
v -0.00433262 0.03540807 -0.00583364
v -0.00433262 0.03540807 -0.00610366
v -0.00460832 0.03473744 -0.00423685
v -0.00409454 0.03583096 -0.00610366
v -0.00409454 0.03583096 -0.00583364
v -0.00408175 0.03580723 -0.00530138
v -0.00392781 0.03607381 -0.00530138
v -0.00293206 0.03778910 -0.00519959
v -0.00294059 0.03780446 -0.00555444
v -0.00273896 0.03806964 -0.00476912
v -0.00247529 0.03842344 -0.00425028
v -0.00247529 0.03843740 -0.00437893
v -0.00247529 0.03294259 0.00091898
v -0.00267382 0.03221474 0.00098542
v -0.00321280 0.03133616 0.00095502
v -0.00457458 0.03467743 -0.00370459
v -0.00399295 0.03565371 -0.00352858
v -0.00451099 0.03456368 -0.00301964
v -0.00439311 0.03483793 -0.00318717
v -0.00294214 0.03727410 -0.00289806
v -0.00281768 0.03758952 -0.00317232
v -0.00621284 0.03133616 -0.00297511
v -0.00614033 0.03142967 -0.00287686
v -0.00610698 0.03133616 -0.00253262
v -0.00482429 0.03381141 -0.00264006
v -0.00461026 0.03421336 -0.00264006
v -0.00449936 0.03507520 -0.00530138
v -0.00448462 0.03505008 -0.00476912
v -0.00445709 0.03500262 -0.00423685
v -0.00431091 0.03540807 -0.00530138
v -0.00427873 0.03540807 -0.00476912
v -0.00349198 0.03677235 -0.00476912
v -0.00291849 0.03776608 -0.00476912
v -0.00268739 0.03806964 -0.00423685
v -0.00247529 0.03842135 -0.00423685
v -0.00247529 0.03327965 0.00085889
v -0.00268739 0.03272905 0.00089423
v -0.00305071 0.03221474 0.00086384
v -0.00322520 0.03166903 0.00089848
v -0.00345514 0.03133616 0.00087656
v -0.00442297 0.03494261 -0.00370459
v -0.00286033 0.03766489 -0.00370459
v -0.00343265 0.03666977 -0.00370459
v -0.00401583 0.03569349 -0.00388342
v -0.00422483 0.03540807 -0.00423685
v -0.00446446 0.03447994 -0.00264006
v -0.00424189 0.03487631 -0.00264006
v -0.00349934 0.03625316 -0.00279698
v -0.00303908 0.03701450 -0.00268812
v -0.00289872 0.03719873 -0.00254251
v -0.00277037 0.03748554 -0.00268812
v -0.00249274 0.03794333 -0.00264006
v -0.00252609 0.03809406 -0.00320767
v -0.00247529 0.03820711 -0.00329814
v -0.00610116 0.03133616 -0.00251141
v -0.00609767 0.03134872 -0.00252201
v -0.00456411 0.03412823 -0.00228663
v -0.00347879 0.03675002 -0.00444962
v -0.00289251 0.03772072 -0.00423685
v -0.00262031 0.03806964 -0.00370459
v -0.00247529 0.03830900 -0.00370459
v -0.00247529 0.03330687 0.00085394
v -0.00249584 0.03327965 0.00085253
v -0.00296735 0.03253994 0.00083203
v -0.00353773 0.03133616 0.00084687
v -0.00350167 0.03148271 0.00083274
v -0.00247529 0.03826224 -0.00349748
v -0.00304606 0.03745484 -0.00423685
v -0.00345708 0.03671233 -0.00409477
v -0.00403832 0.03573256 -0.00423685
v -0.00401079 0.03515336 -0.00235378
v -0.00345514 0.03617639 -0.00244284
v -0.00404801 0.03521826 -0.00264006
v -0.00389718 0.03548413 -0.00264006
v -0.00361528 0.03597541 -0.00262804
v -0.00334696 0.03644785 -0.00262804
v -0.00247529 0.03782330 -0.00230077
v -0.00247529 0.03791541 -0.00250858
v -0.00247529 0.03797124 -0.00264006
v -0.00247529 0.03799497 -0.00270155
v -0.00247529 0.03816036 -0.00315465
v -0.00564904 0.03203889 -0.00223149
v -0.00596235 0.03133616 -0.00206538
v -0.00510619 0.03308426 -0.00225835
v -0.00466377 0.03383164 -0.00210850
v -0.00450673 0.03402216 -0.00193179
v -0.00440009 0.03432083 -0.00210850
v -0.00410230 0.03487562 -0.00214879
v -0.00359357 0.03650996 -0.00425806
v -0.00247529 0.03334874 0.00084475
v -0.00287351 0.03289514 0.00079174
v -0.00341520 0.03183721 0.00079457
v -0.00365445 0.03133616 0.00079386
v -0.00298867 0.03682399 -0.00210850
v -0.00283784 0.03708987 -0.00210850
v -0.00255982 0.03757068 -0.00209154
v -0.00294486 0.03674723 -0.00183070
v -0.00247529 0.03777934 -0.00221099
v -0.00576343 0.03172207 -0.00207598
v -0.00587394 0.03133616 -0.00183777
v -0.00558894 0.03192514 -0.00187665
v -0.00504803 0.03297330 -0.00190351
v -0.00460017 0.03366695 -0.00169216
v -0.00444856 0.03383164 -0.00153877
v -0.00416589 0.03436759 -0.00156068
v -0.00405422 0.03469836 -0.00172821
v -0.00349973 0.03572210 -0.00177840
v -0.00395457 0.03505217 -0.00199894
v -0.00247529 0.03350924 0.00080658
v -0.00331671 0.03221474 0.00074297
v -0.00276184 0.03327965 0.00073448
v -0.00316937 0.03272905 0.00067299
v -0.00379714 0.03133616 0.00072035
v -0.00247529 0.03766838 -0.00199823
v -0.00287002 0.03661394 -0.00147586
v -0.00273896 0.03695658 -0.00162218
v -0.00247529 0.03738994 -0.00157906
v -0.00577196 0.03133616 -0.00157624
v -0.00514109 0.03261880 -0.00167166
v -0.00471766 0.03331943 -0.00153877
v -0.00452495 0.03352320 -0.00133732
v -0.00407593 0.03420569 -0.00116484
v -0.00397667 0.03456019 -0.00137337
v -0.00342373 0.03558672 -0.00142355
v -0.00247529 0.03383513 0.00071045
v -0.00370291 0.03166903 0.00067794
v -0.00247529 0.03395098 0.00067511
v -0.00247529 0.03453786 0.00048355
v -0.00323063 0.03328105 0.00045528
v -0.00361334 0.03274720 0.00039166
v -0.00376844 0.03222452 0.00046376
v -0.00409842 0.03133616 0.00053798
v -0.00296967 0.03625874 -0.00124755
v -0.00247529 0.03722316 -0.00135499
v -0.00247529 0.03738785 -0.00157624
v -0.00566572 0.03153923 -0.00157624
v -0.00569209 0.03133616 -0.00138892
v -0.00526517 0.03226429 -0.00152676
v -0.00506548 0.03247504 -0.00131682
v -0.00461801 0.03316870 -0.00114364
v -0.00446717 0.03331943 -0.00099732
v -0.00419420 0.03384630 -0.00100934
v -0.00352261 0.03523221 -0.00120514
v -0.00398753 0.03404728 -0.00080929
v -0.00343498 0.03507450 -0.00085029
v -0.00425314 0.03133616 0.00044255
v -0.00247529 0.03490632 0.00035561
v -0.00268545 0.03432502 0.00042983
v -0.00306080 0.03381141 0.00037469
v -0.00352145 0.03310519 0.00032592
v -0.00415193 0.03168229 0.00039519
v -0.00405810 0.03205285 0.00032875
v -0.00248847 0.03697263 -0.00108709
v -0.00247529 0.03702846 -0.00112385
v -0.00288165 0.03610242 -0.00089270
v -0.00562384 0.03133616 -0.00123977
v -0.00560639 0.03142618 -0.00129844
v -0.00453038 0.03300191 -0.00078880
v -0.00408369 0.03369208 -0.00066085
v -0.00353385 0.03472070 -0.00068701
v -0.00298092 0.03574722 -0.00071670
v -0.00247529 0.03672839 -0.00079162
v -0.00450595 0.03133616 0.00026089
v -0.00247529 0.03495726 0.00033652
v -0.00249778 0.03487631 0.00035207
v -0.00297200 0.03413521 0.00031178
v -0.00342412 0.03346039 0.00024534
v -0.00396581 0.03240805 0.00025382
v -0.00450246 0.03135082 0.00025806
v -0.00247529 0.03698519 -0.00107507
v -0.00549045 0.03133616 -0.00097470
v -0.00507013 0.03195096 -0.00077537
v -0.00462305 0.03264671 -0.00065237
v -0.00418295 0.03328035 -0.00049474
v -0.00395883 0.03345830 -0.00030601
v -0.00388051 0.03384630 -0.00049474
v -0.00340745 0.03449320 -0.00033216
v -0.00285451 0.03552112 -0.00036185
v -0.00251213 0.03647228 -0.00062834
v -0.00247529 0.03660278 -0.00067994
v -0.00452766 0.03133616 0.00024039
v -0.00247529 0.03511637 0.00026796
v -0.00287080 0.03449041 0.00022696
v -0.00332718 0.03381141 0.00015062
v -0.00359590 0.03381141 -0.00011516
v -0.00374014 0.03328174 0.00002621
v -0.00387934 0.03274720 0.00016829
v -0.00441832 0.03168229 0.00017607
v -0.00468742 0.03133616 0.00008205
v -0.00544509 0.03133616 -0.00089270
v -0.00525315 0.03133616 -0.00058310
v -0.00513993 0.03168229 -0.00067570
v -0.00449742 0.03240595 -0.00029753
v -0.00405112 0.03310380 -0.00019291
v -0.00350555 0.03413800 -0.00020776
v -0.00247529 0.03613662 -0.00031379
v -0.00295378 0.03516662 -0.00022967
v -0.00247529 0.03626432 -0.00041345
v -0.00247529 0.03543040 0.00009902
v -0.00249972 0.03583934 -0.00014767
v -0.00303482 0.03487631 -0.00014555
v -0.00414340 0.03274720 -0.00009820
v -0.00468432 0.03168229 -0.00009042
v -0.00477272 0.03133616 -0.00000277
v -0.00518142 0.03133616 -0.00048202
v -0.00503562 0.03135221 -0.00028834
v -0.00458932 0.03205075 -0.00018655
v -0.00247529 0.03592587 -0.00017383
v -0.00247529 0.03585259 -0.00013142
v -0.00503950 0.03133616 -0.00028410
v -0.00505540 0.03133616 -0.00030530
f 1 2 5
f 1 5 9
f 1 9 18
f 1 18 42
f 1 42 69
f 1 69 71
f 1 71 47
f 1 47 22
f 1 22 21
f 1 21 10
f 1 10 6
f 1 6 3
f 1 3 7
f 1 7 13
f 1 13 25
f 1 25 55
f 1 55 82
f 1 82 107
f 1 107 132
f 1 132 160
f 1 160 180
f 1 180 199
f 1 199 213
f 1 213 230
f 1 230 248
f 1 248 256
f 1 256 271
f 1 271 277
f 1 277 278
f 1 278 272
f 1 272 258
f 1 258 257
f 1 257 238
f 1 238 223
f 1 223 204
f 1 204 185
f 1 185 167
f 1 167 150
f 1 150 122
f 1 122 91
f 1 91 89
f 1 89 61
f 1 61 35
f 1 35 16
f 1 16 8
f 1 8 4
f 1 4 2
f 2 4 5
f 3 6 11
f 3 11 23
f 3 23 52
f 3 52 79
f 3 79 78
f 3 78 102
f 3 102 128
f 3 128 134
f 3 134 121
f 3 121 148
f 3 148 147
f 3 147 146
f 3 146 145
f 3 145 144
f 3 144 165
f 3 165 181
f 3 181 184
f 3 184 202
f 3 202 201
f 3 201 221
f 3 221 237
f 3 237 229
f 3 229 247
f 3 247 265
f 3 265 263
f 3 263 275
f 3 275 276
f 3 276 266
f 3 266 249
f 3 249 231
f 3 231 214
f 3 214 195
f 3 195 194
f 3 194 192
f 3 192 176
f 3 176 157
f 3 157 129
f 3 129 103
f 3 103 80
f 3 80 53
f 3 53 24
f 3 24 12
f 3 12 7
f 4 8 5
f 5 8 9
f 6 10 11
f 7 12 13
f 8 14 15
f 8 15 9
f 8 16 14
f 9 17 18
f 9 15 19
f 9 19 20
f 9 20 17
f 10 21 11
f 11 21 22
f 11 22 23
f 12 24 13
f 13 24 25
f 14 26 27
f 14 27 28
f 14 28 29
f 14 29 20
f 14 20 19
f 14 19 15
f 14 16 30
f 14 30 31
f 14 31 32
f 14 32 33
f 14 33 34
f 14 34 26
f 16 35 36
f 16 36 37
f 16 37 38
f 16 38 30
f 17 39 40
f 17 40 41
f 17 41 18
f 17 20 39
f 18 41 42
f 20 29 43
f 20 43 44
f 20 44 45
f 20 45 46
f 20 46 39
f 22 47 48
f 22 48 49
f 22 49 50
f 22 50 51
f 22 51 23
f 23 51 52
f 24 53 54
f 24 54 25
f 25 54 55
f 26 34 27
f 27 34 56
f 27 56 28
f 28 57 29
f 28 56 57
f 29 45 44
f 29 44 43
f 29 57 58
f 29 58 45
f 30 38 59
f 30 59 31
f 31 59 37
f 31 37 32
f 32 37 60
f 32 60 33
f 33 60 34
f 34 60 56
f 35 61 36
f 36 61 62
f 36 62 63
f 36 63 37
f 37 64 60
f 37 59 38
f 37 63 65
f 37 65 64
f 39 66 40
f 39 46 67
f 39 67 66
f 40 66 68
f 40 68 41
f 41 68 69
f 41 69 42
f 45 58 46
f 46 58 70
f 46 70 67
f 47 71 48
f 48 71 72
f 48 72 73
f 48 73 74
f 48 74 75
f 48 75 76
f 48 76 49
f 49 76 50
f 50 76 51
f 51 77 78
f 51 78 79
f 51 79 52
f 51 76 77
f 53 80 81
f 53 81 54
f 54 81 55
f 55 81 82
f 56 60 83
f 56 83 58
f 56 58 57
f 58 83 70
f 60 84 83
f 60 64 85
f 60 85 86
f 60 86 87
f 60 87 88
f 60 88 84
f 61 89 90
f 61 90 63
f 61 63 62
f 63 90 91
f 63 91 92
f 63 92 93
f 63 93 85
f 63 85 65
f 64 65 85
f 66 94 68
f 66 67 94
f 67 70 95
f 67 95 94
f 68 72 71
f 68 71 69
f 68 94 72
f 70 96 95
f 70 83 96
f 72 94 97
f 72 97 73
f 73 97 95
f 73 95 98
f 73 98 99
f 73 99 75
f 73 75 74
f 75 99 100
f 75 100 77
f 75 77 76
f 77 100 101
f 77 101 102
f 77 102 78
f 80 103 104
f 80 104 81
f 81 104 105
f 81 105 106
f 81 106 82
f 82 106 107
f 83 84 108
f 83 108 96
f 84 109 110
f 84 110 111
f 84 111 112
f 84 112 108
f 84 88 109
f 85 93 113
f 85 113 114
f 85 114 115
f 85 115 87
f 85 87 86
f 87 115 116
f 87 116 117
f 87 117 118
f 87 118 119
f 87 119 88
f 88 119 120
f 88 120 121
f 88 121 109
f 89 91 90
f 91 122 123
f 91 123 92
f 92 123 124
f 92 124 93
f 93 124 113
f 94 95 97
f 95 96 125
f 95 125 98
f 96 112 125
f 96 108 112
f 98 125 99
f 99 125 100
f 100 125 126
f 100 126 101
f 101 126 109
f 101 109 127
f 101 127 102
f 102 127 128
f 103 129 104
f 104 129 130
f 104 130 131
f 104 131 105
f 105 132 107
f 105 107 106
f 105 131 133
f 105 133 132
f 109 121 134
f 109 134 127
f 109 126 135
f 109 135 125
f 109 125 136
f 109 136 110
f 110 136 137
f 110 137 112
f 110 112 111
f 112 137 125
f 113 124 138
f 113 138 114
f 114 138 139
f 114 139 140
f 114 140 115
f 115 140 141
f 115 141 142
f 115 142 143
f 115 143 117
f 115 117 116
f 117 143 139
f 117 139 144
f 117 144 118
f 118 144 145
f 118 145 119
f 119 145 146
f 119 146 147
f 119 147 148
f 119 148 120
f 120 148 121
f 122 149 123
f 122 150 149
f 123 149 151
f 123 151 124
f 124 151 152
f 124 152 153
f 124 153 154
f 124 154 155
f 124 155 138
f 125 137 156
f 125 156 136
f 125 135 126
f 127 134 128
f 129 157 130
f 130 157 158
f 130 158 131
f 131 158 159
f 131 159 133
f 132 133 160
f 133 159 160
f 136 156 137
f 138 161 162
f 138 162 163
f 138 163 139
f 138 155 164
f 138 164 161
f 139 163 165
f 139 165 144
f 139 143 142
f 139 142 141
f 139 141 140
f 149 150 166
f 149 166 153
f 149 153 151
f 150 167 168
f 150 168 169
f 150 169 166
f 151 153 152
f 153 166 169
f 153 169 170
f 153 170 171
f 153 171 172
f 153 172 173
f 153 173 174
f 153 174 175
f 153 175 154
f 154 175 155
f 155 175 164
f 157 176 158
f 158 177 159
f 158 176 178
f 158 178 179
f 158 179 177
f 159 177 180
f 159 180 160
f 161 163 162
f 161 164 181
f 161 181 163
f 163 181 165
f 164 175 174
f 164 174 182
f 164 182 183
f 164 183 184
f 164 184 181
f 167 185 168
f 168 185 186
f 168 186 170
f 168 170 169
f 170 186 187
f 170 187 171
f 171 187 188
f 171 188 189
f 171 189 190
f 171 190 172
f 172 190 173
f 173 190 191
f 173 191 182
f 173 182 174
f 176 192 178
f 177 179 193
f 177 193 180
f 178 192 194
f 178 194 195
f 178 195 196
f 178 196 179
f 179 196 197
f 179 197 198
f 179 198 193
f 180 193 199
f 182 191 200
f 182 200 201
f 182 201 183
f 183 202 184
f 183 201 202
f 185 203 186
f 185 204 203
f 186 203 205
f 186 205 187
f 187 205 206
f 187 206 188
f 188 206 207
f 188 207 208
f 188 208 209
f 188 209 189
f 189 210 190
f 189 209 211
f 189 211 212
f 189 212 210
f 190 210 200
f 190 200 191
f 193 198 213
f 193 213 199
f 195 214 215
f 195 215 196
f 196 215 216
f 196 216 217
f 196 217 197
f 197 218 198
f 197 217 219
f 197 219 218
f 198 218 213
f 200 220 221
f 200 221 201
f 200 210 222
f 200 222 220
f 203 204 206
f 203 206 205
f 204 223 224
f 204 224 206
f 206 224 207
f 207 224 208
f 208 224 225
f 208 225 211
f 208 211 209
f 210 212 222
f 211 225 226
f 211 226 227
f 211 227 228
f 211 228 229
f 211 229 212
f 212 229 222
f 213 218 230
f 214 231 232
f 214 232 215
f 215 232 216
f 216 232 233
f 216 233 217
f 217 233 234
f 217 234 235
f 217 235 219
f 218 219 230
f 219 235 236
f 219 236 230
f 220 237 221
f 220 222 237
f 222 229 237
f 223 238 225
f 223 225 224
f 225 239 226
f 225 238 239
f 226 239 240
f 226 240 241
f 226 241 242
f 226 242 243
f 226 243 227
f 227 243 244
f 227 244 245
f 227 245 228
f 228 245 246
f 228 246 247
f 228 247 229
f 230 236 248
f 231 249 233
f 231 233 232
f 233 249 234
f 234 249 250
f 234 250 251
f 234 251 252
f 234 252 253
f 234 253 254
f 234 254 235
f 235 254 255
f 235 255 236
f 236 255 256
f 236 256 248
f 238 257 239
f 239 257 258
f 239 258 259
f 239 259 240
f 240 259 242
f 240 242 241
f 242 260 261
f 242 261 262
f 242 262 244
f 242 244 243
f 242 259 260
f 244 263 245
f 244 262 264
f 244 264 263
f 245 263 265
f 245 265 246
f 246 265 247
f 249 266 250
f 250 266 267
f 250 267 268
f 250 268 251
f 251 268 252
f 252 268 262
f 252 262 261
f 252 261 253
f 253 261 254
f 254 261 269
f 254 269 270
f 254 270 255
f 255 270 271
f 255 271 256
f 258 272 259
f 259 272 260
f 260 273 261
f 260 272 273
f 261 273 274
f 261 274 269
f 262 268 264
f 263 264 275
f 264 268 267
f 264 267 275
f 266 276 267
f 267 276 275
f 269 274 270
f 270 274 273
f 270 273 271
f 271 273 277
f 272 278 273
f 273 278 277

