# https://github.com/mikedh/trimesh
v 0.00327506 0.00253546 0.04172632
v 0.00327506 -0.00652102 0.04172632
v 0.00327506 0.00253546 0.04069276
v -0.00459242 0.00253546 0.04172632
v 0.00327506 -0.00652102 0.04069276
v -0.00419638 -0.00652102 0.04172632
v 0.00327506 0.00025184 0.03661803
v 0.00317026 0.00253546 0.03984522
v -0.00669257 0.00253546 0.04121629
v -0.00459242 -0.00483135 0.04172632
v 0.00327406 -0.00652102 0.04068676
v 0.00327506 -0.00144315 0.03661803
v -0.00423266 -0.00651127 0.04172632
v -0.00669257 -0.00652102 0.04121629
v 0.00309065 0.00079526 0.03661803
v 0.00304630 0.00092381 0.03661803
v 0.00294150 0.00253546 0.03929418
v -0.00701908 0.00253546 0.04069276
v -0.00457731 -0.00566998 0.04172632
v 0.00311181 -0.00652102 0.03984222
v 0.00323475 -0.00160538 0.03661803
v -0.00426491 -0.00650240 0.04172632
v -0.00434149 -0.00648024 0.04172632
v -0.00436770 -0.00640489 0.04172632
v -0.00457630 -0.00567885 0.04172632
v -0.00701908 -0.00652102 0.04069276
v 0.00292235 0.00097345 0.03661803
v 0.00239429 0.00118178 0.03661803
v 0.00239429 0.00253546 0.03915918
v -0.00699086 0.00253546 0.04043375
v 0.00288103 -0.00652102 0.03937769
v 0.00306243 -0.00228976 0.03661803
v -0.00692738 -0.00652102 0.03985122
v 0.00154678 0.00119153 0.03661803
v 0.00154678 0.00253546 0.03915168
v -0.00692637 0.00253546 0.03984522
v 0.00283367 -0.00272325 0.03661803
v 0.00301910 -0.00237220 0.03661803
v 0.00239429 -0.00652102 0.03933369
v -0.00692637 -0.00652102 0.03984522
v 0.00069926 0.00119153 0.03661803
v 0.00069926 0.00253546 0.03915168
v -0.00659986 0.00253546 0.03937769
v 0.00247793 -0.00273123 0.03661803
v 0.00239429 -0.00273301 0.03661803
v -0.00523738 -0.00652102 0.03933369
v -0.00659986 -0.00567885 0.03937769
v -0.00660187 -0.00652102 0.03938119
v -0.00014826 0.00253546 0.03915718
v 0.00011073 0.00253546 0.03915218
v -0.00014826 0.00117646 0.03661803
v -0.00607885 0.00253546 0.03933369
v -0.00644063 0.00253546 0.03936419
v -0.00078918 0.00091849 0.03661803
v -0.00100686 0.00025184 0.03661803
v 0.00001399 -0.00273301 0.03661803
v -0.00608288 -0.00652102 0.03933419
v -0.00100686 -0.00144315 0.03661803
v -0.00084259 -0.00212753 0.03661803
v -0.00080329 -0.00228976 0.03661803
v -0.00062794 -0.00263992 0.03661803
v -0.00058663 -0.00272237 0.03661803
v -0.00014826 -0.00273212 0.03661803
v -0.00050298 -0.00272503 0.03661803
f 1 2 5
f 1 5 12
f 1 12 7
f 1 7 3
f 1 3 8
f 1 8 17
f 1 17 29
f 1 29 35
f 1 35 42
f 1 42 50
f 1 50 49
f 1 49 52
f 1 52 53
f 1 53 43
f 1 43 36
f 1 36 30
f 1 30 18
f 1 18 9
f 1 9 4
f 1 4 10
f 1 10 19
f 1 19 25
f 1 25 24
f 1 24 23
f 1 23 22
f 1 22 13
f 1 13 6
f 1 6 2
f 2 6 14
f 2 14 26
f 2 26 33
f 2 33 40
f 2 40 48
f 2 48 57
f 2 57 46
f 2 46 39
f 2 39 31
f 2 31 20
f 2 20 11
f 2 11 5
f 3 7 8
f 4 9 14
f 4 14 10
f 5 11 12
f 6 13 14
f 7 12 21
f 7 21 32
f 7 32 38
f 7 38 37
f 7 37 44
f 7 44 45
f 7 45 56
f 7 56 63
f 7 63 64
f 7 64 62
f 7 62 61
f 7 61 60
f 7 60 59
f 7 59 58
f 7 58 55
f 7 55 54
f 7 54 51
f 7 51 41
f 7 41 34
f 7 34 28
f 7 28 27
f 7 27 16
f 7 16 15
f 7 15 8
f 8 15 16
f 8 16 17
f 9 18 26
f 9 26 14
f 10 14 19
f 11 20 12
f 12 20 21
f 13 22 14
f 14 22 23
f 14 23 24
f 14 24 25
f 14 25 19
f 16 27 17
f 17 27 28
f 17 28 29
f 18 30 26
f 20 31 32
f 20 32 21
f 26 30 33
f 28 34 29
f 29 34 35
f 30 36 33
f 31 37 38
f 31 38 32
f 31 39 37
f 33 36 40
f 34 41 42
f 34 42 35
f 36 43 47
f 36 47 40
f 37 39 44
f 39 45 44
f 39 46 56
f 39 56 45
f 40 47 48
f 41 49 50
f 41 50 42
f 41 51 52
f 41 52 49
f 43 53 51
f 43 51 54
f 43 54 55
f 43 55 58
f 43 58 47
f 46 57 56
f 47 58 48
f 48 58 59
f 48 59 60
f 48 60 61
f 48 61 62
f 48 62 57
f 51 53 52
f 56 57 63
f 57 62 64
f 57 64 63

