# https://github.com/mikedh/trimesh
v 0.00629688 0.00129660 0.02286351
v 0.00469895 0.00025175 0.02368635
v 0.00629688 -0.00906672 0.02286351
v 0.00629688 0.00129660 0.02039146
v 0.00436068 0.00129660 0.02368635
v 0.00445282 0.00111908 0.02368635
v 0.00460550 0.00081576 0.02368635
v 0.00469895 -0.00144335 0.02368635
v 0.00578354 -0.00906672 0.02306552
v 0.00629688 -0.00906672 0.02039146
v 0.00629557 0.00129558 0.01763506
v 0.00629557 0.00129660 0.01978603
v 0.00043167 0.00129660 0.02368635
v 0.00464104 -0.00229039 0.02368635
v 0.00420536 -0.00300759 0.02368635
v 0.00407374 -0.00309686 0.02368635
v 0.00324055 -0.00325105 0.02368635
v 0.00312735 -0.00325308 0.02368635
v 0.00239420 -0.00325815 0.02368635
v 0.00493588 -0.00906672 0.02306552
v 0.00629557 -0.00906672 0.01763506
v 0.00617579 0.00129660 0.01763506
v -0.00010404 0.00119009 0.02368635
v -0.00401857 0.00129660 0.02168939
v 0.00154654 -0.00322670 0.02368635
v 0.00239420 -0.00906672 0.02305130
v -0.00606138 -0.00906672 0.01763506
v -0.00607981 0.00129660 0.01763506
v -0.00014748 0.00117791 0.02368635
v -0.00656288 0.00129660 0.01997086
v -0.00656419 -0.00906672 0.01997264
v -0.00401857 -0.00906672 0.02168939
v -0.00100567 0.00025175 0.02368635
v -0.00080297 0.00087257 0.02368635
v -0.00078717 0.00091822 0.02368635
v -0.00074374 0.00093648 0.02368635
v -0.00058447 -0.00272355 0.02368635
v 0.00154654 -0.00906672 0.02298199
v -0.00608244 -0.00906672 0.01763624
v -0.00607981 -0.00822171 0.01763506
v -0.00625224 0.00129660 0.01770496
v -0.00688931 0.00129660 0.01950879
v -0.00689062 -0.00906672 0.01950879
v -0.00353419 -0.00906672 0.02180905
v -0.00078717 -0.00232082 0.02368635
v -0.00080165 -0.00229039 0.02368635
v -0.00100567 -0.00144335 0.02368635
v -0.00682349 -0.00906672 0.01793836
v -0.00682349 -0.00822171 0.01793658
v -0.00682349 0.00129660 0.01793658
v -0.00714992 0.00129660 0.01866167
v -0.00714992 -0.00906672 0.01866167
f 1 2 8
f 1 8 3
f 1 3 10
f 1 10 4
f 1 4 12
f 1 12 22
f 1 22 28
f 1 28 41
f 1 41 50
f 1 50 51
f 1 51 42
f 1 42 30
f 1 30 24
f 1 24 13
f 1 13 5
f 1 5 6
f 1 6 7
f 1 7 2
f 2 7 6
f 2 6 5
f 2 5 13
f 2 13 23
f 2 23 29
f 2 29 36
f 2 36 35
f 2 35 34
f 2 34 33
f 2 33 47
f 2 47 46
f 2 46 45
f 2 45 37
f 2 37 25
f 2 25 19
f 2 19 18
f 2 18 17
f 2 17 16
f 2 16 15
f 2 15 14
f 2 14 8
f 3 8 9
f 3 9 20
f 3 20 26
f 3 26 38
f 3 38 44
f 3 44 32
f 3 32 31
f 3 31 43
f 3 43 52
f 3 52 48
f 3 48 39
f 3 39 27
f 3 27 21
f 3 21 10
f 4 10 21
f 4 21 11
f 4 11 12
f 8 14 9
f 9 14 15
f 9 15 16
f 9 16 17
f 9 17 18
f 9 18 19
f 9 19 20
f 11 21 27
f 11 27 40
f 11 40 28
f 11 28 22
f 11 22 12
f 13 24 23
f 19 25 20
f 20 25 26
f 23 24 29
f 24 30 31
f 24 31 32
f 24 32 47
f 24 47 33
f 24 33 34
f 24 34 35
f 24 35 36
f 24 36 29
f 25 37 26
f 26 37 38
f 27 39 40
f 28 40 41
f 30 42 31
f 31 42 43
f 32 44 37
f 32 37 45
f 32 45 46
f 32 46 47
f 37 44 38
f 39 48 49
f 39 49 40
f 40 49 41
f 41 49 50
f 42 51 43
f 43 51 52
f 48 52 49
f 49 52 51
f 49 51 50

