# https://github.com/mikedh/trimesh
v 0.00620376 -0.03925095 0.05876375
v 0.00620376 -0.03915246 0.05617992
v 0.00621614 -0.03915441 0.05629513
v 0.00638663 -0.03921487 0.05876375
v 0.00620376 -0.03127275 0.05876375
v 0.00620376 -0.03912126 0.05576050
v 0.00663189 -0.03881216 0.05435553
v 0.00681048 -0.03904813 0.05876375
v 0.00823394 -0.02928941 0.05876375
v 0.00620376 -0.03126397 0.05862739
v 0.00620376 -0.03899938 0.05435553
v 0.00719004 -0.03843480 0.05435553
v 0.00744292 -0.03860446 0.05876375
v 0.01106896 -0.02928941 0.05876375
v 0.00823394 -0.02928941 0.05764098
v 0.00620376 -0.03115281 0.05679351
v 0.00620376 -0.03117816 0.05722113
v 0.00620376 -0.03120352 0.05764098
v 0.00620376 -0.03125520 0.05848845
v 0.00620376 -0.03253549 0.05435553
v 0.01106896 -0.03480941 0.05876375
v 0.00784153 -0.03823003 0.05876375
v 0.01106896 -0.03383919 0.05435553
v 0.01106896 -0.02928941 0.05573332
v 0.00824394 -0.02928941 0.05691088
v 0.00620376 -0.03115476 0.05594648
v 0.00620376 -0.03131663 0.05521163
v 0.00917355 -0.02928941 0.05576050
v 0.01106896 -0.03088856 0.05435553
v 0.01075084 -0.02928941 0.05573116
v 0.00824680 -0.02928941 0.05679351
v 0.00850492 -0.02928941 0.05607981
v 0.01002077 -0.02928941 0.05573116
f 1 2 3
f 1 3 4
f 1 4 8
f 1 8 13
f 1 13 22
f 1 22 21
f 1 21 14
f 1 14 9
f 1 9 5
f 1 5 10
f 1 10 19
f 1 19 18
f 1 18 17
f 1 17 16
f 1 16 26
f 1 26 27
f 1 27 20
f 1 20 11
f 1 11 6
f 1 6 2
f 2 6 7
f 2 7 8
f 2 8 3
f 3 8 4
f 5 9 10
f 6 11 7
f 7 11 20
f 7 20 29
f 7 29 23
f 7 23 12
f 7 12 8
f 8 12 13
f 9 14 24
f 9 24 30
f 9 30 33
f 9 33 28
f 9 28 32
f 9 32 31
f 9 31 25
f 9 25 15
f 9 15 16
f 9 16 17
f 9 17 18
f 9 18 19
f 9 19 10
f 12 21 22
f 12 22 13
f 12 23 21
f 14 21 23
f 14 23 29
f 14 29 24
f 15 25 26
f 15 26 16
f 20 27 28
f 20 28 29
f 24 29 30
f 25 31 26
f 26 31 27
f 27 31 32
f 27 32 28
f 28 33 29
f 29 33 30

