# https://github.com/mikedh/trimesh
v -0.00435607 -0.03194893 0.04797752
v -0.00415809 -0.03266756 0.04797752
v -0.00415809 -0.03269746 0.04883253
v -0.00435607 -0.03194893 0.04883253
v -0.00435607 -0.03025392 0.04797752
v -0.00378754 -0.03287582 0.04797752
v -0.00353653 -0.03306244 0.04883253
v -0.00378231 -0.03292428 0.04883253
v -0.00435607 -0.03025392 0.04883253
v -0.00432170 -0.02940642 0.04797752
v -0.00353653 -0.03300677 0.04797752
v -0.00268934 -0.03304904 0.04797752
v -0.00268934 -0.03307069 0.04831977
v -0.00268934 -0.03310162 0.04883253
v -0.00420665 -0.02939198 0.04883253
v -0.00407143 -0.02686493 0.04805419
v -0.00410879 -0.02697628 0.04797752
v -0.00421114 -0.02771244 0.04797752
v -0.00099497 -0.03305007 0.04797752
v 0.00121264 -0.03310265 0.04883253
v -0.00401914 -0.02888059 0.04883253
v -0.00064608 -0.02257070 0.04878332
v -0.00401615 -0.02661130 0.04797752
v -0.00408862 -0.02686493 0.04797752
v 0.00154659 -0.03305007 0.04797752
v 0.00154659 -0.03310162 0.04883253
v -0.00399374 -0.02886306 0.04883253
v -0.00014778 -0.02257070 0.04882332
v -0.00060425 -0.02257070 0.04878775
v -0.00092325 -0.02257070 0.04832287
v -0.00094940 -0.02257070 0.04797752
v 0.00239452 -0.03307585 0.04883253
v 0.00205983 -0.03308719 0.04883253
v 0.00239452 -0.03302120 0.04797752
v -0.00353653 -0.02865686 0.04883253
v 0.00154659 -0.02257070 0.04882366
v 0.00317447 -0.02257070 0.04797752
v 0.00304672 -0.03268199 0.04797752
v 0.00304672 -0.03271086 0.04883253
v -0.00268934 -0.02856407 0.04883253
v 0.00239452 -0.02257070 0.04882374
v 0.00327607 -0.02991162 0.04797752
v 0.00310798 -0.02257070 0.04831977
v 0.00327607 -0.03025392 0.04883253
v 0.00313936 -0.03239227 0.04797752
v 0.00327607 -0.03194893 0.04797752
v 0.00313711 -0.03241702 0.04883253
v 0.00154659 -0.02856407 0.04883253
v 0.00287863 -0.02257070 0.04878357
v 0.00189547 -0.02858572 0.04883253
v 0.00239452 -0.02863727 0.04883253
v 0.00289431 -0.02886203 0.04883253
v 0.00304224 -0.02906308 0.04883253
v 0.00325067 -0.02991884 0.04883253
v 0.00327607 -0.03194893 0.04883253
f 1 2 3
f 1 3 4
f 1 4 9
f 1 9 5
f 1 5 10
f 1 10 18
f 1 18 17
f 1 17 24
f 1 24 23
f 1 23 31
f 1 31 37
f 1 37 42
f 1 42 46
f 1 46 45
f 1 45 38
f 1 38 34
f 1 34 25
f 1 25 19
f 1 19 12
f 1 12 11
f 1 11 6
f 1 6 2
f 2 6 7
f 2 7 8
f 2 8 3
f 3 8 7
f 3 7 14
f 3 14 20
f 3 20 26
f 3 26 33
f 3 33 32
f 3 32 39
f 3 39 47
f 3 47 55
f 3 55 44
f 3 44 54
f 3 54 53
f 3 53 52
f 3 52 51
f 3 51 50
f 3 50 48
f 3 48 40
f 3 40 35
f 3 35 27
f 3 27 21
f 3 21 15
f 3 15 9
f 3 9 4
f 5 9 10
f 6 11 7
f 7 12 13
f 7 13 14
f 7 11 12
f 9 15 16
f 9 16 17
f 9 17 18
f 9 18 10
f 12 19 13
f 13 20 14
f 13 19 20
f 15 21 16
f 16 22 23
f 16 23 24
f 16 24 17
f 16 21 22
f 19 25 20
f 20 25 26
f 21 27 28
f 21 28 29
f 21 29 22
f 22 29 28
f 22 28 36
f 22 36 41
f 22 41 49
f 22 49 43
f 22 43 37
f 22 37 31
f 22 31 30
f 22 30 23
f 23 30 31
f 25 32 33
f 25 33 26
f 25 34 32
f 27 35 28
f 28 35 36
f 32 34 38
f 32 38 39
f 35 40 36
f 36 40 41
f 37 43 44
f 37 44 42
f 38 45 39
f 39 45 46
f 39 46 47
f 40 48 41
f 41 48 50
f 41 50 51
f 41 51 52
f 41 52 53
f 41 53 54
f 41 54 49
f 42 44 55
f 42 55 46
f 43 49 44
f 44 49 54
f 46 55 47

