# https://github.com/mikedh/trimesh
v 0.00737571 -0.03923957 0.06559329
v 0.00737571 -0.03923257 0.06526706
v 0.00742083 -0.03923057 0.06559329
v 0.00737571 -0.03162260 0.06559329
v 0.00737571 -0.03922757 0.06509725
v 0.00739483 -0.03922857 0.06526706
v 0.00784452 -0.03913553 0.06559329
v 0.00833627 -0.02901959 0.06559329
v 0.00826285 -0.02901959 0.06526706
v 0.00737571 -0.03160260 0.06543151
v 0.00737571 -0.03920056 0.06442005
v 0.00781851 -0.03912753 0.06526706
v 0.00801353 -0.03906350 0.06559329
v 0.01043099 -0.02901959 0.06559329
v 0.00823455 -0.02901959 0.06442005
v 0.00737571 -0.03149956 0.06442005
v 0.00737571 -0.03915854 0.06357237
v 0.00737571 -0.03910152 0.06272536
v 0.00737571 -0.03903049 0.06187836
v 0.00832709 -0.03890444 0.06559329
v 0.01485447 -0.02901959 0.05919628
v 0.01425794 -0.03019105 0.06559329
v 0.00823455 -0.02901959 0.05876375
v 0.00737571 -0.03117043 0.05876375
v 0.00737571 -0.03119244 0.05933600
v 0.00737571 -0.03122745 0.06018367
v 0.00737571 -0.03126446 0.06103135
v 0.00737571 -0.03130348 0.06187836
v 0.00737571 -0.03130948 0.06196593
v 0.00737571 -0.03136651 0.06276815
v 0.00737571 -0.03141352 0.06339120
v 0.00737571 -0.03142753 0.06357237
v 0.00737571 -0.03894045 0.06104338
v 0.00832709 -0.03886943 0.06526706
v 0.00861312 -0.03874238 0.06559329
v 0.01502731 -0.02901959 0.05894425
v 0.01459062 -0.03037512 0.06559329
v 0.01510149 -0.02901959 0.05876375
v 0.00737571 -0.03865134 0.05876375
v 0.00737571 -0.03893445 0.06098990
v 0.00899245 -0.03849628 0.06559329
v 0.01479634 -0.03049016 0.06559329
v 0.01518868 -0.02968285 0.05876375
v 0.00744301 -0.03860533 0.05876375
v 0.01287216 -0.03569319 0.06559329
v 0.01487282 -0.03110240 0.06559329
v 0.01517185 -0.03025507 0.05876375
v 0.01366371 -0.03476683 0.06442005
v 0.01336239 -0.03522101 0.06526706
v 0.01414169 -0.03270403 0.05876375
v 0.01386332 -0.03324424 0.05967961
v 0.01339068 -0.03526402 0.06559329
v 0.01477646 -0.03194973 0.06559329
v 0.01515579 -0.03053018 0.05876375
v 0.01389467 -0.03412858 0.06294397
v 0.01396656 -0.03422062 0.06357237
v 0.01378607 -0.03486287 0.06526706
v 0.01443307 -0.03241491 0.05876375
v 0.01364535 -0.03504794 0.06559329
v 0.01469998 -0.03245993 0.06559329
v 0.01506325 -0.03110240 0.05876375
v 0.01402774 -0.03434366 0.06442005
v 0.01458374 -0.03223684 0.05876375
v 0.01381131 -0.03488888 0.06559329
v 0.01470304 -0.03247193 0.06526706
v 0.01464339 -0.03272103 0.06559329
v 0.01461127 -0.03289610 0.06526706
v 0.01470916 -0.03250395 0.06442005
v 0.01461815 -0.03292811 0.06442005
v 0.01499978 -0.03134350 0.05876375
v 0.01405222 -0.03443870 0.06526706
v 0.01482541 -0.03181368 0.05876375
v 0.01431912 -0.03364439 0.06357237
v 0.01403768 -0.03449072 0.06559329
v 0.01460821 -0.03288310 0.06559329
v 0.01452867 -0.03318321 0.06559329
v 0.01440248 -0.03364439 0.06559329
v 0.01440554 -0.03364439 0.06526706
v 0.01460974 -0.03293011 0.06357237
v 0.01438872 -0.03364439 0.06442005
v 0.01425106 -0.03401053 0.06559329
f 1 2 3
f 1 3 7
f 1 7 13
f 1 13 20
f 1 20 35
f 1 35 41
f 1 41 45
f 1 45 52
f 1 52 59
f 1 59 64
f 1 64 74
f 1 74 81
f 1 81 77
f 1 77 76
f 1 76 75
f 1 75 66
f 1 66 60
f 1 60 53
f 1 53 46
f 1 46 42
f 1 42 37
f 1 37 22
f 1 22 14
f 1 14 8
f 1 8 4
f 1 4 10
f 1 10 16
f 1 16 32
f 1 32 31
f 1 31 30
f 1 30 29
f 1 29 28
f 1 28 27
f 1 27 26
f 1 26 25
f 1 25 24
f 1 24 39
f 1 39 40
f 1 40 33
f 1 33 19
f 1 19 18
f 1 18 17
f 1 17 11
f 1 11 5
f 1 5 2
f 2 5 6
f 2 6 3
f 3 6 7
f 4 8 9
f 4 9 10
f 5 11 7
f 5 7 6
f 7 11 12
f 7 12 13
f 8 14 21
f 8 21 36
f 8 36 38
f 8 38 23
f 8 23 15
f 8 15 9
f 9 15 16
f 9 16 10
f 11 17 12
f 12 17 18
f 12 18 19
f 12 19 13
f 13 19 20
f 14 22 21
f 15 23 24
f 15 24 25
f 15 25 26
f 15 26 27
f 15 27 28
f 15 28 29
f 15 29 30
f 15 30 31
f 15 31 32
f 15 32 16
f 19 33 34
f 19 34 20
f 20 34 35
f 21 22 36
f 22 37 36
f 23 38 43
f 23 43 47
f 23 47 54
f 23 54 61
f 23 61 70
f 23 70 72
f 23 72 63
f 23 63 58
f 23 58 50
f 23 50 44
f 23 44 39
f 23 39 24
f 33 40 35
f 33 35 34
f 35 40 39
f 35 39 41
f 36 37 42
f 36 42 38
f 38 42 43
f 39 44 41
f 41 44 45
f 42 46 43
f 43 46 47
f 44 48 49
f 44 49 45
f 44 50 51
f 44 51 48
f 45 49 52
f 46 53 54
f 46 54 47
f 48 55 56
f 48 56 57
f 48 57 49
f 48 51 55
f 49 57 52
f 50 58 51
f 51 58 55
f 52 57 59
f 53 60 54
f 54 60 61
f 55 58 56
f 56 62 57
f 56 58 63
f 56 63 62
f 57 62 64
f 57 64 59
f 60 65 61
f 60 66 67
f 60 67 65
f 61 65 68
f 61 68 69
f 61 69 70
f 62 71 64
f 62 63 72
f 62 72 73
f 62 73 71
f 64 71 74
f 65 67 69
f 65 69 68
f 66 75 67
f 67 75 76
f 67 76 69
f 69 76 77
f 69 77 78
f 69 78 79
f 69 79 70
f 70 79 80
f 70 80 72
f 71 73 80
f 71 80 74
f 72 80 73
f 74 80 81
f 77 81 78
f 78 81 80
f 78 80 79

