# https://github.com/mikedh/trimesh
v 0.00823393 0.01042124 0.05876379
v 0.00839782 0.00957476 0.05876379
v 0.00823393 0.01042124 0.05919296
v 0.00823393 0.02784266 0.05876379
v 0.00839782 0.00957476 0.05919296
v 0.00865606 0.00909385 0.05876379
v 0.00823393 0.02784266 0.05919296
v 0.01453973 0.02784266 0.05876379
v 0.00865606 0.00909385 0.05919296
v 0.01148083 0.00561435 0.05876379
v 0.01214673 0.02784266 0.05919296
v 0.01510509 0.01716045 0.05876379
v 0.01426703 0.02784266 0.05890046
v 0.00917391 0.00903074 0.05919296
v 0.01155726 0.00561435 0.05879832
v 0.01171634 0.00561435 0.05887008
v 0.01526899 0.00561435 0.05876379
v 0.01425807 0.02784266 0.05890206
v 0.01186646 0.01042124 0.05919296
v 0.01510509 0.00561435 0.05885844
v 0.01510509 0.00618448 0.05885723
v 0.01510509 0.00703314 0.05885508
v 0.01510509 0.00787962 0.05885286
v 0.01510509 0.00872827 0.05885029
v 0.01518222 0.01381152 0.05876379
v 0.01510509 0.01466018 0.05880135
v 0.01510509 0.01042124 0.05884282
v 0.01510509 0.01126990 0.05883803
v 0.01510509 0.01211638 0.05883206
v 0.01510509 0.01296504 0.05882391
v 0.01510509 0.01381152 0.05881357
v 0.01002024 0.00893500 0.05919296
v 0.01425807 0.00561435 0.05887008
v 0.01526623 0.00618448 0.05876379
v 0.01510509 0.00957476 0.05884706
v 0.01160409 0.00963786 0.05919296
v 0.01149460 0.00953776 0.05919296
v 0.01086863 0.00909603 0.05919296
v 0.01048920 0.00896982 0.05919296
v 0.01519943 0.01296504 0.05876379
v 0.01524282 0.00957476 0.05876379
v 0.01522491 0.01126990 0.05876379
v 0.01521389 0.01211638 0.05876379
v 0.01526072 0.00703314 0.05876379
v 0.01524970 0.00872827 0.05876379
f 1 2 5
f 1 5 3
f 1 3 7
f 1 7 4
f 1 4 8
f 1 8 12
f 1 12 25
f 1 25 40
f 1 40 43
f 1 43 42
f 1 42 41
f 1 41 45
f 1 45 44
f 1 44 34
f 1 34 17
f 1 17 10
f 1 10 6
f 1 6 2
f 2 6 9
f 2 9 5
f 3 5 9
f 3 9 14
f 3 14 32
f 3 32 39
f 3 39 38
f 3 38 37
f 3 37 36
f 3 36 19
f 3 19 11
f 3 11 7
f 4 7 11
f 4 11 18
f 4 18 13
f 4 13 8
f 6 10 9
f 8 13 12
f 9 10 15
f 9 15 16
f 9 16 14
f 10 17 20
f 10 20 33
f 10 33 16
f 10 16 15
f 11 19 20
f 11 20 21
f 11 21 22
f 11 22 23
f 11 23 24
f 11 24 18
f 12 13 26
f 12 26 25
f 13 18 27
f 13 27 28
f 13 28 29
f 13 29 30
f 13 30 31
f 13 31 26
f 14 16 32
f 16 33 32
f 17 34 23
f 17 23 22
f 17 22 21
f 17 21 20
f 18 24 35
f 18 35 27
f 19 36 20
f 20 36 37
f 20 37 38
f 20 38 39
f 20 39 33
f 23 34 24
f 24 34 35
f 25 26 31
f 25 31 40
f 27 35 41
f 27 41 28
f 28 41 42
f 28 42 29
f 29 42 43
f 29 43 30
f 30 43 40
f 30 40 31
f 32 33 39
f 34 44 35
f 35 44 45
f 35 45 41

