# https://github.com/mikedh/trimesh
v 0.01468583 -0.03073047 0.07447048
v 0.01440588 -0.03110144 0.07967538
v 0.01468583 -0.03084374 0.07447048
v 0.01463097 -0.03061720 0.07447048
v 0.01394601 -0.02819300 0.08642984
v 0.01397425 -0.02819300 0.08729827
v 0.01435424 -0.03110144 0.08052111
v 0.01429696 -0.03194865 0.07967538
v 0.01434617 -0.03194865 0.07882777
v 0.01439135 -0.03194865 0.07798015
v 0.01449462 -0.03110144 0.07798015
v 0.01465920 -0.03114667 0.07447048
v 0.01453738 -0.03110144 0.07713253
v 0.01457933 -0.03110144 0.07628491
v 0.01462048 -0.03110144 0.07543729
v 0.01441798 -0.03046897 0.07447048
v 0.01385646 -0.02819300 0.08599846
v 0.01390003 -0.02819300 0.08818751
v 0.01395973 -0.02855941 0.08729827
v 0.01395973 -0.03025384 0.08645255
v 0.01417594 -0.03110144 0.08306396
v 0.01423645 -0.03110144 0.08221635
v 0.01424049 -0.03194865 0.08052111
v 0.01427195 -0.03207598 0.07967538
v 0.01432197 -0.03207598 0.07882777
v 0.01420741 -0.03207598 0.08064977
v 0.01436715 -0.03207598 0.07798015
v 0.01443331 -0.03194865 0.07713253
v 0.01456562 -0.03186846 0.07447048
v 0.01447364 -0.03194865 0.07628491
v 0.01451237 -0.03194865 0.07543729
v 0.01432439 -0.03040664 0.07447048
v 0.00917393 -0.02823405 0.07447048
v 0.01124896 -0.02819300 0.08104709
v 0.01387018 -0.02819300 0.08854132
v 0.01383145 -0.02819300 0.08899351
v 0.01387663 -0.03031390 0.08737017
v 0.01383226 -0.03063621 0.08770127
v 0.01397828 -0.03110144 0.08560493
v 0.01404605 -0.03110144 0.08475731
v 0.01411140 -0.03110144 0.08391158
v 0.01385969 -0.03167499 0.08630686
v 0.01393956 -0.03194865 0.08475731
v 0.01400168 -0.03194865 0.08391158
v 0.01396376 -0.03207598 0.08412916
v 0.01440910 -0.03207598 0.07713253
v 0.01444379 -0.03207598 0.07641168
v 0.01455352 -0.03194865 0.07447048
v 0.01454868 -0.03194865 0.07458967
v 0.01448252 -0.03207598 0.07556406
v 0.01448817 -0.03207598 0.07543729
v 0.00849220 -0.02861718 0.07447048
v 0.00827033 -0.02819300 0.08004054
v 0.00849381 -0.02819300 0.07910967
v 0.00858417 -0.02819300 0.07893372
v 0.00917393 -0.02819300 0.07847396
v 0.00989599 -0.02819300 0.07890534
v 0.01122233 -0.02819300 0.08099789
v 0.01381693 -0.02819300 0.08915433
v 0.01377578 -0.02940700 0.08899351
v 0.01375319 -0.03110144 0.08814589
v 0.01385727 -0.03095624 0.08713745
v 0.01373383 -0.03025384 0.08899351
v 0.01367574 -0.03110144 0.08899351
v 0.01389196 -0.03118392 0.08653390
v 0.01383387 -0.03152106 0.08687257
v 0.01357247 -0.03194865 0.08899351
v 0.01372415 -0.03194865 0.08729827
v 0.01379999 -0.03207598 0.08620469
v 0.01382500 -0.03207598 0.08592089
v 0.01387905 -0.03195398 0.08552925
v 0.01390890 -0.03207598 0.08488786
v 0.01452931 -0.03207598 0.07447048
v 0.00845589 -0.02872779 0.07447048
v 0.00664791 -0.02855941 0.08899351
v 0.00686574 -0.02819300 0.08899351
v 0.00693754 -0.02819300 0.08847699
v 0.01377659 -0.02819300 0.08954219
v 0.01368542 -0.02940700 0.08984113
v 0.01381693 -0.03118392 0.08737017
v 0.01364024 -0.03025384 0.08984113
v 0.01357812 -0.03110144 0.08984113
v 0.01354504 -0.03207598 0.08899351
v 0.01347082 -0.03194865 0.08984113
v 0.01385001 -0.03207598 0.08562763
v 0.01386614 -0.03207598 0.08543465
v 0.00747969 -0.03207598 0.07447048
v 0.00823403 -0.02940700 0.07447048
v 0.00648171 -0.02940700 0.08899351
v 0.00651156 -0.02819300 0.09238398
v 0.00747001 -0.03207598 0.07447237
v 0.01374674 -0.02819300 0.08980896
v 0.01372576 -0.02855941 0.08984113
v 0.01360394 -0.02819300 0.09068875
v 0.01358619 -0.02855941 0.09068875
v 0.01354424 -0.02940700 0.09068875
v 0.01349825 -0.03025384 0.09068875
v 0.01343452 -0.03110144 0.09068875
v 0.01344178 -0.03207598 0.08984113
v 0.01331915 -0.03194865 0.09068875
v 0.00747969 -0.03207409 0.07447048
v 0.00645105 -0.02940700 0.08984113
v 0.00658578 -0.03207598 0.08475920
v 0.00647445 -0.02855941 0.09238398
v 0.00652608 -0.02819300 0.09274914
v 0.01350390 -0.02819300 0.09116932
v 0.01340951 -0.02855941 0.09153636
v 0.01336755 -0.02940700 0.09153636
v 0.01325864 -0.03110144 0.09153636
v 0.01314488 -0.03025384 0.09238398
v 0.01328768 -0.03207598 0.09068685
v 0.01303435 -0.03178180 0.09214559
v 0.01311342 -0.03201783 0.09160637
v 0.01309002 -0.03207598 0.09166502
v 0.01326025 -0.03207598 0.09083443
v 0.00645670 -0.03207598 0.08886675
v 0.00645025 -0.03207598 0.08971436
v 0.00644460 -0.02940700 0.09238398
v 0.00661725 -0.02819300 0.09323160
v 0.01342725 -0.02819300 0.09153636
v 0.01318926 -0.02940700 0.09238398
v 0.01300289 -0.03079205 0.09283996
v 0.01306905 -0.03108509 0.09241047
v 0.01302225 -0.03025384 0.09287969
v 0.01300692 -0.03207598 0.09203774
v 0.01296094 -0.03135686 0.09271130
v 0.01292060 -0.03201783 0.09241047
v 0.00644379 -0.03207598 0.09225722
v 0.00644460 -0.03207598 0.09238398
v 0.00674875 -0.02819300 0.09345107
v 0.00670438 -0.03207598 0.09305943
v 0.00675763 -0.03207598 0.09319376
v 0.01332399 -0.02819300 0.09201693
v 0.01322879 -0.02855941 0.09238398
v 0.01273181 -0.02819300 0.09341134
v 0.01270600 -0.02855941 0.09339242
v 0.01264387 -0.02940700 0.09334890
v 0.01249785 -0.03029945 0.09337161
v 0.01263177 -0.03108509 0.09314457
v 0.01248333 -0.03194865 0.09315970
v 0.01246800 -0.03207598 0.09315024
v 0.01324412 -0.02819300 0.09238398
v 0.01304323 -0.02940700 0.09292510
v 0.01293109 -0.03207598 0.09232722
v 0.01288026 -0.03207598 0.09246155
v 0.01290527 -0.03207598 0.09240858
v 0.00692221 -0.02819300 0.09372541
v 0.00738691 -0.03207598 0.09352297
v 0.00702548 -0.03006532 0.09366865
v 0.00698514 -0.02940700 0.09368947
v 0.00693996 -0.02855941 0.09371595
v 0.01249139 -0.02819300 0.09359487
v 0.01217191 -0.03004745 0.09366865
v 0.01306098 -0.02855941 0.09296861
v 0.01306824 -0.02819300 0.09298753
v 0.01236634 -0.03207598 0.09321079
v 0.01314892 -0.02819300 0.09271508
v 0.00717312 -0.02819300 0.09376325
v 0.00747969 -0.03207598 0.09356459
v 0.00747969 -0.02819300 0.09379731
v 0.01230825 -0.02819300 0.09372730
v 0.01228244 -0.02855941 0.09371595
v 0.01222032 -0.02940700 0.09368947
v 0.01171527 -0.02819300 0.09379920
v 0.01171527 -0.02855941 0.09377650
v 0.01171527 -0.03016946 0.09367622
v 0.01171527 -0.03059326 0.09364973
v 0.01157328 -0.03207598 0.09354946
v 0.01170559 -0.03207598 0.09353811
v 0.00832681 -0.03207598 0.09357405
v 0.01086816 -0.03207598 0.09357405
f 1 2 3
f 1 3 12
f 1 12 29
f 1 29 48
f 1 48 73
f 1 73 87
f 1 87 101
f 1 101 88
f 1 88 74
f 1 74 52
f 1 52 33
f 1 33 32
f 1 32 16
f 1 16 4
f 1 4 5
f 1 5 6
f 1 6 2
f 2 7 8
f 2 8 9
f 2 9 10
f 2 10 11
f 2 11 3
f 2 6 7
f 3 11 13
f 3 13 14
f 3 14 15
f 3 15 12
f 4 16 17
f 4 17 5
f 5 17 34
f 5 34 58
f 5 58 57
f 5 57 56
f 5 56 55
f 5 55 54
f 5 54 53
f 5 53 77
f 5 77 76
f 5 76 90
f 5 90 105
f 5 105 119
f 5 119 130
f 5 130 147
f 5 147 158
f 5 158 160
f 5 160 164
f 5 164 161
f 5 161 152
f 5 152 135
f 5 135 155
f 5 155 157
f 5 157 142
f 5 142 133
f 5 133 120
f 5 120 106
f 5 106 94
f 5 94 92
f 5 92 78
f 5 78 59
f 5 59 36
f 5 36 35
f 5 35 18
f 5 18 6
f 6 18 19
f 6 19 20
f 6 20 21
f 6 21 22
f 6 22 7
f 7 22 23
f 7 23 8
f 8 24 25
f 8 25 9
f 8 23 26
f 8 26 24
f 9 25 27
f 9 27 10
f 10 27 46
f 10 46 28
f 10 28 14
f 10 14 13
f 10 13 11
f 12 15 30
f 12 30 31
f 12 31 29
f 14 28 15
f 15 28 30
f 16 32 17
f 17 32 33
f 17 33 34
f 18 35 19
f 19 35 20
f 20 35 36
f 20 36 37
f 20 37 38
f 20 38 39
f 20 39 40
f 20 40 41
f 20 41 21
f 21 41 42
f 21 42 43
f 21 43 44
f 21 44 22
f 22 44 23
f 23 44 45
f 23 45 26
f 24 26 45
f 24 45 72
f 24 72 86
f 24 86 85
f 24 85 70
f 24 70 69
f 24 69 83
f 24 83 99
f 24 99 111
f 24 111 115
f 24 115 114
f 24 114 125
f 24 125 144
f 24 144 146
f 24 146 145
f 24 145 141
f 24 141 156
f 24 156 169
f 24 169 168
f 24 168 171
f 24 171 170
f 24 170 159
f 24 159 148
f 24 148 132
f 24 132 131
f 24 131 129
f 24 129 128
f 24 128 117
f 24 117 116
f 24 116 103
f 24 103 91
f 24 91 87
f 24 87 73
f 24 73 51
f 24 51 50
f 24 50 47
f 24 47 46
f 24 46 27
f 24 27 25
f 28 46 47
f 28 47 30
f 29 31 49
f 29 49 48
f 30 47 50
f 30 50 31
f 31 50 51
f 31 51 49
f 33 52 53
f 33 53 54
f 33 54 55
f 33 55 56
f 33 56 57
f 33 57 58
f 33 58 34
f 36 59 60
f 36 60 37
f 37 60 38
f 38 61 62
f 38 62 39
f 38 60 63
f 38 63 64
f 38 64 61
f 39 62 65
f 39 65 66
f 39 66 40
f 40 66 41
f 41 66 42
f 42 66 67
f 42 67 68
f 42 68 69
f 42 69 70
f 42 70 71
f 42 71 43
f 43 71 72
f 43 72 44
f 44 72 45
f 48 49 73
f 49 51 73
f 52 74 75
f 52 75 76
f 52 76 77
f 52 77 53
f 59 78 60
f 60 78 79
f 60 79 63
f 61 66 80
f 61 80 62
f 61 64 66
f 62 80 66
f 62 66 65
f 63 79 81
f 63 81 64
f 64 67 66
f 64 81 82
f 64 82 67
f 67 83 69
f 67 69 68
f 67 82 84
f 67 84 83
f 70 85 71
f 71 86 72
f 71 85 86
f 74 88 75
f 75 89 90
f 75 90 76
f 75 88 91
f 75 91 89
f 78 92 93
f 78 93 79
f 79 93 94
f 79 94 95
f 79 95 96
f 79 96 81
f 81 96 97
f 81 97 82
f 82 97 98
f 82 98 84
f 83 84 99
f 84 98 100
f 84 100 99
f 87 91 101
f 88 101 91
f 89 102 90
f 89 91 103
f 89 103 102
f 90 104 105
f 90 102 104
f 92 94 93
f 94 106 95
f 95 106 107
f 95 107 108
f 95 108 96
f 96 108 110
f 96 110 97
f 97 109 98
f 97 110 109
f 98 109 100
f 99 100 111
f 100 109 112
f 100 112 113
f 100 113 114
f 100 114 115
f 100 115 111
f 102 103 116
f 102 116 117
f 102 117 128
f 102 128 118
f 102 118 104
f 104 118 105
f 105 118 119
f 106 120 107
f 107 120 121
f 107 121 108
f 108 121 110
f 109 110 122
f 109 122 123
f 109 123 112
f 110 121 124
f 110 124 122
f 112 125 113
f 112 123 126
f 112 126 127
f 112 127 125
f 113 125 114
f 118 128 129
f 118 129 119
f 119 129 131
f 119 131 132
f 119 132 130
f 120 133 134
f 120 134 121
f 121 134 124
f 122 124 135
f 122 135 136
f 122 136 137
f 122 137 138
f 122 138 139
f 122 139 140
f 122 140 141
f 122 141 126
f 122 126 123
f 124 134 142
f 124 142 143
f 124 143 135
f 125 127 144
f 126 145 127
f 126 141 145
f 127 145 146
f 127 146 144
f 130 132 147
f 132 148 149
f 132 149 150
f 132 150 151
f 132 151 147
f 133 142 134
f 135 152 153
f 135 153 136
f 135 143 154
f 135 154 155
f 136 153 138
f 136 138 137
f 138 153 140
f 138 140 139
f 140 153 141
f 141 153 156
f 142 157 143
f 143 157 154
f 147 151 158
f 148 159 149
f 149 159 160
f 149 160 158
f 149 158 150
f 150 158 151
f 152 161 162
f 152 162 163
f 152 163 153
f 153 163 164
f 153 164 165
f 153 165 166
f 153 166 167
f 153 167 168
f 153 168 169
f 153 169 156
f 154 157 155
f 159 170 160
f 160 170 164
f 161 164 162
f 162 164 163
f 164 170 171
f 164 171 165
f 165 171 166
f 166 171 167
f 167 171 168

