# https://github.com/mikedh/trimesh
v 0.01278859 0.03647251 0.03661783
v 0.01256239 0.03654858 0.03661783
v 0.01278859 0.03171006 0.03661783
v 0.01278859 0.03641697 0.03617668
v 0.01278859 0.03632340 0.03543572
v 0.01262276 0.03639766 0.03558759
v 0.01241816 0.03635721 0.03476117
v 0.01171543 0.03676711 0.03645544
v 0.01171543 0.03678703 0.03661783
v 0.00629752 0.03181752 0.03661783
v 0.00629752 0.03144806 0.02990189
v 0.01278859 0.03139132 0.02990189
v 0.01278859 0.03623647 0.03476117
v 0.01171543 0.03665784 0.03560797
v 0.01263038 0.03625820 0.03456064
v 0.01226948 0.03630711 0.03410502
v 0.01157755 0.03682023 0.03661783
v 0.00629752 0.03755854 0.03661783
v 0.00629752 0.03651477 0.02990189
v 0.01278859 0.03532672 0.02990189
v 0.01278859 0.03620569 0.03456064
v 0.01266723 0.03624613 0.03456064
v 0.01188380 0.03647070 0.03456064
v 0.01171543 0.03654194 0.03476117
v 0.01086783 0.03684800 0.03560797
v 0.01078523 0.03699289 0.03653762
v 0.01080747 0.03699832 0.03661783
v 0.01278859 0.03609944 0.03387360
v 0.01255604 0.03617309 0.03385848
v 0.01256239 0.03603243 0.03306624
v 0.01256239 0.03588091 0.03222009
v 0.01209856 0.03625700 0.03353961
v 0.01177579 0.03638438 0.03385848
v 0.00663236 0.03754043 0.03661783
v 0.00629752 0.03732129 0.03476117
v 0.00629752 0.03663671 0.03052450
v 0.00663236 0.03661498 0.03052450
v 0.00663236 0.03649244 0.02990189
v 0.01271361 0.03535148 0.02990189
v 0.01278859 0.03539856 0.03018591
v 0.01106924 0.03665301 0.03456130
v 0.01086783 0.03672908 0.03476117
v 0.01021275 0.03707559 0.03630948
v 0.01070453 0.03702187 0.03661783
v 0.01278859 0.03605959 0.03364283
v 0.01278859 0.03592075 0.03284402
v 0.01278859 0.03576017 0.03194593
v 0.01278859 0.03565573 0.03137197
v 0.01256239 0.03572636 0.03137197
v 0.01171543 0.03595455 0.03137197
v 0.01190858 0.03621474 0.03306624
v 0.01130751 0.03626968 0.03262311
v 0.01148478 0.03630892 0.03306624
v 0.01086783 0.03659385 0.03391370
v 0.00747996 0.03747402 0.03661783
v 0.00663236 0.03730197 0.03476117
v 0.00651164 0.03727964 0.03456130
v 0.00629752 0.03719271 0.03388412
v 0.00629752 0.03678160 0.03137197
v 0.00663236 0.03675987 0.03137197
v 0.00747996 0.03667958 0.03137197
v 0.00747996 0.03652986 0.03052450
v 0.00747869 0.03640369 0.02990189
v 0.01237623 0.03546014 0.02990189
v 0.01258209 0.03554465 0.03052582
v 0.01278859 0.03550722 0.03064087
v 0.01232285 0.03547704 0.02990189
v 0.01086783 0.03669708 0.03456064
v 0.01002086 0.03676047 0.03391370
v 0.01002086 0.03686310 0.03456130
v 0.01002086 0.03689449 0.03476117
v 0.00996622 0.03702669 0.03565597
v 0.00964789 0.03712208 0.03597023
v 0.00996622 0.03714683 0.03653762
v 0.01008122 0.03713837 0.03661783
v 0.01278859 0.03560925 0.03113265
v 0.01171543 0.03578250 0.03052450
v 0.01082272 0.03615800 0.03140944
v 0.01107496 0.03621957 0.03205901
v 0.01086783 0.03597387 0.03052450
v 0.01086783 0.03644354 0.03306624
v 0.01051011 0.03628054 0.03171648
v 0.00832693 0.03737562 0.03661783
v 0.00747996 0.03734302 0.03560797
v 0.00747996 0.03723134 0.03476117
v 0.00747996 0.03720297 0.03456064
v 0.00747996 0.03714381 0.03415105
v 0.00688270 0.03710276 0.03355144
v 0.00661330 0.03717037 0.03386637
v 0.00793998 0.03711785 0.03431015
v 0.00917390 0.03688966 0.03391370
v 0.00832693 0.03656729 0.03137197
v 0.00832693 0.03641335 0.03052450
v 0.00876090 0.03626786 0.03009519
v 0.00817253 0.03630831 0.02990189
v 0.01229109 0.03548549 0.02990189
v 0.01002086 0.03661196 0.03306624
v 0.00969110 0.03628416 0.03085915
v 0.00912052 0.03703635 0.03481639
v 0.00936769 0.03708404 0.03540548
v 0.00917390 0.03726937 0.03661783
v 0.00988362 0.03716916 0.03661783
v 0.00997194 0.03715649 0.03661783
v 0.01174974 0.03562796 0.02990189
v 0.01086783 0.03583201 0.02990189
v 0.01025532 0.03622983 0.03115172
v 0.00999227 0.03616282 0.03055541
v 0.01001324 0.03601492 0.02990189
v 0.00999227 0.03632582 0.03140944
v 0.00832693 0.03735449 0.03645544
v 0.00832693 0.03724342 0.03560797
v 0.00810137 0.03713234 0.03456130
v 0.00768329 0.03718124 0.03456064
v 0.00850103 0.03708103 0.03456064
v 0.00851437 0.03707921 0.03456064
v 0.00917390 0.03645018 0.03137197
v 0.00909574 0.03631193 0.03055541
v 0.00915738 0.03616645 0.02990189
v 0.00895278 0.03619663 0.02990189
v 0.00932575 0.03622742 0.03029374
v 0.00826403 0.03714622 0.03481639
v 0.00880283 0.03712026 0.03513526
v 0.00976734 0.03605959 0.02990189
f 1 2 9
f 1 9 17
f 1 17 27
f 1 27 44
f 1 44 75
f 1 75 103
f 1 103 102
f 1 102 101
f 1 101 83
f 1 83 55
f 1 55 34
f 1 34 18
f 1 18 10
f 1 10 3
f 1 3 12
f 1 12 20
f 1 20 40
f 1 40 66
f 1 66 76
f 1 76 48
f 1 48 47
f 1 47 46
f 1 46 45
f 1 45 28
f 1 28 21
f 1 21 13
f 1 13 5
f 1 5 4
f 1 4 2
f 2 4 5
f 2 5 6
f 2 6 7
f 2 7 8
f 2 8 9
f 3 10 11
f 3 11 12
f 5 13 6
f 6 13 7
f 7 14 8
f 7 13 15
f 7 15 16
f 7 16 14
f 8 17 9
f 8 14 17
f 10 18 35
f 10 35 58
f 10 58 59
f 10 59 36
f 10 36 19
f 10 19 11
f 11 19 38
f 11 38 63
f 11 63 95
f 11 95 119
f 11 119 118
f 11 118 123
f 11 123 108
f 11 108 105
f 11 105 104
f 11 104 96
f 11 96 67
f 11 67 64
f 11 64 39
f 11 39 20
f 11 20 12
f 13 21 22
f 13 22 15
f 14 16 23
f 14 23 24
f 14 24 25
f 14 25 26
f 14 26 27
f 14 27 17
f 15 22 16
f 16 28 29
f 16 29 30
f 16 30 31
f 16 31 32
f 16 32 33
f 16 33 23
f 16 22 28
f 18 34 35
f 19 36 37
f 19 37 38
f 20 39 40
f 21 28 22
f 23 33 24
f 24 41 42
f 24 42 25
f 24 33 41
f 25 43 44
f 25 44 26
f 25 42 43
f 26 44 27
f 28 45 29
f 29 45 46
f 29 46 30
f 30 46 47
f 30 47 31
f 31 47 48
f 31 48 49
f 31 49 32
f 32 49 50
f 32 50 51
f 32 51 52
f 32 52 53
f 32 53 33
f 33 53 54
f 33 54 41
f 34 55 56
f 34 56 35
f 35 56 57
f 35 57 58
f 36 59 60
f 36 60 37
f 37 60 61
f 37 61 62
f 37 62 38
f 38 62 63
f 39 64 40
f 40 65 66
f 40 64 67
f 40 67 65
f 41 68 42
f 41 54 68
f 42 68 69
f 42 69 70
f 42 70 71
f 42 71 43
f 43 71 72
f 43 72 73
f 43 73 74
f 43 74 75
f 43 75 44
f 48 76 49
f 49 76 66
f 49 66 65
f 49 65 77
f 49 77 50
f 50 78 79
f 50 79 52
f 50 52 51
f 50 77 80
f 50 80 78
f 52 79 81
f 52 81 54
f 52 54 53
f 54 81 82
f 54 82 69
f 54 69 68
f 55 83 84
f 55 84 56
f 56 84 85
f 56 85 86
f 56 86 87
f 56 87 88
f 56 88 89
f 56 89 58
f 56 58 57
f 58 89 88
f 58 88 59
f 59 88 60
f 60 88 61
f 61 88 87
f 61 87 90
f 61 90 91
f 61 91 92
f 61 92 62
f 62 92 93
f 62 93 94
f 62 94 63
f 63 94 95
f 65 67 77
f 67 96 77
f 69 82 97
f 69 97 98
f 69 98 91
f 69 91 70
f 70 91 71
f 71 99 100
f 71 100 73
f 71 73 72
f 71 91 99
f 73 100 101
f 73 101 102
f 73 102 103
f 73 103 74
f 74 103 75
f 77 96 104
f 77 104 105
f 77 105 80
f 78 82 79
f 78 80 106
f 78 106 82
f 79 82 81
f 80 107 106
f 80 105 108
f 80 108 107
f 82 106 109
f 82 109 97
f 83 101 110
f 83 110 84
f 84 110 111
f 84 111 112
f 84 112 113
f 84 113 85
f 85 113 86
f 86 113 90
f 86 90 87
f 90 114 91
f 90 113 112
f 90 112 114
f 91 114 115
f 91 115 99
f 91 98 116
f 91 116 92
f 92 116 93
f 93 116 117
f 93 117 94
f 94 118 119
f 94 119 95
f 94 117 120
f 94 120 118
f 97 109 98
f 98 109 106
f 98 106 107
f 98 107 120
f 98 120 117
f 98 117 116
f 99 121 122
f 99 122 100
f 99 115 114
f 99 114 121
f 100 122 101
f 101 122 111
f 101 111 110
f 107 108 120
f 108 123 120
f 111 122 121
f 111 121 112
f 112 121 114
f 118 120 123

