# https://github.com/mikedh/trimesh
v 0.01234802 -0.02097342 0.05876375
v 0.01234802 -0.02097342 0.05573523
v 0.00823433 -0.02097342 0.05876375
v 0.01234802 -0.02928941 0.05876375
v 0.01171610 -0.02097342 0.05573126
v 0.01234802 -0.02177767 0.05571364
v 0.01075675 -0.02436787 0.05334948
v 0.01048611 -0.02468045 0.05296587
v 0.01075716 -0.02347571 0.05356657
v 0.01062304 -0.02291322 0.05371149
v 0.01002133 -0.02284484 0.05365352
v 0.01002133 -0.02242074 0.05405759
v 0.00823433 -0.02097342 0.05679342
v 0.00823433 -0.02928941 0.05876375
v 0.01234802 -0.02928941 0.05567045
v 0.01086832 -0.02097342 0.05572785
v 0.01234802 -0.02262831 0.05569659
v 0.01234802 -0.02919173 0.05567045
v 0.01075716 -0.02512734 0.05334777
v 0.01002133 -0.02464707 0.05295792
v 0.01002133 -0.02422297 0.05305566
v 0.01002133 -0.02347571 0.05330458
v 0.01048611 -0.02481639 0.05296587
v 0.00917395 -0.02284484 0.05365352
v 0.00917395 -0.02242074 0.05405759
v 0.01002133 -0.02097342 0.05572728
v 0.00824480 -0.02097342 0.05674966
v 0.00827179 -0.02347571 0.05425195
v 0.00823433 -0.02432310 0.05425195
v 0.00823433 -0.02928941 0.05764077
v 0.01002133 -0.02666828 0.05363761
v 0.01063230 -0.02659257 0.05370126
v 0.01076441 -0.02601706 0.05355577
v 0.01002133 -0.02928941 0.05573126
v 0.00917395 -0.02666828 0.05363761
v 0.01002133 -0.02485139 0.05295792
v 0.00917395 -0.02464707 0.05295792
v 0.00917395 -0.02422297 0.05306476
v 0.00917395 -0.02347571 0.05331368
v 0.01002133 -0.02601706 0.05328412
v 0.01002133 -0.02527468 0.05305055
v 0.00862822 -0.02291322 0.05371149
v 0.00863829 -0.02211793 0.05454634
v 0.00917395 -0.02097342 0.05574433
v 0.00849008 -0.02097342 0.05606144
v 0.00850659 -0.02262994 0.05425877
v 0.00852995 -0.02347571 0.05357567
v 0.00852794 -0.02436787 0.05335687
v 0.00852794 -0.02512734 0.05335516
v 0.00823433 -0.02516967 0.05425195
v 0.00824360 -0.02928941 0.05691106
v 0.00917395 -0.02928941 0.05576024
v 0.00862057 -0.02659257 0.05370126
v 0.00917395 -0.02601706 0.05329322
v 0.00917395 -0.02485139 0.05295792
v 0.00872408 -0.02468045 0.05296587
v 0.00917395 -0.02527468 0.05306021
v 0.00872408 -0.02481639 0.05296587
v 0.00852391 -0.02601706 0.05356544
v 0.00826575 -0.02601706 0.05425195
v 0.00824682 -0.02928941 0.05679342
v 0.00850498 -0.02928941 0.05607906
v 0.00849451 -0.02687097 0.05424854
f 1 2 5
f 1 5 16
f 1 16 26
f 1 26 44
f 1 44 45
f 1 45 27
f 1 27 13
f 1 13 3
f 1 3 14
f 1 14 4
f 1 4 15
f 1 15 18
f 1 18 17
f 1 17 6
f 1 6 2
f 2 6 7
f 2 7 8
f 2 8 9
f 2 9 10
f 2 10 11
f 2 11 12
f 2 12 5
f 3 13 29
f 3 29 50
f 3 50 30
f 3 30 14
f 4 14 30
f 4 30 51
f 4 51 61
f 4 61 62
f 4 62 52
f 4 52 34
f 4 34 15
f 5 12 16
f 6 17 7
f 7 17 18
f 7 18 19
f 7 19 8
f 8 20 21
f 8 21 22
f 8 22 10
f 8 10 9
f 8 19 23
f 8 23 36
f 8 36 20
f 10 22 11
f 11 22 24
f 11 24 25
f 11 25 12
f 12 25 26
f 12 26 16
f 13 27 28
f 13 28 29
f 15 31 32
f 15 32 33
f 15 33 23
f 15 23 19
f 15 19 18
f 15 34 35
f 15 35 31
f 20 36 55
f 20 55 37
f 20 37 21
f 21 37 38
f 21 38 39
f 21 39 22
f 22 39 24
f 23 33 32
f 23 32 40
f 23 40 41
f 23 41 36
f 24 39 42
f 24 42 25
f 25 43 44
f 25 44 26
f 25 42 43
f 27 45 46
f 27 46 28
f 28 46 42
f 28 42 47
f 28 47 48
f 28 48 29
f 29 48 49
f 29 49 50
f 30 50 51
f 31 35 40
f 31 40 32
f 34 52 35
f 35 53 54
f 35 54 40
f 35 52 53
f 36 41 55
f 37 55 58
f 37 58 56
f 37 56 38
f 38 56 39
f 39 56 42
f 40 54 41
f 41 54 57
f 41 57 55
f 42 46 45
f 42 45 43
f 42 56 47
f 43 45 44
f 47 56 48
f 48 56 49
f 49 56 58
f 49 58 59
f 49 59 60
f 49 60 50
f 50 60 61
f 50 61 51
f 52 62 53
f 53 62 63
f 53 63 60
f 53 60 59
f 53 59 58
f 53 58 54
f 54 58 57
f 55 57 58
f 60 63 61
f 61 63 62

