# https://github.com/mikedh/trimesh
v 0.01042942 -0.00059502 0.05887612
v 0.01042942 -0.00144223 0.05884303
v 0.01042942 -0.00053939 0.05887424
v 0.00650096 -0.00059502 0.06514142
v 0.01042942 -0.00160395 0.05876437
v 0.00650096 -0.00114037 0.06496537
v 0.01042942 0.00025189 0.05884740
v 0.00650096 0.00025189 0.06511145
v 0.00990837 -0.00206145 0.05876437
v 0.01042942 0.00054311 0.05876437
v 0.00650096 -0.00144223 0.06477247
v 0.00650096 -0.00155714 0.06462639
v 0.01042942 0.00031330 0.05883616
v 0.00650096 0.00071426 0.06441975
v 0.01042942 0.00039872 0.05881993
v 0.00650096 -0.00203288 0.05983065
v 0.00650134 -0.00203257 0.05876437
v 0.00650096 -0.00179364 0.06414007
v 0.00650096 -0.00193378 0.06353264
v 0.00650096 -0.00195293 0.06341528
v 0.00663209 -0.00203257 0.06187829
v 0.00650096 -0.00203257 0.06187829
v 0.00650096 -0.00203288 0.06103114
v 0.00993183 0.00088692 0.05876437
v 0.00650096 0.00088996 0.06413945
v 0.00650096 0.00093252 0.05983065
v 0.00650134 0.00087658 0.05876437
v 0.00979147 0.00095441 0.05876437
v 0.00650096 0.00101004 0.06285592
v 0.00650096 0.00100244 0.06116224
v 0.00650096 0.00104408 0.06200877
f 1 2 5
f 1 5 10
f 1 10 15
f 1 15 13
f 1 13 7
f 1 7 3
f 1 3 4
f 1 4 2
f 2 4 6
f 2 6 5
f 3 7 4
f 4 8 14
f 4 14 25
f 4 25 29
f 4 29 31
f 4 31 30
f 4 30 26
f 4 26 16
f 4 16 23
f 4 23 22
f 4 22 20
f 4 20 19
f 4 19 18
f 4 18 12
f 4 12 11
f 4 11 6
f 4 7 8
f 5 9 17
f 5 17 27
f 5 27 28
f 5 28 24
f 5 24 10
f 5 6 11
f 5 11 12
f 5 12 9
f 7 13 8
f 8 13 15
f 8 15 10
f 8 10 14
f 9 16 17
f 9 12 18
f 9 18 19
f 9 19 20
f 9 20 21
f 9 21 22
f 9 22 23
f 9 23 16
f 10 24 25
f 10 25 14
f 16 26 27
f 16 27 17
f 20 22 21
f 24 28 25
f 25 28 29
f 26 30 27
f 27 30 28
f 28 30 31
f 28 31 29

