# https://github.com/mikedh/trimesh
v 0.01860301 -0.01330910 0.02021881
v 0.01861685 -0.01245910 0.02021881
v 0.01861512 -0.01404468 0.02021881
v 0.01953700 -0.01160910 0.02289983
v 0.01934156 0.01198934 0.02289746
v 0.01934098 0.01198934 0.02021881
v 0.01873504 -0.01476119 0.02021881
v 0.01966327 -0.01216487 0.02289983
v 0.01943323 0.01126738 0.02289983
v 0.02122512 0.01198934 0.02289983
v 0.02278927 0.01198934 0.02021881
v 0.01955199 -0.01563843 0.02021881
v 0.01974802 -0.01223570 0.02289983
v 0.02171690 0.01198934 0.02289983
v 0.02297549 0.01122652 0.02021881
v 0.02274430 0.01198934 0.02033507
v 0.02022136 -0.01581552 0.02021881
v 0.02103774 -0.01298490 0.02289983
v 0.02075005 -0.01289500 0.02289983
v 0.02022482 -0.01263074 0.02289983
v 0.02020810 -0.01261984 0.02289983
v 0.02230901 0.01169238 0.02162781
v 0.02212625 0.01198934 0.02192279
v 0.02182933 0.01129190 0.02289983
v 0.02378495 0.00703100 0.02021881
v 0.02364543 0.00787828 0.02021881
v 0.02347478 0.00877732 0.02021881
v 0.02298126 0.01119928 0.02021881
v 0.02103774 -0.01584276 0.02021881
v 0.02155547 -0.01302304 0.02273056
v 0.02164080 -0.01266615 0.02289983
v 0.02388816 0.00634991 0.02021881
v 0.02272758 0.00533372 0.02289983
v 0.02164887 -0.01539324 0.02021881
v 0.02169961 -0.01252176 0.02289983
v 0.02391006 0.00619462 0.02021881
v 0.02285327 0.00448644 0.02289983
v 0.02212798 -0.01417000 0.02021881
v 0.02218044 -0.01402561 0.02021881
v 0.02223521 -0.01348891 0.02057834
v 0.02238223 -0.01343442 0.02021881
v 0.02247102 -0.01314836 0.02021881
v 0.02272931 -0.01230926 0.02021881
v 0.02295243 -0.01156279 0.02021881
v 0.02297837 -0.01147561 0.02021881
v 0.02196770 -0.01161182 0.02289983
v 0.02397118 0.00574782 0.02021881
v 0.02296915 0.00363644 0.02289983
v 0.02303891 -0.01126311 0.02021881
v 0.02318132 -0.01076182 0.02021881
v 0.02326492 -0.01045397 0.02021881
v 0.02218794 -0.01078634 0.02289983
v 0.02402307 0.00533644 0.02021881
v 0.02305736 0.00291993 0.02289983
v 0.02404786 0.00513757 0.02021881
v 0.02219082 -0.01077545 0.02289983
v 0.02340156 -0.00993634 0.02021881
v 0.02307235 0.00279189 0.02289983
v 0.02412396 0.00448917 0.02021881
v 0.02356875 -0.00906727 0.02035554
v 0.02241048 -0.00986823 0.02289983
v 0.02361833 -0.00906999 0.02021881
v 0.02428309 0.00304253 0.02021881
v 0.02421160 0.00372362 0.02021881
v 0.02312424 0.00229333 0.02289983
v 0.02259152 -0.00906999 0.02289983
v 0.02375094 -0.00821999 0.02035554
v 0.02380110 -0.00821999 0.02021881
v 0.02315999 0.00194461 0.02289983
v 0.02319170 0.00160134 0.02289983
v 0.02323782 0.00109733 0.02289983
v 0.02430096 0.00284093 0.02021881
v 0.02342404 -0.00821999 0.02120293
v 0.02276794 -0.00822272 0.02289983
v 0.02382647 -0.00807560 0.02021881
v 0.02358432 -0.00737271 0.02120293
v 0.02326665 -0.00730188 0.02206161
v 0.02325165 0.00093387 0.02289983
v 0.02436841 0.00206721 0.02021881
v 0.02292533 -0.00737816 0.02289983
v 0.02392217 -0.00751983 0.02021881
v 0.02389392 -0.00743265 0.02033612
v 0.02315999 -0.00697223 0.02248439
v 0.02405881 -0.00671887 0.02021881
v 0.02409110 -0.00652544 0.02021881
v 0.02372038 -0.00652544 0.02120293
v 0.02339983 -0.00652544 0.02205007
v 0.02330527 0.00023371 0.02289983
v 0.02437764 0.00194461 0.02021881
v 0.02306486 -0.00652544 0.02289983
v 0.02395388 -0.00733457 0.02021881
v 0.02422024 -0.00566999 0.02021881
v 0.02351283 -0.00567816 0.02205007
v 0.02325338 -0.00567816 0.02272032
v 0.02310579 -0.00623121 0.02289983
v 0.02330873 0.00018467 0.02289983
v 0.02442780 0.00124445 0.02021881
v 0.02431941 -0.00483088 0.02021881
v 0.02318247 -0.00567816 0.02289983
v 0.02326203 -0.00491534 0.02289983
v 0.02334909 -0.00059995 0.02289983
v 0.02443645 0.00109733 0.02021881
v 0.02433209 -0.00470011 0.02021881
v 0.02327760 -0.00475460 0.02289983
v 0.02447046 0.00040807 0.02021881
v 0.02337100 -0.00144722 0.02289983
v 0.02439955 -0.00397816 0.02021881
v 0.02434535 -0.00398360 0.02035554
v 0.02328048 -0.00471918 0.02289983
v 0.02447450 0.00025006 0.02021881
v 0.02336754 -0.00229177 0.02289983
v 0.02413492 -0.00144450 0.02108353
v 0.02443356 -0.00059722 0.02035554
v 0.02448891 -0.00043648 0.02021881
v 0.02445374 -0.00313633 0.02021881
v 0.02440012 -0.00313633 0.02035554
v 0.02331623 -0.00383649 0.02289983
v 0.02336696 -0.00231085 0.02289983
v 0.02412915 -0.00228905 0.02107828
v 0.02443760 -0.00144450 0.02035554
v 0.02449295 -0.00128376 0.02021881
v 0.02448199 -0.00228905 0.02021881
v 0.02442953 -0.00228905 0.02035554
v 0.02393774 -0.00313633 0.02146930
v 0.02333929 -0.00321261 0.02289983
v 0.02448430 -0.00213376 0.02021881
f 1 2 6
f 1 6 11
f 1 11 15
f 1 15 28
f 1 28 27
f 1 27 26
f 1 26 25
f 1 25 32
f 1 32 36
f 1 36 47
f 1 47 53
f 1 53 55
f 1 55 59
f 1 59 64
f 1 64 63
f 1 63 72
f 1 72 79
f 1 79 89
f 1 89 97
f 1 97 102
f 1 102 105
f 1 105 110
f 1 110 114
f 1 114 121
f 1 121 126
f 1 126 122
f 1 122 115
f 1 115 107
f 1 107 103
f 1 103 98
f 1 98 92
f 1 92 85
f 1 85 84
f 1 84 91
f 1 91 81
f 1 81 75
f 1 75 68
f 1 68 62
f 1 62 57
f 1 57 51
f 1 51 50
f 1 50 49
f 1 49 45
f 1 45 44
f 1 44 43
f 1 43 42
f 1 42 41
f 1 41 39
f 1 39 38
f 1 38 34
f 1 34 29
f 1 29 17
f 1 17 12
f 1 12 7
f 1 7 3
f 1 3 4
f 1 4 5
f 1 5 2
f 2 5 6
f 3 7 4
f 4 7 8
f 4 8 13
f 4 13 21
f 4 21 20
f 4 20 19
f 4 19 18
f 4 18 31
f 4 31 35
f 4 35 46
f 4 46 52
f 4 52 56
f 4 56 61
f 4 61 66
f 4 66 74
f 4 74 80
f 4 80 90
f 4 90 95
f 4 95 99
f 4 99 100
f 4 100 104
f 4 104 109
f 4 109 117
f 4 117 125
f 4 125 118
f 4 118 111
f 4 111 106
f 4 106 101
f 4 101 96
f 4 96 88
f 4 88 78
f 4 78 71
f 4 71 70
f 4 70 69
f 4 69 65
f 4 65 58
f 4 58 54
f 4 54 48
f 4 48 37
f 4 37 33
f 4 33 24
f 4 24 14
f 4 14 10
f 4 10 9
f 4 9 5
f 5 9 10
f 5 10 14
f 5 14 23
f 5 23 16
f 5 16 11
f 5 11 6
f 7 12 8
f 8 12 13
f 11 16 15
f 12 17 18
f 12 18 19
f 12 19 20
f 12 20 21
f 12 21 13
f 14 22 23
f 14 24 25
f 14 25 26
f 14 26 27
f 14 27 22
f 15 16 23
f 15 23 22
f 15 22 28
f 17 29 18
f 18 30 31
f 18 29 30
f 22 27 28
f 24 32 25
f 24 33 32
f 29 34 30
f 30 34 31
f 31 34 35
f 32 33 37
f 32 37 36
f 34 38 35
f 35 38 39
f 35 39 40
f 35 40 41
f 35 41 42
f 35 42 43
f 35 43 44
f 35 44 45
f 35 45 46
f 36 37 47
f 37 48 47
f 39 41 40
f 45 49 46
f 46 49 50
f 46 50 51
f 46 51 52
f 47 48 53
f 48 54 55
f 48 55 53
f 51 56 52
f 51 57 56
f 54 58 59
f 54 59 55
f 56 57 60
f 56 60 61
f 57 62 60
f 58 63 64
f 58 64 59
f 58 65 63
f 60 66 61
f 60 62 67
f 60 67 66
f 62 68 67
f 63 65 69
f 63 69 70
f 63 70 71
f 63 71 72
f 66 67 73
f 66 73 74
f 67 68 75
f 67 75 76
f 67 76 77
f 67 77 73
f 71 78 79
f 71 79 72
f 73 77 74
f 74 77 80
f 75 81 82
f 75 82 76
f 76 83 77
f 76 82 84
f 76 84 85
f 76 85 86
f 76 86 87
f 76 87 83
f 77 83 80
f 78 88 79
f 79 88 89
f 80 83 90
f 81 91 82
f 82 91 84
f 83 87 90
f 85 92 86
f 86 92 87
f 87 92 93
f 87 93 94
f 87 94 95
f 87 95 90
f 88 96 97
f 88 97 89
f 92 98 93
f 93 98 94
f 94 99 95
f 94 98 100
f 94 100 99
f 96 101 102
f 96 102 97
f 98 103 100
f 100 103 104
f 101 105 102
f 101 106 105
f 103 107 104
f 104 107 108
f 104 108 109
f 105 106 110
f 106 111 112
f 106 112 113
f 106 113 114
f 106 114 110
f 107 115 116
f 107 116 108
f 108 116 109
f 109 116 117
f 111 118 119
f 111 119 112
f 112 119 120
f 112 120 113
f 113 120 121
f 113 121 114
f 115 122 123
f 115 123 116
f 116 124 117
f 116 123 124
f 117 124 125
f 118 125 119
f 119 124 123
f 119 123 120
f 119 125 124
f 120 123 121
f 121 123 126
f 122 126 123

