# https://github.com/mikedh/trimesh
v 0.01462609 -0.02763103 0.05532336
v 0.01338954 -0.02928922 0.05532336
v 0.01462609 -0.02928922 0.05532336
v 0.01462609 -0.02728633 0.05132239
v 0.01235549 -0.02928922 0.05086213
v 0.01238438 -0.02928922 0.05101255
v 0.01252198 -0.02928922 0.05170970
v 0.01462609 -0.02928922 0.05027043
v 0.01462609 -0.02728633 0.05108651
v 0.01292297 -0.02894374 0.05040486
v 0.01268869 -0.02928922 0.05031990
v 0.01457696 -0.02928922 0.05026343
v 0.01462609 -0.02852159 0.05031940
v 0.01462609 -0.02748848 0.05066423
v 0.01443426 -0.02792710 0.05040086
v 0.01341088 -0.02928922 0.05023395
v 0.01424999 -0.02928922 0.05021795
v 0.01462609 -0.02785377 0.05039686
f 1 2 3
f 1 3 8
f 1 8 13
f 1 13 18
f 1 18 14
f 1 14 9
f 1 9 4
f 1 4 5
f 1 5 6
f 1 6 7
f 1 7 2
f 2 7 6
f 2 6 5
f 2 5 11
f 2 11 16
f 2 16 17
f 2 17 12
f 2 12 8
f 2 8 3
f 4 9 5
f 5 9 10
f 5 10 11
f 8 12 13
f 9 14 10
f 10 15 11
f 10 14 15
f 11 15 16
f 12 17 13
f 13 17 18
f 14 18 15
f 15 18 16
f 16 18 17

