# https://github.com/mikedh/trimesh
v 0.00239449 0.01118538 0.03878303
v 0.00296768 0.01142954 0.03878303
v 0.00154753 0.01120780 0.03878303
v 0.00209960 0.01170458 0.02450590
v 0.00239487 0.01170010 0.02450590
v 0.00284022 0.01170309 0.02450590
v 0.00324183 0.01170907 0.02450590
v 0.00302311 0.01150876 0.03878303
v 0.00395077 0.01201451 0.02450590
v 0.00399904 0.01205238 0.02450590
v 0.00402053 0.01215652 0.02967865
v 0.00087404 0.01143950 0.03878303
v 0.00151661 0.01173598 0.02450590
v 0.00322863 0.01233042 0.03878303
v 0.00396284 0.01216798 0.03052564
v 0.00437576 0.01296323 0.02967865
v 0.00443534 0.01296323 0.02450590
v 0.00065457 0.01211068 0.03878303
v 0.00098114 0.01217047 0.02450590
v 0.00147249 0.01175641 0.02450590
v 0.00327577 0.01296372 0.03878303
v 0.00443685 0.01312965 0.02450590
v 0.00444099 0.01381029 0.02450590
v 0.00437576 0.01381029 0.02967865
v 0.00058858 0.01296372 0.03878303
v 0.00084425 0.01296323 0.02450590
v 0.00085707 0.01285909 0.02450590
v 0.00327577 0.01465736 0.03878303
v 0.00444099 0.01397672 0.02450590
v 0.00443798 0.01465736 0.02450590
v 0.00436708 0.01465736 0.02967865
v 0.00058858 0.01465736 0.03878303
v 0.00084425 0.01465736 0.02450590
v 0.00312116 0.01551290 0.03878303
v 0.00438217 0.01480435 0.02450590
v 0.00401186 0.01538982 0.02967865
v 0.00395869 0.01537388 0.03052564
v 0.00289339 0.01609289 0.03878303
v 0.00073414 0.01548549 0.03878303
v 0.00098151 0.01535993 0.02450590
v 0.00406201 0.01544164 0.02450590
v 0.00251705 0.01625283 0.03878303
v 0.00339116 0.01572715 0.02450590
v 0.00074809 0.01555425 0.03878303
v 0.00107843 0.01542271 0.02450590
v 0.00102035 0.01606947 0.03878303
v 0.00239449 0.01627576 0.03878303
v 0.00324183 0.01577848 0.02450590
v 0.00154753 0.01571021 0.02450590
v 0.00151661 0.01625134 0.03878303
v 0.00239487 0.01578745 0.02450590
f 1 2 8
f 1 8 14
f 1 14 21
f 1 21 28
f 1 28 34
f 1 34 38
f 1 38 42
f 1 42 47
f 1 47 50
f 1 50 46
f 1 46 44
f 1 44 39
f 1 39 32
f 1 32 25
f 1 25 18
f 1 18 12
f 1 12 3
f 1 3 4
f 1 4 5
f 1 5 6
f 1 6 7
f 1 7 2
f 2 7 9
f 2 9 10
f 2 10 11
f 2 11 8
f 3 12 13
f 3 13 4
f 4 13 20
f 4 20 19
f 4 19 27
f 4 27 26
f 4 26 33
f 4 33 40
f 4 40 45
f 4 45 49
f 4 49 51
f 4 51 48
f 4 48 43
f 4 43 41
f 4 41 35
f 4 35 30
f 4 30 29
f 4 29 23
f 4 23 22
f 4 22 17
f 4 17 10
f 4 10 9
f 4 9 7
f 4 7 6
f 4 6 5
f 8 11 15
f 8 15 16
f 8 16 14
f 10 17 11
f 11 17 16
f 11 16 15
f 12 18 19
f 12 19 20
f 12 20 13
f 14 16 21
f 16 17 22
f 16 22 23
f 16 23 29
f 16 29 24
f 16 24 28
f 16 28 21
f 18 25 26
f 18 26 27
f 18 27 19
f 24 29 30
f 24 30 31
f 24 31 28
f 25 32 33
f 25 33 26
f 28 31 34
f 30 35 31
f 31 35 36
f 31 36 37
f 31 37 38
f 31 38 34
f 32 39 33
f 33 39 40
f 35 41 36
f 36 41 38
f 36 38 37
f 38 41 43
f 38 43 42
f 39 44 40
f 40 44 46
f 40 46 45
f 42 43 48
f 42 48 47
f 45 46 49
f 46 50 49
f 47 51 50
f 47 48 51
f 49 50 51

