# https://github.com/mikedh/trimesh
v 0.00629752 0.02881954 0.02882945
v 0.00629752 0.02895257 0.02848240
v 0.01278859 0.02879460 0.02884219
v 0.01278859 0.02887321 0.02901399
v 0.01278859 0.02914682 0.02947844
v 0.00629752 0.02917933 0.02943437
v 0.01278859 0.02902740 0.02824656
v 0.00629752 0.02914305 0.02799591
v 0.01278859 0.02940986 0.02957450
v 0.01278859 0.02991174 0.02970223
v 0.00629752 0.02962225 0.02954420
v 0.01278859 0.02912037 0.02804205
v 0.00629752 0.02991174 0.02764886
v 0.01278859 0.03176660 0.02638427
v 0.00629752 0.02991174 0.02961581
v 0.01278859 0.03139170 0.02990089
v 0.00629752 0.03144838 0.02990089
v 0.00629752 0.03341435 0.02638427
v 0.01278859 0.03436974 0.02638427
v 0.01278859 0.03532740 0.02990089
v 0.00629752 0.03651559 0.02990089
v 0.00629752 0.03575445 0.02638427
v 0.01260302 0.03444154 0.02638427
v 0.01278859 0.03450504 0.02677435
v 0.01278859 0.03484743 0.02800073
v 0.01256299 0.03491848 0.02798214
v 0.01258269 0.03532589 0.02962752
v 0.01271424 0.03535159 0.02990089
v 0.00663179 0.03649292 0.02990089
v 0.00629752 0.03647175 0.02967676
v 0.00629752 0.03593208 0.02713483
v 0.00663179 0.03590562 0.02713483
v 0.00663179 0.03572649 0.02638427
v 0.01246385 0.03448916 0.02638427
v 0.01278859 0.03452998 0.02685113
v 0.01278859 0.03478319 0.02774870
v 0.01278859 0.03465620 0.02727771
v 0.01255854 0.03469475 0.02714963
v 0.01171585 0.03494947 0.02713483
v 0.01171585 0.03516943 0.02798214
v 0.01208127 0.03540374 0.02931249
v 0.01231387 0.03547479 0.02987748
v 0.01237678 0.03546043 0.02990089
v 0.00747829 0.03640373 0.02990089
v 0.00719485 0.03628733 0.02915412
v 0.00663179 0.03644832 0.02967676
v 0.00663179 0.03631227 0.02903568
v 0.00629752 0.03626012 0.02867968
v 0.00663179 0.03622232 0.02861220
v 0.00663179 0.03608778 0.02798214
v 0.00747956 0.03580509 0.02713483
v 0.00754121 0.03560782 0.02638427
v 0.01189507 0.03467208 0.02638427
v 0.01227256 0.03461615 0.02657432
v 0.01278859 0.03455190 0.02692481
v 0.01086809 0.03495779 0.02638427
v 0.01086809 0.03517018 0.02713483
v 0.01170886 0.03472726 0.02638427
v 0.01123795 0.03540676 0.02845692
v 0.01151630 0.03547479 0.02902191
v 0.01176542 0.03555944 0.02962752
v 0.01175017 0.03562823 0.02990089
v 0.01229162 0.03548613 0.02990089
v 0.01232340 0.03547706 0.02990089
v 0.01233865 0.03547252 0.02990089
v 0.00817226 0.03630849 0.02990089
v 0.00747829 0.03635233 0.02965024
v 0.00854149 0.03625558 0.02990089
v 0.00895267 0.03619662 0.02990089
v 0.00747956 0.03599103 0.02798214
v 0.00917382 0.03573253 0.02798214
v 0.00832669 0.03567207 0.02713483
v 0.00892788 0.03544909 0.02660186
v 0.00818688 0.03550956 0.02638427
v 0.00909566 0.03614447 0.02975766
v 0.01002667 0.03516187 0.02638427
v 0.01007052 0.03534856 0.02709317
v 0.01038637 0.03540525 0.02761684
v 0.01092083 0.03535536 0.02793256
v 0.00949285 0.03540072 0.02678261
v 0.01086809 0.03578091 0.02967676
v 0.01086809 0.03583155 0.02990089
v 0.00915730 0.03616639 0.02990089
v 0.00982141 0.03547025 0.02734760
v 0.00919607 0.03552392 0.02709317
v 0.00917382 0.03592301 0.02882945
v 0.00976739 0.03605982 0.02990089
v 0.01002096 0.03596382 0.02967676
v 0.00924437 0.03533118 0.02638427
v 0.00912553 0.03535159 0.02638427
v 0.00832669 0.03548688 0.02638427
v 0.00991800 0.03518757 0.02638427
v 0.01002096 0.03576881 0.02882945
v 0.01001333 0.03601446 0.02990089
f 1 2 3
f 1 3 4
f 1 4 5
f 1 5 6
f 1 6 11
f 1 11 15
f 1 15 17
f 1 17 21
f 1 21 30
f 1 30 48
f 1 48 31
f 1 31 22
f 1 22 18
f 1 18 13
f 1 13 8
f 1 8 2
f 2 7 3
f 2 8 7
f 3 7 12
f 3 12 14
f 3 14 19
f 3 19 24
f 3 24 35
f 3 35 55
f 3 55 37
f 3 37 36
f 3 36 25
f 3 25 20
f 3 20 16
f 3 16 10
f 3 10 9
f 3 9 5
f 3 5 4
f 5 9 6
f 6 9 10
f 6 10 11
f 7 8 12
f 8 13 14
f 8 14 12
f 10 15 11
f 10 16 17
f 10 17 15
f 13 18 14
f 14 18 22
f 14 22 33
f 14 33 52
f 14 52 74
f 14 74 91
f 14 91 90
f 14 90 89
f 14 89 92
f 14 92 76
f 14 76 56
f 14 56 58
f 14 58 53
f 14 53 34
f 14 34 23
f 14 23 19
f 16 20 28
f 16 28 43
f 16 43 65
f 16 65 64
f 16 64 63
f 16 63 62
f 16 62 82
f 16 82 94
f 16 94 87
f 16 87 83
f 16 83 69
f 16 69 68
f 16 68 66
f 16 66 44
f 16 44 29
f 16 29 21
f 16 21 17
f 19 23 24
f 20 25 26
f 20 26 27
f 20 27 28
f 21 29 30
f 22 31 32
f 22 32 33
f 23 34 24
f 24 34 35
f 25 36 26
f 26 36 37
f 26 37 38
f 26 38 39
f 26 39 40
f 26 40 41
f 26 41 42
f 26 42 27
f 27 42 43
f 27 43 28
f 29 44 45
f 29 45 46
f 29 46 30
f 30 46 47
f 30 47 48
f 31 48 47
f 31 47 49
f 31 49 50
f 31 50 32
f 32 50 45
f 32 45 51
f 32 51 33
f 33 51 52
f 34 53 54
f 34 54 35
f 35 54 38
f 35 38 55
f 37 55 38
f 38 54 39
f 39 56 57
f 39 57 40
f 39 54 53
f 39 53 58
f 39 58 56
f 40 57 59
f 40 59 41
f 41 59 60
f 41 60 61
f 41 61 62
f 41 62 63
f 41 63 42
f 42 63 64
f 42 64 65
f 42 65 43
f 44 66 67
f 44 67 45
f 45 49 47
f 45 47 46
f 45 67 66
f 45 66 68
f 45 68 69
f 45 69 70
f 45 70 51
f 45 50 49
f 51 71 72
f 51 72 73
f 51 73 74
f 51 74 52
f 51 70 75
f 51 75 71
f 56 76 57
f 57 77 78
f 57 78 79
f 57 79 59
f 57 76 80
f 57 80 77
f 59 79 78
f 59 78 81
f 59 81 62
f 59 62 60
f 60 62 61
f 62 81 82
f 69 83 75
f 69 75 70
f 71 84 80
f 71 80 85
f 71 85 72
f 71 75 86
f 71 86 87
f 71 87 88
f 71 88 84
f 72 85 73
f 73 80 89
f 73 89 90
f 73 90 91
f 73 91 74
f 73 85 80
f 75 83 86
f 76 92 80
f 77 80 84
f 77 84 78
f 78 84 81
f 80 92 89
f 81 84 93
f 81 93 88
f 81 88 82
f 82 88 94
f 83 87 86
f 84 88 93
f 87 94 88

