# https://github.com/mikedh/trimesh
v 0.00823393 0.01042116 0.05679363
v 0.00849235 0.01042116 0.05607018
v 0.00857432 0.00957498 0.05616087
v 0.00839787 0.00957498 0.05679363
v 0.00823393 0.01042116 0.05876375
v 0.00823393 0.02415116 0.05679363
v 0.00843979 0.02415116 0.05621640
v 0.00917439 0.01042116 0.05575227
v 0.01086885 0.00270053 0.05604114
v 0.00849235 0.02415116 0.05607018
v 0.01043960 0.00270053 0.05635701
v 0.00839787 0.00957498 0.05876375
v 0.01043272 0.00270053 0.05679363
v 0.01043147 0.00270053 0.05764088
v 0.00823393 0.02415116 0.05876375
v 0.01462631 0.00270053 0.05481994
v 0.01171545 0.00270053 0.05573648
v 0.00917439 0.02415116 0.05575227
v 0.01462631 0.02415116 0.05355901
v 0.01043647 0.00270053 0.05803571
v 0.01043835 0.00270053 0.05808819
v 0.01082004 0.00270053 0.05844584
v 0.01086885 0.00270053 0.05849067
v 0.01147330 0.00270053 0.05876375
v 0.01447363 0.02415116 0.05876375
v 0.01462631 0.00270053 0.05876375
v 0.01462631 0.02415116 0.05870108
v 0.01451806 0.02397899 0.05876375
v 0.01462631 0.02397899 0.05871942
v 0.01462631 0.02156642 0.05876375
v 0.01459440 0.02228452 0.05876375
v 0.01462631 0.02228452 0.05875356
v 0.01462631 0.02313070 0.05873776
f 1 2 3
f 1 3 4
f 1 4 12
f 1 12 5
f 1 5 15
f 1 15 6
f 1 6 7
f 1 7 2
f 2 8 9
f 2 9 3
f 2 7 10
f 2 10 18
f 2 18 8
f 3 9 11
f 3 11 4
f 4 11 13
f 4 13 14
f 4 14 12
f 5 12 24
f 5 24 26
f 5 26 30
f 5 30 31
f 5 31 28
f 5 28 25
f 5 25 15
f 6 15 25
f 6 25 27
f 6 27 19
f 6 19 18
f 6 18 10
f 6 10 7
f 8 16 17
f 8 17 9
f 8 18 19
f 8 19 16
f 9 17 16
f 9 16 26
f 9 26 24
f 9 24 23
f 9 23 22
f 9 22 21
f 9 21 20
f 9 20 14
f 9 14 13
f 9 13 11
f 12 14 20
f 12 20 21
f 12 21 22
f 12 22 23
f 12 23 24
f 16 19 27
f 16 27 29
f 16 29 33
f 16 33 32
f 16 32 30
f 16 30 26
f 25 28 29
f 25 29 27
f 28 31 32
f 28 32 33
f 28 33 29
f 30 32 31

