# https://github.com/mikedh/trimesh
v 0.00239469 -0.01206670 0.02917040
v 0.00154736 -0.01195159 0.02868517
v 0.00154736 -0.01211110 0.02917040
v 0.00324161 -0.01206834 0.02917040
v 0.00239469 -0.01169013 0.02798203
v 0.00154736 -0.01173946 0.02798203
v 0.00107780 -0.01199106 0.02856333
v 0.00098397 -0.01247616 0.02917040
v 0.00373452 -0.01228212 0.02917040
v 0.00379435 -0.01197297 0.02861432
v 0.00324161 -0.01169342 0.02798203
v 0.00324161 -0.01152569 0.02713450
v 0.00239469 -0.01152569 0.02713450
v 0.00239469 -0.01092384 0.02368694
v 0.00154736 -0.01159476 0.02713450
v 0.00154736 -0.01100770 0.02368694
v 0.00101921 -0.01191213 0.02798203
v 0.00084425 -0.01330658 0.02917040
v 0.00087949 -0.01245971 0.02798203
v 0.00402462 -0.01242847 0.02917040
v 0.00392710 -0.01186608 0.02798203
v 0.00380008 -0.01107677 0.02368694
v 0.00324161 -0.01094850 0.02368694
v 0.00098356 -0.01147307 0.02368694
v 0.00098397 -0.01184964 0.02713450
v 0.00084425 -0.01500197 0.02917040
v 0.00084425 -0.01245971 0.02713450
v 0.00051565 -0.02772309 0.02368694
v 0.00428234 -0.01245971 0.02798203
v 0.00415696 -0.01273104 0.02917040
v 0.00433847 -0.01135961 0.02368694
v 0.00411312 -0.01122970 0.02368694
v 0.00095652 -0.01159969 0.02368694
v 0.00084794 -0.01550844 0.02917040
v 0.00079099 -0.02772309 0.02798203
v 0.00084303 -0.01245971 0.02368694
v 0.00469043 -0.02772309 0.02368694
v 0.00460767 -0.01189404 0.02368694
v 0.00445812 -0.01159147 0.02368694
v 0.00437576 -0.01330658 0.02917040
v 0.00086146 -0.01584883 0.02917040
v 0.00096103 -0.02772309 0.02862828
v 0.00436674 -0.02772309 0.02798203
v 0.00469248 -0.02771322 0.02368694
v 0.00469945 -0.01245971 0.02368694
v 0.00437576 -0.01500197 0.02917040
v 0.00470150 -0.02686307 0.02368694
v 0.00469986 -0.01259784 0.02368694
v 0.00092825 -0.01636682 0.02917040
v 0.00153343 -0.02772309 0.02892832
v 0.00401150 -0.02772309 0.02871040
v 0.00470068 -0.02700120 0.02368694
v 0.00432741 -0.01584883 0.02917040
v 0.00098356 -0.01659375 0.02917040
v 0.00154859 -0.02772309 0.02893208
v 0.00400126 -0.02772309 0.02871470
v 0.00402052 -0.01663815 0.02917040
v 0.00323055 -0.02772309 0.02901635
v 0.00324161 -0.02772309 0.02901581
v 0.00154736 -0.01694072 0.02917040
v 0.00238445 -0.02772309 0.02901742
v 0.00324940 -0.01700321 0.02917040
v 0.00324161 -0.01700485 0.02917040
v 0.00239469 -0.01701965 0.02917040
v 0.00240248 -0.01701965 0.02917040
f 1 2 3
f 1 3 8
f 1 8 18
f 1 18 26
f 1 26 34
f 1 34 41
f 1 41 49
f 1 49 54
f 1 54 60
f 1 60 64
f 1 64 65
f 1 65 63
f 1 63 62
f 1 62 57
f 1 57 53
f 1 53 46
f 1 46 40
f 1 40 30
f 1 30 20
f 1 20 9
f 1 9 4
f 1 4 5
f 1 5 2
f 2 6 7
f 2 7 3
f 2 5 6
f 3 7 8
f 4 9 10
f 4 10 11
f 4 11 5
f 5 11 12
f 5 12 13
f 5 13 6
f 6 13 14
f 6 14 15
f 6 15 7
f 7 15 16
f 7 16 17
f 7 17 8
f 8 17 19
f 8 19 18
f 9 20 10
f 10 20 21
f 10 21 11
f 11 21 12
f 12 21 22
f 12 22 23
f 12 23 14
f 12 14 13
f 14 23 22
f 14 22 32
f 14 32 31
f 14 31 39
f 14 39 38
f 14 38 45
f 14 45 48
f 14 48 47
f 14 47 52
f 14 52 44
f 14 44 37
f 14 37 28
f 14 28 36
f 14 36 33
f 14 33 24
f 14 24 16
f 14 16 15
f 16 24 17
f 17 24 25
f 17 25 19
f 18 19 27
f 18 27 28
f 18 28 26
f 19 25 27
f 20 29 21
f 20 30 29
f 21 29 31
f 21 31 32
f 21 32 22
f 24 33 27
f 24 27 25
f 26 28 35
f 26 35 34
f 27 36 28
f 27 33 36
f 28 37 43
f 28 43 51
f 28 51 56
f 28 56 59
f 28 59 58
f 28 58 61
f 28 61 55
f 28 55 50
f 28 50 42
f 28 42 35
f 29 38 39
f 29 39 31
f 29 30 40
f 29 40 38
f 34 35 42
f 34 42 41
f 37 44 43
f 38 40 45
f 40 46 47
f 40 47 48
f 40 48 45
f 41 42 50
f 41 50 49
f 43 44 52
f 43 52 46
f 43 46 51
f 46 53 51
f 46 52 47
f 49 50 55
f 49 55 54
f 51 53 56
f 53 57 58
f 53 58 59
f 53 59 56
f 54 55 61
f 54 61 60
f 57 62 58
f 58 62 63
f 58 63 61
f 60 61 64
f 61 63 65
f 61 65 64

