# https://github.com/mikedh/trimesh
v 0.00469978 -0.00144256 0.02368694
v 0.00464168 -0.00228994 0.02368694
v 0.00469922 0.00011401 0.02368694
v 0.00437579 -0.00059563 0.02967782
v 0.00437579 -0.00144256 0.02967782
v 0.00420598 -0.00300537 0.02368694
v 0.00398478 -0.00228994 0.03052335
v 0.00469866 0.00025220 0.02368694
v 0.00435624 0.00025220 0.02967782
v 0.00425067 0.00025220 0.03052335
v 0.00426016 -0.00059563 0.03052335
v 0.00426016 -0.00144256 0.03052335
v 0.00407471 -0.00309586 0.02368694
v 0.00367643 -0.00271964 0.03098283
v 0.00306254 -0.00228994 0.03661677
v 0.00301897 -0.00237285 0.03661677
v 0.00283351 -0.00272321 0.03661677
v 0.00460593 0.00081608 0.02368694
v 0.00395294 0.00092752 0.03052335
v 0.00304689 0.00092395 0.03661677
v 0.00327592 0.00025220 0.03661677
v 0.00327592 -0.00144256 0.03661677
v 0.00324184 -0.00325054 0.02368694
v 0.00239446 -0.00273346 0.03661677
v 0.00445344 0.00111964 0.02368694
v 0.00440037 0.00122216 0.02368694
v 0.00436183 0.00129660 0.02368694
v 0.00292233 0.00097343 0.03661677
v 0.00239446 -0.00325722 0.02368694
v 0.00070024 -0.00273346 0.03661677
v 0.00043267 0.00129660 0.02368694
v 0.00428474 0.00129660 0.02374896
v 0.00154763 0.00119140 0.03661677
v 0.00223246 0.00118382 0.03661677
v 0.00239446 0.00118160 0.03661677
v 0.00154763 -0.00322513 0.02368694
v 0.00001484 -0.00273302 0.03661677
v -0.00014715 -0.00273257 0.03661677
v -0.00050186 -0.00272499 0.03661677
v -0.00058565 -0.00272276 0.03661677
v 0.00045166 0.00129660 0.02400591
v -0.00010414 0.00119006 0.02368694
v -0.00014715 0.00117981 0.03560795
v -0.00014715 0.00117625 0.03661677
v 0.00324184 0.00129660 0.02449197
v 0.00070024 0.00119140 0.03661677
v 0.00239446 0.00129660 0.02449703
v -0.00058565 -0.00272321 0.02368694
v -0.00080294 -0.00228994 0.03661677
v -0.00080350 -0.00228994 0.02368694
v 0.00100970 0.00129660 0.02437931
v -0.00014715 0.00117758 0.02368694
v -0.00014715 0.00117981 0.02459323
v -0.00078842 0.00091860 0.03661677
v -0.00078898 0.00091860 0.02368694
v 0.00173196 0.00129660 0.02447298
v 0.00154763 0.00129660 0.02445779
v -0.00100571 -0.00144256 0.03661677
v -0.00100683 -0.00144256 0.02368694
v -0.00096438 0.00037968 0.03661677
v -0.00100683 0.00025220 0.02368694
v -0.00100571 0.00025220 0.03661677
f 1 2 6
f 1 6 13
f 1 13 23
f 1 23 29
f 1 29 36
f 1 36 48
f 1 48 50
f 1 50 59
f 1 59 61
f 1 61 55
f 1 55 52
f 1 52 42
f 1 42 31
f 1 31 27
f 1 27 26
f 1 26 25
f 1 25 18
f 1 18 8
f 1 8 3
f 1 3 4
f 1 4 5
f 1 5 2
f 2 5 7
f 2 7 6
f 3 8 4
f 4 8 9
f 4 9 10
f 4 10 11
f 4 11 12
f 4 12 5
f 5 12 7
f 6 7 14
f 6 14 13
f 7 12 15
f 7 15 16
f 7 16 17
f 7 17 14
f 8 18 9
f 9 19 10
f 9 18 19
f 10 19 20
f 10 20 21
f 10 21 11
f 11 21 22
f 11 22 12
f 12 22 15
f 13 14 17
f 13 17 23
f 15 22 21
f 15 21 20
f 15 20 28
f 15 28 35
f 15 35 34
f 15 34 33
f 15 33 46
f 15 46 44
f 15 44 54
f 15 54 60
f 15 60 62
f 15 62 58
f 15 58 49
f 15 49 40
f 15 40 39
f 15 39 38
f 15 38 37
f 15 37 30
f 15 30 24
f 15 24 17
f 15 17 16
f 17 24 23
f 18 25 19
f 19 25 26
f 19 26 27
f 19 27 20
f 20 27 28
f 23 24 29
f 24 30 29
f 27 31 41
f 27 41 51
f 27 51 57
f 27 57 56
f 27 56 47
f 27 47 45
f 27 45 32
f 27 32 33
f 27 33 34
f 27 34 35
f 27 35 28
f 29 30 37
f 29 37 38
f 29 38 39
f 29 39 40
f 29 40 36
f 31 42 43
f 31 43 44
f 31 44 41
f 32 45 33
f 33 45 47
f 33 47 46
f 36 40 48
f 40 49 50
f 40 50 48
f 41 44 46
f 41 46 51
f 42 52 53
f 42 53 43
f 43 54 44
f 43 53 55
f 43 55 54
f 46 47 56
f 46 56 57
f 46 57 51
f 49 58 59
f 49 59 50
f 52 55 53
f 54 55 61
f 54 61 60
f 58 62 61
f 58 61 59
f 60 61 62

