# https://github.com/mikedh/trimesh
v 0.00917384 -0.01161160 0.06549726
v 0.00849233 -0.01161160 0.06516056
v 0.00917384 -0.01245933 0.06549726
v 0.00997669 -0.01161160 0.06518052
v 0.00996977 -0.01076458 0.06514003
v 0.00917384 -0.01076458 0.06542682
v 0.00849421 -0.01076458 0.06513005
v 0.00823393 -0.01161160 0.06442002
v 0.00849233 -0.01245933 0.06516056
v 0.00823613 -0.01076458 0.06442002
v 0.00849233 -0.01330562 0.06515223
v 0.00917384 -0.01330562 0.06547729
v 0.00997449 -0.01330562 0.06516888
v 0.00997669 -0.01245933 0.06518052
v 0.01036083 -0.01161160 0.06442002
v 0.01035391 -0.01076458 0.06442002
v 0.00984089 -0.01009087 0.06501467
v 0.00917384 -0.00996595 0.06510009
v 0.00858097 -0.01009087 0.06501467
v 0.00823393 -0.01076458 0.06018369
v 0.00823393 -0.01330562 0.06442002
v 0.00846026 -0.00985186 0.06447771
v 0.00826254 -0.00991685 0.06357242
v 0.00824619 -0.00991685 0.06272538
v 0.00833358 -0.01415336 0.06442002
v 0.00857626 -0.01415336 0.06503186
v 0.00917384 -0.01415336 0.06522712
v 0.00986352 -0.01415336 0.06503852
v 0.01022974 -0.01415336 0.06442002
v 0.01035863 -0.01330562 0.06442002
v 0.01036083 -0.01245933 0.06442002
v 0.01144534 -0.01161160 0.05983034
v 0.01144502 -0.01138703 0.05983034
v 0.01134789 -0.01025984 0.05983034
v 0.01032939 -0.00991685 0.06357242
v 0.01003076 -0.00985186 0.06447771
v 0.01142899 -0.01076458 0.05983034
v 0.00982046 -0.00937456 0.06423363
v 0.00917384 -0.00954209 0.06477614
v 0.00860832 -0.00937456 0.06423363
v 0.00823393 -0.01076458 0.05983034
v 0.00823393 -0.01640989 0.06103074
v 0.00824902 -0.01640989 0.06131641
v 0.00828171 -0.01640989 0.06187833
v 0.00852062 -0.00928935 0.06357242
v 0.00850427 -0.00926408 0.06272538
v 0.00839676 -0.00953559 0.05983034
v 0.00824619 -0.00991685 0.05983034
v 0.00869037 -0.01461838 0.06489429
v 0.00917384 -0.01463932 0.06491981
v 0.00970258 -0.01461838 0.06489429
v 0.01125704 -0.01640989 0.06043276
v 0.01144534 -0.01640989 0.05983034
v 0.01120423 -0.00997967 0.05983034
v 0.00994525 -0.00928935 0.06357242
v 0.00917384 -0.00908572 0.06357242
v 0.00917384 -0.00931535 0.06435290
v 0.00823393 -0.01640989 0.05983034
v 0.00836847 -0.01640989 0.06208413
v 0.00917384 -0.00903446 0.06272538
v 0.00917384 -0.00903373 0.05983034
v 0.00878310 -0.00916804 0.05983034
v 0.00850427 -0.00926408 0.05983034
v 0.00853979 -0.01640989 0.06247576
v 0.00875418 -0.01640989 0.06253899
v 0.00917384 -0.01640989 0.06264938
v 0.00992859 -0.01640989 0.06247576
v 0.01032562 -0.01640989 0.06187833
v 0.01071101 -0.00961213 0.05983034
v 0.00995877 -0.00926408 0.06272538
v 0.01004868 -0.00923303 0.05983034
v 0.00960450 -0.00910955 0.05983034
f 1 2 9
f 1 9 3
f 1 3 14
f 1 14 4
f 1 4 5
f 1 5 6
f 1 6 7
f 1 7 2
f 2 8 21
f 2 21 9
f 2 7 10
f 2 10 8
f 3 9 11
f 3 11 12
f 3 12 13
f 3 13 14
f 4 14 31
f 4 31 15
f 4 15 16
f 4 16 5
f 5 16 17
f 5 17 6
f 6 17 18
f 6 18 19
f 6 19 7
f 7 19 10
f 8 10 20
f 8 20 41
f 8 41 58
f 8 58 42
f 8 42 21
f 9 21 11
f 10 19 22
f 10 22 23
f 10 23 24
f 10 24 20
f 11 21 25
f 11 25 26
f 11 26 12
f 12 26 27
f 12 27 28
f 12 28 13
f 13 28 29
f 13 29 30
f 13 30 14
f 14 30 31
f 15 31 53
f 15 53 32
f 15 32 33
f 15 33 16
f 16 34 35
f 16 35 36
f 16 36 17
f 16 33 37
f 16 37 34
f 17 36 38
f 17 38 39
f 17 39 18
f 18 39 19
f 19 39 40
f 19 40 22
f 20 24 48
f 20 48 41
f 21 42 43
f 21 43 44
f 21 44 25
f 22 40 23
f 23 40 45
f 23 45 46
f 23 46 24
f 24 46 47
f 24 47 48
f 25 49 26
f 25 44 49
f 26 49 27
f 27 49 50
f 27 50 51
f 27 51 28
f 28 51 29
f 29 51 52
f 29 52 30
f 30 52 53
f 30 53 31
f 32 53 58
f 32 58 41
f 32 41 48
f 32 48 47
f 32 47 63
f 32 63 62
f 32 62 61
f 32 61 72
f 32 72 71
f 32 71 69
f 32 69 54
f 32 54 34
f 32 34 37
f 32 37 33
f 34 54 35
f 35 54 55
f 35 55 38
f 35 38 36
f 38 55 56
f 38 56 57
f 38 57 39
f 39 57 40
f 40 57 56
f 40 56 45
f 42 58 53
f 42 53 52
f 42 52 68
f 42 68 67
f 42 67 66
f 42 66 65
f 42 65 64
f 42 64 59
f 42 59 44
f 42 44 43
f 44 59 49
f 45 56 60
f 45 60 46
f 46 60 61
f 46 61 62
f 46 62 63
f 46 63 47
f 49 59 64
f 49 64 65
f 49 65 66
f 49 66 50
f 50 66 51
f 51 66 67
f 51 67 68
f 51 68 52
f 54 69 55
f 55 70 60
f 55 60 56
f 55 69 70
f 60 70 71
f 60 71 72
f 60 72 61
f 69 71 70

