# https://github.com/mikedh/trimesh
v 0.01435294 0.01545477 0.08730122
v 0.01435157 0.01550546 0.08730122
v 0.01416034 0.01545477 0.08984342
v 0.01412892 0.01545477 0.08650688
v 0.01411389 0.01550546 0.08645645
v 0.01408657 0.01720029 0.08645645
v 0.01405925 0.01889468 0.08645645
v 0.01404013 0.02003728 0.08645960
v 0.01415897 0.01550546 0.08984342
v 0.01432835 0.01635288 0.08730122
v 0.01415214 0.01545477 0.08989385
v 0.01411389 0.01545477 0.08645645
v 0.00993259 0.01545477 0.08219791
v 0.01415897 0.02003728 0.08700965
v 0.00995991 0.02003728 0.08240438
v 0.01403876 0.02003728 0.08954869
v 0.01413165 0.01635288 0.08984342
v 0.01390490 0.02003728 0.09053531
v 0.01401964 0.01550546 0.09068819
v 0.01430377 0.01720029 0.08730122
v 0.01427918 0.01804726 0.08730122
v 0.01415624 0.02003728 0.08814757
v 0.01402101 0.01545477 0.09068819
v 0.00930970 0.01545477 0.08189215
v 0.01421907 0.02003728 0.08730122
v 0.01422864 0.01974209 0.08730122
v 0.00917310 0.02003728 0.08216796
v 0.01401281 0.02003728 0.08984342
v 0.01383250 0.02003728 0.09081112
v 0.01391036 0.01974209 0.09055422
v 0.01399095 0.01635288 0.09068819
v 0.01401144 0.01545477 0.09072602
v 0.00917310 0.01545477 0.08188900
v 0.00845732 0.02003728 0.08240438
v 0.00409024 0.01804726 0.08280942
v 0.00409024 0.01889468 0.08294339
v 0.00364766 0.01933700 0.08341779
v 0.01363853 0.02003728 0.09153612
v 0.01379835 0.01974209 0.09097819
v 0.01385709 0.01635288 0.09119568
v 0.01387211 0.01545477 0.09125085
v 0.00853245 0.01545477 0.08221209
v 0.00409024 0.01582353 0.08330904
v 0.00361897 0.01587825 0.08339887
v 0.00409024 0.01635288 0.08303323
v 0.00409024 0.01720029 0.08289769
v 0.00687277 0.02003728 0.08334686
v 0.00358072 0.01635288 0.08331850
v 0.00356706 0.01720029 0.08326176
v 0.00356706 0.01804726 0.08321132
v 0.00360258 0.01889468 0.08328225
v 0.00651624 0.02003728 0.08391583
v 0.00675939 0.02003728 0.08346822
v 0.00041299 0.01889468 0.09407831
v 0.00090065 0.01945678 0.09350463
v 0.00078454 0.01952542 0.09407831
v 0.00154813 0.01973357 0.09407831
v 0.01348827 0.02003728 0.09208932
v 0.01367814 0.01889468 0.09153612
v 0.01374234 0.01635288 0.09161965
v 0.01386528 0.01545477 0.09127606
v 0.00644521 0.01545477 0.08377871
v 0.00638237 0.01545477 0.08390637
v 0.00361897 0.01587825 0.08367626
v 0.00077088 0.01735596 0.09407831
v 0.00039796 0.01804726 0.09407831
v 0.00647799 0.02003728 0.08404191
v 0.00043348 0.01889468 0.09662051
v 0.00081186 0.01947472 0.09662051
v 0.00154813 0.01963084 0.09662051
v 0.00675939 0.02003728 0.09394593
v 0.00642199 0.02003728 0.09323197
v 0.00631407 0.02003728 0.09239980
v 0.00631407 0.02003728 0.09238404
v 0.00633183 0.02003728 0.08814757
v 0.00633593 0.02003728 0.08736584
v 0.00635369 0.02003728 0.08659987
v 0.01340221 0.02003728 0.09238404
v 0.01341724 0.01974209 0.09238404
v 0.01344729 0.01889468 0.09238404
v 0.01350193 0.01720029 0.09238404
v 0.01352788 0.01635288 0.09238404
v 0.01375464 0.01545477 0.09167323
v 0.00638374 0.01545477 0.08476690
v 0.00644521 0.01545477 0.09238404
v 0.00154813 0.01708590 0.09407831
v 0.00080229 0.01741428 0.09492624
v 0.00042391 0.01804726 0.09492624
v 0.00051544 0.01804726 0.09577259
v 0.00064384 0.01804726 0.09662051
v 0.00085420 0.01805040 0.09739436
v 0.00094436 0.01833527 0.09796963
v 0.00073946 0.01897857 0.09755197
v 0.00091430 0.01942493 0.09732659
v 0.00154813 0.01947831 0.09743376
v 0.00239504 0.01962994 0.09662051
v 0.00832618 0.02003728 0.09414766
v 0.00762679 0.02003728 0.09414136
v 0.00747790 0.02003728 0.09413663
v 0.01321780 0.02003728 0.09291833
v 0.01300061 0.01937244 0.09368587
v 0.01318229 0.01889468 0.09323039
v 0.01355110 0.01550546 0.09238404
v 0.01320824 0.01804726 0.09323039
v 0.01355247 0.01545477 0.09238404
v 0.00668562 0.01545477 0.09317995
v 0.00670202 0.01545477 0.09323039
v 0.00110691 0.01761884 0.09706181
v 0.00102222 0.01758610 0.09662051
v 0.00089382 0.01752239 0.09577259
v 0.00154813 0.01787051 0.09749208
v 0.00154813 0.01829444 0.09799012
v 0.00094436 0.01875202 0.09796963
v 0.00154813 0.01925850 0.09785773
v 0.00747790 0.01946530 0.09727143
v 0.00747790 0.01961738 0.09662051
v 0.01086829 0.02003728 0.09412560
v 0.01019076 0.02003728 0.09413190
v 0.01002001 0.02003728 0.09413348
v 0.01311808 0.02003728 0.09315631
v 0.01301017 0.01889468 0.09371582
v 0.01220150 0.01867441 0.09545107
v 0.01281483 0.01889468 0.09413978
v 0.01284625 0.01804726 0.09417445
v 0.01302383 0.01804726 0.09375049
v 0.01322600 0.01720029 0.09323039
v 0.01302793 0.01720029 0.09373631
v 0.01320824 0.01545477 0.09314843
v 0.00700663 0.01545477 0.09368272
v 0.00745058 0.01545477 0.09371740
v 0.00747790 0.01545477 0.09371897
v 0.00747790 0.01761660 0.09706024
v 0.00832618 0.01761840 0.09705551
v 0.00827427 0.01545477 0.09372843
v 0.00996947 0.01545477 0.09373316
v 0.01086829 0.01545477 0.09373316
v 0.00239504 0.01835366 0.09795229
v 0.00324332 0.01842185 0.09791604
v 0.00372142 0.01846267 0.09789555
v 0.00154813 0.01883501 0.09799012
v 0.00878379 0.01762154 0.09704920
v 0.00832618 0.01804726 0.09743376
v 0.00832618 0.01889468 0.09762604
v 0.00832618 0.01945678 0.09724779
v 0.00832618 0.01960886 0.09662051
v 0.01171521 0.02003728 0.09408935
v 0.01104724 0.02003728 0.09412087
v 0.01287904 0.02003728 0.09346838
v 0.01208676 0.01923921 0.09529977
v 0.01187093 0.01893191 0.09574895
v 0.01141879 0.01889468 0.09632264
v 0.01144338 0.01823837 0.09634628
v 0.01220150 0.01823029 0.09545107
v 0.01269189 0.01545477 0.09357082
v 0.01211135 0.01766595 0.09533129
v 0.01171521 0.01545477 0.09372370
v 0.00372142 0.01848779 0.09789555
v 0.00934931 0.01765114 0.09696567
v 0.00910890 0.01797907 0.09729822
v 0.01226844 0.01545477 0.09368587
v 0.01002001 0.01818633 0.09722572
v 0.00917310 0.01889468 0.09750469
v 0.00917310 0.01942897 0.09719105
v 0.00917310 0.01958104 0.09662051
v 0.01188732 0.02003728 0.09405625
v 0.01255803 0.02003728 0.09375049
v 0.01131088 0.01933162 0.09621546
v 0.01054865 0.01863269 0.09711067
v 0.01054865 0.01834648 0.09711067
v 0.01002001 0.01776240 0.09685377
v 0.01003094 0.01890724 0.09723518
v 0.00975501 0.01937917 0.09712013
v 0.01086829 0.01940070 0.09635731
v 0.01031916 0.01919749 0.09695621
f 1 2 9
f 1 9 3
f 1 3 11
f 1 11 23
f 1 23 32
f 1 32 41
f 1 41 61
f 1 61 83
f 1 83 105
f 1 105 128
f 1 128 154
f 1 154 160
f 1 160 156
f 1 156 136
f 1 136 135
f 1 135 134
f 1 134 131
f 1 131 130
f 1 130 129
f 1 129 107
f 1 107 106
f 1 106 85
f 1 85 84
f 1 84 63
f 1 63 62
f 1 62 42
f 1 42 33
f 1 33 24
f 1 24 13
f 1 13 12
f 1 12 4
f 1 4 5
f 1 5 6
f 1 6 7
f 1 7 8
f 1 8 2
f 2 8 10
f 2 10 9
f 3 9 11
f 4 12 5
f 5 12 13
f 5 13 6
f 6 13 7
f 7 13 8
f 8 14 10
f 8 13 15
f 8 15 27
f 8 27 34
f 8 34 47
f 8 47 53
f 8 53 52
f 8 52 67
f 8 67 77
f 8 77 76
f 8 76 75
f 8 75 74
f 8 74 73
f 8 73 72
f 8 72 71
f 8 71 99
f 8 99 98
f 8 98 97
f 8 97 119
f 8 119 118
f 8 118 117
f 8 117 147
f 8 147 146
f 8 146 165
f 8 165 166
f 8 166 148
f 8 148 120
f 8 120 100
f 8 100 78
f 8 78 58
f 8 58 38
f 8 38 29
f 8 29 18
f 8 18 28
f 8 28 16
f 8 16 22
f 8 22 25
f 8 25 14
f 9 16 17
f 9 17 18
f 9 18 19
f 9 19 11
f 9 10 20
f 9 20 21
f 9 21 22
f 9 22 16
f 10 14 20
f 11 19 23
f 13 24 15
f 14 25 26
f 14 26 21
f 14 21 20
f 15 24 27
f 16 28 17
f 17 28 18
f 18 29 30
f 18 30 19
f 19 30 31
f 19 31 32
f 19 32 23
f 21 26 22
f 22 26 25
f 24 33 27
f 27 33 35
f 27 35 36
f 27 36 37
f 27 37 34
f 29 38 39
f 29 39 40
f 29 40 31
f 29 31 30
f 31 40 32
f 32 40 41
f 33 42 43
f 33 43 44
f 33 44 45
f 33 45 46
f 33 46 35
f 34 37 47
f 35 46 48
f 35 48 49
f 35 49 50
f 35 50 51
f 35 51 36
f 36 51 37
f 37 52 53
f 37 53 47
f 37 51 54
f 37 54 55
f 37 55 56
f 37 56 57
f 37 57 52
f 38 58 59
f 38 59 39
f 39 59 40
f 40 59 60
f 40 60 41
f 41 60 61
f 42 62 43
f 43 62 44
f 44 48 45
f 44 62 63
f 44 63 64
f 44 64 65
f 44 65 66
f 44 66 48
f 45 48 46
f 48 66 49
f 49 66 50
f 50 66 54
f 50 54 51
f 52 57 67
f 54 66 68
f 54 68 56
f 54 56 55
f 56 68 69
f 56 69 57
f 57 69 70
f 57 70 71
f 57 71 72
f 57 72 73
f 57 73 74
f 57 74 75
f 57 75 76
f 57 76 77
f 57 77 67
f 58 78 79
f 58 79 80
f 58 80 59
f 59 80 60
f 60 80 81
f 60 81 82
f 60 82 83
f 60 83 61
f 63 84 64
f 64 84 85
f 64 85 86
f 64 86 65
f 65 86 87
f 65 87 88
f 65 88 66
f 66 88 68
f 68 88 89
f 68 89 90
f 68 90 91
f 68 91 92
f 68 92 93
f 68 93 94
f 68 94 69
f 69 94 70
f 70 94 95
f 70 95 96
f 70 96 97
f 70 97 98
f 70 98 99
f 70 99 71
f 78 100 101
f 78 101 102
f 78 102 79
f 79 102 80
f 80 102 81
f 81 102 104
f 81 104 82
f 82 103 83
f 82 104 103
f 83 103 105
f 85 106 86
f 86 106 107
f 86 107 87
f 87 108 109
f 87 109 110
f 87 110 90
f 87 90 89
f 87 89 88
f 87 107 108
f 90 109 108
f 90 108 91
f 90 110 109
f 91 108 92
f 92 111 112
f 92 112 140
f 92 140 113
f 92 113 93
f 92 108 111
f 93 113 94
f 94 113 114
f 94 114 95
f 95 114 115
f 95 115 116
f 95 116 96
f 96 116 117
f 96 117 118
f 96 118 119
f 96 119 97
f 100 120 101
f 101 121 102
f 101 120 122
f 101 122 123
f 101 123 124
f 101 124 121
f 102 121 125
f 102 125 104
f 103 104 105
f 104 125 126
f 104 126 105
f 105 126 127
f 105 127 128
f 107 129 108
f 108 129 130
f 108 130 131
f 108 131 111
f 111 132 133
f 111 133 112
f 111 131 134
f 111 134 135
f 111 135 136
f 111 136 132
f 112 137 138
f 112 138 139
f 112 139 157
f 112 157 140
f 112 133 141
f 112 141 142
f 112 142 137
f 113 140 114
f 114 140 143
f 114 143 144
f 114 144 115
f 115 144 145
f 115 145 116
f 116 145 146
f 116 146 147
f 116 147 117
f 120 148 149
f 120 149 122
f 121 124 125
f 122 149 150
f 122 150 151
f 122 151 152
f 122 152 153
f 122 153 124
f 122 124 123
f 124 153 127
f 124 127 125
f 125 127 126
f 127 153 128
f 128 153 155
f 128 155 152
f 128 152 154
f 132 136 133
f 133 136 156
f 133 156 141
f 137 142 138
f 138 142 139
f 139 143 157
f 139 142 143
f 140 157 143
f 141 158 159
f 141 159 142
f 141 156 160
f 141 160 158
f 142 159 161
f 142 161 143
f 143 162 163
f 143 163 144
f 143 161 162
f 144 163 164
f 144 164 145
f 145 164 146
f 146 164 165
f 148 166 167
f 148 167 149
f 149 167 150
f 150 167 151
f 151 167 168
f 151 168 152
f 152 155 153
f 152 168 169
f 152 169 154
f 154 169 161
f 154 161 170
f 154 170 158
f 154 158 160
f 158 170 161
f 158 161 159
f 161 169 162
f 162 169 168
f 162 168 171
f 162 171 172
f 162 172 163
f 163 172 165
f 163 165 164
f 165 172 166
f 166 172 173
f 166 173 167
f 167 173 172
f 167 172 174
f 167 174 168
f 168 174 171
f 171 174 172

