# https://github.com/mikedh/trimesh
v 0.00629688 -0.03238158 0.01986118
v 0.00629688 -0.03238158 0.01993806
v 0.00629688 -0.03224634 0.01955314
v 0.00659798 -0.03222380 0.01955314
v 0.00900501 -0.03160017 0.01970588
v 0.00629688 -0.03237783 0.01994421
v 0.00900501 -0.03160017 0.01999905
v 0.00629688 -0.03208480 0.01919796
v 0.00629688 -0.03182558 0.01870797
v 0.00663202 -0.03180679 0.01878280
v 0.00811463 -0.03159265 0.01901344
v 0.00867926 -0.03150249 0.01914106
v 0.00924214 -0.03141984 0.01945730
v 0.01132400 -0.03069478 0.01988117
v 0.00629688 -0.02832799 0.02268218
v 0.01132400 -0.03069478 0.01994934
v 0.00641896 -0.02830920 0.02266424
v 0.00629688 -0.03162271 0.01847682
v 0.00917405 -0.03099156 0.01874949
v 0.00629688 -0.03146116 0.01830358
v 0.00636790 -0.03080748 0.01762857
v 0.00816863 -0.03075864 0.01814828
v 0.00837171 -0.03020639 0.01762857
v 0.00873385 -0.03067223 0.01824310
v 0.01002100 -0.03082251 0.01892785
v 0.01052283 -0.03071356 0.01904522
v 0.01108806 -0.03058207 0.01931635
v 0.01218328 -0.02985701 0.01905393
v 0.01229304 -0.02995468 0.01951060
v 0.01229304 -0.02997347 0.01997804
v 0.00629688 -0.02771187 0.02285491
v 0.01229304 -0.02996220 0.02001135
v 0.00917405 -0.03059334 0.01832613
v 0.00951389 -0.02980817 0.01762857
v 0.01003333 -0.02960530 0.01762857
v 0.01002100 -0.03042804 0.01850398
v 0.00629688 -0.03082627 0.01762857
v 0.00910303 -0.02996220 0.01762857
v 0.01056920 -0.02988706 0.01817442
v 0.01113442 -0.02975182 0.01831895
v 0.01171549 -0.02998850 0.01891093
v 0.01229304 -0.02967668 0.01893297
v 0.01229304 -0.02991712 0.01940912
v 0.01222672 -0.02903802 0.01817647
v 0.01229304 -0.02892908 0.01810266
v 0.00652872 -0.02771187 0.02276470
v 0.00629688 -0.02686283 0.02286311
v 0.01229304 -0.02969922 0.02006056
v 0.01088204 -0.02923338 0.01762857
v 0.00629688 -0.02358689 0.01762857
v 0.01171549 -0.02960154 0.01848758
v 0.01134279 -0.02900421 0.01762857
v 0.01174777 -0.02879759 0.01762857
v 0.01229304 -0.02848577 0.01763216
v 0.00653342 -0.02686283 0.02276983
v 0.01229304 -0.02942873 0.02010463
v 0.01229304 -0.02882764 0.02016614
v 0.00629688 -0.01923651 0.02286465
v 0.01229304 -0.02436831 0.01762857
v 0.00629688 0.00599798 0.01763420
v 0.01229304 0.00599798 0.01763420
v 0.01229304 -0.02848202 0.01762857
v 0.00653342 0.00599798 0.02276983
v 0.01229304 -0.01245922 0.02016614
v 0.00629688 -0.01865420 0.02286465
v 0.00629688 0.00599798 0.02286311
v 0.01229304 0.00599798 0.02006619
v 0.00648177 0.00599798 0.02279033
v 0.00636907 0.00599798 0.02283492
f 1 2 6
f 1 6 15
f 1 15 31
f 1 31 47
f 1 47 58
f 1 58 65
f 1 65 66
f 1 66 60
f 1 60 50
f 1 50 37
f 1 37 20
f 1 20 18
f 1 18 9
f 1 9 8
f 1 8 3
f 1 3 4
f 1 4 5
f 1 5 7
f 1 7 2
f 2 7 6
f 3 8 4
f 4 8 9
f 4 9 10
f 4 10 11
f 4 11 12
f 4 12 5
f 5 12 13
f 5 13 14
f 5 14 16
f 5 16 7
f 6 7 15
f 7 16 17
f 7 17 15
f 9 18 10
f 10 18 11
f 11 19 12
f 11 18 20
f 11 20 21
f 11 21 22
f 11 22 23
f 11 23 24
f 11 24 19
f 12 19 25
f 12 25 26
f 12 26 13
f 13 26 27
f 13 27 14
f 14 27 28
f 14 28 29
f 14 29 30
f 14 30 16
f 15 17 31
f 16 30 32
f 16 32 17
f 17 32 31
f 19 24 33
f 19 33 34
f 19 34 35
f 19 35 36
f 19 36 25
f 20 37 21
f 21 37 50
f 21 50 59
f 21 59 62
f 21 62 53
f 21 53 52
f 21 52 49
f 21 49 35
f 21 35 34
f 21 34 38
f 21 38 23
f 21 23 22
f 23 38 24
f 24 38 33
f 25 36 39
f 25 39 26
f 26 39 40
f 26 40 41
f 26 41 28
f 26 28 27
f 28 42 43
f 28 43 29
f 28 41 44
f 28 44 45
f 28 45 42
f 29 43 42
f 29 42 45
f 29 45 54
f 29 54 62
f 29 62 59
f 29 59 61
f 29 61 67
f 29 67 64
f 29 64 57
f 29 57 56
f 29 56 48
f 29 48 32
f 29 32 30
f 31 32 46
f 31 46 47
f 32 48 46
f 33 38 34
f 35 49 39
f 35 39 36
f 39 49 40
f 40 51 41
f 40 49 52
f 40 52 53
f 40 53 51
f 41 51 44
f 44 53 54
f 44 54 45
f 44 51 53
f 46 55 47
f 46 48 56
f 46 56 57
f 46 57 55
f 47 55 58
f 50 60 61
f 50 61 59
f 53 62 54
f 55 57 64
f 55 64 63
f 55 63 65
f 55 65 58
f 60 66 69
f 60 69 68
f 60 68 63
f 60 63 67
f 60 67 61
f 63 64 67
f 63 68 65
f 65 68 69
f 65 69 66

