# https://github.com/mikedh/trimesh
v 0.01298295 0.03349401 0.05389369
v 0.01534502 0.03349401 0.05389369
v 0.01305577 0.03349401 0.05336430
v 0.01435457 0.02415116 0.05389369
v 0.01536835 0.03349401 0.05380066
v 0.01540703 0.03334219 0.05389369
v 0.01363605 0.03349401 0.04916733
v 0.01653231 0.02415116 0.04823646
v 0.01709609 0.02415116 0.05389369
v 0.01376860 0.03349401 0.04823646
v 0.01545709 0.03349401 0.05344293
v 0.01545766 0.03317938 0.05389369
v 0.01683041 0.03160532 0.05001459
v 0.01644470 0.03221995 0.05086240
v 0.01879425 0.02415116 0.04823646
v 0.01755178 0.02415116 0.05255636
v 0.01701986 0.02482707 0.05389369
v 0.01640146 0.03349401 0.04823646
v 0.01546563 0.03349401 0.05340361
v 0.01553560 0.03292603 0.05389369
v 0.01725026 0.03043003 0.04969562
v 0.01717118 0.03099436 0.04932128
v 0.01722637 0.03118917 0.04875644
v 0.01704716 0.03152483 0.04909036
v 0.01630191 0.03264342 0.05086240
v 0.01878572 0.02415116 0.04827467
v 0.01869981 0.02483347 0.04823646
v 0.01868218 0.02482707 0.04832007
v 0.01782769 0.02415116 0.05170910
v 0.01747270 0.02482707 0.05255636
v 0.01668250 0.02736971 0.05389369
v 0.01639066 0.03349401 0.04832007
v 0.01653060 0.03320316 0.04832007
v 0.01653345 0.03321963 0.04823646
v 0.01548099 0.03349401 0.05333163
v 0.01554015 0.03291049 0.05389369
v 0.01717858 0.03015016 0.05026101
v 0.01731341 0.02988492 0.04999299
v 0.01771448 0.02906359 0.04916733
v 0.01750285 0.02991053 0.04916733
v 0.01767978 0.02991053 0.04832007
v 0.01567043 0.03243214 0.05389369
v 0.01743743 0.03075838 0.04832007
v 0.01726847 0.03131264 0.04832007
v 0.01712397 0.03173703 0.04832007
v 0.01745393 0.03075838 0.04823646
v 0.01652264 0.03249891 0.05002179
v 0.01635254 0.03281262 0.05030864
v 0.01561070 0.03349401 0.05272359
v 0.01857238 0.02415116 0.04916733
v 0.01848193 0.02482707 0.04916733
v 0.01868787 0.02491030 0.04823646
v 0.01856498 0.02567492 0.04823646
v 0.01854564 0.02567492 0.04832007
v 0.01804672 0.02415116 0.05099309
v 0.01774406 0.02482707 0.05170910
v 0.01656758 0.02817915 0.05389369
v 0.01627176 0.03349401 0.04911140
v 0.01626777 0.03348487 0.04916733
v 0.01645949 0.03306140 0.04916733
v 0.01685431 0.03245318 0.04832007
v 0.01686625 0.03245318 0.04823646
v 0.01587694 0.03160532 0.05389369
v 0.01709609 0.02988492 0.05083249
v 0.01724799 0.02958584 0.05053014
v 0.01750456 0.02906359 0.05001459
v 0.01792896 0.02814806 0.04909590
v 0.01807687 0.02781971 0.04876585
v 0.01801770 0.02838403 0.04848620
v 0.01804387 0.02850750 0.04823646
v 0.01793009 0.02899134 0.04825030
v 0.01793180 0.02899682 0.04823646
v 0.01769628 0.02991053 0.04823646
v 0.01727643 0.03133368 0.04823646
v 0.01714615 0.03171508 0.04823646
v 0.01713079 0.03175715 0.04823646
v 0.01670184 0.03245318 0.04916733
v 0.01640488 0.03294524 0.04974380
v 0.01604704 0.03330011 0.05086240
v 0.01580185 0.03349401 0.05170910
v 0.01833231 0.02415116 0.05002954
v 0.01821682 0.02490298 0.05009488
v 0.01834482 0.02567492 0.04916733
v 0.01810361 0.02628772 0.04971057
v 0.01815595 0.02567492 0.04988667
v 0.01841992 0.02652186 0.04823646
v 0.01840114 0.02652186 0.04832007
v 0.01814172 0.02415116 0.05067467
v 0.01810987 0.02467067 0.05056890
v 0.01799040 0.02490298 0.05085575
v 0.01787377 0.02567492 0.05086240
v 0.01761663 0.02567492 0.05170910
v 0.01720475 0.02766514 0.05207015
v 0.01671038 0.02821665 0.05340361
v 0.01643901 0.02892274 0.05389369
v 0.01748920 0.02652186 0.05170910
v 0.01626265 0.03349401 0.04916733
v 0.01621999 0.03325621 0.05002179
v 0.01595772 0.03349401 0.05086240
v 0.01607150 0.03073826 0.05389369
v 0.01662902 0.02991053 0.05255636
v 0.01686170 0.02991053 0.05170910
v 0.01717346 0.02925841 0.05109442
v 0.01729805 0.02901054 0.05083249
v 0.01723547 0.02869408 0.05132700
v 0.01768262 0.02821665 0.05001459
v 0.01811669 0.02814806 0.04825030
v 0.01801088 0.02736971 0.04934730
v 0.01811556 0.02736971 0.04892368
v 0.01827086 0.02736971 0.04823646
v 0.01811499 0.02816909 0.04823646
v 0.01793351 0.02898951 0.04823646
v 0.01803648 0.02567492 0.05031030
v 0.01806891 0.02523499 0.05043102
v 0.01805525 0.02685204 0.04952672
v 0.01783680 0.02736971 0.05001459
v 0.01760639 0.02736971 0.05086240
v 0.01797959 0.02655113 0.05000185
v 0.01774350 0.02652186 0.05086240
v 0.01734413 0.02737703 0.05175617
v 0.01728212 0.02821665 0.05148150
v 0.01715867 0.02821665 0.05190513
v 0.01696581 0.02821665 0.05255636
v 0.01652662 0.02912396 0.05347339
v 0.01636904 0.02944773 0.05380232
v 0.01635368 0.02938279 0.05389369
v 0.01624729 0.02991053 0.05389369
v 0.01680880 0.02906359 0.05255636
v 0.01707789 0.02901054 0.05164929
v 0.01745506 0.02821665 0.05086240
v 0.01811897 0.02814897 0.04823646
f 1 2 5
f 1 5 11
f 1 11 19
f 1 19 35
f 1 35 49
f 1 49 80
f 1 80 99
f 1 99 97
f 1 97 58
f 1 58 32
f 1 32 18
f 1 18 10
f 1 10 7
f 1 7 3
f 1 3 4
f 1 4 9
f 1 9 17
f 1 17 31
f 1 31 57
f 1 57 95
f 1 95 126
f 1 126 127
f 1 127 100
f 1 100 63
f 1 63 42
f 1 42 36
f 1 36 20
f 1 20 12
f 1 12 6
f 1 6 2
f 2 6 5
f 3 7 4
f 4 8 15
f 4 15 26
f 4 26 50
f 4 50 81
f 4 81 88
f 4 88 55
f 4 55 29
f 4 29 16
f 4 16 9
f 4 7 10
f 4 10 8
f 5 6 11
f 6 12 13
f 6 13 14
f 6 14 11
f 8 10 18
f 8 18 34
f 8 34 62
f 8 62 76
f 8 76 75
f 8 75 74
f 8 74 46
f 8 46 73
f 8 73 72
f 8 72 112
f 8 112 70
f 8 70 111
f 8 111 131
f 8 131 110
f 8 110 86
f 8 86 53
f 8 53 52
f 8 52 27
f 8 27 15
f 9 16 17
f 11 14 19
f 12 20 13
f 13 21 22
f 13 22 23
f 13 23 24
f 13 24 25
f 13 25 14
f 13 20 21
f 14 25 19
f 15 27 28
f 15 28 26
f 16 29 30
f 16 30 17
f 17 30 31
f 18 32 33
f 18 33 34
f 19 25 35
f 20 36 21
f 21 37 38
f 21 38 39
f 21 39 40
f 21 40 41
f 21 41 22
f 21 36 42
f 21 42 37
f 22 43 23
f 22 41 43
f 23 44 45
f 23 45 24
f 23 43 46
f 23 46 44
f 24 45 47
f 24 47 25
f 25 47 48
f 25 48 49
f 25 49 35
f 26 28 51
f 26 51 50
f 27 52 28
f 28 52 53
f 28 53 54
f 28 54 51
f 29 55 56
f 29 56 30
f 30 56 57
f 30 57 31
f 32 58 59
f 32 59 33
f 33 59 60
f 33 60 61
f 33 61 62
f 33 62 34
f 37 63 64
f 37 64 38
f 37 42 63
f 38 64 65
f 38 65 66
f 38 66 39
f 39 66 67
f 39 67 68
f 39 68 69
f 39 69 70
f 39 70 71
f 39 71 72
f 39 72 40
f 40 72 41
f 41 73 46
f 41 46 43
f 41 72 73
f 44 46 74
f 44 74 45
f 45 74 75
f 45 75 76
f 45 76 61
f 45 61 77
f 45 77 47
f 47 77 48
f 48 77 78
f 48 78 79
f 48 79 49
f 49 79 80
f 50 51 82
f 50 82 81
f 51 54 83
f 51 83 84
f 51 84 85
f 51 85 82
f 53 86 87
f 53 87 68
f 53 68 54
f 54 68 83
f 55 88 89
f 55 89 56
f 56 89 90
f 56 90 91
f 56 91 92
f 56 92 57
f 57 93 94
f 57 94 95
f 57 92 96
f 57 96 93
f 58 97 59
f 59 98 60
f 59 97 99
f 59 99 98
f 60 78 61
f 60 98 78
f 61 78 77
f 61 76 62
f 63 100 101
f 63 101 102
f 63 102 64
f 64 102 65
f 65 102 66
f 66 102 103
f 66 103 104
f 66 104 105
f 66 105 106
f 66 106 67
f 67 106 68
f 68 107 69
f 68 106 108
f 68 108 109
f 68 109 83
f 68 87 86
f 68 86 110
f 68 110 107
f 69 107 70
f 70 112 71
f 70 107 111
f 71 112 72
f 78 98 79
f 79 98 99
f 79 99 80
f 81 82 89
f 81 89 88
f 82 85 113
f 82 113 114
f 82 114 89
f 83 109 115
f 83 115 84
f 84 115 116
f 84 116 117
f 84 117 118
f 84 118 85
f 85 118 117
f 85 117 113
f 89 114 90
f 90 114 91
f 91 114 119
f 91 119 120
f 91 120 96
f 91 96 92
f 93 121 122
f 93 122 123
f 93 123 94
f 93 96 120
f 93 120 117
f 93 117 121
f 94 123 95
f 95 123 124
f 95 124 125
f 95 125 126
f 100 127 101
f 101 127 128
f 101 128 129
f 101 129 102
f 102 129 103
f 103 129 105
f 103 105 104
f 105 121 130
f 105 130 106
f 105 129 128
f 105 128 121
f 106 130 116
f 106 116 108
f 107 131 111
f 107 110 131
f 108 116 115
f 108 115 109
f 113 117 119
f 113 119 114
f 116 130 117
f 117 120 119
f 117 130 121
f 121 128 122
f 122 128 124
f 122 124 123
f 124 128 125
f 125 128 127
f 125 127 126

