# https://github.com/mikedh/trimesh
v 0.01179732 0.01545432 0.08561670
v 0.01036322 0.01296296 0.08052097
v 0.01034413 0.01380979 0.08052097
v 0.00982775 0.01439362 0.07994093
v 0.01127246 0.01545432 0.08444932
v 0.00646118 0.01545432 0.08561670
v 0.01179785 0.01126833 0.08561670
v 0.01036322 0.01211516 0.08052097
v 0.00997885 0.01296296 0.07974150
v 0.00996082 0.01380979 0.07980230
v 0.00917352 0.01447261 0.07986250
v 0.00917352 0.01482907 0.08052097
v 0.00993325 0.01545432 0.08219786
v 0.00993908 0.01545432 0.08220637
v 0.00917352 0.01380979 0.07951654
v 0.00638378 0.01545432 0.08476670
v 0.00824149 0.00561218 0.08561670
v 0.01178089 0.01042150 0.08561670
v 0.01036057 0.01126833 0.08052097
v 0.00997885 0.01211516 0.07974150
v 0.00917352 0.01296296 0.07940588
v 0.00860041 0.01439362 0.07994093
v 0.00917352 0.01545432 0.08188960
v 0.00930977 0.01545432 0.08189203
v 0.00853308 0.01545432 0.08221063
v 0.00850869 0.01380979 0.07981203
v 0.00638166 0.01545432 0.08390576
v 0.00824149 0.00561218 0.08560515
v 0.01084196 0.00561218 0.08561670
v 0.01164994 0.00973073 0.08561670
v 0.01029960 0.01042150 0.08052097
v 0.00997620 0.01126833 0.07975792
v 0.00917352 0.01211516 0.07940588
v 0.00849225 0.01296296 0.07976157
v 0.00644528 0.01545432 0.08377808
v 0.00849225 0.01126833 0.07977616
v 0.00828602 0.01042150 0.08052097
v 0.00838039 0.00561218 0.08475758
v 0.00833426 0.00561218 0.08503301
v 0.01018879 0.00561218 0.08475758
v 0.00995870 0.00959875 0.08054529
v 0.00991523 0.01042150 0.07987162
v 0.00917352 0.01126833 0.07943628
v 0.00849225 0.01211516 0.07976157
v 0.00854421 0.01042150 0.07988013
v 0.00864759 0.00989740 0.08001207
v 0.00852353 0.00959875 0.08054529
v 0.00854951 0.00561218 0.08442135
v 0.01006208 0.00561218 0.08459524
v 0.00976996 0.00989740 0.08001207
v 0.00979912 0.00561218 0.08425901
v 0.00917352 0.01042150 0.07965456
v 0.00917352 0.00984731 0.07996951
v 0.00917352 0.00942341 0.08037019
v 0.00863328 0.00561218 0.08425901
v 0.00959553 0.00561218 0.08423469
v 0.00917352 0.00561218 0.08418484
f 1 2 3
f 1 3 4
f 1 4 5
f 1 5 14
f 1 14 13
f 1 13 24
f 1 24 23
f 1 23 25
f 1 25 35
f 1 35 27
f 1 27 16
f 1 16 6
f 1 6 17
f 1 17 29
f 1 29 30
f 1 30 18
f 1 18 7
f 1 7 2
f 2 8 20
f 2 20 9
f 2 9 3
f 2 7 8
f 3 9 10
f 3 10 4
f 4 11 12
f 4 12 13
f 4 13 14
f 4 14 5
f 4 10 15
f 4 15 11
f 6 16 17
f 7 18 19
f 7 19 8
f 8 19 20
f 9 21 10
f 9 20 33
f 9 33 21
f 10 21 15
f 11 15 22
f 11 22 12
f 12 23 24
f 12 24 13
f 12 22 25
f 12 25 23
f 15 21 26
f 15 26 22
f 16 27 17
f 17 28 39
f 17 39 38
f 17 38 48
f 17 48 55
f 17 55 57
f 17 57 56
f 17 56 51
f 17 51 49
f 17 49 40
f 17 40 29
f 17 27 28
f 18 30 31
f 18 31 19
f 19 31 32
f 19 32 20
f 20 32 33
f 21 34 26
f 21 33 44
f 21 44 34
f 22 35 25
f 22 26 35
f 26 34 35
f 27 35 36
f 27 36 37
f 27 37 38
f 27 38 39
f 27 39 28
f 29 40 41
f 29 41 31
f 29 31 30
f 31 41 42
f 31 42 32
f 32 42 43
f 32 43 33
f 33 43 36
f 33 36 44
f 34 44 35
f 35 44 36
f 36 43 45
f 36 45 37
f 37 45 46
f 37 46 47
f 37 47 38
f 38 47 48
f 40 49 41
f 41 50 42
f 41 49 51
f 41 51 50
f 42 50 52
f 42 52 43
f 43 52 45
f 45 52 46
f 46 52 53
f 46 53 54
f 46 54 55
f 46 55 47
f 47 55 48
f 50 54 53
f 50 53 52
f 50 51 54
f 51 56 54
f 54 56 57
f 54 57 55

