# https://github.com/mikedh/trimesh
v -0.00425439 0.01085229 0.04395460
v -0.00425215 0.01042059 0.04395460
v -0.00434088 0.01085229 0.04747189
v 0.00327607 0.01085229 0.04395460
v -0.00433193 0.01042059 0.04747189
v -0.00410676 0.00966084 0.04395460
v -0.00415523 0.01042059 0.04821861
v -0.00415672 0.01085229 0.04822577
v 0.00327607 0.01085229 0.04747189
v 0.00327607 0.00659979 0.04395460
v -0.00414181 0.00980904 0.04747189
v -0.00408812 0.00986733 0.04811691
v -0.00088432 0.00659979 0.04395460
v -0.00095963 0.00659979 0.04747189
v -0.00353713 0.01042059 0.04856762
v -0.00353713 0.01085229 0.04859292
v -0.00383984 0.01085229 0.04842152
v 0.00327607 0.00659979 0.04747189
v 0.00304717 0.01085229 0.04824200
v 0.00311279 0.00659979 0.04831935
v 0.00320077 0.00659979 0.04790350
v -0.00091415 0.00659979 0.04831935
v -0.00064648 0.00659979 0.04878724
v -0.00310543 0.01085229 0.04861727
v -0.00014768 0.00659979 0.04883116
v 0.00284065 0.00773004 0.04875764
v 0.00286823 0.00703149 0.04877578
v 0.00288389 0.00659979 0.04878724
v 0.00299647 0.00659979 0.04856332
v 0.00239404 0.01085229 0.04861822
v -0.00268940 0.01085229 0.04863016
v 0.00154705 0.00659979 0.04883164
v 0.00069931 0.01085229 0.04864878
v -0.00014768 0.01085229 0.04864783
v 0.00239404 0.00659979 0.04883116
v 0.00262666 0.00659979 0.04881541
v 0.00154705 0.01085229 0.04864878
f 1 2 3
f 1 3 8
f 1 8 17
f 1 17 16
f 1 16 24
f 1 24 31
f 1 31 34
f 1 34 33
f 1 33 37
f 1 37 30
f 1 30 19
f 1 19 9
f 1 9 4
f 1 4 10
f 1 10 13
f 1 13 6
f 1 6 2
f 2 5 3
f 2 6 5
f 3 5 7
f 3 7 8
f 4 9 18
f 4 18 10
f 5 6 11
f 5 11 12
f 5 12 7
f 6 13 14
f 6 14 11
f 7 12 15
f 7 15 16
f 7 16 17
f 7 17 8
f 9 19 20
f 9 20 21
f 9 21 18
f 10 18 21
f 10 21 20
f 10 20 29
f 10 29 28
f 10 28 36
f 10 36 35
f 10 35 32
f 10 32 25
f 10 25 23
f 10 23 22
f 10 22 14
f 10 14 13
f 11 14 22
f 11 22 12
f 12 22 23
f 12 23 15
f 15 23 16
f 16 23 25
f 16 25 24
f 19 26 27
f 19 27 28
f 19 28 29
f 19 29 20
f 19 30 26
f 24 25 31
f 25 32 33
f 25 33 34
f 25 34 31
f 26 35 36
f 26 36 28
f 26 28 27
f 26 30 35
f 30 37 35
f 32 37 33
f 32 35 37

