# https://github.com/mikedh/trimesh
v 0.00039594 0.03838492 0.06527174
v 0.00038686 0.03838492 0.06611534
v 0.00064234 0.03923251 0.07554266
v 0.00074868 0.03916092 0.06527174
v 0.00077072 0.03771271 0.06527174
v 0.00076424 0.03770406 0.06611534
v 0.00038816 0.03838492 0.06696295
v 0.00039335 0.03838492 0.06865818
v 0.00039983 0.03838492 0.07035240
v 0.00040372 0.03838492 0.07119901
v 0.00041410 0.03838492 0.07289424
v 0.00044263 0.03838492 0.07374085
v 0.00068902 0.03838492 0.07554266
v 0.00068902 0.03929114 0.07554266
v 0.00101063 0.03969475 0.07554266
v 0.00101323 0.03969379 0.07543608
v 0.00103398 0.03968610 0.07458846
v 0.00105602 0.03967842 0.07374085
v 0.00108066 0.03967025 0.07289424
v 0.00110660 0.03966160 0.07204662
v 0.00112216 0.03965679 0.07159416
v 0.00154492 0.03950928 0.06527174
v 0.00154752 0.03743594 0.06527174
v 0.00239564 0.03648216 0.07554266
v 0.00200529 0.03669069 0.07554266
v 0.00156697 0.03699629 0.07554266
v 0.00078239 0.03776172 0.07119901
v 0.00077850 0.03775307 0.07035240
v 0.00077461 0.03774442 0.06950479
v 0.00079277 0.03777902 0.07289424
v 0.00082000 0.03780304 0.07374085
v 0.00107288 0.03771799 0.07554266
v 0.00154752 0.03972935 0.07554266
v 0.00154752 0.03972742 0.07543608
v 0.00116755 0.03965679 0.07159416
v 0.00154752 0.03953138 0.06611534
v 0.00239175 0.03950447 0.06527174
v 0.01118807 0.03482108 0.06527174
v 0.00942958 0.03482108 0.07514750
v 0.00935955 0.03482108 0.07554266
v 0.00239564 0.03971974 0.07554266
v 0.00154752 0.03969475 0.07374085
v 0.00148916 0.03966208 0.07205668
v 0.00242546 0.03966592 0.07284497
v 0.00239564 0.03952321 0.06611534
v 0.00154752 0.03967842 0.07289424
v 0.00323987 0.03948862 0.06527174
v 0.01363517 0.03482108 0.06527174
v 0.01327206 0.03482108 0.07554266
v 0.00313612 0.03970196 0.07554266
v 0.00295586 0.03966112 0.07309433
v 0.00272892 0.03965487 0.07252925
v 0.00239564 0.03968466 0.07374085
v 0.00324246 0.03950640 0.06611534
v 0.00408669 0.03945114 0.06527174
v 0.01355217 0.03499406 0.06527174
v 0.01362868 0.03482108 0.06554624
v 0.01327724 0.03482108 0.07543608
v 0.01324871 0.03487250 0.07554266
v 0.00324246 0.03969908 0.07554266
v 0.00324246 0.03969715 0.07543608
v 0.00324246 0.03962988 0.07204662
v 0.00324246 0.03959481 0.07035240
v 0.00324246 0.03954195 0.06781056
v 0.00409058 0.03946844 0.06611534
v 0.00493481 0.03939973 0.06527174
v 0.01353012 0.03499599 0.06611534
v 0.01316572 0.03567589 0.06527174
v 0.01315405 0.03566291 0.06611534
v 0.01361442 0.03482108 0.06611534
v 0.01334338 0.03482108 0.07391580
v 0.01320203 0.03497148 0.07554266
v 0.00375470 0.03967505 0.07554266
v 0.00373395 0.03966160 0.07477850
v 0.00353684 0.03965103 0.07374085
v 0.00409058 0.03952081 0.06865818
v 0.00493740 0.03941702 0.06611534
v 0.00578163 0.03934783 0.06527174
v 0.01350808 0.03499599 0.06696295
v 0.01286356 0.03610160 0.06527174
v 0.01284411 0.03606989 0.06696295
v 0.01314108 0.03564658 0.06696295
v 0.01312941 0.03562832 0.06781056
v 0.01359237 0.03482108 0.06696295
v 0.01338618 0.03482108 0.07289424
v 0.01326817 0.03499599 0.07374085
v 0.01318258 0.03508007 0.07466387
v 0.01298546 0.03541834 0.07499769
v 0.01297249 0.03539528 0.07554266
v 0.00384548 0.03967025 0.07554266
v 0.00382732 0.03966929 0.07543608
v 0.00409058 0.03955541 0.07035240
v 0.00409058 0.03953811 0.06950479
v 0.00493740 0.03943432 0.06696295
v 0.00578422 0.03936273 0.06611534
v 0.00662975 0.03926327 0.06527174
v 0.01348344 0.03499599 0.06781056
v 0.01311644 0.03560814 0.06865818
v 0.01244080 0.03660132 0.06527174
v 0.01242005 0.03657634 0.06696295
v 0.01240838 0.03656384 0.06781056
v 0.01238244 0.03654030 0.06950479
v 0.01283244 0.03605163 0.06781056
v 0.01281947 0.03603193 0.06865818
v 0.01356773 0.03482108 0.06781056
v 0.01341989 0.03482108 0.07204662
v 0.01330318 0.03499599 0.07289424
v 0.01299973 0.03543804 0.07443261
v 0.01267033 0.03584310 0.07554266
v 0.00389865 0.03966640 0.07554266
v 0.00578422 0.03937714 0.06696295
v 0.00663234 0.03927480 0.06611534
v 0.00747528 0.03913401 0.06527174
v 0.00578422 0.03939060 0.06781056
v 0.00578422 0.03940309 0.06865818
v 0.00578422 0.03950400 0.07554266
v 0.01345750 0.03499599 0.06865818
v 0.01310217 0.03558748 0.06950479
v 0.01204008 0.03702656 0.06527174
v 0.01236688 0.03652636 0.07035240
v 0.01195838 0.03695016 0.07035240
v 0.01235132 0.03651003 0.07119901
v 0.01232019 0.03647351 0.07289424
v 0.01280520 0.03601127 0.06950479
v 0.01354180 0.03482108 0.06865818
v 0.01333690 0.03499599 0.07204662
v 0.01347695 0.03482108 0.07055752
v 0.01301529 0.03546159 0.07374085
v 0.01272610 0.03588490 0.07374085
v 0.01276241 0.03576958 0.07466387
v 0.01267552 0.03584310 0.07543608
v 0.01226054 0.03640672 0.07554266
v 0.00486997 0.03958760 0.07554266
v 0.00663234 0.03928585 0.06696295
v 0.00747787 0.03914218 0.06611534
v 0.00832210 0.03894614 0.06527174
v 0.00663234 0.03930747 0.06865818
v 0.00663234 0.03931804 0.06950479
v 0.00663234 0.03932813 0.07035240
v 0.00663234 0.03933678 0.07119901
v 0.00493740 0.03958183 0.07554266
v 0.00567918 0.03951456 0.07554266
v 0.00652600 0.03939108 0.07554266
v 0.00663234 0.03936753 0.07458846
v 0.01343157 0.03499599 0.06950479
v 0.01279094 0.03598869 0.07035240
v 0.01308661 0.03556489 0.07035240
v 0.01161861 0.03738117 0.06527174
v 0.01153432 0.03732014 0.07035240
v 0.01152005 0.03731005 0.07119901
v 0.01150320 0.03729996 0.07204662
v 0.01148504 0.03728747 0.07289424
v 0.01194282 0.03693382 0.07119901
v 0.01192726 0.03691508 0.07204662
v 0.01190910 0.03689683 0.07289424
v 0.01230204 0.03645429 0.07374085
v 0.01351456 0.03482108 0.06950479
v 0.01340174 0.03499599 0.07035240
v 0.01303344 0.03548897 0.07289424
v 0.01350678 0.03482108 0.06972297
v 0.01305160 0.03551492 0.07204662
v 0.01274296 0.03591229 0.07289424
v 0.01228388 0.03643267 0.07458846
v 0.01188835 0.03687809 0.07374085
v 0.01186501 0.03685646 0.07458846
v 0.01183907 0.03683292 0.07543608
v 0.01183518 0.03683004 0.07554266
v 0.00747787 0.03917149 0.06950479
v 0.00747787 0.03917774 0.07035240
v 0.00832599 0.03895046 0.06611534
v 0.00878377 0.03881785 0.06527174
v 0.00663234 0.03937330 0.07554266
v 0.00663234 0.03937282 0.07543608
v 0.01277538 0.03596418 0.07119901
v 0.01275981 0.03593872 0.07204662
v 0.01306975 0.03554039 0.07119901
v 0.01104412 0.03780592 0.06527174
v 0.01102467 0.03778478 0.06696295
v 0.01101430 0.03777421 0.06781056
v 0.01100262 0.03776412 0.06865818
v 0.01094038 0.03772376 0.07204662
v 0.01092481 0.03771126 0.07289424
v 0.01146429 0.03727209 0.07374085
v 0.01090925 0.03769493 0.07374085
v 0.01144095 0.03725191 0.07458846
v 0.01146559 0.03717647 0.07554266
v 0.00747787 0.03918254 0.07119901
v 0.00832599 0.03895815 0.06781056
v 0.00747787 0.03919407 0.07374085
v 0.00832599 0.03896151 0.06865818
v 0.00879155 0.03882217 0.06696295
v 0.00920653 0.03868571 0.06527174
v 0.00737283 0.03921666 0.07554266
v 0.00747787 0.03919503 0.07458846
v 0.01062136 0.03805530 0.06527174
v 0.01061098 0.03805290 0.06611534
v 0.01059153 0.03804569 0.06781056
v 0.01057856 0.03803992 0.06865818
v 0.01056300 0.03803176 0.06950479
v 0.01054744 0.03802311 0.07035240
v 0.01051632 0.03800485 0.07204662
v 0.01050075 0.03799524 0.07289424
v 0.01048519 0.03798563 0.07374085
v 0.01046704 0.03797554 0.07458846
v 0.01045407 0.03796689 0.07523096
v 0.01044629 0.03796304 0.07554266
v 0.01089110 0.03767523 0.07458846
v 0.01141242 0.03722596 0.07554266
v 0.01076271 0.03773097 0.07554266
v 0.01079513 0.03770598 0.07554266
v 0.00832599 0.03896440 0.06950479
v 0.00879803 0.03882553 0.06865818
v 0.00879933 0.03882650 0.06950479
v 0.00921042 0.03868283 0.06611534
v 0.01001704 0.03835801 0.06527174
v 0.00747787 0.03919359 0.07554266
v 0.00747787 0.03919407 0.07543608
v 0.00832599 0.03896488 0.07035240
v 0.01002093 0.03835080 0.06611534
v 0.01002093 0.03834408 0.06696295
v 0.01002093 0.03833687 0.06781056
v 0.01002093 0.03832774 0.06865818
v 0.01002093 0.03830468 0.07035240
v 0.01002093 0.03827969 0.07204662
v 0.01002093 0.03826624 0.07289424
v 0.01002093 0.03825134 0.07374085
v 0.01002093 0.03823308 0.07458846
v 0.01012857 0.03814707 0.07554266
v 0.00922339 0.03866985 0.06950479
v 0.00922209 0.03867274 0.06865818
v 0.00832599 0.03896296 0.07204662
v 0.00832599 0.03896055 0.07374085
v 0.00879544 0.03882505 0.07035240
v 0.00821317 0.03898458 0.07554266
v 0.00921820 0.03866649 0.07035240
v 0.00921042 0.03866313 0.07119901
v 0.00920134 0.03865976 0.07204662
v 0.00919356 0.03865544 0.07289424
v 0.00918448 0.03865015 0.07374085
v 0.00917281 0.03862997 0.07543608
v 0.00917281 0.03862805 0.07554266
v 0.01003390 0.03819657 0.07554266
v 0.01009615 0.03816533 0.07554266
v 0.00831691 0.03895479 0.07554266
v 0.00878636 0.03882217 0.07119901
v 0.00876950 0.03881592 0.07289424
v 0.00874746 0.03880824 0.07493535
v 0.00874227 0.03880583 0.07543608
v 0.00874097 0.03880535 0.07554266
v 0.00911835 0.03865160 0.07554266
f 1 2 3
f 1 3 4
f 1 4 22
f 1 22 37
f 1 37 47
f 1 47 55
f 1 55 66
f 1 66 78
f 1 78 96
f 1 96 113
f 1 113 136
f 1 136 171
f 1 171 192
f 1 192 215
f 1 215 195
f 1 195 177
f 1 177 148
f 1 148 119
f 1 119 99
f 1 99 80
f 1 80 68
f 1 68 56
f 1 56 48
f 1 48 38
f 1 38 23
f 1 23 5
f 1 5 6
f 1 6 2
f 2 7 3
f 2 6 7
f 3 7 8
f 3 8 9
f 3 9 10
f 3 10 11
f 3 11 12
f 3 12 13
f 3 13 32
f 3 32 26
f 3 26 25
f 3 25 24
f 3 24 40
f 3 40 49
f 3 49 59
f 3 59 72
f 3 72 89
f 3 89 109
f 3 109 132
f 3 132 167
f 3 167 186
f 3 186 208
f 3 208 210
f 3 210 209
f 3 209 206
f 3 206 228
f 3 228 243
f 3 243 242
f 3 242 241
f 3 241 250
f 3 250 249
f 3 249 244
f 3 244 234
f 3 234 216
f 3 216 193
f 3 193 172
f 3 172 143
f 3 143 116
f 3 116 142
f 3 142 141
f 3 141 133
f 3 133 110
f 3 110 90
f 3 90 73
f 3 73 60
f 3 60 50
f 3 50 41
f 3 41 33
f 3 33 15
f 3 15 14
f 3 14 4
f 4 14 15
f 4 15 16
f 4 16 17
f 4 17 18
f 4 18 19
f 4 19 20
f 4 20 21
f 4 21 22
f 5 23 24
f 5 24 25
f 5 25 26
f 5 26 6
f 6 27 28
f 6 28 29
f 6 29 11
f 6 11 10
f 6 10 9
f 6 9 8
f 6 8 7
f 6 26 27
f 11 29 28
f 11 28 27
f 11 27 30
f 11 30 12
f 12 30 31
f 12 31 32
f 12 32 13
f 15 33 16
f 16 33 17
f 17 33 18
f 18 33 19
f 19 33 20
f 20 33 21
f 21 33 34
f 21 34 35
f 21 35 36
f 21 36 22
f 22 36 37
f 23 38 24
f 24 38 39
f 24 39 40
f 26 32 31
f 26 31 30
f 26 30 27
f 33 41 34
f 34 42 35
f 34 41 42
f 35 43 44
f 35 44 45
f 35 45 36
f 35 42 46
f 35 46 43
f 36 45 37
f 37 45 47
f 38 48 57
f 38 57 70
f 38 70 84
f 38 84 105
f 38 105 125
f 38 125 157
f 38 157 160
f 38 160 127
f 38 127 106
f 38 106 85
f 38 85 71
f 38 71 58
f 38 58 49
f 38 49 40
f 38 40 39
f 41 50 51
f 41 51 52
f 41 52 53
f 41 53 46
f 41 46 42
f 43 46 53
f 43 53 44
f 44 53 52
f 44 52 45
f 45 52 47
f 47 52 54
f 47 54 55
f 48 56 57
f 49 58 59
f 50 60 61
f 50 61 51
f 51 61 62
f 51 62 63
f 51 63 64
f 51 64 54
f 51 54 52
f 54 64 55
f 55 64 63
f 55 63 65
f 55 65 66
f 56 67 57
f 56 68 69
f 56 69 67
f 57 67 70
f 58 71 59
f 59 71 72
f 60 73 61
f 61 73 74
f 61 74 75
f 61 75 62
f 62 75 76
f 62 76 65
f 62 65 63
f 65 76 77
f 65 77 66
f 66 77 78
f 67 79 84
f 67 84 70
f 67 69 79
f 68 80 69
f 69 80 81
f 69 81 82
f 69 82 83
f 69 83 79
f 71 85 86
f 71 86 72
f 72 86 87
f 72 87 88
f 72 88 89
f 73 90 91
f 73 91 74
f 74 91 92
f 74 92 75
f 75 92 93
f 75 93 76
f 76 93 77
f 77 93 92
f 77 92 94
f 77 94 78
f 78 94 92
f 78 92 90
f 78 90 95
f 78 95 96
f 79 97 105
f 79 105 84
f 79 83 98
f 79 98 97
f 80 99 100
f 80 100 101
f 80 101 102
f 80 102 81
f 81 103 83
f 81 83 82
f 81 102 103
f 83 103 104
f 83 104 98
f 85 106 126
f 85 126 107
f 85 107 86
f 86 107 108
f 86 108 87
f 87 108 88
f 88 108 109
f 88 109 89
f 90 110 95
f 90 92 91
f 95 111 96
f 95 110 111
f 96 112 113
f 96 111 114
f 96 114 115
f 96 115 116
f 96 116 112
f 97 117 125
f 97 125 105
f 97 98 118
f 97 118 117
f 98 104 124
f 98 124 118
f 99 119 100
f 100 119 101
f 101 119 102
f 102 120 103
f 102 119 121
f 102 121 120
f 103 120 122
f 103 122 104
f 104 122 123
f 104 123 124
f 106 127 126
f 107 126 128
f 107 128 108
f 108 128 129
f 108 129 130
f 108 130 131
f 108 131 109
f 109 131 132
f 110 133 111
f 111 133 114
f 112 134 113
f 112 116 134
f 113 135 136
f 113 134 137
f 113 137 138
f 113 138 139
f 113 139 140
f 113 140 135
f 114 133 141
f 114 141 142
f 114 142 115
f 115 142 116
f 116 143 144
f 116 144 140
f 116 140 139
f 116 139 138
f 116 138 137
f 116 137 134
f 117 145 125
f 117 118 145
f 118 124 146
f 118 146 147
f 118 147 145
f 119 148 149
f 119 149 150
f 119 150 121
f 120 121 153
f 120 153 122
f 121 150 151
f 121 151 152
f 121 152 153
f 122 153 123
f 123 146 124
f 123 153 154
f 123 154 155
f 123 155 156
f 123 156 146
f 125 145 157
f 126 127 158
f 126 158 159
f 126 159 128
f 127 160 158
f 128 159 129
f 129 131 130
f 129 159 161
f 129 161 162
f 129 162 163
f 129 163 132
f 129 132 131
f 132 163 164
f 132 164 165
f 132 165 166
f 132 166 167
f 135 168 136
f 135 140 144
f 135 144 168
f 136 168 169
f 136 169 170
f 136 170 171
f 143 172 173
f 143 173 144
f 144 173 169
f 144 169 168
f 145 158 157
f 145 147 158
f 146 156 174
f 146 174 147
f 147 174 175
f 147 175 176
f 147 176 158
f 148 177 178
f 148 178 179
f 148 179 180
f 148 180 149
f 149 180 150
f 150 180 181
f 150 181 151
f 151 181 182
f 151 182 152
f 152 183 154
f 152 154 153
f 152 182 184
f 152 184 183
f 154 183 155
f 155 164 156
f 155 183 164
f 156 164 163
f 156 163 174
f 157 158 160
f 158 176 161
f 158 161 159
f 161 176 162
f 162 176 175
f 162 175 163
f 163 175 174
f 164 183 185
f 164 185 165
f 165 185 186
f 165 186 166
f 166 186 167
f 169 187 170
f 169 173 187
f 170 188 171
f 170 187 189
f 170 189 188
f 171 188 190
f 171 190 191
f 171 191 192
f 172 193 194
f 172 194 189
f 172 189 173
f 173 189 187
f 177 195 196
f 177 196 197
f 177 197 198
f 177 198 178
f 178 198 179
f 179 198 180
f 180 198 199
f 180 199 200
f 180 200 201
f 180 201 202
f 180 202 203
f 180 203 181
f 181 203 204
f 181 204 205
f 181 205 182
f 182 205 206
f 182 206 184
f 183 184 207
f 183 207 185
f 184 206 207
f 185 208 186
f 185 207 209
f 185 209 210
f 185 210 208
f 188 189 190
f 189 194 211
f 189 211 190
f 190 211 191
f 191 211 212
f 191 212 192
f 192 212 213
f 192 213 214
f 192 214 215
f 193 216 217
f 193 217 194
f 194 217 218
f 194 218 211
f 195 215 219
f 195 219 220
f 195 220 221
f 195 221 196
f 196 221 197
f 197 221 222
f 197 222 223
f 197 223 224
f 197 224 198
f 198 224 225
f 198 225 226
f 198 226 199
f 199 226 200
f 200 226 201
f 201 226 227
f 201 227 202
f 202 227 203
f 203 227 204
f 204 227 228
f 204 228 205
f 205 228 206
f 206 209 207
f 211 218 213
f 211 213 212
f 213 229 230
f 213 230 214
f 213 218 231
f 213 231 232
f 213 232 233
f 213 233 229
f 214 230 215
f 215 230 229
f 215 229 219
f 216 234 217
f 217 234 232
f 217 232 231
f 217 231 218
f 219 229 235
f 219 235 220
f 220 235 236
f 220 236 221
f 221 236 237
f 221 237 238
f 221 238 222
f 222 238 239
f 222 239 223
f 223 239 224
f 224 239 240
f 224 240 225
f 225 240 226
f 226 240 241
f 226 241 227
f 227 242 243
f 227 243 228
f 227 241 242
f 229 233 235
f 232 234 244
f 232 244 233
f 233 245 246
f 233 246 235
f 233 244 245
f 235 246 236
f 236 246 247
f 236 247 237
f 237 247 238
f 238 247 248
f 238 248 249
f 238 249 239
f 239 249 250
f 239 250 240
f 240 250 241
f 244 249 248
f 244 248 247
f 244 247 246
f 244 246 245

