# https://github.com/mikedh/trimesh
v 0.00620376 0.02881401 0.04069268
v 0.01280426 0.02913803 0.04003101
v 0.01280426 0.02878929 0.04068283
v 0.00620376 0.02912979 0.04146263
v 0.00620376 0.02917282 0.04007661
v 0.01280426 0.03170369 0.03661803
v 0.01280426 0.02912247 0.04146263
v 0.00620376 0.02951698 0.04163413
v 0.00620376 0.03181719 0.03661803
v 0.01280426 0.03646796 0.03661803
v 0.00620376 0.02991148 0.04180875
v 0.01280426 0.02991148 0.04180875
v 0.00620376 0.03756269 0.03661803
v 0.01256326 0.03654851 0.03661803
v 0.01256326 0.03663638 0.03730353
v 0.01280426 0.03652105 0.03703669
v 0.01280426 0.03387484 0.04191134
v 0.00620376 0.03548765 0.04191134
v 0.00620376 0.03759747 0.03688436
v 0.00663212 0.03754072 0.03661803
v 0.01240109 0.03659427 0.03661803
v 0.01256326 0.03673798 0.03815120
v 0.01280426 0.03655309 0.03730353
v 0.01171559 0.03678741 0.03661803
v 0.01171559 0.03687345 0.03730353
v 0.01184739 0.03704187 0.03899836
v 0.01280426 0.03699153 0.04191134
v 0.00620376 0.03813934 0.04191134
v 0.00620376 0.03765147 0.03730353
v 0.00663212 0.03762951 0.03730353
v 0.00747915 0.03756360 0.03730353
v 0.00731763 0.03748672 0.03661803
v 0.00747915 0.03767344 0.03815120
v 0.01256326 0.03682311 0.03899836
v 0.01280426 0.03662082 0.03787037
v 0.01203088 0.03708672 0.03984552
v 0.01212844 0.03711052 0.04030044
v 0.01157797 0.03682036 0.03661803
v 0.01117481 0.03708580 0.03795587
v 0.01164710 0.03700068 0.03820354
v 0.01131889 0.03712059 0.03852116
v 0.01142420 0.03714622 0.03899836
v 0.01280426 0.03694759 0.04141755
v 0.01274159 0.03701899 0.04191134
v 0.00663212 0.03812562 0.04191134
v 0.00620376 0.03810822 0.04154035
v 0.00620376 0.03776040 0.03815120
v 0.00663212 0.03773843 0.03815120
v 0.00832683 0.03757825 0.03815120
v 0.00747915 0.03747390 0.03661803
v 0.00747915 0.03777230 0.03899836
v 0.01256326 0.03690274 0.03984552
v 0.01280426 0.03671144 0.03878748
v 0.01160704 0.03719107 0.03984552
v 0.01086856 0.03746017 0.04069268
v 0.01086856 0.03754805 0.04154035
v 0.01086856 0.03758557 0.04191134
v 0.01134473 0.03746383 0.04191134
v 0.01171559 0.03736498 0.04191134
v 0.01220016 0.03713615 0.04086573
v 0.01251481 0.03699427 0.04062687
v 0.01080718 0.03699885 0.03661803
v 0.01099455 0.03704553 0.03730353
v 0.01088277 0.03718649 0.03820354
v 0.01086856 0.03728168 0.03899836
v 0.01086856 0.03737139 0.03984552
v 0.01270153 0.03700342 0.04154035
v 0.01250318 0.03710960 0.04191134
v 0.00750887 0.03806612 0.04191134
v 0.00663212 0.03809266 0.04154035
v 0.00620376 0.03802676 0.04066780
v 0.00620376 0.03785834 0.03899836
v 0.00663212 0.03783546 0.03899836
v 0.00917385 0.03747299 0.03815120
v 0.00832683 0.03746658 0.03730353
v 0.00832683 0.03767711 0.03899836
v 0.00832683 0.03737596 0.03661803
v 0.00694612 0.03795536 0.04032480
v 0.00729049 0.03798465 0.04088957
v 0.00785518 0.03795628 0.04116315
v 0.01002088 0.03745193 0.03899836
v 0.01002088 0.03753981 0.03984552
v 0.01002088 0.03762585 0.04069268
v 0.01002088 0.03771189 0.04154035
v 0.01002088 0.03774942 0.04191134
v 0.01203153 0.03727162 0.04191134
v 0.01227769 0.03716452 0.04154035
v 0.01070510 0.03702173 0.03661803
v 0.01044795 0.03711418 0.03687503
v 0.01057136 0.03714347 0.03730353
v 0.01002088 0.03735308 0.03815120
v 0.01231839 0.03717917 0.04191134
v 0.00792237 0.03802127 0.04191134
v 0.00809294 0.03798557 0.04172792
v 0.00753536 0.03802035 0.04148335
v 0.00665086 0.03800296 0.04064138
v 0.00620376 0.03797459 0.04013671
v 0.00665086 0.03792516 0.03987764
v 0.00620376 0.03795628 0.03995640
v 0.00988327 0.03716910 0.03661803
v 0.00917385 0.03736040 0.03730353
v 0.00901233 0.03728992 0.03661803
v 0.00917385 0.03757184 0.03899836
v 0.00832683 0.03776406 0.03984552
v 0.00917385 0.03774392 0.04069268
v 0.00917385 0.03782905 0.04154035
v 0.00916998 0.03786658 0.04191134
v 0.01008097 0.03713889 0.03661803
v 0.01002088 0.03724050 0.03730353
v 0.00816724 0.03799381 0.04191134
v 0.00882173 0.03791143 0.04191134
v 0.00997243 0.03715628 0.03661803
v 0.00917385 0.03726887 0.03661803
f 1 2 3
f 1 3 4
f 1 4 8
f 1 8 11
f 1 11 18
f 1 18 28
f 1 28 46
f 1 46 71
f 1 71 97
f 1 97 99
f 1 99 72
f 1 72 47
f 1 47 29
f 1 29 19
f 1 19 13
f 1 13 9
f 1 9 5
f 1 5 2
f 2 5 6
f 2 6 10
f 2 10 16
f 2 16 23
f 2 23 35
f 2 35 53
f 2 53 43
f 2 43 27
f 2 27 17
f 2 17 12
f 2 12 7
f 2 7 3
f 3 7 4
f 4 7 8
f 5 9 6
f 6 9 13
f 6 13 20
f 6 20 32
f 6 32 50
f 6 50 77
f 6 77 102
f 6 102 113
f 6 113 100
f 6 100 112
f 6 112 108
f 6 108 88
f 6 88 62
f 6 62 38
f 6 38 24
f 6 24 21
f 6 21 14
f 6 14 10
f 7 11 8
f 7 12 11
f 10 14 15
f 10 15 16
f 11 12 17
f 11 17 18
f 13 19 20
f 14 21 15
f 15 22 23
f 15 23 16
f 15 21 24
f 15 24 25
f 15 25 26
f 15 26 22
f 17 27 44
f 17 44 68
f 17 68 92
f 17 92 86
f 17 86 59
f 17 59 58
f 17 58 57
f 17 57 85
f 17 85 107
f 17 107 111
f 17 111 110
f 17 110 93
f 17 93 69
f 17 69 45
f 17 45 28
f 17 28 18
f 19 29 30
f 19 30 20
f 20 31 32
f 20 30 33
f 20 33 31
f 22 34 35
f 22 35 23
f 22 26 36
f 22 36 37
f 22 37 34
f 24 38 39
f 24 39 25
f 25 40 26
f 25 39 41
f 25 41 40
f 26 41 42
f 26 42 36
f 26 40 41
f 27 43 44
f 28 45 46
f 29 47 48
f 29 48 30
f 30 48 33
f 31 49 50
f 31 50 32
f 31 33 49
f 33 48 51
f 33 51 76
f 33 76 49
f 34 52 53
f 34 53 35
f 34 37 52
f 36 42 54
f 36 54 37
f 37 54 55
f 37 55 56
f 37 56 57
f 37 57 58
f 37 58 59
f 37 59 60
f 37 60 61
f 37 61 52
f 38 62 63
f 38 63 64
f 38 64 39
f 39 64 41
f 41 64 65
f 41 65 42
f 42 65 66
f 42 66 54
f 43 53 67
f 43 67 44
f 44 67 87
f 44 87 68
f 45 69 70
f 45 70 46
f 46 70 71
f 47 72 48
f 48 72 73
f 48 73 51
f 49 74 75
f 49 75 50
f 49 76 103
f 49 103 74
f 50 75 77
f 51 73 78
f 51 78 79
f 51 79 80
f 51 80 76
f 52 61 53
f 53 61 67
f 54 66 55
f 55 66 81
f 55 81 82
f 55 82 56
f 56 82 83
f 56 83 84
f 56 84 85
f 56 85 57
f 59 86 60
f 60 86 87
f 60 87 67
f 60 67 61
f 62 88 89
f 62 89 90
f 62 90 63
f 63 90 64
f 64 90 91
f 64 91 81
f 64 81 65
f 65 81 66
f 68 87 92
f 69 93 94
f 69 94 80
f 69 80 95
f 69 95 79
f 69 79 70
f 70 79 78
f 70 78 96
f 70 96 97
f 70 97 71
f 72 98 73
f 72 99 98
f 73 98 78
f 74 91 100
f 74 100 101
f 74 101 102
f 74 102 77
f 74 77 75
f 74 103 81
f 74 81 91
f 76 80 94
f 76 94 104
f 76 104 103
f 78 98 96
f 79 95 80
f 81 103 82
f 82 103 105
f 82 105 83
f 83 105 84
f 84 105 85
f 85 105 106
f 85 106 107
f 86 92 87
f 88 108 89
f 89 108 109
f 89 109 91
f 89 91 90
f 91 109 100
f 93 110 94
f 94 110 111
f 94 111 105
f 94 105 103
f 94 103 104
f 96 98 99
f 96 99 97
f 100 113 101
f 100 109 112
f 101 113 102
f 105 111 106
f 106 111 107
f 108 112 109

