# https://github.com/mikedh/trimesh
v 0.01487242 -0.03110131 0.06559329
v 0.01486655 -0.03110131 0.06611553
v 0.01483573 -0.03142700 0.06559329
v 0.01479683 -0.03048922 0.06559329
v 0.01478803 -0.03049975 0.06696276
v 0.01478142 -0.03050747 0.06780998
v 0.01477408 -0.03051659 0.06865808
v 0.01476674 -0.03052712 0.06950530
v 0.01477628 -0.03194854 0.06559329
v 0.01475794 -0.03053976 0.07035166
v 0.01485628 -0.03110131 0.06696276
v 0.01459061 -0.03037480 0.06559329
v 0.01425815 -0.03020072 0.06696276
v 0.01425815 -0.03020915 0.06780998
v 0.01425815 -0.03021827 0.06865808
v 0.01425815 -0.03022880 0.06950530
v 0.01425815 -0.03024143 0.07035166
v 0.01425815 -0.03025617 0.07119888
v 0.01474839 -0.03213736 0.06559329
v 0.01484527 -0.03110131 0.06780998
v 0.01483353 -0.03110131 0.06865808
v 0.01476894 -0.03194854 0.06611553
v 0.01425815 -0.03027653 0.07204611
v 0.01474839 -0.03055450 0.07119888
v 0.01425815 -0.03019089 0.06559329
v 0.01425815 -0.03019440 0.06611553
v 0.00990470 -0.02780712 0.06559329
v 0.01469629 -0.03243920 0.06611553
v 0.01469996 -0.03245885 0.06559329
v 0.01473592 -0.03057485 0.07204611
v 0.01481885 -0.03110131 0.06950530
v 0.01472638 -0.03180465 0.07035166
v 0.01475647 -0.03194854 0.06696276
v 0.01425815 -0.03030250 0.07289420
v 0.00917448 -0.02746808 0.06559329
v 0.01432420 -0.03040709 0.07446961
v 0.01425815 -0.03033268 0.07374143
v 0.01468822 -0.03240270 0.06696276
v 0.01459648 -0.03282596 0.06696276
v 0.01460382 -0.03286317 0.06611553
v 0.01460822 -0.03288282 0.06559329
v 0.01480270 -0.03110131 0.07035166
v 0.01472051 -0.03060153 0.07289420
v 0.01471684 -0.03174568 0.07119888
v 0.01464859 -0.03216965 0.07119888
v 0.01465813 -0.03222791 0.07035166
v 0.00916200 -0.02747370 0.06559329
v 0.00917448 -0.02823460 0.07446961
v 0.01441814 -0.03046956 0.07446961
v 0.01439759 -0.03364372 0.06611553
v 0.01453483 -0.03279578 0.07035166
v 0.01452896 -0.03318255 0.06559329
v 0.01470436 -0.03063101 0.07374143
v 0.01469115 -0.03065698 0.07442964
v 0.01478362 -0.03110131 0.07119888
v 0.01470363 -0.03165724 0.07204611
v 0.01451648 -0.03279578 0.07119888
v 0.01463244 -0.03208121 0.07204611
v 0.01445484 -0.03279578 0.07289420
v 0.01448860 -0.03279578 0.07204611
v 0.00857929 -0.02784573 0.06559329
v 0.00849269 -0.02861715 0.07446961
v 0.01463171 -0.03061767 0.07446961
v 0.01437851 -0.03364372 0.06696276
v 0.01399762 -0.03443761 0.07035166
v 0.01405266 -0.03449096 0.06696276
v 0.01440273 -0.03364372 0.06559329
v 0.01469115 -0.03079386 0.07442964
v 0.01468528 -0.03073139 0.07446961
v 0.01475794 -0.03110131 0.07204611
v 0.01469042 -0.03157932 0.07268826
v 0.01427724 -0.03364372 0.07119888
v 0.01429778 -0.03364372 0.07035166
v 0.01435870 -0.03364372 0.06780998
v 0.01425008 -0.03364372 0.07204611
v 0.01462657 -0.03189660 0.07294026
v 0.01458400 -0.03194854 0.07374143
v 0.01455318 -0.03194854 0.07446961
v 0.01438952 -0.03279578 0.07446961
v 0.01421632 -0.03364372 0.07289420
v 0.00737644 -0.03162214 0.06559329
v 0.00737644 -0.03209314 0.07446961
v 0.00823436 -0.02940683 0.07446961
v 0.00845600 -0.02872806 0.07446961
v 0.01390809 -0.03463907 0.07035166
v 0.01391763 -0.03463907 0.06997019
v 0.01398588 -0.03440743 0.07119888
v 0.01393598 -0.03463907 0.06916467
v 0.01398001 -0.03463907 0.06719824
v 0.01398368 -0.03463907 0.06696276
v 0.01398294 -0.03463907 0.06625717
v 0.01401450 -0.03456957 0.06609120
v 0.01425082 -0.03400943 0.06559329
v 0.01468528 -0.03084440 0.07446961
v 0.01467868 -0.03149229 0.07325308
v 0.01471831 -0.03116659 0.07294026
v 0.01456566 -0.03186852 0.07446961
v 0.01397047 -0.03436671 0.07204611
v 0.01413853 -0.03364372 0.07446961
v 0.01417596 -0.03364372 0.07374143
v 0.01395212 -0.03432109 0.07289420
v 0.00737644 -0.03412665 0.06559329
v 0.00737644 -0.03463907 0.07446961
v 0.01389561 -0.03463907 0.07076702
v 0.01388167 -0.03463907 0.07119888
v 0.01386772 -0.03463907 0.07154994
v 0.01398221 -0.03463907 0.06614247
v 0.01403725 -0.03449096 0.06559329
v 0.01465886 -0.03114623 0.07446961
v 0.01466840 -0.03137506 0.07374143
v 0.01383250 -0.03463907 0.07232070
v 0.01390735 -0.03422422 0.07446961
v 0.01392937 -0.03427055 0.07374143
v 0.01380387 -0.03463907 0.07289420
v 0.01379360 -0.03463907 0.07308363
v 0.00979462 -0.03463907 0.06559329
v 0.00737644 -0.03415262 0.06601213
v 0.00737644 -0.03463907 0.07395780
v 0.01371361 -0.03463907 0.07446961
v 0.01397561 -0.03463907 0.06602950
v 0.01394478 -0.03463907 0.06559329
v 0.01375764 -0.03463907 0.07374143
v 0.00737644 -0.03430845 0.06855467
v 0.00737644 -0.03426283 0.06780998
v 0.00737644 -0.03420457 0.06685935
f 1 2 3
f 1 3 9
f 1 9 19
f 1 19 29
f 1 29 41
f 1 41 52
f 1 52 67
f 1 67 93
f 1 93 108
f 1 108 121
f 1 121 116
f 1 116 102
f 1 102 81
f 1 81 61
f 1 61 47
f 1 47 35
f 1 35 27
f 1 27 25
f 1 25 12
f 1 12 4
f 1 4 5
f 1 5 6
f 1 6 7
f 1 7 8
f 1 8 2
f 2 9 3
f 2 8 10
f 2 10 11
f 2 11 9
f 4 12 13
f 4 13 14
f 4 14 15
f 4 15 5
f 5 15 16
f 5 16 6
f 6 16 17
f 6 17 7
f 7 17 18
f 7 18 8
f 8 18 10
f 9 11 20
f 9 20 21
f 9 21 22
f 9 22 19
f 10 18 23
f 10 23 24
f 10 24 11
f 11 24 20
f 12 25 26
f 12 26 13
f 13 26 27
f 13 27 14
f 14 27 15
f 15 27 16
f 16 27 17
f 17 27 18
f 18 27 23
f 19 22 28
f 19 28 29
f 20 24 21
f 21 24 30
f 21 30 31
f 21 31 32
f 21 32 22
f 22 33 28
f 22 32 33
f 23 34 24
f 23 27 34
f 24 34 30
f 25 27 26
f 27 35 36
f 27 36 37
f 27 37 34
f 28 38 39
f 28 39 40
f 28 40 41
f 28 41 29
f 28 33 32
f 28 32 38
f 30 42 31
f 30 34 37
f 30 37 36
f 30 36 43
f 30 43 42
f 31 42 44
f 31 44 32
f 32 44 45
f 32 45 46
f 32 46 38
f 35 47 48
f 35 48 36
f 36 49 43
f 36 48 62
f 36 62 84
f 36 84 83
f 36 83 82
f 36 82 103
f 36 103 119
f 36 119 112
f 36 112 99
f 36 99 79
f 36 79 78
f 36 78 97
f 36 97 109
f 36 109 94
f 36 94 69
f 36 69 63
f 36 63 49
f 38 46 39
f 39 50 40
f 39 46 51
f 39 51 50
f 40 50 41
f 41 50 52
f 42 43 53
f 42 53 54
f 42 54 55
f 42 55 44
f 43 49 53
f 44 55 56
f 44 56 45
f 45 57 46
f 45 56 58
f 45 58 59
f 45 59 60
f 45 60 57
f 46 57 51
f 47 61 62
f 47 62 48
f 49 63 53
f 50 64 65
f 50 65 66
f 50 66 67
f 50 67 52
f 50 51 57
f 50 57 64
f 53 63 54
f 54 68 55
f 54 63 69
f 54 69 94
f 54 94 68
f 55 70 56
f 55 68 70
f 56 70 71
f 56 71 58
f 57 72 73
f 57 73 74
f 57 74 64
f 57 60 75
f 57 75 72
f 58 71 76
f 58 76 77
f 58 77 78
f 58 78 79
f 58 79 59
f 59 79 80
f 59 80 75
f 59 75 60
f 61 81 82
f 61 82 83
f 61 83 84
f 61 84 62
f 64 74 65
f 65 85 86
f 65 86 66
f 65 74 73
f 65 73 72
f 65 72 87
f 65 87 85
f 66 86 88
f 66 88 89
f 66 89 90
f 66 90 91
f 66 91 92
f 66 92 93
f 66 93 67
f 68 94 95
f 68 95 96
f 68 96 70
f 70 96 95
f 70 95 71
f 71 95 97
f 71 97 78
f 71 78 77
f 71 77 76
f 72 75 87
f 75 80 98
f 75 98 87
f 79 99 100
f 79 100 80
f 80 101 98
f 80 100 101
f 81 102 117
f 81 117 125
f 81 125 124
f 81 124 123
f 81 123 118
f 81 118 103
f 81 103 82
f 85 87 104
f 85 104 105
f 85 105 106
f 85 106 111
f 85 111 114
f 85 114 115
f 85 115 122
f 85 122 119
f 85 119 103
f 85 103 118
f 85 118 116
f 85 116 121
f 85 121 120
f 85 120 107
f 85 107 91
f 85 91 90
f 85 90 89
f 85 89 88
f 85 88 86
f 87 105 104
f 87 98 106
f 87 106 105
f 91 107 92
f 92 107 108
f 92 108 93
f 94 109 95
f 95 109 110
f 95 110 97
f 97 110 109
f 98 101 111
f 98 111 106
f 99 112 113
f 99 113 100
f 100 113 101
f 101 114 111
f 101 113 115
f 101 115 114
f 102 116 117
f 107 120 108
f 108 120 121
f 112 119 122
f 112 122 113
f 113 122 115
f 116 123 124
f 116 124 125
f 116 125 117
f 116 118 123

