# https://github.com/mikedh/trimesh
v 0.01409350 -0.02485886 0.08729914
v 0.01408311 -0.02516989 0.08729914
v 0.01394578 -0.02819268 0.08642961
v 0.01397993 -0.02485886 0.08648890
v 0.01405564 -0.02485886 0.08783575
v 0.01397325 -0.02485886 0.08899410
v 0.01405342 -0.02601746 0.08729914
v 0.01402372 -0.02686437 0.08729914
v 0.01399329 -0.02771194 0.08729914
v 0.01397399 -0.02819268 0.08729914
v 0.01385596 -0.02819268 0.08599941
v 0.01124891 -0.02819268 0.08104679
v 0.01122219 -0.02819268 0.08099662
v 0.00997583 -0.02485886 0.07975771
v 0.01389307 -0.02485886 0.08987730
v 0.01396137 -0.02516989 0.08899410
v 0.01392796 -0.02601746 0.08899410
v 0.01392499 -0.02771194 0.08814738
v 0.01390050 -0.02819268 0.08818842
v 0.00989640 -0.02819268 0.07890491
v 0.00917412 -0.02819268 0.07847471
v 0.00917412 -0.02485886 0.07943392
v 0.01385002 -0.02485886 0.09025430
v 0.01382923 -0.02548352 0.09021933
v 0.01387749 -0.02518849 0.08989858
v 0.01386412 -0.02601746 0.08968424
v 0.01384482 -0.02686437 0.08951094
v 0.01383443 -0.02730072 0.08942278
v 0.01389159 -0.02686437 0.08899410
v 0.01384928 -0.02819268 0.08878584
v 0.00858397 -0.02819268 0.07893379
v 0.00849415 -0.02485886 0.07977443
v 0.00892544 -0.02485886 0.07954945
v 0.01384334 -0.02485886 0.09030598
v 0.01384185 -0.02491859 0.09029990
v 0.01374684 -0.02819268 0.08980889
v 0.01360357 -0.02819268 0.09068906
v 0.01377653 -0.02819268 0.08954287
v 0.01382181 -0.02786566 0.08927532
v 0.01383146 -0.02819268 0.08899258
v 0.00849340 -0.02819268 0.07911013
v 0.00839913 -0.02485886 0.08004045
v 0.01344991 -0.02771194 0.09153578
v 0.01379435 -0.02485886 0.09052336
v 0.01326433 -0.02771194 0.09238402
v 0.01324428 -0.02819268 0.09238402
v 0.01332445 -0.02819268 0.09201766
v 0.01366889 -0.02686437 0.09068906
v 0.01362732 -0.02771194 0.09068906
v 0.01350410 -0.02819268 0.09116942
v 0.01381736 -0.02819268 0.08915523
v 0.00826996 -0.02819268 0.08004045
v 0.00824250 -0.02485886 0.08052234
v 0.01342689 -0.02819268 0.09153578
v 0.01362732 -0.02485886 0.09125911
v 0.01352117 -0.02601746 0.09153578
v 0.01329625 -0.02686437 0.09238402
v 0.01314927 -0.02819268 0.09271541
v 0.00693749 -0.02819268 0.08847725
v 0.00656559 -0.02485886 0.09238402
v 0.01356422 -0.02485886 0.09153578
v 0.01332742 -0.02601746 0.09238402
v 0.01306835 -0.02819268 0.09298751
v 0.00686623 -0.02819268 0.08899410
v 0.00651140 -0.02819268 0.09238402
v 0.00651140 -0.02485886 0.09323074
v 0.01344100 -0.02485886 0.09207239
v 0.01335786 -0.02516989 0.09238402
v 0.01312328 -0.02516989 0.09316689
v 0.01311883 -0.02485886 0.09321554
v 0.01295181 -0.02485886 0.09361229
v 0.01276623 -0.02771194 0.09343747
v 0.01273208 -0.02819268 0.09341163
v 0.00652624 -0.02819268 0.09275037
v 0.00656113 -0.02686437 0.09323074
v 0.00662349 -0.02485886 0.09345572
v 0.01336899 -0.02485886 0.09238402
v 0.01322053 -0.02485886 0.09287958
v 0.01275138 -0.02485886 0.09372022
v 0.01234236 -0.02771194 0.09374150
v 0.01230821 -0.02819268 0.09372630
v 0.01249157 -0.02819268 0.09359557
v 0.00661681 -0.02819268 0.09323074
v 0.00659454 -0.02771194 0.09323074
v 0.00681575 -0.02516989 0.09381903
v 0.00680907 -0.02485886 0.09382815
v 0.01255541 -0.02485886 0.09381599
v 0.01245519 -0.02601746 0.09379319
v 0.01240026 -0.02686437 0.09376735
v 0.01171584 -0.02485886 0.09400145
v 0.01171584 -0.02516989 0.09398321
v 0.01171584 -0.02601746 0.09393152
v 0.01171584 -0.02771194 0.09382815
v 0.01171584 -0.02819268 0.09379775
v 0.00674894 -0.02819268 0.09345115
v 0.00686697 -0.02686437 0.09376735
v 0.00683876 -0.02601746 0.09379319
v 0.00705923 -0.02485886 0.09389808
v 0.01250864 -0.02516989 0.09381903
v 0.00747939 -0.02485886 0.09400145
v 0.00747939 -0.02516989 0.09398321
v 0.00747939 -0.02601746 0.09393152
v 0.00747939 -0.02771194 0.09382815
v 0.00747939 -0.02819268 0.09379775
v 0.00692264 -0.02819268 0.09372630
v 0.00690037 -0.02771194 0.09374150
v 0.00717281 -0.02819268 0.09376431
f 1 2 3
f 1 3 4
f 1 4 14
f 1 14 22
f 1 22 33
f 1 33 32
f 1 32 42
f 1 42 53
f 1 53 60
f 1 60 66
f 1 66 76
f 1 76 86
f 1 86 98
f 1 98 100
f 1 100 90
f 1 90 87
f 1 87 79
f 1 79 71
f 1 71 70
f 1 70 78
f 1 78 77
f 1 77 67
f 1 67 61
f 1 61 55
f 1 55 44
f 1 44 34
f 1 34 23
f 1 23 15
f 1 15 6
f 1 6 5
f 1 5 2
f 2 5 6
f 2 6 7
f 2 7 3
f 3 7 8
f 3 8 9
f 3 9 10
f 3 10 19
f 3 19 30
f 3 30 40
f 3 40 51
f 3 51 38
f 3 38 36
f 3 36 37
f 3 37 50
f 3 50 54
f 3 54 47
f 3 47 46
f 3 46 58
f 3 58 63
f 3 63 73
f 3 73 82
f 3 82 81
f 3 81 94
f 3 94 104
f 3 104 107
f 3 107 105
f 3 105 95
f 3 95 83
f 3 83 74
f 3 74 65
f 3 65 64
f 3 64 59
f 3 59 52
f 3 52 41
f 3 41 31
f 3 31 21
f 3 21 20
f 3 20 13
f 3 13 12
f 3 12 11
f 3 11 4
f 4 11 12
f 4 12 13
f 4 13 14
f 6 15 16
f 6 16 9
f 6 9 8
f 6 8 7
f 9 16 17
f 9 17 10
f 10 17 18
f 10 18 19
f 13 20 14
f 14 20 21
f 14 21 22
f 15 23 24
f 15 24 25
f 15 25 26
f 15 26 17
f 15 17 16
f 17 26 27
f 17 27 28
f 17 28 29
f 17 29 18
f 18 29 19
f 19 29 30
f 21 31 32
f 21 32 33
f 21 33 22
f 23 34 35
f 23 35 24
f 24 36 28
f 24 28 27
f 24 27 26
f 24 26 25
f 24 35 37
f 24 37 36
f 28 38 39
f 28 39 29
f 28 36 38
f 29 39 40
f 29 40 30
f 31 41 32
f 32 41 42
f 34 43 35
f 34 44 45
f 34 45 46
f 34 46 47
f 34 47 43
f 35 43 48
f 35 48 49
f 35 49 37
f 37 49 50
f 38 51 39
f 39 51 40
f 41 52 53
f 41 53 42
f 43 54 50
f 43 50 48
f 43 47 54
f 44 55 56
f 44 56 45
f 45 57 58
f 45 58 46
f 45 56 57
f 48 50 49
f 52 59 53
f 53 59 60
f 55 61 57
f 55 57 56
f 57 62 58
f 57 61 62
f 58 62 63
f 59 64 60
f 60 64 65
f 60 65 66
f 61 67 62
f 62 67 68
f 62 68 69
f 62 69 63
f 63 69 70
f 63 70 71
f 63 71 72
f 63 72 73
f 65 74 66
f 66 75 76
f 66 74 75
f 67 77 68
f 68 77 78
f 68 78 69
f 69 78 70
f 71 79 80
f 71 80 81
f 71 81 82
f 71 82 73
f 71 73 72
f 74 83 84
f 74 84 75
f 75 84 85
f 75 85 86
f 75 86 76
f 79 87 88
f 79 88 89
f 79 89 80
f 80 89 90
f 80 90 81
f 81 90 91
f 81 91 92
f 81 92 93
f 81 93 94
f 83 95 96
f 83 96 97
f 83 97 84
f 84 97 85
f 85 97 98
f 85 98 86
f 87 90 99
f 87 99 88
f 88 99 90
f 88 90 89
f 90 100 101
f 90 101 91
f 91 101 102
f 91 102 92
f 92 102 103
f 92 103 93
f 93 103 104
f 93 104 94
f 95 105 106
f 95 106 96
f 96 98 97
f 96 106 98
f 98 106 100
f 100 106 105
f 100 105 107
f 100 107 101
f 101 107 102
f 102 107 103
f 103 107 104

