# https://github.com/mikedh/trimesh
v 0.00010315 0.02839500 0.02450471
v 0.00010315 0.02839500 0.02963921
v 0.00010315 0.03132772 0.02450471
v 0.00078042 0.02839500 0.02450471
v 0.00010315 0.02991133 0.02961571
v 0.00071676 0.02839500 0.02977612
v 0.00154744 0.03174186 0.03012281
v 0.00010315 0.03174186 0.02863264
v 0.00025897 0.03174186 0.02794690
v 0.00037964 0.03174186 0.02782821
v 0.00066158 0.03174186 0.02755262
v 0.00154744 0.03174186 0.02728585
v 0.00078770 0.03133723 0.02450471
v 0.00443300 0.02906405 0.02450471
v 0.00443300 0.02839500 0.02450706
v 0.00010315 0.03016132 0.02960689
v 0.00154744 0.02839500 0.02987425
v 0.00071676 0.03174186 0.02979081
v 0.00576149 0.03174186 0.03050710
v 0.00010315 0.03174186 0.02897463
v 0.00239510 0.03174186 0.02728232
v 0.00163536 0.03133886 0.02450471
v 0.00443300 0.02922459 0.02450471
v 0.00629628 0.02991133 0.02764840
v 0.00629628 0.02914301 0.02799568
v 0.00629628 0.02895265 0.02848221
v 0.00629628 0.02881897 0.02882949
v 0.00485198 0.02839500 0.02798157
v 0.00010315 0.03105283 0.02956223
v 0.00239510 0.02839500 0.02992773
v 0.00064460 0.03174186 0.02969856
v 0.00010315 0.03147484 0.02943942
v 0.00578392 0.03174186 0.03050769
v 0.00010315 0.03170320 0.02906159
v 0.00013286 0.03174186 0.02902751
v 0.00324155 0.03174186 0.02728232
v 0.00324155 0.03133919 0.02450471
v 0.00443179 0.02991133 0.02450471
v 0.00629628 0.03077237 0.02765193
v 0.00629628 0.02903685 0.02919557
v 0.00407951 0.02839500 0.02962687
v 0.00421169 0.02839500 0.02950054
v 0.00465310 0.02839500 0.02889471
v 0.00473981 0.02839500 0.02866496
v 0.00474648 0.02839500 0.02864439
v 0.00475678 0.02839500 0.02858035
v 0.00324155 0.02839500 0.02992773
v 0.00629628 0.03174186 0.03050769
v 0.00409891 0.03174186 0.02734931
v 0.00629628 0.03174186 0.02766897
v 0.00386304 0.03126711 0.02450471
v 0.00441239 0.03005385 0.02450471
v 0.00629628 0.02917938 0.02943414
v 0.00424140 0.03075828 0.02450471
v 0.00419895 0.03082774 0.02450471
f 1 2 5
f 1 5 16
f 1 16 29
f 1 29 32
f 1 32 34
f 1 34 20
f 1 20 8
f 1 8 3
f 1 3 13
f 1 13 22
f 1 22 37
f 1 37 51
f 1 51 55
f 1 55 54
f 1 54 52
f 1 52 38
f 1 38 23
f 1 23 14
f 1 14 4
f 1 4 15
f 1 15 28
f 1 28 46
f 1 46 45
f 1 45 44
f 1 44 43
f 1 43 42
f 1 42 41
f 1 41 47
f 1 47 30
f 1 30 17
f 1 17 6
f 1 6 2
f 2 6 7
f 2 7 5
f 3 8 9
f 3 9 10
f 3 10 11
f 3 11 12
f 3 12 13
f 4 14 15
f 5 7 16
f 6 17 7
f 7 18 16
f 7 17 19
f 7 19 33
f 7 33 48
f 7 48 50
f 7 50 49
f 7 49 36
f 7 36 21
f 7 21 12
f 7 12 11
f 7 11 10
f 7 10 9
f 7 9 8
f 7 8 20
f 7 20 35
f 7 35 31
f 7 31 18
f 12 21 22
f 12 22 13
f 14 23 24
f 14 24 15
f 15 24 25
f 15 25 26
f 15 26 27
f 15 27 28
f 16 18 29
f 17 30 19
f 18 31 32
f 18 32 29
f 19 30 33
f 20 34 35
f 21 36 37
f 21 37 22
f 23 38 24
f 24 39 50
f 24 50 48
f 24 48 53
f 24 53 40
f 24 40 27
f 24 27 26
f 24 26 25
f 24 38 39
f 27 40 41
f 27 41 42
f 27 42 43
f 27 43 44
f 27 44 45
f 27 45 46
f 27 46 28
f 30 47 48
f 30 48 33
f 31 35 34
f 31 34 32
f 36 49 37
f 37 49 50
f 37 50 51
f 38 52 50
f 38 50 39
f 40 53 41
f 41 53 47
f 47 53 48
f 50 52 54
f 50 54 55
f 50 55 51

