# https://github.com/mikedh/trimesh
v -0.00435607 -0.03194885 0.04883261
v -0.00435607 -0.03194885 0.04916799
v -0.00435607 -0.03025420 0.04883261
v -0.00415761 -0.03269770 0.04883261
v -0.00415761 -0.03271051 0.04916799
v -0.00430335 -0.03194885 0.05001471
v -0.00431679 -0.03025420 0.05001471
v -0.00435607 -0.03025420 0.04916799
v -0.00412970 -0.03272332 0.05001471
v -0.00420722 -0.02939327 0.04883261
v -0.00378239 -0.03292508 0.04883261
v -0.00353638 -0.03312417 0.05001471
v -0.00416484 -0.03025420 0.05086239
v -0.00404494 -0.03260430 0.05086239
v -0.00397878 -0.03245111 0.05133192
v -0.00413693 -0.03194885 0.05086239
v -0.00399326 -0.02977756 0.05137664
v -0.00406561 -0.02968096 0.05086239
v -0.00414003 -0.02958702 0.05001471
v -0.00316220 -0.03324746 0.05226127
v -0.00401910 -0.02888140 0.04883261
v -0.00353638 -0.03306279 0.04883261
v -0.00353638 -0.03308520 0.04916799
v -0.00318907 -0.03324853 0.05171008
v 0.00036257 -0.03401713 0.05340447
v -0.00399222 -0.03194885 0.05136498
v -0.00400566 -0.03025420 0.05140969
v -0.00233527 -0.03327148 0.05396927
v -0.00325419 -0.03275215 0.05254901
v -0.00312498 -0.03243990 0.05300202
v -0.00380616 -0.03194885 0.05178882
v -0.00399429 -0.02886432 0.04883261
v -0.00381754 -0.03025420 0.05183256
v -0.00314462 -0.03059740 0.05303313
v -0.00335652 -0.03029103 0.05257915
v 0.00021786 -0.03183837 0.05876375
v -0.00329244 -0.02969697 0.05231084
v -0.00355912 -0.02961530 0.05167897
v 0.00003077 -0.03401713 0.05587851
v 0.00013206 -0.03401713 0.05663384
v 0.00023233 -0.03401713 0.05704602
v -0.00268878 -0.03310228 0.04883261
v 0.00075329 -0.03401713 0.05269094
v -0.00382167 -0.03110180 0.05181020
v -0.00147941 -0.03327736 0.05563451
v -0.00340821 -0.03194885 0.05255679
v -0.00060390 -0.03325921 0.05727544
v -0.00062974 -0.03279591 0.05732015
v -0.00038683 -0.03279591 0.05774400
v -0.00343818 -0.03110180 0.05255679
v -0.00353638 -0.02865723 0.04883261
v -0.00315393 -0.03110180 0.05304868
v 0.00019512 -0.03216983 0.05876375
v 0.00042872 -0.03159071 0.05876375
v 0.00013620 -0.03142685 0.05832727
v -0.00268878 -0.02937138 0.05171008
v 0.00069231 -0.03137507 0.05876375
v 0.00064683 -0.03401713 0.05762248
v 0.00012173 -0.03336115 0.05833407
v -0.00015529 -0.03349085 0.05759040
v 0.00154714 -0.03310228 0.04883261
v 0.00186137 -0.03401713 0.05255096
v 0.00154714 -0.03401713 0.05255193
v 0.00008245 -0.03275588 0.05856543
v -0.00289448 -0.03194885 0.05344919
v 0.00024887 -0.03309535 0.05876375
v 0.00020545 -0.03290747 0.05876375
v 0.00019098 -0.03258135 0.05876375
v -0.00268878 -0.02856489 0.04883261
v 0.00019098 -0.03250128 0.05876375
v -0.00064111 -0.03194885 0.05733863
v 0.00154714 -0.03127526 0.05876375
v 0.00067784 -0.03348765 0.05876375
v 0.00154714 -0.03401713 0.05786648
v 0.00154714 -0.03371663 0.05876375
v 0.00086079 -0.03355491 0.05876375
v 0.00205983 -0.03308734 0.04883261
v 0.00620273 -0.03401713 0.05269969
v 0.00271310 -0.03401713 0.05256262
v 0.00239370 -0.03401713 0.05255290
v 0.00019822 -0.03275588 0.05876375
v 0.00239370 -0.03127313 0.05876375
v -0.00184222 -0.02856435 0.04883261
v 0.00239370 -0.03401713 0.05787134
v 0.00239370 -0.03373318 0.05876375
v 0.00182209 -0.03372997 0.05876375
v 0.00239370 -0.03307613 0.04883261
v 0.00620273 -0.03342040 0.05289120
v 0.00620273 -0.03401713 0.05787329
v 0.00304697 -0.03271105 0.04883261
v 0.00313690 -0.03241749 0.04883261
v 0.00327541 -0.03194885 0.04883261
v 0.00327541 -0.03025420 0.04883261
v 0.00325061 -0.02992007 0.04883261
v 0.00620273 -0.03127206 0.05876375
v 0.00070058 -0.02856435 0.04883261
v 0.00562905 -0.03401713 0.05787329
v 0.00620273 -0.03373478 0.05876375
v 0.00620273 -0.03320210 0.05296702
v 0.00304181 -0.02906341 0.04883261
v 0.00620273 -0.03126352 0.05862668
v 0.00289399 -0.02886272 0.04883261
v 0.00239370 -0.02863748 0.04883261
v 0.00189548 -0.02858677 0.04883261
v 0.00154714 -0.02856489 0.04883261
v 0.00620273 -0.03131583 0.05521066
v 0.00620273 -0.03125498 0.05848767
v 0.00620273 -0.03115197 0.05679327
v 0.00620273 -0.03115410 0.05594558
f 1 2 8
f 1 8 3
f 1 3 10
f 1 10 21
f 1 21 32
f 1 32 51
f 1 51 69
f 1 69 83
f 1 83 96
f 1 96 105
f 1 105 104
f 1 104 103
f 1 103 102
f 1 102 100
f 1 100 94
f 1 94 93
f 1 93 92
f 1 92 91
f 1 91 90
f 1 90 87
f 1 87 77
f 1 77 61
f 1 61 42
f 1 42 22
f 1 22 11
f 1 11 4
f 1 4 5
f 1 5 2
f 2 6 7
f 2 7 8
f 2 5 9
f 2 9 6
f 3 8 10
f 4 11 12
f 4 12 5
f 5 12 9
f 6 13 7
f 6 9 14
f 6 14 15
f 6 15 16
f 6 16 13
f 7 13 17
f 7 17 18
f 7 18 19
f 7 19 10
f 7 10 8
f 9 12 20
f 9 20 14
f 10 19 21
f 11 22 23
f 11 23 12
f 12 24 20
f 12 23 25
f 12 25 24
f 13 16 26
f 13 26 27
f 13 27 17
f 14 20 15
f 15 20 28
f 15 28 29
f 15 29 30
f 15 30 31
f 15 31 26
f 15 26 16
f 17 32 21
f 17 21 18
f 17 27 33
f 17 33 34
f 17 34 35
f 17 35 36
f 17 36 37
f 17 37 38
f 17 38 32
f 18 21 19
f 20 24 39
f 20 39 40
f 20 40 41
f 20 41 28
f 22 42 43
f 22 43 25
f 22 25 23
f 24 25 39
f 25 43 63
f 25 63 62
f 25 62 80
f 25 80 79
f 25 79 78
f 25 78 89
f 25 89 97
f 25 97 84
f 25 84 74
f 25 74 58
f 25 58 41
f 25 41 40
f 25 40 39
f 26 31 44
f 26 44 27
f 27 44 33
f 28 45 29
f 28 41 45
f 29 45 30
f 30 46 31
f 30 45 47
f 30 47 48
f 30 48 49
f 30 49 46
f 31 46 50
f 31 50 44
f 32 38 37
f 32 37 51
f 33 44 50
f 33 50 34
f 34 50 52
f 34 52 53
f 34 53 36
f 34 36 35
f 36 53 70
f 36 70 68
f 36 68 81
f 36 81 67
f 36 67 66
f 36 66 73
f 36 73 76
f 36 76 75
f 36 75 86
f 36 86 85
f 36 85 98
f 36 98 95
f 36 95 82
f 36 82 72
f 36 72 57
f 36 57 54
f 36 54 55
f 36 55 37
f 37 56 51
f 37 55 57
f 37 57 56
f 41 58 59
f 41 59 60
f 41 60 45
f 42 61 62
f 42 62 63
f 42 63 43
f 45 60 47
f 46 49 64
f 46 64 65
f 46 65 50
f 47 60 59
f 47 59 66
f 47 66 67
f 47 67 48
f 48 67 49
f 49 67 64
f 50 65 64
f 50 64 68
f 50 68 52
f 51 56 69
f 52 68 70
f 52 70 71
f 52 71 53
f 53 71 70
f 54 57 55
f 56 57 72
f 56 72 69
f 58 73 59
f 58 74 75
f 58 75 76
f 58 76 73
f 59 73 66
f 61 77 78
f 61 78 79
f 61 79 80
f 61 80 62
f 64 67 81
f 64 81 68
f 69 72 82
f 69 82 83
f 74 84 85
f 74 85 86
f 74 86 75
f 77 87 78
f 78 88 99
f 78 99 106
f 78 106 109
f 78 109 108
f 78 108 107
f 78 107 101
f 78 101 95
f 78 95 98
f 78 98 89
f 78 87 90
f 78 90 91
f 78 91 92
f 78 92 93
f 78 93 94
f 78 94 88
f 82 95 83
f 83 95 96
f 84 97 98
f 84 98 85
f 88 94 99
f 89 98 97
f 94 100 99
f 95 101 102
f 95 102 103
f 95 103 104
f 95 104 105
f 95 105 96
f 99 100 106
f 100 102 106
f 101 107 102
f 102 107 108
f 102 108 109
f 102 109 106

