# https://github.com/mikedh/trimesh
v 0.00154727 0.03771902 0.03661803
v 0.00154727 0.03769934 0.03645599
v 0.00105731 0.03713627 0.03249946
v 0.00095365 0.03718082 0.03306685
v 0.00084303 0.03724680 0.03391426
v 0.00078859 0.03730582 0.03476116
v 0.00076774 0.03735791 0.03560858
v 0.00075558 0.03741983 0.03661803
v 0.00239515 0.03770802 0.03661803
v 0.00154727 0.03749217 0.03476116
v 0.00324245 0.03769703 0.03661803
v 0.00154727 0.03737353 0.03391426
v 0.00154727 0.03724101 0.03306685
v 0.00154727 0.03697481 0.03137201
v 0.00154727 0.03695687 0.03126136
v 0.00075036 0.03661485 0.03126136
v 0.00046484 0.03669008 0.03391426
v 0.00041040 0.03669008 0.03476116
v 0.00038955 0.03669008 0.03560858
v 0.00045094 0.03683765 0.03661803
v 0.00324245 0.03746728 0.03476116
v 0.00408916 0.03767446 0.03661803
v 0.00324245 0.03734865 0.03391426
v 0.00324245 0.03713106 0.03253459
v 0.00324245 0.03694761 0.03137201
v 0.00165847 0.03695513 0.03126136
v 0.00070172 0.03652168 0.03126136
v 0.00039129 0.03584286 0.03126136
v 0.00038029 0.03669008 0.03645599
v 0.00038203 0.03669008 0.03661803
v 0.00408916 0.03754946 0.03560858
v 0.00408916 0.03744356 0.03476116
v 0.00493646 0.03763279 0.03661803
v 0.00408916 0.03732261 0.03391426
v 0.00385519 0.03712295 0.03258388
v 0.00408916 0.03691983 0.03137201
v 0.00324245 0.03692967 0.03126136
v 0.00039187 0.03584286 0.03137201
v 0.00043299 0.03571324 0.03126136
v 0.00039882 0.03584286 0.03221943
v 0.00041793 0.03584286 0.03306685
v 0.00047874 0.03584286 0.03391426
v 0.00067855 0.03604309 0.03661803
v 0.00493646 0.03740073 0.03476116
v 0.00629630 0.03755814 0.03661803
v 0.00411812 0.03717620 0.03299920
v 0.00493646 0.03727805 0.03391426
v 0.00441986 0.03710907 0.03267198
v 0.00411812 0.03706045 0.03226872
v 0.00493646 0.03687006 0.03137201
v 0.00419978 0.03689495 0.03126136
v 0.00408916 0.03690131 0.03126136
v 0.00075500 0.03509460 0.03126136
v 0.00079612 0.03523523 0.03306685
v 0.00075036 0.03590305 0.03661803
v 0.00629630 0.03742967 0.03560858
v 0.00629630 0.03732145 0.03476116
v 0.00629630 0.03181741 0.03661803
v 0.00629630 0.03719298 0.03388490
v 0.00493646 0.03685154 0.03126136
v 0.00629630 0.03678152 0.03137201
v 0.00510210 0.03191463 0.03126136
v 0.00513221 0.03192389 0.03661803
v 0.00085693 0.03529599 0.03391426
v 0.00096465 0.03535675 0.03476116
v 0.00578376 0.03181741 0.03661803
v 0.00629630 0.03180757 0.03126136
v 0.00629630 0.03676242 0.03126136
v 0.00567024 0.03182204 0.03126136
v 0.00525673 0.03190306 0.03661803
v 0.00578376 0.03180757 0.03126136
f 1 2 3
f 1 3 4
f 1 4 5
f 1 5 6
f 1 6 7
f 1 7 8
f 1 8 20
f 1 20 30
f 1 30 43
f 1 43 55
f 1 55 63
f 1 63 70
f 1 70 66
f 1 66 58
f 1 58 45
f 1 45 33
f 1 33 22
f 1 22 11
f 1 11 9
f 1 9 2
f 2 10 3
f 2 9 11
f 2 11 10
f 3 10 12
f 3 12 13
f 3 13 14
f 3 14 15
f 3 15 16
f 3 16 4
f 4 16 5
f 5 16 17
f 5 17 6
f 6 17 18
f 6 18 7
f 7 18 8
f 8 18 19
f 8 19 20
f 10 11 21
f 10 21 23
f 10 23 12
f 11 22 21
f 12 23 13
f 13 23 14
f 14 23 24
f 14 24 25
f 14 25 26
f 14 26 15
f 15 26 37
f 15 37 52
f 15 52 51
f 15 51 60
f 15 60 68
f 15 68 67
f 15 67 71
f 15 71 69
f 15 69 62
f 15 62 53
f 15 53 39
f 15 39 28
f 15 28 27
f 15 27 16
f 16 27 17
f 17 27 28
f 17 28 18
f 18 28 19
f 19 28 29
f 19 29 20
f 20 29 30
f 21 22 31
f 21 31 32
f 21 32 23
f 22 33 31
f 23 32 34
f 23 34 35
f 23 35 24
f 24 35 25
f 25 35 36
f 25 36 37
f 25 37 26
f 28 38 29
f 28 39 38
f 29 38 40
f 29 40 30
f 30 40 41
f 30 41 42
f 30 42 43
f 31 33 32
f 32 33 44
f 32 44 34
f 33 45 44
f 34 46 36
f 34 36 35
f 34 44 47
f 34 47 48
f 34 48 46
f 36 46 49
f 36 49 48
f 36 48 50
f 36 50 51
f 36 51 52
f 36 52 37
f 38 39 40
f 39 53 41
f 39 41 40
f 41 53 54
f 41 54 42
f 42 54 55
f 42 55 43
f 44 45 56
f 44 56 57
f 44 57 47
f 45 58 67
f 45 67 68
f 45 68 61
f 45 61 59
f 45 59 57
f 45 57 56
f 46 48 49
f 47 50 48
f 47 57 59
f 47 59 50
f 50 60 51
f 50 59 61
f 50 61 60
f 53 62 63
f 53 63 54
f 54 64 55
f 54 63 64
f 55 64 65
f 55 65 63
f 58 66 71
f 58 71 67
f 60 61 68
f 62 69 70
f 62 70 63
f 63 65 64
f 66 69 71
f 66 70 69

