# https://github.com/mikedh/trimesh
v 0.01462703 0.02156268 0.05876279
v 0.01464708 0.02143107 0.05876279
v 0.01462703 0.02228219 0.05875087
v 0.01462631 -0.00796790 0.05876279
v 0.01510676 0.01719737 0.05876279
v 0.01462703 0.02312893 0.05873598
v 0.01462703 0.02397567 0.05871661
v 0.01462703 0.02411606 0.05870320
v 0.01462703 0.02415116 0.05869873
v 0.01462631 -0.00796790 0.05525021
v 0.01462631 -0.02066900 0.05876279
v 0.01518337 0.01380602 0.05876279
v 0.01574974 0.01211255 0.05842762
v 0.01573900 0.01295928 0.05841868
v 0.01569246 0.01719737 0.05835761
v 0.01510676 0.01804411 0.05874342
v 0.01510676 0.01889085 0.05872257
v 0.01510676 0.01973759 0.05869873
v 0.01510676 0.02058872 0.05867043
v 0.01510676 0.02143107 0.05863617
v 0.01510676 0.02228219 0.05860042
v 0.01510676 0.02312893 0.05856318
v 0.01510676 0.02397567 0.05852147
v 0.01465209 0.02415116 0.05868980
v 0.01462703 0.02415116 0.05355947
v 0.01462631 -0.02066900 0.05562411
v 0.01475877 -0.02066900 0.05876279
v 0.01520127 0.01295928 0.05876279
v 0.01575547 0.01126581 0.05843358
v 0.01576979 0.00956794 0.05844252
v 0.01581203 0.00533424 0.05845443
v 0.01897681 -0.01329842 0.05391251
v 0.01896894 -0.01245606 0.05390208
v 0.01927396 -0.01245606 0.05340454
v 0.01568458 0.01804411 0.05834122
v 0.01567098 0.01889085 0.05832037
v 0.01565522 0.01973759 0.05829653
v 0.01563661 0.02058872 0.05826674
v 0.01561656 0.02143107 0.05823397
v 0.01557789 0.02312893 0.05816097
v 0.01512251 0.02415116 0.05849614
v 0.01737079 0.02415116 0.04354609
v 0.01462703 0.02410729 0.05356096
v 0.01931048 -0.01075820 0.04354609
v 0.01728917 -0.02066900 0.05072617
v 0.01835030 0.00363638 0.04354609
v 0.01510676 -0.02066900 0.05868235
v 0.01510676 -0.02008111 0.05870022
v 0.01479457 -0.02039260 0.05876279
v 0.01521559 0.01211255 0.05876279
v 0.01582062 0.00448750 0.05845592
v 0.01898039 -0.01414954 0.05391847
v 0.01929616 -0.01414954 0.05340454
v 0.01928828 -0.01329842 0.05340454
v 0.01964557 -0.01245606 0.05276251
v 0.01963626 -0.01160932 0.05274165
v 0.01986109 -0.01160932 0.05231859
v 0.01984247 -0.01076258 0.05228433
v 0.01555641 0.02397567 0.05811926
v 0.02007017 -0.00991146 0.05170933
v 0.01555212 0.02415116 0.05810884
v 0.01959187 0.02415116 0.04354609
v 0.01957755 -0.01145577 0.04354609
v 0.01771806 -0.02066900 0.05010498
v 0.01528433 -0.02066900 0.05855573
v 0.01569604 -0.01923437 0.05832037
v 0.01571322 -0.01838763 0.05834122
v 0.01572897 -0.01753650 0.05836059
v 0.01510676 -0.01838763 0.05874491
v 0.01574115 -0.01669415 0.05837548
v 0.01510676 -0.01763302 0.05876279
v 0.01522633 0.01126581 0.05876279
v 0.01523564 0.01041907 0.05876279
v 0.01524352 0.00956794 0.05876279
v 0.01525068 0.00872120 0.05876279
v 0.01582707 0.00364076 0.05845592
v 0.01867967 -0.01499628 0.05433706
v 0.01897610 -0.01499628 0.05391400
v 0.01929186 -0.01499628 0.05340454
v 0.01583065 0.00279402 0.05845592
v 0.01583638 0.00110932 0.05845741
v 0.01585141 -0.00397989 0.05845741
v 0.01585141 -0.00482225 0.05845741
v 0.01584926 -0.00566898 0.05845592
v 0.01584354 -0.00737124 0.05845443
v 0.01965703 -0.01414954 0.05277145
v 0.01965273 -0.01329842 0.05277145
v 0.01987040 -0.01245606 0.05233796
v 0.02013604 -0.01160932 0.05170933
v 0.02010740 -0.01076258 0.05170933
v 0.02042889 -0.00991146 0.05086470
v 0.02038879 -0.00906472 0.05086470
v 0.02066875 0.00110054 0.04898328
v 0.02050837 0.00110932 0.04935569
v 0.01574616 0.02415116 0.05765301
v 0.01576263 0.02397567 0.05763960
v 0.01951884 0.02415116 0.04408385
v 0.01962409 0.02394058 0.04354609
v 0.01974438 -0.01164442 0.04354609
v 0.01847560 -0.02066900 0.04975194
v 0.01995202 -0.01185501 0.04354609
v 0.02037948 -0.01225864 0.04354609
v 0.01566453 -0.02066900 0.05828014
v 0.01567814 -0.02008111 0.05829653
v 0.01820925 -0.01838763 0.05486141
v 0.01822715 -0.01753650 0.05488227
v 0.01824147 -0.01669415 0.05490163
v 0.01511034 -0.01753650 0.05876279
v 0.01825077 -0.01584741 0.05491504
v 0.01575189 -0.01584741 0.05838591
v 0.01525640 0.00787885 0.05876279
v 0.01526786 0.00618537 0.05876279
v 0.01527359 0.00533424 0.05876279
v 0.01527788 0.00448750 0.05876279
v 0.01867394 -0.01584741 0.05432514
v 0.01583995 -0.00822236 0.05844996
v 0.01583494 -0.00906472 0.05844549
v 0.01582707 -0.00991146 0.05844103
v 0.01896822 -0.01584741 0.05390208
v 0.01927467 -0.01584741 0.05340454
v 0.01965703 -0.01499628 0.05276251
v 0.01528003 0.00364076 0.05876279
v 0.01528361 0.00194728 0.05876279
v 0.01528862 -0.00312877 0.05876279
v 0.01528934 -0.00397989 0.05876279
v 0.01528791 -0.00546717 0.05876279
v 0.01528504 -0.00631391 0.05876279
v 0.01584568 -0.00652011 0.05845592
v 0.01528075 -0.00716504 0.05876279
v 0.01527574 -0.00796790 0.05876279
v 0.01526714 -0.00888045 0.05876279
v 0.01525784 -0.00973597 0.05876279
v 0.01524638 -0.01060025 0.05876279
v 0.01987326 -0.01329842 0.05234839
v 0.02014678 -0.01245606 0.05170933
v 0.02044750 -0.01076258 0.05086470
v 0.02060145 -0.00991146 0.05040440
v 0.02069167 0.00110054 0.04892966
v 0.01608268 0.02415116 0.05679199
v 0.01609772 0.02397567 0.05679199
v 0.01940356 0.02415116 0.04493146
v 0.01942790 0.02397567 0.04493146
v 0.01972004 0.02322545 0.04354609
v 0.02103679 -0.01253942 0.04354609
v 0.02156592 -0.01234638 0.04354609
v 0.01936203 -0.02066900 0.05006625
v 0.02069596 -0.01240342 0.04354609
v 0.01813550 -0.02066900 0.05476161
v 0.01818419 -0.01923437 0.05482864
v 0.01868325 -0.01836569 0.05417171
v 0.01865031 -0.01753650 0.05427896
v 0.01866391 -0.01669415 0.05430578
v 0.01576263 -0.01499628 0.05839634
v 0.01577337 -0.01414954 0.05840527
v 0.01578411 -0.01329842 0.05841421
v 0.01580487 -0.01160932 0.05842911
v 0.01513325 -0.01665905 0.05876279
v 0.01581633 -0.01076258 0.05843507
v 0.01523278 -0.01145577 0.05876279
v 0.01521845 -0.01232006 0.05876279
v 0.01520342 -0.01317996 0.05876279
v 0.01516977 -0.01491731 0.05876279
v 0.01515187 -0.01578599 0.05876279
v 0.01895533 -0.01669415 0.05388272
v 0.01964843 -0.01584741 0.05273123
v 0.01924532 -0.01669415 0.05340454
v 0.01985823 -0.01499628 0.05233796
v 0.01986825 -0.01414954 0.05234690
v 0.02013890 -0.01329842 0.05170933
v 0.02045037 -0.01160932 0.05086470
v 0.02060574 -0.01076258 0.05041483
v 0.02072246 -0.00991146 0.04998134
v 0.02093439 -0.00822236 0.04916949
v 0.02093082 -0.00796790 0.04916949
v 0.02092079 -0.00737124 0.04916949
v 0.02125875 -0.00059293 0.04747279
v 0.02097521 -0.00059293 0.04832039
v 0.02091363 0.00110054 0.04832039
v 0.02066159 0.00194728 0.04886113
v 0.01646002 0.02415116 0.05574775
v 0.01631539 0.02397567 0.05619613
v 0.01646933 0.02397567 0.05577308
v 0.01928613 0.02415116 0.04577906
v 0.01930976 0.02397567 0.04577906
v 0.01951955 0.02227781 0.04577906
v 0.01977302 0.02279112 0.04354609
v 0.02165256 -0.01191643 0.04354609
v 0.02147570 -0.01289917 0.04441902
v 0.01976944 -0.02051983 0.05042377
v 0.01959473 -0.02066900 0.05031056
v 0.01824791 -0.02066900 0.05459328
v 0.01857656 -0.01923437 0.05425066
v 0.01892454 -0.01808052 0.05383952
v 0.01893672 -0.01753650 0.05385740
v 0.01983961 -0.01584741 0.05230668
v 0.01920522 -0.01753650 0.05340454
v 0.01963125 -0.01669415 0.05267462
v 0.02011742 -0.01414954 0.05170933
v 0.02044035 -0.01245606 0.05086470
v 0.02071744 -0.01076258 0.04999177
v 0.02059787 -0.01160932 0.05038355
v 0.02093869 -0.00906472 0.04916949
v 0.02098308 -0.00803371 0.04898328
v 0.02114347 -0.00652011 0.04832039
v 0.02143847 -0.00143529 0.04694247
v 0.02142916 -0.00059293 0.04691119
v 0.02119431 0.00110054 0.04747279
v 0.02085492 0.00194728 0.04832039
v 0.01668843 0.02415116 0.05509678
v 0.01670705 0.02397567 0.05509678
v 0.01913863 0.02415116 0.04663859
v 0.01916441 0.02397567 0.04662518
v 0.01926966 0.02312455 0.04662518
v 0.01937420 0.02227781 0.04662518
v 0.01947516 0.02143107 0.04662518
v 0.01961764 0.02143107 0.04577906
v 0.01972648 0.02147933 0.04494784
v 0.01975870 0.02179082 0.04445328
v 0.01982601 0.02227781 0.04354609
v 0.02168836 -0.01160932 0.04354609
v 0.02147570 -0.01289917 0.04468120
v 0.01976944 -0.02051983 0.05049527
v 0.01971431 -0.02066900 0.05063381
v 0.01847489 -0.02066900 0.05425066
v 0.01851713 -0.02008111 0.05425066
v 0.01890736 -0.01864209 0.05381122
v 0.01911644 -0.01836569 0.05347903
v 0.02008377 -0.01499628 0.05170933
v 0.01981240 -0.01669415 0.05225007
v 0.01912932 -0.01923437 0.05335241
v 0.01960977 -0.01753650 0.05260461
v 0.02041027 -0.01329842 0.05086470
v 0.02058713 -0.01245606 0.05032843
v 0.02091077 -0.01076258 0.04916949
v 0.02093010 -0.00991146 0.04916949
v 0.02070456 -0.01160932 0.04995900
v 0.02098523 -0.00888045 0.04898328
v 0.02115421 -0.00737124 0.04832039
v 0.02152439 -0.00143529 0.04651941
v 0.02166688 -0.00059293 0.04577906
v 0.02152153 -0.00059293 0.04648664
v 0.02144992 -0.00397989 0.04699461
v 0.02150792 0.00025380 0.04641365
v 0.02141269 0.00025380 0.04683820
v 0.02139551 0.00110054 0.04674882
v 0.02113416 0.00194728 0.04747279
v 0.01808251 0.02282621 0.05131904
v 0.01796508 0.02228219 0.05181212
v 0.01757271 0.02397567 0.05255694
v 0.01699632 0.02397567 0.05425066
v 0.01697699 0.02415116 0.05425066
v 0.01897824 0.02415116 0.04740426
v 0.01898898 0.02393619 0.04748619
v 0.01909281 0.02312455 0.04747279
v 0.01919735 0.02227781 0.04747279
v 0.01930117 0.02143107 0.04747279
v 0.02147069 0.00163140 0.04625128
v 0.02152654 0.00192535 0.04580736
v 0.02149002 0.00279402 0.04550944
v 0.02165614 0.00194728 0.04493146
v 0.01978734 0.02122486 0.04467673
v 0.01991049 0.02144862 0.04354609
v 0.02185734 -0.00652011 0.04354609
v 0.02178144 -0.00737124 0.04408385
v 0.02169552 -0.00991146 0.04408385
v 0.02163752 -0.01160932 0.04408385
v 0.02149647 -0.01242096 0.04495082
v 0.02144205 -0.01267981 0.04524726
v 0.02063224 -0.01633439 0.04884624
v 0.02020478 -0.01838763 0.05001710
v 0.01982601 -0.02008988 0.05081108
v 0.01974581 -0.02037505 0.05105985
v 0.01963411 -0.02066900 0.05140097
v 0.01858086 -0.02066900 0.05408531
v 0.01888731 -0.01923437 0.05377695
v 0.02003651 -0.01584741 0.05170933
v 0.02036803 -0.01414954 0.05086470
v 0.01978376 -0.01753650 0.05218006
v 0.01885652 -0.02008111 0.05372184
v 0.01883504 -0.02066900 0.05368013
v 0.01909281 -0.02008111 0.05329878
v 0.01950165 -0.01923437 0.05255694
v 0.01960762 -0.01831743 0.05247650
v 0.02056780 -0.01329842 0.05023607
v 0.02068379 -0.01245606 0.04990537
v 0.02087998 -0.01160932 0.04916949
v 0.02110982 -0.00991146 0.04832039
v 0.02113345 -0.00906472 0.04832039
v 0.02114992 -0.00821798 0.04832039
v 0.02134252 -0.00652011 0.04747279
v 0.02134396 -0.00567337 0.04747279
v 0.02153155 -0.00397989 0.04657155
v 0.02166974 -0.00143529 0.04577906
v 0.02179433 -0.00059293 0.04493146
v 0.02163895 0.00025380 0.04577906
v 0.02144778 -0.00567337 0.04697673
v 0.02148716 0.00110054 0.04632576
v 0.02137260 0.00192535 0.04657006
v 0.01909997 0.02143107 0.04832039
v 0.01895462 0.02143107 0.04887454
v 0.01892454 0.02143107 0.04898328
v 0.01883647 0.02143107 0.04929909
v 0.01887299 0.02058872 0.04943316
v 0.01862095 0.02143107 0.05001710
v 0.01805602 0.02338778 0.05123562
v 0.01784909 0.02397567 0.05170933
v 0.01755266 0.02415116 0.05255694
v 0.01890879 0.02415116 0.04772900
v 0.01892812 0.02362469 0.04793755
v 0.01881786 0.02393619 0.04826081
v 0.01938208 0.02058872 0.04747279
v 0.01886368 0.02312455 0.04849617
v 0.01889805 0.02250594 0.04865407
v 0.02159384 0.00110054 0.04577906
v 0.02174779 0.00194728 0.04408385
v 0.02176068 0.00248253 0.04354609
v 0.02173275 0.00279402 0.04354609
v 0.02167117 0.00279402 0.04408385
v 0.01999713 0.02058872 0.04354609
v 0.02171557 0.00110054 0.04493146
v 0.02187381 -0.00598487 0.04354609
v 0.02180865 -0.00652011 0.04408385
v 0.02169767 -0.00737124 0.04493146
v 0.02166974 -0.00821798 0.04493146
v 0.02164039 -0.00906472 0.04493146
v 0.02161031 -0.00991146 0.04493146
v 0.02157809 -0.01075820 0.04493146
v 0.02154372 -0.01160932 0.04493146
v 0.02146425 -0.01211824 0.04538282
v 0.02139837 -0.01242096 0.04571054
v 0.02109478 -0.01330280 0.04747279
v 0.02065873 -0.01584741 0.04898328
v 0.02031218 -0.01753650 0.05001710
v 0.01996205 -0.01923437 0.05086470
v 0.01978806 -0.01980910 0.05138012
v 0.01957898 -0.02066900 0.05170039
v 0.02031862 -0.01499628 0.05086470
v 0.01976729 -0.01798839 0.05213835
v 0.01997852 -0.01669415 0.05170933
v 0.01890808 -0.02066900 0.05354755
v 0.01906488 -0.02066900 0.05325558
v 0.01916799 -0.02066900 0.05302617
v 0.01942361 -0.02008111 0.05255694
v 0.02054274 -0.01414954 0.05011690
v 0.02066016 -0.01329842 0.04981302
v 0.02083702 -0.01245606 0.04916949
v 0.02091578 -0.01160932 0.04898328
v 0.02092366 -0.01142067 0.04898328
v 0.02107760 -0.01075820 0.04832039
v 0.02129097 -0.00906472 0.04747279
v 0.02131531 -0.00821798 0.04747279
v 0.02133250 -0.00737124 0.04747279
v 0.02144563 -0.00652011 0.04695141
v 0.02166401 -0.00397989 0.04577906
v 0.02166831 -0.00313315 0.04577906
v 0.02152869 -0.00482663 0.04656261
v 0.02179648 -0.00143529 0.04493146
v 0.02188741 -0.00143529 0.04408385
v 0.02187810 -0.00059293 0.04408385
v 0.02176354 0.00025380 0.04493146
v 0.01892741 0.02193999 0.04877622
v 0.01885008 0.02213303 0.04898328
v 0.01889161 0.02174256 0.04898328
v 0.01880425 0.02224710 0.04910394
v 0.01835818 0.02397567 0.05001710
v 0.01844839 0.02312893 0.05001710
v 0.01853718 0.02228219 0.05001710
v 0.01802595 0.02397567 0.05113582
v 0.01782761 0.02415116 0.05170933
v 0.01888015 0.02415116 0.04785711
v 0.01863527 0.02401077 0.04898328
v 0.01864100 0.02396690 0.04898328
v 0.01878564 0.02415116 0.04827421
v 0.01857226 0.02415116 0.04916949
v 0.01859518 0.02397567 0.04916949
v 0.01869041 0.02312893 0.04916949
v 0.02180364 0.00194728 0.04354609
v 0.02182154 0.00164018 0.04354609
v 0.02188311 -0.00567337 0.04354609
v 0.02183442 -0.00567337 0.04408385
v 0.02172273 -0.00652011 0.04493146
v 0.02159599 -0.00737124 0.04577906
v 0.02157022 -0.00821798 0.04577906
v 0.02154086 -0.00906472 0.04577906
v 0.02150363 -0.00985881 0.04581630
v 0.02126949 -0.01245606 0.04662518
v 0.02146281 -0.00954293 0.04622000
v 0.02094728 -0.01330280 0.04832039
v 0.02089859 -0.01414954 0.04832039
v 0.02113917 -0.01245606 0.04747279
v 0.02104037 -0.01160932 0.04832039
v 0.02099526 -0.01245606 0.04832039
v 0.02067806 -0.01495680 0.04921120
v 0.02059787 -0.01522003 0.04952253
v 0.02057567 -0.01584741 0.04940485
v 0.02038378 -0.01669415 0.05001710
v 0.02073463 -0.01475498 0.04898328
v 0.02005227 -0.01838763 0.05086470
v 0.01982028 -0.01923437 0.05150376
v 0.01971288 -0.01923437 0.05192831
v 0.01967922 -0.02008988 0.05168103
v 0.01943721 -0.02066900 0.05228284
v 0.02025991 -0.01584741 0.05086470
v 0.02052698 -0.01495680 0.04994708
v 0.01991479 -0.01753650 0.05170933
v 0.01974295 -0.01855434 0.05204748
v 0.01984176 -0.01831743 0.05174359
v 0.01935702 -0.02066900 0.05255694
v 0.02061792 -0.01465408 0.04961936
v 0.02063439 -0.01414954 0.04969384
v 0.02078904 -0.01329842 0.04916949
v 0.02082413 -0.01330280 0.04898328
v 0.02087210 -0.01245606 0.04898328
v 0.02088213 -0.01227180 0.04898328
v 0.02125803 -0.00991146 0.04747279
v 0.02140983 -0.00906472 0.04670860
v 0.02142343 -0.00821798 0.04680692
v 0.02143632 -0.00737124 0.04689183
v 0.02151150 -0.00652011 0.04652835
v 0.02152224 -0.00567337 0.04655219
v 0.02179003 -0.00313315 0.04493146
v 0.02179504 -0.00228203 0.04493146
v 0.02165399 -0.00482663 0.04577906
v 0.02188956 -0.00228203 0.04408385
v 0.02194111 -0.00228203 0.04354609
v 0.02193825 -0.00143529 0.04354609
v 0.02192751 -0.00059293 0.04354609
v 0.02190817 -0.00004892 0.04354609
v 0.02189672 0.00025380 0.04354609
v 0.02193180 -0.00090004 0.04354609
v 0.02186736 0.00079782 0.04354609
v 0.01815196 0.02397567 0.05071276
v 0.01833097 0.02415116 0.05003199
v 0.01814122 0.02415116 0.05067701
v 0.01804671 0.02415116 0.05099430
v 0.02189815 -0.00513374 0.04354609
v 0.02185519 -0.00482663 0.04408385
v 0.02161819 -0.00652011 0.04577906
v 0.02174349 -0.00567337 0.04493146
v 0.02150076 -0.00737124 0.04646728
v 0.02148787 -0.00821798 0.04638237
v 0.02147284 -0.00906472 0.04628405
v 0.02139909 -0.00985881 0.04655070
v 0.02122009 -0.01075820 0.04747279
v 0.02118070 -0.01160932 0.04747279
v 0.02077401 -0.01414954 0.04898328
v 0.02073821 -0.01414954 0.04916949
v 0.02044965 -0.01584741 0.05001710
v 0.02019332 -0.01669415 0.05086470
v 0.02012458 -0.01753650 0.05086470
v 0.02163752 -0.00567337 0.04577906
v 0.02177571 -0.00397989 0.04493146
v 0.02187094 -0.00397989 0.04408385
v 0.02188383 -0.00313315 0.04408385
v 0.02175996 -0.00482663 0.04493146
v 0.02193538 -0.00313315 0.04354609
v 0.02190531 -0.00482663 0.04354609
v 0.02192249 -0.00397989 0.04354609
f 1 2 3
f 1 3 4
f 1 4 11
f 1 11 27
f 1 27 49
f 1 49 71
f 1 71 108
f 1 108 157
f 1 157 163
f 1 163 162
f 1 162 161
f 1 161 160
f 1 160 159
f 1 159 133
f 1 133 132
f 1 132 131
f 1 131 130
f 1 130 129
f 1 129 127
f 1 127 126
f 1 126 125
f 1 125 124
f 1 124 123
f 1 123 122
f 1 122 114
f 1 114 113
f 1 113 112
f 1 112 111
f 1 111 75
f 1 75 74
f 1 74 73
f 1 73 72
f 1 72 50
f 1 50 28
f 1 28 12
f 1 12 5
f 1 5 2
f 2 5 6
f 2 6 3
f 3 6 4
f 4 6 7
f 4 7 8
f 4 8 9
f 4 9 25
f 4 25 10
f 4 10 26
f 4 26 11
f 5 12 13
f 5 13 14
f 5 14 15
f 5 15 16
f 5 16 7
f 5 7 6
f 7 16 17
f 7 17 18
f 7 18 19
f 7 19 20
f 7 20 21
f 7 21 22
f 7 22 23
f 7 23 24
f 7 24 8
f 8 24 9
f 9 24 41
f 9 41 61
f 9 61 95
f 9 95 139
f 9 139 180
f 9 180 209
f 9 209 251
f 9 251 307
f 9 307 369
f 9 369 435
f 9 435 434
f 9 434 433
f 9 433 374
f 9 374 373
f 9 373 370
f 9 370 308
f 9 308 252
f 9 252 211
f 9 211 183
f 9 183 141
f 9 141 97
f 9 97 62
f 9 62 42
f 9 42 25
f 10 25 26
f 11 26 45
f 11 45 64
f 11 64 100
f 11 100 146
f 11 146 190
f 11 190 223
f 11 223 273
f 11 273 336
f 11 336 402
f 11 402 408
f 11 408 342
f 11 342 341
f 11 341 340
f 11 340 280
f 11 280 274
f 11 274 224
f 11 224 191
f 11 191 148
f 11 148 103
f 11 103 65
f 11 65 47
f 11 47 27
f 12 28 13
f 13 28 29
f 13 29 30
f 13 30 31
f 13 31 32
f 13 32 33
f 13 33 34
f 13 34 14
f 14 34 15
f 15 35 17
f 15 17 16
f 15 34 35
f 17 35 18
f 18 35 19
f 19 35 36
f 19 36 20
f 20 36 21
f 21 36 37
f 21 37 22
f 22 37 23
f 23 37 38
f 23 38 39
f 23 39 40
f 23 40 41
f 23 41 24
f 25 42 43
f 25 43 26
f 26 44 45
f 26 43 42
f 26 42 46
f 26 46 44
f 27 47 48
f 27 48 49
f 28 50 29
f 29 50 30
f 30 50 31
f 31 50 51
f 31 51 32
f 32 52 53
f 32 53 54
f 32 54 33
f 32 51 52
f 33 54 34
f 34 54 55
f 34 55 35
f 35 55 56
f 35 56 36
f 36 56 57
f 36 57 37
f 37 57 38
f 38 57 58
f 38 58 39
f 39 58 40
f 40 59 41
f 40 58 60
f 40 60 59
f 41 59 61
f 42 62 98
f 42 98 143
f 42 143 186
f 42 186 219
f 42 219 262
f 42 262 319
f 42 319 317
f 42 317 316
f 42 316 377
f 42 377 378
f 42 378 431
f 42 431 429
f 42 429 428
f 42 428 427
f 42 427 430
f 42 430 426
f 42 426 425
f 42 425 456
f 42 456 458
f 42 458 457
f 42 457 436
f 42 436 379
f 42 379 321
f 42 321 263
f 42 263 220
f 42 220 187
f 42 187 145
f 42 145 144
f 42 144 147
f 42 147 102
f 42 102 101
f 42 101 99
f 42 99 63
f 42 63 44
f 42 44 46
f 44 63 64
f 44 64 45
f 47 65 66
f 47 66 67
f 47 67 68
f 47 68 48
f 48 69 49
f 48 68 70
f 48 70 69
f 49 69 71
f 50 72 51
f 51 72 73
f 51 73 74
f 51 74 75
f 51 75 76
f 51 76 52
f 52 77 78
f 52 78 79
f 52 79 53
f 52 76 80
f 52 80 81
f 52 81 82
f 52 82 83
f 52 83 84
f 52 84 85
f 52 85 77
f 53 86 87
f 53 87 54
f 53 79 86
f 54 87 55
f 55 87 88
f 55 88 57
f 55 57 56
f 57 88 89
f 57 89 90
f 57 90 58
f 58 90 60
f 59 60 61
f 60 90 91
f 60 91 92
f 60 92 93
f 60 93 94
f 60 94 61
f 61 94 93
f 61 93 96
f 61 96 95
f 62 97 98
f 63 99 64
f 64 99 101
f 64 101 102
f 64 102 100
f 65 103 104
f 65 104 66
f 66 104 105
f 66 105 106
f 66 106 67
f 67 106 68
f 68 106 107
f 68 107 70
f 69 70 108
f 69 108 71
f 70 107 109
f 70 109 110
f 70 110 108
f 75 111 76
f 76 111 112
f 76 112 113
f 76 113 114
f 76 114 81
f 76 81 80
f 77 115 78
f 77 85 116
f 77 116 117
f 77 117 118
f 77 118 115
f 78 115 119
f 78 119 79
f 79 119 120
f 79 120 121
f 79 121 86
f 81 114 82
f 82 114 122
f 82 122 123
f 82 123 124
f 82 124 125
f 82 125 83
f 83 125 126
f 83 126 127
f 83 127 128
f 83 128 85
f 83 85 84
f 85 128 129
f 85 129 130
f 85 130 131
f 85 131 132
f 85 132 133
f 85 133 116
f 86 134 87
f 86 121 134
f 87 134 88
f 88 134 135
f 88 135 89
f 89 136 91
f 89 91 90
f 89 135 136
f 91 136 137
f 91 137 138
f 91 138 92
f 92 138 93
f 93 138 96
f 95 96 138
f 95 138 140
f 95 140 139
f 97 141 98
f 98 141 142
f 98 142 143
f 100 144 145
f 100 145 146
f 100 102 147
f 100 147 144
f 103 148 149
f 103 149 105
f 103 105 104
f 105 149 150
f 105 150 151
f 105 151 152
f 105 152 106
f 106 152 107
f 107 152 115
f 107 115 109
f 108 110 153
f 108 153 154
f 108 154 155
f 108 155 156
f 108 156 157
f 109 153 110
f 109 115 158
f 109 158 156
f 109 156 155
f 109 155 154
f 109 154 153
f 115 118 158
f 115 152 119
f 116 133 117
f 117 133 159
f 117 159 160
f 117 160 161
f 117 161 118
f 118 161 162
f 118 162 163
f 118 163 157
f 118 157 158
f 119 152 164
f 119 164 120
f 120 165 121
f 120 164 166
f 120 166 165
f 121 165 167
f 121 167 168
f 121 168 134
f 127 129 128
f 134 168 135
f 135 168 169
f 135 169 170
f 135 170 136
f 136 170 171
f 136 171 137
f 137 171 172
f 137 172 173
f 137 173 174
f 137 174 175
f 137 175 176
f 137 176 177
f 137 177 178
f 137 178 138
f 138 178 179
f 138 179 140
f 139 140 181
f 139 181 182
f 139 182 180
f 140 179 181
f 141 183 142
f 142 184 143
f 142 183 184
f 143 184 185
f 143 185 186
f 145 187 188
f 145 188 189
f 145 189 190
f 145 190 146
f 148 191 192
f 148 192 149
f 149 192 150
f 150 193 151
f 150 192 193
f 151 194 164
f 151 164 152
f 151 193 194
f 156 158 157
f 164 194 166
f 165 195 167
f 165 166 196
f 165 196 197
f 165 197 195
f 166 194 193
f 166 193 196
f 167 195 198
f 167 198 169
f 167 169 168
f 169 198 199
f 169 199 170
f 170 199 171
f 171 200 172
f 171 199 201
f 171 201 200
f 172 200 202
f 172 202 173
f 173 202 203
f 173 203 174
f 174 203 204
f 174 204 175
f 175 204 205
f 175 205 206
f 175 206 176
f 176 206 207
f 176 207 178
f 176 178 177
f 178 207 208
f 178 208 179
f 179 208 182
f 179 182 181
f 180 182 210
f 180 210 209
f 182 208 210
f 183 211 184
f 184 212 213
f 184 213 185
f 184 211 212
f 185 213 214
f 185 214 215
f 185 215 216
f 185 216 186
f 186 216 217
f 186 217 218
f 186 218 219
f 187 220 221
f 187 221 188
f 188 221 222
f 188 222 189
f 189 222 223
f 189 223 190
f 191 224 225
f 191 225 192
f 192 225 226
f 192 226 193
f 193 226 227
f 193 227 196
f 195 228 198
f 195 197 229
f 195 229 228
f 196 227 230
f 196 230 197
f 197 230 231
f 197 231 229
f 198 232 199
f 198 228 232
f 199 232 233
f 199 233 201
f 200 234 235
f 200 235 202
f 200 201 236
f 200 236 234
f 201 233 236
f 202 237 238
f 202 238 203
f 202 235 237
f 203 238 204
f 204 238 205
f 205 239 240
f 205 240 241
f 205 241 206
f 205 238 242
f 205 242 239
f 206 241 243
f 206 243 244
f 206 244 207
f 207 244 245
f 207 245 246
f 207 246 208
f 208 246 247
f 208 247 248
f 208 248 249
f 208 249 250
f 208 250 210
f 209 210 250
f 209 250 251
f 211 252 212
f 212 252 253
f 212 253 254
f 212 254 213
f 213 254 255
f 213 255 214
f 214 255 256
f 214 256 215
f 215 256 257
f 215 257 258
f 215 258 216
f 216 258 259
f 216 259 260
f 216 260 217
f 217 260 261
f 217 261 218
f 218 261 262
f 218 262 219
f 220 263 264
f 220 264 265
f 220 265 266
f 220 266 267
f 220 267 221
f 221 267 268
f 221 268 269
f 221 269 270
f 221 270 222
f 222 270 271
f 222 271 272
f 222 272 273
f 222 273 223
f 224 274 275
f 224 275 225
f 225 275 226
f 226 275 227
f 227 275 230
f 228 229 276
f 228 276 277
f 228 277 232
f 229 231 278
f 229 278 276
f 230 275 279
f 230 279 280
f 230 280 281
f 230 281 231
f 231 281 282
f 231 282 283
f 231 283 278
f 232 277 233
f 233 277 284
f 233 284 285
f 233 285 236
f 234 236 286
f 234 286 287
f 234 287 288
f 234 288 235
f 235 288 289
f 235 289 237
f 236 285 286
f 237 289 238
f 238 290 291
f 238 291 242
f 238 289 290
f 239 242 240
f 240 242 292
f 240 292 293
f 240 293 294
f 240 294 295
f 240 295 241
f 241 295 243
f 242 291 290
f 242 290 296
f 242 296 292
f 243 295 297
f 243 297 245
f 243 245 244
f 245 297 257
f 245 257 298
f 245 298 246
f 246 298 299
f 246 299 300
f 246 300 301
f 246 301 302
f 246 302 303
f 246 303 304
f 246 304 247
f 247 304 305
f 247 305 306
f 247 306 249
f 247 249 248
f 249 306 307
f 249 307 251
f 249 251 250
f 252 308 253
f 253 308 254
f 254 308 309
f 254 309 255
f 255 309 310
f 255 310 256
f 256 299 311
f 256 311 298
f 256 298 257
f 256 310 312
f 256 312 313
f 256 313 299
f 257 297 314
f 257 314 258
f 258 314 260
f 258 260 259
f 260 315 316
f 260 316 317
f 260 317 318
f 260 318 319
f 260 319 261
f 260 314 320
f 260 320 315
f 261 319 262
f 263 321 322
f 263 322 264
f 264 322 323
f 264 323 324
f 264 324 265
f 265 324 266
f 266 324 325
f 266 325 326
f 266 326 327
f 266 327 328
f 266 328 267
f 267 328 329
f 267 329 268
f 268 329 330
f 268 330 331
f 268 331 269
f 269 332 333
f 269 333 270
f 269 331 332
f 270 334 271
f 270 333 334
f 271 334 272
f 272 334 335
f 272 335 273
f 273 335 336
f 274 280 279
f 274 279 275
f 276 337 277
f 276 278 338
f 276 338 339
f 276 339 337
f 277 337 284
f 278 283 338
f 280 340 281
f 281 340 341
f 281 341 282
f 282 341 342
f 282 342 343
f 282 343 338
f 282 338 283
f 284 337 344
f 284 344 345
f 284 345 285
f 285 345 346
f 285 346 286
f 286 347 348
f 286 348 287
f 286 346 347
f 287 348 349
f 287 349 350
f 287 350 351
f 287 351 288
f 288 351 352
f 288 352 289
f 289 352 290
f 290 352 353
f 290 353 296
f 292 354 355
f 292 355 293
f 292 296 356
f 292 356 354
f 293 357 294
f 293 355 357
f 294 357 358
f 294 358 359
f 294 359 360
f 294 360 295
f 295 360 314
f 295 314 297
f 296 353 356
f 298 311 299
f 299 313 361
f 299 361 300
f 300 361 362
f 300 362 363
f 300 363 301
f 301 363 302
f 302 363 364
f 302 364 365
f 302 365 366
f 302 366 367
f 302 367 304
f 302 304 303
f 304 367 305
f 305 368 306
f 305 367 368
f 306 368 369
f 306 369 307
f 308 370 310
f 308 310 309
f 310 371 372
f 310 372 312
f 310 370 373
f 310 373 374
f 310 374 371
f 312 372 375
f 312 375 313
f 313 376 361
f 313 375 376
f 314 360 320
f 315 377 316
f 315 320 377
f 317 319 318
f 320 360 378
f 320 378 377
f 321 379 380
f 321 380 322
f 322 380 323
f 323 380 381
f 323 381 382
f 323 382 383
f 323 383 324
f 324 383 384
f 324 384 325
f 325 384 326
f 326 384 327
f 327 384 328
f 328 384 385
f 328 385 329
f 329 386 330
f 329 385 387
f 329 387 386
f 330 386 331
f 331 388 389
f 331 389 332
f 331 386 390
f 331 390 391
f 331 391 392
f 331 392 388
f 332 393 394
f 332 394 395
f 332 395 396
f 332 396 333
f 332 389 397
f 332 397 393
f 333 396 398
f 333 398 334
f 334 398 335
f 335 398 399
f 335 399 400
f 335 400 401
f 335 401 336
f 336 401 402
f 337 339 403
f 337 403 404
f 337 404 344
f 338 405 339
f 338 343 406
f 338 406 407
f 338 407 405
f 339 405 403
f 342 408 343
f 343 408 400
f 343 400 406
f 344 409 410
f 344 410 345
f 344 404 409
f 345 410 411
f 345 411 346
f 346 411 412
f 346 412 413
f 346 413 414
f 346 414 347
f 347 349 348
f 347 414 391
f 347 391 349
f 349 415 350
f 349 391 415
f 350 416 417
f 350 417 418
f 350 418 351
f 350 415 416
f 351 418 353
f 351 353 352
f 353 418 419
f 353 419 420
f 353 420 356
f 354 421 422
f 354 422 355
f 354 356 420
f 354 420 423
f 354 423 421
f 355 422 357
f 357 422 424
f 357 424 358
f 358 424 425
f 358 425 426
f 358 426 359
f 359 427 428
f 359 428 429
f 359 429 360
f 359 426 430
f 359 430 427
f 360 429 431
f 360 431 378
f 361 376 362
f 362 364 363
f 362 376 364
f 364 376 365
f 365 432 366
f 365 376 375
f 365 375 374
f 365 374 433
f 365 433 434
f 365 434 432
f 366 432 368
f 366 368 367
f 368 432 434
f 368 434 435
f 368 435 369
f 371 374 375
f 371 375 372
f 379 436 380
f 380 436 437
f 380 437 439
f 380 439 381
f 381 438 382
f 381 439 438
f 382 438 440
f 382 440 441
f 382 441 383
f 383 441 442
f 383 442 384
f 384 442 387
f 384 387 385
f 386 387 443
f 386 443 444
f 386 444 445
f 386 445 390
f 387 442 416
f 387 416 415
f 387 415 443
f 388 412 389
f 388 392 413
f 388 413 412
f 389 412 446
f 389 446 397
f 390 445 391
f 391 414 392
f 391 445 444
f 391 444 415
f 392 414 413
f 393 397 446
f 393 446 447
f 393 447 409
f 393 409 394
f 394 448 395
f 394 409 448
f 395 448 396
f 396 449 450
f 396 450 398
f 396 448 403
f 396 403 449
f 398 407 399
f 398 450 407
f 399 407 400
f 400 407 406
f 400 408 402
f 400 402 401
f 403 448 404
f 403 405 449
f 404 448 409
f 405 407 450
f 405 450 449
f 409 447 410
f 410 447 411
f 411 447 446
f 411 446 412
f 415 444 443
f 416 442 441
f 416 441 417
f 417 441 440
f 417 440 418
f 418 440 419
f 419 440 438
f 419 438 451
f 419 451 423
f 419 423 420
f 421 423 452
f 421 452 453
f 421 453 454
f 421 454 424
f 421 424 422
f 423 451 439
f 423 439 455
f 423 455 452
f 424 454 456
f 424 456 425
f 436 457 437
f 437 455 439
f 437 457 458
f 437 458 453
f 437 453 452
f 437 452 455
f 438 439 451
f 453 458 456
f 453 456 454

