# https://github.com/mikedh/trimesh
v 0.01421926 0.03200478 0.07554266
v 0.00784367 0.03200478 0.07554266
v 0.01413241 0.03245363 0.07554266
v 0.01393013 0.03200478 0.08136901
v 0.00493758 0.03217806 0.07554266
v 0.00667975 0.03200478 0.08306429
v 0.01394072 0.03320294 0.07554266
v 0.01392378 0.03315291 0.07628488
v 0.01388036 0.03302630 0.07798016
v 0.01384329 0.03290612 0.07942518
v 0.01382846 0.03284911 0.07998913
v 0.01409535 0.03245363 0.07628488
v 0.01385811 0.03214788 0.08221579
v 0.01388671 0.03200478 0.08221579
v 0.00409033 0.03231501 0.07554266
v 0.00645946 0.03200478 0.08729992
v 0.00645629 0.03200478 0.08769760
v 0.00645417 0.03200478 0.08814670
v 0.00645417 0.03200478 0.09068877
v 0.01392378 0.03325604 0.07554266
v 0.01378292 0.03357633 0.07628488
v 0.01376386 0.03351484 0.07713166
v 0.01374479 0.03344972 0.07798016
v 0.01390154 0.03309142 0.07713166
v 0.01372255 0.03338041 0.07882694
v 0.01355734 0.03330104 0.08221579
v 0.01377021 0.03257158 0.08221579
v 0.01384329 0.03207353 0.08279174
v 0.01385388 0.03200478 0.08283974
v 0.00359786 0.03280327 0.07967373
v 0.00357774 0.03277225 0.07882694
v 0.00356821 0.03274737 0.07798016
v 0.00356715 0.03266465 0.07554266
v 0.00665539 0.03200478 0.09153555
v 0.00355973 0.03486001 0.09238405
v 0.00364552 0.03455174 0.09122358
v 0.00365187 0.03286364 0.08109132
v 0.00362751 0.03283849 0.08052222
v 0.01379987 0.03362636 0.07554266
v 0.01348215 0.03414816 0.07798016
v 0.01343766 0.03414816 0.07882694
v 0.01333599 0.03414816 0.08052222
v 0.01323432 0.03414816 0.08221579
v 0.01350333 0.03330104 0.08306429
v 0.01368972 0.03245363 0.08391107
v 0.01375750 0.03239494 0.08307114
v 0.01382952 0.03200478 0.08325113
v 0.00339982 0.03486001 0.09134185
v 0.00347819 0.03330104 0.07882694
v 0.00346971 0.03330104 0.07798016
v 0.00355444 0.03274011 0.07554266
v 0.00696146 0.03200478 0.09201037
v 0.00409033 0.03486001 0.09268402
v 0.00341146 0.03486001 0.09146527
v 0.01359123 0.03414816 0.07554266
v 0.01355840 0.03414816 0.07628488
v 0.01315066 0.03486001 0.07798873
v 0.01314324 0.03486001 0.07814472
v 0.01312524 0.03482731 0.07882694
v 0.01309982 0.03478147 0.07967373
v 0.01307440 0.03473480 0.08052222
v 0.01302357 0.03464089 0.08221579
v 0.01300239 0.03460204 0.08286202
v 0.01298227 0.03456096 0.08342768
v 0.01314218 0.03422642 0.08311228
v 0.01313795 0.03409310 0.08391107
v 0.01299392 0.03374235 0.08782616
v 0.01297379 0.03368561 0.08839182
v 0.01344084 0.03330104 0.08391107
v 0.01363253 0.03245363 0.08475786
v 0.01378716 0.03200478 0.08391107
v 0.00346760 0.03486001 0.08292887
v 0.00346760 0.03330104 0.07554266
v 0.00346760 0.03330104 0.07713166
v 0.00747935 0.03200478 0.09206008
v 0.00747935 0.03486001 0.09305256
v 0.00663209 0.03486001 0.09296685
v 0.01325445 0.03486001 0.07554266
v 0.01321950 0.03486001 0.07637058
v 0.01310724 0.03486001 0.07882694
v 0.01305534 0.03486001 0.07967373
v 0.01300239 0.03486001 0.08052222
v 0.01294943 0.03486001 0.08136901
v 0.01289542 0.03486001 0.08221579
v 0.01283611 0.03486001 0.08305914
v 0.01249721 0.03486001 0.08729992
v 0.01241460 0.03486001 0.08828726
v 0.01283082 0.03421188 0.08729992
v 0.01282658 0.03407410 0.08812442
v 0.01318349 0.03330104 0.08729992
v 0.01337730 0.03330104 0.08475786
v 0.01271856 0.03414816 0.08899348
v 0.01294943 0.03361490 0.08899348
v 0.01308605 0.03319148 0.08899348
v 0.01372891 0.03200478 0.08475786
v 0.01356793 0.03245363 0.08560464
v 0.00353008 0.03486001 0.08216951
v 0.00356715 0.03408276 0.07554266
v 0.01086837 0.03200478 0.09206008
v 0.00832660 0.03486001 0.09303542
v 0.01169550 0.03200478 0.09205493
v 0.00943227 0.03486001 0.07554266
v 0.01235106 0.03486001 0.08899348
v 0.01234577 0.03486001 0.08903634
v 0.01260312 0.03414816 0.08984199
v 0.01289330 0.03345252 0.08984199
v 0.01303522 0.03302910 0.08984199
v 0.01329363 0.03245363 0.08899348
v 0.01366325 0.03200478 0.08558750
v 0.01362618 0.03200478 0.08605374
v 0.01338895 0.03200478 0.08899348
v 0.00354703 0.03486001 0.08198952
v 0.00391770 0.03442625 0.07554266
v 0.00917280 0.03486001 0.09294971
v 0.01202275 0.03200478 0.09203094
v 0.00447159 0.03461825 0.07554266
v 0.00423118 0.03461127 0.07558894
v 0.00368470 0.03486001 0.08164155
v 0.01231188 0.03486001 0.08927632
v 0.01227269 0.03478539 0.08984199
v 0.01219326 0.03465626 0.09068877
v 0.01244320 0.03414816 0.09068877
v 0.01282023 0.03323256 0.09063220
v 0.01299603 0.03290472 0.09031337
v 0.01319514 0.03245363 0.08984199
v 0.01333811 0.03200478 0.08944259
v 0.00359045 0.03486001 0.08175811
v 0.00407338 0.03455090 0.07554266
v 0.00400560 0.03450758 0.07554266
v 0.01000417 0.03486001 0.09278344
v 0.01224409 0.03200478 0.09200351
v 0.00428943 0.03460791 0.07554266
v 0.00418564 0.03459394 0.07554266
v 0.01222291 0.03486001 0.08984199
v 0.01214454 0.03458108 0.09112587
v 0.01205346 0.03486001 0.09068877
v 0.01294096 0.03270349 0.09087732
v 0.01306064 0.03243407 0.09063220
v 0.01329151 0.03200478 0.08984199
v 0.01083553 0.03486001 0.09244919
v 0.01220597 0.03224262 0.09198980
v 0.01265819 0.03200478 0.09164011
v 0.01184800 0.03486001 0.09140356
v 0.01224833 0.03414816 0.09127843
v 0.01301404 0.03213865 0.09117558
v 0.01314642 0.03200478 0.09066134
v 0.01142226 0.03486001 0.09206522
v 0.01294308 0.03200478 0.09130929
v 0.01242096 0.03330104 0.09147213
v 0.01302675 0.03200478 0.09120301
f 1 2 5
f 1 5 15
f 1 15 33
f 1 33 51
f 1 51 73
f 1 73 98
f 1 98 113
f 1 113 129
f 1 129 128
f 1 128 133
f 1 133 132
f 1 132 116
f 1 116 102
f 1 102 78
f 1 78 55
f 1 55 39
f 1 39 20
f 1 20 7
f 1 7 3
f 1 3 4
f 1 4 14
f 1 14 29
f 1 29 47
f 1 47 71
f 1 71 95
f 1 95 109
f 1 109 110
f 1 110 111
f 1 111 126
f 1 126 139
f 1 139 146
f 1 146 150
f 1 150 148
f 1 148 142
f 1 142 131
f 1 131 115
f 1 115 101
f 1 101 99
f 1 99 75
f 1 75 52
f 1 52 34
f 1 34 19
f 1 19 18
f 1 18 17
f 1 17 16
f 1 16 6
f 1 6 2
f 2 6 5
f 3 7 8
f 3 8 9
f 3 9 10
f 3 10 11
f 3 11 12
f 3 12 4
f 4 11 13
f 4 13 14
f 4 12 11
f 5 6 16
f 5 16 17
f 5 17 18
f 5 18 19
f 5 19 15
f 7 20 8
f 8 21 22
f 8 22 23
f 8 23 24
f 8 24 9
f 8 20 21
f 9 23 10
f 9 24 23
f 10 23 25
f 10 25 26
f 10 26 11
f 11 26 27
f 11 27 13
f 13 27 28
f 13 28 14
f 14 28 29
f 15 30 31
f 15 31 32
f 15 32 33
f 15 19 30
f 19 34 35
f 19 35 36
f 19 36 37
f 19 37 38
f 19 38 30
f 20 39 21
f 21 39 40
f 21 40 22
f 22 40 23
f 23 40 41
f 23 41 25
f 25 41 26
f 26 41 42
f 26 42 43
f 26 43 44
f 26 44 27
f 27 44 45
f 27 45 46
f 27 46 28
f 28 46 47
f 28 47 29
f 30 38 48
f 30 48 31
f 31 49 32
f 31 48 49
f 32 50 33
f 32 49 50
f 33 50 51
f 34 52 35
f 35 52 53
f 35 53 77
f 35 77 76
f 35 76 100
f 35 100 114
f 35 114 130
f 35 130 140
f 35 140 147
f 35 147 143
f 35 143 136
f 35 136 134
f 35 134 119
f 35 119 104
f 35 104 103
f 35 103 87
f 35 87 86
f 35 86 85
f 35 85 84
f 35 84 83
f 35 83 82
f 35 82 81
f 35 81 80
f 35 80 58
f 35 58 57
f 35 57 79
f 35 79 78
f 35 78 102
f 35 102 118
f 35 118 127
f 35 127 112
f 35 112 97
f 35 97 72
f 35 72 48
f 35 48 54
f 35 54 36
f 36 54 37
f 37 54 48
f 37 48 38
f 39 55 56
f 39 56 40
f 40 57 58
f 40 58 59
f 40 59 41
f 40 56 57
f 41 59 60
f 41 60 61
f 41 61 62
f 41 62 63
f 41 63 42
f 42 63 43
f 43 63 64
f 43 64 65
f 43 65 44
f 44 65 66
f 44 66 67
f 44 67 68
f 44 68 69
f 44 69 70
f 44 70 45
f 45 70 71
f 45 71 46
f 46 71 47
f 48 72 73
f 48 73 74
f 48 74 50
f 48 50 49
f 50 74 51
f 51 74 73
f 52 75 76
f 52 76 77
f 52 77 53
f 55 78 79
f 55 79 57
f 55 57 56
f 58 80 59
f 59 80 60
f 60 80 61
f 61 80 81
f 61 81 62
f 62 81 82
f 62 82 83
f 62 83 84
f 62 84 63
f 63 85 64
f 63 84 85
f 64 85 86
f 64 86 87
f 64 87 88
f 64 88 89
f 64 89 67
f 64 67 65
f 65 67 66
f 67 89 68
f 68 90 91
f 68 91 69
f 68 89 92
f 68 92 93
f 68 93 94
f 68 94 90
f 69 91 70
f 70 95 71
f 70 91 90
f 70 90 96
f 70 96 95
f 72 97 98
f 72 98 73
f 75 99 76
f 76 99 101
f 76 101 100
f 87 103 92
f 87 92 88
f 88 92 89
f 90 94 96
f 92 103 104
f 92 104 105
f 92 105 93
f 93 105 106
f 93 106 107
f 93 107 94
f 94 108 96
f 94 107 108
f 95 96 109
f 96 110 109
f 96 108 111
f 96 111 110
f 97 112 98
f 98 112 113
f 100 101 115
f 100 115 114
f 102 116 117
f 102 117 118
f 104 119 120
f 104 120 105
f 105 120 121
f 105 121 122
f 105 122 106
f 106 122 123
f 106 123 124
f 106 124 107
f 107 125 108
f 107 124 125
f 108 125 126
f 108 126 111
f 112 127 128
f 112 128 129
f 112 129 113
f 114 115 131
f 114 131 130
f 116 132 117
f 117 132 133
f 117 133 127
f 117 127 118
f 119 134 120
f 120 134 121
f 121 135 122
f 121 134 136
f 121 136 135
f 122 135 123
f 123 135 137
f 123 137 124
f 124 137 138
f 124 138 125
f 125 138 139
f 125 139 126
f 127 133 128
f 130 131 140
f 131 141 140
f 131 142 141
f 135 136 143
f 135 143 144
f 135 144 137
f 137 144 145
f 137 145 138
f 138 146 139
f 138 145 146
f 140 141 147
f 141 142 147
f 142 148 149
f 142 149 147
f 143 147 144
f 144 149 145
f 144 147 149
f 145 149 148
f 145 148 150
f 145 150 146

