# https://github.com/mikedh/trimesh
v 0.00156139 0.03551012 0.02450403
v 0.00100356 0.03546984 0.02450403
v 0.00324155 0.03546108 0.02450403
v 0.00130006 0.03542430 0.02415071
v 0.00110724 0.03542430 0.02415071
v 0.00080104 0.03479027 0.02289729
v 0.00095990 0.03543131 0.02450403
v 0.00408921 0.03543306 0.02450403
v 0.00324155 0.03539453 0.02425636
v 0.00186516 0.03541554 0.02418021
v 0.00156866 0.03531571 0.02381866
v 0.00154744 0.03499694 0.02289729
v 0.00093807 0.03466066 0.02229493
v 0.00071433 0.03419826 0.02202737
v 0.00042329 0.03414747 0.02289729
v 0.00062460 0.03499869 0.02450403
v 0.00493626 0.03537876 0.02450403
v 0.00493626 0.03535424 0.02440798
v 0.00408921 0.03538051 0.02430919
v 0.00324155 0.03523689 0.02374456
v 0.00239510 0.03526667 0.02374456
v 0.00239510 0.03497067 0.02289729
v 0.00324155 0.03467467 0.02226475
v 0.00239510 0.03468693 0.02223456
v 0.00154744 0.03469919 0.02221604
v 0.00154744 0.03448200 0.02179205
v 0.00099810 0.03377966 0.02070534
v 0.00084591 0.03393554 0.02120273
v 0.00046755 0.03329976 0.02120273
v 0.00038206 0.03414747 0.02374456
v 0.00057730 0.03490762 0.02450403
v 0.00041723 0.03245204 0.02035614
v 0.00010315 0.03081791 0.02067241
v 0.00010315 0.03100181 0.02100858
v 0.00010315 0.03149573 0.02194573
v 0.00010315 0.03167438 0.02244792
v 0.00532310 0.03534198 0.02450403
v 0.00589427 0.03528243 0.02450403
v 0.00629628 0.03524040 0.02450403
v 0.00629628 0.03499869 0.02374456
v 0.00578392 0.03505299 0.02374456
v 0.00493626 0.03513881 0.02374456
v 0.00408921 0.03520011 0.02374456
v 0.00324155 0.03493914 0.02289729
v 0.00408921 0.03464665 0.02232237
v 0.00324155 0.03445573 0.02184145
v 0.00239510 0.03447325 0.02181126
v 0.00408921 0.03489010 0.02289729
v 0.00239510 0.03412295 0.02120273
v 0.00154744 0.03414046 0.02120273
v 0.00154744 0.03380418 0.02067104
v 0.00154744 0.03346615 0.02024706
v 0.00154744 0.03304229 0.01973321
v 0.00154744 0.03268674 0.01930922
v 0.00093807 0.03298624 0.01980113
v 0.00078588 0.03328049 0.02039593
v 0.00072889 0.03246080 0.01951435
v 0.00040571 0.03414747 0.02450403
v 0.00010315 0.03132759 0.02450403
v 0.00070160 0.03163235 0.01863895
v 0.00039116 0.03160432 0.01950818
v 0.00010315 0.02980030 0.01917682
v 0.00629628 0.03293019 0.02450403
v 0.00629628 0.03454856 0.02252887
v 0.00611013 0.03456257 0.02249526
v 0.00493626 0.03482004 0.02289729
v 0.00554502 0.03458534 0.02244312
v 0.00408921 0.03442596 0.02189839
v 0.00408921 0.03403012 0.02120273
v 0.00324155 0.03408967 0.02120273
v 0.00324155 0.03378141 0.02070054
v 0.00239510 0.03379718 0.02067859
v 0.00239510 0.03346790 0.02025529
v 0.00239510 0.03304404 0.01973046
v 0.00239510 0.03268148 0.01930716
v 0.00154744 0.03226288 0.01882350
v 0.00090351 0.03218406 0.01890720
v 0.00010315 0.02657407 0.02450403
v 0.00089320 0.03136787 0.01803179
v 0.00077982 0.03068655 0.01749598
v 0.00069190 0.03080039 0.01777521
v 0.00068947 0.03053242 0.01749598
v 0.00038327 0.03075836 0.01866090
v 0.00037660 0.02959362 0.01749598
v 0.00010315 0.02830278 0.01808805
v 0.00427535 0.02482785 0.02450403
v 0.00615257 0.01761701 0.02293776
v 0.00629628 0.01761701 0.02287396
v 0.00629628 0.03444698 0.02233609
v 0.00629628 0.03430160 0.02207677
v 0.00578392 0.03392854 0.02128437
v 0.00580999 0.03439093 0.02211656
v 0.00493626 0.03438918 0.02196906
v 0.00489685 0.03392153 0.02113550
v 0.00458822 0.03373062 0.02077052
v 0.00408921 0.03375164 0.02074171
v 0.00324155 0.03345213 0.02027656
v 0.00324155 0.03303003 0.01974693
v 0.00324155 0.03266397 0.01932363
v 0.00239510 0.03225938 0.01883379
v 0.00154744 0.03188106 0.01839952
v 0.00154744 0.03105611 0.01749598
v 0.00010315 0.01761701 0.02200610
v 0.00096657 0.01761701 0.02270313
v 0.00105024 0.02431817 0.02450403
v 0.00048635 0.02993166 0.01749598
v 0.00015529 0.02652328 0.01749598
v 0.00010315 0.02652328 0.01753234
v 0.00010315 0.02736049 0.01765034
v 0.00389275 0.02428839 0.02450403
v 0.00578392 0.01761701 0.02308321
v 0.00629628 0.01761701 0.01763457
v 0.00629628 0.03389176 0.02134749
v 0.00578392 0.03367107 0.02086108
v 0.00515333 0.03370435 0.02080963
v 0.00489685 0.03343812 0.02043504
v 0.00408921 0.03342061 0.02031772
v 0.00408921 0.03299675 0.01978672
v 0.00408921 0.03263069 0.01936273
v 0.00408921 0.03220683 0.01889348
v 0.00324155 0.03224011 0.01885574
v 0.00239510 0.03103334 0.01749598
v 0.00010315 0.01761701 0.01763457
v 0.00154744 0.01761701 0.02301872
v 0.00154502 0.02420432 0.02450403
v 0.00239510 0.01761701 0.02310448
v 0.00037357 0.02567556 0.01749598
v 0.00379817 0.02427263 0.02450403
v 0.00535342 0.01761701 0.02310242
v 0.00629628 0.02364910 0.01749598
v 0.00629628 0.03362903 0.02092419
v 0.00629628 0.03331377 0.02050021
v 0.00624837 0.03288465 0.01992256
v 0.00578392 0.03328399 0.02035614
v 0.00493626 0.03295822 0.01983268
v 0.00493626 0.03259041 0.01940939
v 0.00493626 0.03216655 0.01893670
v 0.00408921 0.03181275 0.01847018
v 0.00324155 0.03098605 0.01749598
v 0.00078891 0.02490316 0.01749598
v 0.00154805 0.02462993 0.01749598
v 0.00578392 0.02373317 0.01749598
v 0.00231143 0.02418505 0.02450403
v 0.00450576 0.01761701 0.02310448
v 0.00324155 0.02419557 0.02450403
v 0.00315060 0.02419381 0.02450403
v 0.00239510 0.02418505 0.02450403
v 0.00629628 0.03062174 0.01749598
v 0.00629628 0.03291969 0.01997950
v 0.00578392 0.03254312 0.01946290
v 0.00578392 0.03291268 0.01988688
v 0.00629628 0.03287940 0.01992804
v 0.00629628 0.03282686 0.01986836
v 0.00629628 0.03216130 0.01911987
v 0.00578392 0.03211926 0.01898746
v 0.00493626 0.03177071 0.01851271
v 0.00408921 0.03090548 0.01749598
v 0.00578392 0.03071457 0.01749598
v 0.00629628 0.03125578 0.01815871
v 0.00629628 0.03208073 0.01903000
v 0.00578392 0.03172167 0.01856348
v 0.00493626 0.03081966 0.01749598
v 0.00578392 0.03089848 0.01769014
v 0.00578392 0.03129781 0.01811343
f 1 2 7
f 1 7 16
f 1 16 31
f 1 31 58
f 1 58 59
f 1 59 78
f 1 78 105
f 1 105 125
f 1 125 143
f 1 143 147
f 1 147 146
f 1 146 145
f 1 145 128
f 1 128 110
f 1 110 86
f 1 86 63
f 1 63 39
f 1 39 38
f 1 38 37
f 1 37 17
f 1 17 8
f 1 8 3
f 1 3 4
f 1 4 5
f 1 5 2
f 2 5 6
f 2 6 7
f 3 8 9
f 3 9 10
f 3 10 4
f 4 10 11
f 4 11 5
f 5 11 12
f 5 12 13
f 5 13 6
f 6 13 14
f 6 14 15
f 6 15 16
f 6 16 7
f 8 17 18
f 8 18 19
f 8 19 9
f 9 19 20
f 9 20 21
f 9 21 11
f 9 11 10
f 11 21 12
f 12 21 22
f 12 22 23
f 12 23 24
f 12 24 25
f 12 25 13
f 13 25 26
f 13 26 27
f 13 27 28
f 13 28 14
f 14 28 29
f 14 29 15
f 15 30 31
f 15 31 16
f 15 29 32
f 15 32 33
f 15 33 34
f 15 34 35
f 15 35 36
f 15 36 30
f 17 37 18
f 18 37 38
f 18 38 39
f 18 39 40
f 18 40 41
f 18 41 42
f 18 42 43
f 18 43 19
f 19 43 20
f 20 43 44
f 20 44 22
f 20 22 21
f 22 44 23
f 23 45 46
f 23 46 47
f 23 47 24
f 23 44 48
f 23 48 45
f 24 47 25
f 25 47 26
f 26 47 49
f 26 49 50
f 26 50 27
f 27 50 51
f 27 51 52
f 27 52 53
f 27 53 54
f 27 54 55
f 27 55 56
f 27 56 28
f 28 56 29
f 29 56 57
f 29 57 32
f 30 58 31
f 30 36 59
f 30 59 58
f 32 57 60
f 32 60 61
f 32 61 62
f 32 62 33
f 33 62 85
f 33 85 109
f 33 109 108
f 33 108 123
f 33 123 103
f 33 103 78
f 33 78 59
f 33 59 36
f 33 36 35
f 33 35 34
f 39 63 88
f 39 88 112
f 39 112 130
f 39 130 148
f 39 148 159
f 39 159 160
f 39 160 154
f 39 154 153
f 39 153 152
f 39 152 149
f 39 149 132
f 39 132 131
f 39 131 113
f 39 113 90
f 39 90 89
f 39 89 64
f 39 64 40
f 40 64 65
f 40 65 41
f 41 65 42
f 42 65 66
f 42 66 48
f 42 48 43
f 43 48 44
f 45 67 68
f 45 68 46
f 45 48 67
f 46 68 69
f 46 69 70
f 46 70 47
f 47 70 49
f 48 66 65
f 48 65 67
f 49 70 71
f 49 71 72
f 49 72 50
f 50 72 51
f 51 72 73
f 51 73 52
f 52 73 74
f 52 74 53
f 53 74 54
f 54 74 75
f 54 75 76
f 54 76 55
f 55 76 77
f 55 77 57
f 55 57 56
f 57 77 60
f 60 77 79
f 60 79 80
f 60 80 81
f 60 81 61
f 61 81 82
f 61 82 83
f 61 83 62
f 62 84 85
f 62 83 84
f 63 86 87
f 63 87 88
f 64 89 65
f 65 89 90
f 65 90 91
f 65 91 92
f 65 92 67
f 67 92 68
f 68 92 93
f 68 93 91
f 68 91 94
f 68 94 69
f 69 94 95
f 69 95 96
f 69 96 70
f 70 96 71
f 71 96 97
f 71 97 72
f 72 97 73
f 73 97 98
f 73 98 74
f 74 98 75
f 75 99 100
f 75 100 76
f 75 98 99
f 76 100 101
f 76 101 77
f 77 101 102
f 77 102 79
f 78 103 104
f 78 104 105
f 79 102 80
f 80 82 81
f 80 102 122
f 80 122 139
f 80 139 157
f 80 157 162
f 80 162 158
f 80 158 148
f 80 148 130
f 80 130 142
f 80 142 141
f 80 141 140
f 80 140 127
f 80 127 107
f 80 107 84
f 80 84 106
f 80 106 82
f 82 106 83
f 83 106 84
f 84 107 108
f 84 108 109
f 84 109 85
f 86 110 111
f 86 111 87
f 87 111 129
f 87 129 144
f 87 144 126
f 87 126 124
f 87 124 104
f 87 104 103
f 87 103 123
f 87 123 112
f 87 112 88
f 90 113 91
f 91 93 92
f 91 113 114
f 91 114 115
f 91 115 94
f 94 115 95
f 95 115 116
f 95 116 117
f 95 117 96
f 96 117 97
f 97 117 98
f 98 117 118
f 98 118 119
f 98 119 99
f 99 119 120
f 99 120 121
f 99 121 100
f 100 121 122
f 100 122 102
f 100 102 101
f 104 124 105
f 105 124 126
f 105 126 125
f 107 127 123
f 107 123 108
f 110 128 129
f 110 129 111
f 112 123 130
f 113 131 114
f 114 131 132
f 114 132 133
f 114 133 134
f 114 134 115
f 115 134 116
f 116 134 135
f 116 135 117
f 117 135 118
f 118 135 119
f 119 136 137
f 119 137 120
f 119 135 136
f 120 137 138
f 120 138 139
f 120 139 121
f 121 139 122
f 123 127 140
f 123 140 141
f 123 141 142
f 123 142 130
f 125 126 143
f 126 144 147
f 126 147 143
f 128 145 129
f 129 145 146
f 129 146 147
f 129 147 144
f 132 149 133
f 133 150 151
f 133 151 134
f 133 149 152
f 133 152 153
f 133 153 154
f 133 154 155
f 133 155 150
f 134 151 135
f 135 151 136
f 136 151 150
f 136 150 155
f 136 155 137
f 137 155 156
f 137 156 157
f 137 157 138
f 138 157 139
f 148 158 159
f 154 160 155
f 155 160 161
f 155 161 162
f 155 162 156
f 156 162 157
f 158 162 163
f 158 163 159
f 159 163 160
f 160 163 164
f 160 164 161
f 161 164 162
f 162 164 163

