# https://github.com/mikedh/trimesh
v 0.00620376 0.03016157 0.05636543
v 0.00620376 0.03024965 0.05719919
v 0.00620376 0.03016304 0.05592257
v 0.00823494 0.02415116 0.05679351
v 0.00823494 0.02415116 0.05876375
v 0.00620376 0.03031572 0.05782368
v 0.00620376 0.03018653 0.05545253
v 0.00849297 0.02415116 0.05606987
v 0.00620376 0.03021736 0.05526137
v 0.01447350 0.02415116 0.05876375
v 0.00620376 0.03041555 0.05876375
v 0.00620376 0.03038619 0.05848821
v 0.00903569 0.02415116 0.05581674
v 0.00620376 0.03057264 0.05502683
v 0.00620376 0.03075909 0.05493530
v 0.01512071 0.02415116 0.05849870
v 0.01502262 0.02909132 0.05876375
v 0.00620376 0.03914047 0.05876375
v 0.00917430 0.02415116 0.05575238
v 0.01435302 0.02415116 0.05389369
v 0.00620376 0.03677536 0.05389369
v 0.01555041 0.02415116 0.05811066
v 0.01506420 0.02991199 0.05876375
v 0.00663239 0.03911845 0.05876375
v 0.00620376 0.03914488 0.05862741
v 0.01709645 0.02415116 0.05389369
v 0.00620376 0.03895109 0.05389369
v 0.01574446 0.02415116 0.05765588
v 0.01502475 0.03075909 0.05876375
v 0.01608139 0.02415116 0.05679351
v 0.00720389 0.03904798 0.05876375
v 0.00748005 0.03900688 0.05848821
v 0.00748005 0.03896283 0.05679351
v 0.00663239 0.03911111 0.05848821
v 0.00620376 0.03914928 0.05848821
v 0.01697490 0.02415116 0.05425170
v 0.01701968 0.02482796 0.05389369
v 0.01493412 0.03160618 0.05876375
v 0.01496397 0.03133165 0.05876375
v 0.00620376 0.03899073 0.05467979
v 0.00663239 0.03893200 0.05389369
v 0.01645884 0.02415116 0.05575000
v 0.01668702 0.02415116 0.05509929
v 0.00748005 0.03901275 0.05876375
v 0.00817630 0.03885860 0.05679351
v 0.00812619 0.03884686 0.05594640
v 0.00748005 0.03893935 0.05594640
v 0.00663239 0.03908469 0.05764110
v 0.00620376 0.03913607 0.05806871
v 0.01668275 0.02736924 0.05389369
v 0.01478271 0.03248998 0.05876375
v 0.01656760 0.02817963 0.05389369
v 0.00620376 0.03903330 0.05552690
v 0.00703649 0.03889971 0.05389369
v 0.00663239 0.03898926 0.05509929
v 0.00799931 0.03892466 0.05876375
v 0.00824987 0.03887768 0.05848821
v 0.00821788 0.03886741 0.05764110
v 0.00859960 0.03878079 0.05679351
v 0.00854948 0.03877345 0.05594640
v 0.00848125 0.03876611 0.05509929
v 0.00805688 0.03883217 0.05509929
v 0.00796625 0.03881749 0.05425170
v 0.00792254 0.03881162 0.05389369
v 0.00748005 0.03890998 0.05509929
v 0.00663239 0.03905679 0.05679351
v 0.00620376 0.03910524 0.05722112
v 0.01475926 0.03259715 0.05876375
v 0.01643858 0.02892396 0.05389369
v 0.01640126 0.02912509 0.05389369
v 0.01635328 0.02938348 0.05389369
v 0.01624773 0.02991199 0.05389369
v 0.01607073 0.03073853 0.05389369
v 0.00620376 0.03907000 0.05637401
v 0.00749604 0.03886154 0.05389369
v 0.00663239 0.03902450 0.05594640
v 0.00825520 0.03888062 0.05876375
v 0.00864118 0.03878666 0.05764110
v 0.00917430 0.03862811 0.05509929
v 0.00917430 0.03860902 0.05425170
v 0.00917430 0.03860021 0.05389369
v 0.00872115 0.03868389 0.05389369
v 0.00838955 0.03875436 0.05425170
v 0.00832451 0.03875290 0.05389369
v 0.00781911 0.03882483 0.05389369
v 0.00748005 0.03887768 0.05425170
v 0.01468995 0.03290839 0.05876375
v 0.01587667 0.03160618 0.05389369
v 0.00867957 0.03879400 0.05876375
v 0.00867317 0.03879253 0.05848821
v 0.00917430 0.03864279 0.05594640
v 0.01002196 0.03839321 0.05389369
v 0.00953256 0.03851506 0.05389369
v 0.01462598 0.03316530 0.05876375
v 0.01566982 0.03243272 0.05389369
v 0.00901756 0.03870885 0.05876375
v 0.00917430 0.03866775 0.05848821
v 0.00917430 0.03866187 0.05764110
v 0.00917430 0.03865307 0.05679351
v 0.01002196 0.03839762 0.05425170
v 0.01037915 0.03828017 0.05389369
v 0.01459186 0.03329596 0.05876375
v 0.01553974 0.03290985 0.05389369
v 0.00917430 0.03866775 0.05876375
v 0.01002196 0.03840789 0.05594640
v 0.01002196 0.03840349 0.05509929
v 0.01091867 0.03810106 0.05389369
v 0.01540646 0.03334148 0.05389369
v 0.01441273 0.03387293 0.05876375
v 0.00974687 0.03848717 0.05876375
v 0.01002196 0.03840642 0.05764110
v 0.01002196 0.03840789 0.05679351
v 0.01108607 0.03804087 0.05389369
v 0.01510578 0.03414746 0.05389369
v 0.01432636 0.03414746 0.05876375
v 0.01002196 0.03839468 0.05876375
v 0.01002196 0.03839908 0.05848821
v 0.01085256 0.03811868 0.05509929
v 0.01129505 0.03796159 0.05389369
v 0.01480297 0.03479196 0.05389369
v 0.01477205 0.03474204 0.05425170
v 0.01400223 0.03490794 0.05876375
v 0.01051669 0.03819355 0.05876375
v 0.01078539 0.03810840 0.05764110
v 0.01127692 0.03795425 0.05509929
v 0.01128652 0.03795865 0.05445812
v 0.01166717 0.03776927 0.05389369
v 0.01466436 0.03503566 0.05389369
v 0.01378791 0.03533222 0.05876375
v 0.01074380 0.03809666 0.05876375
v 0.01075447 0.03809959 0.05848821
v 0.01123641 0.03793516 0.05679351
v 0.01125986 0.03794691 0.05594640
v 0.01196145 0.03760337 0.05389369
v 0.01455774 0.03521477 0.05389369
v 0.01387321 0.03547903 0.05749427
v 0.01383270 0.03541737 0.05805965
v 0.01343819 0.03584165 0.05876375
v 0.01116710 0.03789699 0.05876375
v 0.01117776 0.03790433 0.05848821
v 0.01120868 0.03792048 0.05764110
v 0.01245618 0.03731856 0.05389369
v 0.01410672 0.03581523 0.05389369
v 0.01410885 0.03575797 0.05425170
v 0.01392013 0.03554950 0.05679351
v 0.01306074 0.03634961 0.05876375
v 0.01153069 0.03766063 0.05876375
v 0.01171515 0.03760191 0.05764110
v 0.01243912 0.03731122 0.05425170
v 0.01287948 0.03703375 0.05389369
v 0.01389560 0.03607214 0.05389369
v 0.01307887 0.03637017 0.05848821
v 0.01292639 0.03648762 0.05876375
v 0.01171515 0.03753584 0.05876375
v 0.01171515 0.03755346 0.05848821
v 0.01227386 0.03721873 0.05764110
v 0.01286242 0.03702054 0.05425170
v 0.01310446 0.03683849 0.05389369
v 0.01231437 0.03724516 0.05679351
v 0.01378258 0.03620721 0.05389369
v 0.01313111 0.03642302 0.05764110
v 0.01265344 0.03679445 0.05848821
v 0.01263957 0.03677390 0.05876375
v 0.01206274 0.03728773 0.05876375
v 0.01221628 0.03717616 0.05876375
v 0.01282084 0.03697943 0.05509929
v 0.01339127 0.03658157 0.05389369
v 0.01269715 0.03684730 0.05764110
f 1 2 6
f 1 6 12
f 1 12 11
f 1 11 18
f 1 18 25
f 1 25 35
f 1 35 49
f 1 49 67
f 1 67 74
f 1 74 53
f 1 53 40
f 1 40 27
f 1 27 21
f 1 21 15
f 1 15 14
f 1 14 9
f 1 9 7
f 1 7 3
f 1 3 4
f 1 4 5
f 1 5 2
f 2 5 6
f 3 7 4
f 4 8 13
f 4 13 19
f 4 19 20
f 4 20 26
f 4 26 36
f 4 36 43
f 4 43 42
f 4 42 30
f 4 30 28
f 4 28 22
f 4 22 16
f 4 16 10
f 4 10 5
f 4 7 9
f 4 9 8
f 5 10 17
f 5 17 23
f 5 23 29
f 5 29 39
f 5 39 38
f 5 38 51
f 5 51 68
f 5 68 87
f 5 87 94
f 5 94 102
f 5 102 109
f 5 109 115
f 5 115 122
f 5 122 129
f 5 129 138
f 5 138 146
f 5 146 153
f 5 153 163
f 5 163 165
f 5 165 164
f 5 164 154
f 5 154 147
f 5 147 139
f 5 139 130
f 5 130 123
f 5 123 116
f 5 116 110
f 5 110 104
f 5 104 96
f 5 96 89
f 5 89 77
f 5 77 56
f 5 56 44
f 5 44 31
f 5 31 24
f 5 24 18
f 5 18 11
f 5 11 12
f 5 12 6
f 8 9 14
f 8 14 15
f 8 15 13
f 10 16 17
f 13 15 19
f 15 20 19
f 15 21 20
f 16 22 23
f 16 23 17
f 18 24 25
f 20 21 27
f 20 27 41
f 20 41 54
f 20 54 75
f 20 75 85
f 20 85 64
f 20 64 84
f 20 84 82
f 20 82 81
f 20 81 93
f 20 93 92
f 20 92 101
f 20 101 107
f 20 107 113
f 20 113 119
f 20 119 127
f 20 127 134
f 20 134 142
f 20 142 150
f 20 150 158
f 20 158 167
f 20 167 160
f 20 160 151
f 20 151 143
f 20 143 135
f 20 135 128
f 20 128 120
f 20 120 114
f 20 114 108
f 20 108 103
f 20 103 95
f 20 95 88
f 20 88 73
f 20 73 72
f 20 72 71
f 20 71 70
f 20 70 69
f 20 69 52
f 20 52 50
f 20 50 37
f 20 37 26
f 22 28 23
f 23 28 30
f 23 30 29
f 24 31 32
f 24 32 33
f 24 33 34
f 24 34 35
f 24 35 25
f 26 37 38
f 26 38 39
f 26 39 29
f 26 29 36
f 27 40 41
f 29 30 42
f 29 42 43
f 29 43 36
f 31 44 32
f 32 44 45
f 32 45 46
f 32 46 33
f 33 46 47
f 33 47 34
f 34 48 35
f 34 47 48
f 35 48 49
f 37 50 38
f 38 50 52
f 38 52 51
f 40 53 41
f 41 53 55
f 41 55 54
f 44 56 57
f 44 57 58
f 44 58 45
f 45 58 59
f 45 59 60
f 45 60 61
f 45 61 46
f 46 62 47
f 46 61 62
f 47 62 63
f 47 63 64
f 47 64 65
f 47 65 66
f 47 66 48
f 48 66 49
f 49 66 67
f 51 52 69
f 51 69 70
f 51 70 71
f 51 71 72
f 51 72 73
f 51 73 68
f 53 74 55
f 54 55 75
f 55 74 67
f 55 67 76
f 55 76 75
f 56 77 57
f 57 77 78
f 57 78 59
f 57 59 58
f 59 78 79
f 59 79 60
f 60 79 80
f 60 80 61
f 61 80 81
f 61 81 82
f 61 82 83
f 61 83 62
f 62 83 84
f 62 84 63
f 63 84 64
f 64 85 65
f 65 85 86
f 65 86 66
f 66 76 67
f 66 86 76
f 68 73 87
f 73 88 87
f 75 86 85
f 75 76 86
f 77 89 90
f 77 90 78
f 78 90 91
f 78 91 79
f 79 91 92
f 79 92 93
f 79 93 80
f 80 93 81
f 82 84 83
f 87 88 94
f 88 95 94
f 89 96 97
f 89 97 98
f 89 98 99
f 89 99 90
f 90 99 91
f 91 99 100
f 91 100 92
f 92 100 101
f 94 95 102
f 95 103 102
f 96 104 97
f 97 104 112
f 97 112 105
f 97 105 106
f 97 106 100
f 97 100 98
f 98 100 99
f 100 106 101
f 101 106 105
f 101 105 107
f 102 108 109
f 102 103 108
f 104 110 111
f 104 111 112
f 105 112 107
f 107 112 111
f 107 111 113
f 108 114 115
f 108 115 109
f 110 116 117
f 110 117 111
f 111 117 118
f 111 118 113
f 113 118 119
f 114 120 121
f 114 121 122
f 114 122 115
f 116 123 124
f 116 124 125
f 116 125 117
f 117 125 126
f 117 126 118
f 118 126 119
f 119 126 127
f 120 128 129
f 120 129 122
f 120 122 121
f 123 130 131
f 123 131 124
f 124 131 132
f 124 132 133
f 124 133 125
f 125 133 127
f 125 127 126
f 127 133 134
f 128 135 129
f 129 135 136
f 129 136 137
f 129 137 138
f 130 139 140
f 130 140 141
f 130 141 132
f 130 132 131
f 132 141 142
f 132 142 133
f 133 142 134
f 135 143 144
f 135 144 145
f 135 145 136
f 136 145 138
f 136 138 137
f 138 145 144
f 138 144 146
f 139 147 148
f 139 148 149
f 139 149 140
f 140 149 142
f 140 142 141
f 142 149 150
f 143 151 152
f 143 152 144
f 144 152 146
f 146 152 153
f 147 154 155
f 147 155 148
f 148 155 149
f 149 155 150
f 150 156 157
f 150 157 158
f 150 155 159
f 150 159 156
f 151 160 152
f 152 160 161
f 152 161 162
f 152 162 163
f 152 163 153
f 154 164 156
f 154 156 159
f 154 159 155
f 156 165 157
f 156 164 165
f 157 166 158
f 157 165 166
f 158 166 167
f 160 167 168
f 160 168 161
f 161 168 162
f 162 168 165
f 162 165 163
f 165 168 167
f 165 167 166

