# https://github.com/mikedh/trimesh
v 0.00823819 0.03464870 0.07554265
v 0.00747881 0.03465003 0.07554265
v 0.00823819 0.02973793 0.07554265
v 0.00823819 0.03292270 0.05876539
v 0.00493624 0.03463137 0.07545232
v 0.00493624 0.03463137 0.07554265
v 0.00692434 0.03292270 0.05876539
v 0.00324269 0.03292203 0.05876539
v 0.00239517 0.03292136 0.05876539
v 0.00408946 0.03231427 0.07554265
v 0.00366533 0.03202904 0.07332047
v 0.00098112 0.03072088 0.05876539
v 0.00823819 0.02784266 0.06443993
v 0.00823819 0.02784266 0.05876539
v 0.00446991 0.03461804 0.07554265
v 0.00481344 0.03462804 0.07554265
v 0.00181584 0.03291337 0.05876539
v 0.00154764 0.03290804 0.05876539
v 0.00356664 0.03266413 0.07554265
v 0.00078600 0.03084350 0.05876539
v 0.00154764 0.03047431 0.05876539
v 0.00823367 0.02784266 0.06442186
v 0.00823367 0.02784266 0.05876539
v 0.00428910 0.03460804 0.07554265
v 0.00126739 0.03274277 0.05876539
v 0.00400509 0.03452408 0.07535706
v 0.00418589 0.03459405 0.07554265
v 0.00355458 0.03273943 0.07554265
v 0.00054191 0.03161187 0.05876539
v 0.00080785 0.03241956 0.05876539
v 0.00356664 0.03408958 0.07543590
v 0.00391770 0.03442612 0.07554265
v 0.00400509 0.03450742 0.07554265
v 0.00407364 0.03455073 0.07554265
v 0.00346719 0.03330055 0.07554265
v 0.00356664 0.03408225 0.07554265
v 0.00059163 0.03179447 0.05876539
f 1 2 6
f 1 6 16
f 1 16 15
f 1 15 24
f 1 24 27
f 1 27 34
f 1 34 33
f 1 33 32
f 1 32 36
f 1 36 35
f 1 35 28
f 1 28 19
f 1 19 10
f 1 10 3
f 1 3 13
f 1 13 14
f 1 14 4
f 1 4 2
f 2 5 6
f 2 4 7
f 2 7 8
f 2 8 9
f 2 9 5
f 3 10 11
f 3 11 12
f 3 12 13
f 4 14 23
f 4 23 21
f 4 21 12
f 4 12 20
f 4 20 29
f 4 29 37
f 4 37 30
f 4 30 25
f 4 25 18
f 4 18 17
f 4 17 9
f 4 9 8
f 4 8 7
f 5 15 16
f 5 16 6
f 5 9 17
f 5 17 18
f 5 18 15
f 10 19 11
f 11 19 20
f 11 20 12
f 12 21 22
f 12 22 13
f 13 22 23
f 13 23 14
f 15 18 24
f 18 25 26
f 18 26 27
f 18 27 24
f 19 28 29
f 19 29 20
f 21 23 22
f 25 30 26
f 26 31 32
f 26 32 33
f 26 33 34
f 26 34 27
f 26 30 31
f 28 35 29
f 29 35 36
f 29 36 37
f 30 37 36
f 30 36 31
f 31 36 32

