# https://github.com/mikedh/trimesh
v 0.01280426 0.02878960 0.04068293
v 0.01280426 0.02912317 0.04146240
v 0.01280426 0.02913833 0.04003067
v 0.01446322 0.02660621 0.03661803
v 0.01446322 0.02660621 0.04069258
v 0.01453618 0.02671867 0.04132495
v 0.01280426 0.02991162 0.04180902
v 0.01747161 0.02415116 0.04277657
v 0.01280426 0.03170205 0.03661803
v 0.01784349 0.02415116 0.03661803
v 0.01280426 0.03446540 0.04277657
v 0.01968734 0.02415116 0.04277657
v 0.01280426 0.03646810 0.03661803
v 0.02004081 0.02415116 0.03661803
v 0.01280426 0.03705943 0.04277657
v 0.01972559 0.02415116 0.04244501
v 0.01965192 0.02438113 0.04277657
v 0.01280426 0.03652117 0.03703700
v 0.01304297 0.03638723 0.03661803
v 0.01994306 0.02482715 0.03661803
v 0.02003372 0.02415116 0.03730406
v 0.01282622 0.03705059 0.04277657
v 0.01280426 0.03704301 0.04251374
v 0.01973197 0.02415116 0.04238774
v 0.01972913 0.02417012 0.04238774
v 0.01958250 0.02482715 0.04277657
v 0.01280426 0.03662099 0.03787072
v 0.01329090 0.03638470 0.03730406
v 0.01318181 0.03633922 0.03661803
v 0.01993455 0.02482715 0.03730406
v 0.01984176 0.02542228 0.03661803
v 0.01974330 0.02596307 0.03730406
v 0.01981484 0.02553979 0.03730406
v 0.02002310 0.02415116 0.03815104
v 0.01283188 0.03704806 0.04277657
v 0.01280426 0.03703416 0.04238774
v 0.01316056 0.03689770 0.04277657
v 0.01974117 0.02415116 0.04228345
v 0.01975463 0.02433311 0.04181807
v 0.01962642 0.02482715 0.04238774
v 0.01944933 0.02567499 0.04277657
v 0.01280426 0.03671196 0.03878763
v 0.01347153 0.03640240 0.03820408
v 0.01371449 0.03622045 0.03730406
v 0.01360611 0.03618128 0.03661803
v 0.01992393 0.02482715 0.03815104
v 0.01980493 0.02563834 0.03661803
v 0.01974613 0.02598203 0.03661803
v 0.01964696 0.02652282 0.03730406
v 0.01963775 0.02652282 0.03815104
v 0.01998768 0.02415116 0.03899862
v 0.01280426 0.03703290 0.04237328
v 0.01341132 0.03675492 0.04238774
v 0.01384412 0.03626973 0.03852178
v 0.01379383 0.03624951 0.03795692
v 0.01341132 0.03677514 0.04277657
v 0.01979501 0.02415116 0.04165470
v 0.01977659 0.02447084 0.04125321
v 0.01970576 0.02478293 0.04153775
v 0.01956479 0.02567499 0.04154016
v 0.01949325 0.02567499 0.04238774
v 0.01935725 0.02652282 0.04238774
v 0.01937566 0.02613365 0.04277657
v 0.01280426 0.03695835 0.04154016
v 0.01425851 0.03597027 0.03730406
v 0.01415438 0.03594752 0.03661803
v 0.01979147 0.02540206 0.03899862
v 0.01988710 0.02482715 0.03899862
v 0.01960304 0.02652282 0.03899862
v 0.01965050 0.02652282 0.03661803
v 0.01952583 0.02720765 0.03661803
v 0.01949608 0.02736939 0.03661803
v 0.01949112 0.02736939 0.03730406
v 0.01948333 0.02736939 0.03815104
v 0.01979784 0.02460730 0.04069258
v 0.01992676 0.02415116 0.03984138
v 0.01376833 0.03658687 0.04277657
v 0.01407009 0.03640619 0.04238774
v 0.01403892 0.03637460 0.04154016
v 0.01429180 0.03607893 0.03899862
v 0.01417917 0.03608525 0.03820408
v 0.01980988 0.02415116 0.04145516
v 0.01973126 0.02503058 0.04069258
v 0.01975392 0.02517336 0.04009155
v 0.01942666 0.02652282 0.04154016
v 0.01925949 0.02736939 0.04154016
v 0.01918866 0.02736939 0.04238774
v 0.01914474 0.02736939 0.04277657
v 0.01931262 0.02652282 0.04277657
v 0.01476498 0.03563290 0.03661803
v 0.01425851 0.03589951 0.03661803
v 0.01969867 0.02561560 0.03982390
v 0.01977305 0.02529466 0.03952730
v 0.01982193 0.02486506 0.03982390
v 0.01944791 0.02736939 0.03899862
v 0.01948617 0.02652282 0.04069258
v 0.01934095 0.02805549 0.03661803
v 0.01929704 0.02821722 0.03730406
v 0.01928783 0.02821722 0.03815104
v 0.01925383 0.02821722 0.03899862
v 0.01981768 0.02415116 0.04135027
v 0.01407504 0.03641503 0.04277657
v 0.01449439 0.03614211 0.04238774
v 0.01446252 0.03613579 0.04154016
v 0.01440726 0.03611936 0.04069258
v 0.01497607 0.03562911 0.03815104
v 0.01493215 0.03559247 0.03730406
v 0.01938629 0.02736939 0.03984560
v 0.01932324 0.02736939 0.04069258
v 0.01919362 0.02821722 0.03984560
v 0.01912915 0.02821722 0.04069258
v 0.01906186 0.02821722 0.04154016
v 0.01892161 0.02865314 0.04199530
v 0.01898890 0.02824249 0.04232143
v 0.01889540 0.02854195 0.04256015
v 0.01888265 0.02849014 0.04277657
v 0.01489319 0.03556088 0.03661803
v 0.01930341 0.02821722 0.03661803
v 0.01906328 0.02906505 0.03815104
v 0.01892798 0.02952245 0.03871589
v 0.01901369 0.02912823 0.03899862
v 0.01900307 0.02896144 0.03984560
v 0.01897332 0.02885151 0.04069258
v 0.01449864 0.03614211 0.04277657
v 0.01502566 0.03571756 0.04238774
v 0.01502353 0.03571124 0.04154016
v 0.01502566 0.03569608 0.04069258
v 0.01500086 0.03565565 0.03899862
v 0.01539967 0.03532460 0.03815104
v 0.01580343 0.03493543 0.03661803
v 0.01531679 0.03527785 0.03661803
v 0.01883590 0.02914971 0.04154016
v 0.01894002 0.02872642 0.04154016
v 0.01881110 0.02898671 0.04232143
v 0.01875231 0.02902588 0.04277657
v 0.01907461 0.02906505 0.03661803
v 0.01893861 0.02955909 0.03730406
v 0.01907107 0.02906505 0.03730406
v 0.01893436 0.02954772 0.03815104
v 0.01882031 0.02997227 0.03815104
v 0.01882244 0.02984718 0.03899862
v 0.01889115 0.02938472 0.03984560
v 0.01886352 0.02927480 0.04069258
v 0.01478623 0.03591214 0.04277657
v 0.01638853 0.03458291 0.03899862
v 0.01502070 0.03571756 0.04277657
v 0.01638641 0.03458038 0.03984560
v 0.01638499 0.03457911 0.03838855
v 0.01542446 0.03533850 0.03899862
v 0.01603506 0.03483940 0.03812391
v 0.01633753 0.03453489 0.03661803
v 0.01591393 0.03485457 0.03661803
v 0.01862693 0.02991162 0.04154016
v 0.01855610 0.02991162 0.04238774
v 0.01861914 0.02952371 0.04277657
v 0.01893861 0.02955783 0.03661803
v 0.01891594 0.02963870 0.03661803
v 0.01881960 0.02998238 0.03730406
v 0.01857239 0.03075819 0.03815104
v 0.01853910 0.03075819 0.03899862
v 0.01874806 0.02991162 0.03984560
v 0.01868856 0.02991162 0.04069258
v 0.01674129 0.03414699 0.03899862
v 0.01715851 0.03363020 0.03815104
v 0.01544429 0.03533345 0.04277657
v 0.01638216 0.03457659 0.04041106
v 0.01666833 0.03422912 0.03812391
v 0.01672217 0.03412930 0.03730406
v 0.01637224 0.03456648 0.03782370
v 0.01635807 0.03455258 0.03730406
v 0.01663858 0.03419247 0.03661803
v 0.01847534 0.03075819 0.03984560
v 0.01840947 0.03075819 0.04069258
v 0.01834217 0.03075819 0.04154016
v 0.01826992 0.03075819 0.04238774
v 0.01822246 0.03077082 0.04277657
v 0.01851289 0.02991162 0.04277657
v 0.01881819 0.02998111 0.03661803
v 0.01857168 0.03075819 0.03730406
v 0.01824725 0.03160096 0.03730406
v 0.01821254 0.03168941 0.03809015
v 0.01807229 0.03203183 0.03859773
v 0.01819838 0.03166667 0.03892748
v 0.01803333 0.03193201 0.03984560
v 0.01819484 0.03150746 0.03984560
v 0.01715355 0.03362009 0.03899862
v 0.01743265 0.03320692 0.03815104
v 0.01742556 0.03319049 0.03730406
v 0.01741848 0.03317406 0.03661803
v 0.01714576 0.03361504 0.03730406
v 0.01568726 0.03510475 0.04277657
v 0.01637082 0.03456395 0.04097591
v 0.01678946 0.03401305 0.03661803
v 0.01670800 0.03411161 0.03661803
v 0.01816083 0.03142407 0.04069258
v 0.01797029 0.03175764 0.04154016
v 0.01793487 0.03166161 0.04238774
v 0.01809212 0.03123833 0.04238774
v 0.01807442 0.03119032 0.04277657
v 0.01856956 0.03075819 0.03661803
v 0.01824655 0.03159465 0.03661803
v 0.01807229 0.03203183 0.03833188
v 0.01789874 0.03236919 0.03809015
v 0.01788245 0.03236919 0.03892748
v 0.01778470 0.03245259 0.03984560
v 0.01805529 0.03199013 0.03916259
v 0.01766711 0.03245259 0.04154016
v 0.01760194 0.03245259 0.04238774
v 0.01800216 0.03184735 0.04069258
v 0.01666550 0.03411919 0.04154016
v 0.01713301 0.03358598 0.03984560
v 0.01742344 0.03319681 0.03899862
v 0.01784703 0.03245259 0.03730406
v 0.01783712 0.03245259 0.03661803
v 0.01736464 0.03325493 0.03661803
v 0.01713160 0.03359735 0.03661803
v 0.01635170 0.03454374 0.04154016
v 0.01630565 0.03448940 0.04277657
v 0.01632265 0.03450962 0.04238774
v 0.01664354 0.03408634 0.04238774
v 0.01792070 0.03159085 0.04277657
v 0.01756298 0.03245259 0.04277657
v 0.01821254 0.03167551 0.03661803
v 0.01807087 0.03202804 0.03776703
v 0.01806946 0.03202425 0.03730406
v 0.01806662 0.03201793 0.03661803
v 0.01739864 0.03316269 0.03984560
v 0.01737173 0.03312479 0.04069258
v 0.01734481 0.03308562 0.04154016
v 0.01731435 0.03303760 0.04238774
v 0.01772661 0.03245259 0.04069258
v 0.01729452 0.03300349 0.04277657
v 0.01711105 0.03354934 0.04069258
v 0.01662866 0.03406612 0.04277657
v 0.01706713 0.03346215 0.04238774
v 0.01708909 0.03350890 0.04154016
v 0.01718614 0.03319807 0.04277657
v 0.01705226 0.03342677 0.04277657
f 1 2 7
f 1 7 11
f 1 11 15
f 1 15 23
f 1 23 36
f 1 36 52
f 1 52 64
f 1 64 42
f 1 42 27
f 1 27 18
f 1 18 13
f 1 13 9
f 1 9 3
f 1 3 4
f 1 4 5
f 1 5 6
f 1 6 2
f 2 6 8
f 2 8 7
f 3 9 4
f 4 10 8
f 4 8 5
f 4 9 13
f 4 13 19
f 4 19 29
f 4 29 45
f 4 45 66
f 4 66 91
f 4 91 90
f 4 90 117
f 4 117 131
f 4 131 130
f 4 130 152
f 4 152 151
f 4 151 171
f 4 171 194
f 4 194 193
f 4 193 216
f 4 216 215
f 4 215 189
f 4 189 214
f 4 214 226
f 4 226 223
f 4 223 201
f 4 201 200
f 4 200 178
f 4 178 157
f 4 157 156
f 4 156 136
f 4 136 118
f 4 118 97
f 4 97 72
f 4 72 71
f 4 71 70
f 4 70 48
f 4 48 47
f 4 47 31
f 4 31 20
f 4 20 14
f 4 14 10
f 5 8 6
f 7 8 11
f 8 10 14
f 8 14 21
f 8 21 34
f 8 34 51
f 8 51 76
f 8 76 101
f 8 101 82
f 8 82 57
f 8 57 38
f 8 38 24
f 8 24 16
f 8 16 12
f 8 12 17
f 8 17 26
f 8 26 41
f 8 41 63
f 8 63 89
f 8 89 88
f 8 88 116
f 8 116 135
f 8 135 155
f 8 155 177
f 8 177 176
f 8 176 199
f 8 199 221
f 8 221 222
f 8 222 232
f 8 232 237
f 8 237 238
f 8 238 234
f 8 234 218
f 8 218 191
f 8 191 165
f 8 165 146
f 8 146 144
f 8 144 124
f 8 124 102
f 8 102 77
f 8 77 56
f 8 56 37
f 8 37 35
f 8 35 22
f 8 22 15
f 8 15 11
f 12 16 17
f 13 18 19
f 14 20 21
f 15 22 23
f 16 24 25
f 16 25 26
f 16 26 17
f 18 27 28
f 18 28 29
f 18 29 19
f 20 30 21
f 20 31 32
f 20 32 33
f 20 33 30
f 21 30 46
f 21 46 34
f 22 35 23
f 23 35 37
f 23 37 36
f 24 38 25
f 25 39 40
f 25 40 26
f 25 38 39
f 26 40 61
f 26 61 41
f 27 42 28
f 28 43 44
f 28 44 45
f 28 45 29
f 28 42 43
f 30 33 46
f 31 47 32
f 32 47 48
f 32 48 49
f 32 49 50
f 32 50 33
f 33 50 46
f 34 46 51
f 36 37 53
f 36 53 54
f 36 54 55
f 36 55 43
f 36 43 52
f 37 56 53
f 38 57 39
f 39 58 59
f 39 59 60
f 39 60 61
f 39 61 40
f 39 57 58
f 41 61 62
f 41 62 63
f 42 64 43
f 43 64 52
f 43 55 44
f 44 55 65
f 44 65 66
f 44 66 45
f 46 67 68
f 46 68 51
f 46 50 69
f 46 69 67
f 48 70 49
f 49 70 71
f 49 71 72
f 49 72 73
f 49 73 74
f 49 74 50
f 50 74 69
f 51 68 75
f 51 75 76
f 53 56 77
f 53 77 78
f 53 78 79
f 53 79 80
f 53 80 81
f 53 81 54
f 54 81 55
f 55 81 65
f 57 82 75
f 57 75 58
f 58 75 83
f 58 83 59
f 59 83 60
f 60 83 84
f 60 84 85
f 60 85 62
f 60 62 61
f 62 85 86
f 62 86 87
f 62 87 88
f 62 88 89
f 62 89 63
f 65 90 91
f 65 91 66
f 65 81 90
f 67 92 93
f 67 93 68
f 67 69 92
f 68 94 75
f 68 93 84
f 68 84 94
f 69 74 95
f 69 95 96
f 69 96 92
f 72 97 73
f 73 97 74
f 74 97 98
f 74 98 99
f 74 99 100
f 74 100 95
f 75 82 101
f 75 101 76
f 75 94 84
f 75 84 83
f 77 102 78
f 78 102 103
f 78 103 104
f 78 104 105
f 78 105 79
f 79 105 80
f 80 105 106
f 80 106 81
f 81 106 107
f 81 107 90
f 84 93 92
f 84 92 96
f 84 96 85
f 85 96 95
f 85 95 108
f 85 108 109
f 85 109 86
f 86 109 110
f 86 110 111
f 86 111 112
f 86 112 87
f 87 112 113
f 87 113 114
f 87 114 115
f 87 115 88
f 88 115 116
f 90 107 117
f 95 100 110
f 95 110 108
f 97 118 98
f 98 118 119
f 98 119 99
f 99 119 120
f 99 120 100
f 100 120 121
f 100 121 122
f 100 122 123
f 100 123 110
f 102 124 103
f 103 124 125
f 103 125 126
f 103 126 127
f 103 127 128
f 103 128 104
f 104 128 106
f 104 106 105
f 106 128 129
f 106 129 130
f 106 130 131
f 106 131 107
f 107 131 117
f 108 110 109
f 110 123 132
f 110 132 133
f 110 133 111
f 111 133 113
f 111 113 112
f 113 133 132
f 113 132 134
f 113 134 115
f 113 115 114
f 115 134 135
f 115 135 116
f 118 136 137
f 118 137 138
f 118 138 119
f 119 138 139
f 119 139 120
f 120 139 140
f 120 140 141
f 120 141 142
f 120 142 122
f 120 122 121
f 122 142 143
f 122 143 123
f 123 143 132
f 124 144 125
f 125 145 126
f 125 144 146
f 125 146 147
f 125 147 145
f 126 145 148
f 126 148 127
f 127 148 149
f 127 149 128
f 128 149 129
f 129 149 150
f 129 150 151
f 129 151 152
f 129 152 130
f 132 143 153
f 132 153 154
f 132 154 134
f 134 155 135
f 134 154 155
f 136 156 137
f 137 139 138
f 137 156 157
f 137 157 158
f 137 158 140
f 137 140 139
f 140 158 159
f 140 159 160
f 140 160 141
f 141 160 161
f 141 161 142
f 142 161 143
f 143 161 162
f 143 162 153
f 145 147 163
f 145 163 164
f 145 164 148
f 146 165 166
f 146 166 147
f 147 166 163
f 148 164 167
f 148 167 168
f 148 168 169
f 148 169 150
f 148 150 149
f 150 169 170
f 150 170 151
f 151 170 171
f 153 162 160
f 153 160 172
f 153 172 173
f 153 173 174
f 153 174 154
f 154 174 175
f 154 175 176
f 154 176 177
f 154 177 155
f 157 178 158
f 158 178 179
f 158 179 159
f 159 179 180
f 159 180 181
f 159 181 182
f 159 182 183
f 159 183 160
f 160 162 161
f 160 183 184
f 160 184 185
f 160 185 172
f 163 186 164
f 163 166 186
f 164 187 188
f 164 188 189
f 164 189 190
f 164 190 167
f 164 186 187
f 165 191 192
f 165 192 166
f 166 192 186
f 167 190 168
f 168 190 193
f 168 193 194
f 168 194 169
f 169 194 171
f 169 171 170
f 172 185 195
f 172 195 173
f 173 195 196
f 173 196 174
f 174 197 198
f 174 198 175
f 174 196 197
f 175 198 199
f 175 199 176
f 178 200 179
f 179 200 180
f 180 200 201
f 180 201 202
f 180 202 181
f 181 202 182
f 182 202 203
f 182 203 204
f 182 204 205
f 182 205 206
f 182 206 183
f 183 206 184
f 184 206 207
f 184 207 208
f 184 208 209
f 184 209 185
f 185 209 195
f 186 192 210
f 186 210 211
f 186 211 212
f 186 212 187
f 187 212 203
f 187 203 213
f 187 213 214
f 187 214 188
f 188 214 189
f 189 215 190
f 190 216 193
f 190 215 216
f 191 217 192
f 191 218 219
f 191 219 217
f 192 217 220
f 192 220 210
f 195 209 196
f 196 209 208
f 196 208 197
f 197 221 199
f 197 199 198
f 197 208 222
f 197 222 221
f 201 223 224
f 201 224 202
f 202 224 203
f 203 224 225
f 203 225 226
f 203 226 213
f 203 212 204
f 204 212 227
f 204 227 228
f 204 228 229
f 204 229 205
f 205 229 230
f 205 230 231
f 205 231 206
f 206 231 207
f 207 231 230
f 207 230 208
f 208 230 232
f 208 232 222
f 210 220 211
f 211 233 212
f 211 220 233
f 212 233 227
f 213 226 214
f 217 219 220
f 218 234 219
f 219 234 220
f 220 234 235
f 220 235 236
f 220 236 233
f 223 226 225
f 223 225 224
f 227 233 236
f 227 236 228
f 228 236 235
f 228 235 229
f 229 235 230
f 230 235 237
f 230 237 232
f 234 238 235
f 235 238 237

