# https://github.com/mikedh/trimesh
v -0.00184320 -0.03206092 0.03661803
v -0.00184320 -0.03205813 0.03730247
v -0.00184320 -0.03203718 0.03661803
v -0.00104056 -0.03533776 0.03661803
v -0.00104383 -0.03618524 0.03730363
v -0.00184320 -0.03204556 0.03957456
v -0.00184320 -0.02858443 0.03661919
v -0.00184211 -0.02858443 0.03661803
v -0.00082771 -0.03613917 0.03661803
v -0.00069126 -0.03668368 0.03673003
v -0.00075130 -0.03672138 0.03730363
v -0.00069126 -0.03668368 0.03789227
v -0.00081097 -0.03617966 0.03816489
v -0.00065561 -0.03589484 0.03862156
v -0.00014732 -0.03596046 0.03864529
v -0.00098962 -0.03209303 0.03957456
v -0.00184320 -0.02256967 0.03957456
v -0.00184320 -0.02256967 0.03933378
v 0.00069972 -0.02858443 0.03661803
v -0.00072474 -0.03646029 0.03661803
v -0.00014732 -0.03668228 0.03661803
v -0.00014732 -0.03672138 0.03665508
v -0.00014732 -0.03683307 0.03730363
v -0.00014732 -0.03672138 0.03797475
v -0.00014732 -0.03638490 0.03839814
v 0.00069972 -0.03596046 0.03864529
v -0.00014732 -0.03212515 0.03957456
v 0.00138084 -0.02256967 0.03957456
v 0.00069972 -0.02256967 0.03933378
v 0.00140631 -0.02878408 0.03661803
v 0.00122075 -0.02256967 0.03937777
v 0.00069972 -0.03668228 0.03661803
v 0.00069972 -0.03672138 0.03665508
v 0.00069972 -0.03683307 0.03730363
v 0.00069972 -0.03672138 0.03797475
v 0.00069972 -0.03638490 0.03839814
v 0.00122038 -0.03589484 0.03862156
v 0.00122075 -0.03197575 0.03957456
v 0.00069972 -0.03212235 0.03957456
v 0.00035079 -0.03212375 0.03957456
v 0.00186475 -0.02940817 0.03957428
v 0.00173268 -0.02940817 0.03661803
v 0.00185420 -0.03107242 0.03957456
v 0.00146889 -0.02890275 0.03661803
v 0.00113451 -0.03659433 0.03661803
v 0.00126004 -0.03668368 0.03673003
v 0.00132844 -0.03672138 0.03730363
v 0.00126004 -0.03668368 0.03789227
v 0.00139430 -0.03617966 0.03816489
v 0.00185347 -0.03110035 0.03957456
v 0.00153838 -0.03186685 0.03957456
v 0.00187348 -0.03025286 0.03957428
v 0.00177597 -0.03025286 0.03661803
v 0.00174104 -0.02956873 0.03661803
v 0.00177597 -0.03533776 0.03730363
v 0.00129861 -0.03646308 0.03661803
v 0.00141504 -0.03614336 0.03661803
v 0.00165481 -0.03618524 0.03730363
v 0.00159514 -0.03533776 0.03815071
v 0.00177124 -0.03465224 0.03661803
v 0.00177597 -0.03380475 0.03661803
v 0.00163698 -0.03549972 0.03661803
f 1 2 6
f 1 6 17
f 1 17 18
f 1 18 7
f 1 7 3
f 1 3 8
f 1 8 19
f 1 19 30
f 1 30 44
f 1 44 42
f 1 42 54
f 1 54 53
f 1 53 61
f 1 61 60
f 1 60 62
f 1 62 57
f 1 57 56
f 1 56 45
f 1 45 32
f 1 32 21
f 1 21 20
f 1 20 9
f 1 9 4
f 1 4 5
f 1 5 2
f 2 5 6
f 3 7 8
f 4 9 5
f 5 9 10
f 5 10 11
f 5 11 12
f 5 12 13
f 5 13 6
f 6 13 14
f 6 14 15
f 6 15 16
f 6 16 27
f 6 27 40
f 6 40 39
f 6 39 38
f 6 38 51
f 6 51 50
f 6 50 43
f 6 43 28
f 6 28 17
f 7 18 8
f 8 18 29
f 8 29 19
f 9 20 10
f 10 21 22
f 10 22 23
f 10 23 11
f 10 20 21
f 11 23 12
f 12 23 24
f 12 24 25
f 12 25 14
f 12 14 13
f 14 25 15
f 15 25 36
f 15 36 26
f 15 26 27
f 15 27 16
f 17 28 31
f 17 31 29
f 17 29 18
f 19 29 31
f 19 31 30
f 21 32 33
f 21 33 22
f 22 33 34
f 22 34 23
f 23 34 35
f 23 35 24
f 24 35 36
f 24 36 25
f 26 36 37
f 26 37 38
f 26 38 39
f 26 39 40
f 26 40 27
f 28 41 42
f 28 42 31
f 28 43 41
f 30 31 44
f 31 42 44
f 32 45 33
f 33 45 46
f 33 46 34
f 34 46 47
f 34 47 48
f 34 48 35
f 35 48 36
f 36 48 37
f 37 48 49
f 37 49 50
f 37 50 51
f 37 51 38
f 41 52 53
f 41 53 54
f 41 54 42
f 41 43 52
f 43 50 55
f 43 55 52
f 45 56 46
f 46 56 57
f 46 57 58
f 46 58 47
f 47 58 48
f 48 58 49
f 49 58 59
f 49 59 50
f 50 59 55
f 52 55 60
f 52 60 61
f 52 61 53
f 55 59 58
f 55 58 60
f 57 62 58
f 58 62 60

