# https://github.com/mikedh/trimesh
v 0.01106896 -0.03088786 0.05435553
v 0.01106896 -0.03068907 0.05340409
v 0.00620376 -0.03253563 0.05435553
v 0.01106896 -0.03383894 0.05435553
v 0.01106896 -0.03052541 0.05255639
v 0.01106896 -0.03052112 0.05253198
v 0.01106896 -0.03037888 0.05170925
v 0.01106896 -0.03035660 0.05157055
v 0.01106896 -0.03024692 0.05086210
v 0.00620376 -0.03257162 0.05423126
v 0.00620376 -0.03899990 0.05435553
v 0.01106896 -0.03330339 0.05086210
v 0.00719004 -0.03843522 0.05435553
v 0.00705479 -0.03830326 0.04960387
v 0.01106896 -0.03043286 0.05026960
v 0.01101896 -0.03045172 0.05027681
v 0.00620376 -0.03270787 0.05383848
v 0.00620376 -0.03879082 0.05086210
v 0.00663189 -0.03861516 0.05086210
v 0.00625662 -0.03897676 0.05435553
v 0.01106896 -0.03312945 0.05001496
v 0.00663189 -0.03881224 0.05435553
v 0.00671619 -0.03852090 0.04993784
v 0.00647188 -0.03845407 0.04916726
v 0.00627853 -0.03833667 0.04872510
v 0.00689573 -0.03814473 0.04916726
v 0.00790487 -0.03661264 0.04874230
v 0.01061987 -0.03341822 0.04945130
v 0.01106896 -0.03104639 0.04999720
v 0.01086847 -0.03175245 0.04966267
v 0.01002077 -0.03218774 0.04952065
v 0.00939691 -0.03226915 0.04954506
v 0.00959740 -0.03152538 0.05043825
v 0.00850492 -0.03296750 0.04943078
v 0.00620376 -0.03292637 0.05340409
v 0.00620376 -0.03870684 0.04998001
v 0.01106896 -0.03264103 0.04949735
v 0.00620376 -0.03847892 0.04916670
v 0.00658903 -0.03783797 0.04871012
v 0.00709860 -0.03752693 0.04872510
v 0.00620376 -0.03833667 0.04872510
v 0.00742054 -0.03695025 0.04872066
v 0.00878352 -0.03497944 0.04873120
v 0.01106896 -0.03195896 0.04961940
v 0.01086847 -0.03217575 0.04953064
v 0.00917355 -0.03364443 0.04898585
v 0.00913784 -0.03273014 0.04937197
v 0.00704241 -0.03489632 0.04873564
v 0.00770390 -0.03382095 0.04934867
v 0.00620376 -0.03305576 0.05318662
v 0.01106896 -0.03220745 0.04954229
v 0.00878352 -0.03482520 0.04873120
v 0.00663189 -0.03703337 0.04868793
v 0.00620376 -0.03787310 0.04871511
v 0.00747911 -0.03618592 0.04870124
v 0.00829490 -0.03529220 0.04871789
v 0.00832681 -0.03435649 0.04879445
v 0.00747911 -0.03483291 0.04872843
v 0.00747911 -0.03533847 0.04870069
v 0.00696526 -0.03533847 0.04872399
v 0.00620376 -0.03647383 0.04872399
v 0.00620376 -0.03604711 0.04900193
v 0.00620376 -0.03568979 0.04943910
v 0.00620376 -0.03320314 0.05296637
v 0.00832681 -0.03477893 0.04872510
v 0.00620376 -0.03703337 0.04871179
v 0.00620376 -0.03655609 0.04872122
v 0.00665237 -0.03620648 0.04871012
f 1 2 3
f 1 3 11
f 1 11 20
f 1 20 22
f 1 22 13
f 1 13 4
f 1 4 12
f 1 12 21
f 1 21 37
f 1 37 51
f 1 51 44
f 1 44 29
f 1 29 15
f 1 15 9
f 1 9 8
f 1 8 7
f 1 7 6
f 1 6 5
f 1 5 2
f 2 5 3
f 3 5 6
f 3 6 7
f 3 7 8
f 3 8 9
f 3 9 10
f 3 10 17
f 3 17 35
f 3 35 50
f 3 50 64
f 3 64 63
f 3 63 62
f 3 62 61
f 3 61 67
f 3 67 66
f 3 66 54
f 3 54 41
f 3 41 38
f 3 38 36
f 3 36 18
f 3 18 11
f 4 13 14
f 4 14 12
f 9 15 16
f 9 16 10
f 10 16 17
f 11 18 19
f 11 19 20
f 12 14 21
f 13 22 14
f 14 22 23
f 14 23 24
f 14 24 25
f 14 25 26
f 14 26 27
f 14 27 28
f 14 28 21
f 15 29 30
f 15 30 31
f 15 31 32
f 15 32 16
f 16 33 17
f 16 32 34
f 16 34 33
f 17 33 35
f 18 36 23
f 18 23 19
f 19 22 20
f 19 23 22
f 21 28 37
f 23 36 24
f 24 38 25
f 24 36 38
f 25 39 40
f 25 40 26
f 25 38 41
f 25 41 39
f 26 40 27
f 27 40 42
f 27 42 43
f 27 43 28
f 28 43 37
f 29 44 30
f 30 44 45
f 30 45 46
f 30 46 31
f 31 46 47
f 31 47 32
f 32 47 48
f 32 48 34
f 33 34 35
f 34 49 35
f 34 48 49
f 35 49 50
f 37 43 52
f 37 52 51
f 39 53 42
f 39 42 40
f 39 41 53
f 41 54 53
f 42 53 55
f 42 55 43
f 43 55 56
f 43 56 52
f 44 51 45
f 45 51 46
f 46 57 47
f 46 51 52
f 46 52 57
f 47 57 48
f 48 58 59
f 48 59 60
f 48 60 61
f 48 61 62
f 48 62 63
f 48 63 64
f 48 64 50
f 48 50 49
f 48 57 58
f 52 56 59
f 52 59 65
f 52 65 57
f 53 59 55
f 53 54 66
f 53 66 67
f 53 67 68
f 53 68 59
f 55 59 56
f 57 65 58
f 58 65 59
f 59 68 60
f 60 68 61
f 61 68 67

