# https://github.com/mikedh/trimesh
v 0.00629688 0.01608744 0.02289196
v 0.00629688 0.01381187 0.02289196
v 0.01229304 0.02736486 0.02013498
v 0.00629688 0.02736486 0.02288309
v 0.00629688 0.01296481 0.02289137
v 0.01229304 0.02736486 0.01685110
v 0.00653342 0.00599798 0.02276954
v 0.01229304 0.00599798 0.02006579
v 0.00629688 0.02736486 0.01685110
v 0.00629688 0.01211775 0.02288841
v 0.01229304 0.02086654 0.01685110
v 0.00648177 0.00599798 0.02279024
v 0.01229304 0.00599798 0.01763408
v 0.00629688 0.02389714 0.01685110
v 0.00629688 0.00599798 0.02286298
v 0.00636907 0.00599798 0.02283459
v 0.00629688 0.00599798 0.01763408
f 1 2 3
f 1 3 4
f 1 4 9
f 1 9 14
f 1 14 17
f 1 17 15
f 1 15 10
f 1 10 5
f 1 5 2
f 2 5 3
f 3 6 9
f 3 9 4
f 3 5 7
f 3 7 8
f 3 8 13
f 3 13 11
f 3 11 6
f 5 10 7
f 6 11 14
f 6 14 9
f 7 12 16
f 7 16 15
f 7 15 17
f 7 17 13
f 7 13 8
f 7 10 12
f 10 15 16
f 10 16 12
f 11 13 17
f 11 17 14

