# https://github.com/mikedh/trimesh
v 0.01398399 -0.03463907 0.06696276
v 0.01384621 -0.03493387 0.06696276
v 0.01398270 -0.03463907 0.06625717
v 0.01397946 -0.03463907 0.06719824
v 0.01383392 -0.03491424 0.06821665
v 0.01383909 -0.03492428 0.06765183
v 0.01384556 -0.03493113 0.06635710
v 0.01355124 -0.03533864 0.06865808
v 0.01361722 -0.03525970 0.06788471
v 0.01313920 -0.03594285 0.06780998
v 0.01398205 -0.03463907 0.06614247
v 0.01396329 -0.03463907 0.06794728
v 0.01382939 -0.03490512 0.06865808
v 0.01382680 -0.03490466 0.06579228
v 0.01313273 -0.03594696 0.06865808
v 0.01381969 -0.03488458 0.06950530
v 0.01380869 -0.03486176 0.07035166
v 0.01349626 -0.03533864 0.07035166
v 0.01277437 -0.03637090 0.06865808
v 0.01235068 -0.03680215 0.06865808
v 0.01270386 -0.03636634 0.06780998
v 0.01310038 -0.03587714 0.06696276
v 0.01397558 -0.03463907 0.06602950
v 0.01392836 -0.03463907 0.06950530
v 0.01381128 -0.03488914 0.06559329
v 0.01394453 -0.03463907 0.06559329
v 0.01276984 -0.03634535 0.06950530
v 0.01305187 -0.03584702 0.07289420
v 0.01270904 -0.03627051 0.07289420
v 0.01272585 -0.03628830 0.07204611
v 0.01391736 -0.03463907 0.06997019
v 0.01390831 -0.03463907 0.07035166
v 0.01389537 -0.03463907 0.07076702
v 0.01388179 -0.03463907 0.07119888
v 0.01379446 -0.03483164 0.07119888
v 0.01346586 -0.03533864 0.07119888
v 0.01234615 -0.03681858 0.06950530
v 0.01180603 -0.03722519 0.06865808
v 0.01228017 -0.03671727 0.06780998
v 0.01187524 -0.03724207 0.06950530
v 0.01145155 -0.03757383 0.06950530
v 0.01303958 -0.03580777 0.06637882
v 0.01364568 -0.03504886 0.06559329
v 0.00979495 -0.03463907 0.06559329
v 0.01230216 -0.03677021 0.07204611
v 0.01231704 -0.03678709 0.07119888
v 0.01339600 -0.03533864 0.07289420
v 0.01303182 -0.03582055 0.07374143
v 0.01228535 -0.03675241 0.07289420
v 0.01268769 -0.03624450 0.07374143
v 0.01226400 -0.03673096 0.07374143
v 0.01386756 -0.03463907 0.07154994
v 0.01384556 -0.03463907 0.07204611
v 0.01377506 -0.03479103 0.07204611
v 0.01335266 -0.03533864 0.07374143
v 0.01186101 -0.03722655 0.07035166
v 0.01138233 -0.03752135 0.06865808
v 0.00899220 -0.03849657 0.06559329
v 0.01143732 -0.03756562 0.07035166
v 0.01086808 -0.03794667 0.06950530
v 0.01030726 -0.03822139 0.06865808
v 0.01086808 -0.03786225 0.06865808
v 0.01292897 -0.03572700 0.06581401
v 0.01339082 -0.03526426 0.06559329
v 0.00737571 -0.03697009 0.06559329
v 0.00737571 -0.03463907 0.07395780
v 0.01300788 -0.03578952 0.07446961
v 0.01266440 -0.03621346 0.07446961
v 0.01180408 -0.03717590 0.07289420
v 0.01182414 -0.03719370 0.07204611
v 0.01230022 -0.03664106 0.07446961
v 0.01177821 -0.03715445 0.07374143
v 0.01224071 -0.03670906 0.07446961
v 0.01217279 -0.03676838 0.07446961
v 0.01383263 -0.03463907 0.07232070
v 0.01375436 -0.03474539 0.07289420
v 0.01373107 -0.03469520 0.07374143
v 0.01335977 -0.03524875 0.07446961
v 0.01330673 -0.03533864 0.07446961
v 0.01138039 -0.03752638 0.07289420
v 0.01140045 -0.03754098 0.07204611
v 0.00861250 -0.03874300 0.06559329
v 0.01287269 -0.03569414 0.06559329
v 0.00977619 -0.03841716 0.06780998
v 0.01086808 -0.03790606 0.07119888
v 0.01086808 -0.03792933 0.07035166
v 0.01086808 -0.03788232 0.07204611
v 0.01034154 -0.03825379 0.06950530
v 0.00988357 -0.03845048 0.06865808
v 0.00737571 -0.03923950 0.06559329
v 0.00737571 -0.03463907 0.07446961
v 0.01135452 -0.03750675 0.07374143
v 0.01175298 -0.03713209 0.07446961
v 0.01132929 -0.03748667 0.07446961
v 0.01380416 -0.03463907 0.07289420
v 0.01379381 -0.03463907 0.07308363
v 0.01375759 -0.03463907 0.07374143
v 0.01370972 -0.03464819 0.07446961
v 0.01086808 -0.03785631 0.07289420
v 0.01086808 -0.03782209 0.07374143
v 0.00832659 -0.03890454 0.06559329
v 0.00917397 -0.03871927 0.06780998
v 0.00801351 -0.03906335 0.06559329
v 0.01027492 -0.03821044 0.07289420
v 0.01032602 -0.03824467 0.07035166
v 0.00991785 -0.03845093 0.06950530
v 0.00985123 -0.03843451 0.07289420
v 0.00990168 -0.03844728 0.07035166
v 0.00917397 -0.03875212 0.06865808
v 0.00740934 -0.03923311 0.06559329
v 0.00746303 -0.03923403 0.06611553
v 0.00737571 -0.03924863 0.06602690
v 0.01371360 -0.03463907 0.07446961
v 0.00737571 -0.03929426 0.07446961
v 0.01086808 -0.03778741 0.07446961
v 0.01375242 -0.03463907 0.07382746
v 0.01023093 -0.03818123 0.07446961
v 0.01025357 -0.03819584 0.07374143
v 0.00788672 -0.03914823 0.06611553
v 0.00784468 -0.03913545 0.06559329
v 0.00980724 -0.03841716 0.07446961
v 0.00982988 -0.03842721 0.07374143
v 0.00917397 -0.03872520 0.07289420
v 0.00917397 -0.03874391 0.07035166
v 0.00917397 -0.03874984 0.06950530
v 0.00917397 -0.03871197 0.07374143
v 0.00833694 -0.03902913 0.06865808
v 0.00833176 -0.03903049 0.06780998
v 0.00835828 -0.03901863 0.07289420
v 0.00793459 -0.03916192 0.07289420
v 0.00742099 -0.03923083 0.06559329
v 0.00737571 -0.03924954 0.06611553
v 0.00756200 -0.03922216 0.06697840
v 0.00747920 -0.03924635 0.06780998
v 0.00737571 -0.03927373 0.06865808
v 0.00737571 -0.03926597 0.06780998
v 0.00747920 -0.03927008 0.07446961
v 0.00737571 -0.03930020 0.07374143
v 0.00747920 -0.03927647 0.07374143
v 0.00986610 -0.03838476 0.07446961
v 0.00790031 -0.03915097 0.06670642
v 0.00971539 -0.03845732 0.07446961
v 0.00917397 -0.03869371 0.07446961
v 0.00835505 -0.03901270 0.07374143
v 0.00834534 -0.03900448 0.07446961
v 0.00791324 -0.03915462 0.06865808
v 0.00790807 -0.03915325 0.06780998
v 0.00793071 -0.03916056 0.07204611
v 0.00792683 -0.03915919 0.07119888
v 0.00793136 -0.03916101 0.07374143
v 0.00747920 -0.03927829 0.07289420
v 0.00747920 -0.03925365 0.06865808
v 0.00737571 -0.03928103 0.06950530
v 0.00792165 -0.03915827 0.07446961
v 0.00737571 -0.03930111 0.07289420
v 0.00747920 -0.03927190 0.07119888
v 0.00747920 -0.03926688 0.07035166
v 0.00747920 -0.03926050 0.06950530
v 0.00798052 -0.03913728 0.07446961
v 0.00747920 -0.03927510 0.07204611
v 0.00737571 -0.03928788 0.07035166
v 0.00737571 -0.03929335 0.07119888
f 1 2 3
f 1 3 11
f 1 11 23
f 1 23 26
f 1 26 44
f 1 44 66
f 1 66 91
f 1 91 113
f 1 113 116
f 1 116 97
f 1 97 96
f 1 96 95
f 1 95 75
f 1 75 53
f 1 53 52
f 1 52 34
f 1 34 33
f 1 33 32
f 1 32 31
f 1 31 24
f 1 24 12
f 1 12 4
f 1 4 5
f 1 5 6
f 1 6 2
f 2 7 3
f 2 6 8
f 2 8 9
f 2 9 10
f 2 10 7
f 3 7 11
f 4 12 13
f 4 13 5
f 5 13 8
f 5 8 6
f 7 14 11
f 7 10 14
f 8 15 9
f 8 13 16
f 8 16 17
f 8 17 18
f 8 18 15
f 9 15 10
f 10 15 19
f 10 19 20
f 10 20 21
f 10 21 22
f 10 22 14
f 11 14 23
f 12 24 16
f 12 16 13
f 14 25 26
f 14 26 23
f 14 22 25
f 15 27 19
f 15 18 28
f 15 28 29
f 15 29 30
f 15 30 27
f 16 24 31
f 16 31 32
f 16 32 17
f 17 32 33
f 17 33 34
f 17 34 35
f 17 35 36
f 17 36 18
f 18 36 28
f 19 27 37
f 19 37 20
f 20 38 39
f 20 39 21
f 20 37 40
f 20 40 41
f 20 41 38
f 21 39 22
f 22 42 25
f 22 39 42
f 25 42 43
f 25 43 64
f 25 64 83
f 25 83 58
f 25 58 82
f 25 82 101
f 25 101 103
f 25 103 120
f 25 120 131
f 25 131 110
f 25 110 90
f 25 90 65
f 25 65 44
f 25 44 26
f 27 30 45
f 27 45 46
f 27 46 37
f 28 36 47
f 28 47 48
f 28 48 29
f 29 49 45
f 29 45 30
f 29 48 50
f 29 50 51
f 29 51 49
f 34 52 35
f 35 52 53
f 35 53 54
f 35 54 55
f 35 55 47
f 35 47 36
f 37 46 56
f 37 56 40
f 38 57 39
f 38 41 57
f 39 57 58
f 39 58 42
f 40 56 59
f 40 59 41
f 41 60 61
f 41 61 62
f 41 62 57
f 41 59 60
f 42 58 63
f 42 63 43
f 43 63 64
f 44 65 66
f 45 49 56
f 45 56 46
f 47 55 48
f 48 55 67
f 48 67 68
f 48 68 50
f 49 69 70
f 49 70 56
f 49 51 69
f 50 68 71
f 50 71 51
f 51 72 69
f 51 71 73
f 51 73 74
f 51 74 72
f 53 75 54
f 54 75 76
f 54 76 55
f 55 76 77
f 55 77 78
f 55 78 79
f 55 79 67
f 56 70 80
f 56 80 81
f 56 81 59
f 57 62 58
f 58 83 63
f 58 62 84
f 58 84 82
f 59 85 86
f 59 86 60
f 59 81 87
f 59 87 85
f 60 88 61
f 60 86 88
f 61 88 89
f 61 89 84
f 61 84 62
f 63 83 64
f 65 90 112
f 65 112 132
f 65 132 136
f 65 136 135
f 65 135 153
f 65 153 161
f 65 161 162
f 65 162 155
f 65 155 138
f 65 138 114
f 65 114 91
f 65 91 66
f 67 79 78
f 67 78 98
f 67 98 113
f 67 113 91
f 67 91 114
f 67 114 137
f 67 137 154
f 67 154 159
f 67 159 145
f 67 145 143
f 67 143 142
f 67 142 121
f 67 121 140
f 67 140 117
f 67 117 115
f 67 115 94
f 67 94 93
f 67 93 74
f 67 74 73
f 67 73 71
f 67 71 68
f 69 80 70
f 69 72 92
f 69 92 80
f 72 74 93
f 72 93 94
f 72 94 92
f 75 95 76
f 76 95 96
f 76 96 97
f 76 97 77
f 77 97 98
f 77 98 78
f 80 99 81
f 80 92 100
f 80 100 99
f 81 99 87
f 82 84 101
f 84 89 102
f 84 102 103
f 84 103 101
f 85 87 104
f 85 104 86
f 86 105 88
f 86 104 105
f 87 99 104
f 88 106 89
f 88 105 107
f 88 107 108
f 88 108 106
f 89 109 102
f 89 106 109
f 90 110 111
f 90 111 112
f 92 94 115
f 92 115 100
f 97 116 98
f 98 116 113
f 99 100 117
f 99 117 118
f 99 118 104
f 100 115 117
f 102 109 119
f 102 119 120
f 102 120 103
f 104 118 121
f 104 121 122
f 104 122 105
f 105 122 107
f 106 108 123
f 106 123 124
f 106 124 125
f 106 125 109
f 107 123 108
f 107 122 126
f 107 126 123
f 109 127 128
f 109 128 119
f 109 125 129
f 109 129 130
f 109 130 127
f 110 131 111
f 111 132 112
f 111 131 119
f 111 119 133
f 111 133 134
f 111 134 135
f 111 135 136
f 111 136 132
f 114 138 139
f 114 139 137
f 117 140 118
f 118 140 121
f 119 141 133
f 119 131 120
f 119 128 141
f 121 142 122
f 122 142 143
f 122 143 126
f 123 126 144
f 123 144 129
f 123 129 124
f 124 129 125
f 126 143 145
f 126 145 144
f 127 130 128
f 128 146 147
f 128 147 141
f 128 130 148
f 128 148 149
f 128 149 146
f 129 144 150
f 129 150 130
f 130 150 151
f 130 151 148
f 133 141 134
f 134 141 152
f 134 152 153
f 134 153 135
f 137 139 154
f 138 155 151
f 138 151 139
f 139 150 154
f 139 151 150
f 141 147 156
f 141 156 157
f 141 157 158
f 141 158 152
f 144 145 159
f 144 159 154
f 144 154 150
f 146 149 151
f 146 151 147
f 147 151 160
f 147 160 156
f 148 151 149
f 151 155 160
f 152 158 161
f 152 161 153
f 155 162 156
f 155 156 160
f 156 162 157
f 157 161 158
f 157 162 161

