# https://github.com/mikedh/trimesh
v 0.01229441 0.01095711 0.01442386
v 0.01229441 0.01118629 0.01527106
v 0.01229441 0.01097108 0.01438923
v 0.01647714 -0.00044906 0.01442386
v 0.01651957 -0.00044906 0.01457013
v 0.01229441 0.01153287 0.01571959
v 0.01229441 0.01135958 0.01379185
v 0.01686037 -0.00044906 0.01376725
v 0.01673172 -0.00044906 0.01527106
v 0.01229441 0.02087078 0.01683960
v 0.01679605 -0.00044906 0.01535002
v 0.01711495 -0.00044906 0.01573027
v 0.01229441 0.01148256 0.01373619
v 0.01764874 -0.00044906 0.01353393
v 0.01229441 0.01238812 0.01354752
v 0.01229441 0.02810410 0.01683960
v 0.02322754 -0.00044906 0.01683960
v 0.02442652 -0.00044906 0.01353393
v 0.01229441 0.01296388 0.01353457
v 0.01229441 0.01323499 0.01353393
v 0.01239022 0.02805658 0.01683960
v 0.01229441 0.02589329 0.01429085
v 0.02588144 -0.00044906 0.01683960
v 0.02527374 -0.00044906 0.01366434
v 0.02442652 0.00025247 0.01353393
v 0.02527374 0.00025247 0.01366176
v 0.01229441 0.02340020 0.01353393
v 0.01241759 0.02804261 0.01683960
v 0.01229441 0.02561939 0.01401190
v 0.01262289 0.02793360 0.01683960
v 0.01299107 0.02525046 0.01399863
v 0.02610043 -0.00044906 0.01611827
v 0.02589376 0.00025247 0.01683960
v 0.02581575 -0.00044906 0.01389734
v 0.02581848 0.00025247 0.01389475
v 0.02442652 0.00110213 0.01353425
v 0.02357930 0.00703301 0.01353393
v 0.02442652 0.00194900 0.01353490
v 0.02442652 0.00279587 0.01353749
v 0.02527374 0.00110213 0.01366758
v 0.01229441 0.02397876 0.01354234
v 0.01341126 0.02313189 0.01353717
v 0.01425848 0.02228222 0.01353393
v 0.01256404 0.02536784 0.01392291
v 0.01229441 0.02546287 0.01389669
v 0.01352213 0.02741933 0.01683960
v 0.01355498 0.02506320 0.01420930
v 0.01453633 0.02428900 0.01411222
v 0.01397243 0.02449582 0.01393391
v 0.01332777 0.02479768 0.01387599
v 0.01358509 0.02738021 0.01683960
v 0.02626878 -0.00044906 0.01527106
v 0.02610728 0.00025247 0.01611827
v 0.02589239 0.00037824 0.01683960
v 0.02613602 -0.00044906 0.01442386
v 0.02614286 0.00025247 0.01442386
v 0.02581164 0.00110213 0.01390058
v 0.02273208 0.00957361 0.01353393
v 0.02273208 0.01042327 0.01353749
v 0.02357930 0.00787987 0.01354040
v 0.02442652 0.00364274 0.01354331
v 0.02442652 0.00448961 0.01355594
v 0.02527374 0.00194900 0.01368538
v 0.01229441 0.02424707 0.01355723
v 0.01256404 0.02397876 0.01354623
v 0.01510571 0.02228222 0.01356597
v 0.01595430 0.02143536 0.01355820
v 0.01680152 0.02058849 0.01355400
v 0.01595430 0.02058849 0.01353393
v 0.01256404 0.02482562 0.01370188
v 0.01229441 0.02508276 0.01374233
v 0.01425848 0.02691624 0.01683960
v 0.01486071 0.02453775 0.01467724
v 0.01515635 0.02401789 0.01437046
v 0.01545199 0.02348405 0.01406400
v 0.01488672 0.02372162 0.01389864
v 0.01425575 0.02399553 0.01380867
v 0.02627563 0.00025247 0.01527106
v 0.02626468 0.00110213 0.01527106
v 0.02609359 0.00110213 0.01611827
v 0.02587323 0.00103785 0.01683960
v 0.02612781 0.00110213 0.01442386
v 0.02527374 0.00279587 0.01371127
v 0.02578974 0.00194900 0.01391741
v 0.02103626 0.01381075 0.01353393
v 0.02188349 0.01211701 0.01353457
v 0.02273208 0.01127014 0.01355982
v 0.02103626 0.01465762 0.01354687
v 0.02188349 0.01296388 0.01355043
v 0.02442652 0.00533927 0.01357632
v 0.02357930 0.00872674 0.01356370
v 0.01341126 0.02397876 0.01361613
v 0.01425848 0.02313189 0.01357762
v 0.01229441 0.02482562 0.01366337
v 0.01680152 0.02143536 0.01369153
v 0.01764874 0.01974162 0.01356144
v 0.01934182 0.01719822 0.01354267
v 0.01849596 0.01804509 0.01353555
v 0.01764874 0.01889475 0.01353393
v 0.01495104 0.02636005 0.01683960
v 0.01542598 0.02431415 0.01495328
v 0.01634027 0.02267352 0.01402808
v 0.01723129 0.02186578 0.01399572
v 0.01577500 0.02291947 0.01388699
v 0.01514403 0.02317381 0.01377826
v 0.02622225 0.00194900 0.01527106
v 0.02605390 0.00194900 0.01611827
v 0.02584175 0.00194900 0.01683960
v 0.02576237 0.00279587 0.01394103
v 0.02608538 0.00194900 0.01442386
v 0.02521215 0.00448961 0.01378893
v 0.02535039 0.00368746 0.01380285
v 0.02442652 0.00618614 0.01360286
v 0.02442652 0.00703301 0.01363878
v 0.02513824 0.00533927 0.01380932
v 0.02018904 0.01550448 0.01353587
v 0.02357930 0.00957361 0.01360771
v 0.02188349 0.01381075 0.01360286
v 0.02273208 0.01211701 0.01362098
v 0.02018904 0.01635135 0.01356532
v 0.02103626 0.01550448 0.01361160
v 0.01680152 0.02205024 0.01390446
v 0.01743933 0.02143536 0.01390058
v 0.01773223 0.02067234 0.01375852
v 0.01856029 0.01980311 0.01377210
v 0.01934182 0.01804509 0.01359639
v 0.01849596 0.01889475 0.01357244
v 0.01522752 0.02611968 0.01683960
v 0.01807030 0.02101053 0.01400219
v 0.01718202 0.02266513 0.01490539
v 0.02603063 0.00279587 0.01442386
v 0.02616339 0.00279587 0.01527106
v 0.02600052 0.00279587 0.01611827
v 0.02580480 0.00279587 0.01682957
v 0.02580206 0.00277910 0.01683960
v 0.02507254 0.00618614 0.01383586
v 0.02572952 0.00343591 0.01396983
v 0.02442652 0.00787987 0.01371742
v 0.02501095 0.00703301 0.01387178
v 0.02357930 0.01042327 0.01368279
v 0.02196013 0.01472469 0.01377308
v 0.02256920 0.01381075 0.01383618
v 0.02337536 0.01211701 0.01385366
v 0.02173567 0.01550448 0.01384298
v 0.02018904 0.01719822 0.01367308
v 0.01832077 0.02044595 0.01388149
v 0.01910640 0.01956274 0.01389411
v 0.01936919 0.01891152 0.01379314
v 0.01583522 0.02554113 0.01683960
v 0.01827287 0.02122015 0.01456689
v 0.01857946 0.02068072 0.01430121
v 0.01888604 0.02012732 0.01403520
v 0.01611854 0.02526164 0.01683960
v 0.02589650 0.00368746 0.01434910
v 0.02585681 0.00448961 0.01450670
v 0.02578974 0.00533927 0.01463355
v 0.02608675 0.00364274 0.01527106
v 0.02593209 0.00364274 0.01611827
v 0.02576784 0.00364274 0.01672504
v 0.02580069 0.00279587 0.01683960
v 0.02574047 0.00345827 0.01683960
v 0.02568298 0.00400049 0.01401675
v 0.02422806 0.00957361 0.01384103
v 0.02491651 0.00787987 0.01394394
v 0.02361762 0.01124499 0.01381709
v 0.02242001 0.01448992 0.01391546
v 0.02324397 0.01274028 0.01393100
v 0.02403371 0.01094593 0.01397145
v 0.02411035 0.01042327 0.01391255
v 0.02106774 0.01636253 0.01379573
v 0.02017946 0.01798640 0.01385009
v 0.02155910 0.01608583 0.01392873
v 0.02229272 0.01505450 0.01401675
v 0.01989066 0.01864041 0.01391449
v 0.01883814 0.02091550 0.01502092
v 0.01636080 0.02499612 0.01683960
v 0.01659485 0.02473619 0.01683960
v 0.01905987 0.02035092 0.01460022
v 0.01985234 0.01942300 0.01468695
v 0.01967030 0.01920499 0.01412193
v 0.02556117 0.00533927 0.01420995
v 0.02538734 0.00703301 0.01442386
v 0.02573636 0.00600726 0.01475070
v 0.02563645 0.00448961 0.01408309
v 0.02597041 0.00448961 0.01527106
v 0.02580617 0.00456228 0.01619529
v 0.02569530 0.00489208 0.01652893
v 0.02572815 0.00432750 0.01662246
v 0.02567614 0.00404521 0.01683960
v 0.02572267 0.00364274 0.01683960
v 0.02485355 0.00831589 0.01399669
v 0.02392558 0.01151051 0.01410089
v 0.02310847 0.01330486 0.01405300
v 0.02418152 0.01124499 0.01439958
v 0.02492062 0.00939473 0.01469730
v 0.02063797 0.01766498 0.01397954
v 0.02137159 0.01665041 0.01410186
v 0.02174251 0.01636253 0.01440023
v 0.02156321 0.01693270 0.01466689
v 0.02244876 0.01533679 0.01458145
v 0.02315774 0.01423837 0.01484099
v 0.02325081 0.01381075 0.01467045
v 0.01713822 0.02410453 0.01683960
v 0.01741470 0.02378032 0.01683960
v 0.01810041 0.02274060 0.01649237
v 0.02062018 0.01848110 0.01483063
v 0.02015345 0.01884444 0.01447628
v 0.01793480 0.02315984 0.01683960
v 0.01888057 0.02180708 0.01665935
v 0.02045594 0.01822956 0.01426561
v 0.02519983 0.00787987 0.01442386
v 0.02537503 0.00787987 0.01527106
v 0.02556254 0.00703301 0.01527106
v 0.02567066 0.00640694 0.01527106
v 0.02570351 0.00580882 0.01573609
v 0.02574047 0.00533927 0.01592767
v 0.02566793 0.00533927 0.01635159
v 0.02560497 0.00463494 0.01683960
v 0.02562276 0.00449520 0.01683960
v 0.02538461 0.00617775 0.01683960
v 0.02551463 0.00533927 0.01683960
v 0.02498358 0.00865128 0.01441835
v 0.02381882 0.01215614 0.01439958
v 0.02408708 0.01189901 0.01466592
v 0.02465920 0.01042327 0.01527106
v 0.02482070 0.00989782 0.01527106
v 0.02494252 0.00947299 0.01527106
v 0.02515056 0.00872674 0.01527106
v 0.02163712 0.01705568 0.01527106
v 0.02229272 0.01590137 0.01509211
v 0.02068177 0.01857054 0.01527106
v 0.02315774 0.01423837 0.01527106
v 0.02333978 0.01381075 0.01527106
v 0.02411583 0.01196049 0.01527106
v 0.02147288 0.01764541 0.01647262
v 0.02210932 0.01638769 0.01611827
v 0.02232421 0.01596285 0.01611827
v 0.02215722 0.01633179 0.01683960
v 0.01907219 0.02160864 0.01683960
v 0.01983729 0.02026987 0.01633380
v 0.01967989 0.02071426 0.01683960
v 0.01816885 0.02284960 0.01683960
v 0.01874096 0.02207540 0.01683960
v 0.02525047 0.00787987 0.01611827
v 0.02489325 0.00930530 0.01611827
v 0.02504654 0.00872674 0.01611827
v 0.02542840 0.00703301 0.01611827
v 0.02560086 0.00613024 0.01605840
v 0.02536134 0.00631191 0.01683960
v 0.02437725 0.01127014 0.01527106
v 0.02430197 0.01127014 0.01611827
v 0.02457160 0.01042327 0.01611827
v 0.02477417 0.00973013 0.01611827
v 0.02077621 0.01873823 0.01611827
v 0.02058323 0.01926648 0.01678879
v 0.02315637 0.01423558 0.01654770
v 0.02131411 0.01797801 0.01683960
v 0.02148109 0.01766218 0.01683960
v 0.02166312 0.01731281 0.01683960
v 0.02062839 0.01919940 0.01683960
v 0.02232831 0.01597124 0.01683960
v 0.01989614 0.02037328 0.01683960
v 0.02485492 0.00917114 0.01655968
v 0.02491104 0.00872674 0.01673184
v 0.02522721 0.00703301 0.01683960
v 0.02494389 0.00842768 0.01683960
v 0.02505065 0.00791062 0.01683960
v 0.02408024 0.01188224 0.01611827
v 0.02404055 0.01179559 0.01669818
v 0.02408845 0.01153846 0.01683960
v 0.02053806 0.01935033 0.01683960
v 0.02298255 0.01452905 0.01683960
v 0.02313310 0.01417409 0.01683960
v 0.02324534 0.01387783 0.01683960
v 0.02469752 0.00945063 0.01683960
v 0.02481934 0.00896152 0.01683960
v 0.02442105 0.01042327 0.01683960
v 0.02487682 0.00872674 0.01683960
v 0.02489735 0.00864010 0.01683960
v 0.02395432 0.01194652 0.01683960
v 0.02402275 0.01174528 0.01683960
f 1 2 6
f 1 6 10
f 1 10 16
f 1 16 22
f 1 22 29
f 1 29 45
f 1 45 71
f 1 71 94
f 1 94 64
f 1 64 41
f 1 41 27
f 1 27 20
f 1 20 19
f 1 19 15
f 1 15 13
f 1 13 7
f 1 7 3
f 1 3 4
f 1 4 2
f 2 4 5
f 2 5 6
f 3 7 4
f 4 8 14
f 4 14 18
f 4 18 24
f 4 24 34
f 4 34 55
f 4 55 52
f 4 52 32
f 4 32 23
f 4 23 17
f 4 17 12
f 4 12 11
f 4 11 9
f 4 9 5
f 4 7 8
f 5 9 6
f 6 9 11
f 6 11 12
f 6 12 10
f 7 13 8
f 8 13 15
f 8 15 14
f 10 12 17
f 10 17 23
f 10 23 33
f 10 33 54
f 10 54 81
f 10 81 108
f 10 108 135
f 10 135 160
f 10 160 161
f 10 161 190
f 10 190 189
f 10 189 219
f 10 219 218
f 10 218 221
f 10 221 220
f 10 220 249
f 10 249 265
f 10 265 267
f 10 267 266
f 10 266 279
f 10 279 278
f 10 278 276
f 10 276 275
f 10 275 277
f 10 277 270
f 10 270 281
f 10 281 280
f 10 280 274
f 10 274 273
f 10 273 272
f 10 272 261
f 10 261 238
f 10 238 259
f 10 259 258
f 10 258 257
f 10 257 260
f 10 260 271
f 10 271 262
f 10 262 241
f 10 241 239
f 10 239 243
f 10 243 242
f 10 242 208
f 10 208 204
f 10 204 203
f 10 203 177
f 10 177 176
f 10 176 153
f 10 153 149
f 10 149 128
f 10 128 100
f 10 100 72
f 10 72 51
f 10 51 46
f 10 46 30
f 10 30 28
f 10 28 21
f 10 21 16
f 14 15 19
f 14 19 20
f 14 20 27
f 14 27 43
f 14 43 69
f 14 69 99
f 14 99 85
f 14 85 58
f 14 58 37
f 14 37 25
f 14 25 18
f 16 21 22
f 18 25 26
f 18 26 24
f 21 28 22
f 22 28 30
f 22 30 31
f 22 31 29
f 23 32 33
f 24 26 35
f 24 35 34
f 25 36 26
f 25 37 36
f 26 36 38
f 26 38 39
f 26 39 40
f 26 40 35
f 27 41 42
f 27 42 43
f 29 31 44
f 29 44 45
f 30 46 31
f 31 47 48
f 31 48 49
f 31 49 50
f 31 50 44
f 31 46 51
f 31 51 47
f 32 52 78
f 32 78 53
f 32 53 33
f 33 53 54
f 34 35 56
f 34 56 55
f 35 40 57
f 35 57 56
f 36 37 38
f 37 58 59
f 37 59 60
f 37 60 61
f 37 61 39
f 37 39 38
f 39 61 40
f 40 61 62
f 40 62 63
f 40 63 57
f 41 64 65
f 41 65 42
f 42 66 67
f 42 67 68
f 42 68 43
f 42 65 66
f 43 68 69
f 44 50 70
f 44 70 45
f 45 70 71
f 47 51 72
f 47 72 48
f 48 73 74
f 48 74 75
f 48 75 76
f 48 76 49
f 48 72 73
f 49 76 77
f 49 77 50
f 50 77 70
f 52 55 56
f 52 56 78
f 53 78 79
f 53 79 80
f 53 80 54
f 54 80 81
f 56 57 82
f 56 82 79
f 56 79 78
f 57 63 83
f 57 83 84
f 57 84 82
f 58 85 86
f 58 86 59
f 59 87 60
f 59 86 88
f 59 88 89
f 59 89 87
f 60 90 62
f 60 62 61
f 60 87 91
f 60 91 90
f 62 90 63
f 63 90 83
f 64 92 93
f 64 93 65
f 64 94 92
f 65 93 66
f 66 93 95
f 66 95 67
f 67 95 68
f 68 95 96
f 68 96 97
f 68 97 98
f 68 98 99
f 68 99 69
f 70 94 71
f 70 77 92
f 70 92 94
f 72 100 73
f 73 101 74
f 73 100 101
f 74 101 75
f 75 102 76
f 75 101 103
f 75 103 102
f 76 102 103
f 76 103 104
f 76 104 105
f 76 105 77
f 77 105 92
f 79 82 110
f 79 110 106
f 79 106 107
f 79 107 80
f 80 107 108
f 80 108 81
f 82 84 109
f 82 109 110
f 83 111 112
f 83 112 109
f 83 109 84
f 83 90 113
f 83 113 114
f 83 114 115
f 83 115 111
f 85 99 98
f 85 98 116
f 85 116 88
f 85 88 86
f 87 117 91
f 87 89 118
f 87 118 119
f 87 119 117
f 88 116 97
f 88 97 120
f 88 120 121
f 88 121 118
f 88 118 89
f 90 91 113
f 91 117 114
f 91 114 113
f 92 105 93
f 93 105 95
f 95 105 122
f 95 122 123
f 95 123 124
f 95 124 125
f 95 125 126
f 95 126 127
f 95 127 96
f 96 127 97
f 97 116 98
f 97 127 120
f 100 128 101
f 101 128 103
f 103 129 123
f 103 123 122
f 103 122 104
f 103 128 130
f 103 130 129
f 104 122 105
f 106 110 131
f 106 131 132
f 106 132 133
f 106 133 107
f 107 133 134
f 107 134 108
f 108 134 135
f 109 112 111
f 109 111 115
f 109 115 136
f 109 136 137
f 109 137 131
f 109 131 110
f 114 138 139
f 114 139 136
f 114 136 115
f 114 117 140
f 114 140 138
f 117 119 140
f 118 121 141
f 118 141 119
f 119 141 142
f 119 142 143
f 119 143 140
f 120 127 126
f 120 126 121
f 121 144 141
f 121 126 145
f 121 145 144
f 123 129 146
f 123 146 124
f 124 146 125
f 125 146 147
f 125 147 148
f 125 148 126
f 126 148 145
f 128 149 130
f 129 150 151
f 129 151 152
f 129 152 147
f 129 147 146
f 129 130 150
f 130 149 153
f 130 153 150
f 131 137 154
f 131 154 155
f 131 155 156
f 131 156 157
f 131 157 132
f 132 157 158
f 132 158 133
f 133 158 159
f 133 159 134
f 134 160 135
f 134 159 161
f 134 161 160
f 136 139 137
f 137 162 154
f 137 139 162
f 138 140 163
f 138 163 139
f 139 163 164
f 139 164 162
f 140 165 163
f 140 143 165
f 141 144 166
f 141 166 142
f 142 166 143
f 143 166 167
f 143 167 168
f 143 168 169
f 143 169 165
f 144 145 170
f 144 170 171
f 144 171 172
f 144 172 173
f 144 173 166
f 145 171 170
f 145 148 171
f 147 174 148
f 147 152 174
f 148 174 171
f 150 175 151
f 150 153 176
f 150 176 177
f 150 177 175
f 151 178 152
f 151 175 178
f 152 178 179
f 152 179 180
f 152 180 174
f 154 162 155
f 155 162 156
f 156 181 182
f 156 182 183
f 156 183 157
f 156 162 184
f 156 184 181
f 157 185 186
f 157 186 158
f 157 183 185
f 158 186 187
f 158 187 188
f 158 188 159
f 159 188 189
f 159 189 190
f 159 190 161
f 162 164 184
f 163 165 169
f 163 169 164
f 164 169 168
f 164 168 191
f 164 191 182
f 164 182 184
f 166 173 167
f 167 192 168
f 167 173 193
f 167 193 192
f 168 194 195
f 168 195 191
f 168 192 194
f 171 174 172
f 172 174 196
f 172 196 173
f 173 196 197
f 173 197 198
f 173 198 199
f 173 199 200
f 173 200 201
f 173 201 202
f 173 202 193
f 174 180 196
f 175 179 178
f 175 177 203
f 175 203 204
f 175 204 205
f 175 205 179
f 179 206 207
f 179 207 180
f 179 205 208
f 179 208 209
f 179 209 206
f 180 207 210
f 180 210 196
f 181 184 182
f 182 191 211
f 182 211 183
f 183 211 195
f 183 195 212
f 183 212 213
f 183 213 214
f 183 214 185
f 185 214 215
f 185 215 216
f 185 216 186
f 186 216 217
f 186 217 187
f 187 218 219
f 187 219 188
f 187 217 220
f 187 220 221
f 187 221 218
f 188 219 189
f 191 222 211
f 191 195 222
f 192 193 223
f 192 223 224
f 192 224 194
f 193 202 223
f 194 224 195
f 195 225 226
f 195 226 227
f 195 227 228
f 195 228 212
f 195 211 222
f 195 224 225
f 196 199 197
f 196 210 199
f 197 199 198
f 199 229 230
f 199 230 200
f 199 210 206
f 199 206 231
f 199 231 229
f 200 230 201
f 201 232 233
f 201 233 234
f 201 234 224
f 201 224 202
f 201 230 235
f 201 235 236
f 201 236 237
f 201 237 238
f 201 238 232
f 202 224 223
f 204 208 205
f 206 210 207
f 206 209 239
f 206 239 240
f 206 240 241
f 206 241 231
f 208 242 209
f 209 243 239
f 209 242 243
f 212 244 213
f 212 228 245
f 212 245 246
f 212 246 244
f 213 244 247
f 213 247 248
f 213 248 214
f 214 248 215
f 215 248 216
f 216 248 217
f 217 248 247
f 217 247 249
f 217 249 220
f 224 234 250
f 224 250 225
f 225 250 251
f 225 251 252
f 225 252 226
f 226 253 227
f 226 252 253
f 227 245 228
f 227 253 245
f 229 231 254
f 229 254 255
f 229 255 230
f 230 255 235
f 231 241 254
f 232 256 233
f 232 238 256
f 233 256 234
f 234 256 250
f 235 257 258
f 235 258 259
f 235 259 236
f 235 255 260
f 235 260 257
f 236 259 237
f 237 259 238
f 238 261 256
f 239 241 240
f 241 262 254
f 244 246 263
f 244 263 264
f 244 264 247
f 245 263 246
f 245 253 263
f 247 265 249
f 247 264 266
f 247 266 267
f 247 267 265
f 250 256 268
f 250 268 251
f 251 268 269
f 251 269 252
f 252 263 253
f 252 269 270
f 252 270 263
f 254 262 255
f 255 271 260
f 255 262 271
f 256 272 273
f 256 273 274
f 256 274 269
f 256 269 268
f 256 261 272
f 263 275 276
f 263 276 264
f 263 270 277
f 263 277 275
f 264 276 278
f 264 278 279
f 264 279 266
f 269 280 281
f 269 281 270
f 269 274 280

