# https://github.com/mikedh/trimesh
v 0.00620376 0.03548871 0.04191196
v 0.00620376 0.03647060 0.04823645
v 0.00620376 0.03813888 0.04191196
v 0.01280426 0.03387514 0.04191196
v 0.01280426 0.03455498 0.04823645
v 0.00620376 0.03865180 0.04823645
v 0.00620376 0.03818190 0.04238807
v 0.00663212 0.03812626 0.04191196
v 0.01280426 0.03699194 0.04191196
v 0.01280426 0.03724770 0.04823645
v 0.00663212 0.03863263 0.04823645
v 0.00663212 0.03858541 0.04747182
v 0.00620376 0.03860411 0.04747182
v 0.00620376 0.03850592 0.04620506
v 0.00663212 0.03816927 0.04238807
v 0.00747915 0.03811597 0.04238807
v 0.00750887 0.03806594 0.04191196
v 0.01280426 0.03703355 0.04237383
v 0.01274159 0.03701953 0.04191196
v 0.01280426 0.03724910 0.04788231
v 0.01260914 0.03734402 0.04823645
v 0.00671547 0.03862702 0.04823645
v 0.00663212 0.03852275 0.04662484
v 0.00620376 0.03857325 0.04705266
v 0.00747915 0.03852837 0.04747182
v 0.00747915 0.03846805 0.04662484
v 0.00620376 0.03854146 0.04662484
v 0.00747915 0.03819218 0.04323567
v 0.00832683 0.03810054 0.04323567
v 0.00835590 0.03801685 0.04237507
v 0.00816724 0.03799440 0.04191196
v 0.00792237 0.03802152 0.04191196
v 0.01280426 0.03704290 0.04251376
v 0.01279327 0.03703916 0.04238807
v 0.01250318 0.03710977 0.04191196
v 0.01280426 0.03724536 0.04747182
v 0.01256326 0.03735805 0.04747182
v 0.01256326 0.03736506 0.04823645
v 0.00747915 0.03857466 0.04823645
v 0.00747915 0.03833199 0.04493026
v 0.00747915 0.03826279 0.04408327
v 0.00756250 0.03856671 0.04823645
v 0.00832683 0.03844467 0.04747182
v 0.00832683 0.03838622 0.04662484
v 0.00832683 0.03831702 0.04577724
v 0.00832683 0.03824642 0.04493026
v 0.00832683 0.03817442 0.04408327
v 0.00917385 0.03806688 0.04408327
v 0.00944198 0.03794157 0.04303941
v 0.00887665 0.03797757 0.04264873
v 0.00865763 0.03794952 0.04208408
v 0.00882173 0.03791118 0.04191196
v 0.01243986 0.03722853 0.04323567
v 0.01280426 0.03708779 0.04323567
v 0.01231839 0.03717943 0.04191196
v 0.01237008 0.03719860 0.04238807
v 0.01280426 0.03723975 0.04702542
v 0.01256326 0.03733841 0.04662484
v 0.01179893 0.03769423 0.04823645
v 0.00832683 0.03848909 0.04823645
v 0.00841017 0.03847787 0.04823645
v 0.00917385 0.03832965 0.04747182
v 0.00917385 0.03827354 0.04662484
v 0.00917385 0.03820715 0.04577724
v 0.00917385 0.03813841 0.04493026
v 0.00962741 0.03796588 0.04360468
v 0.01002088 0.03779756 0.04238807
v 0.00916546 0.03791352 0.04237507
v 0.00916998 0.03786676 0.04191196
v 0.01248832 0.03725424 0.04408327
v 0.01171559 0.03752917 0.04408327
v 0.01171559 0.03758014 0.04493026
v 0.01171559 0.03762736 0.04577724
v 0.01280426 0.03712613 0.04408327
v 0.01253096 0.03727903 0.04493026
v 0.01203153 0.03727154 0.04191196
v 0.01171559 0.03747447 0.04323567
v 0.01280426 0.03723040 0.04662484
v 0.01280426 0.03721965 0.04628184
v 0.01280426 0.03719299 0.04559583
v 0.01264338 0.03726827 0.04574257
v 0.01171559 0.03767038 0.04662484
v 0.01171559 0.03770498 0.04747182
v 0.01171559 0.03772836 0.04823645
v 0.00917385 0.03837126 0.04823645
v 0.00925720 0.03835677 0.04823645
v 0.01002088 0.03817722 0.04747182
v 0.01002088 0.03812813 0.04662484
v 0.01002088 0.03806875 0.04577724
v 0.01003704 0.03800983 0.04501446
v 0.00974565 0.03798692 0.04408327
v 0.00995434 0.03788780 0.04328768
v 0.01002088 0.03774940 0.04191196
v 0.01016949 0.03791538 0.04408327
v 0.01086856 0.03763438 0.04238807
v 0.01103008 0.03788920 0.04662484
v 0.01111020 0.03791024 0.04747182
v 0.01280426 0.03716401 0.04493026
v 0.01171559 0.03736553 0.04191196
v 0.01171559 0.03740901 0.04238807
v 0.01086856 0.03770685 0.04323567
v 0.01086856 0.03776623 0.04408327
v 0.01092542 0.03786395 0.04577724
v 0.01116318 0.03792474 0.04823645
v 0.01122262 0.03790463 0.04823645
v 0.01002088 0.03821463 0.04823645
v 0.01060624 0.03800563 0.04662484
v 0.01050222 0.03797664 0.04577724
v 0.01044472 0.03796121 0.04535251
v 0.01033036 0.03794063 0.04478785
v 0.01086856 0.03758622 0.04191196
v 0.01134473 0.03746418 0.04191196
v 0.01068636 0.03802854 0.04747182
v 0.01073934 0.03804490 0.04823645
v 0.01008614 0.03819967 0.04823645
f 1 2 6
f 1 6 13
f 1 13 24
f 1 24 27
f 1 27 14
f 1 14 7
f 1 7 3
f 1 3 8
f 1 8 17
f 1 17 32
f 1 32 31
f 1 31 52
f 1 52 69
f 1 69 93
f 1 93 111
f 1 111 112
f 1 112 99
f 1 99 76
f 1 76 55
f 1 55 35
f 1 35 19
f 1 19 9
f 1 9 4
f 1 4 5
f 1 5 2
f 2 5 10
f 2 10 21
f 2 21 38
f 2 38 59
f 2 59 84
f 2 84 105
f 2 105 104
f 2 104 114
f 2 114 115
f 2 115 106
f 2 106 86
f 2 86 85
f 2 85 61
f 2 61 60
f 2 60 42
f 2 42 39
f 2 39 22
f 2 22 11
f 2 11 6
f 3 7 15
f 3 15 8
f 4 9 18
f 4 18 33
f 4 33 54
f 4 54 74
f 4 74 98
f 4 98 80
f 4 80 79
f 4 79 78
f 4 78 57
f 4 57 36
f 4 36 20
f 4 20 10
f 4 10 5
f 6 11 12
f 6 12 13
f 7 14 15
f 8 15 16
f 8 16 17
f 9 19 18
f 10 20 21
f 11 22 12
f 12 23 24
f 12 24 13
f 12 22 25
f 12 25 26
f 12 26 23
f 14 27 15
f 15 23 28
f 15 28 16
f 15 27 23
f 16 28 29
f 16 29 30
f 16 30 31
f 16 31 32
f 16 32 17
f 18 19 34
f 18 34 33
f 19 35 34
f 20 36 21
f 21 37 38
f 21 36 37
f 22 39 25
f 23 26 40
f 23 40 41
f 23 41 28
f 23 27 24
f 25 39 42
f 25 42 43
f 25 43 44
f 25 44 26
f 26 44 40
f 28 41 45
f 28 45 46
f 28 46 47
f 28 47 29
f 29 47 48
f 29 48 49
f 29 49 50
f 29 50 30
f 30 50 51
f 30 51 31
f 31 51 52
f 33 34 53
f 33 53 54
f 34 35 55
f 34 55 56
f 34 56 53
f 36 57 37
f 37 57 58
f 37 58 59
f 37 59 38
f 40 44 45
f 40 45 41
f 42 60 43
f 43 60 61
f 43 61 62
f 43 62 63
f 43 63 44
f 44 63 64
f 44 64 65
f 44 65 45
f 45 65 46
f 46 65 48
f 46 48 47
f 48 65 66
f 48 66 49
f 49 66 67
f 49 67 68
f 49 68 50
f 50 68 51
f 51 68 69
f 51 69 52
f 53 70 54
f 53 56 71
f 53 71 72
f 53 72 73
f 53 73 70
f 54 70 75
f 54 75 74
f 55 76 77
f 55 77 56
f 56 77 71
f 57 78 58
f 58 78 79
f 58 79 80
f 58 80 81
f 58 81 75
f 58 75 82
f 58 82 83
f 58 83 84
f 58 84 59
f 61 85 62
f 62 85 86
f 62 86 87
f 62 87 88
f 62 88 63
f 63 88 89
f 63 89 90
f 63 90 91
f 63 91 64
f 64 91 66
f 64 66 65
f 66 91 92
f 66 92 67
f 67 93 69
f 67 69 68
f 67 92 94
f 67 94 95
f 67 95 111
f 67 111 93
f 70 73 82
f 70 82 75
f 71 77 96
f 71 96 72
f 72 96 73
f 73 96 97
f 73 97 82
f 74 75 81
f 74 81 98
f 76 99 100
f 76 100 77
f 77 100 101
f 77 101 102
f 77 102 103
f 77 103 96
f 80 98 81
f 82 97 104
f 82 104 105
f 82 105 83
f 83 105 84
f 86 106 87
f 87 106 107
f 87 107 88
f 88 107 108
f 88 108 109
f 88 109 89
f 89 109 110
f 89 110 90
f 90 110 94
f 90 94 91
f 91 94 92
f 94 110 101
f 94 101 95
f 95 101 100
f 95 100 99
f 95 99 112
f 95 112 111
f 96 103 107
f 96 107 113
f 96 113 97
f 97 113 114
f 97 114 104
f 101 110 109
f 101 109 108
f 101 108 102
f 102 108 107
f 102 107 103
f 106 115 113
f 106 113 107
f 113 115 114

