# https://github.com/mikedh/trimesh
v 0.00917403 -0.02485803 0.06546936
v 0.00849482 -0.02485803 0.06514811
v 0.00946512 -0.02485803 0.06536504
v 0.00996697 -0.02432216 0.06513707
v 0.00917403 -0.02432216 0.06542079
v 0.00849964 -0.02432216 0.06512713
v 0.00824293 -0.02485803 0.06442005
v 0.00824164 -0.02432216 0.06442005
v 0.00997308 -0.02485803 0.06516467
v 0.00983749 -0.02369863 0.06501067
v 0.01035124 -0.02432216 0.06442005
v 0.01125696 -0.01641144 0.06043255
v 0.01032554 -0.01641144 0.06187819
v 0.00992874 -0.01641144 0.06247598
v 0.00858831 -0.02369863 0.06501067
v 0.00917403 -0.01641144 0.06264985
v 0.00875410 -0.01641144 0.06253890
v 0.00853980 -0.01641144 0.06247598
v 0.00836855 -0.01641144 0.06208407
v 0.00828180 -0.01641144 0.06187819
v 0.00823393 -0.02432216 0.06357276
v 0.00823393 -0.02485803 0.06134166
v 0.00824903 -0.01641144 0.06131627
v 0.00823393 -0.01641144 0.06103090
v 0.01011413 -0.02485803 0.06490137
v 0.01035702 -0.02485803 0.06442005
v 0.01144523 -0.01641144 0.05983034
v 0.00823393 -0.02485803 0.05983034
v 0.00823393 -0.01641144 0.05983034
v 0.01151624 -0.02479767 0.05983034
v 0.01151624 -0.02485803 0.05983034
f 1 2 7
f 1 7 22
f 1 22 28
f 1 28 31
f 1 31 26
f 1 26 25
f 1 25 9
f 1 9 3
f 1 3 4
f 1 4 5
f 1 5 6
f 1 6 2
f 2 6 8
f 2 8 7
f 3 9 4
f 4 10 5
f 4 9 11
f 4 11 12
f 4 12 13
f 4 13 14
f 4 14 10
f 5 15 6
f 5 10 14
f 5 14 16
f 5 16 17
f 5 17 18
f 5 18 15
f 6 15 18
f 6 18 19
f 6 19 20
f 6 20 8
f 7 8 21
f 7 21 22
f 8 20 23
f 8 23 24
f 8 24 21
f 9 25 11
f 11 25 26
f 11 26 27
f 11 27 12
f 12 27 29
f 12 29 24
f 12 24 23
f 12 23 20
f 12 20 19
f 12 19 18
f 12 18 17
f 12 17 16
f 12 16 14
f 12 14 13
f 21 24 29
f 21 29 28
f 21 28 22
f 26 30 27
f 26 31 30
f 27 30 31
f 27 31 28
f 27 28 29

