# https://github.com/mikedh/trimesh
v 0.00620376 0.03647068 0.04823646
v 0.00620376 0.03677621 0.05389369
v 0.00620376 0.03865162 0.04823646
v 0.01376756 0.03349493 0.04823646
v 0.01363579 0.03349493 0.04916733
v 0.01305480 0.03349493 0.05336430
v 0.01298193 0.03349493 0.05389369
v 0.00620376 0.03895128 0.05389369
v 0.00620376 0.03865696 0.04832007
v 0.00654716 0.03863666 0.04823646
v 0.01640196 0.03349493 0.04823646
v 0.01534480 0.03349493 0.05389369
v 0.00626765 0.03894860 0.05389369
v 0.00620376 0.03894860 0.05383167
v 0.00620376 0.03870824 0.04916733
v 0.00663201 0.03869061 0.04916733
v 0.00663201 0.03863292 0.04823646
v 0.01633308 0.03363915 0.04823646
v 0.01639098 0.03349493 0.04832007
v 0.01545661 0.03349493 0.05344293
v 0.01510622 0.03414873 0.05389369
v 0.00663201 0.03893205 0.05389369
v 0.00697441 0.03880652 0.05132867
v 0.00620376 0.03886581 0.05212608
v 0.00620376 0.03875684 0.05001459
v 0.00663201 0.03874189 0.05001459
v 0.00747953 0.03857470 0.04823646
v 0.01632709 0.03362740 0.04832007
v 0.01602462 0.03414232 0.04823646
v 0.01551351 0.03454667 0.05031362
v 0.01548156 0.03448150 0.05086240
v 0.01627119 0.03349493 0.04911140
v 0.01548057 0.03349493 0.05333163
v 0.01551451 0.03368081 0.05290080
v 0.01480275 0.03479238 0.05389369
v 0.01520205 0.03414873 0.05340361
v 0.00703631 0.03890053 0.05389369
v 0.00727988 0.03883376 0.05255636
v 0.00715310 0.03881987 0.05189406
v 0.00747953 0.03873174 0.05086240
v 0.00747953 0.03868153 0.05001459
v 0.00747953 0.03863079 0.04916733
v 0.00620376 0.03879637 0.05073226
v 0.00620376 0.03881614 0.05112710
v 0.00756239 0.03856669 0.04823646
v 0.01541967 0.03434690 0.05170910
v 0.01564029 0.03471813 0.04823646
v 0.01563530 0.03471172 0.04832007
v 0.01558339 0.03464549 0.04916733
v 0.01554745 0.03459848 0.04974878
v 0.01513517 0.03499589 0.05086240
v 0.01468196 0.03542054 0.05213716
v 0.01502536 0.03499589 0.05170910
v 0.01459311 0.03528326 0.05340361
v 0.01455818 0.03521596 0.05389369
v 0.01466499 0.03503702 0.05389369
v 0.01626420 0.03349493 0.04915570
v 0.01561034 0.03349493 0.05272359
v 0.01580101 0.03349493 0.05170910
v 0.01595773 0.03349493 0.05086240
v 0.01626220 0.03349493 0.04916733
v 0.01556542 0.03380206 0.05233596
v 0.01537375 0.03411027 0.05259346
v 0.00749650 0.03886261 0.05389369
v 0.00751547 0.03884391 0.05346951
v 0.00770314 0.03878622 0.05255636
v 0.00745358 0.03877501 0.05165040
v 0.00832705 0.03863720 0.05086240
v 0.00832705 0.03859019 0.05001459
v 0.00832705 0.03849404 0.04832007
v 0.00832705 0.03848923 0.04823646
v 0.01562132 0.03392332 0.05170910
v 0.01533881 0.03510058 0.04823646
v 0.01475883 0.03551348 0.05086240
v 0.01471091 0.03545526 0.05170910
v 0.01464203 0.03536339 0.05270200
v 0.01378253 0.03620895 0.05389369
v 0.01389533 0.03607381 0.05389369
v 0.01410696 0.03581688 0.05389369
v 0.00781894 0.03882468 0.05389369
v 0.00782194 0.03879958 0.05323084
v 0.00832705 0.03867565 0.05170910
v 0.00917457 0.03850579 0.05086240
v 0.00917457 0.03846360 0.05001459
v 0.00917457 0.03842086 0.04916733
v 0.00917457 0.03837172 0.04823646
v 0.01530487 0.03514225 0.04823646
v 0.01479776 0.03556049 0.05001459
v 0.01437649 0.03593706 0.05086240
v 0.01433956 0.03587884 0.05170910
v 0.01383843 0.03627144 0.05302041
v 0.01380250 0.03623138 0.05358525
v 0.01339121 0.03658232 0.05389369
v 0.00792276 0.03881133 0.05389369
v 0.00791178 0.03880973 0.05379568
v 0.00832705 0.03870610 0.05255636
v 0.00917457 0.03853998 0.05170910
v 0.01002209 0.03833059 0.05086240
v 0.01002209 0.03829534 0.05001459
v 0.01002209 0.03825795 0.04916733
v 0.01002209 0.03821842 0.04832007
v 0.01002209 0.03821415 0.04823646
v 0.00925743 0.03835677 0.04823646
v 0.01488161 0.03564114 0.04823646
v 0.01483569 0.03560269 0.04916733
v 0.01440644 0.03598407 0.05001459
v 0.01391530 0.03634409 0.05170910
v 0.01386738 0.03629975 0.05255636
v 0.01310471 0.03683925 0.05389369
v 0.00832406 0.03875257 0.05389369
v 0.00824719 0.03874990 0.05346951
v 0.00917457 0.03856562 0.05255636
v 0.00872037 0.03868473 0.05389369
v 0.01002209 0.03835570 0.05170910
v 0.01083268 0.03808275 0.05001459
v 0.01079375 0.03806459 0.04916733
v 0.01074583 0.03804642 0.04832007
v 0.01073984 0.03804482 0.04823646
v 0.01008698 0.03819972 0.04823646
v 0.01450627 0.03602360 0.04823646
v 0.01443539 0.03602680 0.04916733
v 0.01395223 0.03637347 0.05086240
v 0.01333331 0.03683123 0.05171076
v 0.01288011 0.03703474 0.05389369
v 0.00917457 0.03858859 0.05340361
v 0.00917457 0.03860034 0.05389369
v 0.01002209 0.03837279 0.05255636
v 0.01086862 0.03811533 0.05170910
v 0.01094648 0.03807313 0.05086849
v 0.01121701 0.03793852 0.04916733
v 0.01117009 0.03792624 0.04832007
v 0.01116410 0.03792464 0.04823646
v 0.01446334 0.03606526 0.04823646
v 0.01398318 0.03639483 0.05001459
v 0.01299890 0.03712288 0.05142890
v 0.01297195 0.03710418 0.05199374
v 0.01290307 0.03705397 0.05340361
v 0.01245585 0.03731945 0.05389369
v 0.00953195 0.03851541 0.05389369
v 0.01002209 0.03838721 0.05340361
v 0.01002209 0.03839362 0.05389369
v 0.01086862 0.03812067 0.05255636
v 0.01130985 0.03796897 0.05170910
v 0.01130086 0.03796470 0.05115423
v 0.01128090 0.03795722 0.05058995
v 0.01125594 0.03794974 0.05001459
v 0.01171514 0.03772860 0.04823646
v 0.01122400 0.03790434 0.04823646
v 0.01403908 0.03643329 0.04823646
v 0.01403709 0.03643222 0.04832007
v 0.01401213 0.03641513 0.04916733
v 0.01300888 0.03712929 0.05086240
v 0.01256266 0.03737286 0.05086240
v 0.01263853 0.03730983 0.05171076
v 0.01172313 0.03775424 0.05340361
v 0.01166722 0.03776920 0.05389369
v 0.01196171 0.03760415 0.05389369
v 0.01247980 0.03733066 0.05340361
v 0.01037947 0.03828092 0.05389369
v 0.01086862 0.03812067 0.05340361
v 0.01130985 0.03796951 0.05255636
v 0.01173311 0.03777561 0.05170910
v 0.01163628 0.03781460 0.05086849
v 0.01171514 0.03776867 0.05001459
v 0.01171514 0.03775211 0.04916733
v 0.01171514 0.03773074 0.04832007
v 0.01179899 0.03769442 0.04823646
v 0.01350901 0.03681521 0.04823646
v 0.01301487 0.03713249 0.05001459
v 0.01345011 0.03685687 0.04823646
v 0.01256266 0.03737500 0.05001459
v 0.01173311 0.03776653 0.05255636
v 0.01302086 0.03713516 0.04916733
v 0.01302585 0.03713783 0.04823646
v 0.01129487 0.03796203 0.05389314
v 0.01129487 0.03796149 0.05389369
v 0.01091853 0.03810144 0.05389369
v 0.01108624 0.03804055 0.05389369
v 0.01130086 0.03796470 0.05340361
v 0.01256266 0.03737233 0.04916733
v 0.01256266 0.03736538 0.04823646
v 0.01302585 0.03713730 0.04832007
v 0.01260858 0.03734402 0.04823646
f 1 2 8
f 1 8 14
f 1 14 24
f 1 24 44
f 1 44 43
f 1 43 25
f 1 25 15
f 1 15 9
f 1 9 3
f 1 3 10
f 1 10 17
f 1 17 27
f 1 27 45
f 1 45 71
f 1 71 86
f 1 86 103
f 1 103 102
f 1 102 119
f 1 119 118
f 1 118 132
f 1 132 148
f 1 148 147
f 1 147 167
f 1 167 181
f 1 181 183
f 1 183 174
f 1 174 170
f 1 170 168
f 1 168 149
f 1 149 133
f 1 133 120
f 1 120 104
f 1 104 87
f 1 87 73
f 1 73 47
f 1 47 29
f 1 29 18
f 1 18 11
f 1 11 4
f 1 4 5
f 1 5 6
f 1 6 7
f 1 7 2
f 2 7 12
f 2 12 21
f 2 21 35
f 2 35 56
f 2 56 55
f 2 55 79
f 2 79 78
f 2 78 77
f 2 77 93
f 2 93 109
f 2 109 124
f 2 124 138
f 2 138 157
f 2 157 156
f 2 156 176
f 2 176 178
f 2 178 177
f 2 177 159
f 2 159 141
f 2 141 139
f 2 139 126
f 2 126 113
f 2 113 110
f 2 110 94
f 2 94 80
f 2 80 64
f 2 64 37
f 2 37 22
f 2 22 13
f 2 13 8
f 3 9 10
f 4 11 19
f 4 19 32
f 4 32 57
f 4 57 61
f 4 61 60
f 4 60 59
f 4 59 58
f 4 58 33
f 4 33 20
f 4 20 12
f 4 12 7
f 4 7 6
f 4 6 5
f 8 13 14
f 9 15 26
f 9 26 16
f 9 16 10
f 10 16 17
f 11 18 19
f 12 20 21
f 13 22 23
f 13 23 14
f 14 23 24
f 15 25 23
f 15 23 26
f 16 26 23
f 16 23 17
f 17 23 27
f 18 28 19
f 18 29 30
f 18 30 31
f 18 31 28
f 19 28 32
f 20 33 34
f 20 34 21
f 21 34 36
f 21 36 35
f 22 37 38
f 22 38 39
f 22 39 23
f 23 39 40
f 23 40 41
f 23 41 42
f 23 42 27
f 23 25 43
f 23 43 44
f 23 44 24
f 27 42 45
f 28 31 46
f 28 46 32
f 29 47 48
f 29 48 49
f 29 49 50
f 29 50 30
f 30 50 51
f 30 51 52
f 30 52 53
f 30 53 31
f 31 53 54
f 31 54 55
f 31 55 56
f 31 56 46
f 32 46 57
f 33 58 34
f 34 58 59
f 34 59 60
f 34 60 61
f 34 61 62
f 34 62 63
f 34 63 36
f 35 36 63
f 35 63 46
f 35 46 56
f 37 64 38
f 38 64 65
f 38 65 66
f 38 66 39
f 39 66 67
f 39 67 40
f 40 67 68
f 40 68 69
f 40 69 70
f 40 70 71
f 40 71 41
f 41 71 45
f 41 45 42
f 46 63 72
f 46 72 61
f 46 61 57
f 47 73 74
f 47 74 75
f 47 75 48
f 48 75 49
f 49 75 51
f 49 51 50
f 51 75 52
f 52 76 53
f 52 75 77
f 52 77 78
f 52 78 79
f 52 79 76
f 53 76 54
f 54 76 79
f 54 79 55
f 61 72 62
f 62 72 63
f 64 80 81
f 64 81 65
f 65 81 66
f 66 81 82
f 66 82 67
f 67 82 68
f 68 82 83
f 68 83 84
f 68 84 85
f 68 85 86
f 68 86 69
f 69 86 70
f 70 86 71
f 73 87 74
f 74 88 89
f 74 89 90
f 74 90 75
f 74 87 88
f 75 90 91
f 75 91 92
f 75 92 77
f 77 92 93
f 80 94 95
f 80 95 81
f 81 95 82
f 82 95 96
f 82 96 97
f 82 97 83
f 83 97 98
f 83 98 99
f 83 99 100
f 83 100 101
f 83 101 84
f 84 101 85
f 85 101 102
f 85 102 103
f 85 103 86
f 87 104 105
f 87 105 88
f 88 105 89
f 89 106 107
f 89 107 108
f 89 108 90
f 89 105 104
f 89 104 106
f 90 108 91
f 91 108 93
f 91 93 92
f 93 108 109
f 94 110 95
f 95 110 111
f 95 111 96
f 96 111 110
f 96 110 97
f 97 112 98
f 97 110 113
f 97 113 112
f 98 114 115
f 98 115 116
f 98 116 117
f 98 117 118
f 98 118 99
f 98 112 114
f 99 118 100
f 100 118 119
f 100 119 101
f 101 119 102
f 104 120 121
f 104 121 106
f 106 121 107
f 107 121 122
f 107 122 123
f 107 123 124
f 107 124 109
f 107 109 108
f 112 113 125
f 112 125 114
f 113 126 125
f 114 125 126
f 114 126 127
f 114 127 128
f 114 128 129
f 114 129 115
f 115 129 130
f 115 130 131
f 115 131 116
f 116 131 117
f 117 131 132
f 117 132 118
f 120 133 121
f 121 133 122
f 122 133 134
f 122 134 135
f 122 135 123
f 123 135 136
f 123 136 137
f 123 137 124
f 124 137 138
f 126 139 127
f 127 140 128
f 127 139 140
f 128 140 141
f 128 141 142
f 128 142 143
f 128 143 144
f 128 144 129
f 129 144 145
f 129 145 146
f 129 146 130
f 130 146 147
f 130 147 148
f 130 148 131
f 131 148 132
f 133 149 150
f 133 150 151
f 133 151 134
f 134 151 135
f 135 152 153
f 135 153 154
f 135 154 155
f 135 155 156
f 135 156 157
f 135 157 158
f 135 158 138
f 135 138 136
f 135 151 150
f 135 150 149
f 135 149 152
f 136 138 137
f 138 158 157
f 139 141 140
f 141 159 142
f 142 159 160
f 142 160 161
f 142 161 143
f 143 161 162
f 143 162 163
f 143 163 164
f 143 164 144
f 144 164 165
f 144 165 166
f 144 166 147
f 144 147 145
f 145 147 146
f 147 166 167
f 149 168 152
f 152 169 153
f 152 168 170
f 152 170 169
f 153 171 162
f 153 162 172
f 153 172 155
f 153 155 154
f 153 169 173
f 153 173 174
f 153 174 171
f 155 172 175
f 155 175 156
f 156 175 176
f 159 177 160
f 160 177 161
f 161 177 178
f 161 178 179
f 161 179 172
f 161 172 162
f 162 171 180
f 162 180 163
f 163 180 181
f 163 181 164
f 164 181 165
f 165 181 167
f 165 167 166
f 169 170 173
f 170 174 182
f 170 182 173
f 171 174 180
f 172 179 175
f 173 182 174
f 174 183 180
f 175 179 178
f 175 178 176
f 180 183 181

