# https://github.com/mikedh/trimesh
v 0.01106931 -0.03480972 0.05876375
v 0.01364052 -0.03310418 0.05876375
v 0.01106931 -0.02928941 0.05876375
v 0.01106931 -0.03330251 0.05086246
v 0.01462631 -0.03158562 0.05536232
v 0.01462631 -0.03171262 0.05594555
v 0.01414195 -0.03270319 0.05876375
v 0.01106931 -0.03312904 0.05001527
v 0.01106931 -0.02928941 0.05573239
v 0.01462631 -0.02928941 0.05876375
v 0.01462631 -0.03149645 0.05502490
v 0.01462631 -0.03184934 0.05677731
v 0.01456328 -0.03222115 0.05848800
v 0.01443375 -0.03241461 0.05876375
v 0.01106931 -0.03263997 0.04949735
v 0.01135276 -0.03245244 0.04955903
v 0.01462631 -0.03002816 0.05033727
v 0.01391143 -0.03073501 0.05037718
v 0.01462631 -0.03032646 0.05086246
v 0.01462631 -0.03039618 0.05108105
v 0.01462631 -0.03059451 0.05177494
v 0.01235561 -0.02928941 0.05086246
v 0.01186219 -0.02962879 0.05086246
v 0.01143842 -0.02994493 0.05086246
v 0.01106931 -0.03024648 0.05086246
v 0.01462631 -0.03214009 0.05876375
v 0.01462631 -0.02928941 0.05027015
v 0.01462631 -0.03212225 0.05848800
v 0.01458418 -0.03223628 0.05876375
v 0.01106931 -0.03220710 0.04954270
v 0.01135276 -0.03225195 0.04955903
v 0.01462631 -0.02939263 0.05025383
v 0.01268850 -0.02928941 0.05032004
v 0.01193497 -0.02968770 0.05033274
v 0.01106931 -0.03043293 0.05026925
v 0.01424989 -0.02928941 0.05021845
v 0.01106931 -0.03195905 0.04961980
v 0.01341070 -0.02928941 0.05023478
v 0.01425790 -0.02940722 0.05020122
v 0.01260981 -0.02940614 0.05029101
v 0.01167799 -0.03020325 0.05018126
v 0.01106931 -0.03104575 0.04999713
f 1 2 7
f 1 7 14
f 1 14 29
f 1 29 26
f 1 26 10
f 1 10 3
f 1 3 9
f 1 9 25
f 1 25 35
f 1 35 42
f 1 42 37
f 1 37 30
f 1 30 15
f 1 15 8
f 1 8 4
f 1 4 2
f 2 5 6
f 2 6 7
f 2 4 8
f 2 8 5
f 3 10 27
f 3 27 36
f 3 36 38
f 3 38 33
f 3 33 22
f 3 22 9
f 5 11 21
f 5 21 20
f 5 20 19
f 5 19 17
f 5 17 32
f 5 32 27
f 5 27 10
f 5 10 26
f 5 26 28
f 5 28 12
f 5 12 6
f 5 8 11
f 6 12 13
f 6 13 14
f 6 14 7
f 8 15 16
f 8 16 17
f 8 17 18
f 8 18 19
f 8 19 20
f 8 20 21
f 8 21 11
f 9 22 23
f 9 23 24
f 9 24 25
f 12 28 29
f 12 29 13
f 13 29 14
f 15 30 31
f 15 31 32
f 15 32 16
f 16 32 17
f 17 19 18
f 22 33 34
f 22 34 23
f 23 34 24
f 24 34 25
f 25 34 35
f 26 29 28
f 27 32 36
f 30 37 38
f 30 38 36
f 30 36 39
f 30 39 31
f 31 39 32
f 32 39 36
f 33 38 37
f 33 37 40
f 33 40 41
f 33 41 34
f 34 41 35
f 35 41 42
f 37 42 41
f 37 41 40

