# https://github.com/mikedh/trimesh
v 0.00823393 -0.02901918 0.05876375
v 0.00823393 -0.02901918 0.06442005
v 0.00823393 -0.02485886 0.05876375
v 0.01510152 -0.02901918 0.05876375
v 0.00823393 -0.02855937 0.06442005
v 0.00826284 -0.02901918 0.06526706
v 0.00823393 -0.02485886 0.06134221
v 0.01453818 -0.02485886 0.05876375
v 0.01508337 -0.02883713 0.05876375
v 0.01502757 -0.02901918 0.05894425
v 0.00824334 -0.02485886 0.06442005
v 0.00833611 -0.02901918 0.06559329
v 0.01043081 -0.02901918 0.06559329
v 0.01485414 -0.02901918 0.05919628
v 0.00997368 -0.02485886 0.06516411
v 0.00837107 -0.02853819 0.06559329
v 0.00849543 -0.02485886 0.06514806
v 0.01038442 -0.02878500 0.06559329
v 0.00946547 -0.02485886 0.06536466
v 0.00857946 -0.02784501 0.06559329
v 0.00917439 -0.02485886 0.06546895
v 0.01001738 -0.02794642 0.06559329
v 0.00916162 -0.02747316 0.06559329
v 0.00917439 -0.02517002 0.06549702
v 0.00990512 -0.02780632 0.06559329
v 0.00917439 -0.02746787 0.06559329
f 1 2 5
f 1 5 7
f 1 7 3
f 1 3 8
f 1 8 9
f 1 9 4
f 1 4 10
f 1 10 14
f 1 14 13
f 1 13 12
f 1 12 6
f 1 6 2
f 2 6 5
f 3 7 11
f 3 11 17
f 3 17 21
f 3 21 19
f 3 19 15
f 3 15 8
f 4 9 10
f 5 6 11
f 5 11 7
f 6 12 11
f 8 13 14
f 8 14 10
f 8 10 9
f 8 15 13
f 11 12 16
f 11 16 17
f 12 13 18
f 12 18 22
f 12 22 25
f 12 25 26
f 12 26 23
f 12 23 20
f 12 20 16
f 13 15 18
f 15 19 18
f 16 20 21
f 16 21 17
f 18 19 21
f 18 21 22
f 20 23 24
f 20 24 21
f 21 24 22
f 22 24 25
f 23 26 24
f 24 26 25

