# https://github.com/mikedh/trimesh
v 0.00465499 0.03330079 0.03661803
v 0.00465787 0.03372667 0.03661803
v 0.00477381 0.03245361 0.03661803
v 0.00031092 0.03245361 0.03948792
v 0.00073662 0.03330079 0.03915278
v 0.00620376 0.03372667 0.03661803
v 0.00074700 0.03372667 0.03915278
v 0.00506338 0.03202468 0.03661803
v 0.00094081 0.03193314 0.03931487
v 0.00079372 0.03176663 0.03948792
v 0.00031554 0.03330079 0.03948792
v 0.00513202 0.03192333 0.03661803
v 0.00620376 0.03372667 0.03948792
v 0.00620376 0.03181697 0.03661803
v 0.00052146 0.03372667 0.03948792
v 0.00126326 0.03168206 0.03948792
v 0.00578383 0.03181697 0.03661803
v 0.00154763 0.03163149 0.03948792
v 0.00620376 0.03150007 0.03948792
v 0.00578383 0.03150007 0.03948792
f 1 2 6
f 1 6 14
f 1 14 17
f 1 17 12
f 1 12 8
f 1 8 3
f 1 3 4
f 1 4 5
f 1 5 2
f 2 5 7
f 2 7 15
f 2 15 13
f 2 13 6
f 3 8 4
f 4 9 10
f 4 10 16
f 4 16 18
f 4 18 20
f 4 20 19
f 4 19 13
f 4 13 15
f 4 15 11
f 4 11 5
f 4 8 12
f 4 12 9
f 5 11 7
f 6 13 19
f 6 19 14
f 7 11 15
f 9 12 10
f 10 12 16
f 12 17 18
f 12 18 16
f 14 19 20
f 14 20 17
f 17 20 18

