# https://github.com/mikedh/trimesh
v 0.01595948 0.02797842 0.02289983
v 0.01746223 0.02797842 0.02289983
v 0.01483322 0.02797842 0.02290251
v 0.01482100 0.02799920 0.02289983
v 0.01736505 0.02819877 0.02289983
v 0.01747124 0.02797842 0.02293071
v 0.01278987 0.03009548 0.02289983
v 0.01408539 0.02797842 0.02886461
v 0.01278987 0.02879414 0.02884313
v 0.01733223 0.02826446 0.02289983
v 0.01724535 0.02868604 0.02325567
v 0.01728782 0.02961985 0.02481200
v 0.01743842 0.02911760 0.02455552
v 0.01769006 0.02797842 0.02373909
v 0.01771516 0.02906439 0.02544043
v 0.01278987 0.03295509 0.02289983
v 0.01424886 0.02797842 0.03661669
v 0.01278987 0.03170947 0.03661669
v 0.01699371 0.02892053 0.02289983
v 0.01711277 0.02927061 0.02374580
v 0.01719901 0.02943608 0.02424801
v 0.01714752 0.03018528 0.02525915
v 0.01723634 0.03035824 0.02582314
v 0.01735862 0.02990589 0.02550086
v 0.01758323 0.02991171 0.02628775
v 0.01793912 0.02904776 0.02627298
v 0.01797967 0.02836923 0.02544043
v 0.01790952 0.02797842 0.02460923
v 0.01785803 0.02984103 0.02719684
v 0.01801120 0.02931883 0.02695513
v 0.01278987 0.03302162 0.02301397
v 0.01313161 0.03294927 0.02318047
v 0.01341028 0.03264493 0.02289983
v 0.01935821 0.02797842 0.03661669
v 0.01278987 0.03647244 0.03661669
v 0.01694222 0.02900951 0.02289983
v 0.01696153 0.02900701 0.02294280
v 0.01705163 0.02990589 0.02455552
v 0.01693064 0.03068836 0.02550086
v 0.01706708 0.03091287 0.02628775
v 0.01657217 0.03076070 0.02464414
v 0.01716748 0.03108250 0.02688933
v 0.01725629 0.03123882 0.02745331
v 0.01730456 0.03048962 0.02628775
v 0.01740496 0.03078398 0.02715655
v 0.01804467 0.02856048 0.02598024
v 0.01804210 0.02797842 0.02515173
v 0.01808071 0.02951092 0.02751911
v 0.01762956 0.03075904 0.02798238
v 0.01795328 0.03004808 0.02798238
v 0.01278987 0.03327357 0.02352424
v 0.01278987 0.03338666 0.02376057
v 0.01341285 0.03308731 0.02374714
v 0.01369667 0.03280126 0.02346515
v 0.01344503 0.03262415 0.02289983
v 0.01934083 0.02805492 0.03661669
v 0.01936400 0.02797842 0.03560823
v 0.01930544 0.02821706 0.03645555
v 0.01304344 0.03638763 0.03661669
v 0.01278987 0.03645249 0.03645555
v 0.01652905 0.02971963 0.02289983
v 0.01668415 0.02997574 0.02369343
v 0.01639969 0.03121554 0.02495971
v 0.01649108 0.03134193 0.02544043
v 0.01647306 0.03047964 0.02394051
v 0.01695188 0.03155564 0.02715655
v 0.01706322 0.03177849 0.02798238
v 0.01732386 0.03135441 0.02798238
v 0.01811804 0.02797842 0.02546997
v 0.01810967 0.02875423 0.02654423
v 0.01821200 0.02825365 0.02627298
v 0.01840507 0.02821706 0.02713507
v 0.01815794 0.02904776 0.02719684
v 0.01802279 0.03021189 0.02866588
v 0.01812254 0.02962484 0.02798238
v 0.01830403 0.02906439 0.02798238
v 0.01741847 0.03152321 0.02882970
v 0.01792818 0.03086298 0.02967702
v 0.01785868 0.03068004 0.02890087
v 0.01278987 0.03363362 0.02429367
v 0.01281947 0.03364942 0.02435947
v 0.01337424 0.03349725 0.02462266
v 0.01394573 0.03294761 0.02402913
v 0.01421153 0.03219092 0.02296428
v 0.01417549 0.03217679 0.02289983
v 0.01424049 0.03260336 0.02374714
v 0.01930350 0.02821706 0.03661669
v 0.01934920 0.02797842 0.03476092
v 0.01930994 0.02821706 0.03560823
v 0.01907504 0.02906439 0.03661669
v 0.01318181 0.03633940 0.03661669
v 0.01315671 0.03632859 0.03645555
v 0.01304987 0.03628951 0.03585531
v 0.01278987 0.03632360 0.03543501
v 0.01623751 0.03014537 0.02289983
v 0.01635399 0.03030087 0.02337518
v 0.01615384 0.03176518 0.02544043
v 0.01629157 0.03192650 0.02606619
v 0.01640677 0.03206786 0.02663151
v 0.01627419 0.03104425 0.02439572
v 0.01593760 0.03158141 0.02464011
v 0.01660821 0.03162881 0.02632401
v 0.01650202 0.03218926 0.02713507
v 0.01663974 0.03236637 0.02798238
v 0.01717134 0.03194645 0.02882970
v 0.01722282 0.03202794 0.02925940
v 0.01813155 0.02797842 0.02552906
v 0.01829888 0.02797842 0.02627701
v 0.01847715 0.02797842 0.02713507
v 0.01856211 0.02821706 0.02798238
v 0.01807556 0.03034494 0.02923120
v 0.01817145 0.02992252 0.02890087
v 0.01830339 0.02991171 0.02967702
v 0.01844304 0.02991171 0.03052299
v 0.01844369 0.02906439 0.02882970
v 0.01736377 0.03225329 0.03052299
v 0.01748540 0.03169034 0.02959645
v 0.01772610 0.03160636 0.03052299
v 0.01800927 0.03104175 0.03052299
v 0.01278987 0.03365607 0.02434470
v 0.01278987 0.03367270 0.02438901
v 0.01306725 0.03375918 0.02492479
v 0.01363231 0.03363196 0.02526587
v 0.01451079 0.03276135 0.02441721
v 0.01424049 0.03304240 0.02465757
v 0.01470387 0.03204790 0.02329193
v 0.01427975 0.03210444 0.02289983
v 0.01929449 0.02821706 0.03476092
v 0.01930672 0.02797842 0.03391360
v 0.01907504 0.02906439 0.03560823
v 0.01907568 0.02906439 0.03645555
v 0.01891607 0.02963897 0.03661669
v 0.01360592 0.03618141 0.03661669
v 0.01358018 0.03617226 0.03645555
v 0.01341092 0.03602425 0.03476092
v 0.01294690 0.03625209 0.03528999
v 0.01284329 0.03621883 0.03476092
v 0.01278987 0.03623629 0.03476092
v 0.01576705 0.03073409 0.02289983
v 0.01577671 0.03075571 0.02295085
v 0.01615191 0.03076070 0.02369343
v 0.01560037 0.03209862 0.02488585
v 0.01612488 0.03261250 0.02713507
v 0.01573101 0.03223000 0.02544043
v 0.01568982 0.03135773 0.02374580
v 0.01629607 0.03278962 0.02798238
v 0.01636880 0.03286862 0.02842954
v 0.01708317 0.03267736 0.03052299
v 0.01863226 0.02797842 0.02797567
v 0.01870047 0.02821706 0.02882970
v 0.01869018 0.02797842 0.02833017
v 0.01811611 0.03043973 0.02967702
v 0.01819076 0.03061851 0.03052299
v 0.01855696 0.02991171 0.03137165
v 0.01870176 0.02906439 0.03052299
v 0.01857433 0.02906439 0.02967702
v 0.01717713 0.03280874 0.03137165
v 0.01744100 0.03238467 0.03137165
v 0.01789729 0.03154815 0.03135822
v 0.01805625 0.03114902 0.03106683
v 0.01278987 0.03381240 0.02476365
v 0.01278987 0.03396706 0.02520947
v 0.01341092 0.03409678 0.02628775
v 0.01337424 0.03383402 0.02550489
v 0.01385628 0.03373590 0.02583119
v 0.01470387 0.03289190 0.02498253
v 0.01484674 0.03216847 0.02374580
v 0.01418707 0.03341659 0.02550489
v 0.01544527 0.03194645 0.02432052
v 0.01527021 0.03178098 0.02374580
v 0.01556240 0.03121637 0.02326776
v 0.01504303 0.03154400 0.02299785
v 0.01501278 0.03151157 0.02289983
v 0.01483580 0.03166124 0.02289983
v 0.01925073 0.02821706 0.03391360
v 0.01891865 0.02948847 0.03433659
v 0.01905637 0.02906439 0.03476092
v 0.01925202 0.02797842 0.03306628
v 0.01893667 0.02955083 0.03560823
v 0.01893860 0.02955748 0.03645555
v 0.01881825 0.02998156 0.03661669
v 0.01881760 0.02998156 0.03645555
v 0.01415425 0.03594775 0.03661669
v 0.01425851 0.03578394 0.03560823
v 0.01425851 0.03568167 0.03476092
v 0.01429133 0.03555527 0.03397940
v 0.01341092 0.03590036 0.03391360
v 0.01278987 0.03622714 0.03469915
v 0.01569690 0.03081225 0.02289983
v 0.01525798 0.03265325 0.02544043
v 0.01542853 0.03279295 0.02604873
v 0.01557655 0.03291851 0.02661405
v 0.01507457 0.03242957 0.02465220
v 0.01570205 0.03302993 0.02713507
v 0.01587324 0.03318792 0.02798238
v 0.01627355 0.03362530 0.03052299
v 0.01635721 0.03370513 0.03103460
v 0.01665905 0.03320122 0.03052299
v 0.01882661 0.02819794 0.02962868
v 0.01886845 0.02797842 0.02947023
v 0.01880988 0.02797842 0.02908215
v 0.01877127 0.02797842 0.02882970
v 0.01822680 0.03082306 0.03135822
v 0.01893988 0.02871099 0.03159993
v 0.01881889 0.02902198 0.03133808
v 0.01890899 0.02860871 0.03103460
v 0.01834136 0.03075904 0.03221897
v 0.01863612 0.02991171 0.03221897
v 0.01887295 0.02848731 0.03052299
v 0.01894117 0.02797842 0.02996035
v 0.01670088 0.03337335 0.03133942
v 0.01721703 0.03286612 0.03184432
v 0.01745902 0.03253185 0.03216257
v 0.01791917 0.03171778 0.03221897
v 0.01809101 0.03122635 0.03163081
v 0.01278987 0.03450506 0.02677519
v 0.01283814 0.03452169 0.02687725
v 0.01338518 0.03439945 0.02714984
v 0.01365097 0.03450173 0.02781185
v 0.01400430 0.03381988 0.02628775
v 0.01460347 0.03367935 0.02683696
v 0.01442777 0.03357541 0.02628775
v 0.01483451 0.03298503 0.02544043
v 0.01515501 0.03137686 0.02289983
v 0.01919538 0.02821706 0.03306628
v 0.01880602 0.02994165 0.03476092
v 0.01889998 0.02942194 0.03377126
v 0.01879701 0.02982690 0.03399686
v 0.01919538 0.02797842 0.03221897
v 0.01881567 0.02997408 0.03560823
v 0.01856918 0.03075904 0.03661669
v 0.01856854 0.03075904 0.03645555
v 0.01425851 0.03589952 0.03661669
v 0.01425851 0.03588289 0.03645555
v 0.01469099 0.03542389 0.03430705
v 0.01459510 0.03537650 0.03374172
v 0.01404806 0.03551453 0.03306628
v 0.01278987 0.03609909 0.03387332
v 0.01278987 0.03621051 0.03459172
v 0.01392385 0.03545881 0.03240159
v 0.01381316 0.03541142 0.03183761
v 0.01341092 0.03575650 0.03306628
v 0.01278987 0.03606001 0.03364235
v 0.01512991 0.03312140 0.02631461
v 0.01507971 0.03348062 0.02712567
v 0.01535710 0.03361200 0.02798238
v 0.01548388 0.03369432 0.02850205
v 0.01559586 0.03377498 0.02906604
v 0.01602641 0.03402776 0.03133942
v 0.01605859 0.03431464 0.03306628
v 0.01641385 0.03376167 0.03159993
v 0.01570270 0.03385979 0.02967702
v 0.01585072 0.03397704 0.03052299
v 0.01903835 0.02828192 0.03133808
v 0.01884077 0.02922570 0.03221897
v 0.01896627 0.02880246 0.03221897
v 0.01913682 0.02821706 0.03221897
v 0.01899845 0.02806323 0.03052299
v 0.01812190 0.03129371 0.03221897
v 0.01816244 0.03138601 0.03306628
v 0.01820041 0.03147914 0.03391360
v 0.01841473 0.03075904 0.03306628
v 0.01848681 0.03075904 0.03391360
v 0.01870305 0.02991171 0.03306628
v 0.01897335 0.02797842 0.03018192
v 0.01695381 0.03324031 0.03216257
v 0.01696217 0.03340246 0.03306628
v 0.01702975 0.03347979 0.03391360
v 0.01725371 0.03291851 0.03240830
v 0.01729619 0.03297838 0.03306628
v 0.01761476 0.03245285 0.03306628
v 0.01771387 0.03245285 0.03391360
v 0.01801185 0.03190322 0.03391360
v 0.01796615 0.03180925 0.03306628
v 0.01278987 0.03453000 0.02685173
v 0.01278987 0.03465556 0.02727875
v 0.01308591 0.03460567 0.02744257
v 0.01338518 0.03465972 0.02804952
v 0.01384984 0.03457906 0.02837583
v 0.01429648 0.03395376 0.02712567
v 0.01478045 0.03377914 0.02740095
v 0.01899716 0.02891139 0.03306628
v 0.01854151 0.03075904 0.03476092
v 0.01856339 0.03075904 0.03560823
v 0.01887360 0.02933546 0.03306628
v 0.01911751 0.02797842 0.03134882
v 0.01830854 0.03143423 0.03661669
v 0.01824611 0.03159389 0.03645555
v 0.01476436 0.03563344 0.03661669
v 0.01481585 0.03550538 0.03560823
v 0.01473604 0.03545300 0.03476092
v 0.01516016 0.03519356 0.03476092
v 0.01502630 0.03516695 0.03397940
v 0.01549289 0.03454996 0.03192221
v 0.01498253 0.03473705 0.03137165
v 0.01447218 0.03531662 0.03306628
v 0.01425851 0.03511290 0.03137165
v 0.01368573 0.03537067 0.03137165
v 0.01348300 0.03557606 0.03215854
v 0.01278987 0.03595939 0.03306628
v 0.01493362 0.03386478 0.02798238
v 0.01523160 0.03440112 0.03052299
v 0.01540601 0.03450007 0.03137165
v 0.01589062 0.03429385 0.03220957
v 0.01556626 0.03459653 0.03248619
v 0.01615513 0.03438947 0.03391360
v 0.01646791 0.03381655 0.03221897
v 0.01902033 0.02797842 0.03052299
v 0.01804789 0.03197805 0.03476092
v 0.01823002 0.03155481 0.03476092
v 0.01653806 0.03389139 0.03306628
v 0.01734896 0.03305654 0.03391360
v 0.01660563 0.03396623 0.03391360
v 0.01665841 0.03402942 0.03476092
v 0.01708188 0.03354132 0.03476092
v 0.01738951 0.03311724 0.03476092
v 0.01778981 0.03245285 0.03476092
v 0.01278987 0.03478362 0.02774874
v 0.01341092 0.03506717 0.02967702
v 0.01418257 0.03430383 0.02804952
v 0.01338968 0.03528752 0.03052433
v 0.01425851 0.03492581 0.03052299
v 0.01480812 0.03464059 0.03052299
v 0.01469550 0.03457906 0.03007315
v 0.01824289 0.03158640 0.03560823
v 0.01824611 0.03159555 0.03661669
v 0.01806655 0.03201963 0.03661669
v 0.01821200 0.03167704 0.03661669
v 0.01489308 0.03556109 0.03661669
v 0.01488407 0.03555361 0.03645555
v 0.01523932 0.03523597 0.03560823
v 0.01581210 0.03477031 0.03476092
v 0.01573230 0.03471294 0.03391360
v 0.01563448 0.03464392 0.03306628
v 0.01309299 0.03545216 0.03080767
v 0.01326225 0.03550704 0.03137165
v 0.01278987 0.03592031 0.03284338
v 0.01623558 0.03445350 0.03476092
v 0.01782264 0.03245285 0.03560823
v 0.01806205 0.03201048 0.03560823
v 0.01629350 0.03450007 0.03560823
v 0.01668672 0.03407599 0.03560823
v 0.01711084 0.03357375 0.03560823
v 0.01740753 0.03314967 0.03560823
v 0.01278987 0.03484765 0.02800118
v 0.01278987 0.03536652 0.03005569
v 0.01278987 0.03539895 0.03018460
v 0.01783744 0.03245285 0.03661669
v 0.01531719 0.03527837 0.03661669
v 0.01530818 0.03527339 0.03645555
v 0.01587003 0.03481189 0.03560823
v 0.01278987 0.03550704 0.03063982
v 0.01278987 0.03560932 0.03113129
v 0.01278987 0.03565589 0.03137165
v 0.01278987 0.03575983 0.03194503
v 0.01278987 0.03580639 0.03220420
v 0.01741847 0.03317462 0.03661669
v 0.01590928 0.03484931 0.03645555
v 0.01633211 0.03453083 0.03645555
v 0.01633662 0.03453582 0.03661669
v 0.01670474 0.03410759 0.03645555
v 0.01712886 0.03359454 0.03645555
v 0.01713208 0.03359786 0.03661669
v 0.01736505 0.03325527 0.03661669
v 0.01580309 0.03493496 0.03661669
v 0.01591379 0.03485430 0.03661669
v 0.01663846 0.03419240 0.03661669
v 0.01670796 0.03411175 0.03661669
v 0.01678905 0.03401362 0.03661669
f 1 2 6
f 1 6 14
f 1 14 28
f 1 28 47
f 1 47 69
f 1 69 107
f 1 107 108
f 1 108 109
f 1 109 149
f 1 149 151
f 1 151 202
f 1 202 201
f 1 201 200
f 1 200 210
f 1 210 265
f 1 265 308
f 1 308 286
f 1 286 229
f 1 229 178
f 1 178 129
f 1 129 88
f 1 88 57
f 1 57 34
f 1 34 17
f 1 17 8
f 1 8 3
f 1 3 4
f 1 4 7
f 1 7 16
f 1 16 33
f 1 33 55
f 1 55 85
f 1 85 127
f 1 127 174
f 1 174 173
f 1 173 224
f 1 224 189
f 1 189 139
f 1 139 95
f 1 95 61
f 1 61 36
f 1 36 19
f 1 19 10
f 1 10 5
f 1 5 2
f 2 5 6
f 3 7 4
f 3 8 9
f 3 9 7
f 5 10 11
f 5 11 12
f 5 12 13
f 5 13 6
f 6 13 15
f 6 15 14
f 7 9 18
f 7 18 35
f 7 35 60
f 7 60 94
f 7 94 138
f 7 138 188
f 7 188 239
f 7 239 238
f 7 238 243
f 7 243 300
f 7 300 337
f 7 337 356
f 7 356 355
f 7 355 354
f 7 354 353
f 7 353 352
f 7 352 347
f 7 347 346
f 7 346 345
f 7 345 318
f 7 318 276
f 7 276 275
f 7 275 216
f 7 216 162
f 7 162 161
f 7 161 121
f 7 121 120
f 7 120 80
f 7 80 52
f 7 52 51
f 7 51 31
f 7 31 16
f 8 17 9
f 9 17 18
f 10 19 11
f 11 19 20
f 11 20 21
f 11 21 12
f 12 21 22
f 12 22 23
f 12 23 24
f 12 24 25
f 12 25 13
f 13 25 15
f 14 15 26
f 14 26 27
f 14 27 28
f 15 25 29
f 15 29 30
f 15 30 26
f 16 31 32
f 16 32 33
f 17 34 56
f 17 56 87
f 17 87 90
f 17 90 132
f 17 132 181
f 17 181 231
f 17 231 287
f 17 287 326
f 17 326 328
f 17 328 327
f 17 327 348
f 17 348 357
f 17 357 364
f 17 364 363
f 17 363 369
f 17 369 368
f 17 368 367
f 17 367 360
f 17 360 366
f 17 366 365
f 17 365 349
f 17 349 329
f 17 329 289
f 17 289 233
f 17 233 183
f 17 183 133
f 17 133 91
f 17 91 59
f 17 59 35
f 17 35 18
f 19 36 37
f 19 37 20
f 20 37 38
f 20 38 22
f 20 22 21
f 22 39 40
f 22 40 23
f 22 38 41
f 22 41 39
f 23 40 42
f 23 42 43
f 23 43 44
f 23 44 25
f 23 25 24
f 25 44 45
f 25 45 29
f 26 30 27
f 27 46 47
f 27 47 28
f 27 30 46
f 29 48 30
f 29 45 49
f 29 49 50
f 29 50 48
f 30 48 46
f 31 51 32
f 32 51 52
f 32 52 53
f 32 53 54
f 32 54 33
f 33 54 55
f 34 57 58
f 34 58 56
f 35 59 60
f 36 61 37
f 37 62 38
f 37 61 62
f 38 62 41
f 39 41 63
f 39 63 64
f 39 64 40
f 40 64 42
f 41 62 65
f 41 65 63
f 42 64 66
f 42 66 43
f 43 45 44
f 43 66 67
f 43 67 68
f 43 68 49
f 43 49 45
f 46 69 47
f 46 48 70
f 46 70 71
f 46 71 69
f 48 72 73
f 48 73 71
f 48 71 70
f 48 50 74
f 48 74 75
f 48 75 76
f 48 76 72
f 49 68 77
f 49 77 78
f 49 78 79
f 49 79 74
f 49 74 50
f 52 80 53
f 53 80 81
f 53 81 82
f 53 82 83
f 53 83 54
f 54 84 85
f 54 85 55
f 54 83 86
f 54 86 84
f 56 58 87
f 57 88 89
f 57 89 58
f 58 89 90
f 58 90 87
f 59 91 92
f 59 92 93
f 59 93 60
f 60 93 94
f 61 95 96
f 61 96 65
f 61 65 62
f 63 97 98
f 63 98 99
f 63 99 64
f 63 65 96
f 63 96 100
f 63 100 101
f 63 101 97
f 64 99 102
f 64 102 66
f 66 102 103
f 66 103 67
f 67 104 105
f 67 105 68
f 67 103 104
f 68 105 106
f 68 106 77
f 69 71 107
f 71 73 72
f 71 72 108
f 71 108 107
f 72 109 108
f 72 76 110
f 72 110 109
f 74 79 111
f 74 111 75
f 75 111 112
f 75 112 113
f 75 113 114
f 75 114 115
f 75 115 76
f 76 115 110
f 77 106 116
f 77 116 117
f 77 117 118
f 77 118 78
f 78 111 79
f 78 118 119
f 78 119 111
f 80 120 81
f 81 120 121
f 81 121 122
f 81 122 82
f 82 122 123
f 82 123 83
f 83 124 86
f 83 123 125
f 83 125 124
f 84 86 126
f 84 126 127
f 84 127 85
f 86 124 126
f 88 128 89
f 88 129 128
f 89 130 131
f 89 131 90
f 89 128 130
f 90 131 132
f 91 133 134
f 91 134 135
f 91 135 92
f 92 135 93
f 93 135 136
f 93 136 94
f 94 136 137
f 94 137 138
f 95 139 140
f 95 140 141
f 95 141 96
f 96 141 100
f 97 101 142
f 97 142 98
f 98 143 99
f 98 142 144
f 98 144 143
f 99 143 103
f 99 103 102
f 100 141 145
f 100 145 101
f 101 145 142
f 103 143 146
f 103 146 104
f 104 146 147
f 104 147 148
f 104 148 105
f 105 148 106
f 106 148 116
f 109 110 149
f 110 115 150
f 110 150 151
f 110 151 149
f 111 119 152
f 111 152 112
f 112 152 114
f 112 114 113
f 114 153 154
f 114 154 155
f 114 155 156
f 114 156 115
f 114 152 153
f 115 156 150
f 116 148 157
f 116 157 158
f 116 158 118
f 116 118 117
f 118 158 159
f 118 159 160
f 118 160 119
f 119 160 153
f 119 153 152
f 121 161 122
f 122 162 163
f 122 163 164
f 122 164 123
f 122 161 162
f 123 164 165
f 123 165 125
f 124 125 166
f 124 166 167
f 124 167 126
f 125 165 168
f 125 168 166
f 126 167 169
f 126 169 170
f 126 170 171
f 126 171 172
f 126 172 173
f 126 173 174
f 126 174 127
f 128 129 175
f 128 175 176
f 128 176 177
f 128 177 130
f 129 178 175
f 130 177 179
f 130 179 180
f 130 180 132
f 130 132 131
f 132 180 182
f 132 182 181
f 133 183 184
f 133 184 185
f 133 185 134
f 134 185 135
f 135 137 136
f 135 185 186
f 135 186 187
f 135 187 137
f 137 188 138
f 137 187 188
f 139 189 171
f 139 171 140
f 140 171 141
f 141 171 145
f 142 190 191
f 142 191 192
f 142 192 144
f 142 145 169
f 142 169 167
f 142 167 193
f 142 193 190
f 143 192 194
f 143 194 146
f 143 144 192
f 145 171 169
f 146 195 147
f 146 194 195
f 147 195 196
f 147 196 197
f 147 197 198
f 147 198 148
f 148 198 157
f 150 156 199
f 150 199 200
f 150 200 201
f 150 201 202
f 150 202 151
f 153 160 203
f 153 203 154
f 154 204 205
f 154 205 206
f 154 206 155
f 154 203 207
f 154 207 208
f 154 208 204
f 155 206 209
f 155 209 210
f 155 210 200
f 155 200 199
f 155 199 156
f 157 197 211
f 157 211 212
f 157 212 158
f 157 198 197
f 158 212 213
f 158 213 214
f 158 214 159
f 159 215 160
f 159 214 215
f 160 215 203
f 162 216 217
f 162 217 163
f 163 217 218
f 163 218 219
f 163 219 165
f 163 165 164
f 165 219 220
f 165 220 221
f 165 221 222
f 165 222 168
f 166 168 222
f 166 222 221
f 166 221 223
f 166 223 192
f 166 192 191
f 166 191 190
f 166 190 193
f 166 193 167
f 169 171 170
f 171 189 224
f 171 224 172
f 172 224 173
f 175 178 225
f 175 225 176
f 176 226 177
f 176 225 227
f 176 227 228
f 176 228 226
f 177 226 179
f 178 229 225
f 179 230 182
f 179 182 180
f 179 226 230
f 181 182 232
f 181 232 231
f 182 230 232
f 183 233 234
f 183 234 184
f 184 235 185
f 184 234 235
f 185 235 186
f 186 236 237
f 186 237 187
f 186 235 236
f 187 238 239
f 187 239 188
f 187 237 240
f 187 240 241
f 187 241 242
f 187 242 243
f 187 243 238
f 192 223 244
f 192 244 245
f 192 245 246
f 192 246 194
f 194 246 247
f 194 247 195
f 195 247 248
f 195 248 196
f 196 248 197
f 197 249 250
f 197 250 251
f 197 251 211
f 197 248 252
f 197 252 253
f 197 253 249
f 203 215 207
f 204 254 206
f 204 206 205
f 204 208 255
f 204 255 256
f 204 256 257
f 204 257 254
f 206 254 258
f 206 258 209
f 207 259 260
f 207 260 261
f 207 261 262
f 207 262 208
f 207 215 259
f 208 262 263
f 208 263 264
f 208 264 255
f 209 258 210
f 210 258 265
f 211 251 266
f 211 266 212
f 212 266 267
f 212 267 268
f 212 268 269
f 212 269 213
f 213 269 270
f 213 270 271
f 213 271 214
f 214 259 215
f 214 271 272
f 214 272 273
f 214 273 274
f 214 274 259
f 216 275 217
f 217 275 276
f 217 276 277
f 217 277 218
f 218 277 219
f 219 278 279
f 219 279 280
f 219 280 220
f 219 277 278
f 220 280 221
f 221 280 281
f 221 281 245
f 221 245 223
f 223 245 244
f 225 229 257
f 225 257 282
f 225 282 227
f 226 228 283
f 226 283 284
f 226 284 230
f 227 282 285
f 227 285 228
f 228 285 264
f 228 264 263
f 228 263 283
f 229 286 257
f 230 284 232
f 231 232 287
f 232 288 287
f 232 284 288
f 233 289 290
f 233 290 234
f 234 290 291
f 234 291 235
f 235 291 292
f 235 292 293
f 235 293 294
f 235 294 295
f 235 295 236
f 236 295 296
f 236 296 240
f 236 240 237
f 240 296 241
f 241 297 298
f 241 298 299
f 241 299 242
f 241 296 297
f 242 299 243
f 243 299 300
f 245 281 246
f 246 301 247
f 246 281 301
f 247 301 302
f 247 302 248
f 248 302 252
f 249 253 303
f 249 303 294
f 249 294 304
f 249 304 250
f 250 304 305
f 250 305 306
f 250 306 251
f 251 306 307
f 251 307 266
f 252 302 253
f 253 302 303
f 254 286 308
f 254 308 258
f 254 257 286
f 255 264 256
f 256 264 285
f 256 285 282
f 256 282 257
f 258 308 265
f 259 274 273
f 259 273 260
f 260 273 261
f 261 263 262
f 261 273 309
f 261 309 310
f 261 310 263
f 263 310 283
f 266 307 267
f 267 307 311
f 267 311 268
f 268 312 270
f 268 270 269
f 268 311 313
f 268 313 314
f 268 314 315
f 268 315 312
f 270 312 271
f 271 312 272
f 272 312 316
f 272 316 317
f 272 317 309
f 272 309 273
f 276 318 277
f 277 318 319
f 277 319 278
f 278 319 279
f 279 320 280
f 279 319 321
f 279 321 298
f 279 298 322
f 279 322 323
f 279 323 324
f 279 324 320
f 280 320 281
f 281 320 301
f 283 310 325
f 283 325 284
f 284 325 288
f 287 288 326
f 288 325 327
f 288 327 328
f 288 328 326
f 289 329 330
f 289 330 290
f 290 331 292
f 290 292 291
f 290 330 331
f 292 332 333
f 292 333 293
f 292 331 332
f 293 333 334
f 293 334 305
f 293 305 294
f 294 305 304
f 294 303 295
f 295 303 323
f 295 323 297
f 295 297 296
f 297 323 322
f 297 322 298
f 298 321 335
f 298 335 336
f 298 336 299
f 299 337 300
f 299 336 337
f 301 320 324
f 301 324 323
f 301 323 302
f 302 323 303
f 305 334 306
f 306 311 307
f 306 334 333
f 306 333 338
f 306 338 311
f 309 317 339
f 309 339 340
f 309 340 310
f 310 340 325
f 311 338 313
f 312 315 316
f 313 338 314
f 314 338 341
f 314 341 342
f 314 342 315
f 315 342 343
f 315 343 316
f 316 343 344
f 316 344 317
f 317 344 339
f 318 345 319
f 319 345 346
f 319 346 321
f 321 346 347
f 321 347 335
f 325 340 327
f 327 340 348
f 329 349 350
f 329 350 330
f 330 350 331
f 331 350 332
f 332 350 351
f 332 351 341
f 332 341 338
f 332 338 333
f 335 352 353
f 335 353 354
f 335 354 336
f 335 347 352
f 336 354 355
f 336 355 356
f 336 356 337
f 339 344 357
f 339 357 348
f 339 348 340
f 341 351 358
f 341 358 359
f 341 359 342
f 342 359 360
f 342 360 361
f 342 361 343
f 343 361 362
f 343 362 344
f 344 362 363
f 344 363 364
f 344 364 357
f 349 365 358
f 349 358 350
f 350 358 351
f 358 365 366
f 358 366 360
f 358 360 359
f 360 367 361
f 361 367 368
f 361 368 362
f 362 368 369
f 362 369 363

