# https://github.com/mikedh/trimesh
v 0.00036827 0.03753741 0.05876375
v 0.00036961 0.03696587 0.05876375
v 0.00036827 0.03753741 0.06187839
v 0.00037496 0.03838486 0.06272488
v 0.00037362 0.03781285 0.05876375
v 0.00037094 0.03669042 0.05876375
v 0.00037094 0.03669042 0.06187839
v 0.00037094 0.03753741 0.06272488
v 0.00037897 0.03838486 0.06357265
v 0.00074835 0.03916115 0.06527074
v 0.00074835 0.03916115 0.06526755
v 0.00038567 0.03838486 0.05933636
v 0.00038834 0.03838486 0.05876375
v 0.00064798 0.03611245 0.05876375
v 0.00039637 0.03669042 0.06272488
v 0.00039637 0.03838486 0.06527074
v 0.00078315 0.03583425 0.05876375
v 0.00074969 0.03591689 0.06187839
v 0.00154466 0.03950958 0.06527074
v 0.00154734 0.03951096 0.06526755
v 0.00074969 0.03914967 0.06441979
v 0.00051013 0.03860659 0.05876375
v 0.00077111 0.03594581 0.06272488
v 0.00090226 0.03607205 0.06331469
v 0.00076977 0.03771232 0.06527074
v 0.00107089 0.03570847 0.05876375
v 0.00154734 0.03556708 0.06187839
v 0.00154734 0.03560013 0.06272488
v 0.00239183 0.03950453 0.06527074
v 0.00239584 0.03950453 0.06526755
v 0.00239584 0.03948250 0.06441979
v 0.00154734 0.03948800 0.06441979
v 0.00076575 0.03905648 0.05876375
v 0.00076308 0.03906795 0.05933636
v 0.00076040 0.03908356 0.06018349
v 0.00075772 0.03909733 0.06103126
v 0.00075371 0.03912396 0.06272488
v 0.00075237 0.03913727 0.06357265
v 0.00154734 0.03594994 0.06342743
v 0.00154734 0.03743596 0.06527074
v 0.00154734 0.03550785 0.05876375
v 0.01118735 0.03482108 0.06527074
v 0.00323899 0.03948892 0.06527074
v 0.00324301 0.03947056 0.06441979
v 0.00324301 0.03944990 0.06357265
v 0.00239584 0.03945954 0.06357265
v 0.00154734 0.03946367 0.06357265
v 0.00239584 0.03943567 0.06272488
v 0.00154734 0.03943888 0.06272488
v 0.00154734 0.03941272 0.06187839
v 0.00154734 0.03930254 0.05876375
v 0.01152194 0.03482108 0.05876375
v 0.01133457 0.03482108 0.06085737
v 0.01132253 0.03482108 0.06103126
v 0.01128639 0.03482108 0.06165164
v 0.01125561 0.03482108 0.06246183
v 0.01122750 0.03482108 0.06327775
v 0.01120743 0.03482108 0.06409431
v 0.01119271 0.03482108 0.06490768
v 0.01118735 0.03482108 0.06526755
v 0.01363517 0.03482108 0.06527074
v 0.00408750 0.03945082 0.06527074
v 0.00409017 0.03945082 0.06526755
v 0.00409017 0.03942006 0.06357265
v 0.00493734 0.03935946 0.06272488
v 0.00578450 0.03917767 0.05876375
v 0.01403801 0.03482108 0.05876375
v 0.01400187 0.03490877 0.05876375
v 0.01355219 0.03499370 0.06527074
v 0.00493466 0.03939986 0.06527074
v 0.00578450 0.03934753 0.06526755
v 0.00578450 0.03933284 0.06441979
v 0.00578450 0.03931815 0.06357265
v 0.00578450 0.03930300 0.06272488
v 0.00578450 0.03927959 0.06187839
v 0.00663167 0.03911937 0.05876375
v 0.01393228 0.03504649 0.05876375
v 0.01316541 0.03567817 0.06526755
v 0.01316675 0.03567541 0.06527074
v 0.01378774 0.03533249 0.05876375
v 0.00578183 0.03934753 0.06527074
v 0.00663167 0.03926306 0.06526755
v 0.00663167 0.03924975 0.06441979
v 0.00663167 0.03923506 0.06357265
v 0.00663167 0.03921715 0.06272488
v 0.00663167 0.03919787 0.06187839
v 0.00663167 0.03917813 0.06103126
v 0.00663167 0.03915747 0.06018349
v 0.00663167 0.03913544 0.05933636
v 0.00720314 0.03904867 0.05876375
v 0.01343843 0.03584344 0.05876375
v 0.01286295 0.03610189 0.06527074
v 0.00662899 0.03926306 0.06527074
v 0.00747482 0.03913406 0.06527074
v 0.00747883 0.03913360 0.06526755
v 0.00747883 0.03912258 0.06441979
v 0.00747883 0.03910927 0.06357265
v 0.00747883 0.03909458 0.06272488
v 0.00747883 0.03904454 0.06018349
v 0.00747883 0.03907851 0.06187839
v 0.00747883 0.03906199 0.06103126
v 0.00747883 0.03902618 0.05933636
v 0.00747883 0.03901287 0.05876375
v 0.01306102 0.03635117 0.05876375
v 0.01244004 0.03660320 0.06526755
v 0.01244137 0.03660136 0.06527074
v 0.00832332 0.03894630 0.06527074
v 0.00832600 0.03894584 0.06526755
v 0.00832600 0.03893895 0.06441979
v 0.00832600 0.03893115 0.06357265
v 0.00832600 0.03892197 0.06272488
v 0.00826577 0.03888662 0.05933636
v 0.00825373 0.03888019 0.05876375
v 0.00867798 0.03879389 0.05876375
v 0.00799811 0.03892564 0.05876375
v 0.01292719 0.03648889 0.05876375
v 0.01203987 0.03702692 0.06527074
v 0.00878371 0.03881822 0.06527074
v 0.00878237 0.03881868 0.06526755
v 0.00877300 0.03881546 0.06357265
v 0.00876497 0.03881317 0.06272488
v 0.00875694 0.03881087 0.06215546
v 0.00901658 0.03870942 0.05876375
v 0.01263945 0.03677489 0.05876375
v 0.01221653 0.03717612 0.05876375
v 0.01161696 0.03738224 0.06526755
v 0.01161830 0.03738087 0.06527074
v 0.00920662 0.03868555 0.06527074
v 0.00920127 0.03868738 0.06441979
v 0.00919725 0.03868692 0.06357265
v 0.00918922 0.03868601 0.06272488
v 0.00917316 0.03866856 0.05876375
v 0.01206263 0.03728859 0.05876375
v 0.01104415 0.03780597 0.06527074
v 0.01001765 0.03835823 0.06527074
v 0.01002033 0.03836328 0.06441979
v 0.01002033 0.03836925 0.06357265
v 0.01002033 0.03839541 0.05876375
v 0.00920662 0.03868555 0.06526755
v 0.00974463 0.03848723 0.05876375
v 0.01171600 0.03753649 0.05876375
v 0.01152997 0.03766136 0.05876375
v 0.01116594 0.03789778 0.05876375
v 0.01061990 0.03805616 0.06526755
v 0.01062124 0.03805524 0.06527074
v 0.01074303 0.03809702 0.05876375
v 0.01051551 0.03819388 0.05876375
f 1 2 3
f 1 3 4
f 1 4 5
f 1 5 13
f 1 13 22
f 1 22 33
f 1 33 51
f 1 51 66
f 1 66 76
f 1 76 90
f 1 90 103
f 1 103 115
f 1 115 113
f 1 113 114
f 1 114 123
f 1 123 132
f 1 132 140
f 1 140 138
f 1 138 147
f 1 147 146
f 1 146 143
f 1 143 142
f 1 142 141
f 1 141 133
f 1 133 125
f 1 125 124
f 1 124 116
f 1 116 104
f 1 104 91
f 1 91 80
f 1 80 77
f 1 77 68
f 1 68 67
f 1 67 52
f 1 52 41
f 1 41 26
f 1 26 17
f 1 17 14
f 1 14 6
f 1 6 2
f 2 6 7
f 2 7 3
f 3 7 8
f 3 8 4
f 4 8 9
f 4 9 10
f 4 10 11
f 4 11 12
f 4 12 5
f 5 12 13
f 6 14 7
f 7 15 16
f 7 16 8
f 7 14 17
f 7 17 18
f 7 18 15
f 8 16 9
f 9 16 10
f 10 16 25
f 10 25 40
f 10 40 42
f 10 42 61
f 10 61 69
f 10 69 79
f 10 79 92
f 10 92 106
f 10 106 117
f 10 117 127
f 10 127 134
f 10 134 145
f 10 145 135
f 10 135 128
f 10 128 118
f 10 118 107
f 10 107 94
f 10 94 93
f 10 93 81
f 10 81 70
f 10 70 62
f 10 62 43
f 10 43 29
f 10 29 19
f 10 19 20
f 10 20 11
f 11 21 13
f 11 13 12
f 11 20 21
f 13 21 22
f 15 18 23
f 15 23 24
f 15 24 16
f 16 24 25
f 17 26 27
f 17 27 18
f 18 27 28
f 18 28 23
f 19 29 20
f 20 29 30
f 20 30 31
f 20 31 32
f 20 32 33
f 20 33 34
f 20 34 35
f 20 35 36
f 20 36 37
f 20 37 38
f 20 38 21
f 21 38 37
f 21 37 22
f 22 37 36
f 22 36 35
f 22 35 34
f 22 34 33
f 23 28 24
f 24 28 39
f 24 39 40
f 24 40 25
f 26 41 27
f 27 41 42
f 27 42 28
f 28 42 39
f 29 43 30
f 30 43 44
f 30 44 45
f 30 45 31
f 31 46 32
f 31 45 46
f 32 47 33
f 32 46 48
f 32 48 47
f 33 49 50
f 33 50 51
f 33 47 49
f 39 42 40
f 41 52 53
f 41 53 54
f 41 54 55
f 41 55 56
f 41 56 57
f 41 57 58
f 41 58 59
f 41 59 60
f 41 60 42
f 42 60 59
f 42 59 58
f 42 58 57
f 42 57 56
f 42 56 55
f 42 55 54
f 42 54 53
f 42 53 52
f 42 52 67
f 42 67 61
f 43 62 63
f 43 63 64
f 43 64 44
f 44 64 45
f 45 51 48
f 45 48 46
f 45 64 65
f 45 65 66
f 45 66 51
f 47 48 49
f 48 51 50
f 48 50 49
f 61 67 68
f 61 68 69
f 62 70 63
f 63 70 65
f 63 65 64
f 65 70 71
f 65 71 72
f 65 72 73
f 65 73 74
f 65 74 75
f 65 75 66
f 66 75 76
f 68 77 69
f 69 78 79
f 69 77 80
f 69 80 78
f 70 81 71
f 71 81 93
f 71 93 82
f 71 82 83
f 71 83 72
f 72 83 84
f 72 84 73
f 73 84 74
f 74 84 85
f 74 85 86
f 74 86 87
f 74 87 88
f 74 88 89
f 74 89 75
f 75 89 76
f 76 89 90
f 78 91 92
f 78 92 79
f 78 80 91
f 82 94 95
f 82 95 96
f 82 96 83
f 82 93 94
f 83 96 97
f 83 97 98
f 83 98 84
f 84 99 85
f 84 98 100
f 84 100 101
f 84 101 99
f 85 99 102
f 85 102 86
f 86 102 103
f 86 103 87
f 87 103 90
f 87 90 88
f 88 90 89
f 91 104 92
f 92 104 105
f 92 105 106
f 94 107 95
f 95 107 108
f 95 108 109
f 95 109 110
f 95 110 111
f 95 111 96
f 96 112 113
f 96 113 97
f 96 111 114
f 96 114 112
f 97 113 98
f 98 113 100
f 99 101 115
f 99 115 102
f 100 113 115
f 100 115 101
f 102 115 103
f 104 116 117
f 104 117 105
f 105 117 106
f 107 118 108
f 108 118 119
f 108 119 120
f 108 120 121
f 108 121 122
f 108 122 109
f 109 122 110
f 110 122 114
f 110 114 111
f 112 114 113
f 114 122 123
f 116 124 117
f 117 125 126
f 117 126 127
f 117 124 125
f 118 128 119
f 119 128 129
f 119 129 130
f 119 130 120
f 120 130 131
f 120 131 121
f 121 131 132
f 121 132 122
f 122 132 123
f 125 133 134
f 125 134 126
f 126 134 127
f 128 135 136
f 128 136 137
f 128 137 138
f 128 138 139
f 128 139 129
f 129 139 138
f 129 138 130
f 130 138 140
f 130 140 131
f 131 140 132
f 133 141 134
f 134 141 142
f 134 142 143
f 134 143 144
f 134 144 145
f 135 146 147
f 135 147 136
f 135 145 144
f 135 144 143
f 135 143 146
f 136 147 137
f 137 147 138

