# https://github.com/mikedh/trimesh
v -0.00715607 -0.03025372 0.03661803
v -0.00713735 -0.03093904 0.03661803
v -0.00714723 -0.03364301 0.04153594
v -0.00715347 -0.03194899 0.04153594
v -0.00715607 -0.03025372 0.03984560
v -0.00714723 -0.02940671 0.03984560
v -0.00701878 -0.02257091 0.04069294
v -0.00714775 -0.03009203 0.03661803
v -0.00713267 -0.03110073 0.03661803
v -0.00709263 -0.03449500 0.04153594
v -0.00715295 -0.03110446 0.04153594
v -0.00669221 -0.02257091 0.04121626
v -0.00692674 -0.02257091 0.03984560
v -0.00711239 -0.02940671 0.03661803
v -0.00680610 -0.03176989 0.03661803
v -0.00667037 -0.03502236 0.04098276
v -0.00676970 -0.03509450 0.04153594
v -0.00685082 -0.02994402 0.04153594
v -0.00607911 -0.02257091 0.04131592
v -0.00660017 -0.02257091 0.03937765
v -0.00704998 -0.02928731 0.03661803
v -0.00666725 -0.03181715 0.03661803
v -0.00607911 -0.03507584 0.04091585
v -0.00607911 -0.03527609 0.04153594
v -0.00607911 -0.03201491 0.03661803
v -0.00476919 -0.02600747 0.04153594
v -0.00438437 -0.02555100 0.04153594
v -0.00353726 -0.02522638 0.04153594
v -0.00184356 -0.02257091 0.04139247
v -0.00611499 -0.02257091 0.03933672
v -0.00607911 -0.02858457 0.03661803
v -0.00678634 -0.02878358 0.03661803
v -0.00353726 -0.03507584 0.04091585
v -0.00184356 -0.03206217 0.03661803
v -0.00353726 -0.03527609 0.04153594
v -0.00184721 -0.02517165 0.04153594
v -0.00184356 -0.02257091 0.03933383
v -0.00184356 -0.02575001 0.04153594
v -0.00607911 -0.02257091 0.03933383
v -0.00200477 -0.02858457 0.03661803
v -0.00269015 -0.03499997 0.04100973
v -0.00184356 -0.03307212 0.04153594
v -0.00226166 -0.03492162 0.04110794
v -0.00184356 -0.03203730 0.03661803
v -0.00269535 -0.03511440 0.04153594
v -0.00184356 -0.02858457 0.03661900
v -0.00225334 -0.03493281 0.04153594
v -0.00269015 -0.03511316 0.04153594
f 1 2 3
f 1 3 4
f 1 4 5
f 1 5 6
f 1 6 7
f 1 7 8
f 1 8 14
f 1 14 21
f 1 21 32
f 1 32 31
f 1 31 40
f 1 40 44
f 1 44 34
f 1 34 25
f 1 25 22
f 1 22 15
f 1 15 9
f 1 9 2
f 2 9 3
f 3 10 17
f 3 17 24
f 3 24 35
f 3 35 45
f 3 45 48
f 3 48 47
f 3 47 42
f 3 42 38
f 3 38 36
f 3 36 28
f 3 28 27
f 3 27 26
f 3 26 18
f 3 18 11
f 3 11 4
f 3 9 10
f 4 11 5
f 5 11 6
f 6 11 7
f 7 12 19
f 7 19 29
f 7 29 37
f 7 37 39
f 7 39 30
f 7 30 20
f 7 20 13
f 7 13 14
f 7 14 8
f 7 11 12
f 9 15 16
f 9 16 10
f 10 16 17
f 11 18 12
f 12 18 19
f 13 20 14
f 14 20 21
f 15 22 16
f 16 23 24
f 16 24 17
f 16 22 25
f 16 25 23
f 18 26 19
f 19 26 27
f 19 27 28
f 19 28 29
f 20 30 31
f 20 31 32
f 20 32 21
f 23 33 35
f 23 35 24
f 23 25 34
f 23 34 33
f 28 36 29
f 29 36 38
f 29 38 42
f 29 42 34
f 29 34 44
f 29 44 46
f 29 46 37
f 30 39 31
f 31 39 37
f 31 37 40
f 33 41 35
f 33 34 41
f 34 42 43
f 34 43 41
f 35 41 45
f 37 46 40
f 40 46 44
f 41 43 45
f 42 47 43
f 43 47 48
f 43 48 45

