# https://github.com/mikedh/trimesh
v -0.00010719 -0.02177864 0.01763393
v 0.00239362 -0.02177864 0.01763393
v 0.00030031 -0.02177864 0.01763479
v -0.00010719 -0.02176509 0.01763479
v -0.00010719 0.00129660 0.01763393
v 0.00270395 -0.02177864 0.01763479
v 0.00578405 -0.01669423 0.01763393
v -0.00010719 0.00115430 0.01763479
v 0.00050281 0.00129660 0.01763479
v 0.00629625 0.00129660 0.01763393
v 0.00578405 -0.01680942 0.01763479
v 0.00629625 -0.01330613 0.01763393
v 0.00629625 -0.01415315 0.01763427
v 0.00617714 0.00129660 0.01763479
v 0.00629625 0.00129434 0.01763479
v 0.00629625 -0.01417800 0.01763479
f 1 2 6
f 1 6 3
f 1 3 4
f 1 4 8
f 1 8 5
f 1 5 10
f 1 10 12
f 1 12 7
f 1 7 2
f 2 7 6
f 3 6 11
f 3 11 16
f 3 16 15
f 3 15 14
f 3 14 9
f 3 9 8
f 3 8 4
f 5 8 9
f 5 9 14
f 5 14 10
f 6 7 11
f 7 12 13
f 7 13 11
f 10 14 15
f 10 15 16
f 10 16 13
f 10 13 12
f 11 13 16

