# https://github.com/mikedh/trimesh
v 0.00650096 -0.00059540 0.06514118
v 0.00650096 -0.00114058 0.06496341
v 0.00650096 0.00025163 0.06511109
v 0.00616513 0.00025163 0.07792409
v 0.00616513 -0.00059540 0.07792409
v 0.00650096 -0.00144186 0.06477196
v 0.00650096 0.00071417 0.06441916
v 0.00613006 0.00109924 0.07792409
v 0.00601635 -0.00138734 0.07792409
v 0.00650096 -0.00193366 0.06353579
v 0.00650096 -0.00179364 0.06414020
v 0.00650096 -0.00155663 0.06462701
v 0.00650096 0.00088978 0.06414020
v 0.00572728 0.00170180 0.07792409
v 0.00650096 0.00100971 0.06286027
v 0.00650096 0.00104357 0.06201245
v 0.00600572 -0.00144186 0.07792409
v 0.00650096 -0.00195260 0.06341819
v 0.00498548 0.00187052 0.07792409
v 0.00239344 0.00202489 0.04998437
v 0.00650096 0.00100225 0.06116463
v 0.00380477 0.00163695 0.05275209
v 0.00560294 -0.00194916 0.07792409
v 0.00650096 -0.00203237 0.06188118
v 0.00493553 0.00188085 0.07792409
v 0.00304384 0.00177124 0.04998437
v 0.00154643 0.00203292 0.04998437
v 0.00650096 0.00087658 0.05876613
v 0.00493553 -0.00203294 0.07792409
v 0.00239344 -0.00378956 0.04998437
v 0.00650096 -0.00203294 0.06103336
v 0.00324151 0.00188085 0.07792409
v -0.00179591 0.00203350 0.04998437
v 0.00326383 0.00113023 0.04998437
v 0.00620233 0.00074688 0.05533110
v 0.00620233 0.00023499 0.05498377
v 0.00650096 -0.00203294 0.05876613
v 0.00620233 -0.00059597 0.05489078
v 0.00620233 0.00003586 0.05495368
v 0.00324151 -0.00203294 0.07792409
v 0.00153687 -0.00382916 0.04998437
v 0.00300240 -0.00340736 0.04998437
v 0.00620233 -0.00205705 0.05544049
v 0.00239344 0.00177468 0.07712823
v 0.00234987 0.00169492 0.07792409
v -0.00184161 0.00203350 0.04998437
v -0.00268862 0.00203292 0.04998437
v -0.00353563 0.00201054 0.04998437
v -0.00353563 0.00198702 0.05171009
v -0.00353563 0.00196291 0.05255791
v 0.00327127 0.00109866 0.04998437
v 0.00620233 -0.00202147 0.05524358
v 0.00620233 -0.00162263 0.05499470
v 0.00620233 -0.00143669 0.05491266
v 0.00327446 -0.00228946 0.04998437
v 0.00327446 0.00028147 0.04998437
v 0.00318625 -0.00203007 0.07792409
v -0.00269606 -0.00382858 0.04998437
v -0.00184161 -0.00382916 0.04998437
v 0.00307891 -0.00320421 0.04998437
v 0.00187588 0.00161630 0.07712823
v 0.00228292 0.00166967 0.07792409
v -0.00412333 0.00177411 0.04998437
v -0.00415734 0.00174312 0.05171009
v -0.00414458 0.00173279 0.05255791
v 0.00239344 -0.00193768 0.07792409
v -0.00353563 -0.00378325 0.04998437
v 0.00193752 0.00156120 0.07767795
v 0.00196303 0.00109924 0.07792409
v -0.00415734 0.00175747 0.04998437
v -0.00435501 0.00109866 0.05171009
v -0.00434225 0.00109866 0.05255791
v -0.00407444 0.00165130 0.05320608
v 0.00204380 -0.00161000 0.07792409
v 0.00196090 -0.00187398 0.07758769
v -0.00353563 -0.00349631 0.05255791
v -0.00391290 -0.00365011 0.04998437
v -0.00146433 0.00074688 0.06501810
v -0.00236023 0.00025163 0.06182648
v 0.00191520 0.00109924 0.07776273
v -0.00403831 0.00076754 0.05494548
v -0.00394053 0.00064014 0.05550887
v 0.00193965 0.00025163 0.07792409
v -0.00435394 0.00109866 0.04998437
v -0.00435607 -0.00228946 0.05255791
v -0.00433056 0.00025106 0.05340573
v -0.00425405 0.00025106 0.05425355
v 0.00201191 -0.00144186 0.07792409
v 0.00192902 -0.00144186 0.07770803
v -0.00398517 -0.00190038 0.05561279
v -0.00411270 -0.00295286 0.05340573
v -0.00415734 -0.00309460 0.05255791
v -0.00412439 -0.00339416 0.04998437
v -0.00407444 0.00031476 0.05517521
v -0.00398836 0.00007488 0.05563741
v -0.00312541 -0.00003301 0.05896304
v -0.00372373 -0.00059597 0.05679427
v -0.00167369 0.00025163 0.06441916
v -0.00148878 0.00025163 0.06511109
v 0.00193327 -0.00059540 0.07792409
v -0.00319661 -0.00059540 0.05876613
v -0.00237086 -0.00059540 0.06185109
v -0.00435394 0.00106882 0.04998437
v -0.00433056 -0.00228946 0.04998437
v -0.00432844 -0.00231930 0.04998437
v -0.00418603 -0.00320077 0.04998437
v -0.00417009 -0.00328857 0.04998437
v -0.00429868 -0.00228946 0.05340573
v -0.00433163 -0.00144243 0.05340573
v -0.00426361 -0.00144243 0.05425355
v -0.00426042 -0.00059597 0.05425355
v -0.00412970 -0.00059597 0.05509863
v 0.00196409 -0.00109581 0.07792409
v 0.00026688 -0.00111877 0.07166117
v -0.00400217 -0.00144243 0.05568390
v -0.00413077 -0.00144243 0.05509863
v -0.00400324 -0.00059597 0.05570031
v -0.00389909 -0.00059597 0.05612422
v -0.00312860 -0.00115951 0.05897398
f 1 2 6
f 1 6 12
f 1 12 11
f 1 11 10
f 1 10 18
f 1 18 24
f 1 24 31
f 1 31 37
f 1 37 28
f 1 28 21
f 1 21 16
f 1 16 15
f 1 15 13
f 1 13 7
f 1 7 3
f 1 3 4
f 1 4 5
f 1 5 2
f 2 5 6
f 3 7 4
f 4 8 14
f 4 14 19
f 4 19 25
f 4 25 32
f 4 32 45
f 4 45 62
f 4 62 69
f 4 69 83
f 4 83 100
f 4 100 113
f 4 113 88
f 4 88 74
f 4 74 66
f 4 66 57
f 4 57 40
f 4 40 29
f 4 29 23
f 4 23 17
f 4 17 9
f 4 9 5
f 4 7 8
f 5 9 10
f 5 10 11
f 5 11 12
f 5 12 6
f 7 13 8
f 8 13 15
f 8 15 16
f 8 16 14
f 9 17 10
f 10 17 18
f 14 16 20
f 14 20 19
f 16 21 22
f 16 22 20
f 17 23 18
f 18 23 24
f 19 20 25
f 20 22 26
f 20 26 34
f 20 34 51
f 20 51 56
f 20 56 55
f 20 55 60
f 20 60 42
f 20 42 30
f 20 30 41
f 20 41 59
f 20 59 58
f 20 58 67
f 20 67 77
f 20 77 93
f 20 93 107
f 20 107 106
f 20 106 105
f 20 105 104
f 20 104 103
f 20 103 84
f 20 84 70
f 20 70 63
f 20 63 48
f 20 48 47
f 20 47 46
f 20 46 33
f 20 33 27
f 20 27 25
f 21 28 22
f 22 28 26
f 23 29 30
f 23 30 24
f 24 30 31
f 25 27 33
f 25 33 46
f 25 46 32
f 26 28 35
f 26 35 36
f 26 36 34
f 28 37 38
f 28 38 39
f 28 39 36
f 28 36 35
f 29 40 59
f 29 59 41
f 29 41 30
f 30 42 43
f 30 43 37
f 30 37 31
f 32 44 45
f 32 46 47
f 32 47 48
f 32 48 49
f 32 49 50
f 32 50 44
f 34 36 51
f 36 39 51
f 37 43 52
f 37 52 53
f 37 53 54
f 37 54 38
f 38 54 55
f 38 55 56
f 38 56 51
f 38 51 39
f 40 57 58
f 40 58 59
f 42 60 52
f 42 52 43
f 44 61 45
f 44 50 61
f 45 61 62
f 48 63 64
f 48 64 49
f 49 64 65
f 49 65 50
f 50 65 61
f 52 60 53
f 53 60 54
f 54 60 55
f 57 66 67
f 57 67 58
f 61 68 62
f 61 65 68
f 62 68 69
f 63 70 64
f 64 71 72
f 64 72 65
f 64 70 71
f 65 72 73
f 65 73 68
f 66 74 75
f 66 75 76
f 66 76 67
f 67 76 77
f 68 78 79
f 68 79 80
f 68 80 69
f 68 73 81
f 68 81 82
f 68 82 78
f 69 80 83
f 70 84 71
f 71 85 72
f 71 84 85
f 72 85 86
f 72 86 87
f 72 87 81
f 72 81 73
f 74 88 75
f 75 88 89
f 75 89 90
f 75 90 91
f 75 91 76
f 76 91 92
f 76 92 77
f 77 92 93
f 78 82 94
f 78 94 95
f 78 95 79
f 79 96 97
f 79 97 98
f 79 98 80
f 79 95 96
f 80 98 99
f 80 99 83
f 81 87 94
f 81 94 82
f 83 99 101
f 83 101 102
f 83 102 100
f 84 103 85
f 85 103 104
f 85 104 105
f 85 105 106
f 85 106 107
f 85 107 92
f 85 92 108
f 85 108 109
f 85 109 86
f 86 109 110
f 86 110 111
f 86 111 87
f 87 111 112
f 87 112 94
f 88 113 89
f 89 113 114
f 89 114 90
f 90 115 116
f 90 116 108
f 90 108 91
f 90 114 115
f 91 108 92
f 92 107 93
f 94 112 95
f 95 112 117
f 95 117 118
f 95 118 96
f 96 118 97
f 97 118 115
f 97 115 101
f 97 101 99
f 97 99 98
f 100 102 114
f 100 114 113
f 101 115 119
f 101 119 102
f 102 119 114
f 108 116 110
f 108 110 109
f 110 116 112
f 110 112 111
f 112 116 117
f 114 119 115
f 115 118 117
f 115 117 116

