# https://github.com/mikedh/trimesh
v 0.00629628 0.00279425 0.02286303
v 0.00578392 0.00279425 0.02306591
v 0.00324155 0.00129675 0.02449075
v 0.00629628 0.00129675 0.02286303
v 0.00629628 0.00279425 0.01763393
v 0.00408921 0.00279425 0.02310555
v 0.00239510 0.00129675 0.02449679
v 0.00324155 0.00279425 0.02311697
v 0.00239510 0.00279425 0.02312570
v 0.00629628 0.00129675 0.01763393
v 0.00010315 0.00279425 0.01763393
v 0.00173237 0.00129675 0.02447194
v 0.00154744 0.00279425 0.02303904
v 0.00154744 0.00129675 0.02445716
v 0.00010315 0.00129675 0.01763393
v 0.00010315 0.00279425 0.02200786
v 0.00096596 0.00279425 0.02271323
v 0.00100962 0.00129675 0.02437789
v 0.00010315 0.00129675 0.02265277
v 0.00045179 0.00129675 0.02400505
f 1 2 3
f 1 3 4
f 1 4 10
f 1 10 5
f 1 5 11
f 1 11 16
f 1 16 17
f 1 17 13
f 1 13 9
f 1 9 8
f 1 8 6
f 1 6 2
f 2 6 3
f 3 7 12
f 3 12 14
f 3 14 18
f 3 18 20
f 3 20 19
f 3 19 15
f 3 15 10
f 3 10 4
f 3 6 8
f 3 8 9
f 3 9 7
f 5 10 15
f 5 15 11
f 7 9 12
f 9 13 14
f 9 14 12
f 11 15 19
f 11 19 16
f 13 17 18
f 13 18 14
f 16 19 20
f 16 20 17
f 17 20 18

