# https://github.com/mikedh/trimesh
v 0.00629688 0.01516147 0.01442394
v 0.00629688 0.01530122 0.01506198
v 0.00629688 0.01517753 0.01438692
v 0.00685330 0.01498959 0.01389208
v 0.01229304 0.01095445 0.01442394
v 0.00629688 0.01534941 0.01527109
v 0.00629688 0.01553093 0.01376382
v 0.01229304 0.01135765 0.01379174
v 0.01196318 0.01151346 0.01387032
v 0.01229304 0.01097212 0.01438920
v 0.01229304 0.01118416 0.01527109
v 0.00703584 0.01507473 0.01570068
v 0.00629688 0.01568835 0.01572535
v 0.00629688 0.01578312 0.01367810
v 0.01229304 0.01148294 0.01373622
v 0.01229304 0.01153274 0.01571951
v 0.01210052 0.01165321 0.01571139
v 0.00629688 0.02389838 0.01685110
v 0.00629688 0.01635338 0.01354270
v 0.01229304 0.01238731 0.01354757
v 0.01229304 0.02086720 0.01685110
v 0.00629688 0.02736486 0.01685110
v 0.00663202 0.01635338 0.01353393
v 0.01171549 0.01296399 0.01353523
v 0.00629688 0.01668910 0.01353393
v 0.01229304 0.01296399 0.01353458
v 0.01229304 0.02736486 0.01685110
v 0.00629688 0.02736486 0.01368297
v 0.01086854 0.01381214 0.01353393
v 0.00629688 0.02600750 0.01353393
v 0.01229304 0.01323385 0.01353393
v 0.01229304 0.02736486 0.01606142
v 0.00663613 0.02736486 0.01371414
v 0.00832651 0.02652153 0.01361023
v 0.00747956 0.02652153 0.01356250
v 0.00629688 0.02685565 0.01357873
v 0.00629688 0.02652153 0.01353815
v 0.00832651 0.02567338 0.01353393
v 0.01229304 0.02340201 0.01353393
v 0.01229304 0.02621633 0.01467721
v 0.01191857 0.02597056 0.01413495
v 0.01166795 0.02633359 0.01442005
v 0.01135335 0.02612637 0.01397488
v 0.01091550 0.02669823 0.01442556
v 0.01066429 0.02704199 0.01470936
v 0.01171549 0.02736486 0.01573087
v 0.00755997 0.02736486 0.01383396
v 0.00832651 0.02717050 0.01384337
v 0.00917405 0.02652153 0.01371057
v 0.01086854 0.02567338 0.01367615
v 0.01002100 0.02567338 0.01358004
v 0.00663202 0.02652153 0.01354107
v 0.00917405 0.02567338 0.01354205
v 0.01086854 0.02482524 0.01354042
v 0.01171549 0.02397869 0.01353393
v 0.01229304 0.02397869 0.01354237
v 0.01229304 0.02589185 0.01429081
v 0.01229304 0.02562038 0.01401189
v 0.01229304 0.02546295 0.01389662
v 0.01166795 0.02568142 0.01383623
v 0.01086854 0.02623400 0.01390279
v 0.00960662 0.02694882 0.01399663
v 0.01017185 0.02681550 0.01414437
v 0.00994177 0.02713034 0.01442556
v 0.01086326 0.02736486 0.01525648
v 0.00808176 0.02736486 0.01393526
v 0.00917405 0.02702593 0.01393559
v 0.00994177 0.02652796 0.01384824
v 0.01229304 0.02508386 0.01374239
v 0.01229304 0.02482524 0.01366348
v 0.01171549 0.02482524 0.01358101
v 0.01229304 0.02424856 0.01355731
v 0.00867046 0.02736486 0.01412359
v 0.00923568 0.02736486 0.01438011
v 0.00998168 0.02736486 0.01477008
f 1 2 6
f 1 6 13
f 1 13 18
f 1 18 22
f 1 22 28
f 1 28 36
f 1 36 37
f 1 37 30
f 1 30 25
f 1 25 19
f 1 19 14
f 1 14 7
f 1 7 3
f 1 3 4
f 1 4 5
f 1 5 2
f 2 5 6
f 3 7 4
f 4 7 8
f 4 8 9
f 4 9 10
f 4 10 5
f 5 10 8
f 5 8 15
f 5 15 20
f 5 20 26
f 5 26 31
f 5 31 39
f 5 39 56
f 5 56 72
f 5 72 70
f 5 70 69
f 5 69 59
f 5 59 58
f 5 58 57
f 5 57 40
f 5 40 32
f 5 32 27
f 5 27 21
f 5 21 16
f 5 16 11
f 5 11 6
f 6 12 13
f 6 11 12
f 7 14 15
f 7 15 8
f 8 10 9
f 11 16 17
f 11 17 12
f 12 17 16
f 12 16 13
f 13 16 18
f 14 19 15
f 15 19 20
f 16 21 18
f 18 21 27
f 18 27 22
f 19 23 24
f 19 24 20
f 19 25 23
f 20 24 26
f 22 27 32
f 22 32 46
f 22 46 65
f 22 65 75
f 22 75 74
f 22 74 73
f 22 73 66
f 22 66 47
f 22 47 33
f 22 33 28
f 23 29 24
f 23 25 30
f 23 30 38
f 23 38 55
f 23 55 39
f 23 39 31
f 23 31 29
f 24 29 26
f 26 29 31
f 28 33 34
f 28 34 35
f 28 35 36
f 30 37 38
f 32 40 41
f 32 41 42
f 32 42 43
f 32 43 44
f 32 44 45
f 32 45 46
f 33 47 48
f 33 48 34
f 34 49 50
f 34 50 51
f 34 51 35
f 34 48 49
f 35 52 36
f 35 51 53
f 35 53 52
f 36 52 37
f 37 52 38
f 38 52 53
f 38 53 54
f 38 54 55
f 39 55 56
f 40 57 41
f 41 43 42
f 41 57 58
f 41 58 43
f 43 58 59
f 43 59 60
f 43 60 61
f 43 61 62
f 43 62 63
f 43 63 44
f 44 63 45
f 45 63 62
f 45 62 64
f 45 64 46
f 46 64 65
f 47 66 48
f 48 66 67
f 48 67 68
f 48 68 49
f 49 68 50
f 50 68 61
f 50 61 60
f 50 60 69
f 50 69 70
f 50 70 71
f 50 71 51
f 51 71 54
f 51 54 53
f 54 71 72
f 54 72 56
f 54 56 55
f 59 69 60
f 61 68 67
f 61 67 62
f 62 67 73
f 62 73 74
f 62 74 75
f 62 75 64
f 64 75 65
f 66 73 67
f 70 72 71

