# https://github.com/mikedh/trimesh
v 0.00863458 0.02736487 0.01411361
v 0.00863458 0.02738921 0.01413683
v 0.00867039 0.02736487 0.01412393
v 0.00863458 0.02736487 0.01946567
v 0.00863458 0.03221415 0.01971766
v 0.00917389 0.03214382 0.01979851
v 0.00968814 0.03205997 0.01989569
v 0.01086847 0.03143580 0.01964800
v 0.01171576 0.03127621 0.01982517
v 0.00923585 0.02736487 0.01438022
v 0.00917389 0.02736487 0.02006598
v 0.00863458 0.02736690 0.02011930
v 0.00863458 0.03248397 0.02004190
v 0.00895831 0.03293907 0.02069725
v 0.00921400 0.03261516 0.02039108
v 0.01025324 0.03196394 0.02001094
v 0.00999110 0.03230071 0.02031797
v 0.01086847 0.03185980 0.02013994
v 0.01214729 0.03118559 0.01992751
v 0.01146007 0.03209716 0.02069467
v 0.01173188 0.03173740 0.02038936
v 0.00998179 0.02736487 0.01477069
v 0.01218704 0.03035788 0.01905973
v 0.01229304 0.03033151 0.01908725
v 0.01229304 0.02736487 0.02013478
v 0.01229304 0.03041131 0.02289897
v 0.00863458 0.03175837 0.02289897
v 0.00863458 0.03265640 0.02025347
v 0.00863458 0.03297559 0.02064995
v 0.00863458 0.03319469 0.02097505
v 0.00863458 0.03361395 0.02161664
v 0.00863458 0.03367346 0.02170866
v 0.00921400 0.03315817 0.02113760
v 0.00952305 0.03285319 0.02081250
v 0.01086847 0.03220265 0.02056394
v 0.01229304 0.03114975 0.01996966
v 0.01229304 0.03095229 0.01975378
v 0.01229304 0.03049719 0.01926442
v 0.01202517 0.03198152 0.02084174
v 0.01229304 0.03163259 0.02056394
v 0.01229304 0.03127148 0.02011758
v 0.01002154 0.03276934 0.02093290
v 0.01091503 0.03266384 0.02122102
v 0.01122838 0.03285590 0.02165878
v 0.01173188 0.03232032 0.02115566
v 0.01086346 0.02736487 0.01525747
v 0.01229304 0.03017868 0.01892986
v 0.01229304 0.02736487 0.01606161
v 0.01229304 0.03278489 0.02289897
v 0.00863458 0.03427261 0.02289897
v 0.00863458 0.03388851 0.02209740
v 0.00917389 0.03385537 0.02224189
v 0.00917389 0.03360517 0.02181789
v 0.01002154 0.03305268 0.02135605
v 0.01066364 0.03294786 0.02151515
v 0.01229304 0.03221483 0.02134401
v 0.01229304 0.03191931 0.02092603
v 0.01003909 0.03350373 0.02208020
v 0.01091503 0.03315885 0.02198474
v 0.01171576 0.03303374 0.02221953
v 0.01171576 0.03276596 0.02179639
v 0.01171576 0.02736487 0.01573135
v 0.01229304 0.02949433 0.01823151
v 0.01172149 0.03339418 0.02289897
v 0.01229304 0.03317305 0.02289725
v 0.00863458 0.03416712 0.02267449
v 0.00914775 0.03417117 0.02289897
v 0.00976836 0.03377760 0.02238208
v 0.00917139 0.03416644 0.02289897
v 0.00917389 0.03416509 0.02289725
v 0.01229304 0.03235616 0.02155042
v 0.01033346 0.03368766 0.02254893
v 0.01086847 0.03359975 0.02273040
v 0.01165166 0.03341852 0.02289897
v 0.01226153 0.03293231 0.02238466
v 0.01229304 0.03294786 0.02243970
v 0.01003909 0.03392029 0.02285769
v 0.01003551 0.03393922 0.02289897
v 0.01229304 0.03289647 0.02235198
v 0.01015512 0.03390338 0.02289897
v 0.01086847 0.03367955 0.02289897
v 0.01140922 0.03350238 0.02289897
v 0.01229304 0.03292487 0.02239756
f 1 2 3
f 1 3 10
f 1 10 22
f 1 22 46
f 1 46 62
f 1 62 48
f 1 48 25
f 1 25 11
f 1 11 4
f 1 4 12
f 1 12 27
f 1 27 50
f 1 50 66
f 1 66 51
f 1 51 32
f 1 32 31
f 1 31 30
f 1 30 29
f 1 29 28
f 1 28 13
f 1 13 5
f 1 5 2
f 2 5 6
f 2 6 7
f 2 7 8
f 2 8 3
f 3 8 9
f 3 9 10
f 4 11 12
f 5 13 6
f 6 13 14
f 6 14 15
f 6 15 7
f 7 16 8
f 7 15 17
f 7 17 16
f 8 16 18
f 8 18 9
f 9 19 10
f 9 18 20
f 9 20 21
f 9 21 19
f 10 19 23
f 10 23 24
f 10 24 22
f 11 25 12
f 12 25 26
f 12 26 27
f 13 28 14
f 14 28 29
f 14 29 30
f 14 30 31
f 14 31 32
f 14 32 33
f 14 33 34
f 14 34 15
f 15 34 17
f 16 17 35
f 16 35 18
f 17 34 35
f 18 35 20
f 19 36 37
f 19 37 38
f 19 38 23
f 19 21 39
f 19 39 40
f 19 40 41
f 19 41 36
f 20 35 34
f 20 34 42
f 20 42 43
f 20 43 44
f 20 44 45
f 20 45 39
f 20 39 21
f 22 24 47
f 22 47 46
f 23 38 24
f 24 38 37
f 24 37 36
f 24 36 41
f 24 41 40
f 24 40 57
f 24 57 56
f 24 56 71
f 24 71 79
f 24 79 83
f 24 83 76
f 24 76 65
f 24 65 49
f 24 49 26
f 24 26 25
f 24 25 48
f 24 48 63
f 24 63 47
f 26 49 64
f 26 64 74
f 26 74 82
f 26 82 81
f 26 81 80
f 26 80 78
f 26 78 69
f 26 69 67
f 26 67 50
f 26 50 27
f 32 51 52
f 32 52 53
f 32 53 33
f 33 53 54
f 33 54 34
f 34 54 55
f 34 55 42
f 39 45 56
f 39 56 57
f 39 57 40
f 42 55 44
f 42 44 43
f 44 55 58
f 44 58 59
f 44 59 60
f 44 60 61
f 44 61 45
f 45 61 56
f 46 47 62
f 47 63 62
f 48 62 63
f 49 65 64
f 50 67 66
f 51 66 52
f 52 68 53
f 52 66 67
f 52 67 69
f 52 69 70
f 52 70 68
f 53 68 54
f 54 68 58
f 54 58 55
f 56 61 71
f 58 68 59
f 59 68 60
f 60 68 72
f 60 72 73
f 60 73 74
f 60 74 75
f 60 75 61
f 61 75 71
f 64 65 76
f 64 76 75
f 64 75 74
f 68 77 72
f 68 70 77
f 69 78 70
f 70 78 77
f 71 75 79
f 72 77 80
f 72 80 81
f 72 81 73
f 73 81 82
f 73 82 74
f 75 76 83
f 75 83 79
f 77 78 80

