# https://github.com/mikedh/trimesh
v -0.00435607 0.00253546 0.04395412
v -0.00435607 0.00253546 0.04408277
v -0.00435607 0.00279446 0.04395412
v 0.00327607 0.00253546 0.04395412
v -0.00433590 0.00253546 0.04831926
v -0.00435607 0.00279446 0.04408277
v -0.00435383 0.00364185 0.04408277
v -0.00435383 0.00351335 0.04395412
v 0.00327607 0.00659978 0.04395412
v 0.00327607 0.00253546 0.04747207
v -0.00432843 0.00279446 0.04831926
v -0.00415062 0.00253546 0.04901166
v -0.00435308 0.00364185 0.04395412
v -0.00429556 0.00364185 0.04831926
v -0.00412298 0.00424259 0.04831926
v -0.00415660 0.00427402 0.04408277
v 0.00327607 0.00659978 0.04747207
v -0.00088440 0.00659978 0.04395412
v 0.00327383 0.00253546 0.04773093
v -0.00404603 0.00416183 0.04881398
v -0.00409833 0.00364185 0.04886209
v -0.00353653 0.00253546 0.04927419
v -0.00418574 0.00417814 0.04395412
v -0.00091354 0.00659978 0.04831926
v -0.00095911 0.00659978 0.04747207
v -0.00415511 0.00427163 0.04395412
v 0.00320062 0.00659978 0.04790351
v 0.00324843 0.00253546 0.04831926
v -0.00064683 0.00659978 0.04878731
v -0.00268934 0.00253546 0.04929615
v -0.00014778 0.00659978 0.04883124
v 0.00311321 0.00659978 0.04831926
v 0.00312815 0.00618365 0.04831926
v 0.00319090 0.00253546 0.04859225
v 0.00115437 0.00253546 0.04929667
v 0.00239452 0.00659978 0.04883124
v 0.00299666 0.00659978 0.04856349
v 0.00303402 0.00253546 0.04901898
v 0.00154659 0.00253546 0.04929667
v 0.00200156 0.00253546 0.04929040
v 0.00239452 0.00253546 0.04928360
v 0.00262686 0.00659978 0.04881503
v 0.00288386 0.00659978 0.04878731
v 0.00272846 0.00253546 0.04916959
f 1 2 6
f 1 6 3
f 1 3 8
f 1 8 13
f 1 13 23
f 1 23 26
f 1 26 18
f 1 18 9
f 1 9 4
f 1 4 10
f 1 10 19
f 1 19 28
f 1 28 34
f 1 34 38
f 1 38 44
f 1 44 41
f 1 41 40
f 1 40 39
f 1 39 35
f 1 35 30
f 1 30 22
f 1 22 12
f 1 12 5
f 1 5 2
f 2 5 6
f 3 6 7
f 3 7 8
f 4 9 17
f 4 17 10
f 5 11 7
f 5 7 6
f 5 12 11
f 7 13 8
f 7 11 14
f 7 14 15
f 7 15 16
f 7 16 13
f 9 18 25
f 9 25 24
f 9 24 29
f 9 29 31
f 9 31 36
f 9 36 42
f 9 42 43
f 9 43 37
f 9 37 32
f 9 32 27
f 9 27 17
f 10 17 19
f 11 12 14
f 12 20 21
f 12 21 14
f 12 22 20
f 13 16 23
f 14 21 20
f 14 20 15
f 15 20 24
f 15 24 25
f 15 25 16
f 16 26 23
f 16 25 18
f 16 18 26
f 17 27 28
f 17 28 19
f 20 22 29
f 20 29 24
f 22 30 31
f 22 31 29
f 27 32 33
f 27 33 28
f 28 33 34
f 30 35 31
f 31 35 39
f 31 39 36
f 32 37 38
f 32 38 34
f 32 34 33
f 36 39 40
f 36 40 41
f 36 41 42
f 37 43 38
f 38 43 44
f 41 44 43
f 41 43 42

