# https://github.com/mikedh/trimesh
v 0.00327607 0.02393137 0.04577758
v 0.00327607 0.02393137 0.04395412
v 0.00327459 0.02393137 0.04582580
v 0.00327310 0.02228454 0.04662456
v 0.00327607 0.02143705 0.04662456
v 0.00327607 0.01864298 0.04395412
v 0.00063548 0.02393137 0.04395412
v 0.00322935 0.02393137 0.04662456
v 0.00325827 0.02313151 0.04662456
v 0.00305435 0.01864298 0.04752053
v 0.00324048 0.01864298 0.04687733
v 0.00327607 0.01864298 0.04662456
v -0.00012978 0.01864298 0.04395412
v 0.00020021 0.02106430 0.04395412
v -0.00410141 0.01889510 0.04607935
v -0.00406656 0.01943663 0.04610579
v -0.00084164 0.02393137 0.04582074
v 0.00321675 0.02393137 0.04665994
v 0.00302914 0.02313151 0.04724637
v 0.00304397 0.02228454 0.04728371
v 0.00298836 0.01864298 0.04768270
v -0.00409251 0.01864298 0.04608518
v -0.00428976 0.01864298 0.04662456
v -0.00429940 0.01889510 0.04662456
v -0.00413923 0.01952671 0.04662456
v -0.00104631 0.02393137 0.04662456
v 0.00300096 0.02393137 0.04720437
v 0.00286749 0.01864298 0.04784875
v -0.00416370 0.01864298 0.04751820
v -0.00409251 0.01947856 0.04729654
v -0.00077565 0.02393137 0.04720476
v 0.00296463 0.02393137 0.04721565
v 0.00239439 0.02393137 0.04736070
v 0.00249969 0.01864298 0.04791602
v -0.00400946 0.01864298 0.04782697
v -0.00412810 0.01887440 0.04753648
v -0.00391825 0.01864298 0.04790086
v -0.00014831 0.02393137 0.04736109
v 0.00154682 0.02393137 0.04736109
v 0.00154682 0.01864298 0.04792652
v 0.00237363 0.01864298 0.04792497
v 0.00239439 0.01864298 0.04792458
v -0.00353710 0.01864298 0.04791758
v -0.00268954 0.01864298 0.04792652
v -0.00184197 0.01864298 0.04792691
v -0.00099440 0.01864298 0.04792691
f 1 2 7
f 1 7 17
f 1 17 26
f 1 26 31
f 1 31 38
f 1 38 39
f 1 39 33
f 1 33 32
f 1 32 27
f 1 27 18
f 1 18 8
f 1 8 3
f 1 3 4
f 1 4 5
f 1 5 12
f 1 12 6
f 1 6 2
f 2 6 13
f 2 13 14
f 2 14 7
f 3 8 9
f 3 9 4
f 4 9 10
f 4 10 11
f 4 11 5
f 5 11 12
f 6 12 11
f 6 11 10
f 6 10 21
f 6 21 28
f 6 28 34
f 6 34 42
f 6 42 41
f 6 41 40
f 6 40 46
f 6 46 45
f 6 45 44
f 6 44 43
f 6 43 37
f 6 37 35
f 6 35 29
f 6 29 23
f 6 23 22
f 6 22 13
f 7 14 15
f 7 15 16
f 7 16 17
f 8 18 9
f 9 18 19
f 9 19 20
f 9 20 10
f 10 20 21
f 13 22 15
f 13 15 14
f 15 22 23
f 15 23 24
f 15 24 16
f 16 24 25
f 16 25 17
f 17 25 26
f 18 27 19
f 19 27 28
f 19 28 21
f 19 21 20
f 23 29 24
f 24 29 30
f 24 30 25
f 25 30 26
f 26 30 31
f 27 32 28
f 28 32 33
f 28 33 34
f 29 35 36
f 29 36 30
f 30 36 35
f 30 35 37
f 30 37 31
f 31 37 38
f 33 39 40
f 33 40 41
f 33 41 42
f 33 42 34
f 37 43 38
f 38 43 44
f 38 44 45
f 38 45 46
f 38 46 39
f 39 46 40

