# https://github.com/mikedh/trimesh
v 0.01229304 -0.02997375 0.01997772
v 0.01234230 -0.02993773 0.02000881
v 0.01229304 -0.02996174 0.02001046
v 0.01229304 -0.02994974 0.01951042
v 0.01232499 -0.02993173 0.01950778
v 0.01387192 -0.02900728 0.01984907
v 0.01387192 -0.02900728 0.01995722
v 0.01341130 -0.02915135 0.02000947
v 0.01260056 -0.02943949 0.02007164
v 0.01229304 -0.02969762 0.02005974
v 0.01229304 -0.02991372 0.01940889
v 0.01274833 -0.02964959 0.01950778
v 0.01372281 -0.02889322 0.01928421
v 0.01424866 -0.02854506 0.01953390
v 0.01473990 -0.02818488 0.01978359
v 0.01419674 -0.02850304 0.02001873
v 0.01473990 -0.02818488 0.01997309
v 0.01341130 -0.02855706 0.02012654
v 0.01229304 -0.02942749 0.02010405
v 0.01229304 -0.02967360 0.01893234
v 0.01315836 -0.02910333 0.01894589
v 0.01406096 -0.02833495 0.01884536
v 0.01462674 -0.02807683 0.01921873
v 0.01547609 -0.02722441 0.01924916
v 0.01556395 -0.02732646 0.01981435
v 0.01505674 -0.02764462 0.02002005
v 0.01425931 -0.02771065 0.02013811
v 0.01556395 -0.02732646 0.01995953
v 0.01229304 -0.02882719 0.02016556
v 0.01321694 -0.02828693 0.01806322
v 0.01229304 -0.02911533 0.01831423
v 0.01287347 -0.02805882 0.01755194
v 0.01351780 -0.02763261 0.01755194
v 0.01378272 -0.02809484 0.01828116
v 0.01468931 -0.02729044 0.01823123
v 0.01485971 -0.02745853 0.01866049
v 0.01528172 -0.02703232 0.01866049
v 0.01567711 -0.02661212 0.01866049
v 0.01614305 -0.02602383 0.01859964
v 0.01650249 -0.02575370 0.01884139
v 0.01627351 -0.02631197 0.01950778
v 0.01580624 -0.02691226 0.01952200
v 0.01730923 -0.02487127 0.01950778
v 0.01573302 -0.02685823 0.02001112
v 0.01510733 -0.02685823 0.02012819
v 0.01595401 -0.02516541 0.02016556
v 0.01729459 -0.02485326 0.01998797
v 0.01651713 -0.02582573 0.02000947
v 0.01229304 -0.01245722 0.02016556
v 0.02164782 -0.01539265 0.02021881
v 0.02103677 -0.01583687 0.02021881
v 0.02021937 -0.01581286 0.02021881
v 0.01955108 -0.01563877 0.02021881
v 0.01873635 -0.01476235 0.02021881
v 0.01861653 -0.01404200 0.02021881
v 0.01229437 0.02755225 0.02021848
v 0.01229304 -0.02892324 0.01810291
v 0.01254864 -0.02826292 0.01755194
v 0.02587990 -0.00044538 0.01684058
v 0.01368554 -0.02751855 0.01755194
v 0.01393981 -0.02732646 0.01755194
v 0.01425399 -0.02706834 0.01755194
v 0.01482377 -0.02657009 0.01755194
v 0.01501813 -0.02639601 0.01755194
v 0.01525243 -0.02616790 0.01755194
v 0.01580091 -0.02562763 0.01755194
v 0.01553732 -0.02644403 0.01822759
v 0.01662763 -0.02472119 0.01755194
v 0.01635605 -0.02556160 0.01827653
v 0.01727595 -0.02396483 0.01755194
v 0.01800948 -0.02299235 0.01755194
v 0.01726796 -0.02480524 0.01898029
v 0.01892006 -0.02219997 0.01907950
v 0.01824112 -0.02335253 0.01950778
v 0.01680069 -0.02514740 0.02005907
v 0.01680202 -0.02431900 0.02014969
v 0.01891607 -0.02219396 0.01978128
v 0.01817589 -0.02325648 0.02000616
v 0.01743570 -0.02431900 0.02003262
v 0.01229304 -0.00044538 0.02006569
v 0.01229437 0.03135210 0.02021848
v 0.01835960 -0.02262617 0.02004618
v 0.01902922 -0.02162969 0.02000914
v 0.01986792 -0.01992486 0.02000781
v 0.02068398 -0.01814799 0.01999359
v 0.02148673 -0.01634111 0.01996085
v 0.02212707 -0.01416806 0.02021881
v 0.01860455 -0.01330964 0.02021881
v 0.01229304 -0.02841299 0.01755194
v 0.01239422 -0.02835897 0.01755194
v 0.02530080 -0.00482151 0.01755194
v 0.02521826 -0.00542780 0.01755194
v 0.02518232 -0.00567992 0.01755194
v 0.02509712 -0.00621418 0.01755194
v 0.02505052 -0.00649632 0.01755194
v 0.02489876 -0.00735474 0.01755194
v 0.02478028 -0.00796704 0.01755194
v 0.02458724 -0.00878944 0.01755194
v 0.02452068 -0.00905957 0.01755194
v 0.02437025 -0.00965386 0.01755194
v 0.02430235 -0.00991199 0.01755194
v 0.02418653 -0.01034420 0.01755194
v 0.02402412 -0.01089646 0.01755194
v 0.02388700 -0.01135269 0.01755194
v 0.02362075 -0.01218109 0.01755194
v 0.02353022 -0.01245722 0.01755194
v 0.02318942 -0.01347772 0.01755194
v 0.02312685 -0.01365181 0.01755194
v 0.02303366 -0.01389793 0.01755194
v 0.02238001 -0.01547669 0.01755194
v 0.02190209 -0.01648518 0.01755194
v 0.02161986 -0.01706147 0.01755194
v 0.02105807 -0.01817801 0.01755194
v 0.02075055 -0.01874829 0.01755194
v 0.02041640 -0.01932457 0.01755194
v 0.02011420 -0.01984082 0.01755194
v 0.01973612 -0.02045912 0.01755194
v 0.01903854 -0.02153364 0.01755194
v 0.01843282 -0.02240407 0.01755194
v 0.02322669 -0.00044538 0.01684058
v 0.02589321 0.00025697 0.01684058
v 0.02582399 -0.00044538 0.01702611
v 0.02553643 -0.00228827 0.01755194
v 0.02550448 -0.00272048 0.01755194
v 0.02546987 -0.00313469 0.01755194
v 0.02542727 -0.00362693 0.01755194
v 0.02539132 -0.00398110 0.01755194
v 0.02533275 -0.00452736 0.01755194
v 0.01819585 -0.02324448 0.01866049
v 0.01892006 -0.02219997 0.01921642
v 0.01978671 -0.02054916 0.01930505
v 0.01974677 -0.02048313 0.01986991
v 0.01229304 -0.00044538 0.01763429
v 0.01260855 0.03120203 0.02021848
v 0.01229437 0.03114800 0.01996945
v 0.01861786 -0.01245722 0.02021881
v 0.01974012 -0.00044538 0.02021881
v 0.02448740 -0.00044538 0.02021881
v 0.02074922 -0.01841212 0.01947801
v 0.02155330 -0.01648518 0.01950778
v 0.02179958 -0.01584287 0.01950778
v 0.02212973 -0.01494844 0.01946974
v 0.02224822 -0.01439016 0.01972737
v 0.02233741 -0.01381989 0.02001310
v 0.02217899 -0.01402399 0.02021881
v 0.01229304 -0.02464916 0.01755194
v 0.01229437 0.02087100 0.01684058
v 0.02480291 -0.00482751 0.01894457
v 0.02475498 -0.00567992 0.01879112
v 0.02470572 -0.00647831 0.01859303
v 0.02481888 -0.00673044 0.01814028
v 0.02476164 -0.00737275 0.01796897
v 0.02435960 -0.00821916 0.01866049
v 0.02467777 -0.00815313 0.01774210
v 0.02444347 -0.00906557 0.01781354
v 0.02400282 -0.01034420 0.01823883
v 0.02406139 -0.01053629 0.01781354
v 0.02374056 -0.01161081 0.01781354
v 0.02347298 -0.01245722 0.01781354
v 0.02324400 -0.01313555 0.01781354
v 0.02309623 -0.01356176 0.01781354
v 0.02229348 -0.01538665 0.01817203
v 0.02249184 -0.01506249 0.01785917
v 0.02235339 -0.01551871 0.01760684
v 0.02062807 -0.01884433 0.01917607
v 0.02065203 -0.01888635 0.01866049
v 0.02094092 -0.01838811 0.01781354
v 0.02589188 0.00038303 0.01684058
v 0.02585460 0.00025697 0.01696625
v 0.02578005 -0.00044538 0.01715178
v 0.02569885 -0.00023527 0.01739684
v 0.02471238 -0.00313469 0.01955573
v 0.02485882 -0.00365694 0.01910794
v 0.02569352 -0.00044538 0.01738427
v 0.02483086 -0.00421521 0.01903486
v 0.01229437 0.03094991 0.01975383
v 0.01229437 0.03049368 0.01926437
v 0.01229437 0.03032560 0.01908777
v 0.01229437 0.02949120 0.01823089
v 0.01229437 0.02864479 0.01738295
v 0.01229437 0.02809852 0.01684058
v 0.01315170 0.03089588 0.02021848
v 0.01271372 0.03103995 0.02009115
v 0.01275366 0.03021155 0.01920716
v 0.01245146 0.03069778 0.01956730
v 0.02569885 0.00025697 0.01739585
v 0.02569618 0.00068918 0.01739088
v 0.02448740 -0.00043337 0.02021848
v 0.02447275 0.00025697 0.02021848
v 0.02446876 0.00041304 0.02021848
v 0.02443548 0.00109737 0.02021848
v 0.02442616 0.00124745 0.02021848
v 0.02437690 0.00194379 0.02021848
v 0.02436758 0.00206985 0.02021848
v 0.02428238 0.00304232 0.02021848
v 0.02421848 0.00364261 0.02021848
v 0.02420916 0.00372665 0.02021848
v 0.02412663 0.00445301 0.02021848
v 0.02404675 0.00513734 0.02021848
v 0.02396954 0.00574364 0.02021848
v 0.02390830 0.00619386 0.02021848
v 0.02388700 0.00634993 0.02021848
v 0.02378316 0.00703426 0.02021848
v 0.02364471 0.00788068 0.02021848
v 0.02347298 0.00877511 0.02021848
v 0.02297375 0.01123031 0.02021848
v 0.02229215 0.01411171 0.02021848
v 0.02217899 0.01452591 0.02021848
v 0.02146810 0.01678301 0.02021848
v 0.02138423 0.01702913 0.02021848
v 0.02061209 0.01917217 0.02021848
v 0.02058813 0.01923821 0.02021848
v 0.02040309 0.01973044 0.02021848
v 0.01968421 0.02150731 0.02021848
v 0.01935805 0.02228169 0.02021848
v 0.01904786 0.02299603 0.02021848
v 0.01888944 0.02335021 0.02021848
v 0.01822115 0.02479091 0.02021848
v 0.01811198 0.02502502 0.02021848
v 0.01795223 0.02534318 0.02021848
v 0.01735982 0.02641770 0.02021848
v 0.01719208 0.02671184 0.02021848
v 0.01701902 0.02699398 0.02021848
v 0.01668487 0.02749823 0.02021848
v 0.01623091 0.02816455 0.02021848
v 0.01565314 0.02888490 0.02021848
v 0.01527107 0.02928109 0.02021848
v 0.01491829 0.02961125 0.02021848
v 0.01440975 0.03004346 0.02021848
v 0.01421671 0.03019354 0.02021848
v 0.01355641 0.03065576 0.02021848
v 0.01342727 0.03073380 0.02021848
v 0.02449139 -0.00127978 0.02021881
v 0.02318010 -0.01294946 0.01831754
v 0.02297908 -0.01326162 0.01862411
v 0.02309224 -0.01268533 0.01888240
v 0.02318143 -0.01212106 0.01915755
v 0.02238134 -0.01343570 0.02021881
v 0.02459656 -0.00482751 0.01950778
v 0.02449672 -0.00567992 0.01950778
v 0.02437025 -0.00652634 0.01950778
v 0.02453000 -0.00737275 0.01866049
v 0.02410799 -0.00821916 0.01937152
v 0.02404143 -0.00881345 0.01920451
v 0.02415458 -0.00908358 0.01869985
v 0.02405607 -0.00991199 0.01839361
v 0.02391362 -0.00991199 0.01881659
v 0.02367267 -0.00991199 0.01950778
v 0.02345035 -0.01076440 0.01950778
v 0.02379647 -0.01068036 0.01857682
v 0.02350226 -0.01161081 0.01866049
v 0.02587191 0.00103734 0.01684058
v 0.02581200 0.00101934 0.01703273
v 0.02448340 -0.00213220 0.02021881
v 0.02448074 -0.00228827 0.02021881
v 0.02445279 -0.00313469 0.02021881
v 0.02440752 -0.00383703 0.02021881
v 0.02439820 -0.00397510 0.02021881
v 0.02470706 -0.00395709 0.01943733
v 0.01276697 0.02937114 0.01835061
v 0.01241818 0.02803849 0.01684058
v 0.01322492 0.03047567 0.01977201
v 0.01325820 0.02964727 0.01891481
v 0.02582399 0.00194379 0.01689647
v 0.02566956 0.00194379 0.01732011
v 0.02546454 0.00194379 0.01781354
v 0.02489610 0.00109737 0.01919128
v 0.02470839 0.00109737 0.01961493
v 0.02509445 0.00194379 0.01866049
v 0.02487613 0.00194379 0.01914300
v 0.02500925 0.00277219 0.01872796
v 0.02483486 0.00303632 0.01905569
v 0.02481089 0.00364261 0.01900344
v 0.02476963 0.00448903 0.01891315
v 0.02447675 0.00448903 0.01950778
v 0.02437957 0.00533544 0.01950778
v 0.02408403 0.00533544 0.02009545
v 0.02404009 0.00603778 0.02000583
v 0.02400149 0.00660205 0.01993009
v 0.02396554 0.00703426 0.01985635
v 0.02389366 0.00788068 0.01970653
v 0.02404143 0.00848697 0.01916582
v 0.02419319 0.00875110 0.01871804
v 0.02411331 0.00957350 0.01848356
v 0.02404276 0.01016779 0.01832812
v 0.02232942 0.01430380 0.01999492
v 0.02397353 0.01073206 0.01814392
v 0.02148940 0.01684904 0.02004948
v 0.02314815 0.01336735 0.01821370
v 0.02321737 0.01355344 0.01764884
v 0.02310954 0.01411771 0.01711342
v 0.02313217 0.01417774 0.01684058
v 0.02298174 0.01452591 0.01684058
v 0.02232809 0.01596661 0.01696625
v 0.02232676 0.01596661 0.01684058
v 0.02215636 0.01632679 0.01684058
v 0.02166246 0.01731127 0.01684058
v 0.02131367 0.01797759 0.01684058
v 0.02062674 0.01919618 0.01684058
v 0.02053754 0.01934626 0.01684058
v 0.01989588 0.02037276 0.01684058
v 0.01967888 0.02070892 0.01684058
v 0.01907182 0.02160336 0.01684058
v 0.01636803 0.02777436 0.01994895
v 0.01557593 0.02868680 0.01987288
v 0.01472259 0.02952121 0.01989306
v 0.01378938 0.03030159 0.01996614
v 0.02325864 -0.01242121 0.01862411
v 0.02272880 -0.01230715 0.02021881
v 0.02324267 -0.01153878 0.01946710
v 0.02307759 -0.01177289 0.01972241
v 0.02431833 -0.00482751 0.02021881
v 0.02421981 -0.00567392 0.02021881
v 0.02409068 -0.00652634 0.02021881
v 0.02395356 -0.00733673 0.02021881
v 0.02380047 -0.00821916 0.02021881
v 0.02417988 -0.00743278 0.01958053
v 0.02395489 -0.00821916 0.01979517
v 0.02387901 -0.00908358 0.01949521
v 0.02339976 -0.00993600 0.02021881
v 0.02361808 -0.00907158 0.02021881
v 0.02322270 -0.01076440 0.02010736
v 0.02316013 -0.01120862 0.01994729
v 0.02583996 0.00194379 0.01684058
v 0.01326619 0.02880686 0.01806918
v 0.01276830 0.02851872 0.01750432
v 0.01262452 0.02793044 0.01684058
v 0.01382266 0.02947319 0.01909306
v 0.01383065 0.02863278 0.01824082
v 0.02583730 0.00200982 0.01684058
v 0.02580668 0.00265813 0.01684058
v 0.02580002 0.00279020 0.01684058
v 0.02564293 0.00279020 0.01725397
v 0.02541396 0.00279020 0.01781354
v 0.02500526 0.00364261 0.01857980
v 0.02496133 0.00448903 0.01849017
v 0.02491740 0.00533544 0.01838897
v 0.02472037 0.00533544 0.01881196
v 0.02421449 0.00626589 0.01959178
v 0.02417056 0.00703426 0.01943271
v 0.02488012 0.00595374 0.01830597
v 0.02469108 0.00621186 0.01861684
v 0.02409734 0.00788068 0.01928289
v 0.02438888 0.00788068 0.01866049
v 0.02473368 0.00791669 0.01779634
v 0.02456328 0.00872709 0.01781354
v 0.02436625 0.00957350 0.01781354
v 0.02390297 0.01129034 0.01784231
v 0.02365935 0.01211274 0.01781354
v 0.02469641 0.00944744 0.01684058
v 0.02405607 0.01102621 0.01757906
v 0.02397087 0.01159048 0.01726356
v 0.02333985 0.01303719 0.01788431
v 0.02395223 0.01194466 0.01684058
v 0.02356750 0.01295915 0.01696625
v 0.02325864 0.01382357 0.01688523
v 0.02324533 0.01387760 0.01684058
v 0.01874167 0.02207158 0.01684058
v 0.01817056 0.02284596 0.01684058
v 0.01793626 0.02315811 0.01684058
v 0.01639998 0.02696997 0.01905272
v 0.01741574 0.02377641 0.01684058
v 0.01714016 0.02410057 0.01684058
v 0.01659568 0.02473088 0.01684058
v 0.01636138 0.02499501 0.01684058
v 0.01559590 0.02786440 0.01900873
v 0.01531234 0.02842868 0.01930803
v 0.01426064 0.02970130 0.01969760
v 0.01474655 0.02869281 0.01902692
v 0.02297775 -0.01147875 0.02021881
v 0.02318010 -0.01076440 0.02021881
v 0.01383331 0.02778636 0.01739221
v 0.01352313 0.02742019 0.01684058
v 0.01326752 0.02795445 0.01722520
v 0.01426064 0.02930510 0.01927396
v 0.01426064 0.02888490 0.01883213
v 0.01426064 0.02847070 0.01840882
v 0.01426064 0.02720408 0.01713028
v 0.01426064 0.02691594 0.01684058
v 0.02574012 0.00345652 0.01684058
v 0.02560033 0.00364261 0.01714914
v 0.02533275 0.00364261 0.01781354
v 0.02514770 0.00533544 0.01781354
v 0.02453532 0.00703426 0.01866049
v 0.02547386 0.00533544 0.01696625
v 0.02500659 0.00621186 0.01787538
v 0.02483353 0.00651801 0.01819915
v 0.02478959 0.00703426 0.01808108
v 0.02483353 0.00822284 0.01734260
v 0.02494935 0.00703426 0.01765744
v 0.02488944 0.00765857 0.01750267
v 0.02477761 0.00872709 0.01715608
v 0.02487613 0.00872709 0.01684058
v 0.02441950 0.01041991 0.01684058
v 0.02439421 0.01041991 0.01696625
v 0.02413328 0.01129034 0.01697518
v 0.02408669 0.01153646 0.01684058
v 0.02402146 0.01174055 0.01684058
v 0.01611909 0.02525914 0.01684058
v 0.01583686 0.02553527 0.01684058
v 0.01503278 0.02814054 0.01873523
v 0.01522847 0.02611755 0.01684058
v 0.01475454 0.02785240 0.01817269
v 0.01358703 0.02737817 0.01684058
v 0.01475854 0.02701199 0.01732111
v 0.01495290 0.02635767 0.01684058
v 0.02572148 0.00364261 0.01684058
v 0.02567488 0.00404481 0.01684058
v 0.02562163 0.00448903 0.01684058
v 0.02560433 0.00463310 0.01684058
v 0.02551247 0.00533544 0.01684058
v 0.02534872 0.00618185 0.01696625
v 0.02519031 0.00703426 0.01696625
v 0.02499860 0.00791669 0.01702280
v 0.02489610 0.00863704 0.01684058
v 0.02538334 0.00617585 0.01684058
v 0.02535937 0.00630791 0.01684058
v 0.02522625 0.00703426 0.01684058
v 0.02504919 0.00791069 0.01684058
v 0.02494269 0.00842094 0.01684058
f 1 2 3
f 1 3 10
f 1 10 19
f 1 19 29
f 1 29 49
f 1 49 80
f 1 80 133
f 1 133 146
f 1 146 89
f 1 89 57
f 1 57 31
f 1 31 20
f 1 20 11
f 1 11 4
f 1 4 5
f 1 5 6
f 1 6 7
f 1 7 2
f 2 8 9
f 2 9 3
f 2 7 8
f 3 9 10
f 4 11 5
f 5 11 12
f 5 12 6
f 6 12 13
f 6 13 14
f 6 14 15
f 6 15 17
f 6 17 7
f 7 16 8
f 7 17 16
f 8 16 18
f 8 18 9
f 9 18 19
f 9 19 10
f 11 20 21
f 11 21 13
f 11 13 12
f 13 21 22
f 13 22 23
f 13 23 14
f 14 23 15
f 15 23 24
f 15 24 25
f 15 25 28
f 15 28 17
f 16 17 26
f 16 26 27
f 16 27 18
f 17 28 26
f 18 29 19
f 18 27 29
f 20 30 21
f 20 31 32
f 20 32 33
f 20 33 30
f 21 30 34
f 21 34 22
f 22 34 35
f 22 35 36
f 22 36 23
f 23 36 37
f 23 37 24
f 24 37 38
f 24 38 39
f 24 39 40
f 24 40 41
f 24 41 42
f 24 42 25
f 25 42 41
f 25 41 43
f 25 43 28
f 26 28 44
f 26 44 45
f 26 45 27
f 27 45 46
f 27 46 29
f 28 43 47
f 28 47 48
f 28 48 44
f 29 46 50
f 29 50 51
f 29 51 52
f 29 52 53
f 29 53 54
f 29 54 55
f 29 55 56
f 29 56 81
f 29 81 49
f 30 33 34
f 31 57 58
f 31 58 32
f 32 58 59
f 32 59 33
f 33 60 34
f 33 59 60
f 34 60 61
f 34 61 62
f 34 62 35
f 35 62 63
f 35 63 64
f 35 64 65
f 35 65 66
f 35 66 67
f 35 67 36
f 36 67 37
f 37 67 38
f 38 67 68
f 38 68 69
f 38 69 39
f 39 69 40
f 40 69 70
f 40 70 71
f 40 71 72
f 40 72 41
f 41 72 43
f 43 72 73
f 43 73 74
f 43 74 47
f 44 48 75
f 44 75 45
f 45 75 76
f 45 76 46
f 46 76 50
f 47 75 48
f 47 74 77
f 47 77 78
f 47 78 79
f 47 79 75
f 49 81 80
f 50 76 82
f 50 82 78
f 50 78 83
f 50 83 84
f 50 84 85
f 50 85 86
f 50 86 87
f 50 87 145
f 50 145 238
f 50 238 309
f 50 309 370
f 50 370 371
f 50 371 320
f 50 320 321
f 50 321 316
f 50 316 315
f 50 315 314
f 50 314 313
f 50 313 312
f 50 312 258
f 50 258 257
f 50 257 256
f 50 256 255
f 50 255 254
f 50 254 233
f 50 233 138
f 50 138 137
f 50 137 136
f 50 136 88
f 50 88 55
f 50 55 54
f 50 54 53
f 50 53 52
f 50 52 51
f 55 88 56
f 56 88 81
f 57 89 90
f 57 90 58
f 58 90 59
f 59 91 92
f 59 92 93
f 59 93 94
f 59 94 95
f 59 95 96
f 59 96 97
f 59 97 98
f 59 98 99
f 59 99 100
f 59 100 101
f 59 101 102
f 59 102 103
f 59 103 104
f 59 104 105
f 59 105 106
f 59 106 107
f 59 107 108
f 59 108 109
f 59 109 110
f 59 110 111
f 59 111 112
f 59 112 113
f 59 113 114
f 59 114 115
f 59 115 116
f 59 116 117
f 59 117 118
f 59 118 119
f 59 119 71
f 59 71 70
f 59 70 68
f 59 68 66
f 59 66 65
f 59 65 64
f 59 64 63
f 59 63 62
f 59 62 61
f 59 61 60
f 59 90 89
f 59 89 120
f 59 120 147
f 59 147 181
f 59 181 261
f 59 261 327
f 59 327 373
f 59 373 404
f 59 404 379
f 59 379 406
f 59 406 402
f 59 402 400
f 59 400 399
f 59 399 365
f 59 365 364
f 59 364 363
f 59 363 362
f 59 362 360
f 59 360 359
f 59 359 358
f 59 358 303
f 59 303 302
f 59 302 301
f 59 301 300
f 59 300 299
f 59 299 298
f 59 298 297
f 59 297 296
f 59 296 295
f 59 295 293
f 59 293 292
f 59 292 357
f 59 357 354
f 59 354 398
f 59 398 397
f 59 397 394
f 59 394 350
f 59 350 393
f 59 393 415
f 59 415 420
f 59 420 419
f 59 419 418
f 59 418 417
f 59 417 416
f 59 416 411
f 59 411 410
f 59 410 409
f 59 409 408
f 59 408 407
f 59 407 380
f 59 380 332
f 59 332 331
f 59 331 330
f 59 330 324
f 59 324 252
f 59 252 168
f 59 168 121
f 59 121 122
f 59 122 123
f 59 123 124
f 59 124 125
f 59 125 126
f 59 126 127
f 59 127 128
f 59 128 91
f 66 68 67
f 68 70 69
f 71 119 72
f 72 119 118
f 72 118 117
f 72 117 129
f 72 129 73
f 73 130 74
f 73 129 117
f 73 117 116
f 73 116 115
f 73 115 114
f 73 114 113
f 73 113 130
f 74 130 77
f 75 79 76
f 76 79 82
f 77 130 113
f 77 113 131
f 77 131 132
f 77 132 78
f 78 132 83
f 78 82 79
f 80 81 133
f 81 134 135
f 81 135 133
f 81 88 136
f 81 136 137
f 81 137 138
f 81 138 134
f 83 132 84
f 84 132 85
f 85 132 86
f 86 132 139
f 86 139 140
f 86 140 141
f 86 141 142
f 86 142 143
f 86 143 144
f 86 144 145
f 86 145 87
f 89 146 181
f 89 181 147
f 89 147 120
f 91 128 148
f 91 148 149
f 91 149 92
f 92 149 93
f 93 149 150
f 93 150 151
f 93 151 94
f 94 151 95
f 95 151 152
f 95 152 96
f 96 152 97
f 97 152 153
f 97 153 154
f 97 154 155
f 97 155 98
f 98 155 99
f 99 155 156
f 99 156 100
f 100 156 101
f 101 156 102
f 102 156 157
f 102 157 103
f 103 157 158
f 103 158 104
f 104 158 159
f 104 159 105
f 105 159 106
f 106 159 107
f 107 159 160
f 107 160 161
f 107 161 108
f 108 161 109
f 109 161 141
f 109 141 140
f 109 140 162
f 109 162 163
f 109 163 164
f 109 164 110
f 110 164 165
f 110 165 111
f 111 165 166
f 111 166 112
f 112 166 131
f 112 131 167
f 112 167 113
f 113 167 131
f 121 168 169
f 121 169 122
f 122 170 123
f 122 169 171
f 122 171 170
f 123 172 173
f 123 173 124
f 123 170 174
f 123 174 172
f 124 173 125
f 125 173 126
f 126 173 175
f 126 175 148
f 126 148 127
f 127 148 128
f 131 166 165
f 131 165 132
f 132 165 139
f 133 135 176
f 133 176 177
f 133 177 178
f 133 178 179
f 133 179 180
f 133 180 181
f 133 181 146
f 134 182 183
f 134 183 135
f 134 138 182
f 135 183 184
f 135 184 185
f 135 185 176
f 138 186 187
f 138 187 188
f 138 188 189
f 138 189 190
f 138 190 191
f 138 191 192
f 138 192 193
f 138 193 194
f 138 194 195
f 138 195 196
f 138 196 197
f 138 197 198
f 138 198 199
f 138 199 200
f 138 200 201
f 138 201 202
f 138 202 203
f 138 203 204
f 138 204 205
f 138 205 206
f 138 206 207
f 138 207 208
f 138 208 209
f 138 209 210
f 138 210 211
f 138 211 212
f 138 212 213
f 138 213 214
f 138 214 215
f 138 215 216
f 138 216 217
f 138 217 218
f 138 218 219
f 138 219 220
f 138 220 221
f 138 221 222
f 138 222 223
f 138 223 224
f 138 224 225
f 138 225 226
f 138 226 227
f 138 227 228
f 138 228 229
f 138 229 230
f 138 230 231
f 138 231 232
f 138 232 182
f 138 233 186
f 139 165 164
f 139 164 162
f 139 162 140
f 141 161 234
f 141 234 235
f 141 235 142
f 142 235 143
f 143 235 236
f 143 236 144
f 144 236 237
f 144 237 238
f 144 238 145
f 148 175 239
f 148 239 240
f 148 240 149
f 149 240 241
f 149 241 150
f 150 241 242
f 150 242 151
f 151 242 152
f 152 242 153
f 153 242 243
f 153 243 244
f 153 244 245
f 153 245 154
f 154 245 155
f 155 245 246
f 155 246 156
f 156 246 247
f 156 247 248
f 156 248 249
f 156 249 250
f 156 250 251
f 156 251 158
f 156 158 157
f 158 251 234
f 158 234 159
f 159 234 160
f 160 234 161
f 162 164 163
f 168 252 253
f 168 253 169
f 169 253 187
f 169 187 186
f 169 186 171
f 170 171 174
f 171 186 233
f 171 233 254
f 171 254 255
f 171 255 256
f 171 256 172
f 171 172 174
f 172 256 173
f 173 256 257
f 173 257 258
f 173 258 259
f 173 259 239
f 173 239 175
f 176 185 184
f 176 184 177
f 177 184 178
f 178 184 260
f 178 260 179
f 179 260 180
f 180 261 181
f 180 260 261
f 182 232 262
f 182 262 183
f 183 262 184
f 184 263 260
f 184 262 263
f 187 253 264
f 187 264 265
f 187 265 266
f 187 266 267
f 187 267 190
f 187 190 189
f 187 189 188
f 190 267 268
f 190 268 191
f 191 268 269
f 191 269 270
f 191 270 192
f 192 270 193
f 193 270 271
f 193 271 194
f 194 271 272
f 194 272 273
f 194 273 195
f 195 273 274
f 195 274 196
f 196 274 275
f 196 275 197
f 197 275 198
f 198 275 276
f 198 276 199
f 199 276 277
f 199 277 200
f 200 278 201
f 200 277 278
f 201 278 202
f 202 279 203
f 202 278 279
f 203 279 204
f 204 279 280
f 204 280 281
f 204 281 282
f 204 282 205
f 205 282 206
f 206 282 283
f 206 283 284
f 206 284 285
f 206 285 207
f 207 286 208
f 207 285 287
f 207 287 286
f 208 286 209
f 209 288 210
f 209 286 289
f 209 289 288
f 210 288 211
f 211 288 290
f 211 290 212
f 212 290 291
f 212 291 213
f 213 291 292
f 213 292 214
f 214 292 215
f 215 292 293
f 215 293 216
f 216 293 217
f 217 293 294
f 217 294 218
f 218 294 219
f 219 294 295
f 219 295 296
f 219 296 297
f 219 297 220
f 220 297 298
f 220 298 221
f 221 298 299
f 221 299 222
f 222 299 300
f 222 300 223
f 223 300 301
f 223 301 302
f 223 302 224
f 224 302 303
f 224 303 304
f 224 304 225
f 225 304 226
f 226 304 305
f 226 305 227
f 227 305 306
f 227 306 228
f 228 306 229
f 229 306 230
f 230 306 307
f 230 307 231
f 231 307 232
f 232 307 262
f 234 251 308
f 234 308 236
f 234 236 235
f 236 308 237
f 237 309 238
f 237 308 251
f 237 251 310
f 237 310 311
f 237 311 309
f 239 312 313
f 239 313 240
f 239 259 312
f 240 313 241
f 241 313 314
f 241 314 315
f 241 315 316
f 241 316 317
f 241 317 242
f 242 317 316
f 242 316 318
f 242 318 243
f 243 318 319
f 243 319 244
f 244 319 245
f 245 319 247
f 245 247 246
f 247 319 248
f 248 320 249
f 248 319 321
f 248 321 320
f 249 322 323
f 249 323 310
f 249 310 251
f 249 251 250
f 249 320 322
f 252 324 264
f 252 264 253
f 258 312 259
f 260 263 325
f 260 325 326
f 260 326 327
f 260 327 261
f 262 307 328
f 262 328 263
f 263 328 329
f 263 329 325
f 264 324 330
f 264 330 331
f 264 331 332
f 264 332 265
f 265 332 333
f 265 333 334
f 265 334 266
f 266 334 269
f 266 269 267
f 267 269 268
f 269 334 271
f 269 271 270
f 271 334 335
f 271 335 273
f 271 273 272
f 273 335 274
f 274 336 337
f 274 337 338
f 274 338 276
f 274 276 275
f 274 335 336
f 276 338 339
f 276 339 278
f 276 278 277
f 278 339 279
f 279 340 280
f 279 339 341
f 279 341 342
f 279 342 340
f 280 340 281
f 281 340 343
f 281 343 282
f 282 343 344
f 282 344 283
f 283 344 345
f 283 345 346
f 283 346 284
f 284 346 285
f 285 346 347
f 285 347 287
f 286 287 348
f 286 348 349
f 286 349 289
f 287 347 350
f 287 350 351
f 287 351 348
f 288 289 290
f 289 349 352
f 289 352 353
f 289 353 290
f 290 353 354
f 290 354 355
f 290 355 291
f 291 355 356
f 291 356 292
f 292 356 357
f 293 295 294
f 303 358 304
f 304 358 359
f 304 359 360
f 304 360 361
f 304 361 305
f 305 361 360
f 305 360 362
f 305 362 363
f 305 363 364
f 305 364 365
f 305 365 366
f 305 366 367
f 305 367 306
f 306 368 307
f 306 367 369
f 306 369 368
f 307 368 328
f 309 311 370
f 310 323 311
f 311 323 370
f 316 321 318
f 318 321 319
f 320 371 322
f 322 371 323
f 323 371 370
f 325 329 372
f 325 372 373
f 325 373 374
f 325 374 327
f 325 327 326
f 327 374 373
f 328 368 375
f 328 375 376
f 328 376 377
f 328 377 329
f 329 377 378
f 329 378 379
f 329 379 372
f 332 380 333
f 333 380 381
f 333 381 382
f 333 382 334
f 334 382 335
f 335 382 336
f 336 382 337
f 337 383 341
f 337 341 338
f 337 382 381
f 337 381 383
f 338 341 339
f 340 384 343
f 340 342 384
f 341 383 385
f 341 385 386
f 341 386 387
f 341 387 384
f 341 384 342
f 343 384 344
f 344 384 387
f 344 387 388
f 344 388 345
f 345 389 346
f 345 388 390
f 345 390 391
f 345 391 389
f 346 392 347
f 346 389 392
f 347 392 393
f 347 393 350
f 348 351 352
f 348 352 349
f 350 394 395
f 350 395 351
f 351 395 352
f 352 395 396
f 352 396 397
f 352 397 398
f 352 398 353
f 353 398 354
f 354 357 355
f 355 357 356
f 365 399 366
f 366 399 400
f 366 400 367
f 367 401 369
f 367 400 402
f 367 402 401
f 368 369 375
f 369 401 402
f 369 402 403
f 369 403 376
f 369 376 375
f 372 404 373
f 372 379 404
f 376 403 377
f 377 403 405
f 377 405 378
f 378 405 379
f 379 405 406
f 380 407 381
f 381 407 383
f 383 407 408
f 383 408 385
f 385 408 409
f 385 409 410
f 385 410 411
f 385 411 412
f 385 412 386
f 386 412 390
f 386 390 387
f 387 390 388
f 389 391 413
f 389 413 414
f 389 414 415
f 389 415 393
f 389 393 392
f 390 412 391
f 391 412 413
f 394 397 396
f 394 396 395
f 402 406 405
f 402 405 403
f 411 416 412
f 412 416 417
f 412 417 418
f 412 418 413
f 413 418 414
f 414 419 420
f 414 420 415
f 414 418 419

