# https://github.com/mikedh/trimesh
v 0.00629752 0.03575481 0.02638392
v 0.00663179 0.03572656 0.02638392
v 0.00629752 0.03573210 0.02628706
v 0.00629752 0.03341464 0.02638392
v 0.00663179 0.03570329 0.02628706
v 0.00754121 0.03560800 0.02638392
v 0.00629752 0.03551603 0.02547777
v 0.00629752 0.03113929 0.02290017
v 0.01278859 0.03176644 0.02638392
v 0.00732450 0.03546174 0.02571036
v 0.00663179 0.03550495 0.02555519
v 0.00755582 0.03556146 0.02620692
v 0.00818688 0.03550938 0.02638392
v 0.00629752 0.03540412 0.02506954
v 0.01278859 0.03009497 0.02290017
v 0.00629752 0.03468556 0.02290017
v 0.01278859 0.03436977 0.02638392
v 0.00663179 0.03523570 0.02459276
v 0.00663179 0.03538695 0.02513127
v 0.00788946 0.03541686 0.02587133
v 0.00755582 0.03534816 0.02543275
v 0.00747956 0.03512379 0.02459276
v 0.00832669 0.03548722 0.02638392
v 0.00629752 0.03535592 0.02489697
v 0.01278859 0.03295536 0.02290017
v 0.00629752 0.03470052 0.02293734
v 0.00651550 0.03466007 0.02290017
v 0.01278859 0.03396700 0.02520835
v 0.01256299 0.03413653 0.02543957
v 0.01260302 0.03444124 0.02638392
v 0.00663179 0.03496478 0.02374527
v 0.00629752 0.03499969 0.02374527
v 0.00629752 0.03527448 0.02460845
v 0.00832669 0.03538140 0.02599923
v 0.00832669 0.03522240 0.02543957
v 0.00832669 0.03497476 0.02459276
v 0.00747956 0.03484179 0.02374527
v 0.00912553 0.03535204 0.02638392
v 0.01278859 0.03302240 0.02301271
v 0.01255727 0.03307170 0.02290017
v 0.00663179 0.03469221 0.02301407
v 0.00663179 0.03464622 0.02290017
v 0.01278859 0.03381243 0.02476260
v 0.01255854 0.03442572 0.02628979
v 0.01254710 0.03385896 0.02462209
v 0.01225413 0.03377143 0.02406278
v 0.01171585 0.03413653 0.02459276
v 0.01246385 0.03448888 0.02638392
v 0.00924437 0.03533099 0.02638392
v 0.00919607 0.03531714 0.02630616
v 0.00917382 0.03506395 0.02543957
v 0.00917382 0.03480800 0.02459276
v 0.00962885 0.03457919 0.02414804
v 0.00917382 0.03462572 0.02403141
v 0.00747956 0.03462628 0.02319517
v 0.00826568 0.03468722 0.02373265
v 0.01278859 0.03327392 0.02352325
v 0.01254710 0.03350273 0.02376642
v 0.01172157 0.03339470 0.02290017
v 0.01187918 0.03364013 0.02349767
v 0.00747956 0.03450052 0.02290017
v 0.01278859 0.03365619 0.02434380
v 0.01198531 0.03452434 0.02600912
v 0.01278859 0.03363348 0.02429367
v 0.01164468 0.03383625 0.02376642
v 0.01086809 0.03406229 0.02374527
v 0.01019381 0.03450606 0.02436392
v 0.01084203 0.03440910 0.02462482
v 0.01110767 0.03451714 0.02518038
v 0.01170823 0.03442628 0.02545355
v 0.01189507 0.03467226 0.02638392
v 0.00991800 0.03518805 0.02638392
v 0.01002096 0.03513653 0.02628706
v 0.01002096 0.03488168 0.02543957
v 0.00995486 0.03464955 0.02462482
v 0.01054271 0.03460024 0.02492835
v 0.00995486 0.03435758 0.02381757
v 0.00917128 0.03416644 0.02290017
v 0.00917382 0.03445786 0.02360783
v 0.00794285 0.03457974 0.02330226
v 0.00826568 0.03438029 0.02297110
v 0.01278859 0.03338694 0.02376062
v 0.01140890 0.03350273 0.02290017
v 0.01164468 0.03346063 0.02297349
v 0.01086809 0.03368002 0.02290017
v 0.01131421 0.03373099 0.02330635
v 0.00798606 0.03440356 0.02290017
v 0.01142034 0.03461077 0.02574549
v 0.01170823 0.03469941 0.02628979
v 0.01086809 0.03380024 0.02315492
v 0.01015441 0.03390384 0.02290017
v 0.01003494 0.03393930 0.02290017
v 0.01170886 0.03472711 0.02638392
v 0.01002667 0.03516201 0.02638392
v 0.01086809 0.03495758 0.02638392
v 0.01086809 0.03493044 0.02628706
v 0.01084203 0.03468002 0.02545355
v 0.00914777 0.03417143 0.02290017
f 1 2 3
f 1 3 7
f 1 7 14
f 1 14 24
f 1 24 33
f 1 33 32
f 1 32 26
f 1 26 16
f 1 16 8
f 1 8 4
f 1 4 9
f 1 9 17
f 1 17 30
f 1 30 48
f 1 48 71
f 1 71 93
f 1 93 95
f 1 95 94
f 1 94 72
f 1 72 49
f 1 49 38
f 1 38 23
f 1 23 13
f 1 13 6
f 1 6 2
f 2 5 3
f 2 6 5
f 3 5 7
f 4 8 9
f 5 10 11
f 5 11 7
f 5 6 12
f 5 12 10
f 6 13 12
f 7 11 14
f 8 15 9
f 8 16 27
f 8 27 42
f 8 42 61
f 8 61 87
f 8 87 98
f 8 98 78
f 8 78 92
f 8 92 91
f 8 91 85
f 8 85 83
f 8 83 59
f 8 59 40
f 8 40 25
f 8 25 15
f 9 15 25
f 9 25 39
f 9 39 57
f 9 57 82
f 9 82 64
f 9 64 62
f 9 62 43
f 9 43 28
f 9 28 17
f 10 18 19
f 10 19 11
f 10 12 20
f 10 20 21
f 10 21 22
f 10 22 18
f 11 19 14
f 12 13 23
f 12 23 20
f 14 19 24
f 16 26 27
f 17 28 29
f 17 29 30
f 18 22 31
f 18 31 32
f 18 32 33
f 18 33 24
f 18 24 19
f 20 23 34
f 20 34 21
f 21 34 22
f 22 34 35
f 22 35 36
f 22 36 37
f 22 37 31
f 23 38 34
f 25 40 39
f 26 32 31
f 26 31 41
f 26 41 27
f 27 41 42
f 28 43 29
f 29 44 30
f 29 43 45
f 29 45 46
f 29 46 47
f 29 47 44
f 30 44 48
f 31 37 41
f 34 38 35
f 35 38 49
f 35 49 50
f 35 50 36
f 36 50 49
f 36 49 51
f 36 51 52
f 36 52 53
f 36 53 54
f 36 54 37
f 37 55 41
f 37 54 56
f 37 56 55
f 39 40 57
f 40 46 58
f 40 58 57
f 40 59 60
f 40 60 46
f 41 55 42
f 42 55 61
f 43 62 46
f 43 46 45
f 44 47 63
f 44 63 48
f 46 62 64
f 46 64 58
f 46 60 65
f 46 65 66
f 46 66 67
f 46 67 47
f 47 67 68
f 47 68 69
f 47 69 70
f 47 70 63
f 48 63 71
f 49 72 51
f 51 72 53
f 51 53 52
f 53 72 73
f 53 73 74
f 53 74 75
f 53 75 76
f 53 76 67
f 53 67 77
f 53 77 78
f 53 78 79
f 53 79 54
f 54 79 56
f 55 56 80
f 55 80 81
f 55 81 61
f 56 79 80
f 57 58 82
f 58 64 82
f 59 83 84
f 59 84 60
f 60 84 83
f 60 83 85
f 60 85 86
f 60 86 65
f 61 81 87
f 63 70 88
f 63 88 89
f 63 89 71
f 65 86 90
f 65 90 91
f 65 91 66
f 66 91 92
f 66 92 77
f 66 77 67
f 67 76 68
f 68 76 69
f 69 88 70
f 69 76 88
f 71 89 93
f 72 94 73
f 73 94 95
f 73 95 96
f 73 96 74
f 74 96 76
f 74 76 75
f 76 96 97
f 76 97 88
f 77 92 78
f 78 98 79
f 79 98 81
f 79 81 80
f 81 98 87
f 85 91 90
f 85 90 86
f 88 97 96
f 88 96 89
f 89 96 93
f 93 96 95

