# https://github.com/mikedh/trimesh
v -0.00073942 -0.02858411 0.03661626
v -0.00607878 -0.02858411 0.03661626
v -0.00073942 -0.03238705 0.03661626
v -0.00073942 -0.02772355 0.02310933
v -0.00678608 -0.02878362 0.03661626
v -0.00523139 -0.02772355 0.02310578
v -0.00547009 -0.02772355 0.02310045
v -0.00607878 -0.02772355 0.02308623
v -0.00620943 -0.02772355 0.02305425
v -0.00669186 -0.02772355 0.02279658
v -0.00693307 -0.02772355 0.02223505
v -0.00700657 -0.02772355 0.02205202
v -0.00125765 -0.03238705 0.03661626
v -0.00073942 -0.03238705 0.03059936
v -0.00073942 -0.02772355 0.01846427
v -0.00711273 -0.02940725 0.03661626
v -0.00715607 -0.02772355 0.02120440
v -0.00607878 -0.03201589 0.03661626
v -0.00125765 -0.03238705 0.03284370
v -0.00089332 -0.03238705 0.03064023
v -0.00073942 -0.03210035 0.02459312
v -0.00073942 -0.02796551 0.01856023
v -0.00607878 -0.02772355 0.01852825
v -0.00715607 -0.03025412 0.03661626
v -0.00715607 -0.02772355 0.02035677
v -0.00666736 -0.03181730 0.03661626
v -0.00607878 -0.03201589 0.02459312
v -0.00125702 -0.03238705 0.03221820
v -0.00117348 -0.03238705 0.03137057
v -0.00607878 -0.03193873 0.02374550
v -0.00073942 -0.03201954 0.02372950
v -0.00073942 -0.02797327 0.01856379
v -0.00678797 -0.02772355 0.01880723
v -0.00607878 -0.02846131 0.01891385
v -0.00666799 -0.02835265 0.01897072
v -0.00713283 -0.03110145 0.03661626
v -0.00715607 -0.03025412 0.02459312
v -0.00711335 -0.02772355 0.01950737
v -0.00715607 -0.02855946 0.02035677
v -0.00680618 -0.03177027 0.03661626
v -0.00680618 -0.03177027 0.02459312
v -0.00678420 -0.03173192 0.02374550
v -0.00671573 -0.03165203 0.02289787
v -0.00661397 -0.03158172 0.02233634
v -0.00607878 -0.03177895 0.02289787
v -0.00073942 -0.03190541 0.02313777
v -0.00073942 -0.02849828 0.01883922
v -0.00686335 -0.02860511 0.01944518
v -0.00607878 -0.02888497 0.01913776
v -0.00658570 -0.02988980 0.01988054
v -0.00672829 -0.02940725 0.01970817
v -0.00713283 -0.03110145 0.02459312
v -0.00715607 -0.02940725 0.02120440
v -0.00705493 -0.02940725 0.02035677
v -0.00710393 -0.03110145 0.02374550
v -0.00702416 -0.03110145 0.02289787
v -0.00680430 -0.03113478 0.02205202
v -0.00668495 -0.03084670 0.02120440
v -0.00655618 -0.03070609 0.02074060
v -0.00607878 -0.03140961 0.02184234
v -0.00607878 -0.03161048 0.02226526
v -0.00073942 -0.03171047 0.02245718
v -0.00073942 -0.02939401 0.01943984
v -0.00607878 -0.02940725 0.01948249
v -0.00607878 -0.03034314 0.02029813
v -0.00671510 -0.03020481 0.02041719
v -0.00607878 -0.02991994 0.01985388
v -0.00701159 -0.03025412 0.02120440
v -0.00607878 -0.03072024 0.02072106
v -0.00607878 -0.03102840 0.02120440
v -0.00523139 -0.03142239 0.02184234
v -0.00073942 -0.03149407 0.02194363
v -0.00073942 -0.03162601 0.02223861
v -0.00073942 -0.02993089 0.01983967
v -0.00073942 -0.03035410 0.02029280
v -0.00073942 -0.03072526 0.02071750
v -0.00073942 -0.03083483 0.02086677
v -0.00073942 -0.03116902 0.02136966
v -0.00523139 -0.03104118 0.02120440
v -0.00073942 -0.03046778 0.02042074
v -0.00073942 -0.03143472 0.02181568
f 1 2 5
f 1 5 16
f 1 16 24
f 1 24 36
f 1 36 40
f 1 40 26
f 1 26 18
f 1 18 13
f 1 13 3
f 1 3 14
f 1 14 21
f 1 21 31
f 1 31 46
f 1 46 62
f 1 62 73
f 1 73 72
f 1 72 81
f 1 81 78
f 1 78 77
f 1 77 76
f 1 76 80
f 1 80 75
f 1 75 74
f 1 74 63
f 1 63 47
f 1 47 32
f 1 32 22
f 1 22 15
f 1 15 4
f 1 4 2
f 2 4 6
f 2 6 7
f 2 7 8
f 2 8 9
f 2 9 10
f 2 10 11
f 2 11 12
f 2 12 5
f 3 13 19
f 3 19 28
f 3 28 29
f 3 29 20
f 3 20 14
f 4 15 23
f 4 23 33
f 4 33 38
f 4 38 25
f 4 25 17
f 4 17 12
f 4 12 11
f 4 11 10
f 4 10 9
f 4 9 8
f 4 8 7
f 4 7 6
f 5 12 17
f 5 17 16
f 13 18 27
f 13 27 19
f 14 20 21
f 15 22 23
f 16 17 24
f 17 25 39
f 17 39 53
f 17 53 37
f 17 37 24
f 18 26 27
f 19 27 28
f 20 29 27
f 20 27 21
f 21 27 30
f 21 30 31
f 22 32 23
f 23 32 34
f 23 34 35
f 23 35 33
f 24 37 52
f 24 52 36
f 25 38 39
f 26 40 41
f 26 41 27
f 27 41 42
f 27 42 30
f 27 29 28
f 30 42 43
f 30 43 44
f 30 44 45
f 30 45 31
f 31 45 46
f 32 47 34
f 33 35 48
f 33 48 38
f 34 49 35
f 34 47 49
f 35 49 50
f 35 50 51
f 35 51 48
f 36 52 41
f 36 41 40
f 37 53 52
f 38 48 54
f 38 54 39
f 39 54 53
f 41 52 55
f 41 55 42
f 42 55 56
f 42 56 43
f 43 56 57
f 43 57 44
f 44 57 58
f 44 58 59
f 44 59 60
f 44 60 61
f 44 61 45
f 45 61 46
f 46 61 62
f 47 63 64
f 47 64 49
f 48 51 54
f 49 64 50
f 50 65 59
f 50 59 66
f 50 66 51
f 50 64 67
f 50 67 65
f 51 66 54
f 52 53 55
f 53 54 68
f 53 68 55
f 54 66 68
f 55 68 56
f 56 68 57
f 57 68 58
f 58 68 66
f 58 66 59
f 59 69 70
f 59 70 60
f 59 65 69
f 60 70 79
f 60 79 71
f 60 71 61
f 61 71 72
f 61 72 73
f 61 73 62
f 63 74 67
f 63 67 64
f 65 67 74
f 65 74 75
f 65 75 69
f 69 76 77
f 69 77 78
f 69 78 79
f 69 79 70
f 69 75 80
f 69 80 76
f 71 78 81
f 71 81 72
f 71 79 78

