# https://github.com/mikedh/trimesh
v 0.01412016 0.02284793 0.08729930
v 0.01410965 0.02313249 0.08729930
v 0.01406086 0.02284793 0.08814744
v 0.01403834 0.02284793 0.08675906
v 0.01389420 0.02801154 0.08648194
v 0.01390321 0.02801154 0.08665269
v 0.01404359 0.02482725 0.08729930
v 0.01405035 0.02313249 0.08814744
v 0.01400005 0.02284793 0.08899419
v 0.01399179 0.02284793 0.08648334
v 0.01074422 0.02801154 0.08059390
v 0.01391447 0.02801154 0.08729930
v 0.01394074 0.02736862 0.08729930
v 0.01397528 0.02652149 0.08729930
v 0.01395576 0.02397961 0.08899419
v 0.01401657 0.02397961 0.08814744
v 0.01398954 0.02313249 0.08899419
v 0.01391447 0.02313249 0.08984093
v 0.01392423 0.02284793 0.08984093
v 0.01002129 0.02284793 0.08224261
v 0.00978031 0.02346608 0.07999348
v 0.00992445 0.02397961 0.07984372
v 0.00997850 0.02482725 0.07974435
v 0.00991244 0.02801154 0.07907815
v 0.01384465 0.02801154 0.08821602
v 0.01383189 0.02773608 0.08853932
v 0.01387018 0.02741967 0.08821322
v 0.01384390 0.02717099 0.08869748
v 0.01382513 0.02652149 0.08929790
v 0.01383414 0.02608984 0.08941406
v 0.01387468 0.02398417 0.08989132
v 0.01382814 0.02426924 0.09020762
v 0.01384090 0.02370415 0.09029160
v 0.01385216 0.02313249 0.09033359
v 0.01385742 0.02284793 0.09035318
v 0.00917449 0.02284793 0.08193470
v 0.00917449 0.02318404 0.08052112
v 0.00917449 0.02342059 0.07994029
v 0.00917449 0.02397961 0.07960019
v 0.00917449 0.02482725 0.07941125
v 0.00914296 0.02801154 0.07872546
v 0.01382513 0.02801154 0.08845955
v 0.01378234 0.02801154 0.08899139
v 0.01381087 0.02741967 0.08898579
v 0.01376132 0.02801154 0.08919853
v 0.01372604 0.02736862 0.08984093
v 0.01353836 0.02801154 0.09068908
v 0.01369376 0.02801154 0.08984093
v 0.01365622 0.02801154 0.09004667
v 0.01356989 0.02736862 0.09068908
v 0.01360968 0.02652149 0.09068908
v 0.01364947 0.02567386 0.09068908
v 0.01343251 0.02567386 0.09153583
v 0.01347005 0.02482725 0.09153583
v 0.01350383 0.02397961 0.09153583
v 0.01353536 0.02313249 0.09153583
v 0.01368175 0.02284793 0.09101938
v 0.00847483 0.02284793 0.08225520
v 0.00864074 0.02346608 0.07999348
v 0.00853939 0.02397961 0.07985352
v 0.00870380 0.02801154 0.07908795
v 0.01348431 0.02801154 0.09089342
v 0.01339198 0.02652149 0.09153583
v 0.01319679 0.02284793 0.09242876
v 0.01344227 0.02284793 0.09181994
v 0.01354512 0.02284793 0.09153583
v 0.00855065 0.02336954 0.08052112
v 0.00648095 0.02284793 0.08814744
v 0.00829241 0.02397961 0.08052112
v 0.00849210 0.02482725 0.07976395
v 0.00845681 0.02801154 0.07961559
v 0.01330865 0.02801154 0.09153583
v 0.01334768 0.02736862 0.09153583
v 0.01310746 0.02736862 0.09210826
v 0.01313223 0.02652149 0.09215164
v 0.01312322 0.02284793 0.09257432
v 0.00646743 0.02284793 0.08899419
v 0.00645092 0.02397961 0.08899419
v 0.00647869 0.02313249 0.08814744
v 0.00823836 0.02482725 0.08052112
v 0.00823460 0.02801154 0.08052112
v 0.00823460 0.02736862 0.08052112
v 0.01325084 0.02801154 0.09167439
v 0.01308343 0.02801154 0.09207327
v 0.01301962 0.02284793 0.09277026
v 0.00647044 0.02284793 0.09153583
v 0.00645092 0.02397961 0.09153583
v 0.00645467 0.02482725 0.09153583
v 0.00649821 0.02801154 0.09153583
v 0.00649521 0.02397961 0.08814744
v 0.01295206 0.02801154 0.09214465
v 0.01291377 0.02337510 0.09277726
v 0.01294756 0.02284793 0.09282624
v 0.00657103 0.02284793 0.09238398
v 0.00676622 0.02801154 0.09222022
v 0.01256319 0.02801154 0.09233359
v 0.01222087 0.02456694 0.09282484
v 0.01235825 0.02397961 0.09285563
v 0.01260448 0.02310823 0.09288782
v 0.01259097 0.02284793 0.09291721
v 0.00687657 0.02284793 0.09291442
v 0.00747939 0.02801154 0.09247915
v 0.00689384 0.02313249 0.09290042
v 0.00696290 0.02397961 0.09285563
v 0.00701996 0.02456543 0.09282484
v 0.01171564 0.02801154 0.09247915
v 0.01171564 0.02736862 0.09254773
v 0.01171564 0.02313249 0.09299279
v 0.01171564 0.02284793 0.09302218
v 0.01232372 0.02284793 0.09294941
v 0.00747939 0.02284793 0.09302218
v 0.01002129 0.02736862 0.09254773
v 0.00747939 0.02313249 0.09299279
v 0.01058432 0.02284793 0.09302358
f 1 2 8
f 1 8 3
f 1 3 9
f 1 9 19
f 1 19 35
f 1 35 57
f 1 57 66
f 1 66 65
f 1 65 64
f 1 64 76
f 1 76 85
f 1 85 93
f 1 93 100
f 1 100 110
f 1 110 109
f 1 109 114
f 1 114 111
f 1 111 101
f 1 101 94
f 1 94 86
f 1 86 77
f 1 77 68
f 1 68 58
f 1 58 36
f 1 36 20
f 1 20 10
f 1 10 4
f 1 4 5
f 1 5 6
f 1 6 2
f 2 6 7
f 2 7 8
f 3 8 17
f 3 17 9
f 4 10 5
f 5 10 11
f 5 11 24
f 5 24 41
f 5 41 61
f 5 61 71
f 5 71 81
f 5 81 89
f 5 89 95
f 5 95 102
f 5 102 106
f 5 106 96
f 5 96 91
f 5 91 84
f 5 84 83
f 5 83 72
f 5 72 62
f 5 62 47
f 5 47 49
f 5 49 48
f 5 48 45
f 5 45 43
f 5 43 42
f 5 42 25
f 5 25 12
f 5 12 6
f 6 12 13
f 6 13 14
f 6 14 7
f 7 14 15
f 7 15 16
f 7 16 8
f 8 16 15
f 8 15 17
f 9 18 19
f 9 17 18
f 10 20 21
f 10 21 22
f 10 22 23
f 10 23 24
f 10 24 11
f 12 25 26
f 12 26 27
f 12 27 15
f 12 15 13
f 13 15 14
f 15 27 28
f 15 28 29
f 15 29 30
f 15 30 18
f 15 18 17
f 18 30 31
f 18 31 32
f 18 32 33
f 18 33 19
f 19 33 34
f 19 34 35
f 20 36 37
f 20 37 21
f 21 37 38
f 21 38 39
f 21 39 22
f 22 39 40
f 22 40 41
f 22 41 24
f 22 24 23
f 25 42 26
f 26 28 27
f 26 42 43
f 26 43 44
f 26 44 28
f 28 44 29
f 29 45 46
f 29 46 30
f 29 44 43
f 29 43 45
f 30 46 32
f 30 32 31
f 32 47 33
f 32 46 48
f 32 48 49
f 32 49 47
f 33 47 50
f 33 50 51
f 33 51 52
f 33 52 53
f 33 53 54
f 33 54 55
f 33 55 34
f 34 55 56
f 34 56 35
f 35 56 57
f 36 58 37
f 37 59 38
f 37 58 59
f 38 59 39
f 39 59 60
f 39 60 40
f 40 60 41
f 41 60 61
f 45 48 46
f 47 62 63
f 47 63 50
f 50 63 53
f 50 53 51
f 51 53 52
f 53 63 64
f 53 64 54
f 54 64 65
f 54 65 55
f 55 65 56
f 56 65 66
f 56 66 57
f 58 67 59
f 58 68 67
f 59 67 68
f 59 68 69
f 59 69 60
f 60 70 61
f 60 69 70
f 61 70 71
f 62 72 73
f 62 73 63
f 63 73 74
f 63 74 75
f 63 75 64
f 64 75 74
f 64 74 76
f 68 77 78
f 68 78 79
f 68 79 80
f 68 80 69
f 69 80 70
f 70 80 71
f 71 80 82
f 71 82 81
f 72 83 73
f 73 83 74
f 74 83 84
f 74 84 85
f 74 85 76
f 77 86 87
f 77 87 78
f 78 87 88
f 78 88 89
f 78 89 90
f 78 90 79
f 79 90 81
f 79 81 82
f 79 82 80
f 81 90 89
f 84 91 92
f 84 92 93
f 84 93 85
f 86 94 87
f 87 94 88
f 88 94 89
f 89 94 95
f 91 96 92
f 92 97 98
f 92 98 99
f 92 99 93
f 92 96 97
f 93 99 100
f 94 101 95
f 95 101 103
f 95 103 104
f 95 104 105
f 95 105 102
f 96 106 97
f 97 107 108
f 97 108 109
f 97 109 98
f 97 106 107
f 98 109 110
f 98 110 100
f 98 100 99
f 101 111 103
f 102 112 107
f 102 107 106
f 102 105 113
f 102 113 112
f 103 111 104
f 104 111 105
f 105 111 113
f 107 114 108
f 107 112 114
f 108 114 109
f 111 114 113
f 112 113 114

