# https://github.com/mikedh/trimesh
v 0.00327607 0.02742554 0.04395412
v 0.00329022 0.02742554 0.04233429
v 0.00007864 0.02742554 0.04395412
v 0.00327607 0.00253790 0.04395412
v 0.00329148 0.02742554 0.04153981
v 0.00007864 0.02742554 0.03952679
v 0.00007864 0.00253790 0.04395412
v 0.00327607 0.00253790 0.04069321
v 0.00329053 0.02742554 0.04069473
v 0.00073530 0.02742554 0.03878443
v 0.00007864 0.02738899 0.03946657
v 0.00007864 0.00253790 0.03915283
v 0.00317103 0.00253790 0.03984610
v 0.00327607 0.01296561 0.03878443
v 0.00327607 0.02651921 0.03878443
v 0.00326883 0.02673361 0.03878443
v 0.00324745 0.02736706 0.03878443
v 0.00322606 0.02742554 0.03878443
v 0.00072587 0.02740848 0.03878443
v 0.00007864 0.02709419 0.03928642
v 0.00011135 0.00253790 0.03915182
v 0.00007864 0.01296561 0.03914726
v 0.00058843 0.01296561 0.03878443
v 0.00065416 0.01211044 0.03878443
v 0.00087430 0.01144044 0.03878443
v 0.00294208 0.00253790 0.03929452
v 0.00322889 0.01232972 0.03878443
v 0.00068058 0.02732565 0.03878443
v 0.00007864 0.02684568 0.03923177
v 0.00070008 0.00253790 0.03915131
v 0.00148284 0.01123091 0.03878443
v 0.00154731 0.01120898 0.03878443
v 0.00239455 0.01118705 0.03878443
v 0.00007864 0.02567378 0.03914726
v 0.00058843 0.02567378 0.03878443
v 0.00239455 0.00253790 0.03915890
v 0.00302322 0.01150866 0.03878443
v 0.00059787 0.02651921 0.03878443
v 0.00007864 0.02651921 0.03918066
v 0.00154731 0.00253790 0.03915131
v 0.00296786 0.01143069 0.03878443
f 1 2 5
f 1 5 9
f 1 9 18
f 1 18 10
f 1 10 6
f 1 6 3
f 1 3 7
f 1 7 4
f 1 4 2
f 2 4 5
f 3 6 11
f 3 11 20
f 3 20 29
f 3 29 39
f 3 39 34
f 3 34 22
f 3 22 12
f 3 12 7
f 4 7 12
f 4 12 21
f 4 21 30
f 4 30 40
f 4 40 36
f 4 36 26
f 4 26 13
f 4 13 8
f 4 8 5
f 5 8 9
f 6 10 11
f 8 13 14
f 8 14 9
f 9 15 16
f 9 16 17
f 9 17 18
f 9 14 15
f 10 18 17
f 10 17 16
f 10 16 15
f 10 15 14
f 10 14 27
f 10 27 37
f 10 37 41
f 10 41 33
f 10 33 32
f 10 32 31
f 10 31 25
f 10 25 24
f 10 24 23
f 10 23 35
f 10 35 38
f 10 38 28
f 10 28 19
f 10 19 20
f 10 20 11
f 12 22 23
f 12 23 24
f 12 24 25
f 12 25 21
f 13 26 14
f 14 26 27
f 19 28 20
f 20 28 29
f 21 25 31
f 21 31 32
f 21 32 33
f 21 33 30
f 22 34 35
f 22 35 23
f 26 36 27
f 27 36 37
f 28 38 39
f 28 39 29
f 30 33 40
f 33 41 36
f 33 36 40
f 34 39 38
f 34 38 35
f 36 41 37

