# https://github.com/mikedh/trimesh
v 0.00823393 -0.02485886 0.05876375
v 0.01453774 -0.02485886 0.05876375
v 0.00823393 -0.02485886 0.05983024
v 0.00823393 -0.01076498 0.05876375
v 0.01452255 -0.02485886 0.05876959
v 0.01510536 -0.01763210 0.05876375
v 0.01151669 -0.02485886 0.05983024
v 0.00823393 -0.01076498 0.05983024
v 0.00824636 -0.00991802 0.05876375
v 0.01425808 -0.02485886 0.05886982
v 0.01510881 -0.01753847 0.05876375
v 0.01510536 -0.01754272 0.05876583
v 0.01151669 -0.02479715 0.05983024
v 0.01510536 -0.01669577 0.05877993
v 0.01510536 -0.01584669 0.05879079
v 0.01510536 -0.01499974 0.05880102
v 0.01510536 -0.01415279 0.05881052
v 0.01510536 -0.01330796 0.05881919
v 0.01510536 -0.01245888 0.05882722
v 0.01510536 -0.01161193 0.05883432
v 0.01510536 -0.01076498 0.05884069
v 0.01510536 -0.00991802 0.05884633
v 0.01510536 -0.00907107 0.05885113
v 0.01510536 -0.00822199 0.05885520
v 0.01510536 -0.00737504 0.05885823
v 0.01510536 -0.00652809 0.05886032
v 0.01510536 -0.00568113 0.05886147
v 0.01510536 -0.00483418 0.05886210
v 0.01510536 -0.00398510 0.05886262
v 0.01510536 -0.00313815 0.05886283
v 0.00824636 -0.00991802 0.05983024
v 0.00832991 -0.00970522 0.05876375
v 0.01513091 -0.01669577 0.05876375
v 0.01510536 -0.00311900 0.05886283
v 0.01144557 -0.01138849 0.05983024
v 0.01515024 -0.01578923 0.05876375
v 0.01516819 -0.01491887 0.05876375
v 0.01518546 -0.01405277 0.05876375
v 0.01520203 -0.01318879 0.05876375
v 0.01521722 -0.01232482 0.05876375
v 0.01523172 -0.01146084 0.05876375
v 0.01524484 -0.01060112 0.05876375
v 0.01525658 -0.00974140 0.05876375
v 0.01526556 -0.00888381 0.05876375
v 0.01527384 -0.00802834 0.05876375
v 0.01527937 -0.00717501 0.05876375
v 0.01528351 -0.00632380 0.05876375
v 0.01528627 -0.00547472 0.05876375
v 0.01528835 -0.00398510 0.05876375
v 0.00839689 -0.00953711 0.05983024
v 0.00850462 -0.00926472 0.05983024
v 0.00850462 -0.00926472 0.05876375
v 0.01528766 -0.00311900 0.05876375
v 0.01425808 -0.00311900 0.05887013
v 0.00917443 -0.00903490 0.05983024
v 0.00960462 -0.00911150 0.05983024
v 0.01004932 -0.00923493 0.05983024
v 0.01071154 -0.00961372 0.05983024
v 0.01120457 -0.00997974 0.05983024
v 0.01134820 -0.01026064 0.05983024
v 0.01142969 -0.01076498 0.05983024
v 0.00878359 -0.00916896 0.05983024
v 0.01171625 -0.00311900 0.05887013
v 0.01146835 -0.00311900 0.05876615
v 0.01146283 -0.00311900 0.05876375
f 1 2 5
f 1 5 10
f 1 10 7
f 1 7 3
f 1 3 8
f 1 8 4
f 1 4 9
f 1 9 32
f 1 32 52
f 1 52 65
f 1 65 53
f 1 53 49
f 1 49 48
f 1 48 47
f 1 47 46
f 1 46 45
f 1 45 44
f 1 44 43
f 1 43 42
f 1 42 41
f 1 41 40
f 1 40 39
f 1 39 38
f 1 38 37
f 1 37 36
f 1 36 33
f 1 33 11
f 1 11 6
f 1 6 2
f 2 6 5
f 3 7 13
f 3 13 35
f 3 35 61
f 3 61 60
f 3 60 59
f 3 59 58
f 3 58 57
f 3 57 56
f 3 56 55
f 3 55 62
f 3 62 51
f 3 51 50
f 3 50 31
f 3 31 8
f 4 8 31
f 4 31 9
f 5 6 10
f 6 11 12
f 6 12 7
f 6 7 10
f 7 12 14
f 7 14 15
f 7 15 16
f 7 16 17
f 7 17 18
f 7 18 19
f 7 19 20
f 7 20 21
f 7 21 22
f 7 22 23
f 7 23 24
f 7 24 25
f 7 25 26
f 7 26 27
f 7 27 28
f 7 28 29
f 7 29 30
f 7 30 34
f 7 34 13
f 9 31 32
f 11 33 14
f 11 14 12
f 13 34 35
f 14 33 36
f 14 36 15
f 15 36 37
f 15 37 38
f 15 38 16
f 16 38 39
f 16 39 17
f 17 39 40
f 17 40 18
f 18 40 41
f 18 41 19
f 19 41 42
f 19 42 20
f 20 42 43
f 20 43 21
f 21 43 22
f 22 43 44
f 22 44 23
f 23 44 45
f 23 45 24
f 24 45 25
f 25 45 46
f 25 46 47
f 25 47 26
f 26 47 48
f 26 48 27
f 27 48 49
f 27 49 28
f 28 49 29
f 29 49 30
f 30 49 34
f 31 50 32
f 32 50 51
f 32 51 52
f 34 53 65
f 34 65 64
f 34 64 63
f 34 63 54
f 34 54 55
f 34 55 56
f 34 56 57
f 34 57 58
f 34 58 59
f 34 59 60
f 34 60 61
f 34 61 35
f 34 49 53
f 51 62 63
f 51 63 64
f 51 64 65
f 51 65 52
f 54 63 55
f 55 63 62

