# https://github.com/mikedh/trimesh
v 0.01959263 0.02415116 0.04354339
v 0.01737040 0.02415116 0.04354339
v 0.01960315 0.02408291 0.04354339
v 0.01977299 0.02359437 0.04285662
v 0.01964095 0.02415116 0.04319221
v 0.01784403 0.02415116 0.03661803
v 0.01869847 0.00364333 0.03661803
v 0.01835019 0.00364333 0.04354339
v 0.01962468 0.02394282 0.04354339
v 0.01979595 0.02374525 0.04238747
v 0.01973280 0.02415116 0.04238747
v 0.01973280 0.02327826 0.04342203
v 0.01977347 0.02279332 0.04354339
v 0.01979308 0.02304836 0.04317729
v 0.01986580 0.02228322 0.04323492
v 0.01995909 0.02228322 0.04238747
v 0.01987059 0.02313098 0.04238747
v 0.02004042 0.02415116 0.03661803
v 0.01962181 -0.00906585 0.03661803
v 0.01931132 -0.01076137 0.04354339
v 0.01972132 0.02322797 0.04354339
v 0.01982370 0.02401825 0.04153731
v 0.01979547 0.02415116 0.04165459
v 0.01993900 0.02313098 0.04154002
v 0.01982609 0.02228322 0.04354339
v 0.01991125 0.02144983 0.04354339
v 0.02003899 0.02058771 0.04323492
v 0.02013276 0.02058771 0.04238747
v 0.02011505 0.02143546 0.04154002
v 0.02002750 0.02228322 0.04154002
v 0.02003564 0.02415116 0.03713193
v 0.02006530 0.02397874 0.03661803
v 0.01968927 -0.00961187 0.03661803
v 0.01957875 -0.01145825 0.04354339
v 0.01989068 0.02397874 0.04069257
v 0.01995239 0.02397874 0.03984580
v 0.01981796 0.02415116 0.04135019
v 0.01981031 0.02415116 0.04145527
v 0.02014567 0.02228322 0.03984580
v 0.02005525 0.02313098 0.03984580
v 0.02001267 0.02397874 0.03899835
v 0.02023514 0.02143546 0.03984580
v 0.02029398 0.02143546 0.03899835
v 0.01999784 0.02058771 0.04354339
v 0.02173305 0.00279557 0.04354339
v 0.02176845 0.00279557 0.04323492
v 0.02020165 0.02058771 0.04154002
v 0.02185983 0.00279557 0.04238747
v 0.02017533 0.02143546 0.04069257
v 0.02026240 0.02058771 0.04069257
v 0.02032269 0.02058771 0.03984580
v 0.02003372 0.02415116 0.03730413
v 0.02005860 0.02397874 0.03730413
v 0.02015715 0.02313098 0.03730413
v 0.02008396 0.02381709 0.03661803
v 0.01975337 -0.00969449 0.03661803
v 0.01974524 -0.01164864 0.04354339
v 0.01998732 0.02415116 0.03899835
v 0.01992704 0.02415116 0.03984173
v 0.02011314 0.02313098 0.03899835
v 0.02004855 0.02397874 0.03815158
v 0.01999497 0.02415116 0.03882682
v 0.02032890 0.02143546 0.03815158
v 0.02038105 0.02058771 0.03899835
v 0.02176079 0.00248664 0.04354339
v 0.02192441 0.00279557 0.04154002
v 0.02180385 0.00194781 0.04354339
v 0.02183638 0.00194781 0.04323492
v 0.02191915 0.00194781 0.04238747
v 0.02002559 0.02415116 0.03797938
v 0.02014759 0.02313098 0.03815158
v 0.02016290 0.02313098 0.03661803
v 0.02024853 0.02228322 0.03730413
v 0.02027293 0.02212157 0.03661803
v 0.02006004 -0.01003574 0.03661803
v 0.01995287 -0.01185699 0.04354339
v 0.02002320 0.02415116 0.03815158
v 0.02033943 0.02143546 0.03730413
v 0.02041502 0.02058771 0.03815158
v 0.02196221 0.00279557 0.04069257
v 0.02203540 0.00279557 0.03899835
v 0.02197895 0.00194781 0.04154002
v 0.02182203 0.00163889 0.04354339
v 0.02186796 0.00079113 0.04354339
v 0.02192680 0.00025230 0.04323492
v 0.02200574 0.00025230 0.04238747
v 0.02034661 0.02143546 0.03661803
v 0.02048343 -0.01045244 0.03661803
v 0.02038009 -0.01225931 0.04354339
v 0.02042459 0.02058771 0.03730413
v 0.02036287 0.02127382 0.03661803
v 0.02206841 0.00279557 0.03815158
v 0.02209138 0.00194781 0.03899835
v 0.02212487 0.00194781 0.03815158
v 0.02206363 0.00025230 0.04154002
v 0.02214831 0.00025230 0.03984580
v 0.02218754 0.00025230 0.03899835
v 0.02189666 0.00025230 0.04354339
v 0.02190910 -0.00005304 0.04354339
v 0.02195694 -0.00059187 0.04323492
v 0.02203158 -0.00059187 0.04238747
v 0.02209425 -0.00059187 0.04154002
v 0.02099342 -0.01087632 0.03661803
v 0.02069680 -0.01240300 0.04354339
v 0.02133596 -0.01114933 0.03661803
v 0.02141729 -0.01121398 0.03661803
v 0.02043081 0.02058771 0.03661803
v 0.02213444 0.00194781 0.03730413
v 0.02207463 0.00279557 0.03730413
v 0.02216984 0.00110006 0.03815158
v 0.02222725 0.00025230 0.03730413
v 0.02218180 0.00110006 0.03730413
v 0.02214305 -0.00059187 0.04069257
v 0.02218802 -0.00059187 0.03984580
v 0.02222294 -0.00059187 0.03899835
v 0.02221337 0.00025230 0.03815158
v 0.02192824 -0.00059187 0.04354339
v 0.02193207 -0.00090080 0.04354339
v 0.02196699 -0.00143963 0.04323492
v 0.02197034 -0.00228738 0.04323492
v 0.02210047 -0.00143963 0.04154002
v 0.02215740 -0.00143963 0.04069257
v 0.02103696 -0.01254669 0.04354339
v 0.02151346 -0.01121398 0.03661803
v 0.02206028 0.00279557 0.03661803
v 0.02212439 0.00194781 0.03661803
v 0.02222581 0.00025230 0.03661803
v 0.02217654 0.00110006 0.03661803
v 0.02224447 -0.00059187 0.03815158
v 0.02225643 -0.00059187 0.03730413
v 0.02219806 -0.00143963 0.03984580
v 0.02222868 -0.00143963 0.03899835
v 0.02193828 -0.00143963 0.04354339
v 0.02194068 -0.00228738 0.04354339
v 0.02193876 -0.00259631 0.04354339
v 0.02193541 -0.00313514 0.04354339
v 0.02196460 -0.00313514 0.04323492
v 0.02203253 -0.00313514 0.04238747
v 0.02209664 -0.00228738 0.04154002
v 0.02214927 -0.00228738 0.04069257
v 0.02154551 -0.01211203 0.04168239
v 0.02159478 -0.01219106 0.04238747
v 0.02156608 -0.01234912 0.04354339
v 0.02175697 -0.01085476 0.03661803
v 0.02225452 -0.00059187 0.03661803
v 0.02224734 -0.00143963 0.03815158
v 0.02225787 -0.00143963 0.03730413
v 0.02225500 -0.00075711 0.03661803
v 0.02218706 -0.00228738 0.03984580
v 0.02221624 -0.00228738 0.03899835
v 0.02192250 -0.00398290 0.04354339
v 0.02195168 -0.00398290 0.04323492
v 0.02201818 -0.00398290 0.04238747
v 0.02208851 -0.00313514 0.04154002
v 0.02207416 -0.00398290 0.04154002
v 0.02205932 -0.00483066 0.04154002
v 0.02204402 -0.00567841 0.04154002
v 0.02208755 -0.00567841 0.04069257
v 0.02214113 -0.00483066 0.03984580
v 0.02181438 -0.01076137 0.03661803
v 0.02186987 -0.01076137 0.03730413
v 0.02193111 -0.01076137 0.03815158
v 0.02196699 -0.01076137 0.03899835
v 0.02165315 -0.01191805 0.04354339
v 0.02176701 -0.01160913 0.04238747
v 0.02222151 -0.00313514 0.03815158
v 0.02225165 -0.00160127 0.03661803
v 0.02225404 -0.00143963 0.03661803
v 0.02220524 -0.00483066 0.03730413
v 0.02220333 -0.00483066 0.03661803
v 0.02215931 -0.00567841 0.03899835
v 0.02217366 -0.00483066 0.03899835
v 0.02219519 -0.00483066 0.03815158
v 0.02191676 -0.00429183 0.04354339
v 0.02193446 -0.00483066 0.04323492
v 0.02200239 -0.00483066 0.04238747
v 0.02198421 -0.00567841 0.04238747
v 0.02202296 -0.00652617 0.04154002
v 0.02206794 -0.00652617 0.04069257
v 0.02210621 -0.00652617 0.03984580
v 0.02212534 -0.00567841 0.03984580
v 0.02203732 -0.01007526 0.03661803
v 0.02196938 -0.01076137 0.03984580
v 0.02207703 -0.00991361 0.03661803
v 0.02171678 -0.01160913 0.04323492
v 0.02168808 -0.01160913 0.04354339
v 0.02193924 -0.01076137 0.04069257
v 0.02207655 -0.00991361 0.03730413
v 0.02206602 -0.00906585 0.03899835
v 0.02206028 -0.00991361 0.03815158
v 0.02190575 -0.00483066 0.04354339
v 0.02189810 -0.00513958 0.04354339
v 0.02188375 -0.00567841 0.04354339
v 0.02191149 -0.00567841 0.04323492
v 0.02195981 -0.00652617 0.04238747
v 0.02204354 -0.00737393 0.04069257
v 0.02197034 -0.00822169 0.04154002
v 0.02199235 -0.00906585 0.04069257
v 0.02201818 -0.00822169 0.04069257
v 0.02208229 -0.00737393 0.03984580
v 0.02203492 -0.00991361 0.03899835
v 0.02200478 -0.00991361 0.03984580
v 0.02179094 -0.00852702 0.04354339
v 0.02188710 -0.01076137 0.04154002
v 0.02181964 -0.01076137 0.04238747
v 0.02187609 -0.00906585 0.04238747
v 0.02185743 -0.00652617 0.04354339
v 0.02203205 -0.00906585 0.03984580
v 0.02196603 -0.00991361 0.04069257
v 0.02194307 -0.00906585 0.04154002
v 0.02187466 -0.00598734 0.04354339
f 1 2 8
f 1 8 20
f 1 20 34
f 1 34 57
f 1 57 76
f 1 76 89
f 1 89 104
f 1 104 123
f 1 123 143
f 1 143 164
f 1 164 186
f 1 186 203
f 1 203 207
f 1 207 211
f 1 211 193
f 1 193 192
f 1 192 191
f 1 191 174
f 1 174 151
f 1 151 136
f 1 136 135
f 1 135 134
f 1 134 133
f 1 133 118
f 1 118 117
f 1 117 99
f 1 99 98
f 1 98 84
f 1 84 83
f 1 83 67
f 1 67 65
f 1 65 45
f 1 45 44
f 1 44 26
f 1 26 25
f 1 25 13
f 1 13 21
f 1 21 9
f 1 9 3
f 1 3 4
f 1 4 5
f 1 5 11
f 1 11 23
f 1 23 38
f 1 38 37
f 1 37 59
f 1 59 58
f 1 58 62
f 1 62 77
f 1 77 70
f 1 70 52
f 1 52 31
f 1 31 18
f 1 18 6
f 1 6 2
f 2 6 7
f 2 7 8
f 3 9 4
f 4 10 11
f 4 11 5
f 4 9 12
f 4 12 13
f 4 13 14
f 4 14 15
f 4 15 16
f 4 16 17
f 4 17 10
f 6 18 32
f 6 32 55
f 6 55 72
f 6 72 74
f 6 74 87
f 6 87 91
f 6 91 107
f 6 107 125
f 6 125 126
f 6 126 128
f 6 128 127
f 6 127 145
f 6 145 148
f 6 148 168
f 6 168 167
f 6 167 170
f 6 170 184
f 6 184 182
f 6 182 160
f 6 160 144
f 6 144 124
f 6 124 106
f 6 106 105
f 6 105 103
f 6 103 88
f 6 88 75
f 6 75 56
f 6 56 33
f 6 33 19
f 6 19 7
f 7 19 20
f 7 20 8
f 9 21 12
f 10 22 23
f 10 23 11
f 10 17 24
f 10 24 22
f 12 21 13
f 13 25 15
f 13 15 14
f 15 25 26
f 15 26 27
f 15 27 28
f 15 28 16
f 16 29 30
f 16 30 24
f 16 24 17
f 16 28 29
f 18 31 32
f 19 33 20
f 20 33 34
f 22 24 35
f 22 35 36
f 22 36 37
f 22 37 38
f 22 38 23
f 24 39 40
f 24 40 41
f 24 41 36
f 24 36 35
f 24 30 42
f 24 42 43
f 24 43 39
f 26 44 27
f 27 44 45
f 27 45 46
f 27 46 28
f 28 47 29
f 28 46 48
f 28 48 47
f 29 49 30
f 29 47 50
f 29 50 51
f 29 51 49
f 30 49 42
f 31 52 53
f 31 53 32
f 32 53 54
f 32 54 55
f 33 56 34
f 34 56 57
f 36 41 58
f 36 58 59
f 36 59 37
f 39 43 60
f 39 60 40
f 40 60 41
f 41 61 62
f 41 62 58
f 41 60 61
f 42 49 51
f 42 51 43
f 43 63 60
f 43 51 64
f 43 64 63
f 45 65 46
f 46 65 48
f 47 48 66
f 47 66 50
f 48 65 67
f 48 67 68
f 48 68 69
f 48 69 66
f 50 66 51
f 51 66 64
f 52 70 61
f 52 61 53
f 53 61 71
f 53 71 54
f 54 72 55
f 54 71 73
f 54 73 74
f 54 74 72
f 56 75 57
f 57 75 76
f 60 71 61
f 60 63 71
f 61 70 77
f 61 77 62
f 63 78 71
f 63 64 79
f 63 79 78
f 64 66 80
f 64 80 81
f 64 81 79
f 66 69 82
f 66 82 80
f 67 83 68
f 68 83 84
f 68 84 69
f 69 84 85
f 69 85 86
f 69 86 82
f 71 78 73
f 73 78 87
f 73 87 74
f 75 88 76
f 76 88 89
f 78 79 90
f 78 90 91
f 78 91 87
f 79 81 92
f 79 92 90
f 80 82 93
f 80 93 81
f 81 93 94
f 81 94 92
f 82 86 95
f 82 95 96
f 82 96 97
f 82 97 93
f 84 98 85
f 85 98 99
f 85 99 86
f 86 99 100
f 86 100 101
f 86 101 102
f 86 102 95
f 88 103 89
f 89 103 105
f 89 105 106
f 89 106 104
f 90 107 91
f 90 92 107
f 92 94 108
f 92 108 109
f 92 109 107
f 93 97 94
f 94 97 110
f 94 110 111
f 94 111 112
f 94 112 108
f 95 102 113
f 95 113 114
f 95 114 96
f 96 114 97
f 97 114 115
f 97 115 116
f 97 116 110
f 99 117 100
f 100 117 118
f 100 118 119
f 100 119 101
f 101 119 120
f 101 120 121
f 101 121 102
f 102 121 122
f 102 122 113
f 104 106 123
f 106 124 123
f 107 109 125
f 108 126 109
f 108 112 127
f 108 127 128
f 108 128 126
f 109 126 125
f 110 116 111
f 111 127 112
f 111 116 129
f 111 129 130
f 111 130 127
f 113 122 114
f 114 122 131
f 114 131 115
f 115 129 116
f 115 131 132
f 115 132 129
f 118 133 119
f 119 133 120
f 120 134 135
f 120 135 136
f 120 136 137
f 120 137 138
f 120 138 121
f 120 133 134
f 121 138 139
f 121 139 122
f 122 139 154
f 122 154 140
f 122 140 131
f 123 124 141
f 123 141 142
f 123 142 143
f 124 144 142
f 124 142 141
f 127 130 145
f 129 132 146
f 129 146 130
f 130 146 147
f 130 147 148
f 130 148 145
f 131 140 149
f 131 149 132
f 132 149 150
f 132 150 146
f 136 151 152
f 136 152 137
f 137 152 138
f 138 152 153
f 138 153 155
f 138 155 154
f 138 154 139
f 140 154 155
f 140 155 156
f 140 156 157
f 140 157 158
f 140 158 159
f 140 159 149
f 142 144 160
f 142 160 161
f 142 161 162
f 142 162 163
f 142 163 143
f 143 163 165
f 143 165 164
f 146 150 166
f 146 166 147
f 147 167 168
f 147 168 148
f 147 166 173
f 147 173 169
f 147 169 170
f 147 170 167
f 149 159 171
f 149 171 172
f 149 172 150
f 150 172 173
f 150 173 166
f 151 174 152
f 152 174 175
f 152 175 176
f 152 176 153
f 153 176 157
f 153 157 156
f 153 156 155
f 157 177 178
f 157 178 179
f 157 179 158
f 157 176 177
f 158 179 180
f 158 180 181
f 158 181 159
f 159 181 171
f 160 182 161
f 161 182 162
f 162 182 163
f 163 183 165
f 163 182 184
f 163 184 183
f 164 165 185
f 164 185 186
f 165 183 187
f 165 187 185
f 169 173 188
f 169 188 184
f 169 184 170
f 171 181 180
f 171 180 189
f 171 189 190
f 171 190 188
f 171 188 173
f 171 173 172
f 174 191 175
f 175 191 192
f 175 192 193
f 175 193 194
f 175 194 177
f 175 177 176
f 177 194 195
f 177 195 178
f 178 196 179
f 178 195 197
f 178 197 209
f 178 209 198
f 178 198 199
f 178 199 196
f 179 196 200
f 179 200 180
f 180 200 189
f 183 184 188
f 183 188 190
f 183 190 201
f 183 201 202
f 183 202 187
f 185 203 186
f 185 187 204
f 185 204 205
f 185 205 206
f 185 206 207
f 185 207 203
f 187 202 208
f 187 208 209
f 187 209 197
f 187 197 210
f 187 210 204
f 189 208 202
f 189 202 201
f 189 201 190
f 189 200 208
f 193 211 194
f 194 211 195
f 195 211 207
f 195 207 206
f 195 206 210
f 195 210 197
f 196 199 208
f 196 208 200
f 198 209 208
f 198 208 199
f 204 210 206
f 204 206 205

