# https://github.com/mikedh/trimesh
v 0.01462244 -0.00240985 0.08730089
v 0.01455175 -0.00240985 0.08814802
v 0.01455095 -0.00313765 0.08814802
v 0.01462003 -0.00313765 0.08730089
v 0.01429954 -0.00240985 0.08657384
v 0.01448027 -0.00240985 0.08899516
v 0.01454533 -0.00398491 0.08814802
v 0.01446982 -0.00240985 0.08911415
v 0.01461280 -0.00398491 0.08730089
v 0.01421359 -0.00803292 0.08645594
v 0.01421841 -0.00737394 0.08645594
v 0.01422403 -0.00652668 0.08645485
v 0.01423367 -0.00483271 0.08645485
v 0.01423849 -0.00398491 0.08645485
v 0.01424652 -0.00240985 0.08645485
v 0.01445778 -0.00567942 0.08899516
v 0.01453730 -0.00483271 0.08814802
v 0.01439432 -0.00398491 0.08984229
v 0.01440476 -0.00240985 0.08984229
v 0.01439994 -0.00313765 0.08984229
v 0.01460316 -0.00483271 0.08730089
v 0.01458067 -0.00652668 0.08730089
v 0.01456782 -0.00737394 0.08730089
v 0.01455657 -0.00803292 0.08730089
v 0.00917406 -0.00803292 0.08348988
v 0.00985280 -0.00240985 0.08410667
v 0.01444974 -0.00652668 0.08899516
v 0.01438227 -0.00567942 0.08984229
v 0.01436942 -0.00737394 0.08984229
v 0.01452766 -0.00567942 0.08814802
v 0.01438388 -0.00240985 0.08996128
v 0.01421680 -0.00803292 0.09068942
v 0.01443930 -0.00737394 0.08899516
v 0.01442966 -0.00803292 0.08899516
v 0.00852585 -0.00803292 0.08399095
v 0.00660610 -0.00240985 0.08474748
v 0.00731296 -0.00240985 0.08440361
v 0.00839171 -0.00240985 0.08399641
v 0.00923029 -0.00240985 0.08384686
v 0.00936122 -0.00240985 0.08386323
v 0.01436299 -0.00803292 0.08984229
v 0.01437825 -0.00803292 0.08965343
v 0.01424974 -0.00803292 0.09050056
v 0.01425456 -0.00240985 0.09068942
v 0.01404089 -0.00803292 0.09134770
v 0.00847042 -0.00803292 0.08410667
v 0.00660369 -0.00240985 0.08475840
v 0.00658843 -0.00652668 0.08984229
v 0.01401760 -0.00240985 0.09153656
v 0.01374129 -0.00737394 0.09246338
v 0.01399029 -0.00803292 0.09153656
v 0.00831219 -0.00803292 0.08475840
v 0.00641654 -0.00240985 0.08561099
v 0.00648160 -0.00803292 0.09323082
v 0.00644787 -0.00567942 0.08984229
v 0.01399672 -0.00240985 0.09161079
v 0.01371638 -0.00240985 0.09259766
v 0.01353164 -0.00313765 0.09323082
v 0.01352682 -0.00483271 0.09323082
v 0.01351718 -0.00737394 0.09323082
v 0.01356216 -0.00803292 0.09306052
v 0.01373807 -0.00803292 0.09245683
v 0.01385454 -0.00803292 0.09203326
v 0.00644305 -0.00240985 0.09323082
v 0.00645108 -0.00652668 0.09323082
v 0.00644465 -0.00398491 0.09323082
v 0.00674988 -0.00803292 0.09403866
v 0.01353244 -0.00240985 0.09323082
v 0.01319669 -0.00240985 0.09400154
v 0.01351236 -0.00803292 0.09323082
v 0.00670812 -0.00240985 0.09410852
v 0.00691214 -0.00803292 0.09412599
v 0.00747923 -0.00240985 0.09462379
v 0.00672498 -0.00240985 0.09415437
v 0.01318464 -0.00803292 0.09392731
v 0.01325773 -0.00803292 0.09377229
v 0.01263683 -0.00240985 0.09443930
v 0.00747923 -0.00803292 0.09443056
v 0.00825757 -0.00240985 0.09464126
v 0.01270189 -0.00803292 0.09423188
v 0.01206974 -0.00240985 0.09455502
v 0.01256293 -0.00803292 0.09431921
v 0.00832664 -0.00803292 0.09443821
v 0.00917406 -0.00240985 0.09464235
v 0.01171551 -0.00240985 0.09461506
v 0.01190428 -0.00803292 0.09441201
v 0.01171551 -0.00803292 0.09443821
v 0.01002148 -0.00240985 0.09464126
v 0.01079580 -0.00240985 0.09463252
f 1 2 3
f 1 3 4
f 1 4 5
f 1 5 15
f 1 15 26
f 1 26 40
f 1 40 39
f 1 39 38
f 1 38 37
f 1 37 36
f 1 36 47
f 1 47 53
f 1 53 64
f 1 64 71
f 1 71 74
f 1 74 73
f 1 73 79
f 1 79 84
f 1 84 88
f 1 88 89
f 1 89 85
f 1 85 81
f 1 81 77
f 1 77 69
f 1 69 68
f 1 68 57
f 1 57 56
f 1 56 49
f 1 49 44
f 1 44 31
f 1 31 19
f 1 19 8
f 1 8 6
f 1 6 2
f 2 6 3
f 3 7 4
f 3 6 8
f 3 8 7
f 4 9 10
f 4 10 11
f 4 11 12
f 4 12 13
f 4 13 14
f 4 14 15
f 4 15 5
f 4 7 9
f 7 16 17
f 7 17 9
f 7 8 18
f 7 18 28
f 7 28 16
f 8 19 20
f 8 20 18
f 9 21 10
f 9 17 21
f 10 12 11
f 10 21 22
f 10 22 23
f 10 23 24
f 10 24 34
f 10 34 42
f 10 42 41
f 10 41 43
f 10 43 32
f 10 32 45
f 10 45 51
f 10 51 63
f 10 63 62
f 10 62 61
f 10 61 70
f 10 70 76
f 10 76 75
f 10 75 80
f 10 80 82
f 10 82 86
f 10 86 87
f 10 87 83
f 10 83 78
f 10 78 72
f 10 72 67
f 10 67 54
f 10 54 52
f 10 52 46
f 10 46 35
f 10 35 25
f 10 25 12
f 12 25 13
f 13 25 14
f 14 25 15
f 15 25 26
f 16 27 17
f 16 28 29
f 16 29 27
f 17 30 21
f 17 27 30
f 18 20 31
f 18 31 32
f 18 32 28
f 19 31 20
f 21 30 22
f 22 30 33
f 22 33 34
f 22 34 23
f 23 34 24
f 25 35 36
f 25 36 37
f 25 37 38
f 25 38 39
f 25 39 40
f 25 40 26
f 27 33 30
f 27 29 41
f 27 41 42
f 27 42 33
f 28 32 43
f 28 43 29
f 29 43 41
f 31 44 32
f 32 44 45
f 33 42 34
f 35 46 36
f 36 46 48
f 36 48 47
f 44 49 50
f 44 50 51
f 44 51 45
f 46 52 48
f 47 48 53
f 48 54 55
f 48 55 53
f 48 52 54
f 49 56 50
f 50 57 58
f 50 58 59
f 50 59 60
f 50 60 61
f 50 61 62
f 50 62 63
f 50 63 51
f 50 56 57
f 53 55 65
f 53 65 66
f 53 66 64
f 54 67 65
f 54 65 55
f 57 68 58
f 58 68 69
f 58 69 59
f 59 69 60
f 60 70 61
f 60 69 70
f 64 66 71
f 65 67 71
f 65 71 66
f 67 72 73
f 67 73 74
f 67 74 71
f 69 75 76
f 69 76 70
f 69 77 75
f 72 78 73
f 73 78 79
f 75 77 80
f 77 81 82
f 77 82 80
f 78 83 79
f 79 83 84
f 81 85 82
f 82 85 86
f 83 87 84
f 84 87 88
f 85 89 87
f 85 87 86
f 87 89 88

