# https://github.com/mikedh/trimesh
v 0.01475782 -0.02066900 0.05876375
v 0.01484201 -0.02066900 0.05874434
v 0.01462631 -0.02066900 0.05876375
v 0.01518872 -0.02968105 0.05876375
v 0.01510602 -0.02066900 0.05868345
v 0.01462631 -0.02066900 0.05562528
v 0.01462631 -0.03213898 0.05876375
v 0.01517228 -0.03025370 0.05876375
v 0.01824832 -0.02066900 0.05459560
v 0.01813524 -0.02066900 0.05476324
v 0.01566444 -0.02066900 0.05828111
v 0.01528386 -0.02066900 0.05855816
v 0.01728839 -0.02066900 0.05072480
v 0.01462631 -0.02785304 0.05039657
v 0.01462631 -0.03212213 0.05848846
v 0.01563705 -0.03078706 0.05509853
v 0.01640269 -0.02986407 0.05450472
v 0.01640269 -0.02986407 0.05489206
v 0.01482656 -0.03181223 0.05876375
v 0.01515584 -0.03052880 0.05876375
v 0.01883563 -0.02066900 0.05368062
v 0.01858158 -0.02066900 0.05408738
v 0.01847597 -0.02066900 0.05425237
v 0.01771730 -0.02066900 0.05010275
v 0.01462631 -0.02852114 0.05031981
v 0.01847647 -0.02066900 0.04974982
v 0.01462631 -0.03184816 0.05677761
v 0.01478821 -0.03161011 0.05594557
v 0.01558673 -0.03072979 0.05451707
v 0.01635587 -0.02980681 0.05394091
v 0.01661540 -0.02929590 0.05340445
v 0.01661839 -0.02947668 0.05423472
v 0.01708316 -0.02862668 0.05425237
v 0.01636932 -0.02981130 0.05545764
v 0.01500042 -0.03134287 0.05876375
v 0.01722463 -0.02813712 0.05467677
v 0.01506368 -0.03110146 0.05876375
v 0.01899952 -0.02178062 0.05314592
v 0.01878930 -0.02178062 0.05356944
v 0.01905332 -0.02093287 0.05323769
v 0.01882567 -0.02093287 0.05366121
v 0.01890886 -0.02066900 0.05354827
v 0.01462631 -0.02939135 0.05025452
v 0.01936267 -0.02066900 0.05006570
v 0.01849490 -0.02093287 0.04979482
v 0.01639672 -0.02815957 0.05042569
v 0.01509158 -0.02937338 0.05032157
v 0.01462631 -0.03171117 0.05594557
v 0.01472096 -0.03155060 0.05542852
v 0.01515634 -0.03093864 0.05424178
v 0.01462631 -0.03059393 0.05177566
v 0.01462631 -0.03039518 0.05108038
v 0.01462631 -0.03032557 0.05086244
v 0.01494313 -0.03005945 0.05086244
v 0.01558773 -0.02988428 0.05198389
v 0.01569732 -0.02998085 0.05255741
v 0.01584975 -0.03011896 0.05340445
v 0.01627318 -0.02972034 0.05340445
v 0.01650581 -0.02913871 0.05255741
v 0.01696609 -0.02848857 0.05259623
v 0.01703882 -0.02864240 0.05340445
v 0.01726149 -0.02821909 0.05340445
v 0.01725303 -0.02820224 0.05425237
v 0.01727943 -0.02771155 0.05479148
v 0.01739549 -0.02771155 0.05425237
v 0.01931385 -0.02178062 0.05170948
v 0.01953453 -0.02093287 0.05170948
v 0.01900649 -0.02247680 0.05255741
v 0.01918383 -0.02178062 0.05255741
v 0.01895020 -0.02232970 0.05305240
v 0.01737009 -0.02686380 0.05496618
v 0.01932829 -0.02093287 0.05255741
v 0.01935818 -0.02066900 0.05255741
v 0.01916889 -0.02066900 0.05302593
v 0.01906577 -0.02066900 0.05325622
v 0.01462631 -0.03002689 0.05033657
v 0.01959580 -0.02066900 0.05031010
v 0.01912655 -0.02178062 0.05021305
v 0.01723210 -0.02647192 0.05043451
v 0.01728042 -0.02739378 0.05111920
v 0.01652075 -0.02831228 0.05086244
v 0.01617554 -0.02873560 0.05086244
v 0.01560616 -0.02906909 0.05038951
v 0.01479967 -0.02993930 0.05035775
v 0.01462631 -0.03158541 0.05536235
v 0.01462631 -0.03149558 0.05502530
v 0.01536655 -0.02964399 0.05086244
v 0.01547714 -0.02977873 0.05141920
v 0.01612124 -0.02956315 0.05255741
v 0.01641963 -0.02903203 0.05201477
v 0.01665276 -0.02860086 0.05172360
v 0.01711305 -0.02794511 0.05170948
v 0.01718627 -0.02805739 0.05234035
v 0.01723609 -0.02815957 0.05290505
v 0.01759176 -0.02686380 0.05170948
v 0.01971535 -0.02066900 0.05063215
v 0.01743236 -0.02771155 0.05340445
v 0.01963465 -0.02066900 0.05140067
v 0.01957986 -0.02066900 0.05170066
v 0.01943838 -0.02066900 0.05228300
v 0.01900699 -0.02243188 0.05033128
v 0.01806550 -0.02474384 0.05044157
v 0.01733273 -0.02752067 0.05170948
v 0.01631402 -0.02891189 0.05145008
v 0.01575162 -0.02922067 0.05086244
v 0.01595088 -0.02940482 0.05171743
f 1 2 5
f 1 5 12
f 1 12 11
f 1 11 10
f 1 10 9
f 1 9 23
f 1 23 22
f 1 22 21
f 1 21 42
f 1 42 75
f 1 75 74
f 1 74 73
f 1 73 100
f 1 100 99
f 1 99 98
f 1 98 96
f 1 96 77
f 1 77 44
f 1 44 26
f 1 26 24
f 1 24 13
f 1 13 6
f 1 6 3
f 1 3 7
f 1 7 19
f 1 19 35
f 1 35 37
f 1 37 20
f 1 20 8
f 1 8 4
f 1 4 2
f 2 4 5
f 3 6 14
f 3 14 25
f 3 25 43
f 3 43 76
f 3 76 53
f 3 53 52
f 3 52 51
f 3 51 86
f 3 86 85
f 3 85 48
f 3 48 27
f 3 27 15
f 3 15 7
f 4 8 9
f 4 9 10
f 4 10 11
f 4 11 12
f 4 12 5
f 6 13 14
f 7 15 16
f 7 16 17
f 7 17 18
f 7 18 19
f 8 20 21
f 8 21 22
f 8 22 23
f 8 23 9
f 13 24 14
f 14 24 26
f 14 26 25
f 15 27 28
f 15 28 16
f 16 28 29
f 16 29 30
f 16 30 17
f 17 30 31
f 17 31 32
f 17 32 18
f 18 32 33
f 18 33 34
f 18 34 19
f 19 34 36
f 19 36 35
f 20 37 38
f 20 38 39
f 20 39 40
f 20 40 41
f 20 41 21
f 21 41 42
f 25 26 43
f 26 44 45
f 26 45 46
f 26 46 47
f 26 47 43
f 27 48 28
f 28 48 49
f 28 49 29
f 29 49 50
f 29 50 51
f 29 51 52
f 29 52 53
f 29 53 54
f 29 54 55
f 29 55 56
f 29 56 57
f 29 57 58
f 29 58 30
f 30 58 59
f 30 59 31
f 31 59 60
f 31 60 61
f 31 61 32
f 32 61 33
f 33 61 62
f 33 62 63
f 33 63 36
f 33 36 34
f 35 36 37
f 36 64 37
f 36 63 65
f 36 65 66
f 36 66 67
f 36 67 68
f 36 68 69
f 36 69 70
f 36 70 64
f 37 64 71
f 37 71 70
f 37 70 38
f 38 70 72
f 38 72 73
f 38 73 74
f 38 74 40
f 38 40 39
f 40 74 75
f 40 75 42
f 40 42 41
f 43 47 76
f 44 77 78
f 44 78 46
f 44 46 45
f 46 79 80
f 46 80 81
f 46 81 82
f 46 82 83
f 46 83 47
f 46 78 79
f 47 83 84
f 47 84 76
f 48 85 49
f 49 85 86
f 49 86 51
f 49 51 50
f 53 76 84
f 53 84 54
f 54 84 87
f 54 87 88
f 54 88 55
f 55 88 89
f 55 89 58
f 55 58 56
f 56 58 57
f 58 89 90
f 58 90 59
f 59 90 91
f 59 91 92
f 59 92 60
f 60 92 93
f 60 93 61
f 61 93 94
f 61 94 62
f 62 94 95
f 62 95 96
f 62 96 97
f 62 97 63
f 63 97 96
f 63 96 66
f 63 66 65
f 64 70 71
f 66 96 67
f 67 72 69
f 67 69 68
f 67 96 98
f 67 98 99
f 67 99 100
f 67 100 72
f 69 72 70
f 72 100 73
f 77 96 101
f 77 101 78
f 78 101 79
f 79 101 102
f 79 102 80
f 80 95 103
f 80 103 93
f 80 93 92
f 80 92 91
f 80 91 81
f 80 102 101
f 80 101 95
f 81 91 104
f 81 104 82
f 82 104 105
f 82 105 83
f 83 105 84
f 84 105 87
f 87 105 104
f 87 104 88
f 88 104 106
f 88 106 89
f 89 106 90
f 90 104 91
f 90 106 104
f 93 103 94
f 94 103 95
f 95 101 96

