# https://github.com/mikedh/trimesh
v 0.01431650 0.03075826 0.07554431
v 0.01428416 0.03068947 0.07554431
v 0.01429956 0.03149976 0.07554431
v 0.01415789 0.03075826 0.07967427
v 0.01391460 0.02801154 0.08729919
v 0.01390382 0.02801154 0.08665259
v 0.01389381 0.02801154 0.08648181
v 0.01404472 0.03020790 0.07554431
v 0.01429571 0.03160569 0.07554431
v 0.01412402 0.03075826 0.08052148
v 0.01390613 0.02821676 0.08729919
v 0.01389689 0.02801154 0.08753461
v 0.01408783 0.03075826 0.08136870
v 0.01393231 0.03075826 0.08475755
v 0.01391537 0.02906418 0.08645197
v 0.01387841 0.02996868 0.08651166
v 0.01074404 0.02801154 0.08059443
v 0.00917415 0.02821715 0.07554431
v 0.00995409 0.02842861 0.07554431
v 0.01421872 0.03200478 0.07554431
v 0.01401161 0.03160569 0.08136870
v 0.01386609 0.02906927 0.08733898
v 0.01384453 0.02801154 0.08821603
v 0.01385762 0.03131878 0.08475755
v 0.01383991 0.03121755 0.08526322
v 0.01381990 0.03106276 0.08582858
v 0.01387379 0.03077155 0.08556994
v 0.01385300 0.03049754 0.08626960
v 0.01396772 0.03160569 0.08221591
v 0.01388765 0.03147357 0.08391199
v 0.01383068 0.03028881 0.08683496
v 0.01385069 0.02972438 0.08708200
v 0.00991251 0.02801154 0.07907907
v 0.00914336 0.02801154 0.07872592
v 0.00870373 0.02801154 0.07908735
v 0.00845658 0.02801154 0.07961624
v 0.00859594 0.02840203 0.07554431
v 0.01416020 0.03200478 0.07673306
v 0.00784372 0.03200478 0.07554431
v 0.01395232 0.03200478 0.08091939
v 0.01393000 0.03200478 0.08136870
v 0.01388688 0.03200478 0.08221591
v 0.01382760 0.02935500 0.08764736
v 0.01380373 0.02906927 0.08811324
v 0.01382067 0.02821676 0.08840007
v 0.01382529 0.02801154 0.08845975
v 0.01378525 0.03174250 0.08475755
v 0.01376138 0.03154237 0.08556994
v 0.01347420 0.03160569 0.08899361
v 0.01359893 0.03075826 0.08899361
v 0.01366899 0.03075826 0.08814640
v 0.01380142 0.03077155 0.08651166
v 0.01385377 0.03200478 0.08283930
v 0.01382375 0.03200478 0.08334663
v 0.01390536 0.03166627 0.08306975
v 0.01381066 0.03189729 0.08391199
v 0.01368208 0.02991122 0.08899361
v 0.01375137 0.02991122 0.08814640
v 0.01381297 0.02996868 0.08733898
v 0.00851355 0.02842861 0.07554431
v 0.00823407 0.02801154 0.08052148
v 0.00667959 0.03200478 0.08306312
v 0.00825486 0.02906418 0.07554431
v 0.01373212 0.02906418 0.08899361
v 0.01378217 0.02801154 0.08899195
v 0.01372905 0.03200478 0.08475755
v 0.01366360 0.03200478 0.08558652
v 0.01338951 0.03200478 0.08899361
v 0.01333869 0.03200478 0.08944292
v 0.01337796 0.03160569 0.08984083
v 0.01350346 0.03075826 0.08984083
v 0.01358892 0.02991122 0.08984083
v 0.01379911 0.03200478 0.08372962
v 0.01378679 0.03200478 0.08391199
v 0.01364127 0.02906418 0.08984083
v 0.00649788 0.02801154 0.09153691
v 0.00684743 0.02849897 0.08729919
v 0.00657796 0.02906418 0.08729919
v 0.00645939 0.03200478 0.08729919
v 0.00650019 0.02991122 0.08729919
v 0.00645092 0.02991122 0.08814640
v 0.00647941 0.03075826 0.08729919
v 0.01368362 0.02821676 0.08984083
v 0.01369363 0.02801154 0.08984083
v 0.01376138 0.02801154 0.08919920
v 0.01329173 0.03200478 0.08984083
v 0.01314621 0.03200478 0.09066151
v 0.01322551 0.03160569 0.09068970
v 0.01335024 0.03075826 0.09068970
v 0.01343416 0.02991122 0.09068970
v 0.01348498 0.02906418 0.09068970
v 0.01352809 0.02821676 0.09068970
v 0.00676582 0.02801154 0.09221999
v 0.00649634 0.02906418 0.09153691
v 0.00645092 0.02991122 0.09068970
v 0.00645554 0.03200478 0.08769875
v 0.00645323 0.03200478 0.08814640
v 0.01353810 0.02801154 0.09068970
v 0.01302610 0.03200478 0.09120200
v 0.01306152 0.03160569 0.09128324
v 0.01312157 0.03075826 0.09143080
v 0.01313928 0.02993937 0.09160820
v 0.01323706 0.02906418 0.09153691
v 0.01329635 0.02821676 0.09153691
v 0.01330866 0.02801154 0.09153691
v 0.01348421 0.02801154 0.09089362
v 0.00747954 0.02801154 0.09247862
v 0.00678969 0.02906418 0.09216527
v 0.00676890 0.02821676 0.09220838
v 0.00651482 0.02991122 0.09153691
v 0.00645400 0.03200478 0.09068970
v 0.00645323 0.03200478 0.08854597
v 0.01294372 0.03200478 0.09130811
v 0.01296143 0.03024034 0.09193813
v 0.01300762 0.02967591 0.09198124
v 0.01303842 0.02906418 0.09201606
v 0.01307615 0.02821676 0.09206248
v 0.01308385 0.02801154 0.09207409
v 0.01151088 0.02801154 0.09248028
v 0.00747954 0.02906418 0.09236920
v 0.00696138 0.03200478 0.09200943
v 0.00692442 0.03160569 0.09203098
v 0.00686437 0.03075826 0.09207574
v 0.00682048 0.02991122 0.09212051
v 0.00655871 0.03075826 0.09153691
v 0.00661876 0.03160569 0.09153691
v 0.00665572 0.03200478 0.09153691
v 0.01265808 0.03200478 0.09163970
v 0.01273045 0.03160569 0.09170768
v 0.01287366 0.03075826 0.09185524
v 0.01224385 0.03200478 0.09200445
v 0.01230699 0.03160569 0.09202932
v 0.01244943 0.03075826 0.09207574
v 0.01263267 0.02993937 0.09210061
v 0.01256337 0.02821676 0.09231117
v 0.01256337 0.02801154 0.09233272
v 0.01295219 0.02801154 0.09214538
v 0.01171568 0.02801154 0.09247862
v 0.01171568 0.02821676 0.09245873
v 0.00747954 0.03200478 0.09206082
v 0.01202289 0.03200478 0.09203098
v 0.01235780 0.02801154 0.09236920
v 0.01256337 0.02906418 0.09221999
v 0.01171568 0.02906418 0.09236920
v 0.01086799 0.03160569 0.09210227
v 0.00787836 0.03200478 0.09206082
v 0.01169567 0.03200478 0.09205419
v 0.01171568 0.03160569 0.09209895
v 0.01171568 0.03075826 0.09219014
v 0.01086799 0.03200478 0.09205916
f 1 2 8
f 1 8 19
f 1 19 18
f 1 18 37
f 1 37 60
f 1 60 63
f 1 63 39
f 1 39 20
f 1 20 9
f 1 9 3
f 1 3 4
f 1 4 5
f 1 5 6
f 1 6 7
f 1 7 2
f 2 7 8
f 3 9 10
f 3 10 4
f 4 10 5
f 5 11 12
f 5 12 23
f 5 23 46
f 5 46 65
f 5 65 85
f 5 85 84
f 5 84 98
f 5 98 106
f 5 106 105
f 5 105 118
f 5 118 137
f 5 137 136
f 5 136 142
f 5 142 138
f 5 138 119
f 5 119 107
f 5 107 93
f 5 93 76
f 5 76 61
f 5 61 36
f 5 36 35
f 5 35 34
f 5 34 33
f 5 33 17
f 5 17 7
f 5 7 6
f 5 10 13
f 5 13 14
f 5 14 15
f 5 15 16
f 5 16 11
f 7 17 18
f 7 18 19
f 7 19 8
f 9 13 10
f 9 20 21
f 9 21 14
f 9 14 13
f 11 22 23
f 11 23 12
f 11 16 22
f 14 24 25
f 14 25 26
f 14 26 27
f 14 27 28
f 14 28 16
f 14 16 15
f 14 21 29
f 14 29 30
f 14 30 24
f 16 31 32
f 16 32 22
f 16 28 31
f 17 33 18
f 18 33 34
f 18 34 35
f 18 35 36
f 18 36 37
f 20 38 21
f 20 39 62
f 20 62 79
f 20 79 96
f 20 96 97
f 20 97 112
f 20 112 111
f 20 111 127
f 20 127 121
f 20 121 140
f 20 140 146
f 20 146 150
f 20 150 147
f 20 147 141
f 20 141 131
f 20 131 128
f 20 128 113
f 20 113 99
f 20 99 87
f 20 87 86
f 20 86 69
f 20 69 68
f 20 68 67
f 20 67 66
f 20 66 74
f 20 74 73
f 20 73 54
f 20 54 53
f 20 53 42
f 20 42 41
f 20 41 40
f 20 40 38
f 21 38 40
f 21 40 41
f 21 41 42
f 21 42 29
f 22 32 43
f 22 43 44
f 22 44 45
f 22 45 46
f 22 46 23
f 24 47 25
f 24 30 47
f 25 47 48
f 25 48 26
f 26 28 27
f 26 48 49
f 26 49 50
f 26 50 51
f 26 51 52
f 26 52 28
f 28 52 51
f 28 51 31
f 29 42 53
f 29 53 54
f 29 54 55
f 29 55 30
f 30 55 56
f 30 56 47
f 31 51 50
f 31 50 57
f 31 57 58
f 31 58 59
f 31 59 32
f 32 59 58
f 32 58 57
f 32 57 43
f 36 60 37
f 36 61 60
f 39 63 62
f 43 57 64
f 43 64 44
f 44 65 45
f 44 64 65
f 45 65 46
f 47 66 67
f 47 67 49
f 47 49 48
f 47 56 66
f 49 68 69
f 49 69 70
f 49 70 71
f 49 71 50
f 49 67 68
f 50 71 72
f 50 72 57
f 54 73 56
f 54 56 55
f 56 73 74
f 56 74 66
f 57 72 75
f 57 75 64
f 60 61 76
f 60 76 77
f 60 77 78
f 60 78 63
f 62 63 78
f 62 78 80
f 62 80 81
f 62 81 82
f 62 82 79
f 64 75 83
f 64 83 84
f 64 84 85
f 64 85 65
f 69 86 70
f 70 86 87
f 70 87 88
f 70 88 71
f 71 88 89
f 71 89 72
f 72 89 90
f 72 90 75
f 75 90 91
f 75 91 92
f 75 92 83
f 76 93 94
f 76 94 95
f 76 95 81
f 76 81 78
f 76 78 77
f 78 81 80
f 79 82 81
f 79 81 96
f 81 95 112
f 81 112 97
f 81 97 96
f 83 92 98
f 83 98 84
f 87 99 88
f 88 99 89
f 89 99 100
f 89 100 101
f 89 101 90
f 90 101 102
f 90 102 103
f 90 103 104
f 90 104 105
f 90 105 91
f 91 105 106
f 91 106 92
f 92 106 98
f 93 107 108
f 93 108 109
f 93 109 110
f 93 110 94
f 94 110 111
f 94 111 95
f 95 111 112
f 99 113 114
f 99 114 100
f 100 114 101
f 101 114 102
f 102 114 115
f 102 115 103
f 103 115 116
f 103 116 104
f 104 116 117
f 104 117 118
f 104 118 105
f 107 119 120
f 107 120 121
f 107 121 122
f 107 122 123
f 107 123 124
f 107 124 108
f 108 124 125
f 108 125 110
f 108 110 109
f 110 125 111
f 111 125 126
f 111 126 127
f 113 128 129
f 113 129 130
f 113 130 114
f 114 130 131
f 114 131 132
f 114 132 133
f 114 133 134
f 114 134 115
f 115 134 135
f 115 135 136
f 115 136 137
f 115 137 116
f 116 137 117
f 117 137 118
f 119 138 139
f 119 139 140
f 119 140 120
f 120 140 121
f 121 127 122
f 122 127 123
f 123 127 126
f 123 126 124
f 124 126 125
f 128 131 129
f 129 131 130
f 131 141 139
f 131 139 138
f 131 138 142
f 131 142 136
f 131 136 132
f 132 136 135
f 132 135 133
f 133 135 143
f 133 143 134
f 134 143 135
f 139 141 144
f 139 144 145
f 139 145 146
f 139 146 140
f 141 147 148
f 141 148 149
f 141 149 144
f 144 149 145
f 145 149 148
f 145 148 150
f 145 150 146
f 147 150 148

