# https://github.com/mikedh/trimesh
v 0.00007815 0.00703013 0.04395412
v 0.00007815 0.00253546 0.04395412
v 0.00007815 0.00703013 0.04150865
v -0.00088045 0.00703013 0.04395412
v 0.00007815 0.00253546 0.04150865
v -0.00435572 0.00253546 0.04395412
v -0.00156971 0.00703013 0.04150865
v -0.00437766 0.00484395 0.04150865
v -0.00415572 0.00427156 0.04395412
v -0.00501656 0.00253546 0.04150865
v -0.00435572 0.00279460 0.04395412
v -0.00475272 0.00448142 0.04150865
v -0.00418564 0.00417829 0.04395412
v -0.00501656 0.00279460 0.04150865
v -0.00435422 0.00351350 0.04395412
v -0.00500558 0.00364197 0.04150865
v -0.00435322 0.00364197 0.04395412
f 1 2 5
f 1 5 3
f 1 3 7
f 1 7 4
f 1 4 9
f 1 9 13
f 1 13 17
f 1 17 15
f 1 15 11
f 1 11 6
f 1 6 2
f 2 6 10
f 2 10 5
f 3 5 10
f 3 10 14
f 3 14 16
f 3 16 12
f 3 12 8
f 3 8 7
f 4 7 8
f 4 8 9
f 6 11 14
f 6 14 10
f 8 12 9
f 9 12 13
f 11 15 14
f 12 16 17
f 12 17 13
f 14 15 17
f 14 17 16

