# https://github.com/mikedh/trimesh
v 0.00437607 -0.01923768 0.04408334
v 0.00437607 -0.01925542 0.04408334
v 0.00436404 -0.01923768 0.04229477
v 0.00436920 -0.01839057 0.04408334
v 0.00327566 -0.01500151 0.05001395
v 0.00436404 -0.01925542 0.04229477
v 0.00323357 -0.01754285 0.05001395
v 0.00297070 -0.01822604 0.05070868
v 0.00416389 -0.01925542 0.04493069
v 0.00433741 -0.01669573 0.04229477
v 0.00433655 -0.01669573 0.04238862
v 0.00434343 -0.01754285 0.04408334
v 0.00327566 -0.01300758 0.04831924
v 0.00297070 -0.01440027 0.05070868
v 0.00304716 -0.01500151 0.05084376
v 0.00301881 -0.01754285 0.05081482
v -0.00439974 -0.01925542 0.04229477
v 0.00239430 -0.01754285 0.05120165
v 0.00239430 -0.01836305 0.05084815
v 0.00239430 -0.01878630 0.05031746
v 0.00299647 -0.01925542 0.04911923
v 0.00324559 -0.01925542 0.04831924
v 0.00326449 -0.01300758 0.04229477
v 0.00327566 -0.01300758 0.04463157
v 0.00431336 -0.01669573 0.04323598
v 0.00312447 -0.01300758 0.04884993
v 0.00239430 -0.01429996 0.05084552
v 0.00239430 -0.01500151 0.05125341
v 0.00303599 -0.01300758 0.04910870
v 0.00254205 -0.01300758 0.04932624
v -0.00439974 -0.01300758 0.04229477
v -0.00433188 -0.01925542 0.04831924
v -0.00433273 -0.01923768 0.04831924
v -0.00435593 -0.01839057 0.04831924
v -0.00435593 -0.01500151 0.05001395
v 0.00154644 -0.01754285 0.05121306
v 0.00154644 -0.01836978 0.05085166
v 0.00154644 -0.01879364 0.05035167
v 0.00239430 -0.01925542 0.04940694
v 0.00245443 -0.01925542 0.04938326
v 0.00154644 -0.01428834 0.05084727
v 0.00239430 -0.01300758 0.04938501
v 0.00170106 -0.01300758 0.04939905
v 0.00154644 -0.01500151 0.05125604
v -0.00435593 -0.01300758 0.04831924
v -0.00413172 -0.01925542 0.04906309
v -0.00409221 -0.01821993 0.05070341
v -0.00432500 -0.01754285 0.05001395
v -0.00434734 -0.01754285 0.04916660
v -0.00413602 -0.01754285 0.05080692
v -0.00415835 -0.01500151 0.05083675
v -0.00409221 -0.01441067 0.05070341
v -0.00268942 -0.01754285 0.05121306
v -0.00268942 -0.01836978 0.05085166
v -0.00268942 -0.01879364 0.05035167
v 0.00154644 -0.01925542 0.04945080
v -0.00268942 -0.01428834 0.05084727
v 0.00154644 -0.01300758 0.04940168
v -0.00184156 -0.01500151 0.05125604
v -0.00414718 -0.01300758 0.04909730
v -0.00411368 -0.01925542 0.04911572
v -0.00353642 -0.01878202 0.05029465
v -0.00353642 -0.01835815 0.05084376
v -0.00353642 -0.01754285 0.05119464
v -0.00353642 -0.01500151 0.05124376
v -0.00353642 -0.01430791 0.05084201
v -0.00268942 -0.01500151 0.05125428
v 0.00087210 -0.01925542 0.04945080
v -0.00341959 -0.01925542 0.04940519
v -0.00268942 -0.01925542 0.04944992
v -0.00084079 -0.01300758 0.04940168
v -0.00268942 -0.01300758 0.04939817
v -0.00353642 -0.01300758 0.04937098
v -0.00353642 -0.01925542 0.04939203
f 1 2 6
f 1 6 3
f 1 3 4
f 1 4 5
f 1 5 2
f 2 5 7
f 2 7 8
f 2 8 9
f 2 9 22
f 2 22 21
f 2 21 40
f 2 40 39
f 2 39 56
f 2 56 68
f 2 68 70
f 2 70 69
f 2 69 74
f 2 74 61
f 2 61 46
f 2 46 32
f 2 32 17
f 2 17 6
f 3 6 17
f 3 17 31
f 3 31 23
f 3 23 10
f 3 10 4
f 4 10 11
f 4 11 12
f 4 12 5
f 5 13 14
f 5 14 15
f 5 15 16
f 5 16 7
f 5 12 13
f 7 16 8
f 8 16 18
f 8 18 19
f 8 19 20
f 8 20 21
f 8 21 22
f 8 22 9
f 10 23 24
f 10 24 13
f 10 13 11
f 11 25 12
f 11 13 25
f 12 25 13
f 13 26 14
f 13 24 23
f 13 23 31
f 13 31 45
f 13 45 60
f 13 60 73
f 13 73 72
f 13 72 71
f 13 71 58
f 13 58 43
f 13 43 42
f 13 42 30
f 13 30 29
f 13 29 26
f 14 27 28
f 14 28 15
f 14 26 29
f 14 29 30
f 14 30 27
f 15 28 16
f 16 28 18
f 17 32 33
f 17 33 34
f 17 34 35
f 17 35 31
f 18 28 36
f 18 36 19
f 19 36 37
f 19 37 38
f 19 38 20
f 20 38 39
f 20 39 40
f 20 40 21
f 27 41 28
f 27 30 42
f 27 42 43
f 27 43 41
f 28 44 36
f 28 41 44
f 31 35 45
f 32 46 47
f 32 47 48
f 32 48 33
f 33 48 34
f 34 48 49
f 34 49 35
f 35 48 50
f 35 50 51
f 35 51 52
f 35 52 45
f 35 49 48
f 36 44 59
f 36 59 53
f 36 53 54
f 36 54 37
f 37 54 55
f 37 55 38
f 38 55 68
f 38 68 56
f 38 56 39
f 41 57 59
f 41 59 44
f 41 43 58
f 41 58 71
f 41 71 57
f 45 52 60
f 46 61 47
f 47 62 63
f 47 63 64
f 47 64 50
f 47 50 48
f 47 61 62
f 50 64 65
f 50 65 51
f 51 65 52
f 52 65 66
f 52 66 60
f 53 59 67
f 53 67 65
f 53 65 64
f 53 64 63
f 53 63 54
f 54 63 55
f 55 63 62
f 55 62 69
f 55 69 70
f 55 70 68
f 57 66 65
f 57 65 67
f 57 67 59
f 57 71 72
f 57 72 73
f 57 73 66
f 60 66 73
f 61 74 62
f 62 74 69

