# https://github.com/mikedh/trimesh
v 0.01229304 0.02755384 0.02021881
v 0.01229304 0.03040920 0.02289983
v 0.01229304 0.03135062 0.02021881
v 0.01898793 0.01261142 0.02021881
v 0.01934137 0.01199141 0.02289746
v 0.01229304 0.03278348 0.02289983
v 0.01932391 0.01211583 0.02289983
v 0.01229304 0.03163263 0.02056417
v 0.01237113 0.03131744 0.02021881
v 0.01934035 0.01199141 0.02021881
v 0.02122367 0.01199141 0.02289983
v 0.01252113 0.03308623 0.02289983
v 0.01229304 0.03317332 0.02289799
v 0.01229304 0.03191878 0.02092685
v 0.01256429 0.03185450 0.02101214
v 0.01248415 0.03138379 0.02036682
v 0.01241325 0.03129670 0.02021881
v 0.02278951 0.01199141 0.02021881
v 0.02171685 0.01199141 0.02289983
v 0.01255812 0.03307171 0.02289983
v 0.01229304 0.03294729 0.02244030
v 0.01229304 0.03221324 0.02134491
v 0.01256429 0.03216347 0.02143571
v 0.01302972 0.03205357 0.02159160
v 0.01314891 0.03128011 0.02065655
v 0.01260641 0.03120132 0.02021881
v 0.02274430 0.01199141 0.02033507
v 0.02229325 0.01411479 0.02021881
v 0.02052089 0.01802976 0.02289983
v 0.02071303 0.01720446 0.02289983
v 0.02090413 0.01635221 0.02289983
v 0.02107983 0.01550411 0.02289983
v 0.02125963 0.01459586 0.02289983
v 0.02212578 0.01199141 0.02192279
v 0.02168705 0.01217596 0.02289983
v 0.01341091 0.03264455 0.02289983
v 0.01341296 0.03264247 0.02289694
v 0.01282732 0.03280007 0.02261430
v 0.01229304 0.03292448 0.02239779
v 0.01229304 0.03235632 0.02155092
v 0.01229304 0.03289545 0.02235239
v 0.01255196 0.03259893 0.02208156
v 0.01335234 0.03219250 0.02209626
v 0.01389792 0.03207223 0.02240934
v 0.01359482 0.03188146 0.02184458
v 0.01403252 0.03131744 0.02144411
v 0.01337187 0.03158079 0.02123547
v 0.01371401 0.03110386 0.02087935
v 0.01346845 0.03079282 0.02031171
v 0.01342632 0.03073890 0.02021881
v 0.01314994 0.03089857 0.02021881
v 0.02217920 0.01452536 0.02021881
v 0.01977599 0.02104893 0.02289983
v 0.01987771 0.02066117 0.02289983
v 0.02009964 0.01978196 0.02289983
v 0.02010991 0.01974049 0.02289983
v 0.02031746 0.01889445 0.02289983
v 0.02155143 0.01296394 0.02289983
v 0.02159458 0.01296394 0.02279564
v 0.02162849 0.01252018 0.02289983
v 0.01344482 0.03262381 0.02289983
v 0.01417534 0.03217591 0.02289983
v 0.01428014 0.03210334 0.02289983
v 0.01446302 0.03187109 0.02272583
v 0.01424828 0.03159323 0.02206476
v 0.01459762 0.03111422 0.02171993
v 0.01435308 0.03082599 0.02111633
v 0.01410855 0.03053776 0.02053163
v 0.01355475 0.03066010 0.02021881
v 0.02146923 0.01678767 0.02021881
v 0.01899204 0.02378609 0.02289746
v 0.01918931 0.02312876 0.02289983
v 0.01944104 0.02224748 0.02289983
v 0.01969790 0.02132887 0.02289983
v 0.01483599 0.03165958 0.02289983
v 0.01501271 0.03151028 0.02289983
v 0.01481749 0.03130500 0.02228494
v 0.01514525 0.03079282 0.02199653
v 0.01547301 0.03027649 0.02170812
v 0.01490791 0.03055020 0.02135331
v 0.01467365 0.03032625 0.02078829
v 0.01421541 0.03019562 0.02021881
v 0.02138498 0.01703443 0.02021881
v 0.01837557 0.02567100 0.02289983
v 0.01865709 0.02482497 0.02289983
v 0.01885642 0.02420911 0.02289983
v 0.01899204 0.02378402 0.02289983
v 0.01515553 0.03137550 0.02289983
v 0.01538259 0.03103335 0.02270248
v 0.01564870 0.03046933 0.02227314
v 0.01567234 0.02966270 0.02120293
v 0.01553877 0.02949681 0.02076756
v 0.01504456 0.02967929 0.02043322
v 0.01491613 0.02961708 0.02021881
v 0.01440857 0.03004632 0.02021881
v 0.02058973 0.01924697 0.02021881
v 0.01815158 0.02631797 0.02289983
v 0.01569699 0.03081148 0.02289983
v 0.01576789 0.03073268 0.02289983
v 0.01621894 0.03016866 0.02289983
v 0.01623744 0.03014378 0.02289746
v 0.01596208 0.02991153 0.02204771
v 0.01627648 0.02934544 0.02182227
v 0.01612236 0.02906343 0.02117275
v 0.01632682 0.02857198 0.02086991
v 0.01565281 0.02888717 0.02021881
v 0.01531581 0.02923761 0.02021881
v 0.01526957 0.02928530 0.02021881
v 0.01622922 0.02816970 0.02021881
v 0.02040479 0.01973427 0.02021881
v 0.01798924 0.02674513 0.02289983
v 0.01623846 0.03014378 0.02289983
v 0.01652821 0.02971869 0.02289746
v 0.01641930 0.02954865 0.02238729
v 0.01647272 0.02877934 0.02143492
v 0.01651793 0.02800589 0.02051431
v 0.01668438 0.02749993 0.02021881
v 0.01968454 0.02151135 0.02021881
v 0.01771491 0.02740869 0.02289983
v 0.01652923 0.02971869 0.02289983
v 0.01658574 0.02906343 0.02208287
v 0.01719091 0.02671610 0.02021881
v 0.01701830 0.02699396 0.02021881
v 0.01965578 0.02157978 0.02021881
v 0.01736558 0.02819666 0.02289983
v 0.01935884 0.02228480 0.02021881
v 0.01904547 0.02299605 0.02021881
v 0.01888827 0.02335271 0.02021881
v 0.01654875 0.02968551 0.02289983
v 0.01705323 0.02821532 0.02200781
v 0.01709947 0.02757665 0.02120293
v 0.01724845 0.02698567 0.02072111
v 0.01735942 0.02642372 0.02021881
v 0.01733270 0.02826301 0.02289983
v 0.01821837 0.02479802 0.02021881
v 0.01810946 0.02502819 0.02021881
v 0.01692069 0.02904684 0.02289983
v 0.01720016 0.02774461 0.02169710
v 0.01699467 0.02891827 0.02289983
v 0.01795020 0.02534545 0.02021881
v 0.01738510 0.02651082 0.02040540
v 0.01715084 0.02849733 0.02269014
f 1 2 6
f 1 6 13
f 1 13 21
f 1 21 39
f 1 39 41
f 1 41 40
f 1 40 22
f 1 22 14
f 1 14 8
f 1 8 3
f 1 3 9
f 1 9 17
f 1 17 26
f 1 26 51
f 1 51 50
f 1 50 69
f 1 69 82
f 1 82 95
f 1 95 94
f 1 94 108
f 1 108 107
f 1 107 106
f 1 106 109
f 1 109 117
f 1 117 123
f 1 123 122
f 1 122 133
f 1 133 140
f 1 140 136
f 1 136 135
f 1 135 128
f 1 128 127
f 1 127 126
f 1 126 124
f 1 124 118
f 1 118 110
f 1 110 96
f 1 96 83
f 1 83 70
f 1 70 52
f 1 52 28
f 1 28 18
f 1 18 10
f 1 10 4
f 1 4 5
f 1 5 2
f 2 5 7
f 2 7 11
f 2 11 19
f 2 19 35
f 2 35 60
f 2 60 58
f 2 58 33
f 2 33 32
f 2 32 31
f 2 31 30
f 2 30 29
f 2 29 57
f 2 57 56
f 2 56 55
f 2 55 54
f 2 54 53
f 2 53 74
f 2 74 73
f 2 73 72
f 2 72 87
f 2 87 86
f 2 86 85
f 2 85 84
f 2 84 97
f 2 97 111
f 2 111 119
f 2 119 125
f 2 125 134
f 2 134 139
f 2 139 137
f 2 137 129
f 2 129 120
f 2 120 112
f 2 112 100
f 2 100 99
f 2 99 98
f 2 98 88
f 2 88 76
f 2 76 75
f 2 75 63
f 2 63 62
f 2 62 61
f 2 61 36
f 2 36 20
f 2 20 12
f 2 12 6
f 3 8 9
f 4 10 5
f 5 10 18
f 5 18 27
f 5 27 34
f 5 34 19
f 5 19 11
f 5 11 7
f 6 12 13
f 8 14 15
f 8 15 16
f 8 16 9
f 9 16 17
f 12 20 21
f 12 21 13
f 14 22 23
f 14 23 15
f 15 23 24
f 15 24 25
f 15 25 16
f 16 25 26
f 16 26 17
f 18 28 29
f 18 29 30
f 18 30 31
f 18 31 32
f 18 32 33
f 18 33 27
f 19 34 35
f 20 36 37
f 20 37 38
f 20 38 21
f 21 38 39
f 22 40 23
f 23 40 41
f 23 41 42
f 23 42 24
f 24 43 44
f 24 44 45
f 24 45 46
f 24 46 47
f 24 47 25
f 24 42 38
f 24 38 43
f 25 48 49
f 25 49 50
f 25 50 51
f 25 51 26
f 25 47 48
f 27 33 34
f 28 52 53
f 28 53 54
f 28 54 55
f 28 55 56
f 28 56 57
f 28 57 29
f 33 58 59
f 33 59 34
f 34 59 58
f 34 58 60
f 34 60 35
f 36 61 37
f 37 61 62
f 37 62 44
f 37 44 43
f 37 43 38
f 38 42 39
f 39 42 41
f 44 62 63
f 44 63 64
f 44 64 65
f 44 65 46
f 44 46 45
f 46 66 67
f 46 67 48
f 46 48 47
f 46 65 66
f 48 67 68
f 48 68 69
f 48 69 49
f 49 69 50
f 52 70 71
f 52 71 72
f 52 72 73
f 52 73 74
f 52 74 53
f 63 75 64
f 64 75 76
f 64 76 77
f 64 77 66
f 64 66 65
f 66 77 78
f 66 78 79
f 66 79 80
f 66 80 81
f 66 81 67
f 67 81 68
f 68 81 82
f 68 82 69
f 70 83 84
f 70 84 85
f 70 85 86
f 70 86 71
f 71 86 87
f 71 87 72
f 76 88 77
f 77 88 89
f 77 89 78
f 78 89 79
f 79 89 90
f 79 90 91
f 79 91 92
f 79 92 80
f 80 92 81
f 81 92 93
f 81 93 94
f 81 94 95
f 81 95 82
f 83 96 97
f 83 97 84
f 88 98 89
f 89 98 90
f 90 98 99
f 90 99 100
f 90 100 101
f 90 101 102
f 90 102 91
f 91 102 103
f 91 103 104
f 91 104 105
f 91 105 92
f 92 106 107
f 92 107 108
f 92 108 93
f 92 105 109
f 92 109 106
f 93 108 94
f 96 110 97
f 97 110 111
f 100 112 101
f 101 112 120
f 101 120 113
f 101 113 114
f 101 114 103
f 101 103 102
f 103 114 115
f 103 115 105
f 103 105 104
f 105 115 116
f 105 116 109
f 109 116 117
f 110 118 111
f 111 118 119
f 113 120 114
f 114 120 121
f 114 121 115
f 115 121 122
f 115 122 123
f 115 123 116
f 116 123 117
f 118 124 119
f 119 124 126
f 119 126 127
f 119 127 128
f 119 128 125
f 120 129 121
f 121 129 130
f 121 130 131
f 121 131 132
f 121 132 122
f 122 132 133
f 125 128 135
f 125 135 136
f 125 136 134
f 129 137 130
f 130 138 132
f 130 132 131
f 130 137 139
f 130 139 138
f 132 138 140
f 132 140 141
f 132 141 133
f 133 141 140
f 134 136 142
f 134 142 139
f 136 140 142
f 138 139 142
f 138 142 140

