# https://github.com/mikedh/trimesh
v -0.00501656 0.01042166 0.04150865
v -0.00499212 0.00989271 0.04150865
v -0.00425198 0.01042166 0.04395412
v -0.00435572 0.01283590 0.04395412
v -0.00501656 0.01804623 0.04150865
v -0.00489686 0.00912190 0.04150865
v -0.00410684 0.00966217 0.04395412
v -0.00435572 0.01550471 0.04395412
v -0.00433078 0.01635188 0.04395412
v -0.00498214 0.01889482 0.04150865
v -0.00460908 0.00850385 0.04150865
v -0.00088045 0.00703155 0.04395412
v -0.00414425 0.01756678 0.04395412
v -0.00407941 0.01889482 0.04375783
v -0.00402455 0.01937852 0.04370900
v -0.00469038 0.01971795 0.04150865
v -0.00156971 0.00703155 0.04150865
v 0.00007815 0.00703155 0.04395412
v -0.00353677 0.01817918 0.04395412
v -0.00353677 0.01889482 0.04386077
v 0.00007815 0.02092436 0.04389093
v 0.00007815 0.02147878 0.04368530
v -0.00030689 0.02147878 0.04358285
v -0.00073880 0.02147878 0.04315963
v -0.00436320 0.02001779 0.04150865
v 0.00007815 0.00703155 0.04150865
v 0.00007815 0.02008992 0.04395412
v 0.00007815 0.02147878 0.04150865
v -0.00156971 0.02147878 0.04150865
f 1 2 3
f 1 3 4
f 1 4 8
f 1 8 5
f 1 5 10
f 1 10 16
f 1 16 25
f 1 25 29
f 1 29 28
f 1 28 26
f 1 26 17
f 1 17 11
f 1 11 6
f 1 6 2
f 2 6 3
f 3 7 12
f 3 12 18
f 3 18 27
f 3 27 19
f 3 19 13
f 3 13 9
f 3 9 8
f 3 8 4
f 3 6 7
f 5 8 9
f 5 9 10
f 6 11 7
f 7 11 12
f 9 13 14
f 9 14 10
f 10 14 15
f 10 15 16
f 11 17 12
f 12 17 26
f 12 26 18
f 13 19 20
f 13 20 15
f 13 15 14
f 15 21 22
f 15 22 23
f 15 23 24
f 15 24 25
f 15 25 16
f 15 20 21
f 18 26 28
f 18 28 22
f 18 22 21
f 18 21 27
f 19 27 21
f 19 21 20
f 22 28 29
f 22 29 24
f 22 24 23
f 24 29 25

