# https://github.com/mikedh/trimesh
v 0.00064319 0.03923217 0.07554342
v 0.00066185 0.03838512 0.07628450
v 0.00060836 0.03923217 0.07713156
v 0.00090937 0.03974040 0.08052055
v 0.00092430 0.03973264 0.07967350
v 0.00095664 0.03971711 0.07797938
v 0.00068921 0.03929091 0.07554342
v 0.00068921 0.03838512 0.07554342
v 0.00069543 0.03838512 0.08136761
v 0.00054741 0.03923217 0.08052055
v 0.00059219 0.03923217 0.07797938
v 0.00129994 0.03669052 0.07628450
v 0.00129496 0.03669052 0.07713156
v 0.00129496 0.03669052 0.08052055
v 0.00055612 0.03923217 0.08136761
v 0.00091808 0.03973555 0.08136761
v 0.00154747 0.03981904 0.08052055
v 0.00097530 0.03970934 0.07713156
v 0.00099396 0.03970157 0.07628450
v 0.00101137 0.03969478 0.07554342
v 0.00107356 0.03771815 0.07554342
v 0.00178877 0.03620025 0.07576075
v 0.00072155 0.03838512 0.08221543
v 0.00130243 0.03669052 0.08136761
v 0.00169673 0.03616724 0.07628450
v 0.00169673 0.03616724 0.08136761
v 0.00060463 0.03923217 0.08221543
v 0.00067304 0.03923217 0.08306249
v 0.00096908 0.03971177 0.08221543
v 0.00154747 0.03980836 0.08136761
v 0.00239577 0.03979574 0.08136761
v 0.00324282 0.03977244 0.08136761
v 0.00324282 0.03971322 0.07628450
v 0.00154747 0.03980642 0.07967350
v 0.00154747 0.03979137 0.07882644
v 0.00154747 0.03976031 0.07713156
v 0.00154747 0.03974429 0.07628450
v 0.00154747 0.03972973 0.07554342
v 0.00156737 0.03699634 0.07554342
v 0.00368439 0.03486050 0.08164100
v 0.00358986 0.03486050 0.08175696
v 0.00200520 0.03669052 0.07554342
v 0.00239577 0.03648228 0.07554342
v 0.00943219 0.03486050 0.07554342
v 0.00082355 0.03830502 0.08338810
v 0.00178877 0.03620025 0.08188367
v 0.00354757 0.03486050 0.08198812
v 0.00353015 0.03486050 0.08216859
v 0.00346796 0.03486050 0.08292733
v 0.00347294 0.03486050 0.08338810
v 0.00072528 0.03926275 0.08338810
v 0.00104246 0.03968264 0.08306249
v 0.00107356 0.03967245 0.08338810
v 0.00154747 0.03976128 0.08221543
v 0.00239577 0.03975060 0.08221543
v 0.00324282 0.03972730 0.08221543
v 0.00407744 0.03968555 0.08223310
v 0.00465583 0.03966954 0.08196201
v 0.00408988 0.03972779 0.08136761
v 0.00397172 0.03967779 0.07628450
v 0.00324282 0.03969914 0.07554342
v 0.00239577 0.03973410 0.07628450
v 0.00384609 0.03967051 0.07554342
v 0.00228880 0.03972099 0.07554342
v 0.01325453 0.03486050 0.07554342
v 0.01280799 0.03486050 0.08338810
v 0.00128501 0.03967973 0.08338810
v 0.00154747 0.03967876 0.08338810
v 0.00193803 0.03967245 0.08338810
v 0.00261220 0.03966080 0.08338810
v 0.00275026 0.03965691 0.08338810
v 0.00324282 0.03967536 0.08289431
v 0.00378639 0.03966274 0.08272152
v 0.00435109 0.03964721 0.08252722
v 0.00493694 0.03952876 0.08338810
v 0.00493694 0.03955546 0.08306249
v 0.00493818 0.03962148 0.08223310
v 0.00578524 0.03952294 0.08221543
v 0.00515461 0.03963458 0.08136761
v 0.00473046 0.03967827 0.08136761
v 0.00439587 0.03964624 0.07628450
v 0.00389833 0.03966662 0.07554342
v 0.00239577 0.03971953 0.07554342
v 0.01320104 0.03497166 0.07554342
v 0.01318736 0.03486050 0.07713156
v 0.01282665 0.03486050 0.08317077
v 0.01278311 0.03490564 0.08338810
v 0.00324282 0.03963750 0.08338810
v 0.00373663 0.03961226 0.08338810
v 0.00407744 0.03962245 0.08302716
v 0.00408242 0.03959333 0.08338810
v 0.00461230 0.03955400 0.08338810
v 0.00545936 0.03947003 0.08338810
v 0.00578524 0.03946032 0.08306249
v 0.00578524 0.03954721 0.08136761
v 0.00663230 0.03933265 0.08306249
v 0.00663230 0.03938168 0.08221543
v 0.00578524 0.03951614 0.07628450
v 0.00493694 0.03960206 0.07628450
v 0.00486977 0.03958750 0.07554342
v 0.01318487 0.03494010 0.07628450
v 0.01297218 0.03539543 0.07554342
v 0.01315129 0.03486050 0.07797938
v 0.01314756 0.03486826 0.07797938
v 0.01275575 0.03495224 0.08338810
v 0.01283535 0.03486050 0.08305865
v 0.00578524 0.03943265 0.08338810
v 0.00663230 0.03939236 0.08136761
v 0.00663230 0.03939091 0.08052055
v 0.00663230 0.03938896 0.07967350
v 0.00663230 0.03938023 0.07713156
v 0.00663230 0.03937683 0.07628450
v 0.00663230 0.03937343 0.07554342
v 0.00652657 0.03939091 0.07554342
v 0.00630766 0.03935353 0.08338810
v 0.00663230 0.03930304 0.08338810
v 0.00747812 0.03912295 0.08338810
v 0.00747812 0.03914819 0.08306249
v 0.00747812 0.03917586 0.08221543
v 0.00578524 0.03950401 0.07554342
v 0.00567827 0.03951469 0.07554342
v 0.00493694 0.03958168 0.07554342
v 0.01295352 0.03536387 0.07628450
v 0.01266992 0.03584347 0.07554342
v 0.01263385 0.03584347 0.07628450
v 0.01254927 0.03584347 0.07797938
v 0.01314258 0.03486050 0.07814449
v 0.01310651 0.03486050 0.07882644
v 0.01290998 0.03529203 0.07797938
v 0.01279057 0.03492942 0.08311164
v 0.01277565 0.03506485 0.08221543
v 0.01230921 0.03567891 0.08338810
v 0.01289506 0.03486050 0.08221543
v 0.00747812 0.03918120 0.08136761
v 0.00747812 0.03918460 0.08052055
v 0.00747812 0.03918654 0.07967350
v 0.00747812 0.03919382 0.07554342
v 0.00737239 0.03921664 0.07554342
v 0.00816099 0.03891228 0.08338810
v 0.00817467 0.03892248 0.08306249
v 0.00819208 0.03892976 0.08221543
v 0.00827542 0.03894286 0.07882644
v 0.00829035 0.03894626 0.07797938
v 0.00830900 0.03895257 0.07628450
v 0.00831771 0.03895451 0.07554342
v 0.01231045 0.03633859 0.07554342
v 0.01222338 0.03636286 0.07713156
v 0.01220348 0.03633908 0.07797938
v 0.01217985 0.03631238 0.07882644
v 0.01214004 0.03626724 0.08010201
v 0.01250200 0.03584347 0.07882644
v 0.01305551 0.03486050 0.07967350
v 0.01288511 0.03525126 0.07882644
v 0.01283162 0.03515903 0.08052055
v 0.01235150 0.03574299 0.08221543
v 0.01232165 0.03569833 0.08306249
v 0.01202934 0.03612161 0.08306249
v 0.01201566 0.03610268 0.08338810
v 0.01294979 0.03486050 0.08136761
v 0.00821323 0.03898461 0.07554342
v 0.00832393 0.03885258 0.08338810
v 0.00869833 0.03878947 0.07882644
v 0.00871325 0.03879530 0.07797938
v 0.00872320 0.03879918 0.07713156
v 0.00873315 0.03880258 0.07628450
v 0.00874062 0.03880549 0.07554342
v 0.01226070 0.03640655 0.07554342
v 0.01183530 0.03683032 0.07554342
v 0.01181291 0.03680993 0.07628450
v 0.01121711 0.03704197 0.08221543
v 0.01118975 0.03701430 0.08306249
v 0.01160519 0.03659053 0.08306249
v 0.01159151 0.03657790 0.08338810
v 0.01209278 0.03620753 0.08136761
v 0.01206168 0.03616676 0.08221543
v 0.01238011 0.03578376 0.08136761
v 0.01235398 0.03591240 0.08043915
v 0.01244852 0.03584347 0.07967350
v 0.00858514 0.03874142 0.08338810
v 0.00859882 0.03874287 0.08306249
v 0.00917347 0.03857006 0.07882644
v 0.00917347 0.03858705 0.07797938
v 0.00917347 0.03860161 0.07713156
v 0.00917347 0.03861569 0.07628450
v 0.00917347 0.03862783 0.07554342
v 0.00911750 0.03865161 0.07554342
v 0.01141239 0.03722594 0.07554342
v 0.01079420 0.03740700 0.08221543
v 0.01076684 0.03738467 0.08306249
v 0.01117731 0.03700167 0.08338810
v 0.01143354 0.03674052 0.08338810
v 0.01075440 0.03737496 0.08338810
v 0.00917347 0.03844968 0.08338810
v 0.00917347 0.03850696 0.08136761
v 0.00917347 0.03852929 0.08052055
v 0.00917347 0.03855016 0.07967350
v 0.01000685 0.03819823 0.07628450
v 0.01009641 0.03816522 0.07554342
v 0.01134647 0.03727788 0.07554342
v 0.01038622 0.03792446 0.07797938
v 0.01028298 0.03784922 0.08136761
v 0.01025562 0.03783077 0.08221543
v 0.01022452 0.03780844 0.08306249
v 0.01021333 0.03779825 0.08338810
v 0.00956031 0.03822930 0.08338810
v 0.00983271 0.03811765 0.08221543
v 0.00985883 0.03813221 0.08136761
v 0.00988371 0.03814435 0.08052055
v 0.00996207 0.03817687 0.07797938
v 0.00998695 0.03818755 0.07713156
v 0.01043100 0.03795309 0.07628450
v 0.01016855 0.03812396 0.07554342
v 0.01079420 0.03770602 0.07554342
v 0.01041110 0.03794047 0.07713156
v 0.00978918 0.03809338 0.08338810
v 0.01076186 0.03773077 0.07554342
v 0.01044717 0.03796280 0.07554342
f 1 2 3
f 1 3 4
f 1 4 5
f 1 5 6
f 1 6 7
f 1 7 20
f 1 20 38
f 1 38 64
f 1 64 83
f 1 83 61
f 1 61 63
f 1 63 82
f 1 82 100
f 1 100 122
f 1 122 121
f 1 121 120
f 1 120 114
f 1 114 113
f 1 113 138
f 1 138 137
f 1 137 160
f 1 160 145
f 1 145 166
f 1 166 186
f 1 186 185
f 1 185 198
f 1 198 212
f 1 212 217
f 1 217 216
f 1 216 213
f 1 213 199
f 1 199 187
f 1 187 168
f 1 168 167
f 1 167 146
f 1 146 124
f 1 124 102
f 1 102 84
f 1 84 65
f 1 65 44
f 1 44 43
f 1 43 42
f 1 42 39
f 1 39 21
f 1 21 8
f 1 8 2
f 2 9 10
f 2 10 11
f 2 11 3
f 2 8 12
f 2 12 13
f 2 13 14
f 2 14 9
f 3 11 4
f 4 11 10
f 4 10 15
f 4 15 16
f 4 16 17
f 4 17 5
f 5 17 6
f 6 17 18
f 6 18 7
f 7 18 19
f 7 19 20
f 8 21 22
f 8 22 12
f 9 23 15
f 9 15 10
f 9 14 24
f 9 24 23
f 12 22 25
f 12 25 13
f 13 25 26
f 13 26 14
f 14 26 24
f 15 23 27
f 15 27 16
f 16 27 28
f 16 28 29
f 16 29 30
f 16 30 17
f 17 30 31
f 17 31 32
f 17 32 33
f 17 33 34
f 17 34 20
f 17 20 19
f 17 19 18
f 20 34 35
f 20 35 36
f 20 36 37
f 20 37 38
f 21 39 22
f 22 40 41
f 22 41 25
f 22 39 42
f 22 42 43
f 22 43 44
f 22 44 40
f 23 45 27
f 23 24 45
f 24 26 46
f 24 46 45
f 25 41 47
f 25 47 48
f 25 48 49
f 25 49 26
f 26 49 50
f 26 50 46
f 27 45 28
f 28 45 51
f 28 51 29
f 29 52 53
f 29 53 30
f 29 51 52
f 30 54 55
f 30 55 31
f 30 53 54
f 31 55 56
f 31 56 32
f 32 56 57
f 32 57 58
f 32 58 59
f 32 59 60
f 32 60 33
f 33 61 62
f 33 62 34
f 33 60 63
f 33 63 61
f 34 62 35
f 35 62 36
f 36 62 37
f 37 62 64
f 37 64 38
f 40 44 65
f 40 65 85
f 40 85 103
f 40 103 127
f 40 127 128
f 40 128 152
f 40 152 159
f 40 159 133
f 40 133 106
f 40 106 86
f 40 86 66
f 40 66 50
f 40 50 49
f 40 49 48
f 40 48 47
f 40 47 41
f 45 46 50
f 45 50 66
f 45 66 87
f 45 87 105
f 45 105 132
f 45 132 158
f 45 158 173
f 45 173 191
f 45 191 190
f 45 190 192
f 45 192 204
f 45 204 215
f 45 215 205
f 45 205 193
f 45 193 179
f 45 179 161
f 45 161 139
f 45 139 117
f 45 117 116
f 45 116 115
f 45 115 107
f 45 107 93
f 45 93 75
f 45 75 92
f 45 92 91
f 45 91 89
f 45 89 88
f 45 88 71
f 45 71 70
f 45 70 69
f 45 69 68
f 45 68 67
f 45 67 53
f 45 53 51
f 51 53 52
f 53 67 54
f 54 67 68
f 54 68 55
f 55 68 69
f 55 69 70
f 55 70 56
f 56 70 71
f 56 71 72
f 56 72 73
f 56 73 57
f 57 73 74
f 57 74 58
f 58 75 76
f 58 76 77
f 58 77 78
f 58 78 79
f 58 79 80
f 58 80 59
f 58 74 75
f 59 80 81
f 59 81 60
f 60 81 82
f 60 82 63
f 61 83 62
f 62 83 64
f 65 84 85
f 66 86 87
f 71 88 72
f 72 88 73
f 73 89 90
f 73 90 74
f 73 88 89
f 74 90 91
f 74 91 92
f 74 92 75
f 75 93 94
f 75 94 76
f 76 94 77
f 77 94 78
f 78 95 79
f 78 94 96
f 78 96 97
f 78 97 95
f 79 95 98
f 79 98 80
f 80 98 99
f 80 99 81
f 81 99 100
f 81 100 82
f 84 101 85
f 84 102 101
f 85 101 104
f 85 104 103
f 86 105 87
f 86 106 105
f 89 91 90
f 93 107 94
f 94 107 96
f 95 97 108
f 95 108 109
f 95 109 110
f 95 110 111
f 95 111 112
f 95 112 113
f 95 113 114
f 95 114 98
f 96 107 115
f 96 115 116
f 96 116 117
f 96 117 118
f 96 118 97
f 97 118 119
f 97 119 108
f 98 120 99
f 98 114 120
f 99 120 121
f 99 121 122
f 99 122 100
f 101 102 104
f 102 123 104
f 102 124 125
f 102 125 126
f 102 126 123
f 103 104 127
f 104 128 127
f 104 123 129
f 104 129 128
f 105 106 130
f 105 130 131
f 105 131 132
f 106 133 131
f 106 131 130
f 108 119 134
f 108 134 135
f 108 135 136
f 108 136 137
f 108 137 109
f 109 137 110
f 110 137 138
f 110 138 111
f 111 138 112
f 112 138 113
f 117 139 118
f 118 139 140
f 118 140 119
f 119 140 141
f 119 141 142
f 119 142 143
f 119 143 144
f 119 144 145
f 119 145 134
f 123 126 129
f 124 146 147
f 124 147 148
f 124 148 125
f 125 148 149
f 125 149 126
f 126 149 150
f 126 150 151
f 126 151 129
f 128 129 153
f 128 153 152
f 129 151 153
f 131 133 154
f 131 154 155
f 131 155 156
f 131 156 132
f 132 156 157
f 132 157 158
f 133 159 154
f 134 145 135
f 135 145 160
f 135 160 136
f 136 160 137
f 139 161 140
f 140 161 162
f 140 162 141
f 141 162 163
f 141 163 142
f 142 163 143
f 143 163 164
f 143 164 165
f 143 165 144
f 144 165 166
f 144 166 145
f 146 167 147
f 147 167 168
f 147 168 148
f 148 168 169
f 148 169 170
f 148 170 149
f 149 170 171
f 149 171 150
f 150 172 173
f 150 173 174
f 150 174 175
f 150 175 155
f 150 155 176
f 150 176 177
f 150 177 178
f 150 178 151
f 150 171 172
f 151 178 153
f 152 153 159
f 153 154 159
f 153 178 176
f 153 176 155
f 153 155 154
f 155 175 156
f 156 175 157
f 157 175 173
f 157 173 158
f 161 179 180
f 161 180 162
f 162 181 182
f 162 182 183
f 162 183 184
f 162 184 185
f 162 185 163
f 162 180 181
f 163 185 186
f 163 186 164
f 164 186 165
f 165 186 166
f 168 187 170
f 168 170 169
f 170 187 188
f 170 188 189
f 170 189 171
f 171 190 191
f 171 191 172
f 171 189 192
f 171 192 190
f 172 191 173
f 173 175 174
f 176 178 177
f 179 193 194
f 179 194 195
f 179 195 180
f 180 195 196
f 180 196 181
f 181 196 197
f 181 197 182
f 182 197 183
f 183 197 184
f 184 197 185
f 185 197 198
f 187 199 200
f 187 200 188
f 188 200 201
f 188 201 202
f 188 202 189
f 189 202 203
f 189 203 204
f 189 204 192
f 193 205 206
f 193 206 207
f 193 207 208
f 193 208 209
f 193 209 210
f 193 210 194
f 194 210 195
f 195 210 197
f 195 197 196
f 197 210 211
f 197 211 212
f 197 212 198
f 199 213 214
f 199 214 200
f 200 214 206
f 200 206 201
f 201 206 202
f 202 206 215
f 202 215 203
f 203 215 204
f 205 215 206
f 206 214 207
f 207 214 208
f 208 214 209
f 209 214 210
f 210 214 211
f 211 214 216
f 211 216 217
f 211 217 212
f 213 216 214

