# https://github.com/mikedh/trimesh
v -0.00518423 0.02742554 0.04150865
v -0.00417854 0.02742554 0.04356011
v 0.00007864 0.02742554 0.04150865
v -0.00499772 0.02482645 0.04150865
v -0.00395236 0.02742554 0.04395412
v -0.00494981 0.02434156 0.04150865
v 0.00007864 0.02147936 0.04150865
v 0.00007864 0.02742554 0.04395412
v -0.00353710 0.02723694 0.04395412
v -0.00411362 0.02482645 0.04296837
v -0.00403943 0.02433923 0.04289656
v -0.00030673 0.02147936 0.04358285
v 0.00007864 0.02147936 0.04368530
v -0.00468963 0.02367680 0.04150865
v -0.00157003 0.02147936 0.04150865
v 0.00007864 0.02715020 0.04395412
v -0.00287454 0.02721598 0.04395412
v -0.00073899 0.02147936 0.04315963
v -0.00268958 0.02721132 0.04395412
f 1 2 5
f 1 5 8
f 1 8 3
f 1 3 7
f 1 7 15
f 1 15 14
f 1 14 6
f 1 6 4
f 1 4 2
f 2 4 6
f 2 6 5
f 3 8 16
f 3 16 13
f 3 13 7
f 5 9 17
f 5 17 19
f 5 19 16
f 5 16 8
f 5 6 10
f 5 10 11
f 5 11 12
f 5 12 13
f 5 13 9
f 6 11 10
f 6 14 11
f 7 13 12
f 7 12 18
f 7 18 15
f 9 13 17
f 11 14 18
f 11 18 12
f 13 16 19
f 13 19 17
f 14 15 18

