# https://github.com/mikedh/trimesh
v 0.00823393 -0.02097342 0.05679377
v 0.00824519 -0.02097342 0.05675011
v 0.00823393 -0.02097342 0.05876375
v 0.00823393 -0.01076411 0.05679377
v 0.00849048 -0.02097342 0.05606196
v 0.01462631 -0.02097342 0.05876375
v 0.00823393 -0.01076411 0.05876375
v 0.00824457 -0.00991760 0.05679377
v 0.00849611 -0.00991760 0.05607305
v 0.00849235 -0.01076411 0.05606983
v 0.00917439 -0.02097342 0.05574383
v 0.00917439 -0.01076411 0.05575242
v 0.01462631 -0.02097342 0.05562789
v 0.01462631 -0.00408300 0.05876375
v 0.00824644 -0.00991760 0.05876375
v 0.00858308 -0.00933232 0.05617397
v 0.01043397 -0.00408300 0.05764081
v 0.01043397 -0.00408300 0.05679377
v 0.01043460 -0.00408300 0.05674331
v 0.01043960 -0.00408300 0.05635719
v 0.01086885 -0.00408300 0.05603977
v 0.00917439 -0.00991760 0.05577031
v 0.01462631 -0.00408300 0.05510793
v 0.01148018 -0.00408300 0.05876375
v 0.00850424 -0.00926454 0.05876375
v 0.01043960 -0.00408300 0.05808526
v 0.01096709 -0.00408300 0.05600435
v 0.01171545 -0.00408300 0.05573524
v 0.01086885 -0.00408300 0.05848784
f 1 2 5
f 1 5 11
f 1 11 13
f 1 13 6
f 1 6 3
f 1 3 7
f 1 7 4
f 1 4 2
f 2 4 5
f 3 6 14
f 3 14 24
f 3 24 25
f 3 25 15
f 3 15 7
f 4 7 8
f 4 8 9
f 4 9 10
f 4 10 5
f 5 10 12
f 5 12 11
f 6 13 23
f 6 23 14
f 7 15 8
f 8 16 9
f 8 15 17
f 8 17 18
f 8 18 19
f 8 19 20
f 8 20 16
f 9 16 21
f 9 21 22
f 9 22 12
f 9 12 10
f 11 12 23
f 11 23 13
f 12 22 23
f 14 23 28
f 14 28 27
f 14 27 21
f 14 21 20
f 14 20 19
f 14 19 18
f 14 18 17
f 14 17 26
f 14 26 29
f 14 29 24
f 15 25 26
f 15 26 17
f 16 20 21
f 21 27 22
f 22 27 28
f 22 28 23
f 24 29 25
f 25 29 26

