# https://github.com/mikedh/trimesh
v 0.00620376 0.03372606 0.04180922
v 0.00327574 0.02991121 0.04492272
v 0.00620376 0.02991121 0.04180922
v 0.00620376 0.03372606 0.03948792
v 0.00239433 0.03372606 0.04226305
v 0.00239433 0.03330417 0.04323509
v 0.00239433 0.03303463 0.04380011
v 0.00292527 0.03298159 0.04375276
v 0.00296319 0.03131687 0.04492272
v 0.00318943 0.03076484 0.04492272
v 0.00319205 0.03075806 0.04492272
v 0.00327574 0.02742554 0.04492272
v 0.00620376 0.02912973 0.04146339
v 0.00620376 0.03150006 0.03948792
v 0.00052034 0.03372606 0.03948792
v 0.00197977 0.03372606 0.04224230
v -0.00607849 0.03330417 0.04323509
v -0.00607849 0.03303525 0.04380011
v 0.00154691 0.03150253 0.04492272
v 0.00239433 0.03147662 0.04492272
v 0.00329012 0.02742554 0.04233434
v 0.00620376 0.02881455 0.04069353
v -0.00419405 0.02742554 0.04492272
v 0.00620376 0.02991121 0.03988429
v 0.00323520 0.02742554 0.03948792
v 0.00045495 0.03359160 0.03948792
v -0.00607849 0.02742554 0.03964647
v -0.00607849 0.03245300 0.03988429
v -0.00607849 0.03311050 0.04007689
v -0.00607849 0.03338004 0.04069353
v 0.00032549 0.03372606 0.03964328
v 0.00154691 0.03372606 0.04215664
v -0.00607849 0.03341581 0.04238754
v -0.00677029 0.03309076 0.04323509
v -0.00665128 0.03298221 0.04375276
v 0.00131806 0.03372606 0.04210077
v -0.00353626 0.03147169 0.04492272
v -0.00352710 0.03147230 0.04492272
v -0.00268884 0.03150253 0.04492272
v 0.00329143 0.02742554 0.04154000
v 0.00329012 0.02742554 0.04069459
v 0.00325351 0.02742554 0.03984599
v 0.00620376 0.02917229 0.04007689
v -0.00435621 0.02821688 0.04492272
v -0.00677813 0.02991121 0.04385012
v -0.00668005 0.02932957 0.04377830
v -0.00673628 0.02742554 0.04128516
v 0.00620376 0.02954545 0.03997953
v 0.00076489 0.02742554 0.03948792
v 0.00031372 0.03330047 0.03948792
v -0.00608373 0.02742554 0.03964807
v -0.00678206 0.03245300 0.04007689
v 0.00015548 0.02742616 0.03948792
v -0.00668921 0.03303279 0.04014127
v -0.00679775 0.03312839 0.04069353
v -0.00607849 0.03341581 0.04154054
v 0.00006917 0.03372606 0.04001358
v -0.00681344 0.03314627 0.04238754
v 0.00017510 0.03372606 0.04151447
v 0.00006394 0.03372606 0.04132878
v -0.00011783 0.03372606 0.04069353
v -0.00707237 0.03245300 0.04323509
v -0.00675721 0.03245300 0.04383097
v -0.00409989 0.03131256 0.04492272
v -0.00409204 0.03131502 0.04492272
v -0.00437582 0.02991121 0.04492272
v -0.00678729 0.03075806 0.04386236
v -0.00710507 0.02991121 0.04323509
v -0.00700960 0.02742554 0.04074779
v -0.00676506 0.02742554 0.03988004
v -0.00710114 0.03245300 0.04069353
v -0.00713776 0.03245300 0.04154054
v -0.00681344 0.03314627 0.04154054
v -0.00713384 0.03245300 0.04238754
v -0.00678729 0.03160553 0.04386236
v -0.00710768 0.03160553 0.04323509
v -0.00430782 0.03075806 0.04492272
v -0.00711161 0.03075806 0.04323509
v -0.00715607 0.02991121 0.04238754
v -0.00702660 0.02742554 0.04069353
v -0.00680429 0.02742554 0.03996197
v -0.00710768 0.03160553 0.04069353
v -0.00714953 0.03160553 0.04154054
v -0.00714299 0.03160553 0.04238754
v -0.00707891 0.02821688 0.04069353
v -0.00715607 0.02991121 0.04154054
v -0.00710768 0.02906435 0.04069353
f 1 2 12
f 1 12 3
f 1 3 13
f 1 13 22
f 1 22 43
f 1 43 48
f 1 48 24
f 1 24 14
f 1 14 4
f 1 4 15
f 1 15 31
f 1 31 57
f 1 57 61
f 1 61 60
f 1 60 59
f 1 59 36
f 1 36 32
f 1 32 16
f 1 16 5
f 1 5 6
f 1 6 7
f 1 7 8
f 1 8 9
f 1 9 10
f 1 10 11
f 1 11 2
f 2 11 10
f 2 10 9
f 2 9 20
f 2 20 19
f 2 19 39
f 2 39 38
f 2 38 37
f 2 37 65
f 2 65 64
f 2 64 77
f 2 77 66
f 2 66 44
f 2 44 23
f 2 23 12
f 3 12 13
f 4 14 25
f 4 25 49
f 4 49 53
f 4 53 50
f 4 50 26
f 4 26 15
f 5 16 17
f 5 17 6
f 6 17 18
f 6 18 7
f 7 19 20
f 7 20 8
f 7 18 19
f 8 20 9
f 12 21 22
f 12 22 13
f 12 23 47
f 12 47 69
f 12 69 80
f 12 80 81
f 12 81 70
f 12 70 51
f 12 51 27
f 12 27 49
f 12 49 25
f 12 25 42
f 12 42 41
f 12 41 40
f 12 40 21
f 14 24 25
f 15 26 27
f 15 27 28
f 15 28 29
f 15 29 30
f 15 30 31
f 16 32 17
f 17 33 34
f 17 34 35
f 17 35 18
f 17 32 36
f 17 36 33
f 18 35 37
f 18 37 38
f 18 38 39
f 18 39 19
f 21 40 22
f 22 40 41
f 22 41 42
f 22 42 25
f 22 25 43
f 23 44 45
f 23 45 46
f 23 46 47
f 24 48 25
f 25 48 43
f 26 50 27
f 27 51 52
f 27 52 28
f 27 50 53
f 27 53 49
f 28 52 54
f 28 54 29
f 29 54 30
f 30 54 55
f 30 55 56
f 30 56 31
f 31 56 57
f 33 56 73
f 33 73 58
f 33 58 34
f 33 36 59
f 33 59 60
f 33 60 61
f 33 61 56
f 34 58 62
f 34 62 35
f 35 62 63
f 35 63 64
f 35 64 65
f 35 65 37
f 44 66 67
f 44 67 45
f 45 67 68
f 45 68 46
f 46 68 69
f 46 69 47
f 51 70 52
f 52 70 71
f 52 71 54
f 54 71 55
f 55 71 72
f 55 72 73
f 55 73 56
f 56 61 57
f 58 73 72
f 58 72 74
f 58 74 62
f 62 75 63
f 62 74 76
f 62 76 75
f 63 75 77
f 63 77 64
f 66 75 67
f 66 77 75
f 67 75 78
f 67 78 68
f 68 78 79
f 68 79 80
f 68 80 69
f 70 81 71
f 71 81 82
f 71 82 83
f 71 83 72
f 72 83 74
f 74 83 84
f 74 84 76
f 75 76 78
f 76 84 79
f 76 79 78
f 79 85 80
f 79 84 83
f 79 83 86
f 79 86 85
f 80 85 81
f 81 85 87
f 81 87 82
f 82 87 86
f 82 86 83
f 85 86 87

