# https://github.com/mikedh/trimesh
v -0.00395202 0.02742554 0.04395412
v -0.00399227 0.02521740 0.04533137
v -0.00422553 0.02567435 0.04577783
v -0.00417336 0.02742554 0.04464165
v 0.00327616 0.02742554 0.04395412
v 0.00063574 0.02393137 0.04395412
v -0.00084209 0.02393137 0.04582007
v -0.00407648 0.02513463 0.04577783
v -0.00409213 0.02512402 0.04662486
v -0.00421808 0.02567435 0.04662486
v -0.00428664 0.02652155 0.04577783
v -0.00433583 0.02736876 0.04577783
v -0.00433657 0.02742554 0.04577783
v 0.00327616 0.02742554 0.04402623
v 0.00327541 0.02393137 0.04395412
v -0.00104629 0.02393137 0.04662486
v -0.00401313 0.02520303 0.04708879
v -0.00077577 0.02393137 0.04720496
v -0.00427770 0.02742554 0.04668130
v -0.00428291 0.02742554 0.04662486
v -0.00433657 0.02742554 0.04583391
v -0.00407275 0.02742554 0.04738922
v 0.00327541 0.02393137 0.04577783
v 0.00327541 0.02742554 0.04577783
v -0.00353692 0.02742554 0.04765105
v -0.00406977 0.02742554 0.04739687
v -0.00014827 0.02393137 0.04736118
v 0.00327467 0.02393137 0.04582553
v 0.00319269 0.02742554 0.04662486
v 0.00322995 0.02393137 0.04662486
v -0.00334092 0.02742554 0.04765979
v 0.00149874 0.02393137 0.04736118
v -0.00268957 0.02742554 0.04767399
v 0.00299446 0.02742554 0.04724975
v 0.00321654 0.02393137 0.04665982
v 0.00294601 0.02742554 0.04739906
v 0.00239453 0.02393137 0.04736082
v 0.00154718 0.02742554 0.04767399
v 0.00300042 0.02393137 0.04720460
v 0.00249514 0.02742554 0.04763284
v 0.00239453 0.02742554 0.04765724
v 0.00296464 0.02393137 0.04721588
f 1 2 3
f 1 3 4
f 1 4 13
f 1 13 21
f 1 21 20
f 1 20 19
f 1 19 22
f 1 22 26
f 1 26 25
f 1 25 31
f 1 31 33
f 1 33 38
f 1 38 41
f 1 41 40
f 1 40 36
f 1 36 34
f 1 34 29
f 1 29 24
f 1 24 14
f 1 14 5
f 1 5 15
f 1 15 6
f 1 6 2
f 2 7 8
f 2 8 3
f 2 6 7
f 3 8 9
f 3 9 10
f 3 10 11
f 3 11 4
f 4 11 12
f 4 12 13
f 5 14 23
f 5 23 15
f 6 15 23
f 6 23 28
f 6 28 30
f 6 30 35
f 6 35 39
f 6 39 42
f 6 42 37
f 6 37 32
f 6 32 27
f 6 27 18
f 6 18 16
f 6 16 7
f 7 16 8
f 8 16 9
f 9 17 10
f 9 16 18
f 9 18 17
f 10 19 20
f 10 20 21
f 10 21 12
f 10 12 11
f 10 17 22
f 10 22 19
f 12 21 13
f 14 24 23
f 17 25 26
f 17 26 22
f 17 18 27
f 17 27 25
f 23 24 28
f 24 29 30
f 24 30 28
f 25 27 31
f 27 32 38
f 27 38 33
f 27 33 31
f 29 34 30
f 30 34 36
f 30 36 35
f 32 37 38
f 35 36 39
f 36 40 39
f 37 40 41
f 37 41 38
f 37 42 40
f 39 40 42

