# https://github.com/mikedh/trimesh
v 0.01260152 -0.03628714 0.07447048
v 0.01214187 -0.03661279 0.07760165
v 0.01229987 -0.03664078 0.07447048
v 0.00929177 -0.03628714 0.07447048
v 0.01219453 -0.03628714 0.08092722
v 0.01221010 -0.03667936 0.07543783
v 0.01212271 -0.03659237 0.07816633
v 0.01155892 -0.03685637 0.08221625
v 0.01158765 -0.03688209 0.08136924
v 0.01223643 -0.03670546 0.07459082
v 0.01224002 -0.03670886 0.07447048
v 0.00148244 -0.03804701 0.07447048
v 0.00173979 -0.03650689 0.07736560
v 0.00239576 -0.03630113 0.07797887
v 0.00409073 -0.03628714 0.08307020
v 0.01216581 -0.03628714 0.08136924
v 0.01108131 -0.03727997 0.08221625
v 0.01201139 -0.03647285 0.08136924
v 0.01198266 -0.03643918 0.08221625
v 0.01152540 -0.03682649 0.08306326
v 0.01105138 -0.03725010 0.08306326
v 0.01175284 -0.03713247 0.07447048
v 0.01217179 -0.03676824 0.07447048
v 0.00098927 -0.03818468 0.07447048
v 0.00162368 -0.03645545 0.07797887
v 0.00089949 -0.03825125 0.07447048
v 0.00382380 -0.03628714 0.08378530
v 0.00037520 -0.03628714 0.09651827
v 0.00049490 -0.03628714 0.09567126
v 0.01214306 -0.03628714 0.08171406
v 0.01053068 -0.03752658 0.08560662
v 0.01056300 -0.03755041 0.08475960
v 0.01059532 -0.03757385 0.08391259
v 0.01062764 -0.03759579 0.08306326
v 0.01110645 -0.03730569 0.08136924
v 0.01210835 -0.03628714 0.08221625
v 0.01208680 -0.03628714 0.08249396
v 0.01194915 -0.03639834 0.08306326
v 0.01134824 -0.03666612 0.08729833
v 0.01138415 -0.03670054 0.08645131
v 0.01092091 -0.03712453 0.08645131
v 0.01095443 -0.03715592 0.08560662
v 0.01101907 -0.03721870 0.08391259
v 0.01049717 -0.03749972 0.08645131
v 0.01126924 -0.03744034 0.07628484
v 0.01132909 -0.03748686 0.07447048
v 0.00122268 -0.03703375 0.07797887
v 0.00064453 -0.03866238 0.07447048
v 0.00037280 -0.03628714 0.09662010
v 0.01002075 -0.03792976 0.08475960
v 0.01002075 -0.03800919 0.08306326
v 0.01065757 -0.03761395 0.08221625
v 0.01002075 -0.03797023 0.08391259
v 0.01204132 -0.03628714 0.08306326
v 0.01202456 -0.03628714 0.08326460
v 0.01167623 -0.03628714 0.08725898
v 0.01131712 -0.03663473 0.08783060
v 0.01046844 -0.03747552 0.08695582
v 0.01002075 -0.03787303 0.08560662
v 0.01086824 -0.03778755 0.07447048
v 0.00994414 -0.03809051 0.08228336
v 0.00045420 -0.03872819 0.08645131
v 0.00080732 -0.03965257 0.07447048
v 0.00070557 -0.03957541 0.07543783
v 0.00067565 -0.03957541 0.07628484
v 0.00064812 -0.03957541 0.07713186
v 0.00062178 -0.03957541 0.07797887
v 0.00059784 -0.03957541 0.07882820
v 0.00055475 -0.03957541 0.08052222
v 0.00041709 -0.03703375 0.09662010
v 0.00044343 -0.03628714 0.09736760
v 0.00950604 -0.03825995 0.08475960
v 0.00954674 -0.03827735 0.08391259
v 0.00957786 -0.03829437 0.08306326
v 0.00959462 -0.03830307 0.08261198
v 0.01165588 -0.03628714 0.08744412
v 0.01157328 -0.03628714 0.08809443
v 0.01142964 -0.03628714 0.08872853
v 0.01123932 -0.03656703 0.08839528
v 0.00960659 -0.03746303 0.08944363
v 0.00940908 -0.03822705 0.08560662
v 0.01040859 -0.03658404 0.09100343
v 0.00974544 -0.03670546 0.09238272
v 0.01023023 -0.03818166 0.07447048
v 0.00961137 -0.03831328 0.08204731
v 0.00047215 -0.03872819 0.08729833
v 0.00057151 -0.03957541 0.08136924
v 0.00158299 -0.03998843 0.07447048
v 0.00110418 -0.04000545 0.07477364
v 0.00107785 -0.04001377 0.07543783
v 0.00104553 -0.04002474 0.07628484
v 0.00101560 -0.04003571 0.07713186
v 0.00098807 -0.04004668 0.07797887
v 0.00096293 -0.04005727 0.07882820
v 0.00093899 -0.04006824 0.07967521
v 0.00091744 -0.04007921 0.08052222
v 0.00047694 -0.03788097 0.09238272
v 0.00077380 -0.03853832 0.09153571
v 0.00082049 -0.03846117 0.09238272
v 0.00079535 -0.03764912 0.09662010
v 0.00092104 -0.03755759 0.09721949
v 0.00073909 -0.03704623 0.09748794
v 0.00048173 -0.03628714 0.09746943
v 0.00908229 -0.03845776 0.08475960
v 0.00912299 -0.03849369 0.08391259
v 0.00915411 -0.03850807 0.08306326
v 0.01126206 -0.03628714 0.08930478
v 0.01114355 -0.03648684 0.08899467
v 0.01047442 -0.03628714 0.09190367
v 0.00915292 -0.03818620 0.08651611
v 0.00917327 -0.03705418 0.09238272
v 0.00870523 -0.03743921 0.09186201
v 0.00885725 -0.03834392 0.08628006
v 0.00898533 -0.03839725 0.08560662
v 0.01031881 -0.03651899 0.09153571
v 0.00964369 -0.03664002 0.09292888
v 0.00986514 -0.03838514 0.07447048
v 0.00962813 -0.03832349 0.08136924
v 0.00078817 -0.03934545 0.08645131
v 0.00054757 -0.03872819 0.08814534
v 0.00093540 -0.04007088 0.08136924
v 0.00239576 -0.03995893 0.07447048
v 0.00158538 -0.03999032 0.07453065
v 0.00132802 -0.04000545 0.07477364
v 0.00154827 -0.04015107 0.08052222
v 0.00083126 -0.03929326 0.08729833
v 0.00093061 -0.03838401 0.09322973
v 0.00090787 -0.03923993 0.08814534
v 0.00103834 -0.03918281 0.08899467
v 0.00104433 -0.03833181 0.09380366
v 0.00154827 -0.03782689 0.09662010
v 0.00154827 -0.03759920 0.09728429
v 0.00154827 -0.03723837 0.09770779
v 0.00093779 -0.03677202 0.09797624
v 0.00084562 -0.03628714 0.09802484
v 0.00832578 -0.03875126 0.08475960
v 0.00832578 -0.03884733 0.08391259
v 0.00832578 -0.03889650 0.08306326
v 0.00980649 -0.03841729 0.07447048
v 0.00925706 -0.03847894 0.08228336
v 0.01025417 -0.03628714 0.09257249
v 0.00862862 -0.03826411 0.08729833
v 0.00873396 -0.03829929 0.08684242
v 0.00921995 -0.03682838 0.09322048
v 0.00899491 -0.03675879 0.09407906
v 0.00885725 -0.03667482 0.09477102
v 0.00874354 -0.03660636 0.09533569
v 0.00821685 -0.03677505 0.09577309
v 0.00747829 -0.03710562 0.09577309
v 0.00783740 -0.03743353 0.09353752
v 0.00798822 -0.03749065 0.09297285
v 0.00814503 -0.03755041 0.09238272
v 0.00838324 -0.03761924 0.09156116
v 0.00832578 -0.03779776 0.09068869
v 0.00832578 -0.03862758 0.08560662
v 0.01016918 -0.03640931 0.09238272
v 0.00953357 -0.03657005 0.09349587
v 0.00154827 -0.04013480 0.08136924
v 0.00103475 -0.04003079 0.08221625
v 0.00324205 -0.03992149 0.07447048
v 0.00239576 -0.03996233 0.07459082
v 0.00189301 -0.03999675 0.07509532
v 0.00158538 -0.04001453 0.07540080
v 0.00154827 -0.04003949 0.07628484
v 0.00154827 -0.04008488 0.07797887
v 0.00154827 -0.04010719 0.07882820
v 0.00239576 -0.04005575 0.07797887
v 0.00307686 -0.04001718 0.07797887
v 0.00350061 -0.03998540 0.07797887
v 0.00287696 -0.04001566 0.08196400
v 0.00112213 -0.03915256 0.08942049
v 0.00111256 -0.04000280 0.08266984
v 0.00154827 -0.03798952 0.09577309
v 0.00239576 -0.03779474 0.09662010
v 0.00239576 -0.03796342 0.09577309
v 0.00239576 -0.03757991 0.09724032
v 0.00324205 -0.03708254 0.09761985
v 0.00404405 -0.03695433 0.09762217
v 0.00373043 -0.03661884 0.09789525
v 0.00154827 -0.03681476 0.09799476
v 0.00324205 -0.03755608 0.09719634
v 0.00408954 -0.03752166 0.09714080
v 0.00154827 -0.03628714 0.09811278
v 0.00144293 -0.03628714 0.09810584
v 0.00760637 -0.03908183 0.08391259
v 0.00777395 -0.03911663 0.08306326
v 0.00781824 -0.03912343 0.08221625
v 0.00832578 -0.03891163 0.08221625
v 0.00917327 -0.03869377 0.07447048
v 0.00997646 -0.03628714 0.09332693
v 0.00759440 -0.03820965 0.08984168
v 0.00941865 -0.03649554 0.09407906
v 0.00969876 -0.03628714 0.09405592
v 0.00927860 -0.03628714 0.09498624
v 0.00864059 -0.03651899 0.09577309
v 0.00804568 -0.03668881 0.09634239
v 0.00663080 -0.03714306 0.09662010
v 0.00616277 -0.03744715 0.09614105
v 0.00663918 -0.03737680 0.09582400
v 0.00692766 -0.03742332 0.09517832
v 0.00711679 -0.03747930 0.09461365
v 0.00743041 -0.03730343 0.09490756
v 0.00768897 -0.03737869 0.09407906
v 0.00726522 -0.03753149 0.09407906
v 0.00747829 -0.03794641 0.09153571
v 0.00752497 -0.03760109 0.09324593
v 0.00739809 -0.03814346 0.09061001
v 0.00717066 -0.03833900 0.08984168
v 0.00996449 -0.03632723 0.09322048
v 0.00239576 -0.04003684 0.08212599
v 0.00158897 -0.04004479 0.08229493
v 0.00397103 -0.03985794 0.07447048
v 0.00208334 -0.04000507 0.07566000
v 0.00408954 -0.03989160 0.07628484
v 0.00408954 -0.03991127 0.07713186
v 0.00408954 -0.03991316 0.07797887
v 0.00578451 -0.03966467 0.08221625
v 0.00408954 -0.03987118 0.07543783
v 0.00408954 -0.03980613 0.08306326
v 0.00324205 -0.03988291 0.08306326
v 0.00154827 -0.03973994 0.08475960
v 0.00114129 -0.03915256 0.08942049
v 0.00133520 -0.04000280 0.08266984
v 0.00324205 -0.03775238 0.09662010
v 0.00324205 -0.03792333 0.09577309
v 0.00239576 -0.03811509 0.09492607
v 0.00292005 -0.03831139 0.09369490
v 0.00468206 -0.03748611 0.09708757
v 0.00495378 -0.03710410 0.09736760
v 0.00578451 -0.03693768 0.09733983
v 0.00429542 -0.03646642 0.09787673
v 0.00408954 -0.03768808 0.09662010
v 0.00440794 -0.03628714 0.09788599
v 0.00706173 -0.03830610 0.09027444
v 0.00739450 -0.03902396 0.08467629
v 0.00705694 -0.03915218 0.08433841
v 0.00718263 -0.03918093 0.08391259
v 0.00663080 -0.03940975 0.08306326
v 0.00735021 -0.03923766 0.08306326
v 0.00739450 -0.03926300 0.08221625
v 0.00792119 -0.03915823 0.07447048
v 0.00797984 -0.03913743 0.07447048
v 0.00834373 -0.03900429 0.07447048
v 0.00889316 -0.03628714 0.09574069
v 0.00872917 -0.03628714 0.09599062
v 0.00825037 -0.03628714 0.09656456
v 0.00808877 -0.03628714 0.09672887
v 0.00774283 -0.03644902 0.09690706
v 0.00717784 -0.03667784 0.09710840
v 0.00746752 -0.03681325 0.09662241
v 0.00524586 -0.03743353 0.09696955
v 0.00584197 -0.03737453 0.09665944
v 0.00559778 -0.03750993 0.09640487
v 0.00584197 -0.03757499 0.09582400
v 0.00627529 -0.03831933 0.09119551
v 0.00683908 -0.03825579 0.09084143
v 0.00239576 -0.03999032 0.08254950
v 0.00189900 -0.03999789 0.08263050
v 0.00158897 -0.03995817 0.08299846
v 0.00408954 -0.03984735 0.07447048
v 0.00408954 -0.03985038 0.07459082
v 0.00493703 -0.03978722 0.07628484
v 0.00493703 -0.03980613 0.07713186
v 0.00493703 -0.03980915 0.07797887
v 0.00663080 -0.03949182 0.08136924
v 0.00663080 -0.03947896 0.08221625
v 0.00578451 -0.03956520 0.08306326
v 0.00493703 -0.03969682 0.08306326
v 0.00578451 -0.03968396 0.07797887
v 0.00447139 -0.03914689 0.08768480
v 0.00414939 -0.03911814 0.08818931
v 0.00390639 -0.03918017 0.08793474
v 0.00355687 -0.03914235 0.08849942
v 0.00324205 -0.03955045 0.08560662
v 0.00324205 -0.03977209 0.08391259
v 0.00239576 -0.03992792 0.08306326
v 0.00299187 -0.03916655 0.08867299
v 0.00239576 -0.03938290 0.08729833
v 0.00239576 -0.03949296 0.08645131
v 0.00239576 -0.03960264 0.08560662
v 0.00239576 -0.03971233 0.08475960
v 0.00239576 -0.03982088 0.08391259
v 0.00154827 -0.03984584 0.08391259
v 0.00154827 -0.03963290 0.08560662
v 0.00154827 -0.03941845 0.08729833
v 0.00154827 -0.03931028 0.08814534
v 0.00147286 -0.03919379 0.08902938
v 0.00170508 -0.03914008 0.08933718
v 0.00239576 -0.03902094 0.08984168
v 0.00147286 -0.03907767 0.08975837
v 0.00239576 -0.03872025 0.09153571
v 0.00239576 -0.03856934 0.09238272
v 0.00408954 -0.03786206 0.09577309
v 0.00324205 -0.03852017 0.09238272
v 0.00239576 -0.03887078 0.09068869
v 0.00324205 -0.03866919 0.09153571
v 0.00495378 -0.03756553 0.09665944
v 0.00578451 -0.03628714 0.09766845
v 0.00663080 -0.03679434 0.09721717
v 0.00470241 -0.03628714 0.09785359
v 0.00493703 -0.03775843 0.09577309
v 0.00658651 -0.03835375 0.09061001
v 0.00663080 -0.03846911 0.08984168
v 0.00663080 -0.03859127 0.08899467
v 0.00629803 -0.03916996 0.08531271
v 0.00659968 -0.03919719 0.08467629
v 0.00663080 -0.03929590 0.08391259
v 0.00578451 -0.03876488 0.08899467
v 0.00747829 -0.03927019 0.07447048
v 0.00781465 -0.03628714 0.09696260
v 0.00740288 -0.03628714 0.09719172
v 0.00663080 -0.03628714 0.09746943
v 0.00578451 -0.03774746 0.09492607
v 0.00578451 -0.03805193 0.09322973
v 0.00601913 -0.03826865 0.09176019
v 0.00578451 -0.03850088 0.09068869
v 0.00578451 -0.03864158 0.08984168
v 0.00493703 -0.03974183 0.07447048
v 0.00493703 -0.03976641 0.07543783
v 0.00578451 -0.03963404 0.07447048
v 0.00578451 -0.03967564 0.07713186
v 0.00578451 -0.03963668 0.07459082
v 0.00578451 -0.03965219 0.07543783
v 0.00578451 -0.03966543 0.07628484
v 0.00663080 -0.03948880 0.07967521
v 0.00493703 -0.03890671 0.08899467
v 0.00663080 -0.03948539 0.07797887
v 0.00663080 -0.03947745 0.07447048
v 0.00663080 -0.03947821 0.07459082
v 0.00663080 -0.03948010 0.07543783
v 0.00408954 -0.03901715 0.08899467
v 0.00326120 -0.03910150 0.08897152
v 0.00326120 -0.03920853 0.08818931
v 0.00324205 -0.03932805 0.08729833
v 0.00324205 -0.03943963 0.08645131
v 0.00239576 -0.03918433 0.08879796
v 0.00239576 -0.03927208 0.08814534
v 0.00239576 -0.03912381 0.08922378
v 0.00324205 -0.03896571 0.08984168
v 0.00408954 -0.03888591 0.08984168
v 0.00458151 -0.03831404 0.09286408
v 0.00651709 -0.03628714 0.09749720
v 0.00493703 -0.03790594 0.09492607
v 0.00514650 -0.03827281 0.09262571
v 0.00545414 -0.03832160 0.09206104
v 0.00575578 -0.03821305 0.09235957
v 0.00493703 -0.03878001 0.08984168
v 0.00493703 -0.03863628 0.09068869
v 0.00489274 -0.03835564 0.09235957
v 0.00489274 -0.03821419 0.09318113
f 1 2 3
f 1 3 11
f 1 11 23
f 1 23 22
f 1 22 46
f 1 46 60
f 1 60 84
f 1 84 117
f 1 117 139
f 1 139 189
f 1 189 243
f 1 243 242
f 1 242 241
f 1 241 309
f 1 309 328
f 1 328 320
f 1 320 318
f 1 318 260
f 1 260 212
f 1 212 160
f 1 160 122
f 1 122 88
f 1 88 63
f 1 63 48
f 1 48 26
f 1 26 24
f 1 24 12
f 1 12 4
f 1 4 15
f 1 15 27
f 1 27 29
f 1 29 28
f 1 28 49
f 1 49 71
f 1 71 103
f 1 103 135
f 1 135 184
f 1 184 183
f 1 183 233
f 1 233 300
f 1 300 298
f 1 298 342
f 1 342 312
f 1 312 311
f 1 311 310
f 1 310 247
f 1 247 246
f 1 246 245
f 1 245 244
f 1 244 194
f 1 194 193
f 1 193 190
f 1 190 141
f 1 141 109
f 1 109 107
f 1 107 78
f 1 78 77
f 1 77 76
f 1 76 56
f 1 56 55
f 1 55 54
f 1 54 37
f 1 37 36
f 1 36 30
f 1 30 16
f 1 16 5
f 1 5 2
f 2 6 3
f 2 5 7
f 2 7 8
f 2 8 9
f 2 9 6
f 3 10 11
f 3 6 10
f 4 12 13
f 4 13 14
f 4 14 15
f 5 16 7
f 6 9 17
f 6 17 10
f 7 16 18
f 7 18 8
f 8 17 9
f 8 18 19
f 8 19 20
f 8 20 21
f 8 21 17
f 10 22 23
f 10 23 11
f 10 17 22
f 12 24 13
f 13 25 14
f 13 24 26
f 13 26 25
f 14 27 15
f 14 25 28
f 14 28 29
f 14 29 27
f 16 30 18
f 17 21 31
f 17 31 32
f 17 32 33
f 17 33 34
f 17 34 35
f 17 35 22
f 18 30 19
f 19 30 36
f 19 36 37
f 19 37 38
f 19 38 39
f 19 39 40
f 19 40 20
f 20 40 41
f 20 41 42
f 20 42 43
f 20 43 21
f 21 43 44
f 21 44 31
f 22 45 46
f 22 35 45
f 25 26 47
f 25 47 28
f 26 48 47
f 28 47 48
f 28 48 49
f 31 44 50
f 31 50 32
f 32 50 33
f 33 50 34
f 34 51 52
f 34 52 46
f 34 46 45
f 34 45 35
f 34 50 53
f 34 53 51
f 37 54 38
f 38 54 55
f 38 55 56
f 38 56 39
f 39 56 57
f 39 57 58
f 39 58 44
f 39 44 41
f 39 41 40
f 41 44 42
f 42 44 43
f 44 58 59
f 44 59 50
f 46 52 51
f 46 51 61
f 46 61 60
f 48 62 49
f 48 63 64
f 48 64 65
f 48 65 66
f 48 66 67
f 48 67 68
f 48 68 69
f 48 69 62
f 49 70 71
f 49 62 70
f 50 72 73
f 50 73 53
f 50 59 72
f 51 74 75
f 51 75 61
f 51 53 73
f 51 73 74
f 56 76 57
f 57 76 77
f 57 77 78
f 57 78 79
f 57 79 58
f 58 80 81
f 58 81 72
f 58 72 59
f 58 79 82
f 58 82 83
f 58 83 80
f 60 61 75
f 60 75 85
f 60 85 84
f 62 86 70
f 62 69 87
f 62 87 86
f 63 88 89
f 63 89 90
f 63 90 91
f 63 91 92
f 63 92 93
f 63 93 64
f 64 93 94
f 64 94 95
f 64 95 96
f 64 96 65
f 65 96 66
f 66 96 67
f 67 96 68
f 68 96 69
f 69 96 87
f 70 97 98
f 70 98 99
f 70 99 100
f 70 100 101
f 70 101 102
f 70 102 71
f 70 86 97
f 71 102 103
f 72 104 105
f 72 105 73
f 72 81 104
f 73 105 74
f 74 105 75
f 75 105 106
f 75 106 85
f 78 107 79
f 79 107 108
f 79 108 109
f 79 109 82
f 80 110 81
f 80 83 111
f 80 111 112
f 80 112 110
f 81 113 114
f 81 114 104
f 81 110 113
f 82 109 115
f 82 115 83
f 83 115 116
f 83 116 111
f 84 85 118
f 84 118 117
f 85 106 118
f 86 119 120
f 86 120 97
f 86 87 119
f 87 96 121
f 87 121 119
f 88 122 123
f 88 123 124
f 88 124 89
f 89 91 90
f 89 124 125
f 89 125 91
f 91 125 92
f 92 125 93
f 93 125 95
f 93 95 94
f 95 125 96
f 96 125 121
f 97 120 98
f 98 120 126
f 98 126 99
f 99 127 100
f 99 126 128
f 99 128 129
f 99 129 127
f 100 130 101
f 100 127 130
f 101 130 131
f 101 131 132
f 101 132 133
f 101 133 134
f 101 134 102
f 102 134 103
f 103 134 135
f 104 136 137
f 104 137 105
f 104 114 136
f 105 137 138
f 105 138 106
f 106 138 139
f 106 139 140
f 106 140 118
f 107 109 108
f 109 141 115
f 110 112 142
f 110 142 143
f 110 143 113
f 111 116 144
f 111 144 145
f 111 145 112
f 112 145 146
f 112 146 147
f 112 147 148
f 112 148 149
f 112 149 150
f 112 150 151
f 112 151 152
f 112 152 153
f 112 153 154
f 112 154 142
f 113 155 136
f 113 136 114
f 113 143 155
f 115 141 156
f 115 156 116
f 116 156 157
f 116 157 145
f 116 145 144
f 117 118 139
f 118 140 139
f 119 126 120
f 119 121 126
f 121 125 158
f 121 158 159
f 121 159 128
f 121 128 126
f 122 160 161
f 122 161 162
f 122 162 123
f 123 162 124
f 124 162 163
f 124 163 164
f 124 164 165
f 124 165 166
f 124 166 125
f 125 166 167
f 125 167 168
f 125 168 169
f 125 169 170
f 125 170 158
f 127 129 171
f 127 171 130
f 128 159 129
f 129 159 172
f 129 172 171
f 130 173 131
f 130 171 173
f 131 174 132
f 131 173 175
f 131 175 174
f 132 174 176
f 132 176 133
f 133 177 178
f 133 178 179
f 133 179 180
f 133 180 134
f 133 176 181
f 133 181 182
f 133 182 177
f 134 180 183
f 134 183 184
f 134 184 135
f 136 155 185
f 136 185 137
f 137 185 186
f 137 186 138
f 138 186 187
f 138 187 188
f 138 188 189
f 138 189 139
f 141 190 156
f 142 155 143
f 142 154 191
f 142 191 155
f 145 157 146
f 146 157 147
f 147 157 192
f 147 192 193
f 147 193 194
f 147 194 195
f 147 195 196
f 147 196 148
f 148 196 149
f 149 196 197
f 149 197 198
f 149 198 199
f 149 199 200
f 149 200 201
f 149 201 202
f 149 202 203
f 149 203 150
f 150 203 201
f 150 201 204
f 150 204 151
f 151 204 152
f 152 205 153
f 152 204 206
f 152 206 205
f 153 205 207
f 153 207 154
f 154 207 191
f 155 191 208
f 155 208 185
f 156 190 209
f 156 209 192
f 156 192 157
f 158 170 210
f 158 210 211
f 158 211 172
f 158 172 159
f 160 212 169
f 160 169 168
f 160 168 167
f 160 167 161
f 161 167 213
f 161 213 162
f 162 213 167
f 162 167 165
f 162 165 164
f 162 164 163
f 165 167 166
f 169 214 215
f 169 215 216
f 169 216 217
f 169 217 170
f 169 212 218
f 169 218 214
f 170 217 219
f 170 219 220
f 170 220 210
f 171 221 222
f 171 222 173
f 171 172 221
f 172 211 223
f 172 223 221
f 173 222 175
f 174 224 181
f 174 181 176
f 174 175 225
f 174 225 224
f 175 226 227
f 175 227 225
f 175 222 226
f 177 182 178
f 178 182 228
f 178 228 229
f 178 229 230
f 178 230 179
f 179 183 180
f 179 230 231
f 179 231 183
f 181 224 182
f 182 224 232
f 182 232 228
f 183 231 233
f 185 208 234
f 185 234 235
f 185 235 236
f 185 236 237
f 185 237 238
f 185 238 239
f 185 239 186
f 186 239 240
f 186 240 187
f 187 240 241
f 187 241 242
f 187 242 243
f 187 243 189
f 187 189 188
f 190 193 192
f 190 192 209
f 191 207 234
f 191 234 208
f 194 244 195
f 195 244 245
f 195 245 196
f 196 245 246
f 196 246 247
f 196 247 248
f 196 248 249
f 196 249 250
f 196 250 197
f 197 250 249
f 197 249 251
f 197 251 252
f 197 252 198
f 198 201 200
f 198 200 199
f 198 252 251
f 198 251 253
f 198 253 254
f 198 254 255
f 198 255 256
f 198 256 234
f 198 234 201
f 201 203 202
f 201 234 207
f 201 207 205
f 201 205 204
f 204 205 206
f 210 220 257
f 210 257 258
f 210 258 211
f 211 258 259
f 211 259 223
f 212 260 261
f 212 261 218
f 214 262 215
f 214 218 262
f 215 263 264
f 215 264 216
f 215 262 263
f 216 264 217
f 217 265 266
f 217 266 238
f 217 238 267
f 217 267 268
f 217 268 219
f 217 264 269
f 217 269 265
f 218 261 319
f 218 319 262
f 219 268 270
f 219 270 271
f 219 271 272
f 219 272 273
f 219 273 274
f 219 274 275
f 219 275 220
f 220 276 257
f 220 275 277
f 220 277 278
f 220 278 279
f 220 279 280
f 220 280 281
f 220 281 282
f 220 282 276
f 221 283 258
f 221 258 282
f 221 282 284
f 221 284 222
f 221 223 283
f 222 284 285
f 222 285 286
f 222 286 287
f 222 287 288
f 222 288 289
f 222 289 290
f 222 290 291
f 222 291 292
f 222 292 226
f 223 259 283
f 224 225 293
f 224 293 232
f 225 227 294
f 225 294 293
f 226 292 227
f 227 292 291
f 227 291 295
f 227 295 289
f 227 289 296
f 227 296 294
f 228 232 297
f 228 297 251
f 228 251 230
f 228 230 229
f 230 298 231
f 230 251 299
f 230 299 298
f 231 298 300
f 231 300 233
f 232 293 301
f 232 301 297
f 234 256 302
f 234 302 303
f 234 303 304
f 234 304 235
f 235 304 236
f 236 305 306
f 236 306 307
f 236 307 238
f 236 238 237
f 236 304 308
f 236 308 305
f 238 266 239
f 238 307 305
f 238 305 267
f 239 266 240
f 240 266 265
f 240 265 241
f 241 265 309
f 247 310 248
f 248 310 249
f 249 299 251
f 249 310 311
f 249 311 312
f 249 312 299
f 251 297 253
f 253 297 301
f 253 301 254
f 254 301 313
f 254 313 314
f 254 314 255
f 255 314 315
f 255 315 316
f 255 316 317
f 255 317 302
f 255 302 256
f 257 276 258
f 258 276 282
f 258 283 259
f 260 318 319
f 260 319 261
f 262 319 320
f 262 320 263
f 263 321 269
f 263 269 264
f 263 320 322
f 263 322 323
f 263 323 324
f 263 324 321
f 265 325 309
f 265 269 325
f 267 305 308
f 267 308 326
f 267 326 268
f 268 326 270
f 269 327 325
f 269 321 328
f 269 328 329
f 269 329 330
f 269 330 327
f 270 326 331
f 270 331 271
f 271 331 272
f 272 331 273
f 273 331 332
f 273 332 277
f 273 277 333
f 273 333 334
f 273 334 335
f 273 335 274
f 274 335 277
f 274 277 275
f 277 336 337
f 277 337 278
f 277 335 334
f 277 334 333
f 277 332 338
f 277 338 336
f 278 337 286
f 278 286 279
f 279 286 280
f 280 286 281
f 281 286 282
f 282 286 285
f 282 285 284
f 286 337 336
f 286 336 287
f 287 336 288
f 288 336 338
f 288 338 289
f 289 295 290
f 289 338 339
f 289 339 296
f 290 295 291
f 293 294 296
f 293 296 339
f 293 339 340
f 293 340 341
f 293 341 301
f 298 299 342
f 299 312 342
f 301 341 343
f 301 343 344
f 301 344 345
f 301 345 346
f 301 346 314
f 301 314 313
f 302 317 303
f 303 317 308
f 303 308 304
f 305 307 306
f 308 317 326
f 309 329 328
f 309 325 327
f 309 327 330
f 309 330 329
f 314 346 315
f 315 346 316
f 316 347 317
f 316 346 345
f 316 345 347
f 317 347 326
f 318 320 319
f 320 328 322
f 321 324 328
f 322 328 323
f 323 328 324
f 326 347 331
f 331 347 340
f 331 340 332
f 332 340 339
f 332 339 338
f 340 347 341
f 341 347 348
f 341 348 349
f 341 349 350
f 341 350 343
f 343 350 344
f 344 350 349
f 344 349 348
f 344 348 345
f 345 348 347

