# https://github.com/mikedh/trimesh
v -0.00184356 -0.03304950 0.04797675
v 0.00070028 -0.03307730 0.04600632
v 0.00154702 -0.03308966 0.04600632
v -0.00184201 -0.03304950 0.04797752
v -0.00184356 -0.03258096 0.04797752
v -0.00184356 -0.03296712 0.04662377
v -0.00184356 -0.03292902 0.04600632
v 0.00239428 -0.03307730 0.04600632
v 0.00154702 -0.03304950 0.04797752
v -0.00184356 -0.02634579 0.04797752
v -0.00184356 -0.02902418 0.04600632
v 0.00239428 -0.03302067 0.04797752
v 0.00320891 -0.03278176 0.04600632
v -0.00094970 -0.02257070 0.04797752
v -0.00098284 -0.02257070 0.04753238
v -0.00184356 -0.02626443 0.04747218
v -0.00184356 -0.02686478 0.04674861
v -0.00184305 -0.02854740 0.04600632
v 0.00304682 -0.03268188 0.04797752
v 0.00344714 -0.03194869 0.04600632
v 0.00327572 -0.03194869 0.04797752
v 0.00313952 -0.03239251 0.04797752
v 0.00317422 -0.02257070 0.04797752
v -0.00097870 -0.02257070 0.04747198
v -0.00184356 -0.02635608 0.04697340
v -0.00072856 -0.02257070 0.04699944
v -0.00070008 -0.02257070 0.04696761
v 0.00068371 -0.02257070 0.04600632
v 0.00344714 -0.02257070 0.04600632
v 0.00327572 -0.02991183 0.04797752
v 0.00327572 -0.02257070 0.04747218
f 1 2 3
f 1 3 4
f 1 4 5
f 1 5 10
f 1 10 16
f 1 16 25
f 1 25 17
f 1 17 11
f 1 11 7
f 1 7 6
f 1 6 2
f 2 6 7
f 2 7 11
f 2 11 18
f 2 18 28
f 2 28 29
f 2 29 20
f 2 20 13
f 2 13 8
f 2 8 3
f 3 8 9
f 3 9 4
f 4 9 12
f 4 12 19
f 4 19 22
f 4 22 21
f 4 21 30
f 4 30 23
f 4 23 14
f 4 14 10
f 4 10 5
f 8 12 9
f 8 13 12
f 10 14 15
f 10 15 16
f 11 17 18
f 12 13 19
f 13 20 21
f 13 21 22
f 13 22 19
f 14 23 31
f 14 31 29
f 14 29 28
f 14 28 27
f 14 27 26
f 14 26 24
f 14 24 15
f 15 24 25
f 15 25 16
f 17 25 26
f 17 26 18
f 18 26 27
f 18 27 28
f 20 29 30
f 20 30 21
f 23 30 31
f 24 26 25
f 29 31 30

