# https://github.com/mikedh/trimesh
v 0.00620376 0.03896851 0.05425463
v 0.00408881 0.03906687 0.05425117
v 0.00408572 0.03906687 0.05425463
v 0.00620376 0.03678971 0.05425463
v 0.00620376 0.03894852 0.05383167
v 0.00408881 0.03897324 0.05255588
v 0.00379923 0.03881386 0.04949330
v 0.00323863 0.03909002 0.05425463
v 0.00620376 0.03890749 0.05298402
v 0.00620376 0.03886593 0.05212601
v 0.00620376 0.03882753 0.05135433
v 0.00620376 0.03879650 0.05073111
v 0.00620376 0.03875705 0.05001294
v 0.00493652 0.03870918 0.04831937
v 0.00154753 0.03690596 0.05425463
v 0.00198129 0.03372667 0.04224255
v 0.00239463 0.03372667 0.04226499
v 0.00620376 0.03372667 0.04180923
v 0.00408881 0.03873916 0.04831937
v 0.00408881 0.03869182 0.04747172
v 0.00324172 0.03875862 0.04831937
v 0.00239153 0.03909528 0.05425463
v 0.00119050 0.03880965 0.04872852
v 0.00620376 0.03870813 0.04916701
v 0.00578362 0.03872548 0.04916701
v 0.00493652 0.03865973 0.04747172
v 0.00088669 0.03701538 0.05425463
v 0.00088793 0.03701380 0.05425117
v 0.00017573 0.03372667 0.04151402
v 0.00131921 0.03372667 0.04210098
v 0.00154753 0.03372667 0.04215623
v 0.00620376 0.03372667 0.03661803
v 0.00408881 0.03863080 0.04662407
v 0.00324172 0.03870813 0.04747172
v 0.00154753 0.03910001 0.05425117
v 0.00154506 0.03910001 0.05425463
v 0.00239463 0.03871286 0.04747172
v 0.00154753 0.03871444 0.04747172
v 0.00112058 0.03880965 0.04872852
v 0.00620376 0.03865657 0.04831937
v 0.00578362 0.03867498 0.04831937
v 0.00620376 0.03860397 0.04747172
v 0.00620376 0.03857346 0.04705221
v 0.00493652 0.03859713 0.04662407
v 0.00620376 0.03863080 0.04789986
v 0.00050986 0.03753772 0.05425463
v -0.00011757 0.03372667 0.04069399
v 0.00006497 0.03372667 0.04132930
v 0.00465808 0.03372667 0.03661803
v 0.00620376 0.03756297 0.03661803
v 0.00620376 0.03818157 0.04238929
v 0.00408881 0.03855716 0.04577642
v 0.00324172 0.03843038 0.04408286
v 0.00324172 0.03850350 0.04493050
v 0.00324172 0.03857504 0.04577642
v 0.00324172 0.03864605 0.04662407
v 0.00084585 0.03893379 0.05340353
v 0.00081986 0.03895588 0.05425463
v 0.00108470 0.03882122 0.04916701
v 0.00102034 0.03884384 0.05001294
v 0.00096465 0.03886646 0.05086058
v 0.00091763 0.03888855 0.05170823
v 0.00087803 0.03891117 0.05255588
v 0.00239463 0.03864658 0.04662407
v 0.00154753 0.03857767 0.04577642
v 0.00154753 0.03850929 0.04493050
v 0.00154753 0.03837200 0.04323693
v 0.00154753 0.03830256 0.04238929
v 0.00111996 0.03796222 0.03856538
v 0.00105438 0.03798537 0.03899870
v 0.00095042 0.03802692 0.03984634
v 0.00088174 0.03806322 0.04069399
v 0.00620376 0.03854137 0.04662407
v 0.00044180 0.03838515 0.05425463
v 0.00006992 0.03372667 0.04001380
v 0.00044180 0.03838515 0.05425117
v 0.00038301 0.03753772 0.04493050
v 0.00038982 0.03753772 0.04408286
v 0.00040219 0.03753772 0.04323693
v 0.00038239 0.03669029 0.03661803
v 0.00074994 0.03590389 0.03661803
v 0.00074685 0.03372667 0.03915407
v 0.00493652 0.03763241 0.03661803
v 0.00620376 0.03776075 0.03815105
v 0.00620376 0.03810793 0.04154164
v 0.00578362 0.03804902 0.04069399
v 0.00493652 0.03807953 0.04069399
v 0.00408881 0.03803429 0.03984634
v 0.00408881 0.03797958 0.03922658
v 0.00324172 0.03813055 0.04069399
v 0.00239463 0.03814580 0.04069399
v 0.00154753 0.03808531 0.03984634
v 0.00154753 0.03815948 0.04069399
v 0.00154753 0.03823155 0.04154164
v 0.00239463 0.03843933 0.04408286
v 0.00239463 0.03850929 0.04493050
v 0.00080130 0.03813213 0.04238929
v 0.00078026 0.03816632 0.04323693
v 0.00049996 0.03838515 0.05255588
v 0.00046778 0.03838515 0.05340353
v 0.00083409 0.03809794 0.04154164
v 0.00122392 0.03796222 0.03856538
v 0.00154753 0.03771920 0.03661803
v 0.00075551 0.03741936 0.03661803
v 0.00067878 0.03604381 0.03661803
v 0.00032609 0.03372667 0.03964436
v 0.00042323 0.03753772 0.04238929
v 0.00045603 0.03753772 0.04154164
v 0.00050305 0.03753772 0.04069399
v 0.00045108 0.03683758 0.03661803
v 0.00408881 0.03767449 0.03661803
v 0.00493652 0.03782651 0.03815105
v 0.00578362 0.03788016 0.03899870
v 0.00620376 0.03785807 0.03899870
v 0.00620376 0.03802692 0.04066982
v 0.00578362 0.03798537 0.04003107
v 0.00468159 0.03796906 0.03934224
v 0.00408881 0.03793960 0.03880189
v 0.00324172 0.03795012 0.03869485
v 0.00324172 0.03798957 0.03911954
v 0.00324172 0.03805533 0.03984634
v 0.00239463 0.03807058 0.03984634
v 0.00239463 0.03799747 0.03905912
v 0.00152278 0.03799641 0.03892791
v 0.00057174 0.03753772 0.03984634
v 0.00178885 0.03795906 0.03859645
v 0.00324172 0.03788700 0.03815105
v 0.00152278 0.03791751 0.03823046
v 0.00324172 0.03778232 0.03730513
v 0.00324172 0.03769710 0.03661803
v 0.00408881 0.03786543 0.03815105
v 0.00495323 0.03792593 0.03903495
v 0.00620376 0.03788963 0.03930599
v 0.00620376 0.03795644 0.03995683
v 0.00620376 0.03797485 0.04013810
v 0.00524653 0.03795591 0.03947517
v 0.00239463 0.03795538 0.03863616
f 1 2 3
f 1 3 8
f 1 8 22
f 1 22 36
f 1 36 58
f 1 58 74
f 1 74 46
f 1 46 27
f 1 27 15
f 1 15 4
f 1 4 18
f 1 18 32
f 1 32 50
f 1 50 84
f 1 84 114
f 1 114 133
f 1 133 134
f 1 134 135
f 1 135 115
f 1 115 85
f 1 85 51
f 1 51 73
f 1 73 43
f 1 43 42
f 1 42 45
f 1 45 40
f 1 40 24
f 1 24 13
f 1 13 12
f 1 12 11
f 1 11 10
f 1 10 9
f 1 9 5
f 1 5 2
f 2 6 7
f 2 7 8
f 2 8 3
f 2 5 9
f 2 9 10
f 2 10 11
f 2 11 12
f 2 12 13
f 2 13 14
f 2 14 6
f 4 15 16
f 4 16 17
f 4 17 18
f 6 14 19
f 6 19 7
f 7 19 20
f 7 20 21
f 7 21 8
f 8 21 23
f 8 23 22
f 13 24 25
f 13 25 14
f 14 25 26
f 14 26 20
f 14 20 19
f 15 27 28
f 15 28 29
f 15 29 30
f 15 30 31
f 15 31 16
f 16 31 30
f 16 30 29
f 16 29 48
f 16 48 47
f 16 47 75
f 16 75 106
f 16 106 82
f 16 82 49
f 16 49 32
f 16 32 18
f 16 18 17
f 20 26 33
f 20 33 34
f 20 34 21
f 21 34 23
f 22 35 36
f 22 23 35
f 23 34 37
f 23 37 38
f 23 38 39
f 23 39 35
f 24 40 41
f 24 41 26
f 24 26 25
f 26 42 43
f 26 43 44
f 26 44 33
f 26 41 45
f 26 45 42
f 27 46 47
f 27 47 48
f 27 48 28
f 28 48 29
f 32 49 81
f 32 81 105
f 32 105 80
f 32 80 110
f 32 110 104
f 32 104 103
f 32 103 130
f 32 130 111
f 32 111 83
f 32 83 50
f 33 44 51
f 33 51 85
f 33 85 52
f 33 52 53
f 33 53 54
f 33 54 55
f 33 55 56
f 33 56 34
f 34 56 37
f 35 39 36
f 36 57 58
f 36 39 59
f 36 59 60
f 36 60 61
f 36 61 62
f 36 62 63
f 36 63 57
f 37 56 38
f 38 56 64
f 38 64 65
f 38 65 39
f 39 65 66
f 39 66 67
f 39 67 68
f 39 68 69
f 39 69 70
f 39 70 71
f 39 71 72
f 39 72 59
f 40 45 41
f 43 73 44
f 44 73 51
f 46 74 47
f 47 74 76
f 47 76 77
f 47 77 78
f 47 78 79
f 47 79 80
f 47 80 75
f 49 82 81
f 50 83 84
f 52 85 86
f 52 86 87
f 52 87 88
f 52 88 53
f 53 88 89
f 53 89 90
f 53 90 91
f 53 91 92
f 53 92 93
f 53 93 54
f 54 93 94
f 54 94 95
f 54 95 55
f 55 95 56
f 56 95 68
f 56 68 96
f 56 96 64
f 57 63 97
f 57 97 98
f 57 98 58
f 58 99 100
f 58 100 76
f 58 76 74
f 58 98 99
f 59 72 101
f 59 101 60
f 60 101 61
f 61 101 97
f 61 97 62
f 62 97 63
f 64 96 67
f 64 67 66
f 64 66 65
f 67 96 68
f 68 94 69
f 68 95 94
f 69 94 93
f 69 93 92
f 69 92 102
f 69 102 103
f 69 103 104
f 69 104 70
f 70 104 71
f 71 104 72
f 72 104 101
f 75 80 105
f 75 105 81
f 75 81 106
f 76 100 107
f 76 107 79
f 76 79 78
f 76 78 77
f 79 107 80
f 80 107 108
f 80 108 109
f 80 109 110
f 81 82 106
f 83 111 112
f 83 112 84
f 84 112 113
f 84 113 114
f 85 115 86
f 86 115 116
f 86 116 117
f 86 117 87
f 87 117 89
f 87 89 88
f 89 117 118
f 89 118 119
f 89 119 120
f 89 120 121
f 89 121 90
f 90 121 122
f 90 122 91
f 91 122 92
f 92 122 120
f 92 120 119
f 92 119 123
f 92 123 124
f 92 124 102
f 97 101 109
f 97 109 108
f 97 108 98
f 98 108 99
f 99 108 107
f 99 107 100
f 101 104 125
f 101 125 109
f 102 126 127
f 102 127 128
f 102 128 103
f 102 124 126
f 103 129 130
f 103 128 127
f 103 127 129
f 104 110 109
f 104 109 125
f 111 130 131
f 111 131 112
f 112 131 118
f 112 118 132
f 112 132 113
f 113 133 114
f 113 132 116
f 113 116 134
f 113 134 133
f 115 135 116
f 116 135 134
f 116 132 136
f 116 136 117
f 117 136 132
f 117 132 118
f 118 131 119
f 119 131 127
f 119 127 137
f 119 137 124
f 119 124 123
f 120 122 121
f 124 137 126
f 126 137 127
f 127 131 129
f 129 131 130

