# https://github.com/mikedh/trimesh
v 0.00823393 0.02152417 0.05919296
v 0.00823393 0.02784205 0.05919296
v 0.01187605 0.02152417 0.05919296
v 0.00823393 0.02152417 0.06103129
v 0.01214726 0.02784205 0.05919296
v 0.00823393 0.02784205 0.06442023
v 0.01125703 0.02152417 0.06043294
v 0.01114786 0.02784205 0.06307140
v 0.01101264 0.02784205 0.06357235
v 0.01090959 0.02784205 0.06387726
v 0.01028176 0.02397957 0.06442023
v 0.00823814 0.02152417 0.06111786
v 0.00823776 0.02482629 0.06442023
v 0.00823393 0.02736890 0.06442023
v 0.00836379 0.02784205 0.06497083
v 0.00976578 0.02347489 0.06493519
v 0.01032505 0.02152417 0.06187852
v 0.01061311 0.02784205 0.06443996
v 0.00997608 0.02482629 0.06517707
v 0.00991211 0.02397957 0.06507714
v 0.00828220 0.02152417 0.06187852
v 0.00829943 0.02397957 0.06442023
v 0.00849211 0.02482629 0.06515861
v 0.00846645 0.02784205 0.06527637
v 0.00917396 0.02397957 0.06530247
v 0.00917396 0.02343407 0.06498038
v 0.00917396 0.02152417 0.06264492
v 0.00992858 0.02152417 0.06247305
v 0.01006495 0.02784205 0.06525218
v 0.00917396 0.02784205 0.06569585
v 0.00917396 0.02482629 0.06549216
v 0.00830863 0.02152417 0.06194345
v 0.00865070 0.02347489 0.06493519
v 0.00854651 0.02397957 0.06506886
v 0.00860626 0.02152417 0.06249469
v 0.00854038 0.02152417 0.06247305
f 1 2 5
f 1 5 3
f 1 3 7
f 1 7 17
f 1 17 28
f 1 28 27
f 1 27 35
f 1 35 36
f 1 36 32
f 1 32 21
f 1 21 12
f 1 12 4
f 1 4 14
f 1 14 6
f 1 6 2
f 2 6 15
f 2 15 24
f 2 24 30
f 2 30 29
f 2 29 18
f 2 18 10
f 2 10 9
f 2 9 8
f 2 8 5
f 3 5 8
f 3 8 9
f 3 9 10
f 3 10 11
f 3 11 7
f 4 12 13
f 4 13 14
f 6 14 15
f 7 11 16
f 7 16 17
f 10 18 19
f 10 19 11
f 11 19 20
f 11 20 16
f 12 21 13
f 13 21 22
f 13 22 23
f 13 23 24
f 13 24 15
f 13 15 14
f 16 20 25
f 16 25 26
f 16 26 27
f 16 27 28
f 16 28 17
f 18 29 19
f 19 29 30
f 19 30 31
f 19 31 20
f 20 31 25
f 21 32 33
f 21 33 22
f 22 33 34
f 22 34 23
f 23 34 31
f 23 31 30
f 23 30 24
f 25 31 34
f 25 34 33
f 25 33 26
f 26 33 27
f 27 33 35
f 32 36 33
f 33 36 35

