# https://github.com/mikedh/trimesh
v -0.00439899 -0.01300735 0.04229546
v -0.00435541 -0.01300735 0.04831933
v -0.00439899 -0.01245879 0.04229546
v 0.00326405 -0.01300735 0.04229546
v -0.00435541 -0.01245879 0.04831933
v -0.00414653 -0.01300735 0.04909710
v -0.00426224 -0.01161150 0.04229546
v 0.00327532 -0.01245879 0.04229546
v 0.00327532 -0.01300735 0.04463155
v -0.00415780 -0.01245879 0.04897536
v -0.00409244 -0.01181741 0.04889744
v -0.00415780 -0.01170859 0.04831933
v -0.00353719 -0.01300735 0.04937120
v -0.00405412 -0.01110371 0.04229546
v 0.00327532 -0.01070608 0.04229546
v 0.00327532 -0.01300735 0.04831933
v -0.00353719 -0.01245879 0.04922650
v -0.00353719 -0.01170589 0.04897675
v -0.00014784 -0.01070608 0.04924180
v -0.00083908 -0.01070608 0.04899831
v -0.00088492 -0.01070608 0.04898022
v -0.00353719 -0.01136639 0.04831933
v -0.00399776 -0.01116093 0.04458494
v -0.00401655 -0.01114741 0.04408335
v -0.00268966 -0.01300735 0.04939833
v -0.00120274 -0.01070608 0.04831933
v -0.00395719 -0.01108433 0.04229546
v 0.00327532 -0.01070608 0.04831933
v -0.00135601 -0.01070608 0.04229546
v 0.00312430 -0.01300735 0.04884944
v 0.00069969 -0.01070608 0.04926545
v -0.00118546 -0.01070608 0.04836525
v -0.00084059 -0.01300735 0.04940111
v 0.00306269 -0.01070608 0.04894475
v 0.00303564 -0.01300735 0.04910893
v 0.00154646 -0.01070608 0.04926545
v 0.00154646 -0.01300735 0.04940111
v 0.00304691 -0.01070608 0.04899066
v 0.00254200 -0.01300735 0.04932667
v 0.00170049 -0.01300735 0.04939972
v 0.00160506 -0.01070608 0.04926476
v 0.00239398 -0.01070608 0.04925223
v 0.00239398 -0.01300735 0.04938511
f 1 2 5
f 1 5 3
f 1 3 7
f 1 7 14
f 1 14 27
f 1 27 29
f 1 29 15
f 1 15 8
f 1 8 4
f 1 4 9
f 1 9 16
f 1 16 30
f 1 30 35
f 1 35 39
f 1 39 43
f 1 43 40
f 1 40 37
f 1 37 33
f 1 33 25
f 1 25 13
f 1 13 6
f 1 6 2
f 2 6 5
f 3 5 7
f 4 8 9
f 5 6 10
f 5 10 11
f 5 11 12
f 5 12 7
f 6 11 10
f 6 13 11
f 7 12 14
f 8 15 28
f 8 28 16
f 8 16 9
f 11 13 17
f 11 17 18
f 11 18 19
f 11 19 20
f 11 20 21
f 11 21 22
f 11 22 12
f 12 22 23
f 12 23 24
f 12 24 14
f 13 25 19
f 13 19 17
f 14 24 26
f 14 26 27
f 15 29 26
f 15 26 32
f 15 32 21
f 15 21 20
f 15 20 19
f 15 19 31
f 15 31 36
f 15 36 41
f 15 41 42
f 15 42 38
f 15 38 34
f 15 34 28
f 16 28 30
f 17 19 18
f 19 25 31
f 21 32 22
f 22 32 26
f 22 26 23
f 23 26 24
f 25 33 31
f 26 29 27
f 28 34 30
f 30 34 35
f 31 33 37
f 31 37 36
f 34 38 35
f 35 38 39
f 36 37 40
f 36 40 41
f 38 42 39
f 39 42 43
f 40 43 42
f 40 42 41

