# https://github.com/mikedh/trimesh
v 0.00620376 0.03292238 0.05876375
v 0.00522922 0.03292238 0.05876375
v 0.00620376 0.03041451 0.05876375
v 0.00620376 0.03372606 0.05778830
v 0.00239362 0.03292176 0.05876375
v 0.00239362 0.03372606 0.05778830
v 0.00620376 0.03039970 0.05862420
v 0.00239362 0.03041451 0.05876375
v 0.00154646 0.02799052 0.05001454
v 0.00239362 0.02801581 0.05001454
v 0.00239362 0.02742554 0.04765856
v 0.00249511 0.02742554 0.04763418
v 0.00294665 0.02742554 0.04739980
v 0.00299429 0.02742554 0.04725077
v 0.00319210 0.02742554 0.04662622
v 0.00620376 0.03372606 0.05571548
v 0.00181469 0.03291374 0.05876375
v 0.00154646 0.03372606 0.05778695
v 0.00620376 0.03020603 0.05679253
v 0.00182194 0.03042314 0.05876375
v -0.00268934 0.02799052 0.05001454
v 0.00154646 0.02742554 0.04767482
v 0.00327599 0.02742554 0.04577812
v 0.00620376 0.03016162 0.05636577
v 0.00578329 0.03372606 0.05570464
v 0.00620376 0.03160553 0.05489177
v 0.00319210 0.03075806 0.04492325
v 0.00319003 0.03076484 0.04492325
v 0.00296322 0.03131687 0.04492325
v 0.00239362 0.03147662 0.04492325
v 0.00154646 0.03150253 0.04492325
v 0.00154646 0.03290819 0.05876375
v 0.00072623 0.03372606 0.05750921
v 0.00154646 0.03047434 0.05876375
v -0.00353650 0.02805220 0.05001454
v -0.00353650 0.02742554 0.04765179
v -0.00334076 0.02742554 0.04765992
v -0.00268934 0.02742554 0.04767482
v 0.00327599 0.02742554 0.04492325
v 0.00620376 0.03016286 0.05592140
v 0.00493613 0.03372606 0.05569787
v 0.00620376 0.03075806 0.05493377
v 0.00327599 0.02991121 0.04492325
v -0.00268934 0.03150253 0.04492325
v 0.00126683 0.03274289 0.05876375
v 0.00037514 0.03372606 0.05679253
v -0.00307253 0.03199411 0.05203859
v -0.00224401 0.03192873 0.05379845
v -0.00064911 0.03213782 0.05650667
v 0.00023947 0.03211253 0.05812835
v 0.00080804 0.03241969 0.05876375
v 0.00097996 0.03072044 0.05876375
v -0.00405432 0.02849382 0.05062555
v -0.00346504 0.02842906 0.05088973
v -0.00406985 0.02742554 0.04739709
v -0.00419413 0.02742554 0.04492325
v 0.00620376 0.03057179 0.05502589
v 0.00620376 0.03021713 0.05526027
v 0.00620376 0.03018630 0.05545129
v 0.00239362 0.03372606 0.05569787
v -0.00352718 0.03147230 0.04492325
v 0.00154646 0.03372606 0.05572361
v 0.00196797 0.03372606 0.05570599
v 0.00052635 0.03372606 0.05644571
v -0.00353650 0.03147169 0.04492325
v -0.00410092 0.03131256 0.04492325
v -0.00353650 0.03179797 0.04916780
v -0.00314709 0.03204407 0.05114443
v -0.00314709 0.03204407 0.05147500
v -0.00317195 0.03142913 0.05223503
v -0.00408125 0.03141926 0.05001454
v -0.00400357 0.03130330 0.05056322
v -0.00206691 0.03163020 0.05418457
v -0.00160916 0.03160553 0.05500963
v -0.00355928 0.03075806 0.05170937
v -0.00070193 0.03160553 0.05659744
v -0.00045855 0.03160553 0.05702149
v 0.00045178 0.03160553 0.05860659
v 0.00054292 0.03161232 0.05876375
v 0.00059159 0.03179489 0.05876375
v 0.00078629 0.03084318 0.05876375
v -0.00408850 0.02906435 0.05073935
v -0.00428423 0.02906435 0.05001454
v -0.00412992 0.02837725 0.05001454
v -0.00427802 0.02742554 0.04668176
v -0.00407296 0.02742554 0.04739032
v 0.00022290 0.03100478 0.05815816
v -0.00435673 0.02821688 0.04492325
v -0.00433705 0.02742554 0.04577812
v 0.00115291 0.03372606 0.05588212
v 0.00070551 0.03372606 0.05607721
v -0.00430805 0.03075806 0.04492325
v -0.00414856 0.03137238 0.04662622
v -0.00415788 0.03140507 0.04747296
v -0.00415788 0.03143530 0.04832105
v -0.00414753 0.03146305 0.04916780
v -0.00388137 0.03075806 0.05108211
v -0.00434016 0.03075806 0.04916780
v -0.00421899 0.03075806 0.05001454
v -0.00403671 0.03075806 0.05065941
v -0.00390726 0.02991121 0.05114985
v -0.00359449 0.02991121 0.05170937
v -0.00321441 0.03075806 0.05230954
v -0.00230408 0.03075806 0.05389329
v -0.00406157 0.02991121 0.05072580
v -0.00425316 0.02991121 0.05001454
v -0.00434948 0.02991121 0.04916780
v -0.00435362 0.02906435 0.04916780
v -0.00428320 0.02742554 0.04662622
v -0.00437641 0.02991121 0.04492325
v -0.00433705 0.02742554 0.04583502
v -0.00435569 0.02821688 0.04662622
v -0.00434534 0.03075806 0.04662622
v -0.00435466 0.03075806 0.04747296
v -0.00435569 0.03075806 0.04832105
f 1 2 5
f 1 5 17
f 1 17 32
f 1 32 45
f 1 45 51
f 1 51 80
f 1 80 79
f 1 79 81
f 1 81 52
f 1 52 34
f 1 34 20
f 1 20 8
f 1 8 3
f 1 3 7
f 1 7 19
f 1 19 24
f 1 24 40
f 1 40 59
f 1 59 58
f 1 58 57
f 1 57 42
f 1 42 26
f 1 26 16
f 1 16 4
f 1 4 6
f 1 6 2
f 2 6 5
f 3 8 21
f 3 21 9
f 3 9 10
f 3 10 11
f 3 11 12
f 3 12 13
f 3 13 14
f 3 14 15
f 3 15 7
f 4 16 25
f 4 25 41
f 4 41 60
f 4 60 63
f 4 63 62
f 4 62 90
f 4 90 91
f 4 91 64
f 4 64 46
f 4 46 33
f 4 33 18
f 4 18 6
f 5 6 18
f 5 18 17
f 7 15 19
f 8 20 21
f 9 21 38
f 9 38 22
f 9 22 11
f 9 11 10
f 11 22 38
f 11 38 37
f 11 37 36
f 11 36 55
f 11 55 86
f 11 86 85
f 11 85 109
f 11 109 111
f 11 111 89
f 11 89 56
f 11 56 39
f 11 39 23
f 11 23 15
f 11 15 14
f 11 14 13
f 11 13 12
f 15 23 24
f 15 24 19
f 16 26 27
f 16 27 28
f 16 28 29
f 16 29 30
f 16 30 31
f 16 31 25
f 17 18 32
f 18 33 32
f 20 34 35
f 20 35 21
f 21 35 36
f 21 36 37
f 21 37 38
f 23 39 24
f 24 39 40
f 25 31 41
f 26 42 39
f 26 39 43
f 26 43 27
f 27 43 39
f 27 39 56
f 27 56 88
f 27 88 110
f 27 110 92
f 27 92 66
f 27 66 65
f 27 65 61
f 27 61 44
f 27 44 31
f 27 31 30
f 27 30 29
f 27 29 28
f 31 44 60
f 31 60 41
f 32 33 45
f 33 46 47
f 33 47 48
f 33 48 49
f 33 49 50
f 33 50 51
f 33 51 45
f 34 52 53
f 34 53 54
f 34 54 35
f 35 54 53
f 35 53 55
f 35 55 36
f 39 42 57
f 39 57 58
f 39 58 59
f 39 59 40
f 44 61 62
f 44 62 63
f 44 63 60
f 46 64 65
f 46 65 66
f 46 66 67
f 46 67 68
f 46 68 69
f 46 69 47
f 47 70 48
f 47 69 71
f 47 71 72
f 47 72 70
f 48 73 74
f 48 74 50
f 48 50 49
f 48 70 75
f 48 75 73
f 50 76 77
f 50 77 78
f 50 78 79
f 50 79 80
f 50 80 51
f 50 74 76
f 52 81 53
f 53 82 83
f 53 83 84
f 53 84 85
f 53 85 86
f 53 86 55
f 53 81 87
f 53 87 82
f 56 89 88
f 61 65 62
f 62 65 90
f 64 91 65
f 65 91 90
f 66 92 93
f 66 93 67
f 67 93 94
f 67 94 95
f 67 95 96
f 67 96 68
f 68 96 69
f 69 96 71
f 70 72 97
f 70 97 75
f 71 96 98
f 71 98 99
f 71 99 72
f 72 99 100
f 72 100 97
f 73 75 74
f 74 75 76
f 75 97 101
f 75 101 102
f 75 102 103
f 75 103 78
f 75 78 77
f 75 77 76
f 78 103 104
f 78 104 79
f 79 87 81
f 79 104 102
f 79 102 87
f 82 87 102
f 82 102 101
f 82 101 105
f 82 105 83
f 83 105 106
f 83 106 98
f 83 98 107
f 83 107 108
f 83 108 109
f 83 109 85
f 83 85 84
f 88 89 111
f 88 111 112
f 88 112 110
f 92 110 113
f 92 113 94
f 92 94 93
f 94 113 114
f 94 114 95
f 95 115 96
f 95 114 115
f 96 115 98
f 97 100 101
f 98 115 107
f 98 106 99
f 99 106 105
f 99 105 100
f 100 105 101
f 102 104 103
f 107 115 108
f 108 115 110
f 108 110 112
f 108 112 111
f 108 111 109
f 110 115 114
f 110 114 113

