# https://github.com/mikedh/trimesh
v 0.00485232 0.02839500 0.02798450
v 0.00443349 0.02567489 0.02450736
v 0.00443349 0.02583650 0.02450736
v 0.00443256 0.02837730 0.02450736
v 0.00443210 0.02839500 0.02450736
v 0.00475609 0.02839500 0.02858284
v 0.00308126 0.02811491 0.03948792
v 0.00323466 0.02742535 0.03948792
v 0.00326069 0.02504117 0.03878252
v 0.00437492 0.02567489 0.02967980
v 0.00427451 0.02482781 0.02450736
v 0.00010393 0.02839500 0.02450736
v 0.00474540 0.02839500 0.02864590
v 0.00253925 0.02831783 0.03948792
v 0.00076587 0.02742535 0.03948792
v 0.00239515 0.02375738 0.03878252
v 0.00303199 0.02405472 0.03878252
v 0.00309056 0.02419772 0.03878252
v 0.00323791 0.02482781 0.03878252
v 0.00407789 0.02482781 0.03052598
v 0.00415970 0.02482781 0.02967980
v 0.00389241 0.02428760 0.02450736
v 0.00010393 0.02839500 0.02964167
v 0.00010393 0.02657464 0.02450736
v 0.00473889 0.02839500 0.02866790
v 0.00239469 0.02836232 0.03948792
v 0.00015693 0.02742580 0.03948792
v 0.00154774 0.02377735 0.03878252
v 0.00231194 0.02418501 0.02450736
v 0.00239515 0.02418365 0.02450736
v 0.00324117 0.02419454 0.02450736
v 0.00379758 0.02427262 0.02450736
v 0.00378039 0.02434662 0.03052598
v 0.00380456 0.02434662 0.02967980
v 0.00071753 0.02839500 0.02977659
v 0.00010393 0.02820979 0.02968420
v 0.00079283 0.02812308 0.03948792
v 0.00095739 0.02817847 0.03948792
v 0.00154727 0.02833735 0.03948792
v 0.00174530 0.02834643 0.03948792
v 0.00105129 0.02431847 0.02450736
v 0.00079283 0.02406017 0.03878252
v 0.00060689 0.02482781 0.03878252
v 0.00010393 0.02667587 0.02798450
v 0.00465197 0.02839500 0.02889667
v 0.00421130 0.02839500 0.02950382
v 0.00407882 0.02839500 0.02962847
v 0.00324117 0.02839500 0.02992911
v 0.00317330 0.02839500 0.02993057
v 0.00239515 0.02839500 0.02993057
v 0.00154820 0.02839500 0.02987631
v 0.00010393 0.02736861 0.02959474
v 0.00010393 0.02680615 0.02939529
v 0.00010393 0.02670719 0.02883068
v 0.00154588 0.02420316 0.02450736
v 0.00010393 0.02668631 0.02828806
f 1 2 3
f 1 3 4
f 1 4 5
f 1 5 12
f 1 12 23
f 1 23 35
f 1 35 51
f 1 51 50
f 1 50 49
f 1 49 48
f 1 48 47
f 1 47 46
f 1 46 45
f 1 45 25
f 1 25 13
f 1 13 6
f 1 6 7
f 1 7 8
f 1 8 9
f 1 9 10
f 1 10 2
f 2 10 11
f 2 11 22
f 2 22 32
f 2 32 31
f 2 31 30
f 2 30 29
f 2 29 55
f 2 55 41
f 2 41 24
f 2 24 12
f 2 12 5
f 2 5 4
f 2 4 3
f 6 13 7
f 7 14 26
f 7 26 40
f 7 40 39
f 7 39 38
f 7 38 37
f 7 37 27
f 7 27 15
f 7 15 8
f 7 13 14
f 8 15 16
f 8 16 17
f 8 17 18
f 8 18 19
f 8 19 9
f 9 19 10
f 10 20 21
f 10 21 11
f 10 19 18
f 10 18 20
f 11 21 22
f 12 24 44
f 12 44 56
f 12 56 54
f 12 54 53
f 12 53 52
f 12 52 36
f 12 36 23
f 13 25 26
f 13 26 14
f 15 27 16
f 16 27 28
f 16 28 29
f 16 29 30
f 16 30 31
f 16 31 32
f 16 32 22
f 16 22 17
f 17 22 33
f 17 33 21
f 17 21 18
f 18 21 20
f 21 33 34
f 21 34 22
f 22 34 33
f 23 36 27
f 23 27 37
f 23 37 38
f 23 38 39
f 23 39 40
f 23 40 26
f 23 26 35
f 24 41 42
f 24 42 43
f 24 43 44
f 25 45 26
f 26 45 46
f 26 46 47
f 26 47 48
f 26 48 49
f 26 49 50
f 26 50 51
f 26 51 35
f 27 43 42
f 27 42 28
f 27 36 52
f 27 52 53
f 27 53 54
f 27 54 43
f 28 42 41
f 28 41 55
f 28 55 29
f 43 54 56
f 43 56 44

