# https://github.com/mikedh/trimesh
v 0.00823819 0.02784266 0.05876447
v 0.00823819 0.03292278 0.05876447
v 0.01453929 0.02784266 0.05876447
v 0.00823819 0.02784266 0.06443774
v 0.01152340 0.03482108 0.05876447
v 0.00823819 0.03363319 0.06612819
v 0.01488479 0.02826071 0.05876447
v 0.01468497 0.03033115 0.06585209
v 0.01433814 0.03023142 0.06612819
v 0.01006524 0.02784266 0.06525161
v 0.00836383 0.02784266 0.06497047
v 0.00825557 0.02906402 0.06612819
v 0.00823819 0.02967402 0.06612819
v 0.01133562 0.03482108 0.06085716
v 0.01403876 0.03482108 0.05876447
v 0.01115585 0.03482108 0.06612819
v 0.01115585 0.03482108 0.06611449
v 0.01122936 0.03482108 0.06327786
v 0.01125609 0.03482108 0.06246183
v 0.01128750 0.03482108 0.06165157
v 0.01132425 0.03482108 0.06103089
v 0.01502312 0.02909066 0.05876447
v 0.01468497 0.03044454 0.06585209
v 0.01466760 0.03073963 0.06612675
v 0.01466693 0.03073895 0.06612819
v 0.01506522 0.02991173 0.05876447
v 0.00995832 0.02832902 0.06612819
v 0.00918647 0.02804281 0.06612819
v 0.00917444 0.02784266 0.06569567
v 0.00846674 0.02784266 0.06527612
v 0.00851352 0.02835088 0.06612819
v 0.01432678 0.03414756 0.05876447
v 0.01361441 0.03482108 0.06612819
v 0.01378682 0.03446246 0.06612819
v 0.01459142 0.03159281 0.06612819
v 0.01502579 0.03075876 0.05876447
v 0.00917444 0.02804007 0.06612819
v 0.01441299 0.03387227 0.05876447
v 0.01396124 0.03404578 0.06612819
v 0.01396391 0.03403895 0.06612819
v 0.01421719 0.03330053 0.06612819
v 0.01459008 0.03160579 0.06612819
v 0.01496431 0.03133119 0.05876447
v 0.01459208 0.03329643 0.05876447
v 0.01422053 0.03328755 0.06612819
v 0.01462683 0.03316528 0.05876447
v 0.01443437 0.03243984 0.06612819
v 0.01493424 0.03160579 0.05876447
v 0.01478254 0.03249039 0.05876447
v 0.01443170 0.03245282 0.06612819
v 0.01468965 0.03290912 0.05876447
v 0.01443237 0.03245282 0.06611449
v 0.01475915 0.03259763 0.05876447
f 1 2 5
f 1 5 15
f 1 15 32
f 1 32 38
f 1 38 44
f 1 44 46
f 1 46 51
f 1 51 53
f 1 53 49
f 1 49 48
f 1 48 43
f 1 43 36
f 1 36 26
f 1 26 22
f 1 22 7
f 1 7 3
f 1 3 10
f 1 10 29
f 1 29 30
f 1 30 11
f 1 11 4
f 1 4 13
f 1 13 6
f 1 6 2
f 2 6 5
f 3 7 8
f 3 8 9
f 3 9 10
f 4 11 12
f 4 12 13
f 5 14 21
f 5 21 20
f 5 20 19
f 5 19 18
f 5 18 17
f 5 17 16
f 5 16 33
f 5 33 15
f 5 6 14
f 6 13 12
f 6 12 31
f 6 31 37
f 6 37 28
f 6 28 27
f 6 27 9
f 6 9 25
f 6 25 35
f 6 35 42
f 6 42 47
f 6 47 50
f 6 50 45
f 6 45 41
f 6 41 40
f 6 40 39
f 6 39 34
f 6 34 33
f 6 33 16
f 6 16 17
f 6 17 18
f 6 18 19
f 6 19 20
f 6 20 21
f 6 21 14
f 7 22 8
f 8 23 24
f 8 24 25
f 8 25 9
f 8 22 26
f 8 26 23
f 9 27 10
f 10 27 28
f 10 28 29
f 11 30 31
f 11 31 12
f 15 33 34
f 15 34 32
f 23 26 24
f 24 35 25
f 24 26 36
f 24 36 35
f 28 37 29
f 29 37 30
f 30 37 31
f 32 34 39
f 32 39 40
f 32 40 41
f 32 41 38
f 35 36 42
f 36 43 42
f 38 41 44
f 41 45 46
f 41 46 44
f 42 43 48
f 42 48 49
f 42 49 47
f 45 50 46
f 46 50 51
f 47 49 52
f 47 52 50
f 49 53 52
f 50 52 53
f 50 53 51

