# https://github.com/mikedh/trimesh
v -0.00702698 0.02742554 0.04069287
v -0.00701029 0.02742554 0.04074743
v -0.00680509 0.02742554 0.03996216
v -0.00690038 0.02651921 0.03984588
v -0.00692682 0.02567378 0.03984588
v -0.00692682 0.00253790 0.03984588
v -0.00699081 0.00253790 0.04043397
v -0.00701864 0.00253790 0.04069287
v -0.00673691 0.02742554 0.04128465
v -0.00676543 0.02742554 0.03987963
v -0.00654701 0.02697724 0.03940251
v -0.00658458 0.02651921 0.03938540
v -0.00659988 0.02567378 0.03937801
v -0.00659988 0.00253790 0.03937801
v -0.00669240 0.00253790 0.04121623
v -0.00667779 0.02742554 0.04130684
v -0.00608444 0.02742554 0.03964801
v -0.00607887 0.02699430 0.03939257
v 0.00007864 0.02651921 0.03918059
v -0.00607887 0.02651921 0.03934865
v -0.00607887 0.02742554 0.03964639
v -0.00607887 0.02567378 0.03933409
v -0.00644128 0.00253790 0.03936460
v -0.00501598 0.00253790 0.04150865
v -0.00607887 0.02742554 0.04145040
v 0.00007864 0.02709419 0.03928623
v 0.00007864 0.02684568 0.03923168
v 0.00007864 0.02567378 0.03914730
v 0.00007864 0.02742554 0.03952665
v 0.00007864 0.02738899 0.03946608
v 0.00007864 0.01465890 0.03914707
v -0.00607887 0.00253790 0.03933409
v 0.00007864 0.00253790 0.04150865
v -0.00518432 0.02742554 0.04150865
v 0.00007864 0.02742554 0.04150865
v 0.00007864 0.01296561 0.03914707
v -0.00014812 0.00253790 0.03915701
v 0.00007864 0.00253790 0.03915262
f 1 2 9
f 1 9 16
f 1 16 25
f 1 25 34
f 1 34 35
f 1 35 29
f 1 29 21
f 1 21 17
f 1 17 10
f 1 10 3
f 1 3 4
f 1 4 5
f 1 5 6
f 1 6 7
f 1 7 8
f 1 8 2
f 2 8 9
f 3 10 4
f 4 10 11
f 4 11 12
f 4 12 5
f 5 12 13
f 5 13 14
f 5 14 6
f 6 14 23
f 6 23 32
f 6 32 37
f 6 37 38
f 6 38 33
f 6 33 24
f 6 24 15
f 6 15 8
f 6 8 7
f 8 15 9
f 9 15 16
f 10 17 11
f 11 18 19
f 11 19 20
f 11 20 12
f 11 17 21
f 11 21 18
f 12 20 22
f 12 22 13
f 13 22 23
f 13 23 14
f 15 24 25
f 15 25 16
f 18 26 27
f 18 27 19
f 18 21 26
f 19 28 20
f 19 27 26
f 19 26 30
f 19 30 29
f 19 29 35
f 19 35 33
f 19 33 38
f 19 38 36
f 19 36 31
f 19 31 28
f 20 28 22
f 21 29 30
f 21 30 26
f 22 28 31
f 22 31 36
f 22 36 32
f 22 32 23
f 24 33 35
f 24 35 34
f 24 34 25
f 32 36 37
f 36 38 37

