# https://github.com/mikedh/trimesh
v -0.00715536 0.01211779 0.01950828
v -0.00714967 0.00129886 0.01866077
v -0.00715536 0.01296253 0.02035530
v -0.00715536 0.02437097 0.01950828
v -0.00715252 0.02437097 0.01905234
v -0.00689886 0.00129886 0.01810411
v -0.00708928 0.00129886 0.01885778
v -0.00703102 0.01211779 0.02120281
v -0.00715109 0.01211779 0.02035530
v -0.00714967 0.02397796 0.01866077
v -0.00704452 0.01296253 0.02120281
v -0.00708786 0.02437097 0.02120281
v -0.00713689 0.02437097 0.02074687
v -0.00715536 0.02437097 0.02035530
v -0.00714541 0.02437097 0.01866077
v -0.00682284 0.00129886 0.01793559
v -0.00682284 0.02397796 0.01793559
v -0.00688892 0.00129886 0.01950828
v -0.00670916 0.01211779 0.02174620
v -0.00696991 0.02437097 0.01827067
v -0.00671768 0.01296253 0.02174620
v -0.00676102 0.02437097 0.02181695
v -0.00693723 0.02437097 0.02151233
v -0.00625229 0.00129886 0.01770419
v -0.00681858 0.02437097 0.01794837
v -0.00641856 0.02437097 0.01778624
v -0.00607893 0.02397796 0.01763442
v -0.00656279 0.00129886 0.01997109
v -0.00607893 0.01211779 0.02186559
v -0.00607893 0.02437097 0.02201052
v -0.00643348 0.02437097 0.02193289
v -0.00663455 0.01156216 0.02170640
v -0.00402128 0.00129886 0.02168970
v -0.00390831 0.00129886 0.02171770
v -0.00353671 0.00129886 0.02180958
v 0.00010254 0.00129886 0.02265316
v -0.00607893 0.00129886 0.01763442
v -0.00607893 0.02437097 0.01765948
v -0.00184285 0.02397796 0.01763442
v 0.00010254 0.02437097 0.02210387
v 0.00010254 0.00129886 0.01763442
v -0.00184285 0.02437097 0.01765948
v 0.00010254 0.02397796 0.01764818
v 0.00010254 0.02372725 0.01764376
v 0.00010254 0.02313097 0.01763442
v 0.00010254 0.02437097 0.01767323
f 1 2 3
f 1 3 14
f 1 14 4
f 1 4 5
f 1 5 2
f 2 6 16
f 2 16 24
f 2 24 37
f 2 37 41
f 2 41 36
f 2 36 35
f 2 35 34
f 2 34 33
f 2 33 28
f 2 28 18
f 2 18 7
f 2 7 8
f 2 8 9
f 2 9 3
f 2 5 10
f 2 10 6
f 3 9 11
f 3 11 12
f 3 12 13
f 3 13 14
f 4 14 13
f 4 13 12
f 4 12 23
f 4 23 22
f 4 22 31
f 4 31 30
f 4 30 40
f 4 40 46
f 4 46 42
f 4 42 38
f 4 38 26
f 4 26 25
f 4 25 20
f 4 20 15
f 4 15 5
f 5 15 10
f 6 10 17
f 6 17 16
f 7 18 8
f 8 19 11
f 8 11 9
f 8 18 19
f 10 15 20
f 10 20 17
f 11 19 21
f 11 21 22
f 11 22 23
f 11 23 12
f 16 17 24
f 17 20 25
f 17 25 26
f 17 26 27
f 17 27 24
f 18 28 19
f 19 29 30
f 19 30 31
f 19 31 22
f 19 22 21
f 19 28 32
f 19 32 33
f 19 33 34
f 19 34 35
f 19 35 36
f 19 36 29
f 24 27 37
f 26 38 27
f 27 38 42
f 27 42 39
f 27 39 45
f 27 45 41
f 27 41 37
f 28 33 32
f 29 36 30
f 30 36 40
f 36 41 45
f 36 45 44
f 36 44 43
f 36 43 46
f 36 46 40
f 39 43 44
f 39 44 45
f 39 42 46
f 39 46 43

