# https://github.com/mikedh/trimesh
v 0.00021771 0.01487142 -0.00574989
v 0.00014930 0.01729185 -0.00574989
v 0.00013605 0.01729185 -0.00524684
v 0.00011730 0.01729185 -0.00474380
v 0.00019123 0.01487142 -0.00523827
v 0.00021550 0.01487142 -0.00625007
v 0.00015040 0.01729185 -0.00625007
v 0.00015040 0.01729185 -0.00603285
v 0.00010847 0.01729185 -0.00461518
v 0.00008199 0.01729185 -0.00424075
v 0.00003785 0.01729185 -0.00373771
v 0.00014709 0.01487142 -0.00474380
v 0.00021440 0.01487142 -0.00627437
v 0.00011509 0.01729185 -0.00725616
v 0.00013605 0.01729185 -0.00675312
v -0.00001181 0.01729185 -0.00324753
v 0.00008088 0.01487142 -0.00421932
v 0.00020447 0.01487142 -0.00647158
v 0.00019123 0.01487142 -0.00673168
v 0.00019012 0.01487142 -0.00675312
v 0.00007868 0.01729185 -0.00775921
v 0.00001026 0.01487142 -0.00373771
v -0.00002946 0.01729185 -0.00314034
v 0.00015702 0.01487142 -0.00715470
v 0.00004005 0.01729185 -0.00824082
v -0.00008022 0.01487142 -0.00323466
v -0.00010671 0.01729185 -0.00273162
v 0.00014819 0.01487142 -0.00725616
v 0.00000143 0.01729185 -0.00864382
v -0.00018395 0.01487142 -0.00275020
v -0.00012436 0.01729185 -0.00265159
v 0.00012612 0.01487142 -0.00742623
v -0.00001181 0.01729185 -0.00875101
v -0.00021926 0.01729185 -0.00223000
v -0.00018836 0.01487142 -0.00273162
v 0.00007647 0.01487142 -0.00780208
v 0.00000585 0.01487142 -0.00828083
v -0.00008243 0.01487142 -0.00876530
v -0.00010781 0.01729185 -0.00926834
v -0.00031967 0.01487142 -0.00222857
v -0.00035388 0.01729185 -0.00176554
v -0.00019167 0.01487142 -0.00926834
v -0.00020271 0.01729185 -0.00969564
v -0.00033843 0.01487142 -0.00216855
v -0.00054588 0.01729185 -0.00125107
v -0.00047416 0.01487142 -0.00176126
v -0.00046312 0.01487142 -0.00179270
v -0.00019498 0.01487142 -0.00928120
v -0.00022036 0.01729185 -0.00977139
v -0.00057898 0.01729185 -0.00117961
v -0.00068602 0.01487142 -0.00122248
v -0.00032188 0.01487142 -0.00976853
v -0.00032740 0.01487142 -0.00978854
v -0.00032519 0.01729185 -0.01013152
v -0.00079305 0.01729185 -0.00075088
v -0.00083719 0.01487142 -0.00089665
v -0.00038698 0.01487142 -0.00998289
v -0.00047636 0.01487142 -0.01023870
v -0.00050285 0.01729185 -0.01063171
v -0.00082395 0.01729185 -0.00069800
v -0.00098837 0.01487142 -0.00064513
v -0.00049181 0.01487142 -0.01028015
v -0.00054588 0.01729185 -0.01074889
v -0.00092326 0.01729185 -0.00054080
v -0.00123885 0.01487142 -0.00029214
v -0.00068823 0.01487142 -0.01077748
v -0.00069264 0.01487142 -0.01078748
v -0.00083609 0.01487142 -0.01110474
v -0.00079195 0.01729185 -0.01125337
v -0.00115278 0.01729185 -0.00022783
v -0.00118809 0.01729185 -0.00018353
v -0.00137678 0.01729185 0.00003799
v -0.00144630 0.01487142 -0.00004919
v -0.00098726 0.01487142 -0.01135626
v -0.00089899 0.01729185 -0.01142915
v -0.00145402 0.01487142 -0.00004062
v -0.00160078 0.01729185 0.00023091
v -0.00170561 0.01487142 0.00018518
v -0.00169568 0.01487142 0.00017661
v -0.00123885 0.01487142 -0.01170925
v -0.00097292 0.01729185 -0.01153490
v -0.00194175 0.01729185 0.00050244
v -0.00204217 0.01487142 0.00043671
v -0.00145402 0.01487142 -0.01195935
v -0.00121678 0.01729185 -0.01186502
v -0.00114947 0.01729185 -0.01177928
v -0.00197927 0.01729185 0.00052531
v -0.00228382 0.01487142 0.00058533
v -0.00146285 0.01487142 -0.01196935
v -0.00138451 0.01713240 -0.01203080
v -0.00154892 0.01729185 -0.01219943
v -0.00219334 0.01729185 0.00064107
v -0.00229375 0.01487142 0.00059105
v -0.00170561 0.01487142 -0.01218371
v -0.00159085 0.01729185 -0.01223659
v -0.00225293 0.01729185 0.00066822
v -0.00263913 0.01487142 0.00074968
v -0.00171665 0.01487142 -0.01219229
v -0.00192851 0.01729185 -0.01251098
v -0.00263913 0.01729185 0.00083971
v -0.00314231 0.01487142 0.00092689
v -0.00204327 0.01487142 -0.01243524
v -0.00229486 0.01487142 -0.01259101
v -0.00218010 0.01729185 -0.01264532
v -0.00310700 0.01729185 0.00098977
v -0.00350424 0.01487142 0.00101978
v -0.00230699 0.01487142 -0.01259673
v -0.00263913 0.01487142 -0.01275107
v -0.00263913 0.01729185 -0.01284682
v -0.00335417 0.01729185 0.00104979
v -0.00375583 0.01487142 0.00106837
v -0.00314231 0.01487142 -0.01292542
v -0.00311031 0.01729185 -0.01299259
v -0.00338617 0.01729185 0.00105551
v -0.00363997 0.01729185 0.00109552
v -0.00414756 0.01487142 0.00112982
v -0.00353514 0.01487142 -0.01301688
v -0.00335638 0.01729185 -0.01304832
v -0.00372162 0.01729185 0.00110553
v -0.00465073 0.01487142 0.00119413
v -0.00379997 0.01487142 -0.01306118
v -0.00414756 0.01487142 -0.01311692
v -0.00358038 0.01729185 -0.01308405
v -0.00414756 0.01729185 0.00115412
v -0.00513515 0.01487142 0.00124415
v -0.00416632 0.01487142 -0.01311978
v -0.00465073 0.01487142 -0.01318980
v -0.00363997 0.01729185 -0.01309263
v -0.00422370 0.01729185 0.00116126
v -0.00515391 0.01487142 0.00124558
v -0.00465073 0.01729185 0.00119556
v -0.00515391 0.01487142 -0.01324554
v -0.00414756 0.01729185 -0.01315122
v -0.00565598 0.01487142 0.00128274
v -0.00472687 0.01729185 0.00120128
v -0.00517267 0.01487142 -0.01324697
v -0.00465073 0.01729185 -0.01319123
v -0.00615916 0.01487142 0.00129988
v -0.00515391 0.01729185 0.00123129
v -0.00523005 0.01729185 0.00123558
v -0.00565598 0.01729185 0.00125701
v -0.00573212 0.01729185 0.00125987
v -0.00565598 0.01487142 -0.01328270
v -0.00515391 0.01729185 -0.01322839
v -0.00666123 0.01487142 0.00128988
v -0.00615916 0.01729185 0.00126987
v -0.00623530 0.01729185 0.00126844
v -0.00615916 0.01487142 -0.01329985
v -0.00565598 0.01729185 -0.01325697
v -0.00557984 0.01729185 -0.01325268
v -0.00666123 0.01729185 0.00125701
v -0.00714675 0.01487142 0.00124129
v -0.00666123 0.01487142 -0.01328984
v -0.00615916 0.01729185 -0.01326983
v -0.00673737 0.01729185 0.00124844
v -0.00716440 0.01729185 0.00119556
v -0.00716440 0.01585916 0.00122128
v -0.00716440 0.01487142 0.00123843
v -0.00667999 0.01487142 -0.01328841
v -0.00666123 0.01729185 -0.01325840
v -0.00757930 0.01729185 0.00109695
v -0.00764772 0.01535617 0.00111553
v -0.00770399 0.01487142 0.00110981
v -0.00716440 0.01487142 -0.01324125
v -0.00716440 0.01686491 -0.01320267
v -0.00716440 0.01729185 -0.01319409
v -0.00761792 0.01729185 0.00108409
v -0.00791917 0.01487142 0.00104122
v -0.00766758 0.01487142 -0.01313407
v -0.00759586 0.01729185 -0.01309405
v -0.00783089 0.01729185 0.00100978
v -0.00812551 0.01487142 0.00094690
v -0.00767751 0.01487142 -0.01313121
v -0.00771061 0.01582955 -0.01309834
v -0.00763889 0.01636192 -0.01310549
v -0.00789048 0.01636192 -0.01303260
v -0.00786841 0.01686491 -0.01302546
v -0.00780993 0.01729185 -0.01302974
v -0.00788055 0.01729185 0.00098691
v -0.00817076 0.01729185 0.00084972
v -0.00864303 0.01487142 0.00068251
v -0.00794565 0.01487142 -0.01305118
v -0.00793020 0.01535617 -0.01304546
v -0.00792137 0.01564190 -0.01304118
v -0.00790813 0.01597739 -0.01303689
v -0.00819613 0.01487142 -0.01294257
v -0.00812110 0.01582955 -0.01294543
v -0.00817076 0.01636192 -0.01290541
v -0.00817076 0.01686491 -0.01288683
v -0.00784744 0.01729185 -0.01301831
v -0.00823255 0.01729185 0.00081685
v -0.00856359 0.01729185 0.00062963
v -0.00890235 0.01487142 0.00053531
v -0.00821379 0.01487142 -0.01293399
v -0.00871366 0.01487142 -0.01266389
v -0.00864965 0.01535617 -0.01268104
v -0.00817076 0.01729185 -0.01286969
v -0.00812441 0.01729185 -0.01289112
v -0.00862979 0.01585916 -0.01267247
v -0.00860221 0.01729185 0.00060534
v -0.00891117 0.01487142 0.00052960
v -0.00876441 0.01487142 -0.01263102
v -0.00891559 0.01499059 -0.01253099
v -0.00861103 0.01636192 -0.01266246
v -0.00859117 0.01686491 -0.01265103
v -0.00857462 0.01729185 -0.01264103
v -0.00881517 0.01729185 0.00045814
v -0.00886041 0.01729185 0.00042099
v -0.00917821 0.01487142 0.00030809
v -0.00907890 0.01487142 -0.01239522
v -0.00890124 0.01535617 -0.01252098
v -0.00886152 0.01636192 -0.01249097
v -0.00882621 0.01729185 -0.01246096
v -0.00910759 0.01729185 0.00020662
v -0.00945628 0.01487142 0.00006657
v -0.00913517 0.01487142 -0.01234520
v -0.00910317 0.01729185 -0.01220944
v -0.00945187 0.01487142 -0.01206081
v -0.00914511 0.01729185 0.00016946
v -0.00942759 0.01560755 0.00003513
v -0.00944083 0.01527230 0.00004942
v -0.00967035 0.01487142 -0.00020496
v -0.00942428 0.01555969 -0.01203080
v -0.00939228 0.01636192 -0.01199364
v -0.00937242 0.01686491 -0.01196935
v -0.00935476 0.01729185 -0.01194791
v -0.00967476 0.01487142 -0.01178499
v -0.00935918 0.01729185 -0.00005062
v -0.00937573 0.01686491 -0.00002775
v -0.00941766 0.01585916 0.00002227
v -0.00959863 0.01540640 -0.00016638
v -0.00967808 0.01487142 -0.00021497
v -0.00959090 0.01636192 -0.01174212
v -0.00952249 0.01729185 -0.01173498
v -0.00990318 0.01487142 -0.01148774
v -0.00938787 0.01729185 -0.00008778
v -0.00989435 0.01487142 -0.00049793
v -0.00956994 0.01686491 -0.01171783
v -0.00955228 0.01729185 -0.01169639
v -0.01004773 0.01487142 -0.01123622
v -0.00988332 0.01535617 -0.01145344
v -0.00955007 0.01729185 -0.00030214
v -0.00956773 0.01686491 -0.00027928
v -0.00958869 0.01729185 -0.00035788
v -0.00990318 0.01487142 -0.00051079
v -0.00984249 0.01636192 -0.01138056
v -0.00982152 0.01686491 -0.01134197
v -0.00980387 0.01729185 -0.01130767
v -0.01028608 0.01487142 -0.01076461
v -0.01000580 0.01585916 -0.01116619
v -0.00980166 0.01729185 -0.00069086
v -0.00981932 0.01686491 -0.00065656
v -0.00984028 0.01636192 -0.00061797
v -0.00986125 0.01585916 -0.00058082
v -0.01004884 0.01487142 -0.00076231
v -0.00998484 0.01636192 -0.01112904
v -0.00994511 0.01729185 -0.01105615
v -0.01041518 0.01487142 -0.01046879
v -0.01007532 0.01729185 -0.01077748
v -0.00982373 0.01729185 -0.00072801
v -0.00996497 0.01686491 -0.00090808
v -0.00998594 0.01636192 -0.00086950
v -0.01000690 0.01585916 -0.00083234
v -0.01027284 0.01487142 -0.00120676
v -0.01050125 0.01487142 -0.01020440
v -0.01030925 0.01686491 -0.01027443
v -0.01027284 0.01729185 -0.01027443
v -0.00994621 0.01729185 -0.00094238
v -0.01028056 0.01487142 -0.00122248
v -0.01063256 0.01487142 -0.00977139
v -0.01042732 0.01652753 -0.00999718
v -0.01039532 0.01729185 -0.00988286
v -0.00996828 0.01729185 -0.00098954
v -0.01011063 0.01686491 -0.00122248
v -0.01040856 0.01487142 -0.00151831
v -0.01075836 0.01487142 -0.00926834
v -0.01046484 0.01729185 -0.00963133
v -0.01007422 0.01729185 -0.00122248
v -0.01027394 0.01729185 -0.00172553
v -0.01041408 0.01487142 -0.00153260
v -0.01085436 0.01487142 -0.00876530
v -0.01081353 0.01535617 -0.00876530
v -0.01065022 0.01729185 -0.00876530
v -0.01055091 0.01729185 -0.00926834
v -0.01039753 0.01729185 -0.00210853
v -0.01041518 0.01686491 -0.00204422
v -0.01042842 0.01654293 -0.00199706
v -0.01049684 0.01487142 -0.00178412
v -0.01045601 0.01585916 -0.00190845
v -0.01047698 0.01535617 -0.00184557
v -0.01085767 0.01487142 -0.00874386
v -0.01091726 0.01487142 -0.00834800
v -0.01071312 0.01729185 -0.00833942
v -0.01040856 0.01729185 -0.00214711
v -0.01063256 0.01487142 -0.00222857
v -0.01094815 0.01487142 -0.00808647
v -0.01093712 0.01510787 -0.00801359
v -0.01072415 0.01729185 -0.00826225
v -0.01046705 0.01729185 -0.00236005
v -0.01075394 0.01487142 -0.00271304
v -0.01098126 0.01487142 -0.00775778
v -0.01077160 0.01729185 -0.00783638
v -0.01085767 0.01636192 -0.00775921
v -0.01081574 0.01686491 -0.00775921
v -0.01048249 0.01729185 -0.00242579
v -0.01059063 0.01686491 -0.00273162
v -0.01075836 0.01487142 -0.00273162
v -0.01101657 0.01487142 -0.00725616
v -0.01093932 0.01563764 -0.00753341
v -0.01077932 0.01729185 -0.00775921
v -0.01055422 0.01729185 -0.00273162
v -0.01056856 0.01729185 -0.00280736
v -0.01072525 0.01636192 -0.00323466
v -0.01084663 0.01487142 -0.00321608
v -0.01103753 0.01487142 -0.00673597
v -0.01099670 0.01535617 -0.00675312
v -0.01089298 0.01636192 -0.00725616
v -0.01081574 0.01729185 -0.00725616
v -0.01081022 0.01729185 -0.00733333
v -0.01064691 0.01729185 -0.00323466
v -0.01091394 0.01487142 -0.00365482
v -0.01084994 0.01487142 -0.00323466
v -0.01105298 0.01487142 -0.00625007
v -0.01093932 0.01613234 -0.00655304
v -0.01087091 0.01686491 -0.00675312
v -0.01083229 0.01729185 -0.00683029
v -0.01065794 0.01729185 -0.00331041
v -0.01071863 0.01729185 -0.00373771
v -0.01084112 0.01585916 -0.00373771
v -0.01089408 0.01531328 -0.00378344
v -0.01093822 0.01511687 -0.00398066
v -0.01094705 0.01487142 -0.00389634
v -0.01105519 0.01487142 -0.00574989
v -0.01101546 0.01535617 -0.00574989
v -0.01085657 0.01729185 -0.00574989
v -0.01094374 0.01618872 -0.00625007
v -0.01084994 0.01729185 -0.00632725
v -0.01072746 0.01729185 -0.00381345
v -0.01077601 0.01729185 -0.00424075
v -0.01092388 0.01545236 -0.00414500
v -0.01093822 0.01561868 -0.00448084
v -0.01097905 0.01487142 -0.00422217
v -0.01094815 0.01487142 -0.00390634
v -0.01103974 0.01487142 -0.00524684
v -0.01094043 0.01615887 -0.00541405
v -0.01083891 0.01729185 -0.00524684
v -0.01085215 0.01729185 -0.00625007
v -0.01081132 0.01729185 -0.00474380
v -0.01101436 0.01487142 -0.00472522
v -0.01084774 0.01686491 -0.00474380
v -0.01101546 0.01487142 -0.00474380
v -0.01081574 0.01729185 -0.00481954
f 1 2 3
f 1 3 4
f 1 4 5
f 1 5 12
f 1 12 17
f 1 17 22
f 1 22 26
f 1 26 30
f 1 30 35
f 1 35 40
f 1 40 44
f 1 44 47
f 1 47 46
f 1 46 51
f 1 51 56
f 1 56 61
f 1 61 65
f 1 65 73
f 1 73 76
f 1 76 79
f 1 79 78
f 1 78 83
f 1 83 88
f 1 88 93
f 1 93 97
f 1 97 101
f 1 101 106
f 1 106 111
f 1 111 116
f 1 116 120
f 1 120 125
f 1 125 130
f 1 130 134
f 1 134 138
f 1 138 145
f 1 145 152
f 1 152 158
f 1 158 163
f 1 163 168
f 1 168 172
f 1 172 181
f 1 181 193
f 1 193 201
f 1 201 209
f 1 209 215
f 1 215 222
f 1 222 232
f 1 232 237
f 1 237 245
f 1 245 255
f 1 255 264
f 1 264 269
f 1 269 275
f 1 275 280
f 1 280 288
f 1 288 295
f 1 295 300
f 1 300 307
f 1 307 314
f 1 314 322
f 1 322 321
f 1 321 332
f 1 332 343
f 1 343 342
f 1 342 349
f 1 349 351
f 1 351 344
f 1 344 333
f 1 333 323
f 1 323 315
f 1 315 308
f 1 308 301
f 1 301 296
f 1 296 292
f 1 292 291
f 1 291 281
f 1 281 276
f 1 276 270
f 1 270 265
f 1 265 258
f 1 258 249
f 1 249 240
f 1 240 235
f 1 235 227
f 1 227 218
f 1 218 216
f 1 216 210
f 1 210 202
f 1 202 195
f 1 195 194
f 1 194 186
f 1 186 182
f 1 182 173
f 1 173 169
f 1 169 164
f 1 164 159
f 1 159 153
f 1 153 148
f 1 148 143
f 1 143 136
f 1 136 132
f 1 132 127
f 1 127 126
f 1 126 122
f 1 122 121
f 1 121 117
f 1 117 112
f 1 112 108
f 1 108 107
f 1 107 103
f 1 103 102
f 1 102 98
f 1 98 94
f 1 94 89
f 1 89 84
f 1 84 80
f 1 80 74
f 1 74 68
f 1 68 67
f 1 67 66
f 1 66 62
f 1 62 58
f 1 58 57
f 1 57 53
f 1 53 52
f 1 52 48
f 1 48 42
f 1 42 38
f 1 38 37
f 1 37 36
f 1 36 32
f 1 32 28
f 1 28 24
f 1 24 20
f 1 20 19
f 1 19 18
f 1 18 13
f 1 13 6
f 1 6 7
f 1 7 8
f 1 8 2
f 2 8 7
f 2 7 15
f 2 15 14
f 2 14 21
f 2 21 25
f 2 25 29
f 2 29 33
f 2 33 39
f 2 39 43
f 2 43 49
f 2 49 54
f 2 54 59
f 2 59 63
f 2 63 69
f 2 69 75
f 2 75 81
f 2 81 86
f 2 86 85
f 2 85 91
f 2 91 95
f 2 95 99
f 2 99 104
f 2 104 109
f 2 109 113
f 2 113 118
f 2 118 123
f 2 123 128
f 2 128 133
f 2 133 137
f 2 137 144
f 2 144 150
f 2 150 149
f 2 149 154
f 2 154 160
f 2 160 166
f 2 166 170
f 2 170 178
f 2 178 190
f 2 190 198
f 2 198 197
f 2 197 206
f 2 206 213
f 2 213 217
f 2 217 226
f 2 226 234
f 2 234 239
f 2 239 248
f 2 248 257
f 2 257 259
f 2 259 267
f 2 267 272
f 2 272 277
f 2 277 284
f 2 284 283
f 2 283 293
f 2 293 298
f 2 298 302
f 2 302 310
f 2 310 319
f 2 319 318
f 2 318 326
f 2 326 337
f 2 337 347
f 2 347 335
f 2 335 346
f 2 346 352
f 2 352 348
f 2 348 339
f 2 339 338
f 2 338 328
f 2 328 327
f 2 327 320
f 2 320 312
f 2 312 311
f 2 311 305
f 2 305 299
f 2 299 294
f 2 294 285
f 2 285 279
f 2 279 278
f 2 278 273
f 2 273 268
f 2 268 260
f 2 260 251
f 2 251 244
f 2 244 242
f 2 242 236
f 2 236 228
f 2 228 219
f 2 219 214
f 2 214 208
f 2 208 207
f 2 207 200
f 2 200 192
f 2 192 191
f 2 191 180
f 2 180 179
f 2 179 171
f 2 171 167
f 2 167 161
f 2 161 156
f 2 156 155
f 2 155 151
f 2 151 147
f 2 147 146
f 2 146 142
f 2 142 141
f 2 141 140
f 2 140 139
f 2 139 135
f 2 135 131
f 2 131 129
f 2 129 124
f 2 124 119
f 2 119 115
f 2 115 114
f 2 114 110
f 2 110 105
f 2 105 100
f 2 100 96
f 2 96 92
f 2 92 87
f 2 87 82
f 2 82 77
f 2 77 72
f 2 72 71
f 2 71 70
f 2 70 64
f 2 64 60
f 2 60 55
f 2 55 50
f 2 50 45
f 2 45 41
f 2 41 34
f 2 34 31
f 2 31 27
f 2 27 23
f 2 23 16
f 2 16 11
f 2 11 10
f 2 10 9
f 2 9 4
f 2 4 3
f 4 9 5
f 5 9 10
f 5 10 11
f 5 11 12
f 6 13 14
f 6 14 15
f 6 15 7
f 11 16 12
f 12 16 17
f 13 18 14
f 14 18 19
f 14 19 20
f 14 20 21
f 16 22 17
f 16 23 22
f 20 24 25
f 20 25 21
f 22 23 26
f 23 27 26
f 24 28 25
f 25 28 29
f 26 27 30
f 27 31 30
f 28 32 33
f 28 33 29
f 30 31 34
f 30 34 35
f 32 36 33
f 33 36 37
f 33 37 38
f 33 38 39
f 34 40 35
f 34 41 40
f 38 42 39
f 39 42 43
f 40 41 44
f 41 45 46
f 41 46 47
f 41 47 44
f 42 48 49
f 42 49 43
f 45 50 51
f 45 51 46
f 48 52 49
f 49 52 53
f 49 53 54
f 50 55 56
f 50 56 51
f 53 57 54
f 54 58 59
f 54 57 58
f 55 60 56
f 56 60 61
f 58 62 63
f 58 63 59
f 60 64 61
f 61 64 65
f 62 66 63
f 63 66 67
f 63 67 68
f 63 68 69
f 64 70 65
f 65 70 71
f 65 71 72
f 65 72 73
f 68 74 69
f 69 74 75
f 72 76 73
f 72 77 78
f 72 78 79
f 72 79 76
f 74 80 81
f 74 81 75
f 77 82 78
f 78 82 83
f 80 84 85
f 80 85 86
f 80 86 81
f 82 87 88
f 82 88 83
f 84 89 85
f 85 89 90
f 85 90 91
f 87 92 93
f 87 93 88
f 89 94 95
f 89 95 91
f 89 91 90
f 92 96 97
f 92 97 93
f 94 98 99
f 94 99 95
f 96 100 97
f 97 100 101
f 98 102 99
f 99 103 104
f 99 102 103
f 100 105 101
f 101 105 106
f 103 107 104
f 104 107 108
f 104 108 109
f 105 110 106
f 106 110 111
f 108 112 109
f 109 112 113
f 110 114 111
f 111 114 115
f 111 115 116
f 112 117 113
f 113 117 118
f 115 119 120
f 115 120 116
f 117 121 118
f 118 121 122
f 118 122 123
f 119 124 120
f 120 124 125
f 122 126 123
f 123 126 127
f 123 127 128
f 124 129 125
f 125 129 131
f 125 131 130
f 127 132 133
f 127 133 128
f 130 131 135
f 130 135 134
f 132 136 137
f 132 137 133
f 134 135 139
f 134 139 140
f 134 140 141
f 134 141 142
f 134 142 138
f 136 143 137
f 137 143 144
f 138 142 146
f 138 146 147
f 138 147 145
f 143 148 149
f 143 149 150
f 143 150 144
f 145 147 151
f 145 151 152
f 148 153 154
f 148 154 149
f 151 155 152
f 152 155 156
f 152 156 157
f 152 157 158
f 153 159 160
f 153 160 154
f 156 161 162
f 156 162 157
f 157 162 158
f 158 162 163
f 159 164 160
f 160 164 165
f 160 165 166
f 161 167 168
f 161 168 163
f 161 163 162
f 164 169 165
f 165 169 166
f 166 169 170
f 167 171 168
f 168 171 172
f 169 173 174
f 169 174 175
f 169 175 170
f 170 175 176
f 170 176 177
f 170 177 178
f 171 179 172
f 172 179 180
f 172 180 181
f 173 182 183
f 173 183 184
f 173 184 174
f 174 184 185
f 174 185 176
f 174 176 175
f 176 185 186
f 176 186 187
f 176 187 188
f 176 188 177
f 177 188 189
f 177 189 190
f 177 190 178
f 180 191 181
f 181 191 192
f 181 192 193
f 182 186 183
f 183 186 184
f 184 186 185
f 186 194 188
f 186 188 187
f 188 194 195
f 188 195 196
f 188 196 189
f 189 197 198
f 189 198 190
f 189 196 199
f 189 199 197
f 192 200 193
f 193 200 201
f 195 202 203
f 195 203 204
f 195 204 199
f 195 199 196
f 197 199 204
f 197 204 205
f 197 205 206
f 200 207 201
f 201 207 208
f 201 208 209
f 202 210 203
f 203 210 211
f 203 211 206
f 203 206 205
f 203 205 204
f 206 211 212
f 206 212 213
f 208 214 209
f 209 214 215
f 210 216 212
f 210 212 211
f 212 216 213
f 213 216 218
f 213 218 217
f 214 219 220
f 214 220 221
f 214 221 215
f 215 221 222
f 217 218 223
f 217 223 224
f 217 224 225
f 217 225 226
f 218 227 223
f 219 228 229
f 219 229 230
f 219 230 220
f 220 230 231
f 220 231 232
f 220 232 222
f 220 222 221
f 223 227 224
f 224 227 225
f 225 227 233
f 225 233 234
f 225 234 226
f 227 235 233
f 228 236 229
f 229 236 230
f 230 236 231
f 231 236 237
f 231 237 232
f 233 235 238
f 233 238 234
f 234 238 239
f 235 240 241
f 235 241 239
f 235 239 238
f 236 242 243
f 236 243 237
f 237 243 242
f 237 242 244
f 237 244 245
f 239 241 246
f 239 246 247
f 239 247 248
f 240 249 250
f 240 250 246
f 240 246 241
f 244 251 252
f 244 252 253
f 244 253 254
f 244 254 245
f 245 254 263
f 245 263 255
f 246 250 256
f 246 256 247
f 247 256 248
f 248 256 257
f 249 258 259
f 249 259 257
f 249 257 256
f 249 256 250
f 251 260 252
f 252 260 261
f 252 261 262
f 252 262 253
f 253 262 263
f 253 263 254
f 255 263 264
f 258 265 266
f 258 266 267
f 258 267 259
f 260 268 261
f 261 268 269
f 261 269 264
f 261 264 262
f 262 264 263
f 265 270 271
f 265 271 266
f 266 271 267
f 267 271 272
f 268 273 269
f 269 273 274
f 269 274 275
f 270 276 277
f 270 277 272
f 270 272 271
f 273 278 274
f 274 278 275
f 275 279 280
f 275 278 279
f 276 281 282
f 276 282 283
f 276 283 284
f 276 284 277
f 279 285 286
f 279 286 287
f 279 287 280
f 280 287 289
f 280 289 290
f 280 290 288
f 281 291 282
f 282 291 283
f 283 291 292
f 283 292 293
f 285 294 286
f 286 294 295
f 286 295 287
f 287 295 289
f 288 290 295
f 289 295 290
f 292 296 297
f 292 297 298
f 292 298 293
f 294 299 295
f 295 299 300
f 296 301 297
f 297 302 298
f 297 301 303
f 297 303 304
f 297 304 302
f 299 305 306
f 299 306 307
f 299 307 300
f 301 308 309
f 301 309 303
f 302 304 310
f 303 309 304
f 304 309 310
f 305 311 306
f 306 311 312
f 306 312 313
f 306 313 307
f 307 313 314
f 308 315 316
f 308 316 317
f 308 317 309
f 309 317 318
f 309 318 319
f 309 319 310
f 312 320 313
f 313 321 322
f 313 322 314
f 313 320 321
f 315 323 324
f 315 324 316
f 316 324 325
f 316 325 318
f 316 318 317
f 318 325 326
f 320 327 321
f 321 327 328
f 321 328 329
f 321 329 330
f 321 330 331
f 321 331 332
f 323 333 334
f 323 334 335
f 323 335 336
f 323 336 337
f 323 337 324
f 324 337 325
f 325 337 326
f 328 338 331
f 328 331 329
f 329 331 330
f 331 339 340
f 331 340 341
f 331 341 342
f 331 342 343
f 331 343 332
f 331 338 339
f 333 344 345
f 333 345 334
f 334 345 335
f 335 345 346
f 335 347 336
f 336 347 337
f 339 341 340
f 339 348 341
f 341 349 342
f 341 348 350
f 341 350 351
f 341 351 349
f 344 351 346
f 344 346 345
f 346 351 350
f 346 350 352
f 348 352 350

