# https://github.com/mikedh/trimesh
v -0.00125623 0.02856061 -0.01326889
v -0.00062725 0.02943926 -0.01324327
v -0.00113001 0.02856061 -0.01326747
v -0.00213624 0.02856061 -0.01326035
v -0.00163276 0.02943926 -0.01324754
v -0.00113001 0.03044520 -0.01322619
v -0.00062725 0.02893685 -0.01325323
v -0.00062725 0.03094873 -0.01320768
v -0.00012377 0.03044520 -0.01321053
v -0.00062725 0.02856061 -0.01326035
v -0.00213624 0.02893685 -0.01325039
v -0.00163276 0.02994279 -0.01323473
v -0.00263899 0.02856061 -0.01324469
v -0.00113001 0.03094873 -0.01321195
v -0.00062725 0.03145113 -0.01318776
v -0.00012377 0.03094873 -0.01319630
v 0.00022138 0.03060403 -0.01319487
v 0.00022138 0.03044520 -0.01319914
v -0.00012377 0.02943926 -0.01322903
v -0.00012377 0.02893685 -0.01323758
v -0.00012377 0.02856061 -0.01324327
v -0.00163276 0.03044520 -0.01322049
v -0.00263899 0.02893685 -0.01322761
v -0.00314175 0.02856061 -0.01320199
v -0.00163276 0.03094873 -0.01319630
v -0.00113001 0.03145113 -0.01318633
v -0.00062725 0.03195466 -0.01315644
v 0.00022138 0.03195466 -0.01313082
v -0.00012377 0.03145113 -0.01317210
v 0.00022138 0.03145113 -0.01315929
v 0.00022138 0.03110643 -0.01317495
v 0.00022138 0.03094873 -0.01318206
v 0.00022138 0.02994279 -0.01320768
v 0.00022138 0.02893685 -0.01321907
v 0.00022138 0.02859215 -0.01322049
v 0.00022138 0.02856061 -0.01322049
v -0.00263899 0.02943926 -0.01319772
v -0.00213624 0.03044520 -0.01318491
v -0.00366020 0.02856061 -0.01310662
v -0.00314175 0.02893685 -0.01317495
v -0.00163276 0.03145113 -0.01315644
v -0.00113001 0.03195466 -0.01314932
v -0.00062725 0.03296060 -0.01307958
v -0.00023716 0.03331431 -0.01305111
v 0.00022138 0.03245707 -0.01309808
v 0.00022138 0.02856061 0.00122268
v -0.00213624 0.03094873 -0.01314363
v -0.00378001 0.02856061 -0.01307531
v -0.00355751 0.02893685 -0.01308812
v -0.00318882 0.02948432 -0.01311232
v -0.00163276 0.03195466 -0.01310520
v -0.00141312 0.03276797 -0.01304684
v -0.00113001 0.03245707 -0.01310520
v -0.00062725 0.03330305 -0.01305111
v 0.00022138 0.03299665 -0.01305965
v 0.00022138 0.03263843 -0.01308527
v -0.00012377 0.03396654 -0.01298563
v 0.00022138 0.03446782 -0.01293439
v 0.00022138 0.03396654 -0.01298136
v 0.00022138 0.03344386 -0.01302549
v 0.00022138 0.02877915 0.00122268
v 0.00000245 0.02856061 0.00123691
v -0.00266895 0.03046435 -0.01310093
v -0.00251134 0.03094873 -0.01307531
v -0.00195653 0.03195466 -0.01305965
v -0.00388056 0.02865862 -0.01303688
v -0.00401106 0.02856061 -0.01300271
v -0.00345981 0.02934689 -0.01306392
v -0.00338778 0.02968145 -0.01303972
v -0.00305618 0.02994279 -0.01308670
v -0.00188521 0.03220812 -0.01304115
v -0.00124339 0.03310366 -0.01302834
v -0.00109720 0.03294596 -0.01305823
v -0.00090822 0.03323095 -0.01304399
v -0.00062725 0.03355538 -0.01302122
v -0.00012377 0.03446782 -0.01293297
v 0.00022138 0.03497135 -0.01287461
v 0.00022138 0.02928155 0.00121841
v -0.00012377 0.02856061 0.00124403
v -0.00294921 0.03030889 -0.01306107
v -0.00241935 0.03126076 -0.01305111
v -0.00413515 0.02856061 -0.01295005
v -0.00363453 0.02948432 -0.01297709
v -0.00364380 0.02994279 -0.01286749
v -0.00312678 0.03046435 -0.01296428
v -0.00213624 0.03296060 -0.01279063
v -0.00285650 0.03064345 -0.01303118
v -0.00231452 0.03159645 -0.01302122
v -0.00208632 0.03240863 -0.01293297
v -0.00163276 0.03346301 -0.01286749
v -0.00160139 0.03294596 -0.01297852
v -0.00113001 0.03396654 -0.01289311
v -0.00062725 0.03497135 -0.01280629
v -0.00062725 0.03446782 -0.01289311
v -0.00062725 0.03396654 -0.01296855
v -0.00012377 0.03497135 -0.01286892
v 0.00022138 0.03547375 -0.01279632
v 0.00022138 0.02978509 0.00121271
v -0.00012377 0.02893685 0.00123976
v -0.00050102 0.02856061 0.00125826
v -0.00467000 0.02856061 -0.01268530
v -0.00414727 0.02893685 -0.01286465
v -0.00419576 0.02948657 -0.01270380
v -0.00407382 0.02994279 -0.01264687
v -0.00368730 0.03048350 -0.01269668
v -0.00250635 0.03296060 -0.01260843
v -0.00215050 0.03345174 -0.01264971
v -0.00163276 0.03396654 -0.01273654
v -0.00115568 0.03498374 -0.01264687
v -0.00113001 0.03446782 -0.01278636
v -0.00067574 0.03552332 -0.01265968
v -0.00039904 0.03626003 -0.01254723
v 0.00009944 0.03675680 -0.01254580
v -0.00012377 0.03547375 -0.01278209
v 0.00022138 0.03597728 -0.01270665
v 0.00022138 0.03028749 0.00120275
v -0.00012377 0.02943926 0.00123122
v -0.00062725 0.02893685 0.00125684
v -0.00062725 0.02856061 0.00126253
v -0.00478481 0.02856061 -0.01261982
v -0.00456802 0.02893685 -0.01264260
v -0.00439544 0.02968483 -0.01253584
v -0.00396827 0.03034156 -0.01258566
v -0.00242149 0.03327601 -0.01256004
v -0.00197079 0.03396654 -0.01258566
v -0.00144093 0.03482491 -0.01257000
v -0.00134038 0.03516059 -0.01251591
v -0.00100521 0.03538814 -0.01259278
v -0.00051742 0.03597728 -0.01258708
v -0.00087613 0.03572383 -0.01253727
v -0.00023574 0.03659459 -0.01249172
v 0.00022138 0.03678384 -0.01255292
v 0.00022138 0.03663627 -0.01258281
v -0.00009026 0.03694830 -0.01240347
v 0.00022138 0.03764896 -0.01222270
v 0.00022138 0.03748450 -0.01228817
v 0.00022138 0.03044520 0.00119848
v -0.00012377 0.03094873 0.00119706
v -0.00062725 0.02994279 0.00123549
v -0.00062725 0.02943926 0.00124688
v -0.00100378 0.02856061 0.00127107
v -0.00502585 0.02856061 -0.01245471
v -0.00489107 0.02866425 -0.01253015
v -0.00432484 0.02994279 -0.01248175
v -0.00388413 0.03067612 -0.01253015
v -0.00544803 0.02856061 -0.01207751
v -0.00465787 0.02990787 -0.01219992
v -0.00448030 0.03044520 -0.01211594
v -0.00232807 0.03361170 -0.01249883
v -0.00189092 0.03422900 -0.01254154
v -0.00115568 0.03552332 -0.01246610
v -0.00163419 0.03544334 -0.01217430
v -0.00146732 0.03585675 -0.01210598
v -0.00100449 0.03647969 -0.01212590
v -0.00090537 0.03677032 -0.01205616
v -0.00076916 0.03597728 -0.01248745
v -0.00059088 0.03644815 -0.01238211
v -0.00012449 0.03747887 -0.01215864
v 0.00004239 0.03783371 -0.01208320
v 0.00022138 0.03791706 -0.01211167
v 0.00022138 0.03094873 0.00118425
v -0.00062725 0.03094873 0.00120987
v -0.00012377 0.03145113 0.00117855
v -0.00113001 0.03044520 0.00123407
v -0.00113001 0.02856061 0.00127250
v -0.00414014 0.03048350 -0.01239635
v -0.00346908 0.03235794 -0.01211025
v -0.00295563 0.03334360 -0.01209886
v -0.00253773 0.03396654 -0.01216861
v -0.00264613 0.03347765 -0.01229956
v -0.00275737 0.03296060 -0.01243763
v -0.00569691 0.02856061 -0.01177860
v -0.00541380 0.02870367 -0.01204477
v -0.00498092 0.02943926 -0.01211309
v -0.00491460 0.02971750 -0.01204904
v -0.00441042 0.03071893 -0.01204762
v -0.00396328 0.03145113 -0.01210028
v -0.00222253 0.03396654 -0.01241912
v -0.00061441 0.03695619 -0.01214583
v -0.00198933 0.03497135 -0.01212306
v -0.00190304 0.03525522 -0.01205189
v -0.00135536 0.03619244 -0.01201061
v -0.00125623 0.03647969 -0.01190813
v -0.00109364 0.03693366 -0.01175013
v -0.00077344 0.03710601 -0.01194513
v -0.00029279 0.03764220 -0.01197787
v -0.00043755 0.03730764 -0.01207609
v -0.00015515 0.03802633 -0.01181418
v 0.00022138 0.03816489 -0.01198214
v 0.00022138 0.03129343 0.00117001
v -0.00062725 0.03145113 0.00118994
v -0.00113001 0.03094873 0.00121699
v 0.00022138 0.03145113 0.00116290
v 0.00022138 0.03179696 0.00114724
v -0.00012377 0.03195466 0.00114866
v -0.00163276 0.03044520 0.00122410
v -0.00163276 0.02994279 0.00123976
v -0.00163276 0.02943926 0.00125115
v -0.00163276 0.02856061 0.00126965
v -0.00338493 0.03269363 -0.01202484
v -0.00287148 0.03367816 -0.01201346
v -0.00243932 0.03430898 -0.01208463
v -0.00582813 0.02856061 -0.01160779
v -0.00546371 0.02930859 -0.01161064
v -0.00533036 0.02903936 -0.01194656
v -0.00483117 0.03005318 -0.01194940
v -0.00475201 0.03046885 -0.01178287
v -0.00452594 0.03091155 -0.01177717
v -0.00431914 0.03105461 -0.01194086
v -0.00389767 0.03170684 -0.01203623
v -0.00234091 0.03464354 -0.01198499
v -0.00180249 0.03558978 -0.01194229
v -0.00139957 0.03676018 -0.01155512
v -0.00094744 0.03732792 -0.01160921
v -0.00049104 0.03788327 -0.01164195
v -0.00035340 0.03821896 -0.01150673
v -0.00001823 0.03839243 -0.01165191
v 0.00022138 0.03817728 -0.01197360
v -0.00062725 0.03195466 0.00115720
v -0.00113001 0.03145113 0.00118567
v -0.00163276 0.03094873 0.00119706
v 0.00022138 0.03229936 0.00111735
v 0.00022138 0.03245707 0.00110596
v -0.00213624 0.02994279 0.00121983
v -0.00213624 0.02943926 0.00123976
v -0.00213624 0.02893685 0.00125399
v -0.00213624 0.02856061 0.00126253
v -0.00445392 0.03130469 -0.01160494
v -0.00278875 0.03396654 -0.01191809
v -0.00299271 0.03396654 -0.01166615
v -0.00291498 0.03426055 -0.01156509
v -0.00596219 0.02856061 -0.01141563
v -0.00588090 0.02863271 -0.01149107
v -0.00538028 0.02964315 -0.01149392
v -0.00496310 0.03031678 -0.01161491
v -0.00247925 0.03487109 -0.01164907
v -0.00194012 0.03581620 -0.01160637
v -0.00237727 0.03520678 -0.01151812
v -0.00183672 0.03615189 -0.01146403
v -0.00194868 0.03633099 -0.01112811
v -0.00147445 0.03695055 -0.01124198
v -0.00128262 0.03709587 -0.01138289
v -0.00082621 0.03766361 -0.01145833
v 0.00014294 0.03872812 -0.01151812
v -0.00065078 0.03801957 -0.01131457
v -0.00047535 0.03836202 -0.01117081
v -0.00033700 0.03869658 -0.01095730
v -0.00000183 0.03888132 -0.01118219
v 0.00022138 0.03864589 -0.01162487
v 0.00022138 0.03280289 0.00108034
v -0.00012377 0.03296060 0.00107322
v -0.00012377 0.03328615 0.00104760
v -0.00062725 0.03245707 0.00111593
v -0.00113001 0.03195466 0.00114582
v -0.00163276 0.03145113 0.00115578
v -0.00213624 0.03044520 0.00118994
v -0.00263899 0.02943926 0.00120702
v -0.00263899 0.02893685 0.00123264
v -0.00263899 0.02856061 0.00124688
v -0.00251277 0.02856061 0.00125115
v -0.00487823 0.03065247 -0.01149534
v -0.00342701 0.03327714 -0.01157932
v -0.00333787 0.03361283 -0.01143983
v -0.00324516 0.03396316 -0.01127614
v -0.00299271 0.03444303 -0.01125763
v -0.00291640 0.03476408 -0.01107544
v -0.00281443 0.03459511 -0.01140994
v -0.00605205 0.02856061 -0.01126333
v -0.00598145 0.02883322 -0.01115515
v -0.00238512 0.03572270 -0.01102420
v -0.00205565 0.03598066 -0.01129037
v -0.00184243 0.03666668 -0.01094306
v -0.00139244 0.03725019 -0.01104840
v -0.00093889 0.03782131 -0.01112241
v 0.00016077 0.03921701 -0.01097865
v 0.00022138 0.03887006 -0.01143983
v -0.00081052 0.03815700 -0.01089040
v -0.00042186 0.03879796 -0.01062138
v -0.00013590 0.03900748 -0.01079930
v 0.00022138 0.03350468 0.00102483
v 0.00022138 0.03383136 0.00099778
v 0.00022138 0.03396654 0.00098640
v -0.00012377 0.03353735 0.00102625
v -0.00062725 0.03327263 0.00104618
v -0.00113001 0.03245707 0.00110027
v -0.00141241 0.03276685 0.00104760
v -0.00163276 0.03195466 0.00110454
v -0.00213624 0.03094873 0.00114439
v -0.00263899 0.02994279 0.00116717
v -0.00314175 0.02893685 0.00117855
v -0.00314175 0.02856061 0.00120418
v -0.00301553 0.02856061 0.00121699
v -0.00547869 0.02984028 -0.01115800
v -0.00507791 0.03046885 -0.01130888
v -0.00497593 0.03083833 -0.01115942
v -0.00343485 0.03379419 -0.01110533
v -0.00334571 0.03412875 -0.01091460
v -0.00323803 0.03444303 -0.01075945
v -0.00298344 0.03487672 -0.01077795
v -0.00628168 0.02856061 -0.01081354
v -0.00589730 0.02916778 -0.01100569
v -0.00308898 0.03501978 -0.01032246
v -0.00245429 0.03583986 -0.01068970
v -0.00235588 0.03617554 -0.01044915
v -0.00192158 0.03678834 -0.01060714
v -0.00202713 0.03649095 -0.01077653
v -0.00171834 0.03696632 -0.01077653
v -0.00145662 0.03734031 -0.01077795
v -0.00127762 0.03759151 -0.01077795
v -0.00100449 0.03798916 -0.01074521
v 0.00006449 0.03931051 -0.01064273
v 0.00022138 0.03940963 -0.01071817
v 0.00022138 0.03929924 -0.01092456
v 0.00022138 0.03915280 -0.01111672
v -0.00089111 0.03825726 -0.01055448
v -0.00048819 0.03887682 -0.01027407
v -0.00026711 0.03912802 -0.01027407
v -0.00012377 0.03396654 0.00098924
v 0.00022138 0.03431124 0.00095651
v -0.00062725 0.03352496 0.00102198
v -0.00087970 0.03321293 0.00104049
v -0.00108080 0.03294483 0.00105472
v -0.00121487 0.03310254 0.00102910
v -0.00160139 0.03294483 0.00097928
v -0.00188521 0.03220812 0.00104049
v -0.00195653 0.03195466 0.00105899
v -0.00266895 0.03046435 0.00110311
v -0.00251277 0.03094873 0.00107607
v -0.00319025 0.02948657 0.00111308
v -0.00366733 0.02856061 0.00110881
v -0.00358960 0.02856061 0.00112446
v -0.00539454 0.03017484 -0.01100569
v -0.00488750 0.03117402 -0.01099573
v -0.00341560 0.03425942 -0.01057868
v -0.00496024 0.03130920 -0.01066123
v -0.00503797 0.03146690 -0.01028119
v -0.00494099 0.03177555 -0.01011750
v -0.00334000 0.03462327 -0.01027407
v -0.00339206 0.03471677 -0.01001786
v -0.00638722 0.02863834 -0.01047050
v -0.00546514 0.03031678 -0.01067120
v -0.00652200 0.02856061 -0.01024133
v -0.00242292 0.03628594 -0.01011323
v -0.00198434 0.03688071 -0.01027407
v -0.00181247 0.03713191 -0.01027407
v -0.00135036 0.03769515 -0.01044772
v -0.00001609 0.03939161 -0.01027407
v 0.00022138 0.03962028 -0.01027407
v -0.00141526 0.03778301 -0.01011180
v -0.00094174 0.03831921 -0.01027407
v -0.00073921 0.03857042 -0.01027407
v -0.00102446 0.03841722 -0.00977161
v -0.00081694 0.03866842 -0.00977161
v -0.00033629 0.03920236 -0.00986129
v -0.00012377 0.03446782 0.00093942
v 0.00022138 0.03446782 0.00094085
v -0.00062725 0.03396654 0.00097074
v -0.00062725 0.03446782 0.00089815
v -0.00113001 0.03396654 0.00089672
v -0.00163276 0.03346301 0.00086968
v -0.00242078 0.03126076 0.00105187
v -0.00208632 0.03240863 0.00093515
v -0.00220755 0.03195466 0.00098640
v -0.00231452 0.03159645 0.00102198
v -0.00305903 0.02994279 0.00108603
v -0.00295135 0.03030889 0.00106041
v -0.00338992 0.02968483 0.00104049
v -0.00356535 0.02893685 0.00108888
v -0.00388840 0.02867213 0.00103906
v -0.00391194 0.02856061 0.00104618
v -0.00532893 0.03046885 -0.01081354
v -0.00506793 0.03098252 -0.01080784
v -0.00442468 0.03275671 -0.01008618
v -0.00390766 0.03373786 -0.01005487
v -0.00530255 0.03095436 -0.01029257
v -0.00545088 0.03078990 -0.01013742
v -0.00536602 0.03112558 -0.00987125
v -0.00499162 0.03187018 -0.00977161
v -0.00530611 0.03151985 -0.00926915
v -0.00493314 0.03226444 -0.00914532
v -0.00441612 0.03324334 -0.00908696
v -0.00389839 0.03422225 -0.00902718
v -0.00374221 0.03442050 -0.00922503
v -0.00348120 0.03487334 -0.00926915
v -0.00333501 0.03512455 -0.00926915
v -0.00285721 0.03567088 -0.00988406
v -0.00631020 0.02894361 -0.01029115
v -0.00580744 0.02994955 -0.01029257
v -0.00538170 0.03065134 -0.01047192
v -0.00668888 0.02856061 -0.00973887
v -0.00645711 0.02877915 -0.01013458
v -0.00246998 0.03636479 -0.00977161
v -0.00231381 0.03661712 -0.00977161
v -0.00186738 0.03720964 -0.00996092
v -0.00154576 0.03751041 -0.01027834
v 0.00016790 0.03971153 -0.00989260
v 0.00022138 0.03966422 -0.01015593
v -0.00146518 0.03785285 -0.00977161
v -0.00127620 0.03810518 -0.00977161
v -0.00133824 0.03818404 -0.00926915
v -0.00086044 0.03872249 -0.00943711
v -0.00037694 0.03924855 -0.00952679
v 0.00011655 0.03975997 -0.00955668
v 0.00022138 0.03481364 0.00089957
v 0.00022138 0.03497135 0.00087964
v -0.00012377 0.03497135 0.00087252
v -0.00062725 0.03497135 0.00080847
v -0.00113001 0.03446782 0.00078997
v -0.00163276 0.03396654 0.00074015
v -0.00213624 0.03296060 0.00079282
v -0.00285650 0.03064345 0.00103052
v -0.00260833 0.03143761 0.00095081
v -0.00276451 0.03094873 0.00099921
v -0.00312820 0.03046435 0.00096647
v -0.00314175 0.03094873 0.00084690
v -0.00364380 0.02994279 0.00086968
v -0.00363595 0.02948657 0.00097786
v -0.00402889 0.02856061 0.00100205
v -0.00595435 0.02978509 -0.01013600
v -0.00637367 0.02911484 -0.00988121
v -0.00587091 0.03012077 -0.00987694
v -0.00548796 0.03095436 -0.00973033
v -0.00540809 0.03120781 -0.00953533
v -0.00525263 0.03140607 -0.00973033
v -0.00544018 0.03126864 -0.00926915
v -0.00536102 0.03162123 -0.00876527
v -0.00337566 0.03519326 -0.00891331
v -0.00483473 0.03258661 -0.00876527
v -0.00539098 0.03167755 -0.00840800
v -0.00408166 0.03396654 -0.00876527
v -0.00391978 0.03426280 -0.00876527
v -0.00378286 0.03451287 -0.00876527
v -0.00351044 0.03500401 -0.00875389
v -0.00312535 0.03547375 -0.00926915
v -0.00680654 0.02856061 -0.00926915
v -0.00641717 0.02920157 -0.00954672
v -0.00278091 0.03604600 -0.00926915
v -0.00236087 0.03668921 -0.00940011
v -0.00204353 0.03701814 -0.00978442
v -0.00191303 0.03727498 -0.00962500
v -0.00174045 0.03745972 -0.00978442
v 0.00022138 0.03982868 -0.00963924
v 0.00022138 0.03977011 -0.00984990
v -0.00177539 0.03758363 -0.00926915
v -0.00152365 0.03793283 -0.00926915
v -0.00105584 0.03852986 -0.00926915
v -0.00136819 0.03822346 -0.00892185
v -0.00089681 0.03876417 -0.00910262
v -0.00092676 0.03879684 -0.00876527
v -0.00039976 0.03927221 -0.00926915
v -0.00015872 0.03952341 -0.00926915
v 0.00009302 0.03978362 -0.00926915
v 0.00022138 0.03989627 -0.00927200
v 0.00022138 0.03531605 0.00082698
v 0.00022138 0.03581958 0.00074157
v -0.00012377 0.03547375 0.00078285
v -0.00067574 0.03552332 0.00065902
v 0.00010158 0.03675680 0.00054657
v -0.00100521 0.03538814 0.00059354
v -0.00115568 0.03498487 0.00064763
v -0.00144521 0.03482716 0.00057219
v -0.00197222 0.03396654 0.00058785
v -0.00215121 0.03345399 0.00065190
v -0.00266467 0.03246383 0.00067040
v -0.00317670 0.03147366 0.00068464
v -0.00368801 0.03048462 0.00069887
v -0.00407382 0.02994279 0.00064763
v -0.00419576 0.02948657 0.00070599
v -0.00414727 0.02893685 0.00086968
v -0.00413729 0.02856061 0.00095508
v -0.00560349 0.03094873 -0.00926915
v -0.00571117 0.03094873 -0.00876527
v -0.00549438 0.03137003 -0.00876527
v -0.00340419 0.03524057 -0.00857881
v -0.00298415 0.03588041 -0.00876527
v -0.00283154 0.03613161 -0.00876527
v -0.00239796 0.03674779 -0.00906561
v -0.00250778 0.03650447 -0.00924780
v -0.00415369 0.03396654 -0.00826281
v -0.00381780 0.03457821 -0.00826281
v -0.00590087 0.03068401 -0.00846209
v -0.00580531 0.03091606 -0.00828274
v -0.00551221 0.03148605 -0.00825000
v -0.00541237 0.03171811 -0.00807350
v -0.00691779 0.02856061 -0.00876527
v -0.00222466 0.03694267 -0.00924780
v -0.00195296 0.03733130 -0.00926915
v -0.00200145 0.03739663 -0.00876527
v -0.00181889 0.03764784 -0.00876527
v -0.00185384 0.03769740 -0.00826281
v -0.00139101 0.03825388 -0.00858592
v -0.00121130 0.03844988 -0.00875816
v -0.00121202 0.03853099 -0.00826281
v -0.00096028 0.03883514 -0.00826281
v -0.00069072 0.03904804 -0.00876527
v -0.00043898 0.03931163 -0.00876527
v -0.00019295 0.03956283 -0.00876527
v 0.00005879 0.03981742 -0.00876527
v 0.00022138 0.03996611 -0.00876527
v 0.00022138 0.03632198 0.00064621
v -0.00051101 0.03597728 0.00058358
v 0.00022138 0.03678496 0.00055226
v 0.00022138 0.03689310 0.00052095
v 0.00022138 0.03730426 0.00036864
v -0.00008954 0.03694830 0.00040708
v -0.00023360 0.03658220 0.00048963
v -0.00039049 0.03624764 0.00054372
v -0.00087613 0.03572383 0.00053660
v -0.00134038 0.03516285 0.00051668
v -0.00189306 0.03423126 0.00054230
v -0.00242292 0.03327939 0.00056080
v -0.00250920 0.03296060 0.00061062
v -0.00303407 0.03195466 0.00062343
v -0.00355608 0.03094873 0.00063624
v -0.00396899 0.03034269 0.00058642
v -0.00439544 0.02968483 0.00053518
v -0.00457016 0.02893685 0.00064478
v -0.00467071 0.02856061 0.00068891
v -0.00459084 0.02856061 0.00073161
v -0.00688428 0.02862707 -0.00876527
v -0.00637866 0.02962851 -0.00876527
v -0.00587305 0.03062881 -0.00876527
v -0.00691066 0.02868002 -0.00849767
v -0.00640576 0.02968258 -0.00848344
v -0.00359816 0.03497135 -0.00826281
v -0.00342415 0.03527549 -0.00826281
v -0.00327297 0.03552670 -0.00826281
v -0.00302195 0.03594124 -0.00826281
v -0.00286862 0.03619357 -0.00826281
v -0.00261475 0.03647969 -0.00876527
v -0.00242220 0.03678496 -0.00876527
v -0.00225319 0.03703729 -0.00876527
v -0.00529470 0.03200648 -0.00776036
v -0.00491460 0.03273193 -0.00760663
v -0.00384847 0.03463341 -0.00776036
v -0.00366020 0.03497135 -0.00776036
v -0.00643001 0.02972989 -0.00814752
v -0.00645568 0.02977945 -0.00776036
v -0.00632661 0.03003065 -0.00776036
v -0.00594508 0.03077074 -0.00776036
v -0.00581529 0.03102195 -0.00776036
v -0.00559208 0.03145113 -0.00776036
v -0.00543234 0.03175528 -0.00776036
v -0.00698911 0.02856061 -0.00837953
v -0.00229027 0.03709024 -0.00826281
v -0.00203854 0.03744620 -0.00826281
v -0.00163276 0.03798916 -0.00826281
v -0.00187523 0.03772444 -0.00792262
v -0.00141169 0.03827979 -0.00826281
v -0.00143951 0.03831358 -0.00776036
v -0.00123341 0.03856478 -0.00776036
v -0.00072138 0.03908634 -0.00826281
v -0.00098167 0.03885992 -0.00776036
v -0.00074777 0.03911112 -0.00776036
v -0.00047036 0.03933979 -0.00826281
v -0.00049603 0.03936232 -0.00776036
v 0.00003525 0.03983882 -0.00826281
v 0.00022138 0.04001117 -0.00826281
v 0.00022138 0.03791819 0.00011386
v 0.00004025 0.03783371 0.00008396
v -0.00012591 0.03748337 0.00016367
v -0.00044326 0.03731440 0.00008112
v -0.00058588 0.03644139 0.00038003
v -0.00061726 0.03695619 0.00014659
v -0.00115568 0.03552332 0.00046543
v -0.00178038 0.03456582 0.00047255
v -0.00090466 0.03677032 0.00005550
v -0.00146660 0.03585450 0.00010532
v -0.00163419 0.03544446 0.00017506
v -0.00222395 0.03396654 0.00041989
v -0.00232878 0.03361395 0.00049817
v -0.00284937 0.03263618 0.00050956
v -0.00388484 0.03067725 0.00053091
v -0.00293994 0.03230049 0.00057077
v -0.00502799 0.02856061 0.00045547
v -0.00489178 0.02866537 0.00053091
v -0.00432555 0.02994279 0.00048252
v -0.00465787 0.02990900 0.00020068
v -0.00498235 0.02943926 0.00011528
v -0.00539311 0.02856061 0.00013094
v -0.00491532 0.02856061 0.00054657
v -0.00478410 0.02856061 0.00062343
v -0.00693562 0.02872846 -0.00816175
v -0.00345625 0.03532844 -0.00776036
v -0.00268677 0.03647969 -0.00826281
v -0.00288717 0.03622285 -0.00796675
v -0.00245643 0.03683791 -0.00826281
v -0.00531895 0.03204929 -0.00725648
v -0.00439473 0.03370745 -0.00744579
v -0.00387200 0.03467734 -0.00725648
v -0.00370727 0.03497135 -0.00725648
v -0.00706398 0.02856061 -0.00776036
v -0.00616187 0.03044520 -0.00725648
v -0.00583882 0.03106813 -0.00725648
v -0.00563772 0.03145113 -0.00725648
v -0.00545516 0.03179808 -0.00725648
v -0.00700622 0.02856061 -0.00825712
v -0.00248567 0.03687959 -0.00776036
v -0.00231595 0.03713079 -0.00776036
v -0.00203354 0.03752843 -0.00775609
v -0.00189306 0.03774809 -0.00758670
v -0.00172405 0.03794523 -0.00775609
v -0.00170907 0.03801507 -0.00725648
v -0.00145733 0.03833498 -0.00725648
v -0.00124696 0.03858619 -0.00725648
v -0.00099522 0.03887456 -0.00725648
v -0.00076346 0.03912577 -0.00725648
v -0.00051172 0.03937697 -0.00725648
v 0.00001957 0.03985121 -0.00776036
v 0.00022138 0.04003820 -0.00776036
v 0.00022138 0.03816714 -0.00001283
v -0.00029493 0.03765009 -0.00002137
v -0.00077914 0.03710601 -0.00005268
v -0.00109506 0.03693366 -0.00024911
v -0.00125409 0.03647969 -0.00009254
v -0.00135322 0.03619019 0.00000852
v -0.00190447 0.03525747 0.00005407
v -0.00199076 0.03497135 0.00012524
v -0.00244003 0.03431011 0.00008539
v -0.00253773 0.03396654 0.00016937
v -0.00264755 0.03347990 0.00030032
v -0.00276094 0.03296060 0.00043981
v -0.00414085 0.03048462 0.00039711
v -0.00306046 0.03296060 0.00018930
v -0.00295777 0.03334473 0.00010105
v -0.00415012 0.03091268 0.00019072
v -0.00448102 0.03044520 0.00011528
v -0.00491532 0.02971862 0.00004980
v -0.00544945 0.02856061 0.00007969
v -0.00290071 0.03624426 -0.00763225
v -0.00330150 0.03557964 -0.00776036
v -0.00276522 0.03643914 -0.00778313
v -0.00451525 0.03350919 -0.00726929
v -0.00533250 0.03207069 -0.00675402
v -0.00512212 0.03245707 -0.00675402
v -0.00440543 0.03372773 -0.00710987
v -0.00428705 0.03392373 -0.00726929
v -0.00388555 0.03470212 -0.00675402
v -0.00347907 0.03534196 -0.00725648
v -0.00389268 0.03471564 -0.00640102
v -0.00620109 0.03044520 -0.00625014
v -0.00618897 0.03044520 -0.00675402
v -0.00635157 0.03006445 -0.00725648
v -0.00706256 0.02856061 -0.00424030
v -0.00598288 0.03083946 -0.00675402
v -0.00585023 0.03109179 -0.00675402
v -0.00566054 0.03145113 -0.00675402
v -0.00546585 0.03181949 -0.00675402
v -0.00191730 0.03778301 -0.00625014
v -0.00191374 0.03777625 -0.00675402
v -0.00190447 0.03776386 -0.00725648
v -0.00171620 0.03802746 -0.00675402
v -0.00146446 0.03834400 -0.00675402
v -0.00125552 0.03859520 -0.00675402
v -0.00100378 0.03888245 -0.00675402
v -0.00077130 0.03913365 -0.00675402
v -0.00052028 0.03938485 -0.00675402
v -0.00024358 0.03962817 -0.00725648
v 0.00022138 0.04004271 -0.00763652
v 0.00022138 0.03876529 -0.00045408
v 0.00014151 0.03873037 -0.00048112
v -0.00001894 0.03839469 -0.00034732
v -0.00015729 0.03802520 -0.00018363
v -0.00049175 0.03788327 -0.00035586
v -0.00094958 0.03733243 -0.00038718
v -0.00140028 0.03676131 -0.00044411
v -0.00180249 0.03559203 -0.00005837
v -0.00234162 0.03464354 -0.00001567
v -0.00287148 0.03367929 0.00001422
v -0.00347122 0.03235907 0.00011101
v -0.00338493 0.03269363 0.00002561
v -0.00389767 0.03170797 0.00003699
v -0.00396471 0.03145113 0.00010105
v -0.00441113 0.03072005 0.00004696
v -0.00483117 0.03005431 -0.00004983
v -0.00533107 0.02904049 -0.00005268
v -0.00541451 0.02870593 0.00004553
v -0.00560919 0.02856061 -0.00010819
v -0.00389696 0.03472240 -0.00606652
v -0.00534106 0.03208533 -0.00625014
v -0.00514352 0.03245707 -0.00625014
v -0.00495525 0.03280627 -0.00625014
v -0.00481548 0.03305860 -0.00625014
v -0.00598929 0.03085298 -0.00625014
v -0.00620038 0.03044520 -0.00574910
v -0.00704402 0.02856061 -0.00406807
v -0.00645497 0.02977833 -0.00424030
v -0.00616116 0.03044520 -0.00474276
v -0.00635085 0.03006445 -0.00474276
v -0.00618897 0.03044520 -0.00524664
v -0.00585736 0.03110418 -0.00625014
v -0.00547370 0.03183413 -0.00625014
v -0.00172048 0.03803422 -0.00625014
v -0.00191730 0.03778301 -0.00574910
v -0.00172119 0.03803534 -0.00574910
v -0.00146874 0.03834963 -0.00625014
v -0.00126122 0.03860196 -0.00625014
v -0.00100949 0.03888808 -0.00625014
v -0.00077700 0.03913928 -0.00625014
v -0.00052598 0.03939048 -0.00625014
v -0.00024929 0.03963605 -0.00675402
v 0.00000816 0.03985910 -0.00725648
v 0.00022138 0.04005397 -0.00725648
v 0.00022138 0.03887231 -0.00056083
v -0.00035412 0.03821783 -0.00049251
v 0.00022138 0.03924066 -0.00099070
v 0.00016290 0.03921476 -0.00102344
v -0.00000112 0.03888019 -0.00081562
v -0.00082692 0.03766699 -0.00054091
v -0.00128547 0.03709699 -0.00061350
v -0.00147730 0.03695055 -0.00075726
v -0.00174330 0.03649321 -0.00071029
v -0.00183743 0.03615189 -0.00053521
v -0.00237727 0.03520678 -0.00048255
v -0.00194012 0.03581733 -0.00039287
v -0.00247925 0.03487109 -0.00035017
v -0.00291498 0.03426055 -0.00043415
v -0.00278947 0.03396654 -0.00008115
v -0.00432056 0.03105574 -0.00005837
v -0.00299342 0.03396654 -0.00033309
v -0.00445463 0.03130582 -0.00039287
v -0.00452666 0.03091268 -0.00022207
v -0.00475272 0.03046885 -0.00021780
v -0.00496310 0.03031790 -0.00038576
v -0.00546443 0.02930859 -0.00038860
v -0.00569905 0.02856061 -0.00022064
v -0.00481690 0.03305973 -0.00574910
v -0.00389696 0.03472240 -0.00593984
v -0.00534106 0.03208533 -0.00574910
v -0.00514423 0.03245707 -0.00574910
v -0.00495596 0.03280740 -0.00574910
v -0.00598858 0.03085185 -0.00574910
v -0.00547299 0.03183413 -0.00574910
v -0.00700551 0.02856061 -0.00374354
v -0.00693491 0.02872733 -0.00383891
v -0.00632589 0.03002953 -0.00424030
v -0.00643001 0.02972876 -0.00385457
v -0.00590087 0.03068401 -0.00354000
v -0.00581529 0.03102082 -0.00424030
v -0.00596933 0.03081580 -0.00474276
v -0.00598216 0.03083833 -0.00524664
v -0.00563772 0.03145113 -0.00474276
v -0.00289929 0.03624313 -0.00437553
v -0.00248567 0.03687959 -0.00424030
v -0.00191374 0.03777625 -0.00524664
v -0.00171763 0.03802746 -0.00524664
v -0.00146589 0.03834400 -0.00524664
v -0.00146946 0.03834963 -0.00574910
v -0.00126051 0.03860196 -0.00574910
v -0.00100877 0.03888695 -0.00574910
v -0.00077700 0.03913816 -0.00574910
v -0.00052527 0.03939048 -0.00574910
v -0.00025428 0.03964169 -0.00625014
v -0.00025499 0.03964169 -0.00574910
v 0.00022138 0.04006186 -0.00664726
v -0.00033700 0.03869883 -0.00104336
v -0.00047678 0.03836314 -0.00082843
v -0.00065221 0.03801957 -0.00068467
v 0.00022138 0.03929586 -0.00107610
v 0.00006449 0.03931051 -0.00135936
v -0.00013590 0.03900636 -0.00120136
v -0.00093817 0.03782131 -0.00087683
v -0.00111218 0.03745972 -0.00074445
v -0.00139386 0.03725245 -0.00094942
v -0.00184456 0.03666894 -0.00105475
v -0.00194868 0.03633325 -0.00087113
v -0.00205637 0.03598179 -0.00071029
v -0.00231309 0.03552332 -0.00067755
v -0.00238583 0.03572270 -0.00097504
v -0.00281443 0.03459511 -0.00058930
v -0.00291640 0.03476520 -0.00092522
v -0.00299271 0.03444303 -0.00074160
v -0.00324587 0.03396428 -0.00072452
v -0.00333858 0.03361395 -0.00055941
v -0.00385132 0.03262717 -0.00053948
v -0.00436478 0.03164151 -0.00052240
v -0.00487895 0.03065247 -0.00050390
v -0.00342772 0.03327827 -0.00041992
v -0.00538099 0.02964428 -0.00050532
v -0.00590015 0.02856061 -0.00048255
v -0.00441470 0.03374462 -0.00524664
v -0.00427564 0.03399583 -0.00524664
v -0.00388484 0.03470100 -0.00524664
v -0.00389197 0.03471451 -0.00560534
v -0.00442539 0.03376377 -0.00574910
v -0.00428562 0.03401497 -0.00574910
v -0.00400750 0.03451513 -0.00576334
v -0.00347907 0.03534196 -0.00474276
v -0.00546585 0.03181836 -0.00524664
v -0.00533250 0.03207069 -0.00524664
v -0.00512284 0.03245707 -0.00524664
v -0.00494313 0.03278487 -0.00524664
v -0.00698839 0.02856061 -0.00362113
v -0.00682152 0.02891207 -0.00369799
v -0.00592155 0.03072569 -0.00387449
v -0.00640576 0.02968145 -0.00351864
v -0.00571117 0.03094873 -0.00323397
v -0.00549367 0.03137003 -0.00323397
v -0.00539098 0.03167755 -0.00358981
v -0.00551221 0.03148718 -0.00374923
v -0.00580459 0.03091493 -0.00371934
v -0.00559208 0.03145113 -0.00424030
v -0.00545516 0.03179808 -0.00474276
v -0.00543305 0.03175528 -0.00424030
v -0.00330292 0.03558077 -0.00424030
v -0.00302480 0.03602347 -0.00422038
v -0.00288645 0.03622285 -0.00404103
v -0.00276522 0.03643801 -0.00422038
v -0.00245715 0.03683791 -0.00373785
v -0.00229099 0.03709024 -0.00373785
v -0.00231808 0.03713191 -0.00424030
v -0.00190447 0.03776386 -0.00474276
v -0.00170978 0.03801507 -0.00474276
v -0.00145805 0.03833386 -0.00474276
v -0.00125409 0.03859520 -0.00524664
v -0.00100235 0.03888132 -0.00524664
v -0.00077130 0.03913252 -0.00524664
v -0.00052028 0.03938598 -0.00524664
v -0.00025285 0.03963718 -0.00524664
v -0.00000254 0.03986586 -0.00625014
v -0.00000397 0.03986698 -0.00574910
v -0.00000112 0.03986586 -0.00524664
v 0.00022138 0.04006524 -0.00625014
v -0.00081266 0.03815588 -0.00111169
v -0.00042115 0.03879796 -0.00137928
v 0.00022138 0.03940851 -0.00128392
v 0.00022138 0.03959550 -0.00167393
v 0.00022138 0.03961803 -0.00172517
v -0.00001609 0.03939161 -0.00172517
v -0.00026783 0.03912802 -0.00172517
v -0.00145805 0.03733693 -0.00122271
v -0.00172048 0.03696632 -0.00122271
v -0.00192230 0.03678834 -0.00139067
v -0.00202784 0.03649321 -0.00122271
v -0.00230596 0.03599643 -0.00117432
v -0.00235659 0.03617667 -0.00155009
v -0.00289073 0.03522368 -0.00147323
v -0.00296490 0.03494769 -0.00127253
v -0.00281799 0.03509977 -0.00113731
v -0.00323874 0.03444303 -0.00123979
v -0.00334571 0.03412988 -0.00108464
v -0.00343485 0.03379419 -0.00089391
v -0.00394902 0.03280965 -0.00087540
v -0.00446319 0.03182399 -0.00085690
v -0.00497593 0.03083946 -0.00083982
v -0.00547869 0.02984028 -0.00084124
v -0.00598145 0.02883322 -0.00084409
v -0.00602780 0.02856061 -0.00069321
v -0.00596362 0.02856061 -0.00058503
v -0.00588161 0.02863383 -0.00050817
v -0.00440543 0.03372773 -0.00488653
v -0.00387200 0.03467621 -0.00474276
v -0.00370655 0.03497135 -0.00474276
v -0.00531895 0.03204929 -0.00474276
v -0.00694988 0.02856061 -0.00339766
v -0.00691066 0.02868002 -0.00350441
v -0.00560278 0.03094873 -0.00273151
v -0.00544018 0.03126864 -0.00273151
v -0.00587305 0.03062881 -0.00323397
v -0.00536102 0.03162123 -0.00323397
v -0.00518131 0.03195466 -0.00323397
v -0.00463291 0.03296060 -0.00323397
v -0.00392121 0.03426505 -0.00323397
v -0.00470922 0.03296060 -0.00373785
v -0.00501159 0.03240750 -0.00373785
v -0.00528329 0.03191298 -0.00374923
v -0.00489392 0.03269588 -0.00404957
v -0.00529542 0.03200648 -0.00424030
v -0.00491460 0.03273305 -0.00438549
v -0.00345625 0.03532956 -0.00424030
v -0.00286862 0.03619244 -0.00373785
v -0.00268606 0.03647969 -0.00373785
v -0.00242220 0.03678496 -0.00323397
v -0.00203996 0.03744733 -0.00373785
v -0.00225319 0.03703729 -0.00323397
v -0.00200217 0.03739663 -0.00323397
v -0.00203497 0.03752956 -0.00423888
v -0.00189306 0.03774922 -0.00440542
v -0.00144093 0.03831471 -0.00424030
v -0.00123198 0.03856591 -0.00424030
v -0.00124482 0.03858506 -0.00474276
v -0.00099308 0.03887344 -0.00474276
v -0.00076417 0.03912577 -0.00474276
v -0.00051243 0.03937809 -0.00474276
v -0.00024643 0.03962930 -0.00474276
v 0.00000530 0.03986248 -0.00474276
v 0.00022138 0.04006524 -0.00524664
v 0.00022138 0.04006749 -0.00574910
v 0.00022138 0.04005848 -0.00474276
v -0.00088968 0.03825500 -0.00144618
v -0.00100022 0.03798916 -0.00125687
v -0.00048605 0.03887682 -0.00172517
v 0.00022138 0.03966534 -0.00185185
v 0.00016790 0.03971040 -0.00210948
v -0.00033629 0.03920236 -0.00213653
v -0.00181319 0.03713304 -0.00172517
v -0.00198505 0.03688184 -0.00172517
v -0.00242292 0.03628594 -0.00188601
v -0.00253060 0.03599643 -0.00172090
v -0.00279161 0.03555936 -0.00172517
v -0.00294065 0.03530816 -0.00172517
v -0.00339206 0.03471677 -0.00198280
v -0.00334000 0.03462327 -0.00172517
v -0.00341631 0.03425942 -0.00141914
v -0.00385917 0.03314534 -0.00105475
v -0.00349975 0.03396428 -0.00123979
v -0.00435693 0.03263054 -0.00157571
v -0.00487110 0.03164601 -0.00154582
v -0.00402461 0.03297074 -0.00122271
v -0.00437333 0.03215968 -0.00102771
v -0.00488750 0.03117515 -0.00100208
v -0.00539454 0.03017484 -0.00099354
v -0.00589730 0.02916778 -0.00099497
v -0.00623604 0.02856061 -0.00109176
v -0.00605276 0.02856061 -0.00073591
v -0.00509502 0.03245707 -0.00474276
v -0.00439473 0.03370745 -0.00455203
v -0.00428705 0.03392373 -0.00472853
v -0.00384918 0.03463566 -0.00424030
v -0.00366091 0.03497135 -0.00424030
v -0.00691708 0.02856061 -0.00323397
v -0.00672739 0.02893685 -0.00323397
v -0.00621964 0.02994279 -0.00323397
v -0.00599999 0.03037761 -0.00323397
v -0.00581885 0.03052067 -0.00273151
v -0.00540809 0.03120781 -0.00246391
v -0.00530683 0.03151985 -0.00273151
v -0.00493386 0.03226557 -0.00285250
v -0.00441612 0.03324447 -0.00290943
v -0.00389839 0.03422337 -0.00297064
v -0.00378357 0.03451513 -0.00323397
v -0.00415725 0.03396654 -0.00373785
v -0.00451596 0.03342583 -0.00424030
v -0.00437761 0.03367703 -0.00424030
v -0.00359958 0.03497135 -0.00373785
v -0.00342487 0.03527662 -0.00373785
v -0.00327297 0.03552782 -0.00373785
v -0.00302195 0.03594124 -0.00373785
v -0.00340419 0.03524057 -0.00342043
v -0.00283154 0.03613161 -0.00323397
v -0.00261546 0.03647969 -0.00323397
v -0.00239796 0.03674779 -0.00293363
v -0.00185526 0.03769853 -0.00373785
v -0.00187594 0.03772669 -0.00406950
v -0.00181960 0.03764784 -0.00323397
v -0.00195296 0.03733243 -0.00273151
v -0.00177610 0.03758363 -0.00273151
v -0.00152437 0.03793283 -0.00273151
v -0.00172618 0.03794523 -0.00423888
v -0.00141312 0.03828091 -0.00373785
v -0.00121202 0.03853324 -0.00373785
v -0.00098096 0.03885992 -0.00424030
v -0.00096028 0.03883514 -0.00373785
v -0.00074919 0.03911112 -0.00424030
v -0.00049746 0.03936458 -0.00424030
v -0.00023574 0.03961578 -0.00424030
v 0.00001600 0.03985459 -0.00424030
v 0.00022138 0.04004271 -0.00424030
v 0.00022138 0.04005510 -0.00463031
v -0.00073778 0.03856704 -0.00172517
v -0.00093889 0.03831583 -0.00172517
v -0.00141241 0.03777851 -0.00190025
v -0.00154434 0.03750703 -0.00172944
v -0.00081551 0.03866504 -0.00222905
v -0.00102161 0.03841384 -0.00222905
v 0.00022138 0.03973518 -0.00204686
v 0.00022138 0.03976898 -0.00215076
v 0.00011726 0.03975884 -0.00244398
v -0.00037694 0.03924855 -0.00247245
v -0.00086044 0.03872249 -0.00256355
v -0.00186810 0.03720964 -0.00203831
v -0.00231381 0.03661712 -0.00222905
v -0.00247070 0.03636479 -0.00222905
v -0.00285721 0.03567088 -0.00210664
v -0.00329722 0.03496234 -0.00218208
v -0.00333644 0.03512680 -0.00273151
v -0.00343200 0.03478773 -0.00231730
v -0.00374292 0.03442163 -0.00277421
v -0.00385845 0.03414903 -0.00263472
v -0.00427278 0.03343259 -0.00273720
v -0.00437547 0.03317012 -0.00257351
v -0.00504439 0.03199522 -0.00270304
v -0.00499233 0.03187130 -0.00222905
v -0.00390837 0.03373786 -0.00194437
v -0.00347693 0.03437207 -0.00172517
v -0.00442468 0.03275784 -0.00191163
v -0.00481334 0.03146803 -0.00119140
v -0.00494099 0.03177555 -0.00188174
v -0.00503797 0.03146803 -0.00171805
v -0.00496024 0.03131032 -0.00133801
v -0.00506864 0.03098365 -0.00119140
v -0.00532893 0.03046885 -0.00118570
v -0.00607487 0.02897515 -0.00118570
v -0.00628168 0.02856061 -0.00118713
v -0.00395758 0.03432926 -0.00373785
v -0.00381852 0.03458046 -0.00373785
v -0.00680583 0.02856061 -0.00273151
v -0.00641646 0.02920045 -0.00245537
v -0.00576537 0.03040126 -0.00226606
v -0.00548725 0.03095436 -0.00226890
v -0.00536602 0.03112558 -0.00212941
v -0.00525263 0.03140607 -0.00226890
v -0.00480121 0.03244355 -0.00270304
v -0.00348120 0.03487447 -0.00273151
v -0.00337637 0.03519439 -0.00308451
v -0.00351044 0.03500401 -0.00324535
v -0.00278162 0.03604938 -0.00273151
v -0.00250849 0.03650447 -0.00275286
v -0.00236087 0.03668921 -0.00259913
v -0.00222538 0.03694267 -0.00275286
v -0.00163562 0.03798916 -0.00373785
v -0.00136890 0.03822459 -0.00307455
v -0.00191303 0.03727498 -0.00237424
v -0.00133753 0.03818404 -0.00273151
v -0.00146375 0.03784948 -0.00222905
v -0.00139173 0.03825388 -0.00341047
v -0.00121130 0.03844988 -0.00323966
v -0.00092676 0.03879684 -0.00323397
v -0.00072423 0.03908634 -0.00373785
v -0.00069285 0.03904804 -0.00323397
v -0.00047321 0.03934430 -0.00373785
v -0.00021933 0.03959550 -0.00373785
v 0.00003169 0.03984107 -0.00373785
v 0.00022138 0.04003595 -0.00410793
v -0.00127335 0.03810180 -0.00222905
v 0.00022138 0.03982756 -0.00236143
v 0.00022138 0.03986698 -0.00254077
v 0.00009230 0.03978362 -0.00273151
v -0.00015872 0.03952453 -0.00273151
v -0.00040118 0.03927333 -0.00273151
v -0.00089681 0.03876417 -0.00289947
v -0.00105584 0.03852986 -0.00273151
v -0.00173902 0.03746084 -0.00221482
v -0.00204353 0.03701814 -0.00221482
v -0.00293423 0.03579817 -0.00273151
v -0.00290000 0.03574073 -0.00244256
v -0.00273598 0.03593673 -0.00225609
v -0.00300127 0.03549178 -0.00225609
v -0.00312892 0.03547375 -0.00273151
v -0.00545088 0.03078990 -0.00186324
v -0.00530255 0.03095436 -0.00170809
v -0.00538170 0.03065134 -0.00152732
v -0.00636440 0.02856061 -0.00138213
v -0.00668816 0.02856061 -0.00226179
v -0.00587091 0.03012077 -0.00212372
v -0.00044112 0.03931388 -0.00323397
v -0.00019437 0.03956509 -0.00323397
v 0.00005736 0.03981854 -0.00323397
v 0.00022138 0.04001455 -0.00373785
v 0.00022138 0.03989739 -0.00272724
v 0.00022138 0.03993682 -0.00300053
v -0.00637367 0.02911484 -0.00211945
v -0.00595435 0.02978509 -0.00186466
v -0.00580744 0.02994955 -0.00170809
v -0.00631020 0.02894361 -0.00170809
v -0.00650132 0.02856061 -0.00170809
v -0.00663611 0.02856061 -0.00208956
v 0.00022138 0.03996724 -0.00323397
v 0.00022138 0.03999878 -0.00356562
v -0.00645711 0.02877915 -0.00186466
v -0.00652200 0.02856061 -0.00175933
f 1 2 3
f 1 3 10
f 1 10 21
f 1 21 36
f 1 36 46
f 1 46 62
f 1 62 79
f 1 79 100
f 1 100 119
f 1 119 141
f 1 141 165
f 1 165 199
f 1 199 227
f 1 227 260
f 1 260 259
f 1 259 292
f 1 292 291
f 1 291 331
f 1 331 330
f 1 330 370
f 1 370 418
f 1 418 470
f 1 470 519
f 1 519 518
f 1 518 582
f 1 582 581
f 1 581 575
f 1 575 580
f 1 580 629
f 1 629 678
f 1 678 726
f 1 726 780
f 1 780 849
f 1 849 848
f 1 848 915
f 1 915 914
f 1 914 994
f 1 994 1043
f 1 1043 1056
f 1 1056 1061
f 1 1061 1057
f 1 1057 1044
f 1 1044 997
f 1 997 921
f 1 921 855
f 1 855 793
f 1 793 734
f 1 734 686
f 1 686 644
f 1 644 592
f 1 592 597
f 1 597 544
f 1 544 485
f 1 485 435
f 1 435 390
f 1 390 342
f 1 342 300
f 1 300 268
f 1 268 232
f 1 232 203
f 1 203 172
f 1 172 146
f 1 146 142
f 1 142 120
f 1 120 101
f 1 101 82
f 1 82 67
f 1 67 48
f 1 48 39
f 1 39 24
f 1 24 13
f 1 13 4
f 1 4 5
f 1 5 6
f 1 6 2
f 2 7 3
f 2 6 8
f 2 8 9
f 2 9 7
f 3 7 10
f 4 11 12
f 4 12 5
f 4 13 11
f 5 12 6
f 6 12 14
f 6 14 8
f 7 9 10
f 8 15 16
f 8 16 9
f 8 14 15
f 9 16 17
f 9 17 18
f 9 18 19
f 9 19 10
f 10 19 20
f 10 20 21
f 11 13 22
f 11 22 12
f 12 22 14
f 13 23 22
f 13 24 23
f 14 22 25
f 14 25 26
f 14 26 15
f 15 26 27
f 15 27 28
f 15 28 29
f 15 29 16
f 16 29 30
f 16 30 31
f 16 31 32
f 16 32 17
f 17 32 31
f 17 31 30
f 17 30 28
f 17 28 45
f 17 45 56
f 17 56 55
f 17 55 60
f 17 60 59
f 17 59 58
f 17 58 77
f 17 77 97
f 17 97 115
f 17 115 133
f 17 133 132
f 17 132 136
f 17 136 135
f 17 135 160
f 17 160 189
f 17 189 218
f 17 218 249
f 17 249 276
f 17 276 314
f 17 314 313
f 17 313 312
f 17 312 348
f 17 348 397
f 17 397 443
f 17 443 442
f 17 442 453
f 17 453 499
f 17 499 558
f 17 558 610
f 17 610 659
f 17 659 703
f 17 703 755
f 17 755 823
f 17 823 888
f 17 888 887
f 17 887 889
f 17 889 959
f 17 959 958
f 17 958 1024
f 17 1024 1049
f 17 1049 1059
f 17 1059 1058
f 17 1058 1051
f 17 1051 1050
f 17 1050 1027
f 17 1027 1026
f 17 1026 967
f 17 967 966
f 17 966 893
f 17 893 828
f 17 828 827
f 17 827 826
f 17 826 759
f 17 759 706
f 17 706 704
f 17 704 660
f 17 660 611
f 17 611 559
f 17 559 504
f 17 504 503
f 17 503 502
f 17 502 500
f 17 500 455
f 17 455 454
f 17 454 405
f 17 405 404
f 17 404 356
f 17 356 319
f 17 319 282
f 17 282 281
f 17 281 280
f 17 280 250
f 17 250 223
f 17 223 222
f 17 222 194
f 17 194 193
f 17 193 190
f 17 190 161
f 17 161 137
f 17 137 116
f 17 116 98
f 17 98 78
f 17 78 61
f 17 61 46
f 17 46 36
f 17 36 35
f 17 35 34
f 17 34 33
f 17 33 18
f 18 33 20
f 18 20 19
f 20 33 21
f 21 33 34
f 21 34 35
f 21 35 36
f 22 23 25
f 23 24 37
f 23 37 38
f 23 38 25
f 24 38 37
f 24 39 40
f 24 40 38
f 25 38 41
f 25 41 42
f 25 42 26
f 26 42 27
f 27 42 43
f 27 43 44
f 27 44 45
f 27 45 28
f 28 30 29
f 38 40 47
f 38 47 41
f 39 48 49
f 39 49 50
f 39 50 40
f 40 50 47
f 41 47 51
f 41 51 52
f 41 52 53
f 41 53 42
f 42 53 54
f 42 54 43
f 43 54 44
f 44 55 56
f 44 56 45
f 44 54 57
f 44 57 58
f 44 58 59
f 44 59 60
f 44 60 55
f 46 61 62
f 47 50 63
f 47 63 64
f 47 64 65
f 47 65 51
f 48 66 49
f 48 67 66
f 49 66 68
f 49 68 50
f 50 68 69
f 50 69 70
f 50 70 63
f 51 65 52
f 52 65 71
f 52 71 72
f 52 72 73
f 52 73 53
f 53 73 74
f 53 74 54
f 54 74 75
f 54 75 76
f 54 76 57
f 57 76 58
f 58 76 77
f 61 78 62
f 62 78 79
f 63 70 64
f 64 80 81
f 64 81 71
f 64 71 65
f 64 70 80
f 66 69 68
f 66 67 69
f 67 82 83
f 67 83 69
f 69 83 84
f 69 84 85
f 69 85 86
f 69 86 87
f 69 87 80
f 69 80 70
f 71 87 88
f 71 88 89
f 71 89 90
f 71 90 91
f 71 91 72
f 71 81 87
f 72 74 73
f 72 91 92
f 72 92 93
f 72 93 94
f 72 94 95
f 72 95 74
f 74 95 75
f 75 95 96
f 75 96 76
f 76 96 77
f 77 96 97
f 78 98 79
f 79 98 99
f 79 99 100
f 80 87 81
f 82 101 102
f 82 102 83
f 83 102 84
f 84 102 103
f 84 103 104
f 84 104 105
f 84 105 106
f 84 106 86
f 84 86 85
f 86 106 107
f 86 107 108
f 86 108 90
f 86 90 89
f 86 89 87
f 87 89 88
f 90 108 109
f 90 109 110
f 90 110 92
f 90 92 91
f 92 110 93
f 93 110 111
f 93 111 112
f 93 112 113
f 93 113 114
f 93 114 96
f 93 96 94
f 94 96 95
f 96 114 97
f 97 114 115
f 98 116 117
f 98 117 99
f 99 117 118
f 99 118 100
f 100 118 119
f 101 103 102
f 101 120 121
f 101 121 103
f 103 121 122
f 103 122 104
f 104 122 123
f 104 123 106
f 104 106 105
f 106 123 124
f 106 124 107
f 107 124 125
f 107 125 108
f 108 125 126
f 108 126 127
f 108 127 109
f 109 127 128
f 109 128 110
f 110 128 111
f 111 128 129
f 111 129 112
f 112 130 131
f 112 131 113
f 112 129 128
f 112 128 130
f 113 132 133
f 113 133 114
f 113 131 134
f 113 134 135
f 113 135 136
f 113 136 132
f 114 133 115
f 116 137 138
f 116 138 139
f 116 139 140
f 116 140 117
f 117 140 118
f 118 141 119
f 118 140 141
f 120 142 143
f 120 143 121
f 121 143 122
f 122 144 145
f 122 145 123
f 122 143 142
f 122 142 146
f 122 146 147
f 122 147 148
f 122 148 144
f 123 145 124
f 124 145 149
f 124 149 125
f 125 149 150
f 125 150 127
f 125 127 126
f 127 151 130
f 127 130 128
f 127 150 152
f 127 152 153
f 127 153 154
f 127 154 155
f 127 155 151
f 130 151 156
f 130 156 131
f 131 156 157
f 131 157 158
f 131 158 159
f 131 159 134
f 134 159 160
f 134 160 135
f 137 161 138
f 138 162 139
f 138 161 163
f 138 163 162
f 139 164 140
f 139 162 164
f 140 164 141
f 141 164 165
f 144 166 145
f 144 148 166
f 145 166 167
f 145 167 168
f 145 168 169
f 145 169 170
f 145 170 171
f 145 171 149
f 146 172 173
f 146 173 174
f 146 174 147
f 147 174 175
f 147 175 148
f 148 175 176
f 148 176 177
f 148 177 166
f 149 171 170
f 149 170 169
f 149 169 178
f 149 178 150
f 150 178 152
f 151 155 179
f 151 179 156
f 152 180 153
f 152 178 180
f 153 180 181
f 153 181 182
f 153 182 155
f 153 155 154
f 155 182 183
f 155 183 184
f 155 184 185
f 155 185 186
f 155 186 187
f 155 187 179
f 156 179 157
f 157 179 158
f 158 179 159
f 159 179 187
f 159 187 186
f 159 186 188
f 159 188 189
f 159 189 160
f 161 190 163
f 162 163 191
f 162 191 192
f 162 192 164
f 163 190 193
f 163 193 194
f 163 194 195
f 163 195 191
f 164 192 196
f 164 196 197
f 164 197 198
f 164 198 199
f 164 199 165
f 166 177 167
f 167 177 200
f 167 200 168
f 168 200 201
f 168 201 169
f 169 201 202
f 169 202 178
f 172 203 204
f 172 204 205
f 172 205 173
f 173 205 175
f 173 175 174
f 175 205 206
f 175 206 176
f 176 206 207
f 176 207 208
f 176 208 209
f 176 209 210
f 176 210 177
f 177 210 200
f 178 202 180
f 180 202 181
f 181 202 211
f 181 211 212
f 181 212 182
f 182 212 213
f 182 213 183
f 183 213 184
f 184 213 214
f 184 214 185
f 185 214 215
f 185 215 186
f 186 215 188
f 188 215 216
f 188 216 217
f 188 217 218
f 188 218 189
f 191 219 220
f 191 220 192
f 191 195 219
f 192 220 221
f 192 221 196
f 194 222 195
f 195 222 223
f 195 223 219
f 196 221 224
f 196 224 225
f 196 225 197
f 197 225 226
f 197 226 227
f 197 227 198
f 198 227 199
f 200 210 209
f 200 209 208
f 200 208 228
f 200 228 201
f 201 229 211
f 201 211 202
f 201 228 230
f 201 230 231
f 201 231 229
f 203 232 233
f 203 233 204
f 204 233 234
f 204 234 235
f 204 235 206
f 204 206 205
f 206 235 207
f 207 235 208
f 208 235 228
f 211 229 231
f 211 231 236
f 211 236 212
f 212 236 237
f 212 237 213
f 213 237 238
f 213 238 239
f 213 239 240
f 213 240 241
f 213 241 242
f 213 242 243
f 213 243 214
f 214 243 215
f 215 243 216
f 216 244 217
f 216 243 245
f 216 245 246
f 216 246 247
f 216 247 248
f 216 248 244
f 217 244 218
f 218 244 249
f 219 223 250
f 219 250 251
f 219 251 252
f 219 252 253
f 219 253 254
f 219 254 220
f 220 254 221
f 221 254 255
f 221 255 256
f 221 256 224
f 224 256 257
f 224 257 258
f 224 258 225
f 225 258 259
f 225 259 226
f 226 259 260
f 226 260 227
f 228 235 261
f 228 261 262
f 228 262 230
f 230 262 231
f 231 262 261
f 231 261 263
f 231 263 264
f 231 264 265
f 231 265 266
f 231 266 267
f 231 267 238
f 231 238 237
f 231 237 236
f 232 234 233
f 232 268 269
f 232 269 234
f 234 269 261
f 234 261 235
f 238 267 270
f 238 270 240
f 238 240 271
f 238 271 239
f 239 271 240
f 240 270 272
f 240 272 241
f 241 272 273
f 241 273 242
f 242 273 274
f 242 274 243
f 243 274 245
f 244 248 275
f 244 275 276
f 244 276 249
f 245 274 246
f 246 274 247
f 247 275 248
f 247 274 277
f 247 277 278
f 247 278 279
f 247 279 275
f 250 280 252
f 250 252 251
f 252 280 281
f 252 281 282
f 252 282 283
f 252 283 253
f 253 283 284
f 253 284 254
f 254 284 285
f 254 285 255
f 255 285 286
f 255 286 287
f 255 287 288
f 255 288 256
f 256 288 289
f 256 289 257
f 257 289 290
f 257 290 291
f 257 291 292
f 257 292 258
f 258 292 259
f 261 269 293
f 261 293 294
f 261 294 295
f 261 295 263
f 263 295 296
f 263 296 264
f 264 296 265
f 265 296 266
f 266 270 267
f 266 296 297
f 266 297 298
f 266 298 299
f 266 299 270
f 268 300 269
f 269 300 301
f 269 301 293
f 270 299 302
f 270 302 303
f 270 303 304
f 270 304 305
f 270 305 306
f 270 306 272
f 272 306 305
f 272 305 307
f 272 307 273
f 273 307 308
f 273 308 309
f 273 309 310
f 273 310 277
f 273 277 274
f 275 279 311
f 275 311 312
f 275 312 313
f 275 313 314
f 275 314 276
f 277 310 315
f 277 315 278
f 278 311 279
f 278 315 316
f 278 316 317
f 278 317 311
f 282 318 283
f 282 319 318
f 283 318 284
f 284 318 320
f 284 320 321
f 284 321 285
f 285 321 322
f 285 322 323
f 285 323 286
f 286 323 324
f 286 324 325
f 286 325 326
f 286 326 288
f 286 288 287
f 288 327 289
f 288 326 328
f 288 328 327
f 289 327 329
f 289 329 290
f 290 329 330
f 290 330 331
f 290 331 291
f 293 301 332
f 293 332 295
f 293 295 294
f 295 332 333
f 295 333 296
f 296 333 297
f 297 334 298
f 297 333 335
f 297 335 336
f 297 336 337
f 297 337 334
f 298 334 338
f 298 338 299
f 299 338 339
f 299 339 302
f 300 340 341
f 300 341 301
f 300 342 340
f 301 341 332
f 302 304 303
f 302 339 304
f 304 339 343
f 304 343 305
f 305 343 344
f 305 344 345
f 305 345 346
f 305 346 308
f 305 308 307
f 308 346 309
f 309 346 310
f 310 346 315
f 311 317 347
f 311 347 348
f 311 348 312
f 315 346 349
f 315 349 350
f 315 350 351
f 315 351 316
f 316 351 352
f 316 352 353
f 316 353 354
f 316 354 317
f 317 354 347
f 318 319 355
f 318 355 320
f 319 356 355
f 320 355 357
f 320 357 321
f 321 357 323
f 321 323 322
f 323 357 358
f 323 358 359
f 323 359 324
f 324 359 360
f 324 360 325
f 325 361 328
f 325 328 326
f 325 360 362
f 325 362 363
f 325 363 364
f 325 364 361
f 327 365 329
f 327 328 365
f 328 361 366
f 328 366 365
f 329 365 367
f 329 367 368
f 329 368 330
f 330 368 369
f 330 369 370
f 332 341 371
f 332 371 333
f 333 371 372
f 333 372 335
f 334 337 373
f 334 373 374
f 334 374 339
f 334 339 338
f 335 372 375
f 335 375 336
f 336 376 337
f 336 375 376
f 337 376 377
f 337 377 373
f 339 374 377
f 339 377 378
f 339 378 379
f 339 379 380
f 339 380 381
f 339 381 382
f 339 382 383
f 339 383 384
f 339 384 385
f 339 385 386
f 339 386 343
f 340 342 387
f 340 387 341
f 341 387 388
f 341 388 389
f 341 389 371
f 342 390 391
f 342 391 387
f 343 386 392
f 343 392 393
f 343 393 344
f 344 393 394
f 344 394 345
f 345 395 346
f 345 394 349
f 345 349 395
f 346 395 349
f 347 354 396
f 347 396 348
f 348 396 397
f 349 394 398
f 349 398 399
f 349 399 350
f 350 399 351
f 351 399 352
f 352 399 400
f 352 400 401
f 352 401 353
f 353 401 354
f 354 401 402
f 354 402 403
f 354 403 396
f 355 356 404
f 355 404 405
f 355 405 406
f 355 406 357
f 357 406 358
f 358 406 407
f 358 407 359
f 359 407 408
f 359 408 360
f 360 408 409
f 360 409 410
f 360 410 362
f 361 364 411
f 361 411 367
f 361 367 366
f 362 412 367
f 362 367 413
f 362 413 411
f 362 411 363
f 362 410 412
f 363 411 364
f 365 366 367
f 367 411 413
f 367 412 410
f 367 410 414
f 367 414 415
f 367 415 416
f 367 416 417
f 367 417 369
f 367 369 368
f 369 417 418
f 369 418 370
f 371 389 372
f 372 389 375
f 373 377 374
f 375 389 376
f 376 419 420
f 376 420 421
f 376 421 377
f 376 389 388
f 376 388 419
f 377 421 422
f 377 422 423
f 377 423 424
f 377 424 378
f 378 424 379
f 379 424 423
f 379 423 425
f 379 425 426
f 379 426 380
f 380 426 381
f 381 426 382
f 382 427 384
f 382 384 383
f 382 426 428
f 382 428 429
f 382 429 430
f 382 430 431
f 382 431 432
f 382 432 433
f 382 433 427
f 384 427 385
f 385 427 434
f 385 434 392
f 385 392 386
f 387 391 419
f 387 419 388
f 390 435 436
f 390 436 421
f 390 421 420
f 390 420 391
f 391 420 419
f 392 434 437
f 392 437 438
f 392 438 393
f 393 438 439
f 393 439 394
f 394 439 440
f 394 440 441
f 394 441 398
f 396 403 442
f 396 442 443
f 396 443 397
f 398 441 440
f 398 440 444
f 398 444 445
f 398 445 400
f 398 400 399
f 400 446 401
f 400 445 447
f 400 447 448
f 400 448 446
f 401 446 448
f 401 448 402
f 402 448 449
f 402 449 450
f 402 450 403
f 403 450 451
f 403 451 452
f 403 452 453
f 403 453 442
f 405 454 406
f 406 454 455
f 406 455 456
f 406 456 407
f 407 457 408
f 407 456 458
f 407 458 457
f 408 457 459
f 408 459 460
f 408 460 409
f 409 460 461
f 409 461 462
f 409 462 463
f 409 463 410
f 410 415 414
f 410 463 464
f 410 464 415
f 415 464 465
f 415 465 466
f 415 466 416
f 416 466 467
f 416 467 468
f 416 468 469
f 416 469 417
f 417 469 470
f 417 470 418
f 421 436 422
f 422 436 423
f 423 471 425
f 423 436 471
f 425 471 472
f 425 472 473
f 425 473 426
f 426 473 429
f 426 429 428
f 427 433 474
f 427 474 475
f 427 475 476
f 427 476 477
f 427 477 478
f 427 478 437
f 427 437 434
f 429 479 480
f 429 480 432
f 429 432 431
f 429 431 430
f 429 473 481
f 429 481 482
f 429 482 483
f 429 483 484
f 429 484 479
f 432 480 474
f 432 474 433
f 435 471 436
f 435 485 471
f 437 478 438
f 438 440 439
f 438 478 477
f 438 477 486
f 438 486 440
f 440 486 487
f 440 487 444
f 444 487 488
f 444 488 445
f 445 488 489
f 445 489 447
f 447 489 490
f 447 490 491
f 447 491 492
f 447 492 448
f 448 492 449
f 449 492 493
f 449 493 494
f 449 494 495
f 449 495 450
f 450 495 496
f 450 496 451
f 451 496 452
f 452 496 497
f 452 497 498
f 452 498 499
f 452 499 453
f 455 500 456
f 456 500 458
f 457 458 501
f 457 501 459
f 458 502 503
f 458 503 504
f 458 504 505
f 458 505 506
f 458 506 507
f 458 507 501
f 458 500 502
f 459 501 507
f 459 507 508
f 459 508 509
f 459 509 461
f 459 461 460
f 461 509 462
f 462 509 510
f 462 510 511
f 462 511 463
f 463 511 512
f 463 512 464
f 464 512 513
f 464 513 465
f 465 513 466
f 466 513 514
f 466 514 467
f 467 514 515
f 467 515 516
f 467 516 468
f 468 516 517
f 468 517 518
f 468 518 519
f 468 519 469
f 469 519 470
f 471 485 520
f 471 520 521
f 471 521 522
f 471 522 472
f 472 522 523
f 472 523 524
f 472 524 481
f 472 481 473
f 474 480 525
f 474 525 526
f 474 526 527
f 474 527 528
f 474 528 529
f 474 529 476
f 474 476 475
f 476 529 530
f 476 530 477
f 477 487 486
f 477 530 531
f 477 531 532
f 477 532 487
f 479 484 533
f 479 533 480
f 480 533 534
f 480 534 535
f 480 535 536
f 480 536 525
f 481 524 537
f 481 537 538
f 481 538 482
f 482 538 539
f 482 539 540
f 482 540 541
f 482 541 542
f 482 542 483
f 483 542 543
f 483 543 484
f 484 543 533
f 485 544 523
f 485 523 520
f 487 532 488
f 488 532 545
f 488 545 546
f 488 546 489
f 489 546 490
f 490 547 491
f 490 546 548
f 490 548 547
f 491 547 549
f 491 549 493
f 491 493 492
f 493 549 550
f 493 550 551
f 493 551 494
f 494 552 495
f 494 551 553
f 494 553 554
f 494 554 552
f 495 552 496
f 496 552 497
f 497 552 498
f 498 552 555
f 498 555 556
f 498 556 557
f 498 557 558
f 498 558 499
f 504 559 505
f 505 559 560
f 505 560 561
f 505 561 562
f 505 562 563
f 505 563 506
f 506 563 508
f 506 508 507
f 508 563 564
f 508 564 565
f 508 565 509
f 509 566 510
f 509 565 564
f 509 564 567
f 509 567 568
f 509 568 569
f 509 569 566
f 510 566 570
f 510 570 571
f 510 571 511
f 511 571 572
f 511 572 573
f 511 573 574
f 511 574 512
f 512 574 513
f 513 574 514
f 514 574 573
f 514 573 515
f 515 573 516
f 516 575 576
f 516 576 517
f 516 573 577
f 516 577 578
f 516 578 579
f 516 579 580
f 516 580 575
f 517 576 581
f 517 581 582
f 517 582 518
f 520 523 521
f 521 523 522
f 523 544 524
f 524 544 583
f 524 583 537
f 525 536 584
f 525 584 526
f 526 584 527
f 527 584 528
f 528 584 529
f 529 585 531
f 529 531 530
f 529 584 586
f 529 586 585
f 531 585 587
f 531 587 545
f 531 545 532
f 533 543 534
f 534 543 588
f 534 588 589
f 534 589 535
f 535 589 536
f 536 589 590
f 536 590 591
f 536 591 584
f 537 583 538
f 538 583 592
f 538 592 593
f 538 593 539
f 539 593 540
f 540 593 541
f 541 593 594
f 541 594 542
f 542 594 595
f 542 595 543
f 543 595 596
f 543 596 588
f 544 597 583
f 545 587 598
f 545 598 599
f 545 599 546
f 546 599 600
f 546 600 548
f 547 548 549
f 548 600 601
f 548 601 602
f 548 602 549
f 549 602 550
f 550 602 601
f 550 601 603
f 550 603 604
f 550 604 551
f 551 604 605
f 551 605 553
f 552 554 555
f 553 605 606
f 553 606 607
f 553 607 554
f 554 607 608
f 554 608 556
f 554 556 555
f 556 608 557
f 557 608 609
f 557 609 610
f 557 610 558
f 559 611 560
f 560 611 612
f 560 612 562
f 560 562 561
f 562 612 613
f 562 613 567
f 562 567 564
f 562 564 563
f 566 569 570
f 567 613 614
f 567 614 615
f 567 615 616
f 567 616 568
f 568 616 617
f 568 617 569
f 569 617 618
f 569 618 570
f 570 618 619
f 570 619 620
f 570 620 571
f 571 620 621
f 571 621 622
f 571 622 572
f 572 622 573
f 573 623 577
f 573 622 621
f 573 621 624
f 573 624 625
f 573 625 626
f 573 626 623
f 575 581 576
f 577 623 627
f 577 627 578
f 578 627 628
f 578 628 579
f 579 628 629
f 579 629 580
f 583 597 592
f 584 630 631
f 584 631 586
f 584 591 630
f 585 586 587
f 586 631 630
f 586 630 632
f 586 632 598
f 586 598 587
f 588 633 589
f 588 596 634
f 588 634 635
f 588 635 636
f 588 636 633
f 589 633 636
f 589 636 637
f 589 637 590
f 590 637 636
f 590 636 638
f 590 638 591
f 591 639 630
f 591 638 640
f 591 640 639
f 592 641 642
f 592 642 643
f 592 643 593
f 592 644 641
f 593 643 642
f 593 642 594
f 594 642 645
f 594 645 595
f 595 645 646
f 595 646 596
f 596 646 647
f 596 647 648
f 596 648 634
f 598 632 630
f 598 630 649
f 598 649 650
f 598 650 599
f 599 650 651
f 599 651 601
f 599 601 600
f 601 651 603
f 603 651 650
f 603 650 652
f 603 652 604
f 604 652 653
f 604 653 654
f 604 654 605
f 605 654 606
f 606 654 655
f 606 655 607
f 607 655 656
f 607 656 657
f 607 657 608
f 608 657 658
f 608 658 609
f 609 658 610
f 610 658 659
f 611 660 661
f 611 661 662
f 611 662 663
f 611 663 612
f 612 663 664
f 612 664 613
f 613 664 665
f 613 665 614
f 614 665 666
f 614 666 615
f 615 666 616
f 616 666 667
f 616 667 617
f 617 667 668
f 617 668 619
f 617 619 618
f 619 668 669
f 619 669 620
f 620 669 625
f 620 625 621
f 621 625 624
f 623 626 627
f 625 670 626
f 625 669 671
f 625 671 672
f 625 672 670
f 626 670 673
f 626 673 627
f 627 673 674
f 627 674 628
f 628 674 675
f 628 675 676
f 628 676 677
f 628 677 629
f 629 677 678
f 630 639 679
f 630 679 649
f 634 648 680
f 634 680 681
f 634 681 682
f 634 682 635
f 635 682 636
f 636 682 638
f 638 682 640
f 639 640 679
f 640 682 683
f 640 683 679
f 641 684 642
f 641 644 685
f 641 685 684
f 642 684 645
f 644 686 687
f 644 687 688
f 644 688 689
f 644 689 690
f 644 690 685
f 645 684 691
f 645 691 692
f 645 692 646
f 646 692 647
f 647 692 680
f 647 680 648
f 649 693 650
f 649 679 728
f 649 728 694
f 649 694 695
f 649 695 693
f 650 693 652
f 652 693 653
f 653 693 696
f 653 696 697
f 653 697 654
f 654 697 655
f 655 697 698
f 655 698 699
f 655 699 656
f 656 699 700
f 656 700 657
f 657 700 701
f 657 701 658
f 658 702 659
f 658 701 702
f 659 702 703
f 660 704 661
f 661 705 662
f 661 704 706
f 661 706 707
f 661 707 708
f 661 708 705
f 662 705 663
f 663 705 664
f 664 705 665
f 665 705 709
f 665 709 666
f 666 709 710
f 666 710 711
f 666 711 712
f 666 712 713
f 666 713 714
f 666 714 715
f 666 715 667
f 667 715 716
f 667 716 668
f 668 716 717
f 668 717 718
f 668 718 669
f 669 719 671
f 669 718 717
f 669 717 720
f 669 720 721
f 669 721 719
f 670 672 673
f 671 719 672
f 672 719 674
f 672 674 673
f 674 719 722
f 674 722 723
f 674 723 675
f 675 723 724
f 675 724 725
f 675 725 676
f 676 725 726
f 676 726 678
f 676 678 677
f 679 683 682
f 679 682 727
f 679 727 728
f 680 692 729
f 680 729 730
f 680 730 681
f 681 730 731
f 681 731 682
f 682 731 727
f 684 685 732
f 684 732 733
f 684 733 729
f 684 729 691
f 685 690 732
f 686 734 735
f 686 735 687
f 687 736 688
f 687 735 737
f 687 737 738
f 687 738 736
f 688 736 739
f 688 739 740
f 688 740 690
f 688 690 689
f 690 741 729
f 690 729 733
f 690 733 732
f 690 740 742
f 690 742 741
f 691 729 692
f 693 695 696
f 694 743 744
f 694 744 745
f 694 745 695
f 694 728 743
f 695 745 746
f 695 746 747
f 695 747 748
f 695 748 696
f 696 748 697
f 697 748 749
f 697 749 698
f 698 749 750
f 698 750 751
f 698 751 699
f 699 751 752
f 699 752 700
f 700 753 701
f 700 752 754
f 700 754 753
f 701 753 703
f 701 703 702
f 703 753 755
f 705 708 756
f 705 756 757
f 705 757 758
f 705 758 709
f 706 759 707
f 707 759 760
f 707 760 761
f 707 761 756
f 707 756 708
f 709 758 762
f 709 762 763
f 709 763 710
f 710 763 764
f 710 764 711
f 711 764 765
f 711 765 766
f 711 766 712
f 712 766 713
f 713 766 767
f 713 767 714
f 714 717 715
f 714 767 766
f 714 766 768
f 714 768 769
f 714 769 770
f 714 770 717
f 715 717 716
f 717 770 771
f 717 771 772
f 717 772 773
f 717 773 774
f 717 774 775
f 717 775 776
f 717 776 777
f 717 777 778
f 717 778 720
f 719 721 722
f 720 778 721
f 721 778 777
f 721 777 724
f 721 724 722
f 722 724 723
f 724 777 779
f 724 779 725
f 725 779 780
f 725 780 726
f 727 731 781
f 727 781 782
f 727 782 783
f 727 783 784
f 727 784 785
f 727 785 728
f 728 785 786
f 728 786 787
f 728 787 784
f 728 784 788
f 728 788 743
f 729 741 789
f 729 789 790
f 729 790 730
f 730 790 731
f 731 790 791
f 731 791 792
f 731 792 781
f 734 793 735
f 735 793 794
f 735 794 737
f 736 738 795
f 736 795 739
f 737 794 738
f 738 794 796
f 738 796 797
f 738 797 798
f 738 798 799
f 738 799 800
f 738 800 801
f 738 801 795
f 739 795 801
f 739 801 800
f 739 800 802
f 739 802 740
f 740 802 742
f 741 742 803
f 741 803 789
f 742 802 804
f 742 804 803
f 743 788 805
f 743 805 806
f 743 806 807
f 743 807 808
f 743 808 744
f 744 808 807
f 744 807 809
f 744 809 810
f 744 810 811
f 744 811 745
f 745 811 812
f 745 812 813
f 745 813 746
f 746 813 814
f 746 814 747
f 747 815 749
f 747 749 748
f 747 814 815
f 749 815 816
f 749 816 750
f 750 816 817
f 750 817 751
f 751 817 818
f 751 818 752
f 752 818 819
f 752 819 754
f 753 820 755
f 753 754 821
f 753 821 820
f 754 819 822
f 754 822 821
f 755 820 823
f 756 824 757
f 756 761 825
f 756 825 824
f 757 824 762
f 757 762 758
f 759 826 760
f 760 826 827
f 760 827 828
f 760 828 829
f 760 829 830
f 760 830 825
f 760 825 761
f 762 824 764
f 762 764 763
f 764 824 831
f 764 831 832
f 764 832 765
f 765 769 766
f 765 832 833
f 765 833 834
f 765 834 769
f 766 769 768
f 769 834 833
f 769 833 835
f 769 835 836
f 769 836 837
f 769 837 838
f 769 838 839
f 769 839 771
f 769 771 770
f 771 839 838
f 771 838 840
f 771 840 841
f 771 841 842
f 771 842 772
f 772 842 773
f 773 842 774
f 774 842 843
f 774 843 844
f 774 844 775
f 775 844 776
f 776 844 845
f 776 845 777
f 777 845 846
f 777 846 847
f 777 847 779
f 779 847 848
f 779 848 849
f 779 849 850
f 779 850 780
f 780 850 849
f 781 792 851
f 781 851 782
f 782 851 783
f 783 851 852
f 783 852 853
f 783 853 784
f 784 787 786
f 784 786 785
f 784 853 788
f 788 853 805
f 789 803 790
f 790 803 854
f 790 854 791
f 791 854 792
f 792 854 851
f 793 855 856
f 793 856 796
f 793 796 794
f 796 856 797
f 797 857 858
f 797 858 798
f 797 856 859
f 797 859 857
f 798 860 799
f 798 858 860
f 799 860 861
f 799 861 862
f 799 862 863
f 799 863 864
f 799 864 865
f 799 865 866
f 799 866 804
f 799 804 800
f 800 804 802
f 803 804 854
f 804 866 865
f 804 865 864
f 804 864 867
f 804 867 868
f 804 868 869
f 804 869 854
f 805 853 870
f 805 870 938
f 805 938 871
f 805 871 807
f 805 807 806
f 807 871 872
f 807 872 809
f 809 872 873
f 809 873 810
f 810 874 811
f 810 873 875
f 810 875 876
f 810 876 874
f 811 877 878
f 811 878 812
f 811 874 877
f 812 878 813
f 813 878 879
f 813 879 814
f 814 879 880
f 814 880 881
f 814 881 815
f 815 881 882
f 815 882 816
f 816 882 883
f 816 883 817
f 817 883 818
f 818 883 884
f 818 884 885
f 818 885 819
f 819 885 886
f 819 886 822
f 820 821 823
f 821 822 887
f 821 887 888
f 821 888 823
f 822 886 889
f 822 889 887
f 824 825 890
f 824 890 891
f 824 891 831
f 825 830 892
f 825 892 890
f 828 893 829
f 829 893 894
f 829 894 895
f 829 895 830
f 830 895 892
f 831 891 890
f 831 890 896
f 831 896 833
f 831 833 832
f 833 836 835
f 833 896 897
f 833 897 898
f 833 898 836
f 836 898 899
f 836 899 900
f 836 900 901
f 836 901 837
f 837 901 902
f 837 902 903
f 837 903 838
f 838 903 840
f 840 904 841
f 840 903 904
f 841 905 842
f 841 904 906
f 841 906 907
f 841 907 908
f 841 908 909
f 841 909 905
f 842 905 910
f 842 910 911
f 842 911 843
f 843 911 844
f 844 911 845
f 845 911 912
f 845 912 846
f 846 912 913
f 846 913 847
f 847 913 914
f 847 914 915
f 847 915 848
f 851 854 916
f 851 916 917
f 851 917 918
f 851 918 852
f 852 918 917
f 852 917 919
f 852 919 853
f 853 919 920
f 853 920 870
f 854 869 917
f 854 917 916
f 855 921 922
f 855 922 923
f 855 923 856
f 856 923 924
f 856 924 859
f 857 925 926
f 857 926 858
f 857 859 924
f 857 924 923
f 857 923 925
f 858 926 927
f 858 927 860
f 860 927 928
f 860 928 861
f 861 928 929
f 861 929 930
f 861 930 862
f 862 930 863
f 863 931 932
f 863 932 864
f 863 930 931
f 864 932 867
f 867 869 868
f 867 932 869
f 869 932 933
f 869 933 934
f 869 934 919
f 869 919 917
f 870 920 935
f 870 935 936
f 870 936 937
f 870 937 938
f 871 938 939
f 871 939 940
f 871 940 941
f 871 941 873
f 871 873 872
f 873 941 942
f 873 942 875
f 874 943 944
f 874 944 877
f 874 876 945
f 874 945 943
f 875 942 946
f 875 946 876
f 876 946 947
f 876 947 948
f 876 948 945
f 877 944 878
f 878 944 949
f 878 949 879
f 879 949 950
f 879 950 951
f 879 951 880
f 880 952 881
f 880 951 953
f 880 953 952
f 881 952 882
f 882 952 883
f 883 952 954
f 883 954 955
f 883 955 884
f 884 955 956
f 884 956 957
f 884 957 885
f 885 957 886
f 886 957 958
f 886 958 959
f 886 959 889
f 890 892 960
f 890 960 961
f 890 961 962
f 890 962 963
f 890 963 896
f 892 895 964
f 892 964 965
f 892 965 960
f 893 966 894
f 894 966 967
f 894 967 968
f 894 968 895
f 895 968 969
f 895 969 970
f 895 970 964
f 896 963 962
f 896 962 971
f 896 971 897
f 897 971 972
f 897 972 898
f 898 972 973
f 898 973 974
f 898 974 902
f 898 902 899
f 899 902 900
f 900 902 901
f 902 974 975
f 902 975 976
f 902 976 977
f 902 977 978
f 902 978 930
f 902 930 979
f 902 979 980
f 902 980 981
f 902 981 982
f 902 982 983
f 902 983 984
f 902 984 985
f 902 985 904
f 902 904 903
f 904 907 906
f 904 985 984
f 904 984 986
f 904 986 907
f 905 909 908
f 905 908 987
f 905 987 910
f 907 986 988
f 907 988 989
f 907 989 908
f 908 990 987
f 908 989 990
f 910 987 911
f 911 987 990
f 911 990 991
f 911 991 912
f 912 991 992
f 912 992 993
f 912 993 913
f 913 993 994
f 913 994 914
f 919 934 995
f 919 995 996
f 919 996 935
f 919 935 920
f 921 997 925
f 921 925 922
f 922 925 923
f 925 997 926
f 926 998 999
f 926 999 1000
f 926 1000 1001
f 926 1001 1002
f 926 1002 982
f 926 982 927
f 926 997 998
f 927 982 928
f 928 980 929
f 928 982 1003
f 928 1003 980
f 929 980 930
f 930 978 1004
f 930 1004 1005
f 930 1005 931
f 930 980 979
f 931 1005 1006
f 931 1006 939
f 931 939 996
f 931 996 995
f 931 995 932
f 932 995 933
f 933 995 934
f 935 996 939
f 935 939 936
f 936 939 937
f 937 939 938
f 939 1006 1005
f 939 1005 940
f 940 1005 942
f 940 942 941
f 942 1005 1007
f 942 1007 1008
f 942 1008 1009
f 942 1009 1010
f 942 1010 946
f 943 1011 944
f 943 945 1012
f 943 1012 1011
f 944 1011 950
f 944 950 949
f 945 948 1012
f 946 1013 947
f 946 1010 1013
f 947 1013 948
f 948 1014 1012
f 948 1013 1015
f 948 1015 1014
f 950 1011 1016
f 950 1016 951
f 951 1016 1017
f 951 1017 1018
f 951 1018 953
f 952 953 954
f 953 1019 954
f 953 1018 1020
f 953 1020 1019
f 954 1019 1021
f 954 1021 955
f 955 1021 1022
f 955 1022 1023
f 955 1023 956
f 956 1023 957
f 957 1023 1024
f 957 1024 958
f 960 965 1025
f 960 1025 961
f 961 1025 962
f 962 1025 1015
f 962 1015 971
f 964 970 965
f 965 970 1025
f 967 1026 968
f 968 1026 1027
f 968 1027 1028
f 968 1028 1029
f 968 1029 1030
f 968 1030 969
f 969 1030 1031
f 969 1031 970
f 970 1032 1014
f 970 1014 1025
f 970 1031 1032
f 971 1015 1033
f 971 1033 1013
f 971 1013 1034
f 971 1034 972
f 972 1009 973
f 972 1034 1009
f 973 1009 1007
f 973 1007 1035
f 973 1035 1036
f 973 1036 1037
f 973 1037 974
f 974 1037 1036
f 974 1036 1038
f 974 1038 975
f 975 1038 1036
f 975 1036 976
f 976 1005 1004
f 976 1004 977
f 976 1036 1039
f 976 1039 1005
f 977 1004 978
f 980 1003 981
f 981 1003 982
f 982 1002 983
f 983 1002 1001
f 983 1001 984
f 984 1001 986
f 986 1001 988
f 988 1001 1040
f 988 1040 989
f 989 1040 1041
f 989 1041 990
f 990 1041 991
f 991 1041 1042
f 991 1042 992
f 992 1042 993
f 993 1042 1043
f 993 1043 994
f 997 1044 998
f 998 1044 1045
f 998 1045 999
f 999 1045 1001
f 999 1001 1000
f 1001 1045 1040
f 1005 1039 1035
f 1005 1035 1007
f 1007 1009 1008
f 1009 1034 1013
f 1009 1013 1010
f 1011 1012 1016
f 1012 1031 1018
f 1012 1018 1017
f 1012 1017 1016
f 1012 1014 1031
f 1013 1033 1015
f 1014 1032 1031
f 1014 1015 1025
f 1018 1031 1030
f 1018 1030 1020
f 1019 1020 1046
f 1019 1046 1021
f 1020 1030 1046
f 1021 1046 1047
f 1021 1047 1048
f 1021 1048 1022
f 1022 1048 1023
f 1023 1049 1024
f 1023 1048 1049
f 1027 1050 1028
f 1028 1050 1051
f 1028 1051 1048
f 1028 1048 1047
f 1028 1047 1046
f 1028 1046 1029
f 1029 1046 1030
f 1035 1039 1036
f 1040 1045 1052
f 1040 1052 1053
f 1040 1053 1042
f 1040 1042 1041
f 1042 1054 1055
f 1042 1055 1043
f 1042 1053 1054
f 1043 1055 1056
f 1044 1057 1052
f 1044 1052 1045
f 1048 1058 1059
f 1048 1059 1049
f 1048 1051 1058
f 1052 1057 1060
f 1052 1060 1053
f 1053 1060 1055
f 1053 1055 1054
f 1055 1060 1056
f 1056 1060 1061
f 1057 1061 1060

