# https://github.com/mikedh/trimesh
v 0.00215592 0.00240709 -0.00826356
v 0.00215550 0.00240709 -0.00841822
v 0.00207745 0.00248488 -0.00826356
v 0.00205395 0.00245631 -0.00776055
v 0.00211480 0.00240709 -0.00787166
v 0.00215215 0.00240709 -0.00876608
v 0.00207452 0.00248311 -0.00876608
v 0.00182274 0.00265685 -0.00876608
v 0.00182610 0.00265694 -0.00826356
v 0.00180218 0.00263638 -0.00776055
v 0.00210179 0.00240709 -0.00776055
v 0.00173042 0.00258771 -0.00746825
v 0.00212109 0.00240709 -0.00888620
v 0.00198136 0.00241704 -0.00926909
v 0.00173000 0.00259413 -0.00926909
v 0.00114715 0.00303941 -0.00903735
v 0.00140648 0.00290819 -0.00876608
v 0.00140899 0.00290829 -0.00826356
v 0.00115009 0.00304108 -0.00790319
v 0.00134479 0.00290847 -0.00774553
v 0.00110812 0.00301921 -0.00756785
v 0.00182904 0.00240709 -0.00744523
v 0.00033308 0.00335766 -0.00736264
v -0.00109490 0.00335766 -0.00598924
v 0.00199269 0.00240709 -0.00926909
v 0.00198723 0.00240709 -0.00927760
v 0.00163811 0.00253141 -0.00952135
v 0.00134269 0.00284343 -0.00923055
v -0.00014949 0.00335766 -0.00925608
v 0.00010858 0.00335766 -0.00876608
v 0.00019124 0.00335766 -0.00848879
v 0.00026888 0.00335766 -0.00811391
v 0.00033308 0.00335766 -0.00772351
v 0.00115512 0.00304313 -0.00876608
v -0.00213095 0.00335766 -0.01110247
v -0.00060856 0.00335766 -0.00969102
v 0.00115722 0.00304434 -0.00826356
v 0.00034063 0.00335766 -0.00746325
v 0.00138507 0.00240709 -0.00739768
v -0.00213095 0.00301558 -0.00598924
v -0.00213095 0.00335766 -0.00598924
v 0.00172917 0.00240709 -0.00955438
v 0.00164482 0.00240709 -0.00958692
v 0.00138507 0.00240709 -0.00965549
v 0.00123485 0.00240709 -0.00968602
v 0.00088195 0.00240709 -0.00973056
v 0.00075396 0.00240709 -0.00973457
v 0.00025083 0.00240709 -0.00975008
v -0.00175329 0.00240709 -0.00981065
v -0.00212676 0.00240709 -0.00981365
v -0.00213011 0.00240709 -0.00981365
v -0.00213095 0.00240709 -0.00980214
v -0.00213095 0.00240709 -0.00731259
f 1 2 3
f 1 3 4
f 1 4 5
f 1 5 11
f 1 11 22
f 1 22 39
f 1 39 53
f 1 53 52
f 1 52 51
f 1 51 50
f 1 50 49
f 1 49 48
f 1 48 47
f 1 47 46
f 1 46 45
f 1 45 44
f 1 44 43
f 1 43 42
f 1 42 26
f 1 26 25
f 1 25 13
f 1 13 6
f 1 6 2
f 2 6 7
f 2 7 3
f 3 7 8
f 3 8 9
f 3 9 10
f 3 10 4
f 4 11 5
f 4 10 12
f 4 12 11
f 6 13 7
f 7 13 14
f 7 14 15
f 7 15 8
f 8 15 16
f 8 16 17
f 8 17 9
f 9 18 19
f 9 19 10
f 9 17 18
f 10 20 21
f 10 21 12
f 10 19 20
f 11 12 22
f 12 21 23
f 12 23 24
f 12 24 22
f 13 25 14
f 14 25 26
f 14 26 27
f 14 27 15
f 15 28 16
f 15 27 28
f 16 29 30
f 16 30 31
f 16 31 32
f 16 32 33
f 16 33 34
f 16 34 17
f 16 28 35
f 16 35 36
f 16 36 29
f 17 34 37
f 17 37 18
f 18 37 19
f 19 37 38
f 19 38 23
f 19 23 21
f 19 21 20
f 22 24 40
f 22 40 39
f 23 38 33
f 23 33 32
f 23 32 31
f 23 31 30
f 23 30 29
f 23 29 36
f 23 36 35
f 23 35 41
f 23 41 24
f 24 41 40
f 26 42 27
f 27 42 35
f 27 35 28
f 33 38 34
f 34 38 37
f 35 42 43
f 35 43 44
f 35 44 45
f 35 45 46
f 35 46 47
f 35 47 48
f 35 48 49
f 35 49 50
f 35 50 51
f 35 51 52
f 35 52 53
f 35 53 40
f 35 40 41
f 39 40 53

