# https://github.com/mikedh/trimesh
v -0.00341780 0.00335775 0.00011005
v -0.00452114 0.00335775 0.00091461
v -0.00635328 0.00145856 0.00108639
v -0.00341780 -0.00041001 -0.00222435
v -0.00341780 0.00335775 -0.01210519
v -0.00479592 0.00335775 0.00110547
v -0.00617489 0.00180601 0.00115392
v -0.00667456 0.00128373 0.00116273
v -0.00684957 0.00096357 0.00108345
v -0.00706432 0.00062829 0.00094397
v -0.00739997 0.00050767 0.00104968
v -0.00740336 0.00000826 0.00054610
v -0.00720805 -0.00013117 0.00028329
v -0.00716578 -0.00041001 -0.00004411
v -0.00341780 -0.00041001 -0.00977519
v -0.00356914 0.00335775 -0.01221824
v -0.00488216 0.00335775 0.00115099
v -0.00615967 0.00227851 0.00134185
v -0.00666272 0.00177577 0.00136681
v -0.00716578 0.00127303 0.00134038
v -0.00720552 0.00078578 0.00113484
v -0.00766883 0.00076992 0.00124348
v -0.00766883 0.00045677 0.00108786
v -0.00766883 0.00020522 0.00084561
v -0.00766883 -0.00003416 0.00059455
v -0.00752510 -0.00041001 0.00013207
v -0.00739237 -0.00041001 0.00007922
v -0.00716578 -0.00041001 -0.01195250
v -0.00721059 -0.00012822 -0.01228430
v -0.00707362 0.00010711 -0.01245021
v -0.00740928 0.00051394 -0.01304482
v -0.00707362 0.00063087 -0.01294352
v -0.00685126 0.00096652 -0.01308152
v -0.00635244 0.00145856 -0.01308740
v -0.00456595 0.00335775 -0.01294352
v -0.00502251 0.00335775 0.00121852
v -0.00558390 0.00335775 0.00142407
v -0.00565661 0.00328472 0.00142847
v -0.00615967 0.00278161 0.00145930
v -0.00666272 0.00227851 0.00147545
v -0.00716578 0.00177577 0.00144903
v -0.00766883 0.00127303 0.00138590
v -0.00817105 0.00040624 0.00111575
v -0.00817105 0.00076992 0.00125082
v -0.00817105 0.00015469 0.00090874
v -0.00817105 -0.00008875 0.00065621
v -0.00769335 -0.00041001 0.00018640
v -0.00763163 -0.00032186 0.00026421
v -0.00717762 -0.00041001 -0.01195837
v -0.00740843 0.00001121 -0.01254270
v -0.00766883 0.00046083 -0.01308446
v -0.00766883 0.00076992 -0.01323862
v -0.00721143 0.00078726 -0.01312851
v -0.00766883 0.00020928 -0.01284662
v -0.00667541 0.00128373 -0.01316815
v -0.00617489 0.00180601 -0.01315346
v -0.00488385 0.00335775 -0.01315053
v -0.00472744 0.00335775 -0.01305363
v -0.00565661 0.00335775 0.00143435
v -0.00615967 0.00328472 0.00149307
v -0.00666272 0.00278161 0.00150041
v -0.00716578 0.00227851 0.00147692
v -0.00766883 0.00177577 0.00141673
v -0.00817105 0.00127303 0.00131542
v -0.00867410 0.00045936 0.00107611
v -0.00867410 0.00020780 0.00090580
v -0.00867410 0.00076992 0.00114512
v -0.00892690 0.00051727 0.00104087
v -0.00867410 -0.00008912 0.00065328
v -0.00817105 -0.00034030 0.00036845
v -0.00817105 -0.00041001 0.00028623
v -0.00752764 -0.00041001 -0.01213014
v -0.00766883 -0.00003490 -0.01259556
v -0.00817105 0.00040772 -0.01311676
v -0.00817105 0.00015616 -0.01290828
v -0.00817105 0.00076992 -0.01325183
v -0.00766883 0.00127303 -0.01338397
v -0.00716578 0.00127303 -0.01334286
v -0.00817105 -0.00009170 -0.01265722
v -0.00666272 0.00177577 -0.01337222
v -0.00615967 0.00227851 -0.01334139
v -0.00512312 0.00325558 -0.01322100
v -0.00512904 0.00335775 -0.01325477
v -0.00608696 0.00335775 0.00148867
v -0.00615967 0.00335775 0.00149307
v -0.00666272 0.00328472 0.00149601
v -0.00716578 0.00278161 0.00146958
v -0.00766883 0.00227851 0.00141232
v -0.00817105 0.00177577 0.00131396
v -0.00867410 0.00127303 0.00116861
v -0.00942995 0.00001453 0.00053876
v -0.00917631 -0.00002973 0.00058574
v -0.00894972 0.00076992 0.00105262
v -0.00920083 0.00076992 0.00093076
v -0.00965231 0.00076992 0.00067970
v -0.00954071 0.00026719 0.00060776
v -0.00919660 -0.00041001 0.00015116
v -0.00882375 -0.00041001 0.00024072
v -0.00867410 -0.00034067 0.00035670
v -0.00867410 -0.00041001 0.00027155
v -0.00769674 -0.00041001 -0.01218740
v -0.00763417 -0.00032149 -0.01226522
v -0.00858955 0.00044313 -0.01308740
v -0.00867410 -0.00008949 -0.01265135
v -0.00817105 0.00127303 -0.01331790
v -0.00892521 0.00051911 -0.01304041
v -0.00872398 0.00072013 -0.01312557
v -0.00766883 0.00177577 -0.01341774
v -0.00716578 0.00177577 -0.01345444
v -0.00802816 -0.00041001 -0.01226669
v -0.00817105 -0.00034325 -0.01237093
v -0.00666272 0.00227851 -0.01347206
v -0.00615967 0.00278161 -0.01345885
v -0.00565661 0.00328472 -0.01342801
v -0.00565661 0.00335775 -0.01343389
v -0.00659001 0.00335775 0.00149454
v -0.00666272 0.00335775 0.00149454
v -0.00709307 0.00335775 0.00146518
v -0.00716578 0.00328472 0.00146077
v -0.00759528 0.00335775 0.00140058
v -0.00766883 0.00335775 0.00139030
v -0.00716578 0.00335775 0.00145930
v -0.00817105 0.00335775 0.00127725
v -0.00857095 0.00335775 0.00114512
v -0.00863859 0.00328472 0.00112456
v -0.00896156 0.00127303 0.00105849
v -0.00979181 0.00026719 0.00044479
v -0.01000065 -0.00004191 0.00009096
v -0.00963033 -0.00011383 0.00027008
v -0.00967937 -0.00039674 -0.00006613
v -0.00963033 -0.00041001 -0.00004998
v -0.00930736 -0.00041001 0.00011886
v -0.00921351 0.00127303 0.00092929
v -0.00964639 0.00127303 0.00067677
v -0.00990342 0.00076992 0.00051820
v -0.00872398 0.00027235 -0.01293030
v -0.00867410 -0.00034104 -0.01236505
v -0.00913911 -0.00041001 -0.01217859
v -0.00917631 -0.00003158 -0.01258675
v -0.00817105 0.00177577 -0.01331790
v -0.00867410 0.00127303 -0.01317549
v -0.00914757 0.00072013 -0.01295526
v -0.00896072 0.00085439 -0.01305803
v -0.00943249 0.00001305 -0.01253977
v -0.00954156 0.00026719 -0.01261024
v -0.00964978 0.00076992 -0.01268365
v -0.00766883 0.00227851 -0.01341186
v -0.00716578 0.00278161 -0.01346912
v -0.00716578 0.00227851 -0.01347500
v -0.00666272 0.00278161 -0.01349849
v -0.00817105 -0.00041001 -0.01229164
v -0.00851346 -0.00041001 -0.01228724
v -0.00615967 0.00328472 -0.01349261
v -0.00615967 0.00335775 -0.01349261
v -0.00863690 0.00335775 0.00112309
v -0.00888885 0.00335775 0.00102619
v -0.00917631 0.00335775 0.00087937
v -0.01043606 0.00051431 0.00003664
v -0.01017397 0.00031477 0.00016290
v -0.01033630 0.00017903 -0.00006173
v -0.01049017 -0.00004596 -0.00039647
v -0.01015790 -0.00021157 -0.00024231
v -0.01004546 -0.00041001 -0.00035536
v -0.00971065 -0.00041001 -0.00010137
v -0.00967937 -0.00041001 -0.00008081
v -0.00952887 0.00335775 0.00067677
v -0.00958721 0.00335775 0.00064300
v -0.00958890 0.00328472 0.00064447
v -0.00989834 0.00127303 0.00051380
v -0.01018242 0.00076992 0.00027155
v -0.00867410 -0.00041001 -0.01228430
v -0.00931412 -0.00041001 -0.01212280
v -0.00920590 -0.00031743 -0.01226081
v -0.00867410 0.00177577 -0.01316521
v -0.00817105 0.00335775 -0.01328120
v -0.00766883 0.00335775 -0.01338984
v -0.00897255 0.00127303 -0.01306391
v -0.00922366 0.00127303 -0.01293471
v -0.00963202 -0.00011863 -0.01227403
v -0.01000318 -0.00004781 -0.01209785
v -0.00979351 0.00026719 -0.01244874
v -0.00943756 -0.00041001 -0.01206995
v -0.00964639 -0.00041001 -0.01194662
v -0.00967937 -0.00040153 -0.01193635
v -0.00990173 0.00076992 -0.01251628
v -0.00964470 0.00127303 -0.01268365
v -0.00716578 0.00335775 -0.01345885
v -0.00716578 0.00328472 -0.01346031
v -0.00673543 0.00335775 -0.01348821
v -0.00666272 0.00328472 -0.01349408
v -0.00666272 0.00335775 -0.01349261
v -0.01064067 0.00076992 -0.00021589
v -0.01088755 0.00076992 -0.00054623
v -0.01083175 0.00026719 -0.00062551
v -0.01055189 0.00031477 -0.00022323
v -0.01043776 0.00076992 0.00003958
v -0.01093997 0.00001158 -0.00096612
v -0.01063813 -0.00018502 -0.00078994
v -0.01050539 -0.00041001 -0.00090152
v -0.01034644 -0.00041001 -0.00069157
v -0.01031432 -0.00038124 -0.00061376
v -0.01029656 -0.00041001 -0.00063138
v -0.00980196 0.00335775 0.00049618
v -0.00985353 0.00278161 0.00048297
v -0.00983832 0.00335775 0.00046975
v -0.01008435 0.00335775 0.00025540
v -0.01015452 0.00227851 0.00024219
v -0.01016720 0.00177577 0.00025246
v -0.01022977 0.00126049 0.00021869
v -0.01043691 0.00108418 0.00003811
v -0.00895902 0.00177577 -0.01305803
v -0.00894634 0.00227851 -0.01305069
v -0.00892436 0.00302542 -0.01304041
v -0.00872398 0.00282735 -0.01311970
v -0.00866311 0.00328472 -0.01312997
v -0.00866057 0.00335775 -0.01312851
v -0.00921098 0.00177577 -0.01292737
v -0.01004630 -0.00041001 -0.01164565
v -0.01015875 -0.00021489 -0.01175723
v -0.01049271 -0.00004633 -0.01160160
v -0.01033799 0.00017608 -0.01193635
v -0.01017566 0.00031329 -0.01216685
v -0.01043776 0.00051136 -0.01203912
v -0.00967937 -0.00041001 -0.01192607
v -0.01018242 0.00076992 -0.01226962
v -0.00989581 0.00127303 -0.01251040
v -0.00959228 0.00328472 -0.01265135
v -0.01058909 0.00126049 -0.00017037
v -0.01061361 0.00177577 -0.00023350
v -0.01060093 0.00227851 -0.00024819
v -0.01057641 0.00328472 -0.00027902
v -0.01087656 0.00127303 -0.00056384
v -0.01102789 0.00127303 -0.00081490
v -0.01103804 0.00076992 -0.00079728
v -0.01099239 0.00026719 -0.00087657
v -0.01058402 -0.00041001 -0.00102045
v -0.01116486 0.00026719 -0.00122306
v -0.01136355 0.00024948 -0.00170755
v -0.01141766 0.00007022 -0.00205845
v -0.01100084 -0.00007068 -0.00122306
v -0.01091460 -0.00041001 -0.00159304
v -0.01087317 -0.00041001 -0.00150935
v -0.01078947 -0.00032223 -0.00122306
v -0.01071169 -0.00041001 -0.00122306
v -0.01012578 0.00335775 0.00021869
v -0.01042846 0.00141946 0.00002930
v -0.00891168 0.00335775 -0.01303601
v -0.00913235 0.00282735 -0.01293617
v -0.00917631 0.00328472 -0.01289800
v -0.00869693 0.00335775 -0.01311529
v -0.00923549 0.00335775 -0.01286130
v -0.01024837 -0.00041001 -0.01143276
v -0.01031432 -0.00038161 -0.01139606
v -0.01050286 -0.00041001 -0.01112738
v -0.01058318 -0.00022264 -0.01124924
v -0.01093574 0.00001895 -0.01102608
v -0.01085204 0.00021887 -0.01130209
v -0.01055358 0.00031329 -0.01177485
v -0.01043860 0.00076992 -0.01203912
v -0.01100760 0.00035423 -0.01114940
v -0.01088585 0.00076992 -0.01145185
v -0.01063898 0.00076992 -0.01178365
v -0.01043691 0.00107127 -0.01203765
v -0.00984423 0.00328472 -0.01246929
v -0.00959059 0.00335775 -0.01264988
v -0.01022892 0.00125274 -0.01221530
v -0.01016636 0.00177577 -0.01224907
v -0.01015368 0.00227851 -0.01223879
v -0.01037942 0.00328472 -0.00002796
v -0.01054598 0.00335775 -0.00024525
v -0.01057472 0.00335775 -0.00028195
v -0.01086472 0.00177577 -0.00058293
v -0.01099154 0.00278161 -0.00087510
v -0.01101606 0.00177577 -0.00083546
v -0.01123926 0.00127303 -0.00122306
v -0.01125786 0.00076992 -0.00122306
v -0.01147938 0.00040550 -0.00186318
v -0.01108961 -0.00025215 -0.00173545
v -0.01153011 0.00024948 -0.00222729
v -0.01166031 0.00026719 -0.00273087
v -0.01146247 -0.00001904 -0.00239319
v -0.01128830 -0.00020641 -0.00222729
v -0.01101690 -0.00041001 -0.00183675
v -0.01034053 0.00335775 0.00000581
v -0.00895311 0.00335775 -0.01301399
v -0.00917631 0.00335775 -0.01289506
v -0.01029656 -0.00041001 -0.01137991
v -0.01060009 -0.00041001 -0.01096882
v -0.01069816 -0.00041001 -0.01080438
v -0.01082160 -0.00024846 -0.01082640
v -0.01088416 -0.00041001 -0.01045349
v -0.01089516 -0.00041001 -0.01043146
v -0.01101606 -0.00008949 -0.01068986
v -0.01141681 0.00007649 -0.00994403
v -0.01136101 0.00025317 -0.01028758
v -0.01111582 0.00021887 -0.01082640
v -0.01147430 0.00041178 -0.01012902
v -0.01125702 0.00076992 -0.01077795
v -0.01103720 0.00076992 -0.01120079
v -0.01087486 0.00127303 -0.01143423
v -0.01057472 0.00328472 -0.01171906
v -0.01058656 0.00278161 -0.01173521
v -0.01059924 0.00227851 -0.01174989
v -0.01061108 0.00177577 -0.01176457
v -0.01058656 0.00125274 -0.01182917
v -0.01012493 0.00335775 -0.01221677
v -0.01012747 0.00328472 -0.01221824
v -0.01041831 0.00177577 -0.01201710
v -0.00988313 0.00335775 -0.01243112
v -0.00984170 0.00335775 -0.01246783
v -0.01037688 0.00335775 -0.00003090
v -0.01078947 0.00335775 -0.00059468
v -0.01085288 0.00227851 -0.00060348
v -0.01084020 0.00278161 -0.00062404
v -0.01082836 0.00328472 -0.00064606
v -0.01095518 0.00335775 -0.00086335
v -0.01097717 0.00335775 -0.00090006
v -0.01118853 0.00227851 -0.00122306
v -0.01139990 0.00127303 -0.00158716
v -0.01140836 0.00076992 -0.00156074
v -0.01149713 0.00076992 -0.00181326
v -0.01162649 0.00076992 -0.00222876
v -0.01175585 0.00076992 -0.00273087
v -0.01150136 -0.00007473 -0.00273087
v -0.01175162 0.00026719 -0.00323446
v -0.01133057 -0.00032629 -0.00273087
v -0.01114626 -0.00041001 -0.00222729
v -0.01090615 -0.00041001 -0.01040650
v -0.01101437 -0.00041001 -0.01015838
v -0.01108708 -0.00024846 -0.01026116
v -0.01128830 -0.00020752 -0.00977372
v -0.01146416 -0.00002125 -0.00960782
v -0.01152757 0.00025317 -0.00977372
v -0.01165862 0.00026719 -0.00926867
v -0.01175162 0.00076992 -0.00926867
v -0.01162226 0.00076992 -0.00977225
v -0.01149206 0.00076992 -0.01018041
v -0.01140751 0.00076992 -0.01043146
v -0.01139906 0.00127303 -0.01040944
v -0.01123588 0.00127303 -0.01077795
v -0.01102536 0.00127303 -0.01118170
v -0.01083851 0.00278161 -0.01136963
v -0.01085035 0.00227851 -0.01139165
v -0.01057303 0.00335775 -0.01171612
v -0.01099999 0.00227851 -0.01114059
v -0.01040563 0.00335775 -0.01193194
v -0.01039210 0.00278161 -0.01198626
v -0.01037688 0.00335775 -0.01196865
v -0.01082583 0.00335775 -0.00064900
v -0.01113189 0.00335775 -0.00122306
v -0.01116232 0.00278161 -0.00122306
v -0.01138722 0.00177577 -0.00162680
v -0.01148783 0.00127303 -0.00183822
v -0.01160789 0.00127303 -0.00222876
v -0.01173809 0.00127303 -0.00273087
v -0.01183194 0.00127303 -0.00323446
v -0.01184716 0.00076992 -0.00323446
v -0.01154871 -0.00014481 -0.00323446
v -0.01194185 0.00059251 -0.00400085
v -0.01196214 0.00046784 -0.00433706
v -0.01181757 0.00026719 -0.00373804
v -0.01127139 -0.00041001 -0.00273087
v -0.01137792 -0.00039637 -0.00323446
v -0.01108031 -0.00041001 -0.00997339
v -0.01114711 -0.00041001 -0.00977225
v -0.01123757 -0.00041001 -0.00941989
v -0.01127562 -0.00041001 -0.00926867
v -0.01133226 -0.00032924 -0.00926867
v -0.01150305 -0.00007805 -0.00926867
v -0.01174993 0.00026719 -0.00876508
v -0.01195030 0.00049772 -0.00805742
v -0.01184631 0.00076992 -0.00876508
v -0.01183447 0.00127303 -0.00876508
v -0.01173725 0.00127303 -0.00926867
v -0.01160873 0.00127303 -0.00977225
v -0.01148614 0.00127303 -0.01015838
v -0.01133396 0.00328472 -0.01027437
v -0.01132973 0.00335775 -0.01027437
v -0.01112597 0.00335775 -0.01077795
v -0.01115641 0.00278161 -0.01077795
v -0.01099323 0.00335775 -0.01104957
v -0.01097378 0.00328472 -0.01109655
v -0.01098731 0.00278161 -0.01111857
v -0.01084612 0.00335775 -0.01130797
v -0.01082414 0.00335775 -0.01134467
v -0.01130436 0.00335775 -0.00165323
v -0.01133311 0.00335775 -0.00172517
v -0.01133734 0.00328472 -0.00172517
v -0.01137538 0.00282440 -0.00176041
v -0.01144894 0.00268497 -0.00195127
v -0.01150643 0.00335775 -0.00226106
v -0.01143964 0.00302062 -0.00197917
v -0.01162649 0.00328472 -0.00273087
v -0.01172034 0.00328472 -0.00323446
v -0.01194523 0.00105135 -0.00397442
v -0.01194523 0.00092779 -0.00397442
v -0.01191733 0.00076402 -0.00377915
v -0.01158337 -0.00018981 -0.00373804
v -0.01196806 0.00076402 -0.00419758
v -0.01201710 0.00076992 -0.00474374
v -0.01187252 0.00028710 -0.00419758
v -0.01197990 0.00042468 -0.00474374
v -0.01186829 0.00017313 -0.00474374
v -0.01136777 -0.00041001 -0.00323446
v -0.01143034 -0.00041001 -0.00373804
v -0.01138722 -0.00041001 -0.00338862
v -0.01136439 -0.00041001 -0.00879004
v -0.01154871 -0.00014518 -0.00876508
v -0.01184462 0.00030481 -0.00823947
v -0.01185815 0.00021592 -0.00775938
v -0.01196130 0.00046710 -0.00775938
v -0.01201118 0.00076992 -0.00725726
v -0.01198243 0.00076992 -0.00775938
v -0.01195369 0.00076992 -0.00808238
v -0.01191649 0.00076992 -0.00833344
v -0.01191649 0.00128852 -0.00824241
v -0.01172034 0.00328472 -0.00876508
v -0.01162480 0.00328472 -0.00926867
v -0.01170934 0.00177577 -0.00926867
v -0.01150643 0.00335775 -0.00973408
v -0.01150897 0.00328472 -0.00973995
v -0.01158168 0.00177577 -0.00977225
v -0.01143034 0.00328472 -0.00999248
v -0.01134579 0.00335775 -0.01022739
v -0.01097209 0.00335775 -0.01109214
v -0.01141428 0.00335775 -0.00196302
v -0.01162226 0.00335775 -0.00273087
v -0.01143203 0.00328472 -0.00200266
v -0.01142949 0.00335775 -0.00201000
v -0.01170258 0.00335775 -0.00316105
v -0.01171611 0.00335775 -0.00323446
v -0.01177191 0.00335775 -0.00366463
v -0.01178121 0.00335775 -0.00373804
v -0.01194439 0.00205351 -0.00447800
v -0.01196383 0.00124057 -0.00423429
v -0.01160451 -0.00021268 -0.00424016
v -0.01143541 -0.00041001 -0.00380558
v -0.01200272 0.00127303 -0.00474374
v -0.01203992 0.00076992 -0.00524586
v -0.01199173 0.00039739 -0.00524586
v -0.01187759 0.00014584 -0.00524586
v -0.01136777 -0.00041001 -0.00876508
v -0.01137792 -0.00039674 -0.00876508
v -0.01158252 -0.00019018 -0.00826297
v -0.01160704 -0.00021748 -0.00775938
v -0.01187421 0.00017829 -0.00725726
v -0.01197398 0.00042985 -0.00725726
v -0.01205176 0.00076992 -0.00625009
v -0.01203316 0.00076992 -0.00675368
v -0.01200357 0.00127303 -0.00725726
v -0.01196721 0.00128852 -0.00778728
v -0.01194946 0.00113102 -0.00806036
v -0.01185646 0.00227851 -0.00826297
v -0.01171611 0.00335775 -0.00876508
v -0.01162057 0.00335775 -0.00926867
v -0.01152165 0.00335775 -0.00967242
v -0.01143964 0.00335775 -0.00994990
v -0.01142780 0.00335775 -0.00998514
v -0.01182602 0.00335775 -0.00416675
v -0.01195284 0.00177577 -0.00441194
v -0.01183363 0.00335775 -0.00424016
v -0.01187929 0.00335775 -0.00474374
v -0.01195115 0.00217006 -0.00474374
v -0.01197398 0.00177577 -0.00474374
v -0.01188774 0.00012776 -0.00574945
v -0.01161634 -0.00022596 -0.00474374
v -0.01146754 -0.00041001 -0.00435468
v -0.01146247 -0.00041001 -0.00424016
v -0.01194270 0.00252637 -0.00500068
v -0.01202471 0.00127303 -0.00524586
v -0.01204162 0.00127303 -0.00574945
v -0.01205514 0.00076992 -0.00574945
v -0.01199765 0.00037932 -0.00574945
v -0.01138722 -0.00041001 -0.00861386
v -0.01143034 -0.00041001 -0.00826297
v -0.01146923 -0.00041001 -0.00775938
v -0.01158760 -0.00028313 -0.00723965
v -0.01163917 -0.00023592 -0.00675368
v -0.01188520 0.00014768 -0.00675368
v -0.01198581 0.00039923 -0.00675368
v -0.01203908 0.00127303 -0.00625009
v -0.01202302 0.00127303 -0.00675368
v -0.01199596 0.00037821 -0.00625009
v -0.01194270 0.00252452 -0.00699593
v -0.01195115 0.00216638 -0.00725726
v -0.01194439 0.00205056 -0.00752447
v -0.01195284 0.00177577 -0.00761697
v -0.01193931 0.00146631 -0.00797227
v -0.01184462 0.00335775 -0.00775938
v -0.01179305 0.00335775 -0.00826297
v -0.01190380 0.00335775 -0.00524586
v -0.01164509 -0.00023592 -0.00574945
v -0.01189112 0.00012666 -0.00625009
v -0.01165016 -0.00023592 -0.00625009
v -0.01148191 -0.00041001 -0.00474374
v -0.01193509 0.00279378 -0.00519888
v -0.01199596 0.00177577 -0.00524586
v -0.01194946 0.00263444 -0.00533542
v -0.01198243 0.00227851 -0.00574945
v -0.01195453 0.00271706 -0.00625009
v -0.01149121 -0.00041001 -0.00733948
v -0.01150390 -0.00041001 -0.00696510
v -0.01150897 -0.00041001 -0.00675368
v -0.01194861 0.00262190 -0.00666118
v -0.01196130 0.00232572 -0.00679919
v -0.01199427 0.00177577 -0.00675368
v -0.01188436 0.00335775 -0.00718386
v -0.01188098 0.00335775 -0.00725726
v -0.01193424 0.00278641 -0.00679919
v -0.01190211 0.00335775 -0.00675368
v -0.01180066 0.00335775 -0.00818956
v -0.01191479 0.00335775 -0.00567604
v -0.01151489 -0.00041001 -0.00574945
v -0.01148783 -0.00041001 -0.00491846
v -0.01151996 -0.00041001 -0.00625009
v -0.01191649 0.00335775 -0.00574945
v -0.01191564 0.00335775 -0.00625009
v -0.01193931 0.00296862 -0.00625009
f 1 2 3
f 1 3 4
f 1 4 15
f 1 15 5
f 1 5 16
f 1 16 35
f 1 35 58
f 1 58 57
f 1 57 83
f 1 83 115
f 1 115 154
f 1 154 191
f 1 191 189
f 1 189 187
f 1 187 176
f 1 176 175
f 1 175 216
f 1 216 250
f 1 250 247
f 1 247 285
f 1 285 286
f 1 286 251
f 1 251 265
f 1 265 310
f 1 310 309
f 1 309 306
f 1 306 348
f 1 348 346
f 1 346 344
f 1 344 385
f 1 385 384
f 1 384 425
f 1 425 381
f 1 381 379
f 1 379 378
f 1 378 424
f 1 424 458
f 1 458 457
f 1 457 420
f 1 420 456
f 1 456 455
f 1 455 454
f 1 454 490
f 1 490 511
f 1 511 489
f 1 489 508
f 1 508 507
f 1 507 510
f 1 510 517
f 1 517 516
f 1 516 512
f 1 512 491
f 1 491 462
f 1 462 461
f 1 461 459
f 1 459 433
f 1 433 432
f 1 432 431
f 1 431 430
f 1 430 427
f 1 427 391
f 1 391 429
f 1 429 426
f 1 426 387
f 1 387 386
f 1 386 350
f 1 350 317
f 1 317 316
f 1 316 349
f 1 349 312
f 1 312 271
f 1 271 270
f 1 270 311
f 1 311 284
f 1 284 245
f 1 245 206
f 1 206 205
f 1 205 203
f 1 203 167
f 1 167 166
f 1 166 157
f 1 157 156
f 1 156 155
f 1 155 124
f 1 124 123
f 1 123 121
f 1 121 120
f 1 120 122
f 1 122 118
f 1 118 117
f 1 117 116
f 1 116 85
f 1 85 84
f 1 84 59
f 1 59 37
f 1 37 36
f 1 36 17
f 1 17 6
f 1 6 2
f 2 6 3
f 3 6 7
f 3 7 8
f 3 8 9
f 3 9 4
f 4 9 10
f 4 10 11
f 4 11 12
f 4 12 13
f 4 13 14
f 4 14 27
f 4 27 26
f 4 26 47
f 4 47 71
f 4 71 100
f 4 100 98
f 4 98 97
f 4 97 132
f 4 132 131
f 4 131 165
f 4 165 164
f 4 164 163
f 4 163 202
f 4 202 200
f 4 200 199
f 4 199 236
f 4 236 244
f 4 244 242
f 4 242 241
f 4 241 283
f 4 283 327
f 4 327 362
f 4 362 404
f 4 404 406
f 4 406 405
f 4 405 437
f 4 437 468
f 4 468 467
f 4 467 495
f 4 495 514
f 4 514 513
f 4 513 515
f 4 515 503
f 4 503 502
f 4 502 501
f 4 501 476
f 4 476 475
f 4 475 474
f 4 474 442
f 4 442 407
f 4 407 367
f 4 367 366
f 4 366 365
f 4 365 364
f 4 364 329
f 4 329 328
f 4 328 292
f 4 292 291
f 4 291 289
f 4 289 288
f 4 288 254
f 4 254 287
f 4 287 252
f 4 252 218
f 4 218 224
f 4 224 183
f 4 183 182
f 4 182 172
f 4 172 138
f 4 138 171
f 4 171 152
f 4 152 151
f 4 151 110
f 4 110 101
f 4 101 72
f 4 72 49
f 4 49 28
f 4 28 15
f 5 15 16
f 6 17 7
f 7 17 18
f 7 18 19
f 7 19 8
f 8 19 20
f 8 20 9
f 9 20 21
f 9 21 11
f 9 11 10
f 11 21 22
f 11 22 23
f 11 23 24
f 11 24 12
f 12 24 25
f 12 25 26
f 12 26 27
f 12 27 14
f 12 14 13
f 15 28 29
f 15 29 30
f 15 30 31
f 15 31 32
f 15 32 33
f 15 33 34
f 15 34 16
f 16 34 35
f 17 36 18
f 18 37 38
f 18 38 39
f 18 39 19
f 18 36 37
f 19 39 40
f 19 40 41
f 19 41 20
f 20 41 42
f 20 42 22
f 20 22 21
f 22 43 23
f 22 42 44
f 22 44 43
f 23 43 45
f 23 45 24
f 24 45 46
f 24 46 25
f 25 46 47
f 25 47 48
f 25 48 26
f 26 48 47
f 28 49 50
f 28 50 29
f 29 50 30
f 30 50 31
f 31 51 52
f 31 52 53
f 31 53 33
f 31 33 32
f 31 50 54
f 31 54 51
f 33 53 55
f 33 55 34
f 34 55 56
f 34 56 57
f 34 57 58
f 34 58 35
f 37 59 39
f 37 39 38
f 39 59 60
f 39 60 40
f 40 60 61
f 40 61 62
f 40 62 41
f 41 62 63
f 41 63 42
f 42 64 44
f 42 63 64
f 43 44 65
f 43 65 66
f 43 66 45
f 44 64 67
f 44 67 68
f 44 68 65
f 45 66 69
f 45 69 46
f 46 69 70
f 46 70 47
f 47 70 71
f 49 72 50
f 50 72 73
f 50 73 54
f 51 74 52
f 51 54 75
f 51 75 74
f 52 74 76
f 52 76 77
f 52 77 78
f 52 78 53
f 53 78 55
f 54 73 79
f 54 79 75
f 55 78 80
f 55 80 56
f 56 80 81
f 56 81 57
f 57 81 82
f 57 82 83
f 59 84 60
f 60 84 85
f 60 85 61
f 61 86 62
f 61 85 86
f 62 86 87
f 62 87 88
f 62 88 63
f 63 88 89
f 63 89 64
f 64 89 90
f 64 90 67
f 65 68 66
f 66 91 92
f 66 92 69
f 66 68 91
f 67 90 93
f 67 93 68
f 68 93 94
f 68 94 95
f 68 95 96
f 68 96 91
f 69 92 97
f 69 97 98
f 69 98 99
f 69 99 70
f 70 99 71
f 71 99 100
f 72 101 102
f 72 102 73
f 73 102 101
f 73 101 79
f 74 103 76
f 74 75 104
f 74 104 103
f 75 79 104
f 76 105 77
f 76 103 106
f 76 106 107
f 76 107 105
f 77 105 108
f 77 108 109
f 77 109 78
f 78 109 80
f 79 101 110
f 79 110 111
f 79 111 137
f 79 137 104
f 80 109 112
f 80 112 113
f 80 113 81
f 81 113 114
f 81 114 83
f 81 83 82
f 83 114 115
f 85 116 86
f 86 116 117
f 86 117 118
f 86 118 87
f 87 118 119
f 87 119 88
f 88 120 121
f 88 121 89
f 88 119 122
f 88 122 120
f 89 123 90
f 89 121 123
f 90 123 124
f 90 124 125
f 90 125 126
f 90 126 93
f 91 96 127
f 91 127 128
f 91 128 129
f 91 129 130
f 91 130 131
f 91 131 132
f 91 132 92
f 92 132 97
f 93 126 94
f 94 133 95
f 94 126 133
f 95 133 134
f 95 134 135
f 95 135 96
f 96 135 127
f 98 100 99
f 103 104 136
f 103 136 106
f 104 137 138
f 104 138 139
f 104 139 136
f 105 140 108
f 105 107 141
f 105 141 140
f 106 142 143
f 106 143 107
f 106 136 139
f 106 139 144
f 106 144 145
f 106 145 146
f 106 146 142
f 107 143 141
f 108 140 147
f 108 147 148
f 108 148 149
f 108 149 109
f 109 149 150
f 109 150 112
f 110 151 111
f 111 151 152
f 111 152 137
f 112 150 153
f 112 153 113
f 113 115 114
f 113 153 115
f 115 153 154
f 118 122 119
f 124 155 125
f 125 155 156
f 125 156 126
f 126 156 157
f 126 157 133
f 127 135 158
f 127 158 159
f 127 159 128
f 128 159 160
f 128 160 161
f 128 161 162
f 128 162 163
f 128 163 164
f 128 164 129
f 129 164 130
f 130 164 165
f 130 165 131
f 133 157 166
f 133 166 167
f 133 167 168
f 133 168 134
f 134 168 169
f 134 169 135
f 135 169 170
f 135 170 158
f 137 152 171
f 137 171 138
f 138 172 173
f 138 173 139
f 139 173 172
f 139 172 144
f 140 141 174
f 140 174 175
f 140 175 176
f 140 176 147
f 141 143 177
f 141 177 174
f 142 146 178
f 142 178 143
f 143 178 177
f 144 179 180
f 144 180 181
f 144 181 145
f 144 172 182
f 144 182 183
f 144 183 184
f 144 184 179
f 145 181 146
f 146 181 185
f 146 185 186
f 146 186 178
f 147 187 188
f 147 188 148
f 147 176 187
f 148 189 190
f 148 190 149
f 148 188 189
f 149 190 150
f 150 190 154
f 150 154 153
f 154 190 191
f 158 192 193
f 158 193 194
f 158 194 195
f 158 195 160
f 158 160 159
f 158 170 196
f 158 196 192
f 160 195 161
f 161 194 197
f 161 197 198
f 161 198 199
f 161 199 200
f 161 200 201
f 161 201 163
f 161 163 162
f 161 195 194
f 163 201 202
f 167 203 169
f 167 169 168
f 169 203 204
f 169 204 205
f 169 205 206
f 169 206 207
f 169 207 208
f 169 208 209
f 169 209 210
f 169 210 170
f 170 210 196
f 174 177 211
f 174 211 212
f 174 212 213
f 174 213 214
f 174 214 215
f 174 215 175
f 175 215 216
f 177 178 211
f 178 186 217
f 178 217 212
f 178 212 211
f 179 184 180
f 180 184 218
f 180 218 219
f 180 219 220
f 180 220 221
f 180 221 222
f 180 222 181
f 181 222 223
f 181 223 185
f 183 224 184
f 184 224 218
f 185 225 226
f 185 226 186
f 185 223 225
f 186 227 217
f 186 226 227
f 187 189 188
f 189 191 190
f 192 196 210
f 192 210 228
f 192 228 193
f 193 228 229
f 193 229 230
f 193 230 231
f 193 231 232
f 193 232 233
f 193 233 234
f 193 234 235
f 193 235 194
f 194 235 197
f 197 236 199
f 197 199 198
f 197 235 237
f 197 237 238
f 197 238 239
f 197 239 240
f 197 240 241
f 197 241 242
f 197 242 243
f 197 243 244
f 197 244 236
f 200 202 201
f 203 205 204
f 206 245 207
f 207 245 210
f 207 210 209
f 207 209 208
f 210 246 228
f 210 245 246
f 212 217 213
f 213 247 215
f 213 215 214
f 213 217 248
f 213 248 249
f 213 249 247
f 215 247 250
f 215 250 216
f 217 227 251
f 217 251 249
f 217 249 248
f 218 252 219
f 219 252 220
f 220 252 253
f 220 253 254
f 220 254 255
f 220 255 256
f 220 256 257
f 220 257 258
f 220 258 221
f 221 258 223
f 221 223 222
f 223 259 225
f 223 258 260
f 223 260 261
f 223 261 262
f 223 262 259
f 225 259 263
f 225 263 226
f 226 264 265
f 226 265 227
f 226 263 266
f 226 266 267
f 226 267 268
f 226 268 264
f 227 265 251
f 228 246 229
f 229 246 230
f 230 246 231
f 231 246 269
f 231 269 270
f 231 270 271
f 231 271 272
f 231 272 232
f 232 272 233
f 233 272 273
f 233 273 274
f 233 274 275
f 233 275 234
f 234 275 276
f 234 276 235
f 235 276 237
f 237 276 277
f 237 277 238
f 238 277 239
f 239 278 240
f 239 277 279
f 239 279 280
f 239 280 281
f 239 281 282
f 239 282 278
f 240 278 241
f 241 278 283
f 242 244 243
f 245 284 269
f 245 269 246
f 247 249 285
f 249 251 286
f 249 286 285
f 252 287 253
f 253 287 254
f 254 288 256
f 254 256 255
f 256 288 289
f 256 289 290
f 256 290 291
f 256 291 292
f 256 292 293
f 256 293 294
f 256 294 295
f 256 295 296
f 256 296 260
f 256 260 257
f 257 260 258
f 259 262 263
f 260 296 297
f 260 297 298
f 260 298 299
f 260 299 261
f 261 299 300
f 261 300 301
f 261 301 302
f 261 302 303
f 261 303 304
f 261 304 305
f 261 305 262
f 262 305 263
f 263 306 307
f 263 307 268
f 263 268 267
f 263 267 266
f 263 305 303
f 263 303 302
f 263 302 301
f 263 301 308
f 263 308 306
f 264 268 307
f 264 307 309
f 264 309 310
f 264 310 265
f 269 284 311
f 269 311 270
f 271 312 313
f 271 313 272
f 272 313 273
f 273 313 314
f 273 314 315
f 273 315 316
f 273 316 317
f 273 317 275
f 273 275 274
f 275 317 318
f 275 318 319
f 275 319 320
f 275 320 276
f 276 320 277
f 277 321 322
f 277 322 323
f 277 323 280
f 277 280 279
f 277 320 321
f 278 282 283
f 280 324 281
f 280 323 357
f 280 357 325
f 280 325 324
f 281 324 326
f 281 326 327
f 281 327 282
f 282 327 283
f 289 291 290
f 292 328 293
f 293 328 329
f 293 329 330
f 293 330 294
f 294 297 295
f 294 330 331
f 294 331 332
f 294 332 333
f 294 333 297
f 295 297 296
f 297 333 334
f 297 334 335
f 297 335 336
f 297 336 337
f 297 337 338
f 297 338 298
f 298 338 339
f 298 339 340
f 298 340 299
f 299 340 341
f 299 341 300
f 300 342 343
f 300 343 344
f 300 344 301
f 300 341 345
f 300 345 342
f 301 344 346
f 301 346 308
f 303 305 304
f 306 308 347
f 306 347 348
f 306 309 307
f 308 346 347
f 312 314 313
f 312 349 315
f 312 315 314
f 315 349 316
f 317 350 351
f 317 351 318
f 318 351 319
f 319 351 350
f 319 350 352
f 319 352 353
f 319 353 321
f 319 321 320
f 321 353 322
f 322 353 354
f 322 354 355
f 322 355 323
f 323 355 356
f 323 356 357
f 324 325 358
f 324 358 363
f 324 363 326
f 325 357 359
f 325 359 360
f 325 360 361
f 325 361 358
f 326 362 327
f 326 363 362
f 329 364 330
f 330 364 331
f 331 365 332
f 331 364 365
f 332 365 366
f 332 366 367
f 332 367 368
f 332 368 369
f 332 369 334
f 332 334 333
f 334 369 370
f 334 370 371
f 334 371 335
f 335 371 372
f 335 372 373
f 335 373 374
f 335 374 375
f 335 375 336
f 336 375 376
f 336 376 337
f 337 376 338
f 338 376 339
f 339 376 377
f 339 377 378
f 339 378 379
f 339 379 380
f 339 380 340
f 340 381 382
f 340 382 383
f 340 383 345
f 340 345 341
f 340 380 381
f 342 384 385
f 342 385 344
f 342 344 343
f 342 345 384
f 345 383 384
f 346 348 347
f 350 386 352
f 352 386 387
f 352 387 388
f 352 388 389
f 352 389 390
f 352 390 353
f 353 390 354
f 354 391 355
f 354 390 392
f 354 392 391
f 355 391 393
f 355 393 394
f 355 394 356
f 356 394 395
f 356 395 357
f 357 395 396
f 357 396 397
f 357 397 359
f 358 361 398
f 358 398 363
f 359 397 396
f 359 396 399
f 359 399 400
f 359 400 360
f 360 401 361
f 360 400 402
f 360 402 401
f 361 401 403
f 361 403 398
f 362 363 404
f 363 398 405
f 363 405 406
f 363 406 404
f 367 407 368
f 368 407 369
f 369 407 408
f 369 408 370
f 370 408 409
f 370 409 371
f 371 410 411
f 371 411 412
f 371 412 413
f 371 413 414
f 371 414 415
f 371 415 372
f 371 409 410
f 372 415 373
f 373 415 416
f 373 416 417
f 373 417 418
f 373 418 419
f 373 419 374
f 374 420 421
f 374 421 375
f 374 419 420
f 375 421 422
f 375 422 376
f 376 423 377
f 376 422 423
f 377 423 424
f 377 424 378
f 379 381 380
f 381 425 382
f 382 425 384
f 382 384 383
f 387 426 392
f 387 392 388
f 388 392 390
f 388 390 389
f 391 427 393
f 391 392 428
f 391 428 429
f 392 426 428
f 393 427 430
f 393 430 394
f 394 431 432
f 394 432 395
f 394 430 431
f 395 432 433
f 395 433 434
f 395 434 435
f 395 435 400
f 395 400 399
f 395 399 396
f 398 403 436
f 398 436 437
f 398 437 405
f 400 435 438
f 400 438 439
f 400 439 402
f 401 402 403
f 402 439 440
f 402 440 403
f 403 440 441
f 403 441 436
f 407 442 443
f 407 443 408
f 408 443 444
f 408 444 410
f 408 410 409
f 410 444 445
f 410 445 446
f 410 446 411
f 411 446 447
f 411 447 448
f 411 448 449
f 411 449 412
f 412 449 450
f 412 450 413
f 413 450 451
f 413 451 452
f 413 452 414
f 414 452 415
f 415 452 416
f 416 453 417
f 416 452 453
f 417 453 454
f 417 454 455
f 417 455 418
f 418 455 456
f 418 456 419
f 419 456 420
f 420 457 421
f 421 457 422
f 422 457 423
f 423 457 458
f 423 458 424
f 426 429 428
f 433 459 434
f 434 460 435
f 434 459 461
f 434 461 462
f 434 462 463
f 434 463 464
f 434 464 438
f 434 438 460
f 435 460 438
f 436 441 465
f 436 465 466
f 436 466 467
f 436 467 468
f 436 468 437
f 438 464 469
f 438 469 470
f 438 470 439
f 439 470 471
f 439 471 472
f 439 472 440
f 440 472 473
f 440 473 465
f 440 465 441
f 442 474 443
f 443 474 475
f 443 475 444
f 444 475 445
f 445 476 477
f 445 477 478
f 445 478 479
f 445 479 446
f 445 475 476
f 446 479 480
f 446 480 447
f 447 480 448
f 448 472 481
f 448 481 482
f 448 482 449
f 448 480 483
f 448 483 472
f 449 482 450
f 450 482 484
f 450 484 485
f 450 485 486
f 450 486 487
f 450 487 451
f 451 488 452
f 451 487 489
f 451 489 488
f 452 488 490
f 452 490 453
f 453 490 454
f 462 491 469
f 462 469 463
f 463 469 464
f 465 492 466
f 465 473 493
f 465 493 494
f 465 494 492
f 466 495 467
f 466 492 495
f 469 491 496
f 469 496 497
f 469 497 470
f 470 497 471
f 471 497 498
f 471 498 499
f 471 499 500
f 471 500 481
f 471 481 472
f 472 483 473
f 473 483 493
f 476 501 477
f 477 501 478
f 478 501 502
f 478 502 503
f 478 503 515
f 478 515 494
f 478 494 493
f 478 493 479
f 479 493 483
f 479 483 480
f 481 500 504
f 481 504 505
f 481 505 506
f 481 506 482
f 482 506 505
f 482 505 484
f 484 507 508
f 484 508 485
f 484 505 509
f 484 509 510
f 484 510 507
f 485 508 486
f 486 489 487
f 486 508 489
f 488 489 511
f 488 511 490
f 491 512 499
f 491 499 498
f 491 498 496
f 492 513 514
f 492 514 495
f 492 494 515
f 492 515 513
f 496 498 497
f 499 512 516
f 499 516 517
f 499 517 518
f 499 518 500
f 500 518 510
f 500 510 504
f 504 510 509
f 504 509 505
f 510 518 517

