# https://github.com/mikedh/trimesh
v 0.00214934 0.00240708 -0.00373645
v 0.00209889 0.00240708 -0.00423947
v 0.00214671 0.00240708 -0.00323368
v 0.00232749 0.00222927 -0.00323368
v 0.00232539 0.00223064 -0.00373645
v 0.00207735 0.00240708 -0.00428282
v 0.00229596 0.00220335 -0.00423947
v 0.00222501 0.00212558 -0.00453604
v 0.00199064 0.00240708 -0.00273091
v 0.00226863 0.00216469 -0.00273091
v 0.00257921 0.00193140 -0.00323368
v 0.00257658 0.00193049 -0.00373645
v 0.00254768 0.00191048 -0.00423947
v 0.00182878 0.00240708 -0.00455490
v 0.00269325 0.00159987 -0.00452845
v 0.00189394 0.00228748 -0.00456984
v 0.00239213 0.00177087 -0.00456763
v 0.00218508 0.00207601 -0.00244364
v 0.00172893 0.00240708 -0.00244585
v 0.00253664 0.00178815 -0.00269197
v 0.00271059 0.00162852 -0.00283376
v 0.00274632 0.00167991 -0.00323368
v 0.00274948 0.00167900 -0.00373645
v 0.00273476 0.00165899 -0.00423947
v 0.00174259 0.00240708 -0.00456567
v 0.00291449 0.00127244 -0.00423947
v 0.00314624 0.00052299 -0.00449221
v 0.00275263 0.00127244 -0.00455294
v 0.00188816 0.00177541 -0.00462641
v 0.00138472 0.00227839 -0.00462347
v 0.00239108 0.00127244 -0.00462078
v 0.00183876 0.00225747 -0.00240617
v 0.00188816 0.00177541 -0.00226070
v 0.00228965 0.00177541 -0.00238854
v 0.00272110 0.00116921 -0.00241523
v 0.00262913 0.00150437 -0.00249825
v 0.00138472 0.00240708 -0.00234470
v 0.00281884 0.00131110 -0.00269197
v 0.00296546 0.00127244 -0.00323368
v 0.00296546 0.00127244 -0.00373645
v 0.00138472 0.00240708 -0.00460216
v 0.00310998 0.00086497 -0.00373645
v 0.00307372 0.00081904 -0.00423947
v 0.00315675 0.00056756 -0.00423947
v 0.00320457 0.00026650 -0.00423947
v 0.00316305 0.00026650 -0.00450910
v 0.00289399 0.00026650 -0.00457694
v 0.00239108 0.00076947 -0.00462641
v -0.00213095 0.00240708 -0.00468763
v -0.00175101 0.00240708 -0.00468102
v 0.00127489 0.00240708 -0.00460853
v 0.00075358 0.00240708 -0.00462298
v 0.00138472 0.00227839 -0.00229474
v 0.00088181 0.00227839 -0.00223132
v 0.00138472 0.00177541 -0.00222348
v 0.00188816 0.00127244 -0.00222348
v 0.00239108 0.00076947 -0.00224283
v 0.00243312 0.00131110 -0.00233858
v 0.00278626 0.00076947 -0.00237066
v 0.00308265 0.00026650 -0.00260478
v 0.00304744 0.00076356 -0.00275148
v 0.00088181 0.00240708 -0.00226952
v 0.00316095 0.00059166 -0.00293295
v 0.00311365 0.00087407 -0.00323368
v 0.00316726 0.00061349 -0.00373645
v 0.00322979 0.00026650 -0.00373645
v 0.00323347 -0.00023602 -0.00373645
v 0.00320457 -0.00023602 -0.00423947
v 0.00316253 -0.00023602 -0.00450861
v 0.00289399 -0.00023602 -0.00457645
v 0.00239108 -0.00073899 -0.00462641
v -0.00213095 -0.00223835 -0.00462641
v -0.00213095 0.00240708 -0.00218577
v 0.00188816 -0.00174493 -0.00462641
v 0.00138472 -0.00223835 -0.00462592
v 0.00088181 -0.00223835 -0.00462641
v 0.00239108 -0.00023602 -0.00222568
v 0.00239108 0.00026650 -0.00222691
v 0.00283146 0.00026650 -0.00235499
v 0.00308475 -0.00023602 -0.00259989
v 0.00318985 0.00026650 -0.00285629
v 0.00323295 0.00026650 -0.00323368
v 0.00316831 0.00062258 -0.00323368
v 0.00323768 -0.00023602 -0.00323368
v 0.00317041 -0.00063575 -0.00373645
v 0.00315727 -0.00056072 -0.00423947
v 0.00314571 -0.00048932 -0.00449123
v 0.00276366 -0.00124196 -0.00455343
v 0.00239108 -0.00124196 -0.00462127
v -0.00213095 -0.00223835 -0.00222348
v 0.00038888 -0.00223835 -0.00222348
v 0.00089127 -0.00223835 -0.00222421
v 0.00138472 -0.00174493 -0.00222348
v 0.00188816 -0.00124196 -0.00222348
v 0.00240001 -0.00174857 -0.00456812
v 0.00189657 -0.00223835 -0.00457376
v 0.00239108 -0.00073899 -0.00223964
v 0.00283303 -0.00023602 -0.00235352
v 0.00279257 -0.00073899 -0.00236772
v 0.00272688 -0.00115146 -0.00241278
v 0.00305743 -0.00074990 -0.00274756
v 0.00316358 -0.00058982 -0.00292633
v 0.00319143 -0.00023602 -0.00285115
v 0.00317251 -0.00064076 -0.00323368
v 0.00312784 -0.00088724 -0.00373645
v 0.00309526 -0.00081220 -0.00423947
v 0.00293603 -0.00124196 -0.00423947
v 0.00269167 -0.00158303 -0.00452919
v 0.00139418 -0.00223835 -0.00227736
v 0.00188816 -0.00174493 -0.00225605
v 0.00223815 -0.00209646 -0.00453604
v 0.00193703 -0.00223835 -0.00456763
v 0.00243837 -0.00128834 -0.00233711
v 0.00230384 -0.00174493 -0.00238389
v 0.00263807 -0.00148708 -0.00248503
v 0.00283303 -0.00128834 -0.00268389
v 0.00312784 -0.00089224 -0.00323368
v 0.00299121 -0.00124196 -0.00323368
v 0.00298911 -0.00124196 -0.00373645
v 0.00273476 -0.00165489 -0.00423947
v 0.00257028 -0.00190637 -0.00423947
v 0.00165799 -0.00223835 -0.00234617
v 0.00185190 -0.00223198 -0.00239466
v 0.00219559 -0.00205417 -0.00243752
v 0.00225602 -0.00223835 -0.00423947
v 0.00231908 -0.00217696 -0.00423947
v 0.00255556 -0.00176858 -0.00268389
v 0.00271900 -0.00161668 -0.00282029
v 0.00275736 -0.00167990 -0.00323368
v 0.00275526 -0.00168126 -0.00373645
v 0.00260128 -0.00193275 -0.00373645
v 0.00235009 -0.00220834 -0.00373645
v 0.00184402 -0.00223835 -0.00239491
v 0.00184770 -0.00223835 -0.00239613
v 0.00209469 -0.00223835 -0.00259450
v 0.00228597 -0.00214694 -0.00273091
v 0.00231015 -0.00223835 -0.00380576
v 0.00260023 -0.00193138 -0.00323368
v 0.00234904 -0.00220970 -0.00323368
v 0.00231908 -0.00223835 -0.00329148
v 0.00231856 -0.00223835 -0.00373645
v 0.00218455 -0.00223835 -0.00273091
v 0.00222869 -0.00223835 -0.00287735
v 0.00231908 -0.00223835 -0.00323368
f 1 2 6
f 1 6 14
f 1 14 25
f 1 25 41
f 1 41 51
f 1 51 52
f 1 52 50
f 1 50 49
f 1 49 73
f 1 73 62
f 1 62 37
f 1 37 19
f 1 19 9
f 1 9 3
f 1 3 4
f 1 4 5
f 1 5 2
f 2 5 7
f 2 7 8
f 2 8 6
f 3 9 10
f 3 10 4
f 4 11 5
f 4 10 11
f 5 11 12
f 5 12 13
f 5 13 7
f 6 8 14
f 7 13 15
f 7 15 8
f 8 16 14
f 8 15 17
f 8 17 16
f 9 18 10
f 9 19 18
f 10 18 20
f 10 20 21
f 10 21 11
f 11 21 22
f 11 22 23
f 11 23 12
f 12 23 24
f 12 24 13
f 13 24 15
f 14 16 25
f 15 24 26
f 15 26 27
f 15 27 28
f 15 28 17
f 16 17 29
f 16 29 30
f 16 30 25
f 17 28 31
f 17 31 29
f 18 32 33
f 18 33 34
f 18 34 35
f 18 35 36
f 18 36 20
f 18 19 32
f 19 37 32
f 20 36 21
f 21 36 38
f 21 38 39
f 21 39 22
f 22 39 23
f 23 39 40
f 23 40 24
f 24 40 26
f 25 30 41
f 26 40 42
f 26 42 43
f 26 43 27
f 27 43 42
f 27 42 44
f 27 44 45
f 27 45 46
f 27 46 28
f 28 46 47
f 28 47 31
f 29 31 48
f 29 48 49
f 29 49 50
f 29 50 30
f 30 51 41
f 30 50 52
f 30 52 51
f 31 47 48
f 32 37 53
f 32 53 33
f 33 53 54
f 33 54 55
f 33 55 56
f 33 56 57
f 33 57 58
f 33 58 34
f 34 58 35
f 35 58 59
f 35 59 60
f 35 60 61
f 35 61 38
f 35 38 36
f 37 62 53
f 38 61 63
f 38 63 39
f 39 63 64
f 39 64 40
f 40 64 42
f 42 64 65
f 42 65 44
f 44 65 66
f 44 66 45
f 45 66 67
f 45 67 68
f 45 68 46
f 46 68 69
f 46 69 70
f 46 70 47
f 47 70 71
f 47 71 48
f 48 71 49
f 49 72 90
f 49 90 73
f 49 71 74
f 49 74 75
f 49 75 76
f 49 76 72
f 53 62 54
f 54 62 73
f 54 73 55
f 55 73 56
f 56 77 78
f 56 78 57
f 56 73 77
f 57 78 79
f 57 79 59
f 57 59 58
f 59 79 60
f 60 79 80
f 60 80 81
f 60 81 63
f 60 63 61
f 63 81 82
f 63 82 83
f 63 83 64
f 64 83 65
f 65 83 82
f 65 82 66
f 66 82 84
f 66 84 67
f 67 84 85
f 67 85 86
f 67 86 68
f 68 86 87
f 68 87 69
f 69 87 88
f 69 88 70
f 70 88 89
f 70 89 71
f 71 89 74
f 72 76 75
f 72 75 96
f 72 96 112
f 72 112 125
f 72 125 137
f 72 137 141
f 72 141 140
f 72 140 144
f 72 144 143
f 72 143 142
f 72 142 135
f 72 135 134
f 72 134 133
f 72 133 122
f 72 122 109
f 72 109 92
f 72 92 91
f 72 91 90
f 73 90 91
f 73 91 92
f 73 92 93
f 73 93 94
f 73 94 77
f 74 89 95
f 74 95 96
f 74 96 75
f 77 97 98
f 77 98 78
f 77 94 97
f 78 98 79
f 79 98 80
f 80 98 99
f 80 99 100
f 80 100 101
f 80 101 102
f 80 102 103
f 80 103 81
f 81 103 84
f 81 84 82
f 84 103 102
f 84 102 104
f 84 104 85
f 85 104 105
f 85 105 86
f 86 105 106
f 86 106 87
f 87 106 107
f 87 107 108
f 87 108 88
f 88 108 95
f 88 95 89
f 92 109 110
f 92 110 93
f 93 110 94
f 94 110 97
f 95 108 111
f 95 111 112
f 95 112 96
f 97 113 99
f 97 99 98
f 97 110 113
f 99 113 100
f 100 113 114
f 100 114 115
f 100 115 116
f 100 116 101
f 101 116 117
f 101 117 102
f 102 117 104
f 104 117 105
f 105 117 118
f 105 118 119
f 105 119 107
f 105 107 106
f 107 119 120
f 107 120 108
f 108 120 121
f 108 121 111
f 109 122 123
f 109 123 110
f 110 123 124
f 110 124 114
f 110 114 113
f 111 125 112
f 111 121 126
f 111 126 125
f 114 124 115
f 115 127 128
f 115 128 116
f 115 124 127
f 116 118 117
f 116 128 118
f 118 128 129
f 118 129 130
f 118 130 119
f 119 130 120
f 120 130 131
f 120 131 121
f 121 131 132
f 121 132 126
f 122 133 123
f 123 133 134
f 123 134 124
f 124 134 135
f 124 135 136
f 124 136 127
f 125 126 132
f 125 132 137
f 127 136 128
f 128 136 138
f 128 138 129
f 129 138 131
f 129 131 130
f 131 138 139
f 131 139 132
f 132 139 140
f 132 140 141
f 132 141 137
f 135 142 136
f 136 142 143
f 136 143 139
f 136 139 138
f 139 144 140
f 139 143 144

