# https://github.com/mikedh/trimesh
v -0.01151746 -0.00041056 -0.00600313
v -0.01148254 -0.00045692 -0.00600313
v -0.01144854 -0.00049897 -0.00574819
v -0.01151470 -0.00041056 -0.00574819
v -0.00577401 -0.00041056 -0.00600313
v -0.01144946 -0.00050041 -0.00600313
v -0.01143293 -0.00047786 -0.00474200
v -0.01002348 -0.00223880 -0.00373642
v -0.01148254 -0.00041056 -0.00474200
v -0.00213095 -0.00041056 -0.00462623
v -0.00213095 -0.00223880 -0.00462623
v -0.00587967 -0.00051293 -0.00600313
v -0.01134840 -0.00062444 -0.00600313
v -0.01142374 -0.00046425 -0.00423952
v -0.01000878 -0.00223880 -0.00421981
v -0.01002256 -0.00223880 -0.00372657
v -0.01094872 -0.00100387 -0.00340575
v -0.01118209 -0.00073916 -0.00373642
v -0.01124181 -0.00075205 -0.00600313
v -0.01099006 -0.00104593 -0.00600313
v -0.01146692 -0.00041056 -0.00435282
v -0.00213095 -0.00041056 -0.00222344
v -0.00740489 -0.00149856 -0.00600313
v -0.00715314 -0.00137614 -0.00600313
v -0.00692619 -0.00125247 -0.00600313
v -0.00669282 -0.00112486 -0.00600313
v -0.00644106 -0.00097022 -0.00600313
v -0.00630232 -0.00085890 -0.00600313
v -0.00615991 -0.00074417 -0.00600313
v -0.00213095 -0.00223880 -0.00222344
v -0.00917634 -0.00223880 -0.00473276
v -0.00967985 -0.00185973 -0.00600313
v -0.00917634 -0.00184899 -0.00600313
v -0.00867376 -0.00180156 -0.00600313
v -0.00842568 -0.00175396 -0.00600313
v -0.00817117 -0.00170510 -0.00600313
v -0.00766767 -0.00157086 -0.00600313
v -0.00753812 -0.00153525 -0.00600313
v -0.01140812 -0.00044170 -0.00373642
v -0.01146233 -0.00041056 -0.00423952
v -0.01074658 -0.00129739 -0.00600313
v -0.01061886 -0.00142410 -0.00600313
v -0.01049483 -0.00154688 -0.00600313
v -0.00994722 -0.00223880 -0.00449445
v -0.00996743 -0.00223880 -0.00328505
v -0.01092391 -0.00097434 -0.00307014
v -0.01109572 -0.00077961 -0.00323579
v -0.00739202 -0.00041056 0.00007898
v -0.00752433 -0.00041056 0.00013317
v -0.00769247 -0.00041056 0.00018675
v -0.00817117 -0.00041056 0.00028650
v -0.00835493 -0.00150500 -0.00095615
v -0.00867376 -0.00223880 -0.00218588
v -0.00919104 -0.00223880 -0.00473215
v -0.00971017 -0.00223880 -0.00465456
v -0.00974968 -0.00223880 -0.00463609
v -0.00993527 -0.00179208 -0.00600313
v -0.01136769 -0.00041056 -0.00323333
v -0.01138699 -0.00041056 -0.00338789
v -0.01143017 -0.00041056 -0.00373642
v -0.01143476 -0.00041056 -0.00380478
v -0.01018243 -0.00172657 -0.00600313
v -0.00995273 -0.00223880 -0.00323579
v -0.01082008 -0.00085013 -0.00222775
v -0.01089175 -0.00093496 -0.00273085
v -0.01107919 -0.00068350 -0.00273085
v -0.00867376 -0.00041056 0.00027172
v -0.00854237 -0.00150500 -0.00095615
v -0.00917634 -0.00223880 -0.00219080
v -0.01127122 -0.00041056 -0.00273085
v -0.00982777 -0.00223880 -0.00284908
v -0.01049207 -0.00104503 -0.00185889
v -0.01069237 -0.00074507 -0.00171665
v -0.01096433 -0.00052582 -0.00191000
v -0.01101579 -0.00059867 -0.00222775
v -0.00980205 -0.00223880 -0.00277087
v -0.00882352 -0.00041056 0.00024155
v -0.00898523 -0.00100745 -0.00044936
v -0.00887773 -0.00148818 -0.00097832
v -0.00956408 -0.00223880 -0.00234290
v -0.01114626 -0.00041056 -0.00222713
v -0.01040478 -0.00096431 -0.00152391
v -0.01089175 -0.00043079 -0.00157440
v -0.01091472 -0.00041056 -0.00159287
v -0.01101763 -0.00041056 -0.00183611
v -0.00919656 -0.00041056 0.00015103
v -0.00930681 -0.00041056 0.00011962
v -0.00938307 -0.00047714 0.00002356
v -0.00932059 -0.00095805 -0.00050786
v -0.00917634 -0.00143627 -0.00104667
v -0.00967985 -0.00106382 -0.00087425
v -0.00993252 -0.00099152 -0.00096908
v -0.01028718 -0.00085854 -0.00122217
v -0.01044981 -0.00050560 -0.00094876
v -0.01053801 -0.00060708 -0.00122217
v -0.01071166 -0.00041056 -0.00122217
v -0.01076955 -0.00041056 -0.00132501
v -0.01087245 -0.00041056 -0.00150851
v -0.00963023 -0.00041056 -0.00005033
v -0.00967985 -0.00041056 -0.00007989
v -0.00967985 -0.00061925 -0.00031635
v -0.00967985 -0.00087089 -0.00062240
v -0.00997938 -0.00052815 -0.00042165
v -0.01029636 -0.00041056 -0.00063040
v -0.01034598 -0.00041056 -0.00069136
v -0.01050585 -0.00041056 -0.00090135
v -0.01058395 -0.00041056 -0.00102019
v -0.00971017 -0.00041056 -0.00010144
v -0.01004553 -0.00041056 -0.00035453
f 1 2 3
f 1 3 4
f 1 4 9
f 1 9 21
f 1 21 40
f 1 40 61
f 1 61 60
f 1 60 59
f 1 59 58
f 1 58 70
f 1 70 81
f 1 81 85
f 1 85 84
f 1 84 98
f 1 98 97
f 1 97 96
f 1 96 107
f 1 107 106
f 1 106 105
f 1 105 104
f 1 104 109
f 1 109 108
f 1 108 100
f 1 100 99
f 1 99 87
f 1 87 86
f 1 86 77
f 1 77 67
f 1 67 51
f 1 51 50
f 1 50 49
f 1 49 48
f 1 48 22
f 1 22 10
f 1 10 5
f 1 5 12
f 1 12 29
f 1 29 28
f 1 28 27
f 1 27 26
f 1 26 25
f 1 25 24
f 1 24 23
f 1 23 38
f 1 38 37
f 1 37 36
f 1 36 35
f 1 35 34
f 1 34 33
f 1 33 32
f 1 32 57
f 1 57 62
f 1 62 43
f 1 43 42
f 1 42 41
f 1 41 20
f 1 20 19
f 1 19 13
f 1 13 6
f 1 6 2
f 2 6 3
f 3 7 4
f 3 6 8
f 3 8 7
f 4 7 9
f 5 10 11
f 5 11 12
f 6 13 8
f 7 14 9
f 7 8 14
f 8 15 44
f 8 44 56
f 8 56 55
f 8 55 54
f 8 54 31
f 8 31 11
f 8 11 30
f 8 30 53
f 8 53 69
f 8 69 80
f 8 80 76
f 8 76 71
f 8 71 63
f 8 63 45
f 8 45 16
f 8 16 17
f 8 17 18
f 8 18 14
f 8 13 19
f 8 19 20
f 8 20 15
f 9 14 21
f 10 22 30
f 10 30 11
f 11 23 24
f 11 24 25
f 11 25 26
f 11 26 27
f 11 27 28
f 11 28 29
f 11 29 12
f 11 31 32
f 11 32 33
f 11 33 34
f 11 34 35
f 11 35 36
f 11 36 37
f 11 37 38
f 11 38 23
f 14 18 39
f 14 39 40
f 14 40 21
f 15 20 41
f 15 41 42
f 15 42 43
f 15 43 44
f 16 45 17
f 17 46 47
f 17 47 39
f 17 39 18
f 17 45 46
f 22 48 30
f 30 48 49
f 30 49 50
f 30 50 51
f 30 51 52
f 30 52 53
f 31 54 32
f 32 54 55
f 32 55 56
f 32 56 44
f 32 44 57
f 39 58 59
f 39 59 60
f 39 60 61
f 39 61 40
f 39 47 58
f 43 62 44
f 44 62 57
f 45 63 64
f 45 64 65
f 45 65 46
f 46 65 66
f 46 66 58
f 46 58 47
f 51 67 68
f 51 68 52
f 52 68 53
f 53 68 69
f 58 66 70
f 63 71 64
f 64 72 73
f 64 73 74
f 64 74 75
f 64 75 65
f 64 71 76
f 64 76 72
f 65 75 66
f 66 75 70
f 67 77 78
f 67 78 79
f 67 79 68
f 68 79 69
f 69 79 80
f 70 75 81
f 72 82 73
f 72 76 82
f 73 82 83
f 73 83 74
f 74 83 84
f 74 84 85
f 74 85 81
f 74 81 75
f 76 80 82
f 77 86 78
f 78 86 87
f 78 87 88
f 78 88 89
f 78 89 79
f 79 89 90
f 79 90 80
f 80 91 92
f 80 92 82
f 80 90 89
f 80 89 91
f 82 93 94
f 82 94 95
f 82 95 96
f 82 96 97
f 82 97 98
f 82 98 83
f 82 92 93
f 83 98 84
f 87 99 88
f 88 99 100
f 88 100 101
f 88 101 89
f 89 101 102
f 89 102 91
f 91 102 92
f 92 102 103
f 92 103 104
f 92 104 93
f 93 104 105
f 93 105 94
f 94 105 106
f 94 106 95
f 95 106 107
f 95 107 96
f 100 108 103
f 100 103 101
f 101 103 102
f 103 109 104
f 103 108 109

