# Blender 4.5.0
# www.blender.org
o thumb_1
v 0.000373 -0.001965 -0.010500
v 0.003455 -0.001440 -0.010500
v 0.003176 -0.001808 -0.010500
v -0.003040 -0.000821 -0.010500
v -0.001014 -0.003454 -0.010500
v -0.001308 -0.003886 -0.010500
v -0.001935 -0.003615 -0.010500
v -0.002509 -0.003244 -0.010500
v -0.003013 -0.002782 -0.010500
v 0.002032 -0.003560 -0.010500
v 0.001412 -0.003849 -0.010500
v 0.001107 -0.003424 -0.010500
v -0.000321 -0.001974 -0.010500
v 0.000616 -0.003106 -0.010500
v 0.003081 -0.002260 -0.010500
v -0.001025 0.001718 -0.010500
v -0.001335 0.003831 -0.010500
v -0.000375 0.001965 -0.010500
v -0.000362 0.004041 -0.010500
v 0.000319 0.001974 -0.010500
v 0.000633 0.004007 -0.010500
v 0.000975 0.001746 -0.010500
v -0.003465 0.001645 -0.010500
v -0.003565 0.001938 -0.010500
v -0.002986 0.002747 -0.010500
v -0.003155 0.000429 -0.010500
v -0.002001 -0.000027 -0.010500
v 0.001589 0.003732 -0.010500
v 0.002450 0.003233 -0.010500
v 0.001513 0.001307 -0.010500
v 0.003163 0.002539 -0.010500
v 0.001869 0.000710 -0.010500
v -0.001890 0.000658 -0.010500
v -0.001551 0.001264 -0.010500
v -0.002227 0.003391 -0.010500
v 0.000040 -0.003000 -0.010500
v -0.000532 -0.003122 -0.010500
v -0.000977 -0.001746 -0.010500
v -0.001515 -0.001307 -0.010500
v -0.001871 -0.000710 -0.010500
v 0.003087 -0.002698 -0.010500
v 0.002596 -0.003173 -0.010500
v 0.003686 0.001692 -0.010500
v 0.003987 0.000743 -0.010500
v 0.001999 0.000027 -0.010500
v 0.004048 -0.000250 -0.010500
v 0.001888 -0.000658 -0.010500
v 0.003865 -0.001228 -0.010500
v 0.001549 -0.001264 -0.010500
v 0.001023 -0.001718 -0.010500
v -0.000374 0.001965 0.000000
v 0.000320 0.001974 -0.000000
v 0.000634 0.004007 -0.000000
v 0.001889 -0.000658 -0.000000
v 0.003177 -0.001808 -0.000000
v 0.002000 0.000027 -0.000000
v 0.003456 -0.001440 -0.000000
v 0.001870 0.000710 -0.000000
v 0.001590 0.003732 -0.000000
v 0.000976 0.001746 -0.000000
v 0.002451 0.003233 -0.000000
v 0.001514 0.001307 -0.000000
v 0.003164 0.002539 -0.000000
v -0.003012 -0.002782 0.000000
v -0.002542 -0.003217 0.000000
v -0.003039 -0.000821 0.000000
v -0.001908 -0.003629 0.000000
v -0.000320 -0.001974 0.000000
v -0.000531 -0.003122 0.000000
v 0.000374 -0.001965 -0.000000
v 0.000041 -0.003000 -0.000000
v 0.001024 -0.001718 -0.000000
v 0.000617 -0.003106 -0.000000
v 0.001550 -0.001264 -0.000000
v 0.001108 -0.003424 -0.000000
v 0.003866 -0.001228 -0.000000
v 0.004049 -0.000250 -0.000000
v 0.003988 0.000743 -0.000000
v 0.003687 0.001692 -0.000000
v -0.001013 -0.003454 0.000000
v -0.001307 -0.003886 0.000000
v -0.000976 -0.001746 0.000000
v -0.001514 -0.001307 0.000000
v -0.001870 -0.000710 0.000000
v -0.003154 0.000429 0.000000
v -0.002000 -0.000027 0.000000
v -0.003464 0.001645 0.000000
v -0.001889 0.000658 0.000000
v -0.001550 0.001264 0.000000
v 0.001413 -0.003849 -0.000000
v 0.002033 -0.003560 -0.000000
v 0.002596 -0.003173 -0.000000
v -0.003564 0.001938 0.000000
v -0.002985 0.002747 0.000000
v -0.002226 0.003391 0.000000
v -0.001024 0.001718 0.000000
v -0.001334 0.003831 0.000000
v -0.000361 0.004041 0.000000
v 0.003082 -0.002260 -0.000000
v 0.003088 -0.002698 -0.000000
v 0.001413 -0.003849 0.000500
v 0.002033 -0.003560 0.000500
v 0.002596 -0.003173 0.000500
v 0.003088 -0.002698 0.000500
v -0.003012 -0.002782 0.000500
v -0.002541 -0.003217 0.000500
v -0.001908 -0.003629 0.000500
v -0.001307 -0.003886 0.000500
v -0.001332 -0.003945 0.000500
v -0.001333 -0.003945 -0.011000
v -0.001308 -0.003886 -0.011000
v 0.001412 -0.003849 -0.011000
v 0.001439 -0.003907 -0.011000
v 0.001440 -0.003907 0.000500
v 0.001562 -0.004479 0.000500
v 0.001561 -0.004479 -0.011000
v 0.001455 -0.005054 0.000500
v 0.001454 -0.005054 -0.011000
v 0.001137 -0.005546 0.000500
v 0.001136 -0.005546 -0.011000
v 0.000655 -0.005877 0.000500
v 0.000654 -0.005877 -0.011000
v 0.000083 -0.005999 0.000500
v 0.000082 -0.005999 -0.011000
v -0.000493 -0.005893 0.000500
v -0.000494 -0.005893 -0.011000
v -0.000984 -0.005575 0.000500
v -0.000985 -0.005575 -0.011000
v -0.001316 -0.005093 0.000500
v -0.001317 -0.005093 -0.011000
v -0.001438 -0.004520 0.000500
v -0.001439 -0.004520 -0.011000
v 0.003087 -0.002698 -0.011000
v 0.002595 -0.003173 -0.011000
v 0.002032 -0.003560 -0.011000
v -0.001935 -0.003615 -0.011000
v -0.002610 -0.010287 -0.011000
v 0.002890 -0.010211 -0.011000
v 0.003111 -0.004458 -0.011000
v -0.002989 -0.004541 -0.011000
v -0.003013 -0.002782 -0.011000
v -0.002509 -0.003244 -0.011000
v -0.002904 -0.005217 -0.011000
v -0.002671 -0.005856 -0.011000
v 0.003044 -0.005135 -0.011000
v 0.002829 -0.005781 -0.011000
v 0.002900 -0.010984 -0.010925
v -0.002599 -0.011060 -0.010924
v 0.002911 -0.011728 -0.010702
v -0.002589 -0.011803 -0.010701
v 0.002920 -0.012414 -0.010339
v -0.002579 -0.012490 -0.010338
v 0.002928 -0.013018 -0.009850
v -0.002571 -0.013094 -0.009849
v 0.002962 -0.015416 -0.007637
v -0.002538 -0.015492 -0.007636
v 0.002934 -0.013399 -0.002104
v -0.002565 -0.013475 -0.002103
v -0.002554 -0.014309 -0.002227
v 0.002946 -0.014233 -0.002228
v -0.002543 -0.015079 -0.002568
v 0.002956 -0.015004 -0.002568
v -0.002534 -0.015732 -0.003101
v 0.002965 -0.015657 -0.003101
v -0.002528 -0.016221 -0.003788
v 0.002972 -0.016145 -0.003788
v -0.002524 -0.016509 -0.004580
v 0.002976 -0.016434 -0.004580
v -0.002523 -0.016578 -0.005420
v 0.002977 -0.016502 -0.005420
v -0.002525 -0.016421 -0.006248
v 0.002974 -0.016345 -0.006249
v -0.002530 -0.016050 -0.007005
v 0.002969 -0.015974 -0.007006
v 0.002923 -0.012587 -0.000842
v -0.002576 -0.012663 -0.000842
v 0.002922 -0.012514 -0.001275
v -0.002577 -0.012590 -0.001275
v 0.002924 -0.012655 -0.001691
v -0.002575 -0.012730 -0.001691
v 0.002928 -0.012975 -0.001991
v -0.002571 -0.013051 -0.001990
v -0.002574 -0.012801 -0.000593
v 0.002925 -0.012726 -0.000594
v 0.002931 -0.013123 0.000205
v -0.002569 -0.013198 0.000205
v 0.002933 -0.013280 0.001083
v -0.002567 -0.013355 0.001084
v 0.002932 -0.013184 0.001970
v -0.002568 -0.013260 0.001970
v 0.002927 -0.012844 0.002795
v -0.002572 -0.012920 0.002795
v 0.002919 -0.012286 0.003491
v -0.002580 -0.012362 0.003491
v 0.002909 -0.011556 0.004003
v -0.002590 -0.011632 0.004003
v 0.002898 -0.010711 0.004289
v -0.002602 -0.010787 0.004290
v 0.002886 -0.009820 0.004328
v -0.002614 -0.009896 0.004328
v 0.002874 -0.008954 0.004115
v -0.002626 -0.009030 0.004115
v 0.002863 -0.008183 0.003667
v -0.002636 -0.008258 0.003668
v 0.002855 -0.007567 0.003022
v -0.002645 -0.007643 0.003022
v 0.002849 -0.007157 0.002229
v -0.002651 -0.007233 0.002230
v 0.002846 -0.006986 0.001354
v -0.002653 -0.007062 0.001354
v -0.002655 -0.006927 0.000924
v 0.002845 -0.006851 0.000923
v -0.002659 -0.006600 0.000613
v 0.002840 -0.006524 0.000613
v -0.002665 -0.006163 0.000500
v 0.002834 -0.006088 0.000500
v 0.002865 -0.008332 0.001193
v -0.002635 -0.008408 0.001194
v 0.002866 -0.008441 0.000577
v -0.002633 -0.008516 0.000578
v 0.002871 -0.008753 0.000036
v -0.002629 -0.008829 0.000037
v 0.002877 -0.009232 -0.000366
v -0.002622 -0.009308 -0.000365
v 0.002885 -0.009819 -0.000580
v -0.002614 -0.009895 -0.000579
v 0.002894 -0.010444 -0.000580
v -0.002606 -0.010520 -0.000579
v 0.002902 -0.011032 -0.000366
v -0.002598 -0.011107 -0.000365
v 0.002908 -0.011511 0.000036
v -0.002591 -0.011586 0.000037
v 0.002913 -0.011823 0.000577
v -0.002587 -0.011899 0.000578
v 0.002914 -0.011932 0.001193
v -0.002585 -0.012007 0.001194
v 0.002913 -0.011823 0.001809
v -0.002587 -0.011899 0.001809
v 0.002909 -0.011511 0.002350
v -0.002591 -0.011586 0.002351
v 0.002902 -0.011032 0.002752
v -0.002597 -0.011107 0.002752
v 0.002894 -0.010444 0.002966
v -0.002605 -0.010520 0.002966
v 0.002885 -0.009819 0.002966
v -0.002614 -0.009895 0.002966
v 0.002877 -0.009232 0.002752
v -0.002622 -0.009308 0.002752
v 0.002871 -0.008753 0.002350
v -0.002629 -0.008829 0.002351
v 0.002866 -0.008441 0.001809
v -0.002633 -0.008516 0.001809
v -0.002670 -0.005856 0.000500
v -0.002589 -0.011754 -0.004603
v -0.002577 -0.012630 -0.006864
v -0.002569 -0.013266 -0.007045
v -0.002559 -0.013925 -0.006984
v -0.002584 -0.012102 -0.006466
v -0.002589 -0.011754 -0.005903
v -0.002584 -0.012102 -0.004040
v -0.002577 -0.012630 -0.003642
v -0.002568 -0.013266 -0.003461
v -0.002545 -0.014963 -0.004305
v -0.002551 -0.014517 -0.003817
v -0.002559 -0.013925 -0.003522
v -0.002591 -0.011633 -0.005253
v -0.002551 -0.014517 -0.006689
v -0.002545 -0.014963 -0.006201
v -0.002542 -0.015202 -0.005584
v -0.002541 -0.015232 -0.005253
v -0.002542 -0.015202 -0.004922
v 0.002909 -0.011557 -0.005253
v 0.002910 -0.011679 -0.004603
v 0.002915 -0.012027 -0.004041
v 0.002923 -0.012555 -0.003642
v 0.002931 -0.013191 -0.003461
v 0.002940 -0.013849 -0.003522
v 0.002948 -0.014441 -0.003817
v 0.002955 -0.014887 -0.004306
v 0.002958 -0.015126 -0.004923
v 0.002958 -0.015157 -0.005253
v 0.002958 -0.015126 -0.005584
v 0.002954 -0.014887 -0.006201
v 0.002948 -0.014441 -0.006690
v 0.002940 -0.013849 -0.006985
v 0.002931 -0.013191 -0.007046
v 0.002922 -0.012555 -0.006865
v 0.002915 -0.012027 -0.006466
v 0.002910 -0.011679 -0.005904
v 0.002830 -0.005781 0.000500
v -0.002988 -0.004542 0.000500
v 0.003112 -0.004458 0.000500
v 0.003045 -0.005135 0.000500
v -0.002903 -0.005217 0.000500
vn -0.0001 -0.0000 -1.0000
vn 0.0001 -0.0000 1.0000
vn -0.9957 -0.0922 0.0001
vn -0.9691 -0.2468 0.0001
vn -0.9467 -0.3221 0.0001
vn -0.4218 0.9067 -0.0000
vn -0.5666 0.8240 -0.0000
vn -0.6956 0.7184 0.0001
vn 0.6793 0.7338 -0.0001
vn 0.5449 0.8385 -0.0000
vn 0.3933 0.9194 -0.0000
vn 0.9210 -0.3896 -0.0001
vn 0.9210 -0.3895 -0.0001
vn -0.9099 -0.4147 0.0001
vn -0.9100 -0.4147 0.0001
vn -0.8116 -0.5843 0.0001
vn -0.5441 -0.8390 -0.0000
vn 0.2086 -0.9780 -0.0000
vn -0.1816 -0.9834 -0.0000
vn -0.9780 -0.2086 0.0001
vn -0.9834 0.1816 0.0001
vn -0.8390 0.5441 0.0001
vn -0.5669 0.8238 -0.0000
vn -0.2086 0.9780 -0.0000
vn 0.1816 0.9834 -0.0000
vn 0.5441 0.8390 -0.0000
vn 0.8238 0.5669 -0.0001
vn 0.9780 0.2086 -0.0001
vn 0.9834 -0.1816 -0.0001
vn 0.8273 -0.5617 -0.0001
vn 0.5669 -0.8238 -0.0000
vn 0.0012 -0.0971 -0.9953
vn 0.0039 -0.2876 -0.9578
vn 0.0063 -0.4672 -0.8841
vn 0.0086 -0.6292 -0.7772
vn 0.0093 -0.6781 -0.7349
vn 0.0021 -0.1471 0.9891
vn 0.0056 -0.4041 0.9147
vn 0.0088 -0.6322 0.7748
vn 0.0113 -0.8150 0.5794
vn 0.0129 -0.9394 0.3425
vn 0.0137 -0.9966 0.0811
vn 0.0135 -0.9824 -0.1861
vn 0.0123 -0.8979 -0.4400
vn 0.0102 -0.7491 -0.6624
vn 0.0135 -0.9860 -0.1662
vn 0.0131 -0.9473 0.3199
vn 0.0095 -0.6834 0.7300
vn 0.0036 -0.2569 0.9664
vn 0.0120 -0.8735 -0.4867
vn 0.0123 -0.8955 -0.4450
vn 0.0135 -0.9843 -0.1761
vn 0.0137 -0.9942 0.1069
vn 0.0127 -0.9243 0.3814
vn 0.0108 -0.7804 0.6252
vn 0.0080 -0.5738 0.8189
vn 0.0045 -0.3213 0.9470
vn 0.0007 -0.0430 0.9991
vn -0.0032 0.2388 0.9711
vn -0.0068 0.5014 0.8652
vn -0.0099 0.7238 0.6899
vn -0.0122 0.8882 0.4593
vn -0.0135 0.9813 0.1919
vn -0.0131 0.9540 0.2997
vn -0.0094 0.6888 0.7249
vn -0.0034 0.2506 0.9681
vn 0.0136 -0.9847 0.1736
vn 0.0119 -0.8659 0.5000
vn 0.0089 -0.6427 0.7660
vn 0.0048 -0.3420 0.9397
vn -0.0046 0.3420 0.9397
vn -0.0088 0.6427 0.7660
vn -0.0119 0.8659 0.5000
vn -0.0135 0.9847 0.1737
vn -0.0135 0.9847 0.1736
vn -0.0136 0.9847 -0.1736
vn -0.0119 0.8659 -0.5000
vn -0.0089 0.6427 -0.7660
vn -0.0048 0.3420 -0.9397
vn 0.0046 -0.3420 -0.9397
vn 0.0088 -0.6427 -0.7660
vn 0.0119 -0.8659 -0.5000
vn 0.0135 -0.9847 -0.1736
vn -0.9999 -0.0137 0.0001
vn -0.9999 -0.0138 0.0001
vn 0.0135 -0.9829 -0.1838
vn 0.0135 -0.9829 -0.1837
vn 0.0116 -0.8501 -0.5264
vn 0.0082 -0.6026 -0.7980
vn 0.0037 -0.2736 -0.9618
vn -0.0014 0.0923 -0.9957
vn -0.0062 0.4457 -0.8952
vn -0.0102 0.7389 -0.6737
vn -0.0128 0.9324 -0.3612
vn -0.0137 0.9956 -0.0923
vn -0.0137 0.9956 0.0923
vn -0.0128 0.9324 0.3612
vn -0.0101 0.7389 0.6737
vn -0.0060 0.4457 0.8952
vn -0.0012 0.0923 0.9957
vn 0.0038 -0.2736 0.9618
vn 0.0084 -0.6026 0.7980
vn 0.0117 -0.8501 0.5264
vn 0.0135 -0.9829 0.1837
vn 0.9999 0.0137 -0.0001
vn 0.9999 0.0138 -0.0001
vn -0.9397 -0.3421 0.0001
vn -0.9921 -0.1251 0.0001
vn -0.9922 -0.1250 0.0001
vn 0.9952 -0.0981 -0.0001
vn 0.9487 -0.3162 -0.0001
vn 0.9785 -0.2061 -0.0001
vn 0.7959 -0.6054 -0.0001
vn 0.4598 -0.8880 -0.0000
vn -0.9871 0.1601 0.0001
vn -0.8728 0.4880 0.0001
vn -0.6533 0.7571 0.0001
vn -0.3549 0.9349 -0.0000
vn -0.0137 0.9999 -0.0000
vn 0.3291 0.9443 -0.0000
vn 0.6322 0.7748 -0.0001
vn 0.8591 0.5119 -0.0001
vn 0.9823 0.1872 -0.0001
vn 0.9871 -0.1601 -0.0001
vn 0.8728 -0.4880 -0.0001
vn 0.8728 -0.4881 -0.0001
vn 0.6533 -0.7571 -0.0001
vn 0.3549 -0.9349 -0.0000
vn 0.0137 -0.9999 -0.0000
vn -0.3291 -0.9443 -0.0000
vn -0.6322 -0.7748 0.0001
vn -0.8591 -0.5119 0.0001
vn -0.9823 -0.1872 0.0001
vn -0.9999 -0.0137 -0.0000
vn 0.3967 0.9180 -0.0000
vn 0.5436 0.8393 -0.0000
vn 0.6755 0.7374 -0.0001
vn 0.9830 -0.1835 -0.0001
vn 0.9981 0.0613 -0.0001
vn 0.9532 0.3024 -0.0001
vn 0.8509 0.5254 -0.0001
vn 0.6973 0.7167 -0.0001
vn 0.5019 0.8649 -0.0000
vn 0.2762 0.9611 -0.0000
vn 0.0339 0.9994 -0.0000
vn -0.2104 0.9776 -0.0000
vn -0.4421 0.8970 -0.0000
vn -0.6472 0.7623 0.0001
vn -0.8133 0.5819 0.0001
s 0
f 1//1 2//1 3//1
f 4//1 5//1 6//1
f 6//1 7//1 4//1
f 4//1 7//1 8//1
f 4//1 8//1 9//1
f 10//1 11//1 12//1
f 13//1 1//1 14//1
f 14//1 1//1 12//1
f 12//1 1//1 3//1
f 12//1 3//1 15//1
f 16//1 17//1 18//1
f 18//1 17//1 19//1
f 18//1 19//1 20//1
f 20//1 19//1 21//1
f 20//1 21//1 22//1
f 23//1 24//1 25//1
f 4//1 26//1 27//1
f 21//1 28//1 22//1
f 22//1 28//1 29//1
f 22//1 29//1 30//1
f 30//1 29//1 31//1
f 30//1 31//1 32//1
f 27//1 26//1 33//1
f 33//1 26//1 23//1
f 33//1 23//1 34//1
f 34//1 23//1 25//1
f 34//1 25//1 16//1
f 16//1 25//1 35//1
f 16//1 35//1 17//1
f 14//1 36//1 13//1
f 13//1 36//1 37//1
f 13//1 37//1 38//1
f 38//1 37//1 5//1
f 38//1 5//1 39//1
f 39//1 5//1 4//1
f 39//1 4//1 40//1
f 40//1 4//1 27//1
f 15//1 41//1 12//1
f 12//1 41//1 42//1
f 12//1 42//1 10//1
f 31//1 43//1 32//1
f 32//1 43//1 44//1
f 32//1 44//1 45//1
f 45//1 44//1 46//1
f 45//1 46//1 47//1
f 47//1 46//1 48//1
f 47//1 48//1 49//1
f 49//1 48//1 2//1
f 49//1 2//1 50//1
f 50//1 2//1 1//1
f 51//2 52//2 53//2
f 54//2 55//2 56//2
f 56//2 55//2 57//2
f 56//2 57//2 58//2
f 53//2 52//2 59//2
f 59//2 52//2 60//2
f 59//2 60//2 61//2
f 61//2 60//2 62//2
f 61//2 62//2 63//2
f 64//2 65//2 66//2
f 66//2 65//2 67//2
f 68//2 69//2 70//2
f 70//2 69//2 71//2
f 70//2 71//2 72//2
f 72//2 71//2 73//2
f 72//2 73//2 74//2
f 74//2 73//2 75//2
f 58//2 57//2 62//2
f 62//2 57//2 76//2
f 62//2 76//2 77//2
f 77//2 78//2 62//2
f 62//2 78//2 79//2
f 62//2 79//2 63//2
f 69//2 66//2 80//2
f 80//2 66//2 67//2
f 80//2 67//2 81//2
f 68//2 82//2 69//2
f 69//2 82//2 83//2
f 69//2 83//2 66//2
f 66//2 83//2 84//2
f 66//2 84//2 85//2
f 85//2 84//2 86//2
f 85//2 86//2 87//2
f 87//2 86//2 88//2
f 87//2 88//2 89//2
f 90//2 91//2 75//2
f 75//2 91//2 92//2
f 93//2 87//2 94//2
f 94//2 87//2 89//2
f 94//2 89//2 95//2
f 95//2 89//2 96//2
f 95//2 96//2 97//2
f 97//2 96//2 51//2
f 97//2 51//2 98//2
f 98//2 51//2 53//2
f 54//2 74//2 55//2
f 55//2 74//2 75//2
f 55//2 75//2 99//2
f 99//2 75//2 92//2
f 99//2 92//2 100//2
f 4//3 66//3 26//3
f 26//3 66//3 85//3
f 26//4 85//4 23//4
f 23//4 85//4 87//4
f 23//5 87//5 24//5
f 24//5 87//5 93//5
f 90//6 101//6 91//6
f 91//6 101//6 102//6
f 91//7 102//7 92//7
f 92//7 102//7 103//7
f 92//8 103//8 100//8
f 100//8 103//8 104//8
f 64//9 105//9 65//9
f 65//9 105//9 106//9
f 65//10 106//10 67//10
f 67//10 106//10 107//10
f 67//11 107//11 81//11
f 81//11 107//11 108//11
f 81//12 108//12 109//12
f 110//13 111//13 6//13
f 112//14 113//14 11//14
f 11//15 113//15 90//15
f 11//16 90//16 12//16
f 12//16 90//16 75//16
f 12//17 75//17 14//17
f 69//18 36//18 71//18
f 71//19 36//19 14//19
f 71//19 14//19 73//19
f 73//17 14//17 75//17
f 101//14 90//14 114//14
f 114//14 90//14 113//14
f 114//20 113//20 115//20
f 115//20 113//20 116//20
f 115//21 116//21 117//21
f 117//21 116//21 118//21
f 117//22 118//22 119//22
f 119//22 118//22 120//22
f 119//23 120//23 121//23
f 121//23 120//23 122//23
f 121//24 122//24 123//24
f 123//24 122//24 124//24
f 123//25 124//25 125//25
f 125//25 124//25 126//25
f 125//26 126//26 127//26
f 127//26 126//26 128//26
f 127//27 128//27 129//27
f 129//27 128//27 130//27
f 129//28 130//28 131//28
f 131//28 130//28 132//28
f 131//29 132//29 109//29
f 109//29 132//29 110//29
f 109//13 110//13 81//13
f 81//13 110//13 6//13
f 81//30 6//30 80//30
f 80//30 6//30 5//30
f 80//31 5//31 69//31
f 69//31 5//31 37//31
f 69//18 37//18 36//18
f 41//8 133//8 42//8
f 42//8 133//8 134//8
f 42//7 134//7 10//7
f 10//7 134//7 135//7
f 10//6 135//6 11//6
f 11//6 135//6 112//6
f 132//1 136//1 110//1
f 110//1 136//1 111//1
f 130//1 128//1 137//1
f 137//1 128//1 126//1
f 137//1 126//1 138//1
f 138//1 126//1 124//1
f 134//1 133//1 139//1
f 140//1 141//1 142//1
f 134//1 139//1 135//1
f 142//1 136//1 140//1
f 140//1 136//1 132//1
f 140//1 132//1 143//1
f 143//1 132//1 130//1
f 143//1 130//1 144//1
f 144//1 130//1 137//1
f 112//1 135//1 113//1
f 113//1 135//1 139//1
f 113//1 139//1 116//1
f 116//1 139//1 145//1
f 116//1 145//1 118//1
f 118//1 145//1 146//1
f 118//1 146//1 120//1
f 120//1 146//1 138//1
f 120//1 138//1 122//1
f 122//1 138//1 124//1
f 137//32 138//32 147//32
f 137//32 147//32 148//32
f 148//33 147//33 149//33
f 148//33 149//33 150//33
f 150//34 149//34 151//34
f 150//34 151//34 152//34
f 152//35 151//35 153//35
f 152//35 153//35 154//35
f 155//36 156//36 153//36
f 153//36 156//36 154//36
f 157//37 158//37 159//37
f 157//37 159//37 160//37
f 160//38 159//38 161//38
f 160//38 161//38 162//38
f 162//39 161//39 163//39
f 162//39 163//39 164//39
f 164//40 163//40 165//40
f 164//40 165//40 166//40
f 166//41 165//41 167//41
f 166//41 167//41 168//41
f 168//42 167//42 169//42
f 168//42 169//42 170//42
f 170//43 169//43 171//43
f 170//43 171//43 172//43
f 172//44 171//44 173//44
f 172//44 173//44 174//44
f 174//45 173//45 156//45
f 174//45 156//45 155//45
f 175//46 176//46 177//46
f 177//46 176//46 178//46
f 177//47 178//47 179//47
f 179//47 178//47 180//47
f 179//48 180//48 181//48
f 181//48 180//48 182//48
f 181//49 182//49 157//49
f 157//49 182//49 158//49
f 176//50 175//50 183//50
f 183//50 175//50 184//50
f 183//51 184//51 185//51
f 183//51 185//51 186//51
f 186//52 185//52 187//52
f 186//52 187//52 188//52
f 188//53 187//53 189//53
f 188//53 189//53 190//53
f 190//54 189//54 191//54
f 190//54 191//54 192//54
f 192//55 191//55 193//55
f 192//55 193//55 194//55
f 194//56 193//56 195//56
f 194//56 195//56 196//56
f 196//57 195//57 197//57
f 196//57 197//57 198//57
f 198//58 197//58 199//58
f 198//58 199//58 200//58
f 200//59 199//59 201//59
f 200//59 201//59 202//59
f 202//60 201//60 203//60
f 202//60 203//60 204//60
f 204//61 203//61 205//61
f 204//61 205//61 206//61
f 206//62 205//62 207//62
f 206//62 207//62 208//62
f 208//63 207//63 209//63
f 208//63 209//63 210//63
f 210//64 209//64 211//64
f 211//64 209//64 212//64
f 211//65 212//65 213//65
f 213//65 212//65 214//65
f 213//66 214//66 215//66
f 215//66 214//66 216//66
f 217//67 218//67 219//67
f 219//67 218//67 220//67
f 219//68 220//68 221//68
f 221//68 220//68 222//68
f 221//69 222//69 223//69
f 223//69 222//69 224//69
f 223//70 224//70 225//70
f 225//70 224//70 226//70
f 225//2 226//2 227//2
f 227//2 226//2 228//2
f 227//71 228//71 229//71
f 229//71 228//71 230//71
f 229//72 230//72 231//72
f 231//72 230//72 232//72
f 231//73 232//73 233//73
f 233//73 232//73 234//73
f 233//74 234//74 235//74
f 235//75 234//75 236//75
f 235//76 236//76 237//76
f 237//76 236//76 238//76
f 237//77 238//77 239//77
f 239//77 238//77 240//77
f 239//78 240//78 241//78
f 241//78 240//78 242//78
f 241//79 242//79 243//79
f 243//79 242//79 244//79
f 243//1 244//1 245//1
f 245//1 244//1 246//1
f 245//80 246//80 247//80
f 247//80 246//80 248//80
f 247//81 248//81 249//81
f 249//81 248//81 250//81
f 249//82 250//82 251//82
f 251//82 250//82 252//82
f 251//83 252//83 217//83
f 217//83 252//83 218//83
f 215//84 253//84 144//84
f 224//84 211//84 213//84
f 182//84 180//84 254//84
f 152//84 228//84 226//84
f 255//84 152//84 256//84
f 256//84 152//84 154//84
f 256//84 154//84 257//84
f 226//84 224//84 152//84
f 152//84 224//84 213//84
f 152//84 213//84 150//84
f 150//84 213//84 148//84
f 215//84 144//84 213//84
f 213//84 144//84 137//84
f 213//84 137//84 148//84
f 255//84 258//84 152//84
f 152//84 258//84 259//84
f 152//84 259//84 228//84
f 178//85 238//85 236//85
f 224//84 222//84 211//84
f 211//84 222//84 220//84
f 211//84 220//84 210//84
f 210//84 220//84 218//84
f 210//84 218//84 208//84
f 208//84 218//84 252//84
f 208//84 252//84 206//84
f 206//84 252//84 250//84
f 206//84 250//84 204//84
f 204//84 250//84 248//84
f 254//84 260//84 182//84
f 182//84 260//84 261//84
f 182//84 261//84 262//84
f 238//84 192//84 240//84
f 240//84 192//84 194//84
f 240//84 194//84 242//84
f 242//84 194//84 196//84
f 242//84 196//84 244//84
f 244//84 196//84 198//84
f 244//84 198//84 246//84
f 246//84 198//84 200//84
f 246//84 200//84 248//84
f 248//84 200//84 202//84
f 248//84 202//84 204//84
f 178//84 176//84 238//84
f 238//84 176//84 183//84
f 238//84 183//84 186//84
f 263//84 163//84 264//84
f 264//84 163//84 161//84
f 264//84 161//84 265//84
f 265//84 161//84 159//84
f 265//84 159//84 262//84
f 262//84 159//84 158//84
f 262//84 158//84 182//84
f 236//84 234//84 178//84
f 178//84 234//84 232//84
f 178//84 232//84 180//84
f 180//84 232//84 230//84
f 180//84 230//84 254//84
f 254//84 230//84 228//84
f 254//84 228//84 266//84
f 266//85 228//85 259//85
f 186//84 188//84 238//84
f 238//84 188//84 190//84
f 238//84 190//84 192//84
f 257//84 154//84 267//84
f 267//84 154//84 156//84
f 267//84 156//84 268//84
f 268//84 156//84 173//84
f 268//84 173//84 269//84
f 269//84 173//84 171//84
f 269//84 171//84 270//84
f 270//84 171//84 169//84
f 270//84 169//84 271//84
f 271//84 169//84 167//84
f 271//84 167//84 263//84
f 263//84 167//84 165//84
f 263//84 165//84 163//84
f 266//86 272//86 254//86
f 254//87 272//87 273//87
f 254//88 273//88 260//88
f 260//88 273//88 274//88
f 260//89 274//89 261//89
f 261//89 274//89 275//89
f 261//90 275//90 262//90
f 262//90 275//90 276//90
f 262//91 276//91 265//91
f 265//91 276//91 277//91
f 265//92 277//92 264//92
f 264//92 277//92 278//92
f 264//93 278//93 263//93
f 263//93 278//93 279//93
f 263//94 279//94 271//94
f 271//94 279//94 280//94
f 271//95 280//95 270//95
f 270//95 280//95 281//95
f 270//96 281//96 269//96
f 269//96 281//96 282//96
f 269//97 282//97 268//97
f 268//97 282//97 283//97
f 268//98 283//98 267//98
f 267//98 283//98 284//98
f 267//99 284//99 257//99
f 257//99 284//99 285//99
f 257//100 285//100 256//100
f 256//100 285//100 286//100
f 256//101 286//101 255//101
f 255//101 286//101 287//101
f 255//102 287//102 258//102
f 258//102 287//102 288//102
f 258//103 288//103 259//103
f 259//103 288//103 289//103
f 259//104 289//104 266//104
f 266//104 289//104 272//104
f 157//105 160//105 162//105
f 225//105 177//105 276//105
f 276//106 177//106 179//106
f 276//105 179//105 277//105
f 214//105 151//105 149//105
f 149//105 147//105 214//105
f 214//105 147//105 138//105
f 214//105 138//105 216//105
f 216//105 138//105 146//105
f 216//105 146//105 290//105
f 233//105 235//105 187//105
f 225//105 276//105 223//105
f 223//105 276//105 212//105
f 223//105 212//105 221//105
f 187//105 235//105 189//105
f 189//105 235//105 237//105
f 189//105 237//105 191//105
f 191//105 237//105 239//105
f 191//105 239//105 193//105
f 193//105 239//105 195//105
f 195//105 239//105 241//105
f 195//105 241//105 197//105
f 197//105 241//105 243//105
f 197//105 243//105 199//105
f 199//105 243//105 245//105
f 199//105 245//105 201//105
f 201//105 245//105 247//105
f 201//105 247//105 203//105
f 203//105 247//105 249//105
f 203//105 249//105 205//105
f 205//105 249//105 207//105
f 207//105 249//105 251//105
f 207//105 251//105 209//105
f 209//105 251//105 217//105
f 209//105 217//105 212//105
f 212//105 217//105 219//105
f 212//105 219//105 221//105
f 225//105 227//105 177//105
f 177//105 227//105 229//105
f 177//105 229//105 175//105
f 175//105 229//105 231//105
f 175//105 231//105 184//105
f 184//105 231//105 233//105
f 184//105 233//105 185//105
f 185//105 233//105 187//105
f 153//105 151//105 287//105
f 157//106 162//106 181//106
f 181//105 162//105 279//105
f 181//105 279//105 179//105
f 179//105 279//105 278//105
f 179//105 278//105 277//105
f 276//105 275//105 212//105
f 212//105 275//105 274//105
f 212//105 274//105 214//105
f 214//105 274//105 273//105
f 273//105 272//105 214//105
f 214//105 272//105 289//105
f 214//105 289//105 151//105
f 151//105 289//105 288//105
f 151//105 288//105 287//105
f 162//105 164//105 279//105
f 279//105 164//105 166//105
f 279//105 166//105 280//105
f 280//105 166//105 168//105
f 280//105 168//105 281//105
f 281//105 168//105 170//105
f 281//105 170//105 282//105
f 282//105 170//105 172//105
f 282//105 172//105 283//105
f 283//105 172//105 174//105
f 283//105 174//105 284//105
f 284//105 174//105 155//105
f 284//105 155//105 285//105
f 285//105 155//105 153//105
f 285//105 153//105 286//105
f 286//105 153//105 287//105
f 117//2 119//2 216//2
f 106//2 105//2 291//2
f 115//2 102//2 114//2
f 114//2 102//2 101//2
f 106//2 291//2 107//2
f 292//2 104//2 103//2
f 119//2 121//2 216//2
f 216//2 121//2 123//2
f 216//2 123//2 215//2
f 103//2 102//2 292//2
f 292//2 102//2 115//2
f 292//2 115//2 293//2
f 293//2 115//2 117//2
f 293//2 117//2 290//2
f 290//2 117//2 216//2
f 108//2 107//2 109//2
f 109//2 107//2 291//2
f 109//2 291//2 131//2
f 131//2 291//2 294//2
f 131//2 294//2 129//2
f 129//2 294//2 253//2
f 129//2 253//2 127//2
f 127//2 253//2 215//2
f 127//2 215//2 125//2
f 125//2 215//2 123//2
f 144//107 253//107 294//107
f 291//108 140//108 294//108
f 294//109 140//109 143//109
f 294//107 143//107 144//107
f 139//110 292//110 293//110
f 139//110 293//110 145//110
f 145//111 293//111 290//111
f 145//111 290//111 146//111
f 100//105 104//105 292//105
f 139//105 133//105 41//105
f 15//105 99//105 41//105
f 41//105 99//105 100//105
f 41//105 100//105 139//105
f 139//105 100//105 292//105
f 99//112 15//112 55//112
f 55//112 15//112 3//112
f 55//113 3//113 57//113
f 57//113 3//113 2//113
f 57//114 2//114 76//114
f 76//114 2//114 48//114
f 56//115 45//115 54//115
f 54//115 45//115 47//115
f 54//116 47//116 74//116
f 74//116 47//116 49//116
f 74//117 49//117 72//117
f 72//117 49//117 50//117
f 72//118 50//118 70//118
f 70//118 50//118 1//118
f 70//119 1//119 68//119
f 68//119 1//119 13//119
f 68//120 13//120 82//120
f 82//120 13//120 38//120
f 82//121 38//121 83//121
f 83//121 38//121 39//121
f 83//122 39//122 84//122
f 84//122 39//122 40//122
f 84//123 40//123 86//123
f 86//123 40//123 27//123
f 86//124 27//124 88//124
f 88//124 27//124 33//124
f 88//125 33//125 89//125
f 89//126 33//126 34//126
f 89//127 34//127 96//127
f 96//127 34//127 16//127
f 96//128 16//128 51//128
f 51//128 16//128 18//128
f 51//129 18//129 52//129
f 52//129 18//129 20//129
f 52//130 20//130 60//130
f 60//130 20//130 22//130
f 60//131 22//131 62//131
f 62//131 22//131 30//131
f 62//132 30//132 58//132
f 58//132 30//132 32//132
f 58//133 32//133 56//133
f 56//133 32//133 45//133
f 140//84 291//84 64//84
f 64//134 291//134 105//134
f 141//84 140//84 9//84
f 9//84 140//84 64//84
f 9//84 64//84 4//84
f 4//84 64//84 66//84
f 6//135 111//135 7//135
f 7//135 111//135 136//135
f 7//136 136//136 8//136
f 8//136 136//136 142//136
f 8//137 142//137 9//137
f 9//137 142//137 141//137
f 76//138 48//138 46//138
f 76//138 46//138 77//138
f 77//139 46//139 44//139
f 77//139 44//139 78//139
f 78//140 44//140 43//140
f 78//140 43//140 79//140
f 79//141 43//141 31//141
f 79//141 31//141 63//141
f 63//142 31//142 29//142
f 63//142 29//142 61//142
f 61//143 29//143 28//143
f 61//143 28//143 59//143
f 59//144 28//144 21//144
f 59//144 21//144 53//144
f 53//145 21//145 19//145
f 53//145 19//145 98//145
f 98//146 19//146 17//146
f 98//146 17//146 97//146
f 97//147 17//147 35//147
f 97//147 35//147 95//147
f 95//148 35//148 25//148
f 95//148 25//148 94//148
f 94//149 25//149 24//149
f 94//149 24//149 93//149
