solid AssimpScene
 facet normal 0 0 0
  outer loop
  vertex 0 0.0250000004 0.000499999267
  vertex 0.00883687194 0.0233861003 0.000499999267
  vertex 0.0160696898 0.0191511102 0.000499999267
  endloop
 endfacet

 facet normal 0 0 0
  outer loop
  vertex 0 0.0250000004 0.000499999267
  vertex 0.0160696898 0.0191511102 0.000499999267
  vertex 0.0191511102 0.0160696898 0.000499999267
  endloop
 endfacet

 facet normal 0 0 0
  outer loop
  vertex 0 0.0250000004 0.000499999267
  vertex 0.0191511102 0.0160696898 0.000499999267
  vertex 0.0244999994 0 8.9406961e-11
  endloop
 endfacet

 facet normal 0 0 0
  outer loop
  vertex 0 0.0250000004 0.000499999267
  vertex 0.0244999994 0 8.9406961e-11
  vertex 0.0191511102 -0.0160696898 0.000499999267
  endloop
 endfacet

 facet normal 0 0 0
  outer loop
  vertex 0 0.0250000004 0.000499999267
  vertex 0.0191511102 -0.0160696898 0.000499999267
  vertex 0.0160696898 -0.0191511102 0.000499999267
  endloop
 endfacet

 facet normal 0 0 0
  outer loop
  vertex 0 0.0250000004 0.000499999267
  vertex 0.0160696898 -0.0191511102 0.000499999267
  vertex 0.00883687194 -0.0233861003 0.000499999267
  endloop
 endfacet

 facet normal 0 0 0
  outer loop
  vertex 0 0.0250000004 0.000499999267
  vertex 0.00883687194 -0.0233861003 0.000499999267
  vertex 0 -0.0250000004 0.000499999267
  endloop
 endfacet

 facet normal 0 0 0
  outer loop
  vertex 0 0.0250000004 0.000499999267
  vertex 0 -0.0250000004 0.000499999267
  vertex -0.00883687194 -0.0233861003 0.000499999267
  endloop
 endfacet

 facet normal 0 0 0
  outer loop
  vertex 0 0.0250000004 0.000499999267
  vertex -0.00883687194 -0.0233861003 0.000499999267
  vertex -0.0160696898 -0.0191511102 0.000499999267
  endloop
 endfacet

 facet normal 0 0 0
  outer loop
  vertex 0 0.0250000004 0.000499999267
  vertex -0.0160696898 -0.0191511102 0.000499999267
  vertex -0.0191511102 -0.0160696898 0.000499999267
  endloop
 endfacet

 facet normal 0 0 0
  outer loop
  vertex 0 0.0250000004 0.000499999267
  vertex -0.0191511102 -0.0160696898 0.000499999267
  vertex -0.0244999994 5.55111512e-17 8.9406961e-11
  endloop
 endfacet

 facet normal 0 0 0
  outer loop
  vertex 0.0130814752 0.0130814752 0.0384999998
  vertex 0.0153821874 -0.0102780489 0.0384999998
  vertex 0.0186349209 -0.00370671647 0.0380000025
  endloop
 endfacet

 facet normal 0 0 0
  outer loop
  vertex 0.0130814752 0.0130814752 0.0384999998
  vertex 0.0186349209 -0.00370671647 0.0380000025
  vertex 0.0186349209 0.00370671647 0.0380000025
  endloop
 endfacet

 facet normal 0 0 0
  outer loop
  vertex -0.0130814752 0.0130814752 0.0384999998
  vertex -0.0186349209 0.00370671647 0.0380000025
  vertex -0.0186349209 -0.00370671647 0.0380000025
  endloop
 endfacet

 facet normal 0 0 0
  outer loop
  vertex -0.0130814752 0.0130814752 0.0384999998
  vertex -0.0186349209 -0.00370671647 0.0380000025
  vertex -0.0153821874 -0.0102780489 0.0384999998
  endloop
 endfacet

 facet normal 0 0 0
  outer loop
  vertex -0.0130814752 0.0130814752 0.0384999998
  vertex -0.0153821874 -0.0102780489 0.0384999998
  vertex 0 -0.0185000002 0.0384999998
  endloop
 endfacet

 facet normal 0 0 0
  outer loop
  vertex -0.0130814752 0.0130814752 0.0384999998
  vertex 0 -0.0185000002 0.0384999998
  vertex 0.0153821874 -0.0102780489 0.0384999998
  endloop
 endfacet

 facet normal 0 0 0
  outer loop
  vertex -0.0130814752 0.0130814752 0.0384999998
  vertex 0.0153821874 -0.0102780489 0.0384999998
  vertex 0.0130814752 0.0130814752 0.0384999998
  endloop
 endfacet

 facet normal 0 0 0
  outer loop
  vertex -0.0130814752 0.0130814752 0.0384999998
  vertex 0.0130814752 0.0130814752 0.0384999998
  vertex 0 0.0185000002 0.0384999998
  endloop
 endfacet

 facet normal 0 0 0
  outer loop
  vertex 0.00883687194 -0.0233861003 0.000499999267
  vertex 0.00468453346 -0.0245571807 0.0294999983
  vertex 0 -0.0250000004 0.000499999267
  endloop
 endfacet

 facet normal 0 0 0
  outer loop
  vertex -0.00883687194 -0.0233861003 0.000499999267
  vertex 0 -0.0250000004 0.000499999267
  vertex 0 -0.0250000004 0.0294999983
  endloop
 endfacet

 facet normal 0 0 0
  outer loop
  vertex -0.00883687194 -0.0233861003 0.000499999267
  vertex 0 -0.0250000004 0.0294999983
  vertex -0.00855050329 -0.0234923158 0.0294999983
  endloop
 endfacet

 facet normal 0 0 0
  outer loop
  vertex -0.00883687194 0.0233861003 0.0294999983
  vertex 0 0.0250000004 0.0294999983
  vertex 0 0.0250000004 0.000499999267
  endloop
 endfacet

 facet normal 0 0 0
  outer loop
  vertex -0.00883687194 0.0233861003 0.0294999983
  vertex 0 0.0250000004 0.000499999267
  vertex -0.00883687194 0.0233861003 0.000499999267
  endloop
 endfacet

 facet normal 0 0 0
  outer loop
  vertex 0.00883687194 0.0233861003 0.0294999983
  vertex 0.00883687194 0.0233861003 0.000499999267
  vertex 0 0.0250000004 0.000499999267
  endloop
 endfacet

 facet normal 0 0 0
  outer loop
  vertex 0.00883687194 0.0233861003 0.0294999983
  vertex 0 0.0250000004 0.000499999267
  vertex 0 0.0250000004 0.0294999983
  endloop
 endfacet

 facet normal 0 0 0
  outer loop
  vertex -0.0244999994 5.55111512e-17 8.9406961e-11
  vertex -0.0191511102 0.0160696898 0.000499999267
  vertex -0.0160696898 0.0191511102 0.000499999267
  endloop
 endfacet

 facet normal 0 0 0
  outer loop
  vertex -0.0244999994 5.55111512e-17 8.9406961e-11
  vertex -0.0160696898 0.0191511102 0.000499999267
  vertex -0.00883687194 0.0233861003 0.000499999267
  endloop
 endfacet

 facet normal 0 0 0
  outer loop
  vertex -0.0244999994 5.55111512e-17 8.9406961e-11
  vertex -0.00883687194 0.0233861003 0.000499999267
  vertex 0 0.0250000004 0.000499999267
  endloop
 endfacet

 facet normal 0 0 0
  outer loop
  vertex 0.00772799645 -0.0173573643 0.0380000025
  vertex 0.0127260359 -0.0215185508 0.0294999983
  vertex 0.0191511102 -0.0160696898 0.0294999983
  endloop
 endfacet

 facet normal 0 0 0
  outer loop
  vertex 0.00772799645 -0.0173573643 0.0380000025
  vertex 0.0191511102 -0.0160696898 0.0294999983
  vertex 0.0153821874 -0.0102780489 0.0384999998
  endloop
 endfacet

 facet normal 0 0 0
  outer loop
  vertex 0.00772799645 -0.0173573643 0.0380000025
  vertex 0.0153821874 -0.0102780489 0.0384999998
  vertex 0 -0.0185000002 0.0384999998
  endloop
 endfacet

 facet normal 0 0 0
  outer loop
  vertex 0.00772799645 -0.0173573643 0.0380000025
  vertex 0 -0.0185000002 0.0384999998
  vertex 0.00468453346 -0.0245571807 0.0294999983
  endloop
 endfacet

 facet normal 0 0 0
  outer loop
  vertex -0.0153821874 -0.0102780489 0.0384999998
  vertex -0.0191511102 -0.0160696898 0.0294999983
  vertex -0.0127260359 -0.0215185508 0.0294999983
  endloop
 endfacet

 facet normal 0 0 0
  outer loop
  vertex -0.0153821874 -0.0102780489 0.0384999998
  vertex -0.0127260359 -0.0215185508 0.0294999983
  vertex -0.00772799645 -0.0173573643 0.0380000025
  endloop
 endfacet

 facet normal 0 0 0
  outer loop
  vertex -0.00772799645 -0.0173573643 0.0380000025
  vertex 0 -0.0185000002 0.0384999998
  vertex -0.0153821874 -0.0102780489 0.0384999998
  endloop
 endfacet

 facet normal 0 0 0
  outer loop
  vertex 0.0234923158 -0.00855050329 0.0294999983
  vertex 0.0153821874 -0.0102780489 0.0384999998
  vertex 0.0191511102 -0.0160696898 0.0294999983
  endloop
 endfacet

 facet normal 0 0 0
  outer loop
  vertex 0.0235220194 -0.00846844818 0.000499999267
  vertex 0.0250000004 6.41692111e-07 0.00200001802
  vertex 0.0250000004 0 0.0294999983
  endloop
 endfacet

 facet normal 0 0 0
  outer loop
  vertex 0.0235220194 -0.00846844818 0.000499999267
  vertex 0.0250000004 0 0.0294999983
  vertex 0.0234923158 -0.00855050329 0.0294999983
  endloop
 endfacet

 facet normal 0 0 0
  outer loop
  vertex 0.0235220194 -0.00846844818 0.000499999267
  vertex 0.0234923158 -0.00855050329 0.0294999983
  vertex 0.0191511102 -0.0160696898 0.0294999983
  endloop
 endfacet

 facet normal 0 0 0
  outer loop
  vertex 0.0235220194 -0.00846844818 0.000499999267
  vertex 0.0191511102 -0.0160696898 0.0294999983
  vertex 0.0191511102 -0.0160696898 0.000499999267
  endloop
 endfacet

 facet normal 0 0 0
  outer loop
  vertex 0.0235220194 -0.00846844818 0.000499999267
  vertex 0.0191511102 -0.0160696898 0.000499999267
  vertex 0.0244999994 0 8.9406961e-11
  endloop
 endfacet

 facet normal 0 0 0
  outer loop
  vertex 0.0235220194 -0.00846844818 0.000499999267
  vertex 0.0244999994 0 8.9406961e-11
  vertex 0.0250000004 6.41692111e-07 0.00200001802
  endloop
 endfacet

 facet normal 0 0 0
  outer loop
  vertex -0.0234923158 0.00855050329 0.0294999983
  vertex -0.0250000004 2.49800181e-16 0.0294999983
  vertex -0.0186349209 0.00370671647 0.0380000025
  endloop
 endfacet

 facet normal 0 0 0
  outer loop
  vertex -0.0186349209 0.00370671647 0.0380000025
  vertex -0.0130814752 0.0130814752 0.0384999998
  vertex -0.0191511102 0.0160696898 0.0294999983
  endloop
 endfacet

 facet normal 0 0 0
  outer loop
  vertex -0.0186349209 0.00370671647 0.0380000025
  vertex -0.0191511102 0.0160696898 0.0294999983
  vertex -0.0234923158 0.00855050329 0.0294999983
  endloop
 endfacet

 facet normal 0 0 0
  outer loop
  vertex -0.0235220194 0.00846844818 0.000499999267
  vertex -0.0250000004 -6.41692111e-07 0.00200001802
  vertex -0.0250000004 2.49800181e-16 0.0294999983
  endloop
 endfacet

 facet normal 0 0 0
  outer loop
  vertex -0.0235220194 0.00846844818 0.000499999267
  vertex -0.0250000004 2.49800181e-16 0.0294999983
  vertex -0.0234923158 0.00855050329 0.0294999983
  endloop
 endfacet

 facet normal 0 0 0
  outer loop
  vertex -0.0235220194 0.00846844818 0.000499999267
  vertex -0.0234923158 0.00855050329 0.0294999983
  vertex -0.0191511102 0.0160696898 0.0294999983
  endloop
 endfacet

 facet normal 0 0 0
  outer loop
  vertex -0.0235220194 0.00846844818 0.000499999267
  vertex -0.0191511102 0.0160696898 0.0294999983
  vertex -0.0191511102 0.0160696898 0.000499999267
  endloop
 endfacet

 facet normal 0 0 0
  outer loop
  vertex -0.0235220194 0.00846844818 0.000499999267
  vertex -0.0191511102 0.0160696898 0.000499999267
  vertex -0.0244999994 5.55111512e-17 8.9406961e-11
  endloop
 endfacet

 facet normal 0 0 0
  outer loop
  vertex -0.0235220194 0.00846844818 0.000499999267
  vertex -0.0244999994 5.55111512e-17 8.9406961e-11
  vertex -0.0250000004 -6.41692111e-07 0.00200001802
  endloop
 endfacet

 facet normal 0 0 0
  outer loop
  vertex 0.0234923158 0.00855050329 0.0294999983
  vertex 0.0191511102 0.0160696898 0.0294999983
  vertex 0.0130814752 0.0130814752 0.0384999998
  endloop
 endfacet

 facet normal 0 0 0
  outer loop
  vertex 0.0234923158 0.00855050329 0.0294999983
  vertex 0.0130814752 0.0130814752 0.0384999998
  vertex 0.0186349209 0.00370671647 0.0380000025
  endloop
 endfacet

 facet normal 0 0 0
  outer loop
  vertex 0.0234923158 0.00855050329 0.0294999983
  vertex 0.0186349209 0.00370671647 0.0380000025
  vertex 0.0250000004 0 0.0294999983
  endloop
 endfacet

 facet normal 0 0 0
  outer loop
  vertex 0.0235220194 0.00846844818 0.000499999267
  vertex 0.0191511102 0.0160696898 0.000499999267
  vertex 0.0191511102 0.0160696898 0.0294999983
  endloop
 endfacet

 facet normal 0 0 0
  outer loop
  vertex 0.0235220194 0.00846844818 0.000499999267
  vertex 0.0191511102 0.0160696898 0.0294999983
  vertex 0.0234923158 0.00855050329 0.0294999983
  endloop
 endfacet

 facet normal 0 0 0
  outer loop
  vertex 0.0234923158 0.00855050329 0.0294999983
  vertex 0.0250000004 0 0.0294999983
  vertex 0.0250000004 6.41692111e-07 0.00200001802
  endloop
 endfacet

 facet normal 0 0 0
  outer loop
  vertex 0.0234923158 0.00855050329 0.0294999983
  vertex 0.0250000004 6.41692111e-07 0.00200001802
  vertex 0.0235220194 0.00846844818 0.000499999267
  endloop
 endfacet

 facet normal 0 0 0
  outer loop
  vertex 0.0235220194 0.00846844818 0.000499999267
  vertex 0.0250000004 6.41692111e-07 0.00200001802
  vertex 0.0244999994 0 8.9406961e-11
  endloop
 endfacet

 facet normal 0 0 0
  outer loop
  vertex 0.0235220194 0.00846844818 0.000499999267
  vertex 0.0244999994 0 8.9406961e-11
  vertex 0.0191511102 0.0160696898 0.000499999267
  endloop
 endfacet

 facet normal 0 0 0
  outer loop
  vertex -0.0234923158 -0.00855050329 0.0294999983
  vertex -0.0191511102 -0.0160696898 0.0294999983
  vertex -0.0153821874 -0.0102780489 0.0384999998
  endloop
 endfacet

 facet normal 0 0 0
  outer loop
  vertex -0.0235220194 -0.00846844818 0.000499999267
  vertex -0.0191511102 -0.0160696898 0.000499999267
  vertex -0.0191511102 -0.0160696898 0.0294999983
  endloop
 endfacet

 facet normal 0 0 0
  outer loop
  vertex -0.0235220194 -0.00846844818 0.000499999267
  vertex -0.0191511102 -0.0160696898 0.0294999983
  vertex -0.0234923158 -0.00855050329 0.0294999983
  endloop
 endfacet

 facet normal 0 0 0
  outer loop
  vertex -0.0234923158 -0.00855050329 0.0294999983
  vertex -0.0250000004 2.49800181e-16 0.0294999983
  vertex -0.0250000004 -6.41692111e-07 0.00200001802
  endloop
 endfacet

 facet normal 0 0 0
  outer loop
  vertex -0.0234923158 -0.00855050329 0.0294999983
  vertex -0.0250000004 -6.41692111e-07 0.00200001802
  vertex -0.0235220194 -0.00846844818 0.000499999267
  endloop
 endfacet

 facet normal 0 0 0
  outer loop
  vertex -0.0235220194 -0.00846844818 0.000499999267
  vertex -0.0250000004 -6.41692111e-07 0.00200001802
  vertex -0.0244999994 5.55111512e-17 8.9406961e-11
  endloop
 endfacet

 facet normal 0 0 0
  outer loop
  vertex -0.0235220194 -0.00846844818 0.000499999267
  vertex -0.0244999994 5.55111512e-17 8.9406961e-11
  vertex -0.0191511102 -0.0160696898 0.000499999267
  endloop
 endfacet

 facet normal 0 0 0
  outer loop
  vertex 0.0127260359 -0.0215185508 0.0294999983
  vertex 0.00468453346 -0.0245571807 0.0294999983
  vertex 0.00883687194 -0.0233861003 0.000499999267
  endloop
 endfacet

 facet normal 0 0 0
  outer loop
  vertex 0.0127260359 -0.0215185508 0.0294999983
  vertex 0.00772799645 -0.0173573643 0.0380000025
  vertex 0.00468453346 -0.0245571807 0.0294999983
  endloop
 endfacet

 facet normal 0 0 0
  outer loop
  vertex 0.0186349209 -0.00370671647 0.0380000025
  vertex 0.0153821874 -0.0102780489 0.0384999998
  vertex 0.0234923158 -0.00855050329 0.0294999983
  endloop
 endfacet

 facet normal 0 0 0
  outer loop
  vertex 0.0186349209 -0.00370671647 0.0380000025
  vertex 0.0234923158 -0.00855050329 0.0294999983
  vertex 0.0250000004 0 0.0294999983
  endloop
 endfacet

 facet normal 0 0 0
  outer loop
  vertex 0.0186349209 -0.00370671647 0.0380000025
  vertex 0.0250000004 0 0.0294999983
  vertex 0.0186349209 0.00370671647 0.0380000025
  endloop
 endfacet

 facet normal 0 0 0
  outer loop
  vertex -0.0186349209 -0.00370671647 0.0380000025
  vertex -0.0186349209 0.00370671647 0.0380000025
  vertex -0.0250000004 2.49800181e-16 0.0294999983
  endloop
 endfacet

 facet normal 0 0 0
  outer loop
  vertex -0.0186349209 -0.00370671647 0.0380000025
  vertex -0.0250000004 2.49800181e-16 0.0294999983
  vertex -0.0234923158 -0.00855050329 0.0294999983
  endloop
 endfacet

 facet normal 0 0 0
  outer loop
  vertex -0.0186349209 -0.00370671647 0.0380000025
  vertex -0.0234923158 -0.00855050329 0.0294999983
  vertex -0.0153821874 -0.0102780489 0.0384999998
  endloop
 endfacet

 facet normal 0 0 0
  outer loop
  vertex -0.00727098528 0.0175537113 0.0380000025
  vertex 0 0.0185000002 0.0384999998
  vertex 0 0.0250000004 0.0294999983
  endloop
 endfacet

 facet normal 0 0 0
  outer loop
  vertex -0.00727098528 0.0175537113 0.0380000025
  vertex 0 0.0250000004 0.0294999983
  vertex -0.00883687194 0.0233861003 0.0294999983
  endloop
 endfacet

 facet normal 0 0 0
  outer loop
  vertex -0.00727098528 0.0175537113 0.0380000025
  vertex -0.0130814752 0.0130814752 0.0384999998
  vertex 0 0.0185000002 0.0384999998
  endloop
 endfacet

 facet normal 0 0 0
  outer loop
  vertex 0.00883687194 0.0233861003 0.0294999983
  vertex 0 0.0250000004 0.0294999983
  vertex 0 0.0185000002 0.0384999998
  endloop
 endfacet

 facet normal 0 0 0
  outer loop
  vertex 0.00883687194 0.0233861003 0.0294999983
  vertex 0 0.0185000002 0.0384999998
  vertex 0.00727098528 0.0175537113 0.0380000025
  endloop
 endfacet

 facet normal 0 0 0
  outer loop
  vertex 0.00727098528 0.0175537113 0.0380000025
  vertex 0 0.0185000002 0.0384999998
  vertex 0.0130814752 0.0130814752 0.0384999998
  endloop
 endfacet

 facet normal 0 0 0
  outer loop
  vertex 0 -0.0250000004 0.0294999983
  vertex 0.00468453346 -0.0245571807 0.0294999983
  vertex 0 -0.0185000002 0.0384999998
  endloop
 endfacet

 facet normal 0 0 0
  outer loop
  vertex 0 -0.0250000004 0.0294999983
  vertex 0 -0.0185000002 0.0384999998
  vertex -0.00772799645 -0.0173573643 0.0380000025
  endloop
 endfacet

 facet normal 0 0 0
  outer loop
  vertex 0 -0.0250000004 0.0294999983
  vertex -0.00772799645 -0.0173573643 0.0380000025
  vertex -0.00855050329 -0.0234923158 0.0294999983
  endloop
 endfacet

 facet normal 0 0 0
  outer loop
  vertex 0 -0.0250000004 0.0294999983
  vertex 0 -0.0250000004 0.000499999267
  vertex 0.00468453346 -0.0245571807 0.0294999983
  endloop
 endfacet

 facet normal 0 0 0
  outer loop
  vertex -0.0127260359 -0.0215185508 0.0294999983
  vertex -0.00883687194 -0.0233861003 0.000499999267
  vertex -0.00855050329 -0.0234923158 0.0294999983
  endloop
 endfacet

 facet normal 0 0 0
  outer loop
  vertex -0.0127260359 -0.0215185508 0.0294999983
  vertex -0.00855050329 -0.0234923158 0.0294999983
  vertex -0.00772799645 -0.0173573643 0.0380000025
  endloop
 endfacet

 facet normal 0 0 0
  outer loop
  vertex -0.0160696898 0.0191511102 0.0294999983
  vertex -0.0191511102 0.0160696898 0.0294999983
  vertex -0.0130814752 0.0130814752 0.0384999998
  endloop
 endfacet

 facet normal 0 0 0
  outer loop
  vertex -0.0160696898 0.0191511102 0.0294999983
  vertex -0.0130814752 0.0130814752 0.0384999998
  vertex -0.00727098528 0.0175537113 0.0380000025
  endloop
 endfacet

 facet normal 0 0 0
  outer loop
  vertex -0.0160696898 0.0191511102 0.0294999983
  vertex -0.00727098528 0.0175537113 0.0380000025
  vertex -0.00883687194 0.0233861003 0.0294999983
  endloop
 endfacet

 facet normal 0 0 0
  outer loop
  vertex 0.0160696898 0.0191511102 0.0294999983
  vertex 0.00883687194 0.0233861003 0.0294999983
  vertex 0.00727098528 0.0175537113 0.0380000025
  endloop
 endfacet

 facet normal 0 0 0
  outer loop
  vertex 0.0160696898 0.0191511102 0.0294999983
  vertex 0.00727098528 0.0175537113 0.0380000025
  vertex 0.0130814752 0.0130814752 0.0384999998
  endloop
 endfacet

 facet normal 0 0 0
  outer loop
  vertex 0.0160696898 0.0191511102 0.0294999983
  vertex 0.0130814752 0.0130814752 0.0384999998
  vertex 0.0191511102 0.0160696898 0.0294999983
  endloop
 endfacet

 facet normal 0 0 0
  outer loop
  vertex 0.0160696898 -0.0191511102 0.000499999267
  vertex 0.0191511102 -0.0160696898 0.000499999267
  vertex 0.0191511102 -0.0160696898 0.0294999983
  endloop
 endfacet

 facet normal 0 0 0
  outer loop
  vertex 0.0160696898 -0.0191511102 0.000499999267
  vertex 0.0191511102 -0.0160696898 0.0294999983
  vertex 0.0127260359 -0.0215185508 0.0294999983
  endloop
 endfacet

 facet normal 0 0 0
  outer loop
  vertex 0.0160696898 -0.0191511102 0.000499999267
  vertex 0.0127260359 -0.0215185508 0.0294999983
  vertex 0.00883687194 -0.0233861003 0.000499999267
  endloop
 endfacet

 facet normal 0 0 0
  outer loop
  vertex -0.0160696898 -0.0191511102 0.000499999267
  vertex -0.00883687194 -0.0233861003 0.000499999267
  vertex -0.0127260359 -0.0215185508 0.0294999983
  endloop
 endfacet

 facet normal 0 0 0
  outer loop
  vertex -0.0160696898 -0.0191511102 0.000499999267
  vertex -0.0127260359 -0.0215185508 0.0294999983
  vertex -0.0191511102 -0.0160696898 0.0294999983
  endloop
 endfacet

 facet normal 0 0 0
  outer loop
  vertex -0.0160696898 -0.0191511102 0.000499999267
  vertex -0.0191511102 -0.0160696898 0.0294999983
  vertex -0.0191511102 -0.0160696898 0.000499999267
  endloop
 endfacet

 facet normal 0 0 0
  outer loop
  vertex -0.0160696898 0.0191511102 0.000499999267
  vertex -0.0191511102 0.0160696898 0.000499999267
  vertex -0.0191511102 0.0160696898 0.0294999983
  endloop
 endfacet

 facet normal 0 0 0
  outer loop
  vertex -0.0160696898 0.0191511102 0.000499999267
  vertex -0.0191511102 0.0160696898 0.0294999983
  vertex -0.0160696898 0.0191511102 0.0294999983
  endloop
 endfacet

 facet normal 0 0 0
  outer loop
  vertex -0.0160696898 0.0191511102 0.000499999267
  vertex -0.0160696898 0.0191511102 0.0294999983
  vertex -0.00883687194 0.0233861003 0.0294999983
  endloop
 endfacet

 facet normal 0 0 0
  outer loop
  vertex -0.0160696898 0.0191511102 0.000499999267
  vertex -0.00883687194 0.0233861003 0.0294999983
  vertex -0.00883687194 0.0233861003 0.000499999267
  endloop
 endfacet

 facet normal 0 0 0
  outer loop
  vertex 0.0160696898 0.0191511102 0.000499999267
  vertex 0.00883687194 0.0233861003 0.000499999267
  vertex 0.00883687194 0.0233861003 0.0294999983
  endloop
 endfacet

 facet normal 0 0 0
  outer loop
  vertex 0.0160696898 0.0191511102 0.000499999267
  vertex 0.00883687194 0.0233861003 0.0294999983
  vertex 0.0160696898 0.0191511102 0.0294999983
  endloop
 endfacet

 facet normal 0 0 0
  outer loop
  vertex 0.0160696898 0.0191511102 0.000499999267
  vertex 0.0160696898 0.0191511102 0.0294999983
  vertex 0.0191511102 0.0160696898 0.0294999983
  endloop
 endfacet

 facet normal 0 0 0
  outer loop
  vertex 0.0160696898 0.0191511102 0.000499999267
  vertex 0.0191511102 0.0160696898 0.0294999983
  vertex 0.0191511102 0.0160696898 0.000499999267
  endloop
 endfacet

endsolid AssimpScene
