solid AssimpScene
 facet normal 0 0 0
  outer loop
  vertex -0.000585205154 -0.037067309 0.000467690435
  vertex 0.00579006877 -0.0366113782 0.000796334702
  vertex 0.00515004527 -0.0294097643 0.00322103361
  endloop
 endfacet

 facet normal 0 0 0
  outer loop
  vertex -0.000585205154 -0.037067309 0.000467690435
  vertex 0.00515004527 -0.0294097643 0.00322103361
  vertex -0.00123318413 -0.0297671109 0.00290994695
  endloop
 endfacet

 facet normal 0 0 0
  outer loop
  vertex -0.00490327179 -0.0279660095 -0.00699844677
  vertex -0.00123318413 -0.0297671109 0.00290994695
  vertex -0.00609799195 0.00327913952 -0.00175979384
  endloop
 endfacet

 facet normal 0 0 0
  outer loop
  vertex 0.00189754355 0.00986268278 -0.00130718085
  vertex 0.000496114721 0.0119348308 -0.00477597257
  vertex -0.00484282942 0.0101198526 -0.00317668845
  endloop
 endfacet

 facet normal 0 0 0
  outer loop
  vertex 0.00895548705 -0.0242030416 -0.00403720047
  vertex 0.00615691207 0.00590465078 -0.00282141287
  vertex 0.00515004527 -0.0294097643 0.00322103361
  endloop
 endfacet

 facet normal 0 0 0
  outer loop
  vertex 0.00418000482 0.0108951628 -0.00390923303
  vertex 0.000496114721 0.0119348308 -0.00477597257
  vertex 0.00189754355 0.00986268278 -0.00130718085
  endloop
 endfacet

 facet normal 0 0 0
  outer loop
  vertex 0.00418000482 0.0108951628 -0.00390923303
  vertex 0.00615691207 0.00590465078 -0.00282141287
  vertex 0.0052866945 0.0083219111 -0.00672878372
  endloop
 endfacet

 facet normal 0 0 0
  outer loop
  vertex 0.00801650807 -0.00812694803 -0.00989137776
  vertex 0.00877703726 -0.0296972655 -0.00947807357
  vertex 0.00596010173 -0.00812410284 -0.0124314707
  endloop
 endfacet

 facet normal 0 0 0
  outer loop
  vertex -0.000585205154 -0.037067309 0.000467690435
  vertex -0.00123318413 -0.0297671109 0.00290994695
  vertex -0.00490327179 -0.0279660095 -0.00699844677
  endloop
 endfacet

 facet normal 0 0 0
  outer loop
  vertex -0.000585205154 -0.037067309 0.000467690435
  vertex -0.00490327179 -0.0279660095 -0.00699844677
  vertex -0.00419604126 -0.0305731092 -0.00889751501
  endloop
 endfacet

 facet normal 0 0 0
  outer loop
  vertex -0.000585205154 -0.037067309 0.000467690435
  vertex -0.00419604126 -0.0305731092 -0.00889751501
  vertex -0.000326748064 -0.0388188362 -0.00211612042
  endloop
 endfacet

 facet normal 0 0 0
  outer loop
  vertex -0.000326748064 -0.0388188362 -0.00211612042
  vertex 0.00627145916 -0.0378518738 -0.000978869852
  vertex 0.00579006877 -0.0366113782 0.000796334702
  endloop
 endfacet

 facet normal 0 0 0
  outer loop
  vertex -0.000326748064 -0.0388188362 -0.00211612042
  vertex 0.00579006877 -0.0366113782 0.000796334702
  vertex -0.000585205154 -0.037067309 0.000467690435
  endloop
 endfacet

 facet normal 0 0 0
  outer loop
  vertex -0.004389585 0.0109437155 -0.00531111285
  vertex -0.00484282942 0.0101198526 -0.00317668845
  vertex 0.000496114721 0.0119348308 -0.00477597257
  endloop
 endfacet

 facet normal 0 0 0
  outer loop
  vertex 0.00422612531 -0.0303170178 -0.0114833107
  vertex -0.00204556203 -0.0309454203 -0.010933863
  vertex 0.000758823182 -0.0121729728 -0.0136009892
  endloop
 endfacet

 facet normal 0 0 0
  outer loop
  vertex 0.00422612531 -0.0303170178 -0.0114833107
  vertex 0.000758823182 -0.0121729728 -0.0136009892
  vertex 0.00596010173 -0.00812410284 -0.0124314707
  endloop
 endfacet

 facet normal 0 0 0
  outer loop
  vertex 0.00422612531 -0.0303170178 -0.0114833107
  vertex 0.00596010173 -0.00812410284 -0.0124314707
  vertex 0.00877703726 -0.0296972655 -0.00947807357
  endloop
 endfacet

 facet normal 0 0 0
  outer loop
  vertex 0.00422612531 -0.0303170178 -0.0114833107
  vertex 0.00877703726 -0.0296972655 -0.00947807357
  vertex 0.00540854735 -0.0368531942 -0.0057261358
  endloop
 endfacet

 facet normal 0 0 0
  outer loop
  vertex -0.00106773432 0.00739357853 -0.00842489395
  vertex -0.00084159855 -0.00221714587 -0.01174716
  vertex -0.00606760476 0.00765943388 -0.00684210751
  endloop
 endfacet

 facet normal 0 0 0
  outer loop
  vertex -0.00106773432 0.00739357853 -0.00842489395
  vertex -0.00606760476 0.00765943388 -0.00684210751
  vertex -0.004389585 0.0109437155 -0.00531111285
  endloop
 endfacet

 facet normal 0 0 0
  outer loop
  vertex -0.004389585 0.0109437155 -0.00531111285
  vertex 0.000496114721 0.0119348308 -0.00477597257
  vertex 0.00363251381 0.0109099904 -0.00565182185
  endloop
 endfacet

 facet normal 0 0 0
  outer loop
  vertex -0.004389585 0.0109437155 -0.00531111285
  vertex 0.00363251381 0.0109099904 -0.00565182185
  vertex -0.00106773432 0.00739357853 -0.00842489395
  endloop
 endfacet

 facet normal 0 0 0
  outer loop
  vertex -0.00106773432 0.00739357853 -0.00842489395
  vertex 0.0052866945 0.0083219111 -0.00672878372
  vertex 0.00596010173 -0.00812410284 -0.0124314707
  endloop
 endfacet

 facet normal 0 0 0
  outer loop
  vertex -0.00106773432 0.00739357853 -0.00842489395
  vertex 0.00596010173 -0.00812410284 -0.0124314707
  vertex -0.00084159855 -0.00221714587 -0.01174716
  endloop
 endfacet

 facet normal 0 0 0
  outer loop
  vertex 0.00469045853 0.00597398728 -0.000754004985
  vertex 0.00615691207 0.00590465078 -0.00282141287
  vertex 0.00418000482 0.0108951628 -0.00390923303
  endloop
 endfacet

 facet normal 0 0 0
  outer loop
  vertex 0.00469045853 0.00597398728 -0.000754004985
  vertex 0.00418000482 0.0108951628 -0.00390923303
  vertex 0.00189754355 0.00986268278 -0.00130718085
  endloop
 endfacet

 facet normal 0 0 0
  outer loop
  vertex 0.00469045853 0.00597398728 -0.000754004985
  vertex 0.00515004527 -0.0294097643 0.00322103361
  vertex 0.00615691207 0.00590465078 -0.00282141287
  endloop
 endfacet

 facet normal 0 0 0
  outer loop
  vertex 0.000489755301 -0.0368549973 -0.00642072782
  vertex -0.00204556203 -0.0309454203 -0.010933863
  vertex 0.00422612531 -0.0303170178 -0.0114833107
  endloop
 endfacet

 facet normal 0 0 0
  outer loop
  vertex 0.000489755301 -0.0368549973 -0.00642072782
  vertex 0.00422612531 -0.0303170178 -0.0114833107
  vertex 0.00540854735 -0.0368531942 -0.0057261358
  endloop
 endfacet

 facet normal 0 0 0
  outer loop
  vertex -0.00419604126 -0.0305731092 -0.00889751501
  vertex -0.00461804494 -0.0110580064 -0.0123026241
  vertex -0.00204556203 -0.0309454203 -0.010933863
  endloop
 endfacet

 facet normal 0 0 0
  outer loop
  vertex -0.00419604126 -0.0305731092 -0.00889751501
  vertex -0.00204556203 -0.0309454203 -0.010933863
  vertex 0.000489755301 -0.0368549973 -0.00642072782
  endloop
 endfacet

 facet normal 0 0 0
  outer loop
  vertex -0.00419604126 -0.0305731092 -0.00889751501
  vertex 0.000489755301 -0.0368549973 -0.00642072782
  vertex -0.000326748064 -0.0388188362 -0.00211612042
  endloop
 endfacet

 facet normal 0 0 0
  outer loop
  vertex -0.00445556501 0.0078253774 -0.00129825645
  vertex -0.00609799195 0.00327913952 -0.00175979384
  vertex -0.00123318413 -0.0297671109 0.00290994695
  endloop
 endfacet

 facet normal 0 0 0
  outer loop
  vertex -0.00445556501 0.0078253774 -0.00129825645
  vertex 0.00189754355 0.00986268278 -0.00130718085
  vertex -0.00484282942 0.0101198526 -0.00317668845
  endloop
 endfacet

 facet normal 0 0 0
  outer loop
  vertex 0.00579006877 -0.0366113782 0.000796334702
  vertex 0.00895548705 -0.0242030416 -0.00403720047
  vertex 0.00515004527 -0.0294097643 0.00322103361
  endloop
 endfacet

 facet normal 0 0 0
  outer loop
  vertex 0.00955327693 -0.0289850775 -0.00725325476
  vertex 0.00877703726 -0.0296972655 -0.00947807357
  vertex 0.00801650807 -0.00812694803 -0.00989137776
  endloop
 endfacet

 facet normal 0 0 0
  outer loop
  vertex 0.00895548705 -0.0242030416 -0.00403720047
  vertex 0.00579006877 -0.0366113782 0.000796334702
  vertex 0.00627145916 -0.0378518738 -0.000978869852
  endloop
 endfacet

 facet normal 0 0 0
  outer loop
  vertex 0.00895548705 -0.0242030416 -0.00403720047
  vertex 0.00627145916 -0.0378518738 -0.000978869852
  vertex 0.00955327693 -0.0289850775 -0.00725325476
  endloop
 endfacet

 facet normal 0 0 0
  outer loop
  vertex 0.00955327693 -0.0289850775 -0.00725325476
  vertex 0.00627145916 -0.0378518738 -0.000978869852
  vertex 0.00877703726 -0.0296972655 -0.00947807357
  endloop
 endfacet

 facet normal 0 0 0
  outer loop
  vertex -0.00461804494 -0.0110580064 -0.0123026241
  vertex -0.00419604126 -0.0305731092 -0.00889751501
  vertex -0.00490327179 -0.0279660095 -0.00699844677
  endloop
 endfacet

 facet normal 0 0 0
  outer loop
  vertex -0.00461804494 -0.0110580064 -0.0123026241
  vertex -0.00490327179 -0.0279660095 -0.00699844677
  vertex -0.00641977787 -0.00144683127 -0.00839705206
  endloop
 endfacet

 facet normal 0 0 0
  outer loop
  vertex -0.00641977787 -0.00144683127 -0.00839705206
  vertex -0.00490327179 -0.0279660095 -0.00699844677
  vertex -0.00609799195 0.00327913952 -0.00175979384
  endloop
 endfacet

 facet normal 0 0 0
  outer loop
  vertex -0.00641977787 -0.00144683127 -0.00839705206
  vertex -0.00606760476 0.00765943388 -0.00684210751
  vertex -0.00461804494 -0.0110580064 -0.0123026241
  endloop
 endfacet

 facet normal 0 0 0
  outer loop
  vertex -0.00620595505 0.00829351507 -0.00353762507
  vertex -0.00609799195 0.00327913952 -0.00175979384
  vertex -0.00445556501 0.0078253774 -0.00129825645
  endloop
 endfacet

 facet normal 0 0 0
  outer loop
  vertex -0.00620595505 0.00829351507 -0.00353762507
  vertex -0.00445556501 0.0078253774 -0.00129825645
  vertex -0.00484282942 0.0101198526 -0.00317668845
  endloop
 endfacet

 facet normal 0 0 0
  outer loop
  vertex -0.00620595505 0.00829351507 -0.00353762507
  vertex -0.00484282942 0.0101198526 -0.00317668845
  vertex -0.004389585 0.0109437155 -0.00531111285
  endloop
 endfacet

 facet normal 0 0 0
  outer loop
  vertex -0.00620595505 0.00829351507 -0.00353762507
  vertex -0.004389585 0.0109437155 -0.00531111285
  vertex -0.00606760476 0.00765943388 -0.00684210751
  endloop
 endfacet

 facet normal 0 0 0
  outer loop
  vertex -0.00620595505 0.00829351507 -0.00353762507
  vertex -0.00606760476 0.00765943388 -0.00684210751
  vertex -0.00641977787 -0.00144683127 -0.00839705206
  endloop
 endfacet

 facet normal 0 0 0
  outer loop
  vertex -0.00620595505 0.00829351507 -0.00353762507
  vertex -0.00641977787 -0.00144683127 -0.00839705206
  vertex -0.00609799195 0.00327913952 -0.00175979384
  endloop
 endfacet

 facet normal 0 0 0
  outer loop
  vertex 0.000594706915 0.00362041919 0.000175388093
  vertex 0.00469045853 0.00597398728 -0.000754004985
  vertex 0.00189754355 0.00986268278 -0.00130718085
  endloop
 endfacet

 facet normal 0 0 0
  outer loop
  vertex 0.000594706915 0.00362041919 0.000175388093
  vertex 0.00189754355 0.00986268278 -0.00130718085
  vertex -0.00445556501 0.0078253774 -0.00129825645
  endloop
 endfacet

 facet normal 0 0 0
  outer loop
  vertex 0.000594706915 0.00362041919 0.000175388093
  vertex -0.00445556501 0.0078253774 -0.00129825645
  vertex -0.00123318413 -0.0297671109 0.00290994695
  endloop
 endfacet

 facet normal 0 0 0
  outer loop
  vertex 0.000594706915 0.00362041919 0.000175388093
  vertex -0.00123318413 -0.0297671109 0.00290994695
  vertex 0.00515004527 -0.0294097643 0.00322103361
  endloop
 endfacet

 facet normal 0 0 0
  outer loop
  vertex 0.000594706915 0.00362041919 0.000175388093
  vertex 0.00515004527 -0.0294097643 0.00322103361
  vertex 0.00469045853 0.00597398728 -0.000754004985
  endloop
 endfacet

 facet normal 0 0 0
  outer loop
  vertex 0.00363251381 0.0109099904 -0.00565182185
  vertex 0.000496114721 0.0119348308 -0.00477597257
  vertex 0.00418000482 0.0108951628 -0.00390923303
  endloop
 endfacet

 facet normal 0 0 0
  outer loop
  vertex 0.00363251381 0.0109099904 -0.00565182185
  vertex 0.00418000482 0.0108951628 -0.00390923303
  vertex 0.0052866945 0.0083219111 -0.00672878372
  endloop
 endfacet

 facet normal 0 0 0
  outer loop
  vertex 0.00363251381 0.0109099904 -0.00565182185
  vertex 0.0052866945 0.0083219111 -0.00672878372
  vertex -0.00106773432 0.00739357853 -0.00842489395
  endloop
 endfacet

 facet normal 0 0 0
  outer loop
  vertex -0.00084159855 -0.00221714587 -0.01174716
  vertex 0.00596010173 -0.00812410284 -0.0124314707
  vertex 0.000758823182 -0.0121729728 -0.0136009892
  endloop
 endfacet

 facet normal 0 0 0
  outer loop
  vertex -0.00084159855 -0.00221714587 -0.01174716
  vertex 0.000758823182 -0.0121729728 -0.0136009892
  vertex -0.00227673585 -0.00882944278 -0.0132489437
  endloop
 endfacet

 facet normal 0 0 0
  outer loop
  vertex -0.00227673585 -0.00882944278 -0.0132489437
  vertex 0.000758823182 -0.0121729728 -0.0136009892
  vertex -0.00204556203 -0.0309454203 -0.010933863
  endloop
 endfacet

 facet normal 0 0 0
  outer loop
  vertex -0.00227673585 -0.00882944278 -0.0132489437
  vertex -0.00204556203 -0.0309454203 -0.010933863
  vertex -0.00461804494 -0.0110580064 -0.0123026241
  endloop
 endfacet

 facet normal 0 0 0
  outer loop
  vertex -0.00227673585 -0.00882944278 -0.0132489437
  vertex -0.00461804494 -0.0110580064 -0.0123026241
  vertex -0.00606760476 0.00765943388 -0.00684210751
  endloop
 endfacet

 facet normal 0 0 0
  outer loop
  vertex -0.00227673585 -0.00882944278 -0.0132489437
  vertex -0.00606760476 0.00765943388 -0.00684210751
  vertex -0.00084159855 -0.00221714587 -0.01174716
  endloop
 endfacet

 facet normal 0 0 0
  outer loop
  vertex -0.000326748064 -0.0388188362 -0.00211612042
  vertex 0.000489755301 -0.0368549973 -0.00642072782
  vertex 0.00540854735 -0.0368531942 -0.0057261358
  endloop
 endfacet

 facet normal 0 0 0
  outer loop
  vertex -0.000326748064 -0.0388188362 -0.00211612042
  vertex 0.00540854735 -0.0368531942 -0.0057261358
  vertex 0.00549870683 -0.0383672826 -0.00264291605
  endloop
 endfacet

 facet normal 0 0 0
  outer loop
  vertex 0.00549870683 -0.0383672826 -0.00264291605
  vertex 0.00540854735 -0.0368531942 -0.0057261358
  vertex 0.00877703726 -0.0296972655 -0.00947807357
  endloop
 endfacet

 facet normal 0 0 0
  outer loop
  vertex 0.00549870683 -0.0383672826 -0.00264291605
  vertex 0.00877703726 -0.0296972655 -0.00947807357
  vertex 0.00627145916 -0.0378518738 -0.000978869852
  endloop
 endfacet

 facet normal 0 0 0
  outer loop
  vertex 0.00549870683 -0.0383672826 -0.00264291605
  vertex 0.00627145916 -0.0378518738 -0.000978869852
  vertex -0.000326748064 -0.0388188362 -0.00211612042
  endloop
 endfacet

 facet normal 0 0 0
  outer loop
  vertex 0.00686095981 0.00369926193 -0.00680579105
  vertex 0.00615691207 0.00590465078 -0.00282141287
  vertex 0.00895548705 -0.0242030416 -0.00403720047
  endloop
 endfacet

 facet normal 0 0 0
  outer loop
  vertex 0.00895548705 -0.0242030416 -0.00403720047
  vertex 0.00955327693 -0.0289850775 -0.00725325476
  vertex 0.00801650807 -0.00812694803 -0.00989137776
  endloop
 endfacet

 facet normal 0 0 0
  outer loop
  vertex 0.00895548705 -0.0242030416 -0.00403720047
  vertex 0.00801650807 -0.00812694803 -0.00989137776
  vertex 0.00686095981 0.00369926193 -0.00680579105
  endloop
 endfacet

 facet normal 0 0 0
  outer loop
  vertex 0.00686095981 0.00369926193 -0.00680579105
  vertex 0.00801650807 -0.00812694803 -0.00989137776
  vertex 0.00596010173 -0.00812410284 -0.0124314707
  endloop
 endfacet

 facet normal 0 0 0
  outer loop
  vertex 0.00686095981 0.00369926193 -0.00680579105
  vertex 0.00596010173 -0.00812410284 -0.0124314707
  vertex 0.0052866945 0.0083219111 -0.00672878372
  endloop
 endfacet

 facet normal 0 0 0
  outer loop
  vertex 0.00686095981 0.00369926193 -0.00680579105
  vertex 0.0052866945 0.0083219111 -0.00672878372
  vertex 0.00615691207 0.00590465078 -0.00282141287
  endloop
 endfacet

endsolid AssimpScene
