solid AssimpScene
 facet normal 0 0 0
  outer loop
  vertex 0.005277663 0.0354676582 -0.000167861057
  vertex 0.00424717274 0.0399595499 -6.79302466e-05
  vertex -0.00096895668 0.0326055847 0.00089350919
  endloop
 endfacet

 facet normal 0 0 0
  outer loop
  vertex 0.005277663 0.0354676582 -0.000167861057
  vertex -0.00096895668 0.0326055847 0.00089350919
  vertex -0.0074307872 0.00161295442 0.00106368097
  endloop
 endfacet

 facet normal 0 0 0
  outer loop
  vertex 0.005277663 0.0354676582 -0.000167861057
  vertex -0.0074307872 0.00161295442 0.00106368097
  vertex -0.00205860171 0.00589218875 0.0004847073
  endloop
 endfacet

 facet normal 0 0 0
  outer loop
  vertex -0.0111062191 0.000402469508 -0.0102147246
  vertex -0.00828450546 0.0252746884 -0.0109914057
  vertex -0.00953688193 0.00563048478 -0.0123182349
  endloop
 endfacet

 facet normal 0 0 0
  outer loop
  vertex -0.00392574444 0.00506368373 -0.0131488536
  vertex 0.0039652288 0.0375223048 -0.012508384
  vertex 0.00282774935 -0.00100192276 -0.00929979328
  endloop
 endfacet

 facet normal 0 0 0
  outer loop
  vertex -0.00865749829 0.00092117762 -0.0129754879
  vertex -0.0111062191 0.000402469508 -0.0102147246
  vertex -0.00953688193 0.00563048478 -0.0123182349
  endloop
 endfacet

 facet normal 0 0 0
  outer loop
  vertex -0.000893177988 -0.00776042184 -0.00929980166
  vertex -0.00376244029 -0.00903847627 -0.00289978646
  vertex -0.00390764885 -0.00871817768 -0.00959980488
  endloop
 endfacet

 facet normal 0 0 0
  outer loop
  vertex -0.000893177988 -0.00776042184 -0.00929980166
  vertex -0.00390764885 -0.00871817768 -0.00959980488
  vertex -0.00865749829 0.00092117762 -0.0129754879
  endloop
 endfacet

 facet normal 0 0 0
  outer loop
  vertex -0.000893177988 -0.00776042184 -0.00929980166
  vertex -0.00865749829 0.00092117762 -0.0129754879
  vertex -0.00392574444 0.00506368373 -0.0131488536
  endloop
 endfacet

 facet normal 0 0 0
  outer loop
  vertex -0.000893177988 -0.00776042184 -0.00929980166
  vertex -0.00392574444 0.00506368373 -0.0131488536
  vertex 0.00282774935 -0.00100192276 -0.00929979328
  endloop
 endfacet

 facet normal 0 0 0
  outer loop
  vertex -0.00250612991 0.0379724391 -0.00549279153
  vertex 0.00036382 0.0417836607 -0.00812823419
  vertex 0.000662876293 0.0407178141 -0.0116059929
  endloop
 endfacet

 facet normal 0 0 0
  outer loop
  vertex -0.00250612991 0.0379724391 -0.00549279153
  vertex 0.000662876293 0.0407178141 -0.0116059929
  vertex -0.00828450546 0.0252746884 -0.0109914057
  endloop
 endfacet

 facet normal 0 0 0
  outer loop
  vertex -0.0076603014 -0.00642804289 -0.00856759958
  vertex -0.00766030326 -0.00642804522 -0.0036319939
  vertex -0.0112819914 0.000704230566 -0.00218701968
  endloop
 endfacet

 facet normal 0 0 0
  outer loop
  vertex -0.0076603014 -0.00642804289 -0.00856759958
  vertex -0.0112819914 0.000704230566 -0.00218701968
  vertex -0.0111062191 0.000402469508 -0.0102147246
  endloop
 endfacet

 facet normal 0 0 0
  outer loop
  vertex -0.0076603014 -0.00642804289 -0.00856759958
  vertex -0.0111062191 0.000402469508 -0.0102147246
  vertex -0.00865749829 0.00092117762 -0.0129754879
  endloop
 endfacet

 facet normal 0 0 0
  outer loop
  vertex -0.0076603014 -0.00642804289 -0.00856759958
  vertex -0.00865749829 0.00092117762 -0.0129754879
  vertex -0.00390764885 -0.00871817768 -0.00959980488
  endloop
 endfacet

 facet normal 0 0 0
  outer loop
  vertex -0.00390764885 -0.00871817768 -0.00959980488
  vertex -0.00376244029 -0.00903847627 -0.00289978646
  vertex -0.00766030326 -0.00642804522 -0.0036319939
  endloop
 endfacet

 facet normal 0 0 0
  outer loop
  vertex -0.00390764885 -0.00871817768 -0.00959980488
  vertex -0.00766030326 -0.00642804522 -0.0036319939
  vertex -0.0076603014 -0.00642804289 -0.00856759958
  endloop
 endfacet

 facet normal 0 0 0
  outer loop
  vertex -0.00979758799 0.022657929 -0.00498692272
  vertex -0.00828450546 0.0252746884 -0.0109914057
  vertex -0.0111062191 0.000402469508 -0.0102147246
  endloop
 endfacet

 facet normal 0 0 0
  outer loop
  vertex -0.00979758799 0.022657929 -0.00498692272
  vertex -0.0111062191 0.000402469508 -0.0102147246
  vertex -0.0112819914 0.000704230566 -0.00218701968
  endloop
 endfacet

 facet normal 0 0 0
  outer loop
  vertex -0.00979758799 0.022657929 -0.00498692272
  vertex -0.0112819914 0.000704230566 -0.00218701968
  vertex -0.00782890618 0.0241929162 -7.87639074e-05
  endloop
 endfacet

 facet normal 0 0 0
  outer loop
  vertex -0.00619476335 0.0243099369 -0.0129796071
  vertex -0.00865749829 0.00092117762 -0.0129754879
  vertex -0.00953688193 0.00563048478 -0.0123182349
  endloop
 endfacet

 facet normal 0 0 0
  outer loop
  vertex -0.00619476335 0.0243099369 -0.0129796071
  vertex -0.00953688193 0.00563048478 -0.0123182349
  vertex -0.00828450546 0.0252746884 -0.0109914057
  endloop
 endfacet

 facet normal 0 0 0
  outer loop
  vertex -0.000893181248 -0.00776042417 -0.00289978622
  vertex -0.00376244029 -0.00903847627 -0.00289978646
  vertex -0.000893177988 -0.00776042184 -0.00929980166
  endloop
 endfacet

 facet normal 0 0 0
  outer loop
  vertex -0.000893181248 -0.00776042417 -0.00289978622
  vertex -0.000893177988 -0.00776042184 -0.00929980166
  vertex 0.00282774935 -0.00100192276 -0.00929979328
  endloop
 endfacet

 facet normal 0 0 0
  outer loop
  vertex -0.000893181248 -0.00776042417 -0.00289978622
  vertex 0.00282774935 -0.00100192276 -0.00929979328
  vertex 0.00282774633 -0.00100192509 -0.00289978646
  endloop
 endfacet

 facet normal 0 0 0
  outer loop
  vertex -0.000893181248 -0.00776042417 -0.00289978622
  vertex -0.0074307872 0.00161295442 0.00106368097
  vertex -0.00376244029 -0.00903847627 -0.00289978646
  endloop
 endfacet

 facet normal 0 0 0
  outer loop
  vertex 0.0060545411 0.0372680575 -0.01123132
  vertex 0.00282774935 -0.00100192276 -0.00929979328
  vertex 0.0039652288 0.0375223048 -0.012508384
  endloop
 endfacet

 facet normal 0 0 0
  outer loop
  vertex 0.00651524775 0.0397290289 -0.00215195026
  vertex 0.005277663 0.0354676582 -0.000167861057
  vertex 0.00282774633 -0.00100192509 -0.00289978646
  endloop
 endfacet

 facet normal 0 0 0
  outer loop
  vertex 0.00528895995 0.0412798412 -0.0111424346
  vertex 0.00654415833 0.0412617996 -0.00843355153
  vertex 0.0060545411 0.0372680575 -0.01123132
  endloop
 endfacet

 facet normal 0 0 0
  outer loop
  vertex 0.00528895995 0.0412798412 -0.0111424346
  vertex 0.0060545411 0.0372680575 -0.01123132
  vertex 0.0039652288 0.0375223048 -0.012508384
  endloop
 endfacet

 facet normal 0 0 0
  outer loop
  vertex 0.0039652288 0.0375223048 -0.012508384
  vertex 0.000662876293 0.0407178141 -0.0116059929
  vertex 0.00325819734 0.0432876237 -0.0105228126
  endloop
 endfacet

 facet normal 0 0 0
  outer loop
  vertex 0.0039652288 0.0375223048 -0.012508384
  vertex 0.00325819734 0.0432876237 -0.0105228126
  vertex 0.00528895995 0.0412798412 -0.0111424346
  endloop
 endfacet

 facet normal 0 0 0
  outer loop
  vertex 0.00528895995 0.0412798412 -0.0111424346
  vertex 0.00325819734 0.0432876237 -0.0105228126
  vertex 0.00654415833 0.0412617996 -0.00843355153
  endloop
 endfacet

 facet normal 0 0 0
  outer loop
  vertex -0.00968500972 0.000526696036 0.000126593339
  vertex -0.0112819914 0.000704230566 -0.00218701968
  vertex -0.00766030326 -0.00642804522 -0.0036319939
  endloop
 endfacet

 facet normal 0 0 0
  outer loop
  vertex -0.00968500972 0.000526696036 0.000126593339
  vertex -0.00766030326 -0.00642804522 -0.0036319939
  vertex -0.00376244029 -0.00903847627 -0.00289978646
  endloop
 endfacet

 facet normal 0 0 0
  outer loop
  vertex -0.00968500972 0.000526696036 0.000126593339
  vertex -0.00376244029 -0.00903847627 -0.00289978646
  vertex -0.0074307872 0.00161295442 0.00106368097
  endloop
 endfacet

 facet normal 0 0 0
  outer loop
  vertex -0.00968500972 0.000526696036 0.000126593339
  vertex -0.0074307872 0.00161295442 0.00106368097
  vertex -0.00782890618 0.0241929162 -7.87639074e-05
  endloop
 endfacet

 facet normal 0 0 0
  outer loop
  vertex -0.00968500972 0.000526696036 0.000126593339
  vertex -0.00782890618 0.0241929162 -7.87639074e-05
  vertex -0.0112819914 0.000704230566 -0.00218701968
  endloop
 endfacet

 facet normal 0 0 0
  outer loop
  vertex -0.00096895668 0.0326055847 0.00089350919
  vertex -0.00782890618 0.0241929162 -7.87639074e-05
  vertex -0.0074307872 0.00161295442 0.00106368097
  endloop
 endfacet

 facet normal 0 0 0
  outer loop
  vertex -0.00096895668 0.0326055847 0.00089350919
  vertex 0.00116246624 0.040771544 -0.00024946942
  vertex -0.00782890618 0.0241929162 -7.87639074e-05
  endloop
 endfacet

 facet normal 0 0 0
  outer loop
  vertex -0.00205860171 0.00589218875 0.0004847073
  vertex -0.0074307872 0.00161295442 0.00106368097
  vertex -0.000893181248 -0.00776042417 -0.00289978622
  endloop
 endfacet

 facet normal 0 0 0
  outer loop
  vertex -0.00205860171 0.00589218875 0.0004847073
  vertex -0.000893181248 -0.00776042417 -0.00289978622
  vertex 0.00282774633 -0.00100192509 -0.00289978646
  endloop
 endfacet

 facet normal 0 0 0
  outer loop
  vertex -0.00205860171 0.00589218875 0.0004847073
  vertex 0.00282774633 -0.00100192509 -0.00289978646
  vertex 0.005277663 0.0354676582 -0.000167861057
  endloop
 endfacet

 facet normal 0 0 0
  outer loop
  vertex -0.00250612991 0.0379724391 -0.00549279153
  vertex -0.00828450546 0.0252746884 -0.0109914057
  vertex -0.00979758799 0.022657929 -0.00498692272
  endloop
 endfacet

 facet normal 0 0 0
  outer loop
  vertex -0.00250612991 0.0379724391 -0.00549279153
  vertex -0.00979758799 0.022657929 -0.00498692272
  vertex -0.00771184126 0.0274645109 -0.00233706855
  endloop
 endfacet

 facet normal 0 0 0
  outer loop
  vertex -0.00771184126 0.0274645109 -0.00233706855
  vertex -0.00979758799 0.022657929 -0.00498692272
  vertex -0.00782890618 0.0241929162 -7.87639074e-05
  endloop
 endfacet

 facet normal 0 0 0
  outer loop
  vertex -0.00771184126 0.0274645109 -0.00233706855
  vertex -0.00782890618 0.0241929162 -7.87639074e-05
  vertex 0.00116246624 0.040771544 -0.00024946942
  endloop
 endfacet

 facet normal 0 0 0
  outer loop
  vertex -0.00771184126 0.0274645109 -0.00233706855
  vertex 0.00116246624 0.040771544 -0.00024946942
  vertex -0.00250612991 0.0379724391 -0.00549279153
  endloop
 endfacet

 facet normal 0 0 0
  outer loop
  vertex 0.0068045659 0.0349734984 -0.00691163866
  vertex 0.00654415833 0.0412617996 -0.00843355153
  vertex 0.00651524775 0.0397290289 -0.00215195026
  endloop
 endfacet

 facet normal 0 0 0
  outer loop
  vertex 0.0068045659 0.0349734984 -0.00691163866
  vertex 0.00651524775 0.0397290289 -0.00215195026
  vertex 0.00282774633 -0.00100192509 -0.00289978646
  endloop
 endfacet

 facet normal 0 0 0
  outer loop
  vertex 0.0068045659 0.0349734984 -0.00691163866
  vertex 0.00282774633 -0.00100192509 -0.00289978646
  vertex 0.00282774935 -0.00100192276 -0.00929979328
  endloop
 endfacet

 facet normal 0 0 0
  outer loop
  vertex 0.0068045659 0.0349734984 -0.00691163866
  vertex 0.00282774935 -0.00100192276 -0.00929979328
  vertex 0.0060545411 0.0372680575 -0.01123132
  endloop
 endfacet

 facet normal 0 0 0
  outer loop
  vertex 0.0068045659 0.0349734984 -0.00691163866
  vertex 0.0060545411 0.0372680575 -0.01123132
  vertex 0.00654415833 0.0412617996 -0.00843355153
  endloop
 endfacet

 facet normal 0 0 0
  outer loop
  vertex 0.00550577091 0.043077264 -0.00476530613
  vertex 0.00351889501 0.0441907682 -0.00609977916
  vertex 0.00308036967 0.0433159471 -0.00173307268
  endloop
 endfacet

 facet normal 0 0 0
  outer loop
  vertex 0.00550577091 0.043077264 -0.00476530613
  vertex 0.00308036967 0.0433159471 -0.00173307268
  vertex 0.00504295062 0.0421155505 -0.00141535059
  endloop
 endfacet

 facet normal 0 0 0
  outer loop
  vertex 0.00550577091 0.043077264 -0.00476530613
  vertex 0.00504295062 0.0421155505 -0.00141535059
  vertex 0.00651524775 0.0397290289 -0.00215195026
  endloop
 endfacet

 facet normal 0 0 0
  outer loop
  vertex 0.00550577091 0.043077264 -0.00476530613
  vertex 0.00651524775 0.0397290289 -0.00215195026
  vertex 0.00654415833 0.0412617996 -0.00843355153
  endloop
 endfacet

 facet normal 0 0 0
  outer loop
  vertex 0.00654415833 0.0412617996 -0.00843355153
  vertex 0.00325819734 0.0432876237 -0.0105228126
  vertex 0.00351889501 0.0441907682 -0.00609977916
  endloop
 endfacet

 facet normal 0 0 0
  outer loop
  vertex 0.00654415833 0.0412617996 -0.00843355153
  vertex 0.00351889501 0.0441907682 -0.00609977916
  vertex 0.00550577091 0.043077264 -0.00476530613
  endloop
 endfacet

 facet normal 0 0 0
  outer loop
  vertex 0.00036382 0.0417836607 -0.00812823419
  vertex -0.00250612991 0.0379724391 -0.00549279153
  vertex 0.00116246624 0.040771544 -0.00024946942
  endloop
 endfacet

 facet normal 0 0 0
  outer loop
  vertex 0.00036382 0.0417836607 -0.00812823419
  vertex 0.00116246624 0.040771544 -0.00024946942
  vertex 0.00308036967 0.0433159471 -0.00173307268
  endloop
 endfacet

 facet normal 0 0 0
  outer loop
  vertex 0.00036382 0.0417836607 -0.00812823419
  vertex 0.00308036967 0.0433159471 -0.00173307268
  vertex 0.00351889501 0.0441907682 -0.00609977916
  endloop
 endfacet

 facet normal 0 0 0
  outer loop
  vertex 0.00036382 0.0417836607 -0.00812823419
  vertex 0.00351889501 0.0441907682 -0.00609977916
  vertex 0.00325819734 0.0432876237 -0.0105228126
  endloop
 endfacet

 facet normal 0 0 0
  outer loop
  vertex 0.00036382 0.0417836607 -0.00812823419
  vertex 0.00325819734 0.0432876237 -0.0105228126
  vertex 0.000662876293 0.0407178141 -0.0116059929
  endloop
 endfacet

 facet normal 0 0 0
  outer loop
  vertex -0.000419669173 0.0361008421 -0.0128493551
  vertex 0.0039652288 0.0375223048 -0.012508384
  vertex -0.00392574444 0.00506368373 -0.0131488536
  endloop
 endfacet

 facet normal 0 0 0
  outer loop
  vertex -0.000419669173 0.0361008421 -0.0128493551
  vertex -0.00392574444 0.00506368373 -0.0131488536
  vertex -0.00865749829 0.00092117762 -0.0129754879
  endloop
 endfacet

 facet normal 0 0 0
  outer loop
  vertex -0.000419669173 0.0361008421 -0.0128493551
  vertex -0.00865749829 0.00092117762 -0.0129754879
  vertex -0.00619476335 0.0243099369 -0.0129796071
  endloop
 endfacet

 facet normal 0 0 0
  outer loop
  vertex -0.000419669173 0.0361008421 -0.0128493551
  vertex -0.00619476335 0.0243099369 -0.0129796071
  vertex -0.00828450546 0.0252746884 -0.0109914057
  endloop
 endfacet

 facet normal 0 0 0
  outer loop
  vertex -0.000419669173 0.0361008421 -0.0128493551
  vertex -0.00828450546 0.0252746884 -0.0109914057
  vertex 0.000662876293 0.0407178141 -0.0116059929
  endloop
 endfacet

 facet normal 0 0 0
  outer loop
  vertex -0.000419669173 0.0361008421 -0.0128493551
  vertex 0.000662876293 0.0407178141 -0.0116059929
  vertex 0.0039652288 0.0375223048 -0.012508384
  endloop
 endfacet

 facet normal 0 0 0
  outer loop
  vertex 0.00424717274 0.0399595499 -6.79302466e-05
  vertex 0.005277663 0.0354676582 -0.000167861057
  vertex 0.00651524775 0.0397290289 -0.00215195026
  endloop
 endfacet

 facet normal 0 0 0
  outer loop
  vertex 0.00424717274 0.0399595499 -6.79302466e-05
  vertex 0.00651524775 0.0397290289 -0.00215195026
  vertex 0.00504295062 0.0421155505 -0.00141535059
  endloop
 endfacet

 facet normal 0 0 0
  outer loop
  vertex 0.00424717274 0.0399595499 -6.79302466e-05
  vertex 0.00504295062 0.0421155505 -0.00141535059
  vertex 0.00308036967 0.0433159471 -0.00173307268
  endloop
 endfacet

 facet normal 0 0 0
  outer loop
  vertex 0.00424717274 0.0399595499 -6.79302466e-05
  vertex 0.00308036967 0.0433159471 -0.00173307268
  vertex 0.00116246624 0.040771544 -0.00024946942
  endloop
 endfacet

 facet normal 0 0 0
  outer loop
  vertex 0.00424717274 0.0399595499 -6.79302466e-05
  vertex 0.00116246624 0.040771544 -0.00024946942
  vertex -0.00096895668 0.0326055847 0.00089350919
  endloop
 endfacet

endsolid AssimpScene
