solid AssimpScene
 facet normal 0 0 0
  outer loop
  vertex -0.000302061409 -0.010438635 -0.0115
  vertex -0.00488851545 -0.00951625127 -0.00187857193
  vertex -0.00742921419 -0.00817279145 -0.0106368214
  endloop
 endfacet

 facet normal 0 0 0
  outer loop
  vertex -0.000302061409 -0.010438635 -0.0115
  vertex -0.00742921419 -0.00817279145 -0.0106368214
  vertex -0.00458380766 -0.00894224457 -0.0134815043
  endloop
 endfacet

 facet normal 0 0 0
  outer loop
  vertex -0.00488851545 -0.00951625127 -0.00187857193
  vertex -0.000302061409 -0.010438635 -0.0115
  vertex 0.00257073925 -0.00979911163 -0.000428993517
  endloop
 endfacet

 facet normal 0 0 0
  outer loop
  vertex 0.00431896141 0.0355972312 -0.0126895085
  vertex 0.000783688272 0.0352317318 -0.0131197628
  vertex 0.00301282573 0.0358746685 -0.00340000005
  endloop
 endfacet

 facet normal 0 0 0
  outer loop
  vertex 0.0060398858 0.0334781967 -0.00132444105
  vertex 0.0112658804 0.00969552901 -0.00700000022
  vertex 0.00596384564 0.0328716785 -0.0132188657
  endloop
 endfacet

 facet normal 0 0 0
  outer loop
  vertex 0.00596384564 0.0328716785 -0.0132188657
  vertex 0.00431896141 0.0355972312 -0.0126895085
  vertex 0.0048001064 0.0353291743 -0.00133972079
  endloop
 endfacet

 facet normal 0 0 0
  outer loop
  vertex 0.00596384564 0.0328716785 -0.0132188657
  vertex 0.0048001064 0.0353291743 -0.00133972079
  vertex 0.0060398858 0.0334781967 -0.00132444105
  endloop
 endfacet

 facet normal 0 0 0
  outer loop
  vertex 0.000308841933 0.034910094 -0.000817672582
  vertex 0.0038531879 0.0349989794 -0.000403194455
  vertex 0.0048001064 0.0353291743 -0.00133972079
  endloop
 endfacet

 facet normal 0 0 0
  outer loop
  vertex 0.000308841933 0.034910094 -0.000817672582
  vertex 0.0048001064 0.0353291743 -0.00133972079
  vertex 0.00301282573 0.0358746685 -0.00340000005
  endloop
 endfacet

 facet normal 0 0 0
  outer loop
  vertex 0.000308841933 0.034910094 -0.000817672582
  vertex 0.00301282573 0.0358746685 -0.00340000005
  vertex 0.000783688272 0.0352317318 -0.0131197628
  endloop
 endfacet

 facet normal 0 0 0
  outer loop
  vertex 0.000308841933 0.034910094 -0.000817672582
  vertex 0.000783688272 0.0352317318 -0.0131197628
  vertex -0.00794578623 0.0301733967 -0.00795006752
  endloop
 endfacet

 facet normal 0 0 0
  outer loop
  vertex -0.0092053581 0.0266740266 -0.00488099502
  vertex -0.00794578623 0.0301733967 -0.00795006752
  vertex -0.00808220915 0.0263905581 -0.0124518108
  endloop
 endfacet

 facet normal 0 0 0
  outer loop
  vertex -0.0092053581 0.0266740266 -0.00488099502
  vertex -0.00808220915 0.0263905581 -0.0124518108
  vertex -0.00903139077 0.00162962393 -0.0104730828
  endloop
 endfacet

 facet normal 0 0 0
  outer loop
  vertex -0.0092053581 0.0266740266 -0.00488099502
  vertex -0.00903139077 0.00162962393 -0.0104730828
  vertex -0.00956853852 0.00784683414 -0.00597938802
  endloop
 endfacet

 facet normal 0 0 0
  outer loop
  vertex 0.00530274585 -0.00647664489 0.000601532578
  vertex 0.0100513864 -0.00419514626 -0.00145732402
  vertex 0.0060398858 0.0334781967 -0.00132444105
  endloop
 endfacet

 facet normal 0 0 0
  outer loop
  vertex 0.00530274585 -0.00647664489 0.000601532578
  vertex 0.0060398858 0.0334781967 -0.00132444105
  vertex 0.0038531879 0.0349989794 -0.000403194455
  endloop
 endfacet

 facet normal 0 0 0
  outer loop
  vertex -0.00418525469 -0.00811906252 0.000117060947
  vertex -0.00488851545 -0.00951625127 -0.00187857193
  vertex 0.00257073925 -0.00979911163 -0.000428993517
  endloop
 endfacet

 facet normal 0 0 0
  outer loop
  vertex -0.00418525469 -0.00811906252 0.000117060947
  vertex 0.00257073925 -0.00979911163 -0.000428993517
  vertex 0.00530274585 -0.00647664489 0.000601532578
  endloop
 endfacet

 facet normal 0 0 0
  outer loop
  vertex -0.00418525469 -0.00811906252 0.000117060947
  vertex 0.00530274585 -0.00647664489 0.000601532578
  vertex -0.00257796538 0.00409606751 0.00100350962
  endloop
 endfacet

 facet normal 0 0 0
  outer loop
  vertex -0.0067359074 0.0301705189 -0.01216623
  vertex -0.00808220915 0.0263905581 -0.0124518108
  vertex -0.00794578623 0.0301733967 -0.00795006752
  endloop
 endfacet

 facet normal 0 0 0
  outer loop
  vertex -0.0067359074 0.0301705189 -0.01216623
  vertex -0.00794578623 0.0301733967 -0.00795006752
  vertex 0.000783688272 0.0352317318 -0.0131197628
  endloop
 endfacet

 facet normal 0 0 0
  outer loop
  vertex -0.00420781178 0.025647562 0.000624017091
  vertex -0.00720597384 0.0284048859 -0.00107748038
  vertex -0.00686454913 -0.00566428015 -0.00103621534
  endloop
 endfacet

 facet normal 0 0 0
  outer loop
  vertex -0.00686454913 -0.00566428015 -0.00103621534
  vertex -0.00418525469 -0.00811906252 0.000117060947
  vertex -0.00257796538 0.00409606751 0.00100350962
  endloop
 endfacet

 facet normal 0 0 0
  outer loop
  vertex -0.00686454913 -0.00566428015 -0.00103621534
  vertex -0.00257796538 0.00409606751 0.00100350962
  vertex -0.00420781178 0.025647562 0.000624017091
  endloop
 endfacet

 facet normal 0 0 0
  outer loop
  vertex -0.00420781178 0.025647562 0.000624017091
  vertex -0.00257796538 0.00409606751 0.00100350962
  vertex 0.00530274585 -0.00647664489 0.000601532578
  endloop
 endfacet

 facet normal 0 0 0
  outer loop
  vertex -0.00420781178 0.025647562 0.000624017091
  vertex 0.00530274585 -0.00647664489 0.000601532578
  vertex 0.0038531879 0.0349989794 -0.000403194455
  endloop
 endfacet

 facet normal 0 0 0
  outer loop
  vertex -0.00420781178 0.025647562 0.000624017091
  vertex 0.0038531879 0.0349989794 -0.000403194455
  vertex 0.000308841933 0.034910094 -0.000817672582
  endloop
 endfacet

 facet normal 0 0 0
  outer loop
  vertex -0.00420781178 0.025647562 0.000624017091
  vertex 0.000308841933 0.034910094 -0.000817672582
  vertex -0.00720597384 0.0284048859 -0.00107748038
  endloop
 endfacet

 facet normal 0 0 0
  outer loop
  vertex -0.00646653399 0.00268580252 -0.0138975624
  vertex -0.00420781178 0.025647562 -0.0146240164
  vertex 0.00146090274 -0.00774042075 -0.0147848884
  endloop
 endfacet

 facet normal 0 0 0
  outer loop
  vertex -0.00646653399 0.00268580252 -0.0138975624
  vertex 0.00146090274 -0.00774042075 -0.0147848884
  vertex -0.00458380766 -0.00894224457 -0.0134815043
  endloop
 endfacet

 facet normal 0 0 0
  outer loop
  vertex -0.00646653399 0.00268580252 -0.0138975624
  vertex -0.00458380766 -0.00894224457 -0.0134815043
  vertex -0.00768018421 -0.00631271116 -0.0118272649
  endloop
 endfacet

 facet normal 0 0 0
  outer loop
  vertex 0.0106500778 0.00972723309 -0.00341687026
  vertex 0.0112658804 0.00969552901 -0.00700000022
  vertex 0.0060398858 0.0334781967 -0.00132444105
  endloop
 endfacet

 facet normal 0 0 0
  outer loop
  vertex 0.0106500778 0.00972723309 -0.00341687026
  vertex 0.0060398858 0.0334781967 -0.00132444105
  vertex 0.0100513864 -0.00419514626 -0.00145732402
  endloop
 endfacet

 facet normal 0 0 0
  outer loop
  vertex 0.0106959855 0.00964128971 -0.0105052479
  vertex 0.00596384564 0.0328716785 -0.0132188657
  vertex 0.0112658804 0.00969552901 -0.00700000022
  endloop
 endfacet

 facet normal 0 0 0
  outer loop
  vertex 0.0106959855 0.00964128971 -0.0105052479
  vertex 0.0100513864 -0.00419514626 -0.0125426762
  vertex 0.00596384564 0.0328716785 -0.0132188657
  endloop
 endfacet

 facet normal 0 0 0
  outer loop
  vertex 0.00892313942 -0.00684080459 -0.0115
  vertex 0.0100513864 -0.00419514626 -0.0125426762
  vertex 0.0100513864 -0.00419514626 -0.00145732402
  endloop
 endfacet

 facet normal 0 0 0
  outer loop
  vertex 0.00892313942 -0.00684080459 -0.0115
  vertex 0.0100513864 -0.00419514626 -0.00145732402
  vertex 0.00736621115 -0.00825196505 -0.00250021019
  endloop
 endfacet

 facet normal 0 0 0
  outer loop
  vertex 0.00892313942 -0.00684080459 -0.0115
  vertex 0.00567792682 -0.00855991524 -0.0138012376
  vertex 0.0100513864 -0.00419514626 -0.0125426762
  endloop
 endfacet

 facet normal 0 0 0
  outer loop
  vertex 0.00640732981 -0.00818120595 -0.000335158111
  vertex 0.00736621115 -0.00825196505 -0.00250021019
  vertex 0.0100513864 -0.00419514626 -0.00145732402
  endloop
 endfacet

 facet normal 0 0 0
  outer loop
  vertex 0.00640732981 -0.00818120595 -0.000335158111
  vertex 0.0100513864 -0.00419514626 -0.00145732402
  vertex 0.00530274585 -0.00647664489 0.000601532578
  endloop
 endfacet

 facet normal 0 0 0
  outer loop
  vertex 0.00640732981 -0.00818120595 -0.000335158111
  vertex 0.00530274585 -0.00647664489 0.000601532578
  vertex 0.00257073925 -0.00979911163 -0.000428993517
  endloop
 endfacet

 facet normal 0 0 0
  outer loop
  vertex 0.00640732981 -0.00818120595 -0.000335158111
  vertex 0.00257073925 -0.00979911163 -0.000428993517
  vertex 0.00736621115 -0.00825196505 -0.00250021019
  endloop
 endfacet

 facet normal 0 0 0
  outer loop
  vertex -0.00741355354 0.0301642679 -0.00304552424
  vertex -0.00720597384 0.0284048859 -0.00107748038
  vertex 0.000308841933 0.034910094 -0.000817672582
  endloop
 endfacet

 facet normal 0 0 0
  outer loop
  vertex -0.00741355354 0.0301642679 -0.00304552424
  vertex 0.000308841933 0.034910094 -0.000817672582
  vertex -0.00794578623 0.0301733967 -0.00795006752
  endloop
 endfacet

 facet normal 0 0 0
  outer loop
  vertex -0.00741355354 0.0301642679 -0.00304552424
  vertex -0.00794578623 0.0301733967 -0.00795006752
  vertex -0.0092053581 0.0266740266 -0.00488099502
  endloop
 endfacet

 facet normal 0 0 0
  outer loop
  vertex -0.00741355354 0.0301642679 -0.00304552424
  vertex -0.0092053581 0.0266740266 -0.00488099502
  vertex -0.00720597384 0.0284048859 -0.00107748038
  endloop
 endfacet

 facet normal 0 0 0
  outer loop
  vertex 0.00108931365 -0.00969767943 -0.013866405
  vertex -0.000302061409 -0.010438635 -0.0115
  vertex -0.00458380766 -0.00894224457 -0.0134815043
  endloop
 endfacet

 facet normal 0 0 0
  outer loop
  vertex 0.00108931365 -0.00969767943 -0.013866405
  vertex -0.00458380766 -0.00894224457 -0.0134815043
  vertex 0.00146090274 -0.00774042075 -0.0147848884
  endloop
 endfacet

 facet normal 0 0 0
  outer loop
  vertex 0.00108931365 -0.00969767943 -0.013866405
  vertex 0.00146090274 -0.00774042075 -0.0147848884
  vertex 0.00567792682 -0.00855991524 -0.0138012376
  endloop
 endfacet

 facet normal 0 0 0
  outer loop
  vertex 0.0116313873 0.00392277725 -0.00700000022
  vertex 0.0100513864 -0.00419514626 -0.0125426762
  vertex 0.0106959855 0.00964128971 -0.0105052479
  endloop
 endfacet

 facet normal 0 0 0
  outer loop
  vertex 0.0116313873 0.00392277725 -0.00700000022
  vertex 0.0106959855 0.00964128971 -0.0105052479
  vertex 0.0112658804 0.00969552901 -0.00700000022
  endloop
 endfacet

 facet normal 0 0 0
  outer loop
  vertex 0.0116313873 0.00392277725 -0.00700000022
  vertex 0.0112658804 0.00969552901 -0.00700000022
  vertex 0.0106500778 0.00972723309 -0.00341687026
  endloop
 endfacet

 facet normal 0 0 0
  outer loop
  vertex 0.0116313873 0.00392277725 -0.00700000022
  vertex 0.0106500778 0.00972723309 -0.00341687026
  vertex 0.0100513864 -0.00419514626 -0.00145732402
  endloop
 endfacet

 facet normal 0 0 0
  outer loop
  vertex 0.0116313873 0.00392277725 -0.00700000022
  vertex 0.0100513864 -0.00419514626 -0.00145732402
  vertex 0.0100513864 -0.00419514626 -0.0125426762
  endloop
 endfacet

 facet normal 0 0 0
  outer loop
  vertex 0.00652233651 -0.00444832863 -0.0143977813
  vertex 0.0100513864 -0.00419514626 -0.0125426762
  vertex 0.00567792682 -0.00855991524 -0.0138012376
  endloop
 endfacet

 facet normal 0 0 0
  outer loop
  vertex 0.00652233651 -0.00444832863 -0.0143977813
  vertex 0.00567792682 -0.00855991524 -0.0138012376
  vertex 0.00146090274 -0.00774042075 -0.0147848884
  endloop
 endfacet

 facet normal 0 0 0
  outer loop
  vertex 0.00652233651 -0.00444832863 -0.0143977813
  vertex 0.00596384564 0.0328716785 -0.0132188657
  vertex 0.0100513864 -0.00419514626 -0.0125426762
  endloop
 endfacet

 facet normal 0 0 0
  outer loop
  vertex -0.00742921419 -0.00817279145 -0.0106368214
  vertex -0.00488851545 -0.00951625127 -0.00187857193
  vertex -0.00843178295 -0.00741977524 -0.0061028148
  endloop
 endfacet

 facet normal 0 0 0
  outer loop
  vertex -0.00742921419 -0.00817279145 -0.0106368214
  vertex -0.00843178295 -0.00741977524 -0.0061028148
  vertex -0.00768018421 -0.00631271116 -0.0118272649
  endloop
 endfacet

 facet normal 0 0 0
  outer loop
  vertex -0.00742921419 -0.00817279145 -0.0106368214
  vertex -0.00768018421 -0.00631271116 -0.0118272649
  vertex -0.00458380766 -0.00894224457 -0.0134815043
  endloop
 endfacet

 facet normal 0 0 0
  outer loop
  vertex -0.0086894678 0.00177297147 -0.00262799417
  vertex -0.00686454913 -0.00566428015 -0.00103621534
  vertex -0.00720597384 0.0284048859 -0.00107748038
  endloop
 endfacet

 facet normal 0 0 0
  outer loop
  vertex -0.0086894678 0.00177297147 -0.00262799417
  vertex -0.00720597384 0.0284048859 -0.00107748038
  vertex -0.0092053581 0.0266740266 -0.00488099502
  endloop
 endfacet

 facet normal 0 0 0
  outer loop
  vertex -0.0086894678 0.00177297147 -0.00262799417
  vertex -0.0092053581 0.0266740266 -0.00488099502
  vertex -0.00956853852 0.00784683414 -0.00597938802
  endloop
 endfacet

 facet normal 0 0 0
  outer loop
  vertex -0.0086894678 0.00177297147 -0.00262799417
  vertex -0.00956853852 0.00784683414 -0.00597938802
  vertex -0.00843178295 -0.00741977524 -0.0061028148
  endloop
 endfacet

 facet normal 0 0 0
  outer loop
  vertex -0.00903139077 0.00162962393 -0.0104730828
  vertex -0.00768018421 -0.00631271116 -0.0118272649
  vertex -0.00843178295 -0.00741977524 -0.0061028148
  endloop
 endfacet

 facet normal 0 0 0
  outer loop
  vertex -0.00903139077 0.00162962393 -0.0104730828
  vertex -0.00843178295 -0.00741977524 -0.0061028148
  vertex -0.00956853852 0.00784683414 -0.00597938802
  endloop
 endfacet

 facet normal 0 0 0
  outer loop
  vertex -0.00808220915 0.0263905581 -0.0124518108
  vertex -0.00646653399 0.00268580252 -0.0138975624
  vertex -0.00768018421 -0.00631271116 -0.0118272649
  endloop
 endfacet

 facet normal 0 0 0
  outer loop
  vertex -0.00808220915 0.0263905581 -0.0124518108
  vertex -0.00768018421 -0.00631271116 -0.0118272649
  vertex -0.00903139077 0.00162962393 -0.0104730828
  endloop
 endfacet

 facet normal 0 0 0
  outer loop
  vertex -0.00718040997 -0.00800379738 -0.00246465486
  vertex -0.00686454913 -0.00566428015 -0.00103621534
  vertex -0.0086894678 0.00177297147 -0.00262799417
  endloop
 endfacet

 facet normal 0 0 0
  outer loop
  vertex -0.00718040997 -0.00800379738 -0.00246465486
  vertex -0.0086894678 0.00177297147 -0.00262799417
  vertex -0.00843178295 -0.00741977524 -0.0061028148
  endloop
 endfacet

 facet normal 0 0 0
  outer loop
  vertex -0.00718040997 -0.00800379738 -0.00246465486
  vertex -0.00843178295 -0.00741977524 -0.0061028148
  vertex -0.00488851545 -0.00951625127 -0.00187857193
  endloop
 endfacet

 facet normal 0 0 0
  outer loop
  vertex -0.00718040997 -0.00800379738 -0.00246465486
  vertex -0.00488851545 -0.00951625127 -0.00187857193
  vertex -0.00418525469 -0.00811906252 0.000117060947
  endloop
 endfacet

 facet normal 0 0 0
  outer loop
  vertex -0.00718040997 -0.00800379738 -0.00246465486
  vertex -0.00418525469 -0.00811906252 0.000117060947
  vertex -0.00686454913 -0.00566428015 -0.00103621534
  endloop
 endfacet

 facet normal 0 0 0
  outer loop
  vertex 0.00261523947 0.0352566689 -0.0137353726
  vertex 0.000783688272 0.0352317318 -0.0131197628
  vertex 0.00431896141 0.0355972312 -0.0126895085
  endloop
 endfacet

 facet normal 0 0 0
  outer loop
  vertex 0.00261523947 0.0352566689 -0.0137353726
  vertex 0.00431896141 0.0355972312 -0.0126895085
  vertex 0.00596384564 0.0328716785 -0.0132188657
  endloop
 endfacet

 facet normal 0 0 0
  outer loop
  vertex 0.00261523947 0.0352566689 -0.0137353726
  vertex 0.00596384564 0.0328716785 -0.0132188657
  vertex 0.00652233651 -0.00444832863 -0.0143977813
  endloop
 endfacet

 facet normal 0 0 0
  outer loop
  vertex 0.00261523947 0.0352566689 -0.0137353726
  vertex 0.00652233651 -0.00444832863 -0.0143977813
  vertex 0.00146090274 -0.00774042075 -0.0147848884
  endloop
 endfacet

 facet normal 0 0 0
  outer loop
  vertex 0.00261523947 0.0352566689 -0.0137353726
  vertex 0.00146090274 -0.00774042075 -0.0147848884
  vertex -0.00420781178 0.025647562 -0.0146240164
  endloop
 endfacet

 facet normal 0 0 0
  outer loop
  vertex 0.0048001064 0.0353291743 -0.00133972079
  vertex 0.0038531879 0.0349989794 -0.000403194455
  vertex 0.0060398858 0.0334781967 -0.00132444105
  endloop
 endfacet

 facet normal 0 0 0
  outer loop
  vertex 0.0048001064 0.0353291743 -0.00133972079
  vertex 0.00431896141 0.0355972312 -0.0126895085
  vertex 0.00301282573 0.0358746685 -0.00340000005
  endloop
 endfacet

 facet normal 0 0 0
  outer loop
  vertex 0.00436085043 -0.00978239346 -0.0115
  vertex -0.000302061409 -0.010438635 -0.0115
  vertex 0.00108931365 -0.00969767943 -0.013866405
  endloop
 endfacet

 facet normal 0 0 0
  outer loop
  vertex 0.00436085043 -0.00978239346 -0.0115
  vertex 0.00108931365 -0.00969767943 -0.013866405
  vertex 0.00567792682 -0.00855991524 -0.0138012376
  endloop
 endfacet

 facet normal 0 0 0
  outer loop
  vertex 0.00436085043 -0.00978239346 -0.0115
  vertex 0.00567792682 -0.00855991524 -0.0138012376
  vertex 0.00892313942 -0.00684080459 -0.0115
  endloop
 endfacet

 facet normal 0 0 0
  outer loop
  vertex 0.00436085043 -0.00978239346 -0.0115
  vertex 0.00892313942 -0.00684080459 -0.0115
  vertex 0.00736621115 -0.00825196505 -0.00250021019
  endloop
 endfacet

 facet normal 0 0 0
  outer loop
  vertex 0.00436085043 -0.00978239346 -0.0115
  vertex 0.00736621115 -0.00825196505 -0.00250021019
  vertex 0.00257073925 -0.00979911163 -0.000428993517
  endloop
 endfacet

 facet normal 0 0 0
  outer loop
  vertex 0.00436085043 -0.00978239346 -0.0115
  vertex 0.00257073925 -0.00979911163 -0.000428993517
  vertex -0.000302061409 -0.010438635 -0.0115
  endloop
 endfacet

 facet normal 0 0 0
  outer loop
  vertex -0.00517064938 0.0285424218 -0.0140740257
  vertex -0.00420781178 0.025647562 -0.0146240164
  vertex -0.00646653399 0.00268580252 -0.0138975624
  endloop
 endfacet

 facet normal 0 0 0
  outer loop
  vertex -0.00517064938 0.0285424218 -0.0140740257
  vertex -0.00646653399 0.00268580252 -0.0138975624
  vertex -0.00808220915 0.0263905581 -0.0124518108
  endloop
 endfacet

 facet normal 0 0 0
  outer loop
  vertex -0.00517064938 0.0285424218 -0.0140740257
  vertex -0.00808220915 0.0263905581 -0.0124518108
  vertex -0.0067359074 0.0301705189 -0.01216623
  endloop
 endfacet

 facet normal 0 0 0
  outer loop
  vertex -0.00517064938 0.0285424218 -0.0140740257
  vertex -0.0067359074 0.0301705189 -0.01216623
  vertex 0.000783688272 0.0352317318 -0.0131197628
  endloop
 endfacet

 facet normal 0 0 0
  outer loop
  vertex -0.00517064938 0.0285424218 -0.0140740257
  vertex 0.000783688272 0.0352317318 -0.0131197628
  vertex 0.00261523947 0.0352566689 -0.0137353726
  endloop
 endfacet

 facet normal 0 0 0
  outer loop
  vertex -0.00517064938 0.0285424218 -0.0140740257
  vertex 0.00261523947 0.0352566689 -0.0137353726
  vertex -0.00420781178 0.025647562 -0.0146240164
  endloop
 endfacet

endsolid AssimpScene
