solid AssimpScene
 facet normal 0 0 0
  outer loop
  vertex 0.00244996767 0.00323252869 -0.0105002141
  vertex 0.00398699753 0.000743383483 -0.0105003482
  vertex -0.00258894055 -0.0118034882 -0.0107010324
  endloop
 endfacet

 facet normal 0 0 0
  outer loop
  vertex 0.00244996767 0.00323252869 -0.0105002141
  vertex -0.00258894055 -0.0118034882 -0.0107010324
  vertex -0.00356473075 0.00193786004 -0.0104996897
  endloop
 endfacet

 facet normal 0 0 0
  outer loop
  vertex 0.00244996767 0.00323252869 -0.0105002141
  vertex -0.00356473075 0.00193786004 -0.0104996897
  vertex -0.000361692219 0.00404053368 -0.0104999691
  endloop
 endfacet

 facet normal 0 0 0
  outer loop
  vertex -0.00356473075 0.00193786004 -0.0104996897
  vertex -0.0025228525 -0.0165776797 -0.00541996909
  vertex -0.00259001902 -0.0116316667 0.00400314434
  endloop
 endfacet

 facet normal 0 0 0
  outer loop
  vertex -0.00356473075 0.00193786004 -0.0104996897
  vertex -0.00259001902 -0.0116316667 0.00400314434
  vertex -0.00356381456 0.00193786004 3.1097133e-07
  endloop
 endfacet

 facet normal 0 0 0
  outer loop
  vertex -0.00258894055 -0.0118034882 -0.0107010324
  vertex -0.0025228525 -0.0165776797 -0.00541996909
  vertex -0.00356473075 0.00193786004 -0.0104996897
  endloop
 endfacet

 facet normal 0 0 0
  outer loop
  vertex -0.00258894055 -0.0118034882 -0.0107010324
  vertex 0.00398699753 0.000743383483 -0.0105003482
  vertex 0.00292000966 -0.0124144787 -0.010338637
  endloop
 endfacet

 facet normal 0 0 0
  outer loop
  vertex -0.000360775826 0.00404053368 3.1430357e-08
  vertex 0.00288563012 -0.00982032996 0.00432763388
  vertex 0.00316411629 0.00253859069 -2.76199955e-07
  endloop
 endfacet

 facet normal 0 0 0
  outer loop
  vertex -0.000360775826 0.00404053368 3.1430357e-08
  vertex -0.000361692219 0.00404053368 -0.0104999691
  vertex -0.00356473075 0.00193786004 -0.0104996897
  endloop
 endfacet

 facet normal 0 0 0
  outer loop
  vertex -0.000360775826 0.00404053368 3.1430357e-08
  vertex -0.00356473075 0.00193786004 -0.0104996897
  vertex -0.00356381456 0.00193786004 3.1097133e-07
  endloop
 endfacet

 facet normal 0 0 0
  outer loop
  vertex 0.00292706187 -0.0128441351 0.0027945519
  vertex -0.00259001902 -0.0116316667 0.00400314434
  vertex -0.0025228525 -0.0165776797 -0.00541996909
  endloop
 endfacet

 facet normal 0 0 0
  outer loop
  vertex 0.00292706187 -0.0128441351 0.0027945519
  vertex -0.0025228525 -0.0165776797 -0.00541996909
  vertex 0.00297576236 -0.0164337568 -0.00458032917
  endloop
 endfacet

 facet normal 0 0 0
  outer loop
  vertex 0.00292706187 -0.0128441351 0.0027945519
  vertex 0.00288563012 -0.00982032996 0.00432763388
  vertex -0.00259001902 -0.0116316667 0.00400314434
  endloop
 endfacet

 facet normal 0 0 0
  outer loop
  vertex 0.00244996767 0.00323252869 -0.0105002141
  vertex 0.00316411629 0.00253859069 -2.76199955e-07
  vertex 0.00398699753 0.000743383483 -0.0105003482
  endloop
 endfacet

 facet normal 0 0 0
  outer loop
  vertex 0.00244996767 0.00323252869 -0.0105002141
  vertex -0.000361692219 0.00404053368 -0.0104999691
  vertex -0.000360775826 0.00404053368 3.1430357e-08
  endloop
 endfacet

 facet normal 0 0 0
  outer loop
  vertex 0.00244996767 0.00323252869 -0.0105002141
  vertex -0.000360775826 0.00404053368 3.1430357e-08
  vertex 0.00316411629 0.00253859069 -2.76199955e-07
  endloop
 endfacet

 facet normal 0 0 0
  outer loop
  vertex 0.00296923541 -0.015974341 -0.00700551877
  vertex 0.00292000966 -0.0124144787 -0.010338637
  vertex 0.00398699753 0.000743383483 -0.0105003482
  endloop
 endfacet

 facet normal 0 0 0
  outer loop
  vertex 0.00296923541 -0.015974341 -0.00700551877
  vertex 0.00297576236 -0.0164337568 -0.00458032917
  vertex -0.0025228525 -0.0165776797 -0.00541996909
  endloop
 endfacet

 facet normal 0 0 0
  outer loop
  vertex 0.00296923541 -0.015974341 -0.00700551877
  vertex -0.0025228525 -0.0165776797 -0.00541996909
  vertex -0.00258894055 -0.0118034882 -0.0107010324
  endloop
 endfacet

 facet normal 0 0 0
  outer loop
  vertex 0.00296923541 -0.015974341 -0.00700551877
  vertex -0.00258894055 -0.0118034882 -0.0107010324
  vertex 0.00292000966 -0.0124144787 -0.010338637
  endloop
 endfacet

 facet normal 0 0 0
  outer loop
  vertex 0.00404890673 -0.000249858596 -3.53418869e-07
  vertex 0.00288563012 -0.00982032996 0.00432763388
  vertex 0.00292706187 -0.0128441351 0.0027945519
  endloop
 endfacet

 facet normal 0 0 0
  outer loop
  vertex 0.00404890673 -0.000249858596 -3.53418869e-07
  vertex 0.00292706187 -0.0128441351 0.0027945519
  vertex 0.00297576236 -0.0164337568 -0.00458032917
  endloop
 endfacet

 facet normal 0 0 0
  outer loop
  vertex 0.00404890673 -0.000249858596 -3.53418869e-07
  vertex 0.00297576236 -0.0164337568 -0.00458032917
  vertex 0.00296923541 -0.015974341 -0.00700551877
  endloop
 endfacet

 facet normal 0 0 0
  outer loop
  vertex 0.00404890673 -0.000249858596 -3.53418869e-07
  vertex 0.00296923541 -0.015974341 -0.00700551877
  vertex 0.00398699753 0.000743383483 -0.0105003482
  endloop
 endfacet

 facet normal 0 0 0
  outer loop
  vertex 0.00404890673 -0.000249858596 -3.53418869e-07
  vertex 0.00398699753 0.000743383483 -0.0105003482
  vertex 0.00316411629 0.00253859069 -2.76199955e-07
  endloop
 endfacet

 facet normal 0 0 0
  outer loop
  vertex 0.00404890673 -0.000249858596 -3.53418869e-07
  vertex 0.00316411629 0.00253859069 -2.76199955e-07
  vertex 0.00288563012 -0.00982032996 0.00432763388
  endloop
 endfacet

 facet normal 0 0 0
  outer loop
  vertex -0.00262577506 -0.00902980193 0.0041150935
  vertex -0.00259001902 -0.0116316667 0.00400314434
  vertex 0.00288563012 -0.00982032996 0.00432763388
  endloop
 endfacet

 facet normal 0 0 0
  outer loop
  vertex -0.00262577506 -0.00902980193 0.0041150935
  vertex 0.00288563012 -0.00982032996 0.00432763388
  vertex -0.000360775826 0.00404053368 3.1430357e-08
  endloop
 endfacet

 facet normal 0 0 0
  outer loop
  vertex -0.00262577506 -0.00902980193 0.0041150935
  vertex -0.000360775826 0.00404053368 3.1430357e-08
  vertex -0.00356381456 0.00193786004 3.1097133e-07
  endloop
 endfacet

 facet normal 0 0 0
  outer loop
  vertex -0.00262577506 -0.00902980193 0.0041150935
  vertex -0.00356381456 0.00193786004 3.1097133e-07
  vertex -0.00259001902 -0.0116316667 0.00400314434
  endloop
 endfacet

endsolid AssimpScene
