solid AssimpScene
 facet normal 0 0 0
  outer loop
  vertex -0.00899096578 0.0159090739 -0.0109219737
  vertex -0.000175944486 0.0307505019 -0.0118641928
  vertex -0.00123977568 0.02615254 -0.0131072458
  endloop
 endfacet

 facet normal 0 0 0
  outer loop
  vertex -0.00899096578 0.0159090739 -0.0109219737
  vertex -0.00123977568 0.02615254 -0.0131072458
  vertex -0.00725558074 0.014818917 -0.0131096952
  endloop
 endfacet

 facet normal 0 0 0
  outer loop
  vertex -0.00630321261 0.002826754 0.000808792654
  vertex 0.00282774097 -0.00100193999 -0.00285818847
  vertex 0.0044426946 0.025511099 -0.000423211139
  endloop
 endfacet

 facet normal 0 0 0
  outer loop
  vertex -0.00458193989 0.00454878528 -0.013407575
  vertex 0.00312608271 0.027553536 -0.0127613889
  vertex 0.00282774097 -0.00100193999 -0.00955818873
  endloop
 endfacet

 facet normal 0 0 0
  outer loop
  vertex -0.00725558074 0.014818917 -0.0131096952
  vertex -0.00982059259 0.000853563135 -0.0125089977
  vertex -0.00899096578 0.0159090739 -0.0109219737
  endloop
 endfacet

 facet normal 0 0 0
  outer loop
  vertex -0.011603348 0.000947019551 -0.0081343716
  vertex -0.00899096578 0.0159090739 -0.0109219737
  vertex -0.00982059259 0.000853563135 -0.0125089977
  endloop
 endfacet

 facet normal 0 0 0
  outer loop
  vertex -0.011603348 0.000947019551 -0.0081343716
  vertex -0.00982059259 0.000853563135 -0.0125089977
  vertex -0.00779122859 -0.00626871269 -0.00882598106
  endloop
 endfacet

 facet normal 0 0 0
  outer loop
  vertex -0.00769474311 -0.00638677832 -0.00389039633
  vertex -0.0108127072 0.000581069791 -0.00155339343
  vertex -0.011603348 0.000947019551 -0.0081343716
  endloop
 endfacet

 facet normal 0 0 0
  outer loop
  vertex -0.00769474311 -0.00638677832 -0.00389039633
  vertex -0.011603348 0.000947019551 -0.0081343716
  vertex -0.00779122859 -0.00626871269 -0.00882598106
  endloop
 endfacet

 facet normal 0 0 0
  outer loop
  vertex 0.00223940937 0.0333509333 -0.00199147826
  vertex -0.0032991746 0.0280629862 -0.00558407512
  vertex 0.000323860586 0.0308047626 -0.000507877674
  endloop
 endfacet

 facet normal 0 0 0
  outer loop
  vertex -0.000910004135 -0.00778281223 -0.00285818847
  vertex 0.00282774097 -0.00100193999 -0.00285818847
  vertex -0.00630321261 0.002826754 0.000808792654
  endloop
 endfacet

 facet normal 0 0 0
  outer loop
  vertex 0.0052572093 0.0272972155 -0.011411164
  vertex 0.00282774097 -0.00100193999 -0.00955818873
  vertex 0.00312608271 0.027553536 -0.0127613889
  endloop
 endfacet

 facet normal 0 0 0
  outer loop
  vertex 0.00567304529 0.0297595933 -0.00240386277
  vertex 0.0044426946 0.025511099 -0.000423211139
  vertex 0.00282774097 -0.00100193999 -0.00285818847
  endloop
 endfacet

 facet normal 0 0 0
  outer loop
  vertex -0.000910004135 -0.00778281223 -0.00955818873
  vertex 0.00282774097 -0.00100193999 -0.00955818873
  vertex 0.00282774097 -0.00100193999 -0.00285818847
  endloop
 endfacet

 facet normal 0 0 0
  outer loop
  vertex -0.000910004135 -0.00778281223 -0.00955818873
  vertex 0.00282774097 -0.00100193999 -0.00285818847
  vertex -0.000910004135 -0.00778281223 -0.00285818847
  endloop
 endfacet

 facet normal 0 0 0
  outer loop
  vertex -0.000910004135 -0.00778281223 -0.00955818873
  vertex -0.000910004135 -0.00778281223 -0.00285818847
  vertex -0.00344841345 -0.00905253831 -0.00285818847
  endloop
 endfacet

 facet normal 0 0 0
  outer loop
  vertex -0.000910004135 -0.00778281223 -0.00955818873
  vertex -0.00344841345 -0.00905253831 -0.00285818847
  vertex -0.00311339437 -0.00873150397 -0.00985818915
  endloop
 endfacet

 facet normal 0 0 0
  outer loop
  vertex -0.000910004135 -0.00778281223 -0.00955818873
  vertex -0.00458193989 0.00454878528 -0.013407575
  vertex 0.00282774097 -0.00100193999 -0.00955818873
  endloop
 endfacet

 facet normal 0 0 0
  outer loop
  vertex -0.00950694177 0.0162331741 -0.00469018472
  vertex -0.0032991746 0.0280629862 -0.00558407512
  vertex -0.00899096578 0.0159090739 -0.0109219737
  endloop
 endfacet

 facet normal 0 0 0
  outer loop
  vertex -0.00950694177 0.0162331741 -0.00469018472
  vertex -0.00899096578 0.0159090739 -0.0109219737
  vertex -0.011603348 0.000947019551 -0.0081343716
  endloop
 endfacet

 facet normal 0 0 0
  outer loop
  vertex -0.00950694177 0.0162331741 -0.00469018472
  vertex -0.011603348 0.000947019551 -0.0081343716
  vertex -0.0108127072 0.000581069791 -0.00155339343
  endloop
 endfacet

 facet normal 0 0 0
  outer loop
  vertex -0.00950694177 0.0162331741 -0.00469018472
  vertex -0.0108127072 0.000581069791 -0.00155339343
  vertex -0.0089028636 0.0141774341 -0.00065365294
  endloop
 endfacet

 facet normal 0 0 0
  outer loop
  vertex -0.00864446722 0.000700148696 0.000405202154
  vertex -0.00344841345 -0.00905253831 -0.00285818847
  vertex -0.000910004135 -0.00778281223 -0.00285818847
  endloop
 endfacet

 facet normal 0 0 0
  outer loop
  vertex -0.00864446722 0.000700148696 0.000405202154
  vertex -0.000910004135 -0.00778281223 -0.00285818847
  vertex -0.00630321261 0.002826754 0.000808792654
  endloop
 endfacet

 facet normal 0 0 0
  outer loop
  vertex -0.00864446722 0.000700148696 0.000405202154
  vertex -0.0089028636 0.0141774341 -0.00065365294
  vertex -0.0108127072 0.000581069791 -0.00155339343
  endloop
 endfacet

 facet normal 0 0 0
  outer loop
  vertex -0.00864446722 0.000700148696 0.000405202154
  vertex -0.0108127072 0.000581069791 -0.00155339343
  vertex -0.00769474311 -0.00638677832 -0.00389039633
  endloop
 endfacet

 facet normal 0 0 0
  outer loop
  vertex -0.00864446722 0.000700148696 0.000405202154
  vertex -0.00769474311 -0.00638677832 -0.00389039633
  vertex -0.00344841345 -0.00905253831 -0.00285818847
  endloop
 endfacet

 facet normal 0 0 0
  outer loop
  vertex 0.00426483713 0.0315778442 -0.0114219543
  vertex 0.00570122804 0.0312946476 -0.00868420862
  vertex 0.0052572093 0.0272972155 -0.011411164
  endloop
 endfacet

 facet normal 0 0 0
  outer loop
  vertex 0.00426483713 0.0315778442 -0.0114219543
  vertex 0.0052572093 0.0272972155 -0.011411164
  vertex 0.00312608271 0.027553536 -0.0127613889
  endloop
 endfacet

 facet normal 0 0 0
  outer loop
  vertex 0.00426483713 0.0315778442 -0.0114219543
  vertex 0.00312608271 0.027553536 -0.0127613889
  vertex -0.000175944486 0.0307505019 -0.0118641928
  endloop
 endfacet

 facet normal 0 0 0
  outer loop
  vertex 0.00426483713 0.0315778442 -0.0114219543
  vertex -0.000175944486 0.0307505019 -0.0118641928
  vertex 0.00243469304 0.0333667845 -0.0107103903
  endloop
 endfacet

 facet normal 0 0 0
  outer loop
  vertex 0.00426483713 0.0315778442 -0.0114219543
  vertex 0.00243469304 0.0333667845 -0.0107103903
  vertex 0.00570122804 0.0312946476 -0.00868420862
  endloop
 endfacet

 facet normal 0 0 0
  outer loop
  vertex -0.00294293859 0.0222311579 0.000572399702
  vertex -0.0089028636 0.0141774341 -0.00065365294
  vertex -0.00864446722 0.000700148696 0.000405202154
  endloop
 endfacet

 facet normal 0 0 0
  outer loop
  vertex -0.00294293859 0.0222311579 0.000572399702
  vertex -0.00864446722 0.000700148696 0.000405202154
  vertex -0.00630321261 0.002826754 0.000808792654
  endloop
 endfacet

 facet normal 0 0 0
  outer loop
  vertex -0.00630321261 0.002826754 0.000808792654
  vertex 0.0044426946 0.025511099 -0.000423211139
  vertex 0.00340454374 0.0299873743 -0.000320141669
  endloop
 endfacet

 facet normal 0 0 0
  outer loop
  vertex -0.00630321261 0.002826754 0.000808792654
  vertex 0.00340454374 0.0299873743 -0.000320141669
  vertex -0.00294293859 0.0222311579 0.000572399702
  endloop
 endfacet

 facet normal 0 0 0
  outer loop
  vertex -0.00294293859 0.0222311579 0.000572399702
  vertex 0.000323860586 0.0308047626 -0.000507877674
  vertex -0.0089028636 0.0141774341 -0.00065365294
  endloop
 endfacet

 facet normal 0 0 0
  outer loop
  vertex 0.00597083382 0.0250534788 -0.00721260626
  vertex 0.00570122804 0.0312946476 -0.00868420862
  vertex 0.00567304529 0.0297595933 -0.00240386277
  endloop
 endfacet

 facet normal 0 0 0
  outer loop
  vertex 0.00597083382 0.0250534788 -0.00721260626
  vertex 0.00567304529 0.0297595933 -0.00240386277
  vertex 0.00282774097 -0.00100193999 -0.00285818847
  endloop
 endfacet

 facet normal 0 0 0
  outer loop
  vertex 0.00597083382 0.0250534788 -0.00721260626
  vertex 0.00282774097 -0.00100193999 -0.00285818847
  vertex 0.00282774097 -0.00100193999 -0.00955818873
  endloop
 endfacet

 facet normal 0 0 0
  outer loop
  vertex 0.00597083382 0.0250534788 -0.00721260626
  vertex 0.00282774097 -0.00100193999 -0.00955818873
  vertex 0.0052572093 0.0272972155 -0.011411164
  endloop
 endfacet

 facet normal 0 0 0
  outer loop
  vertex 0.00597083382 0.0250534788 -0.00721260626
  vertex 0.0052572093 0.0272972155 -0.011411164
  vertex 0.00570122804 0.0312946476 -0.00868420862
  endloop
 endfacet

 facet normal 0 0 0
  outer loop
  vertex -0.00751682604 0.00123795727 -0.0133953793
  vertex -0.00982059259 0.000853563135 -0.0125089977
  vertex -0.00725558074 0.014818917 -0.0131096952
  endloop
 endfacet

 facet normal 0 0 0
  outer loop
  vertex -0.00458193989 0.00454878528 -0.013407575
  vertex -0.000910004135 -0.00778281223 -0.00955818873
  vertex -0.00311339437 -0.00873150397 -0.00985818915
  endloop
 endfacet

 facet normal 0 0 0
  outer loop
  vertex -0.00458193989 0.00454878528 -0.013407575
  vertex -0.00311339437 -0.00873150397 -0.00985818915
  vertex -0.00751682604 0.00123795727 -0.0133953793
  endloop
 endfacet

 facet normal 0 0 0
  outer loop
  vertex -0.00751682604 0.00123795727 -0.0133953793
  vertex -0.00311339437 -0.00873150397 -0.00985818915
  vertex -0.00982059259 0.000853563135 -0.0125089977
  endloop
 endfacet

 facet normal 0 0 0
  outer loop
  vertex -0.00509160152 -0.00860671792 -0.00882598106
  vertex -0.00344841345 -0.00905253831 -0.00285818847
  vertex -0.00769474311 -0.00638677832 -0.00389039633
  endloop
 endfacet

 facet normal 0 0 0
  outer loop
  vertex -0.00509160152 -0.00860671792 -0.00882598106
  vertex -0.00769474311 -0.00638677832 -0.00389039633
  vertex -0.00779122859 -0.00626871269 -0.00882598106
  endloop
 endfacet

 facet normal 0 0 0
  outer loop
  vertex -0.00509160152 -0.00860671792 -0.00882598106
  vertex -0.00779122859 -0.00626871269 -0.00882598106
  vertex -0.00982059259 0.000853563135 -0.0125089977
  endloop
 endfacet

 facet normal 0 0 0
  outer loop
  vertex -0.00509160152 -0.00860671792 -0.00882598106
  vertex -0.00982059259 0.000853563135 -0.0125089977
  vertex -0.00311339437 -0.00873150397 -0.00985818915
  endloop
 endfacet

 facet normal 0 0 0
  outer loop
  vertex -0.00509160152 -0.00860671792 -0.00882598106
  vertex -0.00311339437 -0.00873150397 -0.00985818915
  vertex -0.00344841345 -0.00905253831 -0.00285818847
  endloop
 endfacet

 facet normal 0 0 0
  outer loop
  vertex 0.00466073072 0.0331076346 -0.00501647079
  vertex 0.00267773168 0.0342262015 -0.00635818904
  vertex 0.00223940937 0.0333509333 -0.00199147826
  endloop
 endfacet

 facet normal 0 0 0
  outer loop
  vertex 0.00466073072 0.0331076346 -0.00501647079
  vertex 0.00223940937 0.0333509333 -0.00199147826
  vertex 0.00419844594 0.0321445093 -0.00166684715
  endloop
 endfacet

 facet normal 0 0 0
  outer loop
  vertex 0.00466073072 0.0331076346 -0.00501647079
  vertex 0.00419844594 0.0321445093 -0.00166684715
  vertex 0.00567304529 0.0297595933 -0.00240386277
  endloop
 endfacet

 facet normal 0 0 0
  outer loop
  vertex 0.00466073072 0.0331076346 -0.00501647079
  vertex 0.00567304529 0.0297595933 -0.00240386277
  vertex 0.00570122804 0.0312946476 -0.00868420862
  endloop
 endfacet

 facet normal 0 0 0
  outer loop
  vertex 0.00570122804 0.0312946476 -0.00868420862
  vertex 0.00243469304 0.0333667845 -0.0107103903
  vertex 0.00267773168 0.0342262015 -0.00635818904
  endloop
 endfacet

 facet normal 0 0 0
  outer loop
  vertex 0.00570122804 0.0312946476 -0.00868420862
  vertex 0.00267773168 0.0342262015 -0.00635818904
  vertex 0.00466073072 0.0331076346 -0.00501647079
  endloop
 endfacet

 facet normal 0 0 0
  outer loop
  vertex -0.00491871964 0.0239497796 -0.00181359844
  vertex 0.000323860586 0.0308047626 -0.000507877674
  vertex -0.0032991746 0.0280629862 -0.00558407512
  endloop
 endfacet

 facet normal 0 0 0
  outer loop
  vertex -0.00491871964 0.0239497796 -0.00181359844
  vertex -0.0032991746 0.0280629862 -0.00558407512
  vertex -0.00950694177 0.0162331741 -0.00469018472
  endloop
 endfacet

 facet normal 0 0 0
  outer loop
  vertex -0.00491871964 0.0239497796 -0.00181359844
  vertex -0.00950694177 0.0162331741 -0.00469018472
  vertex -0.0089028636 0.0141774341 -0.00065365294
  endloop
 endfacet

 facet normal 0 0 0
  outer loop
  vertex -0.00491871964 0.0239497796 -0.00181359844
  vertex -0.0089028636 0.0141774341 -0.00065365294
  vertex 0.000323860586 0.0308047626 -0.000507877674
  endloop
 endfacet

 facet normal 0 0 0
  outer loop
  vertex -0.00123977568 0.02615254 -0.0131072458
  vertex 0.00312608271 0.027553536 -0.0127613889
  vertex -0.00458193989 0.00454878528 -0.013407575
  endloop
 endfacet

 facet normal 0 0 0
  outer loop
  vertex -0.00123977568 0.02615254 -0.0131072458
  vertex -0.00458193989 0.00454878528 -0.013407575
  vertex -0.00751682604 0.00123795727 -0.0133953793
  endloop
 endfacet

 facet normal 0 0 0
  outer loop
  vertex -0.00123977568 0.02615254 -0.0131072458
  vertex -0.00751682604 0.00123795727 -0.0133953793
  vertex -0.00725558074 0.014818917 -0.0131096952
  endloop
 endfacet

 facet normal 0 0 0
  outer loop
  vertex -0.00123977568 0.02615254 -0.0131072458
  vertex -0.000175944486 0.0307505019 -0.0118641928
  vertex 0.00312608271 0.027553536 -0.0127613889
  endloop
 endfacet

 facet normal 0 0 0
  outer loop
  vertex -0.000475844659 0.031816002 -0.00838658866
  vertex -0.000175944486 0.0307505019 -0.0118641928
  vertex -0.00899096578 0.0159090739 -0.0109219737
  endloop
 endfacet

 facet normal 0 0 0
  outer loop
  vertex -0.000475844659 0.031816002 -0.00838658866
  vertex -0.00899096578 0.0159090739 -0.0109219737
  vertex -0.0032991746 0.0280629862 -0.00558407512
  endloop
 endfacet

 facet normal 0 0 0
  outer loop
  vertex -0.000475844659 0.031816002 -0.00838658866
  vertex -0.0032991746 0.0280629862 -0.00558407512
  vertex 0.00223940937 0.0333509333 -0.00199147826
  endloop
 endfacet

 facet normal 0 0 0
  outer loop
  vertex -0.000475844659 0.031816002 -0.00838658866
  vertex 0.00223940937 0.0333509333 -0.00199147826
  vertex 0.00267773168 0.0342262015 -0.00635818904
  endloop
 endfacet

 facet normal 0 0 0
  outer loop
  vertex -0.000475844659 0.031816002 -0.00838658866
  vertex 0.00267773168 0.0342262015 -0.00635818904
  vertex 0.00243469304 0.0333667845 -0.0107103903
  endloop
 endfacet

 facet normal 0 0 0
  outer loop
  vertex -0.000475844659 0.031816002 -0.00838658866
  vertex 0.00243469304 0.0333667845 -0.0107103903
  vertex -0.000175944486 0.0307505019 -0.0118641928
  endloop
 endfacet

 facet normal 0 0 0
  outer loop
  vertex 0.00340454374 0.0299873743 -0.000320141669
  vertex 0.0044426946 0.025511099 -0.000423211139
  vertex 0.00567304529 0.0297595933 -0.00240386277
  endloop
 endfacet

 facet normal 0 0 0
  outer loop
  vertex 0.00340454374 0.0299873743 -0.000320141669
  vertex 0.00567304529 0.0297595933 -0.00240386277
  vertex 0.00419844594 0.0321445093 -0.00166684715
  endloop
 endfacet

 facet normal 0 0 0
  outer loop
  vertex 0.00340454374 0.0299873743 -0.000320141669
  vertex 0.00419844594 0.0321445093 -0.00166684715
  vertex 0.00223940937 0.0333509333 -0.00199147826
  endloop
 endfacet

 facet normal 0 0 0
  outer loop
  vertex 0.00340454374 0.0299873743 -0.000320141669
  vertex 0.00223940937 0.0333509333 -0.00199147826
  vertex 0.000323860586 0.0308047626 -0.000507877674
  endloop
 endfacet

 facet normal 0 0 0
  outer loop
  vertex 0.00340454374 0.0299873743 -0.000320141669
  vertex 0.000323860586 0.0308047626 -0.000507877674
  vertex -0.00294293859 0.0222311579 0.000572399702
  endloop
 endfacet

endsolid AssimpScene
