solid AssimpScene
 facet normal 0 0 0
  outer loop
  vertex 0.0455171913 0.0194318313 0.0139567079
  vertex 0.0352842212 0.0202072337 0.0152198309
  vertex 0.0118984403 -0.000420753786 0.0159211736
  endloop
 endfacet

 facet normal 0 0 0
  outer loop
  vertex 0.0455171913 0.0194318313 0.0139567079
  vertex 0.0118984403 -0.000420753786 0.0159211736
  vertex 0.0118019674 -0.0122279497 0.0145982346
  endloop
 endfacet

 facet normal 0 0 0
  outer loop
  vertex 0.0455171913 0.0194318313 0.0139567079
  vertex 0.0118019674 -0.0122279497 0.0145982346
  vertex 0.02505132 -0.00180216995 0.0148950182
  endloop
 endfacet

 facet normal 0 0 0
  outer loop
  vertex 0.00810423587 -0.0162383169 0.0116206491
  vertex 0.00858521648 -0.0164918322 -0.00228807423
  vertex 0.0106232809 -0.0182578638 0.00480000023
  endloop
 endfacet

 facet normal 0 0 0
  outer loop
  vertex 0.0118419286 0.0259764437 0.011044669
  vertex 0.0117610013 0.0273390003 0.00387350959
  vertex -0.00281387661 0.000474199129 0.0112535544
  endloop
 endfacet

 facet normal 0 0 0
  outer loop
  vertex 0.0284963772 0.0304392092 -0.00482319761
  vertex 0.0322876424 0.0414367467 -0.00042268986
  vertex 0.0516965762 0.0284811966 -0.00302719837
  endloop
 endfacet

 facet normal 0 0 0
  outer loop
  vertex 0.0284963772 0.0304392092 -0.00482319761
  vertex 0.0516965762 0.0284811966 -0.00302719837
  vertex 0.0435280763 0.0211809501 -0.00492830481
  endloop
 endfacet

 facet normal 0 0 0
  outer loop
  vertex 0.0119717438 -0.00280140107 -0.00627145218
  vertex 0.0120794903 0.0179937296 -0.00523877284
  vertex 0.0284963772 0.0304392092 -0.00482319761
  endloop
 endfacet

 facet normal 0 0 0
  outer loop
  vertex 0.0119717438 -0.00280140107 -0.00627145218
  vertex 0.0284963772 0.0304392092 -0.00482319761
  vertex 0.0435280763 0.0211809501 -0.00492830481
  endloop
 endfacet

 facet normal 0 0 0
  outer loop
  vertex 0.0119717438 -0.00280140107 -0.00627145218
  vertex 0.0435280763 0.0211809501 -0.00492830481
  vertex 0.0332457609 0.00263201399 -0.00441952329
  endloop
 endfacet

 facet normal 0 0 0
  outer loop
  vertex 0.0119717438 -0.00280140107 -0.00627145218
  vertex 0.0332457609 0.00263201399 -0.00441952329
  vertex 0.0182224307 -0.00823222473 -0.00514324429
  endloop
 endfacet

 facet normal 0 0 0
  outer loop
  vertex 0.0119717438 -0.00280140107 -0.00627145218
  vertex -0.00259909499 -0.00117790815 -0.00165355322
  vertex 0.0120794903 0.0179937296 -0.00523877284
  endloop
 endfacet

 facet normal 0 0 0
  outer loop
  vertex 0.0546931438 0.0290764477 0.000194969369
  vertex 0.0516965762 0.0284811966 -0.00302719837
  vertex 0.0322876424 0.0414367467 -0.00042268986
  endloop
 endfacet

 facet normal 0 0 0
  outer loop
  vertex 0.0435280763 0.0211809501 -0.00492830481
  vertex 0.0516965762 0.0284811966 -0.00302719837
  vertex 0.0535106324 0.0273329131 -0.00213335361
  endloop
 endfacet

 facet normal 0 0 0
  outer loop
  vertex 0.0435280763 0.0211809501 -0.00492830481
  vertex 0.0535106324 0.0273329131 -0.00213335361
  vertex 0.0491879508 0.0198398381 -0.00266786991
  endloop
 endfacet

 facet normal 0 0 0
  outer loop
  vertex 0.0491879508 0.0198398381 -0.00266786991
  vertex 0.0443322808 0.00908982102 0.00185234193
  vertex 0.0354981869 6.74282928e-05 -0.00186981144
  endloop
 endfacet

 facet normal 0 0 0
  outer loop
  vertex 0.01099783 -0.0175377857 0.0100474656
  vertex 0.00810423587 -0.0162383169 0.0116206491
  vertex 0.0106232809 -0.0182578638 0.00480000023
  endloop
 endfacet

 facet normal 0 0 0
  outer loop
  vertex 0.0261176098 0.0351603888 0.0125303371
  vertex 0.0311852228 0.0416360125 0.0092028575
  vertex 0.0118419286 0.0259764437 0.011044669
  endloop
 endfacet

 facet normal 0 0 0
  outer loop
  vertex 0.0118019674 -0.0122279497 -0.00499823363
  vertex 0.00858521648 -0.0164918322 -0.00228807423
  vertex -0.00259909499 -0.00117790815 -0.00165355322
  endloop
 endfacet

 facet normal 0 0 0
  outer loop
  vertex 0.0118019674 -0.0122279497 -0.00499823363
  vertex -0.00259909499 -0.00117790815 -0.00165355322
  vertex 0.0119717438 -0.00280140107 -0.00627145218
  endloop
 endfacet

 facet normal 0 0 0
  outer loop
  vertex 0.0118019674 -0.0122279497 -0.00499823363
  vertex 0.0119717438 -0.00280140107 -0.00627145218
  vertex 0.0182224307 -0.00823222473 -0.00514324429
  endloop
 endfacet

 facet normal 0 0 0
  outer loop
  vertex 0.0118984403 -0.000420753786 0.0159211736
  vertex 0.0120794903 0.0179937296 0.0148387738
  vertex -0.00281387661 0.000474199129 0.0112535544
  endloop
 endfacet

 facet normal 0 0 0
  outer loop
  vertex 0.0118984403 -0.000420753786 0.0159211736
  vertex -0.00281387661 0.000474199129 0.0112535544
  vertex 0.0118019674 -0.0122279497 0.0145982346
  endloop
 endfacet

 facet normal 0 0 0
  outer loop
  vertex -0.00281387661 0.000474199129 0.0112535544
  vertex 0.0117610013 0.0273390003 0.00387350959
  vertex 0.0109127136 0.0256382581 -2.91403867e-05
  endloop
 endfacet

 facet normal 0 0 0
  outer loop
  vertex -0.00281387661 0.000474199129 0.0112535544
  vertex 0.0109127136 0.0256382581 -2.91403867e-05
  vertex -0.00268390123 0.00134040101 -0.00129999989
  endloop
 endfacet

 facet normal 0 0 0
  outer loop
  vertex -0.00268390123 0.00134040101 -0.00129999989
  vertex 0.0120794903 0.0179937296 -0.00523877284
  vertex -0.00259909499 -0.00117790815 -0.00165355322
  endloop
 endfacet

 facet normal 0 0 0
  outer loop
  vertex -0.00268390123 0.00134040101 -0.00129999989
  vertex -0.00259909499 -0.00117790815 -0.00165355322
  vertex -0.00281387661 0.000474199129 0.0112535544
  endloop
 endfacet

 facet normal 0 0 0
  outer loop
  vertex -0.000407728774 -0.005437769 0.010900001
  vertex 0.00810423587 -0.0162383169 0.0116206491
  vertex 0.0118019674 -0.0122279497 0.0145982346
  endloop
 endfacet

 facet normal 0 0 0
  outer loop
  vertex -0.000407728774 -0.005437769 0.010900001
  vertex 0.0118019674 -0.0122279497 0.0145982346
  vertex -0.00281387661 0.000474199129 0.0112535544
  endloop
 endfacet

 facet normal 0 0 0
  outer loop
  vertex -0.000407728774 -0.005437769 0.010900001
  vertex -0.00281387661 0.000474199129 0.0112535544
  vertex -0.00259909499 -0.00117790815 -0.00165355322
  endloop
 endfacet

 facet normal 0 0 0
  outer loop
  vertex 0.0233090855 -0.00908004679 -0.00334292976
  vertex 0.0118019674 -0.0122279497 -0.00499823363
  vertex 0.0182224307 -0.00823222473 -0.00514324429
  endloop
 endfacet

 facet normal 0 0 0
  outer loop
  vertex 0.0115292221 -0.0174372327 -0.000245850795
  vertex 0.0106232809 -0.0182578638 0.00480000023
  vertex 0.00858521648 -0.0164918322 -0.00228807423
  endloop
 endfacet

 facet normal 0 0 0
  outer loop
  vertex 0.0261301287 0.0351310037 -0.00295188068
  vertex 0.0322876424 0.0414367467 -0.00042268986
  vertex 0.0284963772 0.0304392092 -0.00482319761
  endloop
 endfacet

 facet normal 0 0 0
  outer loop
  vertex 0.0332457609 0.00263201399 -0.00441952329
  vertex 0.0354981869 6.74282928e-05 -0.00186981144
  vertex 0.0233090855 -0.00908004679 -0.00334292976
  endloop
 endfacet

 facet normal 0 0 0
  outer loop
  vertex 0.0332457609 0.00263201399 -0.00441952329
  vertex 0.0233090855 -0.00908004679 -0.00334292976
  vertex 0.0182224307 -0.00823222473 -0.00514324429
  endloop
 endfacet

 facet normal 0 0 0
  outer loop
  vertex 0.0332457609 0.00263201399 -0.00441952329
  vertex 0.0435280763 0.0211809501 -0.00492830481
  vertex 0.0491879508 0.0198398381 -0.00266786991
  endloop
 endfacet

 facet normal 0 0 0
  outer loop
  vertex 0.0332457609 0.00263201399 -0.00441952329
  vertex 0.0491879508 0.0198398381 -0.00266786991
  vertex 0.0354981869 6.74282928e-05 -0.00186981144
  endloop
 endfacet

 facet normal 0 0 0
  outer loop
  vertex 0.0305968504 -0.00637441082 0.00145816698
  vertex 0.0344966799 -0.00273960363 0.00805707928
  vertex 0.0242215954 -0.0115413284 0.00649490021
  endloop
 endfacet

 facet normal 0 0 0
  outer loop
  vertex 0.0305968504 -0.00637441082 0.00145816698
  vertex 0.0242215954 -0.0115413284 0.00649490021
  vertex 0.0176686533 -0.0154502653 0.00304039847
  endloop
 endfacet

 facet normal 0 0 0
  outer loop
  vertex 0.0305968504 -0.00637441082 0.00145816698
  vertex 0.0176686533 -0.0154502653 0.00304039847
  vertex 0.0218746699 -0.012435304 -0.000119986704
  endloop
 endfacet

 facet normal 0 0 0
  outer loop
  vertex 0.0305968504 -0.00637441082 0.00145816698
  vertex 0.0218746699 -0.012435304 -0.000119986704
  vertex 0.0233090855 -0.00908004679 -0.00334292976
  endloop
 endfacet

 facet normal 0 0 0
  outer loop
  vertex 0.0305968504 -0.00637441082 0.00145816698
  vertex 0.0233090855 -0.00908004679 -0.00334292976
  vertex 0.0354981869 6.74282928e-05 -0.00186981144
  endloop
 endfacet

 facet normal 0 0 0
  outer loop
  vertex 0.0305968504 -0.00637441082 0.00145816698
  vertex 0.0354981869 6.74282928e-05 -0.00186981144
  vertex 0.0443322808 0.00908982102 0.00185234193
  endloop
 endfacet

 facet normal 0 0 0
  outer loop
  vertex 0.0305968504 -0.00637441082 0.00145816698
  vertex 0.0443322808 0.00908982102 0.00185234193
  vertex 0.0422739498 0.0062731863 0.00782126561
  endloop
 endfacet

 facet normal 0 0 0
  outer loop
  vertex 0.0305968504 -0.00637441082 0.00145816698
  vertex 0.0422739498 0.0062731863 0.00782126561
  vertex 0.0344966799 -0.00273960363 0.00805707928
  endloop
 endfacet

 facet normal 0 0 0
  outer loop
  vertex 0.0217391476 0.0356524587 0.00359437102
  vertex 0.0117610013 0.0273390003 0.00387350959
  vertex 0.0118419286 0.0259764437 0.011044669
  endloop
 endfacet

 facet normal 0 0 0
  outer loop
  vertex 0.0217391476 0.0356524587 0.00359437102
  vertex 0.0118419286 0.0259764437 0.011044669
  vertex 0.0311852228 0.0416360125 0.0092028575
  endloop
 endfacet

 facet normal 0 0 0
  outer loop
  vertex 0.049188301 0.0198400766 0.012267652
  vertex 0.0503907986 0.0267881881 0.0133845499
  vertex 0.0455171913 0.0194318313 0.0139567079
  endloop
 endfacet

 facet normal 0 0 0
  outer loop
  vertex 0.049188301 0.0198400766 0.012267652
  vertex 0.0455171913 0.0194318313 0.0139567079
  vertex 0.03284977 -0.000594213721 0.0130419377
  endloop
 endfacet

 facet normal 0 0 0
  outer loop
  vertex 0.049188301 0.0198400766 0.012267652
  vertex 0.03284977 -0.000594213721 0.0130419377
  vertex 0.0415169895 0.00705698133 0.0110850474
  endloop
 endfacet

 facet normal 0 0 0
  outer loop
  vertex 0.049188301 0.0198400766 0.012267652
  vertex 0.0415169895 0.00705698133 0.0110850474
  vertex 0.0516418964 0.0202393811 0.00867344532
  endloop
 endfacet

 facet normal 0 0 0
  outer loop
  vertex 0.0550800338 0.0289464127 0.00792904012
  vertex 0.0551165007 0.0267875399 0.00826696027
  vertex 0.054896865 0.0268778 0.000396393472
  endloop
 endfacet

 facet normal 0 0 0
  outer loop
  vertex 0.0550800338 0.0289464127 0.00792904012
  vertex 0.054896865 0.0268778 0.000396393472
  vertex 0.0546931438 0.0290764477 0.000194969369
  endloop
 endfacet

 facet normal 0 0 0
  outer loop
  vertex 0.0535466596 0.0273240432 0.0116956066
  vertex 0.0532687418 0.0294195227 0.0113551021
  vertex 0.0503907986 0.0267881881 0.0133845499
  endloop
 endfacet

 facet normal 0 0 0
  outer loop
  vertex 0.0535466596 0.0273240432 0.0116956066
  vertex 0.0503907986 0.0267881881 0.0133845499
  vertex 0.049188301 0.0198400766 0.012267652
  endloop
 endfacet

 facet normal 0 0 0
  outer loop
  vertex 0.0535466596 0.0273240432 0.0116956066
  vertex 0.049188301 0.0198400766 0.012267652
  vertex 0.0516418964 0.0202393811 0.00867344532
  endloop
 endfacet

 facet normal 0 0 0
  outer loop
  vertex 0.0535466596 0.0273240432 0.0116956066
  vertex 0.0516418964 0.0202393811 0.00867344532
  vertex 0.0551165007 0.0267875399 0.00826696027
  endloop
 endfacet

 facet normal 0 0 0
  outer loop
  vertex 0.0535466596 0.0273240432 0.0116956066
  vertex 0.0551165007 0.0267875399 0.00826696027
  vertex 0.0550800338 0.0289464127 0.00792904012
  endloop
 endfacet

 facet normal 0 0 0
  outer loop
  vertex 0.0535466596 0.0273240432 0.0116956066
  vertex 0.0550800338 0.0289464127 0.00792904012
  vertex 0.0532687418 0.0294195227 0.0113551021
  endloop
 endfacet

 facet normal 0 0 0
  outer loop
  vertex 0.013233386 -0.0152698001 -0.00285048387
  vertex 0.0233090855 -0.00908004679 -0.00334292976
  vertex 0.0218746699 -0.012435304 -0.000119986704
  endloop
 endfacet

 facet normal 0 0 0
  outer loop
  vertex 0.013233386 -0.0152698001 -0.00285048387
  vertex 0.0218746699 -0.012435304 -0.000119986704
  vertex 0.0115292221 -0.0174372327 -0.000245850795
  endloop
 endfacet

 facet normal 0 0 0
  outer loop
  vertex 0.013233386 -0.0152698001 -0.00285048387
  vertex 0.0115292221 -0.0174372327 -0.000245850795
  vertex 0.00858521648 -0.0164918322 -0.00228807423
  endloop
 endfacet

 facet normal 0 0 0
  outer loop
  vertex 0.013233386 -0.0152698001 -0.00285048387
  vertex 0.00858521648 -0.0164918322 -0.00228807423
  vertex 0.0118019674 -0.0122279497 -0.00499823363
  endloop
 endfacet

 facet normal 0 0 0
  outer loop
  vertex 0.013233386 -0.0152698001 -0.00285048387
  vertex 0.0118019674 -0.0122279497 -0.00499823363
  vertex 0.0233090855 -0.00908004679 -0.00334292976
  endloop
 endfacet

 facet normal 0 0 0
  outer loop
  vertex 0.0118780956 0.0219250992 0.0139415907
  vertex 0.0120794903 0.0179937296 0.0148387738
  vertex 0.0285826176 0.0302928388 0.0144539215
  endloop
 endfacet

 facet normal 0 0 0
  outer loop
  vertex 0.0118780956 0.0219250992 0.0139415907
  vertex 0.0285826176 0.0302928388 0.0144539215
  vertex 0.0261176098 0.0351603888 0.0125303371
  endloop
 endfacet

 facet normal 0 0 0
  outer loop
  vertex 0.0118780956 0.0219250992 0.0139415907
  vertex 0.0261176098 0.0351603888 0.0125303371
  vertex 0.0118419286 0.0259764437 0.011044669
  endloop
 endfacet

 facet normal 0 0 0
  outer loop
  vertex 0.0118780956 0.0219250992 0.0139415907
  vertex 0.0118419286 0.0259764437 0.011044669
  vertex -0.00281387661 0.000474199129 0.0112535544
  endloop
 endfacet

 facet normal 0 0 0
  outer loop
  vertex 0.0118780956 0.0219250992 0.0139415907
  vertex -0.00281387661 0.000474199129 0.0112535544
  vertex 0.0120794903 0.0179937296 0.0148387738
  endloop
 endfacet

 facet normal 0 0 0
  outer loop
  vertex 0.0327438712 0.0412165746 0.0100999996
  vertex 0.0311852228 0.0416360125 0.0092028575
  vertex 0.0261176098 0.0351603888 0.0125303371
  endloop
 endfacet

 facet normal 0 0 0
  outer loop
  vertex 0.0327438712 0.0412165746 0.0100999996
  vertex 0.0261176098 0.0351603888 0.0125303371
  vertex 0.0285826176 0.0302928388 0.0144539215
  endloop
 endfacet

 facet normal 0 0 0
  outer loop
  vertex 0.0327438712 0.0412165746 0.0100999996
  vertex 0.0285826176 0.0302928388 0.0144539215
  vertex 0.0503907986 0.0267881881 0.0133845499
  endloop
 endfacet

 facet normal 0 0 0
  outer loop
  vertex 0.0327438712 0.0412165746 0.0100999996
  vertex 0.0503907986 0.0267881881 0.0133845499
  vertex 0.0532687418 0.0294195227 0.0113551021
  endloop
 endfacet

 facet normal 0 0 0
  outer loop
  vertex 0.0327438712 0.0412165746 0.0100999996
  vertex 0.0532687418 0.0294195227 0.0113551021
  vertex 0.0550800338 0.0289464127 0.00792904012
  endloop
 endfacet

 facet normal 0 0 0
  outer loop
  vertex 0.0327438712 0.0412165746 0.0100999996
  vertex 0.0550800338 0.0289464127 0.00792904012
  vertex 0.0546931438 0.0290764477 0.000194969369
  endloop
 endfacet

 facet normal 0 0 0
  outer loop
  vertex 0.0327438712 0.0412165746 0.0100999996
  vertex 0.0546931438 0.0290764477 0.000194969369
  vertex 0.0322876424 0.0414367467 -0.00042268986
  endloop
 endfacet

 facet normal 0 0 0
  outer loop
  vertex 0.0327438712 0.0412165746 0.0100999996
  vertex 0.0322876424 0.0414367467 -0.00042268986
  vertex 0.0311852228 0.0416360125 0.0092028575
  endloop
 endfacet

 facet normal 0 0 0
  outer loop
  vertex 0.0344966799 -0.00273960363 0.00805707928
  vertex 0.0415169895 0.00705698133 0.0110850474
  vertex 0.03284977 -0.000594213721 0.0130419377
  endloop
 endfacet

 facet normal 0 0 0
  outer loop
  vertex 0.0344966799 -0.00273960363 0.00805707928
  vertex 0.03284977 -0.000594213721 0.0130419377
  vertex 0.0280745756 -0.00705471169 0.0113994163
  endloop
 endfacet

 facet normal 0 0 0
  outer loop
  vertex 0.0280745756 -0.00705471169 0.0113994163
  vertex 0.03284977 -0.000594213721 0.0130419377
  vertex 0.0210676659 -0.00986159686 0.0134291267
  endloop
 endfacet

 facet normal 0 0 0
  outer loop
  vertex 0.0280745756 -0.00705471169 0.0113994163
  vertex 0.0210676659 -0.00986159686 0.0134291267
  vertex 0.0196017958 -0.0131149897 0.0111705558
  endloop
 endfacet

 facet normal 0 0 0
  outer loop
  vertex 0.0280745756 -0.00705471169 0.0113994163
  vertex 0.0196017958 -0.0131149897 0.0111705558
  vertex 0.0242215954 -0.0115413284 0.00649490021
  endloop
 endfacet

 facet normal 0 0 0
  outer loop
  vertex 0.0280745756 -0.00705471169 0.0113994163
  vertex 0.0242215954 -0.0115413284 0.00649490021
  vertex 0.0344966799 -0.00273960363 0.00805707928
  endloop
 endfacet

 facet normal 0 0 0
  outer loop
  vertex 0.0302858334 0.041491352 0.00230000005
  vertex 0.0217391476 0.0356524587 0.00359437102
  vertex 0.0311852228 0.0416360125 0.0092028575
  endloop
 endfacet

 facet normal 0 0 0
  outer loop
  vertex 0.0302858334 0.041491352 0.00230000005
  vertex 0.0311852228 0.0416360125 0.0092028575
  vertex 0.0322876424 0.0414367467 -0.00042268986
  endloop
 endfacet

 facet normal 0 0 0
  outer loop
  vertex 0.0352842212 0.0202072337 0.0152198309
  vertex 0.0285826176 0.0302928388 0.0144539215
  vertex 0.0120794903 0.0179937296 0.0148387738
  endloop
 endfacet

 facet normal 0 0 0
  outer loop
  vertex 0.0352842212 0.0202072337 0.0152198309
  vertex 0.0120794903 0.0179937296 0.0148387738
  vertex 0.0118984403 -0.000420753786 0.0159211736
  endloop
 endfacet

 facet normal 0 0 0
  outer loop
  vertex 0.0352842212 0.0202072337 0.0152198309
  vertex 0.0455171913 0.0194318313 0.0139567079
  vertex 0.0503907986 0.0267881881 0.0133845499
  endloop
 endfacet

 facet normal 0 0 0
  outer loop
  vertex 0.0352842212 0.0202072337 0.0152198309
  vertex 0.0503907986 0.0267881881 0.0133845499
  vertex 0.0285826176 0.0302928388 0.0144539215
  endloop
 endfacet

 facet normal 0 0 0
  outer loop
  vertex 0.02505132 -0.00180216995 0.0148950182
  vertex 0.0118019674 -0.0122279497 0.0145982346
  vertex 0.0210676659 -0.00986159686 0.0134291267
  endloop
 endfacet

 facet normal 0 0 0
  outer loop
  vertex 0.02505132 -0.00180216995 0.0148950182
  vertex 0.0210676659 -0.00986159686 0.0134291267
  vertex 0.03284977 -0.000594213721 0.0130419377
  endloop
 endfacet

 facet normal 0 0 0
  outer loop
  vertex 0.02505132 -0.00180216995 0.0148950182
  vertex 0.03284977 -0.000594213721 0.0130419377
  vertex 0.0455171913 0.0194318313 0.0139567079
  endloop
 endfacet

 facet normal 0 0 0
  outer loop
  vertex 0.011815046 -0.0151701374 0.0130600734
  vertex 0.0118019674 -0.0122279497 0.0145982346
  vertex 0.00810423587 -0.0162383169 0.0116206491
  endloop
 endfacet

 facet normal 0 0 0
  outer loop
  vertex 0.011815046 -0.0151701374 0.0130600734
  vertex 0.00810423587 -0.0162383169 0.0116206491
  vertex 0.01099783 -0.0175377857 0.0100474656
  endloop
 endfacet

 facet normal 0 0 0
  outer loop
  vertex 0.011815046 -0.0151701374 0.0130600734
  vertex 0.01099783 -0.0175377857 0.0100474656
  vertex 0.0196017958 -0.0131149897 0.0111705558
  endloop
 endfacet

 facet normal 0 0 0
  outer loop
  vertex 0.011815046 -0.0151701374 0.0130600734
  vertex 0.0196017958 -0.0131149897 0.0111705558
  vertex 0.0210676659 -0.00986159686 0.0134291267
  endloop
 endfacet

 facet normal 0 0 0
  outer loop
  vertex 0.011815046 -0.0151701374 0.0130600734
  vertex 0.0210676659 -0.00986159686 0.0134291267
  vertex 0.0118019674 -0.0122279497 0.0145982346
  endloop
 endfacet

 facet normal 0 0 0
  outer loop
  vertex 0.0535106324 0.0273329131 -0.00213335361
  vertex 0.054896865 0.0268778 0.000396393472
  vertex 0.0491879508 0.0198398381 -0.00266786991
  endloop
 endfacet

 facet normal 0 0 0
  outer loop
  vertex 0.0535106324 0.0273329131 -0.00213335361
  vertex 0.0516965762 0.0284811966 -0.00302719837
  vertex 0.0546931438 0.0290764477 0.000194969369
  endloop
 endfacet

 facet normal 0 0 0
  outer loop
  vertex 0.0535106324 0.0273329131 -0.00213335361
  vertex 0.0546931438 0.0290764477 0.000194969369
  vertex 0.054896865 0.0268778 0.000396393472
  endloop
 endfacet

 facet normal 0 0 0
  outer loop
  vertex 0.0220998991 0.0350061506 -0.000328505208
  vertex 0.0217391476 0.0356524587 0.00359437102
  vertex 0.0302858334 0.041491352 0.00230000005
  endloop
 endfacet

 facet normal 0 0 0
  outer loop
  vertex 0.0220998991 0.0350061506 -0.000328505208
  vertex 0.0302858334 0.041491352 0.00230000005
  vertex 0.0322876424 0.0414367467 -0.00042268986
  endloop
 endfacet

 facet normal 0 0 0
  outer loop
  vertex 0.0220998991 0.0350061506 -0.000328505208
  vertex 0.0322876424 0.0414367467 -0.00042268986
  vertex 0.0261301287 0.0351310037 -0.00295188068
  endloop
 endfacet

 facet normal 0 0 0
  outer loop
  vertex 0.0220998991 0.0350061506 -0.000328505208
  vertex 0.0261301287 0.0351310037 -0.00295188068
  vertex 0.0125647299 0.0258841291 -0.0022256067
  endloop
 endfacet

 facet normal 0 0 0
  outer loop
  vertex 0.0109127136 0.0256382581 -2.91403867e-05
  vertex 0.0125647299 0.0258841291 -0.0022256067
  vertex -0.00268390123 0.00134040101 -0.00129999989
  endloop
 endfacet

 facet normal 0 0 0
  outer loop
  vertex 0.0109127136 0.0256382581 -2.91403867e-05
  vertex 0.0117610013 0.0273390003 0.00387350959
  vertex 0.0217391476 0.0356524587 0.00359437102
  endloop
 endfacet

 facet normal 0 0 0
  outer loop
  vertex 0.0109127136 0.0256382581 -2.91403867e-05
  vertex 0.0217391476 0.0356524587 0.00359437102
  vertex 0.0220998991 0.0350061506 -0.000328505208
  endloop
 endfacet

 facet normal 0 0 0
  outer loop
  vertex 0.0109127136 0.0256382581 -2.91403867e-05
  vertex 0.0220998991 0.0350061506 -0.000328505208
  vertex 0.0125647299 0.0258841291 -0.0022256067
  endloop
 endfacet

 facet normal 0 0 0
  outer loop
  vertex 0.0443322808 0.00908982102 0.00185234193
  vertex 0.0491879508 0.0198398381 -0.00266786991
  vertex 0.054896865 0.0268778 0.000396393472
  endloop
 endfacet

 facet normal 0 0 0
  outer loop
  vertex 0.0443322808 0.00908982102 0.00185234193
  vertex 0.054896865 0.0268778 0.000396393472
  vertex 0.0520529449 0.0203073546 0.00336742215
  endloop
 endfacet

 facet normal 0 0 0
  outer loop
  vertex 0.0520529449 0.0203073546 0.00336742215
  vertex 0.054896865 0.0268778 0.000396393472
  vertex 0.0551165007 0.0267875399 0.00826696027
  endloop
 endfacet

 facet normal 0 0 0
  outer loop
  vertex 0.0520529449 0.0203073546 0.00336742215
  vertex 0.0551165007 0.0267875399 0.00826696027
  vertex 0.0516418964 0.0202393811 0.00867344532
  endloop
 endfacet

 facet normal 0 0 0
  outer loop
  vertex 0.000999025535 -0.00738460384 -0.00129999989
  vertex 0.00858521648 -0.0164918322 -0.00228807423
  vertex 0.00810423587 -0.0162383169 0.0116206491
  endloop
 endfacet

 facet normal 0 0 0
  outer loop
  vertex 0.000999025535 -0.00738460384 -0.00129999989
  vertex 0.00810423587 -0.0162383169 0.0116206491
  vertex -0.000407728774 -0.005437769 0.010900001
  endloop
 endfacet

 facet normal 0 0 0
  outer loop
  vertex 0.000999025535 -0.00738460384 -0.00129999989
  vertex -0.000407728774 -0.005437769 0.010900001
  vertex -0.00259909499 -0.00117790815 -0.00165355322
  endloop
 endfacet

 facet normal 0 0 0
  outer loop
  vertex 0.000999025535 -0.00738460384 -0.00129999989
  vertex -0.00259909499 -0.00117790815 -0.00165355322
  vertex 0.00858521648 -0.0164918322 -0.00228807423
  endloop
 endfacet

 facet normal 0 0 0
  outer loop
  vertex 0.0422739498 0.0062731863 0.00782126561
  vertex 0.0443322808 0.00908982102 0.00185234193
  vertex 0.0520529449 0.0203073546 0.00336742215
  endloop
 endfacet

 facet normal 0 0 0
  outer loop
  vertex 0.0422739498 0.0062731863 0.00782126561
  vertex 0.0520529449 0.0203073546 0.00336742215
  vertex 0.0516418964 0.0202393811 0.00867344532
  endloop
 endfacet

 facet normal 0 0 0
  outer loop
  vertex 0.0422739498 0.0062731863 0.00782126561
  vertex 0.0516418964 0.0202393811 0.00867344532
  vertex 0.0415169895 0.00705698133 0.0110850474
  endloop
 endfacet

 facet normal 0 0 0
  outer loop
  vertex 0.0422739498 0.0062731863 0.00782126561
  vertex 0.0415169895 0.00705698133 0.0110850474
  vertex 0.0344966799 -0.00273960363 0.00805707928
  endloop
 endfacet

 facet normal 0 0 0
  outer loop
  vertex 0.0118779764 0.0219261814 -0.00434091641
  vertex 0.0120794903 0.0179937296 -0.00523877284
  vertex -0.00268390123 0.00134040101 -0.00129999989
  endloop
 endfacet

 facet normal 0 0 0
  outer loop
  vertex 0.0118779764 0.0219261814 -0.00434091641
  vertex -0.00268390123 0.00134040101 -0.00129999989
  vertex 0.0125647299 0.0258841291 -0.0022256067
  endloop
 endfacet

 facet normal 0 0 0
  outer loop
  vertex 0.0118779764 0.0219261814 -0.00434091641
  vertex 0.0125647299 0.0258841291 -0.0022256067
  vertex 0.0261301287 0.0351310037 -0.00295188068
  endloop
 endfacet

 facet normal 0 0 0
  outer loop
  vertex 0.0118779764 0.0219261814 -0.00434091641
  vertex 0.0261301287 0.0351310037 -0.00295188068
  vertex 0.0284963772 0.0304392092 -0.00482319761
  endloop
 endfacet

 facet normal 0 0 0
  outer loop
  vertex 0.0118779764 0.0219261814 -0.00434091641
  vertex 0.0284963772 0.0304392092 -0.00482319761
  vertex 0.0120794903 0.0179937296 -0.00523877284
  endloop
 endfacet

 facet normal 0 0 0
  outer loop
  vertex 0.0176686533 -0.0154502653 0.00304039847
  vertex 0.0242215954 -0.0115413284 0.00649490021
  vertex 0.0196017958 -0.0131149897 0.0111705558
  endloop
 endfacet

 facet normal 0 0 0
  outer loop
  vertex 0.0176686533 -0.0154502653 0.00304039847
  vertex 0.0196017958 -0.0131149897 0.0111705558
  vertex 0.01099783 -0.0175377857 0.0100474656
  endloop
 endfacet

 facet normal 0 0 0
  outer loop
  vertex 0.0176686533 -0.0154502653 0.00304039847
  vertex 0.01099783 -0.0175377857 0.0100474656
  vertex 0.0106232809 -0.0182578638 0.00480000023
  endloop
 endfacet

 facet normal 0 0 0
  outer loop
  vertex 0.0176686533 -0.0154502653 0.00304039847
  vertex 0.0106232809 -0.0182578638 0.00480000023
  vertex 0.0115292221 -0.0174372327 -0.000245850795
  endloop
 endfacet

 facet normal 0 0 0
  outer loop
  vertex 0.0176686533 -0.0154502653 0.00304039847
  vertex 0.0115292221 -0.0174372327 -0.000245850795
  vertex 0.0218746699 -0.012435304 -0.000119986704
  endloop
 endfacet

endsolid AssimpScene
