solid AssimpScene
 facet normal 0 0 0
  outer loop
  vertex 0.0160538368 0.00864394382 0.0172716789
  vertex 0.00511437561 0.00218126387 0.0177401025
  vertex 0.000938354584 -0.00541865779 0.0179675296
  endloop
 endfacet

 facet normal 0 0 0
  outer loop
  vertex 0.0160538368 0.00864394382 0.0172716789
  vertex 0.000938354584 -0.00541865779 0.0179675296
  vertex 0.0069072647 -0.0104034645 0.0175904743
  endloop
 endfacet

 facet normal 0 0 0
  outer loop
  vertex 0.0160538368 0.00864394382 0.0172716789
  vertex 0.0069072647 -0.0104034645 0.0175904743
  vertex 0.0175246876 -0.00128239056 0.0173259098
  endloop
 endfacet

 facet normal 0 0 0
  outer loop
  vertex -0.00652710581 -0.0104690557 0.0158999972
  vertex -0.00702949427 -0.00461589918 0.0159000009
  vertex -0.00705538923 -0.00861574709 0.000100000099
  endloop
 endfacet

 facet normal 0 0 0
  outer loop
  vertex 0.00955495983 -0.0169621073 0.00356995338
  vertex -0.000522892398 -0.0157251898 0.000112965536
  vertex 0.00803014729 -0.0102479113 -0.0015069542
  endloop
 endfacet

 facet normal 0 0 0
  outer loop
  vertex 0.00955495983 -0.0169621073 0.00356995338
  vertex 0.0101818554 -0.017538432 0.00800000131
  vertex -0.000522892398 -0.0157251898 0.000112965536
  endloop
 endfacet

 facet normal 0 0 0
  outer loop
  vertex 0.00956088584 -0.0169669352 0.0124193942
  vertex 0.0138210692 -0.0135456948 0.0129630603
  vertex 0.0069072647 -0.0104034645 0.0175904743
  endloop
 endfacet

 facet normal 0 0 0
  outer loop
  vertex 0.0217542965 -0.00216292986 0.0155781722
  vertex 0.0069072647 -0.0104034645 0.0175904743
  vertex 0.0138210692 -0.0135456948 0.0129630603
  endloop
 endfacet

 facet normal 0 0 0
  outer loop
  vertex 0.0217542965 -0.00216292986 0.0155781722
  vertex 0.0138210692 -0.0135456948 0.0129630603
  vertex 0.024028277 -0.00300674071 0.0110950982
  endloop
 endfacet

 facet normal 0 0 0
  outer loop
  vertex 0.0210499149 -0.00185129384 -0.000186015284
  vertex 0.0252705999 0.00415737787 0.00143766589
  vertex 0.0237666667 -0.00298624928 0.00373699958
  endloop
 endfacet

 facet normal 0 0 0
  outer loop
  vertex 0.0210499149 -0.00185129384 -0.000186015284
  vertex 0.0237666667 -0.00298624928 0.00373699958
  vertex 0.0155867077 -0.0122895669 0.00341400807
  endloop
 endfacet

 facet normal 0 0 0
  outer loop
  vertex 0.0210499149 -0.00185129384 -0.000186015284
  vertex 0.0155867077 -0.0122895669 0.00341400807
  vertex 0.00955495983 -0.0169621073 0.00356995338
  endloop
 endfacet

 facet normal 0 0 0
  outer loop
  vertex 0.0210499149 -0.00185129384 -0.000186015284
  vertex 0.00955495983 -0.0169621073 0.00356995338
  vertex 0.00803014729 -0.0102479113 -0.0015069542
  endloop
 endfacet

 facet normal 0 0 0
  outer loop
  vertex -0.0044538104 -0.0135813477 0.000100001176
  vertex -0.000522892398 -0.0157251898 0.000112965536
  vertex -0.00223938772 -0.0151218744 0.0158999972
  endloop
 endfacet

 facet normal 0 0 0
  outer loop
  vertex -0.0044538104 -0.0135813477 0.000100001176
  vertex -0.00223938772 -0.0151218744 0.0158999972
  vertex -0.00652710581 -0.0104690557 0.0158999972
  endloop
 endfacet

 facet normal 0 0 0
  outer loop
  vertex -0.0044538104 -0.0135813477 0.000100001176
  vertex -0.00652710581 -0.0104690557 0.0158999972
  vertex -0.00705538923 -0.00861574709 0.000100000099
  endloop
 endfacet

 facet normal 0 0 0
  outer loop
  vertex 0.0268059671 0.00362272142 0.00629979931
  vertex 0.024028277 -0.00300674071 0.0110950982
  vertex 0.0237666667 -0.00298624928 0.00373699958
  endloop
 endfacet

 facet normal 0 0 0
  outer loop
  vertex 0.0268059671 0.00362272142 0.00629979931
  vertex 0.0237666667 -0.00298624928 0.00373699958
  vertex 0.0252705999 0.00415737787 0.00143766589
  endloop
 endfacet

 facet normal 0 0 0
  outer loop
  vertex 0.0260577444 0.00387769379 0.0131475506
  vertex 0.024028277 -0.00300674071 0.0110950982
  vertex 0.0268059671 0.00362272142 0.00629979931
  endloop
 endfacet

 facet normal 0 0 0
  outer loop
  vertex 0.0260577444 0.00387769379 0.0131475506
  vertex 0.0268059671 0.00362272142 0.00629979931
  vertex 0.0262787435 0.00694528362 0.0108078727
  endloop
 endfacet

 facet normal 0 0 0
  outer loop
  vertex 0.0260577444 0.00387769379 0.0131475506
  vertex 0.023321541 0.00508333603 0.0160386786
  vertex 0.0217542965 -0.00216292986 0.0155781722
  endloop
 endfacet

 facet normal 0 0 0
  outer loop
  vertex 0.0260577444 0.00387769379 0.0131475506
  vertex 0.0217542965 -0.00216292986 0.0155781722
  vertex 0.024028277 -0.00300674071 0.0110950982
  endloop
 endfacet

 facet normal 0 0 0
  outer loop
  vertex -0.00702949427 -0.00461589918 0.0159000009
  vertex -0.00199035229 0.00694053061 0.0136271445
  vertex -0.00142796419 0.00829736236 0.00445022853
  endloop
 endfacet

 facet normal 0 0 0
  outer loop
  vertex -0.00702949427 -0.00461589918 0.0159000009
  vertex -0.00142796419 0.00829736236 0.00445022853
  vertex -0.00681693386 -0.00358940545 0.000100001045
  endloop
 endfacet

 facet normal 0 0 0
  outer loop
  vertex -0.00681693386 -0.00358940545 0.000100001045
  vertex -0.00142796419 0.00829736236 0.00445022853
  vertex -0.00330893742 0.00264579314 -0.000110581088
  endloop
 endfacet

 facet normal 0 0 0
  outer loop
  vertex -0.00681693386 -0.00358940545 0.000100001045
  vertex -0.00705538923 -0.00861574709 0.000100000099
  vertex -0.00702949427 -0.00461589918 0.0159000009
  endloop
 endfacet

 facet normal 0 0 0
  outer loop
  vertex 0.026072979 0.00702612894 0.00422688806
  vertex 0.0252705999 0.00415737787 0.00143766589
  vertex 0.0186787006 0.0163421743 0.000408168533
  endloop
 endfacet

 facet normal 0 0 0
  outer loop
  vertex 0.026072979 0.00702612894 0.00422688806
  vertex 0.0262787435 0.00694528362 0.0108078727
  vertex 0.0268059671 0.00362272142 0.00629979931
  endloop
 endfacet

 facet normal 0 0 0
  outer loop
  vertex 0.026072979 0.00702612894 0.00422688806
  vertex 0.0268059671 0.00362272142 0.00629979931
  vertex 0.0252705999 0.00415737787 0.00143766589
  endloop
 endfacet

 facet normal 0 0 0
  outer loop
  vertex -0.00318214903 0.0017570809 0.0164767299
  vertex 0.00511437561 0.00218126387 0.0177401025
  vertex 0.0152190672 0.0181517713 0.0153585048
  endloop
 endfacet

 facet normal 0 0 0
  outer loop
  vertex -0.00318214903 0.0017570809 0.0164767299
  vertex -0.00199035229 0.00694053061 0.0136271445
  vertex -0.00702949427 -0.00461589918 0.0159000009
  endloop
 endfacet

 facet normal 0 0 0
  outer loop
  vertex 0.00803014729 -0.0102479113 -0.0015069542
  vertex -0.000522892398 -0.0157251898 0.000112965536
  vertex -0.0044538104 -0.0135813477 0.000100001176
  endloop
 endfacet

 facet normal 0 0 0
  outer loop
  vertex 0.00803014729 -0.0102479113 -0.0015069542
  vertex -0.0044538104 -0.0135813477 0.000100001176
  vertex 0.000779032125 -0.00521899248 -0.00195112184
  endloop
 endfacet

 facet normal 0 0 0
  outer loop
  vertex 0.000779032125 -0.00521899248 -0.00195112184
  vertex -0.0044538104 -0.0135813477 0.000100001176
  vertex -0.00705538923 -0.00861574709 0.000100000099
  endloop
 endfacet

 facet normal 0 0 0
  outer loop
  vertex 0.000779032125 -0.00521899248 -0.00195112184
  vertex -0.00705538923 -0.00861574709 0.000100000099
  vertex -0.00681693386 -0.00358940545 0.000100001045
  endloop
 endfacet

 facet normal 0 0 0
  outer loop
  vertex 0.000779032125 -0.00521899248 -0.00195112184
  vertex -0.00681693386 -0.00358940545 0.000100001045
  vertex -0.00330893742 0.00264579314 -0.000110581088
  endloop
 endfacet

 facet normal 0 0 0
  outer loop
  vertex 0.000779032125 -0.00521899248 -0.00195112184
  vertex -0.00330893742 0.00264579314 -0.000110581088
  vertex 0.0106628118 0.0135890022 -0.000290337368
  endloop
 endfacet

 facet normal 0 0 0
  outer loop
  vertex 0.000779032125 -0.00521899248 -0.00195112184
  vertex 0.0106628118 0.0135890022 -0.000290337368
  vertex 0.016006235 0.00867693126 -0.0013527869
  endloop
 endfacet

 facet normal 0 0 0
  outer loop
  vertex 0.000779032125 -0.00521899248 -0.00195112184
  vertex 0.016006235 0.00867693126 -0.0013527869
  vertex 0.0219100825 0.00547792856 -0.000690918532
  endloop
 endfacet

 facet normal 0 0 0
  outer loop
  vertex 0.000779032125 -0.00521899248 -0.00195112184
  vertex 0.0219100825 0.00547792856 -0.000690918532
  vertex 0.00803014729 -0.0102479113 -0.0015069542
  endloop
 endfacet

 facet normal 0 0 0
  outer loop
  vertex 0.0219100825 0.00547792856 -0.000690918532
  vertex 0.0252705999 0.00415737787 0.00143766589
  vertex 0.0210499149 -0.00185129384 -0.000186015284
  endloop
 endfacet

 facet normal 0 0 0
  outer loop
  vertex 0.0219100825 0.00547792856 -0.000690918532
  vertex 0.0210499149 -0.00185129384 -0.000186015284
  vertex 0.00803014729 -0.0102479113 -0.0015069542
  endloop
 endfacet

 facet normal 0 0 0
  outer loop
  vertex 0.0219100825 0.00547792856 -0.000690918532
  vertex 0.016006235 0.00867693126 -0.0013527869
  vertex 0.0186787006 0.0163421743 0.000408168533
  endloop
 endfacet

 facet normal 0 0 0
  outer loop
  vertex 0.0219100825 0.00547792856 -0.000690918532
  vertex 0.0186787006 0.0163421743 0.000408168533
  vertex 0.0252705999 0.00415737787 0.00143766589
  endloop
 endfacet

 facet normal 0 0 0
  outer loop
  vertex 0.0162571277 -0.0128194159 0.00799999759
  vertex 0.024028277 -0.00300674071 0.0110950982
  vertex 0.0138210692 -0.0135456948 0.0129630603
  endloop
 endfacet

 facet normal 0 0 0
  outer loop
  vertex 0.0162571277 -0.0128194159 0.00799999759
  vertex 0.0138210692 -0.0135456948 0.0129630603
  vertex 0.00956088584 -0.0169669352 0.0124193942
  endloop
 endfacet

 facet normal 0 0 0
  outer loop
  vertex 0.0162571277 -0.0128194159 0.00799999759
  vertex 0.00956088584 -0.0169669352 0.0124193942
  vertex 0.0101818554 -0.017538432 0.00800000131
  endloop
 endfacet

 facet normal 0 0 0
  outer loop
  vertex 0.0162571277 -0.0128194159 0.00799999759
  vertex 0.0101818554 -0.017538432 0.00800000131
  vertex 0.00955495983 -0.0169621073 0.00356995338
  endloop
 endfacet

 facet normal 0 0 0
  outer loop
  vertex 0.0162571277 -0.0128194159 0.00799999759
  vertex 0.00955495983 -0.0169621073 0.00356995338
  vertex 0.0155867077 -0.0122895669 0.00341400807
  endloop
 endfacet

 facet normal 0 0 0
  outer loop
  vertex 0.0162571277 -0.0128194159 0.00799999759
  vertex 0.0155867077 -0.0122895669 0.00341400807
  vertex 0.0237666667 -0.00298624928 0.00373699958
  endloop
 endfacet

 facet normal 0 0 0
  outer loop
  vertex 0.0162571277 -0.0128194159 0.00799999759
  vertex 0.0237666667 -0.00298624928 0.00373699958
  vertex 0.024028277 -0.00300674071 0.0110950982
  endloop
 endfacet

 facet normal 0 0 0
  outer loop
  vertex 0.00900481455 0.0157508943 0.00166195794
  vertex 0.0106628118 0.0135890022 -0.000290337368
  vertex -0.00330893742 0.00264579314 -0.000110581088
  endloop
 endfacet

 facet normal 0 0 0
  outer loop
  vertex 0.00900481455 0.0157508943 0.00166195794
  vertex -0.00330893742 0.00264579314 -0.000110581088
  vertex -0.00142796419 0.00829736236 0.00445022853
  endloop
 endfacet

 facet normal 0 0 0
  outer loop
  vertex 0.0157260429 0.0179498345 0.000453087501
  vertex 0.0186787006 0.0163421743 0.000408168533
  vertex 0.016006235 0.00867693126 -0.0013527869
  endloop
 endfacet

 facet normal 0 0 0
  outer loop
  vertex 0.0157260429 0.0179498345 0.000453087501
  vertex 0.016006235 0.00867693126 -0.0013527869
  vertex 0.0106628118 0.0135890022 -0.000290337368
  endloop
 endfacet

 facet normal 0 0 0
  outer loop
  vertex 0.0157260429 0.0179498345 0.000453087501
  vertex 0.0106628118 0.0135890022 -0.000290337368
  vertex 0.00900481455 0.0157508943 0.00166195794
  endloop
 endfacet

 facet normal 0 0 0
  outer loop
  vertex 0.0157260429 0.0179498345 0.000453087501
  vertex 0.00900481455 0.0157508943 0.00166195794
  vertex 0.0146339387 0.019571295 0.00270357961
  endloop
 endfacet

 facet normal 0 0 0
  outer loop
  vertex 0.0160538368 0.00864394382 0.0172716789
  vertex 0.0152190672 0.0181517713 0.0153585048
  vertex 0.00511437561 0.00218126387 0.0177401025
  endloop
 endfacet

 facet normal 0 0 0
  outer loop
  vertex 0.0160538368 0.00864394382 0.0172716789
  vertex 0.023321541 0.00508333603 0.0160386786
  vertex 0.0178485569 0.018238388 0.0149670718
  endloop
 endfacet

 facet normal 0 0 0
  outer loop
  vertex 0.0160538368 0.00864394382 0.0172716789
  vertex 0.0178485569 0.018238388 0.0149670718
  vertex 0.0152190672 0.0181517713 0.0153585048
  endloop
 endfacet

 facet normal 0 0 0
  outer loop
  vertex 0.0178485569 0.018238388 0.0149670718
  vertex 0.0262787435 0.00694528362 0.0108078727
  vertex 0.026072979 0.00702612894 0.00422688806
  endloop
 endfacet

 facet normal 0 0 0
  outer loop
  vertex 0.0178485569 0.018238388 0.0149670718
  vertex 0.026072979 0.00702612894 0.00422688806
  vertex 0.0176093094 0.0184625946 0.00110216718
  endloop
 endfacet

 facet normal 0 0 0
  outer loop
  vertex 0.0176093094 0.0184625946 0.00110216718
  vertex 0.026072979 0.00702612894 0.00422688806
  vertex 0.0186787006 0.0163421743 0.000408168533
  endloop
 endfacet

 facet normal 0 0 0
  outer loop
  vertex 0.0176093094 0.0184625946 0.00110216718
  vertex 0.0186787006 0.0163421743 0.000408168533
  vertex 0.0157260429 0.0179498345 0.000453087501
  endloop
 endfacet

 facet normal 0 0 0
  outer loop
  vertex 0.0176093094 0.0184625946 0.00110216718
  vertex 0.0157260429 0.0179498345 0.000453087501
  vertex 0.0146339387 0.019571295 0.00270357961
  endloop
 endfacet

 facet normal 0 0 0
  outer loop
  vertex 0.000938354584 -0.00541865779 0.0179675296
  vertex 0.00511437561 0.00218126387 0.0177401025
  vertex -0.00318214903 0.0017570809 0.0164767299
  endloop
 endfacet

 facet normal 0 0 0
  outer loop
  vertex 0.000938354584 -0.00541865779 0.0179675296
  vertex -0.00318214903 0.0017570809 0.0164767299
  vertex -0.00702949427 -0.00461589918 0.0159000009
  endloop
 endfacet

 facet normal 0 0 0
  outer loop
  vertex 0.000938354584 -0.00541865779 0.0179675296
  vertex -0.00702949427 -0.00461589918 0.0159000009
  vertex -0.00652710581 -0.0104690557 0.0158999972
  endloop
 endfacet

 facet normal 0 0 0
  outer loop
  vertex 0.000938354584 -0.00541865779 0.0179675296
  vertex -0.00652710581 -0.0104690557 0.0158999972
  vertex -0.00223938772 -0.0151218744 0.0158999972
  endloop
 endfacet

 facet normal 0 0 0
  outer loop
  vertex 0.000938354584 -0.00541865779 0.0179675296
  vertex -0.00223938772 -0.0151218744 0.0158999972
  vertex 0.0069072647 -0.0104034645 0.0175904743
  endloop
 endfacet

 facet normal 0 0 0
  outer loop
  vertex 0.0249612052 0.00702138944 0.0141732134
  vertex 0.023321541 0.00508333603 0.0160386786
  vertex 0.0260577444 0.00387769379 0.0131475506
  endloop
 endfacet

 facet normal 0 0 0
  outer loop
  vertex 0.0249612052 0.00702138944 0.0141732134
  vertex 0.0260577444 0.00387769379 0.0131475506
  vertex 0.0262787435 0.00694528362 0.0108078727
  endloop
 endfacet

 facet normal 0 0 0
  outer loop
  vertex 0.0249612052 0.00702138944 0.0141732134
  vertex 0.0262787435 0.00694528362 0.0108078727
  vertex 0.0178485569 0.018238388 0.0149670718
  endloop
 endfacet

 facet normal 0 0 0
  outer loop
  vertex 0.0249612052 0.00702138944 0.0141732134
  vertex 0.0178485569 0.018238388 0.0149670718
  vertex 0.023321541 0.00508333603 0.0160386786
  endloop
 endfacet

 facet normal 0 0 0
  outer loop
  vertex 0.00143799966 -0.0160176568 0.0156439412
  vertex -0.00223938772 -0.0151218744 0.0158999972
  vertex -0.000522892398 -0.0157251898 0.000112965536
  endloop
 endfacet

 facet normal 0 0 0
  outer loop
  vertex 0.00143799966 -0.0160176568 0.0156439412
  vertex -0.000522892398 -0.0157251898 0.000112965536
  vertex 0.0101818554 -0.017538432 0.00800000131
  endloop
 endfacet

 facet normal 0 0 0
  outer loop
  vertex 0.00143799966 -0.0160176568 0.0156439412
  vertex 0.0101818554 -0.017538432 0.00800000131
  vertex 0.00956088584 -0.0169669352 0.0124193942
  endloop
 endfacet

 facet normal 0 0 0
  outer loop
  vertex 0.00143799966 -0.0160176568 0.0156439412
  vertex 0.00956088584 -0.0169669352 0.0124193942
  vertex 0.0069072647 -0.0104034645 0.0175904743
  endloop
 endfacet

 facet normal 0 0 0
  outer loop
  vertex 0.00143799966 -0.0160176568 0.0156439412
  vertex 0.0069072647 -0.0104034645 0.0175904743
  vertex -0.00223938772 -0.0151218744 0.0158999972
  endloop
 endfacet

 facet normal 0 0 0
  outer loop
  vertex 0.0175246876 -0.00128239056 0.0173259098
  vertex 0.0069072647 -0.0104034645 0.0175904743
  vertex 0.0217542965 -0.00216292986 0.0155781722
  endloop
 endfacet

 facet normal 0 0 0
  outer loop
  vertex 0.0175246876 -0.00128239056 0.0173259098
  vertex 0.0217542965 -0.00216292986 0.0155781722
  vertex 0.023321541 0.00508333603 0.0160386786
  endloop
 endfacet

 facet normal 0 0 0
  outer loop
  vertex 0.0175246876 -0.00128239056 0.0173259098
  vertex 0.023321541 0.00508333603 0.0160386786
  vertex 0.0160538368 0.00864394382 0.0172716789
  endloop
 endfacet

 facet normal 0 0 0
  outer loop
  vertex 0.00833645742 0.0167256873 0.00477966806
  vertex 0.0146339387 0.019571295 0.00270357961
  vertex 0.00900481455 0.0157508943 0.00166195794
  endloop
 endfacet

 facet normal 0 0 0
  outer loop
  vertex 0.00833645742 0.0167256873 0.00477966806
  vertex 0.00900481455 0.0157508943 0.00166195794
  vertex -0.00142796419 0.00829736236 0.00445022853
  endloop
 endfacet

 facet normal 0 0 0
  outer loop
  vertex 0.00833645742 0.0167256873 0.00477966806
  vertex 0.00833658036 0.0167256705 0.0111381365
  vertex 0.0134467492 0.0193722192 0.012572512
  endloop
 endfacet

 facet normal 0 0 0
  outer loop
  vertex 0.00833645742 0.0167256873 0.00477966806
  vertex 0.0134467492 0.0193722192 0.012572512
  vertex 0.0146339387 0.019571295 0.00270357961
  endloop
 endfacet

 facet normal 0 0 0
  outer loop
  vertex 0.00900481641 0.0157508943 0.0142565826
  vertex 0.0152190672 0.0181517713 0.0153585048
  vertex 0.016016053 0.0193713848 0.0142642222
  endloop
 endfacet

 facet normal 0 0 0
  outer loop
  vertex 0.00900481641 0.0157508943 0.0142565826
  vertex 0.016016053 0.0193713848 0.0142642222
  vertex 0.0134467492 0.0193722192 0.012572512
  endloop
 endfacet

 facet normal 0 0 0
  outer loop
  vertex 0.00900481641 0.0157508943 0.0142565826
  vertex 0.0134467492 0.0193722192 0.012572512
  vertex 0.00833658036 0.0167256705 0.0111381365
  endloop
 endfacet

 facet normal 0 0 0
  outer loop
  vertex 0.00900481641 0.0157508943 0.0142565826
  vertex 0.00833658036 0.0167256705 0.0111381365
  vertex 9.01667809e-05 0.0101901991 0.0101333819
  endloop
 endfacet

 facet normal 0 0 0
  outer loop
  vertex 0.00900481641 0.0157508943 0.0142565826
  vertex 9.01667809e-05 0.0101901991 0.0101333819
  vertex -0.00199035229 0.00694053061 0.0136271445
  endloop
 endfacet

 facet normal 0 0 0
  outer loop
  vertex 0.00900481641 0.0157508943 0.0142565826
  vertex -0.00199035229 0.00694053061 0.0136271445
  vertex -0.00318214903 0.0017570809 0.0164767299
  endloop
 endfacet

 facet normal 0 0 0
  outer loop
  vertex 0.00900481641 0.0157508943 0.0142565826
  vertex -0.00318214903 0.0017570809 0.0164767299
  vertex 0.0152190672 0.0181517713 0.0153585048
  endloop
 endfacet

 facet normal 0 0 0
  outer loop
  vertex 9.01667809e-05 0.0101901991 0.0101333819
  vertex 0.00833658036 0.0167256705 0.0111381365
  vertex 0.00833645742 0.0167256873 0.00477966806
  endloop
 endfacet

 facet normal 0 0 0
  outer loop
  vertex 9.01667809e-05 0.0101901991 0.0101333819
  vertex 0.00833645742 0.0167256873 0.00477966806
  vertex -0.00142796419 0.00829736236 0.00445022853
  endloop
 endfacet

 facet normal 0 0 0
  outer loop
  vertex 9.01667809e-05 0.0101901991 0.0101333819
  vertex -0.00142796419 0.00829736236 0.00445022853
  vertex -0.00199035229 0.00694053061 0.0136271445
  endloop
 endfacet

 facet normal 0 0 0
  outer loop
  vertex 0.016016053 0.0193713848 0.0142642222
  vertex 0.0178485569 0.018238388 0.0149670718
  vertex 0.0176093094 0.0184625946 0.00110216718
  endloop
 endfacet

 facet normal 0 0 0
  outer loop
  vertex 0.016016053 0.0193713848 0.0142642222
  vertex 0.0176093094 0.0184625946 0.00110216718
  vertex 0.0146339387 0.019571295 0.00270357961
  endloop
 endfacet

 facet normal 0 0 0
  outer loop
  vertex 0.016016053 0.0193713848 0.0142642222
  vertex 0.0146339387 0.019571295 0.00270357961
  vertex 0.0134467492 0.0193722192 0.012572512
  endloop
 endfacet

 facet normal 0 0 0
  outer loop
  vertex 0.016016053 0.0193713848 0.0142642222
  vertex 0.0152190672 0.0181517713 0.0153585048
  vertex 0.0178485569 0.018238388 0.0149670718
  endloop
 endfacet

endsolid AssimpScene
