solid AssimpScene
 facet normal 0 0 0
  outer loop
  vertex -0.000302040862 -0.0104386359 -0.0115
  vertex -0.00488849683 -0.00951626059 -0.00187857193
  vertex -0.00742919836 -0.00817280635 -0.0106368214
  endloop
 endfacet

 facet normal 0 0 0
  outer loop
  vertex -0.000302040862 -0.0104386359 -0.0115
  vertex -0.00742919836 -0.00817280635 -0.0106368214
  vertex -0.00458379043 -0.00894225389 -0.0134815043
  endloop
 endfacet

 facet normal 0 0 0
  outer loop
  vertex -0.00488849683 -0.00951626059 -0.00187857193
  vertex -0.000302040862 -0.0104386359 -0.0115
  vertex 0.00257075857 -0.00979910698 -0.000428993517
  endloop
 endfacet

 facet normal 0 0 0
  outer loop
  vertex 0.00596378092 0.0328716896 -0.000781134469
  vertex 0.0112658609 0.00969555136 -0.00700000022
  vertex 0.00596378092 0.0328716896 -0.0132188657
  endloop
 endfacet

 facet normal 0 0 0
  outer loop
  vertex -0.00794584583 0.0301733781 -0.00795006752
  vertex -0.00741361221 0.030164253 -0.00304552424
  vertex 0.00301269698 0.035874676 -0.00122534973
  endloop
 endfacet

 facet normal 0 0 0
  outer loop
  vertex -0.00794584583 0.0301733781 -0.00795006752
  vertex 0.00301269698 0.035874676 -0.00122534973
  vertex 0.00146847137 0.0355165377 -0.0131586352
  endloop
 endfacet

 facet normal 0 0 0
  outer loop
  vertex 0.00476100855 0.0353554524 -0.0126627479
  vertex 0.00596378092 0.0328716896 -0.0132188657
  vertex 0.00146847137 0.0355165377 -0.0131586352
  endloop
 endfacet

 facet normal 0 0 0
  outer loop
  vertex 0.00476100855 0.0353554524 -0.0126627479
  vertex 0.00146847137 0.0355165377 -0.0131586352
  vertex 0.00301269698 0.035874676 -0.00122534973
  endloop
 endfacet

 facet normal 0 0 0
  outer loop
  vertex -0.003104551 0.025591556 -0.0147031229
  vertex 0.00146847137 0.0355165377 -0.0131586352
  vertex 0.00596378092 0.0328716896 -0.0132188657
  endloop
 endfacet

 facet normal 0 0 0
  outer loop
  vertex -0.003104551 0.025591556 -0.0147031229
  vertex -0.00720602972 0.028404871 -0.0129225189
  vertex 0.00146847137 0.0355165377 -0.0131586352
  endloop
 endfacet

 facet normal 0 0 0
  outer loop
  vertex 0.00505575677 -0.00504058693 0.000676644268
  vertex 0.0100513948 -0.0041951267 -0.00145732402
  vertex 0.00596378092 0.0328716896 -0.000781134469
  endloop
 endfacet

 facet normal 0 0 0
  outer loop
  vertex -0.00418523885 -0.0081190709 0.000117060947
  vertex -0.00488849683 -0.00951626059 -0.00187857193
  vertex 0.00257075857 -0.00979910698 -0.000428993517
  endloop
 endfacet

 facet normal 0 0 0
  outer loop
  vertex 0.000490499311 0.0341919288 -3.54165859e-05
  vertex -0.003104551 0.025591556 0.000703123631
  vertex 0.00505575677 -0.00504058693 0.000676644268
  endloop
 endfacet

 facet normal 0 0 0
  outer loop
  vertex 0.000490499311 0.0341919288 -3.54165859e-05
  vertex 0.00505575677 -0.00504058693 0.000676644268
  vertex 0.00596378092 0.0328716896 -0.000781134469
  endloop
 endfacet

 facet normal 0 0 0
  outer loop
  vertex 0.00632730871 -0.00775355473 2.8435823e-05
  vertex 0.0100513948 -0.0041951267 -0.00145732402
  vertex 0.00505575677 -0.00504058693 0.000676644268
  endloop
 endfacet

 facet normal 0 0 0
  outer loop
  vertex 0.00632730871 -0.00775355473 2.8435823e-05
  vertex 0.00257075857 -0.00979910698 -0.000428993517
  vertex 0.00736622699 -0.00825195108 -0.00250021019
  endloop
 endfacet

 facet normal 0 0 0
  outer loop
  vertex 0.00632730871 -0.00775355473 2.8435823e-05
  vertex 0.00736622699 -0.00825195108 -0.00250021019
  vertex 0.0100513948 -0.0041951267 -0.00145732402
  endloop
 endfacet

 facet normal 0 0 0
  outer loop
  vertex -0.00646653865 0.00268578995 -0.0138975624
  vertex -0.00720602972 0.028404871 -0.0129225189
  vertex -0.003104551 0.025591556 -0.0147031229
  endloop
 endfacet

 facet normal 0 0 0
  outer loop
  vertex -0.00646653865 0.00268578995 -0.0138975624
  vertex -0.003104551 0.025591556 -0.0147031229
  vertex 0.00146091799 -0.00774041796 -0.0147848884
  endloop
 endfacet

 facet normal 0 0 0
  outer loop
  vertex -0.00646653865 0.00268578995 -0.0138975624
  vertex 0.00146091799 -0.00774041796 -0.0147848884
  vertex -0.00458379043 -0.00894225389 -0.0134815043
  endloop
 endfacet

 facet normal 0 0 0
  outer loop
  vertex -0.00646653865 0.00268578995 -0.0138975624
  vertex -0.00458379043 -0.00894225389 -0.0134815043
  vertex -0.00768017117 -0.00631272653 -0.0118272649
  endloop
 endfacet

 facet normal 0 0 0
  outer loop
  vertex 0.0106959678 0.0096413102 -0.0105052479
  vertex 0.00596378092 0.0328716896 -0.0132188657
  vertex 0.0112658609 0.00969555136 -0.00700000022
  endloop
 endfacet

 facet normal 0 0 0
  outer loop
  vertex 0.0106959678 0.0096413102 -0.0105052479
  vertex 0.0100513948 -0.0041951267 -0.0125426762
  vertex 0.00596378092 0.0328716896 -0.0132188657
  endloop
 endfacet

 facet normal 0 0 0
  outer loop
  vertex 0.0106959678 0.0096413102 -0.00349475327
  vertex 0.0112658609 0.00969555136 -0.00700000022
  vertex 0.00596378092 0.0328716896 -0.000781134469
  endloop
 endfacet

 facet normal 0 0 0
  outer loop
  vertex 0.0106959678 0.0096413102 -0.00349475327
  vertex 0.00596378092 0.0328716896 -0.000781134469
  vertex 0.0100513948 -0.0041951267 -0.00145732402
  endloop
 endfacet

 facet normal 0 0 0
  outer loop
  vertex 0.00892315246 -0.00684078643 -0.0115
  vertex 0.0100513948 -0.0041951267 -0.0125426762
  vertex 0.0100513948 -0.0041951267 -0.00145732402
  endloop
 endfacet

 facet normal 0 0 0
  outer loop
  vertex 0.00892315246 -0.00684078643 -0.0115
  vertex 0.0100513948 -0.0041951267 -0.00145732402
  vertex 0.00736622699 -0.00825195108 -0.00250021019
  endloop
 endfacet

 facet normal 0 0 0
  outer loop
  vertex 0.00892315246 -0.00684078643 -0.0115
  vertex 0.00567794312 -0.00855990406 -0.0138012376
  vertex 0.0100513948 -0.0041951267 -0.0125426762
  endloop
 endfacet

 facet normal 0 0 0
  outer loop
  vertex 0.00524971029 0.0349517986 -0.00136643706
  vertex 0.00596378092 0.0328716896 -0.000781134469
  vertex 0.00596378092 0.0328716896 -0.0132188657
  endloop
 endfacet

 facet normal 0 0 0
  outer loop
  vertex 0.00524971029 0.0349517986 -0.00136643706
  vertex 0.00596378092 0.0328716896 -0.0132188657
  vertex 0.00476100855 0.0353554524 -0.0126627479
  endloop
 endfacet

 facet normal 0 0 0
  outer loop
  vertex 0.00524971029 0.0349517986 -0.00136643706
  vertex 0.00476100855 0.0353554524 -0.0126627479
  vertex 0.00301269698 0.035874676 -0.00122534973
  endloop
 endfacet

 facet normal 0 0 0
  outer loop
  vertex 0.00524971029 0.0349517986 -0.00136643706
  vertex 0.00301269698 0.035874676 -0.00122534973
  vertex 0.000490499311 0.0341919288 -3.54165859e-05
  endloop
 endfacet

 facet normal 0 0 0
  outer loop
  vertex 0.00524971029 0.0349517986 -0.00136643706
  vertex 0.000490499311 0.0341919288 -3.54165859e-05
  vertex 0.00596378092 0.0328716896 -0.000781134469
  endloop
 endfacet

 facet normal 0 0 0
  outer loop
  vertex -0.00741361221 0.030164253 -0.00304552424
  vertex -0.00761065632 0.0283225533 -0.00151373923
  vertex 0.000490499311 0.0341919288 -3.54165859e-05
  endloop
 endfacet

 facet normal 0 0 0
  outer loop
  vertex -0.00741361221 0.030164253 -0.00304552424
  vertex 0.000490499311 0.0341919288 -3.54165859e-05
  vertex 0.00301269698 0.035874676 -0.00122534973
  endloop
 endfacet

 facet normal 0 0 0
  outer loop
  vertex 0.00108933274 -0.00969767664 -0.013866405
  vertex -0.000302040862 -0.0104386359 -0.0115
  vertex -0.00458379043 -0.00894225389 -0.0134815043
  endloop
 endfacet

 facet normal 0 0 0
  outer loop
  vertex 0.00108933274 -0.00969767664 -0.013866405
  vertex -0.00458379043 -0.00894225389 -0.0134815043
  vertex 0.00146091799 -0.00774041796 -0.0147848884
  endloop
 endfacet

 facet normal 0 0 0
  outer loop
  vertex 0.00108933274 -0.00969767664 -0.013866405
  vertex 0.00146091799 -0.00774041796 -0.0147848884
  vertex 0.00567794312 -0.00855990406 -0.0138012376
  endloop
 endfacet

 facet normal 0 0 0
  outer loop
  vertex 0.011631378 0.00392280007 -0.00700000022
  vertex 0.0100513948 -0.0041951267 -0.0125426762
  vertex 0.0106959678 0.0096413102 -0.0105052479
  endloop
 endfacet

 facet normal 0 0 0
  outer loop
  vertex 0.011631378 0.00392280007 -0.00700000022
  vertex 0.0106959678 0.0096413102 -0.0105052479
  vertex 0.0112658609 0.00969555136 -0.00700000022
  endloop
 endfacet

 facet normal 0 0 0
  outer loop
  vertex 0.011631378 0.00392280007 -0.00700000022
  vertex 0.0112658609 0.00969555136 -0.00700000022
  vertex 0.0106959678 0.0096413102 -0.00349475327
  endloop
 endfacet

 facet normal 0 0 0
  outer loop
  vertex 0.011631378 0.00392280007 -0.00700000022
  vertex 0.0106959678 0.0096413102 -0.00349475327
  vertex 0.0100513948 -0.0041951267 -0.00145732402
  endloop
 endfacet

 facet normal 0 0 0
  outer loop
  vertex 0.011631378 0.00392280007 -0.00700000022
  vertex 0.0100513948 -0.0041951267 -0.00145732402
  vertex 0.0100513948 -0.0041951267 -0.0125426762
  endloop
 endfacet

 facet normal 0 0 0
  outer loop
  vertex 0.00652234489 -0.00444831559 -0.0143977813
  vertex 0.0100513948 -0.0041951267 -0.0125426762
  vertex 0.00567794312 -0.00855990406 -0.0138012376
  endloop
 endfacet

 facet normal 0 0 0
  outer loop
  vertex 0.00652234489 -0.00444831559 -0.0143977813
  vertex 0.00567794312 -0.00855990406 -0.0138012376
  vertex 0.00146091799 -0.00774041796 -0.0147848884
  endloop
 endfacet

 facet normal 0 0 0
  outer loop
  vertex 0.00652234489 -0.00444831559 -0.0143977813
  vertex 0.00146091799 -0.00774041796 -0.0147848884
  vertex -0.003104551 0.025591556 -0.0147031229
  endloop
 endfacet

 facet normal 0 0 0
  outer loop
  vertex 0.00652234489 -0.00444831559 -0.0143977813
  vertex -0.003104551 0.025591556 -0.0147031229
  vertex 0.00596378092 0.0328716896 -0.0132188657
  endloop
 endfacet

 facet normal 0 0 0
  outer loop
  vertex 0.00652234489 -0.00444831559 -0.0143977813
  vertex 0.00596378092 0.0328716896 -0.0132188657
  vertex 0.0100513948 -0.0041951267 -0.0125426762
  endloop
 endfacet

 facet normal 0 0 0
  outer loop
  vertex -0.00742919836 -0.00817280635 -0.0106368214
  vertex -0.00488849683 -0.00951626059 -0.00187857193
  vertex -0.00843176804 -0.007419792 -0.0061028148
  endloop
 endfacet

 facet normal 0 0 0
  outer loop
  vertex -0.00742919836 -0.00817280635 -0.0106368214
  vertex -0.00843176804 -0.007419792 -0.0061028148
  vertex -0.00768017117 -0.00631272653 -0.0118272649
  endloop
 endfacet

 facet normal 0 0 0
  outer loop
  vertex -0.00742919836 -0.00817280635 -0.0106368214
  vertex -0.00768017117 -0.00631272653 -0.0118272649
  vertex -0.00458379043 -0.00894225389 -0.0134815043
  endloop
 endfacet

 facet normal 0 0 0
  outer loop
  vertex -0.0090313945 0.00162960624 -0.0104730828
  vertex -0.00946171768 0.00145243295 -0.00598816993
  vertex -0.0093154246 0.0267020557 -0.00772175286
  endloop
 endfacet

 facet normal 0 0 0
  outer loop
  vertex -0.0090313945 0.00162960624 -0.0104730828
  vertex -0.00768017117 -0.00631272653 -0.0118272649
  vertex -0.00843176804 -0.007419792 -0.0061028148
  endloop
 endfacet

 facet normal 0 0 0
  outer loop
  vertex -0.0090313945 0.00162960624 -0.0104730828
  vertex -0.00843176804 -0.007419792 -0.0061028148
  vertex -0.00946171768 0.00145243295 -0.00598816993
  endloop
 endfacet

 facet normal 0 0 0
  outer loop
  vertex -0.00868947059 0.00177295425 -0.00262799417
  vertex -0.00946171768 0.00145243295 -0.00598816993
  vertex -0.00843176804 -0.007419792 -0.0061028148
  endloop
 endfacet

 facet normal 0 0 0
  outer loop
  vertex -0.00718039414 -0.00800381135 -0.00246465486
  vertex -0.00686453748 -0.00566429365 -0.00103621534
  vertex -0.00868947059 0.00177295425 -0.00262799417
  endloop
 endfacet

 facet normal 0 0 0
  outer loop
  vertex -0.00718039414 -0.00800381135 -0.00246465486
  vertex -0.00868947059 0.00177295425 -0.00262799417
  vertex -0.00843176804 -0.007419792 -0.0061028148
  endloop
 endfacet

 facet normal 0 0 0
  outer loop
  vertex -0.00718039414 -0.00800381135 -0.00246465486
  vertex -0.00843176804 -0.007419792 -0.0061028148
  vertex -0.00488849683 -0.00951626059 -0.00187857193
  endloop
 endfacet

 facet normal 0 0 0
  outer loop
  vertex -0.00718039414 -0.00800381135 -0.00246465486
  vertex -0.00488849683 -0.00951626059 -0.00187857193
  vertex -0.00418523885 -0.0081190709 0.000117060947
  endloop
 endfacet

 facet normal 0 0 0
  outer loop
  vertex -0.00718039414 -0.00800381135 -0.00246465486
  vertex -0.00418523885 -0.0081190709 0.000117060947
  vertex -0.00686453748 -0.00566429365 -0.00103621534
  endloop
 endfacet

 facet normal 0 0 0
  outer loop
  vertex -0.00668252772 0.0260604657 -0.000199445305
  vertex -0.00686453748 -0.00566429365 -0.00103621534
  vertex -0.00418523885 -0.0081190709 0.000117060947
  endloop
 endfacet

 facet normal 0 0 0
  outer loop
  vertex -0.00668252772 0.0260604657 -0.000199445305
  vertex -0.00418523885 -0.0081190709 0.000117060947
  vertex -0.003104551 0.025591556 0.000703123631
  endloop
 endfacet

 facet normal 0 0 0
  outer loop
  vertex -0.00668252772 0.0260604657 -0.000199445305
  vertex -0.003104551 0.025591556 0.000703123631
  vertex 0.000490499311 0.0341919288 -3.54165859e-05
  endloop
 endfacet

 facet normal 0 0 0
  outer loop
  vertex -0.00668252772 0.0260604657 -0.000199445305
  vertex 0.000490499311 0.0341919288 -3.54165859e-05
  vertex -0.00761065632 0.0283225533 -0.00151373923
  endloop
 endfacet

 facet normal 0 0 0
  outer loop
  vertex -0.00668252772 0.0260604657 -0.000199445305
  vertex -0.00868947059 0.00177295425 -0.00262799417
  vertex -0.00686453748 -0.00566429365 -0.00103621534
  endloop
 endfacet

 facet normal 0 0 0
  outer loop
  vertex -0.00700579025 0.0301647875 -0.0117905661
  vertex -0.00794584583 0.0301733781 -0.00795006752
  vertex 0.00146847137 0.0355165377 -0.0131586352
  endloop
 endfacet

 facet normal 0 0 0
  outer loop
  vertex -0.00700579025 0.0301647875 -0.0117905661
  vertex 0.00146847137 0.0355165377 -0.0131586352
  vertex -0.00720602972 0.028404871 -0.0129225189
  endloop
 endfacet

 facet normal 0 0 0
  outer loop
  vertex 0.00436086953 -0.00978238415 -0.0115
  vertex -0.000302040862 -0.0104386359 -0.0115
  vertex 0.00108933274 -0.00969767664 -0.013866405
  endloop
 endfacet

 facet normal 0 0 0
  outer loop
  vertex 0.00436086953 -0.00978238415 -0.0115
  vertex 0.00108933274 -0.00969767664 -0.013866405
  vertex 0.00567794312 -0.00855990406 -0.0138012376
  endloop
 endfacet

 facet normal 0 0 0
  outer loop
  vertex 0.00436086953 -0.00978238415 -0.0115
  vertex 0.00567794312 -0.00855990406 -0.0138012376
  vertex 0.00892315246 -0.00684078643 -0.0115
  endloop
 endfacet

 facet normal 0 0 0
  outer loop
  vertex 0.00436086953 -0.00978238415 -0.0115
  vertex 0.00892315246 -0.00684078643 -0.0115
  vertex 0.00736622699 -0.00825195108 -0.00250021019
  endloop
 endfacet

 facet normal 0 0 0
  outer loop
  vertex 0.00436086953 -0.00978238415 -0.0115
  vertex 0.00736622699 -0.00825195108 -0.00250021019
  vertex 0.00257075857 -0.00979910698 -0.000428993517
  endloop
 endfacet

 facet normal 0 0 0
  outer loop
  vertex 0.00436086953 -0.00978238415 -0.0115
  vertex 0.00257075857 -0.00979910698 -0.000428993517
  vertex -0.000302040862 -0.0104386359 -0.0115
  endloop
 endfacet

 facet normal 0 0 0
  outer loop
  vertex -0.00891613308 0.0266003534 -0.00341136102
  vertex -0.0093154246 0.0267020557 -0.00772175286
  vertex -0.00946171768 0.00145243295 -0.00598816993
  endloop
 endfacet

 facet normal 0 0 0
  outer loop
  vertex -0.00891613308 0.0266003534 -0.00341136102
  vertex -0.00946171768 0.00145243295 -0.00598816993
  vertex -0.00868947059 0.00177295425 -0.00262799417
  endloop
 endfacet

 facet normal 0 0 0
  outer loop
  vertex -0.00891613308 0.0266003534 -0.00341136102
  vertex -0.00868947059 0.00177295425 -0.00262799417
  vertex -0.00668252772 0.0260604657 -0.000199445305
  endloop
 endfacet

 facet normal 0 0 0
  outer loop
  vertex -0.00891613308 0.0266003534 -0.00341136102
  vertex -0.00668252772 0.0260604657 -0.000199445305
  vertex -0.00761065632 0.0283225533 -0.00151373923
  endloop
 endfacet

 facet normal 0 0 0
  outer loop
  vertex -0.00891613308 0.0266003534 -0.00341136102
  vertex -0.00761065632 0.0283225533 -0.00151373923
  vertex -0.00741361221 0.030164253 -0.00304552424
  endloop
 endfacet

 facet normal 0 0 0
  outer loop
  vertex -0.00741361221 0.030164253 -0.00304552424
  vertex -0.00794584583 0.0301733781 -0.00795006752
  vertex -0.0093154246 0.0267020557 -0.00772175286
  endloop
 endfacet

 facet normal 0 0 0
  outer loop
  vertex -0.00741361221 0.030164253 -0.00304552424
  vertex -0.0093154246 0.0267020557 -0.00772175286
  vertex -0.00891613308 0.0266003534 -0.00341136102
  endloop
 endfacet

 facet normal 0 0 0
  outer loop
  vertex -0.00868776347 0.026542414 -0.0112802098
  vertex -0.00720602972 0.028404871 -0.0129225189
  vertex -0.00646653865 0.00268578995 -0.0138975624
  endloop
 endfacet

 facet normal 0 0 0
  outer loop
  vertex -0.00868776347 0.026542414 -0.0112802098
  vertex -0.00646653865 0.00268578995 -0.0138975624
  vertex -0.00768017117 -0.00631272653 -0.0118272649
  endloop
 endfacet

 facet normal 0 0 0
  outer loop
  vertex -0.00868776347 0.026542414 -0.0112802098
  vertex -0.00768017117 -0.00631272653 -0.0118272649
  vertex -0.0090313945 0.00162960624 -0.0104730828
  endloop
 endfacet

 facet normal 0 0 0
  outer loop
  vertex -0.00868776347 0.026542414 -0.0112802098
  vertex -0.0090313945 0.00162960624 -0.0104730828
  vertex -0.0093154246 0.0267020557 -0.00772175286
  endloop
 endfacet

 facet normal 0 0 0
  outer loop
  vertex -0.00868776347 0.026542414 -0.0112802098
  vertex -0.0093154246 0.0267020557 -0.00772175286
  vertex -0.00794584583 0.0301733781 -0.00795006752
  endloop
 endfacet

 facet normal 0 0 0
  outer loop
  vertex -0.00868776347 0.026542414 -0.0112802098
  vertex -0.00794584583 0.0301733781 -0.00795006752
  vertex -0.00700579025 0.0301647875 -0.0117905661
  endloop
 endfacet

 facet normal 0 0 0
  outer loop
  vertex -0.00868776347 0.026542414 -0.0112802098
  vertex -0.00700579025 0.0301647875 -0.0117905661
  vertex -0.00720602972 0.028404871 -0.0129225189
  endloop
 endfacet

 facet normal 0 0 0
  outer loop
  vertex 0.00227420125 -0.00834067259 0.000673837261
  vertex 0.00257075857 -0.00979910698 -0.000428993517
  vertex 0.00632730871 -0.00775355473 2.8435823e-05
  endloop
 endfacet

 facet normal 0 0 0
  outer loop
  vertex 0.00227420125 -0.00834067259 0.000673837261
  vertex 0.00632730871 -0.00775355473 2.8435823e-05
  vertex 0.00505575677 -0.00504058693 0.000676644268
  endloop
 endfacet

 facet normal 0 0 0
  outer loop
  vertex 0.00227420125 -0.00834067259 0.000673837261
  vertex 0.00505575677 -0.00504058693 0.000676644268
  vertex -0.003104551 0.025591556 0.000703123631
  endloop
 endfacet

 facet normal 0 0 0
  outer loop
  vertex 0.00227420125 -0.00834067259 0.000673837261
  vertex -0.003104551 0.025591556 0.000703123631
  vertex -0.00418523885 -0.0081190709 0.000117060947
  endloop
 endfacet

 facet normal 0 0 0
  outer loop
  vertex 0.00227420125 -0.00834067259 0.000673837261
  vertex -0.00418523885 -0.0081190709 0.000117060947
  vertex 0.00257075857 -0.00979910698 -0.000428993517
  endloop
 endfacet

endsolid AssimpScene
