solid AssimpScene
 facet normal 0 0 0
  outer loop
  vertex -0.00692947907 0.00194692297 0.00122202898
  vertex -0.00198100042 0.00561147789 0.00050192757
  vertex 0.00437411014 0.0325789377 -6.83981343e-05
  endloop
 endfacet

 facet normal 0 0 0
  outer loop
  vertex -0.00692947907 0.00194692297 0.00122202898
  vertex 0.00437411014 0.0325789377 -6.83981343e-05
  vertex 0.00325289671 0.0370441973 3.19951832e-05
  endloop
 endfacet

 facet normal 0 0 0
  outer loop
  vertex -0.00692947907 0.00194692297 0.00122202898
  vertex 0.00325289671 0.0370441973 3.19951832e-05
  vertex -0.0029584954 0.0291542709 0.000929649104
  endloop
 endfacet

 facet normal 0 0 0
  outer loop
  vertex -0.0110826865 0.000231166021 -0.0102925152
  vertex -0.00888164062 0.022571221 -0.0107195452
  vertex -0.0097318897 0.00535233319 -0.0121353529
  endloop
 endfacet

 facet normal 0 0 0
  outer loop
  vertex -0.0043816017 0.0046633794 -0.0131010078
  vertex 0.00301906932 0.0346011184 -0.012408481
  vertex 0.00299983099 -3.18191342e-05 -0.00920000114
  endloop
 endfacet

 facet normal 0 0 0
  outer loop
  vertex -0.000899243401 -0.00776853785 -0.00920000114
  vertex 0.00299983099 -3.18191342e-05 -0.00920000114
  vertex 0.0028277447 -0.0010019308 -0.00280000037
  endloop
 endfacet

 facet normal 0 0 0
  outer loop
  vertex -0.000899243401 -0.00776853785 -0.00920000114
  vertex -0.00376245799 -0.00903846882 -0.00280000037
  vertex -0.00394610735 -0.00871193316 -0.00949999969
  endloop
 endfacet

 facet normal 0 0 0
  outer loop
  vertex -0.000899243401 -0.00776853785 -0.00920000114
  vertex -0.0043816017 0.0046633794 -0.0131010078
  vertex 0.00299983099 -3.18191342e-05 -0.00920000114
  endloop
 endfacet

 facet normal 0 0 0
  outer loop
  vertex -0.0043816017 0.0046633794 -0.0131010078
  vertex -0.000899243401 -0.00776853785 -0.00920000114
  vertex -0.00394610735 -0.00871193316 -0.00949999969
  endloop
 endfacet

 facet normal 0 0 0
  outer loop
  vertex -0.0043816017 0.0046633794 -0.0131010078
  vertex -0.00394610735 -0.00871193316 -0.00949999969
  vertex -0.00840566494 0.000585360511 -0.0129184974
  endloop
 endfacet

 facet normal 0 0 0
  outer loop
  vertex -0.00840566494 0.000585360511 -0.0129184974
  vertex -0.0110826865 0.000231166021 -0.0102925152
  vertex -0.0097318897 0.00535233319 -0.0121353529
  endloop
 endfacet

 facet normal 0 0 0
  outer loop
  vertex -0.0076963054 -0.00638489472 -0.00846779253
  vertex -0.0110826865 0.000231166021 -0.0102925152
  vertex -0.00840566494 0.000585360511 -0.0129184974
  endloop
 endfacet

 facet normal 0 0 0
  outer loop
  vertex -0.0076963054 -0.00638489472 -0.00846779253
  vertex -0.00840566494 0.000585360511 -0.0129184974
  vertex -0.00394610735 -0.00871193316 -0.00949999969
  endloop
 endfacet

 facet normal 0 0 0
  outer loop
  vertex -0.00394610735 -0.00871193316 -0.00949999969
  vertex -0.00376245799 -0.00903846882 -0.00280000037
  vertex -0.0076963217 -0.00638487516 -0.00353220757
  endloop
 endfacet

 facet normal 0 0 0
  outer loop
  vertex -0.00394610735 -0.00871193316 -0.00949999969
  vertex -0.0076963217 -0.00638487516 -0.00353220757
  vertex -0.0076963054 -0.00638489472 -0.00846779253
  endloop
 endfacet

 facet normal 0 0 0
  outer loop
  vertex -0.00706005143 0.0214560814 -0.0128098167
  vertex -0.00840566494 0.000585360511 -0.0129184974
  vertex -0.0097318897 0.00535233319 -0.0121353529
  endloop
 endfacet

 facet normal 0 0 0
  outer loop
  vertex -0.00706005143 0.0214560814 -0.0128098167
  vertex -0.0097318897 0.00535233319 -0.0121353529
  vertex -0.00888164062 0.022571221 -0.0107195452
  endloop
 endfacet

 facet normal 0 0 0
  outer loop
  vertex -0.0102730207 0.0201685764 -0.00489102211
  vertex -0.00860327948 0.0203121211 2.01278035e-05
  vertex -0.00481119379 0.0306546558 -0.000958537159
  endloop
 endfacet

 facet normal 0 0 0
  outer loop
  vertex -0.0102730207 0.0201685764 -0.00489102211
  vertex -0.00481119379 0.0306546558 -0.000958537159
  vertex -0.00673791347 0.0286615621 -0.00440007169
  endloop
 endfacet

 facet normal 0 0 0
  outer loop
  vertex -0.0102730207 0.0201685764 -0.00489102211
  vertex -0.00673791347 0.0286615621 -0.00440007169
  vertex -0.00888164062 0.022571221 -0.0107195452
  endloop
 endfacet

 facet normal 0 0 0
  outer loop
  vertex -0.00888164062 0.022571221 -0.0107195452
  vertex -0.0110826865 0.000231166021 -0.0102925152
  vertex -0.0118032424 0.000730157772 -0.00600000005
  endloop
 endfacet

 facet normal 0 0 0
  outer loop
  vertex -0.00888164062 0.022571221 -0.0107195452
  vertex -0.0118032424 0.000730157772 -0.00600000005
  vertex -0.0102730207 0.0201685764 -0.00489102211
  endloop
 endfacet

 facet normal 0 0 0
  outer loop
  vertex -0.0102730207 0.0201685764 -0.00489102211
  vertex -0.0111551238 0.000405379978 -0.001698268
  vertex -0.00860327948 0.0203121211 2.01278035e-05
  endloop
 endfacet

 facet normal 0 0 0
  outer loop
  vertex -0.000899243401 -0.00776853785 -0.00280000037
  vertex -0.00376245799 -0.00903846882 -0.00280000037
  vertex -0.000899243401 -0.00776853785 -0.00920000114
  endloop
 endfacet

 facet normal 0 0 0
  outer loop
  vertex -0.000899243401 -0.00776853785 -0.00280000037
  vertex -0.000899243401 -0.00776853785 -0.00920000114
  vertex 0.0028277447 -0.0010019308 -0.00280000037
  endloop
 endfacet

 facet normal 0 0 0
  outer loop
  vertex -0.000899243401 -0.00776853785 -0.00280000037
  vertex -0.00692947907 0.00194692297 0.00122202898
  vertex -0.00376245799 -0.00903846882 -0.00280000037
  endloop
 endfacet

 facet normal 0 0 0
  outer loop
  vertex -0.00176584115 0.0375123322 -0.00503007602
  vertex 0.00243956991 0.0412586257 -0.00600000005
  vertex 0.00210625865 0.0401059464 -0.0107584372
  endloop
 endfacet

 facet normal 0 0 0
  outer loop
  vertex -0.00176584115 0.0375123322 -0.00503007602
  vertex 0.00210625865 0.0401059464 -0.0107584372
  vertex -0.0003379751 0.0377310775 -0.0115131848
  endloop
 endfacet

 facet normal 0 0 0
  outer loop
  vertex -0.00176584115 0.0375123322 -0.00503007602
  vertex -0.0003379751 0.0377310775 -0.0115131848
  vertex -0.00888164062 0.022571221 -0.0107195452
  endloop
 endfacet

 facet normal 0 0 0
  outer loop
  vertex -0.00176584115 0.0375123322 -0.00503007602
  vertex -0.00888164062 0.022571221 -0.0107195452
  vertex -0.00673791347 0.0286615621 -0.00440007169
  endloop
 endfacet

 facet normal 0 0 0
  outer loop
  vertex -0.00176584115 0.0375123322 -0.00503007602
  vertex 0.000152022913 0.0377928764 -0.000149738451
  vertex 0.002018556 0.0403751917 -0.00163331069
  endloop
 endfacet

 facet normal 0 0 0
  outer loop
  vertex -0.00176584115 0.0375123322 -0.00503007602
  vertex 0.002018556 0.0403751917 -0.00163331069
  vertex 0.00243956991 0.0412586257 -0.00600000005
  endloop
 endfacet

 facet normal 0 0 0
  outer loop
  vertex 0.00515486253 0.034386158 -0.0110587953
  vertex 0.00299983099 -3.18191342e-05 -0.00920000114
  vertex 0.00301906932 0.0346011184 -0.012408481
  endloop
 endfacet

 facet normal 0 0 0
  outer loop
  vertex 0.00552507071 0.0368590392 -0.00205205265
  vertex 0.00437411014 0.0325789377 -6.83981343e-05
  vertex 0.0028277447 -0.0010019308 -0.00280000037
  endloop
 endfacet

 facet normal 0 0 0
  outer loop
  vertex -0.00930817984 0.000463985401 0.000555705396
  vertex -0.00376245799 -0.00903846882 -0.00280000037
  vertex -0.00692947907 0.00194692297 0.00122202898
  endloop
 endfacet

 facet normal 0 0 0
  outer loop
  vertex -0.00930817984 0.000463985401 0.000555705396
  vertex -0.00692947907 0.00194692297 0.00122202898
  vertex -0.00860327948 0.0203121211 2.01278035e-05
  endloop
 endfacet

 facet normal 0 0 0
  outer loop
  vertex -0.00930817984 0.000463985401 0.000555705396
  vertex -0.00860327948 0.0203121211 2.01278035e-05
  vertex -0.0111551238 0.000405379978 -0.001698268
  endloop
 endfacet

 facet normal 0 0 0
  outer loop
  vertex -0.00930817984 0.000463985401 0.000555705396
  vertex -0.0111551238 0.000405379978 -0.001698268
  vertex -0.0076963217 -0.00638487516 -0.00353220757
  endloop
 endfacet

 facet normal 0 0 0
  outer loop
  vertex -0.00930817984 0.000463985401 0.000555705396
  vertex -0.0076963217 -0.00638487516 -0.00353220757
  vertex -0.00376245799 -0.00903846882 -0.00280000037
  endloop
 endfacet

 facet normal 0 0 0
  outer loop
  vertex 0.00426775869 0.0383846611 -0.0110425912
  vertex 0.00552312145 0.0383922756 -0.00833281316
  vertex 0.00515486253 0.034386158 -0.0110587953
  endloop
 endfacet

 facet normal 0 0 0
  outer loop
  vertex 0.00426775869 0.0383846611 -0.0110425912
  vertex 0.00515486253 0.034386158 -0.0110587953
  vertex 0.00301906932 0.0346011184 -0.012408481
  endloop
 endfacet

 facet normal 0 0 0
  outer loop
  vertex 0.00426775869 0.0383846611 -0.0110425912
  vertex 0.00301906932 0.0346011184 -0.012408481
  vertex 0.00210625865 0.0401059464 -0.0107584372
  endloop
 endfacet

 facet normal 0 0 0
  outer loop
  vertex -0.0029584954 0.0291542709 0.000929649104
  vertex -0.00860327948 0.0203121211 2.01278035e-05
  vertex -0.00692947907 0.00194692297 0.00122202898
  endloop
 endfacet

 facet normal 0 0 0
  outer loop
  vertex 0.00591193046 0.0321576707 -0.00685892534
  vertex 0.00552312145 0.0383922756 -0.00833281316
  vertex 0.00552507071 0.0368590392 -0.00205205265
  endloop
 endfacet

 facet normal 0 0 0
  outer loop
  vertex 0.00591193046 0.0321576707 -0.00685892534
  vertex 0.00552507071 0.0368590392 -0.00205205265
  vertex 0.0028277447 -0.0010019308 -0.00280000037
  endloop
 endfacet

 facet normal 0 0 0
  outer loop
  vertex 0.00591193046 0.0321576707 -0.00685892534
  vertex 0.0028277447 -0.0010019308 -0.00280000037
  vertex 0.00299983099 -3.18191342e-05 -0.00920000114
  endloop
 endfacet

 facet normal 0 0 0
  outer loop
  vertex 0.00591193046 0.0321576707 -0.00685892534
  vertex 0.00299983099 -3.18191342e-05 -0.00920000114
  vertex 0.00515486253 0.034386158 -0.0110587953
  endloop
 endfacet

 facet normal 0 0 0
  outer loop
  vertex 0.00591193046 0.0321576707 -0.00685892534
  vertex 0.00515486253 0.034386158 -0.0110587953
  vertex 0.00552312145 0.0383922756 -0.00833281316
  endloop
 endfacet

 facet normal 0 0 0
  outer loop
  vertex 0.00444870954 0.0401862971 -0.00466553262
  vertex 0.00243956991 0.0412586257 -0.00600000005
  vertex 0.002018556 0.0403751917 -0.00163331069
  endloop
 endfacet

 facet normal 0 0 0
  outer loop
  vertex 0.00444870954 0.0401862971 -0.00466553262
  vertex 0.002018556 0.0403751917 -0.00163331069
  vertex 0.00400532363 0.0392156392 -0.00131552888
  endloop
 endfacet

 facet normal 0 0 0
  outer loop
  vertex 0.00444870954 0.0401862971 -0.00466553262
  vertex 0.00400532363 0.0392156392 -0.00131552888
  vertex 0.00552507071 0.0368590392 -0.00205205265
  endloop
 endfacet

 facet normal 0 0 0
  outer loop
  vertex 0.00444870954 0.0401862971 -0.00466553262
  vertex 0.00552507071 0.0368590392 -0.00205205265
  vertex 0.00552312145 0.0383922756 -0.00833281316
  endloop
 endfacet

 facet normal 0 0 0
  outer loop
  vertex -0.00198100042 0.00561147789 0.00050192757
  vertex -0.00692947907 0.00194692297 0.00122202898
  vertex -0.000899243401 -0.00776853785 -0.00280000037
  endloop
 endfacet

 facet normal 0 0 0
  outer loop
  vertex -0.00198100042 0.00561147789 0.00050192757
  vertex -0.000899243401 -0.00776853785 -0.00280000037
  vertex 0.0028277447 -0.0010019308 -0.00280000037
  endloop
 endfacet

 facet normal 0 0 0
  outer loop
  vertex -0.00198100042 0.00561147789 0.00050192757
  vertex 0.0028277447 -0.0010019308 -0.00280000037
  vertex 0.00437411014 0.0325789377 -6.83981343e-05
  endloop
 endfacet

 facet normal 0 0 0
  outer loop
  vertex 0.0038971887 0.0404697396 -0.0084109623
  vertex 0.00552312145 0.0383922756 -0.00833281316
  vertex 0.00426775869 0.0383846611 -0.0110425912
  endloop
 endfacet

 facet normal 0 0 0
  outer loop
  vertex 0.0038971887 0.0404697396 -0.0084109623
  vertex 0.00426775869 0.0383846611 -0.0110425912
  vertex 0.00210625865 0.0401059464 -0.0107584372
  endloop
 endfacet

 facet normal 0 0 0
  outer loop
  vertex 0.0038971887 0.0404697396 -0.0084109623
  vertex 0.00210625865 0.0401059464 -0.0107584372
  vertex 0.00243956991 0.0412586257 -0.00600000005
  endloop
 endfacet

 facet normal 0 0 0
  outer loop
  vertex 0.0038971887 0.0404697396 -0.0084109623
  vertex 0.00243956991 0.0412586257 -0.00600000005
  vertex 0.00444870954 0.0401862971 -0.00466553262
  endloop
 endfacet

 facet normal 0 0 0
  outer loop
  vertex 0.0038971887 0.0404697396 -0.0084109623
  vertex 0.00444870954 0.0401862971 -0.00466553262
  vertex 0.00552312145 0.0383922756 -0.00833281316
  endloop
 endfacet

 facet normal 0 0 0
  outer loop
  vertex -0.00481119379 0.0306546558 -0.000958537159
  vertex 0.000152022913 0.0377928764 -0.000149738451
  vertex -0.00176584115 0.0375123322 -0.00503007602
  endloop
 endfacet

 facet normal 0 0 0
  outer loop
  vertex -0.00481119379 0.0306546558 -0.000958537159
  vertex -0.00176584115 0.0375123322 -0.00503007602
  vertex -0.00673791347 0.0286615621 -0.00440007169
  endloop
 endfacet

 facet normal 0 0 0
  outer loop
  vertex -0.00860327948 0.0203121211 2.01278035e-05
  vertex -0.0029584954 0.0291542709 0.000929649104
  vertex 0.000152022913 0.0377928764 -0.000149738451
  endloop
 endfacet

 facet normal 0 0 0
  outer loop
  vertex -0.00860327948 0.0203121211 2.01278035e-05
  vertex 0.000152022913 0.0377928764 -0.000149738451
  vertex -0.00481119379 0.0306546558 -0.000958537159
  endloop
 endfacet

 facet normal 0 0 0
  outer loop
  vertex -0.00132812175 0.0331107229 -0.0127480971
  vertex 0.00301906932 0.0346011184 -0.012408481
  vertex -0.0043816017 0.0046633794 -0.0131010078
  endloop
 endfacet

 facet normal 0 0 0
  outer loop
  vertex -0.00132812175 0.0331107229 -0.0127480971
  vertex -0.0043816017 0.0046633794 -0.0131010078
  vertex -0.00840566494 0.000585360511 -0.0129184974
  endloop
 endfacet

 facet normal 0 0 0
  outer loop
  vertex -0.00132812175 0.0331107229 -0.0127480971
  vertex -0.00840566494 0.000585360511 -0.0129184974
  vertex -0.00706005143 0.0214560814 -0.0128098167
  endloop
 endfacet

 facet normal 0 0 0
  outer loop
  vertex -0.00706005143 0.0214560814 -0.0128098167
  vertex -0.00888164062 0.022571221 -0.0107195452
  vertex -0.0003379751 0.0377310775 -0.0115131848
  endloop
 endfacet

 facet normal 0 0 0
  outer loop
  vertex -0.00706005143 0.0214560814 -0.0128098167
  vertex -0.0003379751 0.0377310775 -0.0115131848
  vertex -0.00132812175 0.0331107229 -0.0127480971
  endloop
 endfacet

 facet normal 0 0 0
  outer loop
  vertex -0.00132812175 0.0331107229 -0.0127480971
  vertex -0.0003379751 0.0377310775 -0.0115131848
  vertex 0.00210625865 0.0401059464 -0.0107584372
  endloop
 endfacet

 facet normal 0 0 0
  outer loop
  vertex -0.00132812175 0.0331107229 -0.0127480971
  vertex 0.00210625865 0.0401059464 -0.0107584372
  vertex 0.00301906932 0.0346011184 -0.012408481
  endloop
 endfacet

 facet normal 0 0 0
  outer loop
  vertex 0.00325289671 0.0370441973 3.19951832e-05
  vertex 0.00437411014 0.0325789377 -6.83981343e-05
  vertex 0.00552507071 0.0368590392 -0.00205205265
  endloop
 endfacet

 facet normal 0 0 0
  outer loop
  vertex 0.00325289671 0.0370441973 3.19951832e-05
  vertex 0.00552507071 0.0368590392 -0.00205205265
  vertex 0.00400532363 0.0392156392 -0.00131552888
  endloop
 endfacet

 facet normal 0 0 0
  outer loop
  vertex 0.00325289671 0.0370441973 3.19951832e-05
  vertex 0.00400532363 0.0392156392 -0.00131552888
  vertex 0.002018556 0.0403751917 -0.00163331069
  endloop
 endfacet

 facet normal 0 0 0
  outer loop
  vertex 0.00325289671 0.0370441973 3.19951832e-05
  vertex 0.002018556 0.0403751917 -0.00163331069
  vertex 0.000152022913 0.0377928764 -0.000149738451
  endloop
 endfacet

 facet normal 0 0 0
  outer loop
  vertex 0.00325289671 0.0370441973 3.19951832e-05
  vertex 0.000152022913 0.0377928764 -0.000149738451
  vertex -0.0029584954 0.0291542709 0.000929649104
  endloop
 endfacet

 facet normal 0 0 0
  outer loop
  vertex -0.0118032424 0.000730157772 -0.00600000005
  vertex -0.0111551238 0.000405379978 -0.001698268
  vertex -0.0102730207 0.0201685764 -0.00489102211
  endloop
 endfacet

 facet normal 0 0 0
  outer loop
  vertex -0.0118032424 0.000730157772 -0.00600000005
  vertex -0.0110826865 0.000231166021 -0.0102925152
  vertex -0.0076963054 -0.00638489472 -0.00846779253
  endloop
 endfacet

 facet normal 0 0 0
  outer loop
  vertex -0.0118032424 0.000730157772 -0.00600000005
  vertex -0.0076963054 -0.00638489472 -0.00846779253
  vertex -0.0076963217 -0.00638487516 -0.00353220757
  endloop
 endfacet

 facet normal 0 0 0
  outer loop
  vertex -0.0118032424 0.000730157772 -0.00600000005
  vertex -0.0076963217 -0.00638487516 -0.00353220757
  vertex -0.0111551238 0.000405379978 -0.001698268
  endloop
 endfacet

endsolid AssimpScene
