solid AssimpScene
 facet normal 0 0 0
  outer loop
  vertex 0.0151010808 0.0241241027 0.0112024518
  vertex 0.0170132741 0.0253562611 0.00679982454
  vertex 0.0148982788 0.0241612215 0.00278807967
  endloop
 endfacet

 facet normal 0 0 0
  outer loop
  vertex 0.0151010808 0.0241241027 0.0112024518
  vertex 0.0148982788 0.0241612215 0.00278807967
  vertex 0.0107250176 0.0217636283 0.00577012496
  endloop
 endfacet

 facet normal 0 0 0
  outer loop
  vertex 0.0165681355 0.0237057116 0.00149430288
  vertex 0.0171948317 0.018299615 -0.000786469434
  vertex 0.00984906591 0.0192888211 0.00120804529
  endloop
 endfacet

 facet normal 0 0 0
  outer loop
  vertex 0.0206409432 0.0241229106 0.0105439285
  vertex 0.0212650225 0.0237935185 0.00446897931
  vertex 0.0170132741 0.0253562611 0.00679982454
  endloop
 endfacet

 facet normal 0 0 0
  outer loop
  vertex 0.00591865089 0.0165453535 0.00772878295
  vertex -0.00287012686 0.000873144367 0.0024499998
  vertex -0.00299954135 -5.65111259e-05 0.0111497594
  endloop
 endfacet

 facet normal 0 0 0
  outer loop
  vertex 0.0199823044 0.0223356001 0.000669621164
  vertex 0.0171948317 0.018299615 -0.000786469434
  vertex 0.0165681355 0.0237057116 0.00149430288
  endloop
 endfacet

 facet normal 0 0 0
  outer loop
  vertex 0.0199823044 0.0223356001 0.000669621164
  vertex 0.0116418386 -0.00453177746 0.000169086998
  vertex 0.0171948317 0.018299615 -0.000786469434
  endloop
 endfacet

 facet normal 0 0 0
  outer loop
  vertex 0.0118186362 -0.00503230747 0.0129892416
  vertex 0.0138529884 -0.00135402521 0.0121496683
  vertex 0.0188833904 0.0207372736 0.0138441613
  endloop
 endfacet

 facet normal 0 0 0
  outer loop
  vertex 0.0118186362 -0.00503230747 0.0129892416
  vertex 0.0188833904 0.0207372736 0.0138441613
  vertex 0.00904618576 -0.00241575111 0.0147657478
  endloop
 endfacet

 facet normal 0 0 0
  outer loop
  vertex 0.0118186362 -0.00503230747 0.0129892416
  vertex 0.00904618576 -0.00241575111 0.0147657478
  vertex 0.00372440298 -0.00829468109 0.0111498712
  endloop
 endfacet

 facet normal 0 0 0
  outer loop
  vertex 0.0118186362 -0.00503230747 0.0129892416
  vertex 0.00372440298 -0.00829468109 0.0111498712
  vertex 0.0122677637 -0.00629102346 0.00948456582
  endloop
 endfacet

 facet normal 0 0 0
  outer loop
  vertex 0.013890354 -0.00409080647 0.00442531798
  vertex 0.0199823044 0.0223356001 0.000669621164
  vertex 0.0212650225 0.0237935185 0.00446897931
  endloop
 endfacet

 facet normal 0 0 0
  outer loop
  vertex 0.0151010808 0.0241241027 0.0112024518
  vertex 0.0114836264 0.020956926 0.0122188935
  vertex 0.0188833904 0.0207372736 0.0138441613
  endloop
 endfacet

 facet normal 0 0 0
  outer loop
  vertex 0.0151010808 0.0241241027 0.0112024518
  vertex 0.0188833904 0.0207372736 0.0138441613
  vertex 0.0206409432 0.0241229106 0.0105439285
  endloop
 endfacet

 facet normal 0 0 0
  outer loop
  vertex 0.0151010808 0.0241241027 0.0112024518
  vertex 0.0206409432 0.0241229106 0.0105439285
  vertex 0.0170132741 0.0253562611 0.00679982454
  endloop
 endfacet

 facet normal 0 0 0
  outer loop
  vertex 0.00878283102 -0.00273423572 -0.00110527955
  vertex 0.00563560333 0.00496943761 -0.0012045952
  vertex 0.0171948317 0.018299615 -0.000786469434
  endloop
 endfacet

 facet normal 0 0 0
  outer loop
  vertex 0.00878283102 -0.00273423572 -0.00110527955
  vertex 0.0171948317 0.018299615 -0.000786469434
  vertex 0.0116418386 -0.00453177746 0.000169086998
  endloop
 endfacet

 facet normal 0 0 0
  outer loop
  vertex 0.00878283102 -0.00273423572 -0.00110527955
  vertex 0.0116418386 -0.00453177746 0.000169086998
  vertex 0.00265734666 -0.00806067511 0.00245000003
  endloop
 endfacet

 facet normal 0 0 0
  outer loop
  vertex 0.0110689308 -0.00669086305 0.00324136834
  vertex 0.0122677637 -0.00629102346 0.00948456582
  vertex 0.00372440298 -0.00829468109 0.0111498712
  endloop
 endfacet

 facet normal 0 0 0
  outer loop
  vertex 0.0110689308 -0.00669086305 0.00324136834
  vertex 0.00372440298 -0.00829468109 0.0111498712
  vertex 0.00265734666 -0.00806067511 0.00245000003
  endloop
 endfacet

 facet normal 0 0 0
  outer loop
  vertex 0.0110689308 -0.00669086305 0.00324136834
  vertex 0.00265734666 -0.00806067511 0.00245000003
  vertex 0.0116418386 -0.00453177746 0.000169086998
  endloop
 endfacet

 facet normal 0 0 0
  outer loop
  vertex 0.0107250176 0.0217636283 0.00577012496
  vertex 0.00591865089 0.0165453535 0.00772878295
  vertex 0.0114836264 0.020956926 0.0122188935
  endloop
 endfacet

 facet normal 0 0 0
  outer loop
  vertex 0.0107250176 0.0217636283 0.00577012496
  vertex 0.0114836264 0.020956926 0.0122188935
  vertex 0.0151010808 0.0241241027 0.0112024518
  endloop
 endfacet

 facet normal 0 0 0
  outer loop
  vertex 0.00144735922 -0.00712873694 0.011149833
  vertex 0.00372440298 -0.00829468109 0.0111498712
  vertex 0.00904618576 -0.00241575111 0.0147657478
  endloop
 endfacet

 facet normal 0 0 0
  outer loop
  vertex 0.00144735922 -0.00712873694 0.011149833
  vertex 0.00904618576 -0.00241575111 0.0147657478
  vertex -0.00299954135 -5.65111259e-05 0.0111497594
  endloop
 endfacet

 facet normal 0 0 0
  outer loop
  vertex 0.00144735922 -0.00712873694 0.011149833
  vertex 0.00265734666 -0.00806067511 0.00245000003
  vertex 0.00372440298 -0.00829468109 0.0111498712
  endloop
 endfacet

 facet normal 0 0 0
  outer loop
  vertex -0.00239340798 -0.00180875743 0.00245000003
  vertex 0.00265734666 -0.00806067511 0.00245000003
  vertex 0.00144735922 -0.00712873694 0.011149833
  endloop
 endfacet

 facet normal 0 0 0
  outer loop
  vertex -0.00239340798 -0.00180875743 0.00245000003
  vertex 0.00144735922 -0.00712873694 0.011149833
  vertex -0.00299954135 -5.65111259e-05 0.0111497594
  endloop
 endfacet

 facet normal 0 0 0
  outer loop
  vertex -0.00239340798 -0.00180875743 0.00245000003
  vertex -0.00299954135 -5.65111259e-05 0.0111497594
  vertex -0.00287012686 0.000873144367 0.0024499998
  endloop
 endfacet

 facet normal 0 0 0
  outer loop
  vertex -0.00239340798 -0.00180875743 0.00245000003
  vertex -0.00287012686 0.000873144367 0.0024499998
  vertex 0.00563560333 0.00496943761 -0.0012045952
  endloop
 endfacet

 facet normal 0 0 0
  outer loop
  vertex -0.00239340798 -0.00180875743 0.00245000003
  vertex 0.00563560333 0.00496943761 -0.0012045952
  vertex 0.00878283102 -0.00273423572 -0.00110527955
  endloop
 endfacet

 facet normal 0 0 0
  outer loop
  vertex -0.00239340798 -0.00180875743 0.00245000003
  vertex 0.00878283102 -0.00273423572 -0.00110527955
  vertex 0.00265734666 -0.00806067511 0.00245000003
  endloop
 endfacet

 facet normal 0 0 0
  outer loop
  vertex 0.0204491168 0.0210285448 0.0121467477
  vertex 0.0134315919 -0.00535252504 0.00942557119
  vertex 0.013890354 -0.00409080647 0.00442531798
  endloop
 endfacet

 facet normal 0 0 0
  outer loop
  vertex 0.0204491168 0.0210285448 0.0121467477
  vertex 0.013890354 -0.00409080647 0.00442531798
  vertex 0.0212650225 0.0237935185 0.00446897931
  endloop
 endfacet

 facet normal 0 0 0
  outer loop
  vertex 0.0204491168 0.0210285448 0.0121467477
  vertex 0.0212650225 0.0237935185 0.00446897931
  vertex 0.0206409432 0.0241229106 0.0105439285
  endloop
 endfacet

 facet normal 0 0 0
  outer loop
  vertex 0.0204491168 0.0210285448 0.0121467477
  vertex 0.0206409432 0.0241229106 0.0105439285
  vertex 0.0188833904 0.0207372736 0.0138441613
  endloop
 endfacet

 facet normal 0 0 0
  outer loop
  vertex 0.0204491168 0.0210285448 0.0121467477
  vertex 0.0188833904 0.0207372736 0.0138441613
  vertex 0.0138529884 -0.00135402521 0.0121496683
  endloop
 endfacet

 facet normal 0 0 0
  outer loop
  vertex 0.00984906591 0.0192888211 0.00120804529
  vertex 0.0171948317 0.018299615 -0.000786469434
  vertex 0.00563560333 0.00496943761 -0.0012045952
  endloop
 endfacet

 facet normal 0 0 0
  outer loop
  vertex 0.00984906591 0.0192888211 0.00120804529
  vertex 0.00563560333 0.00496943761 -0.0012045952
  vertex 0.00336488523 0.00706508569 -0.000277417217
  endloop
 endfacet

 facet normal 0 0 0
  outer loop
  vertex 0.00336488523 0.00706508569 -0.000277417217
  vertex 0.00563560333 0.00496943761 -0.0012045952
  vertex -0.00287012686 0.000873144367 0.0024499998
  endloop
 endfacet

 facet normal 0 0 0
  outer loop
  vertex 0.00552812684 0.0140092224 0.0120614227
  vertex 0.0114836264 0.020956926 0.0122188935
  vertex 0.00591865089 0.0165453535 0.00772878295
  endloop
 endfacet

 facet normal 0 0 0
  outer loop
  vertex 0.00552812684 0.0140092224 0.0120614227
  vertex 0.00591865089 0.0165453535 0.00772878295
  vertex -0.00299954135 -5.65111259e-05 0.0111497594
  endloop
 endfacet

 facet normal 0 0 0
  outer loop
  vertex 0.00552812684 0.0140092224 0.0120614227
  vertex -0.00299954135 -5.65111259e-05 0.0111497594
  vertex 0.00300844037 0.00720098475 0.0136016393
  endloop
 endfacet

 facet normal 0 0 0
  outer loop
  vertex 0.00552812684 0.0140092224 0.0120614227
  vertex 0.00300844037 0.00720098475 0.0136016393
  vertex 0.0114836264 0.020956926 0.0122188935
  endloop
 endfacet

 facet normal 0 0 0
  outer loop
  vertex 0.0148982788 0.0241612215 0.00278807967
  vertex 0.0165681355 0.0237057116 0.00149430288
  vertex 0.00984906591 0.0192888211 0.00120804529
  endloop
 endfacet

 facet normal 0 0 0
  outer loop
  vertex 0.0148982788 0.0241612215 0.00278807967
  vertex 0.00984906591 0.0192888211 0.00120804529
  vertex 0.0107250176 0.0217636283 0.00577012496
  endloop
 endfacet

 facet normal 0 0 0
  outer loop
  vertex 0.00577506609 0.0048446022 0.014825739
  vertex 0.00300844037 0.00720098475 0.0136016393
  vertex -0.00299954135 -5.65111259e-05 0.0111497594
  endloop
 endfacet

 facet normal 0 0 0
  outer loop
  vertex 0.00577506609 0.0048446022 0.014825739
  vertex -0.00299954135 -5.65111259e-05 0.0111497594
  vertex 0.00904618576 -0.00241575111 0.0147657478
  endloop
 endfacet

 facet normal 0 0 0
  outer loop
  vertex 0.00577506609 0.0048446022 0.014825739
  vertex 0.00904618576 -0.00241575111 0.0147657478
  vertex 0.0188833904 0.0207372736 0.0138441613
  endloop
 endfacet

 facet normal 0 0 0
  outer loop
  vertex 0.0188833904 0.0207372736 0.0138441613
  vertex 0.0114836264 0.020956926 0.0122188935
  vertex 0.00300844037 0.00720098475 0.0136016393
  endloop
 endfacet

 facet normal 0 0 0
  outer loop
  vertex 0.0188833904 0.0207372736 0.0138441613
  vertex 0.00300844037 0.00720098475 0.0136016393
  vertex 0.00577506609 0.0048446022 0.014825739
  endloop
 endfacet

 facet normal 0 0 0
  outer loop
  vertex 0.00555416802 0.0154357767 0.00337951561
  vertex -0.00287012686 0.000873144367 0.0024499998
  vertex 0.00591865089 0.0165453535 0.00772878295
  endloop
 endfacet

 facet normal 0 0 0
  outer loop
  vertex 0.00555416802 0.0154357767 0.00337951561
  vertex 0.00591865089 0.0165453535 0.00772878295
  vertex 0.0107250176 0.0217636283 0.00577012496
  endloop
 endfacet

 facet normal 0 0 0
  outer loop
  vertex 0.00555416802 0.0154357767 0.00337951561
  vertex 0.0107250176 0.0217636283 0.00577012496
  vertex 0.00984906591 0.0192888211 0.00120804529
  endloop
 endfacet

 facet normal 0 0 0
  outer loop
  vertex 0.00555416802 0.0154357767 0.00337951561
  vertex 0.00984906591 0.0192888211 0.00120804529
  vertex 0.00336488523 0.00706508569 -0.000277417217
  endloop
 endfacet

 facet normal 0 0 0
  outer loop
  vertex 0.00555416802 0.0154357767 0.00337951561
  vertex 0.00336488523 0.00706508569 -0.000277417217
  vertex -0.00287012686 0.000873144367 0.0024499998
  endloop
 endfacet

 facet normal 0 0 0
  outer loop
  vertex 0.0205235649 0.0238912255 0.00243263436
  vertex 0.0212650225 0.0237935185 0.00446897931
  vertex 0.0199823044 0.0223356001 0.000669621164
  endloop
 endfacet

 facet normal 0 0 0
  outer loop
  vertex 0.0205235649 0.0238912255 0.00243263436
  vertex 0.0199823044 0.0223356001 0.000669621164
  vertex 0.0165681355 0.0237057116 0.00149430288
  endloop
 endfacet

 facet normal 0 0 0
  outer loop
  vertex 0.0205235649 0.0238912255 0.00243263436
  vertex 0.0165681355 0.0237057116 0.00149430288
  vertex 0.0148982788 0.0241612215 0.00278807967
  endloop
 endfacet

 facet normal 0 0 0
  outer loop
  vertex 0.0205235649 0.0238912255 0.00243263436
  vertex 0.0148982788 0.0241612215 0.00278807967
  vertex 0.0170132741 0.0253562611 0.00679982454
  endloop
 endfacet

 facet normal 0 0 0
  outer loop
  vertex 0.0205235649 0.0238912255 0.00243263436
  vertex 0.0170132741 0.0253562611 0.00679982454
  vertex 0.0212650225 0.0237935185 0.00446897931
  endloop
 endfacet

 facet normal 0 0 0
  outer loop
  vertex 0.0127941566 -0.00548514631 0.00233792467
  vertex 0.0122677637 -0.00629102346 0.00948456582
  vertex 0.0110689308 -0.00669086305 0.00324136834
  endloop
 endfacet

 facet normal 0 0 0
  outer loop
  vertex 0.0127941566 -0.00548514631 0.00233792467
  vertex 0.0110689308 -0.00669086305 0.00324136834
  vertex 0.0116418386 -0.00453177746 0.000169086998
  endloop
 endfacet

 facet normal 0 0 0
  outer loop
  vertex 0.0127941566 -0.00548514631 0.00233792467
  vertex 0.0116418386 -0.00453177746 0.000169086998
  vertex 0.0199823044 0.0223356001 0.000669621164
  endloop
 endfacet

 facet normal 0 0 0
  outer loop
  vertex 0.0127941566 -0.00548514631 0.00233792467
  vertex 0.0199823044 0.0223356001 0.000669621164
  vertex 0.013890354 -0.00409080647 0.00442531798
  endloop
 endfacet

 facet normal 0 0 0
  outer loop
  vertex 0.0134315919 -0.00535252504 0.00942557119
  vertex 0.0122677637 -0.00629102346 0.00948456582
  vertex 0.0127941566 -0.00548514631 0.00233792467
  endloop
 endfacet

 facet normal 0 0 0
  outer loop
  vertex 0.0134315919 -0.00535252504 0.00942557119
  vertex 0.0127941566 -0.00548514631 0.00233792467
  vertex 0.013890354 -0.00409080647 0.00442531798
  endloop
 endfacet

 facet normal 0 0 0
  outer loop
  vertex 0.0134315919 -0.00535252504 0.00942557119
  vertex 0.0204491168 0.0210285448 0.0121467477
  vertex 0.0138529884 -0.00135402521 0.0121496683
  endloop
 endfacet

 facet normal 0 0 0
  outer loop
  vertex 0.0134315919 -0.00535252504 0.00942557119
  vertex 0.0138529884 -0.00135402521 0.0121496683
  vertex 0.0118186362 -0.00503230747 0.0129892416
  endloop
 endfacet

 facet normal 0 0 0
  outer loop
  vertex 0.0134315919 -0.00535252504 0.00942557119
  vertex 0.0118186362 -0.00503230747 0.0129892416
  vertex 0.0122677637 -0.00629102346 0.00948456582
  endloop
 endfacet

endsolid AssimpScene
