solid AssimpScene
 facet normal 0 0 0
  outer loop
  vertex -0.00981670432 -0.0236822758 -0.0202600956
  vertex -0.00689910119 -0.0304421876 -0.0129781878
  vertex -0.00654499931 -0.00588374492 -0.00285058399
  endloop
 endfacet

 facet normal 0 0 0
  outer loop
  vertex -0.00981670432 -0.0236822758 -0.0202600956
  vertex -0.00654499931 -0.00588374492 -0.00285058399
  vertex -0.00727751106 -0.00495332945 -0.00491272192
  endloop
 endfacet

 facet normal 0 0 0
  outer loop
  vertex 0.00441055465 -0.0250840355 -0.0204068385
  vertex -0.000239577115 -0.0311774351 -0.0129905194
  vertex -0.000882519991 -0.0368813649 -0.0201186575
  endloop
 endfacet

 facet normal 0 0 0
  outer loop
  vertex -0.00806437992 -0.0122875543 -0.0180050284
  vertex -0.00981670432 -0.0236822758 -0.0202600956
  vertex -0.00727751106 -0.00495332945 -0.00491272192
  endloop
 endfacet

 facet normal 0 0 0
  outer loop
  vertex -0.00806437992 -0.0122875543 -0.0180050284
  vertex -0.00727751106 -0.00495332945 -0.00491272192
  vertex -0.00589907309 -3.91906724e-05 -0.00610818062
  endloop
 endfacet

 facet normal 0 0 0
  outer loop
  vertex -0.00806437992 -0.0122875543 -0.0180050284
  vertex -0.00589907309 -3.91906724e-05 -0.00610818062
  vertex -0.00496655749 -0.0105077242 -0.0188823119
  endloop
 endfacet

 facet normal 0 0 0
  outer loop
  vertex -0.00806437992 -0.0122875543 -0.0180050284
  vertex -0.00496655749 -0.0105077242 -0.0188823119
  vertex -0.00857246108 -0.024242904 -0.0246586129
  endloop
 endfacet

 facet normal 0 0 0
  outer loop
  vertex -0.00504158065 0.00109761825 -0.00203187368
  vertex -0.00589907309 -3.91906724e-05 -0.00610818062
  vertex -0.00727751106 -0.00495332945 -0.00491272192
  endloop
 endfacet

 facet normal 0 0 0
  outer loop
  vertex 2.04402727e-06 -0.00165151665 -0.0095703043
  vertex -0.00496655749 -0.0105077242 -0.0188823119
  vertex -0.00589907309 -3.91906724e-05 -0.00610818062
  endloop
 endfacet

 facet normal 0 0 0
  outer loop
  vertex -0.00608164165 -0.0322478935 -0.0246767253
  vertex -0.001298327 -0.033907216 -0.0241751429
  vertex -0.00752897421 -0.0360041223 -0.0215146039
  endloop
 endfacet

 facet normal 0 0 0
  outer loop
  vertex -0.00608164165 -0.0322478935 -0.0246767253
  vertex -0.00752897421 -0.0360041223 -0.0215146039
  vertex -0.00968511682 -0.0248223655 -0.022946354
  endloop
 endfacet

 facet normal 0 0 0
  outer loop
  vertex -0.00608164165 -0.0322478935 -0.0246767253
  vertex -0.00968511682 -0.0248223655 -0.022946354
  vertex -0.00857246108 -0.024242904 -0.0246586129
  endloop
 endfacet

 facet normal 0 0 0
  outer loop
  vertex -0.00317089981 -0.024281282 -0.0260823369
  vertex -0.00857246108 -0.024242904 -0.0246586129
  vertex -0.00496655749 -0.0105077242 -0.0188823119
  endloop
 endfacet

 facet normal 0 0 0
  outer loop
  vertex -0.00317089981 -0.024281282 -0.0260823369
  vertex 0.0022926589 -0.0256091654 -0.0252250582
  vertex -0.001298327 -0.033907216 -0.0241751429
  endloop
 endfacet

 facet normal 0 0 0
  outer loop
  vertex -0.00317089981 -0.024281282 -0.0260823369
  vertex -0.001298327 -0.033907216 -0.0241751429
  vertex -0.00608164165 -0.0322478935 -0.0246767253
  endloop
 endfacet

 facet normal 0 0 0
  outer loop
  vertex -0.00317089981 -0.024281282 -0.0260823369
  vertex -0.00608164165 -0.0322478935 -0.0246767253
  vertex -0.00857246108 -0.024242904 -0.0246586129
  endloop
 endfacet

 facet normal 0 0 0
  outer loop
  vertex 0.00354311359 0.00168588269 -0.00212873728
  vertex 0.00551354839 1.70676376e-05 -0.00442298409
  vertex 0.00378602301 -0.00243123085 -0.00929527357
  endloop
 endfacet

 facet normal 0 0 0
  outer loop
  vertex 0.00354311359 0.00168588269 -0.00212873728
  vertex 0.00378602301 -0.00243123085 -0.00929527357
  vertex 2.04402727e-06 -0.00165151665 -0.0095703043
  endloop
 endfacet

 facet normal 0 0 0
  outer loop
  vertex 0.00354311359 0.00168588269 -0.00212873728
  vertex 2.04402727e-06 -0.00165151665 -0.0095703043
  vertex -0.00191506906 0.0025112615 -0.00210977695
  endloop
 endfacet

 facet normal 0 0 0
  outer loop
  vertex -0.00748173473 -0.0356234051 -0.0187023897
  vertex -0.00689910119 -0.0304421876 -0.0129781878
  vertex -0.00981670432 -0.0236822758 -0.0202600956
  endloop
 endfacet

 facet normal 0 0 0
  outer loop
  vertex -0.00748173473 -0.0356234051 -0.0187023897
  vertex -0.00981670432 -0.0236822758 -0.0202600956
  vertex -0.00968511682 -0.0248223655 -0.022946354
  endloop
 endfacet

 facet normal 0 0 0
  outer loop
  vertex -0.00748173473 -0.0356234051 -0.0187023897
  vertex -0.00968511682 -0.0248223655 -0.022946354
  vertex -0.00752897421 -0.0360041223 -0.0215146039
  endloop
 endfacet

 facet normal 0 0 0
  outer loop
  vertex -0.00748173473 -0.0356234051 -0.0187023897
  vertex -0.00752897421 -0.0360041223 -0.0215146039
  vertex -0.000882519991 -0.0368813649 -0.0201186575
  endloop
 endfacet

 facet normal 0 0 0
  outer loop
  vertex -0.00748173473 -0.0356234051 -0.0187023897
  vertex -0.000882519991 -0.0368813649 -0.0201186575
  vertex -0.000239577115 -0.0311774351 -0.0129905194
  endloop
 endfacet

 facet normal 0 0 0
  outer loop
  vertex -0.00748173473 -0.0356234051 -0.0187023897
  vertex -0.000239577115 -0.0311774351 -0.0129905194
  vertex -0.00689910119 -0.0304421876 -0.0129781878
  endloop
 endfacet

 facet normal 0 0 0
  outer loop
  vertex 0.00168108696 -0.0110980496 -0.0190104079
  vertex -0.00496655749 -0.0105077242 -0.0188823119
  vertex 2.04402727e-06 -0.00165151665 -0.0095703043
  endloop
 endfacet

 facet normal 0 0 0
  outer loop
  vertex 0.00168108696 -0.0110980496 -0.0190104079
  vertex 0.0045648762 -0.0136681022 -0.0189751312
  vertex 0.0022926589 -0.0256091654 -0.0252250582
  endloop
 endfacet

 facet normal 0 0 0
  outer loop
  vertex 0.00168108696 -0.0110980496 -0.0190104079
  vertex 0.0022926589 -0.0256091654 -0.0252250582
  vertex -0.00317089981 -0.024281282 -0.0260823369
  endloop
 endfacet

 facet normal 0 0 0
  outer loop
  vertex 0.00168108696 -0.0110980496 -0.0190104079
  vertex -0.00317089981 -0.024281282 -0.0260823369
  vertex -0.00496655749 -0.0105077242 -0.0188823119
  endloop
 endfacet

 facet normal 0 0 0
  outer loop
  vertex -0.00125212746 0.000824501272 -0.000250780489
  vertex 0.0037988273 -0.000118056108 -0.000658045697
  vertex 0.00354311359 0.00168588269 -0.00212873728
  endloop
 endfacet

 facet normal 0 0 0
  outer loop
  vertex -0.00125212746 0.000824501272 -0.000250780489
  vertex 0.00354311359 0.00168588269 -0.00212873728
  vertex -0.00191506906 0.0025112615 -0.00210977695
  endloop
 endfacet

 facet normal 0 0 0
  outer loop
  vertex -0.00125212746 0.000824501272 -0.000250780489
  vertex -0.00191506906 0.0025112615 -0.00210977695
  vertex -0.00504158065 0.00109761825 -0.00203187368
  endloop
 endfacet

 facet normal 0 0 0
  outer loop
  vertex -0.00125212746 0.000824501272 -0.000250780489
  vertex -0.00504158065 0.00109761825 -0.00203187368
  vertex -0.00430314802 -0.00217554183 -0.000345302979
  endloop
 endfacet

 facet normal 0 0 0
  outer loop
  vertex 0.00620347587 -0.00628712866 -0.00952190254
  vertex 0.00441055465 -0.0250840355 -0.0204068385
  vertex 0.00384302484 -0.0262780562 -0.0233717207
  endloop
 endfacet

 facet normal 0 0 0
  outer loop
  vertex 0.00620347587 -0.00628712866 -0.00952190254
  vertex 0.00384302484 -0.0262780562 -0.0233717207
  vertex 0.0045648762 -0.0136681022 -0.0189751312
  endloop
 endfacet

 facet normal 0 0 0
  outer loop
  vertex 0.000189211118 -0.00739593478 -0.00160170358
  vertex -0.00430314802 -0.00217554183 -0.000345302979
  vertex -0.00689910119 -0.0304421876 -0.0129781878
  endloop
 endfacet

 facet normal 0 0 0
  outer loop
  vertex 0.000189211118 -0.00739593478 -0.00160170358
  vertex -0.00689910119 -0.0304421876 -0.0129781878
  vertex -0.000239577115 -0.0311774351 -0.0129905194
  endloop
 endfacet

 facet normal 0 0 0
  outer loop
  vertex 0.000189211118 -0.00739593478 -0.00160170358
  vertex -0.000239577115 -0.0311774351 -0.0129905194
  vertex 0.00501532946 -0.0050839996 -0.00174890924
  endloop
 endfacet

 facet normal 0 0 0
  outer loop
  vertex 0.00384302484 -0.0262780562 -0.0233717207
  vertex 0.0022926589 -0.0256091654 -0.0252250582
  vertex 0.0045648762 -0.0136681022 -0.0189751312
  endloop
 endfacet

 facet normal 0 0 0
  outer loop
  vertex 0.00441055465 -0.0250840355 -0.0204068385
  vertex -0.000882519991 -0.0368813649 -0.0201186575
  vertex -0.000473010499 -0.0358663015 -0.0224853344
  endloop
 endfacet

 facet normal 0 0 0
  outer loop
  vertex 0.00441055465 -0.0250840355 -0.0204068385
  vertex -0.000473010499 -0.0358663015 -0.0224853344
  vertex 0.00384302484 -0.0262780562 -0.0233717207
  endloop
 endfacet

 facet normal 0 0 0
  outer loop
  vertex -0.00654499931 -0.00588374492 -0.00285058399
  vertex -0.00689910119 -0.0304421876 -0.0129781878
  vertex -0.00430314802 -0.00217554183 -0.000345302979
  endloop
 endfacet

 facet normal 0 0 0
  outer loop
  vertex -0.00654499931 -0.00588374492 -0.00285058399
  vertex -0.00430314802 -0.00217554183 -0.000345302979
  vertex -0.00504158065 0.00109761825 -0.00203187368
  endloop
 endfacet

 facet normal 0 0 0
  outer loop
  vertex -0.00654499931 -0.00588374492 -0.00285058399
  vertex -0.00504158065 0.00109761825 -0.00203187368
  vertex -0.00727751106 -0.00495332945 -0.00491272192
  endloop
 endfacet

 facet normal 0 0 0
  outer loop
  vertex 0.00216904259 -0.00161730743 0.000142942328
  vertex -0.00430314802 -0.00217554183 -0.000345302979
  vertex 0.000189211118 -0.00739593478 -0.00160170358
  endloop
 endfacet

 facet normal 0 0 0
  outer loop
  vertex 0.00216904259 -0.00161730743 0.000142942328
  vertex 0.000189211118 -0.00739593478 -0.00160170358
  vertex 0.00501532946 -0.0050839996 -0.00174890924
  endloop
 endfacet

 facet normal 0 0 0
  outer loop
  vertex 0.00216904259 -0.00161730743 0.000142942328
  vertex 0.0037988273 -0.000118056108 -0.000658045697
  vertex -0.00125212746 0.000824501272 -0.000250780489
  endloop
 endfacet

 facet normal 0 0 0
  outer loop
  vertex 0.00216904259 -0.00161730743 0.000142942328
  vertex -0.00125212746 0.000824501272 -0.000250780489
  vertex -0.00430314802 -0.00217554183 -0.000345302979
  endloop
 endfacet

 facet normal 0 0 0
  outer loop
  vertex 0.00545257982 -0.0015118951 -0.00168977794
  vertex 0.00551354839 1.70676376e-05 -0.00442298409
  vertex 0.00354311359 0.00168588269 -0.00212873728
  endloop
 endfacet

 facet normal 0 0 0
  outer loop
  vertex 0.00545257982 -0.0015118951 -0.00168977794
  vertex 0.00354311359 0.00168588269 -0.00212873728
  vertex 0.0037988273 -0.000118056108 -0.000658045697
  endloop
 endfacet

 facet normal 0 0 0
  outer loop
  vertex 0.00545257982 -0.0015118951 -0.00168977794
  vertex 0.0037988273 -0.000118056108 -0.000658045697
  vertex 0.00216904259 -0.00161730743 0.000142942328
  endloop
 endfacet

 facet normal 0 0 0
  outer loop
  vertex 0.00545257982 -0.0015118951 -0.00168977794
  vertex 0.00216904259 -0.00161730743 0.000142942328
  vertex 0.00501532946 -0.0050839996 -0.00174890924
  endloop
 endfacet

 facet normal 0 0 0
  outer loop
  vertex 0.00545257982 -0.0015118951 -0.00168977794
  vertex 0.00620347587 -0.00628712866 -0.00952190254
  vertex 0.00551354839 1.70676376e-05 -0.00442298409
  endloop
 endfacet

 facet normal 0 0 0
  outer loop
  vertex -0.000473010499 -0.0358663015 -0.0224853344
  vertex -0.001298327 -0.033907216 -0.0241751429
  vertex 0.0022926589 -0.0256091654 -0.0252250582
  endloop
 endfacet

 facet normal 0 0 0
  outer loop
  vertex -0.000473010499 -0.0358663015 -0.0224853344
  vertex 0.0022926589 -0.0256091654 -0.0252250582
  vertex 0.00384302484 -0.0262780562 -0.0233717207
  endloop
 endfacet

 facet normal 0 0 0
  outer loop
  vertex -0.000473010499 -0.0358663015 -0.0224853344
  vertex -0.000882519991 -0.0368813649 -0.0201186575
  vertex -0.00752897421 -0.0360041223 -0.0215146039
  endloop
 endfacet

 facet normal 0 0 0
  outer loop
  vertex -0.000473010499 -0.0358663015 -0.0224853344
  vertex -0.00752897421 -0.0360041223 -0.0215146039
  vertex -0.001298327 -0.033907216 -0.0241751429
  endloop
 endfacet

 facet normal 0 0 0
  outer loop
  vertex -0.00474509923 0.00179726281 -0.00375770661
  vertex -0.00589907309 -3.91906724e-05 -0.00610818062
  vertex -0.00504158065 0.00109761825 -0.00203187368
  endloop
 endfacet

 facet normal 0 0 0
  outer loop
  vertex -0.00474509923 0.00179726281 -0.00375770661
  vertex -0.00504158065 0.00109761825 -0.00203187368
  vertex -0.00191506906 0.0025112615 -0.00210977695
  endloop
 endfacet

 facet normal 0 0 0
  outer loop
  vertex -0.00474509923 0.00179726281 -0.00375770661
  vertex -0.00191506906 0.0025112615 -0.00210977695
  vertex 2.04402727e-06 -0.00165151665 -0.0095703043
  endloop
 endfacet

 facet normal 0 0 0
  outer loop
  vertex -0.00474509923 0.00179726281 -0.00375770661
  vertex 2.04402727e-06 -0.00165151665 -0.0095703043
  vertex -0.00589907309 -3.91906724e-05 -0.00610818062
  endloop
 endfacet

 facet normal 0 0 0
  outer loop
  vertex -0.00968511682 -0.0248223655 -0.022946354
  vertex -0.00981670432 -0.0236822758 -0.0202600956
  vertex -0.00806437992 -0.0122875543 -0.0180050284
  endloop
 endfacet

 facet normal 0 0 0
  outer loop
  vertex -0.00968511682 -0.0248223655 -0.022946354
  vertex -0.00806437992 -0.0122875543 -0.0180050284
  vertex -0.00857246108 -0.024242904 -0.0246586129
  endloop
 endfacet

 facet normal 0 0 0
  outer loop
  vertex 0.00587064913 -0.00824125577 -0.00583447423
  vertex 0.00441055465 -0.0250840355 -0.0204068385
  vertex 0.00620347587 -0.00628712866 -0.00952190254
  endloop
 endfacet

 facet normal 0 0 0
  outer loop
  vertex 0.00587064913 -0.00824125577 -0.00583447423
  vertex 0.00620347587 -0.00628712866 -0.00952190254
  vertex 0.00545257982 -0.0015118951 -0.00168977794
  endloop
 endfacet

 facet normal 0 0 0
  outer loop
  vertex 0.00587064913 -0.00824125577 -0.00583447423
  vertex 0.00545257982 -0.0015118951 -0.00168977794
  vertex 0.00501532946 -0.0050839996 -0.00174890924
  endloop
 endfacet

 facet normal 0 0 0
  outer loop
  vertex 0.00587064913 -0.00824125577 -0.00583447423
  vertex 0.00501532946 -0.0050839996 -0.00174890924
  vertex -0.000239577115 -0.0311774351 -0.0129905194
  endloop
 endfacet

 facet normal 0 0 0
  outer loop
  vertex 0.00587064913 -0.00824125577 -0.00583447423
  vertex -0.000239577115 -0.0311774351 -0.0129905194
  vertex 0.00441055465 -0.0250840355 -0.0204068385
  endloop
 endfacet

 facet normal 0 0 0
  outer loop
  vertex 0.00378602301 -0.00243123085 -0.00929527357
  vertex 0.00551354839 1.70676376e-05 -0.00442298409
  vertex 0.00620347587 -0.00628712866 -0.00952190254
  endloop
 endfacet

 facet normal 0 0 0
  outer loop
  vertex 0.00378602301 -0.00243123085 -0.00929527357
  vertex 0.00620347587 -0.00628712866 -0.00952190254
  vertex 0.0045648762 -0.0136681022 -0.0189751312
  endloop
 endfacet

 facet normal 0 0 0
  outer loop
  vertex 0.00378602301 -0.00243123085 -0.00929527357
  vertex 0.0045648762 -0.0136681022 -0.0189751312
  vertex 0.00168108696 -0.0110980496 -0.0190104079
  endloop
 endfacet

 facet normal 0 0 0
  outer loop
  vertex 0.00378602301 -0.00243123085 -0.00929527357
  vertex 0.00168108696 -0.0110980496 -0.0190104079
  vertex 2.04402727e-06 -0.00165151665 -0.0095703043
  endloop
 endfacet

endsolid AssimpScene
