solid AssimpScene
 facet normal 0 0 0
  outer loop
  vertex -0.00588775566 0.00363882841 -0.00175992248
  vertex -0.00593356322 0.00783360936 -0.00367060374
  vertex -0.00662041549 -0.000422668294 -0.0073550716
  endloop
 endfacet

 facet normal 0 0 0
  outer loop
  vertex -0.00588775566 0.00363882841 -0.00175992248
  vertex -0.00662041549 -0.000422668294 -0.0073550716
  vertex -0.00645182608 -0.0320814587 -0.00749624288
  endloop
 endfacet

 facet normal 0 0 0
  outer loop
  vertex -0.00588775566 0.00363882841 -0.00175992248
  vertex -0.00645182608 -0.0320814587 -0.00749624288
  vertex -0.00615508994 -0.0268108267 -0.00306455791
  endloop
 endfacet

 facet normal 0 0 0
  outer loop
  vertex 0.00500364136 -0.0338826552 -0.0102719264
  vertex 0.00563143007 -0.00894067995 -0.012438992
  vertex 0.00702204835 -0.0284249522 -0.00967259146
  endloop
 endfacet

 facet normal 0 0 0
  outer loop
  vertex 0.00755756395 -0.0278524049 -0.00402622437
  vertex 0.00650457712 0.00551941385 -0.00282106199
  vertex 0.00335998368 -0.0324889645 0.00359605509
  endloop
 endfacet

 facet normal 0 0 0
  outer loop
  vertex 0.00763232913 -0.0328570791 -0.00783773419
  vertex 0.00500364136 -0.0338826552 -0.0102719264
  vertex 0.00702204835 -0.0284249522 -0.00967259146
  endloop
 endfacet

 facet normal 0 0 0
  outer loop
  vertex 0.00355492695 -0.039853476 0.00130506256
  vertex -0.00248449203 -0.0417590141 -0.00178522593
  vertex 0.00401244313 -0.0413900763 -0.00143790443
  endloop
 endfacet

 facet normal 0 0 0
  outer loop
  vertex 0.00355492695 -0.039853476 0.00130506256
  vertex 0.00401244313 -0.0413900763 -0.00143790443
  vertex 0.00763232913 -0.0328570791 -0.00783773419
  endloop
 endfacet

 facet normal 0 0 0
  outer loop
  vertex 0.00355492695 -0.039853476 0.00130506256
  vertex 0.00763232913 -0.0328570791 -0.00783773419
  vertex 0.00755756395 -0.0278524049 -0.00402622437
  endloop
 endfacet

 facet normal 0 0 0
  outer loop
  vertex 0.00355492695 -0.039853476 0.00130506256
  vertex 0.00755756395 -0.0278524049 -0.00402622437
  vertex 0.00335998368 -0.0324889645 0.00359605509
  endloop
 endfacet

 facet normal 0 0 0
  outer loop
  vertex -0.000162354525 0.00459624827 -0.00960335042
  vertex 0.00231911568 0.00893070363 -0.00742106466
  vertex 0.00577643048 0.00798237883 -0.00673701987
  endloop
 endfacet

 facet normal 0 0 0
  outer loop
  vertex -0.000162354525 0.00459624827 -0.00960335042
  vertex 0.00577643048 0.00798237883 -0.00673701987
  vertex 0.00563143007 -0.00894067995 -0.012438992
  endloop
 endfacet

 facet normal 0 0 0
  outer loop
  vertex -0.00283629936 -0.0399204493 0.000976527343
  vertex -0.00248449203 -0.0417590141 -0.00178522593
  vertex 0.00355492695 -0.039853476 0.00130506256
  endloop
 endfacet

 facet normal 0 0 0
  outer loop
  vertex -0.00283629936 -0.0399204493 0.000976527343
  vertex 0.00355492695 -0.039853476 0.00130506256
  vertex 0.00335998368 -0.0324889645 0.00359605509
  endloop
 endfacet

 facet normal 0 0 0
  outer loop
  vertex -0.00283629936 -0.0399204493 0.000976527343
  vertex 0.00335998368 -0.0324889645 0.00359605509
  vertex -0.00303123379 -0.0325559378 0.00326752034
  endloop
 endfacet

 facet normal 0 0 0
  outer loop
  vertex -0.00283629936 -0.0399204493 0.000976527343
  vertex -0.00645182608 -0.0320814587 -0.00749624288
  vertex -0.00248449203 -0.0417590141 -0.00178522593
  endloop
 endfacet

 facet normal 0 0 0
  outer loop
  vertex 0.00317825237 -0.0399054214 -0.00562030543
  vertex -0.00175057608 -0.0399570651 -0.00587366708
  vertex -0.00300383009 -0.0337060392 -0.0109162806
  endloop
 endfacet

 facet normal 0 0 0
  outer loop
  vertex 0.00317825237 -0.0399054214 -0.00562030543
  vertex -0.00300383009 -0.0337060392 -0.0109162806
  vertex 0.00500364136 -0.0338826552 -0.0102719264
  endloop
 endfacet

 facet normal 0 0 0
  outer loop
  vertex 0.00317825237 -0.0399054214 -0.00562030543
  vertex 0.00500364136 -0.0338826552 -0.0102719264
  vertex 0.00763232913 -0.0328570791 -0.00783773419
  endloop
 endfacet

 facet normal 0 0 0
  outer loop
  vertex 0.00317825237 -0.0399054214 -0.00562030543
  vertex 0.00763232913 -0.0328570791 -0.00783773419
  vertex 0.00401244313 -0.0413900763 -0.00143790443
  endloop
 endfacet

 facet normal 0 0 0
  outer loop
  vertex 0.00317825237 -0.0399054214 -0.00562030543
  vertex 0.00401244313 -0.0413900763 -0.00143790443
  vertex -0.00248449203 -0.0417590141 -0.00178522593
  endloop
 endfacet

 facet normal 0 0 0
  outer loop
  vertex -0.000285537855 -0.0118693504 -0.0137051037
  vertex 0.00563143007 -0.00894067995 -0.012438992
  vertex 0.00500364136 -0.0338826552 -0.0102719264
  endloop
 endfacet

 facet normal 0 0 0
  outer loop
  vertex -0.000285537855 -0.0118693504 -0.0137051037
  vertex 0.00500364136 -0.0338826552 -0.0102719264
  vertex -0.00300383009 -0.0337060392 -0.0109162806
  endloop
 endfacet

 facet normal 0 0 0
  outer loop
  vertex -0.000285537855 -0.0118693504 -0.0137051037
  vertex -0.00300383009 -0.0337060392 -0.0109162806
  vertex -0.00529009383 -0.0100239683 -0.0123372925
  endloop
 endfacet

 facet normal 0 0 0
  outer loop
  vertex 0.00750742108 -0.00944835134 -0.0100994129
  vertex 0.00763232913 -0.0328570791 -0.00783773419
  vertex 0.00702204835 -0.0284249522 -0.00967259146
  endloop
 endfacet

 facet normal 0 0 0
  outer loop
  vertex 0.00750742108 -0.00944835134 -0.0100994129
  vertex 0.00702204835 -0.0284249522 -0.00967259146
  vertex 0.00563143007 -0.00894067995 -0.012438992
  endloop
 endfacet

 facet normal 0 0 0
  outer loop
  vertex 0.00511980942 0.00567367906 -0.000791436294
  vertex 0.00335998368 -0.0324889645 0.00359605509
  vertex 0.00650457712 0.00551941385 -0.00282106199
  endloop
 endfacet

 facet normal 0 0 0
  outer loop
  vertex -0.00175057608 -0.0399570651 -0.00587366708
  vertex 0.00317825237 -0.0399054214 -0.00562030543
  vertex -0.00248449203 -0.0417590141 -0.00178522593
  endloop
 endfacet

 facet normal 0 0 0
  outer loop
  vertex -0.00397122651 0.00808194187 -0.00129826018
  vertex -0.00588775566 0.00363882841 -0.00175992248
  vertex -0.00303123379 -0.0325559378 0.00326752034
  endloop
 endfacet

 facet normal 0 0 0
  outer loop
  vertex -0.00539792981 -0.0335856676 -0.00943693332
  vertex -0.00300383009 -0.0337060392 -0.0109162806
  vertex -0.00175057608 -0.0399570651 -0.00587366708
  endloop
 endfacet

 facet normal 0 0 0
  outer loop
  vertex -0.00539792981 -0.0335856676 -0.00943693332
  vertex -0.00175057608 -0.0399570651 -0.00587366708
  vertex -0.00248449203 -0.0417590141 -0.00178522593
  endloop
 endfacet

 facet normal 0 0 0
  outer loop
  vertex -0.00539792981 -0.0335856676 -0.00943693332
  vertex -0.00248449203 -0.0417590141 -0.00178522593
  vertex -0.00645182608 -0.0320814587 -0.00749624288
  endloop
 endfacet

 facet normal 0 0 0
  outer loop
  vertex -0.00539792981 -0.0335856676 -0.00943693332
  vertex -0.00645182608 -0.0320814587 -0.00749624288
  vertex -0.00529009383 -0.0100239683 -0.0123372925
  endloop
 endfacet

 facet normal 0 0 0
  outer loop
  vertex -0.00539792981 -0.0335856676 -0.00943693332
  vertex -0.00529009383 -0.0100239683 -0.0123372925
  vertex -0.00300383009 -0.0337060392 -0.0109162806
  endloop
 endfacet

 facet normal 0 0 0
  outer loop
  vertex 0.0050711548 0.00945098139 -0.00234643882
  vertex 0.00230023335 0.00965532474 -0.00125367369
  vertex 0.00511980942 0.00567367906 -0.000791436294
  endloop
 endfacet

 facet normal 0 0 0
  outer loop
  vertex 0.0050711548 0.00945098139 -0.00234643882
  vertex 0.00511980942 0.00567367906 -0.000791436294
  vertex 0.00650457712 0.00551941385 -0.00282106199
  endloop
 endfacet

 facet normal 0 0 0
  outer loop
  vertex 0.0050711548 0.00945098139 -0.00234643882
  vertex 0.00650457712 0.00551941385 -0.00282106199
  vertex 0.00486169476 0.0107843084 -0.00479065208
  endloop
 endfacet

 facet normal 0 0 0
  outer loop
  vertex -0.00662041549 -0.000422668294 -0.0073550716
  vertex -0.00529009383 -0.0100239683 -0.0123372925
  vertex -0.00645182608 -0.0320814587 -0.00749624288
  endloop
 endfacet

 facet normal 0 0 0
  outer loop
  vertex -0.00662041549 -0.000422668294 -0.0073550716
  vertex -0.00559066888 0.00801584497 -0.00684186816
  vertex -0.00529009383 -0.0100239683 -0.0123372925
  endloop
 endfacet

 facet normal 0 0 0
  outer loop
  vertex -0.00615508994 -0.0268108267 -0.00306455791
  vertex -0.00645182608 -0.0320814587 -0.00749624288
  vertex -0.00283629936 -0.0399204493 0.000976527343
  endloop
 endfacet

 facet normal 0 0 0
  outer loop
  vertex -0.00615508994 -0.0268108267 -0.00306455791
  vertex -0.00283629936 -0.0399204493 0.000976527343
  vertex -0.00303123379 -0.0325559378 0.00326752034
  endloop
 endfacet

 facet normal 0 0 0
  outer loop
  vertex -0.00615508994 -0.0268108267 -0.00306455791
  vertex -0.00303123379 -0.0325559378 0.00326752034
  vertex -0.00588775566 0.00363882841 -0.00175992248
  endloop
 endfacet

 facet normal 0 0 0
  outer loop
  vertex -0.000162354525 0.00459624827 -0.00960335042
  vertex 0.00563143007 -0.00894067995 -0.012438992
  vertex -0.000285537855 -0.0118693504 -0.0137051037
  endloop
 endfacet

 facet normal 0 0 0
  outer loop
  vertex -0.000162354525 0.00459624827 -0.00960335042
  vertex -0.000285537855 -0.0118693504 -0.0137051037
  vertex -0.00304102339 -0.00677131815 -0.012760289
  endloop
 endfacet

 facet normal 0 0 0
  outer loop
  vertex -0.00304102339 -0.00677131815 -0.012760289
  vertex -0.000285537855 -0.0118693504 -0.0137051037
  vertex -0.00529009383 -0.0100239683 -0.0123372925
  endloop
 endfacet

 facet normal 0 0 0
  outer loop
  vertex -0.00304102339 -0.00677131815 -0.012760289
  vertex -0.00529009383 -0.0100239683 -0.0123372925
  vertex -0.00559066888 0.00801584497 -0.00684186816
  endloop
 endfacet

 facet normal 0 0 0
  outer loop
  vertex -0.00304102339 -0.00677131815 -0.012760289
  vertex -0.00559066888 0.00801584497 -0.00684186816
  vertex -0.000162354525 0.00459624827 -0.00960335042
  endloop
 endfacet

 facet normal 0 0 0
  outer loop
  vertex 0.000766767596 0.00352975447 0.000179040639
  vertex 0.00230023335 0.00965532474 -0.00125367369
  vertex -0.00397122651 0.00808194187 -0.00129826018
  endloop
 endfacet

 facet normal 0 0 0
  outer loop
  vertex 0.000766767596 0.00352975447 0.000179040639
  vertex -0.00397122651 0.00808194187 -0.00129826018
  vertex -0.00303123379 -0.0325559378 0.00326752034
  endloop
 endfacet

 facet normal 0 0 0
  outer loop
  vertex 0.000766767596 0.00352975447 0.000179040639
  vertex -0.00303123379 -0.0325559378 0.00326752034
  vertex 0.00335998368 -0.0324889645 0.00359605509
  endloop
 endfacet

 facet normal 0 0 0
  outer loop
  vertex 0.000766767596 0.00352975447 0.000179040639
  vertex 0.00335998368 -0.0324889645 0.00359605509
  vertex 0.00511980942 0.00567367906 -0.000791436294
  endloop
 endfacet

 facet normal 0 0 0
  outer loop
  vertex 0.000766767596 0.00352975447 0.000179040639
  vertex 0.00511980942 0.00567367906 -0.000791436294
  vertex 0.00230023335 0.00965532474 -0.00125367369
  endloop
 endfacet

 facet normal 0 0 0
  outer loop
  vertex 0.00231911568 0.00893070363 -0.00742106466
  vertex -0.000162354525 0.00459624827 -0.00960335042
  vertex -0.00559066888 0.00801584497 -0.00684186816
  endloop
 endfacet

 facet normal 0 0 0
  outer loop
  vertex 0.00231911568 0.00893070363 -0.00742106466
  vertex -0.00559066888 0.00801584497 -0.00684186816
  vertex -0.0042095799 0.0109070586 -0.005397256
  endloop
 endfacet

 facet normal 0 0 0
  outer loop
  vertex 0.00231911568 0.00893070363 -0.00742106466
  vertex -0.0042095799 0.0109070586 -0.005397256
  vertex 0.000123313061 0.0119052343 -0.00482623605
  endloop
 endfacet

 facet normal 0 0 0
  outer loop
  vertex 0.00231911568 0.00893070363 -0.00742106466
  vertex 0.000123313061 0.0119052343 -0.00482623605
  vertex 0.00486169476 0.0107843084 -0.00479065208
  endloop
 endfacet

 facet normal 0 0 0
  outer loop
  vertex 0.00231911568 0.00893070363 -0.00742106466
  vertex 0.00486169476 0.0107843084 -0.00479065208
  vertex 0.00577643048 0.00798237883 -0.00673701987
  endloop
 endfacet

 facet normal 0 0 0
  outer loop
  vertex -0.00130857504 0.0111887008 -0.00282066478
  vertex 0.000123313061 0.0119052343 -0.00482623605
  vertex -0.0042095799 0.0109070586 -0.005397256
  endloop
 endfacet

 facet normal 0 0 0
  outer loop
  vertex -0.00130857504 0.0111887008 -0.00282066478
  vertex -0.0042095799 0.0109070586 -0.005397256
  vertex -0.00462968322 0.0101189902 -0.00325340545
  endloop
 endfacet

 facet normal 0 0 0
  outer loop
  vertex -0.00130857504 0.0111887008 -0.00282066478
  vertex -0.00462968322 0.0101189902 -0.00325340545
  vertex -0.00397122651 0.00808194187 -0.00129826018
  endloop
 endfacet

 facet normal 0 0 0
  outer loop
  vertex -0.00130857504 0.0111887008 -0.00282066478
  vertex -0.00397122651 0.00808194187 -0.00129826018
  vertex 0.00230023335 0.00965532474 -0.00125367369
  endloop
 endfacet

 facet normal 0 0 0
  outer loop
  vertex 0.00246030092 0.0114076799 -0.00322114443
  vertex 0.00230023335 0.00965532474 -0.00125367369
  vertex 0.0050711548 0.00945098139 -0.00234643882
  endloop
 endfacet

 facet normal 0 0 0
  outer loop
  vertex 0.00246030092 0.0114076799 -0.00322114443
  vertex 0.0050711548 0.00945098139 -0.00234643882
  vertex 0.00486169476 0.0107843084 -0.00479065208
  endloop
 endfacet

 facet normal 0 0 0
  outer loop
  vertex 0.00246030092 0.0114076799 -0.00322114443
  vertex 0.00486169476 0.0107843084 -0.00479065208
  vertex 0.000123313061 0.0119052343 -0.00482623605
  endloop
 endfacet

 facet normal 0 0 0
  outer loop
  vertex 0.00246030092 0.0114076799 -0.00322114443
  vertex 0.000123313061 0.0119052343 -0.00482623605
  vertex -0.00130857504 0.0111887008 -0.00282066478
  endloop
 endfacet

 facet normal 0 0 0
  outer loop
  vertex 0.00246030092 0.0114076799 -0.00322114443
  vertex -0.00130857504 0.0111887008 -0.00282066478
  vertex 0.00230023335 0.00965532474 -0.00125367369
  endloop
 endfacet

 facet normal 0 0 0
  outer loop
  vertex 0.00707479892 0.00325552351 -0.00681027211
  vertex 0.00650457712 0.00551941385 -0.00282106199
  vertex 0.00755756395 -0.0278524049 -0.00402622437
  endloop
 endfacet

 facet normal 0 0 0
  outer loop
  vertex 0.00707479892 0.00325552351 -0.00681027211
  vertex 0.00755756395 -0.0278524049 -0.00402622437
  vertex 0.00763232913 -0.0328570791 -0.00783773419
  endloop
 endfacet

 facet normal 0 0 0
  outer loop
  vertex 0.00707479892 0.00325552351 -0.00681027211
  vertex 0.00763232913 -0.0328570791 -0.00783773419
  vertex 0.00750742108 -0.00944835134 -0.0100994129
  endloop
 endfacet

 facet normal 0 0 0
  outer loop
  vertex 0.00707479892 0.00325552351 -0.00681027211
  vertex 0.00750742108 -0.00944835134 -0.0100994129
  vertex 0.00563143007 -0.00894067995 -0.012438992
  endloop
 endfacet

 facet normal 0 0 0
  outer loop
  vertex 0.00707479892 0.00325552351 -0.00681027211
  vertex 0.00563143007 -0.00894067995 -0.012438992
  vertex 0.00577643048 0.00798237883 -0.00673701987
  endloop
 endfacet

 facet normal 0 0 0
  outer loop
  vertex 0.00707479892 0.00325552351 -0.00681027211
  vertex 0.00577643048 0.00798237883 -0.00673701987
  vertex 0.00486169476 0.0107843084 -0.00479065208
  endloop
 endfacet

 facet normal 0 0 0
  outer loop
  vertex 0.00707479892 0.00325552351 -0.00681027211
  vertex 0.00486169476 0.0107843084 -0.00479065208
  vertex 0.00650457712 0.00551941385 -0.00282106199
  endloop
 endfacet

 facet normal 0 0 0
  outer loop
  vertex -0.00593356322 0.00783360936 -0.00367060374
  vertex -0.00588775566 0.00363882841 -0.00175992248
  vertex -0.00397122651 0.00808194187 -0.00129826018
  endloop
 endfacet

 facet normal 0 0 0
  outer loop
  vertex -0.00593356322 0.00783360936 -0.00367060374
  vertex -0.00397122651 0.00808194187 -0.00129826018
  vertex -0.00462968322 0.0101189902 -0.00325340545
  endloop
 endfacet

 facet normal 0 0 0
  outer loop
  vertex -0.00593356322 0.00783360936 -0.00367060374
  vertex -0.00462968322 0.0101189902 -0.00325340545
  vertex -0.0042095799 0.0109070586 -0.005397256
  endloop
 endfacet

 facet normal 0 0 0
  outer loop
  vertex -0.00593356322 0.00783360936 -0.00367060374
  vertex -0.0042095799 0.0109070586 -0.005397256
  vertex -0.00559066888 0.00801584497 -0.00684186816
  endloop
 endfacet

 facet normal 0 0 0
  outer loop
  vertex -0.00593356322 0.00783360936 -0.00367060374
  vertex -0.00559066888 0.00801584497 -0.00684186816
  vertex -0.00662041549 -0.000422668294 -0.0073550716
  endloop
 endfacet

endsolid AssimpScene
