solid AssimpScene
 facet normal 0 0 0
  outer loop
  vertex 0.00135809975 -0.0336125977 -0.0300967656
  vertex 0.00244418997 -0.0419605933 -0.0286396798
  vertex -0.0035225621 -0.0423597023 -0.0281233527
  endloop
 endfacet

 facet normal 0 0 0
  outer loop
  vertex 0.00135809975 -0.0336125977 -0.0300967656
  vertex -0.0035225621 -0.0423597023 -0.0281233527
  vertex -0.00498683099 -0.0341947265 -0.029354196
  endloop
 endfacet

 facet normal 0 0 0
  outer loop
  vertex -0.00723108696 -0.0329943113 -0.0233970471
  vertex -0.00320542278 -0.040197514 -0.0169546697
  vertex -0.0059330943 -0.00645316625 -0.00290565193
  endloop
 endfacet

 facet normal 0 0 0
  outer loop
  vertex 0.00703191338 -0.0322770067 -0.0214164164
  vertex 0.00640513282 -0.00407878216 -0.00350812892
  vertex 0.0031945745 -0.0401939414 -0.0169651788
  endloop
 endfacet

 facet normal 0 0 0
  outer loop
  vertex -0.00262077362 -0.00782598089 -0.0160712693
  vertex -0.00605630176 -0.0141193829 -0.0195979141
  vertex -0.00585862435 -0.000107805172 -0.0050973543
  endloop
 endfacet

 facet normal 0 0 0
  outer loop
  vertex 0.00686781993 -0.0133517906 -0.0173498858
  vertex 0.00592863327 -0.0341615416 -0.0286120642
  vertex 0.00486690877 -0.0117388591 -0.0190425534
  endloop
 endfacet

 facet normal 0 0 0
  outer loop
  vertex -0.00114018912 -0.0137336059 -0.0213067122
  vertex -0.00605630176 -0.0141193829 -0.0195979141
  vertex -0.00262077362 -0.00782598089 -0.0160712693
  endloop
 endfacet

 facet normal 0 0 0
  outer loop
  vertex -0.00114018912 -0.0137336059 -0.0213067122
  vertex -0.00262077362 -0.00782598089 -0.0160712693
  vertex 0.00486690877 -0.0117388591 -0.0190425534
  endloop
 endfacet

 facet normal 0 0 0
  outer loop
  vertex -0.00114018912 -0.0137336059 -0.0213067122
  vertex -0.00498683099 -0.0341947265 -0.029354196
  vertex -0.00605630176 -0.0141193829 -0.0195979141
  endloop
 endfacet

 facet normal 0 0 0
  outer loop
  vertex 0.00135809975 -0.0336125977 -0.0300967656
  vertex -0.00498683099 -0.0341947265 -0.029354196
  vertex -0.00114018912 -0.0137336059 -0.0213067122
  endloop
 endfacet

 facet normal 0 0 0
  outer loop
  vertex 0.00135809975 -0.0336125977 -0.0300967656
  vertex -0.00114018912 -0.0137336059 -0.0213067122
  vertex 0.00486690877 -0.0117388591 -0.0190425534
  endloop
 endfacet

 facet normal 0 0 0
  outer loop
  vertex 0.00135809975 -0.0336125977 -0.0300967656
  vertex 0.00486690877 -0.0117388591 -0.0190425534
  vertex 0.00592863327 -0.0341615416 -0.0286120642
  endloop
 endfacet

 facet normal 0 0 0
  outer loop
  vertex 0.00135809975 -0.0336125977 -0.0300967656
  vertex 0.00592863327 -0.0341615416 -0.0286120642
  vertex 0.00244418997 -0.0419605933 -0.0286396798
  endloop
 endfacet

 facet normal 0 0 0
  outer loop
  vertex -0.00118363672 1.60526779e-05 -0.00738101639
  vertex -0.00262077362 -0.00782598089 -0.0160712693
  vertex -0.00585862435 -0.000107805172 -0.0050973543
  endloop
 endfacet

 facet normal 0 0 0
  outer loop
  vertex -0.00118363672 1.60526779e-05 -0.00738101639
  vertex -4.4566832e-06 0.00239118887 -0.00190190366
  vertex 0.00441833865 0.00160666555 -0.00232086028
  endloop
 endfacet

 facet normal 0 0 0
  outer loop
  vertex -0.00118363672 1.60526779e-05 -0.00738101639
  vertex 0.00441833865 0.00160666555 -0.00232086028
  vertex 0.00549701508 8.25958068e-06 -0.00560635002
  endloop
 endfacet

 facet normal 0 0 0
  outer loop
  vertex -0.00437169662 0.0016857601 -0.00246570189
  vertex -4.4566832e-06 0.00239118887 -0.00190190366
  vertex -0.00118363672 1.60526779e-05 -0.00738101639
  endloop
 endfacet

 facet normal 0 0 0
  outer loop
  vertex -0.00437169662 0.0016857601 -0.00246570189
  vertex -0.00118363672 1.60526779e-05 -0.00738101639
  vertex -0.00585862435 -0.000107805172 -0.0050973543
  endloop
 endfacet

 facet normal 0 0 0
  outer loop
  vertex -0.00690102391 -0.0346861482 -0.0272058826
  vertex -0.00498683099 -0.0341947265 -0.029354196
  vertex -0.0035225621 -0.0423597023 -0.0281233527
  endloop
 endfacet

 facet normal 0 0 0
  outer loop
  vertex -0.00690102391 -0.0346861482 -0.0272058826
  vertex -0.0035225621 -0.0423597023 -0.0281233527
  vertex -0.00321506499 -0.0459535085 -0.0247794036
  endloop
 endfacet

 facet normal 0 0 0
  outer loop
  vertex -0.00690102391 -0.0346861482 -0.0272058826
  vertex -0.00321506499 -0.0459535085 -0.0247794036
  vertex -0.00321187708 -0.0454009734 -0.0226508602
  endloop
 endfacet

 facet normal 0 0 0
  outer loop
  vertex -0.00690102391 -0.0346861482 -0.0272058826
  vertex -0.00321187708 -0.0454009734 -0.0226508602
  vertex -0.00723108696 -0.0329943113 -0.0233970471
  endloop
 endfacet

 facet normal 0 0 0
  outer loop
  vertex -0.00690102391 -0.0346861482 -0.0272058826
  vertex -0.00605630176 -0.0141193829 -0.0195979141
  vertex -0.00498683099 -0.0341947265 -0.029354196
  endloop
 endfacet

 facet normal 0 0 0
  outer loop
  vertex 0.00513169495 -0.0049919351 -0.00160937547
  vertex 0.0031945745 -0.0401939414 -0.0169651788
  vertex 0.00640513282 -0.00407878216 -0.00350812892
  endloop
 endfacet

 facet normal 0 0 0
  outer loop
  vertex -0.00394686172 -0.0028147928 -0.00036703379
  vertex -0.0059330943 -0.00645316625 -0.00290565193
  vertex -0.00320542278 -0.040197514 -0.0169546697
  endloop
 endfacet

 facet normal 0 0 0
  outer loop
  vertex 0.00698953308 -0.0348712131 -0.026482217
  vertex 0.00592863327 -0.0341615416 -0.0286120642
  vertex 0.00686781993 -0.0133517906 -0.0173498858
  endloop
 endfacet

 facet normal 0 0 0
  outer loop
  vertex 0.00698953308 -0.0348712131 -0.026482217
  vertex 0.00703191338 -0.0322770067 -0.0214164164
  vertex 0.00318812835 -0.0453974009 -0.0226613674
  endloop
 endfacet

 facet normal 0 0 0
  outer loop
  vertex 0.00698953308 -0.0348712131 -0.026482217
  vertex 0.00318812835 -0.0453974009 -0.0226613674
  vertex 0.00348482397 -0.0456511714 -0.024761416
  endloop
 endfacet

 facet normal 0 0 0
  outer loop
  vertex 0.00318812835 -0.0453974009 -0.0226613674
  vertex -0.00321506499 -0.0459535085 -0.0247794036
  vertex 0.00348482397 -0.0456511714 -0.024761416
  endloop
 endfacet

 facet normal 0 0 0
  outer loop
  vertex 0.00318812835 -0.0453974009 -0.0226613674
  vertex 0.00703191338 -0.0322770067 -0.0214164164
  vertex 0.0031945745 -0.0401939414 -0.0169651788
  endloop
 endfacet

 facet normal 0 0 0
  outer loop
  vertex 0.00504148193 -0.000947051565 -0.00104441133
  vertex 0.00233478029 -0.001369184 0.000142798322
  vertex 0.00513169495 -0.0049919351 -0.00160937547
  endloop
 endfacet

 facet normal 0 0 0
  outer loop
  vertex 0.00504148193 -0.000947051565 -0.00104441133
  vertex 0.00513169495 -0.0049919351 -0.00160937547
  vertex 0.00640513282 -0.00407878216 -0.00350812892
  endloop
 endfacet

 facet normal 0 0 0
  outer loop
  vertex 0.00640513282 -0.00407878216 -0.00350812892
  vertex 0.00549701508 8.25958068e-06 -0.00560635002
  vertex 0.00441833865 0.00160666555 -0.00232086028
  endloop
 endfacet

 facet normal 0 0 0
  outer loop
  vertex 0.00640513282 -0.00407878216 -0.00350812892
  vertex 0.00441833865 0.00160666555 -0.00232086028
  vertex 0.00504148193 -0.000947051565 -0.00104441133
  endloop
 endfacet

 facet normal 0 0 0
  outer loop
  vertex 0.00504148193 -0.000947051565 -0.00104441133
  vertex 0.00441833865 0.00160666555 -0.00232086028
  vertex 0.00233478029 -0.001369184 0.000142798322
  endloop
 endfacet

 facet normal 0 0 0
  outer loop
  vertex -0.00694456045 -0.00720501924 -0.0109907631
  vertex -0.00605630176 -0.0141193829 -0.0195979141
  vertex -0.00690102391 -0.0346861482 -0.0272058826
  endloop
 endfacet

 facet normal 0 0 0
  outer loop
  vertex -0.00694456045 -0.00720501924 -0.0109907631
  vertex -0.00690102391 -0.0346861482 -0.0272058826
  vertex -0.00723108696 -0.0329943113 -0.0233970471
  endloop
 endfacet

 facet normal 0 0 0
  outer loop
  vertex -0.00723108696 -0.0329943113 -0.0233970471
  vertex -0.0059330943 -0.00645316625 -0.00290565193
  vertex -0.00603481242 -0.00186849968 -0.00243716338
  endloop
 endfacet

 facet normal 0 0 0
  outer loop
  vertex -0.00723108696 -0.0329943113 -0.0233970471
  vertex -0.00603481242 -0.00186849968 -0.00243716338
  vertex -0.00694456045 -0.00720501924 -0.0109907631
  endloop
 endfacet

 facet normal 0 0 0
  outer loop
  vertex -0.00694456045 -0.00720501924 -0.0109907631
  vertex -0.00585862435 -0.000107805172 -0.0050973543
  vertex -0.00605630176 -0.0141193829 -0.0195979141
  endloop
 endfacet

 facet normal 0 0 0
  outer loop
  vertex 0.00259042531 -0.0452535301 -0.0264917966
  vertex -0.00321506499 -0.0459535085 -0.0247794036
  vertex -0.0035225621 -0.0423597023 -0.0281233527
  endloop
 endfacet

 facet normal 0 0 0
  outer loop
  vertex 0.00259042531 -0.0452535301 -0.0264917966
  vertex -0.0035225621 -0.0423597023 -0.0281233527
  vertex 0.00244418997 -0.0419605933 -0.0286396798
  endloop
 endfacet

 facet normal 0 0 0
  outer loop
  vertex 0.00259042531 -0.0452535301 -0.0264917966
  vertex 0.00244418997 -0.0419605933 -0.0286396798
  vertex 0.00592863327 -0.0341615416 -0.0286120642
  endloop
 endfacet

 facet normal 0 0 0
  outer loop
  vertex 0.00592863327 -0.0341615416 -0.0286120642
  vertex 0.00698953308 -0.0348712131 -0.026482217
  vertex 0.00348482397 -0.0456511714 -0.024761416
  endloop
 endfacet

 facet normal 0 0 0
  outer loop
  vertex 0.00592863327 -0.0341615416 -0.0286120642
  vertex 0.00348482397 -0.0456511714 -0.024761416
  vertex 0.00259042531 -0.0452535301 -0.0264917966
  endloop
 endfacet

 facet normal 0 0 0
  outer loop
  vertex 0.00259042531 -0.0452535301 -0.0264917966
  vertex 0.00348482397 -0.0456511714 -0.024761416
  vertex -0.00321506499 -0.0459535085 -0.0247794036
  endloop
 endfacet

 facet normal 0 0 0
  outer loop
  vertex -0.00321187708 -0.0454009734 -0.0226508602
  vertex -0.00321506499 -0.0459535085 -0.0247794036
  vertex 0.00318812835 -0.0453974009 -0.0226613674
  endloop
 endfacet

 facet normal 0 0 0
  outer loop
  vertex -0.00321187708 -0.0454009734 -0.0226508602
  vertex 0.00318812835 -0.0453974009 -0.0226613674
  vertex 0.0031945745 -0.0401939414 -0.0169651788
  endloop
 endfacet

 facet normal 0 0 0
  outer loop
  vertex -0.00321187708 -0.0454009734 -0.0226508602
  vertex 0.0031945745 -0.0401939414 -0.0169651788
  vertex -0.00320542278 -0.040197514 -0.0169546697
  endloop
 endfacet

 facet normal 0 0 0
  outer loop
  vertex -0.00321187708 -0.0454009734 -0.0226508602
  vertex -0.00320542278 -0.040197514 -0.0169546697
  vertex -0.00723108696 -0.0329943113 -0.0233970471
  endloop
 endfacet

 facet normal 0 0 0
  outer loop
  vertex -0.00133526127 0.000681692618 -0.000250778918
  vertex -4.4566832e-06 0.00239118887 -0.00190190366
  vertex -0.00437169662 0.0016857601 -0.00246570189
  endloop
 endfacet

 facet normal 0 0 0
  outer loop
  vertex -0.00133526127 0.000681692618 -0.000250778918
  vertex -0.00437169662 0.0016857601 -0.00246570189
  vertex -0.0046860138 -8.20451824e-05 -0.000992710819
  endloop
 endfacet

 facet normal 0 0 0
  outer loop
  vertex -0.00133526127 0.000681692618 -0.000250778918
  vertex -0.0046860138 -8.20451824e-05 -0.000992710819
  vertex -0.00394686172 -0.0028147928 -0.00036703379
  endloop
 endfacet

 facet normal 0 0 0
  outer loop
  vertex -0.00133526127 0.000681692618 -0.000250778918
  vertex -0.00394686172 -0.0028147928 -0.00036703379
  vertex 0.00233478029 -0.001369184 0.000142798322
  endloop
 endfacet

 facet normal 0 0 0
  outer loop
  vertex -0.00133526127 0.000681692618 -0.000250778918
  vertex 0.00233478029 -0.001369184 0.000142798322
  vertex 0.00441833865 0.00160666555 -0.00232086028
  endloop
 endfacet

 facet normal 0 0 0
  outer loop
  vertex -0.00133526127 0.000681692618 -0.000250778918
  vertex 0.00441833865 0.00160666555 -0.00232086028
  vertex -4.4566832e-06 0.00239118887 -0.00190190366
  endloop
 endfacet

 facet normal 0 0 0
  outer loop
  vertex 0.000813321036 -0.00740822218 -0.00162975816
  vertex 0.00233478029 -0.001369184 0.000142798322
  vertex -0.00394686172 -0.0028147928 -0.00036703379
  endloop
 endfacet

 facet normal 0 0 0
  outer loop
  vertex 0.000813321036 -0.00740822218 -0.00162975816
  vertex -0.00394686172 -0.0028147928 -0.00036703379
  vertex -0.00320542278 -0.040197514 -0.0169546697
  endloop
 endfacet

 facet normal 0 0 0
  outer loop
  vertex 0.000813321036 -0.00740822218 -0.00162975816
  vertex -0.00320542278 -0.040197514 -0.0169546697
  vertex 0.0031945745 -0.0401939414 -0.0169651788
  endloop
 endfacet

 facet normal 0 0 0
  outer loop
  vertex 0.000813321036 -0.00740822218 -0.00162975816
  vertex 0.0031945745 -0.0401939414 -0.0169651788
  vertex 0.00513169495 -0.0049919351 -0.00160937547
  endloop
 endfacet

 facet normal 0 0 0
  outer loop
  vertex 0.000813321036 -0.00740822218 -0.00162975816
  vertex 0.00513169495 -0.0049919351 -0.00160937547
  vertex 0.00233478029 -0.001369184 0.000142798322
  endloop
 endfacet

 facet normal 0 0 0
  outer loop
  vertex 0.00673849788 -0.00401488552 -0.00811778568
  vertex 0.00640513282 -0.00407878216 -0.00350812892
  vertex 0.00703191338 -0.0322770067 -0.0214164164
  endloop
 endfacet

 facet normal 0 0 0
  outer loop
  vertex 0.00673849788 -0.00401488552 -0.00811778568
  vertex 0.00703191338 -0.0322770067 -0.0214164164
  vertex 0.00698953308 -0.0348712131 -0.026482217
  endloop
 endfacet

 facet normal 0 0 0
  outer loop
  vertex 0.00673849788 -0.00401488552 -0.00811778568
  vertex 0.00698953308 -0.0348712131 -0.026482217
  vertex 0.00686781993 -0.0133517906 -0.0173498858
  endloop
 endfacet

 facet normal 0 0 0
  outer loop
  vertex 0.00673849788 -0.00401488552 -0.00811778568
  vertex 0.00686781993 -0.0133517906 -0.0173498858
  vertex 0.00486690877 -0.0117388591 -0.0190425534
  endloop
 endfacet

 facet normal 0 0 0
  outer loop
  vertex 0.00673849788 -0.00401488552 -0.00811778568
  vertex 0.00486690877 -0.0117388591 -0.0190425534
  vertex 0.00549701508 8.25958068e-06 -0.00560635002
  endloop
 endfacet

 facet normal 0 0 0
  outer loop
  vertex 0.00673849788 -0.00401488552 -0.00811778568
  vertex 0.00549701508 8.25958068e-06 -0.00560635002
  vertex 0.00640513282 -0.00407878216 -0.00350812892
  endloop
 endfacet

 facet normal 0 0 0
  outer loop
  vertex 0.00280460832 -0.00172248227 -0.00937336963
  vertex 0.00486690877 -0.0117388591 -0.0190425534
  vertex -0.00262077362 -0.00782598089 -0.0160712693
  endloop
 endfacet

 facet normal 0 0 0
  outer loop
  vertex 0.00280460832 -0.00172248227 -0.00937336963
  vertex -0.00262077362 -0.00782598089 -0.0160712693
  vertex -0.00118363672 1.60526779e-05 -0.00738101639
  endloop
 endfacet

 facet normal 0 0 0
  outer loop
  vertex 0.00280460832 -0.00172248227 -0.00937336963
  vertex -0.00118363672 1.60526779e-05 -0.00738101639
  vertex 0.00549701508 8.25958068e-06 -0.00560635002
  endloop
 endfacet

 facet normal 0 0 0
  outer loop
  vertex 0.00280460832 -0.00172248227 -0.00937336963
  vertex 0.00549701508 8.25958068e-06 -0.00560635002
  vertex 0.00486690877 -0.0117388591 -0.0190425534
  endloop
 endfacet

 facet normal 0 0 0
  outer loop
  vertex -0.00603481242 -0.00186849968 -0.00243716338
  vertex -0.0059330943 -0.00645316625 -0.00290565193
  vertex -0.00394686172 -0.0028147928 -0.00036703379
  endloop
 endfacet

 facet normal 0 0 0
  outer loop
  vertex -0.00603481242 -0.00186849968 -0.00243716338
  vertex -0.00394686172 -0.0028147928 -0.00036703379
  vertex -0.0046860138 -8.20451824e-05 -0.000992710819
  endloop
 endfacet

 facet normal 0 0 0
  outer loop
  vertex -0.00603481242 -0.00186849968 -0.00243716338
  vertex -0.0046860138 -8.20451824e-05 -0.000992710819
  vertex -0.00437169662 0.0016857601 -0.00246570189
  endloop
 endfacet

 facet normal 0 0 0
  outer loop
  vertex -0.00603481242 -0.00186849968 -0.00243716338
  vertex -0.00437169662 0.0016857601 -0.00246570189
  vertex -0.00585862435 -0.000107805172 -0.0050973543
  endloop
 endfacet

 facet normal 0 0 0
  outer loop
  vertex -0.00603481242 -0.00186849968 -0.00243716338
  vertex -0.00585862435 -0.000107805172 -0.0050973543
  vertex -0.00694456045 -0.00720501924 -0.0109907631
  endloop
 endfacet

endsolid AssimpScene
