solid AssimpScene
 facet normal 0 0 0
  outer loop
  vertex 0.0150482124 0.0193339437 -4.52995336e-10
  vertex 0.024914613 0.00206448371 0.000500000548
  vertex 0.0242350083 -0.0061371373 0.000500000548
  endloop
 endfacet

 facet normal 0 0 0
  outer loop
  vertex 0.0150482124 0.0193339437 -4.52995336e-10
  vertex 0.0242350083 -0.0061371373 0.000500000548
  vertex 0.0209291615 -0.013673705 0.000500000548
  endloop
 endfacet

 facet normal 0 0 0
  outer loop
  vertex 0.0150482124 0.0193339437 -4.52995336e-10
  vertex 0.0209291615 -0.013673705 0.000500000548
  vertex 0.0153553179 -0.0197285134 0.000500000548
  endloop
 endfacet

 facet normal 0 0 0
  outer loop
  vertex 0.0150482124 0.0193339437 -4.52995336e-10
  vertex 0.0153553179 -0.0197285134 0.000500000548
  vertex 0.00358155719 -0.0216633435 -4.52995336e-10
  endloop
 endfacet

 facet normal 0 0 0
  outer loop
  vertex 0.0140889427 0.0322829969 0.0338534676
  vertex 0.0109762168 0.0321009941 0.108146429
  vertex 0.024914613 0.00206448371 0.0134000005
  endloop
 endfacet

 facet normal 0 0 0
  outer loop
  vertex 0.0140889427 0.0322829969 0.0338534676
  vertex 0.024914613 0.00206448371 0.0134000005
  vertex 0.0229140557 0.0099973008 0.000500000548
  endloop
 endfacet

 facet normal 0 0 0
  outer loop
  vertex -0.024914613 -0.00206448371 0.000500000548
  vertex -0.020697603 -0.0312194638 0.0859523714
  vertex -0.0250000004 0 0.00800000131
  endloop
 endfacet

 facet normal 0 0 0
  outer loop
  vertex -0.0200992245 -0.0294555407 0.0571124591
  vertex 0.00130913628 -0.0382411107 0.0303629003
  vertex -0.020697603 -0.0312194638 0.0859523714
  endloop
 endfacet

 facet normal 0 0 0
  outer loop
  vertex -0.0200992245 -0.0294555407 0.0571124591
  vertex -0.020697603 -0.0312194638 0.0859523714
  vertex -0.024914613 -0.00206448371 0.000500000548
  endloop
 endfacet

 facet normal 0 0 0
  outer loop
  vertex -0.0200992245 -0.0294555407 0.0571124591
  vertex -0.024914613 -0.00206448371 0.000500000548
  vertex -0.0209291615 -0.013673705 0.000500000548
  endloop
 endfacet

 facet normal 0 0 0
  outer loop
  vertex 0.00427980488 -0.0246309415 0.000500000548
  vertex 0.00358155719 -0.0216633435 -4.52995336e-10
  vertex 0.0153553179 -0.0197285134 0.000500000548
  endloop
 endfacet

 facet normal 0 0 0
  outer loop
  vertex 0.00427980488 -0.0246309415 0.000500000548
  vertex 0.00130913628 -0.0382411107 0.0303629003
  vertex -0.00811748672 -0.0236454327 0.000500000548
  endloop
 endfacet

 facet normal 0 0 0
  outer loop
  vertex 0.00427980488 -0.0246309415 0.000500000548
  vertex -0.00811748672 -0.0236454327 0.000500000548
  vertex 0.00358155719 -0.0216633435 -4.52995336e-10
  endloop
 endfacet

 facet normal 0 0 0
  outer loop
  vertex 0.0208604056 -0.0315712318 0.0449111909
  vertex 0.023188265 -0.028535204 0.0246109888
  vertex 0.023360407 -0.0272411127 0.0449109748
  endloop
 endfacet

 facet normal 0 0 0
  outer loop
  vertex 0.024914613 0.00206448371 0.0134000005
  vertex 0.0109762168 0.0321009941 0.108146429
  vertex 0.023360407 -0.0272411127 0.0449109748
  endloop
 endfacet

 facet normal 0 0 0
  outer loop
  vertex -0.0194506794 0.0287996475 0.0556053668
  vertex -0.0200489592 0.0318198726 0.0843408927
  vertex 0.0085794488 0.0340829976 0.0329670236
  endloop
 endfacet

 facet normal 0 0 0
  outer loop
  vertex 0.0085794488 0.0340829976 0.0329670236
  vertex -0.00411486486 0.024659032 0.000500000548
  vertex -0.0120110549 0.0219256599 0.000500000548
  endloop
 endfacet

 facet normal 0 0 0
  outer loop
  vertex 0.0085794488 0.0340829976 0.0329670236
  vertex -0.0120110549 0.0219256599 0.000500000548
  vertex -0.0194506794 0.0287996475 0.0556053668
  endloop
 endfacet

 facet normal 0 0 0
  outer loop
  vertex 0.0196527299 -0.0320707336 0.024611298
  vertex 0.00427980488 -0.0246309415 0.000500000548
  vertex 0.0153553179 -0.0197285134 0.000500000548
  endloop
 endfacet

 facet normal 0 0 0
  outer loop
  vertex 0.0196527299 -0.0320707336 0.024611298
  vertex 0.023188265 -0.028535204 0.0246109888
  vertex 0.0208604056 -0.0315712318 0.0449111909
  endloop
 endfacet

 facet normal 0 0 0
  outer loop
  vertex 0.00811748672 0.0236454327 0.000500000548
  vertex -0.00411486486 0.024659032 0.000500000548
  vertex 0.0085794488 0.0340829976 0.0329670236
  endloop
 endfacet

 facet normal 0 0 0
  outer loop
  vertex 0.00811748672 0.0236454327 0.000500000548
  vertex 0.0150482124 0.0193339437 -4.52995336e-10
  vertex -0.00411486486 0.024659032 0.000500000548
  endloop
 endfacet

 facet normal 0 0 0
  outer loop
  vertex -0.0120110549 0.0219256599 0.000500000548
  vertex -0.0209667664 0.0136159761 0.000500000548
  vertex -0.0194506794 0.0287996475 0.0556053668
  endloop
 endfacet

 facet normal 0 0 0
  outer loop
  vertex -0.0120110549 0.0219256599 0.000500000548
  vertex -0.00411486486 0.024659032 0.000500000548
  vertex 0.0150482124 0.0193339437 -4.52995336e-10
  endloop
 endfacet

 facet normal 0 0 0
  outer loop
  vertex -0.0120110549 0.0219256599 0.000500000548
  vertex 0.0150482124 0.0193339437 -4.52995336e-10
  vertex -0.0242422372 0.00610851031 0.000500000548
  endloop
 endfacet

 facet normal 0 0 0
  outer loop
  vertex -0.0120110549 0.0219256599 0.000500000548
  vertex -0.0242422372 0.00610851031 0.000500000548
  vertex -0.0209667664 0.0136159761 0.000500000548
  endloop
 endfacet

 facet normal 0 0 0
  outer loop
  vertex -0.0212832913 0.0054750191 0.0865175948
  vertex -0.0212833285 0.0299795642 0.0845086128
  vertex -0.0250000004 0 0.00800000131
  endloop
 endfacet

 facet normal 0 0 0
  outer loop
  vertex -0.0212832913 0.0054750191 0.0865175948
  vertex -0.0250000004 0 0.00800000131
  vertex -0.020697603 -0.0312194638 0.0859523714
  endloop
 endfacet

 facet normal 0 0 0
  outer loop
  vertex 0.00111004664 -0.0344424434 0.0930153355
  vertex 0.0100360457 -0.0319257602 0.109199323
  vertex -0.00135533046 -0.031631276 0.107660614
  endloop
 endfacet

 facet normal 0 0 0
  outer loop
  vertex 0.00111004664 -0.0344424434 0.0930153355
  vertex -0.00135533046 -0.031631276 0.107660614
  vertex -0.020697603 -0.0312194638 0.0859523714
  endloop
 endfacet

 facet normal 0 0 0
  outer loop
  vertex 0.0150482124 0.0193339437 -4.52995336e-10
  vertex 0.00358155719 -0.0216633435 -4.52995336e-10
  vertex -0.0153553179 -0.0197285134 0.000500000548
  endloop
 endfacet

 facet normal 0 0 0
  outer loop
  vertex 0.0150482124 0.0193339437 -4.52995336e-10
  vertex -0.0153553179 -0.0197285134 0.000500000548
  vertex -0.0209291615 -0.013673705 0.000500000548
  endloop
 endfacet

 facet normal 0 0 0
  outer loop
  vertex 0.0150482124 0.0193339437 -4.52995336e-10
  vertex -0.0209291615 -0.013673705 0.000500000548
  vertex -0.024914613 -0.00206448371 0.000500000548
  endloop
 endfacet

 facet normal 0 0 0
  outer loop
  vertex 0.0150482124 0.0193339437 -4.52995336e-10
  vertex -0.024914613 -0.00206448371 0.000500000548
  vertex -0.0242422372 0.00610851031 0.000500000548
  endloop
 endfacet

 facet normal 0 0 0
  outer loop
  vertex -0.0242422372 0.00610851031 0.000500000548
  vertex -0.024914613 -0.00206448371 0.000500000548
  vertex -0.0250000004 0 0.00800000131
  endloop
 endfacet

 facet normal 0 0 0
  outer loop
  vertex 0.024914613 0.00206448371 0.000500000548
  vertex 0.0229140557 0.0099973008 0.000500000548
  vertex 0.024914613 0.00206448371 0.0134000005
  endloop
 endfacet

 facet normal 0 0 0
  outer loop
  vertex 0.023188265 -0.028535204 0.0246109888
  vertex 0.0242350083 -0.0061371373 0.000500000548
  vertex 0.024914613 0.00206448371 0.000500000548
  endloop
 endfacet

 facet normal 0 0 0
  outer loop
  vertex 0.023188265 -0.028535204 0.0246109888
  vertex 0.024914613 0.00206448371 0.000500000548
  vertex 0.024914613 0.00206448371 0.0134000005
  endloop
 endfacet

 facet normal 0 0 0
  outer loop
  vertex 0.023188265 -0.028535204 0.0246109888
  vertex 0.024914613 0.00206448371 0.0134000005
  vertex 0.023360407 -0.0272411127 0.0449109748
  endloop
 endfacet

 facet normal 0 0 0
  outer loop
  vertex 0.024914613 0.00206448371 0.000500000548
  vertex 0.0150482124 0.0193339437 -4.52995336e-10
  vertex 0.0229140557 0.0099973008 0.000500000548
  endloop
 endfacet

 facet normal 0 0 0
  outer loop
  vertex -0.0153553179 -0.0197285134 0.000500000548
  vertex -0.00811748672 -0.0236454327 0.000500000548
  vertex 0.00130913628 -0.0382411107 0.0303629003
  endloop
 endfacet

 facet normal 0 0 0
  outer loop
  vertex -0.0153553179 -0.0197285134 0.000500000548
  vertex 0.00130913628 -0.0382411107 0.0303629003
  vertex -0.0200992245 -0.0294555407 0.0571124591
  endloop
 endfacet

 facet normal 0 0 0
  outer loop
  vertex -0.0153553179 -0.0197285134 0.000500000548
  vertex -0.0200992245 -0.0294555407 0.0571124591
  vertex -0.0209291615 -0.013673705 0.000500000548
  endloop
 endfacet

 facet normal 0 0 0
  outer loop
  vertex -0.0153553179 -0.0197285134 0.000500000548
  vertex 0.00358155719 -0.0216633435 -4.52995336e-10
  vertex -0.00811748672 -0.0236454327 0.000500000548
  endloop
 endfacet

 facet normal 0 0 0
  outer loop
  vertex -0.000569498749 -0.00461770035 0.108911887
  vertex -0.00135532254 0.0245905314 0.106899537
  vertex -0.00135532254 0.0327456109 0.106042407
  endloop
 endfacet

 facet normal 0 0 0
  outer loop
  vertex -0.000569498749 -0.00461770035 0.108911887
  vertex -0.00135532254 0.0327456109 0.106042407
  vertex -0.0064951689 0.0261087045 0.102210447
  endloop
 endfacet

 facet normal 0 0 0
  outer loop
  vertex -0.000569498749 -0.00461770035 0.108911887
  vertex -0.0064951689 0.0261087045 0.102210447
  vertex -0.00649522757 -0.00661769975 0.10391932
  endloop
 endfacet

 facet normal 0 0 0
  outer loop
  vertex -0.000569498749 -0.00461770035 0.108911887
  vertex -0.00649522757 -0.00661769975 0.10391932
  vertex -0.00649516145 -0.0293599982 0.103286386
  endloop
 endfacet

 facet normal 0 0 0
  outer loop
  vertex -0.000569498749 -0.00461770035 0.108911887
  vertex -0.00649516145 -0.0293599982 0.103286386
  vertex -0.00135533046 -0.031631276 0.107660614
  endloop
 endfacet

 facet normal 0 0 0
  outer loop
  vertex 0.023360407 -0.0272411127 0.0449109748
  vertex 0.0109762168 0.0321009941 0.108146429
  vertex 0.0109342132 -0.00561769959 0.110544272
  endloop
 endfacet

 facet normal 0 0 0
  outer loop
  vertex 0.023360407 -0.0272411127 0.0449109748
  vertex 0.0109342132 -0.00561769959 0.110544272
  vertex 0.0116736814 -0.0257818308 0.107848443
  endloop
 endfacet

 facet normal 0 0 0
  outer loop
  vertex 0.0209291615 -0.013673705 0.000500000548
  vertex 0.023188265 -0.028535204 0.0246109888
  vertex 0.0196527299 -0.0320707336 0.024611298
  endloop
 endfacet

 facet normal 0 0 0
  outer loop
  vertex 0.0209291615 -0.013673705 0.000500000548
  vertex 0.0196527299 -0.0320707336 0.024611298
  vertex 0.0153553179 -0.0197285134 0.000500000548
  endloop
 endfacet

 facet normal 0 0 0
  outer loop
  vertex 0.0209291615 -0.013673705 0.000500000548
  vertex 0.0242350083 -0.0061371373 0.000500000548
  vertex 0.023188265 -0.028535204 0.0246109888
  endloop
 endfacet

 facet normal 0 0 0
  outer loop
  vertex 0.00945045985 0.0134379398 0.110440128
  vertex 0.00945055205 0.0320230052 0.108734064
  vertex -0.00135532254 0.0245905314 0.106899537
  endloop
 endfacet

 facet normal 0 0 0
  outer loop
  vertex 0.00945045985 0.0134379398 0.110440128
  vertex -0.00135532254 0.0245905314 0.106899537
  vertex -0.000569498749 -0.00461770035 0.108911887
  endloop
 endfacet

 facet normal 0 0 0
  outer loop
  vertex 0.00945045985 0.0134379398 0.110440128
  vertex -0.000569498749 -0.00461770035 0.108911887
  vertex 0.0094504552 -0.0113177001 0.11102549
  endloop
 endfacet

 facet normal 0 0 0
  outer loop
  vertex -0.0212833285 0.0299795642 0.0845086128
  vertex -0.00135532254 0.0327456109 0.106042407
  vertex -0.0200489592 0.0318198726 0.0843408927
  endloop
 endfacet

 facet normal 0 0 0
  outer loop
  vertex -0.0212833285 0.0299795642 0.0845086128
  vertex -0.0200489592 0.0318198726 0.0843408927
  vertex -0.0194506794 0.0287996475 0.0556053668
  endloop
 endfacet

 facet normal 0 0 0
  outer loop
  vertex -0.0212833285 0.0299795642 0.0845086128
  vertex -0.0194506794 0.0287996475 0.0556053668
  vertex -0.0209667664 0.0136159761 0.000500000548
  endloop
 endfacet

 facet normal 0 0 0
  outer loop
  vertex -0.0212833285 0.0299795642 0.0845086128
  vertex -0.0209667664 0.0136159761 0.000500000548
  vertex -0.0242422372 0.00610851031 0.000500000548
  endloop
 endfacet

 facet normal 0 0 0
  outer loop
  vertex -0.0212833285 0.0299795642 0.0845086128
  vertex -0.0242422372 0.00610851031 0.000500000548
  vertex -0.0250000004 0 0.00800000131
  endloop
 endfacet

 facet normal 0 0 0
  outer loop
  vertex 0.00111004664 -0.0344424434 0.0930153355
  vertex -0.020697603 -0.0312194638 0.0859523714
  vertex 0.00130913628 -0.0382411107 0.0303629003
  endloop
 endfacet

 facet normal 0 0 0
  outer loop
  vertex 0.00111004664 -0.0344424434 0.0930153355
  vertex 0.00130913628 -0.0382411107 0.0303629003
  vertex 0.00380990584 -0.0382411107 0.0391626805
  endloop
 endfacet

 facet normal 0 0 0
  outer loop
  vertex 0.00945053529 -0.0307919532 0.110318221
  vertex 0.0094504552 -0.0113177001 0.11102549
  vertex -0.000569498749 -0.00461770035 0.108911887
  endloop
 endfacet

 facet normal 0 0 0
  outer loop
  vertex 0.00945053529 -0.0307919532 0.110318221
  vertex -0.000569498749 -0.00461770035 0.108911887
  vertex -0.00135533046 -0.031631276 0.107660614
  endloop
 endfacet

 facet normal 0 0 0
  outer loop
  vertex 0.00945053529 -0.0307919532 0.110318221
  vertex -0.00135533046 -0.031631276 0.107660614
  vertex 0.0100360457 -0.0319257602 0.109199323
  endloop
 endfacet

 facet normal 0 0 0
  outer loop
  vertex 0.0117397476 -0.0307514202 0.107198477
  vertex 0.023360407 -0.0272411127 0.0449109748
  vertex 0.0116736814 -0.0257818308 0.107848443
  endloop
 endfacet

 facet normal 0 0 0
  outer loop
  vertex 0.0117397476 -0.0307514202 0.107198477
  vertex 0.0100360457 -0.0319257602 0.109199323
  vertex 0.0208604056 -0.0315712318 0.0449111909
  endloop
 endfacet

 facet normal 0 0 0
  outer loop
  vertex 0.0117397476 -0.0307514202 0.107198477
  vertex 0.0208604056 -0.0315712318 0.0449111909
  vertex 0.023360407 -0.0272411127 0.0449109748
  endloop
 endfacet

 facet normal 0 0 0
  outer loop
  vertex 0.0109342132 -0.00561769959 0.110544272
  vertex 0.0109762168 0.0321009941 0.108146429
  vertex 0.00945045985 0.0134379398 0.110440128
  endloop
 endfacet

 facet normal 0 0 0
  outer loop
  vertex 0.0109342132 -0.00561769959 0.110544272
  vertex 0.00945045985 0.0134379398 0.110440128
  vertex 0.0094504552 -0.0113177001 0.11102549
  endloop
 endfacet

 facet normal 0 0 0
  outer loop
  vertex 0.0116598858 0.0340829976 0.034628626
  vertex 0.0140889427 0.0322829969 0.0338534676
  vertex 0.0150482124 0.0193339437 -4.52995336e-10
  endloop
 endfacet

 facet normal 0 0 0
  outer loop
  vertex 0.0116598858 0.0340829976 0.034628626
  vertex 0.0150482124 0.0193339437 -4.52995336e-10
  vertex 0.00811748672 0.0236454327 0.000500000548
  endloop
 endfacet

 facet normal 0 0 0
  outer loop
  vertex 0.0116598858 0.0340829976 0.034628626
  vertex 0.00811748672 0.0236454327 0.000500000548
  vertex 0.0085794488 0.0340829976 0.0329670236
  endloop
 endfacet

 facet normal 0 0 0
  outer loop
  vertex 0.018452974 0.0168667641 0.000500000548
  vertex 0.0140889427 0.0322829969 0.0338534676
  vertex 0.0229140557 0.0099973008 0.000500000548
  endloop
 endfacet

 facet normal 0 0 0
  outer loop
  vertex 0.018452974 0.0168667641 0.000500000548
  vertex 0.0229140557 0.0099973008 0.000500000548
  vertex 0.0150482124 0.0193339437 -4.52995336e-10
  endloop
 endfacet

 facet normal 0 0 0
  outer loop
  vertex 0.018452974 0.0168667641 0.000500000548
  vertex 0.0150482124 0.0193339437 -4.52995336e-10
  vertex 0.0140889427 0.0322829969 0.0338534676
  endloop
 endfacet

 facet normal 0 0 0
  outer loop
  vertex 0.010935612 -0.0307917763 0.109833159
  vertex 0.00945053529 -0.0307919532 0.110318221
  vertex 0.0100360457 -0.0319257602 0.109199323
  endloop
 endfacet

 facet normal 0 0 0
  outer loop
  vertex 0.010935612 -0.0307917763 0.109833159
  vertex 0.0100360457 -0.0319257602 0.109199323
  vertex 0.0117397476 -0.0307514202 0.107198477
  endloop
 endfacet

 facet normal 0 0 0
  outer loop
  vertex 0.010935612 -0.0307917763 0.109833159
  vertex 0.0117397476 -0.0307514202 0.107198477
  vertex 0.0116736814 -0.0257818308 0.107848443
  endloop
 endfacet

 facet normal 0 0 0
  outer loop
  vertex 0.010935612 -0.0307917763 0.109833159
  vertex 0.0116736814 -0.0257818308 0.107848443
  vertex 0.0109342132 -0.00561769959 0.110544272
  endloop
 endfacet

 facet normal 0 0 0
  outer loop
  vertex 0.010935612 -0.0307917763 0.109833159
  vertex 0.0109342132 -0.00561769959 0.110544272
  vertex 0.0094504552 -0.0113177001 0.11102549
  endloop
 endfacet

 facet normal 0 0 0
  outer loop
  vertex 0.010935612 -0.0307917763 0.109833159
  vertex 0.0094504552 -0.0113177001 0.11102549
  vertex 0.00945053529 -0.0307919532 0.110318221
  endloop
 endfacet

 facet normal 0 0 0
  outer loop
  vertex 0.00992671866 0.0331063606 0.107763886
  vertex 0.0109762168 0.0321009941 0.108146429
  vertex 0.0140889427 0.0322829969 0.0338534676
  endloop
 endfacet

 facet normal 0 0 0
  outer loop
  vertex 0.00992671866 0.0331063606 0.107763886
  vertex 0.0140889427 0.0322829969 0.0338534676
  vertex 0.0116598858 0.0340829976 0.034628626
  endloop
 endfacet

 facet normal 0 0 0
  outer loop
  vertex 0.00992671866 0.0331063606 0.107763886
  vertex 0.0116598858 0.0340829976 0.034628626
  vertex 0.00691000605 0.0349152833 0.0912884101
  endloop
 endfacet

 facet normal 0 0 0
  outer loop
  vertex 0.00691004703 -0.0344424434 0.093015328
  vertex 0.00111004664 -0.0344424434 0.0930153355
  vertex 0.00380990584 -0.0382411107 0.0391626805
  endloop
 endfacet

 facet normal 0 0 0
  outer loop
  vertex 0.00691004703 -0.0344424434 0.093015328
  vertex 0.00380990584 -0.0382411107 0.0391626805
  vertex 0.00380913774 -0.0382411107 0.0303626787
  endloop
 endfacet

 facet normal 0 0 0
  outer loop
  vertex 0.00691004703 -0.0344424434 0.093015328
  vertex 0.00380913774 -0.0382411107 0.0303626787
  vertex 0.0196527299 -0.0320707336 0.024611298
  endloop
 endfacet

 facet normal 0 0 0
  outer loop
  vertex 0.00691004703 -0.0344424434 0.093015328
  vertex 0.0196527299 -0.0320707336 0.024611298
  vertex 0.0208604056 -0.0315712318 0.0449111909
  endloop
 endfacet

 facet normal 0 0 0
  outer loop
  vertex 0.00691004703 -0.0344424434 0.093015328
  vertex 0.0208604056 -0.0315712318 0.0449111909
  vertex 0.0100360457 -0.0319257602 0.109199323
  endloop
 endfacet

 facet normal 0 0 0
  outer loop
  vertex 0.00691004703 -0.0344424434 0.093015328
  vertex 0.0100360457 -0.0319257602 0.109199323
  vertex 0.00111004664 -0.0344424434 0.0930153355
  endloop
 endfacet

 facet normal 0 0 0
  outer loop
  vertex -0.00649516145 -0.0293599982 0.103286386
  vertex -0.00649522757 -0.00661769975 0.10391932
  vertex -0.0212832913 0.0054750191 0.0865175948
  endloop
 endfacet

 facet normal 0 0 0
  outer loop
  vertex -0.00649516145 -0.0293599982 0.103286386
  vertex -0.0212832913 0.0054750191 0.0865175948
  vertex -0.020697603 -0.0312194638 0.0859523714
  endloop
 endfacet

 facet normal 0 0 0
  outer loop
  vertex -0.00649516145 -0.0293599982 0.103286386
  vertex -0.020697603 -0.0312194638 0.0859523714
  vertex -0.00135533046 -0.031631276 0.107660614
  endloop
 endfacet

 facet normal 0 0 0
  outer loop
  vertex 0.00945055205 0.0320230052 0.108734064
  vertex -0.00135532254 0.0327456109 0.106042407
  vertex -0.00135532254 0.0245905314 0.106899537
  endloop
 endfacet

 facet normal 0 0 0
  outer loop
  vertex 0.00945055205 0.0320230052 0.108734064
  vertex 0.00945045985 0.0134379398 0.110440128
  vertex 0.0109762168 0.0321009941 0.108146429
  endloop
 endfacet

 facet normal 0 0 0
  outer loop
  vertex 0.00945055205 0.0320230052 0.108734064
  vertex 0.0109762168 0.0321009941 0.108146429
  vertex 0.00992671866 0.0331063606 0.107763886
  endloop
 endfacet

 facet normal 0 0 0
  outer loop
  vertex 0.00945055205 0.0320230052 0.108734064
  vertex 0.00992671866 0.0331063606 0.107763886
  vertex -0.00135532254 0.0327456109 0.106042407
  endloop
 endfacet

 facet normal 0 0 0
  outer loop
  vertex 0.00111000624 0.034915287 0.0912884325
  vertex -0.00135532254 0.0327456109 0.106042407
  vertex 0.00992671866 0.0331063606 0.107763886
  endloop
 endfacet

 facet normal 0 0 0
  outer loop
  vertex 0.00111000624 0.034915287 0.0912884325
  vertex 0.00992671866 0.0331063606 0.107763886
  vertex 0.00691000605 0.0349152833 0.0912884101
  endloop
 endfacet

 facet normal 0 0 0
  outer loop
  vertex 0.00111000624 0.034915287 0.0912884325
  vertex 0.00691000605 0.0349152833 0.0912884101
  vertex 0.0116598858 0.0340829976 0.034628626
  endloop
 endfacet

 facet normal 0 0 0
  outer loop
  vertex 0.00111000624 0.034915287 0.0912884325
  vertex 0.0116598858 0.0340829976 0.034628626
  vertex 0.0085794488 0.0340829976 0.0329670236
  endloop
 endfacet

 facet normal 0 0 0
  outer loop
  vertex 0.00111000624 0.034915287 0.0912884325
  vertex 0.0085794488 0.0340829976 0.0329670236
  vertex -0.0200489592 0.0318198726 0.0843408927
  endloop
 endfacet

 facet normal 0 0 0
  outer loop
  vertex 0.00111000624 0.034915287 0.0912884325
  vertex -0.0200489592 0.0318198726 0.0843408927
  vertex -0.00135532254 0.0327456109 0.106042407
  endloop
 endfacet

 facet normal 0 0 0
  outer loop
  vertex -0.0064951689 0.0261087045 0.102210447
  vertex -0.00135532254 0.0327456109 0.106042407
  vertex -0.0212833285 0.0299795642 0.0845086128
  endloop
 endfacet

 facet normal 0 0 0
  outer loop
  vertex -0.0064951689 0.0261087045 0.102210447
  vertex -0.0212833285 0.0299795642 0.0845086128
  vertex -0.0212832913 0.0054750191 0.0865175948
  endloop
 endfacet

 facet normal 0 0 0
  outer loop
  vertex -0.0064951689 0.0261087045 0.102210447
  vertex -0.0212832913 0.0054750191 0.0865175948
  vertex -0.00649522757 -0.00661769975 0.10391932
  endloop
 endfacet

 facet normal 0 0 0
  outer loop
  vertex 0.00380913774 -0.0382411107 0.0303626787
  vertex 0.00380990584 -0.0382411107 0.0391626805
  vertex 0.00130913628 -0.0382411107 0.0303629003
  endloop
 endfacet

 facet normal 0 0 0
  outer loop
  vertex 0.00380913774 -0.0382411107 0.0303626787
  vertex 0.00130913628 -0.0382411107 0.0303629003
  vertex 0.00427980488 -0.0246309415 0.000500000548
  endloop
 endfacet

 facet normal 0 0 0
  outer loop
  vertex 0.00380913774 -0.0382411107 0.0303626787
  vertex 0.00427980488 -0.0246309415 0.000500000548
  vertex 0.0196527299 -0.0320707336 0.024611298
  endloop
 endfacet

endsolid AssimpScene
