solid AssimpScene
 facet normal 0 0 0
  outer loop
  vertex -0.0253072679 0.00714742485 0.0144030787
  vertex -0.0190771185 0.0199549347 0.0142823802
  vertex -0.00334666809 0.0280643106 0.0141430236
  endloop
 endfacet

 facet normal 0 0 0
  outer loop
  vertex -0.0253072679 0.00714742485 0.0144030787
  vertex -0.00334666809 0.0280643106 0.0141430236
  vertex 0.000833219441 0.0281975158 0.0141370194
  endloop
 endfacet

 facet normal 0 0 0
  outer loop
  vertex -0.0253072679 0.00714742485 0.0144030787
  vertex 0.000833219441 0.0281975158 0.0141370194
  vertex 0.000833219441 0.0169795696 0.0140000023
  endloop
 endfacet

 facet normal 0 0 0
  outer loop
  vertex -0.0253072679 0.00714742485 0.0144030787
  vertex 0.000833219441 0.0169795696 0.0140000023
  vertex 0.000833145401 -0.0279188193 0.0140221603
  endloop
 endfacet

 facet normal 0 0 0
  outer loop
  vertex -0.0253072679 0.00714742485 0.0144030787
  vertex 0.000833145401 -0.0279188193 0.0140221603
  vertex -0.0103243552 -0.0257675406 0.0140498029
  endloop
 endfacet

 facet normal 0 0 0
  outer loop
  vertex -0.0253072679 0.00714742485 0.0144030787
  vertex -0.0103243552 -0.0257675406 0.0140498029
  vertex -0.0189021546 -0.0198319163 0.014117714
  endloop
 endfacet

 facet normal 0 0 0
  outer loop
  vertex -0.00371919153 -0.0380986258 0.0196506809
  vertex -0.0203241035 -0.0289675742 0.0261423327
  vertex -0.0189021546 -0.0198319163 0.014117714
  endloop
 endfacet

 facet normal 0 0 0
  outer loop
  vertex 0.00665073609 -0.0400155373 0.0283060074
  vertex 0.00643819524 -0.0382315181 0.0214354433
  vertex 0.00642796326 -0.0335904956 0.0213961434
  endloop
 endfacet

 facet normal 0 0 0
  outer loop
  vertex 0.00665073609 -0.0400155373 0.0283060074
  vertex 0.00642796326 -0.0335904956 0.0213961434
  vertex 0.00683321944 0.0354829952 0.0582999997
  endloop
 endfacet

 facet normal 0 0 0
  outer loop
  vertex 0.00665073609 -0.0400155373 0.0283060074
  vertex 0.00683321944 0.0354829952 0.0582999997
  vertex 0.00683321944 0.0356710665 0.0812632814
  endloop
 endfacet

 facet normal 0 0 0
  outer loop
  vertex 0.00665073609 -0.0400155373 0.0283060074
  vertex 0.00683321944 0.0356710665 0.0812632814
  vertex 0.00683321944 -0.0359094329 0.0827614889
  endloop
 endfacet

 facet normal 0 0 0
  outer loop
  vertex 0.00591474585 -0.0428503789 0.0477191471
  vertex 0.00665073609 -0.0400155373 0.0283060074
  vertex 0.00683321944 -0.0359094329 0.0827614889
  endloop
 endfacet

 facet normal 0 0 0
  outer loop
  vertex -0.0252205878 -0.00815769471 0.0147173889
  vertex -0.0253072679 0.00714742485 0.0144030787
  vertex -0.0189021546 -0.0198319163 0.014117714
  endloop
 endfacet

 facet normal 0 0 0
  outer loop
  vertex 0.00683321944 -0.0359094329 0.0827614889
  vertex 0.00683321944 0.0356710665 0.0812632814
  vertex 0.000833219441 0.0187747777 0.0976548791
  endloop
 endfacet

 facet normal 0 0 0
  outer loop
  vertex 0.00683321944 -0.0359094329 0.0827614889
  vertex 0.000833219441 0.0187747777 0.0976548791
  vertex 0.000833219441 0.00012553783 0.0986830741
  endloop
 endfacet

 facet normal 0 0 0
  outer loop
  vertex -0.00872019865 0.0201159008 0.0989348143
  vertex -0.0225971416 0.0213377289 0.0955277085
  vertex -0.0235648938 -0.00067071896 0.0965946093
  endloop
 endfacet

 facet normal 0 0 0
  outer loop
  vertex -0.00872019865 0.0201159008 0.0989348143
  vertex -0.0235648938 -0.00067071896 0.0965946093
  vertex -0.00818350352 -0.0178929232 0.100113146
  endloop
 endfacet

 facet normal 0 0 0
  outer loop
  vertex -0.00818350352 -0.0178929232 0.100113146
  vertex 0.000833219441 0.00012553783 0.0986830741
  vertex 0.000833219441 0.0187747777 0.0976548791
  endloop
 endfacet

 facet normal 0 0 0
  outer loop
  vertex -0.00818350352 -0.0178929232 0.100113146
  vertex 0.000833219441 0.0187747777 0.0976548791
  vertex -0.00872019865 0.0201159008 0.0989348143
  endloop
 endfacet

 facet normal 0 0 0
  outer loop
  vertex -0.0238259099 0.024639355 0.0271093305
  vertex -0.0187556911 0.0304883663 0.0255590566
  vertex -0.0190771185 0.0199549347 0.0142823802
  endloop
 endfacet

 facet normal 0 0 0
  outer loop
  vertex -0.0238259099 0.024639355 0.0271093305
  vertex -0.0190771185 0.0199549347 0.0142823802
  vertex -0.0253072679 0.00714742485 0.0144030787
  endloop
 endfacet

 facet normal 0 0 0
  outer loop
  vertex -0.0092015788 0.0342083536 0.0240683891
  vertex -0.0108323898 0.036154896 0.033506982
  vertex 0.000833219441 0.0355218872 0.0262875445
  endloop
 endfacet

 facet normal 0 0 0
  outer loop
  vertex 0.000833219441 -0.0359632522 0.0977465957
  vertex 0.00683321944 -0.0359094329 0.0827614889
  vertex 0.000833219441 0.00012553783 0.0986830741
  endloop
 endfacet

 facet normal 0 0 0
  outer loop
  vertex 0.000833219441 -0.0359632522 0.0977465957
  vertex 0.000833219441 0.00012553783 0.0986830741
  vertex -0.00818350352 -0.0178929232 0.100113146
  endloop
 endfacet

 facet normal 0 0 0
  outer loop
  vertex 0.000833219441 -0.0359632522 0.0977465957
  vertex -0.00818350352 -0.0178929232 0.100113146
  vertex -0.00764786964 -0.0358914435 0.0988174006
  endloop
 endfacet

 facet normal 0 0 0
  outer loop
  vertex -0.0237985104 -0.0250926949 0.0272675566
  vertex -0.0252205878 -0.00815769471 0.0147173889
  vertex -0.0189021546 -0.0198319163 0.014117714
  endloop
 endfacet

 facet normal 0 0 0
  outer loop
  vertex -0.0237985104 -0.0250926949 0.0272675566
  vertex -0.0189021546 -0.0198319163 0.014117714
  vertex -0.0203241035 -0.0289675742 0.0261423327
  endloop
 endfacet

 facet normal 0 0 0
  outer loop
  vertex 0.00642796326 -0.0335904956 0.0213961434
  vertex 0.00643819524 -0.0382315181 0.0214354433
  vertex 0.00439031702 -0.0376834124 0.0187130608
  endloop
 endfacet

 facet normal 0 0 0
  outer loop
  vertex 0.00642796326 -0.0335904956 0.0213961434
  vertex 0.00439031702 -0.0376834124 0.0187130608
  vertex 0.000833145401 -0.0279188193 0.0140221603
  endloop
 endfacet

 facet normal 0 0 0
  outer loop
  vertex 0.00642796326 -0.0335904956 0.0213961434
  vertex 0.000833145401 -0.0279188193 0.0140221603
  vertex 0.000833219441 0.0169795696 0.0140000023
  endloop
 endfacet

 facet normal 0 0 0
  outer loop
  vertex 0.00642796326 -0.0335904956 0.0213961434
  vertex 0.000833219441 0.0169795696 0.0140000023
  vertex 0.000833219441 0.0281975158 0.0141370194
  endloop
 endfacet

 facet normal 0 0 0
  outer loop
  vertex 0.00642796326 -0.0335904956 0.0213961434
  vertex 0.000833219441 0.0281975158 0.0141370194
  vertex 0.00683321944 0.0354829952 0.0582999997
  endloop
 endfacet

 facet normal 0 0 0
  outer loop
  vertex 0.000790002348 -0.0411588587 0.0273206346
  vertex 0.00665073609 -0.0400155373 0.0283060074
  vertex 0.00591474585 -0.0428503789 0.0477191471
  endloop
 endfacet

 facet normal 0 0 0
  outer loop
  vertex 0.000790002348 -0.0411588587 0.0273206346
  vertex 0.00591474585 -0.0428503789 0.0477191471
  vertex -0.00269581703 -0.0431572236 0.0466403961
  endloop
 endfacet

 facet normal 0 0 0
  outer loop
  vertex 0.000790002348 -0.0411588587 0.0273206346
  vertex -0.00371919153 -0.0380986258 0.0196506809
  vertex 0.00439031702 -0.0376834124 0.0187130608
  endloop
 endfacet

 facet normal 0 0 0
  outer loop
  vertex -0.00463907467 -0.0408514217 0.0293190517
  vertex -0.00269581703 -0.0431572236 0.0466403961
  vertex -0.0187396277 -0.0350014977 0.0532579906
  endloop
 endfacet

 facet normal 0 0 0
  outer loop
  vertex -0.00463907467 -0.0408514217 0.0293190517
  vertex -0.0182973221 -0.0328972787 0.0343022645
  vertex -0.0203241035 -0.0289675742 0.0261423327
  endloop
 endfacet

 facet normal 0 0 0
  outer loop
  vertex -0.00463907467 -0.0408514217 0.0293190517
  vertex -0.0203241035 -0.0289675742 0.0261423327
  vertex -0.00371919153 -0.0380986258 0.0196506809
  endloop
 endfacet

 facet normal 0 0 0
  outer loop
  vertex -0.00463907467 -0.0408514217 0.0293190517
  vertex -0.00371919153 -0.0380986258 0.0196506809
  vertex 0.000790002348 -0.0411588587 0.0273206346
  endloop
 endfacet

 facet normal 0 0 0
  outer loop
  vertex -0.00463907467 -0.0408514217 0.0293190517
  vertex 0.000790002348 -0.0411588587 0.0273206346
  vertex -0.00269581703 -0.0431572236 0.0466403961
  endloop
 endfacet

 facet normal 0 0 0
  outer loop
  vertex 0.00643819524 -0.0382315181 0.0214354433
  vertex 0.00665073609 -0.0400155373 0.0283060074
  vertex 0.000790002348 -0.0411588587 0.0273206346
  endloop
 endfacet

 facet normal 0 0 0
  outer loop
  vertex 0.00643819524 -0.0382315181 0.0214354433
  vertex 0.000790002348 -0.0411588587 0.0273206346
  vertex 0.00439031702 -0.0376834124 0.0187130608
  endloop
 endfacet

 facet normal 0 0 0
  outer loop
  vertex 0.000676509924 -0.0368202142 0.0172377415
  vertex 0.000833145401 -0.0279188193 0.0140221603
  vertex 0.00439031702 -0.0376834124 0.0187130608
  endloop
 endfacet

 facet normal 0 0 0
  outer loop
  vertex 0.000676509924 -0.0368202142 0.0172377415
  vertex 0.00439031702 -0.0376834124 0.0187130608
  vertex -0.00371919153 -0.0380986258 0.0196506809
  endloop
 endfacet

 facet normal 0 0 0
  outer loop
  vertex -0.0166852977 0.0346857272 0.0387311466
  vertex -0.0127959456 0.0379360765 0.062188141
  vertex -0.0108323898 0.036154896 0.033506982
  endloop
 endfacet

 facet normal 0 0 0
  outer loop
  vertex -0.00355894538 0.0393475257 0.0825998783
  vertex 0.000833219441 0.0388730019 0.0596301109
  vertex 0.000833219441 0.0378887579 0.0425712578
  endloop
 endfacet

 facet normal 0 0 0
  outer loop
  vertex -0.00355894538 0.0393475257 0.0825998783
  vertex 0.000833219441 0.0378887579 0.0425712578
  vertex -0.0127959456 0.0379360765 0.062188141
  endloop
 endfacet

 facet normal 0 0 0
  outer loop
  vertex -0.00355894538 0.0393475257 0.0825998783
  vertex -0.0127959456 0.0379360765 0.062188141
  vertex -0.0125054009 0.0379836187 0.0910457298
  endloop
 endfacet

 facet normal 0 0 0
  outer loop
  vertex -0.0114396606 0.0257935952 0.01448844
  vertex -0.00334666809 0.0280643106 0.0141430236
  vertex -0.0190771185 0.0199549347 0.0142823802
  endloop
 endfacet

 facet normal 0 0 0
  outer loop
  vertex -0.0184435993 -0.0359245762 0.0928011984
  vertex -0.0187396277 -0.0350014977 0.0532579906
  vertex -0.00269581703 -0.0431572236 0.0466403961
  endloop
 endfacet

 facet normal 0 0 0
  outer loop
  vertex -0.0184435993 -0.0359245762 0.0928011984
  vertex -0.00269581703 -0.0431572236 0.0466403961
  vertex -0.0126841189 -0.0384232029 0.091348283
  endloop
 endfacet

 facet normal 0 0 0
  outer loop
  vertex -0.0184435993 -0.0359245762 0.0928011984
  vertex -0.0126841189 -0.0384232029 0.091348283
  vertex -0.00764786964 -0.0358914435 0.0988174006
  endloop
 endfacet

 facet normal 0 0 0
  outer loop
  vertex -0.0184435993 -0.0359245762 0.0928011984
  vertex -0.00764786964 -0.0358914435 0.0988174006
  vertex -0.0226015188 -0.0318390578 0.0941156894
  endloop
 endfacet

 facet normal 0 0 0
  outer loop
  vertex 0.000833236205 0.0393734463 0.0812537298
  vertex 0.000833219441 0.0388730019 0.0596301109
  vertex -0.00355894538 0.0393475257 0.0825998783
  endloop
 endfacet

 facet normal 0 0 0
  outer loop
  vertex 0.000833236205 0.0393734463 0.0812537298
  vertex -0.00355894538 0.0393475257 0.0825998783
  vertex 0.000834795705 0.0378484577 0.0950965062
  endloop
 endfacet

 facet normal 0 0 0
  outer loop
  vertex 0.000833236205 0.0393734463 0.0812537298
  vertex 0.000834795705 0.0378484577 0.0950965062
  vertex 0.00683321944 0.0356710665 0.0812632814
  endloop
 endfacet

 facet normal 0 0 0
  outer loop
  vertex 0.00683321944 0.0356710665 0.0812632814
  vertex 0.00683321944 0.0354829952 0.0582999997
  vertex 0.000833219441 0.0378887579 0.0425712578
  endloop
 endfacet

 facet normal 0 0 0
  outer loop
  vertex 0.00683321944 0.0356710665 0.0812632814
  vertex 0.000833219441 0.0378887579 0.0425712578
  vertex 0.000833219441 0.0388730019 0.0596301109
  endloop
 endfacet

 facet normal 0 0 0
  outer loop
  vertex 0.00683321944 0.0356710665 0.0812632814
  vertex 0.000833219441 0.0388730019 0.0596301109
  vertex 0.000833236205 0.0393734463 0.0812537298
  endloop
 endfacet

 facet normal 0 0 0
  outer loop
  vertex -0.0184548926 0.0355689526 0.0923490152
  vertex -0.0125054009 0.0379836187 0.0910457298
  vertex -0.0127959456 0.0379360765 0.062188141
  endloop
 endfacet

 facet normal 0 0 0
  outer loop
  vertex -0.0184548926 0.0355689526 0.0923490152
  vertex -0.0127959456 0.0379360765 0.062188141
  vertex -0.0166852977 0.0346857272 0.0387311466
  endloop
 endfacet

 facet normal 0 0 0
  outer loop
  vertex -0.0184548926 0.0355689526 0.0923490152
  vertex -0.0166852977 0.0346857272 0.0387311466
  vertex -0.020183282 0.0341802277 0.0621235557
  endloop
 endfacet

 facet normal 0 0 0
  outer loop
  vertex -0.0184548926 0.0355689526 0.0923490152
  vertex -0.020183282 0.0341802277 0.0621235557
  vertex -0.0225875303 0.0318113193 0.0936889574
  endloop
 endfacet

 facet normal 0 0 0
  outer loop
  vertex -0.0184548926 0.0355689526 0.0923490152
  vertex -0.0225875303 0.0318113193 0.0936889574
  vertex -0.00823205151 0.0362046957 0.0968505442
  endloop
 endfacet

 facet normal 0 0 0
  outer loop
  vertex -0.0263196491 0.000631759292 0.0150785632
  vertex -0.0252205878 -0.00815769471 0.0147173889
  vertex -0.0237985104 -0.0250926949 0.0272675566
  endloop
 endfacet

 facet normal 0 0 0
  outer loop
  vertex -0.0263196491 0.000631759292 0.0150785632
  vertex -0.0237985104 -0.0250926949 0.0272675566
  vertex -0.0242115799 -0.0274065956 0.0409816578
  endloop
 endfacet

 facet normal 0 0 0
  outer loop
  vertex -0.0242877677 0.0270483959 0.0417906754
  vertex -0.0238259099 0.024639355 0.0271093305
  vertex -0.0253072679 0.00714742485 0.0144030787
  endloop
 endfacet

 facet normal 0 0 0
  outer loop
  vertex -0.0242877677 0.0270483959 0.0417906754
  vertex -0.0253072679 0.00714742485 0.0144030787
  vertex -0.0263196491 0.000631759292 0.0150785632
  endloop
 endfacet

 facet normal 0 0 0
  outer loop
  vertex -0.0263196491 0.000631759292 0.0150785632
  vertex -0.0253072679 0.00714742485 0.0144030787
  vertex -0.0252205878 -0.00815769471 0.0147173889
  endloop
 endfacet

 facet normal 0 0 0
  outer loop
  vertex 0.000833219441 0.0342051089 0.0221699532
  vertex 0.000833219441 0.0281975158 0.0141370194
  vertex -0.00334666809 0.0280643106 0.0141430236
  endloop
 endfacet

 facet normal 0 0 0
  outer loop
  vertex 0.000833219441 0.0342051089 0.0221699532
  vertex -0.00334666809 0.0280643106 0.0141430236
  vertex -0.0092015788 0.0342083536 0.0240683891
  endloop
 endfacet

 facet normal 0 0 0
  outer loop
  vertex 0.000833219441 0.0342051089 0.0221699532
  vertex -0.0092015788 0.0342083536 0.0240683891
  vertex 0.000833219441 0.0355218872 0.0262875445
  endloop
 endfacet

 facet normal 0 0 0
  outer loop
  vertex 0.000833219441 0.0342051089 0.0221699532
  vertex 0.000833219441 0.0355218872 0.0262875445
  vertex 0.00683321944 0.0354829952 0.0582999997
  endloop
 endfacet

 facet normal 0 0 0
  outer loop
  vertex 0.000833219441 0.0342051089 0.0221699532
  vertex 0.00683321944 0.0354829952 0.0582999997
  vertex 0.000833219441 0.0281975158 0.0141370194
  endloop
 endfacet

 facet normal 0 0 0
  outer loop
  vertex -0.0126841189 -0.0384232029 0.091348283
  vertex -0.00269581703 -0.0431572236 0.0466403961
  vertex 0.00591474585 -0.0428503789 0.0477191471
  endloop
 endfacet

 facet normal 0 0 0
  outer loop
  vertex -0.0126841189 -0.0384232029 0.091348283
  vertex 0.00591474585 -0.0428503789 0.0477191471
  vertex 0.000833219441 -0.0393623933 0.0845381543
  endloop
 endfacet

 facet normal 0 0 0
  outer loop
  vertex -0.0231037904 -0.0314382389 0.0639932901
  vertex -0.0242115799 -0.0274065956 0.0409816578
  vertex -0.0182973221 -0.0328972787 0.0343022645
  endloop
 endfacet

 facet normal 0 0 0
  outer loop
  vertex -0.0231037904 -0.0314382389 0.0639932901
  vertex -0.0182973221 -0.0328972787 0.0343022645
  vertex -0.0187396277 -0.0350014977 0.0532579906
  endloop
 endfacet

 facet normal 0 0 0
  outer loop
  vertex -0.0231037904 -0.0314382389 0.0639932901
  vertex -0.0187396277 -0.0350014977 0.0532579906
  vertex -0.0184435993 -0.0359245762 0.0928011984
  endloop
 endfacet

 facet normal 0 0 0
  outer loop
  vertex -0.0231037904 -0.0314382389 0.0639932901
  vertex -0.0184435993 -0.0359245762 0.0928011984
  vertex -0.0226015188 -0.0318390578 0.0941156894
  endloop
 endfacet

 facet normal 0 0 0
  outer loop
  vertex -0.0231037904 -0.0314382389 0.0639932901
  vertex -0.0226015188 -0.0318390578 0.0941156894
  vertex -0.0242115799 -0.0274065956 0.0409816578
  endloop
 endfacet

 facet normal 0 0 0
  outer loop
  vertex -0.00274442742 -0.0372257866 0.0975996852
  vertex -0.00764786964 -0.0358914435 0.0988174006
  vertex -0.0126841189 -0.0384232029 0.091348283
  endloop
 endfacet

 facet normal 0 0 0
  outer loop
  vertex -0.0126841189 -0.0384232029 0.091348283
  vertex 0.000833219441 -0.0393623933 0.0845381543
  vertex 0.000833271595 -0.037105158 0.0973520428
  endloop
 endfacet

 facet normal 0 0 0
  outer loop
  vertex -0.0126841189 -0.0384232029 0.091348283
  vertex 0.000833271595 -0.037105158 0.0973520428
  vertex -0.00274442742 -0.0372257866 0.0975996852
  endloop
 endfacet

 facet normal 0 0 0
  outer loop
  vertex -0.0227827169 -0.0229772907 0.0957988724
  vertex -0.00764786964 -0.0358914435 0.0988174006
  vertex -0.00818350352 -0.0178929232 0.100113146
  endloop
 endfacet

 facet normal 0 0 0
  outer loop
  vertex -0.0227827169 -0.0229772907 0.0957988724
  vertex -0.00818350352 -0.0178929232 0.100113146
  vertex -0.0235648938 -0.00067071896 0.0965946093
  endloop
 endfacet

 facet normal 0 0 0
  outer loop
  vertex -0.0227827169 -0.0229772907 0.0957988724
  vertex -0.0226015188 -0.0318390578 0.0941156894
  vertex -0.00764786964 -0.0358914435 0.0988174006
  endloop
 endfacet

 facet normal 0 0 0
  outer loop
  vertex -0.0103243552 -0.0257675406 0.0140498029
  vertex 0.000833145401 -0.0279188193 0.0140221603
  vertex 0.000676509924 -0.0368202142 0.0172377415
  endloop
 endfacet

 facet normal 0 0 0
  outer loop
  vertex -0.0103243552 -0.0257675406 0.0140498029
  vertex 0.000676509924 -0.0368202142 0.0172377415
  vertex -0.00371919153 -0.0380986258 0.0196506809
  endloop
 endfacet

 facet normal 0 0 0
  outer loop
  vertex -0.0103243552 -0.0257675406 0.0140498029
  vertex -0.00371919153 -0.0380986258 0.0196506809
  vertex -0.0189021546 -0.0198319163 0.014117714
  endloop
 endfacet

 facet normal 0 0 0
  outer loop
  vertex 0.000833271595 -0.037105158 0.0973520428
  vertex 0.000833219441 -0.0359632522 0.0977465957
  vertex -0.00764786964 -0.0358914435 0.0988174006
  endloop
 endfacet

 facet normal 0 0 0
  outer loop
  vertex 0.000833271595 -0.037105158 0.0973520428
  vertex -0.00764786964 -0.0358914435 0.0988174006
  vertex -0.00274442742 -0.0372257866 0.0975996852
  endloop
 endfacet

 facet normal 0 0 0
  outer loop
  vertex 0.000833271595 -0.037105158 0.0973520428
  vertex 0.000833219441 -0.0393623933 0.0845381543
  vertex 0.00591474585 -0.0428503789 0.0477191471
  endloop
 endfacet

 facet normal 0 0 0
  outer loop
  vertex 0.000833271595 -0.037105158 0.0973520428
  vertex 0.00591474585 -0.0428503789 0.0477191471
  vertex 0.00683321944 -0.0359094329 0.0827614889
  endloop
 endfacet

 facet normal 0 0 0
  outer loop
  vertex 0.000833271595 -0.037105158 0.0973520428
  vertex 0.00683321944 -0.0359094329 0.0827614889
  vertex 0.000833219441 -0.0359632522 0.0977465957
  endloop
 endfacet

 facet normal 0 0 0
  outer loop
  vertex -0.0182973221 -0.0328972787 0.0343022645
  vertex -0.00463907467 -0.0408514217 0.0293190517
  vertex -0.0187396277 -0.0350014977 0.0532579906
  endloop
 endfacet

 facet normal 0 0 0
  outer loop
  vertex -0.0182973221 -0.0328972787 0.0343022645
  vertex -0.0242115799 -0.0274065956 0.0409816578
  vertex -0.0237985104 -0.0250926949 0.0272675566
  endloop
 endfacet

 facet normal 0 0 0
  outer loop
  vertex -0.0182973221 -0.0328972787 0.0343022645
  vertex -0.0237985104 -0.0250926949 0.0272675566
  vertex -0.0203241035 -0.0289675742 0.0261423327
  endloop
 endfacet

 facet normal 0 0 0
  outer loop
  vertex -0.015132417 0.0333673544 0.0270885192
  vertex -0.0108323898 0.036154896 0.033506982
  vertex -0.0092015788 0.0342083536 0.0240683891
  endloop
 endfacet

 facet normal 0 0 0
  outer loop
  vertex -0.015132417 0.0333673544 0.0270885192
  vertex -0.0166852977 0.0346857272 0.0387311466
  vertex -0.0108323898 0.036154896 0.033506982
  endloop
 endfacet

 facet normal 0 0 0
  outer loop
  vertex -0.0226015188 -0.0318390578 0.0941156894
  vertex -0.0227827169 -0.0229772907 0.0957988724
  vertex -0.0235648938 -0.00067071896 0.0965946093
  endloop
 endfacet

 facet normal 0 0 0
  outer loop
  vertex -0.0226015188 -0.0318390578 0.0941156894
  vertex -0.0235648938 -0.00067071896 0.0965946093
  vertex -0.0239692368 0.0104390774 0.0954402611
  endloop
 endfacet

 facet normal 0 0 0
  outer loop
  vertex -0.0226015188 -0.0318390578 0.0941156894
  vertex -0.0239692368 0.0104390774 0.0954402611
  vertex -0.0259210393 -9.06142395e-06 0.0622060187
  endloop
 endfacet

 facet normal 0 0 0
  outer loop
  vertex -0.0226015188 -0.0318390578 0.0941156894
  vertex -0.0259210393 -9.06142395e-06 0.0622060187
  vertex -0.0253989585 -0.0161564834 0.0621955208
  endloop
 endfacet

 facet normal 0 0 0
  outer loop
  vertex -0.0253989585 -0.0161564834 0.0621955208
  vertex -0.0259210393 -9.06142395e-06 0.0622060187
  vertex -0.0263196491 0.000631759292 0.0150785632
  endloop
 endfacet

 facet normal 0 0 0
  outer loop
  vertex -0.0253989585 -0.0161564834 0.0621955208
  vertex -0.0263196491 0.000631759292 0.0150785632
  vertex -0.0242115799 -0.0274065956 0.0409816578
  endloop
 endfacet

 facet normal 0 0 0
  outer loop
  vertex -0.0253989585 -0.0161564834 0.0621955208
  vertex -0.0242115799 -0.0274065956 0.0409816578
  vertex -0.0226015188 -0.0318390578 0.0941156894
  endloop
 endfacet

 facet normal 0 0 0
  outer loop
  vertex -0.00872019865 0.0201159008 0.0989348143
  vertex -0.00823205151 0.0362046957 0.0968505442
  vertex -0.0225875303 0.0318113193 0.0936889574
  endloop
 endfacet

 facet normal 0 0 0
  outer loop
  vertex -0.00872019865 0.0201159008 0.0989348143
  vertex -0.0225875303 0.0318113193 0.0936889574
  vertex -0.0225971416 0.0213377289 0.0955277085
  endloop
 endfacet

 facet normal 0 0 0
  outer loop
  vertex -0.0254043639 0.0161385369 0.0621956289
  vertex -0.0242877677 0.0270483959 0.0417906754
  vertex -0.0263196491 0.000631759292 0.0150785632
  endloop
 endfacet

 facet normal 0 0 0
  outer loop
  vertex -0.0254043639 0.0161385369 0.0621956289
  vertex -0.0263196491 0.000631759292 0.0150785632
  vertex -0.0259210393 -9.06142395e-06 0.0622060187
  endloop
 endfacet

 facet normal 0 0 0
  outer loop
  vertex -0.0254043639 0.0161385369 0.0621956289
  vertex -0.0225875303 0.0318113193 0.0936889574
  vertex -0.0242877677 0.0270483959 0.0417906754
  endloop
 endfacet

 facet normal 0 0 0
  outer loop
  vertex -0.00561001338 0.037547268 0.0961542204
  vertex -0.0125054009 0.0379836187 0.0910457298
  vertex -0.0184548926 0.0355689526 0.0923490152
  endloop
 endfacet

 facet normal 0 0 0
  outer loop
  vertex -0.00561001338 0.037547268 0.0961542204
  vertex -0.0184548926 0.0355689526 0.0923490152
  vertex -0.00823205151 0.0362046957 0.0968505442
  endloop
 endfacet

 facet normal 0 0 0
  outer loop
  vertex -0.00561001338 0.037547268 0.0961542204
  vertex -0.00823205151 0.0362046957 0.0968505442
  vertex 0.000834795705 0.0378484577 0.0950965062
  endloop
 endfacet

 facet normal 0 0 0
  outer loop
  vertex -0.00561001338 0.037547268 0.0961542204
  vertex 0.000834795705 0.0378484577 0.0950965062
  vertex -0.00355894538 0.0393475257 0.0825998783
  endloop
 endfacet

 facet normal 0 0 0
  outer loop
  vertex -0.00561001338 0.037547268 0.0961542204
  vertex -0.00355894538 0.0393475257 0.0825998783
  vertex -0.0125054009 0.0379836187 0.0910457298
  endloop
 endfacet

 facet normal 0 0 0
  outer loop
  vertex -0.0201544631 0.0312190894 0.0331457816
  vertex -0.020183282 0.0341802277 0.0621235557
  vertex -0.0166852977 0.0346857272 0.0387311466
  endloop
 endfacet

 facet normal 0 0 0
  outer loop
  vertex -0.0166852977 0.0346857272 0.0387311466
  vertex -0.015132417 0.0333673544 0.0270885192
  vertex -0.0187556911 0.0304883663 0.0255590566
  endloop
 endfacet

 facet normal 0 0 0
  outer loop
  vertex -0.0166852977 0.0346857272 0.0387311466
  vertex -0.0187556911 0.0304883663 0.0255590566
  vertex -0.0201544631 0.0312190894 0.0331457816
  endloop
 endfacet

 facet normal 0 0 0
  outer loop
  vertex -0.0201544631 0.0312190894 0.0331457816
  vertex -0.0187556911 0.0304883663 0.0255590566
  vertex -0.0238259099 0.024639355 0.0271093305
  endloop
 endfacet

 facet normal 0 0 0
  outer loop
  vertex -0.0201544631 0.0312190894 0.0331457816
  vertex -0.0238259099 0.024639355 0.0271093305
  vertex -0.0242877677 0.0270483959 0.0417906754
  endloop
 endfacet

 facet normal 0 0 0
  outer loop
  vertex 0.000833219441 0.0378887579 0.0425712578
  vertex -0.0108323898 0.036154896 0.033506982
  vertex -0.0127959456 0.0379360765 0.062188141
  endloop
 endfacet

 facet normal 0 0 0
  outer loop
  vertex 0.000833219441 0.0378887579 0.0425712578
  vertex 0.00683321944 0.0354829952 0.0582999997
  vertex 0.000833219441 0.0355218872 0.0262875445
  endloop
 endfacet

 facet normal 0 0 0
  outer loop
  vertex 0.000833219441 0.0378887579 0.0425712578
  vertex 0.000833219441 0.0355218872 0.0262875445
  vertex -0.0108323898 0.036154896 0.033506982
  endloop
 endfacet

 facet normal 0 0 0
  outer loop
  vertex -0.0225875303 0.0318113193 0.0936889574
  vertex -0.0254043639 0.0161385369 0.0621956289
  vertex -0.0259210393 -9.06142395e-06 0.0622060187
  endloop
 endfacet

 facet normal 0 0 0
  outer loop
  vertex -0.0225875303 0.0318113193 0.0936889574
  vertex -0.0259210393 -9.06142395e-06 0.0622060187
  vertex -0.0239692368 0.0104390774 0.0954402611
  endloop
 endfacet

 facet normal 0 0 0
  outer loop
  vertex -0.0239692368 0.0104390774 0.0954402611
  vertex -0.0235648938 -0.00067071896 0.0965946093
  vertex -0.0225971416 0.0213377289 0.0955277085
  endloop
 endfacet

 facet normal 0 0 0
  outer loop
  vertex -0.0239692368 0.0104390774 0.0954402611
  vertex -0.0225971416 0.0213377289 0.0955277085
  vertex -0.0225875303 0.0318113193 0.0936889574
  endloop
 endfacet

 facet normal 0 0 0
  outer loop
  vertex 0.000834795705 0.0378484577 0.0950965062
  vertex -0.00823205151 0.0362046957 0.0968505442
  vertex -0.00872019865 0.0201159008 0.0989348143
  endloop
 endfacet

 facet normal 0 0 0
  outer loop
  vertex 0.000834795705 0.0378484577 0.0950965062
  vertex -0.00872019865 0.0201159008 0.0989348143
  vertex 0.000833219441 0.0187747777 0.0976548791
  endloop
 endfacet

 facet normal 0 0 0
  outer loop
  vertex 0.000833219441 0.0187747777 0.0976548791
  vertex 0.00683321944 0.0356710665 0.0812632814
  vertex 0.000834795705 0.0378484577 0.0950965062
  endloop
 endfacet

 facet normal 0 0 0
  outer loop
  vertex -0.0137918983 0.0317380056 0.0226016305
  vertex -0.0092015788 0.0342083536 0.0240683891
  vertex -0.00334666809 0.0280643106 0.0141430236
  endloop
 endfacet

 facet normal 0 0 0
  outer loop
  vertex -0.0137918983 0.0317380056 0.0226016305
  vertex -0.00334666809 0.0280643106 0.0141430236
  vertex -0.0114396606 0.0257935952 0.01448844
  endloop
 endfacet

 facet normal 0 0 0
  outer loop
  vertex -0.0114396606 0.0257935952 0.01448844
  vertex -0.0190771185 0.0199549347 0.0142823802
  vertex -0.0187556911 0.0304883663 0.0255590566
  endloop
 endfacet

 facet normal 0 0 0
  outer loop
  vertex -0.0114396606 0.0257935952 0.01448844
  vertex -0.0187556911 0.0304883663 0.0255590566
  vertex -0.0137918983 0.0317380056 0.0226016305
  endloop
 endfacet

 facet normal 0 0 0
  outer loop
  vertex -0.0137918983 0.0317380056 0.0226016305
  vertex -0.0187556911 0.0304883663 0.0255590566
  vertex -0.015132417 0.0333673544 0.0270885192
  endloop
 endfacet

 facet normal 0 0 0
  outer loop
  vertex -0.0137918983 0.0317380056 0.0226016305
  vertex -0.015132417 0.0333673544 0.0270885192
  vertex -0.0092015788 0.0342083536 0.0240683891
  endloop
 endfacet

 facet normal 0 0 0
  outer loop
  vertex -0.023097489 0.031016428 0.0620663911
  vertex -0.0225875303 0.0318113193 0.0936889574
  vertex -0.020183282 0.0341802277 0.0621235557
  endloop
 endfacet

 facet normal 0 0 0
  outer loop
  vertex -0.023097489 0.031016428 0.0620663911
  vertex -0.020183282 0.0341802277 0.0621235557
  vertex -0.0201544631 0.0312190894 0.0331457816
  endloop
 endfacet

 facet normal 0 0 0
  outer loop
  vertex -0.023097489 0.031016428 0.0620663911
  vertex -0.0201544631 0.0312190894 0.0331457816
  vertex -0.0242877677 0.0270483959 0.0417906754
  endloop
 endfacet

 facet normal 0 0 0
  outer loop
  vertex -0.023097489 0.031016428 0.0620663911
  vertex -0.0242877677 0.0270483959 0.0417906754
  vertex -0.0225875303 0.0318113193 0.0936889574
  endloop
 endfacet

endsolid AssimpScene
