solid AssimpScene
 facet normal 0 0 0
  outer loop
  vertex 0.00154478825 -0.0370341949 0.000796334702
  vertex 0.00142117927 -0.0388076454 -0.00201671268
  vertex 0.00577318249 -0.0305899046 -0.00857166201
  endloop
 endfacet

 facet normal 0 0 0
  outer loop
  vertex 0.00154478825 -0.0370341949 0.000796334702
  vertex 0.00577318249 -0.0305899046 -0.00857166201
  vertex 0.00630663196 -0.0283839982 -0.00631776173
  endloop
 endfacet

 facet normal 0 0 0
  outer loop
  vertex 0.00630663196 -0.0283839982 -0.00631776173
  vertex 0.0061549102 0.00343929441 -0.00115099084
  vertex 0.00173652486 -0.0298067406 0.00322103361
  endloop
 endfacet

 facet normal 0 0 0
  outer loop
  vertex -0.00200847047 0.00977929588 -0.00155305269
  vertex 0.00486617023 0.0102356188 -0.002738212
  vertex -0.000328323949 0.0118947839 -0.00488875527
  endloop
 endfacet

 facet normal 0 0 0
  outer loop
  vertex -0.00781167625 -0.0243864823 -0.0046552429
  vertex -0.00464548497 -0.0294282399 0.00290994695
  vertex -0.00599368382 0.00571836298 -0.00347925955
  endloop
 endfacet

 facet normal 0 0 0
  outer loop
  vertex -0.00405200245 0.0107572284 -0.00439574476
  vertex -0.00478615612 0.00813739374 -0.00730245793
  vertex -0.00599368382 0.00571836298 -0.00347925955
  endloop
 endfacet

 facet normal 0 0 0
  outer loop
  vertex -0.00405200245 0.0107572284 -0.00439574476
  vertex -0.00200847047 0.00977929588 -0.00155305269
  vertex -0.000328323949 0.0118947839 -0.00488875527
  endloop
 endfacet

 facet normal 0 0 0
  outer loop
  vertex 0.000630574184 0.00216285931 -0.0104034366
  vertex -0.00466751354 -0.00878908206 -0.0129037853
  vertex -0.00478615612 0.00813739374 -0.00730245793
  endloop
 endfacet

 facet normal 0 0 0
  outer loop
  vertex 0.00154478825 -0.0370341949 0.000796334702
  vertex 0.00630663196 -0.0283839982 -0.00631776173
  vertex 0.00173652486 -0.0298067406 0.00322103361
  endloop
 endfacet

 facet normal 0 0 0
  outer loop
  vertex 0.00154478825 -0.0370341949 0.000796334702
  vertex -0.00510362256 -0.0380159207 -0.00133832451
  vertex 0.00142117927 -0.0388076454 -0.00201671268
  endloop
 endfacet

 facet normal 0 0 0
  outer loop
  vertex -0.0067941891 -0.00909074116 -0.0105779702
  vertex -0.00466751354 -0.00878908206 -0.0129037853
  vertex -0.00695006503 -0.0299724601 -0.0101048956
  endloop
 endfacet

 facet normal 0 0 0
  outer loop
  vertex 0.00461189914 0.0110380789 -0.00491282949
  vertex -0.000328323949 0.0118947839 -0.00488875527
  vertex 0.00486617023 0.0102356188 -0.002738212
  endloop
 endfacet

 facet normal 0 0 0
  outer loop
  vertex -0.0023428679 -0.0304742008 -0.0116283773
  vertex -0.00378634548 -0.0370149054 -0.00597958313
  vertex -0.00695006503 -0.0299724601 -0.0101048956
  endloop
 endfacet

 facet normal 0 0 0
  outer loop
  vertex -0.0023428679 -0.0304742008 -0.0116283773
  vertex -0.00695006503 -0.0299724601 -0.0101048956
  vertex -0.00466751354 -0.00878908206 -0.0129037853
  endloop
 endfacet

 facet normal 0 0 0
  outer loop
  vertex -0.00481958687 0.00583639694 -0.00131826533
  vertex -0.00200847047 0.00977929588 -0.00155305269
  vertex -0.00405200245 0.0107572284 -0.00439574476
  endloop
 endfacet

 facet normal 0 0 0
  outer loop
  vertex -0.00481958687 0.00583639694 -0.00131826533
  vertex -0.00405200245 0.0107572284 -0.00439574476
  vertex -0.00599368382 0.00571836298 -0.00347925955
  endloop
 endfacet

 facet normal 0 0 0
  outer loop
  vertex -0.00481958687 0.00583639694 -0.00131826533
  vertex -0.00599368382 0.00571836298 -0.00347925955
  vertex -0.00464548497 -0.0294282399 0.00290994695
  endloop
 endfacet

 facet normal 0 0 0
  outer loop
  vertex 0.000217821304 -0.0110636959 -0.0136384442
  vertex 0.00572837517 -0.0109759364 -0.0120876329
  vertex 0.00366711523 -0.0309281666 -0.0106166163
  endloop
 endfacet

 facet normal 0 0 0
  outer loop
  vertex 0.000217821304 -0.0110636959 -0.0136384442
  vertex 0.00366711523 -0.0309281666 -0.0106166163
  vertex -0.0023428679 -0.0304742008 -0.0116283773
  endloop
 endfacet

 facet normal 0 0 0
  outer loop
  vertex 0.000217821304 -0.0110636959 -0.0136384442
  vertex -0.0023428679 -0.0304742008 -0.0116283773
  vertex -0.00466751354 -0.00878908206 -0.0129037853
  endloop
 endfacet

 facet normal 0 0 0
  outer loop
  vertex 0.000217821304 -0.0110636959 -0.0136384442
  vertex -0.00466751354 -0.00878908206 -0.0129037853
  vertex 0.000630574184 0.00216285931 -0.0104034366
  endloop
 endfacet

 facet normal 0 0 0
  outer loop
  vertex 0.00577318249 -0.0305899046 -0.00857166201
  vertex 0.00366711523 -0.0309281666 -0.0106166163
  vertex 0.00572837517 -0.0109759364 -0.0120876329
  endloop
 endfacet

 facet normal 0 0 0
  outer loop
  vertex 0.00435087271 0.00794018619 -0.000892951211
  vertex 0.00486617023 0.0102356188 -0.002738212
  vertex -0.00200847047 0.00977929588 -0.00155305269
  endloop
 endfacet

 facet normal 0 0 0
  outer loop
  vertex 0.00435087271 0.00794018619 -0.000892951211
  vertex 0.00173652486 -0.0298067406 0.00322103361
  vertex 0.0061549102 0.00343929441 -0.00115099084
  endloop
 endfacet

 facet normal 0 0 0
  outer loop
  vertex 0.00117594074 -0.0368828364 -0.00616726279
  vertex -0.00378634548 -0.0370149054 -0.00597958313
  vertex -0.0023428679 -0.0304742008 -0.0116283773
  endloop
 endfacet

 facet normal 0 0 0
  outer loop
  vertex 0.00117594074 -0.0368828364 -0.00616726279
  vertex -0.0023428679 -0.0304742008 -0.0116283773
  vertex 0.00366711523 -0.0309281666 -0.0106166163
  endloop
 endfacet

 facet normal 0 0 0
  outer loop
  vertex 0.00117594074 -0.0368828364 -0.00616726279
  vertex 0.00366711523 -0.0309281666 -0.0106166163
  vertex 0.00577318249 -0.0305899046 -0.00857166201
  endloop
 endfacet

 facet normal 0 0 0
  outer loop
  vertex 0.00117594074 -0.0368828364 -0.00616726279
  vertex 0.00577318249 -0.0305899046 -0.00857166201
  vertex 0.00142117927 -0.0388076454 -0.00201671268
  endloop
 endfacet

 facet normal 0 0 0
  outer loop
  vertex 0.00702955946 -0.0089942757 -0.00989137776
  vertex 0.00630663196 -0.0283839982 -0.00631776173
  vertex 0.00577318249 -0.0305899046 -0.00857166201
  endloop
 endfacet

 facet normal 0 0 0
  outer loop
  vertex 0.00702955946 -0.0089942757 -0.00989137776
  vertex 0.00577318249 -0.0305899046 -0.00857166201
  vertex 0.00572837517 -0.0109759364 -0.0120876329
  endloop
 endfacet

 facet normal 0 0 0
  outer loop
  vertex 0.00702955946 -0.0089942757 -0.00989137776
  vertex 0.00572837517 -0.0109759364 -0.0120876329
  vertex 0.00652971445 0.00779580045 -0.00623499556
  endloop
 endfacet

 facet normal 0 0 0
  outer loop
  vertex -0.00484064687 -0.0367545411 0.000467690435
  vertex -0.00510362256 -0.0380159207 -0.00133832451
  vertex 0.00154478825 -0.0370341949 0.000796334702
  endloop
 endfacet

 facet normal 0 0 0
  outer loop
  vertex -0.00484064687 -0.0367545411 0.000467690435
  vertex 0.00154478825 -0.0370341949 0.000796334702
  vertex 0.00173652486 -0.0298067406 0.00322103361
  endloop
 endfacet

 facet normal 0 0 0
  outer loop
  vertex -0.00484064687 -0.0367545411 0.000467690435
  vertex 0.00173652486 -0.0298067406 0.00322103361
  vertex -0.00464548497 -0.0294282399 0.00290994695
  endloop
 endfacet

 facet normal 0 0 0
  outer loop
  vertex -0.00484064687 -0.0367545411 0.000467690435
  vertex -0.00464548497 -0.0294282399 0.00290994695
  vertex -0.00781167625 -0.0243864823 -0.0046552429
  endloop
 endfacet

 facet normal 0 0 0
  outer loop
  vertex -0.00800663605 -0.0290163513 -0.00776104722
  vertex -0.00510362256 -0.0380159207 -0.00133832451
  vertex -0.00484064687 -0.0367545411 0.000467690435
  endloop
 endfacet

 facet normal 0 0 0
  outer loop
  vertex -0.00800663605 -0.0290163513 -0.00776104722
  vertex -0.00484064687 -0.0367545411 0.000467690435
  vertex -0.00781167625 -0.0243864823 -0.0046552429
  endloop
 endfacet

 facet normal 0 0 0
  outer loop
  vertex -0.00800663605 -0.0290163513 -0.00776104722
  vertex -0.0067941891 -0.00909074116 -0.0105779702
  vertex -0.00695006503 -0.0299724601 -0.0101048956
  endloop
 endfacet

 facet normal 0 0 0
  outer loop
  vertex -0.00800663605 -0.0290163513 -0.00776104722
  vertex -0.00695006503 -0.0299724601 -0.0101048956
  vertex -0.00510362256 -0.0380159207 -0.00133832451
  endloop
 endfacet

 facet normal 0 0 0
  outer loop
  vertex 0.00193197862 0.00827122387 -0.00784038194
  vertex -0.000328323949 0.0118947839 -0.00488875527
  vertex 0.00461189914 0.0110380789 -0.00491282949
  endloop
 endfacet

 facet normal 0 0 0
  outer loop
  vertex 0.00193197862 0.00827122387 -0.00784038194
  vertex 0.00461189914 0.0110380789 -0.00491282949
  vertex 0.00652971445 0.00779580045 -0.00623499556
  endloop
 endfacet

 facet normal 0 0 0
  outer loop
  vertex 0.00193197862 0.00827122387 -0.00784038194
  vertex 0.000630574184 0.00216285931 -0.0104034366
  vertex -0.00478615612 0.00813739374 -0.00730245793
  endloop
 endfacet

 facet normal 0 0 0
  outer loop
  vertex 0.00630802009 0.00844641961 -0.00294443523
  vertex 0.00652971445 0.00779580045 -0.00623499556
  vertex 0.00461189914 0.0110380789 -0.00491282949
  endloop
 endfacet

 facet normal 0 0 0
  outer loop
  vertex 0.00630802009 0.00844641961 -0.00294443523
  vertex 0.00461189914 0.0110380789 -0.00491282949
  vertex 0.00486617023 0.0102356188 -0.002738212
  endloop
 endfacet

 facet normal 0 0 0
  outer loop
  vertex 0.00630802009 0.00844641961 -0.00294443523
  vertex 0.00486617023 0.0102356188 -0.002738212
  vertex 0.00435087271 0.00794018619 -0.000892951211
  endloop
 endfacet

 facet normal 0 0 0
  outer loop
  vertex 0.00630802009 0.00844641961 -0.00294443523
  vertex 0.00435087271 0.00794018619 -0.000892951211
  vertex 0.0061549102 0.00343929441 -0.00115099084
  endloop
 endfacet

 facet normal 0 0 0
  outer loop
  vertex 0.00450318726 0.000260461995 -0.0102661382
  vertex 0.00572837517 -0.0109759364 -0.0120876329
  vertex 0.000217821304 -0.0110636959 -0.0136384442
  endloop
 endfacet

 facet normal 0 0 0
  outer loop
  vertex 0.00450318726 0.000260461995 -0.0102661382
  vertex 0.000217821304 -0.0110636959 -0.0136384442
  vertex 0.000630574184 0.00216285931 -0.0104034366
  endloop
 endfacet

 facet normal 0 0 0
  outer loop
  vertex 0.00450318726 0.000260461995 -0.0102661382
  vertex 0.000630574184 0.00216285931 -0.0104034366
  vertex 0.00193197862 0.00827122387 -0.00784038194
  endloop
 endfacet

 facet normal 0 0 0
  outer loop
  vertex 0.00450318726 0.000260461995 -0.0102661382
  vertex 0.00193197862 0.00827122387 -0.00784038194
  vertex 0.00652971445 0.00779580045 -0.00623499556
  endloop
 endfacet

 facet normal 0 0 0
  outer loop
  vertex 0.00450318726 0.000260461995 -0.0102661382
  vertex 0.00652971445 0.00779580045 -0.00623499556
  vertex 0.00572837517 -0.0109759364 -0.0120876329
  endloop
 endfacet

 facet normal 0 0 0
  outer loop
  vertex -0.000742033822 0.00362532213 8.21158465e-05
  vertex -0.00464548497 -0.0294282399 0.00290994695
  vertex 0.00173652486 -0.0298067406 0.00322103361
  endloop
 endfacet

 facet normal 0 0 0
  outer loop
  vertex -0.000742033822 0.00362532213 8.21158465e-05
  vertex 0.00173652486 -0.0298067406 0.00322103361
  vertex 0.00435087271 0.00794018619 -0.000892951211
  endloop
 endfacet

 facet normal 0 0 0
  outer loop
  vertex -0.000742033822 0.00362532213 8.21158465e-05
  vertex 0.00435087271 0.00794018619 -0.000892951211
  vertex -0.00200847047 0.00977929588 -0.00155305269
  endloop
 endfacet

 facet normal 0 0 0
  outer loop
  vertex -0.000742033822 0.00362532213 8.21158465e-05
  vertex -0.00200847047 0.00977929588 -0.00155305269
  vertex -0.00481958687 0.00583639694 -0.00131826533
  endloop
 endfacet

 facet normal 0 0 0
  outer loop
  vertex -0.000742033822 0.00362532213 8.21158465e-05
  vertex -0.00481958687 0.00583639694 -0.00131826533
  vertex -0.00464548497 -0.0294282399 0.00290994695
  endloop
 endfacet

 facet normal 0 0 0
  outer loop
  vertex -0.0033261301 0.0107751852 -0.00607885141
  vertex -0.00478615612 0.00813739374 -0.00730245793
  vertex -0.00405200245 0.0107572284 -0.00439574476
  endloop
 endfacet

 facet normal 0 0 0
  outer loop
  vertex -0.0033261301 0.0107751852 -0.00607885141
  vertex -0.00405200245 0.0107572284 -0.00439574476
  vertex -0.000328323949 0.0118947839 -0.00488875527
  endloop
 endfacet

 facet normal 0 0 0
  outer loop
  vertex -0.0033261301 0.0107751852 -0.00607885141
  vertex -0.000328323949 0.0118947839 -0.00488875527
  vertex 0.00193197862 0.00827122387 -0.00784038194
  endloop
 endfacet

 facet normal 0 0 0
  outer loop
  vertex -0.0033261301 0.0107751852 -0.00607885141
  vertex 0.00193197862 0.00827122387 -0.00784038194
  vertex -0.00478615612 0.00813739374 -0.00730245793
  endloop
 endfacet

 facet normal 0 0 0
  outer loop
  vertex -0.00415065745 -0.0385170653 -0.00291079376
  vertex -0.00510362256 -0.0380159207 -0.00133832451
  vertex -0.00695006503 -0.0299724601 -0.0101048956
  endloop
 endfacet

 facet normal 0 0 0
  outer loop
  vertex -0.00415065745 -0.0385170653 -0.00291079376
  vertex -0.00695006503 -0.0299724601 -0.0101048956
  vertex -0.00378634548 -0.0370149054 -0.00597958313
  endloop
 endfacet

 facet normal 0 0 0
  outer loop
  vertex -0.00415065745 -0.0385170653 -0.00291079376
  vertex -0.00378634548 -0.0370149054 -0.00597958313
  vertex 0.00117594074 -0.0368828364 -0.00616726279
  endloop
 endfacet

 facet normal 0 0 0
  outer loop
  vertex -0.00415065745 -0.0385170653 -0.00291079376
  vertex 0.00117594074 -0.0368828364 -0.00616726279
  vertex 0.00142117927 -0.0388076454 -0.00201671268
  endloop
 endfacet

 facet normal 0 0 0
  outer loop
  vertex -0.00415065745 -0.0385170653 -0.00291079376
  vertex 0.00142117927 -0.0388076454 -0.00201671268
  vertex -0.00510362256 -0.0380159207 -0.00133832451
  endloop
 endfacet

 facet normal 0 0 0
  outer loop
  vertex -0.00622489536 0.00347610633 -0.00749882776
  vertex -0.00478615612 0.00813739374 -0.00730245793
  vertex -0.00466751354 -0.00878908206 -0.0129037853
  endloop
 endfacet

 facet normal 0 0 0
  outer loop
  vertex -0.00622489536 0.00347610633 -0.00749882776
  vertex -0.00466751354 -0.00878908206 -0.0129037853
  vertex -0.0067941891 -0.00909074116 -0.0105779702
  endloop
 endfacet

 facet normal 0 0 0
  outer loop
  vertex -0.00622489536 0.00347610633 -0.00749882776
  vertex -0.0067941891 -0.00909074116 -0.0105779702
  vertex -0.00800663605 -0.0290163513 -0.00776104722
  endloop
 endfacet

 facet normal 0 0 0
  outer loop
  vertex -0.00622489536 0.00347610633 -0.00749882776
  vertex -0.00800663605 -0.0290163513 -0.00776104722
  vertex -0.00781167625 -0.0243864823 -0.0046552429
  endloop
 endfacet

 facet normal 0 0 0
  outer loop
  vertex -0.00622489536 0.00347610633 -0.00749882776
  vertex -0.00781167625 -0.0243864823 -0.0046552429
  vertex -0.00599368382 0.00571836298 -0.00347925955
  endloop
 endfacet

 facet normal 0 0 0
  outer loop
  vertex -0.00622489536 0.00347610633 -0.00749882776
  vertex -0.00599368382 0.00571836298 -0.00347925955
  vertex -0.00478615612 0.00813739374 -0.00730245793
  endloop
 endfacet

 facet normal 0 0 0
  outer loop
  vertex 0.00717180409 0.000603816297 -0.00427824818
  vertex 0.00702955946 -0.0089942757 -0.00989137776
  vertex 0.00652971445 0.00779580045 -0.00623499556
  endloop
 endfacet

 facet normal 0 0 0
  outer loop
  vertex 0.00717180409 0.000603816297 -0.00427824818
  vertex 0.00652971445 0.00779580045 -0.00623499556
  vertex 0.00630802009 0.00844641961 -0.00294443523
  endloop
 endfacet

 facet normal 0 0 0
  outer loop
  vertex 0.00717180409 0.000603816297 -0.00427824818
  vertex 0.00630802009 0.00844641961 -0.00294443523
  vertex 0.0061549102 0.00343929441 -0.00115099084
  endloop
 endfacet

 facet normal 0 0 0
  outer loop
  vertex 0.00717180409 0.000603816297 -0.00427824818
  vertex 0.0061549102 0.00343929441 -0.00115099084
  vertex 0.00630663196 -0.0283839982 -0.00631776173
  endloop
 endfacet

 facet normal 0 0 0
  outer loop
  vertex 0.00717180409 0.000603816297 -0.00427824818
  vertex 0.00630663196 -0.0283839982 -0.00631776173
  vertex 0.00702955946 -0.0089942757 -0.00989137776
  endloop
 endfacet

endsolid AssimpScene
