solid AssimpScene
 facet normal 0 0 0
  outer loop
  vertex -0.00242942316 0.00341506 7.82094357e-05
  vertex -0.00843689777 0.00363550917 -0.000938356214
  vertex -0.0104187559 -0.000420351629 -0.00165924081
  endloop
 endfacet

 facet normal 0 0 0
  outer loop
  vertex -0.00242942316 0.00341506 7.82094357e-05
  vertex -0.0104187559 -0.000420351629 -0.00165924081
  vertex -0.008187728 -0.00482792687 -0.00164512952
  endloop
 endfacet

 facet normal 0 0 0
  outer loop
  vertex -0.00242942316 0.00341506 7.82094357e-05
  vertex -0.008187728 -0.00482792687 -0.00164512952
  vertex -0.00195569056 -0.00357714202 -0.000264184462
  endloop
 endfacet

 facet normal 0 0 0
  outer loop
  vertex -0.008187728 -0.00482792687 -0.00164512952
  vertex -0.0085566584 -0.0069664605 -0.00717217894
  vertex 0.00114806404 -0.0058694263 -0.00175114709
  endloop
 endfacet

 facet normal 0 0 0
  outer loop
  vertex -0.01115721 0.00560641196 -0.0053768116
  vertex -0.012814804 0.000800637819 -0.005258366
  vertex -0.00936077628 0.00495889783 -0.00237487815
  endloop
 endfacet

 facet normal 0 0 0
  outer loop
  vertex -0.01115721 0.00560641196 -0.0053768116
  vertex -0.00936077628 0.00495889783 -0.00237487815
  vertex -0.00607860554 0.00763163576 -0.00651338091
  endloop
 endfacet

 facet normal 0 0 0
  outer loop
  vertex -0.0117421225 -0.00478362013 -0.00555891637
  vertex -0.0085566584 -0.0069664605 -0.00717217894
  vertex -0.008187728 -0.00482792687 -0.00164512952
  endloop
 endfacet

 facet normal 0 0 0
  outer loop
  vertex 0.0123000275 -0.00675278623 -0.00690453686
  vertex 0.0209864322 -0.00301131839 -0.00518777501
  vertex 0.00114806404 -0.0058694263 -0.00175114709
  endloop
 endfacet

 facet normal 0 0 0
  outer loop
  vertex 0.0218231045 0.00580019364 -0.00607140828
  vertex 0.0225437302 -0.00281634205 -0.00741413329
  vertex 0.0236124657 -0.00240548654 -0.0143243326
  endloop
 endfacet

 facet normal 0 0 0
  outer loop
  vertex 0.0218231045 0.00580019364 -0.00607140828
  vertex 0.0236124657 -0.00240548654 -0.0143243326
  vertex 0.023092743 0.00629825238 -0.0144726746
  endloop
 endfacet

 facet normal 0 0 0
  outer loop
  vertex 0.0218231045 0.00580019364 -0.00607140828
  vertex 0.0115591958 0.00884185545 -0.00686069066
  vertex 0.0196527708 0.00560405711 -0.00443707081
  endloop
 endfacet

 facet normal 0 0 0
  outer loop
  vertex 0.0218231045 0.00580019364 -0.00607140828
  vertex 0.0196527708 0.00560405711 -0.00443707081
  vertex 0.0209864322 -0.00301131839 -0.00518777501
  endloop
 endfacet

 facet normal 0 0 0
  outer loop
  vertex 0.000641962222 0.00631488953 -0.00137385656
  vertex 0.0196527708 0.00560405711 -0.00443707081
  vertex 0.0115591958 0.00884185545 -0.00686069066
  endloop
 endfacet

 facet normal 0 0 0
  outer loop
  vertex 0.000641962222 0.00631488953 -0.00137385656
  vertex 0.0115591958 0.00884185545 -0.00686069066
  vertex -0.00607860554 0.00763163576 -0.00651338091
  endloop
 endfacet

 facet normal 0 0 0
  outer loop
  vertex 0.000641962222 0.00631488953 -0.00137385656
  vertex -0.00607860554 0.00763163576 -0.00651338091
  vertex -0.00936077628 0.00495889783 -0.00237487815
  endloop
 endfacet

 facet normal 0 0 0
  outer loop
  vertex 0.00367539143 -0.00107836805 -0.000255182531
  vertex 0.0209864322 -0.00301131839 -0.00518777501
  vertex 0.0196527708 0.00560405711 -0.00443707081
  endloop
 endfacet

 facet normal 0 0 0
  outer loop
  vertex 0.00367539143 -0.00107836805 -0.000255182531
  vertex 0.00114806404 -0.0058694263 -0.00175114709
  vertex 0.0209864322 -0.00301131839 -0.00518777501
  endloop
 endfacet

 facet normal 0 0 0
  outer loop
  vertex -0.0104187559 -0.000420351629 -0.00165924081
  vertex -0.00936077628 0.00495889783 -0.00237487815
  vertex -0.012814804 0.000800637819 -0.005258366
  endloop
 endfacet

 facet normal 0 0 0
  outer loop
  vertex -0.0104187559 -0.000420351629 -0.00165924081
  vertex -0.012814804 0.000800637819 -0.005258366
  vertex -0.0117421225 -0.00478362013 -0.00555891637
  endloop
 endfacet

 facet normal 0 0 0
  outer loop
  vertex -0.0104187559 -0.000420351629 -0.00165924081
  vertex -0.0117421225 -0.00478362013 -0.00555891637
  vertex -0.008187728 -0.00482792687 -0.00164512952
  endloop
 endfacet

 facet normal 0 0 0
  outer loop
  vertex 0.0224363413 -0.00234661507 -0.0166473668
  vertex 0.023092743 0.00629825238 -0.0144726746
  vertex 0.0236124657 -0.00240548654 -0.0143243326
  endloop
 endfacet

 facet normal 0 0 0
  outer loop
  vertex 0.0153719801 -0.00553762959 -0.0184124727
  vertex 0.0142192869 -0.00351227075 -0.020395752
  vertex 0.0224363413 -0.00234661507 -0.0166473668
  endloop
 endfacet

 facet normal 0 0 0
  outer loop
  vertex 0.0153719801 -0.00553762959 -0.0184124727
  vertex 0.0224363413 -0.00234661507 -0.0166473668
  vertex 0.0236124657 -0.00240548654 -0.0143243326
  endloop
 endfacet

 facet normal 0 0 0
  outer loop
  vertex 0.0153719801 -0.00553762959 -0.0184124727
  vertex 0.0236124657 -0.00240548654 -0.0143243326
  vertex 0.0142941279 -0.0066014505 -0.014751154
  endloop
 endfacet

 facet normal 0 0 0
  outer loop
  vertex 0.0153719801 -0.00553762959 -0.0184124727
  vertex -0.0085566584 -0.0069664605 -0.00717217894
  vertex 0.0142192869 -0.00351227075 -0.020395752
  endloop
 endfacet

 facet normal 0 0 0
  outer loop
  vertex 0.0146559915 0.00947771315 -0.015286264
  vertex 0.014143155 0.00872691069 -0.0181120504
  vertex -0.00607860554 0.00763163576 -0.00651338091
  endloop
 endfacet

 facet normal 0 0 0
  outer loop
  vertex 0.0146559915 0.00947771315 -0.015286264
  vertex -0.00607860554 0.00763163576 -0.00651338091
  vertex 0.0115591958 0.00884185545 -0.00686069066
  endloop
 endfacet

 facet normal 0 0 0
  outer loop
  vertex 0.0146559915 0.00947771315 -0.015286264
  vertex 0.0115591958 0.00884185545 -0.00686069066
  vertex 0.0218231045 0.00580019364 -0.00607140828
  endloop
 endfacet

 facet normal 0 0 0
  outer loop
  vertex 0.0146559915 0.00947771315 -0.015286264
  vertex 0.0218231045 0.00580019364 -0.00607140828
  vertex 0.023092743 0.00629825238 -0.0144726746
  endloop
 endfacet

 facet normal 0 0 0
  outer loop
  vertex -0.0107275546 -0.0030536491 -0.00728551392
  vertex 0.0142192869 -0.00351227075 -0.020395752
  vertex -0.0085566584 -0.0069664605 -0.00717217894
  endloop
 endfacet

 facet normal 0 0 0
  outer loop
  vertex -0.0107275546 -0.0030536491 -0.00728551392
  vertex -0.0085566584 -0.0069664605 -0.00717217894
  vertex -0.0117421225 -0.00478362013 -0.00555891637
  endloop
 endfacet

 facet normal 0 0 0
  outer loop
  vertex -0.0107275546 -0.0030536491 -0.00728551392
  vertex -0.0117421225 -0.00478362013 -0.00555891637
  vertex -0.012814804 0.000800637819 -0.005258366
  endloop
 endfacet

 facet normal 0 0 0
  outer loop
  vertex 0.0225437302 -0.00281634205 -0.00741413329
  vertex 0.0218231045 0.00580019364 -0.00607140828
  vertex 0.0209864322 -0.00301131839 -0.00518777501
  endloop
 endfacet

 facet normal 0 0 0
  outer loop
  vertex 0.0225437302 -0.00281634205 -0.00741413329
  vertex 0.0209864322 -0.00301131839 -0.00518777501
  vertex 0.0123000275 -0.00675278623 -0.00690453686
  endloop
 endfacet

 facet normal 0 0 0
  outer loop
  vertex 0.0225437302 -0.00281634205 -0.00741413329
  vertex 0.0123000275 -0.00675278623 -0.00690453686
  vertex 0.0142941279 -0.0066014505 -0.014751154
  endloop
 endfacet

 facet normal 0 0 0
  outer loop
  vertex 0.0225437302 -0.00281634205 -0.00741413329
  vertex 0.0142941279 -0.0066014505 -0.014751154
  vertex 0.0236124657 -0.00240548654 -0.0143243326
  endloop
 endfacet

 facet normal 0 0 0
  outer loop
  vertex -0.0103889862 0.00403226865 -0.00718575204
  vertex -0.0107275546 -0.0030536491 -0.00728551392
  vertex -0.012814804 0.000800637819 -0.005258366
  endloop
 endfacet

 facet normal 0 0 0
  outer loop
  vertex -0.0103889862 0.00403226865 -0.00718575204
  vertex -0.012814804 0.000800637819 -0.005258366
  vertex -0.01115721 0.00560641196 -0.0053768116
  endloop
 endfacet

 facet normal 0 0 0
  outer loop
  vertex -0.0067207464 0.00701520359 -0.00808211043
  vertex 0.014143155 0.00872691069 -0.0181120504
  vertex 0.013962131 0.00624406105 -0.0203028172
  endloop
 endfacet

 facet normal 0 0 0
  outer loop
  vertex -0.0067207464 0.00701520359 -0.00808211043
  vertex 0.013962131 0.00624406105 -0.0203028172
  vertex 0.0122715775 0.0048447377 -0.0200341549
  endloop
 endfacet

 facet normal 0 0 0
  outer loop
  vertex -0.0067207464 0.00701520359 -0.00808211043
  vertex 0.0122715775 0.0048447377 -0.0200341549
  vertex -0.0103889862 0.00403226865 -0.00718575204
  endloop
 endfacet

 facet normal 0 0 0
  outer loop
  vertex -0.0067207464 0.00701520359 -0.00808211043
  vertex -0.0103889862 0.00403226865 -0.00718575204
  vertex -0.01115721 0.00560641196 -0.0053768116
  endloop
 endfacet

 facet normal 0 0 0
  outer loop
  vertex -0.0067207464 0.00701520359 -0.00808211043
  vertex -0.01115721 0.00560641196 -0.0053768116
  vertex -0.00607860554 0.00763163576 -0.00651338091
  endloop
 endfacet

 facet normal 0 0 0
  outer loop
  vertex -0.0067207464 0.00701520359 -0.00808211043
  vertex -0.00607860554 0.00763163576 -0.00651338091
  vertex 0.014143155 0.00872691069 -0.0181120504
  endloop
 endfacet

 facet normal 0 0 0
  outer loop
  vertex -0.00843689777 0.00363550917 -0.000938356214
  vertex -0.00936077628 0.00495889783 -0.00237487815
  vertex -0.0104187559 -0.000420351629 -0.00165924081
  endloop
 endfacet

 facet normal 0 0 0
  outer loop
  vertex -0.00843689777 0.00363550917 -0.000938356214
  vertex -0.00242942316 0.00341506 7.82094357e-05
  vertex 0.000641962222 0.00631488953 -0.00137385656
  endloop
 endfacet

 facet normal 0 0 0
  outer loop
  vertex -0.00843689777 0.00363550917 -0.000938356214
  vertex 0.000641962222 0.00631488953 -0.00137385656
  vertex -0.00936077628 0.00495889783 -0.00237487815
  endloop
 endfacet

 facet normal 0 0 0
  outer loop
  vertex -0.00195569056 -0.00357714202 -0.000264184462
  vertex 0.00114806404 -0.0058694263 -0.00175114709
  vertex 0.00367539143 -0.00107836805 -0.000255182531
  endloop
 endfacet

 facet normal 0 0 0
  outer loop
  vertex -0.00195569056 -0.00357714202 -0.000264184462
  vertex 0.00367539143 -0.00107836805 -0.000255182531
  vertex -0.00242942316 0.00341506 7.82094357e-05
  endloop
 endfacet

 facet normal 0 0 0
  outer loop
  vertex -0.00195569056 -0.00357714202 -0.000264184462
  vertex -0.008187728 -0.00482792687 -0.00164512952
  vertex 0.00114806404 -0.0058694263 -0.00175114709
  endloop
 endfacet

 facet normal 0 0 0
  outer loop
  vertex 0.0219885539 0.00633024285 -0.0162006859
  vertex 0.0160545129 0.00406590709 -0.0203135107
  vertex 0.013962131 0.00624406105 -0.0203028172
  endloop
 endfacet

 facet normal 0 0 0
  outer loop
  vertex 0.0219885539 0.00633024285 -0.0162006859
  vertex 0.013962131 0.00624406105 -0.0203028172
  vertex 0.014143155 0.00872691069 -0.0181120504
  endloop
 endfacet

 facet normal 0 0 0
  outer loop
  vertex 0.0219885539 0.00633024285 -0.0162006859
  vertex 0.014143155 0.00872691069 -0.0181120504
  vertex 0.0146559915 0.00947771315 -0.015286264
  endloop
 endfacet

 facet normal 0 0 0
  outer loop
  vertex 0.0219885539 0.00633024285 -0.0162006859
  vertex 0.0146559915 0.00947771315 -0.015286264
  vertex 0.023092743 0.00629825238 -0.0144726746
  endloop
 endfacet

 facet normal 0 0 0
  outer loop
  vertex 0.0219885539 0.00633024285 -0.0162006859
  vertex 0.023092743 0.00629825238 -0.0144726746
  vertex 0.0224363413 -0.00234661507 -0.0166473668
  endloop
 endfacet

 facet normal 0 0 0
  outer loop
  vertex 0.0219885539 0.00633024285 -0.0162006859
  vertex 0.0224363413 -0.00234661507 -0.0166473668
  vertex 0.0163595937 -0.00103634736 -0.0204590932
  endloop
 endfacet

 facet normal 0 0 0
  outer loop
  vertex 0.0219885539 0.00633024285 -0.0162006859
  vertex 0.0163595937 -0.00103634736 -0.0204590932
  vertex 0.0160545129 0.00406590709 -0.0203135107
  endloop
 endfacet

 facet normal 0 0 0
  outer loop
  vertex 0.0136490911 0.00085716031 -0.0210709088
  vertex 0.0122715775 0.0048447377 -0.0200341549
  vertex 0.013962131 0.00624406105 -0.0203028172
  endloop
 endfacet

 facet normal 0 0 0
  outer loop
  vertex 0.0136490911 0.00085716031 -0.0210709088
  vertex 0.013962131 0.00624406105 -0.0203028172
  vertex 0.0160545129 0.00406590709 -0.0203135107
  endloop
 endfacet

 facet normal 0 0 0
  outer loop
  vertex 0.0136490911 0.00085716031 -0.0210709088
  vertex 0.0142192869 -0.00351227075 -0.020395752
  vertex -0.0107275546 -0.0030536491 -0.00728551392
  endloop
 endfacet

 facet normal 0 0 0
  outer loop
  vertex -0.0107275546 -0.0030536491 -0.00728551392
  vertex -0.0103889862 0.00403226865 -0.00718575204
  vertex 0.0122715775 0.0048447377 -0.0200341549
  endloop
 endfacet

 facet normal 0 0 0
  outer loop
  vertex -0.0107275546 -0.0030536491 -0.00728551392
  vertex 0.0122715775 0.0048447377 -0.0200341549
  vertex 0.0136490911 0.00085716031 -0.0210709088
  endloop
 endfacet

 facet normal 0 0 0
  outer loop
  vertex 0.0163595937 -0.00103634736 -0.0204590932
  vertex 0.0224363413 -0.00234661507 -0.0166473668
  vertex 0.0142192869 -0.00351227075 -0.020395752
  endloop
 endfacet

 facet normal 0 0 0
  outer loop
  vertex 0.0163595937 -0.00103634736 -0.0204590932
  vertex 0.0142192869 -0.00351227075 -0.020395752
  vertex 0.0136490911 0.00085716031 -0.0210709088
  endloop
 endfacet

 facet normal 0 0 0
  outer loop
  vertex 0.0163595937 -0.00103634736 -0.0204590932
  vertex 0.0136490911 0.00085716031 -0.0210709088
  vertex 0.0160545129 0.00406590709 -0.0203135107
  endloop
 endfacet

 facet normal 0 0 0
  outer loop
  vertex -0.00108920306 -0.00759808533 -0.00803216361
  vertex 0.0142941279 -0.0066014505 -0.014751154
  vertex 0.0123000275 -0.00675278623 -0.00690453686
  endloop
 endfacet

 facet normal 0 0 0
  outer loop
  vertex -0.00108920306 -0.00759808533 -0.00803216361
  vertex 0.0123000275 -0.00675278623 -0.00690453686
  vertex 0.00114806404 -0.0058694263 -0.00175114709
  endloop
 endfacet

 facet normal 0 0 0
  outer loop
  vertex -0.00108920306 -0.00759808533 -0.00803216361
  vertex 0.00114806404 -0.0058694263 -0.00175114709
  vertex -0.0085566584 -0.0069664605 -0.00717217894
  endloop
 endfacet

 facet normal 0 0 0
  outer loop
  vertex -0.00108920306 -0.00759808533 -0.00803216361
  vertex -0.0085566584 -0.0069664605 -0.00717217894
  vertex 0.0153719801 -0.00553762959 -0.0184124727
  endloop
 endfacet

 facet normal 0 0 0
  outer loop
  vertex -0.00108920306 -0.00759808533 -0.00803216361
  vertex 0.0153719801 -0.00553762959 -0.0184124727
  vertex 0.0142941279 -0.0066014505 -0.014751154
  endloop
 endfacet

 facet normal 0 0 0
  outer loop
  vertex 0.00431763753 0.003578034 -0.000470639468
  vertex -0.00242942316 0.00341506 7.82094357e-05
  vertex 0.00367539143 -0.00107836805 -0.000255182531
  endloop
 endfacet

 facet normal 0 0 0
  outer loop
  vertex 0.00431763753 0.003578034 -0.000470639468
  vertex 0.00367539143 -0.00107836805 -0.000255182531
  vertex 0.0196527708 0.00560405711 -0.00443707081
  endloop
 endfacet

 facet normal 0 0 0
  outer loop
  vertex 0.00431763753 0.003578034 -0.000470639468
  vertex 0.0196527708 0.00560405711 -0.00443707081
  vertex 0.000641962222 0.00631488953 -0.00137385656
  endloop
 endfacet

 facet normal 0 0 0
  outer loop
  vertex 0.00431763753 0.003578034 -0.000470639468
  vertex 0.000641962222 0.00631488953 -0.00137385656
  vertex -0.00242942316 0.00341506 7.82094357e-05
  endloop
 endfacet

endsolid AssimpScene
