solid AssimpScene
 facet normal 0 0 0
  outer loop
  vertex -0.00125172827 -0.00890966132 -0.00308494177
  vertex 0.00445530424 -0.00179812824 -0.000753453525
  vertex 3.98722914e-05 0.00033753537 -4.58316863e-05
  endloop
 endfacet

 facet normal 0 0 0
  outer loop
  vertex -0.00125172827 -0.00890966132 -0.00308494177
  vertex 3.98722914e-05 0.00033753537 -4.58316863e-05
  vertex -0.00428012107 -0.00181089994 -0.000704380742
  endloop
 endfacet

 facet normal 0 0 0
  outer loop
  vertex -0.00421435619 -0.021675501 -0.028949488
  vertex 0.00452195248 -0.025359435 -0.0213310197
  vertex -0.00417473866 -0.0256304014 -0.0204030909
  endloop
 endfacet

 facet normal 0 0 0
  outer loop
  vertex 0.00448531145 -0.0216191113 -0.0289636701
  vertex 0.00452195248 -0.025359435 -0.0213310197
  vertex -0.00421435619 -0.021675501 -0.028949488
  endloop
 endfacet

 facet normal 0 0 0
  outer loop
  vertex -0.00492312247 0.0030955167 -0.00260325824
  vertex -0.00727931736 -2.83706759e-05 -0.00580143603
  vertex -0.00428012107 -0.00181089994 -0.000704380742
  endloop
 endfacet

 facet normal 0 0 0
  outer loop
  vertex 0.00494122226 0.00316790072 -0.00261006178
  vertex 0.00445530424 -0.00179812824 -0.000753453525
  vertex 0.00721894531 0.000654231815 -0.0060091326
  endloop
 endfacet

 facet normal 0 0 0
  outer loop
  vertex 0.0080110291 -0.0147880521 -0.0250340551
  vertex 0.00721010286 -0.0175000168 -0.0142355803
  vertex 0.00452195248 -0.025359435 -0.0213310197
  endloop
 endfacet

 facet normal 0 0 0
  outer loop
  vertex 0.0080110291 -0.0147880521 -0.0250340551
  vertex 0.00452195248 -0.025359435 -0.0213310197
  vertex 0.00448531145 -0.0216191113 -0.0289636701
  endloop
 endfacet

 facet normal 0 0 0
  outer loop
  vertex 0.0080110291 -0.0147880521 -0.0250340551
  vertex 0.00448531145 -0.0216191113 -0.0289636701
  vertex 0.00576897804 -0.0121223377 -0.0283643752
  endloop
 endfacet

 facet normal 0 0 0
  outer loop
  vertex 0.0080110291 -0.0147880521 -0.0250340551
  vertex 0.00576897804 -0.0121223377 -0.0283643752
  vertex 0.00721894531 0.000654231815 -0.0060091326
  endloop
 endfacet

 facet normal 0 0 0
  outer loop
  vertex 0.00392539473 -0.0114862835 -0.00534911128
  vertex 0.00445530424 -0.00179812824 -0.000753453525
  vertex -0.00125172827 -0.00890966132 -0.00308494177
  endloop
 endfacet

 facet normal 0 0 0
  outer loop
  vertex 0.00452208892 -0.0245191511 -0.0179058723
  vertex 0.00452195248 -0.025359435 -0.0213310197
  vertex 0.00721010286 -0.0175000168 -0.0142355803
  endloop
 endfacet

 facet normal 0 0 0
  outer loop
  vertex 0.00452208892 -0.0245191511 -0.0179058723
  vertex 0.00721010286 -0.0175000168 -0.0142355803
  vertex 0.00616062758 -0.00779607845 -0.00442890637
  endloop
 endfacet

 facet normal 0 0 0
  outer loop
  vertex 0.00452208892 -0.0245191511 -0.0179058723
  vertex 0.00616062758 -0.00779607845 -0.00442890637
  vertex 0.00392539473 -0.0114862835 -0.00534911128
  endloop
 endfacet

 facet normal 0 0 0
  outer loop
  vertex 0.00452208892 -0.0245191511 -0.0179058723
  vertex -0.00417473866 -0.0256304014 -0.0204030909
  vertex 0.00452195248 -0.025359435 -0.0213310197
  endloop
 endfacet

 facet normal 0 0 0
  outer loop
  vertex -0.00121183775 -0.013351758 -0.0297343135
  vertex 0.00448531145 -0.0216191113 -0.0289636701
  vertex -0.00421435619 -0.021675501 -0.028949488
  endloop
 endfacet

 facet normal 0 0 0
  outer loop
  vertex 0.00616062758 -0.00779607845 -0.00442890637
  vertex 0.00445530424 -0.00179812824 -0.000753453525
  vertex 0.00392539473 -0.0114862835 -0.00534911128
  endloop
 endfacet

 facet normal 0 0 0
  outer loop
  vertex 0.00616062758 -0.00779607845 -0.00442890637
  vertex 0.00721894531 0.000654231815 -0.0060091326
  vertex 0.00445530424 -0.00179812824 -0.000753453525
  endloop
 endfacet

 facet normal 0 0 0
  outer loop
  vertex 3.98722914e-05 0.00033753537 -4.58316863e-05
  vertex 1.15324438e-05 0.00416216301 -0.00235475926
  vertex -0.00492312247 0.0030955167 -0.00260325824
  endloop
 endfacet

 facet normal 0 0 0
  outer loop
  vertex 3.98722914e-05 0.00033753537 -4.58316863e-05
  vertex -0.00492312247 0.0030955167 -0.00260325824
  vertex -0.00428012107 -0.00181089994 -0.000704380742
  endloop
 endfacet

 facet normal 0 0 0
  outer loop
  vertex 3.98722914e-05 0.00033753537 -4.58316863e-05
  vertex 0.00445530424 -0.00179812824 -0.000753453525
  vertex 0.00494122226 0.00316790072 -0.00261006178
  endloop
 endfacet

 facet normal 0 0 0
  outer loop
  vertex 3.98722914e-05 0.00033753537 -4.58316863e-05
  vertex 0.00494122226 0.00316790072 -0.00261006178
  vertex 1.15324438e-05 0.00416216301 -0.00235475926
  endloop
 endfacet

 facet normal 0 0 0
  outer loop
  vertex -0.00780752813 -0.0148742581 -0.0250723474
  vertex -0.00421435619 -0.021675501 -0.028949488
  vertex -0.00417473866 -0.0256304014 -0.0204030909
  endloop
 endfacet

 facet normal 0 0 0
  outer loop
  vertex -0.00780752813 -0.0148742581 -0.0250723474
  vertex -0.00417473866 -0.0256304014 -0.0204030909
  vertex -0.00788645446 -0.015940655 -0.0168189816
  endloop
 endfacet

 facet normal 0 0 0
  outer loop
  vertex -0.00780752813 -0.0148742581 -0.0250723474
  vertex -0.00788645446 -0.015940655 -0.0168189816
  vertex -0.00727931736 -2.83706759e-05 -0.00580143603
  endloop
 endfacet

 facet normal 0 0 0
  outer loop
  vertex -0.00780752813 -0.0148742581 -0.0250723474
  vertex -0.00727931736 -2.83706759e-05 -0.00580143603
  vertex -0.00667021237 -0.012679317 -0.0274425
  endloop
 endfacet

 facet normal 0 0 0
  outer loop
  vertex -0.00780752813 -0.0148742581 -0.0250723474
  vertex -0.00667021237 -0.012679317 -0.0274425
  vertex -0.00421435619 -0.021675501 -0.028949488
  endloop
 endfacet

 facet normal 0 0 0
  outer loop
  vertex -0.00417748606 -0.0245755427 -0.0178916901
  vertex -0.00417473866 -0.0256304014 -0.0204030909
  vertex 0.00452208892 -0.0245191511 -0.0179058723
  endloop
 endfacet

 facet normal 0 0 0
  outer loop
  vertex 0.00452208892 -0.0245191511 -0.0179058723
  vertex 0.00392539473 -0.0114862835 -0.00534911128
  vertex -0.00125172827 -0.00890966132 -0.00308494177
  endloop
 endfacet

 facet normal 0 0 0
  outer loop
  vertex 0.00452208892 -0.0245191511 -0.0179058723
  vertex -0.00125172827 -0.00890966132 -0.00308494177
  vertex -0.00417748606 -0.0245755427 -0.0178916901
  endloop
 endfacet

 facet normal 0 0 0
  outer loop
  vertex -0.00417748606 -0.0245755427 -0.0178916901
  vertex -0.00125172827 -0.00890966132 -0.00308494177
  vertex -0.00568987383 -0.0117077325 -0.0067471643
  endloop
 endfacet

 facet normal 0 0 0
  outer loop
  vertex -0.00616676547 0.00156875548 -0.00617365586
  vertex -0.00492312247 0.0030955167 -0.00260325824
  vertex 1.15324438e-05 0.00416216301 -0.00235475926
  endloop
 endfacet

 facet normal 0 0 0
  outer loop
  vertex -0.00616676547 0.00156875548 -0.00617365586
  vertex 1.15324438e-05 0.00416216301 -0.00235475926
  vertex 0.00493580615 0.00239019352 -0.00564554753
  endloop
 endfacet

 facet normal 0 0 0
  outer loop
  vertex -0.00616676547 0.00156875548 -0.00617365586
  vertex 0.00493580615 0.00239019352 -0.00564554753
  vertex -0.0015021445 -0.0102064749 -0.027776083
  endloop
 endfacet

 facet normal 0 0 0
  outer loop
  vertex -0.00616676547 0.00156875548 -0.00617365586
  vertex -0.00667021237 -0.012679317 -0.0274425
  vertex -0.00727931736 -2.83706759e-05 -0.00580143603
  endloop
 endfacet

 facet normal 0 0 0
  outer loop
  vertex -0.00616676547 0.00156875548 -0.00617365586
  vertex -0.00727931736 -2.83706759e-05 -0.00580143603
  vertex -0.00492312247 0.0030955167 -0.00260325824
  endloop
 endfacet

 facet normal 0 0 0
  outer loop
  vertex -0.00363459392 -0.0114894146 -0.0289173815
  vertex -0.00121183775 -0.013351758 -0.0297343135
  vertex -0.00421435619 -0.021675501 -0.028949488
  endloop
 endfacet

 facet normal 0 0 0
  outer loop
  vertex -0.00363459392 -0.0114894146 -0.0289173815
  vertex -0.00421435619 -0.021675501 -0.028949488
  vertex -0.00667021237 -0.012679317 -0.0274425
  endloop
 endfacet

 facet normal 0 0 0
  outer loop
  vertex -0.00363459392 -0.0114894146 -0.0289173815
  vertex -0.00667021237 -0.012679317 -0.0274425
  vertex -0.00616676547 0.00156875548 -0.00617365586
  endloop
 endfacet

 facet normal 0 0 0
  outer loop
  vertex -0.00363459392 -0.0114894146 -0.0289173815
  vertex -0.00616676547 0.00156875548 -0.00617365586
  vertex -0.0015021445 -0.0102064749 -0.027776083
  endloop
 endfacet

 facet normal 0 0 0
  outer loop
  vertex -0.00727931736 -2.83706759e-05 -0.00580143603
  vertex -0.00788645446 -0.015940655 -0.0168189816
  vertex -0.00693226932 -0.0178477932 -0.0144621562
  endloop
 endfacet

 facet normal 0 0 0
  outer loop
  vertex -0.00727931736 -2.83706759e-05 -0.00580143603
  vertex -0.00693226932 -0.0178477932 -0.0144621562
  vertex -0.00585429184 -0.005794595 -0.00319481781
  endloop
 endfacet

 facet normal 0 0 0
  outer loop
  vertex -0.00585429184 -0.005794595 -0.00319481781
  vertex -0.00568987383 -0.0117077325 -0.0067471643
  vertex -0.00125172827 -0.00890966132 -0.00308494177
  endloop
 endfacet

 facet normal 0 0 0
  outer loop
  vertex -0.00585429184 -0.005794595 -0.00319481781
  vertex -0.00125172827 -0.00890966132 -0.00308494177
  vertex -0.00428012107 -0.00181089994 -0.000704380742
  endloop
 endfacet

 facet normal 0 0 0
  outer loop
  vertex -0.00585429184 -0.005794595 -0.00319481781
  vertex -0.00428012107 -0.00181089994 -0.000704380742
  vertex -0.00727931736 -2.83706759e-05 -0.00580143603
  endloop
 endfacet

 facet normal 0 0 0
  outer loop
  vertex 0.00493580615 0.00239019352 -0.00564554753
  vertex 1.15324438e-05 0.00416216301 -0.00235475926
  vertex 0.00494122226 0.00316790072 -0.00261006178
  endloop
 endfacet

 facet normal 0 0 0
  outer loop
  vertex 0.00493580615 0.00239019352 -0.00564554753
  vertex 0.00494122226 0.00316790072 -0.00261006178
  vertex 0.00721894531 0.000654231815 -0.0060091326
  endloop
 endfacet

 facet normal 0 0 0
  outer loop
  vertex 0.00493580615 0.00239019352 -0.00564554753
  vertex 0.00721894531 0.000654231815 -0.0060091326
  vertex 0.00576897804 -0.0121223377 -0.0283643752
  endloop
 endfacet

 facet normal 0 0 0
  outer loop
  vertex -0.00693226932 -0.0178477932 -0.0144621562
  vertex -0.00788645446 -0.015940655 -0.0168189816
  vertex -0.00417473866 -0.0256304014 -0.0204030909
  endloop
 endfacet

 facet normal 0 0 0
  outer loop
  vertex -0.00693226932 -0.0178477932 -0.0144621562
  vertex -0.00417473866 -0.0256304014 -0.0204030909
  vertex -0.00417748606 -0.0245755427 -0.0178916901
  endloop
 endfacet

 facet normal 0 0 0
  outer loop
  vertex -0.00693226932 -0.0178477932 -0.0144621562
  vertex -0.00417748606 -0.0245755427 -0.0178916901
  vertex -0.00568987383 -0.0117077325 -0.0067471643
  endloop
 endfacet

 facet normal 0 0 0
  outer loop
  vertex -0.00693226932 -0.0178477932 -0.0144621562
  vertex -0.00568987383 -0.0117077325 -0.0067471643
  vertex -0.00585429184 -0.005794595 -0.00319481781
  endloop
 endfacet

 facet normal 0 0 0
  outer loop
  vertex 0.00576897804 -0.0121223377 -0.0283643752
  vertex 0.00448531145 -0.0216191113 -0.0289636701
  vertex -0.00121183775 -0.013351758 -0.0297343135
  endloop
 endfacet

 facet normal 0 0 0
  outer loop
  vertex 0.00576897804 -0.0121223377 -0.0283643752
  vertex -0.00121183775 -0.013351758 -0.0297343135
  vertex 0.00181005266 -0.0112151485 -0.0291187633
  endloop
 endfacet

 facet normal 0 0 0
  outer loop
  vertex 0.00181005266 -0.0112151485 -0.0291187633
  vertex -0.00121183775 -0.013351758 -0.0297343135
  vertex -0.00363459392 -0.0114894146 -0.0289173815
  endloop
 endfacet

 facet normal 0 0 0
  outer loop
  vertex 0.00181005266 -0.0112151485 -0.0291187633
  vertex -0.00363459392 -0.0114894146 -0.0289173815
  vertex -0.0015021445 -0.0102064749 -0.027776083
  endloop
 endfacet

 facet normal 0 0 0
  outer loop
  vertex 0.00181005266 -0.0112151485 -0.0291187633
  vertex -0.0015021445 -0.0102064749 -0.027776083
  vertex 0.00493580615 0.00239019352 -0.00564554753
  endloop
 endfacet

 facet normal 0 0 0
  outer loop
  vertex 0.00181005266 -0.0112151485 -0.0291187633
  vertex 0.00493580615 0.00239019352 -0.00564554753
  vertex 0.00576897804 -0.0121223377 -0.0283643752
  endloop
 endfacet

 facet normal 0 0 0
  outer loop
  vertex 0.00807781238 -0.00662211189 -0.01144809
  vertex 0.00721010286 -0.0175000168 -0.0142355803
  vertex 0.0080110291 -0.0147880521 -0.0250340551
  endloop
 endfacet

 facet normal 0 0 0
  outer loop
  vertex 0.00807781238 -0.00662211189 -0.01144809
  vertex 0.0080110291 -0.0147880521 -0.0250340551
  vertex 0.00721894531 0.000654231815 -0.0060091326
  endloop
 endfacet

 facet normal 0 0 0
  outer loop
  vertex 0.00807781238 -0.00662211189 -0.01144809
  vertex 0.00721894531 0.000654231815 -0.0060091326
  vertex 0.00616062758 -0.00779607845 -0.00442890637
  endloop
 endfacet

 facet normal 0 0 0
  outer loop
  vertex 0.00807781238 -0.00662211189 -0.01144809
  vertex 0.00616062758 -0.00779607845 -0.00442890637
  vertex 0.00721010286 -0.0175000168 -0.0142355803
  endloop
 endfacet

endsolid AssimpScene
