# https://github.com/mikedh/trimesh
v 0.00216348 0.00239907 0.00373611
v 0.00216348 0.00239907 0.00356577
v 0.00212505 0.00239907 0.00410957
v 0.00233038 0.00223302 0.00373611
v 0.00216032 0.00239907 0.00323318
v 0.00233143 0.00223120 0.00323318
v 0.00210978 0.00239907 0.00423904
v 0.00229879 0.00220481 0.00423904
v 0.00254992 0.00191410 0.00423904
v 0.00258204 0.00193913 0.00373611
v 0.00258309 0.00193822 0.00323318
v 0.00212610 0.00239907 0.00310029
v 0.00226930 0.00216523 0.00273025
v 0.00222508 0.00212611 0.00453590
v 0.00183337 0.00239907 0.00455548
v 0.00269312 0.00160020 0.00452807
v 0.00273682 0.00166252 0.00423904
v 0.00275262 0.00168755 0.00373611
v 0.00274946 0.00168664 0.00323318
v 0.00271260 0.00163113 0.00283304
v 0.00200132 0.00239907 0.00273025
v 0.00253728 0.00178945 0.00269133
v 0.00218507 0.00207561 0.00244342
v 0.00199184 0.00239907 0.00271532
v 0.00189392 0.00228761 0.00456968
v 0.00239197 0.00177080 0.00456747
v 0.00138481 0.00239907 0.00460345
v 0.00275314 0.00127264 0.00455279
v 0.00314643 0.00052336 0.00449160
v 0.00291741 0.00127264 0.00423904
v 0.00297111 0.00127264 0.00373611
v 0.00297058 0.00127264 0.00323318
v 0.00262889 0.00150420 0.00249775
v 0.00282053 0.00131086 0.00269133
v 0.00188813 0.00177580 0.00226060
v 0.00183864 0.00225758 0.00240597
v 0.00173492 0.00239907 0.00244317
v 0.00272103 0.00116892 0.00241478
v 0.00228931 0.00177580 0.00238835
v 0.00188813 0.00177580 0.00462645
v 0.00138481 0.00227851 0.00462352
v 0.00239092 0.00127264 0.00462082
v -0.00214318 0.00239907 0.00468568
v 0.00289372 0.00026677 0.00457702
v 0.00316328 0.00026677 0.00450898
v 0.00320540 0.00026677 0.00423904
v 0.00315801 0.00057295 0.00423904
v 0.00307483 0.00082453 0.00423904
v 0.00311221 0.00087639 0.00373611
v 0.00311484 0.00088321 0.00323318
v 0.00316222 0.00059569 0.00293069
v 0.00304745 0.00076584 0.00275007
v 0.00243304 0.00131086 0.00233843
v 0.00239092 0.00076948 0.00224274
v 0.00188813 0.00127264 0.00222340
v 0.00138481 0.00177580 0.00222340
v 0.00088201 0.00227851 0.00223123
v 0.00138481 0.00227851 0.00229462
v 0.00138481 0.00239907 0.00234136
v 0.00165489 0.00239907 0.00241258
v 0.00308272 0.00026677 0.00260323
v 0.00278579 0.00076948 0.00237049
v 0.00239092 0.00076948 0.00462645
v -0.00214318 0.00239907 0.00218547
v -0.00214318 -0.00224768 0.00462645
v -0.00213528 -0.00224859 0.00462645
v 0.00088201 -0.00224859 0.00462645
v 0.00138481 -0.00224859 0.00462572
v 0.00188813 -0.00174451 0.00462645
v 0.00239092 -0.00073864 0.00462645
v 0.00289372 -0.00023594 0.00457628
v 0.00316275 -0.00023594 0.00450825
v 0.00320171 -0.00023594 0.00423904
v 0.00323225 0.00026677 0.00373611
v 0.00316959 0.00062481 0.00373611
v 0.00317012 0.00063163 0.00323318
v 0.00323488 0.00026677 0.00323318
v 0.00319065 0.00026677 0.00285457
v 0.00283106 0.00026677 0.00235458
v 0.00239092 0.00026677 0.00222707
v 0.00239092 -0.00023594 0.00222560
v -0.00174516 0.00239907 0.00219085
v 0.00076197 0.00239907 0.00226305
v 0.00088201 0.00239907 0.00226696
v 0.00124423 0.00239907 0.00231248
v 0.00025918 0.00239907 0.00224812
v 0.00308325 -0.00023594 0.00260666
v 0.00283159 -0.00023594 0.00235336
v -0.00213528 -0.00224859 0.00222340
v -0.00214318 -0.00224813 0.00222340
v 0.00188813 -0.00124181 0.00222340
v 0.00138481 -0.00174451 0.00222340
v 0.00088201 -0.00224859 0.00222438
v 0.00037974 -0.00224859 0.00222340
v -0.00214318 -0.00224859 0.00225987
v 0.00189708 -0.00224859 0.00457261
v 0.00239987 -0.00174861 0.00456772
v 0.00239092 -0.00124181 0.00462107
v 0.00276420 -0.00124181 0.00455328
v 0.00314590 -0.00049025 0.00449087
v 0.00322540 -0.00023594 0.00373611
v 0.00315433 -0.00054757 0.00423904
v 0.00323014 -0.00023594 0.00323318
v 0.00318908 -0.00023594 0.00285800
v 0.00239092 -0.00073864 0.00224004
v 0.00305061 -0.00073364 0.00275276
v 0.00272366 -0.00115082 0.00241283
v 0.00278895 -0.00073864 0.00236780
v 0.00316012 -0.00056258 0.00293534
v 0.00188813 -0.00174451 0.00225595
v 0.00138481 -0.00224768 0.00227773
v 0.00138481 -0.00224859 0.00227798
v 0.00190603 -0.00224859 0.00457139
v 0.00269155 -0.00158347 0.00452880
v 0.00191656 -0.00224859 0.00456943
v 0.00223824 -0.00209664 0.00453590
v 0.00309378 -0.00079915 0.00423904
v 0.00293478 -0.00124181 0.00423904
v 0.00312326 -0.00084965 0.00373611
v 0.00312011 -0.00084783 0.00323318
v 0.00243831 -0.00128776 0.00233720
v 0.00298322 -0.00124181 0.00323318
v 0.00282738 -0.00128776 0.00268375
v 0.00263784 -0.00148611 0.00248502
v 0.00230352 -0.00174451 0.00238370
v 0.00219507 -0.00205387 0.00243705
v 0.00185180 -0.00223221 0.00239447
v 0.00184074 -0.00224859 0.00239839
v 0.00257045 -0.00190647 0.00423904
v 0.00273524 -0.00165535 0.00423904
v 0.00215821 -0.00224859 0.00440032
v 0.00224719 -0.00224859 0.00423904
v 0.00231932 -0.00217762 0.00423904
v 0.00298427 -0.00124181 0.00373611
v 0.00275736 -0.00167991 0.00323318
v 0.00271892 -0.00161668 0.00282031
v 0.00255518 -0.00176863 0.00268375
v 0.00217401 -0.00224859 0.00273025
v 0.00228562 -0.00214713 0.00273025
v 0.00260152 -0.00193286 0.00373611
v 0.00234986 -0.00220992 0.00373611
v 0.00275525 -0.00168128 0.00373611
v 0.00231037 -0.00224859 0.00373611
v 0.00260046 -0.00193149 0.00323318
v 0.00231090 -0.00224859 0.00323318
v 0.00234880 -0.00221128 0.00323318
f 1 2 5
f 1 5 12
f 1 12 21
f 1 21 24
f 1 24 37
f 1 37 60
f 1 60 59
f 1 59 85
f 1 85 84
f 1 84 83
f 1 83 86
f 1 86 82
f 1 82 64
f 1 64 43
f 1 43 27
f 1 27 15
f 1 15 7
f 1 7 3
f 1 3 4
f 1 4 2
f 2 4 6
f 2 6 5
f 3 7 8
f 3 8 4
f 4 8 9
f 4 9 10
f 4 10 11
f 4 11 6
f 5 6 13
f 5 13 12
f 6 11 13
f 7 14 8
f 7 15 14
f 8 16 9
f 8 14 16
f 9 16 17
f 9 17 10
f 10 17 18
f 10 18 11
f 11 18 19
f 11 19 20
f 11 20 13
f 12 13 21
f 13 20 22
f 13 22 23
f 13 23 24
f 13 24 21
f 14 15 25
f 14 25 26
f 14 26 16
f 15 27 25
f 16 26 28
f 16 28 29
f 16 29 30
f 16 30 17
f 17 30 31
f 17 31 18
f 18 31 32
f 18 32 19
f 19 32 20
f 20 33 22
f 20 32 34
f 20 34 33
f 22 33 23
f 23 35 36
f 23 36 37
f 23 37 24
f 23 33 38
f 23 38 39
f 23 39 35
f 25 40 26
f 25 27 41
f 25 41 40
f 26 42 28
f 26 40 42
f 27 43 41
f 28 44 45
f 28 45 29
f 28 42 44
f 29 45 46
f 29 46 47
f 29 47 48
f 29 48 30
f 30 48 49
f 30 49 31
f 31 49 50
f 31 50 32
f 32 50 51
f 32 51 34
f 33 34 38
f 34 51 52
f 34 52 38
f 35 39 53
f 35 53 54
f 35 54 55
f 35 55 56
f 35 56 57
f 35 57 58
f 35 58 36
f 36 59 60
f 36 60 37
f 36 58 59
f 38 53 39
f 38 52 61
f 38 61 62
f 38 62 53
f 40 63 42
f 40 41 43
f 40 43 63
f 42 63 44
f 43 64 90
f 43 90 95
f 43 95 65
f 43 65 66
f 43 66 67
f 43 67 68
f 43 68 69
f 43 69 70
f 43 70 63
f 44 71 45
f 44 63 70
f 44 70 71
f 45 72 46
f 45 71 72
f 46 72 73
f 46 73 74
f 46 74 47
f 47 49 48
f 47 74 75
f 47 75 49
f 49 75 50
f 50 75 76
f 50 76 51
f 51 76 77
f 51 77 78
f 51 78 61
f 51 61 52
f 53 62 54
f 54 62 79
f 54 79 80
f 54 80 55
f 55 80 81
f 55 81 64
f 55 64 56
f 56 64 82
f 56 82 57
f 57 83 84
f 57 84 85
f 57 85 58
f 57 82 86
f 57 86 83
f 58 85 59
f 61 87 88
f 61 88 79
f 61 79 62
f 61 78 87
f 64 89 90
f 64 81 91
f 64 91 92
f 64 92 93
f 64 93 94
f 64 94 89
f 65 95 66
f 66 95 89
f 66 89 94
f 66 94 93
f 66 93 112
f 66 112 128
f 66 128 138
f 66 138 145
f 66 145 143
f 66 143 132
f 66 132 131
f 66 131 115
f 66 115 113
f 66 113 96
f 66 96 68
f 66 68 67
f 68 96 69
f 69 96 97
f 69 97 98
f 69 98 70
f 70 98 71
f 71 98 99
f 71 99 72
f 72 100 73
f 72 99 100
f 73 101 74
f 73 100 102
f 73 102 101
f 74 103 77
f 74 77 75
f 74 101 103
f 75 77 76
f 77 103 104
f 77 104 78
f 78 104 87
f 79 88 81
f 79 81 80
f 81 88 105
f 81 105 91
f 87 106 107
f 87 107 108
f 87 108 88
f 87 104 109
f 87 109 106
f 88 108 105
f 89 95 90
f 91 105 110
f 91 110 92
f 92 110 93
f 93 110 111
f 93 111 112
f 96 113 97
f 97 114 99
f 97 99 98
f 97 113 115
f 97 115 116
f 97 116 114
f 99 114 100
f 100 117 102
f 100 114 118
f 100 118 117
f 101 102 119
f 101 119 103
f 102 117 119
f 103 119 120
f 103 120 109
f 103 109 104
f 105 108 121
f 105 121 110
f 106 109 122
f 106 122 123
f 106 123 107
f 107 124 125
f 107 125 121
f 107 121 108
f 107 123 124
f 109 120 122
f 110 121 125
f 110 125 126
f 110 126 127
f 110 127 112
f 110 112 111
f 112 127 128
f 114 129 130
f 114 130 118
f 114 116 129
f 115 131 116
f 116 131 132
f 116 132 133
f 116 133 129
f 117 118 134
f 117 134 119
f 118 130 134
f 119 134 122
f 119 122 120
f 122 134 135
f 122 135 136
f 122 136 123
f 123 136 124
f 124 136 137
f 124 137 126
f 124 126 125
f 126 138 128
f 126 128 127
f 126 137 139
f 126 139 138
f 129 140 130
f 129 133 141
f 129 141 140
f 130 140 142
f 130 142 134
f 132 143 141
f 132 141 133
f 134 142 135
f 135 142 140
f 135 140 144
f 135 144 136
f 136 144 139
f 136 139 137
f 138 139 145
f 139 144 146
f 139 146 145
f 140 141 146
f 140 146 144
f 141 143 145
f 141 145 146

