# https://github.com/mikedh/trimesh
v -0.00817104 -0.00042087 -0.00027810
v -0.00835578 -0.00150487 0.00095582
v -0.00854144 -0.00150487 0.00095582
v -0.00867405 -0.00042087 -0.00027054
v -0.00800368 -0.00042087 -0.00024732
v -0.00214318 -0.00224841 0.00222377
v -0.00867405 -0.00224859 0.00218975
v -0.00917706 -0.00224859 0.00219515
v -0.00887708 -0.00148805 0.00097796
v -0.00869508 -0.00131791 0.00076034
v -0.00898774 -0.00100840 0.00044713
v -0.00905725 -0.00052392 -0.00007722
v -0.00912858 -0.00042087 -0.00016686
v -0.00770462 -0.00042087 -0.00017658
v -0.00214318 -0.00042087 0.00222377
v -0.00214318 -0.00224859 0.00225995
v -0.00263887 -0.00224859 0.00222377
v -0.00751439 -0.00042087 -0.00011394
v -0.00956117 -0.00224859 0.00234581
v -0.00917706 -0.00143670 0.00104600
v -0.00932339 -0.00095920 0.00050653
v -0.00939198 -0.00047704 -0.00002430
v -0.00935265 -0.00042087 -0.00009720
v -0.00214318 -0.00042087 0.00462627
v -0.00214318 -0.00224787 0.00462627
v -0.00263887 -0.00224859 0.00462627
v -0.00968006 -0.00106672 0.00086996
v -0.00978524 -0.00224859 0.00274488
v -0.01040805 -0.00096564 0.00151959
v -0.01029282 -0.00086438 0.00122151
v -0.00993706 -0.00099480 0.00096446
v -0.00968006 -0.00086760 0.00061831
v -0.00968006 -0.00061623 0.00032077
v -0.00968006 -0.00042087 0.00009720
v -0.00959227 -0.00042087 0.00004104
v -0.00944045 -0.00042087 -0.00005454
v -0.00577855 -0.00042087 0.00523865
v -0.00587550 -0.00051765 0.00523865
v -0.00615993 -0.00075131 0.00523865
v -0.00643704 -0.00097315 0.00523865
v -0.00668763 -0.00112898 0.00523865
v -0.00714125 -0.00137909 0.00523865
v -0.00739092 -0.00150952 0.00523865
v -0.00766803 -0.00158699 0.00523865
v -0.00817104 -0.00171455 0.00523865
v -0.00867405 -0.00180633 0.00523865
v -0.00917706 -0.00185123 0.00523865
v -0.00968006 -0.00186089 0.00523865
v -0.00917706 -0.00224859 0.00472726
v -0.00979713 -0.00224859 0.00277080
v -0.01049402 -0.00104704 0.00185494
v -0.01069157 -0.00074523 0.00171670
v -0.01089003 -0.00042731 0.00157845
v -0.01070528 -0.00042087 0.00122151
v -0.01054066 -0.00061283 0.00122151
v -0.01045561 -0.00051193 0.00094016
v -0.01028642 -0.00042087 0.00062749
v -0.01021874 -0.00042087 0.00055675
v -0.00997455 -0.00052284 0.00042769
v -0.01003400 -0.00042087 0.00036721
v -0.01148540 -0.00042087 0.00523865
v -0.01018216 -0.00172707 0.00523865
v -0.00971207 -0.00224859 0.00464733
v -0.00990139 -0.00224859 0.00307968
v -0.01081961 -0.00084935 0.00222755
v -0.01096319 -0.00052481 0.00191326
v -0.01089734 -0.00042087 0.00158385
v -0.01089186 -0.00042087 0.00157197
v -0.01050774 -0.00042087 0.00089696
v -0.01148632 -0.00042087 0.00513172
v -0.01148357 -0.00042373 0.00523865
v -0.01049402 -0.00154637 0.00523865
v -0.00976146 -0.00224859 0.00461385
v -0.00994346 -0.00224859 0.00322117
v -0.01089094 -0.00093487 0.00272976
v -0.01101532 -0.00059780 0.00222755
v -0.00996449 -0.00224859 0.00329245
v -0.01106928 -0.00042087 0.00201532
v -0.01101075 -0.00042087 0.00184684
v -0.01147443 -0.00042087 0.00474184
v -0.01143327 -0.00047794 0.00474184
v -0.01143785 -0.00048402 0.00507880
v -0.01128512 -0.00068153 0.00523865
v -0.01074278 -0.00129823 0.00523865
v -0.01000016 -0.00224859 0.00425961
v -0.00998644 -0.00224859 0.00428985
v -0.01092386 -0.00097423 0.00306510
v -0.01107934 -0.00068350 0.00272976
v -0.01126408 -0.00042087 0.00272976
v -0.01122018 -0.00042087 0.00255479
v -0.01113787 -0.00042087 0.00222701
v -0.01002028 -0.00224859 0.00373580
v -0.01094947 -0.00100536 0.00340045
v -0.01145431 -0.00042087 0.00423909
v -0.01142321 -0.00046416 0.00423909
v -0.01121104 -0.00073914 0.00423909
v -0.01127323 -0.00069602 0.00523865
v -0.01074918 -0.00129179 0.00523865
v -0.01000473 -0.00224859 0.00423045
v -0.01098697 -0.00104346 0.00523865
v -0.01109580 -0.00077958 0.00323305
v -0.01135188 -0.00042087 0.00318984
v -0.01118360 -0.00073914 0.00373580
v -0.01140767 -0.00044144 0.00373580
v -0.01142230 -0.00042087 0.00373580
v -0.01139395 -0.00042087 0.00350737
v -0.01135920 -0.00042087 0.00323305
f 1 2 3
f 1 3 4
f 1 4 13
f 1 13 23
f 1 23 36
f 1 36 35
f 1 35 34
f 1 34 60
f 1 60 58
f 1 58 57
f 1 57 69
f 1 69 54
f 1 54 68
f 1 68 67
f 1 67 79
f 1 79 78
f 1 78 91
f 1 91 90
f 1 90 89
f 1 89 102
f 1 102 107
f 1 107 106
f 1 106 105
f 1 105 94
f 1 94 80
f 1 80 70
f 1 70 61
f 1 61 37
f 1 37 24
f 1 24 15
f 1 15 18
f 1 18 14
f 1 14 5
f 1 5 6
f 1 6 2
f 2 7 3
f 2 6 7
f 3 7 8
f 3 8 9
f 3 9 10
f 3 10 4
f 4 10 9
f 4 9 11
f 4 11 12
f 4 12 13
f 5 14 6
f 6 15 24
f 6 24 25
f 6 25 16
f 6 16 17
f 6 17 7
f 6 14 18
f 6 18 15
f 7 17 16
f 7 16 26
f 7 26 49
f 7 49 63
f 7 63 73
f 7 73 86
f 7 86 85
f 7 85 99
f 7 99 92
f 7 92 77
f 7 77 74
f 7 74 64
f 7 64 50
f 7 50 28
f 7 28 19
f 7 19 8
f 8 19 9
f 9 19 20
f 9 20 21
f 9 21 11
f 11 21 22
f 11 22 12
f 12 22 13
f 13 22 23
f 16 25 26
f 19 27 21
f 19 21 20
f 19 28 29
f 19 29 30
f 19 30 31
f 19 31 27
f 21 27 32
f 21 32 22
f 22 32 33
f 22 33 34
f 22 34 35
f 22 35 36
f 22 36 23
f 24 37 25
f 25 37 38
f 25 38 39
f 25 39 40
f 25 40 41
f 25 41 42
f 25 42 43
f 25 43 44
f 25 44 45
f 25 45 46
f 25 46 47
f 25 47 48
f 25 48 49
f 25 49 26
f 27 31 32
f 28 50 51
f 28 51 29
f 29 51 52
f 29 52 53
f 29 53 54
f 29 54 55
f 29 55 56
f 29 56 30
f 30 56 31
f 31 56 57
f 31 57 58
f 31 58 59
f 31 59 32
f 32 59 33
f 33 59 34
f 34 59 60
f 37 61 71
f 37 71 83
f 37 83 97
f 37 97 100
f 37 100 98
f 37 98 84
f 37 84 72
f 37 72 62
f 37 62 48
f 37 48 47
f 37 47 46
f 37 46 45
f 37 45 44
f 37 44 43
f 37 43 42
f 37 42 41
f 37 41 40
f 37 40 39
f 37 39 38
f 48 62 63
f 48 63 49
f 50 64 65
f 50 65 51
f 51 65 66
f 51 66 52
f 52 66 53
f 53 66 67
f 53 67 68
f 53 68 54
f 54 69 55
f 55 69 56
f 56 69 57
f 58 60 59
f 61 70 71
f 62 72 73
f 62 73 63
f 64 74 65
f 65 75 76
f 65 76 66
f 65 74 77
f 65 77 75
f 66 76 78
f 66 78 79
f 66 79 67
f 70 80 81
f 70 81 82
f 70 82 83
f 70 83 71
f 72 84 85
f 72 85 86
f 72 86 73
f 75 87 88
f 75 88 76
f 75 77 87
f 76 88 89
f 76 89 90
f 76 90 91
f 76 91 78
f 77 92 93
f 77 93 87
f 80 94 95
f 80 95 81
f 81 95 96
f 81 96 92
f 81 92 82
f 82 92 83
f 83 92 97
f 84 98 85
f 85 98 100
f 85 100 99
f 87 93 101
f 87 101 102
f 87 102 88
f 88 102 89
f 92 99 100
f 92 100 97
f 92 96 95
f 92 95 103
f 92 103 93
f 93 103 104
f 93 104 101
f 94 105 104
f 94 104 95
f 95 104 103
f 101 104 106
f 101 106 107
f 101 107 102
f 104 105 106

