# https://github.com/mikedh/trimesh
v 0.00216398 0.00239907 0.00373579
v 0.00207755 0.00248483 0.00373579
v 0.00205394 0.00245652 0.00423906
v 0.00212519 0.00239907 0.00410949
v 0.00216356 0.00239907 0.00356547
v 0.00207418 0.00248315 0.00323296
v 0.00182290 0.00265680 0.00323296
v 0.00182627 0.00265689 0.00373579
v 0.00180266 0.00263650 0.00423906
v 0.00210959 0.00239907 0.00423906
v 0.00173056 0.00258790 0.00453166
v 0.00216018 0.00239907 0.00323296
v 0.00212603 0.00239907 0.00309996
v 0.00200166 0.00239907 0.00273056
v 0.00198100 0.00241695 0.00273056
v 0.00172972 0.00259395 0.00273056
v 0.00114706 0.00303939 0.00296181
v 0.00140635 0.00290820 0.00323296
v 0.00140888 0.00290829 0.00373579
v 0.00115001 0.00304107 0.00409704
v 0.00134479 0.00290876 0.00425450
v 0.00110869 0.00301946 0.00443255
v 0.00183344 0.00239907 0.00455526
v 0.00033293 0.00335019 0.00466295
v -0.00007392 0.00335019 0.00493581
v 0.00199196 0.00239907 0.00271554
v 0.00163781 0.00253119 0.00247828
v 0.00134268 0.00284321 0.00276874
v 0.00115507 0.00304311 0.00323296
v -0.00214318 0.00335019 0.00089642
v -0.00060979 0.00335019 0.00231182
v -0.00015023 0.00335019 0.00274472
v 0.00012718 0.00335019 0.00323296
v 0.00021109 0.00335019 0.00348652
v 0.00028908 0.00335019 0.00386022
v 0.00035485 0.00335019 0.00425279
v 0.00115718 0.00304432 0.00373579
v 0.00035401 0.00335019 0.00427338
v 0.00034010 0.00335019 0.00456341
v 0.00138485 0.00239907 0.00460331
v -0.00036525 0.00335019 0.00503707
v -0.00109211 0.00335019 0.00527947
v -0.00214318 0.00300205 0.00527947
v 0.00173478 0.00239907 0.00244353
v -0.00214318 0.00335019 0.00527947
v 0.00165510 0.00239907 0.00241264
v 0.00138485 0.00239907 0.00234142
v 0.00124403 0.00239907 0.00231267
v 0.00088187 0.00239907 0.00226720
v 0.00076213 0.00239907 0.00226333
v 0.00025873 0.00239907 0.00224832
v -0.00174518 0.00239907 0.00219083
v -0.00214318 0.00239907 0.00218568
v -0.00214318 0.00239907 0.00468526
f 1 2 3
f 1 3 4
f 1 4 10
f 1 10 23
f 1 23 40
f 1 40 54
f 1 54 53
f 1 53 52
f 1 52 51
f 1 51 50
f 1 50 49
f 1 49 48
f 1 48 47
f 1 47 46
f 1 46 44
f 1 44 26
f 1 26 14
f 1 14 13
f 1 13 12
f 1 12 5
f 1 5 2
f 2 5 6
f 2 6 7
f 2 7 8
f 2 8 9
f 2 9 3
f 3 10 4
f 3 9 11
f 3 11 10
f 5 12 6
f 6 12 13
f 6 13 14
f 6 14 15
f 6 15 16
f 6 16 7
f 7 16 17
f 7 17 18
f 7 18 8
f 8 19 20
f 8 20 9
f 8 18 19
f 9 20 21
f 9 21 22
f 9 22 11
f 10 11 23
f 11 22 24
f 11 24 25
f 11 25 23
f 14 26 15
f 15 26 27
f 15 27 16
f 16 28 17
f 16 27 28
f 17 29 18
f 17 28 30
f 17 30 31
f 17 31 32
f 17 32 33
f 17 33 34
f 17 34 35
f 17 35 36
f 17 36 29
f 18 29 37
f 18 37 19
f 19 37 20
f 20 37 38
f 20 38 39
f 20 39 24
f 20 24 22
f 20 22 21
f 23 25 41
f 23 41 42
f 23 42 43
f 23 43 40
f 24 39 38
f 24 38 36
f 24 36 35
f 24 35 34
f 24 34 33
f 24 33 32
f 24 32 31
f 24 31 30
f 24 30 45
f 24 45 42
f 24 42 41
f 24 41 25
f 26 44 27
f 27 44 30
f 27 30 28
f 29 36 37
f 30 44 46
f 30 46 47
f 30 47 48
f 30 48 49
f 30 49 50
f 30 50 51
f 30 51 52
f 30 52 53
f 30 53 54
f 30 54 43
f 30 43 45
f 36 38 37
f 40 43 54
f 42 45 43

