# https://github.com/mikedh/trimesh
v -0.00342216 0.00175955 0.00211245
v -0.00342216 0.00243751 0.00087194
v -0.00214318 0.00175955 0.00222360
v -0.00342216 0.00175955 0.00989135
v -0.00342216 0.00266796 0.00061260
v -0.00342216 0.00279627 0.00047039
v -0.00342216 0.00315300 0.00008915
v -0.00342216 0.00335013 -0.00009967
v -0.00291149 0.00335013 0.00027678
v -0.00262655 0.00335013 0.00048831
v -0.00230280 0.00335013 0.00073809
v -0.00214318 0.00335013 0.00089704
v -0.00214318 0.00175955 0.00977662
v -0.00342216 0.00233723 0.01094781
v -0.00342216 0.00335013 0.01210945
v -0.00214318 0.00335013 0.01110318
v -0.00222456 0.00335013 0.01119759
v -0.00230005 0.00335013 0.01126213
v -0.00248771 0.00335013 0.01142107
v -0.00272032 0.00335013 0.01159556
v -0.00289322 0.00335013 0.01172343
v -0.00342216 0.00323973 0.01200070
v -0.00342216 0.00301722 0.01177841
v -0.00342216 0.00254698 0.01126213
v -0.00342216 0.00243969 0.01112588
f 1 2 3
f 1 3 13
f 1 13 4
f 1 4 14
f 1 14 25
f 1 25 24
f 1 24 23
f 1 23 22
f 1 22 15
f 1 15 8
f 1 8 7
f 1 7 6
f 1 6 5
f 1 5 2
f 2 5 3
f 3 5 6
f 3 6 7
f 3 7 8
f 3 8 9
f 3 9 10
f 3 10 11
f 3 11 12
f 3 12 16
f 3 16 13
f 4 13 14
f 8 15 21
f 8 21 20
f 8 20 19
f 8 19 18
f 8 18 17
f 8 17 16
f 8 16 12
f 8 12 11
f 8 11 10
f 8 10 9
f 13 16 17
f 13 17 18
f 13 18 19
f 13 19 20
f 13 20 21
f 13 21 15
f 13 15 22
f 13 22 23
f 13 23 24
f 13 24 25
f 13 25 14

