# https://github.com/mikedh/trimesh
v 0.00080966 0.01277906 0.00625057
v 0.00080966 0.01277906 0.00574855
v 0.00080695 0.01277906 0.00631168
v 0.00113519 0.01159204 0.00653633
v 0.00093445 0.01233785 0.00625057
v 0.00078524 0.01277906 0.00524532
v 0.00093445 0.01233785 0.00574855
v 0.00113655 0.01159389 0.00545500
v 0.00078524 0.01277906 0.00675380
v 0.00112298 0.01153758 0.00687182
v 0.00117046 0.01135482 0.00672384
v 0.00137663 0.01032564 0.00675380
v 0.00130067 0.01082869 0.00625057
v 0.00119758 0.01133174 0.00625057
v 0.00113926 0.01160588 0.00625057
v 0.00091003 0.01233785 0.00675380
v 0.00106601 0.01178957 0.00672384
v 0.00106873 0.01185880 0.00574855
v 0.00113926 0.01160681 0.00574855
v 0.00106737 0.01179049 0.00527048
v 0.00086527 0.01233785 0.00474210
v 0.00074591 0.01277906 0.00480859
v 0.00112434 0.01154127 0.00511951
v 0.00119894 0.01133174 0.00574855
v 0.00130338 0.01082869 0.00574855
v 0.00137934 0.01032564 0.00524532
v 0.00127761 0.01082869 0.00524532
v 0.00077982 0.01277906 0.00681490
v 0.00115689 0.01119698 0.00725642
v 0.00133729 0.01032564 0.00725642
v 0.00100498 0.01183480 0.00725642
v 0.00110399 0.01144805 0.00725642
v 0.00142546 0.00982259 0.00725642
v 0.00146343 0.00982259 0.00675380
v 0.00139968 0.01032564 0.00625057
v 0.00086391 0.01233785 0.00725642
v 0.00100633 0.01183480 0.00474210
v 0.00068080 0.01276521 0.00423947
v 0.00073641 0.01277906 0.00471034
v 0.00133729 0.01032564 0.00474210
v 0.00123421 0.01082869 0.00474210
v 0.00115825 0.01119790 0.00474210
v 0.00110399 0.01144897 0.00474210
v 0.00140104 0.01032564 0.00574855
v 0.00146479 0.00982259 0.00524532
v 0.00142681 0.00982259 0.00474210
v 0.00073506 0.01277906 0.00728638
v 0.00114062 0.01111391 0.00755716
v 0.00127218 0.01032564 0.00775965
v 0.00136171 0.00982259 0.00775965
v 0.00106737 0.01130128 0.00773868
v 0.00068080 0.01276429 0.00775965
v 0.00079474 0.01233785 0.00775965
v 0.00092631 0.01183480 0.00775965
v 0.00143631 0.00931953 0.00775965
v 0.00149734 0.00931953 0.00725642
v 0.00148378 0.00982259 0.00625057
v 0.00163163 0.00852850 0.00691016
v 0.00153261 0.00931953 0.00675380
v 0.00164655 0.00864110 0.00625057
v 0.00092766 0.01183480 0.00423947
v 0.00079609 0.01233785 0.00423947
v 0.00065232 0.01266276 0.00396150
v 0.00067673 0.01277906 0.00423947
v 0.00136171 0.00982259 0.00423947
v 0.00127083 0.01032564 0.00423947
v 0.00113926 0.01111114 0.00444495
v 0.00106601 0.01130036 0.00426223
v 0.00111620 0.01099484 0.00410947
v 0.00148514 0.00982259 0.00574855
v 0.00153532 0.00931953 0.00524532
v 0.00163434 0.00854326 0.00505481
v 0.00149870 0.00931953 0.00474210
v 0.00143631 0.00931953 0.00423947
v 0.00068352 0.01277906 0.00770154
v 0.00111620 0.01099668 0.00789264
v 0.00117317 0.01082869 0.00773868
v 0.00115011 0.01066162 0.00811370
v 0.00118673 0.01034225 0.00827366
v 0.00128032 0.00982259 0.00826228
v 0.00067538 0.01277906 0.00775965
v 0.00065232 0.01266368 0.00803762
v 0.00135357 0.00931953 0.00826228
v 0.00150684 0.00881740 0.00775965
v 0.00156652 0.00881740 0.00725642
v 0.00161806 0.00841865 0.00725642
v 0.00164790 0.00816759 0.00725642
v 0.00168724 0.00781222 0.00725642
v 0.00188120 0.00630306 0.00675380
v 0.00190697 0.00630306 0.00625057
v 0.00166011 0.00834204 0.00674661
v 0.00168588 0.00831435 0.00625057
v 0.00163976 0.00858849 0.00657467
v 0.00160585 0.00878048 0.00674661
v 0.00164655 0.00864572 0.00574855
v 0.00161264 0.00889678 0.00574855
v 0.00112163 0.01052040 0.00354993
v 0.00093851 0.01032841 0.00280048
v 0.00078524 0.01062378 0.00280048
v 0.00074998 0.01069024 0.00280048
v 0.00048548 0.01277906 0.00388781
v 0.00063469 0.01277906 0.00405316
v 0.00128032 0.00982259 0.00373624
v 0.00118673 0.01034225 0.00372486
v 0.00115011 0.01065978 0.00388541
v 0.00117181 0.01082777 0.00426223
v 0.00160857 0.00878510 0.00523154
v 0.00162213 0.00835127 0.00469776
v 0.00156788 0.00881740 0.00474210
v 0.00168588 0.00831435 0.00574855
v 0.00190697 0.00630306 0.00574855
v 0.00188120 0.00630306 0.00524532
v 0.00184865 0.00630306 0.00474210
v 0.00165197 0.00820820 0.00483615
v 0.00150684 0.00881740 0.00423947
v 0.00135492 0.00931953 0.00373624
v 0.00112163 0.01052040 0.00844919
v 0.00115418 0.01018534 0.00859297
v 0.00048548 0.01277906 0.00811131
v 0.00079067 0.01077331 0.00892066
v 0.00102261 0.01033672 0.00892066
v 0.00130881 0.00881740 0.00876550
v 0.00142274 0.00881740 0.00826228
v 0.00158551 0.00826912 0.00771412
v 0.00163705 0.00807159 0.00751582
v 0.00184865 0.00630306 0.00725642
v 0.00191782 0.00580001 0.00675380
v 0.00194224 0.00580001 0.00625057
v 0.00115418 0.01018534 0.00340795
v 0.00107008 0.01034225 0.00323781
v 0.00110806 0.00991581 0.00307247
v 0.00104974 0.00978843 0.00280048
v 0.00067131 0.01073085 0.00280048
v 0.00040274 0.01277906 0.00385007
v 0.00043801 0.01277906 0.00386145
v 0.00163569 0.00805406 0.00450067
v 0.00157194 0.00831435 0.00423947
v 0.00194088 0.00580001 0.00574855
v 0.00191647 0.00580001 0.00524532
v 0.00188391 0.00580001 0.00474210
v 0.00179439 0.00630306 0.00423947
v 0.00142546 0.00881740 0.00373624
v 0.00131288 0.00881740 0.00323362
v 0.00124099 0.00931953 0.00323362
v 0.00107008 0.01034225 0.00876251
v 0.00110671 0.00992781 0.00892066
v 0.00111213 0.00990104 0.00892066
v 0.00117317 0.00977274 0.00876251
v 0.00040274 0.01277906 0.00814965
v -0.00012489 0.01277906 0.00827725
v 0.00037833 0.01098376 0.00892066
v 0.00137391 0.00831435 0.00876550
v 0.00114875 0.00964813 0.00892066
v 0.00119487 0.00931953 0.00892066
v 0.00126405 0.00881740 0.00892066
v 0.00148785 0.00831435 0.00826228
v 0.00163163 0.00752516 0.00798311
v 0.00161535 0.00781222 0.00786988
v 0.00165197 0.00781222 0.00761887
v 0.00174421 0.00680612 0.00775965
v 0.00179710 0.00630306 0.00775965
v 0.00188256 0.00580001 0.00725642
v 0.00182830 0.00529696 0.00675380
v 0.00185407 0.00529696 0.00625057
v 0.00117453 0.00977828 0.00323781
v 0.00113383 0.00958075 0.00297721
v 0.00105516 0.00975520 0.00280048
v 0.00037833 0.01087761 0.00280048
v -0.00006249 0.01277906 0.00372306
v 0.00173878 0.00680612 0.00423947
v 0.00163163 0.00751316 0.00402560
v 0.00148785 0.00831435 0.00373624
v 0.00185000 0.00529696 0.00574855
v 0.00182016 0.00529696 0.00524532
v 0.00178354 0.00529696 0.00474210
v 0.00182288 0.00580001 0.00423947
v 0.00165333 0.00620522 0.00341813
v 0.00169402 0.00634460 0.00369071
v 0.00164926 0.00717810 0.00392136
v 0.00137663 0.00831435 0.00323362
v 0.00119216 0.00881740 0.00280827
v 0.00115418 0.00931953 0.00291551
v -0.00014388 0.01123298 0.00892066
v -0.00347922 0.01277906 0.00892066
v 0.00132644 0.00831804 0.00892066
v 0.00143088 0.00781222 0.00876550
v 0.00163569 0.00654951 0.00851149
v 0.00162213 0.00680612 0.00844260
v 0.00154617 0.00781222 0.00826228
v 0.00165061 0.00719010 0.00808615
v 0.00168046 0.00733778 0.00779320
v 0.00167232 0.00680612 0.00819158
v 0.00169809 0.00635014 0.00831140
v 0.00182559 0.00580001 0.00775965
v 0.00178761 0.00529696 0.00725642
v 0.00166282 0.00501174 0.00725642
v 0.00168452 0.00498497 0.00675380
v 0.00169809 0.00496744 0.00625057
v 0.00106330 0.00970167 0.00280048
v -0.00358773 0.01277906 0.00280048
v 0.00154482 0.00781222 0.00373624
v 0.00169402 0.00497113 0.00574855
v 0.00167774 0.00499051 0.00524532
v 0.00165875 0.00501636 0.00474210
v 0.00164383 0.00503482 0.00444136
v 0.00171572 0.00527388 0.00425984
v 0.00167910 0.00543634 0.00373624
v 0.00164655 0.00552126 0.00343970
v 0.00172929 0.00580001 0.00373624
v 0.00159500 0.00580001 0.00314915
v 0.00159365 0.00634460 0.00324380
v 0.00154210 0.00680612 0.00323362
v 0.00148785 0.00730917 0.00323362
v 0.00163434 0.00654028 0.00349302
v 0.00165604 0.00580001 0.00340076
v 0.00130202 0.00781222 0.00280048
v 0.00143224 0.00781222 0.00323362
v 0.00124506 0.00832174 0.00280048
v 0.00118945 0.00881740 0.00280048
v 0.00111891 0.00931953 0.00280048
v -0.01099764 0.01277906 0.00892066
v 0.00140104 0.00765715 0.00892066
v 0.00154075 0.00680612 0.00876550
v 0.00165333 0.00621445 0.00858158
v 0.00160043 0.00733778 0.00825748
v 0.00173607 0.00580001 0.00826228
v 0.00164790 0.00551849 0.00856122
v 0.00168317 0.00543264 0.00826228
v 0.00171843 0.00527296 0.00774228
v 0.00164519 0.00503297 0.00756255
v 0.00034849 0.00335121 0.00772430
v 0.00035391 0.00335121 0.00427422
v 0.00035391 0.00335121 0.00425325
v -0.01094610 0.01277906 0.00280048
v 0.00161399 0.00509112 0.00410587
v 0.00028881 0.00335121 0.00386085
v 0.00021014 0.00335121 0.00348703
v 0.00156788 0.00518527 0.00373624
v 0.00150413 0.00533111 0.00325698
v 0.00132237 0.00527665 0.00280048
v 0.00146615 0.00573725 0.00280048
v 0.00148242 0.00580001 0.00280048
v 0.00146479 0.00621907 0.00280048
v 0.00146072 0.00630860 0.00280048
v -0.01102477 0.01277906 0.00876550
v -0.01101663 0.01255845 0.00892066
v 0.00143902 0.00730917 0.00892066
v 0.00149327 0.00680612 0.00892066
v 0.00154346 0.00633537 0.00892066
v 0.00159229 0.00635014 0.00875592
v 0.00159365 0.00580001 0.00885177
v 0.00165875 0.00580001 0.00860016
v 0.00157059 0.00580001 0.00892066
v 0.00143088 0.00530988 0.00892066
v 0.00150277 0.00532926 0.00874333
v 0.00156788 0.00518158 0.00826228
v 0.00161264 0.00508928 0.00789804
v 0.00024269 0.00335121 0.00826228
v -0.01096373 0.01257507 0.00280048
v -0.01095831 0.01277906 0.00286219
v 0.00124234 0.00492405 0.00323362
v 0.00012604 0.00335121 0.00323362
v 0.00117724 0.00499605 0.00286938
v 0.00122607 0.00511512 0.00280048
v -0.01103426 0.01277906 0.00870439
v -0.01106275 0.01233785 0.00876550
v -0.01114820 0.01133174 0.00876550
v -0.01119160 0.01048071 0.00892066
v 0.00135357 0.00517604 0.00892066
v 0.00121386 0.00495451 0.00892066
v 0.00124234 0.00492405 0.00876550
v 0.00012469 0.00335121 0.00876550
v -0.01111022 0.01082869 0.00280048
v -0.01115227 0.01032564 0.00280048
v -0.01102477 0.01277906 0.00323362
v 0.00005822 0.00335121 0.00311440
v 0.00116367 0.00501266 0.00280048
v -0.01109666 0.01277906 0.00826228
v -0.01113463 0.01233785 0.00826228
v -0.01127434 0.00982259 0.00876550
v -0.01124586 0.00982259 0.00892066
v 0.00001618 0.00335121 0.00892066
v -0.01118618 0.00989366 0.00280048
v -0.01127027 0.00982259 0.00323362
v -0.01122958 0.01032564 0.00323362
v -0.01109801 0.01277906 0.00373624
v -0.00013710 0.00335121 0.00280048
v -0.01110344 0.01277906 0.00820117
v -0.01118889 0.01233785 0.00775965
v -0.01130283 0.01032564 0.00826228
v -0.01134352 0.00982259 0.00826228
v -0.01143033 0.00843527 0.00843002
v -0.01144253 0.00810021 0.00853126
v -0.01135030 0.00881740 0.00876550
v -0.01132182 0.00881740 0.00892066
v -0.01168939 0.00335121 0.00892066
v -0.01119160 0.00982259 0.00280048
v -0.01134623 0.00881740 0.00323362
v -0.01144118 0.00808913 0.00347385
v -0.01134352 0.00982259 0.00373624
v -0.01130283 0.01032564 0.00373624
v -0.01114955 0.01277906 0.00423947
v -0.01163650 0.00335121 0.00280048
v -0.01115091 0.01277906 0.00775965
v -0.01115634 0.01277906 0.00769854
v -0.01118889 0.01277906 0.00725642
v -0.01143982 0.00956875 0.00750324
v -0.01135572 0.01032564 0.00775965
v -0.01139642 0.00982259 0.00775965
v -0.01143711 0.00902970 0.00797831
v -0.01138285 0.00931953 0.00826228
v -0.01149679 0.00781222 0.00826228
v -0.01160666 0.00630306 0.00826228
v -0.01167719 0.00529696 0.00826228
v -0.01160394 0.00529696 0.00876550
v -0.01145338 0.00781222 0.00859357
v -0.01139642 0.00828666 0.00872536
v -0.01142354 0.00745039 0.00892066
v -0.01165548 0.00394287 0.00892066
v -0.01169346 0.00378780 0.00876550
v -0.01171788 0.00335121 0.00876550
v -0.01126756 0.00881740 0.00280048
v -0.01142626 0.00730917 0.00305988
v -0.01139370 0.00827928 0.00327735
v -0.01145203 0.00781222 0.00341574
v -0.01142897 0.00842419 0.00357569
v -0.01156732 0.00580001 0.00323362
v -0.01164057 0.00580001 0.00373624
v -0.01160394 0.00630306 0.00373624
v -0.01138150 0.00931953 0.00373624
v -0.01143575 0.00902047 0.00402859
v -0.01139506 0.00982259 0.00423947
v -0.01131232 0.01082869 0.00423947
v -0.01118889 0.01277906 0.00474210
v -0.01171788 0.00335121 0.00323362
v -0.01163650 0.00335582 0.00280048
v -0.01119160 0.01277906 0.00719532
v -0.01122551 0.01233785 0.00725642
v -0.01139099 0.01032564 0.00725642
v -0.01142897 0.00983089 0.00730435
v -0.01144796 0.00966752 0.00716836
v -0.01165277 0.00680612 0.00725642
v -0.01176264 0.00529696 0.00725642
v -0.01154833 0.00781222 0.00775965
v -0.01146830 0.00884417 0.00779020
v -0.01142897 0.00936845 0.00779020
v -0.01144932 0.00869372 0.00809453
v -0.01162022 0.00680612 0.00775965
v -0.01170838 0.00479391 0.00826228
v -0.01172602 0.00529696 0.00775965
v -0.01175857 0.00479391 0.00775965
v -0.01163514 0.00479391 0.00876550
v -0.01159580 0.00494898 0.00892066
v -0.01157410 0.00529696 0.00892066
v -0.01154155 0.00579078 0.00892066
v -0.01153341 0.00630306 0.00876550
v -0.01147237 0.00730917 0.00869840
v -0.01148729 0.00683935 0.00880923
v -0.01163514 0.00429085 0.00892066
v -0.01178434 0.00335121 0.00832817
v -0.01137878 0.00730917 0.00280048
v -0.01143711 0.00701380 0.00299938
v -0.01147102 0.00730917 0.00331150
v -0.01141812 0.00883863 0.00374044
v -0.01160259 0.00529696 0.00323362
v -0.01153070 0.00630306 0.00323362
v -0.01144932 0.00667874 0.00293348
v -0.01146288 0.00630306 0.00285979
v -0.01149001 0.00577417 0.00280048
v -0.01167583 0.00529696 0.00373624
v -0.01168939 0.00580001 0.00423947
v -0.01144796 0.00868541 0.00391117
v -0.01154291 0.00781222 0.00423947
v -0.01150628 0.00831435 0.00423947
v -0.01142761 0.00935922 0.00421311
v -0.01143846 0.00955398 0.00451085
v -0.01126756 0.01183480 0.00474210
v -0.01139235 0.01032564 0.00474210
v -0.01121059 0.01277906 0.00518421
v -0.01179248 0.00335121 0.00373624
v -0.01169346 0.00378780 0.00323362
v -0.01161208 0.00378780 0.00280048
v -0.01121059 0.01277906 0.00675380
v -0.01128926 0.01183480 0.00675380
v -0.01144253 0.01009950 0.00654772
v -0.01145474 0.00983089 0.00673043
v -0.01149136 0.00931953 0.00675380
v -0.01178299 0.00529696 0.00675380
v -0.01181690 0.00479391 0.00675380
v -0.01179519 0.00479391 0.00725642
v -0.01184538 0.00335121 0.00775965
v -0.01176806 0.00378780 0.00826228
v -0.01160530 0.00479391 0.00892066
v -0.01179384 0.00335121 0.00826228
v -0.01141676 0.00678950 0.00280048
v -0.01163378 0.00479391 0.00323362
v -0.01170838 0.00479391 0.00373624
v -0.01152256 0.00529696 0.00280048
v -0.01154969 0.00486406 0.00280048
v -0.01145203 0.00630306 0.00280048
v -0.01172466 0.00529696 0.00423947
v -0.01172737 0.00580001 0.00474210
v -0.01145067 0.00921800 0.00436348
v -0.01146559 0.00935922 0.00470375
v -0.01144932 0.00969428 0.00484574
v -0.01158088 0.00781222 0.00474210
v -0.01143575 0.01003027 0.00513868
v -0.01121331 0.01277906 0.00524532
v -0.01179926 0.00335121 0.00380214
v -0.01176806 0.00378780 0.00373624
v -0.01157953 0.00436100 0.00280048
v -0.01158360 0.00429085 0.00280048
v -0.01122551 0.01277906 0.00625057
v -0.01134623 0.01133174 0.00625057
v -0.01144525 0.01013549 0.00625057
v -0.01146966 0.00982259 0.00625057
v -0.01150764 0.00931953 0.00625057
v -0.01179655 0.00529696 0.00625057
v -0.01182910 0.00479391 0.00625057
v -0.01185894 0.00429085 0.00625057
v -0.01191184 0.00335121 0.00631647
v -0.01189963 0.00335121 0.00675380
v -0.01188064 0.00335121 0.00725642
v -0.01185487 0.00378780 0.00725642
v -0.01178841 0.00429085 0.00423947
v -0.01175721 0.00479391 0.00423947
v -0.01176264 0.00529696 0.00474210
v -0.01174908 0.00580001 0.00524532
v -0.01150764 0.00881740 0.00474210
v -0.01152934 0.00881740 0.00524532
v -0.01149272 0.00931953 0.00524532
v -0.01160259 0.00781222 0.00524532
v -0.01145474 0.00984659 0.00528186
v -0.01141948 0.01027949 0.00528186
v -0.01137336 0.01082869 0.00524532
v -0.01122416 0.01277906 0.00568684
v -0.01142354 0.01037271 0.00574855
v -0.01184402 0.00335121 0.00423947
v -0.01181825 0.00378780 0.00423947
v -0.01122551 0.01277906 0.00574855
v -0.01144389 0.01012165 0.00574855
v -0.01150628 0.00931953 0.00574855
v -0.01172466 0.00630306 0.00574855
v -0.01179655 0.00529696 0.00574855
v -0.01182910 0.00479391 0.00574855
v -0.01185894 0.00429085 0.00574855
v -0.01191455 0.00335121 0.00574855
v -0.01191320 0.00335121 0.00625057
v -0.01184945 0.00335121 0.00430477
v -0.01179519 0.00479391 0.00474210
v -0.01178434 0.00529696 0.00524532
v -0.01181554 0.00479391 0.00524532
v -0.01184538 0.00429085 0.00524532
v -0.01189963 0.00335121 0.00524532
v -0.01187929 0.00335121 0.00474210
v -0.01188200 0.00335121 0.00480799
f 1 2 6
f 1 6 22
f 1 22 39
f 1 39 64
f 1 64 102
f 1 102 101
f 1 101 135
f 1 135 134
f 1 134 169
f 1 169 200
f 1 200 234
f 1 234 260
f 1 260 275
f 1 275 286
f 1 286 302
f 1 302 334
f 1 334 379
f 1 379 408
f 1 408 436
f 1 436 440
f 1 440 413
f 1 413 383
f 1 383 337
f 1 337 306
f 1 306 305
f 1 305 304
f 1 304 288
f 1 288 278
f 1 278 265
f 1 265 245
f 1 245 221
f 1 221 184
f 1 184 150
f 1 150 149
f 1 149 119
f 1 119 81
f 1 81 75
f 1 75 47
f 1 47 28
f 1 28 9
f 1 9 3
f 1 3 4
f 1 4 5
f 1 5 7
f 1 7 2
f 2 7 8
f 2 8 6
f 3 9 4
f 4 10 11
f 4 11 12
f 4 12 13
f 4 13 14
f 4 14 15
f 4 15 5
f 4 9 16
f 4 16 17
f 4 17 10
f 5 18 7
f 5 15 19
f 5 19 18
f 6 8 20
f 6 20 21
f 6 21 22
f 7 18 8
f 8 23 20
f 8 18 19
f 8 19 24
f 8 24 25
f 8 25 26
f 8 26 27
f 8 27 23
f 9 28 16
f 10 29 30
f 10 30 12
f 10 12 11
f 10 17 31
f 10 31 32
f 10 32 29
f 12 30 33
f 12 33 34
f 12 34 35
f 12 35 13
f 13 35 25
f 13 25 14
f 14 24 15
f 14 25 24
f 15 24 19
f 16 28 36
f 16 36 31
f 16 31 17
f 20 23 21
f 21 23 37
f 21 37 38
f 21 38 39
f 21 39 22
f 23 27 26
f 23 26 40
f 23 40 41
f 23 41 42
f 23 42 43
f 23 43 37
f 25 35 44
f 25 44 26
f 26 44 45
f 26 45 46
f 26 46 40
f 28 47 36
f 29 32 48
f 29 48 30
f 30 49 50
f 30 50 33
f 30 48 49
f 31 51 32
f 31 36 52
f 31 52 53
f 31 53 54
f 31 54 51
f 32 51 48
f 33 55 56
f 33 56 34
f 33 50 55
f 34 57 35
f 34 56 58
f 34 58 59
f 34 59 60
f 34 60 57
f 35 57 70
f 35 70 44
f 36 47 52
f 37 43 61
f 37 61 62
f 37 62 38
f 38 63 64
f 38 64 39
f 38 62 63
f 40 46 65
f 40 65 66
f 40 66 67
f 40 67 41
f 41 67 42
f 42 67 43
f 43 68 61
f 43 67 69
f 43 69 68
f 44 70 45
f 45 70 71
f 45 71 72
f 45 72 46
f 46 72 73
f 46 73 74
f 46 74 65
f 47 75 52
f 48 76 77
f 48 77 49
f 48 51 76
f 49 77 76
f 49 76 78
f 49 78 79
f 49 79 50
f 50 79 80
f 50 80 55
f 51 54 76
f 52 75 81
f 52 81 82
f 52 82 53
f 53 82 54
f 54 82 76
f 55 80 83
f 55 83 84
f 55 84 56
f 56 84 85
f 56 85 58
f 57 60 70
f 58 86 87
f 58 87 88
f 58 88 89
f 58 89 90
f 58 90 91
f 58 91 92
f 58 92 93
f 58 93 94
f 58 94 59
f 58 85 86
f 59 94 93
f 59 93 60
f 60 93 92
f 60 92 95
f 60 95 96
f 60 96 70
f 61 63 62
f 61 68 69
f 61 69 97
f 61 97 63
f 63 98 99
f 63 99 100
f 63 100 101
f 63 101 102
f 63 102 64
f 63 97 98
f 65 103 104
f 65 104 66
f 65 74 116
f 65 116 103
f 66 104 105
f 66 105 69
f 66 69 106
f 66 106 67
f 67 106 69
f 69 105 97
f 70 96 107
f 70 107 71
f 71 107 72
f 72 108 109
f 72 109 73
f 72 107 95
f 72 95 110
f 72 110 111
f 72 111 112
f 72 112 113
f 72 113 114
f 72 114 108
f 73 109 115
f 73 115 74
f 74 115 142
f 74 142 116
f 76 117 78
f 76 82 117
f 78 117 79
f 79 117 118
f 79 118 80
f 80 118 83
f 81 119 82
f 82 119 120
f 82 120 121
f 82 121 117
f 83 118 122
f 83 122 123
f 83 123 84
f 84 124 125
f 84 125 85
f 84 123 124
f 85 125 86
f 86 125 87
f 87 125 88
f 88 126 89
f 88 125 126
f 89 126 127
f 89 127 90
f 90 127 128
f 90 128 111
f 90 111 110
f 90 110 92
f 90 92 91
f 92 110 95
f 95 107 96
f 97 105 104
f 97 104 129
f 97 129 130
f 97 130 98
f 98 130 131
f 98 131 132
f 98 132 167
f 98 167 199
f 98 199 220
f 98 220 219
f 98 219 218
f 98 218 216
f 98 216 244
f 98 244 243
f 98 243 242
f 98 242 241
f 98 241 240
f 98 240 264
f 98 264 277
f 98 277 287
f 98 287 303
f 98 303 336
f 98 336 382
f 98 382 412
f 98 412 411
f 98 411 399
f 98 399 398
f 98 398 369
f 98 369 400
f 98 400 395
f 98 395 361
f 98 361 322
f 98 322 297
f 98 297 283
f 98 283 274
f 98 274 273
f 98 273 259
f 98 259 234
f 98 234 200
f 98 200 168
f 98 168 133
f 98 133 100
f 98 100 99
f 100 133 134
f 100 134 135
f 100 135 101
f 103 116 129
f 103 129 104
f 108 114 136
f 108 136 137
f 108 137 109
f 109 137 115
f 111 128 138
f 111 138 139
f 111 139 112
f 112 139 140
f 112 140 113
f 113 140 141
f 113 141 136
f 113 136 114
f 115 137 142
f 116 143 144
f 116 144 129
f 116 142 143
f 117 121 145
f 117 145 118
f 118 145 146
f 118 146 147
f 118 147 148
f 118 148 122
f 119 149 120
f 120 149 150
f 120 150 151
f 120 151 183
f 120 183 184
f 120 184 221
f 120 221 246
f 120 246 268
f 120 268 281
f 120 281 295
f 120 295 318
f 120 318 355
f 120 355 354
f 120 354 353
f 120 353 393
f 120 393 359
f 120 359 319
f 120 319 296
f 120 296 282
f 120 282 270
f 120 270 269
f 120 269 254
f 120 254 253
f 120 253 249
f 120 249 248
f 120 248 247
f 120 247 222
f 120 222 185
f 120 185 155
f 120 155 154
f 120 154 153
f 120 153 147
f 120 147 146
f 120 146 121
f 121 146 145
f 122 152 156
f 122 156 123
f 122 148 153
f 122 153 154
f 122 154 155
f 122 155 152
f 123 156 124
f 124 156 157
f 124 157 158
f 124 158 159
f 124 159 125
f 125 159 160
f 125 160 161
f 125 161 126
f 126 161 162
f 126 162 127
f 127 162 163
f 127 163 164
f 127 164 128
f 128 164 138
f 129 131 130
f 129 144 165
f 129 165 131
f 131 165 166
f 131 166 167
f 131 167 132
f 133 168 134
f 134 168 169
f 136 141 170
f 136 170 137
f 137 170 171
f 137 171 172
f 137 172 142
f 138 164 173
f 138 173 139
f 139 173 174
f 139 174 140
f 140 174 175
f 140 175 176
f 140 176 141
f 141 176 177
f 141 177 178
f 141 178 179
f 141 179 171
f 141 171 170
f 142 172 180
f 142 180 143
f 143 180 181
f 143 181 182
f 143 182 166
f 143 166 144
f 144 166 165
f 147 153 148
f 150 183 151
f 150 184 183
f 152 155 185
f 152 185 186
f 152 186 187
f 152 187 188
f 152 188 189
f 152 189 156
f 156 189 157
f 157 190 160
f 157 160 191
f 157 191 159
f 157 159 158
f 157 189 190
f 159 191 160
f 160 190 161
f 161 190 192
f 161 192 193
f 161 193 194
f 161 194 162
f 162 194 195
f 162 195 163
f 163 195 196
f 163 196 197
f 163 197 164
f 164 197 198
f 164 198 173
f 166 182 199
f 166 199 167
f 168 200 169
f 171 179 201
f 171 201 172
f 172 201 180
f 173 198 202
f 173 202 203
f 173 203 174
f 174 203 204
f 174 204 175
f 175 204 205
f 175 205 206
f 175 206 176
f 176 206 207
f 176 207 208
f 176 208 209
f 176 209 177
f 177 210 211
f 177 211 212
f 177 212 213
f 177 213 214
f 177 214 178
f 177 209 215
f 177 215 210
f 178 214 201
f 178 201 179
f 180 216 181
f 180 201 214
f 180 214 217
f 180 217 216
f 181 218 219
f 181 219 220
f 181 220 182
f 181 216 218
f 182 220 199
f 185 222 186
f 186 222 223
f 186 223 187
f 187 223 224
f 187 224 193
f 187 193 188
f 188 193 192
f 188 192 225
f 188 225 189
f 189 225 190
f 190 225 192
f 193 226 194
f 193 224 226
f 194 226 227
f 194 227 228
f 194 228 195
f 195 228 229
f 195 229 230
f 195 230 196
f 196 230 231
f 196 231 197
f 197 231 198
f 198 231 232
f 198 232 233
f 198 233 202
f 202 233 203
f 203 233 204
f 204 233 205
f 205 235 206
f 205 233 236
f 205 236 237
f 205 237 235
f 206 235 207
f 207 235 208
f 208 235 238
f 208 238 239
f 208 239 240
f 208 240 241
f 208 241 242
f 208 242 210
f 208 210 215
f 208 215 209
f 210 242 243
f 210 243 244
f 210 244 211
f 211 244 212
f 212 244 216
f 212 216 213
f 213 216 217
f 213 217 214
f 221 245 266
f 221 266 246
f 222 247 223
f 223 248 249
f 223 249 250
f 223 250 224
f 223 247 248
f 224 250 249
f 224 249 251
f 224 251 252
f 224 252 226
f 226 252 227
f 227 251 253
f 227 253 254
f 227 254 255
f 227 255 256
f 227 256 228
f 227 252 251
f 228 256 257
f 228 257 229
f 229 257 230
f 230 257 258
f 230 258 231
f 231 258 272
f 231 272 282
f 231 282 296
f 231 296 321
f 231 321 360
f 231 360 394
f 231 394 391
f 231 391 423
f 231 423 422
f 231 422 421
f 231 421 448
f 231 448 447
f 231 447 454
f 231 454 456
f 231 456 455
f 231 455 449
f 231 449 438
f 231 438 409
f 231 409 380
f 231 380 335
f 231 335 303
f 231 303 287
f 231 287 276
f 231 276 262
f 231 262 237
f 231 237 236
f 231 236 233
f 231 233 232
f 234 259 260
f 235 261 238
f 235 237 261
f 237 262 263
f 237 263 261
f 238 261 263
f 238 263 239
f 239 263 264
f 239 264 240
f 245 265 266
f 246 266 267
f 246 267 268
f 249 253 251
f 254 269 255
f 255 269 256
f 256 269 270
f 256 270 271
f 256 271 257
f 257 271 272
f 257 272 258
f 259 273 260
f 260 273 274
f 260 274 275
f 262 276 277
f 262 277 263
f 263 277 264
f 265 278 279
f 265 279 267
f 265 267 266
f 267 279 290
f 267 290 280
f 267 280 268
f 268 280 281
f 270 282 272
f 270 272 271
f 274 283 284
f 274 284 285
f 274 285 275
f 275 285 301
f 275 301 286
f 276 287 277
f 278 288 279
f 279 288 289
f 279 289 290
f 280 290 291
f 280 291 292
f 280 292 293
f 280 293 294
f 280 294 295
f 280 295 281
f 283 297 284
f 284 297 322
f 284 322 298
f 284 298 299
f 284 299 300
f 284 300 301
f 284 301 285
f 286 301 302
f 288 304 289
f 289 304 305
f 289 305 306
f 289 306 307
f 289 307 308
f 289 308 290
f 290 308 309
f 290 309 291
f 291 309 310
f 291 310 311
f 291 311 292
f 292 311 312
f 292 312 293
f 293 312 313
f 293 313 314
f 293 314 315
f 293 315 316
f 293 316 317
f 293 317 294
f 294 317 318
f 294 318 295
f 296 319 320
f 296 320 321
f 298 323 324
f 298 324 325
f 298 325 299
f 298 322 323
f 299 326 300
f 299 325 327
f 299 327 328
f 299 328 329
f 299 329 326
f 300 326 330
f 300 330 331
f 300 331 332
f 300 332 301
f 301 333 302
f 301 332 333
f 302 333 334
f 303 335 336
f 306 337 338
f 306 338 307
f 307 339 340
f 307 340 341
f 307 341 342
f 307 342 343
f 307 343 344
f 307 344 345
f 307 345 346
f 307 346 309
f 307 309 308
f 307 338 339
f 309 346 310
f 310 346 345
f 310 345 344
f 310 344 312
f 310 312 347
f 310 347 311
f 311 347 312
f 312 344 313
f 313 348 350
f 313 350 314
f 313 344 348
f 314 349 352
f 314 352 315
f 314 350 351
f 314 351 349
f 315 352 353
f 315 353 354
f 315 354 355
f 315 355 356
f 315 356 316
f 316 356 357
f 316 357 317
f 317 357 318
f 318 357 358
f 318 358 356
f 318 356 355
f 319 359 352
f 319 352 320
f 320 352 360
f 320 360 321
f 322 361 362
f 322 362 323
f 323 362 363
f 323 363 324
f 324 363 325
f 325 363 327
f 326 364 330
f 326 329 364
f 327 365 370
f 327 370 328
f 327 363 366
f 327 366 362
f 327 362 367
f 327 367 368
f 327 368 369
f 327 369 365
f 328 370 401
f 328 401 371
f 328 371 331
f 328 331 329
f 329 331 372
f 329 372 364
f 330 364 331
f 331 373 374
f 331 374 375
f 331 375 332
f 331 364 372
f 331 371 373
f 332 375 376
f 332 376 333
f 333 377 334
f 333 376 378
f 333 378 377
f 334 377 379
f 335 380 410
f 335 410 381
f 335 381 336
f 336 381 382
f 337 383 384
f 337 384 385
f 337 385 338
f 338 385 339
f 339 385 340
f 340 385 341
f 341 385 386
f 341 386 387
f 341 387 342
f 342 387 343
f 343 388 389
f 343 389 390
f 343 390 351
f 343 351 350
f 343 350 348
f 343 348 344
f 343 387 388
f 349 351 391
f 349 391 392
f 349 392 352
f 351 390 391
f 352 359 393
f 352 393 353
f 352 392 360
f 356 358 357
f 360 392 394
f 361 395 362
f 362 395 367
f 362 366 363
f 365 396 397
f 365 397 370
f 365 369 398
f 365 398 399
f 365 399 396
f 367 395 400
f 367 400 368
f 368 400 369
f 370 397 426
f 370 426 401
f 371 401 427
f 371 427 402
f 371 402 376
f 371 376 373
f 373 376 374
f 374 376 403
f 374 403 375
f 375 403 376
f 376 404 405
f 376 405 378
f 376 402 406
f 376 406 404
f 377 378 407
f 377 407 379
f 378 405 407
f 379 407 408
f 380 409 410
f 381 396 399
f 381 399 411
f 381 411 412
f 381 412 382
f 381 410 397
f 381 397 396
f 383 413 385
f 383 385 384
f 385 414 415
f 385 415 416
f 385 416 417
f 385 417 388
f 385 388 387
f 385 387 386
f 385 413 414
f 388 418 389
f 388 417 418
f 389 419 420
f 389 420 421
f 389 421 422
f 389 422 423
f 389 423 424
f 389 424 390
f 389 418 419
f 390 424 391
f 391 424 423
f 391 394 392
f 397 410 439
f 397 439 425
f 397 425 426
f 401 426 450
f 401 450 427
f 402 427 451
f 402 451 428
f 402 428 405
f 402 405 406
f 404 429 405
f 404 406 429
f 405 430 431
f 405 431 407
f 405 429 406
f 405 428 432
f 405 432 430
f 407 431 433
f 407 433 434
f 407 434 435
f 407 435 408
f 408 435 434
f 408 434 437
f 408 437 436
f 409 438 410
f 410 438 439
f 413 440 414
f 414 440 415
f 415 440 437
f 415 437 441
f 415 441 416
f 416 442 417
f 416 441 442
f 417 442 443
f 417 443 418
f 418 443 444
f 418 444 445
f 418 445 419
f 419 445 446
f 419 446 420
f 420 446 447
f 420 447 448
f 420 448 421
f 425 439 449
f 425 449 450
f 425 450 426
f 427 450 451
f 428 451 444
f 428 444 443
f 428 443 442
f 428 442 432
f 430 442 431
f 430 432 442
f 431 442 433
f 433 442 441
f 433 441 437
f 433 437 434
f 436 437 440
f 438 449 439
f 444 451 445
f 445 451 452
f 445 452 453
f 445 453 446
f 446 453 447
f 447 453 454
f 449 455 450
f 450 455 453
f 450 453 452
f 450 452 451
f 453 455 456
f 453 456 454

