# https://github.com/mikedh/trimesh
v -0.00113017 0.02855952 -0.00127240
v -0.00062672 0.02893688 -0.00125390
v -0.00062672 0.02855952 -0.00126101
v -0.00163291 0.02855952 -0.00126955
v -0.00113017 0.03044523 -0.00123397
v -0.00062672 0.02994282 -0.00123397
v -0.00012398 0.02893688 -0.00123824
v -0.00012398 0.02855952 -0.00124393
v -0.00213565 0.02855952 -0.00125959
v -0.00163291 0.02943929 -0.00125105
v -0.00163291 0.02994282 -0.00123682
v -0.00113017 0.03094876 -0.00121689
v -0.00062672 0.03094876 -0.00120978
v -0.00062672 0.03044523 -0.00122259
v 0.00022188 0.03044523 -0.00119697
v 0.00022188 0.02994282 -0.00120693
v 0.00022188 0.02893688 -0.00121974
v 0.00022188 0.02855952 -0.00122116
v -0.00263911 0.02855952 -0.00124109
v -0.00163291 0.03044523 -0.00121974
v -0.00163291 0.03094876 -0.00119555
v -0.00113017 0.03145117 -0.00118558
v -0.00062672 0.03145117 -0.00118985
v -0.00012398 0.03145117 -0.00117847
v -0.00012398 0.03094876 -0.00119555
v 0.00022188 0.03060293 -0.00119270
v 0.00022188 0.02855952 0.01322169
v -0.00314185 0.02855952 -0.00120124
v -0.00263911 0.02893688 -0.00122543
v -0.00213565 0.03044523 -0.00118274
v -0.00163291 0.03145117 -0.00115712
v -0.00113017 0.03195470 -0.00114716
v -0.00062672 0.03195470 -0.00115712
v -0.00012398 0.03195470 -0.00114858
v 0.00022188 0.03195470 -0.00113719
v 0.00022188 0.03145117 -0.00116281
v 0.00022188 0.03110647 -0.00117704
v 0.00022188 0.03094876 -0.00118274
v 0.00022188 0.02877918 0.01322169
v 0.00000224 0.02855952 0.01323592
v -0.00263911 0.02943929 -0.00119697
v -0.00365956 0.02855952 -0.00110588
v -0.00314185 0.02893688 -0.00117420
v -0.00263911 0.02994282 -0.00115854
v -0.00213565 0.03094876 -0.00114289
v -0.00163291 0.03195470 -0.00110446
v -0.00141256 0.03276688 -0.00104753
v -0.00113017 0.03245711 -0.00109877
v -0.00045985 0.03327943 -0.00104753
v -0.00012398 0.03352387 -0.00102618
v -0.00012398 0.03245711 -0.00111300
v 0.00022188 0.03245711 -0.00110588
v 0.00022188 0.02928271 0.01321599
v -0.00012398 0.02893688 0.01323734
v -0.00012398 0.02855952 0.01324161
v 0.00022188 0.02978511 0.01321030
v -0.00378008 0.02855952 -0.00107457
v -0.00387991 0.02865752 -0.00103757
v -0.00355687 0.02893688 -0.00108738
v -0.00318891 0.02948322 -0.00111158
v -0.00266834 0.03046325 -0.00110161
v -0.00251075 0.03094876 -0.00107599
v -0.00214207 0.03143765 -0.00108596
v -0.00195524 0.03195470 -0.00105892
v -0.00188464 0.03220703 -0.00104184
v -0.00160153 0.03294487 -0.00097779
v -0.00113017 0.03396658 -0.00088955
v -0.00062672 0.03497139 -0.00080701
v -0.00062672 0.03446786 -0.00089382
v -0.00062672 0.03396658 -0.00096214
v -0.00012398 0.03446786 -0.00093652
v -0.00012398 0.03396658 -0.00098633
v 0.00022188 0.03324789 -0.00104468
v 0.00022188 0.03396658 -0.00098491
v 0.00022188 0.03296064 -0.00106746
v -0.00050050 0.02855952 0.01325585
v 0.00022188 0.03044523 0.01320034
v -0.00012398 0.02994282 0.01322026
v -0.00400898 0.02855952 -0.00100341
v -0.00338716 0.02968035 -0.00104041
v -0.00345918 0.02934579 -0.00106319
v -0.00305556 0.02994282 -0.00108596
v -0.00294931 0.03030780 -0.00106034
v -0.00241876 0.03125967 -0.00105180
v -0.00285589 0.03064236 -0.00103188
v -0.00231393 0.03159535 -0.00102191
v -0.00220696 0.03195470 -0.00098491
v -0.00208573 0.03240754 -0.00093367
v -0.00163291 0.03346304 -0.00086821
v -0.00113017 0.03446786 -0.00078708
v -0.00012398 0.03547380 -0.00078281
v -0.00012398 0.03497139 -0.00087105
v -0.00067592 0.03552336 -0.00065899
v 0.00010137 0.03675572 -0.00054656
v 0.00022188 0.03497139 -0.00087817
v 0.00022188 0.03446786 -0.00093937
v -0.00062672 0.02943929 0.01324304
v -0.00062672 0.02855952 0.01325869
v -0.00012398 0.03044523 0.01321172
v 0.00022188 0.03094876 0.01318326
v -0.00012398 0.03094876 0.01319749
v -0.00413449 0.02855952 -0.00094933
v -0.00363389 0.02948322 -0.00097637
v -0.00364387 0.02994282 -0.00086821
v -0.00213565 0.03296064 -0.00078993
v -0.00163291 0.03396658 -0.00073727
v -0.00115513 0.03498378 -0.00064618
v -0.00100466 0.03538818 -0.00059352
v 0.00022188 0.03597733 -0.00070596
v 0.00022188 0.03547380 -0.00079562
v 0.00022188 0.03663631 -0.00058498
v -0.00050977 0.03597733 -0.00058356
v 0.00022188 0.03678501 -0.00055367
v -0.00038997 0.03624655 -0.00054371
v -0.00023380 0.03658224 -0.00048963
v -0.00008975 0.03694722 -0.00040281
v 0.00022188 0.03764901 -0.00022349
v 0.00022188 0.03748342 -0.00028753
v -0.00062672 0.02994282 0.01323165
v -0.00113017 0.03044523 0.01322596
v -0.00113017 0.02855952 0.01326723
v -0.00100395 0.02855952 0.01326581
v -0.00062672 0.03094876 0.01320888
v 0.00022188 0.03145117 0.01315907
v -0.00012398 0.03145117 0.01317330
v -0.00062672 0.03145117 0.01318753
v -0.00467004 0.02855952 -0.00068603
v -0.00414733 0.02893688 -0.00086393
v -0.00419511 0.02948547 -0.00070311
v -0.00407316 0.02994282 -0.00064618
v -0.00368737 0.03048353 -0.00069742
v -0.00250575 0.03296064 -0.00060918
v -0.00215063 0.03345178 -0.00065045
v -0.00197021 0.03396658 -0.00058641
v -0.00144109 0.03482382 -0.00057075
v -0.00133982 0.03515951 -0.00051667
v -0.00087559 0.03572275 -0.00053802
v -0.00058536 0.03644031 -0.00038004
v -0.00012398 0.03747891 -0.00015802
v 0.00004360 0.03783263 -0.00008259
v 0.00022188 0.03791598 -0.00011105
v -0.00113017 0.03094876 0.01321172
v -0.00163291 0.02994282 0.01323734
v -0.00163291 0.02943929 0.01324873
v -0.00213565 0.02855952 0.01326438
v 0.00022188 0.03179699 0.01314199
v 0.00022188 0.03230053 0.01311210
v -0.00062672 0.03195470 0.01315622
v -0.00113017 0.03145117 0.01318611
v -0.00478485 0.02855952 -0.00062056
v -0.00456735 0.02893688 -0.00064334
v -0.00439549 0.02968373 -0.00053659
v -0.00396762 0.03034047 -0.00058641
v -0.00355260 0.03094876 -0.00063337
v -0.00388419 0.03067616 -0.00053090
v -0.00242161 0.03327605 -0.00055937
v -0.00232819 0.03361174 -0.00049959
v -0.00189106 0.03422792 -0.00054229
v -0.00115513 0.03552336 -0.00046543
v -0.00163362 0.03544225 -0.00017510
v -0.00146676 0.03585454 -0.00010536
v -0.00090483 0.03677036 -0.00005697
v -0.00061388 0.03695623 -0.00014379
v -0.00043774 0.03730656 -0.00007689
v -0.00029227 0.03764225 0.00002273
v -0.00015464 0.03802525 0.00018498
v 0.00022188 0.03816381 0.00001846
v -0.00163291 0.03094876 0.01319607
v -0.00163291 0.03044523 0.01322169
v -0.00213565 0.02943929 0.01324446
v -0.00213565 0.02893688 0.01325585
v -0.00251289 0.02855952 0.01325442
v 0.00022188 0.03245711 0.01310071
v -0.00023094 0.03331773 0.01305090
v -0.00062672 0.03245711 0.01311922
v -0.00113017 0.03195470 0.01315053
v -0.00502516 0.02855952 -0.00045547
v -0.00489110 0.02866428 -0.00053090
v -0.00432489 0.02994282 -0.00048251
v -0.00515851 0.02889746 -0.00019075
v -0.00465791 0.02990790 -0.00019929
v -0.00414020 0.03048353 -0.00039570
v -0.00414947 0.03091159 -0.00018933
v -0.00295573 0.03334251 -0.00009967
v -0.00253713 0.03396658 -0.00016798
v -0.00264624 0.03347656 -0.00029892
v -0.00275748 0.03296064 -0.00043839
v -0.00222194 0.03396658 -0.00041989
v -0.00198875 0.03497139 -0.00012244
v -0.00190247 0.03525413 -0.00005270
v -0.00135337 0.03619023 -0.00001000
v -0.00125425 0.03647973 0.00009532
v -0.00109238 0.03693032 0.00025187
v -0.00094548 0.03732797 0.00038992
v -0.00077290 0.03710605 0.00005547
v -0.00049051 0.03788219 0.00035719
v 0.00022188 0.03817620 0.00002700
v -0.00035288 0.03821788 0.00049382
v -0.00001772 0.03839248 0.00034865
v -0.00163291 0.03145117 0.01315622
v -0.00213565 0.03044523 0.01318895
v -0.00213565 0.02994282 0.01322169
v -0.00263911 0.02893688 0.01323450
v -0.00263911 0.02855952 0.01324873
v 0.00022188 0.03300006 0.01306086
v 0.00022188 0.03431240 0.01295127
v 0.00022188 0.03446786 0.01293562
v -0.00062672 0.03330647 0.01305090
v -0.00062672 0.03296064 0.01307936
v 0.00022188 0.03344615 0.01302528
v 0.00022188 0.03380099 0.01299540
v 0.00022188 0.03396658 0.01298116
v -0.00113017 0.03245711 0.01310641
v -0.00544732 0.02855952 -0.00007689
v -0.00447964 0.03044523 -0.00011532
v -0.00541309 0.02870370 -0.00004416
v -0.00491392 0.02971640 -0.00004843
v -0.00396263 0.03145117 -0.00009967
v -0.00389703 0.03170575 -0.00003704
v -0.00338430 0.03269254 -0.00002566
v -0.00287087 0.03367820 -0.00001427
v -0.00243872 0.03430902 -0.00008401
v -0.00234103 0.03464246 0.00001419
v -0.00180192 0.03558982 0.00005831
v -0.00139687 0.03675459 0.00044828
v -0.00082567 0.03766253 0.00054078
v 0.00014344 0.03872704 0.00048243
v 0.00022188 0.03864594 0.00037427
v -0.00065025 0.03801962 0.00068453
v -0.00047483 0.03836094 0.00082827
v -0.00033648 0.03869663 0.00104318
v -0.00000132 0.03888137 0.00081689
v -0.00141399 0.03277027 0.01304663
v -0.00163291 0.03195470 0.01310498
v -0.00213565 0.03094876 0.01314341
v -0.00263911 0.02943929 0.01320888
v -0.00263911 0.02994282 0.01316761
v -0.00301563 0.02855952 0.01321884
v 0.00022188 0.03481368 0.01289577
v -0.00012398 0.03446786 0.01293420
v -0.00091053 0.03323324 0.01304378
v -0.00062672 0.03355879 0.01302101
v -0.00109879 0.03294712 0.01305802
v -0.00124569 0.03310595 0.01302813
v -0.00569620 0.02855952 0.00022056
v -0.00440975 0.03071783 -0.00004701
v -0.00532966 0.02903826 0.00005404
v -0.00483048 0.03005209 0.00004977
v -0.00452527 0.03091159 0.00022198
v -0.00278886 0.03396658 0.00008108
v -0.00445396 0.03130360 0.00039419
v -0.00299209 0.03396658 0.00033299
v -0.00291437 0.03426059 0.00043404
v -0.00247937 0.03487113 0.00035007
v -0.00193955 0.03581624 0.00039419
v -0.00183686 0.03615193 0.00053509
v -0.00174059 0.03649212 0.00070872
v -0.00147175 0.03694722 0.00075996
v -0.00128064 0.03709028 0.00062048
v -0.00093906 0.03782136 0.00087666
v 0.00022188 0.03887011 0.00056071
v 0.00016127 0.03921593 0.00102183
v 0.00022188 0.03915285 0.00088378
v -0.00081070 0.03815705 0.00110865
v -0.00042134 0.03879689 0.00137906
v -0.00013610 0.03900641 0.00119974
v -0.00188606 0.03220928 0.01304094
v -0.00195738 0.03195470 0.01305944
v -0.00266906 0.03046438 0.01310356
v -0.00314185 0.02893688 0.01317899
v -0.00314185 0.02855952 0.01320461
v -0.00305984 0.02994282 0.01308648
v -0.00319034 0.02948660 0.01311210
v 0.00022188 0.03497139 0.01287585
v -0.00012398 0.03497139 0.01287015
v -0.00062672 0.03396658 0.01296835
v -0.00062672 0.03446786 0.01289435
v -0.00062672 0.03497139 0.01280753
v -0.00113017 0.03396658 0.01289577
v -0.00160225 0.03294712 0.01297832
v -0.00582741 0.02855952 0.00039277
v -0.00546372 0.02930749 0.00038992
v -0.00553004 0.02889746 0.00021914
v -0.00475133 0.03046888 0.00021771
v -0.00496241 0.03031681 0.00038565
v -0.00487826 0.03065137 0.00050520
v -0.00342709 0.03327718 0.00042123
v -0.00333724 0.03361174 0.00055929
v -0.00324525 0.03396320 0.00072438
v -0.00299209 0.03444307 0.00074146
v -0.00291650 0.03476412 0.00092505
v -0.00281453 0.03459402 0.00058917
v -0.00237740 0.03520682 0.00048243
v -0.00205578 0.03598183 0.00070872
v -0.00194882 0.03633329 0.00087097
v -0.00184399 0.03666785 0.00105457
v -0.00138974 0.03724686 0.00095637
v -0.00127778 0.03758818 0.00122251
v 0.00006500 0.03931056 0.00135771
v 0.00022188 0.03940968 0.00128086
v 0.00022188 0.03929929 0.00107592
v -0.00100395 0.03798920 0.00125524
v -0.00089128 0.03825731 0.00144453
v -0.00048766 0.03887686 0.00172490
v -0.00026731 0.03912807 0.00172490
v -0.00163291 0.03346304 0.01287015
v -0.00208645 0.03240867 0.01293420
v -0.00220910 0.03195470 0.01298543
v -0.00285732 0.03064461 0.01303098
v -0.00242161 0.03126192 0.01305090
v -0.00251360 0.03094876 0.01307510
v -0.00359039 0.02855952 0.01312491
v -0.00295145 0.03030892 0.01306086
v -0.00339001 0.02968599 0.01303951
v -0.00346346 0.02935030 0.01306371
v -0.00356615 0.02893688 0.01308933
v 0.00022188 0.03531722 0.01282318
v 0.00022188 0.03581962 0.01274064
v -0.00012398 0.03547380 0.01278191
v -0.00062672 0.03547380 0.01269083
v -0.00113017 0.03446786 0.01278903
v 0.00009923 0.03675910 0.01254566
v -0.00596147 0.02855952 0.00058348
v -0.00588089 0.02863274 0.00050947
v -0.00538029 0.02964318 0.00050663
v -0.00598073 0.02883325 0.00084393
v -0.00547870 0.02983919 0.00084108
v -0.00507722 0.03046888 0.00069022
v -0.00497596 0.03083837 0.00083966
v -0.00446252 0.03182290 0.00085816
v -0.00394837 0.03280857 0.00087666
v -0.00343422 0.03379310 0.00089517
v -0.00238524 0.03572275 0.00097487
v -0.00334580 0.03412879 0.00108445
v -0.00323740 0.03444307 0.00124101
v -0.00298282 0.03487564 0.00122251
v -0.00192172 0.03678726 0.00139045
v -0.00171706 0.03696637 0.00122251
v -0.00135052 0.03769407 0.00155412
v -0.00001630 0.03939166 0.00172490
v 0.00022188 0.03962033 0.00172490
v -0.00141470 0.03778194 0.00188858
v -0.00094120 0.03831926 0.00172490
v -0.00073939 0.03857046 0.00172490
v -0.00081712 0.03866847 0.00222730
v -0.00033648 0.03920354 0.00213622
v -0.00115584 0.03498603 0.01264813
v -0.00163291 0.03396658 0.01273922
v -0.00213565 0.03296064 0.01279330
v -0.00276533 0.03094876 0.01299966
v -0.00366812 0.02855952 0.01310783
v -0.00312830 0.03046438 0.01296693
v -0.00364387 0.02994282 0.01287015
v -0.00363603 0.02948660 0.01297689
v -0.00381787 0.02893688 0.01301390
v -0.00388918 0.02867329 0.01303809
v -0.00391272 0.02855952 0.01304663
v 0.00022188 0.03632316 0.01264528
v -0.00039995 0.03626007 0.01254708
v -0.00097400 0.03547380 0.01257981
v -0.00009046 0.03694947 0.01240761
v -0.00023593 0.03659463 0.01249157
v 0.00022188 0.03678501 0.01255135
v 0.00022188 0.03689540 0.01252004
v 0.00022188 0.03730656 0.01236918
v -0.00605204 0.02855952 0.00073577
v -0.00628166 0.02855952 0.00118693
v -0.00589729 0.02916781 0.00099479
v -0.00539455 0.03017488 0.00099337
v -0.00488682 0.03117406 0.00100333
v -0.00235529 0.03617446 0.00155127
v -0.00339215 0.03471681 0.00198251
v -0.00481194 0.03146694 0.00119120
v -0.00486971 0.03164379 0.00154700
v -0.00503729 0.03146694 0.00171921
v -0.00494102 0.03177559 0.00188288
v -0.00341568 0.03425946 0.00142034
v -0.00333938 0.03462331 0.00172490
v -0.00242232 0.03628486 0.00188715
v -0.00198447 0.03688076 0.00172490
v -0.00181190 0.03713196 0.00172490
v -0.00154449 0.03751046 0.00172206
v 0.00016768 0.03971158 0.00210775
v 0.00022188 0.03966427 0.00184161
v -0.00186752 0.03720856 0.00204798
v -0.00146533 0.03785178 0.00222730
v -0.00127493 0.03810411 0.00222730
v -0.00102392 0.03841614 0.00222730
v -0.00086062 0.03872254 0.00256318
v -0.00037713 0.03924860 0.00247210
v 0.00011705 0.03975889 0.00244363
v -0.00134054 0.03516289 0.01251577
v -0.00144536 0.03482720 0.01257127
v -0.00215134 0.03345403 0.01265098
v -0.00197306 0.03396658 0.01258693
v -0.00263911 0.03195470 0.01282034
v -0.00266478 0.03246386 0.01266948
v -0.00314185 0.03094876 0.01284596
v -0.00317679 0.03147370 0.01268513
v -0.00368809 0.03048465 0.01269937
v -0.00407459 0.02994282 0.01264671
v -0.00419582 0.02948660 0.01270506
v -0.00414733 0.02893688 0.01287015
v -0.00407816 0.02855952 0.01298116
v -0.00403038 0.02855952 0.01300109
v -0.00087916 0.03572725 0.01253854
v 0.00022188 0.03791936 0.01211442
v 0.00003932 0.03783375 0.01208453
v -0.00012683 0.03748455 0.01216423
v -0.00059177 0.03644819 0.01238199
v -0.00073582 0.03606294 0.01247165
v -0.00632872 0.02855952 0.00129794
v -0.00607414 0.02897518 0.00118550
v -0.00596789 0.02930974 0.00132925
v -0.00532895 0.03046888 0.00118550
v -0.00506795 0.03098255 0.00119120
v -0.00495956 0.03130810 0.00133921
v -0.00390772 0.03373790 0.00194550
v -0.00536603 0.03112562 0.00212768
v -0.00525264 0.03140611 0.00226857
v -0.00530613 0.03151988 0.00273112
v -0.00504299 0.03199413 0.00270408
v -0.00493317 0.03226448 0.00285494
v -0.00389845 0.03422229 0.00297165
v -0.00348129 0.03487339 0.00273112
v -0.00333510 0.03512459 0.00273112
v -0.00329588 0.03496125 0.00218176
v -0.00246939 0.03636483 0.00222730
v -0.00285660 0.03566980 0.00211629
v -0.00530185 0.03095439 0.00170783
v -0.00545089 0.03078993 0.00186296
v -0.00442473 0.03275675 0.00191277
v -0.00231393 0.03661604 0.00222730
v 0.00022188 0.03982873 0.00236108
v 0.00022188 0.03977016 0.00215187
v -0.00204081 0.03701819 0.00222019
v -0.00236028 0.03668926 0.00259876
v -0.00173988 0.03745639 0.00222019
v -0.00177411 0.03757804 0.00273112
v -0.00152309 0.03793176 0.00273112
v -0.00133840 0.03818408 0.00273112
v -0.00105601 0.03852991 0.00273112
v -0.00089627 0.03876422 0.00289906
v -0.00092622 0.03879576 0.00323352
v -0.00039995 0.03927226 0.00273112
v -0.00015821 0.03952346 0.00273112
v 0.00009281 0.03978255 0.00273112
v 0.00022188 0.03989745 0.00272685
v -0.00122573 0.03547380 0.01244888
v -0.00146747 0.03585679 0.01210446
v -0.00163434 0.03544451 0.01217562
v -0.00162079 0.03498603 0.01239622
v -0.00189320 0.03423130 0.01254281
v -0.00242375 0.03327943 0.01255989
v -0.00250932 0.03296064 0.01260970
v -0.00303417 0.03195470 0.01262393
v -0.00355687 0.03094876 0.01263532
v -0.00396905 0.03034272 0.01258551
v -0.00439549 0.02968599 0.01253569
v -0.00457091 0.02893688 0.01264528
v -0.00467146 0.02855952 0.01268940
v -0.00459159 0.02855952 0.01273210
v -0.00413806 0.02855952 0.01295412
v -0.00061745 0.03695623 0.01214716
v 0.00022188 0.03816606 0.01198918
v 0.00022188 0.03816832 0.01198775
v -0.00029584 0.03765014 0.01197921
v -0.00044345 0.03731558 0.01208026
v -0.00645780 0.02855952 0.00160535
v -0.00638720 0.02863837 0.00152992
v -0.00538172 0.03065137 0.00152708
v -0.00587091 0.03012080 0.00212341
v -0.00641715 0.02920048 0.00245359
v -0.00576537 0.03040130 0.00226573
v -0.00540810 0.03120785 0.00246356
v -0.00544019 0.03126868 0.00273112
v -0.00536104 0.03162126 0.00323352
v -0.00539099 0.03167759 0.00359075
v -0.00408172 0.03396658 0.00323352
v -0.00391985 0.03426284 0.00323352
v -0.00378293 0.03451292 0.00323352
v -0.00337575 0.03519330 0.00308693
v -0.00278101 0.03604604 0.00273112
v -0.00645708 0.02877918 0.00186438
v -0.00637365 0.02911487 0.00211771
v -0.00250718 0.03650452 0.00275247
v -0.00239808 0.03674783 0.00293322
v -0.00222123 0.03694271 0.00275247
v -0.00200087 0.03739556 0.00323352
v -0.00181832 0.03764676 0.00323352
v -0.00136906 0.03822351 0.00307412
v -0.00069018 0.03904809 0.00323352
v -0.00121075 0.03844993 0.00323921
v -0.00121147 0.03853217 0.00373734
v -0.00096045 0.03883406 0.00373734
v -0.00043846 0.03931168 0.00323352
v -0.00019315 0.03956289 0.00323352
v 0.00005858 0.03981747 0.00323352
v 0.00022188 0.03996729 0.00323352
v -0.00090554 0.03677036 0.01205607
v -0.00100466 0.03647973 0.01212723
v -0.00135551 0.03619136 0.01201053
v -0.00190461 0.03525751 0.01205322
v -0.00199089 0.03497139 0.01212581
v -0.00222408 0.03396658 0.01242041
v -0.00232890 0.03361512 0.01249869
v -0.00294004 0.03230053 0.01256985
v -0.00284947 0.03263621 0.01250865
v -0.00336719 0.03165618 0.01252004
v -0.00388490 0.03067841 0.01253000
v -0.00508221 0.02855952 0.01240761
v -0.00502873 0.02855952 0.01245457
v -0.00489181 0.02866540 0.01253000
v -0.00491606 0.02855952 0.01254708
v -0.00432560 0.02994282 0.01248161
v -0.00448035 0.03044523 0.01211584
v -0.00465791 0.02990903 0.01219981
v -0.00498238 0.02943929 0.01211442
v -0.00539313 0.02855952 0.01213150
v 0.00022188 0.03876647 0.01154656
v 0.00014130 0.03873042 0.01151809
v -0.00001915 0.03839474 0.01165330
v -0.00015749 0.03802638 0.01181554
v -0.00049194 0.03788332 0.01164333
v -0.00077861 0.03710605 0.01194648
v -0.00652197 0.02855952 0.00175906
v -0.00631018 0.02894252 0.00170783
v -0.00668884 0.02855952 0.00226146
v -0.00680579 0.02855952 0.00273112
v -0.00661611 0.02893688 0.00273112
v -0.00632373 0.02951814 0.00273112
v -0.00581885 0.03052070 0.00273112
v -0.00560278 0.03094876 0.00273112
v -0.00571117 0.03094876 0.00323352
v -0.00549367 0.03137006 0.00323352
v -0.00381787 0.03457825 0.00373734
v -0.00590086 0.03068404 0.00353667
v -0.00580530 0.03091609 0.00371741
v -0.00551221 0.03148609 0.00375015
v -0.00541238 0.03171814 0.00392663
v -0.00340427 0.03524062 0.00342138
v -0.00350981 0.03500406 0.00324633
v -0.00298425 0.03588045 0.00323352
v -0.00283164 0.03613165 0.00323352
v -0.00261486 0.03647973 0.00323352
v -0.00242232 0.03678501 0.00323352
v -0.00225260 0.03703621 0.00323352
v -0.00228968 0.03708915 0.00373734
v -0.00203867 0.03744625 0.00373734
v -0.00185469 0.03769745 0.00373734
v -0.00139188 0.03825393 0.00341000
v -0.00072085 0.03908526 0.00373734
v -0.00141256 0.03828096 0.00373734
v -0.00144037 0.03831476 0.00423974
v -0.00123357 0.03856596 0.00423974
v -0.00098184 0.03885997 0.00423974
v -0.00074652 0.03911117 0.00423974
v 0.00003576 0.03984000 0.00373734
v 0.00022188 0.04001235 0.00373734
v -0.00046912 0.03933985 0.00373734
v -0.00049551 0.03936125 0.00423974
v -0.00109523 0.03693370 0.01175150
v -0.00125639 0.03647973 0.01190805
v -0.00180263 0.03559207 0.01194079
v -0.00140044 0.03676135 0.01155510
v -0.00234174 0.03464359 0.01198491
v -0.00244015 0.03431015 0.01208453
v -0.00253856 0.03396658 0.01216850
v -0.00264766 0.03347994 0.01229944
v -0.00276105 0.03296064 0.01244034
v -0.00414091 0.03048465 0.01239622
v -0.00328589 0.03195470 0.01245599
v -0.00306055 0.03296064 0.01218843
v -0.00295786 0.03334477 0.01210019
v -0.00415018 0.03091271 0.01218985
v -0.00389774 0.03170800 0.01203757
v -0.00441046 0.03072009 0.01204753
v -0.00491534 0.02971865 0.01204895
v -0.00541452 0.02870596 0.01204468
v -0.00544946 0.02855952 0.01207884
v 0.00022188 0.03887348 0.01143839
v 0.00022188 0.03915285 0.01111390
v 0.00016198 0.03921593 0.01097584
v -0.00000204 0.03888024 0.01118363
v -0.00035431 0.03821901 0.01150671
v -0.00095047 0.03733247 0.01161202
v -0.00681791 0.02855952 0.00278378
v -0.00688423 0.02862710 0.00323352
v -0.00599998 0.03037764 0.00323352
v -0.00587305 0.03062884 0.00323352
v -0.00691062 0.02868005 0.00350251
v -0.00640574 0.02968261 0.00351674
v -0.00359824 0.03497139 0.00373734
v -0.00529472 0.03200652 0.00423974
v -0.00491463 0.03273197 0.00439202
v -0.00384854 0.03463345 0.00423974
v -0.00366028 0.03497139 0.00423974
v -0.00642998 0.02972992 0.00385262
v -0.00645566 0.02977948 0.00423974
v -0.00632658 0.03003069 0.00423974
v -0.00594507 0.03077078 0.00423974
v -0.00581529 0.03102198 0.00423974
v -0.00559208 0.03145117 0.00423974
v -0.00543235 0.03175531 0.00423974
v -0.00342424 0.03527554 0.00373734
v -0.00327306 0.03552674 0.00373734
v -0.00286873 0.03619361 0.00373734
v -0.00268617 0.03647973 0.00373734
v -0.00245655 0.03683795 0.00373734
v -0.00248507 0.03687850 0.00423974
v -0.00231607 0.03713083 0.00423974
v -0.00203368 0.03752848 0.00424258
v -0.00187537 0.03772448 0.00407607
v -0.00172490 0.03794527 0.00424258
v -0.00189248 0.03774927 0.00441195
v -0.00170921 0.03801511 0.00474213
v -0.00145820 0.03833503 0.00474213
v -0.00124641 0.03858623 0.00474213
v -0.00099539 0.03887461 0.00474213
v -0.00076292 0.03912581 0.00474213
v -0.00051191 0.03937589 0.00474213
v 0.00001936 0.03985126 0.00423974
v 0.00022188 0.04003938 0.00423974
v -0.00194026 0.03581737 0.01160633
v -0.00247937 0.03487113 0.01164903
v -0.00082710 0.03766816 0.01145832
v -0.00128563 0.03709704 0.01138431
v -0.00147531 0.03695060 0.01124199
v -0.00174273 0.03649212 0.01129038
v -0.00183829 0.03615193 0.01146401
v -0.00291508 0.03426059 0.01156506
v -0.00278957 0.03396658 0.01191802
v -0.00287158 0.03367933 0.01201337
v -0.00347130 0.03235910 0.01211015
v -0.00431990 0.03105577 0.01194079
v -0.00445468 0.03130585 0.01160633
v -0.00452599 0.03091271 0.01177712
v -0.00475204 0.03046888 0.01178281
v -0.00483120 0.03005434 0.01194933
v -0.00533109 0.02904052 0.01194648
v -0.00560848 0.02855952 0.01189098
v 0.00022188 0.03924184 0.01101000
v 0.00022188 0.03929704 0.01092318
v 0.00022188 0.03940856 0.01071682
v 0.00006500 0.03931056 0.01064139
v -0.00013610 0.03900641 0.01079936
v -0.00033720 0.03869888 0.01095592
v -0.00047696 0.03836319 0.01117225
v -0.00065239 0.03801962 0.01131457
v -0.00691775 0.02855952 0.00323352
v -0.00698835 0.02855952 0.00362064
v -0.00700617 0.02855952 0.00374161
v -0.00693486 0.02872849 0.00383839
v -0.00653338 0.02948435 0.00370603
v -0.00531896 0.03204932 0.00474213
v -0.00439406 0.03370749 0.00455569
v -0.00387207 0.03467625 0.00474213
v -0.00370663 0.03497139 0.00474213
v -0.00345561 0.03532848 0.00423974
v -0.00706322 0.02855952 0.00423974
v -0.00635154 0.03006561 0.00474213
v -0.00616186 0.03044523 0.00474213
v -0.00583882 0.03106817 0.00474213
v -0.00563844 0.03145117 0.00474213
v -0.00545517 0.03179812 0.00474213
v -0.00288655 0.03622290 0.00403479
v -0.00276533 0.03643918 0.00421697
v -0.00290010 0.03624430 0.00436925
v -0.00191744 0.03778306 0.00574835
v -0.00191388 0.03777630 0.00524595
v -0.00190389 0.03776391 0.00474213
v -0.00171635 0.03802751 0.00524595
v -0.00146462 0.03834404 0.00524595
v -0.00125496 0.03859525 0.00524595
v -0.00100324 0.03888250 0.00524595
v -0.00077076 0.03913370 0.00524595
v -0.00051975 0.03938265 0.00524595
v -0.00024307 0.03962710 0.00474213
v 0.00022188 0.04004389 0.00436213
v -0.00237740 0.03520682 0.01151667
v -0.00093835 0.03782023 0.01112386
v -0.00139331 0.03725137 0.01104843
v -0.00184328 0.03666673 0.01094311
v -0.00194882 0.03633217 0.01112813
v -0.00205650 0.03598183 0.01129038
v -0.00281453 0.03459515 0.01140993
v -0.00291650 0.03476525 0.01107547
v -0.00299281 0.03444420 0.01125764
v -0.00324596 0.03396432 0.01127614
v -0.00333866 0.03361399 0.01144124
v -0.00436483 0.03164154 0.01147682
v -0.00342780 0.03327830 0.01157929
v -0.00299352 0.03396658 0.01166611
v -0.00487826 0.03065250 0.01149532
v -0.00496312 0.03031681 0.01161345
v -0.00503301 0.02990903 0.01178281
v -0.00546372 0.02930862 0.01161060
v -0.00553147 0.02889858 0.01177996
v -0.00569834 0.02855952 0.01177854
v 0.00022188 0.03959668 0.01032543
v 0.00022188 0.03961921 0.01027420
v -0.00001558 0.03939166 0.01027420
v -0.00026731 0.03912807 0.01027420
v -0.00042134 0.03879801 0.01062146
v -0.00061673 0.03847697 0.01075524
v -0.00081213 0.03815592 0.01088760
v -0.00533251 0.03207073 0.00524595
v -0.00512143 0.03245711 0.00524595
v -0.00440547 0.03372664 0.00489015
v -0.00428710 0.03392377 0.00473075
v -0.00388490 0.03470216 0.00524595
v -0.00347915 0.03534200 0.00474213
v -0.00330158 0.03557968 0.00423974
v -0.00389204 0.03471455 0.00560318
v -0.00620036 0.03044523 0.00574835
v -0.00618967 0.03044523 0.00524595
v -0.00706180 0.02855952 0.00775936
v -0.00620036 0.03044523 0.00625075
v -0.00598287 0.03084062 0.00524595
v -0.00546658 0.03181952 0.00524595
v -0.00302418 0.03602464 0.00421697
v -0.00389703 0.03472244 0.00593764
v -0.00172062 0.03803426 0.00574835
v -0.00191744 0.03778306 0.00625075
v -0.00172134 0.03803539 0.00625075
v -0.00146890 0.03834968 0.00574835
v -0.00126067 0.03860088 0.00574835
v -0.00100966 0.03888813 0.00574835
v -0.00077718 0.03913933 0.00574835
v -0.00052546 0.03938941 0.00574835
v -0.00024806 0.03963498 0.00524595
v 0.00000866 0.03985915 0.00474213
v 0.00022188 0.04005403 0.00474213
v -0.00231322 0.03552336 0.01132169
v -0.00238595 0.03572275 0.01102423
v -0.00099967 0.03798920 0.01074244
v -0.00145677 0.03733585 0.01077659
v -0.00192172 0.03678839 0.01060723
v -0.00202797 0.03649212 0.01077517
v -0.00281810 0.03509981 0.01086199
v -0.00296571 0.03494773 0.01072678
v -0.00323883 0.03444307 0.01075951
v -0.00334580 0.03412992 0.01091607
v -0.00343493 0.03379423 0.01110536
v -0.00446323 0.03182516 0.01114236
v -0.00481266 0.03098368 0.01130888
v -0.00538100 0.02964431 0.01149390
v -0.00497596 0.03083949 0.01115944
v -0.00507793 0.03046888 0.01130888
v -0.00547870 0.02984031 0.01115802
v -0.00590015 0.02855952 0.01151667
v 0.00022188 0.03966539 0.01015038
v 0.00016840 0.03971158 0.00989135
v -0.00033648 0.03920242 0.00986146
v -0.00048624 0.03887686 0.01027420
v -0.00088985 0.03825505 0.01055315
v -0.00514354 0.03245711 0.00574835
v -0.00495528 0.03280631 0.00574835
v -0.00481551 0.03305864 0.00574835
v -0.00598928 0.03085301 0.00574835
v -0.00704326 0.02855952 0.00793157
v -0.00693486 0.02872849 0.00816071
v -0.00645566 0.02977836 0.00775936
v -0.00635083 0.03006561 0.00725554
v -0.00618895 0.03044523 0.00675315
v -0.00598857 0.03085188 0.00625075
v -0.00585736 0.03110421 0.00574835
v -0.00547371 0.03183417 0.00574835
v -0.00534107 0.03208537 0.00574835
v -0.00495599 0.03280857 0.00625075
v -0.00389703 0.03472244 0.00606431
v -0.00290010 0.03624430 0.00762273
v -0.00248507 0.03687850 0.00775936
v -0.00191388 0.03777630 0.00675315
v -0.00171706 0.03802751 0.00675315
v -0.00146533 0.03834404 0.00675315
v -0.00146961 0.03834968 0.00625075
v -0.00126067 0.03860201 0.00625075
v -0.00100894 0.03888700 0.00625075
v -0.00077718 0.03913821 0.00625075
v -0.00052546 0.03939054 0.00625075
v -0.00025376 0.03964061 0.00574835
v -0.00025519 0.03964174 0.00625075
v 0.00022188 0.04005628 0.00485315
v -0.00230608 0.03599648 0.01082498
v -0.00235672 0.03617671 0.01044925
v -0.00245584 0.03584102 0.01068978
v -0.00289083 0.03522372 0.01052611
v -0.00154449 0.03750708 0.01027135
v -0.00181261 0.03713196 0.01027420
v -0.00198519 0.03688076 0.01027420
v -0.00242303 0.03628598 0.01011337
v -0.00334009 0.03462331 0.01027420
v -0.00341639 0.03426059 0.01058019
v -0.00385995 0.03314538 0.01094453
v -0.00435698 0.03263058 0.01042363
v -0.00487113 0.03164605 0.01045352
v -0.00488753 0.03117518 0.01099719
v -0.00588160 0.02863386 0.01149105
v -0.00598144 0.02883325 0.01115517
v -0.00602779 0.02855952 0.01130603
v -0.00539455 0.03017488 0.01100573
v -0.00589729 0.02916894 0.01100431
v -0.00596290 0.02855952 0.01141562
v 0.00022188 0.03973524 0.00995397
v 0.00022188 0.03977016 0.00984865
v 0.00022188 0.03982873 0.00963944
v 0.00011705 0.03976002 0.00955689
v -0.00081569 0.03866622 0.00977038
v -0.00037713 0.03924860 0.00952558
v -0.00086062 0.03872254 0.00943734
v -0.00102249 0.03841388 0.00977038
v -0.00073725 0.03856709 0.01027420
v -0.00093906 0.03831588 0.01027420
v -0.00141327 0.03777968 0.01010199
v -0.00514425 0.03245711 0.00625075
v -0.00547299 0.03183417 0.00625075
v -0.00700617 0.02855952 0.00825607
v -0.00642998 0.02972992 0.00814648
v -0.00699976 0.02855952 0.00830161
v -0.00691062 0.02868005 0.00849659
v -0.00640574 0.02968261 0.00848236
v -0.00590086 0.03068404 0.00846101
v -0.00592225 0.03072572 0.00812513
v -0.00594507 0.03076965 0.00775936
v -0.00616114 0.03044523 0.00725554
v -0.00598215 0.03083837 0.00675315
v -0.00534107 0.03208537 0.00625075
v -0.00596932 0.03081584 0.00725554
v -0.00563772 0.03145117 0.00725554
v -0.00533251 0.03207073 0.00675315
v -0.00512286 0.03245711 0.00675315
v -0.00494387 0.03278491 0.00675315
v -0.00480481 0.03303724 0.00675315
v -0.00427640 0.03399587 0.00675315
v -0.00402467 0.03445096 0.00675315
v -0.00481694 0.03305977 0.00625075
v -0.00428638 0.03401614 0.00625075
v -0.00389275 0.03471568 0.00640019
v -0.00347915 0.03534312 0.00725554
v -0.00330230 0.03558081 0.00775936
v -0.00302490 0.03602351 0.00777787
v -0.00288584 0.03622177 0.00795861
v -0.00276461 0.03643918 0.00777787
v -0.00245655 0.03683795 0.00826176
v -0.00228968 0.03708915 0.00826176
v -0.00231607 0.03713083 0.00775936
v -0.00190389 0.03776391 0.00725554
v -0.00170921 0.03801511 0.00725554
v -0.00145749 0.03833391 0.00725554
v -0.00125425 0.03859525 0.00675315
v -0.00100252 0.03888137 0.00675315
v -0.00077219 0.03913257 0.00675315
v -0.00052046 0.03938716 0.00675315
v -0.00025305 0.03963836 0.00675315
v 0.00022188 0.04006529 0.00574835
v -0.00000346 0.03986703 0.00625075
v -0.00000132 0.03986591 0.00675315
v -0.00253071 0.03599648 0.01027847
v -0.00339215 0.03471793 0.01001659
v -0.00294075 0.03530820 0.01027420
v -0.00186681 0.03720856 0.00994970
v -0.00231393 0.03661716 0.00977038
v -0.00247010 0.03636596 0.00977038
v -0.00285732 0.03567093 0.00989135
v -0.00390772 0.03373790 0.01005502
v -0.00442473 0.03275787 0.01008918
v -0.00494102 0.03177559 0.01011906
v -0.00454809 0.03197723 0.01079367
v -0.00503800 0.03146806 0.01028131
v -0.00496027 0.03131036 0.01066131
v -0.00481337 0.03146806 0.01080790
v -0.00506866 0.03098368 0.01080790
v -0.00623673 0.02855952 0.01090753
v -0.00605275 0.02855952 0.01126333
v -0.00532895 0.03046888 0.01081360
v -0.00546586 0.03031681 0.01067127
v -0.00583169 0.02946294 0.01081360
v -0.00607486 0.02897518 0.01081360
v -0.00628166 0.02855952 0.01081217
v 0.00022188 0.03986816 0.00946011
v 0.00009209 0.03978367 0.00926798
v -0.00015892 0.03952459 0.00926798
v -0.00040066 0.03927338 0.00926798
v -0.00092694 0.03879801 0.00876558
v -0.00089698 0.03876422 0.00910146
v -0.00105601 0.03852991 0.00926940
v -0.00133769 0.03818408 0.00926798
v -0.00127422 0.03810298 0.00977038
v -0.00146391 0.03785065 0.00977038
v -0.00546586 0.03181952 0.00675315
v -0.00698835 0.02855952 0.00837846
v -0.00694984 0.02855952 0.00860191
v -0.00691704 0.02855952 0.00876558
v -0.00672735 0.02893688 0.00876558
v -0.00621962 0.02994282 0.00876558
v -0.00599998 0.03037764 0.00876558
v -0.00587305 0.03062884 0.00876558
v -0.00571117 0.03094876 0.00876558
v -0.00549367 0.03137006 0.00876558
v -0.00539099 0.03167759 0.00840978
v -0.00551221 0.03148721 0.00825037
v -0.00580459 0.03091497 0.00828026
v -0.00581529 0.03102085 0.00775936
v -0.00545517 0.03179812 0.00725554
v -0.00559208 0.03145117 0.00775936
v -0.00543306 0.03175531 0.00775936
v -0.00531968 0.03204932 0.00725554
v -0.00509576 0.03245711 0.00725554
v -0.00440547 0.03372777 0.00711180
v -0.00387207 0.03467738 0.00725554
v -0.00388562 0.03470216 0.00675315
v -0.00370734 0.03497139 0.00725554
v -0.00345633 0.03532961 0.00775936
v -0.00302133 0.03594015 0.00826176
v -0.00286730 0.03619136 0.00826176
v -0.00268546 0.03647973 0.00826176
v -0.00242232 0.03678501 0.00876558
v -0.00203867 0.03744737 0.00826176
v -0.00225189 0.03703621 0.00876558
v -0.00203368 0.03752961 0.00776079
v -0.00189320 0.03774927 0.00759285
v -0.00144109 0.03831476 0.00775936
v -0.00123215 0.03856596 0.00775936
v -0.00124498 0.03858511 0.00725554
v -0.00099397 0.03887348 0.00725554
v -0.00076435 0.03912469 0.00725554
v -0.00051262 0.03937927 0.00725554
v -0.00024663 0.03963047 0.00725554
v 0.00000438 0.03986253 0.00725554
v 0.00022188 0.04005966 0.00725554
v 0.00022188 0.04006642 0.00625075
v 0.00022188 0.04006529 0.00675315
v 0.00022188 0.04006642 0.00635322
v -0.00300136 0.03549182 0.00974333
v -0.00333652 0.03512684 0.00926798
v -0.00348129 0.03487451 0.00926798
v -0.00374300 0.03442167 0.00922528
v -0.00389845 0.03422341 0.00902888
v -0.00385852 0.03414906 0.00936476
v -0.00427283 0.03343263 0.00926229
v -0.00493389 0.03226561 0.00914843
v -0.00504442 0.03199525 0.00929644
v -0.00446894 0.03284011 0.00977038
v -0.00499236 0.03187134 0.00977038
v -0.00536603 0.03112562 0.00987142
v -0.00173845 0.03745639 0.00977749
v -0.00204081 0.03701819 0.00977749
v -0.00236099 0.03668926 0.00940034
v -0.00278173 0.03604942 0.00926798
v -0.00293433 0.03579822 0.00926798
v -0.00289939 0.03574077 0.00955689
v -0.00545089 0.03079105 0.01013614
v -0.00530256 0.03095439 0.01029270
v -0.00538172 0.03065137 0.01047202
v -0.00554787 0.03046888 0.01029270
v -0.00595434 0.02978624 0.01013614
v -0.00631018 0.02894364 0.01029127
v -0.00638720 0.02863837 0.01047060
v -0.00636438 0.02855952 0.01061719
v 0.00022188 0.03989745 0.00927225
v 0.00022188 0.03993687 0.00899899
v 0.00005715 0.03981859 0.00876558
v -0.00019386 0.03956514 0.00876558
v -0.00044131 0.03931394 0.00876558
v -0.00069304 0.03904921 0.00876558
v -0.00136835 0.03822351 0.00892214
v -0.00096045 0.03883631 0.00826176
v -0.00121218 0.03853217 0.00826176
v -0.00121147 0.03844993 0.00875846
v -0.00152238 0.03793176 0.00926798
v -0.00181832 0.03764676 0.00876558
v -0.00177411 0.03757692 0.00926798
v -0.00689707 0.02855952 0.00885667
v -0.00661611 0.02893688 0.00926798
v -0.00581885 0.03052070 0.00926798
v -0.00560278 0.03094876 0.00926798
v -0.00544019 0.03126868 0.00926798
v -0.00536104 0.03162239 0.00876558
v -0.00518133 0.03195470 0.00876558
v -0.00463295 0.03296064 0.00876558
v -0.00392127 0.03426509 0.00876558
v -0.00470926 0.03296064 0.00826176
v -0.00501161 0.03240754 0.00826176
v -0.00528331 0.03191302 0.00825037
v -0.00489395 0.03269592 0.00795008
v -0.00529543 0.03200652 0.00775936
v -0.00491463 0.03273309 0.00761419
v -0.00439478 0.03370749 0.00744625
v -0.00428710 0.03392377 0.00726978
v -0.00384925 0.03463570 0.00775936
v -0.00366099 0.03497139 0.00775936
v -0.00359966 0.03497139 0.00826176
v -0.00342495 0.03527554 0.00826176
v -0.00327306 0.03552787 0.00826176
v -0.00340427 0.03524062 0.00857914
v -0.00283164 0.03613165 0.00876558
v -0.00261486 0.03647973 0.00876558
v -0.00239808 0.03674671 0.00906588
v -0.00185540 0.03769858 0.00826176
v -0.00187608 0.03772674 0.00792873
v -0.00200016 0.03739443 0.00876558
v -0.00172562 0.03794527 0.00776079
v -0.00141256 0.03828096 0.00826176
v -0.00098042 0.03885997 0.00775936
v -0.00074937 0.03911117 0.00775936
v -0.00049836 0.03936575 0.00775936
v -0.00023593 0.03961696 0.00775936
v 0.00001579 0.03985464 0.00775936
v 0.00022188 0.04004389 0.00775936
v -0.00312901 0.03547380 0.00926798
v -0.00337646 0.03519443 0.00891502
v -0.00378364 0.03451517 0.00876558
v -0.00441617 0.03324451 0.00909008
v -0.00530684 0.03152101 0.00926798
v -0.00525264 0.03140611 0.00973053
v -0.00587091 0.03012080 0.00987569
v -0.00540810 0.03120785 0.00953554
v -0.00548797 0.03095439 0.00973053
v -0.00222123 0.03694271 0.00924663
v -0.00250789 0.03650564 0.00924663
v -0.00637365 0.02911487 0.00987996
v -0.00645708 0.02878030 0.01013472
v -0.00645851 0.02855952 0.01039375
v 0.00022188 0.03996729 0.00876558
v 0.00022188 0.03999883 0.00843397
v 0.00022188 0.04001460 0.00826176
v 0.00003219 0.03984112 0.00826176
v -0.00021953 0.03959555 0.00826176
v -0.00047340 0.03934435 0.00826176
v -0.00072513 0.03908751 0.00826176
v -0.00139117 0.03825393 0.00858626
v -0.00680579 0.02855952 0.00926798
v -0.00641644 0.02920048 0.00954408
v -0.00415731 0.03396658 0.00826176
v -0.00451600 0.03342587 0.00775936
v -0.00437766 0.03367707 0.00775936
v -0.00395764 0.03432930 0.00826176
v -0.00381859 0.03458050 0.00826176
v -0.00351052 0.03500406 0.00875420
v -0.00163505 0.03798920 0.00826176
v -0.00649630 0.02894364 0.00973622
v -0.00663607 0.02855952 0.00990985
v -0.00668813 0.02855952 0.00973764
v -0.00652197 0.02855952 0.01024004
v -0.00650129 0.02855952 0.01029127
f 1 2 3
f 1 3 8
f 1 8 18
f 1 18 27
f 1 27 40
f 1 40 55
f 1 55 76
f 1 76 98
f 1 98 122
f 1 122 121
f 1 121 145
f 1 145 172
f 1 172 204
f 1 204 238
f 1 238 271
f 1 271 312
f 1 312 351
f 1 351 357
f 1 357 405
f 1 405 404
f 1 404 463
f 1 463 462
f 1 462 461
f 1 461 514
f 1 514 512
f 1 512 511
f 1 511 519
f 1 519 580
f 1 580 641
f 1 641 699
f 1 699 751
f 1 751 804
f 1 804 801
f 1 801 875
f 1 875 874
f 1 874 880
f 1 880 960
f 1 960 1024
f 1 1024 1046
f 1 1046 1045
f 1 1045 1043
f 1 1043 1044
f 1 1044 1033
f 1 1033 974
f 1 974 894
f 1 894 893
f 1 893 892
f 1 892 820
f 1 820 818
f 1 818 761
f 1 761 717
f 1 717 660
f 1 660 652
f 1 652 651
f 1 651 650
f 1 650 587
f 1 587 529
f 1 529 528
f 1 528 526
f 1 526 469
f 1 469 412
f 1 412 367
f 1 367 366
f 1 366 323
f 1 323 281
f 1 281 245
f 1 245 214
f 1 214 177
f 1 177 150
f 1 150 127
f 1 127 102
f 1 102 79
f 1 79 57
f 1 57 42
f 1 42 28
f 1 28 19
f 1 19 9
f 1 9 4
f 1 4 5
f 1 5 6
f 1 6 2
f 2 6 7
f 2 7 3
f 3 7 8
f 4 9 10
f 4 10 5
f 5 10 11
f 5 11 12
f 5 12 13
f 5 13 14
f 5 14 6
f 6 14 15
f 6 15 7
f 7 15 16
f 7 16 8
f 8 16 17
f 8 17 18
f 9 19 11
f 9 11 10
f 11 19 20
f 11 20 12
f 12 20 21
f 12 21 22
f 12 22 23
f 12 23 13
f 13 23 24
f 13 24 25
f 13 25 14
f 14 25 15
f 15 25 26
f 15 26 38
f 15 38 37
f 15 37 36
f 15 36 35
f 15 35 52
f 15 52 75
f 15 75 73
f 15 73 74
f 15 74 96
f 15 96 95
f 15 95 110
f 15 110 109
f 15 109 111
f 15 111 113
f 15 113 118
f 15 118 117
f 15 117 141
f 15 141 167
f 15 167 197
f 15 197 228
f 15 228 261
f 15 261 263
f 15 263 301
f 15 301 300
f 15 300 341
f 15 341 384
f 15 384 435
f 15 435 434
f 15 434 448
f 15 448 499
f 15 499 559
f 15 559 623
f 15 623 679
f 15 679 733
f 15 733 784
f 15 784 856
f 15 856 932
f 15 932 934
f 15 934 933
f 15 933 931
f 15 931 1010
f 15 1010 1027
f 15 1027 1026
f 15 1026 1025
f 15 1025 962
f 15 962 961
f 15 961 881
f 15 881 807
f 15 807 806
f 15 806 805
f 15 805 752
f 15 752 701
f 15 701 700
f 15 700 644
f 15 644 643
f 15 643 642
f 15 642 582
f 15 582 581
f 15 581 520
f 15 520 466
f 15 466 465
f 15 465 407
f 15 407 365
f 15 365 364
f 15 364 363
f 15 363 358
f 15 358 318
f 15 318 317
f 15 317 274
f 15 274 239
f 15 239 207
f 15 207 206
f 15 206 212
f 15 212 211
f 15 211 210
f 15 210 205
f 15 205 173
f 15 173 147
f 15 147 146
f 15 146 124
f 15 124 100
f 15 100 77
f 15 77 56
f 15 56 53
f 15 53 39
f 15 39 27
f 15 27 18
f 15 18 17
f 15 17 16
f 19 28 29
f 19 29 20
f 20 29 21
f 21 30 31
f 21 31 32
f 21 32 22
f 21 29 30
f 22 32 33
f 22 33 23
f 23 33 34
f 23 34 24
f 24 34 35
f 24 35 36
f 24 36 37
f 24 37 38
f 24 38 25
f 25 38 26
f 27 39 40
f 28 41 29
f 28 42 43
f 28 43 41
f 29 41 30
f 30 41 43
f 30 43 44
f 30 44 45
f 30 45 31
f 31 45 46
f 31 46 47
f 31 47 32
f 32 47 48
f 32 48 49
f 32 49 33
f 33 49 50
f 33 50 51
f 33 51 34
f 34 51 52
f 34 52 35
f 39 53 40
f 40 54 55
f 40 53 56
f 40 56 54
f 42 57 58
f 42 58 59
f 42 59 60
f 42 60 43
f 43 60 61
f 43 61 44
f 44 61 45
f 45 61 62
f 45 62 63
f 45 63 64
f 45 64 65
f 45 65 47
f 45 47 46
f 47 65 66
f 47 66 67
f 47 67 68
f 47 68 69
f 47 69 70
f 47 70 48
f 48 70 71
f 48 71 49
f 49 71 72
f 49 72 50
f 50 73 51
f 50 72 74
f 50 74 73
f 51 73 75
f 51 75 52
f 54 76 55
f 54 56 77
f 54 77 78
f 54 78 76
f 57 79 58
f 58 80 81
f 58 81 59
f 58 79 80
f 59 81 60
f 60 81 80
f 60 80 82
f 60 82 61
f 61 82 62
f 62 83 84
f 62 84 65
f 62 65 64
f 62 64 63
f 62 82 83
f 65 84 85
f 65 85 86
f 65 86 87
f 65 87 88
f 65 88 89
f 65 89 66
f 66 89 67
f 67 89 90
f 67 90 68
f 68 91 92
f 68 92 69
f 68 90 93
f 68 93 94
f 68 94 91
f 69 92 70
f 70 92 71
f 71 92 95
f 71 95 96
f 71 96 72
f 72 96 74
f 76 97 98
f 76 78 99
f 76 99 97
f 77 100 101
f 77 101 99
f 77 99 78
f 79 102 103
f 79 103 80
f 80 103 104
f 80 104 105
f 80 105 85
f 80 85 83
f 80 83 82
f 83 85 84
f 85 105 88
f 85 88 86
f 86 88 87
f 88 105 89
f 89 105 106
f 89 106 107
f 89 107 90
f 90 107 108
f 90 108 93
f 91 109 110
f 91 110 92
f 91 94 111
f 91 111 109
f 92 110 95
f 93 108 112
f 93 112 94
f 94 113 111
f 94 112 114
f 94 114 115
f 94 115 116
f 94 116 117
f 94 117 118
f 94 118 113
f 97 119 120
f 97 120 121
f 97 121 122
f 97 122 98
f 97 99 119
f 99 101 123
f 99 123 119
f 100 124 125
f 100 125 101
f 101 125 126
f 101 126 123
f 102 127 128
f 102 128 103
f 103 128 104
f 104 128 129
f 104 129 130
f 104 130 131
f 104 131 132
f 104 132 133
f 104 133 105
f 105 133 106
f 106 133 134
f 106 134 135
f 106 135 108
f 106 108 107
f 108 135 136
f 108 136 137
f 108 137 112
f 112 137 114
f 114 137 115
f 115 138 139
f 115 139 116
f 115 137 138
f 116 139 140
f 116 140 117
f 117 140 141
f 119 123 120
f 120 142 143
f 120 143 144
f 120 144 121
f 120 123 142
f 121 144 145
f 123 126 142
f 124 146 125
f 125 146 147
f 125 147 126
f 126 148 149
f 126 149 142
f 126 147 148
f 127 129 128
f 127 150 151
f 127 151 129
f 129 151 152
f 129 152 130
f 130 152 153
f 130 153 131
f 131 153 154
f 131 154 132
f 132 154 153
f 132 153 155
f 132 155 156
f 132 156 133
f 133 156 134
f 134 156 157
f 134 157 158
f 134 158 136
f 134 136 135
f 136 159 137
f 136 158 160
f 136 160 161
f 136 161 162
f 136 162 159
f 137 159 163
f 137 163 138
f 138 163 139
f 139 163 164
f 139 164 140
f 140 164 165
f 140 165 166
f 140 166 167
f 140 167 141
f 142 149 168
f 142 168 169
f 142 169 143
f 143 170 171
f 143 171 145
f 143 145 144
f 143 169 170
f 145 171 172
f 147 173 174
f 147 174 148
f 148 174 175
f 148 175 176
f 148 176 149
f 149 176 168
f 150 177 178
f 150 178 151
f 151 178 152
f 152 179 155
f 152 155 153
f 152 178 180
f 152 180 181
f 152 181 179
f 155 179 182
f 155 182 183
f 155 183 184
f 155 184 185
f 155 185 186
f 155 186 187
f 155 187 157
f 155 157 156
f 157 187 186
f 157 186 185
f 157 185 188
f 157 188 158
f 158 188 160
f 159 162 163
f 160 189 190
f 160 190 161
f 160 188 189
f 161 190 191
f 161 191 162
f 162 191 192
f 162 192 193
f 162 193 194
f 162 194 195
f 162 195 165
f 162 165 164
f 162 164 163
f 165 195 196
f 165 196 166
f 166 197 167
f 166 196 198
f 166 198 199
f 166 199 197
f 168 176 200
f 168 200 201
f 168 201 202
f 168 202 169
f 169 202 170
f 170 202 203
f 170 203 204
f 170 204 172
f 170 172 171
f 173 205 174
f 174 206 207
f 174 207 208
f 174 208 209
f 174 209 175
f 174 205 210
f 174 210 211
f 174 211 212
f 174 212 206
f 175 209 176
f 176 209 208
f 176 208 213
f 176 213 200
f 177 214 178
f 178 214 180
f 179 181 215
f 179 215 182
f 180 214 216
f 180 216 181
f 181 216 217
f 181 217 215
f 182 215 183
f 183 215 218
f 183 218 184
f 184 218 219
f 184 219 220
f 184 220 221
f 184 221 185
f 185 221 222
f 185 222 188
f 188 222 189
f 189 222 190
f 190 223 224
f 190 224 191
f 190 222 223
f 191 224 225
f 191 225 192
f 192 225 193
f 193 225 194
f 194 225 226
f 194 226 196
f 194 196 195
f 196 226 198
f 197 199 227
f 197 227 228
f 198 227 199
f 198 226 229
f 198 229 230
f 198 230 231
f 198 231 232
f 198 232 227
f 200 213 233
f 200 233 234
f 200 234 235
f 200 235 201
f 201 236 202
f 201 235 237
f 201 237 236
f 202 236 203
f 203 236 238
f 203 238 204
f 207 239 240
f 207 240 208
f 208 241 213
f 208 240 242
f 208 242 241
f 213 241 243
f 213 243 244
f 213 244 233
f 214 245 216
f 215 217 246
f 215 246 219
f 215 219 218
f 216 247 248
f 216 248 217
f 216 245 247
f 217 248 246
f 219 246 249
f 219 249 220
f 220 249 221
f 221 250 223
f 221 223 222
f 221 249 251
f 221 251 252
f 221 252 253
f 221 253 250
f 223 250 253
f 223 253 254
f 223 254 224
f 224 254 255
f 224 255 225
f 225 255 256
f 225 256 257
f 225 257 258
f 225 258 259
f 225 259 226
f 226 259 260
f 226 260 229
f 227 261 228
f 227 232 262
f 227 262 263
f 227 263 261
f 229 260 230
f 230 260 231
f 231 262 232
f 231 260 264
f 231 264 265
f 231 265 266
f 231 266 262
f 233 244 267
f 233 267 268
f 233 268 234
f 234 268 235
f 235 269 237
f 235 268 269
f 236 237 270
f 236 270 271
f 236 271 238
f 237 269 272
f 237 272 273
f 237 273 270
f 239 274 240
f 240 274 275
f 240 275 242
f 241 244 243
f 241 242 276
f 241 276 244
f 242 275 276
f 244 276 277
f 244 277 278
f 244 278 279
f 244 279 280
f 244 280 267
f 245 281 282
f 245 282 283
f 245 283 247
f 246 248 284
f 246 284 249
f 247 283 248
f 248 283 282
f 248 282 285
f 248 285 284
f 249 284 285
f 249 285 251
f 251 286 287
f 251 287 252
f 251 285 286
f 252 287 253
f 253 287 286
f 253 286 288
f 253 288 289
f 253 289 290
f 253 290 291
f 253 291 292
f 253 292 293
f 253 293 254
f 254 293 255
f 255 293 256
f 256 293 294
f 256 294 295
f 256 295 257
f 257 295 296
f 257 296 258
f 258 296 297
f 258 297 260
f 258 260 259
f 260 297 298
f 260 298 264
f 262 266 299
f 262 299 300
f 262 300 301
f 262 301 263
f 264 298 302
f 264 302 303
f 264 303 265
f 265 299 266
f 265 303 304
f 265 304 305
f 265 305 299
f 267 280 306
f 267 306 307
f 267 307 308
f 267 308 309
f 267 309 310
f 267 310 311
f 267 311 268
f 268 311 269
f 269 311 272
f 270 273 312
f 270 312 271
f 272 311 313
f 272 313 314
f 272 314 273
f 273 314 315
f 273 315 316
f 273 316 312
f 274 317 275
f 275 278 277
f 275 277 276
f 275 317 318
f 275 318 319
f 275 319 278
f 278 320 321
f 278 321 279
f 278 319 322
f 278 322 320
f 279 321 306
f 279 306 280
f 281 323 324
f 281 324 282
f 282 324 325
f 282 325 285
f 285 325 286
f 286 325 326
f 286 326 327
f 286 327 328
f 286 328 329
f 286 329 288
f 288 329 330
f 288 330 331
f 288 331 289
f 289 331 332
f 289 332 290
f 290 332 291
f 291 333 292
f 291 332 334
f 291 334 335
f 291 335 336
f 291 336 333
f 292 333 293
f 293 333 295
f 293 295 294
f 295 333 296
f 296 333 337
f 296 337 338
f 296 338 297
f 297 338 298
f 298 338 337
f 298 337 339
f 298 339 302
f 299 305 340
f 299 340 341
f 299 341 300
f 302 339 303
f 303 339 342
f 303 342 343
f 303 343 344
f 303 344 304
f 304 344 345
f 304 345 346
f 304 346 305
f 305 346 340
f 306 321 347
f 306 347 348
f 306 348 349
f 306 349 307
f 307 350 309
f 307 309 308
f 307 349 350
f 309 314 313
f 309 313 310
f 309 350 314
f 310 313 311
f 312 316 351
f 314 350 352
f 314 352 353
f 314 353 354
f 314 354 355
f 314 355 356
f 314 356 315
f 315 356 357
f 315 357 316
f 316 357 351
f 318 358 319
f 319 358 322
f 320 322 359
f 320 359 360
f 320 360 347
f 320 347 321
f 322 361 362
f 322 362 359
f 322 358 363
f 322 363 364
f 322 364 365
f 322 365 361
f 323 325 324
f 323 366 325
f 325 366 326
f 326 366 367
f 326 367 368
f 326 368 327
f 327 329 328
f 327 368 369
f 327 369 329
f 329 369 370
f 329 370 330
f 330 370 331
f 331 370 332
f 332 370 334
f 333 371 337
f 333 336 372
f 333 372 371
f 334 370 373
f 334 373 374
f 334 374 375
f 334 375 376
f 334 376 377
f 334 377 335
f 335 377 378
f 335 378 336
f 336 378 372
f 337 371 379
f 337 379 380
f 337 380 381
f 337 381 339
f 339 381 382
f 339 382 342
f 340 346 383
f 340 383 384
f 340 384 341
f 342 382 381
f 342 381 385
f 342 385 386
f 342 386 387
f 342 387 343
f 343 387 344
f 344 387 388
f 344 388 345
f 345 388 389
f 345 389 346
f 346 389 390
f 346 390 391
f 346 391 383
f 347 360 392
f 347 392 393
f 347 393 348
f 348 394 349
f 348 393 395
f 348 395 394
f 349 396 352
f 349 352 350
f 349 394 397
f 349 397 396
f 352 396 398
f 352 398 353
f 353 398 399
f 353 399 400
f 353 400 401
f 353 401 402
f 353 402 403
f 353 403 354
f 354 403 404
f 354 404 355
f 355 404 356
f 356 404 405
f 356 405 357
f 359 362 406
f 359 406 360
f 360 406 392
f 361 365 407
f 361 407 408
f 361 408 409
f 361 409 362
f 362 409 410
f 362 410 411
f 362 411 406
f 367 412 413
f 367 413 368
f 368 413 369
f 369 413 414
f 369 414 415
f 369 415 370
f 370 415 416
f 370 416 417
f 370 417 373
f 371 372 379
f 372 378 377
f 372 377 418
f 372 418 419
f 372 419 420
f 372 420 421
f 372 421 422
f 372 422 423
f 372 423 424
f 372 424 425
f 372 425 426
f 372 426 427
f 372 427 428
f 372 428 429
f 372 429 379
f 373 417 375
f 373 375 374
f 375 417 416
f 375 416 430
f 375 430 431
f 375 431 376
f 376 431 419
f 376 419 432
f 376 432 377
f 377 432 418
f 379 429 428
f 379 428 433
f 379 433 380
f 380 433 385
f 380 385 381
f 383 391 434
f 383 434 435
f 383 435 384
f 385 436 437
f 385 437 438
f 385 438 386
f 385 433 436
f 386 439 440
f 386 440 441
f 386 441 387
f 386 438 439
f 387 441 388
f 388 441 389
f 389 441 442
f 389 442 443
f 389 443 390
f 390 443 444
f 390 444 445
f 390 445 391
f 391 445 446
f 391 446 447
f 391 447 448
f 391 448 434
f 392 449 450
f 392 450 451
f 392 451 452
f 392 452 453
f 392 453 393
f 392 406 449
f 393 453 395
f 394 395 454
f 394 454 455
f 394 455 397
f 395 453 454
f 396 397 398
f 397 399 398
f 397 455 456
f 397 456 399
f 399 456 400
f 400 456 457
f 400 457 401
f 401 457 458
f 401 458 459
f 401 459 460
f 401 460 402
f 402 461 462
f 402 462 403
f 402 460 461
f 403 462 463
f 403 463 404
f 406 411 464
f 406 464 449
f 407 465 408
f 408 465 466
f 408 466 467
f 408 467 468
f 408 468 409
f 409 468 410
f 410 468 464
f 410 464 411
f 412 469 470
f 412 470 413
f 413 470 414
f 414 470 471
f 414 471 415
f 415 471 416
f 416 471 430
f 418 432 419
f 419 431 472
f 419 472 473
f 419 473 474
f 419 474 475
f 419 475 420
f 420 475 421
f 421 475 476
f 421 476 477
f 421 477 423
f 421 423 422
f 423 477 424
f 424 477 478
f 424 478 479
f 424 479 480
f 424 480 481
f 424 481 482
f 424 482 425
f 425 482 426
f 426 482 483
f 426 483 428
f 426 428 427
f 428 483 437
f 428 437 433
f 430 471 431
f 431 484 485
f 431 485 472
f 431 471 484
f 433 437 436
f 437 483 486
f 437 486 487
f 437 487 488
f 437 488 438
f 438 488 439
f 439 488 487
f 439 487 489
f 439 489 440
f 440 489 490
f 440 490 491
f 440 491 441
f 441 491 443
f 441 443 442
f 443 491 444
f 444 492 445
f 444 491 493
f 444 493 494
f 444 494 495
f 444 495 492
f 445 492 496
f 445 496 446
f 446 496 447
f 447 496 497
f 447 497 498
f 447 498 499
f 447 499 448
f 449 464 500
f 449 500 501
f 449 501 450
f 450 501 500
f 450 500 502
f 450 502 503
f 450 503 451
f 451 503 504
f 451 504 505
f 451 505 453
f 451 453 452
f 453 505 506
f 453 506 454
f 454 507 456
f 454 456 455
f 454 506 508
f 454 508 509
f 454 509 510
f 454 510 507
f 456 507 510
f 456 510 457
f 457 510 458
f 458 510 459
f 459 511 512
f 459 512 513
f 459 513 514
f 459 514 460
f 459 510 515
f 459 515 516
f 459 516 517
f 459 517 518
f 459 518 519
f 459 519 511
f 460 514 461
f 464 468 500
f 466 520 521
f 466 521 522
f 466 522 523
f 466 523 467
f 467 523 524
f 467 524 525
f 467 525 468
f 468 525 500
f 469 526 484
f 469 484 470
f 470 484 527
f 470 527 471
f 471 527 484
f 472 485 473
f 473 528 529
f 473 529 530
f 473 530 531
f 473 531 532
f 473 532 475
f 473 475 474
f 473 485 528
f 475 532 533
f 475 533 476
f 476 533 534
f 476 534 535
f 476 535 477
f 477 535 478
f 478 536 481
f 478 481 480
f 478 480 479
f 478 535 537
f 478 537 538
f 478 538 539
f 478 539 540
f 478 540 536
f 481 536 541
f 481 541 542
f 481 542 482
f 482 542 541
f 482 541 543
f 482 543 544
f 482 544 487
f 482 487 486
f 482 486 483
f 484 526 528
f 484 528 485
f 487 544 545
f 487 545 546
f 487 546 547
f 487 547 489
f 489 547 548
f 489 548 549
f 489 549 490
f 490 549 550
f 490 550 491
f 491 550 551
f 491 551 493
f 492 495 552
f 492 552 496
f 493 551 494
f 494 551 553
f 494 553 554
f 494 554 555
f 494 555 495
f 495 555 556
f 495 556 557
f 495 557 552
f 496 552 497
f 497 552 560
f 497 560 498
f 498 558 559
f 498 559 499
f 498 560 561
f 498 561 558
f 500 525 562
f 500 562 563
f 500 563 502
f 502 564 503
f 502 563 565
f 502 565 564
f 503 564 566
f 503 566 567
f 503 567 504
f 504 567 505
f 505 567 568
f 505 568 506
f 506 568 569
f 506 569 570
f 506 570 508
f 508 570 509
f 509 570 510
f 510 571 515
f 510 570 572
f 510 572 573
f 510 573 574
f 510 574 575
f 510 575 571
f 512 514 513
f 515 571 516
f 516 571 575
f 516 575 576
f 516 576 577
f 516 577 578
f 516 578 517
f 517 578 518
f 518 578 579
f 518 579 580
f 518 580 519
f 520 581 521
f 521 581 582
f 521 582 583
f 521 583 584
f 521 584 585
f 521 585 522
f 522 585 523
f 523 585 524
f 524 585 586
f 524 586 525
f 525 586 562
f 529 587 530
f 530 587 531
f 531 587 588
f 531 588 532
f 532 588 533
f 533 588 589
f 533 589 590
f 533 590 534
f 534 590 591
f 534 591 592
f 534 592 537
f 534 537 535
f 536 593 541
f 536 540 594
f 536 594 595
f 536 595 596
f 536 596 597
f 536 597 593
f 537 592 598
f 537 598 599
f 537 599 538
f 538 599 600
f 538 600 601
f 538 601 602
f 538 602 603
f 538 603 539
f 539 603 604
f 539 604 540
f 540 604 594
f 541 593 605
f 541 605 606
f 541 606 607
f 541 607 544
f 541 544 543
f 544 607 545
f 545 607 546
f 546 607 608
f 546 608 609
f 546 609 548
f 546 548 547
f 548 609 610
f 548 610 611
f 548 611 549
f 549 611 612
f 549 612 613
f 549 613 550
f 550 553 551
f 550 613 553
f 552 557 560
f 553 613 614
f 553 614 554
f 554 614 615
f 554 615 616
f 554 616 617
f 554 617 555
f 555 617 618
f 555 618 556
f 556 618 619
f 556 619 620
f 556 620 557
f 557 620 621
f 557 621 561
f 557 561 560
f 558 561 621
f 558 621 622
f 558 622 623
f 558 623 559
f 562 586 565
f 562 565 563
f 564 565 624
f 564 624 625
f 564 625 566
f 565 586 626
f 565 626 627
f 565 627 628
f 565 628 629
f 565 629 630
f 565 630 624
f 566 625 631
f 566 631 632
f 566 632 633
f 566 633 567
f 567 633 568
f 568 633 574
f 568 574 569
f 569 574 570
f 570 574 573
f 570 573 572
f 574 634 575
f 574 633 576
f 574 576 634
f 575 634 576
f 576 635 577
f 576 633 636
f 576 636 635
f 577 635 637
f 577 637 638
f 577 638 639
f 577 639 578
f 578 639 640
f 578 640 579
f 579 640 641
f 579 641 580
f 582 642 583
f 583 642 643
f 583 643 644
f 583 644 645
f 583 645 646
f 583 646 647
f 583 647 584
f 584 647 648
f 584 648 585
f 585 626 586
f 585 648 649
f 585 649 626
f 587 650 588
f 588 650 591
f 588 591 589
f 589 591 590
f 591 651 652
f 591 652 653
f 591 653 592
f 591 650 651
f 592 653 654
f 592 654 598
f 593 597 605
f 594 604 595
f 595 604 655
f 595 655 656
f 595 656 596
f 596 656 657
f 596 657 597
f 597 657 658
f 597 658 659
f 597 659 605
f 598 654 653
f 598 653 599
f 599 660 661
f 599 661 662
f 599 662 600
f 599 653 660
f 600 662 601
f 601 662 602
f 602 662 663
f 602 663 603
f 603 663 664
f 603 664 604
f 604 664 665
f 604 665 655
f 605 659 606
f 606 659 607
f 607 659 666
f 607 666 608
f 608 666 609
f 609 666 610
f 610 666 667
f 610 667 668
f 610 668 669
f 610 669 670
f 610 670 611
f 611 670 671
f 611 671 615
f 611 615 612
f 612 615 613
f 613 615 614
f 615 671 616
f 616 671 670
f 616 670 617
f 617 670 672
f 617 672 673
f 617 673 674
f 617 674 618
f 618 674 619
f 619 674 675
f 619 675 676
f 619 676 620
f 620 676 621
f 621 676 677
f 621 677 678
f 621 678 622
f 622 678 623
f 623 678 679
f 624 630 680
f 624 680 631
f 624 631 625
f 626 649 681
f 626 681 627
f 627 681 682
f 627 682 628
f 628 682 683
f 628 683 684
f 628 684 629
f 629 684 630
f 630 684 685
f 630 685 680
f 631 680 686
f 631 686 687
f 631 687 688
f 631 688 689
f 631 689 690
f 631 690 691
f 631 691 692
f 631 692 693
f 631 693 633
f 631 633 632
f 633 693 636
f 635 636 637
f 636 693 692
f 636 692 694
f 636 694 695
f 636 695 637
f 637 695 638
f 638 695 639
f 639 695 696
f 639 696 697
f 639 697 640
f 640 697 698
f 640 698 699
f 640 699 641
f 644 700 645
f 645 700 701
f 645 701 702
f 645 702 703
f 645 703 704
f 645 704 646
f 646 704 647
f 647 704 705
f 647 705 706
f 647 706 648
f 648 706 681
f 648 681 649
f 652 660 653
f 655 665 707
f 655 707 708
f 655 708 709
f 655 709 710
f 655 710 656
f 656 710 657
f 657 710 709
f 657 709 711
f 657 711 658
f 658 712 713
f 658 713 659
f 658 711 714
f 658 714 712
f 659 713 666
f 660 715 716
f 660 716 661
f 660 717 718
f 660 718 715
f 661 716 662
f 662 716 663
f 663 716 719
f 663 719 664
f 664 719 720
f 664 720 665
f 665 720 707
f 666 713 721
f 666 721 668
f 666 668 667
f 668 721 713
f 668 713 712
f 668 712 722
f 668 722 669
f 669 723 670
f 669 722 771
f 669 771 724
f 669 724 725
f 669 725 723
f 670 723 672
f 672 723 673
f 673 723 726
f 673 726 727
f 673 727 674
f 674 727 728
f 674 728 675
f 675 728 729
f 675 729 676
f 676 729 730
f 676 730 677
f 677 730 731
f 677 731 678
f 678 732 679
f 678 731 732
f 679 732 733
f 680 685 734
f 680 734 735
f 680 735 686
f 681 706 682
f 682 706 736
f 682 736 737
f 682 737 738
f 682 738 683
f 683 735 684
f 683 738 739
f 683 739 735
f 684 735 685
f 685 735 734
f 686 735 687
f 687 735 740
f 687 740 741
f 687 741 742
f 687 742 743
f 687 743 744
f 687 744 688
f 688 744 689
f 689 744 690
f 690 744 745
f 690 745 746
f 690 746 691
f 691 694 692
f 691 746 694
f 694 747 695
f 694 746 748
f 694 748 749
f 694 749 750
f 694 750 747
f 695 747 697
f 695 697 696
f 697 747 751
f 697 751 699
f 697 699 698
f 701 752 753
f 701 753 702
f 702 753 754
f 702 754 703
f 703 754 755
f 703 755 704
f 704 756 705
f 704 755 756
f 705 756 706
f 706 756 736
f 707 720 757
f 707 757 758
f 707 758 708
f 708 758 709
f 709 758 711
f 711 758 759
f 711 759 714
f 712 714 722
f 714 759 722
f 715 760 716
f 715 718 760
f 716 760 719
f 717 761 762
f 717 762 763
f 717 763 764
f 717 764 765
f 717 765 718
f 718 765 766
f 718 766 760
f 719 760 767
f 719 767 768
f 719 768 720
f 720 768 769
f 720 769 757
f 722 759 758
f 722 758 770
f 722 770 771
f 723 725 726
f 724 772 773
f 724 773 774
f 724 774 725
f 724 771 772
f 725 774 775
f 725 775 776
f 725 776 777
f 725 777 726
f 726 777 778
f 726 778 727
f 727 778 728
f 728 778 779
f 728 779 780
f 728 780 729
f 729 780 781
f 729 781 730
f 730 782 731
f 730 781 783
f 730 783 782
f 731 782 732
f 732 782 733
f 733 782 784
f 735 739 738
f 735 738 785
f 735 785 786
f 735 786 787
f 735 787 788
f 735 788 741
f 735 741 740
f 736 756 737
f 737 756 738
f 738 786 785
f 738 756 789
f 738 789 790
f 738 790 791
f 738 791 792
f 738 792 786
f 741 788 793
f 741 793 742
f 742 793 794
f 742 794 743
f 743 795 744
f 743 794 796
f 743 796 797
f 743 797 795
f 744 795 798
f 744 798 745
f 745 798 748
f 745 748 746
f 747 799 751
f 747 750 800
f 747 800 801
f 747 801 799
f 748 798 802
f 748 802 750
f 748 750 749
f 750 802 803
f 750 803 800
f 751 799 804
f 752 805 753
f 753 806 807
f 753 807 808
f 753 808 754
f 753 805 806
f 754 809 755
f 754 808 810
f 754 810 811
f 754 811 809
f 755 809 812
f 755 812 813
f 755 813 756
f 756 813 814
f 756 814 815
f 756 815 789
f 757 769 816
f 757 816 770
f 757 770 758
f 760 766 817
f 760 817 828
f 760 828 767
f 761 818 762
f 762 819 763
f 762 818 820
f 762 820 821
f 762 821 822
f 762 822 819
f 763 819 823
f 763 823 824
f 763 824 825
f 763 825 826
f 763 826 764
f 764 826 765
f 765 827 828
f 765 828 817
f 765 817 766
f 765 826 829
f 765 829 830
f 765 830 827
f 767 828 768
f 768 828 769
f 769 828 816
f 770 816 831
f 770 831 832
f 770 832 833
f 770 833 834
f 770 834 835
f 770 835 836
f 770 836 912
f 770 912 837
f 770 837 771
f 771 837 838
f 771 838 839
f 771 839 840
f 771 840 772
f 772 840 841
f 772 841 842
f 772 842 843
f 772 843 844
f 772 844 773
f 773 844 843
f 773 843 845
f 773 845 846
f 773 846 847
f 773 847 774
f 774 847 848
f 774 848 849
f 774 849 775
f 775 849 850
f 775 850 776
f 776 851 778
f 776 778 777
f 776 850 851
f 778 851 852
f 778 852 779
f 779 852 853
f 779 853 780
f 780 853 854
f 780 854 781
f 781 854 855
f 781 855 783
f 782 856 784
f 782 783 857
f 782 857 856
f 783 855 858
f 783 858 857
f 786 788 787
f 786 792 859
f 786 859 860
f 786 860 861
f 786 861 788
f 788 861 860
f 788 860 793
f 789 815 790
f 790 815 862
f 790 862 791
f 791 862 863
f 791 863 792
f 792 863 864
f 792 864 865
f 792 865 860
f 792 860 859
f 793 860 794
f 794 860 866
f 794 866 867
f 794 867 868
f 794 868 796
f 795 797 869
f 795 869 798
f 796 868 870
f 796 870 797
f 797 871 872
f 797 872 869
f 797 870 871
f 798 869 872
f 798 872 871
f 798 871 873
f 798 873 802
f 799 801 804
f 800 803 874
f 800 874 875
f 800 875 801
f 802 873 876
f 802 876 877
f 802 877 878
f 802 878 803
f 803 878 879
f 803 879 880
f 803 880 874
f 807 881 808
f 808 881 882
f 808 882 883
f 808 883 884
f 808 884 810
f 809 811 812
f 810 884 885
f 810 885 886
f 810 886 811
f 811 887 888
f 811 888 889
f 811 889 812
f 811 886 887
f 812 889 813
f 813 889 814
f 814 889 815
f 815 889 890
f 815 890 862
f 816 828 891
f 816 891 831
f 819 822 823
f 820 892 821
f 821 892 893
f 821 893 894
f 821 894 895
f 821 895 896
f 821 896 897
f 821 897 898
f 821 898 899
f 821 899 822
f 822 899 823
f 823 899 900
f 823 900 901
f 823 901 902
f 823 902 903
f 823 903 824
f 824 902 904
f 824 904 825
f 824 903 902
f 825 904 826
f 826 904 829
f 827 891 828
f 827 830 905
f 827 905 891
f 829 904 906
f 829 906 830
f 830 906 907
f 830 907 905
f 831 891 905
f 831 905 908
f 831 908 832
f 832 908 833
f 833 908 909
f 833 909 910
f 833 910 834
f 834 910 835
f 835 910 836
f 836 910 911
f 836 911 912
f 837 912 839
f 837 839 838
f 839 912 913
f 839 913 840
f 840 913 841
f 841 913 914
f 841 914 843
f 841 843 842
f 843 914 915
f 843 915 916
f 843 916 917
f 843 917 845
f 845 917 918
f 845 918 846
f 846 919 847
f 846 918 920
f 846 920 919
f 847 921 922
f 847 922 848
f 847 919 921
f 848 922 849
f 849 922 923
f 849 923 850
f 850 923 924
f 850 924 925
f 850 925 851
f 851 925 926
f 851 926 852
f 852 926 927
f 852 927 853
f 853 927 928
f 853 928 854
f 854 928 929
f 854 929 855
f 855 929 930
f 855 930 931
f 855 931 858
f 856 857 932
f 857 858 933
f 857 933 934
f 857 934 932
f 858 931 933
f 860 865 935
f 860 935 936
f 860 936 937
f 860 937 938
f 860 938 939
f 860 939 940
f 860 940 941
f 860 941 942
f 860 942 943
f 860 943 944
f 860 944 945
f 860 945 946
f 860 946 867
f 860 867 866
f 862 890 947
f 862 947 948
f 862 948 863
f 863 949 864
f 863 948 949
f 864 949 950
f 864 950 951
f 864 951 952
f 864 952 865
f 865 952 935
f 867 946 868
f 868 946 953
f 868 953 870
f 870 953 954
f 870 954 871
f 871 954 873
f 873 954 955
f 873 955 876
f 876 955 877
f 877 955 956
f 877 956 957
f 877 957 958
f 877 958 959
f 877 959 878
f 878 959 879
f 879 959 960
f 879 960 880
f 881 961 882
f 882 961 962
f 882 962 963
f 882 963 964
f 882 964 965
f 882 965 883
f 883 965 884
f 884 965 966
f 884 966 885
f 885 967 886
f 885 966 968
f 885 968 969
f 885 969 970
f 885 970 967
f 886 967 888
f 886 888 887
f 888 971 890
f 888 890 889
f 888 967 972
f 888 972 971
f 890 971 973
f 890 973 947
f 894 974 895
f 895 974 975
f 895 975 976
f 895 976 896
f 896 976 977
f 896 977 897
f 897 977 898
f 898 977 899
f 899 977 978
f 899 978 900
f 900 978 979
f 900 979 901
f 901 979 980
f 901 980 981
f 901 981 982
f 901 982 983
f 901 983 984
f 901 984 985
f 901 985 907
f 901 907 902
f 902 907 906
f 902 906 904
f 905 907 908
f 907 985 984
f 907 984 983
f 907 983 986
f 907 986 987
f 907 987 988
f 907 988 908
f 908 988 989
f 908 989 909
f 909 989 910
f 910 989 990
f 910 990 911
f 911 990 989
f 911 989 991
f 911 991 913
f 911 913 912
f 913 991 992
f 913 992 914
f 914 992 993
f 914 993 994
f 914 994 995
f 914 995 915
f 915 995 996
f 915 996 997
f 915 997 916
f 916 997 998
f 916 998 917
f 917 998 918
f 918 998 999
f 918 999 920
f 919 1000 1001
f 919 1001 921
f 919 920 1002
f 919 1002 972
f 919 972 1000
f 920 999 1002
f 921 1001 922
f 922 1001 1003
f 922 1003 923
f 923 1003 1001
f 923 1001 1004
f 923 1004 969
f 923 969 968
f 923 968 924
f 924 1005 925
f 924 968 1005
f 925 1005 926
f 926 1005 927
f 927 1005 1006
f 927 1006 1007
f 927 1007 928
f 928 1007 1008
f 928 1008 929
f 929 1008 1009
f 929 1009 930
f 930 1009 1010
f 930 1010 931
f 935 952 936
f 936 952 1011
f 936 1011 1012
f 936 1012 937
f 937 1012 939
f 937 939 938
f 939 1012 1013
f 939 1013 982
f 939 982 981
f 939 981 980
f 939 980 1014
f 939 1014 941
f 939 941 940
f 941 1014 942
f 942 1014 980
f 942 980 979
f 942 979 1015
f 942 1015 943
f 943 945 944
f 943 1015 945
f 945 1015 1016
f 945 1016 946
f 946 1017 953
f 946 1016 1018
f 946 1018 1019
f 946 1019 1017
f 947 973 1020
f 947 1020 949
f 947 949 948
f 949 1020 999
f 949 999 1021
f 949 1021 950
f 950 1021 1012
f 950 1012 951
f 951 1011 952
f 951 1012 1011
f 953 1017 1022
f 953 1022 957
f 953 957 956
f 953 956 955
f 953 955 954
f 957 1022 1023
f 957 1023 958
f 958 1023 959
f 959 1024 960
f 959 1023 1024
f 962 1025 963
f 963 1025 1026
f 963 1026 1027
f 963 1027 1028
f 963 1028 1029
f 963 1029 1030
f 963 1030 964
f 964 1030 965
f 965 1030 1031
f 965 1031 966
f 966 1031 968
f 967 970 1032
f 967 1032 1000
f 967 1000 972
f 968 1031 1006
f 968 1006 1005
f 969 1004 1032
f 969 1032 970
f 971 972 1002
f 971 1002 973
f 973 1002 999
f 973 999 1020
f 974 1033 975
f 975 1033 1034
f 975 1034 1018
f 975 1018 976
f 976 1018 977
f 977 1018 978
f 978 1018 1015
f 978 1015 979
f 982 1013 1035
f 982 1035 983
f 983 1035 986
f 986 988 987
f 986 1035 988
f 988 1035 1036
f 988 1036 1037
f 988 1037 991
f 988 991 989
f 991 1037 1038
f 991 1038 1039
f 991 1039 993
f 991 993 992
f 993 1039 996
f 993 996 994
f 994 996 995
f 996 1039 1013
f 996 1013 1040
f 996 1040 1012
f 996 1012 997
f 997 1012 999
f 997 999 998
f 999 1012 1021
f 1000 1032 1041
f 1000 1041 1001
f 1001 1041 1004
f 1004 1041 1032
f 1006 1031 1030
f 1006 1030 1007
f 1007 1030 1029
f 1007 1029 1028
f 1007 1028 1008
f 1008 1028 1009
f 1009 1028 1010
f 1010 1028 1027
f 1012 1040 1013
f 1013 1039 1038
f 1013 1038 1035
f 1015 1018 1016
f 1017 1019 1034
f 1017 1034 1042
f 1017 1042 1022
f 1018 1034 1019
f 1022 1043 1023
f 1022 1042 1044
f 1022 1044 1043
f 1023 1045 1046
f 1023 1046 1024
f 1023 1043 1045
f 1033 1044 1034
f 1034 1044 1042
f 1035 1038 1036
f 1036 1038 1037

