# https://github.com/mikedh/trimesh
v 0.00022247 0.02827812 0.01322280
v 0.00022247 0.02793232 0.01321855
v 0.00037975 0.02793232 0.01320724
v 0.00037975 0.02843337 0.01321148
v 0.00037975 0.02893678 0.01321148
v 0.00022247 0.02877917 0.01322138
v 0.00022247 0.02777471 0.01321573
v 0.00022247 0.02742891 0.01320724
v 0.00037975 0.02742891 0.01319451
v 0.00088270 0.02793232 0.01314926
v 0.00088270 0.02843337 0.01316058
v 0.00088270 0.02944019 0.01317047
v 0.00088270 0.02994124 0.01317189
v 0.00037975 0.02944019 0.01320724
v 0.00022247 0.02928258 0.01321714
v 0.00022247 0.02727130 0.01320300
v 0.00022247 0.02692550 0.01319169
v 0.00037975 0.02692550 0.01317755
v 0.00088270 0.02742891 0.01312664
v 0.00129117 0.02793232 0.01307715
v 0.00134868 0.02843337 0.01308563
v 0.00138565 0.02944019 0.01310684
v 0.00138565 0.02994124 0.01311391
v 0.00037975 0.02994124 0.01320300
v 0.00138565 0.03044465 0.01311391
v 0.00088270 0.03044465 0.01316482
v 0.00022247 0.02994124 0.01320865
v 0.00022247 0.02676789 0.01318603
v 0.00022247 0.02626448 0.01316340
v 0.00037975 0.02642209 0.01315351
v 0.00081169 0.02642209 0.01308280
v 0.00122016 0.02742891 0.01306159
v 0.00154294 0.02793232 0.01301776
v 0.00160045 0.02843337 0.01303190
v 0.00162921 0.02872036 0.01303897
v 0.00166266 0.02905440 0.01304604
v 0.00169318 0.02944019 0.01305311
v 0.00172780 0.02994124 0.01306018
v 0.00175597 0.03044465 0.01306159
v 0.00037975 0.03044465 0.01319451
v 0.00022247 0.03028704 0.01320300
v 0.00175304 0.03094806 0.01305735
v 0.00171783 0.03144911 0.01305169
v 0.00138565 0.03094806 0.01310260
v 0.00138565 0.03144911 0.01308846
v 0.00164329 0.03222775 0.01304179
v 0.00088270 0.03094806 0.01314785
v 0.00022247 0.02576108 0.01313654
v 0.00037975 0.02591868 0.01312240
v 0.00022247 0.02491422 0.01307997
v 0.00026120 0.02491422 0.01307290
v 0.00072072 0.02591868 0.01306159
v 0.00106287 0.02642209 0.01302341
v 0.00111393 0.02673731 0.01303614
v 0.00116616 0.02707135 0.01304886
v 0.00147192 0.02742891 0.01299937
v 0.00188861 0.02793232 0.01292018
v 0.00188861 0.02843337 0.01295836
v 0.00185339 0.02890620 0.01299230
v 0.00194436 0.02944019 0.01299371
v 0.00197898 0.02994124 0.01300503
v 0.00200715 0.03044465 0.01301634
v 0.00200422 0.03094806 0.01302058
v 0.00022247 0.03044465 0.01320017
v 0.00037975 0.03094806 0.01317613
v 0.00022247 0.03094806 0.01318320
v 0.00196959 0.03144911 0.01301634
v 0.00192323 0.03195252 0.01301351
v 0.00184224 0.03242064 0.01301068
v 0.00154704 0.03256414 0.01303614
v 0.00088270 0.03144911 0.01312664
v 0.00022247 0.02472603 0.01306300
v 0.00097249 0.02591868 0.01300079
v 0.00065793 0.02560817 0.01304604
v 0.00022247 0.02458018 0.01304886
v 0.00138565 0.02642209 0.01292867
v 0.00135455 0.02691374 0.01298523
v 0.00239156 0.02843337 0.01279292
v 0.00188861 0.02742891 0.01286928
v 0.00239156 0.02893678 0.01282827
v 0.00239156 0.02944019 0.01286079
v 0.00239156 0.02994124 0.01289190
v 0.00239156 0.03044465 0.01291736
v 0.00239156 0.03094806 0.01293008
v 0.00239156 0.03144911 0.01293150
v 0.00239156 0.03195252 0.01293008
v 0.00239156 0.03245593 0.01292301
v 0.00088270 0.03195252 0.01310260
v 0.00037975 0.03195252 0.01312805
v 0.00022247 0.03144911 0.01315916
v 0.00239156 0.03295934 0.01289897
v 0.00188861 0.03295934 0.01297533
v 0.00138213 0.03294287 0.01302200
v 0.00121194 0.03276409 0.01304462
v 0.00022247 0.02450020 0.01304038
v 0.00051238 0.02491422 0.01301068
v 0.00036156 0.02438494 0.01299089
v 0.00084808 0.02542939 0.01297675
v 0.00138565 0.02591868 0.01287069
v 0.00188861 0.02692550 0.01281271
v 0.00239156 0.02793232 0.01274060
v 0.00302890 0.02793232 0.01249313
v 0.00289451 0.02994124 0.01270949
v 0.00289451 0.03044465 0.01274484
v 0.00289451 0.03094806 0.01276888
v 0.00289451 0.03144911 0.01278302
v 0.00289451 0.03195252 0.01279574
v 0.00289451 0.03245593 0.01279574
v 0.00289451 0.03295934 0.01278302
v 0.00289451 0.03346275 0.01276322
v 0.00088270 0.03245593 0.01307715
v 0.00022247 0.03179491 0.01314219
v 0.00085805 0.03294287 0.01305169
v 0.00067436 0.03324162 0.01304321
v 0.00289451 0.03396380 0.01273777
v 0.00289451 0.03446721 0.01270949
v 0.00239156 0.03346275 0.01286786
v 0.00239156 0.03396380 0.01283251
v 0.00239156 0.03446721 0.01279292
v 0.00188861 0.03346275 0.01293432
v 0.00138565 0.03346275 0.01297816
v 0.00022247 0.02428143 0.01301634
v 0.00022247 0.02417558 0.01300361
v 0.00037975 0.02390741 0.01292018
v 0.00088270 0.02491422 0.01289614
v 0.00088270 0.02441081 0.01282120
v 0.00138565 0.02541763 0.01279574
v 0.00188861 0.02642209 0.01274767
v 0.00339688 0.02793232 0.01234324
v 0.00321612 0.02994124 0.01257232
v 0.00325192 0.03044465 0.01259212
v 0.00330650 0.03144911 0.01261757
v 0.00333291 0.03195252 0.01262606
v 0.00335462 0.03245593 0.01262888
v 0.00336342 0.03295934 0.01262606
v 0.00336225 0.03346275 0.01261899
v 0.00335110 0.03396380 0.01260909
v 0.00332762 0.03446721 0.01259777
v 0.00037975 0.03245593 0.01309836
v 0.00022247 0.03229832 0.01311108
v 0.00052823 0.03324162 0.01304321
v 0.00022247 0.03245593 0.01310118
v 0.00085805 0.03342981 0.01301493
v 0.00088270 0.03396380 0.01296402
v 0.00088270 0.03446721 0.01291736
v 0.00037975 0.03446721 0.01293574
v 0.00022247 0.03430960 0.01295129
v 0.00327304 0.03497062 0.01257798
v 0.00289451 0.03497062 0.01266424
v 0.00188861 0.03446721 0.01284524
v 0.00188861 0.03396380 0.01289190
v 0.00239156 0.03497062 0.01273918
v 0.00138565 0.03446721 0.01288766
v 0.00022247 0.02390741 0.01296685
v 0.00022247 0.02374274 0.01294281
v 0.00022247 0.02324639 0.01285938
v 0.00037975 0.02340400 0.01283392
v 0.00088270 0.02390741 0.01273494
v 0.00237102 0.02588810 0.01247334
v 0.00289451 0.02591868 0.01222022
v 0.00315039 0.02565757 0.01203922
v 0.00375369 0.02793232 0.01213679
v 0.00422143 0.02994124 0.01209719
v 0.00389983 0.03044465 0.01229375
v 0.00466159 0.03263706 0.01204063
v 0.00360639 0.03245593 0.01251717
v 0.00361519 0.03295934 0.01252283
v 0.00361343 0.03346275 0.01252283
v 0.00360287 0.03396380 0.01252000
v 0.00357939 0.03446721 0.01251293
v 0.00352481 0.03497062 0.01249879
v 0.00022247 0.03379914 0.01299513
v 0.00022247 0.03344393 0.01302482
v 0.00022247 0.03299933 0.01306018
v 0.00022247 0.03283702 0.01307290
v 0.00088270 0.03497062 0.01285938
v 0.00037975 0.03497062 0.01287776
v 0.00022247 0.03481301 0.01289614
v 0.00022247 0.03446721 0.01293574
v 0.00338162 0.03550461 0.01248748
v 0.00339688 0.03597743 0.01243233
v 0.00320379 0.03535876 0.01255394
v 0.00312339 0.03569515 0.01253414
v 0.00293148 0.03550461 0.01259070
v 0.00188861 0.03497062 0.01278867
v 0.00278829 0.03589040 0.01256101
v 0.00263922 0.03622443 0.01253697
v 0.00239156 0.03547403 0.01266989
v 0.00138565 0.03497062 0.01282968
v 0.00022247 0.02274533 0.01276039
v 0.00037975 0.02290294 0.01273211
v 0.00115971 0.02360395 0.01255252
v 0.00239156 0.02541763 0.01236162
v 0.00322492 0.02545997 0.01176347
v 0.00456945 0.02638916 0.00977245
v 0.00399373 0.02793232 0.01178327
v 0.00370264 0.02760534 0.01208588
v 0.00287690 0.02545997 0.01213113
v 0.00215094 0.02363453 0.01204063
v 0.00237219 0.02344634 0.01177196
v 0.00266622 0.02359219 0.01156409
v 0.00467568 0.03010826 0.01157116
v 0.00449257 0.02994124 0.01175640
v 0.00463283 0.03230067 0.01202366
v 0.00481477 0.03246299 0.01182710
v 0.00516630 0.03466481 0.01154288
v 0.00466159 0.03272175 0.01204063
v 0.00389983 0.03497062 0.01231920
v 0.00389983 0.03547403 0.01229092
v 0.00389983 0.03597743 0.01225415
v 0.00138565 0.03547403 0.01275615
v 0.00088270 0.03547403 0.01278443
v 0.00022247 0.03497062 0.01287493
v 0.00037975 0.03547403 0.01280282
v 0.00022247 0.03531642 0.01282403
v 0.00389983 0.03647849 0.01219335
v 0.00339688 0.03647849 0.01236445
v 0.00289451 0.03647849 0.01246061
v 0.00293148 0.03602448 0.01252000
v 0.00188861 0.03547403 0.01271797
v 0.00230353 0.03633970 0.01255394
v 0.00243909 0.03649731 0.01251576
v 0.00188861 0.03597743 0.01264585
v 0.00022247 0.02225604 0.01265151
v 0.00064913 0.02261125 0.01254828
v 0.00464633 0.02619862 0.00938358
v 0.00468917 0.02653501 0.00960559
v 0.00520973 0.02843337 0.00964095
v 0.00508473 0.02843337 0.00989265
v 0.00372083 0.02403443 0.00963246
v 0.00022247 0.02169853 0.01251152
v 0.00022247 0.02154327 0.01245495
v 0.00022247 0.02134567 0.01238284
v 0.00022247 0.02088460 0.01220325
v 0.00022247 0.02079757 0.01216790
v 0.00022247 0.02065172 0.01210568
v 0.00022247 0.02056939 0.01206750
v 0.00225775 0.02305114 0.01164327
v 0.00259344 0.02325815 0.01143116
v 0.00022247 0.02027534 0.01191336
v 0.00022247 0.02016007 0.01184973
v 0.00022247 0.01977899 0.01163479
v 0.00567395 0.03066342 0.00954762
v 0.00569449 0.03094806 0.00958721
v 0.00508062 0.03245593 0.01127986
v 0.00528133 0.03448368 0.01131380
v 0.00527722 0.03498003 0.01132369
v 0.00516630 0.03481771 0.01154288
v 0.00422613 0.03597743 0.01208729
v 0.00418740 0.03647849 0.01205901
v 0.00184811 0.03649731 0.01256667
v 0.00088270 0.03597743 0.01270807
v 0.00037975 0.03597743 0.01272221
v 0.00022247 0.03581982 0.01274060
v 0.00415629 0.03674666 0.01203780
v 0.00391156 0.03694191 0.01210709
v 0.00339688 0.03698190 0.01227537
v 0.00289451 0.03698190 0.01237294
v 0.00198896 0.03667609 0.01252848
v 0.00239156 0.03698190 0.01243516
v 0.00022247 0.02195023 0.01257939
v 0.00443271 0.02491422 0.00725682
v 0.00518508 0.02712545 0.00756226
v 0.00516865 0.02816520 0.00954479
v 0.00375546 0.02388388 0.00921955
v 0.00527370 0.02843337 0.00926763
v 0.00218087 0.02155268 0.01058413
v 0.00209460 0.02121864 0.01041444
v 0.00215798 0.02111984 0.01007931
v 0.00313396 0.02217371 0.00844605
v 0.00022247 0.01961668 0.01152732
v 0.00022247 0.01935556 0.01132087
v 0.00574144 0.02939784 0.00728793
v 0.00570153 0.03060932 0.00926763
v 0.00576316 0.03094806 0.00926763
v 0.00595448 0.03346275 0.00926763
v 0.00548028 0.03446721 0.01077645
v 0.00562348 0.03698190 0.01043566
v 0.00514635 0.03515175 0.01152025
v 0.00165327 0.03673725 0.01253838
v 0.00088270 0.03647849 0.01262606
v 0.00088270 0.03684546 0.01256101
v 0.00037975 0.03647849 0.01263171
v 0.00022247 0.03632323 0.01264444
v 0.00466159 0.03725713 0.01153863
v 0.00442039 0.03745002 0.01167438
v 0.00408704 0.03708305 0.01200528
v 0.00373374 0.03748530 0.01207033
v 0.00365921 0.03775112 0.01203922
v 0.00339688 0.03748530 0.01216224
v 0.00289451 0.03748530 0.01225698
v 0.00239156 0.03748530 0.01232344
v 0.00184811 0.03693485 0.01249030
v 0.00138565 0.03703365 0.01250445
v 0.00188861 0.03748530 0.01236869
v 0.00443271 0.02491422 0.00474259
v 0.00520621 0.02708781 0.00725682
v 0.00315860 0.02212666 0.00811092
v 0.00402014 0.02390741 0.00625000
v 0.00402072 0.02390741 0.00574941
v 0.00529894 0.02742891 0.00725682
v 0.00022247 0.01930616 0.01127986
v 0.00022247 0.01919325 0.01118511
v 0.00022247 0.01907328 0.01107765
v 0.00022247 0.01883098 0.01081746
v 0.00022247 0.01879570 0.01077645
v 0.00022247 0.01873218 0.01070009
v 0.00022247 0.01861692 0.01055302
v 0.00022247 0.01840285 0.01022779
v 0.00022247 0.01822642 0.00991952
v 0.00022247 0.01816291 0.00977104
v 0.00022247 0.01812527 0.00968195
v 0.00182229 0.01989896 0.00826222
v 0.00574203 0.02939784 0.00471148
v 0.00617103 0.03212189 0.00703622
v 0.00617690 0.03518468 0.00811233
v 0.00614697 0.03547403 0.00839373
v 0.00571034 0.03698190 0.01018395
v 0.00537230 0.03698190 0.01075099
v 0.00568158 0.03727124 0.01009911
v 0.00550258 0.03745708 0.01027021
v 0.00527429 0.03748530 0.01065201
v 0.00472849 0.03798871 0.01112572
v 0.00479246 0.03745002 0.01129541
v 0.00088270 0.03709716 0.01251152
v 0.00037975 0.03681958 0.01255959
v 0.00022247 0.03678430 0.01255252
v 0.00459938 0.03759116 0.01147359
v 0.00398551 0.03748530 0.01195579
v 0.00425899 0.03798871 0.01161782
v 0.00385581 0.03794637 0.01187094
v 0.00388574 0.03846860 0.01163479
v 0.00339688 0.03849212 0.01182710
v 0.00339688 0.03810163 0.01198831
v 0.00308290 0.03820984 0.01202649
v 0.00339688 0.03785228 0.01206608
v 0.00290683 0.03802165 0.01210426
v 0.00239156 0.03798871 0.01217921
v 0.00188861 0.03798871 0.01222870
v 0.00138565 0.03748530 0.01240970
v 0.00464633 0.02619862 0.00261583
v 0.00518508 0.02712545 0.00443715
v 0.00520621 0.02708781 0.00474259
v 0.00315860 0.02212901 0.00388991
v 0.00313572 0.02217371 0.00355477
v 0.00375546 0.02388388 0.00277844
v 0.00172135 0.01953905 0.00625000
v 0.00192206 0.01988485 0.00625000
v 0.00316799 0.02208432 0.00609021
v 0.00378245 0.02338283 0.00621889
v 0.00378245 0.02338283 0.00578052
v 0.00529894 0.02742891 0.00474259
v 0.00022247 0.01795590 0.00925915
v 0.00022247 0.01778653 0.00874867
v 0.00022247 0.01767361 0.00826222
v 0.00022247 0.01757482 0.00775881
v 0.00022247 0.01750660 0.00725682
v 0.00527370 0.02843337 0.00273037
v 0.00567395 0.03066577 0.00245179
v 0.00570153 0.03061167 0.00273037
v 0.00576257 0.03094806 0.00273037
v 0.00617045 0.03212425 0.00496319
v 0.00617103 0.03212189 0.00694431
v 0.00620859 0.03347216 0.00624010
v 0.00621740 0.03397792 0.00627686
v 0.00617984 0.03547403 0.00814203
v 0.00617162 0.03574690 0.00808405
v 0.00569801 0.03849212 0.00859595
v 0.00566691 0.03875559 0.00853090
v 0.00477134 0.03898847 0.01026455
v 0.00469446 0.03881675 0.01059545
v 0.00475960 0.03846154 0.01076796
v 0.00466981 0.03827335 0.01104936
v 0.00451018 0.03798871 0.01137743
v 0.00088270 0.03748530 0.01242101
v 0.00037975 0.03707129 0.01248748
v 0.00022247 0.03689486 0.01252000
v 0.00418153 0.03828746 0.01155419
v 0.00404420 0.03862150 0.01146086
v 0.00370909 0.03879793 0.01156409
v 0.00339688 0.03889673 0.01162065
v 0.00292092 0.03903552 0.01167297
v 0.00290683 0.03846389 0.01195296
v 0.00239156 0.03859563 0.01198265
v 0.00164564 0.03874618 0.01203497
v 0.00274720 0.03827805 0.01204770
v 0.00138565 0.03798871 0.01226971
v 0.00456945 0.02638916 0.00222696
v 0.00468917 0.02653501 0.00239382
v 0.00516865 0.02816520 0.00245462
v 0.00372142 0.02403443 0.00236695
v 0.00316799 0.02208432 0.00590779
v 0.00192206 0.01988485 0.00574941
v 0.00172135 0.01953905 0.00574941
v 0.00182229 0.01989896 0.00373719
v 0.00215798 0.02111984 0.00191869
v 0.00022247 0.01746661 0.00673220
v 0.00022247 0.01743838 0.00625000
v 0.00520973 0.02843337 0.00235705
v 0.00467568 0.03010826 0.00042684
v 0.00569390 0.03094806 0.00241361
v 0.00595448 0.03346275 0.00273037
v 0.00617690 0.03518468 0.00388566
v 0.00617984 0.03547403 0.00385880
v 0.00621622 0.03397556 0.00572255
v 0.00620801 0.03347451 0.00575931
v 0.00618629 0.03647849 0.00589506
v 0.00618629 0.03647849 0.00610293
v 0.00616869 0.03674195 0.00602233
v 0.00573146 0.03849212 0.00826222
v 0.00474904 0.03938838 0.00977104
v 0.00468800 0.03929899 0.01008921
v 0.00566397 0.03925194 0.00601526
v 0.00467509 0.04027522 0.00763013
v 0.00464516 0.04024229 0.00796527
v 0.00461581 0.04020700 0.00826222
v 0.00474786 0.03987767 0.00876563
v 0.00469622 0.03980475 0.00912764
v 0.00463342 0.03972006 0.00946277
v 0.00459527 0.03915314 0.01042434
v 0.00442215 0.03901670 0.01079907
v 0.00458412 0.03860974 0.01093058
v 0.00438282 0.03844743 0.01125440
v 0.00161864 0.03874618 0.01203497
v 0.00088270 0.03798871 0.01225981
v 0.00037975 0.03748530 0.01234890
v 0.00022247 0.03730653 0.01236869
v 0.00424843 0.03888262 0.01112431
v 0.00412401 0.03921665 0.01100411
v 0.00391626 0.03900729 0.01128976
v 0.00378891 0.03936015 0.01112007
v 0.00339688 0.03914843 0.01146652
v 0.00310578 0.03923077 0.01152166
v 0.00277068 0.03929428 0.01156126
v 0.00239156 0.03899553 0.01179599
v 0.00184342 0.03894613 0.01190629
v 0.00188861 0.03942131 0.01164045
v 0.00322433 0.02546232 0.00023594
v 0.00314980 0.02565992 -0.00003981
v 0.00399373 0.02793232 0.00021614
v 0.00508473 0.02843337 0.00210676
v 0.00266680 0.02359219 0.00043391
v 0.00209519 0.02121629 0.00158355
v 0.00218146 0.02155268 0.00141386
v 0.00259403 0.02325580 0.00056825
v 0.00022247 0.01744308 0.00574093
v 0.00022247 0.01747366 0.00524600
v 0.00022247 0.01751130 0.00474259
v 0.00022247 0.01751836 0.00468462
v 0.00022247 0.01757952 0.00423918
v 0.00022247 0.01767832 0.00373719
v 0.00022247 0.01778418 0.00329458
v 0.00022247 0.01780535 0.00322246
v 0.00022247 0.01796766 0.00272754
v 0.00022247 0.01816997 0.00222837
v 0.00022247 0.01840991 0.00177162
v 0.00375369 0.02793232 -0.00013738
v 0.00449316 0.02994124 0.00024160
v 0.00422202 0.02994124 -0.00009920
v 0.00463225 0.03230067 -0.00002425
v 0.00481477 0.03246299 0.00017231
v 0.00508121 0.03245593 0.00071955
v 0.00528133 0.03448368 0.00068561
v 0.00548087 0.03446721 0.00122155
v 0.00570975 0.03698190 0.00181546
v 0.00614697 0.03547403 0.00360709
v 0.00617103 0.03574690 0.00391677
v 0.00616869 0.03674195 0.00597567
v 0.00457180 0.03964008 0.00977104
v 0.00422965 0.03982592 0.01014011
v 0.00441276 0.03950364 0.01028294
v 0.00566397 0.03925194 0.00598415
v 0.00472673 0.04033403 0.00625000
v 0.00471382 0.04031991 0.00675341
v 0.00469622 0.04029874 0.00725682
v 0.00442449 0.04055045 0.00725682
v 0.00415336 0.04075746 0.00751842
v 0.00436405 0.04044459 0.00826222
v 0.00429303 0.04037873 0.00876563
v 0.00454480 0.04012937 0.00876563
v 0.00442391 0.04002352 0.00931429
v 0.00432003 0.03992707 0.00977104
v 0.00426017 0.03937426 0.01066898
v 0.00142497 0.03894613 0.01191478
v 0.00128295 0.03872030 0.01202507
v 0.00088270 0.03838862 0.01209861
v 0.00038679 0.03799577 0.01214244
v 0.00022247 0.03791814 0.01211416
v 0.00411052 0.03971065 0.01047525
v 0.00394971 0.03953422 0.01082311
v 0.00354477 0.03969418 0.01097583
v 0.00338514 0.03951540 0.01119501
v 0.00320966 0.03977887 0.01105643
v 0.00292092 0.03947541 0.01138874
v 0.00239156 0.03961420 0.01143823
v 0.00239156 0.03936250 0.01159661
v 0.00188861 0.03967066 0.01147924
v 0.00138565 0.03939308 0.01164045
v 0.00287690 0.02546232 -0.00013172
v 0.00239156 0.02541763 -0.00036222
v 0.00289451 0.02591868 -0.00022222
v 0.00339688 0.02793232 -0.00034383
v 0.00370264 0.02760534 -0.00008647
v 0.00237219 0.02344634 0.00022745
v 0.00215094 0.02363453 -0.00004263
v 0.00115971 0.02360395 -0.00055311
v 0.00225834 0.02305114 0.00035472
v 0.00022247 0.01875571 0.00129367
v 0.00022247 0.01883804 0.00119327
v 0.00022247 0.01895095 0.00107024
v 0.00022247 0.01921442 0.00080864
v 0.00022247 0.01936262 0.00068420
v 0.00022247 0.01947318 0.00059936
v 0.00022247 0.01979781 0.00035755
v 0.00389983 0.03044465 -0.00029434
v 0.00466159 0.03263706 -0.00004122
v 0.00516689 0.03466246 0.00045653
v 0.00527781 0.03498003 0.00067572
v 0.00562348 0.03698190 0.00156375
v 0.00568158 0.03727124 0.00190030
v 0.00569801 0.03849212 0.00340488
v 0.00566632 0.03875559 0.00346851
v 0.00573146 0.03849212 0.00373719
v 0.00414221 0.04024464 0.00949954
v 0.00405711 0.04017877 0.00977104
v 0.00369912 0.04028463 0.01007789
v 0.00390452 0.04000235 0.01027728
v 0.00467568 0.04027522 0.00436504
v 0.00469739 0.04029874 0.00474259
v 0.00471382 0.04031991 0.00524600
v 0.00472673 0.04033403 0.00574941
v 0.00446499 0.04058573 0.00625000
v 0.00445032 0.04057162 0.00675341
v 0.00417272 0.04077157 0.00725682
v 0.00389983 0.04092212 0.00725682
v 0.00392682 0.04085390 0.00771498
v 0.00411228 0.04072923 0.00785356
v 0.00405476 0.04069630 0.00826222
v 0.00421498 0.04030580 0.00916440
v 0.00389631 0.04065160 0.00880240
v 0.00088270 0.03863797 0.01197841
v 0.00055992 0.03829217 0.01206184
v 0.00022423 0.03816985 0.01198831
v 0.00022247 0.03816514 0.01198972
v 0.00377482 0.03984474 0.01064070
v 0.00335521 0.03997882 0.01075806
v 0.00289451 0.03983297 0.01111017
v 0.00316682 0.04026111 0.01053888
v 0.00239156 0.04018113 0.01095462
v 0.00239156 0.03992942 0.01118653
v 0.00138565 0.03964478 0.01143116
v 0.00188861 0.03996941 0.01122754
v 0.00101357 0.03931780 0.01158954
v 0.00237102 0.02588810 -0.00047393
v 0.00188861 0.02642209 -0.00074967
v 0.00302890 0.02793232 -0.00049372
v 0.00289451 0.02994124 -0.00071008
v 0.00321553 0.02994124 -0.00057150
v 0.00325074 0.03044465 -0.00059271
v 0.00022247 0.02025182 0.00007191
v 0.00022247 0.02049176 -0.00004970
v 0.00022247 0.02060938 -0.00010768
v 0.00022247 0.02088931 -0.00021939
v 0.00022247 0.02134097 -0.00038767
v 0.00022247 0.02154327 -0.00045837
v 0.00022247 0.02194082 -0.00058140
v 0.00065089 0.02260889 -0.00055029
v 0.00089385 0.02342282 -0.00062948
v 0.00088270 0.02390741 -0.00073694
v 0.00022247 0.01993425 0.00026988
v 0.00330532 0.03144911 -0.00061816
v 0.00333232 0.03195252 -0.00062665
v 0.00360580 0.03245593 -0.00051776
v 0.00361108 0.03295934 -0.00052201
v 0.00466159 0.03272175 -0.00004122
v 0.00516689 0.03482007 0.00045653
v 0.00537230 0.03698190 0.00124842
v 0.00479129 0.03744532 0.00070400
v 0.00472849 0.03798871 0.00087369
v 0.00527429 0.03748530 0.00134740
v 0.00550200 0.03745708 0.00172920
v 0.00514635 0.03515645 0.00047916
v 0.00469093 0.03881204 0.00140821
v 0.00476899 0.03898612 0.00173486
v 0.00468859 0.03929899 0.00190879
v 0.00474845 0.03939543 0.00222837
v 0.00463870 0.03972712 0.00252250
v 0.00469798 0.03980710 0.00285763
v 0.00474962 0.03988002 0.00323378
v 0.00461640 0.04020700 0.00373719
v 0.00464575 0.04024229 0.00402990
v 0.00394502 0.04044694 0.00930722
v 0.00380534 0.04035991 0.00977104
v 0.00337164 0.04060220 0.00974417
v 0.00335932 0.04034109 0.01025748
v 0.00350134 0.04017877 0.01041303
v 0.00436522 0.04044459 0.00373719
v 0.00439984 0.04050340 0.00425332
v 0.00415394 0.04075746 0.00447675
v 0.00442449 0.04055045 0.00474259
v 0.00444973 0.04057162 0.00524600
v 0.00446499 0.04058573 0.00574941
v 0.00421322 0.04079980 0.00625000
v 0.00419855 0.04079039 0.00675341
v 0.00389983 0.04095976 0.00675341
v 0.00342328 0.04117618 0.00675341
v 0.00334816 0.04117148 0.00721439
v 0.00339688 0.04110326 0.00775881
v 0.00380299 0.04083744 0.00826222
v 0.00372611 0.04079510 0.00865958
v 0.00363515 0.04074805 0.00899613
v 0.00086040 0.03902611 0.01172246
v 0.00047717 0.03888026 0.01163338
v 0.00022247 0.03876500 0.01154570
v 0.00289451 0.04051046 0.01027445
v 0.00243147 0.04066101 0.01026879
v 0.00289451 0.04030815 0.01059403
v 0.00239156 0.04038813 0.01070292
v 0.00188861 0.04021876 0.01098573
v 0.00138565 0.03988943 0.01117946
v 0.00067847 0.03921665 0.01149904
v 0.00104409 0.03980239 0.01109461
v 0.00138565 0.02491422 -0.00070866
v 0.00138565 0.02541763 -0.00079775
v 0.00138565 0.02591868 -0.00087128
v 0.00188861 0.02692550 -0.00081330
v 0.00239156 0.02793232 -0.00074119
v 0.00239156 0.02843337 -0.00079351
v 0.00289451 0.03044465 -0.00074543
v 0.00022247 0.02241600 -0.00068887
v 0.00037975 0.02290294 -0.00073694
v 0.00038621 0.02242541 -0.00062382
v 0.00037975 0.02340400 -0.00083734
v 0.00088270 0.02441081 -0.00082462
v 0.00289451 0.03094806 -0.00076947
v 0.00335462 0.03245593 -0.00063089
v 0.00335932 0.03295934 -0.00062948
v 0.00361050 0.03346275 -0.00052201
v 0.00360522 0.03396380 -0.00052201
v 0.00358350 0.03446721 -0.00051493
v 0.00389983 0.03497062 -0.00032121
v 0.00422672 0.03597743 -0.00008788
v 0.00465924 0.03725007 0.00046219
v 0.00459703 0.03758410 0.00052724
v 0.00450783 0.03798871 0.00062340
v 0.00466922 0.03827335 0.00095005
v 0.00475725 0.03846154 0.00123286
v 0.00418798 0.03647849 -0.00005960
v 0.00443975 0.03647849 0.00014120
v 0.00468624 0.03698190 0.00043391
v 0.00458354 0.03860739 0.00107307
v 0.00442215 0.03901435 0.00120175
v 0.00459586 0.03914843 0.00157365
v 0.00441334 0.03950599 0.00171365
v 0.00423082 0.03983062 0.00185505
v 0.00457649 0.03964714 0.00222837
v 0.00432531 0.03993177 0.00222837
v 0.00442860 0.04002822 0.00267380
v 0.00454774 0.04013173 0.00323378
v 0.00429597 0.04038108 0.00323378
v 0.00354418 0.04070806 0.00926763
v 0.00318736 0.04077392 0.00955752
v 0.00289451 0.04070335 0.00991810
v 0.00405359 0.04069630 0.00373719
v 0.00411345 0.04073158 0.00414161
v 0.00392741 0.04085626 0.00428161
v 0.00389983 0.04092448 0.00474259
v 0.00417331 0.04077157 0.00474259
v 0.00419796 0.04079039 0.00524600
v 0.00421322 0.04079980 0.00574941
v 0.00389983 0.04098093 0.00625000
v 0.00346495 0.04118794 0.00625000
v 0.00289451 0.04137613 0.00675341
v 0.00292914 0.04133379 0.00721439
v 0.00307996 0.04123264 0.00775881
v 0.00339688 0.04102563 0.00826222
v 0.00343913 0.04087978 0.00880240
v 0.00329241 0.04081626 0.00926763
v 0.00022247 0.03887320 0.01143823
v 0.00262572 0.04075040 0.01001285
v 0.00229062 0.04079274 0.01009628
v 0.00188861 0.04039754 0.01073402
v 0.00148307 0.04032933 0.01064494
v 0.00134340 0.04015995 0.01079907
v 0.00049830 0.03936015 0.01116390
v 0.00031989 0.03904728 0.01134066
v 0.00070899 0.03969418 0.01093624
v 0.00114797 0.04024464 0.01050919
v 0.00088270 0.02491422 -0.00089956
v 0.00097249 0.02591868 -0.00100279
v 0.00138565 0.02642209 -0.00092926
v 0.00188861 0.02742891 -0.00086845
v 0.00188861 0.02793232 -0.00092077
v 0.00188861 0.02843337 -0.00096178
v 0.00239156 0.02893678 -0.00082886
v 0.00239156 0.02944019 -0.00085997
v 0.00239156 0.02994124 -0.00088966
v 0.00239156 0.03044465 -0.00091653
v 0.00022247 0.02290294 -0.00079492
v 0.00022247 0.02339459 -0.00088684
v 0.00037975 0.02390741 -0.00092219
v 0.00239156 0.03094806 -0.00093067
v 0.00289451 0.03144911 -0.00078219
v 0.00289451 0.03195252 -0.00079351
v 0.00289451 0.03245593 -0.00079634
v 0.00335873 0.03346275 -0.00062382
v 0.00335345 0.03396380 -0.00061251
v 0.00333232 0.03446721 -0.00059978
v 0.00352481 0.03497062 -0.00050079
v 0.00389983 0.03597743 -0.00025474
v 0.00389983 0.03547403 -0.00029151
v 0.00441862 0.03744532 0.00032644
v 0.00435524 0.03694191 0.00015675
v 0.00425665 0.03798871 0.00038300
v 0.00418094 0.03828511 0.00044381
v 0.00438224 0.03844743 0.00074501
v 0.00424843 0.03888262 0.00087510
v 0.00389983 0.03647849 -0.00019253
v 0.00415629 0.03674901 -0.00003839
v 0.00412343 0.03921665 0.00099530
v 0.00426076 0.03937897 0.00133043
v 0.00411345 0.03971300 0.00151992
v 0.00390687 0.04000470 0.00172072
v 0.00406122 0.04018348 0.00222837
v 0.00414690 0.04024934 0.00248856
v 0.00421850 0.04031051 0.00282369
v 0.00389455 0.04065160 0.00320549
v 0.00289451 0.04097152 0.00926763
v 0.00289451 0.04082568 0.00966640
v 0.00372376 0.04079274 0.00335256
v 0.00380241 0.04083744 0.00373719
v 0.00339688 0.04110796 0.00423918
v 0.00335579 0.04117383 0.00474966
v 0.00344324 0.04117618 0.00524600
v 0.00389983 0.04095976 0.00524600
v 0.00389983 0.04098093 0.00574941
v 0.00347552 0.04118794 0.00574941
v 0.00322433 0.04128909 0.00574941
v 0.00321377 0.04128204 0.00625000
v 0.00289451 0.04139965 0.00625000
v 0.00239156 0.04145376 0.00675341
v 0.00239156 0.04142788 0.00725682
v 0.00282878 0.04132673 0.00775881
v 0.00297902 0.04119500 0.00826222
v 0.00264978 0.04126086 0.00852524
v 0.00284815 0.04113384 0.00872180
v 0.00022247 0.03915314 0.01111441
v 0.00243147 0.04088449 0.00981629
v 0.00239156 0.04109149 0.00926763
v 0.00202183 0.04079274 0.01009628
v 0.00186807 0.04066101 0.01026879
v 0.00168613 0.04073864 0.00996901
v 0.00134340 0.04042813 0.01031404
v 0.00022247 0.03924018 0.01100977
v 0.00058163 0.03978828 0.01060110
v 0.00037212 0.03950364 0.01078917
v 0.00022247 0.03929663 0.01092351
v 0.00087918 0.04013643 0.01031404
v 0.00104409 0.04031521 0.01017405
v 0.00036156 0.02438258 -0.00099148
v 0.00051297 0.02491422 -0.00101269
v 0.00022247 0.02472603 -0.00106501
v 0.00065793 0.02560582 -0.00104804
v 0.00072131 0.02591868 -0.00106218
v 0.00106346 0.02642209 -0.00102400
v 0.00135455 0.02691139 -0.00098724
v 0.00147310 0.02742891 -0.00099996
v 0.00160749 0.02843337 -0.00103531
v 0.00163449 0.02869684 -0.00104097
v 0.00185398 0.02889208 -0.00099289
v 0.00154646 0.02793232 -0.00101976
v 0.00166383 0.02903088 -0.00104804
v 0.00199307 0.03044465 -0.00101410
v 0.00022247 0.02390741 -0.00096744
v 0.00199953 0.03094806 -0.00101976
v 0.00239156 0.03144911 -0.00093209
v 0.00289451 0.03295934 -0.00078926
v 0.00239156 0.03195252 -0.00092926
v 0.00289451 0.03446721 -0.00071008
v 0.00327363 0.03497062 -0.00057715
v 0.00289451 0.03346275 -0.00076947
v 0.00289451 0.03396380 -0.00074119
v 0.00339688 0.03597743 -0.00043009
v 0.00408352 0.03708305 -0.00000587
v 0.00398082 0.03748530 0.00004504
v 0.00385405 0.03794402 0.00012988
v 0.00388574 0.03846860 0.00036462
v 0.00404420 0.03862150 0.00053997
v 0.00339688 0.03647849 -0.00036363
v 0.00390922 0.03694191 -0.00010627
v 0.00378832 0.03936015 0.00087793
v 0.00395088 0.03953658 0.00117630
v 0.00391626 0.03900729 0.00070824
v 0.00377776 0.03984238 0.00135871
v 0.00370029 0.04028463 0.00192293
v 0.00380945 0.04035991 0.00222837
v 0.00394736 0.04044694 0.00268653
v 0.00353890 0.04070335 0.00273037
v 0.00362752 0.04074570 0.00301742
v 0.00343502 0.04088213 0.00320549
v 0.00339688 0.04102563 0.00373719
v 0.00308407 0.04123499 0.00423918
v 0.00312515 0.04125145 0.00458704
v 0.00316154 0.04126322 0.00492218
v 0.00319206 0.04127498 0.00524600
v 0.00289451 0.04138554 0.00524600
v 0.00289451 0.04140671 0.00574941
v 0.00239156 0.04146787 0.00625000
v 0.00198192 0.04133614 0.00725682
v 0.00201420 0.04131732 0.00775881
v 0.00207523 0.04128674 0.00826222
v 0.00239156 0.04138554 0.00775881
v 0.00272784 0.04128909 0.00826222
v 0.00239156 0.04131732 0.00826222
v 0.00239156 0.04126557 0.00854787
v 0.00239156 0.04120911 0.00879816
v 0.00212453 0.04126557 0.00854787
v 0.00186807 0.04085861 0.00978942
v 0.00188861 0.04101622 0.00926763
v 0.00139622 0.04064690 0.00978942
v 0.00157111 0.04079039 0.00963388
v 0.00049889 0.03986120 0.01027445
v 0.00024770 0.03964243 0.01027445
v 0.00022247 0.03959538 0.01032536
v 0.00022247 0.03940719 0.01071706
v 0.00095195 0.04038108 0.00977104
v 0.00070018 0.04019994 0.00977104
v 0.00022247 0.02428143 -0.00101693
v 0.00022247 0.02450020 -0.00104097
v 0.00022247 0.02491422 -0.00108056
v 0.00026120 0.02491422 -0.00107349
v 0.00040322 0.02542939 -0.00108622
v 0.00081169 0.02642209 -0.00108339
v 0.00111452 0.02673496 -0.00103673
v 0.00122192 0.02742891 -0.00106360
v 0.00129528 0.02793232 -0.00107915
v 0.00135572 0.02843337 -0.00108481
v 0.00088270 0.02793232 -0.00115127
v 0.00138565 0.02944019 -0.00110319
v 0.00168496 0.02944019 -0.00105228
v 0.00174130 0.03044465 -0.00105935
v 0.00174776 0.03094806 -0.00105794
v 0.00196079 0.03144911 -0.00101834
v 0.00239156 0.03245593 -0.00092219
v 0.00239156 0.03446721 -0.00079209
v 0.00289451 0.03497062 -0.00066341
v 0.00239156 0.03295934 -0.00089956
v 0.00239156 0.03346275 -0.00086704
v 0.00239156 0.03396380 -0.00083169
v 0.00320027 0.03533524 -0.00055311
v 0.00310872 0.03567163 -0.00053190
v 0.00372905 0.03748530 -0.00006667
v 0.00365569 0.03774642 -0.00003839
v 0.00339688 0.03849212 0.00017231
v 0.00370909 0.03879793 0.00043532
v 0.00289451 0.03698190 -0.00037211
v 0.00339688 0.03698190 -0.00027313
v 0.00299252 0.03597743 -0.00051493
v 0.00284463 0.03642909 -0.00047675
v 0.00339688 0.03914608 0.00053431
v 0.00338220 0.03951540 0.00080722
v 0.00354007 0.03969418 0.00102358
v 0.00316330 0.04026111 0.00146194
v 0.00349782 0.04017642 0.00158779
v 0.00335697 0.04034109 0.00174334
v 0.00337223 0.04060220 0.00225382
v 0.00318853 0.04077392 0.00243907
v 0.00328772 0.04081862 0.00273037
v 0.00289451 0.04097623 0.00273037
v 0.00284756 0.04113619 0.00327903
v 0.00297785 0.04119500 0.00373719
v 0.00283289 0.04132673 0.00423918
v 0.00293207 0.04133379 0.00474966
v 0.00239156 0.04142788 0.00474259
v 0.00239156 0.04145376 0.00524600
v 0.00239156 0.04146787 0.00574941
v 0.00196255 0.04135025 0.00625000
v 0.00196666 0.04134555 0.00675341
v 0.00173015 0.04120676 0.00725682
v 0.00176243 0.04119265 0.00775881
v 0.00182346 0.04116912 0.00826222
v 0.00192969 0.04114325 0.00873452
v 0.00149364 0.04083509 0.00926763
v 0.00124187 0.04069159 0.00926763
v 0.00022247 0.03976946 0.00984881
v 0.00022247 0.03973417 0.00995346
v 0.00022247 0.03966360 0.01015143
v 0.00022247 0.03961891 0.01027445
v 0.00064560 0.04023993 0.00945146
v 0.00035393 0.03991531 0.00974276
v 0.00022247 0.02542469 -0.00111450
v 0.00037975 0.02591868 -0.00112581
v 0.00037975 0.02642209 -0.00115692
v 0.00088270 0.02742891 -0.00112864
v 0.00092085 0.02691139 -0.00109188
v 0.00037975 0.02692550 -0.00117955
v 0.00037975 0.02742891 -0.00119652
v 0.00037975 0.02793232 -0.00120783
v 0.00088270 0.02843337 -0.00115975
v 0.00138565 0.02994124 -0.00111026
v 0.00138565 0.03044465 -0.00111167
v 0.00138565 0.03094806 -0.00110319
v 0.00191149 0.03195252 -0.00101410
v 0.00183813 0.03240653 -0.00101127
v 0.00188861 0.03446721 -0.00084441
v 0.00239156 0.03497062 -0.00073977
v 0.00188861 0.03295934 -0.00097451
v 0.00188861 0.03396380 -0.00089108
v 0.00264333 0.03622914 -0.00053897
v 0.00339688 0.03784757 -0.00006667
v 0.00339688 0.03809928 0.00001110
v 0.00339688 0.03748530 -0.00016000
v 0.00306236 0.03820984 -0.00002708
v 0.00289451 0.03845684 0.00004645
v 0.00291036 0.03903081 0.00032785
v 0.00339688 0.03889438 0.00037735
v 0.00239156 0.03698190 -0.00043433
v 0.00239156 0.03748530 -0.00032121
v 0.00289451 0.03748530 -0.00025616
v 0.00239156 0.03656318 -0.00051069
v 0.00308877 0.03922371 0.00048199
v 0.00291036 0.03947306 0.00061067
v 0.00320555 0.03977652 0.00094580
v 0.00289451 0.04008938 0.00114943
v 0.00289451 0.04031051 0.00140114
v 0.00289451 0.04051516 0.00172496
v 0.00289451 0.04070806 0.00207424
v 0.00289451 0.04082803 0.00232594
v 0.00239156 0.04109149 0.00273037
v 0.00264861 0.04126086 0.00347700
v 0.00243616 0.04088449 0.00218029
v 0.00272666 0.04128674 0.00373719
v 0.00239156 0.04138554 0.00423918
v 0.00207582 0.04128674 0.00373719
v 0.00201420 0.04131732 0.00423918
v 0.00198133 0.04133614 0.00474259
v 0.00196666 0.04134555 0.00524600
v 0.00196255 0.04135025 0.00574941
v 0.00171078 0.04121382 0.00625000
v 0.00171489 0.04121146 0.00675341
v 0.00138565 0.04097388 0.00725682
v 0.00138565 0.04095741 0.00775881
v 0.00134281 0.04089154 0.00826505
v 0.00142615 0.04088213 0.00876563
v 0.00117497 0.04072923 0.00876563
v 0.00084103 0.04041166 0.00927753
v 0.00022247 0.03982827 0.00963953
v 0.00061157 0.04026816 0.00911632
v 0.00022247 0.03986826 0.00945994
v 0.00022247 0.02591868 -0.00114561
v 0.00022247 0.02642209 -0.00117248
v 0.00022247 0.02692550 -0.00119369
v 0.00022247 0.02742891 -0.00120924
v 0.00022247 0.02793232 -0.00121914
v 0.00037975 0.02843337 -0.00121207
v 0.00088270 0.02994124 -0.00117248
v 0.00088270 0.03044465 -0.00116541
v 0.00163742 0.03220658 -0.00104097
v 0.00155057 0.03254062 -0.00103673
v 0.00138565 0.03446721 -0.00088401
v 0.00138565 0.03497062 -0.00083027
v 0.00188861 0.03497062 -0.00078926
v 0.00239156 0.03547403 -0.00067190
v 0.00138389 0.03294052 -0.00102117
v 0.00138565 0.03346275 -0.00097592
v 0.00138565 0.03396380 -0.00093067
v 0.00239156 0.03597743 -0.00060119
v 0.00239156 0.03631147 -0.00055170
v 0.00239156 0.03798871 -0.00017697
v 0.00165151 0.03874618 -0.00003698
v 0.00198720 0.03868031 -0.00001435
v 0.00239156 0.03899553 0.00020200
v 0.00239156 0.03936250 0.00040280
v 0.00275366 0.03928958 0.00044098
v 0.00202241 0.03667609 -0.00052908
v 0.00186807 0.03694426 -0.00049090
v 0.00188861 0.03748530 -0.00037070
v 0.00188861 0.03798871 -0.00023353
v 0.00239156 0.03961420 0.00055552
v 0.00289451 0.03983768 0.00088783
v 0.00239156 0.04018348 0.00104196
v 0.00239156 0.04039284 0.00129367
v 0.00243616 0.04066571 0.00173062
v 0.00263394 0.04075275 0.00198091
v 0.00229883 0.04079274 0.00190313
v 0.00201889 0.04079274 0.00190313
v 0.00186630 0.04086096 0.00220574
v 0.00188861 0.04101857 0.00273037
v 0.00212512 0.04126322 0.00345437
v 0.00239156 0.04120676 0.00320408
v 0.00239156 0.04126322 0.00345579
v 0.00239156 0.04131497 0.00373719
v 0.00193027 0.04114325 0.00326630
v 0.00182464 0.04116912 0.00373719
v 0.00176243 0.04119265 0.00423918
v 0.00173015 0.04120676 0.00474259
v 0.00171548 0.04121382 0.00524600
v 0.00171137 0.04121382 0.00574941
v 0.00138565 0.04099505 0.00574941
v 0.00138565 0.04099505 0.00625000
v 0.00138565 0.04098564 0.00675341
v 0.00111334 0.04077157 0.00775881
v 0.00112097 0.04076451 0.00809961
v 0.00114621 0.04074570 0.00843474
v 0.00088270 0.04051516 0.00876563
v 0.00058516 0.04028933 0.00876563
v 0.00033397 0.04006821 0.00876563
v 0.00022247 0.03993648 0.00899896
v 0.00022247 0.03989649 0.00927187
v 0.00022247 0.02843337 -0.00122339
v 0.00037975 0.02944019 -0.00120642
v 0.00037975 0.02994124 -0.00120217
v 0.00037975 0.02893678 -0.00121066
v 0.00037975 0.03044465 -0.00119228
v 0.00037975 0.03094806 -0.00117672
v 0.00088270 0.03094806 -0.00114844
v 0.00088270 0.03144911 -0.00112723
v 0.00088270 0.03195252 -0.00110460
v 0.00121546 0.03276174 -0.00104521
v 0.00088270 0.03446721 -0.00091795
v 0.00088270 0.03497062 -0.00086280
v 0.00138565 0.03547403 -0.00076240
v 0.00188861 0.03547403 -0.00072139
v 0.00099421 0.03309813 -0.00103249
v 0.00084866 0.03342276 -0.00101410
v 0.00088270 0.03396380 -0.00096461
v 0.00188861 0.03597743 -0.00064927
v 0.00160749 0.03874618 -0.00003698
v 0.00188861 0.03942131 0.00035755
v 0.00184694 0.03894613 0.00009029
v 0.00138565 0.03798871 -0.00027171
v 0.00186807 0.03649731 -0.00057008
v 0.00168731 0.03675137 -0.00054180
v 0.00138565 0.03705247 -0.00050645
v 0.00138565 0.03748530 -0.00041171
v 0.00188861 0.03967301 0.00052017
v 0.00239156 0.03993177 0.00080722
v 0.00188861 0.03996471 0.00077187
v 0.00188861 0.04021641 0.00101651
v 0.00188861 0.04039990 0.00126680
v 0.00186630 0.04066101 0.00173062
v 0.00168379 0.04073864 0.00202474
v 0.00156817 0.04079274 0.00235988
v 0.00149070 0.04083744 0.00273037
v 0.00142380 0.04088449 0.00323378
v 0.00134105 0.04089154 0.00372729
v 0.00138565 0.04095976 0.00423918
v 0.00138565 0.04097623 0.00474259
v 0.00138565 0.04098799 0.00524600
v 0.00109163 0.04078569 0.00574941
v 0.00109163 0.04078569 0.00625000
v 0.00085688 0.04058573 0.00725682
v 0.00086157 0.04057868 0.00775881
v 0.00054114 0.04032697 0.00775881
v 0.00055875 0.04031286 0.00826222
v 0.00030698 0.04009174 0.00826222
v 0.00022247 0.03996706 0.00876563
v 0.00022247 0.02893678 -0.00121914
v 0.00022247 0.02994124 -0.00120642
v 0.00022247 0.03009885 -0.00120359
v 0.00022247 0.02944019 -0.00121349
v 0.00022247 0.03060226 -0.00119369
v 0.00022247 0.03094806 -0.00118238
v 0.00022247 0.03110332 -0.00117672
v 0.00022247 0.03144911 -0.00116258
v 0.00037975 0.03144911 -0.00115551
v 0.00037975 0.03195252 -0.00113147
v 0.00088270 0.03245593 -0.00107915
v 0.00084866 0.03294052 -0.00105228
v 0.00065852 0.03322986 -0.00104238
v 0.00037975 0.03446721 -0.00094198
v 0.00037975 0.03497062 -0.00088259
v 0.00088270 0.03547403 -0.00078926
v 0.00138565 0.03597743 -0.00068321
v 0.00127239 0.03872030 -0.00002566
v 0.00141852 0.03894613 0.00008463
v 0.00088270 0.03748530 -0.00042302
v 0.00088270 0.03798871 -0.00025616
v 0.00138565 0.03939308 0.00035896
v 0.00088270 0.03647849 -0.00063089
v 0.00138565 0.03680077 -0.00055029
v 0.00088270 0.03710893 -0.00051352
v 0.00088270 0.03685722 -0.00056443
v 0.00138565 0.03964478 0.00056825
v 0.00148131 0.04033168 0.00135306
v 0.00138565 0.03989178 0.00081995
v 0.00134281 0.04042813 0.00168395
v 0.00139446 0.04064925 0.00220574
v 0.00123893 0.04069159 0.00273037
v 0.00117203 0.04072923 0.00323378
v 0.00114386 0.04074805 0.00355336
v 0.00112097 0.04076451 0.00388849
v 0.00110982 0.04077392 0.00423918
v 0.00085277 0.04058809 0.00474259
v 0.00084045 0.04059044 0.00574941
v 0.00083986 0.04059044 0.00625000
v 0.00084808 0.04058809 0.00675341
v 0.00053292 0.04033403 0.00725682
v 0.00028996 0.04010585 0.00775881
v 0.00022247 0.04001411 0.00826222
v 0.00022247 0.03195252 -0.00113713
v 0.00037975 0.03245593 -0.00110178
v 0.00022247 0.03295934 -0.00106784
v 0.00022247 0.03349803 -0.00102400
v 0.00037975 0.03396380 -0.00098441
v 0.00022247 0.03245593 -0.00110602
v 0.00022247 0.03446721 -0.00093916
v 0.00022247 0.03396380 -0.00098441
v 0.00037975 0.03597743 -0.00072139
v 0.00088270 0.03597743 -0.00071008
v 0.00022247 0.03497062 -0.00087835
v 0.00088270 0.03863326 0.00002241
v 0.00088270 0.03838156 -0.00009637
v 0.00037975 0.03682194 -0.00056160
v 0.00037975 0.03707129 -0.00048665
v 0.00037975 0.03748530 -0.00034666
v 0.00101357 0.03931780 0.00040987
v 0.00037975 0.03647849 -0.00063372
v 0.00134281 0.04015995 0.00120034
v 0.00114621 0.04024464 0.00148881
v 0.00104292 0.03980475 0.00090197
v 0.00104351 0.04031521 0.00182394
v 0.00095137 0.04038108 0.00222837
v 0.00064560 0.04023993 0.00254795
v 0.00084103 0.04041166 0.00272188
v 0.00061215 0.04026816 0.00288309
v 0.00088270 0.04051751 0.00323378
v 0.00058574 0.04028933 0.00323378
v 0.00092496 0.04059750 0.00372729
v 0.00055875 0.04031286 0.00373719
v 0.00085805 0.04057868 0.00423918
v 0.00053468 0.04033638 0.00474259
v 0.00053292 0.04033873 0.00524600
v 0.00053175 0.04033873 0.00574941
v 0.00053116 0.04033873 0.00625000
v 0.00053116 0.04033638 0.00675341
v 0.00028174 0.04011291 0.00725682
v 0.00022247 0.04005880 0.00725682
v 0.00022247 0.04004234 0.00775881
v 0.00022247 0.04003528 0.00789174
v 0.00022247 0.03547403 -0.00079634
v 0.00086040 0.03902611 0.00027836
v 0.00056755 0.03828511 -0.00005960
v 0.00039149 0.03799577 -0.00013879
v 0.00022247 0.03678430 -0.00055311
v 0.00022247 0.03748295 -0.00028868
v 0.00022247 0.03764762 -0.00022364
v 0.00067788 0.03921665 0.00049896
v 0.00022247 0.03663610 -0.00058422
v 0.00022247 0.03597743 -0.00070583
v 0.00070781 0.03969654 0.00106034
v 0.00057987 0.03979063 0.00139548
v 0.00087859 0.04013878 0.00168395
v 0.00049712 0.03986355 0.00172496
v 0.00070018 0.04019994 0.00222837
v 0.00035334 0.03991531 0.00225665
v 0.00022247 0.03982827 0.00236129
v 0.00041848 0.04007056 0.00272188
v 0.00022247 0.03989649 0.00272754
v 0.00033397 0.04006821 0.00323378
v 0.00030756 0.04008938 0.00373719
v 0.00054231 0.04032697 0.00423918
v 0.00028292 0.04011055 0.00474259
v 0.00022247 0.04006586 0.00585123
v 0.00027939 0.04011761 0.00625000
v 0.00027998 0.04011526 0.00675341
v 0.00022247 0.04006351 0.00685946
v 0.00047893 0.03888026 0.00036745
v 0.00023244 0.03816749 0.00001393
v 0.00022247 0.03791579 -0.00011192
v 0.00022247 0.03886850 0.00055976
v 0.00032048 0.03904728 0.00065875
v 0.00049712 0.03936015 0.00083409
v 0.00022247 0.03929899 0.00107590
v 0.00037095 0.03950364 0.00120882
v 0.00022247 0.03940955 0.00128094
v 0.00022247 0.03962126 0.00172496
v 0.00024594 0.03964243 0.00172496
v 0.00022247 0.03966360 0.00184091
v 0.00022247 0.03976946 0.00215060
v 0.00022247 0.03996706 0.00323378
v 0.00029055 0.04010114 0.00423918
v 0.00022247 0.04001175 0.00373719
v 0.00022247 0.04004234 0.00436221
v 0.00022247 0.04005410 0.00474259
v 0.00022247 0.04006115 0.00535064
v 0.00022247 0.04006586 0.00635322
v 0.00022247 0.03864503 0.00037452
v 0.00022247 0.03817690 0.00002666
v 0.00022247 0.03816279 0.00001817
v 0.00022247 0.03899788 0.00070683
v 0.00022247 0.03915079 0.00088358
v 0.00022247 0.04003763 0.00423918
f 1 2 3
f 1 3 4
f 1 4 5
f 1 5 6
f 1 6 15
f 1 15 27
f 1 27 41
f 1 41 64
f 1 64 66
f 1 66 90
f 1 90 112
f 1 112 140
f 1 140 142
f 1 142 175
f 1 175 174
f 1 174 173
f 1 173 172
f 1 172 147
f 1 147 179
f 1 179 178
f 1 178 213
f 1 213 215
f 1 215 254
f 1 254 284
f 1 284 327
f 1 327 377
f 1 377 427
f 1 427 488
f 1 488 544
f 1 544 614
f 1 614 679
f 1 679 747
f 1 747 754
f 1 754 757
f 1 757 825
f 1 825 824
f 1 824 888
f 1 888 887
f 1 887 886
f 1 886 885
f 1 885 947
f 1 947 949
f 1 949 1009
f 1 1009 1008
f 1 1008 1057
f 1 1057 1100
f 1 1100 1140
f 1 1140 1139
f 1 1139 1138
f 1 1138 1167
f 1 1167 1187
f 1 1187 1164
f 1 1164 1186
f 1 1186 1185
f 1 1185 1184
f 1 1184 1193
f 1 1193 1183
f 1 1183 1181
f 1 1181 1159
f 1 1159 1157
f 1 1157 1180
f 1 1180 1179
f 1 1179 1177
f 1 1177 1176
f 1 1176 1174
f 1 1174 1192
f 1 1192 1191
f 1 1191 1171
f 1 1171 1188
f 1 1188 1189
f 1 1189 1190
f 1 1190 1170
f 1 1170 1147
f 1 1147 1146
f 1 1146 1145
f 1 1145 1149
f 1 1149 1150
f 1 1150 1141
f 1 1141 1111
f 1 1111 1107
f 1 1107 1108
f 1 1108 1104
f 1 1104 1103
f 1 1103 1106
f 1 1106 1101
f 1 1101 1065
f 1 1065 1064
f 1 1064 1063
f 1 1063 1062
f 1 1062 1060
f 1 1060 1059
f 1 1059 1061
f 1 1061 1058
f 1 1058 1010
f 1 1010 954
f 1 954 953
f 1 953 952
f 1 952 951
f 1 951 950
f 1 950 891
f 1 891 830
f 1 830 762
f 1 762 829
f 1 829 828
f 1 828 774
f 1 774 700
f 1 700 699
f 1 699 630
f 1 630 566
f 1 566 565
f 1 565 564
f 1 564 563
f 1 563 562
f 1 562 561
f 1 561 560
f 1 560 570
f 1 570 514
f 1 514 513
f 1 513 512
f 1 512 511
f 1 511 510
f 1 510 509
f 1 509 508
f 1 508 456
f 1 456 455
f 1 455 454
f 1 454 453
f 1 453 452
f 1 452 451
f 1 451 450
f 1 450 449
f 1 449 448
f 1 448 447
f 1 447 446
f 1 446 398
f 1 398 397
f 1 397 357
f 1 357 356
f 1 356 355
f 1 355 354
f 1 354 353
f 1 353 312
f 1 312 311
f 1 311 310
f 1 310 309
f 1 309 308
f 1 308 307
f 1 307 306
f 1 306 305
f 1 305 304
f 1 304 303
f 1 303 302
f 1 302 272
f 1 272 271
f 1 271 242
f 1 242 241
f 1 241 240
f 1 240 237
f 1 237 236
f 1 236 235
f 1 235 234
f 1 234 233
f 1 233 232
f 1 232 231
f 1 231 261
f 1 261 224
f 1 224 190
f 1 190 156
f 1 156 155
f 1 155 154
f 1 154 123
f 1 123 122
f 1 122 95
f 1 95 75
f 1 75 72
f 1 72 50
f 1 50 48
f 1 48 29
f 1 29 28
f 1 28 17
f 1 17 16
f 1 16 8
f 1 8 7
f 1 7 2
f 2 7 3
f 3 7 8
f 3 8 9
f 3 9 10
f 3 10 11
f 3 11 12
f 3 12 4
f 4 12 13
f 4 13 5
f 5 13 14
f 5 14 15
f 5 15 6
f 8 16 9
f 9 16 17
f 9 17 18
f 9 18 10
f 10 18 19
f 10 19 20
f 10 20 21
f 10 21 22
f 10 22 11
f 11 22 23
f 11 23 12
f 12 23 13
f 13 24 14
f 13 23 25
f 13 25 26
f 13 26 24
f 14 24 15
f 15 24 27
f 17 28 18
f 18 28 29
f 18 29 30
f 18 30 19
f 19 30 31
f 19 31 20
f 20 31 32
f 20 32 33
f 20 33 34
f 20 34 35
f 20 35 36
f 20 36 21
f 21 36 37
f 21 37 22
f 22 37 38
f 22 38 23
f 23 38 39
f 23 39 25
f 24 26 40
f 24 40 41
f 24 41 27
f 25 39 42
f 25 42 43
f 25 43 44
f 25 44 26
f 26 44 45
f 26 45 46
f 26 46 47
f 26 47 40
f 29 48 30
f 30 48 49
f 30 49 31
f 31 49 50
f 31 50 51
f 31 51 52
f 31 52 53
f 31 53 54
f 31 54 55
f 31 55 32
f 32 55 56
f 32 56 33
f 33 56 57
f 33 57 58
f 33 58 34
f 34 58 59
f 34 59 35
f 35 59 36
f 36 59 60
f 36 60 61
f 36 61 37
f 37 61 62
f 37 62 38
f 38 62 39
f 39 62 63
f 39 63 42
f 40 64 41
f 40 47 65
f 40 65 66
f 40 66 64
f 42 63 67
f 42 67 68
f 42 68 43
f 43 68 46
f 43 46 44
f 44 46 45
f 46 68 69
f 46 69 70
f 46 70 47
f 47 70 71
f 47 71 65
f 48 50 49
f 50 72 51
f 51 73 74
f 51 74 52
f 51 72 75
f 51 75 73
f 52 74 73
f 52 73 53
f 53 76 77
f 53 77 56
f 53 56 54
f 53 73 76
f 54 56 55
f 56 77 76
f 56 76 57
f 57 78 58
f 57 76 79
f 57 79 78
f 58 78 80
f 58 80 81
f 58 81 82
f 58 82 60
f 58 60 59
f 60 82 83
f 60 83 61
f 61 83 62
f 62 83 84
f 62 84 63
f 63 84 85
f 63 85 86
f 63 86 87
f 63 87 67
f 65 71 88
f 65 88 89
f 65 89 66
f 66 89 90
f 67 87 68
f 68 87 69
f 69 87 91
f 69 91 92
f 69 92 70
f 70 92 93
f 70 93 94
f 70 94 88
f 70 88 71
f 73 75 95
f 73 95 96
f 73 96 97
f 73 97 98
f 73 98 99
f 73 99 76
f 76 100 79
f 76 99 100
f 78 79 101
f 78 101 102
f 78 102 103
f 78 103 104
f 78 104 80
f 79 100 101
f 80 104 81
f 81 104 82
f 82 104 83
f 83 104 105
f 83 105 106
f 83 106 107
f 83 107 84
f 84 107 85
f 85 107 108
f 85 108 86
f 86 108 87
f 87 108 109
f 87 109 110
f 87 110 91
f 88 94 111
f 88 111 89
f 89 112 90
f 89 111 113
f 89 113 114
f 89 114 112
f 91 110 115
f 91 115 116
f 91 116 117
f 91 117 92
f 92 117 118
f 92 118 119
f 92 119 120
f 92 120 93
f 93 120 121
f 93 121 114
f 93 114 94
f 94 114 113
f 94 113 111
f 95 122 96
f 96 122 97
f 97 122 123
f 97 123 124
f 97 124 125
f 97 125 98
f 98 125 99
f 99 125 126
f 99 126 127
f 99 127 128
f 99 128 100
f 100 128 102
f 100 102 101
f 102 128 129
f 102 129 103
f 103 130 104
f 103 129 130
f 104 130 131
f 104 131 132
f 104 132 105
f 105 132 133
f 105 133 106
f 106 133 107
f 107 133 134
f 107 134 135
f 107 135 108
f 108 135 136
f 108 136 109
f 109 136 137
f 109 137 138
f 109 138 110
f 110 138 115
f 112 114 139
f 112 139 140
f 114 141 142
f 114 142 139
f 114 121 143
f 114 143 144
f 114 144 145
f 114 145 146
f 114 146 147
f 114 147 141
f 115 138 116
f 116 119 118
f 116 118 117
f 116 138 148
f 116 148 149
f 116 149 119
f 119 150 151
f 119 151 120
f 119 149 152
f 119 152 150
f 120 151 121
f 121 151 153
f 121 153 143
f 123 154 124
f 124 126 125
f 124 154 155
f 124 155 156
f 124 156 157
f 124 157 158
f 124 158 126
f 126 158 127
f 127 159 128
f 127 158 159
f 128 159 129
f 129 159 160
f 129 160 161
f 129 161 162
f 129 162 163
f 129 163 164
f 129 164 130
f 130 164 131
f 131 164 132
f 132 165 133
f 132 164 165
f 133 165 166
f 133 166 134
f 134 166 167
f 134 167 135
f 135 167 168
f 135 168 169
f 135 169 136
f 136 169 137
f 137 169 170
f 137 170 138
f 138 170 171
f 138 171 148
f 139 142 140
f 141 147 172
f 141 172 173
f 141 173 174
f 141 174 175
f 141 175 142
f 143 153 144
f 144 153 145
f 145 153 189
f 145 189 176
f 145 176 177
f 145 177 146
f 146 177 178
f 146 178 179
f 146 179 147
f 148 171 180
f 148 180 181
f 148 181 182
f 148 182 149
f 149 182 183
f 149 183 184
f 149 184 152
f 150 153 151
f 150 152 185
f 150 185 153
f 152 184 186
f 152 186 187
f 152 187 188
f 152 188 185
f 153 185 189
f 156 190 157
f 157 190 191
f 157 191 158
f 158 191 192
f 158 192 159
f 159 193 161
f 159 161 160
f 159 192 193
f 161 194 195
f 161 195 196
f 161 196 197
f 161 197 162
f 161 193 198
f 161 198 192
f 161 192 199
f 161 199 200
f 161 200 201
f 161 201 194
f 162 197 196
f 162 196 202
f 162 202 203
f 162 203 163
f 163 203 202
f 163 202 204
f 163 204 165
f 163 165 164
f 165 204 205
f 165 205 206
f 165 206 248
f 165 248 207
f 165 207 167
f 165 167 166
f 167 207 168
f 168 207 169
f 169 207 170
f 170 208 209
f 170 209 210
f 170 210 171
f 170 207 208
f 171 210 181
f 171 181 180
f 176 189 211
f 176 211 212
f 176 212 214
f 176 214 177
f 177 213 178
f 177 214 215
f 177 215 213
f 181 183 182
f 181 210 216
f 181 216 217
f 181 217 183
f 183 217 218
f 183 218 219
f 183 219 184
f 184 219 186
f 185 188 220
f 185 220 189
f 186 219 187
f 187 221 188
f 187 219 218
f 187 218 222
f 187 222 221
f 188 221 223
f 188 223 220
f 189 220 223
f 189 223 211
f 190 224 191
f 191 224 225
f 191 225 192
f 192 225 199
f 192 198 193
f 194 201 195
f 195 226 227
f 195 227 228
f 195 228 229
f 195 229 196
f 195 201 230
f 195 230 226
f 196 229 202
f 199 225 231
f 199 231 232
f 199 232 233
f 199 233 234
f 199 234 235
f 199 235 236
f 199 236 237
f 199 237 200
f 200 238 239
f 200 239 201
f 200 237 240
f 200 240 241
f 200 241 242
f 200 242 238
f 201 239 230
f 202 229 228
f 202 228 243
f 202 243 244
f 202 244 245
f 202 245 205
f 202 205 204
f 205 245 246
f 205 246 206
f 206 246 247
f 206 247 248
f 207 248 249
f 207 249 209
f 207 209 208
f 209 249 210
f 210 249 250
f 210 250 216
f 211 223 251
f 211 251 252
f 211 252 212
f 212 252 214
f 214 252 253
f 214 253 215
f 215 253 254
f 216 250 255
f 216 255 256
f 216 256 257
f 216 257 217
f 217 257 258
f 217 258 218
f 218 258 222
f 221 222 259
f 221 259 223
f 222 258 260
f 222 260 259
f 223 259 251
f 224 261 225
f 225 261 231
f 226 262 263
f 226 263 264
f 226 264 227
f 226 230 265
f 226 265 262
f 227 264 228
f 228 264 266
f 228 266 243
f 230 239 267
f 230 267 268
f 230 268 269
f 230 269 270
f 230 270 265
f 238 242 239
f 239 242 271
f 239 271 272
f 239 272 267
f 243 266 273
f 243 273 274
f 243 274 275
f 243 275 244
f 244 275 276
f 244 276 277
f 244 277 246
f 244 246 245
f 246 277 278
f 246 278 247
f 247 278 248
f 248 278 279
f 248 279 249
f 249 279 250
f 250 279 255
f 251 259 280
f 251 280 281
f 251 281 252
f 252 281 253
f 253 281 282
f 253 282 283
f 253 283 254
f 254 283 284
f 255 279 285
f 255 285 286
f 255 286 287
f 255 287 256
f 256 287 288
f 256 288 257
f 257 288 289
f 257 289 290
f 257 290 258
f 258 290 291
f 258 291 292
f 258 292 260
f 259 260 293
f 259 293 294
f 259 294 280
f 260 292 295
f 260 295 293
f 262 296 343
f 262 343 297
f 262 297 263
f 262 265 298
f 262 298 299
f 262 299 300
f 262 300 296
f 263 297 301
f 263 301 266
f 263 266 264
f 265 270 298
f 266 301 273
f 267 272 302
f 267 302 303
f 267 303 268
f 268 303 304
f 268 304 305
f 268 305 306
f 268 306 307
f 268 307 308
f 268 308 309
f 268 309 310
f 268 310 269
f 269 310 311
f 269 311 312
f 269 312 313
f 269 313 270
f 270 313 298
f 273 301 314
f 273 314 315
f 273 315 275
f 273 275 274
f 275 315 276
f 276 315 316
f 276 316 317
f 276 317 318
f 276 318 277
f 277 318 278
f 278 319 279
f 278 318 320
f 278 320 321
f 278 321 322
f 278 322 323
f 278 323 324
f 278 324 285
f 278 285 319
f 279 319 285
f 280 294 281
f 281 294 282
f 282 294 325
f 282 325 283
f 283 325 326
f 283 326 327
f 283 327 284
f 285 324 328
f 285 328 286
f 286 329 287
f 286 328 330
f 286 330 329
f 287 329 288
f 288 329 289
f 289 331 332
f 289 332 333
f 289 333 334
f 289 334 335
f 289 335 336
f 289 336 290
f 289 329 331
f 290 336 291
f 291 336 335
f 291 335 337
f 291 337 292
f 292 337 338
f 292 338 339
f 292 339 295
f 293 295 340
f 293 340 294
f 294 340 325
f 295 339 387
f 295 387 340
f 296 341 342
f 296 342 343
f 296 300 344
f 296 344 345
f 296 345 346
f 296 346 341
f 297 343 352
f 297 352 301
f 298 313 347
f 298 347 348
f 298 348 349
f 298 349 350
f 298 350 299
f 299 350 300
f 300 350 351
f 300 351 344
f 301 352 314
f 312 353 313
f 313 353 354
f 313 354 355
f 313 355 356
f 313 356 357
f 313 357 347
f 314 352 358
f 314 358 359
f 314 359 360
f 314 360 361
f 314 361 362
f 314 362 363
f 314 363 315
f 315 363 364
f 315 364 365
f 315 365 366
f 315 366 316
f 316 366 317
f 317 366 367
f 317 367 318
f 318 367 320
f 320 367 368
f 320 368 369
f 320 369 370
f 320 370 371
f 320 371 321
f 321 371 322
f 322 371 372
f 322 372 373
f 322 373 323
f 323 373 374
f 323 374 328
f 323 328 324
f 325 340 375
f 325 375 326
f 326 375 376
f 326 376 327
f 327 376 377
f 328 374 330
f 329 330 331
f 330 374 378
f 330 378 331
f 331 378 332
f 332 378 379
f 332 379 380
f 332 380 333
f 333 380 381
f 333 381 382
f 333 382 383
f 333 383 335
f 333 335 334
f 335 383 384
f 335 384 385
f 335 385 386
f 335 386 338
f 335 338 337
f 338 386 385
f 338 385 339
f 339 385 387
f 340 387 375
f 341 388 389
f 341 389 390
f 341 390 342
f 341 346 391
f 341 391 388
f 342 352 343
f 342 390 358
f 342 358 352
f 344 351 392
f 344 392 393
f 344 393 394
f 344 394 395
f 344 395 345
f 345 391 346
f 345 395 396
f 345 396 391
f 347 357 397
f 347 397 398
f 347 398 394
f 347 394 393
f 347 393 348
f 348 393 392
f 348 392 349
f 349 392 351
f 349 351 350
f 358 390 399
f 358 399 359
f 359 399 400
f 359 400 401
f 359 401 361
f 359 361 360
f 361 401 402
f 361 402 362
f 362 402 403
f 362 403 404
f 362 404 405
f 362 405 406
f 362 406 364
f 362 364 363
f 364 406 365
f 365 405 407
f 365 407 408
f 365 408 366
f 365 406 405
f 366 408 367
f 367 408 409
f 367 409 410
f 367 410 369
f 367 369 368
f 369 411 412
f 369 412 370
f 369 410 413
f 369 413 414
f 369 414 415
f 369 415 416
f 369 416 417
f 369 417 418
f 369 418 419
f 369 419 411
f 370 412 420
f 370 420 371
f 371 420 421
f 371 421 422
f 371 422 372
f 372 422 373
f 373 422 423
f 373 423 374
f 374 423 378
f 375 387 424
f 375 424 425
f 375 425 376
f 376 425 426
f 376 426 377
f 377 426 427
f 378 423 428
f 378 428 379
f 379 428 429
f 379 429 430
f 379 430 380
f 380 430 431
f 380 431 432
f 380 432 381
f 381 432 433
f 381 433 382
f 382 433 434
f 382 434 435
f 382 435 383
f 383 435 384
f 384 435 385
f 385 435 436
f 385 436 437
f 385 437 424
f 385 424 387
f 388 438 439
f 388 439 440
f 388 440 441
f 388 441 399
f 388 399 389
f 388 391 442
f 388 442 438
f 389 399 390
f 391 396 443
f 391 443 444
f 391 444 445
f 391 445 442
f 394 398 446
f 394 446 447
f 394 447 448
f 394 448 395
f 395 448 449
f 395 449 450
f 395 450 451
f 395 451 452
f 395 452 453
f 395 453 454
f 395 454 396
f 396 454 455
f 396 455 456
f 396 456 443
f 399 441 400
f 400 441 440
f 400 440 457
f 400 457 458
f 400 458 459
f 400 459 460
f 400 460 461
f 400 461 462
f 400 462 401
f 401 462 463
f 401 463 464
f 401 464 402
f 402 464 465
f 402 465 466
f 402 466 403
f 403 466 404
f 404 466 467
f 404 467 407
f 404 407 405
f 407 467 468
f 407 468 409
f 407 409 408
f 409 468 472
f 409 472 413
f 409 413 410
f 411 469 412
f 411 419 469
f 412 469 470
f 412 470 471
f 412 471 420
f 413 472 531
f 413 531 473
f 413 473 474
f 413 474 475
f 413 475 414
f 414 475 476
f 414 476 477
f 414 477 478
f 414 478 415
f 415 478 416
f 416 478 479
f 416 479 480
f 416 480 417
f 417 480 418
f 418 480 481
f 418 481 419
f 419 481 482
f 419 482 469
f 420 471 483
f 420 483 421
f 421 428 422
f 421 483 429
f 421 429 428
f 422 428 423
f 424 437 484
f 424 484 485
f 424 485 425
f 425 486 426
f 425 485 486
f 426 486 487
f 426 487 427
f 427 487 488
f 429 483 489
f 429 489 490
f 429 490 431
f 429 431 430
f 431 490 491
f 431 491 492
f 431 492 432
f 432 492 433
f 433 492 493
f 433 493 494
f 433 494 495
f 433 495 434
f 434 495 496
f 434 496 435
f 435 496 436
f 436 496 437
f 437 496 495
f 437 495 497
f 437 497 498
f 437 498 484
f 438 442 439
f 439 499 500
f 439 500 501
f 439 501 502
f 439 502 457
f 439 457 503
f 439 503 440
f 439 442 504
f 439 504 505
f 439 505 506
f 439 506 499
f 440 503 457
f 442 445 507
f 442 507 504
f 443 456 508
f 443 508 509
f 443 509 510
f 443 510 511
f 443 511 444
f 444 511 512
f 444 512 445
f 445 512 513
f 445 513 514
f 445 514 507
f 457 502 459
f 457 459 458
f 459 502 515
f 459 515 516
f 459 516 460
f 460 516 461
f 461 516 517
f 461 517 463
f 461 463 462
f 463 517 518
f 463 518 519
f 463 519 464
f 464 519 465
f 465 467 466
f 465 519 520
f 465 520 467
f 467 520 521
f 467 521 522
f 467 522 523
f 467 523 468
f 468 523 472
f 469 482 470
f 470 482 524
f 470 524 525
f 470 525 526
f 470 526 527
f 470 527 489
f 470 489 471
f 471 489 483
f 472 523 522
f 472 522 528
f 472 528 529
f 472 529 530
f 472 530 531
f 473 531 602
f 473 602 532
f 473 532 474
f 474 532 533
f 474 533 475
f 475 533 476
f 476 533 534
f 476 534 477
f 477 534 535
f 477 535 536
f 477 536 537
f 477 537 478
f 478 537 538
f 478 538 479
f 479 539 480
f 479 538 540
f 479 540 539
f 480 539 524
f 480 524 481
f 481 524 482
f 484 498 485
f 485 498 541
f 485 541 486
f 486 542 487
f 486 541 542
f 487 542 543
f 487 543 488
f 488 543 544
f 489 527 545
f 489 545 490
f 490 545 491
f 491 545 546
f 491 546 493
f 491 493 492
f 493 547 494
f 493 546 548
f 493 548 549
f 493 549 547
f 494 547 550
f 494 550 495
f 495 550 497
f 497 551 498
f 497 550 552
f 497 552 551
f 498 551 553
f 498 553 541
f 499 506 500
f 500 554 501
f 500 506 554
f 501 554 502
f 502 554 555
f 502 555 556
f 502 556 557
f 502 557 558
f 502 558 559
f 502 559 515
f 504 507 560
f 504 560 561
f 504 561 562
f 504 562 505
f 505 562 563
f 505 563 564
f 505 564 565
f 505 565 566
f 505 566 567
f 505 567 506
f 506 567 568
f 506 568 569
f 506 569 554
f 507 514 570
f 507 570 560
f 515 559 571
f 515 571 516
f 516 571 572
f 516 572 573
f 516 573 574
f 516 574 575
f 516 575 576
f 516 576 517
f 517 576 518
f 518 576 519
f 519 577 578
f 519 578 579
f 519 579 580
f 519 580 581
f 519 581 520
f 519 576 582
f 519 582 577
f 520 581 583
f 520 583 584
f 520 584 522
f 520 522 521
f 522 584 585
f 522 585 586
f 522 586 587
f 522 587 588
f 522 588 589
f 522 589 590
f 522 590 591
f 522 591 528
f 524 539 540
f 524 540 592
f 524 592 593
f 524 593 525
f 525 593 526
f 526 593 594
f 526 594 595
f 526 595 596
f 526 596 545
f 526 545 527
f 528 591 597
f 528 597 598
f 528 598 599
f 528 599 600
f 528 600 529
f 529 600 601
f 529 601 530
f 530 601 602
f 530 602 531
f 532 602 670
f 532 670 603
f 532 603 604
f 532 604 533
f 533 604 534
f 534 604 605
f 534 605 535
f 535 605 606
f 535 606 607
f 535 607 608
f 535 608 536
f 536 609 537
f 536 608 609
f 537 609 538
f 538 609 610
f 538 610 540
f 540 610 611
f 540 611 592
f 541 553 612
f 541 612 542
f 542 612 543
f 543 612 613
f 543 613 614
f 543 614 544
f 545 596 548
f 545 548 546
f 547 549 550
f 548 596 595
f 548 595 615
f 548 615 616
f 548 616 617
f 548 617 549
f 549 617 618
f 549 618 619
f 549 619 552
f 549 552 550
f 551 552 619
f 551 619 620
f 551 620 553
f 553 621 612
f 553 620 622
f 553 622 621
f 554 623 624
f 554 624 555
f 554 569 623
f 555 624 625
f 555 625 626
f 555 626 556
f 556 626 627
f 556 627 628
f 556 628 557
f 557 629 559
f 557 559 558
f 557 628 695
f 557 695 629
f 559 629 571
f 566 630 631
f 566 631 632
f 566 632 567
f 567 632 631
f 567 631 568
f 568 631 569
f 569 631 633
f 569 633 634
f 569 634 624
f 569 624 623
f 571 635 572
f 571 629 635
f 572 635 636
f 572 636 573
f 573 636 574
f 574 636 637
f 574 637 638
f 574 638 575
f 575 638 639
f 575 639 640
f 575 640 641
f 575 641 642
f 575 642 576
f 576 642 582
f 577 582 643
f 577 643 578
f 578 643 644
f 578 644 579
f 579 645 646
f 579 646 580
f 579 644 645
f 580 646 647
f 580 647 581
f 581 647 583
f 582 642 648
f 582 648 649
f 582 649 650
f 582 650 643
f 583 651 652
f 583 652 653
f 583 653 584
f 583 647 651
f 584 653 585
f 585 653 654
f 585 654 655
f 585 655 656
f 585 656 587
f 585 587 586
f 587 657 658
f 587 658 588
f 587 656 657
f 588 658 659
f 588 659 589
f 589 659 590
f 590 659 660
f 590 660 597
f 590 597 591
f 592 611 661
f 592 661 593
f 593 661 594
f 594 661 662
f 594 662 595
f 595 662 663
f 595 663 615
f 597 660 664
f 597 664 665
f 597 665 599
f 597 599 598
f 599 666 667
f 599 667 668
f 599 668 600
f 599 665 666
f 600 668 601
f 601 668 669
f 601 669 602
f 602 669 670
f 603 670 736
f 603 736 671
f 603 671 604
f 604 671 605
f 605 671 672
f 605 672 606
f 606 672 673
f 606 673 674
f 606 674 607
f 607 674 675
f 607 675 608
f 608 676 609
f 608 675 676
f 609 676 610
f 610 676 677
f 610 677 611
f 611 677 678
f 611 678 661
f 612 621 613
f 613 621 614
f 614 621 679
f 615 663 680
f 615 680 616
f 616 680 681
f 616 681 618
f 616 618 617
f 618 682 619
f 618 681 682
f 619 682 683
f 619 683 620
f 620 683 684
f 620 684 622
f 621 685 686
f 621 686 679
f 621 622 687
f 621 687 685
f 622 684 688
f 622 688 687
f 624 634 689
f 624 689 625
f 625 689 690
f 625 690 691
f 625 691 626
f 626 691 692
f 626 692 627
f 627 692 628
f 628 692 693
f 628 693 694
f 628 694 695
f 629 695 696
f 629 696 697
f 629 697 698
f 629 698 635
f 630 699 631
f 631 699 633
f 633 700 701
f 633 701 634
f 633 699 700
f 634 701 689
f 635 702 703
f 635 703 636
f 635 698 702
f 636 703 704
f 636 704 705
f 636 705 637
f 637 705 706
f 637 706 639
f 637 639 638
f 639 706 707
f 639 707 640
f 640 708 709
f 640 709 710
f 640 710 711
f 640 711 641
f 640 707 708
f 641 711 642
f 642 711 710
f 642 710 648
f 643 712 644
f 643 650 713
f 643 713 712
f 644 712 714
f 644 714 645
f 645 714 715
f 645 715 646
f 646 715 716
f 646 716 717
f 646 717 651
f 646 651 647
f 648 718 719
f 648 719 649
f 648 710 718
f 649 719 713
f 649 713 650
f 651 717 652
f 652 717 720
f 652 720 721
f 652 721 653
f 653 721 654
f 654 721 722
f 654 722 655
f 655 722 723
f 655 723 724
f 655 724 725
f 655 725 657
f 655 657 656
f 657 725 658
f 658 725 659
f 659 725 726
f 659 726 660
f 660 726 727
f 660 727 664
f 661 678 662
f 662 678 728
f 662 728 729
f 662 729 663
f 663 729 680
f 664 727 730
f 664 730 731
f 664 731 665
f 665 731 666
f 666 731 732
f 666 732 667
f 667 732 733
f 667 733 734
f 667 734 735
f 667 735 668
f 668 735 669
f 669 735 736
f 669 736 670
f 671 736 737
f 671 737 672
f 672 737 738
f 672 738 739
f 672 739 673
f 673 739 740
f 673 740 741
f 673 741 742
f 673 742 743
f 673 743 674
f 674 743 675
f 675 743 813
f 675 813 744
f 675 744 676
f 676 744 677
f 677 744 745
f 677 745 746
f 677 746 678
f 678 746 728
f 679 686 747
f 680 729 748
f 680 748 681
f 681 748 749
f 681 749 750
f 681 750 682
f 682 750 751
f 682 751 683
f 683 751 752
f 683 752 753
f 683 753 688
f 683 688 684
f 685 754 747
f 685 747 686
f 685 687 754
f 687 688 755
f 687 755 756
f 687 756 757
f 687 757 754
f 688 758 755
f 688 753 759
f 688 759 758
f 689 701 760
f 689 760 690
f 690 761 762
f 690 762 763
f 690 763 764
f 690 764 765
f 690 765 766
f 690 766 691
f 690 760 761
f 691 766 693
f 691 693 692
f 693 766 767
f 693 767 694
f 694 768 769
f 694 769 770
f 694 770 698
f 694 698 697
f 694 697 696
f 694 696 695
f 694 767 771
f 694 771 768
f 698 770 772
f 698 772 773
f 698 773 702
f 700 774 701
f 701 774 760
f 702 773 775
f 702 775 776
f 702 776 705
f 702 705 704
f 702 704 703
f 705 777 706
f 705 776 778
f 705 778 844
f 705 844 777
f 706 777 707
f 707 777 708
f 708 779 780
f 708 780 709
f 708 777 781
f 708 781 782
f 708 782 779
f 709 780 783
f 709 783 710
f 710 783 718
f 712 713 719
f 712 719 784
f 712 784 785
f 712 785 714
f 714 785 786
f 714 786 715
f 715 787 788
f 715 788 717
f 715 717 716
f 715 786 787
f 717 788 720
f 718 789 790
f 718 790 719
f 718 783 789
f 719 790 784
f 720 791 792
f 720 792 722
f 720 722 721
f 720 788 793
f 720 793 791
f 722 794 723
f 722 792 794
f 723 794 795
f 723 795 724
f 724 795 796
f 724 796 725
f 725 796 797
f 725 797 727
f 725 727 726
f 727 798 799
f 727 799 730
f 727 797 798
f 728 746 745
f 728 745 749
f 728 749 748
f 728 748 729
f 730 800 801
f 730 801 731
f 730 799 800
f 731 801 732
f 732 801 802
f 732 802 733
f 733 802 803
f 733 803 804
f 733 804 734
f 734 804 805
f 734 805 738
f 734 738 737
f 734 737 735
f 735 737 736
f 738 805 806
f 738 806 807
f 738 807 740
f 738 740 739
f 740 807 808
f 740 808 741
f 741 808 809
f 741 809 742
f 742 809 810
f 742 810 811
f 742 811 812
f 742 812 743
f 743 812 813
f 744 813 745
f 745 813 812
f 745 812 814
f 745 814 815
f 745 815 816
f 745 816 749
f 749 816 817
f 749 817 750
f 750 818 752
f 750 752 751
f 750 817 819
f 750 819 818
f 752 820 753
f 752 818 819
f 752 819 821
f 752 821 820
f 753 820 759
f 755 758 822
f 755 822 823
f 755 823 824
f 755 824 825
f 755 825 756
f 756 825 757
f 758 759 822
f 759 820 826
f 759 826 827
f 759 827 822
f 760 774 828
f 760 828 761
f 761 828 829
f 761 829 762
f 762 830 831
f 762 831 763
f 763 831 764
f 764 831 832
f 764 832 833
f 764 833 765
f 765 833 834
f 765 834 767
f 765 767 766
f 767 834 835
f 767 835 771
f 768 771 836
f 768 836 769
f 769 772 770
f 769 836 772
f 771 835 836
f 772 836 837
f 772 837 838
f 772 838 839
f 772 839 840
f 772 840 773
f 773 840 841
f 773 841 775
f 775 841 842
f 775 842 843
f 775 843 844
f 775 844 778
f 775 778 776
f 777 844 781
f 779 845 846
f 779 846 780
f 779 782 847
f 779 847 848
f 779 848 849
f 779 849 845
f 780 846 850
f 780 850 783
f 781 844 847
f 781 847 782
f 783 851 789
f 783 850 851
f 784 852 853
f 784 853 785
f 784 790 852
f 785 853 786
f 786 853 787
f 787 853 854
f 787 854 855
f 787 855 788
f 788 855 793
f 789 856 857
f 789 857 790
f 789 851 858
f 789 858 859
f 789 859 856
f 790 857 852
f 791 793 855
f 791 855 860
f 791 860 861
f 791 861 862
f 791 862 792
f 792 862 794
f 794 863 864
f 794 864 795
f 794 862 863
f 795 864 865
f 795 865 866
f 795 866 796
f 796 866 867
f 796 867 798
f 796 798 797
f 798 867 868
f 798 868 799
f 799 868 800
f 800 868 869
f 800 869 870
f 800 870 871
f 800 871 801
f 801 871 802
f 802 872 803
f 802 871 932
f 802 932 872
f 803 872 873
f 803 873 806
f 803 806 804
f 804 806 805
f 806 874 875
f 806 875 807
f 806 873 872
f 806 872 874
f 807 875 876
f 807 876 808
f 808 876 938
f 808 938 877
f 808 877 878
f 808 878 809
f 809 878 879
f 809 879 880
f 809 880 810
f 810 880 881
f 810 881 811
f 811 817 812
f 811 881 817
f 812 817 814
f 814 817 815
f 815 817 816
f 817 881 882
f 817 882 819
f 819 882 883
f 819 883 821
f 820 821 884
f 820 884 826
f 821 883 884
f 822 885 886
f 822 886 823
f 822 827 885
f 823 887 888
f 823 888 824
f 823 886 887
f 826 889 827
f 826 884 889
f 827 889 890
f 827 890 885
f 830 891 892
f 830 892 832
f 830 832 831
f 832 892 833
f 833 893 894
f 833 894 895
f 833 895 835
f 833 835 834
f 833 892 893
f 835 895 836
f 836 895 894
f 836 894 838
f 836 838 837
f 838 894 893
f 838 893 896
f 838 896 897
f 838 897 898
f 838 898 899
f 838 899 839
f 839 899 900
f 839 900 841
f 839 841 840
f 841 900 901
f 841 901 842
f 842 901 902
f 842 902 903
f 842 903 843
f 843 903 844
f 844 903 904
f 844 904 847
f 845 905 906
f 845 906 846
f 845 849 907
f 845 907 908
f 845 908 905
f 846 906 909
f 846 909 858
f 846 858 851
f 846 851 850
f 847 904 907
f 847 907 848
f 848 907 849
f 852 857 853
f 853 910 911
f 853 911 854
f 853 857 912
f 853 912 910
f 854 911 913
f 854 913 914
f 854 914 915
f 854 915 916
f 854 916 855
f 855 916 860
f 856 917 918
f 856 918 919
f 856 919 912
f 856 912 857
f 856 859 909
f 856 909 920
f 856 920 917
f 858 909 859
f 860 921 861
f 860 916 921
f 861 921 922
f 861 922 923
f 861 923 862
f 862 923 863
f 863 923 924
f 863 924 925
f 863 925 926
f 863 926 865
f 863 865 864
f 865 926 927
f 865 927 866
f 866 927 867
f 867 928 869
f 867 869 868
f 867 927 928
f 869 929 930
f 869 930 870
f 869 928 931
f 869 931 929
f 870 930 871
f 871 930 932
f 872 933 874
f 872 932 933
f 874 933 934
f 874 934 935
f 874 935 936
f 874 936 875
f 875 936 876
f 876 936 937
f 876 937 938
f 877 938 939
f 877 939 940
f 877 940 878
f 878 940 879
f 879 940 941
f 879 941 942
f 879 942 880
f 880 942 943
f 880 943 944
f 880 944 881
f 881 944 883
f 881 883 882
f 883 944 884
f 884 944 945
f 884 945 946
f 884 946 889
f 885 890 947
f 889 946 948
f 889 948 949
f 889 949 947
f 889 947 890
f 891 950 892
f 892 950 893
f 893 951 896
f 893 950 951
f 896 951 952
f 896 952 897
f 897 953 898
f 897 952 953
f 898 954 1010
f 898 1010 955
f 898 955 899
f 898 953 954
f 899 955 956
f 899 956 900
f 900 956 901
f 901 956 957
f 901 957 902
f 902 958 903
f 902 957 958
f 903 958 904
f 904 958 959
f 904 959 907
f 905 960 961
f 905 961 962
f 905 962 906
f 905 908 966
f 905 966 960
f 906 962 1023
f 906 1023 963
f 906 963 909
f 907 959 964
f 907 964 908
f 908 964 965
f 908 965 966
f 909 967 968
f 909 968 920
f 909 963 967
f 910 912 919
f 910 919 913
f 910 913 911
f 913 919 918
f 913 918 969
f 913 969 970
f 913 970 971
f 913 971 914
f 914 971 972
f 914 972 915
f 915 972 973
f 915 973 974
f 915 974 921
f 915 921 916
f 917 920 975
f 917 975 976
f 917 976 977
f 917 977 918
f 918 977 978
f 918 978 969
f 920 968 975
f 921 974 979
f 921 979 922
f 922 979 980
f 922 980 923
f 923 980 981
f 923 981 924
f 924 981 925
f 925 981 982
f 925 982 983
f 925 983 926
f 926 983 984
f 926 984 927
f 927 984 928
f 928 984 931
f 929 931 985
f 929 985 986
f 929 986 987
f 929 987 988
f 929 988 989
f 929 989 990
f 929 990 930
f 930 991 992
f 930 992 933
f 930 933 932
f 930 990 991
f 931 984 985
f 933 992 989
f 933 989 934
f 934 989 993
f 934 993 994
f 934 994 935
f 935 994 995
f 935 995 936
f 936 995 996
f 936 996 937
f 937 996 997
f 937 997 938
f 938 997 998
f 938 998 939
f 939 998 999
f 939 999 1000
f 939 1000 940
f 940 1000 1001
f 940 1001 941
f 941 1001 1002
f 941 1002 942
f 942 1002 1003
f 942 1003 943
f 943 1003 1004
f 943 1004 945
f 943 945 944
f 945 1004 1005
f 945 1005 948
f 945 948 946
f 948 1005 1006
f 948 1006 1007
f 948 1007 1008
f 948 1008 1009
f 948 1009 949
f 955 1010 956
f 956 1011 1012
f 956 1012 957
f 956 1010 1013
f 956 1013 1011
f 957 1014 1015
f 957 1015 1016
f 957 1016 958
f 957 1012 1014
f 958 1016 959
f 959 1017 1018
f 959 1018 1019
f 959 1019 964
f 959 1016 1017
f 960 1020 961
f 960 966 1026
f 960 1026 1020
f 961 1020 1021
f 961 1021 1022
f 961 1022 1023
f 961 1023 962
f 963 1023 967
f 964 1019 1024
f 964 1024 1025
f 964 1025 965
f 965 1025 1026
f 965 1026 966
f 967 1027 968
f 967 1023 1027
f 968 1027 975
f 969 978 970
f 970 1028 1029
f 970 1029 1030
f 970 1030 971
f 970 978 1031
f 970 1031 1028
f 971 1030 972
f 972 1030 973
f 973 1030 1029
f 973 1029 979
f 973 979 974
f 975 1027 1032
f 975 1032 1033
f 975 1033 976
f 976 1033 1034
f 976 1034 1035
f 976 1035 977
f 977 1035 978
f 978 1035 1031
f 979 1029 1036
f 979 1036 1037
f 979 1037 980
f 980 1037 981
f 981 1037 1038
f 981 1038 1039
f 981 1039 982
f 982 1039 1040
f 982 1040 985
f 982 985 983
f 983 985 984
f 985 1040 986
f 986 1041 1042
f 986 1042 987
f 986 1040 1041
f 987 1042 1043
f 987 1043 988
f 988 993 989
f 988 1043 1044
f 988 1044 993
f 989 992 991
f 989 991 990
f 993 1044 994
f 994 1044 1045
f 994 1045 995
f 995 1045 1046
f 995 1046 1047
f 995 1047 996
f 996 1047 997
f 997 1047 1048
f 997 1048 1049
f 997 1049 999
f 997 999 998
f 999 1049 1050
f 999 1050 1051
f 999 1051 1000
f 1000 1051 1001
f 1001 1051 1002
f 1002 1051 1052
f 1002 1052 1053
f 1002 1053 1003
f 1003 1005 1004
f 1003 1053 1054
f 1003 1054 1055
f 1003 1055 1006
f 1003 1006 1005
f 1006 1055 1056
f 1006 1056 1007
f 1007 1056 1057
f 1007 1057 1008
f 1010 1058 1011
f 1010 1011 1013
f 1011 1058 1012
f 1012 1059 1060
f 1012 1060 1062
f 1012 1062 1014
f 1012 1058 1061
f 1012 1061 1059
f 1014 1062 1015
f 1015 1063 1064
f 1015 1064 1065
f 1015 1065 1066
f 1015 1066 1017
f 1015 1017 1016
f 1015 1062 1063
f 1017 1066 1018
f 1018 1066 1067
f 1018 1067 1068
f 1018 1068 1019
f 1019 1069 1070
f 1019 1070 1024
f 1019 1068 1069
f 1020 1071 1021
f 1020 1026 1071
f 1021 1071 1072
f 1021 1072 1073
f 1021 1073 1022
f 1022 1073 1110
f 1022 1110 1074
f 1022 1074 1032
f 1022 1032 1027
f 1022 1027 1023
f 1024 1070 1025
f 1025 1070 1026
f 1026 1070 1071
f 1028 1075 1076
f 1028 1076 1029
f 1028 1031 1077
f 1028 1077 1078
f 1028 1078 1075
f 1029 1079 1036
f 1029 1076 1079
f 1031 1035 1077
f 1032 1074 1033
f 1033 1080 1081
f 1033 1081 1034
f 1033 1074 1080
f 1034 1082 1035
f 1034 1081 1080
f 1034 1080 1083
f 1034 1083 1082
f 1035 1082 1077
f 1036 1038 1037
f 1036 1079 1084
f 1036 1084 1038
f 1038 1084 1039
f 1039 1085 1040
f 1039 1084 1086
f 1039 1086 1085
f 1040 1085 1041
f 1041 1085 1042
f 1042 1085 1087
f 1042 1087 1088
f 1042 1088 1043
f 1043 1088 1089
f 1043 1089 1044
f 1044 1089 1045
f 1045 1089 1090
f 1045 1090 1046
f 1046 1090 1091
f 1046 1091 1092
f 1046 1092 1047
f 1047 1092 1093
f 1047 1093 1048
f 1048 1093 1049
f 1049 1093 1050
f 1050 1093 1094
f 1050 1094 1095
f 1050 1095 1096
f 1050 1096 1051
f 1051 1096 1097
f 1051 1097 1052
f 1052 1097 1098
f 1052 1098 1053
f 1053 1098 1054
f 1054 1098 1137
f 1054 1137 1099
f 1054 1099 1056
f 1054 1056 1055
f 1056 1099 1100
f 1056 1100 1057
f 1065 1101 1067
f 1065 1067 1066
f 1067 1101 1102
f 1067 1102 1069
f 1067 1069 1068
f 1069 1102 1070
f 1070 1103 1104
f 1070 1104 1105
f 1070 1105 1071
f 1070 1102 1106
f 1070 1106 1103
f 1071 1107 1072
f 1071 1105 1104
f 1071 1104 1108
f 1071 1108 1107
f 1072 1109 1080
f 1072 1080 1110
f 1072 1110 1073
f 1072 1107 1111
f 1072 1111 1109
f 1074 1110 1080
f 1075 1112 1079
f 1075 1079 1076
f 1075 1078 1113
f 1075 1113 1112
f 1077 1082 1114
f 1077 1114 1115
f 1077 1115 1078
f 1078 1115 1116
f 1078 1116 1113
f 1079 1117 1084
f 1079 1112 1117
f 1080 1118 1083
f 1080 1109 1118
f 1082 1083 1118
f 1082 1118 1114
f 1084 1117 1086
f 1085 1086 1119
f 1085 1119 1120
f 1085 1120 1087
f 1086 1121 1119
f 1086 1117 1121
f 1087 1120 1122
f 1087 1122 1088
f 1088 1122 1123
f 1088 1123 1089
f 1089 1123 1124
f 1089 1124 1125
f 1089 1125 1090
f 1090 1125 1126
f 1090 1126 1127
f 1090 1127 1091
f 1091 1127 1092
f 1092 1127 1128
f 1092 1128 1129
f 1092 1129 1130
f 1092 1130 1131
f 1092 1131 1093
f 1093 1131 1094
f 1094 1131 1132
f 1094 1132 1095
f 1095 1132 1133
f 1095 1133 1134
f 1095 1134 1135
f 1095 1135 1096
f 1096 1135 1136
f 1096 1136 1098
f 1096 1098 1097
f 1098 1136 1166
f 1098 1166 1137
f 1099 1137 1138
f 1099 1138 1139
f 1099 1139 1140
f 1099 1140 1100
f 1101 1106 1102
f 1109 1111 1141
f 1109 1141 1118
f 1112 1142 1117
f 1112 1113 1143
f 1112 1143 1142
f 1113 1116 1144
f 1113 1144 1143
f 1114 1118 1145
f 1114 1145 1115
f 1115 1145 1116
f 1116 1146 1147
f 1116 1147 1144
f 1116 1145 1146
f 1117 1142 1148
f 1117 1148 1121
f 1118 1149 1145
f 1118 1141 1150
f 1118 1150 1149
f 1119 1121 1120
f 1120 1121 1151
f 1120 1151 1152
f 1120 1152 1153
f 1120 1153 1122
f 1121 1148 1151
f 1122 1153 1154
f 1122 1154 1155
f 1122 1155 1123
f 1123 1155 1124
f 1124 1155 1156
f 1124 1156 1157
f 1124 1157 1158
f 1124 1158 1126
f 1124 1126 1125
f 1126 1158 1159
f 1126 1159 1160
f 1126 1160 1128
f 1126 1128 1127
f 1128 1160 1130
f 1128 1130 1129
f 1130 1160 1161
f 1130 1161 1162
f 1130 1162 1131
f 1131 1162 1132
f 1132 1162 1182
f 1132 1182 1163
f 1132 1163 1164
f 1132 1164 1133
f 1133 1164 1165
f 1133 1165 1134
f 1134 1165 1135
f 1135 1165 1136
f 1136 1165 1166
f 1137 1166 1167
f 1137 1167 1138
f 1142 1168 1148
f 1142 1143 1169
f 1142 1169 1168
f 1143 1144 1169
f 1144 1147 1170
f 1144 1170 1169
f 1148 1168 1171
f 1148 1171 1172
f 1148 1172 1173
f 1148 1173 1151
f 1151 1173 1174
f 1151 1174 1175
f 1151 1175 1152
f 1152 1154 1153
f 1152 1175 1176
f 1152 1176 1177
f 1152 1177 1178
f 1152 1178 1154
f 1154 1178 1179
f 1154 1179 1180
f 1154 1180 1156
f 1154 1156 1155
f 1156 1180 1157
f 1157 1159 1158
f 1159 1181 1160
f 1160 1181 1161
f 1161 1182 1162
f 1161 1181 1183
f 1161 1183 1182
f 1163 1182 1184
f 1163 1184 1185
f 1163 1185 1186
f 1163 1186 1164
f 1164 1187 1165
f 1165 1187 1167
f 1165 1167 1166
f 1168 1188 1171
f 1168 1169 1189
f 1168 1189 1188
f 1169 1170 1190
f 1169 1190 1189
f 1171 1191 1172
f 1172 1192 1173
f 1172 1191 1192
f 1173 1192 1174
f 1174 1176 1175
f 1177 1179 1178
f 1182 1183 1193
f 1182 1193 1184

