# https://github.com/mikedh/trimesh
v 0.00081054 0.01277998 0.00574893
v 0.00078579 0.01277998 0.00524640
v 0.00060552 0.01350695 0.00574893
v 0.00060552 0.01350633 0.00625003
v 0.00079286 0.01284140 0.00625003
v 0.00080936 0.01277998 0.00625003
v 0.00059256 0.01346150 0.00524640
v 0.00074573 0.01277998 0.00480992
v 0.00064676 0.01314930 0.00484438
v 0.00050890 0.01384699 0.00574893
v 0.00050890 0.01384699 0.00625003
v 0.00059256 0.01346109 0.00675256
v 0.00076812 0.01284140 0.00675256
v 0.00080700 0.01277998 0.00631177
v 0.00019077 0.01487121 0.00524353
v 0.00019195 0.01487121 0.00526507
v 0.00015660 0.01487121 0.00484581
v 0.00073631 0.01277998 0.00471085
v 0.00070567 0.01288766 0.00470367
v 0.00014718 0.01487121 0.00474243
v 0.00020491 0.01487121 0.00552638
v 0.00021552 0.01487121 0.00574893
v 0.00021787 0.01487121 0.00625003
v 0.00019195 0.01487121 0.00676118
v 0.00064676 0.01314950 0.00715028
v 0.00078461 0.01277998 0.00675256
v 0.00073513 0.01277998 0.00728668
v 0.00067857 0.01277998 0.00425139
v 0.00062791 0.01308604 0.00450840
v 0.00007530 0.01487121 0.00419683
v 0.00014836 0.01487121 0.00725653
v 0.00062791 0.01308420 0.00748626
v 0.00068328 0.01277998 0.00770163
v 0.00067621 0.01277998 0.00423990
v -0.00008258 0.01487121 0.00323340
v 0.00000579 0.01487121 0.00371870
v 0.00008119 0.01487121 0.00778204
v 0.00067504 0.01277998 0.00775906
v 0.00063498 0.01277998 0.00405325
v -0.00019098 0.01487121 0.00273087
v -0.00008612 0.01487121 0.00321617
v 0.00001050 0.01487121 0.00826159
v -0.00008023 0.01487121 0.00876556
v -0.00018863 0.01487121 0.00926810
v -0.00031941 0.01487121 0.00977206
v -0.00033709 0.01487121 0.00982806
v -0.00036772 0.01465093 0.01004343
v -0.00034416 0.01434999 0.01012096
v -0.00043253 0.01434999 0.01037223
v -0.00064933 0.01277998 0.01127679
v -0.00043253 0.01434999 0.00163104
v -0.00034533 0.01434999 0.00188231
v -0.00038775 0.01487121 0.00201871
v -0.00032766 0.01487121 0.00220967
v -0.00064697 0.01277998 0.00072218
v -0.00047259 0.01487121 0.01023870
v -0.00068585 0.01487121 0.01077713
v -0.00060455 0.01434999 0.01077713
v -0.00075419 0.01384699 0.01121792
v -0.00082960 0.01277998 0.01158549
v -0.00049380 0.01487121 0.00171863
v -0.00047730 0.01487121 0.00176170
v -0.00060573 0.01434999 0.00122184
v -0.00068821 0.01487121 0.00122184
v -0.00079779 0.01277998 0.00045655
v -0.00075537 0.01384699 0.00078104
v -0.00083196 0.01487121 0.01109300
v -0.00083667 0.01487121 0.01110306
v -0.00098159 0.01487121 0.01134571
v -0.00123845 0.01487121 0.01170897
v -0.00145290 0.01487121 0.01196023
v -0.00107939 0.01277998 0.01183675
v -0.00098749 0.01487121 0.01135432
v -0.00083667 0.01487121 0.00089591
v -0.00082842 0.01277998 0.00041204
v -0.00099691 0.01487121 0.00063028
v -0.00098749 0.01487121 0.00064464
v -0.00084138 0.01487121 0.00088729
v -0.00170387 0.01487121 0.01218422
v -0.00133036 0.01277998 0.01207653
v -0.00104758 0.01277998 0.00019093
v -0.00145408 0.01487121 0.00004017
v -0.00124670 0.01487121 0.00028282
v -0.00123963 0.01487121 0.00029143
v -0.00203024 0.01487121 0.01242687
v -0.00204203 0.01485299 0.01243692
v -0.00163317 0.01277998 0.01228760
v -0.00107821 0.01277998 0.00016078
v -0.00129972 0.01277998 -0.00005029
v -0.00146350 0.01487121 0.00003155
v -0.00204203 0.01487121 0.01243548
v -0.00196073 0.01277998 0.01249866
v -0.00229299 0.01487121 0.01259055
v -0.00133036 0.01277998 -0.00007757
v -0.00133389 0.01284140 -0.00007470
v -0.00170622 0.01487121 -0.00018382
v -0.00221287 0.01277998 0.01261927
v -0.00262644 0.01487121 0.01274275
v -0.00159193 0.01277998 -0.00026135
v -0.00204320 0.01487121 -0.00043508
v -0.00263940 0.01487121 0.01274849
v -0.00226825 0.01277998 0.01264224
v -0.00163317 0.01277998 -0.00028863
v -0.00192656 0.01277998 -0.00047529
v -0.00196308 0.01277998 -0.00049826
v -0.00229535 0.01487121 -0.00059302
v -0.00263940 0.01277998 0.01279443
v -0.00314252 0.01487121 0.01292653
v -0.00218342 0.01277998 -0.00060594
v -0.00230713 0.01487121 -0.00059877
v -0.00314252 0.01277998 0.01294807
v -0.00350189 0.01487121 0.01301986
v -0.00221405 0.01277998 -0.00061887
v -0.00263940 0.01487121 -0.00075096
v -0.00347007 0.01277998 0.01302560
v -0.00374461 0.01487121 0.01306580
v -0.00414757 0.01277998 0.01315769
v -0.00350071 0.01277998 0.01303278
v -0.00258402 0.01277998 -0.00076963
v -0.00265708 0.01487121 -0.00075814
v -0.00375286 0.01487121 0.01306724
v -0.00414757 0.01487121 0.01313041
v -0.00465069 0.01277998 0.01323236
v -0.00263940 0.01277998 -0.00079116
v -0.00314252 0.01487121 -0.00092469
v -0.00463301 0.01487121 0.01319072
v -0.00515380 0.01485299 0.01324528
v -0.00515380 0.01277998 0.01328404
v -0.00308125 0.01277998 -0.00092756
v -0.00315666 0.01487121 -0.00092900
v -0.00513613 0.01487121 0.01324241
v -0.00515380 0.01487121 0.01324384
v -0.00563689 0.01487121 0.01328117
v -0.00565574 0.01487121 0.01328261
v -0.00565574 0.01284140 0.01331994
v -0.00521390 0.01277998 0.01328835
v -0.00314252 0.01277998 -0.00094623
v -0.00343473 0.01277998 -0.00101802
v -0.00353723 0.01487121 -0.00101802
v -0.00615886 0.01487121 0.01329984
v -0.00615886 0.01277998 0.01333430
v -0.00565574 0.01277998 0.01331994
v -0.00347243 0.01277998 -0.00102664
v -0.00380234 0.01487121 -0.00106110
v -0.00372340 0.01277998 -0.00107545
v -0.00409337 0.01277998 -0.00114724
v -0.00414757 0.01277998 -0.00115729
v -0.00666197 0.01487121 0.01328979
v -0.00666197 0.01434999 0.01329840
v -0.00666197 0.01277998 0.01332425
v -0.00414757 0.01487121 -0.00111709
v -0.00458942 0.01277998 -0.00122334
v -0.00716509 0.01334419 0.01326538
v -0.00716509 0.01277998 0.01327543
v -0.00672324 0.01277998 0.01331850
v -0.00716509 0.01487121 0.01323810
v -0.00465069 0.01487121 -0.00118888
v -0.00465069 0.01277998 -0.00123196
v -0.00766821 0.01277998 0.01317492
v -0.00766938 0.01487121 0.01312754
v -0.00766821 0.01485299 0.01312898
v -0.00515380 0.01487121 -0.00124488
v -0.00509253 0.01277998 -0.00127790
v -0.00801815 0.01277998 0.01307585
v -0.00793803 0.01487121 0.01304857
v -0.00795688 0.01434999 0.01305575
v -0.00515380 0.01277998 -0.00128364
v -0.00517266 0.01487121 -0.00124631
v -0.00804878 0.01277998 0.01306437
v -0.00818782 0.01487121 0.01293945
v -0.00819017 0.01485299 0.01293945
v -0.00826912 0.01277998 0.01298109
v -0.00559447 0.01277998 -0.00131667
v -0.00565574 0.01487121 -0.00128221
v -0.00871450 0.01487121 0.01266091
v -0.00867326 0.01434999 0.01270972
v -0.00867326 0.01334419 0.01275854
v -0.00867326 0.01277998 0.01278438
v -0.00565574 0.01277998 -0.00132098
v -0.00615886 0.01485299 -0.00129944
v -0.00615886 0.01487121 -0.00129800
v -0.00892069 0.01487121 0.01253455
v -0.00893012 0.01466363 0.01254030
v -0.00894190 0.01434999 0.01255035
v -0.00898079 0.01334419 0.01257763
v -0.00900082 0.01284140 0.01259055
v -0.00871568 0.01277998 0.01275998
v -0.00609759 0.01277998 -0.00133246
v -0.00615886 0.01277998 -0.00133390
v -0.00666197 0.01487121 -0.00128939
v -0.00617653 0.01487121 -0.00129800
v -0.00913514 0.01487121 0.01234790
v -0.00923293 0.01334419 0.01237518
v -0.00925178 0.01284140 0.01239385
v -0.00903381 0.01277998 0.01256901
v -0.00900317 0.01277998 0.01259199
v -0.00660070 0.01277998 -0.00132528
v -0.00667965 0.01487121 -0.00128795
v -0.00666197 0.01434999 -0.00129800
v -0.00944620 0.01487121 0.01206935
v -0.00945444 0.01485299 0.01206361
v -0.00949333 0.01384699 0.01210381
v -0.00953574 0.01277998 0.01214401
v -0.00928831 0.01277998 0.01236513
v -0.00925414 0.01277998 0.01239528
v -0.00666197 0.01277998 -0.00132385
v -0.00710382 0.01277998 -0.00128364
v -0.00716509 0.01277998 -0.00127790
v -0.00716509 0.01334419 -0.00126785
v -0.00716509 0.01485299 -0.00123914
v -0.00716509 0.01487121 -0.00123770
v -0.00945327 0.01487121 0.01206217
v -0.00967124 0.01487121 0.01178506
v -0.00998230 0.01284140 0.01160272
v -0.00981146 0.01277998 0.01182670
v -0.00978436 0.01284140 0.01185398
v -0.00978671 0.01277998 0.01185685
v -0.00956638 0.01277998 0.01210956
v -0.00766821 0.01277998 -0.00118170
v -0.00766821 0.01334419 -0.00116878
v -0.00766821 0.01485299 -0.00113001
v -0.00766938 0.01487121 -0.00112858
v -0.00988804 0.01487121 0.01149359
v -0.00993046 0.01409000 0.01153093
v -0.01018850 0.01277998 0.01127966
v -0.01001176 0.01277998 0.01156251
v -0.00998466 0.01277998 0.01160559
v -0.00798162 0.01277998 -0.00109412
v -0.00802522 0.01284140 -0.00108120
v -0.00796277 0.01434999 -0.00105822
v -0.00794156 0.01487121 -0.00104961
v -0.00768117 0.01487121 -0.00112571
v -0.00989865 0.01487121 0.01147924
v -0.01004357 0.01487121 0.01123802
v -0.01038527 0.01277998 0.01092358
v -0.00802757 0.01277998 -0.00108120
v -0.00827854 0.01277998 -0.00098500
v -0.00825616 0.01334419 -0.00097495
v -0.00794863 0.01487121 -0.00104674
v -0.01026980 0.01487121 0.01079292
v -0.01038291 0.01284140 0.01091784
v -0.01039941 0.01277998 0.01089343
v -0.00867326 0.01277998 -0.00078829
v -0.00821492 0.01434999 -0.00095628
v -0.00819135 0.01487121 -0.00094623
v -0.01027687 0.01487121 0.01077713
v -0.01027923 0.01485299 0.01077713
v -0.01049838 0.01284140 0.01066657
v -0.01050074 0.01277998 0.01067231
v -0.00900199 0.01277998 -0.00059302
v -0.00867326 0.01384699 -0.00074378
v -0.00821138 0.01487121 -0.00093618
v -0.01040530 0.01487121 0.01047417
v -0.01041237 0.01485299 0.01046269
v -0.01042651 0.01451295 0.01050432
v -0.01044065 0.01417782 0.01054022
v -0.01064684 0.01284140 0.01027460
v -0.01065155 0.01277998 0.01027460
v -0.00925296 0.01277998 -0.00039632
v -0.00896547 0.01384699 -0.00056861
v -0.00867326 0.01434999 -0.00072224
v -0.00870979 0.01487121 -0.00067486
v -0.01041119 0.01487121 0.01045981
v -0.01049367 0.01487121 0.01021860
v -0.01080473 0.01284140 0.00977063
v -0.01081062 0.01277998 0.00976632
v -0.00953810 0.01277998 -0.00014505
v -0.00925061 0.01284140 -0.00039488
v -0.00893483 0.01473814 -0.00054564
v -0.00872039 0.01487121 -0.00066912
v -0.01063270 0.01487121 0.00977063
v -0.01082240 0.01277998 0.00972325
v -0.00978907 0.01277998 0.00013637
v -0.00953574 0.01284140 -0.00014361
v -0.00874160 0.01487121 -0.00065620
v -0.00913396 0.01487121 -0.00036042
v -0.00911393 0.01487121 -0.00037765
v -0.01075524 0.01487121 0.00926810
v -0.01090959 0.01277998 0.00938152
v -0.00996581 0.01277998 0.00035748
v -0.00967949 0.01487121 0.00021390
v -0.00945680 0.01485299 -0.00006608
v -0.00951571 0.01334419 -0.00012495
v -0.00926828 0.01487121 -0.00023694
v -0.01084950 0.01487121 0.00876556
v -0.01094376 0.01316609 0.00904842
v -0.01084243 0.01384699 0.00926810
v -0.01090724 0.01284140 0.00936860
v -0.01091431 0.01277998 0.00935855
v -0.00999055 0.01277998 0.00038907
v -0.00998820 0.01284140 0.00039194
v -0.00994696 0.01384699 0.00044650
v -0.00993400 0.01414199 0.00046230
v -0.00991986 0.01447733 0.00048383
v -0.00990454 0.01485299 0.00050968
v -0.00990336 0.01487121 0.00051111
v -0.00946151 0.01487121 -0.00005747
v -0.00945562 0.01487121 -0.00006465
v -0.01089781 0.01435224 0.00873972
v -0.01092020 0.01487121 0.00828457
v -0.01093080 0.01452134 0.00845256
v -0.01094376 0.01418601 0.00855450
v -0.01102035 0.01284140 0.00876556
v -0.01095908 0.01277998 0.00913600
v -0.01019793 0.01277998 0.00071930
v -0.00990925 0.01487121 0.00051973
v -0.01096968 0.01487121 0.00783372
v -0.01110401 0.01277998 0.00820129
v -0.01109222 0.01284140 0.00826159
v -0.01103449 0.01277998 0.00870382
v -0.01102506 0.01277998 0.00876556
v -0.01038998 0.01277998 0.00106677
v -0.01005064 0.01487121 0.00076238
v -0.01097322 0.01487121 0.00779639
v -0.01106277 0.01384699 0.00775906
v -0.01114642 0.01284140 0.00775906
v -0.01109694 0.01277998 0.00826159
v -0.01115114 0.01277998 0.00775906
v -0.01048895 0.01277998 0.00128645
v -0.01036642 0.01334419 0.00111846
v -0.01028276 0.01487121 0.00122184
v -0.01101681 0.01487121 0.00725653
v -0.01102035 0.01434999 0.00775906
v -0.01114289 0.01334419 0.00725653
v -0.01118413 0.01284140 0.00725653
v -0.01115585 0.01277998 0.00769732
v -0.01050192 0.01277998 0.00131804
v -0.01049956 0.01284140 0.00132378
v -0.01047835 0.01334419 0.00136973
v -0.01045832 0.01384699 0.00141854
v -0.01034285 0.01436330 0.00125917
v -0.01044300 0.01420443 0.00145300
v -0.01042886 0.01453977 0.00148890
v -0.01041472 0.01487121 0.00153054
v -0.01103684 0.01487121 0.00675256
v -0.01108044 0.01434999 0.00675256
v -0.01116410 0.01334419 0.00675256
v -0.01118884 0.01277998 0.00725653
v -0.01120534 0.01284140 0.00675256
v -0.01065273 0.01277998 0.00172437
v -0.01056436 0.01384699 0.00172437
v -0.01049838 0.01487121 0.00178180
v -0.01105216 0.01487121 0.00626870
v -0.01105452 0.01485299 0.00625003
v -0.01122654 0.01277998 0.00625003
v -0.01121240 0.01277998 0.00669226
v -0.01121005 0.01277998 0.00675256
v -0.01081062 0.01277998 0.00223264
v -0.01063270 0.01487121 0.00222834
v -0.01105334 0.01487121 0.00576760
v -0.01105334 0.01487121 0.00574893
v -0.01122065 0.01284140 0.00574893
v -0.01122537 0.01277998 0.00574893
v -0.01090959 0.01277998 0.00261600
v -0.01063742 0.01487121 0.00224700
v -0.01104156 0.01487121 0.00526363
v -0.01104274 0.01485299 0.00524640
v -0.01122419 0.01277998 0.00568719
v -0.01095201 0.01277998 0.00282850
v -0.01075524 0.01487121 0.00273087
v -0.01101681 0.01487121 0.00476110
v -0.01121005 0.01277998 0.00518466
v -0.01120769 0.01284140 0.00524640
v -0.01105923 0.01434999 0.00474243
v -0.01118413 0.01284140 0.00474243
v -0.01121240 0.01277998 0.00524640
v -0.01102388 0.01277998 0.00323340
v -0.01101917 0.01284140 0.00323340
v -0.01095672 0.01284140 0.00288163
v -0.01094258 0.01316465 0.00295198
v -0.01092845 0.01349999 0.00302952
v -0.01085068 0.01485299 0.00323340
v -0.01085186 0.01487121 0.00325207
v -0.01101564 0.01487121 0.00474100
v -0.01118884 0.01277998 0.00474243
v -0.01106041 0.01384699 0.00423990
v -0.01114407 0.01284140 0.00423990
v -0.01118413 0.01277998 0.00468213
v -0.01109811 0.01277998 0.00373737
v -0.01094376 0.01417536 0.00344734
v -0.01089781 0.01434569 0.00326068
v -0.01091431 0.01384699 0.00311423
v -0.01092962 0.01451070 0.00354784
v -0.01091784 0.01487121 0.00370291
v -0.01099678 0.01487121 0.00450983
v -0.01096615 0.01487121 0.00414083
v -0.01114878 0.01277998 0.00423990
v -0.01094965 0.01475718 0.00388239
v -0.01114289 0.01277998 0.00417816
v -0.01100857 0.01384699 0.00373737
v -0.01096497 0.01434569 0.00372301
v -0.01092373 0.01487121 0.00375173
f 1 2 3
f 1 3 4
f 1 4 5
f 1 5 6
f 1 6 14
f 1 14 26
f 1 26 27
f 1 27 33
f 1 33 38
f 1 38 50
f 1 50 60
f 1 60 72
f 1 72 80
f 1 80 87
f 1 87 92
f 1 92 97
f 1 97 102
f 1 102 107
f 1 107 111
f 1 111 115
f 1 115 118
f 1 118 117
f 1 117 123
f 1 123 128
f 1 128 136
f 1 136 142
f 1 142 141
f 1 141 150
f 1 150 155
f 1 155 154
f 1 154 159
f 1 159 164
f 1 164 169
f 1 169 172
f 1 172 178
f 1 178 187
f 1 187 196
f 1 196 195
f 1 195 205
f 1 205 204
f 1 204 203
f 1 203 218
f 1 218 217
f 1 217 215
f 1 215 227
f 1 227 226
f 1 226 225
f 1 225 235
f 1 235 242
f 1 242 249
f 1 249 258
f 1 258 266
f 1 266 272
f 1 272 279
f 1 279 289
f 1 289 304
f 1 304 311
f 1 311 310
f 1 310 317
f 1 317 308
f 1 308 318
f 1 318 326
f 1 326 338
f 1 338 347
f 1 347 346
f 1 346 345
f 1 345 353
f 1 353 358
f 1 358 366
f 1 366 362
f 1 362 375
f 1 375 378
f 1 378 387
f 1 387 389
f 1 389 379
f 1 379 367
f 1 367 359
f 1 359 354
f 1 354 348
f 1 348 340
f 1 340 327
f 1 327 319
f 1 319 312
f 1 312 305
f 1 305 290
f 1 290 280
f 1 280 273
f 1 273 267
f 1 267 259
f 1 259 250
f 1 250 243
f 1 243 237
f 1 237 236
f 1 236 228
f 1 228 219
f 1 219 208
f 1 208 207
f 1 207 206
f 1 206 197
f 1 197 189
f 1 189 188
f 1 188 179
f 1 179 173
f 1 173 167
f 1 167 163
f 1 163 158
f 1 158 152
f 1 152 147
f 1 147 146
f 1 146 145
f 1 145 143
f 1 143 138
f 1 138 137
f 1 137 129
f 1 129 124
f 1 124 119
f 1 119 113
f 1 113 109
f 1 109 105
f 1 105 104
f 1 104 103
f 1 103 99
f 1 99 94
f 1 94 89
f 1 89 88
f 1 88 81
f 1 81 75
f 1 75 65
f 1 65 55
f 1 55 39
f 1 39 34
f 1 34 28
f 1 28 18
f 1 18 8
f 1 8 2
f 2 7 3
f 2 8 9
f 2 9 7
f 3 7 10
f 3 10 11
f 3 11 4
f 4 11 12
f 4 12 13
f 4 13 5
f 5 13 14
f 5 14 6
f 7 15 16
f 7 16 10
f 7 9 17
f 7 17 15
f 8 18 9
f 9 18 19
f 9 19 20
f 9 20 17
f 10 16 21
f 10 21 22
f 10 22 23
f 10 23 11
f 11 23 24
f 11 24 12
f 12 24 25
f 12 25 13
f 13 26 14
f 13 25 27
f 13 27 26
f 15 17 20
f 15 20 30
f 15 30 36
f 15 36 35
f 15 35 41
f 15 41 40
f 15 40 54
f 15 54 53
f 15 53 62
f 15 62 61
f 15 61 64
f 15 64 74
f 15 74 78
f 15 78 77
f 15 77 76
f 15 76 84
f 15 84 83
f 15 83 82
f 15 82 90
f 15 90 96
f 15 96 100
f 15 100 106
f 15 106 110
f 15 110 114
f 15 114 120
f 15 120 125
f 15 125 130
f 15 130 139
f 15 139 144
f 15 144 151
f 15 151 157
f 15 157 162
f 15 162 168
f 15 168 174
f 15 174 181
f 15 181 191
f 15 191 190
f 15 190 198
f 15 198 211
f 15 211 222
f 15 222 232
f 15 232 231
f 15 231 239
f 15 239 245
f 15 245 252
f 15 252 262
f 15 262 270
f 15 270 275
f 15 275 277
f 15 277 276
f 15 276 284
f 15 284 298
f 15 298 297
f 15 297 281
f 15 281 296
f 15 296 306
f 15 306 313
f 15 313 321
f 15 321 334
f 15 334 342
f 15 342 349
f 15 349 355
f 15 355 360
f 15 360 373
f 15 373 384
f 15 384 392
f 15 392 386
f 15 386 385
f 15 385 374
f 15 374 361
f 15 361 356
f 15 356 351
f 15 351 350
f 15 350 343
f 15 343 335
f 15 335 322
f 15 322 314
f 15 314 307
f 15 307 300
f 15 300 285
f 15 285 278
f 15 278 271
f 15 271 264
f 15 264 263
f 15 263 253
f 15 253 246
f 15 246 240
f 15 240 234
f 15 234 233
f 15 233 223
f 15 223 213
f 15 213 212
f 15 212 200
f 15 200 192
f 15 192 182
f 15 182 175
f 15 175 170
f 15 170 165
f 15 165 160
f 15 160 156
f 15 156 148
f 15 148 140
f 15 140 134
f 15 134 133
f 15 133 132
f 15 132 131
f 15 131 126
f 15 126 122
f 15 122 121
f 15 121 116
f 15 116 112
f 15 112 108
f 15 108 101
f 15 101 98
f 15 98 93
f 15 93 91
f 15 91 85
f 15 85 79
f 15 79 71
f 15 71 70
f 15 70 73
f 15 73 69
f 15 69 68
f 15 68 67
f 15 67 57
f 15 57 56
f 15 56 46
f 15 46 45
f 15 45 44
f 15 44 43
f 15 43 42
f 15 42 37
f 15 37 31
f 15 31 24
f 15 24 23
f 15 23 22
f 15 22 21
f 15 21 16
f 18 28 29
f 18 29 19
f 19 29 20
f 20 29 30
f 24 31 25
f 25 31 32
f 25 32 27
f 27 32 33
f 28 34 41
f 28 41 35
f 28 35 36
f 28 36 30
f 28 30 29
f 31 37 32
f 32 37 33
f 33 37 38
f 34 39 40
f 34 40 41
f 37 42 38
f 38 42 43
f 38 43 44
f 38 44 45
f 38 45 46
f 38 46 47
f 38 47 48
f 38 48 49
f 38 49 50
f 39 51 52
f 39 52 53
f 39 53 54
f 39 54 40
f 39 55 51
f 46 56 47
f 47 56 48
f 48 56 49
f 49 56 57
f 49 57 58
f 49 58 50
f 50 58 59
f 50 59 60
f 51 61 62
f 51 62 53
f 51 53 52
f 51 55 63
f 51 63 64
f 51 64 61
f 55 65 66
f 55 66 63
f 57 67 58
f 58 67 68
f 58 68 59
f 59 68 69
f 59 69 60
f 60 70 71
f 60 71 72
f 60 69 73
f 60 73 70
f 63 66 74
f 63 74 64
f 65 75 76
f 65 76 77
f 65 77 66
f 66 77 78
f 66 78 74
f 71 79 80
f 71 80 72
f 75 81 82
f 75 82 83
f 75 83 84
f 75 84 76
f 79 85 80
f 80 85 86
f 80 86 87
f 81 88 82
f 82 88 89
f 82 89 90
f 85 91 86
f 86 92 87
f 86 91 93
f 86 93 92
f 89 94 95
f 89 95 90
f 90 95 96
f 92 93 97
f 93 98 97
f 94 96 95
f 94 99 100
f 94 100 96
f 97 98 101
f 97 101 102
f 99 103 100
f 100 103 104
f 100 104 105
f 100 105 106
f 101 107 102
f 101 108 107
f 105 109 106
f 106 109 110
f 107 108 111
f 108 112 111
f 109 113 114
f 109 114 110
f 111 112 115
f 112 116 117
f 112 117 118
f 112 118 115
f 113 119 114
f 114 119 120
f 116 121 117
f 117 122 123
f 117 121 122
f 119 124 120
f 120 124 125
f 122 126 123
f 123 126 127
f 123 127 128
f 124 129 125
f 125 129 137
f 125 137 130
f 126 131 127
f 127 131 132
f 127 132 133
f 127 133 134
f 127 134 128
f 128 134 135
f 128 135 136
f 130 137 138
f 130 138 139
f 134 140 135
f 135 140 141
f 135 141 142
f 135 142 136
f 138 143 139
f 139 143 145
f 139 145 146
f 139 146 147
f 139 147 144
f 140 148 149
f 140 149 141
f 141 149 150
f 144 147 151
f 147 152 151
f 148 153 154
f 148 154 155
f 148 155 149
f 148 156 153
f 149 155 150
f 151 152 157
f 152 158 157
f 153 156 159
f 153 159 154
f 156 160 161
f 156 161 159
f 157 158 162
f 158 163 162
f 159 161 164
f 160 165 161
f 161 165 166
f 161 166 164
f 162 163 167
f 162 167 168
f 164 166 165
f 164 165 169
f 165 170 171
f 165 171 172
f 165 172 169
f 167 173 168
f 168 173 174
f 170 175 171
f 171 175 176
f 171 176 177
f 171 177 178
f 171 178 172
f 173 179 174
f 174 179 180
f 174 180 181
f 175 182 183
f 175 183 184
f 175 184 185
f 175 185 186
f 175 186 177
f 175 177 176
f 177 186 187
f 177 187 178
f 179 188 180
f 180 188 189
f 180 189 190
f 180 190 191
f 180 191 181
f 182 192 193
f 182 193 194
f 182 194 183
f 183 194 184
f 184 194 195
f 184 195 185
f 185 195 186
f 186 195 196
f 186 196 187
f 189 197 190
f 190 197 199
f 190 199 198
f 192 200 201
f 192 201 193
f 193 201 202
f 193 202 203
f 193 203 194
f 194 203 204
f 194 204 205
f 194 205 195
f 197 206 199
f 198 199 206
f 198 206 207
f 198 207 208
f 198 208 209
f 198 209 210
f 198 210 211
f 200 212 201
f 201 212 213
f 201 213 214
f 201 214 215
f 201 215 216
f 201 216 217
f 201 217 202
f 202 217 218
f 202 218 203
f 208 219 209
f 209 219 210
f 210 219 220
f 210 220 221
f 210 221 222
f 210 222 211
f 213 223 224
f 213 224 214
f 214 224 225
f 214 225 226
f 214 226 227
f 214 227 215
f 215 217 216
f 219 228 229
f 219 229 220
f 220 229 221
f 221 229 230
f 221 230 231
f 221 231 232
f 221 232 222
f 223 233 224
f 224 233 225
f 225 233 234
f 225 234 235
f 228 236 229
f 229 236 237
f 229 237 230
f 230 237 231
f 231 237 238
f 231 238 239
f 234 240 241
f 234 241 235
f 235 241 242
f 237 243 238
f 238 244 239
f 238 243 244
f 239 244 245
f 240 246 247
f 240 247 241
f 241 247 242
f 242 247 248
f 242 248 249
f 243 250 251
f 243 251 244
f 244 251 252
f 244 252 245
f 246 253 247
f 247 253 254
f 247 254 255
f 247 255 256
f 247 256 248
f 248 256 257
f 248 257 258
f 248 258 249
f 250 259 260
f 250 260 261
f 250 261 251
f 251 261 252
f 252 261 262
f 253 263 254
f 254 263 264
f 254 264 257
f 254 257 255
f 255 257 256
f 257 264 265
f 257 265 258
f 258 265 266
f 259 267 274
f 259 274 268
f 259 268 269
f 259 269 260
f 260 269 261
f 261 269 270
f 261 270 262
f 264 271 265
f 265 271 272
f 265 272 266
f 267 273 274
f 268 274 269
f 269 275 270
f 269 274 276
f 269 276 277
f 269 277 275
f 271 278 279
f 271 279 272
f 273 280 281
f 273 281 282
f 273 282 283
f 273 283 274
f 274 283 276
f 276 283 282
f 276 282 284
f 278 285 286
f 278 286 287
f 278 287 288
f 278 288 279
f 279 288 289
f 280 290 291
f 280 291 281
f 281 291 292
f 281 292 293
f 281 293 294
f 281 294 295
f 281 295 296
f 281 297 282
f 282 297 298
f 282 298 284
f 285 299 286
f 285 300 301
f 285 301 302
f 285 302 299
f 286 299 303
f 286 303 304
f 286 304 287
f 287 304 288
f 288 304 289
f 290 305 291
f 291 305 292
f 292 305 293
f 293 305 294
f 294 305 306
f 294 306 295
f 295 306 296
f 299 302 303
f 300 307 308
f 300 308 309
f 300 309 301
f 301 309 302
f 302 309 310
f 302 310 303
f 303 310 311
f 303 311 304
f 305 312 313
f 305 313 306
f 307 314 315
f 307 315 316
f 307 316 308
f 308 317 309
f 308 316 318
f 309 317 310
f 312 319 320
f 312 320 313
f 313 320 321
f 314 322 323
f 314 323 315
f 315 323 322
f 315 322 316
f 316 322 324
f 316 324 325
f 316 325 326
f 316 326 318
f 319 327 328
f 319 328 329
f 319 329 330
f 319 330 320
f 320 330 331
f 320 331 321
f 321 331 330
f 321 330 332
f 321 332 333
f 321 333 334
f 322 335 336
f 322 336 337
f 322 337 324
f 324 337 339
f 324 339 325
f 325 338 326
f 325 339 347
f 325 347 338
f 327 340 328
f 328 330 329
f 328 340 330
f 330 340 332
f 332 340 333
f 333 340 341
f 333 341 342
f 333 342 334
f 335 343 344
f 335 344 336
f 336 344 337
f 337 344 345
f 337 345 346
f 337 346 339
f 339 346 347
f 340 348 342
f 340 342 341
f 342 348 349
f 343 350 344
f 344 350 345
f 345 350 351
f 345 351 352
f 345 352 353
f 348 354 349
f 349 354 355
f 351 356 357
f 351 357 352
f 352 357 358
f 352 358 353
f 354 359 360
f 354 360 355
f 356 361 357
f 357 362 363
f 357 363 358
f 357 361 364
f 357 364 365
f 357 365 362
f 358 363 366
f 359 367 368
f 359 368 369
f 359 369 370
f 359 370 360
f 360 370 371
f 360 371 372
f 360 372 373
f 361 374 364
f 362 366 363
f 362 365 375
f 364 374 376
f 364 376 377
f 364 377 365
f 365 377 378
f 365 378 375
f 367 379 368
f 368 379 380
f 368 380 381
f 368 381 372
f 368 372 382
f 368 382 371
f 368 371 370
f 368 370 369
f 371 382 372
f 372 381 380
f 372 380 383
f 372 383 373
f 373 383 384
f 374 385 376
f 376 385 386
f 376 386 377
f 377 387 378
f 377 386 388
f 377 388 389
f 377 389 387
f 379 389 388
f 379 388 390
f 379 390 391
f 379 391 383
f 379 383 380
f 383 391 388
f 383 388 384
f 384 388 392
f 386 392 388
f 388 391 390

