# https://github.com/mikedh/trimesh
v 0.00215739 0.00239907 0.00826297
v 0.00210630 0.00239907 0.00776000
v 0.00215476 0.00239907 0.00876569
v 0.00232752 0.00222938 0.00876569
v 0.00232541 0.00223074 0.00826297
v 0.00208102 0.00239907 0.00770958
v 0.00229592 0.00220345 0.00776000
v 0.00222481 0.00212565 0.00746361
v 0.00200043 0.00239907 0.00926866
v 0.00226853 0.00216478 0.00926866
v 0.00257876 0.00193139 0.00876569
v 0.00257665 0.00193048 0.00826297
v 0.00254768 0.00191001 0.00776000
v 0.00183294 0.00239907 0.00744403
v 0.00269306 0.00159974 0.00747120
v 0.00189404 0.00228716 0.00743008
v 0.00239178 0.00177080 0.00743204
v 0.00218531 0.00207606 0.00955600
v 0.00173497 0.00239907 0.00955624
v 0.00253662 0.00178809 0.00930782
v 0.00271096 0.00162886 0.00916611
v 0.00274625 0.00167981 0.00876569
v 0.00274941 0.00167890 0.00826297
v 0.00273467 0.00165888 0.00776000
v 0.00175235 0.00239907 0.00743399
v 0.00291427 0.00127264 0.00776000
v 0.00314655 0.00052245 0.00750742
v 0.00275257 0.00127264 0.00744672
v 0.00188772 0.00177580 0.00737354
v 0.00138524 0.00227851 0.00737648
v 0.00138524 0.00239907 0.00739630
v 0.00239073 0.00127264 0.00737917
v 0.00183873 0.00225758 0.00959345
v 0.00188772 0.00177580 0.00973932
v 0.00229012 0.00177580 0.00961107
v 0.00272097 0.00116937 0.00958439
v 0.00262932 0.00150466 0.00950142
v 0.00138524 0.00239907 0.00965831
v 0.00281894 0.00131131 0.00930782
v 0.00296589 0.00127264 0.00876569
v 0.00296536 0.00127264 0.00826297
v 0.00311021 0.00086502 0.00826297
v 0.00307334 0.00081907 0.00776000
v 0.00315709 0.00056749 0.00776000
v 0.00320449 0.00026677 0.00776000
v 0.00316288 0.00026677 0.00749053
v 0.00289373 0.00026677 0.00742298
v 0.00239073 0.00076948 0.00737354
v -0.00214318 0.00239907 0.00731333
v 0.00076162 0.00239907 0.00737672
v 0.00128148 0.00239907 0.00739043
v 0.00138524 0.00227851 0.00970530
v 0.00188772 0.00127264 0.00977652
v 0.00239073 0.00076948 0.00975719
v 0.00243339 0.00131131 0.00966124
v 0.00088223 0.00227851 0.00976869
v 0.00138524 0.00177580 0.00977652
v 0.00278628 0.00076948 0.00962894
v 0.00308282 0.00026677 0.00939495
v 0.00304753 0.00076357 0.00924810
v 0.00088223 0.00239907 0.00973296
v 0.00316130 0.00059160 0.00906649
v 0.00311337 0.00087412 0.00876569
v 0.00316709 0.00061343 0.00826297
v 0.00322977 0.00026677 0.00826297
v 0.00323346 -0.00023594 0.00826297
v 0.00320449 -0.00023594 0.00776000
v 0.00316235 -0.00023594 0.00749102
v 0.00289373 -0.00023594 0.00742347
v 0.00239073 -0.00073864 0.00737354
v -0.00213528 -0.00224859 0.00737354
v -0.00214318 -0.00224813 0.00737354
v -0.00214318 0.00239907 0.00981372
v 0.00188772 -0.00174451 0.00737354
v 0.00138471 -0.00224859 0.00737427
v 0.00088223 -0.00224859 0.00737354
v 0.00239073 -0.00023594 0.00977432
v 0.00239073 0.00026677 0.00977310
v 0.00283158 0.00026677 0.00964485
v 0.00308493 -0.00023594 0.00940009
v 0.00318974 0.00026677 0.00914359
v 0.00323293 0.00026677 0.00876569
v 0.00316815 0.00062253 0.00876569
v 0.00323767 -0.00023594 0.00876569
v 0.00317025 -0.00063583 0.00826297
v 0.00315709 -0.00056031 0.00776000
v 0.00314550 -0.00048888 0.00750815
v 0.00276363 -0.00124181 0.00744623
v 0.00239073 -0.00124181 0.00737868
v -0.00214318 -0.00224859 0.00741001
v -0.00214318 -0.00224768 0.00977652
v -0.00213528 -0.00224859 0.00977652
v 0.00037975 -0.00224859 0.00977652
v 0.00088223 -0.00224768 0.00977579
v 0.00138524 -0.00174451 0.00977652
v 0.00188772 -0.00124181 0.00977652
v 0.00239968 -0.00174815 0.00743179
v 0.00189667 -0.00224859 0.00742714
v 0.00142158 -0.00224859 0.00737794
v 0.00239073 -0.00073864 0.00976037
v 0.00283369 -0.00023594 0.00964607
v 0.00279313 -0.00073864 0.00963212
v 0.00272729 -0.00115173 0.00958684
v 0.00305754 -0.00075002 0.00925202
v 0.00316341 -0.00058988 0.00907310
v 0.00319185 -0.00023594 0.00914849
v 0.00317236 -0.00064083 0.00876569
v 0.00312759 -0.00088741 0.00826297
v 0.00309493 -0.00081189 0.00776000
v 0.00293587 -0.00124181 0.00776000
v 0.00269148 -0.00158301 0.00747046
v 0.00088223 -0.00224859 0.00977554
v 0.00138524 -0.00224768 0.00972219
v 0.00188772 -0.00174451 0.00974397
v 0.00223798 -0.00209618 0.00746361
v 0.00191563 -0.00224859 0.00743008
v 0.00243866 -0.00128821 0.00966271
v 0.00230435 -0.00174451 0.00961572
v 0.00263828 -0.00148702 0.00951488
v 0.00283263 -0.00128821 0.00931565
v 0.00312759 -0.00089241 0.00876569
v 0.00299117 -0.00124181 0.00876569
v 0.00298907 -0.00124181 0.00826297
v 0.00273467 -0.00165489 0.00776000
v 0.00257033 -0.00190647 0.00776000
v 0.00138524 -0.00224859 0.00972194
v 0.00185190 -0.00223221 0.00960520
v 0.00219584 -0.00205433 0.00956236
v 0.00231857 -0.00217671 0.00776000
v 0.00224588 -0.00224859 0.00776000
v 0.00255611 -0.00176863 0.00931565
v 0.00271939 -0.00161668 0.00917957
v 0.00275731 -0.00167991 0.00876569
v 0.00275521 -0.00168128 0.00826297
v 0.00260141 -0.00193286 0.00826297
v 0.00235017 -0.00220810 0.00826297
v 0.00183294 -0.00224859 0.00960471
v 0.00184137 -0.00224859 0.00960128
v 0.00208945 -0.00224859 0.00939667
v 0.00217372 -0.00224859 0.00926866
v 0.00228591 -0.00214713 0.00926866
v 0.00229750 -0.00224859 0.00817143
v 0.00260036 -0.00193149 0.00876569
v 0.00234859 -0.00220992 0.00876569
v 0.00230909 -0.00224859 0.00876569
v 0.00230803 -0.00224859 0.00826297
v 0.00222271 -0.00224859 0.00910663
f 1 2 6
f 1 6 14
f 1 14 25
f 1 25 31
f 1 31 51
f 1 51 50
f 1 50 49
f 1 49 73
f 1 73 61
f 1 61 38
f 1 38 19
f 1 19 9
f 1 9 3
f 1 3 4
f 1 4 5
f 1 5 2
f 2 5 7
f 2 7 8
f 2 8 6
f 3 9 10
f 3 10 4
f 4 10 11
f 4 11 5
f 5 11 12
f 5 12 13
f 5 13 7
f 6 8 14
f 7 13 15
f 7 15 8
f 8 16 14
f 8 15 17
f 8 17 16
f 9 18 10
f 9 19 18
f 10 20 21
f 10 21 11
f 10 18 20
f 11 21 22
f 11 22 23
f 11 23 12
f 12 23 24
f 12 24 13
f 13 24 15
f 14 16 25
f 15 24 26
f 15 26 27
f 15 27 28
f 15 28 17
f 16 17 29
f 16 29 30
f 16 30 31
f 16 31 25
f 17 28 32
f 17 32 29
f 18 19 33
f 18 33 34
f 18 34 35
f 18 35 36
f 18 36 37
f 18 37 20
f 19 38 33
f 20 37 21
f 21 37 39
f 21 39 40
f 21 40 22
f 22 40 23
f 23 40 41
f 23 41 24
f 24 41 26
f 26 41 42
f 26 42 43
f 26 43 27
f 27 42 44
f 27 44 45
f 27 45 46
f 27 46 28
f 27 43 42
f 28 46 47
f 28 47 32
f 29 32 48
f 29 48 49
f 29 49 30
f 30 50 51
f 30 51 31
f 30 49 50
f 32 47 48
f 33 38 52
f 33 52 34
f 34 53 54
f 34 54 55
f 34 55 35
f 34 52 56
f 34 56 57
f 34 57 53
f 35 55 36
f 36 55 58
f 36 58 59
f 36 59 60
f 36 60 39
f 36 39 37
f 38 61 52
f 39 60 62
f 39 62 40
f 40 62 63
f 40 63 41
f 41 63 42
f 42 63 64
f 42 64 44
f 44 64 65
f 44 65 45
f 45 65 66
f 45 66 67
f 45 67 46
f 46 67 68
f 46 68 69
f 46 69 47
f 47 69 70
f 47 70 48
f 48 70 49
f 49 71 72
f 49 72 90
f 49 90 91
f 49 91 73
f 49 70 74
f 49 74 75
f 49 75 76
f 49 76 71
f 52 61 56
f 53 77 78
f 53 78 54
f 53 57 73
f 53 73 77
f 54 78 79
f 54 79 58
f 54 58 55
f 56 61 73
f 56 73 57
f 58 79 59
f 59 79 80
f 59 80 81
f 59 81 62
f 59 62 60
f 62 81 82
f 62 82 83
f 62 83 63
f 63 83 64
f 64 83 82
f 64 82 65
f 65 82 84
f 65 84 66
f 66 84 85
f 66 85 86
f 66 86 67
f 67 86 87
f 67 87 68
f 68 87 88
f 68 88 69
f 69 88 89
f 69 89 70
f 70 89 74
f 71 90 72
f 71 76 75
f 71 75 99
f 71 99 98
f 71 98 116
f 71 116 130
f 71 130 142
f 71 142 146
f 71 146 145
f 71 145 147
f 71 147 140
f 71 140 139
f 71 139 138
f 71 138 137
f 71 137 126
f 71 126 112
f 71 112 93
f 71 93 92
f 71 92 90
f 73 91 92
f 73 92 93
f 73 93 94
f 73 94 95
f 73 95 96
f 73 96 77
f 74 89 97
f 74 97 98
f 74 98 99
f 74 99 75
f 77 100 101
f 77 101 78
f 77 96 100
f 78 101 79
f 79 101 80
f 80 101 102
f 80 102 103
f 80 103 104
f 80 104 105
f 80 105 106
f 80 106 81
f 81 106 84
f 81 84 82
f 84 106 105
f 84 105 107
f 84 107 85
f 85 107 108
f 85 108 86
f 86 108 109
f 86 109 87
f 87 109 110
f 87 110 111
f 87 111 88
f 88 111 97
f 88 97 89
f 90 92 91
f 93 112 94
f 94 112 126
f 94 126 113
f 94 113 114
f 94 114 95
f 95 114 96
f 96 114 100
f 97 111 115
f 97 115 116
f 97 116 98
f 100 117 102
f 100 102 101
f 100 114 117
f 102 117 103
f 103 117 118
f 103 118 119
f 103 119 120
f 103 120 104
f 104 120 121
f 104 121 105
f 105 121 107
f 107 121 108
f 108 121 122
f 108 122 123
f 108 123 110
f 108 110 109
f 110 123 124
f 110 124 111
f 111 124 125
f 111 125 115
f 113 126 114
f 114 127 128
f 114 128 118
f 114 118 117
f 114 126 127
f 115 125 129
f 115 129 130
f 115 130 116
f 118 128 119
f 119 131 132
f 119 132 120
f 119 128 131
f 120 122 121
f 120 132 122
f 122 132 133
f 122 133 134
f 122 134 123
f 123 134 124
f 124 135 125
f 124 134 135
f 125 135 136
f 125 136 129
f 126 137 127
f 127 137 128
f 128 137 138
f 128 138 139
f 128 139 140
f 128 140 141
f 128 141 131
f 129 136 130
f 130 136 142
f 131 141 132
f 132 141 143
f 132 143 133
f 133 143 135
f 133 135 134
f 135 143 144
f 135 144 136
f 136 144 145
f 136 145 146
f 136 146 142
f 140 147 141
f 141 145 144
f 141 144 143
f 141 147 145

