# https://github.com/mikedh/trimesh
v -0.01148664 -0.00042087 0.00696252
v -0.01143726 -0.00048420 0.00696252
v -0.01143360 -0.00047830 0.00725742
v -0.01148207 -0.00042087 0.00711231
v -0.00563418 -0.00042087 0.00696252
v -0.01125617 -0.00071069 0.00696252
v -0.01001872 -0.00224859 0.00826329
v -0.01121227 -0.00073914 0.00776036
v -0.01142445 -0.00046577 0.00776036
v -0.01147658 -0.00042087 0.00725742
v -0.00214318 -0.00042087 0.00737340
v -0.00214318 -0.00224841 0.00737340
v -0.00565795 -0.00046810 0.00696252
v -0.01098362 -0.00103971 0.00696252
v -0.01000318 -0.00224859 0.00778012
v -0.00996568 -0.00224859 0.00870745
v -0.01094978 -0.00100536 0.00860239
v -0.01118483 -0.00073914 0.00826329
v -0.01140890 -0.00044180 0.00826329
v -0.01142719 -0.00042087 0.00821700
v -0.01145646 -0.00042087 0.00776036
v -0.01146103 -0.00042087 0.00766570
v -0.00214318 -0.00042087 0.00977626
v -0.00730330 -0.00159915 0.00696252
v -0.00717069 -0.00153135 0.00696252
v -0.00653962 -0.00112558 0.00696252
v -0.00594605 -0.00072680 0.00696252
v -0.00579331 -0.00060049 0.00696252
v -0.00214318 -0.00224859 0.00741033
v -0.00263889 -0.00224859 0.00737340
v -0.00917639 -0.00224859 0.00727250
v -0.00936845 -0.00189918 0.00696252
v -0.00917639 -0.00189542 0.00696252
v -0.00888463 -0.00188021 0.00696252
v -0.00867336 -0.00186125 0.00696252
v -0.00840813 -0.00183263 0.00696252
v -0.00792340 -0.00175355 0.00696252
v -0.00744781 -0.00163994 0.00696252
v -0.01088576 -0.00114383 0.00696252
v -0.00994556 -0.00224859 0.00751123
v -0.00994464 -0.00224859 0.00877663
v -0.01082174 -0.00085042 0.00977158
v -0.01089216 -0.00093630 0.00926916
v -0.01092508 -0.00097548 0.00893734
v -0.01109611 -0.00078029 0.00876831
v -0.01142262 -0.00042087 0.00826329
v -0.01136043 -0.00042087 0.00876623
v -0.01139427 -0.00042087 0.00849681
v -0.00214318 -0.00224787 0.00977626
v -0.00740025 -0.00042087 0.01207093
v -0.00263889 -0.00224859 0.00977626
v -0.00971142 -0.00224859 0.00735260
v -0.00967941 -0.00189846 0.00696252
v -0.01074400 -0.00129125 0.00696252
v -0.01049248 -0.00154619 0.00696252
v -0.01035621 -0.00165229 0.00696252
v -0.01017146 -0.00175927 0.00696252
v -0.00973977 -0.00224859 0.00736612
v -0.00983398 -0.00224859 0.00911937
v -0.01049431 -0.00104919 0.01014397
v -0.01096441 -0.00052570 0.01008519
v -0.01101654 -0.00059888 0.00977158
v -0.00979739 -0.00224859 0.00922859
v -0.01108056 -0.00068475 0.00926916
v -0.01126806 -0.00042087 0.00926916
v -0.00751275 -0.00042087 0.01211722
v -0.00769932 -0.00042087 0.01217703
v -0.00817034 -0.00042087 0.01227481
v -0.00836514 -0.00150379 0.01104218
v -0.00867336 -0.00224859 0.00981006
v -0.00989800 -0.00184032 0.00696252
v -0.01040651 -0.00096385 0.01047943
v -0.01069003 -0.00074469 0.01028231
v -0.01101106 -0.00042087 0.01015177
v -0.01114093 -0.00042087 0.00977262
v -0.01088941 -0.00042087 0.01041806
v -0.00956051 -0.00224859 0.00965299
v -0.00867336 -0.00042087 0.01225609
v -0.00854075 -0.00150379 0.01104218
v -0.00917639 -0.00224859 0.00980434
v -0.01029036 -0.00086473 0.01077745
v -0.01045681 -0.00051408 0.01106090
v -0.01053913 -0.00061319 0.01077745
v -0.01068638 -0.00042087 0.01080293
v -0.00887640 -0.00148859 0.01102189
v -0.00917639 -0.00143706 0.01095168
v -0.00932181 -0.00095759 0.01149206
v -0.00967941 -0.00106565 0.01112747
v -0.00993458 -0.00099319 0.01103281
v -0.00884805 -0.00042087 0.01222124
v -0.00898615 -0.00100768 0.01155083
v -0.01034615 -0.00042087 0.01129754
v -0.01049706 -0.00042087 0.01112123
v -0.00938308 -0.00047758 0.01202256
v -0.00967941 -0.00085973 0.01137920
v -0.00996385 -0.00051390 0.01156071
v -0.01002147 -0.00042087 0.01161844
v -0.01013579 -0.00042087 0.01151078
v -0.01027572 -0.00042087 0.01137296
v -0.00967941 -0.00042087 0.01189358
v -0.00973703 -0.00042087 0.01184833
v -0.00919651 -0.00042087 0.01213854
v -0.00931906 -0.00042087 0.01210422
v -0.00959252 -0.00042087 0.01195131
f 1 2 3
f 1 3 4
f 1 4 10
f 1 10 22
f 1 22 21
f 1 21 20
f 1 20 46
f 1 46 48
f 1 48 47
f 1 47 65
f 1 65 75
f 1 75 74
f 1 74 76
f 1 76 84
f 1 84 93
f 1 93 92
f 1 92 99
f 1 99 98
f 1 98 97
f 1 97 101
f 1 101 100
f 1 100 104
f 1 104 103
f 1 103 102
f 1 102 90
f 1 90 78
f 1 78 68
f 1 68 67
f 1 67 66
f 1 66 50
f 1 50 23
f 1 23 11
f 1 11 5
f 1 5 13
f 1 13 28
f 1 28 27
f 1 27 26
f 1 26 25
f 1 25 24
f 1 24 38
f 1 38 37
f 1 37 36
f 1 36 35
f 1 35 34
f 1 34 33
f 1 33 32
f 1 32 53
f 1 53 71
f 1 71 57
f 1 57 56
f 1 56 55
f 1 55 54
f 1 54 39
f 1 39 14
f 1 14 6
f 1 6 2
f 2 6 7
f 2 7 3
f 3 7 8
f 3 8 9
f 3 9 4
f 4 9 10
f 5 11 12
f 5 12 13
f 6 14 7
f 7 15 40
f 7 40 58
f 7 58 52
f 7 52 31
f 7 31 30
f 7 30 29
f 7 29 51
f 7 51 70
f 7 70 80
f 7 80 77
f 7 77 63
f 7 63 59
f 7 59 41
f 7 41 16
f 7 16 17
f 7 17 18
f 7 18 9
f 7 9 8
f 7 14 15
f 9 19 20
f 9 20 21
f 9 21 22
f 9 22 10
f 9 18 19
f 11 23 49
f 11 49 29
f 11 29 12
f 12 24 25
f 12 25 26
f 12 26 27
f 12 27 28
f 12 28 13
f 12 29 30
f 12 30 31
f 12 31 32
f 12 32 33
f 12 33 34
f 12 34 35
f 12 35 36
f 12 36 37
f 12 37 38
f 12 38 24
f 14 39 15
f 15 39 40
f 16 41 42
f 16 42 43
f 16 43 44
f 16 44 17
f 17 44 45
f 17 45 19
f 17 19 18
f 19 46 20
f 19 45 47
f 19 47 48
f 19 48 46
f 23 50 49
f 29 49 51
f 31 52 53
f 31 53 32
f 39 54 40
f 40 54 55
f 40 55 56
f 40 56 57
f 40 57 58
f 41 59 42
f 42 60 61
f 42 61 62
f 42 62 43
f 42 59 63
f 42 63 60
f 43 62 64
f 43 64 44
f 44 64 47
f 44 47 45
f 47 64 65
f 49 50 66
f 49 66 67
f 49 67 68
f 49 68 69
f 49 69 70
f 49 70 51
f 52 58 57
f 52 57 71
f 52 71 53
f 60 72 73
f 60 73 61
f 60 63 72
f 61 74 75
f 61 75 62
f 61 73 76
f 61 76 74
f 62 75 65
f 62 65 64
f 63 77 72
f 68 78 79
f 68 79 69
f 69 79 70
f 70 79 80
f 72 81 82
f 72 82 83
f 72 83 84
f 72 84 76
f 72 76 73
f 72 77 81
f 77 80 85
f 77 85 86
f 77 86 87
f 77 87 88
f 77 88 89
f 77 89 81
f 78 90 91
f 78 91 85
f 78 85 79
f 79 85 80
f 81 89 82
f 82 92 93
f 82 93 84
f 82 84 83
f 82 89 92
f 85 91 87
f 85 87 86
f 87 94 95
f 87 95 88
f 87 91 94
f 88 95 89
f 89 96 97
f 89 97 98
f 89 98 99
f 89 99 92
f 89 95 100
f 89 100 101
f 89 101 96
f 90 102 91
f 91 102 103
f 91 103 94
f 94 104 95
f 94 103 104
f 95 104 100
f 96 101 97

