# https://github.com/mikedh/trimesh
v 0.00231100 -0.00224859 0.00323338
v 0.00217339 -0.00224859 0.00273028
v 0.00230979 -0.00224859 0.00373599
v -0.00042431 -0.00742968 0.00323338
v -0.00032533 -0.00712771 0.00285873
v 0.00184023 -0.00224859 0.00239836
v -0.00047621 -0.00728835 0.00270668
v -0.00040258 -0.00695397 0.00252333
v -0.00081903 -0.00761927 0.00243140
v 0.00224702 -0.00224859 0.00423910
v -0.00031326 -0.00715390 0.00423910
v -0.00042552 -0.00742968 0.00373599
v -0.00063072 -0.00777991 0.00373599
v -0.00063072 -0.00777991 0.00323338
v -0.00084800 -0.00806327 0.00291190
v -0.00074419 -0.00778405 0.00273873
v 0.00138515 -0.00224859 0.00227786
v -0.00072850 -0.00727731 0.00237947
v -0.00113047 -0.00727731 0.00225177
v -0.00094578 -0.00795434 0.00257674
v -0.00128015 -0.00812532 0.00242022
v -0.00111960 -0.00778405 0.00236407
v 0.00215769 -0.00224859 0.00440034
v -0.00034343 -0.00709461 0.00451934
v -0.00086611 -0.00804534 0.00450145
v -0.00045811 -0.00740555 0.00423910
v -0.00067659 -0.00777991 0.00423910
v -0.00084559 -0.00806603 0.00423910
v -0.00083231 -0.00807913 0.00373599
v -0.00083231 -0.00807913 0.00323338
v -0.00136102 -0.00855346 0.00293823
v -0.00115340 -0.00826182 0.00275736
v 0.00088178 -0.00224859 0.00222444
v -0.00113047 -0.00677403 0.00222345
v -0.00163262 -0.00777991 0.00224333
v -0.00147208 -0.00846038 0.00260308
v -0.00180645 -0.00858517 0.00243587
v -0.00163625 -0.00828871 0.00236680
v 0.00191627 -0.00224859 0.00456953
v -0.00062227 -0.00726835 0.00456208
v -0.00080093 -0.00777991 0.00453276
v -0.00113047 -0.00777991 0.00460083
v -0.00117996 -0.00824114 0.00452456
v -0.00138034 -0.00853553 0.00449102
v -0.00111477 -0.00831767 0.00423910
v -0.00110029 -0.00833077 0.00373599
v -0.00110029 -0.00833008 0.00323338
v -0.00135137 -0.00856242 0.00323338
v -0.00163262 -0.00874856 0.00323338
v -0.00204666 -0.00897263 0.00323338
v -0.00232792 -0.00906157 0.00291438
v -0.00163625 -0.00865067 0.00275463
v -0.00867368 -0.00224859 0.00218966
v -0.00163262 -0.00727731 0.00222345
v -0.00213599 -0.00828320 0.00225798
v -0.00263935 -0.00828320 0.00222643
v -0.00213599 -0.00777991 0.00222345
v -0.00215047 -0.00891127 0.00274022
v -0.00252830 -0.00898780 0.00257923
v -0.00286387 -0.00904571 0.00247041
v -0.00213599 -0.00866101 0.00238569
v 0.00190541 -0.00224859 0.00457152
v -0.00062710 -0.00677403 0.00461425
v -0.00113047 -0.00727731 0.00462642
v -0.00163262 -0.00777991 0.00462642
v -0.00213599 -0.00828320 0.00462642
v -0.00163262 -0.00828320 0.00459288
v -0.00163262 -0.00859689 0.00452506
v -0.00136585 -0.00854863 0.00423910
v -0.00236413 -0.00904640 0.00449972
v -0.00207443 -0.00894092 0.00423910
v -0.00163262 -0.00870375 0.00423910
v -0.00163262 -0.00874856 0.00373599
v -0.00135258 -0.00856173 0.00373599
v -0.00204787 -0.00897332 0.00373599
v -0.00229895 -0.00907329 0.00323338
v -0.00263935 -0.00918911 0.00323338
v -0.00267315 -0.00910362 0.00274022
v -0.00414703 -0.00828320 0.00222345
v -0.00515255 -0.00777991 0.00222494
v -0.00565591 -0.00727731 0.00222345
v -0.00917705 -0.00224859 0.00219513
v -0.00314151 -0.00828320 0.00222345
v -0.00267315 -0.00880648 0.00237376
v -0.00314151 -0.00878648 0.00233302
v -0.00364487 -0.00878648 0.00232705
v -0.00314151 -0.00917877 0.00273028
v -0.00314151 -0.00905605 0.00246072
v 0.00189696 -0.00224859 0.00457251
v -0.00062710 -0.00627143 0.00462642
v 0.00138515 -0.00224859 0.00462568
v -0.00917705 -0.00224859 0.00472754
v -0.00314151 -0.00878648 0.00462394
v -0.00263935 -0.00878648 0.00459810
v -0.00217220 -0.00878510 0.00455040
v -0.00232550 -0.00906226 0.00423910
v -0.00263935 -0.00908294 0.00453003
v -0.00263935 -0.00915878 0.00423910
v -0.00229895 -0.00907260 0.00373599
v -0.00263935 -0.00918911 0.00373599
v -0.00314151 -0.00928219 0.00323338
v -0.00465039 -0.00828320 0.00225152
v -0.00615928 -0.00727731 0.00226817
v -0.00666144 -0.00677403 0.00225873
v -0.00766816 -0.00526624 0.00222345
v -0.00817032 -0.00476295 0.00224507
v -0.00867368 -0.00375707 0.00223637
v -0.00906117 -0.00375707 0.00236407
v -0.00956091 -0.00224859 0.00234569
v -0.00364487 -0.00906226 0.00245475
v -0.00394906 -0.00905398 0.00246246
v -0.00412892 -0.00881337 0.00236680
v -0.00364487 -0.00919049 0.00273028
v -0.00971180 -0.00224859 0.00464729
v -0.00817032 -0.00526624 0.00461773
v -0.00766816 -0.00576883 0.00462642
v -0.00615928 -0.00727731 0.00462642
v -0.00565591 -0.00777991 0.00462642
v -0.00465039 -0.00828320 0.00462642
v -0.00364487 -0.00878648 0.00462468
v -0.00364487 -0.00911810 0.00455661
v -0.00314151 -0.00911603 0.00455611
v -0.00314151 -0.00923393 0.00423910
v -0.00314151 -0.00927736 0.00373599
v -0.00364487 -0.00929184 0.00323338
v -0.00465039 -0.00866514 0.00237923
v -0.00514410 -0.00829492 0.00234916
v -0.00569937 -0.00782472 0.00232680
v -0.00615928 -0.00766615 0.00239587
v -0.00662764 -0.00725043 0.00238941
v -0.00714066 -0.00674714 0.00238444
v -0.00716480 -0.00627143 0.00226171
v -0.00819326 -0.00527382 0.00234295
v -0.00856625 -0.00476295 0.00237277
v -0.00870628 -0.00428655 0.00233600
v -0.00898995 -0.00413694 0.00241103
v -0.00949573 -0.00275118 0.00240506
v -0.00978543 -0.00224859 0.00274519
v -0.00412892 -0.00911534 0.00273177
v -0.00428464 -0.00899883 0.00256531
v -0.00497148 -0.00857965 0.00243090
v -0.00414703 -0.00922152 0.00323338
v -0.00976129 -0.00224859 0.00461400
v -0.00947158 -0.00362125 0.00452754
v -0.00898633 -0.00466850 0.00453524
v -0.00871714 -0.00480707 0.00457176
v -0.00816911 -0.00575849 0.00456506
v -0.00770438 -0.00630797 0.00457201
v -0.00857229 -0.00526624 0.00454990
v -0.00720343 -0.00681264 0.00457201
v -0.00669886 -0.00731454 0.00457201
v -0.00618584 -0.00780749 0.00457201
v -0.00515255 -0.00828320 0.00461698
v -0.00414703 -0.00878648 0.00460853
v -0.00364487 -0.00923875 0.00423910
v -0.00414703 -0.00909535 0.00454046
v -0.00364487 -0.00928356 0.00373599
v -0.00414703 -0.00923048 0.00373599
v -0.00556176 -0.00813497 0.00239562
v -0.00643812 -0.00755378 0.00245326
v -0.00695597 -0.00706497 0.00244059
v -0.00744847 -0.00656168 0.00244482
v -0.00756315 -0.00627143 0.00238941
v -0.00803995 -0.00568128 0.00239364
v -0.00847572 -0.00511111 0.00242270
v -0.00889579 -0.00447201 0.00253475
v -0.00906117 -0.00428655 0.00271363
v -0.00930621 -0.00373156 0.00275314
v -0.00937622 -0.00338822 0.00260084
v -0.00944623 -0.00305247 0.00245550
v -0.00979750 -0.00224859 0.00277127
v -0.00445243 -0.00906570 0.00290047
v -0.00463229 -0.00890369 0.00273177
v -0.00514410 -0.00862585 0.00277972
v -0.00530585 -0.00847003 0.00264506
v -0.00589734 -0.00802190 0.00249674
v -0.00458400 -0.00910776 0.00373599
v -0.00454055 -0.00909604 0.00323338
v -0.00998581 -0.00224859 0.00429028
v -0.00990493 -0.00246300 0.00439214
v -0.00967317 -0.00325447 0.00423910
v -0.00951021 -0.00370881 0.00423910
v -0.00891390 -0.00500356 0.00445450
v -0.00846485 -0.00558406 0.00452431
v -0.00800012 -0.00616457 0.00453574
v -0.00756073 -0.00667130 0.00453574
v -0.00706099 -0.00717114 0.00453574
v -0.00655642 -0.00765788 0.00453574
v -0.00603615 -0.00811015 0.00453574
v -0.00564264 -0.00827975 0.00456456
v -0.00515255 -0.00864170 0.00454891
v -0.00414703 -0.00918980 0.00423910
v -0.00446450 -0.00906019 0.00451263
v -0.00453089 -0.00908777 0.00423910
v -0.00650813 -0.00761789 0.00273028
v -0.00703443 -0.00713667 0.00273028
v -0.00615445 -0.00789574 0.00269078
v -0.00728551 -0.00689261 0.00273028
v -0.00751848 -0.00664097 0.00273028
v -0.00791562 -0.00601634 0.00248506
v -0.00837553 -0.00544687 0.00259289
v -0.00896701 -0.00458508 0.00287016
v -0.00901530 -0.00475675 0.00326593
v -0.00928207 -0.00421761 0.00327289
v -0.00943416 -0.00402181 0.00346643
v -0.00937984 -0.00388254 0.00313152
v -0.00944382 -0.00354748 0.00293624
v -0.00949331 -0.00323379 0.00275314
v -0.00964661 -0.00275118 0.00273028
v -0.00990131 -0.00224859 0.00307984
v -0.00479283 -0.00898228 0.00323338
v -0.00515255 -0.00877752 0.00323338
v -0.00547364 -0.00858172 0.00323338
v -0.00540484 -0.00853553 0.00298022
v -0.00565109 -0.00827906 0.00273848
v -0.00598425 -0.00808740 0.00283190
v -0.00633672 -0.00797157 0.00323338
v -0.00483508 -0.00901124 0.00373599
v -0.00999909 -0.00224859 0.00425972
v -0.01000512 -0.00224859 0.00423090
v -0.00993753 -0.00252436 0.00405698
v -0.00972508 -0.00325447 0.00373599
v -0.00951142 -0.00379981 0.00373699
v -0.00942209 -0.00399561 0.00390543
v -0.00902737 -0.00480707 0.00426767
v -0.00893804 -0.00503597 0.00411934
v -0.00850952 -0.00564887 0.00423910
v -0.00789631 -0.00650032 0.00439114
v -0.00739656 -0.00700637 0.00443462
v -0.00689079 -0.00750689 0.00442369
v -0.00546640 -0.00857690 0.00452307
v -0.00515255 -0.00879958 0.00423910
v -0.00667230 -0.00768684 0.00327115
v -0.00684854 -0.00746898 0.00312904
v -0.00714428 -0.00725870 0.00327860
v -0.00743881 -0.00704773 0.00342817
v -0.00736639 -0.00697672 0.00309301
v -0.00764644 -0.00675265 0.00328307
v -0.00792407 -0.00652790 0.00347314
v -0.00785527 -0.00644103 0.00313823
v -0.00779732 -0.00627281 0.00268382
v -0.00798563 -0.00610597 0.00282047
v -0.00817998 -0.00578055 0.00270668
v -0.00844071 -0.00554546 0.00292804
v -0.00893683 -0.00503390 0.00345525
v -0.00853245 -0.00527382 0.00274842
v -0.00943416 -0.00402181 0.00357028
v -0.00993873 -0.00253056 0.00345748
v -0.00964541 -0.00325447 0.00323338
v -0.00948245 -0.00373156 0.00327289
v -0.00908893 -0.00476295 0.00373599
v -0.00982768 -0.00271947 0.00326717
v -0.00988804 -0.00234373 0.00312233
v -0.00994356 -0.00224859 0.00322146
v -0.00515255 -0.00885474 0.00373599
v -0.00554365 -0.00862929 0.00373599
v -0.00572472 -0.00841143 0.00323338
v -0.00608444 -0.00816048 0.00323338
v -0.00640432 -0.00802673 0.00373599
v -0.00692217 -0.00753654 0.00346394
v -0.01002082 -0.00224859 0.00373599
v -0.00987596 -0.00279324 0.00373599
v -0.00934001 -0.00421761 0.00373699
v -0.00894287 -0.00504493 0.00373599
v -0.00878595 -0.00529657 0.00373599
v -0.00853487 -0.00568472 0.00373599
v -0.00792528 -0.00652997 0.00405599
v -0.00743278 -0.00704222 0.00409922
v -0.00692821 -0.00754275 0.00408854
v -0.00638139 -0.00800260 0.00423910
v -0.00552193 -0.00861481 0.00423910
v -0.00744606 -0.00705532 0.00373599
v -0.00693062 -0.00754550 0.00373599
v -0.00718291 -0.00730627 0.00373599
v -0.00792648 -0.00653272 0.00373599
v -0.00811841 -0.00627143 0.00373599
v -0.00836225 -0.00593499 0.00373599
v -0.00849383 -0.00562405 0.00323338
v -0.00831638 -0.00587432 0.00323338
v -0.00803875 -0.00627281 0.00327686
v -0.00769713 -0.00678368 0.00373599
v -0.00996408 -0.00224859 0.00329301
v -0.00995684 -0.00224859 0.00326717
v -0.00579473 -0.00845762 0.00373599
v -0.00615204 -0.00820598 0.00373599
f 1 2 6
f 1 6 17
f 1 17 33
f 1 33 53
f 1 53 82
f 1 82 109
f 1 109 138
f 1 138 171
f 1 171 210
f 1 210 254
f 1 254 283
f 1 283 282
f 1 282 261
f 1 261 220
f 1 220 219
f 1 219 179
f 1 179 143
f 1 143 114
f 1 114 92
f 1 92 91
f 1 91 89
f 1 89 62
f 1 62 39
f 1 39 23
f 1 23 10
f 1 10 3
f 1 3 12
f 1 12 4
f 1 4 5
f 1 5 2
f 2 5 7
f 2 7 8
f 2 8 9
f 2 9 6
f 3 10 11
f 3 11 12
f 4 12 13
f 4 13 14
f 4 14 15
f 4 15 5
f 5 15 16
f 5 16 7
f 6 9 18
f 6 18 19
f 6 19 17
f 7 16 9
f 7 9 8
f 9 16 20
f 9 20 21
f 9 21 22
f 9 22 18
f 10 23 24
f 10 24 11
f 11 24 25
f 11 25 26
f 11 26 12
f 12 26 27
f 12 27 13
f 13 27 28
f 13 28 29
f 13 29 30
f 13 30 14
f 14 30 15
f 15 20 16
f 15 30 31
f 15 31 32
f 15 32 20
f 17 19 34
f 17 34 33
f 18 22 19
f 19 22 35
f 19 35 34
f 20 32 36
f 20 36 21
f 21 36 37
f 21 37 38
f 21 38 22
f 22 38 35
f 23 39 24
f 24 40 41
f 24 41 25
f 24 39 40
f 25 28 27
f 25 27 26
f 25 41 42
f 25 42 43
f 25 43 44
f 25 44 28
f 28 44 45
f 28 45 46
f 28 46 29
f 29 46 30
f 30 46 47
f 30 47 31
f 31 47 48
f 31 48 49
f 31 49 50
f 31 50 51
f 31 51 52
f 31 52 36
f 31 36 32
f 33 34 53
f 34 35 54
f 34 54 53
f 35 38 55
f 35 55 56
f 35 56 57
f 35 57 54
f 36 52 37
f 37 52 58
f 37 58 59
f 37 59 60
f 37 60 61
f 37 61 38
f 38 61 55
f 39 62 63
f 39 63 40
f 40 63 42
f 40 42 41
f 42 63 64
f 42 64 65
f 42 65 66
f 42 66 67
f 42 67 43
f 43 67 68
f 43 68 44
f 44 69 45
f 44 68 70
f 44 70 71
f 44 71 72
f 44 72 73
f 44 73 69
f 45 69 46
f 46 69 74
f 46 74 48
f 46 48 47
f 48 74 73
f 48 73 49
f 49 73 75
f 49 75 50
f 50 75 76
f 50 76 51
f 51 76 77
f 51 77 78
f 51 78 59
f 51 59 58
f 51 58 52
f 53 79 80
f 53 80 81
f 53 81 82
f 53 54 57
f 53 57 83
f 53 83 79
f 55 61 84
f 55 84 85
f 55 85 56
f 56 85 86
f 56 86 83
f 56 83 57
f 59 78 60
f 60 84 61
f 60 78 87
f 60 87 88
f 60 88 85
f 60 85 84
f 62 89 63
f 63 90 64
f 63 89 91
f 63 91 90
f 64 90 92
f 64 92 65
f 65 92 66
f 66 93 94
f 66 94 67
f 66 92 93
f 67 94 95
f 67 95 68
f 68 95 70
f 69 73 74
f 70 96 71
f 70 95 97
f 70 97 98
f 70 98 96
f 71 75 72
f 71 96 75
f 72 75 73
f 75 96 99
f 75 99 76
f 76 99 100
f 76 100 77
f 77 100 101
f 77 101 78
f 78 101 87
f 79 102 80
f 79 83 86
f 79 86 102
f 80 102 103
f 80 103 104
f 80 104 81
f 81 104 105
f 81 105 82
f 82 105 106
f 82 106 107
f 82 107 108
f 82 108 109
f 85 88 110
f 85 110 86
f 86 110 111
f 86 111 112
f 86 112 102
f 87 101 113
f 87 113 88
f 88 113 110
f 90 91 92
f 92 114 115
f 92 115 116
f 92 116 117
f 92 117 118
f 92 118 119
f 92 119 120
f 92 120 93
f 93 120 121
f 93 121 122
f 93 122 94
f 94 122 97
f 94 97 95
f 96 98 100
f 96 100 99
f 97 122 123
f 97 123 98
f 98 123 124
f 98 124 100
f 100 124 101
f 101 124 125
f 101 125 113
f 102 126 127
f 102 127 128
f 102 128 103
f 102 112 126
f 103 128 129
f 103 129 130
f 103 130 104
f 104 130 131
f 104 131 132
f 104 132 105
f 105 132 106
f 106 132 133
f 106 133 134
f 106 134 135
f 106 135 107
f 107 135 108
f 108 135 134
f 108 134 136
f 108 136 137
f 108 137 109
f 109 137 138
f 110 113 111
f 111 139 140
f 111 140 141
f 111 141 126
f 111 126 112
f 111 113 139
f 113 125 142
f 113 142 139
f 114 143 144
f 114 144 145
f 114 145 146
f 114 146 115
f 115 147 148
f 115 148 116
f 115 146 149
f 115 149 147
f 116 148 150
f 116 150 117
f 117 150 118
f 118 150 151
f 118 151 152
f 118 152 153
f 118 153 119
f 119 153 120
f 120 153 154
f 120 154 121
f 121 155 122
f 121 154 156
f 121 156 155
f 122 155 123
f 123 155 157
f 123 157 124
f 124 157 125
f 125 157 158
f 125 158 142
f 126 141 127
f 127 141 159
f 127 159 128
f 128 159 129
f 129 160 130
f 129 159 160
f 130 160 161
f 130 161 131
f 131 161 162
f 131 162 163
f 131 163 132
f 132 163 164
f 132 164 133
f 133 164 165
f 133 165 134
f 134 165 136
f 136 165 166
f 136 166 167
f 136 167 168
f 136 168 169
f 136 169 170
f 136 170 137
f 137 170 138
f 138 170 171
f 139 142 172
f 139 172 140
f 140 172 173
f 140 173 141
f 141 174 175
f 141 175 176
f 141 176 159
f 141 173 174
f 142 158 177
f 142 177 178
f 142 178 172
f 143 179 180
f 143 180 144
f 144 180 181
f 144 181 182
f 144 182 183
f 144 183 145
f 145 183 184
f 145 184 149
f 145 149 146
f 147 185 148
f 147 149 184
f 147 184 185
f 148 185 186
f 148 186 150
f 150 186 187
f 150 187 151
f 151 188 152
f 151 187 188
f 152 188 189
f 152 189 190
f 152 190 153
f 153 191 154
f 153 190 191
f 154 191 156
f 155 156 192
f 155 192 157
f 156 193 192
f 156 191 193
f 157 192 158
f 158 192 194
f 158 194 177
f 159 176 160
f 160 195 196
f 160 196 161
f 160 176 197
f 160 197 195
f 161 196 198
f 161 198 162
f 162 198 199
f 162 199 200
f 162 200 164
f 162 164 163
f 164 200 165
f 165 200 201
f 165 201 166
f 166 202 167
f 166 201 202
f 167 202 203
f 167 203 204
f 167 204 205
f 167 205 206
f 167 206 168
f 168 206 207
f 168 207 208
f 168 208 170
f 168 170 169
f 170 208 209
f 170 209 171
f 171 209 210
f 172 178 211
f 172 211 212
f 172 212 174
f 172 174 173
f 174 212 213
f 174 213 214
f 174 214 175
f 175 214 215
f 175 215 176
f 176 215 216
f 176 216 217
f 176 217 197
f 177 194 218
f 177 218 178
f 178 218 211
f 179 219 180
f 180 219 220
f 180 220 181
f 181 220 221
f 181 221 222
f 181 222 182
f 182 222 223
f 182 223 224
f 182 224 225
f 182 225 183
f 183 225 226
f 183 226 227
f 183 227 228
f 183 228 184
f 184 228 185
f 185 228 186
f 186 229 187
f 186 228 229
f 187 229 188
f 188 229 230
f 188 230 189
f 189 231 190
f 189 230 231
f 190 231 191
f 191 231 193
f 192 193 194
f 193 231 232
f 193 232 194
f 194 232 218
f 195 197 217
f 195 217 233
f 195 233 234
f 195 234 196
f 196 234 235
f 196 235 236
f 196 236 237
f 196 237 198
f 198 237 199
f 199 237 238
f 199 238 239
f 199 239 240
f 199 240 241
f 199 241 200
f 200 241 242
f 200 242 243
f 200 243 201
f 201 243 244
f 201 244 245
f 201 245 246
f 201 246 202
f 202 246 245
f 202 245 203
f 203 245 204
f 204 245 205
f 205 247 222
f 205 222 248
f 205 248 249
f 205 249 250
f 205 250 206
f 205 245 251
f 205 251 247
f 206 250 207
f 207 250 249
f 207 249 208
f 208 249 209
f 209 249 252
f 209 252 253
f 209 253 210
f 210 253 248
f 210 248 254
f 211 218 255
f 211 255 212
f 212 255 256
f 212 256 213
f 213 256 257
f 213 257 214
f 214 257 216
f 214 216 215
f 216 257 258
f 216 258 217
f 217 259 260
f 217 260 233
f 217 258 259
f 218 232 255
f 220 261 221
f 221 261 262
f 221 262 222
f 222 247 223
f 222 262 248
f 223 247 224
f 224 247 263
f 224 263 225
f 225 263 226
f 226 264 265
f 226 265 266
f 226 266 227
f 226 263 251
f 226 251 264
f 227 266 267
f 227 267 228
f 228 267 268
f 228 268 229
f 229 268 269
f 229 269 230
f 230 269 270
f 230 270 231
f 231 270 271
f 231 271 232
f 232 271 255
f 233 260 234
f 234 260 235
f 235 260 236
f 236 272 239
f 236 239 238
f 236 238 237
f 236 260 273
f 236 273 274
f 236 274 272
f 239 275 276
f 239 276 277
f 239 277 266
f 239 266 245
f 239 245 278
f 239 278 279
f 239 279 280
f 239 280 242
f 239 242 240
f 239 272 281
f 239 281 275
f 240 242 241
f 242 280 279
f 242 279 244
f 242 244 243
f 244 279 278
f 244 278 245
f 245 264 251
f 245 266 265
f 245 265 264
f 247 251 263
f 248 261 282
f 248 282 283
f 248 283 254
f 248 253 252
f 248 252 249
f 248 262 261
f 255 271 256
f 256 271 284
f 256 284 257
f 257 284 258
f 258 284 285
f 258 285 259
f 259 285 271
f 259 271 270
f 259 270 269
f 259 269 273
f 259 273 260
f 266 277 267
f 267 277 276
f 267 276 275
f 267 275 281
f 267 281 272
f 267 272 268
f 268 272 269
f 269 272 274
f 269 274 273
f 271 285 284

