# https://github.com/mikedh/trimesh
v -0.00500632 -0.00007313 0.00220932
v -0.00500632 -0.00174750 0.00226212
v -0.00500632 -0.00007313 0.00462841
v -0.00256627 -0.00007313 0.00227207
v -0.00256627 -0.00104635 0.00226212
v -0.00216812 -0.00174750 0.00226520
v -0.00229787 -0.00174750 0.00226212
v -0.00500632 -0.00174750 0.00458792
v -0.00216812 -0.00174750 0.00458792
v -0.00216812 -0.00007313 0.00458792
v -0.00216812 -0.00007313 0.00237318
v -0.00216812 -0.00144429 0.00227160
f 1 2 8
f 1 8 3
f 1 3 10
f 1 10 11
f 1 11 4
f 1 4 5
f 1 5 6
f 1 6 7
f 1 7 2
f 2 7 6
f 2 6 9
f 2 9 8
f 3 8 9
f 3 9 10
f 4 11 12
f 4 12 6
f 4 6 5
f 6 12 11
f 6 11 10
f 6 10 9

