# https://github.com/mikedh/trimesh
v -0.00710292 0.02153417 0.00794780
v -0.00695003 0.02153417 0.00748699
v -0.00708866 0.02153417 0.00804792
v -0.00691359 0.02189231 0.00794780
v -0.00631710 0.02310833 0.00751539
v -0.00621808 0.02335645 0.00708227
v -0.00632660 0.02314110 0.00708227
v -0.00610321 0.02362329 0.00621673
v -0.00610401 0.02362329 0.00599165
v -0.00617292 0.02319025 0.00599165
v -0.00596775 0.02290351 0.00599165
v -0.00692468 0.02153417 0.00746853
v -0.00703954 0.02153417 0.00838093
v -0.00703717 0.02153885 0.00838093
v -0.00685022 0.02189231 0.00838093
v -0.00662287 0.02243887 0.00794780
v -0.00616500 0.02317153 0.00842424
v -0.00580299 0.02382343 0.00853217
v -0.00629095 0.02306034 0.00794780
v -0.00617451 0.02327686 0.00794780
v -0.00584180 0.02389482 0.00794780
v -0.00539661 0.02473749 0.00786899
v -0.00603905 0.02362329 0.00751539
v -0.00607470 0.02362329 0.00708227
v -0.00609212 0.02362329 0.00664986
v -0.00577922 0.02421316 0.00621673
v -0.00562792 0.02448937 0.00599165
v -0.00461396 0.02153417 0.00599165
v -0.00696033 0.02153417 0.00881334
v -0.00668624 0.02212521 0.00863867
v -0.00624422 0.02297374 0.00859678
v -0.00562713 0.02405633 0.00881334
v -0.00544572 0.02439574 0.00881334
v -0.00532848 0.02461226 0.00881334
v -0.00536334 0.02467663 0.00838093
v -0.00548058 0.02446011 0.00838093
v -0.00571506 0.02402473 0.00838448
v -0.00549325 0.02453151 0.00798686
v -0.00529204 0.02489783 0.00798686
v -0.00494746 0.02557314 0.00773976
v -0.00541562 0.02477260 0.00751539
v -0.00557088 0.02448937 0.00751539
v -0.00586715 0.02394164 0.00751539
v -0.00560019 0.02448937 0.00708227
v -0.00531819 0.02502775 0.00664986
v -0.00498944 0.02564804 0.00621673
v -0.00532452 0.02503945 0.00621673
v -0.00507341 0.02549590 0.00599165
v 0.00098977 0.02153417 0.00599165
v -0.00693102 0.02153417 0.00894186
v -0.00665535 0.02206669 0.00892695
v -0.00589092 0.02355775 0.00881334
v -0.00540928 0.02432903 0.00915345
v -0.00515738 0.02492124 0.00881334
v -0.00496251 0.02516819 0.00909594
v -0.00451415 0.02600501 0.00903416
v -0.00499182 0.02521969 0.00881334
v -0.00487141 0.02543621 0.00881334
v -0.00453474 0.02604129 0.00881334
v -0.00522709 0.02492124 0.00838093
v -0.00490547 0.02549824 0.00838093
v -0.00503380 0.02537886 0.00790946
v -0.00495775 0.02559187 0.00751539
v -0.00509084 0.02535428 0.00751539
v -0.00529521 0.02498912 0.00751539
v -0.00474387 0.02578732 0.00838093
v -0.00444681 0.02631750 0.00838093
v -0.00447454 0.02636783 0.00794780
v -0.00449830 0.02640996 0.00751539
v -0.00531026 0.02501370 0.00708227
v -0.00498152 0.02563400 0.00664986
v -0.00498944 0.02564804 0.00599165
v -0.00486824 0.02586456 0.00621673
v 0.00098977 0.02153417 0.01310623
v 0.00098977 0.03349074 0.00599165
v -0.00686052 0.02153417 0.00924646
v -0.00673219 0.02177878 0.00924646
v -0.00572852 0.02368181 0.00924646
v -0.00550355 0.02409379 0.00927700
v -0.00537364 0.02426232 0.00944172
v -0.00529680 0.02448001 0.00927700
v -0.00505044 0.02494348 0.00924291
v -0.00437076 0.02617823 0.00920528
v -0.00414738 0.02655275 0.00924646
v -0.00402301 0.02676927 0.00924646
v -0.00384081 0.02708527 0.00924646
v -0.00406103 0.02683598 0.00891985
v -0.00441275 0.02625781 0.00881334
v -0.00492607 0.02510265 0.00938421
v -0.00500845 0.02481708 0.00967817
v -0.00488725 0.02503360 0.00967817
v -0.00512015 0.02535428 0.00708227
v -0.00450939 0.02642986 0.00720298
v -0.00408638 0.02687928 0.00863157
v -0.00425353 0.02665223 0.00838093
v -0.00431056 0.02665223 0.00794780
v -0.00435809 0.02665223 0.00751539
v -0.00485081 0.02583414 0.00708227
v -0.00485953 0.02585052 0.00664986
v -0.00486824 0.02586456 0.00599165
v -0.00464960 0.02622036 0.00664986
v -0.00451969 0.02644741 0.00664986
v -0.00466466 0.02622036 0.00621673
v -0.00477080 0.02603544 0.00599165
v 0.00097155 0.02153417 0.01310907
v 0.00098977 0.02198594 0.01311333
v 0.00096600 0.03347318 0.00599165
v 0.00096600 0.03347318 0.00621673
v 0.00098977 0.03348957 0.00621673
v -0.00674328 0.02153417 0.00972716
v -0.00666089 0.02164419 0.00982728
v -0.00534433 0.02420731 0.00967817
v -0.00518986 0.02448937 0.00967817
v -0.00410539 0.02648018 0.00955320
v -0.00454900 0.02563400 0.00967817
v -0.00361425 0.02724210 0.00976692
v -0.00365228 0.02730881 0.00947936
v -0.00368159 0.02735914 0.00924646
v -0.00355484 0.02757448 0.00924646
v -0.00322847 0.02818776 0.00908387
v -0.00360000 0.02765290 0.00881334
v -0.00372674 0.02743755 0.00881334
v -0.00395963 0.02704782 0.00879062
v -0.00417669 0.02667564 0.00879062
v -0.00496884 0.02474569 0.00996147
v -0.00451731 0.02557782 0.00990680
v -0.00451494 0.02643922 0.00691470
v -0.00415688 0.02699866 0.00751539
v -0.00417035 0.02702324 0.00708227
v -0.00440958 0.02661127 0.00706807
v -0.00410381 0.02690854 0.00838093
v -0.00363247 0.02770791 0.00838093
v -0.00376001 0.02749256 0.00838093
v -0.00413312 0.02695770 0.00794780
v -0.00452603 0.02645912 0.00621673
v -0.00417748 0.02703611 0.00664986
v -0.00459811 0.02633506 0.00599165
v -0.00466466 0.02622036 0.00599165
v 0.00089550 0.02153417 0.01311901
v 0.00089550 0.02189231 0.01312327
v 0.00098977 0.02241898 0.01311759
v 0.00085352 0.03338540 0.00599165
v 0.00098977 0.03348723 0.00664986
v 0.00074974 0.03330348 0.00621673
v -0.00668545 0.02153417 0.00992952
v -0.00661495 0.02155641 0.01011129
v -0.00585527 0.02305566 0.01002325
v -0.00541404 0.02390653 0.01000194
v -0.00621966 0.02249505 0.00979390
v -0.00577843 0.02334474 0.00976124
v -0.00406578 0.02640996 0.00984077
v -0.00369585 0.02695419 0.01003461
v -0.00324273 0.02777930 0.00997780
v -0.00350969 0.02747968 0.00964480
v -0.00328392 0.02784835 0.00967817
v -0.00332195 0.02797007 0.00923510
v -0.00319124 0.02812807 0.00937214
v -0.00234839 0.02946230 0.00945451
v -0.00237928 0.02950912 0.00916623
v -0.00325382 0.02822756 0.00881334
v -0.00342255 0.02795018 0.00881334
v -0.00529284 0.02405282 0.01013188
v -0.00505440 0.02450342 0.01010774
v -0.00491894 0.02465791 0.01025046
v -0.00446820 0.02549121 0.01019507
v -0.00414421 0.02611620 0.01011129
v -0.00402934 0.02721518 0.00751539
v -0.00404360 0.02723976 0.00708227
v -0.00389705 0.02751714 0.00664986
v -0.00405153 0.02725263 0.00664986
v -0.00348751 0.02795018 0.00838093
v -0.00355405 0.02792443 0.00798686
v -0.00364673 0.02773249 0.00815656
v -0.00400479 0.02717422 0.00794780
v -0.00366495 0.02776292 0.00786828
v -0.00452603 0.02645912 0.00599165
v -0.00440007 0.02667564 0.00621673
v 0.00053824 0.02153417 0.01315593
v 0.00089550 0.02232535 0.01312753
v 0.00098977 0.02285085 0.01312043
v 0.00074974 0.03330348 0.00599165
v 0.00097313 0.03346850 0.00708227
v 0.00098977 0.03348021 0.00708227
v 0.00048754 0.03308696 0.00621673
v 0.00076004 0.03329412 0.00751539
v -0.00662604 0.02153417 0.01011129
v -0.00624580 0.02211117 0.01033140
v -0.00580615 0.02296320 0.01031152
v -0.00536651 0.02381523 0.01029022
v -0.00643830 0.02189231 0.01011129
v -0.00661970 0.02153417 0.01012833
v -0.00647315 0.02153417 0.01051104
v -0.00364594 0.02686641 0.01032288
v -0.00357623 0.02709346 0.01015176
v -0.00333462 0.02753820 0.01011768
v -0.00319283 0.02769620 0.01026608
v -0.00309935 0.02793379 0.01011768
v -0.00287121 0.02830831 0.01011129
v -0.00277694 0.02858920 0.00987201
v -0.00315163 0.02806370 0.00967817
v -0.00292428 0.02842067 0.00970799
v -0.00224778 0.02966478 0.00928481
v -0.00231828 0.02941432 0.00967817
v -0.00192221 0.02990471 0.00991035
v -0.00195310 0.02994801 0.00967817
v -0.00200697 0.03002291 0.00924646
v -0.00204895 0.03008494 0.00881334
v -0.00226521 0.02977245 0.00881334
v -0.00241097 0.02955593 0.00881334
v -0.00260821 0.02924812 0.00881334
v -0.00276427 0.02900234 0.00881334
v -0.00290131 0.02878582 0.00881334
v -0.00278249 0.02903160 0.00859465
v -0.00328630 0.02828022 0.00838093
v -0.00500053 0.02436882 0.01045779
v -0.00454900 0.02520213 0.01041519
v -0.00409826 0.02603544 0.01036974
v -0.00384953 0.02751714 0.00751539
v -0.00369981 0.02782261 0.00708227
v -0.00370931 0.02783782 0.00664986
v -0.00405786 0.02726316 0.00621673
v -0.00331482 0.02832587 0.00794780
v -0.00377110 0.02755927 0.00798686
v -0.00355484 0.02801104 0.00751539
v -0.00429630 0.02685353 0.00599165
v 0.00046298 0.02153417 0.01316303
v 0.00089550 0.02275722 0.01313037
v 0.00098977 0.02319025 0.01311972
v 0.00089550 0.02319025 0.01312966
v 0.00048754 0.03308696 0.00599165
v 0.00098977 0.03347318 0.00749622
v 0.00037505 0.03299333 0.00599165
v 0.00027128 0.03290555 0.00621673
v 0.00050893 0.03307760 0.00751539
v 0.00051922 0.03306940 0.00794780
v 0.00077192 0.03328592 0.00794780
v 0.00097709 0.03346265 0.00751539
v -0.00538235 0.02341380 0.01076737
v -0.00531581 0.02371809 0.01054370
v -0.00510113 0.02409261 0.01057850
v -0.00642483 0.02153417 0.01062181
v -0.00626085 0.02170739 0.01079364
v -0.00618560 0.02199530 0.01062039
v -0.00359920 0.02678331 0.01054370
v -0.00327521 0.02740829 0.01046915
v -0.00403727 0.02592659 0.01065873
v -0.00291240 0.02796422 0.01054725
v -0.00281734 0.02822170 0.01040596
v -0.00234918 0.02903043 0.01032430
v -0.00315005 0.02753820 0.01058560
v -0.00227075 0.02925280 0.01015247
v -0.00239908 0.02911119 0.01003532
v -0.00201489 0.02968701 0.01007721
v -0.00187626 0.02983565 0.01019863
v -0.00148810 0.03033540 0.01033637
v -0.00152296 0.03038573 0.01011129
v -0.00158475 0.03046883 0.00967817
v -0.00180101 0.03016453 0.00967817
v -0.00185250 0.03023943 0.00924646
v -0.00189606 0.03030146 0.00881334
v -0.00191666 0.03032955 0.00859252
v -0.00229531 0.02981576 0.00838093
v -0.00244107 0.02960041 0.00838093
v -0.00268268 0.02922355 0.00842211
v -0.00280229 0.02906203 0.00830566
v -0.00300746 0.02881508 0.00794780
v -0.00315005 0.02849674 0.00838093
v -0.00317936 0.02854239 0.00794780
v -0.00494033 0.02426115 0.01074606
v -0.00464010 0.02493997 0.01055364
v -0.00440879 0.02534960 0.01055364
v -0.00448959 0.02509563 0.01070346
v -0.00321580 0.02859974 0.00730522
v -0.00371486 0.02784367 0.00621673
v -0.00390894 0.02751714 0.00621673
v -0.00398578 0.02738488 0.00599165
v -0.00320075 0.02857633 0.00759350
v -0.00331482 0.02841247 0.00747563
v 0.00010572 0.02153417 0.01318930
v 0.00046298 0.02189231 0.01316445
v 0.00098977 0.02328388 0.01311830
v 0.00046298 0.02319025 0.01315593
v 0.00046298 0.02275722 0.01316019
v 0.00046298 0.02232535 0.01316303
v 0.00098977 0.02362329 0.01311120
v 0.00089550 0.02362329 0.01311972
v 0.00098897 0.03345446 0.00794780
v 0.00098977 0.03345446 0.00794709
v 0.00027128 0.03290555 0.00599165
v 0.00013899 0.03278734 0.00599165
v -0.00018738 0.03249475 0.00645744
v 0.00029267 0.03288565 0.00751539
v 0.00030297 0.03287629 0.00794780
v 0.00053269 0.03305536 0.00838093
v 0.00079252 0.03327071 0.00838093
v 0.00098977 0.03342403 0.00838093
v -0.00494666 0.02384098 0.01119410
v -0.00500053 0.02394047 0.01097683
v -0.00629808 0.02153417 0.01089517
v -0.00621808 0.02153417 0.01105209
v -0.00321342 0.02729945 0.01075743
v -0.00338532 0.02712740 0.01058560
v -0.00366654 0.02646965 0.01080145
v -0.00284190 0.02783080 0.01088736
v -0.00275397 0.02811871 0.01069423
v -0.00237770 0.02864304 0.01081920
v -0.00191112 0.02945411 0.01074535
v -0.00197132 0.02954774 0.01045708
v -0.00157366 0.03010718 0.01050607
v -0.00142552 0.03024645 0.01062536
v -0.00103024 0.03073567 0.01071127
v -0.00109123 0.03081643 0.01042300
v -0.00114827 0.03088899 0.01011129
v -0.00136453 0.03060225 0.01011129
v -0.00142869 0.03068535 0.00967817
v -0.00146434 0.03073567 0.00936362
v -0.00161168 0.03057416 0.00923013
v -0.00149365 0.03077546 0.00907464
v -0.00193567 0.03035530 0.00830353
v -0.00205766 0.03015634 0.00842140
v -0.00151662 0.03080590 0.00881334
v -0.00135185 0.03102241 0.00881334
v -0.00155148 0.03085037 0.00838093
v -0.00232304 0.02985672 0.00794780
v -0.00246959 0.02964020 0.00794780
v -0.00268585 0.02931601 0.00794780
v -0.00282685 0.02909949 0.00794780
v -0.00449751 0.02467663 0.01116286
v -0.00404756 0.02551228 0.01112878
v -0.00457039 0.02480655 0.01087458
v -0.00411886 0.02563868 0.01084050
v -0.00321580 0.02859974 0.00729741
v -0.00197528 0.03040797 0.00751539
v -0.00371486 0.02784250 0.00599165
v -0.00390814 0.02751714 0.00599165
v 0.00003046 0.02153417 0.01319428
v 0.00003046 0.02319025 0.01317155
v 0.00003046 0.02275722 0.01317936
v 0.00003046 0.02232535 0.01318646
v 0.00003046 0.02189231 0.01319144
v 0.00046298 0.02362329 0.01314457
v 0.00003046 0.02362329 0.01316232
v 0.00098977 0.02371692 0.01310836
v 0.00098977 0.02414996 0.01309203
v 0.00089550 0.02405633 0.01310268
v -0.00001231 0.03265041 0.00599165
v -0.00018738 0.03249475 0.00638288
v -0.00062465 0.03206756 0.00621673
v -0.00062307 0.03206639 0.00664986
v -0.00061990 0.03206288 0.00691257
v -0.00061594 0.03205820 0.00720084
v -0.00018183 0.03249007 0.00674571
v -0.00017471 0.03248421 0.00708227
v 0.00006690 0.03265977 0.00794780
v 0.00031643 0.03286108 0.00838093
v -0.00016362 0.03247368 0.00751539
v 0.00034020 0.03284118 0.00881334
v 0.00055646 0.03303312 0.00881334
v 0.00081708 0.03324964 0.00881334
v 0.00098977 0.03338423 0.00881334
v -0.00618639 0.02156460 0.01108191
v -0.00582279 0.02213106 0.01121185
v -0.00588537 0.02189231 0.01130770
v -0.00492844 0.02337283 0.01159953
v -0.00486190 0.02362329 0.01149870
v -0.00448246 0.02421785 0.01158036
v -0.00321659 0.02643922 0.01162793
v -0.00276744 0.02727487 0.01160379
v -0.00322847 0.02689333 0.01121469
v -0.00619431 0.02153417 0.01109611
v -0.00316352 0.02721050 0.01097683
v -0.00295043 0.02755225 0.01100949
v -0.00277457 0.02771961 0.01117564
v -0.00230799 0.02853068 0.01110818
v -0.00198875 0.02914747 0.01097683
v -0.00193013 0.02905150 0.01121327
v -0.00185091 0.02936399 0.01097683
v -0.00162990 0.02969404 0.01098251
v -0.00152692 0.02995737 0.01084263
v -0.00182794 0.02968701 0.01057850
v -0.00096132 0.03063853 0.01097683
v -0.00072605 0.03096975 0.01094417
v -0.00062861 0.03120850 0.01077873
v -0.00091696 0.03096858 0.01055790
v -0.00111896 0.03042201 0.01097683
v -0.00068327 0.03127404 0.01054370
v -0.00098271 0.03110551 0.01011129
v -0.00102786 0.03116637 0.00980952
v -0.00118946 0.03100486 0.00967036
v -0.00106747 0.03121553 0.00952196
v -0.00133522 0.03094400 0.00923013
v -0.00109678 0.03125298 0.00924646
v -0.00179308 0.03059874 0.00794780
v -0.00195548 0.03038222 0.00794780
v -0.00214480 0.03011420 0.00794780
v -0.00138354 0.03106689 0.00838093
v -0.00113559 0.03129979 0.00881334
v -0.00157682 0.03088197 0.00794780
v -0.00182477 0.03062683 0.00708227
v -0.00161881 0.03092527 0.00599165
v -0.00181130 0.03062449 0.00751539
v -0.00160851 0.03091708 0.00708227
v -0.00161643 0.03092410 0.00664986
v -0.00032680 0.02153417 0.01321132
v -0.00083536 0.02232535 0.01321700
v -0.00040285 0.02232535 0.01320209
v -0.00040285 0.02189231 0.01320919
v -0.00040285 0.02153417 0.01321487
v 0.00046298 0.02405633 0.01312540
v 0.00003046 0.02405633 0.01314599
v -0.00040285 0.02362329 0.01317084
v -0.00040285 0.02319025 0.01318434
v 0.00098977 0.02458183 0.01307286
v 0.00089550 0.02448937 0.01308280
v 0.00046298 0.02535428 0.01306647
v -0.00013985 0.03253337 0.00599165
v -0.00018421 0.03249241 0.00599165
v -0.00036007 0.03232504 0.00599165
v -0.00062465 0.03206756 0.00599165
v -0.00082903 0.03184519 0.00621673
v -0.00082586 0.03184519 0.00664986
v -0.00103340 0.03160760 0.00708227
v -0.00077833 0.03188615 0.00706665
v -0.00060881 0.03205118 0.00751539
v -0.00039255 0.03225716 0.00751539
v -0.00015015 0.03245964 0.00794780
v 0.00011126 0.03262466 0.00881334
v 0.00013820 0.03259657 0.00924646
v 0.00037584 0.03281309 0.00924646
v 0.00059210 0.03300152 0.00924646
v 0.00085748 0.03321804 0.00924646
v 0.00098977 0.03334210 0.00910375
v -0.00600974 0.02153417 0.01140072
v -0.00595508 0.02153417 0.01148521
v -0.00580457 0.02166174 0.01161586
v -0.00500291 0.02308492 0.01169752
v -0.00456326 0.02392993 0.01168757
v -0.00366574 0.02560240 0.01164852
v -0.00284665 0.02698579 0.01170533
v -0.00265178 0.02711219 0.01184662
v -0.00235076 0.02730296 0.01205892
v -0.00245057 0.02747500 0.01182745
v -0.00238879 0.02779686 0.01167337
v -0.00192221 0.02860676 0.01163148
v -0.00230006 0.02808594 0.01155409
v -0.00239671 0.02824277 0.01126581
v -0.00285933 0.02743170 0.01131551
v -0.00182873 0.02889584 0.01150225
v -0.00154672 0.02955944 0.01128143
v -0.00145087 0.02984736 0.01113090
v -0.00221134 0.02838556 0.01140995
v -0.00134472 0.03010718 0.01098251
v -0.00066426 0.03081994 0.01125516
v -0.00105558 0.03033540 0.01119907
v -0.00054464 0.03110785 0.01106700
v -0.00038304 0.03138757 0.01094275
v -0.00022065 0.03166729 0.01081849
v -0.00050266 0.03149056 0.01054370
v -0.00057316 0.03157600 0.01019578
v -0.00073951 0.03142385 0.01007508
v -0.00062307 0.03163335 0.00990680
v -0.00091854 0.03146950 0.00924646
v -0.00065317 0.03166846 0.00967817
v -0.00140730 0.03109849 0.00794780
v -0.00116649 0.03133373 0.00838093
v -0.00095736 0.03151631 0.00881334
v -0.00159504 0.03090304 0.00751539
v -0.00161881 0.03092527 0.00621673
v -0.00143899 0.03114179 0.00621673
v -0.00143820 0.03114179 0.00599165
v -0.00142394 0.03111956 0.00751539
v -0.00143424 0.03113360 0.00708227
v -0.00143820 0.03113945 0.00664986
v -0.00126788 0.02232535 0.01322694
v -0.00126788 0.02189231 0.01323688
v -0.00083536 0.02189231 0.01322410
v -0.00083536 0.02153417 0.01322907
v 0.00003046 0.02448937 0.01312540
v -0.00040285 0.02535428 0.01309416
v -0.00083536 0.02448937 0.01314031
v -0.00126788 0.02362329 0.01318220
v -0.00126788 0.02319025 0.01319925
v -0.00126788 0.02275722 0.01321345
v 0.00098977 0.02535428 0.01303736
v 0.00089550 0.02535428 0.01304304
v 0.00046298 0.02578732 0.01304375
v 0.00003046 0.02578732 0.01306221
v -0.00082824 0.03184519 0.00599165
v -0.00103974 0.03161463 0.00621673
v -0.00103816 0.03161345 0.00664986
v -0.00121719 0.03139108 0.00708227
v -0.00120689 0.03137821 0.00751539
v -0.00102152 0.03159473 0.00751539
v -0.00080526 0.03183466 0.00751539
v -0.00059296 0.03203479 0.00794780
v -0.00037671 0.03224429 0.00794780
v -0.00010500 0.03241516 0.00881334
v -0.00007806 0.03238824 0.00924646
v 0.00018493 0.03255327 0.00967817
v 0.00042654 0.03276862 0.00967817
v 0.00064280 0.03295822 0.00967817
v 0.00098977 0.03329646 0.00937356
v 0.00098977 0.03332103 0.00924646
v -0.00583705 0.02153417 0.01165633
v -0.00544018 0.02222938 0.01170249
v -0.00452127 0.02342082 0.01206674
v -0.00462346 0.02358818 0.01183597
v -0.00443968 0.02370990 0.01197656
v -0.00407212 0.02425881 0.01205040
v -0.00362297 0.02509446 0.01203194
v -0.00272387 0.02676458 0.01199360
v -0.00317302 0.02593011 0.01201348
v -0.00280467 0.02647667 0.01207952
v -0.00241414 0.02708527 0.01211644
v -0.00212262 0.02747500 0.01215549
v -0.00197053 0.02781792 0.01210437
v -0.00150078 0.02862314 0.01207242
v -0.00187943 0.02810701 0.01202129
v -0.00179308 0.02838322 0.01192686
v -0.00199192 0.02838322 0.01171030
v -0.00166475 0.02875891 0.01180402
v -0.00154039 0.02911353 0.01168757
v -0.00106034 0.02990939 0.01163503
v -0.00112529 0.03007792 0.01136948
v -0.00055019 0.03067832 0.01154344
v -0.00040285 0.03098028 0.01141279
v -0.00025630 0.03127873 0.01128143
v -0.00013193 0.03156664 0.01110676
v 0.00003522 0.03183817 0.01096760
v 0.00020236 0.03210618 0.01082772
v -0.00008915 0.03195872 0.01054370
v -0.00028640 0.03174220 0.01054370
v -0.00015728 0.03203128 0.01024123
v -0.00020481 0.03208161 0.00995295
v -0.00045988 0.03188498 0.00967817
v -0.00070228 0.03172347 0.00924646
v -0.00050979 0.03193999 0.00924646
v -0.00119104 0.03135831 0.00794780
v -0.00098508 0.03155025 0.00838093
v -0.00074110 0.03176209 0.00881334
v -0.00122115 0.03139693 0.00664986
v -0.00122273 0.03139811 0.00621673
v -0.00133442 0.03126468 0.00599165
v -0.00170119 0.02232535 0.01323191
v -0.00170119 0.02189231 0.01324256
v -0.00126788 0.02153417 0.01323972
v -0.00040285 0.02578732 0.01307073
v -0.00083536 0.02492124 0.01311830
v -0.00126788 0.02405633 0.01316303
v -0.00170119 0.02319025 0.01319641
v -0.00170119 0.02275722 0.01321487
v 0.00098977 0.02578732 0.01301251
v 0.00089550 0.02578732 0.01301819
v 0.00046298 0.02622036 0.01301109
v 0.00003046 0.02622036 0.01303168
v -0.00103895 0.03161345 0.00599165
v -0.00100489 0.03157483 0.00794780
v -0.00078863 0.03181827 0.00794780
v -0.00076882 0.03179135 0.00838093
v -0.00056603 0.03200787 0.00838093
v -0.00032363 0.03219981 0.00881334
v -0.00029353 0.03217172 0.00924646
v -0.00003133 0.03233675 0.00967817
v 0.00022454 0.03251464 0.00995295
v 0.00067528 0.03293130 0.00990680
v 0.00098977 0.03324847 0.00959580
v -0.00567545 0.02153417 0.01184733
v -0.00550751 0.02186656 0.01184520
v -0.00488171 0.02285319 0.01198579
v -0.00531819 0.02199413 0.01199076
v -0.00495775 0.02256410 0.01207029
v -0.00501796 0.02232535 0.01212709
v -0.00457910 0.02319025 0.01212141
v -0.00428838 0.02321717 0.01236211
v -0.00406499 0.02337869 0.01248069
v -0.00429630 0.02358818 0.01218318
v -0.00415134 0.02396972 0.01212496
v -0.00370218 0.02480537 0.01211076
v -0.00287596 0.02622036 0.01214271
v -0.00257415 0.02663350 0.01219951
v -0.00227075 0.02665223 0.01243595
v -0.00211945 0.02708761 0.01234649
v -0.00157682 0.02838322 0.01213348
v -0.00126155 0.02878700 0.01216543
v -0.00111262 0.02911938 0.01210579
v -0.00100806 0.02940846 0.01202271
v -0.00140097 0.02891106 0.01197656
v -0.00091141 0.02968116 0.01193112
v -0.00061911 0.02989768 0.01205892
v -0.00078625 0.03004749 0.01179834
v -0.00066426 0.03038924 0.01167266
v -0.00026105 0.03085154 0.01169254
v -0.00013114 0.03114062 0.01156971
v 0.00015642 0.03171996 0.01128995
v 0.00030613 0.03200904 0.01111599
v 0.00064518 0.03252167 0.01080358
v 0.00035446 0.03239527 0.01054370
v 0.00012711 0.03217875 0.01054370
v 0.00028079 0.03246198 0.01024123
v -0.00024362 0.03212140 0.00967817
v -0.00053989 0.03197744 0.00881334
v -0.00213371 0.02232535 0.01321913
v -0.00213371 0.02189231 0.01323475
v -0.00213371 0.02153417 0.01324398
v -0.00205846 0.02153417 0.01324540
v -0.00170119 0.02153417 0.01324469
v -0.00162515 0.02153417 0.01324398
v -0.00083536 0.02578732 0.01305653
v -0.00083536 0.02535428 0.01309132
v -0.00040285 0.02622036 0.01303381
v -0.00126788 0.02448937 0.01313747
v -0.00170119 0.02362329 0.01317368
v 0.00098977 0.02622621 0.01297629
v 0.00089550 0.02622036 0.01298339
v 0.00098977 0.02716602 0.01289109
v 0.00098977 0.02751714 0.01285772
v 0.00046298 0.02751714 0.01288399
v 0.00003046 0.02665223 0.01298907
v 0.00047803 0.03269839 0.01007437
v 0.00073865 0.03288331 0.01019507
v 0.00088837 0.03303195 0.01007508
v 0.00098977 0.03314080 0.00996289
v -0.00563822 0.02153417 0.01189065
v -0.00539423 0.02170622 0.01207384
v -0.00450464 0.02252548 0.01248566
v -0.00444285 0.02275722 0.01243595
v -0.00473437 0.02272796 0.01219454
v -0.00540295 0.02153417 0.01214413
v -0.00413866 0.02309077 0.01253181
v -0.00377902 0.02362329 0.01257583
v -0.00369426 0.02392642 0.01252400
v -0.00361505 0.02421433 0.01246720
v -0.00399528 0.02362329 0.01242459
v -0.00379091 0.02448937 0.01218744
v -0.00353583 0.02448937 0.01240400
v -0.00316352 0.02504647 0.01245300
v -0.00271119 0.02587861 0.01243880
v -0.00256702 0.02625313 0.01238199
v -0.00196577 0.02694482 0.01252045
v -0.00186992 0.02723274 0.01246223
v -0.00234046 0.02641932 0.01248495
v -0.00125283 0.02838322 0.01236140
v -0.00177724 0.02751714 0.01239548
v -0.00138671 0.02802976 0.01243311
v -0.00099538 0.02852717 0.01246436
v -0.00040285 0.02968116 0.01227975
v -0.00037274 0.03007090 0.01211928
v -0.00020798 0.03035530 0.01207313
v -0.00049632 0.03018559 0.01196094
v -0.00007489 0.03064321 0.01198153
v 0.00004155 0.03096858 0.01183952
v 0.00015721 0.03128692 0.01169752
v 0.00030217 0.03157483 0.01157823
v 0.00044872 0.03186040 0.01142770
v 0.00059448 0.03213427 0.01127788
v 0.00057072 0.03258955 0.01054370
v 0.00077668 0.03242219 0.01109256
v 0.00098977 0.03272882 0.01088097
v 0.00098977 0.03286810 0.01065376
v 0.00088837 0.03282714 0.01058063
v -0.00213371 0.02275722 0.01319428
v -0.00256623 0.02232535 0.01318930
v -0.00256623 0.02189231 0.01321061
v -0.00256623 0.02153417 0.01322552
v -0.00249097 0.02153417 0.01322978
v -0.00083536 0.02622036 0.01301038
v -0.00126788 0.02535428 0.01306292
v -0.00126788 0.02492124 0.01310268
v 0.00003046 0.02705718 0.01294505
v 0.00003046 0.02727253 0.01292091
v 0.00003046 0.02751714 0.01289322
v -0.00040285 0.02665223 0.01298410
v -0.00170119 0.02405633 0.01314457
v 0.00098977 0.02630697 0.01296919
v 0.00098977 0.02761077 0.01284778
v 0.00046298 0.02795018 0.01283713
v 0.00098977 0.03297343 0.01042584
v 0.00098977 0.03309866 0.01008502
v -0.00543701 0.02153417 0.01211360
v -0.00422580 0.02275722 0.01258506
v -0.00510668 0.02153417 0.01240045
v -0.00493953 0.02166408 0.01248708
v -0.00497122 0.02153417 0.01250838
v -0.00466307 0.02189231 0.01258648
v -0.00389785 0.02321717 0.01263477
v -0.00345503 0.02406452 0.01262127
v -0.00331957 0.02448937 0.01256092
v -0.00324352 0.02475856 0.01251193
v -0.00279279 0.02558953 0.01249844
v -0.00171545 0.02708761 0.01259642
v -0.00156098 0.02751714 0.01253252
v -0.00148969 0.02774185 0.01249418
v -0.00242285 0.02613141 0.01253749
v -0.00205450 0.02665223 0.01257015
v -0.00286012 0.02535428 0.01254246
v -0.00109836 0.02823809 0.01251619
v -0.00070704 0.02870507 0.01252826
v -0.00058108 0.02899415 0.01247714
v 0.00003046 0.03011420 0.01229892
v -0.00042344 0.02927972 0.01243453
v -0.00016282 0.02944475 0.01248566
v 0.00005423 0.03051798 0.01212709
v 0.00021424 0.03079770 0.01207739
v 0.00059052 0.03171177 0.01168331
v 0.00077905 0.03200085 0.01156616
v 0.00098977 0.03250060 0.01119339
v 0.00098977 0.03294300 0.01049329
v -0.00256623 0.02275722 0.01315806
v -0.00299954 0.02189231 0.01317155
v -0.00299954 0.02153417 0.01319144
v -0.00292349 0.02153417 0.01319854
v -0.00213371 0.02362329 0.01313747
v -0.00040285 0.02698696 0.01294079
v -0.00082269 0.02666159 0.01295073
v -0.00112133 0.02652232 0.01293795
v -0.00126788 0.02578732 0.01301677
v -0.00170119 0.02448937 0.01310765
v 0.00003046 0.02795018 0.01283997
v 0.00098977 0.02795018 0.01280943
v 0.00098977 0.02838322 0.01275973
v 0.00089550 0.02881508 0.01271429
v 0.00046298 0.02838322 0.01278032
v -0.00433512 0.02235812 0.01263903
v -0.00475892 0.02153417 0.01263548
v -0.00382814 0.02272913 0.01281014
v -0.00349226 0.02319025 0.01285701
v -0.00338849 0.02358116 0.01279949
v -0.00299954 0.02448937 0.01274340
v -0.00301142 0.02491071 0.01260281
v -0.00170119 0.02665223 0.01273701
v -0.00125283 0.02791155 0.01254885
v -0.00256702 0.02575572 0.01257796
v -0.00256623 0.02535428 0.01270648
v -0.00217094 0.02625313 0.01263264
v -0.00084487 0.02838322 0.01257441
v -0.00126788 0.02751714 0.01266104
v -0.00083536 0.02795018 0.01270080
v -0.00042344 0.02883615 0.01257867
v 0.00046298 0.03054724 0.01227123
v 0.00000115 0.02970925 0.01244945
v -0.00040285 0.02838322 0.01270790
v 0.00012631 0.02958402 0.01251974
v 0.00030613 0.02987310 0.01248495
v 0.00046298 0.03089367 0.01212354
v 0.00068795 0.03119095 0.01205608
v 0.00046298 0.03111019 0.01200212
v 0.00091213 0.03185221 0.01174296
v 0.00098977 0.03196925 0.01169539
v 0.00098977 0.03206405 0.01162509
v 0.00098977 0.03238356 0.01131835
v -0.00256623 0.02319025 0.01311901
v -0.00299954 0.02232535 0.01313747
v -0.00335601 0.02153417 0.01314670
v -0.00213371 0.02405633 0.01309842
v -0.00040285 0.02720348 0.01291097
v -0.00040285 0.02751714 0.01286766
v -0.00095894 0.02681140 0.01291452
v -0.00140968 0.02635729 0.01290884
v -0.00152771 0.02606821 0.01293653
v -0.00126630 0.02621568 0.01295854
v -0.00083536 0.02751714 0.01280020
v -0.00126630 0.02666159 0.01287973
v -0.00170119 0.02535428 0.01300469
v -0.00170119 0.02492124 0.01306079
v -0.00040285 0.02795018 0.01279807
v 0.00046298 0.02881508 0.01271429
v 0.00003046 0.02838322 0.01276967
v 0.00098977 0.02881508 0.01270932
v 0.00098977 0.02890871 0.01269512
v 0.00089550 0.02924812 0.01264826
v -0.00426145 0.02186539 0.01281299
v -0.00471535 0.02153417 0.01265891
v -0.00393745 0.02232535 0.01286127
v -0.00358336 0.02285319 0.01289890
v -0.00313500 0.02369703 0.01289180
v -0.00299479 0.02408325 0.01285843
v -0.00254880 0.02492124 0.01283997
v -0.00126788 0.02708527 0.01277961
v -0.00209173 0.02574519 0.01281512
v -0.00220184 0.02535428 0.01287192
v -0.00181685 0.02586222 0.01289393
v -0.00168377 0.02621568 0.01285559
v 0.00089550 0.03054724 0.01235217
v 0.00085748 0.03102007 0.01217111
v 0.00097630 0.03127990 0.01209301
v 0.00003046 0.02881508 0.01267950
v 0.00045506 0.02970925 0.01253749
v 0.00059448 0.02993045 0.01249986
v 0.00085748 0.03141917 0.01198863
v 0.00098977 0.03190839 0.01173302
v 0.00098977 0.03153855 0.01195810
v -0.00256623 0.02362329 0.01307286
v -0.00299954 0.02275722 0.01309132
v -0.00343127 0.02189231 0.01309913
v -0.00343127 0.02153417 0.01313392
v -0.00213371 0.02448937 0.01304730
v -0.00191904 0.02557314 0.01292517
v -0.00214401 0.02492124 0.01297771
v -0.00168377 0.02574519 0.01295215
v 0.00046298 0.02924812 0.01263619
v 0.00098977 0.02924812 0.01264258
v 0.00098977 0.02976075 0.01254885
v 0.00089550 0.02968116 0.01256660
v -0.00435096 0.02153417 0.01285275
v -0.00402142 0.02199296 0.01290032
v -0.00321580 0.02340911 0.01292446
v -0.00365941 0.02256527 0.01292943
v -0.00276506 0.02424593 0.01291878
v -0.00269297 0.02448937 0.01289038
v -0.00229531 0.02506520 0.01290742
v 0.00089550 0.03018091 0.01245442
v 0.00098977 0.03063970 0.01232874
v 0.00098977 0.03111253 0.01215691
v 0.00098977 0.03129043 0.01209088
v 0.00089550 0.02996439 0.01250767
v 0.00098977 0.03146014 0.01200070
v -0.00259950 0.02408325 0.01299688
v -0.00299954 0.02319025 0.01302813
v -0.00343127 0.02232535 0.01304091
v -0.00378853 0.02153417 0.01305156
v -0.00247672 0.02448937 0.01296422
v -0.00239275 0.02477611 0.01293937
v 0.00098977 0.02996088 0.01250696
v -0.00428521 0.02153417 0.01288328
v -0.00409351 0.02170388 0.01293014
v -0.00327600 0.02319025 0.01294647
v -0.00284665 0.02395802 0.01294789
v -0.00372040 0.02232535 0.01295215
v 0.00098977 0.03025933 0.01243311
v -0.00343602 0.02272913 0.01297558
v -0.00387250 0.02186539 0.01297771
v -0.00386537 0.02153417 0.01303026
v -0.00413629 0.02153417 0.01294505
v -0.00410222 0.02153417 0.01295712
f 1 2 12
f 1 12 28
f 1 28 49
f 1 49 74
f 1 74 105
f 1 105 139
f 1 139 178
f 1 178 226
f 1 226 279
f 1 279 336
f 1 336 404
f 1 404 408
f 1 408 477
f 1 477 546
f 1 546 607
f 1 607 606
f 1 606 605
f 1 605 604
f 1 604 665
f 1 665 664
f 1 664 711
f 1 711 710
f 1 710 753
f 1 753 795
f 1 795 820
f 1 820 832
f 1 832 834
f 1 834 833
f 1 833 824
f 1 824 804
f 1 804 772
f 1 772 724
f 1 724 683
f 1 683 681
f 1 681 628
f 1 628 679
f 1 679 623
f 1 623 567
f 1 567 504
f 1 504 434
f 1 434 433
f 1 433 370
f 1 370 300
f 1 300 299
f 1 299 241
f 1 241 192
f 1 192 191
f 1 191 186
f 1 186 145
f 1 145 110
f 1 110 76
f 1 76 50
f 1 50 29
f 1 29 13
f 1 13 3
f 1 3 4
f 1 4 5
f 1 5 6
f 1 6 7
f 1 7 8
f 1 8 9
f 1 9 2
f 2 10 11
f 2 11 12
f 2 9 10
f 3 13 14
f 3 14 15
f 3 15 4
f 4 16 5
f 4 15 17
f 4 17 18
f 4 18 16
f 5 16 19
f 5 19 20
f 5 20 21
f 5 21 22
f 5 22 23
f 5 23 24
f 5 24 6
f 6 24 25
f 6 25 8
f 6 8 7
f 8 25 26
f 8 26 9
f 9 26 27
f 9 27 48
f 9 48 72
f 9 72 100
f 9 100 104
f 9 104 138
f 9 138 137
f 9 137 176
f 9 176 225
f 9 225 276
f 9 276 335
f 9 335 334
f 9 334 400
f 9 400 470
f 9 470 543
f 9 543 556
f 9 556 488
f 9 488 419
f 9 419 418
f 9 418 417
f 9 417 416
f 9 416 346
f 9 346 290
f 9 290 289
f 9 289 232
f 9 232 230
f 9 230 181
f 9 181 142
f 9 142 107
f 9 107 75
f 9 75 49
f 9 49 28
f 9 28 11
f 9 11 10
f 11 28 12
f 13 29 14
f 14 30 31
f 14 31 15
f 14 29 30
f 15 31 17
f 16 18 19
f 17 31 18
f 18 32 33
f 18 33 34
f 18 34 35
f 18 35 36
f 18 36 37
f 18 37 19
f 18 31 32
f 19 37 20
f 20 37 21
f 21 37 38
f 21 38 22
f 22 35 39
f 22 39 40
f 22 40 41
f 22 41 42
f 22 42 43
f 22 43 23
f 22 38 35
f 23 43 24
f 24 43 42
f 24 42 44
f 24 44 25
f 25 44 45
f 25 45 46
f 25 46 47
f 25 47 26
f 26 47 27
f 27 47 46
f 27 46 48
f 29 50 51
f 29 51 30
f 30 51 52
f 30 52 32
f 30 32 31
f 32 53 33
f 32 52 51
f 32 51 53
f 33 53 34
f 34 54 35
f 34 53 55
f 34 55 56
f 34 56 54
f 35 54 57
f 35 57 58
f 35 58 59
f 35 59 60
f 35 60 39
f 35 38 36
f 36 38 37
f 39 60 61
f 39 61 62
f 39 62 40
f 40 63 64
f 40 64 65
f 40 65 41
f 40 62 61
f 40 61 66
f 40 66 67
f 40 67 68
f 40 68 69
f 40 69 63
f 41 44 42
f 41 65 70
f 41 70 44
f 44 70 45
f 45 70 71
f 45 71 46
f 46 72 48
f 46 71 73
f 46 73 100
f 46 100 72
f 49 75 109
f 49 109 143
f 49 143 183
f 49 183 231
f 49 231 288
f 49 288 296
f 49 296 360
f 49 360 432
f 49 432 503
f 49 503 502
f 49 502 566
f 49 566 622
f 49 622 678
f 49 678 677
f 49 677 707
f 49 707 659
f 49 659 658
f 49 658 706
f 49 706 750
f 49 750 749
f 49 749 748
f 49 748 790
f 49 790 791
f 49 791 816
f 49 816 814
f 49 814 813
f 49 813 812
f 49 812 829
f 49 829 823
f 49 823 802
f 49 802 801
f 49 801 769
f 49 769 768
f 49 768 720
f 49 720 719
f 49 719 675
f 49 675 616
f 49 616 615
f 49 615 674
f 49 674 613
f 49 613 552
f 49 552 484
f 49 484 413
f 49 413 344
f 49 344 343
f 49 343 285
f 49 285 281
f 49 281 228
f 49 228 180
f 49 180 141
f 49 141 106
f 49 106 74
f 50 76 51
f 51 76 77
f 51 77 53
f 53 78 79
f 53 79 80
f 53 80 81
f 53 81 55
f 53 77 78
f 54 56 57
f 55 82 56
f 55 81 82
f 56 83 84
f 56 84 85
f 56 85 86
f 56 86 87
f 56 87 88
f 56 88 59
f 56 59 58
f 56 58 57
f 56 82 89
f 56 89 90
f 56 90 91
f 56 91 83
f 59 88 67
f 59 67 66
f 59 66 61
f 59 61 60
f 63 92 64
f 63 69 93
f 63 93 92
f 64 92 65
f 65 92 70
f 67 88 94
f 67 94 95
f 67 95 96
f 67 96 68
f 68 96 69
f 69 96 97
f 69 97 93
f 70 92 71
f 71 92 98
f 71 98 99
f 71 99 73
f 73 99 93
f 73 93 101
f 73 101 102
f 73 102 103
f 73 103 104
f 73 104 100
f 74 106 105
f 75 107 108
f 75 108 109
f 76 110 77
f 77 110 111
f 77 111 78
f 78 111 79
f 79 111 112
f 79 112 80
f 80 112 81
f 81 112 113
f 81 113 82
f 82 113 89
f 83 114 84
f 83 91 115
f 83 115 114
f 84 114 116
f 84 116 117
f 84 117 85
f 85 117 86
f 86 117 118
f 86 118 87
f 87 118 119
f 87 119 120
f 87 120 121
f 87 121 122
f 87 122 123
f 87 123 94
f 87 94 124
f 87 124 88
f 88 124 94
f 89 113 90
f 90 113 125
f 90 125 91
f 91 126 115
f 91 125 126
f 92 93 98
f 93 127 101
f 93 99 98
f 93 97 128
f 93 128 129
f 93 129 130
f 93 130 127
f 94 131 95
f 94 123 122
f 94 122 121
f 94 121 132
f 94 132 133
f 94 133 131
f 95 131 134
f 95 134 96
f 96 134 128
f 96 128 97
f 101 127 102
f 102 135 103
f 102 127 129
f 102 129 136
f 102 136 135
f 103 135 137
f 103 137 138
f 103 138 104
f 105 106 139
f 106 140 139
f 106 141 179
f 106 179 140
f 107 142 108
f 108 143 109
f 108 142 144
f 108 144 143
f 110 145 111
f 111 145 146
f 111 146 147
f 111 147 148
f 111 148 149
f 111 149 112
f 112 148 125
f 112 125 113
f 112 149 150
f 112 150 148
f 114 115 151
f 114 151 116
f 115 126 151
f 116 152 153
f 116 153 154
f 116 154 117
f 116 151 152
f 117 154 119
f 117 119 118
f 119 154 155
f 119 155 156
f 119 156 120
f 120 157 158
f 120 158 159
f 120 159 160
f 120 160 161
f 120 161 121
f 120 156 155
f 120 155 157
f 121 161 132
f 125 148 162
f 125 162 163
f 125 163 164
f 125 164 165
f 125 165 166
f 125 166 126
f 126 166 152
f 126 152 151
f 127 130 129
f 128 134 167
f 128 167 168
f 128 168 129
f 129 168 169
f 129 169 170
f 129 170 136
f 131 133 134
f 132 161 171
f 132 171 172
f 132 172 173
f 132 173 174
f 132 174 134
f 132 134 133
f 134 174 175
f 134 175 167
f 135 176 137
f 135 136 170
f 135 170 177
f 135 177 176
f 139 140 178
f 140 179 178
f 141 180 227
f 141 227 179
f 142 181 144
f 143 182 183
f 143 144 182
f 144 181 230
f 144 230 184
f 144 184 185
f 144 185 182
f 145 186 146
f 146 187 188
f 146 188 189
f 146 189 190
f 146 190 147
f 146 186 191
f 146 191 192
f 146 192 187
f 147 190 189
f 147 189 148
f 148 189 162
f 148 150 149
f 152 193 194
f 152 194 195
f 152 195 153
f 152 166 193
f 153 196 197
f 153 197 198
f 153 198 199
f 153 199 155
f 153 155 154
f 153 195 196
f 155 199 200
f 155 200 157
f 157 200 201
f 157 201 158
f 158 202 159
f 158 201 199
f 158 199 203
f 158 203 204
f 158 204 205
f 158 205 206
f 158 206 202
f 159 202 206
f 159 206 207
f 159 207 208
f 159 208 209
f 159 209 210
f 159 210 211
f 159 211 212
f 159 212 160
f 160 212 213
f 160 213 214
f 160 214 171
f 160 171 161
f 162 189 164
f 162 164 163
f 164 189 215
f 164 215 216
f 164 216 217
f 164 217 193
f 164 193 165
f 165 193 166
f 167 175 218
f 167 218 219
f 167 219 168
f 168 219 220
f 168 220 169
f 169 220 221
f 169 221 170
f 170 221 177
f 171 214 222
f 171 222 172
f 172 175 223
f 172 223 173
f 172 222 224
f 172 224 175
f 173 223 174
f 174 223 175
f 175 224 218
f 176 177 225
f 177 221 225
f 178 179 226
f 179 227 226
f 180 228 229
f 180 229 227
f 182 231 183
f 182 185 231
f 184 230 232
f 184 232 233
f 184 233 185
f 185 233 234
f 185 234 235
f 185 235 236
f 185 236 287
f 185 287 237
f 185 237 231
f 187 192 238
f 187 238 239
f 187 239 188
f 188 239 189
f 189 239 240
f 189 240 215
f 192 241 242
f 192 242 243
f 192 243 238
f 193 244 245
f 193 245 196
f 193 196 194
f 193 217 246
f 193 246 244
f 194 196 195
f 196 247 248
f 196 248 249
f 196 249 198
f 196 198 197
f 196 245 250
f 196 250 247
f 198 249 251
f 198 251 252
f 198 252 199
f 199 201 200
f 199 252 203
f 203 252 251
f 203 251 253
f 203 253 204
f 204 253 254
f 204 254 255
f 204 255 256
f 204 256 257
f 204 257 258
f 204 258 205
f 205 258 206
f 206 258 257
f 206 257 259
f 206 259 260
f 206 260 207
f 207 260 261
f 207 261 208
f 208 261 262
f 208 262 263
f 208 263 209
f 209 263 264
f 209 264 213
f 209 213 210
f 210 213 211
f 211 213 212
f 213 264 265
f 213 265 266
f 213 266 267
f 213 267 214
f 214 267 268
f 214 268 222
f 215 269 270
f 215 270 216
f 215 240 269
f 216 270 217
f 217 270 271
f 217 271 272
f 217 272 246
f 218 224 219
f 219 224 273
f 219 273 220
f 220 274 275
f 220 275 221
f 220 273 274
f 221 275 276
f 221 276 225
f 222 268 277
f 222 277 278
f 222 278 224
f 224 278 273
f 226 227 280
f 226 280 279
f 227 229 280
f 228 281 229
f 229 282 283
f 229 283 284
f 229 284 280
f 229 281 285
f 229 285 286
f 229 286 282
f 231 237 287
f 231 287 288
f 232 289 233
f 233 289 290
f 233 290 291
f 233 291 234
f 234 292 235
f 234 291 292
f 235 292 293
f 235 293 294
f 235 294 236
f 236 295 296
f 236 296 287
f 236 294 295
f 238 243 242
f 238 242 297
f 238 297 298
f 238 298 269
f 238 269 239
f 239 269 240
f 241 299 242
f 242 299 300
f 242 300 297
f 244 301 302
f 244 302 245
f 244 246 301
f 245 301 250
f 245 302 301
f 246 272 303
f 246 303 301
f 247 250 304
f 247 304 305
f 247 305 248
f 248 305 306
f 248 306 307
f 248 307 249
f 249 307 308
f 249 308 251
f 250 301 304
f 251 308 254
f 251 254 253
f 254 308 255
f 255 309 310
f 255 310 311
f 255 311 312
f 255 312 313
f 255 313 314
f 255 314 256
f 255 308 309
f 256 314 315
f 256 315 257
f 257 315 259
f 259 315 316
f 259 316 317
f 259 317 260
f 260 317 318
f 260 318 261
f 261 319 320
f 261 320 262
f 261 318 321
f 261 321 322
f 261 322 323
f 261 323 319
f 262 320 324
f 262 324 325
f 262 325 263
f 263 325 326
f 263 326 264
f 264 327 265
f 264 326 327
f 265 327 266
f 266 277 268
f 266 268 267
f 266 327 277
f 269 298 297
f 269 297 328
f 269 328 329
f 269 329 330
f 269 330 331
f 269 331 272
f 269 272 270
f 270 272 271
f 272 331 303
f 273 332 274
f 273 278 277
f 273 277 327
f 273 327 326
f 273 326 325
f 273 325 324
f 273 324 333
f 273 333 332
f 274 334 275
f 274 332 334
f 275 335 276
f 275 334 335
f 279 280 284
f 279 284 336
f 282 337 338
f 282 338 339
f 282 339 340
f 282 340 283
f 282 286 341
f 282 341 342
f 282 342 337
f 283 340 336
f 283 336 284
f 285 343 286
f 286 343 344
f 286 344 345
f 286 345 341
f 287 296 288
f 290 346 347
f 290 347 291
f 291 347 419
f 291 419 348
f 291 348 349
f 291 349 350
f 291 350 351
f 291 351 352
f 291 352 292
f 292 352 353
f 292 353 293
f 293 354 355
f 293 355 294
f 293 353 356
f 293 356 354
f 294 355 357
f 294 357 358
f 294 358 359
f 294 359 295
f 295 359 360
f 295 360 296
f 297 300 361
f 297 361 362
f 297 362 363
f 297 363 364
f 297 364 365
f 297 365 366
f 297 366 367
f 297 367 368
f 297 368 369
f 297 369 328
f 300 370 361
f 301 371 372
f 301 372 304
f 301 303 371
f 303 331 371
f 304 372 373
f 304 373 306
f 304 306 305
f 306 374 307
f 306 373 374
f 307 374 375
f 307 375 376
f 307 376 377
f 307 377 378
f 307 378 379
f 307 379 380
f 307 380 308
f 308 380 309
f 309 380 379
f 309 379 310
f 310 379 311
f 311 381 382
f 311 382 383
f 311 383 384
f 311 384 312
f 311 379 385
f 311 385 381
f 312 384 386
f 312 386 387
f 312 387 313
f 313 387 388
f 313 388 314
f 314 388 315
f 315 388 389
f 315 389 390
f 315 390 316
f 316 390 391
f 316 391 318
f 316 318 317
f 318 391 392
f 318 392 322
f 318 322 321
f 319 393 394
f 319 394 395
f 319 395 324
f 319 324 320
f 319 323 393
f 322 396 323
f 322 392 397
f 322 397 396
f 323 396 398
f 323 398 393
f 324 395 333
f 328 369 329
f 329 369 330
f 330 369 331
f 331 369 371
f 332 333 399
f 332 399 400
f 332 400 334
f 333 395 394
f 333 394 393
f 333 393 401
f 333 401 402
f 333 402 403
f 333 403 399
f 336 340 404
f 337 405 338
f 337 342 405
f 338 405 406
f 338 406 339
f 339 406 407
f 339 407 408
f 339 408 340
f 340 408 404
f 341 345 409
f 341 409 410
f 341 410 342
f 342 410 411
f 342 411 412
f 342 412 405
f 344 413 345
f 345 413 414
f 345 414 415
f 345 415 409
f 346 416 347
f 347 416 417
f 347 417 418
f 347 418 419
f 348 419 420
f 348 420 349
f 349 420 421
f 349 421 422
f 349 422 423
f 349 423 350
f 350 423 351
f 351 423 422
f 351 422 424
f 351 424 353
f 351 353 352
f 353 424 425
f 353 425 356
f 354 356 426
f 354 426 355
f 355 427 357
f 355 426 427
f 356 425 426
f 357 427 428
f 357 428 429
f 357 429 358
f 358 429 430
f 358 430 359
f 359 431 432
f 359 432 360
f 359 430 431
f 361 370 362
f 362 370 363
f 363 370 433
f 363 433 434
f 363 434 435
f 363 435 364
f 364 435 436
f 364 436 437
f 364 437 366
f 364 366 365
f 366 437 438
f 366 438 367
f 367 438 439
f 367 439 368
f 368 439 440
f 368 440 441
f 368 441 442
f 368 442 443
f 368 443 444
f 368 444 445
f 368 445 446
f 368 446 447
f 368 447 369
f 369 447 373
f 369 373 371
f 371 373 372
f 373 447 446
f 373 446 376
f 373 376 374
f 374 376 375
f 376 448 449
f 376 449 450
f 376 450 377
f 376 446 451
f 376 451 445
f 376 445 444
f 376 444 448
f 377 450 378
f 378 450 379
f 379 452 385
f 379 450 452
f 381 453 382
f 381 385 450
f 381 450 454
f 381 454 453
f 382 453 455
f 382 455 383
f 383 456 457
f 383 457 458
f 383 458 386
f 383 386 384
f 383 455 456
f 385 452 450
f 386 458 459
f 386 459 387
f 387 459 460
f 387 460 388
f 388 390 389
f 388 460 461
f 388 461 390
f 390 462 392
f 390 392 391
f 390 461 463
f 390 463 462
f 392 462 466
f 392 466 397
f 393 398 401
f 396 464 398
f 396 397 465
f 396 465 464
f 397 466 465
f 398 467 401
f 398 464 467
f 399 403 468
f 399 468 400
f 400 468 469
f 400 469 470
f 401 467 402
f 402 467 471
f 402 471 472
f 402 472 403
f 403 472 473
f 403 473 468
f 405 412 474
f 405 474 475
f 405 475 476
f 405 476 407
f 405 407 406
f 407 476 408
f 408 476 477
f 409 415 410
f 410 478 479
f 410 479 480
f 410 480 411
f 410 415 478
f 411 480 481
f 411 481 482
f 411 482 483
f 411 483 474
f 411 474 412
f 413 484 414
f 414 484 485
f 414 485 415
f 415 485 486
f 415 486 487
f 415 487 478
f 419 488 420
f 420 488 489
f 420 489 490
f 420 490 421
f 421 490 422
f 422 491 492
f 422 492 493
f 422 493 494
f 422 494 424
f 422 490 491
f 424 494 495
f 424 495 496
f 424 496 425
f 425 496 426
f 426 496 427
f 427 496 495
f 427 495 497
f 427 497 498
f 427 498 428
f 428 498 499
f 428 499 429
f 429 499 500
f 429 500 501
f 429 501 430
f 430 501 431
f 431 502 503
f 431 503 432
f 431 501 502
f 434 504 435
f 435 504 436
f 436 505 506
f 436 506 507
f 436 507 437
f 436 504 505
f 437 507 506
f 437 506 508
f 437 508 509
f 437 509 510
f 437 510 438
f 438 510 439
f 439 511 440
f 439 510 512
f 439 512 511
f 440 511 441
f 441 443 442
f 441 511 513
f 441 513 514
f 441 514 515
f 441 515 516
f 441 516 517
f 441 517 518
f 441 518 519
f 441 519 520
f 441 520 443
f 443 520 444
f 444 520 519
f 444 519 521
f 444 521 522
f 444 522 523
f 444 523 448
f 445 451 446
f 448 523 449
f 449 523 450
f 450 523 524
f 450 524 454
f 453 454 524
f 453 524 523
f 453 523 525
f 453 525 526
f 453 526 527
f 453 527 528
f 453 528 455
f 455 528 456
f 456 528 457
f 457 529 530
f 457 530 531
f 457 531 532
f 457 532 458
f 457 528 529
f 458 532 459
f 459 532 533
f 459 533 461
f 459 461 460
f 461 533 534
f 461 534 535
f 461 535 463
f 462 463 536
f 462 536 466
f 463 535 537
f 463 537 536
f 464 471 467
f 464 465 538
f 464 538 471
f 465 466 539
f 465 539 538
f 466 536 540
f 466 540 539
f 468 473 469
f 469 473 541
f 469 541 542
f 469 542 470
f 470 542 543
f 471 538 492
f 471 492 472
f 472 492 491
f 472 491 541
f 472 541 473
f 474 483 544
f 474 544 545
f 474 545 475
f 475 545 546
f 475 546 477
f 475 477 476
f 478 487 479
f 479 487 547
f 479 547 548
f 479 548 480
f 480 548 549
f 480 549 481
f 481 549 550
f 481 550 551
f 481 551 544
f 481 544 482
f 482 544 483
f 484 552 553
f 484 553 485
f 485 553 486
f 486 553 554
f 486 554 555
f 486 555 487
f 487 555 547
f 488 556 489
f 489 556 543
f 489 543 542
f 489 542 541
f 489 541 490
f 490 541 491
f 492 538 493
f 493 538 557
f 493 557 558
f 493 558 494
f 494 558 495
f 495 558 559
f 495 559 560
f 495 560 561
f 495 561 497
f 497 561 498
f 498 561 562
f 498 562 563
f 498 563 499
f 499 563 564
f 499 564 565
f 499 565 500
f 500 565 501
f 501 565 566
f 501 566 502
f 504 567 568
f 504 568 569
f 504 569 505
f 505 569 506
f 506 569 570
f 506 570 571
f 506 571 572
f 506 572 573
f 506 573 574
f 506 574 575
f 506 575 576
f 506 576 577
f 506 577 578
f 506 578 509
f 506 509 508
f 509 578 513
f 509 513 510
f 510 513 512
f 511 512 513
f 513 578 579
f 513 579 580
f 513 580 514
f 514 580 581
f 514 581 582
f 514 582 515
f 515 582 583
f 515 583 516
f 516 583 517
f 517 584 585
f 517 585 586
f 517 586 587
f 517 587 522
f 517 522 521
f 517 521 519
f 517 519 518
f 517 583 584
f 522 587 523
f 523 588 589
f 523 589 590
f 523 590 591
f 523 591 525
f 523 587 586
f 523 586 588
f 525 592 593
f 525 593 526
f 525 591 592
f 526 593 527
f 527 593 594
f 527 594 528
f 528 594 595
f 528 595 529
f 529 595 530
f 530 596 597
f 530 597 598
f 530 598 531
f 530 595 596
f 531 533 532
f 531 598 533
f 533 598 599
f 533 599 564
f 533 564 534
f 534 564 563
f 534 563 600
f 534 600 535
f 535 600 537
f 536 537 540
f 537 600 562
f 537 562 540
f 538 539 557
f 539 540 559
f 539 559 558
f 539 558 557
f 540 562 601
f 540 601 559
f 544 551 602
f 544 602 603
f 544 603 604
f 544 604 605
f 544 605 545
f 545 605 606
f 545 606 607
f 545 607 546
f 547 608 609
f 547 609 548
f 547 555 610
f 547 610 608
f 548 611 549
f 548 609 611
f 549 612 550
f 549 611 612
f 550 602 551
f 550 612 602
f 552 613 614
f 552 614 554
f 552 554 553
f 554 614 615
f 554 615 616
f 554 616 617
f 554 617 555
f 555 617 618
f 555 618 610
f 559 601 560
f 560 601 561
f 561 601 562
f 562 600 563
f 564 599 619
f 564 619 565
f 565 620 621
f 565 621 622
f 565 622 566
f 565 619 620
f 567 623 624
f 567 624 570
f 567 570 568
f 568 570 569
f 570 624 571
f 571 624 572
f 572 625 626
f 572 626 627
f 572 627 573
f 572 624 628
f 572 628 625
f 573 627 626
f 573 626 574
f 574 626 575
f 575 626 625
f 575 625 629
f 575 629 630
f 575 630 631
f 575 631 632
f 575 632 633
f 575 633 576
f 576 633 634
f 576 634 577
f 577 634 578
f 578 634 579
f 579 634 635
f 579 635 632
f 579 632 636
f 579 636 637
f 579 637 580
f 580 637 638
f 580 638 581
f 581 639 640
f 581 640 582
f 581 638 637
f 581 637 641
f 581 641 639
f 582 640 583
f 583 642 584
f 583 640 643
f 583 643 644
f 583 644 642
f 584 642 645
f 584 645 585
f 585 645 589
f 585 589 586
f 586 589 588
f 589 646 647
f 589 647 648
f 589 648 649
f 589 649 592
f 589 592 591
f 589 591 590
f 589 645 646
f 592 649 648
f 592 648 650
f 592 650 651
f 592 651 652
f 592 652 593
f 593 652 653
f 593 653 594
f 594 654 655
f 594 655 595
f 594 653 654
f 595 655 596
f 596 656 597
f 596 655 657
f 596 657 658
f 596 658 659
f 596 659 660
f 596 660 656
f 597 656 599
f 597 599 598
f 599 656 620
f 599 620 619
f 602 612 661
f 602 661 662
f 602 662 663
f 602 663 664
f 602 664 665
f 602 665 603
f 603 665 604
f 608 610 666
f 608 666 716
f 608 716 667
f 608 667 668
f 608 668 611
f 608 611 609
f 610 618 669
f 610 669 670
f 610 670 671
f 610 671 672
f 610 672 666
f 611 668 673
f 611 673 612
f 612 673 662
f 612 662 661
f 613 674 614
f 614 674 615
f 616 675 617
f 617 675 676
f 617 676 618
f 618 676 669
f 620 677 621
f 620 656 660
f 620 660 677
f 621 677 678
f 621 678 622
f 623 679 624
f 624 679 628
f 625 680 629
f 625 628 681
f 625 681 682
f 625 682 683
f 625 683 684
f 625 684 680
f 629 685 630
f 629 680 685
f 630 686 687
f 630 687 631
f 630 685 686
f 631 687 688
f 631 688 632
f 632 688 689
f 632 689 636
f 632 635 634
f 632 634 633
f 636 689 637
f 637 689 641
f 639 690 691
f 639 691 692
f 639 692 640
f 639 641 693
f 639 693 694
f 639 694 690
f 640 692 644
f 640 644 643
f 641 689 695
f 641 695 693
f 642 644 645
f 644 692 645
f 645 692 696
f 645 696 697
f 645 697 698
f 645 698 646
f 646 699 648
f 646 648 647
f 646 698 700
f 646 700 701
f 646 701 699
f 648 699 702
f 648 702 703
f 648 703 650
f 650 703 651
f 651 703 652
f 652 703 704
f 652 704 653
f 653 704 705
f 653 705 654
f 654 705 655
f 655 706 657
f 655 705 706
f 657 706 658
f 659 707 660
f 660 707 677
f 662 708 709
f 662 709 710
f 662 710 711
f 662 711 663
f 662 673 712
f 662 712 708
f 663 711 664
f 666 672 713
f 666 713 714
f 666 714 715
f 666 715 716
f 667 716 717
f 667 717 668
f 668 717 673
f 669 676 670
f 670 676 671
f 671 676 718
f 671 718 672
f 672 718 713
f 673 717 712
f 675 719 676
f 676 719 720
f 676 720 721
f 676 721 722
f 676 722 718
f 680 723 685
f 680 684 723
f 681 683 682
f 683 724 684
f 684 724 723
f 685 723 725
f 685 725 726
f 685 726 727
f 685 727 728
f 685 728 686
f 686 728 729
f 686 729 687
f 687 729 695
f 687 695 688
f 688 695 689
f 690 694 730
f 690 730 731
f 690 731 691
f 691 731 692
f 692 731 696
f 693 695 729
f 693 729 732
f 693 732 733
f 693 733 694
f 694 733 734
f 694 734 730
f 696 735 697
f 696 731 736
f 696 736 735
f 697 735 737
f 697 737 738
f 697 738 701
f 697 701 698
f 698 701 700
f 699 739 703
f 699 703 702
f 699 701 740
f 699 740 739
f 701 738 741
f 701 741 742
f 701 742 743
f 701 743 740
f 703 739 744
f 703 744 745
f 703 745 746
f 703 746 704
f 704 747 705
f 704 746 745
f 704 745 747
f 705 747 748
f 705 748 749
f 705 749 750
f 705 750 706
f 708 751 752
f 708 752 709
f 708 712 754
f 708 754 751
f 709 753 710
f 709 752 753
f 712 717 754
f 713 755 714
f 713 718 755
f 714 755 756
f 714 756 757
f 714 757 715
f 715 758 759
f 715 759 760
f 715 760 716
f 715 757 761
f 715 761 762
f 715 762 758
f 716 760 759
f 716 759 763
f 716 763 764
f 716 764 717
f 717 764 754
f 718 765 756
f 718 756 755
f 718 722 766
f 718 766 767
f 718 767 765
f 720 768 721
f 721 768 769
f 721 769 770
f 721 770 722
f 722 770 766
f 723 724 771
f 723 771 725
f 724 772 771
f 725 771 773
f 725 773 726
f 726 773 774
f 726 774 775
f 726 775 776
f 726 776 728
f 726 728 727
f 728 776 777
f 728 777 733
f 728 733 729
f 729 733 732
f 730 778 736
f 730 736 731
f 730 734 777
f 730 777 779
f 730 779 780
f 730 780 781
f 730 781 782
f 730 782 778
f 733 777 734
f 735 736 737
f 736 778 737
f 737 778 762
f 737 762 761
f 737 761 741
f 737 741 738
f 739 740 743
f 739 743 783
f 739 783 784
f 739 784 785
f 739 785 745
f 739 745 744
f 741 767 786
f 741 786 743
f 741 743 742
f 741 761 765
f 741 765 767
f 743 786 787
f 743 787 788
f 743 788 783
f 745 785 789
f 745 789 747
f 747 790 748
f 747 789 791
f 747 791 790
f 751 754 792
f 751 792 752
f 752 792 793
f 752 793 794
f 752 794 795
f 752 795 753
f 754 764 796
f 754 796 792
f 756 765 757
f 757 765 761
f 758 782 781
f 758 781 759
f 758 762 778
f 758 778 782
f 759 781 797
f 759 797 798
f 759 798 799
f 759 799 796
f 759 796 763
f 763 796 764
f 766 770 800
f 766 800 767
f 767 800 786
f 769 801 770
f 770 801 802
f 770 802 803
f 770 803 800
f 771 772 804
f 771 804 773
f 773 804 805
f 773 805 774
f 774 806 775
f 774 805 807
f 774 807 806
f 775 808 776
f 775 806 808
f 776 808 809
f 776 809 777
f 777 809 810
f 777 810 780
f 777 780 779
f 780 810 781
f 781 810 797
f 783 788 811
f 783 811 812
f 783 812 813
f 783 813 785
f 783 785 784
f 785 813 814
f 785 814 789
f 786 800 787
f 787 800 788
f 788 815 811
f 788 800 815
f 789 814 816
f 789 816 791
f 792 796 817
f 792 817 818
f 792 818 793
f 793 818 819
f 793 819 794
f 794 820 795
f 794 819 820
f 796 799 798
f 796 798 821
f 796 821 817
f 797 810 822
f 797 822 798
f 798 822 821
f 800 803 815
f 802 823 815
f 802 815 803
f 804 824 805
f 805 824 825
f 805 825 807
f 806 807 826
f 806 826 827
f 806 827 808
f 807 828 826
f 807 825 828
f 808 822 809
f 808 827 822
f 809 822 810
f 811 815 823
f 811 823 829
f 811 829 812
f 817 827 818
f 817 821 827
f 818 830 819
f 818 827 830
f 819 830 828
f 819 828 831
f 819 831 832
f 819 832 820
f 821 822 827
f 824 833 825
f 825 833 834
f 825 834 828
f 826 828 830
f 826 830 827
f 828 834 831
f 831 834 832

