# https://github.com/mikedh/trimesh
v -0.01061551 0.00746914 0.01045218
v -0.01056380 0.00746876 0.01059804
v -0.01053947 0.00746876 0.01066818
v -0.01053339 0.00760946 0.01064973
v -0.01059726 0.00766162 0.01045218
v -0.00948819 0.00746876 0.01045218
v -0.01044215 0.00746876 0.01088920
v -0.01034381 0.00810922 0.01097722
v -0.01048169 0.00810922 0.01065001
v -0.01051311 0.00804220 0.01058994
v -0.01056076 0.00804220 0.01045218
v -0.00341368 0.00746876 0.01045218
v -0.01040261 0.00746876 0.01097722
v -0.01032253 0.00810922 0.01101969
v -0.01051109 0.00810922 0.01057652
v -0.01055367 0.00810922 0.01045218
v -0.00323221 0.00810922 0.01045218
v -0.00124218 0.00810922 0.01080454
v -0.00090966 0.00810922 0.01086713
v -0.00069474 0.00746876 0.01097052
v -0.01028299 0.00746876 0.01120551
v -0.01018972 0.00810922 0.01127872
v -0.00083566 0.00810922 0.01088445
v -0.00040075 0.00746876 0.01106915
v -0.01021912 0.00746876 0.01132511
v -0.01021304 0.00760946 0.01131533
v -0.01016945 0.00810922 0.01131225
v -0.00060958 0.00810922 0.01100712
v -0.00032776 0.00746876 0.01110464
v -0.01008328 0.00746876 0.01154166
v -0.01007719 0.00760946 0.01153160
v -0.01005793 0.00804220 0.01150031
v -0.01005489 0.00810922 0.01149500
v -0.00053761 0.00810922 0.01106384
v -0.00026896 0.00746876 0.01115522
v -0.00993729 0.00746876 0.01173726
v -0.00983896 0.00810922 0.01179594
v -0.01002144 0.00810922 0.01154306
v -0.00053761 0.00810922 0.01129213
v -0.00025882 0.00746876 0.01126112
v -0.00985720 0.00746876 0.01184121
v -0.00984200 0.00804220 0.01179929
v -0.00969399 0.00746876 0.01204463
v -0.00966763 0.00804220 0.01201557
v -0.00966459 0.00810922 0.01201194
v -0.00054065 0.00810922 0.01132818
v -0.00025882 0.00746876 0.01127006
v -0.00958247 0.00746876 0.01215053
v -0.00944865 0.00810922 0.01222626
v -0.00963113 0.00810922 0.01204603
v -0.00065216 0.00810922 0.01150115
v -0.00037844 0.00746876 0.01143325
v -0.00067852 0.00810922 0.01153887
v -0.00067041 0.00804220 0.01156150
v -0.00062580 0.00780620 0.01161683
v -0.00949022 0.00746876 0.01223687
v -0.00947096 0.00760946 0.01224386
v -0.00923272 0.00760946 0.01246041
v -0.00921346 0.00804220 0.01244505
v -0.00921042 0.00810922 0.01244253
v -0.00056701 0.00746876 0.01167467
v -0.00057512 0.00751773 0.01166740
v -0.00089851 0.00810922 0.01177889
v -0.00923880 0.00746876 0.01246517
v -0.00917696 0.00810922 0.01246712
v -0.00899448 0.00810922 0.01259594
v -0.00080727 0.00746876 0.01188508
v -0.00112255 0.00810922 0.01199517
v -0.00111241 0.00804220 0.01200579
v -0.00106882 0.00776614 0.01204491
v -0.00909282 0.00746876 0.01256464
v -0.00893974 0.00810922 0.01262863
v -0.00901577 0.00760946 0.01260795
v -0.00102929 0.00747760 0.01207592
v -0.00102827 0.00746876 0.01207676
v -0.00133849 0.00810922 0.01216674
v -0.00902186 0.00746876 0.01261103
v -0.00877247 0.00746876 0.01275717
v -0.00864575 0.00760946 0.01282423
v -0.00858999 0.00810922 0.01283177
v -0.00132835 0.00804220 0.01217316
v -0.00123508 0.00761692 0.01218825
v -0.00103638 0.00746876 0.01208207
v -0.00166695 0.00810922 0.01238721
v -0.00865082 0.00746876 0.01282758
v -0.00858695 0.00806941 0.01283540
v -0.00856769 0.00810922 0.01284379
v -0.00124623 0.00746876 0.01221927
v -0.00160815 0.00760946 0.01242437
v -0.00187883 0.00810922 0.01251239
v -0.00850483 0.00746876 0.01290191
v -0.00841055 0.00810922 0.01292566
v -0.00159294 0.00746876 0.01243331
v -0.00212821 0.00810922 0.01262975
v -0.00187173 0.00804220 0.01251602
v -0.00843488 0.00746876 0.01293684
v -0.00823416 0.00806941 0.01299244
v -0.00822807 0.00810922 0.01299328
v -0.00180888 0.00746876 0.01254480
v -0.00182408 0.00760946 0.01253810
v -0.00213430 0.00804220 0.01263813
v -0.00256616 0.00810922 0.01280970
v -0.00827471 0.00746876 0.01299552
v -0.00819158 0.00746876 0.01302569
v -0.00819158 0.00760946 0.01302122
v -0.00818752 0.00810922 0.01300613
v -0.00213430 0.00760946 0.01267418
v -0.00213430 0.00746876 0.01268507
v -0.00285103 0.00810922 0.01290582
v -0.00256616 0.00760946 0.01283568
v -0.00789961 0.00746876 0.01311371
v -0.00775870 0.00810922 0.01314110
v -0.00257833 0.00746876 0.01284686
v -0.00281454 0.00760946 0.01291616
v -0.00303351 0.00810922 0.01295528
v -0.00775870 0.00746876 0.01315507
v -0.00769179 0.00810922 0.01315423
v -0.00280440 0.00746876 0.01291895
v -0.00306697 0.00810922 0.01296422
v -0.00746673 0.00746876 0.01321067
v -0.00732582 0.00810922 0.01322492
v -0.00300817 0.00746876 0.01297148
v -0.00303148 0.00760946 0.01297232
v -0.00337921 0.00810922 0.01303436
v -0.00732582 0.00746876 0.01323694
v -0.00725891 0.00810922 0.01323219
v -0.00343192 0.00746876 0.01306621
v -0.00343192 0.00760946 0.01306202
v -0.00343192 0.00804220 0.01304833
v -0.00343192 0.00810922 0.01304609
v -0.00703385 0.00746876 0.01326851
v -0.00689395 0.00810922 0.01327131
v -0.00386480 0.00810922 0.01311790
v -0.00386480 0.00804220 0.01311986
v -0.00386480 0.00760946 0.01313215
v -0.00386480 0.00746876 0.01313579
v -0.00689395 0.00746876 0.01328332
v -0.00660097 0.00746876 0.01329869
v -0.00646107 0.00746876 0.01330596
v -0.00646107 0.00810922 0.01329338
v -0.00429768 0.00810922 0.01317183
v -0.00429768 0.00804220 0.01317379
v -0.00429768 0.00760946 0.01318580
v -0.00429768 0.00746876 0.01318916
v -0.00602819 0.00746876 0.01330652
v -0.00602819 0.00760946 0.01330372
v -0.00602819 0.00804220 0.01329478
v -0.00602819 0.00810922 0.01329338
v -0.00466366 0.00810922 0.01320900
v -0.00473056 0.00760946 0.01322995
v -0.00473056 0.00746876 0.01323387
v -0.00443860 0.00746876 0.01320397
v -0.00559531 0.00746876 0.01329255
v -0.00559531 0.00804220 0.01327913
v -0.00559531 0.00810922 0.01327746
v -0.00473056 0.00810922 0.01321570
v -0.00473056 0.00804220 0.01321766
v -0.00516344 0.00810922 0.01325091
v -0.00516344 0.00746876 0.01326823
f 1 2 3
f 1 3 4
f 1 4 5
f 1 5 11
f 1 11 16
f 1 16 17
f 1 17 12
f 1 12 6
f 1 6 2
f 2 6 12
f 2 12 20
f 2 20 24
f 2 24 29
f 2 29 35
f 2 35 40
f 2 40 47
f 2 47 52
f 2 52 61
f 2 61 67
f 2 67 75
f 2 75 83
f 2 83 88
f 2 88 93
f 2 93 99
f 2 99 108
f 2 108 113
f 2 113 118
f 2 118 122
f 2 122 127
f 2 127 136
f 2 136 144
f 2 144 152
f 2 152 151
f 2 151 159
f 2 159 153
f 2 153 145
f 2 145 139
f 2 139 138
f 2 138 137
f 2 137 131
f 2 131 125
f 2 125 120
f 2 120 116
f 2 116 111
f 2 111 104
f 2 104 103
f 2 103 96
f 2 96 91
f 2 91 85
f 2 85 78
f 2 78 77
f 2 77 71
f 2 71 64
f 2 64 56
f 2 56 48
f 2 48 43
f 2 43 41
f 2 41 36
f 2 36 30
f 2 30 25
f 2 25 21
f 2 21 13
f 2 13 7
f 2 7 3
f 3 7 8
f 3 8 4
f 4 8 9
f 4 9 10
f 4 10 5
f 5 10 11
f 7 13 8
f 8 14 22
f 8 22 27
f 8 27 33
f 8 33 38
f 8 38 37
f 8 37 45
f 8 45 50
f 8 50 49
f 8 49 60
f 8 60 65
f 8 65 66
f 8 66 72
f 8 72 80
f 8 80 87
f 8 87 92
f 8 92 98
f 8 98 106
f 8 106 112
f 8 112 117
f 8 117 121
f 8 121 126
f 8 126 132
f 8 132 140
f 8 140 148
f 8 148 155
f 8 155 158
f 8 158 156
f 8 156 149
f 8 149 141
f 8 141 133
f 8 133 130
f 8 130 124
f 8 124 119
f 8 119 115
f 8 115 109
f 8 109 102
f 8 102 94
f 8 94 90
f 8 90 84
f 8 84 76
f 8 76 68
f 8 68 63
f 8 63 53
f 8 53 51
f 8 51 46
f 8 46 39
f 8 39 34
f 8 34 28
f 8 28 23
f 8 23 19
f 8 19 18
f 8 18 17
f 8 17 16
f 8 16 15
f 8 15 9
f 8 13 14
f 9 15 10
f 10 15 11
f 11 15 16
f 12 17 18
f 12 18 19
f 12 19 20
f 13 21 22
f 13 22 14
f 19 23 20
f 20 23 24
f 21 25 26
f 21 26 22
f 22 26 27
f 23 28 29
f 23 29 24
f 25 30 26
f 26 30 31
f 26 31 32
f 26 32 27
f 27 32 33
f 28 34 29
f 29 34 35
f 30 36 37
f 30 37 31
f 31 37 38
f 31 38 32
f 32 38 33
f 34 39 47
f 34 47 40
f 34 40 35
f 36 41 42
f 36 42 37
f 37 42 43
f 37 43 44
f 37 44 45
f 39 46 47
f 41 43 42
f 43 48 49
f 43 49 50
f 43 50 44
f 44 50 45
f 46 51 47
f 47 51 53
f 47 53 54
f 47 54 55
f 47 55 52
f 48 56 49
f 49 56 57
f 49 57 58
f 49 58 59
f 49 59 60
f 52 55 62
f 52 62 61
f 53 63 54
f 54 63 55
f 55 63 62
f 56 64 58
f 56 58 57
f 58 65 59
f 58 64 66
f 58 66 65
f 59 65 60
f 61 62 68
f 61 68 69
f 61 69 70
f 61 70 67
f 62 63 68
f 64 71 66
f 66 71 73
f 66 73 72
f 67 70 74
f 67 74 75
f 68 76 69
f 69 76 70
f 70 76 74
f 71 77 73
f 72 73 78
f 72 78 79
f 72 79 80
f 73 77 78
f 74 76 81
f 74 81 82
f 74 82 75
f 75 82 83
f 76 84 81
f 78 85 79
f 79 85 86
f 79 86 80
f 80 86 87
f 81 84 82
f 82 84 88
f 82 88 83
f 84 89 88
f 84 90 89
f 85 87 86
f 85 91 92
f 85 92 87
f 88 89 93
f 89 90 93
f 90 94 95
f 90 95 93
f 91 96 92
f 92 96 97
f 92 97 98
f 93 95 100
f 93 100 99
f 94 101 99
f 94 99 100
f 94 100 95
f 94 102 101
f 96 103 97
f 97 103 104
f 97 104 98
f 98 104 105
f 98 105 106
f 99 101 107
f 99 107 108
f 101 102 107
f 102 109 110
f 102 110 108
f 102 108 107
f 104 111 112
f 104 112 105
f 105 112 106
f 108 110 113
f 109 114 113
f 109 113 110
f 109 115 114
f 111 116 112
f 112 116 117
f 113 114 118
f 114 115 118
f 115 119 118
f 116 120 121
f 116 121 117
f 118 119 122
f 119 123 122
f 119 124 123
f 120 125 121
f 121 125 126
f 122 123 128
f 122 128 127
f 123 124 129
f 123 129 128
f 124 130 129
f 125 131 126
f 126 131 132
f 127 128 133
f 127 133 134
f 127 134 135
f 127 135 136
f 128 129 133
f 129 130 133
f 131 137 132
f 132 137 138
f 132 138 139
f 132 139 140
f 133 141 142
f 133 142 134
f 134 142 135
f 135 142 143
f 135 143 136
f 136 143 144
f 139 145 140
f 140 145 146
f 140 146 147
f 140 147 148
f 141 149 142
f 142 149 150
f 142 150 151
f 142 151 143
f 143 151 152
f 143 152 144
f 145 153 146
f 146 153 147
f 147 153 148
f 148 154 155
f 148 153 154
f 149 156 157
f 149 157 150
f 150 157 158
f 150 158 151
f 151 158 159
f 153 159 154
f 154 159 155
f 155 159 158
f 156 158 157

