# https://github.com/mikedh/trimesh
v -0.00404755 0.00143517 0.00217305
v -0.00404755 0.00174787 0.00118980
v -0.00337751 0.00143517 0.00226177
v -0.00404755 0.00143517 0.00982345
v -0.00404755 0.00192025 0.00097417
v -0.00404755 0.00212794 0.00073637
v -0.00337751 0.00303563 0.00053676
v -0.00337751 0.00143517 0.00973843
v -0.00404755 0.00174480 0.01079315
v -0.00404755 0.00234866 0.00052074
v -0.00337751 0.00328496 0.00027555
v -0.00337751 0.00295759 0.01138334
v -0.00404755 0.00210114 0.01122933
v -0.00404755 0.00192315 0.01102356
v -0.00404755 0.00175222 0.01080916
v -0.00404755 0.00256685 0.00031498
v -0.00404755 0.00280296 0.00010428
v -0.00347230 0.00328496 0.00019053
v -0.00337751 0.00328496 0.01172095
v -0.00337751 0.00312454 0.01155708
v -0.00404755 0.00213083 0.01126136
v -0.00404755 0.00302658 -0.00009040
v -0.00351139 0.00328496 0.00015603
v -0.00348587 0.00328496 0.01181952
v -0.00404755 0.00271423 0.01182076
v -0.00404755 0.00253679 0.01165688
v -0.00404755 0.00234938 0.01147822
v -0.00404755 0.00226283 0.01139567
v -0.00404755 0.00303092 -0.00009410
v -0.00389787 0.00328496 -0.00017295
v -0.00370102 0.00328496 0.01200435
v -0.00404755 0.00315405 0.01219533
v -0.00404755 0.00302658 0.01209060
v -0.00404755 0.00328496 -0.00029494
v -0.00389780 0.00328496 0.01217192
v -0.00404755 0.00316039 0.01220026
v -0.00404755 0.00328496 0.01210045
v -0.00390843 0.00328496 0.01218054
v -0.00404755 0.00328315 0.01229267
f 1 2 3
f 1 3 8
f 1 8 4
f 1 4 9
f 1 9 15
f 1 15 14
f 1 14 13
f 1 13 21
f 1 21 28
f 1 28 27
f 1 27 26
f 1 26 25
f 1 25 33
f 1 33 32
f 1 32 36
f 1 36 39
f 1 39 37
f 1 37 34
f 1 34 29
f 1 29 22
f 1 22 17
f 1 17 16
f 1 16 10
f 1 10 6
f 1 6 5
f 1 5 2
f 2 5 3
f 3 5 6
f 3 6 7
f 3 7 11
f 3 11 19
f 3 19 20
f 3 20 12
f 3 12 8
f 4 8 9
f 6 10 11
f 6 11 7
f 8 12 13
f 8 13 14
f 8 14 15
f 8 15 9
f 10 16 11
f 11 16 17
f 11 17 18
f 11 18 23
f 11 23 30
f 11 30 34
f 11 34 37
f 11 37 38
f 11 38 35
f 11 35 31
f 11 31 24
f 11 24 19
f 12 20 21
f 12 21 13
f 17 22 23
f 17 23 18
f 19 24 25
f 19 25 26
f 19 26 27
f 19 27 28
f 19 28 21
f 19 21 20
f 22 29 23
f 23 29 30
f 24 31 32
f 24 32 33
f 24 33 25
f 29 34 30
f 31 35 32
f 32 35 36
f 35 38 39
f 35 39 36
f 37 39 38

