# https://github.com/mikedh/trimesh
v -0.00602853 0.01308562 -0.00122567
v -0.00602853 0.01323613 -0.00122426
v -0.00601605 0.01308562 -0.00122426
v -0.00646141 0.01308562 -0.00121153
v -0.00601605 0.01323613 -0.00122284
v -0.00602853 0.01453451 -0.00121011
v -0.00601605 0.01453451 -0.00121011
v -0.00601605 0.01308562 0.01322471
v -0.00646141 0.01323613 -0.00120870
v -0.00689430 0.01308562 -0.00117758
v -0.00646141 0.01410199 -0.00119031
v -0.00601605 0.01496703 -0.00120162
v -0.00601605 0.01324854 0.01322471
v -0.00602853 0.01308562 0.01322613
v -0.00689430 0.01323613 -0.00117475
v -0.00732718 0.01308562 -0.00110826
v -0.00646141 0.01453451 -0.00117899
v -0.00601605 0.01540037 -0.00118606
v -0.00601605 0.01368106 0.01322188
v -0.00602853 0.01366865 0.01322188
v -0.00646141 0.01308562 0.01321056
v -0.00732718 0.01323613 -0.00110401
v -0.00689430 0.01366865 -0.00116201
v -0.00773821 0.01308562 -0.00098660
v -0.00689430 0.01410199 -0.00114079
v -0.00646141 0.01496703 -0.00115353
v -0.00602853 0.01583289 -0.00116060
v -0.00602853 0.01540037 -0.00118465
v -0.00601605 0.01583289 -0.00116201
v -0.00601605 0.01411440 0.01321622
v -0.00602853 0.01410199 0.01321622
v -0.00646141 0.01323613 0.01320915
v -0.00661165 0.01308562 0.01319925
v -0.00771236 0.01323613 -0.00098802
v -0.00732718 0.01366865 -0.00108138
v -0.00794106 0.01308562 -0.00091021
v -0.00689430 0.01453451 -0.00111109
v -0.00646141 0.01540037 -0.00111816
v -0.00602853 0.01626541 -0.00112523
v -0.00601605 0.01625300 -0.00112806
v -0.00601605 0.01454692 0.01320915
v -0.00602853 0.01453451 0.01320915
v -0.00646141 0.01410199 0.01319642
v -0.00646141 0.01366865 0.01320349
v -0.00689430 0.01323613 0.01317378
v -0.00689430 0.01308562 0.01317520
v -0.00767223 0.01366865 -0.00097528
v -0.00732718 0.01410199 -0.00104743
v -0.00792857 0.01323613 -0.00090455
v -0.00808550 0.01308562 -0.00083241
v -0.00689430 0.01496703 -0.00106582
v -0.00602853 0.01669875 -0.00107997
v -0.00601605 0.01668634 -0.00108280
v -0.00601605 0.01497943 0.01319925
v -0.00602853 0.01496703 0.01319925
v -0.00602853 0.01540037 0.01318369
v -0.00646141 0.01453451 0.01318086
v -0.00689430 0.01366865 0.01316247
v -0.00732718 0.01308562 0.01310730
v -0.00704409 0.01308562 0.01315256
v -0.00761918 0.01410199 -0.00095406
v -0.00788845 0.01366865 -0.00088616
v -0.00757371 0.01441460 -0.00093709
v -0.00735838 0.01454940 -0.00098943
v -0.00819249 0.01323613 -0.00076168
v -0.00817912 0.01308562 -0.00078148
v -0.00693174 0.01543097 -0.00099650
v -0.00602853 0.01713127 -0.00102621
v -0.00601605 0.01713127 -0.00102904
v -0.00601605 0.01669875 -0.00108138
v -0.00601605 0.01541278 0.01318369
v -0.00601605 0.01584529 0.01316105
v -0.00646141 0.01496703 0.01315539
v -0.00689430 0.01410199 0.01314408
v -0.00732718 0.01323613 0.01310305
v -0.00747875 0.01308562 0.01306344
v -0.00783540 0.01410199 -0.00086070
v -0.00819249 0.01366865 -0.00072065
v -0.00773465 0.01454940 -0.00084231
v -0.00752378 0.01470322 -0.00091728
v -0.00724381 0.01496703 -0.00096680
v -0.00852150 0.01308562 -0.00057212
v -0.00710070 0.01559554 -0.00092011
v -0.00603121 0.01752326 -0.00096963
v -0.00601605 0.01751003 -0.00097528
v -0.00601605 0.01627781 0.01312710
v -0.00646141 0.01540037 0.01312003
v -0.00689430 0.01453451 0.01311295
v -0.00732718 0.01366865 0.01308042
v -0.00771102 0.01323613 0.01298705
v -0.00773688 0.01308562 0.01298564
v -0.00823440 0.01414004 -0.00063012
v -0.00815638 0.01453451 -0.00060890
v -0.00850946 0.01323613 -0.00056504
v -0.00847647 0.01366865 -0.00054241
v -0.00844259 0.01402178 -0.00051695
v -0.00775961 0.01496703 -0.00075177
v -0.00746047 0.01496703 -0.00089465
v -0.00873816 0.01308562 -0.00040378
v -0.00703874 0.01583289 -0.00089889
v -0.00617743 0.01764152 -0.00089889
v -0.00624743 0.01735290 -0.00092436
v -0.00601605 0.01756874 -0.00096680
v -0.00601605 0.01671115 0.01308183
v -0.00602853 0.01626541 0.01312569
v -0.00602853 0.01669875 0.01308042
v -0.00689430 0.01496703 0.01306769
v -0.00732718 0.01410199 0.01304647
v -0.00767045 0.01366865 0.01297432
v -0.00794016 0.01308562 0.01290925
v -0.00782113 0.01308562 0.01295452
v -0.00840648 0.01431040 -0.00049007
v -0.00808461 0.01496703 -0.00056504
v -0.00872613 0.01323613 -0.00039246
v -0.00869269 0.01366865 -0.00035709
v -0.00860219 0.01414004 -0.00035002
v -0.00802219 0.01528707 -0.00052402
v -0.00779082 0.01541857 -0.00062304
v -0.00732718 0.01583289 -0.00076733
v -0.00731559 0.01543097 -0.00086211
v -0.00896865 0.01308562 -0.00018734
v -0.00609184 0.01799630 -0.00085787
v -0.00601605 0.01799630 -0.00088899
v -0.00601605 0.01714367 0.01302808
v -0.00602853 0.01713127 0.01302666
v -0.00693130 0.01543014 0.01299696
v -0.00724426 0.01496703 0.01296866
v -0.00735794 0.01454774 0.01298988
v -0.00761829 0.01410199 0.01295452
v -0.00788711 0.01366865 0.01288520
v -0.00792724 0.01323613 0.01290359
v -0.00800079 0.01308562 0.01287813
v -0.00837260 0.01453451 -0.00046460
v -0.00885140 0.01435588 -0.00006851
v -0.00865078 0.01451384 -0.00021563
v -0.00830038 0.01496703 -0.00040519
v -0.00895661 0.01323613 -0.00017602
v -0.00892050 0.01366865 -0.00014066
v -0.00887949 0.01410199 -0.00009822
v -0.00795577 0.01557569 -0.00047734
v -0.00759867 0.01616617 -0.00052826
v -0.00767758 0.01583289 -0.00057636
v -0.00817689 0.01541857 -0.00035285
v -0.00607133 0.01890434 -0.00064143
v -0.00601605 0.01856114 -0.00075743
v -0.00601605 0.01839904 -0.00079846
v -0.00601605 0.01829402 -0.00082392
v -0.00918486 0.01308562 0.00005032
v -0.00601605 0.01756957 0.01296725
v -0.00603121 0.01752326 0.01297008
v -0.00716535 0.01530609 0.01294320
v -0.00752289 0.01470074 0.01291632
v -0.00757326 0.01441212 0.01293613
v -0.00783451 0.01410199 0.01285974
v -0.00819249 0.01366865 0.01272110
v -0.00819249 0.01323613 0.01276354
v -0.00817912 0.01308562 0.01278335
v -0.00854468 0.01496703 -0.00018875
v -0.00911978 0.01408297 0.00019461
v -0.00925486 0.01421447 0.00040539
v -0.00897355 0.01451384 0.00013520
v -0.00881261 0.01464450 -0.00002466
v -0.00846533 0.01540037 -0.00011236
v -0.00917283 0.01323613 0.00006588
v -0.00913672 0.01366865 0.00011681
v -0.00752913 0.01645479 -0.00048158
v -0.00841807 0.01563689 -0.00006851
v -0.00819918 0.01580146 -0.00018734
v -0.00789425 0.01583289 -0.00042924
v -0.00624430 0.01907635 -0.00049007
v -0.00631073 0.01878773 -0.00053534
v -0.00601605 0.01911605 -0.00061173
v -0.00601605 0.01889855 -0.00067114
v -0.00935606 0.01308562 0.00026676
v -0.00601605 0.01783090 0.01292340
v -0.00624743 0.01735290 0.01292481
v -0.00710026 0.01559389 0.01292057
v -0.00746092 0.01496703 0.01289369
v -0.00775961 0.01496703 0.01274940
v -0.00773465 0.01454774 0.01283993
v -0.00815594 0.01453451 0.01260793
v -0.00823440 0.01413921 0.01262915
v -0.00844259 0.01402012 0.01251740
v -0.00847692 0.01366865 0.01254286
v -0.00852284 0.01308562 0.01257540
v -0.00831420 0.01308562 0.01270271
v -0.00876090 0.01496703 0.00003617
v -0.00928161 0.01392585 0.00036436
v -0.00953616 0.01323613 0.00059070
v -0.00969710 0.01308562 0.00082695
v -0.00936898 0.01408297 0.00056666
v -0.00933912 0.01453451 0.00068973
v -0.00921518 0.01453451 0.00047329
v -0.00893566 0.01496703 0.00025261
v -0.00934357 0.01323613 0.00028232
v -0.00930434 0.01366865 0.00033324
v -0.00774980 0.01629270 -0.00036700
v -0.00746850 0.01669875 -0.00043490
v -0.00870517 0.01542187 0.00016915
v -0.00882733 0.01557983 0.00039549
v -0.00852997 0.01580146 0.00015500
v -0.00847157 0.01618601 0.00029788
v -0.00840514 0.01647463 0.00037993
v -0.00829325 0.01630427 0.00015500
v -0.00799232 0.01651516 -0.00007417
v -0.00805028 0.01626541 -0.00012651
v -0.00601605 0.01929468 -0.00055656
v -0.00731915 0.01716269 -0.00037265
v -0.00762409 0.01713127 -0.00013217
v -0.00756346 0.01738763 -0.00007841
v -0.00645740 0.01890434 -0.00038256
v -0.00670215 0.01912680 -0.00008266
v -0.00647434 0.01928062 -0.00020997
v -0.00618635 0.01929468 -0.00044621
v -0.00601605 0.01977350 -0.00038539
v -0.00956648 0.01308562 0.00059919
v -0.00601605 0.01806163 0.01287813
v -0.00617743 0.01764152 0.01289793
v -0.00703963 0.01583289 0.01289793
v -0.00731648 0.01543014 0.01285974
v -0.00732718 0.01583289 0.01276496
v -0.00778770 0.01541278 0.01262067
v -0.00801952 0.01527715 0.01252164
v -0.00808193 0.01496703 0.01256267
v -0.00837171 0.01453451 0.01246364
v -0.00840559 0.01430874 0.01248911
v -0.00860219 0.01413921 0.01234906
v -0.00869314 0.01366865 0.01235755
v -0.00872746 0.01323613 0.01239291
v -0.00873906 0.01308562 0.01240423
v -0.00859773 0.01308562 0.01251740
v -0.00888171 0.01529204 0.00032193
v -0.00973366 0.01308562 0.00090334
v -0.00978760 0.01323613 0.00107309
v -0.00968328 0.01323613 0.00085665
v -0.00964316 0.01366865 0.00094295
v -0.00961507 0.01409538 0.00105187
v -0.00929855 0.01483636 0.00076187
v -0.00950585 0.01453451 0.00102358
v -0.00916614 0.01497530 0.00060768
v -0.00898693 0.01542187 0.00055958
v -0.00890935 0.01583289 0.00069680
v -0.00885675 0.01608099 0.00078309
v -0.00876982 0.01583289 0.00048036
v -0.00849297 0.01669875 0.00067700
v -0.00797895 0.01735290 0.00037144
v -0.00773420 0.01751416 0.00018471
v -0.00626704 0.01998604 -0.00007983
v -0.00633213 0.01972719 -0.00013783
v -0.00754785 0.01822124 0.00036861
v -0.00711631 0.01908876 0.00036719
v -0.00662770 0.01941542 -0.00000344
v -0.00603923 0.02014234 -0.00020573
v -0.00601605 0.02021346 -0.00019441
v -0.00601605 0.01829402 0.01282579
v -0.00609184 0.01799630 0.01285832
v -0.00601605 0.01837837 0.01280457
v -0.00607133 0.01890434 0.01264189
v -0.00650154 0.01803351 0.01263764
v -0.00735927 0.01628856 0.01262632
v -0.00767179 0.01583289 0.01257398
v -0.00759600 0.01615955 0.01252730
v -0.00795086 0.01556577 0.01247355
v -0.00817511 0.01541278 0.01234764
v -0.00829815 0.01496703 0.01240281
v -0.00854334 0.01496703 0.01218638
v -0.00865078 0.01451384 0.01221608
v -0.00885140 0.01435505 0.01206896
v -0.00887949 0.01410199 0.01209867
v -0.00892139 0.01366865 0.01214111
v -0.00895884 0.01323613 0.01217647
v -0.00881975 0.01308562 0.01232925
v -0.00979652 0.01308562 0.00103914
v -0.00996949 0.01308562 0.00145645
v -0.00994497 0.01323613 0.00145645
v -0.00971894 0.01394735 0.00121455
v -0.00969130 0.01423597 0.00127963
v -0.00937745 0.01497530 0.00100095
v -0.00925709 0.01512498 0.00084109
v -0.00965742 0.01453451 0.00136309
v -0.00920938 0.01540037 0.00093446
v -0.00912290 0.01579650 0.00106177
v -0.00891782 0.01624142 0.00104056
v -0.00878765 0.01636961 0.00090899
v -0.00836101 0.01724953 0.00089626
v -0.00843055 0.01696091 0.00077319
v -0.00805117 0.01752326 0.00061051
v -0.00654835 0.01972719 0.00008710
v -0.00619036 0.02027466 0.00000081
v -0.00601605 0.02061373 0.00001071
v -0.00800169 0.01783090 0.00076753
v -0.00762052 0.01839077 0.00060909
v -0.00756970 0.01869842 0.00076612
v -0.00718942 0.01925746 0.00060909
v -0.00713771 0.01956428 0.00076470
v -0.00668120 0.01995048 0.00037002
v -0.00601605 0.01894321 0.01266028
v -0.00601605 0.01911853 0.01261218
v -0.00601605 0.01925829 0.01257257
v -0.00631118 0.01878856 0.01253579
v -0.00639900 0.01842882 0.01258671
v -0.00682519 0.01756296 0.01258247
v -0.00716847 0.01703947 0.01253013
v -0.00710026 0.01732726 0.01248486
v -0.00788800 0.01583289 0.01242403
v -0.00819740 0.01579733 0.01218213
v -0.00841451 0.01562862 0.01206472
v -0.00846132 0.01540037 0.01210857
v -0.00875956 0.01496703 0.01196145
v -0.00881217 0.01464367 0.01202369
v -0.00897311 0.01451384 0.01186526
v -0.00925486 0.01421529 0.01159365
v -0.00911978 0.01408297 0.01180584
v -0.00913805 0.01366865 0.01188506
v -0.00917506 0.01323613 0.01193599
v -0.00918709 0.01308562 0.01195155
v -0.00904577 0.01308562 0.01210857
v -0.00897088 0.01308562 0.01218779
v -0.01009610 0.01308562 0.00185113
v -0.00977735 0.01409538 0.00143665
v -0.01008540 0.01324027 0.00190206
v -0.01000426 0.01366865 0.00188933
v -0.00992625 0.01410199 0.00188933
v -0.00974213 0.01453451 0.00157953
v -0.00960214 0.01493974 0.00148758
v -0.00931772 0.01540037 0.00115090
v -0.00971404 0.01477682 0.00165309
v -0.00927848 0.01562697 0.00123153
v -0.00922053 0.01591559 0.00136592
v -0.00886299 0.01652756 0.00119758
v -0.00849698 0.01711555 0.00103348
v -0.00792991 0.01811952 0.00089202
v -0.00843680 0.01740500 0.00118343
v -0.00828388 0.01755469 0.00103348
v -0.00601605 0.02086927 0.00015217
v -0.00749837 0.01898704 0.00089202
v -0.00675208 0.02012084 0.00061334
v -0.00706415 0.01985290 0.00089343
v -0.00670037 0.02042021 0.00077178
v -0.00624341 0.02080559 0.00037710
v -0.00601605 0.01949233 0.01249618
v -0.00624430 0.01907635 0.01249052
v -0.00674049 0.01791360 0.01253296
v -0.00667273 0.01820222 0.01248769
v -0.00731871 0.01716269 0.01237169
v -0.00762275 0.01713127 0.01213121
v -0.00756346 0.01738763 0.01207745
v -0.00797895 0.01735290 0.01162901
v -0.00852328 0.01579733 0.01184262
v -0.00882287 0.01556908 0.01159931
v -0.00869938 0.01541526 0.01182848
v -0.00887993 0.01528129 0.01167570
v -0.00893432 0.01496703 0.01174501
v -0.00921518 0.01453451 0.01152716
v -0.00933867 0.01453451 0.01131072
v -0.00936988 0.01408297 0.01143380
v -0.00965564 0.01308562 0.01125980
v -0.00954062 0.01323613 0.01140975
v -0.00928161 0.01392667 0.01163609
v -0.00930523 0.01366865 0.01166862
v -0.00934357 0.01323613 0.01171955
v -0.00924550 0.01308562 0.01187657
v -0.01015227 0.01308562 0.00204069
v -0.01015405 0.01309885 0.00205484
v -0.01012775 0.01338747 0.00214679
v -0.01010279 0.01366865 0.00224016
v -0.01006356 0.01406313 0.00236181
v -0.00996102 0.01453451 0.00232220
v -0.00984020 0.01453451 0.00188933
v -0.00967347 0.01506544 0.00178323
v -0.00944656 0.01540037 0.00145645
v -0.00974748 0.01493974 0.00191196
v -0.00931772 0.01579650 0.00148899
v -0.00928161 0.01606527 0.00165450
v -0.00913181 0.01623233 0.00148899
v -0.00879434 0.01681618 0.00134894
v -0.00807079 0.01798389 0.00103207
v -0.00800614 0.01827251 0.00118060
v -0.00836636 0.01769362 0.00133480
v -0.00601605 0.02100986 0.00024271
v -0.00742080 0.01928723 0.00103065
v -0.00757371 0.01913838 0.00118060
v -0.00720547 0.01971644 0.00103207
v -0.00713949 0.01999927 0.00118202
v -0.00662592 0.02070883 0.00090617
v -0.00626169 0.02127532 0.00078026
v -0.00601605 0.02148207 0.00056807
v -0.00601605 0.01977516 0.01238584
v -0.00602586 0.01976772 0.01238159
v -0.00618724 0.01929468 0.01244667
v -0.00647479 0.01928062 0.01221042
v -0.00645785 0.01890434 0.01238301
v -0.00688850 0.01803351 0.01237735
v -0.00748990 0.01767543 0.01200106
v -0.00713280 0.01825763 0.01208028
v -0.00876357 0.01583289 0.01151443
v -0.00846756 0.01617361 0.01169833
v -0.00705924 0.01854625 0.01200248
v -0.00698212 0.01886133 0.01191335
v -0.00687200 0.01925250 0.01181857
v -0.00754785 0.01822124 0.01163043
v -0.00805073 0.01752326 0.01138994
v -0.00885586 0.01608016 0.01121453
v -0.00890757 0.01583289 0.01129799
v -0.00898514 0.01541526 0.01143663
v -0.00916480 0.01497447 0.01139277
v -0.00929810 0.01483554 0.01123716
v -0.00950540 0.01453451 0.01097687
v -0.00961552 0.01409538 0.01094858
v -0.00964628 0.01366865 0.01106034
v -0.00968729 0.01323613 0.01114946
v -0.00970067 0.01308562 0.01117916
v -0.00957004 0.01308562 0.01140126
v -0.00944923 0.01308562 0.01159223
v -0.00935561 0.01308562 0.01173511
v -0.01015495 0.01308562 0.00205060
v -0.01022316 0.01308562 0.00230947
v -0.01019774 0.01324027 0.00230381
v -0.01016208 0.01366865 0.00245659
v -0.01014113 0.01389359 0.00253298
v -0.01005642 0.01453451 0.00275508
v -0.00995344 0.01496703 0.00275508
v -0.00985536 0.01496703 0.00232220
v -0.00971716 0.01521513 0.00207182
v -0.00961463 0.01537556 0.00191196
v -0.00944700 0.01583289 0.00188933
v -0.00885630 0.01694602 0.00163753
v -0.00932084 0.01615293 0.00188933
v -0.00922053 0.01636878 0.00188933
v -0.00890178 0.01704360 0.00188933
v -0.00879969 0.01725945 0.00188933
v -0.00891337 0.01668221 0.00147767
v -0.00871142 0.01710646 0.00147767
v -0.00793437 0.01856114 0.00133480
v -0.00849252 0.01755469 0.00147060
v -0.00842966 0.01782180 0.00162338
v -0.00828478 0.01797811 0.00147060
v -0.00750149 0.01942700 0.00133621
v -0.00741768 0.01970817 0.00147060
v -0.00706415 0.02028789 0.00134611
v -0.00670037 0.02085273 0.00119475
v -0.00621800 0.02153417 0.00094860
v -0.00613909 0.02153417 0.00081422
v -0.00601605 0.02153417 0.00061192
v -0.00601605 0.02151515 0.00059495
v -0.00601605 0.01978178 0.01238301
v -0.00601605 0.02016881 0.01221608
v -0.00604012 0.02014317 0.01220760
v -0.00633257 0.01972719 0.01213828
v -0.00670215 0.01912680 0.01208169
v -0.00676590 0.01886133 0.01213969
v -0.00662770 0.01941542 0.01200389
v -0.00654924 0.01972719 0.01191335
v -0.00673692 0.01972719 0.01169692
v -0.00711631 0.01908876 0.01163184
v -0.00718942 0.01925746 0.01139136
v -0.00762052 0.01839077 0.01138994
v -0.00800169 0.01783090 0.01123150
v -0.00842833 0.01695677 0.01122302
v -0.00836012 0.01724539 0.01110277
v -0.00878542 0.01636878 0.01108863
v -0.00891604 0.01624060 0.01095707
v -0.00912156 0.01579319 0.01093585
v -0.00920849 0.01540037 0.01106175
v -0.00925664 0.01512416 0.01115794
v -0.00937656 0.01497447 0.01099951
v -0.00965742 0.01453451 0.01063736
v -0.00969130 0.01423597 0.01072083
v -0.00971850 0.01394735 0.01078590
v -0.00978760 0.01323613 0.01093302
v -0.00979741 0.01308562 0.01096697
v -0.01028914 0.01308562 0.00260513
v -0.01029939 0.01323613 0.00275508
v -0.01022093 0.01366865 0.00275508
v -0.01016030 0.01399531 0.00275508
v -0.01011973 0.01421198 0.00275508
v -0.01011973 0.01456759 0.00314834
v -0.01013667 0.01473382 0.00343410
v -0.01003146 0.01496703 0.00318795
v -0.00990708 0.01540037 0.00318795
v -0.00982549 0.01540037 0.00275508
v -0.00970958 0.01562366 0.00252874
v -0.00974391 0.01537556 0.00235898
v -0.00966946 0.01550375 0.00224016
v -0.00959813 0.01579402 0.00235898
v -0.00865391 0.01756296 0.00188933
v -0.00937656 0.01629518 0.00230381
v -0.00926333 0.01645892 0.00214679
v -0.00883936 0.01734215 0.00211425
v -0.00799723 0.01868684 0.00162338
v -0.00846577 0.01797811 0.00193035
v -0.00835744 0.01811042 0.00181435
v -0.00756390 0.01955104 0.00162479
v -0.00719254 0.02014979 0.00147626
v -0.00712656 0.02040698 0.00163470
v -0.00697409 0.02056742 0.00147626
v -0.00674762 0.02100820 0.00148616
v -0.00647345 0.02153417 0.00148899
v -0.00662503 0.02114052 0.00136309
v -0.00629825 0.02153417 0.00110563
v -0.00601605 0.02153417 0.01138994
v -0.00601605 0.02021595 0.01219486
v -0.00601605 0.02046322 0.01208028
v -0.00626749 0.01998770 0.01208028
v -0.00619170 0.02027632 0.01199965
v -0.00668120 0.01995048 0.01163043
v -0.00713726 0.01956428 0.01123433
v -0.00756970 0.01869759 0.01123292
v -0.00749792 0.01898621 0.01110843
v -0.00792991 0.01811869 0.01110702
v -0.00828299 0.01755386 0.01096556
v -0.00843590 0.01740335 0.01081419
v -0.00886165 0.01652343 0.01080004
v -0.00921964 0.01591063 0.01062888
v -0.00927626 0.01562201 0.01076468
v -0.00931593 0.01540037 0.01084531
v -0.00960170 0.01493891 0.01051146
v -0.00971404 0.01477599 0.01034595
v -0.00974213 0.01453451 0.01042093
v -0.00977735 0.01409538 0.01056380
v -0.00994586 0.01323613 0.01054400
v -0.00986695 0.01308562 0.01079863
v -0.01032257 0.01308562 0.00275508
v -0.01037161 0.01323613 0.00318795
v -0.01029359 0.01366865 0.00318795
v -0.01016342 0.01444602 0.00326576
v -0.01013890 0.01431288 0.00297718
v -0.01035155 0.01366865 0.00362083
v -0.01027219 0.01410199 0.00362083
v -0.01018392 0.01456759 0.00359537
v -0.01023653 0.01453451 0.00405370
v -0.01015138 0.01479501 0.00372268
v -0.01009565 0.01495049 0.00359537
v -0.00997172 0.01540037 0.00362083
v -0.00982861 0.01583289 0.00362083
v -0.00976397 0.01583868 0.00321625
v -0.00973232 0.01568320 0.00275508
v -0.00968283 0.01598671 0.00309176
v -0.00964806 0.01589905 0.00275508
v -0.00949426 0.01626541 0.00275508
v -0.00930033 0.01653749 0.00243537
v -0.00877561 0.01756130 0.00228401
v -0.00840960 0.01821463 0.00210294
v -0.00887458 0.01741575 0.00240284
v -0.00792501 0.01897546 0.00181435
v -0.00750372 0.01986530 0.00188933
v -0.00668655 0.02125878 0.00165167
v -0.00735036 0.02015971 0.00188933
v -0.00662726 0.02153417 0.00188933
v -0.00619527 0.02153417 0.01109570
v -0.00626214 0.02127532 0.01122019
v -0.00601605 0.02151598 0.01140550
v -0.00601605 0.02071793 0.01194023
v -0.00624341 0.02080559 0.01162336
v -0.00675208 0.02012084 0.01138711
v -0.00601605 0.02087175 0.01184828
v -0.00601605 0.02095858 0.01179594
v -0.00670037 0.02042021 0.01122868
v -0.00706415 0.01985290 0.01110560
v -0.00742035 0.01928723 0.01096838
v -0.00757326 0.01913755 0.01081985
v -0.00800570 0.01827169 0.01081843
v -0.00807034 0.01798307 0.01096838
v -0.00836636 0.01769197 0.01066424
v -0.00879211 0.01681205 0.01064868
v -0.00912914 0.01622902 0.01050863
v -0.00927893 0.01606031 0.01034029
v -0.00931504 0.01579319 0.01050863
v -0.00944477 0.01540037 0.01054400
v -0.00967303 0.01506461 0.01021580
v -0.00974703 0.01493891 0.01008707
v -0.00984020 0.01453451 0.01011112
v -0.00992714 0.01410199 0.01011112
v -0.01000426 0.01308562 0.01043790
v -0.00996994 0.01308562 0.01054400
v -0.01008674 0.01324523 0.01010122
v -0.01039435 0.01308562 0.00318795
v -0.01042823 0.01323613 0.00362083
v -0.01039479 0.01366865 0.00405370
v -0.01031588 0.01410199 0.00405370
v -0.01034798 0.01410199 0.00448658
v -0.01026818 0.01453451 0.00448658
v -0.01016832 0.01485952 0.00405370
v -0.01011037 0.01507536 0.00405370
v -0.01001987 0.01540037 0.00405370
v -0.00987944 0.01583289 0.00405370
v -0.00972786 0.01610083 0.00362083
v -0.00971181 0.01606114 0.00338034
v -0.00960660 0.01622902 0.00321625
v -0.00937389 0.01672852 0.00317239
v -0.00933644 0.01661522 0.00275508
v -0.00923480 0.01683189 0.00275508
v -0.00909258 0.01713127 0.00275508
v -0.00891604 0.01750259 0.00275508
v -0.00881217 0.01771926 0.00275508
v -0.00857143 0.01799630 0.00232220
v -0.00797672 0.01907966 0.00210294
v -0.00754295 0.01994304 0.00210718
v -0.00710204 0.02079319 0.00213972
v -0.00674406 0.02153417 0.00227269
v -0.00621845 0.02153417 0.01105185
v -0.00662592 0.02070883 0.01109429
v -0.00601605 0.02149282 0.01142389
v -0.00601605 0.02148207 0.01143238
v -0.00601605 0.02121661 0.01163043
v -0.00713949 0.01999927 0.01081702
v -0.00720547 0.01971562 0.01096697
v -0.00750149 0.01942617 0.01066424
v -0.00793392 0.01856031 0.01066424
v -0.00828388 0.01797811 0.01052985
v -0.00842966 0.01782180 0.01037566
v -0.00849208 0.01755386 0.01052985
v -0.00870919 0.01710563 0.01051995
v -0.00891069 0.01668056 0.01051995
v -0.00885497 0.01694437 0.01036010
v -0.00879924 0.01725780 0.01011112
v -0.00890088 0.01704195 0.01011112
v -0.00921919 0.01636547 0.01011112
v -0.00931905 0.01614880 0.01011112
v -0.00944611 0.01583289 0.01011112
v -0.00961507 0.01537556 0.01008707
v -0.00971672 0.01521513 0.00992722
v -0.00985536 0.01496703 0.00967825
v -0.00996102 0.01453451 0.00967825
v -0.01006400 0.01406147 0.00963722
v -0.01010412 0.01366865 0.00976030
v -0.01012909 0.01339574 0.00985508
v -0.01015539 0.01310712 0.00994986
v -0.01009655 0.01308562 0.01015073
v -0.01015718 0.01308562 0.00995551
v -0.01043135 0.01308562 0.00347088
v -0.01045052 0.01308562 0.00362083
v -0.01047860 0.01308562 0.00390375
v -0.01047103 0.01323613 0.00405370
v -0.01042689 0.01366865 0.00448658
v -0.01036626 0.01410199 0.00491804
v -0.01028601 0.01453451 0.00491804
v -0.01018392 0.01491575 0.00448658
v -0.01012552 0.01513160 0.00448658
v -0.01005152 0.01540037 0.00448658
v -0.00991287 0.01583289 0.00448658
v -0.00975372 0.01616534 0.00405370
v -0.00966500 0.01638118 0.00405370
v -0.00963736 0.01631751 0.00362083
v -0.00929498 0.01695925 0.00330678
v -0.00946662 0.01669875 0.00362083
v -0.00926377 0.01689309 0.00301820
v -0.00919334 0.01711473 0.00317239
v -0.00895750 0.01760348 0.00315117
v -0.00883847 0.01777384 0.00298283
v -0.00867397 0.01799630 0.00275508
v -0.00780598 0.01972719 0.00275508
v -0.00762052 0.02009272 0.00275508
v -0.00753760 0.02036480 0.00299698
v -0.00750817 0.02030940 0.00275508
v -0.00735883 0.02059305 0.00275508
v -0.00706370 0.02115293 0.00275508
v -0.00677393 0.02153417 0.00239294
v -0.00678240 0.02148290 0.00231796
v -0.00629869 0.02153417 0.01089482
v -0.00670037 0.02085273 0.01080570
v -0.00706415 0.02028789 0.01065434
v -0.00741768 0.01970817 0.01052844
v -0.00756346 0.01955104 0.01037566
v -0.00799678 0.01868601 0.01037566
v -0.00835744 0.01811042 0.01018610
v -0.00846577 0.01797811 0.01006868
v -0.00865346 0.01756296 0.01011112
v -0.00883936 0.01734215 0.00988620
v -0.00926377 0.01645975 0.00985366
v -0.00959947 0.01579567 0.00964288
v -0.00967035 0.01550292 0.00976454
v -0.00971092 0.01562697 0.00947596
v -0.00974436 0.01537556 0.00964288
v -0.00995300 0.01496703 0.00924537
v -0.01005687 0.01453451 0.00924537
v -0.01014068 0.01389028 0.00946605
v -0.01016119 0.01366865 0.00954386
v -0.01019819 0.01324523 0.00969805
v -0.01016342 0.01308562 0.00993147
v -0.01049332 0.01308562 0.00406078
v -0.01052452 0.01308562 0.00448658
v -0.01050179 0.01323613 0.00448658
v -0.01044517 0.01366865 0.00491804
v -0.01038231 0.01410199 0.00535091
v -0.01030073 0.01453451 0.00535091
v -0.01019239 0.01493974 0.00491804
v -0.01006489 0.01540037 0.00491804
v -0.00996013 0.01583289 0.00578379
v -0.00992937 0.01583289 0.00491804
v -0.00980499 0.01626541 0.00578379
v -0.00978002 0.01623315 0.00491804
v -0.00977066 0.01620834 0.00448658
v -0.00968328 0.01642502 0.00448658
v -0.00955935 0.01669875 0.00448658
v -0.00952101 0.01669875 0.00405370
v -0.00931950 0.01701135 0.00362083
v -0.00905870 0.01756296 0.00362083
v -0.00887146 0.01784000 0.00327142
v -0.00797271 0.01950391 0.00298708
v -0.00790227 0.01971810 0.00315400
v -0.00766020 0.02019610 0.00315966
v -0.00756970 0.02042600 0.00328556
v -0.00709669 0.02121578 0.00303376
v -0.00686264 0.02153417 0.00275508
v -0.00642575 0.02153417 0.01062180
v -0.00662503 0.02114135 0.01063736
v -0.00712656 0.02040698 0.01036576
v -0.00719254 0.02014979 0.01052278
v -0.00792412 0.01897463 0.01018468
v -0.00750372 0.01986530 0.01011112
v -0.00797672 0.01907966 0.00989610
v -0.00840960 0.01821463 0.00989751
v -0.00877561 0.01756130 0.00971644
v -0.00887369 0.01741575 0.00959761
v -0.00933822 0.01661522 0.00924537
v -0.00929944 0.01653500 0.00956508
v -0.00937656 0.01629600 0.00969664
v -0.00965118 0.01590649 0.00924537
v -0.00973410 0.01568982 0.00924537
v -0.00982683 0.01540037 0.00924537
v -0.00990708 0.01540037 0.00881250
v -0.01003146 0.01496703 0.00881250
v -0.01013667 0.01473464 0.00856494
v -0.01011973 0.01420950 0.00924537
v -0.01011973 0.01456842 0.00885211
v -0.01021959 0.01366865 0.00924537
v -0.01029805 0.01323613 0.00924537
v -0.01022405 0.01308562 0.00969098
v -0.01054146 0.01308562 0.00491804
v -0.01051873 0.01323613 0.00491804
v -0.01045943 0.01366865 0.00535091
v -0.01039658 0.01410199 0.00578379
v -0.01031455 0.01453451 0.00578379
v -0.01020934 0.01496703 0.00578379
v -0.01014425 0.01519941 0.00578379
v -0.01008317 0.01541526 0.00578379
v -0.00996191 0.01583289 0.00621525
v -0.00971137 0.01649200 0.00578379
v -0.00970735 0.01648290 0.00556028
v -0.00969353 0.01644982 0.00491804
v -0.00980632 0.01626541 0.00621525
v -0.00958164 0.01669875 0.00491804
v -0.00927492 0.01734876 0.00469311
v -0.00934848 0.01715938 0.00452336
v -0.00926244 0.01732147 0.00440453
v -0.00934669 0.01706759 0.00405370
v -0.00889910 0.01789541 0.00362083
v -0.00924371 0.01728343 0.00405370
v -0.00910997 0.01756296 0.00405370
v -0.00800481 0.01956758 0.00327566
v -0.00879077 0.01811125 0.00362083
v -0.00775961 0.02015971 0.00362083
v -0.00759645 0.02047810 0.00362083
v -0.00748321 0.02069477 0.00362083
v -0.00730934 0.02102557 0.00362083
v -0.00712790 0.02127450 0.00332234
v -0.00696161 0.02153417 0.00318654
v -0.00647345 0.02153417 0.01051005
v -0.00668655 0.02125878 0.01034878
v -0.00735036 0.02015971 0.01011112
v -0.00782737 0.01925167 0.01006868
v -0.00754295 0.01994304 0.00989327
v -0.00800347 0.01913176 0.00967825
v -0.00843635 0.01826755 0.00967825
v -0.00857188 0.01799630 0.00967825
v -0.00881217 0.01771843 0.00924537
v -0.00891515 0.01750259 0.00924537
v -0.00949871 0.01626541 0.00924537
v -0.00883847 0.01777384 0.00901762
v -0.00926467 0.01689557 0.00898084
v -0.00968595 0.01599250 0.00889030
v -0.00976174 0.01584199 0.00877289
v -0.00982237 0.01583289 0.00837962
v -0.00996994 0.01540037 0.00837962
v -0.01027264 0.01410199 0.00837962
v -0.01035155 0.01366865 0.00837962
v -0.01042867 0.01323613 0.00837962
v -0.01037072 0.01323613 0.00881250
v -0.01029315 0.01366865 0.00881250
v -0.01016342 0.01444685 0.00873469
v -0.01009476 0.01494718 0.00840367
v -0.01001719 0.01540037 0.00794675
v -0.01010858 0.01506792 0.00794675
v -0.01015049 0.01478922 0.00827636
v -0.01023653 0.01453451 0.00794675
v -0.01031900 0.01410199 0.00794675
v -0.01019953 0.01414169 0.00885211
v -0.01032079 0.01308562 0.00924537
v -0.01056108 0.01308562 0.00549096
v -0.01054191 0.01326260 0.00578379
v -0.01047325 0.01366865 0.00578379
v -0.01039702 0.01410199 0.00621525
v -0.01031455 0.01453451 0.00621525
v -0.01021023 0.01496703 0.00621525
v -0.01014469 0.01520107 0.00621525
v -0.01008362 0.01541774 0.00621525
v -0.00994809 0.01583289 0.00664812
v -0.01008986 0.01536068 0.00664954
v -0.01006757 0.01540037 0.00708100
v -0.00961150 0.01670867 0.00578379
v -0.00940108 0.01713127 0.00535091
v -0.00971181 0.01649200 0.00621525
v -0.00927982 0.01735952 0.00491804
v -0.00938459 0.01713127 0.00491804
v -0.00970735 0.01648290 0.00644300
v -0.00993293 0.01583289 0.00708100
v -0.00978314 0.01623729 0.00708100
v -0.00969532 0.01645396 0.00708100
v -0.00970200 0.01646967 0.00673159
v -0.00917996 0.01757619 0.00491804
v -0.00898024 0.01799630 0.00491804
v -0.00884962 0.01822868 0.00463087
v -0.00917952 0.01752078 0.00452336
v -0.00892407 0.01794585 0.00405370
v -0.00883312 0.01819560 0.00434229
v -0.00881618 0.01816253 0.00405370
v -0.00796736 0.01992567 0.00435219
v -0.00893209 0.01802938 0.00448658
v -0.00792322 0.01983801 0.00362083
v -0.00794953 0.01989011 0.00405370
v -0.00781311 0.02015971 0.00405370
v -0.00762319 0.02053020 0.00405370
v -0.00736774 0.02102557 0.00405370
v -0.00718318 0.02138118 0.00405370
v -0.00710338 0.02153417 0.00405370
v -0.00715286 0.02132163 0.00362083
v -0.00704007 0.02153417 0.00362083
v -0.00703695 0.02153417 0.00360244
v -0.00662057 0.02153417 0.01012810
v -0.00662681 0.02153417 0.01011112
v -0.00710204 0.02079319 0.00986073
v -0.00678195 0.02148290 0.00968108
v -0.00750817 0.02030940 0.00924537
v -0.00762096 0.02009272 0.00924537
v -0.00780731 0.01972719 0.00924537
v -0.00794641 0.01945098 0.00924537
v -0.00805474 0.01923513 0.00924537
v -0.00824198 0.01886133 0.00924537
v -0.00848762 0.01837093 0.00924537
v -0.00867486 0.01799630 0.00924537
v -0.00937255 0.01673017 0.00882664
v -0.00960838 0.01622323 0.00877289
v -0.00840604 0.01863970 0.00901762
v -0.00876937 0.01798886 0.00884928
v -0.00887101 0.01784000 0.00872904
v -0.00970780 0.01605121 0.00860172
v -0.00975015 0.01615790 0.00794675
v -0.00987542 0.01583289 0.00794675
v -0.01039658 0.01366865 0.00794675
v -0.01045096 0.01308562 0.00837962
v -0.01039345 0.01308562 0.00881250
v -0.01047147 0.01323613 0.00794675
v -0.00991376 0.01583289 0.00751387
v -0.01005152 0.01540037 0.00751387
v -0.01016609 0.01485125 0.00794675
v -0.01012552 0.01512912 0.00751387
v -0.01026952 0.01453451 0.00751387
v -0.01035333 0.01410199 0.00751387
v -0.01056687 0.01308562 0.00567628
v -0.01057000 0.01308562 0.00578379
v -0.01054191 0.01326260 0.00621525
v -0.01047325 0.01366865 0.00621525
v -0.01038365 0.01410199 0.00664812
v -0.01030117 0.01453451 0.00664812
v -0.01019061 0.01494470 0.00708100
v -0.01014157 0.01518949 0.00650525
v -0.01018749 0.01500672 0.00664954
v -0.01013801 0.01517791 0.00679383
v -0.01013399 0.01516137 0.00708100
v -0.00941446 0.01713127 0.00578379
v -0.00928740 0.01737523 0.00535091
v -0.00900743 0.01799630 0.00621525
v -0.00927536 0.01734959 0.00731017
v -0.00917952 0.01757288 0.00708100
v -0.00977110 0.01621000 0.00751387
v -0.00968373 0.01642667 0.00751387
v -0.00918620 0.01759190 0.00535091
v -0.00899495 0.01799630 0.00535091
v -0.00887369 0.01827830 0.00578379
v -0.00886611 0.01826259 0.00535091
v -0.00885809 0.01824522 0.00491804
v -0.00798296 0.01995710 0.00464077
v -0.00788176 0.02012498 0.00449224
v -0.00762988 0.02062117 0.00450921
v -0.00754741 0.02081634 0.00466907
v -0.00704186 0.02153417 0.00363215
v -0.00754964 0.02081800 0.00491804
v -0.00754964 0.02081800 0.00708100
v -0.00710293 0.02153417 0.00794675
v -0.00668566 0.02153417 0.00992864
v -0.00674361 0.02153417 0.00972634
v -0.00676278 0.02153417 0.00964854
v -0.00683991 0.02153417 0.00933308
v -0.00735838 0.02059305 0.00924537
v -0.00753760 0.02036480 0.00900206
v -0.00797360 0.01950556 0.00901620
v -0.00929275 0.01695512 0.00869226
v -0.00945904 0.01669875 0.00837962
v -0.00963290 0.01630345 0.00837962
v -0.00843813 0.01870338 0.00872904
v -0.00879077 0.01811208 0.00837962
v -0.00889865 0.01789541 0.00837962
v -0.00905736 0.01756296 0.00837962
v -0.00966233 0.01637374 0.00794675
v -0.01042912 0.01366865 0.00751387
v -0.01049376 0.01308562 0.00793968
v -0.01050223 0.01323613 0.00751387
v -0.01052452 0.01308562 0.00751387
v -0.01050669 0.01308562 0.00776426
v -0.01018169 0.01491245 0.00751387
v -0.01028646 0.01453451 0.00708100
v -0.01036983 0.01410199 0.00708100
v -0.01044606 0.01366865 0.00708100
v -0.01057000 0.01308562 0.00621525
v -0.01056108 0.01308562 0.00650808
v -0.01051873 0.01323613 0.00708100
v -0.01045988 0.01366865 0.00664812
v -0.00900832 0.01799630 0.00578379
v -0.00887369 0.01827748 0.00621525
v -0.00897935 0.01799630 0.00708100
v -0.00917952 0.01752161 0.00747851
v -0.00884962 0.01822868 0.00737100
v -0.00955979 0.01669875 0.00751387
v -0.00951655 0.01669875 0.00794675
v -0.00876580 0.01849415 0.00578379
v -0.00875778 0.01847844 0.00535091
v -0.00874931 0.01846190 0.00491804
v -0.00831554 0.01932528 0.00491804
v -0.00811358 0.01972719 0.00491804
v -0.00799054 0.01997198 0.00491804
v -0.00788176 0.02018783 0.00491804
v -0.00788890 0.02020354 0.00535091
v -0.00789425 0.02021843 0.00578379
v -0.00789425 0.02021760 0.00621525
v -0.00754741 0.02081634 0.00733280
v -0.00718318 0.02138118 0.00794675
v -0.00708911 0.02153417 0.00804719
v -0.00686130 0.02153417 0.00924537
v -0.00709669 0.02121495 0.00896528
v -0.00756970 0.02042600 0.00871347
v -0.00766064 0.02019610 0.00883938
v -0.00790316 0.01971810 0.00884786
v -0.00800481 0.01956758 0.00872762
v -0.00921652 0.01722306 0.00837962
v -0.00931682 0.01700639 0.00837962
v -0.00819695 0.01929468 0.00837962
v -0.00824956 0.01929468 0.00794675
v -0.00881663 0.01816335 0.00794675
v -0.00892407 0.01794668 0.00794675
v -0.00910952 0.01756296 0.00794675
v -0.00924282 0.01728178 0.00794675
v -0.00934491 0.01706511 0.00794675
v -0.01053344 0.01308562 0.00729178
v -0.01054860 0.01308562 0.00687305
v -0.01054146 0.01308562 0.00708100
v -0.00886611 0.01826176 0.00664812
v -0.00876536 0.01849415 0.00621525
v -0.00885764 0.01824522 0.00708100
v -0.00926199 0.01732065 0.00759875
v -0.00893209 0.01802938 0.00751529
v -0.00798296 0.01995710 0.00735968
v -0.00883312 0.01819643 0.00765958
v -0.00840024 0.01906147 0.00765534
v -0.00806588 0.01976027 0.00750822
v -0.00858124 0.01886133 0.00578379
v -0.00832356 0.01934182 0.00535091
v -0.00844036 0.01914086 0.00578379
v -0.00833114 0.01935753 0.00578379
v -0.00800570 0.02000176 0.00578379
v -0.00800525 0.02000093 0.00621525
v -0.00788934 0.02020189 0.00664812
v -0.00767179 0.02059305 0.00708100
v -0.00788176 0.02018700 0.00708100
v -0.00788221 0.02012498 0.00750822
v -0.00763033 0.02062200 0.00749124
v -0.00753091 0.02078492 0.00762138
v -0.00736819 0.02102557 0.00794675
v -0.00759645 0.02047810 0.00837962
v -0.00748321 0.02069477 0.00837962
v -0.00730890 0.02102557 0.00837962
v -0.00715286 0.02132163 0.00837962
v -0.00704007 0.02153417 0.00837962
v -0.00693174 0.02153417 0.00894123
v -0.00696117 0.02153417 0.00881250
v -0.00712790 0.02127450 0.00867669
v -0.00776006 0.02015971 0.00837962
v -0.00792322 0.01983801 0.00837962
v -0.00803200 0.01962217 0.00837962
v -0.00794997 0.01989094 0.00794675
v -0.00796736 0.01992567 0.00764826
v -0.00858035 0.01886133 0.00621525
v -0.00843992 0.01914003 0.00621525
v -0.00781355 0.02015971 0.00794675
v -0.00762364 0.02053186 0.00794675
f 1 2 5
f 1 5 3
f 1 3 8
f 1 8 14
f 1 14 21
f 1 21 33
f 1 33 46
f 1 46 60
f 1 60 59
f 1 59 76
f 1 76 91
f 1 91 111
f 1 111 110
f 1 110 132
f 1 132 157
f 1 157 186
f 1 186 185
f 1 185 231
f 1 231 230
f 1 230 272
f 1 272 318
f 1 318 317
f 1 317 316
f 1 316 362
f 1 362 415
f 1 415 414
f 1 414 413
f 1 413 357
f 1 357 412
f 1 412 471
f 1 471 522
f 1 522 575
f 1 575 574
f 1 574 629
f 1 629 630
f 1 630 680
f 1 680 729
f 1 729 789
f 1 789 852
f 1 852 851
f 1 851 907
f 1 907 910
f 1 910 909
f 1 909 954
f 1 954 956
f 1 956 955
f 1 955 916
f 1 916 915
f 1 915 861
f 1 861 860
f 1 860 790
f 1 790 730
f 1 730 682
f 1 682 681
f 1 681 633
f 1 633 632
f 1 632 631
f 1 631 577
f 1 577 523
f 1 523 472
f 1 472 417
f 1 417 416
f 1 416 363
f 1 363 319
f 1 319 274
f 1 274 273
f 1 273 233
f 1 233 190
f 1 190 216
f 1 216 174
f 1 174 148
f 1 148 121
f 1 121 99
f 1 99 82
f 1 82 66
f 1 66 50
f 1 50 36
f 1 36 24
f 1 24 16
f 1 16 10
f 1 10 4
f 1 4 2
f 2 4 6
f 2 6 7
f 2 7 5
f 3 5 7
f 3 7 12
f 3 12 18
f 3 18 29
f 3 29 40
f 3 40 53
f 3 53 70
f 3 70 69
f 3 69 85
f 3 85 103
f 3 103 123
f 3 123 147
f 3 147 146
f 3 146 145
f 3 145 173
f 3 173 172
f 3 172 207
f 3 207 215
f 3 215 254
f 3 254 290
f 3 290 335
f 3 335 380
f 3 380 387
f 3 387 445
f 3 445 444
f 3 444 501
f 3 501 552
f 3 552 603
f 3 603 604
f 3 604 605
f 3 605 557
f 3 557 556
f 3 556 553
f 3 553 503
f 3 503 502
f 3 502 447
f 3 447 446
f 3 446 388
f 3 388 341
f 3 341 299
f 3 299 298
f 3 298 297
f 3 297 257
f 3 257 255
f 3 255 217
f 3 217 175
f 3 175 149
f 3 149 124
f 3 124 104
f 3 104 86
f 3 86 72
f 3 72 71
f 3 71 54
f 3 54 41
f 3 41 30
f 3 30 19
f 3 19 13
f 3 13 8
f 4 9 6
f 4 10 15
f 4 15 9
f 6 9 11
f 6 11 12
f 6 12 7
f 8 13 14
f 9 15 11
f 10 16 15
f 11 15 17
f 11 17 12
f 12 17 18
f 13 19 14
f 14 19 20
f 14 20 21
f 15 16 22
f 15 22 23
f 15 23 17
f 16 24 22
f 17 23 25
f 17 25 26
f 17 26 27
f 17 27 28
f 17 28 18
f 18 28 27
f 18 27 29
f 19 30 31
f 19 31 20
f 20 31 32
f 20 32 21
f 21 32 33
f 22 25 23
f 22 24 34
f 22 34 35
f 22 35 25
f 24 36 34
f 25 35 37
f 25 37 26
f 26 37 38
f 26 38 27
f 27 38 39
f 27 39 40
f 27 40 29
f 30 41 42
f 30 42 31
f 31 42 43
f 31 43 44
f 31 44 32
f 32 44 33
f 33 44 45
f 33 45 46
f 34 36 47
f 34 47 35
f 35 47 48
f 35 48 37
f 36 49 47
f 36 50 49
f 37 48 51
f 37 51 52
f 37 52 38
f 38 52 39
f 39 52 53
f 39 53 40
f 41 54 55
f 41 55 42
f 42 55 43
f 43 55 56
f 43 56 57
f 43 57 58
f 43 58 45
f 43 45 44
f 45 58 59
f 45 59 60
f 45 60 46
f 47 61 48
f 47 49 62
f 47 62 61
f 48 61 63
f 48 63 64
f 48 64 51
f 49 50 65
f 49 65 62
f 50 66 65
f 51 64 67
f 51 67 68
f 51 68 52
f 52 68 69
f 52 69 70
f 52 70 53
f 54 71 56
f 54 56 55
f 56 72 57
f 56 71 72
f 57 72 73
f 57 73 74
f 57 74 58
f 58 74 75
f 58 75 59
f 59 75 76
f 61 62 77
f 61 77 63
f 62 65 78
f 62 78 77
f 63 77 79
f 63 79 80
f 63 80 64
f 64 81 67
f 64 80 81
f 65 66 82
f 65 82 78
f 67 81 83
f 67 83 84
f 67 84 68
f 68 84 85
f 68 85 69
f 72 86 73
f 73 86 87
f 73 87 88
f 73 88 74
f 74 88 89
f 74 89 75
f 75 89 90
f 75 90 91
f 75 91 76
f 77 78 92
f 77 92 93
f 77 93 79
f 78 82 94
f 78 94 95
f 78 95 96
f 78 96 92
f 79 93 97
f 79 97 80
f 80 97 98
f 80 98 83
f 80 83 81
f 82 99 94
f 83 98 100
f 83 100 101
f 83 101 102
f 83 102 84
f 84 103 85
f 84 102 101
f 84 101 103
f 86 104 106
f 86 106 105
f 86 105 87
f 87 105 106
f 87 106 107
f 87 107 88
f 88 107 108
f 88 108 89
f 89 108 109
f 89 109 90
f 90 109 110
f 90 110 111
f 90 111 91
f 92 96 112
f 92 112 93
f 93 112 113
f 93 113 97
f 94 99 95
f 95 99 114
f 95 114 115
f 95 115 96
f 96 115 116
f 96 116 112
f 97 113 117
f 97 117 118
f 97 118 119
f 97 119 120
f 97 120 98
f 98 120 100
f 99 121 137
f 99 137 114
f 100 120 101
f 101 120 119
f 101 119 122
f 101 122 123
f 101 123 103
f 104 124 125
f 104 125 106
f 106 125 107
f 107 125 126
f 107 126 127
f 107 127 128
f 107 128 108
f 108 128 129
f 108 129 109
f 109 129 130
f 109 130 131
f 109 131 110
f 110 131 132
f 112 133 113
f 112 116 134
f 112 134 135
f 112 135 133
f 113 133 136
f 113 136 117
f 114 137 115
f 115 137 138
f 115 138 139
f 115 139 116
f 116 139 134
f 117 140 141
f 117 141 142
f 117 142 118
f 117 136 143
f 117 143 140
f 118 142 119
f 119 142 144
f 119 144 145
f 119 145 146
f 119 146 147
f 119 147 122
f 121 148 137
f 122 147 123
f 124 149 150
f 124 150 125
f 125 150 127
f 125 127 126
f 127 150 151
f 127 151 152
f 127 152 128
f 128 152 153
f 128 153 129
f 129 153 154
f 129 154 130
f 130 154 155
f 130 155 156
f 130 156 131
f 131 156 132
f 132 156 157
f 133 135 158
f 133 158 136
f 134 159 160
f 134 160 161
f 134 161 162
f 134 162 135
f 134 139 159
f 135 162 158
f 136 158 163
f 136 163 143
f 137 148 138
f 138 148 164
f 138 164 139
f 139 164 165
f 139 165 159
f 140 166 141
f 140 143 167
f 140 167 168
f 140 168 169
f 140 169 166
f 141 166 170
f 141 170 171
f 141 171 144
f 141 144 142
f 143 163 167
f 144 172 173
f 144 173 145
f 144 171 170
f 144 170 172
f 148 174 164
f 149 175 150
f 150 175 176
f 150 176 177
f 150 177 151
f 151 177 152
f 152 177 178
f 152 178 179
f 152 179 180
f 152 180 153
f 153 180 154
f 154 180 181
f 154 181 182
f 154 182 155
f 155 182 183
f 155 183 184
f 155 184 185
f 155 185 156
f 156 185 186
f 156 186 157
f 158 162 187
f 158 187 163
f 159 165 188
f 159 188 160
f 160 189 190
f 160 190 191
f 160 191 192
f 160 192 193
f 160 193 194
f 160 194 161
f 160 188 189
f 161 194 162
f 162 194 187
f 163 187 167
f 164 174 195
f 164 195 165
f 165 195 196
f 165 196 188
f 166 169 197
f 166 197 198
f 166 198 170
f 167 187 199
f 167 199 200
f 167 200 201
f 167 201 202
f 167 202 203
f 167 203 204
f 167 204 205
f 167 205 206
f 167 206 168
f 168 206 197
f 168 197 169
f 170 207 172
f 170 198 197
f 170 197 208
f 170 208 209
f 170 209 210
f 170 210 211
f 170 211 212
f 170 212 213
f 170 213 214
f 170 214 215
f 170 215 207
f 174 216 195
f 175 217 218
f 175 218 176
f 176 218 177
f 177 218 219
f 177 219 178
f 178 219 220
f 178 220 221
f 178 221 179
f 179 221 222
f 179 222 223
f 179 223 224
f 179 224 181
f 179 181 180
f 181 224 225
f 181 225 226
f 181 226 182
f 182 226 183
f 183 226 227
f 183 227 228
f 183 228 184
f 184 228 229
f 184 229 230
f 184 230 231
f 184 231 185
f 187 194 232
f 187 232 199
f 188 196 195
f 188 195 216
f 188 216 189
f 189 216 190
f 190 233 234
f 190 234 235
f 190 235 191
f 191 235 236
f 191 236 237
f 191 237 192
f 192 238 193
f 192 237 239
f 192 239 238
f 193 238 240
f 193 240 232
f 193 232 194
f 197 206 205
f 197 205 209
f 197 209 208
f 199 232 200
f 200 241 242
f 200 242 243
f 200 243 244
f 200 244 203
f 200 203 202
f 200 202 201
f 200 232 241
f 203 245 246
f 203 246 204
f 203 244 243
f 203 243 245
f 204 246 205
f 205 246 210
f 205 210 209
f 210 212 211
f 210 246 247
f 210 247 212
f 212 248 249
f 212 249 213
f 212 247 246
f 212 246 250
f 212 250 251
f 212 251 252
f 212 252 248
f 213 249 215
f 213 215 214
f 215 249 253
f 215 253 254
f 217 255 256
f 217 256 218
f 218 256 221
f 218 221 220
f 218 220 219
f 221 257 258
f 221 258 259
f 221 259 260
f 221 260 261
f 221 261 222
f 221 256 255
f 221 255 257
f 222 261 223
f 223 261 262
f 223 262 263
f 223 263 264
f 223 264 265
f 223 265 224
f 224 265 225
f 225 265 266
f 225 266 267
f 225 267 226
f 226 267 227
f 227 267 268
f 227 268 269
f 227 269 228
f 228 269 270
f 228 270 271
f 228 271 229
f 229 271 272
f 229 272 230
f 232 240 241
f 233 273 234
f 234 237 235
f 234 273 274
f 234 274 275
f 234 275 276
f 234 276 237
f 235 237 236
f 237 276 277
f 237 277 239
f 238 239 278
f 238 278 279
f 238 279 240
f 239 277 280
f 239 280 278
f 240 279 241
f 241 279 281
f 241 281 242
f 242 281 282
f 242 282 243
f 243 282 283
f 243 283 284
f 243 284 285
f 243 285 286
f 243 286 245
f 245 286 246
f 246 287 250
f 246 286 287
f 248 254 249
f 248 252 288
f 248 288 289
f 248 289 290
f 248 290 254
f 249 254 253
f 250 287 291
f 250 291 292
f 250 292 251
f 251 288 252
f 251 292 293
f 251 293 294
f 251 294 295
f 251 295 296
f 251 296 288
f 257 297 258
f 258 298 299
f 258 299 300
f 258 300 301
f 258 301 259
f 258 297 298
f 259 301 302
f 259 302 261
f 259 261 260
f 261 303 262
f 261 302 303
f 262 303 304
f 262 304 263
f 263 304 305
f 263 305 264
f 264 305 306
f 264 306 307
f 264 307 308
f 264 308 265
f 265 308 266
f 266 308 309
f 266 309 310
f 266 310 267
f 267 310 268
f 268 310 311
f 268 311 312
f 268 312 313
f 268 313 269
f 269 313 314
f 269 314 315
f 269 315 270
f 270 315 316
f 270 316 317
f 270 317 271
f 271 317 318
f 271 318 272
f 274 319 275
f 275 320 277
f 275 277 276
f 275 319 321
f 275 321 322
f 275 322 323
f 275 323 320
f 277 320 324
f 277 324 280
f 278 280 325
f 278 325 326
f 278 326 279
f 279 326 281
f 280 324 327
f 280 327 325
f 281 326 328
f 281 328 282
f 282 328 329
f 282 329 283
f 283 329 330
f 283 330 331
f 283 331 284
f 284 331 285
f 285 332 291
f 285 291 286
f 285 331 333
f 285 333 334
f 285 334 332
f 286 291 287
f 288 296 289
f 289 296 335
f 289 335 290
f 291 332 293
f 291 293 292
f 293 332 336
f 293 336 295
f 293 295 294
f 295 337 296
f 295 336 338
f 295 338 339
f 295 339 337
f 296 337 340
f 296 340 335
f 299 341 342
f 299 342 300
f 300 343 301
f 300 342 343
f 301 343 303
f 301 303 302
f 303 343 344
f 303 344 304
f 304 344 345
f 304 345 305
f 305 345 306
f 306 345 346
f 306 346 307
f 307 347 348
f 307 348 349
f 307 349 350
f 307 350 351
f 307 351 309
f 307 309 308
f 307 346 347
f 309 351 352
f 309 352 353
f 309 353 310
f 310 353 311
f 311 353 354
f 311 354 312
f 312 354 355
f 312 355 356
f 312 356 357
f 312 357 358
f 312 358 359
f 312 359 313
f 313 359 314
f 314 359 360
f 314 360 361
f 314 361 315
f 315 361 362
f 315 362 316
f 319 363 321
f 320 323 324
f 321 363 364
f 321 364 323
f 321 323 322
f 323 364 365
f 323 365 366
f 323 366 367
f 323 367 368
f 323 368 369
f 323 369 324
f 324 369 327
f 325 327 370
f 325 370 371
f 325 371 326
f 326 371 328
f 327 369 372
f 327 372 370
f 328 371 373
f 328 373 374
f 328 374 329
f 329 374 375
f 329 375 330
f 330 333 331
f 330 375 376
f 330 376 333
f 332 334 377
f 332 377 378
f 332 378 336
f 333 376 379
f 333 379 378
f 333 378 334
f 334 378 377
f 335 340 380
f 336 381 338
f 336 378 382
f 336 382 381
f 337 339 340
f 338 381 383
f 338 383 384
f 338 384 385
f 338 385 386
f 338 386 339
f 339 386 340
f 340 387 380
f 340 386 387
f 341 388 389
f 341 389 342
f 342 344 343
f 342 389 390
f 342 390 391
f 342 391 392
f 342 392 393
f 342 393 344
f 344 393 345
f 345 393 347
f 345 347 346
f 347 394 348
f 347 393 392
f 347 392 395
f 347 395 394
f 348 396 350
f 348 350 397
f 348 397 349
f 348 394 395
f 348 395 398
f 348 398 399
f 348 399 400
f 348 400 401
f 348 401 402
f 348 402 403
f 348 403 396
f 349 397 350
f 350 396 403
f 350 403 404
f 350 404 405
f 350 405 352
f 350 352 351
f 352 405 406
f 352 406 353
f 353 406 354
f 354 406 407
f 354 407 355
f 355 407 408
f 355 408 409
f 355 409 356
f 356 409 410
f 356 410 411
f 356 411 412
f 356 412 357
f 357 413 358
f 358 413 414
f 358 414 360
f 358 360 359
f 360 414 361
f 361 415 362
f 361 414 415
f 363 416 364
f 364 416 417
f 364 417 418
f 364 418 365
f 365 418 366
f 366 418 419
f 366 419 367
f 367 419 420
f 367 420 368
f 368 420 421
f 368 421 422
f 368 422 423
f 368 423 369
f 369 423 372
f 370 372 424
f 370 424 425
f 370 425 371
f 371 425 426
f 371 426 374
f 371 374 373
f 372 423 424
f 374 427 375
f 374 426 428
f 374 428 429
f 374 429 430
f 374 430 431
f 374 431 427
f 375 427 432
f 375 432 376
f 376 432 433
f 376 433 379
f 378 379 434
f 378 434 382
f 379 433 435
f 379 435 436
f 379 436 437
f 379 437 434
f 381 382 383
f 382 384 383
f 382 434 438
f 382 438 384
f 384 438 439
f 384 439 440
f 384 440 441
f 384 441 442
f 384 442 385
f 385 442 386
f 386 442 443
f 386 443 444
f 386 444 445
f 386 445 387
f 388 446 389
f 389 446 447
f 389 447 448
f 389 448 391
f 389 391 390
f 391 448 449
f 391 449 450
f 391 450 451
f 391 451 392
f 392 451 395
f 395 451 450
f 395 450 398
f 398 450 399
f 399 450 400
f 400 450 452
f 400 452 453
f 400 453 454
f 400 454 455
f 400 455 401
f 401 456 457
f 401 457 458
f 401 458 402
f 401 455 456
f 402 458 459
f 402 459 403
f 403 460 461
f 403 461 462
f 403 462 463
f 403 463 464
f 403 464 404
f 403 459 460
f 404 464 405
f 405 464 465
f 405 465 406
f 406 465 407
f 407 465 466
f 407 466 408
f 408 466 467
f 408 467 468
f 408 468 409
f 409 468 469
f 409 469 410
f 410 469 470
f 410 470 411
f 411 470 412
f 412 470 471
f 417 472 473
f 417 473 418
f 418 473 419
f 419 473 420
f 420 473 474
f 420 474 475
f 420 475 476
f 420 476 421
f 421 476 477
f 421 477 478
f 421 478 422
f 422 478 479
f 422 479 480
f 422 480 481
f 422 481 482
f 422 482 483
f 422 483 423
f 423 483 424
f 424 484 425
f 424 483 484
f 425 484 426
f 426 484 485
f 426 485 428
f 427 436 433
f 427 433 432
f 427 431 486
f 427 486 436
f 428 485 487
f 428 487 488
f 428 488 429
f 429 488 489
f 429 489 430
f 430 489 431
f 431 489 486
f 433 436 435
f 434 437 436
f 434 436 490
f 434 490 438
f 436 486 491
f 436 491 492
f 436 492 545
f 436 545 490
f 438 490 493
f 438 493 439
f 439 494 440
f 439 493 494
f 440 494 495
f 440 495 496
f 440 496 497
f 440 497 498
f 440 498 499
f 440 499 441
f 441 500 442
f 441 499 500
f 442 500 498
f 442 498 549
f 442 549 600
f 442 600 658
f 442 658 705
f 442 705 758
f 442 758 829
f 442 829 828
f 442 828 887
f 442 887 826
f 442 826 890
f 442 890 938
f 442 938 983
f 442 983 985
f 442 985 984
f 442 984 939
f 442 939 894
f 442 894 893
f 442 893 892
f 442 892 891
f 442 891 831
f 442 831 830
f 442 830 759
f 442 759 706
f 442 706 660
f 442 660 601
f 442 601 550
f 442 550 501
f 442 501 444
f 442 444 443
f 447 502 448
f 448 502 503
f 448 503 504
f 448 504 449
f 449 504 450
f 450 504 452
f 452 504 453
f 453 504 505
f 453 505 506
f 453 506 454
f 454 506 455
f 455 506 456
f 456 506 507
f 456 507 508
f 456 508 458
f 456 458 457
f 458 508 509
f 458 509 510
f 458 510 460
f 458 460 459
f 460 510 511
f 460 511 512
f 460 512 462
f 460 462 461
f 462 512 513
f 462 513 514
f 462 514 463
f 463 514 515
f 463 515 464
f 464 515 516
f 464 516 465
f 465 516 466
f 466 516 517
f 466 517 467
f 467 517 518
f 467 518 519
f 467 519 468
f 468 519 520
f 468 520 521
f 468 521 469
f 469 521 470
f 470 521 522
f 470 522 471
f 472 523 473
f 473 523 524
f 473 524 525
f 473 525 474
f 474 525 526
f 474 526 475
f 475 526 527
f 475 527 476
f 476 527 526
f 476 526 477
f 477 526 478
f 478 528 529
f 478 529 530
f 478 530 531
f 478 531 532
f 478 532 533
f 478 533 534
f 478 534 480
f 478 480 479
f 478 526 525
f 478 525 524
f 478 524 528
f 480 534 535
f 480 535 536
f 480 536 537
f 480 537 482
f 480 482 481
f 482 485 484
f 482 484 483
f 482 537 538
f 482 538 539
f 482 539 487
f 482 487 485
f 486 489 491
f 487 539 540
f 487 540 541
f 487 541 488
f 488 541 489
f 489 542 543
f 489 543 491
f 489 541 544
f 489 544 542
f 490 545 493
f 491 543 545
f 491 545 492
f 493 545 546
f 493 546 495
f 493 495 494
f 495 547 498
f 495 498 497
f 495 497 496
f 495 546 548
f 495 548 547
f 498 500 499
f 498 547 549
f 501 550 551
f 501 551 552
f 503 553 504
f 504 553 505
f 505 553 506
f 506 554 555
f 506 555 507
f 506 553 556
f 506 556 557
f 506 557 554
f 507 555 558
f 507 558 559
f 507 559 509
f 507 509 508
f 509 559 560
f 509 560 561
f 509 561 562
f 509 562 563
f 509 563 510
f 510 563 511
f 511 563 512
f 512 563 562
f 512 562 564
f 512 564 513
f 513 564 565
f 513 565 566
f 513 566 514
f 514 566 567
f 514 567 568
f 514 568 515
f 515 568 569
f 515 569 516
f 516 569 517
f 517 570 518
f 517 569 570
f 518 570 571
f 518 571 572
f 518 572 519
f 519 572 573
f 519 573 520
f 520 573 521
f 521 574 575
f 521 575 522
f 521 573 576
f 521 576 574
f 523 577 524
f 524 577 578
f 524 578 528
f 528 578 579
f 528 579 580
f 528 580 529
f 529 580 531
f 529 531 530
f 531 580 581
f 531 581 582
f 531 582 583
f 531 583 532
f 532 583 584
f 532 584 533
f 533 584 585
f 533 585 534
f 534 585 586
f 534 586 535
f 535 586 587
f 535 587 588
f 535 588 536
f 536 588 537
f 537 588 538
f 538 588 589
f 538 589 540
f 538 540 539
f 540 589 590
f 540 590 591
f 540 591 541
f 541 591 592
f 541 592 593
f 541 593 594
f 541 594 544
f 542 544 595
f 542 595 596
f 542 596 543
f 543 597 545
f 543 596 597
f 544 594 595
f 545 597 546
f 546 597 598
f 546 598 548
f 547 548 598
f 547 598 549
f 549 598 599
f 549 599 600
f 550 601 602
f 550 602 551
f 551 558 554
f 551 554 552
f 551 602 559
f 551 559 558
f 552 554 603
f 554 604 603
f 554 558 555
f 554 557 605
f 554 605 604
f 559 602 606
f 559 606 607
f 559 607 561
f 559 561 560
f 561 606 608
f 561 608 609
f 561 609 562
f 561 607 606
f 562 609 564
f 564 609 610
f 564 610 611
f 564 611 612
f 564 612 565
f 565 612 613
f 565 613 614
f 565 614 566
f 566 615 567
f 566 614 615
f 567 615 616
f 567 616 617
f 567 617 618
f 567 618 619
f 567 619 620
f 567 620 568
f 568 620 569
f 569 620 621
f 569 621 570
f 570 621 622
f 570 622 571
f 571 622 623
f 571 623 572
f 572 623 624
f 572 624 573
f 573 624 625
f 573 625 626
f 573 626 627
f 573 627 628
f 573 628 576
f 574 576 629
f 576 628 630
f 576 630 629
f 577 631 578
f 578 631 632
f 578 632 633
f 578 633 634
f 578 634 579
f 579 634 635
f 579 635 581
f 579 581 580
f 581 635 684
f 581 684 636
f 581 636 582
f 582 636 637
f 582 637 638
f 582 638 583
f 583 638 584
f 584 638 639
f 584 639 640
f 584 640 585
f 585 640 641
f 585 641 586
f 586 641 642
f 586 642 587
f 587 642 643
f 587 643 644
f 587 644 588
f 588 645 589
f 588 644 646
f 588 646 645
f 589 645 590
f 590 645 647
f 590 647 591
f 591 647 592
f 592 647 648
f 592 648 649
f 592 649 593
f 593 649 594
f 594 649 650
f 594 650 595
f 595 650 651
f 595 651 596
f 596 651 597
f 597 651 652
f 597 652 598
f 598 600 599
f 598 652 653
f 598 653 654
f 598 654 655
f 598 655 656
f 598 656 657
f 598 657 658
f 598 658 659
f 598 659 600
f 600 659 658
f 601 660 661
f 601 661 606
f 601 606 602
f 606 661 662
f 606 662 663
f 606 663 608
f 608 663 664
f 608 664 665
f 608 665 611
f 608 611 610
f 608 610 609
f 611 665 666
f 611 666 667
f 611 667 668
f 611 668 615
f 611 615 612
f 612 615 613
f 613 615 614
f 615 668 616
f 616 668 669
f 616 669 617
f 617 669 618
f 618 669 670
f 618 670 619
f 619 670 671
f 619 671 620
f 620 671 672
f 620 672 621
f 621 672 622
f 622 672 673
f 622 673 674
f 622 674 623
f 623 674 673
f 623 673 675
f 623 675 624
f 624 675 676
f 624 676 677
f 624 677 625
f 625 677 678
f 625 678 626
f 626 679 627
f 626 678 679
f 627 679 628
f 628 679 680
f 628 680 630
f 633 681 634
f 634 681 682
f 634 682 683
f 634 683 635
f 635 683 684
f 636 684 685
f 636 685 637
f 637 685 686
f 637 686 638
f 638 686 687
f 638 687 639
f 639 687 640
f 640 687 688
f 640 688 689
f 640 689 690
f 640 690 641
f 641 690 691
f 641 691 692
f 641 692 693
f 641 693 642
f 642 693 694
f 642 694 643
f 643 694 695
f 643 695 696
f 643 696 646
f 643 646 644
f 645 646 697
f 645 697 698
f 645 698 699
f 645 699 648
f 645 648 647
f 646 696 697
f 648 699 649
f 649 699 650
f 650 699 700
f 650 700 651
f 651 700 652
f 652 700 653
f 653 700 701
f 653 701 654
f 654 701 702
f 654 702 703
f 654 703 704
f 654 704 705
f 654 705 657
f 654 657 656
f 654 656 655
f 657 705 658
f 660 706 661
f 661 706 707
f 661 707 662
f 662 707 708
f 662 708 709
f 662 709 663
f 663 709 664
f 664 710 666
f 664 666 665
f 664 709 708
f 664 708 711
f 664 711 710
f 666 710 712
f 666 712 713
f 666 713 667
f 667 713 669
f 667 669 668
f 669 713 714
f 669 714 715
f 669 715 716
f 669 716 717
f 669 717 670
f 670 718 671
f 670 717 718
f 671 719 673
f 671 673 672
f 671 718 719
f 673 719 720
f 673 720 721
f 673 721 675
f 675 721 722
f 675 722 723
f 675 723 724
f 675 724 676
f 676 725 677
f 676 724 726
f 676 726 725
f 677 725 727
f 677 727 728
f 677 728 678
f 678 728 679
f 679 729 680
f 679 728 729
f 682 730 731
f 682 731 683
f 683 731 684
f 684 731 732
f 684 732 733
f 684 733 685
f 685 733 686
f 686 733 734
f 686 734 687
f 687 734 735
f 687 735 688
f 688 735 736
f 688 736 737
f 688 737 689
f 689 691 690
f 689 737 738
f 689 738 691
f 691 739 740
f 691 740 741
f 691 741 692
f 691 738 742
f 691 742 739
f 692 741 693
f 693 741 694
f 694 741 743
f 694 743 695
f 695 743 744
f 695 744 745
f 695 745 696
f 696 745 746
f 696 746 747
f 696 747 697
f 697 747 698
f 698 748 699
f 698 747 749
f 698 749 750
f 698 750 748
f 699 751 701
f 699 701 700
f 699 748 752
f 699 752 751
f 701 751 702
f 702 751 703
f 703 751 753
f 703 753 754
f 703 754 755
f 703 755 756
f 703 756 757
f 703 757 758
f 703 758 704
f 704 758 705
f 706 759 708
f 706 708 707
f 708 759 760
f 708 760 761
f 708 761 711
f 710 711 762
f 710 762 712
f 711 761 763
f 711 763 712
f 711 712 762
f 712 763 764
f 712 764 765
f 712 765 713
f 713 765 766
f 713 766 714
f 714 766 767
f 714 767 715
f 715 767 768
f 715 768 716
f 716 769 717
f 716 768 770
f 716 770 771
f 716 771 769
f 717 769 718
f 718 769 719
f 719 769 772
f 719 772 720
f 720 772 773
f 720 773 722
f 720 722 721
f 722 773 774
f 722 774 775
f 722 775 724
f 722 724 723
f 724 776 777
f 724 777 778
f 724 778 779
f 724 779 780
f 724 780 781
f 724 781 726
f 724 775 782
f 724 782 783
f 724 783 784
f 724 784 785
f 724 785 786
f 724 786 787
f 724 787 776
f 725 726 781
f 725 781 727
f 727 781 788
f 727 788 780
f 727 780 728
f 728 780 779
f 728 779 852
f 728 852 789
f 728 789 729
f 730 790 731
f 731 790 791
f 731 791 732
f 732 791 792
f 732 792 733
f 733 792 793
f 733 793 734
f 734 793 794
f 734 794 795
f 734 795 735
f 735 795 796
f 735 796 736
f 736 796 797
f 736 797 737
f 737 797 738
f 738 798 742
f 738 797 799
f 738 799 800
f 738 800 798
f 739 801 802
f 739 802 740
f 739 742 803
f 739 803 801
f 740 802 804
f 740 804 805
f 740 805 743
f 740 743 741
f 742 806 803
f 742 798 807
f 742 807 808
f 742 808 809
f 742 809 810
f 742 810 806
f 743 805 744
f 744 805 804
f 744 804 811
f 744 811 812
f 744 812 813
f 744 813 814
f 744 814 746
f 744 746 745
f 746 814 750
f 746 750 749
f 746 749 747
f 748 750 815
f 748 815 816
f 748 816 817
f 748 817 818
f 748 818 752
f 750 814 819
f 750 819 815
f 751 752 820
f 751 820 753
f 752 818 821
f 752 821 820
f 753 820 822
f 753 822 754
f 754 822 823
f 754 823 824
f 754 824 825
f 754 825 826
f 754 826 755
f 755 826 756
f 756 827 757
f 756 826 827
f 757 827 828
f 757 828 829
f 757 829 758
f 759 830 760
f 760 830 831
f 760 831 763
f 760 763 761
f 763 832 833
f 763 833 834
f 763 834 835
f 763 835 836
f 763 836 764
f 763 831 832
f 764 836 837
f 764 837 838
f 764 838 839
f 764 839 765
f 765 839 840
f 765 840 841
f 765 841 766
f 766 841 767
f 767 841 770
f 767 770 768
f 769 771 842
f 769 842 843
f 769 843 772
f 770 844 845
f 770 845 846
f 770 846 771
f 770 841 844
f 771 846 842
f 772 843 847
f 772 847 773
f 773 847 774
f 774 847 848
f 774 848 849
f 774 849 775
f 775 849 783
f 775 783 782
f 776 787 777
f 777 787 850
f 777 850 778
f 778 851 852
f 778 852 779
f 778 850 853
f 778 853 851
f 780 788 781
f 783 849 854
f 783 854 855
f 783 855 784
f 784 856 785
f 784 855 857
f 784 857 856
f 785 856 786
f 786 856 858
f 786 858 859
f 786 859 787
f 787 859 850
f 790 860 791
f 791 860 861
f 791 861 915
f 791 915 862
f 791 862 863
f 791 863 792
f 792 863 793
f 793 864 865
f 793 865 794
f 793 863 918
f 793 918 864
f 794 865 866
f 794 866 795
f 795 867 796
f 795 866 868
f 795 868 869
f 795 869 867
f 796 867 797
f 797 867 799
f 798 800 807
f 799 869 800
f 799 867 869
f 800 870 855
f 800 855 807
f 800 869 870
f 801 871 872
f 801 872 802
f 801 803 871
f 802 872 811
f 802 811 804
f 803 873 871
f 803 806 874
f 803 874 875
f 803 875 873
f 806 810 874
f 807 855 854
f 807 854 808
f 808 854 876
f 808 876 877
f 808 877 809
f 809 877 874
f 809 874 810
f 811 872 878
f 811 878 879
f 811 879 812
f 812 879 880
f 812 880 881
f 812 881 882
f 812 882 813
f 813 882 883
f 813 883 818
f 813 818 816
f 813 816 819
f 813 819 814
f 815 819 816
f 816 818 817
f 818 884 822
f 818 822 821
f 818 883 884
f 820 821 822
f 822 884 885
f 822 885 823
f 823 885 824
f 824 885 886
f 824 886 825
f 825 886 826
f 826 887 827
f 826 886 888
f 826 888 889
f 826 889 890
f 827 887 828
f 831 891 832
f 832 892 833
f 832 891 892
f 833 892 893
f 833 893 894
f 833 894 895
f 833 895 834
f 834 895 896
f 834 896 835
f 835 896 897
f 835 897 836
f 836 897 837
f 837 897 838
f 838 897 839
f 839 897 840
f 840 897 844
f 840 844 841
f 842 846 898
f 842 898 899
f 842 899 843
f 843 899 900
f 843 900 847
f 844 897 846
f 844 846 845
f 846 897 901
f 846 901 902
f 846 902 903
f 846 903 904
f 846 904 898
f 847 900 905
f 847 905 848
f 848 905 877
f 848 877 876
f 848 876 849
f 849 876 854
f 850 859 906
f 850 906 853
f 851 853 907
f 853 906 908
f 853 908 909
f 853 909 910
f 853 910 907
f 855 870 857
f 856 857 911
f 856 911 858
f 857 870 866
f 857 866 911
f 858 911 912
f 858 912 859
f 859 912 913
f 859 913 914
f 859 914 906
f 862 915 916
f 862 916 917
f 862 917 918
f 862 918 863
f 864 918 914
f 864 914 913
f 864 913 865
f 865 913 912
f 865 912 866
f 866 912 911
f 866 870 868
f 868 870 869
f 871 919 878
f 871 878 872
f 871 873 919
f 873 920 919
f 873 875 921
f 873 921 920
f 874 922 923
f 874 923 921
f 874 921 875
f 874 877 924
f 874 924 922
f 877 905 925
f 877 925 924
f 878 919 879
f 879 919 880
f 880 926 881
f 880 919 920
f 880 920 926
f 881 926 927
f 881 927 882
f 882 927 928
f 882 928 883
f 883 928 929
f 883 929 930
f 883 930 931
f 883 931 932
f 883 932 886
f 883 886 884
f 884 886 885
f 886 932 933
f 886 933 934
f 886 934 888
f 888 934 889
f 889 935 936
f 889 936 890
f 889 934 935
f 890 936 937
f 890 937 938
f 894 939 895
f 895 939 896
f 896 940 941
f 896 941 942
f 896 942 943
f 896 943 897
f 896 939 940
f 897 943 944
f 897 944 901
f 898 904 945
f 898 945 946
f 898 946 899
f 899 946 925
f 899 925 905
f 899 905 900
f 901 944 902
f 902 944 947
f 902 947 948
f 902 948 949
f 902 949 903
f 903 949 950
f 903 950 951
f 903 951 904
f 904 951 952
f 904 952 953
f 904 953 925
f 904 925 945
f 906 914 908
f 908 914 917
f 908 917 954
f 908 954 909
f 914 918 917
f 916 955 917
f 917 955 956
f 917 956 954
f 920 957 958
f 920 958 926
f 920 921 957
f 921 923 959
f 921 959 957
f 922 924 960
f 922 960 951
f 922 951 961
f 922 961 923
f 923 962 959
f 923 961 963
f 923 963 964
f 923 964 965
f 923 965 962
f 924 925 960
f 925 946 945
f 925 953 960
f 926 966 927
f 926 958 966
f 927 967 931
f 927 931 930
f 927 930 929
f 927 929 928
f 927 966 967
f 931 967 966
f 931 966 932
f 932 966 968
f 932 968 969
f 932 969 933
f 933 969 970
f 933 970 934
f 934 970 935
f 935 971 972
f 935 972 973
f 935 973 936
f 935 970 971
f 936 973 974
f 936 974 962
f 936 962 975
f 936 975 976
f 936 976 977
f 936 977 937
f 937 977 978
f 937 978 979
f 937 979 980
f 937 980 938
f 938 980 981
f 938 981 982
f 938 982 983
f 939 984 940
f 940 984 985
f 940 985 941
f 941 944 943
f 941 943 942
f 941 985 986
f 941 986 982
f 941 982 981
f 941 981 980
f 941 980 979
f 941 979 987
f 941 987 944
f 944 987 988
f 944 988 989
f 944 989 947
f 947 989 990
f 947 990 948
f 948 990 991
f 948 991 964
f 948 964 949
f 949 964 963
f 949 963 950
f 950 963 961
f 950 961 951
f 951 960 952
f 952 960 953
f 957 959 974
f 957 974 958
f 958 992 966
f 958 974 992
f 959 962 974
f 962 965 991
f 962 991 975
f 964 991 965
f 966 992 993
f 966 993 968
f 968 993 969
f 969 993 971
f 969 971 970
f 971 993 972
f 972 993 974
f 972 974 973
f 974 993 992
f 975 991 994
f 975 994 995
f 975 995 976
f 976 995 977
f 977 995 978
f 978 995 979
f 979 995 987
f 982 986 983
f 983 986 985
f 987 995 994
f 987 994 990
f 987 990 988
f 988 990 989
f 990 994 991

