# https://github.com/mikedh/trimesh
v -0.00826462 -0.00007313 -0.00037441
v -0.00862500 -0.00118943 0.00089304
v -0.00856800 -0.00007313 -0.00036477
v -0.00821775 -0.00007313 -0.00037441
v -0.00819241 -0.00097505 0.00064759
v -0.00864654 -0.00007313 -0.00035351
v -0.00862500 -0.00097308 0.00065080
v -0.00819241 -0.00119156 0.00089626
v -0.00862500 -0.00135398 0.00110955
v -0.00905759 -0.00132022 0.00116368
v -0.00905759 -0.00114141 0.00094717
v -0.00905759 -0.00092490 0.00069957
v -0.00905759 -0.00073429 0.00048306
v -0.00812908 -0.00007313 -0.00036798
v -0.00784406 -0.00007313 -0.00031921
v -0.00775983 -0.00034274 0.00000502
v -0.00905759 -0.00051778 0.00024511
v -0.00905759 -0.00007313 -0.00024097
v -0.00775983 -0.00093506 0.00068993
v -0.00500659 -0.00174750 0.00226232
v -0.00819241 -0.00134316 0.00111277
v -0.00862500 -0.00150755 0.00145576
v -0.00925267 -0.00174750 0.00210315
v -0.00905759 -0.00147166 0.00145576
v -0.00930650 -0.00127990 0.00121727
v -0.00952628 -0.00174750 0.00221569
v -0.00935020 -0.00087016 0.00075960
v -0.00938124 -0.00045714 0.00031425
v -0.00775983 -0.00007313 -0.00029724
v -0.00917920 -0.00007313 -0.00018630
v -0.00742921 -0.00007313 -0.00017719
v -0.00732724 -0.00007313 -0.00013968
v -0.00699662 -0.00007313 0.00003396
v -0.00687248 -0.00007313 0.00012024
v -0.00668184 -0.00007313 0.00026012
v -0.00655010 -0.00007313 0.00035873
v -0.00615045 -0.00007313 0.00069475
v -0.00611878 -0.00007313 0.00072530
v -0.00592687 -0.00007313 0.00091662
v -0.00578373 -0.00007313 0.00109723
v -0.00500659 -0.00007313 0.00220980
v -0.00500659 -0.00174750 0.00458768
v -0.00866554 -0.00174750 0.00206564
v -0.00932804 -0.00174750 0.00212512
v -0.00961812 -0.00174750 0.00227357
v -0.00982586 -0.00174750 0.00240916
v -0.00975112 -0.00129563 0.00162082
v -0.00959468 -0.00119385 0.00133196
v -0.00963902 -0.00079181 0.00085392
v -0.00950981 -0.00062448 0.00057899
v -0.00944458 -0.00007313 -0.00006358
v -0.00935337 -0.00007313 -0.00010752
v -0.00962445 -0.00007313 0.00003235
v -0.00500659 -0.00007313 0.00462841
v -0.00556585 -0.00007313 0.00510056
v -0.00560829 -0.00011623 0.00510056
v -0.00625685 -0.00064611 0.00510056
v -0.00637656 -0.00073740 0.00510056
v -0.00659317 -0.00089573 0.00510056
v -0.00677748 -0.00102422 0.00510056
v -0.00689592 -0.00109273 0.00510056
v -0.00738741 -0.00133808 0.00510056
v -0.00775983 -0.00143445 0.00510056
v -0.00819241 -0.00152607 0.00510056
v -0.00844386 -0.00157442 0.00510056
v -0.00863197 -0.00160605 0.00510056
v -0.00896512 -0.00163687 0.00510056
v -0.00905759 -0.00164309 0.00510056
v -0.00949018 -0.00166325 0.00510056
v -0.00949018 -0.00174750 0.00495211
v -0.01009187 -0.00078985 0.00129980
v -0.00995000 -0.00174750 0.00275376
v -0.01055423 -0.00080935 0.00215781
v -0.01049279 -0.00074133 0.00188878
v -0.01027618 -0.00097374 0.00188878
v -0.01019574 -0.00088474 0.00158813
v -0.00980306 -0.00090556 0.00114278
v -0.00984169 -0.00050336 0.00068671
v -0.00967005 -0.00037503 0.00039839
v -0.00991517 -0.00007313 0.00026440
v -0.01147641 -0.00007313 0.00510056
v -0.00992340 -0.00161966 0.00510056
v -0.00971376 -0.00174750 0.00486743
v -0.01023818 -0.00050123 0.00110527
v -0.01012988 -0.00038912 0.00081694
v -0.01005514 -0.00174750 0.00318678
v -0.01046176 -0.00113190 0.00275376
v -0.01060236 -0.00086557 0.00244560
v -0.01073157 -0.00064447 0.00231002
v -0.01067013 -0.00052499 0.00188878
v -0.01060743 -0.00044403 0.00160474
v -0.01036105 -0.00061694 0.00145254
v -0.01009314 -0.00007313 0.00042250
v -0.01147197 -0.00007313 0.00491781
v -0.01143271 -0.00013852 0.00510056
v -0.01033382 -0.00140889 0.00510056
v -0.00992910 -0.00174750 0.00471630
v -0.00980369 -0.00174750 0.00482992
v -0.01052636 -0.00034225 0.00131642
v -0.01048329 -0.00007313 0.00089358
v -0.01024515 -0.00007411 0.00059024
v -0.01014824 -0.00174750 0.00364124
v -0.01064100 -0.00091556 0.00275376
v -0.01100075 -0.00039060 0.00255975
v -0.01096465 -0.00033635 0.00232181
v -0.01090511 -0.00017950 0.00185931
v -0.01094755 -0.00007313 0.00178267
v -0.01085444 -0.00007313 0.00157473
v -0.01080061 -0.00007313 0.00145790
v -0.01071700 -0.00019113 0.00145897
v -0.01065303 -0.00007313 0.00116636
v -0.01063467 -0.00007313 0.00113153
v -0.01024705 -0.00007313 0.00059185
v -0.01145234 -0.00007313 0.00448478
v -0.01133643 -0.00024571 0.00448478
v -0.01134467 -0.00025997 0.00491781
v -0.01134720 -0.00026374 0.00510056
v -0.01042502 -0.00133841 0.00510056
v -0.01008554 -0.00174750 0.00432454
v -0.01001144 -0.00174750 0.00452015
v -0.01012798 -0.00174750 0.00405229
v -0.01055043 -0.00124073 0.00510056
v -0.01074424 -0.00102422 0.00510056
v -0.01083544 -0.00092113 0.00510056
v -0.01096022 -0.00077706 0.00510056
v -0.01095832 -0.00077428 0.00491781
v -0.01095325 -0.00076658 0.00448478
v -0.01094375 -0.00075232 0.00405229
v -0.01092791 -0.00073003 0.00361927
v -0.01089941 -0.00069036 0.00318678
v -0.01068344 -0.00096768 0.00318678
v -0.01088421 -0.00059022 0.00272375
v -0.01102799 -0.00043026 0.00284808
v -0.01124903 -0.00018081 0.00318678
v -0.01113882 -0.00022014 0.00272375
v -0.01123066 -0.00007313 0.00273554
v -0.01114959 -0.00007313 0.00239523
v -0.01110399 -0.00012000 0.00232181
v -0.01107485 -0.00007313 0.00213691
v -0.01103939 -0.00007313 0.00202705
v -0.01101152 -0.00007313 0.00194988
v -0.01141624 -0.00007313 0.00405229
v -0.01132187 -0.00021818 0.00405229
v -0.01110589 -0.00053597 0.00405229
v -0.01112046 -0.00055023 0.00448478
v -0.01112806 -0.00055793 0.00491781
v -0.01122180 -0.00043600 0.00510056
v -0.01113059 -0.00056072 0.00510056
v -0.01108752 -0.00051368 0.00361927
v -0.01105902 -0.00047402 0.00318678
v -0.01133707 -0.00007313 0.00331594
v -0.01131617 -0.00007313 0.00318678
v -0.01127246 -0.00007313 0.00295044
v -0.01113059 -0.00007313 0.00232181
v -0.01136810 -0.00007313 0.00355014
v -0.01132757 -0.00014541 0.00360855
f 1 2 3
f 1 3 6
f 1 6 18
f 1 18 30
f 1 30 52
f 1 52 51
f 1 51 53
f 1 53 80
f 1 80 93
f 1 93 113
f 1 113 100
f 1 100 112
f 1 112 111
f 1 111 109
f 1 109 108
f 1 108 107
f 1 107 141
f 1 141 140
f 1 140 139
f 1 139 154
f 1 154 137
f 1 137 136
f 1 136 153
f 1 153 152
f 1 152 151
f 1 151 155
f 1 155 142
f 1 142 114
f 1 114 94
f 1 94 81
f 1 81 55
f 1 55 54
f 1 54 41
f 1 41 40
f 1 40 39
f 1 39 38
f 1 38 37
f 1 37 36
f 1 36 35
f 1 35 34
f 1 34 33
f 1 33 32
f 1 32 31
f 1 31 29
f 1 29 15
f 1 15 14
f 1 14 4
f 1 4 5
f 1 5 2
f 2 6 7
f 2 7 3
f 2 5 8
f 2 8 9
f 2 9 10
f 2 10 11
f 2 11 12
f 2 12 13
f 2 13 6
f 3 7 6
f 4 14 5
f 5 14 15
f 5 15 16
f 5 16 8
f 6 13 17
f 6 17 18
f 8 16 19
f 8 19 20
f 8 20 21
f 8 21 9
f 9 22 23
f 9 23 24
f 9 24 10
f 9 21 22
f 10 25 11
f 10 24 26
f 10 26 25
f 11 25 27
f 11 27 12
f 12 27 13
f 13 27 28
f 13 28 17
f 15 29 20
f 15 20 16
f 16 20 19
f 17 28 18
f 18 28 30
f 20 29 31
f 20 31 32
f 20 32 33
f 20 33 34
f 20 34 35
f 20 35 36
f 20 36 37
f 20 37 38
f 20 38 39
f 20 39 40
f 20 40 41
f 20 41 54
f 20 54 42
f 20 42 70
f 20 70 83
f 20 83 98
f 20 98 97
f 20 97 120
f 20 120 119
f 20 119 121
f 20 121 102
f 20 102 86
f 20 86 72
f 20 72 46
f 20 46 45
f 20 45 26
f 20 26 44
f 20 44 23
f 20 23 43
f 20 43 22
f 20 22 21
f 22 43 23
f 23 44 24
f 24 44 26
f 25 26 45
f 25 45 46
f 25 46 47
f 25 47 48
f 25 48 49
f 25 49 27
f 27 49 50
f 27 50 28
f 28 51 52
f 28 52 30
f 28 50 53
f 28 53 51
f 42 54 55
f 42 55 56
f 42 56 57
f 42 57 58
f 42 58 59
f 42 59 60
f 42 60 61
f 42 61 62
f 42 62 63
f 42 63 64
f 42 64 65
f 42 65 66
f 42 66 67
f 42 67 68
f 42 68 69
f 42 69 70
f 46 71 47
f 46 72 73
f 46 73 74
f 46 74 75
f 46 75 76
f 46 76 71
f 47 71 77
f 47 77 48
f 48 77 49
f 49 77 78
f 49 78 79
f 49 79 50
f 50 79 53
f 53 79 80
f 55 81 95
f 55 95 117
f 55 117 147
f 55 147 148
f 55 148 125
f 55 125 124
f 55 124 123
f 55 123 122
f 55 122 118
f 55 118 96
f 55 96 82
f 55 82 69
f 55 69 68
f 55 68 67
f 55 67 66
f 55 66 65
f 55 65 64
f 55 64 63
f 55 63 62
f 55 62 61
f 55 61 60
f 55 60 59
f 55 59 58
f 55 58 57
f 55 57 56
f 69 82 70
f 70 82 83
f 71 76 84
f 71 84 85
f 71 85 77
f 72 86 87
f 72 87 88
f 72 88 73
f 73 88 89
f 73 89 90
f 73 90 74
f 74 90 91
f 74 91 76
f 74 76 75
f 76 91 92
f 76 92 84
f 77 85 78
f 78 93 80
f 78 80 79
f 78 85 93
f 81 94 95
f 82 96 97
f 82 97 98
f 82 98 83
f 84 92 99
f 84 99 100
f 84 100 85
f 85 100 101
f 85 101 93
f 86 102 103
f 86 103 87
f 87 103 88
f 88 103 104
f 88 104 89
f 89 104 105
f 89 105 90
f 90 105 106
f 90 106 91
f 91 106 107
f 91 107 108
f 91 108 109
f 91 109 110
f 91 110 111
f 91 111 112
f 91 112 99
f 91 99 92
f 93 101 113
f 94 114 115
f 94 115 116
f 94 116 95
f 95 116 117
f 96 118 119
f 96 119 120
f 96 120 97
f 99 112 100
f 100 113 101
f 102 121 122
f 102 122 123
f 102 123 124
f 102 124 125
f 102 125 126
f 102 126 127
f 102 127 128
f 102 128 129
f 102 129 130
f 102 130 131
f 102 131 103
f 103 131 130
f 103 130 132
f 103 132 104
f 104 133 134
f 104 134 135
f 104 135 136
f 104 136 137
f 104 137 138
f 104 138 105
f 104 132 133
f 105 138 139
f 105 139 140
f 105 140 141
f 105 141 106
f 106 141 107
f 109 111 110
f 114 142 143
f 114 143 115
f 115 143 144
f 115 144 145
f 115 145 116
f 116 145 146
f 116 146 117
f 117 146 147
f 118 122 119
f 119 122 121
f 125 148 126
f 126 148 127
f 127 148 146
f 127 146 145
f 127 145 128
f 128 145 144
f 128 144 129
f 129 144 149
f 129 149 150
f 129 150 130
f 130 150 133
f 130 133 132
f 133 150 134
f 134 151 152
f 134 152 153
f 134 153 135
f 134 150 151
f 135 153 136
f 137 154 138
f 138 154 139
f 142 155 156
f 142 156 143
f 143 156 149
f 143 149 144
f 146 148 147
f 149 156 155
f 149 155 150
f 150 155 151

