# https://github.com/mikedh/trimesh
v 0.00183719 0.00587786 0.00621634
v 0.00170312 0.00631035 0.00621634
v 0.00169157 0.00631035 0.00664875
v 0.00182212 0.00587786 0.00664875
v 0.00179451 0.00544537 0.00621634
v 0.00183618 0.00587786 0.00578052
v 0.00170262 0.00631035 0.00578392
v 0.00157156 0.00657758 0.00621634
v 0.00156704 0.00656861 0.00664875
v 0.00157156 0.00657664 0.00578392
v 0.00155850 0.00655208 0.00708185
v 0.00167048 0.00631035 0.00708185
v 0.00177643 0.00544537 0.00664875
v 0.00179350 0.00587786 0.00708185
v 0.00162378 0.00513093 0.00664875
v 0.00163433 0.00511723 0.00621634
v 0.00163433 0.00511582 0.00578392
v 0.00163433 0.00511582 0.00578052
v 0.00179350 0.00544537 0.00578052
v 0.00182212 0.00587786 0.00535082
v 0.00169107 0.00631035 0.00535082
v 0.00156603 0.00656625 0.00535082
v 0.00145808 0.00679429 0.00621634
v 0.00145255 0.00678485 0.00664875
v 0.00145757 0.00679335 0.00578392
v 0.00144351 0.00676880 0.00708185
v 0.00154997 0.00653603 0.00733818
v 0.00162127 0.00633773 0.00749523
v 0.00174178 0.00544537 0.00708185
v 0.00160520 0.00515312 0.00708185
v 0.00160470 0.00623480 0.00794669
v 0.00174881 0.00587786 0.00751427
v 0.00143196 0.00491468 0.00664875
v 0.00144502 0.00490052 0.00621634
v 0.00144602 0.00490005 0.00578392
v 0.00144602 0.00490005 0.00578052
v 0.00162478 0.00512809 0.00535082
v 0.00177643 0.00544537 0.00535082
v 0.00179200 0.00587786 0.00491772
v 0.00166947 0.00631035 0.00491772
v 0.00155700 0.00655020 0.00491772
v 0.00145105 0.00678249 0.00535082
v 0.00124617 0.00717579 0.00621634
v 0.00124617 0.00717579 0.00578392
v 0.00121203 0.00721498 0.00661544
v 0.00122760 0.00715596 0.00708185
v 0.00120952 0.00712857 0.00751427
v 0.00153239 0.00650062 0.00762578
v 0.00118642 0.00709080 0.00794669
v 0.00137020 0.00674283 0.00794669
v 0.00151281 0.00645104 0.00794669
v 0.00168956 0.00544537 0.00751427
v 0.00157658 0.00518853 0.00751427
v 0.00141288 0.00493640 0.00708185
v 0.00148218 0.00636511 0.00837979
v 0.00156553 0.00614887 0.00837979
v 0.00154645 0.00609694 0.00860076
v 0.00168504 0.00587786 0.00794669
v 0.00158160 0.00556955 0.00837979
v 0.00121504 0.00469608 0.00664875
v 0.00119646 0.00471402 0.00708185
v 0.00122810 0.00468333 0.00621634
v 0.00123011 0.00468286 0.00578392
v 0.00123011 0.00468286 0.00578052
v 0.00143498 0.00491185 0.00535082
v 0.00160520 0.00515123 0.00491772
v 0.00174078 0.00544537 0.00491772
v 0.00174329 0.00587786 0.00448530
v 0.00160671 0.00623858 0.00405289
v 0.00161976 0.00633773 0.00450638
v 0.00154946 0.00653509 0.00466480
v 0.00144100 0.00676644 0.00491772
v 0.00121052 0.00721498 0.00537734
v 0.00122408 0.00715596 0.00491772
v 0.00111662 0.00739911 0.00621634
v 0.00111713 0.00739959 0.00578392
v 0.00110809 0.00738589 0.00525020
v 0.00111713 0.00739959 0.00578052
v 0.00110809 0.00738542 0.00673782
v 0.00110005 0.00737220 0.00708185
v 0.00108449 0.00734529 0.00751427
v 0.00115378 0.00703414 0.00830024
v 0.00058436 0.00809506 0.00794669
v 0.00161575 0.00542554 0.00793377
v 0.00155449 0.00521780 0.00778079
v 0.00137974 0.00497228 0.00751427
v 0.00116282 0.00474565 0.00751427
v 0.00125923 0.00678438 0.00841854
v 0.00142996 0.00626927 0.00877209
v 0.00119797 0.00626077 0.00945607
v 0.00135715 0.00587786 0.00924530
v 0.00149122 0.00587786 0.00883600
v 0.00155147 0.00587786 0.00861979
v 0.00160219 0.00587786 0.00837979
v 0.00155248 0.00564368 0.00862251
v 0.00152436 0.00526926 0.00806907
v 0.00098607 0.00447936 0.00664875
v 0.00096699 0.00449778 0.00708185
v 0.00099812 0.00446709 0.00621634
v 0.00099812 0.00446662 0.00578052
v 0.00121856 0.00469466 0.00535082
v 0.00119897 0.00471260 0.00491772
v 0.00141539 0.00493499 0.00491772
v 0.00157658 0.00518758 0.00448530
v 0.00155599 0.00521544 0.00421742
v 0.00168504 0.00544537 0.00448530
v 0.00168052 0.00587786 0.00405289
v 0.00156905 0.00615218 0.00361979
v 0.00148117 0.00636842 0.00361979
v 0.00151281 0.00645482 0.00405289
v 0.00153239 0.00650015 0.00437584
v 0.00136920 0.00674283 0.00405289
v 0.00118491 0.00708986 0.00405289
v 0.00120701 0.00712810 0.00448530
v 0.00108449 0.00734434 0.00448530
v 0.00110005 0.00737220 0.00491772
v 0.00107495 0.00746852 0.00578460
v 0.00107394 0.00746852 0.00621566
v 0.00106892 0.00746852 0.00638087
v 0.00106440 0.00746852 0.00652161
v 0.00104231 0.00746852 0.00491772
v 0.00065014 0.00810922 0.00491840
v 0.00105988 0.00746852 0.00530799
v 0.00107495 0.00746852 0.00578052
v 0.00064914 0.00810922 0.00708117
v 0.00104181 0.00746852 0.00708117
v 0.00066571 0.00810922 0.00664807
v 0.00092531 0.00760922 0.00751427
v 0.00101017 0.00746852 0.00751427
v 0.00069031 0.00784435 0.00817378
v 0.00121203 0.00666115 0.00881288
v 0.00057582 0.00810922 0.00794601
v 0.00126475 0.00506530 0.00837979
v 0.00132853 0.00501242 0.00794737
v 0.00113219 0.00477634 0.00782567
v 0.00093184 0.00452988 0.00751427
v 0.00123563 0.00633159 0.00925822
v 0.00115479 0.00656483 0.00912224
v 0.00042569 0.00810922 0.00823701
v 0.00107545 0.00634340 0.00945607
v 0.00127630 0.00588683 0.00945607
v 0.00123714 0.00568050 0.00945607
v 0.00141841 0.00547748 0.00878501
v 0.00148117 0.00535378 0.00837979
v 0.00119044 0.00551478 0.00945607
v 0.00123011 0.00543074 0.00924598
v 0.00114525 0.00519325 0.00910252
v 0.00119646 0.00513801 0.00881288
v 0.00076965 0.00428626 0.00664875
v 0.00075007 0.00430373 0.00708185
v 0.00071492 0.00433394 0.00751427
v 0.00078170 0.00427681 0.00621634
v 0.00078170 0.00427823 0.00578052
v 0.00076864 0.00428815 0.00535082
v 0.00098506 0.00447842 0.00535082
v 0.00096649 0.00449589 0.00491772
v 0.00093284 0.00452988 0.00448530
v 0.00116282 0.00474613 0.00448530
v 0.00137974 0.00497087 0.00448530
v 0.00110256 0.00480656 0.00388427
v 0.00126325 0.00506199 0.00361979
v 0.00152185 0.00527635 0.00392982
v 0.00161072 0.00542979 0.00406580
v 0.00157658 0.00557852 0.00361979
v 0.00154997 0.00564840 0.00338658
v 0.00160018 0.00587786 0.00361979
v 0.00154595 0.00609694 0.00339950
v 0.00143146 0.00626880 0.00322816
v 0.00125823 0.00678485 0.00357967
v 0.00115328 0.00703226 0.00369730
v 0.00057783 0.00810922 0.00405357
v 0.00101017 0.00746852 0.00448530
v 0.00102975 0.00746852 0.00474299
v 0.00067926 0.00810922 0.00578460
v 0.00067876 0.00810922 0.00621566
v 0.00066972 0.00810922 0.00651549
v 0.00073651 0.00791895 0.00448530
v 0.00062001 0.00810922 0.00448530
v 0.00066721 0.00810922 0.00535150
v 0.00062403 0.00810922 0.00745580
v 0.00073651 0.00791847 0.00751427
v 0.00059139 0.00810922 0.00779507
v 0.00106038 0.00484905 0.00837979
v 0.00110156 0.00480751 0.00811395
v 0.00089518 0.00458040 0.00794193
v 0.00068830 0.00435708 0.00777059
v 0.00003402 0.00810922 0.00836007
v 0.00089518 0.00644066 0.00945607
v 0.00110759 0.00537644 0.00945607
v 0.00107645 0.00527682 0.00939080
v 0.00071341 0.00476454 0.00909776
v 0.00098607 0.00492177 0.00881288
v 0.00101017 0.00524282 0.00945607
v 0.00084045 0.00506860 0.00945607
v 0.00089518 0.00501383 0.00924462
v 0.00049548 0.00407001 0.00664875
v 0.00047741 0.00408748 0.00708185
v 0.00042067 0.00408796 0.00748368
v 0.00024894 0.00392979 0.00731846
v 0.00049247 0.00421827 0.00792765
v 0.00022232 0.00394395 0.00760742
v 0.00050553 0.00406057 0.00621634
v 0.00050452 0.00406152 0.00578052
v 0.00049448 0.00407143 0.00535082
v 0.00075007 0.00430420 0.00491772
v 0.00071642 0.00433205 0.00448530
v 0.00069081 0.00435425 0.00422218
v 0.00065466 0.00438446 0.00393390
v 0.00084698 0.00464178 0.00361979
v 0.00106340 0.00484528 0.00361979
v 0.00119295 0.00513848 0.00318737
v 0.00114022 0.00519703 0.00289773
v 0.00147967 0.00536275 0.00361979
v 0.00141339 0.00548031 0.00322069
v 0.00122509 0.00542791 0.00275427
v 0.00118240 0.00552328 0.00251019
v 0.00126827 0.00588353 0.00251019
v 0.00136016 0.00587786 0.00275427
v 0.00148871 0.00587786 0.00317105
v 0.00154946 0.00587786 0.00338794
v 0.00124919 0.00605350 0.00251019
v 0.00119948 0.00625699 0.00251019
v 0.00121354 0.00666445 0.00318737
v 0.00124216 0.00633631 0.00273659
v 0.00069081 0.00784482 0.00382580
v 0.00057331 0.00810922 0.00403997
v 0.00092531 0.00760922 0.00448530
v 0.00061951 0.00810922 0.00751427
v 0.00084396 0.00464131 0.00837979
v 0.00076965 0.00471024 0.00881288
v 0.00065566 0.00438446 0.00805887
v 0.00060947 0.00442507 0.00837979
v -0.00040284 0.00810922 0.00841922
v 0.00076312 0.00645671 0.00945607
v -0.00309478 0.00810922 0.00877005
v 0.00106340 0.00530892 0.00945607
v 0.00026300 0.00435047 0.00906241
v 0.00053113 0.00449400 0.00881288
v 0.00064160 0.00483395 0.00938672
v 0.00045280 0.00458843 0.00922423
v 0.00067525 0.00490335 0.00945607
v 0.00026149 0.00392176 0.00708185
v 0.00027906 0.00391043 0.00664875
v -0.00102347 0.00328578 0.00881288
v 0.00018064 0.00397134 0.00794669
v 0.00039255 0.00423857 0.00837979
v 0.00028911 0.00390429 0.00621634
v 0.00028810 0.00390524 0.00578052
v 0.00027756 0.00391090 0.00535082
v 0.00025948 0.00392270 0.00491772
v 0.00047590 0.00408796 0.00491772
v 0.00022483 0.00394253 0.00440372
v 0.00042016 0.00408560 0.00452270
v 0.00049147 0.00421732 0.00406784
v 0.00039204 0.00423951 0.00361979
v 0.00060796 0.00442507 0.00361979
v 0.00077116 0.00471024 0.00318737
v 0.00098808 0.00492177 0.00318737
v 0.00071241 0.00476454 0.00290181
v 0.00089619 0.00501525 0.00275563
v 0.00107947 0.00527304 0.00260945
v 0.00106038 0.00532167 0.00251019
v 0.00089518 0.00643877 0.00251019
v 0.00038401 0.00810922 0.00372925
v 0.00042719 0.00810922 0.00375985
v 0.00115780 0.00656861 0.00286850
v 0.00031421 0.00430561 0.00881288
v -0.00329162 0.00645104 0.00945607
v -0.00329162 0.00746852 0.00855384
v -0.00309478 0.00810922 0.00322205
v -0.00329262 0.00746852 0.00578052
v -0.00020048 0.00393829 0.00900258
v 0.00019019 0.00441185 0.00935069
v 0.00003954 0.00422866 0.00922151
v 0.00062303 0.00485189 0.00945607
v 0.00057080 0.00480420 0.00945607
v 0.00023990 0.00450675 0.00945607
v -0.00098833 0.00328578 0.00837979
v 0.00011938 0.00402233 0.00837979
v -0.00014825 0.00390240 0.00871362
v -0.00027077 0.00398928 0.00924530
v -0.00048669 0.00392884 0.00945607
v -0.00135940 0.00328578 0.00924530
v -0.00098883 0.00328578 0.00361979
v -0.00099184 0.00328578 0.00318737
v -0.00100490 0.00328578 0.00292561
v 0.00024693 0.00393120 0.00469268
v -0.00104406 0.00328578 0.00275427
v 0.00018165 0.00397086 0.00405289
v 0.00031271 0.00430703 0.00318737
v 0.00052963 0.00449400 0.00318737
v 0.00045130 0.00458843 0.00277671
v 0.00064160 0.00483347 0.00261353
v 0.00026149 0.00435188 0.00294057
v 0.00083392 0.00507804 0.00251019
v -0.00329262 0.00644680 0.00251019
v -0.00006389 0.00810922 0.00360007
v -0.00329162 0.00328578 0.00945607
v -0.00329262 0.00746852 0.00343418
v -0.00329262 0.00328578 0.00578052
v 0.00006967 0.00436086 0.00945607
v -0.00004481 0.00426643 0.00945607
v -0.00016884 0.00416633 0.00945607
v -0.00031998 0.00404971 0.00945607
v -0.00154067 0.00328578 0.00945607
v -0.00143774 0.00328578 0.00251019
v -0.00055599 0.00389202 0.00251019
v -0.00032852 0.00406104 0.00251019
v -0.00005988 0.00427398 0.00251019
v 0.00013144 0.00443404 0.00251019
v 0.00038953 0.00465831 0.00251019
v 0.00018968 0.00441185 0.00265229
v 0.00061399 0.00485991 0.00251019
v -0.00329262 0.00328578 0.00251019
f 1 2 3
f 1 3 4
f 1 4 5
f 1 5 19
f 1 19 6
f 1 6 7
f 1 7 2
f 2 8 9
f 2 9 3
f 2 7 10
f 2 10 8
f 3 9 11
f 3 11 12
f 3 12 4
f 4 13 5
f 4 12 14
f 4 14 13
f 5 13 15
f 5 15 16
f 5 16 17
f 5 17 18
f 5 18 19
f 6 19 20
f 6 20 21
f 6 21 7
f 7 21 22
f 7 22 10
f 8 23 9
f 8 10 23
f 9 23 24
f 9 24 11
f 10 22 25
f 10 25 23
f 11 26 27
f 11 27 12
f 11 24 26
f 12 27 28
f 12 28 14
f 13 14 29
f 13 29 30
f 13 30 15
f 14 28 31
f 14 31 32
f 14 32 29
f 15 33 34
f 15 34 16
f 15 30 33
f 16 34 35
f 16 35 17
f 17 35 36
f 17 36 18
f 18 36 37
f 18 37 19
f 19 37 38
f 19 38 20
f 20 38 39
f 20 39 40
f 20 40 21
f 21 40 41
f 21 41 22
f 22 41 42
f 22 42 25
f 23 43 24
f 23 25 44
f 23 44 43
f 24 43 45
f 24 45 46
f 24 46 26
f 25 42 44
f 26 46 47
f 26 47 27
f 27 48 28
f 27 47 49
f 27 49 50
f 27 50 48
f 28 48 51
f 28 51 31
f 29 32 52
f 29 52 53
f 29 53 30
f 30 54 33
f 30 53 54
f 31 51 55
f 31 55 56
f 31 56 32
f 32 56 57
f 32 57 58
f 32 58 59
f 32 59 52
f 33 60 34
f 33 54 61
f 33 61 60
f 34 60 62
f 34 62 63
f 34 63 35
f 35 63 64
f 35 64 36
f 36 64 65
f 36 65 37
f 37 65 103
f 37 103 66
f 37 66 38
f 38 66 67
f 38 67 39
f 39 67 68
f 39 68 69
f 39 69 40
f 40 69 70
f 40 70 71
f 40 71 41
f 41 71 72
f 41 72 42
f 42 73 44
f 42 72 74
f 42 74 73
f 43 75 45
f 43 44 78
f 43 78 76
f 43 76 75
f 44 73 77
f 44 77 78
f 45 75 79
f 45 79 46
f 46 79 80
f 46 80 81
f 46 81 47
f 47 81 49
f 48 50 51
f 49 82 50
f 49 81 83
f 49 83 82
f 50 82 55
f 50 55 51
f 52 59 84
f 52 84 85
f 52 85 53
f 53 86 54
f 53 85 86
f 54 86 87
f 54 87 61
f 55 88 89
f 55 89 57
f 55 57 56
f 55 82 88
f 57 89 90
f 57 90 91
f 57 91 92
f 57 92 93
f 57 93 94
f 57 94 58
f 58 94 95
f 58 95 59
f 59 95 96
f 59 96 84
f 60 97 62
f 60 61 97
f 61 87 98
f 61 98 97
f 62 97 99
f 62 99 63
f 63 100 64
f 63 99 100
f 64 100 101
f 64 101 65
f 65 101 102
f 65 102 103
f 66 103 104
f 66 104 67
f 67 104 105
f 67 105 106
f 67 106 68
f 68 106 107
f 68 107 108
f 68 108 69
f 69 108 109
f 69 109 110
f 69 110 70
f 70 110 111
f 70 111 71
f 71 111 112
f 71 112 113
f 71 113 114
f 71 114 72
f 72 114 74
f 73 74 77
f 74 114 115
f 74 115 116
f 74 116 77
f 75 76 117
f 75 117 118
f 75 118 119
f 75 119 120
f 75 120 79
f 76 78 124
f 76 124 117
f 77 116 121
f 77 121 122
f 77 122 123
f 77 123 78
f 78 123 124
f 79 125 126
f 79 126 80
f 79 120 127
f 79 127 125
f 80 128 129
f 80 129 81
f 80 126 128
f 81 129 83
f 82 83 130
f 82 130 131
f 82 131 88
f 83 129 128
f 83 128 132
f 83 132 130
f 84 96 85
f 85 96 133
f 85 133 134
f 85 134 86
f 86 134 135
f 86 135 87
f 87 135 136
f 87 136 98
f 88 131 89
f 89 131 137
f 89 137 90
f 90 137 138
f 90 138 130
f 90 130 139
f 90 139 140
f 90 140 188
f 90 188 234
f 90 234 268
f 90 268 298
f 90 298 305
f 90 305 282
f 90 282 304
f 90 304 303
f 90 303 302
f 90 302 301
f 90 301 277
f 90 277 276
f 90 276 275
f 90 275 241
f 90 241 194
f 90 194 193
f 90 193 236
f 90 236 189
f 90 189 145
f 90 145 142
f 90 142 141
f 90 141 91
f 91 141 142
f 91 142 95
f 91 95 92
f 92 95 93
f 93 95 94
f 95 143 144
f 95 144 96
f 95 142 145
f 95 145 146
f 95 146 143
f 96 144 147
f 96 147 148
f 96 148 133
f 97 149 99
f 97 98 150
f 97 150 149
f 98 136 151
f 98 151 150
f 99 149 152
f 99 152 100
f 100 152 153
f 100 153 154
f 100 154 155
f 100 155 101
f 101 155 156
f 101 156 102
f 102 156 157
f 102 157 158
f 102 158 103
f 103 158 159
f 103 159 104
f 104 159 105
f 105 160 161
f 105 161 162
f 105 162 163
f 105 163 106
f 105 159 160
f 106 163 164
f 106 164 107
f 107 164 165
f 107 165 166
f 107 166 167
f 107 167 108
f 108 167 109
f 109 167 168
f 109 168 169
f 109 169 170
f 109 170 112
f 109 112 110
f 110 112 111
f 112 170 113
f 113 170 171
f 113 171 115
f 113 115 114
f 115 172 173
f 115 173 116
f 115 171 172
f 116 173 121
f 117 174 175
f 117 175 118
f 117 124 174
f 118 176 127
f 118 127 119
f 118 175 176
f 119 127 120
f 121 173 177
f 121 177 122
f 122 177 178
f 122 178 171
f 122 171 226
f 122 226 265
f 122 265 264
f 122 264 297
f 122 297 270
f 122 270 235
f 122 235 233
f 122 233 187
f 122 187 139
f 122 139 132
f 122 132 182
f 122 182 228
f 122 228 180
f 122 180 125
f 122 125 127
f 122 127 176
f 122 176 175
f 122 175 174
f 122 174 179
f 122 179 123
f 123 179 124
f 124 179 174
f 125 180 126
f 126 180 181
f 126 181 128
f 128 181 182
f 128 182 132
f 130 138 131
f 130 132 139
f 131 138 137
f 133 183 184
f 133 184 134
f 133 148 183
f 134 184 135
f 135 185 136
f 135 184 185
f 136 185 186
f 136 186 151
f 139 187 188
f 139 188 140
f 143 146 147
f 143 147 144
f 145 189 190
f 145 190 146
f 146 190 147
f 147 191 192
f 147 192 148
f 147 190 193
f 147 193 194
f 147 194 195
f 147 195 191
f 148 192 183
f 149 196 152
f 149 150 197
f 149 197 196
f 150 151 198
f 150 198 199
f 150 199 197
f 151 186 200
f 151 200 201
f 151 201 198
f 152 196 202
f 152 202 153
f 153 203 204
f 153 204 154
f 153 202 203
f 154 204 205
f 154 205 155
f 155 205 156
f 156 205 206
f 156 206 157
f 157 206 207
f 157 207 160
f 157 160 158
f 158 160 159
f 160 207 208
f 160 208 209
f 160 209 210
f 160 210 161
f 161 210 211
f 161 211 162
f 162 211 212
f 162 212 213
f 162 213 165
f 162 165 164
f 162 164 163
f 165 214 215
f 165 215 216
f 165 216 217
f 165 217 218
f 165 218 219
f 165 219 220
f 165 220 166
f 165 213 214
f 166 220 167
f 167 220 219
f 167 219 218
f 167 218 221
f 167 221 222
f 167 222 168
f 168 223 169
f 168 222 224
f 168 224 223
f 169 223 170
f 170 223 225
f 170 225 171
f 171 225 226
f 171 178 177
f 171 177 227
f 171 227 172
f 172 227 173
f 173 227 177
f 180 228 181
f 181 228 182
f 183 229 184
f 183 192 230
f 183 230 229
f 184 231 185
f 184 229 232
f 184 232 231
f 185 231 186
f 186 231 200
f 187 233 188
f 188 233 235
f 188 235 234
f 189 236 190
f 190 236 193
f 191 237 238
f 191 238 230
f 191 230 192
f 191 195 239
f 191 239 240
f 191 240 237
f 194 241 195
f 195 241 239
f 196 197 242
f 196 242 243
f 196 243 202
f 197 199 242
f 198 201 199
f 199 201 244
f 199 244 242
f 200 245 201
f 200 231 246
f 200 246 245
f 201 245 244
f 202 243 247
f 202 247 248
f 202 248 203
f 203 248 249
f 203 249 204
f 204 249 250
f 204 250 251
f 204 251 205
f 205 251 252
f 205 252 253
f 205 253 206
f 206 253 252
f 206 252 207
f 207 254 208
f 207 252 254
f 208 254 255
f 208 255 256
f 208 256 209
f 209 256 257
f 209 257 210
f 210 257 258
f 210 258 211
f 211 258 212
f 212 214 213
f 212 258 259
f 212 259 260
f 212 260 261
f 212 261 215
f 212 215 214
f 215 261 216
f 216 261 262
f 216 262 295
f 216 295 313
f 216 313 311
f 216 311 310
f 216 310 309
f 216 309 308
f 216 308 307
f 216 307 306
f 216 306 314
f 216 314 296
f 216 296 263
f 216 263 222
f 216 222 221
f 216 221 217
f 217 221 218
f 222 263 264
f 222 264 265
f 222 265 225
f 222 225 266
f 222 266 224
f 223 224 266
f 223 266 225
f 225 265 226
f 229 230 232
f 230 238 232
f 231 232 246
f 232 238 267
f 232 267 246
f 234 235 268
f 235 269 268
f 235 270 299
f 235 299 271
f 235 271 269
f 237 272 267
f 237 267 238
f 237 240 273
f 237 273 274
f 237 274 272
f 239 273 240
f 239 241 275
f 239 275 276
f 239 276 277
f 239 277 273
f 242 244 243
f 243 244 278
f 243 278 247
f 244 245 279
f 244 279 280
f 244 280 272
f 244 272 281
f 244 281 282
f 244 282 283
f 244 283 305
f 244 305 298
f 244 298 300
f 244 300 314
f 244 314 306
f 244 306 288
f 244 288 286
f 244 286 285
f 244 285 284
f 244 284 278
f 245 246 279
f 246 267 272
f 246 272 279
f 247 278 284
f 247 284 248
f 248 284 285
f 248 285 249
f 249 285 286
f 249 286 250
f 250 287 251
f 250 286 287
f 251 287 252
f 252 287 286
f 252 286 288
f 252 288 289
f 252 289 254
f 254 289 255
f 255 289 288
f 255 288 290
f 255 290 256
f 256 290 291
f 256 291 257
f 257 291 259
f 257 259 258
f 259 292 293
f 259 293 260
f 259 291 294
f 259 294 292
f 260 293 295
f 260 295 261
f 261 295 262
f 263 296 270
f 263 270 297
f 263 297 264
f 268 269 271
f 268 271 300
f 268 300 298
f 270 296 299
f 271 299 296
f 271 296 314
f 271 314 300
f 272 274 281
f 272 280 279
f 273 277 301
f 273 301 302
f 273 302 274
f 274 302 303
f 274 303 281
f 281 303 304
f 281 304 282
f 282 305 283
f 288 306 307
f 288 307 308
f 288 308 309
f 288 309 310
f 288 310 311
f 288 311 312
f 288 312 294
f 288 294 291
f 288 291 290
f 292 294 312
f 292 312 293
f 293 312 311
f 293 311 313
f 293 313 295

