# https://github.com/mikedh/trimesh
v -0.00602785 0.00746876 -0.00130742
v -0.00602785 0.00760946 -0.00130467
v -0.00588717 0.00746876 -0.00130330
v -0.00632033 0.00746876 -0.00130632
v -0.00602785 0.00810922 -0.00129477
v -0.00646101 0.00804220 -0.00129450
v -0.00559469 0.00746876 -0.00129367
v -0.00646101 0.00746876 -0.00130550
v -0.00566250 0.00810922 -0.00128185
v -0.00646101 0.00810922 -0.00129312
v -0.00689315 0.00804220 -0.00127139
v -0.00559469 0.00810922 -0.00127937
v -0.00545402 0.00746876 -0.00128570
v -0.00675248 0.00746876 -0.00128982
v -0.00689315 0.00810922 -0.00127002
v -0.00689315 0.00760946 -0.00127937
v -0.00732631 0.00746876 -0.00123592
v -0.00732631 0.00760946 -0.00123317
v -0.00523035 0.00810922 -0.00125654
v -0.00516356 0.00760946 -0.00126507
v -0.00516356 0.00746876 -0.00126864
v -0.00689315 0.00746876 -0.00128185
v -0.00732631 0.00810922 -0.00122271
v -0.00775947 0.00746876 -0.00115396
v -0.00516356 0.00810922 -0.00125214
v -0.00502288 0.00746876 -0.00125737
v -0.00775947 0.00760946 -0.00115066
v -0.00775947 0.00810922 -0.00113773
v -0.00819162 0.00746876 -0.00102442
v -0.00479719 0.00810922 -0.00121996
v -0.00473040 0.00760946 -0.00122877
v -0.00473040 0.00746876 -0.00123289
v -0.00819162 0.00760946 -0.00101974
v -0.00822299 0.00810922 -0.00099169
v -0.00843248 0.00746876 -0.00093586
v -0.00842742 0.00760946 -0.00093339
v -0.00473040 0.00810922 -0.00121391
v -0.00436505 0.00810922 -0.00117513
v -0.00429825 0.00810922 -0.00116798
v -0.00458972 0.00746876 -0.00121776
v -0.00841427 0.00790733 -0.00092733
v -0.00830193 0.00810922 -0.00096199
v -0.00864906 0.00746876 -0.00082722
v -0.00864400 0.00760946 -0.00082392
v -0.00429825 0.00746876 -0.00118641
v -0.00393189 0.00810922 -0.00112425
v -0.00850940 0.00810922 -0.00087040
v -0.00902150 0.00746876 -0.00061078
v -0.00901543 0.00760946 -0.00060748
v -0.00899620 0.00804220 -0.00059620
v -0.00859036 0.00810922 -0.00082777
v -0.00858530 0.00804784 -0.00083355
v -0.00386509 0.00810922 -0.00111628
v -0.00386509 0.00746876 -0.00113416
v -0.00923808 0.00746876 -0.00046474
v -0.00899316 0.00810922 -0.00059428
v -0.00349974 0.00810922 -0.00105742
v -0.00343194 0.00760946 -0.00106182
v -0.00343194 0.00746876 -0.00106595
v -0.00948805 0.00746876 -0.00023647
v -0.00946984 0.00760946 -0.00024362
v -0.00923201 0.00760946 -0.00046006
v -0.00920873 0.00810922 -0.00044191
v -0.00343194 0.00810922 -0.00104615
v -0.00303116 0.00760946 -0.00097216
v -0.00327912 0.00746876 -0.00103185
v -0.00969148 0.00746876 -0.00004285
v -0.00944960 0.00804220 -0.00022794
v -0.00924617 0.00810922 -0.00040836
v -0.00312022 0.00810922 -0.00097629
v -0.00291478 0.00746876 -0.00094741
v -0.00300890 0.00746876 -0.00097134
v -0.00306760 0.00810922 -0.00096419
v -0.00968540 0.00760946 -0.00003625
v -0.00985543 0.00746876 0.00016067
v -0.00944555 0.00810922 -0.00022546
v -0.00280446 0.00746876 -0.00091881
v -0.00288442 0.00810922 -0.00091496
v -0.00281458 0.00760946 -0.00091606
v -0.00985948 0.00760946 0.00017993
v -0.00984025 0.00804220 0.00020248
v -0.00968945 0.00810922 0.00002371
v -0.00966213 0.00810922 -0.00000984
v -0.01008213 0.00746876 0.00046018
v -0.00274577 0.00746876 -0.00090121
v -0.00285102 0.00810922 -0.00090588
v -0.00983721 0.00810922 0.00020633
v -0.01021774 0.00746876 0.00067663
v -0.01007606 0.00760946 0.00046926
v -0.00257878 0.00746876 -0.00084785
v -0.00261420 0.00810922 -0.00082722
v -0.00256663 0.00760946 -0.00083713
v -0.01005683 0.00804220 0.00050033
v -0.01005379 0.00810922 0.00050556
v -0.01021167 0.00760946 0.00068570
v -0.01040092 0.00746876 0.00102289
v -0.00242596 0.00746876 -0.00079587
v -0.00256663 0.00810922 -0.00081072
v -0.01019244 0.00804220 0.00071678
v -0.01007504 0.00810922 0.00053911
v -0.01053856 0.00746876 0.00133532
v -0.01038878 0.00760946 0.00102289
v -0.01018941 0.00810922 0.00072201
v -0.00213347 0.00746876 -0.00068861
v -0.00220128 0.00810922 -0.00066496
v -0.00213347 0.00760946 -0.00067816
v -0.01059625 0.00746876 0.00150171
v -0.01053249 0.00760946 0.00135347
v -0.01034324 0.00810922 0.00102289
v -0.00201709 0.00746876 -0.00063966
v -0.00212841 0.00810922 -0.00063306
v -0.00213347 0.00804220 -0.00064131
v -0.01058714 0.00756870 0.00150171
v -0.00340259 0.00746876 0.00150171
v -0.01056184 0.00784213 0.00150171
v -0.01051225 0.00804220 0.00141288
v -0.01051023 0.00810922 0.00142663
v -0.00180456 0.00746876 -0.00054670
v -0.00190171 0.00810922 -0.00052799
v -0.00181974 0.00760946 -0.00054065
v -0.00083501 0.00746876 0.00103801
v -0.00090079 0.00810922 0.00113812
v -0.00118012 0.00810922 0.00118433
v -0.00310201 0.00810922 0.00150171
v -0.01054261 0.00804220 0.00150171
v -0.01052946 0.00810922 0.00148356
v -0.00173473 0.00746876 -0.00051259
v -0.00187540 0.00810922 -0.00051424
v -0.00040084 0.00746876 0.00093075
v -0.00086335 0.00810922 0.00112712
v -0.01053553 0.00810922 0.00150171
v -0.00158899 0.00746876 -0.00043586
v -0.00170436 0.00810922 -0.00041413
v -0.00160316 0.00760946 -0.00042706
v -0.00026826 0.00746876 0.00084494
v -0.00053848 0.00810922 0.00093515
v -0.00149487 0.00746876 -0.00038141
v -0.00166388 0.00810922 -0.00038938
v -0.00025713 0.00746876 0.00073026
v -0.00054152 0.00810922 0.00067195
v -0.00124590 0.00746876 -0.00022464
v -0.00138759 0.00810922 -0.00020511
v -0.00102528 0.00748438 -0.00007887
v -0.00114875 0.00746876 -0.00016303
v -0.00031988 0.00746876 0.00063510
v -0.00067713 0.00810922 0.00046100
v -0.00133699 0.00810922 -0.00016908
v -0.00106778 0.00777291 -0.00004587
v -0.00101212 0.00746876 -0.00007172
v -0.00102325 0.00746876 -0.00008025
v -0.00053038 0.00746876 0.00035677
v -0.00062552 0.00780971 0.00038180
v -0.00066903 0.00804220 0.00043818
v -0.00071357 0.00810922 0.00041287
v -0.00115381 0.00810922 -0.00002744
v -0.00056277 0.00746876 0.00032074
v -0.00070648 0.00746876 0.00019285
v -0.00057188 0.00752124 0.00032872
v -0.00092913 0.00810922 0.00018543
v -0.00089675 0.00810922 0.00021898
v -0.00112041 0.00810922 0.00000281
f 1 2 3
f 1 3 7
f 1 7 13
f 1 13 21
f 1 21 26
f 1 26 32
f 1 32 40
f 1 40 45
f 1 45 54
f 1 54 59
f 1 59 66
f 1 66 72
f 1 72 71
f 1 71 77
f 1 77 85
f 1 85 90
f 1 90 97
f 1 97 104
f 1 104 110
f 1 110 118
f 1 118 127
f 1 127 132
f 1 132 137
f 1 137 141
f 1 141 144
f 1 144 150
f 1 150 149
f 1 149 157
f 1 157 156
f 1 156 151
f 1 151 145
f 1 145 139
f 1 139 135
f 1 135 129
f 1 129 121
f 1 121 114
f 1 114 107
f 1 107 101
f 1 101 96
f 1 96 88
f 1 88 84
f 1 84 75
f 1 75 67
f 1 67 60
f 1 60 55
f 1 55 48
f 1 48 43
f 1 43 35
f 1 35 29
f 1 29 24
f 1 24 17
f 1 17 22
f 1 22 14
f 1 14 8
f 1 8 4
f 1 4 2
f 2 5 3
f 2 4 6
f 2 6 5
f 3 5 7
f 4 8 6
f 5 9 7
f 5 6 10
f 5 10 15
f 5 15 23
f 5 23 28
f 5 28 34
f 5 34 42
f 5 42 47
f 5 47 51
f 5 51 56
f 5 56 63
f 5 63 69
f 5 69 76
f 5 76 83
f 5 83 82
f 5 82 87
f 5 87 94
f 5 94 100
f 5 100 103
f 5 103 109
f 5 109 117
f 5 117 126
f 5 126 131
f 5 131 124
f 5 124 123
f 5 123 122
f 5 122 130
f 5 130 136
f 5 136 140
f 5 140 146
f 5 146 154
f 5 154 160
f 5 160 159
f 5 159 161
f 5 161 155
f 5 155 147
f 5 147 142
f 5 142 138
f 5 138 133
f 5 133 128
f 5 128 119
f 5 119 111
f 5 111 105
f 5 105 98
f 5 98 91
f 5 91 86
f 5 86 78
f 5 78 73
f 5 73 70
f 5 70 64
f 5 64 57
f 5 57 53
f 5 53 46
f 5 46 39
f 5 39 38
f 5 38 37
f 5 37 30
f 5 30 25
f 5 25 19
f 5 19 12
f 5 12 9
f 6 8 11
f 6 11 15
f 6 15 10
f 7 9 12
f 7 12 13
f 8 14 11
f 11 16 17
f 11 17 18
f 11 18 15
f 11 14 16
f 12 19 20
f 12 20 21
f 12 21 13
f 14 22 16
f 15 18 23
f 16 22 17
f 17 24 18
f 18 24 23
f 19 25 20
f 20 25 26
f 20 26 21
f 23 24 27
f 23 27 28
f 24 29 27
f 25 30 31
f 25 31 32
f 25 32 26
f 27 29 28
f 28 29 33
f 28 33 34
f 29 35 36
f 29 36 34
f 29 34 33
f 30 37 31
f 31 37 38
f 31 38 32
f 32 38 39
f 32 39 40
f 34 36 41
f 34 41 42
f 35 43 36
f 36 43 44
f 36 44 41
f 39 45 40
f 39 46 45
f 41 44 47
f 41 47 42
f 43 48 44
f 44 49 50
f 44 50 51
f 44 51 52
f 44 52 47
f 44 48 49
f 45 46 53
f 45 53 54
f 47 52 51
f 48 55 49
f 49 55 50
f 50 56 51
f 50 55 56
f 53 57 58
f 53 58 59
f 53 59 54
f 55 60 61
f 55 61 62
f 55 62 56
f 56 62 63
f 57 64 58
f 58 64 65
f 58 65 66
f 58 66 59
f 60 67 61
f 61 68 69
f 61 69 62
f 61 67 68
f 62 69 63
f 64 70 65
f 65 71 72
f 65 72 66
f 65 70 73
f 65 73 71
f 67 74 68
f 67 75 74
f 68 74 76
f 68 76 69
f 71 73 77
f 73 78 79
f 73 79 77
f 74 75 80
f 74 80 81
f 74 81 82
f 74 82 83
f 74 83 76
f 75 84 80
f 77 79 85
f 78 86 79
f 79 86 85
f 80 84 81
f 81 84 87
f 81 87 82
f 84 88 95
f 84 95 89
f 84 89 87
f 85 86 90
f 86 91 92
f 86 92 90
f 87 89 93
f 87 93 94
f 88 96 95
f 89 95 99
f 89 99 93
f 90 92 97
f 91 98 97
f 91 97 92
f 93 99 100
f 93 100 94
f 95 96 99
f 96 101 102
f 96 102 103
f 96 103 99
f 97 98 104
f 98 105 106
f 98 106 104
f 99 103 100
f 101 107 108
f 101 108 109
f 101 109 102
f 102 109 103
f 104 106 110
f 105 111 112
f 105 112 106
f 106 112 110
f 107 113 108
f 107 114 124
f 107 124 131
f 107 131 125
f 107 125 115
f 107 115 113
f 108 113 115
f 108 115 116
f 108 116 109
f 109 116 117
f 110 112 118
f 111 119 120
f 111 120 118
f 111 118 112
f 114 121 122
f 114 122 123
f 114 123 124
f 115 125 116
f 116 125 117
f 117 125 126
f 118 120 127
f 119 128 127
f 119 127 120
f 121 129 122
f 122 129 130
f 125 131 126
f 127 128 132
f 128 133 134
f 128 134 132
f 129 135 136
f 129 136 130
f 132 134 137
f 133 138 134
f 134 138 137
f 135 139 136
f 136 139 140
f 137 138 141
f 138 142 143
f 138 143 144
f 138 144 141
f 139 145 146
f 139 146 140
f 142 147 143
f 143 147 148
f 143 148 149
f 143 149 150
f 143 150 144
f 145 151 152
f 145 152 153
f 145 153 146
f 146 153 154
f 147 155 148
f 148 156 157
f 148 157 149
f 148 155 156
f 151 156 158
f 151 158 152
f 152 158 159
f 152 159 160
f 152 160 154
f 152 154 153
f 155 161 156
f 156 161 158
f 158 161 159

