# https://github.com/mikedh/trimesh
v -0.00710225 0.02153417 0.00405226
v -0.00710146 0.02153417 0.00417207
v -0.00638929 0.02299430 0.00475177
v -0.00632275 0.02312874 0.00475177
v -0.00631721 0.02310887 0.00448512
v -0.00706898 0.02159847 0.00405226
v -0.00703729 0.02153885 0.00361940
v -0.00703967 0.02153417 0.00361940
v -0.00695966 0.02153417 0.00451331
v -0.00647723 0.02257579 0.00475177
v -0.00694777 0.02153417 0.00453739
v -0.00621106 0.02334502 0.00475177
v -0.00645267 0.02275816 0.00405226
v -0.00662298 0.02243901 0.00405226
v -0.00691371 0.02189190 0.00405226
v -0.00586725 0.02394240 0.00448512
v -0.00539671 0.02473734 0.00413155
v -0.00549335 0.02453159 0.00401291
v -0.00598766 0.02362325 0.00405226
v -0.00617462 0.02327604 0.00405226
v -0.00685034 0.02189190 0.00361940
v -0.00624433 0.02297443 0.00340267
v -0.00668636 0.02212454 0.00336097
v -0.00696124 0.02153417 0.00318595
v -0.00703650 0.02153417 0.00360178
v -0.00641781 0.02220754 0.00475177
v -0.00646059 0.02153417 0.00467365
v -0.00606054 0.02362325 0.00475177
v -0.00582210 0.02385939 0.00375683
v -0.00580309 0.02382315 0.00346845
v -0.00639088 0.02275816 0.00361940
v -0.00575001 0.02415867 0.00448512
v -0.00557098 0.02448834 0.00448512
v -0.00541572 0.02477242 0.00448512
v -0.00494675 0.02557204 0.00426311
v -0.00482793 0.02574506 0.00409220
v -0.00459582 0.02615072 0.00405226
v -0.00522639 0.02492205 0.00361940
v -0.00536343 0.02467655 0.00361940
v -0.00548068 0.02446028 0.00361940
v -0.00544582 0.02439598 0.00318653
v -0.00562723 0.02405579 0.00318653
v -0.00577695 0.02377405 0.00318653
v -0.00589181 0.02355778 0.00318653
v -0.00621502 0.02291832 0.00311429
v -0.00656516 0.02229171 0.00320474
v -0.00686222 0.02153417 0.00275367
v -0.00665546 0.02206725 0.00307259
v -0.00629503 0.02208011 0.00475177
v -0.00543235 0.02153417 0.00475177
v -0.00587755 0.02395993 0.00475177
v -0.00583240 0.02404293 0.00475177
v -0.00558920 0.02448834 0.00475177
v -0.00548384 0.02468006 0.00475177
v -0.00542443 0.02478761 0.00475177
v -0.00530481 0.02500389 0.00475177
v -0.00529531 0.02498869 0.00448512
v -0.00509014 0.02535460 0.00448512
v -0.00449839 0.02640907 0.00448512
v -0.00447462 0.02636699 0.00405226
v -0.00456730 0.02610045 0.00361940
v -0.00454037 0.02605135 0.00326171
v -0.00532779 0.02461226 0.00318653
v -0.00540938 0.02432935 0.00284647
v -0.00673230 0.02178084 0.00275367
v -0.00669666 0.02171187 0.00245942
v -0.00677350 0.02153417 0.00239247
v -0.00628790 0.02262372 0.00275367
v 0.00098897 0.02153417 0.00475177
v -0.00450789 0.02642661 0.00475177
v -0.00435817 0.02665223 0.00448512
v -0.00430985 0.02665223 0.00405226
v -0.00444610 0.02631672 0.00361940
v -0.00451264 0.02600225 0.00297333
v -0.00417597 0.02667561 0.00321062
v -0.00443184 0.02620566 0.00314542
v -0.00529531 0.02447899 0.00272313
v -0.00537373 0.02426271 0.00255809
v -0.00572863 0.02368287 0.00275367
v -0.00657783 0.02187086 0.00231787
v -0.00666101 0.02164406 0.00217104
v -0.00674339 0.02153417 0.00227148
v -0.00581497 0.02341282 0.00252520
v 0.00098897 0.02153417 -0.00111095
v 0.00098897 0.03347709 0.00475177
v -0.00416488 0.02701347 0.00475177
v -0.00415696 0.02699827 0.00448512
v -0.00425202 0.02665223 0.00361940
v -0.00413161 0.02695618 0.00405226
v -0.00410309 0.02690708 0.00361940
v -0.00408567 0.02687786 0.00337154
v -0.00451661 0.02557672 0.00209528
v -0.00500696 0.02481216 0.00232081
v -0.00518837 0.02448834 0.00232081
v -0.00406111 0.02683577 0.00308258
v -0.00402308 0.02676680 0.00275367
v -0.00414508 0.02655053 0.00275367
v -0.00534363 0.02420660 0.00232081
v -0.00545850 0.02399033 0.00232081
v -0.00621977 0.02249512 0.00220393
v -0.00661506 0.02155638 0.00188795
v -0.00662615 0.02153417 0.00188795
v -0.00541413 0.02390616 0.00199719
v -0.00585537 0.02305626 0.00197605
v 0.00089550 0.02153417 -0.00112505
v 0.00098897 0.02189190 -0.00111742
v 0.00098897 0.03347125 0.00446809
v 0.00097709 0.03346307 0.00448512
v 0.00076083 0.03329356 0.00448512
v 0.00089233 0.03340111 0.00475177
v -0.00375691 0.02770554 0.00475177
v -0.00402863 0.02721454 0.00448512
v -0.00366502 0.02776282 0.00413742
v -0.00397555 0.02712336 0.00361940
v -0.00363175 0.02770554 0.00361940
v -0.00372681 0.02743666 0.00318653
v -0.00360007 0.02765176 0.00318653
v -0.00414349 0.02611447 0.00188795
v -0.00496814 0.02474436 0.00203889
v -0.00361353 0.02724143 0.00223271
v -0.00324280 0.02777919 0.00202186
v -0.00369433 0.02695268 0.00196489
v -0.00322854 0.02818718 0.00291930
v -0.00355491 0.02757461 0.00275367
v -0.00368166 0.02735950 0.00275367
v -0.00384009 0.02708595 0.00275367
v -0.00365235 0.02730923 0.00252168
v -0.00577853 0.02334502 0.00223682
v -0.00580626 0.02296391 0.00168767
v -0.00624591 0.02211168 0.00166829
v -0.00647247 0.02153417 0.00148915
v -0.00660001 0.02153417 0.00181982
v -0.00536660 0.02381614 0.00170940
v -0.00529293 0.02405346 0.00186739
v -0.00550523 0.02365247 0.00186739
v 0.00046297 0.02153417 -0.00116910
v 0.00089550 0.02189190 -0.00112916
v 0.00098897 0.02232444 -0.00112388
v 0.00098897 0.03345488 0.00405108
v 0.00075845 0.03329472 0.00475177
v 0.00077271 0.03328537 0.00405226
v 0.00052239 0.03306910 0.00405226
v 0.00051288 0.03307728 0.00448512
v 0.00050971 0.03307845 0.00475177
v -0.00364443 0.02789376 0.00475177
v -0.00355491 0.02801066 0.00448512
v -0.00368404 0.02779439 0.00448512
v -0.00355333 0.02792415 0.00401643
v -0.00348599 0.02794987 0.00361940
v -0.00342183 0.02794987 0.00318653
v -0.00446828 0.02549021 0.00180690
v -0.00357630 0.02709179 0.00184742
v -0.00364601 0.02686617 0.00167651
v -0.00491903 0.02465785 0.00175110
v -0.00505370 0.02450354 0.00189206
v -0.00350897 0.02747991 0.00235488
v -0.00328399 0.02784699 0.00232081
v -0.00277621 0.02858817 0.00213228
v -0.00239834 0.02911073 0.00196665
v -0.00226922 0.02925218 0.00184860
v -0.00319289 0.02769619 0.00173348
v -0.00333390 0.02753837 0.00188149
v -0.00332122 0.02796974 0.00276659
v -0.00325309 0.02822693 0.00318653
v -0.00311684 0.02844320 0.00318653
v -0.00237933 0.02950937 0.00283414
v -0.00234844 0.02946144 0.00254517
v -0.00531590 0.02371911 0.00145626
v -0.00608431 0.02228353 0.00149679
v -0.00538245 0.02341399 0.00123249
v -0.00626096 0.02170719 0.00120665
v -0.00629820 0.02153417 0.00110504
v -0.00618571 0.02199477 0.00137932
v -0.00500062 0.02436910 0.00154201
v -0.00510123 0.02409320 0.00142102
v 0.00003045 0.02153417 -0.00120082
v 0.00046297 0.02189190 -0.00117086
v 0.00089550 0.02275816 -0.00113797
v 0.00089550 0.02232444 -0.00113386
v 0.00098897 0.02275816 -0.00112799
v 0.00098897 0.03342332 0.00361940
v 0.00079252 0.03327134 0.00361940
v 0.00053348 0.03305507 0.00361940
v 0.00031721 0.03286101 0.00361940
v 0.00030533 0.03287270 0.00405226
v -0.00016601 0.03247640 0.00475177
v 0.00014214 0.03275229 0.00475177
v -0.00324597 0.02853790 0.00475177
v -0.00321586 0.02859986 0.00470243
v -0.00321586 0.02859986 0.00469538
v -0.00331409 0.02841281 0.00452447
v -0.00331409 0.02832513 0.00405226
v -0.00328557 0.02827954 0.00361940
v -0.00327528 0.02740860 0.00153085
v -0.00338539 0.02712803 0.00141397
v -0.00403734 0.02592743 0.00134115
v -0.00409834 0.02603498 0.00162952
v -0.00454908 0.02520262 0.00158430
v -0.00315090 0.02806327 0.00232081
v -0.00231833 0.02941351 0.00232081
v -0.00234764 0.02902772 0.00167886
v -0.00201335 0.02968589 0.00192260
v -0.00187630 0.02983436 0.00180102
v -0.00196899 0.02954561 0.00154377
v -0.00291088 0.02796273 0.00145509
v -0.00314932 0.02753837 0.00141397
v -0.00191116 0.02945442 0.00125481
v -0.00278255 0.02903123 0.00340620
v -0.00276433 0.02900201 0.00318653
v -0.00260827 0.02924867 0.00318653
v -0.00241102 0.02955613 0.00318653
v -0.00226605 0.02977240 0.00318653
v -0.00200780 0.03002375 0.00275367
v -0.00224862 0.02966485 0.00271550
v -0.00195394 0.02994893 0.00232081
v -0.00213851 0.02968122 0.00232081
v -0.00494042 0.02426154 0.00125363
v -0.00500062 0.02394123 0.00102340
v -0.00494675 0.02384069 0.00080550
v -0.00618650 0.02156457 0.00091827
v -0.00621739 0.02153417 0.00094763
v -0.00487467 0.02450354 0.00142102
v -0.00464018 0.02493959 0.00144628
v -0.00448967 0.02509624 0.00129592
v -0.00040287 0.02153417 -0.00122137
v 0.00003045 0.02189190 -0.00119847
v 0.00046297 0.02275816 -0.00116793
v 0.00046297 0.02232444 -0.00117028
v 0.00089550 0.02319070 -0.00113680
v 0.00098897 0.02319070 -0.00112740
v 0.00098897 0.03341981 0.00357535
v 0.00081707 0.03324913 0.00318653
v 0.00055566 0.03303286 0.00318653
v 0.00098897 0.03338474 0.00318653
v 0.00033939 0.03284230 0.00318653
v 0.00010808 0.03262603 0.00318653
v 0.00008749 0.03264474 0.00361940
v -0.00037752 0.03224025 0.00405226
v -0.00039257 0.03225311 0.00448512
v -0.00015888 0.03246938 0.00448512
v -0.00039732 0.03226012 0.00475177
v -0.00197136 0.03041070 0.00475177
v -0.00197453 0.03040836 0.00448512
v -0.00232309 0.02985774 0.00405226
v -0.00246964 0.02964147 0.00405226
v -0.00268590 0.02931648 0.00405226
v -0.00320081 0.02857647 0.00440701
v -0.00317863 0.02854140 0.00405226
v -0.00300673 0.02881496 0.00405226
v -0.00314932 0.02849581 0.00361940
v -0.00321349 0.02729988 0.00124189
v -0.00366661 0.02646986 0.00119842
v -0.00440887 0.02534992 0.00144628
v -0.00192225 0.02990451 0.00208999
v -0.00175114 0.03007519 0.00192260
v -0.00148814 0.03033588 0.00166359
v -0.00182719 0.02968589 0.00142220
v -0.00284117 0.02782712 0.00111326
v -0.00294969 0.02755240 0.00099051
v -0.00157369 0.03010675 0.00149385
v -0.00152616 0.02995711 0.00115672
v -0.00162994 0.02969525 0.00101694
v -0.00185095 0.02936441 0.00102340
v -0.00193017 0.02905227 0.00078671
v -0.00198800 0.02914697 0.00102340
v -0.00230724 0.02852971 0.00089536
v -0.00277383 0.02771957 0.00082488
v -0.00280235 0.02906163 0.00369516
v -0.00268273 0.02922295 0.00357828
v -0.00244112 0.02960055 0.00361940
v -0.00229615 0.02981800 0.00361940
v -0.00205850 0.03015702 0.00357887
v -0.00191670 0.03032887 0.00340796
v -0.00204979 0.03008454 0.00318653
v -0.00189611 0.03030198 0.00318653
v -0.00185254 0.03024119 0.00275367
v -0.00158479 0.03047032 0.00232081
v -0.00180105 0.03016520 0.00232081
v -0.00411894 0.02563867 0.00115966
v -0.00457047 0.02480749 0.00112560
v -0.00449759 0.02467655 0.00083663
v -0.00448175 0.02421712 0.00042021
v -0.00486120 0.02362325 0.00050126
v -0.00492774 0.02337307 0.00040083
v -0.00538482 0.02298612 0.00079728
v -0.00322775 0.02689306 0.00078553
v -0.00276749 0.02727533 0.00039554
v -0.00321665 0.02643947 0.00037146
v -0.00600905 0.02153417 0.00059935
v -0.00613818 0.02153417 0.00081314
v -0.00582289 0.02213038 0.00078847
v -0.00083539 0.02153417 -0.00123547
v -0.00083539 0.02189190 -0.00123136
v -0.00040287 0.02189190 -0.00121609
v 0.00003045 0.02232444 -0.00119377
v 0.00046297 0.02319070 -0.00116381
v 0.00089550 0.02362325 -0.00112740
v 0.00098897 0.02362325 -0.00111859
v 0.00085747 0.03321757 0.00275367
v 0.00059210 0.03300130 0.00275367
v 0.00098897 0.03332161 0.00275367
v 0.00037583 0.03281308 0.00275367
v 0.00013818 0.03259681 0.00275367
v -0.00010818 0.03242028 0.00318653
v -0.00012878 0.03244016 0.00361940
v -0.00059378 0.03203567 0.00405226
v -0.00060883 0.03205086 0.00448512
v -0.00047971 0.03218297 0.00475177
v -0.00182006 0.03062697 0.00475177
v -0.00181214 0.03062463 0.00448512
v -0.00195631 0.03038264 0.00405226
v -0.00214564 0.03011376 0.00405226
v -0.00193651 0.03035575 0.00369634
v -0.00282612 0.02909904 0.00405226
v -0.00316358 0.02720987 0.00102340
v -0.00152379 0.03038615 0.00188795
v -0.00142635 0.03024587 0.00137462
v -0.00136694 0.03060242 0.00188795
v -0.00115068 0.03089118 0.00188795
v -0.00109285 0.03081870 0.00157197
v -0.00103264 0.03073803 0.00128359
v -0.00112295 0.03042824 0.00102340
v -0.00134872 0.03010675 0.00101694
v -0.00145170 0.02984839 0.00086835
v -0.00182798 0.02889445 0.00049774
v -0.00192146 0.02860570 0.00036912
v -0.00229932 0.02808431 0.00044664
v -0.00239597 0.02824096 0.00073561
v -0.00154676 0.02955964 0.00071975
v -0.00286018 0.02743198 0.00068451
v -0.00154993 0.03084909 0.00361940
v -0.00135189 0.03102094 0.00318653
v -0.00149369 0.03077544 0.00292517
v -0.00161172 0.03057437 0.00277012
v -0.00146438 0.03073569 0.00263621
v -0.00142952 0.03068659 0.00232081
v -0.00404764 0.02551125 0.00087069
v -0.00411418 0.02476540 0.00033211
v -0.00456255 0.02392837 0.00031273
v -0.00462355 0.02358818 0.00016414
v -0.00500221 0.02308432 0.00030333
v -0.00580467 0.02166160 0.00038439
v -0.00544344 0.02275816 0.00070507
v -0.00238725 0.02779673 0.00032741
v -0.00247518 0.02751732 0.00023109
v -0.00235002 0.02730105 -0.00005846
v -0.00260114 0.02714440 0.00011833
v -0.00272393 0.02676329 0.00000615
v -0.00284592 0.02698658 0.00029452
v -0.00407141 0.02425687 -0.00004965
v -0.00443897 0.02370976 0.00002435
v -0.00588468 0.02189190 0.00069273
v -0.00595439 0.02153417 0.00051477
v -0.00091065 0.02153417 -0.00123782
v -0.00126792 0.02189190 -0.00124193
v -0.00083539 0.02232444 -0.00122314
v -0.00040287 0.02275816 -0.00120199
v 0.00003045 0.02275816 -0.00118731
v 0.00003045 0.02319070 -0.00117967
v 0.00003045 0.02362325 -0.00116969
v 0.00046297 0.02362325 -0.00115324
v 0.00089550 0.02405579 -0.00111213
v 0.00098897 0.02405579 -0.00110391
v 0.00064200 0.03295804 0.00232081
v 0.00098897 0.03327018 0.00250934
v 0.00042574 0.03276982 0.00232081
v 0.00018492 0.03255355 0.00232081
v -0.00007808 0.03238755 0.00275367
v -0.00032840 0.03220401 0.00318653
v -0.00057160 0.03201229 0.00361940
v -0.00035534 0.03222388 0.00361940
v -0.00076964 0.03179601 0.00361940
v -0.00079024 0.03181939 0.00405226
v -0.00080687 0.03183459 0.00448512
v -0.00061359 0.03205554 0.00475177
v -0.00102947 0.03160429 0.00475177
v -0.00073716 0.03192227 0.00475177
v -0.00168618 0.03080350 0.00475177
v -0.00160380 0.03090988 0.00475177
v -0.00159588 0.03090287 0.00448512
v -0.00157766 0.03088299 0.00405226
v -0.00179392 0.03059892 0.00405226
v -0.00102868 0.03116707 0.00218749
v -0.00098353 0.03110745 0.00188795
v -0.00068567 0.03127579 0.00145626
v -0.00092015 0.03096950 0.00143923
v -0.00063101 0.03121149 0.00121839
v -0.00096293 0.03064568 0.00102340
v -0.00106037 0.03034290 0.00079434
v -0.00112850 0.03007752 0.00062578
v -0.00105958 0.02990918 0.00036500
v -0.00153963 0.02911073 0.00031273
v -0.00166400 0.02875885 0.00019703
v -0.00179154 0.02838241 0.00007545
v -0.00138357 0.03106536 0.00361940
v -0.00113562 0.03130034 0.00318653
v -0.00109681 0.03125358 0.00275367
v -0.00133604 0.03094378 0.00277012
v -0.00106829 0.03121617 0.00247587
v -0.00119028 0.03100574 0.00232727
v -0.00452136 0.02342100 -0.00006668
v -0.00550682 0.02186618 0.00015591
v -0.00572150 0.02153417 0.00020877
v -0.00206405 0.02751732 -0.00017710
v -0.00243478 0.02701347 -0.00013481
v -0.00280314 0.02647454 -0.00007843
v -0.00187868 0.02810301 -0.00001970
v -0.00150002 0.02862207 -0.00007197
v -0.00157528 0.02838241 -0.00013246
v -0.00126792 0.02153417 -0.00124545
v -0.00134397 0.02153417 -0.00124604
v -0.00170123 0.02189190 -0.00124428
v -0.00126792 0.02232444 -0.00123077
v -0.00040287 0.02319070 -0.00119142
v 0.00003045 0.02405579 -0.00115442
v 0.00046297 0.02405579 -0.00113621
v 0.00089550 0.02448834 -0.00109392
v 0.00098897 0.02448834 -0.00108687
v 0.00067448 0.03293115 0.00209117
v 0.00098897 0.03324796 0.00240421
v 0.00022374 0.03251497 0.00204418
v -0.00003134 0.03233728 0.00232081
v -0.00029355 0.03217128 0.00275367
v -0.00054467 0.03198072 0.00318653
v -0.00074112 0.03176445 0.00318653
v -0.00098590 0.03155168 0.00361940
v -0.00100650 0.03157740 0.00405226
v -0.00102314 0.03159611 0.00448512
v -0.00120692 0.03137984 0.00448512
v -0.00121247 0.03138802 0.00475177
v -0.00153805 0.03099288 0.00475177
v -0.00142397 0.03111914 0.00448512
v -0.00140813 0.03109926 0.00405226
v -0.00062309 0.03163352 0.00209175
v -0.00074033 0.03142309 0.00192378
v -0.00057318 0.03157506 0.00180337
v -0.00050347 0.03149206 0.00145626
v -0.00053991 0.03110511 0.00093001
v -0.00066349 0.03081753 0.00074618
v -0.00072845 0.03096833 0.00105394
v -0.00022225 0.03166859 0.00118080
v -0.00013115 0.03156337 0.00089243
v -0.00095184 0.03019793 0.00050538
v -0.00080767 0.03051007 0.00062578
v -0.00055021 0.03067724 0.00045721
v -0.00066349 0.03038849 0.00032800
v -0.00078707 0.03004947 0.00020231
v -0.00062151 0.02990100 -0.00006081
v -0.00091303 0.02968122 0.00007016
v -0.00100888 0.02940766 -0.00002263
v -0.00140179 0.02891082 0.00002435
v -0.00116731 0.03133541 0.00361940
v -0.00095739 0.03151661 0.00318653
v -0.00091857 0.03146985 0.00275367
v -0.00065319 0.03166859 0.00232081
v -0.00415062 0.02396928 -0.00012424
v -0.00429559 0.02358818 -0.00018239
v -0.00406507 0.02337892 -0.00048016
v -0.00428846 0.02321642 -0.00036152
v -0.00457839 0.02319070 -0.00012131
v -0.00539354 0.02170485 -0.00007373
v -0.00531749 0.02199360 0.00001026
v -0.00567397 0.02153417 0.00015298
v -0.00215752 0.02712102 -0.00029809
v -0.00257421 0.02663236 -0.00019883
v -0.00287365 0.02621969 -0.00014127
v -0.00227001 0.02665223 -0.00043553
v -0.00271125 0.02587833 -0.00043788
v -0.00111344 0.02911891 -0.00010662
v -0.00126158 0.02878690 -0.00016594
v -0.00148893 0.02774061 -0.00049426
v -0.00177491 0.02751732 -0.00039324
v -0.00170123 0.02153417 -0.00124722
v -0.00213376 0.02153417 -0.00124252
v -0.00213376 0.02189190 -0.00123488
v -0.00170123 0.02232444 -0.00123253
v -0.00126792 0.02275816 -0.00121609
v -0.00126792 0.02319070 -0.00120140
v -0.00040287 0.02362325 -0.00117615
v -0.00040287 0.02405579 -0.00115794
v 0.00003045 0.02448834 -0.00113504
v -0.00126792 0.02362325 -0.00118378
v 0.00046297 0.02492205 -0.00109686
v 0.00089550 0.02492205 -0.00107395
v 0.00098897 0.02535460 -0.00104870
v 0.00098897 0.02492205 -0.00106808
v 0.00073786 0.03288322 0.00180279
v 0.00047723 0.03269968 0.00192378
v 0.00098897 0.03322575 0.00232081
v 0.00088758 0.03303403 0.00192319
v 0.00027919 0.03246237 0.00175580
v -0.00015730 0.03203099 0.00175697
v -0.00020562 0.03208126 0.00204535
v -0.00024364 0.03212101 0.00232081
v -0.00050981 0.03194097 0.00275367
v -0.00070231 0.03172353 0.00275367
v -0.00119187 0.03136113 0.00405226
v -0.00142873 0.03112732 0.00475177
v -0.00045990 0.03188486 0.00232081
v -0.00028721 0.03174341 0.00145626
v -0.00025077 0.03127462 0.00072269
v -0.00040049 0.03097769 0.00058995
v -0.00008996 0.03195968 0.00145626
v 0.00020156 0.03210698 0.00117023
v 0.00003520 0.03183927 0.00103104
v 0.00030375 0.03200995 0.00088185
v 0.00015720 0.03172120 0.00071388
v -0.00012719 0.03113901 0.00043431
v -0.00026186 0.03085026 0.00030627
v -0.00007491 0.03064451 0.00001789
v -0.00020879 0.03035575 -0.00007373
v -0.00037277 0.03007285 -0.00012013
v -0.00040287 0.02968122 -0.00027930
v -0.00099620 0.02852621 -0.00046431
v -0.00333073 0.02535460 -0.00016418
v -0.00378939 0.02448834 -0.00018591
v -0.00361512 0.02421478 -0.00046666
v -0.00369354 0.02392603 -0.00052421
v -0.00377830 0.02362325 -0.00057590
v -0.00413795 0.02309017 -0.00053185
v -0.00450393 0.02252318 -0.00048486
v -0.00444135 0.02275816 -0.00043494
v -0.00473366 0.02272776 -0.00019355
v -0.00493883 0.02166160 -0.00048662
v -0.00510360 0.02153417 -0.00039970
v -0.00520183 0.02153417 -0.00031454
v -0.00543552 0.02153417 -0.00011191
v -0.00186680 0.02722974 -0.00046078
v -0.00316358 0.02504714 -0.00045256
v -0.00196503 0.02694216 -0.00052010
v -0.00233972 0.02641959 -0.00048486
v -0.00279284 0.02558957 -0.00049896
v -0.00125207 0.02838241 -0.00036094
v -0.00109681 0.02823862 -0.00051540
v -0.00125207 0.02791129 -0.00054771
v -0.00170123 0.02665223 -0.00073624
v -0.00171391 0.02708595 -0.00059528
v -0.00256628 0.02153417 -0.00122314
v -0.00213376 0.02232444 -0.00121961
v -0.00170123 0.02275816 -0.00121550
v -0.00126792 0.02405579 -0.00116381
v -0.00040287 0.02492205 -0.00111683
v 0.00003045 0.02578714 -0.00106632
v 0.00046297 0.02535460 -0.00107689
v -0.00170123 0.02319070 -0.00119788
v 0.00089550 0.02535460 -0.00105398
v 0.00098897 0.02578714 -0.00102403
v 0.00098897 0.03300013 0.00164010
v 0.00098897 0.03294635 0.00150677
v 0.00088758 0.03282828 0.00141867
v 0.00056992 0.03259096 0.00145626
v 0.00098897 0.03310066 0.00191379
v 0.00035365 0.03239690 0.00145626
v 0.00012630 0.03218063 0.00145626
v 0.00064438 0.03252316 0.00119490
v 0.00077271 0.03242496 0.00090652
v 0.00059210 0.03213620 0.00072093
v 0.00044951 0.03186031 0.00057292
v 0.00030612 0.03156805 0.00042491
v 0.00016116 0.03128047 0.00030568
v 0.00004312 0.03096833 0.00016179
v 0.00021344 0.03079765 -0.00007726
v 0.00003045 0.03011376 -0.00029574
v 0.00005342 0.03051942 -0.00012659
v -0.00058190 0.02899499 -0.00047781
v -0.00070785 0.02870624 -0.00052832
v -0.00324280 0.02475839 -0.00051188
v -0.00286018 0.02535460 -0.00054242
v -0.00331964 0.02448834 -0.00056121
v -0.00389792 0.02321642 -0.00063463
v -0.00345510 0.02406515 -0.00062112
v -0.00422509 0.02275816 -0.00058412
v -0.00475742 0.02153417 -0.00063228
v -0.00480971 0.02153417 -0.00060115
v -0.00205375 0.02665223 -0.00056944
v -0.00242290 0.02613084 -0.00053713
v -0.00084569 0.02838241 -0.00057472
v -0.00126792 0.02751732 -0.00065812
v -0.00083539 0.02794987 -0.00070041
v -0.00126792 0.02708595 -0.00077676
v -0.00168222 0.02621384 -0.00085488
v -0.00213376 0.02578714 -0.00078557
v -0.00217099 0.02625359 -0.00063169
v -0.00299960 0.02153417 -0.00118966
v -0.00256628 0.02189190 -0.00121021
v -0.00256628 0.02232444 -0.00118966
v -0.00213376 0.02275816 -0.00119494
v -0.00170123 0.02362325 -0.00117497
v -0.00126792 0.02448834 -0.00113562
v -0.00083539 0.02492205 -0.00111507
v -0.00040287 0.02535460 -0.00109334
v 0.00046297 0.02578714 -0.00105222
v -0.00040287 0.02578714 -0.00106338
v 0.00003045 0.02621969 -0.00103343
v 0.00089550 0.02578714 -0.00102932
v 0.00089550 0.02621969 -0.00099643
v 0.00098897 0.02612616 -0.00099819
v 0.00098897 0.03286919 0.00134467
v 0.00090817 0.03261668 0.00103985
v 0.00098897 0.03239456 0.00068451
v 0.00098897 0.03257109 0.00089595
v 0.00077192 0.03200060 0.00043255
v 0.00059527 0.03171184 0.00031860
v 0.00046297 0.03088650 -0.00012365
v 0.00046297 0.03054631 -0.00027107
v 0.00090817 0.03185213 0.00025635
v 0.00086698 0.03141958 0.00001613
v 0.00000431 0.02970577 -0.00044610
v -0.00015730 0.02943923 -0.00048369
v -0.00029276 0.02915047 -0.00052715
v -0.00042346 0.02883717 -0.00057883
v -0.00301148 0.02491036 -0.00060291
v -0.00299960 0.02448834 -0.00074270
v -0.00343133 0.02362325 -0.00076619
v -0.00382742 0.02272776 -0.00080966
v -0.00433441 0.02235718 -0.00063698
v -0.00434312 0.02153417 -0.00085018
v -0.00393357 0.02232444 -0.00085958
v -0.00256628 0.02535460 -0.00070452
v -0.00040287 0.02838241 -0.00070805
v -0.00083539 0.02751732 -0.00079908
v -0.00126713 0.02666159 -0.00087896
v -0.00141130 0.02635413 -0.00090891
v -0.00183828 0.02578714 -0.00090069
v -0.00229061 0.02506117 -0.00090656
v -0.00254806 0.02491854 -0.00083961
v -0.00343133 0.02153417 -0.00112916
v -0.00299960 0.02189190 -0.00117028
v -0.00256628 0.02275816 -0.00115794
v -0.00213376 0.02362325 -0.00113739
v -0.00213376 0.02319070 -0.00116734
v -0.00170123 0.02405579 -0.00114502
v -0.00170123 0.02448834 -0.00110626
v -0.00126792 0.02492205 -0.00109568
v -0.00083539 0.02535460 -0.00108276
v 0.00046297 0.02621969 -0.00101874
v -0.00040287 0.02621969 -0.00102755
v 0.00003045 0.02665223 -0.00099290
v 0.00089550 0.02665223 -0.00095884
v 0.00098897 0.02655871 -0.00096177
v 0.00098897 0.02621969 -0.00099055
v 0.00098897 0.03266344 0.00103221
v 0.00098897 0.03217478 0.00047366
v 0.00098897 0.03197955 0.00030568
v 0.00098897 0.03128397 -0.00009076
v 0.00098897 0.03127345 -0.00009546
v 0.00086698 0.03101393 -0.00017123
v 0.00089550 0.03054631 -0.00035271
v 0.00045664 0.03009506 -0.00043141
v 0.00030771 0.02986710 -0.00048310
v 0.00098897 0.03184979 0.00022992
v 0.00098897 0.03145816 0.00000380
v 0.00013105 0.02957834 -0.00052069
v -0.00299326 0.02408151 -0.00085723
v -0.00343529 0.02323045 -0.00086956
v -0.00358264 0.02285168 -0.00089834
v -0.00412686 0.02153417 -0.00094180
v -0.00401833 0.02197841 -0.00089893
v -0.00365869 0.02256293 -0.00092888
v 0.00003045 0.02881496 -0.00067927
v -0.00040287 0.02794987 -0.00080026
v -0.00097006 0.02681122 -0.00091420
v -0.00112295 0.02652364 -0.00093887
v -0.00152616 0.02606537 -0.00093593
v -0.00191512 0.02556736 -0.00092360
v -0.00239121 0.02477242 -0.00093887
v -0.00269065 0.02448834 -0.00088953
v -0.00386544 0.02153417 -0.00102286
v -0.00343133 0.02189190 -0.00109568
v -0.00299960 0.02232444 -0.00113739
v -0.00213376 0.02405579 -0.00109803
v -0.00170123 0.02492205 -0.00105633
v -0.00126792 0.02578714 -0.00100993
v -0.00126792 0.02535460 -0.00105516
v -0.00083539 0.02621969 -0.00100289
v 0.00046297 0.02665223 -0.00097763
v 0.00089550 0.02693397 -0.00093241
v -0.00040287 0.02665223 -0.00098644
v -0.00018661 0.02730222 -0.00092418
v -0.00000758 0.02712453 -0.00094357
v 0.00011204 0.02729404 -0.00092360
v 0.00046297 0.02702516 -0.00094063
v 0.00098897 0.02665106 -0.00095355
v 0.00098897 0.02691410 -0.00092947
v 0.00098897 0.03054631 -0.00035389
v 0.00089550 0.03018741 -0.00045491
v 0.00059606 0.02993841 -0.00050248
v 0.00045664 0.02970577 -0.00054007
v -0.00276274 0.02424284 -0.00091772
v -0.00329429 0.02311238 -0.00095355
v -0.00284513 0.02395409 -0.00094826
v -0.00387019 0.02185683 -0.00097411
v -0.00371731 0.02232444 -0.00095120
v -0.00343529 0.02272776 -0.00097469
v 0.00046297 0.02924867 -0.00063757
v 0.00003045 0.02838241 -0.00076737
v 0.00003045 0.02794987 -0.00084137
v -0.00035930 0.02747524 -0.00088307
v -0.00047496 0.02720987 -0.00091126
v -0.00068171 0.02692111 -0.00093182
v -0.00082985 0.02666159 -0.00095179
v -0.00126713 0.02621384 -0.00095707
v -0.00162202 0.02578714 -0.00095766
v -0.00213376 0.02448834 -0.00104694
v -0.00214089 0.02491854 -0.00097646
v -0.00247360 0.02448834 -0.00096412
v -0.00343133 0.02232444 -0.00103930
v -0.00299960 0.02275816 -0.00109099
v -0.00256628 0.02362325 -0.00107160
v 0.00098897 0.02751732 -0.00086839
v -0.00035930 0.02707309 -0.00094063
v -0.00000758 0.02747524 -0.00090480
v -0.00017631 0.02730222 -0.00092418
v 0.00046297 0.02794987 -0.00083843
v 0.00046297 0.02751732 -0.00088894
v 0.00098897 0.03012078 -0.00046900
v 0.00089550 0.02997114 -0.00051012
v -0.00259718 0.02408151 -0.00099643
v 0.00089550 0.02924867 -0.00064873
v 0.00046297 0.02881496 -0.00071392
v 0.00089550 0.02968122 -0.00056944
v 0.00046297 0.02838241 -0.00077911
v 0.00098897 0.02794987 -0.00081846
v 0.00089550 0.02881496 -0.00071627
v 0.00089550 0.02838241 -0.00076972
v 0.00098897 0.02828889 -0.00077794
v 0.00098897 0.02996530 -0.00050835
v 0.00098897 0.02924867 -0.00064403
v 0.00098897 0.02915515 -0.00065930
v 0.00098897 0.02958769 -0.00058236
v 0.00098897 0.02968823 -0.00056298
v 0.00098897 0.02881496 -0.00071216
v 0.00098897 0.02872144 -0.00072390
f 1 2 3
f 1 3 4
f 1 4 5
f 1 5 6
f 1 6 7
f 1 7 8
f 1 8 25
f 1 25 24
f 1 24 47
f 1 47 67
f 1 67 82
f 1 82 102
f 1 102 132
f 1 132 131
f 1 131 172
f 1 172 221
f 1 221 290
f 1 290 289
f 1 289 353
f 1 353 403
f 1 403 463
f 1 463 527
f 1 527 526
f 1 526 525
f 1 525 574
f 1 574 573
f 1 573 617
f 1 617 657
f 1 657 668
f 1 668 627
f 1 627 584
f 1 584 538
f 1 538 474
f 1 474 473
f 1 473 411
f 1 411 410
f 1 410 354
f 1 354 292
f 1 292 225
f 1 225 176
f 1 176 136
f 1 136 105
f 1 105 84
f 1 84 69
f 1 69 50
f 1 50 27
f 1 27 11
f 1 11 9
f 1 9 2
f 2 9 3
f 3 10 26
f 3 26 49
f 3 49 50
f 3 50 69
f 3 69 85
f 3 85 110
f 3 110 140
f 3 140 144
f 3 144 187
f 3 187 186
f 3 186 241
f 3 241 308
f 3 308 375
f 3 375 377
f 3 377 376
f 3 376 430
f 3 430 498
f 3 498 431
f 3 431 379
f 3 379 378
f 3 378 309
f 3 309 242
f 3 242 188
f 3 188 145
f 3 145 111
f 3 111 86
f 3 86 70
f 3 70 56
f 3 56 55
f 3 55 54
f 3 54 53
f 3 53 52
f 3 52 51
f 3 51 28
f 3 28 12
f 3 12 4
f 3 9 11
f 3 11 10
f 4 12 5
f 5 13 14
f 5 14 15
f 5 15 6
f 5 12 16
f 5 16 17
f 5 17 18
f 5 18 19
f 5 19 20
f 5 20 13
f 6 15 7
f 7 15 21
f 7 21 22
f 7 22 23
f 7 23 24
f 7 24 25
f 7 25 8
f 10 11 26
f 11 27 26
f 12 28 16
f 13 20 29
f 13 29 30
f 13 30 14
f 14 31 15
f 14 30 31
f 15 31 21
f 16 28 32
f 16 32 17
f 17 32 33
f 17 33 34
f 17 34 35
f 17 35 36
f 17 36 37
f 17 37 38
f 17 38 39
f 17 39 18
f 18 40 19
f 18 39 40
f 19 40 29
f 19 29 20
f 21 31 22
f 22 31 30
f 22 30 41
f 22 41 42
f 22 42 43
f 22 43 44
f 22 44 23
f 23 45 46
f 23 46 24
f 23 44 45
f 24 46 45
f 24 45 48
f 24 48 47
f 26 27 49
f 27 50 49
f 28 51 33
f 28 33 32
f 29 40 30
f 30 40 39
f 30 39 41
f 33 51 52
f 33 52 53
f 33 53 34
f 34 53 54
f 34 54 55
f 34 55 56
f 34 56 57
f 34 57 35
f 35 37 36
f 35 57 58
f 35 58 59
f 35 59 60
f 35 60 37
f 37 61 38
f 37 60 73
f 37 73 61
f 38 61 62
f 38 62 39
f 39 62 63
f 39 63 41
f 41 64 42
f 41 63 64
f 42 64 43
f 43 64 44
f 44 64 45
f 45 64 48
f 47 48 65
f 47 65 66
f 47 66 67
f 48 68 65
f 48 64 68
f 56 70 57
f 57 70 58
f 58 70 59
f 59 70 71
f 59 71 60
f 60 71 72
f 60 72 73
f 61 73 62
f 62 74 63
f 62 73 75
f 62 75 76
f 62 76 74
f 63 74 64
f 64 74 77
f 64 77 78
f 64 78 79
f 64 79 68
f 65 68 66
f 66 68 80
f 66 80 81
f 66 81 67
f 67 81 82
f 68 79 83
f 68 83 80
f 69 84 106
f 69 106 138
f 69 138 180
f 69 180 230
f 69 230 298
f 69 298 363
f 69 363 418
f 69 418 486
f 69 486 485
f 69 485 547
f 69 547 597
f 69 597 641
f 69 641 640
f 69 640 683
f 69 683 684
f 69 684 710
f 69 710 723
f 69 723 726
f 69 726 733
f 69 733 732
f 69 732 729
f 69 729 728
f 69 728 730
f 69 730 731
f 69 731 727
f 69 727 716
f 69 716 685
f 69 685 646
f 69 646 645
f 69 645 652
f 69 652 651
f 69 651 644
f 69 644 643
f 69 643 600
f 69 600 601
f 69 601 642
f 69 642 598
f 69 598 549
f 69 549 548
f 69 548 552
f 69 552 489
f 69 489 420
f 69 420 365
f 69 365 301
f 69 301 234
f 69 234 231
f 69 231 181
f 69 181 139
f 69 139 107
f 69 107 85
f 70 86 87
f 70 87 71
f 71 87 72
f 72 88 73
f 72 87 89
f 72 89 90
f 72 90 88
f 73 88 91
f 73 91 75
f 74 92 93
f 74 93 94
f 74 94 78
f 74 78 77
f 74 76 95
f 74 95 96
f 74 96 97
f 74 97 92
f 75 95 76
f 75 91 95
f 78 94 98
f 78 98 99
f 78 99 83
f 78 83 79
f 80 100 81
f 80 83 100
f 81 101 102
f 81 102 82
f 81 100 103
f 81 103 104
f 81 104 101
f 83 99 100
f 84 105 106
f 85 107 108
f 85 108 109
f 85 109 110
f 86 111 87
f 87 112 113
f 87 113 89
f 87 111 112
f 88 90 91
f 89 114 90
f 89 113 115
f 89 115 114
f 90 114 91
f 91 116 95
f 91 114 115
f 91 115 117
f 91 117 116
f 92 118 119
f 92 119 93
f 92 97 96
f 92 96 120
f 92 120 121
f 92 121 122
f 92 122 118
f 93 119 94
f 94 119 98
f 95 116 117
f 95 117 123
f 95 123 124
f 95 124 125
f 95 125 126
f 95 126 96
f 96 126 127
f 96 127 120
f 98 119 103
f 98 103 128
f 98 128 99
f 99 128 100
f 100 128 103
f 101 129 130
f 101 130 131
f 101 131 132
f 101 132 102
f 101 104 133
f 101 133 129
f 103 119 134
f 103 134 133
f 103 133 135
f 103 135 104
f 104 135 133
f 105 136 137
f 105 137 138
f 105 138 106
f 107 139 108
f 108 139 109
f 109 140 110
f 109 139 141
f 109 141 142
f 109 142 143
f 109 143 144
f 109 144 140
f 111 145 146
f 111 146 147
f 111 147 112
f 112 147 113
f 113 147 146
f 113 146 148
f 113 148 115
f 115 148 149
f 115 149 117
f 117 149 150
f 117 150 123
f 118 151 119
f 118 122 152
f 118 152 153
f 118 153 151
f 119 151 154
f 119 154 155
f 119 155 134
f 120 127 156
f 120 156 121
f 121 157 158
f 121 158 159
f 121 159 160
f 121 160 161
f 121 161 162
f 121 162 122
f 121 156 157
f 122 162 152
f 123 157 163
f 123 163 124
f 123 150 164
f 123 164 165
f 123 165 166
f 123 166 167
f 123 167 157
f 124 163 157
f 124 157 127
f 124 127 125
f 125 127 126
f 127 157 156
f 129 133 168
f 129 168 130
f 130 169 131
f 130 168 170
f 130 170 169
f 131 171 172
f 131 169 173
f 131 173 171
f 133 134 154
f 133 154 174
f 133 174 175
f 133 175 168
f 134 155 154
f 136 176 177
f 136 177 178
f 136 178 179
f 136 179 137
f 137 179 138
f 138 179 178
f 138 178 180
f 139 181 182
f 139 182 141
f 141 182 183
f 141 183 142
f 142 183 184
f 142 184 185
f 142 185 186
f 142 186 143
f 143 187 144
f 143 186 187
f 145 188 189
f 145 189 190
f 145 190 146
f 146 191 192
f 146 192 148
f 146 190 191
f 148 192 193
f 148 193 149
f 149 193 150
f 150 193 164
f 151 153 154
f 152 162 153
f 153 162 161
f 153 161 194
f 153 194 195
f 153 195 196
f 153 196 197
f 153 197 154
f 154 197 198
f 154 198 174
f 157 167 199
f 157 199 158
f 158 199 200
f 158 200 159
f 159 200 160
f 160 201 161
f 160 200 202
f 160 202 203
f 160 203 204
f 160 204 201
f 161 205 206
f 161 206 194
f 161 201 207
f 161 207 205
f 164 193 208
f 164 208 165
f 165 208 209
f 165 209 166
f 166 209 210
f 166 210 211
f 166 211 212
f 166 212 213
f 166 213 214
f 166 214 167
f 167 214 215
f 167 215 216
f 167 216 200
f 167 200 199
f 168 175 217
f 168 217 170
f 169 170 173
f 170 217 218
f 170 218 219
f 170 219 171
f 170 171 173
f 171 220 221
f 171 221 172
f 171 219 220
f 174 222 217
f 174 217 175
f 174 198 223
f 174 223 224
f 174 224 222
f 176 225 226
f 176 226 227
f 176 227 228
f 176 228 177
f 177 228 178
f 178 228 229
f 178 229 230
f 178 230 180
f 181 231 182
f 182 232 233
f 182 233 183
f 182 231 234
f 182 234 232
f 183 233 235
f 183 235 184
f 184 235 236
f 184 236 237
f 184 237 238
f 184 238 239
f 184 239 240
f 184 240 185
f 185 240 186
f 186 240 239
f 186 239 241
f 188 242 189
f 189 242 243
f 189 243 190
f 190 243 244
f 190 244 245
f 190 245 246
f 190 246 247
f 190 247 191
f 191 247 192
f 192 247 248
f 192 248 193
f 193 248 249
f 193 249 250
f 193 250 208
f 194 251 195
f 194 206 251
f 195 251 196
f 196 224 197
f 196 251 252
f 196 252 224
f 197 224 253
f 197 253 198
f 198 253 224
f 198 224 223
f 200 216 254
f 200 254 202
f 201 204 207
f 202 254 203
f 203 254 255
f 203 255 256
f 203 256 204
f 204 256 257
f 204 257 207
f 205 258 206
f 205 207 258
f 206 258 259
f 206 259 251
f 207 257 260
f 207 260 261
f 207 261 262
f 207 262 263
f 207 263 264
f 207 264 265
f 207 265 266
f 207 266 267
f 207 267 258
f 208 249 268
f 208 268 269
f 208 269 211
f 208 211 210
f 208 210 209
f 208 250 249
f 211 270 271
f 211 271 212
f 211 269 270
f 212 271 272
f 212 272 273
f 212 273 274
f 212 274 213
f 213 274 275
f 213 275 276
f 213 276 277
f 213 277 278
f 213 278 215
f 213 215 214
f 215 278 254
f 215 254 216
f 217 219 218
f 217 222 224
f 217 224 279
f 217 279 280
f 217 280 281
f 217 281 219
f 219 282 283
f 219 283 284
f 219 284 285
f 219 285 220
f 219 281 286
f 219 286 287
f 219 287 288
f 219 288 282
f 220 289 290
f 220 290 221
f 220 285 291
f 220 291 289
f 224 252 279
f 225 292 293
f 225 293 294
f 225 294 295
f 225 295 226
f 226 295 296
f 226 296 227
f 227 296 229
f 227 229 228
f 229 297 298
f 229 298 230
f 229 296 297
f 232 299 300
f 232 300 233
f 232 234 301
f 232 301 299
f 233 300 302
f 233 302 235
f 235 302 303
f 235 303 236
f 236 303 304
f 236 304 305
f 236 305 237
f 237 305 306
f 237 306 238
f 238 306 307
f 238 307 239
f 239 307 241
f 241 307 308
f 242 309 243
f 243 309 310
f 243 310 382
f 243 382 311
f 243 311 312
f 243 312 244
f 244 312 313
f 244 313 272
f 244 272 271
f 244 271 245
f 245 271 270
f 245 270 246
f 246 269 314
f 246 314 247
f 246 270 269
f 247 314 249
f 247 249 248
f 249 314 268
f 251 315 252
f 251 259 315
f 252 315 279
f 254 278 277
f 254 277 316
f 254 316 255
f 255 316 256
f 256 317 260
f 256 260 257
f 256 316 318
f 256 318 319
f 256 319 320
f 256 320 321
f 256 321 317
f 258 267 259
f 259 267 315
f 260 317 261
f 261 317 321
f 261 321 322
f 261 322 323
f 261 323 324
f 261 324 262
f 262 324 263
f 263 324 264
f 264 325 326
f 264 326 327
f 264 327 287
f 264 287 328
f 264 328 267
f 264 267 266
f 264 266 265
f 264 324 329
f 264 329 325
f 267 328 330
f 267 330 286
f 267 286 315
f 268 314 269
f 272 313 273
f 273 275 274
f 273 313 331
f 273 331 332
f 273 332 333
f 273 333 275
f 275 333 334
f 275 334 276
f 276 334 335
f 276 335 336
f 276 336 277
f 277 336 316
f 279 315 286
f 279 286 280
f 280 286 337
f 280 337 281
f 281 337 286
f 282 338 339
f 282 339 284
f 282 284 283
f 282 288 338
f 284 339 340
f 284 340 341
f 284 341 342
f 284 342 343
f 284 343 285
f 285 343 291
f 286 330 287
f 287 330 328
f 287 327 326
f 287 326 344
f 287 344 345
f 287 345 346
f 287 346 347
f 287 347 348
f 287 348 349
f 287 349 288
f 288 349 348
f 288 348 350
f 288 350 351
f 288 351 338
f 289 291 352
f 289 352 342
f 289 342 353
f 291 343 352
f 292 354 293
f 293 354 355
f 293 355 356
f 293 356 357
f 293 357 358
f 293 358 294
f 294 358 295
f 295 358 296
f 296 358 359
f 296 359 360
f 296 360 361
f 296 361 297
f 297 361 362
f 297 362 363
f 297 363 298
f 299 301 364
f 299 364 300
f 300 364 366
f 300 366 302
f 301 365 364
f 302 366 367
f 302 367 303
f 303 367 368
f 303 368 304
f 304 368 369
f 304 369 370
f 304 370 371
f 304 371 305
f 305 371 306
f 306 371 370
f 306 370 372
f 306 372 373
f 306 373 374
f 306 374 307
f 307 375 308
f 307 374 376
f 307 376 377
f 307 377 375
f 309 378 310
f 310 378 379
f 310 379 380
f 310 380 381
f 310 381 382
f 311 313 312
f 311 382 313
f 313 382 381
f 313 381 331
f 316 336 318
f 318 336 319
f 319 336 383
f 319 383 384
f 319 384 320
f 320 384 385
f 320 385 386
f 320 386 321
f 321 386 387
f 321 387 388
f 321 388 322
f 322 388 389
f 322 389 323
f 323 389 324
f 324 389 390
f 324 390 329
f 325 329 391
f 325 391 326
f 326 391 392
f 326 392 393
f 326 393 394
f 326 394 346
f 326 346 345
f 326 345 344
f 329 390 391
f 331 381 395
f 331 395 332
f 332 395 396
f 332 396 397
f 332 397 333
f 333 397 398
f 333 398 335
f 333 335 334
f 335 398 399
f 335 399 336
f 336 399 400
f 336 400 383
f 338 351 339
f 339 351 401
f 339 401 340
f 340 401 341
f 341 401 342
f 342 401 402
f 342 402 403
f 342 403 353
f 342 352 343
f 346 404 405
f 346 405 406
f 346 406 348
f 346 348 347
f 346 394 407
f 346 407 408
f 346 408 409
f 346 409 404
f 348 406 350
f 350 401 351
f 350 406 401
f 354 410 355
f 355 410 411
f 355 411 412
f 355 412 413
f 355 413 356
f 356 413 414
f 356 414 357
f 357 414 360
f 357 360 359
f 357 359 358
f 360 415 361
f 360 414 479
f 360 479 415
f 361 415 416
f 361 416 362
f 362 416 417
f 362 417 418
f 362 418 363
f 364 419 366
f 364 365 420
f 364 420 419
f 366 419 421
f 366 421 367
f 367 421 422
f 367 422 368
f 368 422 423
f 368 423 369
f 369 423 424
f 369 424 370
f 370 424 372
f 372 425 426
f 372 426 427
f 372 427 373
f 372 424 425
f 373 427 428
f 373 428 374
f 374 428 376
f 376 428 429
f 376 429 430
f 379 431 380
f 380 431 432
f 380 432 433
f 380 433 381
f 381 433 395
f 383 400 399
f 383 399 434
f 383 434 384
f 384 434 435
f 384 435 436
f 384 436 385
f 385 387 386
f 385 436 437
f 385 437 387
f 387 438 439
f 387 439 440
f 387 440 388
f 387 437 441
f 387 441 442
f 387 442 438
f 388 440 439
f 388 439 389
f 389 443 391
f 389 391 390
f 389 439 444
f 389 444 443
f 391 443 445
f 391 445 446
f 391 446 447
f 391 447 448
f 391 448 449
f 391 449 450
f 391 450 451
f 391 451 392
f 392 451 393
f 393 408 394
f 393 451 408
f 394 408 407
f 395 433 452
f 395 452 396
f 396 452 453
f 396 453 454
f 396 454 397
f 397 399 398
f 397 454 399
f 399 454 455
f 399 455 434
f 401 456 457
f 401 457 458
f 401 458 459
f 401 459 460
f 401 460 461
f 401 461 462
f 401 462 402
f 401 406 456
f 402 462 461
f 402 461 463
f 402 463 403
f 404 464 405
f 404 409 464
f 405 465 466
f 405 466 406
f 405 464 467
f 405 467 468
f 405 468 465
f 406 466 456
f 408 451 450
f 408 450 448
f 408 448 469
f 408 469 470
f 408 470 409
f 409 470 471
f 409 471 472
f 409 472 464
f 411 473 412
f 412 473 474
f 412 474 475
f 412 475 476
f 412 476 413
f 413 476 477
f 413 477 414
f 414 477 478
f 414 478 479
f 415 480 481
f 415 481 416
f 415 479 482
f 415 482 480
f 416 481 483
f 416 483 417
f 417 483 484
f 417 484 485
f 417 485 486
f 417 486 418
f 419 487 488
f 419 488 421
f 419 420 489
f 419 489 490
f 419 490 487
f 421 488 491
f 421 491 492
f 421 492 493
f 421 493 422
f 422 493 494
f 422 494 423
f 423 494 495
f 423 495 424
f 424 495 425
f 425 495 496
f 425 496 453
f 425 453 426
f 426 453 452
f 426 452 497
f 426 497 427
f 427 497 428
f 428 497 429
f 429 497 432
f 429 432 430
f 430 432 498
f 431 498 432
f 432 497 433
f 433 497 452
f 434 455 499
f 434 499 493
f 434 493 492
f 434 492 436
f 434 436 435
f 436 500 437
f 436 492 500
f 437 500 441
f 438 442 439
f 439 442 501
f 439 501 502
f 439 502 445
f 439 445 444
f 441 500 503
f 441 503 504
f 441 504 505
f 441 505 442
f 442 505 506
f 442 506 507
f 442 507 501
f 443 444 445
f 445 502 508
f 445 508 509
f 445 509 446
f 446 509 448
f 446 448 447
f 448 450 449
f 448 509 510
f 448 510 511
f 448 511 512
f 448 512 513
f 448 513 514
f 448 514 469
f 453 496 454
f 454 496 455
f 455 496 495
f 455 495 499
f 456 515 516
f 456 516 457
f 456 466 515
f 457 516 517
f 457 517 458
f 458 517 518
f 458 518 519
f 458 519 520
f 458 520 521
f 458 521 522
f 458 522 459
f 459 522 460
f 460 522 523
f 460 523 461
f 461 523 522
f 461 522 521
f 461 521 524
f 461 524 525
f 461 525 526
f 461 526 527
f 461 527 463
f 464 472 528
f 464 528 467
f 465 468 529
f 465 529 517
f 465 517 466
f 466 517 515
f 467 528 530
f 467 530 531
f 467 531 468
f 468 532 529
f 468 531 532
f 469 514 470
f 470 514 533
f 470 533 471
f 471 533 514
f 471 514 534
f 471 534 535
f 471 535 536
f 471 536 537
f 471 537 530
f 471 530 528
f 471 528 472
f 474 538 475
f 475 539 476
f 475 538 539
f 476 539 540
f 476 540 478
f 476 478 477
f 478 540 545
f 478 545 482
f 478 482 479
f 480 482 481
f 481 482 541
f 481 541 542
f 481 542 543
f 481 543 544
f 481 544 483
f 482 545 541
f 483 544 546
f 483 546 484
f 484 546 485
f 485 546 595
f 485 595 547
f 487 490 548
f 487 548 549
f 487 549 550
f 487 550 551
f 487 551 491
f 487 491 488
f 489 552 490
f 490 552 548
f 491 553 554
f 491 554 492
f 491 551 553
f 492 554 503
f 492 503 500
f 493 499 494
f 494 499 495
f 501 508 502
f 501 507 508
f 503 554 504
f 504 506 505
f 504 554 553
f 504 553 555
f 504 555 506
f 506 556 557
f 506 557 507
f 506 555 556
f 507 557 558
f 507 558 559
f 507 559 508
f 508 559 560
f 508 560 509
f 509 560 561
f 509 561 510
f 510 561 562
f 510 562 511
f 511 563 513
f 511 513 512
f 511 562 564
f 511 564 563
f 513 563 565
f 513 565 514
f 514 565 566
f 514 566 534
f 515 517 516
f 517 529 532
f 517 532 567
f 517 567 518
f 518 567 568
f 518 568 569
f 518 569 519
f 519 570 520
f 519 569 571
f 519 571 570
f 520 572 521
f 520 570 572
f 521 572 524
f 524 573 574
f 524 574 525
f 524 572 573
f 530 537 575
f 530 575 576
f 530 576 531
f 531 576 568
f 531 568 532
f 532 568 567
f 534 577 578
f 534 578 536
f 534 536 535
f 534 566 577
f 536 578 579
f 536 579 580
f 536 580 581
f 536 581 582
f 536 582 583
f 536 583 575
f 536 575 537
f 538 584 585
f 538 585 539
f 539 585 586
f 539 586 587
f 539 587 588
f 539 588 545
f 539 545 540
f 541 545 588
f 541 588 589
f 541 589 590
f 541 590 591
f 541 591 542
f 542 591 543
f 543 592 544
f 543 591 593
f 543 593 594
f 543 594 592
f 544 592 595
f 544 595 546
f 547 595 596
f 547 596 597
f 549 598 550
f 550 598 555
f 550 555 551
f 551 555 553
f 555 598 599
f 555 599 556
f 556 600 557
f 556 599 601
f 556 601 600
f 557 602 558
f 557 600 602
f 558 602 559
f 559 602 603
f 559 603 560
f 560 603 561
f 561 603 562
f 562 604 605
f 562 605 563
f 562 563 564
f 562 603 606
f 562 606 607
f 562 607 604
f 563 608 609
f 563 609 565
f 563 605 608
f 565 609 566
f 566 609 610
f 566 610 611
f 566 611 579
f 566 579 577
f 568 612 569
f 568 576 612
f 569 612 571
f 570 571 613
f 570 613 614
f 570 614 615
f 570 615 616
f 570 616 572
f 571 612 613
f 572 616 573
f 573 616 615
f 573 615 618
f 573 618 617
f 575 583 619
f 575 619 576
f 576 619 612
f 577 579 578
f 579 611 620
f 579 620 621
f 579 621 622
f 579 622 580
f 580 622 623
f 580 623 581
f 581 623 624
f 581 624 625
f 581 625 582
f 582 625 626
f 582 626 619
f 582 619 583
f 584 627 628
f 584 628 586
f 584 586 585
f 586 628 629
f 586 629 630
f 586 630 631
f 586 631 588
f 586 588 587
f 588 632 589
f 588 631 630
f 588 630 632
f 589 632 633
f 589 633 634
f 589 634 635
f 589 635 593
f 589 593 590
f 590 593 591
f 592 594 636
f 592 636 596
f 592 596 595
f 593 635 637
f 593 637 594
f 594 637 638
f 594 638 636
f 596 636 639
f 596 639 640
f 596 640 641
f 596 641 597
f 598 642 599
f 599 642 601
f 600 643 602
f 602 643 644
f 602 644 606
f 602 606 603
f 604 645 646
f 604 646 605
f 604 607 645
f 605 646 647
f 605 647 648
f 605 648 649
f 605 649 650
f 605 650 608
f 606 644 607
f 607 644 651
f 607 651 652
f 607 652 645
f 608 650 609
f 609 650 653
f 609 653 611
f 609 611 610
f 611 653 620
f 612 619 613
f 613 654 614
f 613 619 626
f 613 626 654
f 614 655 656
f 614 656 615
f 614 654 655
f 615 656 618
f 617 618 658
f 617 658 657
f 618 656 659
f 618 659 658
f 620 660 661
f 620 661 621
f 620 653 660
f 621 662 622
f 621 661 662
f 622 662 663
f 622 663 623
f 623 663 664
f 623 664 624
f 624 664 665
f 624 665 666
f 624 666 625
f 625 666 626
f 626 666 667
f 626 667 654
f 627 668 669
f 627 669 670
f 627 670 628
f 628 670 629
f 629 670 671
f 629 671 630
f 630 671 633
f 630 633 632
f 633 671 672
f 633 672 673
f 633 673 674
f 633 674 634
f 634 674 675
f 634 675 635
f 635 675 637
f 636 638 676
f 636 676 677
f 636 677 639
f 637 675 678
f 637 678 638
f 638 678 679
f 638 679 680
f 638 680 681
f 638 681 682
f 638 682 676
f 639 683 640
f 639 677 684
f 639 684 683
f 646 685 648
f 646 648 647
f 648 685 686
f 648 686 687
f 648 687 650
f 648 650 649
f 650 687 688
f 650 688 660
f 650 660 653
f 654 667 689
f 654 689 656
f 654 656 655
f 656 690 659
f 656 689 691
f 656 691 690
f 657 692 668
f 657 658 659
f 657 659 693
f 657 693 692
f 659 690 694
f 659 694 693
f 660 695 696
f 660 696 661
f 660 688 695
f 661 696 697
f 661 697 698
f 661 698 662
f 662 698 699
f 662 699 700
f 662 700 663
f 663 700 701
f 663 701 675
f 663 675 673
f 663 673 702
f 663 702 703
f 663 703 664
f 664 703 704
f 664 704 705
f 664 705 665
f 665 705 666
f 666 705 704
f 666 704 706
f 666 706 691
f 666 691 689
f 666 689 667
f 668 692 707
f 668 707 669
f 669 707 708
f 669 708 670
f 670 708 709
f 670 709 671
f 671 704 672
f 671 709 704
f 672 704 702
f 672 702 673
f 673 675 674
f 675 701 678
f 676 682 677
f 677 682 710
f 677 710 684
f 678 701 711
f 678 711 679
f 679 699 698
f 679 698 697
f 679 697 712
f 679 712 713
f 679 713 680
f 679 711 699
f 680 713 712
f 680 712 681
f 681 712 714
f 681 714 715
f 681 715 682
f 682 715 710
f 685 716 686
f 686 716 717
f 686 717 687
f 687 717 695
f 687 695 688
f 690 691 694
f 691 706 718
f 691 718 708
f 691 708 707
f 691 707 694
f 692 693 707
f 693 694 707
f 695 719 720
f 695 720 696
f 695 717 721
f 695 721 719
f 696 720 697
f 697 720 722
f 697 722 714
f 697 714 712
f 699 711 700
f 700 711 701
f 702 704 703
f 704 709 718
f 704 718 706
f 708 718 709
f 710 715 723
f 714 722 724
f 714 724 725
f 714 725 726
f 714 726 723
f 714 723 715
f 716 727 717
f 717 727 721
f 719 728 729
f 719 729 724
f 719 724 720
f 719 721 730
f 719 730 728
f 720 724 722
f 721 727 731
f 721 731 730
f 724 732 733
f 724 733 726
f 724 726 725
f 724 729 732

