# https://github.com/mikedh/trimesh
v -0.00500632 -0.00007313 0.00736597
v -0.00500632 -0.00174750 0.00741208
v -0.00500632 -0.00007313 0.00976949
v -0.00216812 -0.00007313 0.00741208
v -0.00216812 -0.00174750 0.00741208
v -0.00500632 -0.00174750 0.00973796
v -0.00256627 -0.00174750 0.00973796
v -0.00216812 -0.00174750 0.00973420
v -0.00256627 -0.00104635 0.00973796
v -0.00299916 -0.00007313 0.00973796
v -0.00216812 -0.00007313 0.00962621
v -0.00216812 -0.00147903 0.00972926
v -0.00256627 -0.00007313 0.00972738
v -0.00289135 -0.00007313 0.00973538
v -0.00245847 -0.00007313 0.00970056
f 1 2 6
f 1 6 3
f 1 3 10
f 1 10 14
f 1 14 13
f 1 13 15
f 1 15 11
f 1 11 4
f 1 4 5
f 1 5 2
f 2 5 8
f 2 8 7
f 2 7 6
f 3 6 7
f 3 7 8
f 3 8 9
f 3 9 10
f 4 11 12
f 4 12 8
f 4 8 5
f 8 12 13
f 8 13 9
f 9 13 14
f 9 14 10
f 11 15 12
f 12 15 13

