# https://github.com/mikedh/trimesh
v -0.00098937 0.00328496 0.00361942
v -0.00099304 0.00328496 0.00318715
v -0.00103346 0.00328496 0.00405230
v 0.00003088 0.00321944 0.00405230
v 0.00003088 0.00321944 0.00275427
v -0.00100564 0.00328496 0.00292532
v -0.00216812 0.00328496 0.00507214
v 0.00046386 0.00311009 0.00434655
v 0.00075513 0.00308004 0.00429993
v 0.00046386 0.00315491 0.00405230
v 0.00046386 0.00315491 0.00275427
v 0.00075513 0.00308004 0.00251158
v 0.00046386 0.00311009 0.00247113
v -0.00216812 0.00328496 0.00191814
v -0.00104448 0.00328496 0.00275427
v -0.00216812 -0.00174750 0.00458801
v 0.00149303 -0.00174750 0.00458801
v 0.00176174 -0.00174750 0.00458646
v 0.00192601 -0.00174750 0.00458430
v 0.00219419 -0.00147903 0.00458214
v 0.00262717 -0.00061352 0.00458183
v 0.00262717 -0.00018052 0.00458739
v 0.00262717 0.00025199 0.00458708
v 0.00262717 0.00068499 0.00457751
v 0.00219419 0.00155000 0.00457596
v 0.00176174 0.00198300 0.00458337
v 0.00132876 0.00241551 0.00456361
v 0.00132876 0.00276822 0.00440398
v 0.00079240 0.00308792 0.00405230
v 0.00162739 0.00268595 0.00434285
v 0.00132876 0.00290664 0.00405230
v 0.00100915 0.00304161 0.00405230
v 0.00079240 0.00308792 0.00275427
v 0.00100915 0.00304014 0.00275427
v 0.00132876 0.00290467 0.00275427
v 0.00162739 0.00268595 0.00247391
v 0.00132876 0.00276674 0.00242080
v -0.00216812 -0.00174750 0.00226519
v 0.00132876 0.00241551 0.00228310
v 0.00176174 0.00198300 0.00226828
v 0.00219419 0.00155000 0.00227877
v 0.00262717 0.00068499 0.00226920
v 0.00262717 0.00025199 0.00226766
v 0.00262717 -0.00061352 0.00226488
v 0.00219419 -0.00147903 0.00227352
v 0.00219419 -0.00174750 0.00453891
v 0.00262717 -0.00104603 0.00454509
v 0.00298562 -0.00061352 0.00442220
v 0.00301606 -0.00018052 0.00442776
v 0.00301659 0.00025199 0.00442745
v 0.00297670 0.00068499 0.00441788
v 0.00262717 0.00111750 0.00453984
v 0.00222306 0.00200813 0.00444721
v 0.00176751 0.00243472 0.00443733
v 0.00100915 0.00304358 0.00361942
v 0.00166832 0.00271305 0.00405230
v 0.00209815 0.00230271 0.00436909
v 0.00215798 0.00235443 0.00405230
v 0.00188507 0.00257118 0.00405230
v 0.00132876 0.00290812 0.00361942
v 0.00100915 0.00304358 0.00318715
v 0.00132876 0.00290812 0.00318715
v 0.00166832 0.00271305 0.00275427
v 0.00188507 0.00257118 0.00275427
v 0.00215798 0.00235443 0.00275427
v 0.00209815 0.00230271 0.00244797
v 0.00176751 0.00243472 0.00239024
v 0.00176174 -0.00174750 0.00229328
v 0.00222306 0.00200813 0.00238097
v 0.00262717 0.00111750 0.00230286
v 0.00297408 0.00068499 0.00240722
v 0.00301186 0.00025199 0.00240012
v 0.00301134 -0.00018052 0.00240012
v 0.00298248 -0.00061352 0.00240259
v 0.00262717 -0.00104603 0.00229730
v 0.00219419 -0.00174750 0.00230471
v 0.00236161 -0.00174750 0.00447994
v 0.00264082 -0.00147213 0.00442590
v 0.00293314 -0.00104603 0.00438546
v 0.00312733 -0.00061352 0.00405230
v 0.00319083 -0.00018052 0.00405230
v 0.00319135 0.00025199 0.00405230
v 0.00292160 0.00111750 0.00438021
v 0.00263189 0.00153818 0.00442004
v 0.00249019 0.00188054 0.00435921
v 0.00237473 0.00215394 0.00405230
v 0.00237473 0.00215394 0.00275427
v 0.00249019 0.00188054 0.00245816
v 0.00263189 0.00153818 0.00240660
v 0.00292160 0.00111750 0.00244056
v 0.00318663 0.00025199 0.00275427
v 0.00318611 -0.00018052 0.00275427
v 0.00312470 -0.00061352 0.00275427
v 0.00293314 -0.00104603 0.00243532
v 0.00264082 -0.00147213 0.00240073
v 0.00254582 -0.00174750 0.00243871
v 0.00254582 -0.00174750 0.00438144
v 0.00287909 -0.00132336 0.00432556
v 0.00302289 -0.00104603 0.00405230
v 0.00312733 -0.00061352 0.00318715
v 0.00319293 -0.00018052 0.00361942
v 0.00319345 0.00025199 0.00361942
v 0.00311001 0.00068499 0.00405230
v 0.00287594 0.00138547 0.00432401
v 0.00253008 0.00193719 0.00405230
v 0.00253008 0.00193719 0.00275427
v 0.00287594 0.00138547 0.00249058
v 0.00310738 0.00068499 0.00275427
v 0.00319345 0.00025199 0.00318715
v 0.00319293 -0.00018052 0.00318715
v 0.00302289 -0.00104603 0.00275427
v 0.00287909 -0.00132336 0.00248935
v 0.00266443 -0.00174750 0.00275427
v 0.00262402 -0.00174750 0.00420915
v 0.00289693 -0.00135390 0.00405230
v 0.00266443 -0.00174750 0.00405230
v 0.00276992 -0.00157016 0.00405230
v 0.00311001 0.00068499 0.00318715
v 0.00299979 0.00111750 0.00405230
v 0.00289221 0.00141158 0.00405230
v 0.00274683 0.00162784 0.00405230
v 0.00274683 0.00162784 0.00275427
v 0.00289221 0.00141158 0.00275427
v 0.00299979 0.00111750 0.00275427
v 0.00289693 -0.00135390 0.00275427
v 0.00276992 -0.00157016 0.00275427
f 1 2 6
f 1 6 15
f 1 15 14
f 1 14 7
f 1 7 3
f 1 3 4
f 1 4 5
f 1 5 2
f 2 5 6
f 3 7 4
f 4 8 9
f 4 9 10
f 4 10 11
f 4 11 5
f 4 7 8
f 5 11 12
f 5 12 13
f 5 13 14
f 5 14 15
f 5 15 6
f 7 14 38
f 7 38 16
f 7 16 17
f 7 17 18
f 7 18 19
f 7 19 20
f 7 20 21
f 7 21 22
f 7 22 23
f 7 23 24
f 7 24 25
f 7 25 26
f 7 26 27
f 7 27 28
f 7 28 9
f 7 9 8
f 9 29 10
f 9 28 30
f 9 30 31
f 9 31 32
f 9 32 29
f 10 29 33
f 10 33 11
f 11 33 12
f 12 33 34
f 12 34 35
f 12 35 36
f 12 36 37
f 12 37 14
f 12 14 13
f 14 37 39
f 14 39 40
f 14 40 41
f 14 41 42
f 14 42 43
f 14 43 44
f 14 44 45
f 14 45 38
f 16 38 68
f 16 68 76
f 16 76 96
f 16 96 113
f 16 113 116
f 16 116 114
f 16 114 97
f 16 97 77
f 16 77 46
f 16 46 19
f 16 19 18
f 16 18 17
f 19 46 20
f 20 46 47
f 20 47 21
f 21 47 48
f 21 48 49
f 21 49 22
f 22 49 50
f 22 50 23
f 23 50 24
f 24 50 51
f 24 51 52
f 24 52 25
f 25 52 53
f 25 53 26
f 26 53 54
f 26 54 27
f 27 54 28
f 28 54 30
f 29 32 55
f 29 55 61
f 29 61 33
f 30 56 31
f 30 54 57
f 30 57 58
f 30 58 59
f 30 59 56
f 31 56 60
f 31 60 55
f 31 55 32
f 33 61 34
f 34 61 62
f 34 62 35
f 35 62 63
f 35 63 36
f 36 63 64
f 36 64 65
f 36 65 66
f 36 66 67
f 36 67 37
f 37 67 39
f 38 45 68
f 39 67 69
f 39 69 40
f 40 69 41
f 41 69 70
f 41 70 42
f 42 70 71
f 42 71 72
f 42 72 43
f 43 72 44
f 44 72 73
f 44 73 74
f 44 74 75
f 44 75 45
f 45 75 76
f 45 76 68
f 46 77 47
f 47 77 78
f 47 78 79
f 47 79 48
f 48 79 80
f 48 80 81
f 48 81 49
f 49 81 82
f 49 82 50
f 50 82 51
f 51 82 83
f 51 83 52
f 52 83 84
f 52 84 53
f 53 84 85
f 53 85 57
f 53 57 54
f 55 60 62
f 55 62 61
f 56 63 62
f 56 62 60
f 56 59 64
f 56 64 63
f 57 85 86
f 57 86 58
f 58 65 64
f 58 64 59
f 58 86 87
f 58 87 65
f 65 87 66
f 66 87 88
f 66 88 69
f 66 69 67
f 69 88 89
f 69 89 70
f 70 89 90
f 70 90 71
f 71 90 91
f 71 91 72
f 72 91 92
f 72 92 73
f 73 92 74
f 74 92 93
f 74 93 94
f 74 94 75
f 75 94 95
f 75 95 76
f 76 95 96
f 77 97 78
f 78 98 79
f 78 97 98
f 79 98 99
f 79 99 80
f 80 100 110
f 80 110 101
f 80 101 81
f 80 99 111
f 80 111 100
f 81 101 102
f 81 102 82
f 82 102 103
f 82 103 83
f 83 103 104
f 83 104 84
f 84 104 85
f 85 104 86
f 86 104 105
f 86 105 106
f 86 106 87
f 87 106 107
f 87 107 88
f 88 107 89
f 89 107 90
f 90 107 108
f 90 108 91
f 91 109 110
f 91 110 92
f 91 108 109
f 92 110 93
f 93 110 100
f 93 100 111
f 93 111 94
f 94 111 112
f 94 112 95
f 95 112 96
f 96 112 113
f 97 114 98
f 98 115 99
f 98 114 116
f 98 116 117
f 98 117 115
f 99 115 125
f 99 125 111
f 101 110 109
f 101 109 102
f 102 109 118
f 102 118 103
f 103 118 124
f 103 124 119
f 103 119 104
f 104 119 120
f 104 120 121
f 104 121 105
f 105 121 122
f 105 122 106
f 106 122 107
f 107 122 123
f 107 123 124
f 107 124 108
f 108 124 118
f 108 118 109
f 111 125 112
f 112 125 126
f 112 126 113
f 113 126 117
f 113 117 116
f 115 117 126
f 115 126 125
f 119 124 123
f 119 123 120
f 120 123 122
f 120 122 121

