# https://github.com/mikedh/trimesh
v -0.00475302 0.01308562 -0.00120160
v -0.00475302 0.01323613 -0.00120444
v -0.00472997 0.01308562 -0.00120160
v -0.00475302 0.01308562 0.01320119
v -0.00472997 0.01323613 -0.00120444
v -0.00475302 0.01366865 -0.00121154
v -0.00429713 0.01410199 -0.00121723
v -0.00429713 0.01366865 -0.00120870
v -0.00429713 0.01323613 -0.00119876
v -0.00429713 0.01308562 -0.00119450
v -0.00444722 0.01308562 0.01319551
v -0.00429713 0.01366865 0.01320546
v -0.00429713 0.01410199 0.01321398
v -0.00475302 0.01366865 0.01321114
v -0.00472997 0.01366865 -0.00121154
v -0.00475302 0.01410199 -0.00121723
v -0.00429713 0.01453451 -0.00122149
v -0.00256575 0.01713127 -0.00124138
v -0.00256575 0.01669875 -0.00123427
v -0.00386428 0.01366865 -0.00119734
v -0.00386428 0.01323613 -0.00118597
v -0.00414704 0.01308562 -0.00119023
v -0.00401437 0.01308562 0.01318557
v -0.00386428 0.01366865 0.01319551
v -0.00256575 0.01669875 0.01322961
v -0.00256575 0.01713127 0.01323671
v -0.00299859 0.01669875 0.01323529
v -0.00475302 0.01407884 0.01321682
v -0.00475302 0.01453451 -0.00122149
v -0.00343144 0.01799630 -0.00125132
v -0.00299859 0.01669875 -0.00123854
v -0.00213290 0.01842882 -0.00124422
v -0.00213290 0.01756296 -0.00123712
v -0.00213290 0.01713127 -0.00123143
v -0.00299859 0.01886133 -0.00125558
v -0.00256575 0.01756296 -0.00124422
v -0.00213290 0.01669875 -0.00122149
v -0.00386428 0.01308562 -0.00118171
v -0.00386428 0.01308562 0.01318130
v -0.00386428 0.01323613 0.01318557
v -0.00213290 0.01669875 0.01321824
v -0.00213290 0.01713127 0.01322677
v -0.00256575 0.01756296 0.01323955
v -0.00299859 0.01886133 0.01325234
v -0.00343144 0.01799630 0.01324950
v -0.00213290 0.01756296 0.01323245
v -0.00475302 0.01451136 0.01321966
v -0.00475302 0.01626541 -0.00123285
v -0.00343144 0.01842882 -0.00125416
v -0.00126777 0.02015971 -0.00123996
v -0.00299859 0.01929468 -0.00125843
v -0.00170062 0.02015971 -0.00124706
v -0.00126777 0.02102557 -0.00124564
v -0.00083549 0.02015971 -0.00122859
v -0.00126777 0.01886133 -0.00122575
v -0.00170062 0.01756296 -0.00122149
v -0.00170062 0.01713127 -0.00121296
v -0.00170062 0.01669875 -0.00120018
v -0.00213290 0.01626541 -0.00120728
v -0.00343144 0.01323613 -0.00116324
v -0.00343144 0.01308562 -0.00115614
v -0.00358153 0.01308562 0.01316710
v -0.00170062 0.01713127 0.01320830
v -0.00170062 0.01756296 0.01321824
v -0.00170062 0.01669875 0.01319551
v -0.00213290 0.01886133 0.01324097
v -0.00256575 0.01929468 0.01325092
v -0.00299859 0.01929468 0.01325518
v -0.00343144 0.01842882 0.01324950
v -0.00475302 0.01537722 0.01322108
v -0.00170062 0.01842882 0.01322961
v -0.00170062 0.01886133 0.01323387
v -0.00126777 0.01886133 0.01322108
v -0.00386428 0.01799630 -0.00124706
v -0.00475302 0.01669875 -0.00123143
v -0.00343144 0.01886133 -0.00125274
v -0.00083549 0.02102557 -0.00123569
v -0.00083549 0.02059305 -0.00123285
v -0.00299859 0.01972719 -0.00125132
v -0.00213290 0.02145809 -0.00124422
v -0.00213290 0.02102557 -0.00124990
v -0.00170062 0.02145809 -0.00124848
v -0.00170062 0.02102557 -0.00124990
v -0.00126777 0.02153417 -0.00124564
v -0.00040265 0.02102557 -0.00122433
v -0.00040265 0.02059305 -0.00122007
v -0.00083549 0.01886133 -0.00120870
v -0.00126777 0.01799630 -0.00121154
v -0.00126777 0.01756296 -0.00120160
v -0.00126777 0.01713127 -0.00118597
v -0.00170062 0.01626541 -0.00118171
v -0.00213290 0.01496703 -0.00114761
v -0.00299859 0.01323613 -0.00112346
v -0.00299859 0.01308562 -0.00111352
v -0.00343144 0.01308562 0.01315857
v -0.00343144 0.01323613 0.01316426
v -0.00126777 0.01756296 0.01319551
v -0.00083549 0.01842882 0.01319551
v -0.00126777 0.01799630 0.01320688
v -0.00083549 0.01886133 0.01320403
v -0.00083549 0.01929468 0.01321114
v -0.00170062 0.01626541 0.01317562
v -0.00126777 0.01713127 0.01318130
v -0.00170062 0.01972719 0.01323955
v -0.00126777 0.02102557 0.01323955
v -0.00213290 0.02015971 0.01324808
v -0.00256575 0.02015971 0.01325376
v -0.00299859 0.01972719 0.01325234
v -0.00343144 0.01886133 0.01324665
v -0.00386428 0.01799630 0.01323813
v -0.00475302 0.01580973 0.01322108
v -0.00083549 0.02015971 0.01322250
v -0.00083549 0.02059305 0.01322677
v -0.00126777 0.02015971 0.01323387
v -0.00040265 0.02059305 0.01321398
v -0.00475302 0.01713127 -0.00122433
v -0.00472997 0.01713127 -0.00122575
v -0.00429713 0.01756296 -0.00123712
v -0.00386428 0.01842882 -0.00124138
v -0.00343144 0.01929468 -0.00124280
v -0.00083549 0.02153417 -0.00123569
v -0.00256575 0.02102557 -0.00123854
v -0.00213290 0.02153417 -0.00124280
v -0.00170062 0.02153417 -0.00124706
v -0.00040265 0.02153417 -0.00122149
v 0.00003020 0.02153417 -0.00120018
v 0.00003020 0.02102557 -0.00120160
v 0.00003020 0.02059305 -0.00119592
v -0.00040265 0.01972719 -0.00120444
v -0.00083549 0.01842882 -0.00120018
v -0.00083549 0.01799630 -0.00118739
v -0.00083549 0.01756296 -0.00116750
v -0.00126777 0.01669875 -0.00116466
v -0.00170062 0.01583289 -0.00115756
v -0.00126777 0.01626541 -0.00113625
v -0.00213290 0.01453451 -0.00111636
v -0.00256575 0.01366865 -0.00110357
v -0.00256575 0.01323613 -0.00106521
v -0.00256575 0.01308562 -0.00104959
v -0.00314868 0.01308562 0.01313016
v -0.00170062 0.01583289 0.01315147
v -0.00126777 0.01669875 0.01315999
v -0.00083549 0.01799630 0.01318130
v -0.00040265 0.01972719 0.01319835
v -0.00040265 0.01886133 0.01317704
v -0.00040265 0.01929468 0.01318841
v -0.00040265 0.02015971 0.01320688
v -0.00040265 0.01842882 0.01316141
v -0.00126777 0.02153417 0.01323955
v -0.00213290 0.02102557 0.01325092
v -0.00083549 0.02102557 0.01322961
v -0.00256575 0.02059305 0.01324950
v -0.00256575 0.02102557 0.01324239
v -0.00299859 0.02015971 0.01324381
v -0.00343144 0.01929468 0.01323955
v -0.00386428 0.01842882 0.01323387
v -0.00475302 0.01710811 0.01321114
v -0.00475302 0.01626541 0.01321824
v -0.00040265 0.02102557 0.01321824
v 0.00003020 0.02059305 0.01318983
v 0.00003020 0.02102557 0.01319551
v -0.00475302 0.01756296 -0.00121154
v -0.00472997 0.01756296 -0.00121438
v -0.00429713 0.01799630 -0.00122859
v -0.00386428 0.01886133 -0.00123001
v -0.00343144 0.01972719 -0.00122859
v -0.00256575 0.02145809 -0.00122575
v -0.00256575 0.02153417 -0.00122291
v 0.00046304 0.02153417 -0.00116892
v 0.00046304 0.02145809 -0.00116892
v 0.00046304 0.02102557 -0.00116466
v 0.00046304 0.02059305 -0.00115614
v 0.00003020 0.02015971 -0.00118455
v -0.00040265 0.01929468 -0.00119450
v -0.00040265 0.01886133 -0.00118313
v -0.00040265 0.01842882 -0.00116608
v -0.00040265 0.01799630 -0.00114477
v -0.00083549 0.01713127 -0.00114335
v -0.00083549 0.01669875 -0.00111210
v -0.00126777 0.01583289 -0.00110215
v -0.00213290 0.01410199 -0.00107942
v -0.00213290 0.01366865 -0.00103538
v -0.00214077 0.01308562 -0.00096861
v -0.00299859 0.01308562 0.01311169
v -0.00213290 0.01453451 0.01311311
v -0.00126777 0.01626541 0.01313158
v -0.00040265 0.01799630 0.01313868
v 0.00003020 0.02015971 0.01317846
v 0.00003020 0.01929468 0.01315147
v 0.00003020 0.01886133 0.01313158
v -0.00162529 0.02153417 0.01324381
v -0.00170062 0.02145809 0.01324523
v -0.00083549 0.02145809 0.01322961
v -0.00083549 0.02153417 0.01322819
v -0.00205758 0.02153417 0.01324523
v -0.00213290 0.02145809 0.01324523
v -0.00213290 0.02153417 0.01324381
v -0.00249042 0.02153417 0.01322961
v -0.00256575 0.02145809 0.01322819
v -0.00299859 0.02059305 0.01323103
v -0.00343144 0.01972719 0.01323103
v -0.00386428 0.01886133 0.01322677
v -0.00475302 0.01753980 0.01320546
v -0.00040265 0.02145809 0.01321540
v 0.00003020 0.02153417 0.01319409
v 0.00046304 0.02059305 0.01315005
v 0.00046304 0.02102557 0.01315857
v 0.00046304 0.02153417 0.01316284
v 0.00010609 0.02153417 0.01318983
v -0.00475302 0.01799630 -0.00119307
v -0.00472997 0.01799630 -0.00119592
v -0.00429713 0.01842882 -0.00121581
v -0.00386428 0.01929468 -0.00121438
v -0.00343144 0.02015971 -0.00121296
v -0.00299859 0.02145809 -0.00119307
v -0.00299859 0.02153417 -0.00118881
v 0.00089589 0.02153417 -0.00112488
v 0.00089589 0.02145809 -0.00112346
v 0.00089589 0.02102557 -0.00111494
v 0.00046304 0.02015971 -0.00114193
v 0.00003020 0.01972719 -0.00117176
v 0.00003020 0.01929468 -0.00115756
v 0.00003020 0.01886133 -0.00113767
v -0.00040265 0.01756296 -0.00111494
v -0.00040265 0.01713127 -0.00107658
v -0.00083549 0.01626541 -0.00106948
v -0.00126777 0.01540037 -0.00105953
v -0.00170062 0.01410199 -0.00099986
v -0.00210142 0.01321215 -0.00097571
v -0.00197101 0.01308562 -0.00093167
v -0.00271584 0.01308562 0.01307475
v -0.00256575 0.01366865 0.01310175
v -0.00126777 0.01583289 0.01309890
v -0.00083549 0.01669875 0.01310459
v -0.00040265 0.01756296 0.01310601
v 0.00003020 0.01842882 0.01310317
v 0.00046304 0.02015971 0.01313584
v 0.00046304 0.01972719 0.01311453
v 0.00046304 0.01929468 0.01308896
v -0.00040265 0.02153417 0.01321398
v -0.00256575 0.02153417 0.01322534
v -0.00299859 0.02102557 0.01321398
v -0.00343144 0.02015971 0.01321540
v -0.00386428 0.01929468 0.01321540
v -0.00429713 0.01842882 0.01321256
v -0.00472997 0.01799630 0.01319267
v -0.00475302 0.01797314 0.01319125
v -0.00032676 0.02153417 0.01321114
v 0.00089589 0.02102557 0.01310743
v 0.00089589 0.02145809 0.01311737
v 0.00089589 0.02153417 0.01311879
v 0.00053837 0.02153417 0.01315573
v -0.00475302 0.01842882 -0.00116608
v -0.00472997 0.01842882 -0.00117034
v -0.00429713 0.01886133 -0.00119592
v -0.00343144 0.02059305 -0.00119450
v -0.00343144 0.02102557 -0.00116892
v -0.00343144 0.02145809 -0.00113625
v -0.00343144 0.02153417 -0.00112914
v 0.00097290 0.02153417 -0.00111352
v 0.00098977 0.02145809 -0.00110925
v 0.00098977 0.02102557 -0.00109789
v 0.00089589 0.02059305 -0.00109505
v 0.00046304 0.01972719 -0.00112062
v 0.00046304 0.01929468 -0.00109505
v 0.00003020 0.01842882 -0.00110783
v 0.00003020 0.01799630 -0.00107232
v 0.00003020 0.01756296 -0.00103254
v -0.00040265 0.01669875 -0.00102970
v -0.00097490 0.01496703 -0.00094446
v -0.00148363 0.01388367 -0.00092457
v -0.00188837 0.01308562 -0.00091036
v -0.00256575 0.01308562 0.01305060
v -0.00256575 0.01323613 0.01306481
v -0.00170062 0.01453451 0.01304776
v -0.00126777 0.01540037 0.01305913
v -0.00083549 0.01626541 0.01306623
v -0.00040265 0.01713127 0.01306765
v 0.00003020 0.01799630 0.01306765
v 0.00046304 0.01886133 0.01305771
v 0.00089589 0.02059305 0.01308896
v 0.00089589 0.02015971 0.01306481
v 0.00089589 0.01972719 0.01303497
v -0.00292327 0.02153417 0.01319835
v -0.00299859 0.02145809 0.01319551
v -0.00343144 0.02059305 0.01319693
v -0.00386428 0.01972719 0.01319835
v -0.00429713 0.01886133 0.01319693
v -0.00475302 0.01840566 0.01316852
v 0.00098977 0.02153417 0.01310601
v 0.00097122 0.02153417 0.01310885
v 0.00098977 0.02111902 0.01309464
v -0.00475302 0.01886133 -0.00113057
v -0.00472997 0.01886133 -0.00113625
v -0.00386428 0.02059305 -0.00113625
v -0.00386428 0.02102557 -0.00109363
v -0.00386428 0.02145809 -0.00103396
v -0.00386541 0.02153417 -0.00102259
v 0.00098977 0.02153417 -0.00111068
v 0.00098977 0.02059305 -0.00107658
v 0.00089589 0.02015971 -0.00107090
v 0.00089589 0.01972719 -0.00104106
v 0.00046304 0.01886133 -0.00106237
v 0.00046304 0.01842882 -0.00102259
v 0.00048778 0.01799382 -0.00097003
v 0.00064855 0.01784827 -0.00091604
v 0.00006168 0.01711307 -0.00097571
v 0.00022638 0.01695677 -0.00091888
v -0.00157245 0.01359505 -0.00090042
v -0.00075848 0.01496703 -0.00088337
v -0.00121156 0.01410199 -0.00087484
v -0.00171018 0.01321215 -0.00087484
v -0.00170737 0.01308562 -0.00084927
v -0.00223915 0.01308562 0.01298951
v -0.00213290 0.01366865 0.01303497
v -0.00209805 0.01320802 0.01297673
v -0.00126777 0.01496703 0.01300940
v -0.00083549 0.01583289 0.01301935
v -0.00040265 0.01669875 0.01302503
v 0.00003020 0.01756296 0.01302787
v 0.00046304 0.01842882 0.01301651
v 0.00098977 0.01895561 0.01294689
v 0.00089589 0.01929468 0.01299946
v 0.00098977 0.02068650 0.01307617
v 0.00098977 0.02025316 0.01305060
v 0.00098977 0.01972719 0.01301224
v 0.00098977 0.01982395 0.01301935
v -0.00299859 0.02153417 0.01319125
v -0.00343144 0.02102557 0.01317278
v -0.00429713 0.01929468 0.01317278
v -0.00475302 0.01883818 0.01313726
v -0.00475302 0.01929302 -0.00108368
v -0.00472997 0.01929468 -0.00108937
v -0.00472997 0.01972719 -0.00103396
v -0.00473559 0.02012663 -0.00097429
v -0.00414648 0.02145809 -0.00094872
v -0.00412680 0.02153417 -0.00094162
v 0.00098977 0.02016302 -0.00104959
v 0.00098977 0.01972719 -0.00101833
v 0.00098977 0.01918965 -0.00097429
v 0.00089589 0.01929468 -0.00100555
v 0.00091163 0.01888035 -0.00096293
v 0.00098977 0.01881419 -0.00093735
v 0.00057716 0.01756296 -0.00089473
v 0.00098977 0.01842882 -0.00088621
v 0.00089589 0.01756296 -0.00077682
v 0.00044337 0.01711307 -0.00086632
v 0.00046304 0.01669875 -0.00078534
v 0.00014825 0.01669875 -0.00089757
v 0.00003020 0.01583289 -0.00077256
v -0.00131106 0.01371165 -0.00083222
v -0.00126777 0.01323613 -0.00071857
v -0.00126047 0.01308562 -0.00067737
v -0.00213571 0.01308562 0.01296962
v -0.00197269 0.01308562 0.01293411
v -0.00038353 0.01626541 0.01297246
v 0.00005774 0.01712217 0.01297389
v 0.00064068 0.01786563 0.01291422
v 0.00048328 0.01800457 0.01296678
v 0.00076210 0.01842882 0.01294547
v 0.00098977 0.01868849 0.01291848
v 0.00098977 0.01929468 0.01297673
v -0.00335611 0.02153417 0.01314579
v -0.00386428 0.02059305 0.01314153
v -0.00386428 0.02102557 0.01309890
v -0.00429713 0.02015971 0.01309748
v -0.00472997 0.01929468 0.01309464
v -0.00475302 0.01927152 0.01309180
v -0.00475302 0.01972719 -0.00102686
v -0.00475302 0.02011423 -0.00097003
v -0.00475302 0.02014069 -0.00096577
v -0.00457820 0.02059305 -0.00094730
v -0.00445059 0.02110744 -0.00089900
v -0.00436290 0.02145809 -0.00085922
v -0.00434266 0.02153417 -0.00084927
v 0.00098977 0.01893742 -0.00095014
v 0.00098977 0.01756213 -0.00073704
v 0.00089589 0.01713127 -0.00069584
v 0.00046304 0.01626541 -0.00069584
v -0.00083549 0.01410199 -0.00073704
v 0.00003020 0.01540037 -0.00067737
v -0.00040265 0.01453451 -0.00065606
v -0.00017610 0.01429882 -0.00049694
v -0.00091194 0.01323613 -0.00055945
v -0.00095523 0.01308562 -0.00053956
v -0.00192210 0.01308562 0.01292274
v -0.00006986 0.01669875 0.01295258
v -0.00014968 0.01641013 0.01293411
v 0.00022076 0.01697166 0.01291706
v 0.00056704 0.01756296 0.01289149
v 0.00098977 0.01847513 0.01288722
v -0.00343144 0.02153417 0.01313300
v -0.00343144 0.02145809 0.01314010
v -0.00378896 0.02153417 0.01305202
v -0.00472997 0.01972719 0.01304066
v -0.00475302 0.01972719 0.01303355
v -0.00475302 0.02059305 -0.00087626
v -0.00475302 0.02075018 -0.00084075
v -0.00475302 0.02149199 -0.00064612
v -0.00475302 0.02153252 -0.00063475
v -0.00475302 0.02153417 -0.00063191
v 0.00098977 0.01713127 -0.00065322
v 0.00098977 0.01701962 -0.00063049
v 0.00098977 0.01672687 -0.00056798
v 0.00092175 0.01668717 -0.00058929
v 0.00079414 0.01626541 -0.00054809
v 0.00071713 0.01597596 -0.00051257
v 0.00018928 0.01484794 -0.00046001
v -0.00026155 0.01401020 -0.00044580
v -0.00062806 0.01346935 -0.00048558
v -0.00069552 0.01323613 -0.00044012
v -0.00074724 0.01308562 -0.00041455
v -0.00187713 0.01308562 0.01290711
v -0.00030821 0.01583289 0.01288864
v -0.00022614 0.01612151 0.01291280
v 0.00014656 0.01669875 0.01289433
v 0.00046304 0.01669875 0.01277925
v 0.00043943 0.01712217 0.01286307
v 0.00089589 0.01756296 0.01276789
v 0.00098977 0.01811869 0.01282614
v -0.00386541 0.02153417 0.01302929
v -0.00386428 0.02145809 0.01304208
v -0.00430500 0.02100159 0.01297815
v -0.00475302 0.02012498 0.01297389
v -0.00475302 0.02153417 0.01263861
v 0.00098977 0.01662349 -0.00054099
v 0.00098977 0.01626541 -0.00043870
v 0.00098977 0.01619759 -0.00041739
v 0.00063674 0.01568734 -0.00046711
v 0.00087509 0.01583206 -0.00036056
v 0.00090713 0.01541360 -0.00018298
v 0.00046304 0.01456759 -0.00016167
v 0.00031858 0.01419958 -0.00011052
v -0.00063762 0.01308562 -0.00033357
v -0.00171074 0.01308562 0.01284176
v -0.00040265 0.01496703 0.01274942
v 0.00003020 0.01583289 0.01276505
v 0.00000884 0.01626541 0.01285881
v 0.00046304 0.01626541 0.01268691
v 0.00092006 0.01669048 0.01258462
v 0.00089589 0.01713127 0.01268833
v 0.00098977 0.01765641 0.01274658
v -0.00410207 0.02153417 0.01295684
v -0.00415491 0.02145809 0.01295258
v -0.00458888 0.02059305 0.01295115
v -0.00452817 0.02084115 0.01292984
v -0.00475302 0.02041194 0.01292416
v -0.00475302 0.02138449 0.01267981
v -0.00435109 0.02153417 0.01285313
v 0.00098977 0.01583206 -0.00028242
v 0.00098977 0.01546819 -0.00014604
v 0.00075479 0.01496703 -0.00011336
v 0.00068902 0.01473382 -0.00006506
v 0.00023144 0.01391096 -0.00004659
v -0.00043525 0.01308562 -0.00018298
v -0.00005693 0.01366865 -0.00015740
v -0.00141786 0.01308562 0.01272669
v -0.00040265 0.01453451 0.01264855
v 0.00003020 0.01540037 0.01266986
v 0.00071320 0.01598257 0.01251075
v 0.00078908 0.01626541 0.01254484
v 0.00098977 0.01673183 0.01256331
v 0.00098977 0.01679137 0.01257610
v 0.00098977 0.01713127 0.01264713
v 0.00098977 0.01722058 0.01266560
v -0.00413580 0.02153417 0.01294547
v -0.00445453 0.02112977 0.01290001
v -0.00475302 0.02063937 0.01287586
v -0.00475302 0.02095941 0.01279488
v -0.00475302 0.02078822 0.01283892
v -0.00437133 0.02145809 0.01286165
v -0.00428589 0.02153417 0.01288296
v 0.00098977 0.01534000 -0.00009205
v 0.00098977 0.01503319 0.00005002
v 0.00060695 0.01444520 0.00000455
v -0.00022557 0.01308562 -0.00001534
v -0.00022951 0.01309306 -0.00002244
v -0.00014294 0.01338168 -0.00009205
v -0.00104404 0.01308562 0.01256047
v -0.00018173 0.01430957 0.01249370
v 0.00003751 0.01498605 0.01256615
v 0.00026686 0.01514235 0.01250222
v 0.00018647 0.01485373 0.01245818
v 0.00063169 0.01569395 0.01246528
v 0.00098977 0.01645479 0.01249654
v 0.00098977 0.01496703 0.00008411
v 0.00097122 0.01496703 0.00006706
v 0.00098977 0.01464533 0.00026027
v 0.00075592 0.01419462 0.00029295
v -0.00001140 0.01308562 0.00019350
v -0.00097659 0.01308562 0.01252779
v -0.00064043 0.01349085 0.01248091
v -0.00071576 0.01323613 0.01243829
v -0.00027111 0.01402095 0.01244540
v 0.00009653 0.01453451 0.01239709
v 0.00046248 0.01457255 0.01215842
v 0.00098977 0.01593874 0.01231753
v 0.00098977 0.01624969 0.01242835
v 0.00098977 0.01447745 0.00036967
v 0.00098977 0.01427566 0.00050179
v 0.00029047 0.01338003 0.00032421
v 0.00020446 0.01308562 0.00043076
v -0.00087653 0.01308562 0.01247665
v -0.00076522 0.01308562 0.01241414
v -0.00042176 0.01308562 0.01218967
v -0.00004738 0.01366865 0.01216126
v 0.00098977 0.01547646 0.01213853
v 0.00098977 0.01553352 0.01216126
v 0.00031745 0.01419214 0.01211012
v 0.00098977 0.01521843 0.01203340
v 0.00098977 0.01407305 0.00064670
v 0.00069970 0.01341890 0.00078166
v 0.00038997 0.01308562 0.00065664
v -0.00023007 0.01308562 0.01204619
v -0.00013563 0.01336266 0.01209733
v 0.00023650 0.01390352 0.01205045
v 0.00098977 0.01505469 0.01195384
v 0.00098977 0.01401185 0.00069784
v 0.00098977 0.01364715 0.00100897
v 0.00059121 0.01308562 0.00092941
v -0.00021377 0.01308562 0.01203340
v 0.00098977 0.01465029 0.01173790
v 0.00098977 0.01472885 0.01178052
v 0.00098977 0.01496703 0.01190838
v 0.00098977 0.01327004 0.00144796
v 0.00072500 0.01308562 0.00114678
v 0.00063787 0.01308562 0.00100471
v -0.00019690 0.01308562 0.01201635
v 0.00075536 0.01419462 0.01170522
v 0.00098977 0.01438731 0.01157452
v 0.00088015 0.01308562 0.00145790
v 0.00098977 0.01325681 0.00146643
v -0.00000634 0.01308562 0.01181462
v 0.00020334 0.01308562 0.01157878
v 0.00098977 0.01427897 0.01149781
v 0.00098977 0.01308562 0.00172073
v 0.00034612 0.01308562 0.01140688
v 0.00070083 0.01341642 0.01122077
v 0.00098977 0.01411853 0.01138131
v 0.00098977 0.01308562 0.01027034
v 0.00039334 0.01308562 0.01134721
v 0.00056142 0.01308562 0.01111849
v 0.00061201 0.01312780 0.01108297
v 0.00098977 0.01365294 0.01099489
v 0.00098977 0.01386465 0.01119236
v 0.00098977 0.01326425 0.01053743
v 0.00098808 0.01308562 0.01027461
v 0.00059402 0.01308562 0.01107018
v 0.00065698 0.01308562 0.01096647
v 0.00072388 0.01308562 0.01085140
v 0.00098977 0.01343544 0.01075479
v 0.00080314 0.01308562 0.01069939
v 0.00087790 0.01308562 0.01054027
f 1 2 5
f 1 5 3
f 1 3 10
f 1 10 22
f 1 22 38
f 1 38 61
f 1 61 94
f 1 94 139
f 1 139 183
f 1 183 230
f 1 230 272
f 1 272 313
f 1 313 353
f 1 353 385
f 1 385 412
f 1 412 434
f 1 434 455
f 1 455 476
f 1 476 490
f 1 490 502
f 1 502 513
f 1 513 520
f 1 520 527
f 1 527 526
f 1 526 531
f 1 531 536
f 1 536 540
f 1 540 547
f 1 547 553
f 1 553 552
f 1 552 550
f 1 550 549
f 1 549 548
f 1 548 542
f 1 542 541
f 1 541 537
f 1 537 534
f 1 534 533
f 1 533 528
f 1 528 521
f 1 521 514
f 1 514 505
f 1 505 504
f 1 504 503
f 1 503 491
f 1 491 479
f 1 479 457
f 1 457 435
f 1 435 413
f 1 413 386
f 1 386 355
f 1 355 354
f 1 354 314
f 1 314 273
f 1 273 231
f 1 231 184
f 1 184 140
f 1 140 95
f 1 95 62
f 1 62 39
f 1 39 23
f 1 23 11
f 1 11 4
f 1 4 14
f 1 14 28
f 1 28 47
f 1 47 70
f 1 70 111
f 1 111 158
f 1 158 157
f 1 157 203
f 1 203 247
f 1 247 289
f 1 289 331
f 1 331 368
f 1 368 396
f 1 396 424
f 1 424 447
f 1 447 468
f 1 468 470
f 1 470 469
f 1 469 448
f 1 448 425
f 1 425 401
f 1 401 400
f 1 400 399
f 1 399 398
f 1 398 397
f 1 397 371
f 1 371 370
f 1 370 369
f 1 369 332
f 1 332 293
f 1 293 253
f 1 253 210
f 1 210 162
f 1 162 116
f 1 116 75
f 1 75 48
f 1 48 29
f 1 29 16
f 1 16 6
f 1 6 2
f 2 6 15
f 2 15 5
f 3 5 7
f 3 7 8
f 3 8 9
f 3 9 10
f 4 11 12
f 4 12 13
f 4 13 14
f 5 15 7
f 6 16 7
f 6 7 15
f 7 16 29
f 7 29 17
f 7 17 18
f 7 18 19
f 7 19 8
f 8 19 9
f 9 20 21
f 9 21 22
f 9 22 10
f 9 19 20
f 11 23 24
f 11 24 12
f 12 24 25
f 12 25 13
f 13 25 26
f 13 26 27
f 13 27 28
f 13 28 14
f 17 29 30
f 17 30 31
f 17 31 18
f 18 32 33
f 18 33 34
f 18 34 19
f 18 31 30
f 18 30 35
f 18 35 36
f 18 36 32
f 19 34 37
f 19 37 20
f 20 37 21
f 21 38 22
f 21 37 38
f 23 39 40
f 23 40 24
f 24 40 41
f 24 41 25
f 25 41 42
f 25 42 26
f 26 43 44
f 26 44 45
f 26 45 27
f 26 42 46
f 26 46 43
f 27 45 28
f 28 45 47
f 29 48 49
f 29 49 30
f 30 49 35
f 32 50 33
f 32 36 51
f 32 51 52
f 32 52 53
f 32 53 50
f 33 50 54
f 33 54 55
f 33 55 34
f 34 55 56
f 34 56 57
f 34 57 37
f 35 49 51
f 35 51 36
f 37 57 58
f 37 58 59
f 37 59 38
f 38 59 58
f 38 58 60
f 38 60 61
f 39 62 41
f 39 41 40
f 41 63 64
f 41 64 42
f 41 62 65
f 41 65 63
f 42 64 46
f 43 46 66
f 43 66 67
f 43 67 44
f 44 67 68
f 44 68 45
f 45 68 69
f 45 69 111
f 45 111 70
f 45 70 47
f 46 71 72
f 46 72 66
f 46 64 73
f 46 73 71
f 48 74 49
f 48 75 74
f 49 74 76
f 49 76 51
f 50 53 77
f 50 77 78
f 50 78 54
f 51 76 79
f 51 79 80
f 51 80 81
f 51 81 82
f 51 82 83
f 51 83 53
f 51 53 52
f 53 83 84
f 53 84 121
f 53 121 77
f 54 85 86
f 54 86 55
f 54 78 85
f 55 86 87
f 55 87 88
f 55 88 56
f 56 88 57
f 57 88 89
f 57 89 58
f 58 89 90
f 58 90 91
f 58 91 60
f 60 91 61
f 61 92 93
f 61 93 94
f 61 91 92
f 62 95 96
f 62 96 65
f 63 65 97
f 63 97 98
f 63 98 99
f 63 99 64
f 64 99 100
f 64 100 101
f 64 101 115
f 64 115 73
f 65 96 95
f 65 95 102
f 65 102 103
f 65 103 97
f 66 72 104
f 66 104 67
f 67 104 105
f 67 105 106
f 67 106 107
f 67 107 68
f 68 107 108
f 68 108 109
f 68 109 69
f 69 109 110
f 69 110 111
f 71 73 112
f 71 112 72
f 72 112 113
f 72 113 114
f 72 114 105
f 72 105 104
f 73 115 112
f 74 75 76
f 75 116 117
f 75 117 118
f 75 118 76
f 76 118 117
f 76 117 119
f 76 119 120
f 76 120 79
f 77 121 85
f 77 85 78
f 79 120 122
f 79 122 123
f 79 123 80
f 80 123 124
f 80 124 82
f 80 82 81
f 82 124 84
f 82 84 83
f 84 124 123
f 84 123 168
f 84 168 216
f 84 216 259
f 84 259 298
f 84 298 337
f 84 337 375
f 84 375 401
f 84 401 425
f 84 425 449
f 84 449 472
f 84 472 466
f 84 466 443
f 84 443 421
f 84 421 394
f 84 394 392
f 84 392 363
f 84 363 328
f 84 328 284
f 84 284 241
f 84 241 198
f 84 198 197
f 84 197 195
f 84 195 191
f 84 191 149
f 84 149 194
f 84 194 240
f 84 240 248
f 84 248 205
f 84 205 209
f 84 209 208
f 84 208 252
f 84 252 251
f 84 251 291
f 84 291 290
f 84 290 299
f 84 299 260
f 84 260 217
f 84 217 169
f 84 169 126
f 84 126 125
f 84 125 121
f 85 125 126
f 85 126 127
f 85 127 86
f 85 121 125
f 86 127 128
f 86 128 129
f 86 129 87
f 87 129 130
f 87 130 88
f 88 130 89
f 89 130 131
f 89 131 90
f 90 131 132
f 90 132 133
f 90 133 91
f 91 133 134
f 91 134 92
f 92 134 135
f 92 135 136
f 92 136 94
f 92 94 93
f 94 136 137
f 94 137 138
f 94 138 139
f 95 140 141
f 95 141 142
f 95 142 102
f 97 103 143
f 97 143 98
f 98 144 147
f 98 147 100
f 98 100 99
f 98 143 145
f 98 145 146
f 98 146 144
f 100 147 115
f 100 115 101
f 102 142 103
f 103 142 148
f 103 148 143
f 105 149 150
f 105 150 106
f 105 114 151
f 105 151 193
f 105 193 149
f 106 150 107
f 107 150 152
f 107 152 108
f 108 152 153
f 108 153 154
f 108 154 201
f 108 201 155
f 108 155 156
f 108 156 109
f 109 156 110
f 110 156 157
f 110 157 158
f 110 158 111
f 112 115 159
f 112 159 113
f 113 159 151
f 113 151 114
f 115 147 160
f 115 160 161
f 115 161 159
f 116 162 163
f 116 163 117
f 117 163 164
f 117 164 119
f 119 164 120
f 120 164 165
f 120 165 166
f 120 166 167
f 120 167 122
f 122 167 123
f 123 167 168
f 126 169 127
f 127 169 170
f 127 170 171
f 127 171 128
f 128 171 172
f 128 172 173
f 128 173 175
f 128 175 174
f 128 174 129
f 129 174 130
f 130 174 175
f 130 175 131
f 131 175 176
f 131 176 132
f 132 176 177
f 132 177 178
f 132 178 133
f 133 178 135
f 133 135 134
f 135 178 179
f 135 179 180
f 135 180 136
f 136 180 181
f 136 181 137
f 137 181 138
f 138 181 182
f 138 182 139
f 139 182 183
f 140 184 185
f 140 185 141
f 141 185 186
f 141 186 142
f 142 186 187
f 142 187 148
f 143 148 145
f 144 146 160
f 144 160 147
f 145 188 160
f 145 160 146
f 145 148 189
f 145 189 188
f 148 187 190
f 148 190 189
f 149 191 192
f 149 192 150
f 149 193 194
f 150 195 196
f 150 196 152
f 150 192 195
f 151 159 193
f 152 196 153
f 153 196 197
f 153 197 198
f 153 198 199
f 153 199 200
f 153 200 154
f 154 200 201
f 155 201 202
f 155 202 156
f 156 202 203
f 156 203 157
f 159 204 193
f 159 161 205
f 159 205 204
f 160 188 206
f 160 206 207
f 160 207 161
f 161 207 208
f 161 208 209
f 161 209 205
f 162 210 211
f 162 211 163
f 163 211 212
f 163 212 164
f 164 212 165
f 165 212 213
f 165 213 166
f 166 213 167
f 167 213 214
f 167 214 168
f 168 214 215
f 168 215 216
f 169 217 170
f 170 217 171
f 171 217 218
f 171 218 219
f 171 219 172
f 172 219 220
f 172 220 221
f 172 221 173
f 173 221 175
f 175 221 222
f 175 222 176
f 176 222 223
f 176 223 177
f 177 223 224
f 177 224 178
f 178 224 179
f 179 225 226
f 179 226 180
f 179 224 225
f 180 226 227
f 180 227 181
f 181 227 182
f 182 228 229
f 182 229 183
f 182 227 228
f 183 229 228
f 183 228 230
f 184 231 232
f 184 232 185
f 185 232 231
f 185 231 233
f 185 233 186
f 186 233 234
f 186 234 187
f 187 234 235
f 187 235 236
f 187 236 190
f 188 189 206
f 189 190 237
f 189 237 206
f 190 238 237
f 190 236 239
f 190 239 238
f 191 195 192
f 193 204 240
f 193 240 194
f 195 197 196
f 198 241 199
f 199 241 200
f 200 241 242
f 200 242 243
f 200 243 244
f 200 244 201
f 201 244 245
f 201 245 202
f 202 245 203
f 203 246 247
f 203 245 246
f 204 205 248
f 204 248 240
f 206 237 249
f 206 249 250
f 206 250 207
f 207 250 251
f 207 251 252
f 207 252 208
f 210 253 254
f 210 254 211
f 211 254 255
f 211 255 212
f 212 255 256
f 212 256 213
f 213 256 215
f 213 215 214
f 215 256 216
f 216 256 257
f 216 257 258
f 216 258 259
f 217 260 218
f 218 260 219
f 219 260 261
f 219 261 262
f 219 262 263
f 219 263 220
f 220 223 222
f 220 222 221
f 220 263 264
f 220 264 223
f 223 264 265
f 223 265 266
f 223 266 224
f 224 266 267
f 224 267 225
f 225 267 268
f 225 268 269
f 225 269 226
f 226 269 227
f 227 269 228
f 228 269 270
f 228 270 271
f 228 271 230
f 230 271 272
f 231 273 274
f 231 274 275
f 231 275 276
f 231 276 233
f 233 276 277
f 233 277 234
f 234 277 235
f 235 277 278
f 235 278 279
f 235 279 236
f 236 279 280
f 236 280 239
f 237 238 281
f 237 281 249
f 238 239 282
f 238 282 281
f 239 280 283
f 239 283 282
f 241 284 242
f 242 284 285
f 242 285 286
f 242 286 287
f 242 287 243
f 243 287 244
f 244 287 288
f 244 288 245
f 245 288 246
f 246 288 247
f 247 288 289
f 249 290 291
f 249 291 250
f 249 281 324
f 249 324 292
f 249 292 290
f 250 291 251
f 253 293 294
f 253 294 254
f 254 294 295
f 254 295 258
f 254 258 257
f 254 257 255
f 255 257 256
f 258 295 259
f 259 295 294
f 259 294 296
f 259 296 297
f 259 297 298
f 260 299 261
f 261 299 290
f 261 290 292
f 261 292 324
f 261 324 325
f 261 325 327
f 261 327 326
f 261 326 362
f 261 362 322
f 261 322 361
f 261 361 391
f 261 391 420
f 261 420 442
f 261 442 465
f 261 465 464
f 261 464 463
f 261 463 462
f 261 462 485
f 261 485 498
f 261 498 497
f 261 497 508
f 261 508 507
f 261 507 510
f 261 510 517
f 261 517 524
f 261 524 523
f 261 523 522
f 261 522 530
f 261 530 535
f 261 535 539
f 261 539 545
f 261 545 544
f 261 544 551
f 261 551 546
f 261 546 540
f 261 540 536
f 261 536 532
f 261 532 525
f 261 525 519
f 261 519 518
f 261 518 511
f 261 511 500
f 261 500 499
f 261 499 488
f 261 488 486
f 261 486 474
f 261 474 473
f 261 473 451
f 261 451 450
f 261 450 428
f 261 428 427
f 261 427 426
f 261 426 404
f 261 404 403
f 261 403 402
f 261 402 377
f 261 377 345
f 261 345 343
f 261 343 376
f 261 376 340
f 261 340 339
f 261 339 338
f 261 338 300
f 261 300 262
f 262 300 263
f 263 300 301
f 263 301 264
f 264 301 265
f 265 301 302
f 265 302 303
f 265 303 266
f 266 303 267
f 267 303 268
f 268 304 305
f 268 305 306
f 268 306 307
f 268 307 269
f 268 303 304
f 269 307 308
f 269 308 270
f 270 308 271
f 271 309 272
f 271 308 310
f 271 310 311
f 271 311 309
f 272 309 312
f 272 312 313
f 273 275 274
f 273 314 315
f 273 315 275
f 275 315 316
f 275 316 276
f 276 316 317
f 276 317 318
f 276 318 277
f 277 318 319
f 277 319 320
f 277 320 278
f 278 320 279
f 279 320 280
f 280 320 321
f 280 321 322
f 280 322 323
f 280 323 283
f 281 282 324
f 282 325 324
f 282 283 325
f 283 323 362
f 283 362 326
f 283 326 327
f 283 327 325
f 284 328 285
f 285 328 329
f 285 329 286
f 286 329 287
f 287 329 330
f 287 330 288
f 288 330 289
f 289 330 331
f 293 332 333
f 293 333 294
f 294 333 296
f 296 333 332
f 296 332 334
f 296 334 297
f 297 334 298
f 298 334 335
f 298 335 336
f 298 336 337
f 300 338 301
f 301 338 302
f 302 338 339
f 302 339 340
f 302 340 341
f 302 341 303
f 303 341 304
f 304 341 340
f 304 340 342
f 304 342 343
f 304 343 306
f 304 306 305
f 306 344 308
f 306 308 307
f 306 343 345
f 306 345 346
f 306 346 344
f 308 344 347
f 308 347 348
f 308 348 349
f 308 349 310
f 309 311 312
f 310 350 311
f 310 349 350
f 311 351 313
f 311 313 312
f 311 350 351
f 313 351 352
f 313 352 353
f 314 354 316
f 314 316 315
f 316 354 355
f 316 355 317
f 317 355 356
f 317 356 318
f 318 356 319
f 319 356 357
f 319 357 320
f 320 357 358
f 320 358 359
f 320 359 360
f 320 360 321
f 321 360 322
f 322 360 361
f 322 362 323
f 328 363 329
f 329 363 364
f 329 364 330
f 330 364 331
f 331 364 365
f 331 365 366
f 331 366 367
f 331 367 368
f 332 369 334
f 334 369 335
f 335 369 370
f 335 370 371
f 335 371 336
f 336 372 373
f 336 373 337
f 336 371 372
f 337 373 374
f 337 374 375
f 340 376 342
f 342 376 343
f 344 346 347
f 345 377 346
f 346 377 378
f 346 378 348
f 346 348 347
f 348 378 379
f 348 379 350
f 348 350 349
f 350 379 380
f 350 380 351
f 351 380 352
f 352 380 379
f 352 379 381
f 352 381 382
f 352 382 383
f 352 383 384
f 352 384 353
f 353 384 385
f 355 386 356
f 356 387 357
f 356 386 388
f 356 388 387
f 357 387 389
f 357 389 358
f 358 389 390
f 358 390 391
f 358 391 361
f 358 361 360
f 358 360 359
f 363 392 393
f 363 393 364
f 364 393 392
f 364 392 365
f 365 392 394
f 365 394 395
f 365 395 366
f 366 368 367
f 366 395 368
f 368 395 396
f 371 373 372
f 371 397 373
f 373 397 398
f 373 398 374
f 374 398 399
f 374 399 375
f 375 399 400
f 375 400 401
f 377 402 378
f 378 402 403
f 378 403 404
f 378 404 405
f 378 405 379
f 379 405 406
f 379 406 407
f 379 407 381
f 381 407 383
f 381 383 382
f 383 407 408
f 383 408 409
f 383 409 410
f 383 410 385
f 383 385 384
f 385 410 411
f 385 411 412
f 386 413 414
f 386 414 415
f 386 415 388
f 387 388 389
f 388 415 389
f 389 415 416
f 389 416 417
f 389 417 418
f 389 418 390
f 390 418 419
f 390 419 391
f 391 419 420
f 394 421 422
f 394 422 395
f 395 423 424
f 395 424 396
f 395 422 423
f 404 426 407
f 404 407 406
f 404 406 405
f 407 426 427
f 407 427 428
f 407 428 429
f 407 429 408
f 408 429 428
f 408 428 430
f 408 430 431
f 408 431 432
f 408 432 409
f 409 411 410
f 409 432 411
f 411 432 412
f 412 432 433
f 412 433 434
f 413 435 436
f 413 436 414
f 414 416 415
f 414 436 437
f 414 437 417
f 414 417 438
f 414 438 416
f 416 438 417
f 417 437 439
f 417 439 440
f 417 440 441
f 417 441 419
f 417 419 418
f 419 441 442
f 419 442 420
f 421 443 422
f 422 443 444
f 422 444 423
f 423 444 445
f 423 445 424
f 424 445 446
f 424 446 447
f 425 448 449
f 428 450 430
f 430 450 431
f 431 450 451
f 431 451 432
f 432 451 452
f 432 452 453
f 432 453 433
f 433 453 454
f 433 454 455
f 433 455 456
f 433 456 434
f 434 456 455
f 435 457 436
f 436 457 458
f 436 458 459
f 436 459 439
f 436 439 437
f 439 459 460
f 439 460 461
f 439 461 440
f 440 461 462
f 440 462 463
f 440 463 441
f 441 463 464
f 441 464 465
f 441 465 442
f 443 466 444
f 444 466 446
f 444 446 445
f 446 466 467
f 446 467 468
f 446 468 447
f 448 469 449
f 449 469 470
f 449 470 468
f 449 468 471
f 449 471 472
f 451 473 452
f 452 473 453
f 453 473 474
f 453 474 475
f 453 475 454
f 454 475 476
f 454 476 477
f 454 477 478
f 454 478 455
f 455 478 477
f 455 477 476
f 457 479 480
f 457 480 458
f 458 480 481
f 458 481 459
f 459 481 460
f 460 481 482
f 460 482 483
f 460 483 484
f 460 484 485
f 460 485 461
f 461 485 462
f 466 472 467
f 467 472 471
f 467 471 468
f 474 486 487
f 474 487 475
f 475 487 486
f 475 486 488
f 475 488 489
f 475 489 476
f 476 489 490
f 479 491 480
f 480 491 492
f 480 492 493
f 480 493 494
f 480 494 483
f 480 483 482
f 480 482 481
f 483 494 495
f 483 495 496
f 483 496 497
f 483 497 498
f 483 498 484
f 484 498 485
f 488 499 489
f 489 499 500
f 489 500 501
f 489 501 490
f 490 501 502
f 491 503 492
f 492 503 493
f 493 503 504
f 493 504 494
f 494 504 505
f 494 505 495
f 495 505 506
f 495 506 496
f 496 507 508
f 496 508 497
f 496 506 509
f 496 509 510
f 496 510 507
f 500 511 502
f 500 502 501
f 502 511 512
f 502 512 513
f 505 514 515
f 505 515 506
f 506 515 516
f 506 516 509
f 509 516 510
f 510 516 517
f 511 518 512
f 512 518 519
f 512 519 520
f 512 520 513
f 514 521 516
f 514 516 515
f 516 521 522
f 516 522 523
f 516 523 524
f 516 524 517
f 519 525 526
f 519 526 527
f 519 527 520
f 521 528 522
f 522 529 530
f 522 528 529
f 525 531 526
f 525 532 531
f 528 533 529
f 529 533 530
f 530 533 534
f 530 534 535
f 531 532 536
f 534 537 538
f 534 538 535
f 535 538 539
f 537 541 538
f 538 542 543
f 538 543 544
f 538 544 545
f 538 545 539
f 538 541 542
f 540 546 547
f 542 548 543
f 543 548 544
f 544 548 549
f 544 549 550
f 544 550 551
f 546 551 552
f 546 552 553
f 546 553 547
f 550 552 551

