# https://github.com/mikedh/trimesh
v -0.00500659 -0.00007313 0.00976945
v -0.00578424 -0.00007313 0.01090178
v -0.00500659 -0.00174750 0.00973741
v -0.00500659 -0.00007313 0.00736664
v -0.00592719 -0.00007313 0.01108267
v -0.00613367 -0.00007313 0.01129062
v -0.00614892 -0.00007313 0.01130415
v -0.00655109 -0.00007313 0.01164314
v -0.00660954 -0.00007313 0.01168729
v -0.00687574 -0.00007313 0.01187744
v -0.00699773 -0.00007313 0.01196289
v -0.00713242 -0.00007313 0.01204266
v -0.00732683 -0.00007313 0.01214164
v -0.00735161 -0.00007313 0.01215090
v -0.00742658 -0.00007313 0.01217868
v -0.00776013 -0.00007313 0.01230046
v -0.00776013 -0.00012771 0.01223992
v -0.00776013 -0.00034405 0.01199637
v -0.00776013 -0.00093342 0.01130842
v -0.00819279 -0.00119172 0.01110332
v -0.00819279 -0.00134382 0.01088683
v -0.00862482 -0.00135791 0.01089324
v -0.00862482 -0.00151083 0.01054428
v -0.00905748 -0.00174750 0.00988981
v -0.00500659 -0.00174750 0.00741222
v -0.00556632 -0.00007313 0.00510056
v -0.00812798 -0.00007313 0.01236954
v -0.00817563 -0.00012262 0.01231684
v -0.00821884 -0.00007313 0.01237594
v -0.00862482 -0.00118992 0.01110902
v -0.00905748 -0.00132218 0.01083626
v -0.00905748 -0.00147395 0.01054428
v -0.00945520 -0.00174750 0.00987058
v -0.00949014 -0.00174750 0.00704759
v -0.00949014 -0.00166325 0.00510056
v -0.00905748 -0.00164309 0.00510056
v -0.00896535 -0.00163687 0.00510056
v -0.00863180 -0.00160605 0.00510056
v -0.00844375 -0.00157442 0.00510056
v -0.00819279 -0.00152607 0.00510056
v -0.00776013 -0.00143445 0.00510056
v -0.00738719 -0.00133808 0.00510056
v -0.00689607 -0.00109273 0.00510056
v -0.00677727 -0.00102422 0.00510056
v -0.00659302 -0.00089573 0.00510056
v -0.00637637 -0.00073740 0.00510056
v -0.00625693 -0.00064611 0.00510056
v -0.00560825 -0.00011623 0.00510056
v -0.00557776 -0.00008509 0.00510056
v -0.01147683 -0.00007313 0.00510056
v -0.00856382 -0.00007313 0.01236526
v -0.00905748 -0.00113715 0.01105276
v -0.00864451 -0.00007313 0.01235316
v -0.00905748 -0.00073347 0.01151352
v -0.00930462 -0.00128105 0.01078285
v -0.00982178 -0.00174750 0.00958572
v -0.00980336 -0.00174750 0.00717008
v -0.00992344 -0.00161966 0.00510056
v -0.01005749 -0.00174750 0.00754183
v -0.01148382 -0.00007313 0.00535123
v -0.01142092 -0.00015573 0.00510056
v -0.00900729 -0.00007313 0.01225488
v -0.00905748 -0.00051696 0.01175352
v -0.00937832 -0.00045517 0.01168444
v -0.00966740 -0.00037355 0.01159969
v -0.00962610 -0.00078624 0.01113537
v -0.00959306 -0.00118533 0.01066178
v -0.00974808 -0.00129301 0.01037265
v -0.01013310 -0.00125712 0.00988269
v -0.01055496 -0.00081001 0.00984565
v -0.00989040 -0.00174750 0.00941978
v -0.01008354 -0.00078575 0.01069098
v -0.01019091 -0.00087917 0.01040256
v -0.01033386 -0.00140889 0.00510056
v -0.01012484 -0.00174750 0.00777684
v -0.01149525 -0.00007313 0.00578423
v -0.01135738 -0.00027767 0.00578423
v -0.01134722 -0.00026374 0.00510056
v -0.00905748 -0.00007313 0.01223850
v -0.00917438 -0.00007313 0.01218580
v -0.00944503 -0.00007313 0.01206117
v -0.00962292 -0.00007313 0.01196645
v -0.00992534 -0.00007313 0.01172432
v -0.00984148 -0.00049762 0.01131127
v -0.00979510 -0.00089704 0.01084695
v -0.01012992 -0.00038879 0.01118308
v -0.01027351 -0.00097063 0.01011129
v -0.01048952 -0.00074183 0.01011129
v -0.01067059 -0.00052532 0.01011129
v -0.01073285 -0.00064496 0.00969254
v -0.01060451 -0.00086835 0.00955723
v -0.00994631 -0.00174750 0.00924531
v -0.01023602 -0.00049729 0.01089466
v -0.01035800 -0.00061481 0.01054214
v -0.01060769 -0.00044386 0.01039330
v -0.01042535 -0.00133841 0.00510056
v -0.01012738 -0.00174750 0.00794776
v -0.01055051 -0.00124073 0.00510056
v -0.01149716 -0.00007313 0.00621650
v -0.01114074 -0.00056924 0.00578423
v -0.01135802 -0.00027882 0.00621650
v -0.01122206 -0.00043600 0.00510056
v -0.01113057 -0.00056072 0.00510056
v -0.01113438 -0.00056465 0.00535123
v -0.01024174 -0.00007313 0.01140955
v -0.01024174 -0.00007329 0.01140955
v -0.00996092 -0.00029685 0.01143732
v -0.01047872 -0.00007313 0.01110190
v -0.01039485 -0.00022031 0.01102997
v -0.01090630 -0.00017966 0.01014262
v -0.01096538 -0.00033618 0.00967830
v -0.01100096 -0.00039010 0.00943901
v -0.01064454 -0.00091933 0.00924531
v -0.01001238 -0.00174750 0.00903023
v -0.01052446 -0.00034012 0.01068172
v -0.01065280 -0.00007313 0.01082416
v -0.01071697 -0.00018982 0.01054001
v -0.01079829 -0.00007313 0.01054143
v -0.01094950 -0.00007313 0.01022025
v -0.01012484 -0.00174750 0.00824900
v -0.01096602 -0.00078559 0.00621650
v -0.01096602 -0.00078575 0.00578423
v -0.01075001 -0.00102717 0.00578423
v -0.01074683 -0.00102537 0.00535123
v -0.01074429 -0.00102422 0.00510056
v -0.01148636 -0.00007313 0.00664950
v -0.01114137 -0.00056908 0.00621650
v -0.01096348 -0.00078100 0.00535123
v -0.01113502 -0.00056400 0.00664950
v -0.01112866 -0.00055711 0.00708249
v -0.01135167 -0.00027079 0.00664950
v -0.01105878 -0.00065201 0.00510056
v -0.01096030 -0.00077706 0.00510056
v -0.01060896 -0.00007313 0.01089608
v -0.01101176 -0.00007313 0.01005218
v -0.01110325 -0.00011984 0.00967830
v -0.01107466 -0.00007313 0.00986488
v -0.01123032 -0.00007313 0.00926311
v -0.01113883 -0.00021998 0.00927522
v -0.01124874 -0.00018081 0.00881303
v -0.01102828 -0.00043091 0.00914988
v -0.01088724 -0.00059055 0.00927522
v -0.01090185 -0.00069118 0.00881303
v -0.01068584 -0.00097063 0.00881303
v -0.01005813 -0.00174750 0.00881303
v -0.01094378 -0.00075297 0.00794776
v -0.01095204 -0.00076608 0.00751477
v -0.01096284 -0.00078034 0.00664950
v -0.01011467 -0.00174750 0.00845268
v -0.01083514 -0.00092113 0.00510056
v -0.01148509 -0.00007313 0.00668938
v -0.01134531 -0.00026063 0.00708249
v -0.01112040 -0.00054974 0.00751477
v -0.01112993 -0.00007313 0.00967830
v -0.01131609 -0.00007313 0.00881303
v -0.01136882 -0.00007313 0.00845695
v -0.01105878 -0.00047484 0.00881303
v -0.01108864 -0.00051450 0.00838075
v -0.01092917 -0.00073101 0.00838075
v -0.01110706 -0.00053663 0.00794776
v -0.01147238 -0.00007313 0.00708249
v -0.01133705 -0.00024555 0.00751477
v -0.01146984 -0.00007313 0.00714444
v -0.01132816 -0.00014836 0.00839642
v -0.01138343 -0.00007313 0.00833588
v -0.01132371 -0.00022195 0.00794776
v -0.01144506 -0.00007313 0.00761376
v -0.01145141 -0.00007313 0.00751477
v -0.01142028 -0.00007313 0.00794776
f 1 2 3
f 1 3 25
f 1 25 4
f 1 4 26
f 1 26 50
f 1 50 60
f 1 60 76
f 1 76 99
f 1 99 126
f 1 126 151
f 1 151 161
f 1 161 163
f 1 163 168
f 1 168 167
f 1 167 169
f 1 169 165
f 1 165 156
f 1 156 155
f 1 155 138
f 1 138 154
f 1 154 137
f 1 137 135
f 1 135 119
f 1 119 118
f 1 118 116
f 1 116 134
f 1 134 108
f 1 108 105
f 1 105 83
f 1 83 82
f 1 82 81
f 1 81 80
f 1 80 79
f 1 79 62
f 1 62 53
f 1 53 51
f 1 51 29
f 1 29 27
f 1 27 16
f 1 16 15
f 1 15 14
f 1 14 13
f 1 13 12
f 1 12 11
f 1 11 10
f 1 10 9
f 1 9 8
f 1 8 7
f 1 7 6
f 1 6 5
f 1 5 2
f 2 5 3
f 3 5 6
f 3 6 7
f 3 7 8
f 3 8 9
f 3 9 10
f 3 10 11
f 3 11 12
f 3 12 13
f 3 13 14
f 3 14 15
f 3 15 16
f 3 16 17
f 3 17 18
f 3 18 19
f 3 19 20
f 3 20 21
f 3 21 22
f 3 22 23
f 3 23 24
f 3 24 33
f 3 33 56
f 3 56 71
f 3 71 92
f 3 92 114
f 3 114 145
f 3 145 149
f 3 149 120
f 3 120 97
f 3 97 75
f 3 75 59
f 3 59 57
f 3 57 34
f 3 34 25
f 4 25 26
f 16 27 17
f 17 27 18
f 18 27 20
f 18 20 19
f 20 27 28
f 20 28 29
f 20 29 30
f 20 30 22
f 20 22 21
f 22 30 31
f 22 31 32
f 22 32 33
f 22 33 23
f 23 33 24
f 25 34 35
f 25 35 36
f 25 36 37
f 25 37 38
f 25 38 39
f 25 39 40
f 25 40 41
f 25 41 42
f 25 42 43
f 25 43 44
f 25 44 45
f 25 45 46
f 25 46 47
f 25 47 48
f 25 48 49
f 25 49 26
f 26 49 48
f 26 48 47
f 26 47 46
f 26 46 45
f 26 45 44
f 26 44 43
f 26 43 42
f 26 42 41
f 26 41 40
f 26 40 39
f 26 39 38
f 26 38 37
f 26 37 36
f 26 36 35
f 26 35 58
f 26 58 74
f 26 74 96
f 26 96 98
f 26 98 125
f 26 125 150
f 26 150 133
f 26 133 132
f 26 132 103
f 26 103 102
f 26 102 78
f 26 78 61
f 26 61 50
f 27 29 28
f 29 51 30
f 30 52 31
f 30 51 53
f 30 53 54
f 30 54 52
f 31 55 33
f 31 33 32
f 31 52 55
f 33 55 56
f 34 57 35
f 35 57 59
f 35 59 58
f 50 61 60
f 52 54 55
f 53 62 63
f 53 63 54
f 54 63 64
f 54 64 55
f 55 64 65
f 55 65 66
f 55 66 67
f 55 67 68
f 55 68 56
f 56 69 70
f 56 70 71
f 56 68 72
f 56 72 73
f 56 73 69
f 58 59 75
f 58 75 74
f 60 61 77
f 60 77 76
f 61 78 77
f 62 79 63
f 63 79 64
f 64 79 80
f 64 80 81
f 64 81 82
f 64 82 65
f 65 82 83
f 65 83 84
f 65 84 66
f 66 84 67
f 67 84 85
f 67 85 68
f 68 85 86
f 68 86 72
f 69 87 88
f 69 88 70
f 69 73 87
f 70 88 89
f 70 89 90
f 70 90 91
f 70 91 71
f 71 91 92
f 72 86 93
f 72 93 73
f 73 93 94
f 73 94 95
f 73 95 87
f 74 75 96
f 75 97 98
f 75 98 96
f 76 77 99
f 77 100 101
f 77 101 99
f 77 78 102
f 77 102 103
f 77 103 104
f 77 104 100
f 83 105 106
f 83 106 86
f 83 86 107
f 83 107 84
f 84 107 86
f 84 86 85
f 86 108 109
f 86 109 93
f 86 106 108
f 87 95 88
f 88 95 89
f 89 110 111
f 89 111 90
f 89 95 110
f 90 111 112
f 90 112 91
f 91 112 113
f 91 113 114
f 91 114 92
f 93 109 115
f 93 115 94
f 94 115 95
f 95 115 116
f 95 116 117
f 95 117 118
f 95 118 119
f 95 119 110
f 97 120 121
f 97 121 122
f 97 122 123
f 97 123 124
f 97 124 98
f 98 124 125
f 99 101 126
f 100 122 127
f 100 127 101
f 100 104 128
f 100 128 122
f 101 127 129
f 101 129 130
f 101 130 131
f 101 131 126
f 103 132 104
f 104 132 133
f 104 133 128
f 105 108 106
f 108 134 115
f 108 115 109
f 110 119 135
f 110 135 111
f 111 136 112
f 111 135 137
f 111 137 136
f 112 138 139
f 112 139 140
f 112 140 141
f 112 141 142
f 112 142 113
f 112 136 138
f 113 142 143
f 113 143 144
f 113 144 145
f 113 145 114
f 115 134 116
f 116 118 117
f 120 146 147
f 120 147 148
f 120 148 121
f 120 149 146
f 121 148 127
f 121 127 122
f 122 128 125
f 122 125 124
f 122 124 123
f 125 128 150
f 126 131 152
f 126 152 151
f 127 148 129
f 128 133 150
f 129 148 147
f 129 147 130
f 130 147 153
f 130 153 131
f 131 153 152
f 136 154 138
f 136 137 154
f 138 155 139
f 139 155 140
f 140 155 156
f 140 156 157
f 140 157 141
f 141 157 143
f 141 143 142
f 143 157 158
f 143 158 159
f 143 159 144
f 144 149 145
f 144 159 149
f 146 149 159
f 146 159 160
f 146 160 153
f 146 153 147
f 151 152 161
f 152 153 162
f 152 162 163
f 152 163 161
f 153 160 162
f 156 164 157
f 156 165 164
f 157 164 158
f 158 166 160
f 158 160 159
f 158 164 166
f 160 166 162
f 162 166 167
f 162 167 168
f 162 168 163
f 164 165 166
f 165 169 166
f 166 169 167

