# https://github.com/mikedh/trimesh
v -0.00025734 0.00746876 0.00073027
v -0.00018143 0.00740160 0.00079850
v -0.00012026 0.00717636 0.00073027
v -0.00031940 0.00746876 0.00063531
v -0.00026761 0.00746876 0.00084492
v 0.00119958 0.00625736 0.00251019
v 0.00116386 0.00619102 0.00232098
v 0.00111787 0.00610747 0.00209308
v 0.00068611 0.00653175 0.00165698
v 0.00063387 0.00631101 0.00135312
v 0.00034543 0.00662922 0.00110553
v 0.00023827 0.00647564 0.00081679
v -0.00053015 0.00746876 0.00035712
v -0.00040066 0.00746876 0.00093074
v 0.00089596 0.00643919 0.00251019
v 0.00124959 0.00605423 0.00251019
v 0.00126834 0.00588387 0.00251019
v 0.00111787 0.00604031 0.00209308
v 0.00077362 0.00587813 0.00152896
v 0.00039231 0.00632330 0.00098560
v 0.00026149 0.00618733 0.00078971
v -0.00018768 0.00651373 0.00037576
v -0.00022474 0.00674348 0.00041304
v -0.00002203 0.00674348 0.00062969
v -0.00056274 0.00746876 0.00032090
v -0.00083510 0.00746876 0.00103800
v -0.00329218 0.00746876 0.00126695
v -0.00329218 0.00644738 0.00251019
v 0.00118306 0.00552348 0.00251019
v 0.00116654 0.00556074 0.00241453
v 0.00110135 0.00575159 0.00212579
v 0.00118619 0.00588878 0.00229073
v 0.00100803 0.00588878 0.00192462
v 0.00072763 0.00559392 0.00160282
v 0.00062449 0.00587813 0.00131267
v 0.00026149 0.00605177 0.00078971
v -0.00016893 0.00622501 0.00035888
v -0.00036003 0.00634582 0.00021856
v -0.00066901 0.00631101 -0.00002552
v -0.00070919 0.00674348 0.00000789
v -0.00102219 0.00746876 -0.00008038
v -0.00101192 0.00746876 -0.00007194
v -0.00051273 0.00717636 0.00027729
v -0.00070651 0.00746876 0.00019288
v -0.00329218 0.00746876 -0.00103488
v -0.00329218 0.00328537 0.00251019
v 0.00106072 0.00532117 0.00251019
v 0.00101830 0.00542805 0.00229073
v 0.00080711 0.00544812 0.00190422
v 0.00060976 0.00530601 0.00177058
v 0.00047134 0.00543256 0.00144702
v 0.00033338 0.00555992 0.00113788
v 0.00020389 0.00576305 0.00084949
v 0.00038472 0.00589574 0.00100529
v -0.00016893 0.00605505 0.00035888
v -0.00071589 0.00587813 0.00000965
v -0.00093244 0.00587813 -0.00012997
v -0.00088511 0.00631101 -0.00015881
v -0.00092530 0.00674348 -0.00014122
v -0.00098289 0.00717636 -0.00010711
v -0.00114810 0.00746876 -0.00016303
v -0.00329218 0.00703752 -0.00104859
v -0.00300820 0.00746876 -0.00097122
v -0.00299883 0.00631101 -0.00100885
v -0.00143832 0.00328537 0.00251019
v -0.00329218 0.00328537 0.00034939
v 0.00083435 0.00507749 0.00251019
v 0.00078612 0.00512541 0.00232098
v 0.00071022 0.00519871 0.00205897
v 0.00032132 0.00515858 0.00157961
v 0.00020077 0.00527161 0.00129122
v 0.00005789 0.00541536 0.00099474
v -0.00008454 0.00555910 0.00070987
v -0.00024216 0.00576674 0.00042113
v -0.00039307 0.00589779 0.00024669
v -0.00101058 0.00562627 -0.00008601
v -0.00153566 0.00579745 -0.00046232
v -0.00130884 0.00591622 -0.00035787
v -0.00148119 0.00608618 -0.00049327
v -0.00148119 0.00613368 -0.00049327
v -0.00130884 0.00629094 -0.00039620
v -0.00126731 0.00674348 -0.00034239
v -0.00126731 0.00717636 -0.00028647
v -0.00149369 0.00746876 -0.00038143
v -0.00124543 0.00746876 -0.00022458
v -0.00329218 0.00660465 -0.00106231
v -0.00291355 0.00746876 -0.00094730
v -0.00277245 0.00703425 -0.00092726
v -0.00299883 0.00587813 -0.00101905
v -0.00329218 0.00587813 -0.00108271
v -0.00272334 0.00631101 -0.00093992
v -0.00106103 0.00393776 0.00168476
v -0.00066052 0.00395987 0.00216729
v -0.00057033 0.00389681 0.00245603
v -0.00055515 0.00389148 0.00251019
v -0.00258359 0.00328537 0.00104117
v -0.00329218 0.00337547 0.00024775
v -0.00284613 0.00355157 0.00042500
v -0.00268539 0.00342502 0.00071374
v -0.00300865 0.00328783 0.00059381
v -0.00300999 0.00328537 0.00059557
v 0.00061422 0.00485962 0.00251019
v 0.00056243 0.00490917 0.00232098
v 0.00027221 0.00477403 0.00206881
v 0.00044098 0.00503408 0.00191970
v 0.00016907 0.00486986 0.00178043
v -0.00011937 0.00473881 0.00159438
v -0.00024930 0.00485266 0.00130599
v -0.00008767 0.00514097 0.00113999
v -0.00023323 0.00527120 0.00085160
v -0.00038191 0.00542601 0.00057236
v -0.00053059 0.00558163 0.00030507
v -0.00085296 0.00545959 0.00017002
v -0.00118694 0.00533796 0.00003497
v -0.00314751 0.00387264 -0.00010957
v -0.00329218 0.00382104 -0.00016760
v -0.00329218 0.00400287 -0.00031461
v -0.00329218 0.00407700 -0.00037229
v -0.00329218 0.00428586 -0.00052633
v -0.00168791 0.00544239 -0.00036138
v -0.00182409 0.00558450 -0.00053582
v -0.00168791 0.00591622 -0.00056150
v -0.00213307 0.00587813 -0.00074508
v -0.00213307 0.00631101 -0.00076548
v -0.00166202 0.00629094 -0.00057205
v -0.00149235 0.00642199 -0.00048764
v -0.00151557 0.00674348 -0.00047639
v -0.00155709 0.00717636 -0.00045458
v -0.00158790 0.00746876 -0.00043594
v -0.00280371 0.00746876 -0.00091882
v -0.00279255 0.00732256 -0.00092163
v -0.00250679 0.00631101 -0.00088259
v -0.00329218 0.00545017 -0.00106829
v -0.00272155 0.00587813 -0.00094238
v -0.00275191 0.00561603 -0.00093535
v -0.00149101 0.00393612 0.00124656
v -0.00123025 0.00400820 0.00141677
v -0.00072661 0.00444312 0.00135066
v -0.00041897 0.00459097 0.00147269
v -0.00081680 0.00402499 0.00185287
v -0.00258760 0.00328537 0.00103624
v -0.00226300 0.00344017 0.00114773
v -0.00049353 0.00425965 0.00188839
v -0.00027698 0.00443289 0.00188839
v 0.00002708 0.00466550 0.00191020
v -0.00009883 0.00429037 0.00240398
v -0.00032788 0.00406062 0.00251019
v -0.00329218 0.00359498 0.00003568
v -0.00115926 0.00488378 0.00045525
v -0.00097486 0.00473758 0.00074363
v -0.00068642 0.00485471 0.00086989
v -0.00053774 0.00473185 0.00115828
v 0.00039008 0.00465772 0.00251019
v 0.00034588 0.00470727 0.00232098
v -0.00038548 0.00499804 0.00100494
v -0.00052166 0.00514343 0.00072288
v -0.00069535 0.00529332 0.00043485
v -0.00098379 0.00517250 0.00032336
v -0.00329218 0.00444271 -0.00063113
v -0.00329218 0.00482399 -0.00087978
v -0.00327432 0.00485798 -0.00089033
v -0.00312876 0.00514670 -0.00096032
v -0.00283987 0.00532813 -0.00089596
v -0.00250500 0.00587813 -0.00087521
v -0.00253715 0.00674348 -0.00087134
v -0.00274522 0.00746876 -0.00090123
v -0.00257823 0.00746876 -0.00084778
v -0.00213307 0.00674348 -0.00073981
v -0.00173212 0.00674348 -0.00057627
v -0.00177319 0.00717636 -0.00055939
v -0.00180400 0.00746876 -0.00054673
v -0.00173390 0.00746876 -0.00051261
v -0.00329218 0.00506889 -0.00099232
v -0.00298990 0.00546123 -0.00098494
v 0.00013201 0.00443329 0.00251019
v -0.00005954 0.00427358 0.00251019
v -0.00083510 0.00501361 0.00058924
v -0.00329218 0.00487641 -0.00090616
v -0.00242508 0.00746876 -0.00079573
v -0.00213307 0.00717636 -0.00071026
v -0.00213307 0.00746876 -0.00068846
v -0.00201609 0.00746876 -0.00063957
f 1 2 3
f 1 3 4
f 1 4 13
f 1 13 25
f 1 25 44
f 1 44 42
f 1 42 41
f 1 41 61
f 1 61 85
f 1 85 84
f 1 84 129
f 1 129 172
f 1 172 171
f 1 171 182
f 1 182 181
f 1 181 179
f 1 179 167
f 1 167 166
f 1 166 130
f 1 130 87
f 1 87 63
f 1 63 45
f 1 45 27
f 1 27 26
f 1 26 14
f 1 14 5
f 1 5 6
f 1 6 2
f 2 6 7
f 2 7 8
f 2 8 9
f 2 9 10
f 2 10 3
f 3 10 11
f 3 11 12
f 3 12 13
f 3 13 4
f 5 14 15
f 5 15 6
f 6 15 28
f 6 28 46
f 6 46 65
f 6 65 95
f 6 95 147
f 6 147 176
f 6 176 175
f 6 175 153
f 6 153 102
f 6 102 67
f 6 67 47
f 6 47 29
f 6 29 17
f 6 17 16
f 6 16 7
f 7 16 8
f 8 16 17
f 8 17 18
f 8 18 19
f 8 19 10
f 8 10 9
f 10 20 12
f 10 12 11
f 10 19 20
f 12 20 21
f 12 21 22
f 12 22 23
f 12 23 24
f 12 24 13
f 13 24 25
f 14 26 15
f 15 26 27
f 15 27 28
f 17 29 30
f 17 30 31
f 17 31 32
f 17 32 18
f 18 31 33
f 18 33 19
f 18 32 31
f 19 33 31
f 19 31 34
f 19 34 35
f 19 35 21
f 19 21 20
f 21 36 55
f 21 55 37
f 21 37 22
f 21 35 36
f 22 37 38
f 22 38 39
f 22 39 40
f 22 40 41
f 22 41 42
f 22 42 43
f 22 43 25
f 22 25 23
f 23 25 24
f 25 43 44
f 27 45 62
f 27 62 86
f 27 86 90
f 27 90 133
f 27 133 173
f 27 173 178
f 27 178 160
f 27 160 159
f 27 159 119
f 27 119 118
f 27 118 117
f 27 117 116
f 27 116 148
f 27 148 97
f 27 97 66
f 27 66 46
f 27 46 28
f 29 47 30
f 30 47 48
f 30 48 34
f 30 34 31
f 34 48 49
f 34 49 50
f 34 50 51
f 34 51 52
f 34 52 53
f 34 53 35
f 35 54 36
f 35 53 54
f 36 54 53
f 36 53 55
f 37 55 39
f 37 39 38
f 39 56 57
f 39 57 58
f 39 58 59
f 39 59 40
f 39 55 56
f 40 59 60
f 40 60 41
f 41 60 61
f 42 44 43
f 45 63 64
f 45 64 62
f 46 66 101
f 46 101 141
f 46 141 96
f 46 96 65
f 47 67 68
f 47 68 69
f 47 69 48
f 48 69 49
f 49 69 50
f 50 70 71
f 50 71 51
f 50 69 70
f 51 71 52
f 52 71 72
f 52 72 73
f 52 73 53
f 53 73 74
f 53 74 55
f 55 74 75
f 55 75 56
f 56 76 57
f 56 75 74
f 56 74 76
f 57 76 77
f 57 77 78
f 57 78 79
f 57 79 58
f 58 79 80
f 58 80 81
f 58 81 82
f 58 82 59
f 59 82 83
f 59 83 60
f 60 83 84
f 60 84 85
f 60 85 61
f 62 64 86
f 63 87 88
f 63 88 64
f 64 89 90
f 64 90 86
f 64 88 91
f 64 91 89
f 65 92 93
f 65 93 94
f 65 94 95
f 65 96 92
f 66 97 98
f 66 98 99
f 66 99 100
f 66 100 101
f 67 102 68
f 68 102 103
f 68 103 69
f 69 103 104
f 69 104 105
f 69 105 70
f 70 105 106
f 70 106 107
f 70 107 71
f 71 107 108
f 71 108 109
f 71 109 110
f 71 110 72
f 72 110 73
f 73 110 111
f 73 111 112
f 73 112 74
f 74 112 76
f 76 112 113
f 76 113 114
f 76 114 115
f 76 115 116
f 76 116 117
f 76 117 118
f 76 118 119
f 76 119 120
f 76 120 121
f 76 121 77
f 77 79 78
f 77 121 122
f 77 122 79
f 79 122 123
f 79 123 124
f 79 124 125
f 79 125 80
f 80 125 126
f 80 126 81
f 81 126 82
f 82 126 127
f 82 127 128
f 82 128 129
f 82 129 84
f 82 84 83
f 87 130 131
f 87 131 88
f 88 131 132
f 88 132 91
f 89 133 90
f 89 91 132
f 89 132 134
f 89 134 135
f 89 135 133
f 92 136 137
f 92 137 138
f 92 138 139
f 92 139 107
f 92 107 140
f 92 140 93
f 92 96 141
f 92 141 142
f 92 142 99
f 92 99 136
f 93 140 143
f 93 143 144
f 93 144 145
f 93 145 104
f 93 104 146
f 93 146 147
f 93 147 94
f 94 147 95
f 97 148 98
f 98 148 149
f 98 149 150
f 98 150 99
f 99 142 141
f 99 141 101
f 99 101 100
f 99 150 151
f 99 151 152
f 99 152 136
f 102 153 154
f 102 154 103
f 103 154 104
f 104 145 107
f 104 107 106
f 104 106 105
f 104 154 146
f 107 145 144
f 107 144 143
f 107 143 140
f 107 139 152
f 107 152 108
f 108 155 109
f 108 152 151
f 108 151 155
f 109 155 110
f 110 155 151
f 110 151 156
f 110 156 111
f 111 156 157
f 111 157 112
f 112 157 158
f 112 158 113
f 113 158 114
f 114 158 115
f 115 148 116
f 115 158 149
f 115 149 148
f 119 159 120
f 120 159 121
f 121 123 122
f 121 159 160
f 121 160 161
f 121 161 162
f 121 162 163
f 121 163 123
f 123 135 164
f 123 164 124
f 123 163 135
f 124 164 132
f 124 132 165
f 124 165 166
f 124 166 167
f 124 167 168
f 124 168 169
f 124 169 125
f 125 169 126
f 126 169 127
f 127 169 170
f 127 170 171
f 127 171 172
f 127 172 128
f 128 172 129
f 130 166 132
f 130 132 131
f 132 164 134
f 132 166 165
f 133 135 174
f 133 174 173
f 134 164 135
f 135 163 162
f 135 162 174
f 136 152 138
f 136 138 137
f 138 152 139
f 146 154 175
f 146 175 176
f 146 176 147
f 149 158 157
f 149 157 177
f 149 177 150
f 150 177 156
f 150 156 151
f 153 175 154
f 156 177 157
f 160 178 161
f 161 178 162
f 162 178 173
f 162 173 174
f 167 179 168
f 168 179 180
f 168 180 169
f 169 180 181
f 169 181 182
f 169 182 170
f 170 182 171
f 179 181 180

