# https://github.com/mikedh/trimesh
v -0.00098832 0.00328496 0.00838050
v -0.00099882 0.00328496 0.00811212
v -0.00102401 0.00328496 0.00881311
v 0.00003088 0.00321944 0.00881311
v 0.00003088 0.00321944 0.00794758
v -0.00103451 0.00328496 0.00794758
v -0.00135989 0.00328496 0.00924572
v 0.00046386 0.00311009 0.00915998
v 0.00075513 0.00308004 0.00907998
v 0.00046386 0.00315491 0.00881311
v -0.00166849 0.00328496 0.00960437
v -0.00169001 0.00328496 0.00962882
v -0.00216812 0.00328496 0.00998989
v 0.00046386 0.00315491 0.00794758
v 0.00075513 0.00308004 0.00770003
v 0.00046386 0.00311009 0.00765324
v -0.00216812 0.00328496 0.00690636
v 0.00046386 0.00302684 0.00937644
v 0.00079240 0.00308792 0.00881311
v 0.00089789 0.00298989 0.00923274
v 0.00100915 0.00304358 0.00881311
v -0.00216812 -0.00174750 0.00973418
v -0.00213296 -0.00174750 0.00973418
v 0.00192601 -0.00174750 0.00968588
v 0.00219419 -0.00104603 0.00969614
v 0.00262717 0.00025199 0.00968437
v 0.00219419 0.00111750 0.00969856
v 0.00176174 0.00198300 0.00968316
v 0.00136235 0.00245246 0.00960769
v 0.00124059 0.00270566 0.00952618
v 0.00089579 0.00276526 0.00957237
v 0.00079240 0.00308792 0.00794758
v 0.00100915 0.00304161 0.00794758
v 0.00132876 0.00290664 0.00794758
v 0.00162739 0.00268595 0.00765716
v 0.00132876 0.00276822 0.00759588
v -0.00216812 -0.00174750 0.00741203
v 0.00132876 0.00241551 0.00743618
v 0.00176174 0.00198300 0.00741656
v 0.00219419 0.00155000 0.00742410
v 0.00262717 0.00068499 0.00742259
v 0.00262717 0.00025199 0.00741293
v 0.00262717 -0.00018052 0.00741263
v 0.00262717 -0.00061352 0.00741807
v 0.00219419 -0.00147903 0.00741776
v 0.00176174 -0.00174750 0.00741354
v 0.00132876 -0.00174750 0.00741203
v 0.00136235 0.00278644 0.00927863
v 0.00100915 0.00304358 0.00838050
v 0.00132876 0.00290812 0.00881311
v 0.00219314 -0.00174750 0.00960286
v 0.00219419 -0.00147903 0.00967894
v 0.00262717 -0.00018052 0.00967954
v 0.00293577 -0.00018052 0.00954731
v 0.00293524 0.00025199 0.00954641
v 0.00262717 0.00068499 0.00964754
v 0.00219419 0.00155000 0.00966173
v 0.00217792 0.00195148 0.00954339
v 0.00202310 0.00223768 0.00949448
v 0.00176174 0.00232832 0.00955154
v 0.00152925 0.00262142 0.00944467
v 0.00132876 0.00290812 0.00838050
v 0.00166832 0.00271305 0.00794758
v 0.00188507 0.00257118 0.00794758
v 0.00215798 0.00235443 0.00794758
v 0.00209815 0.00230271 0.00763090
v 0.00176751 0.00243472 0.00756267
v 0.00222306 0.00200813 0.00755301
v 0.00262717 0.00111750 0.00746033
v 0.00297670 0.00068499 0.00758229
v 0.00301659 0.00025199 0.00757233
v 0.00301606 -0.00018052 0.00757203
v 0.00298562 -0.00061352 0.00757777
v 0.00262717 -0.00104603 0.00745490
v 0.00219419 -0.00174750 0.00746093
v 0.00162739 0.00268595 0.00915606
v 0.00166832 0.00271305 0.00881311
v 0.00231280 -0.00174750 0.00955395
v 0.00252273 -0.00147903 0.00954520
v 0.00265446 -0.00105095 0.00958384
v 0.00262717 -0.00061352 0.00965207
v 0.00290218 -0.00061352 0.00951984
v 0.00311053 -0.00018052 0.00924572
v 0.00311001 0.00025199 0.00924572
v 0.00289221 0.00068499 0.00950958
v 0.00265289 0.00110863 0.00957418
v 0.00250646 0.00155000 0.00952980
v 0.00242407 0.00178596 0.00947365
v 0.00176751 0.00253768 0.00927863
v 0.00231805 0.00208300 0.00924572
v 0.00210183 0.00230566 0.00924572
v 0.00188507 0.00257118 0.00881311
v 0.00215798 0.00235443 0.00881311
v 0.00237473 0.00215394 0.00794758
v 0.00249019 0.00188054 0.00764086
v 0.00263189 0.00153818 0.00757988
v 0.00292160 0.00111750 0.00761973
v 0.00319135 0.00025199 0.00794758
v 0.00319083 -0.00018052 0.00794758
v 0.00312733 -0.00061352 0.00794758
v 0.00293314 -0.00104603 0.00761460
v 0.00264082 -0.00147213 0.00757414
v 0.00254582 -0.00174750 0.00761852
v 0.00244348 -0.00174750 0.00949086
v 0.00281663 -0.00119824 0.00941176
v 0.00287174 -0.00090957 0.00949086
v 0.00304388 -0.00061352 0.00924572
v 0.00312733 -0.00061352 0.00881311
v 0.00319293 -0.00018052 0.00881311
v 0.00319345 0.00025199 0.00881311
v 0.00311001 0.00068499 0.00881311
v 0.00302551 0.00068499 0.00924572
v 0.00285914 0.00095839 0.00947848
v 0.00281401 0.00124705 0.00940935
v 0.00270852 0.00153818 0.00925719
v 0.00248022 0.00186675 0.00924572
v 0.00287594 0.00138547 0.00912074
v 0.00237473 0.00215394 0.00881311
v 0.00253008 0.00193719 0.00794758
v 0.00287594 0.00138547 0.00767588
v 0.00311001 0.00068499 0.00794758
v 0.00319345 0.00025199 0.00838050
v 0.00319293 -0.00018052 0.00838050
v 0.00302289 -0.00104603 0.00794758
v 0.00287909 -0.00132336 0.00767467
v 0.00266443 -0.00174750 0.00794758
v 0.00244506 -0.00174750 0.00948844
v 0.00273056 -0.00147213 0.00925870
v 0.00287909 -0.00132336 0.00912315
v 0.00293209 -0.00105095 0.00925870
v 0.00257784 -0.00174750 0.00923274
v 0.00302289 -0.00104603 0.00881311
v 0.00299979 0.00111750 0.00881311
v 0.00291530 0.00110863 0.00925719
v 0.00289221 0.00141158 0.00881311
v 0.00274683 0.00162784 0.00881311
v 0.00253008 0.00193719 0.00881311
v 0.00274683 0.00162784 0.00794758
v 0.00289221 0.00141158 0.00794758
v 0.00299979 0.00111750 0.00794758
v 0.00289693 -0.00135390 0.00794758
v 0.00276992 -0.00157016 0.00794758
v 0.00266443 -0.00174750 0.00881311
v 0.00262140 -0.00174750 0.00902987
v 0.00276992 -0.00157016 0.00881311
v 0.00289693 -0.00135390 0.00881311
f 1 2 6
f 1 6 17
f 1 17 13
f 1 13 12
f 1 12 11
f 1 11 7
f 1 7 3
f 1 3 4
f 1 4 5
f 1 5 2
f 2 5 6
f 3 7 4
f 4 8 9
f 4 9 10
f 4 10 14
f 4 14 5
f 4 7 11
f 4 11 12
f 4 12 13
f 4 13 8
f 5 14 15
f 5 15 16
f 5 16 17
f 5 17 6
f 8 18 9
f 8 13 18
f 9 19 10
f 9 18 20
f 9 20 21
f 9 21 19
f 10 19 32
f 10 32 14
f 13 17 37
f 13 37 22
f 13 22 23
f 13 23 24
f 13 24 25
f 13 25 26
f 13 26 27
f 13 27 28
f 13 28 29
f 13 29 30
f 13 30 31
f 13 31 18
f 14 32 15
f 15 32 33
f 15 33 34
f 15 34 35
f 15 35 36
f 15 36 17
f 15 17 16
f 17 36 38
f 17 38 39
f 17 39 40
f 17 40 41
f 17 41 42
f 17 42 43
f 17 43 44
f 17 44 45
f 17 45 46
f 17 46 47
f 17 47 37
f 18 31 30
f 18 30 20
f 19 21 49
f 19 49 32
f 20 30 48
f 20 48 21
f 21 48 50
f 21 50 62
f 21 62 49
f 22 37 47
f 22 47 46
f 22 46 75
f 22 75 103
f 22 103 126
f 22 126 143
f 22 143 144
f 22 144 131
f 22 131 127
f 22 127 104
f 22 104 78
f 22 78 51
f 22 51 24
f 22 24 23
f 24 51 52
f 24 52 25
f 25 52 53
f 25 53 26
f 26 53 54
f 26 54 55
f 26 55 56
f 26 56 27
f 27 56 57
f 27 57 28
f 28 57 58
f 28 58 59
f 28 59 60
f 28 60 29
f 29 60 30
f 30 60 59
f 30 59 61
f 30 61 48
f 32 49 33
f 33 49 34
f 34 62 63
f 34 63 35
f 34 49 62
f 35 63 64
f 35 64 65
f 35 65 66
f 35 66 67
f 35 67 36
f 36 67 38
f 38 67 39
f 39 67 68
f 39 68 40
f 40 68 69
f 40 69 41
f 41 69 70
f 41 70 71
f 41 71 42
f 42 71 43
f 43 71 72
f 43 72 44
f 44 72 73
f 44 73 74
f 44 74 45
f 45 74 75
f 45 75 46
f 48 61 76
f 48 76 50
f 50 76 77
f 50 77 63
f 50 63 62
f 51 78 79
f 51 79 52
f 52 79 80
f 52 80 81
f 52 81 53
f 53 81 54
f 54 82 83
f 54 83 84
f 54 84 55
f 54 81 82
f 55 84 85
f 55 85 56
f 56 85 86
f 56 86 57
f 57 86 87
f 57 87 58
f 58 87 88
f 58 88 59
f 59 89 61
f 59 88 90
f 59 90 91
f 59 91 89
f 61 89 76
f 63 77 92
f 63 92 64
f 64 92 93
f 64 93 65
f 65 93 118
f 65 118 94
f 65 94 66
f 66 94 95
f 66 95 68
f 66 68 67
f 68 95 96
f 68 96 69
f 69 96 97
f 69 97 70
f 70 97 98
f 70 98 71
f 71 98 72
f 72 98 99
f 72 99 73
f 73 99 100
f 73 100 101
f 73 101 74
f 74 101 102
f 74 102 75
f 75 102 103
f 76 89 91
f 76 91 92
f 76 92 77
f 78 104 79
f 79 104 105
f 79 105 106
f 79 106 80
f 80 106 82
f 80 82 81
f 82 106 83
f 83 106 107
f 83 107 108
f 83 108 109
f 83 109 110
f 83 110 84
f 84 111 112
f 84 112 113
f 84 113 85
f 84 110 111
f 85 113 86
f 86 113 87
f 87 113 114
f 87 114 88
f 88 114 115
f 88 115 116
f 88 116 90
f 90 116 117
f 90 117 118
f 90 118 91
f 91 93 92
f 91 118 93
f 94 118 137
f 94 137 119
f 94 119 120
f 94 120 95
f 95 120 96
f 96 120 97
f 97 121 98
f 97 120 121
f 98 122 123
f 98 123 99
f 98 121 122
f 99 123 100
f 100 123 109
f 100 109 108
f 100 108 132
f 100 132 124
f 100 124 101
f 101 124 125
f 101 125 102
f 102 125 103
f 103 125 126
f 104 127 105
f 105 128 129
f 105 129 130
f 105 130 106
f 105 127 131
f 105 131 128
f 106 130 107
f 107 130 132
f 107 132 108
f 109 123 122
f 109 122 110
f 110 122 121
f 110 121 111
f 111 121 140
f 111 140 133
f 111 133 117
f 111 117 112
f 112 134 113
f 112 117 134
f 113 134 114
f 114 134 117
f 114 117 115
f 115 117 116
f 117 135 136
f 117 136 137
f 117 137 118
f 117 133 135
f 119 137 136
f 119 136 138
f 119 138 120
f 120 138 139
f 120 139 140
f 120 140 121
f 124 132 146
f 124 146 141
f 124 141 125
f 125 141 142
f 125 142 126
f 126 142 145
f 126 145 143
f 128 131 129
f 129 131 144
f 129 144 143
f 129 143 145
f 129 145 146
f 129 146 132
f 129 132 130
f 133 140 139
f 133 139 135
f 135 139 138
f 135 138 136
f 141 146 145
f 141 145 142

