# https://github.com/mikedh/trimesh
v -0.00329206 0.00587788 0.01308408
v -0.00329206 0.00558468 0.01307974
v -0.00329206 0.00601752 0.01308119
v -0.00343207 0.00587788 0.01311590
v -0.00343207 0.00544504 0.01310723
v -0.00329206 0.00544832 0.01306962
v -0.00329206 0.00746876 0.01303346
v -0.00343207 0.00746876 0.01306528
v -0.00386518 0.00746876 0.01313471
v -0.00386518 0.00587788 0.01318244
v -0.00386518 0.00544504 0.01319111
v -0.00429748 0.00501303 0.01325186
v -0.00386518 0.00501303 0.01316074
v -0.00329206 0.00514284 0.01300743
v -0.00329206 0.00746876 0.00578149
v -0.00400519 0.00746876 0.01315206
v -0.00429748 0.00544504 0.01325041
v -0.00473060 0.00501303 0.01329959
v -0.00536758 0.00390739 0.01335889
v -0.00329206 0.00506872 0.01299152
v -0.00546092 0.00361911 0.01334298
v -0.00559028 0.00328578 0.01331261
v -0.00329206 0.00328578 0.00578149
v -0.00329288 0.00587788 -0.00108141
v -0.00329288 0.00631071 -0.00106984
v -0.00329288 0.00660432 -0.00106116
v -0.00329288 0.00703716 -0.00104815
v -0.00329288 0.00746876 -0.00103368
v -0.00429748 0.00746876 0.01318822
v -0.00473060 0.00587788 0.01327789
v -0.00473060 0.00544504 0.01328946
v -0.00473060 0.00746876 0.01323306
v -0.00516289 0.00501303 0.01332996
v -0.00519892 0.00455849 0.01334298
v -0.00536185 0.00414777 0.01335889
v -0.00560092 0.00374400 0.01336757
v -0.00597672 0.00328578 0.01337769
v -0.00574911 0.00338692 0.01336612
v -0.00577941 0.00328578 0.01336034
v -0.00329206 0.00485005 0.01289461
v -0.00557881 0.00328578 0.01330827
v -0.00511295 0.00328578 0.01308698
v -0.00329288 0.00328578 0.00035047
v -0.00329288 0.00337587 0.00024923
v -0.00329288 0.00359536 0.00003661
v -0.00329288 0.00382140 -0.00016732
v -0.00329288 0.00400321 -0.00031340
v -0.00329288 0.00407733 -0.00037126
v -0.00329288 0.00428617 -0.00052602
v -0.00329288 0.00444301 -0.00063015
v -0.00329288 0.00458838 -0.00072561
v -0.00329288 0.00482425 -0.00087892
v -0.00329288 0.00487666 -0.00090496
v -0.00329288 0.00506913 -0.00099174
v -0.00329288 0.00544996 -0.00106695
v -0.00329206 0.00328578 0.01164642
v -0.00343207 0.00544504 -0.00110600
v -0.00343207 0.00587788 -0.00111178
v -0.00343207 0.00746876 -0.00106550
v -0.00487142 0.00746876 0.01324463
v -0.00516289 0.00746876 0.01326777
v -0.00516289 0.00631071 0.01329814
v -0.00516289 0.00544504 0.01331984
v -0.00536758 0.00440001 0.01335744
v -0.00602912 0.00371493 0.01338348
v -0.00645814 0.00328578 0.01338782
v -0.00490008 0.00328578 0.01295536
v -0.00329206 0.00470672 0.01279915
v -0.00508184 0.00328578 0.01306817
v -0.00351231 0.00328578 0.00015666
v -0.00389875 0.00328578 -0.00017166
v -0.00418449 0.00328578 -0.00040452
v -0.00440474 0.00328578 -0.00057953
v -0.00470521 0.00328578 -0.00081384
v -0.00474861 0.00328578 -0.00084421
v -0.00507529 0.00328578 -0.00106695
v -0.00513915 0.00328578 -0.00110021
v -0.00554606 0.00328578 -0.00130126
v -0.00386518 0.00501303 -0.00116096
v -0.00329206 0.00338037 0.01174622
v -0.00348611 0.00328578 0.01181853
v -0.00429830 0.00501303 -0.00125208
v -0.00386518 0.00544504 -0.00118989
v -0.00386518 0.00746876 -0.00113348
v -0.00386518 0.00674314 -0.00115373
v -0.00559601 0.00746876 0.01329236
v -0.00549366 0.00468830 0.01335455
v -0.00602912 0.00458019 0.01336757
v -0.00622398 0.00524930 0.01335600
v -0.00625510 0.00524930 0.01335600
v -0.00692237 0.00328578 0.01336612
v -0.00631077 0.00501303 0.01335889
v -0.00646142 0.00746876 0.01330537
v -0.00469212 0.00328578 0.01279915
v -0.00329206 0.00380420 0.01214251
v -0.00329206 0.00408880 0.01235657
v -0.00329206 0.00438077 0.01257063
v -0.00329206 0.00458756 0.01271816
v -0.00576058 0.00328578 -0.00136345
v -0.00545682 0.00362116 -0.00134320
v -0.00536922 0.00390944 -0.00135911
v -0.00329206 0.00345981 0.01182576
v -0.00370144 0.00328578 0.01200366
v -0.00429830 0.00544504 -0.00124919
v -0.00473060 0.00501303 -0.00129981
v -0.00429830 0.00674314 -0.00120869
v -0.00429830 0.00746876 -0.00118555
v -0.00602912 0.00746876 0.01330537
v -0.00578104 0.00482793 0.01335744
v -0.00710413 0.00328578 0.01335600
v -0.00660224 0.00746876 0.01329814
v -0.00689453 0.00746876 0.01328223
v -0.00439900 0.00328578 0.01257208
v -0.00418531 0.00328578 0.01240430
v -0.00414192 0.00328578 0.01236959
v -0.00329206 0.00363467 0.01199354
v -0.00602912 0.00328578 -0.00138514
v -0.00602912 0.00371493 -0.00138659
v -0.00536348 0.00414777 -0.00135911
v -0.00329206 0.00359863 0.01196027
v -0.00390858 0.00328578 0.01218012
v -0.00473060 0.00746876 -0.00123183
v -0.00473060 0.00544504 -0.00128969
v -0.00473060 0.00631071 -0.00126654
v -0.00536840 0.00440165 -0.00135766
v -0.00516371 0.00501303 -0.00133018
v -0.00516371 0.00587788 -0.00130993
v -0.00703536 0.00746876 0.01326777
v -0.00732683 0.00746876 0.01323595
v -0.00729081 0.00328578 0.01333430
v -0.00646224 0.00328578 -0.00138804
v -0.00626165 0.00526446 -0.00135766
v -0.00620761 0.00526446 -0.00135766
v -0.00561648 0.00455972 -0.00136056
v -0.00502289 0.00746876 -0.00125642
v -0.00516371 0.00746876 -0.00126799
v -0.00548548 0.00468994 -0.00135477
v -0.00588830 0.00746876 -0.00130270
v -0.00559683 0.00674314 -0.00130993
v -0.00559683 0.00746876 -0.00129258
v -0.00545600 0.00746876 -0.00128535
v -0.00746766 0.00746876 0.01320992
v -0.00775831 0.00328578 0.01325331
v -0.00691828 0.00328578 -0.00136634
v -0.00631814 0.00501303 -0.00136056
v -0.00646224 0.00746876 -0.00130415
v -0.00632141 0.00746876 -0.00130560
v -0.00602912 0.00746876 -0.00130704
v -0.00775831 0.00631071 0.01318244
v -0.00775831 0.00746876 0.01315351
v -0.00819142 0.00328578 0.01314772
v -0.00707302 0.00343484 -0.00135477
v -0.00675453 0.00746876 -0.00128969
v -0.00729326 0.00328578 -0.00133452
v -0.00789995 0.00746876 0.01311301
v -0.00819142 0.00674314 0.01304793
v -0.00860980 0.00328578 0.01300743
v -0.00732765 0.00746876 -0.00123472
v -0.00689535 0.00746876 -0.00128101
v -0.00775913 0.00328578 -0.00125642
v -0.00819142 0.00746876 0.01302478
v -0.00827412 0.00746876 0.01299441
v -0.00843459 0.00746876 0.01293511
v -0.00882923 0.00328578 0.01291920
v -0.00775913 0.00746876 -0.00115228
v -0.00819470 0.00328578 -0.00114939
v -0.00850418 0.00746876 0.01290040
v -0.00866302 0.00717597 0.01283387
v -0.00905765 0.00328578 0.01279771
v -0.00819142 0.00371493 -0.00113782
v -0.00819142 0.00746876 -0.00102356
v -0.00861062 0.00328578 -0.00100765
v -0.00865074 0.00746876 0.01282663
v -0.00902163 0.00746876 0.01261113
v -0.00940972 0.00328578 0.01258654
v -0.00843295 0.00746876 -0.00093533
v -0.00882677 0.00328578 -0.00091653
v -0.00909286 0.00746876 0.01256340
v -0.00927708 0.00656665 0.01249253
v -0.00962586 0.00328578 0.01242744
v -0.00866056 0.00717597 -0.00083264
v -0.00864910 0.00746876 -0.00082541
v -0.00905765 0.00328578 -0.00079648
v -0.00923860 0.00746876 0.01246505
v -0.00925170 0.00717597 0.01247373
v -0.00987394 0.00328578 0.01221049
v -0.00903473 0.00717597 -0.00061714
v -0.00902163 0.00746876 -0.00060990
v -0.00906011 0.00328578 -0.00079504
v -0.00948995 0.00746876 0.01223653
v -0.00971265 0.00703183 0.01206441
v -0.01009091 0.00328578 0.01200511
v -0.00941463 0.00328578 -0.00058532
v -0.00927708 0.00656665 -0.00049275
v -0.00926480 0.00685493 -0.00048407
v -0.00923860 0.00746876 -0.00046382
v -0.00958247 0.00746876 0.01214975
v -0.00969382 0.00746876 0.01204416
v -0.01026940 0.00328578 0.01178816
v -0.00962914 0.00328578 -0.00042911
v -0.00987476 0.00328578 -0.00021071
v -0.00948831 0.00746876 -0.00023530
v -0.00985675 0.00746876 0.01184023
v -0.01012939 0.00640981 0.01161171
v -0.01048472 0.00328578 0.01149744
v -0.01008927 0.00328578 -0.00000388
v -0.00971101 0.00701341 -0.00006319
v -0.00969218 0.00746876 -0.00004149
v -0.00993699 0.00746876 0.01173609
v -0.01011547 0.00674314 0.01159001
v -0.01009664 0.00717597 0.01156108
v -0.01062637 0.00328578 0.01127905
v -0.01026858 0.00328578 0.00021307
v -0.00978634 0.00746876 0.00007566
v -0.01008354 0.00746876 0.01154083
v -0.01021863 0.00746876 0.01132388
v -0.01060590 0.00371493 0.01124723
v -0.01078848 0.00328578 0.01097531
v -0.01048554 0.00328578 0.00050234
v -0.01024893 0.00371493 0.00023621
v -0.00985511 0.00746876 0.00016244
v -0.01028250 0.00746876 0.01120384
v -0.01040121 0.00746876 0.01097531
v -0.01044297 0.00746876 0.01088853
v -0.01057888 0.00659818 0.01077283
v -0.01094895 0.00328578 0.01062674
v -0.01062719 0.00328578 0.00072073
v -0.01008108 0.00746876 0.00046184
v -0.01009337 0.00717597 0.00044304
v -0.01053958 0.00746876 0.01066724
v -0.01055268 0.00717597 0.01070629
v -0.01056578 0.00688646 0.01074245
v -0.01103656 0.00328578 0.01040690
v -0.01021700 0.00746876 0.00067734
v -0.01078357 0.00328578 0.00102302
v -0.01060508 0.00371493 0.00075255
v -0.01061490 0.00746876 0.01045029
v -0.01114054 0.00328578 0.01011040
v -0.01058379 0.00414777 0.00078727
v -0.01040039 0.00746876 0.00102302
v -0.01094568 0.00328578 0.00139039
v -0.01057724 0.00659367 0.00122840
v -0.01073035 0.00746876 0.01011040
v -0.01101036 0.00528206 0.00990791
v -0.01126663 0.00328578 0.00968084
v -0.01056414 0.00688237 0.00126022
v -0.01053794 0.00746876 0.00133688
v -0.01103165 0.00328578 0.00160879
v -0.01085562 0.00746876 0.00967794
v -0.01099644 0.00556994 0.00985729
v -0.01126744 0.00328578 0.00967794
v -0.01113563 0.00328578 0.00188938
v -0.01072707 0.00746876 0.00188938
v -0.01089000 0.00746876 0.00952318
v -0.01099153 0.00674314 0.00939446
v -0.01137797 0.00328578 0.00920933
v -0.01126908 0.00328578 0.00232184
v -0.01100872 0.00527920 0.00209331
v -0.01099480 0.00556707 0.00214538
v -0.01085234 0.00746876 0.00232184
v -0.01095141 0.00746876 0.00924404
v -0.01142792 0.00328578 0.00896779
v -0.01137879 0.00328578 0.00279190
v -0.01091620 0.00746876 0.00261400
v -0.01097843 0.00746876 0.00910808
v -0.01100381 0.00738154 0.00902275
v -0.01099971 0.00746876 0.00899816
v -0.01103656 0.00746876 0.00878121
v -0.01145494 0.00328578 0.00880435
v -0.01139762 0.00328578 0.00288591
v -0.01094731 0.00746876 0.00275719
v -0.01106030 0.00746876 0.00862356
v -0.01144757 0.00359044 0.00865538
v -0.01151552 0.00328578 0.00838057
v -0.01144675 0.00328578 0.00314336
v -0.01142300 0.00336236 0.00305224
v -0.01100217 0.00736926 0.00298282
v -0.01099726 0.00746876 0.00301030
v -0.01109387 0.00746876 0.00838057
v -0.01143283 0.00387914 0.00855413
v -0.01156710 0.00328578 0.00794667
v -0.01145821 0.00328578 0.00321134
v -0.01103492 0.00746876 0.00322580
v -0.01111024 0.00746876 0.00823883
v -0.01114299 0.00746876 0.00794667
v -0.01143692 0.00478862 0.00771092
v -0.01160149 0.00328578 0.00751421
v -0.01151798 0.00328578 0.00361921
v -0.01144757 0.00359945 0.00334151
v -0.01143283 0.00388774 0.00343986
v -0.01109223 0.00746876 0.00361921
v -0.01115364 0.00746876 0.00780637
v -0.01120522 0.00717597 0.00751421
v -0.01124943 0.00674314 0.00751421
v -0.01161950 0.00328578 0.00708465
v -0.01156792 0.00328578 0.00405311
v -0.01114218 0.00746876 0.00405311
v -0.01117493 0.00746876 0.00751421
v -0.01118066 0.00746876 0.00737392
v -0.01119785 0.00746876 0.00694146
v -0.01121504 0.00746876 0.00650756
v -0.01165471 0.00328578 0.00621973
v -0.01160067 0.00328578 0.00448557
v -0.01143610 0.00478821 0.00428886
v -0.01120440 0.00717597 0.00448557
v -0.01117411 0.00746876 0.00448557
v -0.01122651 0.00746876 0.00621540
v -0.01165635 0.00328578 0.00578728
v -0.01165635 0.00328578 0.00578438
v -0.01122651 0.00746876 0.00578149
f 1 2 6
f 1 6 14
f 1 14 20
f 1 20 40
f 1 40 68
f 1 68 98
f 1 98 97
f 1 97 96
f 1 96 95
f 1 95 116
f 1 116 120
f 1 120 102
f 1 102 80
f 1 80 56
f 1 56 23
f 1 23 15
f 1 15 7
f 1 7 3
f 1 3 4
f 1 4 2
f 2 4 5
f 2 5 6
f 3 7 8
f 3 8 4
f 4 8 9
f 4 9 10
f 4 10 11
f 4 11 5
f 5 11 12
f 5 12 13
f 5 13 6
f 6 13 14
f 7 15 28
f 7 28 59
f 7 59 84
f 7 84 107
f 7 107 122
f 7 122 135
f 7 135 136
f 7 136 141
f 7 141 140
f 7 140 138
f 7 138 148
f 7 148 147
f 7 147 146
f 7 146 153
f 7 153 159
f 7 159 158
f 7 158 165
f 7 165 171
f 7 171 176
f 7 176 182
f 7 182 188
f 7 188 196
f 7 196 202
f 7 202 208
f 7 208 214
f 7 214 221
f 7 221 228
f 7 228 234
f 7 234 240
f 7 240 247
f 7 247 253
f 7 253 260
f 7 260 264
f 7 264 271
f 7 271 278
f 7 278 283
f 7 283 291
f 7 291 297
f 7 297 306
f 7 306 310
f 7 310 307
f 7 307 301
f 7 301 300
f 7 300 299
f 7 299 298
f 7 298 292
f 7 292 285
f 7 285 284
f 7 284 279
f 7 279 272
f 7 272 268
f 7 268 267
f 7 267 265
f 7 265 261
f 7 261 254
f 7 254 249
f 7 249 243
f 7 243 237
f 7 237 230
f 7 230 224
f 7 224 223
f 7 223 222
f 7 222 216
f 7 216 215
f 7 215 209
f 7 209 203
f 7 203 198
f 7 198 197
f 7 197 190
f 7 190 184
f 7 184 178
f 7 178 174
f 7 174 173
f 7 173 167
f 7 167 163
f 7 163 162
f 7 162 161
f 7 161 155
f 7 155 150
f 7 150 142
f 7 142 129
f 7 129 128
f 7 128 112
f 7 112 111
f 7 111 93
f 7 93 108
f 7 108 86
f 7 86 61
f 7 61 60
f 7 60 32
f 7 32 29
f 7 29 16
f 7 16 9
f 7 9 8
f 9 16 17
f 9 17 10
f 10 17 11
f 11 17 12
f 12 17 18
f 12 18 19
f 12 19 13
f 13 20 14
f 13 19 21
f 13 21 22
f 13 22 20
f 15 23 24
f 15 24 25
f 15 25 26
f 15 26 27
f 15 27 28
f 16 29 17
f 17 30 31
f 17 31 18
f 17 29 32
f 17 32 30
f 18 31 63
f 18 63 33
f 18 33 34
f 18 34 35
f 18 35 19
f 19 35 36
f 19 36 37
f 19 37 38
f 19 38 39
f 19 39 21
f 20 22 41
f 20 41 42
f 20 42 40
f 21 39 22
f 22 39 37
f 22 37 66
f 22 66 91
f 22 91 110
f 22 110 130
f 22 130 143
f 22 143 151
f 22 151 157
f 22 157 164
f 22 164 169
f 22 169 175
f 22 175 180
f 22 180 186
f 22 186 192
f 22 192 199
f 22 199 205
f 22 205 212
f 22 212 218
f 22 218 226
f 22 226 233
f 22 233 238
f 22 238 245
f 22 245 251
f 22 251 256
f 22 256 262
f 22 262 269
f 22 269 274
f 22 274 281
f 22 281 287
f 22 287 295
f 22 295 302
f 22 302 308
f 22 308 309
f 22 309 303
f 22 303 296
f 22 296 288
f 22 288 282
f 22 282 275
f 22 275 270
f 22 270 263
f 22 263 257
f 22 257 252
f 22 252 248
f 22 248 241
f 22 241 235
f 22 235 227
f 22 227 219
f 22 219 213
f 22 213 206
f 22 206 201
f 22 201 200
f 22 200 193
f 22 193 189
f 22 189 183
f 22 183 177
f 22 177 172
f 22 172 166
f 22 166 160
f 22 160 154
f 22 154 144
f 22 144 131
f 22 131 117
f 22 117 99
f 22 99 78
f 22 78 77
f 22 77 76
f 22 76 75
f 22 75 74
f 22 74 73
f 22 73 72
f 22 72 71
f 22 71 70
f 22 70 43
f 22 43 23
f 22 23 56
f 22 56 81
f 22 81 103
f 22 103 121
f 22 121 115
f 22 115 114
f 22 114 113
f 22 113 94
f 22 94 67
f 22 67 69
f 22 69 42
f 22 42 41
f 23 43 44
f 23 44 45
f 23 45 46
f 23 46 47
f 23 47 48
f 23 48 49
f 23 49 50
f 23 50 51
f 23 51 52
f 23 52 53
f 23 53 54
f 23 54 55
f 23 55 24
f 24 57 58
f 24 58 25
f 24 55 57
f 25 59 26
f 25 58 59
f 26 59 27
f 27 59 28
f 30 32 60
f 30 60 61
f 30 61 31
f 31 61 62
f 31 62 63
f 33 63 34
f 34 64 35
f 34 63 64
f 35 64 65
f 35 65 36
f 36 65 37
f 37 65 66
f 37 39 38
f 40 67 68
f 40 42 69
f 40 69 67
f 43 70 44
f 44 70 71
f 44 71 45
f 45 71 72
f 45 72 46
f 46 72 73
f 46 73 74
f 46 74 47
f 47 74 48
f 48 74 49
f 49 74 75
f 49 75 76
f 49 76 50
f 50 76 51
f 51 76 52
f 52 76 53
f 53 76 77
f 53 77 54
f 54 77 78
f 54 78 79
f 54 79 55
f 55 79 57
f 56 80 81
f 57 79 82
f 57 82 83
f 57 83 58
f 58 84 59
f 58 83 85
f 58 85 84
f 61 86 62
f 62 86 64
f 62 64 63
f 64 86 87
f 64 87 88
f 64 88 65
f 65 88 89
f 65 89 90
f 65 90 66
f 66 90 92
f 66 92 93
f 66 93 91
f 67 94 95
f 67 95 96
f 67 96 97
f 67 97 98
f 67 98 68
f 78 99 100
f 78 100 79
f 79 100 101
f 79 101 82
f 80 102 81
f 81 102 103
f 82 104 83
f 82 101 105
f 82 105 104
f 83 104 85
f 84 85 104
f 84 104 106
f 84 106 107
f 86 108 87
f 87 109 88
f 87 108 109
f 88 109 108
f 88 108 89
f 89 108 93
f 89 93 90
f 90 93 92
f 91 93 111
f 91 111 112
f 91 112 110
f 94 113 95
f 95 113 114
f 95 114 115
f 95 115 116
f 99 117 101
f 99 101 100
f 101 117 118
f 101 118 119
f 101 119 105
f 102 120 121
f 102 121 103
f 104 122 106
f 104 105 123
f 104 123 124
f 104 124 122
f 105 119 125
f 105 125 126
f 105 126 127
f 105 127 123
f 106 122 107
f 110 112 128
f 110 128 129
f 110 129 130
f 115 121 116
f 116 121 120
f 117 131 118
f 118 131 132
f 118 132 133
f 118 133 134
f 118 134 125
f 118 125 119
f 122 124 135
f 123 136 124
f 123 127 136
f 124 136 135
f 125 134 137
f 125 137 138
f 125 138 139
f 125 139 140
f 125 140 141
f 125 141 127
f 125 127 126
f 127 141 136
f 129 142 143
f 129 143 130
f 131 144 145
f 131 145 132
f 132 145 146
f 132 146 147
f 132 147 148
f 132 148 133
f 133 148 134
f 134 148 137
f 137 148 138
f 138 140 139
f 142 149 143
f 142 150 149
f 143 149 151
f 144 152 153
f 144 153 146
f 144 146 145
f 144 154 152
f 149 150 151
f 150 155 151
f 151 155 156
f 151 156 157
f 152 154 158
f 152 158 159
f 152 159 153
f 154 160 158
f 155 161 156
f 156 161 157
f 157 161 162
f 157 162 163
f 157 163 164
f 158 160 165
f 160 166 165
f 163 167 168
f 163 168 164
f 164 168 169
f 165 166 170
f 165 170 171
f 166 172 170
f 167 173 168
f 168 173 169
f 169 173 174
f 169 174 175
f 170 172 171
f 171 172 176
f 172 177 176
f 174 178 179
f 174 179 175
f 175 179 180
f 176 177 181
f 176 181 182
f 177 183 181
f 178 184 185
f 178 185 179
f 179 185 180
f 180 185 184
f 180 184 186
f 181 183 182
f 182 183 187
f 182 187 188
f 183 189 187
f 184 190 186
f 186 190 191
f 186 191 192
f 187 189 193
f 187 193 188
f 188 193 194
f 188 194 195
f 188 195 196
f 190 197 191
f 191 197 198
f 191 198 192
f 192 198 199
f 193 200 194
f 194 200 195
f 195 200 196
f 196 200 201
f 196 201 202
f 198 203 199
f 199 203 204
f 199 204 205
f 201 206 207
f 201 207 202
f 202 207 208
f 203 209 204
f 204 209 210
f 204 210 205
f 205 210 211
f 205 211 212
f 206 213 208
f 206 208 207
f 208 213 214
f 209 215 211
f 209 211 210
f 211 215 212
f 212 215 216
f 212 216 217
f 212 217 218
f 213 219 220
f 213 220 214
f 214 220 221
f 216 222 217
f 217 222 218
f 218 222 223
f 218 223 224
f 218 224 225
f 218 225 226
f 219 227 228
f 219 228 229
f 219 229 220
f 220 229 221
f 221 229 228
f 224 230 231
f 224 231 232
f 224 232 225
f 225 232 226
f 226 232 233
f 227 234 228
f 227 235 236
f 227 236 234
f 230 237 238
f 230 238 233
f 230 233 231
f 231 233 232
f 234 236 239
f 234 239 240
f 235 241 242
f 235 242 240
f 235 240 239
f 235 239 236
f 237 243 238
f 238 243 244
f 238 244 245
f 240 242 246
f 240 246 247
f 241 248 246
f 241 246 242
f 243 249 250
f 243 250 244
f 244 250 251
f 244 251 245
f 246 248 247
f 247 248 252
f 247 252 253
f 249 254 255
f 249 255 256
f 249 256 251
f 249 251 250
f 252 257 258
f 252 258 253
f 253 258 259
f 253 259 260
f 254 261 255
f 255 261 256
f 256 261 262
f 257 263 260
f 257 260 259
f 257 259 258
f 260 263 264
f 261 265 262
f 262 265 266
f 262 266 267
f 262 267 268
f 262 268 269
f 263 270 271
f 263 271 264
f 265 267 266
f 268 272 273
f 268 273 269
f 269 273 274
f 270 275 276
f 270 276 271
f 271 276 277
f 271 277 278
f 272 279 280
f 272 280 273
f 273 280 274
f 274 280 279
f 274 279 281
f 275 282 283
f 275 283 278
f 275 278 276
f 276 278 277
f 279 284 281
f 281 284 285
f 281 285 286
f 281 286 287
f 282 288 289
f 282 289 283
f 283 289 290
f 283 290 291
f 285 292 286
f 286 292 293
f 286 293 294
f 286 294 287
f 287 294 295
f 288 296 297
f 288 297 291
f 288 291 290
f 288 290 289
f 292 298 293
f 293 298 299
f 293 299 300
f 293 300 301
f 293 301 302
f 293 302 294
f 294 302 295
f 296 303 304
f 296 304 297
f 297 304 305
f 297 305 306
f 301 307 302
f 302 307 308
f 303 309 305
f 303 305 304
f 305 309 310
f 305 310 306
f 307 310 309
f 307 309 308

