# https://github.com/mikedh/trimesh
v 0.00075265 0.04262373 0.00609182
v 0.00075336 0.04262597 0.00583107
v 0.00075194 0.04262485 0.00583321
v 0.00061526 0.04249147 0.00609182
v 0.00075336 0.03847097 0.00609182
v 0.00075336 0.04260916 0.00530100
v 0.00048570 0.04236706 0.00583321
v 0.00048641 0.04236706 0.00609182
v 0.00022301 0.04209245 0.00476808
v 0.00075336 0.03117534 0.00609182
v 0.00075336 0.04258787 0.00476808
v 0.00050634 0.04235921 0.00476808
v 0.00035328 0.04223816 0.00609182
v 0.00021945 0.04209693 0.00530100
v 0.00021589 0.04210029 0.00583321
v 0.00021447 0.04210142 0.00609182
v -0.00005035 0.04182344 0.00583321
v 0.00023725 0.04207788 0.00423587
v -0.00028955 0.04154099 0.00490952
v -0.00029880 0.04155108 0.00530100
v -0.00030450 0.04155780 0.00583321
v -0.00360906 0.03117534 0.00609182
v 0.00075336 0.03117534 -0.00115695
v 0.00075336 0.04258562 0.00471950
v 0.00075336 0.04256993 0.00441303
v -0.00005178 0.04182456 0.00609182
v 0.00057041 0.04238947 0.00425087
v 0.00075336 0.04254976 0.00411442
v 0.00025006 0.04206555 0.00394512
v -0.00001120 0.04179542 0.00423587
v -0.00026107 0.04150736 0.00423587
v -0.00077007 0.04094694 0.00476808
v -0.00053870 0.04126302 0.00530100
v -0.00055009 0.04126302 0.00583321
v -0.00055081 0.04126302 0.00609182
v -0.00043121 0.04140649 0.00609182
v -0.00030450 0.04155780 0.00609182
v -0.00364323 0.03118430 0.00609182
v -0.00641316 0.03117534 0.00479165
v 0.00074197 0.03117534 -0.00115767
v 0.00075336 0.03168308 -0.00115481
v 0.00075336 0.04251277 0.00371080
v 0.00027711 0.04203753 0.00359007
v 0.00006284 0.04173602 0.00317145
v 0.00007138 0.04183465 0.00374224
v -0.00023758 0.04147822 0.00370366
v 0.00075336 0.04246905 0.00331147
v 0.00075336 0.04244888 0.00317145
v 0.00057539 0.04227178 0.00317145
v -0.00048104 0.04124172 0.00423587
v -0.00078430 0.04096151 0.00530100
v -0.00074729 0.04091891 0.00423587
v -0.00096014 0.04065215 0.00423587
v -0.00098221 0.04068017 0.00476808
v -0.00079071 0.04096151 0.00583321
v -0.00079071 0.04096151 0.00609182
v -0.00369377 0.03119775 0.00609182
v -0.00651354 0.03117534 0.00426730
v -0.00524924 0.03289136 0.00609182
v -0.00532042 0.03307966 0.00609182
v -0.00539517 0.03327918 0.00609182
v -0.00518659 0.03386202 0.00609182
v 0.00051987 0.03117534 -0.00117052
v 0.00049424 0.03117534 -0.00117195
v 0.00051987 0.03168308 -0.00116767
v 0.00075336 0.03221549 -0.00114981
v 0.00030986 0.04200278 0.00317145
v 0.00035898 0.04194450 0.00263924
v 0.00011908 0.04167885 0.00263924
v -0.00020341 0.04143787 0.00317145
v -0.00045328 0.04121258 0.00370366
v 0.00075336 0.04240068 0.00286570
v -0.00071952 0.04088081 0.00370366
v -0.00092810 0.04061516 0.00370366
v -0.00122638 0.04030245 0.00423587
v -0.00187847 0.03940464 0.00447733
v -0.00187847 0.03940464 0.00450662
v -0.00294416 0.03780967 0.00609182
v -0.00651924 0.03117534 0.00422944
v -0.00506984 0.03408059 0.00609182
v -0.00518659 0.03386314 0.00584464
v -0.00560874 0.03302811 0.00508169
v -0.00613909 0.03195993 0.00451090
v -0.00001262 0.03117534 -0.00118838
v -0.00001262 0.03168308 -0.00118553
v 0.00051987 0.03221549 -0.00116052
v 0.00075336 0.03274677 -0.00114409
v 0.00075336 0.04236145 0.00263924
v 0.00062522 0.04223031 0.00263924
v 0.00069143 0.04216306 0.00210774
v -0.00014717 0.04137286 0.00263924
v 0.00042519 0.04186155 0.00210774
v -0.00036501 0.04110722 0.00263924
v -0.00041555 0.04117223 0.00317145
v -0.00088326 0.04055912 0.00317145
v -0.00119435 0.04025761 0.00370366
v -0.00068108 0.04082588 0.00317145
v -0.00138442 0.03999197 0.00370366
v -0.00141574 0.04003568 0.00423587
v -0.00160439 0.03966580 0.00370366
v -0.00185640 0.03936990 0.00412300
v -0.00200376 0.03916926 0.00427444
v -0.00229919 0.03869738 0.00423587
v -0.00246791 0.03843062 0.00423587
v -0.00273842 0.03806858 0.00476808
v -0.00294060 0.03780406 0.00555103
v -0.00294416 0.03780967 0.00583321
v -0.00302602 0.03766956 0.00609182
v -0.00645018 0.03117534 0.00372938
v -0.00613909 0.03195993 0.00445947
v -0.00506984 0.03408059 0.00602967
v -0.00442274 0.03524627 0.00609182
v -0.00506628 0.03407386 0.00567462
v -0.00520723 0.03379701 0.00530100
v -0.00560874 0.03302811 0.00494239
v -0.00450817 0.03509160 0.00583321
v -0.00465481 0.03482595 0.00583321
v -0.00003825 0.03117534 -0.00118910
v -0.00054511 0.03168308 -0.00119410
v -0.00001262 0.03221549 -0.00117624
v 0.00051987 0.03274677 -0.00115338
v -0.00054511 0.03117534 -0.00119981
v 0.00075336 0.03327918 -0.00113195
v 0.00075336 0.04222583 0.00210774
v 0.00074767 0.04210254 0.00175699
v 0.00019596 0.04159479 0.00210774
v -0.00031731 0.04104333 0.00225991
v 0.00024365 0.04154099 0.00181342
v -0.00080281 0.04045264 0.00241135
v -0.00066257 0.04070259 0.00260852
v -0.00084197 0.04050644 0.00276568
v -0.00117869 0.04015898 0.00317074
v -0.00135951 0.03995498 0.00334719
v -0.00182935 0.03932842 0.00370366
v -0.00226502 0.03864246 0.00370366
v -0.00243374 0.03837570 0.00370366
v -0.00261954 0.03806858 0.00370366
v -0.00268646 0.03806858 0.00423587
v -0.00291711 0.03776483 0.00476808
v -0.00293063 0.03778837 0.00519599
v -0.00310291 0.03753730 0.00583321
v -0.00408104 0.03580782 0.00530100
v -0.00409385 0.03583136 0.00583321
v -0.00394008 0.03609700 0.00583321
v -0.00394079 0.03609812 0.00609182
v -0.00644662 0.03117534 0.00370366
v -0.00611417 0.03191286 0.00410442
v -0.00559379 0.03300008 0.00458734
v -0.00557314 0.03296086 0.00423587
v -0.00571552 0.03269521 0.00423587
v -0.00532968 0.03327918 0.00370366
v -0.00433233 0.03540880 0.00583321
v -0.00433233 0.03540880 0.00609182
v -0.00506059 0.03406377 0.00530100
v -0.00487692 0.03434399 0.00476808
v -0.00504564 0.03403575 0.00476808
v -0.00519086 0.03377011 0.00476808
v -0.00548131 0.03323546 0.00476665
v -0.00464769 0.03481026 0.00530100
v -0.00107689 0.03168308 -0.00119624
v -0.00054511 0.03221549 -0.00118052
v -0.00001262 0.03274677 -0.00116481
v -0.00107689 0.03117534 -0.00120624
v 0.00051987 0.03327918 -0.00113909
v 0.00051987 0.03487639 -0.00107837
v 0.00075336 0.03411085 -0.00109980
v 0.00075336 0.04210590 0.00175413
v 0.00075336 0.04209693 0.00173484
v 0.00075336 0.04195122 0.00145623
v 0.00030986 0.04146029 0.00145838
v -0.00025680 0.04096823 0.00190558
v -0.00047321 0.04076648 0.00209274
v -0.00075939 0.04039323 0.00210774
v -0.00094590 0.04012647 0.00210774
v -0.00128476 0.03984962 0.00263924
v -0.00132747 0.03990903 0.00299214
v -0.00149476 0.03970503 0.00317074
v -0.00178664 0.03925781 0.00317145
v -0.00241381 0.03834431 0.00341005
v -0.00286016 0.03766283 0.00370366
v -0.00289148 0.03772000 0.00423587
v -0.00347807 0.03674934 0.00445590
v -0.00366316 0.03647361 0.00476808
v -0.00427752 0.03540880 0.00476808
v -0.00448396 0.03505013 0.00476808
v -0.00431026 0.03540880 0.00530100
v -0.00449962 0.03507703 0.00530100
v -0.00409385 0.03583136 0.00609182
v -0.00635123 0.03117534 0.00320217
v -0.00622594 0.03159229 0.00370366
v -0.00509547 0.03359750 0.00331647
v -0.00563935 0.03255286 0.00327146
v -0.00567779 0.03262572 0.00370366
v -0.00589563 0.03221549 0.00370366
v -0.00482424 0.03434399 0.00423587
v -0.00501859 0.03398644 0.00423587
v -0.00516310 0.03371967 0.00423587
v -0.00498513 0.03392255 0.00370366
v -0.00512822 0.03365578 0.00370366
v -0.00463417 0.03478448 0.00476808
v -0.00460783 0.03473741 0.00423587
v -0.00160938 0.03168308 -0.00118195
v -0.00107689 0.03221549 -0.00117624
v -0.00054511 0.03274677 -0.00116552
v -0.00160938 0.03117534 -0.00119696
v -0.00001262 0.03434399 -0.00110766
v -0.00001262 0.03487639 -0.00107980
v 0.00051987 0.03540880 -0.00104908
v 0.00075336 0.03540880 -0.00104122
v 0.00075336 0.03487639 -0.00106908
v 0.00075336 0.04169567 0.00104333
v 0.00069001 0.04163178 0.00104333
v 0.00040454 0.04127535 0.00101189
v 0.00017175 0.04110498 0.00116834
v -0.00018988 0.04087744 0.00157554
v -0.00039206 0.04061180 0.00157554
v -0.00087543 0.04002559 0.00168412
v -0.00121215 0.03973641 0.00210774
v -0.00146486 0.03958286 0.00263924
v -0.00237679 0.03828603 0.00305501
v -0.00252628 0.03809212 0.00320860
v -0.00281744 0.03758774 0.00317145
v -0.00399205 0.03565314 0.00353507
v -0.00442132 0.03494364 0.00370366
v -0.00445620 0.03500305 0.00423587
v -0.00634482 0.03117534 0.00317145
v -0.00465339 0.03436977 0.00318717
v -0.00495665 0.03378917 0.00315216
v -0.00520652 0.03331841 0.00315216
v -0.00455017 0.03463429 0.00337505
v -0.00559806 0.03247665 0.00291642
v -0.00603444 0.03176266 0.00317145
v -0.00505560 0.03352128 0.00296142
v -0.00475732 0.03434399 0.00370366
v -0.00457437 0.03467688 0.00370366
v -0.00214187 0.03168308 -0.00113838
v -0.00160938 0.03221549 -0.00115481
v -0.00107689 0.03274677 -0.00115052
v -0.00214187 0.03117534 -0.00116409
v -0.00054511 0.03327918 -0.00114266
v -0.00107689 0.03327918 -0.00111837
v -0.00054511 0.03487639 -0.00104194
v -0.00001262 0.03540880 -0.00103836
v 0.00051987 0.03594120 -0.00100622
v 0.00075336 0.03594120 -0.00100265
v 0.00075336 0.04156453 0.00084902
v 0.00027854 0.04096823 0.00081330
v -0.00021765 0.04038091 0.00088688
v -0.00031304 0.04051204 0.00124192
v -0.00068322 0.04020157 0.00153410
v -0.00080210 0.03991911 0.00132979
v -0.00134598 0.03940352 0.00183557
v -0.00139012 0.03946965 0.00210774
v -0.00186637 0.03885318 0.00241135
v -0.00175389 0.03911322 0.00260852
v -0.00232767 0.03820757 0.00263924
v -0.00249211 0.03794081 0.00263924
v -0.00276975 0.03748462 0.00268996
v -0.00294060 0.03727278 0.00290070
v -0.00614051 0.03143089 0.00287498
v -0.00622452 0.03117534 0.00266353
v -0.00460996 0.03421397 0.00263924
v -0.00451030 0.03456368 0.00302000
v -0.00570555 0.03214711 0.00263924
v -0.00501716 0.03344843 0.00263924
v -0.00482424 0.03381158 0.00263924
v -0.00267435 0.03117534 -0.00109837
v -0.00214187 0.03221549 -0.00109837
v -0.00160938 0.03274677 -0.00111409
v -0.00054511 0.03540880 -0.00098907
v -0.00001262 0.03594120 -0.00098693
v 0.00051987 0.03647361 -0.00095621
v 0.00075336 0.03647361 -0.00095621
v 0.00075336 0.04147374 0.00074186
v 0.00013758 0.04061292 0.00063470
v -0.00034507 0.04002559 0.00068542
v -0.00072095 0.03979918 0.00104333
v -0.00127337 0.03928695 0.00148124
v -0.00089821 0.03953354 0.00104333
v -0.00138300 0.03893164 0.00123049
v -0.00143710 0.03911882 0.00162483
v -0.00192261 0.03841044 0.00173270
v -0.00238818 0.03776932 0.00190272
v -0.00160226 0.03913339 0.00210774
v -0.00244299 0.03785898 0.00225776
v -0.00289789 0.03719656 0.00254566
v -0.00423907 0.03487639 0.00263924
v -0.00609780 0.03135019 0.00251994
v -0.00605438 0.03117534 0.00209131
v -0.00446332 0.03447961 0.00263924
v -0.00456369 0.03412878 0.00228634
v -0.00320613 0.03117534 -0.00097407
v -0.00267435 0.03168308 -0.00105265
v -0.00214187 0.03274677 -0.00103836
v -0.00054511 0.03594120 -0.00092264
v -0.00001262 0.03647361 -0.00092406
v 0.00051987 0.03700489 -0.00089906
v 0.00075336 0.03700489 -0.00089978
v 0.00075336 0.04094918 0.00028895
v 0.00029135 0.04042126 0.00027966
v -0.00003327 0.04022287 0.00048254
v -0.00081990 0.03941361 0.00076472
v -0.00020341 0.03982944 0.00033038
v -0.00080708 0.03886103 0.00024965
v -0.00204647 0.03809324 0.00156339
v -0.00173752 0.03859314 0.00156339
v -0.00128761 0.03878033 0.00087616
v -0.00116659 0.03911882 0.00104904
v -0.00186566 0.03778725 0.00079544
v -0.00195535 0.03793184 0.00115048
v -0.00184572 0.03828715 0.00137837
v -0.00255903 0.03756980 0.00209131
v -0.00231984 0.03765387 0.00157554
v -0.00247432 0.03738711 0.00157554
v -0.00294345 0.03674710 0.00183200
v -0.00400914 0.03515212 0.00235635
v -0.00345315 0.03617434 0.00244707
v -0.00564931 0.03203951 0.00223133
v -0.00604512 0.03117534 0.00206131
v -0.00510615 0.03308527 0.00225776
v -0.00410026 0.03487527 0.00215061
v -0.00439854 0.03432157 0.00210846
v -0.00450674 0.03402230 0.00193129
v -0.00466407 0.03383176 0.00210846
v -0.00356848 0.03117534 -0.00085763
v -0.00322322 0.03166179 -0.00089477
v -0.00267435 0.03221549 -0.00098336
v -0.00214187 0.03327918 -0.00095407
v -0.00081919 0.03622142 -0.00082334
v -0.00051806 0.03642877 -0.00085406
v -0.00032300 0.03679978 -0.00083262
v 0.00001443 0.03698696 -0.00085191
v 0.00021020 0.03732546 -0.00082762
v 0.00051987 0.03743530 -0.00084334
v 0.00075336 0.03744763 -0.00084405
v 0.00075336 0.04066560 0.00011249
v 0.00064658 0.04062189 0.00014678
v 0.00015111 0.04006595 0.00015964
v -0.00090888 0.03913339 0.00063827
v -0.00139937 0.03842502 0.00069542
v -0.00032799 0.03947413 0.00019822
v -0.00058213 0.03865479 -0.00005681
v -0.00091529 0.03850684 0.00014250
v -0.00138157 0.03786571 0.00020465
v -0.00184430 0.03721898 0.00028323
v -0.00176742 0.03758101 0.00048111
v -0.00150046 0.03805289 0.00051540
v -0.00044616 0.03913339 0.00010035
v -0.00197315 0.03743194 0.00063827
v -0.00242662 0.03677400 0.00074829
v -0.00232767 0.03712707 0.00093903
v -0.00214187 0.03753506 0.00104475
v -0.00241452 0.03728287 0.00129407
v -0.00273771 0.03695558 0.00162268
v -0.00405256 0.03469706 0.00173055
v -0.00576322 0.03172231 0.00207560
v -0.00585576 0.03117534 0.00157554
v -0.00558880 0.03192519 0.00187700
v -0.00416433 0.03436641 0.00156196
v -0.00444766 0.03383176 0.00153839
v -0.00460000 0.03366699 0.00169198
v -0.00504777 0.03297318 0.00190272
v -0.00383401 0.03117534 -0.00073904
v -0.00341258 0.03182543 -0.00079476
v -0.00304738 0.03221549 -0.00086263
v -0.00268646 0.03272772 -0.00089263
v -0.00195250 0.03420164 -0.00084905
v -0.00138513 0.03521601 -0.00083620
v -0.00102919 0.03642877 -0.00067332
v -0.00067823 0.03657561 -0.00077905
v -0.00287226 0.03289248 -0.00079190
v -0.00127123 0.03557132 -0.00079548
v -0.00116231 0.03594120 -0.00074690
v 0.00001443 0.03751712 -0.00074618
v -0.00014432 0.03715285 -0.00079333
v -0.00001262 0.03806858 -0.00059902
v 0.00051987 0.03770094 -0.00080476
v 0.00051987 0.03806858 -0.00073047
v 0.00075336 0.03771327 -0.00080834
v 0.00075336 0.03996731 -0.00028255
v 0.00052841 0.04018812 -0.00002395
v -0.00002045 0.03965795 0.00006320
v 0.00038247 0.03966580 -0.00021326
v -0.00021978 0.03880274 -0.00025541
v -0.00071240 0.03818067 -0.00021183
v -0.00129828 0.03720329 -0.00025327
v -0.00148124 0.03753730 0.00010749
v -0.00194610 0.03686479 0.00016893
v -0.00239886 0.03619115 0.00025608
v -0.00232126 0.03647361 0.00036467
v -0.00213688 0.03699593 0.00051612
v -0.00288080 0.03610037 0.00089545
v -0.00353217 0.03471835 0.00068900
v -0.00398636 0.03404696 0.00080972
v -0.00276690 0.03645007 0.00106047
v -0.00296694 0.03625728 0.00124978
v -0.00397497 0.03455919 0.00137551
v -0.00560589 0.03142641 0.00129836
v -0.00565430 0.03117534 0.00113548
v -0.00514032 0.03261899 0.00167198
v -0.00526490 0.03226481 0.00152696
v -0.00506557 0.03247440 0.00131693
v -0.00407463 0.03420388 0.00116477
v -0.00452454 0.03352352 0.00133693
v -0.00499652 0.03277703 0.00152696
v -0.00429602 0.03117534 -0.00046115
v -0.00331363 0.03221549 -0.00074190
v -0.00296480 0.03253717 -0.00083191
v -0.00249069 0.03327918 -0.00085048
v -0.00151541 0.03647361 -0.00040114
v -0.00110323 0.03701722 -0.00044472
v -0.00035789 0.03844855 -0.00033399
v -0.00054511 0.03753730 -0.00054187
v -0.00230702 0.03390349 -0.00077619
v -0.00158161 0.03539983 -0.00069975
v -0.00051806 0.03698696 -0.00072047
v -0.00316769 0.03272772 -0.00067260
v -0.00275693 0.03327918 -0.00073333
v 0.00051987 0.03860099 -0.00060117
v -0.00003042 0.03861556 -0.00041329
v 0.00075336 0.03992360 -0.00030184
v 0.00075336 0.03806858 -0.00074904
v 0.00075336 0.03860099 -0.00064046
v 0.00026857 0.03938222 -0.00028113
v -0.00082488 0.03782648 -0.00029756
v -0.00140649 0.03684910 -0.00033399
v -0.00186494 0.03618891 -0.00027970
v -0.00178165 0.03647361 -0.00020540
v -0.00162504 0.03703404 -0.00004253
v -0.00205502 0.03647361 0.00006106
v -0.00359482 0.03381158 0.00011678
v -0.00350441 0.03413551 0.00020894
v -0.00395788 0.03345739 0.00030609
v -0.00340475 0.03449082 0.00033395
v -0.00387886 0.03384633 0.00049397
v -0.00408317 0.03369165 0.00066042
v -0.00453023 0.03300121 0.00078901
v -0.00419351 0.03384633 0.00100975
v -0.00461780 0.03316821 0.00114405
v -0.00446616 0.03331953 0.00099689
v -0.00551619 0.03125379 0.00094331
v -0.00559592 0.03117534 0.00102047
v -0.00431738 0.03117534 -0.00044472
v -0.00449820 0.03134346 -0.00025469
v -0.00414724 0.03168308 -0.00039185
v -0.00376638 0.03222221 -0.00046186
v -0.00322891 0.03328030 -0.00045472
v -0.00305806 0.03381158 -0.00037257
v -0.00092099 0.03753730 -0.00035399
v -0.00361048 0.03274677 -0.00039043
v 0.00075336 0.03966580 -0.00036971
v -0.00241808 0.03516109 -0.00029541
v -0.00342254 0.03345851 -0.00024541
v -0.00332430 0.03381158 -0.00014968
v -0.00373933 0.03328142 -0.00002609
v -0.00405042 0.03310320 0.00019322
v -0.00449606 0.03240267 0.00029823
v -0.00530405 0.03117534 0.00054183
v -0.00513889 0.03168308 0.00067757
v -0.00418141 0.03328030 0.00049397
v -0.00462207 0.03264590 0.00065328
v -0.00506913 0.03194985 0.00077615
v -0.00539873 0.03117534 0.00069400
v -0.00479933 0.03117534 -0.00004467
v -0.00481072 0.03117534 -0.00003395
v -0.00441349 0.03168308 -0.00017183
v -0.00396357 0.03240379 -0.00025255
v -0.00405541 0.03204848 -0.00032756
v -0.00352007 0.03310432 -0.00032613
v -0.00387673 0.03274677 -0.00016683
v -0.00414155 0.03274677 0.00009964
v -0.00468187 0.03168308 0.00009392
v -0.00458718 0.03204736 0.00018822
v -0.00503354 0.03134907 0.00029037
v -0.00525422 0.03117534 0.00047254
v -0.00482068 0.03117534 -0.00002324
f 1 2 3
f 1 3 4
f 1 4 8
f 1 8 13
f 1 13 16
f 1 16 26
f 1 26 37
f 1 37 36
f 1 36 35
f 1 35 56
f 1 56 78
f 1 78 108
f 1 108 145
f 1 145 188
f 1 188 153
f 1 153 112
f 1 112 80
f 1 80 62
f 1 62 61
f 1 61 60
f 1 60 59
f 1 59 57
f 1 57 38
f 1 38 22
f 1 22 10
f 1 10 5
f 1 5 2
f 2 6 3
f 2 5 10
f 2 10 23
f 2 23 41
f 2 41 66
f 2 66 87
f 2 87 123
f 2 123 166
f 2 166 210
f 2 210 209
f 2 209 245
f 2 245 273
f 2 273 298
f 2 298 335
f 2 335 379
f 2 379 422
f 2 422 423
f 2 423 451
f 2 451 421
f 2 421 380
f 2 380 336
f 2 336 299
f 2 299 274
f 2 274 246
f 2 246 211
f 2 211 169
f 2 169 168
f 2 168 167
f 2 167 124
f 2 124 88
f 2 88 72
f 2 72 48
f 2 48 47
f 2 47 42
f 2 42 28
f 2 28 25
f 2 25 24
f 2 24 11
f 2 11 6
f 3 7 13
f 3 13 8
f 3 8 4
f 3 6 9
f 3 9 7
f 6 11 12
f 6 12 9
f 7 9 14
f 7 14 15
f 7 15 16
f 7 16 13
f 9 17 14
f 9 12 18
f 9 18 19
f 9 19 20
f 9 20 21
f 9 21 17
f 10 22 39
f 10 39 58
f 10 58 79
f 10 79 109
f 10 109 146
f 10 146 189
f 10 189 226
f 10 226 261
f 10 261 289
f 10 289 319
f 10 319 357
f 10 357 399
f 10 399 442
f 10 442 463
f 10 463 458
f 10 458 475
f 10 475 476
f 10 476 465
f 10 465 464
f 10 464 443
f 10 443 406
f 10 406 363
f 10 363 325
f 10 325 292
f 10 292 267
f 10 267 239
f 10 239 205
f 10 205 163
f 10 163 122
f 10 122 118
f 10 118 84
f 10 84 64
f 10 64 63
f 10 63 40
f 10 40 23
f 11 24 12
f 12 24 25
f 12 25 18
f 14 17 15
f 15 17 26
f 15 26 16
f 17 21 26
f 18 25 27
f 18 27 28
f 18 28 29
f 18 29 30
f 18 30 19
f 19 31 32
f 19 32 33
f 19 33 20
f 19 30 31
f 20 33 34
f 20 34 21
f 21 34 35
f 21 35 36
f 21 36 37
f 21 37 26
f 22 38 39
f 23 40 41
f 25 28 27
f 28 42 29
f 29 43 44
f 29 44 45
f 29 45 46
f 29 46 30
f 29 42 47
f 29 47 48
f 29 48 49
f 29 49 43
f 30 46 31
f 31 46 50
f 31 50 32
f 32 51 33
f 32 50 52
f 32 52 53
f 32 53 54
f 32 54 51
f 33 51 34
f 34 51 55
f 34 55 35
f 35 55 56
f 38 57 39
f 39 57 59
f 39 59 60
f 39 60 61
f 39 61 62
f 39 62 58
f 40 63 41
f 41 63 64
f 41 64 65
f 41 65 66
f 43 67 44
f 43 49 67
f 44 67 68
f 44 68 69
f 44 69 70
f 44 70 45
f 45 70 46
f 46 70 71
f 46 71 52
f 46 52 50
f 48 72 49
f 49 72 67
f 51 54 55
f 52 71 73
f 52 73 53
f 53 74 75
f 53 75 54
f 53 73 74
f 54 75 76
f 54 76 55
f 55 76 77
f 55 77 56
f 56 77 78
f 58 62 79
f 62 80 81
f 62 81 82
f 62 82 83
f 62 83 79
f 64 84 85
f 64 85 65
f 65 85 86
f 65 86 87
f 65 87 66
f 67 72 88
f 67 88 89
f 67 89 68
f 68 89 90
f 68 90 69
f 69 91 70
f 69 90 92
f 69 92 91
f 70 91 93
f 70 93 94
f 70 94 73
f 70 73 71
f 73 94 74
f 74 95 96
f 74 96 75
f 74 94 97
f 74 97 95
f 75 96 98
f 75 98 99
f 75 99 76
f 76 100 101
f 76 101 102
f 76 102 103
f 76 103 104
f 76 104 105
f 76 105 106
f 76 106 107
f 76 107 78
f 76 78 77
f 76 99 98
f 76 98 100
f 78 107 108
f 79 83 110
f 79 110 109
f 80 111 81
f 80 112 111
f 81 113 114
f 81 114 115
f 81 115 82
f 81 111 116
f 81 116 117
f 81 117 113
f 82 115 110
f 82 110 83
f 84 118 85
f 85 119 120
f 85 120 121
f 85 121 86
f 85 118 122
f 85 122 119
f 86 121 87
f 87 121 123
f 88 124 90
f 88 90 89
f 90 124 125
f 90 125 92
f 91 92 126
f 91 126 127
f 91 127 93
f 92 125 128
f 92 128 126
f 93 127 129
f 93 129 130
f 93 130 131
f 93 131 95
f 93 95 97
f 93 97 94
f 95 131 132
f 95 132 133
f 95 133 96
f 96 133 98
f 98 133 100
f 100 134 101
f 100 133 134
f 101 134 102
f 102 134 103
f 103 135 136
f 103 136 104
f 103 134 135
f 104 136 137
f 104 137 138
f 104 138 105
f 105 138 139
f 105 139 140
f 105 140 106
f 106 141 107
f 106 140 142
f 106 142 143
f 106 143 144
f 106 144 141
f 107 141 108
f 108 141 145
f 109 110 146
f 110 147 146
f 110 115 148
f 110 148 149
f 110 149 150
f 110 150 151
f 110 151 147
f 111 112 152
f 111 152 116
f 112 153 152
f 113 154 114
f 113 117 116
f 113 116 154
f 114 154 155
f 114 155 115
f 115 155 156
f 115 156 157
f 115 157 158
f 115 158 148
f 116 152 159
f 116 159 154
f 119 160 161
f 119 161 162
f 119 162 120
f 119 122 163
f 119 163 160
f 120 162 121
f 121 162 164
f 121 164 123
f 123 164 165
f 123 165 166
f 124 167 125
f 125 167 168
f 125 168 169
f 125 169 170
f 125 170 128
f 126 128 127
f 127 128 171
f 127 171 172
f 127 172 173
f 127 173 129
f 128 170 171
f 129 173 174
f 129 174 175
f 129 175 176
f 129 176 131
f 129 131 130
f 131 176 132
f 132 176 133
f 133 176 177
f 133 177 134
f 134 177 178
f 134 178 179
f 134 179 135
f 135 179 136
f 136 179 137
f 137 179 180
f 137 180 138
f 138 180 181
f 138 181 139
f 139 181 182
f 139 182 183
f 139 183 140
f 140 183 142
f 141 144 145
f 142 184 185
f 142 185 186
f 142 186 143
f 142 183 184
f 143 186 187
f 143 187 152
f 143 152 153
f 143 153 188
f 143 188 145
f 143 145 144
f 146 147 190
f 146 190 191
f 146 191 192
f 146 192 189
f 147 151 193
f 147 193 194
f 147 194 190
f 148 158 157
f 148 157 195
f 148 195 196
f 148 196 197
f 148 197 149
f 149 197 198
f 149 198 199
f 149 199 150
f 150 199 151
f 151 199 191
f 151 191 193
f 152 187 159
f 154 159 200
f 154 200 155
f 155 195 156
f 155 200 201
f 155 201 195
f 156 195 157
f 159 187 200
f 160 202 203
f 160 203 204
f 160 204 161
f 160 163 205
f 160 205 202
f 161 204 162
f 162 204 206
f 162 206 164
f 164 206 165
f 165 207 208
f 165 208 209
f 165 209 210
f 165 210 166
f 165 206 207
f 169 211 212
f 169 212 170
f 170 212 213
f 170 213 214
f 170 214 215
f 170 215 171
f 171 215 216
f 171 216 217
f 171 217 173
f 171 173 172
f 173 217 174
f 174 217 218
f 174 218 175
f 175 218 219
f 175 219 176
f 176 219 178
f 176 178 177
f 178 219 220
f 178 220 179
f 179 220 221
f 179 221 222
f 179 222 180
f 180 182 181
f 180 222 223
f 180 223 224
f 180 224 225
f 180 225 182
f 182 225 185
f 182 185 184
f 182 184 183
f 185 225 201
f 185 201 200
f 185 200 187
f 185 187 186
f 189 192 226
f 190 194 191
f 191 227 228
f 191 228 229
f 191 229 192
f 191 194 193
f 191 199 230
f 191 230 227
f 192 231 232
f 192 232 226
f 192 229 233
f 192 233 231
f 195 234 196
f 195 201 235
f 195 235 234
f 196 234 197
f 197 234 198
f 198 234 230
f 198 230 199
f 201 225 235
f 202 236 237
f 202 237 238
f 202 238 203
f 202 205 239
f 202 239 236
f 203 238 240
f 203 240 204
f 204 240 206
f 206 240 238
f 206 238 207
f 207 241 242
f 207 242 243
f 207 243 208
f 207 238 237
f 207 237 241
f 208 243 244
f 208 244 245
f 208 245 209
f 211 246 212
f 212 246 213
f 213 246 247
f 213 247 214
f 214 247 248
f 214 248 249
f 214 249 216
f 214 216 215
f 216 249 250
f 216 250 217
f 217 250 251
f 217 251 252
f 217 252 218
f 218 252 253
f 218 253 219
f 219 253 254
f 219 254 255
f 219 255 220
f 220 256 257
f 220 257 221
f 220 255 256
f 221 257 222
f 222 257 258
f 222 258 259
f 222 259 230
f 222 230 223
f 223 230 235
f 223 235 224
f 224 235 225
f 226 260 261
f 226 232 231
f 226 231 260
f 227 262 228
f 227 230 263
f 227 263 262
f 228 233 229
f 228 262 233
f 230 234 235
f 230 259 263
f 231 264 260
f 231 233 265
f 231 265 264
f 233 262 266
f 233 266 265
f 236 239 267
f 236 267 268
f 236 268 237
f 237 268 269
f 237 269 242
f 237 242 241
f 242 270 271
f 242 271 243
f 242 269 268
f 242 268 270
f 243 271 272
f 243 272 244
f 244 273 245
f 244 272 273
f 246 274 247
f 247 274 275
f 247 275 276
f 247 276 248
f 248 276 277
f 248 277 251
f 248 251 249
f 249 251 250
f 251 278 252
f 251 277 279
f 251 279 280
f 251 280 278
f 252 278 281
f 252 281 282
f 252 282 283
f 252 283 284
f 252 284 253
f 253 284 254
f 254 285 256
f 254 256 255
f 254 284 285
f 256 285 257
f 257 285 258
f 258 285 286
f 258 286 287
f 258 287 263
f 258 263 259
f 260 288 261
f 260 264 288
f 261 288 289
f 262 263 290
f 262 290 291
f 262 291 266
f 263 287 290
f 264 265 288
f 265 266 291
f 265 291 288
f 267 292 293
f 267 293 268
f 268 293 294
f 268 294 270
f 270 295 296
f 270 296 271
f 270 294 295
f 271 296 297
f 271 297 272
f 272 297 298
f 272 298 273
f 274 299 300
f 274 300 275
f 275 300 301
f 275 301 276
f 276 302 277
f 276 301 303
f 276 303 304
f 276 304 302
f 277 302 279
f 278 280 305
f 278 305 306
f 278 306 282
f 278 282 281
f 279 302 307
f 279 307 308
f 279 308 280
f 280 307 309
f 280 309 310
f 280 310 311
f 280 311 305
f 280 308 307
f 282 306 305
f 282 305 283
f 283 312 285
f 283 285 284
f 283 305 313
f 283 313 314
f 283 314 315
f 283 315 316
f 283 316 312
f 285 312 316
f 285 316 317
f 285 317 286
f 286 317 287
f 287 316 290
f 287 317 316
f 288 318 319
f 288 319 289
f 288 291 320
f 288 320 318
f 290 316 291
f 291 316 321
f 291 321 322
f 291 322 323
f 291 323 324
f 291 324 320
f 292 325 326
f 292 326 327
f 292 327 293
f 293 327 294
f 294 327 328
f 294 328 329
f 294 329 295
f 295 329 330
f 295 330 331
f 295 331 296
f 296 331 332
f 296 332 333
f 296 333 334
f 296 334 297
f 297 334 335
f 297 335 298
f 299 336 337
f 299 337 300
f 300 337 338
f 300 338 303
f 300 303 301
f 302 339 340
f 302 340 309
f 302 309 307
f 302 304 339
f 303 338 341
f 303 341 304
f 304 342 343
f 304 343 344
f 304 344 345
f 304 345 346
f 304 346 347
f 304 347 340
f 304 340 339
f 304 341 348
f 304 348 342
f 305 311 313
f 309 349 350
f 309 350 351
f 309 351 352
f 309 352 310
f 309 340 349
f 310 352 353
f 310 353 311
f 311 353 313
f 313 353 314
f 314 353 354
f 314 354 315
f 315 354 355
f 315 355 323
f 315 323 322
f 315 322 321
f 315 321 316
f 318 356 319
f 318 320 323
f 318 323 356
f 319 356 358
f 319 358 357
f 320 324 323
f 323 355 359
f 323 359 360
f 323 360 361
f 323 361 362
f 323 362 356
f 325 363 364
f 325 364 365
f 325 365 326
f 326 365 327
f 327 365 366
f 327 366 328
f 328 366 367
f 328 367 368
f 328 368 329
f 329 369 370
f 329 370 331
f 329 331 330
f 329 368 371
f 329 371 372
f 329 372 373
f 329 373 369
f 331 374 375
f 331 375 333
f 331 333 332
f 331 370 376
f 331 376 374
f 333 377 334
f 333 375 378
f 333 378 377
f 334 377 379
f 334 379 335
f 336 380 337
f 337 380 381
f 337 381 338
f 338 382 341
f 338 381 383
f 338 383 384
f 338 384 382
f 340 347 349
f 341 382 348
f 342 348 384
f 342 384 385
f 342 385 343
f 343 385 386
f 343 386 387
f 343 387 344
f 344 387 388
f 344 388 345
f 345 388 389
f 345 389 390
f 345 390 391
f 345 391 349
f 345 349 346
f 346 349 347
f 348 382 384
f 349 391 350
f 350 392 351
f 350 391 390
f 350 390 393
f 350 393 394
f 350 394 392
f 351 353 352
f 351 392 395
f 351 395 353
f 353 395 396
f 353 396 397
f 353 397 359
f 353 359 355
f 353 355 354
f 356 362 358
f 357 398 399
f 357 358 400
f 357 400 361
f 357 361 401
f 357 401 402
f 357 402 398
f 358 362 361
f 358 361 400
f 359 397 360
f 360 397 403
f 360 403 404
f 360 404 361
f 361 404 405
f 361 405 401
f 363 406 407
f 363 407 364
f 364 407 371
f 364 371 408
f 364 408 365
f 365 408 366
f 366 408 409
f 366 409 367
f 367 409 371
f 367 371 368
f 369 410 411
f 369 411 412
f 369 412 413
f 369 413 370
f 369 373 414
f 369 414 371
f 369 371 415
f 369 415 410
f 370 416 376
f 370 413 416
f 371 407 417
f 371 417 418
f 371 418 415
f 371 414 372
f 371 409 408
f 372 414 373
f 374 376 419
f 374 419 378
f 374 378 375
f 376 412 420
f 376 420 421
f 376 421 419
f 376 416 413
f 376 413 412
f 377 378 422
f 377 422 379
f 378 419 423
f 378 423 422
f 380 421 424
f 380 424 383
f 380 383 381
f 383 424 384
f 384 412 385
f 384 424 412
f 385 412 425
f 385 425 386
f 386 426 427
f 386 427 428
f 386 428 429
f 386 429 387
f 386 425 426
f 387 429 388
f 388 428 430
f 388 430 431
f 388 431 432
f 388 432 389
f 388 429 428
f 389 432 433
f 389 433 434
f 389 434 390
f 390 434 435
f 390 435 393
f 392 394 403
f 392 403 395
f 393 435 436
f 393 436 394
f 394 436 437
f 394 437 438
f 394 438 403
f 395 403 396
f 396 403 397
f 398 402 439
f 398 439 440
f 398 440 437
f 398 437 399
f 399 441 442
f 399 437 441
f 401 405 404
f 401 404 402
f 402 404 439
f 403 438 404
f 404 438 440
f 404 440 439
f 406 443 444
f 406 444 445
f 406 445 446
f 406 446 407
f 407 446 417
f 410 415 418
f 410 418 447
f 410 447 448
f 410 448 427
f 410 427 426
f 410 426 411
f 411 426 449
f 411 449 412
f 412 424 421
f 412 421 420
f 412 449 426
f 412 426 425
f 417 450 447
f 417 447 418
f 417 446 450
f 419 421 451
f 419 451 423
f 427 430 428
f 427 448 452
f 427 452 453
f 427 453 454
f 427 454 430
f 430 454 431
f 431 454 453
f 431 453 455
f 431 455 456
f 431 456 432
f 432 456 433
f 433 456 457
f 433 457 458
f 433 458 459
f 433 459 460
f 433 460 436
f 433 436 435
f 433 435 434
f 436 460 461
f 436 461 462
f 436 462 437
f 437 440 438
f 437 462 441
f 441 458 463
f 441 463 442
f 441 462 459
f 441 459 458
f 443 464 444
f 444 464 465
f 444 465 466
f 444 466 467
f 444 467 468
f 444 468 445
f 445 468 450
f 445 450 446
f 447 450 469
f 447 469 448
f 448 469 452
f 450 468 469
f 452 469 453
f 453 469 467
f 453 467 470
f 453 470 455
f 455 470 456
f 456 470 471
f 456 471 472
f 456 472 473
f 456 473 474
f 456 474 457
f 457 474 475
f 457 475 458
f 459 462 461
f 459 461 460
f 465 476 474
f 465 474 472
f 465 472 466
f 466 472 470
f 466 470 467
f 467 469 468
f 470 472 471
f 472 474 473
f 474 476 475

