# https://github.com/mikedh/trimesh
v 0.00070425 0.00325166 0.00840194
v 0.00067589 0.00325166 0.00796933
v 0.00064753 0.00325166 0.00886336
v 0.00105202 0.00307713 0.00902697
v 0.00105202 0.00308942 0.00849458
v 0.00157143 0.00283131 0.00796280
v 0.00065499 0.00325166 0.00785531
v 0.00058335 0.00325166 0.00902697
v 0.00148933 0.00278214 0.00942989
v 0.00157441 0.00283622 0.00902697
v 0.00035947 0.00325166 0.00933874
v 0.00157441 0.00283622 0.00849458
v 0.00183710 0.00266046 0.00796280
v 0.00148486 0.00277354 0.00761718
v 0.00044454 0.00325166 0.00751800
v 0.00102963 0.00284114 0.00958815
v 0.00083858 0.00268873 0.00983786
v 0.00119381 0.00257319 0.00978472
v 0.00186397 0.00215038 0.00983252
v 0.00207143 0.00226714 0.00952699
v 0.00240726 0.00216881 0.00932805
v 0.00184009 0.00266538 0.00902697
v -0.00002113 0.00325166 0.00953708
v 0.00184009 0.00266538 0.00849458
v 0.00211621 0.00244291 0.00849458
v 0.00211621 0.00243553 0.00796280
v 0.00240427 0.00216636 0.00767240
v 0.00211621 0.00228435 0.00761866
v -0.00163907 0.00325166 0.00690812
v 0.00019230 0.00325166 0.00744110
v 0.00158337 0.00220692 0.00984766
v -0.00053308 0.00325166 0.00968762
v -0.00152414 0.00325166 0.00992902
v 0.00158337 0.00187383 0.00988122
v 0.00195800 0.00187383 0.00984766
v 0.00243263 0.00120519 0.00984766
v 0.00233562 0.00156040 0.00981381
v 0.00222367 0.00187383 0.00970989
v 0.00241920 0.00218356 0.00902697
v 0.00211621 0.00244291 0.00902697
v 0.00251025 0.00187383 0.00944385
v 0.00296846 0.00119658 0.00937704
v 0.00286995 0.00152353 0.00902697
v 0.00264010 0.00187383 0.00902697
v 0.00241920 0.00218356 0.00849458
v 0.00241621 0.00218110 0.00796280
v 0.00262965 0.00187383 0.00796280
v 0.00286100 0.00151984 0.00796280
v 0.00296548 0.00119167 0.00763974
v 0.00249980 0.00187383 0.00761866
v 0.00211621 0.00187383 0.00749900
v -0.00170176 0.00325166 0.00689595
v 0.00264905 0.00080818 0.00747495
v -0.00146145 0.00286326 0.00992902
v 0.00211621 0.00080818 0.00989250
v -0.01146011 0.00325166 0.00992902
v 0.00214158 0.00136620 0.00986578
v 0.00247741 0.00080818 0.00985895
v 0.00279980 0.00027597 0.00978323
v 0.00274308 0.00080818 0.00972325
v 0.00265801 0.00137849 0.00959528
v 0.00264159 0.00187383 0.00849458
v 0.00299383 0.00125681 0.00902697
v 0.00302518 0.00080818 0.00945721
v 0.00313712 0.00080818 0.00902697
v 0.00287144 0.00152353 0.00849458
v 0.00299234 0.00125312 0.00796280
v 0.00267592 0.00135760 0.00756670
v 0.00312966 0.00080818 0.00796280
v 0.00301772 0.00080818 0.00759461
v 0.00264905 0.00027597 0.00745773
v 0.00264905 -0.00025623 0.00745773
v 0.00264905 -0.00078844 0.00746812
v -0.00107787 -0.00717493 0.00745743
v -0.00160922 -0.00770714 0.00745743
v -0.00214206 -0.00823934 0.00745743
v -0.00580629 -0.00034350 0.00689595
v -0.01186907 0.00325166 0.00689595
v 0.00305801 0.00027597 0.00757739
v -0.00161071 0.00268135 0.00992902
v -0.00107787 -0.00664149 0.00989250
v 0.00211621 -0.00078844 0.00989250
v 0.00253413 0.00027597 0.00985895
v -0.01147354 0.00325166 0.00989072
v -0.01148100 0.00296528 0.00992902
v 0.00279980 -0.00025623 0.00978382
v 0.00307443 0.00027597 0.00951719
v 0.00299383 0.00125681 0.00849458
v 0.00323712 0.00027597 0.00902697
v 0.00323861 0.00027597 0.00849458
v 0.00313712 0.00080818 0.00849458
v 0.00321921 0.00027597 0.00796280
v 0.00305652 -0.00025623 0.00757709
v 0.00302667 -0.00078844 0.00758778
v 0.00297742 -0.00117561 0.00763084
v 0.00267443 -0.00134031 0.00756136
v -0.00107787 -0.00770714 0.00749306
v -0.00160922 -0.00823934 0.00750108
v -0.00267491 -0.00877155 0.00749306
v -0.00320626 -0.00877155 0.00746189
v -0.00698691 -0.00115595 0.00689595
v -0.00672123 -0.00102320 0.00689595
v -0.00639884 -0.00080811 0.00689595
v -0.00607197 -0.00057335 0.00689595
v -0.01200638 0.00139570 0.00689595
v -0.01193176 0.00240603 0.00689803
v -0.01199892 0.00121625 0.00743041
v -0.01185414 0.00325166 0.00721128
v -0.00267491 -0.00823934 0.00989250
v -0.00160922 -0.00717493 0.00989250
v -0.00533465 -0.00084744 0.00992902
v -0.00160922 -0.00770714 0.00988151
v -0.00104055 -0.00721180 0.00986578
v 0.00215203 -0.00135629 0.00986578
v 0.00243711 -0.00120265 0.00984766
v 0.00248189 -0.00078844 0.00985895
v 0.00253413 -0.00025623 0.00985895
v -0.01148996 0.00283622 0.00992902
v -0.01147503 0.00325166 0.00988478
v -0.01168549 0.00134162 0.00955935
v 0.00274756 -0.00078844 0.00973572
v 0.00303413 -0.00078844 0.00946938
v 0.00307443 -0.00025623 0.00951748
v 0.00323563 -0.00025623 0.00902697
v 0.00323712 -0.00025623 0.00849458
v 0.00321772 -0.00025623 0.00796280
v 0.00314608 -0.00078844 0.00796280
v 0.00301025 -0.00123953 0.00796280
v -0.00078085 -0.00800704 0.00766409
v -0.00070025 -0.00770714 0.00761243
v -0.00111667 -0.00820616 0.00761658
v -0.00160922 -0.00861177 0.00762074
v -0.00214952 -0.00878999 0.00757947
v -0.00267491 -0.00911816 0.00761272
v -0.00320626 -0.00915504 0.00758155
v -0.00373910 -0.00915749 0.00758006
v -0.00373910 -0.00877155 0.00746040
v -0.00906007 -0.00172134 0.00689595
v -0.00852872 -0.00167955 0.00689595
v -0.00820484 -0.00162055 0.00689595
v -0.00746304 -0.00133908 0.00689595
v -0.01200788 0.00137235 0.00689595
v -0.01200937 0.00088807 0.00689595
v -0.01199892 0.00099869 0.00743041
v -0.01199146 0.00112161 0.00772912
v -0.01184370 0.00325166 0.00743041
v -0.00320626 -0.00860685 0.00985895
v -0.00267491 -0.00858596 0.00985895
v -0.00227938 -0.00854662 0.00984766
v -0.00211818 -0.00826270 0.00986578
v -0.00639884 -0.00170782 0.00992902
v -0.00746304 -0.00222651 0.00992902
v -0.00800036 -0.00231255 0.00992902
v -0.00852872 -0.00231992 0.00992902
v -0.00427194 -0.00823934 0.00989250
v -0.00373910 -0.00861054 0.00985895
v -0.00160922 -0.00808079 0.00984796
v -0.00132862 -0.00798738 0.00983311
v -0.00121817 -0.00770714 0.00984796
v -0.00076891 -0.00705939 0.00984766
v 0.00235353 -0.00155787 0.00981916
v -0.00083756 -0.00741461 0.00982005
v -0.01155115 0.00187383 0.00992902
v -0.01150936 0.00325166 0.00973691
v -0.01167205 0.00080818 0.00955935
v -0.01157354 0.00081924 0.00992902
v -0.01158399 0.00134162 0.00992902
v -0.01155862 0.00175583 0.00992902
v -0.01154817 0.00325166 0.00955935
v -0.01179892 0.00134162 0.00902697
v 0.00298040 -0.00118053 0.00939248
v 0.00315354 -0.00078844 0.00902697
v 0.00315354 -0.00078844 0.00849458
v 0.00301324 -0.00124321 0.00849458
v 0.00286995 -0.00150870 0.00849458
v -0.00055099 -0.00770714 0.00849458
v -0.00057189 -0.00770714 0.00796280
v -0.00076294 -0.00802671 0.00796280
v -0.00103757 -0.00829343 0.00796280
v -0.00132115 -0.00852696 0.00767508
v -0.00233311 -0.00906777 0.00766082
v -0.00267491 -0.00920543 0.00796280
v -0.00320626 -0.00928287 0.00796280
v -0.00373910 -0.00929024 0.00796280
v -0.00427194 -0.00911816 0.00761421
v -0.00427194 -0.00877155 0.00749455
v -0.00999441 -0.00165128 0.00689595
v -0.00959292 -0.00172749 0.00689595
v -0.01197653 0.00062136 0.00689595
v -0.01199146 0.00105278 0.00772912
v -0.01188698 0.00134162 0.00849458
v -0.01190937 0.00187383 0.00796280
v -0.01182877 0.00293824 0.00796280
v -0.01180489 0.00325166 0.00796280
v -0.01182131 0.00325166 0.00774337
v -0.00320626 -0.00887357 0.00974582
v -0.00267491 -0.00885144 0.00968970
v -0.00192415 -0.00845690 0.00981352
v -0.00906007 -0.00231992 0.00992902
v -0.00930784 -0.00225969 0.00992902
v -0.00586600 -0.00717493 0.00989250
v -0.00533465 -0.00770714 0.00988923
v -0.00481971 -0.00825655 0.00986578
v -0.00465553 -0.00854908 0.00984766
v -0.00427194 -0.00858964 0.00985895
v -0.00373910 -0.00887603 0.00974344
v -0.00160922 -0.00834751 0.00971553
v -0.00130772 -0.00853679 0.00933606
v -0.00114055 -0.00817666 0.00951511
v -0.00077637 -0.00801073 0.00933933
v -0.00095249 -0.00770714 0.00972296
v -0.00068085 -0.00770714 0.00945661
v -0.01178549 0.00080818 0.00902697
v -0.01150190 0.00044068 0.00992902
v -0.01165414 0.00325166 0.00902697
v -0.01167802 0.00293824 0.00902697
v -0.01180788 0.00240603 0.00849458
v -0.01169145 0.00325166 0.00880784
v -0.00033457 -0.00732119 0.00902697
v 0.00286846 -0.00150870 0.00902697
v 0.00301324 -0.00124321 0.00902697
v -0.00054801 -0.00770714 0.00902697
v -0.00075995 -0.00803039 0.00849458
v -0.00103010 -0.00829588 0.00849458
v -0.00129578 -0.00854785 0.00849458
v -0.00130474 -0.00854171 0.00796280
v -0.00160922 -0.00873591 0.00796280
v -0.00202266 -0.00896575 0.00796280
v -0.00228833 -0.00908497 0.00796280
v -0.00267491 -0.00921281 0.00849458
v -0.00320626 -0.00929516 0.00849458
v -0.00373910 -0.00930499 0.00849458
v -0.00427194 -0.00923001 0.00849458
v -0.00427194 -0.00921158 0.00796280
v -0.00460777 -0.00906285 0.00766468
v -0.00533465 -0.00862037 0.00761124
v -0.00479135 -0.00879122 0.00758184
v -0.00533465 -0.00823934 0.00749158
v -0.01026158 -0.00152099 0.00689595
v -0.01195862 0.00073320 0.00743041
v -0.01181683 0.00027475 0.00689595
v -0.01181832 0.00027597 0.00689803
v -0.01178549 0.00027597 0.00743041
v -0.01175116 0.00027597 0.00796280
v -0.01170489 0.00027597 0.00849458
v -0.01193922 0.00084874 0.00792895
v -0.01187355 0.00080818 0.00849458
v -0.01176907 0.00325166 0.00827575
v -0.00320626 -0.00916487 0.00947948
v -0.00267491 -0.00912308 0.00942366
v -0.00212714 -0.00876909 0.00958073
v -0.00160922 -0.00862775 0.00944949
v -0.00944665 -0.00216505 0.00992902
v -0.00693168 -0.00610929 0.00989250
v -0.00692721 -0.00663780 0.00986578
v -0.00638541 -0.00716141 0.00986578
v -0.00584212 -0.00768747 0.00986310
v -0.00533465 -0.00808325 0.00985568
v -0.00564808 -0.00800090 0.00984351
v -0.00500927 -0.00844706 0.00979540
v -0.00416448 -0.00911202 0.00940940
v -0.00373910 -0.00916118 0.00947740
v -0.00129130 -0.00855154 0.00902697
v -0.00102563 -0.00829711 0.00902697
v -0.00233012 -0.00907268 0.00934794
v -0.00202116 -0.00897190 0.00902697
v -0.00160922 -0.00875189 0.00902697
v -0.00075846 -0.00803039 0.00902697
v -0.01159145 0.00022558 0.00907299
v -0.01154668 0.00034235 0.00955935
v -0.01142130 0.00007686 0.00955935
v -0.01138100 0.00020591 0.00992902
v -0.01176758 0.00293824 0.00849458
v -0.01174369 0.00325166 0.00849458
v -0.00160922 -0.00875435 0.00849458
v -0.00201519 -0.00897804 0.00849458
v -0.00228236 -0.00908989 0.00849458
v -0.00228684 -0.00909112 0.00902697
v -0.00267491 -0.00921158 0.00902697
v -0.00320626 -0.00929516 0.00902697
v -0.00373910 -0.00929638 0.00902697
v -0.00431374 -0.00915995 0.00906438
v -0.00463016 -0.00908006 0.00891176
v -0.00467941 -0.00909727 0.00849458
v -0.00466299 -0.00908497 0.00796280
v -0.00492867 -0.00897190 0.00796280
v -0.00564659 -0.00853679 0.00766261
v -0.00584062 -0.00823566 0.00758541
v -0.00641377 -0.00772435 0.00755868
v -0.00586600 -0.00770714 0.00746367
v -0.01060786 -0.00125550 0.00689595
v -0.01156310 -0.00013947 0.00689595
v -0.00878395 -0.00530176 0.00780543
v -0.00879738 -0.00531651 0.00826417
v -0.00891231 -0.00508420 0.00846281
v -0.00891529 -0.00509281 0.00797467
v -0.00879738 -0.00531651 0.00816025
v -0.00922724 -0.00447210 0.00852428
v -0.01148399 -0.00003376 0.00892631
v -0.01145414 0.00001417 0.00928113
v -0.00932426 -0.00423980 0.00872143
v -0.00746304 -0.00557708 0.00989220
v -0.01044815 -0.00108097 0.00992902
v -0.00744512 -0.00609085 0.00986548
v -0.00725557 -0.00645713 0.00984766
v -0.00674661 -0.00697581 0.00984766
v -0.00620033 -0.00749696 0.00984766
v -0.00710034 -0.00681234 0.00974552
v -0.00655556 -0.00733103 0.00971197
v -0.00600331 -0.00785217 0.00967456
v -0.00584212 -0.00807464 0.00952194
v -0.00517196 -0.00857244 0.00944058
v -0.00481971 -0.00867322 0.00959439
v -0.00451822 -0.00902844 0.00926688
v -0.00887649 -0.00492442 0.00902697
v -0.00881679 -0.00481871 0.00934764
v -0.00827200 -0.00532757 0.00983282
v -0.01110189 -0.00026484 0.00992902
v -0.00480479 -0.00893871 0.00906438
v -0.00562719 -0.00852327 0.00880992
v -0.00533465 -0.00875435 0.00849458
v -0.00494509 -0.00897927 0.00849458
v -0.00533465 -0.00875680 0.00796280
v -0.00567495 -0.00855646 0.00796280
v -0.00594062 -0.00837086 0.00796280
v -0.00630182 -0.00810537 0.00796280
v -0.00624511 -0.00805744 0.00762519
v -0.00678541 -0.00755964 0.00761777
v -0.00695109 -0.00719337 0.00755423
v -0.01087204 -0.00100108 0.00689595
v -0.01137056 -0.00040618 0.00689595
v -0.00831081 -0.00591509 0.00764806
v -0.00815110 -0.00622113 0.00796280
v -0.00834066 -0.00595565 0.00796280
v -0.00834066 -0.00595073 0.00849458
v -0.00863469 -0.00552791 0.00846281
v -0.00877947 -0.00528701 0.00861870
v -0.01086906 -0.00060653 0.00992902
v -0.01093324 -0.00053401 0.00992902
v -0.00796752 -0.00553406 0.00985627
v -0.00777199 -0.00590157 0.00984707
v -0.00761080 -0.00625555 0.00969118
v -0.00742721 -0.00660585 0.00954094
v -0.00724363 -0.00695369 0.00939070
v -0.00669735 -0.00746992 0.00935715
v -0.00635108 -0.00766043 0.00951600
v -0.00614660 -0.00798369 0.00931973
v -0.00552719 -0.00845690 0.00916474
v -0.00534360 -0.00863635 0.00900321
v -0.00872425 -0.00518991 0.00902697
v -0.00824364 -0.00581799 0.00924610
v -0.00834364 -0.00543696 0.00955935
v -0.00774961 -0.00640059 0.00933636
v -0.00786304 -0.00609085 0.00953203
v -0.01097353 -0.00047379 0.00992902
v -0.00566152 -0.00854662 0.00849458
v -0.00583018 -0.00831555 0.00900321
v -0.00621227 -0.00803777 0.00902697
v -0.00628839 -0.00809800 0.00849458
v -0.00592719 -0.00836471 0.00849458
v -0.00656899 -0.00788413 0.00796280
v -0.00732124 -0.00702989 0.00761747
v -0.00684810 -0.00761864 0.00796280
v -0.00739438 -0.00709504 0.00796280
v -0.00766005 -0.00683692 0.00796280
v -0.00748393 -0.00666239 0.00755423
v -0.01110488 -0.00073436 0.00689595
v -0.00783020 -0.00649892 0.00761836
v -0.00788543 -0.00657020 0.00796280
v -0.00814513 -0.00621745 0.00849458
v -0.00831081 -0.00590894 0.00889127
v -0.00732273 -0.00703112 0.00902697
v -0.00703915 -0.00729784 0.00902697
v -0.00758841 -0.00674474 0.00902697
v -0.00677347 -0.00753875 0.00902697
v -0.00647944 -0.00780424 0.00902697
v -0.00844812 -0.00561518 0.00905191
v -0.00810484 -0.00609577 0.00905191
v -0.00781379 -0.00647925 0.00902697
v -0.00655407 -0.00787184 0.00849458
v -0.00684213 -0.00760512 0.00849458
v -0.00710781 -0.00735807 0.00849458
v -0.00739139 -0.00709258 0.00849458
v -0.00765707 -0.00682955 0.00849458
v -0.00787946 -0.00656283 0.00849458
f 1 2 7
f 1 7 15
f 1 15 30
f 1 30 29
f 1 29 52
f 1 52 78
f 1 78 108
f 1 108 146
f 1 146 195
f 1 195 194
f 1 194 248
f 1 248 274
f 1 274 218
f 1 218 215
f 1 215 169
f 1 169 164
f 1 164 119
f 1 119 84
f 1 84 56
f 1 56 33
f 1 33 32
f 1 32 23
f 1 23 11
f 1 11 8
f 1 8 3
f 1 3 4
f 1 4 5
f 1 5 6
f 1 6 2
f 2 6 7
f 3 8 4
f 4 9 10
f 4 10 5
f 4 8 11
f 4 11 9
f 5 10 12
f 5 12 6
f 6 12 24
f 6 24 13
f 6 13 14
f 6 14 7
f 7 14 15
f 9 11 16
f 9 16 17
f 9 17 18
f 9 18 19
f 9 19 20
f 9 20 21
f 9 21 22
f 9 22 10
f 10 22 24
f 10 24 12
f 11 23 16
f 13 24 25
f 13 25 26
f 13 26 27
f 13 27 14
f 14 27 28
f 14 28 29
f 14 29 30
f 14 30 15
f 16 23 17
f 17 31 19
f 17 19 18
f 17 23 32
f 17 32 33
f 17 33 31
f 19 31 34
f 19 34 35
f 19 35 36
f 19 36 37
f 19 37 38
f 19 38 21
f 19 21 20
f 21 39 40
f 21 40 22
f 21 38 41
f 21 41 42
f 21 42 43
f 21 43 44
f 21 44 39
f 22 40 25
f 22 25 24
f 25 40 39
f 25 39 45
f 25 45 46
f 25 46 26
f 26 46 27
f 27 46 47
f 27 47 48
f 27 48 49
f 27 49 50
f 27 50 51
f 27 51 28
f 28 51 29
f 29 51 53
f 29 53 52
f 31 33 34
f 33 54 55
f 33 55 34
f 33 56 85
f 33 85 118
f 33 118 163
f 33 163 168
f 33 168 167
f 33 167 166
f 33 166 214
f 33 214 272
f 33 272 318
f 33 318 355
f 33 355 339
f 33 339 338
f 33 338 303
f 33 303 253
f 33 253 200
f 33 200 199
f 33 199 154
f 33 154 153
f 33 153 152
f 33 152 151
f 33 151 111
f 33 111 80
f 33 80 54
f 34 55 57
f 34 57 35
f 35 57 36
f 36 57 55
f 36 55 58
f 36 58 59
f 36 59 60
f 36 60 37
f 37 60 61
f 37 61 41
f 37 41 38
f 39 44 62
f 39 62 45
f 41 61 42
f 42 63 43
f 42 61 60
f 42 60 64
f 42 64 65
f 42 65 63
f 43 63 66
f 43 66 62
f 43 62 44
f 45 62 46
f 46 62 47
f 47 62 66
f 47 66 48
f 48 66 67
f 48 67 49
f 49 68 50
f 49 67 69
f 49 69 70
f 49 70 68
f 50 68 51
f 51 68 53
f 52 53 71
f 52 71 72
f 52 72 73
f 52 73 74
f 52 74 75
f 52 75 76
f 52 76 77
f 52 77 104
f 52 104 103
f 52 103 102
f 52 102 101
f 52 101 141
f 52 141 140
f 52 140 139
f 52 139 138
f 52 138 188
f 52 188 187
f 52 187 239
f 52 239 291
f 52 291 330
f 52 330 367
f 52 367 331
f 52 331 292
f 52 292 241
f 52 241 189
f 52 189 143
f 52 143 142
f 52 142 105
f 52 105 78
f 53 68 70
f 53 70 79
f 53 79 71
f 54 80 81
f 54 81 82
f 54 82 55
f 55 82 117
f 55 117 83
f 55 83 58
f 56 84 85
f 58 83 59
f 59 86 87
f 59 87 64
f 59 64 60
f 59 83 86
f 63 88 66
f 63 65 91
f 63 91 88
f 64 87 89
f 64 89 65
f 65 89 90
f 65 90 91
f 66 88 67
f 67 88 91
f 67 91 69
f 69 91 90
f 69 90 92
f 69 92 70
f 70 92 79
f 71 79 72
f 72 79 93
f 72 93 73
f 73 93 94
f 73 94 95
f 73 95 96
f 73 96 97
f 73 97 74
f 74 97 75
f 75 97 76
f 76 97 98
f 76 98 99
f 76 99 100
f 76 100 101
f 76 101 102
f 76 102 103
f 76 103 104
f 76 104 77
f 78 105 106
f 78 106 107
f 78 107 108
f 79 92 93
f 80 109 110
f 80 110 81
f 80 111 109
f 81 110 112
f 81 112 113
f 81 113 82
f 82 114 115
f 82 115 116
f 82 116 117
f 82 113 114
f 83 117 86
f 84 118 85
f 84 119 120
f 84 120 118
f 86 117 116
f 86 116 115
f 86 115 121
f 86 121 122
f 86 122 123
f 86 123 87
f 87 123 89
f 89 124 125
f 89 125 90
f 89 123 124
f 90 125 126
f 90 126 92
f 92 126 93
f 93 126 94
f 94 126 127
f 94 127 95
f 95 127 128
f 95 128 129
f 95 129 130
f 95 130 96
f 96 130 97
f 97 130 129
f 97 129 131
f 97 131 98
f 98 131 132
f 98 132 133
f 98 133 99
f 99 134 135
f 99 135 100
f 99 133 134
f 100 135 136
f 100 136 137
f 100 137 138
f 100 138 139
f 100 139 140
f 100 140 141
f 100 141 101
f 105 142 107
f 105 107 106
f 107 142 143
f 107 143 144
f 107 144 190
f 107 190 145
f 107 145 146
f 107 146 108
f 109 147 148
f 109 148 149
f 109 149 150
f 109 150 112
f 109 112 110
f 109 111 151
f 109 151 152
f 109 152 153
f 109 153 154
f 109 154 199
f 109 199 155
f 109 155 156
f 109 156 147
f 112 157 158
f 112 158 159
f 112 159 113
f 112 150 157
f 113 160 115
f 113 115 114
f 113 159 160
f 115 161 121
f 115 160 162
f 115 162 161
f 118 120 163
f 119 164 120
f 120 165 166
f 120 166 167
f 120 167 168
f 120 168 163
f 120 164 169
f 120 169 170
f 120 170 213
f 120 213 165
f 121 171 122
f 121 161 171
f 122 172 124
f 122 124 123
f 122 171 172
f 124 172 125
f 125 172 173
f 125 173 127
f 125 127 126
f 127 173 128
f 128 173 174
f 128 174 175
f 128 175 176
f 128 176 177
f 128 177 129
f 129 177 178
f 129 178 179
f 129 179 180
f 129 180 131
f 131 180 132
f 132 180 181
f 132 181 133
f 133 181 134
f 134 181 182
f 134 182 183
f 134 183 135
f 135 183 184
f 135 184 136
f 136 184 185
f 136 185 186
f 136 186 137
f 137 186 187
f 137 187 188
f 137 188 138
f 143 189 144
f 144 189 190
f 145 190 191
f 145 191 192
f 145 192 193
f 145 193 194
f 145 194 195
f 145 195 146
f 147 196 148
f 147 156 196
f 148 196 149
f 149 196 197
f 149 197 198
f 149 198 158
f 149 158 157
f 149 157 150
f 155 199 200
f 155 200 201
f 155 201 202
f 155 202 203
f 155 203 204
f 155 204 205
f 155 205 156
f 156 205 206
f 156 206 196
f 158 198 207
f 158 207 208
f 158 208 209
f 158 209 210
f 158 210 211
f 158 211 162
f 158 162 159
f 159 162 160
f 161 162 171
f 162 211 210
f 162 210 212
f 162 212 171
f 165 213 214
f 165 214 166
f 169 215 216
f 169 216 170
f 170 217 191
f 170 191 247
f 170 247 213
f 170 216 218
f 170 218 217
f 171 219 220
f 171 220 221
f 171 221 172
f 171 212 210
f 171 210 219
f 172 221 174
f 172 174 173
f 174 221 175
f 175 221 220
f 175 220 219
f 175 219 176
f 176 222 223
f 176 223 178
f 176 178 177
f 176 219 222
f 178 223 224
f 178 224 179
f 179 224 225
f 179 225 226
f 179 226 180
f 180 226 227
f 180 227 228
f 180 228 181
f 181 228 229
f 181 229 182
f 182 229 230
f 182 230 231
f 182 231 183
f 183 231 232
f 183 232 184
f 184 232 233
f 184 233 234
f 184 234 185
f 185 234 235
f 185 235 236
f 185 236 237
f 185 237 186
f 186 237 236
f 186 236 238
f 186 238 187
f 187 238 239
f 189 240 190
f 189 241 242
f 189 242 243
f 189 243 244
f 189 244 245
f 189 245 240
f 190 240 246
f 190 246 247
f 190 247 191
f 191 217 192
f 192 217 248
f 192 248 193
f 193 248 194
f 196 249 197
f 196 206 249
f 197 249 250
f 197 250 251
f 197 251 198
f 198 251 252
f 198 252 207
f 200 253 201
f 201 254 255
f 201 255 256
f 201 256 202
f 201 253 254
f 202 256 257
f 202 257 258
f 202 258 203
f 203 258 204
f 204 258 259
f 204 259 260
f 204 260 261
f 204 261 262
f 204 262 206
f 204 206 205
f 206 262 249
f 207 252 208
f 208 263 264
f 208 264 210
f 208 210 209
f 208 252 265
f 208 265 266
f 208 266 267
f 208 267 263
f 210 264 268
f 210 268 222
f 210 222 219
f 213 245 269
f 213 269 270
f 213 270 214
f 213 247 245
f 214 270 271
f 214 271 272
f 215 218 216
f 217 218 273
f 217 273 248
f 218 274 273
f 222 268 223
f 223 264 224
f 223 268 264
f 224 264 263
f 224 263 225
f 225 263 275
f 225 275 226
f 226 275 227
f 227 275 228
f 228 275 276
f 228 276 229
f 229 277 230
f 229 276 277
f 230 277 278
f 230 278 279
f 230 279 280
f 230 280 231
f 231 280 232
f 232 280 281
f 232 281 233
f 233 281 282
f 233 282 283
f 233 283 284
f 233 284 285
f 233 285 234
f 234 285 235
f 235 285 286
f 235 286 287
f 235 287 236
f 236 287 288
f 236 288 238
f 238 288 289
f 238 289 290
f 238 290 239
f 239 290 291
f 240 245 247
f 240 247 246
f 241 292 293
f 241 293 242
f 242 294 295
f 242 295 243
f 242 293 296
f 242 296 297
f 242 297 294
f 243 295 244
f 244 295 298
f 244 298 245
f 245 299 300
f 245 300 269
f 245 298 301
f 245 301 299
f 248 273 274
f 249 280 250
f 249 262 281
f 249 281 280
f 250 280 279
f 250 279 265
f 250 265 251
f 251 265 252
f 253 302 254
f 253 303 302
f 254 302 255
f 255 302 304
f 255 304 305
f 255 305 306
f 255 306 256
f 256 306 307
f 256 307 257
f 257 307 259
f 257 259 258
f 259 307 308
f 259 308 309
f 259 309 310
f 259 310 311
f 259 311 312
f 259 312 260
f 260 312 313
f 260 313 261
f 261 281 262
f 261 313 314
f 261 314 282
f 261 282 281
f 263 267 275
f 265 279 278
f 265 278 266
f 266 276 267
f 266 278 276
f 267 276 275
f 269 300 270
f 270 300 271
f 271 300 301
f 271 301 315
f 271 315 272
f 272 315 316
f 272 316 317
f 272 317 318
f 276 278 277
f 282 314 283
f 283 314 319
f 283 319 320
f 283 320 321
f 283 321 322
f 283 322 284
f 284 322 286
f 284 286 285
f 286 322 323
f 286 323 287
f 287 323 324
f 287 324 325
f 287 325 326
f 287 326 327
f 287 327 288
f 288 327 289
f 289 327 328
f 289 328 329
f 289 329 291
f 289 291 290
f 291 329 330
f 292 331 332
f 292 332 293
f 293 332 333
f 293 333 334
f 293 334 297
f 293 297 296
f 294 297 333
f 294 333 335
f 294 335 336
f 294 336 337
f 294 337 295
f 295 337 301
f 295 301 298
f 297 334 333
f 299 301 300
f 301 337 315
f 302 303 338
f 302 338 339
f 302 339 304
f 304 339 340
f 304 340 341
f 304 341 305
f 305 308 306
f 305 341 308
f 306 308 307
f 308 341 317
f 308 317 342
f 308 342 343
f 308 343 344
f 308 344 309
f 309 344 345
f 309 345 346
f 309 346 310
f 310 347 311
f 310 346 347
f 311 347 312
f 312 319 314
f 312 314 313
f 312 347 348
f 312 348 349
f 312 349 319
f 315 337 350
f 315 350 316
f 316 350 351
f 316 351 352
f 316 352 317
f 317 352 351
f 317 351 353
f 317 353 354
f 317 354 342
f 317 341 340
f 317 340 339
f 317 339 355
f 317 355 318
f 319 349 320
f 320 356 321
f 320 349 348
f 320 348 357
f 320 357 358
f 320 358 359
f 320 359 360
f 320 360 356
f 321 356 324
f 321 324 323
f 321 323 322
f 324 356 360
f 324 360 325
f 325 360 326
f 326 360 359
f 326 359 361
f 326 361 327
f 327 361 328
f 328 362 329
f 328 361 363
f 328 363 364
f 328 364 365
f 328 365 362
f 329 362 366
f 329 366 330
f 330 366 368
f 330 368 367
f 331 367 368
f 331 368 332
f 332 368 369
f 332 369 333
f 333 369 370
f 333 370 335
f 335 370 371
f 335 371 337
f 335 337 336
f 337 371 350
f 342 354 353
f 342 353 343
f 343 353 344
f 344 372 373
f 344 373 345
f 344 353 374
f 344 374 372
f 345 373 375
f 345 375 347
f 345 347 346
f 347 357 348
f 347 375 376
f 347 376 358
f 347 358 357
f 350 371 377
f 350 377 351
f 351 377 371
f 351 371 378
f 351 378 353
f 353 378 379
f 353 379 374
f 358 376 380
f 358 380 359
f 359 380 361
f 361 380 381
f 361 381 382
f 361 382 383
f 361 383 363
f 362 365 368
f 362 368 366
f 363 383 364
f 364 383 365
f 365 383 384
f 365 384 369
f 365 369 368
f 369 384 385
f 369 385 370
f 370 385 371
f 371 385 379
f 371 379 378
f 372 374 384
f 372 384 383
f 372 383 373
f 373 383 382
f 373 382 381
f 373 381 380
f 373 380 375
f 374 379 384
f 375 380 376
f 379 385 384

