# https://github.com/mikedh/trimesh
v -0.01157331 0.00134169 0.00222838
v -0.01150389 0.00244080 0.00222838
v -0.01150515 0.00240787 0.00222446
v -0.01152282 0.00187478 0.00216669
v -0.01152787 0.00134169 0.00206614
v -0.01146224 0.00116262 0.00182509
v -0.01146224 0.00101648 0.00182509
v -0.01156700 0.00096502 0.00222838
v -0.01147486 0.00285245 0.00222838
v -0.01144962 0.00151664 0.00186111
v -0.01136506 0.00134169 0.00161828
v -0.01109749 0.00134169 0.00104241
v -0.01092710 0.00590692 0.00130199
v -0.01093846 0.00560024 0.00127810
v -0.01108865 0.00081065 0.00104241
v -0.01135622 0.00082712 0.00161828
v -0.01144205 0.00066040 0.00188108
v -0.01152282 0.00082712 0.00207791
v -0.01156321 0.00082300 0.00222838
v -0.01140040 0.00389805 0.00222838
v -0.01127292 0.00506921 0.00210715
v -0.01123380 0.00560024 0.00210715
v -0.01104700 0.00560024 0.00157478
v -0.01108613 0.00506921 0.00157478
v -0.01101166 0.00347199 0.00113619
v -0.01102933 0.00293890 0.00110302
v -0.01095739 0.00506921 0.00123924
v -0.01097632 0.00453612 0.00120429
v -0.01093972 0.00134169 0.00075144
v -0.01093720 0.00081065 0.00075536
v -0.01104700 0.00240787 0.00107236
v -0.01090691 0.00240787 0.00080599
v -0.01091827 0.00204973 0.00078638
v -0.01062924 0.00773055 0.00104241
v -0.01072516 0.00666642 0.00104241
v -0.01079963 0.00610451 0.00109197
v -0.01079963 0.00560024 0.00101174
v -0.01099526 0.00610451 0.00154126
v -0.01091196 0.00626094 0.00134122
v -0.01047905 0.00985673 0.00113084
v -0.01050429 0.00932570 0.00108341
v -0.01092584 0.00054102 0.00077319
v -0.01099273 0.00041135 0.00104241
v -0.01111894 0.00022816 0.00152521
v -0.01149127 0.00044634 0.00222838
v -0.01149884 0.00047310 0.00222838
v -0.01126661 0.00560024 0.00222838
v -0.01122370 0.00613333 0.00222838
v -0.01114545 0.00666642 0.00210715
v -0.01093089 0.00808045 0.00182188
v -0.01098895 0.00666642 0.00165536
v -0.01087157 0.00347199 0.00087018
v -0.01085390 0.00400508 0.00090405
v -0.01088924 0.00293890 0.00083702
v -0.01081730 0.00506921 0.00097323
v -0.01075167 0.00134169 0.00048543
v -0.01074157 0.00081065 0.00048935
v -0.01053332 0.00560024 0.00057101
v -0.01036924 0.00932570 0.00081741
v -0.01038439 0.00899020 0.00078817
v -0.01040080 0.00863618 0.00076178
v -0.01044119 0.00773055 0.00070187
v -0.01046517 0.00719745 0.00066764
v -0.01051186 0.00613333 0.00060025
v -0.01089429 0.00666642 0.00138936
v -0.01067846 0.00985673 0.00157478
v -0.00988585 0.01677663 0.00125600
v -0.00991110 0.01624559 0.00120572
v -0.01034400 0.00985673 0.00086447
v -0.01047652 0.00081065 0.00014740
v -0.01043488 0.00047104 0.00019340
v -0.01062293 0.00032696 0.00055532
v -0.01045507 -0.00005999 0.00069225
v -0.01083623 0.00014583 0.00104241
v -0.01092079 0.00001616 0.00131447
v -0.01135622 0.00027756 0.00207791
v -0.01099526 -0.00009293 0.00166927
v -0.01137389 0.00022611 0.00222838
v -0.01095865 0.00929277 0.00222838
v -0.01091574 0.00843241 0.00186467
v -0.01087914 0.00932570 0.00198306
v -0.01048536 0.00134169 0.00013706
v -0.01036167 0.00506921 0.00028218
v -0.01034274 0.00560024 0.00030536
v -0.00984294 0.01474306 0.00080635
v -0.00985935 0.01438904 0.00077533
v -0.00989721 0.01358425 0.00071721
v -0.01011051 0.00985673 0.00051039
v -0.01029730 0.00666642 0.00036776
v -0.01032128 0.00613333 0.00033460
v -0.01085642 0.00985673 0.00205794
v -0.01039323 0.01387241 0.00183508
v -0.01006507 0.01624559 0.00157478
v -0.00986818 0.01712859 0.00129130
v -0.00956906 0.01879990 0.00104241
v -0.00974450 0.01677663 0.00098999
v -0.00977100 0.01624559 0.00093971
v -0.01020769 0.00081065 -0.00011897
v -0.01022536 0.00134169 -0.00012895
v -0.00989595 0.00049780 -0.00031615
v -0.01009663 0.00030638 0.00000619
v -0.01029730 0.00011496 0.00033781
v -0.01010672 -0.00023083 0.00053250
v -0.01027080 -0.00041402 0.00091154
v -0.01042099 -0.00055192 0.00126669
v -0.01055225 -0.00024318 0.00107058
v -0.01050682 -0.00065072 0.00157478
v -0.01080215 -0.00026376 0.00152521
v -0.01087157 -0.00044695 0.00196879
v -0.01105584 -0.00026376 0.00213068
v -0.01112652 -0.00019790 0.00222838
v -0.01099904 -0.00040578 0.00222838
v -0.01090943 0.00985673 0.00222838
v -0.01007643 0.00560024 0.00001475
v -0.01009537 0.00506921 -0.00000415
v -0.00986566 0.00436322 -0.00029333
v -0.00989090 0.00985673 0.00020837
v -0.00991362 0.00932570 0.00018234
v -0.00993634 0.00879261 0.00015667
v -0.01003100 0.00666642 0.00005968
v -0.01005498 0.00613333 0.00003614
v -0.00937722 0.01879990 0.00069867
v -0.00939868 0.01837384 0.00066764
v -0.00945295 0.01730972 0.00059312
v -0.00926363 0.01730972 0.00032747
v -0.00987197 0.01025398 0.00022941
v -0.01089429 0.01001522 0.00222838
v -0.01086904 0.01027868 0.00222838
v -0.01025061 0.01624559 0.00210715
v -0.01019886 0.01677663 0.00210715
v -0.00988585 0.01879990 0.00176804
v -0.00990731 0.01837384 0.00171206
v -0.01001333 0.01677663 0.00157478
v -0.00984925 0.01748467 0.00133159
v -0.00983158 0.01784075 0.00137723
v -0.00980508 0.01837384 0.00144569
v -0.00978362 0.01879990 0.00150203
v -0.00994139 0.00081065 -0.00035324
v -0.00995906 0.00134169 -0.00036928
v -0.00989343 0.00347199 -0.00031722
v -0.00994265 0.00187478 -0.00035645
v -0.00987702 0.00400508 -0.00030332
v -0.00959304 0.00081065 -0.00058216
v -0.00923712 0.00081065 -0.00078291
v -0.00886480 0.00050191 -0.00084781
v -0.00954130 0.00030432 -0.00038604
v -0.00968391 0.00014377 -0.00018101
v -0.00994265 -0.00004970 0.00017378
v -0.00991614 -0.00056427 0.00072755
v -0.00986314 -0.00105619 0.00130449
v -0.00948198 -0.00202564 0.00222838
v -0.01035410 -0.00101709 0.00191566
v -0.01065322 -0.00078244 0.00211963
v -0.01080720 -0.00065483 0.00222838
v -0.00981644 0.00560024 -0.00025161
v -0.00983789 0.00506921 -0.00027051
v -0.00985178 0.00471724 -0.00028228
v -0.00955013 0.00560024 -0.00045130
v -0.00957159 0.00506921 -0.00046556
v -0.00964227 0.00453817 -0.00044345
v -0.00936586 0.01517941 0.00019981
v -0.00892286 0.01879990 0.00010318
v -0.00894431 0.01837384 0.00008250
v -0.00867927 0.01837384 -0.00018386
v -0.00962207 0.00985673 -0.00005764
v -0.00964479 0.00932570 -0.00008402
v -0.00979119 0.00613333 -0.00022986
v -0.00933936 0.01879990 0.00064482
v -0.00918916 0.01879990 0.00043230
v -0.00921062 0.01837384 0.00040164
v -0.00923712 0.01784075 0.00036384
v -0.00931033 0.01634233 0.00026507
v -0.00932800 0.01598625 0.00024367
v -0.01037177 0.01538318 0.00222838
v -0.01031624 0.01570015 0.00214780
v -0.01034779 0.01562811 0.00222838
v -0.01028721 0.01624559 0.00222838
v -0.01014585 0.01730972 0.00210715
v -0.01009284 0.01784075 0.00210715
v -0.00999692 0.01879990 0.00210715
v -0.00986566 0.01879990 0.00171455
v -0.00959304 0.00134169 -0.00062210
v -0.00959304 0.00347199 -0.00052939
v -0.00959304 0.00293890 -0.00055292
v -0.00959304 0.00240787 -0.00057610
v -0.00959304 0.00187478 -0.00059928
v -0.00959304 0.00400508 -0.00050478
v -0.00930023 0.00134169 -0.00080645
v -0.00897082 0.00081065 -0.00089809
v -0.00903392 0.00134169 -0.00093232
v -0.00852781 0.00045663 -0.00088597
v -0.00852781 0.00018906 -0.00065205
v -0.00906043 -0.00002500 -0.00033042
v -0.00932926 0.00000999 -0.00028941
v -0.00852781 0.00081065 -0.00103680
v -0.00954130 -0.00012174 -0.00001092
v -0.00959304 -0.00042019 0.00035635
v -0.00959304 -0.00065689 0.00062200
v -0.00959304 -0.00092241 0.00094114
v -0.00906043 -0.00222529 0.00222838
v -0.01049672 -0.00100885 0.00222838
v -0.00952489 0.00613333 -0.00043525
v -0.00933936 0.01020252 -0.00029833
v -0.00935576 0.00985673 -0.00031223
v -0.00913868 0.00560024 -0.00071766
v -0.00916140 0.00506921 -0.00073192
v -0.00906043 0.00932570 -0.00054793
v -0.00906043 0.00879261 -0.00058002
v -0.00886985 0.01879990 0.00004934
v -0.00865907 0.01879990 -0.00016283
v -0.00839277 0.01879990 -0.00038818
v -0.00872849 0.01730972 -0.00023165
v -0.01003100 0.01879990 0.00222838
v -0.00922324 0.00347199 -0.00076615
v -0.00928130 0.00187478 -0.00079682
v -0.00918285 0.00453612 -0.00074405
v -0.00920305 0.00400508 -0.00075546
v -0.00895693 0.00347199 -0.00089844
v -0.00901499 0.00187478 -0.00092590
v -0.00852781 0.00134169 -0.00112558
v -0.00852781 0.00187478 -0.00112059
v -0.00799646 0.00081065 -0.00109635
v -0.00799646 0.00044634 -0.00090023
v -0.00799646 0.00018082 -0.00064563
v -0.00852781 -0.00007234 -0.00038569
v -0.00890014 -0.00054574 0.00021550
v -0.00881810 -0.00105825 0.00076962
v -0.00903645 -0.00078039 0.00051717
v -0.00925479 -0.00050252 0.00026507
v -0.00799646 0.00134169 -0.00124254
v -0.00917276 -0.00101297 0.00082311
v -0.00852781 -0.00106443 0.00076428
v -0.00852781 -0.00222529 0.00222838
v -0.00906043 0.00985673 -0.00051512
v -0.00875373 0.01677663 -0.00025411
v -0.00879286 0.01596979 -0.00028691
v -0.00881053 0.01561370 -0.00030082
v -0.00872218 0.00879261 -0.00078612
v -0.00874995 0.00826158 -0.00079932
v -0.00877645 0.00773055 -0.00081180
v -0.00879160 0.00743210 -0.00081857
v -0.00887363 0.00560024 -0.00085922
v -0.00798637 0.01879990 -0.00064920
v 0.00014673 0.01879990 0.00222838
v -0.00889635 0.00506921 -0.00086956
v -0.00891655 0.00453612 -0.00087955
v -0.00893674 0.00400508 -0.00088917
v -0.00799646 0.00187478 -0.00126786
v -0.00799646 0.00240787 -0.00125538
v -0.00852781 0.00506921 -0.00101683
v -0.00799646 0.00773055 -0.00110597
v -0.00799646 0.00719745 -0.00112238
v -0.00799646 0.00506921 -0.00118335
v -0.00744492 0.00077566 -0.00099258
v -0.00761025 0.00048956 -0.00086707
v -0.00746385 0.00134169 -0.00125467
v -0.00761656 -0.00002912 -0.00033470
v -0.00799646 -0.00006617 -0.00037927
v -0.00819588 -0.00106031 0.00076677
v -0.00747521 0.00186037 -0.00133704
v -0.00816432 -0.00222323 0.00222838
v -0.00770365 0.01879990 -0.00080930
v -0.00880674 0.00707807 -0.00082677
v -0.00852781 0.00560024 -0.00099900
v -0.00848364 0.00826158 -0.00091413
v -0.00851014 0.00773055 -0.00092412
v -0.00852781 0.00613333 -0.00097903
v 0.00084594 0.01223815 0.00222838
v 0.00013663 0.01879990 0.00218952
v -0.00760647 0.00240787 -0.00133561
v -0.00730608 0.00202709 -0.00136627
v -0.00693123 0.01879990 -0.00106140
v -0.00799646 0.00826158 -0.00108814
v -0.00744744 0.01879990 -0.00090736
v -0.00733133 0.01879990 -0.00094230
v -0.00725434 0.00057395 -0.00079325
v -0.00693123 0.00134169 -0.00112309
v -0.00693123 0.00095679 -0.00090593
v -0.00726191 0.00003880 -0.00026088
v -0.00693123 0.00204973 -0.00136449
v -0.00693123 0.00178421 -0.00130352
v -0.00747521 -0.00024935 -0.00001663
v -0.00768977 -0.00053545 0.00022763
v -0.00799646 -0.00033374 -0.00006655
v -0.00799646 -0.00055809 0.00019981
v -0.00801035 -0.00086066 0.00055782
v -0.00784122 -0.00103767 0.00079530
v -0.00763423 -0.00220882 0.00222838
v -0.00766326 0.01879990 -0.00082499
v 0.00087497 0.01194793 0.00222838
v 0.00085982 0.01198704 0.00219700
v -0.00006026 0.01879990 0.00157478
v -0.00002366 0.01879990 0.00168211
v 0.00011517 0.01879990 0.00210715
v -0.00720259 0.00431588 -0.00135308
v -0.00729977 0.00293890 -0.00136663
v -0.00734016 0.00240787 -0.00137127
v -0.00693123 0.01837384 -0.00107210
v -0.00639862 0.01879990 -0.00115625
v -0.00693123 0.00293890 -0.00140122
v -0.00693123 0.00240787 -0.00139159
v -0.00665231 0.00106382 -0.00083034
v -0.00693123 0.00069127 -0.00069199
v -0.00693123 0.00040312 -0.00042598
v -0.00693123 0.00013760 -0.00015962
v -0.00665609 0.00213412 -0.00135486
v -0.00630144 0.00229055 -0.00130066
v -0.00644658 0.00192418 -0.00118692
v -0.00644406 0.00138697 -0.00090451
v -0.00693123 -0.00010733 0.00010639
v -0.00664852 -0.00053134 0.00076285
v -0.00693123 -0.00060338 0.00067870
v -0.00733511 -0.00046959 0.00030536
v -0.00639862 0.00293890 -0.00141013
v -0.00644658 0.00244286 -0.00137341
v -0.00652862 -0.00171072 0.00222838
v 0.00093050 0.01135721 0.00222838
v 0.00088759 0.01145395 0.00213710
v -0.00018647 0.01879990 0.00126277
v -0.00716599 0.00466990 -0.00134987
v -0.00586727 0.01879990 -0.00119476
v -0.00693123 0.00347199 -0.00139159
v -0.00639862 0.00347199 -0.00141441
v -0.00662202 0.00050809 -0.00032115
v -0.00134510 0.00533678 -0.00028691
v -0.00074433 0.00526886 0.00019197
v -0.00093491 0.00491484 0.00033959
v -0.00662580 -0.00001883 0.00021087
v -0.00610960 0.00264457 -0.00136057
v -0.00590639 0.00244286 -0.00117729
v -0.00238635 0.00531414 -0.00082963
v -0.00291013 0.00477693 -0.00083604
v -0.00552271 -0.00112823 0.00222838
v -0.00586727 0.00400508 -0.00140158
v -0.00586727 0.00347199 -0.00139694
v -0.00590639 0.00299036 -0.00137162
v 0.00106807 0.00972089 0.00222838
v 0.00089516 0.01096820 0.00205509
v 0.00078536 0.01117814 0.00184292
v -0.00021929 0.01879990 0.00118539
v -0.00533465 0.01879990 -0.00118870
v -0.00626736 0.00066863 -0.00017281
v -0.00071656 0.00471724 0.00069439
v -0.00122520 0.00569286 -0.00035217
v -0.00105986 0.00554878 -0.00019064
v -0.00055880 0.00563729 0.00011923
v -0.00026094 0.00583900 0.00022977
v -0.00038967 0.00548498 0.00033924
v -0.00019278 0.00524004 0.00069367
v -0.00055375 0.00507744 0.00051645
v -0.00559718 0.00320236 -0.00135344
v -0.00320672 0.00506921 -0.00103644
v -0.00267411 0.00560024 -0.00095514
v -0.00233207 0.00560024 -0.00084674
v -0.00206577 0.00560024 -0.00073656
v -0.00497621 -0.00061367 0.00222838
v -0.00036191 0.00488602 0.00085912
v -0.00054996 0.00454023 0.00104490
v -0.00019405 0.00472136 0.00121392
v -0.00529553 0.00456699 -0.00136770
v -0.00503932 0.00440850 -0.00135700
v -0.00532330 0.00402567 -0.00137234
v -0.00551766 0.00347199 -0.00136520
v -0.00503932 0.00421708 -0.00135700
v 0.00123846 0.00761734 0.00222838
v 0.00124729 0.00750825 0.00222838
v 0.00104914 0.00932570 0.00210715
v 0.00127127 0.00719745 0.00222838
v 0.00122079 0.00666642 0.00204118
v 0.00081565 0.01038982 0.00178908
v -0.00035307 0.01879990 0.00091939
v -0.00032531 0.01879990 0.00097287
v -0.00522737 0.01879990 -0.00118299
v -0.00161014 0.00613333 -0.00059963
v -0.00116335 0.00613333 -0.00038497
v -0.00089705 0.00613333 -0.00023735
v 0.00028051 0.00582047 0.00074680
v -0.00004890 0.00565170 0.00054284
v -0.00054492 0.00613333 -0.00000058
v -0.00024327 0.00613333 0.00021550
v 0.00002304 0.00613333 0.00045548
v 0.00030575 0.00613333 0.00072149
v 0.00016187 0.00546439 0.00087624
v 0.00031711 0.00525857 0.00123104
v -0.00001609 0.00507126 0.00104490
v -0.00513776 0.00386306 -0.00134096
v -0.00427069 0.00453612 -0.00123434
v -0.00373934 0.00506921 -0.00118335
v -0.00320672 0.00560024 -0.00109777
v -0.00267411 0.00613333 -0.00096691
v -0.00229547 0.00613333 -0.00085637
v -0.00202917 0.00613333 -0.00076829
v -0.00038336 0.00436528 0.00143535
v -0.00023948 0.00423149 0.00179051
v -0.00013473 0.00413270 0.00210715
v 0.00016944 0.00435293 0.00222838
v 0.00016187 0.00490455 0.00143001
v -0.00003881 0.00456287 0.00161008
v -0.00480330 0.00506921 -0.00132919
v -0.00427069 0.00506921 -0.00127856
v -0.00480330 0.01879990 -0.00116017
v 0.00131040 0.00666642 0.00222838
v 0.00131797 0.00627741 0.00222838
v 0.00132050 0.00613333 0.00222838
v 0.00122205 0.00613333 0.00203084
v 0.00092419 0.00666230 0.00152806
v 0.00093429 0.00719745 0.00160651
v 0.00085604 0.00932570 0.00172062
v 0.00083584 0.00985673 0.00175413
v 0.00066798 0.01096820 0.00161436
v -0.00055880 0.01879990 0.00059383
v 0.00065662 0.01038982 0.00152272
v 0.00033226 0.01198704 0.00119573
v -0.00214150 0.01879990 -0.00069840
v -0.00116966 0.00666642 -0.00038141
v -0.00090336 0.00666642 -0.00023557
v -0.00054492 0.00666642 0.00000084
v 0.00060740 0.00614568 0.00108983
v 0.00077274 0.00597896 0.00132624
v 0.00069070 0.00560024 0.00144641
v 0.00040672 0.00562494 0.00104918
v -0.00024201 0.00666642 0.00021479
v 0.00002430 0.00666642 0.00045370
v 0.00030701 0.00666642 0.00072006
v 0.00079293 0.00633298 0.00129878
v 0.00079293 0.00532649 0.00182973
v 0.00048119 0.00511449 0.00163005
v -0.00373934 0.00560024 -0.00119975
v -0.00320672 0.00613333 -0.00109635
v -0.00270566 0.01879990 -0.00087990
v -0.00243936 0.01879990 -0.00081180
v -0.00237372 0.01879990 -0.00078684
v 0.00029061 0.00476047 0.00178480
v 0.00013158 0.00438998 0.00210715
v 0.00038779 0.00465550 0.00210715
v 0.00042187 0.00462462 0.00222838
v -0.00427069 0.00560024 -0.00127321
v -0.00427069 0.01879990 -0.00111239
v 0.00129904 0.00592956 0.00222838
v 0.00092545 0.00614568 0.00153199
v 0.00079293 0.00648324 0.00129878
v 0.00069322 0.00932570 0.00145461
v -0.00061938 0.01879990 0.00050005
v 0.00035371 0.01145395 0.00116685
v -0.00204053 0.01879990 -0.00064813
v -0.00158111 0.01879990 -0.00041778
v -0.00138296 0.01879990 -0.00029619
v -0.00135646 0.01877932 -0.00027943
v 0.00122836 0.00572374 0.00222838
v 0.00087118 0.00560024 0.00171277
v -0.00132743 0.01879990 -0.00025375
v -0.00110277 0.01879990 -0.00004729
v 0.00029061 0.00719745 0.00073753
v 0.00061119 0.00666230 0.00108983
v -0.00100559 0.01879990 0.00004506
v -0.00080491 0.01879990 0.00023618
v 0.00086487 0.00522975 0.00210715
v 0.00065410 0.00496218 0.00210715
v 0.00112613 0.00562905 0.00213389
v 0.00115011 0.00559406 0.00222838
v -0.00320672 0.01879990 -0.00097939
v 0.00068691 0.00492307 0.00222838
v -0.00373934 0.01879990 -0.00105142
v -0.00077210 0.01879990 0.00028111
v 0.00089011 0.00518653 0.00222838
f 1 2 3
f 1 3 4
f 1 4 5
f 1 5 6
f 1 6 7
f 1 7 8
f 1 8 19
f 1 19 46
f 1 46 45
f 1 45 78
f 1 78 111
f 1 111 112
f 1 112 154
f 1 154 201
f 1 201 151
f 1 151 200
f 1 200 233
f 1 233 261
f 1 261 288
f 1 288 316
f 1 316 333
f 1 333 356
f 1 356 396
f 1 396 436
f 1 436 462
f 1 462 465
f 1 465 460
f 1 460 449
f 1 449 439
f 1 439 404
f 1 404 403
f 1 403 402
f 1 402 368
f 1 368 366
f 1 366 365
f 1 365 337
f 1 337 317
f 1 317 290
f 1 290 268
f 1 268 244
f 1 244 213
f 1 213 177
f 1 177 176
f 1 176 174
f 1 174 128
f 1 128 127
f 1 127 113
f 1 113 79
f 1 79 48
f 1 48 47
f 1 47 20
f 1 20 9
f 1 9 2
f 2 9 3
f 3 10 5
f 3 5 4
f 3 9 10
f 5 10 6
f 6 11 12
f 6 12 7
f 6 10 13
f 6 13 14
f 6 14 11
f 7 15 16
f 7 16 17
f 7 17 18
f 7 18 19
f 7 19 8
f 7 12 15
f 9 20 10
f 10 20 21
f 10 21 22
f 10 22 23
f 10 23 24
f 10 24 13
f 11 25 26
f 11 26 12
f 11 14 27
f 11 27 28
f 11 28 25
f 12 29 30
f 12 30 15
f 12 26 31
f 12 31 32
f 12 32 33
f 12 33 29
f 13 34 35
f 13 35 36
f 13 36 37
f 13 37 14
f 13 24 23
f 13 23 22
f 13 22 38
f 13 38 39
f 13 39 40
f 13 40 41
f 13 41 34
f 14 37 27
f 15 30 42
f 15 42 16
f 16 42 17
f 17 42 43
f 17 43 44
f 17 44 45
f 17 45 46
f 17 46 19
f 17 19 18
f 20 47 22
f 20 22 21
f 22 47 48
f 22 48 49
f 22 49 50
f 22 50 51
f 22 51 38
f 25 52 54
f 25 54 26
f 25 28 53
f 25 53 52
f 26 54 32
f 26 32 31
f 27 37 55
f 27 55 28
f 28 55 53
f 29 33 56
f 29 56 30
f 30 57 42
f 30 56 57
f 32 54 58
f 32 58 33
f 33 58 56
f 34 41 59
f 34 59 60
f 34 60 35
f 35 60 61
f 35 61 37
f 35 37 36
f 37 61 62
f 37 62 63
f 37 63 64
f 37 64 55
f 38 51 50
f 38 50 39
f 39 50 65
f 39 65 66
f 39 66 67
f 39 67 40
f 40 67 68
f 40 68 69
f 40 69 41
f 41 69 59
f 42 57 70
f 42 70 71
f 42 71 72
f 42 72 73
f 42 73 74
f 42 74 75
f 42 75 43
f 43 75 44
f 44 76 45
f 44 75 77
f 44 77 76
f 45 76 78
f 48 79 49
f 49 80 50
f 49 79 81
f 49 81 80
f 50 80 65
f 52 53 58
f 52 58 54
f 53 55 64
f 53 64 58
f 56 82 57
f 56 58 83
f 56 83 82
f 57 82 70
f 58 64 90
f 58 90 84
f 58 84 83
f 59 69 85
f 59 85 86
f 59 86 60
f 60 86 61
f 61 86 87
f 61 87 88
f 61 88 62
f 62 88 63
f 63 89 90
f 63 90 64
f 63 88 89
f 65 80 66
f 66 81 91
f 66 91 92
f 66 92 93
f 66 93 94
f 66 94 67
f 66 80 81
f 67 94 95
f 67 95 96
f 67 96 97
f 67 97 68
f 68 97 69
f 69 97 85
f 70 98 71
f 70 82 99
f 70 99 98
f 71 98 100
f 71 100 101
f 71 101 102
f 71 102 72
f 72 102 73
f 73 103 104
f 73 104 105
f 73 105 106
f 73 106 75
f 73 75 74
f 73 102 103
f 75 106 105
f 75 105 107
f 75 107 108
f 75 108 109
f 75 109 77
f 76 77 110
f 76 110 111
f 76 111 78
f 77 109 112
f 77 112 110
f 79 113 91
f 79 91 81
f 82 83 114
f 82 114 115
f 82 115 116
f 82 116 99
f 83 84 114
f 84 90 117
f 84 117 118
f 84 118 119
f 84 119 120
f 84 120 121
f 84 121 114
f 85 97 122
f 85 122 86
f 86 122 123
f 86 123 124
f 86 124 87
f 87 124 88
f 88 124 125
f 88 125 126
f 88 126 89
f 89 126 90
f 90 126 117
f 91 113 127
f 91 127 128
f 91 128 129
f 91 129 92
f 92 129 130
f 92 130 131
f 92 131 132
f 92 132 133
f 92 133 93
f 93 133 134
f 93 134 94
f 94 134 95
f 95 134 135
f 95 135 136
f 95 136 137
f 95 137 181
f 95 181 131
f 95 131 180
f 95 180 213
f 95 213 244
f 95 244 269
f 95 269 294
f 95 294 293
f 95 293 292
f 95 292 319
f 95 319 340
f 95 340 372
f 95 372 371
f 95 371 411
f 95 411 443
f 95 443 464
f 95 464 456
f 95 456 455
f 95 455 452
f 95 452 451
f 95 451 447
f 95 447 446
f 95 446 445
f 95 445 414
f 95 414 432
f 95 432 431
f 95 431 430
f 95 430 461
f 95 461 463
f 95 463 438
f 95 438 401
f 95 401 373
f 95 373 341
f 95 341 321
f 95 321 299
f 95 299 272
f 95 272 275
f 95 275 274
f 95 274 289
f 95 289 262
f 95 262 243
f 95 243 211
f 95 211 210
f 95 210 209
f 95 209 162
f 95 162 169
f 95 169 168
f 95 168 122
f 95 122 97
f 95 97 96
f 98 138 100
f 98 99 139
f 98 139 138
f 99 140 141
f 99 141 139
f 99 116 142
f 99 142 140
f 100 138 143
f 100 143 144
f 100 144 145
f 100 145 146
f 100 146 147
f 100 147 148
f 100 148 101
f 101 148 102
f 102 148 103
f 103 148 149
f 103 149 104
f 104 149 150
f 104 150 105
f 105 150 151
f 105 151 152
f 105 152 107
f 107 109 108
f 107 152 109
f 109 152 153
f 109 153 154
f 109 154 112
f 110 112 111
f 114 155 156
f 114 156 157
f 114 157 115
f 114 121 155
f 115 157 116
f 116 157 158
f 116 158 159
f 116 159 160
f 116 160 142
f 117 126 161
f 117 161 162
f 117 162 163
f 117 163 164
f 117 164 165
f 117 165 166
f 117 166 118
f 118 166 167
f 118 167 119
f 119 167 120
f 120 167 121
f 121 167 155
f 122 168 123
f 123 168 169
f 123 169 170
f 123 170 124
f 124 170 171
f 124 171 125
f 125 171 162
f 125 162 172
f 125 172 126
f 126 172 173
f 126 173 161
f 128 174 175
f 128 175 129
f 129 175 130
f 130 175 174
f 130 174 176
f 130 176 177
f 130 177 178
f 130 178 131
f 131 178 179
f 131 179 180
f 131 181 132
f 132 181 136
f 132 136 133
f 133 136 135
f 133 135 134
f 136 181 137
f 138 139 182
f 138 182 143
f 139 141 183
f 139 183 184
f 139 184 185
f 139 185 186
f 139 186 182
f 140 142 187
f 140 187 141
f 141 187 183
f 142 160 187
f 143 182 188
f 143 188 144
f 144 189 145
f 144 188 190
f 144 190 189
f 145 191 192
f 145 192 193
f 145 193 194
f 145 194 146
f 145 189 195
f 145 195 191
f 146 194 147
f 147 194 148
f 148 194 196
f 148 196 149
f 149 196 197
f 149 197 198
f 149 198 199
f 149 199 151
f 149 151 150
f 151 201 152
f 151 199 200
f 152 201 153
f 153 201 154
f 155 202 156
f 155 167 203
f 155 203 204
f 155 204 202
f 156 202 158
f 156 158 157
f 158 205 206
f 158 206 159
f 158 202 207
f 158 207 208
f 158 208 205
f 159 206 187
f 159 187 160
f 161 173 162
f 162 173 172
f 162 171 170
f 162 170 169
f 162 209 163
f 163 209 210
f 163 210 164
f 164 210 211
f 164 211 212
f 164 212 203
f 164 203 165
f 165 203 166
f 166 203 167
f 177 213 180
f 177 180 179
f 177 179 178
f 182 186 214
f 182 214 215
f 182 215 188
f 183 214 184
f 183 187 216
f 183 216 217
f 183 217 214
f 184 214 185
f 185 214 186
f 187 206 216
f 188 215 218
f 188 218 219
f 188 219 190
f 189 190 220
f 189 220 195
f 190 219 221
f 190 221 220
f 191 195 222
f 191 222 223
f 191 223 192
f 192 224 225
f 192 225 193
f 192 223 224
f 193 225 226
f 193 226 227
f 193 227 228
f 193 228 229
f 193 229 194
f 194 229 198
f 194 198 196
f 195 220 230
f 195 230 222
f 196 198 197
f 198 231 199
f 198 229 231
f 199 231 200
f 200 232 233
f 200 231 227
f 200 227 232
f 202 204 234
f 202 234 207
f 203 212 235
f 203 235 236
f 203 236 237
f 203 237 204
f 204 237 211
f 204 211 234
f 205 208 238
f 205 238 239
f 205 239 240
f 205 240 241
f 205 241 206
f 206 241 242
f 206 242 216
f 207 234 243
f 207 243 208
f 208 243 238
f 211 237 236
f 211 236 235
f 211 235 212
f 211 243 234
f 214 217 245
f 214 245 246
f 214 246 215
f 215 246 247
f 215 247 218
f 216 242 245
f 216 245 217
f 218 221 219
f 218 247 221
f 220 221 248
f 220 248 230
f 221 249 248
f 221 247 250
f 221 250 251
f 221 251 252
f 221 252 253
f 221 253 249
f 222 254 255
f 222 255 223
f 222 230 256
f 222 256 254
f 223 255 224
f 224 257 258
f 224 258 225
f 224 255 257
f 225 258 259
f 225 259 232
f 225 232 227
f 225 227 226
f 227 231 228
f 228 231 229
f 230 248 260
f 230 260 256
f 232 259 261
f 232 261 233
f 238 243 262
f 238 262 239
f 239 262 240
f 240 262 241
f 241 263 242
f 241 262 263
f 242 264 245
f 242 263 265
f 242 265 266
f 242 266 267
f 242 267 264
f 244 268 269
f 245 264 246
f 246 264 250
f 246 250 247
f 248 249 270
f 248 270 271
f 248 271 260
f 249 253 272
f 249 272 270
f 250 264 273
f 250 273 251
f 251 273 274
f 251 274 275
f 251 275 272
f 251 272 252
f 252 272 253
f 254 276 255
f 254 256 277
f 254 277 278
f 254 278 276
f 255 276 279
f 255 279 257
f 256 260 271
f 256 271 280
f 256 280 281
f 256 281 277
f 257 279 282
f 257 282 283
f 257 283 258
f 258 283 284
f 258 284 259
f 259 284 285
f 259 285 286
f 259 286 287
f 259 287 288
f 259 288 261
f 262 289 265
f 262 265 263
f 264 267 274
f 264 274 273
f 265 267 266
f 265 289 267
f 267 289 274
f 268 290 291
f 268 291 292
f 268 292 293
f 268 293 294
f 268 294 269
f 270 295 296
f 270 296 297
f 270 297 271
f 270 272 298
f 270 298 299
f 270 299 295
f 271 297 300
f 271 300 301
f 271 301 280
f 272 299 298
f 276 278 302
f 276 302 303
f 276 303 304
f 276 304 305
f 276 305 279
f 277 281 306
f 277 306 307
f 277 307 308
f 277 308 309
f 277 309 302
f 277 302 278
f 279 305 310
f 279 310 311
f 279 311 312
f 279 312 313
f 279 313 282
f 280 301 314
f 280 314 315
f 280 315 306
f 280 306 281
f 282 313 288
f 282 288 283
f 283 288 287
f 283 287 284
f 284 287 285
f 285 287 286
f 288 313 312
f 288 312 316
f 290 317 291
f 291 317 318
f 291 318 319
f 291 319 292
f 295 320 300
f 295 300 296
f 295 299 320
f 296 300 297
f 299 321 300
f 299 300 322
f 299 322 320
f 300 323 314
f 300 314 301
f 300 320 322
f 300 321 323
f 302 324 303
f 302 309 325
f 302 325 326
f 302 326 327
f 302 327 324
f 303 324 304
f 304 324 305
f 305 324 328
f 305 328 310
f 306 315 329
f 306 329 307
f 307 330 308
f 307 329 331
f 307 331 332
f 307 332 330
f 308 330 309
f 309 330 332
f 309 332 325
f 310 328 311
f 311 333 316
f 311 316 312
f 311 328 333
f 314 323 334
f 314 334 335
f 314 335 336
f 314 336 315
f 315 336 329
f 317 337 318
f 318 337 338
f 318 338 339
f 318 339 340
f 318 340 319
f 321 341 334
f 321 334 323
f 324 342 333
f 324 333 328
f 324 327 343
f 324 343 342
f 325 332 331
f 325 331 344
f 325 344 345
f 325 345 346
f 325 346 326
f 326 346 347
f 326 347 348
f 326 348 349
f 326 349 350
f 326 350 327
f 327 350 343
f 329 336 351
f 329 351 331
f 331 352 353
f 331 353 354
f 331 354 355
f 331 355 344
f 331 351 352
f 333 342 343
f 333 343 357
f 333 357 358
f 333 358 359
f 333 359 356
f 334 360 361
f 334 361 362
f 334 362 335
f 334 341 360
f 335 363 336
f 335 362 364
f 335 364 363
f 336 363 351
f 337 365 338
f 338 365 366
f 338 366 367
f 338 367 339
f 339 367 366
f 339 366 368
f 339 368 369
f 339 369 370
f 339 370 371
f 339 371 372
f 339 372 340
f 341 373 361
f 341 361 360
f 343 350 357
f 344 347 345
f 344 355 374
f 344 374 375
f 344 375 376
f 344 376 347
f 345 347 346
f 347 377 378
f 347 378 348
f 347 376 379
f 347 379 380
f 347 380 381
f 347 381 382
f 347 382 377
f 348 378 349
f 349 378 383
f 349 383 384
f 349 384 385
f 349 385 357
f 349 357 350
f 351 363 386
f 351 386 387
f 351 387 352
f 352 387 388
f 352 388 353
f 353 388 389
f 353 389 390
f 353 390 391
f 353 391 354
f 354 391 392
f 354 392 374
f 354 374 355
f 356 359 393
f 356 393 394
f 356 394 395
f 356 395 396
f 357 385 359
f 357 359 358
f 359 385 397
f 359 397 398
f 359 398 393
f 361 399 400
f 361 400 364
f 361 364 362
f 361 373 401
f 361 401 399
f 363 364 386
f 364 400 388
f 364 388 386
f 368 402 369
f 369 402 403
f 369 403 404
f 369 404 405
f 369 405 406
f 369 406 407
f 369 407 408
f 369 408 409
f 369 409 370
f 370 409 410
f 370 410 371
f 371 410 412
f 371 412 413
f 371 413 411
f 374 392 414
f 374 414 375
f 375 414 415
f 375 415 416
f 375 416 376
f 376 416 417
f 376 417 379
f 377 382 418
f 377 418 419
f 377 419 420
f 377 420 421
f 377 421 383
f 377 383 378
f 379 417 422
f 379 422 380
f 380 422 423
f 380 423 381
f 381 423 382
f 382 423 424
f 382 424 425
f 382 425 418
f 383 421 384
f 384 426 427
f 384 427 397
f 384 397 385
f 384 421 420
f 384 420 426
f 386 388 387
f 388 400 428
f 388 428 389
f 389 428 429
f 389 429 390
f 390 429 430
f 390 430 431
f 390 431 391
f 391 431 392
f 392 431 432
f 392 432 414
f 393 398 394
f 394 398 433
f 394 433 434
f 394 434 395
f 395 434 396
f 396 434 435
f 396 435 436
f 397 427 433
f 397 433 398
f 399 437 400
f 399 401 438
f 399 438 437
f 400 437 428
f 404 439 405
f 405 440 425
f 405 425 441
f 405 441 406
f 405 439 419
f 405 419 440
f 406 441 442
f 406 442 408
f 406 408 407
f 408 442 412
f 408 412 410
f 408 410 409
f 411 413 444
f 411 444 443
f 412 442 413
f 413 442 444
f 414 445 415
f 415 445 446
f 415 446 416
f 416 446 447
f 416 447 448
f 416 448 417
f 417 448 422
f 418 425 419
f 419 439 449
f 419 449 450
f 419 450 420
f 419 425 440
f 420 450 426
f 422 448 451
f 422 451 423
f 423 451 452
f 423 452 424
f 424 453 454
f 424 454 441
f 424 441 425
f 424 452 455
f 424 455 456
f 424 456 453
f 426 457 458
f 426 458 433
f 426 433 427
f 426 450 459
f 426 459 460
f 426 460 457
f 428 437 461
f 428 461 429
f 429 461 430
f 433 458 435
f 433 435 434
f 435 458 462
f 435 462 436
f 437 438 463
f 437 463 461
f 441 454 456
f 441 456 464
f 441 464 443
f 441 443 444
f 441 444 442
f 447 451 448
f 449 460 459
f 449 459 450
f 453 456 454
f 457 465 462
f 457 462 458
f 457 460 465

