# https://github.com/mikedh/trimesh
v 0.00090916 0.01566370 0.00503853
v 0.00102970 0.01491093 0.00503853
v 0.00089833 0.01566370 0.00481708
v -0.01078935 0.01566370 0.00503853
v 0.00111366 0.01437877 0.00503853
v 0.00097282 0.01518004 0.00476866
v 0.00089562 0.01566370 0.00476866
v -0.01077445 0.01566370 0.00476866
v -0.01080966 0.01545036 0.00503853
v 0.00113940 0.01411573 0.00476866
v 0.00105678 0.01464788 0.00476866
v 0.00119628 0.01384541 0.00503853
v 0.00107710 0.01411573 0.00423634
v 0.00084009 0.01566370 0.00440442
v -0.01081914 0.01518004 0.00476866
v -0.01093697 0.01400057 0.00488200
v -0.01091800 0.01431089 0.00503853
v -0.01077038 0.01566370 0.00471996
v 0.00126264 0.01340417 0.00503853
v 0.00121930 0.01358357 0.00476866
v 0.00116107 0.01358357 0.00423634
v 0.00106626 0.01358357 0.00370402
v 0.00083061 0.01566370 0.00436068
v -0.01126064 0.00985728 0.00423634
v -0.01095863 0.01362236 0.00473014
v -0.01101416 0.01305142 0.00476866
v -0.01130534 0.00985728 0.00476866
v -0.01124846 0.01065975 0.00503853
v -0.01072569 0.01566370 0.00423634
v -0.01077038 0.01518004 0.00423634
v 0.00132223 0.01299323 0.00503853
v 0.00133035 0.01288292 0.00491529
v 0.00128972 0.01305748 0.00475023
v 0.00115023 0.01305142 0.00370402
v 0.00131139 0.01273746 0.00456041
v 0.00136286 0.01200772 0.00421378
v 0.00131139 0.01219924 0.00402121
v 0.00103105 0.01305142 0.00317198
v 0.00078592 0.01331931 0.00237253
v 0.00067216 0.01346235 0.00222838
v 0.00042703 0.01388662 0.00222838
v 0.00054215 0.01566370 0.00409054
v -0.01120376 0.00985728 0.00370402
v -0.01146514 0.00703407 0.00389219
v -0.01157620 0.00613341 0.00423634
v -0.01145160 0.00793837 0.00456728
v -0.01135003 0.00932634 0.00476866
v -0.01146379 0.00809111 0.00492216
v -0.01129586 0.01012760 0.00503853
v -0.01072028 0.01566370 0.00418765
v 0.00133442 0.01290838 0.00503853
v 0.00135473 0.01276655 0.00503853
v 0.00143464 0.01198711 0.00476866
v 0.00133442 0.01184407 0.00388008
v 0.00128160 0.01200772 0.00370319
v 0.00130191 0.01158587 0.00352548
v 0.00143464 0.01145496 0.00423634
v 0.00132223 0.01123070 0.00342067
v 0.00080082 0.01305142 0.00233485
v 0.00075748 0.01305142 0.00222838
v 0.00124097 0.01142707 0.00321489
v 0.00126264 0.01092280 0.00309852
v 0.00106897 0.01145496 0.00263966
v 0.00036609 0.01394238 0.00222838
v 0.00052860 0.01566370 0.00407788
v -0.01112386 0.00985728 0.00317198
v -0.01145837 0.00643767 0.00342067
v -0.01144348 0.00679163 0.00353758
v -0.01152067 0.00613341 0.00370402
v -0.01066204 0.01566370 0.00370402
v -0.01091530 0.01269261 0.00351448
v -0.01093155 0.01233865 0.00339618
v -0.01156536 0.00560004 0.00370402
v -0.01162089 0.00560004 0.00423634
v -0.01166287 0.00560004 0.00476866
v -0.01161818 0.00613341 0.00476866
v -0.01165475 0.00587036 0.00503853
v -0.01146650 0.00812141 0.00503853
v 0.00145360 0.01198711 0.00503853
v 0.00149964 0.01145496 0.00476866
v 0.00135338 0.01142707 0.00370319
v 0.00149287 0.01092280 0.00423634
v 0.00140755 0.01092280 0.00370402
v 0.00145901 0.01038943 0.00370402
v 0.00156059 0.00932634 0.00370402
v 0.00133848 0.01092280 0.00336482
v 0.00083061 0.01251926 0.00226360
v 0.00081572 0.01251926 0.00222838
v 0.00130868 0.01002335 0.00294062
v 0.00112314 0.01092280 0.00263966
v -0.00259443 0.01566370 0.00222838
v -0.01101416 0.00985728 0.00263966
v -0.01110761 0.00879418 0.00263966
v -0.01116991 0.00932634 0.00317198
v -0.01082456 0.01305142 0.00317198
v -0.01091530 0.01163557 0.00295080
v -0.01093155 0.01128040 0.00287019
v -0.01147192 0.00613341 0.00335079
v -0.01121595 0.00879418 0.00317198
v -0.01057401 0.01566370 0.00317198
v -0.01062141 0.01518004 0.00317198
v -0.01077445 0.01358357 0.00317198
v -0.01172382 0.00347142 0.00370402
v -0.01166287 0.00506789 0.00423634
v -0.01167642 0.00560004 0.00503853
v -0.01170486 0.00506789 0.00476866
v 0.00151454 0.01145496 0.00503853
v 0.00155381 0.01092280 0.00476866
v 0.00171498 0.00932634 0.00476866
v 0.00165268 0.00932634 0.00423634
v 0.00185176 0.00641706 0.00396014
v 0.00160528 0.00879418 0.00370402
v 0.00143464 0.00932634 0.00317198
v 0.00136421 0.01038943 0.00327074
v 0.00138046 0.00985122 0.00313979
v 0.00087395 0.01194953 0.00222838
v 0.00084551 0.01223803 0.00222838
v 0.00132494 0.00966939 0.00288395
v 0.00123555 0.00985122 0.00267982
v 0.00117190 0.01038943 0.00263966
v 0.00093083 0.01135798 0.00222838
v -0.01034378 0.01566370 0.00222838
v -0.01096541 0.01034943 0.00262865
v -0.01092613 0.01014457 0.00236621
v -0.01115365 0.00826203 0.00263966
v -0.01050494 0.01518004 0.00263966
v -0.01142316 0.00613341 0.00308477
v -0.01149359 0.00560004 0.00323442
v -0.01130534 0.00772987 0.00317198
v -0.01133649 0.00613341 0.00263966
v -0.01045077 0.01566370 0.00261242
v -0.01163714 0.00347142 0.00317198
v -0.01173736 0.00328232 0.00370402
v -0.01178070 0.00347142 0.00423634
v -0.01183893 0.00328232 0.00476866
v -0.01169673 0.00533821 0.00503853
v -0.01185248 0.00328232 0.00503853
v -0.01173736 0.00480605 0.00503853
v 0.00173123 0.00932634 0.00503853
v 0.00175696 0.00905602 0.00503853
v 0.00185312 0.00802444 0.00503853
v 0.00176373 0.00879418 0.00476866
v 0.00186801 0.00710074 0.00441103
v 0.00188156 0.00662314 0.00423469
v 0.00188968 0.00615159 0.00419535
v 0.00185176 0.00634191 0.00396014
v 0.00180301 0.00615159 0.00375106
v 0.00166080 0.00613341 0.00317198
v 0.00164997 0.00666556 0.00317198
v 0.00179353 0.00662314 0.00375106
v 0.00133848 0.00932634 0.00284571
v 0.00131952 0.00747895 0.00237116
v 0.00124503 0.00932634 0.00257969
v 0.00147391 0.00666556 0.00263966
v 0.00102157 0.01027549 0.00222838
v -0.01034784 0.01562855 0.00222838
v -0.01039795 0.01551582 0.00235273
v -0.01043723 0.01566370 0.00255905
v -0.01044535 0.01566370 0.00258849
v -0.01089498 0.01001608 0.00222838
v -0.01095593 0.00932634 0.00222838
v -0.01121324 0.00625342 0.00222838
v -0.01144483 0.00560004 0.00296840
v -0.01150848 0.00511395 0.00312163
v -0.01155995 0.00453573 0.00317198
v -0.01144483 0.00411753 0.00242755
v -0.01137982 0.00560004 0.00263966
v -0.01165068 0.00328232 0.00317198
v -0.01145431 0.00532245 0.00291063
v -0.01146785 0.00496727 0.00284598
v -0.01179424 0.00328232 0.00423634
v -0.00148931 0.00328232 0.00503853
v 0.00196282 0.00666556 0.00503853
v 0.00194386 0.00666556 0.00476866
v 0.00184905 0.00745592 0.00451171
v 0.00196282 0.00613341 0.00476866
v 0.00188020 0.00578914 0.00434555
v 0.00184634 0.00598673 0.00399067
v 0.00166351 0.00560004 0.00370402
v 0.00139807 0.00570793 0.00263966
v 0.00133848 0.00582430 0.00232962
v 0.00148745 0.00613341 0.00263966
v 0.00134931 0.00666556 0.00230789
v 0.00131139 0.00666556 0.00222838
v 0.00127076 0.00719772 0.00222838
v 0.00123826 0.00761714 0.00222838
v 0.00106762 0.00972151 0.00222838
v -0.01125658 0.00572126 0.00222838
v -0.01145702 0.00376235 0.00236841
v -0.01154505 0.00328232 0.00263966
v -0.01149359 0.00396479 0.00261902
v -0.01142993 0.00453573 0.00250238
v -0.01141910 0.00511395 0.00265699
v -0.00001312 0.00328232 0.00479837
v -0.00001312 0.00351749 0.00503853
v 0.00198313 0.00613341 0.00503853
v 0.00190458 0.00572490 0.00476866
v 0.00179082 0.00545943 0.00476866
v 0.00065726 0.00328232 0.00370402
v 0.00177050 0.00560732 0.00419535
v 0.00148339 0.00555277 0.00312713
v 0.00052996 0.00328232 0.00317198
v 0.00122878 0.00572247 0.00222838
v 0.00129920 0.00592855 0.00222838
v 0.00135473 0.00613341 0.00229743
v 0.00131817 0.00627645 0.00222838
v -0.01140014 0.00389691 0.00222838
v -0.01146785 0.00347142 0.00233787
v -0.01147462 0.00328232 0.00231806
v 0.00043516 0.00328232 0.00468778
v 0.00011012 0.00354900 0.00503853
v 0.00191271 0.00570308 0.00503853
v 0.00180165 0.00543640 0.00503853
v 0.00065185 0.00328232 0.00422671
v 0.00034036 0.00328232 0.00288697
v 0.00115023 0.00559398 0.00222838
v 0.00030108 0.00328232 0.00284406
v 0.00131952 0.00613341 0.00222838
v -0.01144348 0.00329081 0.00222838
v -0.01144348 0.00328232 0.00222838
v 0.00134661 0.00476484 0.00503853
v 0.00114075 0.00452482 0.00503853
v 0.00085499 0.00419753 0.00503853
v 0.00031056 0.00362659 0.00503853
v 0.00168789 0.00526063 0.00503853
v 0.00154569 0.00504486 0.00503853
v 0.00018461 0.00328232 0.00272081
v 0.00089020 0.00518547 0.00222838
v -0.00153672 0.00328232 0.00222838
v 0.00016971 0.00435269 0.00222838
v 0.00042161 0.00462422 0.00222838
v 0.00068706 0.00492242 0.00222838
v -0.00031513 0.00328232 0.00252577
v -0.00046410 0.00375144 0.00222838
v -0.00140670 0.00331020 0.00222838
v -0.00091238 0.00350537 0.00222838
v -0.00065100 0.00361204 0.00222838
f 1 2 3
f 1 3 7
f 1 7 14
f 1 14 23
f 1 23 42
f 1 42 65
f 1 65 91
f 1 91 122
f 1 122 158
f 1 158 159
f 1 159 131
f 1 131 100
f 1 100 70
f 1 70 50
f 1 50 29
f 1 29 18
f 1 18 8
f 1 8 4
f 1 4 9
f 1 9 17
f 1 17 28
f 1 28 49
f 1 49 78
f 1 78 77
f 1 77 105
f 1 105 136
f 1 136 138
f 1 138 137
f 1 137 172
f 1 172 195
f 1 195 211
f 1 211 224
f 1 224 223
f 1 223 222
f 1 222 221
f 1 221 226
f 1 226 225
f 1 225 213
f 1 213 212
f 1 212 196
f 1 196 173
f 1 173 141
f 1 141 140
f 1 140 139
f 1 139 107
f 1 107 79
f 1 79 52
f 1 52 51
f 1 51 31
f 1 31 19
f 1 19 12
f 1 12 5
f 1 5 2
f 2 5 11
f 2 11 6
f 2 6 3
f 3 6 7
f 4 8 9
f 5 10 11
f 5 12 10
f 6 11 21
f 6 21 13
f 6 13 7
f 7 13 14
f 8 15 16
f 8 16 17
f 8 17 9
f 8 18 15
f 10 12 19
f 10 19 20
f 10 20 21
f 10 21 11
f 13 21 34
f 13 34 22
f 13 22 14
f 14 22 23
f 15 18 24
f 15 24 25
f 15 25 16
f 16 25 26
f 16 26 27
f 16 27 28
f 16 28 17
f 18 29 30
f 18 30 24
f 19 31 32
f 19 32 20
f 20 32 33
f 20 33 21
f 21 33 35
f 21 35 36
f 21 36 37
f 21 37 34
f 22 34 38
f 22 38 39
f 22 39 23
f 23 39 40
f 23 40 41
f 23 41 42
f 24 43 44
f 24 44 45
f 24 45 46
f 24 46 27
f 24 27 26
f 24 26 25
f 24 30 43
f 27 46 47
f 27 47 48
f 27 48 49
f 27 49 28
f 29 50 43
f 29 43 30
f 31 51 32
f 32 51 52
f 32 52 53
f 32 53 33
f 33 53 35
f 34 37 54
f 34 54 55
f 34 55 56
f 34 56 38
f 35 53 36
f 36 53 57
f 36 57 37
f 37 57 54
f 38 56 58
f 38 58 39
f 39 59 60
f 39 60 40
f 39 58 61
f 39 61 62
f 39 62 63
f 39 63 59
f 40 60 88
f 40 88 117
f 40 117 116
f 40 116 121
f 40 121 155
f 40 155 187
f 40 187 186
f 40 186 185
f 40 185 184
f 40 184 206
f 40 206 218
f 40 218 204
f 40 204 203
f 40 203 216
f 40 216 228
f 40 228 232
f 40 232 231
f 40 231 230
f 40 230 234
f 40 234 237
f 40 237 236
f 40 236 235
f 40 235 229
f 40 229 220
f 40 220 219
f 40 219 207
f 40 207 188
f 40 188 162
f 40 162 161
f 40 161 160
f 40 160 156
f 40 156 122
f 40 122 91
f 40 91 64
f 40 64 41
f 41 64 65
f 41 65 42
f 43 66 67
f 43 67 68
f 43 68 69
f 43 69 44
f 43 50 70
f 43 70 71
f 43 71 72
f 43 72 66
f 44 69 73
f 44 73 74
f 44 74 45
f 45 74 46
f 46 74 75
f 46 75 76
f 46 76 47
f 47 76 48
f 48 76 75
f 48 75 77
f 48 77 78
f 48 78 49
f 52 79 53
f 53 79 80
f 53 80 57
f 54 81 56
f 54 56 55
f 54 57 81
f 56 81 58
f 57 80 82
f 57 82 81
f 58 81 83
f 58 83 84
f 58 84 85
f 58 85 86
f 58 86 62
f 58 62 61
f 59 87 60
f 59 63 87
f 60 87 88
f 62 86 89
f 62 89 63
f 63 89 90
f 63 90 87
f 64 91 65
f 66 92 93
f 66 93 94
f 66 94 67
f 66 72 95
f 66 95 96
f 66 96 97
f 66 97 92
f 67 98 73
f 67 73 69
f 67 69 68
f 67 94 99
f 67 99 98
f 70 100 101
f 70 101 72
f 70 72 71
f 72 101 102
f 72 102 95
f 73 103 104
f 73 104 74
f 73 98 103
f 74 104 106
f 74 106 75
f 75 105 77
f 75 106 105
f 79 107 80
f 80 107 139
f 80 139 108
f 80 108 82
f 81 82 83
f 82 108 109
f 82 109 110
f 82 110 83
f 83 110 84
f 84 110 85
f 85 110 111
f 85 111 112
f 85 112 113
f 85 113 114
f 85 114 86
f 86 114 115
f 86 115 89
f 87 116 117
f 87 117 88
f 87 90 116
f 89 118 90
f 89 115 118
f 90 118 119
f 90 119 120
f 90 120 121
f 90 121 116
f 92 97 123
f 92 123 124
f 92 124 93
f 93 125 99
f 93 99 94
f 93 124 125
f 95 102 96
f 96 102 101
f 96 101 126
f 96 126 97
f 97 126 124
f 97 124 123
f 98 127 163
f 98 163 128
f 98 128 103
f 98 99 129
f 98 129 127
f 99 125 130
f 99 130 127
f 99 127 129
f 100 131 126
f 100 126 101
f 103 132 168
f 103 168 133
f 103 133 171
f 103 171 134
f 103 134 104
f 103 128 132
f 104 134 135
f 104 135 106
f 105 106 136
f 106 135 137
f 106 137 138
f 106 138 136
f 108 139 109
f 109 139 140
f 109 140 141
f 109 141 142
f 109 142 110
f 110 142 143
f 110 143 144
f 110 144 111
f 111 144 145
f 111 145 146
f 111 146 147
f 111 147 148
f 111 148 149
f 111 149 150
f 111 150 112
f 112 150 113
f 113 115 114
f 113 150 149
f 113 149 118
f 113 118 115
f 118 151 152
f 118 152 153
f 118 153 119
f 118 149 154
f 118 154 151
f 119 153 121
f 119 121 120
f 121 153 152
f 121 152 155
f 122 156 157
f 122 157 158
f 124 126 159
f 124 159 157
f 124 157 156
f 124 156 160
f 124 160 161
f 124 161 162
f 124 162 130
f 124 130 125
f 126 131 159
f 127 130 163
f 128 163 164
f 128 164 165
f 128 165 132
f 130 162 166
f 130 166 167
f 130 167 163
f 132 165 169
f 132 169 170
f 132 170 168
f 133 168 190
f 133 190 209
f 133 209 220
f 133 220 229
f 133 229 233
f 133 233 227
f 133 227 217
f 133 217 215
f 133 215 202
f 133 202 199
f 133 199 214
f 133 214 210
f 133 210 194
f 133 194 172
f 133 172 137
f 133 137 135
f 133 135 171
f 134 171 135
f 141 173 174
f 141 174 142
f 142 174 175
f 142 175 143
f 143 175 174
f 143 174 144
f 144 174 176
f 144 176 145
f 145 176 177
f 145 177 178
f 145 178 146
f 146 178 147
f 147 178 148
f 148 179 180
f 148 180 181
f 148 181 182
f 148 182 149
f 148 178 179
f 149 182 154
f 151 154 152
f 152 154 183
f 152 183 184
f 152 184 185
f 152 185 186
f 152 186 187
f 152 187 155
f 154 182 183
f 157 159 158
f 162 188 189
f 162 189 166
f 163 169 165
f 163 165 164
f 163 167 169
f 166 189 190
f 166 190 191
f 166 191 170
f 166 170 192
f 166 192 167
f 167 192 193
f 167 193 170
f 167 170 169
f 168 170 191
f 168 191 190
f 170 193 192
f 172 194 195
f 173 196 174
f 174 196 176
f 176 196 197
f 176 197 177
f 177 197 198
f 177 198 199
f 177 199 200
f 177 200 179
f 177 179 178
f 179 201 180
f 179 200 199
f 179 199 202
f 179 202 201
f 180 201 202
f 180 202 181
f 181 203 204
f 181 204 205
f 181 205 182
f 181 202 203
f 182 205 183
f 183 205 184
f 184 205 206
f 188 207 189
f 189 207 208
f 189 208 190
f 190 208 209
f 194 210 195
f 195 210 211
f 196 212 197
f 197 212 213
f 197 213 198
f 198 213 199
f 199 213 214
f 202 215 203
f 203 215 217
f 203 217 216
f 204 218 205
f 205 218 206
f 207 219 208
f 208 219 209
f 209 219 220
f 210 214 221
f 210 221 222
f 210 222 223
f 210 223 224
f 210 224 211
f 213 225 214
f 214 225 226
f 214 226 221
f 216 217 227
f 216 227 228
f 227 230 231
f 227 231 232
f 227 232 228
f 227 233 234
f 227 234 230
f 229 235 233
f 233 235 236
f 233 236 237
f 233 237 234

