# https://github.com/mikedh/trimesh
v 0.00075399 0.03138424 0.01335592
v 0.00075399 0.03115024 0.01335592
v 0.00105297 0.03168442 0.01333887
v 0.00075399 0.03168442 0.01335450
v 0.00075399 0.03085243 0.01335307
v 0.00105297 0.03115024 0.01333887
v 0.00105297 0.03221623 0.01333460
v 0.00158471 0.03274567 0.01329908
v 0.00105297 0.03274567 0.01333034
v 0.00075399 0.03244550 0.01334597
v 0.00075399 0.03061843 0.01334881
v 0.00105297 0.03061843 0.01332892
v 0.00158471 0.03115024 0.01328772
v 0.00158471 0.03168442 0.01329340
v 0.00158471 0.03221623 0.01329766
v 0.00211707 0.03274567 0.01324367
v 0.00211707 0.03327749 0.01324509
v 0.00158471 0.03327749 0.01329340
v 0.00075399 0.03274567 0.01334171
v 0.00105297 0.03327749 0.01331898
v 0.00075399 0.03297967 0.01333745
v 0.00075399 0.03032062 0.01334313
v 0.00075399 0.02978644 0.01332608
v 0.00105297 0.03008662 0.01331187
v 0.00211707 0.03168442 0.01322378
v 0.00211707 0.03221623 0.01323657
v 0.00158471 0.03061843 0.01327067
v 0.00264943 0.03327749 0.01316695
v 0.00264943 0.03380930 0.01316695
v 0.00211707 0.03380930 0.01323657
v 0.00211707 0.03434347 0.01321810
v 0.00158471 0.03380930 0.01327493
v 0.00075399 0.03327749 0.01333034
v 0.00105297 0.03380930 0.01329766
v 0.00075399 0.03351148 0.01332182
v 0.00075399 0.02955481 0.01331755
v 0.00075399 0.02925463 0.01330619
v 0.00105297 0.02955481 0.01329056
v 0.00264943 0.03221623 0.01313143
v 0.00264943 0.03274567 0.01315132
v 0.00211707 0.03115024 0.01320247
v 0.00105297 0.02902300 0.01326214
v 0.00158471 0.03008662 0.01324083
v 0.00309916 0.03327749 0.01306891
v 0.00313449 0.03380930 0.01307175
v 0.00315467 0.03434347 0.01306749
v 0.00315089 0.03487528 0.01306607
v 0.00314332 0.03540709 0.01306181
v 0.00264943 0.03487528 0.01314848
v 0.00264943 0.03540709 0.01313427
v 0.00211707 0.03540709 0.01317547
v 0.00105297 0.03540709 0.01322946
v 0.00075399 0.03487528 0.01326498
v 0.00075399 0.02872282 0.01328203
v 0.00264943 0.03168442 0.01311011
v 0.00211707 0.03061843 0.01317121
v 0.00075399 0.02819101 0.01325220
v 0.00105297 0.02848882 0.01322662
v 0.00158471 0.02955481 0.01320815
v 0.00292697 0.03137242 0.01302202
v 0.00336534 0.03327749 0.01299503
v 0.00340067 0.03380930 0.01300639
v 0.00342022 0.03434347 0.01301208
v 0.00341644 0.03487528 0.01301208
v 0.00340950 0.03540709 0.01301066
v 0.00336787 0.03593890 0.01300639
v 0.00310169 0.03593890 0.01304760
v 0.00264943 0.03593890 0.01310443
v 0.00211707 0.03593890 0.01314564
v 0.00158471 0.03593890 0.01317405
v 0.00075399 0.03564109 0.01322520
v 0.00075399 0.03540709 0.01323941
v 0.00075399 0.03510692 0.01325504
v 0.00105297 0.03593890 0.01319678
v 0.00267718 0.03117624 0.01307317
v 0.00158471 0.02902300 0.01316837
v 0.00211707 0.03008662 0.01313001
v 0.00075399 0.02765920 0.01321383
v 0.00105297 0.02795701 0.01318400
v 0.00245200 0.03008662 0.01304191
v 0.00287272 0.03101788 0.01300639
v 0.00408000 0.03077207 0.01253042
v 0.00371416 0.03274567 0.01282879
v 0.00371416 0.03327749 0.01287000
v 0.00371416 0.03380930 0.01289983
v 0.00371416 0.03434347 0.01291688
v 0.00371416 0.03540709 0.01292825
v 0.00371416 0.03593890 0.01292541
v 0.00371416 0.03647071 0.01289983
v 0.00371416 0.03700489 0.01287142
v 0.00371416 0.03753670 0.01283874
v 0.00318369 0.03651799 0.01299645
v 0.00300770 0.03637144 0.01303197
v 0.00290489 0.03672598 0.01301776
v 0.00269611 0.03651799 0.01305328
v 0.00211707 0.03647071 0.01310443
v 0.00158471 0.03647071 0.01313427
v 0.00075399 0.03593890 0.01320247
v 0.00105297 0.03647071 0.01315558
v 0.00105297 0.02742520 0.01313001
v 0.00163201 0.02844864 0.01309733
v 0.00191333 0.02859991 0.01304049
v 0.00199281 0.02902300 0.01306323
v 0.00214041 0.02956899 0.01307743
v 0.00240533 0.02975808 0.01302629
v 0.00075399 0.02712503 0.01316410
v 0.00348140 0.02869682 0.01250484
v 0.00436132 0.03115024 0.01239118
v 0.00521221 0.03327749 0.01212975
v 0.00481988 0.03327749 0.01239544
v 0.00454676 0.03297258 0.01249632
v 0.00425282 0.03060425 0.01236987
v 0.00463948 0.03061843 0.01209565
v 0.00424589 0.03434347 0.01269808
v 0.00424589 0.03487528 0.01272223
v 0.00424589 0.03540709 0.01274212
v 0.00424589 0.03593890 0.01275207
v 0.00424589 0.03647071 0.01274354
v 0.00424589 0.03700489 0.01273076
v 0.00424589 0.03753670 0.01271086
v 0.00424589 0.03806851 0.01266824
v 0.00424589 0.03860032 0.01261425
v 0.00371416 0.03806851 0.01278190
v 0.00318179 0.03753670 0.01291404
v 0.00318179 0.03700489 0.01295951
v 0.00264943 0.03753670 0.01296519
v 0.00254977 0.03689616 0.01303339
v 0.00215807 0.03704507 0.01305186
v 0.00200732 0.03737361 0.01303197
v 0.00158471 0.03700489 0.01308596
v 0.00075399 0.03617290 0.01318400
v 0.00105297 0.03700489 0.01310301
v 0.00075399 0.03670471 0.01313285
v 0.00075399 0.02660976 0.01310159
v 0.00133051 0.02713448 0.01302344
v 0.00184079 0.02824301 0.01301492
v 0.00233279 0.02940118 0.01300355
v 0.00372551 0.02846992 0.01222921
v 0.00403206 0.02859991 0.01202034
v 0.00079121 0.02608504 0.01302060
v 0.00100251 0.02587704 0.01288562
v 0.00075399 0.02499778 0.01278048
v 0.00075399 0.02442815 0.01262561
v 0.00075399 0.02428161 0.01258441
v 0.00087510 0.02434070 0.01254179
v 0.00292507 0.02608504 0.01196209
v 0.00516175 0.03274567 0.01207434
v 0.00562725 0.03505492 0.01200472
v 0.00566131 0.03540709 0.01203882
v 0.00531061 0.03540709 0.01221926
v 0.00463507 0.03540709 0.01256026
v 0.00396898 0.02824537 0.01192941
v 0.00610095 0.03153551 0.00979250
v 0.00558815 0.03297967 0.01145912
v 0.00542289 0.03277876 0.01165661
v 0.00465147 0.03593890 0.01256736
v 0.00466030 0.03647071 0.01256878
v 0.00465840 0.03700489 0.01256736
v 0.00464957 0.03753670 0.01255884
v 0.00463128 0.03806851 0.01254179
v 0.00459091 0.03860032 0.01251905
v 0.00454676 0.03896432 0.01249916
v 0.00427049 0.03913922 0.01254463
v 0.00318179 0.03806851 0.01285010
v 0.00371416 0.03860032 0.01271228
v 0.00264943 0.03806851 0.01290125
v 0.00211707 0.03806851 0.01294104
v 0.00215807 0.03754379 0.01300071
v 0.00236243 0.03725070 0.01301634
v 0.00158471 0.03743034 0.01303907
v 0.00158471 0.03806851 0.01296377
v 0.00075399 0.03700489 0.01310017
v 0.00105297 0.03746343 0.01304618
v 0.00075399 0.02605668 0.01302629
v 0.00075399 0.02596922 0.01300781
v 0.00075399 0.02556741 0.01291546
v 0.00075399 0.02396961 0.01248353
v 0.00075399 0.02391762 0.01246364
v 0.00075399 0.02378289 0.01240681
v 0.00075399 0.02340235 0.01223489
v 0.00075399 0.02300999 0.01204876
v 0.00075399 0.02286345 0.01197630
v 0.00079121 0.02289181 0.01195925
v 0.00075399 0.02276654 0.01191520
v 0.00075399 0.02258218 0.01178307
v 0.00075399 0.02244273 0.01168219
v 0.00075399 0.02224418 0.01153584
v 0.00237883 0.02397198 0.01088369
v 0.00267971 0.02419179 0.01066772
v 0.00327767 0.02634031 0.01167651
v 0.00547839 0.03327749 0.01172623
v 0.00589091 0.03540709 0.01168787
v 0.00619620 0.03753670 0.01153869
v 0.00586568 0.03753670 0.01180438
v 0.00560581 0.03793615 0.01196777
v 0.00529421 0.03860032 0.01213685
v 0.00489746 0.03806851 0.01240965
v 0.00491575 0.03753670 0.01241107
v 0.00514661 0.02907263 0.01006956
v 0.00348582 0.02650576 0.01149180
v 0.00453225 0.02711793 0.00985217
v 0.00613943 0.03134642 0.00943871
v 0.00664530 0.03353512 0.00930800
v 0.00658159 0.03380930 0.00964047
v 0.00535729 0.02902300 0.00955806
v 0.00485709 0.03860032 0.01240255
v 0.00474608 0.03913922 0.01239544
v 0.00477825 0.03966631 0.01230593
v 0.00446476 0.03932122 0.01247501
v 0.00411027 0.03955522 0.01251621
v 0.00371416 0.03913213 0.01264124
v 0.00318179 0.03913213 0.01270092
v 0.00264943 0.03860032 0.01282879
v 0.00211707 0.03860032 0.01287284
v 0.00158471 0.03860032 0.01289699
v 0.00075399 0.03720579 0.01307459
v 0.00105297 0.03806851 0.01296377
v 0.00075399 0.03743979 0.01304476
v 0.00075399 0.02204328 0.01136250
v 0.00075399 0.02196764 0.01129004
v 0.00075399 0.02171001 0.01102151
v 0.00295724 0.02441161 0.01045176
v 0.00639489 0.03753670 0.01115506
v 0.00668062 0.03966631 0.01043897
v 0.00652041 0.03966631 0.01070609
v 0.00617034 0.03797869 0.01150743
v 0.00549542 0.03966631 0.01188821
v 0.00553516 0.03913213 0.01191662
v 0.00526961 0.03913213 0.01211554
v 0.00458271 0.02701630 0.00955806
v 0.00666233 0.03241241 0.00732169
v 0.00611231 0.03034189 0.00770247
v 0.00703827 0.03487528 0.00689686
v 0.00693924 0.03593890 0.00902668
v 0.00666170 0.03380930 0.00937478
v 0.00525510 0.02795701 0.00742967
v 0.00522924 0.03966631 0.01207860
v 0.00516491 0.04019812 0.01203029
v 0.00477825 0.04019812 0.01220789
v 0.00427049 0.03970649 0.01245370
v 0.00395006 0.03991212 0.01248211
v 0.00374948 0.03970649 0.01254605
v 0.00318179 0.03966631 0.01261851
v 0.00264943 0.03913213 0.01275065
v 0.00211707 0.03913213 0.01279469
v 0.00105297 0.03860032 0.01288136
v 0.00158471 0.03913213 0.01281174
v 0.00075399 0.03785342 0.01298508
v 0.00075399 0.02153747 0.01079986
v 0.00389897 0.02530032 0.00851376
v 0.00075399 0.02145474 0.01068477
v 0.00075399 0.02137674 0.01057395
v 0.00075399 0.02126565 0.01039777
v 0.00075399 0.02119947 0.01028126
v 0.00075399 0.02110020 0.01009087
v 0.00242551 0.02285399 0.00881924
v 0.00247093 0.02280200 0.00849387
v 0.00666612 0.04000194 0.01041340
v 0.00717388 0.03833087 0.00823102
v 0.00717388 0.03834032 0.00823102
v 0.00619872 0.04019812 0.01098315
v 0.00625423 0.03966631 0.01104850
v 0.00575656 0.03966631 0.01162251
v 0.00570673 0.04019812 0.01156710
v 0.00543109 0.04019812 0.01183422
v 0.00400809 0.02547996 0.00834894
v 0.00612682 0.03029698 0.00742967
v 0.00612934 0.03028989 0.00710288
v 0.00666233 0.03241241 0.00487646
v 0.00703827 0.03487528 0.00530128
v 0.00717893 0.03619417 0.00612394
v 0.00719532 0.03647071 0.00621629
v 0.00527087 0.02795701 0.00689686
v 0.00462560 0.02643958 0.00636548
v 0.00509615 0.04055738 0.01198767
v 0.00424589 0.04019812 0.01236134
v 0.00478960 0.04073229 0.01206155
v 0.00424589 0.04072993 0.01222494
v 0.00359557 0.04002321 0.01250484
v 0.00374948 0.04019812 0.01244659
v 0.00318179 0.04012248 0.01252900
v 0.00211707 0.03966631 0.01269666
v 0.00158471 0.03966631 0.01271513
v 0.00105297 0.03913213 0.01277622
v 0.00075399 0.03830251 0.01290552
v 0.00353691 0.02439506 0.00636548
v 0.00075399 0.02086384 0.00955806
v 0.00075399 0.02065821 0.00905083
v 0.00075399 0.02051639 0.00849387
v 0.00075399 0.02041712 0.00796248
v 0.00075399 0.02034857 0.00747514
v 0.00075399 0.02034385 0.00742967
v 0.00234099 0.02242618 0.00636548
v 0.00251445 0.02269091 0.00636548
v 0.00677082 0.04126174 0.00849387
v 0.00666738 0.04158319 0.00880503
v 0.00607194 0.04143428 0.01026847
v 0.00597859 0.04125938 0.01061231
v 0.00562599 0.04161628 0.01096041
v 0.00647247 0.04018630 0.01060379
v 0.00719722 0.03684653 0.00623050
v 0.00718839 0.03913213 0.00617083
v 0.00718713 0.03944176 0.00616798
v 0.00612934 0.04051011 0.01091495
v 0.00557868 0.04100174 0.01142502
v 0.00562599 0.04072993 0.01147617
v 0.00528853 0.04073229 0.01176460
v 0.00373749 0.02476379 0.00636548
v 0.00612934 0.03028989 0.00509668
v 0.00612682 0.03029698 0.00476990
v 0.00611231 0.03034189 0.00449710
v 0.00613943 0.03134642 0.00276086
v 0.00664530 0.03353512 0.00289157
v 0.00693861 0.03593890 0.00317289
v 0.00717388 0.03832851 0.00396713
v 0.00719532 0.03647071 0.00598328
v 0.00717893 0.03619417 0.00607563
v 0.00527087 0.02795701 0.00530128
v 0.00462560 0.02643958 0.00583409
v 0.00530493 0.04121210 0.01154721
v 0.00497442 0.04091192 0.01191947
v 0.00461993 0.04110810 0.01200045
v 0.00423453 0.04127592 0.01204308
v 0.00371416 0.04126174 0.01214680
v 0.00371416 0.04072993 0.01231588
v 0.00318179 0.04038957 0.01247074
v 0.00286074 0.04045102 0.01248353
v 0.00211707 0.04019812 0.01258441
v 0.00105297 0.03966631 0.01264977
v 0.00211707 0.04053375 0.01250484
v 0.00171212 0.04052193 0.01250342
v 0.00155506 0.04024302 0.01256878
v 0.00075399 0.03883432 0.01278901
v 0.00353691 0.02439506 0.00583409
v 0.00075399 0.02029894 0.00690255
v 0.00075399 0.02026349 0.00640526
v 0.00075399 0.02026112 0.00636548
v 0.00234099 0.02242618 0.00583409
v 0.00251445 0.02269091 0.00583409
v 0.00667558 0.04212682 0.00622908
v 0.00669576 0.04163755 0.00849387
v 0.00653996 0.04190464 0.00849387
v 0.00558373 0.04313371 0.00878087
v 0.00570610 0.04286662 0.00898547
v 0.00564681 0.04268699 0.00955806
v 0.00559256 0.04261372 0.00986354
v 0.00569285 0.04232300 0.01006103
v 0.00562725 0.04214100 0.01044465
v 0.00598048 0.04178646 0.01009087
v 0.00572124 0.04179355 0.01062226
v 0.00551876 0.04197082 0.01079986
v 0.00532133 0.04180300 0.01116785
v 0.00547902 0.04135628 0.01131562
v 0.00568276 0.04121210 0.01114512
v 0.00719722 0.03684653 0.00596907
v 0.00718839 0.03913213 0.00602874
v 0.00718713 0.03944176 0.00603158
v 0.00512391 0.04163755 0.01148612
v 0.00373749 0.02476379 0.00583409
v 0.00525510 0.02795701 0.00476990
v 0.00535666 0.02902300 0.00264009
v 0.00610095 0.03153787 0.00240565
v 0.00658159 0.03380930 0.00255768
v 0.00666170 0.03380930 0.00282479
v 0.00639489 0.03753670 0.00104308
v 0.00668062 0.03966631 0.00175918
v 0.00717388 0.03834032 0.00396713
v 0.00400809 0.02547996 0.00385063
v 0.00478960 0.04127592 0.01184843
v 0.00440421 0.04146264 0.01192515
v 0.00404972 0.04156664 0.01197204
v 0.00318179 0.04126174 0.01222210
v 0.00371416 0.04163991 0.01200472
v 0.00318179 0.04174628 0.01204166
v 0.00318179 0.04072993 0.01238265
v 0.00266961 0.04069684 0.01243949
v 0.00135763 0.04044866 0.01248069
v 0.00105297 0.04007048 0.01253468
v 0.00076598 0.03995466 0.01249632
v 0.00075399 0.03966631 0.01257020
v 0.00211707 0.04079847 0.01243665
v 0.00211707 0.04126174 0.01228178
v 0.00389834 0.02530032 0.00368581
v 0.00247093 0.02280200 0.00370428
v 0.00075399 0.02026112 0.00583409
v 0.00075399 0.02029421 0.00530128
v 0.00075399 0.02034148 0.00476990
v 0.00667558 0.04212682 0.00597049
v 0.00621828 0.04271063 0.00636548
v 0.00596219 0.04292099 0.00742967
v 0.00612682 0.04262081 0.00780193
v 0.00595336 0.04282408 0.00797243
v 0.00627378 0.04226627 0.00849387
v 0.00561085 0.04316208 0.00849387
v 0.00536549 0.04347880 0.00796248
v 0.00526835 0.04345989 0.00848392
v 0.00506335 0.04367025 0.00829921
v 0.00500343 0.04363480 0.00865442
v 0.00532260 0.04327789 0.00898547
v 0.00515103 0.04321644 0.00955806
v 0.00507723 0.04315498 0.00988059
v 0.00550867 0.04305099 0.00913608
v 0.00541721 0.04295171 0.00955806
v 0.00529106 0.04283353 0.01004967
v 0.00550489 0.04249554 0.01021874
v 0.00533395 0.04234900 0.01064499
v 0.00516364 0.04220009 0.01101867
v 0.00496874 0.04199209 0.01137387
v 0.00677082 0.04126174 0.00370428
v 0.00478582 0.04180537 0.01157989
v 0.00458271 0.02701630 0.00264009
v 0.00514598 0.02907263 0.00213001
v 0.00453225 0.02711793 0.00234740
v 0.00558815 0.03297731 0.00074045
v 0.00396898 0.02824537 0.00026874
v 0.00463948 0.03061843 0.00010392
v 0.00589091 0.03540709 0.00051170
v 0.00619620 0.03753670 0.00066088
v 0.00652041 0.03966631 0.00149348
v 0.00666549 0.04000194 0.00178617
v 0.00461362 0.04213391 0.01147333
v 0.00423453 0.04176282 0.01181859
v 0.00371416 0.04190700 0.01187684
v 0.00264943 0.04126174 0.01228178
v 0.00318179 0.04201100 0.01193083
v 0.00291561 0.04206064 0.01195357
v 0.00105297 0.04033757 0.01242386
v 0.00155506 0.04071102 0.01240823
v 0.00154749 0.04130428 0.01212975
v 0.00075399 0.03996648 0.01248211
v 0.00075399 0.03994521 0.01249348
v 0.00075399 0.03992630 0.01250058
v 0.00115768 0.04115538 0.01204592
v 0.00075399 0.04066847 0.01208854
v 0.00270241 0.04184791 0.01205018
v 0.00237316 0.04206536 0.01195641
v 0.00216438 0.04180064 0.01204592
v 0.00295724 0.02441161 0.00174781
v 0.00075399 0.02040294 0.00433370
v 0.00075399 0.02041712 0.00423709
v 0.00075399 0.02048094 0.00387478
v 0.00075399 0.02051403 0.00370428
v 0.00075399 0.02063930 0.00322973
v 0.00075399 0.02071493 0.00299813
v 0.00242551 0.02285399 0.00338033
v 0.00669576 0.04163755 0.00370428
v 0.00653996 0.04190464 0.00370428
v 0.00612682 0.04262081 0.00439480
v 0.00596282 0.04292099 0.00476990
v 0.00621828 0.04271063 0.00583409
v 0.00572754 0.04329680 0.00636548
v 0.00571556 0.04328026 0.00689686
v 0.00569601 0.04325662 0.00742967
v 0.00565879 0.04321407 0.00796248
v 0.00541406 0.04352134 0.00742967
v 0.00509931 0.04369625 0.00796248
v 0.00477825 0.04387825 0.00796248
v 0.00480663 0.04377425 0.00848392
v 0.00464579 0.04372698 0.00902668
v 0.00491197 0.04357571 0.00902668
v 0.00493468 0.04305335 0.01023579
v 0.00514977 0.04269881 0.01049154
v 0.00474986 0.04349062 0.00954243
v 0.00440925 0.04361116 0.00970867
v 0.00476563 0.04324480 0.01007098
v 0.00499649 0.04255699 0.01084675
v 0.00480537 0.04234427 0.01117638
v 0.00666738 0.04158319 0.00339312
v 0.00348582 0.02650576 0.00070777
v 0.00542289 0.03277876 0.00054153
v 0.00516175 0.03274567 0.00012523
v 0.00547776 0.03327749 0.00047333
v 0.00403206 0.02859991 0.00017922
v 0.00327767 0.02634031 0.00052306
v 0.00292507 0.02608504 0.00023748
v 0.00348140 0.02869682 -0.00030528
v 0.00425282 0.03060425 -0.00017030
v 0.00408000 0.03077207 -0.00033085
v 0.00436069 0.03115024 -0.00019161
v 0.00521221 0.03327749 0.00006982
v 0.00562662 0.03505492 0.00019485
v 0.00566068 0.03540709 0.00016075
v 0.00586505 0.03753670 0.00039377
v 0.00554021 0.03913213 0.00027726
v 0.00550173 0.03966631 0.00030568
v 0.00617034 0.03797869 0.00069072
v 0.00625423 0.03966631 0.00114964
v 0.00619872 0.04019812 0.00121642
v 0.00647247 0.04018630 0.00159578
v 0.00562599 0.04161628 0.00123774
v 0.00597859 0.04126174 0.00158442
v 0.00607194 0.04143901 0.00192968
v 0.00464137 0.04267990 0.01097746
v 0.00424589 0.04250027 0.01134261
v 0.00424589 0.04223318 0.01154011
v 0.00373497 0.04236791 0.01159410
v 0.00318179 0.04232772 0.01175181
v 0.00256049 0.04206536 0.01195641
v 0.00318179 0.04269644 0.01150885
v 0.00270241 0.04227572 0.01182143
v 0.00170014 0.04162810 0.01201608
v 0.00134502 0.04150992 0.01193936
v 0.00080319 0.04098047 0.01194078
v 0.00075399 0.04086702 0.01197630
v 0.00201804 0.04198264 0.01189815
v 0.00264943 0.04270590 0.01152306
v 0.00228044 0.04264917 0.01147475
v 0.00075399 0.02109547 0.00210870
v 0.00075399 0.02126093 0.00179754
v 0.00075399 0.02145474 0.00151053
v 0.00075399 0.02171237 0.00118374
v 0.00267971 0.02419179 0.00153185
v 0.00075399 0.02084730 0.00266282
v 0.00075399 0.02085675 0.00264009
v 0.00075399 0.02101038 0.00228914
v 0.00627378 0.04226627 0.00370428
v 0.00595525 0.04282408 0.00422572
v 0.00570925 0.04287135 0.00321268
v 0.00558436 0.04313371 0.00341585
v 0.00566005 0.04321644 0.00423709
v 0.00569664 0.04325662 0.00476990
v 0.00571556 0.04328026 0.00530128
v 0.00572754 0.04329680 0.00583409
v 0.00546515 0.04356389 0.00636548
v 0.00544559 0.04354734 0.00689686
v 0.00514787 0.04373170 0.00742967
v 0.00477825 0.04394206 0.00742967
v 0.00436952 0.04413352 0.00742967
v 0.00422570 0.04411934 0.00800226
v 0.00424589 0.04403425 0.00849387
v 0.00455370 0.04367970 0.00935346
v 0.00424589 0.04390661 0.00902668
v 0.00458019 0.04316208 0.01041340
v 0.00478834 0.04286662 0.01062936
v 0.00423769 0.04350952 0.01007524
v 0.00423769 0.04374589 0.00954243
v 0.00405477 0.04368916 0.00988627
v 0.00598048 0.04178646 0.00210728
v 0.00562725 0.04214100 0.00175491
v 0.00569411 0.04232300 0.00213569
v 0.00559508 0.04261845 0.00233177
v 0.00565122 0.04269172 0.00264009
v 0.00372488 0.02847228 -0.00002964
v 0.00237883 0.02397198 0.00131588
v 0.00075399 0.02226546 0.00068077
v 0.00075399 0.02258927 0.00043213
v 0.00079058 0.02289418 0.00024032
v 0.00075399 0.02286581 0.00022469
v 0.00075399 0.02292727 0.00019485
v 0.00075399 0.02316126 0.00008829
v 0.00075399 0.02370253 -0.00015751
v 0.00075399 0.02394362 -0.00026407
v 0.00076787 0.02399325 -0.00027544
v 0.00087510 0.02434779 -0.00034222
v 0.00184143 0.02824301 -0.00081677
v 0.00191270 0.02859755 -0.00084093
v 0.00240470 0.02975808 -0.00082814
v 0.00287083 0.03101788 -0.00080683
v 0.00075399 0.02428870 -0.00038484
v 0.00075399 0.02448961 -0.00044167
v 0.00105297 0.02529560 -0.00052266
v 0.00100251 0.02587468 -0.00069032
v 0.00079184 0.02608504 -0.00082103
v 0.00133051 0.02713448 -0.00082388
v 0.00292697 0.03137242 -0.00082388
v 0.00371416 0.03327749 -0.00067043
v 0.00454676 0.03297258 -0.00029675
v 0.00481736 0.03327749 -0.00019587
v 0.00531061 0.03540709 -0.00001969
v 0.00465147 0.03593890 -0.00036779
v 0.00465967 0.03647071 -0.00036921
v 0.00465840 0.03700489 -0.00036779
v 0.00491575 0.03753670 -0.00021150
v 0.00489683 0.03806851 -0.00021008
v 0.00560518 0.03793142 0.00023179
v 0.00527403 0.03913213 0.00008403
v 0.00523555 0.03966631 0.00012097
v 0.00516554 0.04019812 0.00016928
v 0.00543172 0.04019812 0.00036393
v 0.00570736 0.04019812 0.00063104
v 0.00575656 0.03966631 0.00057137
v 0.00564050 0.04064011 0.00070635
v 0.00557553 0.04099465 0.00077881
v 0.00612934 0.04051011 0.00128462
v 0.00570736 0.04126174 0.00112407
v 0.00550173 0.04126174 0.00085696
v 0.00532070 0.04180300 0.00103172
v 0.00551876 0.04197082 0.00139971
v 0.00572124 0.04179355 0.00157731
v 0.00424589 0.04305099 0.01078991
v 0.00395952 0.04311717 0.01087800
v 0.00424589 0.04278390 0.01107692
v 0.00392609 0.04257354 0.01140655
v 0.00357160 0.04263499 0.01145486
v 0.00360440 0.04318571 0.01095189
v 0.00318179 0.04296117 0.01127015
v 0.00100945 0.04130428 0.01183706
v 0.00167806 0.04219536 0.01154295
v 0.00132357 0.04205591 0.01141650
v 0.00105297 0.04166591 0.01155005
v 0.00075399 0.04095447 0.01191378
v 0.00077922 0.04153592 0.01142928
v 0.00075399 0.04147683 0.01145628
v 0.00318179 0.04322353 0.01100304
v 0.00264943 0.04297299 0.01123605
v 0.00235928 0.04313844 0.01090784
v 0.00192532 0.04254990 0.01136677
v 0.00075399 0.02198892 0.00091947
v 0.00561211 0.04316444 0.00370428
v 0.00551245 0.04305571 0.00306207
v 0.00515544 0.04321880 0.00264009
v 0.00532512 0.04327789 0.00321268
v 0.00500091 0.04363243 0.00354515
v 0.00506461 0.04367261 0.00390035
v 0.00536801 0.04348116 0.00423709
v 0.00541595 0.04352371 0.00476990
v 0.00544622 0.04354734 0.00530128
v 0.00546515 0.04356389 0.00583409
v 0.00519897 0.04376243 0.00636548
v 0.00517941 0.04375061 0.00689686
v 0.00477825 0.04398225 0.00689686
v 0.00442187 0.04415479 0.00689686
v 0.00410333 0.04423751 0.00742967
v 0.00397151 0.04418788 0.00820686
v 0.00389203 0.04416424 0.00849387
v 0.00370217 0.04410515 0.00901673
v 0.00371416 0.04393497 0.00955806
v 0.00382580 0.04359462 0.01024148
v 0.00424589 0.04324007 0.01052422
v 0.00367442 0.04373880 0.01007524
v 0.00347068 0.04366552 0.01037077
v 0.00533395 0.04234900 0.00155316
v 0.00550489 0.04249554 0.00197656
v 0.00529169 0.04283590 0.00214706
v 0.00507912 0.04315498 0.00231614
v 0.00542163 0.04295880 0.00264009
v 0.00075399 0.02400743 -0.00028681
v 0.00163264 0.02844864 -0.00089634
v 0.00158471 0.02902300 -0.00097022
v 0.00199218 0.02902300 -0.00086366
v 0.00211707 0.03008662 -0.00093186
v 0.00075399 0.02478270 -0.00052266
v 0.00075399 0.02527669 -0.00064769
v 0.00075399 0.02576359 -0.00076278
v 0.00075399 0.02605668 -0.00082672
v 0.00075399 0.02612286 -0.00083666
v 0.00085618 0.02636158 -0.00084235
v 0.00105234 0.02693121 -0.00086792
v 0.00105297 0.02742520 -0.00092902
v 0.00264943 0.03168442 -0.00091055
v 0.00295283 0.03168442 -0.00083240
v 0.00336787 0.03327749 -0.00079688
v 0.00331678 0.03274567 -0.00077841
v 0.00211707 0.03061843 -0.00097164
v 0.00371416 0.03380930 -0.00070169
v 0.00424589 0.03434347 -0.00049851
v 0.00424589 0.03487528 -0.00052266
v 0.00424589 0.03540709 -0.00054397
v 0.00463444 0.03540709 -0.00036069
v 0.00424589 0.03593890 -0.00055392
v 0.00424589 0.03647071 -0.00055108
v 0.00464957 0.03753670 -0.00036069
v 0.00485583 0.03860032 -0.00020298
v 0.00529358 0.03860032 0.00006414
v 0.00477825 0.03966631 -0.00010494
v 0.00474545 0.03913213 -0.00019445
v 0.00477825 0.04019812 -0.00000832
v 0.00509552 0.04054793 0.00021190
v 0.00533584 0.04077247 0.00049465
v 0.00523555 0.04126174 0.00062678
v 0.00512328 0.04163519 0.00071487
v 0.00496874 0.04198973 0.00082428
v 0.00516364 0.04220009 0.00117948
v 0.00152983 0.04237027 0.01121474
v 0.00118733 0.04218827 0.01106271
v 0.00075399 0.04156428 0.01135114
v 0.00075399 0.04151937 0.01141365
v 0.00264943 0.04318808 0.01097036
v 0.00315593 0.04352134 0.01057821
v 0.00296166 0.04365370 0.01034946
v 0.00264943 0.04339371 0.01062368
v 0.00261032 0.04360171 0.01014060
v 0.00224385 0.04320935 0.01062368
v 0.00197767 0.04305099 0.01062368
v 0.00173609 0.04267990 0.01101156
v 0.00490629 0.04357571 0.00317289
v 0.00464011 0.04372461 0.00317289
v 0.00480537 0.04377425 0.00371565
v 0.00477825 0.04388061 0.00423709
v 0.00510183 0.04369861 0.00423709
v 0.00514977 0.04373170 0.00476990
v 0.00518004 0.04375298 0.00530128
v 0.00519897 0.04376243 0.00583409
v 0.00477825 0.04400116 0.00636548
v 0.00444395 0.04416188 0.00636548
v 0.00415569 0.04425879 0.00689686
v 0.00371416 0.04438879 0.00689686
v 0.00371416 0.04435097 0.00742967
v 0.00376209 0.04427297 0.00800226
v 0.00362585 0.04423988 0.00849387
v 0.00351610 0.04420679 0.00883202
v 0.00318179 0.04397988 0.00955806
v 0.00315593 0.04376007 0.01014060
v 0.00331614 0.04366552 0.01037077
v 0.00499586 0.04255699 0.00135282
v 0.00514977 0.04269881 0.00170661
v 0.00493026 0.04305335 0.00196235
v 0.00476311 0.04324244 0.00212717
v 0.00440925 0.04361116 0.00249516
v 0.00474734 0.04349062 0.00265998
v 0.00105297 0.02795701 -0.00098301
v 0.00105297 0.02848882 -0.00102847
v 0.00158471 0.02955481 -0.00101000
v 0.00075399 0.02636158 -0.00086792
v 0.00075399 0.02690994 -0.00093754
v 0.00075399 0.02742520 -0.00099153
v 0.00211707 0.03115024 -0.00100006
v 0.00264943 0.03221623 -0.00093186
v 0.00310169 0.03327749 -0.00087076
v 0.00340256 0.03380930 -0.00080825
v 0.00158471 0.03008662 -0.00104268
v 0.00158471 0.03061843 -0.00107252
v 0.00371416 0.03434347 -0.00071731
v 0.00371416 0.03487528 -0.00072584
v 0.00371416 0.03540709 -0.00073152
v 0.00371416 0.03593890 -0.00072726
v 0.00424589 0.03700489 -0.00053829
v 0.00424589 0.03753670 -0.00051272
v 0.00463065 0.03806851 -0.00034222
v 0.00458965 0.03860032 -0.00031948
v 0.00454613 0.03895486 -0.00029959
v 0.00445656 0.03930940 -0.00027402
v 0.00424589 0.04019812 -0.00016035
v 0.00424589 0.04072993 -0.00002537
v 0.00478519 0.04072756 0.00013802
v 0.00461236 0.04110810 0.00019769
v 0.00496748 0.04090247 0.00028436
v 0.00478582 0.04180537 0.00061968
v 0.00478519 0.04127592 0.00035541
v 0.00461425 0.04213154 0.00072482
v 0.00480474 0.04234427 0.00102319
v 0.00138160 0.04254281 0.01078139
v 0.00083284 0.04201336 0.01079702
v 0.00075399 0.04180064 0.01099593
v 0.00276108 0.04372698 0.00999567
v 0.00240659 0.04364661 0.00977545
v 0.00186603 0.04311480 0.01032815
v 0.00156894 0.04276499 0.01061231
v 0.00454928 0.04367734 0.00285037
v 0.00424589 0.04389952 0.00317289
v 0.00424589 0.04403188 0.00370428
v 0.00422507 0.04411934 0.00420299
v 0.00436825 0.04413588 0.00476990
v 0.00477825 0.04394443 0.00476990
v 0.00477825 0.04398225 0.00530128
v 0.00477825 0.04400116 0.00583409
v 0.00444395 0.04416188 0.00583409
v 0.00417776 0.04426588 0.00636548
v 0.00371416 0.04440297 0.00636548
v 0.00318179 0.04434860 0.00689686
v 0.00318179 0.04432260 0.00742967
v 0.00327956 0.04423988 0.00849387
v 0.00338301 0.04420679 0.00883202
v 0.00319630 0.04411697 0.00901673
v 0.00261032 0.04378607 0.00958222
v 0.00464074 0.04267754 0.00122353
v 0.00478582 0.04286662 0.00157163
v 0.00457514 0.04315971 0.00179043
v 0.00423769 0.04350480 0.00212575
v 0.00405477 0.04368680 0.00231472
v 0.00423769 0.04374116 0.00265998
v 0.00075399 0.02795701 -0.00103558
v 0.00105297 0.02902300 -0.00106541
v 0.00211707 0.03168442 -0.00101711
v 0.00264943 0.03327749 -0.00096738
v 0.00264943 0.03274567 -0.00095033
v 0.00313638 0.03380930 -0.00087502
v 0.00342085 0.03434347 -0.00081251
v 0.00105297 0.02955481 -0.00109383
v 0.00105297 0.03008662 -0.00111372
v 0.00105297 0.03061843 -0.00113077
v 0.00158471 0.03115024 -0.00108531
v 0.00211707 0.03221623 -0.00103132
v 0.00342779 0.03487528 -0.00081535
v 0.00342211 0.03540709 -0.00081535
v 0.00336471 0.03593890 -0.00080683
v 0.00371416 0.03647071 -0.00070453
v 0.00371416 0.03753670 -0.00063775
v 0.00424589 0.03806851 -0.00046441
v 0.00371416 0.03700489 -0.00067469
v 0.00426607 0.03913213 -0.00034364
v 0.00424589 0.03860032 -0.00040900
v 0.00410207 0.03954812 -0.00031664
v 0.00426607 0.03970176 -0.00025128
v 0.00374191 0.04019812 -0.00024560
v 0.00371416 0.04072993 -0.00011631
v 0.00393808 0.03990267 -0.00028112
v 0.00371416 0.04126174 0.00005135
v 0.00423579 0.04127592 0.00015649
v 0.00440610 0.04146264 0.00027442
v 0.00424589 0.04223082 0.00065946
v 0.00424589 0.04249790 0.00085696
v 0.00423579 0.04176519 0.00038098
v 0.00105865 0.04232300 0.01061231
v 0.00128509 0.04262317 0.01042760
v 0.00075399 0.04210554 0.01044465
v 0.00075399 0.04194955 0.01074161
v 0.00233973 0.04368443 0.00942024
v 0.00214419 0.04351661 0.00958222
v 0.00178718 0.04317389 0.00997294
v 0.00159984 0.04297535 0.01012639
v 0.00371416 0.04393261 0.00264009
v 0.00370217 0.04410279 0.00318000
v 0.00388951 0.04416424 0.00370428
v 0.00396709 0.04418552 0.00400265
v 0.00403332 0.04420915 0.00435786
v 0.00410207 0.04423515 0.00476990
v 0.00442187 0.04415479 0.00530128
v 0.00415569 0.04425642 0.00530128
v 0.00417776 0.04426588 0.00583409
v 0.00371416 0.04440533 0.00583409
v 0.00318179 0.04436279 0.00636548
v 0.00286641 0.04422097 0.00689686
v 0.00288597 0.04420679 0.00742967
v 0.00290552 0.04419497 0.00777919
v 0.00293327 0.04418315 0.00813440
v 0.00313953 0.04426352 0.00795964
v 0.00301338 0.04415952 0.00849387
v 0.00264943 0.04391134 0.00902668
v 0.00424589 0.04278390 0.00112407
v 0.00395889 0.04311717 0.00132156
v 0.00424589 0.04304862 0.00141250
v 0.00424589 0.04323535 0.00167819
v 0.00381886 0.04359225 0.00196093
v 0.00346374 0.04366316 0.00183164
v 0.00367063 0.04373643 0.00212575
v 0.00075399 0.02848882 -0.00106968
v 0.00211707 0.03327749 -0.00104410
v 0.00264943 0.03380930 -0.00097022
v 0.00211707 0.03274567 -0.00103984
v 0.00315467 0.03434347 -0.00087360
v 0.00075399 0.02955481 -0.00111941
v 0.00075399 0.02902300 -0.00109667
v 0.00075399 0.03008662 -0.00113646
v 0.00075399 0.03061843 -0.00115066
v 0.00105297 0.03115024 -0.00113930
v 0.00158471 0.03221623 -0.00109525
v 0.00315593 0.03540709 -0.00086224
v 0.00316161 0.03487528 -0.00086934
v 0.00309853 0.03593890 -0.00084803
v 0.00318179 0.03753670 -0.00071163
v 0.00371416 0.03806851 -0.00057949
v 0.00318116 0.03651090 -0.00079404
v 0.00300266 0.03635962 -0.00083240
v 0.00318179 0.03700489 -0.00075568
v 0.00371416 0.03913213 -0.00044167
v 0.00374191 0.03970176 -0.00034506
v 0.00358359 0.04002085 -0.00030528
v 0.00318179 0.04038720 -0.00027118
v 0.00318179 0.04072993 -0.00018308
v 0.00318179 0.04126174 -0.00002111
v 0.00318179 0.04174391 0.00015791
v 0.00371416 0.04163991 0.00019343
v 0.00405161 0.04156664 0.00022611
v 0.00372992 0.04236791 0.00060973
v 0.00391852 0.04257117 0.00079302
v 0.00371416 0.04190700 0.00032273
v 0.00122328 0.04267990 0.01009087
v 0.00095710 0.04242936 0.01009087
v 0.00075399 0.04211027 0.01043329
v 0.00229242 0.04371752 0.00902668
v 0.00202624 0.04353552 0.00902668
v 0.00172410 0.04322353 0.00955806
v 0.00145792 0.04301080 0.00955806
v 0.00318179 0.04397988 0.00264009
v 0.00351736 0.04420679 0.00336328
v 0.00362333 0.04423988 0.00370428
v 0.00375957 0.04427297 0.00420299
v 0.00371416 0.04435097 0.00476990
v 0.00371416 0.04438879 0.00530128
v 0.00318179 0.04435097 0.00530128
v 0.00318179 0.04436279 0.00583409
v 0.00285884 0.04422570 0.00636548
v 0.00260023 0.04404606 0.00689686
v 0.00222430 0.04376952 0.00796248
v 0.00261978 0.04404370 0.00742967
v 0.00269674 0.04406261 0.00795964
v 0.00264943 0.04398461 0.00849387
v 0.00360377 0.04318571 0.00124768
v 0.00327893 0.04366316 0.00183164
v 0.00313386 0.04376007 0.00205471
v 0.00318179 0.04322353 0.00119795
v 0.00313386 0.04352371 0.00162278
v 0.00158471 0.03327749 -0.00109383
v 0.00211707 0.03380930 -0.00103700
v 0.00158471 0.03274567 -0.00109951
v 0.00264943 0.03434347 -0.00096027
v 0.00075399 0.03115024 -0.00115635
v 0.00105297 0.03168442 -0.00113788
v 0.00264943 0.03540709 -0.00093328
v 0.00264943 0.03487528 -0.00094891
v 0.00264943 0.03593890 -0.00090060
v 0.00264943 0.03753670 -0.00076278
v 0.00318179 0.03806851 -0.00065338
v 0.00288723 0.03671417 -0.00081819
v 0.00318179 0.03913213 -0.00050277
v 0.00318179 0.03966631 -0.00041894
v 0.00318179 0.04012012 -0.00032943
v 0.00285947 0.04044866 -0.00028396
v 0.00266898 0.04069920 -0.00023992
v 0.00264943 0.04126174 -0.00008079
v 0.00264943 0.04178882 0.00012950
v 0.00318179 0.04201100 0.00026874
v 0.00318179 0.04232772 0.00045202
v 0.00318179 0.04268935 0.00069498
v 0.00115011 0.04274608 0.00955806
v 0.00088456 0.04249554 0.00955806
v 0.00075399 0.04226863 0.00992037
v 0.00075399 0.04222373 0.01009087
v 0.00224827 0.04374825 0.00849387
v 0.00198209 0.04356625 0.00849387
v 0.00166607 0.04327080 0.00902668
v 0.00139989 0.04305808 0.00902668
v 0.00292444 0.04365607 0.00184301
v 0.00276044 0.04372698 0.00219821
v 0.00260969 0.04378370 0.00261593
v 0.00319504 0.04411934 0.00318000
v 0.00338111 0.04420679 0.00336328
v 0.00318179 0.04432260 0.00476990
v 0.00327767 0.04423988 0.00370428
v 0.00290363 0.04419733 0.00441043
v 0.00288470 0.04420679 0.00476990
v 0.00286641 0.04422097 0.00530128
v 0.00285884 0.04422570 0.00583409
v 0.00259266 0.04404843 0.00636548
v 0.00220727 0.04378134 0.00689686
v 0.00221421 0.04377661 0.00742967
v 0.00195812 0.04358043 0.00796248
v 0.00318179 0.04295644 0.00093226
v 0.00264943 0.04270590 0.00067651
v 0.00264943 0.04297062 0.00096494
v 0.00264943 0.04318808 0.00123063
v 0.00105297 0.03327749 -0.00112083
v 0.00158471 0.03380930 -0.00107820
v 0.00105297 0.03274567 -0.00113219
v 0.00211707 0.03434347 -0.00101853
v 0.00105297 0.03221623 -0.00113503
v 0.00075399 0.03168442 -0.00115493
v 0.00211707 0.03540709 -0.00097732
v 0.00211707 0.03487528 -0.00099864
v 0.00211707 0.03593890 -0.00094180
v 0.00215428 0.03703798 -0.00084945
v 0.00235676 0.03723652 -0.00081677
v 0.00200164 0.03736888 -0.00083240
v 0.00215428 0.03754379 -0.00080114
v 0.00264943 0.03806851 -0.00070311
v 0.00264943 0.03860032 -0.00063064
v 0.00264943 0.03913213 -0.00055534
v 0.00264943 0.03966631 -0.00046441
v 0.00266898 0.04024302 -0.00034222
v 0.00211707 0.04019812 -0.00038910
v 0.00211707 0.04053611 -0.00030670
v 0.00211707 0.04080320 -0.00023850
v 0.00211707 0.04126174 -0.00008221
v 0.00264943 0.04205591 0.00024742
v 0.00264943 0.04232772 0.00041224
v 0.00110596 0.04279099 0.00902668
v 0.00083978 0.04254045 0.00902668
v 0.00075399 0.04245536 0.00902668
v 0.00075399 0.04236081 0.00955806
v 0.00162949 0.04329916 0.00849387
v 0.00136331 0.04308644 0.00849387
v 0.00260969 0.04360643 0.00205471
v 0.00235928 0.04313844 0.00129031
v 0.00240596 0.04364661 0.00242270
v 0.00264943 0.04391370 0.00317289
v 0.00301149 0.04416188 0.00370428
v 0.00313890 0.04426352 0.00423567
v 0.00293327 0.04418315 0.00405664
v 0.00269548 0.04406261 0.00423567
v 0.00261852 0.04404370 0.00476990
v 0.00220979 0.04377897 0.00476990
v 0.00260023 0.04404606 0.00530128
v 0.00259266 0.04404843 0.00583409
v 0.00220222 0.04378134 0.00636548
v 0.00193604 0.04359698 0.00636548
v 0.00194109 0.04359462 0.00689686
v 0.00194866 0.04358752 0.00742967
v 0.00160237 0.04332044 0.00742967
v 0.00161309 0.04331335 0.00796248
v 0.00227791 0.04264917 0.00072482
v 0.00211707 0.04199682 0.00028721
v 0.00075399 0.03327749 -0.00113077
v 0.00105297 0.03380930 -0.00110094
v 0.00075399 0.03274567 -0.00114356
v 0.00075399 0.03304349 -0.00113646
v 0.00105297 0.03487528 -0.00105689
v 0.00158471 0.03434347 -0.00105547
v 0.00075399 0.03221623 -0.00114924
v 0.00158471 0.03540709 -0.00100574
v 0.00158471 0.03593890 -0.00097306
v 0.00158471 0.03647071 -0.00093186
v 0.00158471 0.03806851 -0.00076278
v 0.00158471 0.03860032 -0.00069742
v 0.00211707 0.03806851 -0.00073863
v 0.00105297 0.03647071 -0.00095601
v 0.00105297 0.03700489 -0.00090060
v 0.00211707 0.03860032 -0.00067043
v 0.00211707 0.03913213 -0.00059797
v 0.00211707 0.03966631 -0.00050419
v 0.00158471 0.03966631 -0.00051698
v 0.00172158 0.04052429 -0.00030528
v 0.00156074 0.04071338 -0.00020866
v 0.00211707 0.04173209 0.00013518
v 0.00107442 0.04282172 0.00849387
v 0.00080824 0.04257117 0.00849387
v 0.00075399 0.04251918 0.00848818
v 0.00134691 0.04310062 0.00796248
v 0.00100251 0.04279099 0.00796816
v 0.00079121 0.04258772 0.00815003
v 0.00224133 0.04321171 0.00157589
v 0.00173546 0.04268226 0.00118517
v 0.00197515 0.04305335 0.00157589
v 0.00192279 0.04255226 0.00082996
v 0.00214482 0.04351661 0.00261593
v 0.00234099 0.04368443 0.00277791
v 0.00186287 0.04311717 0.00186574
v 0.00178718 0.04317389 0.00222094
v 0.00229179 0.04371752 0.00317289
v 0.00264943 0.04398697 0.00370428
v 0.00224764 0.04374825 0.00370428
v 0.00222114 0.04376952 0.00423709
v 0.00194361 0.04359225 0.00476990
v 0.00193667 0.04359698 0.00583409
v 0.00220285 0.04378134 0.00583409
v 0.00131852 0.04312662 0.00607705
v 0.00131852 0.04312662 0.00612110
v 0.00153361 0.04328971 0.00632427
v 0.00159417 0.04332753 0.00689686
v 0.00133619 0.04311008 0.00742967
v 0.00210698 0.04235609 0.00056711
v 0.00170140 0.04162810 0.00018633
v 0.00075399 0.03380930 -0.00111088
v 0.00075399 0.03410947 -0.00109951
v 0.00075399 0.03464128 -0.00107820
v 0.00075399 0.03487528 -0.00106826
v 0.00105297 0.03540709 -0.00103132
v 0.00105297 0.03593890 -0.00099722
v 0.00105297 0.03806851 -0.00077273
v 0.00105297 0.03860032 -0.00069032
v 0.00158471 0.03913213 -0.00061359
v 0.00075399 0.03593890 -0.00100148
v 0.00075399 0.03647071 -0.00095601
v 0.00075399 0.03700489 -0.00089918
v 0.00105297 0.03913213 -0.00057807
v 0.00105297 0.03966631 -0.00045020
v 0.00156074 0.04023830 -0.00036921
v 0.00136709 0.04044393 -0.00027970
v 0.00154875 0.04130428 0.00007124
v 0.00075399 0.04255463 0.00811877
v 0.00105297 0.04285717 0.00742967
v 0.00078049 0.04259954 0.00779482
v 0.00156894 0.04276735 0.00158584
v 0.00131852 0.04206064 0.00077739
v 0.00122013 0.04215754 0.00104308
v 0.00138097 0.04254281 0.00141676
v 0.00154875 0.04180064 0.00039235
v 0.00158471 0.04216227 0.00068362
v 0.00202561 0.04353552 0.00317289
v 0.00172410 0.04322353 0.00264009
v 0.00128446 0.04262554 0.00177054
v 0.00159984 0.04297771 0.00206892
v 0.00122202 0.04267990 0.00210870
v 0.00145792 0.04301080 0.00264009
v 0.00198145 0.04356625 0.00370428
v 0.00195496 0.04358280 0.00423709
v 0.00160174 0.04332517 0.00476990
v 0.00153361 0.04328971 0.00587387
v 0.00132168 0.04312189 0.00572327
v 0.00075399 0.04262554 0.00583125
v 0.00132231 0.04312189 0.00647488
v 0.00075399 0.04262317 0.00636548
v 0.00110596 0.04293517 0.00632427
v 0.00132799 0.04311717 0.00689686
v 0.00134691 0.04150992 0.00025879
v 0.00075399 0.03540709 -0.00104126
v 0.00075399 0.03744688 -0.00084377
v 0.00075399 0.03771397 -0.00080825
v 0.00075399 0.03860032 -0.00064059
v 0.00075399 0.03806851 -0.00074857
v 0.00075399 0.03966631 -0.00036921
v 0.00076661 0.03995466 -0.00029675
v 0.00105297 0.04006575 -0.00033511
v 0.00105297 0.04033284 -0.00022145
v 0.00075399 0.04257590 0.00775930
v 0.00075399 0.04259008 0.00739273
v 0.00110596 0.04174628 0.00067509
v 0.00077986 0.04153592 0.00077029
v 0.00095395 0.04189755 0.00104308
v 0.00083284 0.04201336 0.00140255
v 0.00105865 0.04232300 0.00158726
v 0.00166544 0.04327080 0.00317289
v 0.00075399 0.04210554 0.00175491
v 0.00095584 0.04242936 0.00210870
v 0.00115074 0.04274608 0.00264009
v 0.00139926 0.04305808 0.00317289
v 0.00163012 0.04329916 0.00370428
v 0.00161372 0.04331571 0.00423709
v 0.00133556 0.04311008 0.00476990
v 0.00132736 0.04311717 0.00530128
v 0.00076156 0.04261608 0.00530128
v 0.00075399 0.04260899 0.00530128
v 0.00116083 0.04115301 0.00015507
v 0.00080572 0.04097574 0.00026021
v 0.00101134 0.04130428 0.00036535
v 0.00075399 0.03992157 -0.00030101
v 0.00075399 0.03996648 -0.00028254
v 0.00075399 0.04066611 0.00011245
v 0.00075399 0.04094738 0.00028863
v 0.00075399 0.04147210 0.00074187
v 0.00075399 0.04156428 0.00084985
v 0.00075399 0.04169428 0.00104308
v 0.00075399 0.04194955 0.00145654
v 0.00075399 0.04209609 0.00173502
v 0.00075399 0.04222373 0.00210870
v 0.00088456 0.04249554 0.00264009
v 0.00110848 0.04279099 0.00317289
v 0.00136394 0.04308644 0.00370428
v 0.00134754 0.04310062 0.00423709
v 0.00105297 0.04285717 0.00476990
v 0.00075399 0.04258772 0.00476990
v 0.00075399 0.04236081 0.00264009
v 0.00075399 0.04240100 0.00286600
v 0.00084230 0.04253808 0.00317289
v 0.00107884 0.04281935 0.00370428
v 0.00075399 0.04251208 0.00371138
v 0.00078175 0.04259717 0.00443884
v 0.00075399 0.04254990 0.00411490
v 0.00075399 0.04258536 0.00472017
v 0.00075399 0.04244827 0.00317289
v 0.00075399 0.04246718 0.00331213
v 0.00075399 0.04256881 0.00441469
f 1 2 6
f 1 6 3
f 1 3 4
f 1 4 10
f 1 10 19
f 1 19 21
f 1 21 33
f 1 33 35
f 1 35 53
f 1 53 73
f 1 73 72
f 1 72 71
f 1 71 98
f 1 98 131
f 1 131 133
f 1 133 172
f 1 172 216
f 1 216 218
f 1 218 248
f 1 248 285
f 1 285 333
f 1 333 380
f 1 380 432
f 1 432 431
f 1 431 430
f 1 430 434
f 1 434 504
f 1 504 601
f 1 601 603
f 1 603 677
f 1 677 676
f 1 676 744
f 1 744 807
f 1 807 806
f 1 806 870
f 1 870 919
f 1 919 918
f 1 918 970
f 1 970 969
f 1 969 1017
f 1 1017 1060
f 1 1060 1095
f 1 1095 1096
f 1 1096 1082
f 1 1082 1080
f 1 1080 1112
f 1 1112 1131
f 1 1131 1139
f 1 1139 1142
f 1 1142 1138
f 1 1138 1136
f 1 1136 1141
f 1 1141 1140
f 1 1140 1133
f 1 1133 1132
f 1 1132 1125
f 1 1125 1103
f 1 1103 1124
f 1 1124 1123
f 1 1123 1122
f 1 1122 1121
f 1 1121 1120
f 1 1120 1119
f 1 1119 1118
f 1 1118 1117
f 1 1117 1116
f 1 1116 1091
f 1 1091 1089
f 1 1089 1090
f 1 1090 1088
f 1 1088 1087
f 1 1087 1054
f 1 1054 1053
f 1 1053 1052
f 1 1052 1086
f 1 1086 1046
f 1 1046 1045
f 1 1045 1044
f 1 1044 1043
f 1 1043 993
f 1 993 996
f 1 996 995
f 1 995 999
f 1 999 948
f 1 948 898
f 1 898 845
f 1 845 844
f 1 844 842
f 1 842 843
f 1 843 837
f 1 837 772
f 1 772 716
f 1 716 715
f 1 715 714
f 1 714 646
f 1 646 645
f 1 645 644
f 1 644 643
f 1 643 642
f 1 642 560
f 1 560 559
f 1 559 637
f 1 637 552
f 1 552 551
f 1 551 550
f 1 550 549
f 1 549 548
f 1 548 546
f 1 546 545
f 1 545 608
f 1 608 511
f 1 511 510
f 1 510 509
f 1 509 508
f 1 508 515
f 1 515 514
f 1 514 513
f 1 513 444
f 1 444 443
f 1 443 442
f 1 442 441
f 1 441 440
f 1 440 439
f 1 439 387
f 1 387 386
f 1 386 385
f 1 385 337
f 1 337 336
f 1 336 335
f 1 335 292
f 1 292 291
f 1 291 290
f 1 290 289
f 1 289 288
f 1 288 287
f 1 287 255
f 1 255 254
f 1 254 253
f 1 253 252
f 1 252 251
f 1 251 249
f 1 249 221
f 1 221 220
f 1 220 219
f 1 219 187
f 1 187 186
f 1 186 185
f 1 185 184
f 1 184 182
f 1 182 181
f 1 181 180
f 1 180 179
f 1 179 178
f 1 178 177
f 1 177 144
f 1 144 143
f 1 143 142
f 1 142 176
f 1 176 175
f 1 175 174
f 1 174 134
f 1 134 106
f 1 106 78
f 1 78 57
f 1 57 54
f 1 54 37
f 1 37 36
f 1 36 23
f 1 23 22
f 1 22 11
f 1 11 5
f 1 5 2
f 2 5 6
f 3 7 4
f 3 6 8
f 3 8 7
f 4 7 9
f 4 9 10
f 5 11 6
f 6 11 12
f 6 12 13
f 6 13 14
f 6 14 15
f 6 15 8
f 7 8 9
f 8 16 17
f 8 17 18
f 8 18 9
f 8 15 16
f 9 19 10
f 9 18 20
f 9 20 21
f 9 21 19
f 11 22 12
f 12 22 23
f 12 23 24
f 12 24 27
f 12 27 13
f 13 25 26
f 13 26 16
f 13 16 14
f 13 27 25
f 14 16 15
f 16 28 17
f 16 26 28
f 17 28 29
f 17 29 30
f 17 30 18
f 18 30 31
f 18 31 32
f 18 32 20
f 20 33 21
f 20 32 34
f 20 34 35
f 20 35 33
f 23 36 24
f 24 36 37
f 24 37 38
f 24 38 27
f 25 39 40
f 25 40 28
f 25 28 26
f 25 27 41
f 25 41 39
f 27 38 42
f 27 42 43
f 27 43 41
f 28 40 44
f 28 44 45
f 28 45 29
f 29 45 46
f 29 46 47
f 29 47 48
f 29 48 49
f 29 49 30
f 30 49 50
f 30 50 31
f 31 50 51
f 31 51 32
f 32 51 52
f 32 52 53
f 32 53 34
f 34 53 35
f 37 54 38
f 38 54 42
f 39 41 55
f 39 55 44
f 39 44 40
f 41 43 56
f 41 56 55
f 42 54 57
f 42 57 58
f 42 58 59
f 42 59 43
f 43 59 56
f 44 55 60
f 44 60 61
f 44 61 62
f 44 62 45
f 45 62 63
f 45 63 46
f 46 63 64
f 46 64 47
f 47 64 65
f 47 65 48
f 48 50 49
f 48 65 66
f 48 66 67
f 48 67 50
f 50 67 68
f 50 68 69
f 50 69 51
f 51 69 70
f 51 70 52
f 52 71 72
f 52 72 73
f 52 73 53
f 52 70 74
f 52 74 71
f 55 56 75
f 55 75 60
f 56 59 76
f 56 76 77
f 56 77 75
f 57 78 58
f 58 79 76
f 58 76 59
f 58 78 79
f 60 75 80
f 60 80 81
f 60 81 82
f 60 82 83
f 60 83 84
f 60 84 61
f 61 84 85
f 61 85 62
f 62 85 86
f 62 86 63
f 63 86 87
f 63 87 64
f 64 87 88
f 64 88 65
f 65 88 66
f 66 88 89
f 66 89 90
f 66 90 91
f 66 91 92
f 66 92 67
f 67 92 93
f 67 93 68
f 68 93 94
f 68 94 95
f 68 95 96
f 68 96 69
f 69 96 97
f 69 97 70
f 70 97 74
f 71 74 98
f 74 97 99
f 74 99 98
f 75 77 80
f 76 79 100
f 76 100 101
f 76 101 102
f 76 102 103
f 76 103 104
f 76 104 77
f 77 104 105
f 77 105 80
f 78 106 79
f 79 106 100
f 80 105 81
f 81 105 107
f 81 107 82
f 82 108 109
f 82 109 110
f 82 110 111
f 82 111 84
f 82 84 83
f 82 107 112
f 82 112 113
f 82 113 108
f 84 111 85
f 85 114 115
f 85 115 116
f 85 116 86
f 85 111 110
f 85 110 114
f 86 116 117
f 86 117 87
f 87 117 88
f 88 117 118
f 88 118 119
f 88 119 120
f 88 120 89
f 89 120 90
f 90 120 91
f 91 120 121
f 91 121 122
f 91 122 123
f 91 123 124
f 91 124 125
f 91 125 92
f 92 125 93
f 93 125 94
f 94 125 124
f 94 124 126
f 94 126 127
f 94 127 95
f 95 127 96
f 96 127 128
f 96 128 129
f 96 129 97
f 97 129 130
f 97 130 99
f 98 99 131
f 99 130 132
f 99 132 133
f 99 133 131
f 100 106 134
f 100 134 135
f 100 135 101
f 101 135 102
f 102 136 107
f 102 107 137
f 102 137 105
f 102 105 103
f 102 135 136
f 103 105 104
f 105 137 107
f 107 138 139
f 107 139 113
f 107 113 112
f 107 136 135
f 107 135 140
f 107 140 141
f 107 141 142
f 107 142 143
f 107 143 144
f 107 144 145
f 107 145 146
f 107 146 138
f 108 113 109
f 109 113 147
f 109 147 148
f 109 148 149
f 109 149 110
f 110 149 150
f 110 150 151
f 110 151 116
f 110 116 115
f 110 115 114
f 113 139 152
f 113 152 153
f 113 153 154
f 113 154 155
f 113 155 147
f 116 151 156
f 116 156 117
f 117 156 157
f 117 157 158
f 117 158 118
f 118 158 159
f 118 159 119
f 119 159 120
f 120 159 160
f 120 160 161
f 120 161 121
f 121 161 162
f 121 162 122
f 122 162 163
f 122 163 123
f 123 164 124
f 123 163 165
f 123 165 164
f 124 164 166
f 124 166 126
f 126 166 167
f 126 167 168
f 126 168 129
f 126 129 169
f 126 169 127
f 127 169 128
f 128 169 129
f 129 170 132
f 129 132 130
f 129 168 167
f 129 167 171
f 129 171 170
f 132 172 133
f 132 170 171
f 132 171 173
f 132 173 172
f 134 174 140
f 134 140 135
f 138 146 139
f 139 146 152
f 140 174 175
f 140 175 176
f 140 176 141
f 141 176 142
f 144 177 145
f 145 177 146
f 146 177 178
f 146 178 179
f 146 179 180
f 146 180 181
f 146 181 182
f 146 182 183
f 146 183 184
f 146 184 185
f 146 185 186
f 146 186 187
f 146 187 188
f 146 188 189
f 146 189 190
f 146 190 152
f 147 155 154
f 147 154 191
f 147 191 148
f 148 192 149
f 148 191 192
f 149 192 193
f 149 193 194
f 149 194 195
f 149 195 196
f 149 196 197
f 149 197 198
f 149 198 158
f 149 158 157
f 149 157 156
f 149 156 150
f 150 156 151
f 152 199 153
f 152 190 200
f 152 200 201
f 152 201 199
f 153 202 203
f 153 203 204
f 153 204 154
f 153 199 205
f 153 205 202
f 154 204 192
f 154 192 191
f 158 198 197
f 158 197 159
f 159 197 160
f 160 197 206
f 160 206 161
f 161 206 207
f 161 207 162
f 162 207 208
f 162 208 209
f 162 209 163
f 163 209 210
f 163 210 211
f 163 211 165
f 164 165 211
f 164 211 212
f 164 212 213
f 164 213 166
f 166 213 214
f 166 214 167
f 167 214 215
f 167 215 171
f 171 215 173
f 172 173 216
f 173 215 217
f 173 217 218
f 173 218 216
f 182 184 183
f 187 219 188
f 188 219 189
f 189 219 220
f 189 220 221
f 189 221 222
f 189 222 190
f 190 222 200
f 192 204 223
f 192 223 193
f 193 223 224
f 193 224 225
f 193 225 226
f 193 226 227
f 193 227 228
f 193 228 194
f 194 228 195
f 195 228 229
f 195 229 196
f 196 229 206
f 196 206 197
f 199 201 205
f 200 222 201
f 201 222 230
f 201 230 205
f 202 231 203
f 202 205 232
f 202 232 231
f 203 231 233
f 203 233 234
f 203 234 235
f 203 235 204
f 204 235 234
f 204 234 223
f 205 236 232
f 205 230 236
f 206 229 237
f 206 237 207
f 207 237 208
f 208 237 238
f 208 238 239
f 208 239 209
f 209 239 240
f 209 240 210
f 210 240 241
f 210 241 242
f 210 242 211
f 211 242 243
f 211 243 212
f 212 243 244
f 212 244 213
f 213 244 245
f 213 245 214
f 214 245 215
f 215 246 217
f 215 245 247
f 215 247 246
f 217 248 218
f 217 246 248
f 221 249 222
f 222 250 230
f 222 249 251
f 222 251 252
f 222 252 253
f 222 253 254
f 222 254 255
f 222 255 256
f 222 256 257
f 222 257 250
f 223 234 224
f 224 258 225
f 224 234 259
f 224 259 260
f 224 260 258
f 225 258 261
f 225 261 262
f 225 262 226
f 226 263 227
f 226 262 264
f 226 264 263
f 227 237 229
f 227 229 228
f 227 263 264
f 227 264 265
f 227 265 238
f 227 238 237
f 230 250 266
f 230 266 236
f 231 232 267
f 231 267 268
f 231 268 309
f 231 309 269
f 231 269 270
f 231 270 233
f 232 236 267
f 233 270 317
f 233 317 271
f 233 271 272
f 233 272 259
f 233 259 234
f 236 273 267
f 236 266 274
f 236 274 273
f 238 265 275
f 238 275 239
f 239 276 240
f 239 275 277
f 239 277 278
f 239 278 276
f 240 276 241
f 241 279 242
f 241 276 280
f 241 280 279
f 242 279 243
f 243 279 281
f 243 281 282
f 243 282 245
f 243 245 244
f 245 282 283
f 245 283 247
f 246 247 283
f 246 283 284
f 246 284 285
f 246 285 248
f 250 286 266
f 250 257 286
f 255 287 256
f 256 287 288
f 256 288 257
f 257 288 289
f 257 289 290
f 257 290 291
f 257 291 292
f 257 292 293
f 257 293 294
f 257 294 286
f 258 260 295
f 258 295 296
f 258 296 297
f 258 297 298
f 258 298 299
f 258 299 300
f 258 300 261
f 259 272 301
f 259 301 260
f 260 301 302
f 260 302 303
f 260 303 295
f 261 304 305
f 261 305 306
f 261 306 264
f 261 264 262
f 261 300 304
f 264 306 265
f 265 306 305
f 265 305 307
f 265 307 275
f 266 286 308
f 266 308 274
f 267 273 268
f 268 273 318
f 268 318 309
f 269 309 310
f 269 310 311
f 269 311 312
f 269 312 313
f 269 313 270
f 270 314 315
f 270 315 316
f 270 316 317
f 270 313 314
f 271 317 316
f 271 316 272
f 272 316 355
f 272 355 301
f 273 274 319
f 273 319 318
f 274 308 359
f 274 359 319
f 275 307 320
f 275 320 321
f 275 321 277
f 276 278 280
f 277 321 322
f 277 322 278
f 278 322 323
f 278 323 324
f 278 324 325
f 278 325 280
f 279 280 326
f 279 326 281
f 280 325 326
f 281 326 327
f 281 327 282
f 282 327 328
f 282 328 283
f 283 329 284
f 283 328 330
f 283 330 331
f 283 331 332
f 283 332 329
f 284 329 333
f 284 333 285
f 286 334 359
f 286 359 308
f 286 294 339
f 286 339 334
f 292 335 293
f 293 335 336
f 293 336 337
f 293 337 385
f 293 385 338
f 293 338 339
f 293 339 294
f 295 340 341
f 295 341 296
f 295 303 340
f 296 341 342
f 296 342 343
f 296 343 344
f 296 344 345
f 296 345 346
f 296 346 347
f 296 347 348
f 296 348 349
f 296 349 297
f 297 349 350
f 297 350 298
f 298 350 299
f 299 350 351
f 299 351 352
f 299 352 353
f 299 353 305
f 299 305 354
f 299 354 300
f 300 354 304
f 301 355 356
f 301 356 302
f 302 356 357
f 302 357 303
f 303 357 388
f 303 388 340
f 304 354 305
f 305 353 358
f 305 358 320
f 305 320 307
f 309 318 310
f 310 318 360
f 310 360 311
f 311 360 361
f 311 361 312
f 312 362 313
f 312 361 362
f 313 363 364
f 313 364 314
f 313 362 363
f 314 365 366
f 314 366 315
f 314 364 363
f 314 363 365
f 315 366 367
f 315 367 355
f 315 355 316
f 318 319 360
f 319 359 368
f 319 368 360
f 320 358 321
f 321 358 369
f 321 369 322
f 322 369 370
f 322 370 323
f 323 370 371
f 323 371 324
f 324 372 325
f 324 371 373
f 324 373 374
f 324 374 372
f 325 375 326
f 325 372 375
f 326 375 376
f 326 376 327
f 327 376 328
f 328 376 330
f 329 332 377
f 329 377 378
f 329 378 379
f 329 379 380
f 329 380 333
f 330 376 381
f 330 381 331
f 331 377 332
f 331 381 382
f 331 382 377
f 334 383 368
f 334 368 359
f 334 339 384
f 334 384 383
f 338 385 386
f 338 386 387
f 338 387 384
f 338 384 339
f 340 388 450
f 340 450 389
f 340 389 390
f 340 390 391
f 340 391 342
f 340 342 341
f 342 391 392
f 342 392 393
f 342 393 343
f 343 392 394
f 343 394 395
f 343 395 396
f 343 396 397
f 343 397 398
f 343 398 399
f 343 399 400
f 343 400 401
f 343 401 402
f 343 402 346
f 343 346 345
f 343 345 344
f 343 393 392
f 346 402 403
f 346 403 401
f 346 401 404
f 346 404 405
f 346 405 347
f 347 405 348
f 348 405 406
f 348 406 351
f 348 351 350
f 348 350 349
f 351 406 407
f 351 407 352
f 352 407 408
f 352 408 358
f 352 358 353
f 355 367 356
f 356 367 357
f 357 367 409
f 357 409 388
f 358 408 410
f 358 410 369
f 360 368 411
f 360 411 361
f 361 412 362
f 361 411 413
f 361 413 412
f 362 414 363
f 362 412 415
f 362 415 416
f 362 416 414
f 363 414 417
f 363 417 365
f 365 417 418
f 365 418 366
f 366 419 420
f 366 420 367
f 366 418 419
f 367 420 409
f 368 383 411
f 369 410 370
f 370 410 421
f 370 421 422
f 370 422 371
f 371 422 423
f 371 423 373
f 372 424 375
f 372 374 424
f 373 423 425
f 373 425 426
f 373 426 374
f 374 426 424
f 375 424 376
f 376 424 381
f 377 427 379
f 377 379 378
f 377 382 428
f 377 428 429
f 377 429 427
f 379 430 431
f 379 431 432
f 379 432 380
f 379 427 433
f 379 433 434
f 379 434 430
f 381 424 382
f 382 424 435
f 382 435 436
f 382 436 437
f 382 437 428
f 383 438 411
f 383 384 438
f 384 387 439
f 384 439 440
f 384 440 441
f 384 441 442
f 384 442 443
f 384 443 444
f 384 444 445
f 384 445 438
f 388 409 446
f 388 446 447
f 388 447 448
f 388 448 449
f 388 449 450
f 389 450 523
f 389 523 451
f 389 451 452
f 389 452 453
f 389 453 390
f 390 453 454
f 390 454 392
f 390 392 391
f 392 454 394
f 394 454 395
f 395 455 456
f 395 456 397
f 395 397 396
f 395 454 455
f 397 456 457
f 397 457 458
f 397 458 398
f 398 458 459
f 398 459 460
f 398 460 400
f 398 400 399
f 400 460 401
f 401 461 462
f 401 462 404
f 401 403 402
f 401 460 463
f 401 463 464
f 401 464 465
f 401 465 461
f 404 462 405
f 405 462 406
f 406 462 466
f 406 466 407
f 407 466 408
f 408 466 467
f 408 467 421
f 408 421 410
f 409 468 446
f 409 420 468
f 411 438 413
f 412 413 415
f 413 438 469
f 413 469 415
f 414 470 471
f 414 471 472
f 414 472 417
f 414 416 470
f 415 473 416
f 415 469 474
f 415 474 475
f 415 475 473
f 416 473 476
f 416 476 477
f 416 477 478
f 416 478 479
f 416 479 480
f 416 480 471
f 416 471 470
f 417 481 482
f 417 482 418
f 417 472 471
f 417 471 481
f 418 483 484
f 418 484 485
f 418 485 486
f 418 486 419
f 418 482 483
f 419 487 488
f 419 488 420
f 419 486 487
f 420 488 489
f 420 489 490
f 420 490 491
f 420 491 492
f 420 492 468
f 421 467 493
f 421 493 494
f 421 494 495
f 421 495 422
f 422 495 423
f 423 495 496
f 423 496 497
f 423 497 425
f 424 426 435
f 425 497 426
f 426 498 435
f 426 497 499
f 426 499 500
f 426 500 498
f 427 429 433
f 428 437 501
f 428 501 429
f 429 502 433
f 429 501 502
f 433 502 503
f 433 503 434
f 434 503 504
f 435 498 436
f 436 505 501
f 436 501 437
f 436 498 500
f 436 500 506
f 436 506 507
f 436 507 505
f 438 474 469
f 438 445 508
f 438 508 509
f 438 509 510
f 438 510 511
f 438 511 512
f 438 512 474
f 444 513 445
f 445 513 514
f 445 514 515
f 445 515 508
f 446 468 447
f 447 516 517
f 447 517 448
f 447 468 518
f 447 518 519
f 447 519 516
f 448 517 449
f 449 517 520
f 449 520 521
f 449 521 450
f 450 521 522
f 450 522 523
f 451 523 618
f 451 618 524
f 451 524 452
f 452 524 525
f 452 525 453
f 453 525 455
f 453 455 454
f 455 525 526
f 455 526 456
f 456 526 527
f 456 527 457
f 457 527 528
f 457 528 529
f 457 529 530
f 457 530 458
f 458 530 459
f 459 531 460
f 459 530 532
f 459 532 531
f 460 531 463
f 461 465 533
f 461 533 534
f 461 534 466
f 461 466 462
f 463 531 464
f 464 535 465
f 464 531 536
f 464 536 537
f 464 537 535
f 465 535 533
f 466 534 493
f 466 493 467
f 468 492 538
f 468 538 539
f 468 539 540
f 468 540 541
f 468 541 542
f 468 542 518
f 471 480 481
f 473 475 543
f 473 543 476
f 474 512 475
f 475 512 544
f 475 544 545
f 475 545 546
f 475 546 547
f 475 547 548
f 475 548 549
f 475 549 550
f 475 550 551
f 475 551 552
f 475 552 553
f 475 553 554
f 475 554 476
f 475 476 543
f 476 555 556
f 476 556 557
f 476 557 558
f 476 558 478
f 476 478 477
f 476 554 559
f 476 559 560
f 476 560 561
f 476 561 562
f 476 562 563
f 476 563 564
f 476 564 555
f 478 558 565
f 478 565 566
f 478 566 567
f 478 567 568
f 478 568 480
f 478 480 479
f 480 568 482
f 480 482 481
f 482 569 570
f 482 570 571
f 482 571 572
f 482 572 573
f 482 573 574
f 482 574 575
f 482 575 483
f 482 568 569
f 483 575 484
f 484 576 485
f 484 575 576
f 485 577 578
f 485 578 579
f 485 579 580
f 485 580 581
f 485 581 486
f 485 576 577
f 486 581 487
f 487 581 580
f 487 580 488
f 488 580 582
f 488 582 583
f 488 583 584
f 488 584 489
f 489 584 585
f 489 585 490
f 490 585 583
f 490 583 586
f 490 586 587
f 490 587 588
f 490 588 539
f 490 539 589
f 490 589 491
f 491 589 492
f 492 589 538
f 493 534 533
f 493 533 590
f 493 590 591
f 493 591 592
f 493 592 494
f 494 592 593
f 494 593 495
f 495 593 496
f 496 593 594
f 496 594 499
f 496 499 497
f 499 594 595
f 499 595 596
f 499 596 506
f 499 506 500
f 501 505 502
f 502 597 503
f 502 505 598
f 502 598 599
f 502 599 600
f 502 600 597
f 503 601 504
f 503 597 602
f 503 602 603
f 503 603 601
f 505 507 598
f 506 596 604
f 506 604 605
f 506 605 507
f 507 605 606
f 507 606 607
f 507 607 598
f 511 608 544
f 511 544 512
f 516 519 517
f 517 519 609
f 517 609 520
f 518 542 519
f 519 542 541
f 519 541 610
f 519 610 611
f 519 611 612
f 519 612 613
f 519 613 614
f 519 614 615
f 519 615 609
f 520 609 615
f 520 615 616
f 520 616 521
f 521 616 617
f 521 617 522
f 522 617 618
f 522 618 523
f 524 618 693
f 524 693 619
f 524 619 620
f 524 620 525
f 525 620 526
f 526 620 621
f 526 621 527
f 527 621 622
f 527 622 528
f 528 622 696
f 528 696 623
f 528 623 529
f 529 623 624
f 529 624 530
f 530 624 625
f 530 625 532
f 531 532 536
f 532 625 626
f 532 626 627
f 532 627 536
f 533 535 628
f 533 628 629
f 533 629 590
f 535 537 628
f 536 627 537
f 537 627 630
f 537 630 631
f 537 631 628
f 538 589 539
f 539 632 633
f 539 633 540
f 539 588 632
f 540 633 541
f 541 634 635
f 541 635 636
f 541 636 610
f 541 633 634
f 544 608 545
f 546 548 547
f 552 637 553
f 553 637 559
f 553 559 554
f 555 564 556
f 556 564 638
f 556 638 639
f 556 639 640
f 556 640 557
f 557 640 639
f 557 639 641
f 557 641 565
f 557 565 558
f 560 642 561
f 561 642 643
f 561 643 562
f 562 643 644
f 562 644 563
f 563 644 645
f 563 645 646
f 563 646 564
f 564 646 647
f 564 647 648
f 564 648 649
f 564 649 638
f 565 650 651
f 565 651 652
f 565 652 653
f 565 653 566
f 565 641 654
f 565 654 650
f 566 653 652
f 566 652 655
f 566 655 567
f 567 655 568
f 568 655 656
f 568 656 657
f 568 657 658
f 568 658 659
f 568 659 569
f 569 659 570
f 570 660 571
f 570 659 658
f 570 658 660
f 571 660 572
f 572 660 661
f 572 661 662
f 572 662 574
f 572 574 573
f 574 663 576
f 574 576 664
f 574 664 575
f 574 662 663
f 575 664 576
f 576 663 577
f 577 665 578
f 577 663 666
f 577 666 665
f 578 667 668
f 578 668 579
f 578 665 667
f 579 668 669
f 579 669 583
f 579 583 582
f 579 582 580
f 583 670 671
f 583 671 586
f 583 585 584
f 583 669 670
f 586 671 587
f 587 672 673
f 587 673 588
f 587 671 672
f 588 673 632
f 590 629 591
f 591 595 593
f 591 593 592
f 591 629 631
f 591 631 595
f 593 595 594
f 595 604 596
f 595 631 604
f 597 600 602
f 598 607 599
f 599 607 674
f 599 674 675
f 599 675 602
f 599 602 600
f 602 676 677
f 602 677 603
f 602 675 676
f 604 678 605
f 604 631 679
f 604 679 678
f 605 678 606
f 606 678 680
f 606 680 681
f 606 681 682
f 606 682 683
f 606 683 684
f 606 684 685
f 606 685 607
f 607 685 674
f 610 636 635
f 610 635 611
f 611 635 686
f 611 686 613
f 611 613 612
f 613 686 687
f 613 687 688
f 613 688 614
f 614 688 689
f 614 689 690
f 614 690 615
f 615 690 616
f 616 690 691
f 616 691 617
f 617 691 692
f 617 692 618
f 618 692 693
f 619 693 756
f 619 756 694
f 619 694 621
f 619 621 620
f 621 694 622
f 622 694 695
f 622 695 758
f 622 758 696
f 623 696 697
f 623 697 698
f 623 698 699
f 623 699 624
f 624 699 700
f 624 700 625
f 625 700 701
f 625 701 626
f 626 701 627
f 627 701 702
f 627 702 631
f 627 631 630
f 628 631 629
f 631 702 703
f 631 703 704
f 631 704 679
f 632 673 705
f 632 705 706
f 632 706 633
f 633 706 634
f 634 706 635
f 635 706 707
f 635 707 708
f 635 708 709
f 635 709 710
f 635 710 686
f 638 649 639
f 639 649 711
f 639 711 712
f 639 712 713
f 639 713 654
f 639 654 641
f 646 714 648
f 646 648 647
f 648 715 649
f 648 714 715
f 649 715 716
f 649 716 711
f 650 717 718
f 650 718 719
f 650 719 651
f 650 654 717
f 651 719 652
f 652 719 720
f 652 720 655
f 654 713 721
f 654 721 722
f 654 722 717
f 655 720 723
f 655 723 658
f 655 658 657
f 655 657 656
f 658 723 660
f 660 723 724
f 660 724 725
f 660 725 661
f 661 725 726
f 661 726 727
f 661 727 662
f 662 728 729
f 662 729 663
f 662 727 728
f 663 729 730
f 663 730 666
f 665 666 731
f 665 731 732
f 665 732 667
f 666 730 731
f 667 733 734
f 667 734 735
f 667 735 668
f 667 732 733
f 668 735 736
f 668 736 737
f 668 737 671
f 668 671 670
f 668 670 669
f 671 738 672
f 671 737 739
f 671 739 738
f 672 738 740
f 672 740 741
f 672 741 705
f 672 705 673
f 674 685 742
f 674 742 675
f 675 742 743
f 675 743 676
f 676 743 744
f 678 679 680
f 679 704 680
f 680 682 681
f 680 704 703
f 680 703 702
f 680 702 745
f 680 745 682
f 682 745 746
f 682 746 683
f 683 747 684
f 683 746 747
f 684 747 748
f 684 748 685
f 685 748 742
f 686 710 749
f 686 749 687
f 687 749 750
f 687 750 751
f 687 751 688
f 688 751 689
f 689 751 752
f 689 752 753
f 689 753 754
f 689 754 690
f 690 754 691
f 691 754 692
f 692 754 755
f 692 755 693
f 693 755 756
f 694 756 757
f 694 757 695
f 695 757 820
f 695 820 758
f 696 758 759
f 696 759 697
f 697 759 822
f 697 822 760
f 697 760 761
f 697 761 698
f 698 761 762
f 698 762 763
f 698 763 701
f 698 701 700
f 698 700 699
f 701 763 702
f 702 764 765
f 702 765 745
f 702 763 764
f 705 741 766
f 705 766 767
f 705 767 707
f 705 707 706
f 707 768 708
f 707 767 768
f 708 768 769
f 708 769 709
f 709 769 770
f 709 770 771
f 709 771 749
f 709 749 710
f 711 716 712
f 712 716 772
f 712 772 773
f 712 773 713
f 713 773 721
f 717 774 775
f 717 775 776
f 717 776 718
f 717 722 774
f 718 776 719
f 719 776 775
f 719 775 777
f 719 777 720
f 720 777 778
f 720 778 723
f 721 773 722
f 722 773 779
f 722 779 780
f 722 780 781
f 722 781 782
f 722 782 783
f 722 783 774
f 723 778 724
f 724 778 725
f 725 778 784
f 725 784 785
f 725 785 726
f 726 786 787
f 726 787 727
f 726 785 786
f 727 787 728
f 728 788 789
f 728 789 731
f 728 731 730
f 728 730 729
f 728 787 790
f 728 790 788
f 731 791 732
f 731 789 792
f 731 792 791
f 732 791 793
f 732 793 794
f 732 794 733
f 733 795 796
f 733 796 734
f 733 794 793
f 733 793 797
f 733 797 795
f 734 796 798
f 734 798 799
f 734 799 736
f 734 736 735
f 736 799 800
f 736 800 739
f 736 739 737
f 738 739 800
f 738 800 740
f 740 801 802
f 740 802 766
f 740 766 741
f 740 800 803
f 740 803 801
f 742 804 743
f 742 748 805
f 742 805 804
f 743 804 806
f 743 806 807
f 743 807 744
f 745 765 746
f 746 765 808
f 746 808 809
f 746 809 810
f 746 810 747
f 747 810 811
f 747 811 805
f 747 805 748
f 749 771 750
f 750 812 813
f 750 813 814
f 750 814 751
f 750 771 812
f 751 814 815
f 751 815 752
f 752 815 816
f 752 816 817
f 752 817 753
f 753 818 754
f 753 817 819
f 753 819 818
f 754 818 755
f 755 818 756
f 756 818 757
f 757 818 820
f 758 820 821
f 758 821 759
f 759 821 822
f 760 822 823
f 760 823 824
f 760 824 761
f 761 824 825
f 761 825 826
f 761 826 827
f 761 827 762
f 762 827 826
f 762 826 828
f 762 828 764
f 762 764 763
f 764 828 765
f 765 828 829
f 765 829 808
f 766 830 831
f 766 831 832
f 766 832 768
f 766 768 767
f 766 802 830
f 768 832 833
f 768 833 834
f 768 834 769
f 769 834 770
f 770 835 836
f 770 836 812
f 770 812 771
f 770 834 835
f 772 837 773
f 773 837 779
f 774 783 775
f 775 838 839
f 775 839 777
f 775 783 840
f 775 840 838
f 777 839 841
f 777 841 784
f 777 784 778
f 779 842 780
f 779 837 843
f 779 843 842
f 780 842 844
f 780 844 781
f 781 844 845
f 781 845 846
f 781 846 782
f 782 846 847
f 782 847 840
f 782 840 783
f 784 841 785
f 785 848 786
f 785 841 849
f 785 849 848
f 786 790 787
f 786 848 850
f 786 850 788
f 786 788 790
f 788 851 904
f 788 904 852
f 788 852 792
f 788 792 789
f 788 850 853
f 788 853 854
f 788 854 855
f 788 855 851
f 791 792 852
f 791 852 856
f 791 856 793
f 793 857 797
f 793 856 857
f 795 797 858
f 795 858 859
f 795 859 796
f 796 859 860
f 796 860 861
f 796 861 798
f 797 857 858
f 798 861 862
f 798 862 863
f 798 863 864
f 798 864 799
f 799 864 800
f 800 864 803
f 801 865 866
f 801 866 802
f 801 803 867
f 801 867 865
f 802 866 830
f 803 864 867
f 804 805 806
f 805 811 868
f 805 868 869
f 805 869 870
f 805 870 806
f 808 871 872
f 808 872 809
f 808 829 871
f 809 872 873
f 809 873 810
f 810 873 874
f 810 874 868
f 810 868 811
f 812 875 876
f 812 876 813
f 812 836 835
f 812 835 875
f 813 876 814
f 814 876 877
f 814 877 815
f 815 877 878
f 815 878 816
f 816 878 879
f 816 879 817
f 817 879 880
f 817 880 819
f 818 819 820
f 819 880 821
f 819 821 820
f 821 880 881
f 821 881 882
f 821 882 822
f 822 882 934
f 822 934 883
f 822 883 823
f 823 883 884
f 823 884 885
f 823 885 886
f 823 886 824
f 824 886 887
f 824 887 825
f 825 887 826
f 826 887 888
f 826 888 829
f 826 829 828
f 829 888 871
f 830 866 831
f 831 833 832
f 831 866 889
f 831 889 835
f 831 835 833
f 833 835 834
f 835 890 891
f 835 891 875
f 835 889 892
f 835 892 893
f 835 893 890
f 838 894 895
f 838 895 839
f 838 840 896
f 838 896 894
f 839 895 897
f 839 897 848
f 839 848 849
f 839 849 841
f 840 847 896
f 845 898 846
f 846 898 948
f 846 948 899
f 846 899 896
f 846 896 847
f 848 900 850
f 848 897 901
f 848 901 900
f 850 902 854
f 850 854 853
f 850 900 902
f 851 903 904
f 851 855 905
f 851 905 903
f 852 904 856
f 854 902 905
f 854 905 855
f 856 906 907
f 856 907 857
f 856 904 906
f 857 907 858
f 858 907 908
f 858 908 859
f 859 909 910
f 859 910 860
f 859 908 909
f 860 910 911
f 860 911 861
f 861 911 862
f 862 911 912
f 862 912 913
f 862 913 863
f 863 913 867
f 863 867 864
f 865 867 914
f 865 914 915
f 865 915 866
f 866 915 889
f 867 913 914
f 868 874 916
f 868 916 869
f 869 917 918
f 869 918 919
f 869 919 870
f 869 916 917
f 871 920 921
f 871 921 872
f 871 888 920
f 872 921 922
f 872 922 873
f 873 922 923
f 873 923 874
f 874 923 916
f 875 891 924
f 875 924 925
f 875 925 926
f 875 926 927
f 875 927 928
f 875 928 876
f 876 928 879
f 876 879 877
f 877 879 878
f 879 929 880
f 879 928 930
f 879 930 929
f 880 929 881
f 881 929 931
f 881 931 932
f 881 932 933
f 881 933 882
f 882 933 934
f 883 934 984
f 883 984 935
f 883 935 884
f 884 935 936
f 884 936 937
f 884 937 885
f 885 937 938
f 885 938 921
f 885 921 920
f 885 920 887
f 885 887 886
f 887 920 888
f 889 915 939
f 889 939 892
f 890 893 924
f 890 924 891
f 892 939 940
f 892 940 941
f 892 941 942
f 892 942 893
f 893 942 924
f 894 943 944
f 894 944 895
f 894 896 945
f 894 945 943
f 895 944 946
f 895 946 900
f 895 900 901
f 895 901 897
f 896 899 947
f 896 947 945
f 899 948 947
f 900 949 902
f 900 946 950
f 900 950 949
f 902 951 952
f 902 952 905
f 902 949 951
f 903 953 954
f 903 954 955
f 903 955 956
f 903 956 904
f 903 905 953
f 904 956 957
f 904 957 958
f 904 958 906
f 905 952 953
f 906 958 907
f 907 959 908
f 907 958 959
f 908 959 960
f 908 960 909
f 909 960 961
f 909 961 910
f 910 962 963
f 910 963 911
f 910 961 962
f 911 963 964
f 911 964 912
f 912 965 913
f 912 964 965
f 913 965 914
f 914 965 966
f 914 966 915
f 915 940 939
f 915 966 940
f 916 923 967
f 916 967 968
f 916 968 917
f 917 968 969
f 917 969 970
f 917 970 918
f 921 938 971
f 921 971 922
f 922 971 972
f 922 972 923
f 923 972 967
f 924 973 925
f 924 942 974
f 924 974 973
f 925 973 975
f 925 975 926
f 926 976 977
f 926 977 927
f 926 975 976
f 927 977 930
f 927 930 928
f 929 978 979
f 929 979 931
f 929 930 978
f 930 977 979
f 930 979 978
f 931 979 980
f 931 980 932
f 932 980 981
f 932 981 933
f 933 981 982
f 933 982 983
f 933 983 934
f 934 983 982
f 934 982 984
f 935 984 985
f 935 985 936
f 936 985 986
f 936 986 987
f 936 987 937
f 937 987 988
f 937 988 938
f 938 988 989
f 938 989 990
f 938 990 971
f 940 991 941
f 940 966 992
f 940 992 991
f 941 991 942
f 942 991 974
f 943 993 1043
f 943 1043 994
f 943 994 944
f 943 945 995
f 943 995 996
f 943 996 993
f 944 994 997
f 944 997 998
f 944 998 949
f 944 949 950
f 944 950 946
f 945 947 948
f 945 948 999
f 945 999 995
f 949 1000 1001
f 949 1001 951
f 949 998 1000
f 951 1001 1002
f 951 1002 954
f 951 954 952
f 952 954 953
f 954 1003 1004
f 954 1004 1005
f 954 1005 955
f 954 1002 1006
f 954 1006 1007
f 954 1007 1003
f 955 1005 956
f 956 1005 1008
f 956 1008 1009
f 956 1009 957
f 957 1009 958
f 958 1009 959
f 959 1010 960
f 959 1009 1010
f 960 1010 961
f 961 1010 1011
f 961 1011 962
f 962 1012 963
f 962 1011 1012
f 963 1012 964
f 964 1012 1013
f 964 1013 1014
f 964 1014 965
f 965 1014 992
f 965 992 966
f 967 972 1015
f 967 1015 1016
f 967 1016 968
f 968 1016 1017
f 968 1017 969
f 971 990 1018
f 971 1018 972
f 972 1018 1019
f 972 1019 1020
f 972 1020 1015
f 973 974 1021
f 973 1021 975
f 974 1022 1023
f 974 1023 1021
f 974 991 1024
f 974 1024 1022
f 975 1025 1026
f 975 1026 976
f 975 1021 1027
f 975 1027 1028
f 975 1028 1025
f 976 1026 1029
f 976 1029 1030
f 976 1030 979
f 976 979 977
f 979 1030 980
f 980 1030 1031
f 980 1031 1032
f 980 1032 981
f 981 1032 982
f 982 1032 1076
f 982 1076 1033
f 982 1033 1034
f 982 1034 1035
f 982 1035 984
f 984 1035 985
f 985 1035 1034
f 985 1034 986
f 986 1034 1036
f 986 1036 1037
f 986 1037 1038
f 986 1038 987
f 987 1038 1039
f 987 1039 988
f 988 1039 989
f 989 1039 1084
f 989 1084 1040
f 989 1040 990
f 990 1040 1018
f 991 992 1041
f 991 1041 1024
f 992 1014 1042
f 992 1042 1041
f 994 1043 1044
f 994 1044 1045
f 994 1045 997
f 997 1045 1046
f 997 1046 1047
f 997 1047 1000
f 997 1000 998
f 1000 1047 1001
f 1001 1048 1006
f 1001 1006 1002
f 1001 1047 1048
f 1003 1049 1004
f 1003 1007 1049
f 1004 1050 1051
f 1004 1051 1009
f 1004 1009 1008
f 1004 1008 1005
f 1004 1049 1050
f 1006 1048 1052
f 1006 1052 1053
f 1006 1053 1007
f 1007 1053 1054
f 1007 1054 1049
f 1009 1051 1010
f 1010 1051 1011
f 1011 1051 1050
f 1011 1050 1055
f 1011 1055 1056
f 1011 1056 1057
f 1011 1057 1012
f 1012 1057 1058
f 1012 1058 1013
f 1013 1058 1059
f 1013 1059 1042
f 1013 1042 1014
f 1015 1020 1016
f 1016 1020 1017
f 1017 1020 1060
f 1018 1040 1061
f 1018 1061 1062
f 1018 1062 1019
f 1019 1062 1020
f 1020 1062 1060
f 1021 1023 1027
f 1022 1063 1023
f 1022 1024 1064
f 1022 1064 1065
f 1022 1065 1066
f 1022 1066 1063
f 1023 1063 1027
f 1024 1041 1067
f 1024 1067 1068
f 1024 1068 1064
f 1025 1069 1026
f 1025 1028 1070
f 1025 1070 1069
f 1026 1069 1029
f 1027 1063 1071
f 1027 1071 1072
f 1027 1072 1028
f 1028 1072 1073
f 1028 1073 1074
f 1028 1074 1070
f 1029 1069 1075
f 1029 1075 1031
f 1029 1031 1030
f 1031 1075 1032
f 1032 1075 1076
f 1033 1076 1077
f 1033 1077 1036
f 1033 1036 1078
f 1033 1078 1034
f 1034 1078 1036
f 1036 1077 1079
f 1036 1079 1080
f 1036 1080 1037
f 1037 1081 1039
f 1037 1039 1038
f 1037 1080 1082
f 1037 1082 1083
f 1037 1083 1081
f 1039 1081 1084
f 1040 1084 1082
f 1040 1082 1061
f 1041 1042 1085
f 1041 1085 1067
f 1042 1059 1085
f 1046 1086 1047
f 1047 1086 1048
f 1048 1086 1052
f 1049 1087 1088
f 1049 1088 1050
f 1049 1054 1087
f 1050 1089 1055
f 1050 1088 1090
f 1050 1090 1089
f 1055 1089 1056
f 1056 1091 1092
f 1056 1092 1093
f 1056 1093 1058
f 1056 1058 1057
f 1056 1089 1091
f 1058 1093 1092
f 1058 1092 1094
f 1058 1094 1059
f 1059 1094 1085
f 1060 1062 1095
f 1061 1082 1096
f 1061 1096 1062
f 1062 1096 1095
f 1063 1066 1071
f 1064 1068 1085
f 1064 1085 1097
f 1064 1097 1098
f 1064 1098 1065
f 1065 1098 1099
f 1065 1099 1100
f 1065 1100 1066
f 1066 1100 1101
f 1066 1101 1071
f 1067 1085 1068
f 1069 1070 1102
f 1069 1102 1075
f 1070 1074 1106
f 1070 1106 1102
f 1071 1073 1072
f 1071 1101 1103
f 1071 1103 1104
f 1071 1104 1073
f 1073 1105 1074
f 1073 1104 1126
f 1073 1126 1105
f 1074 1105 1106
f 1075 1102 1107
f 1075 1107 1076
f 1076 1107 1108
f 1076 1108 1077
f 1077 1108 1129
f 1077 1129 1109
f 1077 1109 1110
f 1077 1110 1079
f 1079 1110 1080
f 1080 1111 1112
f 1080 1110 1109
f 1080 1109 1111
f 1081 1083 1084
f 1082 1084 1083
f 1085 1094 1092
f 1085 1092 1113
f 1085 1113 1114
f 1085 1114 1115
f 1085 1115 1097
f 1091 1116 1092
f 1092 1116 1117
f 1092 1117 1118
f 1092 1118 1113
f 1097 1115 1098
f 1098 1115 1114
f 1098 1114 1119
f 1098 1119 1120
f 1098 1120 1121
f 1098 1121 1099
f 1099 1122 1100
f 1099 1121 1122
f 1100 1122 1123
f 1100 1123 1124
f 1100 1124 1101
f 1101 1124 1103
f 1102 1106 1128
f 1102 1128 1107
f 1103 1125 1104
f 1104 1125 1126
f 1105 1127 1106
f 1105 1126 1127
f 1106 1127 1128
f 1107 1128 1108
f 1108 1128 1129
f 1109 1129 1130
f 1109 1130 1111
f 1111 1130 1131
f 1111 1131 1112
f 1113 1118 1114
f 1114 1118 1119
f 1125 1132 1126
f 1126 1132 1133
f 1126 1133 1134
f 1126 1134 1127
f 1127 1135 1128
f 1127 1134 1136
f 1127 1136 1135
f 1128 1137 1129
f 1128 1135 1138
f 1128 1138 1137
f 1129 1137 1131
f 1129 1131 1130
f 1131 1137 1139
f 1133 1140 1134
f 1134 1140 1141
f 1134 1141 1136
f 1135 1136 1138
f 1137 1138 1142
f 1137 1142 1139

