# https://github.com/mikedh/trimesh
v -0.01158405 0.00134316 0.00992938
v -0.01157393 0.00082043 0.00992938
v -0.01146258 0.00101292 0.01037487
v -0.01146258 0.00116833 0.01037487
v -0.01152838 0.00134493 0.01013355
v -0.01152332 0.00187472 0.01003363
v -0.01155874 0.00175817 0.00992938
v -0.01152332 0.00082573 0.01012128
v -0.01150181 0.00044251 0.00992938
v -0.01149801 0.00045134 0.00996365
v -0.01144234 0.00065796 0.01031824
v -0.01109691 0.00134316 0.01115655
v -0.01135630 0.00082573 0.01058120
v -0.01108805 0.00080983 0.01115655
v -0.01144993 0.00152329 0.01033880
v -0.01136515 0.00134493 0.01058120
v -0.01093875 0.00560095 0.01092136
v -0.01092736 0.00590823 0.01089719
v -0.01149042 0.00283718 0.00992938
v -0.01138160 0.00020763 0.00992938
v -0.01136009 0.00027474 0.01012128
v -0.01112095 0.00022882 0.01067246
v -0.01099316 0.00041249 0.01115655
v -0.01092483 0.00054140 0.01142493
v -0.01093622 0.00080983 0.01144296
v -0.01093875 0.00134316 0.01144657
v -0.01092863 0.00168929 0.01143034
v -0.01091724 0.00204426 0.01141194
v -0.01090585 0.00240628 0.01139210
v -0.01088940 0.00293961 0.01136180
v -0.01102985 0.00293961 0.01109559
v -0.01108679 0.00506939 0.01062413
v -0.01104756 0.00560095 0.01062413
v -0.01127405 0.00506939 0.01009170
v -0.01137148 0.00396565 0.01004192
v -0.01141703 0.00385792 0.00992938
v -0.01144487 0.00347117 0.00992938
v -0.01101214 0.00347117 0.01106276
v -0.01099442 0.00400450 0.01102886
v -0.01097671 0.00453606 0.01099495
v -0.01095773 0.00506939 0.01095996
v -0.01079957 0.00560095 0.01118757
v -0.01091091 0.00626143 0.01085787
v -0.01089320 0.00666584 0.01080990
v -0.01091597 0.00843359 0.01033483
v -0.01099569 0.00610425 0.01065804
v -0.01079957 0.00610425 0.01110749
v -0.01038455 0.00898811 0.01141050
v -0.01036936 0.00932541 0.01138128
v -0.01048071 0.00985697 0.01106817
v -0.01045540 0.01039030 0.01101803
v -0.01039214 0.01172715 0.01089142
v -0.01067936 0.00985697 0.01062413
v -0.01110197 -0.00026388 0.00992938
v -0.01106022 -0.00026742 0.01007042
v -0.01099822 -0.00009788 0.01052709
v -0.01091977 0.00001867 0.01088204
v -0.01083246 0.00014759 0.01115655
v -0.01045161 -0.00005197 0.01150248
v -0.01062116 0.00032772 0.01164136
v -0.01043516 0.00047076 0.01200533
v -0.01047565 0.00080983 0.01205186
v -0.01074263 0.00080983 0.01170881
v -0.01075148 0.00134316 0.01171278
v -0.01053385 0.00560095 0.01162801
v -0.01087169 0.00347117 0.01132898
v -0.01123356 0.00560095 0.01009170
v -0.01138034 0.00432414 0.00992938
v -0.01085397 0.00400450 0.01129507
v -0.01081854 0.00506939 0.01122617
v -0.01051108 0.00613251 0.01159879
v -0.01048704 0.00666584 0.01156561
v -0.01041745 0.00826052 0.01146208
v -0.01040100 0.00863314 0.01143719
v -0.01087928 0.00932541 0.01021868
v -0.01119054 0.00613251 0.01009170
v -0.01098936 0.00666584 0.01054369
v -0.00985692 0.01436023 0.01141916
v -0.00978986 0.01572180 0.01131058
v -0.00979365 0.01572180 0.01130409
v -0.01034406 0.00985697 0.01133439
v -0.00993537 0.01572180 0.01103787
v -0.01035418 0.01251831 0.01080052
v -0.01062875 0.01039030 0.01062413
v -0.01043516 0.01305164 0.01047046
v -0.01085650 0.00985697 0.01014509
v -0.01097291 -0.00047227 0.00992938
v -0.01093242 -0.00053232 0.00992938
v -0.01087422 -0.00045285 0.01023347
v -0.01080083 -0.00026742 0.01067246
v -0.01041745 -0.00054821 0.01092677
v -0.01054651 -0.00023916 0.01112517
v -0.01026814 -0.00040693 0.01128172
v -0.01010618 -0.00022857 0.01166445
v -0.01029724 0.00011580 0.01185707
v -0.01009479 0.00030829 0.01219326
v -0.00989235 0.00050255 0.01251250
v -0.01020488 0.00080983 0.01231807
v -0.01022259 0.00134316 0.01232853
v -0.01048577 0.00134316 0.01206232
v -0.01036051 0.00506939 0.01191731
v -0.01034279 0.00560095 0.01189386
v -0.01032128 0.00613251 0.01186465
v -0.01124875 0.00597004 0.00992938
v -0.01133858 0.00484864 0.00992938
v -0.00987210 0.01025608 0.01196961
v -0.01010998 0.00985697 0.01168861
v -0.00989361 0.01358320 0.01147615
v -0.01096279 0.00932541 0.00995247
v -0.01095520 0.00949318 0.00992938
v -0.00950390 0.01572180 0.01173767
v -0.00952035 0.01572180 0.01171314
v -0.01011504 0.01572180 0.01062413
v -0.01011630 0.01571297 0.01062413
v -0.01039467 0.01388165 0.01036621
v -0.01088814 0.01024195 0.00992938
v -0.01090965 0.01000884 0.00992938
v -0.01092356 0.00985697 0.00992938
v -0.01086916 -0.00060472 0.00992938
v -0.01065406 -0.00077955 0.01007691
v -0.01034912 -0.00101266 0.01027495
v -0.01050728 -0.00064357 0.01062413
v -0.00944696 -0.00216409 0.00992938
v -0.01006569 -0.00073364 0.01108838
v -0.00991386 -0.00056410 0.01147146
v -0.00994296 -0.00005020 0.01202589
v -0.00968231 0.00014759 0.01238084
v -0.00954059 0.00030653 0.01258356
v -0.00886619 0.00050255 0.01304673
v -0.00924072 0.00080983 0.01298360
v -0.00959247 0.00080983 0.01278015
v -0.00993790 0.00080983 0.01254929
v -0.00995561 0.00134316 0.01256408
v -0.00981390 0.00560095 0.01244865
v -0.01007708 0.00560095 0.01218244
v -0.01005430 0.00613251 0.01216188
v -0.00991386 0.00932541 0.01201651
v -0.00989108 0.00985697 0.01199054
v -0.00934194 0.01562114 0.01197214
v -0.00933688 0.01572180 0.01196709
v -0.00985439 0.01061105 0.01194797
v -0.01030863 0.01572180 0.01007078
v -0.01033140 0.01517965 0.01016710
v -0.01031622 0.01570414 0.01005239
v -0.01040606 0.01517965 0.00992938
v -0.01044781 -0.00107977 0.00992938
v -0.00930778 -0.00225768 0.00992938
v -0.00986324 -0.00105681 0.01089539
v -0.00932802 0.00001161 0.01248725
v -0.00906105 -0.00002371 0.01252981
v -0.00852835 0.00019174 0.01285374
v -0.00852835 0.00045840 0.01308244
v -0.00852835 0.00080983 0.01323394
v -0.00897374 0.00080983 0.01309759
v -0.00903321 0.00134316 0.01313222
v -0.00930019 0.00134316 0.01300524
v -0.00959247 0.00134316 0.01281659
v -0.00954692 0.00560095 0.01264921
v -0.00978986 0.00613251 0.01242809
v -0.00952415 0.00613251 0.01263406
v -0.00935586 0.00985697 0.01251070
v -0.00933815 0.01023666 0.01249699
v -0.00964435 0.00932541 0.01228272
v -0.00962157 0.00985697 0.01225675
v -0.00910027 0.01572180 0.01220264
v -0.00917745 0.01572180 0.01212581
v -0.01035291 0.01572180 0.00992938
v -0.01036557 0.01559289 0.00992938
v -0.00906105 -0.00231949 0.00992938
v -0.00852835 -0.00007316 0.01258753
v -0.00881052 -0.00105858 0.01142853
v -0.00799566 0.00018291 0.01284617
v -0.00799566 0.00044957 0.01309687
v -0.00799566 0.00080983 0.01329418
v -0.00799566 0.00134316 0.01344244
v -0.00852835 0.00134316 0.01332592
v -0.00852835 0.00187472 0.01332160
v -0.00852835 0.00293961 0.01328769
v -0.00889276 0.00506939 0.01306909
v -0.00887252 0.00560095 0.01305863
v -0.00913823 0.00560095 0.01291542
v -0.00911545 0.00613251 0.01289991
v -0.00906105 0.00879208 0.01277835
v -0.00906105 0.00932541 0.01274625
v -0.00906105 0.00985697 0.01271342
v -0.00859415 0.01572180 0.01263731
v -0.00880292 0.01572180 0.01249338
v -0.00261941 0.01572180 0.00992938
v -0.00852835 -0.00231773 0.00992938
v -0.00852835 -0.00106564 0.01143647
v -0.00799566 -0.00006786 0.01257995
v -0.00818546 -0.00106388 0.01143467
v -0.00761228 0.00049019 0.01306584
v -0.00762746 -0.00002901 0.01253342
v -0.00744652 0.00077628 0.01319138
v -0.00746424 0.00134316 0.01345362
v -0.00747183 0.00185530 0.01353622
v -0.00799566 0.00187472 0.01346733
v -0.00799566 0.00240628 0.01345578
v -0.00799566 0.00293961 0.01344171
v -0.00799566 0.00347117 0.01342765
v -0.00799566 0.00400450 0.01341322
v -0.00799566 0.00506939 0.01338436
v -0.00799566 0.00560095 0.01336957
v -0.00799566 0.00613251 0.01335442
v -0.00799566 0.00666584 0.01333891
v -0.00799566 0.00719563 0.01332268
v -0.00799566 0.00772896 0.01330608
v -0.00852835 0.00400450 0.01325306
v -0.00852835 0.00506939 0.01321771
v -0.00884848 0.00613251 0.01304709
v -0.00879154 0.00743227 0.01301787
v -0.00852835 0.00560095 0.01319895
v -0.00852835 0.00613251 0.01317875
v -0.00851064 0.00772896 0.01312392
v -0.00848407 0.00826052 0.01311382
v -0.00874978 0.00826052 0.01299839
v -0.00872321 0.00879208 0.01298504
v -0.00869411 0.00932541 0.01297097
v -0.00852835 0.01411652 0.01278304
v -0.00852835 0.01464809 0.01275057
v -0.00852835 0.01517965 0.01271667
v -0.00857770 0.01572180 0.01264849
v -0.00049624 0.01572180 0.01122545
v 0.00009971 0.01410063 0.00992938
v -0.00800073 -0.00231066 0.00992938
v -0.00768946 -0.00053408 0.01197178
v -0.00744273 0.00026767 0.01276176
v -0.00725800 0.00057672 0.01298973
v -0.00727191 0.00004516 0.01245334
v -0.00746424 -0.00222589 0.00992938
v -0.00733391 -0.00047051 0.01189386
v -0.00693155 0.00095641 0.01310516
v -0.00693155 0.00134316 0.01332520
v -0.00693155 0.00177406 0.01350556
v -0.00693155 0.00204072 0.01356400
v -0.00729975 0.00202130 0.01356436
v -0.00759836 0.00240628 0.01353370
v -0.00746424 0.00613251 0.01347093
v -0.00746424 0.00666584 0.01345759
v -0.00746424 0.00719563 0.01344352
v -0.00746424 0.00772896 0.01342909
v -0.00693155 0.01571297 0.01332376
v -0.00746424 0.01571297 0.01319065
v -0.00799566 0.00826052 0.01328805
v -0.00826011 0.01276555 0.01301823
v -0.00799566 0.00879208 0.01326893
v -0.00799566 0.00932541 0.01324945
v -0.00799566 0.00985697 0.01322925
v -0.00783244 0.01571297 0.01306368
v -0.00824366 0.01305164 0.01301174
v -0.00818419 0.01411652 0.01298612
v -0.00866627 0.00985697 0.01295582
v -0.00809815 0.01572180 0.01294140
v -0.00046334 0.01572180 0.01162982
v -0.00027228 0.01552931 0.01140184
v 0.00036796 0.01393816 0.00992938
v -0.00693155 0.00014582 0.01235342
v -0.00693155 0.00041072 0.01262072
v -0.00693155 0.00068974 0.01288693
v -0.00664939 0.00106237 0.01303121
v -0.00693155 -0.00037338 0.01178637
v -0.00693155 -0.00010671 0.01208757
v -0.00639886 -0.00170670 0.00992938
v -0.00693155 -0.00060295 0.01152088
v -0.00644314 0.00138554 0.01310697
v -0.00644314 0.00192064 0.01338833
v -0.00629637 0.00228973 0.01350015
v -0.00665065 0.00212726 0.01355498
v -0.00644314 0.00244337 0.01357302
v -0.00639886 0.00293961 0.01360945
v -0.00693155 0.00240628 0.01358997
v -0.00733138 0.00240628 0.01356905
v -0.00729342 0.00293961 0.01356472
v -0.00720106 0.00430295 0.01355210
v -0.00746424 0.00506939 0.01349546
v -0.00746424 0.00560095 0.01348356
v -0.00639886 0.01572180 0.01339879
v -0.00693155 0.01572180 0.01332340
v -0.00746424 0.01572180 0.01319029
v -0.00782611 0.01572180 0.01306512
v -0.00783118 0.01572180 0.01306332
v -0.00046461 0.01572180 0.01164244
v -0.00027228 0.01552931 0.01143214
v 0.00070453 0.01342073 0.00992938
v 0.00066404 0.01350020 0.00992938
v 0.00062355 0.01356200 0.00992938
v -0.00662535 -0.00001841 0.01198765
v -0.00662535 0.00051138 0.01251719
v -0.00626980 0.00066679 0.01237362
v -0.00093403 0.00491398 0.01185923
v -0.00074424 0.00526894 0.01200713
v -0.00134526 0.00533605 0.01248617
v -0.00664812 -0.00053232 0.01143647
v -0.00533474 -0.00084666 0.00992938
v -0.00606988 -0.00004137 0.01148192
v -0.00645959 -0.00020737 0.01163667
v -0.00290917 0.00477623 0.01303482
v -0.00610784 0.00264292 0.01355967
v -0.00238660 0.00531309 0.01302869
v -0.00590539 0.00299082 0.01357121
v -0.00693155 0.00293961 0.01359863
v -0.00586617 0.00347117 0.01359863
v -0.00639886 0.00347117 0.01361378
v -0.00693155 0.00347117 0.01358925
v -0.00716436 0.00465791 0.01354885
v -0.00586617 0.01571297 0.01342476
v -0.00586617 0.01572180 0.01342440
v -0.00711881 0.00506939 0.01354488
v -0.00669114 0.00652809 0.01355390
v -0.00076828 0.01572180 0.01199667
v -0.00046208 0.01570944 0.01164136
v 0.00028192 0.01305164 0.01093290
v 0.00026420 0.01342779 0.01090693
v 0.00024649 0.01378275 0.01087807
v 0.00037175 0.01359732 0.01066994
v 0.00075387 0.01322823 0.00992938
v -0.00023559 0.01464809 0.01147651
v 0.00015412 0.01145342 0.01129831
v 0.00035404 0.01145342 0.01103210
v 0.00033126 0.01198675 0.01100180
v -0.00627106 0.00012640 0.01183651
v -0.00644820 0.00031889 0.01218064
v -0.00606608 0.00048136 0.01201867
v -0.00071640 0.00471796 0.01150465
v -0.00055318 0.00507645 0.01168248
v -0.00019257 0.00524069 0.01150537
v -0.00038996 0.00548439 0.01185996
v -0.00055824 0.00563627 0.01208036
v -0.00105930 0.00554797 0.01239022
v -0.00122505 0.00569101 0.01255110
v 0.00005037 0.00421642 0.00992938
v -0.00013563 0.00413341 0.01009170
v -0.00023939 0.00423054 0.01041022
v -0.00038616 0.00436476 0.01076517
v -0.00019383 0.00471972 0.01098557
v -0.00055191 0.00454136 0.01115186
v -0.00092138 0.00436299 0.01131815
v -0.00559666 0.00320097 0.01355246
v -0.00206521 0.00560095 0.01293562
v -0.00233219 0.00560095 0.01304564
v -0.00267382 0.00560095 0.01315458
v -0.00320651 0.00506939 0.01323610
v -0.00551441 0.00347117 0.01356544
v -0.00503866 0.00421642 0.01355606
v -0.00532082 0.00402392 0.01357230
v -0.00586617 0.00400450 0.01360260
v -0.00661396 0.00688129 0.01355029
v -0.00673416 0.00613251 0.01355751
v -0.00533474 0.01572180 0.01341719
v -0.00585858 0.01572180 0.01342440
v -0.00011286 0.01145342 0.01159879
v -0.00013184 0.01198675 0.01158148
v -0.00017106 0.01305164 0.01154505
v -0.00019257 0.01358320 0.01152449
v -0.00021408 0.01411652 0.01150104
v -0.00107701 0.01572180 0.01225350
v -0.00075183 0.01517965 0.01201146
v 0.00030849 0.00666584 0.01148084
v 0.00060710 0.01145342 0.01062413
v 0.00078551 0.01118499 0.01035756
v 0.00071591 0.01251831 0.01020028
v 0.00068934 0.01305164 0.01012994
v 0.00077159 0.01145342 0.01032762
v 0.00074375 0.01198675 0.01026593
v 0.00077412 0.01305164 0.00992938
v 0.00017184 0.01092186 0.01132356
v 0.00037428 0.01092186 0.01105735
v 0.00076906 0.00719563 0.01086473
v 0.00075008 0.00772896 0.01083587
v 0.00067669 0.00985697 0.01071250
v 0.00065898 0.01039030 0.01067824
v -0.00036212 0.00488572 0.01134016
v 0.00031735 0.00525835 0.01096826
v 0.00016298 0.00546497 0.01132320
v -0.00004959 0.00565216 0.01165615
v -0.00001543 0.00507115 0.01115439
v -0.00026090 0.00583936 0.01196925
v -0.00089734 0.00613251 0.01243530
v -0.00116432 0.00613251 0.01258428
v -0.00160970 0.00613251 0.01279891
v 0.00017943 0.00434357 0.00992938
v 0.00013135 0.00439301 0.01009170
v 0.00029077 0.00476211 0.01041419
v -0.00003820 0.00456432 0.01058986
v 0.00016171 0.00490338 0.01076914
v -0.00427063 0.00453606 0.01343414
v -0.00513356 0.00386145 0.01354019
v -0.00203105 0.00613251 0.01296737
v -0.00229676 0.00613251 0.01305466
v -0.00320651 0.00560095 0.01329707
v -0.00373920 0.00506939 0.01338328
v -0.00267382 0.00613251 0.01316540
v -0.00503866 0.00443363 0.01355606
v -0.00427063 0.00506939 0.01347851
v -0.00528540 0.00458197 0.01356652
v -0.00480332 0.01572180 0.01338400
v 0.00027306 0.00772896 0.01144368
v 0.00018828 0.01039030 0.01134449
v -0.00073538 0.01464809 0.01202408
v -0.00135791 0.01572180 0.01247787
v -0.00024571 0.00666584 0.01198116
v 0.00002127 0.00666584 0.01174705
v 0.00002380 0.00613251 0.01174453
v 0.00030596 0.00613251 0.01147867
v 0.00079310 0.00632853 0.01090080
v 0.00079310 0.00650513 0.01090080
v 0.00061343 0.00667467 0.01110930
v 0.00066910 0.01097307 0.01058553
v 0.00127644 0.00737223 0.00992938
v 0.00126126 0.00757002 0.00992938
v 0.00100820 0.00985697 0.01009170
v 0.00089559 0.01097307 0.01014473
v 0.00088800 0.01145342 0.01006140
v 0.00079942 0.01083003 0.01038208
v 0.00122077 0.00666584 0.01015663
v 0.00130048 0.00705612 0.00992938
v 0.00086016 0.01198675 0.00999972
v 0.00083106 0.01251831 0.00993407
v 0.00082853 0.01255539 0.00992938
v 0.00092469 0.00667467 0.01067282
v 0.00093355 0.00719563 0.01059852
v 0.00085636 0.00932541 0.01047840
v 0.00083612 0.00985697 0.01044665
v 0.00081587 0.01039030 0.01041202
v 0.00079310 0.00532545 0.01036946
v 0.00069187 0.00560095 0.01075327
v 0.00040718 0.00562567 0.01115006
v 0.00048183 0.00511354 0.01056930
v 0.00028065 0.00581993 0.01145198
v -0.00024318 0.00613251 0.01198332
v -0.00054559 0.00613251 0.01219831
v -0.00054559 0.00666584 0.01219254
v -0.00090493 0.00666584 0.01243206
v -0.00117191 0.00666584 0.01258140
v -0.00160970 0.00666584 0.01278989
v -0.00214239 0.01572180 0.01286168
v 0.00030469 0.00447425 0.00992938
v 0.00038694 0.00465791 0.01009170
v 0.00065265 0.00496166 0.01009170
v -0.00249794 0.01572180 0.01299334
v -0.00373920 0.00560095 0.01339807
v -0.00320651 0.00613251 0.01329490
v -0.00275986 0.01572180 0.01306657
v -0.00276366 0.01571297 0.01306765
v -0.00480332 0.00506939 0.01353009
v -0.00427063 0.00560095 0.01347238
v -0.00427063 0.01572180 0.01332989
v -0.00161983 0.01572180 0.01261891
v 0.00060710 0.00614487 0.01110930
v 0.00077412 0.00597357 0.01087339
v 0.00092595 0.00614487 0.01066705
v 0.00122203 0.00613251 0.01016818
v 0.00111828 0.00932541 0.00992938
v 0.00096518 0.01039030 0.01009170
v 0.00102971 0.01039030 0.00992938
v 0.00098036 0.01095365 0.00992938
v 0.00093608 0.01145342 0.00992938
v 0.00132958 0.00666584 0.00992938
v 0.00133971 0.00613251 0.00992938
v 0.00083232 0.01251831 0.00992938
v 0.00088420 0.01198675 0.00992938
v 0.00081081 0.00504996 0.00992938
v 0.00086522 0.00522832 0.01009170
v 0.00098416 0.00529367 0.00992938
v 0.00116130 0.00557799 0.00992938
v 0.00112714 0.00562920 0.01006501
v 0.00087155 0.00560095 0.01048705
v -0.00213354 0.01572180 0.01285771
v 0.00055649 0.00474798 0.00992938
v 0.00069694 0.00490868 0.00992938
v -0.00320651 0.01572180 0.01316252
v -0.00373034 0.01572180 0.01325342
v -0.00373920 0.01572180 0.01325486
v 0.00127391 0.00576518 0.00992938
v 0.00089812 0.00517181 0.00992938
f 1 2 3
f 1 3 4
f 1 4 5
f 1 5 6
f 1 6 7
f 1 7 19
f 1 19 37
f 1 37 36
f 1 36 68
f 1 68 105
f 1 105 104
f 1 104 110
f 1 110 118
f 1 118 117
f 1 117 116
f 1 116 145
f 1 145 168
f 1 168 167
f 1 167 188
f 1 188 225
f 1 225 257
f 1 257 287
f 1 287 286
f 1 286 285
f 1 285 317
f 1 317 366
f 1 366 420
f 1 420 461
f 1 461 462
f 1 462 458
f 1 458 457
f 1 457 456
f 1 456 454
f 1 454 411
f 1 411 410
f 1 410 417
f 1 417 459
f 1 459 460
f 1 460 475
f 1 475 466
f 1 466 465
f 1 465 476
f 1 476 463
f 1 463 471
f 1 471 470
f 1 470 438
f 1 438 382
f 1 382 332
f 1 332 295
f 1 295 264
f 1 264 231
f 1 231 226
f 1 226 189
f 1 189 169
f 1 169 147
f 1 147 123
f 1 123 146
f 1 146 119
f 1 119 88
f 1 88 87
f 1 87 54
f 1 54 20
f 1 20 9
f 1 9 2
f 2 8 3
f 2 9 10
f 2 10 11
f 2 11 8
f 3 12 4
f 3 8 11
f 3 11 13
f 3 13 14
f 3 14 12
f 4 15 5
f 4 12 16
f 4 16 17
f 4 17 18
f 4 18 15
f 5 15 19
f 5 19 6
f 6 19 7
f 9 20 10
f 10 20 21
f 10 21 22
f 10 22 11
f 11 22 23
f 11 23 24
f 11 24 13
f 12 14 25
f 12 25 26
f 12 26 27
f 12 27 28
f 12 28 29
f 12 29 30
f 12 30 31
f 12 31 16
f 13 24 14
f 14 24 25
f 15 18 32
f 15 32 33
f 15 33 34
f 15 34 35
f 15 35 36
f 15 36 37
f 15 37 19
f 16 31 38
f 16 38 39
f 16 39 40
f 16 40 41
f 16 41 17
f 17 41 70
f 17 70 42
f 17 42 18
f 18 43 44
f 18 44 45
f 18 45 46
f 18 46 33
f 18 33 32
f 18 42 47
f 18 47 48
f 18 48 49
f 18 49 50
f 18 50 51
f 18 51 52
f 18 52 53
f 18 53 43
f 20 54 55
f 20 55 21
f 21 55 56
f 21 56 22
f 22 56 57
f 22 57 23
f 23 57 24
f 24 57 58
f 24 58 59
f 24 59 60
f 24 60 61
f 24 61 62
f 24 62 63
f 24 63 25
f 25 63 64
f 25 64 26
f 26 64 27
f 27 64 65
f 27 65 28
f 28 65 29
f 29 65 30
f 30 65 66
f 30 66 38
f 30 38 31
f 33 46 67
f 33 67 34
f 34 67 36
f 34 36 35
f 36 67 68
f 38 66 69
f 38 69 39
f 39 69 40
f 40 69 70
f 40 70 41
f 42 70 71
f 42 71 72
f 42 72 73
f 42 73 74
f 42 74 47
f 43 53 44
f 44 53 45
f 45 53 75
f 45 75 76
f 45 76 77
f 45 77 46
f 46 76 67
f 46 77 76
f 47 74 48
f 48 74 78
f 48 78 49
f 49 78 79
f 49 79 80
f 49 80 81
f 49 81 50
f 50 81 82
f 50 82 51
f 51 82 52
f 52 82 83
f 52 83 84
f 52 84 53
f 53 84 85
f 53 85 86
f 53 86 75
f 54 87 55
f 55 87 88
f 55 88 89
f 55 89 56
f 56 89 57
f 57 89 90
f 57 90 91
f 57 91 92
f 57 92 59
f 57 59 58
f 59 92 91
f 59 91 93
f 59 93 94
f 59 94 95
f 59 95 60
f 60 95 61
f 61 95 96
f 61 96 97
f 61 97 98
f 61 98 62
f 62 98 99
f 62 99 100
f 62 100 63
f 63 100 64
f 64 100 101
f 64 101 102
f 64 102 65
f 65 102 103
f 65 103 71
f 65 71 70
f 65 70 69
f 65 69 66
f 67 76 104
f 67 104 105
f 67 105 68
f 71 103 72
f 72 103 73
f 73 106 107
f 73 107 74
f 73 103 106
f 74 107 108
f 74 108 78
f 75 86 109
f 75 109 76
f 76 109 110
f 76 110 104
f 78 108 111
f 78 111 112
f 78 112 79
f 79 112 111
f 79 111 140
f 79 140 166
f 79 166 165
f 79 165 187
f 79 187 186
f 79 186 223
f 79 223 254
f 79 254 282
f 79 282 281
f 79 281 280
f 79 280 279
f 79 279 278
f 79 278 308
f 79 308 351
f 79 351 350
f 79 350 397
f 79 397 448
f 79 448 474
f 79 474 473
f 79 473 472
f 79 472 444
f 79 444 441
f 79 441 437
f 79 437 469
f 79 469 449
f 79 449 401
f 79 401 357
f 79 357 311
f 79 311 283
f 79 283 255
f 79 255 224
f 79 224 188
f 79 188 167
f 79 167 142
f 79 142 113
f 79 113 82
f 79 82 80
f 80 82 81
f 82 113 114
f 82 114 83
f 83 114 85
f 83 85 84
f 85 114 115
f 85 115 86
f 86 116 117
f 86 117 118
f 86 118 109
f 86 115 116
f 88 119 89
f 89 119 120
f 89 120 121
f 89 121 122
f 89 122 90
f 90 122 91
f 91 122 123
f 91 123 124
f 91 124 93
f 93 124 125
f 93 125 94
f 94 126 95
f 94 125 126
f 95 126 96
f 96 126 97
f 97 126 127
f 97 127 128
f 97 128 129
f 97 129 130
f 97 130 131
f 97 131 132
f 97 132 98
f 98 132 133
f 98 133 99
f 99 133 134
f 99 134 135
f 99 135 100
f 100 135 101
f 101 135 102
f 102 135 136
f 102 136 137
f 102 137 138
f 102 138 103
f 103 138 106
f 106 138 139
f 106 139 140
f 106 140 141
f 106 141 107
f 107 141 111
f 107 111 108
f 109 118 110
f 111 141 140
f 113 142 114
f 114 142 143
f 114 143 115
f 115 143 116
f 116 143 144
f 116 144 145
f 119 146 120
f 120 146 121
f 121 146 123
f 121 123 122
f 123 147 125
f 123 125 148
f 123 148 124
f 124 148 125
f 125 147 149
f 125 149 126
f 126 149 127
f 127 149 128
f 128 149 129
f 129 149 150
f 129 150 151
f 129 151 152
f 129 152 153
f 129 153 154
f 129 154 130
f 130 154 155
f 130 155 156
f 130 156 131
f 131 156 157
f 131 157 132
f 132 157 133
f 133 157 158
f 133 158 134
f 134 159 136
f 134 136 135
f 134 158 160
f 134 160 161
f 134 161 162
f 134 162 159
f 136 159 137
f 137 163 164
f 137 164 138
f 137 159 163
f 138 164 165
f 138 165 139
f 139 165 166
f 139 166 140
f 142 167 144
f 142 144 143
f 144 168 145
f 144 167 168
f 147 169 150
f 147 150 149
f 150 170 151
f 150 169 171
f 150 171 170
f 151 172 173
f 151 173 152
f 151 170 172
f 152 173 174
f 152 174 153
f 153 174 175
f 153 175 176
f 153 176 154
f 154 176 155
f 155 176 177
f 155 177 178
f 155 178 179
f 155 179 156
f 156 179 180
f 156 180 181
f 156 181 157
f 157 181 158
f 158 181 160
f 159 162 163
f 160 181 182
f 160 182 183
f 160 183 184
f 160 184 185
f 160 185 161
f 161 185 186
f 161 186 187
f 161 187 162
f 162 187 164
f 162 164 163
f 164 187 165
f 169 189 190
f 169 190 171
f 170 191 172
f 170 171 190
f 170 190 192
f 170 192 191
f 172 193 173
f 172 191 194
f 172 194 193
f 173 193 174
f 174 195 196
f 174 196 175
f 174 193 195
f 175 196 197
f 175 197 198
f 175 198 176
f 176 198 177
f 177 198 199
f 177 199 200
f 177 200 201
f 177 201 202
f 177 202 203
f 177 203 204
f 177 204 205
f 177 205 206
f 177 206 207
f 177 207 208
f 177 208 178
f 178 209 179
f 178 208 209
f 179 209 210
f 179 210 180
f 180 211 212
f 180 212 181
f 180 210 213
f 180 213 214
f 180 214 215
f 180 215 216
f 180 216 211
f 181 212 217
f 181 217 182
f 182 217 218
f 182 218 183
f 183 218 219
f 183 219 184
f 184 219 220
f 184 220 221
f 184 221 185
f 185 221 222
f 185 222 223
f 185 223 186
f 188 224 225
f 189 226 192
f 189 192 190
f 191 227 194
f 191 192 226
f 191 226 227
f 193 194 228
f 193 228 229
f 193 229 195
f 194 230 228
f 194 227 231
f 194 231 232
f 194 232 230
f 195 233 234
f 195 234 196
f 195 229 233
f 196 234 235
f 196 235 236
f 196 236 237
f 196 237 197
f 197 237 198
f 198 237 238
f 198 238 199
f 199 238 239
f 199 239 240
f 199 240 200
f 200 240 201
f 201 240 241
f 201 241 242
f 201 242 202
f 202 242 203
f 203 242 204
f 204 242 243
f 204 243 205
f 205 243 206
f 206 243 207
f 207 243 244
f 207 244 208
f 208 244 245
f 208 245 210
f 208 210 209
f 210 245 213
f 211 216 212
f 212 216 246
f 212 246 217
f 213 245 247
f 213 247 248
f 213 248 249
f 213 249 214
f 214 249 216
f 214 216 215
f 216 249 250
f 216 250 246
f 217 246 218
f 218 246 251
f 218 251 252
f 218 252 219
f 219 253 220
f 219 252 253
f 220 254 221
f 220 253 254
f 221 254 222
f 222 254 223
f 224 255 256
f 224 256 257
f 224 257 225
f 226 231 227
f 228 230 229
f 229 230 258
f 229 258 259
f 229 259 260
f 229 260 261
f 229 261 233
f 230 232 262
f 230 262 263
f 230 263 258
f 231 264 265
f 231 265 232
f 232 265 262
f 233 261 234
f 234 266 267
f 234 267 268
f 234 268 235
f 234 261 266
f 235 268 269
f 235 269 236
f 236 269 270
f 236 270 271
f 236 271 272
f 236 272 237
f 237 272 273
f 237 273 238
f 238 273 274
f 238 274 275
f 238 275 276
f 238 276 277
f 238 277 239
f 239 277 243
f 239 243 240
f 240 243 241
f 241 243 242
f 243 277 275
f 243 275 278
f 243 278 279
f 243 279 280
f 243 280 244
f 244 280 250
f 244 250 248
f 244 248 247
f 244 247 245
f 246 250 251
f 248 250 249
f 250 280 281
f 250 281 282
f 250 282 254
f 250 254 252
f 250 252 251
f 252 254 253
f 255 283 284
f 255 284 256
f 256 285 286
f 256 286 287
f 256 287 257
f 256 284 285
f 258 263 288
f 258 288 259
f 259 289 260
f 259 288 289
f 260 289 261
f 261 289 290
f 261 290 291
f 261 291 292
f 261 292 293
f 261 293 266
f 262 265 294
f 262 294 263
f 263 294 288
f 264 295 296
f 264 296 297
f 264 297 288
f 264 288 294
f 264 294 265
f 266 293 298
f 266 298 267
f 267 298 268
f 268 299 269
f 268 298 300
f 268 300 299
f 269 299 270
f 270 299 301
f 270 301 271
f 271 302 272
f 271 301 303
f 271 303 304
f 271 304 302
f 272 302 273
f 273 302 274
f 274 302 275
f 275 277 276
f 275 302 305
f 275 305 306
f 275 306 278
f 278 307 308
f 278 306 309
f 278 309 310
f 278 310 307
f 283 311 312
f 283 312 284
f 284 313 314
f 284 314 315
f 284 315 316
f 284 316 317
f 284 317 285
f 284 312 318
f 284 318 319
f 284 319 320
f 284 320 321
f 284 321 313
f 288 297 296
f 288 296 322
f 288 322 323
f 288 323 289
f 289 323 290
f 290 323 324
f 290 324 325
f 290 325 291
f 291 325 326
f 291 326 292
f 292 326 327
f 292 327 328
f 292 328 329
f 292 329 293
f 293 329 330
f 293 330 331
f 293 331 300
f 293 300 298
f 295 332 333
f 295 333 334
f 295 334 335
f 295 335 336
f 295 336 337
f 295 337 338
f 295 338 325
f 295 325 296
f 296 324 322
f 296 325 324
f 299 300 339
f 299 339 301
f 300 331 340
f 300 340 341
f 300 341 342
f 300 342 343
f 300 343 339
f 301 339 344
f 301 344 303
f 302 304 310
f 302 310 305
f 303 344 345
f 303 345 346
f 303 346 347
f 303 347 304
f 304 348 310
f 304 347 307
f 304 307 348
f 305 310 349
f 305 349 306
f 306 349 310
f 306 310 309
f 307 350 351
f 307 351 308
f 307 310 348
f 307 347 350
f 311 352 353
f 311 353 354
f 311 354 355
f 311 355 356
f 311 356 312
f 311 357 358
f 311 358 359
f 311 359 352
f 312 356 318
f 313 321 360
f 313 360 314
f 314 360 361
f 314 361 315
f 315 361 316
f 316 362 363
f 316 363 317
f 316 361 364
f 316 364 365
f 316 365 362
f 317 363 366
f 318 356 319
f 319 367 368
f 319 368 320
f 319 356 355
f 319 355 367
f 320 368 369
f 320 369 370
f 320 370 371
f 320 371 372
f 320 372 321
f 321 372 360
f 322 324 323
f 325 338 337
f 325 337 373
f 325 373 326
f 326 373 327
f 327 374 375
f 327 375 376
f 327 376 328
f 327 373 377
f 327 377 374
f 328 376 378
f 328 378 329
f 329 378 330
f 330 378 331
f 331 378 379
f 331 379 380
f 331 380 381
f 331 381 340
f 332 382 383
f 332 383 333
f 333 383 334
f 334 383 384
f 334 384 385
f 334 385 336
f 334 336 335
f 336 385 386
f 336 386 374
f 336 374 377
f 336 377 373
f 336 373 337
f 339 343 387
f 339 387 388
f 339 388 344
f 340 381 341
f 341 381 389
f 341 389 390
f 341 390 342
f 342 391 392
f 342 392 343
f 342 390 393
f 342 393 391
f 343 392 387
f 344 388 345
f 345 394 346
f 345 388 392
f 345 392 395
f 345 395 394
f 346 394 347
f 347 394 396
f 347 396 350
f 350 396 394
f 350 394 397
f 352 359 353
f 353 359 398
f 353 398 399
f 353 399 367
f 353 367 354
f 354 367 355
f 357 400 358
f 357 401 402
f 357 402 400
f 358 400 403
f 358 403 359
f 359 403 404
f 359 404 405
f 359 405 406
f 359 406 407
f 359 407 408
f 359 408 398
f 360 372 409
f 360 409 361
f 361 410 411
f 361 411 412
f 361 412 413
f 361 413 414
f 361 414 364
f 361 409 415
f 361 415 416
f 361 416 417
f 361 417 410
f 362 365 418
f 362 418 363
f 363 418 419
f 363 419 366
f 364 414 418
f 364 418 365
f 366 419 420
f 367 399 408
f 367 408 407
f 367 407 368
f 368 407 369
f 369 407 421
f 369 421 370
f 370 421 371
f 371 421 422
f 371 422 423
f 371 423 372
f 372 423 424
f 372 424 425
f 372 425 409
f 374 426 427
f 374 427 428
f 374 428 375
f 374 386 429
f 374 429 426
f 375 428 430
f 375 430 376
f 376 430 378
f 378 430 405
f 378 405 404
f 378 404 431
f 378 431 432
f 378 432 379
f 379 432 433
f 379 433 434
f 379 434 435
f 379 435 380
f 380 435 381
f 381 435 436
f 381 436 437
f 381 437 389
f 382 438 439
f 382 439 383
f 383 439 384
f 384 440 426
f 384 426 429
f 384 429 386
f 384 386 385
f 384 439 440
f 387 392 388
f 389 437 441
f 389 441 390
f 390 441 393
f 391 442 392
f 391 393 443
f 391 443 442
f 392 442 395
f 393 441 444
f 393 444 445
f 393 445 443
f 394 395 446
f 394 446 397
f 395 442 447
f 395 447 446
f 397 446 447
f 397 447 448
f 398 408 399
f 400 402 403
f 401 449 435
f 401 435 434
f 401 434 433
f 401 433 402
f 402 433 432
f 402 432 431
f 402 431 403
f 403 431 404
f 405 450 406
f 405 430 451
f 405 451 450
f 406 450 451
f 406 451 452
f 406 452 453
f 406 453 407
f 407 453 421
f 409 425 415
f 411 454 455
f 411 455 412
f 412 455 413
f 413 455 456
f 413 456 414
f 414 456 457
f 414 457 458
f 414 458 418
f 415 425 416
f 416 459 417
f 416 425 424
f 416 424 423
f 416 423 422
f 416 422 421
f 416 421 453
f 416 453 460
f 416 460 459
f 418 458 419
f 419 461 420
f 419 458 462
f 419 462 461
f 426 440 463
f 426 463 464
f 426 464 465
f 426 465 466
f 426 466 467
f 426 467 468
f 426 468 427
f 427 468 451
f 427 451 430
f 427 430 428
f 435 449 436
f 436 449 469
f 436 469 437
f 438 470 439
f 439 470 440
f 440 470 471
f 440 471 463
f 442 443 472
f 442 472 473
f 442 473 474
f 442 474 448
f 442 448 447
f 443 445 472
f 444 472 445
f 451 468 475
f 451 475 453
f 451 453 452
f 453 475 460
f 454 456 455
f 463 476 464
f 464 476 465
f 466 475 467
f 467 475 468

