# https://github.com/mikedh/trimesh
v -0.00107701 0.03117645 0.01340429
v -0.00158391 0.03117645 0.01339570
v -0.00054519 0.03117645 0.01339856
v -0.00107701 0.03168301 0.01339355
v -0.00160954 0.03117645 0.01339498
v -0.00160954 0.03168301 0.01337995
v -0.00001267 0.03117645 0.01338782
v -0.00001267 0.03168301 0.01337995
v 0.00051986 0.03274768 0.01335132
v -0.00054519 0.03168301 0.01338782
v -0.00107701 0.03221534 0.01337565
v 0.00051986 0.03328001 0.01333986
v -0.00001267 0.03328001 0.01334344
v -0.00001267 0.03381234 0.01332626
v -0.00211644 0.03117645 0.01336420
v -0.00107701 0.03274768 0.01335633
v -0.00160954 0.03221534 0.01335704
v 0.00001296 0.03117645 0.01338711
v 0.00051986 0.03168301 0.01336635
v 0.00075267 0.03274768 0.01334273
v 0.00075267 0.03298078 0.01333772
v -0.00054519 0.03328001 0.01334130
v -0.00001267 0.03434467 0.01330622
v 0.00075267 0.03328001 0.01333128
v 0.00051986 0.03487700 0.01327544
v -0.00214206 0.03117645 0.01336205
v -0.00001267 0.03487700 0.01327759
v -0.00107701 0.03328001 0.01332555
v -0.00214206 0.03168301 0.01333772
v -0.00160954 0.03274768 0.01332054
v 0.00054549 0.03117645 0.01336921
v 0.00075267 0.03191612 0.01335275
v 0.00075338 0.04262327 0.00636596
v 0.00051986 0.03540934 0.01324824
v 0.00075267 0.03381234 0.01330980
v 0.00075267 0.03511011 0.01325540
v -0.00264825 0.03117645 0.01330407
v -0.00001267 0.03540934 0.01323822
v -0.00054519 0.03434467 0.01328546
v -0.00054519 0.03487700 0.01324323
v -0.00214206 0.03221534 0.01329907
v -0.00107701 0.03434467 0.01323035
v -0.00160954 0.03328001 0.01326757
v 0.00075267 0.03117645 0.01335704
v 0.00075267 0.03138378 0.01335633
v 0.00075267 0.04262327 0.00609253
v 0.00075267 0.04262327 0.00636596
v 0.00075267 0.04258853 0.00743034
v 0.00075267 0.04257620 0.00776031
v 0.00075267 0.04257284 0.00781758
v 0.00075267 0.04255491 0.00811964
v 0.00075267 0.04254931 0.00818835
v 0.00075267 0.04252017 0.00848898
v 0.00075267 0.04245517 0.00902725
v 0.00075267 0.04236215 0.00955980
v 0.00075267 0.04227025 0.00992127
v 0.00075267 0.04222543 0.01009163
v 0.00075267 0.04210999 0.01043306
v 0.00075267 0.04210551 0.01044523
v 0.00075267 0.04195085 0.01074228
v 0.00075267 0.04180180 0.01099567
v 0.00075267 0.04168861 0.01116531
v 0.00075267 0.04156421 0.01135141
v 0.00075267 0.04151939 0.01141440
v 0.00075267 0.04147680 0.01145663
v 0.00075267 0.04095343 0.01191473
v 0.00075267 0.04086826 0.01197701
v 0.00075267 0.04066877 0.01208939
v 0.00075267 0.03996722 0.01248235
v 0.00075267 0.03994592 0.01249381
v 0.00075267 0.03992687 0.01250096
v 0.00075267 0.03966575 0.01257039
v 0.00075267 0.03941695 0.01263625
v 0.00075267 0.03883419 0.01278943
v 0.00075267 0.03830186 0.01290610
v 0.00075267 0.03785470 0.01298483
v 0.00075267 0.03755659 0.01302778
v 0.00075267 0.03744004 0.01304425
v 0.00075267 0.03720582 0.01307574
v 0.00075267 0.03700409 0.01310008
v 0.00075267 0.03670710 0.01313229
v 0.00075267 0.03647288 0.01315519
v 0.00075267 0.03617477 0.01318382
v 0.00075267 0.03594055 0.01320243
v 0.00075267 0.03564244 0.01322605
v 0.00075267 0.03540934 0.01323965
v 0.00075267 0.03117645 0.00609253
v 0.00051986 0.03594055 0.01320601
v -0.00267388 0.03117645 0.01330050
v 0.00051986 0.03647288 0.01315519
v -0.00001267 0.03594055 0.01318740
v -0.00054519 0.03540934 0.01319027
v -0.00267388 0.03168301 0.01325469
v -0.00214206 0.03274768 0.01324037
v -0.00107701 0.03487700 0.01316521
v -0.00160954 0.03381234 0.01320387
v 0.00048640 0.04236775 0.00609253
v 0.00048711 0.04236887 0.00636596
v 0.00050562 0.04235991 0.00743034
v 0.00021515 0.04209991 0.00689851
v 0.00022156 0.04209430 0.00743034
v 0.00056899 0.04239129 0.00796932
v 0.00023722 0.04207861 0.00796288
v 0.00024933 0.04206517 0.00825778
v 0.00057397 0.04227474 0.00902725
v 0.00027496 0.04203939 0.00861281
v 0.00030771 0.04200465 0.00902725
v 0.00062523 0.04223103 0.00955980
v 0.00069144 0.04216379 0.01009163
v 0.00074768 0.04210215 0.01044236
v 0.00030984 0.04145999 0.01073512
v 0.00068930 0.04163258 0.01115600
v 0.00040097 0.04127395 0.01119036
v 0.00027353 0.04097248 0.01139006
v 0.00013470 0.04061722 0.01156471
v 0.00029062 0.04042110 0.01191975
v 0.00064516 0.04062507 0.01205431
v 0.00052769 0.04018800 0.01222395
v 0.00037676 0.03966575 0.01241435
v 0.00026143 0.03939118 0.01248307
v -0.00001267 0.03806875 0.01279873
v 0.00051986 0.03860108 0.01280016
v 0.00051986 0.03806875 0.01292471
v 0.00051986 0.03768884 0.01300130
v 0.00051986 0.03742211 0.01304281
v 0.00051986 0.03700409 0.01309793
v -0.00360865 0.03117645 0.00609253
v -0.00318007 0.03117645 0.01318883
v -0.00001267 0.03647288 0.01312298
v -0.00054519 0.03594055 0.01312298
v -0.00267388 0.03221534 0.01318454
v -0.00090259 0.03594055 0.01304782
v -0.00214206 0.03328001 0.01315805
v 0.00035327 0.04223887 0.00609253
v 0.00021373 0.04210215 0.00636596
v -0.00005253 0.04182422 0.00636596
v -0.00030456 0.04155861 0.00636596
v -0.00005040 0.04181861 0.00689851
v -0.00029958 0.04155301 0.00689851
v -0.00029032 0.04154180 0.00731653
v -0.00027679 0.04152611 0.00767156
v 0.00007134 0.04183542 0.00845964
v -0.00026256 0.04150930 0.00796288
v -0.00023693 0.04147792 0.00849542
v 0.00006280 0.04173792 0.00902725
v 0.00035896 0.04194413 0.00955980
v 0.00012047 0.04167740 0.00955980
v 0.00042517 0.04185896 0.01009163
v 0.00024577 0.04153844 0.01038009
v 0.00017529 0.04110473 0.01103575
v -0.00025401 0.04096464 0.01028775
v -0.00039284 0.04060938 0.01062346
v -0.00031524 0.04051188 0.01096202
v -0.00021984 0.04038524 0.01131634
v -0.00034728 0.04002998 0.01151604
v -0.00003474 0.04022610 0.01171789
v -0.00020346 0.03982937 0.01187107
v 0.00015108 0.04006584 0.01203928
v -0.00003189 0.03918161 0.01238715
v -0.00022269 0.03880393 0.01245515
v -0.00035795 0.03844867 0.01253317
v -0.00003189 0.03861566 0.01261477
v -0.00054519 0.03753642 0.01274361
v -0.00051885 0.03698728 0.01291970
v -0.00067833 0.03657822 0.01297768
v -0.00032378 0.03680012 0.01303136
v -0.00014437 0.03715314 0.01299271
v 0.00001510 0.03751625 0.01294547
v 0.00021017 0.03732573 0.01302635
v -0.00640513 0.03117645 0.00740815
v -0.00364283 0.03118430 0.00609253
v -0.00320641 0.03117645 0.01318168
v 0.00001510 0.03698728 0.01305069
v -0.00051885 0.03643029 0.01305355
v -0.00082142 0.03622408 0.01302277
v -0.00304978 0.03221534 0.01306357
v -0.00322421 0.03166844 0.01309793
v -0.00268741 0.03272862 0.01309292
v -0.00148993 0.03487700 0.01306715
v -0.00195340 0.03421579 0.01304854
v 0.00021444 0.04210103 0.00609253
v -0.00005182 0.04182422 0.00609253
v -0.00030456 0.04155749 0.00609253
v -0.00043128 0.04140619 0.00609253
v -0.00055089 0.04126274 0.00609253
v -0.00055089 0.04126274 0.00636596
v -0.00054092 0.04126274 0.00689851
v -0.00077230 0.04094895 0.00743034
v -0.00046759 0.04131430 0.00746899
v -0.00074810 0.04091981 0.00796288
v -0.00020346 0.04143757 0.00902725
v -0.00045193 0.04121119 0.00849542
v -0.00014580 0.04137257 0.00955980
v -0.00031666 0.04104197 0.00993272
v 0.00019878 0.04159223 0.01009163
v -0.00047258 0.04076404 0.01010236
v -0.00075877 0.04039308 0.01009163
v -0.00087553 0.04002661 0.01051466
v -0.00068402 0.04020144 0.01066497
v -0.00080220 0.03991903 0.01086969
v -0.00072318 0.03979911 0.01115600
v -0.00082000 0.03941359 0.01143444
v -0.00080719 0.03886109 0.01194981
v -0.00032805 0.03947523 0.01200063
v -0.00002050 0.03965790 0.01213734
v -0.00071321 0.03818643 0.01241221
v -0.00044623 0.03913342 0.01209869
v -0.00082854 0.03783117 0.01249882
v -0.00092394 0.03753642 0.01255536
v -0.00110406 0.03701754 0.01264412
v -0.00103002 0.03643029 0.01287317
v -0.00369408 0.03119775 0.00609253
v -0.00641225 0.03117645 0.00741817
v -0.00539490 0.03328001 0.00609253
v -0.00532015 0.03308052 0.00609253
v -0.00524895 0.03289112 0.00609253
v -0.00357662 0.03117645 0.01306142
v -0.00116885 0.03594055 0.01294905
v -0.00127778 0.03557856 0.01299700
v -0.00184875 0.03457105 0.01300989
v -0.00138741 0.03522330 0.01303566
v -0.00296649 0.03253922 0.01303136
v -0.00350044 0.03148129 0.01303208
v -0.00249590 0.03328001 0.01305212
v -0.00241402 0.03355794 0.01302206
v -0.00067405 0.04110809 0.00609253
v -0.00079152 0.04096240 0.00636596
v -0.00078583 0.04096352 0.00689851
v -0.00098161 0.04068222 0.00743034
v -0.00096025 0.04065309 0.00796288
v -0.00071819 0.04088059 0.00849542
v -0.00041562 0.04117197 0.00902725
v -0.00036507 0.04110585 0.00955980
v -0.00080291 0.04045248 0.00978885
v -0.00094673 0.04012636 0.01009163
v -0.00121299 0.03973972 0.01009163
v -0.00134826 0.03940799 0.01037007
v -0.00089831 0.03953351 0.01115600
v -0.00127350 0.03928919 0.01072438
v -0.00138457 0.03893393 0.01096918
v -0.00090899 0.03913342 0.01156114
v -0.00128774 0.03878040 0.01132421
v -0.00186583 0.03778746 0.01140438
v -0.00139952 0.03842514 0.01150316
v -0.00150061 0.03805306 0.01168354
v -0.00176830 0.03758013 0.01171861
v -0.00127066 0.03822005 0.01185819
v -0.00184519 0.03721926 0.01191617
v -0.00138172 0.03786591 0.01199490
v -0.00091540 0.03850695 0.01205718
v -0.00129913 0.03720357 0.01245372
v -0.00140664 0.03684943 0.01253317
v -0.00151699 0.03647288 0.01260117
v -0.00165724 0.03598537 0.01268134
v -0.00158320 0.03540373 0.01290252
v -0.00651976 0.03117645 0.00797075
v -0.00518630 0.03386165 0.00609253
v -0.00382223 0.03117645 0.01295048
v -0.00175620 0.03487700 0.01296980
v -0.00230866 0.03391320 0.01297624
v -0.00287322 0.03289449 0.01299128
v -0.00341429 0.03183655 0.01299414
v -0.00079081 0.04096128 0.00609253
v -0.00187865 0.03940463 0.00769231
v -0.00187865 0.03940463 0.00772238
v -0.00122652 0.04030119 0.00796288
v -0.00092821 0.04061386 0.00849542
v -0.00068189 0.04082679 0.00902725
v -0.00084349 0.04050739 0.00943525
v -0.00066266 0.04070352 0.00959129
v -0.00132832 0.03991006 0.00920191
v -0.00128561 0.03985067 0.00955980
v -0.00139240 0.03947411 0.01009163
v -0.00160669 0.03913342 0.01009163
v -0.00227377 0.03805082 0.01010809
v -0.00238839 0.03776953 0.01029634
v -0.00192350 0.03841281 0.01047099
v -0.00144010 0.03911997 0.01057765
v -0.00116671 0.03911997 0.01115028
v -0.00184804 0.03829065 0.01082531
v -0.00195625 0.03793539 0.01104935
v -0.00214206 0.03753530 0.01115529
v -0.00232788 0.03712849 0.01126122
v -0.00242755 0.03677547 0.01145234
v -0.00197334 0.03743220 0.01156114
v -0.00213779 0.03699736 0.01168425
v -0.00232361 0.03647288 0.01183743
v -0.00240121 0.03619495 0.01194551
v -0.00194699 0.03686624 0.01203069
v -0.00148281 0.03753642 0.01209297
v -0.00162591 0.03703435 0.01224256
v -0.00178325 0.03647288 0.01240576
v -0.00186655 0.03619158 0.01247949
v -0.00196195 0.03583632 0.01254892
v -0.00268598 0.03432562 0.01262909
v -0.00214206 0.03487700 0.01276867
v -0.00213495 0.03437381 0.01292829
v -0.00644714 0.03117645 0.00849542
v -0.00613958 0.03196095 0.00774099
v -0.00613958 0.03196095 0.00768730
v -0.00518630 0.03386053 0.00634234
v -0.00509233 0.03403984 0.00609253
v -0.00560848 0.03302785 0.00711539
v -0.00560848 0.03302785 0.00725497
v -0.00384146 0.03117645 0.01294046
v -0.00316868 0.03272862 0.01287246
v -0.00331533 0.03221534 0.01294189
v -0.00276145 0.03328001 0.01293401
v -0.00294442 0.03780987 0.00609253
v -0.00185658 0.03937101 0.00807741
v -0.00138243 0.03998851 0.00849542
v -0.00170921 0.03961532 0.00792494
v -0.00141589 0.04003558 0.00796288
v -0.00294442 0.03780987 0.00636596
v -0.00294014 0.03780427 0.00664512
v -0.00273867 0.03806875 0.00743034
v -0.00246884 0.03843298 0.00796288
v -0.00230011 0.03869859 0.00796288
v -0.00119377 0.04025524 0.00849542
v -0.00088407 0.04056007 0.00902725
v -0.00117953 0.04015774 0.00902582
v -0.00135751 0.03995265 0.00884688
v -0.00149349 0.03970609 0.00902582
v -0.00178681 0.03925894 0.00902725
v -0.00146501 0.03958394 0.00955980
v -0.00186797 0.03885548 0.00979458
v -0.00244250 0.03786030 0.00994203
v -0.00255997 0.03757004 0.01010809
v -0.00298784 0.03682478 0.01009163
v -0.00294442 0.03674745 0.01036864
v -0.00247525 0.03738849 0.01062346
v -0.00232076 0.03765522 0.01062346
v -0.00204809 0.03809565 0.01063849
v -0.00241545 0.03728426 0.01090619
v -0.00276857 0.03645158 0.01114025
v -0.00288177 0.03610305 0.01130703
v -0.00343423 0.03507537 0.01134998
v -0.00398740 0.03404769 0.01139006
v -0.00298073 0.03574891 0.01148312
v -0.00285471 0.03552253 0.01183815
v -0.00340646 0.03449260 0.01186678
v -0.00295296 0.03516726 0.01196985
v -0.00250017 0.03584080 0.01205217
v -0.00205734 0.03647288 0.01213949
v -0.00231649 0.03551916 0.01240720
v -0.00287109 0.03449036 0.01242652
v -0.00241972 0.03516390 0.01249595
v -0.00249803 0.03487700 0.01255178
v -0.00306046 0.03381234 0.01257397
v -0.00322990 0.03328113 0.01265486
v -0.00622644 0.03159224 0.00849542
v -0.00611395 0.03191276 0.00809602
v -0.00634462 0.03117645 0.00902725
v -0.00563909 0.03255267 0.00892561
v -0.00509589 0.03359716 0.00888195
v -0.00553657 0.03289112 0.00849542
v -0.00532940 0.03328001 0.00849542
v -0.00498482 0.03392217 0.00849542
v -0.00557288 0.03296061 0.00796288
v -0.00540059 0.03328001 0.00796288
v -0.00559353 0.03299983 0.00760928
v -0.00507026 0.03408131 0.00614979
v -0.00520695 0.03379553 0.00689851
v -0.00507026 0.03408131 0.00609253
v -0.00548104 0.03323518 0.00743177
v -0.00519057 0.03376975 0.00743034
v -0.00487661 0.03434467 0.00743034
v -0.00428926 0.03117645 0.01266989
v -0.00370192 0.03166844 0.01287675
v -0.00361221 0.03274768 0.01259044
v -0.00376813 0.03222431 0.01266273
v -0.00383434 0.03628012 0.00609253
v -0.00394113 0.03609857 0.00636596
v -0.00182953 0.03932842 0.00849542
v -0.00160242 0.03966575 0.00849542
v -0.00293160 0.03778858 0.00700015
v -0.00291807 0.03776504 0.00743034
v -0.00268741 0.03806875 0.00796288
v -0.00243396 0.03837695 0.00849542
v -0.00262049 0.03806875 0.00849542
v -0.00241402 0.03834445 0.00879104
v -0.00195554 0.03899333 0.00902725
v -0.00191140 0.03892385 0.00944026
v -0.00175548 0.03911436 0.00959416
v -0.00233002 0.03820884 0.00955980
v -0.00249305 0.03794324 0.00955980
v -0.00277070 0.03748599 0.00951113
v -0.00289814 0.03719797 0.00965643
v -0.00345487 0.03617701 0.00975592
v -0.00401018 0.03515382 0.00984611
v -0.00287038 0.03661521 0.01072367
v -0.00273938 0.03695590 0.01057693
v -0.00410202 0.03487588 0.01005083
v -0.00395394 0.03505295 0.01020114
v -0.00349901 0.03572313 0.01042160
v -0.00296933 0.03625995 0.01095200
v -0.00352251 0.03523339 0.01099495
v -0.00407568 0.03420571 0.01103503
v -0.00419386 0.03384708 0.01118964
v -0.00446725 0.03331923 0.01120253
v -0.00453061 0.03300207 0.01141082
v -0.00408351 0.03369242 0.01153823
v -0.00353319 0.03472123 0.01151246
v -0.00387990 0.03384708 0.01170501
v -0.00395821 0.03345820 0.01189326
v -0.00350471 0.03413846 0.01199132
v -0.00303412 0.03487700 0.01205360
v -0.00332601 0.03381234 0.01234993
v -0.00342355 0.03346044 0.01244442
v -0.00297147 0.03413510 0.01251098
v -0.00352108 0.03310518 0.01252530
v -0.00633821 0.03117645 0.00905445
v -0.00505531 0.03352096 0.00923626
v -0.00520624 0.03331811 0.00904658
v -0.00495635 0.03378992 0.00904658
v -0.00465306 0.03436933 0.00901222
v -0.00455054 0.03463493 0.00882469
v -0.00475700 0.03434467 0.00849542
v -0.00482464 0.03434467 0.00796288
v -0.00465449 0.03482545 0.00636596
v -0.00450783 0.03509106 0.00636596
v -0.00433198 0.03540934 0.00636596
v -0.00450854 0.03509218 0.00609253
v -0.00463384 0.03478511 0.00743034
v -0.00490366 0.03434467 0.00689851
v -0.00460821 0.03473804 0.00796288
v -0.00415115 0.03168301 0.01259402
v -0.00429923 0.03117645 0.01266345
v -0.00405717 0.03205284 0.01252816
v -0.00394041 0.03609744 0.00609253
v -0.00401517 0.03596856 0.00609253
v -0.00409419 0.03583184 0.00609253
v -0.00409419 0.03583184 0.00636596
v -0.00431062 0.03540934 0.00689851
v -0.00408138 0.03580830 0.00689851
v -0.00392760 0.03607503 0.00689851
v -0.00349118 0.03677322 0.00743034
v -0.00347837 0.03675081 0.00774958
v -0.00289173 0.03772134 0.00796288
v -0.00286041 0.03766418 0.00849542
v -0.00281769 0.03758909 0.00902725
v -0.00252651 0.03809341 0.00899218
v -0.00237843 0.03828729 0.00914536
v -0.00224102 0.03855402 0.00899218
v -0.00294157 0.03727418 0.00930212
v -0.00349830 0.03625434 0.00940233
v -0.00334666 0.03644822 0.00957125
v -0.00361506 0.03597641 0.00957125
v -0.00424156 0.03487700 0.00955980
v -0.00446440 0.03448028 0.00955980
v -0.00456407 0.03412838 0.00991340
v -0.00405361 0.03469881 0.01047099
v -0.00342284 0.03558753 0.01077663
v -0.00439961 0.03432114 0.01009091
v -0.00450712 0.03402191 0.01026771
v -0.00397601 0.03456097 0.01082602
v -0.00444802 0.03383139 0.01066068
v -0.00452491 0.03352320 0.01086253
v -0.00461746 0.03316906 0.01105579
v -0.00560634 0.03142637 0.01090118
v -0.00565476 0.03117645 0.01106438
v -0.00559780 0.03117645 0.01117748
v -0.00507026 0.03195086 0.01142371
v -0.00462245 0.03264681 0.01154754
v -0.00418247 0.03328001 0.01170501
v -0.00514003 0.03168301 0.01152392
v -0.00449715 0.03240586 0.01190185
v -0.00405076 0.03310406 0.01200635
v -0.00359513 0.03381234 0.01208366
v -0.00373965 0.03328225 0.01222539
v -0.00387848 0.03274768 0.01236711
v -0.00396533 0.03240810 0.01245301
v -0.00450213 0.03135128 0.01245730
v -0.00622644 0.03117645 0.00952401
v -0.00559780 0.03247535 0.00928064
v -0.00482393 0.03381234 0.00955980
v -0.00460963 0.03421355 0.00955980
v -0.00451067 0.03456321 0.00917972
v -0.00399239 0.03565477 0.00867079
v -0.00457475 0.03467752 0.00849542
v -0.00449928 0.03507649 0.00689851
v -0.00421665 0.03561442 0.00609253
v -0.00433198 0.03540934 0.00609253
v -0.00448433 0.03505071 0.00743034
v -0.00445657 0.03500364 0.00796288
v -0.00454698 0.03117645 0.01249309
v -0.00431560 0.03117645 0.01265271
v -0.00427858 0.03540934 0.00743034
v -0.00391122 0.03604589 0.00743034
v -0.00345630 0.03671383 0.00810461
v -0.00422448 0.03540934 0.00796288
v -0.00388488 0.03599994 0.00796288
v -0.00358516 0.03640452 0.00849542
v -0.00510585 0.03308501 0.00994131
v -0.00609758 0.03134904 0.00967719
v -0.00416539 0.03436709 0.01063849
v -0.00564906 0.03203939 0.00996780
v -0.00504819 0.03297406 0.01029634
v -0.00460038 0.03366777 0.01050750
v -0.00499693 0.03277681 0.01067285
v -0.00506527 0.03247535 0.01088257
v -0.00585623 0.03117645 0.01062346
v -0.00584484 0.03117645 0.01064922
v -0.00553729 0.03117645 0.01129558
v -0.00530591 0.03117645 0.01165920
v -0.00528882 0.03117645 0.01168354
v -0.00503537 0.03135240 0.01191044
v -0.00458899 0.03205060 0.01201280
v -0.00414260 0.03274768 0.01210155
v -0.00468367 0.03168301 0.01210943
v -0.00441741 0.03168301 0.01237498
v -0.00481111 0.03117645 0.01223970
v -0.00614314 0.03117645 0.00983108
v -0.00387492 0.03590020 0.00849399
v -0.00442239 0.03494425 0.00849542
v -0.00605486 0.03117645 0.01010737
v -0.00604490 0.03117645 0.01013815
v -0.00558854 0.03192508 0.01032283
v -0.00525892 0.03117645 0.01172505
v -0.00508094 0.03117645 0.01196412
v -0.00481609 0.03117645 0.01223469
f 1 2 5
f 1 5 15
f 1 15 26
f 1 26 37
f 1 37 89
f 1 89 128
f 1 128 172
f 1 172 217
f 1 217 258
f 1 258 305
f 1 305 368
f 1 368 428
f 1 428 487
f 1 487 486
f 1 486 512
f 1 512 521
f 1 521 520
f 1 520 519
f 1 519 506
f 1 506 505
f 1 505 504
f 1 504 462
f 1 462 461
f 1 461 503
f 1 503 502
f 1 502 517
f 1 517 516
f 1 516 513
f 1 513 474
f 1 474 412
f 1 412 353
f 1 353 298
f 1 298 256
f 1 256 213
f 1 213 170
f 1 170 127
f 1 127 87
f 1 87 44
f 1 44 31
f 1 31 18
f 1 18 7
f 1 7 3
f 1 3 10
f 1 10 4
f 1 4 2
f 2 4 6
f 2 6 5
f 3 7 8
f 3 8 9
f 3 9 10
f 4 11 6
f 4 10 12
f 4 12 13
f 4 13 14
f 4 14 11
f 5 6 15
f 6 11 16
f 6 16 17
f 6 17 15
f 7 18 19
f 7 19 9
f 7 9 8
f 9 19 20
f 9 20 21
f 9 21 12
f 9 12 10
f 11 14 22
f 11 22 16
f 12 23 14
f 12 14 13
f 12 21 24
f 12 24 35
f 12 35 25
f 12 25 23
f 14 23 22
f 15 17 26
f 16 22 23
f 16 23 27
f 16 27 28
f 16 28 17
f 17 29 26
f 17 28 30
f 17 30 29
f 18 31 19
f 19 32 20
f 19 31 32
f 20 32 33
f 20 33 21
f 21 33 24
f 23 25 34
f 23 34 27
f 24 33 35
f 25 36 34
f 25 35 36
f 26 29 37
f 27 34 38
f 27 38 39
f 27 39 28
f 28 39 40
f 28 40 30
f 29 30 41
f 29 41 37
f 30 40 42
f 30 42 43
f 30 43 41
f 31 44 45
f 31 45 32
f 32 45 33
f 33 46 47
f 33 47 48
f 33 48 49
f 33 49 50
f 33 50 51
f 33 51 52
f 33 52 53
f 33 53 54
f 33 54 55
f 33 55 56
f 33 56 57
f 33 57 58
f 33 58 59
f 33 59 60
f 33 60 61
f 33 61 62
f 33 62 63
f 33 63 64
f 33 64 65
f 33 65 66
f 33 66 67
f 33 67 68
f 33 68 69
f 33 69 70
f 33 70 71
f 33 71 72
f 33 72 73
f 33 73 74
f 33 74 75
f 33 75 76
f 33 76 77
f 33 77 78
f 33 78 79
f 33 79 80
f 33 80 81
f 33 81 82
f 33 82 83
f 33 83 84
f 33 84 85
f 33 85 86
f 33 86 36
f 33 36 35
f 33 45 44
f 33 44 87
f 33 87 46
f 34 86 85
f 34 85 84
f 34 84 83
f 34 83 88
f 34 88 38
f 34 36 86
f 37 41 89
f 38 88 90
f 38 90 91
f 38 91 40
f 38 40 39
f 40 91 92
f 40 92 42
f 41 93 89
f 41 43 94
f 41 94 93
f 42 92 95
f 42 95 96
f 42 96 43
f 43 96 94
f 46 97 98
f 46 98 47
f 46 87 127
f 46 127 171
f 46 171 212
f 46 212 216
f 46 216 215
f 46 215 214
f 46 214 257
f 46 257 302
f 46 302 364
f 46 364 423
f 46 423 483
f 46 483 482
f 46 482 432
f 46 432 431
f 46 431 430
f 46 430 372
f 46 372 309
f 46 309 263
f 46 263 226
f 46 226 185
f 46 185 184
f 46 184 183
f 46 183 182
f 46 182 181
f 46 181 134
f 46 134 97
f 47 99 48
f 47 98 100
f 47 100 101
f 47 101 99
f 48 99 49
f 49 99 101
f 49 101 102
f 49 102 50
f 50 102 51
f 51 102 103
f 51 103 52
f 52 103 104
f 52 104 53
f 53 104 54
f 54 105 55
f 54 104 106
f 54 106 105
f 55 105 107
f 55 107 108
f 55 108 56
f 56 108 109
f 56 109 57
f 57 109 110
f 57 110 58
f 58 110 59
f 59 110 60
f 60 110 111
f 60 111 61
f 61 111 112
f 61 112 62
f 62 112 63
f 63 112 64
f 64 112 113
f 64 113 114
f 64 114 65
f 65 114 115
f 65 115 116
f 65 116 66
f 66 116 67
f 67 116 117
f 67 117 68
f 68 117 69
f 69 118 119
f 69 119 70
f 69 117 118
f 70 119 120
f 70 120 71
f 71 120 121
f 71 121 122
f 71 122 72
f 72 122 73
f 73 122 74
f 74 122 123
f 74 123 75
f 75 123 124
f 75 124 76
f 76 124 125
f 76 125 77
f 77 125 78
f 78 125 79
f 79 125 126
f 79 126 80
f 80 126 81
f 81 90 82
f 81 126 90
f 82 90 83
f 83 90 88
f 89 93 128
f 90 126 91
f 91 126 129
f 91 129 92
f 92 129 130
f 92 130 95
f 93 94 131
f 93 131 128
f 94 96 132
f 94 132 133
f 94 133 131
f 95 130 132
f 95 132 96
f 97 134 98
f 98 134 135
f 98 135 100
f 100 135 136
f 100 136 137
f 100 137 138
f 100 138 101
f 101 103 102
f 101 138 139
f 101 139 140
f 101 140 103
f 103 140 141
f 103 141 104
f 104 142 106
f 104 141 143
f 104 143 144
f 104 144 142
f 105 106 107
f 106 142 145
f 106 145 107
f 107 146 108
f 107 145 146
f 108 146 109
f 109 146 147
f 109 147 193
f 109 193 148
f 109 148 110
f 110 148 149
f 110 149 111
f 111 150 113
f 111 113 112
f 111 149 151
f 111 151 152
f 111 152 153
f 111 153 150
f 113 150 114
f 114 150 154
f 114 154 155
f 114 155 115
f 115 155 156
f 115 156 116
f 116 156 157
f 116 157 158
f 116 158 117
f 117 158 118
f 118 158 119
f 119 158 120
f 120 158 159
f 120 159 160
f 120 160 161
f 120 161 162
f 120 162 121
f 121 162 161
f 121 161 163
f 121 163 164
f 121 164 165
f 121 165 166
f 121 166 167
f 121 167 168
f 121 168 122
f 122 168 123
f 123 168 169
f 123 169 124
f 124 169 125
f 125 169 129
f 125 129 126
f 127 170 171
f 128 131 172
f 129 169 173
f 129 173 166
f 129 166 130
f 130 166 174
f 130 174 175
f 130 175 132
f 131 176 177
f 131 177 172
f 131 133 178
f 131 178 176
f 132 175 133
f 133 175 179
f 133 179 180
f 133 180 178
f 134 181 135
f 135 181 182
f 135 182 136
f 136 182 137
f 137 183 184
f 137 184 185
f 137 185 186
f 137 186 139
f 137 139 138
f 137 182 183
f 139 186 187
f 139 187 140
f 140 187 188
f 140 188 189
f 140 189 141
f 141 189 188
f 141 188 190
f 141 190 143
f 142 144 191
f 142 191 145
f 143 190 144
f 144 190 192
f 144 192 191
f 145 191 147
f 145 147 146
f 147 191 193
f 148 193 194
f 148 194 195
f 148 195 149
f 149 195 194
f 149 194 151
f 150 153 154
f 151 194 196
f 151 196 197
f 151 197 198
f 151 198 152
f 152 198 199
f 152 199 153
f 153 199 200
f 153 200 154
f 154 200 201
f 154 201 155
f 155 157 156
f 155 201 202
f 155 202 203
f 155 203 157
f 157 204 158
f 157 203 204
f 158 204 205
f 158 205 160
f 158 160 159
f 160 206 161
f 160 205 204
f 160 204 207
f 160 207 206
f 161 206 208
f 161 208 209
f 161 209 210
f 161 210 163
f 163 210 211
f 163 211 165
f 163 165 164
f 165 211 175
f 165 175 166
f 166 175 174
f 166 173 169
f 166 169 167
f 167 169 168
f 170 212 171
f 170 213 214
f 170 214 215
f 170 215 216
f 170 216 212
f 172 177 217
f 175 211 218
f 175 218 219
f 175 219 220
f 175 220 221
f 175 221 179
f 176 178 222
f 176 222 223
f 176 223 217
f 176 217 177
f 178 180 224
f 178 224 222
f 179 221 180
f 180 225 224
f 180 221 220
f 180 220 225
f 185 226 227
f 185 227 186
f 186 227 228
f 186 228 187
f 187 228 188
f 188 228 229
f 188 229 230
f 188 230 190
f 190 231 192
f 190 230 231
f 191 192 231
f 191 231 232
f 191 232 233
f 191 233 193
f 193 233 194
f 194 233 234
f 194 234 197
f 194 197 196
f 197 234 235
f 197 235 198
f 198 200 199
f 198 235 236
f 198 236 237
f 198 237 200
f 200 238 201
f 200 237 239
f 200 239 240
f 200 240 238
f 201 238 202
f 202 241 203
f 202 238 242
f 202 242 243
f 202 243 244
f 202 244 241
f 203 244 245
f 203 245 246
f 203 246 247
f 203 247 248
f 203 248 249
f 203 249 250
f 203 250 206
f 203 206 207
f 203 207 204
f 203 241 244
f 206 250 251
f 206 251 208
f 208 251 252
f 208 252 209
f 209 252 210
f 210 252 253
f 210 253 211
f 211 253 254
f 211 254 255
f 211 255 218
f 213 256 257
f 213 257 214
f 217 223 258
f 218 255 259
f 218 259 219
f 219 259 220
f 220 259 260
f 220 260 261
f 220 261 225
f 222 224 261
f 222 261 262
f 222 262 223
f 223 262 258
f 224 225 261
f 226 263 227
f 227 263 264
f 227 264 265
f 227 265 229
f 227 229 228
f 229 265 266
f 229 266 230
f 230 266 267
f 230 267 231
f 231 267 232
f 232 267 268
f 232 268 233
f 233 268 269
f 233 269 270
f 233 270 234
f 234 270 269
f 234 269 271
f 234 271 272
f 234 272 235
f 235 272 236
f 236 273 237
f 236 272 273
f 237 273 274
f 237 274 275
f 237 275 276
f 237 276 277
f 237 277 278
f 237 278 239
f 238 279 242
f 238 240 279
f 239 278 277
f 239 277 280
f 239 280 240
f 240 280 281
f 240 281 243
f 240 243 242
f 240 242 279
f 243 282 283
f 243 283 284
f 243 284 285
f 243 285 245
f 243 245 244
f 243 281 282
f 245 285 246
f 246 285 248
f 246 248 247
f 248 285 286
f 248 286 287
f 248 287 288
f 248 288 289
f 248 289 249
f 249 289 290
f 249 290 250
f 250 290 251
f 251 290 291
f 251 291 292
f 251 292 293
f 251 293 252
f 252 293 253
f 253 293 294
f 253 294 295
f 253 295 296
f 253 296 254
f 254 296 255
f 255 296 297
f 255 297 260
f 255 260 259
f 256 298 299
f 256 299 300
f 256 300 257
f 257 301 302
f 257 300 303
f 257 303 304
f 257 304 301
f 258 262 305
f 260 297 261
f 261 306 307
f 261 307 262
f 261 297 308
f 261 308 306
f 262 307 305
f 263 309 264
f 264 309 314
f 264 314 265
f 265 310 311
f 265 311 312
f 265 312 313
f 265 313 266
f 265 314 315
f 265 315 316
f 265 316 317
f 265 317 318
f 265 318 310
f 266 319 267
f 266 313 319
f 267 319 320
f 267 320 268
f 268 320 269
f 269 320 271
f 271 320 321
f 271 321 322
f 271 322 323
f 271 323 324
f 271 324 325
f 271 325 272
f 272 325 273
f 273 325 326
f 273 326 274
f 274 326 327
f 274 327 275
f 275 327 276
f 276 327 328
f 276 328 329
f 276 329 330
f 276 330 331
f 276 331 332
f 276 332 333
f 276 333 277
f 277 333 280
f 280 333 332
f 280 332 334
f 280 334 281
f 281 334 282
f 282 334 283
f 283 334 335
f 283 335 336
f 283 336 284
f 284 287 286
f 284 286 285
f 284 336 337
f 284 337 338
f 284 338 339
f 284 339 287
f 287 339 340
f 287 340 288
f 288 340 341
f 288 341 342
f 288 342 343
f 288 343 289
f 289 343 344
f 289 344 293
f 289 293 292
f 289 292 291
f 289 291 290
f 293 344 343
f 293 343 345
f 293 345 346
f 293 346 347
f 293 347 348
f 293 348 294
f 294 348 295
f 295 348 349
f 295 349 350
f 295 350 296
f 296 350 308
f 296 308 297
f 298 351 352
f 298 352 299
f 298 353 354
f 298 354 355
f 298 355 351
f 299 352 356
f 299 356 357
f 299 357 358
f 299 358 359
f 299 359 360
f 299 360 361
f 299 361 304
f 299 304 303
f 299 303 300
f 301 362 302
f 301 304 363
f 301 363 362
f 302 362 364
f 304 361 365
f 304 365 366
f 304 366 367
f 304 367 363
f 305 307 369
f 305 369 368
f 306 308 350
f 306 350 370
f 306 370 371
f 306 371 369
f 306 369 307
f 309 372 373
f 309 373 314
f 310 374 375
f 310 375 311
f 310 318 374
f 311 313 312
f 311 375 322
f 311 322 319
f 311 319 313
f 314 373 315
f 315 376 316
f 315 373 376
f 316 376 377
f 316 377 378
f 316 378 317
f 317 379 374
f 317 374 318
f 317 378 380
f 317 380 379
f 319 322 321
f 319 321 320
f 322 375 374
f 322 374 323
f 323 374 324
f 324 374 381
f 324 381 382
f 324 382 383
f 324 383 325
f 325 383 384
f 325 384 326
f 326 385 327
f 326 384 385
f 327 385 386
f 327 386 387
f 327 387 388
f 327 388 389
f 327 389 328
f 328 389 390
f 328 390 329
f 329 390 330
f 330 391 392
f 330 392 331
f 330 390 393
f 330 393 394
f 330 394 395
f 330 395 391
f 331 334 332
f 331 392 334
f 334 392 391
f 334 391 396
f 334 396 335
f 335 396 336
f 336 396 397
f 336 397 337
f 337 397 398
f 337 398 338
f 338 398 399
f 338 399 400
f 338 400 401
f 338 401 402
f 338 402 403
f 338 403 339
f 339 403 340
f 340 403 341
f 341 403 404
f 341 404 405
f 341 405 342
f 342 405 406
f 342 406 343
f 343 406 407
f 343 407 408
f 343 408 346
f 343 346 345
f 346 408 409
f 346 409 347
f 347 409 410
f 347 410 349
f 347 349 348
f 349 410 411
f 349 411 350
f 350 411 370
f 351 356 352
f 351 355 356
f 353 412 413
f 353 413 414
f 353 414 354
f 354 414 355
f 355 357 356
f 355 414 415
f 355 415 416
f 355 416 417
f 355 417 357
f 357 417 358
f 358 418 359
f 358 417 418
f 359 418 360
f 360 418 419
f 360 419 361
f 361 419 366
f 361 366 365
f 362 363 420
f 362 420 421
f 362 421 422
f 362 422 423
f 362 423 364
f 363 367 424
f 363 424 425
f 363 425 421
f 363 421 420
f 366 419 367
f 367 419 426
f 367 426 424
f 368 369 371
f 368 371 427
f 368 427 428
f 370 429 427
f 370 427 371
f 370 411 429
f 372 430 373
f 373 430 431
f 373 431 432
f 373 432 433
f 373 433 434
f 373 434 435
f 373 435 436
f 373 436 376
f 374 379 381
f 376 437 377
f 376 436 437
f 377 437 438
f 377 438 439
f 377 439 378
f 378 439 440
f 378 440 380
f 379 380 381
f 380 440 381
f 381 440 441
f 381 441 442
f 381 442 443
f 381 443 444
f 381 444 382
f 382 444 443
f 382 443 383
f 383 443 385
f 383 385 384
f 385 443 386
f 386 443 442
f 386 442 441
f 386 441 445
f 386 445 387
f 387 445 446
f 387 446 447
f 387 447 389
f 387 389 388
f 389 447 448
f 389 448 449
f 389 449 390
f 390 449 450
f 390 450 451
f 390 451 393
f 391 395 452
f 391 452 453
f 391 453 396
f 393 451 454
f 393 454 394
f 394 454 455
f 394 455 395
f 395 455 452
f 396 453 456
f 396 456 397
f 397 456 398
f 398 457 458
f 398 458 399
f 398 456 457
f 399 458 400
f 400 458 459
f 400 459 460
f 400 460 401
f 401 460 461
f 401 461 462
f 401 462 463
f 401 463 402
f 402 463 464
f 402 464 465
f 402 465 405
f 402 405 404
f 402 404 403
f 405 465 464
f 405 464 466
f 405 466 467
f 405 467 468
f 405 468 406
f 406 468 469
f 406 469 407
f 407 469 408
f 408 469 409
f 409 469 470
f 409 470 471
f 409 471 472
f 409 472 411
f 409 411 410
f 411 472 473
f 411 473 429
f 412 474 475
f 412 475 413
f 413 476 415
f 413 415 414
f 413 475 476
f 415 476 477
f 415 477 478
f 415 478 416
f 416 478 417
f 417 479 480
f 417 480 418
f 417 478 445
f 417 445 441
f 417 441 479
f 418 480 419
f 419 480 426
f 421 425 422
f 422 481 433
f 422 433 482
f 422 482 483
f 422 483 423
f 422 425 481
f 424 426 484
f 424 484 481
f 424 481 425
f 426 480 485
f 426 485 484
f 427 429 486
f 427 486 487
f 427 487 428
f 429 473 486
f 432 482 433
f 433 481 434
f 434 488 435
f 434 481 484
f 434 484 488
f 435 488 436
f 436 488 489
f 436 489 437
f 437 489 438
f 438 490 440
f 438 440 439
f 438 489 488
f 438 488 484
f 438 484 491
f 438 491 492
f 438 492 490
f 440 490 492
f 440 492 493
f 440 493 479
f 440 479 441
f 445 478 446
f 446 478 449
f 446 449 448
f 446 448 447
f 449 478 450
f 450 477 451
f 450 478 477
f 451 494 455
f 451 455 454
f 451 477 476
f 451 476 495
f 451 495 494
f 452 455 496
f 452 496 456
f 452 456 453
f 455 457 496
f 455 494 497
f 455 497 498
f 455 498 499
f 455 499 457
f 456 496 457
f 457 499 458
f 458 499 500
f 458 500 501
f 458 501 459
f 459 501 460
f 460 501 502
f 460 502 503
f 460 503 461
f 462 504 463
f 463 504 466
f 463 466 464
f 466 504 505
f 466 505 506
f 466 506 467
f 467 506 507
f 467 507 468
f 468 470 469
f 468 507 508
f 468 508 509
f 468 509 471
f 468 471 470
f 471 509 510
f 471 510 511
f 471 511 472
f 472 511 473
f 473 512 486
f 473 511 512
f 474 513 495
f 474 495 476
f 474 476 475
f 479 514 515
f 479 515 480
f 479 493 514
f 480 515 485
f 484 485 491
f 485 515 491
f 491 515 514
f 491 514 493
f 491 493 492
f 494 495 497
f 495 513 497
f 497 513 516
f 497 516 517
f 497 517 498
f 498 517 518
f 498 518 499
f 499 518 502
f 499 502 500
f 500 502 501
f 502 518 517
f 506 519 507
f 507 519 520
f 507 520 508
f 508 520 510
f 508 510 509
f 510 520 521
f 510 521 512
f 510 512 511

