# https://github.com/mikedh/trimesh
v 0.00065716 0.00328111 0.00370402
v 0.00053033 0.00328111 0.00317198
v 0.00065120 0.00328111 0.00422671
v 0.00157336 0.00283648 0.00370402
v 0.00157336 0.00283648 0.00317198
v 0.00105110 0.00307665 0.00317198
v 0.00033933 0.00328111 0.00288697
v 0.00043483 0.00328111 0.00468778
v 0.00157037 0.00283155 0.00423634
v 0.00184045 0.00266528 0.00370402
v 0.00184045 0.00266528 0.00317198
v 0.00148830 0.00278229 0.00276950
v 0.00030203 0.00328111 0.00284406
v -0.00001282 0.00328111 0.00479837
v 0.00211650 0.00228469 0.00458076
v 0.00148383 0.00277366 0.00458241
v 0.00183747 0.00266035 0.00423634
v 0.00211650 0.00243619 0.00423634
v 0.00211650 0.00244235 0.00370402
v 0.00211650 0.00244235 0.00317198
v 0.00240598 0.00216892 0.00287102
v 0.00119136 0.00257290 0.00241463
v 0.00083772 0.00268868 0.00236153
v 0.00102871 0.00284141 0.00261105
v 0.00018415 0.00328111 0.00272081
v 0.00207025 0.00226745 0.00267212
v 0.00186284 0.00215044 0.00236676
v 0.00211650 0.00187332 0.00470071
v -0.00149006 0.00328111 0.00503853
v 0.00240449 0.00216646 0.00452684
v 0.00241643 0.00218124 0.00423634
v 0.00241792 0.00218370 0.00370402
v 0.00241792 0.00218370 0.00317198
v 0.00222245 0.00187332 0.00248945
v 0.00264025 0.00187332 0.00317198
v 0.00287005 0.00152353 0.00317198
v 0.00296853 0.00119591 0.00282232
v 0.00251044 0.00187332 0.00275547
v -0.00031573 0.00328111 0.00252577
v -0.00153632 0.00328111 0.00222838
v 0.00233436 0.00155802 0.00238546
v 0.00243135 0.00120330 0.00235163
v 0.00195684 0.00187332 0.00235190
v 0.00158380 0.00187332 0.00231889
v 0.00264921 0.00080917 0.00472492
v 0.00267607 0.00135849 0.00463276
v 0.00249999 0.00187332 0.00458076
v -0.00214214 -0.00823861 0.00474252
v -0.00160944 -0.00770654 0.00474252
v -0.00107823 -0.00717446 0.00474252
v 0.00264921 -0.00078830 0.00473179
v 0.00264921 -0.00025622 0.00474225
v 0.00264921 0.00027586 0.00474225
v -0.01185167 0.00328111 0.00503853
v -0.00596209 -0.00068730 0.00503853
v 0.00296555 0.00119221 0.00455958
v 0.00286110 0.00151983 0.00423634
v 0.00262981 0.00187332 0.00423634
v 0.00264175 0.00187332 0.00370402
v 0.00287154 0.00152353 0.00370402
v 0.00299390 0.00125749 0.00317198
v 0.00274172 0.00080917 0.00247597
v 0.00265816 0.00137696 0.00260389
v 0.00313715 0.00080917 0.00317198
v 0.00302523 0.00080917 0.00274199
v 0.00211650 0.00080917 0.00230734
v -0.00153632 0.00320105 0.00222838
v -0.01144431 0.00328111 0.00222838
v 0.00247612 0.00080917 0.00234062
v 0.00214038 0.00136464 0.00233375
v 0.00279842 0.00027586 0.00241628
v 0.00305806 0.00027586 0.00462230
v 0.00301777 0.00080917 0.00460497
v -0.00320606 -0.00877069 0.00473785
v -0.00267484 -0.00877069 0.00470676
v -0.00160944 -0.00823861 0.00469878
v -0.00107823 -0.00770654 0.00470704
v -0.00692304 -0.00126249 0.00503853
v -0.00808246 -0.00175023 0.00503853
v 0.00267457 -0.00134008 0.00463826
v 0.00297748 -0.00117627 0.00456866
v 0.00302673 -0.00078830 0.00461185
v 0.00305657 -0.00025622 0.00462230
v -0.01184869 0.00328111 0.00496398
v -0.01185764 0.00320844 0.00503853
v 0.00299241 0.00125379 0.00423634
v 0.00312969 0.00080917 0.00423634
v 0.00299390 0.00125749 0.00370402
v 0.00313715 0.00080917 0.00370402
v 0.00323861 0.00027586 0.00370402
v 0.00323712 0.00027586 0.00317198
v 0.00307448 0.00027586 0.00268230
v 0.00253133 0.00027586 0.00234062
v 0.00211650 -0.00078830 0.00230734
v -0.00172433 0.00253103 0.00222838
v -0.01150400 0.00243988 0.00222838
v -0.01146818 0.00328111 0.00229908
v 0.00279842 -0.00025622 0.00241573
v 0.00321922 0.00027586 0.00423634
v -0.00320606 -0.00915497 0.00461790
v -0.00841372 -0.00182043 0.00503853
v -0.00852862 -0.00184137 0.00503853
v -0.00373876 -0.00877069 0.00473950
v -0.00373876 -0.00915866 0.00461928
v -0.00267484 -0.00911802 0.00458682
v -0.00214960 -0.00879040 0.00462010
v -0.00160944 -0.00861181 0.00457856
v -0.00111702 -0.00820659 0.00458296
v -0.00078128 -0.00800706 0.00453510
v -0.00070071 -0.00770654 0.00458682
v 0.00301031 -0.00124032 0.00423634
v 0.00314610 -0.00078830 0.00423634
v 0.00321772 -0.00025622 0.00423634
v -0.01183824 0.00328111 0.00476866
v -0.01198596 0.00157649 0.00503853
v 0.00323712 -0.00025622 0.00370402
v 0.00323563 -0.00025622 0.00317198
v 0.00307448 -0.00025622 0.00268175
v 0.00253133 -0.00025622 0.00234062
v 0.00248059 -0.00078830 0.00234062
v 0.00243732 -0.00120091 0.00235163
v 0.00215082 -0.00135486 0.00233375
v -0.00104092 -0.00721141 0.00233402
v -0.00107823 -0.00664238 0.00230734
v -0.00160944 -0.00717446 0.00230734
v -0.00267484 -0.00823861 0.00230734
v -0.00497427 -0.00061587 0.00222838
v -0.01153981 0.00187332 0.00222838
v -0.01168455 0.00134124 0.00263966
v -0.01147415 0.00328111 0.00231806
v 0.00274620 -0.00078830 0.00246387
v 0.00303419 -0.00078830 0.00272989
v -0.00320606 -0.00928060 0.00423634
v -0.00373876 -0.00928799 0.00423634
v -0.00905983 -0.00186970 0.00503853
v -0.00959253 -0.00186600 0.00503853
v -0.01001780 -0.00173914 0.00503853
v -0.00480267 -0.00823861 0.00474252
v -0.00427146 -0.00877069 0.00470538
v -0.00427146 -0.00911802 0.00458517
v -0.00267484 -0.00920301 0.00423634
v -0.00233314 -0.00906752 0.00453840
v -0.00131996 -0.00852682 0.00452409
v -0.00076338 -0.00802554 0.00423634
v -0.00057238 -0.00770654 0.00423634
v -0.00033662 -0.00731733 0.00370402
v 0.00287005 -0.00150882 0.00370402
v 0.00301330 -0.00124278 0.00370402
v 0.00315356 -0.00078830 0.00370402
v -0.00055149 -0.00770654 0.00370402
v -0.01182332 0.00328111 0.00457884
v -0.01198895 0.00108998 0.00449108
v -0.01186510 0.00293747 0.00476866
v -0.01194717 0.00187332 0.00476866
v -0.01199790 0.00120699 0.00476866
v -0.01200387 0.00130183 0.00503853
v 0.00315356 -0.00078830 0.00317198
v 0.00235227 -0.00155686 0.00237996
v -0.00083948 -0.00741340 0.00237941
v -0.00076935 -0.00705745 0.00235163
v -0.00121998 -0.00770654 0.00235163
v -0.00160944 -0.00770654 0.00231834
v -0.00211827 -0.00826202 0.00233375
v -0.00228091 -0.00854653 0.00235163
v -0.00267484 -0.00858471 0.00234062
v -0.00320606 -0.00860565 0.00234062
v -0.00373876 -0.00860934 0.00234062
v -0.00427146 -0.00823861 0.00230734
v -0.00869425 -0.00222811 0.00222838
v -0.00816453 -0.00222442 0.00222838
v -0.00763481 -0.00221087 0.00222838
v -0.00652911 -0.00171204 0.00222838
v -0.00552190 -0.00113070 0.00222838
v -0.01157264 0.00134001 0.00222838
v -0.01154428 0.00328111 0.00263966
v -0.01156667 0.00096312 0.00222838
v -0.01167112 0.00080917 0.00263966
v -0.01178452 0.00080917 0.00317198
v -0.01179646 0.00134124 0.00317198
v 0.00298047 -0.00117997 0.00280664
v -0.00320606 -0.00929292 0.00370402
v -0.00427146 -0.00920916 0.00423634
v -0.00427146 -0.00922641 0.00370402
v -0.00373876 -0.00930031 0.00370402
v -0.01015657 -0.00167263 0.00503853
v -0.00586659 -0.00770654 0.00473620
v -0.00533389 -0.00823861 0.00470814
v -0.00533389 -0.00862166 0.00458819
v -0.00479223 -0.00879163 0.00461763
v -0.00460720 -0.00906383 0.00453455
v -0.00267484 -0.00920670 0.00370402
v -0.00229583 -0.00908230 0.00423634
v -0.00203023 -0.00896283 0.00423634
v -0.00130653 -0.00853914 0.00423634
v -0.00104092 -0.00829158 0.00423634
v -0.00160944 -0.00873128 0.00423634
v -0.00102749 -0.00829527 0.00317198
v -0.00076039 -0.00802800 0.00370402
v -0.00033513 -0.00732103 0.00317198
v 0.00286856 -0.00150882 0.00317198
v 0.00301330 -0.00124278 0.00317198
v -0.00054851 -0.00770654 0.00317198
v -0.01179497 0.00328111 0.00423634
v -0.01195165 0.00129690 0.00428283
v -0.01188450 0.00134124 0.00370402
v -0.01198895 0.00106658 0.00449108
v -0.01199790 0.00100377 0.00476866
v -0.01200536 0.00094218 0.00503853
v -0.00067982 -0.00770654 0.00274254
v -0.00077681 -0.00801076 0.00285974
v -0.00095438 -0.00770654 0.00247652
v -0.00132891 -0.00798736 0.00236621
v -0.00160944 -0.00807973 0.00235163
v -0.00267484 -0.00885075 0.00250953
v -0.00320606 -0.00887169 0.00245369
v -0.00192578 -0.00845539 0.00238574
v -0.00212722 -0.00876946 0.00261847
v -0.00373876 -0.00887538 0.00245589
v -0.00427146 -0.00858964 0.00234062
v -0.00465346 -0.00854899 0.00235163
v -0.00481909 -0.00825586 0.00233375
v -0.00533389 -0.00770654 0.00231064
v -0.00948062 -0.00202735 0.00222838
v -0.00905983 -0.00222811 0.00222838
v -0.01165172 0.00328111 0.00317198
v -0.01156219 0.00082148 0.00222838
v -0.01149952 0.00047046 0.00222838
v -0.01149803 0.00045198 0.00223636
v -0.01187256 0.00080917 0.00370402
v -0.01154727 0.00034729 0.00263966
v -0.01170395 0.00027586 0.00370402
v -0.00320606 -0.00929415 0.00317198
v -0.00465346 -0.00908353 0.00423634
v -0.00466987 -0.00909585 0.00370402
v -0.00462958 -0.00907984 0.00328724
v -0.00431474 -0.00915989 0.00313456
v -0.00373876 -0.00929538 0.00317198
v -0.01060870 -0.00125879 0.00503853
v -0.00639929 -0.00717446 0.00474170
v -0.00695139 -0.00719417 0.00464541
v -0.00641272 -0.00772501 0.00464074
v -0.00584122 -0.00823615 0.00461405
v -0.00564724 -0.00853668 0.00453675
v -0.00491906 -0.00896776 0.00423634
v -0.00267484 -0.00920793 0.00317198
v -0.00229583 -0.00908846 0.00317198
v -0.00203321 -0.00897022 0.00370402
v -0.00160944 -0.00874360 0.00370402
v -0.00130056 -0.00854530 0.00370402
v -0.00129459 -0.00855023 0.00317198
v -0.00075890 -0.00802923 0.00317198
v -0.00130802 -0.00853668 0.00286304
v -0.01176363 0.00293747 0.00370402
v -0.01173677 0.00328111 0.00370402
v -0.01193822 0.00085720 0.00428283
v -0.01195762 0.00073773 0.00476866
v -0.01196806 0.00067615 0.00503853
v -0.01198746 0.00080793 0.00503853
v -0.00114090 -0.00817703 0.00268395
v -0.00160944 -0.00834577 0.00248368
v -0.00267484 -0.00912295 0.00277583
v -0.00320606 -0.00916482 0.00271971
v -0.00160944 -0.00862782 0.00274997
v -0.00233015 -0.00907245 0.00285121
v -0.00373876 -0.00916113 0.00272191
v -0.00500859 -0.00844553 0.00240417
v -0.00564873 -0.00800090 0.00235575
v -0.00533389 -0.00808219 0.00234365
v -0.00416552 -0.00911186 0.00278986
v -0.00584122 -0.00768683 0.00233650
v -0.00638586 -0.00716091 0.00233375
v -0.00586659 -0.00717446 0.00230734
v -0.01049678 -0.00101123 0.00222838
v -0.00692603 -0.00663746 0.00233375
v -0.01170693 0.00328111 0.00351475
v -0.01149057 0.00044336 0.00222838
v -0.01137268 0.00022413 0.00222838
v -0.01141894 0.00008125 0.00263966
v -0.01145177 0.00001721 0.00292631
v -0.01159054 0.00022782 0.00313099
v -0.01175319 0.00027586 0.00423634
v -0.01148311 -0.00003329 0.00328119
v -0.00932394 -0.00423941 0.00353813
v -0.00891210 -0.00508187 0.00373813
v -0.00493548 -0.00897515 0.00370402
v -0.00451916 -0.00902934 0.00293236
v -0.00533389 -0.00874852 0.00370402
v -0.00562784 -0.00852313 0.00338931
v -0.00480566 -0.00893943 0.00313456
v -0.01074448 -0.00113070 0.00503853
v -0.00678576 -0.00755997 0.00458131
v -0.01087430 -0.00100138 0.00503853
v -0.00748410 -0.00666209 0.00464541
v -0.00732145 -0.00703035 0.00458186
v -0.00624560 -0.00805756 0.00457416
v -0.00533389 -0.00875222 0.00423634
v -0.00630529 -0.00810436 0.00423634
v -0.00593971 -0.00837040 0.00423634
v -0.00567261 -0.00855515 0.00423634
v -0.00202874 -0.00896776 0.00317198
v -0.00160944 -0.00874729 0.00317198
v -0.01188450 0.00044952 0.00503853
v -0.00481909 -0.00867339 0.00260472
v -0.00517273 -0.00857239 0.00275905
v -0.00584122 -0.00807357 0.00267707
v -0.00614562 -0.00798366 0.00287954
v -0.00600238 -0.00785187 0.00252467
v -0.00655448 -0.00732965 0.00248753
v -0.00710061 -0.00681112 0.00245396
v -0.00619934 -0.00749715 0.00235163
v -0.00674548 -0.00697493 0.00235163
v -0.00744530 -0.00609060 0.00233430
v -0.01080715 -0.00065774 0.00222838
v -0.00725580 -0.00645640 0.00235163
v -0.01112648 -0.00019833 0.00222838
v -0.00827196 -0.00532697 0.00236648
v -0.00881362 -0.00481213 0.00285781
v -0.00887480 -0.00491683 0.00317198
v -0.00909265 -0.00451284 0.00317198
v -0.00877781 -0.00528509 0.00358353
v -0.01179049 0.00027586 0.00476866
v -0.00879721 -0.00531711 0.00393813
v -0.01180541 0.00027586 0.00503853
v -0.00565769 -0.00854407 0.00370402
v -0.00552787 -0.00845785 0.00303470
v -0.00534433 -0.00863644 0.00319591
v -0.00592478 -0.00836301 0.00370402
v -0.00629036 -0.00809697 0.00370402
v -0.00621277 -0.00803662 0.00317198
v -0.00582928 -0.00831498 0.00319591
v -0.00739457 -0.00710302 0.00423634
v -0.00712449 -0.00736906 0.00423634
v -0.00685888 -0.00762402 0.00423634
v -0.00657089 -0.00789006 0.00423634
v -0.01098771 -0.00087082 0.00503853
v -0.01110410 -0.00073534 0.00503853
v -0.00783028 -0.00649951 0.00458104
v -0.00766167 -0.00683698 0.00423634
v -0.00647838 -0.00780384 0.00317198
v -0.00703943 -0.00729763 0.00317198
v -0.00669773 -0.00747006 0.00284213
v -0.00724386 -0.00695399 0.00280884
v -0.00742740 -0.00660543 0.00265864
v -0.00761093 -0.00625564 0.00250816
v -0.00777209 -0.00590092 0.00235218
v -0.01099815 -0.00040772 0.00222838
v -0.00774970 -0.00639974 0.00286304
v -0.00824361 -0.00581717 0.00295327
v -0.00833911 -0.00543659 0.00263966
v -0.00871961 -0.00518286 0.00317198
v -0.00863754 -0.00552773 0.00373813
v -0.00831076 -0.00590954 0.00330815
v -0.00834508 -0.00595881 0.00370402
v -0.00834508 -0.00596250 0.00423634
v -0.00879721 -0.00531711 0.00403937
v -0.00891509 -0.00509295 0.00422451
v -0.00878527 -0.00530110 0.00439397
v -0.01168902 0.00007510 0.00503853
v -0.00655597 -0.00787651 0.00370402
v -0.00739308 -0.00710056 0.00370402
v -0.00711702 -0.00736660 0.00370402
v -0.00685142 -0.00761047 0.00370402
v -0.01123988 -0.00057029 0.00503853
v -0.00831076 -0.00591447 0.00455133
v -0.00788848 -0.00657095 0.00423634
v -0.01137119 -0.00040525 0.00503853
v -0.00765868 -0.00682959 0.00370402
v -0.00732294 -0.00703035 0.00317198
v -0.00758855 -0.00674461 0.00317198
v -0.00781387 -0.00647857 0.00317198
v -0.00810484 -0.00609552 0.00314722
v -0.00844356 -0.00561518 0.00314722
v -0.00788251 -0.00656356 0.00370402
v -0.00814960 -0.00622485 0.00370402
v -0.00815557 -0.00622978 0.00423634
v -0.00864202 -0.00552773 0.00422451
v -0.01155921 -0.00013921 0.00503853
f 1 2 7
f 1 7 13
f 1 13 25
f 1 25 39
f 1 39 40
f 1 40 68
f 1 68 97
f 1 97 130
f 1 130 175
f 1 175 225
f 1 225 275
f 1 275 254
f 1 254 203
f 1 203 151
f 1 151 114
f 1 114 84
f 1 84 54
f 1 54 29
f 1 29 14
f 1 14 8
f 1 8 3
f 1 3 4
f 1 4 5
f 1 5 6
f 1 6 2
f 2 6 7
f 3 8 9
f 3 9 4
f 4 9 17
f 4 17 10
f 4 10 11
f 4 11 5
f 5 11 12
f 5 12 6
f 6 12 7
f 7 12 13
f 8 14 15
f 8 15 16
f 8 16 9
f 9 16 17
f 10 17 18
f 10 18 19
f 10 19 20
f 10 20 11
f 11 20 21
f 11 21 12
f 12 22 23
f 12 23 24
f 12 24 25
f 12 25 13
f 12 21 26
f 12 26 27
f 12 27 22
f 14 28 15
f 14 29 28
f 15 28 30
f 15 30 16
f 16 30 17
f 17 30 18
f 18 30 31
f 18 31 19
f 19 31 32
f 19 32 33
f 19 33 20
f 20 33 21
f 21 34 27
f 21 27 26
f 21 33 35
f 21 35 36
f 21 36 37
f 21 37 38
f 21 38 34
f 22 27 23
f 23 39 25
f 23 25 24
f 23 27 40
f 23 40 39
f 27 34 41
f 27 41 42
f 27 42 43
f 27 43 44
f 27 44 40
f 28 45 46
f 28 46 47
f 28 47 30
f 28 29 45
f 29 48 49
f 29 49 50
f 29 50 51
f 29 51 52
f 29 52 53
f 29 53 45
f 29 54 85
f 29 85 115
f 29 115 156
f 29 156 208
f 29 208 258
f 29 258 257
f 29 257 302
f 29 302 323
f 29 323 358
f 29 358 377
f 29 377 366
f 29 366 363
f 29 363 336
f 29 336 335
f 29 335 292
f 29 292 290
f 29 290 238
f 29 238 185
f 29 185 137
f 29 137 136
f 29 136 135
f 29 135 102
f 29 102 101
f 29 101 79
f 29 79 78
f 29 78 55
f 29 55 48
f 30 47 56
f 30 56 57
f 30 57 58
f 30 58 31
f 31 58 59
f 31 59 32
f 32 59 33
f 33 59 35
f 34 38 41
f 35 59 60
f 35 60 36
f 36 60 61
f 36 61 37
f 37 62 63
f 37 63 38
f 37 61 64
f 37 64 65
f 37 65 62
f 38 63 41
f 40 44 66
f 40 66 94
f 40 94 67
f 40 67 95
f 40 95 127
f 40 127 173
f 40 173 172
f 40 172 171
f 40 171 170
f 40 170 169
f 40 169 224
f 40 224 223
f 40 223 273
f 40 273 313
f 40 313 346
f 40 346 315
f 40 315 277
f 40 277 276
f 40 276 227
f 40 227 226
f 40 226 176
f 40 176 174
f 40 174 128
f 40 128 96
f 40 96 68
f 41 63 62
f 41 62 42
f 42 69 66
f 42 66 70
f 42 70 43
f 42 62 71
f 42 71 69
f 43 70 44
f 44 70 66
f 45 53 72
f 45 72 73
f 45 73 46
f 46 73 56
f 46 56 47
f 48 74 75
f 48 75 76
f 48 76 77
f 48 77 49
f 48 55 78
f 48 78 79
f 48 79 74
f 49 77 50
f 50 77 51
f 51 80 81
f 51 81 82
f 51 82 83
f 51 83 52
f 51 77 80
f 52 83 72
f 52 72 53
f 54 84 85
f 56 86 57
f 56 73 87
f 56 87 86
f 57 86 60
f 57 60 58
f 58 60 59
f 60 86 88
f 60 88 61
f 61 88 89
f 61 89 64
f 62 65 71
f 64 89 90
f 64 90 91
f 64 91 65
f 65 91 92
f 65 92 71
f 66 69 93
f 66 93 119
f 66 119 94
f 67 94 95
f 68 96 97
f 69 71 93
f 71 92 118
f 71 118 98
f 71 98 93
f 72 83 113
f 72 113 99
f 72 99 73
f 73 99 87
f 74 100 75
f 74 79 101
f 74 101 102
f 74 102 103
f 74 103 104
f 74 104 100
f 75 100 105
f 75 105 106
f 75 106 76
f 76 107 108
f 76 108 77
f 76 106 107
f 77 108 109
f 77 109 110
f 77 110 80
f 80 110 81
f 81 111 112
f 81 112 82
f 81 110 109
f 81 109 111
f 82 112 113
f 82 113 83
f 84 114 115
f 84 115 85
f 86 87 89
f 86 89 88
f 87 99 90
f 87 90 89
f 90 99 113
f 90 113 116
f 90 116 117
f 90 117 91
f 91 117 118
f 91 118 92
f 93 98 119
f 94 119 120
f 94 120 121
f 94 121 122
f 94 122 123
f 94 123 124
f 94 124 95
f 95 124 125
f 95 125 126
f 95 126 127
f 96 128 129
f 96 129 130
f 96 130 97
f 98 131 121
f 98 121 120
f 98 120 119
f 98 118 132
f 98 132 131
f 100 133 105
f 100 104 134
f 100 134 133
f 102 135 103
f 103 135 136
f 103 136 137
f 103 137 138
f 103 138 139
f 103 139 104
f 104 139 140
f 104 140 134
f 105 141 142
f 105 142 106
f 105 133 141
f 106 142 107
f 107 143 108
f 107 142 143
f 108 143 109
f 109 144 145
f 109 145 111
f 109 143 144
f 111 146 147
f 111 147 148
f 111 148 149
f 111 149 112
f 111 145 150
f 111 150 146
f 112 149 116
f 112 116 113
f 114 151 152
f 114 152 153
f 114 153 115
f 115 154 155
f 115 155 156
f 115 153 154
f 116 149 157
f 116 157 117
f 117 157 132
f 117 132 118
f 121 131 158
f 121 158 159
f 121 159 160
f 121 160 123
f 121 123 122
f 123 160 161
f 123 161 162
f 123 162 124
f 124 162 125
f 125 162 126
f 126 162 163
f 126 163 164
f 126 164 165
f 126 165 166
f 126 166 167
f 126 167 168
f 126 168 224
f 126 224 169
f 126 169 170
f 126 170 171
f 126 171 172
f 126 172 173
f 126 173 127
f 128 174 129
f 129 175 130
f 129 174 176
f 129 176 177
f 129 177 178
f 129 178 179
f 129 179 175
f 131 132 180
f 131 180 158
f 132 157 180
f 133 181 141
f 133 134 184
f 133 184 181
f 134 140 182
f 134 182 183
f 134 183 184
f 137 185 138
f 138 186 187
f 138 187 139
f 138 185 186
f 139 187 188
f 139 188 189
f 139 189 140
f 140 189 188
f 140 188 190
f 140 190 182
f 141 191 192
f 141 192 142
f 141 181 191
f 142 192 193
f 142 193 143
f 143 194 195
f 143 195 144
f 143 193 196
f 143 196 194
f 144 195 197
f 144 197 198
f 144 198 150
f 144 150 145
f 146 199 147
f 146 150 199
f 147 200 201
f 147 201 148
f 147 199 200
f 148 201 157
f 148 157 149
f 150 198 202
f 150 202 199
f 151 203 152
f 152 204 205
f 152 205 206
f 152 206 207
f 152 207 155
f 152 155 154
f 152 154 153
f 152 203 204
f 155 207 208
f 155 208 156
f 157 201 180
f 158 180 159
f 159 180 209
f 159 209 210
f 159 210 211
f 159 211 212
f 159 212 161
f 159 161 160
f 161 212 162
f 162 213 163
f 162 212 213
f 163 213 164
f 164 214 215
f 164 215 165
f 164 213 212
f 164 212 216
f 164 216 217
f 164 217 214
f 165 215 166
f 166 215 167
f 167 218 219
f 167 219 168
f 167 215 218
f 168 219 220
f 168 220 221
f 168 221 222
f 168 222 223
f 168 223 224
f 175 179 225
f 176 226 177
f 177 226 227
f 177 227 228
f 177 228 178
f 178 229 205
f 178 205 179
f 178 228 230
f 178 230 231
f 178 231 229
f 179 205 225
f 180 201 200
f 180 200 199
f 180 199 210
f 180 210 209
f 181 232 245
f 181 245 191
f 181 184 232
f 182 190 233
f 182 233 234
f 182 234 183
f 183 234 235
f 183 235 236
f 183 236 237
f 183 237 184
f 184 237 232
f 185 238 186
f 186 239 240
f 186 240 241
f 186 241 187
f 186 238 239
f 187 241 242
f 187 242 188
f 188 242 243
f 188 243 190
f 190 244 233
f 190 243 244
f 191 245 246
f 191 246 192
f 192 246 247
f 192 247 193
f 193 247 248
f 193 248 196
f 194 196 248
f 194 248 249
f 194 249 195
f 195 249 250
f 195 250 197
f 197 210 251
f 197 251 198
f 197 250 252
f 197 252 210
f 198 251 202
f 199 202 210
f 202 251 210
f 203 253 204
f 203 254 253
f 204 253 205
f 205 253 225
f 205 229 206
f 206 255 256
f 206 256 257
f 206 257 258
f 206 258 207
f 206 229 255
f 207 258 208
f 210 252 259
f 210 259 212
f 210 212 211
f 212 259 252
f 212 252 260
f 212 260 216
f 214 261 262
f 214 262 215
f 214 217 261
f 215 262 218
f 216 260 263
f 216 263 217
f 217 263 264
f 217 264 261
f 218 265 220
f 218 220 219
f 218 262 265
f 220 266 267
f 220 267 268
f 220 268 221
f 220 265 269
f 220 269 266
f 221 268 222
f 222 268 270
f 222 270 271
f 222 271 272
f 222 272 223
f 223 272 274
f 223 274 273
f 225 253 275
f 227 276 228
f 228 276 277
f 228 277 278
f 228 278 230
f 229 257 256
f 229 256 255
f 229 231 257
f 230 278 279
f 230 279 280
f 230 280 231
f 231 281 257
f 231 280 282
f 231 282 283
f 231 283 284
f 231 284 281
f 232 262 261
f 232 261 245
f 232 237 262
f 233 244 234
f 234 244 285
f 234 285 235
f 235 286 236
f 235 285 287
f 235 287 288
f 235 288 289
f 235 289 286
f 236 286 269
f 236 269 237
f 237 269 265
f 237 265 262
f 238 290 239
f 239 290 240
f 240 291 241
f 240 290 292
f 240 292 293
f 240 293 294
f 240 294 291
f 241 291 295
f 241 295 242
f 242 295 243
f 243 296 244
f 243 295 297
f 243 297 298
f 243 298 299
f 243 299 296
f 244 296 285
f 245 261 264
f 245 264 246
f 246 264 300
f 246 300 247
f 247 300 301
f 247 301 248
f 248 301 250
f 248 250 249
f 250 301 252
f 252 263 260
f 252 301 264
f 252 264 263
f 253 254 275
f 257 281 302
f 264 301 300
f 266 269 303
f 266 303 304
f 266 304 267
f 267 305 306
f 267 306 307
f 267 307 308
f 267 308 309
f 267 309 310
f 267 310 270
f 267 270 268
f 267 304 305
f 269 286 303
f 270 310 271
f 271 310 311
f 271 311 274
f 271 274 272
f 273 312 313
f 273 274 312
f 274 311 314
f 274 314 312
f 277 315 316
f 277 316 317
f 277 317 318
f 277 318 278
f 278 318 319
f 278 319 320
f 278 320 279
f 279 282 280
f 279 320 283
f 279 283 282
f 281 321 302
f 281 284 321
f 283 320 284
f 284 320 322
f 284 322 323
f 284 323 321
f 285 296 287
f 286 289 304
f 286 304 303
f 287 296 299
f 287 299 324
f 287 324 288
f 288 325 326
f 288 326 289
f 288 324 327
f 288 327 328
f 288 328 329
f 288 329 330
f 288 330 306
f 288 306 325
f 289 326 304
f 291 294 331
f 291 331 332
f 291 332 333
f 291 333 334
f 291 334 295
f 292 335 293
f 293 335 336
f 293 336 337
f 293 337 294
f 294 337 338
f 294 338 331
f 295 334 297
f 297 328 327
f 297 327 298
f 297 334 328
f 298 327 299
f 299 327 324
f 302 321 323
f 304 326 325
f 304 325 306
f 304 306 305
f 306 329 339
f 306 339 340
f 306 340 341
f 306 341 307
f 306 330 329
f 307 341 308
f 308 341 342
f 308 342 309
f 309 311 310
f 309 342 343
f 309 343 344
f 309 344 316
f 309 316 345
f 309 345 314
f 309 314 311
f 312 314 345
f 312 345 313
f 313 345 346
f 315 346 316
f 316 344 347
f 316 347 348
f 316 348 349
f 316 349 317
f 316 346 345
f 317 349 348
f 317 348 350
f 317 350 318
f 318 350 320
f 318 320 319
f 320 351 322
f 320 350 352
f 320 352 353
f 320 353 351
f 322 351 353
f 322 353 354
f 322 354 355
f 322 355 323
f 323 355 356
f 323 356 357
f 323 357 358
f 328 334 359
f 328 359 329
f 329 359 339
f 331 360 332
f 331 338 360
f 332 360 361
f 332 361 333
f 333 361 334
f 334 361 362
f 334 362 359
f 336 363 337
f 337 364 365
f 337 365 338
f 337 363 366
f 337 366 364
f 338 367 360
f 338 365 367
f 339 359 362
f 339 362 340
f 340 362 361
f 340 361 368
f 340 368 342
f 340 342 341
f 342 368 369
f 342 369 347
f 342 347 343
f 343 347 344
f 347 369 370
f 347 370 371
f 347 371 348
f 348 371 352
f 348 352 372
f 348 372 350
f 350 372 352
f 352 371 370
f 352 370 373
f 352 373 374
f 352 374 353
f 353 374 375
f 353 375 354
f 354 375 357
f 354 357 376
f 354 376 355
f 355 376 357
f 355 357 356
f 357 375 364
f 357 364 377
f 357 377 358
f 360 368 361
f 360 367 368
f 364 375 365
f 364 366 377
f 365 373 367
f 365 375 374
f 365 374 373
f 367 369 368
f 367 373 370
f 367 370 369

