# https://github.com/mikedh/trimesh
v 0.00092277 0.01566055 0.00689773
v 0.00099746 0.01518076 0.00689595
v 0.00019084 0.01566055 0.00689595
v 0.00089562 0.01566055 0.00743041
v 0.00097166 0.01518076 0.00743041
v 0.00105585 0.01464874 0.00743041
v 0.00114005 0.01411551 0.00743041
v 0.00125004 0.01358349 0.00689803
v 0.00125004 0.01358349 0.00689595
v 0.00108165 0.01464874 0.00689595
v -0.01080448 0.01566055 0.00689595
v 0.00083179 0.01566055 0.00783452
v 0.00107894 0.01411551 0.00796280
v 0.00116177 0.01358349 0.00796280
v 0.00122016 0.01358349 0.00743041
v 0.00130572 0.01322760 0.00689803
v 0.00130572 0.01322760 0.00689595
v -0.01086015 0.01506415 0.00689595
v -0.01084929 0.01518076 0.00689803
v -0.01092126 0.01435237 0.00705688
v -0.01077868 0.01566055 0.00737756
v 0.00052354 0.01566055 0.00811749
v 0.00036737 0.01393817 0.00992902
v 0.00066476 0.01350090 0.00992902
v 0.00070550 0.01342073 0.00992902
v 0.00078562 0.01331870 0.00982658
v 0.00106672 0.01358349 0.00849458
v 0.00115227 0.01305148 0.00849458
v 0.00131251 0.01220851 0.00818697
v 0.00123239 0.01305148 0.00796280
v 0.00131251 0.01274660 0.00764628
v 0.00129078 0.01305633 0.00745357
v 0.00133152 0.01288264 0.00729145
v 0.00134374 0.01296159 0.00689595
v -0.01128927 0.01038774 0.00689595
v -0.01093756 0.01399647 0.00732738
v -0.01126075 0.01039017 0.00743041
v -0.01081942 0.01518076 0.00743041
v -0.01077460 0.01566055 0.00743041
v 0.00009986 0.01410093 0.00992902
v -0.00260518 0.01566055 0.00992902
v 0.00075303 0.01322881 0.00992902
v 0.00077340 0.01305148 0.00992902
v 0.00080056 0.01305148 0.00986370
v 0.00107079 0.01145421 0.00955935
v 0.00101240 0.01198744 0.00955935
v 0.00124189 0.01142870 0.00898421
v 0.00132337 0.01123314 0.00877844
v 0.00116585 0.01198744 0.00902697
v 0.00110067 0.01251946 0.00902697
v 0.00103413 0.01305148 0.00902697
v 0.00130300 0.01158782 0.00867838
v 0.00122016 0.01251946 0.00849458
v 0.00133423 0.01185383 0.00832385
v 0.00143744 0.01145421 0.00796280
v 0.00136411 0.01201295 0.00799071
v 0.00129485 0.01254861 0.00799071
v 0.00133559 0.01239070 0.00783215
v 0.00143608 0.01198744 0.00743041
v 0.00147410 0.01198744 0.00689803
v 0.00140485 0.01251946 0.00689803
v 0.00140485 0.01251946 0.00689595
v -0.01133544 0.00985573 0.00689595
v -0.01133544 0.00985816 0.00689803
v -0.01130828 0.00985816 0.00743041
v -0.01092262 0.01383735 0.00768220
v -0.01116298 0.01145421 0.00743041
v -0.01116569 0.01092219 0.00796280
v -0.01072843 0.01566055 0.00796280
v -0.01035907 0.01566055 0.00992902
v 0.00082908 0.01255590 0.00992902
v 0.00112375 0.01092219 0.00955935
v 0.00132608 0.00966988 0.00931558
v 0.00130843 0.01002456 0.00925857
v 0.00126226 0.01092219 0.00910060
v 0.00136547 0.01039017 0.00892839
v 0.00156237 0.00932614 0.00849458
v 0.00151348 0.00985816 0.00849458
v 0.00141028 0.01092219 0.00849458
v 0.00135324 0.01142870 0.00849844
v 0.00149719 0.01092219 0.00796280
v 0.00150262 0.01145421 0.00743041
v 0.00153792 0.01145421 0.00689803
v 0.00147410 0.01198744 0.00689595
v -0.01142506 0.00879291 0.00689595
v -0.01142506 0.00879412 0.00689803
v -0.01146580 0.00811392 0.00728047
v -0.01135309 0.00932614 0.00743041
v -0.01162196 0.00560080 0.00796280
v -0.01121322 0.01039017 0.00796280
v -0.01082213 0.01464874 0.00796280
v -0.01106792 0.01198744 0.00796280
v -0.01101903 0.01251946 0.00796280
v -0.01115619 0.01039017 0.00849458
v -0.01092262 0.01330534 0.00821696
v -0.01067004 0.01566055 0.00844173
v -0.01037129 0.01566055 0.00989101
v -0.01036586 0.01559253 0.00992902
v 0.00088475 0.01198744 0.00992902
v 0.00117399 0.01039017 0.00955935
v 0.00093635 0.01145421 0.00992902
v 0.00133966 0.00932614 0.00935715
v 0.00165199 0.00666484 0.00902697
v 0.00143608 0.00932614 0.00902697
v 0.00138040 0.00985208 0.00905933
v 0.00123646 0.00985208 0.00951956
v 0.00124597 0.00932614 0.00962319
v 0.00165607 0.00932614 0.00796280
v 0.00174162 0.00719685 0.00849458
v 0.00179729 0.00664176 0.00845331
v 0.00185433 0.00644863 0.00824844
v 0.00183939 0.00680331 0.00816500
v 0.00160446 0.00985816 0.00796280
v 0.00155150 0.01039017 0.00796280
v 0.00156101 0.01092219 0.00743041
v 0.00153792 0.01145421 0.00689595
v 0.00159632 0.01092219 0.00689803
v -0.01147395 0.00820623 0.00689595
v -0.01147395 0.00820744 0.00689803
v -0.01160159 0.00666484 0.00689803
v -0.01168850 0.00560080 0.00689803
v -0.01166406 0.00560080 0.00743041
v -0.01166542 0.00506878 0.00796280
v -0.01156493 0.00560080 0.00849458
v -0.01152012 0.00613282 0.00849458
v -0.01147802 0.00663811 0.00848746
v -0.01146444 0.00702559 0.00830574
v -0.01144407 0.00679723 0.00866027
v -0.01145901 0.00644256 0.00878022
v -0.01121729 0.00879412 0.00902697
v -0.01112360 0.00985816 0.00902697
v -0.01093212 0.01234333 0.00880665
v -0.01091583 0.01269801 0.00869976
v -0.01105841 0.01145421 0.00849458
v -0.01093891 0.01295066 0.00834523
v -0.01066325 0.01566055 0.00849458
v -0.01039166 0.01566055 0.00982391
v -0.01039845 0.01552086 0.00984796
v -0.01042425 0.01499735 0.00992902
v 0.00097981 0.01095499 0.00992902
v 0.00147546 0.00666484 0.00955935
v 0.00148768 0.00613282 0.00955935
v 0.00166150 0.00613282 0.00902697
v 0.00102869 0.01039017 0.00992902
v 0.00131794 0.00747137 0.00982658
v 0.00170224 0.00879412 0.00796280
v 0.00185297 0.00749930 0.00771546
v 0.00176742 0.00879412 0.00743041
v 0.00171717 0.00932614 0.00743041
v 0.00185433 0.00631016 0.00824844
v 0.00189099 0.00613282 0.00800377
v 0.00196568 0.00613282 0.00743041
v 0.00188420 0.00664176 0.00797764
v 0.00182309 0.00719685 0.00806197
v 0.00161397 0.01039017 0.00743041
v 0.00165063 0.01039017 0.00689803
v 0.00159632 0.01092219 0.00689595
v -0.01160159 0.00666241 0.00689595
v -0.01168850 0.00559837 0.00689595
v -0.01173060 0.00506878 0.00689803
v -0.01170616 0.00506878 0.00743041
v -0.01160703 0.00506878 0.00849458
v -0.01174825 0.00400353 0.00796280
v -0.01147259 0.00613282 0.00885000
v -0.01135173 0.00719685 0.00902697
v -0.01130692 0.00773009 0.00902697
v -0.01133679 0.00613282 0.00955935
v -0.01124581 0.00719685 0.00955935
v -0.01110866 0.00879412 0.00955935
v -0.01101496 0.00985816 0.00955935
v -0.01091583 0.01163519 0.00925055
v -0.01107471 0.01039017 0.00902697
v -0.01082485 0.01305148 0.00902697
v -0.01062115 0.01518076 0.00902697
v -0.01057498 0.01566055 0.00902697
v -0.01043647 0.01566055 0.00965110
v -0.01092669 0.01015332 0.00983549
v -0.01088731 0.01024320 0.00992902
v 0.00132880 0.00719685 0.00984766
v 0.00134781 0.00666484 0.00989012
v 0.00135324 0.00613282 0.00990170
v 0.00133831 0.00582430 0.00986934
v 0.00139806 0.00570769 0.00955935
v 0.00184618 0.00595548 0.00820865
v 0.00180273 0.00613282 0.00845331
v 0.00111832 0.00932614 0.00992902
v 0.00126090 0.00757218 0.00992902
v 0.00186655 0.00719685 0.00779592
v 0.00194667 0.00666484 0.00743041
v 0.00183803 0.00785398 0.00755185
v 0.00180137 0.00879412 0.00689803
v 0.00170224 0.00985816 0.00689803
v 0.00181902 0.00822809 0.00739686
v 0.00185297 0.00802889 0.00719703
v 0.00188149 0.00578907 0.00785382
v 0.00200370 0.00613282 0.00689595
v 0.00190457 0.00572470 0.00743041
v 0.00165063 0.01039017 0.00689595
v -0.01173060 0.00506635 0.00689595
v -0.01185281 0.00346909 0.00689595
v -0.01181208 0.00400353 0.00689803
v -0.01178763 0.00400353 0.00743041
v -0.01176998 0.00325166 0.00827575
v -0.01172788 0.00347152 0.00849458
v -0.01182158 0.00325166 0.00774337
v -0.01180529 0.00325166 0.00796280
v -0.01149296 0.00560080 0.00896521
v -0.01144407 0.00560080 0.00923155
v -0.01142370 0.00613282 0.00911604
v -0.01174418 0.00325166 0.00849458
v -0.01138025 0.00560080 0.00955935
v -0.01144543 0.00411771 0.00977195
v -0.01094027 0.00985816 0.00987854
v -0.01096607 0.01035373 0.00957123
v -0.01093212 0.01128051 0.00932924
v -0.01055733 0.01464874 0.00955935
v -0.01089953 0.01198744 0.00916236
v -0.01050573 0.01518076 0.00955935
v -0.01045277 0.01566055 0.00958667
v -0.01092398 0.00985816 0.00992902
v 0.00130028 0.00705717 0.00992902
v 0.00133016 0.00666484 0.00992902
v 0.00133966 0.00613282 0.00992902
v 0.00127448 0.00576478 0.00992902
v 0.00058329 0.00325166 0.00902697
v 0.00064847 0.00325166 0.00886336
v 0.00148361 0.00555222 0.00907240
v 0.00166286 0.00560080 0.00849458
v 0.00198333 0.00666484 0.00689803
v 0.00186383 0.00769850 0.00739686
v 0.00183803 0.00838478 0.00689803
v 0.00183803 0.00838600 0.00689595
v 0.00180137 0.00879412 0.00689595
v 0.00170224 0.00985816 0.00689595
v 0.00179050 0.00545869 0.00743041
v 0.00198333 0.00666484 0.00689595
v 0.00192087 0.00568097 0.00689803
v 0.00192087 0.00568097 0.00689595
v 0.00181359 0.00541496 0.00689803
v -0.01186911 0.00325166 0.00689595
v -0.01184467 0.00325166 0.00743041
v -0.01150925 0.00511494 0.00907774
v -0.01145494 0.00532386 0.00928885
v -0.01165455 0.00325166 0.00902697
v -0.01141963 0.00511494 0.00954243
v -0.01143049 0.00453555 0.00969772
v -0.01159209 0.00325166 0.00934022
v -0.01145765 0.00376303 0.00983074
v -0.01124853 0.00597006 0.00992902
v -0.01095521 0.00949255 0.00992902
v 0.00116177 0.00557772 0.00992902
v 0.00036058 0.00325166 0.00933874
v 0.00070414 0.00325166 0.00840194
v 0.00181359 0.00541496 0.00689595
v -0.00170214 0.00325166 0.00689595
v -0.01154728 0.00325166 0.00955935
v -0.01150925 0.00325166 0.00973691
v -0.01147530 0.00325166 0.00988478
v -0.01144543 0.00347152 0.00992902
v -0.01143185 0.00365614 0.00992902
v -0.01141691 0.00385778 0.00992902
v -0.01138025 0.00432299 0.00992902
v -0.01127840 0.00560080 0.00992902
v 0.00098524 0.00529349 0.00992902
v 0.00089833 0.00517081 0.00992902
v 0.00081006 0.00504935 0.00992902
v 0.00069735 0.00490845 0.00992902
v 0.00055613 0.00474690 0.00992902
v -0.00002100 0.00325166 0.00953708
v 0.00067563 0.00325166 0.00796933
v 0.00065526 0.00325166 0.00785531
v 0.00158681 0.00506878 0.00689595
v -0.00163832 0.00326017 0.00689595
v -0.00163832 0.00325166 0.00690812
v -0.01146037 0.00325166 0.00992902
v 0.00030491 0.00447360 0.00992902
v 0.00017998 0.00434364 0.00992902
v 0.00004961 0.00421610 0.00992902
v -0.00023148 0.00395130 0.00992902
v -0.00063208 0.00359298 0.00992902
v -0.00053295 0.00325166 0.00968762
v 0.00044478 0.00325166 0.00751800
v 0.00113326 0.00448454 0.00689595
v 0.00135868 0.00475054 0.00689595
v -0.00001285 0.00365007 0.00689595
v 0.00019220 0.00325166 0.00744110
v -0.00152425 0.00325166 0.00992902
v 0.00027096 0.00372417 0.00689595
v 0.00053712 0.00391851 0.00689595
v 0.00086710 0.00418573 0.00689595
f 1 2 3
f 1 3 11
f 1 11 21
f 1 21 39
f 1 39 69
f 1 69 96
f 1 96 136
f 1 136 175
f 1 175 219
f 1 219 176
f 1 176 137
f 1 137 97
f 1 97 70
f 1 70 41
f 1 41 22
f 1 22 12
f 1 12 4
f 1 4 5
f 1 5 6
f 1 6 7
f 1 7 8
f 1 8 9
f 1 9 10
f 1 10 2
f 2 10 9
f 2 9 17
f 2 17 34
f 2 34 62
f 2 62 84
f 2 84 116
f 2 116 157
f 2 157 198
f 2 198 234
f 2 234 233
f 2 233 232
f 2 232 236
f 2 236 196
f 2 196 238
f 2 238 254
f 2 254 272
f 2 272 284
f 2 284 283
f 2 283 290
f 2 290 289
f 2 289 288
f 2 288 285
f 2 285 273
f 2 273 255
f 2 255 240
f 2 240 200
f 2 200 199
f 2 199 159
f 2 159 158
f 2 158 118
f 2 118 85
f 2 85 63
f 2 63 35
f 2 35 18
f 2 18 11
f 2 11 3
f 4 12 13
f 4 13 5
f 5 13 6
f 6 13 7
f 7 13 14
f 7 14 15
f 7 15 16
f 7 16 8
f 8 16 17
f 8 17 9
f 11 18 19
f 11 19 20
f 11 20 21
f 12 22 23
f 12 23 24
f 12 24 25
f 12 25 26
f 12 26 27
f 12 27 13
f 13 27 28
f 13 28 14
f 14 28 29
f 14 29 30
f 14 30 31
f 14 31 32
f 14 32 15
f 15 32 33
f 15 33 16
f 16 33 34
f 16 34 17
f 18 20 19
f 18 35 20
f 20 36 21
f 20 35 37
f 20 37 36
f 21 38 39
f 21 36 38
f 22 40 23
f 22 41 40
f 23 40 41
f 23 41 70
f 23 70 98
f 23 98 139
f 23 139 178
f 23 178 220
f 23 220 250
f 23 250 249
f 23 249 263
f 23 263 262
f 23 262 261
f 23 261 260
f 23 260 259
f 23 259 275
f 23 275 287
f 23 287 280
f 23 280 279
f 23 279 278
f 23 278 277
f 23 277 276
f 23 276 268
f 23 268 267
f 23 267 266
f 23 266 265
f 23 265 264
f 23 264 251
f 23 251 224
f 23 224 223
f 23 223 222
f 23 222 221
f 23 221 187
f 23 187 186
f 23 186 144
f 23 144 140
f 23 140 101
f 23 101 99
f 23 99 71
f 23 71 43
f 23 43 42
f 23 42 25
f 23 25 24
f 25 42 26
f 26 42 43
f 26 43 44
f 26 44 45
f 26 45 46
f 26 46 47
f 26 47 48
f 26 48 49
f 26 49 50
f 26 50 51
f 26 51 27
f 27 51 28
f 28 51 52
f 28 52 53
f 28 53 29
f 29 54 55
f 29 55 56
f 29 56 57
f 29 57 30
f 29 53 54
f 30 57 31
f 31 33 32
f 31 57 58
f 31 58 59
f 31 59 33
f 33 59 60
f 33 60 61
f 33 61 34
f 34 61 62
f 35 63 64
f 35 64 65
f 35 65 37
f 36 66 38
f 36 37 67
f 36 67 66
f 37 65 90
f 37 90 68
f 37 68 66
f 37 66 67
f 38 66 69
f 38 69 39
f 43 71 44
f 44 71 45
f 45 72 73
f 45 73 74
f 45 74 75
f 45 75 48
f 45 48 47
f 45 47 46
f 45 71 72
f 48 52 51
f 48 51 50
f 48 50 49
f 48 75 74
f 48 74 76
f 48 76 77
f 48 77 78
f 48 78 79
f 48 79 52
f 52 79 80
f 52 80 54
f 52 54 53
f 54 80 81
f 54 81 55
f 55 81 82
f 55 82 59
f 55 59 56
f 56 58 57
f 56 59 58
f 59 82 60
f 60 82 83
f 60 83 116
f 60 116 84
f 60 84 62
f 60 62 61
f 63 85 64
f 64 85 86
f 64 86 87
f 64 87 65
f 65 87 88
f 65 88 89
f 65 89 90
f 66 91 69
f 66 68 92
f 66 92 93
f 66 93 91
f 68 94 95
f 68 95 92
f 68 90 94
f 69 91 95
f 69 95 96
f 70 97 98
f 71 99 72
f 72 100 73
f 72 99 101
f 72 101 100
f 73 102 103
f 73 103 104
f 73 104 105
f 73 105 74
f 73 100 106
f 73 106 107
f 73 107 102
f 74 105 76
f 76 105 104
f 76 104 77
f 77 108 78
f 77 104 109
f 77 109 110
f 77 110 111
f 77 111 112
f 77 112 108
f 78 108 113
f 78 113 79
f 79 113 114
f 79 114 81
f 79 81 80
f 81 114 115
f 81 115 82
f 82 115 117
f 82 117 83
f 83 117 157
f 83 157 116
f 85 118 119
f 85 119 86
f 86 119 87
f 87 119 120
f 87 120 121
f 87 121 122
f 87 122 88
f 88 122 89
f 89 122 123
f 89 123 124
f 89 124 125
f 89 125 126
f 89 126 127
f 89 127 90
f 90 127 94
f 91 93 95
f 92 95 93
f 94 127 126
f 94 126 128
f 94 128 129
f 94 129 130
f 94 130 131
f 94 131 132
f 94 132 133
f 94 133 134
f 94 134 95
f 95 135 133
f 95 133 136
f 95 136 96
f 95 134 135
f 97 137 138
f 97 138 139
f 97 139 98
f 100 107 106
f 100 101 107
f 101 140 107
f 102 107 141
f 102 141 103
f 103 141 142
f 103 142 143
f 103 143 111
f 103 111 110
f 103 110 104
f 104 110 109
f 107 140 144
f 107 144 145
f 107 145 141
f 108 112 146
f 108 146 147
f 108 147 148
f 108 148 149
f 108 149 155
f 108 155 113
f 111 143 150
f 111 150 151
f 111 151 152
f 111 152 153
f 111 153 112
f 112 153 154
f 112 154 146
f 113 155 115
f 113 115 114
f 115 155 156
f 115 156 117
f 117 156 198
f 117 198 157
f 118 158 120
f 118 120 119
f 120 158 159
f 120 159 121
f 121 159 199
f 121 199 160
f 121 160 161
f 121 161 122
f 122 161 123
f 123 162 124
f 123 161 163
f 123 163 162
f 124 162 129
f 124 129 128
f 124 128 125
f 125 128 126
f 129 162 164
f 129 164 165
f 129 165 166
f 129 166 130
f 130 166 167
f 130 167 168
f 130 168 169
f 130 169 170
f 130 170 131
f 131 170 171
f 131 171 172
f 131 172 132
f 132 173 174
f 132 174 175
f 132 175 133
f 132 172 173
f 133 135 134
f 133 175 136
f 137 176 177
f 137 177 138
f 138 177 139
f 139 177 178
f 141 145 179
f 141 179 180
f 141 180 142
f 142 180 181
f 142 181 182
f 142 182 143
f 143 182 183
f 143 183 184
f 143 184 185
f 143 185 150
f 144 186 145
f 145 186 187
f 145 187 179
f 146 154 188
f 146 188 147
f 147 188 189
f 147 189 190
f 147 190 148
f 148 191 192
f 148 192 149
f 148 190 193
f 148 193 194
f 148 194 191
f 149 192 156
f 149 156 155
f 150 185 184
f 150 184 151
f 151 184 195
f 151 195 152
f 152 196 189
f 152 189 153
f 152 195 197
f 152 197 196
f 153 188 154
f 153 189 188
f 156 192 234
f 156 234 198
f 160 199 200
f 160 200 201
f 160 201 202
f 160 202 161
f 161 202 163
f 162 163 203
f 162 203 204
f 162 204 164
f 163 202 205
f 163 205 206
f 163 206 203
f 164 207 208
f 164 208 209
f 164 209 165
f 164 204 210
f 164 210 207
f 165 209 166
f 166 209 167
f 167 209 211
f 167 211 212
f 167 212 213
f 167 213 177
f 167 177 168
f 168 177 169
f 169 177 170
f 170 177 214
f 170 214 215
f 170 215 171
f 171 215 177
f 171 177 216
f 171 216 175
f 171 175 174
f 171 174 173
f 171 173 217
f 171 217 172
f 172 217 173
f 175 216 218
f 175 218 219
f 176 219 177
f 177 215 214
f 177 213 220
f 177 220 178
f 177 219 216
f 179 187 221
f 179 221 222
f 179 222 180
f 180 222 181
f 181 222 223
f 181 223 182
f 182 223 224
f 182 224 225
f 182 225 226
f 182 226 183
f 183 227 228
f 183 228 184
f 183 226 227
f 184 228 195
f 189 196 229
f 189 229 194
f 189 194 230
f 189 230 190
f 190 230 194
f 190 194 193
f 191 194 231
f 191 231 232
f 191 232 233
f 191 233 234
f 191 234 192
f 194 229 231
f 195 235 197
f 195 228 226
f 195 226 235
f 196 236 229
f 196 197 237
f 196 237 238
f 197 235 239
f 197 239 237
f 200 240 241
f 200 241 202
f 200 202 201
f 202 241 205
f 203 210 204
f 203 206 205
f 203 205 241
f 203 241 240
f 203 240 255
f 203 255 274
f 203 274 286
f 203 286 282
f 203 282 271
f 203 271 270
f 203 270 253
f 203 253 226
f 203 226 225
f 203 225 252
f 203 252 269
f 203 269 281
f 203 281 287
f 203 287 275
f 203 275 258
f 203 258 257
f 203 257 256
f 203 256 247
f 203 247 244
f 203 244 210
f 207 242 243
f 207 243 208
f 207 210 244
f 207 244 242
f 208 243 211
f 208 211 209
f 211 243 245
f 211 245 246
f 211 246 212
f 212 246 244
f 212 244 247
f 212 247 248
f 212 248 249
f 212 249 213
f 213 249 250
f 213 250 220
f 216 219 218
f 224 251 252
f 224 252 225
f 226 253 235
f 226 228 227
f 229 236 232
f 229 232 231
f 235 253 239
f 237 239 254
f 237 254 238
f 239 253 254
f 242 244 243
f 243 246 245
f 243 244 246
f 247 256 248
f 248 257 258
f 248 258 259
f 248 259 260
f 248 260 261
f 248 261 262
f 248 262 263
f 248 263 249
f 248 256 257
f 251 264 252
f 252 264 265
f 252 265 266
f 252 266 267
f 252 267 268
f 252 268 269
f 253 270 254
f 254 270 271
f 254 271 272
f 255 273 274
f 258 275 259
f 268 276 269
f 269 276 277
f 269 277 278
f 269 278 279
f 269 279 280
f 269 280 281
f 271 282 283
f 271 283 284
f 271 284 272
f 273 285 286
f 273 286 274
f 280 287 281
f 282 288 289
f 282 289 290
f 282 290 283
f 282 286 285
f 282 285 288

