# https://github.com/mikedh/trimesh
v 0.00084625 -0.02668455 0.03663589
v 0.00084405 -0.02652115 0.03663589
v 0.00327078 -0.02668455 0.03663589
v -0.00121590 -0.02668455 0.03936429
v -0.00121590 -0.02652115 0.03934907
v -0.00121590 -0.02629338 0.03934473
v 0.00084405 -0.02567383 0.03663589
v -0.00121590 -0.02567383 0.03933386
v 0.00327606 -0.02652115 0.03663589
v 0.00327650 -0.02668455 0.04000971
v -0.00121590 -0.02668455 0.04722134
v 0.00086516 -0.02549434 0.03663589
v -0.00121590 -0.02375142 0.03933386
v -0.00121590 -0.02036215 0.03933495
v 0.00327606 -0.02567383 0.03663589
v 0.00327606 -0.02036215 0.04069317
v 0.00327650 -0.02668455 0.04069317
v 0.00155342 -0.02668455 0.04722134
v 0.00070640 -0.02036215 0.04773637
v -0.00014107 -0.02036215 0.04769943
v -0.00085879 -0.02036215 0.04737780
v -0.00121590 -0.02508956 0.04715940
v 0.00094388 -0.02482651 0.03663589
v 0.00240089 -0.02428742 0.03663589
v 0.00155342 -0.02430784 0.03663589
v 0.00108637 -0.02436603 0.03663589
v -0.00121590 -0.02036215 0.04014119
v 0.00240089 -0.02036215 0.03933495
v 0.00316392 -0.02500600 0.03663589
v 0.00311642 -0.02036215 0.03984673
v 0.00327606 -0.02036215 0.04662480
v 0.00327606 -0.02143723 0.04662480
v 0.00327606 -0.02668455 0.04577727
v 0.00240089 -0.02668455 0.04721482
v 0.00155342 -0.02036215 0.04773529
v -0.00103735 -0.02036215 0.04685842
v -0.00121590 -0.02494535 0.04714745
v 0.00280021 -0.02433260 0.03663589
v -0.00121590 -0.02036524 0.04173737
v -0.00120886 -0.02036215 0.04174063
v 0.00275887 -0.02036215 0.03936646
v 0.00290796 -0.02434560 0.03663589
v 0.00313357 -0.02482651 0.03663589
v 0.00305573 -0.02036215 0.03972068
v 0.00305001 -0.02036215 0.04736476
v 0.00327386 -0.02228517 0.04662480
v 0.00325935 -0.02313249 0.04662480
v 0.00325891 -0.02668455 0.04594026
v 0.00240089 -0.02036215 0.04770812
v 0.00178123 -0.02036215 0.04772985
v 0.00278394 -0.02668455 0.04717679
v -0.00111651 -0.02036215 0.04662480
v 0.00289081 -0.02036215 0.03937841
v 0.00295590 -0.02444772 0.03663589
v 0.00304825 -0.02228517 0.04728218
v 0.00322944 -0.02397919 0.04662480
v 0.00303374 -0.02313249 0.04724524
v 0.00312258 -0.02668455 0.04662480
v 0.00289389 -0.02668455 0.04714527
v 0.00307948 -0.02668455 0.04676280
f 1 2 7
f 1 7 12
f 1 12 23
f 1 23 26
f 1 26 25
f 1 25 24
f 1 24 38
f 1 38 42
f 1 42 54
f 1 54 43
f 1 43 29
f 1 29 15
f 1 15 9
f 1 9 3
f 1 3 10
f 1 10 17
f 1 17 33
f 1 33 48
f 1 48 58
f 1 58 60
f 1 60 59
f 1 59 51
f 1 51 34
f 1 34 18
f 1 18 11
f 1 11 4
f 1 4 5
f 1 5 6
f 1 6 2
f 2 6 8
f 2 8 13
f 2 13 7
f 3 9 10
f 4 11 22
f 4 22 37
f 4 37 39
f 4 39 27
f 4 27 14
f 4 14 13
f 4 13 8
f 4 8 6
f 4 6 5
f 7 13 14
f 7 14 12
f 9 15 10
f 10 16 31
f 10 31 17
f 10 15 16
f 11 18 19
f 11 19 20
f 11 20 21
f 11 21 22
f 12 14 23
f 14 24 25
f 14 25 26
f 14 26 23
f 14 27 40
f 14 40 52
f 14 52 36
f 14 36 21
f 14 21 20
f 14 20 19
f 14 19 35
f 14 35 50
f 14 50 49
f 14 49 45
f 14 45 31
f 14 31 16
f 14 16 30
f 14 30 44
f 14 44 53
f 14 53 41
f 14 41 28
f 14 28 24
f 15 29 30
f 15 30 16
f 17 31 32
f 17 32 33
f 18 34 35
f 18 35 19
f 21 36 37
f 21 37 22
f 24 28 38
f 27 39 40
f 28 41 42
f 28 42 38
f 29 43 30
f 30 43 44
f 31 45 32
f 32 45 46
f 32 46 33
f 33 46 47
f 33 47 48
f 34 49 50
f 34 50 35
f 34 51 49
f 36 52 37
f 37 52 39
f 39 52 40
f 41 53 42
f 42 53 54
f 43 54 53
f 43 53 44
f 45 49 55
f 45 55 46
f 46 55 47
f 47 56 48
f 47 55 57
f 47 57 56
f 48 56 58
f 49 51 59
f 49 59 55
f 55 59 57
f 56 57 60
f 56 60 58
f 57 59 60

