# https://github.com/mikedh/trimesh
v 0.01957329 0.01740219 0.04878726
v 0.01944188 0.01740219 0.04878726
v 0.01994778 0.01729640 0.04878726
v 0.02158468 0.01124619 0.03663589
v 0.01932849 0.01734116 0.04878726
v 0.02137708 0.01124619 0.03663589
v 0.02060486 0.01643383 0.04878726
v 0.02064150 0.01636873 0.04868616
v 0.02190450 0.01076201 0.03663589
v 0.01910519 0.01716213 0.04878726
v 0.02095318 0.01090034 0.03663589
v 0.02064150 0.01636873 0.04878726
v 0.02149745 0.01292657 0.04423288
v 0.02201091 0.01076201 0.03899932
v 0.02199579 0.01076201 0.03815124
v 0.02195218 0.01076201 0.03730436
v 0.02212372 0.00991571 0.03663589
v 0.01899820 0.01707262 0.04878726
v 0.02046530 0.01047313 0.03663589
v 0.02075721 0.01497722 0.04878726
v 0.02090956 0.01415127 0.04831862
v 0.02083746 0.01499756 0.04831862
v 0.02145733 0.01275976 0.04530814
v 0.02149745 0.01292657 0.04474315
v 0.02181204 0.01160831 0.04238805
v 0.02200510 0.01076201 0.03984620
v 0.02212314 0.00991571 0.03730436
v 0.02227316 0.00482979 0.03730436
v 0.02227316 0.00482979 0.03663589
v 0.01865105 0.01658437 0.04878726
v 0.02013153 0.01011915 0.03663589
v 0.02004140 0.01002150 0.03663589
v 0.01971460 0.00959428 0.03663589
v 0.02082176 0.01415127 0.04878726
v 0.02085141 0.01368336 0.04878726
v 0.02087526 0.01330497 0.04878726
v 0.02096248 0.01330497 0.04831862
v 0.02111134 0.01330497 0.04747174
v 0.02128928 0.01245867 0.04662485
v 0.02147536 0.01219827 0.04540686
v 0.02151839 0.01247088 0.04498699
v 0.02174691 0.01160831 0.04323493
v 0.02192194 0.01076201 0.04154116
v 0.02197660 0.01076201 0.04069428
v 0.02207895 0.00991571 0.03899932
v 0.02210569 0.00991571 0.03815124
v 0.02222025 0.00567609 0.03899932
v 0.02223653 0.00567609 0.03815124
v 0.02226153 0.00482979 0.03815124
v 0.02231387 0.00267743 0.03761361
v 0.02230805 0.00308430 0.03731982
v 0.02231561 0.00276694 0.03704863
v 0.02227723 0.00465076 0.03663589
v 0.01855278 0.01636873 0.04878726
v 0.01834635 0.01557125 0.04878726
v 0.01967913 0.00918334 0.03663589
v 0.02092643 0.01245867 0.04878726
v 0.02101423 0.01245867 0.04831862
v 0.02106250 0.01160831 0.04831862
v 0.02115902 0.01245867 0.04747174
v 0.02120496 0.01160831 0.04747174
v 0.02142186 0.00996047 0.04658084
v 0.02146431 0.01027376 0.04617881
v 0.02151199 0.01076201 0.04566735
v 0.02157072 0.01160831 0.04492989
v 0.02166841 0.01160831 0.04408182
v 0.02188531 0.00991571 0.04238805
v 0.02185333 0.01076201 0.04238805
v 0.02170156 0.01076201 0.04408182
v 0.02183065 0.00737275 0.04408182
v 0.02187426 0.00821905 0.04323493
v 0.02198125 0.00737275 0.04238805
v 0.02195392 0.00991571 0.04154116
v 0.02204755 0.00991571 0.03984620
v 0.02198591 0.00906534 0.04154116
v 0.02201731 0.00821905 0.04154116
v 0.02204813 0.00737275 0.04154116
v 0.02203766 0.00906534 0.04069428
v 0.02211267 0.00906534 0.03899932
v 0.02216268 0.00652645 0.03984620
v 0.02218536 0.00567609 0.03984620
v 0.02220513 0.00482979 0.03984620
v 0.02224351 0.00313719 0.03984620
v 0.02226270 0.00228683 0.03984620
v 0.02227433 0.00313719 0.03899932
v 0.02229235 0.00228683 0.03899932
v 0.02231387 0.00181485 0.03852711
v 0.02231968 0.00211187 0.03796212
v 0.02234062 0.00144053 0.03730436
v 0.02231561 0.00276694 0.03671201
v 0.02231329 0.00285238 0.03663589
v 0.01829692 0.01456628 0.04878726
v 0.01966924 0.00906534 0.03663589
v 0.01869815 -0.00364132 0.03663589
v 0.02097295 0.01160831 0.04878726
v 0.02110146 0.01076201 0.04831862
v 0.02128695 0.00991571 0.04747174
v 0.02124741 0.01076201 0.04747174
v 0.02143000 0.00906534 0.04679018
v 0.02149164 0.00906534 0.04636674
v 0.02147710 0.00970820 0.04627040
v 0.02152478 0.00996047 0.04584814
v 0.02161026 0.01076201 0.04492989
v 0.02164573 0.00991571 0.04492989
v 0.02168062 0.00906534 0.04492989
v 0.02171435 0.00821905 0.04492989
v 0.02186205 0.00652645 0.04408182
v 0.02193764 0.00652645 0.04323493
v 0.02201266 0.00652645 0.04238805
v 0.02209697 0.00737275 0.04069428
v 0.02207720 0.00906534 0.03984620
v 0.02207778 0.00652645 0.04154116
v 0.02213535 0.00737275 0.03984620
v 0.02212488 0.00652645 0.04069428
v 0.02214756 0.00567609 0.04069428
v 0.02220513 0.00313719 0.04069428
v 0.02222374 0.00228683 0.04069428
v 0.02227840 0.00144053 0.03984620
v 0.02230747 0.00149342 0.03902311
v 0.02231968 0.00124930 0.03875667
v 0.02232666 0.00149342 0.03820715
v 0.02231968 0.00097670 0.03875667
v 0.02232608 0.00091973 0.03815124
v 0.02233189 0.00086277 0.03730436
v 0.02233189 0.00083429 0.03663589
v 0.02234004 0.00144053 0.03663589
v 0.02231736 0.00264895 0.03663589
v 0.01640009 -0.02415589 0.04878726
v 0.01783987 -0.02415589 0.03663589
v 0.02100784 0.01076201 0.04878726
v 0.02113460 0.00991571 0.04831862
v 0.02132301 0.00906534 0.04747174
v 0.02144570 0.00821905 0.04690556
v 0.02150967 0.00821905 0.04648093
v 0.02160968 0.00821905 0.04577678
v 0.02157479 0.00906534 0.04577678
v 0.02174459 0.00737275 0.04492989
v 0.02189054 0.00567609 0.04408182
v 0.02196846 0.00567609 0.04323493
v 0.02204115 0.00567609 0.04238805
v 0.02210279 0.00567609 0.04154116
v 0.02212198 0.00482979 0.04154116
v 0.02217664 0.00228683 0.04154116
v 0.02222839 0.00144053 0.04069428
v 0.02198184 -0.00194873 0.04154116
v 0.02192485 -0.00279502 0.04154116
v 0.02196323 -0.00279502 0.04069428
v 0.02203650 -0.00279502 0.03899932
v 0.02206906 -0.00279502 0.03815124
v 0.02213419 -0.00194873 0.03730436
v 0.02207429 -0.00279502 0.03730436
v 0.02211151 -0.00212775 0.03663589
v 0.01866151 -0.02415589 0.04878726
v 0.02003616 -0.02415589 0.03663589
v 0.02103517 0.00991571 0.04878726
v 0.02116368 0.00906534 0.04831862
v 0.02135208 0.00821905 0.04747174
v 0.02146838 0.00698215 0.04705424
v 0.02145849 0.00754771 0.04698763
v 0.02151373 0.00730765 0.04667362
v 0.02163876 0.00737275 0.04577678
v 0.02177250 0.00652645 0.04492989
v 0.02191264 0.00482979 0.04408182
v 0.02199405 0.00482979 0.04323493
v 0.02179634 0.00567609 0.04492989
v 0.02206325 0.00482979 0.04238805
v 0.02208243 0.00398349 0.04238805
v 0.02210046 0.00313719 0.04238805
v 0.02211732 0.00228683 0.04238805
v 0.02216094 0.00144053 0.04154116
v 0.02192020 -0.00194873 0.04238805
v 0.02186030 -0.00279502 0.04238805
v 0.02019956 -0.02058761 0.04154116
v 0.02026004 -0.02058761 0.04069428
v 0.02032051 -0.02058761 0.03984620
v 0.02038041 -0.02058761 0.03899932
v 0.02041413 -0.02058761 0.03815124
v 0.02042344 -0.02058761 0.03730436
v 0.02042983 -0.02058761 0.03663589
v 0.02206034 -0.00279502 0.03663589
v 0.01867431 -0.02406231 0.04878726
v 0.01873362 -0.02415589 0.04848871
v 0.02006349 -0.02397687 0.03663589
v 0.02002977 -0.02415589 0.03730436
v 0.02105377 0.00906534 0.04878726
v 0.02118345 0.00821905 0.04831862
v 0.02138232 0.00652645 0.04748958
v 0.02147071 0.00652645 0.04706495
v 0.02156781 0.00482979 0.04662485
v 0.02172075 0.00398349 0.04577678
v 0.02170795 0.00482979 0.04577678
v 0.02168818 0.00567609 0.04577678
v 0.02166376 0.00652645 0.04577678
v 0.02181669 0.00482979 0.04492989
v 0.02193067 0.00398349 0.04408182
v 0.02201440 0.00398349 0.04323493
v 0.02202719 0.00313719 0.04323493
v 0.02203650 0.00228683 0.04323493
v 0.02200917 0.00144053 0.04323493
v 0.02208941 0.00144053 0.04238805
v 0.02200626 -0.00025613 0.04238805
v 0.02188473 -0.00110243 0.04323493
v 0.02183821 -0.00194873 0.04323493
v 0.02192950 -0.00025613 0.04323493
v 0.02174982 -0.00194873 0.04408182
v 0.02176901 -0.00279502 0.04323493
v 0.02013153 -0.02058761 0.04238805
v 0.01995824 -0.02228427 0.04238805
v 0.01993731 -0.02313057 0.04154116
v 0.02029202 -0.02143391 0.03899932
v 0.02032749 -0.02143391 0.03815124
v 0.02034319 -0.02143391 0.03663589
v 0.01882142 -0.02392804 0.04825320
v 0.01868826 -0.02395652 0.04878726
v 0.01878537 -0.02415589 0.04826985
v 0.02015886 -0.02313057 0.03663589
v 0.02015362 -0.02313057 0.03730436
v 0.02014606 -0.02313057 0.03815124
v 0.02004779 -0.02397687 0.03815124
v 0.02002802 -0.02415589 0.03748515
v 0.02106133 0.00821905 0.04878726
v 0.02118635 0.00737275 0.04831862
v 0.02147652 0.00482979 0.04708517
v 0.02147361 0.00567609 0.04707684
v 0.02148001 0.00398349 0.04708874
v 0.02157363 0.00398349 0.04662485
v 0.02171784 0.00313719 0.04577678
v 0.02185274 0.00313719 0.04492989
v 0.02194346 0.00313719 0.04408182
v 0.02179460 0.00059423 0.04492989
v 0.02176610 -0.00025613 0.04492989
v 0.02184868 -0.00025613 0.04408182
v 0.02180274 -0.00110243 0.04408182
v 0.02171842 -0.00110243 0.04492989
v 0.02165678 -0.00194873 0.04492989
v 0.02167190 -0.00279502 0.04408182
v 0.02003907 -0.02058761 0.04323493
v 0.01980182 -0.02313057 0.04303629
v 0.01977682 -0.02358220 0.04284123
v 0.01986986 -0.02313057 0.04238805
v 0.01979891 -0.02371647 0.04238805
v 0.02001116 -0.02397687 0.03899932
v 0.02011176 -0.02313057 0.03899932
v 0.02023678 -0.02228427 0.03815124
v 0.02032400 -0.02161293 0.03663589
v 0.01874467 -0.02350896 0.04878726
v 0.01889237 -0.02415589 0.04779883
v 0.01899180 -0.02392804 0.04747887
v 0.01909298 -0.02313057 0.04747174
v 0.01919823 -0.02228427 0.04747174
v 0.01930174 -0.02143391 0.04747174
v 0.01886678 -0.02313057 0.04848039
v 0.02023154 -0.02246330 0.03663589
v 0.02001290 -0.02415589 0.03833204
v 0.02002046 -0.02415589 0.03815124
v 0.02105319 0.00737275 0.04878726
v 0.02117589 0.00652645 0.04831862
v 0.02147652 0.00346269 0.04707327
v 0.02166609 0.00059423 0.04577678
v 0.02163527 -0.00025613 0.04577678
v 0.02159107 -0.00110243 0.04577678
v 0.02152885 -0.00190804 0.04579819
v 0.02149396 -0.00279502 0.04549131
v 0.01961807 -0.02143391 0.04577678
v 0.01972913 -0.02146646 0.04493584
v 0.01979194 -0.02120199 0.04465751
v 0.01983438 -0.02146646 0.04412464
v 0.01980008 -0.02212559 0.04387010
v 0.01984834 -0.02235751 0.04331225
v 0.01995243 -0.02143391 0.04323493
v 0.01977100 -0.02269115 0.04364648
v 0.01931046 -0.02397687 0.04577678
v 0.01928604 -0.02415589 0.04577678
v 0.01937908 -0.02415589 0.04510950
v 0.01961051 -0.02415589 0.04341692
v 0.01964017 -0.02415589 0.04318616
v 0.01973146 -0.02413962 0.04238805
v 0.01974425 -0.02313057 0.04346093
v 0.01965645 -0.02313057 0.04408182
v 0.01953608 -0.02313057 0.04492989
v 0.01976809 -0.02415589 0.04191941
v 0.01982450 -0.02400535 0.04150310
v 0.01998383 -0.02415589 0.03899932
v 0.01890225 -0.02248771 0.04864334
v 0.01884352 -0.02266267 0.04878726
v 0.01898075 -0.02415589 0.04738847
v 0.01910868 -0.02415589 0.04678305
v 0.01916509 -0.02397687 0.04662485
v 0.01927034 -0.02313057 0.04662485
v 0.01937442 -0.02228427 0.04662485
v 0.01910054 -0.02143391 0.04831862
v 0.01947560 -0.02143391 0.04662485
v 0.02147477 -0.00159882 0.04623590
v 0.02137534 -0.00190804 0.04656062
v 0.02103168 0.00652645 0.04878726
v 0.02115844 0.00567609 0.04831862
v 0.02126253 0.00059423 0.04747174
v 0.02143291 0.00059423 0.04689129
v 0.02152362 0.00059423 0.04646784
v 0.02150676 -0.00025613 0.04638458
v 0.02139860 -0.00110243 0.04671882
v 0.02148699 -0.00110243 0.04629537
v 0.01951980 -0.02228427 0.04577678
v 0.01963842 -0.02228427 0.04492989
v 0.01976344 -0.02176754 0.04443508
v 0.01913776 -0.02415589 0.04663675
v 0.01972623 -0.02415589 0.04240946
v 0.01972855 -0.02415589 0.04238805
v 0.01979077 -0.02415589 0.04163156
v 0.01980822 -0.02415589 0.04139486
v 0.01893249 -0.02192216 0.04876585
v 0.01892435 -0.02194250 0.04878726
v 0.01917962 -0.02058761 0.04831862
v 0.01898715 -0.02132405 0.04878726
v 0.01897668 -0.02143391 0.04878726
v 0.01893830 -0.02181230 0.04878726
v 0.02113518 -0.00194873 0.04747174
v 0.02100377 0.00567609 0.04878726
v 0.02113111 0.00482979 0.04831862
v 0.02095027 -0.00025613 0.04831862
v 0.02123055 -0.00025613 0.04747174
v 0.02119624 -0.00110243 0.04747174
v 0.02141604 -0.00025613 0.04680803
v 0.02085607 -0.00194873 0.04831862
v 0.02068918 -0.00194873 0.04878726
v 0.02075372 -0.00090713 0.04878726
v 0.02074617 -0.00110243 0.04878726
v 0.02091712 -0.00110243 0.04831862
v 0.02069674 -0.00184294 0.04878726
f 1 2 5
f 1 5 10
f 1 10 18
f 1 18 30
f 1 30 54
f 1 54 55
f 1 55 92
f 1 92 128
f 1 128 153
f 1 153 181
f 1 181 214
f 1 214 246
f 1 246 285
f 1 285 312
f 1 312 316
f 1 316 315
f 1 315 314
f 1 314 325
f 1 325 329
f 1 329 327
f 1 327 326
f 1 326 318
f 1 318 295
f 1 295 256
f 1 256 221
f 1 221 185
f 1 185 155
f 1 155 130
f 1 130 95
f 1 95 57
f 1 57 36
f 1 36 35
f 1 35 34
f 1 34 20
f 1 20 12
f 1 12 7
f 1 7 3
f 1 3 4
f 1 4 6
f 1 6 2
f 2 6 5
f 3 7 8
f 3 8 4
f 4 8 9
f 4 9 17
f 4 17 29
f 4 29 53
f 4 53 91
f 4 91 127
f 4 127 126
f 4 126 125
f 4 125 152
f 4 152 180
f 4 180 179
f 4 179 212
f 4 212 245
f 4 245 253
f 4 253 216
f 4 216 183
f 4 183 154
f 4 154 129
f 4 129 94
f 4 94 93
f 4 93 56
f 4 56 33
f 4 33 32
f 4 32 31
f 4 31 19
f 4 19 11
f 4 11 6
f 5 6 10
f 6 11 10
f 7 12 8
f 8 12 24
f 8 24 13
f 8 13 14
f 8 14 15
f 8 15 16
f 8 16 9
f 9 16 17
f 10 11 18
f 11 19 18
f 12 20 21
f 12 21 22
f 12 22 23
f 12 23 24
f 13 24 25
f 13 25 14
f 14 25 26
f 14 26 27
f 14 27 17
f 14 17 15
f 15 17 16
f 17 27 28
f 17 28 29
f 18 19 31
f 18 31 32
f 18 32 33
f 18 33 30
f 20 34 21
f 21 34 35
f 21 35 36
f 21 36 37
f 21 37 38
f 21 38 22
f 22 38 23
f 23 38 39
f 23 39 40
f 23 40 41
f 23 41 24
f 24 41 42
f 24 42 25
f 25 42 43
f 25 43 44
f 25 44 26
f 26 44 45
f 26 45 46
f 26 46 27
f 27 46 47
f 27 47 48
f 27 48 49
f 27 49 28
f 28 49 50
f 28 50 51
f 28 51 52
f 28 52 53
f 28 53 29
f 30 33 54
f 33 55 54
f 33 56 55
f 36 57 58
f 36 58 37
f 37 58 38
f 38 58 59
f 38 59 60
f 38 60 39
f 39 60 61
f 39 61 62
f 39 62 63
f 39 63 64
f 39 64 40
f 40 64 65
f 40 65 41
f 41 65 66
f 41 66 42
f 42 67 68
f 42 68 43
f 42 66 69
f 42 69 70
f 42 70 71
f 42 71 72
f 42 72 67
f 43 68 67
f 43 67 73
f 43 73 44
f 44 74 45
f 44 73 75
f 44 75 76
f 44 76 77
f 44 77 78
f 44 78 74
f 45 74 79
f 45 79 46
f 46 79 47
f 47 49 48
f 47 79 80
f 47 80 81
f 47 81 82
f 47 82 83
f 47 83 84
f 47 84 85
f 47 85 49
f 49 85 86
f 49 86 87
f 49 87 88
f 49 88 50
f 50 88 89
f 50 89 51
f 51 89 52
f 52 89 90
f 52 90 53
f 53 90 91
f 55 56 93
f 55 93 94
f 55 94 92
f 57 95 59
f 57 59 58
f 59 96 97
f 59 97 98
f 59 98 61
f 59 61 60
f 59 95 96
f 61 98 62
f 62 98 97
f 62 97 99
f 62 99 100
f 62 100 101
f 62 101 63
f 63 101 102
f 63 102 64
f 64 102 103
f 64 103 65
f 65 103 66
f 66 103 104
f 66 104 105
f 66 105 106
f 66 106 69
f 67 72 73
f 69 106 70
f 70 106 107
f 70 107 108
f 70 108 72
f 70 72 71
f 72 108 109
f 72 109 76
f 72 76 75
f 72 75 73
f 74 78 110
f 74 110 111
f 74 111 79
f 76 109 77
f 77 109 112
f 77 112 110
f 77 110 78
f 79 111 113
f 79 113 80
f 80 114 115
f 80 115 81
f 80 113 114
f 81 115 82
f 82 115 116
f 82 116 83
f 83 116 84
f 84 116 117
f 84 117 118
f 84 118 119
f 84 119 86
f 84 86 85
f 86 119 120
f 86 120 87
f 87 120 121
f 87 121 88
f 88 121 89
f 89 121 120
f 89 120 122
f 89 122 123
f 89 123 124
f 89 124 125
f 89 125 126
f 89 126 90
f 90 126 127
f 90 127 91
f 92 94 128
f 94 129 128
f 95 130 96
f 96 130 131
f 96 131 132
f 96 132 97
f 97 132 99
f 99 132 133
f 99 133 134
f 99 134 100
f 100 134 135
f 100 135 136
f 100 136 101
f 101 136 102
f 102 136 103
f 103 136 104
f 104 136 135
f 104 135 105
f 105 135 106
f 106 135 137
f 106 137 107
f 107 138 139
f 107 139 108
f 107 137 138
f 108 139 109
f 109 139 140
f 109 140 112
f 110 113 111
f 110 112 114
f 110 114 113
f 112 140 141
f 112 141 114
f 114 141 115
f 115 141 142
f 115 142 116
f 116 142 117
f 117 143 118
f 117 142 143
f 118 144 122
f 118 122 120
f 118 120 119
f 118 143 144
f 122 144 145
f 122 145 146
f 122 146 147
f 122 147 148
f 122 148 149
f 122 149 123
f 123 149 124
f 124 149 150
f 124 150 125
f 125 150 151
f 125 151 152
f 128 129 154
f 128 154 184
f 128 184 220
f 128 220 255
f 128 255 254
f 128 254 283
f 128 283 310
f 128 310 309
f 128 309 281
f 128 281 308
f 128 308 307
f 128 307 276
f 128 276 275
f 128 275 274
f 128 274 273
f 128 273 306
f 128 306 287
f 128 287 286
f 128 286 247
f 128 247 215
f 128 215 182
f 128 182 153
f 130 155 156
f 130 156 131
f 131 156 157
f 131 157 132
f 132 157 158
f 132 158 159
f 132 159 133
f 133 159 134
f 134 159 160
f 134 160 135
f 135 160 161
f 135 161 137
f 137 161 162
f 137 162 138
f 138 163 164
f 138 164 139
f 138 162 165
f 138 165 163
f 139 164 140
f 140 164 166
f 140 166 141
f 141 166 167
f 141 167 142
f 142 167 143
f 143 167 168
f 143 168 169
f 143 169 144
f 144 169 170
f 144 170 171
f 144 171 145
f 145 171 146
f 146 171 172
f 146 172 173
f 146 173 174
f 146 174 175
f 146 175 176
f 146 176 147
f 147 176 148
f 148 176 177
f 148 177 149
f 149 151 150
f 149 177 178
f 149 178 179
f 149 179 151
f 151 180 152
f 151 179 180
f 153 182 181
f 154 183 184
f 155 185 186
f 155 186 156
f 156 186 158
f 156 158 157
f 158 187 188
f 158 188 189
f 158 189 190
f 158 190 191
f 158 191 192
f 158 192 160
f 158 160 159
f 158 186 187
f 160 192 193
f 160 193 161
f 161 193 162
f 162 193 192
f 162 192 165
f 163 165 194
f 163 194 228
f 163 228 195
f 163 195 196
f 163 196 164
f 164 196 166
f 165 192 194
f 166 196 167
f 167 196 168
f 168 196 169
f 169 196 197
f 169 197 198
f 169 198 199
f 169 199 200
f 169 200 170
f 170 200 201
f 170 201 171
f 171 202 233
f 171 233 203
f 171 203 172
f 171 201 204
f 171 204 202
f 172 203 205
f 172 205 206
f 172 206 207
f 172 207 173
f 173 207 208
f 173 208 209
f 173 209 174
f 174 209 175
f 175 209 176
f 176 209 210
f 176 210 211
f 176 211 177
f 177 211 178
f 178 211 212
f 178 212 179
f 181 182 213
f 181 213 214
f 182 215 213
f 183 216 217
f 183 217 218
f 183 218 219
f 183 219 220
f 183 220 184
f 185 221 186
f 186 221 222
f 186 222 187
f 187 223 224
f 187 224 188
f 187 222 225
f 187 225 223
f 188 224 226
f 188 226 189
f 189 226 190
f 190 226 227
f 190 227 228
f 190 228 191
f 191 194 192
f 191 228 194
f 195 228 229
f 195 229 197
f 195 197 196
f 197 229 198
f 198 229 228
f 198 228 230
f 198 230 199
f 199 230 231
f 199 231 232
f 199 232 204
f 199 204 200
f 200 204 201
f 202 204 232
f 202 232 233
f 203 233 234
f 203 234 205
f 205 234 235
f 205 235 206
f 206 235 236
f 206 236 237
f 206 237 207
f 207 237 238
f 207 238 239
f 207 239 208
f 208 239 240
f 208 240 209
f 209 240 241
f 209 241 242
f 209 242 243
f 209 243 210
f 210 243 211
f 211 243 244
f 211 244 212
f 212 244 218
f 212 218 245
f 213 246 214
f 213 215 247
f 213 247 248
f 213 248 249
f 213 249 250
f 213 250 251
f 213 251 252
f 213 252 246
f 216 253 217
f 217 253 245
f 217 245 218
f 218 244 243
f 218 243 219
f 219 243 242
f 219 242 254
f 219 254 255
f 219 255 220
f 221 256 222
f 222 256 257
f 222 257 225
f 223 225 226
f 223 226 224
f 225 258 226
f 225 257 258
f 226 258 259
f 226 259 227
f 227 259 228
f 228 259 230
f 230 259 231
f 231 259 260
f 231 260 261
f 231 261 234
f 231 234 233
f 231 233 232
f 234 261 235
f 235 261 262
f 235 262 263
f 235 263 264
f 235 264 265
f 235 265 266
f 235 266 237
f 235 237 236
f 237 266 265
f 237 265 267
f 237 267 268
f 237 268 269
f 237 269 270
f 237 270 238
f 238 270 269
f 238 269 271
f 238 271 239
f 239 272 273
f 239 273 274
f 239 274 275
f 239 275 276
f 239 276 277
f 239 277 241
f 239 241 240
f 239 271 278
f 239 278 279
f 239 279 280
f 239 280 272
f 241 277 281
f 241 281 282
f 241 282 242
f 242 282 283
f 242 283 254
f 246 252 284
f 246 284 285
f 247 286 248
f 248 286 287
f 248 287 288
f 248 288 249
f 249 288 289
f 249 289 250
f 250 289 290
f 250 290 251
f 251 291 284
f 251 284 252
f 251 290 292
f 251 292 293
f 251 293 294
f 251 294 291
f 256 295 296
f 256 296 257
f 257 296 258
f 258 297 298
f 258 298 299
f 258 299 259
f 258 296 297
f 259 299 260
f 260 299 300
f 260 300 301
f 260 301 302
f 260 302 293
f 260 293 261
f 261 293 262
f 262 293 292
f 262 292 263
f 263 292 264
f 264 292 303
f 264 303 304
f 264 304 271
f 264 271 265
f 265 271 305
f 265 305 267
f 267 305 268
f 268 305 271
f 268 271 269
f 271 304 303
f 271 303 278
f 272 288 273
f 272 280 303
f 272 303 289
f 272 289 288
f 273 288 306
f 276 307 277
f 277 307 308
f 277 308 281
f 278 303 279
f 279 303 280
f 281 309 282
f 282 309 310
f 282 310 283
f 284 291 311
f 284 311 285
f 285 311 312
f 287 306 288
f 289 303 290
f 290 303 292
f 291 313 314
f 291 314 315
f 291 315 316
f 291 316 311
f 291 294 313
f 293 302 301
f 293 301 294
f 294 301 317
f 294 317 313
f 295 318 319
f 295 319 296
f 296 319 297
f 297 320 321
f 297 321 298
f 297 319 320
f 298 321 322
f 298 322 323
f 298 323 300
f 298 300 299
f 300 323 301
f 301 322 317
f 301 323 322
f 311 316 312
f 313 317 314
f 314 317 324
f 314 324 325
f 317 322 328
f 317 328 324
f 318 326 320
f 318 320 319
f 320 326 327
f 320 327 328
f 320 328 321
f 321 328 322
f 324 328 325
f 325 328 329
f 327 329 328

