# https://github.com/mikedh/trimesh
v 0.01298586 -0.03351871 0.05392442
v 0.01378660 -0.03351871 0.04826330
v 0.01533016 -0.03351871 0.05392442
v 0.01432611 -0.02416088 0.05392442
v 0.01635807 -0.03351871 0.04826330
v 0.01652389 -0.02416179 0.04826330
v 0.01544318 -0.03351871 0.05344287
v 0.01540172 -0.03331351 0.05392442
v 0.01709577 -0.02416088 0.05392442
v 0.01652389 -0.02416088 0.04826552
v 0.01628310 -0.03351871 0.04885790
v 0.01653639 -0.03317976 0.04826330
v 0.01876484 -0.02416088 0.04826330
v 0.01547214 -0.03351871 0.05331819
v 0.01546305 -0.03348756 0.05340408
v 0.01644780 -0.03221512 0.05086223
v 0.01683227 -0.03160592 0.05001495
v 0.01639157 -0.03205755 0.05131995
v 0.01550564 -0.03296539 0.05392442
v 0.01713041 -0.02416088 0.05382246
v 0.01707930 -0.02431844 0.05392442
v 0.01624335 -0.03351871 0.04916711
v 0.01626663 -0.03347566 0.04916711
v 0.01656422 -0.03312021 0.04826330
v 0.01653468 -0.03316785 0.04831982
v 0.01878699 -0.02416088 0.04826330
v 0.01553858 -0.03351871 0.05301895
v 0.01630752 -0.03263927 0.05086223
v 0.01705204 -0.03152164 0.04908454
v 0.01723093 -0.03118360 0.04874707
v 0.01717585 -0.03098573 0.04931229
v 0.01725422 -0.03042050 0.04968080
v 0.01663180 -0.03160592 0.05086223
v 0.01652787 -0.03250002 0.05002548
v 0.01555448 -0.03279225 0.05392442
v 0.01732293 -0.02416088 0.05325391
v 0.01706567 -0.02444670 0.05392442
v 0.01728772 -0.02482687 0.05314973
v 0.01623654 -0.03351871 0.04921532
v 0.01646540 -0.03305242 0.04916711
v 0.01622631 -0.03325763 0.05002548
v 0.01605481 -0.03351871 0.05030033
v 0.01686464 -0.03245330 0.04826330
v 0.01685668 -0.03245330 0.04831982
v 0.01870407 -0.02476091 0.04826330
v 0.01873304 -0.02416088 0.04848995
v 0.01848145 -0.02482687 0.04916711
v 0.01868249 -0.02482687 0.04831982
v 0.01559765 -0.03351871 0.05274188
v 0.01635977 -0.03281332 0.05031474
v 0.01712871 -0.03172959 0.04831982
v 0.01727296 -0.03130636 0.04831982
v 0.01729511 -0.03126972 0.04826330
v 0.01745185 -0.03075854 0.04826330
v 0.01744106 -0.03075854 0.04831982
v 0.01768242 -0.02991116 0.04831982
v 0.01750296 -0.02991116 0.04916711
v 0.01771308 -0.02906378 0.04916711
v 0.01731498 -0.02987635 0.04998391
v 0.01573394 -0.03214000 0.05392442
v 0.01565841 -0.03242124 0.05392442
v 0.01670733 -0.03245330 0.04916711
v 0.01751432 -0.02416088 0.05268314
v 0.01702478 -0.02482687 0.05392442
v 0.01714404 -0.02482687 0.05357365
v 0.01697083 -0.02526568 0.05392442
v 0.01725138 -0.02539301 0.05304223
v 0.01748195 -0.02482687 0.05255625
v 0.01641202 -0.03294615 0.04975007
v 0.01605310 -0.03330068 0.05086223
v 0.01590204 -0.03351871 0.05116147
v 0.01687940 -0.03241849 0.04826330
v 0.01713325 -0.03174333 0.04826330
v 0.01869442 -0.02483054 0.04826330
v 0.01856891 -0.02416088 0.04916711
v 0.01821852 -0.02489375 0.05009031
v 0.01815945 -0.02567425 0.04987530
v 0.01834516 -0.02567425 0.04916711
v 0.01851894 -0.02416088 0.04934998
v 0.01854563 -0.02567425 0.04831982
v 0.01855869 -0.02567425 0.04826330
v 0.01574587 -0.03351871 0.05197883
v 0.01727807 -0.03132010 0.04826330
v 0.01746832 -0.03070174 0.04826330
v 0.01769377 -0.02991116 0.04826330
v 0.01770513 -0.02986719 0.04826330
v 0.01792377 -0.02900606 0.04826330
v 0.01792832 -0.02898774 0.04826330
v 0.01802202 -0.02837396 0.04847609
v 0.01808108 -0.02780874 0.04875704
v 0.01793116 -0.02814128 0.04909064
v 0.01750069 -0.02906378 0.05001495
v 0.01725195 -0.02957129 0.05052088
v 0.01586683 -0.03160592 0.05392442
v 0.01755577 -0.02416088 0.05255625
v 0.01684930 -0.02621291 0.05392442
v 0.01734735 -0.02567517 0.05260058
v 0.01774488 -0.02482687 0.05170896
v 0.01673402 -0.02704197 0.05392442
v 0.01697310 -0.02652164 0.05340408
v 0.01720935 -0.02595732 0.05291311
v 0.01782155 -0.02416088 0.05170896
v 0.01776533 -0.02416088 0.05188961
v 0.01811402 -0.02465556 0.05056078
v 0.01807313 -0.02521987 0.05042335
v 0.01803963 -0.02567425 0.05029922
v 0.01774375 -0.02652164 0.05086223
v 0.01760632 -0.02736901 0.05086223
v 0.01798227 -0.02654362 0.04999721
v 0.01810777 -0.02627521 0.04970241
v 0.01805950 -0.02683952 0.04951788
v 0.01818671 -0.02654362 0.04920811
v 0.01828610 -0.02416088 0.05016069
v 0.01842410 -0.02646575 0.04826330
v 0.01794024 -0.02893461 0.04826330
v 0.01811061 -0.02816143 0.04826330
v 0.01801407 -0.02736901 0.04933446
v 0.01767958 -0.02821731 0.05001495
v 0.01811743 -0.02812845 0.04826330
v 0.01826508 -0.02736901 0.04826330
v 0.01827531 -0.02731313 0.04826330
v 0.01723775 -0.02867627 0.05131275
v 0.01717755 -0.02923966 0.05108555
v 0.01685782 -0.02991116 0.05170896
v 0.01594123 -0.03128071 0.05392442
v 0.01716790 -0.02652164 0.05277735
v 0.01725478 -0.02710976 0.05221157
v 0.01761938 -0.02567425 0.05170896
v 0.01799306 -0.02489375 0.05085059
v 0.01668575 -0.02736901 0.05392442
v 0.01684817 -0.02736901 0.05340408
v 0.01787380 -0.02567425 0.05086223
v 0.01721276 -0.02767407 0.05207192
v 0.01783688 -0.02736901 0.05001495
v 0.01728375 -0.02821731 0.05147234
v 0.01745128 -0.02821731 0.05086223
v 0.01716449 -0.02821731 0.05189626
v 0.01707987 -0.02899965 0.05164080
v 0.01662441 -0.02991116 0.05255625
v 0.01605651 -0.03073655 0.05392442
v 0.01711906 -0.02738276 0.05251912
v 0.01660965 -0.02784813 0.05392442
v 0.01655570 -0.02817151 0.05392442
v 0.01696743 -0.02821731 0.05255625
v 0.01680330 -0.02906378 0.05255625
v 0.01613829 -0.03033439 0.05392442
v 0.01643928 -0.02879903 0.05392442
v 0.01642849 -0.02885491 0.05392442
v 0.01629162 -0.02956305 0.05392442
v 0.01622347 -0.02991116 0.05392442
f 1 2 5
f 1 5 11
f 1 11 22
f 1 22 39
f 1 39 42
f 1 42 71
f 1 71 82
f 1 82 49
f 1 49 27
f 1 27 14
f 1 14 7
f 1 7 3
f 1 3 8
f 1 8 19
f 1 19 35
f 1 35 61
f 1 61 60
f 1 60 94
f 1 94 125
f 1 125 140
f 1 140 146
f 1 146 150
f 1 150 149
f 1 149 148
f 1 148 147
f 1 147 143
f 1 143 142
f 1 142 130
f 1 130 99
f 1 99 96
f 1 96 66
f 1 66 64
f 1 64 37
f 1 37 21
f 1 21 9
f 1 9 4
f 1 4 2
f 2 4 6
f 2 6 13
f 2 13 26
f 2 26 45
f 2 45 74
f 2 74 81
f 2 81 114
f 2 114 121
f 2 121 120
f 2 120 119
f 2 119 116
f 2 116 115
f 2 115 88
f 2 88 87
f 2 87 86
f 2 86 85
f 2 85 84
f 2 84 54
f 2 54 53
f 2 53 83
f 2 83 73
f 2 73 72
f 2 72 43
f 2 43 24
f 2 24 12
f 2 12 5
f 3 7 8
f 4 9 20
f 4 20 36
f 4 36 63
f 4 63 95
f 4 95 103
f 4 103 102
f 4 102 113
f 4 113 79
f 4 79 75
f 4 75 46
f 4 46 26
f 4 26 13
f 4 13 10
f 4 10 6
f 5 12 11
f 6 10 13
f 7 14 15
f 7 15 8
f 8 16 17
f 8 17 18
f 8 18 19
f 8 15 16
f 9 21 20
f 11 12 23
f 11 23 22
f 12 24 25
f 12 25 23
f 14 27 16
f 14 16 15
f 16 27 28
f 16 28 17
f 17 29 30
f 17 30 31
f 17 31 32
f 17 32 33
f 17 33 18
f 17 28 34
f 17 34 29
f 18 33 19
f 19 33 32
f 19 32 35
f 20 21 36
f 21 37 38
f 21 38 36
f 22 23 39
f 23 25 40
f 23 40 41
f 23 41 42
f 23 42 39
f 24 43 44
f 24 44 25
f 25 44 40
f 26 46 47
f 26 47 48
f 26 48 45
f 27 49 28
f 28 50 34
f 28 49 50
f 29 34 51
f 29 51 52
f 29 52 30
f 30 52 53
f 30 53 54
f 30 54 55
f 30 55 31
f 31 55 56
f 31 56 32
f 32 56 57
f 32 57 58
f 32 58 59
f 32 59 60
f 32 60 61
f 32 61 35
f 34 50 62
f 34 62 51
f 36 38 63
f 37 64 65
f 37 65 38
f 38 65 66
f 38 66 67
f 38 67 68
f 38 68 63
f 40 69 41
f 40 44 69
f 41 70 71
f 41 71 42
f 41 69 70
f 43 72 44
f 44 72 73
f 44 73 51
f 44 51 62
f 44 62 69
f 45 48 74
f 46 75 47
f 47 76 77
f 47 77 78
f 47 78 48
f 47 75 79
f 47 79 76
f 48 78 80
f 48 80 81
f 48 81 74
f 49 82 70
f 49 70 50
f 50 70 69
f 50 69 62
f 51 73 83
f 51 83 52
f 52 83 53
f 54 84 55
f 55 84 85
f 55 85 56
f 56 85 86
f 56 86 87
f 56 87 57
f 57 87 88
f 57 88 58
f 58 88 89
f 58 89 90
f 58 90 91
f 58 91 92
f 58 92 59
f 59 93 94
f 59 94 60
f 59 92 93
f 63 68 95
f 64 66 65
f 66 96 67
f 67 97 98
f 67 98 68
f 67 96 99
f 67 99 100
f 67 100 101
f 67 101 97
f 68 98 102
f 68 102 103
f 68 103 95
f 70 82 71
f 76 79 104
f 76 104 105
f 76 105 106
f 76 106 77
f 77 106 107
f 77 107 108
f 77 108 109
f 77 109 110
f 77 110 78
f 78 110 111
f 78 111 112
f 78 112 90
f 78 90 80
f 79 113 104
f 80 90 114
f 80 114 81
f 88 115 89
f 89 115 116
f 89 116 90
f 90 112 117
f 90 117 118
f 90 118 91
f 90 116 119
f 90 119 120
f 90 120 121
f 90 121 114
f 91 118 92
f 92 118 122
f 92 122 123
f 92 123 93
f 93 123 124
f 93 124 94
f 94 124 125
f 97 101 126
f 97 126 127
f 97 127 98
f 98 104 102
f 98 127 128
f 98 128 129
f 98 129 104
f 99 130 131
f 99 131 100
f 100 131 101
f 101 131 126
f 102 104 113
f 104 129 105
f 105 128 132
f 105 132 133
f 105 133 106
f 105 129 128
f 106 133 107
f 107 133 108
f 108 134 109
f 108 133 135
f 108 135 136
f 108 136 134
f 109 134 110
f 110 134 111
f 111 134 117
f 111 117 112
f 117 134 118
f 118 136 122
f 118 134 136
f 122 136 135
f 122 135 137
f 122 137 138
f 122 138 123
f 123 138 124
f 124 138 139
f 124 139 125
f 125 139 140
f 126 131 127
f 127 131 141
f 127 141 133
f 127 133 132
f 127 132 128
f 130 142 131
f 131 142 133
f 131 133 141
f 133 142 143
f 133 143 144
f 133 144 137
f 133 137 135
f 137 144 145
f 137 145 138
f 138 145 139
f 139 145 140
f 140 145 146
f 143 147 144
f 144 147 148
f 144 148 149
f 144 149 145
f 145 149 150
f 145 150 146

