# https://github.com/mikedh/trimesh
v -0.00115992 0.03280053 0.03663589
v 0.00177578 0.03280053 0.03663589
v -0.00115963 0.03280053 0.03730371
v -0.00115590 0.03533824 0.03730371
v -0.00115590 0.03382366 0.03663589
v 0.00177578 0.03280053 0.03729939
v 0.00177578 0.03364406 0.03663589
v -0.00101192 0.03280053 0.03815089
v -0.00114412 0.03467114 0.03663589
v -0.00098864 0.03533824 0.03815089
v -0.00104267 0.03618572 0.03730371
v 0.00162289 0.03280053 0.03814657
v 0.00177578 0.03364406 0.03730371
v 0.00177176 0.03449154 0.03663589
v 0.00177578 0.03533824 0.03730371
v -0.00071446 0.03280053 0.03869330
v -0.00101881 0.03551823 0.03663589
v -0.00069291 0.03533824 0.03864517
v -0.00065009 0.03589480 0.03862164
v -0.00080701 0.03618098 0.03816492
v -0.00068630 0.03668387 0.03789209
v -0.00074694 0.03672137 0.03730371
v -0.00068630 0.03668387 0.03673000
v -0.00083000 0.03614072 0.03663589
v 0.00130072 0.03280053 0.03869503
v 0.00159645 0.03533824 0.03815089
v 0.00166428 0.03533824 0.03663589
v 0.00165537 0.03618572 0.03730371
v -0.00014083 0.03280053 0.03883662
v -0.00014083 0.03533824 0.03871596
v -0.00014083 0.03596151 0.03864517
v -0.00014083 0.03638506 0.03839824
v -0.00014083 0.03672137 0.03797455
v -0.00014083 0.03683268 0.03730371
v -0.00058341 0.03660729 0.03663589
v -0.00071475 0.03649677 0.03663589
v -0.00014083 0.03672137 0.03665510
v 0.00070611 0.03280053 0.03884094
v 0.00127342 0.03533824 0.03864517
v 0.00139758 0.03618098 0.03816492
v 0.00122543 0.03589480 0.03862164
v 0.00142430 0.03614388 0.03663589
v 0.00129699 0.03649795 0.03663589
v 0.00126480 0.03668387 0.03673000
v 0.00133234 0.03672137 0.03730371
v 0.00126480 0.03668387 0.03789209
v 0.00070611 0.03533824 0.03871596
v 0.00070611 0.03596151 0.03864517
v 0.00070611 0.03638506 0.03839824
v 0.00070611 0.03672137 0.03797455
v 0.00070611 0.03683268 0.03730371
v -0.00014083 0.03670123 0.03663589
v 0.00070611 0.03672137 0.03665510
v -0.00010290 0.03670163 0.03663589
v 0.00070611 0.03670163 0.03663589
f 1 2 6
f 1 6 12
f 1 12 25
f 1 25 38
f 1 38 29
f 1 29 16
f 1 16 8
f 1 8 3
f 1 3 4
f 1 4 5
f 1 5 9
f 1 9 17
f 1 17 24
f 1 24 36
f 1 36 35
f 1 35 52
f 1 52 54
f 1 54 55
f 1 55 43
f 1 43 42
f 1 42 27
f 1 27 14
f 1 14 7
f 1 7 2
f 2 7 15
f 2 15 13
f 2 13 6
f 3 8 4
f 4 9 5
f 4 8 10
f 4 10 11
f 4 11 9
f 6 13 12
f 7 14 15
f 8 16 10
f 9 11 17
f 10 16 18
f 10 18 19
f 10 19 20
f 10 20 11
f 11 20 21
f 11 21 22
f 11 22 23
f 11 23 24
f 11 24 17
f 12 13 15
f 12 15 26
f 12 26 25
f 14 27 15
f 15 27 28
f 15 28 26
f 16 29 18
f 18 30 19
f 18 29 30
f 19 30 31
f 19 31 32
f 19 32 21
f 19 21 20
f 21 32 33
f 21 33 34
f 21 34 22
f 22 34 23
f 23 35 36
f 23 36 24
f 23 34 37
f 23 37 35
f 25 26 39
f 25 39 38
f 26 28 40
f 26 40 41
f 26 41 39
f 27 42 28
f 28 42 43
f 28 43 44
f 28 44 45
f 28 45 46
f 28 46 40
f 29 38 30
f 30 38 47
f 30 47 48
f 30 48 31
f 31 48 49
f 31 49 32
f 32 49 50
f 32 50 33
f 33 50 51
f 33 51 34
f 34 51 53
f 34 53 37
f 35 37 52
f 37 53 55
f 37 55 54
f 37 54 52
f 38 39 47
f 39 41 47
f 40 46 41
f 41 46 49
f 41 49 48
f 41 48 47
f 43 55 44
f 44 55 53
f 44 53 51
f 44 51 45
f 45 51 46
f 46 51 50
f 46 50 49

