# https://github.com/mikedh/trimesh
v 0.00045268 -0.02397554 0.01442378
v 0.00077049 -0.02397554 0.01376946
v 0.00081115 -0.02397554 0.01514744
v 0.00045268 -0.01804767 0.01442378
v 0.00077163 -0.02313141 0.01376714
v 0.00155099 -0.02397554 0.01353509
v 0.00077163 -0.01804767 0.01376714
v 0.00143016 -0.02397554 0.01557047
v 0.00081115 -0.01889525 0.01514744
v 0.00081172 -0.01804767 0.01514705
v 0.00053571 -0.01720095 0.01442378
v 0.00079740 -0.01720095 0.01378922
v 0.00155385 -0.02313141 0.01353431
v 0.00239848 -0.02397554 0.01353431
v 0.00155385 -0.01804767 0.01353431
v 0.00155385 -0.01720095 0.01355601
v 0.00486653 -0.02397554 0.01749157
v 0.00143073 -0.01804767 0.01557047
v 0.00143875 -0.01720095 0.01551740
v 0.00086898 -0.01720095 0.01509397
v 0.00099382 -0.01671675 0.01497659
v 0.00087471 -0.01665115 0.01442378
v 0.00092567 -0.01666927 0.01387406
v 0.00630154 -0.02397554 0.01353431
v 0.00240135 -0.01720095 0.01353431
v 0.00155385 -0.01657778 0.01378922
v 0.00630154 -0.01552996 0.01376326
v 0.00579018 -0.01635338 0.01355562
v 0.00630154 -0.02397554 0.01749157
v 0.00487054 -0.02397122 0.01749157
v 0.00190602 -0.01674609 0.01571613
v 0.00186193 -0.01720095 0.01572853
v 0.00159565 -0.01664166 0.01526404
v 0.00630154 -0.01534785 0.01527140
v 0.00155385 -0.01643278 0.01442378
v 0.00630154 -0.01515883 0.01442378
v 0.00630154 -0.01720095 0.01353431
v 0.00630154 -0.01635338 0.01354284
v 0.00630154 -0.02366309 0.01749157
v 0.00487569 -0.02396949 0.01749157
v 0.00630154 -0.01568791 0.01572543
v 0.00527653 -0.01590714 0.01570993
v 0.00630154 -0.01541517 0.01538258
v 0.00629868 -0.02358282 0.01749157
v 0.00630154 -0.02358627 0.01749041
f 1 2 6
f 1 6 14
f 1 14 24
f 1 24 29
f 1 29 17
f 1 17 8
f 1 8 3
f 1 3 9
f 1 9 4
f 1 4 2
f 2 5 6
f 2 4 7
f 2 7 5
f 3 8 9
f 4 9 10
f 4 10 11
f 4 11 12
f 4 12 7
f 5 7 6
f 6 13 14
f 6 7 15
f 6 15 13
f 7 12 16
f 7 16 15
f 8 17 18
f 8 18 9
f 9 18 10
f 10 18 19
f 10 19 20
f 10 20 11
f 11 20 21
f 11 21 22
f 11 22 23
f 11 23 12
f 12 23 16
f 13 15 25
f 13 25 37
f 13 37 24
f 13 24 14
f 15 16 25
f 16 23 26
f 16 26 27
f 16 27 28
f 16 28 25
f 17 29 39
f 17 39 44
f 17 44 40
f 17 40 30
f 17 30 31
f 17 31 32
f 17 32 18
f 18 32 19
f 19 32 31
f 19 31 20
f 20 31 21
f 21 31 33
f 21 33 34
f 21 34 35
f 21 35 22
f 22 35 23
f 23 35 36
f 23 36 27
f 23 27 26
f 24 37 38
f 24 38 27
f 24 27 36
f 24 36 34
f 24 34 43
f 24 43 41
f 24 41 45
f 24 45 39
f 24 39 29
f 25 28 38
f 25 38 37
f 27 38 28
f 30 40 31
f 31 41 42
f 31 42 43
f 31 43 34
f 31 34 33
f 31 40 44
f 31 44 41
f 34 36 35
f 39 45 44
f 41 43 42
f 41 44 45

