# https://github.com/mikedh/trimesh
v 0.00240109 0.01137527 0.03889124
v 0.00246406 0.01139977 0.03889124
v 0.00155398 0.01139365 0.03889124
v 0.00240147 0.01206575 0.02915676
v 0.00324821 0.01206798 0.02915676
v 0.00299707 0.01171606 0.03889124
v 0.00402785 0.01242547 0.02915676
v 0.00081032 0.01171160 0.03889124
v 0.00155398 0.01210696 0.02915676
v 0.00162032 0.01210139 0.02915676
v 0.00302593 0.01176005 0.03889124
v 0.00437607 0.01330694 0.02915676
v 0.00437607 0.01330694 0.02967798
v 0.00402373 0.01249396 0.02967798
v 0.00059891 0.01245888 0.03889124
v 0.00098724 0.01247113 0.02915676
v 0.00120051 0.01232357 0.02915676
v 0.00322422 0.01256635 0.03889124
v 0.00437607 0.01500028 0.02915676
v 0.00437607 0.01500028 0.02967798
v 0.00327595 0.01330694 0.03889124
v 0.00054681 0.01330694 0.03889124
v 0.00084443 0.01330694 0.02915676
v 0.00093364 0.01275122 0.02915676
v 0.00436220 0.01552148 0.02915676
v 0.00428724 0.01584779 0.02967798
v 0.00318861 0.01584779 0.03889124
v 0.00327595 0.01500028 0.03889124
v 0.00054681 0.01500028 0.03889124
v 0.00084443 0.01500028 0.02915676
v 0.00432772 0.01584779 0.02915676
v 0.00414817 0.01642245 0.02915676
v 0.00296296 0.01638068 0.03889124
v 0.00058317 0.01584222 0.03889124
v 0.00086167 0.01584779 0.02915676
v 0.00402560 0.01664128 0.02915676
v 0.00247156 0.01653660 0.03889124
v 0.00324821 0.01704610 0.02915676
v 0.00058354 0.01584779 0.03889124
v 0.00098574 0.01659952 0.02915676
v 0.00167392 0.01673316 0.03889124
v 0.00246931 0.01706337 0.02915676
v 0.00077133 0.01654217 0.03889124
v 0.00151837 0.01693641 0.02915676
v 0.00079083 0.01660899 0.03889124
v 0.00240147 0.01706337 0.02915676
v 0.00151724 0.01672982 0.03889124
v 0.00155398 0.01695088 0.02915676
v 0.00085867 0.01662347 0.03889124
f 1 2 6
f 1 6 11
f 1 11 18
f 1 18 21
f 1 21 28
f 1 28 27
f 1 27 33
f 1 33 37
f 1 37 41
f 1 41 47
f 1 47 49
f 1 49 45
f 1 45 43
f 1 43 39
f 1 39 34
f 1 34 29
f 1 29 22
f 1 22 15
f 1 15 8
f 1 8 3
f 1 3 4
f 1 4 5
f 1 5 2
f 2 5 7
f 2 7 6
f 3 8 9
f 3 9 10
f 3 10 4
f 4 10 9
f 4 9 17
f 4 17 16
f 4 16 24
f 4 24 23
f 4 23 30
f 4 30 35
f 4 35 40
f 4 40 44
f 4 44 48
f 4 48 46
f 4 46 42
f 4 42 38
f 4 38 36
f 4 36 32
f 4 32 31
f 4 31 25
f 4 25 19
f 4 19 12
f 4 12 7
f 4 7 5
f 6 7 11
f 7 12 13
f 7 13 14
f 7 14 11
f 8 15 16
f 8 16 17
f 8 17 9
f 11 14 13
f 11 13 18
f 12 19 20
f 12 20 13
f 13 20 28
f 13 28 21
f 13 21 18
f 15 22 23
f 15 23 24
f 15 24 16
f 19 25 20
f 20 25 26
f 20 26 27
f 20 27 28
f 22 29 30
f 22 30 23
f 25 31 26
f 26 31 32
f 26 32 27
f 27 32 33
f 29 34 35
f 29 35 30
f 32 36 33
f 33 36 38
f 33 38 37
f 34 39 35
f 35 39 40
f 37 38 41
f 38 42 41
f 39 43 40
f 40 43 45
f 40 45 44
f 41 46 47
f 41 42 46
f 44 45 48
f 45 49 48
f 46 48 47
f 47 48 49

