# https://github.com/mikedh/trimesh
v 0.00038001 -0.03669011 0.03645561
v 0.00038175 -0.03669011 0.03663532
v 0.00039740 -0.03584276 0.03221919
v 0.00039103 -0.03584276 0.03137179
v 0.00038697 -0.03584276 0.03082582
v 0.00038871 -0.03669011 0.03560821
v 0.00075855 -0.03742098 0.03663532
v 0.00075391 -0.03590507 0.03663532
v 0.00047798 -0.03584276 0.03391341
v 0.00041653 -0.03584276 0.03306659
v 0.00071044 -0.03498608 0.03082582
v 0.00075855 -0.03658062 0.03082582
v 0.00046349 -0.03669011 0.03391341
v 0.00040900 -0.03669011 0.03476081
v 0.00076029 -0.03740992 0.03645561
v 0.00092840 -0.03749378 0.03663532
v 0.00513520 -0.03192339 0.03663532
v 0.00096782 -0.03535647 0.03476081
v 0.00085942 -0.03529591 0.03391341
v 0.00079797 -0.03523476 0.03306659
v 0.00155388 -0.03436702 0.03082582
v 0.00104376 -0.03670583 0.03082582
v 0.00106231 -0.03713621 0.03249900
v 0.00095680 -0.03718105 0.03306659
v 0.00084492 -0.03724686 0.03391341
v 0.00079043 -0.03730626 0.03476081
v 0.00077014 -0.03735809 0.03560821
v 0.00155388 -0.03772324 0.03663532
v 0.00565113 -0.03183952 0.03663532
v 0.00500071 -0.03188029 0.03082582
v 0.00155388 -0.03688812 0.03082582
v 0.00155388 -0.03707797 0.03202298
v 0.00155388 -0.03724161 0.03306659
v 0.00155388 -0.03737381 0.03391341
v 0.00155388 -0.03749262 0.03476081
v 0.00155388 -0.03697547 0.03137179
v 0.00173359 -0.03772091 0.03663532
v 0.00579025 -0.03181740 0.03663532
v 0.00579025 -0.03177430 0.03082582
v 0.00185532 -0.03688346 0.03082582
v 0.00240139 -0.03707156 0.03206450
v 0.00324889 -0.03721599 0.03306659
v 0.00240139 -0.03736158 0.03391341
v 0.00324889 -0.03746816 0.03476081
v 0.00240139 -0.03758580 0.03560821
v 0.00258109 -0.03770984 0.03663532
v 0.00240139 -0.03696208 0.03137179
v 0.00630212 -0.03181740 0.03663532
v 0.00630212 -0.03177430 0.03082582
v 0.00324889 -0.03694810 0.03137179
v 0.00270283 -0.03686890 0.03082582
v 0.00324889 -0.03713155 0.03253142
v 0.00388076 -0.03712339 0.03258317
v 0.00324889 -0.03734877 0.03391341
v 0.00409582 -0.03744428 0.03476081
v 0.00409582 -0.03755085 0.03560821
v 0.00324889 -0.03757357 0.03560821
v 0.00324889 -0.03767839 0.03645561
v 0.00324889 -0.03770052 0.03663532
v 0.00324889 -0.03706457 0.03210772
v 0.00630212 -0.03756600 0.03663532
v 0.00630212 -0.03669127 0.03082582
v 0.00409582 -0.03692131 0.03137179
v 0.00324889 -0.03685900 0.03082582
v 0.00354975 -0.03684968 0.03082582
v 0.00444537 -0.03711058 0.03266393
v 0.00413582 -0.03717697 0.03299493
v 0.00409582 -0.03732373 0.03391341
v 0.00494275 -0.03751184 0.03560821
v 0.00494275 -0.03740235 0.03476081
v 0.00494275 -0.03764054 0.03663532
v 0.00409582 -0.03765626 0.03645561
v 0.00342802 -0.03769586 0.03663532
v 0.00596995 -0.03758521 0.03663532
v 0.00630212 -0.03755726 0.03656423
v 0.00630212 -0.03678562 0.03137179
v 0.00609169 -0.03670583 0.03082582
v 0.00409582 -0.03683104 0.03082582
v 0.00439726 -0.03681474 0.03082582
v 0.00494275 -0.03687472 0.03137179
v 0.00494275 -0.03716358 0.03317692
v 0.00494275 -0.03728005 0.03391341
v 0.00494275 -0.03701100 0.03221919
v 0.00579025 -0.03757240 0.03645561
v 0.00579025 -0.03759511 0.03663532
v 0.00512303 -0.03763122 0.03663532
v 0.00579025 -0.03746350 0.03560821
v 0.00630212 -0.03750019 0.03612006
v 0.00630212 -0.03732315 0.03476081
v 0.00630212 -0.03739012 0.03527266
v 0.00409582 -0.03767839 0.03663532
v 0.00630212 -0.03692480 0.03221919
v 0.00579025 -0.03681940 0.03137179
v 0.00524476 -0.03676232 0.03082582
v 0.00494275 -0.03678212 0.03082582
v 0.00579025 -0.03695858 0.03221919
v 0.00630212 -0.03712339 0.03343284
v 0.00579025 -0.03713853 0.03333559
v 0.00579025 -0.03722997 0.03391341
v 0.00630212 -0.03743380 0.03560821
v 0.00630212 -0.03727423 0.03442526
v 0.00630212 -0.03701507 0.03276914
v 0.00630212 -0.03719503 0.03388441
f 1 2 3
f 1 3 4
f 1 4 5
f 1 5 6
f 1 6 7
f 1 7 2
f 2 8 9
f 2 9 10
f 2 10 3
f 2 7 16
f 2 16 28
f 2 28 37
f 2 37 46
f 2 46 59
f 2 59 73
f 2 73 91
f 2 91 71
f 2 71 86
f 2 86 85
f 2 85 74
f 2 74 61
f 2 61 48
f 2 48 38
f 2 38 29
f 2 29 17
f 2 17 8
f 3 10 11
f 3 11 4
f 4 11 5
f 5 12 13
f 5 13 14
f 5 14 6
f 5 11 21
f 5 21 30
f 5 30 39
f 5 39 49
f 5 49 62
f 5 62 77
f 5 77 94
f 5 94 95
f 5 95 79
f 5 79 78
f 5 78 65
f 5 65 64
f 5 64 51
f 5 51 40
f 5 40 31
f 5 31 22
f 5 22 12
f 6 14 7
f 7 15 16
f 7 14 15
f 8 17 18
f 8 18 19
f 8 19 20
f 8 20 9
f 9 20 11
f 9 11 10
f 11 20 19
f 11 19 17
f 11 17 21
f 12 22 23
f 12 23 24
f 12 24 25
f 12 25 13
f 13 25 26
f 13 26 14
f 14 26 27
f 14 27 15
f 15 27 16
f 16 27 26
f 16 26 28
f 17 29 30
f 17 30 21
f 17 19 18
f 22 31 23
f 23 32 33
f 23 33 34
f 23 34 35
f 23 35 28
f 23 28 24
f 23 31 36
f 23 36 32
f 24 28 25
f 25 28 26
f 28 35 37
f 29 38 30
f 30 38 39
f 31 40 36
f 32 41 42
f 32 42 33
f 32 36 41
f 33 43 34
f 33 42 54
f 33 54 43
f 34 43 44
f 34 44 35
f 35 44 57
f 35 57 45
f 35 45 46
f 35 46 37
f 36 40 47
f 36 47 41
f 38 48 49
f 38 49 39
f 40 50 47
f 40 51 50
f 41 52 42
f 41 47 52
f 42 52 53
f 42 53 54
f 43 54 44
f 44 54 55
f 44 55 56
f 44 56 72
f 44 72 57
f 45 57 58
f 45 58 46
f 46 58 59
f 47 60 52
f 47 50 60
f 48 61 75
f 48 75 88
f 48 88 100
f 48 100 90
f 48 90 89
f 48 89 101
f 48 101 103
f 48 103 97
f 48 97 102
f 48 102 92
f 48 92 76
f 48 76 62
f 48 62 49
f 50 63 53
f 50 53 60
f 50 51 64
f 50 64 65
f 50 65 63
f 52 60 53
f 53 66 67
f 53 67 68
f 53 68 54
f 53 63 66
f 54 68 55
f 55 69 56
f 55 68 70
f 55 70 69
f 56 69 71
f 56 71 72
f 57 72 58
f 58 72 73
f 58 73 59
f 61 74 75
f 62 76 77
f 63 65 78
f 63 78 79
f 63 79 80
f 63 80 66
f 66 81 82
f 66 82 68
f 66 68 67
f 66 80 83
f 66 83 81
f 68 82 70
f 69 75 84
f 69 84 85
f 69 85 86
f 69 86 71
f 69 70 87
f 69 87 88
f 69 88 75
f 70 82 89
f 70 89 90
f 70 90 87
f 71 91 72
f 72 91 73
f 74 85 84
f 74 84 75
f 76 92 96
f 76 96 93
f 76 93 94
f 76 94 77
f 79 95 80
f 80 95 93
f 80 93 96
f 80 96 97
f 80 97 83
f 81 98 99
f 81 99 82
f 81 83 98
f 82 99 89
f 83 97 98
f 87 100 88
f 87 90 100
f 89 99 101
f 92 102 96
f 93 95 94
f 96 102 97
f 97 103 98
f 98 103 99
f 99 103 101

