# https://github.com/mikedh/trimesh
v 0.00465664 -0.03355247 0.03663589
v 0.00465664 -0.03330045 0.03663589
v 0.00618654 -0.03355247 0.03663589
v 0.00405253 -0.03355247 0.03867365
v 0.00467168 -0.03312098 0.03663589
v 0.00405253 -0.03344554 0.03867365
v 0.00405253 -0.03334332 0.03867420
v 0.00405253 -0.03330045 0.03867475
v 0.00405253 -0.03245725 0.03882476
v 0.00618654 -0.03181660 0.03663589
v 0.00618654 -0.03355247 0.04180859
v 0.00405253 -0.03355247 0.04188523
v 0.00477382 -0.03245301 0.03663589
v 0.00405253 -0.02915131 0.04007413
v 0.00579070 -0.03181660 0.03663589
v 0.00405253 -0.02911739 0.04011082
v 0.00618654 -0.02917251 0.04007632
v 0.00618654 -0.02991161 0.04180859
v 0.00405253 -0.03160556 0.04222906
v 0.00405253 -0.03243039 0.04221318
v 0.00405253 -0.03245301 0.04221263
v 0.00405253 -0.03323780 0.04199692
v 0.00513520 -0.03192306 0.03663589
v 0.00405253 -0.02874148 0.04071853
v 0.00618654 -0.02898125 0.04040482
v 0.00405253 -0.02991161 0.04221537
v 0.00405253 -0.03074869 0.04222851
v 0.00405253 -0.03159520 0.04222906
v 0.00618654 -0.02954606 0.04164708
v 0.00405253 -0.02874007 0.04072510
v 0.00618654 -0.02881403 0.04069280
v 0.00405253 -0.02905521 0.04174946
v 0.00618654 -0.02912964 0.04146257
v 0.00405253 -0.02890965 0.04152553
v 0.00405253 -0.02893320 0.04161149
v 0.00405253 -0.02897324 0.04166843
f 1 2 5
f 1 5 13
f 1 13 23
f 1 23 15
f 1 15 10
f 1 10 3
f 1 3 11
f 1 11 12
f 1 12 4
f 1 4 6
f 1 6 2
f 2 6 7
f 2 7 8
f 2 8 9
f 2 9 5
f 3 10 17
f 3 17 25
f 3 25 31
f 3 31 33
f 3 33 29
f 3 29 18
f 3 18 11
f 4 12 22
f 4 22 21
f 4 21 20
f 4 20 19
f 4 19 28
f 4 28 27
f 4 27 26
f 4 26 32
f 4 32 36
f 4 36 35
f 4 35 34
f 4 34 30
f 4 30 24
f 4 24 16
f 4 16 14
f 4 14 9
f 4 9 8
f 4 8 7
f 4 7 6
f 5 9 14
f 5 14 13
f 10 15 16
f 10 16 17
f 11 18 28
f 11 28 19
f 11 19 20
f 11 20 21
f 11 21 22
f 11 22 12
f 13 14 23
f 14 16 23
f 15 23 16
f 16 24 17
f 17 24 25
f 18 26 27
f 18 27 28
f 18 29 26
f 24 30 31
f 24 31 25
f 26 29 33
f 26 33 32
f 30 34 31
f 31 34 35
f 31 35 33
f 32 33 36
f 33 35 36

