# https://github.com/mikedh/trimesh
v 0.00578403 -0.01971320 0.09461426
v 0.00494298 -0.01971320 0.09462093
v 0.00578403 -0.01971378 0.09460998
v 0.00578403 -0.01971320 0.08975549
v 0.00409560 -0.01971320 0.09458378
v 0.00494298 -0.01978548 0.09407895
v 0.00578403 -0.01978477 0.09407895
v 0.00150629 -0.01971320 0.09403704
v 0.00578403 -0.01971879 0.08984264
v 0.00155390 -0.01973335 0.09407895
v 0.00155390 -0.01971320 0.09435565
v 0.00409560 -0.01977308 0.09407895
v 0.00578403 -0.01985642 0.09323169
v 0.00147974 -0.01971320 0.09407895
v 0.00578403 -0.01976819 0.09068990
v 0.00494298 -0.01983808 0.09323169
v 0.00578403 -0.01981654 0.09153716
v 0.00578403 -0.01985828 0.09238443
f 1 2 3
f 1 3 7
f 1 7 13
f 1 13 18
f 1 18 17
f 1 17 15
f 1 15 9
f 1 9 4
f 1 4 8
f 1 8 14
f 1 14 11
f 1 11 5
f 1 5 2
f 2 5 6
f 2 6 7
f 2 7 3
f 4 9 10
f 4 10 8
f 5 11 6
f 6 11 12
f 6 12 13
f 6 13 7
f 8 10 14
f 9 15 10
f 10 16 13
f 10 13 12
f 10 12 11
f 10 11 14
f 10 15 17
f 10 17 18
f 10 18 16
f 13 16 18

