# https://github.com/mikedh/trimesh
v 0.01425544 0.03110112 0.08194031
v 0.01413767 0.03063335 0.08194031
v 0.01421873 0.03137668 0.08194031
v 0.01423709 0.03110112 0.08221679
v 0.01401073 0.02723051 0.08730067
v 0.01398167 0.02723051 0.08693321
v 0.01393731 0.02723051 0.08648291
v 0.01407114 0.03040388 0.08194031
v 0.01414073 0.03194889 0.08194031
v 0.01412161 0.03194889 0.08221679
v 0.01406196 0.03194889 0.08306371
v 0.01400155 0.03194889 0.08391064
v 0.01417591 0.03110112 0.08306371
v 0.01399314 0.02771201 0.08730067
v 0.01397402 0.02723051 0.08778247
v 0.01060081 0.02723051 0.08194031
v 0.01065893 0.02728003 0.08194031
v 0.01408720 0.03222396 0.08194031
v 0.01387155 0.03223916 0.08504687
v 0.01392049 0.03203175 0.08483922
v 0.01389219 0.03183758 0.08560566
v 0.01386390 0.03166254 0.08628460
v 0.01411167 0.03110112 0.08391064
v 0.01395873 0.03025384 0.08645375
v 0.01389831 0.02723051 0.08871222
v 0.00826686 0.02723051 0.08194031
v 0.01408414 0.03223916 0.08194031
v 0.01381955 0.03223916 0.08566982
v 0.01383790 0.03149387 0.08684921
v 0.01404590 0.03110112 0.08475873
v 0.01356795 0.03194889 0.08899453
v 0.01397861 0.03110112 0.08560566
v 0.01386084 0.03092902 0.08707319
v 0.01372854 0.03025384 0.08899453
v 0.01385013 0.02997485 0.08782796
v 0.01377519 0.02940705 0.08899453
v 0.01382872 0.02771201 0.08927567
v 0.01384172 0.02723051 0.08937716
v 0.01387537 0.02723051 0.08898403
v 0.00653781 0.03223916 0.08476456
v 0.00674352 0.03223916 0.08402846
v 0.00823397 0.02771201 0.08194031
v 0.00660511 0.02723051 0.09238340
v 0.00665022 0.02855978 0.08899453
v 0.00815062 0.03223916 0.08194031
v 0.01350524 0.03223916 0.08899453
v 0.01389372 0.03116731 0.08652141
v 0.01366966 0.03110112 0.08899453
v 0.01346548 0.03194889 0.08984145
v 0.01357024 0.03110112 0.08984145
v 0.01363601 0.03025384 0.08984145
v 0.01368342 0.02940705 0.08984145
v 0.01383866 0.02725208 0.08939816
v 0.01383637 0.02723051 0.08942615
v 0.00645369 0.03223916 0.08899453
v 0.00648198 0.02940705 0.08899453
v 0.00645139 0.02940705 0.08984145
v 0.00657681 0.02723051 0.09323149
v 0.01343718 0.03223916 0.08955098
v 0.01339971 0.03223916 0.08984145
v 0.01329418 0.03223916 0.09039790
v 0.01330412 0.03194889 0.09068955
v 0.01341730 0.03110112 0.09068955
v 0.01349454 0.03025384 0.09068955
v 0.01376372 0.02771201 0.08984145
v 0.01378896 0.02723051 0.08982512
v 0.01353965 0.02940705 0.09068955
v 0.00644834 0.03223916 0.08984145
v 0.00647434 0.02855978 0.09238340
v 0.00644451 0.02940705 0.09238340
v 0.00688576 0.02723051 0.09375644
v 0.00659593 0.02771201 0.09323149
v 0.00644451 0.03223916 0.09238340
v 0.01301735 0.03223916 0.09183861
v 0.01302882 0.03176159 0.09211509
v 0.01306552 0.03107170 0.09239156
v 0.01332094 0.03025384 0.09153647
v 0.01300740 0.03076966 0.09283602
v 0.01370254 0.02723051 0.09032324
v 0.01363830 0.02723051 0.09068955
v 0.01318788 0.02940705 0.09238340
v 0.00748607 0.02723051 0.09385677
v 0.00694464 0.02855978 0.09371561
v 0.00690488 0.02771201 0.09374128
v 0.00677182 0.03223916 0.09321516
v 0.01296840 0.03223916 0.09205326
v 0.01296152 0.03133451 0.09267971
v 0.01314506 0.03025384 0.09238340
v 0.01302576 0.03025384 0.09287335
v 0.01244762 0.03223916 0.09313350
v 0.01248280 0.03194889 0.09315800
v 0.01263575 0.03107170 0.09314166
v 0.01250421 0.03029650 0.09336565
v 0.01264875 0.02940705 0.09334231
v 0.01271069 0.02855978 0.09338548
v 0.01280246 0.02723051 0.09345780
v 0.01322306 0.02855978 0.09238340
v 0.01325441 0.02771201 0.09238340
v 0.01327200 0.02723051 0.09238340
v 0.00703106 0.03006507 0.09366895
v 0.00699053 0.02940705 0.09368995
v 0.01172190 0.02723051 0.09385677
v 0.00867522 0.03223916 0.09358146
v 0.00833339 0.03223916 0.09358029
v 0.00748607 0.03223916 0.09357329
v 0.01286058 0.03223916 0.09238923
v 0.01291946 0.03200577 0.09239156
v 0.01304641 0.02940705 0.09291885
v 0.01293628 0.02723051 0.09327465
v 0.01169819 0.03223916 0.09353130
v 0.01217768 0.03004300 0.09366895
v 0.01222509 0.02940705 0.09368878
v 0.01228627 0.02855978 0.09371561
v 0.01234592 0.02771201 0.09374128
v 0.01237880 0.02723051 0.09375644
v 0.01306399 0.02855978 0.09296201
v 0.01308923 0.02723051 0.09303317
v 0.01199185 0.02723051 0.09382061
v 0.01172190 0.02855978 0.09377628
v 0.01087458 0.03223916 0.09358029
v 0.01002803 0.03223916 0.09358146
f 1 2 8
f 1 8 17
f 1 17 16
f 1 16 26
f 1 26 42
f 1 42 45
f 1 45 27
f 1 27 18
f 1 18 9
f 1 9 3
f 1 3 4
f 1 4 5
f 1 5 6
f 1 6 7
f 1 7 2
f 2 7 8
f 3 9 10
f 3 10 4
f 4 10 11
f 4 11 12
f 4 12 13
f 4 13 5
f 5 14 15
f 5 15 25
f 5 25 39
f 5 39 38
f 5 38 54
f 5 54 66
f 5 66 79
f 5 79 80
f 5 80 99
f 5 99 117
f 5 117 109
f 5 109 96
f 5 96 115
f 5 115 118
f 5 118 102
f 5 102 82
f 5 82 71
f 5 71 58
f 5 58 43
f 5 43 26
f 5 26 16
f 5 16 7
f 5 7 6
f 5 13 14
f 7 16 17
f 7 17 8
f 9 18 19
f 9 19 10
f 10 19 11
f 11 19 12
f 12 19 20
f 12 20 21
f 12 21 13
f 13 21 22
f 13 22 23
f 13 23 24
f 13 24 14
f 14 24 15
f 15 24 25
f 18 27 19
f 19 28 21
f 19 21 20
f 19 27 45
f 19 45 41
f 19 41 40
f 19 40 55
f 19 55 68
f 19 68 73
f 19 73 85
f 19 85 105
f 19 105 104
f 19 104 103
f 19 103 121
f 19 121 120
f 19 120 110
f 19 110 90
f 19 90 106
f 19 106 86
f 19 86 74
f 19 74 61
f 19 61 60
f 19 60 59
f 19 59 46
f 19 46 28
f 21 28 22
f 22 29 30
f 22 30 23
f 22 28 31
f 22 31 29
f 23 30 24
f 24 30 32
f 24 32 33
f 24 33 34
f 24 34 35
f 24 35 36
f 24 36 37
f 24 37 38
f 24 38 39
f 24 39 25
f 26 40 41
f 26 41 42
f 26 43 44
f 26 44 40
f 28 46 31
f 29 47 32
f 29 32 30
f 29 31 48
f 29 48 47
f 31 46 49
f 31 49 50
f 31 50 48
f 32 47 33
f 33 47 48
f 33 48 34
f 34 48 51
f 34 51 52
f 34 52 36
f 34 36 35
f 36 52 53
f 36 53 37
f 37 53 38
f 38 53 54
f 40 44 56
f 40 56 57
f 40 57 55
f 41 45 42
f 43 58 57
f 43 57 56
f 43 56 44
f 46 59 49
f 48 50 51
f 49 59 60
f 49 60 61
f 49 61 62
f 49 62 63
f 49 63 50
f 50 63 64
f 50 64 51
f 51 64 52
f 52 65 66
f 52 66 54
f 52 54 53
f 52 64 67
f 52 67 65
f 55 57 68
f 57 58 69
f 57 69 70
f 57 70 68
f 58 71 72
f 58 72 73
f 58 73 70
f 58 70 69
f 61 74 62
f 62 74 75
f 62 75 76
f 62 76 63
f 63 77 64
f 63 76 78
f 63 78 77
f 64 77 67
f 65 67 66
f 66 67 79
f 67 80 79
f 67 77 88
f 67 88 81
f 67 81 80
f 68 70 73
f 71 82 83
f 71 83 84
f 71 84 85
f 71 85 72
f 72 85 73
f 74 86 75
f 75 86 87
f 75 87 76
f 76 87 78
f 77 78 88
f 78 89 88
f 78 87 90
f 78 90 91
f 78 91 92
f 78 92 93
f 78 93 94
f 78 94 95
f 78 95 96
f 78 96 89
f 80 81 97
f 80 97 98
f 80 98 99
f 81 88 89
f 81 89 97
f 82 100 101
f 82 101 83
f 82 102 121
f 82 121 103
f 82 103 104
f 82 104 105
f 82 105 100
f 83 101 85
f 83 85 84
f 85 101 100
f 85 100 105
f 86 106 107
f 86 107 87
f 87 107 106
f 87 106 90
f 89 108 97
f 89 96 109
f 89 109 108
f 90 110 111
f 90 111 91
f 91 93 92
f 91 111 93
f 93 96 95
f 93 95 94
f 93 111 96
f 96 111 112
f 96 112 113
f 96 113 114
f 96 114 115
f 97 108 98
f 98 108 99
f 99 108 116
f 99 116 117
f 102 118 111
f 102 111 119
f 102 119 120
f 102 120 121
f 108 109 116
f 109 117 116
f 110 120 111
f 111 118 113
f 111 113 112
f 111 120 119
f 113 118 115
f 113 115 114

