# https://github.com/mikedh/trimesh
v 0.00823393 0.02489324 0.05879940
v 0.00823393 0.02489324 0.06103083
v 0.00823393 0.02927350 0.05879940
v 0.01443520 0.02489324 0.05879940
v 0.00824063 0.02489324 0.06414328
v 0.00823393 0.02927350 0.06513384
v 0.01508208 0.02927350 0.05879940
v 0.01488701 0.02927350 0.05928605
v 0.01069004 0.02927350 0.06558132
v 0.00997680 0.02489324 0.06516637
v 0.00824332 0.02489324 0.06442013
v 0.00824868 0.02927350 0.06558132
v 0.00991245 0.02780184 0.06558132
v 0.00918044 0.02516982 0.06549767
v 0.00918044 0.02489324 0.06547311
v 0.00841291 0.02489324 0.06491873
v 0.00827817 0.02887300 0.06558132
v 0.00918044 0.02743607 0.06558132
v 0.00858049 0.02783872 0.06558132
v 0.00850341 0.02796864 0.06558132
v 0.00895923 0.02489324 0.06537684
v 0.00849804 0.02489324 0.06515044
f 1 2 6
f 1 6 3
f 1 3 7
f 1 7 4
f 1 4 10
f 1 10 15
f 1 15 21
f 1 21 22
f 1 22 16
f 1 16 11
f 1 11 5
f 1 5 2
f 2 5 6
f 3 6 12
f 3 12 9
f 3 9 8
f 3 8 7
f 4 7 8
f 4 8 9
f 4 9 10
f 5 11 6
f 6 11 12
f 9 13 14
f 9 14 15
f 9 15 10
f 9 12 17
f 9 17 20
f 9 20 19
f 9 19 18
f 9 18 13
f 11 16 17
f 11 17 12
f 13 18 14
f 14 18 19
f 14 19 20
f 14 20 15
f 15 20 21
f 16 22 17
f 17 22 20
f 20 22 21

