# https://github.com/mikedh/trimesh
v -0.00715607 0.03194815 0.04238806
v -0.00715424 0.03194815 0.04168610
v -0.00715424 0.03124634 0.04168610
v -0.00715303 0.03194815 0.04323565
v -0.00714572 0.03364356 0.04238806
v -0.00714755 0.03364356 0.04168610
v -0.00714938 0.03110141 0.04168610
v -0.00713660 0.03194815 0.04408243
v -0.00710921 0.03364356 0.04323565
v -0.00711286 0.03449030 0.04238806
v -0.00714207 0.03378849 0.04168610
v -0.00690779 0.03027659 0.04168610
v -0.00712929 0.03110141 0.04238806
v -0.00707331 0.03110141 0.04408243
v -0.00672767 0.03117674 0.04493890
v -0.00675262 0.03187950 0.04497803
v -0.00702828 0.03449030 0.04323565
v -0.00678305 0.03511487 0.04238806
v -0.00704167 0.03459805 0.04168610
v -0.00709826 0.03449030 0.04168610
v -0.00687493 0.03020507 0.04168610
v -0.00674349 0.03052833 0.04408243
v -0.00665160 0.03058745 0.04466255
v -0.00650617 0.03150952 0.04535765
v -0.00650617 0.03155052 0.04535765
v -0.00660171 0.03497565 0.04372056
v -0.00671976 0.03449030 0.04380649
v -0.00671915 0.03506052 0.04323565
v -0.00607229 0.03531512 0.04238806
v -0.00676966 0.03509866 0.04168610
v -0.00437817 0.02599899 0.04168610
v -0.00407878 0.02630127 0.04408243
v -0.00398689 0.02640616 0.04452862
v -0.00405444 0.02886630 0.04580706
v -0.00425464 0.02940696 0.04580706
v -0.00440921 0.03025466 0.04580706
v -0.00456255 0.03111571 0.04580706
v -0.00457594 0.03196436 0.04580706
v -0.00456012 0.03201872 0.04580706
v -0.00422482 0.03261373 0.04580706
v -0.00607229 0.03500617 0.04375082
v -0.00607229 0.03520641 0.04323565
v -0.00353111 0.03288549 0.04580706
v -0.00353111 0.03531512 0.04238806
v -0.00607229 0.03528365 0.04168610
v -0.00385241 0.02557467 0.04168610
v -0.00353111 0.02614775 0.04408243
v -0.00094003 0.02557467 0.04421717
v -0.00094003 0.02608004 0.04455403
v -0.00353111 0.02870992 0.04580706
v -0.00402584 0.02885200 0.04580706
v -0.00353111 0.03500617 0.04375082
v -0.00268344 0.03291695 0.04580706
v -0.00094003 0.03292554 0.04580424
v -0.00353111 0.03520641 0.04323565
v -0.00264936 0.03504050 0.04320499
v -0.00268344 0.03513776 0.04238806
v -0.00282888 0.03514539 0.04168610
v -0.00353111 0.03528365 0.04168610
v -0.00094185 0.02557467 0.04168610
v -0.00094003 0.02557467 0.04221458
v -0.00094003 0.02866510 0.04580706
v -0.00268344 0.02866606 0.04580706
v -0.00348851 0.02870706 0.04580706
v -0.00290920 0.03497565 0.04372056
v -0.00101853 0.03291791 0.04580706
v -0.00094003 0.03292649 0.04571307
v -0.00224470 0.03493752 0.04238806
v -0.00224957 0.03492989 0.04290242
v -0.00098871 0.03291791 0.04580706
v -0.00094003 0.03266999 0.04580706
v -0.00224896 0.03492989 0.04168610
v -0.00232441 0.03496421 0.04168610
v -0.00268344 0.03511487 0.04168610
v -0.00094003 0.02557943 0.04168610
v -0.00094003 0.03278823 0.04232068
v -0.00094003 0.03275199 0.04168610
f 1 2 3
f 1 3 4
f 1 4 5
f 1 5 6
f 1 6 2
f 2 6 11
f 2 11 20
f 2 20 19
f 2 19 30
f 2 30 45
f 2 45 59
f 2 59 58
f 2 58 74
f 2 74 73
f 2 73 72
f 2 72 77
f 2 77 75
f 2 75 60
f 2 60 46
f 2 46 31
f 2 31 21
f 2 21 12
f 2 12 7
f 2 7 3
f 3 7 4
f 4 7 8
f 4 8 5
f 5 9 10
f 5 10 11
f 5 11 6
f 5 8 9
f 7 12 13
f 7 13 8
f 8 13 14
f 8 14 15
f 8 15 16
f 8 16 17
f 8 17 9
f 9 17 10
f 10 17 18
f 10 18 19
f 10 19 20
f 10 20 11
f 12 14 13
f 12 21 14
f 14 21 22
f 14 22 23
f 14 23 15
f 15 24 16
f 15 23 24
f 16 24 25
f 16 25 26
f 16 26 27
f 16 27 17
f 17 27 26
f 17 26 28
f 17 28 18
f 18 29 30
f 18 30 19
f 18 28 29
f 21 31 22
f 22 31 32
f 22 32 23
f 23 32 33
f 23 33 24
f 24 33 34
f 24 34 35
f 24 35 36
f 24 36 37
f 24 37 38
f 24 38 25
f 25 38 39
f 25 39 40
f 25 40 26
f 26 41 42
f 26 42 28
f 26 40 43
f 26 43 41
f 28 42 29
f 29 44 59
f 29 59 45
f 29 45 30
f 29 42 55
f 29 55 44
f 31 46 32
f 32 46 47
f 32 47 33
f 33 47 48
f 33 48 49
f 33 49 50
f 33 50 51
f 33 51 34
f 34 51 50
f 34 50 64
f 34 64 63
f 34 63 62
f 34 62 71
f 34 71 70
f 34 70 66
f 34 66 53
f 34 53 43
f 34 43 40
f 34 40 39
f 34 39 38
f 34 38 37
f 34 37 36
f 34 36 35
f 41 52 55
f 41 55 42
f 41 43 53
f 41 53 54
f 41 54 52
f 44 55 56
f 44 56 57
f 44 57 58
f 44 58 59
f 46 60 61
f 46 61 48
f 46 48 47
f 48 61 75
f 48 75 77
f 48 77 76
f 48 76 67
f 48 67 54
f 48 54 71
f 48 71 62
f 48 62 49
f 49 62 63
f 49 63 64
f 49 64 50
f 52 65 55
f 52 54 65
f 53 66 54
f 54 67 68
f 54 68 69
f 54 69 56
f 54 56 65
f 54 66 70
f 54 70 71
f 55 65 56
f 56 69 57
f 57 68 72
f 57 72 73
f 57 73 74
f 57 74 58
f 57 69 68
f 60 75 61
f 67 76 72
f 67 72 68
f 72 76 77

