# https://github.com/mikedh/trimesh
v 0.01279324 -0.03724649 0.04747218
v 0.01279324 -0.03724393 0.04826277
v 0.01279324 -0.03723112 0.04662488
v 0.01302323 -0.03712992 0.04662488
v 0.01303268 -0.03713633 0.04747218
v 0.01302728 -0.03713505 0.04826277
v 0.01279324 -0.03459358 0.04826277
v 0.01279324 -0.03720166 0.04588297
v 0.01298074 -0.03710815 0.04548232
v 0.01300502 -0.03711968 0.04604665
v 0.01408282 -0.03641129 0.04279870
v 0.01409091 -0.03642026 0.04323572
v 0.01344680 -0.03686476 0.04662488
v 0.01345624 -0.03685964 0.04747218
v 0.01305561 -0.03711583 0.04826277
v 0.01279459 -0.03447060 0.04279870
v 0.01279324 -0.03458333 0.04305118
v 0.01652370 -0.02416252 0.04826277
v 0.01279324 -0.03717988 0.04536572
v 0.01285867 -0.03706075 0.04323572
v 0.01341780 -0.03677125 0.04279870
v 0.01341780 -0.03679046 0.04323572
v 0.01430067 -0.03627679 0.04279870
v 0.01451447 -0.03614613 0.04323572
v 0.01409631 -0.03642410 0.04408301
v 0.01452054 -0.03614741 0.04408301
v 0.01408147 -0.03644204 0.04662488
v 0.01345084 -0.03684170 0.04826277
v 0.01279324 -0.03548642 0.04279870
v 0.01746930 -0.02415996 0.04279870
v 0.01876494 -0.02415996 0.04826277
v 0.01671188 -0.02415996 0.04747218
v 0.01279324 -0.03708509 0.04323572
v 0.01282629 -0.03704922 0.04279870
v 0.01450638 -0.03614357 0.04279870
v 0.01504190 -0.03572084 0.04279870
v 0.01452054 -0.03614357 0.04493030
v 0.01451515 -0.03613204 0.04577706
v 0.01405584 -0.03643563 0.04747218
v 0.01402414 -0.03641770 0.04826277
v 0.01279324 -0.03587584 0.04279870
v 0.01968356 -0.02415996 0.04279870
v 0.01878653 -0.02415996 0.04826277
v 0.01279459 -0.03706075 0.04279870
v 0.01525976 -0.03553382 0.04279870
v 0.01503583 -0.03572212 0.04323572
v 0.01502437 -0.03572340 0.04408301
v 0.01500211 -0.03571956 0.04493030
v 0.01450503 -0.03611282 0.04662488
v 0.01405247 -0.03639464 0.04826277
v 0.01964040 -0.02415996 0.04318704
v 0.01953113 -0.02482735 0.04323572
v 0.01963298 -0.02448405 0.04279870
v 0.01889174 -0.02415996 0.04779900
v 0.01870424 -0.02476074 0.04826277
v 0.01546547 -0.03535064 0.04279870
v 0.01545940 -0.03534295 0.04323572
v 0.01544793 -0.03532502 0.04408301
v 0.01498053 -0.03570803 0.04577706
v 0.01448008 -0.03607952 0.04747218
v 0.01495962 -0.03568882 0.04662488
v 0.01444838 -0.03603981 0.04826277
v 0.01961005 -0.02415996 0.04341705
v 0.01942052 -0.02482735 0.04408301
v 0.01939826 -0.02567536 0.04323572
v 0.01944615 -0.02567536 0.04279870
v 0.01895851 -0.02463777 0.04720151
v 0.01890321 -0.02415996 0.04774712
v 0.01869412 -0.02483120 0.04826277
v 0.01589308 -0.03492663 0.04279870
v 0.01611160 -0.03470886 0.04279870
v 0.01492320 -0.03565551 0.04747218
v 0.01538318 -0.03524304 0.04662488
v 0.01487801 -0.03561580 0.04826277
v 0.01949471 -0.02415996 0.04426327
v 0.01919390 -0.02482735 0.04577706
v 0.01930856 -0.02482735 0.04493030
v 0.01928698 -0.02567536 0.04408301
v 0.01925730 -0.02652209 0.04323572
v 0.01930721 -0.02652209 0.04279870
v 0.01886139 -0.02488244 0.04747913
v 0.01891805 -0.02520268 0.04701323
v 0.01902933 -0.02488244 0.04668854
v 0.01913725 -0.02415996 0.04663719
v 0.01910757 -0.02415996 0.04678322
v 0.01898010 -0.02415996 0.04738819
v 0.01855856 -0.02567536 0.04826277
v 0.01873864 -0.02567536 0.04747218
v 0.01631597 -0.03449110 0.04279870
v 0.01534676 -0.03519564 0.04747218
v 0.01490634 -0.03558506 0.04826277
v 0.01573795 -0.03481903 0.04662488
v 0.01630045 -0.03447060 0.04323572
v 0.01937870 -0.02415996 0.04511110
v 0.01896526 -0.02567536 0.04639969
v 0.01892816 -0.02611474 0.04621836
v 0.01906171 -0.02567536 0.04577706
v 0.01928563 -0.02415996 0.04577706
v 0.01917502 -0.02567536 0.04493030
v 0.01854979 -0.02821684 0.04577706
v 0.01905159 -0.02744697 0.04330954
v 0.01912443 -0.02740469 0.04279870
v 0.01887960 -0.02567536 0.04682333
v 0.01841422 -0.02652209 0.04826277
v 0.01859228 -0.02652209 0.04747218
v 0.01663161 -0.03406837 0.04279870
v 0.01569141 -0.03477163 0.04747218
v 0.01530225 -0.03513287 0.04826277
v 0.01619591 -0.03430664 0.04577706
v 0.01661475 -0.03404788 0.04323572
v 0.01843446 -0.02737011 0.04747218
v 0.01859835 -0.02737011 0.04662488
v 0.01842569 -0.02821684 0.04662488
v 0.01835892 -0.02906485 0.04577706
v 0.01896526 -0.02796192 0.04307632
v 0.01905294 -0.02772238 0.04279870
v 0.01827528 -0.02731374 0.04826277
v 0.01684947 -0.03374044 0.04279870
v 0.01616151 -0.03423874 0.04662488
v 0.01564150 -0.03471015 0.04826277
v 0.01705518 -0.03341763 0.04279870
v 0.01703832 -0.03338048 0.04323572
v 0.01656956 -0.03399407 0.04408301
v 0.01826449 -0.02737011 0.04826277
v 0.01811746 -0.02812845 0.04826277
v 0.01826382 -0.02821684 0.04747218
v 0.01812623 -0.02883812 0.04747218
v 0.01820581 -0.02913018 0.04668212
v 0.01868468 -0.02906485 0.04323572
v 0.01811746 -0.02961695 0.04643767
v 0.01816602 -0.02976811 0.04577706
v 0.01845874 -0.02991158 0.04323572
v 0.01873324 -0.02906485 0.04279870
v 0.01648121 -0.03388263 0.04577706
v 0.01643804 -0.03381474 0.04662488
v 0.01640432 -0.03375965 0.04716193
v 0.01567118 -0.03466403 0.04826277
v 0.01729461 -0.03299363 0.04279870
v 0.01727370 -0.03295648 0.04323572
v 0.01811071 -0.02816176 0.04826277
v 0.01808104 -0.02865365 0.04791026
v 0.01793265 -0.02898799 0.04824351
v 0.01802371 -0.02926212 0.04747218
v 0.01807025 -0.02945683 0.04700253
v 0.01862398 -0.02947476 0.04279870
v 0.01799336 -0.02990389 0.04668212
v 0.01774381 -0.03075831 0.04662488
v 0.01834678 -0.02991158 0.04408301
v 0.01820312 -0.03067505 0.04323572
v 0.01850730 -0.02991158 0.04279870
v 0.01600167 -0.03414395 0.04826277
v 0.01717119 -0.03275921 0.04493030
v 0.01712330 -0.03264776 0.04577706
v 0.01669704 -0.03329978 0.04662488
v 0.01653652 -0.03317937 0.04826277
v 0.01631597 -0.03359825 0.04826277
v 0.01744097 -0.03269772 0.04279870
v 0.01751651 -0.03245305 0.04323572
v 0.01738027 -0.03233520 0.04493030
v 0.01794007 -0.02893547 0.04826277
v 0.01792389 -0.02900720 0.04826277
v 0.01770536 -0.02986803 0.04826277
v 0.01769390 -0.02991158 0.04826277
v 0.01785307 -0.02991158 0.04747218
v 0.01760689 -0.03075831 0.04747218
v 0.01785172 -0.03075831 0.04577706
v 0.01735397 -0.03151153 0.04747218
v 0.01740590 -0.03168702 0.04669924
v 0.01756372 -0.03160504 0.04577706
v 0.01821930 -0.03076856 0.04279870
v 0.01838320 -0.03028178 0.04279870
v 0.01766759 -0.03160504 0.04493030
v 0.01807699 -0.03117591 0.04279870
v 0.01732092 -0.03222376 0.04577706
v 0.01656417 -0.03312044 0.04826277
v 0.01755833 -0.03245305 0.04279870
v 0.01777011 -0.03194834 0.04279870
v 0.01786588 -0.03160504 0.04323572
v 0.01746862 -0.03070323 0.04826277
v 0.01745176 -0.03075831 0.04826277
v 0.01729461 -0.03126942 0.04826277
v 0.01727843 -0.03131938 0.04826277
v 0.01713274 -0.03174339 0.04826277
v 0.01719749 -0.03193553 0.04747218
v 0.01722784 -0.03202264 0.04703141
v 0.01726966 -0.03211615 0.04646655
v 0.01792186 -0.03157942 0.04279870
v 0.01697896 -0.03245305 0.04747218
v 0.01686430 -0.03245305 0.04826277
v 0.01687914 -0.03241846 0.04826277
f 1 2 7
f 1 7 17
f 1 17 29
f 1 29 41
f 1 41 33
f 1 33 19
f 1 19 8
f 1 8 3
f 1 3 4
f 1 4 5
f 1 5 2
f 2 5 6
f 2 6 15
f 2 15 28
f 2 28 40
f 2 40 50
f 2 50 62
f 2 62 74
f 2 74 91
f 2 91 108
f 2 108 120
f 2 120 137
f 2 137 151
f 2 151 156
f 2 156 155
f 2 155 175
f 2 175 189
f 2 189 190
f 2 190 183
f 2 183 182
f 2 182 181
f 2 181 180
f 2 180 179
f 2 179 163
f 2 163 162
f 2 162 161
f 2 161 160
f 2 160 140
f 2 140 125
f 2 125 124
f 2 124 117
f 2 117 104
f 2 104 87
f 2 87 69
f 2 69 55
f 2 55 43
f 2 43 31
f 2 31 18
f 2 18 7
f 3 8 9
f 3 9 10
f 3 10 4
f 4 10 11
f 4 11 12
f 4 12 5
f 5 12 13
f 5 13 14
f 5 14 6
f 6 14 15
f 7 16 17
f 7 18 16
f 8 19 9
f 9 19 20
f 9 20 21
f 9 21 22
f 9 22 10
f 10 22 11
f 11 23 12
f 11 22 21
f 11 21 34
f 11 34 44
f 11 44 41
f 11 41 29
f 11 29 16
f 11 16 30
f 11 30 42
f 11 42 53
f 11 53 66
f 11 66 80
f 11 80 102
f 11 102 116
f 11 116 133
f 11 133 145
f 11 145 150
f 11 150 171
f 11 171 170
f 11 170 173
f 11 173 187
f 11 187 177
f 11 177 176
f 11 176 157
f 11 157 138
f 11 138 121
f 11 121 118
f 11 118 106
f 11 106 89
f 11 89 71
f 11 71 70
f 11 70 56
f 11 56 45
f 11 45 36
f 11 36 35
f 11 35 23
f 12 23 24
f 12 24 25
f 12 25 13
f 13 25 24
f 13 24 26
f 13 26 14
f 14 26 27
f 14 27 28
f 14 28 15
f 16 29 17
f 16 18 30
f 18 31 32
f 18 32 30
f 19 33 20
f 20 33 34
f 20 34 21
f 23 35 24
f 24 35 36
f 24 36 26
f 26 37 27
f 26 36 37
f 27 37 38
f 27 38 39
f 27 39 28
f 28 39 40
f 30 32 31
f 30 31 43
f 30 43 54
f 30 54 68
f 30 68 86
f 30 86 85
f 30 85 84
f 30 84 98
f 30 98 94
f 30 94 75
f 30 75 63
f 30 63 51
f 30 51 42
f 33 44 34
f 33 41 44
f 36 45 46
f 36 46 37
f 37 46 47
f 37 47 38
f 38 47 48
f 38 48 49
f 38 49 39
f 39 49 50
f 39 50 40
f 42 51 52
f 42 52 53
f 43 55 54
f 45 56 47
f 45 47 46
f 47 56 48
f 48 56 57
f 48 57 58
f 48 58 59
f 48 59 49
f 49 60 50
f 49 59 61
f 49 61 60
f 50 60 62
f 51 63 64
f 51 64 52
f 52 64 65
f 52 65 53
f 53 65 66
f 54 55 67
f 54 67 68
f 55 69 67
f 56 70 57
f 57 70 58
f 58 61 59
f 58 70 71
f 58 71 61
f 60 61 72
f 60 72 62
f 61 71 73
f 61 73 72
f 62 72 74
f 63 75 76
f 63 76 77
f 63 77 64
f 64 77 99
f 64 99 78
f 64 78 65
f 65 78 79
f 65 79 80
f 65 80 66
f 67 69 81
f 67 81 82
f 67 82 83
f 67 83 84
f 67 84 85
f 67 85 86
f 67 86 68
f 69 87 88
f 69 88 82
f 69 82 81
f 71 89 73
f 72 73 90
f 72 90 91
f 72 91 74
f 73 92 90
f 73 89 93
f 73 93 92
f 75 94 76
f 76 83 95
f 76 95 96
f 76 96 97
f 76 97 77
f 76 94 98
f 76 98 83
f 77 97 99
f 78 99 79
f 79 99 96
f 79 96 100
f 79 100 101
f 79 101 102
f 79 102 80
f 82 88 103
f 82 103 95
f 82 95 83
f 83 98 84
f 87 104 88
f 88 104 105
f 88 105 103
f 89 106 93
f 90 92 107
f 90 107 108
f 90 108 91
f 92 93 109
f 92 109 107
f 93 106 110
f 93 110 109
f 95 103 96
f 96 99 97
f 96 103 105
f 96 105 111
f 96 111 112
f 96 112 113
f 96 113 100
f 100 113 114
f 100 114 101
f 101 114 115
f 101 115 102
f 102 115 116
f 104 117 105
f 105 117 111
f 106 118 110
f 107 109 119
f 107 119 120
f 107 120 108
f 109 110 119
f 110 118 121
f 110 121 122
f 110 122 123
f 110 123 119
f 111 124 125
f 111 125 126
f 111 126 112
f 111 117 124
f 112 126 113
f 113 126 127
f 113 127 128
f 113 128 114
f 114 129 115
f 114 128 130
f 114 130 131
f 114 131 132
f 114 132 129
f 115 129 133
f 115 133 116
f 119 123 134
f 119 134 135
f 119 135 136
f 119 136 120
f 120 136 137
f 121 138 122
f 122 138 139
f 122 139 135
f 122 135 134
f 122 134 123
f 125 140 126
f 126 141 127
f 126 140 141
f 127 141 142
f 127 142 143
f 127 143 144
f 127 144 128
f 128 144 130
f 129 132 145
f 129 145 133
f 130 144 146
f 130 146 147
f 130 147 131
f 131 147 148
f 131 148 132
f 132 148 147
f 132 147 149
f 132 149 150
f 132 150 145
f 135 139 136
f 136 151 137
f 136 139 152
f 136 152 153
f 136 153 154
f 136 154 155
f 136 155 156
f 136 156 151
f 138 157 139
f 139 157 158
f 139 158 159
f 139 159 152
f 140 160 141
f 141 160 142
f 142 160 161
f 142 161 143
f 143 162 144
f 143 161 162
f 144 162 163
f 144 163 164
f 144 164 165
f 144 165 146
f 146 165 147
f 147 166 149
f 147 165 167
f 147 167 168
f 147 168 169
f 147 169 166
f 149 170 171
f 149 171 150
f 149 166 169
f 149 169 172
f 149 172 173
f 149 173 170
f 152 159 153
f 153 159 174
f 153 174 175
f 153 175 155
f 153 155 154
f 157 176 158
f 158 176 177
f 158 177 178
f 158 178 159
f 159 178 172
f 159 172 174
f 163 179 164
f 164 179 165
f 165 179 180
f 165 180 181
f 165 181 182
f 165 182 167
f 167 182 183
f 167 183 184
f 167 184 168
f 168 184 185
f 168 185 186
f 168 186 169
f 169 186 174
f 169 174 172
f 172 178 173
f 173 178 187
f 174 186 188
f 174 188 175
f 175 188 189
f 177 187 178
f 183 190 184
f 184 190 185
f 185 190 189
f 185 189 186
f 186 189 188

