# https://github.com/mikedh/trimesh
v 0.00630212 -0.03029907 0.02287130
v 0.00631126 -0.03016706 0.02287130
v 0.00630212 -0.03017774 0.02287540
v 0.00630212 -0.02250440 0.02287130
v 0.00632656 -0.02991067 0.02287130
v 0.00630212 -0.02991067 0.02288305
v 0.00630212 -0.02255171 0.02287300
v 0.00630598 -0.02254713 0.02287130
v 0.00632662 -0.02482716 0.02287130
v 0.00630212 -0.02482716 0.02288308
v 0.00630212 -0.02339871 0.02288268
v 0.00632585 -0.02337200 0.02287130
v 0.00632662 -0.02421824 0.02287130
v 0.00630212 -0.02424647 0.02288308
f 1 2 3
f 1 3 6
f 1 6 10
f 1 10 14
f 1 14 11
f 1 11 7
f 1 7 4
f 1 4 8
f 1 8 12
f 1 12 13
f 1 13 9
f 1 9 5
f 1 5 2
f 2 5 3
f 3 5 6
f 4 7 8
f 5 9 10
f 5 10 6
f 7 11 8
f 8 11 12
f 9 13 14
f 9 14 10
f 11 14 12
f 12 14 13

