# https://github.com/mikedh/trimesh
v 0.01449670 0.03223965 0.07449248
v 0.01449574 0.03223965 0.07451765
v 0.01455343 0.03194886 0.07449248
v 0.00485692 0.03223965 0.07449248
v 0.01449286 0.03223965 0.07458923
v 0.01466014 0.03111186 0.07449248
v 0.01451305 0.03194886 0.07543676
v 0.00849575 0.02861675 0.07449248
v 0.00850152 0.02854405 0.07851028
v 0.00824676 0.02940687 0.07851028
v 0.00768242 0.03223965 0.07851028
v 0.01445633 0.03223965 0.07543676
v 0.01461880 0.03110153 0.07543676
v 0.01465822 0.03107094 0.07462738
v 0.01467841 0.03091244 0.07449248
v 0.01443133 0.03223965 0.07599326
v 0.01441787 0.03223965 0.07628429
v 0.01447363 0.03194886 0.07628429
v 0.00910239 0.02827750 0.07449248
v 0.00918122 0.02823380 0.07449248
v 0.00918122 0.02818176 0.07851028
v 0.01430635 0.03223965 0.07851028
v 0.01457842 0.03110153 0.07628429
v 0.01453708 0.03110153 0.07713103
v 0.01449478 0.03110153 0.07797856
v 0.01446690 0.03110153 0.07851028
v 0.01429001 0.03064827 0.07851028
v 0.01452939 0.03055095 0.07449248
v 0.01437749 0.03223965 0.07713103
v 0.01443325 0.03194886 0.07713103
v 0.00974651 0.02840819 0.07851028
v 0.00919468 0.02818534 0.07851028
v 0.01433423 0.03041549 0.07449248
v 0.01434192 0.03205731 0.07851028
v 0.01433519 0.03223965 0.07797856
v 0.01442845 0.03141735 0.07851028
v 0.01439095 0.03194886 0.07797856
v 0.01417656 0.03037934 0.07851028
v 0.01424771 0.03037934 0.07543676
v 0.01001474 0.02852737 0.07851028
v 0.01419002 0.03037934 0.07797856
v 0.01436307 0.03194886 0.07851028
f 1 2 3
f 1 3 6
f 1 6 15
f 1 15 28
f 1 28 33
f 1 33 20
f 1 20 19
f 1 19 8
f 1 8 4
f 1 4 11
f 1 11 22
f 1 22 35
f 1 35 29
f 1 29 17
f 1 17 16
f 1 16 12
f 1 12 5
f 1 5 2
f 2 5 3
f 3 5 7
f 3 7 6
f 4 8 9
f 4 9 10
f 4 10 11
f 5 12 7
f 6 13 14
f 6 14 15
f 6 7 13
f 7 12 16
f 7 16 17
f 7 17 18
f 7 18 13
f 8 19 9
f 9 19 20
f 9 20 21
f 9 21 32
f 9 32 31
f 9 31 40
f 9 40 38
f 9 38 27
f 9 27 26
f 9 26 36
f 9 36 42
f 9 42 34
f 9 34 22
f 9 22 11
f 9 11 10
f 13 23 15
f 13 15 14
f 13 18 23
f 15 23 24
f 15 24 25
f 15 25 26
f 15 26 27
f 15 27 28
f 17 29 30
f 17 30 18
f 18 30 23
f 20 31 32
f 20 32 21
f 20 33 31
f 22 34 35
f 23 30 24
f 24 30 37
f 24 37 25
f 25 36 26
f 25 37 36
f 27 38 28
f 28 38 33
f 29 35 37
f 29 37 30
f 31 33 39
f 31 39 40
f 33 38 41
f 33 41 39
f 34 42 35
f 35 42 37
f 36 37 42
f 38 40 41
f 39 41 40

