# https://github.com/mikedh/trimesh
v 0.00630212 0.01981666 0.02286438
v 0.00630212 0.01923533 0.02286438
v 0.00653712 0.02686301 0.02276948
v 0.00630212 0.02686301 0.02286320
v 0.00630212 -0.00194601 0.02286320
v 0.00653712 -0.00363009 0.02276948
v 0.01228926 0.02855766 0.02006589
v 0.00653244 0.02770857 0.02276418
v 0.00630212 0.02744786 0.02285790
v 0.00630212 -0.00363009 0.02286261
v 0.01228926 -0.00363009 0.02006589
v 0.01228926 0.02940322 0.02002934
v 0.00642343 0.02831104 0.02266398
v 0.00630212 0.02770857 0.02285495
v 0.01228926 0.02988942 0.01997630
v 0.01228281 0.02990351 0.01997571
v 0.00630212 -0.00363009 0.01763401
v 0.01228926 -0.00363009 0.01763401
v 0.00630212 0.02832513 0.02268225
v 0.00630212 0.02819477 0.02273884
v 0.01069636 0.03075260 0.01997630
v 0.00891885 0.03156998 0.01996687
v 0.01228926 0.02990704 0.01988140
v 0.01228926 0.02993874 0.01950831
v 0.01116286 0.03059758 0.01950831
v 0.00630212 0.02405856 0.01684303
v 0.01228926 0.02191999 0.01684303
v 0.00630212 0.03233450 0.01994742
v 0.01073914 0.03078078 0.01950831
v 0.00888955 0.03156293 0.01950831
v 0.00630212 0.03236269 0.01983190
v 0.01228926 0.02991056 0.01935742
v 0.01223358 0.02988237 0.01902441
v 0.01059028 0.03073851 0.01901734
v 0.00630212 0.03011138 0.01684303
v 0.01228926 0.02788473 0.01684303
v 0.00877175 0.03152770 0.01907923
v 0.00833338 0.03160169 0.01900260
v 0.00658459 0.03219710 0.01955429
v 0.00663851 0.03183069 0.01875682
v 0.00630212 0.03201037 0.01905565
v 0.01228926 0.02985419 0.01907805
v 0.01172196 0.03003035 0.01886704
v 0.01228926 0.02979429 0.01896311
v 0.01228926 0.02825466 0.01724559
v 0.01002767 0.03086534 0.01888236
v 0.01119568 0.02978020 0.01828942
v 0.01104565 0.02853652 0.01684303
v 0.01091613 0.02859641 0.01684303
v 0.00630212 0.03147133 0.01829237
v 0.00652775 0.03006558 0.01684303
v 0.01218377 0.02794463 0.01684303
v 0.00937949 0.03060110 0.01831713
v 0.00913042 0.02932219 0.01684303
v 0.00843067 0.02955472 0.01684303
v 0.00748595 0.03172500 0.01887117
v 0.00833338 0.02958643 0.01684303
v 0.00630212 0.03183774 0.01869199
v 0.00748595 0.02982953 0.01684303
v 0.01175185 0.02818773 0.01684303
v 0.01002767 0.02898044 0.01684303
v 0.01154204 0.02829342 0.01684303
v 0.00928983 0.02926229 0.01684303
f 1 2 6
f 1 6 3
f 1 3 4
f 1 4 9
f 1 9 14
f 1 14 20
f 1 20 19
f 1 19 28
f 1 28 31
f 1 31 41
f 1 41 58
f 1 58 50
f 1 50 35
f 1 35 26
f 1 26 17
f 1 17 10
f 1 10 5
f 1 5 2
f 2 5 6
f 3 7 8
f 3 8 4
f 3 6 11
f 3 11 7
f 4 8 9
f 5 10 6
f 6 10 17
f 6 17 18
f 6 18 11
f 7 12 8
f 7 11 18
f 7 18 27
f 7 27 36
f 7 36 45
f 7 45 44
f 7 44 42
f 7 42 32
f 7 32 24
f 7 24 23
f 7 23 15
f 7 15 12
f 8 13 14
f 8 14 9
f 8 12 15
f 8 15 16
f 8 16 13
f 13 19 20
f 13 20 14
f 13 16 21
f 13 21 22
f 13 22 19
f 15 23 16
f 16 23 24
f 16 24 25
f 16 25 21
f 17 26 27
f 17 27 18
f 19 22 28
f 21 25 22
f 22 25 29
f 22 29 30
f 22 30 31
f 22 31 28
f 24 32 33
f 24 33 25
f 25 34 29
f 25 33 34
f 26 35 51
f 26 51 59
f 26 59 57
f 26 57 55
f 26 55 54
f 26 54 63
f 26 63 61
f 26 61 49
f 26 49 48
f 26 48 62
f 26 62 60
f 26 60 52
f 26 52 36
f 26 36 27
f 29 34 37
f 29 37 30
f 30 37 31
f 31 38 39
f 31 39 40
f 31 40 41
f 31 37 38
f 32 42 33
f 33 43 34
f 33 42 44
f 33 44 45
f 33 45 43
f 34 46 37
f 34 43 47
f 34 47 48
f 34 48 49
f 34 49 46
f 35 50 51
f 36 52 45
f 37 46 53
f 37 53 54
f 37 54 55
f 37 55 38
f 38 56 39
f 38 55 57
f 38 57 56
f 39 56 40
f 40 50 58
f 40 58 41
f 40 56 59
f 40 59 51
f 40 51 50
f 43 45 60
f 43 60 47
f 45 52 60
f 46 49 61
f 46 61 53
f 47 60 62
f 47 62 48
f 53 61 63
f 53 63 54
f 56 57 59

