# https://github.com/mikedh/trimesh
v 0.00027914 -0.03194867 0.02882842
v 0.00027914 -0.03154285 0.02950325
v -0.00607237 -0.03124161 0.02932879
v -0.00658111 -0.03122210 0.02930335
v -0.00607237 -0.03130872 0.02882842
v -0.00607237 -0.03131575 0.02798154
v -0.00607237 -0.03131575 0.02543970
v -0.00607237 -0.03130950 0.02459162
v 0.00027914 -0.03182068 0.02205099
v 0.00027914 -0.02864282 0.02971527
v -0.00607237 -0.02991099 0.02961593
v -0.00607237 -0.03075853 0.02951052
v -0.00669755 -0.03075853 0.02938089
v -0.00693263 -0.03075853 0.02882842
v -0.00663060 -0.03124551 0.02882842
v -0.00663715 -0.03124863 0.02798154
v -0.00663715 -0.03124863 0.02543970
v -0.00662914 -0.03124473 0.02459162
v -0.00657892 -0.03122054 0.02397251
v -0.00607237 -0.03084281 0.02205099
v 0.00027914 -0.03153426 0.02117746
v 0.00027914 -0.02770085 0.02972739
v -0.00607237 -0.02821593 0.02961593
v -0.00677106 -0.02991099 0.02943419
v -0.00710076 -0.02991099 0.02882842
v -0.00715534 -0.02991099 0.02798154
v -0.00696757 -0.03075853 0.02798154
v -0.00696757 -0.03075853 0.02543970
v -0.00695884 -0.03075853 0.02459162
v -0.00682346 -0.03068829 0.02289787
v -0.00679071 -0.03058918 0.02205099
v -0.00667281 -0.03046431 0.02142583
v -0.00607237 -0.03052987 0.02132527
v -0.00656873 -0.02952625 0.01988473
v 0.00027914 -0.02973462 0.01870226
v 0.00027914 -0.02736917 0.02966924
v -0.00607237 -0.02736917 0.02946691
v -0.00666262 -0.02736917 0.02936029
v -0.00677106 -0.02821593 0.02943419
v -0.00710076 -0.02821593 0.02882842
v -0.00715534 -0.02821593 0.02798154
v -0.00715534 -0.02991099 0.02374474
v -0.00715316 -0.02991099 0.02289787
v -0.00712041 -0.02991099 0.02205099
v -0.00686131 -0.02996250 0.02116777
v -0.00670993 -0.02968780 0.02035603
v -0.00671502 -0.02906346 0.01968604
v -0.00669755 -0.02807077 0.01889853
v -0.00607237 -0.02863423 0.01908874
v -0.00703962 -0.02906346 0.02035603
v -0.00607237 -0.02821046 0.01880524
v -0.00607237 -0.02753384 0.01838241
v 0.00027914 -0.02819485 0.01777542
v 0.00027914 -0.02693448 0.02954929
v -0.00653453 -0.02692902 0.02927427
v -0.00686277 -0.02736917 0.02882842
v -0.00706437 -0.02397748 0.02120290
v -0.00715534 -0.02397748 0.02035603
v -0.00715534 -0.02821593 0.02035603
v -0.00715025 -0.02906346 0.02120290
v -0.00688096 -0.02829865 0.01942555
v -0.00681182 -0.02735044 0.01863441
v -0.00660076 -0.02705544 0.01818613
v -0.00714151 -0.02736917 0.01950915
v 0.00027914 -0.02736839 0.01747495
v 0.00027914 -0.02673391 0.02946569
v -0.00607237 -0.02397748 0.02191408
v -0.00673467 -0.02397748 0.02176991
v -0.00715534 -0.02397748 0.01950915
v -0.00715534 -0.02652164 0.01950915
v -0.00703380 -0.02652164 0.01866106
v -0.00670338 -0.02652164 0.01811708
v -0.00607237 -0.02567489 0.01782873
v -0.00607237 -0.02652164 0.01799713
v -0.00714006 -0.02482735 0.01866106
v -0.00710731 -0.02567489 0.01866106
v 0.00027914 -0.02728801 0.01746042
v 0.00027914 -0.02397748 0.02211278
v -0.00714879 -0.02397748 0.01866106
v -0.00714879 -0.02397982 0.01866106
v -0.00677761 -0.02567489 0.01803348
v -0.00607237 -0.02482735 0.01768940
v -0.00682055 -0.02397748 0.01793898
v -0.00681036 -0.02482735 0.01796321
v 0.00027914 -0.02668397 0.01741559
v 0.00027914 -0.02397748 0.01764821
v -0.00607237 -0.02397982 0.01763488
v 0.00027914 -0.02572951 0.01735137
v -0.00607456 -0.02397748 0.01763609
v -0.00681910 -0.02397982 0.01793655
v -0.00183876 -0.02397748 0.01763488
v -0.00522812 -0.02397748 0.01763488
f 1 2 3
f 1 3 4
f 1 4 5
f 1 5 6
f 1 6 7
f 1 7 8
f 1 8 9
f 1 9 21
f 1 21 35
f 1 35 53
f 1 53 65
f 1 65 77
f 1 77 85
f 1 85 88
f 1 88 86
f 1 86 78
f 1 78 66
f 1 66 54
f 1 54 36
f 1 36 22
f 1 22 10
f 1 10 2
f 2 10 11
f 2 11 12
f 2 12 3
f 3 12 4
f 4 12 13
f 4 13 14
f 4 14 15
f 4 15 5
f 5 15 6
f 6 15 16
f 6 16 17
f 6 17 7
f 7 17 18
f 7 18 8
f 8 18 19
f 8 19 9
f 9 20 21
f 9 19 20
f 10 22 11
f 11 22 23
f 11 23 39
f 11 39 24
f 11 24 13
f 11 13 12
f 13 24 25
f 13 25 14
f 14 25 26
f 14 26 27
f 14 27 15
f 15 27 16
f 16 27 28
f 16 28 17
f 17 28 29
f 17 29 18
f 18 29 19
f 19 29 30
f 19 30 31
f 19 31 32
f 19 32 20
f 20 32 33
f 20 33 21
f 21 33 34
f 21 34 35
f 22 36 23
f 23 36 37
f 23 37 38
f 23 38 39
f 24 39 40
f 24 40 25
f 25 40 41
f 25 41 26
f 26 41 58
f 26 58 69
f 26 69 70
f 26 70 59
f 26 59 42
f 26 42 28
f 26 28 27
f 28 42 43
f 28 43 29
f 29 43 44
f 29 44 31
f 29 31 30
f 31 44 45
f 31 45 32
f 32 45 46
f 32 46 34
f 32 34 33
f 34 47 48
f 34 48 49
f 34 49 35
f 34 46 50
f 34 50 47
f 35 49 51
f 35 51 52
f 35 52 53
f 36 54 37
f 37 54 55
f 37 55 38
f 38 55 56
f 38 56 40
f 38 40 39
f 40 56 57
f 40 57 58
f 40 58 41
f 42 59 43
f 43 59 60
f 43 60 44
f 44 60 50
f 44 50 45
f 45 50 46
f 47 61 48
f 47 50 61
f 48 61 62
f 48 62 63
f 48 63 49
f 49 63 51
f 50 60 59
f 50 59 64
f 50 64 61
f 51 63 52
f 52 63 53
f 53 63 65
f 54 66 55
f 55 66 67
f 55 67 68
f 55 68 57
f 55 57 56
f 57 68 67
f 57 67 78
f 57 78 86
f 57 86 91
f 57 91 92
f 57 92 89
f 57 89 83
f 57 83 79
f 57 79 69
f 57 69 58
f 59 70 64
f 61 64 71
f 61 71 62
f 62 71 72
f 62 72 63
f 63 72 73
f 63 73 74
f 63 74 65
f 64 70 75
f 64 75 76
f 64 76 71
f 65 74 73
f 65 73 77
f 66 78 67
f 69 79 80
f 69 80 70
f 70 80 75
f 71 76 81
f 71 81 72
f 72 81 82
f 72 82 73
f 73 82 77
f 75 80 83
f 75 83 84
f 75 84 76
f 76 84 81
f 77 82 85
f 79 83 80
f 81 84 82
f 82 87 88
f 82 88 85
f 82 84 87
f 83 89 90
f 83 90 84
f 84 90 87
f 86 88 91
f 87 92 88
f 87 90 89
f 87 89 92
f 88 92 91

