# https://github.com/mikedh/trimesh
v 0.00618594 0.03924607 0.05879874
v 0.00579040 0.03932177 0.05879874
v 0.00618594 0.03575283 0.05879874
v 0.00618594 0.03924607 0.05848848
v 0.00579040 0.03932339 0.05848848
v 0.00209129 0.03952127 0.05879874
v 0.00409540 0.03942936 0.05764026
v 0.00240160 0.03576202 0.05879874
v 0.00409540 0.03401892 0.05787594
v 0.00579040 0.03401892 0.05787792
v 0.00618594 0.03401892 0.05787792
v 0.00618594 0.03921850 0.05783914
v 0.00494290 0.03937746 0.05764026
v 0.00618594 0.03920985 0.05764026
v 0.00579040 0.03928554 0.05764026
v 0.00537745 0.03915362 0.05293180
v 0.00155410 0.03954182 0.05879874
v 0.00324850 0.03946883 0.05764026
v 0.00409540 0.03931744 0.05509859
v 0.00324850 0.03943260 0.05679304
v 0.00494290 0.03919795 0.05340414
v 0.00155410 0.03576689 0.05879874
v 0.00240160 0.03401892 0.05787295
v 0.00340275 0.03401892 0.05787494
v 0.00618594 0.03401892 0.05271701
v 0.00618594 0.03918336 0.05709633
v 0.00614573 0.03913848 0.05594581
v 0.00605689 0.03912064 0.05509859
v 0.00579040 0.03895087 0.05086246
v 0.00514157 0.03914064 0.05236698
v 0.00077922 0.03928879 0.05594581
v 0.00079242 0.03931149 0.05679304
v 0.00078702 0.03934610 0.05879874
v 0.00240160 0.03949045 0.05764026
v 0.00155410 0.03953047 0.05848848
v 0.00087225 0.03922715 0.05340414
v 0.00082844 0.03924607 0.05425136
v 0.00240160 0.03945693 0.05679304
v 0.00433728 0.03914335 0.05149888
v 0.00409540 0.03927905 0.05425136
v 0.00377188 0.03915632 0.05127613
v 0.00324850 0.03923418 0.05255691
v 0.00151388 0.03577446 0.05879874
v 0.00155410 0.03401892 0.05786699
v 0.00323889 0.03401892 0.05256189
v 0.00618594 0.03576256 0.04874937
v 0.00618594 0.03917633 0.05696209
v 0.00618594 0.03914605 0.05640423
v 0.00618594 0.03911848 0.05594581
v 0.00618594 0.03876272 0.05045277
v 0.00579040 0.03888599 0.05001524
v 0.00494290 0.03905360 0.05086246
v 0.00489248 0.03912496 0.05175245
v 0.00079302 0.03926500 0.05509859
v 0.00037108 0.03872812 0.05509859
v 0.00054514 0.03895736 0.05879874
v 0.00036507 0.03872812 0.05594581
v 0.00155410 0.03946667 0.05679304
v 0.00155410 0.03949911 0.05764026
v 0.00095088 0.03920877 0.05255691
v 0.00045030 0.03872812 0.05340414
v 0.00240160 0.03925364 0.05255691
v 0.00362123 0.03915632 0.05127613
v 0.00155410 0.03926230 0.05255691
v 0.00101570 0.03601019 0.05879874
v 0.00079302 0.03401892 0.05766711
v 0.00240160 0.03401892 0.05254498
v 0.00618594 0.03581068 0.04872948
v 0.00155410 0.03401892 0.05255294
v 0.00130921 0.03401892 0.05259172
v 0.00075701 0.03401892 0.05269116
v 0.00618594 0.03872866 0.05001524
v 0.00618594 0.03866756 0.04954986
v 0.00618594 0.03843507 0.04881699
v 0.00577299 0.03856538 0.04912028
v 0.00040649 0.03872812 0.05425136
v 0.00028945 0.03788035 0.05340414
v 0.00040529 0.03872812 0.05879874
v 0.00029005 0.03788035 0.05425136
v 0.00029185 0.03788035 0.05509859
v 0.00104752 0.03918390 0.05207563
v 0.00057155 0.03872812 0.05255691
v 0.00037468 0.03788035 0.05255691
v 0.00155410 0.03919795 0.05202591
v 0.00075461 0.03614103 0.05879874
v 0.00064957 0.03401892 0.05762336
v 0.00608871 0.03618645 0.04869866
v 0.00618594 0.03605831 0.04869568
v 0.00061896 0.03401892 0.05287810
v 0.00079543 0.03788035 0.05186283
v 0.00554671 0.03703313 0.04886870
v 0.00618594 0.03838155 0.04869269
v 0.00604429 0.03838155 0.04869269
v 0.00010338 0.03401892 0.05594581
v 0.00005476 0.03401892 0.05682784
v 0.00037948 0.03819069 0.05879874
v 0.00089986 0.03872812 0.05195431
v 0.00036087 0.03401892 0.05340414
v 0.00063097 0.03640974 0.05879874
v 0.00026064 0.03401892 0.05716693
v 0.00597046 0.03703313 0.04866584
v 0.00618594 0.03675955 0.04865093
v 0.00618594 0.03618645 0.04868474
v 0.00553651 0.03788035 0.04883588
v 0.00618594 0.03826206 0.04868275
v 0.00618594 0.03759759 0.04863999
v 0.00596026 0.03788035 0.04866684
v 0.00036747 0.03788035 0.05879874
v 0.00036747 0.03703313 0.05879874
v 0.00618594 0.03703313 0.04864098
f 1 2 6
f 1 6 17
f 1 17 33
f 1 33 56
f 1 56 78
f 1 78 96
f 1 96 108
f 1 108 109
f 1 109 99
f 1 99 85
f 1 85 65
f 1 65 43
f 1 43 22
f 1 22 8
f 1 8 3
f 1 3 11
f 1 11 25
f 1 25 46
f 1 46 68
f 1 68 88
f 1 88 103
f 1 103 102
f 1 102 110
f 1 110 106
f 1 106 105
f 1 105 92
f 1 92 74
f 1 74 73
f 1 73 72
f 1 72 50
f 1 50 49
f 1 49 48
f 1 48 47
f 1 47 26
f 1 26 14
f 1 14 12
f 1 12 4
f 1 4 5
f 1 5 2
f 2 5 7
f 2 7 6
f 3 8 9
f 3 9 10
f 3 10 11
f 4 12 5
f 5 13 7
f 5 12 14
f 5 14 15
f 5 15 16
f 5 16 13
f 6 7 18
f 6 18 17
f 7 19 20
f 7 20 18
f 7 13 16
f 7 16 21
f 7 21 19
f 8 22 23
f 8 23 24
f 8 24 9
f 9 24 23
f 9 23 44
f 9 44 66
f 9 66 86
f 9 86 100
f 9 100 95
f 9 95 94
f 9 94 98
f 9 98 89
f 9 89 71
f 9 71 70
f 9 70 69
f 9 69 67
f 9 67 45
f 9 45 25
f 9 25 11
f 9 11 10
f 14 26 27
f 14 27 28
f 14 28 16
f 14 16 15
f 16 29 30
f 16 30 21
f 16 28 29
f 17 31 32
f 17 32 33
f 17 18 34
f 17 34 35
f 17 35 36
f 17 36 37
f 17 37 31
f 18 20 38
f 18 38 34
f 19 21 39
f 19 39 40
f 19 40 20
f 20 40 39
f 20 39 41
f 20 41 42
f 20 42 38
f 21 30 39
f 22 43 44
f 22 44 23
f 25 45 46
f 26 47 27
f 27 47 48
f 27 48 49
f 27 49 50
f 27 50 28
f 28 50 29
f 29 50 51
f 29 51 52
f 29 52 30
f 30 52 53
f 30 53 39
f 31 54 55
f 31 55 33
f 31 33 32
f 31 37 54
f 33 55 57
f 33 57 56
f 34 38 58
f 34 58 59
f 34 59 35
f 35 59 36
f 36 60 61
f 36 61 37
f 36 59 60
f 37 61 54
f 38 42 62
f 38 62 58
f 39 53 52
f 39 52 41
f 41 52 51
f 41 51 63
f 41 63 64
f 41 64 62
f 41 62 42
f 43 65 44
f 44 65 66
f 45 67 46
f 46 67 69
f 46 69 70
f 46 70 71
f 46 71 68
f 50 72 51
f 51 72 73
f 51 73 74
f 51 74 75
f 51 75 63
f 54 61 76
f 54 76 55
f 55 76 77
f 55 77 57
f 56 57 78
f 57 77 79
f 57 79 80
f 57 80 78
f 58 62 64
f 58 64 60
f 58 60 59
f 60 64 81
f 60 81 82
f 60 82 61
f 61 77 76
f 61 82 83
f 61 83 77
f 63 81 84
f 63 84 64
f 63 75 81
f 64 84 81
f 65 85 66
f 66 85 86
f 68 87 88
f 68 71 87
f 71 89 90
f 71 90 91
f 71 91 87
f 74 92 93
f 74 93 75
f 75 93 81
f 77 94 95
f 77 95 79
f 77 83 94
f 78 80 95
f 78 95 96
f 79 95 80
f 81 93 97
f 81 97 82
f 82 97 83
f 83 89 98
f 83 98 94
f 83 97 90
f 83 90 89
f 85 99 86
f 86 99 100
f 87 91 101
f 87 101 102
f 87 102 103
f 87 103 88
f 90 97 104
f 90 104 91
f 91 104 101
f 92 105 93
f 93 105 106
f 93 106 107
f 93 107 104
f 93 104 97
f 95 108 96
f 95 100 109
f 95 109 108
f 99 109 100
f 101 107 106
f 101 106 110
f 101 110 102
f 101 104 107

