# https://github.com/mikedh/trimesh
v 0.01393363 -0.03503887 0.05879874
v 0.01386856 -0.03516783 0.05879874
v 0.01123649 -0.03503887 0.05879874
v 0.01327362 -0.03503887 0.07292849
v 0.01378888 -0.03532314 0.05879874
v 0.00155415 -0.03551114 0.05879874
v 0.01109971 -0.03503887 0.06103106
v 0.01047290 -0.03503887 0.07292849
v 0.01303326 -0.03547844 0.07292849
v 0.01303458 -0.03547981 0.07289391
v 0.01363351 -0.03554837 0.05879874
v 0.01274508 -0.03590349 0.07289391
v 0.00078525 -0.03583946 0.05879874
v 0.00155415 -0.03556699 0.06187890
v 0.01038127 -0.03503887 0.07292572
v 0.01037994 -0.03504068 0.07292849
v 0.01275571 -0.03588532 0.07292849
v 0.01339712 -0.03587125 0.05879874
v 0.01274376 -0.03590212 0.07292849
v 0.01272649 -0.03592529 0.07292849
v 0.01232013 -0.03646885 0.07292849
v 0.01232146 -0.03646976 0.07289391
v 0.00037091 -0.03669046 0.05879874
v 0.00037091 -0.03669046 0.06187890
v 0.00075205 -0.03591711 0.06187890
v 0.00155415 -0.03559969 0.06272674
v 0.00079587 -0.03777940 0.07292849
v 0.01326433 -0.03604471 0.05879874
v 0.01192837 -0.03687528 0.07292849
v 0.01191244 -0.03689344 0.07289391
v 0.01193103 -0.03691160 0.07204607
v 0.01304521 -0.03632581 0.05879874
v 0.00036826 -0.03722766 0.05879874
v 0.00039482 -0.03669046 0.06272674
v 0.00036693 -0.03753737 0.06187890
v 0.00039482 -0.03838518 0.06950393
v 0.00039880 -0.03838518 0.07035177
v 0.00040278 -0.03838518 0.07119823
v 0.00041341 -0.03838518 0.07289391
v 0.00077329 -0.03594572 0.06272674
v 0.00042935 -0.03836157 0.07292849
v 0.01191111 -0.03689253 0.07292849
v 0.01148881 -0.03728534 0.07289391
v 0.01194829 -0.03692977 0.07119823
v 0.01247152 -0.03690525 0.05879874
v 0.00036693 -0.03753737 0.05879874
v 0.00041474 -0.03838518 0.07292849
v 0.00037490 -0.03838518 0.06272674
v 0.00038950 -0.03838518 0.06780963
v 0.00070424 -0.03923255 0.07292849
v 0.01148748 -0.03728443 0.07292849
v 0.01091778 -0.03770766 0.07292849
v 0.01150740 -0.03729851 0.07204607
v 0.01220327 -0.03715955 0.05879874
v 0.01196423 -0.03694703 0.07035177
v 0.00038685 -0.03838518 0.05879874
v 0.00038419 -0.03838518 0.05933676
v 0.00037888 -0.03838518 0.06103106
v 0.00070424 -0.03923255 0.07289391
v 0.00106943 -0.03965214 0.07292849
v 0.01090051 -0.03771946 0.07292849
v 0.01091778 -0.03770856 0.07289391
v 0.01172121 -0.03751421 0.05879874
v 0.01152466 -0.03731031 0.07119823
v 0.00076798 -0.03905726 0.05879874
v 0.00076665 -0.03906816 0.05933676
v 0.00076400 -0.03908360 0.06018460
v 0.00076134 -0.03909722 0.06103106
v 0.00075869 -0.03911085 0.06187890
v 0.00075470 -0.03913719 0.06357320
v 0.00108537 -0.03967031 0.07292849
v 0.01049415 -0.03798648 0.07292849
v 0.01115947 -0.03789248 0.05879874
v 0.00105748 -0.03914945 0.05879874
v 0.00112787 -0.03965668 0.07158411
v 0.00110529 -0.03967076 0.07292849
v 0.01004529 -0.03824214 0.07292849
v 0.01100409 -0.03796604 0.05879874
v 0.01002670 -0.03825258 0.07292849
v 0.01002670 -0.03825304 0.07289391
v 0.00155415 -0.03930384 0.05879874
v 0.00155415 -0.03953181 0.06611395
v 0.00155415 -0.03955133 0.06696179
v 0.00119161 -0.03965668 0.07158411
v 0.00155415 -0.03967712 0.07289391
v 0.00155415 -0.03967757 0.07292849
v 0.00155415 -0.03941283 0.06187890
v 0.00155415 -0.03943871 0.06272674
v 0.00155415 -0.03946369 0.06357320
v 0.00155415 -0.03948776 0.06442104
v 0.00155415 -0.03951091 0.06526888
v 0.01073584 -0.03808456 0.05879874
v 0.01002670 -0.03834795 0.06526888
v 0.01002670 -0.03835612 0.06442104
v 0.00909578 -0.03868217 0.07292849
v 0.00579175 -0.03917760 0.05879874
v 0.00324866 -0.03944870 0.06357320
v 0.00240140 -0.03943599 0.06272674
v 0.00240140 -0.03952454 0.06611395
v 0.00240140 -0.03950456 0.06526888
v 0.00175733 -0.03965305 0.07176392
v 0.00150634 -0.03966213 0.07204607
v 0.00240140 -0.03956132 0.06780963
v 0.00240140 -0.03957949 0.06865609
v 0.00150634 -0.03964579 0.07126047
v 0.00244390 -0.03966667 0.07292849
v 0.00219822 -0.03965895 0.07232961
v 0.00276262 -0.03965532 0.07250941
v 0.00240140 -0.03945960 0.06357320
v 0.00240140 -0.03948276 0.06442104
v 0.01002670 -0.03837928 0.05879874
v 0.00917944 -0.03865401 0.07204607
v 0.00919936 -0.03868217 0.06526888
v 0.00904797 -0.03870079 0.07292849
v 0.00610117 -0.03916670 0.05879874
v 0.00494450 -0.03935697 0.06272674
v 0.00409591 -0.03941510 0.06357320
v 0.00324866 -0.03946868 0.06442104
v 0.00244921 -0.03964987 0.07204607
v 0.00264177 -0.03966349 0.07292849
v 0.00289541 -0.03965941 0.07292849
v 0.00324866 -0.03948685 0.06526888
v 0.00917944 -0.03866174 0.05933676
v 0.00917944 -0.03865810 0.05879874
v 0.00919803 -0.03868489 0.06442104
v 0.00893775 -0.03874211 0.07292849
v 0.00875714 -0.03880932 0.07292849
v 0.00857654 -0.03887063 0.07292849
v 0.00841718 -0.03892466 0.07292849
v 0.00663901 -0.03911766 0.05879874
v 0.00663901 -0.03913310 0.05933676
v 0.00579175 -0.03928023 0.06187890
v 0.00409591 -0.03943236 0.06442104
v 0.00579175 -0.03930248 0.06272674
v 0.00409591 -0.03959129 0.07292849
v 0.00326459 -0.03964397 0.07292849
v 0.00323405 -0.03964352 0.07283305
v 0.00311984 -0.03965033 0.07292849
v 0.00877441 -0.03881386 0.06442104
v 0.00869738 -0.03879479 0.06018460
v 0.00867481 -0.03879025 0.05933676
v 0.00865622 -0.03878707 0.05879874
v 0.00833219 -0.03893465 0.06442104
v 0.00877573 -0.03881432 0.06526888
v 0.00751946 -0.03917442 0.07292849
v 0.00833086 -0.03895009 0.07204607
v 0.00748493 -0.03900776 0.05879874
v 0.00663901 -0.03915626 0.06018460
v 0.00663901 -0.03923119 0.06357320
v 0.00663901 -0.03924753 0.06442104
v 0.00579175 -0.03931701 0.06357320
v 0.00579175 -0.03945188 0.07289391
v 0.00579175 -0.03945234 0.07292849
v 0.00579175 -0.03933064 0.06442104
v 0.00579175 -0.03934335 0.06526888
v 0.00833219 -0.03893920 0.06526888
v 0.00827376 -0.03889378 0.06018460
v 0.00850084 -0.03882113 0.05879874
v 0.00748493 -0.03918396 0.07292849
v 0.00748493 -0.03912856 0.06526888
v 0.00748493 -0.03911948 0.06442104
v 0.00823259 -0.03887789 0.05879874
v 0.00748493 -0.03902139 0.05933676
v 0.00748493 -0.03904092 0.06018460
v 0.00748493 -0.03910403 0.06357320
v 0.00663901 -0.03925798 0.06526888
v 0.00748493 -0.03905681 0.06103106
v 0.00663901 -0.03934517 0.07292849
v 0.00825118 -0.03888425 0.05933676
f 1 2 5
f 1 5 11
f 1 11 18
f 1 18 28
f 1 28 32
f 1 32 45
f 1 45 54
f 1 54 63
f 1 63 73
f 1 73 78
f 1 78 92
f 1 92 111
f 1 111 124
f 1 124 142
f 1 142 158
f 1 158 162
f 1 162 147
f 1 147 130
f 1 130 115
f 1 115 96
f 1 96 81
f 1 81 74
f 1 74 65
f 1 65 56
f 1 56 46
f 1 46 33
f 1 33 23
f 1 23 13
f 1 13 6
f 1 6 3
f 1 3 7
f 1 7 15
f 1 15 8
f 1 8 4
f 1 4 2
f 2 4 5
f 3 6 7
f 4 8 16
f 4 16 27
f 4 27 41
f 4 41 47
f 4 47 50
f 4 50 60
f 4 60 71
f 4 71 76
f 4 76 86
f 4 86 106
f 4 106 120
f 4 120 121
f 4 121 138
f 4 138 136
f 4 136 135
f 4 135 153
f 4 153 168
f 4 168 159
f 4 159 145
f 4 145 129
f 4 129 128
f 4 128 127
f 4 127 126
f 4 126 114
f 4 114 95
f 4 95 79
f 4 79 77
f 4 77 72
f 4 72 61
f 4 61 52
f 4 52 51
f 4 51 42
f 4 42 29
f 4 29 21
f 4 21 20
f 4 20 19
f 4 19 17
f 4 17 9
f 4 9 10
f 4 10 5
f 5 10 12
f 5 12 11
f 6 13 14
f 6 14 15
f 6 15 7
f 8 15 16
f 9 17 10
f 10 17 12
f 11 12 18
f 12 17 19
f 12 19 20
f 12 20 21
f 12 21 22
f 12 22 18
f 13 23 24
f 13 24 25
f 13 25 14
f 14 25 26
f 14 26 15
f 15 27 16
f 15 26 27
f 18 22 28
f 21 29 22
f 22 29 30
f 22 30 31
f 22 31 32
f 22 32 28
f 23 33 24
f 24 34 25
f 24 33 35
f 24 35 36
f 24 36 37
f 24 37 38
f 24 38 39
f 24 39 34
f 25 34 40
f 25 40 26
f 26 40 27
f 27 40 41
f 29 42 30
f 30 43 31
f 30 42 51
f 30 51 43
f 31 44 32
f 31 43 44
f 32 44 45
f 33 46 35
f 34 39 47
f 34 47 40
f 35 46 48
f 35 48 49
f 35 49 36
f 36 49 50
f 36 50 37
f 37 50 38
f 38 50 39
f 39 50 47
f 40 47 41
f 43 51 52
f 43 52 53
f 43 53 54
f 43 54 55
f 43 55 44
f 44 55 45
f 45 55 54
f 46 56 57
f 46 57 58
f 46 58 48
f 48 58 59
f 48 59 50
f 48 50 49
f 50 59 60
f 52 61 62
f 52 62 63
f 52 63 64
f 52 64 53
f 53 64 54
f 54 64 63
f 56 65 66
f 56 66 67
f 56 67 68
f 56 68 69
f 56 69 59
f 56 59 57
f 57 59 58
f 59 69 70
f 59 70 60
f 60 70 71
f 61 72 73
f 61 73 63
f 61 63 62
f 65 74 75
f 65 75 71
f 65 71 66
f 66 71 67
f 67 71 68
f 68 71 69
f 69 71 70
f 71 75 76
f 72 77 73
f 73 77 79
f 73 79 80
f 73 80 78
f 74 81 75
f 75 82 83
f 75 83 84
f 75 84 85
f 75 85 86
f 75 86 76
f 75 81 87
f 75 87 88
f 75 88 89
f 75 89 90
f 75 90 91
f 75 91 82
f 78 80 93
f 78 93 94
f 78 94 92
f 79 95 80
f 80 95 93
f 81 96 97
f 81 97 98
f 81 98 87
f 82 99 83
f 82 91 100
f 82 100 99
f 83 99 84
f 84 101 102
f 84 102 85
f 84 99 103
f 84 103 104
f 84 104 105
f 84 105 101
f 85 106 86
f 85 102 107
f 85 107 108
f 85 108 106
f 87 98 88
f 88 98 89
f 89 98 90
f 90 98 109
f 90 109 110
f 90 110 91
f 91 110 100
f 92 94 111
f 93 95 112
f 93 112 94
f 94 112 113
f 94 113 111
f 95 114 113
f 95 113 112
f 96 115 116
f 96 116 97
f 97 109 98
f 97 116 117
f 97 117 118
f 97 118 99
f 97 99 100
f 97 100 110
f 97 110 109
f 99 108 103
f 99 118 108
f 101 119 102
f 101 105 104
f 101 104 119
f 102 119 108
f 102 108 107
f 103 108 104
f 104 108 119
f 106 108 120
f 108 121 120
f 108 118 122
f 108 122 121
f 111 123 124
f 111 113 125
f 111 125 123
f 113 114 126
f 113 126 127
f 113 127 128
f 113 128 129
f 113 129 125
f 115 130 131
f 115 131 132
f 115 132 116
f 116 133 117
f 116 132 134
f 116 134 135
f 116 135 136
f 116 136 133
f 117 133 137
f 117 137 122
f 117 122 118
f 121 122 138
f 122 137 138
f 123 125 139
f 123 139 124
f 124 140 141
f 124 141 142
f 124 139 143
f 124 143 140
f 125 129 144
f 125 144 139
f 129 145 146
f 129 146 144
f 130 147 131
f 131 148 132
f 131 147 148
f 132 148 134
f 133 136 137
f 134 149 150
f 134 150 151
f 134 151 135
f 134 148 149
f 135 152 153
f 135 151 154
f 135 154 155
f 135 155 152
f 136 138 137
f 139 144 146
f 139 146 156
f 139 156 143
f 140 143 141
f 141 157 142
f 141 143 157
f 142 157 158
f 143 156 159
f 143 159 160
f 143 160 161
f 143 161 157
f 145 159 146
f 146 159 156
f 147 162 163
f 147 163 148
f 148 163 164
f 148 164 149
f 149 164 150
f 150 165 161
f 150 161 166
f 150 166 153
f 150 153 152
f 150 152 155
f 150 155 154
f 150 154 151
f 150 164 167
f 150 167 165
f 153 166 168
f 157 169 158
f 157 161 169
f 158 169 162
f 159 168 160
f 160 168 161
f 161 168 166
f 161 165 169
f 162 169 165
f 162 165 167
f 162 167 164
f 162 164 163

