# https://github.com/mikedh/trimesh
v 0.00823393 -0.02733547 0.05944223
v 0.00823393 -0.02228558 0.05944223
v 0.01174125 -0.02733547 0.05944223
v 0.00823393 -0.02733547 0.06103102
v 0.01168529 -0.02228558 0.05944223
v 0.00823393 -0.02228558 0.06103102
v 0.01127708 -0.02704924 0.06135046
v 0.01114422 -0.02733547 0.06187846
v 0.00823393 -0.02397976 0.06187846
v 0.00823462 -0.02733547 0.06442017
v 0.01125992 -0.02228558 0.06041373
v 0.01028044 -0.02397976 0.06442017
v 0.01035700 -0.02482659 0.06442017
v 0.00823805 -0.02482659 0.06442017
v 0.00827478 -0.02228558 0.06187846
v 0.01044489 -0.02733547 0.06435365
v 0.00824423 -0.02733547 0.06444894
v 0.00993918 -0.02228558 0.06251074
v 0.00976924 -0.02347501 0.06493498
v 0.00991481 -0.02397976 0.06507702
v 0.00997901 -0.02482659 0.06517711
v 0.01041227 -0.02733547 0.06445673
v 0.00849554 -0.02733547 0.06519029
v 0.00849554 -0.02482659 0.06515973
v 0.00830156 -0.02397976 0.06442017
v 0.00865621 -0.02347501 0.06493498
v 0.00853605 -0.02228558 0.06250894
v 0.00918045 -0.02228558 0.06271811
v 0.00918045 -0.02343398 0.06498053
v 0.00918045 -0.02397976 0.06530297
v 0.00918045 -0.02482659 0.06549295
v 0.00918045 -0.02733547 0.06556427
v 0.00921169 -0.02733547 0.06555168
v 0.00998313 -0.02733547 0.06521726
v 0.00855047 -0.02397976 0.06506923
f 1 2 5
f 1 5 3
f 1 3 8
f 1 8 16
f 1 16 22
f 1 22 34
f 1 34 33
f 1 33 32
f 1 32 23
f 1 23 17
f 1 17 10
f 1 10 4
f 1 4 9
f 1 9 6
f 1 6 2
f 2 6 15
f 2 15 27
f 2 27 28
f 2 28 18
f 2 18 11
f 2 11 5
f 3 5 7
f 3 7 8
f 4 10 9
f 5 11 12
f 5 12 13
f 5 13 8
f 5 8 7
f 6 9 10
f 6 10 14
f 6 14 15
f 8 13 16
f 10 17 14
f 11 18 19
f 11 19 12
f 12 19 20
f 12 20 21
f 12 21 13
f 13 21 22
f 13 22 16
f 14 17 23
f 14 23 24
f 14 24 25
f 14 25 15
f 15 25 26
f 15 26 27
f 18 28 19
f 19 28 29
f 19 29 30
f 19 30 20
f 20 30 31
f 20 31 21
f 21 31 32
f 21 32 33
f 21 33 34
f 21 34 22
f 23 32 24
f 24 32 31
f 24 31 35
f 24 35 25
f 25 35 26
f 26 35 30
f 26 30 29
f 26 29 28
f 26 28 27
f 30 35 31

