# https://github.com/mikedh/trimesh
v -0.00049181 -0.02036215 0.03933437
v -0.00049181 -0.01465881 0.03929609
v 0.00084406 -0.01465881 0.03663589
v 0.00098717 -0.01530659 0.03663589
v 0.00110740 -0.01537213 0.03663589
v 0.00155367 -0.01561464 0.03663589
v 0.00173329 -0.01562666 0.03663589
v 0.00240086 -0.01567035 0.03663589
v 0.00240086 -0.02036215 0.03933437
v -0.00049181 -0.02036215 0.04752412
v -0.00049181 -0.01261277 0.03929609
v 0.00084406 -0.01296342 0.03663589
v 0.00305035 -0.01536230 0.03663589
v 0.00289065 -0.02036215 0.03937811
v -0.00014106 -0.02036215 0.04769909
v -0.00049181 -0.01685122 0.05046865
v -0.00049181 -0.01176617 0.03930156
v 0.00098717 -0.01222934 0.03663589
v -0.00049181 -0.00920234 0.03933437
v 0.00327607 -0.01465881 0.03663589
v 0.00311637 -0.02036215 0.03984699
v 0.00070649 -0.02036215 0.04773600
v 0.00240086 -0.01685122 0.05046865
v -0.00049181 -0.01635200 0.05051786
v 0.00143344 -0.01192457 0.03663589
v 0.00240086 -0.00920234 0.03933437
v 0.00240086 -0.01179020 0.03663589
v 0.00222124 -0.01180113 0.03663589
v 0.00155367 -0.01184264 0.03663589
v -0.00049181 -0.00920234 0.04855621
v 0.00327607 -0.01296342 0.03663589
v 0.00327607 -0.02036215 0.04069317
v 0.00155367 -0.02036215 0.04773600
v 0.00285672 -0.01682610 0.05045908
v 0.00240086 -0.01635200 0.05051786
v 0.00178124 -0.02036215 0.04772917
v 0.00240086 -0.02036215 0.04770866
v -0.00049181 -0.01296342 0.05059989
v 0.00289065 -0.00920234 0.03937811
v 0.00305035 -0.01217691 0.03663589
v -0.00049181 -0.01250353 0.05047959
v -0.00014106 -0.00920234 0.04868881
v 0.00311637 -0.00920234 0.03984699
v 0.00327607 -0.00920234 0.04069317
v 0.00327607 -0.02036215 0.04662462
v 0.00311047 -0.01635200 0.05001344
v 0.00288512 -0.01635200 0.05047822
v 0.00305035 -0.02036215 0.04736418
v 0.00240086 -0.01296342 0.05059989
v -0.00049181 -0.01269361 0.05053017
v 0.00070649 -0.00920234 0.04869427
v 0.00240086 -0.01250353 0.05047959
v 0.00327607 -0.00920234 0.04747217
v 0.00327607 -0.01635200 0.04831835
v 0.00327533 -0.01635200 0.04916589
v 0.00309609 -0.01296342 0.05001344
v 0.00292827 -0.01296342 0.05051923
v 0.00286078 -0.01251555 0.05046592
v 0.00155367 -0.00920234 0.04869427
v 0.00240086 -0.00920234 0.04867924
v 0.00192471 -0.00920234 0.04869017
v 0.00305035 -0.00920234 0.04828007
v 0.00321817 -0.01296342 0.04916589
v 0.00327607 -0.01296342 0.04831835
f 1 2 3
f 1 3 4
f 1 4 5
f 1 5 6
f 1 6 7
f 1 7 8
f 1 8 9
f 1 9 14
f 1 14 21
f 1 21 32
f 1 32 45
f 1 45 48
f 1 48 37
f 1 37 36
f 1 36 33
f 1 33 22
f 1 22 15
f 1 15 10
f 1 10 16
f 1 16 24
f 1 24 38
f 1 38 50
f 1 50 41
f 1 41 30
f 1 30 19
f 1 19 17
f 1 17 11
f 1 11 2
f 2 11 12
f 2 12 3
f 3 12 18
f 3 18 25
f 3 25 29
f 3 29 28
f 3 28 27
f 3 27 40
f 3 40 31
f 3 31 20
f 3 20 13
f 3 13 8
f 3 8 7
f 3 7 6
f 3 6 5
f 3 5 4
f 8 13 14
f 8 14 9
f 10 15 16
f 11 17 12
f 12 17 19
f 12 19 18
f 13 20 14
f 14 20 21
f 15 22 16
f 16 23 35
f 16 35 24
f 16 22 33
f 16 33 23
f 18 19 25
f 19 26 27
f 19 27 28
f 19 28 29
f 19 29 25
f 19 30 42
f 19 42 51
f 19 51 59
f 19 59 61
f 19 61 60
f 19 60 62
f 19 62 53
f 19 53 44
f 19 44 43
f 19 43 39
f 19 39 26
f 20 31 44
f 20 44 53
f 20 53 64
f 20 64 54
f 20 54 45
f 20 45 32
f 20 32 21
f 23 34 35
f 23 33 36
f 23 36 37
f 23 37 34
f 24 35 49
f 24 49 38
f 26 39 27
f 27 39 40
f 30 41 42
f 31 40 43
f 31 43 44
f 34 46 47
f 34 47 35
f 34 37 48
f 34 48 46
f 35 47 49
f 38 49 50
f 39 43 40
f 41 51 42
f 41 50 52
f 41 52 59
f 41 59 51
f 45 54 55
f 45 55 46
f 45 46 48
f 46 55 56
f 46 56 57
f 46 57 47
f 47 57 49
f 49 57 58
f 49 58 52
f 49 52 50
f 52 58 60
f 52 60 61
f 52 61 59
f 53 62 56
f 53 56 63
f 53 63 55
f 53 55 64
f 54 64 55
f 55 63 56
f 56 62 57
f 57 62 58
f 58 62 60

