# https://github.com/mikedh/trimesh
v -0.00008734 0.02665953 0.02221836
v -0.00008734 0.02809521 0.02372594
v -0.00008734 0.03168193 0.02221836
v 0.00056005 0.00737468 0.02221836
v -0.00008734 0.03227309 0.02372594
v 0.00084403 0.01244180 0.02372594
v 0.00039617 0.03259848 0.02372594
v 0.00070642 0.03273013 0.02372594
v 0.00070642 0.03177135 0.02221836
v 0.00630212 0.00737468 0.02221836
v 0.00096975 0.00737468 0.02268920
v 0.00096850 0.01157244 0.02372594
v 0.00096475 0.01159728 0.02372594
v 0.00155397 0.03275000 0.02372594
v 0.00324844 0.03177135 0.02221836
v 0.00630212 0.00737468 0.02286322
v 0.00630212 0.02841563 0.02221836
v 0.00155397 0.00737468 0.02294824
v 0.00097538 0.01155009 0.02372594
v 0.00240151 0.03275000 0.02372594
v 0.00324844 0.03273758 0.02372594
v 0.00386017 0.03164964 0.02221836
v 0.00467395 0.01647314 0.02372594
v 0.00467332 0.01477665 0.02372594
v 0.00467270 0.01330867 0.02372594
v 0.00467144 0.01245918 0.02372594
v 0.00579046 0.00737468 0.02306603
v 0.00630212 0.01924018 0.02286440
v 0.00386643 0.03164467 0.02221836
v 0.00399153 0.03180861 0.02289776
v 0.00404219 0.03212903 0.02372594
v 0.00630212 0.02832621 0.02268256
v 0.00155397 0.01104586 0.02372594
v 0.00129126 0.01116508 0.02372594
v 0.00467395 0.02347271 0.02372594
v 0.00440436 0.01158734 0.02372594
v 0.00412413 0.01129176 0.02372594
v 0.00324844 0.01099866 0.02372594
v 0.00261606 0.01097879 0.02372594
v 0.00240151 0.01097631 0.02372594
v 0.00181605 0.01102102 0.02372594
v 0.00630212 0.01981892 0.02286440
v 0.00408723 0.03201477 0.02372594
v 0.00630212 0.02819456 0.02273939
v 0.00467332 0.02686320 0.02372594
v 0.00630212 0.02686320 0.02286337
v 0.00437496 0.03110070 0.02372594
v 0.00630212 0.02771021 0.02285510
v 0.00466456 0.02771021 0.02372594
v 0.00630212 0.02744692 0.02285850
f 1 2 5
f 1 5 3
f 1 3 9
f 1 9 15
f 1 15 22
f 1 22 29
f 1 29 17
f 1 17 10
f 1 10 4
f 1 4 2
f 2 4 6
f 2 6 13
f 2 13 12
f 2 12 19
f 2 19 34
f 2 34 33
f 2 33 41
f 2 41 40
f 2 40 39
f 2 39 38
f 2 38 37
f 2 37 36
f 2 36 26
f 2 26 25
f 2 25 24
f 2 24 23
f 2 23 35
f 2 35 45
f 2 45 49
f 2 49 47
f 2 47 43
f 2 43 31
f 2 31 21
f 2 21 20
f 2 20 14
f 2 14 8
f 2 8 7
f 2 7 5
f 3 5 7
f 3 7 8
f 3 8 9
f 4 10 16
f 4 16 27
f 4 27 18
f 4 18 11
f 4 11 12
f 4 12 13
f 4 13 6
f 8 14 9
f 9 14 20
f 9 20 15
f 10 17 32
f 10 32 44
f 10 44 48
f 10 48 50
f 10 50 46
f 10 46 42
f 10 42 28
f 10 28 16
f 11 18 19
f 11 19 12
f 15 20 21
f 15 21 22
f 16 23 24
f 16 24 25
f 16 25 26
f 16 26 27
f 16 28 23
f 17 29 30
f 17 30 31
f 17 31 32
f 18 27 33
f 18 33 34
f 18 34 19
f 21 31 22
f 22 31 29
f 23 28 42
f 23 42 35
f 26 36 27
f 27 36 37
f 27 37 38
f 27 38 39
f 27 39 40
f 27 40 41
f 27 41 33
f 29 31 30
f 31 43 32
f 32 43 44
f 35 42 45
f 42 46 45
f 43 47 44
f 44 47 48
f 45 46 49
f 46 50 49
f 47 49 48
f 48 49 50

