# https://github.com/mikedh/trimesh
v 0.00327607 -0.00222611 0.04747198
v 0.00327607 -0.00222611 0.04529023
v 0.00326040 -0.00222611 0.04831943
v 0.00327607 -0.00920234 0.04747198
v 0.00327607 -0.00920234 0.04529023
v 0.00003177 -0.00222611 0.04529023
v 0.00306719 -0.00222611 0.04911115
v 0.00305004 -0.00920234 0.04828009
v 0.00059499 -0.00920234 0.04529023
v -0.00354524 -0.00222611 0.04674459
v 0.00240103 -0.00222611 0.04944227
v 0.00284713 -0.00772856 0.04875750
v 0.00240103 -0.00920234 0.04867923
v -0.00088207 -0.00920234 0.04688515
v -0.00395852 -0.00407073 0.04704579
v -0.00370265 -0.00222611 0.04681999
v 0.00159014 -0.00222611 0.04947546
v 0.00155358 -0.00222611 0.04947669
v 0.00192434 -0.00920234 0.04869111
v -0.00118121 -0.00920234 0.04747198
v -0.00405774 -0.00417522 0.04747198
v -0.00411742 -0.00368624 0.04739903
v -0.00418456 -0.00222611 0.04741911
v -0.00396449 -0.00222611 0.04695277
v 0.00155358 -0.00920234 0.04869480
v -0.00183544 -0.00222611 0.04947669
v -0.00113869 -0.00920234 0.04766007
v -0.00411891 -0.00424420 0.04831943
v -0.00429422 -0.00364185 0.04831943
v -0.00432704 -0.00279500 0.04831943
v -0.00434494 -0.00222611 0.04831943
v 0.00070614 -0.00920234 0.04869480
v -0.00268288 -0.00222611 0.04947628
v -0.00093951 -0.00920234 0.04832312
v -0.00404058 -0.00416293 0.04881446
v -0.00409429 -0.00364185 0.04886282
v -0.00417187 -0.00222611 0.04910542
v -0.00423528 -0.00222611 0.04891199
v -0.00014130 -0.00920234 0.04868866
v -0.00353033 -0.00222611 0.04943202
v -0.00064037 -0.00920234 0.04849974
v -0.00353629 -0.00222611 0.04942997
f 1 2 6
f 1 6 10
f 1 10 16
f 1 16 24
f 1 24 23
f 1 23 31
f 1 31 38
f 1 38 37
f 1 37 42
f 1 42 40
f 1 40 33
f 1 33 26
f 1 26 18
f 1 18 17
f 1 17 11
f 1 11 7
f 1 7 3
f 1 3 4
f 1 4 5
f 1 5 2
f 2 5 9
f 2 9 6
f 3 7 4
f 4 7 8
f 4 8 13
f 4 13 19
f 4 19 25
f 4 25 32
f 4 32 39
f 4 39 41
f 4 41 34
f 4 34 27
f 4 27 20
f 4 20 14
f 4 14 9
f 4 9 5
f 6 9 10
f 7 11 12
f 7 12 8
f 8 12 13
f 9 14 15
f 9 15 10
f 10 15 16
f 11 17 13
f 11 13 12
f 13 17 18
f 13 18 19
f 14 20 15
f 15 20 21
f 15 21 22
f 15 22 23
f 15 23 24
f 15 24 16
f 18 25 19
f 18 26 32
f 18 32 25
f 20 27 28
f 20 28 21
f 21 28 29
f 21 29 22
f 22 29 23
f 23 29 30
f 23 30 31
f 26 33 32
f 27 34 35
f 27 35 28
f 28 35 29
f 29 35 36
f 29 36 37
f 29 37 38
f 29 38 30
f 30 38 31
f 32 33 39
f 33 40 39
f 34 41 35
f 35 40 42
f 35 42 37
f 35 37 36
f 35 41 39
f 35 39 40

