# https://github.com/mikedh/trimesh
v -0.00715607 0.01245918 0.01950827
v -0.00714817 0.00737713 0.01866082
v -0.00715607 0.01245918 0.02035527
v -0.00715607 0.02686321 0.01950827
v -0.00681882 0.00737713 0.01793580
v -0.00688733 0.00737713 0.01950827
v -0.00704409 0.01245918 0.02120272
v -0.00714817 0.02347273 0.01866082
v -0.00714026 0.02872613 0.02221821
v -0.00715475 0.02855722 0.02205017
v -0.00715607 0.02771021 0.02120272
v -0.00715607 0.02940668 0.02120272
v -0.00715475 0.02855722 0.02035527
v -0.00711655 0.02771021 0.01950827
v -0.00711523 0.02516919 0.01866082
v -0.00714026 0.02432218 0.01866082
v -0.00607188 0.00737713 0.01763404
v -0.00681882 0.02347273 0.01793580
v -0.00655799 0.00737713 0.01997175
v -0.00661858 0.01161217 0.02169601
v -0.00687547 0.01161217 0.02120272
v -0.00671343 0.01245918 0.02174616
v -0.00713631 0.02855722 0.02221821
v -0.00705727 0.03042015 0.02221821
v -0.00700984 0.03025368 0.02120272
v -0.00705331 0.02940668 0.02035527
v -0.00685966 0.02860373 0.01944413
v -0.00678589 0.02771021 0.01880357
v -0.00706385 0.02601620 0.01866082
v -0.00681092 0.02432218 0.01796245
v 0.00630212 0.00737713 0.01763404
v -0.00607188 0.02347273 0.01763404
v -0.00001069 0.02601620 0.01760332
v 0.00027913 0.02515695 0.01760332
v 0.00067961 0.02465511 0.01760332
v 0.00242248 0.02375669 0.01760332
v 0.00324847 0.02365143 0.01760332
v 0.00578966 0.02350700 0.01760332
v 0.00627182 0.02350455 0.01760332
v -0.00401679 0.00737713 0.02169240
v -0.00651451 0.01117643 0.02163955
v -0.00607188 0.01245918 0.02186586
v -0.00353068 0.00737713 0.02181211
v -0.00701511 0.02787912 0.02221821
v -0.00684517 0.03112762 0.02221821
v -0.00671080 0.03020472 0.02041671
v -0.00680170 0.03113496 0.02205107
v -0.00668050 0.03084610 0.02120272
v -0.00672397 0.02940668 0.01970704
v -0.00666338 0.02835159 0.01897071
v -0.00663176 0.02666492 0.01816392
v -0.00684122 0.02691461 0.01858900
v -0.00673451 0.02601620 0.01809255
v -0.00678457 0.02516919 0.01802388
v -0.00607188 0.02432218 0.01768779
v 0.00630212 0.00737713 0.02221821
v 0.00630212 0.02350455 0.01760332
v 0.00097602 0.02983263 0.01760332
v 0.00070991 0.02944584 0.01760332
v 0.00034368 0.02855722 0.01760332
v 0.00008416 0.02688524 0.01760332
v 0.00055973 0.00737713 0.02221821
v -0.00673978 0.02712025 0.02221821
v -0.00678326 0.03123533 0.02221821
v -0.00658038 0.02988893 0.01988005
v -0.00655008 0.03070412 0.02073970
v -0.00668709 0.03139690 0.02221821
v 0.00164128 0.03028551 0.01760332
v -0.00607188 0.02601620 0.01794799
v -0.00607188 0.02516919 0.01781021
v 0.00147530 0.03017290 0.01760332
v 0.00630212 0.02841769 0.02221821
v 0.00630212 0.03081428 0.01760332
v 0.00270967 0.03077756 0.01760332
v -0.00648158 0.03154133 0.02221821
v 0.00442487 0.03157316 0.01817567
v 0.00630212 0.03233448 0.01994736
v 0.00386631 0.03164415 0.02221821
v 0.00599385 0.03088772 0.01760332
v 0.00630212 0.03081673 0.01760558
v 0.00411134 0.03101011 0.01760332
v -0.00607188 0.03158784 0.02221821
v 0.00574092 0.03231000 0.01955435
v 0.00578439 0.03184733 0.01859171
v 0.00494260 0.03157560 0.01817431
v 0.00494260 0.03118392 0.01775058
v 0.00494260 0.03104683 0.01760332
v 0.00630212 0.03236141 0.01983217
v 0.00626523 0.03238099 0.01994148
v 0.00385972 0.03164904 0.02221821
v 0.00572379 0.03093178 0.01760332
v 0.00582786 0.03110804 0.01780750
v 0.00606236 0.03149972 0.01826330
v 0.00630212 0.03129653 0.01810655
v 0.00070596 0.03177144 0.02221821
v 0.00598990 0.03238099 0.01994148
v 0.00598990 0.03238099 0.01986740
v 0.00626523 0.03238099 0.01986740
v 0.00630212 0.03201135 0.01905564
v 0.00630212 0.03183754 0.01869154
v 0.00549721 0.03154623 0.01821497
v 0.00518104 0.03101256 0.01760332
v 0.00324847 0.03177144 0.02221821
v 0.00630212 0.03147279 0.01829221
f 1 2 3
f 1 3 11
f 1 11 12
f 1 12 4
f 1 4 8
f 1 8 2
f 2 5 17
f 2 17 31
f 2 31 56
f 2 56 62
f 2 62 43
f 2 43 40
f 2 40 19
f 2 19 6
f 2 6 7
f 2 7 3
f 2 8 18
f 2 18 5
f 3 7 9
f 3 9 10
f 3 10 11
f 4 12 13
f 4 13 14
f 4 14 15
f 4 15 16
f 4 16 8
f 5 18 32
f 5 32 17
f 6 19 20
f 6 20 21
f 6 21 7
f 7 21 20
f 7 20 22
f 7 22 23
f 7 23 9
f 8 16 18
f 9 12 10
f 9 23 44
f 9 44 63
f 9 63 62
f 9 62 56
f 9 56 72
f 9 72 78
f 9 78 90
f 9 90 103
f 9 103 95
f 9 95 82
f 9 82 75
f 9 75 67
f 9 67 64
f 9 64 45
f 9 45 24
f 9 24 12
f 10 12 11
f 12 24 25
f 12 25 26
f 12 26 13
f 13 26 14
f 14 26 27
f 14 27 28
f 14 28 29
f 14 29 15
f 15 30 16
f 15 29 30
f 16 30 18
f 17 32 33
f 17 33 34
f 17 34 35
f 17 35 36
f 17 36 37
f 17 37 38
f 17 38 39
f 17 39 57
f 17 57 31
f 18 30 32
f 19 40 41
f 19 41 20
f 20 42 22
f 20 41 40
f 20 40 43
f 20 43 42
f 22 42 44
f 22 44 23
f 24 45 25
f 25 46 26
f 25 45 47
f 25 47 48
f 25 48 46
f 26 46 49
f 26 49 27
f 27 50 28
f 27 49 50
f 28 50 51
f 28 51 52
f 28 52 29
f 29 52 53
f 29 53 54
f 29 54 30
f 30 54 55
f 30 55 32
f 31 57 73
f 31 73 80
f 31 80 94
f 31 94 104
f 31 104 100
f 31 100 99
f 31 99 88
f 31 88 77
f 31 77 72
f 31 72 56
f 32 55 58
f 32 58 59
f 32 59 60
f 32 60 61
f 32 61 33
f 33 61 60
f 33 60 59
f 33 59 58
f 33 58 71
f 33 71 68
f 33 68 74
f 33 74 81
f 33 81 87
f 33 87 102
f 33 102 91
f 33 91 79
f 33 79 73
f 33 73 57
f 33 57 39
f 33 39 38
f 33 38 37
f 33 37 36
f 33 36 35
f 33 35 34
f 42 43 62
f 42 62 63
f 42 63 44
f 45 64 47
f 46 65 49
f 46 48 66
f 46 66 65
f 47 64 67
f 47 67 48
f 48 67 66
f 49 65 50
f 50 65 68
f 50 68 51
f 51 69 70
f 51 70 53
f 51 53 52
f 51 68 71
f 51 71 58
f 51 58 69
f 53 70 55
f 53 55 54
f 55 70 58
f 58 70 69
f 65 66 74
f 65 74 68
f 66 67 75
f 66 75 76
f 66 76 74
f 72 77 78
f 73 79 80
f 74 76 81
f 75 82 83
f 75 83 76
f 76 83 84
f 76 84 85
f 76 85 86
f 76 86 87
f 76 87 81
f 77 88 89
f 77 89 78
f 78 89 90
f 79 91 92
f 79 92 93
f 79 93 94
f 79 94 80
f 82 95 96
f 82 96 97
f 82 97 83
f 83 97 98
f 83 98 88
f 83 88 99
f 83 99 84
f 84 99 100
f 84 100 93
f 84 93 101
f 84 101 85
f 85 101 86
f 86 101 87
f 87 101 102
f 88 98 89
f 89 98 97
f 89 97 96
f 89 96 95
f 89 95 103
f 89 103 90
f 91 102 101
f 91 101 92
f 92 101 93
f 93 100 104
f 93 104 94

