# https://github.com/mikedh/trimesh
v 0.01294184 -0.02997401 0.02287136
v 0.01321100 -0.03147413 0.02683139
v 0.01321100 -0.03023373 0.02353886
v 0.01294184 -0.03288267 0.02287136
v 0.00630279 -0.03134456 0.02287136
v 0.01321100 -0.03435111 0.02683139
v 0.00630212 -0.03330593 0.02683139
v 0.01321100 -0.03308883 0.02353886
v 0.01294184 -0.03299209 0.02308378
v 0.01255569 -0.03307156 0.02289772
v 0.01254081 -0.03306465 0.02287136
v 0.00630279 -0.03468396 0.02287136
v 0.00630212 -0.03245596 0.02353886
v 0.01280726 -0.03450659 0.02683139
v 0.01282214 -0.03365490 0.02436607
v 0.01321100 -0.03409255 0.02608056
v 0.00630212 -0.03585698 0.02683139
v 0.01321100 -0.03316600 0.02369430
v 0.01255163 -0.03350633 0.02377338
v 0.01188346 -0.03363763 0.02350979
v 0.01164947 -0.03345738 0.02297447
v 0.01165894 -0.03339922 0.02287136
v 0.00630279 -0.03470642 0.02293222
v 0.00630212 -0.03492236 0.02353886
v 0.00650432 -0.03466035 0.02287136
v 0.00663823 -0.03469547 0.02300781
v 0.01239203 -0.03464711 0.02683139
v 0.01226556 -0.03461198 0.02658409
v 0.01255704 -0.03441503 0.02629608
v 0.01255163 -0.03384724 0.02462655
v 0.01321100 -0.03319364 0.02375128
v 0.01321100 -0.03354664 0.02454980
v 0.01321100 -0.03378619 0.02520490
v 0.01225610 -0.03376489 0.02407495
v 0.00633525 -0.03585468 0.02683139
v 0.00630212 -0.03584892 0.02679806
v 0.01190240 -0.03364453 0.02353886
v 0.01131877 -0.03372976 0.02330783
v 0.01132012 -0.03351727 0.02287136
v 0.00630212 -0.03499780 0.02374547
v 0.00663823 -0.03464019 0.02287136
v 0.00673223 -0.03463962 0.02290509
v 0.00673223 -0.03468857 0.02302642
v 0.00673223 -0.03471218 0.02308921
v 0.00663823 -0.03488493 0.02353848
v 0.01171101 -0.03484750 0.02683139
v 0.01018126 -0.03450544 0.02439397
v 0.01195312 -0.03452042 0.02601892
v 0.01172116 -0.03411328 0.02459283
v 0.01087378 -0.03405973 0.02374547
v 0.01164947 -0.03382938 0.02377338
v 0.00663823 -0.03582992 0.02683139
v 0.00630212 -0.03572050 0.02628716
v 0.00663823 -0.03569344 0.02628716
v 0.01185777 -0.03365893 0.02353886
v 0.01087445 -0.03380002 0.02315666
v 0.01062152 -0.03374646 0.02287136
v 0.01098198 -0.03363014 0.02287136
v 0.00630212 -0.03515098 0.02425714
v 0.00663823 -0.03495864 0.02374547
v 0.00673223 -0.03462580 0.02287136
v 0.00705008 -0.03457685 0.02287136
v 0.00748561 -0.03463328 0.02317643
v 0.00673223 -0.03487226 0.02353848
v 0.00724823 -0.03480201 0.02353886
v 0.01141818 -0.03492582 0.02683139
v 0.01087378 -0.03506863 0.02683139
v 0.01057080 -0.03514580 0.02683139
v 0.00949146 -0.03539917 0.02678449
v 0.00961725 -0.03457455 0.02416140
v 0.00994998 -0.03435629 0.02382571
v 0.01068577 -0.03402575 0.02353886
v 0.00718263 -0.03576427 0.02683139
v 0.00630212 -0.03525348 0.02461570
v 0.00663823 -0.03521202 0.02459283
v 0.00727596 -0.03545906 0.02572587
v 0.00750049 -0.03572223 0.02683139
v 0.01004263 -0.03392555 0.02287136
v 0.00748561 -0.03484290 0.02374547
v 0.00748561 -0.03510721 0.02459283
v 0.00748561 -0.03450026 0.02287136
v 0.00799011 -0.03458721 0.02328419
v 0.00748561 -0.03476688 0.02353886
v 0.00958073 -0.03539111 0.02683139
v 0.00951986 -0.03540609 0.02683139
v 0.00944682 -0.03541818 0.02683139
v 0.00892676 -0.03544582 0.02662207
v 0.00833299 -0.03495634 0.02459283
v 0.00918037 -0.03461946 0.02403464
v 0.00855481 -0.03452963 0.02343226
v 0.00892812 -0.03448874 0.02353886
v 0.00918037 -0.03446110 0.02361096
v 0.00918104 -0.03443173 0.02353886
v 0.00971328 -0.03429871 0.02353886
v 0.00752957 -0.03555811 0.02622785
v 0.00976806 -0.03399984 0.02287136
v 0.00816595 -0.03464711 0.02353886
v 0.00829647 -0.03469029 0.02372725
v 0.00759922 -0.03447895 0.02287136
v 0.00829715 -0.03438624 0.02296013
v 0.00918104 -0.03416914 0.02289850
v 0.00918104 -0.03415763 0.02287136
v 0.00795021 -0.03441215 0.02287136
v 0.00829647 -0.03434190 0.02287136
f 1 2 3
f 1 3 8
f 1 8 4
f 1 4 11
f 1 11 22
f 1 22 39
f 1 39 58
f 1 58 57
f 1 57 78
f 1 78 96
f 1 96 102
f 1 102 104
f 1 104 103
f 1 103 99
f 1 99 81
f 1 81 62
f 1 62 61
f 1 61 41
f 1 41 25
f 1 25 12
f 1 12 5
f 1 5 2
f 2 6 16
f 2 16 33
f 2 33 32
f 2 32 31
f 2 31 18
f 2 18 8
f 2 8 3
f 2 5 7
f 2 7 17
f 2 17 35
f 2 35 52
f 2 52 73
f 2 73 77
f 2 77 86
f 2 86 85
f 2 85 84
f 2 84 68
f 2 68 67
f 2 67 66
f 2 66 46
f 2 46 27
f 2 27 14
f 2 14 6
f 4 8 9
f 4 9 10
f 4 10 11
f 5 12 24
f 5 24 13
f 5 13 7
f 6 14 15
f 6 15 16
f 7 13 24
f 7 24 40
f 7 40 59
f 7 59 74
f 7 74 53
f 7 53 36
f 7 36 17
f 8 18 9
f 9 18 19
f 9 19 10
f 10 19 11
f 11 19 20
f 11 20 21
f 11 21 22
f 12 23 24
f 12 25 26
f 12 26 23
f 14 27 28
f 14 28 29
f 14 29 30
f 14 30 15
f 15 31 32
f 15 32 33
f 15 33 16
f 15 30 34
f 15 34 19
f 15 19 31
f 17 36 35
f 18 31 19
f 19 34 37
f 19 37 20
f 20 37 38
f 20 38 21
f 21 38 39
f 21 39 22
f 23 40 24
f 23 26 40
f 25 41 26
f 26 41 42
f 26 42 43
f 26 43 44
f 26 44 45
f 26 45 40
f 27 46 28
f 28 46 47
f 28 47 48
f 28 48 49
f 28 49 34
f 28 34 29
f 29 34 30
f 34 49 47
f 34 47 50
f 34 50 51
f 34 51 37
f 35 36 53
f 35 53 54
f 35 54 52
f 37 51 55
f 37 55 38
f 38 55 51
f 38 51 50
f 38 50 56
f 38 56 57
f 38 57 58
f 38 58 39
f 40 45 60
f 40 60 59
f 41 61 42
f 42 61 62
f 42 62 63
f 42 63 43
f 43 63 44
f 44 64 45
f 44 63 65
f 44 65 64
f 45 64 60
f 46 66 47
f 47 66 67
f 47 67 68
f 47 68 69
f 47 69 70
f 47 70 71
f 47 71 50
f 47 49 48
f 50 72 56
f 50 71 72
f 52 54 73
f 53 74 54
f 54 74 75
f 54 75 76
f 54 76 77
f 54 77 73
f 56 72 78
f 56 78 57
f 59 60 75
f 59 75 74
f 60 64 65
f 60 65 79
f 60 79 80
f 60 80 75
f 62 81 63
f 63 81 82
f 63 82 83
f 63 83 65
f 65 83 79
f 68 84 69
f 69 84 85
f 69 85 86
f 69 86 87
f 69 87 80
f 69 80 88
f 69 88 70
f 70 88 89
f 70 89 90
f 70 90 91
f 70 91 92
f 70 92 71
f 71 92 93
f 71 93 94
f 71 94 78
f 71 78 72
f 75 80 76
f 76 80 87
f 76 87 95
f 76 95 77
f 77 95 87
f 77 87 86
f 78 94 96
f 79 83 82
f 79 82 97
f 79 97 98
f 79 98 88
f 79 88 80
f 81 99 82
f 82 100 90
f 82 90 97
f 82 99 100
f 88 98 89
f 89 98 90
f 90 98 97
f 90 100 101
f 90 101 93
f 90 93 91
f 91 93 92
f 93 101 94
f 94 101 102
f 94 102 96
f 99 103 100
f 100 103 104
f 100 104 102
f 100 102 101

