# https://github.com/mikedh/trimesh
v 0.00918005 -0.01550823 0.08193117
v 0.00912108 -0.01550823 0.08194769
v 0.00994022 -0.01550823 0.08221786
v 0.00996273 -0.01971279 0.08240446
v 0.00993486 -0.01971279 0.08239571
v 0.00918005 -0.01971279 0.08216830
v 0.00409687 -0.01804743 0.08280389
v 0.00409687 -0.01720034 0.08289233
v 0.00409687 -0.01635284 0.08302936
v 0.00853353 -0.01550823 0.08222272
v 0.00362297 -0.01587661 0.08339574
v 0.00409687 -0.01582228 0.08330633
v 0.01411634 -0.01550823 0.08645610
v 0.01410562 -0.01635284 0.08645610
v 0.01409382 -0.01720034 0.08645610
v 0.01408096 -0.01804743 0.08645707
v 0.01406702 -0.01889492 0.08645707
v 0.01405201 -0.01971279 0.08645805
v 0.00914895 -0.01971279 0.08217802
v 0.00409687 -0.01937033 0.08330245
v 0.00409687 -0.01889492 0.08293606
v 0.00360581 -0.01889492 0.08327523
v 0.00357043 -0.01804743 0.08320526
v 0.00357043 -0.01720034 0.08325677
v 0.00358437 -0.01635284 0.08331314
v 0.00623264 -0.01550823 0.08390791
v 0.00346750 -0.01720034 0.08391082
v 0.00356078 -0.01630839 0.08394290
v 0.00362297 -0.01587661 0.08368147
v 0.01436723 -0.01550823 0.08729967
v 0.01434150 -0.01635284 0.08729967
v 0.01431469 -0.01720034 0.08729967
v 0.01428789 -0.01804743 0.08729967
v 0.01422892 -0.01971279 0.08729967
v 0.00843596 -0.01971279 0.08240543
v 0.00365191 -0.01933823 0.08341324
v 0.00661648 -0.01971279 0.08319554
v 0.00346750 -0.01804743 0.08391082
v 0.00644386 -0.01550823 0.09185959
v 0.00341389 -0.01804743 0.09185959
v 0.00346750 -0.01720034 0.08475828
v 0.00346965 -0.01720034 0.08560573
v 0.00356078 -0.01715836 0.09185959
v 0.00366156 -0.01676610 0.09134645
v 0.00374948 -0.01677639 0.09185959
v 0.01430611 -0.01550823 0.08814712
v 0.01402949 -0.01971279 0.08981287
v 0.01409490 -0.01971279 0.08899457
v 0.00409687 -0.01966504 0.09185959
v 0.00377307 -0.01954279 0.09185959
v 0.00355756 -0.01945059 0.09185959
v 0.00348787 -0.01923203 0.09185959
v 0.00342247 -0.01889492 0.09185959
v 0.00357794 -0.01889698 0.08386320
v 0.00613614 -0.01971279 0.08357165
v 0.00341818 -0.01857223 0.09185959
v 0.01370033 -0.01550823 0.09185959
v 0.00367658 -0.01683977 0.09185959
v 0.01416459 -0.01550823 0.08984203
v 0.01402628 -0.01971279 0.08984203
v 0.00441852 -0.01969838 0.09185959
v 0.00457506 -0.01971279 0.09185959
v 0.01369390 -0.01574243 0.09185959
v 0.01375716 -0.01550823 0.09165744
v 0.01401877 -0.01550823 0.09068948
v 0.01391370 -0.01971279 0.09054176
v 0.01391799 -0.01971279 0.09051649
v 0.01355988 -0.01971279 0.09185959
v 0.01366603 -0.01662862 0.09185959
v 0.01374537 -0.01635284 0.09160594
v 0.01387403 -0.01550823 0.09123372
v 0.01384830 -0.01699495 0.09114139
v 0.01393836 -0.01724685 0.09076917
v 0.01394265 -0.01804743 0.09064963
v 0.01380112 -0.01971279 0.09096549
v 0.01364780 -0.01971279 0.09153694
v 0.01357703 -0.01921721 0.09185959
v 0.01383865 -0.01756009 0.09110446
v 0.01383007 -0.01804743 0.09107336
f 1 2 10
f 1 10 26
f 1 26 39
f 1 39 57
f 1 57 64
f 1 64 71
f 1 71 65
f 1 65 59
f 1 59 46
f 1 46 30
f 1 30 13
f 1 13 3
f 1 3 4
f 1 4 5
f 1 5 6
f 1 6 7
f 1 7 8
f 1 8 9
f 1 9 2
f 2 9 11
f 2 11 12
f 2 12 10
f 3 13 14
f 3 14 15
f 3 15 16
f 3 16 17
f 3 17 18
f 3 18 4
f 4 18 34
f 4 34 48
f 4 48 47
f 4 47 60
f 4 60 67
f 4 67 66
f 4 66 75
f 4 75 76
f 4 76 68
f 4 68 62
f 4 62 55
f 4 55 37
f 4 37 35
f 4 35 19
f 4 19 6
f 4 6 5
f 6 19 20
f 6 20 21
f 6 21 7
f 7 21 22
f 7 22 23
f 7 23 24
f 7 24 25
f 7 25 8
f 8 25 9
f 9 25 11
f 10 12 26
f 11 25 27
f 11 27 28
f 11 28 29
f 11 29 26
f 11 26 12
f 13 30 14
f 14 30 15
f 15 30 16
f 16 30 17
f 17 30 18
f 18 30 31
f 18 31 32
f 18 32 33
f 18 33 34
f 19 35 20
f 20 36 21
f 20 35 37
f 20 37 36
f 21 36 22
f 22 38 23
f 22 36 38
f 23 38 27
f 23 27 24
f 24 27 25
f 26 29 39
f 27 38 40
f 27 40 41
f 27 41 28
f 28 41 42
f 28 42 40
f 28 40 29
f 29 40 43
f 29 43 44
f 29 44 45
f 29 45 39
f 30 46 31
f 31 46 32
f 32 46 33
f 33 46 47
f 33 47 48
f 33 48 34
f 36 49 50
f 36 50 51
f 36 51 52
f 36 52 53
f 36 53 54
f 36 54 38
f 36 37 55
f 36 55 49
f 38 53 56
f 38 56 40
f 38 54 53
f 39 45 58
f 39 58 43
f 39 43 40
f 39 40 56
f 39 56 53
f 39 53 52
f 39 52 51
f 39 51 50
f 39 50 49
f 39 49 61
f 39 61 62
f 39 62 68
f 39 68 77
f 39 77 69
f 39 69 63
f 39 63 57
f 40 42 41
f 43 58 44
f 44 58 45
f 46 59 47
f 47 59 60
f 49 55 61
f 55 62 61
f 57 63 64
f 59 65 66
f 59 66 67
f 59 67 60
f 63 69 70
f 63 70 64
f 64 70 71
f 65 71 72
f 65 72 73
f 65 73 74
f 65 74 66
f 66 74 79
f 66 79 75
f 68 76 70
f 68 70 77
f 69 77 70
f 70 72 71
f 70 76 72
f 72 76 78
f 72 78 74
f 72 74 73
f 74 78 79
f 75 79 76
f 76 79 78

