# https://github.com/mikedh/trimesh
v 0.00630212 0.01515436 0.01442372
v 0.00630212 0.01528375 0.01524127
v 0.00630212 0.01519749 0.01413058
v 0.01228926 0.01096887 0.01420184
v 0.01228926 0.01095949 0.01442372
v 0.01228926 0.01104575 0.01502263
v 0.00630212 0.01538501 0.01561216
v 0.00630212 0.01529125 0.01386399
v 0.01228926 0.01107201 0.01394530
v 0.01228926 0.01139642 0.01544307
v 0.00630212 0.01551253 0.01570253
v 0.01202436 0.01193836 0.01571840
v 0.00630212 0.01544690 0.01379014
v 0.01228926 0.01117327 0.01386076
v 0.01228926 0.01179772 0.01572714
v 0.00630212 0.02405979 0.01684302
v 0.00630212 0.01583132 0.01364762
v 0.01228926 0.01189335 0.01363725
v 0.01228926 0.02191828 0.01684302
v 0.00630212 0.03011300 0.01684302
v 0.00630212 0.01618573 0.01356114
v 0.00663851 0.01585007 0.01357895
v 0.01228926 0.01245967 0.01356373
v 0.01228926 0.02788524 0.01684302
v 0.00652071 0.03006800 0.01684302
v 0.00630212 0.02804276 0.01409916
v 0.00630212 0.01669767 0.01353425
v 0.00748595 0.01585007 0.01353425
v 0.01228926 0.01274095 0.01353425
v 0.01228926 0.02567810 0.01409494
v 0.01220545 0.02562747 0.01397283
v 0.01175185 0.02818715 0.01684302
v 0.00748595 0.02982984 0.01684302
v 0.00663851 0.02799587 0.01415714
v 0.00874655 0.02728329 0.01400392
v 0.00818160 0.02736955 0.01393396
v 0.00748595 0.02746331 0.01386982
v 0.00630212 0.02786274 0.01395469
v 0.00630212 0.02601564 0.01353425
v 0.01228926 0.02347472 0.01353425
v 0.01228926 0.02559934 0.01400004
v 0.01172196 0.02574749 0.01389574
v 0.01054106 0.02648257 0.01396473
v 0.01110543 0.02633068 0.01411729
v 0.01228926 0.02550371 0.01393882
v 0.01228926 0.02533306 0.01385914
v 0.01154204 0.02829404 0.01684302
v 0.00828826 0.02959919 0.01684302
v 0.00748595 0.02788711 0.01431618
v 0.01002767 0.02658758 0.01389509
v 0.00918082 0.02676385 0.01381411
v 0.00833338 0.02958606 0.01684302
v 0.00843067 0.02955419 0.01684302
v 0.00913042 0.02932166 0.01684302
v 0.00928983 0.02926540 0.01684302
v 0.01002767 0.02898224 0.01684302
v 0.00663851 0.02757208 0.01381735
v 0.00630212 0.02764708 0.01381444
v 0.00841192 0.02694575 0.01378107
v 0.00748595 0.02686324 0.01363661
v 0.00630212 0.02635318 0.01354106
v 0.00748595 0.02601564 0.01353425
v 0.01087452 0.02432232 0.01353425
v 0.01228926 0.02375413 0.01353652
v 0.01084405 0.02603627 0.01382351
v 0.01228926 0.02516617 0.01379371
v 0.01172196 0.02516804 0.01366997
v 0.01084405 0.02669072 0.01440946
v 0.01091613 0.02859782 0.01684302
v 0.01104565 0.02853594 0.01684302
v 0.01002767 0.02601564 0.01366835
v 0.00630212 0.02721578 0.01367256
v 0.00918082 0.02601564 0.01358122
v 0.00663851 0.02686324 0.01358446
v 0.00630212 0.02686324 0.01357150
v 0.00833338 0.02601564 0.01354299
v 0.01002767 0.02516804 0.01354040
v 0.01172196 0.02432232 0.01354138
v 0.01228926 0.02432232 0.01357571
v 0.01228926 0.02460173 0.01361847
v 0.01087452 0.02516804 0.01357280
f 1 2 7
f 1 7 11
f 1 11 16
f 1 16 20
f 1 20 26
f 1 26 38
f 1 38 58
f 1 58 72
f 1 72 75
f 1 75 61
f 1 61 39
f 1 39 27
f 1 27 21
f 1 21 17
f 1 17 13
f 1 13 8
f 1 8 3
f 1 3 4
f 1 4 5
f 1 5 6
f 1 6 2
f 2 6 7
f 3 8 4
f 4 9 14
f 4 14 18
f 4 18 23
f 4 23 29
f 4 29 40
f 4 40 64
f 4 64 79
f 4 79 80
f 4 80 66
f 4 66 46
f 4 46 45
f 4 45 41
f 4 41 30
f 4 30 24
f 4 24 19
f 4 19 15
f 4 15 10
f 4 10 6
f 4 6 5
f 4 8 9
f 6 10 7
f 7 10 12
f 7 12 11
f 8 13 14
f 8 14 9
f 10 15 12
f 11 12 15
f 11 15 16
f 13 17 14
f 14 17 18
f 15 19 16
f 16 19 24
f 16 24 32
f 16 32 47
f 16 47 70
f 16 70 69
f 16 69 56
f 16 56 55
f 16 55 54
f 16 54 53
f 16 53 52
f 16 52 48
f 16 48 33
f 16 33 25
f 16 25 20
f 17 21 22
f 17 22 18
f 18 22 21
f 18 21 23
f 20 25 26
f 21 27 28
f 21 28 29
f 21 29 23
f 24 30 31
f 24 31 32
f 25 33 26
f 26 33 34
f 26 34 35
f 26 35 36
f 26 36 37
f 26 37 38
f 27 39 62
f 27 62 63
f 27 63 40
f 27 40 29
f 27 29 28
f 30 41 31
f 31 42 43
f 31 43 44
f 31 44 32
f 31 41 45
f 31 45 46
f 31 46 42
f 32 44 47
f 33 48 49
f 33 49 34
f 34 49 35
f 35 43 50
f 35 50 51
f 35 51 36
f 35 49 48
f 35 48 52
f 35 52 53
f 35 53 54
f 35 54 55
f 35 55 56
f 35 56 43
f 36 51 37
f 37 57 58
f 37 58 38
f 37 51 59
f 37 59 60
f 37 60 57
f 39 61 62
f 40 63 64
f 42 65 43
f 42 46 66
f 42 66 67
f 42 67 65
f 43 68 44
f 43 65 50
f 43 56 69
f 43 69 70
f 43 70 68
f 44 68 70
f 44 70 47
f 50 65 71
f 50 71 51
f 51 71 60
f 51 60 59
f 57 60 58
f 58 60 72
f 60 71 73
f 60 73 74
f 60 74 72
f 61 75 76
f 61 76 62
f 62 76 77
f 62 77 63
f 63 77 64
f 64 77 78
f 64 78 79
f 65 67 71
f 66 80 67
f 67 80 81
f 67 81 71
f 71 81 73
f 72 74 75
f 73 76 74
f 73 81 76
f 74 76 75
f 76 81 77
f 77 81 78
f 78 81 79
f 79 81 80

