# https://github.com/mikedh/trimesh
v 0.00918064 -0.01211610 0.06549826
v 0.00849537 -0.01211610 0.06516069
v 0.00918064 -0.01296443 0.06549826
v 0.00998053 -0.01211610 0.06518033
v 0.00997912 -0.01126908 0.06517419
v 0.00918064 -0.01126908 0.06548660
v 0.00849537 -0.01126908 0.06515700
v 0.00823393 -0.01126908 0.06441925
v 0.00849537 -0.01296443 0.06516069
v 0.00849891 -0.01309686 0.06515332
v 0.00851766 -0.01381145 0.06510974
v 0.00918064 -0.01309817 0.06548046
v 0.00995860 -0.01381145 0.06511895
v 0.00998053 -0.01296443 0.06518033
v 0.01036049 -0.01211610 0.06441925
v 0.01035908 -0.01126908 0.06441925
v 0.01032405 -0.01042206 0.06441925
v 0.00994409 -0.01042206 0.06509317
v 0.00918064 -0.01042206 0.06533561
v 0.00852898 -0.01042206 0.06508642
v 0.00826754 -0.01042206 0.06441925
v 0.00823393 -0.01042206 0.06357285
v 0.00823393 -0.01296443 0.06441925
v 0.00845752 -0.01309686 0.06504407
v 0.00825622 -0.01381145 0.06441986
v 0.00827461 -0.02228558 0.06187822
v 0.00853606 -0.02228558 0.06250857
v 0.00861176 -0.01438706 0.06498637
v 0.00918064 -0.01381145 0.06538471
v 0.00993949 -0.02228558 0.06251041
v 0.01125979 -0.02228558 0.06041376
v 0.01033820 -0.01381145 0.06441986
v 0.01035731 -0.01309686 0.06441925
v 0.01036049 -0.01296443 0.06441925
v 0.01184777 -0.01126908 0.05922795
v 0.01184813 -0.01211610 0.05922795
v 0.01184742 -0.01105798 0.05922795
v 0.01183751 -0.01042206 0.05922795
v 0.01180178 -0.01021358 0.05922795
v 0.01153574 -0.00958291 0.05922795
v 0.00988714 -0.00957635 0.06434130
v 0.00980824 -0.00986088 0.06496060
v 0.00918064 -0.00979269 0.06501890
v 0.00862698 -0.00986088 0.06496060
v 0.00856967 -0.00957635 0.06434130
v 0.00844195 -0.00957373 0.06357285
v 0.00839985 -0.00957373 0.06272462
v 0.00823393 -0.01042206 0.05922795
v 0.00823393 -0.02228558 0.06103121
v 0.00918064 -0.02228558 0.06271787
v 0.01168504 -0.02228558 0.05944215
v 0.01184813 -0.01309686 0.05922795
v 0.01110944 -0.00925642 0.05922795
v 0.00961791 -0.00914628 0.06400740
v 0.00918064 -0.00936787 0.06443582
v 0.00874903 -0.00914628 0.06400740
v 0.00870375 -0.00911875 0.06357285
v 0.00866129 -0.00909253 0.06272462
v 0.00839985 -0.00957373 0.05922795
v 0.00823393 -0.01309686 0.05922795
v 0.00823393 -0.02228558 0.05944215
v 0.01071250 -0.00902697 0.05922795
v 0.00969539 -0.00911875 0.06357285
v 0.00918064 -0.00908597 0.06357285
v 0.00918064 -0.00914366 0.06401293
v 0.00918064 -0.00903483 0.06272462
v 0.00866129 -0.00909253 0.05922795
v 0.00929031 -0.00898632 0.05922795
v 0.01019386 -0.00889061 0.05922795
f 1 2 9
f 1 9 3
f 1 3 14
f 1 14 4
f 1 4 5
f 1 5 6
f 1 6 7
f 1 7 2
f 2 7 8
f 2 8 23
f 2 23 9
f 3 9 10
f 3 10 11
f 3 11 12
f 3 12 13
f 3 13 14
f 4 14 34
f 4 34 15
f 4 15 16
f 4 16 5
f 5 16 17
f 5 17 18
f 5 18 6
f 6 18 19
f 6 19 20
f 6 20 7
f 7 20 21
f 7 21 8
f 8 21 22
f 8 22 48
f 8 48 60
f 8 60 61
f 8 61 49
f 8 49 23
f 9 23 24
f 9 24 10
f 10 24 25
f 10 25 11
f 11 25 26
f 11 26 27
f 11 27 28
f 11 28 29
f 11 29 12
f 12 29 13
f 13 29 30
f 13 30 31
f 13 31 32
f 13 32 14
f 14 32 33
f 14 33 34
f 15 35 16
f 15 34 52
f 15 52 36
f 15 36 35
f 16 37 38
f 16 38 17
f 16 35 37
f 17 38 39
f 17 39 40
f 17 40 41
f 17 41 42
f 17 42 18
f 18 42 19
f 19 42 43
f 19 43 44
f 19 44 20
f 20 44 21
f 21 44 45
f 21 45 46
f 21 46 47
f 21 47 22
f 22 47 59
f 22 59 48
f 23 49 26
f 23 26 25
f 23 25 24
f 26 49 61
f 26 61 51
f 26 51 31
f 26 31 30
f 26 30 50
f 26 50 27
f 27 50 29
f 27 29 28
f 29 50 30
f 31 51 32
f 32 51 33
f 33 51 34
f 34 51 52
f 35 36 52
f 35 52 60
f 35 60 48
f 35 48 59
f 35 59 67
f 35 67 68
f 35 68 69
f 35 69 62
f 35 62 53
f 35 53 40
f 35 40 39
f 35 39 38
f 35 38 37
f 40 53 54
f 40 54 41
f 41 54 42
f 42 54 55
f 42 55 43
f 43 55 44
f 44 55 56
f 44 56 45
f 45 56 46
f 46 56 57
f 46 57 58
f 46 58 47
f 47 58 67
f 47 67 59
f 51 61 60
f 51 60 52
f 53 62 63
f 53 63 54
f 54 63 64
f 54 64 65
f 54 65 55
f 55 65 56
f 56 65 64
f 56 64 57
f 57 64 66
f 57 66 58
f 58 66 68
f 58 68 67
f 62 69 63
f 63 69 66
f 63 66 64
f 66 69 68

