# https://github.com/mikedh/trimesh
v 0.01416735 -0.02143772 0.08729942
v 0.01416660 -0.02143657 0.08729942
v 0.01404110 -0.02143657 0.08899376
v 0.01404110 -0.02143772 0.08899376
v 0.01401464 -0.02228487 0.08899376
v 0.01398742 -0.02313201 0.08899376
v 0.01410763 -0.02313201 0.08729942
v 0.01390728 -0.02733597 0.08662222
v 0.01392392 -0.02652116 0.08658959
v 0.01394055 -0.02567402 0.08655423
v 0.01395718 -0.02482630 0.08652568
v 0.01397381 -0.02397973 0.08650392
v 0.01398969 -0.02313201 0.08648624
v 0.01400557 -0.02228487 0.08647400
v 0.01402144 -0.02143772 0.08646449
v 0.01402069 -0.02143657 0.08646449
v 0.01397003 -0.02143657 0.08984093
v 0.01397003 -0.02143772 0.08984229
v 0.01395567 -0.02397973 0.08899376
v 0.01401691 -0.02397973 0.08814659
v 0.01394206 -0.02228487 0.08984229
v 0.01391333 -0.02313201 0.08984229
v 0.01407663 -0.02397973 0.08729942
v 0.00993519 -0.02733597 0.07962729
v 0.01404337 -0.02482630 0.08729942
v 0.01394282 -0.02733597 0.08729942
v 0.00998207 -0.02482630 0.07974423
v 0.00992688 -0.02397973 0.07984486
v 0.00978324 -0.02346579 0.07999308
v 0.00996166 -0.02143657 0.08240541
v 0.01388460 -0.02143657 0.09043109
v 0.01388460 -0.02143772 0.09043109
v 0.01387024 -0.02228487 0.09037670
v 0.01385512 -0.02313201 0.09032095
v 0.01384529 -0.02364942 0.09028287
v 0.01386495 -0.02482630 0.08963560
v 0.01385058 -0.02547710 0.08950641
v 0.01383849 -0.02604244 0.08938539
v 0.01382866 -0.02652116 0.08925620
v 0.01392014 -0.02482630 0.08899376
v 0.01387704 -0.02395086 0.08987901
v 0.00986489 -0.02733597 0.07959737
v 0.01386797 -0.02733597 0.08828937
v 0.00918069 -0.02482630 0.07940972
v 0.00918069 -0.02397973 0.07960009
v 0.00918069 -0.02342074 0.07994141
v 0.00917994 -0.02143657 0.08217152
v 0.01359052 -0.02143657 0.09153663
v 0.01359052 -0.02143772 0.09153663
v 0.01356405 -0.02228487 0.09153663
v 0.01353533 -0.02313201 0.09153663
v 0.01374399 -0.02313201 0.09074385
v 0.01360790 -0.02652116 0.09068946
v 0.01356859 -0.02733597 0.09068946
v 0.01372660 -0.02733597 0.08984229
v 0.01383168 -0.02421418 0.09018497
v 0.01350282 -0.02397973 0.09153663
v 0.01346653 -0.02482630 0.09153663
v 0.01342948 -0.02567402 0.09153663
v 0.01339093 -0.02652116 0.09153663
v 0.01376440 -0.02652116 0.08984229
v 0.01381430 -0.02733597 0.08898560
v 0.01382034 -0.02733597 0.08890945
v 0.01384378 -0.02733597 0.08860893
v 0.01384832 -0.02711999 0.08866876
v 0.00914441 -0.02733597 0.07932541
v 0.00908468 -0.02733597 0.07935532
v 0.00849575 -0.02482630 0.07976327
v 0.00854338 -0.02397973 0.07985302
v 0.00864619 -0.02346579 0.07999308
v 0.00850709 -0.02143657 0.08240541
v 0.01331608 -0.02143657 0.09238380
v 0.01331608 -0.02143772 0.09238380
v 0.01334784 -0.02733597 0.09153663
v 0.00849575 -0.02733597 0.07972520
v 0.00823870 -0.02482630 0.08052205
v 0.00829465 -0.02397973 0.08052205
v 0.00812303 -0.02143657 0.08312340
v 0.00814118 -0.02143657 0.08307716
v 0.00850331 -0.02143657 0.08241221
v 0.01307340 -0.02143657 0.09289238
v 0.01311196 -0.02733597 0.09210640
v 0.01312179 -0.02733597 0.09208328
v 0.00848592 -0.02733597 0.07975511
v 0.00823492 -0.02733597 0.08052205
v 0.00647644 -0.02143657 0.08814659
v 0.00674558 -0.02143657 0.08730758
v 0.01256914 -0.02143657 0.09309227
v 0.01256990 -0.02143772 0.09309227
v 0.01300309 -0.02279650 0.09281623
v 0.01256990 -0.02733597 0.09240284
v 0.00649609 -0.02733597 0.09153663
v 0.00649609 -0.02397973 0.08814659
v 0.00647946 -0.02313201 0.08814659
v 0.00647644 -0.02143772 0.08814659
v 0.00644469 -0.02143657 0.08899376
v 0.01172241 -0.02143657 0.09320921
v 0.01172241 -0.02143772 0.09320921
v 0.01222591 -0.02456644 0.09282438
v 0.01236048 -0.02397973 0.09285566
v 0.01291691 -0.02336184 0.09277543
v 0.01172241 -0.02733597 0.09255106
v 0.00650668 -0.02733597 0.09156655
v 0.00649231 -0.02143772 0.09238380
v 0.00648097 -0.02652116 0.09153663
v 0.00645149 -0.02397973 0.08899376
v 0.00644469 -0.02143772 0.08899376
v 0.00644393 -0.02143657 0.09068946
v 0.00833320 -0.02143657 0.09321602
v 0.00833320 -0.02733597 0.09255106
v 0.00675919 -0.02733597 0.09225462
v 0.00653692 -0.02228487 0.09238380
v 0.00649231 -0.02143657 0.09238380
v 0.00644393 -0.02143657 0.09153663
v 0.00645149 -0.02397973 0.09153663
v 0.00645451 -0.02482630 0.09153663
v 0.00680077 -0.02143772 0.09301068
v 0.00748571 -0.02143657 0.09321465
v 0.00748571 -0.02143772 0.09321465
v 0.00748571 -0.02733597 0.09254970
v 0.00678716 -0.02733597 0.09226822
v 0.00702606 -0.02456528 0.09282438
v 0.00696785 -0.02397973 0.09285566
v 0.00689829 -0.02313201 0.09290054
v 0.00680077 -0.02143657 0.09301068
f 1 2 3
f 1 3 4
f 1 4 5
f 1 5 6
f 1 6 7
f 1 7 8
f 1 8 9
f 1 9 10
f 1 10 11
f 1 11 12
f 1 12 13
f 1 13 14
f 1 14 15
f 1 15 16
f 1 16 2
f 2 16 30
f 2 30 47
f 2 47 71
f 2 71 80
f 2 80 79
f 2 79 78
f 2 78 87
f 2 87 86
f 2 86 96
f 2 96 108
f 2 108 114
f 2 114 113
f 2 113 125
f 2 125 118
f 2 118 109
f 2 109 97
f 2 97 88
f 2 88 81
f 2 81 72
f 2 72 48
f 2 48 31
f 2 31 17
f 2 17 3
f 3 17 18
f 3 18 4
f 4 18 5
f 5 18 6
f 6 19 20
f 6 20 7
f 6 18 21
f 6 21 22
f 6 22 19
f 7 20 23
f 7 23 8
f 8 24 10
f 8 10 9
f 8 23 25
f 8 25 26
f 8 26 43
f 8 43 64
f 8 64 63
f 8 63 62
f 8 62 55
f 8 55 54
f 8 54 74
f 8 74 83
f 8 83 82
f 8 82 91
f 8 91 102
f 8 102 110
f 8 110 120
f 8 120 121
f 8 121 111
f 8 111 103
f 8 103 92
f 8 92 85
f 8 85 84
f 8 84 75
f 8 75 67
f 8 67 66
f 8 66 42
f 8 42 24
f 10 24 11
f 11 24 12
f 12 24 13
f 13 24 14
f 14 24 15
f 15 24 27
f 15 27 28
f 15 28 29
f 15 29 16
f 16 29 30
f 17 31 18
f 18 31 32
f 18 32 33
f 18 33 34
f 18 34 35
f 18 35 21
f 19 22 36
f 19 36 37
f 19 37 38
f 19 38 39
f 19 39 40
f 19 40 26
f 19 26 20
f 20 26 25
f 20 25 23
f 21 35 22
f 22 35 41
f 22 41 36
f 24 42 27
f 26 40 43
f 27 42 44
f 27 44 28
f 28 44 45
f 28 45 29
f 29 45 46
f 29 46 47
f 29 47 30
f 31 48 49
f 31 49 32
f 32 49 50
f 32 50 33
f 33 50 51
f 33 51 52
f 33 52 34
f 34 52 35
f 35 53 54
f 35 54 55
f 35 55 56
f 35 56 41
f 35 52 57
f 35 57 58
f 35 58 59
f 35 59 60
f 35 60 53
f 36 41 37
f 37 41 56
f 37 56 38
f 38 56 61
f 38 61 55
f 38 55 39
f 39 55 62
f 39 62 63
f 39 63 64
f 39 64 65
f 39 65 40
f 40 65 64
f 40 64 43
f 42 66 44
f 44 66 67
f 44 67 68
f 44 68 69
f 44 69 45
f 45 69 70
f 45 70 46
f 46 70 47
f 47 70 71
f 48 72 73
f 48 73 49
f 49 73 50
f 50 73 51
f 51 73 57
f 51 57 52
f 53 60 54
f 54 60 74
f 55 61 56
f 57 73 58
f 58 73 59
f 59 73 60
f 60 73 74
f 67 75 68
f 68 75 76
f 68 76 77
f 68 77 69
f 69 77 70
f 70 77 78
f 70 78 79
f 70 79 80
f 70 80 71
f 72 81 73
f 73 82 83
f 73 83 74
f 73 81 82
f 75 84 76
f 76 84 85
f 76 85 86
f 76 86 77
f 77 86 87
f 77 87 78
f 81 88 89
f 81 89 90
f 81 90 82
f 82 90 91
f 85 92 93
f 85 93 94
f 85 94 95
f 85 95 86
f 86 95 107
f 86 107 96
f 88 97 89
f 89 97 98
f 89 98 99
f 89 99 100
f 89 100 101
f 89 101 90
f 90 101 91
f 91 101 99
f 91 99 102
f 92 103 104
f 92 104 105
f 92 105 106
f 92 106 93
f 93 106 94
f 94 106 107
f 94 107 95
f 96 107 108
f 97 109 98
f 98 109 102
f 98 102 99
f 99 101 100
f 102 109 110
f 103 111 112
f 103 112 104
f 104 113 114
f 104 114 115
f 104 115 116
f 104 116 105
f 104 112 117
f 104 117 125
f 104 125 113
f 105 116 106
f 106 108 107
f 106 116 115
f 106 115 114
f 106 114 108
f 109 118 119
f 109 119 110
f 110 119 120
f 111 121 122
f 111 122 123
f 111 123 124
f 111 124 117
f 111 117 112
f 117 124 123
f 117 123 119
f 117 119 118
f 117 118 125
f 119 123 122
f 119 122 120
f 120 122 121

