# https://github.com/mikedh/trimesh
v 0.00833359 -0.00271455 0.09471609
v 0.01087464 -0.00271455 0.09470204
v 0.00827513 -0.00271455 0.09471609
v 0.01172192 -0.01309700 0.09377045
v 0.01172192 -0.00271455 0.09468800
v 0.00748551 -0.00271455 0.09470204
v 0.00748551 -0.01309700 0.09377045
v 0.01248591 -0.01309700 0.09371338
v 0.01220722 -0.00271455 0.09458175
v 0.01284228 -0.01309700 0.09364577
v 0.01290955 -0.01309700 0.09363172
v 0.00680400 -0.00271455 0.09435610
v 0.00694895 -0.01309700 0.09371250
v 0.00740623 -0.01309700 0.09376430
v 0.01253797 -0.00271455 0.09449483
v 0.01299044 -0.01252991 0.09365455
v 0.01323950 -0.01309700 0.09320851
v 0.00670710 -0.00271455 0.09427093
v 0.00694254 -0.01296285 0.09371601
v 0.00690010 -0.01309700 0.09363962
v 0.01270774 -0.00271455 0.09440615
v 0.01301046 -0.01196485 0.09366947
v 0.01360948 -0.01309700 0.09238403
v 0.01333400 -0.01042008 0.09323134
v 0.01305531 -0.01042008 0.09370811
v 0.01303128 -0.01126767 0.09368704
v 0.00665344 -0.00271455 0.09412342
v 0.00654373 -0.01042008 0.09323134
v 0.00657015 -0.01126767 0.09323134
v 0.00659979 -0.01211526 0.09323134
v 0.00663422 -0.01296285 0.09323134
v 0.00663983 -0.01309700 0.09323134
v 0.01318584 -0.00271455 0.09398820
v 0.01378727 -0.01309700 0.09177731
v 0.01379928 -0.01211526 0.09181858
v 0.01365433 -0.01126767 0.09238403
v 0.01343170 -0.00703176 0.09323134
v 0.01338925 -0.00872592 0.09323134
v 0.01336443 -0.00957351 0.09323134
v 0.01307693 -0.00957351 0.09372918
v 0.00643161 -0.00271455 0.09335602
v 0.00650449 -0.00872592 0.09323134
v 0.00652210 -0.00957351 0.09323134
v 0.00644923 -0.01309700 0.09238403
v 0.00660539 -0.01309700 0.09309787
v 0.01345172 -0.00618418 0.09323134
v 0.01346854 -0.00533760 0.09323134
v 0.01351418 -0.00279484 0.09323134
v 0.01351499 -0.00271455 0.09323134
v 0.01391140 -0.01309700 0.09135322
v 0.01391300 -0.01296285 0.09135937
v 0.01380969 -0.01126767 0.09185370
v 0.01367435 -0.01042008 0.09238403
v 0.00648927 -0.00787935 0.09323134
v 0.00642520 -0.00271455 0.09323134
v 0.00646444 -0.01309700 0.08984300
v 0.00644843 -0.01296285 0.09238403
v 0.00645163 -0.01211526 0.08984300
v 0.01369037 -0.00957351 0.09238403
v 0.01353661 -0.00271455 0.09316109
v 0.01370158 -0.00872592 0.09238403
v 0.01406836 -0.01309700 0.09078952
v 0.01412282 -0.01211526 0.09068943
v 0.01392341 -0.01211526 0.09139449
v 0.01393302 -0.01126767 0.09142961
v 0.01381930 -0.01042008 0.09188619
v 0.00642600 -0.00271455 0.08984300
v 0.00647486 -0.01309700 0.08899570
v 0.00642841 -0.00271455 0.08645291
v 0.01394103 -0.01042008 0.09146210
v 0.01382651 -0.00957351 0.09190902
v 0.01374402 -0.00279484 0.09247096
v 0.01375604 -0.00271455 0.09243320
v 0.01401310 -0.00279484 0.09153673
v 0.01409559 -0.01309700 0.09068943
v 0.01409959 -0.01296285 0.09068943
v 0.01427418 -0.01211526 0.08984300
v 0.01414204 -0.01126767 0.09068943
v 0.00652291 -0.01309700 0.08888068
v 0.00644683 -0.00271455 0.08574697
v 0.01415565 -0.01042008 0.09068943
v 0.01394583 -0.00957351 0.09148580
v 0.01401390 -0.00271455 0.09153673
v 0.01403633 -0.00271455 0.09145683
v 0.01422212 -0.01309700 0.08997646
v 0.01425015 -0.01296285 0.08984300
v 0.01431662 -0.01296285 0.08899570
v 0.01433984 -0.01211526 0.08899570
v 0.01429099 -0.01126767 0.08984300
v 0.00678318 -0.01309700 0.08833542
v 0.01098675 -0.00271455 0.08574697
v 0.00819985 -0.01309700 0.08574697
v 0.01430220 -0.01042008 0.08984300
v 0.01439510 -0.00279484 0.08984300
v 0.01424775 -0.00279484 0.09068943
v 0.01424855 -0.00271455 0.09068943
v 0.01424535 -0.01309700 0.08984300
v 0.01430220 -0.01309700 0.08912916
v 0.01431262 -0.01309700 0.08899570
v 0.01438069 -0.01296285 0.08814752
v 0.01440311 -0.01211526 0.08814752
v 0.01435586 -0.01126767 0.08899570
v 0.01455927 -0.00703176 0.08730021
v 0.01457369 -0.00618418 0.08730021
v 0.01458570 -0.00533760 0.08730021
v 0.01341728 -0.00271455 0.08603321
v 0.01200061 -0.01042008 0.08574697
v 0.01201743 -0.01309700 0.08574697
v 0.01453445 -0.00364243 0.08814752
v 0.01439590 -0.00271455 0.08984300
v 0.01437668 -0.01309700 0.08814752
v 0.01446157 -0.01211526 0.08730021
v 0.01442553 -0.01309700 0.08743455
v 0.01448159 -0.01126767 0.08730021
v 0.01441913 -0.01126767 0.08814752
v 0.01449761 -0.01042008 0.08730021
v 0.01415085 -0.01309700 0.08645554
v 0.01417647 -0.01126767 0.08645554
v 0.01418769 -0.01042008 0.08645554
v 0.01459611 -0.00449002 0.08730021
v 0.01416206 -0.00271455 0.08641515
v 0.01341728 -0.00787935 0.08603321
v 0.01201743 -0.01126767 0.08574697
v 0.01200702 -0.01072091 0.08574697
v 0.01341728 -0.01309700 0.08603409
v 0.01460252 -0.00364243 0.08730021
v 0.01454005 -0.00279484 0.08814752
v 0.01446958 -0.00271455 0.08899570
v 0.01443835 -0.01296285 0.08730021
v 0.01443434 -0.01309700 0.08730021
v 0.01419730 -0.00957351 0.08645554
v 0.01422052 -0.00703176 0.08645554
v 0.01424054 -0.00271455 0.08645554
v 0.01423734 -0.00364243 0.08645554
v 0.01423093 -0.00533760 0.08645554
v 0.01422693 -0.00618418 0.08645554
v 0.01460652 -0.00271455 0.08730021
v 0.01454646 -0.00271455 0.08806849
v 0.01454005 -0.00271455 0.08814752
f 1 2 5
f 1 5 9
f 1 9 15
f 1 15 21
f 1 21 33
f 1 33 49
f 1 49 60
f 1 60 73
f 1 73 83
f 1 83 84
f 1 84 96
f 1 96 110
f 1 110 128
f 1 128 139
f 1 139 138
f 1 138 137
f 1 137 133
f 1 133 121
f 1 121 106
f 1 106 91
f 1 91 80
f 1 80 69
f 1 69 67
f 1 67 55
f 1 55 41
f 1 41 27
f 1 27 18
f 1 18 12
f 1 12 6
f 1 6 3
f 1 3 7
f 1 7 4
f 1 4 2
f 2 4 5
f 3 6 7
f 4 7 14
f 4 14 13
f 4 13 20
f 4 20 32
f 4 32 45
f 4 45 44
f 4 44 56
f 4 56 68
f 4 68 79
f 4 79 90
f 4 90 92
f 4 92 108
f 4 108 125
f 4 125 117
f 4 117 130
f 4 130 113
f 4 113 111
f 4 111 99
f 4 99 98
f 4 98 97
f 4 97 85
f 4 85 75
f 4 75 62
f 4 62 50
f 4 50 34
f 4 34 23
f 4 23 17
f 4 17 11
f 4 11 10
f 4 10 8
f 4 8 5
f 5 8 10
f 5 10 11
f 5 11 9
f 6 12 13
f 6 13 14
f 6 14 7
f 9 11 16
f 9 16 15
f 11 17 16
f 12 18 13
f 13 19 20
f 13 18 19
f 15 16 21
f 16 17 22
f 16 22 21
f 17 23 24
f 17 24 25
f 17 25 26
f 17 26 22
f 18 27 28
f 18 28 29
f 18 29 30
f 18 30 31
f 18 31 32
f 18 32 20
f 18 20 19
f 21 22 26
f 21 26 33
f 23 34 35
f 23 35 36
f 23 36 37
f 23 37 38
f 23 38 39
f 23 39 24
f 24 39 33
f 24 33 40
f 24 40 25
f 25 40 33
f 25 33 26
f 27 41 42
f 27 42 43
f 27 43 28
f 28 43 44
f 28 44 29
f 29 44 30
f 30 44 45
f 30 45 31
f 31 45 32
f 33 37 46
f 33 46 47
f 33 47 48
f 33 48 49
f 33 39 38
f 33 38 37
f 34 50 51
f 34 51 35
f 35 51 64
f 35 64 52
f 35 52 36
f 36 52 53
f 36 53 46
f 36 46 37
f 41 54 42
f 41 55 44
f 41 44 54
f 42 44 43
f 42 54 44
f 44 55 57
f 44 57 58
f 44 58 56
f 46 53 47
f 47 53 59
f 47 59 48
f 48 60 49
f 48 59 61
f 48 61 60
f 50 62 63
f 50 63 51
f 51 63 64
f 52 64 65
f 52 65 66
f 52 66 53
f 53 66 59
f 55 67 57
f 56 58 68
f 57 67 69
f 57 69 58
f 58 69 68
f 59 66 70
f 59 70 71
f 59 71 61
f 60 72 73
f 60 61 72
f 61 71 74
f 61 74 73
f 61 73 72
f 62 75 76
f 62 76 63
f 63 76 77
f 63 77 78
f 63 78 65
f 63 65 64
f 65 78 70
f 65 70 66
f 68 69 80
f 68 80 79
f 70 78 81
f 70 81 82
f 70 82 71
f 71 82 74
f 73 74 83
f 74 84 83
f 74 82 84
f 75 85 86
f 75 86 76
f 76 86 77
f 77 86 87
f 77 87 88
f 77 88 89
f 77 89 78
f 78 89 81
f 79 80 90
f 80 91 107
f 80 107 124
f 80 124 123
f 80 123 108
f 80 108 92
f 80 92 90
f 81 89 93
f 81 93 94
f 81 94 95
f 81 95 82
f 82 95 84
f 84 95 96
f 85 97 86
f 86 97 98
f 86 98 87
f 87 98 99
f 87 99 111
f 87 111 100
f 87 100 88
f 88 100 101
f 88 101 115
f 88 115 102
f 88 102 89
f 89 102 103
f 89 103 104
f 89 104 105
f 89 105 93
f 91 106 107
f 93 105 109
f 93 109 94
f 94 109 110
f 94 110 96
f 94 96 95
f 100 112 101
f 100 111 113
f 100 113 112
f 101 112 114
f 101 114 116
f 101 116 115
f 102 115 103
f 103 115 116
f 103 116 117
f 103 117 104
f 104 117 105
f 105 117 118
f 105 118 119
f 105 119 120
f 105 120 109
f 106 121 122
f 106 122 108
f 106 108 123
f 106 123 124
f 106 124 107
f 108 122 125
f 109 120 126
f 109 126 127
f 109 127 128
f 109 128 110
f 112 113 129
f 112 129 117
f 112 117 114
f 113 130 129
f 114 117 116
f 117 129 130
f 117 125 118
f 118 125 119
f 119 125 131
f 119 131 120
f 120 131 132
f 120 132 136
f 120 136 126
f 121 133 125
f 121 125 122
f 125 133 134
f 125 134 135
f 125 135 136
f 125 136 132
f 125 132 131
f 126 137 127
f 126 136 135
f 126 135 137
f 127 137 138
f 127 138 139
f 127 139 128
f 133 137 134
f 134 137 135

