# https://github.com/mikedh/trimesh
v 0.01279324 -0.03703863 0.04238789
v 0.01279466 -0.03706136 0.04279870
v 0.01279324 -0.03703863 0.04239271
v 0.01279324 -0.03703736 0.04236557
v 0.01282657 -0.03704873 0.04279870
v 0.01279324 -0.03587553 0.04279870
v 0.01279324 -0.03696791 0.04154032
v 0.01341789 -0.03656884 0.03984518
v 0.01341789 -0.03663451 0.04069275
v 0.01341789 -0.03669387 0.04154032
v 0.01341789 -0.03675196 0.04238789
v 0.01341789 -0.03677090 0.04279870
v 0.01279324 -0.03548657 0.04279870
v 0.01279324 -0.03681763 0.03984518
v 0.01341789 -0.03649686 0.03899882
v 0.01379863 -0.03624808 0.03796183
v 0.01389223 -0.03628975 0.03899882
v 0.01396100 -0.03632511 0.03984518
v 0.01401134 -0.03635416 0.04069275
v 0.01404608 -0.03637815 0.04154032
v 0.01407515 -0.03640467 0.04238789
v 0.01408295 -0.03641225 0.04279870
v 0.01279466 -0.03447123 0.04279870
v 0.01279324 -0.03446997 0.04279508
v 0.01279324 -0.03673807 0.03899882
v 0.01330090 -0.03638825 0.03730369
v 0.01347674 -0.03640341 0.03820736
v 0.01372419 -0.03622029 0.03730369
v 0.01426517 -0.03597403 0.03730369
v 0.01418505 -0.03608517 0.03820736
v 0.01431551 -0.03608138 0.03899882
v 0.01438429 -0.03610285 0.03984518
v 0.01443463 -0.03612179 0.04069275
v 0.01447008 -0.03613568 0.04154032
v 0.01430133 -0.03627712 0.04279870
v 0.01279324 -0.02991230 0.04180876
v 0.01746923 -0.02415996 0.04279870
v 0.01279324 -0.03665345 0.03816513
v 0.01279324 -0.03655874 0.03730369
v 0.01320306 -0.03634532 0.03663649
v 0.01353701 -0.03622282 0.03663649
v 0.01362705 -0.03618746 0.03663649
v 0.01426517 -0.03590963 0.03663649
v 0.01491392 -0.03556487 0.03663649
v 0.01495647 -0.03559644 0.03730369
v 0.01499404 -0.03563054 0.03815125
v 0.01502311 -0.03565705 0.03899882
v 0.01504226 -0.03567979 0.03984518
v 0.01449844 -0.03614199 0.04238789
v 0.01450624 -0.03614452 0.04279870
v 0.01279324 -0.02969887 0.04171767
v 0.01968351 -0.02415996 0.04279870
v 0.01783934 -0.02415996 0.03663649
v 0.01446653 -0.02660486 0.03663649
v 0.01446653 -0.02660486 0.04069275
v 0.01454027 -0.02671852 0.04132556
v 0.01279324 -0.02912301 0.04146250
v 0.01279324 -0.03647665 0.03663649
v 0.01524787 -0.03534765 0.03663649
v 0.01533792 -0.03528830 0.03663649
v 0.01537975 -0.03531230 0.03730369
v 0.01541804 -0.03533376 0.03815125
v 0.01544711 -0.03535144 0.03899882
v 0.01504793 -0.03569873 0.04069275
v 0.01546625 -0.03536281 0.03984518
v 0.01505431 -0.03571136 0.04154032
v 0.01504722 -0.03571894 0.04238789
v 0.01504155 -0.03572020 0.04279870
v 0.01972888 -0.02415996 0.04238789
v 0.01963458 -0.02447442 0.04279870
v 0.02003589 -0.02415996 0.03663649
v 0.01279324 -0.02914069 0.04003279
v 0.01279324 -0.02886791 0.04050514
v 0.01279324 -0.02879088 0.04068793
v 0.01279324 -0.03170935 0.03663649
v 0.01279324 -0.02902956 0.04126946
v 0.01591932 -0.03486398 0.03663649
v 0.01593917 -0.03488923 0.03730369
v 0.01604056 -0.03484630 0.03814764
v 0.01638940 -0.03457731 0.03842754
v 0.01547760 -0.03536786 0.04154032
v 0.01525993 -0.03553456 0.04279870
v 0.01976788 -0.02415996 0.04191916
v 0.01951476 -0.02523844 0.04279870
v 0.01962395 -0.02482802 0.04238789
v 0.02002809 -0.02415996 0.03748466
v 0.01993804 -0.02482802 0.03663649
v 0.01625326 -0.03460509 0.03663649
v 0.01636245 -0.03455079 0.03730369
v 0.01637734 -0.03456468 0.03786290
v 0.01639152 -0.03457983 0.03899882
v 0.01666733 -0.03422876 0.03814764
v 0.01715797 -0.03362006 0.03815125
v 0.01638940 -0.03457731 0.03984518
v 0.01638656 -0.03457478 0.04035674
v 0.01547121 -0.03535649 0.04238789
v 0.01546554 -0.03535018 0.04279870
v 0.01949065 -0.02567540 0.04238789
v 0.01975724 -0.02431150 0.04175930
v 0.01979057 -0.02415996 0.04163141
v 0.01944598 -0.02567540 0.04279870
v 0.02002029 -0.02415996 0.03815125
v 0.01992103 -0.02482802 0.03815125
v 0.01964167 -0.02652278 0.03663649
v 0.01963458 -0.02652278 0.03815125
v 0.01634260 -0.03453311 0.03663649
v 0.01670207 -0.03411005 0.03663649
v 0.01671625 -0.03412773 0.03730369
v 0.01673823 -0.03414793 0.03899882
v 0.01715372 -0.03360869 0.03899882
v 0.01703602 -0.03369331 0.03663649
v 0.01712536 -0.03358091 0.03663649
v 0.01741677 -0.03315659 0.03663649
v 0.01743307 -0.03319574 0.03815125
v 0.01637522 -0.03456215 0.04092138
v 0.01589308 -0.03492712 0.04279870
v 0.01935523 -0.02652278 0.04238789
v 0.01942188 -0.02652278 0.04154032
v 0.01988416 -0.02482802 0.03899882
v 0.01980829 -0.02415996 0.04139373
v 0.01930773 -0.02652278 0.04279870
v 0.01998413 -0.02415996 0.03899882
v 0.01959913 -0.02652278 0.03899882
v 0.01949136 -0.02737016 0.03663649
v 0.01948073 -0.02737016 0.03815125
v 0.01948711 -0.02737016 0.03730369
v 0.01742315 -0.03318437 0.03899882
v 0.01711472 -0.03353166 0.04069275
v 0.01664748 -0.03408732 0.04238789
v 0.01667088 -0.03411763 0.04154032
v 0.01663117 -0.03422623 0.04066078
v 0.01774150 -0.03260598 0.03663649
v 0.01782942 -0.03245317 0.03663649
v 0.01785211 -0.03245317 0.03815125
v 0.01635749 -0.03454069 0.04154032
v 0.01611146 -0.03470865 0.04279870
v 0.01918365 -0.02737016 0.04238789
v 0.01925242 -0.02737016 0.04154032
v 0.01944386 -0.02737016 0.03899882
v 0.01912480 -0.02740425 0.04279870
v 0.01928433 -0.02821754 0.03815125
v 0.01944953 -0.02754948 0.03663649
v 0.01734019 -0.03307071 0.04154032
v 0.01707147 -0.03345210 0.04238789
v 0.01709416 -0.03349377 0.04154032
v 0.01783296 -0.03245317 0.03899882
v 0.01684955 -0.03374129 0.04279870
v 0.01663117 -0.03406838 0.04279870
v 0.01631708 -0.03449143 0.04279870
v 0.01633197 -0.03451038 0.04238789
v 0.01801731 -0.03209831 0.03663649
v 0.01806623 -0.03200360 0.03663649
v 0.01807332 -0.03201875 0.03815125
v 0.01905319 -0.02772250 0.04279870
v 0.01873342 -0.02906492 0.04279870
v 0.01877880 -0.02906492 0.04238789
v 0.01892202 -0.02862670 0.04191132
v 0.01924675 -0.02821754 0.03899882
v 0.01929354 -0.02821754 0.03663649
v 0.01893194 -0.02951450 0.03865738
v 0.01882205 -0.02994892 0.03815125
v 0.01731396 -0.03302778 0.04238789
v 0.01705517 -0.03341800 0.04279870
v 0.01777624 -0.03245317 0.03984518
v 0.01806339 -0.03199476 0.03899882
v 0.01810381 -0.03191393 0.03663649
v 0.01824207 -0.03157928 0.03663649
v 0.01824774 -0.03159443 0.03815125
v 0.01850724 -0.02991230 0.04279870
v 0.01855191 -0.02991230 0.04238789
v 0.01861997 -0.02991230 0.04154032
v 0.01924462 -0.02839686 0.03663649
v 0.01882134 -0.02984284 0.03896323
v 0.01853844 -0.03075841 0.03899882
v 0.01856893 -0.03075841 0.03815125
v 0.01882063 -0.02994134 0.03730369
v 0.01729482 -0.03299368 0.04279870
v 0.01765925 -0.03245317 0.04154032
v 0.01759828 -0.03245317 0.04238789
v 0.01803645 -0.03192277 0.03984518
v 0.01823214 -0.03157043 0.03899882
v 0.01855900 -0.03075841 0.03663649
v 0.01838316 -0.03028232 0.04279870
v 0.01823214 -0.03084050 0.04246329
v 0.01834204 -0.03075841 0.04154032
v 0.01840940 -0.03075841 0.04069275
v 0.01847463 -0.03075841 0.03984518
v 0.01867953 -0.02991230 0.04069275
v 0.01881850 -0.02993755 0.03663649
v 0.01819811 -0.03149971 0.03984518
v 0.01876391 -0.03011057 0.03663649
v 0.01744087 -0.03269691 0.04279870
v 0.01800525 -0.03183816 0.04069275
v 0.01797335 -0.03174976 0.04154032
v 0.01796484 -0.03156033 0.04246329
v 0.01777057 -0.03194803 0.04279870
v 0.01755857 -0.03245317 0.04279870
v 0.01821938 -0.03076852 0.04279870
v 0.01807545 -0.03118021 0.04279870
v 0.01810239 -0.03124840 0.04223104
v 0.01816407 -0.03141510 0.04069275
v 0.01792230 -0.03157928 0.04279870
f 1 2 3
f 1 3 6
f 1 6 13
f 1 13 24
f 1 24 36
f 1 36 51
f 1 51 57
f 1 57 76
f 1 76 74
f 1 74 73
f 1 73 72
f 1 72 75
f 1 75 58
f 1 58 39
f 1 39 38
f 1 38 25
f 1 25 14
f 1 14 7
f 1 7 4
f 1 4 2
f 2 4 5
f 2 5 12
f 2 12 22
f 2 22 35
f 2 35 50
f 2 50 68
f 2 68 82
f 2 82 97
f 2 97 116
f 2 116 136
f 2 136 149
f 2 149 148
f 2 148 147
f 2 147 163
f 2 163 177
f 2 177 192
f 2 192 197
f 2 197 196
f 2 196 202
f 2 202 199
f 2 199 198
f 2 198 183
f 2 183 169
f 2 169 155
f 2 155 154
f 2 154 140
f 2 140 121
f 2 121 101
f 2 101 84
f 2 84 70
f 2 70 52
f 2 52 37
f 2 37 23
f 2 23 13
f 2 13 6
f 2 6 3
f 4 7 8
f 4 8 9
f 4 9 10
f 4 10 11
f 4 11 5
f 5 11 12
f 7 14 15
f 7 15 8
f 8 15 16
f 8 16 17
f 8 17 18
f 8 18 9
f 9 18 10
f 10 18 11
f 11 18 19
f 11 19 20
f 11 20 21
f 11 21 12
f 12 21 22
f 13 23 24
f 14 25 26
f 14 26 27
f 14 27 15
f 15 27 16
f 16 28 29
f 16 29 17
f 16 27 28
f 17 29 18
f 18 29 30
f 18 30 31
f 18 31 32
f 18 32 19
f 19 32 33
f 19 33 20
f 20 33 21
f 21 33 34
f 21 34 22
f 22 34 35
f 23 36 24
f 23 37 36
f 25 38 26
f 26 38 39
f 26 39 40
f 26 40 41
f 26 41 42
f 26 42 28
f 26 28 27
f 28 42 43
f 28 43 29
f 29 43 44
f 29 44 45
f 29 45 31
f 29 31 30
f 31 45 32
f 32 45 46
f 32 46 33
f 33 46 47
f 33 47 34
f 34 47 48
f 34 48 49
f 34 49 35
f 35 49 50
f 36 37 51
f 37 52 69
f 37 69 83
f 37 83 100
f 37 100 120
f 37 120 122
f 37 122 102
f 37 102 86
f 37 86 71
f 37 71 53
f 37 53 54
f 37 54 55
f 37 55 56
f 37 56 57
f 37 57 51
f 39 58 40
f 40 58 75
f 40 75 54
f 40 54 53
f 40 53 71
f 40 71 87
f 40 87 104
f 40 104 124
f 40 124 142
f 40 142 159
f 40 159 172
f 40 172 189
f 40 189 191
f 40 191 182
f 40 182 167
f 40 167 166
f 40 166 152
f 40 152 151
f 40 151 133
f 40 133 132
f 40 132 113
f 40 113 112
f 40 112 111
f 40 111 107
f 40 107 106
f 40 106 88
f 40 88 77
f 40 77 60
f 40 60 59
f 40 59 44
f 40 44 43
f 40 43 42
f 40 42 41
f 44 59 45
f 45 59 60
f 45 60 61
f 45 61 46
f 46 61 62
f 46 62 47
f 47 62 63
f 47 63 48
f 48 64 49
f 48 63 65
f 48 65 64
f 49 64 66
f 49 66 50
f 50 66 67
f 50 67 68
f 52 70 69
f 54 72 73
f 54 73 74
f 54 74 55
f 54 75 72
f 55 74 56
f 56 74 76
f 56 76 57
f 60 77 61
f 61 77 78
f 61 78 62
f 62 78 63
f 63 78 79
f 63 79 80
f 63 80 65
f 64 65 66
f 65 80 81
f 65 81 66
f 66 81 67
f 67 81 68
f 68 81 82
f 69 70 84
f 69 84 85
f 69 85 83
f 71 86 87
f 77 88 78
f 78 88 89
f 78 89 90
f 78 90 79
f 79 90 80
f 80 91 81
f 80 90 92
f 80 92 93
f 80 93 91
f 81 91 94
f 81 94 95
f 81 95 96
f 81 96 82
f 82 96 97
f 83 85 98
f 83 98 99
f 83 99 100
f 84 101 98
f 84 98 85
f 86 102 103
f 86 103 87
f 87 103 105
f 87 105 104
f 88 106 89
f 89 106 107
f 89 107 90
f 90 107 108
f 90 108 92
f 91 93 109
f 91 109 94
f 92 108 93
f 93 110 109
f 93 108 111
f 93 111 112
f 93 112 113
f 93 113 114
f 93 114 110
f 94 109 95
f 95 115 97
f 95 97 96
f 95 109 110
f 95 110 115
f 97 115 116
f 98 101 117
f 98 117 118
f 98 118 99
f 99 119 100
f 99 118 119
f 100 119 120
f 101 121 117
f 102 122 103
f 103 122 119
f 103 119 123
f 103 123 105
f 104 105 124
f 105 123 125
f 105 125 126
f 105 126 124
f 107 111 108
f 110 114 127
f 110 127 128
f 110 128 129
f 110 129 130
f 110 130 131
f 110 131 115
f 113 132 114
f 114 132 133
f 114 133 134
f 114 134 127
f 115 131 130
f 115 130 129
f 115 129 135
f 115 135 136
f 115 136 116
f 117 121 137
f 117 137 138
f 117 138 118
f 118 138 139
f 118 139 123
f 118 123 119
f 119 122 120
f 121 140 137
f 123 139 125
f 124 126 141
f 124 141 142
f 125 139 141
f 125 141 126
f 127 143 144
f 127 144 145
f 127 145 128
f 127 134 146
f 127 146 143
f 128 145 129
f 129 145 144
f 129 144 147
f 129 147 148
f 129 148 149
f 129 149 150
f 129 150 135
f 133 151 134
f 134 151 152
f 134 152 153
f 134 153 146
f 135 150 136
f 136 150 149
f 137 140 154
f 137 154 155
f 137 155 156
f 137 156 138
f 138 156 157
f 138 157 158
f 138 158 139
f 139 158 141
f 141 159 142
f 141 158 160
f 141 160 161
f 141 161 159
f 143 162 144
f 143 146 162
f 144 162 163
f 144 163 147
f 146 164 162
f 146 153 165
f 146 165 164
f 152 166 153
f 153 166 167
f 153 167 168
f 153 168 165
f 155 169 156
f 156 169 170
f 156 170 171
f 156 171 158
f 156 158 157
f 158 171 160
f 159 161 172
f 160 171 173
f 160 173 161
f 161 174 175
f 161 175 176
f 161 176 172
f 161 173 174
f 162 177 163
f 162 164 178
f 162 178 179
f 162 179 177
f 164 165 178
f 165 180 179
f 165 179 178
f 165 168 181
f 165 181 180
f 167 182 168
f 168 182 175
f 168 175 181
f 169 183 170
f 170 183 184
f 170 184 185
f 170 185 171
f 171 185 186
f 171 186 187
f 171 187 174
f 171 174 188
f 171 188 173
f 172 176 189
f 173 188 174
f 174 187 190
f 174 190 181
f 174 181 175
f 175 182 191
f 175 191 189
f 175 189 176
f 177 179 192
f 179 180 193
f 179 193 194
f 179 194 195
f 179 195 196
f 179 196 197
f 179 197 192
f 180 181 190
f 180 190 193
f 183 198 184
f 184 198 199
f 184 199 200
f 184 200 185
f 185 200 194
f 185 194 186
f 186 194 201
f 186 201 190
f 186 190 187
f 190 201 194
f 190 194 193
f 194 200 195
f 195 200 199
f 195 199 202
f 195 202 196

