# https://github.com/mikedh/trimesh
v 0.00618654 -0.03355247 0.05783723
v 0.00579067 -0.03550828 0.05879874
v 0.00618654 -0.03550885 0.05879874
v 0.00618654 -0.03355247 0.05569720
v 0.00480215 -0.03355247 0.05783723
v 0.00222901 -0.03550828 0.05879874
v 0.00618654 -0.03915868 0.05879874
v 0.00618654 -0.03679020 0.05425539
v 0.00604222 -0.03355247 0.05569320
v 0.00225924 -0.03355247 0.05783679
v 0.00155421 -0.03551110 0.05879874
v 0.00610041 -0.03916656 0.05879874
v 0.00618654 -0.03915418 0.05863330
v 0.00349989 -0.03355247 0.05568253
v 0.00519459 -0.03355247 0.05568297
v 0.00618654 -0.03897796 0.05425539
v 0.00155079 -0.03690899 0.05425539
v 0.00240127 -0.03355247 0.05568297
v 0.00324891 -0.03355247 0.05568253
v 0.00155421 -0.03355247 0.05783412
v 0.00078415 -0.03583932 0.05879874
v 0.00579067 -0.03917726 0.05879874
v 0.00579067 -0.03918627 0.05848832
v 0.00618654 -0.03914967 0.05848832
v 0.00618654 -0.03901568 0.05509904
v 0.00579067 -0.03911758 0.05679346
v 0.00579067 -0.03907817 0.05594669
v 0.00579067 -0.03899935 0.05425539
v 0.00089025 -0.03701314 0.05425539
v 0.00155421 -0.03355247 0.05571143
v 0.00141332 -0.03355247 0.05779320
v 0.00071000 -0.03355247 0.05754060
v 0.00037003 -0.03668999 0.05879874
v 0.00155421 -0.03930393 0.05879874
v 0.00579067 -0.03915361 0.05764066
v 0.00618654 -0.03908831 0.05679346
v 0.00618654 -0.03912040 0.05764066
v 0.00409540 -0.03923243 0.05764066
v 0.00494304 -0.03919865 0.05764066
v 0.00618654 -0.03905284 0.05594669
v 0.00494304 -0.03915868 0.05679346
v 0.00494304 -0.03907817 0.05509904
v 0.00494304 -0.03903764 0.05425539
v 0.00050864 -0.03753728 0.05425539
v 0.00068490 -0.03355247 0.05607878
v 0.00058280 -0.03355247 0.05731290
v 0.00035919 -0.03355247 0.05679346
v 0.00036718 -0.03753728 0.05879874
v 0.00105681 -0.03914967 0.05879874
v 0.00077959 -0.03901793 0.05679346
v 0.00078814 -0.03900048 0.05594669
v 0.00080126 -0.03897965 0.05509904
v 0.00155421 -0.03929436 0.05848832
v 0.00324891 -0.03925045 0.05764066
v 0.00409540 -0.03919527 0.05679346
v 0.00324891 -0.03921554 0.05679346
v 0.00324891 -0.03917951 0.05594669
v 0.00409540 -0.03915699 0.05594669
v 0.00409540 -0.03911589 0.05509904
v 0.00409540 -0.03907142 0.05425539
v 0.00043962 -0.03838514 0.05425539
v 0.00037117 -0.03753728 0.05679346
v 0.00036718 -0.03753728 0.05764066
v 0.00038657 -0.03838514 0.05879874
v 0.00076818 -0.03905734 0.05879874
v 0.00076932 -0.03905115 0.05848832
v 0.00077388 -0.03903426 0.05764066
v 0.00041966 -0.03838514 0.05509904
v 0.00081952 -0.03895488 0.05425539
v 0.00082465 -0.03895826 0.05425539
v 0.00155421 -0.03926002 0.05764066
v 0.00240127 -0.03925720 0.05764066
v 0.00240127 -0.03922173 0.05679346
v 0.00324891 -0.03913785 0.05509904
v 0.00240127 -0.03918514 0.05594669
v 0.00240127 -0.03914460 0.05509904
v 0.00324891 -0.03909225 0.05425539
v 0.00039228 -0.03838514 0.05764066
v 0.00038771 -0.03838514 0.05848832
v 0.00040654 -0.03838514 0.05594669
v 0.00039798 -0.03838514 0.05679346
v 0.00155421 -0.03914911 0.05509904
v 0.00155421 -0.03918964 0.05594669
v 0.00155421 -0.03922567 0.05679346
v 0.00155421 -0.03910407 0.05425539
v 0.00240127 -0.03909956 0.05425539
f 1 2 3
f 1 3 7
f 1 7 13
f 1 13 24
f 1 24 37
f 1 37 36
f 1 36 40
f 1 40 25
f 1 25 16
f 1 16 8
f 1 8 4
f 1 4 9
f 1 9 15
f 1 15 14
f 1 14 19
f 1 19 18
f 1 18 30
f 1 30 45
f 1 45 47
f 1 47 46
f 1 46 32
f 1 32 31
f 1 31 20
f 1 20 10
f 1 10 5
f 1 5 6
f 1 6 2
f 2 6 11
f 2 11 21
f 2 21 33
f 2 33 48
f 2 48 64
f 2 64 65
f 2 65 49
f 2 49 34
f 2 34 22
f 2 22 12
f 2 12 7
f 2 7 3
f 4 8 9
f 5 10 6
f 6 10 11
f 7 12 13
f 8 14 15
f 8 15 9
f 8 16 28
f 8 28 43
f 8 43 60
f 8 60 77
f 8 77 86
f 8 86 85
f 8 85 70
f 8 70 69
f 8 69 61
f 8 61 44
f 8 44 29
f 8 29 17
f 8 17 18
f 8 18 19
f 8 19 14
f 10 20 11
f 11 20 21
f 12 22 23
f 12 23 13
f 13 23 24
f 16 25 26
f 16 26 27
f 16 27 28
f 17 29 30
f 17 30 18
f 20 31 21
f 21 31 32
f 21 32 33
f 22 34 23
f 23 35 36
f 23 36 37
f 23 37 24
f 23 34 38
f 23 38 39
f 23 39 35
f 25 40 26
f 26 40 35
f 26 35 39
f 26 39 27
f 27 39 28
f 28 39 41
f 28 41 42
f 28 42 43
f 29 44 45
f 29 45 30
f 32 46 33
f 33 46 47
f 33 47 48
f 34 49 50
f 34 50 51
f 34 51 52
f 34 52 53
f 34 53 54
f 34 54 38
f 35 40 36
f 38 55 39
f 38 54 56
f 38 56 57
f 38 57 55
f 39 55 58
f 39 58 41
f 41 58 42
f 42 58 43
f 43 58 59
f 43 59 60
f 44 61 47
f 44 47 45
f 47 62 63
f 47 63 48
f 47 61 62
f 48 63 64
f 49 65 66
f 49 66 50
f 50 66 67
f 50 67 68
f 50 68 51
f 51 68 61
f 51 61 52
f 52 69 70
f 52 70 53
f 52 61 69
f 53 71 72
f 53 72 54
f 53 70 71
f 54 72 56
f 55 57 58
f 56 72 73
f 56 73 57
f 57 74 59
f 57 59 58
f 57 73 75
f 57 75 76
f 57 76 74
f 59 74 60
f 60 74 77
f 61 68 62
f 62 78 79
f 62 79 63
f 62 68 80
f 62 80 81
f 62 81 78
f 63 79 64
f 64 79 65
f 65 79 78
f 65 78 81
f 65 81 80
f 65 80 68
f 65 68 66
f 66 68 67
f 70 82 83
f 70 83 84
f 70 84 71
f 70 85 82
f 71 84 72
f 72 84 73
f 73 84 83
f 73 83 75
f 74 76 86
f 74 86 77
f 75 83 82
f 75 82 76
f 76 82 85
f 76 85 86

