# https://github.com/mikedh/trimesh
v -0.00715534 -0.02397669 0.01950853
v -0.00714879 -0.02397669 0.01866086
v -0.00715534 -0.02397669 0.02035532
v -0.00715534 -0.01211590 0.01950853
v -0.00682055 -0.02397669 0.01793811
v -0.00714879 -0.00570897 0.01866086
v -0.00706437 -0.02397669 0.02120255
v -0.00715534 -0.01296349 0.02035532
v -0.00681910 -0.02313090 0.01793548
v -0.00607456 -0.02397669 0.01763524
v -0.00681910 -0.00570897 0.01793548
v -0.00715098 -0.01211590 0.02035532
v -0.00703016 -0.01211590 0.02120255
v -0.00700250 -0.00570897 0.01913597
v -0.00673467 -0.02397669 0.02176971
v -0.00704399 -0.01296349 0.02120255
v -0.00649086 -0.00570897 0.01780311
v -0.00607237 -0.02313090 0.01763437
v -0.00522812 -0.02397669 0.01763437
v -0.00607237 -0.00570897 0.01763437
v -0.00670483 -0.01211590 0.02174604
v -0.00662914 -0.01156158 0.02170615
v -0.00688751 -0.00570897 0.01950853
v -0.00607237 -0.02397669 0.02191347
v -0.00671429 -0.01296349 0.02174604
v -0.00183876 -0.02397669 0.01763437
v 0.00027914 -0.00570897 0.01763437
v -0.00607237 -0.01211590 0.02186569
v -0.00353017 -0.00570897 0.02181222
v -0.00401779 -0.00570897 0.02169213
v -0.00655782 -0.00570897 0.01997181
v -0.00670265 -0.00570897 0.01976844
v 0.00027914 -0.02397669 0.02211158
v 0.00027914 -0.00570897 0.02208397
v 0.00027914 -0.02355112 0.01764094
v 0.00027914 -0.02397669 0.01764796
v 0.00027914 -0.02313090 0.01763437
f 1 2 5
f 1 5 10
f 1 10 19
f 1 19 26
f 1 26 36
f 1 36 33
f 1 33 24
f 1 24 15
f 1 15 7
f 1 7 3
f 1 3 8
f 1 8 4
f 1 4 6
f 1 6 2
f 2 6 5
f 3 7 8
f 4 8 6
f 5 9 10
f 5 6 11
f 5 11 9
f 6 8 12
f 6 12 13
f 6 13 14
f 6 14 23
f 6 23 32
f 6 32 31
f 6 31 30
f 6 30 29
f 6 29 34
f 6 34 27
f 6 27 20
f 6 20 17
f 6 17 11
f 7 15 16
f 7 16 8
f 8 16 12
f 9 11 17
f 9 17 10
f 10 18 19
f 10 17 20
f 10 20 18
f 12 16 13
f 13 16 21
f 13 21 22
f 13 22 23
f 13 23 14
f 15 24 21
f 15 21 25
f 15 25 16
f 16 25 21
f 18 20 27
f 18 27 37
f 18 37 26
f 18 26 19
f 21 28 29
f 21 29 22
f 21 24 28
f 22 29 30
f 22 30 31
f 22 31 32
f 22 32 23
f 24 33 34
f 24 34 28
f 26 35 36
f 26 37 35
f 27 34 33
f 27 33 36
f 27 36 35
f 27 35 37
f 28 34 29

