# https://github.com/mikedh/trimesh
v 0.00246977 0.01706279 0.02915603
v 0.00240115 0.01706279 0.02915603
v 0.00324820 0.01704634 0.02915603
v 0.00324820 0.02217532 0.02901571
v 0.00155373 0.01695095 0.02915603
v 0.00240115 0.02217532 0.02901571
v 0.00402551 0.01664177 0.02915603
v 0.00360667 0.02217532 0.02887326
v 0.00414812 0.01642359 0.02915603
v 0.00432811 0.01584907 0.02915603
v 0.00151811 0.01693670 0.02915603
v 0.00195007 0.02217532 0.02897159
v 0.00098565 0.01659901 0.02915603
v 0.00401501 0.02217532 0.02871062
v 0.00436223 0.01552234 0.02915603
v 0.00155373 0.02217532 0.02893279
v 0.00086154 0.01584907 0.02915603
v 0.00098715 0.02217532 0.02862770
v 0.00436710 0.02217532 0.02798191
v 0.00437573 0.01500155 0.02915603
v 0.00084429 0.01500155 0.02915603
v 0.00091104 0.02217532 0.02828381
v 0.00084429 0.02217532 0.02798191
v 0.00467382 0.02217532 0.02372662
v 0.00437573 0.01330651 0.02915603
v 0.00467420 0.01754301 0.02372662
v 0.00084429 0.01330651 0.02915603
v 0.00084392 0.02217532 0.02373512
v 0.00084392 0.02217532 0.02372662
v 0.00467308 0.01392817 0.02372662
v 0.00467345 0.01477569 0.02372662
v 0.00467382 0.01562431 0.02372662
v 0.00402776 0.01242610 0.02915603
v 0.00428236 0.01245899 0.02798191
v 0.00467157 0.01245899 0.02372662
v 0.00467270 0.01330651 0.02372662
v 0.00084392 0.01244035 0.02372662
v 0.00084429 0.01245899 0.02713468
v 0.00087991 0.01245899 0.02798191
v 0.00093353 0.01275063 0.02915603
v 0.00324820 0.01206757 0.02915603
v 0.00379903 0.01197219 0.02861388
v 0.00393064 0.01186693 0.02798191
v 0.00440460 0.01158625 0.02372662
v 0.00096803 0.01157310 0.02372662
v 0.00098715 0.01184610 0.02713468
v 0.00098715 0.01247105 0.02915603
v 0.00102315 0.01190860 0.02798191
v 0.00240790 0.01206538 0.02915603
v 0.00240115 0.01169041 0.02798191
v 0.00324820 0.01169370 0.02798191
v 0.00324820 0.01152485 0.02713468
v 0.00324820 0.01099748 0.02372662
v 0.00412450 0.01129242 0.02372662
v 0.00400226 0.01178032 0.02713468
v 0.00097553 0.01154898 0.02372662
v 0.00129088 0.01116523 0.02372662
v 0.00120051 0.01232304 0.02915603
v 0.00108277 0.01198863 0.02856711
v 0.00155373 0.01104573 0.02372662
v 0.00155373 0.01159064 0.02713468
v 0.00240115 0.01206538 0.02915603
v 0.00155373 0.01195026 0.02868777
v 0.00155373 0.01173646 0.02798191
v 0.00240115 0.01152485 0.02713468
v 0.00240115 0.01097556 0.02372662
v 0.00261601 0.01097884 0.02372662
v 0.00155373 0.01210704 0.02915603
v 0.00181620 0.01102161 0.02372662
v 0.00162010 0.01210156 0.02915603
f 1 2 5
f 1 5 11
f 1 11 13
f 1 13 17
f 1 17 21
f 1 21 27
f 1 27 40
f 1 40 47
f 1 47 58
f 1 58 68
f 1 68 70
f 1 70 62
f 1 62 49
f 1 49 41
f 1 41 33
f 1 33 25
f 1 25 20
f 1 20 15
f 1 15 10
f 1 10 9
f 1 9 7
f 1 7 3
f 1 3 4
f 1 4 6
f 1 6 2
f 2 6 5
f 3 7 4
f 4 8 14
f 4 14 19
f 4 19 24
f 4 24 29
f 4 29 28
f 4 28 23
f 4 23 22
f 4 22 18
f 4 18 16
f 4 16 12
f 4 12 6
f 4 7 9
f 4 9 10
f 4 10 8
f 5 6 11
f 6 12 13
f 6 13 11
f 8 10 14
f 10 15 14
f 12 16 13
f 13 16 18
f 13 18 17
f 14 15 19
f 15 20 19
f 17 18 22
f 17 22 23
f 17 23 21
f 19 20 24
f 20 25 26
f 20 26 24
f 21 23 28
f 21 28 27
f 24 26 32
f 24 32 31
f 24 31 30
f 24 30 36
f 24 36 35
f 24 35 44
f 24 44 54
f 24 54 53
f 24 53 67
f 24 67 66
f 24 66 69
f 24 69 60
f 24 60 57
f 24 57 56
f 24 56 45
f 24 45 37
f 24 37 29
f 25 30 31
f 25 31 32
f 25 32 26
f 25 33 34
f 25 34 35
f 25 35 36
f 25 36 30
f 27 28 37
f 27 37 38
f 27 38 39
f 27 39 40
f 28 29 37
f 33 41 42
f 33 42 43
f 33 43 34
f 34 43 44
f 34 44 35
f 37 45 38
f 38 45 46
f 38 46 39
f 39 47 40
f 39 46 48
f 39 48 47
f 41 49 50
f 41 50 51
f 41 51 42
f 42 51 43
f 43 51 52
f 43 52 53
f 43 53 54
f 43 54 55
f 43 55 44
f 44 55 54
f 45 56 46
f 46 56 57
f 46 57 48
f 47 48 59
f 47 59 58
f 48 57 60
f 48 60 61
f 48 61 59
f 49 62 50
f 50 63 64
f 50 64 65
f 50 65 52
f 50 52 51
f 50 62 63
f 52 65 66
f 52 66 67
f 52 67 53
f 58 59 68
f 59 61 64
f 59 64 63
f 59 63 68
f 60 69 61
f 61 69 66
f 61 66 65
f 61 65 64
f 62 70 63
f 63 70 68

