# https://github.com/mikedh/trimesh
v 0.00618654 -0.03041817 0.05879737
v 0.00240050 -0.03041817 0.05879737
v 0.00618654 -0.03291140 0.05879737
v 0.00618654 -0.03025184 0.05723029
v 0.00271747 -0.02817546 0.05001545
v 0.00241086 -0.02817546 0.05039460
v 0.00197580 -0.02817546 0.05044097
v 0.00155317 -0.02817546 0.05047371
v 0.00109429 -0.02817546 0.05047507
v -0.00145080 -0.02817546 0.05047780
v 0.00155317 -0.03048238 0.05879737
v -0.00183510 -0.02817546 0.05047780
v -0.00268243 -0.02817546 0.05047643
v -0.00350697 -0.02817546 0.05029368
v 0.00324783 -0.03291140 0.05879737
v 0.00618654 -0.03355247 0.05783721
v 0.00618654 -0.03020605 0.05679249
v 0.00302719 -0.02817546 0.04845928
v 0.00020967 -0.03030763 0.05735986
v 0.00080218 -0.03084870 0.05879737
v -0.00345932 -0.02843179 0.05088832
v -0.00404251 -0.02849916 0.05062237
v -0.00366960 -0.02817546 0.05018047
v 0.00240050 -0.03291087 0.05879737
v 0.00225859 -0.03355247 0.05783585
v 0.00480160 -0.03355247 0.05783721
v 0.00618654 -0.03355247 0.05569594
v 0.00618654 -0.03016079 0.05592371
v 0.00327165 -0.02817546 0.04662624
v 0.00318464 -0.02817546 0.04743229
v 0.00022728 -0.03100029 0.05816181
v 0.00059190 -0.03144504 0.05879737
v -0.00412123 -0.02838073 0.05001545
v -0.00427557 -0.02906391 0.05001545
v -0.00407669 -0.02906391 0.05074102
v -0.00374832 -0.02817546 0.05001545
v 0.00155317 -0.03289929 0.05879737
v 0.00155317 -0.03355247 0.05783312
v 0.00618654 -0.03172557 0.05491309
v 0.00604152 -0.03355247 0.05569185
v 0.00155317 -0.03152873 0.04486549
v 0.00231452 -0.03150557 0.04486549
v 0.00240050 -0.03150293 0.04486549
v 0.00291014 -0.03136030 0.04486549
v 0.00297332 -0.03133451 0.04486549
v 0.00319500 -0.03075870 0.04486549
v 0.00618654 -0.03021395 0.05525269
v 0.00327579 -0.02817546 0.04486549
v 0.00327579 -0.02817546 0.04658396
v 0.00056290 -0.03161873 0.05879737
v -0.00359502 -0.02991131 0.05170937
v -0.00435326 -0.02906391 0.04916712
v -0.00385087 -0.02817546 0.04962811
v -0.00413263 -0.02817546 0.04843064
v -0.00426314 -0.02817546 0.04746911
v -0.00435223 -0.02817546 0.04662624
v -0.00434808 -0.02991131 0.04916712
v -0.00433772 -0.03075870 0.04916712
v -0.00424243 -0.02991131 0.05001545
v -0.00404872 -0.02991131 0.05072466
v -0.00390370 -0.02991131 0.05114882
v 0.00146409 -0.03288403 0.05879737
v 0.00141229 -0.03355247 0.05779220
v 0.00618654 -0.03160557 0.05488172
v 0.00327579 -0.02991131 0.04486549
v 0.00519419 -0.03355247 0.05568230
v -0.00268243 -0.03152873 0.04486549
v 0.00618654 -0.03076239 0.05492263
v -0.00376386 -0.02817546 0.04486549
v 0.00618654 -0.03093976 0.05491309
v -0.00230124 -0.03075870 0.05389973
v 0.00045517 -0.03160557 0.05861189
v -0.00045535 -0.03160557 0.05702708
v 0.00024385 -0.03211716 0.05813181
v 0.00082393 -0.03241296 0.05879737
v -0.00355876 -0.03075870 0.05170937
v -0.00296833 -0.03075870 0.05273909
v -0.00435533 -0.02821652 0.04662624
v -0.00437294 -0.02828020 0.04486549
v -0.00438745 -0.02915023 0.04486549
v -0.00439573 -0.02991131 0.04486549
v -0.00435533 -0.03075870 0.04832016
v -0.00435430 -0.02817546 0.04577792
v -0.00414298 -0.03146451 0.04916712
v -0.00407358 -0.03141977 0.05001545
v -0.00420721 -0.03075870 0.05001545
v -0.00402490 -0.03075870 0.05065510
v -0.00387781 -0.03075870 0.05107790
v 0.00070999 -0.03355247 0.05753989
v 0.00240050 -0.03355247 0.05568230
v -0.00276944 -0.03152609 0.04486549
v 0.00155317 -0.03355247 0.05571095
v -0.00435119 -0.02817862 0.04486549
v -0.00434808 -0.02817546 0.04493096
v -0.00069877 -0.03160557 0.05660291
v -0.00160618 -0.03160557 0.05501538
v -0.00224219 -0.03195032 0.05380426
v -0.00064491 -0.03213980 0.05651017
v -0.00316825 -0.03143609 0.05223855
v -0.00435533 -0.02817546 0.04497188
v -0.00435948 -0.02821652 0.04486549
v -0.00439055 -0.02999815 0.04486549
v -0.00435533 -0.03075870 0.04747320
v -0.00415438 -0.03143714 0.04832016
v -0.00352976 -0.03179926 0.04916712
v -0.00314131 -0.03204453 0.05114473
v -0.00314131 -0.03204453 0.05148706
v -0.00399589 -0.03130345 0.05056372
v -0.00307295 -0.03200084 0.05205033
v 0.00058361 -0.03355247 0.05731212
v -0.00352976 -0.03149925 0.04486549
v 0.00068513 -0.03355247 0.05607783
v -0.00432840 -0.03075870 0.04486549
v -0.00430665 -0.03083607 0.04486549
v -0.00415438 -0.03140662 0.04747320
v -0.00411709 -0.03133609 0.04486549
v 0.00035987 -0.03355247 0.05679249
v -0.00360745 -0.03147925 0.04486549
f 1 2 11
f 1 11 20
f 1 20 32
f 1 32 50
f 1 50 75
f 1 75 62
f 1 62 37
f 1 37 24
f 1 24 15
f 1 15 3
f 1 3 16
f 1 16 27
f 1 27 39
f 1 39 64
f 1 64 70
f 1 70 68
f 1 68 47
f 1 47 28
f 1 28 17
f 1 17 4
f 1 4 5
f 1 5 6
f 1 6 7
f 1 7 8
f 1 8 9
f 1 9 10
f 1 10 12
f 1 12 2
f 2 12 13
f 2 13 14
f 2 14 11
f 3 15 26
f 3 26 16
f 4 17 5
f 5 18 30
f 5 30 29
f 5 29 49
f 5 49 48
f 5 48 69
f 5 69 94
f 5 94 100
f 5 100 83
f 5 83 56
f 5 56 55
f 5 55 54
f 5 54 53
f 5 53 36
f 5 36 23
f 5 23 14
f 5 14 13
f 5 13 12
f 5 12 10
f 5 10 9
f 5 9 8
f 5 8 7
f 5 7 6
f 5 17 18
f 11 19 20
f 11 14 21
f 11 21 22
f 11 22 19
f 14 23 21
f 15 24 25
f 15 25 26
f 16 26 25
f 16 25 38
f 16 38 63
f 16 63 89
f 16 89 110
f 16 110 117
f 16 117 112
f 16 112 92
f 16 92 90
f 16 90 66
f 16 66 40
f 16 40 27
f 17 28 29
f 17 29 30
f 17 30 18
f 19 22 20
f 20 31 32
f 20 22 31
f 21 23 22
f 22 23 33
f 22 33 34
f 22 34 35
f 22 35 31
f 23 36 33
f 24 37 38
f 24 38 25
f 27 40 41
f 27 41 42
f 27 42 43
f 27 43 44
f 27 44 45
f 27 45 46
f 27 46 39
f 28 47 48
f 28 48 49
f 28 49 29
f 31 50 32
f 31 35 51
f 31 51 50
f 33 52 34
f 33 36 53
f 33 53 54
f 33 54 55
f 33 55 56
f 33 56 52
f 34 52 57
f 34 57 58
f 34 58 59
f 34 59 60
f 34 60 35
f 35 60 61
f 35 61 51
f 37 62 38
f 38 62 63
f 39 46 65
f 39 65 64
f 40 66 41
f 41 67 91
f 41 91 111
f 41 111 118
f 41 118 116
f 41 116 114
f 41 114 113
f 41 113 102
f 41 102 81
f 41 81 80
f 41 80 79
f 41 79 101
f 41 101 93
f 41 93 69
f 41 69 48
f 41 48 65
f 41 65 46
f 41 46 45
f 41 45 44
f 41 44 43
f 41 43 42
f 41 66 90
f 41 90 67
f 47 68 48
f 48 68 70
f 48 70 64
f 48 64 65
f 50 71 72
f 50 72 73
f 50 73 74
f 50 74 75
f 50 51 71
f 51 61 76
f 51 76 77
f 51 77 71
f 52 56 78
f 52 78 79
f 52 79 80
f 52 80 81
f 52 81 82
f 52 82 57
f 56 83 79
f 56 79 78
f 57 82 58
f 58 84 85
f 58 85 86
f 58 86 59
f 58 82 84
f 59 86 60
f 60 86 87
f 60 87 61
f 61 87 88
f 61 88 76
f 62 75 89
f 62 89 63
f 67 90 92
f 67 92 91
f 69 93 94
f 71 77 72
f 72 77 73
f 73 95 74
f 73 77 95
f 74 95 96
f 74 96 97
f 74 97 98
f 74 98 89
f 74 89 75
f 76 88 99
f 76 99 97
f 76 97 96
f 76 96 95
f 76 95 77
f 79 83 100
f 79 100 101
f 81 102 103
f 81 103 82
f 82 103 104
f 82 104 84
f 84 105 106
f 84 106 107
f 84 107 85
f 84 104 105
f 85 108 86
f 85 107 109
f 85 109 108
f 86 108 87
f 87 108 88
f 88 108 99
f 89 98 110
f 91 92 111
f 92 112 111
f 93 101 100
f 93 100 94
f 97 110 98
f 97 99 109
f 97 109 110
f 99 108 109
f 102 113 103
f 103 113 114
f 103 114 104
f 104 114 115
f 104 115 116
f 104 116 105
f 105 116 117
f 105 117 106
f 106 117 107
f 107 117 109
f 109 117 110
f 111 112 117
f 111 117 118
f 114 116 115
f 116 118 117

