# https://github.com/mikedh/trimesh
v 0.01076587 0.00059532 0.05885812
v 0.01076587 -0.00025173 0.05883092
v 0.01076587 0.00124795 0.05883475
v 0.00735138 0.00059502 0.06271272
v 0.01076587 -0.00027186 0.05882134
v 0.00735138 -0.00018713 0.06266867
v 0.00735138 -0.00025173 0.06266445
v 0.01076587 0.00144236 0.05882709
v 0.00735138 0.00146881 0.06253610
v 0.01076587 0.00155023 0.05880793
v 0.01076587 0.00160011 0.05879874
v 0.01076587 -0.00031873 0.05879874
v 0.00735138 -0.00061260 0.06248208
v 0.00735138 0.00191682 0.06187483
v 0.00989052 0.00204302 0.05879874
v 0.00991492 -0.00086951 0.05879874
v 0.00735138 -0.00081062 0.06222041
v 0.00735138 0.00195137 0.06178288
v 0.00973778 0.00211814 0.05879874
v 0.00833335 -0.00089986 0.05922822
v 0.00833335 -0.00087792 0.05879874
v 0.00735138 -0.00086620 0.06182771
v 0.00748574 -0.00092991 0.06103005
v 0.00735138 -0.00094012 0.06103005
v 0.00748574 -0.00095094 0.06018373
v 0.00833335 -0.00090527 0.05933626
v 0.00735138 0.00198112 0.06127448
v 0.00735171 0.00203280 0.05879874
v 0.00735138 0.00203280 0.05922860
v 0.00735138 0.00203280 0.06031782
v 0.00748607 -0.00087852 0.05879874
v 0.00748607 -0.00090106 0.05922822
v 0.00735138 -0.00095094 0.06018373
v 0.00735171 -0.00087852 0.05879874
v 0.00735138 -0.00090076 0.05922860
f 1 2 5
f 1 5 12
f 1 12 11
f 1 11 10
f 1 10 8
f 1 8 3
f 1 3 4
f 1 4 2
f 2 4 6
f 2 6 7
f 2 7 5
f 3 8 4
f 4 9 14
f 4 14 18
f 4 18 27
f 4 27 30
f 4 30 29
f 4 29 35
f 4 35 33
f 4 33 24
f 4 24 22
f 4 22 17
f 4 17 13
f 4 13 7
f 4 7 6
f 4 8 10
f 4 10 11
f 4 11 9
f 5 7 12
f 7 13 12
f 9 11 14
f 11 12 16
f 11 16 21
f 11 21 31
f 11 31 34
f 11 34 28
f 11 28 19
f 11 19 15
f 11 15 14
f 12 13 17
f 12 17 16
f 14 15 19
f 14 19 18
f 16 20 21
f 16 17 22
f 16 22 23
f 16 23 24
f 16 24 25
f 16 25 26
f 16 26 20
f 18 19 27
f 19 28 29
f 19 29 30
f 19 30 27
f 20 26 25
f 20 25 21
f 21 25 32
f 21 32 31
f 22 24 23
f 24 33 25
f 25 33 32
f 28 34 35
f 28 35 29
f 31 32 34
f 32 33 34
f 33 35 34

