# https://github.com/mikedh/trimesh
v 0.01441815 0.01511751 0.08730062
v 0.01440165 0.01584853 0.08730062
v 0.01434804 0.01511751 0.08814918
v 0.01438103 0.01511751 0.08718475
v 0.01413909 0.01584853 0.08645717
v 0.01412672 0.01669598 0.08645717
v 0.01411297 0.01754301 0.08645717
v 0.01408411 0.01923792 0.08645717
v 0.01407861 0.01952343 0.08645717
v 0.01437828 0.01669598 0.08730062
v 0.01428893 0.01754301 0.08814918
v 0.01426006 0.01584853 0.08899604
v 0.01427793 0.01511751 0.08899604
v 0.01414734 0.01511751 0.08645547
v 0.01003162 0.01511751 0.08221948
v 0.01422020 0.01952343 0.08701606
v 0.01432742 0.01839046 0.08730062
v 0.01435354 0.01754301 0.08730062
v 0.00996151 0.01952343 0.08240521
v 0.01426556 0.01839046 0.08814918
v 0.01419683 0.01839046 0.08899604
v 0.01421470 0.01511751 0.08972703
v 0.00917933 0.01511751 0.08161117
v 0.01428756 0.01952343 0.08730062
v 0.01424769 0.01952343 0.08786292
v 0.01422707 0.01952343 0.08814918
v 0.00969895 0.01952343 0.08232512
v 0.01416384 0.01952343 0.08899604
v 0.01417346 0.01923792 0.08899604
v 0.01409098 0.01952343 0.08984289
v 0.01418583 0.01584853 0.08984289
v 0.01420370 0.01511751 0.08984289
v 0.00409723 0.01839046 0.08378881
v 0.00917933 0.01952343 0.08216836
v 0.00845901 0.01511751 0.08221948
v 0.00409723 0.01595634 0.08409381
v 0.00360510 0.01610212 0.08421649
v 0.00409723 0.01669598 0.08383822
v 0.00409723 0.01754301 0.08381096
v 0.01393289 0.01952343 0.09073917
v 0.01397551 0.01839046 0.09068805
v 0.01399888 0.01754301 0.09068805
v 0.01404424 0.01584853 0.09068805
v 0.01406349 0.01511751 0.09068805
v 0.01408273 0.01511751 0.09057218
v 0.00357073 0.01839046 0.08412448
v 0.00360510 0.01891662 0.08418923
v 0.00850438 0.01952343 0.08240521
v 0.00357073 0.01669598 0.08415175
v 0.00674207 0.01511751 0.08475323
v 0.00409723 0.01572906 0.08475835
v 0.00357073 0.01605812 0.08475835
v 0.00076918 0.01676240 0.09492574
v 0.00040077 0.01754301 0.09492574
v 0.01378031 0.01952343 0.09135770
v 0.01393152 0.01929916 0.09077154
v 0.01392190 0.01511751 0.09126909
v 0.00047226 0.01839046 0.09492574
v 0.00409723 0.01914261 0.08475835
v 0.00409723 0.01902358 0.08405803
v 0.00083929 0.01896406 0.09492574
v 0.00662797 0.01952343 0.08473960
v 0.00644789 0.01511751 0.08560691
v 0.00642452 0.01511751 0.08645376
v 0.00642040 0.01511751 0.08984289
v 0.00642040 0.01511751 0.09323032
v 0.00155411 0.01640487 0.09492574
v 0.00075681 0.01677706 0.09577260
v 0.00037466 0.01754301 0.09577260
v 0.01352600 0.01952343 0.09238347
v 0.01381055 0.01511751 0.09172063
v 0.01387928 0.01669598 0.09126909
v 0.00047363 0.01839046 0.09577260
v 0.00635304 0.01952343 0.08560691
v 0.00661285 0.01952343 0.08477709
v 0.00155411 0.01911544 0.09492574
v 0.00085579 0.01894854 0.09577260
v 0.00643827 0.01511751 0.09339901
v 0.00155411 0.01643420 0.09577260
v 0.00078018 0.01690774 0.09746801
v 0.00039803 0.01754301 0.09746801
v 0.01330468 0.01952343 0.09323032
v 0.01331292 0.01923792 0.09323032
v 0.01360298 0.01669598 0.09238347
v 0.01362497 0.01584853 0.09238347
v 0.01364284 0.01511751 0.09238347
v 0.00057123 0.01839046 0.09746801
v 0.00633104 0.01952343 0.08645376
v 0.00155411 0.01908568 0.09577260
v 0.00636266 0.01952343 0.09410444
v 0.00635166 0.01952343 0.09407888
v 0.00627606 0.01952343 0.09331382
v 0.00627468 0.01952343 0.09323032
v 0.00095201 0.01887910 0.09746801
v 0.00667333 0.01511751 0.09413170
v 0.00155411 0.01669598 0.09746801
v 0.00085441 0.01697976 0.09831487
v 0.00673794 0.01511751 0.09428165
v 0.00048600 0.01754301 0.09831487
v 0.01316034 0.01952343 0.09369550
v 0.01310398 0.01839046 0.09400561
v 0.01339678 0.01584853 0.09323032
v 0.01344352 0.01511751 0.09311445
v 0.00076918 0.01845990 0.09835577
v 0.00101937 0.01885365 0.09809847
v 0.00155411 0.01894422 0.09746801
v 0.00670358 0.01952343 0.09484906
v 0.00155411 0.01685081 0.09831487
v 0.00099188 0.01706170 0.09880220
v 0.00688503 0.01511751 0.09439922
v 0.00084891 0.01754301 0.09889591
v 0.00089428 0.01822356 0.09888399
v 0.01309160 0.01952343 0.09389656
v 0.01309573 0.01923792 0.09393234
v 0.01296926 0.01839046 0.09442989
v 0.01311360 0.01754301 0.09403288
v 0.01341190 0.01511751 0.09323032
v 0.00155411 0.01875403 0.09859432
v 0.00155411 0.01887349 0.09817004
v 0.00678743 0.01952343 0.09487633
v 0.00743764 0.01511751 0.09459688
v 0.00155411 0.01704402 0.09881924
v 0.00155411 0.01754301 0.09901860
v 0.00748438 0.01511751 0.09460710
v 0.00155411 0.01833052 0.09893851
v 0.01295414 0.01952343 0.09417771
v 0.01219808 0.01810280 0.09628889
v 0.01281255 0.01754301 0.09492574
v 0.01297888 0.01754301 0.09445716
v 0.01246476 0.01754301 0.09577260
v 0.01312322 0.01669598 0.09405162
v 0.01313972 0.01511751 0.09392042
v 0.01298301 0.01669598 0.09447590
v 0.00748438 0.01854227 0.09846141
v 0.00833254 0.01887134 0.09802179
v 0.00748438 0.01887349 0.09803713
v 0.01087428 0.01952343 0.09508080
v 0.01010860 0.01952343 0.09509102
v 0.00925906 0.01952343 0.09509443
v 0.00840952 0.01952343 0.09509613
v 0.00833254 0.01952343 0.09509613
v 0.00756411 0.01952343 0.09508250
v 0.00748438 0.01952343 0.09508080
v 0.00833254 0.01692801 0.09822115
v 0.00748438 0.01725319 0.09868292
v 0.00833254 0.01511751 0.09461562
v 0.00835316 0.01511751 0.09461562
v 0.01088116 0.01511751 0.09460029
v 0.01172245 0.01511751 0.09459518
v 0.00748438 0.01767627 0.09880220
v 0.00833254 0.01778366 0.09878004
v 0.00833254 0.01806701 0.09878004
v 0.00748438 0.01811833 0.09880220
v 0.01250463 0.01952343 0.09468889
v 0.01118496 0.01875144 0.09694320
v 0.01200975 0.01866777 0.09608612
v 0.01144614 0.01818647 0.09719368
v 0.01189978 0.01754301 0.09672510
v 0.01220770 0.01754301 0.09630252
v 0.01262422 0.01511751 0.09436514
v 0.01217608 0.01708068 0.09624459
v 0.01138703 0.01704704 0.09713745
v 0.00833254 0.01849052 0.09844437
v 0.00917933 0.01885322 0.09796727
v 0.01172245 0.01952343 0.09502968
v 0.01096776 0.01952343 0.09507739
v 0.00917933 0.01694224 0.09814959
v 0.01217608 0.01511751 0.09454406
v 0.00833254 0.01735971 0.09864543
v 0.00881505 0.01790787 0.09875278
v 0.00881505 0.01800318 0.09875278
v 0.01238778 0.01952343 0.09476216
v 0.00967008 0.01882950 0.09791615
v 0.01023507 0.01871349 0.09774917
v 0.01088391 0.01844998 0.09747142
v 0.01147638 0.01754301 0.09722605
v 0.01058286 0.01814852 0.09798771
v 0.01240290 0.01511751 0.09447590
v 0.01048663 0.01709750 0.09791445
v 0.01100075 0.01754301 0.09765033
v 0.01185166 0.01952343 0.09499560
v 0.01002750 0.01702116 0.09802009
v 0.00912984 0.01759260 0.09857046
v 0.01002750 0.01754301 0.09825864
v 0.00998213 0.01841462 0.09809677
v 0.01057736 0.01754301 0.09798090
f 1 2 3
f 1 3 13
f 1 13 22
f 1 22 32
f 1 32 45
f 1 45 44
f 1 44 57
f 1 57 71
f 1 71 86
f 1 86 103
f 1 103 117
f 1 117 132
f 1 132 160
f 1 160 178
f 1 178 168
f 1 168 149
f 1 149 148
f 1 148 147
f 1 147 146
f 1 146 124
f 1 124 121
f 1 121 110
f 1 110 98
f 1 98 95
f 1 95 78
f 1 78 66
f 1 66 65
f 1 65 64
f 1 64 63
f 1 63 50
f 1 50 35
f 1 35 23
f 1 23 15
f 1 15 14
f 1 14 4
f 1 4 5
f 1 5 6
f 1 6 7
f 1 7 8
f 1 8 9
f 1 9 2
f 2 9 10
f 2 10 20
f 2 20 11
f 2 11 12
f 2 12 13
f 2 13 3
f 4 14 5
f 5 14 15
f 5 15 6
f 6 15 7
f 7 15 8
f 8 15 9
f 9 16 17
f 9 17 18
f 9 18 10
f 9 15 19
f 9 19 27
f 9 27 34
f 9 34 48
f 9 48 62
f 9 62 75
f 9 75 74
f 9 74 88
f 9 88 93
f 9 93 92
f 9 92 91
f 9 91 90
f 9 90 107
f 9 107 120
f 9 120 143
f 9 143 142
f 9 142 141
f 9 141 140
f 9 140 139
f 9 139 138
f 9 138 137
f 9 137 166
f 9 166 165
f 9 165 181
f 9 181 172
f 9 172 154
f 9 154 126
f 9 126 113
f 9 113 100
f 9 100 82
f 9 82 70
f 9 70 55
f 9 55 40
f 9 40 30
f 9 30 28
f 9 28 26
f 9 26 25
f 9 25 24
f 9 24 16
f 10 18 20
f 11 20 29
f 11 29 21
f 11 21 12
f 12 21 22
f 12 22 13
f 15 23 19
f 16 24 17
f 17 24 25
f 17 25 26
f 17 26 20
f 17 20 18
f 19 23 27
f 20 26 28
f 20 28 29
f 21 29 30
f 21 30 31
f 21 31 22
f 22 31 32
f 23 33 34
f 23 34 27
f 23 35 36
f 23 36 37
f 23 37 38
f 23 38 39
f 23 39 33
f 28 30 29
f 30 40 41
f 30 41 42
f 30 42 43
f 30 43 44
f 30 44 31
f 31 44 45
f 31 45 32
f 33 46 47
f 33 47 48
f 33 48 34
f 33 39 49
f 33 49 46
f 35 50 51
f 35 51 36
f 36 51 37
f 37 49 38
f 37 51 52
f 37 52 53
f 37 53 54
f 37 54 49
f 38 49 39
f 40 55 56
f 40 56 42
f 40 42 41
f 42 56 43
f 43 56 57
f 43 57 44
f 46 54 58
f 46 58 47
f 46 49 54
f 47 59 60
f 47 60 48
f 47 58 61
f 47 61 59
f 48 60 59
f 48 59 62
f 50 63 51
f 51 63 64
f 51 64 65
f 51 65 66
f 51 66 67
f 51 67 53
f 51 53 52
f 53 67 68
f 53 68 69
f 53 69 54
f 54 69 58
f 55 70 71
f 55 71 56
f 56 71 72
f 56 72 57
f 57 72 71
f 58 69 73
f 58 73 61
f 59 74 75
f 59 75 62
f 59 61 76
f 59 76 74
f 61 73 77
f 61 77 76
f 66 78 67
f 67 78 79
f 67 79 68
f 68 79 80
f 68 80 81
f 68 81 69
f 69 81 73
f 70 82 83
f 70 83 84
f 70 84 71
f 71 84 85
f 71 85 86
f 73 81 87
f 73 87 77
f 74 76 88
f 76 77 89
f 76 89 90
f 76 90 91
f 76 91 92
f 76 92 93
f 76 93 88
f 77 87 94
f 77 94 89
f 78 95 79
f 79 96 97
f 79 97 80
f 79 95 98
f 79 98 96
f 80 97 99
f 80 99 81
f 81 99 87
f 82 100 101
f 82 101 83
f 83 102 85
f 83 85 84
f 83 101 102
f 85 102 86
f 86 102 103
f 87 99 104
f 87 104 105
f 87 105 94
f 89 94 105
f 89 105 106
f 89 106 107
f 89 107 90
f 96 98 97
f 97 108 109
f 97 109 99
f 97 98 108
f 98 110 108
f 99 109 111
f 99 111 112
f 99 112 104
f 100 113 114
f 100 114 115
f 100 115 101
f 101 116 102
f 101 115 129
f 101 129 116
f 102 117 103
f 102 116 117
f 104 112 105
f 105 112 118
f 105 118 119
f 105 119 107
f 105 107 106
f 107 119 120
f 108 110 121
f 108 121 109
f 109 122 123
f 109 123 111
f 109 121 124
f 109 124 122
f 111 123 112
f 112 123 125
f 112 125 118
f 113 115 114
f 113 126 127
f 113 127 115
f 115 128 129
f 115 127 130
f 115 130 128
f 116 131 117
f 116 129 131
f 117 131 133
f 117 133 132
f 118 125 134
f 118 134 135
f 118 135 136
f 118 136 119
f 119 136 137
f 119 137 138
f 119 138 139
f 119 139 140
f 119 140 141
f 119 141 142
f 119 142 143
f 119 143 120
f 122 144 145
f 122 145 123
f 122 124 146
f 122 146 147
f 122 147 148
f 122 148 149
f 122 149 144
f 123 145 150
f 123 150 151
f 123 151 152
f 123 152 153
f 123 153 125
f 125 153 134
f 126 154 155
f 126 155 156
f 126 156 127
f 127 156 157
f 127 157 158
f 127 158 159
f 127 159 130
f 128 133 129
f 128 130 133
f 129 133 131
f 130 159 132
f 130 132 133
f 132 159 161
f 132 161 162
f 132 162 160
f 134 153 163
f 134 163 135
f 135 163 164
f 135 164 165
f 135 165 166
f 135 166 137
f 135 137 136
f 144 167 145
f 144 149 168
f 144 168 167
f 145 169 151
f 145 151 150
f 145 167 169
f 151 169 170
f 151 170 171
f 151 171 152
f 152 171 163
f 152 163 153
f 154 172 173
f 154 173 174
f 154 174 155
f 155 174 175
f 155 175 157
f 155 157 156
f 157 176 158
f 157 175 177
f 157 177 176
f 158 176 161
f 158 161 159
f 160 162 179
f 160 179 178
f 161 176 162
f 162 176 180
f 162 180 179
f 163 171 173
f 163 173 164
f 164 173 181
f 164 181 165
f 167 182 169
f 167 168 182
f 168 178 182
f 169 183 170
f 169 182 183
f 170 183 184
f 170 184 171
f 171 184 177
f 171 177 185
f 171 185 173
f 172 181 173
f 173 185 174
f 174 185 177
f 174 177 175
f 176 177 180
f 177 186 180
f 177 184 186
f 178 179 182
f 179 180 186
f 179 186 184
f 179 184 183
f 179 183 182

