# https://github.com/mikedh/trimesh
v 0.01309913 0.02817042 0.05879874
v 0.01309913 0.02817042 0.05573539
v 0.00823393 0.02817042 0.05879874
v 0.01309913 0.01821675 0.05879874
v 0.01049271 0.02481550 0.05296592
v 0.01076749 0.02601696 0.05355595
v 0.01063700 0.02659284 0.05370117
v 0.01002790 0.02709174 0.05403106
v 0.01002790 0.02743766 0.05445471
v 0.01087465 0.02817042 0.05564620
v 0.01309913 0.01821675 0.05573539
v 0.00823393 0.02817042 0.05764098
v 0.00823393 0.01821675 0.05879874
v 0.01049271 0.02467908 0.05296592
v 0.01002790 0.02485058 0.05295792
v 0.01002790 0.02527445 0.05305054
v 0.01002790 0.02601696 0.05328380
v 0.01002790 0.02666884 0.05363770
v 0.00918068 0.02709174 0.05403106
v 0.01002790 0.02817042 0.05562505
v 0.00918068 0.02743766 0.05445471
v 0.01002790 0.01821675 0.05573539
v 0.01002790 0.02347470 0.05330496
v 0.00824012 0.02817042 0.05725163
v 0.00823393 0.02686373 0.05594579
v 0.00823393 0.01821675 0.05679367
v 0.01002790 0.02422208 0.05305568
v 0.01002790 0.02464595 0.05295792
v 0.00918068 0.02485058 0.05295792
v 0.00918068 0.02527445 0.05305968
v 0.00918068 0.02601696 0.05329295
v 0.00918068 0.02666884 0.05363770
v 0.00863159 0.02738796 0.05452846
v 0.00862587 0.02659284 0.05370117
v 0.00918068 0.02817042 0.05565478
v 0.00935546 0.01821675 0.05574797
v 0.00918068 0.02347470 0.05331353
v 0.00825346 0.02817042 0.05679367
v 0.00826631 0.02601696 0.05425175
v 0.00823393 0.02601696 0.05509905
v 0.00827250 0.02347470 0.05425175
v 0.00849538 0.01821675 0.05606814
v 0.00823393 0.02432147 0.05425175
v 0.00918068 0.02422208 0.05306426
v 0.00918068 0.02464595 0.05295792
v 0.00873017 0.02481550 0.05296592
v 0.00849824 0.02687054 0.05424832
v 0.00835299 0.02817042 0.05636601
v 0.00848776 0.02817042 0.05599782
v 0.00852777 0.02601696 0.05356452
v 0.00918068 0.01821675 0.05575140
v 0.00863349 0.02291344 0.05371146
v 0.00873017 0.02467908 0.05296592
v 0.00827060 0.02686373 0.05509905
v 0.00853158 0.02512634 0.05335470
v 0.00823393 0.02516922 0.05425175
v 0.00853396 0.02347470 0.05357539
v 0.00853158 0.02436629 0.05335641
f 1 2 10
f 1 10 20
f 1 20 35
f 1 35 49
f 1 49 48
f 1 48 38
f 1 38 24
f 1 24 12
f 1 12 3
f 1 3 13
f 1 13 4
f 1 4 11
f 1 11 2
f 2 5 6
f 2 6 7
f 2 7 8
f 2 8 9
f 2 9 10
f 2 11 14
f 2 14 5
f 3 12 25
f 3 25 40
f 3 40 56
f 3 56 43
f 3 43 26
f 3 26 13
f 4 13 26
f 4 26 42
f 4 42 51
f 4 51 36
f 4 36 22
f 4 22 11
f 5 14 28
f 5 28 15
f 5 15 16
f 5 16 17
f 5 17 7
f 5 7 6
f 7 18 8
f 7 17 18
f 8 18 32
f 8 32 19
f 8 19 21
f 8 21 9
f 9 20 10
f 9 21 20
f 11 22 23
f 11 23 14
f 12 24 25
f 14 27 28
f 14 23 27
f 15 28 45
f 15 45 29
f 15 29 16
f 16 30 31
f 16 31 17
f 16 29 30
f 17 31 32
f 17 32 18
f 19 33 21
f 19 32 34
f 19 34 33
f 20 21 35
f 21 33 35
f 22 36 37
f 22 37 23
f 23 37 44
f 23 44 27
f 24 38 25
f 25 38 39
f 25 39 40
f 26 41 42
f 26 43 41
f 27 44 45
f 27 45 28
f 29 45 53
f 29 53 46
f 29 46 30
f 30 46 31
f 31 46 34
f 31 34 32
f 33 47 48
f 33 48 49
f 33 49 35
f 33 34 47
f 34 46 50
f 34 50 39
f 34 39 47
f 36 51 37
f 37 51 52
f 37 52 53
f 37 53 44
f 38 48 54
f 38 54 39
f 39 50 55
f 39 55 56
f 39 56 40
f 39 54 47
f 41 57 42
f 41 43 58
f 41 58 57
f 42 57 52
f 42 52 51
f 43 56 55
f 43 55 58
f 44 53 45
f 46 55 50
f 46 53 55
f 47 54 48
f 52 57 53
f 53 57 58
f 53 58 55

