# https://github.com/mikedh/trimesh
v 0.01076621 -0.00031913 0.05879874
v 0.01076621 -0.00025288 0.05883082
v 0.01076621 0.00159979 0.05879874
v 0.01155296 -0.00787860 0.05879874
v 0.01076621 0.00059418 0.05885779
v 0.01172289 -0.00787860 0.05887007
v 0.01172289 0.00321572 0.05887007
v 0.01156388 0.00321572 0.05880533
v 0.01154772 0.00321572 0.05879874
v 0.01076621 0.00144232 0.05882699
v 0.01520060 -0.00787860 0.05879874
v 0.01076621 0.00124793 0.05883457
v 0.01426445 -0.00787860 0.05887007
v 0.01426445 0.00321572 0.05887007
v 0.01522900 0.00321572 0.05879874
v 0.01520191 -0.00776675 0.05879874
v 0.01511192 -0.00787860 0.05885164
v 0.01511192 -0.00703046 0.05885403
v 0.01511192 -0.00618340 0.05885631
v 0.01511192 -0.00533633 0.05885830
v 0.01511192 -0.00448819 0.05885958
v 0.01511192 -0.00364113 0.05886034
v 0.01511192 -0.00279407 0.05886095
v 0.01511192 -0.00194701 0.05886146
v 0.01511192 -0.00109995 0.05886170
v 0.01511192 0.00313644 0.05886233
v 0.01511192 0.00321572 0.05886231
v 0.01522507 -0.00181560 0.05879874
v 0.01518051 0.00321572 0.05882510
v 0.01520759 -0.00691426 0.05879874
v 0.01521283 -0.00606177 0.05879874
v 0.01521720 -0.00521036 0.05879874
v 0.01522026 -0.00436004 0.05879874
v 0.01522245 -0.00351190 0.05879874
f 1 2 5
f 1 5 12
f 1 12 10
f 1 10 3
f 1 3 9
f 1 9 15
f 1 15 28
f 1 28 34
f 1 34 33
f 1 33 32
f 1 32 31
f 1 31 30
f 1 30 16
f 1 16 11
f 1 11 4
f 1 4 2
f 2 4 6
f 2 6 5
f 3 7 8
f 3 8 9
f 3 10 7
f 4 11 17
f 4 17 13
f 4 13 6
f 5 7 12
f 5 6 7
f 6 13 14
f 6 14 7
f 7 14 27
f 7 27 29
f 7 29 15
f 7 15 9
f 7 9 8
f 7 10 12
f 11 16 17
f 13 17 18
f 13 18 19
f 13 19 20
f 13 20 21
f 13 21 22
f 13 22 23
f 13 23 24
f 13 24 25
f 13 25 26
f 13 26 14
f 14 26 27
f 15 29 25
f 15 25 24
f 15 24 28
f 16 30 17
f 17 30 31
f 17 31 32
f 17 32 18
f 18 32 19
f 19 32 20
f 20 32 33
f 20 33 21
f 21 33 34
f 21 34 22
f 22 34 28
f 22 28 23
f 23 28 24
f 25 29 26
f 26 29 27

