# https://github.com/mikedh/trimesh
v 0.01228926 -0.03127710 0.02012858
v 0.01228926 -0.03095950 0.01976424
v 0.01230527 -0.03127111 0.02012858
v 0.02451443 0.00012320 0.02012891
v 0.01944829 0.00012320 0.02012891
v 0.01862661 0.01256946 0.02012891
v 0.01862528 0.01330053 0.02012891
v 0.01228926 -0.02732809 0.02012858
v 0.01271611 -0.03104339 0.02009307
v 0.01228926 -0.03048010 0.01925654
v 0.01275346 -0.03021044 0.01920985
v 0.01274412 -0.03105538 0.02012858
v 0.02452911 0.00059660 0.02012891
v 0.01338706 -0.03067785 0.02012858
v 0.01364317 -0.03052205 0.02012858
v 0.01388060 -0.03036625 0.02012858
v 0.01406068 -0.03022842 0.02012858
v 0.01431812 -0.03001868 0.02012858
v 0.01485968 -0.02957525 0.02012858
v 0.01525185 -0.02920971 0.02012858
v 0.01562934 -0.02882619 0.02012858
v 0.01627628 -0.02801722 0.02012858
v 0.01641234 -0.02783145 0.02012858
v 0.01710597 -0.02675281 0.02012858
v 0.01734340 -0.02636331 0.02012858
v 0.01801969 -0.02513486 0.02012858
v 0.01828647 -0.02458356 0.02012858
v 0.01912949 -0.02279782 0.02012858
v 0.01944696 -0.02209671 0.02012858
v 0.02019527 -0.02031696 0.02012858
v 0.02051808 -0.01951397 0.02012858
v 0.02085822 -0.01860312 0.02012858
v 0.02112500 -0.01787804 0.02012858
v 0.02145714 -0.01693124 0.02012858
v 0.02172125 -0.01613424 0.02012858
v 0.02198803 -0.01528931 0.02012858
v 0.02224547 -0.01443839 0.02012858
v 0.02241088 -0.01378522 0.02012858
v 0.02266965 -0.01273654 0.02012858
v 0.02281772 -0.01213131 0.02012858
v 0.02288708 -0.01183169 0.02012858
v 0.02300846 -0.01126840 0.02012858
v 0.02351535 -0.00876357 0.02012858
v 0.02358471 -0.00841001 0.02012858
v 0.02368742 -0.00787669 0.02012858
v 0.02375278 -0.00749916 0.02012858
v 0.02387016 -0.00679805 0.02012858
v 0.02392485 -0.00641454 0.02012858
v 0.02407025 -0.00533590 0.02012858
v 0.02410760 -0.00502429 0.02012858
v 0.02418096 -0.00440708 0.02012858
v 0.02426366 -0.00364005 0.02012858
v 0.02434103 -0.00281309 0.02012858
v 0.02441172 -0.00194419 0.02012858
v 0.02446908 -0.00109926 0.02012858
v 0.02450643 -0.00025433 0.02012858
v 0.01875867 0.01415146 0.02012891
v 0.01228926 0.02855724 0.02006578
v 0.01322699 -0.03047411 0.01977477
v 0.01228926 -0.03018048 0.01893955
v 0.01247867 -0.02986288 0.01870806
v 0.01276813 -0.02936551 0.01835424
v 0.01325634 -0.02964716 0.01891851
v 0.02453311 0.00144153 0.02012891
v 0.02472652 -0.00025433 0.01963699
v 0.02473319 0.00012320 0.01963962
v 0.02570160 -0.00058391 0.01738487
v 0.02570560 -0.00001463 0.01739737
v 0.01379123 -0.03030033 0.01996910
v 0.01472096 -0.02951532 0.01990137
v 0.01557465 -0.02868238 0.01988065
v 0.01640434 -0.02696854 0.01905431
v 0.01636832 -0.02776553 0.01995891
v 0.01927088 -0.02125177 0.01676964
v 0.01961503 -0.02073643 0.01676964
v 0.02055943 -0.01922633 0.01676964
v 0.02090891 -0.01864507 0.01676964
v 0.02177194 -0.01703311 0.01676964
v 0.02214143 -0.01630203 0.01676964
v 0.02227615 -0.01603237 0.01676964
v 0.02258028 -0.01536122 0.01676964
v 0.02312318 -0.01413278 0.01676964
v 0.02311518 -0.01410881 0.01696595
v 0.02276303 -0.01466011 0.01781366
v 0.02306982 -0.01380919 0.01788633
v 0.02259896 -0.01466011 0.01866005
v 0.02315653 -0.01337174 0.01821745
v 0.02288975 -0.01380919 0.01866005
v 0.02324723 -0.01280845 0.01850386
v 0.02233485 -0.01430056 0.01998916
v 0.02315653 -0.01251482 0.01906878
v 0.02322722 -0.01195153 0.01924536
v 0.02404624 -0.01015381 0.01832268
v 0.02411693 -0.00957254 0.01847460
v 0.02419430 -0.00873960 0.01871464
v 0.02404490 -0.00846994 0.01916118
v 0.02389551 -0.00787669 0.01969914
v 0.02396887 -0.00703176 0.01984875
v 0.02400489 -0.00658232 0.01992537
v 0.02404490 -0.00601904 0.02000133
v 0.02438104 -0.00533590 0.01950776
v 0.02447975 -0.00448498 0.01950776
v 0.02456779 -0.00364005 0.01950776
v 0.02481590 -0.00364005 0.01899874
v 0.02484257 -0.00302882 0.01905530
v 0.02486392 -0.00245954 0.01909870
v 0.02468117 -0.00194419 0.01956136
v 0.02487992 -0.00194419 0.01913751
v 0.02470918 -0.00109926 0.01961233
v 0.02490393 -0.00109926 0.01918880
v 0.01934825 0.01493047 0.02012891
v 0.01941094 0.01499639 0.02012891
v 0.02019527 0.01575742 0.02012891
v 0.02103830 0.01597914 0.02012891
v 0.01257071 0.02855724 0.02006578
v 0.01228926 0.02940217 0.02002928
v 0.01382191 -0.02946738 0.01909772
v 0.01228926 -0.02935952 0.01810171
v 0.01235329 -0.02799924 0.01676964
v 0.01249201 -0.02792733 0.01676964
v 0.01268543 -0.02781947 0.01676964
v 0.01327234 -0.02795130 0.01722868
v 0.01326701 -0.02880223 0.01807573
v 0.01383658 -0.02778352 0.01739408
v 0.01383125 -0.02862845 0.01824409
v 0.02452911 0.00170520 0.02012891
v 0.02570560 0.00012320 0.01739737
v 0.02513470 -0.00109926 0.01866005
v 0.02582832 -0.00028429 0.01704783
v 0.02550018 -0.00109926 0.01781366
v 0.02569360 -0.00109926 0.01736185
v 0.02584700 -0.00109926 0.01693800
v 0.01426610 -0.02929960 0.01928383
v 0.01475030 -0.02868837 0.01903228
v 0.01531321 -0.02842470 0.01931573
v 0.01560000 -0.02786142 0.01900762
v 0.01748079 -0.02365474 0.01676964
v 0.01821177 -0.02271393 0.01676964
v 0.01865996 -0.02209671 0.01676964
v 0.02336595 -0.01351556 0.01676964
v 0.02327791 -0.01368334 0.01696595
v 0.02397554 -0.01188562 0.01676964
v 0.02407025 -0.01159798 0.01676964
v 0.02412894 -0.01127439 0.01695641
v 0.02390218 -0.01127439 0.01783306
v 0.02397821 -0.01072309 0.01812801
v 0.02335795 -0.01218524 0.01873568
v 0.02455312 -0.00872162 0.01781366
v 0.02473319 -0.00788867 0.01777946
v 0.02438505 -0.00787669 0.01866005
v 0.02409959 -0.00787669 0.01927561
v 0.02417029 -0.00703176 0.01942523
v 0.02488659 -0.00593514 0.01830196
v 0.02421698 -0.00625274 0.01958898
v 0.02472519 -0.00533590 0.01880802
v 0.02477321 -0.00448498 0.01890733
v 0.02501064 -0.00364005 0.01857456
v 0.02501331 -0.00276515 0.01872746
v 0.02509868 -0.00194419 0.01866005
v 0.02547084 -0.00194419 0.01781366
v 0.02149316 0.01569750 0.02012891
v 0.01341907 0.02855724 0.02003256
v 0.02161454 0.01561361 0.02012891
v 0.01596148 0.02516553 0.02006578
v 0.01426476 0.02770632 0.02004243
v 0.01256805 0.02940217 0.02001185
v 0.01228926 0.02988756 0.01997634
v 0.01426610 -0.02887414 0.01883828
v 0.01228926 -0.02802920 0.01676964
v 0.01286684 -0.02771760 0.01676964
v 0.01354179 -0.02733408 0.01676964
v 0.01364850 -0.02726816 0.01676964
v 0.01399398 -0.02703446 0.01676964
v 0.01430878 -0.02679476 0.01676964
v 0.02451977 0.00228646 0.02012891
v 0.02582699 0.00012320 0.01704289
v 0.02559489 0.00144153 0.01755224
v 0.02563491 0.00039285 0.01755224
v 0.02473186 0.00228646 0.01962449
v 0.02591636 -0.00027830 0.01676964
v 0.02567493 -0.00194419 0.01731680
v 0.02582832 -0.00194419 0.01689295
v 0.02587101 -0.00181236 0.01676964
v 0.02589769 -0.00109926 0.01676964
v 0.02590169 -0.00092548 0.01676964
v 0.01475564 -0.02699851 0.01733127
v 0.01504643 -0.02619552 0.01676964
v 0.01529720 -0.02597980 0.01676964
v 0.01580008 -0.02550639 0.01676964
v 0.01561467 -0.02702248 0.01815498
v 0.01592280 -0.02538055 0.01676964
v 0.01621759 -0.02506895 0.01676964
v 0.01675382 -0.02448768 0.01676964
v 0.02422765 -0.01108263 0.01676964
v 0.02472519 -0.00937479 0.01676964
v 0.02437438 -0.01041747 0.01696595
v 0.02405557 -0.01099874 0.01756309
v 0.02489326 -0.00872162 0.01676964
v 0.02492928 -0.00856582 0.01676964
v 0.02483457 -0.00818230 0.01732798
v 0.02534412 -0.00618083 0.01696595
v 0.02479055 -0.00703176 0.01804942
v 0.02483590 -0.00649843 0.01818556
v 0.02500664 -0.00620480 0.01786693
v 0.02547484 -0.00533590 0.01696595
v 0.02514937 -0.00533590 0.01781366
v 0.02492261 -0.00533590 0.01838483
v 0.02496663 -0.00448498 0.01848314
v 0.02541081 -0.00279511 0.01781366
v 0.01418206 0.02847934 0.01996713
v 0.02148382 0.01631472 0.01994871
v 0.02066614 0.01810046 0.01996713
v 0.01984046 0.01985624 0.01997601
v 0.01899877 0.02155210 0.01997601
v 0.01814641 0.02319402 0.01997371
v 0.01677916 0.02511759 0.02000198
v 0.01680851 0.02432059 0.02005295
v 0.02215877 0.01422336 0.02012891
v 0.01511312 0.02686138 0.02003421
v 0.01504109 0.02762242 0.01996844
v 0.01384325 0.02897671 0.01993227
v 0.01228926 0.02990553 0.01988131
v 0.01228926 -0.02070047 0.01676964
v 0.01491037 -0.02630938 0.01676964
v 0.02448109 0.00313738 0.02012891
v 0.02591503 -0.00016444 0.01676964
v 0.02590969 0.00012320 0.01676964
v 0.02555754 0.00228646 0.01755224
v 0.02490393 0.00228646 0.01920097
v 0.02471452 0.00313738 0.01957057
v 0.02564425 -0.00279511 0.01724183
v 0.02580698 -0.00279511 0.01681798
v 0.02582165 -0.00279511 0.01676964
v 0.02586567 -0.00194419 0.01676964
v 0.02499597 -0.00788867 0.01701363
v 0.02511202 -0.00765497 0.01676964
v 0.02540148 -0.00618083 0.01676964
v 0.02545617 -0.00589320 0.01676964
v 0.02557355 -0.00513216 0.01676964
v 0.02571628 -0.00389772 0.01676964
v 0.02574429 -0.00364005 0.01676964
v 0.02524008 -0.00448498 0.01781366
v 0.01471162 0.02814976 0.01994543
v 0.02155852 0.01649449 0.01950776
v 0.02074884 0.01838211 0.01947751
v 0.02232684 0.01376794 0.02012891
v 0.02225748 0.01439714 0.01975372
v 0.02214810 0.01497242 0.01948606
v 0.02181729 0.01584132 0.01950776
v 0.01968706 0.02041953 0.01978726
v 0.01884670 0.02211538 0.01968007
v 0.01727004 0.02480598 0.01995957
v 0.01647770 0.02575279 0.01997634
v 0.01597615 0.02602843 0.02001218
v 0.01566402 0.02686138 0.01996713
v 0.01553997 0.02728684 0.01993392
v 0.01384325 0.02897671 0.01992570
v 0.01228926 0.02994149 0.01950776
v 0.01228926 0.02851529 0.01755224
v 0.02324456 0.00012320 0.01676964
v 0.02442506 0.00397632 0.02012891
v 0.01244399 0.02843140 0.01755224
v 0.01281482 0.02819769 0.01755224
v 0.01307226 0.02802991 0.01755224
v 0.01346976 0.02776624 0.01755224
v 0.01369919 0.02761044 0.01755224
v 0.01400199 0.02737673 0.01755224
v 0.01453288 0.02693329 0.01755224
v 0.01488503 0.02662169 0.01755224
v 0.01531321 0.02622619 0.01755224
v 0.01541192 0.02613031 0.01755224
v 0.01570671 0.02583668 0.01755224
v 0.01635098 0.02515354 0.01755224
v 0.01654306 0.02493182 0.01755224
v 0.01715932 0.02420674 0.01755224
v 0.01799167 0.02314009 0.01755224
v 0.01814774 0.02291837 0.01755224
v 0.01888138 0.02186970 0.01755224
v 0.01907347 0.02158206 0.01755224
v 0.01969773 0.02062327 0.01755224
v 0.01984579 0.02038357 0.01755224
v 0.02052341 0.01922704 0.01755224
v 0.02068748 0.01892742 0.01755224
v 0.02097160 0.01838810 0.01755224
v 0.02139711 0.01754916 0.01755224
v 0.02182530 0.01669224 0.01755224
v 0.02217745 0.01597315 0.01755224
v 0.02223881 0.01584132 0.01755224
v 0.02237219 0.01554769 0.01755224
v 0.02260696 0.01499639 0.01755224
v 0.02307783 0.01388180 0.01755224
v 0.02314986 0.01369603 0.01755224
v 0.02319788 0.01355221 0.01755224
v 0.02354602 0.01245560 0.01755224
v 0.02381147 0.01161666 0.01755224
v 0.02398488 0.01104738 0.01755224
v 0.02410226 0.01063990 0.01755224
v 0.02429167 0.00996275 0.01755224
v 0.02452377 0.00905790 0.01755224
v 0.02472119 0.00823694 0.01755224
v 0.02478522 0.00796728 0.01755224
v 0.02483991 0.00770960 0.01755224
v 0.02490793 0.00736204 0.01755224
v 0.02506400 0.00651112 0.01755224
v 0.02520272 0.00567817 0.01755224
v 0.02532144 0.00482125 0.01755224
v 0.02541481 0.00398232 0.01755224
v 0.02549885 0.00313738 0.01755224
v 0.02540014 0.00313738 0.01781366
v 0.02486392 0.00366472 0.01910462
v 0.02470918 0.00396434 0.01943542
v 0.02579231 -0.00316664 0.01676964
v 0.02527342 -0.00683401 0.01676964
v 0.01471162 0.02814976 0.01977937
v 0.02145581 0.01708774 0.01899743
v 0.02063813 0.01885551 0.01917499
v 0.02209341 0.01576342 0.01857719
v 0.02234685 0.01383386 0.02002204
v 0.02248424 0.01326458 0.02012891
v 0.02310584 0.01270129 0.01891259
v 0.02319654 0.01298293 0.01834800
v 0.02234685 0.01466680 0.01918880
v 0.02224414 0.01523009 0.01880408
v 0.01979244 0.02054537 0.01922234
v 0.01992849 0.02011392 0.01950579
v 0.01892940 0.02220527 0.01911547
v 0.01821844 0.02331387 0.01950776
v 0.01730205 0.02485392 0.01950776
v 0.01553997 0.02728684 0.01989939
v 0.01467027 0.02811380 0.01921445
v 0.01377922 0.02892877 0.01936078
v 0.01228926 0.02991152 0.01935716
v 0.01228926 0.02904262 0.01813262
v 0.02434903 0.00483324 0.02012891
v 0.01228926 0.02979168 0.01896257
v 0.01321499 0.02913850 0.01891193
v 0.01383525 0.02812578 0.01824310
v 0.01410603 0.02836548 0.01880769
v 0.01489970 0.02749658 0.01866038
v 0.01532254 0.02706513 0.01866038
v 0.01638299 0.02558500 0.01823916
v 0.01571071 0.02664565 0.01866038
v 0.01652572 0.02577675 0.01880375
v 0.01728738 0.02482396 0.01893692
v 0.01821710 0.02327792 0.01866038
v 0.01892940 0.02220527 0.01906450
v 0.02069015 0.01893940 0.01781366
v 0.02096760 0.01838810 0.01781366
v 0.02066747 0.01890944 0.01866038
v 0.02216411 0.01593120 0.01781366
v 0.02235619 0.01551174 0.01781366
v 0.02256961 0.01499639 0.01781366
v 0.02231350 0.01542185 0.01823949
v 0.02309650 0.01354622 0.01798037
v 0.02324323 0.01328255 0.01774428
v 0.02349400 0.01245560 0.01781366
v 0.02375411 0.01161067 0.01781366
v 0.02408492 0.01059795 0.01766667
v 0.02400755 0.01033428 0.01823159
v 0.02444641 0.00906988 0.01781366
v 0.02468384 0.00815304 0.01774132
v 0.02477054 0.00737403 0.01797281
v 0.02482657 0.00676879 0.01814610
v 0.02511335 0.00567817 0.01781366
v 0.02487192 0.00619951 0.01828486
v 0.02491060 0.00567817 0.01839272
v 0.02476121 0.00567817 0.01881591
v 0.02522674 0.00483324 0.01781366
v 0.02481189 0.00483324 0.01896356
v 0.02532011 0.00398232 0.01781366
v 0.02484124 0.00422800 0.01904642
v 0.01550929 0.02725089 0.01933447
v 0.02298846 0.01243163 0.01947652
v 0.02319254 0.01213800 0.01917302
v 0.02273768 0.01244961 0.02012891
v 0.02308983 0.01179044 0.01973761
v 0.02328058 0.01243163 0.01864230
v 0.02352335 0.01161067 0.01866038
v 0.02045538 0.01932891 0.01866038
v 0.01228926 0.02985160 0.01907733
v 0.02459847 0.00483324 0.01950776
v 0.02425566 0.00566019 0.02012891
v 0.01618291 0.02604042 0.01857719
v 0.02376078 0.01075974 0.01866038
v 0.02394219 0.00999871 0.01869951
v 0.02415562 0.00908187 0.01869951
v 0.02389284 0.00908187 0.01949592
v 0.02436237 0.00821896 0.01866038
v 0.02453311 0.00737403 0.01866038
v 0.02471052 0.00649913 0.01860415
v 0.02436904 0.00652910 0.01950776
v 0.02449976 0.00567817 0.01950776
v 0.02325790 0.01154475 0.01947652
v 0.02347666 0.01075974 0.01950776
v 0.02305782 0.01138895 0.02012891
v 0.02317253 0.01122715 0.01996022
v 0.02412894 0.00652910 0.02012891
v 0.02369409 0.00991481 0.01950776
v 0.02367274 0.00906988 0.02012891
v 0.02380347 0.00844667 0.02012891
v 0.02384882 0.00821896 0.02012891
v 0.02398354 0.00742197 0.02012891
v 0.02314452 0.01109532 0.02012891
v 0.02323789 0.01075974 0.02012891
v 0.02338596 0.01020844 0.02012891
v 0.02345399 0.00994478 0.02012891
v 0.02362072 0.00929160 0.02012891
f 1 2 3
f 1 3 4
f 1 4 5
f 1 5 6
f 1 6 7
f 1 7 8
f 1 8 58
f 1 58 116
f 1 116 167
f 1 167 222
f 1 222 258
f 1 258 332
f 1 332 380
f 1 380 335
f 1 335 333
f 1 333 259
f 1 259 223
f 1 223 169
f 1 169 118
f 1 118 60
f 1 60 10
f 1 10 2
f 2 9 3
f 2 10 11
f 2 11 9
f 3 9 12
f 3 12 4
f 4 13 64
f 4 64 126
f 4 126 175
f 4 175 225
f 4 225 261
f 4 261 334
f 4 334 382
f 4 382 397
f 4 397 402
f 4 402 401
f 4 401 400
f 4 400 399
f 4 399 407
f 4 407 406
f 4 406 405
f 4 405 404
f 4 404 403
f 4 403 395
f 4 395 375
f 4 375 319
f 4 319 246
f 4 246 218
f 4 218 163
f 4 163 161
f 4 161 114
f 4 114 113
f 4 113 112
f 4 112 111
f 4 111 57
f 4 57 7
f 4 7 6
f 4 6 5
f 4 12 14
f 4 14 15
f 4 15 16
f 4 16 17
f 4 17 18
f 4 18 19
f 4 19 20
f 4 20 21
f 4 21 22
f 4 22 23
f 4 23 24
f 4 24 25
f 4 25 26
f 4 26 27
f 4 27 28
f 4 28 29
f 4 29 30
f 4 30 31
f 4 31 32
f 4 32 33
f 4 33 34
f 4 34 35
f 4 35 36
f 4 36 37
f 4 37 38
f 4 38 39
f 4 39 40
f 4 40 41
f 4 41 42
f 4 42 43
f 4 43 44
f 4 44 45
f 4 45 46
f 4 46 47
f 4 47 48
f 4 48 49
f 4 49 50
f 4 50 51
f 4 51 52
f 4 52 53
f 4 53 54
f 4 54 55
f 4 55 56
f 4 56 13
f 7 57 58
f 7 58 8
f 9 59 14
f 9 14 12
f 9 11 59
f 10 60 11
f 11 60 61
f 11 61 62
f 11 62 63
f 11 63 59
f 13 56 65
f 13 65 66
f 13 66 67
f 13 67 68
f 13 68 64
f 14 59 69
f 14 69 15
f 15 69 16
f 16 69 17
f 17 69 70
f 17 70 18
f 18 70 19
f 19 70 20
f 20 70 71
f 20 71 21
f 21 71 72
f 21 72 73
f 21 73 22
f 22 73 23
f 23 73 74
f 23 74 75
f 23 75 24
f 24 75 76
f 24 76 25
f 25 76 77
f 25 77 26
f 26 77 78
f 26 78 79
f 26 79 80
f 26 80 27
f 27 80 28
f 28 80 81
f 28 81 29
f 29 81 82
f 29 82 83
f 29 83 30
f 30 83 31
f 31 83 84
f 31 84 85
f 31 85 32
f 32 85 33
f 33 85 86
f 33 86 87
f 33 87 34
f 34 87 35
f 35 87 88
f 35 88 36
f 36 88 89
f 36 89 90
f 36 90 37
f 37 90 91
f 37 91 38
f 38 91 92
f 38 92 39
f 39 92 40
f 40 92 93
f 40 93 94
f 40 94 41
f 41 94 95
f 41 95 42
f 42 95 96
f 42 96 43
f 43 96 44
f 44 96 45
f 45 96 97
f 45 97 46
f 46 97 98
f 46 98 47
f 47 98 99
f 47 99 48
f 48 99 100
f 48 100 49
f 49 100 101
f 49 101 50
f 50 101 51
f 51 101 102
f 51 102 52
f 52 102 103
f 52 103 53
f 53 103 104
f 53 104 105
f 53 105 54
f 54 105 106
f 54 106 107
f 54 107 55
f 55 107 108
f 55 108 109
f 55 109 56
f 56 109 110
f 56 110 65
f 57 111 58
f 58 111 112
f 58 112 113
f 58 113 114
f 58 114 115
f 58 115 116
f 59 63 117
f 59 117 69
f 60 118 61
f 61 118 62
f 62 118 119
f 62 119 120
f 62 120 121
f 62 121 122
f 62 122 123
f 62 123 63
f 63 123 124
f 63 124 125
f 63 125 117
f 64 68 127
f 64 127 126
f 65 110 128
f 65 128 67
f 65 67 66
f 67 129 68
f 67 128 130
f 67 130 131
f 67 131 132
f 67 132 129
f 68 129 127
f 69 117 133
f 69 133 70
f 70 133 134
f 70 134 135
f 70 135 71
f 71 135 136
f 71 136 137
f 71 137 72
f 72 137 138
f 72 138 73
f 73 138 139
f 73 139 74
f 74 139 138
f 74 138 137
f 74 137 193
f 74 193 192
f 74 192 191
f 74 191 189
f 74 189 188
f 74 188 187
f 74 187 224
f 74 224 174
f 74 174 173
f 74 173 172
f 74 172 171
f 74 171 170
f 74 170 121
f 74 121 120
f 74 120 119
f 74 119 169
f 74 169 223
f 74 223 260
f 74 260 227
f 74 227 226
f 74 226 180
f 74 180 185
f 74 185 184
f 74 184 183
f 74 183 234
f 74 234 233
f 74 233 312
f 74 312 241
f 74 241 240
f 74 240 239
f 74 239 238
f 74 238 237
f 74 237 313
f 74 313 236
f 74 236 199
f 74 199 198
f 74 198 195
f 74 195 194
f 74 194 143
f 74 143 142
f 74 142 140
f 74 140 82
f 74 82 81
f 74 81 80
f 74 80 79
f 74 79 78
f 74 78 77
f 74 77 76
f 74 76 75
f 82 140 83
f 83 140 141
f 83 141 84
f 84 141 85
f 85 141 142
f 85 142 87
f 85 87 86
f 87 89 88
f 87 142 143
f 87 143 144
f 87 144 145
f 87 145 89
f 89 91 90
f 89 145 146
f 89 146 147
f 89 147 91
f 91 147 146
f 91 146 93
f 91 93 92
f 93 148 94
f 93 146 148
f 94 148 95
f 95 148 149
f 95 149 150
f 95 150 96
f 96 150 151
f 96 151 97
f 97 151 98
f 98 151 152
f 98 152 153
f 98 153 99
f 99 154 100
f 99 153 154
f 100 154 101
f 101 154 155
f 101 155 102
f 102 156 103
f 102 155 156
f 103 156 104
f 104 157 105
f 104 156 157
f 105 158 106
f 105 157 158
f 106 158 159
f 106 159 108
f 106 108 107
f 108 159 110
f 108 110 109
f 110 159 160
f 110 160 128
f 114 161 115
f 115 162 116
f 115 161 163
f 115 163 164
f 115 164 165
f 115 165 162
f 116 162 166
f 116 166 167
f 117 125 168
f 117 168 134
f 117 134 133
f 118 169 119
f 121 170 122
f 122 170 171
f 122 171 123
f 123 171 124
f 124 134 125
f 124 171 172
f 124 172 173
f 124 173 174
f 124 174 134
f 125 134 168
f 126 127 175
f 127 176 177
f 127 177 178
f 127 178 179
f 127 179 175
f 127 129 176
f 128 160 130
f 129 132 180
f 129 180 176
f 130 160 131
f 131 160 181
f 131 181 182
f 131 182 132
f 132 182 183
f 132 183 184
f 132 184 185
f 132 185 180
f 134 174 186
f 134 186 187
f 134 187 188
f 134 188 189
f 134 189 190
f 134 190 136
f 134 136 135
f 136 190 189
f 136 189 191
f 136 191 192
f 136 192 193
f 136 193 137
f 140 142 141
f 143 194 144
f 144 194 195
f 144 195 196
f 144 196 197
f 144 197 145
f 145 197 146
f 146 197 195
f 146 195 198
f 146 198 148
f 148 198 199
f 148 199 200
f 148 200 149
f 149 200 201
f 149 201 202
f 149 202 150
f 150 202 203
f 150 203 153
f 150 153 151
f 151 153 152
f 153 204 205
f 153 205 206
f 153 206 207
f 153 207 155
f 153 155 154
f 153 203 204
f 155 207 156
f 156 208 157
f 156 207 208
f 157 208 209
f 157 209 158
f 158 209 160
f 158 160 159
f 160 209 181
f 162 210 166
f 162 165 210
f 163 211 212
f 163 212 213
f 163 213 214
f 163 214 215
f 163 215 216
f 163 216 217
f 163 217 164
f 163 218 211
f 164 219 165
f 164 217 219
f 165 219 220
f 165 220 210
f 166 210 167
f 167 210 221
f 167 221 222
f 174 224 186
f 175 179 225
f 176 180 226
f 176 226 227
f 176 227 228
f 176 228 177
f 177 228 229
f 177 229 178
f 178 229 179
f 179 229 230
f 179 230 225
f 181 209 231
f 181 231 232
f 181 232 182
f 182 232 233
f 182 233 234
f 182 234 183
f 186 224 187
f 195 197 196
f 199 235 200
f 199 236 235
f 200 235 201
f 201 237 238
f 201 238 205
f 201 205 204
f 201 204 202
f 201 235 237
f 202 204 203
f 205 238 239
f 205 239 240
f 205 240 206
f 206 240 241
f 206 241 242
f 206 242 207
f 207 242 231
f 207 231 209
f 207 209 208
f 210 243 221
f 210 220 243
f 211 244 245
f 211 245 212
f 211 218 246
f 211 246 247
f 211 247 248
f 211 248 249
f 211 249 244
f 212 245 250
f 212 250 213
f 213 250 214
f 214 250 215
f 215 250 251
f 215 251 252
f 215 252 216
f 216 253 254
f 216 254 219
f 216 219 217
f 216 252 253
f 219 254 220
f 220 254 255
f 220 255 256
f 220 256 243
f 221 257 258
f 221 258 222
f 221 243 314
f 221 314 257
f 223 259 260
f 225 230 261
f 227 260 259
f 227 259 262
f 227 262 263
f 227 263 264
f 227 264 265
f 227 265 266
f 227 266 267
f 227 267 268
f 227 268 269
f 227 269 270
f 227 270 271
f 227 271 272
f 227 272 273
f 227 273 274
f 227 274 275
f 227 275 276
f 227 276 277
f 227 277 278
f 227 278 279
f 227 279 280
f 227 280 281
f 227 281 282
f 227 282 283
f 227 283 284
f 227 284 285
f 227 285 286
f 227 286 287
f 227 287 288
f 227 288 289
f 227 289 290
f 227 290 291
f 227 291 292
f 227 292 293
f 227 293 294
f 227 294 295
f 227 295 296
f 227 296 297
f 227 297 298
f 227 298 299
f 227 299 300
f 227 300 301
f 227 301 302
f 227 302 303
f 227 303 304
f 227 304 305
f 227 305 306
f 227 306 307
f 227 307 308
f 227 308 228
f 228 308 309
f 228 309 310
f 228 310 230
f 228 230 229
f 230 310 311
f 230 311 261
f 231 242 241
f 231 241 312
f 231 312 232
f 232 312 233
f 235 236 313
f 235 313 237
f 243 256 329
f 243 329 314
f 244 315 316
f 244 316 245
f 244 249 317
f 244 317 315
f 245 316 250
f 246 318 247
f 246 319 318
f 247 318 320
f 247 320 321
f 247 321 248
f 248 321 322
f 248 322 249
f 249 323 317
f 249 322 323
f 250 324 251
f 250 316 325
f 250 325 324
f 251 326 327
f 251 327 252
f 251 324 326
f 252 327 328
f 252 328 256
f 252 256 253
f 253 256 255
f 253 255 254
f 256 328 329
f 257 314 330
f 257 330 331
f 257 331 258
f 258 331 332
f 259 333 262
f 261 311 334
f 262 333 335
f 262 335 263
f 263 335 264
f 264 335 336
f 264 336 265
f 265 336 266
f 266 336 337
f 266 337 267
f 267 337 268
f 268 337 338
f 268 338 269
f 269 338 270
f 270 338 339
f 270 339 271
f 271 339 272
f 272 339 340
f 272 340 273
f 273 341 274
f 273 340 342
f 273 342 341
f 274 341 275
f 275 341 343
f 275 343 276
f 276 343 344
f 276 344 277
f 277 344 278
f 278 344 279
f 279 344 280
f 280 344 345
f 280 345 281
f 281 345 346
f 281 346 282
f 282 346 347
f 282 347 283
f 283 347 284
f 284 347 285
f 285 347 348
f 285 348 286
f 286 348 349
f 286 349 287
f 287 349 316
f 287 316 288
f 288 350 351
f 288 351 289
f 288 316 350
f 289 351 290
f 290 351 291
f 291 351 352
f 291 352 353
f 291 353 292
f 292 353 323
f 292 323 354
f 292 354 355
f 292 355 293
f 293 355 356
f 293 356 294
f 294 356 295
f 295 356 357
f 295 357 296
f 296 358 297
f 296 357 358
f 297 358 298
f 298 358 359
f 298 359 299
f 299 360 300
f 299 359 360
f 300 360 301
f 301 361 302
f 301 360 361
f 302 361 362
f 302 362 303
f 303 362 363
f 303 363 304
f 304 363 305
f 305 364 306
f 305 363 365
f 305 365 364
f 306 364 366
f 306 366 367
f 306 367 368
f 306 368 307
f 307 368 369
f 307 369 370
f 307 370 308
f 308 370 371
f 308 371 309
f 309 371 310
f 310 371 311
f 311 371 334
f 314 329 372
f 314 372 330
f 315 317 353
f 315 353 351
f 315 351 316
f 316 351 350
f 316 349 324
f 316 324 325
f 317 323 353
f 318 319 373
f 318 373 374
f 318 374 320
f 319 375 376
f 319 376 373
f 320 374 377
f 320 377 321
f 321 377 378
f 321 378 357
f 321 357 356
f 321 356 355
f 321 355 354
f 321 354 322
f 322 354 323
f 324 349 379
f 324 379 326
f 326 379 347
f 326 347 346
f 326 346 328
f 326 328 327
f 328 346 344
f 328 344 329
f 329 344 372
f 330 338 331
f 330 372 342
f 330 342 340
f 330 340 339
f 330 339 338
f 331 336 380
f 331 380 332
f 331 338 336
f 334 371 381
f 334 381 382
f 335 380 336
f 336 338 337
f 341 342 383
f 341 383 343
f 342 372 343
f 342 343 383
f 343 372 344
f 344 346 345
f 347 379 349
f 347 349 348
f 351 353 352
f 357 378 359
f 357 359 358
f 359 378 384
f 359 384 385
f 359 385 360
f 360 385 361
f 361 385 386
f 361 386 387
f 361 387 388
f 361 388 362
f 362 389 363
f 362 388 389
f 363 390 365
f 363 389 390
f 364 365 366
f 365 390 367
f 365 367 366
f 367 390 391
f 367 391 392
f 367 392 369
f 367 369 368
f 369 381 371
f 369 371 370
f 369 392 381
f 373 376 374
f 374 376 393
f 374 393 394
f 374 394 378
f 374 378 377
f 375 395 376
f 376 395 396
f 376 396 394
f 376 394 393
f 378 394 384
f 381 392 382
f 382 392 397
f 384 394 398
f 384 398 385
f 385 398 387
f 385 387 386
f 387 398 399
f 387 399 400
f 387 400 388
f 388 400 389
f 389 400 401
f 389 401 390
f 390 401 391
f 391 401 402
f 391 402 397
f 391 397 392
f 394 396 403
f 394 403 404
f 394 404 405
f 394 405 406
f 394 406 398
f 395 403 396
f 398 406 407
f 398 407 399

