# https://github.com/mikedh/trimesh
v 0.00618654 -0.03679083 0.05425539
v 0.00155080 -0.03690950 0.05425539
v 0.00618654 -0.03897795 0.05425539
v 0.00618654 -0.03600412 0.04298643
v 0.00240131 -0.03608728 0.04298643
v 0.00180266 -0.03610185 0.04298643
v 0.00089018 -0.03701361 0.05425539
v 0.00155421 -0.03610974 0.04298643
v 0.00120400 -0.03613554 0.04298643
v 0.00579028 -0.03899950 0.05425539
v 0.00618654 -0.03897795 0.05425098
v 0.00618654 -0.03824284 0.04298643
v 0.00085607 -0.03699448 0.05340382
v 0.00050870 -0.03753808 0.05425539
v 0.00101753 -0.03619473 0.04298643
v 0.00494318 -0.03903774 0.05425539
v 0.00579028 -0.03895913 0.05340382
v 0.00618654 -0.03889934 0.05255667
v 0.00618654 -0.03893940 0.05340382
v 0.00579028 -0.03825710 0.04298643
v 0.00618654 -0.03826499 0.04323573
v 0.00082878 -0.03697172 0.05255667
v 0.00043934 -0.03838519 0.05425539
v 0.00080717 -0.03694926 0.05170840
v 0.00047459 -0.03753808 0.05340382
v 0.00063605 -0.03669067 0.04298643
v 0.00409551 -0.03907173 0.05425539
v 0.00579028 -0.03891664 0.05255667
v 0.00618654 -0.03885472 0.05168303
v 0.00494318 -0.03838306 0.04408288
v 0.00494318 -0.03828624 0.04298643
v 0.00494318 -0.03845742 0.04493115
v 0.00618654 -0.03833753 0.04408288
v 0.00579028 -0.03835301 0.04408288
v 0.00081911 -0.03895488 0.05425539
v 0.00044730 -0.03753808 0.05255667
v 0.00042569 -0.03753808 0.05170840
v 0.00040921 -0.03753808 0.05086125
v 0.00039784 -0.03753808 0.05001409
v 0.00039045 -0.03753808 0.04916693
v 0.00038419 -0.03753808 0.04831977
v 0.00038021 -0.03753808 0.04747262
v 0.00037851 -0.03753808 0.04662546
v 0.00037964 -0.03753808 0.04577830
v 0.00038249 -0.03753808 0.04493115
v 0.00038931 -0.03753808 0.04408288
v 0.00040068 -0.03753808 0.04323573
v 0.00040693 -0.03753808 0.04298643
v 0.00046549 -0.03838519 0.05340382
v 0.00324898 -0.03909237 0.05425539
v 0.00409551 -0.03902499 0.05340382
v 0.00579028 -0.03887111 0.05170840
v 0.00618654 -0.03882012 0.05103884
v 0.00409551 -0.03855971 0.04577830
v 0.00409551 -0.03848504 0.04493115
v 0.00409551 -0.03831325 0.04298643
v 0.00494318 -0.03853027 0.04577830
v 0.00618654 -0.03840825 0.04493115
v 0.00579028 -0.03842525 0.04493115
v 0.00082480 -0.03895852 0.05425539
v 0.00049790 -0.03838519 0.05255667
v 0.00053712 -0.03838519 0.05170840
v 0.00078216 -0.03816666 0.04323573
v 0.00084697 -0.03893515 0.05340382
v 0.00082139 -0.03895761 0.05425098
v 0.00078841 -0.03815664 0.04298643
v 0.00240131 -0.03909996 0.05425539
v 0.00240131 -0.03905413 0.05340382
v 0.00240131 -0.03900800 0.05255667
v 0.00240131 -0.03896156 0.05170840
v 0.00324898 -0.03904563 0.05340382
v 0.00384991 -0.03881435 0.04948793
v 0.00409551 -0.03893060 0.05170840
v 0.00441445 -0.03880525 0.04965118
v 0.00494318 -0.03881982 0.05024022
v 0.00494318 -0.03890116 0.05170840
v 0.00494318 -0.03879614 0.04981664
v 0.00494318 -0.03875972 0.04916693
v 0.00618654 -0.03880768 0.05081712
v 0.00324898 -0.03850356 0.04493115
v 0.00324898 -0.03843011 0.04408288
v 0.00409551 -0.03863194 0.04662546
v 0.00324898 -0.03835544 0.04323573
v 0.00324898 -0.03833329 0.04298643
v 0.00494318 -0.03859977 0.04662546
v 0.00618654 -0.03847745 0.04577830
v 0.00579028 -0.03849476 0.04577830
v 0.00155421 -0.03910451 0.05425539
v 0.00087938 -0.03891269 0.05255667
v 0.00133363 -0.03830141 0.04298643
v 0.00112611 -0.03881011 0.04872681
v 0.00108802 -0.03882225 0.04916693
v 0.00102151 -0.03884531 0.05001409
v 0.00096579 -0.03886777 0.05086125
v 0.00091860 -0.03889023 0.05170840
v 0.00155421 -0.03901437 0.05255667
v 0.00155421 -0.03896915 0.05170840
v 0.00155421 -0.03892332 0.05086125
v 0.00122049 -0.03881011 0.04872681
v 0.00324898 -0.03899828 0.05255667
v 0.00240131 -0.03891451 0.05086125
v 0.00411768 -0.03883256 0.04996555
v 0.00324898 -0.03879645 0.04896286
v 0.00324898 -0.03876033 0.04831977
v 0.00409551 -0.03869234 0.04747262
v 0.00409551 -0.03874121 0.04831977
v 0.00618654 -0.03878613 0.05044098
v 0.00494318 -0.03871086 0.04831977
v 0.00324898 -0.03857549 0.04577830
v 0.00240131 -0.03836758 0.04323573
v 0.00240131 -0.03834603 0.04298643
v 0.00299997 -0.03833753 0.04298643
v 0.00324898 -0.03864621 0.04662546
v 0.00324898 -0.03870873 0.04747262
v 0.00618654 -0.03854514 0.04662546
v 0.00494318 -0.03865987 0.04747262
v 0.00155421 -0.03835150 0.04298643
v 0.00155421 -0.03837183 0.04323573
v 0.00155421 -0.03857792 0.04577830
v 0.00155421 -0.03864651 0.04662546
v 0.00155421 -0.03871450 0.04747262
v 0.00178560 -0.03880616 0.04878858
v 0.00152351 -0.03882771 0.04910957
v 0.00240131 -0.03871328 0.04747262
v 0.00579028 -0.03872664 0.04916693
v 0.00618654 -0.03873392 0.04956293
v 0.00240131 -0.03843921 0.04408288
v 0.00215230 -0.03834846 0.04298643
v 0.00240131 -0.03864651 0.04662546
v 0.00240131 -0.03850932 0.04493115
v 0.00618654 -0.03860493 0.04747262
v 0.00579028 -0.03862253 0.04747262
v 0.00579028 -0.03867504 0.04831977
v 0.00618654 -0.03868202 0.04871467
v 0.00618654 -0.03862951 0.04786862
f 1 2 7
f 1 7 14
f 1 14 23
f 1 23 35
f 1 35 60
f 1 60 88
f 1 88 67
f 1 67 50
f 1 50 27
f 1 27 16
f 1 16 10
f 1 10 3
f 1 3 11
f 1 11 19
f 1 19 18
f 1 18 29
f 1 29 53
f 1 53 79
f 1 79 107
f 1 107 126
f 1 126 134
f 1 134 135
f 1 135 131
f 1 131 115
f 1 115 86
f 1 86 58
f 1 58 33
f 1 33 21
f 1 21 12
f 1 12 4
f 1 4 5
f 1 5 6
f 1 6 2
f 2 6 8
f 2 8 9
f 2 9 7
f 3 10 11
f 4 12 20
f 4 20 31
f 4 31 56
f 4 56 84
f 4 84 112
f 4 112 111
f 4 111 128
f 4 128 117
f 4 117 90
f 4 90 66
f 4 66 48
f 4 48 26
f 4 26 15
f 4 15 9
f 4 9 8
f 4 8 6
f 4 6 5
f 7 13 14
f 7 9 15
f 7 15 13
f 10 16 17
f 10 17 18
f 10 18 19
f 10 19 11
f 12 21 20
f 13 22 14
f 13 15 22
f 14 22 24
f 14 24 25
f 14 25 23
f 15 26 24
f 15 24 22
f 16 27 28
f 16 28 17
f 17 28 18
f 18 28 29
f 20 30 31
f 20 21 32
f 20 32 30
f 21 33 34
f 21 34 32
f 23 25 36
f 23 36 37
f 23 37 38
f 23 38 39
f 23 39 40
f 23 40 41
f 23 41 42
f 23 42 43
f 23 43 44
f 23 44 45
f 23 45 46
f 23 46 47
f 23 47 48
f 23 48 49
f 23 49 35
f 24 26 25
f 25 26 36
f 26 48 47
f 26 47 46
f 26 46 45
f 26 45 44
f 26 44 43
f 26 43 42
f 26 42 41
f 26 41 40
f 26 40 39
f 26 39 38
f 26 38 37
f 26 37 36
f 27 50 71
f 27 71 51
f 27 51 52
f 27 52 28
f 28 52 29
f 29 52 53
f 30 32 54
f 30 54 55
f 30 55 31
f 31 55 56
f 32 57 54
f 32 34 57
f 33 58 59
f 33 59 34
f 34 59 57
f 35 49 61
f 35 61 62
f 35 62 63
f 35 63 64
f 35 64 65
f 35 65 60
f 48 66 63
f 48 63 61
f 48 61 49
f 50 67 68
f 50 68 69
f 50 69 70
f 50 70 71
f 51 71 72
f 51 72 73
f 51 73 74
f 51 74 75
f 51 75 76
f 51 76 53
f 51 53 52
f 53 75 77
f 53 77 78
f 53 78 79
f 53 76 75
f 54 80 81
f 54 81 83
f 54 83 55
f 54 57 82
f 54 82 80
f 55 83 56
f 56 83 84
f 57 59 87
f 57 87 85
f 57 85 82
f 58 86 87
f 58 87 59
f 60 65 64
f 60 64 88
f 61 63 62
f 63 66 64
f 64 89 88
f 64 66 89
f 66 90 91
f 66 91 92
f 66 92 93
f 66 93 94
f 66 94 95
f 66 95 89
f 67 88 96
f 67 96 97
f 67 97 68
f 68 97 98
f 68 98 99
f 68 99 69
f 69 99 70
f 70 99 71
f 71 100 72
f 71 99 101
f 71 101 100
f 72 102 73
f 72 100 103
f 72 103 104
f 72 104 105
f 72 105 106
f 72 106 102
f 73 102 74
f 74 78 77
f 74 77 75
f 74 102 106
f 74 106 78
f 78 107 79
f 78 106 105
f 78 105 108
f 78 108 107
f 80 82 109
f 80 109 110
f 80 110 111
f 80 111 81
f 81 111 112
f 81 112 83
f 82 113 109
f 82 85 105
f 82 105 114
f 82 114 113
f 83 112 84
f 85 87 86
f 85 86 115
f 85 115 116
f 85 116 105
f 88 89 95
f 88 95 94
f 88 94 93
f 88 93 92
f 88 92 91
f 88 91 96
f 90 117 91
f 91 99 97
f 91 97 96
f 91 117 118
f 91 118 119
f 91 119 120
f 91 120 121
f 91 121 99
f 97 99 98
f 99 122 123
f 99 123 101
f 99 121 124
f 99 124 114
f 99 114 104
f 99 104 122
f 100 101 103
f 101 123 104
f 101 104 103
f 104 114 105
f 104 123 122
f 105 116 108
f 107 108 125
f 107 125 126
f 108 116 125
f 109 113 127
f 109 127 110
f 110 127 128
f 110 128 111
f 113 114 124
f 113 124 121
f 113 121 129
f 113 129 130
f 113 130 127
f 115 131 132
f 115 132 116
f 116 132 133
f 116 133 126
f 116 126 125
f 117 128 127
f 117 127 130
f 117 130 118
f 118 130 119
f 119 130 129
f 119 129 120
f 120 129 121
f 126 133 134
f 131 135 132
f 132 135 134
f 132 134 133

