# https://github.com/mikedh/trimesh
v 0.00341417 -0.01804743 0.09185959
v 0.00356133 -0.01715836 0.09185959
v 0.00341808 -0.01857223 0.09185959
v 0.00077581 -0.01889492 0.09340140
v 0.00077060 -0.01804743 0.09340140
v 0.00367723 -0.01683977 0.09185959
v 0.00342329 -0.01889492 0.09185959
v 0.00090343 -0.01945677 0.09350583
v 0.00041118 -0.01889492 0.09407958
v 0.00039685 -0.01804743 0.09407958
v 0.00348710 -0.01923203 0.09185959
v 0.00355742 -0.01945059 0.09185959
v 0.00089692 -0.01745554 0.09350642
v 0.00374885 -0.01677639 0.09185959
v 0.00150637 -0.01971279 0.09403757
v 0.00078623 -0.01952510 0.09407958
v 0.00377360 -0.01954279 0.09185959
v 0.00409655 -0.01966504 0.09185959
v 0.00043201 -0.01889492 0.09662125
v 0.00042290 -0.01804743 0.09492640
v 0.00077320 -0.01735593 0.09407958
v 0.00644322 -0.01550823 0.09185959
v 0.00148033 -0.01971279 0.09407958
v 0.00441951 -0.01969838 0.09185959
v 0.00457578 -0.01971279 0.09185959
v 0.00081357 -0.01947488 0.09662125
v 0.00091775 -0.01942507 0.09732464
v 0.00074065 -0.01897725 0.09755210
v 0.00094770 -0.01833514 0.09796981
v 0.00085785 -0.01805072 0.09739425
v 0.00064428 -0.01804743 0.09662125
v 0.00051405 -0.01804743 0.09577383
v 0.00080446 -0.01741397 0.09492640
v 0.00155455 -0.01708550 0.09407958
v 0.00644322 -0.01550823 0.09238473
v 0.01370068 -0.01550823 0.09185959
v 0.00155455 -0.01971279 0.09435625
v 0.00155455 -0.01963088 0.09662125
v 0.01356004 -0.01971279 0.09185959
v 0.00155455 -0.01947858 0.09743087
v 0.00155455 -0.01925426 0.09785458
v 0.00094770 -0.01875004 0.09796981
v 0.00155455 -0.01786961 0.09749268
v 0.00111309 -0.01761812 0.09706237
v 0.00155455 -0.01829357 0.09799081
v 0.00102584 -0.01758602 0.09662125
v 0.00089561 -0.01752222 0.09577383
v 0.00155455 -0.01719993 0.09492640
v 0.00670237 -0.01550823 0.09323215
v 0.01355092 -0.01550823 0.09238473
v 0.01352748 -0.01635284 0.09238473
v 0.01369417 -0.01574243 0.09185959
v 0.00664246 -0.01971279 0.09483218
v 0.00240232 -0.01963005 0.09662125
v 0.00748502 -0.01971279 0.09489279
v 0.00833279 -0.01971279 0.09488619
v 0.00996191 -0.01971279 0.09487299
v 0.01002702 -0.01971279 0.09487239
v 0.01087479 -0.01971279 0.09485858
v 0.01361733 -0.01804743 0.09185959
v 0.01341809 -0.01971279 0.09238473
v 0.00748502 -0.01961771 0.09662125
v 0.00748502 -0.01946541 0.09727302
v 0.00155455 -0.01883071 0.09799081
v 0.00833279 -0.01945677 0.09724782
v 0.00833279 -0.01889492 0.09762832
v 0.00833279 -0.01761812 0.09705577
v 0.00748502 -0.01761606 0.09705997
v 0.01087479 -0.01550823 0.09373569
v 0.00917925 -0.01550823 0.09373329
v 0.00833279 -0.01550823 0.09373148
v 0.00748502 -0.01550823 0.09372128
v 0.00701230 -0.01550823 0.09368407
v 0.00240232 -0.01835078 0.09795480
v 0.00833279 -0.01804743 0.09743627
v 0.00878988 -0.01762141 0.09704916
v 0.01322666 -0.01720034 0.09323215
v 0.01320843 -0.01804743 0.09323215
v 0.01320973 -0.01550823 0.09314633
v 0.01303132 -0.01720034 0.09373268
v 0.01350143 -0.01720034 0.09238473
v 0.01367463 -0.01635284 0.09185959
v 0.01175120 -0.01971279 0.09464013
v 0.00833279 -0.01960906 0.09662125
v 0.01363296 -0.01758849 0.09185959
v 0.01347409 -0.01804743 0.09238473
v 0.01318238 -0.01889492 0.09323215
v 0.01300397 -0.01936457 0.09368227
v 0.01326703 -0.01971279 0.09282825
v 0.01366552 -0.01662862 0.09185959
v 0.00240232 -0.01870806 0.09795480
v 0.00917925 -0.01958066 0.09662125
v 0.00917925 -0.01942837 0.09719080
v 0.00373713 -0.01849073 0.09789719
v 0.00324879 -0.01857264 0.09791819
v 0.00917925 -0.01889492 0.09750288
v 0.01002702 -0.01818861 0.09722261
v 0.00373713 -0.01846068 0.09789719
v 0.01172125 -0.01550823 0.09372788
v 0.00324879 -0.01841828 0.09791819
v 0.00911544 -0.01797992 0.09729763
v 0.00935506 -0.01765270 0.09696454
v 0.01227601 -0.01550823 0.09368767
v 0.01302741 -0.01804743 0.09374409
v 0.01301439 -0.01889492 0.09371048
v 0.01269924 -0.01550823 0.09356944
v 0.01144778 -0.01824047 0.09634458
v 0.01211453 -0.01767122 0.09533031
v 0.01220569 -0.01823594 0.09544854
v 0.01301569 -0.01666402 0.09368707
v 0.01285161 -0.01804743 0.09416780
v 0.01259637 -0.01971279 0.09393554
v 0.01131495 -0.01933040 0.09621434
v 0.01087479 -0.01939997 0.09635478
v 0.01003614 -0.01947323 0.09665246
v 0.01312248 -0.01971279 0.09324536
v 0.01312248 -0.01968480 0.09325316
v 0.01281775 -0.01889492 0.09413419
v 0.01220569 -0.01866854 0.09544854
v 0.01208979 -0.01923327 0.09529730
v 0.00975876 -0.01937856 0.09711998
v 0.01003614 -0.01890563 0.09723221
v 0.01055313 -0.01863067 0.09710978
v 0.01055313 -0.01834790 0.09710978
v 0.01002702 -0.01776465 0.09685231
v 0.01142304 -0.01889492 0.09632057
v 0.01290370 -0.01971279 0.09360065
v 0.01187362 -0.01892826 0.09574802
v 0.01032393 -0.01919540 0.09695554
f 1 2 6
f 1 6 14
f 1 14 22
f 1 22 36
f 1 36 52
f 1 52 82
f 1 82 90
f 1 90 85
f 1 85 60
f 1 60 39
f 1 39 25
f 1 25 24
f 1 24 18
f 1 18 17
f 1 17 12
f 1 12 11
f 1 11 7
f 1 7 3
f 1 3 4
f 1 4 5
f 1 5 2
f 2 5 6
f 3 7 4
f 4 8 9
f 4 9 10
f 4 10 5
f 4 7 11
f 4 11 12
f 4 12 8
f 5 10 13
f 5 13 6
f 6 13 14
f 8 15 16
f 8 16 9
f 8 12 17
f 8 17 18
f 8 18 15
f 9 19 10
f 9 16 19
f 10 19 20
f 10 20 21
f 10 21 13
f 13 21 22
f 13 22 14
f 15 23 16
f 15 18 24
f 15 24 25
f 15 25 39
f 15 39 61
f 15 61 89
f 15 89 116
f 15 116 127
f 15 127 112
f 15 112 83
f 15 83 59
f 15 59 58
f 15 58 57
f 15 57 56
f 15 56 55
f 15 55 53
f 15 53 37
f 15 37 23
f 16 26 19
f 16 23 26
f 19 26 27
f 19 27 28
f 19 28 29
f 19 29 30
f 19 30 31
f 19 31 32
f 19 32 20
f 20 32 33
f 20 33 21
f 21 33 34
f 21 34 22
f 22 35 49
f 22 49 73
f 22 73 72
f 22 72 71
f 22 71 70
f 22 70 69
f 22 69 99
f 22 99 103
f 22 103 106
f 22 106 79
f 22 79 50
f 22 50 36
f 22 34 35
f 23 37 38
f 23 38 26
f 26 38 27
f 27 38 40
f 27 40 41
f 27 41 42
f 27 42 28
f 28 42 29
f 29 43 44
f 29 44 30
f 29 42 64
f 29 64 45
f 29 45 43
f 30 44 31
f 31 44 46
f 31 46 47
f 31 47 33
f 31 33 32
f 33 47 46
f 33 46 44
f 33 44 48
f 33 48 34
f 34 48 49
f 34 49 35
f 36 50 51
f 36 51 52
f 37 53 38
f 38 54 40
f 38 53 55
f 38 55 56
f 38 56 57
f 38 57 58
f 38 58 59
f 38 59 54
f 39 60 61
f 40 54 62
f 40 62 63
f 40 63 41
f 41 64 42
f 41 63 65
f 41 65 66
f 41 66 64
f 43 45 67
f 43 67 68
f 43 68 69
f 43 69 70
f 43 70 71
f 43 71 72
f 43 72 44
f 44 72 73
f 44 73 49
f 44 49 48
f 45 64 91
f 45 91 74
f 45 74 75
f 45 75 76
f 45 76 67
f 50 77 78
f 50 78 51
f 50 79 80
f 50 80 77
f 51 81 52
f 51 78 87
f 51 87 81
f 52 81 82
f 54 59 62
f 59 83 84
f 59 84 62
f 60 85 61
f 61 86 87
f 61 87 88
f 61 88 89
f 61 85 90
f 61 90 86
f 62 84 63
f 63 84 65
f 64 66 91
f 65 84 92
f 65 92 93
f 65 93 66
f 66 94 95
f 66 95 91
f 66 93 96
f 66 96 97
f 66 97 75
f 66 75 98
f 66 98 94
f 67 76 99
f 67 99 69
f 67 69 68
f 74 91 94
f 74 94 98
f 74 98 100
f 74 100 75
f 75 97 101
f 75 101 76
f 75 100 98
f 76 101 102
f 76 102 103
f 76 103 99
f 77 80 104
f 77 104 78
f 78 104 105
f 78 105 87
f 79 106 107
f 79 107 108
f 79 108 109
f 79 109 110
f 79 110 80
f 80 110 109
f 80 109 111
f 80 111 104
f 81 86 82
f 81 87 86
f 82 86 90
f 83 112 113
f 83 113 114
f 83 114 115
f 83 115 92
f 83 92 84
f 87 105 88
f 88 116 117
f 88 117 89
f 88 105 111
f 88 111 118
f 88 118 119
f 88 119 120
f 88 120 116
f 89 117 116
f 91 95 94
f 92 115 93
f 93 115 121
f 93 121 96
f 96 121 122
f 96 122 123
f 96 123 124
f 96 124 97
f 97 125 102
f 97 102 101
f 97 124 125
f 102 125 106
f 102 106 103
f 104 111 105
f 106 124 107
f 106 125 124
f 107 124 123
f 107 123 126
f 107 126 119
f 107 119 109
f 107 109 108
f 109 119 111
f 111 119 118
f 112 127 113
f 113 120 128
f 113 128 126
f 113 126 123
f 113 123 129
f 113 129 121
f 113 121 114
f 113 127 120
f 114 121 115
f 116 120 127
f 119 126 128
f 119 128 120
f 121 129 122
f 122 129 123

