# https://github.com/mikedh/trimesh
v 0.01422925 -0.01971337 0.08730086
v 0.01416725 -0.02143657 0.08729962
v 0.01402093 -0.02143657 0.08646634
v 0.01403664 -0.02058973 0.08646011
v 0.01405235 -0.01971337 0.08645762
v 0.01409781 -0.01971337 0.08896492
v 0.01406805 -0.02058973 0.08899482
v 0.01404077 -0.02143657 0.08899357
v 0.00996200 -0.02143657 0.08240583
v 0.00996283 -0.02058973 0.08240459
v 0.00996283 -0.01971337 0.08240459
v 0.01402920 -0.01971337 0.08981190
v 0.01409450 -0.01974255 0.08899482
v 0.01402589 -0.01974255 0.08984180
v 0.01397050 -0.02143657 0.08984055
v 0.00917997 -0.02143657 0.08217167
v 0.00918080 -0.02058973 0.08216793
v 0.00993637 -0.01971337 0.08239587
v 0.01402672 -0.01971337 0.08984180
v 0.01388453 -0.02143657 0.09043094
v 0.00850707 -0.02143657 0.08240583
v 0.00843597 -0.01971337 0.08240583
v 0.00918080 -0.01971337 0.08216793
v 0.01391429 -0.01971337 0.09054180
v 0.01389941 -0.02058973 0.09048575
v 0.01359106 -0.02143657 0.09153575
v 0.00814168 -0.02143657 0.08307719
v 0.00702320 -0.02103322 0.08424801
v 0.00613619 -0.01971337 0.08357167
v 0.00661648 -0.01971337 0.08319551
v 0.01380517 -0.01971337 0.09095159
v 0.01364811 -0.01971337 0.09153700
v 0.01341664 -0.01974255 0.09238397
v 0.01337283 -0.02058973 0.09238397
v 0.01331579 -0.02143657 0.09238273
v 0.00812349 -0.02143657 0.08312327
v 0.00674544 -0.02143657 0.08730958
v 0.00649248 -0.02143657 0.08809677
v 0.00647678 -0.02143657 0.08814784
v 0.00608742 -0.01971337 0.08391295
v 0.01342573 -0.01971337 0.09235408
v 0.01341746 -0.01971337 0.09238397
v 0.01326701 -0.01971337 0.09282739
v 0.01312317 -0.01971337 0.09324465
v 0.01307275 -0.02143657 0.09289216
v 0.00644454 -0.02143657 0.08899482
v 0.00578403 -0.01971337 0.08975461
v 0.01290411 -0.01971337 0.09359964
v 0.01259576 -0.01971337 0.09393469
v 0.01175091 -0.01971337 0.09463843
v 0.01256931 -0.02143657 0.09309269
v 0.00644454 -0.02143657 0.09153700
v 0.00578403 -0.01985844 0.09238397
v 0.00578403 -0.01981661 0.09153575
v 0.00578403 -0.01976819 0.09068877
v 0.00578403 -0.01971893 0.08984180
v 0.00578403 -0.01971337 0.09461352
v 0.01087464 -0.01971337 0.09485765
v 0.01172197 -0.02143657 0.09320853
v 0.00649166 -0.02143657 0.09238397
v 0.00578403 -0.01978489 0.09407917
v 0.00578403 -0.01985659 0.09323095
v 0.00578403 -0.01971387 0.09460978
v 0.00680083 -0.02143657 0.09301049
v 0.00748614 -0.02143657 0.09321476
v 0.00664211 -0.01971337 0.09483149
v 0.00996365 -0.01971337 0.09487259
v 0.01087464 -0.02143657 0.09321102
v 0.00748614 -0.01971337 0.09489252
v 0.00833347 -0.02143657 0.09321601
f 1 2 3
f 1 3 4
f 1 4 5
f 1 5 11
f 1 11 18
f 1 18 23
f 1 23 22
f 1 22 30
f 1 30 29
f 1 29 40
f 1 40 47
f 1 47 57
f 1 57 66
f 1 66 69
f 1 69 67
f 1 67 58
f 1 58 50
f 1 50 49
f 1 49 48
f 1 48 44
f 1 44 43
f 1 43 42
f 1 42 41
f 1 41 32
f 1 32 31
f 1 31 24
f 1 24 19
f 1 19 12
f 1 12 6
f 1 6 7
f 1 7 8
f 1 8 2
f 2 8 15
f 2 15 20
f 2 20 26
f 2 26 35
f 2 35 45
f 2 45 51
f 2 51 59
f 2 59 68
f 2 68 70
f 2 70 65
f 2 65 64
f 2 64 60
f 2 60 52
f 2 52 46
f 2 46 39
f 2 39 38
f 2 38 37
f 2 37 36
f 2 36 27
f 2 27 21
f 2 21 16
f 2 16 9
f 2 9 3
f 3 9 4
f 4 9 5
f 5 9 10
f 5 10 11
f 6 12 14
f 6 14 13
f 6 13 7
f 7 13 14
f 7 14 8
f 8 14 15
f 9 16 17
f 9 17 10
f 10 17 18
f 10 18 11
f 12 19 14
f 14 19 20
f 14 20 15
f 16 21 22
f 16 22 17
f 17 23 18
f 17 22 23
f 19 24 25
f 19 25 20
f 20 25 26
f 21 27 28
f 21 28 29
f 21 29 30
f 21 30 22
f 24 31 26
f 24 26 25
f 26 31 32
f 26 32 33
f 26 33 34
f 26 34 35
f 27 36 28
f 28 36 37
f 28 37 38
f 28 38 39
f 28 39 29
f 29 39 40
f 32 41 33
f 33 41 42
f 33 42 43
f 33 43 34
f 34 43 44
f 34 44 35
f 35 44 45
f 39 46 47
f 39 47 40
f 44 48 45
f 45 48 49
f 45 49 50
f 45 50 51
f 46 52 53
f 46 53 54
f 46 54 55
f 46 55 56
f 46 56 47
f 47 56 55
f 47 55 54
f 47 54 53
f 47 53 62
f 47 62 61
f 47 61 63
f 47 63 57
f 50 58 51
f 51 58 59
f 52 60 61
f 52 61 62
f 52 62 53
f 57 63 60
f 57 60 64
f 57 64 65
f 57 65 66
f 58 67 59
f 59 67 69
f 59 69 68
f 60 63 61
f 65 70 69
f 65 69 66
f 68 69 70

