# https://github.com/mikedh/trimesh
v 0.01457573 0.00738822 0.08729956
v 0.01422361 0.00738822 0.08645524
v 0.01421003 0.00906935 0.08645524
v 0.01420205 0.00991673 0.08645524
v 0.01419326 0.01076411 0.08645524
v 0.01417570 0.01245811 0.08645524
v 0.01414855 0.01500100 0.08645673
v 0.01414695 0.01511751 0.08645673
v 0.01456056 0.00822198 0.08729956
v 0.01451265 0.00738822 0.08814685
v 0.01341716 0.00738822 0.08603383
v 0.00981610 0.00853672 0.08160974
v 0.00984244 0.00928725 0.08072969
v 0.00983606 0.01013236 0.07993899
v 0.00996700 0.01076411 0.07980050
v 0.00998218 0.01161073 0.07974243
v 0.00998297 0.01245811 0.07974243
v 0.00998058 0.01330549 0.07975285
v 0.01438170 0.01511751 0.08718341
v 0.01449269 0.01161073 0.08729956
v 0.01451025 0.01076411 0.08729956
v 0.01452782 0.00991673 0.08729956
v 0.01454459 0.00906935 0.08729956
v 0.00988396 0.01415286 0.07988389
v 0.00972826 0.01462800 0.08003429
v 0.01003248 0.01511751 0.08222027
v 0.01449748 0.00822198 0.08814685
v 0.01441683 0.00906935 0.08899414
v 0.01435136 0.00906935 0.08984143
v 0.01436254 0.00822198 0.08984143
v 0.01444398 0.00738822 0.08898074
v 0.00984005 0.00738822 0.08419034
v 0.00918052 0.00848149 0.08151742
v 0.00918052 0.00876067 0.08109452
v 0.00918052 0.00918436 0.08062248
v 0.00918052 0.00960426 0.08019958
v 0.00918052 0.01002795 0.07985858
v 0.00918052 0.01076411 0.07951311
v 0.00918052 0.01161073 0.07940589
v 0.00918052 0.01245811 0.07940440
v 0.00918052 0.01330549 0.07942525
v 0.01441763 0.01511751 0.08729956
v 0.01445676 0.01330549 0.08729956
v 0.01433459 0.00991673 0.08984143
v 0.00918052 0.01415286 0.07967691
v 0.00918052 0.01465372 0.08000153
v 0.00918052 0.01484817 0.08052122
v 0.00918052 0.01511751 0.08161123
v 0.01419486 0.00991673 0.09068873
v 0.01420844 0.00906935 0.09068873
v 0.01422600 0.00738822 0.09067533
v 0.01436893 0.00738822 0.08984143
v 0.01437052 0.00738822 0.08982803
v 0.01421722 0.00822198 0.09068873
v 0.00982168 0.00738822 0.08418438
v 0.00862080 0.00853672 0.08160974
v 0.00918052 0.00738822 0.08406674
v 0.00862239 0.00738822 0.08420970
v 0.00859205 0.00928725 0.08072969
v 0.00860084 0.01013236 0.07993899
v 0.00850901 0.01076411 0.07981093
v 0.00849544 0.01161073 0.07976179
v 0.00849544 0.01245811 0.07976179
v 0.00849544 0.01330549 0.07977072
v 0.00857129 0.01415286 0.07989134
v 0.01435775 0.01511751 0.08803070
v 0.01430265 0.01415286 0.08899414
v 0.01431463 0.01076411 0.08984143
v 0.01417650 0.01076411 0.09068873
v 0.00868388 0.01462800 0.08003429
v 0.00846031 0.01511751 0.08222027
v 0.01394814 0.01161073 0.09150922
v 0.01393536 0.01074217 0.09161494
v 0.01396970 0.00991673 0.09153602
v 0.01381958 0.01330549 0.09187553
v 0.01398247 0.00906935 0.09153602
v 0.01399205 0.00822198 0.09153602
v 0.01422361 0.00738822 0.09068873
v 0.01399924 0.00738822 0.09153602
v 0.00847228 0.00903077 0.08134320
v 0.00836210 0.00738822 0.08475917
v 0.00845951 0.00987663 0.08047804
v 0.00824792 0.01076411 0.08052122
v 0.00823434 0.01161073 0.08052122
v 0.00644738 0.01511751 0.08560646
v 0.00674202 0.01511751 0.08475321
v 0.01428828 0.01511751 0.08887799
v 0.01427870 0.01511751 0.08899414
v 0.01429387 0.01161073 0.08984143
v 0.01415654 0.01161073 0.09068873
v 0.01382677 0.01245811 0.09190680
v 0.01368145 0.01330549 0.09238331
v 0.01369502 0.01245811 0.09238331
v 0.01372856 0.00991673 0.09240416
v 0.01380920 0.01415286 0.09183235
v 0.01364632 0.01500100 0.09238331
v 0.01366468 0.01415286 0.09238331
v 0.01385791 0.00822198 0.09202295
v 0.01373495 0.00906935 0.09242649
v 0.01374054 0.00822198 0.09244734
v 0.01374533 0.00738822 0.09246074
v 0.01386190 0.00738822 0.09203635
v 0.00826468 0.00906935 0.08221580
v 0.00824153 0.00991673 0.08136851
v 0.00647134 0.00738822 0.09323060
v 0.00642423 0.01511751 0.08645375
v 0.01421482 0.01511751 0.08972528
v 0.01420764 0.01500100 0.08984143
v 0.01408946 0.01415286 0.09068873
v 0.01391380 0.01415286 0.09140796
v 0.01341397 0.01500100 0.09323060
v 0.01342754 0.01415286 0.09323060
v 0.01379723 0.01500100 0.09178618
v 0.01366548 0.01511751 0.09229545
v 0.01390103 0.01511751 0.09135584
v 0.01364312 0.01511751 0.09238331
v 0.01344351 0.01511751 0.09311445
v 0.01341157 0.01511751 0.09323060
v 0.01347864 0.01076411 0.09323060
v 0.01349062 0.00991673 0.09323060
v 0.01350180 0.00906935 0.09323060
v 0.01351138 0.00822198 0.09323060
v 0.01352176 0.00738822 0.09321869
v 0.00675319 0.00738822 0.09403918
v 0.00667255 0.01511751 0.09413150
v 0.00643780 0.01511751 0.09339887
v 0.00642024 0.01511751 0.09323060
v 0.00642024 0.01511751 0.08984143
v 0.01420444 0.01511751 0.08984143
v 0.01406391 0.01511751 0.09068873
v 0.01314009 0.01511751 0.09392005
v 0.01379563 0.01511751 0.09177874
v 0.01351777 0.00738822 0.09323060
v 0.00748618 0.00738822 0.09443081
v 0.00688494 0.01511751 0.09439954
v 0.00673802 0.01511751 0.09428041
v 0.01262508 0.01511751 0.09436529
v 0.01318720 0.00822198 0.09392452
v 0.01318401 0.00906935 0.09392154
v 0.01318960 0.00738822 0.09392601
v 0.00833335 0.00738822 0.09443825
v 0.00833335 0.01511751 0.09461694
v 0.00748618 0.01511751 0.09460801
v 0.00743907 0.01511751 0.09459759
v 0.01256919 0.00738822 0.09431764
v 0.01257957 0.00738822 0.09431168
v 0.01240311 0.01511751 0.09447697
v 0.01172202 0.00738822 0.09443825
v 0.01088124 0.01511751 0.09460056
v 0.01217635 0.01511751 0.09454398
v 0.01173560 0.00738822 0.09443677
v 0.01172202 0.01511600 0.09459461
v 0.01172202 0.01511751 0.09459461
f 1 2 3
f 1 3 4
f 1 4 5
f 1 5 6
f 1 6 7
f 1 7 8
f 1 8 9
f 1 9 27
f 1 27 10
f 1 10 31
f 1 31 53
f 1 53 52
f 1 52 51
f 1 51 78
f 1 78 79
f 1 79 102
f 1 102 101
f 1 101 123
f 1 123 133
f 1 133 140
f 1 140 146
f 1 146 145
f 1 145 151
f 1 151 148
f 1 148 141
f 1 141 134
f 1 134 124
f 1 124 105
f 1 105 81
f 1 81 58
f 1 58 57
f 1 57 55
f 1 55 32
f 1 32 11
f 1 11 2
f 2 11 12
f 2 12 13
f 2 13 14
f 2 14 15
f 2 15 16
f 2 16 17
f 2 17 3
f 3 17 4
f 4 17 5
f 5 17 6
f 6 17 18
f 6 18 7
f 7 18 8
f 8 19 20
f 8 20 21
f 8 21 22
f 8 22 23
f 8 23 9
f 8 18 24
f 8 24 25
f 8 25 26
f 8 26 48
f 8 48 71
f 8 71 86
f 8 86 85
f 8 85 106
f 8 106 128
f 8 128 127
f 8 127 126
f 8 126 125
f 8 125 136
f 8 136 135
f 8 135 144
f 8 144 143
f 8 143 142
f 8 142 149
f 8 149 153
f 8 153 150
f 8 150 147
f 8 147 137
f 8 137 131
f 8 131 118
f 8 118 117
f 8 117 116
f 8 116 114
f 8 114 132
f 8 132 115
f 8 115 130
f 8 130 129
f 8 129 107
f 8 107 88
f 8 88 87
f 8 87 66
f 8 66 42
f 8 42 19
f 9 23 27
f 10 27 28
f 10 28 29
f 10 29 30
f 10 30 31
f 11 32 12
f 12 32 33
f 12 33 34
f 12 34 13
f 13 34 35
f 13 35 36
f 13 36 14
f 14 36 37
f 14 37 38
f 14 38 15
f 15 38 39
f 15 39 16
f 16 39 40
f 16 40 17
f 17 40 18
f 18 40 41
f 18 41 24
f 19 42 43
f 19 43 20
f 20 43 44
f 20 44 28
f 20 28 21
f 21 28 22
f 22 28 27
f 22 27 23
f 24 41 45
f 24 45 25
f 25 45 46
f 25 46 47
f 25 47 26
f 26 47 48
f 28 44 29
f 29 44 49
f 29 49 50
f 29 50 30
f 30 51 52
f 30 52 53
f 30 53 31
f 30 50 54
f 30 54 51
f 32 55 33
f 33 56 34
f 33 55 57
f 33 57 58
f 33 58 56
f 34 59 35
f 34 56 59
f 35 59 36
f 36 60 37
f 36 59 60
f 37 60 38
f 38 60 61
f 38 61 39
f 39 61 62
f 39 62 40
f 40 62 63
f 40 63 64
f 40 64 41
f 41 64 65
f 41 65 45
f 42 66 67
f 42 67 68
f 42 68 44
f 42 44 43
f 44 68 69
f 44 69 49
f 45 65 70
f 45 70 46
f 46 70 47
f 47 70 48
f 48 70 71
f 49 72 73
f 49 73 74
f 49 74 50
f 49 69 75
f 49 75 72
f 50 74 76
f 50 76 77
f 50 77 54
f 51 54 78
f 54 77 79
f 54 79 78
f 56 80 59
f 56 58 81
f 56 81 80
f 59 80 82
f 59 82 60
f 60 82 83
f 60 83 61
f 61 83 62
f 62 83 84
f 62 84 85
f 62 85 86
f 62 86 63
f 63 86 64
f 64 86 65
f 65 86 70
f 66 87 67
f 67 87 88
f 67 88 89
f 67 89 68
f 68 89 90
f 68 90 69
f 69 90 75
f 70 86 71
f 72 75 91
f 72 91 73
f 73 76 74
f 73 91 92
f 73 92 93
f 73 93 94
f 73 94 76
f 75 90 95
f 75 95 96
f 75 96 97
f 75 97 92
f 75 92 91
f 76 98 77
f 76 94 99
f 76 99 100
f 76 100 98
f 77 98 101
f 77 101 102
f 77 102 79
f 80 103 104
f 80 104 82
f 80 81 105
f 80 105 103
f 82 104 83
f 83 104 85
f 83 85 84
f 85 104 105
f 85 105 106
f 88 107 89
f 89 107 108
f 89 108 90
f 90 108 109
f 90 109 110
f 90 110 95
f 92 97 111
f 92 111 93
f 93 111 112
f 93 112 94
f 94 112 99
f 95 113 114
f 95 114 96
f 95 110 115
f 95 115 113
f 96 114 116
f 96 116 117
f 96 117 97
f 97 117 118
f 97 118 111
f 98 100 101
f 99 112 119
f 99 119 120
f 99 120 100
f 100 120 121
f 100 121 122
f 100 122 101
f 101 122 123
f 103 105 104
f 105 124 125
f 105 125 126
f 105 126 127
f 105 127 128
f 105 128 106
f 107 129 108
f 108 129 130
f 108 130 109
f 109 130 115
f 109 115 110
f 111 118 131
f 111 131 112
f 112 131 119
f 113 132 114
f 113 115 132
f 119 131 120
f 120 131 121
f 121 131 122
f 122 133 123
f 122 131 133
f 124 134 135
f 124 135 136
f 124 136 125
f 131 137 138
f 131 138 139
f 131 139 133
f 133 139 138
f 133 138 140
f 134 141 142
f 134 142 143
f 134 143 144
f 134 144 135
f 137 145 146
f 137 146 140
f 137 140 138
f 137 147 145
f 141 148 142
f 142 148 149
f 145 147 150
f 145 150 151
f 148 152 149
f 148 151 152
f 149 152 153
f 150 153 152
f 150 152 151

