# https://github.com/mikedh/trimesh
v 0.01553850 0.00483456 0.05862928
v 0.01553850 0.00568035 0.05862832
v 0.01553850 0.00447762 0.05862928
v 0.01554391 0.00447762 0.05862736
v 0.01585424 0.00483456 0.05845875
v 0.01585154 0.00568035 0.05845778
v 0.01584829 0.00652873 0.05845682
v 0.01553850 0.00652873 0.05862543
v 0.01553850 0.00447762 0.05425987
v 0.01585370 0.00447762 0.05845875
v 0.01896567 0.01415378 0.05388700
v 0.01584559 0.00737452 0.05845393
v 0.01553850 0.00822290 0.05861869
v 0.01553850 0.00737452 0.05862254
v 0.01860776 0.00447762 0.04878726
v 0.01553850 0.02655613 0.05038376
v 0.01610024 0.00447762 0.05808684
v 0.01896243 0.01330799 0.05388315
v 0.01925438 0.01330799 0.05340429
v 0.01925979 0.01415378 0.05340429
v 0.01925384 0.01500216 0.05340429
v 0.01896135 0.01500216 0.05388026
v 0.01583694 0.00907128 0.05844622
v 0.01584235 0.00822290 0.05845104
v 0.01553850 0.00907128 0.05861194
v 0.02092715 0.00447762 0.04878726
v 0.01553850 0.02728552 0.05030476
v 0.01553850 0.02813131 0.05024213
v 0.01830176 0.01377615 0.04878726
v 0.01627757 0.00447762 0.05781514
v 0.01895594 0.01245961 0.05387351
v 0.01924465 0.01245961 0.05340429
v 0.01963716 0.01245961 0.05273756
v 0.01964094 0.01330799 0.05274430
v 0.01964257 0.01415378 0.05273756
v 0.01964148 0.01500216 0.05272600
v 0.01923600 0.01585054 0.05340429
v 0.01576503 0.01500216 0.05839516
v 0.01577585 0.01415378 0.05840479
v 0.01579693 0.01245961 0.05842213
v 0.01580775 0.01161382 0.05842888
v 0.01581856 0.01076544 0.05843562
v 0.01582883 0.00991707 0.05844140
v 0.01895108 0.01585054 0.05386580
v 0.01574395 0.01669633 0.05837300
v 0.01575476 0.01585054 0.05838456
v 0.01553850 0.01076544 0.05859556
v 0.01553850 0.00991707 0.05860423
v 0.02095526 0.00481128 0.04878726
v 0.02087146 0.00447762 0.04893757
v 0.01553850 0.02853740 0.05026429
v 0.01834609 0.01557378 0.04878726
v 0.01829689 0.01457021 0.04878726
v 0.01939062 0.00447762 0.05207661
v 0.01974907 0.00803150 0.05209010
v 0.01977773 0.00859536 0.05214213
v 0.01979395 0.00907128 0.05217296
v 0.01958580 0.00991707 0.05264121
v 0.01961445 0.01076544 0.05268361
v 0.01922627 0.01161382 0.05340429
v 0.01894567 0.01161382 0.05385713
v 0.01962959 0.01161382 0.05271829
v 0.01986802 0.01245961 0.05231363
v 0.01987018 0.01330799 0.05232037
v 0.01986369 0.01415378 0.05231459
v 0.01985288 0.01500216 0.05230206
v 0.01963392 0.01585054 0.05269806
v 0.01920680 0.01669633 0.05340429
v 0.01893702 0.01669633 0.05384557
v 0.01553850 0.01669633 0.05850403
v 0.01553850 0.01585054 0.05851945
v 0.01553850 0.01500216 0.05853486
v 0.01553850 0.01330799 0.05856184
v 0.01553850 0.01161382 0.05858496
v 0.01863858 0.01669633 0.05426950
v 0.01573151 0.01754470 0.05835854
v 0.01553850 0.01754470 0.05848476
v 0.02100392 0.00568035 0.04878726
v 0.02087849 0.00568035 0.04916784
v 0.02078496 0.00478800 0.04924010
v 0.02077901 0.00447762 0.04918615
v 0.01553850 0.02894090 0.05029801
v 0.01865048 0.01658511 0.04878726
v 0.01855208 0.01637301 0.04878726
v 0.01958363 0.00447762 0.05171819
v 0.01979287 0.00447762 0.05132509
v 0.01993343 0.00737452 0.05159294
v 0.02021295 0.00652873 0.05086261
v 0.01993127 0.00827722 0.05176829
v 0.02001669 0.00907128 0.05170952
v 0.02006103 0.00991707 0.05170952
v 0.01981611 0.00991707 0.05221824
v 0.01983774 0.01076544 0.05225967
v 0.01985720 0.01161382 0.05229436
v 0.02012645 0.01161382 0.05170952
v 0.02013942 0.01245961 0.05170952
v 0.02013293 0.01330799 0.05170952
v 0.02010969 0.01415378 0.05170952
v 0.01983558 0.01585054 0.05227412
v 0.01961878 0.01669633 0.05264699
v 0.01914517 0.01839049 0.05335516
v 0.01912408 0.01748780 0.05347848
v 0.01891431 0.01772835 0.05380896
v 0.01892729 0.01716707 0.05383015
v 0.01568069 0.02008466 0.05829399
v 0.01569853 0.01923628 0.05831711
v 0.01571584 0.01839049 0.05833927
v 0.01553850 0.01839049 0.05845778
v 0.02103149 0.00652873 0.04878726
v 0.02094553 0.00737452 0.04916784
v 0.02091417 0.00652873 0.04916784
v 0.02067412 0.00568035 0.04971414
v 0.02071467 0.00737452 0.04983939
v 0.02069629 0.00652873 0.04978255
v 0.02064871 0.00504148 0.04964766
v 0.02071035 0.00447762 0.04934994
v 0.01553850 0.02916075 0.05034233
v 0.01994749 0.01729898 0.04878726
v 0.01957282 0.01740762 0.04878726
v 0.01944198 0.01740762 0.04878726
v 0.01932791 0.01734554 0.04878726
v 0.01910462 0.01716449 0.04878726
v 0.01899757 0.01707654 0.04878726
v 0.02025999 0.00447762 0.05033848
v 0.02052220 0.00652873 0.05020648
v 0.02028702 0.00737452 0.05086261
v 0.02034595 0.00822290 0.05086261
v 0.02039407 0.00907128 0.05086261
v 0.02009617 0.01076544 0.05170952
v 0.02042813 0.00991707 0.05086261
v 0.02044759 0.01076544 0.05086261
v 0.02045300 0.01161382 0.05086261
v 0.02044381 0.01245961 0.05086261
v 0.02007563 0.01500216 0.05170952
v 0.02041569 0.01330799 0.05086261
v 0.01981071 0.01669633 0.05222306
v 0.01962743 0.01758091 0.05249573
v 0.01954092 0.01839049 0.05255739
v 0.01911327 0.01923628 0.05330698
v 0.01889485 0.01839049 0.05377813
v 0.01886511 0.01923628 0.05372995
v 0.01553850 0.02646043 0.05806372
v 0.01554823 0.02601554 0.05808491
v 0.01562338 0.02262721 0.05820920
v 0.01564231 0.02177883 0.05823907
v 0.01566177 0.02093045 0.05826798
v 0.01553850 0.02093045 0.05835854
v 0.01553850 0.02008466 0.05839419
v 0.01553850 0.01923628 0.05842695
v 0.02105366 0.00737452 0.04878726
v 0.02096229 0.00822290 0.04916784
v 0.02073792 0.00907128 0.04994345
v 0.02072873 0.00822290 0.04989527
v 0.02054977 0.00737452 0.05026333
v 0.02059465 0.00907128 0.05036642
v 0.02057518 0.00822290 0.05031824
v 0.02042542 0.00447762 0.04998391
v 0.02060979 0.00447762 0.04957443
v 0.01553850 0.02934957 0.05057550
v 0.01564555 0.02910126 0.05036160
v 0.02060492 0.01643767 0.04878726
v 0.01644247 0.02820633 0.05039629
v 0.02060708 0.00991707 0.05039918
v 0.02061249 0.01076544 0.05041267
v 0.02060762 0.01161382 0.05039051
v 0.02059627 0.01245961 0.05033655
v 0.02037136 0.01415378 0.05086261
v 0.02002913 0.01585054 0.05170952
v 0.02057735 0.01330799 0.05024695
v 0.01978854 0.01732226 0.05217296
v 0.01947064 0.01923628 0.05255739
v 0.01907705 0.02008466 0.05325110
v 0.01883321 0.02008466 0.05367503
v 0.01553850 0.02855809 0.05783633
v 0.01553850 0.02639835 0.05806853
v 0.01553850 0.02601554 0.05809358
v 0.01553850 0.02516975 0.05814080
v 0.01553850 0.02347300 0.05823136
v 0.01553850 0.02262721 0.05827568
v 0.01553850 0.02177883 0.05831808
v 0.02106177 0.00822290 0.04878726
v 0.02096499 0.00907128 0.04916784
v 0.02073792 0.00991707 0.04997524
v 0.01553850 0.02952545 0.05086261
v 0.01579207 0.02925386 0.05086261
v 0.01621540 0.02878053 0.05086261
v 0.02064168 0.01637043 0.04878726
v 0.01716423 0.02721052 0.05050131
v 0.01983558 0.01981566 0.04953108
v 0.01656195 0.02835634 0.05086261
v 0.01699447 0.02769161 0.05081540
v 0.02073089 0.01076544 0.04998873
v 0.02071738 0.01161382 0.04996657
v 0.02069521 0.01245961 0.04991262
v 0.02031946 0.01500216 0.05086261
v 0.01997020 0.01669633 0.05170952
v 0.02067088 0.01330799 0.04982301
v 0.02064331 0.01415378 0.04969680
v 0.02054923 0.01415378 0.05012073
v 0.01976637 0.01788612 0.05211033
v 0.01939225 0.02008466 0.05255739
v 0.01903596 0.02093045 0.05318655
v 0.01880024 0.02093045 0.05361048
v 0.01553850 0.02940647 0.05771204
v 0.02105420 0.00907128 0.04878726
v 0.02095418 0.00991707 0.04916784
v 0.01553850 0.02975565 0.05141469
v 0.01596994 0.02941681 0.05168447
v 0.01633272 0.02892279 0.05141758
v 0.01985937 0.02009242 0.05007159
v 0.02007400 0.01923628 0.05001475
v 0.02064168 0.01637043 0.04884989
v 0.02075738 0.01498147 0.04878726
v 0.01728534 0.02739416 0.05106591
v 0.01810550 0.02482833 0.05041267
v 0.01978151 0.02053472 0.05039243
v 0.01901704 0.02244356 0.05030957
v 0.01712747 0.02794767 0.05170952
v 0.01667224 0.02860724 0.05170374
v 0.02089957 0.01161382 0.04916784
v 0.02093201 0.01076544 0.04916784
v 0.02025999 0.01585054 0.05086261
v 0.01988153 0.01758091 0.05178082
v 0.02080442 0.01330799 0.04916784
v 0.02085524 0.01245961 0.04916784
v 0.02074981 0.01415378 0.04916784
v 0.02062547 0.01465557 0.04961683
v 0.02053139 0.01496336 0.04994538
v 0.01974475 0.01839049 0.05202940
v 0.01970582 0.01923628 0.05188006
v 0.01930196 0.02093045 0.05255739
v 0.01898135 0.02177883 0.05309116
v 0.01876239 0.02177883 0.05351509
v 0.01829689 0.02262721 0.05418086
v 0.01734265 0.02686392 0.05488903
v 0.01553850 0.03013328 0.05745672
v 0.01823904 0.02347300 0.05410764
v 0.02103528 0.00991707 0.04878726
v 0.01553850 0.02994188 0.05192438
v 0.01560716 0.02989532 0.05195135
v 0.01614511 0.02957977 0.05255739
v 0.01643760 0.02904436 0.05198219
v 0.01978151 0.02053472 0.05052443
v 0.01975178 0.02034590 0.05108903
v 0.02022322 0.01839049 0.05001475
v 0.02031081 0.01754470 0.05001475
v 0.02066764 0.01585054 0.04897996
v 0.02082172 0.01415378 0.04878726
v 0.01719613 0.02805889 0.05235506
v 0.01733778 0.02752348 0.05170952
v 0.01759135 0.02686392 0.05170952
v 0.01723938 0.02815201 0.05291966
v 0.01726101 0.02820374 0.05340429
v 0.01726263 0.02820891 0.05400551
v 0.01652410 0.02915558 0.05255739
v 0.01698366 0.02848308 0.05260556
v 0.02097256 0.01161382 0.04878726
v 0.02100824 0.01076544 0.04878726
v 0.02045138 0.01585054 0.05001475
v 0.02019186 0.01669633 0.05086261
v 0.01985828 0.01839049 0.05160643
v 0.02087524 0.01330799 0.04878726
v 0.02085146 0.01368821 0.04878726
v 0.02092661 0.01245961 0.04878726
v 0.02068548 0.01496336 0.04920831
v 0.02060492 0.01522201 0.04951759
v 0.01981665 0.01923628 0.05145612
v 0.01978800 0.01977945 0.05134629
v 0.01967338 0.02007173 0.05166135
v 0.01953281 0.02093045 0.05170952
v 0.01916193 0.02177883 0.05255739
v 0.01894080 0.02227544 0.05301504
v 0.01816335 0.02432138 0.05399973
v 0.01728209 0.02749245 0.05477823
v 0.01686958 0.02855809 0.05509810
v 0.01553850 0.03029623 0.05732472
v 0.01721127 0.02805631 0.05457011
v 0.01553850 0.03059109 0.05386291
v 0.01572178 0.02999878 0.05255739
v 0.01629487 0.02973237 0.05340429
v 0.01931980 0.02177883 0.05170952
v 0.01995398 0.01923628 0.05086261
v 0.02004319 0.01839049 0.05086261
v 0.02011996 0.01754470 0.05086261
v 0.02038325 0.01669633 0.05001475
v 0.02058113 0.01585054 0.04940293
v 0.01704529 0.02862793 0.05340429
v 0.01660736 0.02948148 0.05422711
v 0.01640084 0.02985394 0.05478401
v 0.01709341 0.02851929 0.05427336
v 0.01734481 0.02774851 0.05427336
v 0.01637164 0.02981514 0.05392843
v 0.01662196 0.02931077 0.05340429
v 0.01899811 0.02243581 0.05255739
v 0.01553850 0.03057299 0.05709734
v 0.01654141 0.02944785 0.05507883
v 0.01635650 0.02975565 0.05534861
v 0.01553850 0.03076697 0.05444871
v 0.01559743 0.03073594 0.05448533
v 0.01587100 0.03013845 0.05340429
v 0.01640084 0.02985394 0.05449303
v 0.01564339 0.03079025 0.05509810
v 0.01563366 0.03080060 0.05594597
v 0.01558446 0.03074887 0.05656838
v 0.01553850 0.03065317 0.05695282
v 0.01553850 0.03079284 0.05455181
v 0.01553850 0.03087302 0.05509810
v 0.01553850 0.03090147 0.05531296
v 0.01553850 0.03089889 0.05594597
v 0.01553850 0.03087561 0.05620515
v 0.01553850 0.03080060 0.05661174
f 1 2 8
f 1 8 14
f 1 14 13
f 1 13 25
f 1 25 48
f 1 48 47
f 1 47 74
f 1 74 73
f 1 73 72
f 1 72 71
f 1 71 70
f 1 70 77
f 1 77 108
f 1 108 149
f 1 149 148
f 1 148 147
f 1 147 180
f 1 180 179
f 1 179 178
f 1 178 177
f 1 177 176
f 1 176 175
f 1 175 142
f 1 142 174
f 1 174 204
f 1 204 236
f 1 236 276
f 1 276 295
f 1 295 305
f 1 305 311
f 1 311 310
f 1 310 309
f 1 309 308
f 1 308 307
f 1 307 306
f 1 306 298
f 1 298 278
f 1 278 239
f 1 239 207
f 1 207 184
f 1 184 159
f 1 159 117
f 1 117 82
f 1 82 51
f 1 51 28
f 1 28 27
f 1 27 16
f 1 16 9
f 1 9 3
f 1 3 4
f 1 4 2
f 2 4 5
f 2 5 6
f 2 6 7
f 2 7 8
f 3 9 15
f 3 15 26
f 3 26 50
f 3 50 81
f 3 81 116
f 3 116 158
f 3 158 157
f 3 157 124
f 3 124 86
f 3 86 85
f 3 85 54
f 3 54 30
f 3 30 17
f 3 17 10
f 3 10 4
f 4 10 5
f 5 10 11
f 5 11 6
f 6 11 7
f 7 12 13
f 7 13 14
f 7 14 8
f 7 11 12
f 9 16 15
f 10 17 18
f 10 18 11
f 11 18 19
f 11 19 20
f 11 20 21
f 11 21 22
f 11 22 23
f 11 23 24
f 11 24 12
f 12 24 13
f 13 24 25
f 15 16 27
f 15 27 28
f 15 28 29
f 15 29 53
f 15 53 52
f 15 52 84
f 15 84 83
f 15 83 123
f 15 123 122
f 15 122 121
f 15 121 120
f 15 120 119
f 15 119 118
f 15 118 161
f 15 161 187
f 15 187 213
f 15 213 248
f 15 248 263
f 15 263 262
f 15 262 264
f 15 264 257
f 15 257 258
f 15 258 238
f 15 238 205
f 15 205 181
f 15 181 150
f 15 150 109
f 15 109 78
f 15 78 49
f 15 49 26
f 17 30 18
f 18 31 32
f 18 32 19
f 18 30 31
f 19 32 33
f 19 33 34
f 19 34 20
f 20 34 35
f 20 35 21
f 21 35 36
f 21 36 37
f 21 37 22
f 22 38 39
f 22 39 40
f 22 40 41
f 22 41 42
f 22 42 43
f 22 43 23
f 22 37 44
f 22 44 45
f 22 45 46
f 22 46 38
f 23 43 47
f 23 47 48
f 23 48 24
f 24 48 25
f 26 49 50
f 28 51 52
f 28 52 53
f 28 53 29
f 30 54 55
f 30 55 56
f 30 56 57
f 30 57 58
f 30 58 59
f 30 59 60
f 30 60 61
f 30 61 31
f 31 61 60
f 31 60 32
f 32 60 33
f 33 60 62
f 33 62 63
f 33 63 34
f 34 63 64
f 34 64 35
f 35 64 36
f 36 64 65
f 36 65 66
f 36 66 67
f 36 67 37
f 37 67 68
f 37 68 69
f 37 69 44
f 38 46 70
f 38 70 39
f 39 70 71
f 39 71 72
f 39 72 40
f 40 72 73
f 40 73 41
f 41 73 42
f 42 73 43
f 43 73 74
f 43 74 47
f 44 69 75
f 44 75 76
f 44 76 45
f 45 70 46
f 45 76 77
f 45 77 70
f 49 78 79
f 49 79 80
f 49 80 50
f 50 80 81
f 51 82 83
f 51 83 84
f 51 84 52
f 54 85 55
f 55 85 86
f 55 86 56
f 56 86 87
f 56 87 88
f 56 88 89
f 56 89 90
f 56 90 57
f 57 90 91
f 57 91 92
f 57 92 59
f 57 59 58
f 59 92 93
f 59 93 94
f 59 94 62
f 59 62 60
f 62 94 63
f 63 94 95
f 63 95 96
f 63 96 64
f 64 96 97
f 64 97 65
f 65 97 66
f 66 97 98
f 66 98 99
f 66 99 67
f 67 99 100
f 67 100 68
f 68 100 101
f 68 101 102
f 68 102 103
f 68 103 104
f 68 104 69
f 69 76 75
f 69 104 105
f 69 105 106
f 69 106 107
f 69 107 76
f 76 107 108
f 76 108 77
f 78 109 110
f 78 110 111
f 78 111 79
f 79 112 80
f 79 111 113
f 79 113 114
f 79 114 112
f 80 112 115
f 80 115 81
f 81 115 116
f 82 117 118
f 82 118 119
f 82 119 120
f 82 120 121
f 82 121 122
f 82 122 123
f 82 123 83
f 86 124 115
f 86 115 88
f 86 88 87
f 88 125 126
f 88 126 89
f 88 115 125
f 89 126 90
f 90 126 127
f 90 127 128
f 90 128 91
f 91 129 94
f 91 94 93
f 91 93 92
f 91 128 129
f 94 129 95
f 95 129 130
f 95 130 131
f 95 131 96
f 96 131 132
f 96 132 97
f 97 132 133
f 97 133 98
f 98 134 99
f 98 133 135
f 98 135 134
f 99 136 100
f 99 134 136
f 100 136 137
f 100 137 138
f 100 138 139
f 100 139 101
f 101 140 102
f 101 139 141
f 101 141 140
f 102 140 103
f 103 140 142
f 103 142 143
f 103 143 104
f 104 143 144
f 104 144 145
f 104 145 146
f 104 146 105
f 105 146 147
f 105 147 148
f 105 148 106
f 106 148 107
f 107 148 149
f 107 149 108
f 109 150 110
f 110 150 151
f 110 151 152
f 110 152 153
f 110 153 111
f 111 153 113
f 112 114 154
f 112 154 125
f 112 125 115
f 113 153 155
f 113 155 156
f 113 156 114
f 114 156 154
f 115 124 157
f 115 157 158
f 115 158 116
f 117 159 160
f 117 160 118
f 118 160 162
f 118 162 161
f 125 154 127
f 125 127 126
f 127 156 128
f 127 154 156
f 128 155 130
f 128 130 129
f 128 156 155
f 130 163 131
f 130 155 163
f 131 163 164
f 131 164 132
f 132 164 133
f 133 164 165
f 133 165 166
f 133 166 135
f 134 135 167
f 134 167 168
f 134 168 136
f 135 169 167
f 135 166 169
f 136 168 170
f 136 170 137
f 137 170 138
f 138 170 171
f 138 171 172
f 138 172 139
f 139 172 173
f 139 173 141
f 140 141 174
f 140 174 142
f 141 173 174
f 142 175 143
f 143 175 176
f 143 176 144
f 144 176 177
f 144 177 178
f 144 178 145
f 145 178 179
f 145 179 146
f 146 179 180
f 146 180 147
f 150 181 151
f 151 181 182
f 151 182 183
f 151 183 152
f 152 155 153
f 152 183 163
f 152 163 155
f 159 184 185
f 159 185 160
f 160 185 186
f 160 186 162
f 161 162 188
f 161 188 189
f 161 189 187
f 162 186 190
f 162 190 191
f 162 191 188
f 163 183 164
f 164 192 165
f 164 183 192
f 165 193 166
f 165 192 193
f 166 194 169
f 166 193 194
f 167 195 168
f 167 169 195
f 168 196 170
f 168 195 196
f 169 197 198
f 169 198 199
f 169 199 195
f 169 194 197
f 170 200 171
f 170 196 200
f 171 201 202
f 171 202 172
f 171 200 201
f 172 202 203
f 172 203 173
f 173 203 174
f 174 203 204
f 181 205 182
f 182 205 206
f 182 206 192
f 182 192 183
f 184 207 208
f 184 208 209
f 184 209 185
f 185 209 186
f 186 209 190
f 187 189 210
f 187 210 211
f 187 211 212
f 187 212 213
f 188 191 214
f 188 214 215
f 188 215 189
f 189 216 210
f 189 215 214
f 189 214 217
f 189 217 216
f 190 218 214
f 190 214 191
f 190 209 219
f 190 219 218
f 192 206 193
f 193 220 194
f 193 206 221
f 193 221 220
f 194 220 197
f 195 199 222
f 195 222 196
f 196 222 223
f 196 223 200
f 197 224 198
f 197 220 225
f 197 225 224
f 198 226 227
f 198 227 228
f 198 228 199
f 198 224 226
f 199 228 222
f 200 223 229
f 200 229 201
f 201 229 230
f 201 230 231
f 201 231 202
f 202 231 232
f 202 232 233
f 202 233 203
f 203 233 234
f 203 234 204
f 204 235 236
f 204 234 237
f 204 237 235
f 205 238 206
f 206 238 221
f 207 239 240
f 207 240 241
f 207 241 208
f 208 241 242
f 208 242 209
f 209 242 219
f 210 216 211
f 211 216 243
f 211 243 244
f 211 244 245
f 211 245 212
f 212 245 246
f 212 246 247
f 212 247 213
f 213 247 248
f 214 218 249
f 214 249 250
f 214 250 251
f 214 251 216
f 214 216 217
f 216 251 252
f 216 252 253
f 216 253 254
f 216 254 243
f 218 219 255
f 218 255 256
f 218 256 249
f 219 242 255
f 220 257 225
f 220 221 258
f 220 258 257
f 221 238 258
f 222 259 285
f 222 285 260
f 222 260 223
f 222 228 259
f 223 261 229
f 223 260 261
f 224 262 263
f 224 263 248
f 224 248 226
f 224 225 264
f 224 264 262
f 225 257 264
f 226 248 247
f 226 247 265
f 226 265 227
f 227 265 266
f 227 266 259
f 227 259 228
f 229 261 230
f 230 267 268
f 230 268 269
f 230 269 231
f 230 261 267
f 231 270 271
f 231 271 272
f 231 272 232
f 231 269 270
f 232 272 273
f 232 273 237
f 232 237 233
f 233 237 234
f 235 274 236
f 235 237 273
f 235 273 272
f 235 272 274
f 236 275 276
f 236 274 277
f 236 277 275
f 239 278 240
f 240 278 279
f 240 279 241
f 241 279 280
f 241 280 242
f 242 280 255
f 243 281 270
f 243 270 244
f 243 254 281
f 244 270 268
f 244 268 282
f 244 282 245
f 245 283 246
f 245 282 283
f 246 283 284
f 246 284 285
f 246 285 286
f 246 286 247
f 247 286 266
f 247 266 265
f 249 256 287
f 249 287 252
f 249 252 250
f 250 252 251
f 252 287 253
f 253 287 254
f 254 287 288
f 254 288 289
f 254 289 290
f 254 290 277
f 254 277 291
f 254 291 281
f 255 280 292
f 255 292 293
f 255 293 256
f 256 293 287
f 259 286 285
f 259 266 286
f 260 285 284
f 260 284 261
f 261 284 283
f 261 283 267
f 267 283 268
f 268 283 282
f 268 270 269
f 270 281 294
f 270 294 271
f 271 294 277
f 271 277 272
f 272 277 274
f 275 295 276
f 275 277 295
f 277 290 296
f 277 296 297
f 277 297 295
f 277 294 291
f 278 298 299
f 278 299 300
f 278 300 279
f 279 300 280
f 280 300 299
f 280 299 292
f 281 291 294
f 287 293 292
f 287 292 288
f 288 292 301
f 288 301 289
f 289 301 302
f 289 302 303
f 289 303 304
f 289 304 297
f 289 297 296
f 289 296 290
f 292 299 302
f 292 302 301
f 295 297 305
f 297 304 305
f 298 306 299
f 299 306 302
f 302 306 307
f 302 307 308
f 302 308 303
f 303 308 309
f 303 309 310
f 303 310 311
f 303 311 304
f 304 311 305

