# https://github.com/mikedh/trimesh
v 0.01098706 -0.00271455 0.08574697
v 0.01098661 -0.00701403 0.08574697
v 0.00982790 -0.00271455 0.08420413
v 0.00644643 -0.00271455 0.08574697
v 0.00980212 -0.00701403 0.08425225
v 0.00823406 -0.00701403 0.08574697
v 0.00974123 -0.00271455 0.08417682
v 0.00644687 -0.00271455 0.08560522
v 0.00646332 -0.00279452 0.08574697
v 0.00917987 -0.00701403 0.08417016
v 0.00917987 -0.00271455 0.08408628
v 0.00823406 -0.00701403 0.08560522
v 0.00662110 -0.00271455 0.08473472
v 0.00646688 -0.00279452 0.08560522
v 0.00916921 -0.00701403 0.08417162
v 0.00727224 -0.00271455 0.08435564
v 0.00837717 -0.00701403 0.08475797
v 0.00674466 -0.00271455 0.08451982
v 0.00863852 -0.00701403 0.08425225
v 0.00863318 -0.00701403 0.08426217
f 1 2 3
f 1 3 7
f 1 7 11
f 1 11 16
f 1 16 18
f 1 18 13
f 1 13 8
f 1 8 4
f 1 4 9
f 1 9 6
f 1 6 2
f 2 5 3
f 2 6 12
f 2 12 17
f 2 17 20
f 2 20 19
f 2 19 15
f 2 15 10
f 2 10 5
f 3 5 7
f 4 8 9
f 5 10 11
f 5 11 7
f 6 9 12
f 8 13 14
f 8 14 9
f 9 14 12
f 10 15 11
f 11 15 16
f 12 14 17
f 13 18 19
f 13 19 20
f 13 20 17
f 13 17 14
f 15 19 16
f 16 19 18

