# https://github.com/mikedh/trimesh
v 0.00630212 -0.03300870 0.02010631
v 0.00630212 -0.03291955 0.01998077
v 0.00640819 -0.03299720 0.02010631
v 0.00630212 -0.00363297 0.02010631
v 0.00696787 -0.03288791 0.02010631
v 0.00630212 -0.03282464 0.01986723
v 0.00681843 -0.03282751 0.01999252
v 0.00875359 -0.00363297 0.02010631
v 0.00630212 -0.00363297 0.01763401
v 0.00748595 -0.03276137 0.02007580
v 0.00753459 -0.03277574 0.02010631
v 0.00833338 -0.03225231 0.01967242
v 0.00630212 -0.03207975 0.01902971
v 0.00642167 -0.03207112 0.01903947
v 0.00698663 -0.03201360 0.01910048
v 0.00833338 -0.03261469 0.02010631
v 0.01228926 -0.00363297 0.02006605
v 0.01228926 -0.02712723 0.02010631
v 0.01228926 -0.00363297 0.01763401
v 0.01228281 -0.02013561 0.01755174
v 0.01157896 -0.02044622 0.01755174
v 0.00650899 -0.02300301 0.01755174
v 0.00630212 -0.02326185 0.01755174
v 0.00833338 -0.03187555 0.01924878
v 0.00918082 -0.03214014 0.01980046
v 0.00630212 -0.03200497 0.01894944
v 0.00667778 -0.03171737 0.01871861
v 0.00630212 -0.03068775 0.01755649
v 0.00648848 -0.03065036 0.01755174
v 0.00663851 -0.03082580 0.01776580
v 0.00763363 -0.03112491 0.01829648
v 0.00920016 -0.03238461 0.02010631
v 0.01228926 -0.03126296 0.02010631
v 0.01228926 -0.02013561 0.01755174
v 0.00630212 -0.03068200 0.01755174
v 0.00918082 -0.03175763 0.01937657
v 0.00833338 -0.03105013 0.01837450
v 0.00918082 -0.03133486 0.01892193
v 0.00969069 -0.03205674 0.01989774
v 0.00706868 -0.03118243 0.01823571
v 0.00663851 -0.03062160 0.01755174
v 0.00723394 -0.03050081 0.01755174
v 0.00984131 -0.03217753 0.02010631
v 0.01172899 -0.03150167 0.02010631
v 0.01215095 -0.03118243 0.01992900
v 0.01228926 -0.03096097 0.01976420
v 0.01228926 -0.02880970 0.01755174
v 0.01087452 -0.03104725 0.01922678
v 0.01087452 -0.03143264 0.01965041
v 0.00918082 -0.03050656 0.01806165
v 0.00918082 -0.03092934 0.01849854
v 0.00784813 -0.03036564 0.01755174
v 0.00833338 -0.03025347 0.01755174
v 0.01087452 -0.03062448 0.01878063
v 0.01025565 -0.03196183 0.02001303
v 0.01070222 -0.03188705 0.02010631
v 0.01087452 -0.03182666 0.02010631
v 0.01172196 -0.03127446 0.01982722
v 0.01172196 -0.03088044 0.01940358
v 0.01218846 -0.03035413 0.01906297
v 0.01228926 -0.03048643 0.01925654
v 0.01228926 -0.02936190 0.01810141
v 0.01220194 -0.02951433 0.01820945
v 0.01172196 -0.02908005 0.01755174
v 0.01172196 -0.03045767 0.01895369
v 0.00859945 -0.03017582 0.01755174
v 0.00918082 -0.03000613 0.01755174
v 0.01009448 -0.02969552 0.01755174
v 0.01036465 -0.03030524 0.01826747
v 0.01087452 -0.03021608 0.01835700
v 0.01172196 -0.03004640 0.01853030
v 0.01228926 -0.02962362 0.01836725
v 0.01228926 -0.03018157 0.01893943
v 0.01172196 -0.02962362 0.01809791
v 0.01154966 -0.02915195 0.01755174
v 0.01087452 -0.02942230 0.01755174
v 0.01087452 -0.02979331 0.01792586
v 0.01111949 -0.02932451 0.01755174
f 1 2 3
f 1 3 5
f 1 5 11
f 1 11 16
f 1 16 32
f 1 32 43
f 1 43 56
f 1 56 57
f 1 57 44
f 1 44 33
f 1 33 18
f 1 18 8
f 1 8 4
f 1 4 9
f 1 9 23
f 1 23 35
f 1 35 28
f 1 28 26
f 1 26 13
f 1 13 6
f 1 6 2
f 2 5 3
f 2 6 7
f 2 7 5
f 4 8 17
f 4 17 19
f 4 19 9
f 5 7 10
f 5 10 11
f 6 12 7
f 6 13 14
f 6 14 15
f 6 15 12
f 7 12 16
f 7 16 10
f 8 18 17
f 9 19 34
f 9 34 20
f 9 20 21
f 9 21 22
f 9 22 23
f 10 16 11
f 12 15 24
f 12 24 25
f 12 25 16
f 13 26 14
f 14 27 15
f 14 26 28
f 14 28 29
f 14 29 30
f 14 30 27
f 15 27 31
f 15 31 24
f 16 25 32
f 17 18 33
f 17 33 46
f 17 46 61
f 17 61 73
f 17 73 72
f 17 72 62
f 17 62 47
f 17 47 34
f 17 34 19
f 20 34 47
f 20 47 64
f 20 64 75
f 20 75 78
f 20 78 76
f 20 76 68
f 20 68 67
f 20 67 66
f 20 66 53
f 20 53 52
f 20 52 42
f 20 42 41
f 20 41 29
f 20 29 35
f 20 35 23
f 20 23 22
f 20 22 21
f 24 36 25
f 24 31 37
f 24 37 38
f 24 38 36
f 25 36 39
f 25 39 32
f 27 30 40
f 27 40 31
f 28 35 29
f 29 41 30
f 30 41 42
f 30 42 31
f 30 31 40
f 31 42 37
f 32 39 43
f 33 44 45
f 33 45 46
f 36 38 48
f 36 48 49
f 36 49 39
f 37 50 51
f 37 51 38
f 37 42 52
f 37 52 53
f 37 53 50
f 38 51 54
f 38 54 48
f 39 55 43
f 39 49 55
f 43 55 56
f 44 57 58
f 44 58 45
f 45 59 60
f 45 60 61
f 45 61 46
f 45 58 59
f 47 62 63
f 47 63 64
f 48 59 58
f 48 58 49
f 48 54 65
f 48 65 59
f 49 58 57
f 49 57 56
f 49 56 55
f 50 53 66
f 50 66 67
f 50 67 68
f 50 68 69
f 50 69 51
f 51 69 54
f 54 69 70
f 54 70 65
f 59 65 60
f 60 65 71
f 60 71 63
f 60 63 72
f 60 72 73
f 60 73 61
f 62 72 63
f 63 71 74
f 63 74 64
f 64 74 75
f 65 70 71
f 68 76 77
f 68 77 69
f 69 77 70
f 70 77 74
f 70 74 71
f 74 77 75
f 75 77 78
f 76 78 77

