# https://github.com/mikedh/trimesh
v 0.00177527 0.03280052 0.03729940
v 0.00185305 0.03110157 0.03956648
v 0.00177527 0.03280052 0.03663589
v 0.00162237 0.03280052 0.03814651
v 0.00183272 0.03115957 0.03956648
v 0.00187338 0.03025351 0.03956648
v 0.00177527 0.03025351 0.03663589
v -0.00116001 0.03280052 0.03663589
v 0.00154017 0.03186617 0.03956648
v 0.00130064 0.03280052 0.03869499
v 0.00186454 0.02943444 0.03956648
v 0.00176643 0.03007385 0.03663589
v 0.00186366 0.02940615 0.03956648
v -0.00116001 0.03280052 0.03730371
v -0.00607246 0.03201541 0.03663589
v -0.00607246 0.03204583 0.03956648
v 0.00070581 0.03212434 0.03956648
v 0.00070581 0.03280052 0.03884072
v 0.00173285 0.02940615 0.03663589
v 0.00178499 0.02879716 0.03956648
v -0.00101240 0.03280052 0.03815081
v -0.00622714 0.03196378 0.03663589
v -0.00680253 0.03177068 0.03663589
v -0.00679457 0.03177846 0.03956648
v -0.00522485 0.03205997 0.03956648
v -0.00014181 0.03280052 0.03883670
v -0.00071543 0.03280052 0.03869327
v 0.00022057 0.03212646 0.03956648
v -0.00014181 0.03212717 0.03956648
v 0.00136870 0.02557466 0.03956648
v 0.00140936 0.02878372 0.03663589
v -0.00713220 0.03110157 0.03663589
v -0.00680253 0.03177068 0.03815081
v -0.00690329 0.03155990 0.03956648
v 0.00122552 0.02557466 0.03937773
v -0.00672828 0.02557466 0.03956648
v 0.00070581 0.02858426 0.03663589
v -0.00715607 0.03025351 0.03663589
v -0.00713220 0.03110157 0.03815081
v -0.00712779 0.03110157 0.03899821
v -0.00712425 0.03110157 0.03956648
v 0.00070581 0.02557466 0.03933384
v -0.00714016 0.02940615 0.03956648
v -0.00711188 0.02940615 0.03663589
v -0.00685291 0.02891599 0.03663589
v -0.00678220 0.02878372 0.03663589
v -0.00659482 0.02557466 0.03937773
v -0.00607246 0.02858426 0.03663589
v -0.00715607 0.03025351 0.03956648
v -0.00712160 0.02958652 0.03663589
v -0.00607246 0.02557466 0.03933384
v -0.00663194 0.02874128 0.03663589
v -0.00632171 0.02557466 0.03935478
f 1 2 3
f 1 3 8
f 1 8 14
f 1 14 21
f 1 21 27
f 1 27 26
f 1 26 18
f 1 18 10
f 1 10 4
f 1 4 2
f 2 4 5
f 2 5 9
f 2 9 17
f 2 17 28
f 2 28 29
f 2 29 25
f 2 25 16
f 2 16 24
f 2 24 34
f 2 34 41
f 2 41 49
f 2 49 43
f 2 43 36
f 2 36 30
f 2 30 20
f 2 20 13
f 2 13 11
f 2 11 6
f 2 6 3
f 3 6 7
f 3 7 12
f 3 12 19
f 3 19 31
f 3 31 37
f 3 37 48
f 3 48 52
f 3 52 46
f 3 46 45
f 3 45 44
f 3 44 50
f 3 50 38
f 3 38 32
f 3 32 23
f 3 23 22
f 3 22 15
f 3 15 8
f 4 9 5
f 4 10 9
f 6 11 7
f 7 11 13
f 7 13 12
f 8 15 16
f 8 16 14
f 9 10 17
f 10 18 17
f 12 13 19
f 13 20 19
f 14 16 21
f 15 22 16
f 16 22 23
f 16 23 24
f 16 25 26
f 16 26 27
f 16 27 21
f 17 18 28
f 18 26 29
f 18 29 28
f 19 20 30
f 19 30 31
f 23 32 39
f 23 39 33
f 23 33 24
f 24 33 34
f 25 29 26
f 30 35 31
f 30 36 47
f 30 47 53
f 30 53 51
f 30 51 42
f 30 42 35
f 31 35 37
f 32 38 49
f 32 49 39
f 33 39 34
f 34 39 40
f 34 40 41
f 35 42 37
f 36 43 44
f 36 44 45
f 36 45 46
f 36 46 47
f 37 42 51
f 37 51 48
f 38 43 49
f 38 50 43
f 39 49 40
f 40 49 41
f 43 50 44
f 46 52 47
f 47 52 48
f 47 48 53
f 48 51 53

