# https://github.com/mikedh/trimesh
v 0.00748974 0.03927869 0.07449248
v 0.00748974 0.03708880 0.07449248
v 0.00748974 0.03927869 0.07448480
v 0.00673465 0.03946024 0.07449248
v 0.00230451 0.03787595 0.07449248
v 0.00155430 0.03581527 0.06272678
v 0.00240142 0.03580663 0.06272678
v 0.00748974 0.03534253 0.05879874
v 0.00748974 0.03927778 0.07373360
v 0.00663773 0.03948253 0.07449248
v 0.00748974 0.03921681 0.06611562
v 0.00155430 0.03800835 0.07449248
v 0.00076783 0.03621703 0.06272678
v 0.00074901 0.03620657 0.06187880
v 0.00075458 0.03614105 0.05879874
v 0.00101604 0.03601001 0.05879874
v 0.00155430 0.03580208 0.06187880
v 0.00146854 0.03803246 0.07449248
v 0.00080478 0.03812210 0.07374128
v 0.00155430 0.03576704 0.05879874
v 0.00748974 0.03857118 0.05879874
v 0.00663773 0.03947434 0.07374128
v 0.00588683 0.03961676 0.07449248
v 0.00748974 0.03920999 0.06543662
v 0.00038854 0.03703375 0.06272678
v 0.00042340 0.03872815 0.07374128
v 0.00036763 0.03703375 0.06187880
v 0.00063118 0.03640950 0.05879874
v 0.00151386 0.03577478 0.05879874
v 0.00095817 0.03821219 0.07449248
v 0.00062281 0.03865899 0.07449248
v 0.00057888 0.03872815 0.07449248
v 0.00745209 0.03860530 0.05879874
v 0.00748974 0.03892789 0.06149783
v 0.00739701 0.03922637 0.06526918
v 0.00663773 0.03936423 0.06442120
v 0.00579061 0.03963314 0.07449248
v 0.00748974 0.03918997 0.06472076
v 0.00730846 0.03922410 0.06442120
v 0.00039761 0.03872815 0.07289330
v 0.00079642 0.03961357 0.07449248
v 0.00081245 0.03965498 0.07449248
v 0.00074901 0.03956762 0.07374128
v 0.00036972 0.03788049 0.06272678
v 0.00036763 0.03788049 0.06187880
v 0.00036763 0.03703375 0.05879874
v 0.00039342 0.03872815 0.07204686
v 0.00720736 0.03878321 0.05879874
v 0.00748974 0.03896520 0.06180353
v 0.00682459 0.03905165 0.05879874
v 0.00663773 0.03934740 0.06357322
v 0.00579061 0.03944386 0.06272678
v 0.00579061 0.03952030 0.06696206
v 0.00579061 0.03953440 0.06780851
v 0.00494279 0.03974051 0.07449248
v 0.00748974 0.03915130 0.06400796
v 0.00712509 0.03918087 0.06187880
v 0.00717878 0.03920089 0.06272678
v 0.00723455 0.03921545 0.06357322
v 0.00663773 0.03932374 0.06272678
v 0.00075668 0.03946570 0.06611562
v 0.00075528 0.03947844 0.06696206
v 0.00075389 0.03949072 0.06780851
v 0.00074970 0.03952348 0.07035090
v 0.00074901 0.03953486 0.07119888
v 0.00085150 0.03967454 0.07449248
v 0.00077201 0.03938243 0.06103082
v 0.00076923 0.03939654 0.06187880
v 0.00076086 0.03943794 0.06442120
v 0.00038506 0.03872815 0.06696206
v 0.00038715 0.03872815 0.06950446
v 0.00039482 0.03872815 0.06018438
v 0.00039063 0.03872815 0.06103082
v 0.00038715 0.03872815 0.06187880
v 0.00038436 0.03872815 0.06272678
v 0.00038366 0.03872815 0.06357322
v 0.00036763 0.03788049 0.05879874
v 0.00702818 0.03914174 0.06072666
v 0.00708605 0.03916404 0.06129198
v 0.00748974 0.03903846 0.06252554
v 0.00655546 0.03916040 0.05879874
v 0.00579061 0.03942702 0.06187880
v 0.00409567 0.03976691 0.07035090
v 0.00409567 0.03978328 0.07119888
v 0.00409567 0.03984607 0.07449248
v 0.00419188 0.03983424 0.07449248
v 0.00748974 0.03909943 0.06327520
v 0.00663773 0.03929371 0.06187880
v 0.00640068 0.03921727 0.05879874
v 0.00644669 0.03922956 0.05933640
v 0.00653803 0.03924457 0.06018438
v 0.00579061 0.03932192 0.05879874
v 0.00040528 0.03872815 0.05879874
v 0.00040109 0.03872815 0.05933640
v 0.00158985 0.03998985 0.07449248
v 0.00155430 0.03997120 0.07374128
v 0.00077690 0.03936878 0.06018438
v 0.00054542 0.03895747 0.05879874
v 0.00037948 0.03819080 0.05879874
v 0.00494279 0.03952849 0.06272678
v 0.00324854 0.03992661 0.07449248
v 0.00334546 0.03991751 0.07449248
v 0.00409567 0.03959719 0.06272678
v 0.00209116 0.03952121 0.05879874
v 0.00163169 0.03998894 0.07449248
v 0.00155430 0.03981968 0.06780851
v 0.00078735 0.03934603 0.05879874
v 0.00078247 0.03935468 0.05933640
v 0.00324854 0.03986973 0.07204686
v 0.00240142 0.03996619 0.07449248
v 0.00324854 0.03964223 0.06272678
v 0.00324854 0.03966544 0.06357322
v 0.00324854 0.03968591 0.06442120
v 0.00155430 0.03954168 0.05879874
v 0.00240142 0.03977873 0.06696206
v 0.00240142 0.03975735 0.06611562
v 0.00155430 0.03979739 0.06696206
v 0.00155430 0.03969683 0.06357322
v 0.00155430 0.03964497 0.06187880
v 0.00155430 0.03956079 0.05933640
v 0.00155430 0.03977282 0.06611562
v 0.00155430 0.03974780 0.06526918
v 0.00240142 0.03966544 0.06272678
v 0.00240142 0.03968864 0.06357322
v 0.00240142 0.03973505 0.06526918
f 1 2 8
f 1 8 21
f 1 21 34
f 1 34 49
f 1 49 80
f 1 80 87
f 1 87 56
f 1 56 38
f 1 38 24
f 1 24 11
f 1 11 9
f 1 9 3
f 1 3 4
f 1 4 10
f 1 10 23
f 1 23 37
f 1 37 55
f 1 55 86
f 1 86 85
f 1 85 102
f 1 102 101
f 1 101 110
f 1 110 105
f 1 105 95
f 1 95 66
f 1 66 42
f 1 42 41
f 1 41 32
f 1 32 31
f 1 31 30
f 1 30 18
f 1 18 12
f 1 12 5
f 1 5 2
f 2 5 6
f 2 6 7
f 2 7 8
f 3 9 4
f 4 9 11
f 4 11 10
f 5 12 6
f 6 13 14
f 6 14 15
f 6 15 16
f 6 16 17
f 6 17 8
f 6 8 7
f 6 12 18
f 6 18 19
f 6 19 13
f 8 17 20
f 8 20 29
f 8 29 16
f 8 16 15
f 8 15 28
f 8 28 46
f 8 46 77
f 8 77 99
f 8 99 93
f 8 93 98
f 8 98 107
f 8 107 114
f 8 114 104
f 8 104 92
f 8 92 89
f 8 89 81
f 8 81 50
f 8 50 48
f 8 48 33
f 8 33 21
f 10 22 23
f 10 11 24
f 10 24 22
f 13 25 14
f 13 19 26
f 13 26 25
f 14 25 27
f 14 27 15
f 15 27 28
f 16 29 17
f 17 29 20
f 18 30 19
f 19 30 31
f 19 31 32
f 19 32 26
f 21 33 34
f 22 24 35
f 22 35 36
f 22 36 23
f 23 36 37
f 24 38 39
f 24 39 35
f 25 26 40
f 25 40 27
f 26 32 41
f 26 41 42
f 26 42 43
f 26 43 40
f 27 44 45
f 27 45 77
f 27 77 46
f 27 46 28
f 27 40 47
f 27 47 44
f 33 48 34
f 34 48 50
f 34 50 49
f 35 39 51
f 35 51 36
f 36 51 82
f 36 82 52
f 36 52 53
f 36 53 54
f 36 54 37
f 37 54 55
f 38 56 57
f 38 57 58
f 38 58 59
f 38 59 39
f 39 59 60
f 39 60 51
f 40 43 47
f 42 61 62
f 42 62 63
f 42 63 64
f 42 64 65
f 42 65 43
f 42 66 67
f 42 67 68
f 42 68 69
f 42 69 61
f 43 70 71
f 43 71 47
f 43 65 72
f 43 72 73
f 43 73 74
f 43 74 75
f 43 75 76
f 43 76 70
f 44 47 71
f 44 71 45
f 45 76 77
f 45 71 70
f 45 70 76
f 49 50 78
f 49 78 79
f 49 79 80
f 50 81 78
f 51 60 82
f 52 82 83
f 52 83 84
f 52 84 85
f 52 85 53
f 53 85 54
f 54 85 86
f 54 86 55
f 56 87 79
f 56 79 57
f 57 88 58
f 57 79 89
f 57 89 90
f 57 90 91
f 57 91 88
f 58 60 59
f 58 88 60
f 60 88 92
f 60 92 82
f 61 69 93
f 61 93 62
f 62 93 63
f 63 93 64
f 64 93 65
f 65 93 94
f 65 94 72
f 66 95 96
f 66 96 97
f 66 97 67
f 67 97 98
f 67 98 93
f 67 93 68
f 68 93 69
f 72 94 99
f 72 99 73
f 73 99 77
f 73 77 74
f 74 77 75
f 75 77 76
f 78 81 89
f 78 89 79
f 79 87 80
f 82 100 83
f 82 92 100
f 83 101 102
f 83 102 84
f 83 100 103
f 83 103 101
f 84 102 85
f 88 91 90
f 88 90 89
f 88 89 92
f 92 104 103
f 92 103 100
f 93 99 94
f 95 105 106
f 95 106 96
f 96 106 107
f 96 107 108
f 96 108 97
f 97 108 98
f 98 108 107
f 101 109 110
f 101 103 109
f 103 104 111
f 103 111 112
f 103 112 113
f 103 113 109
f 104 114 111
f 105 110 115
f 105 115 116
f 105 116 106
f 106 116 125
f 106 125 117
f 106 117 107
f 107 118 119
f 107 119 120
f 107 120 114
f 107 117 121
f 107 121 122
f 107 122 118
f 109 113 110
f 110 113 112
f 110 112 115
f 111 123 124
f 111 124 112
f 111 114 123
f 112 124 125
f 112 125 116
f 112 116 115
f 114 120 123
f 117 125 124
f 117 124 123
f 117 123 121
f 118 123 119
f 118 122 123
f 119 123 120
f 121 123 122

