# https://github.com/mikedh/trimesh
v 0.00918064 0.01245948 0.06549826
v 0.00849537 0.01245948 0.06516130
v 0.00918064 0.01161209 0.06549826
v 0.00998018 0.01245948 0.06518033
v 0.00997806 0.01330687 0.06516866
v 0.00918064 0.01330687 0.06547862
v 0.00849537 0.01330687 0.06515332
v 0.00849537 0.01161209 0.06516130
v 0.00823393 0.01330687 0.06441986
v 0.00849820 0.01076469 0.06513061
v 0.00918064 0.01076469 0.06542706
v 0.00997275 0.01076469 0.06514043
v 0.00998018 0.01161209 0.06518033
v 0.01036084 0.01245948 0.06441986
v 0.01035872 0.01330687 0.06441986
v 0.01022924 0.01415341 0.06441986
v 0.00986732 0.01415341 0.06503854
v 0.00918064 0.01415341 0.06522759
v 0.00858063 0.01415341 0.06503241
v 0.00833511 0.01415341 0.06441986
v 0.00823393 0.01161209 0.06441986
v 0.00823676 0.01076469 0.06441986
v 0.00828452 0.01776874 0.06187822
v 0.00824737 0.01776874 0.06125647
v 0.00823393 0.01776874 0.06103121
v 0.00858629 0.01009088 0.06501461
v 0.00918064 0.00996604 0.06509992
v 0.00984504 0.01009088 0.06501461
v 0.01035341 0.01076469 0.06441986
v 0.01036084 0.01161209 0.06441986
v 0.01184813 0.01775420 0.05922795
v 0.01184565 0.01776874 0.05923040
v 0.01125979 0.01776874 0.06041376
v 0.01032228 0.01776874 0.06187822
v 0.01003395 0.01776874 0.06231155
v 0.00992923 0.01776874 0.06246806
v 0.00970706 0.01461858 0.06489431
v 0.00918064 0.01463911 0.06492009
v 0.00869632 0.01461858 0.06489431
v 0.00854561 0.01776874 0.06246806
v 0.00835386 0.01776874 0.06203535
v 0.00823393 0.01076469 0.06018359
v 0.00824737 0.00991730 0.06272523
v 0.00826400 0.00991730 0.06357285
v 0.00846389 0.00985231 0.06447756
v 0.00823393 0.01776874 0.05922795
v 0.00861353 0.00937431 0.06423389
v 0.00918064 0.00954277 0.06477646
v 0.00982381 0.00937431 0.06423389
v 0.01003289 0.00985231 0.06447756
v 0.01173067 0.00996091 0.05922795
v 0.01184742 0.01076469 0.05922795
v 0.01184813 0.01161209 0.05922795
v 0.01173810 0.01776874 0.05922795
v 0.00918064 0.01776874 0.06263501
v 0.00823393 0.01076469 0.05922795
v 0.00824737 0.00991730 0.05922795
v 0.00828063 0.00983350 0.05922795
v 0.00829973 0.00978561 0.05922795
v 0.00850882 0.00926401 0.06272523
v 0.00852509 0.00928966 0.06357285
v 0.00918064 0.00908615 0.06357285
v 0.00918064 0.00931531 0.06435235
v 0.01159624 0.00974115 0.05922795
v 0.00994728 0.00928966 0.06357285
v 0.00850882 0.00926401 0.05922795
v 0.00918064 0.00903313 0.05922795
v 0.00918064 0.00903399 0.06272523
v 0.01079953 0.00917422 0.05922795
v 0.01087488 0.00919646 0.05922795
f 1 2 8
f 1 8 3
f 1 3 13
f 1 13 4
f 1 4 5
f 1 5 6
f 1 6 7
f 1 7 2
f 2 7 9
f 2 9 21
f 2 21 8
f 3 8 10
f 3 10 11
f 3 11 12
f 3 12 13
f 4 13 30
f 4 30 14
f 4 14 15
f 4 15 5
f 5 15 16
f 5 16 17
f 5 17 6
f 6 17 18
f 6 18 19
f 6 19 7
f 7 19 20
f 7 20 9
f 8 21 22
f 8 22 10
f 9 20 23
f 9 23 24
f 9 24 25
f 9 25 46
f 9 46 56
f 9 56 42
f 9 42 21
f 10 22 26
f 10 26 11
f 11 26 27
f 11 27 28
f 11 28 12
f 12 28 29
f 12 29 13
f 13 29 30
f 14 30 53
f 14 53 31
f 14 31 15
f 15 31 32
f 15 32 16
f 16 32 33
f 16 33 17
f 17 33 34
f 17 34 35
f 17 35 36
f 17 36 37
f 17 37 18
f 18 37 38
f 18 38 39
f 18 39 19
f 19 39 40
f 19 40 41
f 19 41 23
f 19 23 20
f 21 42 22
f 22 42 43
f 22 43 44
f 22 44 45
f 22 45 26
f 23 41 40
f 23 40 55
f 23 55 36
f 23 36 35
f 23 35 34
f 23 34 33
f 23 33 32
f 23 32 54
f 23 54 46
f 23 46 25
f 23 25 24
f 26 45 47
f 26 47 48
f 26 48 27
f 27 48 28
f 28 48 49
f 28 49 50
f 28 50 29
f 29 50 51
f 29 51 52
f 29 52 30
f 30 52 53
f 31 54 32
f 31 53 52
f 31 52 51
f 31 51 64
f 31 64 70
f 31 70 69
f 31 69 67
f 31 67 66
f 31 66 59
f 31 59 58
f 31 58 57
f 31 57 56
f 31 56 46
f 31 46 54
f 36 55 37
f 37 55 38
f 38 55 39
f 39 55 40
f 42 56 57
f 42 57 43
f 43 57 58
f 43 58 59
f 43 59 60
f 43 60 44
f 44 60 61
f 44 61 47
f 44 47 45
f 47 61 62
f 47 62 63
f 47 63 48
f 48 63 49
f 49 64 51
f 49 51 50
f 49 63 62
f 49 62 65
f 49 65 64
f 59 66 60
f 60 66 67
f 60 67 68
f 60 68 61
f 61 68 62
f 62 68 69
f 62 69 65
f 64 65 70
f 65 69 70
f 67 69 68

