# https://github.com/mikedh/trimesh
v 0.00823393 -0.01309720 0.05879880
v 0.00823461 -0.02733597 0.05879880
v 0.00823393 -0.01309720 0.05922794
v 0.00823393 -0.01042314 0.05879880
v 0.01440690 -0.02733597 0.05879880
v 0.00823461 -0.02733597 0.05944151
v 0.00823393 -0.01042314 0.05922794
v 0.00840032 -0.00957560 0.05879880
v 0.01511135 -0.01503036 0.05879880
v 0.01429506 -0.02733597 0.05885946
v 0.01174049 -0.02733597 0.05944151
v 0.00823461 -0.01309720 0.05944151
v 0.00840032 -0.00957560 0.05922794
v 0.00849580 -0.00939847 0.05879880
v 0.01426369 -0.02733597 0.05887513
v 0.01511953 -0.01465897 0.05879880
v 0.01511135 -0.01465897 0.05880408
v 0.01168594 -0.01310291 0.05944151
v 0.01511203 -0.01296388 0.05882202
v 0.01511203 -0.01211633 0.05882982
v 0.01511203 -0.01126879 0.05883649
v 0.01511203 -0.01042314 0.05884178
v 0.01511203 -0.00957560 0.05884580
v 0.01511203 -0.00872805 0.05884895
v 0.01511203 -0.00788051 0.05885172
v 0.01511203 -0.00787860 0.05885172
v 0.00991015 -0.01309720 0.05944151
v 0.01019452 -0.00889185 0.05922794
v 0.00929095 -0.00898708 0.05922794
v 0.00866151 -0.00909374 0.05922794
v 0.00862809 -0.00915468 0.05922794
v 0.00866151 -0.00909374 0.05879880
v 0.01511135 -0.01381142 0.05881371
v 0.01511203 -0.01309720 0.05882070
v 0.01513522 -0.01378095 0.05879880
v 0.01153591 -0.00958322 0.05922794
v 0.01110969 -0.00925753 0.05922794
v 0.01071280 -0.00902707 0.05922794
v 0.01514613 -0.01309720 0.05879880
v 0.01516181 -0.01204967 0.05879880
v 0.01517340 -0.01118879 0.05879880
v 0.01518295 -0.01033172 0.05879880
v 0.01519045 -0.00947465 0.05879880
v 0.01520068 -0.00787860 0.05879880
v 0.01426369 -0.00787860 0.05887009
v 0.01172140 -0.00787860 0.05887009
v 0.01155296 -0.00787860 0.05879880
f 1 2 6
f 1 6 3
f 1 3 7
f 1 7 4
f 1 4 8
f 1 8 14
f 1 14 32
f 1 32 47
f 1 47 44
f 1 44 43
f 1 43 42
f 1 42 41
f 1 41 40
f 1 40 39
f 1 39 35
f 1 35 16
f 1 16 9
f 1 9 5
f 1 5 2
f 2 5 10
f 2 10 15
f 2 15 11
f 2 11 6
f 3 6 12
f 3 12 7
f 4 7 13
f 4 13 8
f 5 9 10
f 6 11 18
f 6 18 27
f 6 27 12
f 7 12 13
f 8 13 14
f 9 15 10
f 9 16 17
f 9 17 15
f 11 15 19
f 11 19 20
f 11 20 21
f 11 21 22
f 11 22 23
f 11 23 24
f 11 24 25
f 11 25 26
f 11 26 18
f 12 27 28
f 12 28 29
f 12 29 30
f 12 30 31
f 12 31 13
f 13 31 14
f 14 31 32
f 15 17 33
f 15 33 34
f 15 34 19
f 16 35 17
f 17 35 33
f 18 26 36
f 18 36 37
f 18 37 38
f 18 38 28
f 18 28 27
f 19 34 39
f 19 39 40
f 19 40 20
f 20 40 41
f 20 41 21
f 21 41 42
f 21 42 22
f 22 42 43
f 22 43 23
f 23 43 44
f 23 44 24
f 24 44 25
f 25 44 26
f 26 44 47
f 26 47 46
f 26 46 45
f 26 45 28
f 26 28 38
f 26 38 37
f 26 37 36
f 28 45 46
f 28 46 29
f 29 46 30
f 30 46 47
f 30 47 32
f 30 32 31
f 33 35 34
f 34 35 39

