# https://github.com/mikedh/trimesh
v -0.00008865 0.03227327 0.02372687
v -0.00008865 0.02809801 0.02372687
v -0.00008865 0.03194859 0.02289853
v -0.00607202 0.03160962 0.02226634
v -0.00607202 0.03177828 0.02289853
v -0.00607271 0.03193540 0.02372687
v -0.00607271 0.03193870 0.02374663
v -0.00607271 0.03201561 0.02459332
v -0.00607271 0.03201561 0.03663462
v -0.00146049 0.03218702 0.03651185
v -0.00146049 0.03218647 0.03663462
v -0.00146049 0.02858421 0.03663462
v -0.00008865 0.02666085 0.02221977
v -0.00008865 0.03168159 0.02221977
v -0.00597863 0.03158930 0.02221977
v -0.00607202 0.03158765 0.02221977
v -0.00660816 0.03158160 0.02233549
v -0.00678042 0.03173213 0.02374663
v -0.00671193 0.03165137 0.02289853
v -0.00680256 0.03177004 0.02459332
v -0.00680256 0.03177004 0.03663462
v -0.00607271 0.02858421 0.03663462
v -0.00533595 0.02671688 0.02221977
v -0.00648226 0.03154095 0.02221977
v -0.00668772 0.03139756 0.02221977
v -0.00678388 0.03123660 0.02221977
v -0.00677973 0.03172993 0.02372687
v -0.00710418 0.03110090 0.02374663
v -0.00684545 0.03112782 0.02221977
v -0.00702324 0.03110090 0.02289853
v -0.00713255 0.03110090 0.02459332
v -0.00713255 0.03110090 0.03663462
v -0.00678250 0.02878418 0.03663462
v -0.00607202 0.02673172 0.02221977
v -0.00705645 0.03042187 0.02221977
v -0.00706544 0.03025376 0.02221977
v -0.00714016 0.02872760 0.02221977
v -0.00713739 0.03025376 0.02374663
v -0.00715607 0.03025376 0.02459332
v -0.00715607 0.03025376 0.03663462
v -0.00711249 0.02940718 0.03663462
v -0.00673961 0.02712287 0.02221977
v -0.00665728 0.02707178 0.02221977
v -0.00713670 0.02856004 0.02221977
v -0.00701425 0.02788046 0.02221977
f 1 2 13
f 1 13 14
f 1 14 3
f 1 3 4
f 1 4 5
f 1 5 6
f 1 6 7
f 1 7 8
f 1 8 9
f 1 9 10
f 1 10 11
f 1 11 12
f 1 12 2
f 2 12 13
f 3 14 4
f 4 14 15
f 4 15 16
f 4 16 17
f 4 17 5
f 5 17 6
f 6 17 7
f 7 18 8
f 7 17 19
f 7 19 18
f 8 20 21
f 8 21 9
f 8 18 20
f 9 21 32
f 9 32 40
f 9 40 41
f 9 41 33
f 9 33 22
f 9 22 12
f 9 12 11
f 9 11 10
f 12 22 13
f 13 23 34
f 13 34 43
f 13 43 42
f 13 42 45
f 13 45 44
f 13 44 37
f 13 37 36
f 13 36 35
f 13 35 29
f 13 29 26
f 13 26 25
f 13 25 24
f 13 24 16
f 13 16 15
f 13 15 14
f 13 22 23
f 16 24 17
f 17 24 25
f 17 25 26
f 17 26 19
f 18 19 27
f 18 27 28
f 18 28 20
f 19 26 29
f 19 29 30
f 19 30 27
f 20 28 31
f 20 31 32
f 20 32 21
f 22 33 34
f 22 34 23
f 27 30 28
f 28 30 35
f 28 35 36
f 28 36 37
f 28 37 38
f 28 38 31
f 29 35 30
f 31 38 39
f 31 39 40
f 31 40 32
f 33 41 42
f 33 42 43
f 33 43 34
f 37 39 38
f 37 44 40
f 37 40 39
f 40 44 41
f 41 44 45
f 41 45 42

