# https://github.com/mikedh/trimesh
v 0.01506990 -0.02937397 0.05879874
v 0.01506723 -0.02997118 0.05879874
v 0.01493619 -0.02846486 0.05879874
v 0.01480581 -0.02997118 0.06023377
v 0.00823960 -0.02997118 0.05879874
v 0.01487334 -0.02828041 0.05879874
v 0.01172161 -0.02997118 0.06606351
v 0.00823960 -0.02733622 0.05879874
v 0.00823960 -0.02997118 0.06606351
v 0.01440800 -0.02733622 0.05879874
v 0.00998328 -0.02733622 0.06521728
v 0.00996790 -0.02831498 0.06606351
v 0.00823960 -0.02733622 0.06443505
v 0.00823960 -0.02964097 0.06606351
v 0.00921173 -0.02733622 0.06555151
v 0.00918031 -0.02733622 0.06556360
v 0.00918031 -0.02801315 0.06606351
v 0.00825632 -0.02906362 0.06606351
v 0.00849567 -0.02733622 0.06519026
v 0.00851439 -0.02833665 0.06606351
v 0.00859395 -0.02828996 0.06606351
f 1 2 5
f 1 5 8
f 1 8 10
f 1 10 6
f 1 6 3
f 1 3 4
f 1 4 2
f 2 4 7
f 2 7 9
f 2 9 5
f 3 6 4
f 4 6 7
f 5 9 14
f 5 14 13
f 5 13 8
f 6 10 7
f 7 11 12
f 7 12 17
f 7 17 21
f 7 21 20
f 7 20 18
f 7 18 14
f 7 14 9
f 7 10 11
f 8 13 19
f 8 19 16
f 8 16 15
f 8 15 11
f 8 11 10
f 11 15 12
f 12 15 16
f 12 16 17
f 13 14 18
f 13 18 19
f 16 20 21
f 16 21 17
f 16 19 20
f 18 20 19

