# https://github.com/mikedh/trimesh
v 0.01449712 0.03224003 0.07449248
v 0.01438790 0.03279652 0.07449248
v 0.01438513 0.03279652 0.07458968
v 0.01449297 0.03224003 0.07458968
v 0.00485802 0.03224003 0.07449248
v 0.01436025 0.03289337 0.07449248
v 0.01413766 0.03364394 0.07449248
v 0.01413351 0.03364394 0.07458968
v 0.01431048 0.03279652 0.07628597
v 0.01441832 0.03224003 0.07628597
v 0.00484696 0.03224042 0.07449248
v 0.00644380 0.03224003 0.09238343
v 0.01411001 0.03371466 0.07449248
v 0.01391092 0.03421735 0.07449248
v 0.01390816 0.03421158 0.07458968
v 0.01408927 0.03364394 0.07543667
v 0.01390677 0.03338414 0.08052093
v 0.01427038 0.03279652 0.07713296
v 0.01437684 0.03224003 0.07713296
v 0.00409624 0.03227885 0.07449248
v 0.00677146 0.03224003 0.09321422
v 0.00108091 0.03489836 0.09710205
v 0.00100625 0.03487107 0.09662070
v 0.00366489 0.03236532 0.07515434
v 0.00364691 0.03234764 0.07449248
v 0.01373534 0.03459282 0.07449248
v 0.01388327 0.03415855 0.07543667
v 0.01404365 0.03364394 0.07628597
v 0.01395655 0.03350367 0.07882694
v 0.01372981 0.03380766 0.08052093
v 0.01370492 0.03374156 0.08137023
v 0.01387912 0.03331766 0.08137023
v 0.01417914 0.03279652 0.07882694
v 0.01422614 0.03279652 0.07797995
v 0.01382659 0.03403441 0.07732273
v 0.01434919 0.03224003 0.07768837
v 0.01430495 0.03224003 0.07853767
v 0.00748486 0.03224003 0.09357292
v 0.00155374 0.03509974 0.09754869
v 0.00091639 0.03558513 0.09799764
v 0.00081961 0.03531688 0.09741909
v 0.00062467 0.03533840 0.09662070
v 0.00101455 0.03487261 0.09598430
v 0.00355566 0.03274310 0.07449248
v 0.00037305 0.03616583 0.09662070
v 0.01371184 0.03464125 0.07449248
v 0.01370907 0.03463510 0.07458968
v 0.01347542 0.03449098 0.07967394
v 0.01357635 0.03449098 0.07797995
v 0.01384318 0.03407399 0.07675807
v 0.01397314 0.03370889 0.07707742
v 0.01337311 0.03449098 0.08137023
v 0.01331643 0.03449098 0.08221722
v 0.01370492 0.03358360 0.08225656
v 0.01385562 0.03326116 0.08200200
v 0.01412798 0.03279652 0.07967394
v 0.01425656 0.03224003 0.07938466
v 0.00833236 0.03224003 0.09357986
v 0.00579124 0.03489567 0.09707891
v 0.00636914 0.03490566 0.09706039
v 0.00155374 0.03552364 0.09803004
v 0.01087485 0.03224003 0.09357986
v 0.00153300 0.03616583 0.09813186
v 0.00083067 0.03616583 0.09803466
v 0.00045462 0.03616583 0.09746769
v 0.00045047 0.03616583 0.09744686
v 0.00354460 0.03279652 0.07449248
v 0.00049748 0.03616583 0.09577139
v 0.00346718 0.03364394 0.07449248
v 0.00347409 0.03354748 0.07449248
v 0.01330952 0.03533840 0.07449248
v 0.01321135 0.03525423 0.07713296
v 0.01313670 0.03513779 0.07967394
v 0.01308554 0.03505977 0.08137023
v 0.01305651 0.03501519 0.08221722
v 0.01302195 0.03496138 0.08306421
v 0.01299983 0.03492679 0.08357565
v 0.01324730 0.03449098 0.08306421
v 0.01304130 0.03417238 0.08729917
v 0.01361506 0.03364394 0.08306421
v 0.01383488 0.03319660 0.08256666
v 0.01407268 0.03279652 0.08052093
v 0.01420264 0.03224003 0.08023165
v 0.01423859 0.03224003 0.07967394
v 0.00693460 0.03492679 0.09701179
v 0.00467553 0.03573271 0.09790507
v 0.01169885 0.03224003 0.09353126
v 0.00155374 0.03616583 0.09813186
v 0.00111686 0.03616583 0.09376268
v 0.00409624 0.03454594 0.07449248
v 0.00357087 0.03424386 0.07449248
v 0.00355843 0.03417738 0.07449248
v 0.01301365 0.03578843 0.07449248
v 0.01301089 0.03578459 0.07458968
v 0.01297909 0.03574270 0.07562643
v 0.01323624 0.03529151 0.07628597
v 0.01295835 0.03571503 0.07628597
v 0.01293070 0.03567814 0.07713296
v 0.01290305 0.03563932 0.07797995
v 0.01282009 0.03552249 0.08052093
v 0.01279244 0.03548329 0.08137023
v 0.01276203 0.03543871 0.08221722
v 0.01214541 0.03576115 0.08686642
v 0.01237077 0.03525654 0.08814616
v 0.01297494 0.03487914 0.08414031
v 0.01315052 0.03455439 0.08387881
v 0.01314914 0.03439913 0.08475820
v 0.01301365 0.03411166 0.08795177
v 0.01354455 0.03364394 0.08391121
v 0.01401461 0.03279652 0.08137023
v 0.01340076 0.03364394 0.08560750
v 0.01332887 0.03364394 0.08645218
v 0.01325560 0.03364394 0.08729917
v 0.01313255 0.03357477 0.08899315
v 0.01338417 0.03279652 0.08899315
v 0.01360953 0.03279652 0.08645218
v 0.01368419 0.03279652 0.08560750
v 0.01384041 0.03237032 0.08517706
v 0.01386253 0.03245563 0.08461240
v 0.01418328 0.03224003 0.08052093
v 0.00748486 0.03547137 0.09721082
v 0.00664703 0.03526115 0.09729413
v 0.00579124 0.03616583 0.09771531
v 0.00467553 0.03589950 0.09790507
v 0.01244681 0.03224003 0.09313322
v 0.00799640 0.03564470 0.09709742
v 0.00409071 0.03616583 0.09791896
v 0.00420408 0.03616583 0.08388575
v 0.00946466 0.03616583 0.07449248
v 0.01270949 0.03616391 0.07449248
v 0.01270811 0.03616583 0.07449711
v 0.01270258 0.03616583 0.07458968
v 0.01259612 0.03616583 0.07628597
v 0.01254082 0.03616583 0.07716305
v 0.01243298 0.03616583 0.07887092
v 0.01242469 0.03611318 0.07967394
v 0.01239704 0.03608090 0.08052093
v 0.01236800 0.03604785 0.08137023
v 0.01233759 0.03601172 0.08221722
v 0.01230441 0.03597022 0.08306421
v 0.01223390 0.03587798 0.08475820
v 0.01216892 0.03579266 0.08630407
v 0.01176798 0.03616583 0.08729917
v 0.01212467 0.03573425 0.08729917
v 0.01208320 0.03568044 0.08814616
v 0.01231547 0.03516546 0.08899315
v 0.01271087 0.03449098 0.08899315
v 0.01283115 0.03443256 0.08819939
v 0.01283254 0.03459551 0.08729917
v 0.01298738 0.03405555 0.08851643
v 0.01314638 0.03372157 0.08819939
v 0.01296388 0.03399867 0.08899315
v 0.01307034 0.03341297 0.08984014
v 0.01327357 0.03279652 0.08984014
v 0.01339938 0.03224003 0.08984014
v 0.01343671 0.03224003 0.08955087
v 0.01350445 0.03224003 0.08899315
v 0.01381967 0.03224003 0.08566998
v 0.01382520 0.03224003 0.08560750
v 0.01387083 0.03224003 0.08504747
v 0.00663874 0.03616583 0.09751397
v 0.00493544 0.03616583 0.09784721
v 0.01286019 0.03224003 0.09238806
v 0.01238045 0.03279652 0.09308463
v 0.00887017 0.03592487 0.09632911
v 0.00887017 0.03551134 0.09632911
v 0.00799640 0.03588106 0.09709742
v 0.01258368 0.03616583 0.07449248
v 0.01238183 0.03616583 0.07967394
v 0.01227122 0.03616583 0.08137023
v 0.01221039 0.03616583 0.08221722
v 0.01218274 0.03616583 0.08255741
v 0.01214127 0.03616583 0.08306421
v 0.01210394 0.03616583 0.08350160
v 0.01206799 0.03616583 0.08391121
v 0.01176383 0.03616583 0.08733388
v 0.01200301 0.03558897 0.08899315
v 0.01166705 0.03616583 0.08812533
v 0.01222698 0.03502633 0.08984014
v 0.01254912 0.03449098 0.08984014
v 0.01289199 0.03383687 0.08984014
v 0.01301642 0.03327500 0.09036315
v 0.01310628 0.03280652 0.09066168
v 0.01304545 0.03253058 0.09136056
v 0.01298600 0.03232689 0.09192754
v 0.01329292 0.03224003 0.09039786
v 0.00748486 0.03616583 0.09721313
v 0.01271917 0.03279652 0.09238343
v 0.01296803 0.03224003 0.09205250
v 0.01225878 0.03346216 0.09296198
v 0.00961674 0.03578075 0.09536873
v 0.00916326 0.03603670 0.09569965
v 0.00902225 0.03616583 0.09572048
v 0.00834895 0.03616583 0.09659524
v 0.01128132 0.03485839 0.09360532
v 0.00828535 0.03616583 0.09664847
v 0.01164770 0.03616583 0.08822484
v 0.01159101 0.03616583 0.08848634
v 0.01157857 0.03605630 0.08899315
v 0.01122326 0.03568351 0.09153644
v 0.01110436 0.03555246 0.09238343
v 0.01146797 0.03512856 0.09238343
v 0.01216339 0.03493948 0.09033538
v 0.01219380 0.03414855 0.09216127
v 0.01212467 0.03402711 0.09272593
v 0.01234865 0.03370428 0.09241814
v 0.01289890 0.03280652 0.09160124
v 0.01301642 0.03224003 0.09183728
v 0.00975914 0.03590373 0.09492440
v 0.00942871 0.03616583 0.09496374
v 0.01137395 0.03501134 0.09304066
v 0.01102970 0.03531150 0.09328596
v 0.01047115 0.03578229 0.09370945
v 0.01146658 0.03616583 0.08899315
v 0.01068130 0.03597982 0.09238343
v 0.01055134 0.03585876 0.09323042
v 0.01209011 0.03482918 0.09090004
v 0.01192974 0.03445485 0.09241814
v 0.01005915 0.03602172 0.09402650
v 0.00969693 0.03616583 0.09441528
v 0.01200439 0.03469966 0.09153644
v 0.01045733 0.03616583 0.09238343
v 0.01016837 0.03616583 0.09322348
v 0.01001629 0.03616583 0.09364234
v 0.00986560 0.03616583 0.09404270
f 1 2 3
f 1 3 4
f 1 4 10
f 1 10 19
f 1 19 36
f 1 36 37
f 1 37 57
f 1 57 84
f 1 84 83
f 1 83 120
f 1 120 160
f 1 160 159
f 1 159 158
f 1 158 157
f 1 157 156
f 1 156 155
f 1 155 186
f 1 186 208
f 1 208 189
f 1 189 163
f 1 163 125
f 1 125 87
f 1 87 62
f 1 62 58
f 1 58 38
f 1 38 21
f 1 21 12
f 1 12 5
f 1 5 11
f 1 11 20
f 1 20 25
f 1 25 44
f 1 44 67
f 1 67 70
f 1 70 69
f 1 69 92
f 1 92 91
f 1 91 90
f 1 90 129
f 1 129 168
f 1 168 130
f 1 130 93
f 1 93 71
f 1 71 46
f 1 46 26
f 1 26 14
f 1 14 13
f 1 13 7
f 1 7 6
f 1 6 2
f 2 6 3
f 3 6 7
f 3 7 8
f 3 8 9
f 3 9 10
f 3 10 4
f 5 12 11
f 7 13 8
f 8 13 14
f 8 14 15
f 8 15 16
f 8 16 17
f 8 17 18
f 8 18 9
f 9 18 10
f 10 18 19
f 11 12 20
f 12 21 22
f 12 22 23
f 12 23 24
f 12 24 25
f 12 25 20
f 14 26 15
f 15 26 27
f 15 27 28
f 15 28 16
f 16 28 29
f 16 29 17
f 17 30 31
f 17 31 32
f 17 32 33
f 17 33 34
f 17 34 18
f 17 29 35
f 17 35 30
f 18 36 19
f 18 34 37
f 18 37 36
f 21 38 22
f 22 39 40
f 22 40 41
f 22 41 42
f 22 42 23
f 22 38 39
f 23 42 43
f 23 43 25
f 23 25 24
f 25 43 42
f 25 42 45
f 25 45 44
f 26 46 47
f 26 47 48
f 26 48 49
f 26 49 27
f 27 50 51
f 27 51 28
f 27 49 48
f 27 48 50
f 28 51 29
f 29 51 50
f 29 50 35
f 30 52 31
f 30 35 52
f 31 52 53
f 31 53 54
f 31 54 32
f 32 54 55
f 32 55 56
f 32 56 33
f 33 57 37
f 33 37 34
f 33 56 57
f 35 50 52
f 38 58 39
f 39 59 60
f 39 60 61
f 39 61 40
f 39 58 62
f 39 62 59
f 40 61 63
f 40 63 64
f 40 64 65
f 40 65 41
f 41 65 42
f 42 65 66
f 42 66 45
f 44 45 67
f 45 66 65
f 45 65 64
f 45 64 63
f 45 63 88
f 45 88 127
f 45 127 162
f 45 162 123
f 45 123 161
f 45 161 187
f 45 187 196
f 45 196 194
f 45 194 193
f 45 193 210
f 45 210 220
f 45 220 225
f 45 225 224
f 45 224 223
f 45 223 222
f 45 222 214
f 45 214 198
f 45 198 197
f 45 197 178
f 45 178 176
f 45 176 143
f 45 143 175
f 45 175 174
f 45 174 173
f 45 173 172
f 45 172 171
f 45 171 170
f 45 170 169
f 45 169 135
f 45 135 134
f 45 134 133
f 45 133 132
f 45 132 131
f 45 131 168
f 45 168 129
f 45 129 128
f 45 128 89
f 45 89 68
f 45 68 69
f 45 69 70
f 45 70 67
f 46 71 72
f 46 72 73
f 46 73 74
f 46 74 48
f 46 48 47
f 48 74 52
f 48 52 50
f 52 74 75
f 52 75 53
f 53 75 76
f 53 76 77
f 53 77 78
f 53 78 79
f 53 79 80
f 53 80 54
f 54 80 55
f 55 80 81
f 55 81 82
f 55 82 56
f 56 82 83
f 56 83 84
f 56 84 57
f 59 62 60
f 60 85 86
f 60 86 61
f 60 62 87
f 60 87 85
f 61 86 88
f 61 88 63
f 68 89 90
f 68 90 91
f 68 91 92
f 68 92 69
f 71 93 94
f 71 94 95
f 71 95 96
f 71 96 72
f 72 96 95
f 72 95 97
f 72 97 73
f 73 97 74
f 74 97 98
f 74 98 99
f 74 99 100
f 74 100 101
f 74 101 75
f 75 101 102
f 75 102 103
f 75 103 76
f 76 103 77
f 77 103 104
f 77 104 105
f 77 105 106
f 77 106 78
f 78 106 107
f 78 107 79
f 79 107 106
f 79 106 105
f 79 105 108
f 79 108 80
f 80 108 109
f 80 109 81
f 81 110 82
f 81 109 111
f 81 111 112
f 81 112 113
f 81 113 114
f 81 114 115
f 81 115 116
f 81 116 117
f 81 117 118
f 81 118 119
f 81 119 110
f 82 120 83
f 82 110 119
f 82 119 120
f 85 121 122
f 85 122 86
f 85 87 121
f 86 123 124
f 86 124 88
f 86 122 121
f 86 121 123
f 87 125 126
f 87 126 121
f 88 124 127
f 89 128 90
f 90 128 129
f 93 130 131
f 93 131 132
f 93 132 94
f 94 132 133
f 94 133 134
f 94 134 135
f 94 135 136
f 94 136 95
f 95 136 137
f 95 137 97
f 97 137 138
f 97 138 98
f 98 138 99
f 99 138 100
f 100 138 101
f 101 138 139
f 101 139 102
f 102 139 140
f 102 140 141
f 102 141 142
f 102 142 103
f 103 142 143
f 103 143 144
f 103 144 104
f 104 144 145
f 104 145 146
f 104 146 147
f 104 147 148
f 104 148 149
f 104 149 105
f 105 149 108
f 108 149 148
f 108 148 150
f 108 150 112
f 108 112 111
f 108 111 109
f 112 150 113
f 113 150 151
f 113 151 114
f 114 151 150
f 114 150 152
f 114 152 153
f 114 153 154
f 114 154 115
f 115 154 155
f 115 155 156
f 115 156 157
f 115 157 118
f 115 118 116
f 116 118 117
f 118 157 158
f 118 158 159
f 118 159 160
f 118 160 120
f 118 120 119
f 121 126 161
f 121 161 123
f 123 162 124
f 124 162 127
f 125 163 164
f 125 164 165
f 125 165 166
f 125 166 126
f 126 166 165
f 126 165 167
f 126 167 161
f 130 168 131
f 135 169 137
f 135 137 136
f 137 169 170
f 137 170 138
f 138 170 139
f 139 170 171
f 139 171 140
f 140 171 172
f 140 172 173
f 140 173 174
f 140 174 141
f 141 175 142
f 141 174 175
f 142 175 143
f 143 176 145
f 143 145 144
f 145 177 146
f 145 176 178
f 145 178 177
f 146 177 179
f 146 179 180
f 146 180 147
f 147 152 148
f 147 180 181
f 147 181 152
f 148 152 150
f 152 181 153
f 153 181 182
f 153 182 154
f 154 182 183
f 154 183 184
f 154 184 185
f 154 185 155
f 155 185 186
f 161 167 187
f 163 188 164
f 163 189 185
f 163 185 188
f 164 188 190
f 164 190 165
f 165 191 192
f 165 192 193
f 165 193 194
f 165 194 167
f 165 190 195
f 165 195 191
f 167 196 187
f 167 194 196
f 177 178 197
f 177 197 198
f 177 198 199
f 177 199 200
f 177 200 201
f 177 201 202
f 177 202 179
f 179 203 180
f 179 202 203
f 180 203 204
f 180 204 181
f 181 204 205
f 181 205 206
f 181 206 182
f 182 184 183
f 182 206 188
f 182 188 207
f 182 207 184
f 184 207 185
f 185 189 208
f 185 208 186
f 185 207 188
f 188 206 205
f 188 205 190
f 190 205 195
f 191 209 193
f 191 193 192
f 191 195 209
f 193 209 210
f 195 205 211
f 195 211 212
f 195 212 213
f 195 213 209
f 198 214 199
f 199 214 215
f 199 215 200
f 200 215 201
f 201 211 202
f 201 215 216
f 201 216 213
f 201 213 212
f 201 212 211
f 202 211 217
f 202 217 203
f 203 217 204
f 204 217 205
f 205 217 218
f 205 218 211
f 209 213 219
f 209 219 210
f 210 219 220
f 211 218 221
f 211 221 217
f 213 216 219
f 214 222 215
f 215 222 216
f 216 222 223
f 216 223 219
f 217 221 218
f 219 223 224
f 219 224 225
f 219 225 220

