# https://github.com/mikedh/trimesh
v 0.01439697 -0.03136356 0.07292849
v 0.01437020 -0.03136356 0.07374264
v 0.01439461 -0.03160628 0.07292849
v 0.00807257 -0.03136356 0.07292849
v 0.01436784 -0.03160628 0.07374264
v 0.01434107 -0.03136356 0.07459038
v 0.01438831 -0.03164041 0.07292849
v 0.00635288 -0.03190106 0.07292849
v 0.00647021 -0.03136356 0.08729861
v 0.01420564 -0.03245374 0.07374264
v 0.01423320 -0.03245374 0.07292849
v 0.01433792 -0.03160628 0.07459038
v 0.01430800 -0.03136356 0.07543812
v 0.00635288 -0.03261475 0.08208766
v 0.00646469 -0.03136356 0.09068958
v 0.00646391 -0.03136356 0.08814635
v 0.00646706 -0.03136356 0.08754167
v 0.00635288 -0.03434827 0.07292849
v 0.01401036 -0.03330360 0.07292849
v 0.01417493 -0.03245374 0.07459038
v 0.01396469 -0.03325430 0.07459038
v 0.01430327 -0.03160628 0.07543812
v 0.01427099 -0.03136356 0.07628586
v 0.00635288 -0.03298848 0.08572564
v 0.00635288 -0.03374388 0.09068958
v 0.00635288 -0.03398833 0.09154522
v 0.00635288 -0.03403315 0.09163217
v 0.00635288 -0.03435482 0.09223686
v 0.00635288 -0.03488508 0.09299962
v 0.00649068 -0.03136356 0.09093066
v 0.01030485 -0.03488508 0.07292849
v 0.01028280 -0.03488508 0.07294627
v 0.00635288 -0.03463478 0.07545393
v 0.01400327 -0.03332601 0.07292849
v 0.01395682 -0.03337808 0.07376042
v 0.01413871 -0.03245374 0.07543812
v 0.01392690 -0.03314156 0.07628586
v 0.01394737 -0.03319914 0.07543812
v 0.01383635 -0.03371182 0.07405288
v 0.01423320 -0.03136356 0.07713163
v 0.01411745 -0.03136356 0.07967486
v 0.01422375 -0.03160628 0.07713163
v 0.00689934 -0.03488508 0.09307076
v 0.00708910 -0.03136356 0.09207679
v 0.00691194 -0.03136356 0.09204320
v 0.00669146 -0.03136356 0.09169145
v 0.00660328 -0.03136356 0.09153534
v 0.00635288 -0.03488508 0.08109962
v 0.01334973 -0.03488508 0.07292849
v 0.00748595 -0.03488508 0.07803470
v 0.00725682 -0.03488508 0.07853663
v 0.01385761 -0.03376491 0.07292849
v 0.01384737 -0.03373974 0.07348970
v 0.01409855 -0.03245374 0.07628586
v 0.01384737 -0.03289918 0.07938239
v 0.01386154 -0.03294642 0.07882711
v 0.01388359 -0.03301572 0.07797937
v 0.01390485 -0.03308054 0.07713163
v 0.01374816 -0.03343910 0.07797937
v 0.01376705 -0.03350392 0.07713163
v 0.01378595 -0.03356529 0.07628586
v 0.01380564 -0.03362287 0.07543812
v 0.01382453 -0.03367803 0.07459038
v 0.01363320 -0.03414796 0.07459038
v 0.01369855 -0.03407245 0.07376042
v 0.01348201 -0.03414796 0.07797937
v 0.01407729 -0.03136356 0.08052260
v 0.01418280 -0.03160628 0.07797937
v 0.00748595 -0.03488508 0.09311424
v 0.00748595 -0.03136356 0.09212817
v 0.01366469 -0.03422243 0.07292849
v 0.01332375 -0.03488508 0.07362605
v 0.01368201 -0.03418554 0.07292849
v 0.01405760 -0.03160628 0.08052260
v 0.01405682 -0.03245374 0.07713163
v 0.01383320 -0.03284023 0.07994756
v 0.01372611 -0.03336980 0.07882711
v 0.01355761 -0.03330050 0.08221611
v 0.01343713 -0.03414796 0.07882711
v 0.01315052 -0.03486095 0.07797937
v 0.01312847 -0.03482096 0.07882711
v 0.01403635 -0.03136356 0.08136836
v 0.00767650 -0.03488508 0.09311621
v 0.00772847 -0.03136356 0.09212817
v 0.01316390 -0.03488508 0.07737864
v 0.01401509 -0.03160628 0.08136836
v 0.01401430 -0.03245374 0.07797937
v 0.01397099 -0.03245374 0.07882711
v 0.01390642 -0.03234548 0.08052260
v 0.01381823 -0.03276920 0.08052260
v 0.01377335 -0.03255717 0.08221611
v 0.01350327 -0.03330050 0.08306187
v 0.01323477 -0.03414796 0.08221611
v 0.01333635 -0.03414796 0.08052260
v 0.01379619 -0.03266474 0.08136836
v 0.01307808 -0.03472787 0.08052260
v 0.01300721 -0.03459789 0.08283265
v 0.01302690 -0.03463443 0.08221611
v 0.01313713 -0.03488508 0.07797937
v 0.01309225 -0.03488508 0.07882711
v 0.01309855 -0.03488508 0.07871052
v 0.01399146 -0.03136356 0.08221611
v 0.00833320 -0.03488508 0.09311029
v 0.01172217 -0.03136356 0.09212619
v 0.01388438 -0.03224101 0.08136836
v 0.01390091 -0.03136356 0.08390962
v 0.01396863 -0.03160628 0.08221611
v 0.01386233 -0.03213344 0.08221611
v 0.01384737 -0.03206207 0.08275163
v 0.01375997 -0.03238823 0.08304409
v 0.01368989 -0.03245374 0.08390962
v 0.01314107 -0.03408521 0.08390962
v 0.01314501 -0.03422312 0.08309349
v 0.01363162 -0.03245374 0.08475736
v 0.01344107 -0.03330050 0.08390962
v 0.01297808 -0.03367941 0.08836174
v 0.01299855 -0.03373733 0.08779658
v 0.01305288 -0.03488508 0.07947527
v 0.01298674 -0.03455548 0.08339583
v 0.01256548 -0.03488508 0.08630661
v 0.01270406 -0.03488508 0.08456568
v 0.01276548 -0.03488508 0.08378117
v 0.01281587 -0.03488508 0.08312708
v 0.01286469 -0.03488508 0.08244929
v 0.01290879 -0.03488508 0.08176556
v 0.00854422 -0.03488508 0.09310041
v 0.01235131 -0.03136356 0.09204122
v 0.01387335 -0.03136356 0.08440759
v 0.01389068 -0.03145493 0.08390962
v 0.01390800 -0.03165903 0.08304409
v 0.01381351 -0.03187865 0.08390962
v 0.01383083 -0.03197692 0.08331481
v 0.01378831 -0.03172316 0.08475736
v 0.01356942 -0.03245374 0.08560510
v 0.01337729 -0.03330050 0.08475736
v 0.01282847 -0.03407107 0.08810683
v 0.01331272 -0.03330050 0.08560510
v 0.01324816 -0.03330050 0.08645087
v 0.01310249 -0.03335842 0.08810683
v 0.01295288 -0.03360528 0.08899409
v 0.01271587 -0.03414796 0.08899409
v 0.01283241 -0.03420416 0.08729861
v 0.01248516 -0.03488508 0.08729861
v 0.01249619 -0.03488508 0.08716819
v 0.00918044 -0.03488508 0.09300951
v 0.01247257 -0.03136356 0.09197799
v 0.00964658 -0.03488508 0.09293046
v 0.01000564 -0.03488508 0.09281585
v 0.01092768 -0.03488508 0.09243051
v 0.01384973 -0.03136356 0.08475736
v 0.01380642 -0.03136356 0.08538576
v 0.01376548 -0.03153457 0.08555175
v 0.01368438 -0.03160628 0.08645087
v 0.01350249 -0.03245374 0.08645087
v 0.01309068 -0.03318155 0.08899409
v 0.01303871 -0.03302124 0.08984183
v 0.01289619 -0.03344427 0.08984183
v 0.01260091 -0.03414796 0.08984183
v 0.01227414 -0.03477993 0.08984183
v 0.01233398 -0.03488508 0.08899212
v 0.01241745 -0.03488508 0.08808312
v 0.01243162 -0.03488508 0.08792108
v 0.01277493 -0.03136356 0.09174086
v 0.01142611 -0.03488508 0.09206296
v 0.01374501 -0.03136356 0.08616829
v 0.01343477 -0.03245374 0.08729861
v 0.01347650 -0.03160628 0.08899409
v 0.01329776 -0.03245374 0.08899409
v 0.01319698 -0.03245374 0.08984183
v 0.01300091 -0.03290022 0.09030622
v 0.01282375 -0.03322948 0.09062832
v 0.01244264 -0.03414796 0.09068958
v 0.01219619 -0.03465340 0.09068958
v 0.01220564 -0.03488508 0.08984183
v 0.01223477 -0.03488508 0.08967387
v 0.01148123 -0.03488508 0.09201751
v 0.01242611 -0.03330050 0.09146816
v 0.01301666 -0.03212758 0.09116582
v 0.01306390 -0.03160628 0.09127450
v 0.01308123 -0.03136356 0.09131797
v 0.01351194 -0.03136356 0.08899409
v 0.01341509 -0.03136356 0.08984183
v 0.01337886 -0.03160628 0.08984183
v 0.01306233 -0.03242753 0.09062832
v 0.01294737 -0.03269267 0.09087138
v 0.01214973 -0.03457755 0.09112036
v 0.01204186 -0.03488508 0.09068958
v 0.01211272 -0.03488508 0.09033190
v 0.01182453 -0.03488508 0.09142863
v 0.01225131 -0.03414796 0.09127252
v 0.01322453 -0.03160628 0.09068958
v 0.01326075 -0.03136356 0.09068958
v 0.01314579 -0.03136356 0.09110653
v 0.01200406 -0.03488508 0.09085557
f 1 2 5
f 1 5 3
f 1 3 7
f 1 7 11
f 1 11 19
f 1 19 34
f 1 34 52
f 1 52 73
f 1 73 71
f 1 71 49
f 1 49 31
f 1 31 18
f 1 18 8
f 1 8 4
f 1 4 9
f 1 9 17
f 1 17 16
f 1 16 15
f 1 15 30
f 1 30 47
f 1 47 46
f 1 46 45
f 1 45 44
f 1 44 70
f 1 70 84
f 1 84 104
f 1 104 127
f 1 127 146
f 1 146 163
f 1 163 180
f 1 180 193
f 1 193 192
f 1 192 182
f 1 182 181
f 1 181 165
f 1 165 151
f 1 151 150
f 1 150 128
f 1 128 106
f 1 106 102
f 1 102 82
f 1 82 67
f 1 67 41
f 1 41 40
f 1 40 23
f 1 23 13
f 1 13 6
f 1 6 2
f 2 6 5
f 3 5 7
f 4 8 9
f 5 10 11
f 5 11 7
f 5 6 12
f 5 12 10
f 6 13 12
f 8 14 15
f 8 15 16
f 8 16 17
f 8 17 9
f 8 18 33
f 8 33 48
f 8 48 29
f 8 29 28
f 8 28 27
f 8 27 26
f 8 26 25
f 8 25 24
f 8 24 14
f 10 19 11
f 10 12 20
f 10 20 21
f 10 21 19
f 12 13 22
f 12 22 20
f 13 23 22
f 14 24 15
f 15 25 26
f 15 26 27
f 15 27 28
f 15 28 29
f 15 29 30
f 15 24 25
f 18 31 32
f 18 32 33
f 19 21 35
f 19 35 34
f 20 22 36
f 20 36 37
f 20 37 38
f 20 38 21
f 21 38 39
f 21 39 35
f 22 23 40
f 22 40 41
f 22 41 42
f 22 42 36
f 29 43 44
f 29 44 45
f 29 45 46
f 29 46 47
f 29 47 30
f 29 48 51
f 29 51 50
f 29 50 32
f 29 32 31
f 29 31 49
f 29 49 72
f 29 72 85
f 29 85 99
f 29 99 101
f 29 101 100
f 29 100 118
f 29 118 125
f 29 125 124
f 29 124 123
f 29 123 122
f 29 122 121
f 29 121 120
f 29 120 144
f 29 144 143
f 29 143 162
f 29 162 161
f 29 161 160
f 29 160 175
f 29 175 174
f 29 174 188
f 29 188 187
f 29 187 194
f 29 194 189
f 29 189 176
f 29 176 164
f 29 164 149
f 29 149 148
f 29 148 147
f 29 147 145
f 29 145 126
f 29 126 103
f 29 103 83
f 29 83 69
f 29 69 43
f 32 50 33
f 33 50 51
f 33 51 48
f 34 35 53
f 34 53 52
f 35 39 53
f 36 42 54
f 36 54 55
f 36 55 56
f 36 56 57
f 36 57 58
f 36 58 37
f 37 58 59
f 37 59 60
f 37 60 38
f 38 60 61
f 38 61 62
f 38 62 63
f 38 63 39
f 39 64 65
f 39 65 53
f 39 63 66
f 39 66 64
f 41 67 42
f 42 67 68
f 42 68 54
f 43 69 70
f 43 70 44
f 49 71 72
f 52 53 65
f 52 65 73
f 54 68 74
f 54 74 75
f 54 75 76
f 54 76 55
f 55 77 56
f 55 76 78
f 55 78 77
f 56 77 59
f 56 59 57
f 57 59 58
f 59 66 60
f 59 77 79
f 59 79 66
f 60 66 61
f 61 66 62
f 62 66 63
f 64 72 71
f 64 71 73
f 64 73 65
f 64 66 80
f 64 80 72
f 66 79 81
f 66 81 80
f 67 82 68
f 68 82 74
f 69 83 70
f 70 83 84
f 72 80 85
f 74 82 86
f 74 86 87
f 74 87 75
f 75 87 76
f 76 87 88
f 76 88 89
f 76 89 90
f 76 90 78
f 77 78 79
f 78 91 92
f 78 92 93
f 78 93 94
f 78 94 79
f 78 90 95
f 78 95 91
f 79 96 81
f 79 94 97
f 79 97 98
f 79 98 96
f 80 81 99
f 80 99 85
f 81 100 101
f 81 101 99
f 81 96 100
f 82 102 86
f 83 103 104
f 83 104 84
f 86 105 89
f 86 89 88
f 86 88 87
f 86 102 106
f 86 106 107
f 86 107 108
f 86 108 105
f 89 105 95
f 89 95 90
f 91 108 109
f 91 109 110
f 91 110 111
f 91 111 92
f 91 95 108
f 92 112 113
f 92 113 93
f 92 111 114
f 92 114 134
f 92 134 115
f 92 115 116
f 92 116 117
f 92 117 112
f 93 113 97
f 93 97 94
f 95 105 108
f 96 118 100
f 96 98 118
f 97 113 119
f 97 119 120
f 97 120 121
f 97 121 122
f 97 122 123
f 97 123 124
f 97 124 98
f 98 124 125
f 98 125 118
f 103 126 104
f 104 126 127
f 106 128 107
f 107 128 129
f 107 129 130
f 107 130 131
f 107 131 132
f 107 132 109
f 107 109 108
f 109 132 110
f 110 132 131
f 110 131 111
f 111 131 114
f 112 117 113
f 113 117 119
f 114 131 133
f 114 133 134
f 115 134 135
f 115 135 116
f 116 136 117
f 116 135 137
f 116 137 138
f 116 138 139
f 116 139 140
f 116 140 141
f 116 141 136
f 117 136 119
f 119 136 142
f 119 142 143
f 119 143 144
f 119 144 120
f 126 145 127
f 127 145 147
f 127 147 148
f 127 148 149
f 127 149 146
f 128 150 133
f 128 133 129
f 129 133 131
f 129 131 130
f 133 150 151
f 133 151 152
f 133 152 153
f 133 153 134
f 134 153 154
f 134 154 155
f 134 155 135
f 135 155 137
f 136 141 142
f 137 155 138
f 138 155 139
f 139 155 140
f 140 155 156
f 140 156 157
f 140 157 158
f 140 158 141
f 141 158 159
f 141 159 160
f 141 160 161
f 141 161 162
f 141 162 143
f 141 143 142
f 146 149 164
f 146 164 163
f 151 165 153
f 151 153 152
f 153 166 154
f 153 165 167
f 153 167 168
f 153 168 166
f 154 166 155
f 155 168 156
f 155 166 168
f 156 168 169
f 156 169 170
f 156 170 157
f 157 170 171
f 157 171 172
f 157 172 158
f 158 172 173
f 158 173 159
f 159 174 175
f 159 175 160
f 159 173 174
f 163 164 176
f 163 176 177
f 163 177 178
f 163 178 179
f 163 179 180
f 165 181 167
f 167 181 182
f 167 182 183
f 167 183 168
f 168 183 169
f 169 183 184
f 169 184 170
f 170 184 185
f 170 185 171
f 171 185 186
f 171 186 172
f 172 186 173
f 173 187 188
f 173 188 174
f 173 186 187
f 176 189 186
f 176 186 190
f 176 190 177
f 177 190 178
f 178 190 185
f 178 185 184
f 178 184 191
f 178 191 192
f 178 192 179
f 179 192 193
f 179 193 180
f 182 192 191
f 182 191 183
f 183 191 184
f 185 190 186
f 186 189 194
f 186 194 187

