# https://github.com/mikedh/trimesh
v 0.00038220 -0.03669006 0.03663589
v 0.00050257 -0.03753752 0.04069263
v 0.00045442 -0.03753752 0.04153991
v 0.00042148 -0.03753752 0.04238781
v 0.00040691 -0.03753752 0.04298643
v -0.00028490 -0.03355341 0.04069263
v -0.00028490 -0.03355294 0.04069076
v 0.00000398 -0.03355294 0.03987208
v 0.00075344 -0.03590554 0.03663589
v 0.00075851 -0.03742102 0.03663589
v 0.00057226 -0.03753752 0.03984535
v 0.00083643 -0.03809795 0.04153991
v 0.00080286 -0.03813225 0.04238781
v 0.00078829 -0.03815621 0.04298643
v 0.00063561 -0.03669006 0.04298643
v -0.00009104 -0.03355294 0.04149080
v -0.00009548 -0.03355294 0.04148023
v -0.00027730 -0.03355294 0.04072868
v 0.00044682 -0.03355294 0.03938473
v 0.00074521 -0.03355294 0.03915348
v 0.00465658 -0.03355294 0.03663589
v 0.00092829 -0.03749383 0.03663589
v 0.00112659 -0.03796266 0.03856480
v 0.00106007 -0.03798521 0.03899869
v 0.00095364 -0.03802702 0.03984535
v 0.00088395 -0.03806319 0.04069263
v 0.00133375 -0.03830136 0.04298643
v 0.00101762 -0.03619445 0.04298643
v 0.00078765 -0.03355294 0.04228835
v 0.00618654 -0.03355294 0.03663589
v 0.00155422 -0.03772308 0.03663589
v 0.00122859 -0.03796266 0.03856480
v 0.00155422 -0.03808527 0.03984535
v 0.00155422 -0.03815949 0.04069263
v 0.00155422 -0.03823137 0.04153991
v 0.00155422 -0.03830230 0.04238781
v 0.00155422 -0.03835163 0.04298643
v 0.00120388 -0.03613526 0.04298643
v 0.00155422 -0.03355294 0.04249162
v 0.00618654 -0.03355294 0.04180845
v 0.00618654 -0.03757275 0.03663589
v 0.00155422 -0.03780482 0.03730352
v 0.00240124 -0.03771227 0.03663589
v 0.00240124 -0.03779448 0.03730352
v 0.00152824 -0.03799648 0.03892721
v 0.00324826 -0.03788750 0.03815142
v 0.00179305 -0.03795890 0.03859712
v 0.00324826 -0.03794998 0.03869534
v 0.00324826 -0.03798944 0.03911867
v 0.00240124 -0.03807071 0.03984535
v 0.00240124 -0.03822056 0.04153991
v 0.00240124 -0.03829479 0.04238781
v 0.00240124 -0.03834599 0.04298643
v 0.00215226 -0.03834834 0.04298643
v 0.00155422 -0.03610942 0.04298643
v 0.00240124 -0.03355294 0.04253202
v 0.00618654 -0.03600373 0.04298643
v 0.00596987 -0.03758497 0.03663589
v 0.00618654 -0.03760047 0.03685222
v 0.00258116 -0.03770992 0.03663589
v 0.00324826 -0.03778321 0.03730352
v 0.00240124 -0.03795514 0.03863566
v 0.00409528 -0.03786589 0.03815142
v 0.00409528 -0.03793964 0.03879977
v 0.00409528 -0.03797957 0.03922372
v 0.00324826 -0.03805521 0.03984535
v 0.00324826 -0.03813037 0.04069263
v 0.00324826 -0.03833331 0.04298643
v 0.00299928 -0.03833754 0.04298643
v 0.00180319 -0.03610144 0.04298643
v 0.00240124 -0.03608687 0.04298643
v 0.00618654 -0.03824264 0.04298643
v 0.00579059 -0.03759483 0.03663589
v 0.00618654 -0.03761268 0.03694795
v 0.00324826 -0.03770100 0.03663589
v 0.00409528 -0.03776160 0.03730352
v 0.00494293 -0.03782831 0.03815142
v 0.00496067 -0.03792555 0.03903288
v 0.00469016 -0.03796971 0.03933872
v 0.00494293 -0.03808386 0.04069263
v 0.00409528 -0.03803547 0.03984535
v 0.00409528 -0.03811064 0.04069263
v 0.00384694 -0.03831921 0.04298643
v 0.00600852 -0.03824922 0.04298643
v 0.00618654 -0.03822479 0.04278316
v 0.00512285 -0.03763100 0.03663589
v 0.00618654 -0.03770758 0.03769949
v 0.00342818 -0.03769630 0.03663589
v 0.00409528 -0.03767845 0.03663589
v 0.00427520 -0.03767046 0.03663589
v 0.00494293 -0.03772355 0.03730352
v 0.00579059 -0.03778415 0.03815142
v 0.00618654 -0.03785931 0.03899869
v 0.00579059 -0.03787951 0.03899869
v 0.00525526 -0.03795608 0.03947486
v 0.00579059 -0.03798568 0.04003184
v 0.00618654 -0.03807024 0.04108861
v 0.00579059 -0.03805004 0.04069263
v 0.00618654 -0.03814963 0.04193588
v 0.00494293 -0.03828633 0.04298643
v 0.00618654 -0.03819003 0.04238781
v 0.00579059 -0.03820412 0.04238781
v 0.00579059 -0.03825721 0.04298643
v 0.00409528 -0.03831311 0.04298643
v 0.00494293 -0.03764040 0.03663589
v 0.00618654 -0.03776348 0.03815142
v 0.00618654 -0.03793447 0.03973221
v 0.00618654 -0.03799367 0.04031095
f 1 2 3
f 1 3 4
f 1 4 5
f 1 5 6
f 1 6 7
f 1 7 8
f 1 8 9
f 1 9 21
f 1 21 30
f 1 30 41
f 1 41 58
f 1 58 73
f 1 73 86
f 1 86 105
f 1 105 90
f 1 90 89
f 1 89 88
f 1 88 75
f 1 75 60
f 1 60 43
f 1 43 31
f 1 31 22
f 1 22 10
f 1 10 2
f 2 11 12
f 2 12 13
f 2 13 3
f 2 10 11
f 3 13 14
f 3 14 4
f 4 14 5
f 5 15 16
f 5 16 17
f 5 17 18
f 5 18 6
f 5 14 27
f 5 27 37
f 5 37 54
f 5 54 53
f 5 53 69
f 5 69 68
f 5 68 83
f 5 83 104
f 5 104 100
f 5 100 103
f 5 103 84
f 5 84 72
f 5 72 57
f 5 57 71
f 5 71 70
f 5 70 55
f 5 55 38
f 5 38 28
f 5 28 15
f 6 18 7
f 7 18 17
f 7 17 16
f 7 16 29
f 7 29 39
f 7 39 56
f 7 56 40
f 7 40 30
f 7 30 21
f 7 21 20
f 7 20 19
f 7 19 8
f 8 19 9
f 9 19 20
f 9 20 21
f 10 22 23
f 10 23 24
f 10 24 25
f 10 25 26
f 10 26 12
f 10 12 11
f 12 26 27
f 12 27 13
f 13 27 14
f 15 28 29
f 15 29 16
f 22 31 23
f 23 31 32
f 23 32 33
f 23 33 34
f 23 34 35
f 23 35 36
f 23 36 37
f 23 37 24
f 24 37 25
f 25 37 26
f 26 37 27
f 28 38 39
f 28 39 29
f 30 40 57
f 30 57 72
f 30 72 85
f 30 85 101
f 30 101 99
f 30 99 97
f 30 97 108
f 30 108 107
f 30 107 93
f 30 93 106
f 30 106 87
f 30 87 74
f 30 74 59
f 30 59 41
f 31 42 32
f 31 43 44
f 31 44 42
f 32 45 33
f 32 42 44
f 32 44 46
f 32 46 47
f 32 47 45
f 33 48 49
f 33 49 50
f 33 50 51
f 33 51 34
f 33 45 48
f 34 51 52
f 34 52 53
f 34 53 35
f 35 53 54
f 35 54 36
f 36 54 37
f 38 55 56
f 38 56 39
f 40 56 57
f 41 59 58
f 43 60 44
f 44 60 61
f 44 61 46
f 45 47 62
f 45 62 48
f 46 61 76
f 46 76 63
f 46 63 48
f 46 48 62
f 46 62 47
f 48 63 64
f 48 64 65
f 48 65 49
f 49 65 66
f 49 66 50
f 50 66 67
f 50 67 68
f 50 68 51
f 51 69 52
f 51 68 69
f 52 69 53
f 55 70 56
f 56 70 71
f 56 71 57
f 58 59 74
f 58 74 73
f 60 75 61
f 61 75 76
f 63 76 77
f 63 77 64
f 64 77 78
f 64 78 79
f 64 79 65
f 65 79 80
f 65 80 81
f 65 81 66
f 66 81 82
f 66 82 67
f 67 82 68
f 68 82 83
f 72 84 85
f 73 74 87
f 73 87 86
f 75 88 76
f 76 88 89
f 76 89 90
f 76 90 91
f 76 91 77
f 77 91 92
f 77 92 93
f 77 93 94
f 77 94 78
f 78 94 93
f 78 93 95
f 78 95 79
f 79 95 96
f 79 96 97
f 79 97 98
f 79 98 99
f 79 99 80
f 80 100 104
f 80 104 82
f 80 82 81
f 80 99 101
f 80 101 102
f 80 102 103
f 80 103 100
f 82 104 83
f 84 103 101
f 84 101 85
f 86 87 91
f 86 91 105
f 87 106 91
f 90 105 91
f 91 106 92
f 92 106 93
f 93 107 96
f 93 96 95
f 96 107 108
f 96 108 97
f 97 99 98
f 101 103 102

