# https://github.com/mikedh/trimesh
v 0.00630212 -0.03219593 0.02316684
v 0.00630212 -0.03035649 0.02286911
v 0.00436658 -0.03035649 0.02613492
v 0.00432944 -0.03056628 0.02613492
v 0.00428817 -0.03074617 0.02613492
v 0.00386958 -0.03125217 0.02613492
v 0.00376523 -0.03126424 0.02613492
v 0.00324877 -0.03132186 0.02613492
v 0.00579096 -0.03219593 0.02319541
v 0.00630212 -0.03219593 0.01916361
v 0.00630212 -0.03035649 0.01720302
v 0.00027973 -0.03035649 0.02613492
v 0.00140167 -0.03132186 0.02613492
v 0.00409538 -0.03219593 0.02319541
v 0.00579038 -0.03219593 0.01907328
v 0.00630212 -0.03208086 0.01902996
v 0.00630212 -0.03200595 0.01894977
v 0.00579038 -0.03035649 0.01710531
v 0.00027973 -0.03131898 0.02613492
v 0.00027973 -0.03035649 0.01996002
v 0.00055447 -0.03132024 0.02613492
v 0.00155378 -0.03219593 0.02319449
v 0.00579038 -0.03212012 0.01898756
v 0.00494317 -0.03219593 0.01896820
v 0.00579038 -0.03130061 0.01811096
v 0.00547673 -0.03035649 0.01705923
v 0.00027973 -0.03182084 0.02204966
v 0.00035520 -0.03219593 0.02204966
v 0.00048549 -0.03219593 0.02240823
v 0.00070717 -0.03219593 0.02293179
v 0.00035991 -0.03035649 0.01866955
v 0.00027973 -0.03078002 0.02027342
v 0.00494317 -0.03216766 0.01893686
v 0.00494317 -0.03135103 0.01805473
v 0.00494317 -0.03035649 0.01698272
v 0.00434005 -0.03219593 0.01890552
v 0.00027973 -0.03153470 0.02117675
v 0.00035579 -0.03219593 0.02119610
v 0.00034989 -0.03219593 0.02160353
v 0.00053619 -0.03035649 0.01779479
v 0.00038232 -0.03075878 0.01866125
v 0.00039057 -0.03160583 0.01950835
v 0.00354650 -0.03035649 0.01682510
v 0.00409538 -0.03035649 0.01688225
v 0.00449805 -0.03035649 0.01692926
v 0.00406826 -0.03219593 0.01887879
v 0.00324877 -0.03035649 0.01679468
v 0.00040118 -0.03219593 0.02035638
v 0.00069361 -0.03080145 0.01777544
v 0.00082272 -0.03035649 0.01707490
v 0.00062581 -0.03219593 0.01951389
v 0.00070363 -0.03163356 0.01863913
v 0.00324877 -0.03219593 0.01880597
v 0.00263327 -0.03035649 0.01675689
v 0.00089052 -0.03054755 0.01715601
v 0.00155378 -0.03035649 0.01671817
v 0.00089936 -0.03219593 0.01893317
v 0.00089642 -0.03136958 0.01803169
v 0.00090703 -0.03218404 0.01890736
v 0.00314383 -0.03219593 0.01880044
v 0.00240157 -0.03035649 0.01674306
v 0.00240157 -0.03219593 0.01876541
v 0.00226066 -0.03219593 0.01876173
v 0.00155378 -0.03188170 0.01839947
v 0.00092236 -0.03219593 0.01891658
v 0.00155378 -0.03219593 0.01875066
f 1 2 3
f 1 3 4
f 1 4 5
f 1 5 6
f 1 6 7
f 1 7 8
f 1 8 9
f 1 9 14
f 1 14 22
f 1 22 30
f 1 30 29
f 1 29 28
f 1 28 39
f 1 39 38
f 1 38 48
f 1 48 51
f 1 51 57
f 1 57 65
f 1 65 66
f 1 66 63
f 1 63 62
f 1 62 60
f 1 60 53
f 1 53 46
f 1 46 36
f 1 36 24
f 1 24 15
f 1 15 10
f 1 10 16
f 1 16 17
f 1 17 11
f 1 11 2
f 2 11 18
f 2 18 26
f 2 26 35
f 2 35 45
f 2 45 44
f 2 44 43
f 2 43 47
f 2 47 54
f 2 54 61
f 2 61 56
f 2 56 50
f 2 50 40
f 2 40 31
f 2 31 20
f 2 20 12
f 2 12 3
f 3 12 19
f 3 19 21
f 3 21 13
f 3 13 8
f 3 8 7
f 3 7 6
f 3 6 5
f 3 5 4
f 8 13 14
f 8 14 9
f 10 15 16
f 11 17 18
f 12 20 32
f 12 32 37
f 12 37 27
f 12 27 19
f 13 21 22
f 13 22 14
f 15 23 16
f 15 24 23
f 16 23 17
f 17 23 25
f 17 25 18
f 18 25 26
f 19 27 28
f 19 28 29
f 19 29 30
f 19 30 22
f 19 22 21
f 20 31 32
f 23 24 33
f 23 33 34
f 23 34 35
f 23 35 25
f 24 36 33
f 25 35 26
f 27 37 38
f 27 38 39
f 27 39 28
f 31 40 41
f 31 41 32
f 32 42 37
f 32 41 42
f 33 36 43
f 33 43 44
f 33 44 34
f 34 44 45
f 34 45 35
f 36 46 47
f 36 47 43
f 37 42 48
f 37 48 38
f 40 49 41
f 40 50 49
f 41 49 42
f 42 51 48
f 42 49 52
f 42 52 51
f 46 53 47
f 47 53 54
f 49 50 55
f 49 55 52
f 50 56 55
f 51 52 57
f 52 55 58
f 52 58 59
f 52 59 57
f 53 60 61
f 53 61 54
f 55 56 58
f 56 61 62
f 56 62 63
f 56 63 64
f 56 64 59
f 56 59 58
f 57 59 65
f 59 64 65
f 60 62 61
f 63 66 64
f 64 66 65

