# https://github.com/mikedh/trimesh
v 0.00918064 0.02489281 0.06547324
v 0.00895918 0.02489281 0.06537726
v 0.00850351 0.02432238 0.06512784
v 0.00918064 0.02432238 0.06542128
v 0.00996992 0.02432238 0.06513701
v 0.00997699 0.02489281 0.06516636
v 0.00849820 0.02489281 0.06515046
v 0.00824207 0.02432238 0.06441993
v 0.00828452 0.01776943 0.06187865
v 0.00835386 0.01776943 0.06203576
v 0.00854561 0.01776943 0.06246797
v 0.00859337 0.02369896 0.06501047
v 0.00841259 0.02489281 0.06491877
v 0.00984114 0.02369896 0.06501047
v 0.00918064 0.01776943 0.06263486
v 0.00992923 0.01776943 0.06246797
v 0.01003395 0.01776943 0.06231147
v 0.01032228 0.01776943 0.06187865
v 0.01125979 0.01776943 0.06041330
v 0.01035058 0.02432238 0.06441993
v 0.01035695 0.02489281 0.06441993
v 0.00824348 0.02489281 0.06441993
v 0.00824065 0.02489281 0.06414300
v 0.00823393 0.02432238 0.06357263
v 0.00823393 0.01776943 0.06103074
v 0.00824737 0.01776943 0.06125632
v 0.00871471 0.01776943 0.06251259
v 0.01184565 0.01776943 0.05923039
v 0.01184813 0.02489281 0.05922795
v 0.01184813 0.01839077 0.05922795
v 0.00823393 0.02489281 0.06103074
v 0.00823393 0.01776943 0.05922795
v 0.01173810 0.01776943 0.05922795
v 0.00823393 0.02489281 0.05922795
f 1 2 3
f 1 3 4
f 1 4 5
f 1 5 6
f 1 6 21
f 1 21 29
f 1 29 34
f 1 34 31
f 1 31 23
f 1 23 22
f 1 22 13
f 1 13 7
f 1 7 2
f 2 7 3
f 3 8 9
f 3 9 10
f 3 10 11
f 3 11 12
f 3 12 4
f 3 7 13
f 3 13 8
f 4 14 5
f 4 12 15
f 4 15 14
f 5 14 16
f 5 16 17
f 5 17 18
f 5 18 19
f 5 19 20
f 5 20 6
f 6 20 21
f 8 13 22
f 8 22 23
f 8 23 24
f 8 24 25
f 8 25 26
f 8 26 9
f 9 26 25
f 9 25 32
f 9 32 33
f 9 33 28
f 9 28 19
f 9 19 18
f 9 18 17
f 9 17 16
f 9 16 15
f 9 15 27
f 9 27 11
f 9 11 10
f 11 27 12
f 12 27 15
f 14 15 16
f 19 28 20
f 20 28 21
f 21 28 30
f 21 30 29
f 23 31 24
f 24 31 34
f 24 34 32
f 24 32 25
f 28 33 30
f 29 30 33
f 29 33 32
f 29 32 34

