# https://github.com/mikedh/trimesh
v 0.00751975 -0.03434860 0.07292849
v 0.00823960 -0.03434517 0.07289391
v 0.00823960 -0.03434792 0.07292434
v 0.00823960 -0.03406236 0.07292849
v 0.00748554 -0.03434792 0.07292849
v 0.00743614 -0.03434792 0.07292572
v 0.00743614 -0.03433968 0.07284412
v 0.00743614 -0.03291189 0.05879874
v 0.00823960 -0.03291189 0.05879874
v 0.00823960 -0.02969250 0.07292849
v 0.00743614 -0.03420514 0.07292849
v 0.00743614 -0.03030069 0.05879874
v 0.00823960 -0.02733665 0.05879874
v 0.00823960 -0.02733665 0.06443625
v 0.00823441 -0.02733665 0.06442104
v 0.00743614 -0.03174838 0.07292849
v 0.00823386 -0.02733665 0.06103106
v 0.00823386 -0.02733665 0.05879874
v 0.00743614 -0.03093427 0.06530484
v 0.00743614 -0.03101664 0.06610565
f 1 2 3
f 1 3 4
f 1 4 10
f 1 10 16
f 1 16 11
f 1 11 5
f 1 5 6
f 1 6 7
f 1 7 8
f 1 8 2
f 2 8 9
f 2 9 13
f 2 13 14
f 2 14 10
f 2 10 4
f 2 4 3
f 5 11 6
f 6 11 16
f 6 16 20
f 6 20 19
f 6 19 12
f 6 12 8
f 6 8 7
f 8 12 18
f 8 18 13
f 8 13 9
f 10 14 15
f 10 15 16
f 12 15 17
f 12 17 18
f 12 19 15
f 13 18 17
f 13 17 15
f 13 15 14
f 15 19 20
f 15 20 16

