# https://github.com/mikedh/trimesh
v -0.00100659 -0.00025188 0.03663589
v -0.00659520 -0.00222480 0.03937830
v -0.00100659 0.00144208 0.03663589
v -0.00078590 -0.00091985 0.03663589
v -0.00659520 0.00423603 0.03937830
v -0.00064886 -0.00097488 0.03663589
v -0.00014199 -0.00117793 0.03663589
v -0.00607221 -0.00222480 0.03933444
v -0.00692472 -0.00222480 0.03984641
v -0.00669295 0.00423603 0.03951703
v -0.00096326 0.00162235 0.03663589
v -0.00607221 0.00423603 0.03933444
v -0.00058034 0.00272298 0.03663589
v -0.00080102 0.00228969 0.03663589
v 0.00003838 -0.00118109 0.03663589
v -0.00014199 -0.00222480 0.03902565
v -0.00701843 -0.00222480 0.04069311
v -0.00692472 0.00423603 0.03984641
v -0.00039391 0.00423603 0.03922525
v -0.00014199 0.00273310 0.03663589
v 0.00070547 -0.00119122 0.03663589
v 0.00070547 -0.00222480 0.03901491
v -0.00701843 0.00423603 0.04069311
v -0.00679674 -0.00222480 0.04104487
v -0.00412235 -0.00170990 0.04577874
v -0.00432288 -0.00109950 0.04577874
v -0.00435512 -0.00025188 0.04577874
v -0.00014199 0.00423603 0.03922435
v 0.00045355 0.00423603 0.03922256
v 0.00070547 0.00273373 0.03663589
v 0.00155293 -0.00119122 0.03663589
v 0.00155293 -0.00222480 0.03901491
v -0.00668791 0.00423603 0.04121582
v -0.00435512 0.00228969 0.04577874
v -0.00425738 0.00313730 0.04577874
v -0.00405685 0.00373948 0.04577874
v -0.00668791 -0.00222480 0.04121582
v -0.00417475 -0.00222480 0.04487923
v -0.00412134 -0.00171180 0.04577695
v -0.00353084 -0.00192687 0.04577874
v 0.00155293 0.00423603 0.03922256
v 0.00222102 0.00273373 0.03663589
v 0.00240039 -0.00118046 0.03663589
v 0.00240039 -0.00222480 0.03902923
v 0.00183206 -0.00222480 0.03901581
v -0.00417172 0.00423603 0.04494904
v -0.00353184 0.00395202 0.04577874
v -0.00361850 0.00423603 0.04537866
v -0.00356107 -0.00222480 0.04517369
v -0.00352983 -0.00222480 0.04518622
v 0.00048982 -0.00222480 0.04577874
v 0.00240039 0.00423603 0.03923062
v 0.00240039 0.00273310 0.03663589
v 0.00297578 -0.00222480 0.03923330
v 0.00257170 -0.00222480 0.03905519
v 0.00305035 -0.00092238 0.03663589
v -0.00352983 0.00423603 0.04542341
v 0.00011698 0.00423603 0.04577874
v 0.00327607 -0.00222480 0.04577874
v 0.00292741 0.00423603 0.03933086
v 0.00283974 0.00272298 0.03663589
v 0.00274704 0.00272551 0.03663589
v 0.00305035 -0.00222480 0.03939709
v 0.00327607 -0.00025188 0.03663589
v 0.00320150 -0.00222480 0.03984641
v 0.00324382 0.00423603 0.04577874
v 0.00327607 -0.00222480 0.04069311
v 0.00327607 0.00423540 0.04577874
v 0.00315313 0.00423603 0.03984641
v 0.00288811 0.00263126 0.03663589
v 0.00324382 -0.00222480 0.04012476
v 0.00327607 0.00144208 0.03663589
v 0.00327607 0.00423603 0.04577695
v 0.00327607 0.00423603 0.04069311
v 0.00306546 0.00228969 0.03663589
f 1 2 5
f 1 5 3
f 1 3 11
f 1 11 14
f 1 14 13
f 1 13 20
f 1 20 30
f 1 30 42
f 1 42 53
f 1 53 62
f 1 62 61
f 1 61 70
f 1 70 75
f 1 75 72
f 1 72 64
f 1 64 56
f 1 56 43
f 1 43 31
f 1 31 21
f 1 21 15
f 1 15 7
f 1 7 6
f 1 6 4
f 1 4 2
f 2 4 6
f 2 6 7
f 2 7 8
f 2 8 16
f 2 16 22
f 2 22 32
f 2 32 45
f 2 45 44
f 2 44 55
f 2 55 54
f 2 54 63
f 2 63 65
f 2 65 71
f 2 71 67
f 2 67 59
f 2 59 51
f 2 51 50
f 2 50 49
f 2 49 38
f 2 38 37
f 2 37 24
f 2 24 17
f 2 17 9
f 2 9 10
f 2 10 5
f 3 5 11
f 5 12 13
f 5 13 14
f 5 14 11
f 5 10 18
f 5 18 23
f 5 23 33
f 5 33 46
f 5 46 48
f 5 48 57
f 5 57 58
f 5 58 66
f 5 66 73
f 5 73 74
f 5 74 69
f 5 69 60
f 5 60 52
f 5 52 41
f 5 41 29
f 5 29 28
f 5 28 19
f 5 19 12
f 7 15 16
f 7 16 8
f 9 17 23
f 9 23 18
f 9 18 10
f 12 19 20
f 12 20 13
f 15 21 16
f 16 21 22
f 17 24 25
f 17 25 26
f 17 26 27
f 17 27 34
f 17 34 23
f 19 28 20
f 20 28 29
f 20 29 30
f 21 31 32
f 21 32 22
f 23 34 35
f 23 35 36
f 23 36 33
f 24 37 25
f 25 38 39
f 25 39 40
f 25 40 51
f 25 51 59
f 25 59 68
f 25 68 66
f 25 66 58
f 25 58 47
f 25 47 36
f 25 36 35
f 25 35 34
f 25 34 27
f 25 27 26
f 25 37 38
f 29 41 42
f 29 42 30
f 31 43 44
f 31 44 45
f 31 45 32
f 33 36 46
f 36 47 48
f 36 48 46
f 38 49 40
f 38 40 39
f 40 49 50
f 40 50 51
f 41 52 53
f 41 53 42
f 43 54 55
f 43 55 44
f 43 56 54
f 47 57 48
f 47 58 57
f 52 60 61
f 52 61 62
f 52 62 53
f 54 56 63
f 56 64 65
f 56 65 63
f 59 67 64
f 59 64 72
f 59 72 74
f 59 74 73
f 59 73 68
f 60 69 61
f 61 69 70
f 64 71 65
f 64 67 71
f 66 68 73
f 69 74 72
f 69 72 75
f 69 75 70

