# https://github.com/mikedh/trimesh
v -0.00701779 -0.02036215 0.04069349
v -0.00695007 -0.02036215 0.04007384
v -0.00692963 -0.02036215 0.04083376
v -0.00701779 -0.00920234 0.04069349
v -0.00696604 -0.00920234 0.04021733
v -0.00692516 -0.02036215 0.03984597
v -0.00668814 -0.02036215 0.04121695
v -0.00668814 -0.00920234 0.04121695
v -0.00692516 -0.00920234 0.03984597
v -0.00668367 -0.02036215 0.03950362
v -0.00673989 -0.00920234 0.03958316
v -0.00057869 -0.02036215 0.04368106
v -0.00401897 -0.01937900 0.04370901
v -0.00411480 -0.01697139 0.04478548
v -0.00428154 -0.01649074 0.04478548
v -0.00430901 -0.01635200 0.04478548
v -0.00435054 -0.01564960 0.04478548
v -0.00435565 -0.01550431 0.04478548
v -0.00435565 -0.01296342 0.04478548
v -0.00401386 -0.00985559 0.04455170
v -0.00353088 -0.00937166 0.04408252
v -0.00353088 -0.00920234 0.04359507
v -0.00659486 -0.02036215 0.03937840
v -0.00659486 -0.00920234 0.03937840
v -0.00049181 -0.02036215 0.04370202
v -0.00353088 -0.01715818 0.04478548
v -0.00411097 -0.01180222 0.04478548
v -0.00353088 -0.00978131 0.04457535
v -0.00049181 -0.00920234 0.04468821
v -0.00062725 -0.00920234 0.04466671
v -0.00088790 -0.00920234 0.04459684
v -0.00353088 -0.01136963 0.04478548
v -0.00621282 -0.02036215 0.03934616
v -0.00607227 -0.00920234 0.03933433
v -0.00049181 -0.02036215 0.03933433
v -0.00049181 -0.01718549 0.04478548
v -0.00268375 -0.01717566 0.04478548
v -0.00049181 -0.01120796 0.04478548
v -0.00049181 -0.00920234 0.03933433
v -0.00268375 -0.01129972 0.04478548
v -0.00607227 -0.02036215 0.03933433
v -0.00049181 -0.01176617 0.03930155
v -0.00049181 -0.01261277 0.03929564
v -0.00049181 -0.01465881 0.03929564
f 1 2 6
f 1 6 10
f 1 10 23
f 1 23 33
f 1 33 41
f 1 41 35
f 1 35 25
f 1 25 12
f 1 12 7
f 1 7 3
f 1 3 4
f 1 4 5
f 1 5 2
f 2 5 6
f 3 7 8
f 3 8 4
f 4 8 22
f 4 22 31
f 4 31 30
f 4 30 29
f 4 29 39
f 4 39 34
f 4 34 24
f 4 24 11
f 4 11 9
f 4 9 5
f 5 9 6
f 6 9 11
f 6 11 10
f 7 12 13
f 7 13 14
f 7 14 15
f 7 15 16
f 7 16 17
f 7 17 18
f 7 18 19
f 7 19 8
f 8 19 20
f 8 20 21
f 8 21 22
f 10 11 24
f 10 24 23
f 12 25 13
f 13 25 26
f 13 26 14
f 14 26 37
f 14 37 36
f 14 36 38
f 14 38 40
f 14 40 32
f 14 32 27
f 14 27 19
f 14 19 18
f 14 18 17
f 14 17 16
f 14 16 15
f 19 27 20
f 20 28 29
f 20 29 30
f 20 30 31
f 20 31 21
f 20 27 32
f 20 32 28
f 21 31 22
f 23 24 33
f 24 34 33
f 25 35 44
f 25 44 43
f 25 43 42
f 25 42 39
f 25 39 29
f 25 29 38
f 25 38 36
f 25 36 37
f 25 37 26
f 28 32 29
f 29 32 40
f 29 40 38
f 33 34 41
f 34 39 42
f 34 42 43
f 34 43 44
f 34 44 41
f 35 41 44

