# https://github.com/mikedh/trimesh
v 0.00806302 0.03084912 0.05763833
v 0.00618672 0.03112366 0.05634199
v 0.00806302 0.03085323 0.05679276
v 0.00806302 0.03085569 0.05848489
v 0.00618672 0.03115243 0.05594619
v 0.00806302 0.03085816 0.05879674
v 0.00618672 0.03127409 0.05879873
v 0.00618672 0.03122394 0.05545943
v 0.00806302 0.03314082 0.05000621
v 0.00806302 0.03267640 0.05879873
v 0.00769786 0.03103900 0.05879873
v 0.00618672 0.03924574 0.05879873
v 0.00618672 0.03131272 0.05520356
v 0.00806302 0.03317699 0.04990826
v 0.00806302 0.03795687 0.05879873
v 0.00618672 0.03924657 0.05848789
v 0.00640108 0.03921697 0.05879873
v 0.00618672 0.03576215 0.04874985
v 0.00620362 0.03574489 0.04873486
v 0.00698922 0.03481851 0.04869988
v 0.00773221 0.03385760 0.04916764
v 0.00806302 0.03366608 0.04914965
v 0.00784774 0.03822894 0.05879873
v 0.00806302 0.03679128 0.05001521
v 0.00776839 0.03723845 0.05001521
v 0.00734464 0.03785165 0.05001521
v 0.00703367 0.03827580 0.05001521
v 0.00618672 0.03921862 0.05783822
v 0.00637426 0.03920958 0.05848789
v 0.00630740 0.03918656 0.05764032
v 0.00655610 0.03916026 0.05879873
v 0.00618672 0.03580983 0.04872986
v 0.00618672 0.03605807 0.04869588
v 0.00667935 0.03541280 0.04868088
v 0.00748534 0.03533800 0.04859993
v 0.00755918 0.03451848 0.04868688
v 0.00789073 0.03405406 0.04873786
v 0.00806302 0.03381897 0.04892676
v 0.00762714 0.03844431 0.05879873
v 0.00806302 0.03665648 0.04929557
v 0.00799028 0.03673539 0.04916764
v 0.00769382 0.03715871 0.04916764
v 0.00727007 0.03775548 0.04916764
v 0.00693614 0.03817880 0.04916764
v 0.00651257 0.03848787 0.04916764
v 0.00660992 0.03856103 0.05001521
v 0.00682483 0.03905175 0.05879873
v 0.00720762 0.03878297 0.05879873
v 0.00745246 0.03860541 0.05879873
v 0.00618672 0.03920958 0.05764032
v 0.00625303 0.03916601 0.05700465
v 0.00618672 0.03918327 0.05709560
v 0.00618672 0.03876242 0.05045298
v 0.00618672 0.03618548 0.04868488
v 0.00663821 0.03618548 0.04862092
v 0.00663821 0.03703295 0.04858793
v 0.00748534 0.03618548 0.04861292
v 0.00806302 0.03534622 0.04863891
v 0.00806302 0.03476179 0.04864690
v 0.00806302 0.03450122 0.04867489
v 0.00806302 0.03405159 0.04873786
v 0.00806302 0.03662771 0.04917763
v 0.00806302 0.03650276 0.04886079
v 0.00793279 0.03664826 0.04872486
v 0.00715417 0.03759930 0.04869188
v 0.00635608 0.03838183 0.04869288
v 0.00618672 0.03866707 0.04955044
v 0.00618672 0.03872871 0.05001521
v 0.00618672 0.03911834 0.05594619
v 0.00618672 0.03914546 0.05640395
v 0.00618672 0.03917670 0.05696167
v 0.00618672 0.03675840 0.04865090
v 0.00618672 0.03703295 0.04864091
v 0.00618672 0.03759766 0.04864091
v 0.00618672 0.03826182 0.04868288
v 0.00663839 0.03788124 0.04865090
v 0.00806302 0.03562817 0.04864390
v 0.00745614 0.03697212 0.04867089
v 0.00806302 0.03617890 0.04869488
v 0.00806302 0.03616493 0.04868988
v 0.00805567 0.03618548 0.04869088
v 0.00618672 0.03838183 0.04869288
v 0.00618672 0.03843526 0.04881682
f 1 2 3
f 1 3 9
f 1 9 14
f 1 14 22
f 1 22 38
f 1 38 61
f 1 61 60
f 1 60 59
f 1 59 58
f 1 58 77
f 1 77 80
f 1 80 79
f 1 79 63
f 1 63 62
f 1 62 40
f 1 40 24
f 1 24 15
f 1 15 10
f 1 10 6
f 1 6 4
f 1 4 2
f 2 5 3
f 2 4 6
f 2 6 7
f 2 7 12
f 2 12 16
f 2 16 28
f 2 28 50
f 2 50 52
f 2 52 71
f 2 71 70
f 2 70 69
f 2 69 53
f 2 53 68
f 2 68 67
f 2 67 83
f 2 83 82
f 2 82 75
f 2 75 74
f 2 74 73
f 2 73 72
f 2 72 54
f 2 54 33
f 2 33 32
f 2 32 18
f 2 18 13
f 2 13 8
f 2 8 5
f 3 5 8
f 3 8 9
f 6 10 11
f 6 11 7
f 7 11 10
f 7 10 15
f 7 15 23
f 7 23 39
f 7 39 49
f 7 49 48
f 7 48 47
f 7 47 31
f 7 31 17
f 7 17 12
f 8 13 9
f 9 13 14
f 12 17 16
f 13 18 19
f 13 19 20
f 13 20 21
f 13 21 14
f 14 21 22
f 15 24 25
f 15 25 26
f 15 26 27
f 15 27 23
f 16 17 29
f 16 29 30
f 16 30 28
f 17 31 29
f 18 32 19
f 19 32 33
f 19 33 34
f 19 34 20
f 20 34 35
f 20 35 36
f 20 36 37
f 20 37 21
f 21 37 22
f 22 37 38
f 23 27 39
f 24 40 25
f 25 40 41
f 25 41 26
f 26 41 42
f 26 42 43
f 26 43 27
f 27 43 44
f 27 44 45
f 27 45 46
f 27 46 47
f 27 47 48
f 27 48 49
f 27 49 39
f 28 30 50
f 29 31 30
f 30 51 52
f 30 52 50
f 30 31 47
f 30 47 46
f 30 46 53
f 30 53 51
f 33 54 34
f 34 54 55
f 34 55 35
f 35 56 57
f 35 57 58
f 35 58 59
f 35 59 60
f 35 60 36
f 35 55 56
f 36 60 37
f 37 61 38
f 37 60 61
f 40 62 41
f 41 62 63
f 41 63 64
f 41 64 42
f 42 64 43
f 43 64 44
f 44 64 65
f 44 65 66
f 44 66 45
f 45 67 68
f 45 68 46
f 45 66 67
f 46 68 53
f 51 69 70
f 51 70 71
f 51 71 52
f 51 53 69
f 54 72 55
f 55 72 56
f 56 72 73
f 56 73 74
f 56 74 75
f 56 75 76
f 56 76 57
f 57 77 58
f 57 76 78
f 57 78 77
f 63 79 64
f 64 79 80
f 64 80 81
f 64 81 78
f 64 78 65
f 65 78 76
f 65 76 66
f 66 76 82
f 66 82 83
f 66 83 67
f 75 82 76
f 77 78 80
f 78 81 80

