# https://github.com/mikedh/trimesh
v 0.00155366 0.03318891 0.05024482
v 0.00240080 0.03317773 0.05024482
v 0.00155366 0.03317475 0.05001443
v -0.00268274 0.03308978 0.04863286
v -0.00268274 0.03312258 0.04916718
v -0.00268274 0.03318817 0.05024482
v 0.00304157 0.03279091 0.05024482
v 0.00304979 0.03270296 0.04863286
v 0.00280978 0.03284159 0.04863286
v 0.00240080 0.03306146 0.04863286
v 0.00155366 0.03308978 0.04863286
v -0.00299602 0.03307637 0.04863286
v -0.00353062 0.03308680 0.04916718
v -0.00353062 0.03312705 0.05001443
v -0.00351567 0.03311065 0.05024482
v 0.00304979 0.03275886 0.05001443
v 0.00311559 0.03253824 0.05024482
v 0.00327559 0.03194869 0.04863286
v -0.00353062 0.03305028 0.04863286
v -0.00415494 0.03269178 0.04863286
v -0.00412653 0.03272607 0.05001443
v -0.00415494 0.03271190 0.04916718
v -0.00410410 0.03269476 0.05024482
v 0.00328008 0.03194869 0.05024482
v 0.00328157 0.03171838 0.05024482
v 0.00327559 0.03025382 0.04863286
v -0.00428130 0.03223042 0.04863286
v -0.00435607 0.03194869 0.04916718
v -0.00430298 0.03194869 0.05001443
v -0.00435607 0.03194869 0.04863286
v -0.00423195 0.03212906 0.05024482
v 0.00328157 0.03110125 0.05024482
v 0.00314998 0.02939595 0.04863286
v 0.00328083 0.03025382 0.05024482
v -0.00431719 0.03025382 0.05001443
v -0.00435607 0.03025382 0.04916718
v -0.00427532 0.03025382 0.05024482
v -0.00425812 0.03194869 0.05024482
v -0.00435607 0.03025382 0.04863286
v 0.00295857 0.02874826 0.04863286
v 0.00305203 0.02956365 0.05024482
v -0.00431943 0.02971942 0.04863286
v -0.00414896 0.02887720 0.04863286
v -0.00411681 0.02960911 0.05024482
v 0.00176077 0.02557466 0.04863286
v 0.00257875 0.02934750 0.05024482
v -0.00406896 0.02876019 0.04863286
v -0.00397250 0.02953533 0.05024482
v 0.00045980 0.02557466 0.04863286
v 0.00240080 0.02927372 0.05024482
v 0.00155366 0.02557466 0.04864012
v -0.00353062 0.02931918 0.05024482
v 0.00070579 0.02557466 0.04863996
v -0.00329958 0.02928713 0.05024482
v 0.00178395 0.02925508 0.05024482
v 0.00155366 0.02924912 0.05024482
v -0.00268274 0.02924987 0.05024482
f 1 2 3
f 1 3 4
f 1 4 5
f 1 5 6
f 1 6 15
f 1 15 23
f 1 23 31
f 1 31 38
f 1 38 37
f 1 37 44
f 1 44 48
f 1 48 52
f 1 52 54
f 1 54 57
f 1 57 56
f 1 56 55
f 1 55 50
f 1 50 46
f 1 46 41
f 1 41 34
f 1 34 32
f 1 32 25
f 1 25 24
f 1 24 17
f 1 17 7
f 1 7 2
f 2 7 8
f 2 8 9
f 2 9 10
f 2 10 11
f 2 11 3
f 3 11 4
f 4 12 13
f 4 13 5
f 4 11 10
f 4 10 9
f 4 9 8
f 4 8 18
f 4 18 26
f 4 26 33
f 4 33 40
f 4 40 45
f 4 45 49
f 4 49 47
f 4 47 43
f 4 43 42
f 4 42 39
f 4 39 30
f 4 30 27
f 4 27 20
f 4 20 19
f 4 19 12
f 5 13 6
f 6 13 14
f 6 14 15
f 7 16 8
f 7 17 16
f 8 16 18
f 12 19 13
f 13 19 20
f 13 20 14
f 14 21 15
f 14 20 22
f 14 22 21
f 15 21 23
f 16 17 18
f 17 24 18
f 18 24 25
f 18 25 32
f 18 32 26
f 20 27 22
f 21 22 28
f 21 28 29
f 21 29 23
f 22 27 30
f 22 30 28
f 23 29 31
f 26 32 34
f 26 34 33
f 28 35 29
f 28 30 39
f 28 39 36
f 28 36 35
f 29 35 37
f 29 37 38
f 29 38 31
f 33 34 40
f 34 41 40
f 35 36 42
f 35 42 43
f 35 43 44
f 35 44 37
f 36 39 42
f 40 41 45
f 41 46 45
f 43 47 44
f 44 47 49
f 44 49 48
f 45 46 50
f 45 50 51
f 45 51 53
f 45 53 49
f 48 49 52
f 49 53 54
f 49 54 52
f 50 55 51
f 51 55 56
f 51 56 57
f 51 57 53
f 53 57 54

