# https://github.com/mikedh/trimesh
v 0.00735034 0.00059484 0.06271371
v 0.00735034 -0.00018708 0.06266978
v 0.00735034 0.00061173 0.06271057
v 0.00616603 0.00059484 0.07482895
v 0.00616603 -0.00025209 0.07482895
v 0.00735034 -0.00025209 0.06266507
v 0.00735034 0.00146894 0.06253797
v 0.00600509 0.00144250 0.07482895
v 0.00735034 0.00191665 0.06187580
v 0.00613508 -0.00049192 0.07482895
v 0.00735034 -0.00061275 0.06248305
v 0.00571830 0.00180610 0.07482895
v 0.00735034 0.00195154 0.06178479
v 0.00603089 -0.00109938 0.07482895
v 0.00735034 -0.00081071 0.06222101
v 0.00560482 0.00194933 0.07482895
v 0.00735034 0.00198092 0.06127482
v 0.00591741 -0.00125143 0.07482895
v 0.00735034 -0.00086653 0.06182872
v 0.00541810 0.00197320 0.07482895
v 0.00735034 0.00203307 0.06031765
v 0.00563164 -0.00162091 0.07482895
v 0.00735034 -0.00094036 0.06103161
v 0.00494251 0.00203307 0.07482895
v 0.00735034 0.00203307 0.05879874
v 0.00494251 -0.00171897 0.07482895
v 0.00735034 -0.00095101 0.06018428
v 0.00240057 0.00203307 0.07482895
v 0.00735034 -0.00087829 0.05879874
v -0.00183532 0.00203307 0.05879874
v 0.00240057 -0.00171860 0.07482895
v 0.00240057 -0.00170612 0.07458888
v 0.00155463 -0.00151477 0.07093751
v 0.00240057 -0.00151477 0.07093595
v 0.00324754 -0.00130653 0.06696134
v 0.00494251 -0.00143984 0.06950333
v 0.00663749 -0.00099581 0.06103161
v 0.00735034 -0.00094403 0.06004933
v 0.00155463 0.00203234 0.07289422
v 0.00155463 0.00200883 0.07374155
v 0.00160311 0.00194823 0.07482895
v 0.00070663 0.00203307 0.06950333
v 0.00735034 -0.00089959 0.05920200
v -0.00183532 -0.00087829 0.05879874
v -0.00266166 0.00195411 0.05879874
v -0.00183532 0.00203307 0.05933695
v 0.00179913 -0.00165103 0.07482895
v 0.00155463 -0.00163229 0.07374155
v 0.00155463 -0.00161540 0.07289422
v 0.00155463 -0.00157280 0.07204689
v -0.00183532 -0.00090657 0.05933695
v -0.00098835 -0.00099545 0.06103161
v -0.00014035 -0.00108433 0.06272626
v -0.00183532 0.00203270 0.06018428
v -0.00098835 0.00203013 0.06357359
v -0.00014035 0.00202536 0.06696134
v 0.00070663 0.00201875 0.07035066
v 0.00105429 0.00192546 0.07374155
v 0.00018875 0.00193501 0.07035066
v 0.00110380 0.00189094 0.07427819
v 0.00120181 0.00144250 0.07482895
v -0.00098835 0.00203307 0.06272626
v -0.00243986 -0.00081622 0.05879874
v -0.00301241 0.00176790 0.05879874
v -0.00234082 0.00192840 0.06103161
v -0.00240684 0.00194933 0.06018428
v -0.00183532 0.00201177 0.06103161
v 0.00159383 -0.00161577 0.07482895
v 0.00107905 -0.00156288 0.07374155
v 0.00105222 -0.00156839 0.07289422
v 0.00106048 -0.00154782 0.07204689
v -0.00183532 -0.00094954 0.06018428
v -0.00098835 -0.00108396 0.06272626
v 0.00024136 0.00190269 0.07096262
v -0.00062005 0.00191187 0.06765490
v -0.00067576 0.00194199 0.06696134
v 0.00105944 0.00144250 0.07444138
v -0.00228924 0.00189387 0.06158551
v -0.00142576 0.00187992 0.06490422
v -0.00055403 0.00184943 0.06821978
v 0.00110587 0.00059484 0.07482895
v -0.00268023 -0.00077766 0.05879874
v -0.00306915 0.00170657 0.05879874
v -0.00305058 0.00174182 0.05883639
v -0.00147322 0.00191554 0.06442092
v 0.00121419 -0.00110379 0.07482895
v 0.00111309 -0.00153974 0.07424838
v -0.00239137 -0.00079932 0.06103161
v -0.00246049 -0.00081181 0.06018428
v -0.00183532 -0.00095909 0.06103161
v 0.00027024 0.00113730 0.07167187
v -0.00315478 0.00128714 0.05879874
v -0.00312486 0.00117696 0.05898075
v 0.00110793 0.00032746 0.07482895
v -0.00049935 0.00059484 0.06883645
v -0.00307122 -0.00056390 0.05879874
v 0.00121109 -0.00109938 0.07482895
v 0.00106976 -0.00109938 0.07440686
v -0.00059323 -0.00074276 0.06833904
v -0.00145980 -0.00074974 0.06502661
v -0.00231916 -0.00074313 0.06169848
v -0.00313208 0.00059484 0.05900743
v -0.00317851 0.00096284 0.05879874
v -0.00318779 0.00059484 0.05879874
v 0.00103262 -0.00025209 0.07452925
v 0.00111309 -0.00025209 0.07482895
v -0.00148663 -0.00025209 0.06512389
v -0.00306606 -0.00055289 0.05883953
v -0.00308256 -0.00051579 0.05879874
v 0.00112856 -0.00044527 0.07482895
v 0.00027437 -0.00071228 0.07165304
v -0.00235733 -0.00025209 0.06183657
v -0.00314962 -0.00009490 0.05879874
v -0.00167438 -0.00025209 0.06442092
v -0.00312177 0.00001198 0.05897134
f 1 2 6
f 1 6 11
f 1 11 15
f 1 15 19
f 1 19 23
f 1 23 27
f 1 27 38
f 1 38 43
f 1 43 29
f 1 29 25
f 1 25 21
f 1 21 17
f 1 17 13
f 1 13 9
f 1 9 7
f 1 7 3
f 1 3 4
f 1 4 5
f 1 5 2
f 2 5 6
f 3 7 4
f 4 8 12
f 4 12 16
f 4 16 20
f 4 20 24
f 4 24 28
f 4 28 41
f 4 41 61
f 4 61 81
f 4 81 94
f 4 94 106
f 4 106 110
f 4 110 97
f 4 97 86
f 4 86 68
f 4 68 47
f 4 47 31
f 4 31 26
f 4 26 22
f 4 22 18
f 4 18 14
f 4 14 10
f 4 10 5
f 4 7 9
f 4 9 8
f 5 10 11
f 5 11 6
f 8 9 13
f 8 13 12
f 10 14 15
f 10 15 11
f 12 13 16
f 13 17 16
f 14 18 19
f 14 19 15
f 16 17 21
f 16 21 20
f 18 22 19
f 19 22 23
f 20 21 24
f 21 25 30
f 21 30 46
f 21 46 62
f 21 62 42
f 21 42 28
f 21 28 24
f 22 26 27
f 22 27 23
f 25 29 44
f 25 44 63
f 25 63 82
f 25 82 96
f 25 96 109
f 25 109 113
f 25 113 104
f 25 104 103
f 25 103 92
f 25 92 83
f 25 83 64
f 25 64 45
f 25 45 30
f 26 31 32
f 26 32 33
f 26 33 34
f 26 34 35
f 26 35 36
f 26 36 37
f 26 37 38
f 26 38 27
f 28 39 40
f 28 40 41
f 28 42 39
f 29 43 44
f 30 45 46
f 31 47 48
f 31 48 49
f 31 49 50
f 31 50 32
f 32 50 51
f 32 51 33
f 33 51 34
f 34 51 52
f 34 52 53
f 34 53 35
f 35 53 52
f 35 52 51
f 35 51 37
f 35 37 36
f 37 51 44
f 37 44 43
f 37 43 38
f 39 42 54
f 39 54 55
f 39 55 56
f 39 56 57
f 39 57 40
f 40 58 41
f 40 57 59
f 40 59 58
f 41 58 60
f 41 60 61
f 42 62 54
f 44 51 63
f 45 64 65
f 45 65 66
f 45 66 67
f 45 67 54
f 45 54 46
f 46 54 62
f 47 68 69
f 47 69 48
f 48 69 70
f 48 70 49
f 49 70 71
f 49 71 72
f 49 72 50
f 50 72 73
f 50 73 51
f 51 73 72
f 51 72 63
f 54 67 55
f 55 67 56
f 56 67 57
f 57 67 59
f 58 74 60
f 58 59 65
f 58 65 75
f 58 75 74
f 59 67 76
f 59 76 65
f 60 77 61
f 60 74 78
f 60 78 79
f 60 79 80
f 60 80 77
f 61 77 81
f 63 72 82
f 64 83 84
f 64 84 65
f 65 67 66
f 65 84 78
f 65 78 85
f 65 85 75
f 65 76 67
f 68 86 87
f 68 87 69
f 69 87 88
f 69 88 89
f 69 89 82
f 69 82 70
f 70 82 90
f 70 90 72
f 70 72 71
f 72 90 82
f 74 75 78
f 75 85 78
f 77 91 81
f 77 80 91
f 78 84 79
f 79 84 83
f 79 83 92
f 79 92 80
f 80 92 93
f 80 93 91
f 81 91 95
f 81 95 94
f 82 89 88
f 82 88 96
f 86 97 87
f 87 97 98
f 87 98 99
f 87 99 100
f 87 100 101
f 87 101 88
f 88 101 96
f 91 93 102
f 91 102 95
f 92 103 93
f 93 103 104
f 93 104 102
f 94 105 106
f 94 95 102
f 94 102 107
f 94 107 105
f 96 108 109
f 96 101 108
f 97 110 98
f 98 110 111
f 98 111 99
f 99 111 112
f 99 112 100
f 100 112 101
f 101 112 113
f 101 113 109
f 101 109 108
f 102 104 114
f 102 114 107
f 104 113 115
f 104 115 112
f 104 112 114
f 105 111 106
f 105 107 111
f 106 111 110
f 107 114 111
f 111 114 112
f 112 115 113

