# https://github.com/mikedh/trimesh
v 0.00266745 -0.00025210 0.08586062
v 0.00040179 -0.00025210 0.09492641
v 0.00266745 0.00059508 0.08586062
v 0.00268000 -0.00084425 0.08586062
v 0.00045616 -0.00109927 0.09492641
v 0.00036693 -0.00025210 0.09577338
v 0.00061929 0.00059508 0.09492641
v 0.00274692 0.00117703 0.08586062
v 0.00269115 -0.00109927 0.08586062
v 0.00082146 -0.00169907 0.09492641
v 0.00043943 -0.00109927 0.09577338
v 0.00274553 -0.00145272 0.08586062
v 0.00276923 -0.00159451 0.08586062
v 0.00036972 -0.00025210 0.09662035
v 0.00037390 -0.00025210 0.09746861
v 0.00041991 -0.00025210 0.09831557
v 0.00075453 0.00050480 0.09746861
v 0.00072804 0.00067056 0.09582769
v 0.00096785 0.00108522 0.09558071
v 0.00098180 0.00107808 0.09492641
v 0.00309827 0.00140246 0.08586062
v 0.00155484 -0.00187605 0.09492641
v 0.00082146 -0.00168938 0.09577338
v 0.00324885 -0.00175364 0.08586062
v 0.00644449 -0.00271455 0.08586062
v 0.00052169 -0.00109927 0.09746861
v 0.00075314 -0.00117424 0.09837893
v 0.00089675 -0.00094218 0.09887548
v 0.00079775 -0.00025210 0.09892332
v 0.00091905 0.00029670 0.09884832
v 0.00078521 0.00042268 0.09831557
v 0.00644309 0.00249598 0.09323118
v 0.00644309 0.00249598 0.09174414
v 0.00644588 0.00249598 0.09004891
v 0.00644728 0.00249598 0.08920194
v 0.00646261 0.00249598 0.08586062
v 0.00155484 0.00066036 0.09831557
v 0.00155484 0.00083785 0.09746861
v 0.00673170 0.00249598 0.09414151
v 0.00324885 0.00146928 0.08586062
v 0.00155484 -0.00185769 0.09577338
v 0.00642915 -0.00271455 0.08645285
v 0.00642636 -0.00271455 0.08984331
v 0.00642636 -0.00271455 0.09323118
v 0.00643194 -0.00271455 0.09335532
v 0.00090372 -0.00161287 0.09746861
v 0.01110966 -0.00271455 0.08586062
v 0.00098877 -0.00157768 0.09813842
v 0.00155484 -0.00147465 0.09864919
v 0.00155484 -0.00105081 0.09892462
v 0.00155484 -0.00025210 0.09907073
v 0.00155484 0.00034567 0.09888582
v 0.01110966 0.00249598 0.08586062
v 0.01087543 0.00249598 0.09461478
v 0.00748600 0.00249598 0.09457986
v 0.00728522 0.00249598 0.09453719
v 0.00665363 -0.00271455 0.09412341
v 0.00670661 -0.00271455 0.09427082
v 0.01111106 -0.00157564 0.08586062
v 0.01341716 -0.00271455 0.08603389
v 0.00155484 -0.00160522 0.09822635
v 0.00680420 -0.00271455 0.09435616
v 0.00748600 -0.00271455 0.09470141
v 0.00833231 -0.00271455 0.09471693
v 0.01087403 -0.00271455 0.09470141
v 0.01172174 -0.00271455 0.09468719
v 0.00748600 -0.00160573 0.09807765
v 0.00833231 -0.00160267 0.09805566
v 0.00748600 -0.00124055 0.09850178
v 0.00748600 -0.00081671 0.09879272
v 0.00833231 -0.00076825 0.09877462
v 0.00748600 -0.00025210 0.09881987
v 0.00811202 0.00019725 0.09875652
v 0.00748600 0.00052622 0.09831557
v 0.01341716 0.00249598 0.08603389
v 0.01111106 0.00059508 0.08586062
v 0.01172174 0.00249598 0.09457857
v 0.01424395 -0.00109927 0.08645544
v 0.01424255 -0.00194695 0.08645544
v 0.01416169 -0.00271455 0.08641535
v 0.01220694 -0.00271455 0.09458116
v 0.00918002 -0.00158992 0.09800911
v 0.00833231 -0.00119209 0.09847980
v 0.00881472 -0.00070603 0.09875134
v 0.00836995 -0.00022710 0.09877850
v 0.00867808 0.00007178 0.09873065
v 0.01002633 0.00039412 0.09811515
v 0.00918002 0.00046961 0.09825221
v 0.00836995 0.00043798 0.09839574
v 0.01424395 0.00249598 0.08645544
v 0.01263219 0.00249598 0.09442599
v 0.01461064 -0.00025210 0.08730111
v 0.01423977 -0.00271455 0.08645544
v 0.01460785 -0.00194695 0.08730111
v 0.01460646 -0.00271455 0.08730111
v 0.01253738 -0.00271455 0.09449452
v 0.00974329 -0.00156085 0.09795351
v 0.00912982 -0.00103296 0.09846428
v 0.01002633 -0.00113242 0.09812808
v 0.01060913 -0.00087230 0.09799230
v 0.01002633 -0.00025210 0.09836471
v 0.00912982 -0.00022710 0.09865953
v 0.00881472 -0.00049283 0.09875134
v 0.01058961 0.00027987 0.09798196
v 0.01460924 0.00249598 0.08730111
v 0.01273955 0.00249598 0.09435745
v 0.01441405 -0.00025210 0.08984331
v 0.01454650 -0.00271455 0.08806791
v 0.01270748 -0.00271455 0.09440659
v 0.01030936 -0.00143742 0.09778929
v 0.01067326 -0.00025210 0.09803498
v 0.01129928 -0.00152413 0.09704577
v 0.01143592 -0.00109927 0.09719059
v 0.01109712 -0.00025210 0.09774274
v 0.01146799 0.00033649 0.09721775
v 0.01319965 0.00249598 0.09399151
v 0.01449073 0.00249598 0.08878945
v 0.01447540 0.00228993 0.08899505
v 0.01441265 0.00059508 0.08984331
v 0.01427044 -0.00025210 0.09069028
v 0.01441126 -0.00109927 0.08984331
v 0.01447540 -0.00194695 0.08899505
v 0.01440568 -0.00194695 0.08984331
v 0.01447540 -0.00271455 0.08891617
v 0.01318571 -0.00271455 0.09398763
v 0.01209680 -0.00147159 0.09616130
v 0.01156280 -0.00025210 0.09731861
v 0.01188766 -0.00115333 0.09661776
v 0.01222646 -0.00090647 0.09633328
v 0.01198526 -0.00025210 0.09682336
v 0.01222925 0.00030538 0.09633069
v 0.01226968 -0.00025210 0.09639923
v 0.01303095 0.00126730 0.09457598
v 0.01328052 0.00249598 0.09381953
v 0.01447400 0.00249598 0.08899505
v 0.01442102 0.00249598 0.08963642
v 0.01440987 0.00144225 0.08984331
v 0.01426905 0.00059508 0.09069028
v 0.01403760 -0.00025210 0.09153725
v 0.01426626 -0.00109927 0.09069028
v 0.01425789 -0.00194695 0.09069028
v 0.01439592 -0.00271455 0.08984331
v 0.01440289 -0.00271455 0.08976314
v 0.01351475 -0.00271455 0.09323118
v 0.01302676 -0.00173426 0.09457857
v 0.01258200 -0.00025210 0.09577338
v 0.01304768 0.00059508 0.09462642
v 0.01353567 0.00249598 0.09323118
v 0.01440289 0.00249598 0.08984331
v 0.01440429 0.00228993 0.08984331
v 0.01426068 0.00228993 0.09069028
v 0.01403202 0.00228993 0.09153725
v 0.01403481 0.00144225 0.09153725
v 0.01387726 0.00059508 0.09208810
v 0.01387726 -0.00025210 0.09209068
v 0.01387587 -0.00109927 0.09208422
v 0.01403342 -0.00109927 0.09153725
v 0.01402366 -0.00194695 0.09153725
v 0.01403620 -0.00271455 0.09145837
v 0.01424813 -0.00271455 0.09069028
v 0.01352312 -0.00194695 0.09323118
v 0.01323730 -0.00109927 0.09407815
v 0.01303792 -0.00109927 0.09461478
v 0.01375596 -0.00271455 0.09243335
v 0.01374899 -0.00194695 0.09248895
v 0.01375317 -0.00109927 0.09250576
v 0.01288176 -0.00025210 0.09505054
v 0.01325263 0.00059508 0.09407815
v 0.01353567 0.00059508 0.09323118
v 0.01375457 -0.00025210 0.09251223
v 0.01375457 0.00059508 0.09250964
v 0.01358865 0.00249598 0.09305403
v 0.01425929 0.00249598 0.09069028
v 0.01408640 0.00249598 0.09133164
v 0.01403063 0.00249598 0.09153725
v 0.01387587 0.00228993 0.09208163
v 0.01378245 0.00249598 0.09240232
v 0.01401390 -0.00271455 0.09153725
v 0.01352870 -0.00109927 0.09323118
v 0.01387447 0.00249598 0.09208163
f 1 2 3
f 1 3 8
f 1 8 21
f 1 21 40
f 1 40 36
f 1 36 53
f 1 53 76
f 1 76 59
f 1 59 47
f 1 47 25
f 1 25 24
f 1 24 13
f 1 13 12
f 1 12 9
f 1 9 4
f 1 4 2
f 2 5 6
f 2 6 7
f 2 7 8
f 2 8 3
f 2 4 9
f 2 9 5
f 5 10 11
f 5 11 6
f 5 9 12
f 5 12 13
f 5 13 10
f 6 14 7
f 6 11 14
f 7 14 15
f 7 15 16
f 7 16 17
f 7 17 18
f 7 18 19
f 7 19 20
f 7 20 8
f 8 20 21
f 10 22 23
f 10 23 11
f 10 13 24
f 10 24 25
f 10 25 22
f 11 23 26
f 11 26 15
f 11 15 14
f 15 26 16
f 16 26 27
f 16 27 28
f 16 28 29
f 16 29 30
f 16 30 31
f 16 31 17
f 17 31 19
f 17 19 18
f 19 32 33
f 19 33 34
f 19 34 35
f 19 35 36
f 19 36 20
f 19 31 37
f 19 37 38
f 19 38 39
f 19 39 32
f 20 36 40
f 20 40 21
f 22 41 23
f 22 25 42
f 22 42 43
f 22 43 44
f 22 44 45
f 22 45 41
f 23 41 46
f 23 46 26
f 25 47 60
f 25 60 80
f 25 80 93
f 25 93 95
f 25 95 108
f 25 108 124
f 25 124 143
f 25 143 142
f 25 142 160
f 25 160 159
f 25 159 178
f 25 178 164
f 25 164 144
f 25 144 125
f 25 125 109
f 25 109 96
f 25 96 81
f 25 81 66
f 25 66 65
f 25 65 64
f 25 64 63
f 25 63 62
f 25 62 58
f 25 58 57
f 25 57 45
f 25 45 44
f 25 44 43
f 25 43 42
f 26 46 48
f 26 48 27
f 27 48 28
f 28 48 49
f 28 49 50
f 28 50 51
f 28 51 29
f 29 51 30
f 30 51 52
f 30 52 37
f 30 37 31
f 32 39 56
f 32 56 55
f 32 55 54
f 32 54 77
f 32 77 91
f 32 91 106
f 32 106 116
f 32 116 134
f 32 134 148
f 32 148 172
f 32 172 177
f 32 177 180
f 32 180 175
f 32 175 174
f 32 174 173
f 32 173 149
f 32 149 136
f 32 136 135
f 32 135 117
f 32 117 105
f 32 105 90
f 32 90 75
f 32 75 53
f 32 53 36
f 32 36 35
f 32 35 34
f 32 34 33
f 37 52 54
f 37 54 55
f 37 55 56
f 37 56 39
f 37 39 38
f 41 48 46
f 41 45 57
f 41 57 58
f 41 58 48
f 47 59 60
f 48 61 49
f 48 58 62
f 48 62 63
f 48 63 61
f 49 61 64
f 49 64 65
f 49 65 66
f 49 66 67
f 49 67 68
f 49 68 69
f 49 69 70
f 49 70 50
f 50 70 51
f 51 70 71
f 51 71 72
f 51 72 73
f 51 73 52
f 52 73 74
f 52 74 54
f 53 75 76
f 54 74 77
f 59 76 75
f 59 75 60
f 60 75 90
f 60 90 78
f 60 78 79
f 60 79 80
f 61 63 64
f 66 81 82
f 66 82 68
f 66 68 67
f 68 82 69
f 69 82 83
f 69 83 71
f 69 71 70
f 71 83 84
f 71 84 85
f 71 85 72
f 72 85 73
f 73 85 86
f 73 86 87
f 73 87 88
f 73 88 89
f 73 89 74
f 74 89 77
f 77 89 88
f 77 88 91
f 78 90 92
f 78 92 79
f 79 93 80
f 79 92 94
f 79 94 95
f 79 95 93
f 81 96 97
f 81 97 82
f 82 97 83
f 83 98 84
f 83 97 98
f 84 98 99
f 84 99 100
f 84 100 101
f 84 101 102
f 84 102 103
f 84 103 85
f 85 103 86
f 86 103 102
f 86 102 101
f 86 101 104
f 86 104 87
f 87 104 91
f 87 91 88
f 90 105 92
f 91 104 106
f 92 105 107
f 92 107 94
f 94 107 95
f 95 107 108
f 96 109 97
f 97 110 99
f 97 99 98
f 97 109 110
f 99 110 100
f 100 111 101
f 100 110 112
f 100 112 113
f 100 113 114
f 100 114 111
f 101 111 104
f 104 111 114
f 104 114 115
f 104 115 116
f 104 116 106
f 105 117 118
f 105 118 119
f 105 119 107
f 107 119 138
f 107 138 120
f 107 120 121
f 107 121 108
f 108 121 122
f 108 122 123
f 108 123 124
f 109 125 112
f 109 112 110
f 112 125 126
f 112 126 113
f 113 127 114
f 113 126 128
f 113 128 129
f 113 129 127
f 114 127 115
f 115 127 130
f 115 130 131
f 115 131 116
f 116 131 132
f 116 132 133
f 116 133 134
f 117 135 118
f 118 135 136
f 118 136 137
f 118 137 119
f 119 137 138
f 120 138 153
f 120 153 139
f 120 139 157
f 120 157 140
f 120 140 121
f 121 140 123
f 121 123 122
f 123 140 141
f 123 141 160
f 123 160 142
f 123 142 143
f 123 143 124
f 125 144 145
f 125 145 129
f 125 129 126
f 126 129 128
f 127 129 130
f 129 132 130
f 129 145 132
f 130 132 131
f 132 145 146
f 132 146 133
f 133 147 148
f 133 148 134
f 133 146 147
f 136 149 150
f 136 150 137
f 137 150 151
f 137 151 138
f 138 151 152
f 138 152 153
f 139 153 154
f 139 154 155
f 139 155 156
f 139 156 157
f 140 157 141
f 141 157 158
f 141 158 159
f 141 159 160
f 144 161 162
f 144 162 163
f 144 163 145
f 144 164 165
f 144 165 166
f 144 166 161
f 145 163 146
f 146 163 167
f 146 167 147
f 147 167 163
f 147 163 168
f 147 168 148
f 148 169 170
f 148 170 171
f 148 171 172
f 148 168 169
f 149 173 151
f 149 151 150
f 151 173 174
f 151 174 152
f 152 175 180
f 152 180 176
f 152 176 153
f 152 174 175
f 153 176 154
f 154 176 177
f 154 177 171
f 154 171 170
f 154 170 155
f 155 170 166
f 155 166 156
f 156 158 157
f 156 166 165
f 156 165 164
f 156 164 158
f 158 164 178
f 158 178 159
f 161 179 168
f 161 168 162
f 161 166 179
f 162 168 163
f 166 170 169
f 166 169 179
f 168 179 169
f 171 177 172
f 176 180 177

