# https://github.com/mikedh/trimesh
v 0.01228926 -0.02803464 0.01676963
v 0.01228926 -0.02589000 0.01428743
v 0.01249207 -0.02793264 0.01676963
v 0.01228926 -0.02069930 0.01676963
v 0.01228926 -0.02546272 0.01389658
v 0.01257018 -0.02536348 0.01392382
v 0.01299635 -0.02525046 0.01399952
v 0.01286480 -0.02772314 0.01676963
v 0.02324511 0.00012414 0.01676963
v 0.01712244 0.00012414 0.01573013
v 0.01228926 -0.01153633 0.01571968
v 0.01228926 -0.02482594 0.01366284
v 0.01257018 -0.02482594 0.01370306
v 0.01333483 -0.02479838 0.01387694
v 0.01397615 -0.02449515 0.01393491
v 0.01454073 -0.02428565 0.01411639
v 0.01356093 -0.02506026 0.01421363
v 0.01364864 -0.02726830 0.01676963
v 0.01354312 -0.02733722 0.01676963
v 0.02591179 0.00012414 0.01676963
v 0.01674012 0.00012414 0.01527087
v 0.01228926 -0.01127720 0.01541182
v 0.01228926 -0.02397691 0.01354216
v 0.01257018 -0.02397691 0.01354628
v 0.01341842 -0.02397691 0.01361723
v 0.01426118 -0.02399345 0.01380980
v 0.01489153 -0.02372054 0.01389912
v 0.01545611 -0.02348072 0.01406033
v 0.01516149 -0.02402101 0.01437104
v 0.01486550 -0.02453099 0.01468144
v 0.01426529 -0.02683000 0.01676963
v 0.01399396 -0.02703399 0.01676963
v 0.02595975 0.00012414 0.01661634
v 0.02591590 -0.00027282 0.01676963
v 0.01648661 0.00012414 0.01442394
v 0.01228926 -0.01119175 0.01527087
v 0.01228926 -0.02313063 0.01353424
v 0.01257018 -0.02313063 0.01353424
v 0.01341842 -0.02313063 0.01353741
v 0.01511216 -0.02228435 0.01356623
v 0.01426529 -0.02313063 0.01357827
v 0.01514916 -0.02317198 0.01377907
v 0.01577951 -0.02291561 0.01388771
v 0.01723618 -0.02186259 0.01399730
v 0.01575073 -0.02375638 0.01462538
v 0.01543145 -0.02432148 0.01495351
v 0.01491072 -0.02631451 0.01676963
v 0.02611871 -0.00025352 0.01611844
v 0.02611460 0.00012414 0.01611844
v 0.02590220 -0.00092613 0.01676963
v 0.01669490 0.00012414 0.01406096
v 0.01228926 -0.01135990 0.01379333
v 0.01228926 -0.01096295 0.01442394
v 0.01228926 -0.01296425 0.01353424
v 0.01426529 -0.02228435 0.01353424
v 0.01680727 -0.02058903 0.01355452
v 0.01596040 -0.02143531 0.01355863
v 0.01680727 -0.02143531 0.01369324
v 0.01680727 -0.02204728 0.01390577
v 0.01741158 -0.02204177 0.01442394
v 0.01579870 -0.02550683 0.01676963
v 0.01534786 -0.02593410 0.01676963
v 0.01744310 -0.02143531 0.01390197
v 0.01807346 -0.02100804 0.01400427
v 0.01529578 -0.02598096 0.01676963
v 0.01504638 -0.02619874 0.01676963
v 0.02628864 -0.00025352 0.01527087
v 0.02619134 0.00012414 0.01573931
v 0.02589809 -0.00109980 0.01676963
v 0.02609405 -0.00109980 0.01611844
v 0.01686893 0.00012414 0.01376704
v 0.01228926 -0.01210694 0.01361153
v 0.01765550 0.00012414 0.01353424
v 0.01765550 -0.01889372 0.01353424
v 0.01850237 -0.01804744 0.01353583
v 0.01934787 -0.01719840 0.01354280
v 0.01765550 -0.01974000 0.01356180
v 0.01850237 -0.01889372 0.01357320
v 0.01934787 -0.01804744 0.01359759
v 0.01856541 -0.01980064 0.01377274
v 0.01773635 -0.02066898 0.01375912
v 0.01788024 -0.02149045 0.01434159
v 0.01803098 -0.02180746 0.01493261
v 0.01718137 -0.02266200 0.01491487
v 0.01592340 -0.02538554 0.01676963
v 0.01832423 -0.02044293 0.01388201
v 0.01828312 -0.02124235 0.01456932
v 0.01911080 -0.01955806 0.01389468
v 0.01889018 -0.02012317 0.01403436
v 0.02626397 -0.00109980 0.01527087
v 0.02612831 -0.00109980 0.01442394
v 0.02614338 -0.00025352 0.01442394
v 0.02614064 0.00012414 0.01442394
v 0.02628452 0.00012414 0.01527087
v 0.02587205 -0.00181376 0.01676963
v 0.02606116 -0.00194884 0.01611844
v 0.01729922 0.00012414 0.01363845
v 0.02443320 0.00012414 0.01353424
v 0.02104298 -0.01381329 0.01353424
v 0.02019611 -0.01550309 0.01353615
v 0.02104298 -0.01465681 0.01354723
v 0.02019611 -0.01635212 0.01356592
v 0.02104298 -0.01550309 0.01361311
v 0.02019611 -0.01719840 0.01367519
v 0.01937391 -0.01891026 0.01379428
v 0.01908751 -0.02036023 0.01459909
v 0.01884907 -0.02092534 0.01501242
v 0.01675245 -0.02448964 0.01676963
v 0.01621802 -0.02507404 0.01676963
v 0.01617691 -0.02511814 0.01676963
v 0.01989601 -0.01863735 0.01391527
v 0.01967401 -0.01920246 0.01411734
v 0.01938076 -0.01978410 0.01435837
v 0.02622560 -0.00194884 0.01527087
v 0.02608308 -0.00194884 0.01442394
v 0.02576517 -0.00279511 0.01394346
v 0.02579257 -0.00194884 0.01392002
v 0.02581450 -0.00109980 0.01390292
v 0.02582135 -0.00025352 0.01389721
v 0.02599812 0.00012414 0.01418956
v 0.02586657 -0.00194884 0.01676963
v 0.02601731 -0.00279511 0.01611844
v 0.02490048 0.00012414 0.01360582
v 0.02443320 -0.00109980 0.01353424
v 0.02189122 -0.01211797 0.01353456
v 0.02273809 -0.00957362 0.01353424
v 0.02273809 -0.01042266 0.01353773
v 0.02189122 -0.01296425 0.01355071
v 0.02189122 -0.01381329 0.01360424
v 0.02196385 -0.01472297 0.01377433
v 0.02173774 -0.01550309 0.01384432
v 0.02107313 -0.01636039 0.01379713
v 0.02018515 -0.01798404 0.01385160
v 0.01986586 -0.01944504 0.01468239
v 0.01966990 -0.02003220 0.01527087
v 0.01921358 -0.02061936 0.01528513
v 0.01748147 -0.02365438 0.01676963
v 0.02156371 -0.01608198 0.01393016
v 0.02064284 -0.01766151 0.01398115
v 0.02046059 -0.01822662 0.01424625
v 0.02016322 -0.01884961 0.01446448
v 0.02617764 -0.00279511 0.01527087
v 0.02602964 -0.00279511 0.01442394
v 0.02573365 -0.00342087 0.01397165
v 0.02514166 -0.00533671 0.01381043
v 0.02521566 -0.00449043 0.01378984
v 0.02535406 -0.00367999 0.01380441
v 0.02528007 -0.00279511 0.01371414
v 0.02528007 -0.00194884 0.01368817
v 0.02528007 -0.00109980 0.01367012
v 0.02528007 -0.00025352 0.01366411
v 0.02558017 0.00012414 0.01379428
v 0.02581998 0.00012414 0.01389848
v 0.02582272 -0.00279511 0.01676963
v 0.02577065 -0.00364415 0.01670819
v 0.02594194 -0.00364415 0.01611844
v 0.02528007 0.00012414 0.01366569
v 0.02443320 -0.00194884 0.01353520
v 0.02358496 -0.00703202 0.01353424
v 0.02358496 -0.00788106 0.01354058
v 0.02273809 -0.01126893 0.01356053
v 0.02273809 -0.01211797 0.01362261
v 0.02257228 -0.01381329 0.01383736
v 0.02242428 -0.01448314 0.01391654
v 0.02229684 -0.01504825 0.01401947
v 0.02063736 -0.01849401 0.01481130
v 0.01975623 -0.02014246 0.01576941
v 0.01821049 -0.02271714 0.01676963
v 0.02137597 -0.01664708 0.01410816
v 0.02156371 -0.01693377 0.01467320
v 0.02076891 -0.01798404 0.01448697
v 0.02609542 -0.00364415 0.01527087
v 0.02579805 -0.00533671 0.01463615
v 0.02586246 -0.00449043 0.01451104
v 0.02589946 -0.00367999 0.01435077
v 0.02568706 -0.00398597 0.01401979
v 0.02501422 -0.00703202 0.01387378
v 0.02507589 -0.00618575 0.01383736
v 0.02443320 -0.00703202 0.01364066
v 0.02443320 -0.00618575 0.01360424
v 0.02443320 -0.00533671 0.01357763
v 0.02443320 -0.00449043 0.01355673
v 0.02443320 -0.00364415 0.01354375
v 0.02443320 -0.00279511 0.01353773
v 0.02579120 -0.00317001 0.01676963
v 0.02574598 -0.00364415 0.01676963
v 0.02571720 -0.00390052 0.01676963
v 0.02573228 -0.00430849 0.01661349
v 0.02569939 -0.00487360 0.01652195
v 0.02581450 -0.00455108 0.01619097
v 0.02576517 -0.00533671 0.01596989
v 0.02358496 -0.00872734 0.01356465
v 0.02358496 -0.00957362 0.01360931
v 0.02337941 -0.01211797 0.01385541
v 0.02358496 -0.01042266 0.01368532
v 0.02324785 -0.01273545 0.01393237
v 0.02262983 -0.01472297 0.01435077
v 0.02245306 -0.01533769 0.01458452
v 0.02218310 -0.01557476 0.01435077
v 0.02174459 -0.01636039 0.01440398
v 0.02311219 -0.01329780 0.01405590
v 0.02328897 -0.01365892 0.01462094
v 0.02069903 -0.01858774 0.01527087
v 0.01927250 -0.02125614 0.01676963
v 0.02230095 -0.01590280 0.01497220
v 0.02139379 -0.01750163 0.01527087
v 0.02104983 -0.01804744 0.01527087
v 0.02598031 -0.00449043 0.01527087
v 0.02574461 -0.00601484 0.01475175
v 0.02572680 -0.00587425 0.01579949
v 0.02556510 -0.00533671 0.01421268
v 0.02563909 -0.00449043 0.01408725
v 0.02539106 -0.00703202 0.01442394
v 0.02492104 -0.00788106 0.01394663
v 0.02423176 -0.00957362 0.01384210
v 0.02443320 -0.00788106 0.01372017
v 0.02565554 -0.00443254 0.01676963
v 0.02557332 -0.00513272 0.01676963
v 0.02554180 -0.00533671 0.01676963
v 0.02545547 -0.00589354 0.01676963
v 0.02567061 -0.00533671 0.01639368
v 0.02362333 -0.01124137 0.01381867
v 0.02411391 -0.01042266 0.01391463
v 0.02403854 -0.01093814 0.01397323
v 0.02393028 -0.01150325 0.01410626
v 0.02343696 -0.01299457 0.01437263
v 0.02409061 -0.01189469 0.01467099
v 0.02335200 -0.01380226 0.01527087
v 0.02315741 -0.01422402 0.01527087
v 0.01961646 -0.02073789 0.01676963
v 0.02294775 -0.01465681 0.01527087
v 0.02249554 -0.01557476 0.01526105
v 0.02233110 -0.01595793 0.01553693
v 0.02090869 -0.01864838 0.01676963
v 0.02118138 -0.01804744 0.01611844
v 0.02077988 -0.01872281 0.01611844
v 0.02585972 -0.00533671 0.01527087
v 0.02575146 -0.00603689 0.01527087
v 0.02567472 -0.00646141 0.01527087
v 0.02556373 -0.00703202 0.01527087
v 0.02537599 -0.00788106 0.01527087
v 0.02491967 -0.00936412 0.01470583
v 0.02519922 -0.00788106 0.01442394
v 0.02560210 -0.00616921 0.01609658
v 0.02542395 -0.00703202 0.01611844
v 0.02524855 -0.00788106 0.01611844
v 0.02485800 -0.00830834 0.01399857
v 0.02540203 -0.00618023 0.01676963
v 0.02418243 -0.01124137 0.01440272
v 0.02382203 -0.01215381 0.01440272
v 0.02411802 -0.01196084 0.01527087
v 0.02371240 -0.01296425 0.01527087
v 0.02465108 -0.01042266 0.01527087
v 0.02437427 -0.01126893 0.01527087
v 0.02333556 -0.01379123 0.01611844
v 0.02315330 -0.01421299 0.01611844
v 0.02233247 -0.01596344 0.01611844
v 0.02254898 -0.01550309 0.01611844
v 0.02056062 -0.01922727 0.01676963
v 0.02211047 -0.01638796 0.01611844
v 0.02177337 -0.01703852 0.01676963
v 0.02133075 -0.01786275 0.01676963
v 0.02081551 -0.01880551 0.01676963
v 0.02504848 -0.00872734 0.01611844
v 0.02515125 -0.00872734 0.01527087
v 0.02498407 -0.00864740 0.01442362
v 0.02494296 -0.00944406 0.01527087
v 0.02481826 -0.00986858 0.01527087
v 0.02523485 -0.00703202 0.01676963
v 0.02511151 -0.00765778 0.01676963
v 0.02492926 -0.00856746 0.01676963
v 0.02491282 -0.00872734 0.01671199
v 0.02485800 -0.00915737 0.01654793
v 0.02407965 -0.01187263 0.01611844
v 0.02366581 -0.01296425 0.01611844
v 0.02456749 -0.01042266 0.01611844
v 0.02429616 -0.01126893 0.01611844
v 0.02312315 -0.01413305 0.01676963
v 0.02293953 -0.01455481 0.01676963
v 0.02258050 -0.01535974 0.01676963
v 0.02227766 -0.01603511 0.01676963
v 0.02232288 -0.01594690 0.01669457
v 0.02214199 -0.01630526 0.01676963
v 0.02489637 -0.00928969 0.01611844
v 0.02477441 -0.00971421 0.01611844
v 0.02489363 -0.00872734 0.01676963
v 0.02482785 -0.00898370 0.01676963
v 0.02472508 -0.00938066 0.01676963
v 0.02422765 -0.01108700 0.01676963
v 0.02403991 -0.01177891 0.01666702
v 0.02336707 -0.01352109 0.01676963
v 0.02407143 -0.01159973 0.01676963
v 0.02397550 -0.01188642 0.01676963
f 1 2 3
f 1 3 8
f 1 8 19
f 1 19 18
f 1 18 32
f 1 32 31
f 1 31 47
f 1 47 66
f 1 66 65
f 1 65 62
f 1 62 61
f 1 61 85
f 1 85 110
f 1 110 109
f 1 109 108
f 1 108 137
f 1 137 168
f 1 168 204
f 1 204 230
f 1 230 259
f 1 259 263
f 1 263 234
f 1 234 262
f 1 262 261
f 1 261 283
f 1 283 281
f 1 281 280
f 1 280 279
f 1 279 278
f 1 278 291
f 1 291 293
f 1 293 292
f 1 292 289
f 1 289 288
f 1 288 287
f 1 287 286
f 1 286 271
f 1 271 270
f 1 270 269
f 1 269 248
f 1 248 220
f 1 220 219
f 1 219 218
f 1 218 217
f 1 217 187
f 1 187 186
f 1 186 185
f 1 185 154
f 1 154 121
f 1 121 95
f 1 95 69
f 1 69 50
f 1 50 34
f 1 34 20
f 1 20 9
f 1 9 4
f 1 4 11
f 1 11 22
f 1 22 36
f 1 36 53
f 1 53 52
f 1 52 72
f 1 72 54
f 1 54 37
f 1 37 23
f 1 23 12
f 1 12 5
f 1 5 2
f 2 5 6
f 2 6 7
f 2 7 3
f 3 7 8
f 4 9 10
f 4 10 11
f 5 12 13
f 5 13 6
f 6 13 14
f 6 14 7
f 7 14 15
f 7 15 16
f 7 16 17
f 7 17 18
f 7 18 19
f 7 19 8
f 9 20 33
f 9 33 49
f 9 49 68
f 9 68 94
f 9 94 93
f 9 93 120
f 9 120 153
f 9 153 152
f 9 152 157
f 9 157 123
f 9 123 98
f 9 98 73
f 9 73 97
f 9 97 71
f 9 71 51
f 9 51 35
f 9 35 21
f 9 21 10
f 10 21 11
f 11 21 22
f 12 23 24
f 12 24 25
f 12 25 13
f 13 25 26
f 13 26 14
f 14 26 15
f 15 26 27
f 15 27 16
f 16 27 28
f 16 28 29
f 16 29 30
f 16 30 31
f 16 31 32
f 16 32 17
f 17 32 18
f 20 34 33
f 21 35 22
f 22 35 36
f 23 37 38
f 23 38 39
f 23 39 24
f 24 39 40
f 24 40 41
f 24 41 25
f 25 41 42
f 25 42 26
f 26 42 27
f 27 42 43
f 27 43 44
f 27 44 28
f 28 45 29
f 28 44 45
f 29 46 30
f 29 45 46
f 30 46 31
f 31 46 47
f 33 48 49
f 33 34 48
f 34 50 48
f 35 51 52
f 35 52 53
f 35 53 36
f 37 54 73
f 37 73 98
f 37 98 124
f 37 124 159
f 37 159 126
f 37 126 99
f 37 99 74
f 37 74 55
f 37 55 38
f 38 55 39
f 39 55 56
f 39 56 57
f 39 57 40
f 40 57 58
f 40 58 41
f 41 58 42
f 42 58 59
f 42 59 43
f 43 59 44
f 44 60 61
f 44 61 62
f 44 62 45
f 44 59 63
f 44 63 64
f 44 64 60
f 45 62 65
f 45 65 46
f 46 65 66
f 46 66 47
f 48 67 68
f 48 68 49
f 48 50 69
f 48 69 70
f 48 70 90
f 48 90 67
f 51 71 52
f 52 71 72
f 54 72 73
f 55 74 56
f 56 58 57
f 56 74 75
f 56 75 76
f 56 76 77
f 56 77 58
f 58 63 59
f 58 77 78
f 58 78 79
f 58 79 80
f 58 80 81
f 58 81 63
f 60 64 82
f 60 82 83
f 60 83 84
f 60 84 85
f 60 85 61
f 63 81 86
f 63 86 64
f 64 87 82
f 64 86 88
f 64 88 89
f 64 89 87
f 67 90 91
f 67 91 92
f 67 92 93
f 67 93 94
f 67 94 68
f 69 95 70
f 70 95 96
f 70 96 90
f 71 97 72
f 72 97 73
f 74 99 75
f 75 99 100
f 75 100 76
f 76 100 101
f 76 101 102
f 76 102 78
f 76 78 77
f 78 102 79
f 79 102 103
f 79 103 104
f 79 104 105
f 79 105 80
f 80 105 88
f 80 88 86
f 80 86 81
f 82 87 83
f 83 87 106
f 83 106 107
f 83 107 108
f 83 108 109
f 83 109 110
f 83 110 85
f 83 85 84
f 87 89 106
f 88 105 111
f 88 111 89
f 89 111 112
f 89 112 113
f 89 113 106
f 90 96 114
f 90 114 91
f 91 114 115
f 91 115 116
f 91 116 117
f 91 117 118
f 91 118 92
f 92 118 119
f 92 119 120
f 92 120 93
f 95 121 96
f 96 121 154
f 96 154 122
f 96 122 114
f 98 123 124
f 99 125 101
f 99 101 100
f 99 126 125
f 101 125 127
f 101 127 128
f 101 128 129
f 101 129 103
f 101 103 102
f 103 130 131
f 103 131 104
f 103 129 130
f 104 132 133
f 104 133 105
f 104 131 132
f 105 133 111
f 106 113 134
f 106 134 107
f 107 134 135
f 107 135 136
f 107 136 137
f 107 137 108
f 111 133 138
f 111 138 139
f 111 139 112
f 112 134 113
f 112 139 140
f 112 140 141
f 112 141 134
f 114 122 142
f 114 142 115
f 115 142 143
f 115 143 116
f 116 143 144
f 116 144 145
f 116 145 146
f 116 146 147
f 116 147 148
f 116 148 117
f 117 148 118
f 118 148 149
f 118 149 150
f 118 150 119
f 119 150 151
f 119 151 152
f 119 152 153
f 119 153 120
f 122 154 155
f 122 155 156
f 122 156 142
f 123 157 151
f 123 151 124
f 124 151 158
f 124 158 159
f 125 126 127
f 126 159 127
f 127 159 160
f 127 160 161
f 127 161 128
f 128 161 129
f 129 161 162
f 129 162 130
f 130 162 163
f 130 163 164
f 130 164 131
f 131 164 165
f 131 165 138
f 131 138 133
f 131 133 132
f 134 141 166
f 134 166 135
f 135 166 167
f 135 167 168
f 135 168 137
f 135 137 136
f 138 165 139
f 139 165 169
f 139 169 140
f 140 166 141
f 140 169 170
f 140 170 171
f 140 171 166
f 142 156 172
f 142 172 143
f 143 172 173
f 143 173 174
f 143 174 175
f 143 175 144
f 144 175 176
f 144 176 177
f 144 177 178
f 144 178 145
f 145 148 146
f 145 178 179
f 145 179 148
f 146 148 147
f 148 179 180
f 148 180 181
f 148 181 149
f 149 181 182
f 149 182 150
f 150 182 183
f 150 183 151
f 151 157 152
f 151 183 184
f 151 184 158
f 154 185 155
f 155 185 186
f 155 186 187
f 155 187 188
f 155 188 156
f 156 188 189
f 156 189 190
f 156 190 191
f 156 191 172
f 158 184 159
f 159 184 183
f 159 183 160
f 160 192 161
f 160 183 182
f 160 182 181
f 160 181 192
f 161 192 193
f 161 193 162
f 162 194 163
f 162 193 195
f 162 195 194
f 163 194 164
f 164 194 196
f 164 196 165
f 165 197 198
f 165 198 199
f 165 199 200
f 165 200 169
f 165 196 201
f 165 201 202
f 165 202 197
f 166 203 204
f 166 204 167
f 166 171 170
f 166 170 205
f 166 205 206
f 166 206 207
f 166 207 203
f 167 204 168
f 169 200 170
f 170 200 199
f 170 199 198
f 170 198 205
f 172 208 209
f 172 209 173
f 172 191 210
f 172 210 208
f 173 211 212
f 173 212 176
f 173 176 174
f 173 209 213
f 173 213 211
f 174 176 175
f 176 212 214
f 176 214 177
f 177 214 215
f 177 215 216
f 177 216 179
f 177 179 178
f 179 216 195
f 179 195 193
f 179 193 192
f 179 192 180
f 180 192 181
f 187 217 188
f 188 217 218
f 188 218 189
f 189 218 219
f 189 219 220
f 189 220 221
f 189 221 190
f 190 221 191
f 191 221 210
f 194 195 222
f 194 222 223
f 194 223 224
f 194 224 196
f 195 216 215
f 195 215 222
f 196 224 225
f 196 225 201
f 197 202 198
f 198 202 205
f 201 226 202
f 201 225 226
f 202 226 227
f 202 227 228
f 202 228 229
f 202 229 205
f 203 230 204
f 203 207 230
f 205 229 231
f 205 231 232
f 205 232 233
f 205 233 234
f 205 234 235
f 205 235 206
f 206 235 236
f 206 236 207
f 207 236 230
f 208 237 209
f 208 210 237
f 209 238 239
f 209 239 240
f 209 240 241
f 209 241 242
f 209 242 243
f 209 243 213
f 209 237 238
f 210 244 245
f 210 245 246
f 210 246 240
f 210 240 239
f 210 239 238
f 210 238 237
f 210 221 244
f 211 213 212
f 212 213 214
f 213 243 247
f 213 247 214
f 214 247 224
f 214 224 223
f 214 223 215
f 215 223 222
f 220 248 221
f 221 248 244
f 224 247 249
f 224 249 225
f 225 249 227
f 225 227 250
f 225 250 226
f 226 250 227
f 227 251 252
f 227 252 228
f 227 249 242
f 227 242 253
f 227 253 254
f 227 254 251
f 228 255 256
f 228 256 229
f 228 252 255
f 229 257 233
f 229 233 231
f 229 256 258
f 229 258 257
f 230 236 259
f 231 233 232
f 233 257 260
f 233 260 261
f 233 261 262
f 233 262 234
f 234 263 235
f 235 263 236
f 236 263 259
f 240 246 241
f 241 246 264
f 241 264 265
f 241 265 242
f 242 249 247
f 242 247 266
f 242 266 243
f 242 265 267
f 242 267 268
f 242 268 253
f 243 266 247
f 244 248 269
f 244 269 270
f 244 270 245
f 245 270 271
f 245 271 272
f 245 272 246
f 246 272 273
f 246 273 264
f 251 274 275
f 251 275 255
f 251 255 252
f 251 254 274
f 253 268 276
f 253 276 277
f 253 277 254
f 254 277 274
f 255 278 256
f 255 275 278
f 256 278 279
f 256 279 280
f 256 280 281
f 256 281 282
f 256 282 258
f 257 282 281
f 257 281 283
f 257 283 261
f 257 261 260
f 257 258 282
f 264 273 284
f 264 284 265
f 265 284 285
f 265 285 267
f 267 285 276
f 267 276 268
f 271 286 272
f 272 286 273
f 273 276 285
f 273 285 284
f 273 286 287
f 273 287 288
f 273 288 289
f 273 289 276
f 274 277 290
f 274 290 291
f 274 291 275
f 275 291 278
f 276 289 290
f 276 290 277
f 289 292 290
f 290 293 291
f 290 292 293

