# https://github.com/mikedh/trimesh
v 0.00618654 -0.03865403 0.04826330
v 0.00618654 -0.03647457 0.04826330
v 0.00660870 -0.03863538 0.04826330
v 0.00618654 -0.03868227 0.04871604
v 0.00618654 -0.03677831 0.05392442
v 0.01298495 -0.03351871 0.05392442
v 0.01378646 -0.03351871 0.04826330
v 0.00663857 -0.03863378 0.04826330
v 0.00663857 -0.03863751 0.04831982
v 0.00663857 -0.03869026 0.04916711
v 0.00700597 -0.03880643 0.05132937
v 0.00618654 -0.03873396 0.04956332
v 0.00618654 -0.03896203 0.05392442
v 0.01532974 -0.03351871 0.05392442
v 0.01635826 -0.03351871 0.04826330
v 0.00748588 -0.03857410 0.04826330
v 0.00748588 -0.03873076 0.05086223
v 0.00715333 -0.03881922 0.05189460
v 0.00663857 -0.03893912 0.05392442
v 0.00663857 -0.03891673 0.05340408
v 0.00663857 -0.03887943 0.05255625
v 0.00618654 -0.03893912 0.05340408
v 0.00618654 -0.03889915 0.05255625
v 0.00618654 -0.03885492 0.05168347
v 0.00644143 -0.03881656 0.05114152
v 0.00618654 -0.03879844 0.05065443
v 0.00618654 -0.03878618 0.05044219
v 0.01519831 -0.03389386 0.05392442
v 0.01551892 -0.03367325 0.05288818
v 0.01544225 -0.03351871 0.05344287
v 0.01628359 -0.03351871 0.04885790
v 0.01631246 -0.03359225 0.04831982
v 0.01631545 -0.03359918 0.04826330
v 0.00833320 -0.03848777 0.04826330
v 0.00745601 -0.03877393 0.05165078
v 0.00833320 -0.03863538 0.05086223
v 0.00726684 -0.03883361 0.05255625
v 0.00739926 -0.03885066 0.05340408
v 0.00750580 -0.03885812 0.05392442
v 0.00618654 -0.03881975 0.05103900
v 0.01509676 -0.03414857 0.05392442
v 0.01556970 -0.03379741 0.05232351
v 0.01590125 -0.03351871 0.05116147
v 0.01574493 -0.03351871 0.05197883
v 0.01559658 -0.03351871 0.05274188
v 0.01553784 -0.03351871 0.05301895
v 0.01547113 -0.03351871 0.05331819
v 0.01493844 -0.03450986 0.05392442
v 0.01623679 -0.03351871 0.04921532
v 0.01589229 -0.03414857 0.04916711
v 0.01600082 -0.03414431 0.04826330
v 0.00918051 -0.03836628 0.04826330
v 0.00833320 -0.03867268 0.05170896
v 0.00918051 -0.03836947 0.04831982
v 0.00918051 -0.03850269 0.05086223
v 0.00765116 -0.03884000 0.05392442
v 0.01537554 -0.03410701 0.05258617
v 0.01562645 -0.03391677 0.05170896
v 0.01605459 -0.03351871 0.05030033
v 0.01480303 -0.03478163 0.05392442
v 0.01542333 -0.03434041 0.05170896
v 0.01570411 -0.03405265 0.05086223
v 0.01548507 -0.03447682 0.05086223
v 0.01551792 -0.03454343 0.05028980
v 0.01555078 -0.03459352 0.04972513
v 0.01567026 -0.03466546 0.04826330
v 0.01002782 -0.03820641 0.04826330
v 0.00830133 -0.03874995 0.05392442
v 0.00790008 -0.03880750 0.05392442
v 0.00784532 -0.03881496 0.05392442
v 0.00918051 -0.03853573 0.05170896
v 0.00833320 -0.03870039 0.05255625
v 0.01002782 -0.03820908 0.04831982
v 0.01002782 -0.03832471 0.05086223
v 0.01456109 -0.03520526 0.05392442
v 0.01484884 -0.03485357 0.05340408
v 0.01459693 -0.03527720 0.05340408
v 0.01495935 -0.03507950 0.05178654
v 0.01468654 -0.03541735 0.05212069
v 0.01472438 -0.03546317 0.05155546
v 0.01563740 -0.03470596 0.04831982
v 0.01564039 -0.03471075 0.04826330
v 0.01072279 -0.03804176 0.04826330
v 0.00833320 -0.03872810 0.05340408
v 0.00918051 -0.03855705 0.05255625
v 0.00918051 -0.03859062 0.05392442
v 0.01002782 -0.03834976 0.05170896
v 0.01076959 -0.03806041 0.04916711
v 0.01081240 -0.03807799 0.05001495
v 0.01094383 -0.03807000 0.05090712
v 0.01430022 -0.03556921 0.05392442
v 0.01465568 -0.03537312 0.05255625
v 0.01413693 -0.03577490 0.05392442
v 0.01377551 -0.03619907 0.05392442
v 0.01383823 -0.03626462 0.05296520
v 0.01440775 -0.03578450 0.05178654
v 0.01391490 -0.03633655 0.05170896
v 0.01437390 -0.03592305 0.05086223
v 0.01475524 -0.03549888 0.05086223
v 0.01530087 -0.03513439 0.04826330
v 0.01075067 -0.03803376 0.04826330
v 0.01002782 -0.03837747 0.05392442
v 0.01087513 -0.03810730 0.05170896
v 0.01114595 -0.03791653 0.04826330
v 0.01130526 -0.03796396 0.05121910
v 0.01351564 -0.03644899 0.05392442
v 0.01387308 -0.03629766 0.05239998
v 0.01394975 -0.03636640 0.05086223
v 0.01487771 -0.03561718 0.04826330
v 0.01335235 -0.03659766 0.05392442
v 0.01286646 -0.03702130 0.05392442
v 0.01333841 -0.03682360 0.05169178
v 0.01490559 -0.03558627 0.04826330
v 0.01086517 -0.03810836 0.05340408
v 0.01085920 -0.03810943 0.05392442
v 0.01130426 -0.03796396 0.05170896
v 0.01172244 -0.03770658 0.04826330
v 0.01256976 -0.03734848 0.04826330
v 0.01164080 -0.03780622 0.05090712
v 0.01172842 -0.03776786 0.05170896
v 0.01402343 -0.03641862 0.04826330
v 0.01405131 -0.03639517 0.04826330
v 0.01444758 -0.03604081 0.04826330
v 0.01300287 -0.03712095 0.05139809
v 0.01260660 -0.03719555 0.05392442
v 0.01294014 -0.03707832 0.05255625
v 0.01297400 -0.03710123 0.05196331
v 0.01102349 -0.03805135 0.05392442
v 0.01129431 -0.03795969 0.05278511
v 0.01256976 -0.03734902 0.04831982
v 0.01302677 -0.03713480 0.04826330
v 0.01256976 -0.03736287 0.05086223
v 0.01128236 -0.03795490 0.05392442
v 0.01301084 -0.03712627 0.05086223
v 0.01344992 -0.03684225 0.04826330
v 0.01244231 -0.03729680 0.05392442
v 0.01172244 -0.03771457 0.05392442
v 0.01264244 -0.03730212 0.05169178
v 0.01305464 -0.03711668 0.04826330
v 0.01301581 -0.03712947 0.05001495
f 1 2 7
f 1 7 15
f 1 15 33
f 1 33 51
f 1 51 66
f 1 66 82
f 1 82 100
f 1 100 113
f 1 113 109
f 1 109 123
f 1 123 122
f 1 122 121
f 1 121 135
f 1 135 139
f 1 139 131
f 1 131 118
f 1 118 117
f 1 117 104
f 1 104 101
f 1 101 83
f 1 83 67
f 1 67 52
f 1 52 34
f 1 34 16
f 1 16 8
f 1 8 3
f 1 3 4
f 1 4 12
f 1 12 27
f 1 27 26
f 1 26 40
f 1 40 24
f 1 24 23
f 1 23 22
f 1 22 13
f 1 13 5
f 1 5 2
f 2 5 6
f 2 6 7
f 3 8 9
f 3 9 10
f 3 10 4
f 4 10 11
f 4 11 12
f 5 13 19
f 5 19 39
f 5 39 56
f 5 56 70
f 5 70 69
f 5 69 68
f 5 68 86
f 5 86 102
f 5 102 115
f 5 115 128
f 5 128 133
f 5 133 137
f 5 137 136
f 5 136 125
f 5 125 111
f 5 111 110
f 5 110 106
f 5 106 94
f 5 94 93
f 5 93 91
f 5 91 75
f 5 75 60
f 5 60 48
f 5 48 41
f 5 41 28
f 5 28 14
f 5 14 6
f 6 14 30
f 6 30 47
f 6 47 46
f 6 46 45
f 6 45 44
f 6 44 43
f 6 43 59
f 6 59 49
f 6 49 31
f 6 31 15
f 6 15 7
f 8 16 9
f 9 16 11
f 9 11 10
f 11 16 17
f 11 17 18
f 11 18 19
f 11 19 20
f 11 20 21
f 11 21 22
f 11 22 23
f 11 23 24
f 11 24 25
f 11 25 26
f 11 26 27
f 11 27 12
f 13 22 21
f 13 21 20
f 13 20 19
f 14 28 29
f 14 29 30
f 15 31 32
f 15 32 33
f 16 34 17
f 17 35 18
f 17 34 36
f 17 36 35
f 18 37 19
f 18 35 37
f 19 37 38
f 19 38 39
f 24 40 25
f 25 40 26
f 28 41 29
f 29 42 43
f 29 43 44
f 29 44 45
f 29 45 46
f 29 46 47
f 29 47 30
f 29 41 48
f 29 48 42
f 31 49 50
f 31 50 32
f 32 50 33
f 33 50 51
f 34 52 36
f 35 36 53
f 35 53 37
f 36 52 54
f 36 54 55
f 36 55 53
f 37 53 39
f 37 39 38
f 39 53 56
f 42 57 58
f 42 58 43
f 42 48 57
f 43 58 59
f 48 60 61
f 48 61 57
f 49 59 62
f 49 62 63
f 49 63 50
f 50 63 64
f 50 64 51
f 51 64 65
f 51 65 66
f 52 67 54
f 53 68 69
f 53 69 70
f 53 70 56
f 53 55 71
f 53 71 72
f 53 72 68
f 54 67 55
f 55 67 73
f 55 73 74
f 55 74 71
f 57 61 58
f 58 62 59
f 58 61 62
f 60 75 76
f 60 76 61
f 61 63 62
f 61 76 63
f 63 76 75
f 63 75 77
f 63 77 78
f 63 78 64
f 64 78 79
f 64 79 80
f 64 80 65
f 65 81 66
f 65 80 81
f 66 81 82
f 67 83 73
f 68 72 84
f 68 84 71
f 68 71 85
f 68 85 86
f 71 84 72
f 71 74 87
f 71 87 85
f 73 83 74
f 74 83 88
f 74 88 89
f 74 89 90
f 74 90 87
f 75 91 77
f 77 91 92
f 77 92 78
f 78 92 79
f 79 92 91
f 79 91 93
f 79 93 80
f 80 93 94
f 80 94 95
f 80 95 96
f 80 96 97
f 80 97 98
f 80 98 99
f 80 99 100
f 80 100 82
f 80 82 81
f 83 101 88
f 85 87 86
f 86 87 102
f 87 90 103
f 87 103 102
f 88 101 89
f 89 101 104
f 89 104 90
f 90 104 105
f 90 105 103
f 94 106 95
f 95 107 96
f 95 106 107
f 96 107 97
f 97 108 109
f 97 109 98
f 97 107 110
f 97 110 111
f 97 111 112
f 97 112 108
f 98 109 113
f 98 113 99
f 99 113 100
f 102 103 114
f 102 114 115
f 103 105 116
f 103 116 114
f 104 117 105
f 105 117 118
f 105 118 119
f 105 119 120
f 105 120 116
f 106 110 107
f 108 121 122
f 108 122 123
f 108 123 109
f 108 112 124
f 108 124 121
f 111 125 126
f 111 126 112
f 112 126 127
f 112 127 124
f 114 116 115
f 115 116 128
f 116 129 128
f 116 120 129
f 118 130 119
f 118 131 130
f 119 130 131
f 119 131 120
f 120 131 132
f 120 132 133
f 120 133 129
f 121 124 134
f 121 134 135
f 124 127 136
f 124 136 137
f 124 137 133
f 124 133 138
f 124 138 132
f 124 132 134
f 125 136 127
f 125 127 126
f 128 129 133
f 131 139 140
f 131 140 132
f 132 140 134
f 132 138 133
f 134 140 139
f 134 139 135

