# https://github.com/mikedh/trimesh
v 0.00070547 -0.00222567 0.03901486
v -0.00014199 -0.00222567 0.03902531
v 0.00155293 -0.00222567 0.03901486
v -0.00607221 -0.00472718 0.03933431
v -0.00607221 -0.00222567 0.03933431
v 0.00183206 -0.00222567 0.03901548
v 0.00240039 -0.00472718 0.03933431
v -0.00644808 -0.00472718 0.03936565
v -0.00642289 -0.00222567 0.03936380
v 0.00240039 -0.00222567 0.03902899
v 0.00253845 -0.00472718 0.03934660
v -0.00659520 -0.00472718 0.03937855
v -0.00659520 -0.00222567 0.03937855
v 0.00257170 -0.00222567 0.03905480
v 0.00289013 -0.00472718 0.03937855
v -0.00692472 -0.00472718 0.03984605
v -0.00692472 -0.00222567 0.03984605
v 0.00297578 -0.00222567 0.03923295
v 0.00295361 -0.00472718 0.03951001
v -0.00699223 -0.00472718 0.04045547
v -0.00701843 -0.00222567 0.04069321
v 0.00305035 -0.00222567 0.03939759
v 0.00311585 -0.00472718 0.03984605
v -0.00701843 -0.00472718 0.04069321
v -0.00679674 -0.00222567 0.04104461
v 0.00320150 -0.00222567 0.03984605
v 0.00316119 -0.00472718 0.04008380
v -0.00668791 -0.00472718 0.04121662
v -0.00668791 -0.00222567 0.04121662
v 0.00324382 -0.00222567 0.04012434
v 0.00327607 -0.00472718 0.04069321
v -0.00352983 -0.00449699 0.04408246
v -0.00408708 -0.00420998 0.04464764
v -0.00415459 -0.00364160 0.04472505
v -0.00417475 -0.00222567 0.04487986
v -0.00092295 -0.00472718 0.04473672
v 0.00327607 -0.00222567 0.04069321
v 0.00327607 -0.00472718 0.04529023
v -0.00352983 -0.00428908 0.04472566
v -0.00352983 -0.00364160 0.04496034
v -0.00352983 -0.00222567 0.04518641
v -0.00356107 -0.00222567 0.04517351
v 0.00054525 -0.00472718 0.04529023
v 0.00327607 -0.00222567 0.04529023
v -0.00269244 -0.00222567 0.04521160
v 0.00003133 -0.00222567 0.04529023
f 1 2 5
f 1 5 9
f 1 9 13
f 1 13 17
f 1 17 21
f 1 21 25
f 1 25 29
f 1 29 35
f 1 35 42
f 1 42 41
f 1 41 45
f 1 45 46
f 1 46 44
f 1 44 37
f 1 37 30
f 1 30 26
f 1 26 22
f 1 22 18
f 1 18 14
f 1 14 10
f 1 10 6
f 1 6 3
f 1 3 7
f 1 7 4
f 1 4 2
f 2 4 5
f 3 6 7
f 4 8 5
f 4 7 11
f 4 11 15
f 4 15 19
f 4 19 23
f 4 23 27
f 4 27 31
f 4 31 38
f 4 38 43
f 4 43 36
f 4 36 28
f 4 28 24
f 4 24 20
f 4 20 16
f 4 16 12
f 4 12 8
f 5 8 9
f 6 10 7
f 7 10 11
f 8 12 13
f 8 13 9
f 10 14 15
f 10 15 11
f 12 16 17
f 12 17 13
f 14 18 15
f 15 18 19
f 16 20 17
f 17 20 21
f 18 22 23
f 18 23 19
f 20 24 21
f 21 24 25
f 22 26 23
f 23 26 27
f 24 28 25
f 25 28 29
f 26 30 31
f 26 31 27
f 28 32 33
f 28 33 34
f 28 34 35
f 28 35 29
f 28 36 32
f 30 37 31
f 31 37 44
f 31 44 38
f 32 39 33
f 32 36 39
f 33 39 40
f 33 40 34
f 34 40 41
f 34 41 42
f 34 42 35
f 36 43 39
f 38 44 46
f 38 46 43
f 39 43 40
f 40 43 41
f 41 43 45
f 43 46 45

