# https://github.com/mikedh/trimesh
v 0.00918081 0.02743631 0.06558132
v 0.00858026 0.02783898 0.06558132
v 0.00991288 0.02780237 0.06558132
v 0.01426413 0.03033914 0.07374145
v 0.01433423 0.03041625 0.07449161
v 0.00918081 0.02823387 0.07449161
v 0.00910276 0.02827748 0.07449161
v 0.00849571 0.02861707 0.07449161
v 0.00850366 0.02796905 0.06558132
v 0.01426413 0.03019505 0.06558132
v 0.01426413 0.03019894 0.06611516
v 0.01426413 0.03020596 0.06696301
v 0.01426413 0.03022309 0.06865784
v 0.01426413 0.03023400 0.06950482
v 0.01426413 0.03024646 0.07035179
v 0.01426413 0.03026126 0.07119877
v 0.01426413 0.03028228 0.07204662
v 0.01426413 0.03030877 0.07289360
v 0.01473893 0.03058059 0.07204662
v 0.01453007 0.03055177 0.07449161
v 0.01472375 0.03060707 0.07289360
v 0.01470785 0.03063745 0.07374145
v 0.00823410 0.02940684 0.07449161
v 0.00748974 0.03161103 0.06558132
v 0.00748974 0.03206823 0.07449161
v 0.01446142 0.03030487 0.06558132
v 0.01479963 0.03049336 0.06558132
v 0.01479674 0.03049725 0.06611516
v 0.01479096 0.03050426 0.06696301
v 0.01478373 0.03051283 0.06780999
v 0.01477723 0.03052217 0.06865784
v 0.01476928 0.03053230 0.06950482
v 0.01476061 0.03054476 0.07035179
v 0.01475121 0.03055956 0.07119877
v 0.01481842 0.03110165 0.06950482
v 0.01480252 0.03110165 0.07035179
v 0.01469557 0.03066159 0.07436949
v 0.01467822 0.03091317 0.07449161
v 0.00748974 0.03412677 0.06558132
v 0.00748974 0.03343592 0.07449161
v 0.01484661 0.03087812 0.06558132
v 0.01487262 0.03110165 0.06558132
v 0.01484372 0.03110165 0.06780999
v 0.01483215 0.03110165 0.06865784
v 0.01472953 0.03177771 0.07035179
v 0.01472014 0.03172475 0.07119877
v 0.01478373 0.03110165 0.07119877
v 0.01469557 0.03076907 0.07436949
v 0.01468328 0.03146772 0.07320500
v 0.01466088 0.03111256 0.07449161
v 0.00960140 0.03539321 0.06558132
v 0.00748974 0.03467120 0.07448812
v 0.00758224 0.03467120 0.07449161
v 0.01481409 0.03163518 0.06558132
v 0.01477868 0.03194828 0.06558132
v 0.01466016 0.03220141 0.07035179
v 0.01465148 0.03214845 0.07119877
v 0.01473170 0.03227540 0.06558132
v 0.01470569 0.03245221 0.06558132
v 0.01470713 0.03163907 0.07204662
v 0.01475772 0.03110165 0.07204662
v 0.01472086 0.03115228 0.07291105
v 0.01455320 0.03194828 0.07449161
v 0.01467172 0.03133921 0.07374145
v 0.01469485 0.03156741 0.07264064
v 0.01324443 0.03539321 0.06558132
v 0.01034865 0.03539321 0.07449161
v 0.01453513 0.03279569 0.07035179
v 0.01451707 0.03279569 0.07119877
v 0.01448888 0.03279569 0.07204662
v 0.01463631 0.03206277 0.07204662
v 0.01467027 0.03260954 0.06558132
v 0.01438915 0.03279569 0.07449161
v 0.01338318 0.03539321 0.06614307
v 0.01381173 0.03488071 0.06558132
v 0.01327334 0.03539321 0.07449161
v 0.01460957 0.03287591 0.06558132
v 0.01439421 0.03364309 0.06611516
v 0.01427714 0.03364309 0.07119877
v 0.01437542 0.03364309 0.06696301
v 0.01430026 0.03364309 0.07035179
v 0.01424751 0.03364309 0.07204662
v 0.01445564 0.03279569 0.07289360
v 0.01436097 0.03289227 0.07449161
v 0.01421426 0.03364309 0.07289360
v 0.01417596 0.03364309 0.07374145
v 0.01383052 0.03490096 0.06582556
v 0.01349520 0.03539321 0.06696301
v 0.01392808 0.03469534 0.06558132
v 0.01330947 0.03533791 0.07449161
v 0.01327839 0.03539321 0.07440612
v 0.01439855 0.03364309 0.06558132
v 0.01405238 0.03449050 0.06696301
v 0.01400107 0.03443053 0.07035179
v 0.01398807 0.03439859 0.07119877
v 0.01413838 0.03364309 0.07449161
v 0.01397072 0.03435420 0.07204662
v 0.01395338 0.03430980 0.07289360
v 0.01393242 0.03426385 0.07374145
v 0.01411092 0.03371397 0.07449161
v 0.01384931 0.03492744 0.06639079
v 0.01352483 0.03539321 0.06781871
v 0.01403938 0.03448271 0.06558132
v 0.01371272 0.03464082 0.07449161
v 0.01373440 0.03468755 0.07374145
v 0.01335355 0.03533791 0.07374145
v 0.01331742 0.03539321 0.07374145
v 0.01401697 0.03456683 0.06611079
v 0.01384931 0.03492822 0.06696301
v 0.01384353 0.03491966 0.06754569
v 0.01383847 0.03490953 0.06811005
v 0.01383269 0.03489785 0.06865784
v 0.01382257 0.03487682 0.06950482
v 0.01381245 0.03485423 0.07035179
v 0.01379728 0.03482230 0.07119877
v 0.01377704 0.03477790 0.07204662
v 0.01375609 0.03473351 0.07289360
v 0.01391074 0.03421712 0.07449161
v 0.01362022 0.03525691 0.06782045
v 0.01351399 0.03539321 0.06865784
v 0.01339547 0.03533791 0.07289360
v 0.01335933 0.03539321 0.07289360
v 0.01355157 0.03533791 0.06865784
v 0.01349953 0.03533791 0.07035179
v 0.01346990 0.03533791 0.07119877
v 0.01343305 0.03533791 0.07204662
v 0.01346123 0.03539321 0.07035179
v 0.01339547 0.03539321 0.07204662
v 0.01343449 0.03539321 0.07111678
v 0.01343160 0.03539321 0.07119877
f 1 2 9
f 1 9 24
f 1 24 39
f 1 39 51
f 1 51 66
f 1 66 75
f 1 75 89
f 1 89 103
f 1 103 92
f 1 92 77
f 1 77 72
f 1 72 59
f 1 59 58
f 1 58 55
f 1 55 54
f 1 54 42
f 1 42 41
f 1 41 27
f 1 27 26
f 1 26 10
f 1 10 3
f 1 3 4
f 1 4 5
f 1 5 6
f 1 6 7
f 1 7 8
f 1 8 2
f 2 8 9
f 3 10 11
f 3 11 12
f 3 12 13
f 3 13 14
f 3 14 15
f 3 15 16
f 3 16 17
f 3 17 18
f 3 18 4
f 4 18 19
f 4 19 5
f 5 20 38
f 5 38 50
f 5 50 63
f 5 63 73
f 5 73 84
f 5 84 96
f 5 96 100
f 5 100 118
f 5 118 104
f 5 104 90
f 5 90 76
f 5 76 67
f 5 67 53
f 5 53 40
f 5 40 25
f 5 25 23
f 5 23 8
f 5 8 7
f 5 7 6
f 5 19 21
f 5 21 22
f 5 22 20
f 8 23 9
f 9 23 25
f 9 25 24
f 10 26 11
f 11 26 27
f 11 27 12
f 12 27 13
f 13 27 28
f 13 28 29
f 13 29 14
f 14 29 15
f 15 29 30
f 15 30 31
f 15 31 16
f 16 31 32
f 16 32 33
f 16 33 34
f 16 34 17
f 17 34 18
f 18 34 19
f 19 34 35
f 19 35 36
f 19 36 21
f 20 22 37
f 20 37 38
f 21 36 22
f 22 36 37
f 24 25 40
f 24 40 52
f 24 52 39
f 27 41 28
f 28 41 29
f 29 31 30
f 29 41 42
f 29 42 31
f 31 42 32
f 32 42 33
f 33 42 34
f 34 42 43
f 34 43 44
f 34 44 35
f 35 44 45
f 35 45 46
f 35 46 36
f 36 46 47
f 36 47 37
f 37 47 48
f 37 48 38
f 38 48 49
f 38 49 50
f 39 52 51
f 40 53 52
f 42 54 43
f 43 54 44
f 44 54 55
f 44 55 45
f 45 56 57
f 45 57 46
f 45 55 58
f 45 58 59
f 45 59 56
f 46 57 60
f 46 60 47
f 47 60 61
f 47 61 48
f 48 62 49
f 48 61 62
f 49 63 64
f 49 64 50
f 49 62 61
f 49 61 65
f 49 65 63
f 50 64 63
f 51 52 67
f 51 67 76
f 51 76 91
f 51 91 107
f 51 107 122
f 51 122 128
f 51 128 130
f 51 130 129
f 51 129 127
f 51 127 120
f 51 120 102
f 51 102 88
f 51 88 74
f 51 74 66
f 52 53 67
f 56 68 69
f 56 69 57
f 56 59 68
f 57 69 70
f 57 70 71
f 57 71 60
f 59 72 68
f 60 71 65
f 60 65 61
f 63 65 71
f 63 71 73
f 66 74 75
f 68 72 77
f 68 77 78
f 68 78 69
f 69 79 70
f 69 78 80
f 69 80 81
f 69 81 79
f 70 79 82
f 70 82 85
f 70 85 83
f 70 83 71
f 71 83 73
f 73 83 85
f 73 85 86
f 73 86 84
f 74 87 75
f 74 88 87
f 75 87 89
f 76 90 91
f 77 92 78
f 78 92 93
f 78 93 94
f 78 94 80
f 79 81 94
f 79 94 95
f 79 95 82
f 80 94 81
f 82 95 85
f 84 86 96
f 85 95 97
f 85 97 98
f 85 98 86
f 86 98 99
f 86 99 100
f 86 100 96
f 87 101 89
f 87 88 101
f 88 102 101
f 89 101 103
f 90 104 105
f 90 105 106
f 90 106 91
f 91 106 107
f 92 103 108
f 92 108 93
f 93 108 109
f 93 109 110
f 93 110 111
f 93 111 112
f 93 112 113
f 93 113 94
f 94 113 114
f 94 114 95
f 95 114 115
f 95 115 97
f 97 115 98
f 98 115 116
f 98 116 117
f 98 117 99
f 99 117 105
f 99 105 104
f 99 104 118
f 99 118 100
f 101 108 103
f 101 102 119
f 101 119 109
f 101 109 108
f 102 120 119
f 105 117 106
f 106 117 116
f 106 116 115
f 106 115 121
f 106 121 122
f 106 122 107
f 109 119 110
f 110 119 123
f 110 123 111
f 111 123 112
f 112 123 113
f 113 123 114
f 114 123 124
f 114 124 125
f 114 125 115
f 115 125 126
f 115 126 121
f 119 120 123
f 120 127 124
f 120 124 123
f 121 126 122
f 122 126 125
f 122 125 128
f 124 127 129
f 124 129 125
f 125 129 130
f 125 130 128

