# https://github.com/mikedh/trimesh
v 0.00635288 -0.03482040 0.08108075
v 0.00624902 -0.03482040 0.08109051
v 0.00494315 -0.03463151 0.07545399
v 0.00635288 -0.03463493 0.07545204
v 0.00635288 -0.03482040 0.09286709
v 0.00494315 -0.03482040 0.08126421
v 0.00409599 -0.03460264 0.07564721
v 0.00494315 -0.03434831 0.07292849
v 0.00468533 -0.03482040 0.08129934
v 0.00406355 -0.03482040 0.08138522
v 0.00360967 -0.03482040 0.08165846
v 0.00360483 -0.03482040 0.08166236
v 0.00635288 -0.03434831 0.07292849
v 0.00635288 -0.03435488 0.09223669
v 0.00630451 -0.03482040 0.09286124
v 0.00367085 -0.03457350 0.07584824
v 0.00413014 -0.03422629 0.07292849
v 0.00360341 -0.03482040 0.08166626
v 0.00635288 -0.03190129 0.07292849
v 0.00635288 -0.03403311 0.09163166
v 0.00392269 -0.03482040 0.09255677
v 0.00356983 -0.03390909 0.07292849
v 0.00359089 -0.03392338 0.07292849
v 0.00409599 -0.03422086 0.07292849
v 0.00352800 -0.03482040 0.08216980
v 0.00347422 -0.03482040 0.08306173
v 0.00494315 -0.03190301 0.07292849
v 0.00635288 -0.03261457 0.08208783
v 0.00635288 -0.03398853 0.09154383
v 0.00350524 -0.03482040 0.09221132
v 0.00635288 -0.03374420 0.09068899
v 0.00346711 -0.03330098 0.07292849
v 0.00344605 -0.03482040 0.09144039
v 0.00489818 -0.03190501 0.07292849
v 0.00409599 -0.03194644 0.07292849
v 0.00406298 -0.03194959 0.07292849
v 0.00367057 -0.03202817 0.07333639
v 0.00635288 -0.03298864 0.08572581
v 0.00364980 -0.03455035 0.09122961
v 0.00365634 -0.03286232 0.08110612
v 0.00379322 -0.03291491 0.08167017
v 0.00346711 -0.03330098 0.07713246
v 0.00354934 -0.03245168 0.07292849
v 0.00363130 -0.03283632 0.08052257
v 0.00360114 -0.03280060 0.07967358
v 0.00358093 -0.03276917 0.07882654
v 0.00347849 -0.03330098 0.07882654
v 0.00346881 -0.03330098 0.07797950
v 0.00365150 -0.03200960 0.07292849
v 0.00357154 -0.03274402 0.07797950
f 1 2 3
f 1 3 4
f 1 4 13
f 1 13 19
f 1 19 28
f 1 28 38
f 1 38 31
f 1 31 29
f 1 29 20
f 1 20 14
f 1 14 5
f 1 5 15
f 1 15 21
f 1 21 30
f 1 30 33
f 1 33 26
f 1 26 25
f 1 25 18
f 1 18 12
f 1 12 11
f 1 11 10
f 1 10 9
f 1 9 6
f 1 6 2
f 2 6 3
f 3 7 8
f 3 8 4
f 3 6 9
f 3 9 10
f 3 10 11
f 3 11 12
f 3 12 7
f 4 8 13
f 5 14 15
f 7 16 8
f 7 12 16
f 8 17 24
f 8 24 23
f 8 23 22
f 8 22 32
f 8 32 43
f 8 43 49
f 8 49 36
f 8 36 35
f 8 35 34
f 8 34 27
f 8 27 19
f 8 19 13
f 8 16 17
f 12 18 16
f 14 20 21
f 14 21 15
f 16 22 23
f 16 23 24
f 16 24 17
f 16 18 25
f 16 25 26
f 16 26 22
f 19 27 28
f 20 29 21
f 21 29 31
f 21 31 30
f 22 26 32
f 26 33 32
f 27 34 28
f 28 34 35
f 28 35 36
f 28 36 37
f 28 37 38
f 30 31 39
f 30 39 40
f 30 40 33
f 31 38 41
f 31 41 39
f 32 42 43
f 32 33 42
f 33 40 44
f 33 44 45
f 33 45 46
f 33 46 47
f 33 47 48
f 33 48 42
f 36 49 37
f 37 49 40
f 37 40 38
f 38 40 41
f 39 41 40
f 40 49 44
f 42 48 43
f 43 48 47
f 43 47 50
f 43 50 49
f 44 49 45
f 45 49 46
f 46 49 50
f 46 50 47

