# https://github.com/mikedh/trimesh
v 0.00327607 -0.00472718 0.04529023
v 0.00054627 -0.00472718 0.04529023
v 0.00327607 -0.00920234 0.04529023
v 0.00327607 -0.00472718 0.04069366
v 0.00059580 -0.00920234 0.04529023
v -0.00092190 -0.00472718 0.04473687
v 0.00327607 -0.00920234 0.04069366
v 0.00316112 -0.00472718 0.04008374
v -0.00088732 -0.00920234 0.04459693
v -0.00119946 -0.00472718 0.04408263
v -0.00149758 -0.00920234 0.04419517
v -0.00121068 -0.00920234 0.04439051
v 0.00311626 -0.00920234 0.03984583
v 0.00311626 -0.00472718 0.03984583
v -0.00149758 -0.00472718 0.04175315
v -0.00149758 -0.00472762 0.04176190
v -0.00149758 -0.00920234 0.03933446
v 0.00289057 -0.00920234 0.03937819
v 0.00289057 -0.00472718 0.03937819
v -0.00149758 -0.00472718 0.03933446
v 0.00033506 -0.00920234 0.03933387
v 0.00240087 -0.00920234 0.03933387
v 0.00253825 -0.00472718 0.03934670
v 0.00240087 -0.00472718 0.03933446
f 1 2 5
f 1 5 3
f 1 3 7
f 1 7 4
f 1 4 8
f 1 8 14
f 1 14 19
f 1 19 23
f 1 23 24
f 1 24 20
f 1 20 15
f 1 15 10
f 1 10 6
f 1 6 2
f 2 6 5
f 3 5 9
f 3 9 12
f 3 12 11
f 3 11 17
f 3 17 21
f 3 21 22
f 3 22 18
f 3 18 13
f 3 13 7
f 4 7 8
f 5 6 9
f 6 10 11
f 6 11 12
f 6 12 9
f 7 13 8
f 8 13 14
f 10 15 16
f 10 16 11
f 11 16 15
f 11 15 20
f 11 20 17
f 13 18 19
f 13 19 14
f 17 20 21
f 18 22 19
f 19 22 23
f 20 24 22
f 20 22 21
f 22 24 23

