# https://github.com/mikedh/trimesh
v 0.00918039 -0.01309700 0.07942241
v 0.00918039 -0.01296303 0.07940440
v 0.00930412 -0.01309700 0.07946773
v 0.00849820 -0.01309700 0.07976884
v 0.00918039 -0.01211579 0.07940440
v 0.00998257 -0.01296303 0.07974152
v 0.00997958 -0.01309700 0.07975084
v 0.00849558 -0.01296303 0.07976077
v 0.00823691 -0.01309700 0.08052131
v 0.00849558 -0.01211579 0.07976077
v 0.00849558 -0.01126795 0.07977505
v 0.00918039 -0.01126795 0.07943545
v 0.00997995 -0.01126795 0.07975767
v 0.00998257 -0.01211579 0.07974152
v 0.01036310 -0.01296303 0.08052131
v 0.01003976 -0.01309700 0.07986445
v 0.00823430 -0.01296303 0.08052131
v 0.00819953 -0.01309700 0.08475734
v 0.00823430 -0.01126795 0.08052131
v 0.00854829 -0.01042070 0.07987935
v 0.00828663 -0.01042070 0.08052131
v 0.00918039 -0.01042070 0.07965398
v 0.00991828 -0.01042070 0.07987190
v 0.01029881 -0.01042070 0.08052131
v 0.01036086 -0.01126795 0.08052131
v 0.01036310 -0.01211579 0.08052131
v 0.01036011 -0.01309700 0.08052131
v 0.01201792 -0.01309700 0.08574697
v 0.00819916 -0.01309700 0.08560479
v 0.00823430 -0.00701445 0.08560479
v 0.00823430 -0.00957405 0.08221622
v 0.00828625 -0.00957405 0.08136876
v 0.00865295 -0.00989735 0.08001221
v 0.00852698 -0.00959846 0.08054552
v 0.00918039 -0.00984734 0.07996937
v 0.00977399 -0.00989735 0.08001221
v 0.00996089 -0.00959846 0.08054552
v 0.01030254 -0.00957405 0.08136876
v 0.01098698 -0.00701445 0.08574697
v 0.01200073 -0.01042070 0.08574697
v 0.01200708 -0.01072078 0.08574697
v 0.01201792 -0.01126795 0.08574697
v 0.00819953 -0.01309700 0.08574697
v 0.00823430 -0.00701445 0.08574697
v 0.00837709 -0.00701445 0.08475734
v 0.00854754 -0.00887149 0.08136876
v 0.00918039 -0.00942342 0.08036982
v 0.00865221 -0.00905963 0.08084415
v 0.00977474 -0.00905963 0.08084415
v 0.00980240 -0.00701445 0.08425197
v 0.00863352 -0.00701445 0.08426190
v 0.00918039 -0.00901378 0.08079386
v 0.00918039 -0.00830527 0.08180149
v 0.00918039 -0.00859284 0.08136876
v 0.00863875 -0.00701445 0.08425197
v 0.00979006 -0.00701445 0.08425011
v 0.00916955 -0.00701445 0.08417126
v 0.00918039 -0.00701445 0.08417002
f 1 2 3
f 1 3 7
f 1 7 16
f 1 16 27
f 1 27 28
f 1 28 43
f 1 43 29
f 1 29 18
f 1 18 9
f 1 9 4
f 1 4 2
f 2 5 14
f 2 14 6
f 2 6 7
f 2 7 3
f 2 4 8
f 2 8 10
f 2 10 5
f 4 9 8
f 5 10 11
f 5 11 12
f 5 12 13
f 5 13 14
f 6 14 26
f 6 26 15
f 6 15 16
f 6 16 7
f 8 9 17
f 8 17 19
f 8 19 10
f 9 18 17
f 10 19 11
f 11 20 12
f 11 19 21
f 11 21 20
f 12 22 23
f 12 23 13
f 12 20 22
f 13 23 24
f 13 24 25
f 13 25 14
f 14 25 26
f 15 27 16
f 15 26 42
f 15 42 28
f 15 28 27
f 17 18 19
f 18 29 30
f 18 30 31
f 18 31 19
f 19 31 32
f 19 32 21
f 20 33 22
f 20 21 33
f 21 32 34
f 21 34 33
f 22 33 35
f 22 35 36
f 22 36 23
f 23 36 37
f 23 37 24
f 24 37 38
f 24 38 39
f 24 39 40
f 24 40 25
f 25 40 41
f 25 41 42
f 25 42 26
f 28 42 41
f 28 41 40
f 28 40 39
f 28 39 44
f 28 44 43
f 29 43 44
f 29 44 30
f 30 44 39
f 30 39 50
f 30 50 56
f 30 56 58
f 30 58 57
f 30 57 55
f 30 55 51
f 30 51 45
f 30 45 32
f 30 32 31
f 32 46 34
f 32 45 46
f 33 47 35
f 33 34 48
f 33 48 47
f 34 46 48
f 35 47 36
f 36 47 49
f 36 49 37
f 37 49 39
f 37 39 38
f 39 49 50
f 45 51 48
f 45 48 46
f 47 48 52
f 47 52 49
f 48 53 54
f 48 54 52
f 48 51 55
f 48 55 53
f 49 52 54
f 49 54 53
f 49 53 50
f 50 53 56
f 53 55 57
f 53 57 58
f 53 58 56

