# https://github.com/mikedh/trimesh
v -0.00427589 0.03025423 0.05024498
v -0.00426667 0.03110201 0.05024498
v -0.00411715 0.02960998 0.05024498
v -0.00406287 0.02967721 0.05086206
v -0.00398913 0.02977431 0.05138202
v -0.00416426 0.03025423 0.05086206
v -0.00425745 0.03194886 0.05024498
v -0.00397172 0.02953575 0.05024498
v -0.00353033 0.02940550 0.05086206
v -0.00355388 0.02961325 0.05168261
v -0.00314116 0.03059362 0.05303651
v -0.00381401 0.03025423 0.05184169
v -0.00400245 0.03025423 0.05141802
v -0.00328761 0.02969681 0.05231058
v 0.00027326 0.03164075 0.05879874
v 0.00023946 0.03176726 0.05879874
v -0.00415095 0.03110201 0.05086206
v -0.00398913 0.03194886 0.05137281
v -0.00423185 0.03212953 0.05024498
v -0.00413661 0.03194886 0.05086206
v -0.00397480 0.03245912 0.05133681
v -0.00353033 0.02931914 0.05024498
v -0.00268235 0.02937143 0.05170940
v -0.00315038 0.03110201 0.05305409
v -0.00343816 0.03110201 0.05255674
v 0.00021591 0.03215148 0.05879874
v -0.00381811 0.03110201 0.05181825
v 0.00070544 0.03137792 0.05879874
v -0.00380377 0.03194886 0.05179648
v -0.00410384 0.03269488 0.05024498
v -0.00404239 0.03261272 0.05086206
v -0.00312068 0.03245166 0.05300553
v -0.00325074 0.03275884 0.05255088
v -0.00233006 0.03327236 0.05397343
v -0.00315652 0.03324762 0.05226452
v -0.00329990 0.02928693 0.05024498
v 0.00091231 0.03134477 0.05879874
v -0.00268235 0.02928739 0.05086206
v 0.00155341 0.02937143 0.05170940
v 0.00618654 0.03127381 0.05879874
v 0.00186372 0.03127521 0.05879874
v 0.00155341 0.03127708 0.05879874
v -0.00063821 0.03194886 0.05734353
v 0.00021181 0.03260618 0.05879874
v -0.00246729 0.03194886 0.05419029
v -0.00340846 0.03194886 0.05255674
v -0.00351599 0.03311084 0.05024498
v -0.00147492 0.03327890 0.05563797
v 0.00022718 0.03298572 0.05879874
v -0.00059929 0.03326116 0.05727905
v 0.00005512 0.03401791 0.05682775
v -0.00318417 0.03324856 0.05170940
v -0.00268235 0.02924958 0.05024498
v 0.00155341 0.02928739 0.05086206
v 0.00240036 0.02938030 0.05170940
v 0.00309267 0.02960998 0.05170940
v 0.00618654 0.03112349 0.05634213
v 0.00618654 0.03373734 0.05879874
v 0.00008585 0.03279245 0.05856764
v -0.00316062 0.03323081 0.05110990
v 0.00036134 0.03401791 0.05340491
v 0.00061941 0.03401791 0.05287826
v 0.00075767 0.03401791 0.05269070
v -0.00268235 0.03318833 0.05024498
v -0.00014970 0.03349505 0.05759304
v 0.00039616 0.03320747 0.05879874
v 0.00012579 0.03336246 0.05833739
v 0.00026097 0.03401791 0.05716686
v 0.00010326 0.03401791 0.05594609
v 0.00155341 0.02924958 0.05024498
v 0.00178384 0.02925471 0.05024498
v 0.00240036 0.02930747 0.05086206
v 0.00240036 0.02927339 0.05024498
v 0.00257856 0.02934715 0.05024498
v 0.00305170 0.02956423 0.05024498
v 0.00618654 0.03115243 0.05594609
v 0.00618654 0.03401791 0.05787772
v 0.00547990 0.03373734 0.05879874
v 0.00130865 0.03401791 0.05259107
v 0.00155341 0.03401791 0.05255255
v 0.00240036 0.03401791 0.05254502
v 0.00121853 0.03318880 0.05024498
v 0.00069110 0.03348618 0.05879874
v 0.00064911 0.03401791 0.05762318
v 0.00328008 0.03025423 0.05024498
v 0.00618654 0.03314678 0.05292012
v 0.00618654 0.03131256 0.05520425
v 0.00618654 0.03122339 0.05545962
v 0.00618654 0.03401791 0.05271666
v 0.00579020 0.03401791 0.05787772
v 0.00409528 0.03401791 0.05787604
v 0.00240036 0.03401791 0.05787353
v 0.00378497 0.03373640 0.05879874
v 0.00155341 0.03318880 0.05024498
v 0.00323809 0.03401791 0.05256176
v 0.00155341 0.03371633 0.05879874
v 0.00079351 0.03401791 0.05766756
v 0.00328213 0.03110201 0.05024498
v 0.00618654 0.03364350 0.05276187
v 0.00328213 0.03171824 0.05024498
v 0.00328008 0.03194886 0.05024498
v 0.00311520 0.03253849 0.05024498
v 0.00304146 0.03279105 0.05024498
v 0.00240036 0.03317806 0.05024498
v 0.00155341 0.03401791 0.05786683
v 0.00240036 0.03373500 0.05879874
v 0.00293803 0.03373594 0.05879874
f 1 2 7
f 1 7 19
f 1 19 30
f 1 30 47
f 1 47 64
f 1 64 82
f 1 82 94
f 1 94 104
f 1 104 103
f 1 103 102
f 1 102 101
f 1 101 100
f 1 100 98
f 1 98 85
f 1 85 75
f 1 75 74
f 1 74 73
f 1 73 71
f 1 71 70
f 1 70 53
f 1 53 36
f 1 36 22
f 1 22 8
f 1 8 3
f 1 3 4
f 1 4 5
f 1 5 6
f 1 6 2
f 2 6 7
f 3 8 4
f 4 8 9
f 4 9 10
f 4 10 5
f 5 11 12
f 5 12 13
f 5 13 6
f 5 10 14
f 5 14 15
f 5 15 16
f 5 16 11
f 6 17 7
f 6 13 18
f 6 18 17
f 7 17 20
f 7 20 21
f 7 21 19
f 8 22 9
f 9 22 23
f 9 23 10
f 10 23 14
f 11 24 25
f 11 25 12
f 11 16 26
f 11 26 24
f 12 27 13
f 12 25 27
f 13 27 18
f 14 23 28
f 14 28 15
f 15 28 37
f 15 37 42
f 15 42 41
f 15 41 40
f 15 40 58
f 15 58 78
f 15 78 93
f 15 93 107
f 15 107 106
f 15 106 96
f 15 96 83
f 15 83 66
f 15 66 49
f 15 49 44
f 15 44 26
f 15 26 16
f 17 18 20
f 18 27 29
f 18 29 21
f 18 21 20
f 19 21 31
f 19 31 30
f 21 29 32
f 21 32 33
f 21 33 34
f 21 34 35
f 21 35 31
f 22 36 23
f 23 37 28
f 23 36 38
f 23 38 54
f 23 54 39
f 23 39 40
f 23 40 41
f 23 41 42
f 23 42 37
f 24 26 43
f 24 43 44
f 24 44 25
f 25 45 46
f 25 46 29
f 25 29 27
f 25 44 45
f 26 44 43
f 29 46 32
f 30 31 35
f 30 35 47
f 32 48 33
f 32 46 49
f 32 49 50
f 32 50 48
f 33 48 34
f 34 48 51
f 34 51 35
f 35 52 47
f 35 51 52
f 36 53 38
f 38 53 70
f 38 70 54
f 39 54 55
f 39 55 40
f 40 55 56
f 40 56 57
f 40 57 76
f 40 76 88
f 40 88 87
f 40 87 86
f 40 86 99
f 40 99 89
f 40 89 77
f 40 77 58
f 44 49 59
f 44 59 46
f 44 46 45
f 46 59 49
f 47 52 60
f 47 60 61
f 47 61 62
f 47 62 63
f 47 63 64
f 48 50 65
f 48 65 51
f 49 66 67
f 49 67 50
f 50 67 65
f 51 65 67
f 51 67 68
f 51 68 84
f 51 84 97
f 51 97 105
f 51 105 92
f 51 92 91
f 51 91 90
f 51 90 77
f 51 77 89
f 51 89 95
f 51 95 81
f 51 81 80
f 51 80 79
f 51 79 63
f 51 63 62
f 51 62 61
f 51 61 69
f 51 69 52
f 52 69 61
f 52 61 60
f 54 70 71
f 54 71 72
f 54 72 55
f 55 72 56
f 56 72 73
f 56 73 74
f 56 74 75
f 56 75 57
f 57 75 76
f 58 77 90
f 58 90 78
f 63 79 64
f 64 79 80
f 64 80 81
f 64 81 82
f 66 83 67
f 67 83 68
f 68 83 84
f 71 73 72
f 75 85 86
f 75 86 87
f 75 87 88
f 75 88 76
f 78 90 91
f 78 91 92
f 78 92 93
f 81 94 82
f 81 95 94
f 83 96 84
f 84 96 97
f 85 98 89
f 85 89 99
f 85 99 86
f 89 98 100
f 89 100 101
f 89 101 102
f 89 102 103
f 89 103 104
f 89 104 95
f 92 105 106
f 92 106 107
f 92 107 93
f 94 95 104
f 96 106 105
f 96 105 97

