# https://github.com/mikedh/trimesh
v 0.00630080 0.00737468 0.02286260
v 0.00630080 0.00737468 0.01763453
v 0.00578992 0.00737468 0.02306594
v 0.00464439 0.00201495 0.02372609
v 0.00467072 0.00144247 0.02372609
v 0.00630080 0.00456482 0.02286319
v 0.00630080 -0.00570897 0.01763453
v -0.00607223 0.00737468 0.01763453
v 0.00407821 0.00305872 0.02372609
v 0.00411376 0.00304079 0.02372609
v 0.00451140 0.00261303 0.02372609
v 0.00460489 0.00228902 0.02372609
v 0.00155278 0.00737468 0.02294787
v 0.00155278 0.00320344 0.02372609
v 0.00159096 0.00320600 0.02372609
v 0.00240073 0.00324058 0.02372609
v 0.00243892 0.00324058 0.02372609
v 0.00324737 0.00323546 0.02372609
v 0.00328424 0.00323161 0.02372609
v 0.00467072 -0.00025190 0.02372609
v 0.00630080 -0.00279409 0.02286319
v 0.00630080 -0.00570897 0.02286260
v -0.00607223 -0.00570897 0.01763453
v -0.00649095 -0.00570897 0.01780329
v -0.00681880 0.00737340 0.01793567
v -0.00681880 0.00737468 0.01793627
v -0.00352969 0.00737468 0.02181185
v -0.00057896 0.00272317 0.02372609
v 0.00578992 -0.00570897 0.02306594
v 0.00620863 -0.00570897 0.02289957
v 0.00439817 -0.00112405 0.02372609
v -0.00681880 -0.00570897 0.01793567
v -0.00714798 0.00737468 0.01866082
v -0.00401687 0.00737468 0.02169199
v -0.00058423 0.00271293 0.02372609
v 0.00412429 -0.00141221 0.02372609
v 0.00324737 -0.00170293 0.02372609
v 0.00263116 -0.00172086 0.02372609
v 0.00240073 -0.00172342 0.02372609
v 0.00494328 -0.00570897 0.02305939
v -0.00714798 -0.00570897 0.01866082
v -0.00700183 -0.00570897 0.01913610
v -0.00688727 0.00737468 0.01950821
v -0.00100557 0.00144247 0.02372609
v -0.00080017 0.00228902 0.02372609
v -0.00655810 0.00737468 0.01997216
v -0.00401687 -0.00570897 0.02169199
v 0.00240073 -0.00570897 0.02303493
v 0.00155278 -0.00167604 0.02372609
v -0.00688727 -0.00570897 0.01950821
v -0.00670293 -0.00570897 0.01976821
v -0.00100557 -0.00025190 0.02372609
v -0.00655810 -0.00570897 0.01997216
v -0.00374431 -0.00570897 0.02175938
v -0.00078437 -0.00091914 0.02372609
v 0.00202811 -0.00570897 0.02303016
v -0.00014182 -0.00117912 0.02372609
v -0.00352969 -0.00570897 0.02181185
v 0.00155278 -0.00570897 0.02298484
f 1 2 8
f 1 8 26
f 1 26 33
f 1 33 43
f 1 43 46
f 1 46 34
f 1 34 27
f 1 27 13
f 1 13 3
f 1 3 4
f 1 4 5
f 1 5 6
f 1 6 21
f 1 21 22
f 1 22 7
f 1 7 2
f 2 7 23
f 2 23 8
f 3 9 10
f 3 10 11
f 3 11 12
f 3 12 4
f 3 13 14
f 3 14 15
f 3 15 16
f 3 16 17
f 3 17 18
f 3 18 19
f 3 19 9
f 4 12 11
f 4 11 10
f 4 10 9
f 4 9 19
f 4 19 18
f 4 18 17
f 4 17 16
f 4 16 15
f 4 15 14
f 4 14 28
f 4 28 35
f 4 35 45
f 4 45 44
f 4 44 52
f 4 52 55
f 4 55 57
f 4 57 49
f 4 49 39
f 4 39 38
f 4 38 37
f 4 37 36
f 4 36 31
f 4 31 20
f 4 20 5
f 5 20 21
f 5 21 6
f 7 22 30
f 7 30 29
f 7 29 40
f 7 40 48
f 7 48 56
f 7 56 59
f 7 59 58
f 7 58 54
f 7 54 47
f 7 47 53
f 7 53 51
f 7 51 50
f 7 50 42
f 7 42 41
f 7 41 32
f 7 32 24
f 7 24 23
f 8 23 24
f 8 24 25
f 8 25 26
f 13 27 28
f 13 28 14
f 20 29 30
f 20 30 22
f 20 22 21
f 20 31 29
f 24 32 25
f 25 32 41
f 25 41 33
f 25 33 26
f 27 34 28
f 28 34 35
f 29 31 36
f 29 36 37
f 29 37 38
f 29 38 39
f 29 39 40
f 33 41 42
f 33 42 43
f 34 44 45
f 34 45 35
f 34 46 53
f 34 53 47
f 34 47 52
f 34 52 44
f 39 48 40
f 39 49 48
f 42 50 43
f 43 50 51
f 43 51 46
f 46 51 53
f 47 54 55
f 47 55 52
f 48 49 56
f 49 57 56
f 54 58 55
f 55 58 59
f 55 59 56
f 55 56 57

