# https://github.com/mikedh/trimesh
v 0.01409655 0.02489281 0.08730116
v 0.01402448 0.02489281 0.08675929
v 0.01393682 0.02723051 0.08648304
v 0.01398139 0.02723051 0.08693283
v 0.01405569 0.02601727 0.08730116
v 0.01397025 0.02489281 0.08899406
v 0.01398511 0.02489281 0.08649249
v 0.01060099 0.02723051 0.08194031
v 0.01401111 0.02723051 0.08730116
v 0.01395985 0.02516992 0.08899406
v 0.01394573 0.02489281 0.08927149
v 0.01035062 0.02489281 0.08194031
v 0.00826666 0.02723051 0.08194031
v 0.01397396 0.02723051 0.08778164
v 0.01392716 0.02601727 0.08899406
v 0.01389150 0.02489281 0.08987002
v 0.00829043 0.02489281 0.08194031
v 0.00660320 0.02489281 0.09210715
v 0.00660543 0.02723051 0.09238340
v 0.00827855 0.02489441 0.08194031
v 0.01389818 0.02723051 0.08871191
v 0.01388184 0.02692731 0.08906725
v 0.01384172 0.02723051 0.08937656
v 0.01385212 0.02668659 0.08951468
v 0.01386698 0.02601727 0.08964808
v 0.01387887 0.02515299 0.08988419
v 0.01384989 0.02489281 0.09024307
v 0.00650662 0.02489281 0.09295478
v 0.00656160 0.02686439 0.09323103
v 0.00657646 0.02723051 0.09323103
v 0.01387515 0.02723051 0.08898461
v 0.01383652 0.02723051 0.08942614
v 0.01383206 0.02542415 0.09019467
v 0.01383578 0.02489281 0.09032689
v 0.00651256 0.02489281 0.09323103
v 0.00681346 0.02489281 0.09382720
v 0.00681940 0.02516992 0.09381894
v 0.00684243 0.02601727 0.09379297
v 0.00687066 0.02686439 0.09376700
v 0.00688552 0.02723051 0.09375637
v 0.01378897 0.02723051 0.08982516
v 0.01370279 0.02723051 0.09032335
v 0.01363815 0.02723051 0.09068932
v 0.01327188 0.02723051 0.09238340
v 0.01336549 0.02489281 0.09238340
v 0.00748582 0.02489281 0.09399956
v 0.00748582 0.02516992 0.09398303
v 0.00748582 0.02601727 0.09393109
v 0.00748582 0.02723051 0.09385672
v 0.01308912 0.02723051 0.09303388
v 0.01312626 0.02516992 0.09316138
v 0.01312255 0.02489281 0.09320506
v 0.01172210 0.02489281 0.09399956
v 0.01172210 0.02516992 0.09398303
v 0.01172210 0.02723051 0.09385790
v 0.01293607 0.02723051 0.09327471
v 0.01295093 0.02489281 0.09360408
v 0.01305791 0.02489281 0.09336797
v 0.01225330 0.02489281 0.09388977
v 0.01237886 0.02723051 0.09375637
v 0.01199179 0.02723051 0.09382012
v 0.01280234 0.02723051 0.09345769
v 0.01293458 0.02516992 0.09358519
v 0.01255197 0.02489281 0.09381658
v 0.01251111 0.02516992 0.09381894
v 0.01245761 0.02601727 0.09379297
f 1 2 3
f 1 3 4
f 1 4 5
f 1 5 6
f 1 6 11
f 1 11 16
f 1 16 27
f 1 27 34
f 1 34 45
f 1 45 52
f 1 52 58
f 1 58 57
f 1 57 64
f 1 64 59
f 1 59 53
f 1 53 46
f 1 46 36
f 1 36 35
f 1 35 28
f 1 28 18
f 1 18 17
f 1 17 12
f 1 12 7
f 1 7 2
f 2 7 3
f 3 7 8
f 3 8 13
f 3 13 19
f 3 19 30
f 3 30 40
f 3 40 49
f 3 49 55
f 3 55 61
f 3 61 60
f 3 60 62
f 3 62 56
f 3 56 50
f 3 50 44
f 3 44 43
f 3 43 42
f 3 42 41
f 3 41 32
f 3 32 23
f 3 23 31
f 3 31 21
f 3 21 14
f 3 14 9
f 3 9 4
f 4 9 5
f 5 9 6
f 6 10 11
f 6 9 10
f 7 12 8
f 8 12 17
f 8 17 20
f 8 20 13
f 9 14 15
f 9 15 10
f 10 15 11
f 11 15 16
f 13 18 19
f 13 20 18
f 14 21 15
f 15 21 22
f 15 22 23
f 15 23 24
f 15 24 25
f 15 25 16
f 16 26 27
f 16 25 26
f 17 18 20
f 18 28 19
f 19 28 29
f 19 29 30
f 21 31 22
f 22 31 23
f 23 32 24
f 24 32 33
f 24 33 25
f 25 33 26
f 26 33 27
f 27 33 34
f 28 35 29
f 29 35 36
f 29 36 37
f 29 37 30
f 30 37 38
f 30 38 39
f 30 39 40
f 32 41 33
f 33 41 42
f 33 42 43
f 33 43 34
f 34 43 44
f 34 44 45
f 36 46 37
f 37 46 38
f 38 46 39
f 39 46 40
f 40 46 47
f 40 47 48
f 40 48 49
f 44 50 45
f 45 50 51
f 45 51 52
f 46 53 54
f 46 54 47
f 47 54 55
f 47 55 48
f 48 55 49
f 50 56 57
f 50 57 58
f 50 58 52
f 50 52 51
f 53 59 60
f 53 60 61
f 53 61 54
f 54 61 55
f 56 62 63
f 56 63 57
f 57 63 62
f 57 62 60
f 57 60 64
f 59 64 65
f 59 65 60
f 60 65 66
f 60 66 64
f 64 66 65

