# https://github.com/mikedh/trimesh
v 0.00743607 -0.03174904 0.07292849
v 0.00409544 -0.03194639 0.07292849
v 0.00743607 -0.03420553 0.07292849
v 0.00743607 -0.03101753 0.06610565
v 0.00240124 -0.03047424 0.05933676
v 0.00406247 -0.03194956 0.07292849
v 0.00155414 -0.03048217 0.05879874
v 0.00667172 -0.03434858 0.07292849
v 0.00743607 -0.03434819 0.07292572
v 0.00743607 -0.03093114 0.06526888
v 0.00240124 -0.03041797 0.05879874
v 0.00365204 -0.03200979 0.07292849
v 0.00080191 -0.03084872 0.05879874
v 0.00663808 -0.03434858 0.07292849
v 0.00743607 -0.03291170 0.05879874
v 0.00743607 -0.03030067 0.05879874
v 0.00354910 -0.03245124 0.07292849
v 0.00059198 -0.03144590 0.05879874
v 0.00494321 -0.03434819 0.07292849
v 0.00240124 -0.03291131 0.05879874
v 0.00494321 -0.03291170 0.05879874
v 0.00346701 -0.03330044 0.07292849
v 0.00056238 -0.03161907 0.05879874
v 0.00412975 -0.03422613 0.07292849
v 0.00155414 -0.03289942 0.05879874
v 0.00356995 -0.03390872 0.07292849
v 0.00082411 -0.03241319 0.05879874
v 0.00409544 -0.03422098 0.07292849
v 0.00146533 -0.03288436 0.05879874
v 0.00359081 -0.03392338 0.07292849
f 1 2 6
f 1 6 12
f 1 12 17
f 1 17 22
f 1 22 26
f 1 26 30
f 1 30 28
f 1 28 24
f 1 24 19
f 1 19 14
f 1 14 8
f 1 8 3
f 1 3 9
f 1 9 15
f 1 15 16
f 1 16 10
f 1 10 4
f 1 4 5
f 1 5 2
f 2 5 7
f 2 7 6
f 3 8 9
f 4 10 11
f 4 11 5
f 5 11 7
f 6 7 12
f 7 11 16
f 7 16 15
f 7 15 21
f 7 21 20
f 7 20 25
f 7 25 29
f 7 29 27
f 7 27 23
f 7 23 18
f 7 18 13
f 7 13 12
f 8 14 21
f 8 21 15
f 8 15 9
f 10 16 11
f 12 13 18
f 12 18 17
f 14 19 20
f 14 20 21
f 17 18 23
f 17 23 22
f 19 24 25
f 19 25 20
f 22 23 26
f 23 27 26
f 24 28 25
f 25 28 29
f 26 27 29
f 26 29 30
f 28 30 29

