# https://github.com/mikedh/trimesh
v 0.00467194 0.00144227 0.02372609
v 0.00467083 -0.00025204 0.02372609
v 0.00464527 0.00201531 0.02372609
v 0.00437569 0.00144227 0.02967804
v 0.00437569 0.00059560 0.02967804
v 0.00439904 -0.00112447 0.02372609
v 0.00435624 -0.00025204 0.02967804
v 0.00460525 0.00228992 0.02372609
v 0.00398718 0.00228992 0.03052345
v 0.00426064 0.00144227 0.03052345
v 0.00451131 0.00261313 0.02372609
v 0.00426064 0.00059560 0.03052345
v 0.00425063 -0.00025204 0.03052345
v 0.00412502 -0.00141221 0.02372609
v 0.00395661 -0.00092714 0.03052345
v 0.00368259 0.00271957 0.03098090
v 0.00283996 0.00272297 0.03663463
v 0.00306563 0.00228992 0.03663463
v 0.00327573 0.00144227 0.03663463
v 0.00411390 0.00304133 0.02372609
v 0.00327573 -0.00025204 0.03663463
v 0.00322792 -0.00039445 0.03663463
v 0.00305006 -0.00092228 0.03663463
v 0.00324849 -0.00170383 0.02372609
v 0.00240087 -0.00118037 0.03663463
v 0.00274659 0.00272540 0.03663463
v 0.00407888 0.00305882 0.02372609
v 0.00328406 0.00323234 0.02372609
v 0.00324849 0.00323574 0.02372609
v 0.00263098 -0.00172132 0.02372609
v 0.00155380 -0.00119155 0.03663463
v 0.00240087 0.00273318 0.03663463
v 0.00240087 0.00324109 0.02372609
v 0.00240087 -0.00172424 0.02372609
v 0.00070673 -0.00119155 0.03663463
v 0.00222078 0.00273367 0.03663463
v 0.00159215 0.00320658 0.02372609
v -0.00057944 0.00272297 0.03663463
v -0.00014090 0.00273318 0.03663463
v 0.00070673 0.00273367 0.03663463
v 0.00155380 -0.00167612 0.02372609
v 0.00003919 -0.00118085 0.03663463
v -0.00014090 -0.00117794 0.03663463
v 0.00155380 0.00320366 0.02372609
v -0.00075341 0.00238178 0.03663463
v -0.00057944 0.00272297 0.02372609
v -0.00058444 0.00271325 0.02372609
v -0.00014090 -0.00118134 0.02459298
v -0.00014090 -0.00117891 0.02372609
v -0.00014090 -0.00118134 0.03560852
v -0.00064836 -0.00097526 0.03663463
v -0.00080010 0.00228992 0.03663463
v -0.00080010 0.00228992 0.02372609
v -0.00078509 -0.00091985 0.02372609
v -0.00078509 -0.00091985 0.03663463
v -0.00096240 0.00162211 0.03663463
v -0.00080510 0.00227096 0.02372609
v -0.00100631 -0.00025204 0.02372609
v -0.00100575 -0.00025204 0.03663463
v -0.00100575 0.00144227 0.03663463
v -0.00100631 0.00144227 0.02372609
f 1 2 6
f 1 6 14
f 1 14 24
f 1 24 30
f 1 30 34
f 1 34 41
f 1 41 49
f 1 49 54
f 1 54 58
f 1 58 61
f 1 61 57
f 1 57 53
f 1 53 47
f 1 47 46
f 1 46 44
f 1 44 37
f 1 37 33
f 1 33 29
f 1 29 28
f 1 28 27
f 1 27 20
f 1 20 11
f 1 11 8
f 1 8 3
f 1 3 4
f 1 4 5
f 1 5 2
f 2 5 7
f 2 7 6
f 3 8 4
f 4 9 10
f 4 10 12
f 4 12 5
f 4 8 11
f 4 11 9
f 5 12 13
f 5 13 7
f 6 7 15
f 6 15 14
f 7 13 15
f 9 16 17
f 9 17 18
f 9 18 10
f 9 11 16
f 10 18 19
f 10 19 21
f 10 21 12
f 11 20 16
f 12 21 13
f 13 21 22
f 13 22 23
f 13 23 15
f 14 15 23
f 14 23 25
f 14 25 24
f 16 20 17
f 17 26 32
f 17 32 36
f 17 36 40
f 17 40 39
f 17 39 38
f 17 38 45
f 17 45 52
f 17 52 56
f 17 56 60
f 17 60 59
f 17 59 55
f 17 55 51
f 17 51 43
f 17 43 42
f 17 42 35
f 17 35 31
f 17 31 25
f 17 25 23
f 17 23 22
f 17 22 21
f 17 21 19
f 17 19 18
f 17 20 27
f 17 27 28
f 17 28 29
f 17 29 26
f 24 25 30
f 25 31 30
f 26 29 32
f 29 33 32
f 30 31 34
f 31 35 34
f 32 33 36
f 33 37 38
f 33 38 39
f 33 39 40
f 33 40 36
f 34 35 42
f 34 42 43
f 34 43 41
f 37 44 38
f 38 44 46
f 38 46 47
f 38 47 45
f 41 48 49
f 41 43 50
f 41 50 48
f 43 51 50
f 45 47 53
f 45 53 52
f 48 54 49
f 48 50 55
f 48 55 54
f 50 51 55
f 52 53 57
f 52 57 56
f 54 55 58
f 55 59 58
f 56 57 61
f 56 61 60
f 58 59 60
f 58 60 61

