# https://github.com/mikedh/trimesh
v -0.00707659 -0.02817470 0.04069337
v -0.00692515 -0.02567377 0.03984593
v -0.00689876 -0.02652118 0.03984593
v -0.00677773 -0.02817470 0.04006270
v -0.00680755 -0.02817470 0.04151520
v -0.00701808 -0.02036215 0.04069337
v -0.00692515 -0.02036215 0.03984593
v -0.00659531 -0.02567377 0.03937827
v -0.00657925 -0.02652118 0.03938552
v -0.00654082 -0.02697853 0.03940259
v -0.00607273 -0.02817470 0.03986385
v -0.00444361 -0.02817470 0.04369268
v -0.00668824 -0.02036215 0.04121651
v -0.00692974 -0.02036215 0.04083376
v -0.00659531 -0.02036215 0.03937827
v -0.00607273 -0.02567377 0.03933431
v -0.00621327 -0.02036215 0.03934583
v -0.00607273 -0.02652118 0.03934882
v -0.00607273 -0.02699536 0.03939277
v -0.00121634 -0.02817470 0.03986385
v -0.00121634 -0.02817470 0.04369268
v -0.00433117 -0.02786266 0.04369268
v -0.00403518 -0.02433764 0.04289687
v -0.00353095 -0.02482635 0.04313284
v -0.00652303 -0.02036215 0.04124339
v -0.00431339 -0.02781677 0.04369268
v -0.00417056 -0.02745501 0.04369268
v -0.00121634 -0.02567377 0.03933389
v -0.00607273 -0.02036215 0.03933431
v -0.00121634 -0.02652118 0.03934840
v -0.00121634 -0.02699536 0.03939277
v -0.00121634 -0.02713608 0.04369268
v -0.00374205 -0.02724928 0.04369268
v -0.00353095 -0.02715750 0.04369268
v -0.00121634 -0.02423821 0.04307054
v -0.00121634 -0.02036521 0.04173624
v -0.00607273 -0.02036215 0.04131636
v -0.00121634 -0.02375179 0.03933389
v -0.00121634 -0.02036215 0.03933431
v -0.00268370 -0.02713608 0.04369268
v -0.00121634 -0.02036215 0.04014079
v -0.00161387 -0.02036215 0.04154763
v -0.00499888 -0.02036215 0.04139231
f 1 2 3
f 1 3 4
f 1 4 11
f 1 11 20
f 1 20 21
f 1 21 12
f 1 12 5
f 1 5 6
f 1 6 7
f 1 7 2
f 2 8 9
f 2 9 3
f 2 7 15
f 2 15 8
f 3 9 10
f 3 10 4
f 4 10 11
f 5 12 13
f 5 13 14
f 5 14 6
f 6 14 13
f 6 13 25
f 6 25 37
f 6 37 43
f 6 43 42
f 6 42 41
f 6 41 39
f 6 39 29
f 6 29 17
f 6 17 15
f 6 15 7
f 8 16 9
f 8 15 17
f 8 17 16
f 9 16 18
f 9 18 10
f 10 18 19
f 10 19 11
f 11 19 31
f 11 31 20
f 12 21 32
f 12 32 40
f 12 40 34
f 12 34 33
f 12 33 27
f 12 27 26
f 12 26 22
f 12 22 13
f 13 23 24
f 13 24 25
f 13 22 26
f 13 26 27
f 13 27 23
f 16 28 30
f 16 30 18
f 16 17 29
f 16 29 38
f 16 38 28
f 18 30 19
f 19 30 31
f 20 31 30
f 20 30 28
f 20 28 38
f 20 38 39
f 20 39 41
f 20 41 36
f 20 36 35
f 20 35 32
f 20 32 21
f 23 27 24
f 24 27 33
f 24 33 34
f 24 34 35
f 24 35 36
f 24 36 37
f 24 37 25
f 29 39 38
f 32 35 40
f 34 40 35
f 36 41 42
f 36 42 43
f 36 43 37

