# https://github.com/mikedh/trimesh
v -0.00000992 0.02601594 0.01760332
v 0.00027985 0.02515868 0.01760332
v 0.00008523 0.02688565 0.01760332
v 0.00042072 0.02855817 0.01527147
v 0.00040034 0.02771179 0.01442381
v 0.00045224 0.01839082 0.01442381
v 0.00046892 0.01754445 0.01442381
v 0.00082727 0.01754445 0.01512966
v 0.00068022 0.02465459 0.01760332
v 0.00093911 0.01697190 0.01502370
v 0.00189555 0.01705280 0.01571840
v 0.00034473 0.02855817 0.01760332
v 0.00037130 0.02855817 0.01611833
v 0.00052514 0.02940610 0.01696559
v 0.00070123 0.02946988 0.01606375
v 0.00091872 0.03000198 0.01630993
v 0.00080256 0.02923651 0.01527147
v 0.00072965 0.02859240 0.01440429
v 0.00090513 0.02833413 0.01387092
v 0.00078217 0.02771179 0.01378687
v 0.00077167 0.02686387 0.01376735
v 0.00077167 0.01754445 0.01376735
v 0.00089091 0.01691589 0.01384503
v 0.00080750 0.01685677 0.01442381
v 0.00242258 0.02375843 0.01760332
v 0.00155388 0.01647092 0.01442381
v 0.00271360 0.01624999 0.01496276
v 0.00158909 0.01684277 0.01529218
v 0.00364965 0.01627022 0.01569729
v 0.00071174 0.02944499 0.01760332
v 0.00090451 0.03005021 0.01696559
v 0.00193201 0.03069277 0.01734958
v 0.00155388 0.03008599 0.01619959
v 0.00094158 0.02907470 0.01467396
v 0.00155388 0.02883510 0.01419078
v 0.00155388 0.02841036 0.01381356
v 0.00155388 0.02771179 0.01358053
v 0.00155388 0.02686387 0.01353393
v 0.00155388 0.01754445 0.01353393
v 0.00155388 0.01676809 0.01376735
v 0.00260053 0.01623288 0.01394142
v 0.00324804 0.02365108 0.01760332
v 0.00622241 0.01543474 0.01569171
v 0.00630150 0.01515469 0.01442381
v 0.00630150 0.01528382 0.01524159
v 0.00630150 0.01538340 0.01561204
v 0.00097680 0.02983395 0.01760332
v 0.00104105 0.02995219 0.01753600
v 0.00193201 0.03069277 0.01740893
v 0.00411243 0.03101171 0.01760332
v 0.00240158 0.03075189 0.01726155
v 0.00324804 0.03081412 0.01720738
v 0.00155388 0.02911049 0.01461421
v 0.00240158 0.02878999 0.01425252
v 0.00409574 0.02827967 0.01388008
v 0.00324804 0.02832168 0.01385379
v 0.00240158 0.02836524 0.01383149
v 0.00494283 0.03104750 0.01760332
v 0.00409574 0.02771179 0.01364705
v 0.00324804 0.02771179 0.01362076
v 0.00240158 0.02771179 0.01359846
v 0.00579053 0.02686387 0.01355185
v 0.00494283 0.02686387 0.01353751
v 0.00409574 0.02686387 0.01353393
v 0.00579053 0.01669652 0.01353393
v 0.00494283 0.01669652 0.01354070
v 0.00630150 0.01618465 0.01356102
v 0.00409574 0.01669652 0.01357297
v 0.00324804 0.01669652 0.01363909
v 0.00630150 0.01583148 0.01364785
v 0.00630150 0.01544563 0.01379046
v 0.00630150 0.01529160 0.01386415
v 0.00630150 0.01519825 0.01413063
v 0.00579053 0.02350794 0.01760332
v 0.00630150 0.01551253 0.01570247
v 0.00630150 0.02350483 0.01760332
v 0.00627246 0.02350483 0.01760332
v 0.00147664 0.03017312 0.01760332
v 0.00164223 0.03028514 0.01760332
v 0.00270989 0.03077834 0.01760332
v 0.00240158 0.03075189 0.01749816
v 0.00494283 0.02822055 0.01392549
v 0.00494283 0.02771179 0.01369565
v 0.00518132 0.03101327 0.01760332
v 0.00630150 0.02686387 0.01357137
v 0.00630150 0.02635200 0.01354110
v 0.00630150 0.02601594 0.01353393
v 0.00630150 0.01669652 0.01353393
v 0.00630150 0.03081412 0.01760332
v 0.00572442 0.03093392 0.01760332
v 0.00548778 0.02816765 0.01397090
v 0.00630150 0.02764645 0.01381475
v 0.00630150 0.02721549 0.01367255
v 0.00630150 0.02804319 0.01409917
v 0.00605250 0.02807897 0.01405615
v 0.00607660 0.03086858 0.01760332
v 0.00599380 0.03088725 0.01760332
v 0.00630150 0.02786427 0.01395457
f 1 2 9
f 1 9 25
f 1 25 42
f 1 42 74
f 1 74 77
f 1 77 76
f 1 76 89
f 1 89 96
f 1 96 97
f 1 97 90
f 1 90 84
f 1 84 58
f 1 58 50
f 1 50 80
f 1 80 79
f 1 79 78
f 1 78 47
f 1 47 30
f 1 30 12
f 1 12 3
f 1 3 4
f 1 4 5
f 1 5 6
f 1 6 7
f 1 7 8
f 1 8 2
f 2 8 10
f 2 10 11
f 2 11 9
f 3 12 13
f 3 13 4
f 4 13 14
f 4 14 15
f 4 15 16
f 4 16 17
f 4 17 18
f 4 18 5
f 5 18 19
f 5 19 20
f 5 20 21
f 5 21 22
f 5 22 6
f 6 22 7
f 7 22 23
f 7 23 24
f 7 24 10
f 7 10 8
f 9 11 25
f 10 24 26
f 10 26 27
f 10 27 28
f 10 28 11
f 11 28 29
f 11 29 25
f 12 30 14
f 12 14 13
f 14 30 31
f 14 31 16
f 14 16 15
f 16 31 32
f 16 32 33
f 16 33 34
f 16 34 17
f 17 34 18
f 18 34 19
f 19 34 35
f 19 35 36
f 19 36 37
f 19 37 20
f 20 37 38
f 20 38 21
f 21 38 39
f 21 39 22
f 22 39 23
f 23 40 41
f 23 41 26
f 23 26 24
f 23 39 40
f 25 29 43
f 25 43 42
f 26 41 44
f 26 44 45
f 26 45 27
f 27 29 28
f 27 45 46
f 27 46 43
f 27 43 29
f 30 47 31
f 31 47 48
f 31 48 49
f 31 49 32
f 32 49 50
f 32 50 51
f 32 51 33
f 33 51 52
f 33 52 53
f 33 53 34
f 34 53 35
f 35 54 55
f 35 55 56
f 35 56 57
f 35 57 36
f 35 53 52
f 35 52 58
f 35 58 54
f 36 57 59
f 36 59 60
f 36 60 61
f 36 61 37
f 37 62 63
f 37 63 64
f 37 64 38
f 37 61 62
f 38 64 87
f 38 87 88
f 38 88 65
f 38 65 39
f 39 65 66
f 39 66 67
f 39 67 68
f 39 68 69
f 39 69 40
f 40 69 70
f 40 70 71
f 40 71 72
f 40 72 41
f 41 72 73
f 41 73 44
f 42 43 74
f 43 46 75
f 43 75 76
f 43 76 77
f 43 77 74
f 44 73 72
f 44 72 71
f 44 71 70
f 44 70 67
f 44 67 88
f 44 88 87
f 44 87 86
f 44 86 85
f 44 85 93
f 44 93 92
f 44 92 98
f 44 98 94
f 44 94 89
f 44 89 76
f 44 76 75
f 44 75 46
f 44 46 45
f 47 78 48
f 48 78 79
f 48 79 49
f 49 80 81
f 49 81 50
f 49 79 80
f 50 58 52
f 50 52 51
f 50 81 80
f 54 82 55
f 54 58 82
f 55 82 83
f 55 83 59
f 55 59 56
f 56 59 57
f 58 84 82
f 59 83 85
f 59 85 62
f 59 62 60
f 60 62 61
f 62 85 86
f 62 86 63
f 63 86 87
f 63 87 64
f 65 88 67
f 65 67 66
f 67 70 68
f 68 70 69
f 82 84 90
f 82 90 91
f 82 91 92
f 82 92 83
f 83 92 93
f 83 93 85
f 89 94 95
f 89 95 91
f 89 91 96
f 90 97 91
f 91 97 96
f 91 95 98
f 91 98 92
f 94 98 95

