# https://github.com/mikedh/trimesh
v -0.00435607 0.01245908 0.04831985
v -0.00408771 0.01181703 0.04773172
v -0.00415499 0.01170690 0.04831985
v -0.00408771 0.01181703 0.04889947
v -0.00408771 0.01440946 0.05070464
v -0.00415499 0.01500195 0.05083812
v -0.00435607 0.01500195 0.05001437
v -0.00435607 0.01500195 0.04667998
v 0.00065907 0.01052522 0.04667998
v -0.00086813 0.01052522 0.04764661
v -0.00353006 0.01136550 0.04831985
v -0.00412583 0.01412092 0.04667998
v -0.00086588 0.01052522 0.04898324
v -0.00014153 0.01052522 0.04924438
v -0.00353006 0.01430704 0.05084305
v -0.00353006 0.01500195 0.05124529
v -0.00413256 0.01754262 0.05080811
v -0.00432393 0.01754262 0.05001437
v -0.00434635 0.01754262 0.04916689
v -0.00435607 0.01838951 0.04831985
v -0.00435607 0.01754262 0.04667998
v 0.00327540 0.01052522 0.04667998
v -0.00109761 0.01052522 0.04812590
v -0.00117012 0.01052522 0.04831985
v 0.00046620 0.01052522 0.04926230
v 0.00070616 0.01052522 0.04926588
v -0.00268311 0.01500195 0.05125425
v -0.00268311 0.01754262 0.05121304
v -0.00353006 0.01754262 0.05119602
v -0.00408771 0.01822101 0.05070464
v -0.00429328 0.02008439 0.04831985
v -0.00433215 0.01923750 0.04831985
v -0.00435233 0.01759769 0.04667998
v 0.00327540 0.01052522 0.04831985
v 0.00328063 0.01918244 0.04667998
v 0.00155310 0.01052522 0.04926588
v -0.00183542 0.01500195 0.05125559
v 0.00155310 0.01754262 0.05121304
v -0.00268311 0.01836969 0.05085156
v -0.00353006 0.01835867 0.05084484
v -0.00403613 0.02070772 0.04881034
v -0.00411611 0.02085199 0.04831985
v -0.00406528 0.02072974 0.04747237
v -0.00415798 0.01847541 0.04667998
v -0.00396885 0.02054473 0.04703877
v 0.00321186 0.01052522 0.04850977
v 0.00327540 0.01500195 0.05001437
v 0.00305039 0.01500195 0.05084394
v 0.00328063 0.02177487 0.04667998
v 0.00216084 0.01052522 0.04925513
v 0.00240080 0.01500195 0.05125290
v 0.00155310 0.01500195 0.05125559
v 0.00240080 0.01754262 0.05120184
v 0.00240080 0.01836198 0.05084797
v 0.00155310 0.01836969 0.05085156
v 0.00070093 0.02177487 0.04887260
v -0.00014153 0.02177487 0.04887215
v -0.00014751 0.02177487 0.04887170
v -0.00076198 0.02177487 0.04880810
v -0.00076646 0.02177487 0.04880630
v -0.00353006 0.02120770 0.04831985
v -0.00353006 0.02096432 0.04747237
v -0.00413555 0.01852937 0.04667998
v -0.00068722 0.02177487 0.04699174
v 0.00017990 0.02177487 0.04667998
v -0.00380814 0.01890161 0.04667998
v 0.00305039 0.01052522 0.04898951
v 0.00327540 0.02177487 0.04747774
v 0.00323503 0.01754262 0.05001437
v 0.00302274 0.01754262 0.05081438
v 0.00297489 0.01440175 0.05070867
v 0.00240080 0.01052522 0.04925065
v 0.00297489 0.01822542 0.05070867
v 0.00291659 0.02177487 0.04880810
v 0.00240080 0.02177487 0.04887260
v -0.00116639 0.02177487 0.04836778
v -0.00110808 0.02177487 0.04746833
v 0.00314234 0.02177487 0.04831985
f 1 2 3
f 1 3 4
f 1 4 5
f 1 5 6
f 1 6 7
f 1 7 20
f 1 20 21
f 1 21 8
f 1 8 2
f 2 9 10
f 2 10 11
f 2 11 3
f 2 8 12
f 2 12 9
f 3 11 4
f 4 11 13
f 4 13 14
f 4 14 15
f 4 15 5
f 5 15 16
f 5 16 6
f 6 16 17
f 6 17 7
f 7 17 18
f 7 18 19
f 7 19 20
f 8 21 33
f 8 33 44
f 8 44 63
f 8 63 66
f 8 66 65
f 8 65 49
f 8 49 35
f 8 35 22
f 8 22 9
f 8 9 12
f 9 22 34
f 9 34 46
f 9 46 67
f 9 67 72
f 9 72 50
f 9 50 36
f 9 36 26
f 9 26 25
f 9 25 14
f 9 14 13
f 9 13 24
f 9 24 23
f 9 23 10
f 10 23 11
f 11 23 24
f 11 24 13
f 14 25 16
f 14 16 15
f 16 25 26
f 16 26 27
f 16 27 28
f 16 28 29
f 16 29 17
f 17 29 30
f 17 30 18
f 18 30 31
f 18 31 32
f 18 32 20
f 18 20 19
f 20 32 21
f 21 32 31
f 21 31 33
f 22 35 34
f 26 36 52
f 26 52 37
f 26 37 27
f 27 37 28
f 28 38 55
f 28 55 39
f 28 39 40
f 28 40 29
f 28 37 52
f 28 52 38
f 29 40 30
f 30 40 41
f 30 41 31
f 31 41 42
f 31 42 43
f 31 43 33
f 33 43 45
f 33 45 44
f 34 35 47
f 34 47 48
f 34 48 46
f 35 49 47
f 36 50 51
f 36 51 52
f 38 53 54
f 38 54 55
f 38 52 51
f 38 51 53
f 39 55 75
f 39 75 56
f 39 56 57
f 39 57 40
f 40 57 58
f 40 58 59
f 40 59 41
f 41 59 60
f 41 60 61
f 41 61 42
f 42 61 43
f 43 61 62
f 43 62 45
f 44 45 63
f 45 62 64
f 45 64 65
f 45 65 66
f 45 66 63
f 46 48 67
f 47 49 68
f 47 68 69
f 47 69 70
f 47 70 48
f 48 51 71
f 48 71 67
f 48 70 51
f 49 65 64
f 49 64 77
f 49 77 76
f 49 76 60
f 49 60 59
f 49 59 58
f 49 58 57
f 49 57 56
f 49 56 75
f 49 75 74
f 49 74 78
f 49 78 68
f 50 72 51
f 51 72 67
f 51 67 71
f 51 70 53
f 53 70 73
f 53 73 54
f 54 73 74
f 54 74 75
f 54 75 55
f 60 76 61
f 61 76 77
f 61 77 62
f 62 77 64
f 68 78 69
f 69 78 73
f 69 73 70
f 73 78 74

