# https://github.com/mikedh/trimesh
v 0.00347141 -0.02817546 0.04142504
v 0.00347095 -0.02817546 0.04152529
v 0.00345627 -0.02817546 0.04061894
v 0.00327043 -0.02668517 0.03663589
v 0.00327639 -0.02668517 0.04000929
v 0.00327639 -0.02668517 0.04154155
v 0.00327593 -0.02668517 0.04577659
v 0.00327593 -0.02817546 0.04658268
v 0.00311395 -0.02817546 0.03971259
v 0.00240088 -0.02814862 0.03663589
v 0.00253303 -0.02811084 0.03663589
v 0.00302310 -0.02797050 0.03663589
v 0.00324886 -0.02736904 0.03663589
v 0.00326997 -0.02670150 0.03663589
v 0.00084625 -0.02668517 0.03663589
v 0.00325896 -0.02668517 0.04594052
v 0.00327180 -0.02817546 0.04662468
v 0.00240088 -0.02817546 0.03900269
v 0.00155336 -0.02811259 0.03663589
v 0.00155336 -0.02817546 0.03909210
v -0.00121634 -0.02817546 0.03986433
v -0.00121634 -0.02668517 0.03936442
v 0.00085313 -0.02718932 0.03663589
v 0.00312267 -0.02668517 0.04662468
v 0.00271750 -0.02817546 0.05001434
v 0.00302723 -0.02817546 0.04845905
v 0.00318508 -0.02817546 0.04743077
v 0.00099859 -0.02793433 0.03663589
v -0.00121634 -0.02699574 0.03939287
v -0.00121634 -0.02817546 0.05047496
v -0.00121634 -0.02668517 0.04722078
v 0.00085589 -0.02736904 0.03663589
v 0.00307954 -0.02668517 0.04676287
v 0.00241143 -0.02817546 0.05039232
v 0.00289416 -0.02668517 0.04714492
v 0.00096831 -0.02781441 0.03663589
v -0.00060238 -0.02817546 0.05047496
v 0.00155336 -0.02668517 0.04722078
v 0.00197551 -0.02817546 0.05043974
v 0.00278357 -0.02668517 0.04717608
v 0.00109450 -0.02817546 0.05047361
v 0.00155336 -0.02817546 0.05047225
v 0.00222743 -0.02668517 0.04721672
v 0.00240088 -0.02668517 0.04721401
f 1 2 8
f 1 8 17
f 1 17 27
f 1 27 26
f 1 26 25
f 1 25 34
f 1 34 39
f 1 39 42
f 1 42 41
f 1 41 37
f 1 37 30
f 1 30 21
f 1 21 20
f 1 20 18
f 1 18 9
f 1 9 3
f 1 3 4
f 1 4 5
f 1 5 6
f 1 6 7
f 1 7 2
f 2 7 8
f 3 9 10
f 3 10 11
f 3 11 12
f 3 12 13
f 3 13 14
f 3 14 4
f 4 14 13
f 4 13 12
f 4 12 11
f 4 11 10
f 4 10 19
f 4 19 28
f 4 28 36
f 4 36 32
f 4 32 23
f 4 23 15
f 4 15 22
f 4 22 31
f 4 31 38
f 4 38 43
f 4 43 44
f 4 44 40
f 4 40 35
f 4 35 33
f 4 33 24
f 4 24 16
f 4 16 7
f 4 7 6
f 4 6 5
f 7 16 17
f 7 17 8
f 9 18 10
f 10 18 20
f 10 20 21
f 10 21 19
f 15 23 22
f 16 24 25
f 16 25 26
f 16 26 27
f 16 27 17
f 19 21 28
f 21 29 28
f 21 30 31
f 21 31 22
f 21 22 29
f 22 23 32
f 22 32 29
f 24 33 25
f 25 33 35
f 25 35 34
f 28 29 36
f 29 32 36
f 30 37 38
f 30 38 31
f 34 35 40
f 34 40 39
f 37 41 38
f 38 41 42
f 38 42 43
f 39 40 44
f 39 44 42
f 42 44 43

