# https://github.com/mikedh/trimesh
v 0.00823393 0.01076497 0.05679345
v 0.00823393 0.01076497 0.05879874
v 0.00823393 0.01821578 0.05679345
v 0.00849563 0.01076497 0.05606885
v 0.00849992 0.00991772 0.05607246
v 0.00824609 0.00991772 0.05679345
v 0.00824251 0.01022727 0.05879874
v 0.00823393 0.01821578 0.05879874
v 0.00849563 0.01821578 0.05606885
v 0.00918061 0.01076497 0.05575161
v 0.00918061 0.00991772 0.05576964
v 0.01087519 0.00336938 0.05602379
v 0.01043617 0.00336938 0.05634148
v 0.00858786 0.00933352 0.05617430
v 0.00824752 0.00991772 0.05879874
v 0.01041472 0.00336938 0.05679345
v 0.01041257 0.00336938 0.05764108
v 0.01473912 0.01821578 0.05879874
v 0.00918061 0.01821578 0.05575161
v 0.01553850 0.00336938 0.05419515
v 0.00850850 0.00926376 0.05879874
v 0.01041543 0.00336938 0.05776590
v 0.01043403 0.00336938 0.05811514
v 0.01511164 0.01821578 0.05874646
v 0.01482420 0.01754292 0.05879874
v 0.01511164 0.01669568 0.05877620
v 0.01511164 0.01754292 0.05876178
v 0.01553850 0.01821578 0.05499997
v 0.01553850 0.01156571 0.05463676
v 0.01553850 0.00336938 0.05863020
v 0.01055200 0.00336938 0.05822509
v 0.01087519 0.00336938 0.05851755
v 0.01110757 0.00336938 0.05861894
v 0.01154802 0.00336938 0.05879874
v 0.01553850 0.01821578 0.05846212
v 0.01553850 0.01669568 0.05850448
v 0.01553850 0.01754292 0.05848465
v 0.01511164 0.01584698 0.05878747
v 0.01511164 0.01493289 0.05879874
v 0.01553850 0.01161076 0.05858514
v 0.01553850 0.01245800 0.05857387
v 0.01553850 0.01330525 0.05856171
v 0.01553850 0.01415249 0.05854864
v 0.01553850 0.01497649 0.05853512
v 0.01553850 0.01584698 0.05851980
v 0.01522890 0.00336938 0.05879874
v 0.01553850 0.00447240 0.05863020
v 0.01512666 0.01415249 0.05879874
v 0.01553850 0.01076497 0.05859550
v 0.01522819 0.00411926 0.05879874
v 0.01553850 0.00483280 0.05862975
v 0.01522747 0.00483280 0.05879874
v 0.01514167 0.01330525 0.05879874
v 0.01553850 0.00991772 0.05860497
v 0.01553850 0.00568005 0.05862840
v 0.01522533 0.00568005 0.05879874
v 0.01515597 0.01245800 0.05879874
v 0.01553850 0.00907048 0.05861263
v 0.01516956 0.01161076 0.05879874
v 0.01553850 0.00652729 0.05862615
v 0.01522247 0.00652729 0.05879874
v 0.01518171 0.01076497 0.05879874
v 0.01519315 0.00991772 0.05879874
v 0.01553850 0.00822323 0.05861849
v 0.01553850 0.00737454 0.05862299
v 0.01521818 0.00737454 0.05879874
v 0.01520316 0.00907048 0.05879874
v 0.01521174 0.00822323 0.05879874
f 1 2 8
f 1 8 3
f 1 3 9
f 1 9 4
f 1 4 5
f 1 5 6
f 1 6 2
f 2 6 7
f 2 7 15
f 2 15 21
f 2 21 34
f 2 34 46
f 2 46 50
f 2 50 52
f 2 52 56
f 2 56 61
f 2 61 66
f 2 66 68
f 2 68 67
f 2 67 63
f 2 63 62
f 2 62 59
f 2 59 57
f 2 57 53
f 2 53 48
f 2 48 39
f 2 39 25
f 2 25 18
f 2 18 8
f 3 8 18
f 3 18 24
f 3 24 35
f 3 35 28
f 3 28 19
f 3 19 9
f 4 9 19
f 4 19 10
f 4 10 5
f 5 10 11
f 5 11 12
f 5 12 13
f 5 13 14
f 5 14 6
f 6 15 7
f 6 14 13
f 6 13 16
f 6 16 17
f 6 17 15
f 10 20 11
f 10 19 20
f 11 20 12
f 12 20 30
f 12 30 46
f 12 46 34
f 12 34 33
f 12 33 32
f 12 32 31
f 12 31 23
f 12 23 22
f 12 22 17
f 12 17 16
f 12 16 13
f 15 17 22
f 15 22 23
f 15 23 21
f 18 25 26
f 18 26 27
f 18 27 24
f 19 28 29
f 19 29 20
f 20 29 28
f 20 28 35
f 20 35 37
f 20 37 36
f 20 36 45
f 20 45 44
f 20 44 43
f 20 43 42
f 20 42 41
f 20 41 40
f 20 40 49
f 20 49 54
f 20 54 58
f 20 58 64
f 20 64 65
f 20 65 60
f 20 60 55
f 20 55 51
f 20 51 47
f 20 47 30
f 21 23 31
f 21 31 32
f 21 32 33
f 21 33 34
f 24 27 36
f 24 36 37
f 24 37 35
f 25 38 26
f 25 39 38
f 26 38 40
f 26 40 41
f 26 41 42
f 26 42 43
f 26 43 44
f 26 44 27
f 27 45 36
f 27 44 45
f 30 47 46
f 38 39 40
f 39 48 49
f 39 49 40
f 46 47 50
f 47 51 52
f 47 52 50
f 48 53 54
f 48 54 49
f 51 55 56
f 51 56 52
f 53 57 54
f 54 57 59
f 54 59 58
f 55 60 61
f 55 61 56
f 58 59 62
f 58 62 63
f 58 63 64
f 60 65 66
f 60 66 61
f 63 67 64
f 64 68 65
f 64 67 68
f 65 68 66

