# https://github.com/mikedh/trimesh
v 0.00327607 0.01052412 0.04831949
v 0.00305001 0.01052412 0.04898968
v 0.00312077 0.00679152 0.04878038
v 0.00327607 0.00679152 0.04831949
v 0.00327607 0.01052412 0.04181591
v 0.00305001 0.00679152 0.04898968
v 0.00240076 0.01052412 0.04925076
v 0.00327607 0.00679152 0.04181591
v -0.00125267 0.01052412 0.04181591
v 0.00240076 0.00679152 0.04925076
v 0.00216091 0.01052412 0.04925513
v -0.00127002 0.00679152 0.04181591
v -0.00120728 0.00679152 0.04831949
v -0.00116990 0.01052412 0.04831949
v 0.00155349 0.00679152 0.04926607
v 0.00155349 0.01052412 0.04926607
v -0.00117301 0.00679152 0.04841064
v -0.00094162 0.00679152 0.04899333
v -0.00086641 0.01052412 0.04898312
v 0.00070666 0.00679152 0.04926607
v 0.00070666 0.01052412 0.04926607
v -0.00072045 0.00679152 0.04907792
v -0.00014106 0.00906886 0.04926607
v -0.00014106 0.01052412 0.04924419
v -0.00014106 0.00822194 0.04926607
v -0.00014106 0.00679152 0.04924784
v 0.00046680 0.01052412 0.04926242
f 1 2 3
f 1 3 4
f 1 4 8
f 1 8 5
f 1 5 9
f 1 9 14
f 1 14 19
f 1 19 24
f 1 24 27
f 1 27 21
f 1 21 16
f 1 16 11
f 1 11 7
f 1 7 2
f 2 6 3
f 2 7 10
f 2 10 6
f 3 6 10
f 3 10 15
f 3 15 20
f 3 20 26
f 3 26 22
f 3 22 18
f 3 18 17
f 3 17 13
f 3 13 12
f 3 12 8
f 3 8 4
f 5 8 12
f 5 12 9
f 7 11 10
f 9 12 13
f 9 13 14
f 10 11 15
f 11 16 15
f 13 17 14
f 14 17 18
f 14 18 19
f 15 16 21
f 15 21 23
f 15 23 25
f 15 25 20
f 18 22 19
f 19 22 23
f 19 23 24
f 20 25 26
f 21 27 23
f 22 26 25
f 22 25 23
f 23 27 24

