# https://github.com/mikedh/trimesh
v 0.00618719 -0.03814696 0.04190579
v 0.00618719 -0.03807003 0.04108869
v 0.00638120 -0.03813872 0.04190579
v 0.00618719 -0.03623636 0.04190579
v 0.00663858 -0.03809292 0.04154006
v 0.00663858 -0.03812773 0.04190579
v 0.00618719 -0.03799309 0.04031131
v 0.00618977 -0.03548623 0.04190579
v 0.00618719 -0.03548623 0.04190528
v 0.00700397 -0.03810300 0.04190579
v 0.00665605 -0.03800316 0.04064196
v 0.00695029 -0.03795554 0.04032575
v 0.00618719 -0.03793447 0.03973201
v 0.01279260 -0.03384857 0.04190579
v 0.00618719 -0.02991197 0.04180881
v 0.00751357 -0.03806453 0.04190579
v 0.00729046 -0.03798393 0.04089060
v 0.00618719 -0.03790058 0.03940083
v 0.00618719 -0.03785936 0.03899847
v 0.00663858 -0.03783555 0.03899847
v 0.00748576 -0.03777052 0.03899847
v 0.01279260 -0.03699749 0.04190579
v 0.01279260 -0.02991197 0.04180881
v 0.01279260 -0.02969856 0.04171751
v 0.00618719 -0.02954652 0.04164735
v 0.00753815 -0.03801965 0.04148795
v 0.00785503 -0.03795554 0.04117071
v 0.00809302 -0.03798485 0.04173556
v 0.00816351 -0.03799309 0.04190579
v 0.00748576 -0.03785753 0.03984549
v 0.00753815 -0.03793355 0.04064196
v 0.00618719 -0.03776320 0.03815093
v 0.00663858 -0.03773938 0.03815093
v 0.00748576 -0.03767343 0.03815093
v 0.00833294 -0.03767527 0.03899847
v 0.01274409 -0.03702039 0.04190579
v 0.01279260 -0.03696818 0.04154006
v 0.01279260 -0.02912337 0.04146268
v 0.00618719 -0.02912978 0.04146268
v 0.00856705 -0.03794180 0.04190579
v 0.00918077 -0.03756994 0.03899847
v 0.00618719 -0.03770732 0.03769957
v 0.00618719 -0.03760016 0.03685203
v 0.00663858 -0.03763222 0.03730391
v 0.00663858 -0.03754704 0.03663640
v 0.00748576 -0.03756444 0.03730391
v 0.00833294 -0.03757818 0.03815093
v 0.01256237 -0.03708816 0.04190579
v 0.01270658 -0.03700573 0.04154006
v 0.01279260 -0.03681705 0.03984549
v 0.01279260 -0.02902903 0.04126975
v 0.01279260 -0.02878997 0.04068787
v 0.00618719 -0.02898232 0.04110313
v 0.00917624 -0.03786395 0.04190579
v 0.00918077 -0.03747285 0.03815093
v 0.01002730 -0.03745087 0.03899847
v 0.01002730 -0.03762398 0.04069303
v 0.01002730 -0.03771007 0.04154006
v 0.00618719 -0.03757268 0.03663640
v 0.00681837 -0.03753238 0.03663640
v 0.00748576 -0.03747743 0.03663640
v 0.00766555 -0.03745728 0.03663640
v 0.00833294 -0.03746827 0.03730391
v 0.01232115 -0.03717793 0.04190579
v 0.01228300 -0.03716327 0.04154006
v 0.01220539 -0.03713488 0.04087203
v 0.01252033 -0.03699657 0.04063113
v 0.01256948 -0.03690590 0.03984549
v 0.01279260 -0.03673829 0.03899847
v 0.01279260 -0.02886783 0.04050475
v 0.00618719 -0.02881470 0.04069303
v 0.01002730 -0.03774671 0.04190579
v 0.00918077 -0.03736202 0.03730391
v 0.01002730 -0.03735103 0.03815093
v 0.01087448 -0.03736935 0.03984549
v 0.01087448 -0.03754704 0.04154006
v 0.01087448 -0.03728051 0.03899847
v 0.00618719 -0.03181707 0.03663640
v 0.00833294 -0.03738034 0.03663640
v 0.00851273 -0.03735836 0.03663640
v 0.01172231 -0.03736202 0.04190579
v 0.01213231 -0.03711015 0.04030718
v 0.01256948 -0.03682438 0.03899847
v 0.01279260 -0.03665402 0.03816486
v 0.01279260 -0.02913985 0.04003275
v 0.00618719 -0.02898140 0.04040467
v 0.01087448 -0.03758367 0.04190579
v 0.00918077 -0.03727409 0.03663640
v 0.00990313 -0.03716877 0.03663640
v 0.01010426 -0.03721365 0.03722911
v 0.01043796 -0.03711106 0.03689691
v 0.01060092 -0.03715045 0.03746176
v 0.01088030 -0.03718434 0.03820922
v 0.01161043 -0.03718983 0.03984549
v 0.01203402 -0.03708633 0.03984549
v 0.01132329 -0.03711931 0.03853008
v 0.01185100 -0.03704145 0.03899847
v 0.00618719 -0.02917283 0.04007659
v 0.01279260 -0.03171083 0.03663640
v 0.01172231 -0.03732905 0.04154006
v 0.01256948 -0.03673554 0.03815093
v 0.01279260 -0.03655877 0.03730391
v 0.01033578 -0.03709366 0.03663640
v 0.01087577 -0.03697093 0.03663640
v 0.01172231 -0.03677309 0.03663640
v 0.01165246 -0.03699566 0.03820922
v 0.01256948 -0.03663479 0.03730391
v 0.01279260 -0.03647633 0.03663640
v 0.01256948 -0.03655052 0.03663640
f 1 2 3
f 1 3 6
f 1 6 10
f 1 10 16
f 1 16 29
f 1 29 40
f 1 40 54
f 1 54 72
f 1 72 87
f 1 87 81
f 1 81 64
f 1 64 48
f 1 48 36
f 1 36 22
f 1 22 14
f 1 14 8
f 1 8 4
f 1 4 9
f 1 9 15
f 1 15 25
f 1 25 39
f 1 39 53
f 1 53 71
f 1 71 86
f 1 86 98
f 1 98 78
f 1 78 59
f 1 59 43
f 1 43 42
f 1 42 32
f 1 32 19
f 1 19 18
f 1 18 13
f 1 13 7
f 1 7 2
f 2 5 6
f 2 6 3
f 2 7 5
f 4 8 9
f 5 10 6
f 5 7 11
f 5 11 12
f 5 12 10
f 7 13 11
f 8 14 15
f 8 15 9
f 10 12 16
f 11 13 12
f 12 17 16
f 12 13 18
f 12 18 19
f 12 19 20
f 12 20 21
f 12 21 17
f 14 22 37
f 14 37 50
f 14 50 69
f 14 69 84
f 14 84 102
f 14 102 108
f 14 108 99
f 14 99 85
f 14 85 70
f 14 70 52
f 14 52 51
f 14 51 38
f 14 38 24
f 14 24 23
f 14 23 15
f 15 23 24
f 15 24 25
f 16 17 26
f 16 26 27
f 16 27 28
f 16 28 29
f 17 21 30
f 17 30 31
f 17 31 27
f 17 27 26
f 19 32 33
f 19 33 20
f 20 33 21
f 21 33 34
f 21 34 47
f 21 47 35
f 21 35 27
f 21 27 30
f 22 36 37
f 24 38 25
f 25 38 39
f 27 31 30
f 27 35 28
f 28 40 29
f 28 35 41
f 28 41 40
f 32 42 33
f 33 42 43
f 33 43 44
f 33 44 34
f 34 44 45
f 34 45 46
f 34 46 47
f 35 47 55
f 35 55 41
f 36 48 49
f 36 49 37
f 37 49 50
f 38 51 39
f 39 51 52
f 39 52 53
f 40 41 54
f 41 55 56
f 41 56 57
f 41 57 58
f 41 58 54
f 43 59 44
f 44 59 45
f 45 59 78
f 45 78 99
f 45 99 108
f 45 108 109
f 45 109 105
f 45 105 104
f 45 104 103
f 45 103 89
f 45 89 88
f 45 88 80
f 45 80 79
f 45 79 62
f 45 62 61
f 45 61 60
f 45 60 46
f 46 60 61
f 46 61 62
f 46 62 63
f 46 63 47
f 47 63 55
f 48 64 49
f 49 64 65
f 49 65 66
f 49 66 67
f 49 67 68
f 49 68 50
f 50 68 69
f 52 70 71
f 52 71 53
f 54 58 72
f 55 63 73
f 55 73 74
f 55 74 56
f 56 75 76
f 56 76 57
f 56 74 77
f 56 77 75
f 57 76 58
f 58 76 87
f 58 87 72
f 62 79 63
f 63 79 80
f 63 80 73
f 64 81 65
f 65 81 66
f 66 81 82
f 66 82 67
f 67 82 68
f 68 83 69
f 68 82 83
f 69 83 84
f 70 85 71
f 71 85 86
f 73 80 88
f 73 88 74
f 74 88 89
f 74 89 90
f 74 90 91
f 74 91 92
f 74 92 93
f 74 93 77
f 75 77 94
f 75 94 76
f 76 94 95
f 76 95 82
f 76 82 87
f 77 95 94
f 77 93 96
f 77 96 97
f 77 97 95
f 78 98 99
f 81 87 100
f 81 100 82
f 82 100 87
f 82 95 101
f 82 101 83
f 83 101 84
f 84 101 102
f 85 99 98
f 85 98 86
f 89 103 91
f 89 91 90
f 91 103 104
f 91 104 105
f 91 105 92
f 92 105 93
f 93 105 96
f 95 97 101
f 96 105 106
f 96 106 97
f 97 106 107
f 97 107 101
f 101 107 102
f 102 107 108
f 105 109 106
f 106 109 107
f 107 109 108

