# https://github.com/mikedh/trimesh
v 0.01428834 0.01952343 0.08729891
v 0.01423892 0.02093305 0.08729891
v 0.01424834 0.01952343 0.08786179
v 0.01422088 0.01952343 0.08701671
v 0.01402634 0.02262754 0.08646458
v 0.01401065 0.02347478 0.08647224
v 0.01399496 0.02432203 0.08648298
v 0.01398476 0.02489281 0.08649218
v 0.01402477 0.02489281 0.08675905
v 0.01420911 0.02178029 0.08729891
v 0.01414636 0.02008580 0.08899366
v 0.01416440 0.01952343 0.08899366
v 0.01407968 0.01952343 0.08645691
v 0.01407027 0.02008580 0.08645691
v 0.01404124 0.02178029 0.08645997
v 0.00997936 0.02489281 0.07975613
v 0.01409615 0.02489281 0.08729891
v 0.01414793 0.02347478 0.08729891
v 0.01411576 0.02093305 0.08899366
v 0.01404830 0.02093305 0.08984181
v 0.01407576 0.02008580 0.08984181
v 0.01409066 0.01952343 0.08984181
v 0.00996289 0.01952343 0.08240484
v 0.00984365 0.02369027 0.07991870
v 0.00997308 0.02432203 0.07978527
v 0.00943966 0.02489281 0.07952914
v 0.01396986 0.02489281 0.08899366
v 0.01399104 0.02432203 0.08899366
v 0.01401614 0.02178029 0.08984181
v 0.01384591 0.02485918 0.09028965
v 0.01385768 0.02432203 0.09034026
v 0.01387494 0.02347478 0.09041695
v 0.01389220 0.02262754 0.09049210
v 0.01390945 0.02178029 0.09055958
v 0.01392514 0.02093305 0.09061173
v 0.01393769 0.02008580 0.09065927
v 0.01393299 0.01952343 0.09073902
v 0.00969931 0.01952343 0.08232509
v 0.00918079 0.01952343 0.08216865
v 0.00918079 0.02358621 0.07982821
v 0.00918079 0.02432203 0.07948159
v 0.00918079 0.02489281 0.07942945
v 0.01394632 0.02489281 0.08927126
v 0.01391730 0.02432203 0.08984181
v 0.01384984 0.02489281 0.09024364
v 0.01383572 0.02489281 0.09032799
v 0.01376119 0.02432203 0.09076356
v 0.01379571 0.02262754 0.09091693
v 0.01380983 0.02178029 0.09098288
v 0.01382160 0.02093305 0.09103657
v 0.01383964 0.01962276 0.09110865
v 0.01386788 0.01952343 0.09100436
v 0.00850616 0.01952343 0.08240484
v 0.00858932 0.02369027 0.07991870
v 0.00850067 0.02432203 0.07979447
v 0.00849753 0.02489281 0.07977300
v 0.01389141 0.02489281 0.08987094
v 0.01336505 0.02489281 0.09238316
v 0.01358391 0.02432203 0.09153655
v 0.01338779 0.02432203 0.09238316
v 0.01364823 0.02262754 0.09153655
v 0.01341603 0.02347478 0.09238316
v 0.01367412 0.02178029 0.09153655
v 0.01344114 0.02262754 0.09238316
v 0.01369765 0.02093305 0.09153655
v 0.01378002 0.01952343 0.09135864
v 0.01352586 0.01952343 0.09238316
v 0.00662819 0.01952343 0.08473915
v 0.00661250 0.01952343 0.08477596
v 0.00824259 0.02489281 0.08052145
v 0.01312265 0.02489281 0.09320370
v 0.01316893 0.02347478 0.09323130
v 0.01329052 0.02008580 0.09323130
v 0.01337995 0.01952343 0.09294603
v 0.01348742 0.02093305 0.09238316
v 0.00635363 0.01952343 0.08560570
v 0.00645169 0.02347478 0.08984181
v 0.00670585 0.02432203 0.08984181
v 0.00660309 0.02489281 0.09210710
v 0.01305754 0.02489281 0.09336780
v 0.01299792 0.02398145 0.09366074
v 0.01311402 0.02428734 0.09329879
v 0.01316109 0.01952343 0.09369602
v 0.01330543 0.01952343 0.09323130
v 0.00633010 0.01952343 0.08645384
v 0.00627440 0.01952343 0.09323130
v 0.00647444 0.02432203 0.09238316
v 0.00650739 0.02489281 0.09295370
v 0.01295086 0.02489281 0.09360399
v 0.01297125 0.02454645 0.09362700
v 0.01309127 0.01952343 0.09389540
v 0.01250529 0.01952343 0.09468986
v 0.01295399 0.01952343 0.09417761
v 0.00627597 0.01952343 0.09331412
v 0.00651288 0.02489281 0.09323130
v 0.01255157 0.02489281 0.09381565
v 0.01238841 0.01952343 0.09476195
v 0.00635206 0.01952343 0.09407791
v 0.00636226 0.01952343 0.09410552
v 0.00670271 0.01952343 0.09484937
v 0.00681332 0.02489281 0.09382792
v 0.01225270 0.02489281 0.09388927
v 0.01172241 0.01952343 0.09503035
v 0.01185106 0.01952343 0.09499507
v 0.00678665 0.01952343 0.09487544
v 0.00748559 0.02489281 0.09399969
v 0.00748559 0.01952343 0.09508096
v 0.01172241 0.02489281 0.09399969
v 0.01096777 0.01952343 0.09507789
v 0.00756482 0.01952343 0.09508249
v 0.00833358 0.01952343 0.09509630
v 0.00841125 0.01952343 0.09509630
v 0.00926002 0.01952343 0.09509476
v 0.01002800 0.01952343 0.09509170
v 0.01087442 0.01952343 0.09508096
f 1 2 3
f 1 3 12
f 1 12 22
f 1 22 37
f 1 37 52
f 1 52 66
f 1 66 67
f 1 67 74
f 1 74 84
f 1 84 83
f 1 83 91
f 1 91 93
f 1 93 92
f 1 92 97
f 1 97 104
f 1 104 103
f 1 103 109
f 1 109 115
f 1 115 114
f 1 114 113
f 1 113 112
f 1 112 111
f 1 111 110
f 1 110 107
f 1 107 105
f 1 105 100
f 1 100 99
f 1 99 98
f 1 98 94
f 1 94 86
f 1 86 85
f 1 85 76
f 1 76 69
f 1 69 68
f 1 68 53
f 1 53 39
f 1 39 38
f 1 38 23
f 1 23 13
f 1 13 4
f 1 4 5
f 1 5 6
f 1 6 7
f 1 7 8
f 1 8 9
f 1 9 2
f 2 9 10
f 2 10 3
f 3 10 11
f 3 11 12
f 4 13 14
f 4 14 15
f 4 15 5
f 5 15 16
f 5 16 6
f 6 16 7
f 7 16 8
f 8 16 26
f 8 26 42
f 8 42 56
f 8 56 70
f 8 70 79
f 8 79 88
f 8 88 95
f 8 95 101
f 8 101 106
f 8 106 108
f 8 108 102
f 8 102 96
f 8 96 89
f 8 89 80
f 8 80 71
f 8 71 58
f 8 58 46
f 8 46 45
f 8 45 57
f 8 57 43
f 8 43 27
f 8 27 17
f 8 17 9
f 9 17 18
f 9 18 10
f 10 18 19
f 10 19 11
f 11 19 20
f 11 20 21
f 11 21 12
f 12 21 22
f 13 23 24
f 13 24 25
f 13 25 16
f 13 16 14
f 14 16 15
f 16 25 26
f 17 27 28
f 17 28 19
f 17 19 18
f 19 28 20
f 20 29 30
f 20 30 31
f 20 31 32
f 20 32 33
f 20 33 34
f 20 34 21
f 20 28 27
f 20 27 29
f 21 34 35
f 21 35 22
f 22 35 36
f 22 36 37
f 23 38 24
f 24 38 39
f 24 39 40
f 24 40 41
f 24 41 25
f 25 41 42
f 25 42 26
f 27 43 29
f 29 43 44
f 29 44 45
f 29 45 30
f 30 45 46
f 30 46 31
f 31 46 47
f 31 47 48
f 31 48 32
f 32 48 33
f 33 48 34
f 34 48 49
f 34 49 35
f 35 49 50
f 35 50 36
f 36 50 51
f 36 51 52
f 36 52 37
f 39 53 54
f 39 54 40
f 40 54 41
f 41 54 55
f 41 55 42
f 42 55 56
f 43 57 44
f 44 57 45
f 46 58 47
f 47 58 59
f 47 59 48
f 48 59 58
f 48 58 60
f 48 60 49
f 49 60 61
f 49 61 62
f 49 62 63
f 49 63 50
f 50 63 64
f 50 64 65
f 50 65 51
f 51 66 52
f 51 65 67
f 51 67 66
f 53 68 54
f 54 68 55
f 55 68 69
f 55 69 56
f 56 69 70
f 58 71 60
f 60 71 72
f 60 72 73
f 60 73 62
f 60 62 61
f 62 73 64
f 62 64 63
f 64 73 74
f 64 74 75
f 64 75 65
f 65 75 67
f 67 75 74
f 69 76 70
f 70 76 77
f 70 77 78
f 70 78 79
f 71 80 81
f 71 81 82
f 71 82 72
f 72 82 83
f 72 83 73
f 73 83 84
f 73 84 74
f 76 85 77
f 77 86 87
f 77 87 88
f 77 88 79
f 77 79 78
f 77 85 86
f 80 89 90
f 80 90 81
f 81 91 82
f 81 90 92
f 81 92 93
f 81 93 91
f 82 91 83
f 86 94 88
f 86 88 87
f 88 94 95
f 89 96 97
f 89 97 92
f 89 92 90
f 94 98 95
f 95 98 99
f 95 99 100
f 95 100 101
f 96 102 103
f 96 103 104
f 96 104 97
f 100 105 101
f 101 105 107
f 101 107 106
f 102 108 103
f 103 108 109
f 106 107 110
f 106 110 111
f 106 111 112
f 106 112 108
f 108 112 113
f 108 113 114
f 108 114 115
f 108 115 109

