# https://github.com/mikedh/trimesh
v 0.01507118 -0.03022193 0.05879874
v 0.01502771 -0.03075863 0.05879874
v 0.01506717 -0.02997143 0.05879874
v 0.01468934 -0.03033353 0.06575133
v 0.01468934 -0.03037322 0.06575133
v 0.01466727 -0.03069365 0.06606351
v 0.01499294 -0.03106915 0.05879874
v 0.01459305 -0.03156865 0.06606351
v 0.01458904 -0.03160635 0.06606351
v 0.00823960 -0.02997143 0.05879874
v 0.01480637 -0.02997143 0.06023377
v 0.01434027 -0.03023235 0.06606351
v 0.01493075 -0.03160635 0.05879874
v 0.01443122 -0.03245356 0.06606351
v 0.01478096 -0.03247093 0.05879874
v 0.01488728 -0.03187569 0.05879874
v 0.00823960 -0.02997143 0.06606351
v 0.00823960 -0.03291189 0.05879874
v 0.01172159 -0.02997143 0.06606351
v 0.01341678 -0.03008106 0.06606351
v 0.01346827 -0.03008850 0.06606351
v 0.01423127 -0.03324919 0.06606351
v 0.01459037 -0.03329384 0.05879874
v 0.01466727 -0.03297489 0.05879874
v 0.01471342 -0.03277400 0.05879874
v 0.00823960 -0.03362667 0.06606351
v 0.01123744 -0.03503837 0.05879874
v 0.01421790 -0.03330078 0.06606351
v 0.01432422 -0.03414800 0.05879874
v 0.01104619 -0.03503837 0.06272482
v 0.01099938 -0.03503837 0.06591205
v 0.01099671 -0.03503540 0.06606351
v 0.01110036 -0.03503837 0.06103093
v 0.01106960 -0.03503837 0.06187859
v 0.01393303 -0.03503837 0.05879874
v 0.01398318 -0.03397687 0.06606351
v 0.01421790 -0.03439998 0.05879874
v 0.01396713 -0.03402250 0.06606351
v 0.01395643 -0.03404830 0.06606351
v 0.01286108 -0.03503837 0.06606351
v 0.01400391 -0.03489899 0.05879874
v 0.01352244 -0.03499522 0.06606351
v 0.01349970 -0.03503589 0.06606351
v 0.01352043 -0.03503837 0.06532324
v 0.01378457 -0.03444611 0.06606351
v 0.01353782 -0.03496347 0.06606351
f 1 2 7
f 1 7 13
f 1 13 16
f 1 16 15
f 1 15 25
f 1 25 24
f 1 24 23
f 1 23 29
f 1 29 37
f 1 37 41
f 1 41 35
f 1 35 27
f 1 27 18
f 1 18 10
f 1 10 3
f 1 3 4
f 1 4 5
f 1 5 6
f 1 6 2
f 2 6 8
f 2 8 9
f 2 9 7
f 3 10 17
f 3 17 19
f 3 19 11
f 3 11 4
f 4 12 6
f 4 6 5
f 4 11 12
f 6 12 21
f 6 21 20
f 6 20 19
f 6 19 17
f 6 17 26
f 6 26 32
f 6 32 40
f 6 40 43
f 6 43 42
f 6 42 46
f 6 46 45
f 6 45 39
f 6 39 38
f 6 38 36
f 6 36 28
f 6 28 22
f 6 22 14
f 6 14 9
f 6 9 8
f 7 9 13
f 9 14 15
f 9 15 16
f 9 16 13
f 10 18 26
f 10 26 17
f 11 19 20
f 11 20 21
f 11 21 12
f 14 22 23
f 14 23 24
f 14 24 25
f 14 25 15
f 18 27 26
f 22 28 23
f 23 28 29
f 26 30 31
f 26 31 32
f 26 27 33
f 26 33 34
f 26 34 30
f 27 35 44
f 27 44 40
f 27 40 31
f 27 31 30
f 27 30 34
f 27 34 33
f 28 36 29
f 29 36 38
f 29 38 39
f 29 39 37
f 31 40 32
f 35 41 42
f 35 42 43
f 35 43 44
f 37 39 41
f 39 45 41
f 40 44 43
f 41 45 46
f 41 46 42

