# https://github.com/mikedh/trimesh
v -0.00444364 -0.02817546 0.04369334
v -0.00433149 -0.02786303 0.04369334
v -0.00121634 -0.02817546 0.04369334
v -0.00435203 -0.02817546 0.04662523
v -0.00433528 -0.02736885 0.04577787
v -0.00421619 -0.02567430 0.04662523
v -0.00422314 -0.02567430 0.04577787
v -0.00407245 -0.02513354 0.04577787
v -0.00398684 -0.02521695 0.04533095
v -0.00431349 -0.02781716 0.04369334
v -0.00121634 -0.02713670 0.04369334
v -0.00121634 -0.02817546 0.05047620
v -0.00426326 -0.02817546 0.04746861
v -0.00413342 -0.02817546 0.04842886
v -0.00385131 -0.02817546 0.04962685
v -0.00374896 -0.02817546 0.05001400
v -0.00400737 -0.02520270 0.04708876
v -0.00408793 -0.02512277 0.04662523
v -0.00353067 -0.02499036 0.04662523
v -0.00353067 -0.02501156 0.04577787
v -0.00121634 -0.02472381 0.04571744
v -0.00353067 -0.02519819 0.04531833
v -0.00353067 -0.02715755 0.04369334
v -0.00374138 -0.02724930 0.04369334
v -0.00417038 -0.02745504 0.04369334
v -0.00125172 -0.02713635 0.04369334
v -0.00121634 -0.02508420 0.04531700
v -0.00121634 -0.02494623 0.04714786
v -0.00183615 -0.02817546 0.05047686
v -0.00366935 -0.02817546 0.05017869
v -0.00350792 -0.02817546 0.05029291
v -0.00268341 -0.02817546 0.05047620
v -0.00121634 -0.02462511 0.04662523
v -0.00268341 -0.02713601 0.04369334
v -0.00209930 -0.02713601 0.04369334
f 1 2 10
f 1 10 25
f 1 25 24
f 1 24 23
f 1 23 34
f 1 34 35
f 1 35 26
f 1 26 11
f 1 11 3
f 1 3 12
f 1 12 29
f 1 29 32
f 1 32 31
f 1 31 30
f 1 30 16
f 1 16 15
f 1 15 14
f 1 14 13
f 1 13 4
f 1 4 5
f 1 5 6
f 1 6 7
f 1 7 8
f 1 8 9
f 1 9 2
f 2 9 10
f 3 11 27
f 3 27 21
f 3 21 33
f 3 33 28
f 3 28 12
f 4 6 5
f 4 13 6
f 6 13 14
f 6 14 15
f 6 15 16
f 6 16 17
f 6 17 18
f 6 18 7
f 7 18 8
f 8 18 19
f 8 19 20
f 8 20 9
f 9 20 21
f 9 21 22
f 9 22 23
f 9 23 24
f 9 24 25
f 9 25 10
f 11 26 27
f 12 28 29
f 16 30 17
f 17 30 31
f 17 31 32
f 17 32 28
f 17 28 33
f 17 33 19
f 17 19 18
f 19 33 20
f 20 33 21
f 21 27 22
f 22 27 23
f 23 27 34
f 26 35 27
f 27 35 34
f 28 32 29

