# https://github.com/mikedh/trimesh
v 0.00630212 -0.01550300 0.02289019
v 0.00630212 -0.01492462 0.02288965
v 0.00630212 -0.02726486 0.02287112
v 0.00632619 -0.02726486 0.02287112
v 0.00653731 -0.02726486 0.02276975
v 0.00653731 -0.01042717 0.02276975
v 0.00653731 -0.00363009 0.02276948
v 0.00630212 -0.01153534 0.02288420
v 0.00630212 -0.02726486 0.02010656
v 0.00877710 -0.02726486 0.02010656
v 0.00877783 -0.02651760 0.02010656
v 0.00878610 -0.01634974 0.02010656
v 0.00878659 -0.01550531 0.02010656
v 0.00878683 -0.01505418 0.02010656
v 0.00875497 -0.00406735 0.02010656
v 0.00875302 -0.00363009 0.02010656
v 0.00630212 -0.00363009 0.02286294
v 0.00630212 -0.01068860 0.02288256
v 0.00878659 -0.01420744 0.02010656
v 0.00878537 -0.01336070 0.02010656
v 0.00878367 -0.01251627 0.02010656
v 0.00878148 -0.01166721 0.02010656
v 0.00877905 -0.01082278 0.02010656
v 0.00630212 -0.00363009 0.02010656
f 1 2 8
f 1 8 18
f 1 18 17
f 1 17 24
f 1 24 9
f 1 9 3
f 1 3 4
f 1 4 5
f 1 5 6
f 1 6 7
f 1 7 2
f 2 7 8
f 3 9 10
f 3 10 5
f 3 5 4
f 5 10 11
f 5 11 12
f 5 12 13
f 5 13 14
f 5 14 6
f 6 14 7
f 7 15 16
f 7 16 24
f 7 24 17
f 7 17 18
f 7 18 8
f 7 14 19
f 7 19 20
f 7 20 21
f 7 21 22
f 7 22 23
f 7 23 15
f 9 24 16
f 9 16 15
f 9 15 23
f 9 23 22
f 9 22 21
f 9 21 20
f 9 20 19
f 9 19 14
f 9 14 13
f 9 13 12
f 9 12 11
f 9 11 10

