# https://github.com/mikedh/trimesh
v 0.00155391 0.03332826 0.04580706
v 0.00108251 0.03330649 0.04580706
v 0.00196443 0.03332717 0.04580706
v 0.00324804 0.03532382 0.04479059
v 0.00155391 0.03532382 0.04479059
v 0.00070632 0.03532164 0.04477959
v 0.00070632 0.03328254 0.04580706
v 0.00240097 0.03332064 0.04580706
v 0.00324804 0.03449097 0.04518704
v 0.00389582 0.03518664 0.04469529
v 0.00324804 0.03574731 0.04449249
v 0.00155391 0.03574731 0.04449249
v 0.00070632 0.03574514 0.04449004
v 0.00013658 0.03518446 0.04468124
v -0.00093942 0.03292545 0.04580401
v -0.00016468 0.03303976 0.04580706
v 0.00272877 0.03323463 0.04580706
v 0.00325480 0.03288408 0.04580706
v 0.00329018 0.03285577 0.04580706
v 0.00401602 0.03449097 0.04484618
v 0.00407845 0.03541744 0.04416140
v 0.00389843 0.03597376 0.04393171
v 0.00324804 0.03608045 0.04406855
v 0.00155391 0.03608045 0.04406855
v 0.00070632 0.03606847 0.04406610
v 0.00013658 0.03595852 0.04392866
v -0.00093942 0.03292654 0.04571299
v -0.00093942 0.03266961 0.04580706
v 0.00009860 0.03621871 0.04317180
v 0.00000911 0.03618496 0.04238806
v 0.00000182 0.03618496 0.04154079
v 0.00370539 0.03334350 0.04536907
v 0.00353369 0.03210894 0.04580706
v 0.00436046 0.03449097 0.04408260
v 0.00376783 0.03279589 0.04542466
v 0.00411956 0.03279589 0.04492986
v 0.00433757 0.03533797 0.04323472
v 0.00396398 0.03622851 0.04317241
v 0.00369759 0.03661935 0.04284804
v 0.00324804 0.03650395 0.04329031
v 0.00155391 0.03650395 0.04329031
v 0.00070632 0.03649197 0.04328908
v 0.00026822 0.03661826 0.04284682
v -0.00093942 0.03278827 0.04232087
v -0.00093942 0.02866543 0.04580706
v 0.00022868 0.03664656 0.04238806
v 0.00022087 0.03665201 0.04154079
v 0.00025833 0.03662588 0.04109181
v -0.00093942 0.03209805 0.03956648
v -0.00093942 0.03254550 0.04089389
v -0.00093942 0.03274364 0.04154079
v 0.00354930 0.03194890 0.04580706
v 0.00381362 0.03194890 0.04547231
v 0.00437399 0.03364289 0.04408260
v 0.00436358 0.03533797 0.04154079
v 0.00416587 0.03194890 0.04492986
v 0.00411644 0.03618496 0.04238806
v 0.00376471 0.03664765 0.04238806
v 0.00324804 0.03668576 0.04238806
v 0.00324804 0.03662370 0.04286637
v 0.00155391 0.03662370 0.04286637
v 0.00070632 0.03662370 0.04286576
v 0.00070632 0.03668467 0.04238806
v -0.00093942 0.02607981 0.04455418
v -0.00077604 0.02557466 0.04456457
v 0.00074534 0.02557466 0.04580706
v 0.00070632 0.03669556 0.04154079
v 0.00070632 0.03663459 0.04107898
v 0.00070632 0.03618496 0.04077905
v 0.00155391 0.03533797 0.04048461
v -0.00062879 0.03211982 0.03956648
v -0.00093942 0.02557466 0.03956648
v 0.00354930 0.02557466 0.04580706
v 0.00363879 0.02557466 0.04569405
v 0.00381362 0.02557466 0.04547231
v 0.00437555 0.03279589 0.04408260
v 0.00437555 0.03279589 0.04238806
v 0.00401706 0.03533797 0.04080104
v 0.00387657 0.03618496 0.04093970
v 0.00412580 0.03618496 0.04154079
v 0.00436931 0.03279589 0.04154079
v 0.00416587 0.02557466 0.04492986
v 0.00426628 0.02557466 0.04452486
v 0.00377719 0.03665310 0.04154079
v 0.00324804 0.03669664 0.04154079
v 0.00155391 0.03668576 0.04238806
v -0.00093942 0.02557466 0.04421699
v 0.00155391 0.03669664 0.04154079
v 0.00155391 0.03663459 0.04107837
v 0.00155391 0.03618496 0.04076255
v 0.00324804 0.03533797 0.04048461
v -0.00014074 0.03212744 0.03956648
v 0.00136972 0.02557466 0.03956648
v 0.00437555 0.02557466 0.04408260
v 0.00437555 0.02557466 0.04238806
v 0.00401706 0.03449097 0.04080043
v 0.00187338 0.03025491 0.03956648
v 0.00185309 0.03110190 0.03956648
v 0.00324804 0.03618496 0.04076255
v 0.00371476 0.03662588 0.04109120
v 0.00436931 0.02557466 0.04154079
v 0.00420125 0.02557466 0.04118710
v 0.00324804 0.03663459 0.04107837
v 0.00183227 0.03115961 0.03956648
v 0.00154142 0.03186616 0.03956648
v 0.00070632 0.03212418 0.03956648
v 0.00022087 0.03212635 0.03956648
v 0.00178545 0.02879716 0.03956648
v 0.00401706 0.02557466 0.04080043
v 0.00186453 0.02943513 0.03956648
v 0.00186349 0.02940683 0.03956648
f 1 2 7
f 1 7 16
f 1 16 28
f 1 28 45
f 1 45 66
f 1 66 73
f 1 73 52
f 1 52 33
f 1 33 19
f 1 19 18
f 1 18 17
f 1 17 8
f 1 8 3
f 1 3 4
f 1 4 5
f 1 5 6
f 1 6 2
f 2 6 7
f 3 8 4
f 4 9 10
f 4 10 11
f 4 11 12
f 4 12 5
f 4 8 9
f 5 12 13
f 5 13 6
f 6 13 14
f 6 14 15
f 6 15 7
f 7 15 16
f 8 17 9
f 9 17 18
f 9 18 19
f 9 19 10
f 10 19 20
f 10 20 21
f 10 21 22
f 10 22 11
f 11 22 23
f 11 23 24
f 11 24 12
f 12 24 13
f 13 24 25
f 13 25 26
f 13 26 14
f 14 26 15
f 15 27 44
f 15 44 51
f 15 51 50
f 15 50 49
f 15 49 72
f 15 72 87
f 15 87 64
f 15 64 45
f 15 45 28
f 15 28 16
f 15 26 29
f 15 29 30
f 15 30 31
f 15 31 27
f 19 32 20
f 19 33 32
f 20 34 21
f 20 32 33
f 20 33 35
f 20 35 36
f 20 36 34
f 21 34 37
f 21 37 22
f 22 38 39
f 22 39 40
f 22 40 23
f 22 37 38
f 23 40 41
f 23 41 24
f 24 41 42
f 24 42 25
f 25 42 43
f 25 43 26
f 26 43 29
f 27 31 44
f 29 43 46
f 29 46 30
f 30 46 47
f 30 47 31
f 31 47 48
f 31 48 49
f 31 49 50
f 31 50 51
f 31 51 44
f 33 52 53
f 33 53 35
f 34 54 55
f 34 55 37
f 34 36 56
f 34 56 54
f 35 53 36
f 36 53 56
f 37 55 57
f 37 57 38
f 38 57 58
f 38 58 39
f 39 58 59
f 39 59 60
f 39 60 40
f 40 60 61
f 40 61 41
f 41 61 62
f 41 62 42
f 42 62 43
f 43 62 63
f 43 63 46
f 45 64 65
f 45 65 66
f 46 63 67
f 46 67 47
f 47 67 48
f 48 67 68
f 48 68 69
f 48 69 49
f 49 69 70
f 49 70 71
f 49 71 92
f 49 92 107
f 49 107 106
f 49 106 105
f 49 105 104
f 49 104 98
f 49 98 97
f 49 97 110
f 49 110 111
f 49 111 108
f 49 108 93
f 49 93 72
f 52 73 74
f 52 74 53
f 53 74 75
f 53 75 82
f 53 82 56
f 54 56 76
f 54 76 77
f 54 77 55
f 55 78 79
f 55 79 80
f 55 80 57
f 55 77 81
f 55 81 78
f 56 82 83
f 56 83 76
f 57 80 84
f 57 84 58
f 58 84 85
f 58 85 59
f 59 85 88
f 59 88 86
f 59 86 61
f 59 61 60
f 61 86 62
f 62 86 63
f 63 86 88
f 63 88 67
f 64 87 65
f 65 87 72
f 65 72 93
f 65 93 109
f 65 109 102
f 65 102 101
f 65 101 95
f 65 95 94
f 65 94 83
f 65 83 82
f 65 82 75
f 65 75 74
f 65 74 73
f 65 73 66
f 67 88 68
f 68 89 90
f 68 90 69
f 68 88 89
f 69 90 70
f 70 90 99
f 70 99 91
f 70 91 92
f 70 92 71
f 76 83 94
f 76 94 95
f 76 95 77
f 77 95 101
f 77 101 81
f 78 91 79
f 78 81 96
f 78 96 97
f 78 97 98
f 78 98 91
f 79 99 100
f 79 100 80
f 79 91 99
f 80 100 84
f 81 101 102
f 81 102 96
f 84 100 85
f 85 100 103
f 85 103 89
f 85 89 88
f 89 103 99
f 89 99 90
f 91 98 104
f 91 104 105
f 91 105 106
f 91 106 107
f 91 107 92
f 93 108 109
f 96 102 109
f 96 109 97
f 97 109 110
f 99 103 100
f 108 111 109
f 109 111 110

