# https://github.com/mikedh/trimesh
v -0.00456010 0.00423667 0.04181591
v -0.00435606 0.00423667 0.04831961
v -0.00456010 0.00483236 0.04181591
v 0.00327607 0.00423667 0.04181591
v -0.00435606 0.00483236 0.04831961
v -0.00416430 0.00423667 0.04912507
v -0.00454169 0.00567940 0.04181591
v 0.00327607 0.00679127 0.04181591
v 0.00327607 0.00423667 0.04831961
v -0.00415510 0.00483236 0.04898857
v -0.00409603 0.00567940 0.04890983
v -0.00423794 0.00567940 0.04831961
v -0.00352995 0.00423667 0.04943630
v -0.00430851 0.00645316 0.04181591
v 0.00327607 0.00679127 0.04831961
v -0.00126946 0.00679127 0.04181591
v 0.00312803 0.00423667 0.04892783
v -0.00352995 0.00567940 0.04909357
v -0.00400936 0.00614455 0.04881008
v -0.00403697 0.00616531 0.04831961
v -0.00268313 0.00423667 0.04947605
v -0.00014113 0.00679127 0.04924806
v -0.00352995 0.00666098 0.04181591
v 0.00304979 0.00679127 0.04898932
v 0.00305976 0.00423667 0.04913332
v -0.00120733 0.00679127 0.04831961
v -0.00117281 0.00679127 0.04841035
v -0.00072025 0.00679127 0.04907857
v -0.00094116 0.00679127 0.04899307
v -0.00185932 0.00423667 0.04947755
v 0.00070569 0.00679127 0.04926606
v 0.00240087 0.00679127 0.04925106
v 0.00240087 0.00423667 0.04944380
v 0.00242158 0.00423667 0.04943480
v 0.00070569 0.00423667 0.04947755
v 0.00155328 0.00679127 0.04926606
v 0.00155328 0.00423667 0.04947680
f 1 2 5
f 1 5 3
f 1 3 7
f 1 7 14
f 1 14 23
f 1 23 16
f 1 16 8
f 1 8 4
f 1 4 9
f 1 9 17
f 1 17 25
f 1 25 34
f 1 34 33
f 1 33 37
f 1 37 35
f 1 35 30
f 1 30 21
f 1 21 13
f 1 13 6
f 1 6 2
f 2 6 5
f 3 5 7
f 4 8 15
f 4 15 9
f 5 6 10
f 5 10 11
f 5 11 12
f 5 12 7
f 6 11 10
f 6 13 11
f 7 12 14
f 8 16 26
f 8 26 27
f 8 27 29
f 8 29 28
f 8 28 22
f 8 22 31
f 8 31 36
f 8 36 32
f 8 32 24
f 8 24 15
f 9 15 17
f 11 13 18
f 11 18 19
f 11 19 12
f 12 19 20
f 12 20 14
f 13 21 22
f 13 22 18
f 14 20 23
f 15 24 25
f 15 25 17
f 16 23 26
f 18 22 19
f 19 27 26
f 19 26 23
f 19 23 20
f 19 22 28
f 19 28 29
f 19 29 27
f 21 30 31
f 21 31 22
f 24 32 33
f 24 33 34
f 24 34 25
f 30 35 36
f 30 36 31
f 32 36 37
f 32 37 33
f 35 37 36

