# https://github.com/mikedh/trimesh
v -0.00049181 -0.01296342 0.05060125
v -0.00049181 -0.01250353 0.05048056
v -0.00268304 -0.01296342 0.05060125
v -0.00049181 -0.01635200 0.05051871
v -0.00268304 -0.01250353 0.05048056
v -0.00049181 -0.00920234 0.04855583
v -0.00353034 -0.01250462 0.05047886
v -0.00353034 -0.01296342 0.05059784
v -0.00353034 -0.01635200 0.05051643
v -0.00268304 -0.01635200 0.05051871
v -0.00049181 -0.01685122 0.05046918
v -0.00049181 -0.00920234 0.04681724
v -0.00064122 -0.00920234 0.04849947
v -0.00353034 -0.00979769 0.04823304
v -0.00398538 -0.01251664 0.05046405
v -0.00404741 -0.01296342 0.05051643
v -0.00400732 -0.01635200 0.05047601
v -0.00398198 -0.01682282 0.05045722
v -0.00353034 -0.01684904 0.05046804
v -0.00268304 -0.01685122 0.05046918
v -0.00049181 -0.02036215 0.04752543
v -0.00088255 -0.00920234 0.04688499
v -0.00049181 -0.01120796 0.04478605
v -0.00268304 -0.01129972 0.04478605
v -0.00353034 -0.01136963 0.04478605
v -0.00094004 -0.00920234 0.04832299
v -0.00408373 -0.00986651 0.04811805
v -0.00419720 -0.01296342 0.05001432
v -0.00420779 -0.01635200 0.05001432
v -0.00407540 -0.01695063 0.05001432
v -0.00408826 -0.01947950 0.04729829
v -0.00353034 -0.01957563 0.04742979
v -0.00085909 -0.02036215 0.04737912
v -0.00049181 -0.02036215 0.04586541
v -0.00406935 -0.00987634 0.04694249
v -0.00353034 -0.00961199 0.04747249
v -0.00118175 -0.00920234 0.04747249
v -0.00049181 -0.01718549 0.04478605
v -0.00411096 -0.01180222 0.04478605
v -0.00113938 -0.00920234 0.04766035
v -0.00413782 -0.00980862 0.04747249
v -0.00433148 -0.01042144 0.04747249
v -0.00430501 -0.01296342 0.04916666
v -0.00435569 -0.01635200 0.04916666
v -0.00429782 -0.01889398 0.04662540
v -0.00413555 -0.01952757 0.04662540
v -0.00353034 -0.01975478 0.04662540
v -0.00103763 -0.02036215 0.04685994
v -0.00086136 -0.02036215 0.04599236
v -0.00406179 -0.01943581 0.04610564
v -0.00411474 -0.01697139 0.04478605
v -0.00353034 -0.01715818 0.04478605
v -0.00268304 -0.01717566 0.04478605
v -0.00435607 -0.01296342 0.04478605
v -0.00434850 -0.01126914 0.04747249
v -0.00435607 -0.01296342 0.04831957
v -0.00435607 -0.01635200 0.04831957
v -0.00434094 -0.01719969 0.04747249
v -0.00435607 -0.01635200 0.04662540
v -0.00435607 -0.01550431 0.04478605
v -0.00435077 -0.01564960 0.04478605
v -0.00430954 -0.01635200 0.04478605
v -0.00096463 -0.02036215 0.04622178
v -0.00111669 -0.02036215 0.04662540
v -0.00428155 -0.01649074 0.04478605
v -0.00435569 -0.01211683 0.04747249
f 1 2 5
f 1 5 3
f 1 3 10
f 1 10 4
f 1 4 11
f 1 11 21
f 1 21 34
f 1 34 38
f 1 38 23
f 1 23 12
f 1 12 6
f 1 6 2
f 2 6 5
f 3 5 7
f 3 7 8
f 3 8 9
f 3 9 10
f 4 10 20
f 4 20 11
f 5 6 7
f 6 12 22
f 6 22 37
f 6 37 40
f 6 40 26
f 6 26 13
f 6 13 14
f 6 14 15
f 6 15 7
f 7 15 8
f 8 15 16
f 8 16 17
f 8 17 9
f 9 17 18
f 9 18 19
f 9 19 10
f 10 19 20
f 11 20 21
f 12 23 24
f 12 24 25
f 12 25 22
f 13 26 27
f 13 27 14
f 14 27 15
f 15 28 16
f 15 27 28
f 16 28 29
f 16 29 17
f 17 29 18
f 18 29 30
f 18 30 31
f 18 31 32
f 18 32 21
f 18 21 19
f 19 21 20
f 21 32 33
f 21 33 48
f 21 48 64
f 21 64 63
f 21 63 49
f 21 49 34
f 22 35 36
f 22 36 37
f 22 25 35
f 23 38 53
f 23 53 52
f 23 52 51
f 23 51 65
f 23 65 62
f 23 62 61
f 23 61 60
f 23 60 54
f 23 54 39
f 23 39 25
f 23 25 24
f 25 39 35
f 26 40 36
f 26 36 27
f 27 36 41
f 27 41 42
f 27 42 28
f 28 42 43
f 28 43 44
f 28 44 29
f 29 44 31
f 29 31 30
f 31 45 46
f 31 46 47
f 31 47 33
f 31 33 32
f 31 44 45
f 33 47 48
f 34 49 50
f 34 50 51
f 34 51 52
f 34 52 53
f 34 53 38
f 35 42 41
f 35 41 36
f 35 39 42
f 36 40 37
f 39 54 42
f 42 54 55
f 42 55 56
f 42 56 43
f 43 56 44
f 44 57 58
f 44 58 45
f 44 56 57
f 45 50 46
f 45 58 59
f 45 59 60
f 45 60 61
f 45 61 62
f 45 62 50
f 46 50 47
f 47 49 63
f 47 63 64
f 47 64 48
f 47 50 49
f 50 62 65
f 50 65 51
f 54 56 66
f 54 66 55
f 54 60 59
f 54 59 57
f 54 57 56
f 55 66 56
f 57 59 58

