# https://github.com/mikedh/trimesh
v -0.00103888 0.00335028 0.00209715
v -0.00103268 0.00334871 0.00209715
v -0.00103888 0.00335028 0.00209363
v -0.01145728 0.00335028 0.00209715
v -0.00180645 0.00335028 0.00123440
v -0.00106781 0.00335028 0.00205736
v -0.00619901 -0.00117857 0.00209715
v -0.00597380 -0.00043206 0.00109425
v -0.00579095 -0.00009678 0.00084846
v -0.01143972 0.00335028 0.00204046
v -0.01143972 0.00302025 0.00197777
v -0.01146968 0.00313445 0.00209715
v -0.00216802 0.00335028 0.00087170
v -0.00595728 0.00006195 0.00051322
v -0.00622484 -0.00119691 0.00209715
v -0.00687360 -0.00101355 0.00093755
v -0.00630852 -0.00056617 0.00087627
v -0.00613290 -0.00025866 0.00069457
v -0.01142939 0.00335028 0.00200771
v -0.01147381 0.00177553 0.00187671
v -0.01156885 0.00127261 0.00209715
v -0.01148207 0.00290342 0.00209715
v -0.01134778 0.00335028 0.00176614
v -0.01133331 0.00335028 0.00172423
v -0.00230335 0.00335028 0.00073753
v -0.00629302 -0.00008526 0.00035299
v -0.00647381 0.00006771 0.00001775
v -0.00612360 0.00023273 0.00018150
v -0.00718765 -0.00170559 0.00209715
v -0.00720418 -0.00171344 0.00209715
v -0.00716492 -0.00126973 0.00122102
v -0.00761947 -0.00143841 0.00119391
v -0.00716492 -0.00108009 0.00085761
v -0.00716492 -0.00062170 0.00030017
v -0.00716492 -0.00041215 0.00004909
v -0.00683434 -0.00054155 0.00040194
v -0.00668558 -0.00072176 0.00073929
v -0.00649860 -0.00042053 0.00054068
v -0.01148724 0.00127261 0.00183657
v -0.01137257 0.00227845 0.00166613
v -0.01138600 0.00177553 0.00162528
v -0.01158641 0.00076970 0.00209715
v -0.01112670 0.00335028 0.00122102
v -0.01113083 0.00328428 0.00122102
v -0.01139943 0.00127261 0.00158514
v -0.00262669 0.00335028 0.00048751
v -0.00595521 0.00056591 0.00000965
v -0.00629095 0.00040299 -0.00014247
v -0.00613393 0.00074455 -0.00031080
v -0.00631161 0.00092424 -0.00062244
v -0.00651409 0.00112331 -0.00095768
v -0.00635190 0.00145859 -0.00108727
v -0.00665356 -0.00024032 0.00021002
v -0.00680852 -0.00006011 -0.00011536
v -0.00664736 0.00025526 -0.00029671
v -0.00648723 0.00058949 -0.00047771
v -0.00765562 -0.00184336 0.00209715
v -0.00775376 -0.00154633 0.00134322
v -0.00802029 -0.00147404 0.00100798
v -0.00769901 -0.00114295 0.00069809
v -0.00755232 -0.00094755 0.00051709
v -0.00744385 -0.00047868 -0.00002591
v -0.00740872 0.00001166 -0.00054321
v -0.00721038 -0.00012769 -0.00028474
v -0.01149654 0.00076970 0.00181192
v -0.01157402 0.00064030 0.00209715
v -0.01147897 0.00040613 0.00186298
v -0.01097174 0.00335028 0.00090550
v -0.01123724 0.00127261 0.00122102
v -0.01140873 0.00076970 0.00156049
v -0.00291182 0.00335028 0.00027622
v -0.00666802 0.00077599 -0.00078407
v -0.00684984 0.00096301 -0.00108375
v -0.00667422 0.00128362 -0.00116721
v -0.00617525 0.00180591 -0.00115453
v -0.00490149 0.00335028 -0.00115699
v -0.00471967 0.00335028 -0.00104466
v -0.00456988 0.00335028 -0.00094254
v -0.00359054 0.00335028 -0.00022663
v -0.00707298 0.00010753 -0.00045060
v -0.00682195 0.00044281 -0.00061082
v -0.00856368 -0.00198219 0.00209715
v -0.00818145 -0.00158300 0.00119391
v -0.00835501 -0.00150494 0.00095515
v -0.00788806 -0.00099993 0.00045476
v -0.00777959 -0.00052688 -0.00008261
v -0.00763393 -0.00032100 -0.00026502
v -0.00766802 -0.00003392 -0.00059533
v -0.00739943 0.00050829 -0.00105065
v -0.00766802 0.00020549 -0.00084676
v -0.01151203 0.00030555 0.00209715
v -0.01125687 0.00076970 0.00122102
v -0.01116389 0.00026731 0.00122102
v -0.01136224 0.00025002 0.00170663
v -0.01141699 0.00007086 0.00205771
v -0.01097381 0.00328428 0.00090269
v -0.01084468 0.00335028 0.00068682
v -0.01098724 0.00278136 0.00087980
v -0.01101306 0.00177553 0.00083648
v -0.01102649 0.00127261 0.00081606
v -0.01103786 0.00076970 0.00079704
v -0.00706368 0.00062825 -0.00094606
v -0.00720521 0.00078542 -0.00113551
v -0.00716492 0.00127261 -0.00134504
v -0.00666182 0.00177553 -0.00137145
v -0.00615975 0.00227845 -0.00134187
v -0.00512360 0.00325546 -0.00122179
v -0.00512876 0.00335028 -0.00125348
v -0.00867319 -0.00199372 0.00209715
v -0.00854199 -0.00150494 0.00095515
v -0.00817112 -0.00008997 -0.00065906
v -0.00817112 -0.00034143 -0.00037031
v -0.00817112 -0.00055726 -0.00011888
v -0.00869488 -0.00160605 0.00117524
v -0.00766802 0.00045695 -0.00108833
v -0.00766802 0.00076970 -0.00124432
v -0.00817112 0.00015520 -0.00091085
v -0.01144282 0.00011277 0.00209715
v -0.01099137 0.00026731 0.00087487
v -0.01093972 0.00001166 0.00096431
v -0.01100067 -0.00006797 0.00122102
v -0.01108848 -0.00024975 0.00173691
v -0.01138703 0.00000590 0.00209715
v -0.01082505 0.00335028 0.00065407
v -0.01082711 0.00328428 0.00065126
v -0.01083951 0.00278136 0.00062837
v -0.01086327 0.00177553 0.00058505
v -0.01088703 0.00076970 0.00054561
v -0.00716492 0.00177553 -0.00145314
v -0.00766802 0.00127261 -0.00138589
v -0.00666182 0.00227845 -0.00147533
v -0.00615975 0.00278136 -0.00145948
v -0.00565666 0.00328428 -0.00142920
v -0.00565666 0.00335028 -0.00143448
v -0.00904302 -0.00200157 0.00209715
v -0.00887773 -0.00148818 0.00097699
v -0.00867319 -0.00033829 -0.00036608
v -0.00867319 -0.00008683 -0.00065308
v -0.00917629 -0.00199738 0.00209715
v -0.00817112 0.00040666 -0.00111650
v -0.00817112 0.00076970 -0.00125102
v -0.00867319 0.00020706 -0.00090451
v -0.01083228 0.00026731 0.00062344
v -0.01089013 -0.00042682 0.00157774
v -0.01049240 -0.00004754 0.00039490
v -0.01064116 -0.00018532 0.00078437
v -0.01045521 -0.00051169 0.00093966
v -0.01053992 -0.00061227 0.00122102
v -0.01040769 -0.00096536 0.00151929
v -0.01096348 -0.00052426 0.00191298
v -0.01123517 -0.00021780 0.00209715
v -0.01060707 0.00335028 0.00033010
v -0.01057401 0.00335028 0.00028115
v -0.01059984 0.00227845 0.00024805
v -0.01058744 0.00125795 0.00016917
v -0.01063910 0.00076970 0.00021566
v -0.01043662 0.00051353 -0.00003824
v -0.00716492 0.00227845 -0.00147709
v -0.00666182 0.00278136 -0.00149998
v -0.00766802 0.00177553 -0.00141723
v -0.00817112 0.00127261 -0.00131687
v -0.00615975 0.00328428 -0.00149364
v -0.00615975 0.00335028 -0.00149329
v -0.00917629 -0.00159767 0.00129708
v -0.00917629 -0.00143632 0.00104566
v -0.00932298 -0.00095907 0.00050617
v -0.00898724 -0.00100831 0.00044631
v -0.00905645 -0.00052373 -0.00007697
v -0.00908848 -0.00004282 -0.00060167
v -0.00968868 -0.00177683 0.00209715
v -0.00951306 -0.00154161 0.00139850
v -0.00867319 0.00045852 -0.00107776
v -0.00892835 0.00051615 -0.00104325
v -0.00867319 0.00076970 -0.00114678
v -0.01055335 0.00031446 0.00022270
v -0.01069178 -0.00074481 0.00171613
v -0.01033744 0.00017825 0.00005966
v -0.01000170 -0.00004125 -0.00009282
v -0.01015563 -0.00021203 0.00024383
v -0.01030955 -0.00038281 0.00060442
v -0.00993662 -0.00099469 0.00096396
v -0.01029302 -0.00086373 0.00122102
v -0.01004096 -0.00107799 0.00122102
v -0.00984881 -0.00143841 0.00157669
v -0.00997071 -0.00152328 0.00191192
v -0.01049344 -0.00104656 0.00185488
v -0.01099344 -0.00056722 0.00209715
v -0.01115356 -0.00033724 0.00209715
v -0.01070625 -0.00091821 0.00209715
v -0.01087877 -0.00071442 0.00209715
v -0.01040253 0.00335028 0.00006247
v -0.01037877 0.00328428 0.00002761
v -0.01040563 0.00227845 -0.00000338
v -0.01041906 0.00177553 -0.00001852
v -0.01042835 0.00141563 -0.00002943
v -0.01043662 0.00108036 -0.00003894
v -0.01043765 0.00076970 -0.00004000
v -0.01018249 0.00076970 -0.00027206
v -0.00990356 0.00076970 -0.00051962
v -0.00957608 0.00035375 -0.00063160
v -0.01017422 0.00031446 -0.00016395
v -0.00716492 0.00278136 -0.00147075
v -0.00666182 0.00328428 -0.00149575
v -0.00766802 0.00227845 -0.00141194
v -0.00817112 0.00177553 -0.00131757
v -0.00867319 0.00127261 -0.00117425
v -0.00666182 0.00335028 -0.00149470
v -0.00967939 -0.00106646 0.00086923
v -0.00967939 -0.00086739 0.00061780
v -0.00939220 -0.00047659 -0.00002415
v -0.00942319 0.00001847 -0.00053687
v -0.00980129 -0.00171292 0.00209715
v -0.00965253 0.00076970 -0.00068195
v -0.00920315 0.00076970 -0.00093338
v -0.00895108 0.00076970 -0.00105452
v -0.00997484 -0.00052216 0.00042729
v -0.00971864 0.00021859 -0.00046327
v -0.00967939 -0.00014498 -0.00020304
v -0.00967939 -0.00039643 0.00006917
v -0.01001823 -0.00156257 0.00209715
v -0.01016596 -0.00143736 0.00209715
v -0.01036947 -0.00126135 0.00209715
v -0.01054199 -0.00109790 0.00209715
v -0.01037670 0.00335028 0.00002973
v -0.01012567 0.00335028 -0.00021959
v -0.01016699 0.00177553 -0.00025304
v -0.01022897 0.00125795 -0.00021994
v -0.00989840 0.00127261 -0.00051504
v -0.00964736 0.00127261 -0.00068195
v -0.00716492 0.00328428 -0.00146160
v -0.00766802 0.00335028 -0.00139117
v -0.00723000 0.00335028 -0.00145138
v -0.00817112 0.00227845 -0.00130701
v -0.00896761 0.00127261 -0.00106227
v -0.00895521 0.00177553 -0.00105628
v -0.00892422 0.00301448 -0.00104149
v -0.00867319 0.00177553 -0.00116298
v -0.00716492 0.00335028 -0.00146019
v -0.00967939 -0.00061594 0.00032024
v -0.00921864 0.00127261 -0.00093338
v -0.00984571 0.00335028 -0.00047102
v -0.00986017 0.00278136 -0.00048335
v -0.00988600 0.00177553 -0.00050447
v -0.00959364 0.00335028 -0.00065202
v -0.00959571 0.00328428 -0.00065308
v -0.00917629 0.00335028 -0.00089887
v -0.00919385 0.00227845 -0.00091930
v -0.00817112 0.00278136 -0.00129574
v -0.00817112 0.00335028 -0.00128271
v -0.00913083 0.00282065 -0.00093761
v -0.00891286 0.00335028 -0.00103726
v -0.00866182 0.00335028 -0.00112988
v -0.00867319 0.00227845 -0.00115136
f 1 2 3
f 1 3 6
f 1 6 5
f 1 5 13
f 1 13 25
f 1 25 46
f 1 46 71
f 1 71 79
f 1 79 78
f 1 78 77
f 1 77 76
f 1 76 108
f 1 108 134
f 1 134 163
f 1 163 207
f 1 207 238
f 1 238 232
f 1 232 231
f 1 231 249
f 1 249 252
f 1 252 251
f 1 251 246
f 1 246 244
f 1 244 241
f 1 241 225
f 1 225 224
f 1 224 191
f 1 191 153
f 1 153 152
f 1 152 124
f 1 124 97
f 1 97 68
f 1 68 43
f 1 43 24
f 1 24 23
f 1 23 19
f 1 19 10
f 1 10 4
f 1 4 12
f 1 12 22
f 1 22 21
f 1 21 42
f 1 42 66
f 1 66 91
f 1 91 118
f 1 118 123
f 1 123 151
f 1 151 188
f 1 188 187
f 1 187 190
f 1 190 189
f 1 189 223
f 1 223 222
f 1 222 221
f 1 221 220
f 1 220 212
f 1 212 170
f 1 170 139
f 1 139 135
f 1 135 109
f 1 109 82
f 1 82 57
f 1 57 30
f 1 30 29
f 1 29 15
f 1 15 7
f 1 7 2
f 2 5 6
f 2 6 3
f 2 7 8
f 2 8 9
f 2 9 5
f 4 10 11
f 4 11 12
f 5 9 14
f 5 14 13
f 7 15 16
f 7 16 17
f 7 17 8
f 8 17 9
f 9 17 18
f 9 18 14
f 10 19 11
f 11 20 21
f 11 21 22
f 11 22 12
f 11 19 23
f 11 23 24
f 11 24 20
f 13 14 25
f 14 18 26
f 14 26 27
f 14 27 28
f 14 28 25
f 15 29 16
f 16 29 30
f 16 30 31
f 16 31 32
f 16 32 33
f 16 33 34
f 16 34 35
f 16 35 36
f 16 36 37
f 16 37 17
f 17 37 38
f 17 38 26
f 17 26 18
f 20 39 21
f 20 24 40
f 20 40 41
f 20 41 45
f 20 45 39
f 21 39 42
f 24 43 44
f 24 44 45
f 24 45 41
f 24 41 40
f 25 28 47
f 25 47 48
f 25 48 49
f 25 49 50
f 25 50 51
f 25 51 52
f 25 52 46
f 26 38 27
f 27 48 47
f 27 47 28
f 27 38 53
f 27 53 54
f 27 54 55
f 27 55 56
f 27 56 48
f 30 57 58
f 30 58 32
f 30 32 31
f 32 58 59
f 32 59 33
f 33 59 60
f 33 60 61
f 33 61 62
f 33 62 34
f 34 62 35
f 35 54 36
f 35 62 63
f 35 63 64
f 35 64 54
f 36 54 53
f 36 53 38
f 36 38 37
f 39 65 42
f 39 45 70
f 39 70 65
f 42 65 67
f 42 67 66
f 43 68 44
f 44 69 45
f 44 68 69
f 45 69 70
f 46 52 71
f 48 56 49
f 49 56 50
f 50 56 51
f 51 56 72
f 51 72 73
f 51 73 52
f 52 73 74
f 52 74 75
f 52 75 76
f 52 76 77
f 52 77 78
f 52 78 79
f 52 79 71
f 54 64 80
f 54 80 81
f 54 81 55
f 55 81 56
f 56 81 72
f 57 82 83
f 57 83 59
f 57 59 58
f 59 83 84
f 59 84 85
f 59 85 60
f 60 85 62
f 60 62 61
f 62 85 86
f 62 86 87
f 62 87 88
f 62 88 63
f 63 89 80
f 63 80 64
f 63 88 90
f 63 90 89
f 65 70 67
f 66 67 91
f 67 70 92
f 67 92 93
f 67 93 94
f 67 94 95
f 67 95 91
f 68 96 69
f 68 97 96
f 69 96 98
f 69 98 99
f 69 99 100
f 69 100 101
f 69 101 92
f 69 92 70
f 72 81 73
f 73 81 102
f 73 102 89
f 73 89 103
f 73 103 74
f 74 103 104
f 74 104 105
f 74 105 75
f 75 105 106
f 75 106 76
f 76 106 107
f 76 107 108
f 80 89 81
f 81 89 102
f 82 109 83
f 83 109 84
f 84 110 111
f 84 111 112
f 84 112 113
f 84 113 86
f 84 86 85
f 84 109 114
f 84 114 110
f 86 88 87
f 86 113 112
f 86 112 111
f 86 111 88
f 88 111 90
f 89 90 115
f 89 115 116
f 89 116 103
f 90 111 117
f 90 117 115
f 91 95 118
f 92 101 119
f 92 119 93
f 93 119 120
f 93 120 94
f 94 120 95
f 95 120 121
f 95 121 122
f 95 122 123
f 95 123 118
f 96 97 98
f 97 124 125
f 97 125 126
f 97 126 98
f 98 126 99
f 99 126 100
f 100 127 128
f 100 128 101
f 100 126 127
f 101 128 119
f 103 116 104
f 104 129 105
f 104 116 130
f 104 130 129
f 105 129 131
f 105 131 132
f 105 132 106
f 106 132 133
f 106 133 108
f 106 108 107
f 108 133 134
f 109 135 114
f 110 114 136
f 110 136 137
f 110 137 138
f 110 138 111
f 111 138 117
f 114 135 139
f 114 139 136
f 115 117 140
f 115 140 116
f 116 140 141
f 116 141 130
f 117 138 142
f 117 142 140
f 119 128 143
f 119 143 120
f 120 144 121
f 120 143 145
f 120 145 146
f 120 146 147
f 120 147 148
f 120 148 149
f 120 149 144
f 121 144 150
f 121 150 122
f 122 150 123
f 123 150 151
f 124 152 125
f 125 152 126
f 126 152 153
f 126 153 127
f 127 153 128
f 128 153 154
f 128 154 155
f 128 155 156
f 128 156 157
f 128 157 143
f 129 158 159
f 129 159 131
f 129 130 160
f 129 160 158
f 130 141 161
f 130 161 160
f 131 159 162
f 131 162 132
f 132 162 134
f 132 134 133
f 134 162 163
f 136 139 164
f 136 164 165
f 136 165 166
f 136 166 167
f 136 167 138
f 136 138 137
f 138 167 168
f 138 168 169
f 138 169 142
f 139 170 171
f 139 171 164
f 140 142 172
f 140 172 141
f 141 172 173
f 141 173 174
f 141 174 161
f 142 169 173
f 142 173 172
f 143 157 175
f 143 175 145
f 144 149 176
f 144 176 150
f 145 147 146
f 145 175 177
f 145 177 178
f 145 178 179
f 145 179 180
f 145 180 147
f 147 180 181
f 147 181 182
f 147 182 149
f 147 149 148
f 149 182 183
f 149 183 184
f 149 184 185
f 149 185 186
f 149 186 176
f 150 187 188
f 150 188 151
f 150 176 189
f 150 189 190
f 150 190 187
f 153 191 192
f 153 192 193
f 153 193 194
f 153 194 195
f 153 195 154
f 154 195 155
f 155 195 196
f 155 196 156
f 156 196 197
f 156 197 157
f 157 197 198
f 157 198 199
f 157 199 200
f 157 200 201
f 157 201 177
f 157 177 175
f 158 202 203
f 158 203 159
f 158 160 204
f 158 204 202
f 159 203 163
f 159 163 162
f 160 161 205
f 160 205 204
f 161 174 206
f 161 206 205
f 163 203 207
f 164 171 165
f 165 171 208
f 165 208 166
f 166 208 209
f 166 209 210
f 166 210 167
f 167 210 168
f 168 210 169
f 169 210 211
f 169 211 173
f 170 212 184
f 170 184 171
f 171 184 181
f 171 181 208
f 173 211 200
f 173 200 213
f 173 213 214
f 173 214 215
f 173 215 174
f 174 215 206
f 176 186 189
f 177 201 178
f 178 216 179
f 178 201 217
f 178 217 211
f 178 211 218
f 178 218 219
f 178 219 216
f 179 216 180
f 180 216 181
f 181 183 182
f 181 216 209
f 181 209 208
f 181 184 183
f 184 212 185
f 185 212 220
f 185 220 221
f 185 221 186
f 186 221 222
f 186 222 223
f 186 223 189
f 191 224 192
f 192 224 225
f 192 225 193
f 193 225 194
f 194 225 195
f 195 225 196
f 196 225 226
f 196 226 227
f 196 227 228
f 196 228 198
f 196 198 197
f 198 228 199
f 199 228 229
f 199 229 213
f 199 213 200
f 200 211 217
f 200 217 201
f 202 230 207
f 202 207 203
f 202 204 230
f 204 231 232
f 204 232 230
f 204 205 231
f 205 206 233
f 205 233 231
f 206 215 234
f 206 234 235
f 206 235 236
f 206 236 237
f 206 237 248
f 206 248 233
f 207 230 238
f 209 239 210
f 209 216 239
f 210 239 219
f 210 219 218
f 210 218 211
f 213 229 240
f 213 240 214
f 214 240 234
f 214 234 215
f 216 219 239
f 225 241 226
f 226 241 242
f 226 242 243
f 226 243 227
f 227 243 228
f 228 243 244
f 228 244 245
f 228 245 229
f 229 245 246
f 229 246 247
f 229 247 240
f 230 232 238
f 231 233 248
f 231 248 249
f 234 240 235
f 235 240 236
f 236 240 247
f 236 247 250
f 236 250 246
f 236 246 251
f 236 251 252
f 236 252 253
f 236 253 237
f 237 253 249
f 237 249 248
f 241 244 242
f 242 244 243
f 244 246 245
f 246 250 247
f 249 253 252

