# https://github.com/mikedh/trimesh
v 0.00022247 0.02827811 0.01322280
v 0.00022247 0.02793231 0.01321855
v 0.00037975 0.02793231 0.01320724
v 0.00037975 0.02843336 0.01321148
v 0.00037975 0.02893677 0.01321148
v 0.00022247 0.02877916 0.01322138
v 0.00022247 0.02777470 0.01321573
v 0.00022247 0.02742890 0.01320724
v 0.00037975 0.02742890 0.01319451
v 0.00088270 0.02793231 0.01314926
v 0.00088270 0.02843336 0.01316058
v 0.00088270 0.02944018 0.01317047
v 0.00088270 0.02994123 0.01317189
v 0.00037975 0.02944018 0.01320724
v 0.00022247 0.02928257 0.01321714
v 0.00022247 0.02727129 0.01320300
v 0.00022247 0.02692549 0.01319169
v 0.00037975 0.02692549 0.01317755
v 0.00088270 0.02742890 0.01312664
v 0.00129117 0.02793231 0.01307715
v 0.00134868 0.02843336 0.01308563
v 0.00138565 0.02944018 0.01310684
v 0.00138565 0.02994123 0.01311391
v 0.00037975 0.02994123 0.01320300
v 0.00138565 0.03044464 0.01311391
v 0.00088270 0.03044464 0.01316482
v 0.00022247 0.02994123 0.01320865
v 0.00022247 0.02676788 0.01318603
v 0.00022247 0.02626448 0.01316340
v 0.00037975 0.02642209 0.01315351
v 0.00081169 0.02642209 0.01308280
v 0.00122016 0.02742890 0.01306159
v 0.00154294 0.02793231 0.01301776
v 0.00160045 0.02843336 0.01303190
v 0.00162921 0.02872035 0.01303897
v 0.00166266 0.02905439 0.01304604
v 0.00169318 0.02944018 0.01305311
v 0.00172780 0.02994123 0.01306018
v 0.00175597 0.03044464 0.01306159
v 0.00037975 0.03044464 0.01319451
v 0.00022247 0.03028703 0.01320300
v 0.00175304 0.03094805 0.01305735
v 0.00171783 0.03144910 0.01305169
v 0.00138565 0.03094805 0.01310260
v 0.00164329 0.03222774 0.01304179
v 0.00088270 0.03094805 0.01314785
v 0.00022247 0.02576107 0.01313654
v 0.00037975 0.02591868 0.01312240
v 0.00022247 0.02491422 0.01307997
v 0.00026120 0.02491422 0.01307290
v 0.00072072 0.02591868 0.01306159
v 0.00106287 0.02642209 0.01302341
v 0.00111393 0.02673730 0.01303614
v 0.00116616 0.02707134 0.01304886
v 0.00147192 0.02742890 0.01299937
v 0.00188861 0.02793231 0.01292018
v 0.00188861 0.02843336 0.01295836
v 0.00185339 0.02890619 0.01299230
v 0.00194436 0.02944018 0.01299371
v 0.00197898 0.02994123 0.01300503
v 0.00200715 0.03044464 0.01301634
v 0.00200422 0.03094805 0.01302058
v 0.00022247 0.03044464 0.01320017
v 0.00037975 0.03094805 0.01317613
v 0.00022247 0.03094805 0.01318320
v 0.00196901 0.03144910 0.01301634
v 0.00192323 0.03195251 0.01301351
v 0.00184224 0.03242063 0.01301068
v 0.00154704 0.03256413 0.01303614
v 0.00088270 0.03144910 0.01312664
v 0.00022247 0.02472603 0.01306300
v 0.00097191 0.02591868 0.01300079
v 0.00022247 0.02458018 0.01304886
v 0.00138565 0.02642209 0.01292867
v 0.00135455 0.02691373 0.01298523
v 0.00239156 0.02843336 0.01279292
v 0.00188861 0.02742890 0.01286928
v 0.00239156 0.02893677 0.01282827
v 0.00239156 0.02944018 0.01286079
v 0.00239156 0.02994123 0.01289190
v 0.00239156 0.03044464 0.01291736
v 0.00239156 0.03094805 0.01293008
v 0.00239156 0.03144910 0.01293150
v 0.00239156 0.03195251 0.01293008
v 0.00239156 0.03245592 0.01292301
v 0.00088270 0.03195251 0.01310260
v 0.00037975 0.03195251 0.01312805
v 0.00022247 0.03144910 0.01315916
v 0.00239156 0.03295933 0.01289897
v 0.00188861 0.03295933 0.01297533
v 0.00138213 0.03294286 0.01302200
v 0.00121194 0.03276408 0.01304462
v 0.00051238 0.02491422 0.01301068
v 0.00036156 0.02438493 0.01299089
v 0.00084808 0.02542938 0.01297675
v 0.00138565 0.02591868 0.01287069
v 0.00022247 0.02428143 0.01301634
v 0.00188861 0.02692549 0.01281271
v 0.00239156 0.02793231 0.01274060
v 0.00302890 0.02793231 0.01249313
v 0.00289451 0.02994123 0.01270949
v 0.00289451 0.03044464 0.01274484
v 0.00289451 0.03094805 0.01276888
v 0.00289451 0.03144910 0.01278302
v 0.00289451 0.03195251 0.01279574
v 0.00289451 0.03245592 0.01279574
v 0.00289451 0.03295933 0.01278302
v 0.00289451 0.03346273 0.01276322
v 0.00088270 0.03245592 0.01307715
v 0.00022247 0.03179490 0.01314219
v 0.00085805 0.03294286 0.01305169
v 0.00067436 0.03324161 0.01304321
v 0.00289451 0.03396379 0.01273777
v 0.00289451 0.03446720 0.01270949
v 0.00239156 0.03346273 0.01286786
v 0.00239156 0.03396379 0.01283251
v 0.00239156 0.03446720 0.01279292
v 0.00188861 0.03346273 0.01293432
v 0.00138565 0.03346273 0.01297816
v 0.00022247 0.02417557 0.01300361
v 0.00037975 0.02390740 0.01292018
v 0.00088270 0.02491422 0.01289614
v 0.00138565 0.02541762 0.01279574
v 0.00188861 0.02642209 0.01274767
v 0.00339688 0.02793231 0.01234324
v 0.00321612 0.02994123 0.01257232
v 0.00325192 0.03044464 0.01259212
v 0.00330650 0.03144910 0.01261757
v 0.00333291 0.03195251 0.01262606
v 0.00335462 0.03245592 0.01262888
v 0.00336342 0.03295933 0.01262606
v 0.00336225 0.03346273 0.01261899
v 0.00335110 0.03396379 0.01260909
v 0.00332762 0.03446720 0.01259777
v 0.00037975 0.03245592 0.01309836
v 0.00022247 0.03229831 0.01311108
v 0.00052823 0.03324161 0.01304321
v 0.00022247 0.03245592 0.01310118
v 0.00085805 0.03342980 0.01301493
v 0.00088270 0.03396379 0.01296402
v 0.00088270 0.03446720 0.01291736
v 0.00037975 0.03446720 0.01293574
v 0.00022247 0.03430959 0.01295129
v 0.00327304 0.03497060 0.01257798
v 0.00289451 0.03497060 0.01266424
v 0.00188861 0.03446720 0.01284524
v 0.00188861 0.03396379 0.01289190
v 0.00239156 0.03497060 0.01273918
v 0.00138565 0.03446720 0.01288766
v 0.00022247 0.02390740 0.01296685
v 0.00022247 0.02374273 0.01294281
v 0.00022247 0.02324638 0.01285938
v 0.00037975 0.02340399 0.01283392
v 0.00088270 0.02390740 0.01273494
v 0.00088270 0.02441081 0.01281978
v 0.00237102 0.02588810 0.01247334
v 0.00289451 0.02591868 0.01222022
v 0.00315039 0.02565757 0.01203922
v 0.00375369 0.02793231 0.01213679
v 0.00422143 0.02994123 0.01209719
v 0.00389983 0.03044464 0.01229375
v 0.00466159 0.03263705 0.01204063
v 0.00360580 0.03245592 0.01251717
v 0.00361461 0.03295933 0.01252283
v 0.00361343 0.03346273 0.01252283
v 0.00360287 0.03396379 0.01252000
v 0.00357939 0.03446720 0.01251293
v 0.00352481 0.03497060 0.01249879
v 0.00022247 0.03379912 0.01299513
v 0.00022247 0.03344391 0.01302482
v 0.00022247 0.03299932 0.01306018
v 0.00022247 0.03283700 0.01307290
v 0.00088270 0.03497060 0.01285938
v 0.00037975 0.03497060 0.01287776
v 0.00022247 0.03481300 0.01289614
v 0.00022247 0.03446720 0.01293574
v 0.00338162 0.03550694 0.01248748
v 0.00339688 0.03597742 0.01243233
v 0.00320438 0.03536110 0.01255394
v 0.00312456 0.03569514 0.01253414
v 0.00293207 0.03550694 0.01259070
v 0.00188861 0.03497060 0.01278867
v 0.00278887 0.03589273 0.01256101
v 0.00264157 0.03622677 0.01253697
v 0.00239156 0.03547401 0.01266989
v 0.00138565 0.03497060 0.01282968
v 0.00022247 0.02274533 0.01276039
v 0.00037975 0.02290294 0.01273211
v 0.00115912 0.02360630 0.01255252
v 0.00239156 0.02541762 0.01236162
v 0.00322492 0.02545997 0.01176347
v 0.00456945 0.02638915 0.00977245
v 0.00399314 0.02793231 0.01178327
v 0.00370264 0.02760533 0.01208588
v 0.00287632 0.02545997 0.01213113
v 0.00215094 0.02363452 0.01204063
v 0.00237219 0.02344634 0.01177196
v 0.00266680 0.02359218 0.01156409
v 0.00467568 0.03010825 0.01157116
v 0.00449257 0.02994123 0.01175640
v 0.00463283 0.03230066 0.01202366
v 0.00481477 0.03246298 0.01182710
v 0.00516630 0.03466480 0.01154288
v 0.00466159 0.03272174 0.01204063
v 0.00389983 0.03497060 0.01231920
v 0.00389983 0.03547401 0.01229092
v 0.00389983 0.03597742 0.01225415
v 0.00138565 0.03547401 0.01275615
v 0.00088270 0.03547401 0.01278443
v 0.00022247 0.03497060 0.01287493
v 0.00037975 0.03547401 0.01280282
v 0.00022247 0.03531640 0.01282403
v 0.00389983 0.03647848 0.01219335
v 0.00339688 0.03647848 0.01236445
v 0.00289451 0.03647848 0.01246061
v 0.00293207 0.03602682 0.01252000
v 0.00188861 0.03547401 0.01271797
v 0.00230587 0.03633969 0.01255394
v 0.00244086 0.03649729 0.01251576
v 0.00188861 0.03597742 0.01264585
v 0.00022247 0.02225604 0.01265151
v 0.00064913 0.02261360 0.01254828
v 0.00464633 0.02619861 0.00938358
v 0.00468917 0.02653500 0.00960559
v 0.00520973 0.02843336 0.00964095
v 0.00508473 0.02843336 0.00989265
v 0.00372083 0.02403443 0.00963246
v 0.00022247 0.02169852 0.01251152
v 0.00022247 0.02154327 0.01245495
v 0.00022247 0.02134567 0.01238284
v 0.00022247 0.02088460 0.01220325
v 0.00022247 0.02079756 0.01216790
v 0.00022247 0.02065172 0.01210568
v 0.00022247 0.02056938 0.01206750
v 0.00225775 0.02305114 0.01164327
v 0.00022247 0.02027534 0.01191336
v 0.00022247 0.02016007 0.01184973
v 0.00022247 0.01977899 0.01163479
v 0.00259344 0.02325815 0.01143116
v 0.00567395 0.03066341 0.00954762
v 0.00569449 0.03094805 0.00958580
v 0.00508062 0.03245592 0.01127986
v 0.00528133 0.03448366 0.01131380
v 0.00527722 0.03498001 0.01132369
v 0.00516630 0.03481770 0.01154288
v 0.00422672 0.03597742 0.01208729
v 0.00418798 0.03647848 0.01205901
v 0.00184811 0.03649729 0.01256808
v 0.00088270 0.03597742 0.01270807
v 0.00037975 0.03597742 0.01272221
v 0.00022247 0.03581981 0.01274060
v 0.00415629 0.03674664 0.01203780
v 0.00391156 0.03694189 0.01210709
v 0.00339688 0.03698188 0.01227537
v 0.00289451 0.03698188 0.01237294
v 0.00198896 0.03667608 0.01252848
v 0.00239156 0.03698188 0.01243516
v 0.00022247 0.02195023 0.01257939
v 0.00443271 0.02491422 0.00725682
v 0.00518508 0.02712544 0.00756226
v 0.00516865 0.02816519 0.00954479
v 0.00375546 0.02388388 0.00921955
v 0.00527370 0.02843336 0.00926763
v 0.00218087 0.02155268 0.01058413
v 0.00209460 0.02121864 0.01041444
v 0.00215798 0.02111984 0.01007931
v 0.00313337 0.02217370 0.00844464
v 0.00022247 0.01961667 0.01152732
v 0.00022247 0.01935556 0.01132087
v 0.00574144 0.02939784 0.00728793
v 0.00576316 0.03094805 0.00926763
v 0.00595448 0.03346273 0.00926763
v 0.00548028 0.03446720 0.01077645
v 0.00562348 0.03698188 0.01043566
v 0.00514635 0.03515174 0.01152025
v 0.00088270 0.03647848 0.01262606
v 0.00138565 0.03703363 0.01250445
v 0.00088270 0.03684544 0.01256101
v 0.00037975 0.03647848 0.01263171
v 0.00022247 0.03632322 0.01264444
v 0.00466159 0.03725711 0.01153863
v 0.00442039 0.03745000 0.01167438
v 0.00408704 0.03708303 0.01200528
v 0.00373374 0.03748529 0.01207033
v 0.00365921 0.03775111 0.01203922
v 0.00339688 0.03748529 0.01216224
v 0.00289451 0.03748529 0.01225698
v 0.00239156 0.03748529 0.01232344
v 0.00184811 0.03693484 0.01249030
v 0.00188861 0.03748529 0.01236869
v 0.00443271 0.02491422 0.00474259
v 0.00520621 0.02708781 0.00725682
v 0.00315860 0.02212666 0.00810950
v 0.00402014 0.02390740 0.00625000
v 0.00402072 0.02390740 0.00574941
v 0.00529894 0.02742890 0.00725682
v 0.00022247 0.01930616 0.01127986
v 0.00022247 0.01919325 0.01118511
v 0.00022247 0.01907328 0.01107765
v 0.00022247 0.01883098 0.01081746
v 0.00022247 0.01879570 0.01077645
v 0.00022247 0.01873218 0.01070009
v 0.00022247 0.01861692 0.01055302
v 0.00022247 0.01840285 0.01022779
v 0.00022247 0.01822642 0.00991952
v 0.00022247 0.01816291 0.00977104
v 0.00022247 0.01812527 0.00968195
v 0.00182229 0.01989896 0.00826222
v 0.00574144 0.02939784 0.00471148
v 0.00617045 0.03212423 0.00703622
v 0.00617690 0.03518467 0.00811233
v 0.00614697 0.03547401 0.00839373
v 0.00571034 0.03698188 0.01018395
v 0.00537230 0.03698188 0.01075099
v 0.00568158 0.03727123 0.01009911
v 0.00550258 0.03745706 0.01027021
v 0.00527429 0.03748529 0.01065201
v 0.00472908 0.03798870 0.01112714
v 0.00479246 0.03745000 0.01129541
v 0.00138565 0.03748529 0.01240970
v 0.00088270 0.03709715 0.01251152
v 0.00037975 0.03681957 0.01255959
v 0.00022247 0.03678428 0.01255252
v 0.00459938 0.03759115 0.01147359
v 0.00398551 0.03748529 0.01195579
v 0.00425841 0.03798870 0.01161782
v 0.00385581 0.03794635 0.01187094
v 0.00388574 0.03846858 0.01163338
v 0.00339688 0.03849210 0.01182710
v 0.00339688 0.03810161 0.01198831
v 0.00308290 0.03820982 0.01202649
v 0.00339688 0.03785226 0.01206608
v 0.00290683 0.03802163 0.01210426
v 0.00239156 0.03798870 0.01217921
v 0.00188861 0.03798870 0.01222870
v 0.00464633 0.02619861 0.00261583
v 0.00518508 0.02712544 0.00443715
v 0.00520621 0.02708781 0.00474259
v 0.00315860 0.02212901 0.00388991
v 0.00313572 0.02217370 0.00355477
v 0.00375546 0.02388388 0.00277844
v 0.00172135 0.01953905 0.00625000
v 0.00192206 0.01988484 0.00625000
v 0.00316799 0.02208431 0.00609021
v 0.00378245 0.02338282 0.00621889
v 0.00378245 0.02338282 0.00578052
v 0.00529894 0.02742890 0.00474259
v 0.00022247 0.01795590 0.00925915
v 0.00022247 0.01778653 0.00874867
v 0.00022247 0.01767362 0.00826222
v 0.00022247 0.01757482 0.00775881
v 0.00022247 0.01750660 0.00725682
v 0.00527370 0.02843336 0.00273037
v 0.00567395 0.03066576 0.00245179
v 0.00570153 0.03061166 0.00273037
v 0.00576257 0.03094805 0.00273037
v 0.00617045 0.03212423 0.00496319
v 0.00620859 0.03347214 0.00624010
v 0.00621740 0.03397790 0.00627686
v 0.00617984 0.03547401 0.00814203
v 0.00617162 0.03574689 0.00808405
v 0.00569801 0.03849210 0.00859453
v 0.00566691 0.03875557 0.00853090
v 0.00477134 0.03898846 0.01026455
v 0.00469446 0.03881673 0.01059545
v 0.00475960 0.03846153 0.01076796
v 0.00466981 0.03827333 0.01104936
v 0.00451018 0.03798870 0.01137743
v 0.00138565 0.03798870 0.01226971
v 0.00088270 0.03748529 0.01242101
v 0.00037975 0.03707127 0.01248748
v 0.00022247 0.03689484 0.01252000
v 0.00418153 0.03828745 0.01155419
v 0.00404420 0.03862149 0.01146086
v 0.00370909 0.03879791 0.01156409
v 0.00339688 0.03889906 0.01162065
v 0.00292092 0.03903550 0.01167297
v 0.00290683 0.03846388 0.01195296
v 0.00239156 0.03859561 0.01198265
v 0.00164564 0.03874616 0.01203497
v 0.00274720 0.03827804 0.01204770
v 0.00456945 0.02638915 0.00222696
v 0.00468917 0.02653500 0.00239382
v 0.00516865 0.02816519 0.00245462
v 0.00372083 0.02403443 0.00236695
v 0.00316799 0.02208431 0.00590779
v 0.00192206 0.01988484 0.00574941
v 0.00172135 0.01953905 0.00574941
v 0.00182229 0.01989896 0.00373719
v 0.00215798 0.02111984 0.00191869
v 0.00022247 0.01746661 0.00673220
v 0.00022247 0.01743838 0.00625000
v 0.00520973 0.02843336 0.00235705
v 0.00467568 0.03010825 0.00042684
v 0.00569390 0.03094805 0.00241361
v 0.00595389 0.03346273 0.00273037
v 0.00617690 0.03518467 0.00388566
v 0.00617984 0.03547401 0.00385738
v 0.00621622 0.03397555 0.00572255
v 0.00620801 0.03347450 0.00575931
v 0.00618629 0.03647848 0.00589506
v 0.00618629 0.03647848 0.00610293
v 0.00616869 0.03674194 0.00602233
v 0.00573088 0.03849210 0.00826222
v 0.00474904 0.03938836 0.00977104
v 0.00468800 0.03929897 0.01008921
v 0.00566397 0.03925192 0.00601526
v 0.00467509 0.04027520 0.00763013
v 0.00464516 0.04024227 0.00796527
v 0.00461581 0.04020698 0.00826222
v 0.00474786 0.03987765 0.00876563
v 0.00469622 0.03980473 0.00912764
v 0.00463342 0.03972004 0.00946277
v 0.00459527 0.03915312 0.01042434
v 0.00442215 0.03901668 0.01079907
v 0.00458412 0.03860972 0.01093058
v 0.00438282 0.03844741 0.01125440
v 0.00161864 0.03874616 0.01203497
v 0.00088270 0.03798870 0.01225981
v 0.00037975 0.03748529 0.01234890
v 0.00022247 0.03730651 0.01236869
v 0.00424843 0.03888260 0.01112431
v 0.00412401 0.03921664 0.01100411
v 0.00391626 0.03900728 0.01128976
v 0.00378891 0.03936013 0.01112007
v 0.00339688 0.03914842 0.01146652
v 0.00310578 0.03923075 0.01152166
v 0.00277068 0.03929426 0.01156126
v 0.00239156 0.03899551 0.01179599
v 0.00184342 0.03894611 0.01190629
v 0.00188861 0.03942129 0.01164045
v 0.00322433 0.02546232 0.00023594
v 0.00314980 0.02565992 -0.00003981
v 0.00399314 0.02793231 0.00021614
v 0.00508473 0.02843336 0.00210676
v 0.00266680 0.02359218 0.00043391
v 0.00209519 0.02121629 0.00158355
v 0.00218146 0.02155268 0.00141386
v 0.00259403 0.02325579 0.00056825
v 0.00022247 0.01744308 0.00574093
v 0.00022247 0.01747366 0.00524600
v 0.00022247 0.01751130 0.00474259
v 0.00022247 0.01751836 0.00468462
v 0.00022247 0.01757952 0.00423918
v 0.00022247 0.01767832 0.00373719
v 0.00022247 0.01778418 0.00329458
v 0.00022247 0.01780535 0.00322388
v 0.00022247 0.01796766 0.00272754
v 0.00022247 0.01816997 0.00222837
v 0.00022247 0.01840991 0.00177162
v 0.00375369 0.02793231 -0.00013738
v 0.00449316 0.02994123 0.00024160
v 0.00422202 0.02994123 -0.00009920
v 0.00463225 0.03230066 -0.00002425
v 0.00481477 0.03246298 0.00017231
v 0.00508121 0.03245592 0.00071955
v 0.00528133 0.03448366 0.00068561
v 0.00548087 0.03446720 0.00122155
v 0.00570975 0.03698188 0.00181546
v 0.00614697 0.03547401 0.00360709
v 0.00617103 0.03574689 0.00391677
v 0.00616869 0.03674194 0.00597567
v 0.00457180 0.03964006 0.00977104
v 0.00422965 0.03982590 0.01014011
v 0.00441276 0.03950363 0.01028294
v 0.00566397 0.03925192 0.00598415
v 0.00472673 0.04033401 0.00625000
v 0.00471382 0.04031990 0.00675341
v 0.00469622 0.04029873 0.00725682
v 0.00442449 0.04055043 0.00725682
v 0.00415336 0.04075744 0.00751842
v 0.00436405 0.04044457 0.00826222
v 0.00429303 0.04037871 0.00876563
v 0.00454480 0.04012936 0.00876563
v 0.00442391 0.04002350 0.00931429
v 0.00432003 0.03992705 0.00977104
v 0.00426017 0.03937424 0.01066898
v 0.00142497 0.03894611 0.01191478
v 0.00128295 0.03872029 0.01202507
v 0.00088270 0.03838860 0.01209861
v 0.00038679 0.03799575 0.01214244
v 0.00022247 0.03791813 0.01211416
v 0.00411052 0.03971063 0.01047525
v 0.00394971 0.03953421 0.01082311
v 0.00354477 0.03969417 0.01097583
v 0.00338514 0.03951539 0.01119501
v 0.00320966 0.03977885 0.01105643
v 0.00292092 0.03947540 0.01138874
v 0.00239156 0.03961419 0.01143823
v 0.00239156 0.03936248 0.01159661
v 0.00188861 0.03967064 0.01147924
v 0.00138565 0.03939306 0.01164045
v 0.00287690 0.02546232 -0.00013172
v 0.00239156 0.02541762 -0.00036222
v 0.00289451 0.02591868 -0.00022222
v 0.00339688 0.02793231 -0.00034383
v 0.00370264 0.02760533 -0.00008647
v 0.00237219 0.02344634 0.00022745
v 0.00215094 0.02363452 -0.00004263
v 0.00115971 0.02360394 -0.00055311
v 0.00225834 0.02305114 0.00035472
v 0.00022247 0.01875571 0.00129367
v 0.00022247 0.01883804 0.00119327
v 0.00022247 0.01895095 0.00107024
v 0.00022247 0.01921442 0.00080864
v 0.00022247 0.01936262 0.00068420
v 0.00022247 0.01947318 0.00059936
v 0.00022247 0.01979781 0.00035755
v 0.00389983 0.03044464 -0.00029434
v 0.00466159 0.03263705 -0.00004122
v 0.00516689 0.03466244 0.00045653
v 0.00527781 0.03498001 0.00067572
v 0.00562348 0.03698188 0.00156375
v 0.00568158 0.03727123 0.00190030
v 0.00569801 0.03849210 0.00340488
v 0.00566632 0.03875557 0.00346851
v 0.00573146 0.03849210 0.00373719
v 0.00414221 0.04024462 0.00949954
v 0.00405711 0.04017876 0.00977104
v 0.00369912 0.04028461 0.01007789
v 0.00390452 0.04000233 0.01027728
v 0.00467568 0.04027520 0.00436504
v 0.00469739 0.04029873 0.00474259
v 0.00471382 0.04031990 0.00524600
v 0.00472673 0.04033401 0.00574941
v 0.00446499 0.04058571 0.00625000
v 0.00445032 0.04057160 0.00675341
v 0.00417272 0.04077155 0.00725682
v 0.00389983 0.04092210 0.00725682
v 0.00392682 0.04085389 0.00771498
v 0.00411228 0.04072921 0.00785356
v 0.00405476 0.04069628 0.00826222
v 0.00421498 0.04030578 0.00916440
v 0.00389631 0.04065158 0.00880240
v 0.00088270 0.03863795 0.01197841
v 0.00055992 0.03829215 0.01206184
v 0.00022423 0.03816983 0.01198831
v 0.00022247 0.03816513 0.01198972
v 0.00377482 0.03984472 0.01064070
v 0.00335521 0.03997880 0.01075806
v 0.00289451 0.03983296 0.01111017
v 0.00316682 0.04026109 0.01053888
v 0.00239156 0.04018111 0.01095462
v 0.00239156 0.03992940 0.01118653
v 0.00138565 0.03964477 0.01143116
v 0.00188861 0.03996939 0.01122754
v 0.00101357 0.03931779 0.01158954
v 0.00237102 0.02588810 -0.00047393
v 0.00188861 0.02642209 -0.00074967
v 0.00302832 0.02793231 -0.00049372
v 0.00239156 0.02843336 -0.00079351
v 0.00289451 0.02994123 -0.00071008
v 0.00321553 0.02994123 -0.00057150
v 0.00325074 0.03044464 -0.00059271
v 0.00022247 0.02025181 0.00007191
v 0.00022247 0.02049176 -0.00004970
v 0.00022247 0.02060937 -0.00010768
v 0.00022247 0.02088931 -0.00021939
v 0.00022247 0.02134096 -0.00038767
v 0.00022247 0.02154327 -0.00045837
v 0.00022247 0.02194082 -0.00058140
v 0.00065089 0.02260889 -0.00055029
v 0.00089385 0.02342281 -0.00062948
v 0.00088270 0.02390740 -0.00073694
v 0.00022247 0.01988484 0.00030240
v 0.00022247 0.01993424 0.00027129
v 0.00330532 0.03144910 -0.00061816
v 0.00333232 0.03195251 -0.00062665
v 0.00360580 0.03245592 -0.00051776
v 0.00361108 0.03295933 -0.00052201
v 0.00466159 0.03272174 -0.00004122
v 0.00516689 0.03482005 0.00045653
v 0.00537171 0.03698188 0.00124842
v 0.00479129 0.03744530 0.00070400
v 0.00472849 0.03798870 0.00087369
v 0.00527429 0.03748529 0.00134740
v 0.00550200 0.03745706 0.00172920
v 0.00514635 0.03515644 0.00047916
v 0.00469093 0.03881203 0.00140821
v 0.00476899 0.03898610 0.00173486
v 0.00468859 0.03929897 0.00190879
v 0.00474845 0.03939541 0.00222837
v 0.00463870 0.03972710 0.00252250
v 0.00469798 0.03980708 0.00285763
v 0.00474962 0.03988000 0.00323378
v 0.00461640 0.04020698 0.00373719
v 0.00464575 0.04024227 0.00402990
v 0.00394502 0.04044693 0.00930722
v 0.00380534 0.04035989 0.00977104
v 0.00337164 0.04060218 0.00974417
v 0.00335932 0.04034107 0.01025748
v 0.00350134 0.04017876 0.01041303
v 0.00436522 0.04044457 0.00373719
v 0.00439984 0.04050338 0.00425332
v 0.00415394 0.04075744 0.00447675
v 0.00442449 0.04055043 0.00474259
v 0.00444973 0.04057160 0.00524600
v 0.00446499 0.04058571 0.00574941
v 0.00421322 0.04079978 0.00625000
v 0.00419855 0.04079037 0.00675341
v 0.00389983 0.04095974 0.00675341
v 0.00342328 0.04117616 0.00675341
v 0.00334816 0.04117146 0.00721439
v 0.00339688 0.04110324 0.00775881
v 0.00380299 0.04083742 0.00826222
v 0.00372611 0.04079508 0.00865958
v 0.00363515 0.04074803 0.00899613
v 0.00086040 0.03902609 0.01172246
v 0.00047717 0.03888025 0.01163338
v 0.00022247 0.03876498 0.01154570
v 0.00289451 0.04051044 0.01027445
v 0.00243147 0.04066099 0.01026879
v 0.00289451 0.04030814 0.01059403
v 0.00239156 0.04038812 0.01070292
v 0.00188861 0.04021875 0.01098573
v 0.00138565 0.03988941 0.01117946
v 0.00067847 0.03921664 0.01149904
v 0.00104409 0.03980238 0.01109461
v 0.00138565 0.02491422 -0.00070866
v 0.00138565 0.02541762 -0.00079775
v 0.00138565 0.02591868 -0.00087128
v 0.00188861 0.02692549 -0.00081330
v 0.00239156 0.02793231 -0.00074119
v 0.00188861 0.02742890 -0.00086845
v 0.00188861 0.02793231 -0.00092077
v 0.00188861 0.02843336 -0.00096178
v 0.00239156 0.02893677 -0.00082886
v 0.00289451 0.03044464 -0.00074543
v 0.00022247 0.02241600 -0.00068887
v 0.00037975 0.02290294 -0.00073694
v 0.00038621 0.02242541 -0.00062382
v 0.00037975 0.02340399 -0.00083734
v 0.00088270 0.02441081 -0.00082462
v 0.00289451 0.03094805 -0.00076947
v 0.00335462 0.03245592 -0.00063089
v 0.00335932 0.03295933 -0.00062948
v 0.00360991 0.03346273 -0.00052201
v 0.00360404 0.03396379 -0.00052059
v 0.00358350 0.03446720 -0.00051493
v 0.00389983 0.03497060 -0.00032121
v 0.00422672 0.03597742 -0.00008788
v 0.00465924 0.03725005 0.00046219
v 0.00459703 0.03758409 0.00052724
v 0.00450783 0.03798870 0.00062340
v 0.00466922 0.03827333 0.00095005
v 0.00475725 0.03846153 0.00123286
v 0.00418798 0.03647848 -0.00005960
v 0.00443975 0.03647848 0.00014120
v 0.00468624 0.03698188 0.00043391
v 0.00458354 0.03860737 0.00107307
v 0.00442215 0.03901433 0.00120175
v 0.00459586 0.03914842 0.00157365
v 0.00441334 0.03950598 0.00171365
v 0.00423082 0.03983060 0.00185505
v 0.00457649 0.03964712 0.00222837
v 0.00432531 0.03993176 0.00222837
v 0.00442860 0.04002820 0.00267380
v 0.00454774 0.04013171 0.00323378
v 0.00429597 0.04038106 0.00323378
v 0.00354418 0.04070804 0.00926763
v 0.00318736 0.04077391 0.00955752
v 0.00289451 0.04070333 0.00991810
v 0.00405359 0.04069628 0.00373719
v 0.00411345 0.04073156 0.00414161
v 0.00392741 0.04085624 0.00428161
v 0.00389983 0.04092446 0.00474259
v 0.00417331 0.04077155 0.00474259
v 0.00419796 0.04079037 0.00524600
v 0.00421322 0.04079978 0.00574941
v 0.00389983 0.04098091 0.00625000
v 0.00346495 0.04118792 0.00625000
v 0.00289451 0.04137611 0.00675341
v 0.00292914 0.04133377 0.00721439
v 0.00307996 0.04123262 0.00775881
v 0.00339688 0.04102561 0.00826222
v 0.00343913 0.04087976 0.00880240
v 0.00329241 0.04081625 0.00926763
v 0.00022247 0.03887319 0.01143823
v 0.00262572 0.04075038 0.01001285
v 0.00229062 0.04079273 0.01009628
v 0.00188861 0.04039753 0.01073402
v 0.00148307 0.04032931 0.01064494
v 0.00134340 0.04015994 0.01079907
v 0.00049830 0.03936013 0.01116390
v 0.00031989 0.03904726 0.01134066
v 0.00070899 0.03969417 0.01093624
v 0.00114797 0.04024462 0.01050919
v 0.00088270 0.02491422 -0.00089956
v 0.00097249 0.02591868 -0.00100279
v 0.00138565 0.02642209 -0.00092926
v 0.00135455 0.02691138 -0.00098724
v 0.00147310 0.02742890 -0.00099996
v 0.00160749 0.02843336 -0.00103531
v 0.00163449 0.02869683 -0.00104097
v 0.00185398 0.02889208 -0.00099289
v 0.00239156 0.03044464 -0.00091653
v 0.00239156 0.02994123 -0.00088966
v 0.00239156 0.02944018 -0.00085997
v 0.00154646 0.02793231 -0.00101976
v 0.00022247 0.02290294 -0.00079492
v 0.00022247 0.02339458 -0.00088684
v 0.00037975 0.02390740 -0.00092219
v 0.00239156 0.03094805 -0.00093067
v 0.00289451 0.03144910 -0.00078219
v 0.00289451 0.03195251 -0.00079351
v 0.00289451 0.03245592 -0.00079634
v 0.00335814 0.03346273 -0.00062382
v 0.00333173 0.03446720 -0.00059978
v 0.00352481 0.03497060 -0.00050079
v 0.00389983 0.03597742 -0.00025474
v 0.00389983 0.03547401 -0.00029151
v 0.00335286 0.03396379 -0.00061251
v 0.00441862 0.03744530 0.00032644
v 0.00435524 0.03694189 0.00015675
v 0.00425665 0.03798870 0.00038300
v 0.00418094 0.03828510 0.00044381
v 0.00438224 0.03844741 0.00074501
v 0.00424843 0.03888260 0.00087510
v 0.00389983 0.03647848 -0.00019253
v 0.00415629 0.03674900 -0.00003839
v 0.00412343 0.03921664 0.00099530
v 0.00426076 0.03937895 0.00133043
v 0.00411345 0.03971299 0.00151992
v 0.00390687 0.04000468 0.00172072
v 0.00406063 0.04018346 0.00222837
v 0.00414631 0.04024698 0.00248856
v 0.00421850 0.04031049 0.00282511
v 0.00389455 0.04064923 0.00320549
v 0.00289451 0.04097150 0.00926763
v 0.00289451 0.04082566 0.00966640
v 0.00372318 0.04079273 0.00335397
v 0.00380182 0.04083742 0.00373719
v 0.00339688 0.04110794 0.00423918
v 0.00335579 0.04117381 0.00474966
v 0.00344324 0.04117616 0.00524600
v 0.00389983 0.04095974 0.00524600
v 0.00389983 0.04098091 0.00574941
v 0.00347552 0.04118792 0.00574941
v 0.00322375 0.04128908 0.00574941
v 0.00321377 0.04128202 0.00625000
v 0.00289451 0.04139964 0.00625000
v 0.00239156 0.04145374 0.00675341
v 0.00239156 0.04142786 0.00725682
v 0.00282878 0.04132671 0.00775881
v 0.00297902 0.04119498 0.00826222
v 0.00264978 0.04126085 0.00852524
v 0.00284815 0.04113382 0.00872180
v 0.00022247 0.03915312 0.01111441
v 0.00243147 0.04088447 0.00981629
v 0.00239156 0.04109148 0.00926763
v 0.00202183 0.04079273 0.01009628
v 0.00186807 0.04066099 0.01026879
v 0.00168613 0.04073862 0.00997043
v 0.00134340 0.04042811 0.01031404
v 0.00022247 0.03924016 0.01100977
v 0.00058163 0.03978826 0.01060110
v 0.00037212 0.03950363 0.01078917
v 0.00022247 0.03929662 0.01092351
v 0.00087918 0.04013641 0.01031404
v 0.00104409 0.04031519 0.01017405
v 0.00036156 0.02438258 -0.00099148
v 0.00051297 0.02491422 -0.00101269
v 0.00022247 0.02472603 -0.00106501
v 0.00065793 0.02560581 -0.00104804
v 0.00072131 0.02591868 -0.00106218
v 0.00106346 0.02642209 -0.00102400
v 0.00111452 0.02673495 -0.00103673
v 0.00122192 0.02742890 -0.00106360
v 0.00129528 0.02793231 -0.00107915
v 0.00166383 0.02903087 -0.00104804
v 0.00199307 0.03044464 -0.00101410
v 0.00022247 0.02390740 -0.00096744
v 0.00199953 0.03094805 -0.00101976
v 0.00239156 0.03144910 -0.00093209
v 0.00289451 0.03295933 -0.00078926
v 0.00239156 0.03195251 -0.00092926
v 0.00289451 0.03446720 -0.00071008
v 0.00327363 0.03497060 -0.00057715
v 0.00289451 0.03346273 -0.00076947
v 0.00289451 0.03396379 -0.00074119
v 0.00339688 0.03597742 -0.00043009
v 0.00408352 0.03708303 -0.00000587
v 0.00398023 0.03748529 0.00004504
v 0.00385405 0.03794400 0.00012988
v 0.00388574 0.03846858 0.00036462
v 0.00404420 0.03862149 0.00053997
v 0.00339688 0.03647848 -0.00036363
v 0.00390922 0.03694189 -0.00010627
v 0.00378832 0.03936013 0.00087793
v 0.00395088 0.03953656 0.00117630
v 0.00391626 0.03900728 0.00070824
v 0.00377776 0.03984237 0.00135871
v 0.00370029 0.04028461 0.00192293
v 0.00380945 0.04035989 0.00222837
v 0.00394736 0.04044693 0.00268653
v 0.00353890 0.04070333 0.00273037
v 0.00362752 0.04074568 0.00301884
v 0.00343444 0.04088211 0.00320549
v 0.00339688 0.04102561 0.00373719
v 0.00308407 0.04123497 0.00423918
v 0.00312515 0.04125144 0.00458704
v 0.00316154 0.04126320 0.00492218
v 0.00319206 0.04127496 0.00524600
v 0.00289451 0.04138552 0.00524600
v 0.00289451 0.04140669 0.00574941
v 0.00239156 0.04146785 0.00625000
v 0.00198133 0.04133612 0.00725682
v 0.00201420 0.04131730 0.00775881
v 0.00207523 0.04128672 0.00826222
v 0.00239156 0.04138552 0.00775881
v 0.00272784 0.04128908 0.00826222
v 0.00239156 0.04131730 0.00826222
v 0.00239156 0.04126555 0.00854787
v 0.00239156 0.04120909 0.00879816
v 0.00212453 0.04126555 0.00854787
v 0.00186807 0.04085859 0.00978942
v 0.00188861 0.04101620 0.00926763
v 0.00139622 0.04064688 0.00978942
v 0.00157111 0.04079037 0.00963388
v 0.00049889 0.03986119 0.01027445
v 0.00024770 0.03964241 0.01027445
v 0.00022247 0.03959537 0.01032536
v 0.00022247 0.03940718 0.01071706
v 0.00095195 0.04038106 0.00977104
v 0.00070018 0.04019993 0.00977104
v 0.00022247 0.02428143 -0.00101693
v 0.00022247 0.02450020 -0.00104097
v 0.00022247 0.02491422 -0.00108056
v 0.00026120 0.02491422 -0.00107349
v 0.00040322 0.02542938 -0.00108622
v 0.00081169 0.02642209 -0.00108339
v 0.00092085 0.02691138 -0.00109188
v 0.00135572 0.02843336 -0.00108481
v 0.00088270 0.02742890 -0.00112864
v 0.00088270 0.02793231 -0.00115127
v 0.00138565 0.02944018 -0.00110319
v 0.00168496 0.02944018 -0.00105228
v 0.00174130 0.03044464 -0.00105935
v 0.00174776 0.03094805 -0.00105794
v 0.00196079 0.03144910 -0.00101834
v 0.00239156 0.03245592 -0.00092219
v 0.00239156 0.03446720 -0.00079209
v 0.00289451 0.03497060 -0.00066341
v 0.00239156 0.03295933 -0.00089956
v 0.00239156 0.03346273 -0.00086704
v 0.00239156 0.03396379 -0.00083169
v 0.00320027 0.03533522 -0.00055311
v 0.00310872 0.03567161 -0.00053190
v 0.00372905 0.03748529 -0.00006667
v 0.00365569 0.03774640 -0.00003839
v 0.00339688 0.03849210 0.00017231
v 0.00370909 0.03879791 0.00043532
v 0.00289451 0.03698188 -0.00037211
v 0.00339688 0.03698188 -0.00027313
v 0.00299252 0.03597742 -0.00051493
v 0.00284463 0.03642908 -0.00047675
v 0.00339688 0.03914606 0.00053431
v 0.00338220 0.03951539 0.00080722
v 0.00354007 0.03969417 0.00102358
v 0.00335110 0.03997645 0.00124276
v 0.00316271 0.04025874 0.00146336
v 0.00349723 0.04017640 0.00158779
v 0.00335638 0.04034107 0.00174334
v 0.00337223 0.04060218 0.00225382
v 0.00318853 0.04077391 0.00243907
v 0.00328713 0.04081860 0.00273037
v 0.00284756 0.04113852 0.00327903
v 0.00297785 0.04119498 0.00373719
v 0.00283289 0.04132671 0.00423918
v 0.00293207 0.04133377 0.00474966
v 0.00239156 0.04142786 0.00474259
v 0.00239156 0.04145374 0.00524600
v 0.00239156 0.04147021 0.00574941
v 0.00196255 0.04135259 0.00625000
v 0.00196666 0.04134553 0.00675341
v 0.00173015 0.04120674 0.00725682
v 0.00176243 0.04119263 0.00775881
v 0.00182346 0.04116910 0.00826222
v 0.00192910 0.04114323 0.00873452
v 0.00149305 0.04083507 0.00926763
v 0.00124187 0.04069157 0.00926763
v 0.00022247 0.03976944 0.00984881
v 0.00022247 0.03973416 0.00995346
v 0.00022247 0.03966359 0.01015143
v 0.00022247 0.03961889 0.01027445
v 0.00064560 0.04023992 0.00945146
v 0.00035393 0.03991529 0.00974276
v 0.00022247 0.02542468 -0.00111450
v 0.00037975 0.02591868 -0.00112581
v 0.00037975 0.02642209 -0.00115692
v 0.00037975 0.02692549 -0.00117955
v 0.00037975 0.02742890 -0.00119652
v 0.00037975 0.02793231 -0.00120783
v 0.00088270 0.02843336 -0.00115975
v 0.00138565 0.02994123 -0.00111026
v 0.00138565 0.03044464 -0.00111167
v 0.00138565 0.03094805 -0.00110319
v 0.00191149 0.03195251 -0.00101410
v 0.00183813 0.03240652 -0.00101127
v 0.00188861 0.03446720 -0.00084441
v 0.00239156 0.03497060 -0.00073977
v 0.00188861 0.03295933 -0.00097451
v 0.00188861 0.03396379 -0.00089108
v 0.00264333 0.03622912 -0.00053897
v 0.00339688 0.03784756 -0.00006667
v 0.00339688 0.03809926 0.00001110
v 0.00339688 0.03748529 -0.00016000
v 0.00306236 0.03820982 -0.00002708
v 0.00289451 0.03845682 0.00004645
v 0.00291036 0.03903080 0.00032785
v 0.00339688 0.03889436 0.00037735
v 0.00239156 0.03698188 -0.00043433
v 0.00239156 0.03748529 -0.00032121
v 0.00289451 0.03748529 -0.00025616
v 0.00239156 0.03656316 -0.00051069
v 0.00308877 0.03922369 0.00048199
v 0.00291036 0.03947304 0.00061067
v 0.00320555 0.03977650 0.00094580
v 0.00289451 0.04008701 0.00115084
v 0.00289451 0.04031049 0.00140114
v 0.00289451 0.04051514 0.00172496
v 0.00289451 0.04070804 0.00207565
v 0.00289451 0.04082801 0.00232594
v 0.00289451 0.04097621 0.00273037
v 0.00264861 0.04126085 0.00347700
v 0.00272666 0.04128672 0.00373719
v 0.00239156 0.04138552 0.00423918
v 0.00207582 0.04128672 0.00373719
v 0.00201420 0.04131730 0.00423918
v 0.00198133 0.04133612 0.00474259
v 0.00196666 0.04134553 0.00524600
v 0.00196255 0.04135024 0.00574941
v 0.00171548 0.04121380 0.00524600
v 0.00171137 0.04121380 0.00574941
v 0.00171078 0.04121380 0.00625000
v 0.00171489 0.04121145 0.00675341
v 0.00138565 0.04097386 0.00725682
v 0.00138565 0.04095739 0.00775881
v 0.00134281 0.04089153 0.00826505
v 0.00142615 0.04088211 0.00876563
v 0.00117438 0.04072921 0.00876563
v 0.00084103 0.04041164 0.00927753
v 0.00022247 0.03982825 0.00963953
v 0.00061157 0.04026815 0.00911632
v 0.00022247 0.03986824 0.00945994
v 0.00022247 0.02591868 -0.00114561
v 0.00022247 0.02642209 -0.00117248
v 0.00022247 0.02692549 -0.00119369
v 0.00022247 0.02742890 -0.00120924
v 0.00022247 0.02793231 -0.00121914
v 0.00037975 0.02843336 -0.00121207
v 0.00088270 0.02994123 -0.00117248
v 0.00088270 0.03044464 -0.00116541
v 0.00163742 0.03220657 -0.00104097
v 0.00155057 0.03254060 -0.00103673
v 0.00138565 0.03446720 -0.00088401
v 0.00138565 0.03497060 -0.00083027
v 0.00188861 0.03497060 -0.00078926
v 0.00239156 0.03547401 -0.00067190
v 0.00138389 0.03294051 -0.00102117
v 0.00138565 0.03346273 -0.00097592
v 0.00138565 0.03396379 -0.00093067
v 0.00239156 0.03597742 -0.00060119
v 0.00239156 0.03631146 -0.00055170
v 0.00239156 0.03798870 -0.00017697
v 0.00165151 0.03874616 -0.00003698
v 0.00198661 0.03868029 -0.00001435
v 0.00239156 0.03899551 0.00020200
v 0.00239156 0.03936248 0.00040280
v 0.00275366 0.03928956 0.00044098
v 0.00202241 0.03667608 -0.00052908
v 0.00186807 0.03694424 -0.00049090
v 0.00188861 0.03748529 -0.00037070
v 0.00188861 0.03798870 -0.00023353
v 0.00239156 0.03961419 0.00055552
v 0.00289451 0.03983766 0.00088783
v 0.00239156 0.04018346 0.00104196
v 0.00239156 0.04039282 0.00129367
v 0.00243616 0.04066570 0.00173062
v 0.00263335 0.04075273 0.00198091
v 0.00243616 0.04088447 0.00218029
v 0.00239156 0.04109148 0.00273037
v 0.00239156 0.04126320 0.00345579
v 0.00239156 0.04131495 0.00373719
v 0.00239156 0.04120674 0.00320408
v 0.00212512 0.04126320 0.00345437
v 0.00193027 0.04114323 0.00326630
v 0.00182464 0.04116910 0.00373719
v 0.00176243 0.04119263 0.00423918
v 0.00173015 0.04120674 0.00474259
v 0.00138565 0.04095974 0.00423918
v 0.00138565 0.04097621 0.00474259
v 0.00138565 0.04098797 0.00524600
v 0.00138565 0.04099503 0.00574941
v 0.00138565 0.04099503 0.00625000
v 0.00138565 0.04098562 0.00675341
v 0.00111334 0.04077155 0.00775881
v 0.00112097 0.04076450 0.00809961
v 0.00114621 0.04074568 0.00843615
v 0.00088270 0.04051514 0.00876563
v 0.00058516 0.04028932 0.00876563
v 0.00033397 0.04006819 0.00876563
v 0.00022247 0.03993646 0.00899896
v 0.00022247 0.03989647 0.00927187
v 0.00022247 0.02843336 -0.00122339
v 0.00037975 0.02944018 -0.00120642
v 0.00037975 0.02994123 -0.00120217
v 0.00037975 0.02893677 -0.00121066
v 0.00037975 0.03044464 -0.00119228
v 0.00037975 0.03094805 -0.00117672
v 0.00088270 0.03094805 -0.00114844
v 0.00088270 0.03144910 -0.00112723
v 0.00088270 0.03195251 -0.00110460
v 0.00121546 0.03276173 -0.00104521
v 0.00088270 0.03446720 -0.00091795
v 0.00088270 0.03497060 -0.00086280
v 0.00138565 0.03547401 -0.00076240
v 0.00188861 0.03547401 -0.00072139
v 0.00099421 0.03309812 -0.00103249
v 0.00084866 0.03342274 -0.00101410
v 0.00088270 0.03396379 -0.00096461
v 0.00188861 0.03597742 -0.00064927
v 0.00160808 0.03874616 -0.00003698
v 0.00188861 0.03942129 0.00035755
v 0.00184694 0.03894611 0.00009029
v 0.00138565 0.03798870 -0.00027171
v 0.00186807 0.03649729 -0.00057008
v 0.00168731 0.03675135 -0.00054180
v 0.00138565 0.03705245 -0.00050645
v 0.00138565 0.03748529 -0.00041171
v 0.00188861 0.03967300 0.00052017
v 0.00239156 0.03993176 0.00080722
v 0.00188861 0.03996469 0.00077187
v 0.00188861 0.04021639 0.00101651
v 0.00188861 0.04039988 0.00126680
v 0.00229824 0.04079273 0.00190313
v 0.00201889 0.04079273 0.00190313
v 0.00186630 0.04086094 0.00220574
v 0.00188861 0.04101855 0.00273037
v 0.00149070 0.04083742 0.00273037
v 0.00142380 0.04088447 0.00323378
v 0.00134105 0.04089153 0.00372729
v 0.00112097 0.04076450 0.00388849
v 0.00110982 0.04077391 0.00423918
v 0.00109163 0.04078567 0.00574941
v 0.00109163 0.04078567 0.00625000
v 0.00085688 0.04058571 0.00725682
v 0.00086157 0.04057866 0.00775881
v 0.00054114 0.04032695 0.00775881
v 0.00055875 0.04031284 0.00826222
v 0.00030698 0.04009172 0.00826222
v 0.00022247 0.03996704 0.00876563
v 0.00022247 0.02893677 -0.00121914
v 0.00022247 0.02994123 -0.00120642
v 0.00022247 0.03009884 -0.00120359
v 0.00022247 0.02944018 -0.00121349
v 0.00022247 0.03060225 -0.00119369
v 0.00022247 0.03094805 -0.00118238
v 0.00022247 0.03110331 -0.00117672
v 0.00022247 0.03144910 -0.00116258
v 0.00037975 0.03144910 -0.00115551
v 0.00037975 0.03195251 -0.00113147
v 0.00088270 0.03245592 -0.00107915
v 0.00084866 0.03294051 -0.00105228
v 0.00065852 0.03322985 -0.00104238
v 0.00037975 0.03446720 -0.00094198
v 0.00037975 0.03497060 -0.00088259
v 0.00088270 0.03547401 -0.00078926
v 0.00138565 0.03597742 -0.00068321
v 0.00127297 0.03872029 -0.00002566
v 0.00141852 0.03894611 0.00008463
v 0.00088270 0.03748529 -0.00042302
v 0.00088270 0.03798870 -0.00025616
v 0.00138565 0.03939306 0.00035896
v 0.00088270 0.03647848 -0.00063089
v 0.00138565 0.03680075 -0.00055029
v 0.00088270 0.03710891 -0.00051352
v 0.00088270 0.03685721 -0.00056443
v 0.00138565 0.03964477 0.00056825
v 0.00148131 0.04033166 0.00135306
v 0.00138565 0.03989177 0.00081995
v 0.00186630 0.04066099 0.00173062
v 0.00168379 0.04073862 0.00202474
v 0.00156817 0.04079273 0.00235988
v 0.00123893 0.04069157 0.00273037
v 0.00117203 0.04072921 0.00323378
v 0.00114386 0.04074803 0.00355336
v 0.00088270 0.04051750 0.00323378
v 0.00058574 0.04028932 0.00323378
v 0.00092496 0.04059748 0.00372729
v 0.00055875 0.04031284 0.00373719
v 0.00085805 0.04057866 0.00423918
v 0.00085277 0.04058807 0.00474259
v 0.00084045 0.04059042 0.00574941
v 0.00083986 0.04059042 0.00625000
v 0.00084808 0.04058807 0.00675341
v 0.00053292 0.04033401 0.00725682
v 0.00028996 0.04010583 0.00775881
v 0.00022247 0.04001409 0.00826222
v 0.00022247 0.03195251 -0.00113713
v 0.00037975 0.03245592 -0.00110178
v 0.00022247 0.03295933 -0.00106784
v 0.00022247 0.03349802 -0.00102400
v 0.00037975 0.03396379 -0.00098441
v 0.00022247 0.03245592 -0.00110602
v 0.00022247 0.03446720 -0.00093916
v 0.00022247 0.03396379 -0.00098441
v 0.00037975 0.03597742 -0.00072139
v 0.00088270 0.03597742 -0.00071008
v 0.00022247 0.03497060 -0.00087835
v 0.00088270 0.03863325 0.00002241
v 0.00088270 0.03838154 -0.00009637
v 0.00037975 0.03681957 -0.00056160
v 0.00037975 0.03707127 -0.00048665
v 0.00037975 0.03748529 -0.00034666
v 0.00101357 0.03931779 0.00040987
v 0.00037975 0.03647848 -0.00063372
v 0.00134281 0.04042811 0.00168395
v 0.00134281 0.04015994 0.00120034
v 0.00114621 0.04024462 0.00148881
v 0.00104292 0.03980473 0.00090197
v 0.00139446 0.04064923 0.00220574
v 0.00095137 0.04038106 0.00222837
v 0.00064560 0.04023992 0.00254795
v 0.00084103 0.04041164 0.00272188
v 0.00061215 0.04026815 0.00288309
v 0.00033397 0.04006819 0.00323378
v 0.00030756 0.04008936 0.00373719
v 0.00054231 0.04032695 0.00423918
v 0.00053468 0.04033636 0.00474259
v 0.00053292 0.04033872 0.00524600
v 0.00053175 0.04033872 0.00574941
v 0.00053116 0.04033872 0.00625000
v 0.00053116 0.04033636 0.00675341
v 0.00028174 0.04011289 0.00725682
v 0.00022247 0.04005878 0.00725682
v 0.00022247 0.04004232 0.00775881
v 0.00022247 0.04003526 0.00789174
v 0.00022247 0.03547401 -0.00079634
v 0.00086040 0.03902609 0.00027836
v 0.00056755 0.03828510 -0.00005960
v 0.00039149 0.03799575 -0.00013879
v 0.00022247 0.03663608 -0.00058422
v 0.00022247 0.03678193 -0.00055311
v 0.00022247 0.03748294 -0.00028727
v 0.00022247 0.03764760 -0.00022364
v 0.00067788 0.03921664 0.00049896
v 0.00022247 0.03597742 -0.00070583
v 0.00104351 0.04031519 0.00182394
v 0.00070781 0.03969652 0.00106034
v 0.00057987 0.03979061 0.00139548
v 0.00087859 0.04013876 0.00168395
v 0.00070018 0.04019993 0.00222837
v 0.00035334 0.03991529 0.00225665
v 0.00022247 0.03982825 0.00236129
v 0.00041848 0.04007055 0.00272188
v 0.00022247 0.03989647 0.00272754
v 0.00022247 0.03996704 0.00323378
v 0.00029055 0.04010113 0.00423918
v 0.00022247 0.04001174 0.00373719
v 0.00028292 0.04011054 0.00474259
v 0.00022247 0.04006584 0.00585123
v 0.00027939 0.04011759 0.00625000
v 0.00027998 0.04011524 0.00675341
v 0.00022247 0.04006349 0.00685946
v 0.00047893 0.03888025 0.00036745
v 0.00023244 0.03816748 0.00001393
v 0.00022247 0.03791578 -0.00011192
v 0.00022247 0.03886848 0.00055976
v 0.00032048 0.03904726 0.00065875
v 0.00049712 0.03936013 0.00083409
v 0.00049712 0.03986354 0.00172496
v 0.00022247 0.03929897 0.00107590
v 0.00037095 0.03950363 0.00120882
v 0.00022247 0.03940953 0.00128094
v 0.00022247 0.03962124 0.00172496
v 0.00024594 0.03964241 0.00172496
v 0.00022247 0.03976944 0.00215060
v 0.00022247 0.04003761 0.00423918
v 0.00022247 0.04004232 0.00436221
v 0.00022247 0.04005408 0.00474259
v 0.00022247 0.04006114 0.00535064
v 0.00022247 0.04006584 0.00635322
v 0.00022247 0.03864501 0.00037452
v 0.00022247 0.03817689 0.00002666
v 0.00022247 0.03816277 0.00001817
v 0.00022247 0.03899786 0.00070683
v 0.00022247 0.03915077 0.00088358
v 0.00022247 0.03966359 0.00184091
f 1 2 3
f 1 3 4
f 1 4 5
f 1 5 6
f 1 6 15
f 1 15 27
f 1 27 41
f 1 41 63
f 1 63 65
f 1 65 88
f 1 88 110
f 1 110 136
f 1 136 138
f 1 138 172
f 1 172 171
f 1 171 170
f 1 170 169
f 1 169 143
f 1 143 176
f 1 176 175
f 1 175 210
f 1 210 212
f 1 212 251
f 1 251 280
f 1 280 323
f 1 323 372
f 1 372 421
f 1 421 482
f 1 482 538
f 1 538 610
f 1 610 678
f 1 678 748
f 1 748 755
f 1 755 758
f 1 758 823
f 1 823 822
f 1 822 885
f 1 885 884
f 1 884 883
f 1 883 882
f 1 882 943
f 1 943 945
f 1 945 1004
f 1 1004 1003
f 1 1003 1052
f 1 1052 1099
f 1 1099 1138
f 1 1138 1137
f 1 1137 1136
f 1 1136 1165
f 1 1165 1183
f 1 1183 1162
f 1 1162 1182
f 1 1182 1181
f 1 1181 1180
f 1 1180 1179
f 1 1179 1160
f 1 1160 1158
f 1 1158 1157
f 1 1157 1155
f 1 1155 1178
f 1 1178 1189
f 1 1189 1176
f 1 1176 1175
f 1 1175 1173
f 1 1173 1188
f 1 1188 1187
f 1 1187 1169
f 1 1169 1184
f 1 1184 1185
f 1 1185 1186
f 1 1186 1168
f 1 1168 1146
f 1 1146 1145
f 1 1145 1144
f 1 1144 1143
f 1 1143 1148
f 1 1148 1139
f 1 1139 1110
f 1 1110 1106
f 1 1106 1107
f 1 1107 1103
f 1 1103 1102
f 1 1102 1105
f 1 1105 1100
f 1 1100 1060
f 1 1060 1059
f 1 1059 1058
f 1 1058 1057
f 1 1057 1055
f 1 1055 1054
f 1 1054 1056
f 1 1056 1053
f 1 1053 1005
f 1 1005 950
f 1 950 949
f 1 949 948
f 1 948 947
f 1 947 946
f 1 946 888
f 1 888 828
f 1 828 763
f 1 763 827
f 1 827 826
f 1 826 772
f 1 772 701
f 1 701 700
f 1 700 629
f 1 629 561
f 1 561 560
f 1 560 559
f 1 559 558
f 1 558 557
f 1 557 556
f 1 556 555
f 1 555 566
f 1 566 565
f 1 565 508
f 1 508 507
f 1 507 506
f 1 506 505
f 1 505 504
f 1 504 503
f 1 503 502
f 1 502 450
f 1 450 449
f 1 449 448
f 1 448 447
f 1 447 446
f 1 446 445
f 1 445 444
f 1 444 443
f 1 443 442
f 1 442 441
f 1 441 440
f 1 440 392
f 1 392 391
f 1 391 352
f 1 352 351
f 1 351 350
f 1 350 349
f 1 349 348
f 1 348 307
f 1 307 306
f 1 306 305
f 1 305 304
f 1 304 303
f 1 303 302
f 1 302 301
f 1 301 300
f 1 300 299
f 1 299 298
f 1 298 297
f 1 297 269
f 1 269 268
f 1 268 238
f 1 238 237
f 1 237 236
f 1 236 234
f 1 234 233
f 1 233 232
f 1 232 231
f 1 231 230
f 1 230 229
f 1 229 228
f 1 228 258
f 1 258 221
f 1 221 187
f 1 187 152
f 1 152 151
f 1 151 150
f 1 150 120
f 1 120 97
f 1 97 73
f 1 73 71
f 1 71 49
f 1 49 47
f 1 47 29
f 1 29 28
f 1 28 17
f 1 17 16
f 1 16 8
f 1 8 7
f 1 7 2
f 2 7 3
f 3 7 8
f 3 8 9
f 3 9 10
f 3 10 11
f 3 11 12
f 3 12 4
f 4 12 13
f 4 13 5
f 5 13 14
f 5 14 15
f 5 15 6
f 8 16 9
f 9 16 17
f 9 17 18
f 9 18 10
f 10 18 19
f 10 19 20
f 10 20 21
f 10 21 22
f 10 22 11
f 11 22 23
f 11 23 12
f 12 23 13
f 13 24 14
f 13 23 25
f 13 25 26
f 13 26 24
f 14 24 15
f 15 24 27
f 17 28 18
f 18 28 29
f 18 29 30
f 18 30 19
f 19 30 31
f 19 31 20
f 20 31 32
f 20 32 33
f 20 33 34
f 20 34 35
f 20 35 36
f 20 36 21
f 21 36 37
f 21 37 22
f 22 37 38
f 22 38 23
f 23 38 39
f 23 39 25
f 24 26 40
f 24 40 41
f 24 41 27
f 25 39 42
f 25 42 43
f 25 43 44
f 25 44 26
f 26 44 45
f 26 45 46
f 26 46 40
f 29 47 30
f 30 47 48
f 30 48 31
f 31 48 49
f 31 49 50
f 31 50 51
f 31 51 52
f 31 52 53
f 31 53 54
f 31 54 32
f 32 54 55
f 32 55 33
f 33 55 56
f 33 56 57
f 33 57 34
f 34 57 58
f 34 58 35
f 35 58 36
f 36 58 59
f 36 59 60
f 36 60 37
f 37 60 61
f 37 61 38
f 38 61 39
f 39 61 62
f 39 62 42
f 40 63 41
f 40 46 64
f 40 64 65
f 40 65 63
f 42 62 66
f 42 66 67
f 42 67 43
f 43 67 45
f 43 45 44
f 45 67 68
f 45 68 69
f 45 69 46
f 46 69 70
f 46 70 64
f 47 49 48
f 49 71 50
f 50 72 51
f 50 71 73
f 50 73 72
f 51 72 52
f 52 74 75
f 52 75 55
f 52 55 53
f 52 72 74
f 53 55 54
f 55 75 74
f 55 74 56
f 56 76 57
f 56 74 77
f 56 77 76
f 57 76 78
f 57 78 79
f 57 79 80
f 57 80 59
f 57 59 58
f 59 80 81
f 59 81 60
f 60 81 61
f 61 81 82
f 61 82 62
f 62 82 83
f 62 83 84
f 62 84 85
f 62 85 66
f 64 70 86
f 64 86 87
f 64 87 65
f 65 87 88
f 66 85 67
f 67 85 68
f 68 85 89
f 68 89 90
f 68 90 69
f 69 90 91
f 69 91 92
f 69 92 86
f 69 86 70
f 72 73 93
f 72 93 94
f 72 94 95
f 72 95 96
f 72 96 74
f 73 97 93
f 74 98 77
f 74 96 98
f 76 77 99
f 76 99 100
f 76 100 101
f 76 101 102
f 76 102 78
f 77 98 99
f 78 102 79
f 79 102 80
f 80 102 81
f 81 102 103
f 81 103 104
f 81 104 105
f 81 105 82
f 82 105 83
f 83 105 106
f 83 106 84
f 84 106 85
f 85 106 107
f 85 107 108
f 85 108 89
f 86 92 109
f 86 109 87
f 87 110 88
f 87 109 111
f 87 111 112
f 87 112 110
f 89 108 113
f 89 113 114
f 89 114 115
f 89 115 90
f 90 115 116
f 90 116 117
f 90 117 118
f 90 118 91
f 91 118 119
f 91 119 112
f 91 112 92
f 92 112 111
f 92 111 109
f 93 97 94
f 94 97 120
f 94 120 121
f 94 121 122
f 94 122 95
f 95 122 96
f 96 122 123
f 96 123 124
f 96 124 98
f 98 124 100
f 98 100 99
f 100 124 125
f 100 125 101
f 101 126 102
f 101 125 126
f 102 126 127
f 102 127 128
f 102 128 103
f 103 128 129
f 103 129 104
f 104 129 105
f 105 129 130
f 105 130 131
f 105 131 106
f 106 131 132
f 106 132 107
f 107 132 133
f 107 133 134
f 107 134 108
f 108 134 113
f 110 112 135
f 110 135 136
f 112 137 138
f 112 138 135
f 112 119 139
f 112 139 140
f 112 140 141
f 112 141 142
f 112 142 143
f 112 143 137
f 113 134 114
f 114 117 116
f 114 116 115
f 114 134 144
f 114 144 145
f 114 145 117
f 117 146 147
f 117 147 118
f 117 145 148
f 117 148 146
f 118 147 119
f 119 147 149
f 119 149 139
f 120 150 121
f 121 150 151
f 121 151 152
f 121 152 153
f 121 153 154
f 121 154 155
f 121 155 123
f 121 123 122
f 123 156 124
f 123 155 154
f 123 154 156
f 124 156 125
f 125 156 157
f 125 157 158
f 125 158 159
f 125 159 160
f 125 160 161
f 125 161 126
f 126 161 127
f 127 161 128
f 128 162 129
f 128 161 162
f 129 162 163
f 129 163 130
f 130 163 164
f 130 164 131
f 131 164 165
f 131 165 166
f 131 166 132
f 132 166 133
f 133 166 167
f 133 167 134
f 134 167 168
f 134 168 144
f 135 138 136
f 137 143 169
f 137 169 170
f 137 170 171
f 137 171 172
f 137 172 138
f 139 149 140
f 140 149 141
f 141 149 186
f 141 186 173
f 141 173 174
f 141 174 142
f 142 174 175
f 142 175 176
f 142 176 143
f 144 168 177
f 144 177 178
f 144 178 179
f 144 179 145
f 145 179 180
f 145 180 181
f 145 181 148
f 146 149 147
f 146 148 182
f 146 182 149
f 148 181 183
f 148 183 184
f 148 184 185
f 148 185 182
f 149 182 186
f 152 187 153
f 153 187 188
f 153 188 154
f 154 188 189
f 154 189 156
f 156 190 158
f 156 158 157
f 156 189 190
f 158 191 192
f 158 192 193
f 158 193 194
f 158 194 159
f 158 190 195
f 158 195 189
f 158 189 196
f 158 196 197
f 158 197 198
f 158 198 191
f 159 194 193
f 159 193 199
f 159 199 200
f 159 200 160
f 160 200 199
f 160 199 201
f 160 201 162
f 160 162 161
f 162 201 202
f 162 202 203
f 162 203 245
f 162 245 204
f 162 204 164
f 162 164 163
f 164 204 165
f 165 204 166
f 166 204 167
f 167 205 206
f 167 206 207
f 167 207 168
f 167 204 205
f 168 207 178
f 168 178 177
f 173 186 208
f 173 208 209
f 173 209 211
f 173 211 174
f 174 210 175
f 174 211 212
f 174 212 210
f 178 180 179
f 178 207 213
f 178 213 214
f 178 214 180
f 180 214 215
f 180 215 216
f 180 216 181
f 181 216 183
f 182 185 217
f 182 217 186
f 183 216 184
f 184 218 185
f 184 216 215
f 184 215 219
f 184 219 218
f 185 218 220
f 185 220 217
f 186 217 220
f 186 220 208
f 187 221 188
f 188 221 222
f 188 222 189
f 189 222 196
f 189 195 190
f 191 198 192
f 192 223 224
f 192 224 225
f 192 225 226
f 192 226 193
f 192 198 227
f 192 227 223
f 193 226 199
f 196 222 228
f 196 228 229
f 196 229 230
f 196 230 231
f 196 231 232
f 196 232 233
f 196 233 234
f 196 234 197
f 197 235 198
f 197 234 236
f 197 236 237
f 197 237 238
f 197 238 235
f 198 235 239
f 198 239 227
f 199 226 225
f 199 225 240
f 199 240 241
f 199 241 242
f 199 242 202
f 199 202 201
f 202 242 243
f 202 243 203
f 203 243 244
f 203 244 245
f 204 245 246
f 204 246 206
f 204 206 205
f 206 246 207
f 207 246 247
f 207 247 213
f 208 220 248
f 208 248 249
f 208 249 209
f 209 249 211
f 211 249 250
f 211 250 212
f 212 250 251
f 213 247 252
f 213 252 253
f 213 253 254
f 213 254 214
f 214 254 255
f 214 255 215
f 215 255 219
f 218 219 256
f 218 256 220
f 219 255 257
f 219 257 256
f 220 256 248
f 221 258 222
f 222 258 228
f 223 259 260
f 223 260 261
f 223 261 224
f 223 227 262
f 223 262 259
f 224 261 225
f 225 261 263
f 225 263 240
f 227 239 264
f 227 264 265
f 227 265 266
f 227 266 267
f 227 267 262
f 235 238 239
f 238 268 239
f 239 268 269
f 239 269 264
f 240 263 270
f 240 270 271
f 240 271 241
f 241 271 272
f 241 272 273
f 241 273 243
f 241 243 242
f 243 273 274
f 243 274 244
f 244 274 245
f 245 274 275
f 245 275 246
f 246 275 247
f 247 275 252
f 248 276 249
f 248 256 277
f 248 277 276
f 249 276 250
f 250 276 278
f 250 278 279
f 250 279 251
f 251 279 280
f 252 275 281
f 252 281 282
f 252 282 283
f 252 283 253
f 253 283 284
f 253 284 254
f 254 284 285
f 254 285 286
f 254 286 255
f 255 286 287
f 255 287 288
f 255 288 257
f 256 257 289
f 256 289 277
f 257 288 290
f 257 290 289
f 259 291 338
f 259 338 292
f 259 292 260
f 259 262 293
f 259 293 294
f 259 294 295
f 259 295 291
f 260 292 296
f 260 296 263
f 260 263 261
f 262 267 293
f 263 296 270
f 264 269 297
f 264 297 298
f 264 298 265
f 265 298 299
f 265 299 300
f 265 300 301
f 265 301 302
f 265 302 303
f 265 303 304
f 265 304 305
f 265 305 266
f 266 305 306
f 266 306 307
f 266 307 308
f 266 308 267
f 267 308 293
f 270 296 347
f 270 347 309
f 270 309 357
f 270 357 310
f 270 310 271
f 271 310 272
f 272 310 311
f 272 311 312
f 272 312 313
f 272 313 273
f 273 313 274
f 274 314 275
f 274 313 315
f 274 315 316
f 274 316 317
f 274 317 318
f 274 318 319
f 274 319 281
f 274 281 314
f 275 314 281
f 276 277 278
f 277 320 321
f 277 321 278
f 277 289 320
f 278 321 279
f 279 321 322
f 279 322 323
f 279 323 280
f 281 319 324
f 281 324 282
f 282 325 283
f 282 324 326
f 282 326 325
f 283 325 284
f 284 325 285
f 285 327 328
f 285 328 329
f 285 329 330
f 285 330 331
f 285 331 332
f 285 332 286
f 285 325 327
f 286 332 287
f 287 332 331
f 287 331 333
f 287 333 288
f 288 333 334
f 288 334 335
f 288 335 290
f 289 290 320
f 290 335 369
f 290 369 320
f 291 336 337
f 291 337 338
f 291 295 339
f 291 339 340
f 291 340 341
f 291 341 336
f 292 338 347
f 292 347 296
f 293 308 342
f 293 342 343
f 293 343 344
f 293 344 345
f 293 345 294
f 294 345 295
f 295 345 346
f 295 346 339
f 307 348 308
f 308 348 349
f 308 349 350
f 308 350 351
f 308 351 352
f 308 352 342
f 309 347 353
f 309 353 354
f 309 354 355
f 309 355 356
f 309 356 357
f 310 357 358
f 310 358 359
f 310 359 360
f 310 360 311
f 311 360 312
f 312 360 361
f 312 361 313
f 313 361 315
f 315 361 362
f 315 362 363
f 315 363 364
f 315 364 365
f 315 365 316
f 316 365 317
f 317 365 366
f 317 366 367
f 317 367 318
f 318 367 368
f 318 368 324
f 318 324 319
f 320 369 370
f 320 370 321
f 321 370 322
f 322 370 371
f 322 371 323
f 323 371 372
f 324 368 326
f 325 326 327
f 326 368 373
f 326 373 327
f 327 373 328
f 328 373 374
f 328 374 375
f 328 375 329
f 329 375 376
f 329 376 377
f 329 377 378
f 329 378 331
f 329 331 330
f 331 378 379
f 331 379 380
f 331 380 381
f 331 381 334
f 331 334 333
f 334 381 380
f 334 380 335
f 335 380 369
f 336 382 383
f 336 383 384
f 336 384 337
f 336 341 385
f 336 385 382
f 337 347 338
f 337 384 353
f 337 353 347
f 339 346 386
f 339 386 387
f 339 387 388
f 339 388 389
f 339 389 340
f 340 385 341
f 340 389 390
f 340 390 385
f 342 352 391
f 342 391 392
f 342 392 388
f 342 388 387
f 342 387 343
f 343 387 386
f 343 386 344
f 344 386 346
f 344 346 345
f 353 384 393
f 353 393 354
f 354 393 394
f 354 394 395
f 354 395 356
f 354 356 355
f 356 395 396
f 356 396 357
f 357 396 397
f 357 397 398
f 357 398 399
f 357 399 400
f 357 400 358
f 358 400 359
f 359 399 401
f 359 401 402
f 359 402 360
f 359 400 399
f 360 402 361
f 361 402 403
f 361 403 404
f 361 404 363
f 361 363 362
f 363 405 406
f 363 406 364
f 363 404 407
f 363 407 408
f 363 408 409
f 363 409 410
f 363 410 411
f 363 411 412
f 363 412 413
f 363 413 405
f 364 406 414
f 364 414 365
f 365 414 415
f 365 415 416
f 365 416 366
f 366 416 367
f 367 416 417
f 367 417 368
f 368 417 373
f 369 380 418
f 369 418 370
f 370 418 419
f 370 419 371
f 371 419 420
f 371 420 372
f 372 420 421
f 373 417 422
f 373 422 374
f 374 422 423
f 374 423 424
f 374 424 375
f 375 424 425
f 375 425 426
f 375 426 376
f 376 426 427
f 376 427 377
f 377 427 428
f 377 428 429
f 377 429 378
f 378 429 379
f 379 429 380
f 380 429 430
f 380 430 431
f 380 431 418
f 382 432 433
f 382 433 434
f 382 434 435
f 382 435 393
f 382 393 383
f 382 385 436
f 382 436 432
f 383 393 384
f 385 390 437
f 385 437 438
f 385 438 439
f 385 439 436
f 388 392 440
f 388 440 441
f 388 441 442
f 388 442 389
f 389 442 443
f 389 443 444
f 389 444 445
f 389 445 446
f 389 446 447
f 389 447 448
f 389 448 390
f 390 448 449
f 390 449 450
f 390 450 437
f 393 435 394
f 394 435 434
f 394 434 451
f 394 451 452
f 394 452 453
f 394 453 454
f 394 454 455
f 394 455 456
f 394 456 395
f 395 456 457
f 395 457 458
f 395 458 396
f 396 458 459
f 396 459 460
f 396 460 397
f 397 460 398
f 398 460 461
f 398 461 401
f 398 401 399
f 401 461 462
f 401 462 403
f 401 403 402
f 403 462 466
f 403 466 407
f 403 407 404
f 405 463 406
f 405 413 463
f 406 463 464
f 406 464 465
f 406 465 414
f 407 466 525
f 407 525 467
f 407 467 468
f 407 468 469
f 407 469 408
f 408 469 470
f 408 470 471
f 408 471 472
f 408 472 409
f 409 472 410
f 410 472 473
f 410 473 474
f 410 474 411
f 411 474 412
f 412 474 475
f 412 475 413
f 413 475 476
f 413 476 463
f 414 465 477
f 414 477 415
f 415 422 416
f 415 477 423
f 415 423 422
f 416 422 417
f 418 431 478
f 418 478 479
f 418 479 419
f 419 480 420
f 419 479 480
f 420 480 481
f 420 481 421
f 421 481 482
f 423 477 483
f 423 483 484
f 423 484 425
f 423 425 424
f 425 484 485
f 425 485 486
f 425 486 426
f 426 486 427
f 427 486 487
f 427 487 488
f 427 488 489
f 427 489 428
f 428 489 490
f 428 490 429
f 429 490 430
f 430 490 431
f 431 490 489
f 431 489 491
f 431 491 492
f 431 492 478
f 432 436 433
f 433 493 494
f 433 494 495
f 433 495 496
f 433 496 451
f 433 451 497
f 433 497 434
f 433 436 498
f 433 498 499
f 433 499 500
f 433 500 493
f 434 497 451
f 436 439 501
f 436 501 498
f 437 450 502
f 437 502 503
f 437 503 504
f 437 504 505
f 437 505 438
f 438 505 506
f 438 506 439
f 439 506 507
f 439 507 508
f 439 508 501
f 451 496 453
f 451 453 452
f 453 496 509
f 453 509 510
f 453 510 454
f 454 510 455
f 455 510 511
f 455 511 457
f 455 457 456
f 457 511 512
f 457 512 513
f 457 513 458
f 458 513 459
f 459 461 460
f 459 513 514
f 459 514 461
f 461 514 515
f 461 515 516
f 461 516 517
f 461 517 462
f 462 517 466
f 463 476 464
f 464 476 518
f 464 518 519
f 464 519 520
f 464 520 521
f 464 521 483
f 464 483 465
f 465 483 477
f 466 517 516
f 466 516 522
f 466 522 523
f 466 523 524
f 466 524 525
f 467 525 598
f 467 598 526
f 467 526 468
f 468 526 527
f 468 527 469
f 469 527 470
f 470 527 528
f 470 528 471
f 471 528 529
f 471 529 530
f 471 530 531
f 471 531 472
f 472 531 532
f 472 532 473
f 473 533 474
f 473 532 534
f 473 534 533
f 474 533 518
f 474 518 475
f 475 518 476
f 478 492 479
f 479 492 535
f 479 535 480
f 480 536 481
f 480 535 536
f 481 536 537
f 481 537 482
f 482 537 538
f 483 521 539
f 483 539 484
f 484 539 485
f 485 539 540
f 485 540 487
f 485 487 486
f 487 541 488
f 487 540 542
f 487 542 543
f 487 543 541
f 488 541 544
f 488 544 489
f 489 544 491
f 491 545 492
f 491 544 546
f 491 546 545
f 492 545 547
f 492 547 535
f 493 500 494
f 494 548 495
f 494 500 548
f 495 548 496
f 496 548 549
f 496 549 550
f 496 550 551
f 496 551 552
f 496 552 553
f 496 553 554
f 496 554 509
f 498 501 555
f 498 555 556
f 498 556 557
f 498 557 499
f 499 557 558
f 499 558 559
f 499 559 560
f 499 560 561
f 499 561 562
f 499 562 500
f 500 562 563
f 500 563 564
f 500 564 548
f 501 508 565
f 501 565 566
f 501 566 555
f 509 554 567
f 509 567 510
f 510 567 568
f 510 568 569
f 510 569 570
f 510 570 571
f 510 571 572
f 510 572 511
f 511 572 512
f 512 572 513
f 513 573 574
f 513 574 575
f 513 575 576
f 513 576 577
f 513 577 514
f 513 572 578
f 513 578 573
f 514 577 579
f 514 579 580
f 514 580 516
f 514 516 515
f 516 580 581
f 516 581 582
f 516 582 583
f 516 583 584
f 516 584 585
f 516 585 586
f 516 586 587
f 516 587 522
f 518 533 534
f 518 534 588
f 518 588 589
f 518 589 519
f 519 589 520
f 520 589 590
f 520 590 591
f 520 591 592
f 520 592 539
f 520 539 521
f 522 587 593
f 522 593 594
f 522 594 595
f 522 595 596
f 522 596 523
f 523 596 597
f 523 597 524
f 524 597 598
f 524 598 525
f 526 598 669
f 526 669 599
f 526 599 600
f 526 600 527
f 527 600 528
f 528 600 601
f 528 601 529
f 529 601 602
f 529 602 603
f 529 603 604
f 529 604 530
f 530 605 531
f 530 604 605
f 531 605 532
f 532 605 606
f 532 606 534
f 534 606 607
f 534 607 588
f 535 547 608
f 535 608 536
f 536 608 537
f 537 608 609
f 537 609 610
f 537 610 538
f 539 592 542
f 539 542 540
f 541 543 544
f 542 592 591
f 542 591 611
f 542 611 612
f 542 612 613
f 542 613 543
f 543 613 614
f 543 614 615
f 543 615 546
f 543 546 544
f 545 546 615
f 545 615 616
f 545 616 547
f 547 617 608
f 547 616 618
f 547 618 617
f 548 619 620
f 548 620 549
f 548 564 619
f 549 620 621
f 549 621 622
f 549 622 550
f 550 622 623
f 550 623 551
f 551 623 624
f 551 624 625
f 551 625 626
f 551 626 627
f 551 627 628
f 551 628 552
f 552 628 554
f 552 554 553
f 554 628 567
f 561 629 630
f 561 630 631
f 561 631 562
f 562 631 630
f 562 630 563
f 563 630 564
f 564 630 632
f 564 632 633
f 564 633 620
f 564 620 619
f 567 634 568
f 567 628 634
f 568 634 635
f 568 635 569
f 569 635 570
f 570 635 636
f 570 636 637
f 570 637 571
f 571 637 638
f 571 638 639
f 571 639 640
f 571 640 641
f 571 641 572
f 572 641 578
f 573 578 642
f 573 642 574
f 574 642 643
f 574 643 575
f 575 644 645
f 575 645 576
f 575 643 644
f 576 645 646
f 576 646 577
f 577 646 579
f 578 641 647
f 578 647 648
f 578 648 649
f 578 649 642
f 579 650 651
f 579 651 652
f 579 652 580
f 579 646 650
f 580 652 581
f 581 652 653
f 581 653 654
f 581 654 655
f 581 655 583
f 581 583 582
f 583 656 657
f 583 657 584
f 583 655 656
f 584 657 658
f 584 658 585
f 585 658 586
f 586 658 659
f 586 659 593
f 586 593 587
f 588 607 660
f 588 660 589
f 589 660 590
f 590 660 661
f 590 661 591
f 591 661 662
f 591 662 611
f 593 659 663
f 593 663 664
f 593 664 595
f 593 595 594
f 595 665 666
f 595 666 667
f 595 667 596
f 595 664 665
f 596 667 597
f 597 667 668
f 597 668 598
f 598 668 669
f 599 669 737
f 599 737 670
f 599 670 600
f 600 670 601
f 601 670 671
f 601 671 602
f 602 671 672
f 602 672 673
f 602 673 603
f 603 673 674
f 603 674 604
f 604 675 605
f 604 674 675
f 605 675 606
f 606 675 676
f 606 676 607
f 607 676 677
f 607 677 660
f 608 617 609
f 609 617 610
f 610 617 678
f 611 662 679
f 611 679 612
f 612 679 680
f 612 680 614
f 612 614 613
f 614 681 615
f 614 680 681
f 615 681 682
f 615 682 616
f 616 682 683
f 616 683 618
f 617 684 685
f 617 685 678
f 617 618 686
f 617 686 684
f 618 683 687
f 618 687 686
f 620 633 688
f 620 688 621
f 621 688 689
f 621 689 690
f 621 690 622
f 622 690 624
f 622 624 623
f 624 690 625
f 625 690 691
f 625 691 692
f 625 692 626
f 626 693 694
f 626 694 695
f 626 695 696
f 626 696 697
f 626 697 698
f 626 698 627
f 626 692 699
f 626 699 693
f 627 698 628
f 628 698 697
f 628 697 696
f 628 696 634
f 629 700 630
f 630 700 632
f 632 701 702
f 632 702 633
f 632 700 701
f 633 702 688
f 634 703 704
f 634 704 635
f 634 696 703
f 635 704 705
f 635 705 706
f 635 706 636
f 636 706 707
f 636 707 638
f 636 638 637
f 638 707 639
f 639 708 709
f 639 709 710
f 639 710 711
f 639 711 640
f 639 707 712
f 639 712 708
f 640 711 641
f 641 711 710
f 641 710 647
f 642 713 643
f 642 649 714
f 642 714 713
f 643 713 715
f 643 715 644
f 644 715 716
f 644 716 645
f 645 716 717
f 645 717 718
f 645 718 650
f 645 650 646
f 647 719 720
f 647 720 648
f 647 710 719
f 648 720 714
f 648 714 649
f 650 718 651
f 651 718 721
f 651 721 722
f 651 722 652
f 652 722 653
f 653 722 723
f 653 723 654
f 654 723 724
f 654 724 725
f 654 725 726
f 654 726 656
f 654 656 655
f 656 726 657
f 657 726 727
f 657 727 658
f 658 727 659
f 659 727 728
f 659 728 663
f 660 677 661
f 661 677 729
f 661 729 730
f 661 730 662
f 662 730 679
f 663 728 731
f 663 731 732
f 663 732 664
f 664 732 665
f 665 732 733
f 665 733 666
f 666 733 734
f 666 734 735
f 666 735 736
f 666 736 667
f 667 736 668
f 668 736 737
f 668 737 669
f 670 737 738
f 670 738 671
f 671 738 739
f 671 739 740
f 671 740 672
f 672 740 741
f 672 741 742
f 672 742 743
f 672 743 744
f 672 744 673
f 673 744 674
f 674 744 811
f 674 811 745
f 674 745 675
f 675 745 676
f 676 745 746
f 676 746 747
f 676 747 677
f 677 747 729
f 678 685 748
f 679 730 749
f 679 749 680
f 680 749 750
f 680 750 751
f 680 751 681
f 681 751 752
f 681 752 682
f 682 752 753
f 682 753 754
f 682 754 687
f 682 687 683
f 684 755 748
f 684 748 685
f 684 686 755
f 686 687 756
f 686 756 757
f 686 757 758
f 686 758 755
f 687 759 756
f 687 754 760
f 687 760 759
f 688 702 761
f 688 761 689
f 689 762 763
f 689 763 764
f 689 764 765
f 689 765 766
f 689 766 691
f 689 691 690
f 689 761 762
f 691 766 692
f 692 766 767
f 692 767 768
f 692 768 699
f 693 699 769
f 693 769 694
f 694 770 695
f 694 769 770
f 695 770 696
f 696 770 771
f 696 771 703
f 699 768 769
f 701 772 702
f 702 772 761
f 703 771 773
f 703 773 774
f 703 774 706
f 703 706 705
f 703 705 704
f 706 775 707
f 706 774 776
f 706 776 841
f 706 841 775
f 707 775 712
f 708 777 778
f 708 778 709
f 708 712 775
f 708 775 779
f 708 779 780
f 708 780 777
f 709 778 781
f 709 781 710
f 710 781 719
f 713 714 720
f 713 720 782
f 713 782 783
f 713 783 715
f 715 783 784
f 715 784 716
f 716 785 786
f 716 786 718
f 716 718 717
f 716 784 785
f 718 786 721
f 719 787 788
f 719 788 720
f 719 781 787
f 720 788 782
f 721 789 790
f 721 790 723
f 721 723 722
f 721 786 791
f 721 791 789
f 723 792 724
f 723 790 792
f 724 792 793
f 724 793 725
f 725 793 794
f 725 794 726
f 726 794 795
f 726 795 727
f 727 795 728
f 728 796 797
f 728 797 731
f 728 795 796
f 729 747 746
f 729 746 750
f 729 750 749
f 729 749 730
f 731 798 799
f 731 799 732
f 731 797 798
f 732 799 733
f 733 799 800
f 733 800 734
f 734 800 801
f 734 801 802
f 734 802 735
f 735 802 803
f 735 803 739
f 735 739 738
f 735 738 736
f 736 738 737
f 739 803 804
f 739 804 805
f 739 805 741
f 739 741 740
f 741 805 806
f 741 806 742
f 742 806 807
f 742 807 743
f 743 807 808
f 743 808 809
f 743 809 810
f 743 810 744
f 744 810 811
f 745 811 746
f 746 811 810
f 746 810 812
f 746 812 813
f 746 813 814
f 746 814 750
f 750 814 815
f 750 815 751
f 751 816 753
f 751 753 752
f 751 815 817
f 751 817 816
f 753 818 754
f 753 816 817
f 753 817 819
f 753 819 818
f 754 818 760
f 756 759 820
f 756 820 821
f 756 821 822
f 756 822 823
f 756 823 757
f 757 823 758
f 759 760 820
f 760 818 824
f 760 824 825
f 760 825 820
f 761 772 826
f 761 826 762
f 762 826 827
f 762 827 763
f 763 828 829
f 763 829 764
f 764 829 765
f 765 829 830
f 765 830 831
f 765 831 766
f 766 831 767
f 767 831 768
f 768 831 832
f 768 832 769
f 769 833 770
f 769 832 834
f 769 834 835
f 769 835 833
f 770 833 835
f 770 835 836
f 770 836 837
f 770 837 771
f 771 837 838
f 771 838 773
f 773 838 839
f 773 839 840
f 773 840 841
f 773 841 776
f 773 776 774
f 775 841 779
f 777 842 843
f 777 843 778
f 777 780 844
f 777 844 845
f 777 845 846
f 777 846 842
f 778 843 847
f 778 847 781
f 779 841 844
f 779 844 780
f 781 848 787
f 781 847 848
f 782 849 850
f 782 850 783
f 782 788 849
f 783 850 784
f 784 850 785
f 785 850 851
f 785 851 852
f 785 852 786
f 786 852 791
f 787 853 854
f 787 854 788
f 787 848 855
f 787 855 856
f 787 856 853
f 788 854 849
f 789 791 852
f 789 852 857
f 789 857 858
f 789 858 859
f 789 859 790
f 790 859 792
f 792 860 861
f 792 861 862
f 792 862 793
f 792 859 860
f 793 862 863
f 793 863 864
f 793 864 794
f 794 864 865
f 794 865 796
f 794 796 795
f 796 865 866
f 796 866 797
f 797 866 798
f 798 866 867
f 798 867 799
f 799 867 868
f 799 868 800
f 800 869 801
f 800 868 926
f 800 926 869
f 801 869 870
f 801 870 804
f 801 804 802
f 802 804 803
f 804 871 872
f 804 872 805
f 804 870 869
f 804 869 871
f 805 872 873
f 805 873 806
f 806 873 874
f 806 874 875
f 806 875 807
f 807 875 876
f 807 876 877
f 807 877 808
f 808 877 878
f 808 878 809
f 809 815 810
f 809 878 815
f 810 815 812
f 812 815 813
f 813 815 814
f 815 878 879
f 815 879 817
f 817 879 880
f 817 880 819
f 818 819 881
f 818 881 824
f 819 880 881
f 820 882 883
f 820 883 821
f 820 825 882
f 821 884 885
f 821 885 822
f 821 883 884
f 824 886 825
f 824 881 886
f 825 886 887
f 825 887 882
f 828 888 889
f 828 889 830
f 828 830 829
f 830 889 831
f 831 890 834
f 831 834 832
f 831 889 890
f 834 890 891
f 834 891 835
f 835 891 892
f 835 892 893
f 835 893 894
f 835 894 836
f 836 894 895
f 836 895 838
f 836 838 837
f 838 895 896
f 838 896 839
f 839 896 897
f 839 897 898
f 839 898 840
f 840 898 841
f 841 898 899
f 841 899 844
f 842 900 901
f 842 901 843
f 842 846 902
f 842 902 903
f 842 903 900
f 843 901 904
f 843 904 855
f 843 855 848
f 843 848 847
f 844 899 902
f 844 902 845
f 845 902 846
f 849 854 850
f 850 905 906
f 850 906 851
f 850 854 907
f 850 907 905
f 851 906 908
f 851 908 909
f 851 909 910
f 851 910 911
f 851 911 852
f 852 911 857
f 853 912 913
f 853 913 914
f 853 914 907
f 853 907 854
f 853 856 904
f 853 904 915
f 853 915 912
f 855 904 856
f 857 916 858
f 857 911 916
f 858 916 917
f 858 917 918
f 858 918 859
f 859 918 860
f 860 918 861
f 861 918 919
f 861 919 920
f 861 920 921
f 861 921 863
f 861 863 862
f 863 921 922
f 863 922 864
f 864 922 865
f 865 923 924
f 865 924 866
f 865 922 923
f 866 924 867
f 867 924 925
f 867 925 868
f 868 925 926
f 869 927 871
f 869 926 927
f 871 927 928
f 871 928 929
f 871 929 930
f 871 930 872
f 872 930 873
f 873 930 931
f 873 931 932
f 873 932 874
f 874 932 933
f 874 933 934
f 874 934 935
f 874 935 936
f 874 936 875
f 875 936 876
f 876 936 937
f 876 937 938
f 876 938 877
f 877 938 939
f 877 939 940
f 877 940 878
f 878 940 880
f 878 880 879
f 880 940 881
f 881 940 941
f 881 941 942
f 881 942 886
f 882 887 943
f 886 942 944
f 886 944 945
f 886 945 943
f 886 943 887
f 888 946 889
f 889 946 890
f 890 947 891
f 890 946 947
f 891 947 948
f 891 948 892
f 892 949 893
f 892 948 949
f 893 950 1005
f 893 1005 951
f 893 951 894
f 893 949 950
f 894 951 952
f 894 952 895
f 895 952 896
f 896 952 953
f 896 953 897
f 897 954 898
f 897 953 954
f 898 954 899
f 899 954 955
f 899 955 902
f 900 956 957
f 900 957 958
f 900 958 901
f 900 903 962
f 900 962 956
f 901 958 1018
f 901 1018 959
f 901 959 904
f 902 955 960
f 902 960 903
f 903 960 961
f 903 961 962
f 904 963 964
f 904 964 915
f 904 959 963
f 905 907 914
f 905 914 908
f 905 908 906
f 908 914 913
f 908 913 965
f 908 965 966
f 908 966 967
f 908 967 909
f 909 967 968
f 909 968 910
f 910 968 969
f 910 969 970
f 910 970 916
f 910 916 911
f 912 915 971
f 912 971 972
f 912 972 973
f 912 973 913
f 913 973 974
f 913 974 965
f 915 964 971
f 916 970 975
f 916 975 917
f 917 975 976
f 917 976 918
f 918 976 977
f 918 977 919
f 919 977 920
f 920 977 978
f 920 978 979
f 920 979 921
f 921 979 980
f 921 980 922
f 922 980 923
f 923 980 981
f 923 981 924
f 924 982 925
f 924 981 982
f 925 983 984
f 925 984 927
f 925 927 926
f 925 982 985
f 925 985 983
f 927 984 986
f 927 986 928
f 928 986 987
f 928 987 988
f 928 988 929
f 929 988 989
f 929 989 930
f 930 989 990
f 930 990 931
f 931 990 933
f 931 933 932
f 933 990 991
f 933 991 992
f 933 992 993
f 933 993 994
f 933 994 934
f 934 994 935
f 935 994 995
f 935 995 936
f 936 995 996
f 936 996 937
f 937 996 997
f 937 997 938
f 938 997 998
f 938 998 939
f 939 998 999
f 939 999 941
f 939 941 940
f 941 999 1000
f 941 1000 944
f 941 944 942
f 944 1000 1001
f 944 1001 1002
f 944 1002 1003
f 944 1003 1004
f 944 1004 945
f 951 1005 952
f 952 1006 1007
f 952 1007 953
f 952 1005 1008
f 952 1008 1006
f 953 1009 1010
f 953 1010 1011
f 953 1011 954
f 953 1007 1009
f 954 1011 955
f 955 1012 1013
f 955 1013 1014
f 955 1014 960
f 955 1011 1012
f 956 1015 957
f 956 962 1021
f 956 1021 1015
f 957 1015 1016
f 957 1016 1017
f 957 1017 1018
f 957 1018 958
f 959 1018 963
f 960 1014 1019
f 960 1019 1020
f 960 1020 961
f 961 1020 1021
f 961 1021 962
f 963 1022 964
f 963 1018 1022
f 964 1022 971
f 965 974 966
f 966 1023 1024
f 966 1024 1025
f 966 1025 967
f 966 974 1026
f 966 1026 1023
f 967 1025 968
f 968 1025 969
f 969 1025 1024
f 969 1024 975
f 969 975 970
f 971 1022 1027
f 971 1027 1028
f 971 1028 972
f 972 1028 1029
f 972 1029 1030
f 972 1030 973
f 973 1030 974
f 974 1030 1026
f 975 1024 1031
f 975 1031 1032
f 975 1032 976
f 976 1032 977
f 977 1032 1033
f 977 1033 1034
f 977 1034 978
f 978 1034 1035
f 978 1035 1036
f 978 1036 979
f 979 1036 980
f 980 1036 981
f 981 1036 982
f 982 1036 1037
f 982 1037 1038
f 982 1038 1039
f 982 1039 986
f 982 986 985
f 983 985 986
f 983 986 984
f 986 1039 987
f 987 1039 1040
f 987 1040 988
f 988 1040 1041
f 988 1041 989
f 989 1041 1042
f 989 1042 991
f 989 991 990
f 991 1042 1043
f 991 1043 1044
f 991 1044 992
f 992 1044 993
f 993 1044 1045
f 993 1045 994
f 994 1045 1046
f 994 1046 995
f 995 1046 996
f 996 1046 997
f 997 1046 1047
f 997 1047 1048
f 997 1048 998
f 998 1000 999
f 998 1048 1049
f 998 1049 1050
f 998 1050 1001
f 998 1001 1000
f 1001 1050 1051
f 1001 1051 1002
f 1002 1051 1052
f 1002 1052 1003
f 1005 1053 1006
f 1005 1006 1008
f 1006 1053 1007
f 1007 1054 1055
f 1007 1055 1057
f 1007 1057 1009
f 1007 1053 1056
f 1007 1056 1054
f 1009 1057 1010
f 1010 1058 1059
f 1010 1059 1060
f 1010 1060 1061
f 1010 1061 1012
f 1010 1012 1011
f 1010 1057 1058
f 1012 1061 1013
f 1013 1061 1062
f 1013 1062 1063
f 1013 1063 1014
f 1014 1064 1065
f 1014 1065 1019
f 1014 1063 1064
f 1015 1066 1016
f 1015 1021 1066
f 1016 1066 1067
f 1016 1067 1068
f 1016 1068 1017
f 1017 1068 1109
f 1017 1109 1069
f 1017 1069 1027
f 1017 1027 1022
f 1017 1022 1018
f 1019 1065 1020
f 1020 1065 1021
f 1021 1065 1066
f 1023 1070 1071
f 1023 1071 1024
f 1023 1026 1072
f 1023 1072 1073
f 1023 1073 1070
f 1024 1074 1031
f 1024 1071 1074
f 1026 1030 1072
f 1027 1069 1028
f 1028 1075 1076
f 1028 1076 1029
f 1028 1069 1075
f 1029 1077 1030
f 1029 1076 1075
f 1029 1075 1078
f 1029 1078 1077
f 1030 1077 1072
f 1031 1033 1032
f 1031 1074 1079
f 1031 1079 1033
f 1033 1079 1034
f 1034 1080 1035
f 1034 1079 1081
f 1034 1081 1080
f 1035 1080 1082
f 1035 1082 1037
f 1035 1037 1036
f 1037 1082 1083
f 1037 1083 1038
f 1038 1083 1084
f 1038 1084 1039
f 1039 1084 1040
f 1040 1084 1085
f 1040 1085 1041
f 1041 1085 1086
f 1041 1086 1042
f 1042 1086 1087
f 1042 1087 1043
f 1043 1087 1088
f 1043 1088 1089
f 1043 1089 1090
f 1043 1090 1091
f 1043 1091 1092
f 1043 1092 1044
f 1044 1092 1093
f 1044 1093 1045
f 1045 1093 1094
f 1045 1094 1095
f 1045 1095 1046
f 1046 1095 1096
f 1046 1096 1047
f 1047 1096 1097
f 1047 1097 1048
f 1048 1097 1049
f 1049 1097 1135
f 1049 1135 1098
f 1049 1098 1051
f 1049 1051 1050
f 1051 1098 1099
f 1051 1099 1052
f 1060 1100 1062
f 1060 1062 1061
f 1062 1100 1101
f 1062 1101 1064
f 1062 1064 1063
f 1064 1101 1065
f 1065 1102 1103
f 1065 1103 1104
f 1065 1104 1066
f 1065 1101 1105
f 1065 1105 1102
f 1066 1106 1067
f 1066 1104 1103
f 1066 1103 1107
f 1066 1107 1106
f 1067 1108 1075
f 1067 1075 1109
f 1067 1109 1068
f 1067 1106 1110
f 1067 1110 1108
f 1069 1109 1075
f 1070 1111 1074
f 1070 1074 1071
f 1070 1073 1112
f 1070 1112 1111
f 1072 1077 1113
f 1072 1113 1114
f 1072 1114 1073
f 1073 1114 1115
f 1073 1115 1112
f 1074 1116 1079
f 1074 1111 1116
f 1075 1117 1078
f 1075 1108 1117
f 1077 1078 1117
f 1077 1117 1113
f 1079 1116 1081
f 1080 1118 1083
f 1080 1083 1082
f 1080 1081 1119
f 1080 1119 1120
f 1080 1120 1118
f 1081 1121 1119
f 1081 1116 1121
f 1083 1118 1122
f 1083 1122 1084
f 1084 1122 1085
f 1085 1122 1123
f 1085 1123 1124
f 1085 1124 1125
f 1085 1125 1086
f 1086 1125 1126
f 1086 1126 1088
f 1086 1088 1087
f 1088 1126 1089
f 1089 1126 1127
f 1089 1127 1091
f 1089 1091 1090
f 1091 1127 1128
f 1091 1128 1129
f 1091 1129 1092
f 1092 1129 1130
f 1092 1130 1093
f 1093 1130 1094
f 1094 1130 1131
f 1094 1131 1132
f 1094 1132 1133
f 1094 1133 1095
f 1095 1133 1134
f 1095 1134 1097
f 1095 1097 1096
f 1097 1134 1164
f 1097 1164 1135
f 1098 1135 1136
f 1098 1136 1137
f 1098 1137 1138
f 1098 1138 1099
f 1100 1105 1101
f 1108 1110 1139
f 1108 1139 1117
f 1111 1140 1116
f 1111 1112 1141
f 1111 1141 1140
f 1112 1115 1142
f 1112 1142 1141
f 1113 1117 1143
f 1113 1143 1144
f 1113 1144 1114
f 1114 1144 1115
f 1115 1145 1146
f 1115 1146 1142
f 1115 1144 1145
f 1116 1140 1147
f 1116 1147 1121
f 1117 1139 1148
f 1117 1148 1143
f 1118 1120 1149
f 1118 1149 1122
f 1119 1121 1120
f 1120 1121 1150
f 1120 1150 1151
f 1120 1151 1152
f 1120 1152 1149
f 1121 1147 1150
f 1122 1149 1123
f 1123 1149 1153
f 1123 1153 1124
f 1124 1153 1154
f 1124 1154 1155
f 1124 1155 1156
f 1124 1156 1126
f 1124 1126 1125
f 1126 1156 1157
f 1126 1157 1127
f 1127 1157 1158
f 1127 1158 1128
f 1128 1159 1129
f 1128 1158 1160
f 1128 1160 1159
f 1129 1159 1161
f 1129 1161 1130
f 1130 1161 1162
f 1130 1162 1131
f 1131 1162 1163
f 1131 1163 1132
f 1132 1163 1133
f 1133 1163 1134
f 1134 1163 1164
f 1135 1164 1165
f 1135 1165 1136
f 1140 1166 1147
f 1140 1141 1167
f 1140 1167 1166
f 1141 1142 1167
f 1142 1146 1168
f 1142 1168 1167
f 1147 1166 1169
f 1147 1169 1170
f 1147 1170 1171
f 1147 1171 1150
f 1149 1152 1172
f 1149 1172 1153
f 1150 1171 1173
f 1150 1173 1174
f 1150 1174 1151
f 1151 1172 1152
f 1151 1174 1175
f 1151 1175 1176
f 1151 1176 1177
f 1151 1177 1172
f 1153 1172 1154
f 1154 1172 1178
f 1154 1178 1155
f 1155 1157 1156
f 1159 1160 1179
f 1159 1179 1180
f 1159 1180 1161
f 1161 1180 1181
f 1161 1181 1182
f 1161 1182 1162
f 1162 1183 1163
f 1163 1183 1165
f 1163 1165 1164
f 1166 1184 1169
f 1166 1167 1185
f 1166 1185 1184
f 1167 1168 1186
f 1167 1186 1185
f 1169 1187 1170
f 1170 1188 1171
f 1170 1187 1188
f 1171 1188 1173
f 1172 1177 1189
f 1172 1189 1178
f 1173 1175 1174
f 1176 1189 1177

