# https://github.com/mikedh/trimesh
v -0.00064750 0.01277906 0.00072096
v -0.00034826 0.01216893 0.00092446
v -0.00079775 0.01277906 0.00045650
v -0.00069501 0.01277906 0.00109726
v 0.00074978 0.01069024 0.00280048
v 0.00093857 0.01032841 0.00280048
v 0.00062521 0.01055178 0.00199197
v -0.00029946 0.01183480 0.00086475
v 0.00016930 0.01114160 0.00140208
v 0.00021553 0.01082869 0.00133103
v -0.00082858 0.01277906 0.00041109
v 0.00037863 0.01087761 0.00280048
v 0.00067144 0.01073085 0.00280048
v -0.00358846 0.01277906 0.00280048
v 0.00095655 0.01024164 0.00280048
v 0.00091674 0.01032564 0.00272985
v 0.00073052 0.01036071 0.00218663
v 0.00084610 0.00982259 0.00222700
v 0.00065603 0.01021580 0.00192638
v 0.00053274 0.01036071 0.00174475
v 0.00005500 0.01082869 0.00107960
v -0.00024038 0.01133174 0.00079958
v 0.00055201 0.00982259 0.00161567
v 0.00026176 0.01032564 0.00126628
v -0.00078876 0.01233785 0.00036989
v -0.00104690 0.01277906 0.00019036
v -0.00044715 0.01133174 0.00054858
v -0.01094599 0.01277906 0.00280048
v 0.00105030 0.00978843 0.00280048
v 0.00104516 0.00977828 0.00277736
v 0.00107598 0.00931953 0.00266342
v 0.00110681 0.00881740 0.00255621
v 0.00091545 0.00931953 0.00222700
v 0.00068685 0.00982259 0.00186709
v 0.00009609 0.01032564 0.00101485
v -0.00019672 0.01082869 0.00075039
v 0.00072024 0.00931953 0.00180487
v 0.00058411 0.00931953 0.00155344
v 0.00027332 0.00983828 0.00117714
v 0.00011921 0.01001550 0.00097995
v -0.00074382 0.01183480 0.00032868
v -0.00107772 0.01277906 0.00015967
v -0.00040605 0.01082869 0.00049896
v -0.01091003 0.01277906 0.00261549
v -0.01105515 0.01133174 0.00272985
v -0.01109754 0.01082869 0.00272985
v -0.01114634 0.01039579 0.00280048
v 0.00105544 0.00975520 0.00280048
v 0.00111836 0.00931953 0.00280048
v 0.00118643 0.00884233 0.00280048
v 0.00112607 0.00849711 0.00249776
v 0.00097838 0.00881740 0.00222700
v 0.00072795 0.00876848 0.00169513
v 0.00105929 0.00781222 0.00215510
v 0.00111194 0.00680612 0.00202644
v 0.00079345 0.00831435 0.00172414
v 0.00060980 0.00890325 0.00150845
v 0.00063035 0.00856819 0.00147230
v 0.00014104 0.00968044 0.00095305
v -0.00038294 0.01053148 0.00047416
v -0.00069887 0.01133174 0.00029295
v -0.00104562 0.01233785 0.00011846
v -0.00129862 0.01277906 -0.00005098
v -0.01092416 0.01244400 0.00254233
v -0.01080986 0.01277906 0.00223246
v -0.01117973 0.00982259 0.00272985
v -0.01093829 0.01210894 0.00247212
v -0.01119257 0.00982259 0.00280048
v 0.00119285 0.00878602 0.00280048
v 0.00121212 0.00832358 0.00269117
v 0.00104901 0.00832358 0.00226147
v 0.00128018 0.00781222 0.00272985
v 0.00143943 0.00630306 0.00272985
v 0.00114277 0.00816205 0.00245194
v 0.00112735 0.00650152 0.00198860
v 0.00116075 0.00781222 0.00240653
v 0.00122496 0.00632152 0.00218453
v 0.00114405 0.00616646 0.00195455
v 0.00101819 0.00632152 0.00176198
v 0.00064319 0.00831435 0.00145338
v 0.00046339 0.00831435 0.00120195
v 0.00053788 0.00680612 0.00109179
v 0.00056356 0.00630306 0.00105648
v 0.00018599 0.00881740 0.00089671
v -0.00035854 0.01019549 0.00045019
v -0.00065649 0.01082869 0.00026267
v -0.00101094 0.01183480 0.00007684
v -0.00132944 0.01277906 -0.00007789
v -0.00097498 0.01133174 0.00004152
v -0.01078931 0.01277906 0.00216561
v -0.01087407 0.01183480 0.00218159
v -0.01095113 0.01183480 0.00243301
v -0.01144172 0.00558125 0.00247086
v -0.01143016 0.00591631 0.00253182
v -0.01132870 0.00781222 0.00272985
v -0.01122468 0.00939061 0.00280048
v 0.00125707 0.00822020 0.00280048
v 0.00130201 0.00781222 0.00280048
v 0.00141503 0.00674243 0.00280048
v 0.00145998 0.00630860 0.00280048
v 0.00146512 0.00621907 0.00280048
v 0.00148310 0.00580001 0.00280048
v 0.00145998 0.00580001 0.00272985
v 0.00118643 0.00730917 0.00234178
v 0.00114405 0.00591816 0.00195455
v 0.00074208 0.00630306 0.00130790
v 0.00069199 0.00730917 0.00137938
v 0.00066759 0.00781222 0.00141638
v 0.00054815 0.00580001 0.00107540
v 0.00031313 0.00630306 0.00076048
v 0.00021168 0.00831435 0.00086601
v 0.00073309 0.00580001 0.00132682
v -0.00001307 0.00831435 0.00061501
v -0.00033927 0.00982259 0.00043043
v -0.00088637 0.00999796 -0.00003080
v -0.00090692 0.01032564 -0.00001524
v -0.00058071 0.01034871 0.00027235
v -0.00094031 0.01082869 0.00001083
v -0.00129605 0.01233785 -0.00010227
v -0.00159271 0.01277906 -0.00026204
v -0.01065190 0.01277906 0.00172414
v -0.01068914 0.01233785 0.00172414
v -0.01089462 0.01133174 0.00211179
v -0.01099351 0.01082869 0.00229553
v -0.01105387 0.00982259 0.00222700
v -0.01120413 0.00781222 0.00222700
v -0.01127862 0.00680612 0.00222700
v -0.01136723 0.00576955 0.00227282
v -0.01145199 0.00529696 0.00243974
v -0.01157014 0.00429085 0.00272985
v -0.01154061 0.00479391 0.00272985
v -0.01155473 0.00479391 0.00280048
v -0.01150978 0.00529696 0.00272985
v -0.01109240 0.00931953 0.00222700
v -0.01112964 0.00881740 0.00222700
v -0.01147382 0.00576955 0.00271177
v -0.01148410 0.00586001 0.00280048
v -0.01145713 0.00623384 0.00280048
v -0.01140447 0.00683012 0.00275087
v -0.01137879 0.00730917 0.00280048
v -0.01134155 0.00781222 0.00280048
v 0.00146512 0.00573725 0.00280048
v 0.00120955 0.00541326 0.00231697
v 0.00112992 0.00558218 0.00198188
v 0.00123266 0.00577047 0.00218033
v 0.00101177 0.00577047 0.00176198
v 0.00068428 0.00546680 0.00139956
v 0.00022067 0.00542988 0.00087064
v 0.00029644 0.00580001 0.00078403
v 0.00008453 0.00630306 0.00050906
v -0.00026479 0.00831435 0.00036316
v -0.00067318 0.00982720 0.00013906
v -0.00087096 0.00966290 -0.00004173
v -0.00108414 0.00982720 -0.00016912
v -0.00115863 0.01032564 -0.00018342
v -0.00119202 0.01082869 -0.00016576
v -0.00122670 0.01133174 -0.00014642
v -0.00126137 0.01183480 -0.00012540
v -0.00024038 0.00781222 0.00034340
v -0.00021598 0.00730917 0.00032406
v -0.00019158 0.00680612 0.00030556
v -0.00016718 0.00630306 0.00028748
v -0.00051907 0.00730917 0.00007263
v -0.00047412 0.00630306 0.00003605
v -0.00163381 0.01277906 -0.00028937
v -0.01050292 0.01277906 0.00131673
v -0.01087536 0.00982259 0.00166402
v -0.01081371 0.01082869 0.00172414
v -0.01094342 0.01015119 0.00195581
v -0.01092930 0.01048717 0.00199869
v -0.01091517 0.01082869 0.00204368
v -0.01100250 0.01032195 0.00219084
v -0.01095627 0.00982259 0.00191545
v -0.01097553 0.00931953 0.00185616
v -0.01131458 0.00630306 0.00222700
v -0.01099479 0.00881740 0.00179982
v -0.01104360 0.00781222 0.00172414
v -0.01137365 0.00529696 0.00218789
v -0.01146740 0.00479391 0.00238887
v -0.01162280 0.00335121 0.00272985
v -0.01159840 0.00378780 0.00272985
v -0.01163693 0.00335121 0.00280048
v -0.01152263 0.00529696 0.00280048
v 0.00132256 0.00527665 0.00280048
v 0.00128789 0.00526650 0.00271261
v 0.00110809 0.00507820 0.00253350
v 0.00104002 0.00526650 0.00218033
v 0.00078574 0.00529788 0.00173507
v 0.00055843 0.00513174 0.00157489
v 0.00038890 0.00528034 0.00121204
v 0.00007811 0.00509481 0.00102410
v -0.00010168 0.00526834 0.00069784
v -0.00028148 0.00544280 0.00038250
v 0.00005756 0.00580001 0.00053302
v -0.00019415 0.00580001 0.00030934
v -0.00072584 0.00630306 -0.00014011
v -0.00113038 0.00931953 -0.00022420
v -0.00155547 0.00982259 -0.00044914
v -0.00157859 0.01032564 -0.00043484
v -0.00160427 0.01082869 -0.00041719
v -0.00193561 0.01233785 -0.00051389
v -0.00196258 0.01277906 -0.00049875
v -0.00163381 0.01233785 -0.00032847
v -0.00049981 0.00580001 0.00005792
v -0.00075152 0.00580001 -0.00012287
v -0.00192662 0.01277906 -0.00047647
v -0.01038991 0.01277906 0.00106531
v -0.01062107 0.01082869 0.00122087
v -0.01066217 0.01032564 0.00122087
v -0.01091260 0.00881740 0.00154798
v -0.01089462 0.00931953 0.00160474
v -0.01086765 0.01032195 0.00176240
v -0.01118743 0.00580001 0.00172414
v -0.01092673 0.00841681 0.00150425
v -0.01138906 0.00479391 0.00213744
v -0.01122082 0.00529696 0.00172414
v -0.01144043 0.00335121 0.00204032
v -0.01148153 0.00429085 0.00234304
v -0.01152006 0.00335121 0.00231529
v -0.00013764 0.00335121 0.00280048
v 0.00122624 0.00511512 0.00280048
v 0.00116331 0.00501266 0.00280048
v 0.00067144 0.00500343 0.00191040
v -0.00015049 0.00335121 0.00274456
v 0.00022323 0.00495636 0.00135962
v -0.00044458 0.00460468 0.00104134
v -0.00025836 0.00493975 0.00086055
v -0.00044073 0.00510774 0.00052545
v -0.00062952 0.00529696 0.00021516
v -0.00081830 0.00548526 -0.00007789
v -0.00113038 0.00580001 -0.00035748
v -0.00113038 0.00630306 -0.00038103
v -0.00113038 0.00680612 -0.00035538
v -0.00113038 0.00730917 -0.00032931
v -0.00140393 0.00630306 -0.00052860
v -0.00180718 0.00982259 -0.00057653
v -0.00183030 0.01032564 -0.00056560
v -0.00185599 0.01082869 -0.00055341
v -0.00187397 0.01118129 -0.00054458
v -0.00218733 0.01233785 -0.00063035
v -0.00221430 0.01277906 -0.00061984
v -0.00218347 0.01277906 -0.00060555
v -0.01040789 0.01233785 0.00102494
v -0.01019727 0.01277906 0.00071802
v -0.01042330 0.01196494 0.00099131
v -0.01043743 0.01162896 0.00096272
v -0.01070198 0.00982259 0.00122087
v -0.01093829 0.00808082 0.00146935
v -0.01098324 0.00680612 0.00136130
v -0.01100122 0.00630306 0.00132010
v -0.01101920 0.00580001 0.00127931
v -0.01125165 0.00479391 0.00172414
v -0.01143016 0.00335121 0.00200752
v -0.01150593 0.00335121 0.00225895
v -0.00077977 0.00445884 0.00087863
v -0.00061025 0.00335121 0.00231151
v -0.00184956 0.00350905 0.00093959
v -0.00131403 0.00398164 0.00090890
v -0.00061025 0.00478006 0.00070204
v -0.00096985 0.00461945 0.00054395
v -0.00077721 0.00495451 0.00038292
v -0.00099039 0.00515020 0.00004783
v -0.00132559 0.00499790 -0.00007663
v -0.00190992 0.00507174 -0.00052272
v -0.00160427 0.00526281 -0.00044115
v -0.00175196 0.00540772 -0.00060639
v -0.00141292 0.00580001 -0.00052188
v -0.00166463 0.00580001 -0.00064339
v -0.00165564 0.00630306 -0.00064296
v -0.00167747 0.00680612 -0.00063498
v -0.00169931 0.00730917 -0.00062657
v -0.00213596 0.01032564 -0.00069594
v -0.00213596 0.01082869 -0.00067492
v -0.00216036 0.01183480 -0.00064170
v -0.00258416 0.01277906 -0.00076952
v -0.01023451 0.01233785 0.00071802
v -0.01045027 0.01133174 0.00094043
v -0.00999050 0.01277906 0.00038797
v -0.01034239 0.01032564 0.00061669
v -0.01077647 0.00881740 0.00122087
v -0.01047082 0.01082869 0.00090385
v -0.01049136 0.01032564 0.00086770
v -0.01089205 0.00630306 0.00106825
v -0.01087407 0.00680612 0.00110945
v -0.01085609 0.00730917 0.00115192
v -0.01096526 0.00730917 0.00140334
v -0.01091003 0.00580001 0.00102789
v -0.01103589 0.00529696 0.00124441
v -0.01130815 0.00378780 0.00172414
v -0.01133256 0.00335121 0.00172414
v -0.00230291 0.00335121 0.00073736
v -0.00217962 0.00342413 0.00075039
v -0.00237611 0.00352658 0.00045692
v -0.00130504 0.00447915 0.00040689
v -0.00114707 0.00480867 0.00022736
v -0.00152593 0.00466283 0.00007179
v -0.00239538 0.00404717 -0.00002954
v -0.00471989 0.00335121 -0.00104491
v -0.00339325 0.00454192 -0.00104239
v -0.00289110 0.00504866 -0.00104155
v -0.00477383 0.00340474 -0.00112017
v -0.00213596 0.00580001 -0.00084394
v -0.00213596 0.00630306 -0.00083595
v -0.00213596 0.00982259 -0.00071402
v -0.00263939 0.01133174 -0.00085067
v -0.00263939 0.01183480 -0.00083132
v -0.00263939 0.01277906 -0.00079138
v -0.00996610 0.01277906 0.00035727
v -0.01000848 0.01233785 0.00036484
v -0.01042972 0.00801252 0.00047290
v -0.01038092 0.00931953 0.00055194
v -0.01036165 0.00982259 0.00058305
v -0.01051191 0.00982259 0.00083406
v -0.01092673 0.00529696 0.00099299
v -0.01053118 0.00931953 0.00080295
v -0.01107827 0.00429085 0.00122087
v -0.01112707 0.00335121 0.00122087
v -0.01115404 0.00335121 0.00128646
v -0.00262654 0.00335121 0.00048761
v -0.00291165 0.00335121 0.00027613
v -0.00359102 0.00335121 -0.00022672
v -0.00456963 0.00335121 -0.00094232
v -0.00490097 0.00335121 -0.00115717
v -0.00512700 0.00335121 -0.00125345
v -0.00364496 0.00479391 -0.00119879
v -0.00309273 0.00524896 -0.00111639
v -0.00283588 0.00538372 -0.00105710
v -0.00565612 0.00335121 -0.00143466
v -0.00515269 0.00378780 -0.00139893
v -0.00257260 0.00580001 -0.00099067
v -0.00263939 0.00982259 -0.00089775
v -0.00263939 0.01032564 -0.00088220
v -0.00298871 0.00931953 -0.00101884
v -0.00302210 0.00982259 -0.00101170
v -0.00314153 0.01277906 -0.00094653
v -0.00308117 0.01277906 -0.00092845
v -0.00979016 0.01277906 0.00013654
v -0.01004958 0.01133174 0.00031271
v -0.01044256 0.00767746 0.00045524
v -0.01073409 0.00580001 0.00071802
v -0.01062621 0.00730917 0.00071802
v -0.01056071 0.00783161 0.00067135
v -0.01007013 0.01082869 0.00028748
v -0.01076620 0.00529696 0.00071802
v -0.01093443 0.00498682 0.00097491
v -0.01099094 0.00335121 0.00094422
v -0.01094214 0.00465176 0.00096061
v -0.00465054 0.00429085 -0.00136823
v -0.00414839 0.00479391 -0.00132367
v -0.00364496 0.00529696 -0.00125135
v -0.00314153 0.00580001 -0.00113951
v -0.00282432 0.00580001 -0.00106005
v -0.00615826 0.00335121 -0.00149353
v -0.00565612 0.00378780 -0.00147040
v -0.00324042 0.00931953 -0.00107644
v -0.00347287 0.01277906 -0.00102683
v -0.00343434 0.01277906 -0.00101800
v -0.00982740 0.01183480 0.00008693
v -0.00953844 0.01277906 -0.00014558
v -0.01047338 0.00680612 0.00041277
v -0.01009067 0.01032564 0.00026267
v -0.01010994 0.00982259 0.00023955
v -0.01020369 0.00831435 0.00021558
v -0.01029102 0.00630306 0.00013738
v -0.01050934 0.00580001 0.00036484
v -0.01052475 0.00529696 0.00034424
v -0.01082527 0.00335121 0.00065411
v -0.01081757 0.00480960 0.00076301
v -0.01084454 0.00335121 0.00068690
v -0.01097168 0.00335121 0.00090554
v -0.00515269 0.00429085 -0.00143887
v -0.00465054 0.00479391 -0.00139809
v -0.00414839 0.00529696 -0.00133208
v -0.00364496 0.00580001 -0.00124504
v -0.00364496 0.00730917 -0.00121141
v -0.00364496 0.00781222 -0.00120006
v -0.00666169 0.00335121 -0.00149437
v -0.00615826 0.00378780 -0.00149100
v -0.00565612 0.00429085 -0.00146620
v -0.00515269 0.00479391 -0.00143593
v -0.00364496 0.00831435 -0.00118786
v -0.00364496 0.00931953 -0.00116306
v -0.00364496 0.00982259 -0.00114960
v -0.00372330 0.01277906 -0.00107560
v -0.00988776 0.01032564 0.00001125
v -0.00950377 0.01277906 -0.00017627
v -0.00957569 0.01183480 -0.00017879
v -0.00996739 0.00831435 -0.00007326
v -0.00993656 0.00913585 -0.00004131
v -0.00992244 0.00947091 -0.00002743
v -0.00990831 0.00982259 -0.00001188
v -0.01030900 0.00580001 0.00011342
v -0.01032569 0.00529696 0.00009281
v -0.01053888 0.00479391 0.00032700
v -0.01056328 0.00378780 0.00029463
v -0.01060695 0.00335121 0.00033037
v -0.00465054 0.00529696 -0.00139094
v -0.00465054 0.00881740 -0.00132745
v -0.00414839 0.00730917 -0.00129466
v -0.00414839 0.00781222 -0.00128499
v -0.00414839 0.00881740 -0.00126396
v -0.00414839 0.00931953 -0.00125345
v -0.00414839 0.00982259 -0.00124168
v -0.00672719 0.00335121 -0.00149016
v -0.00666169 0.00378780 -0.00148680
v -0.00615826 0.01032564 -0.00137706
v -0.00565612 0.01082869 -0.00135983
v -0.00565612 0.01032564 -0.00136823
v -0.00515269 0.00931953 -0.00135856
v -0.00414839 0.01277906 -0.00115801
v -0.00414839 0.01133174 -0.00119921
v -0.00925334 0.01277906 -0.00039743
v -0.00965788 0.00982259 -0.00024564
v -0.00967971 0.00881740 -0.00029526
v -0.00998536 0.00781222 -0.00009134
v -0.01003930 0.00630306 -0.00014348
v -0.01005728 0.00580001 -0.00015987
v -0.01007398 0.00529696 -0.00017459
v -0.01033854 0.00479391 0.00007516
v -0.01035266 0.00429085 0.00005918
v -0.01037706 0.00335121 0.00002975
v -0.01040275 0.00335121 0.00006254
v -0.01057356 0.00335121 0.00028117
v -0.00465054 0.00931953 -0.00131778
v -0.00515269 0.00982259 -0.00134931
v -0.00465054 0.01277906 -0.00123285
v -0.00666169 0.00479391 -0.00146914
v -0.00716513 0.00335121 -0.00146031
v -0.00615826 0.01133174 -0.00135940
v -0.00615826 0.01277906 -0.00133376
v -0.00565612 0.01133174 -0.00135058
v -0.00939203 0.00931953 -0.00051305
v -0.00900162 0.01277906 -0.00059335
v -0.00942543 0.00853034 -0.00053701
v -0.00963476 0.00834297 -0.00036631
v -0.00970154 0.00781222 -0.00034277
v -0.00977475 0.00580001 -0.00041172
v -0.00979144 0.00529696 -0.00042601
v -0.01008811 0.00479391 -0.00018720
v -0.01012535 0.00335121 -0.00021958
v -0.00515269 0.01133174 -0.00131778
v -0.00515269 0.01183480 -0.00130643
v -0.00515269 0.01277906 -0.00128456
v -0.00509104 0.01277906 -0.00127826
v -0.00565612 0.01233785 -0.00133039
v -0.00716513 0.00429085 -0.00144349
v -0.00666169 0.01277906 -0.00132451
v -0.00660005 0.01277906 -0.00132577
v -0.00766727 0.00335121 -0.00139094
v -0.00609790 0.01277906 -0.00133250
v -0.00867413 0.01277906 -0.00078802
v -0.00916215 0.00881740 -0.00068627
v -0.00943698 0.00819528 -0.00054584
v -0.00950505 0.00630306 -0.00059377
v -0.00980557 0.00479391 -0.00043863
v -0.00952303 0.00580001 -0.00060597
v -0.00953973 0.00529696 -0.00061732
v -0.00983382 0.00378780 -0.00046133
v -0.00984538 0.00335121 -0.00047100
v -0.00565612 0.01277906 -0.00132114
v -0.00716513 0.00529696 -0.00142499
v -0.00710348 0.01277906 -0.00128414
v -0.00766727 0.00378780 -0.00138253
v -0.00817070 0.00335121 -0.00128288
v -0.00867413 0.01233785 -0.00080610
v -0.00917628 0.00580001 -0.00081367
v -0.00917628 0.00630306 -0.00079180
v -0.00917628 0.00730917 -0.00074681
v -0.00827858 0.01277906 -0.00098479
v -0.00917628 0.00529696 -0.00083427
v -0.00955514 0.00479391 -0.00062699
v -0.00958211 0.00378780 -0.00064507
v -0.00962706 0.00335121 -0.00062825
v -0.00716513 0.01277906 -0.00127826
v -0.00766727 0.00529696 -0.00135226
v -0.00817070 0.00378780 -0.00127279
v -0.00766727 0.01183480 -0.00120552
v -0.00766727 0.00730917 -0.00130769
v -0.00766727 0.00580001 -0.00134175
v -0.00866129 0.00335121 -0.00112984
v -0.00873578 0.00781222 -0.00095872
v -0.00875633 0.00730917 -0.00096881
v -0.00802687 0.01277906 -0.00108191
v -0.00829656 0.01233785 -0.00099278
v -0.00883852 0.00529696 -0.00100707
v -0.00881797 0.00580001 -0.00099782
v -0.00917628 0.00479391 -0.00085193
v -0.00885907 0.00479391 -0.00101548
v -0.00887833 0.00429085 -0.00102347
v -0.00917628 0.00429085 -0.00086917
v -0.00959366 0.00335121 -0.00065222
v -0.00917628 0.00378780 -0.00088556
v -0.00766727 0.01233785 -0.00119375
v -0.00766727 0.01277906 -0.00118282
v -0.00817070 0.00429085 -0.00126102
v -0.00891301 0.00335121 -0.00103692
v -0.00864588 0.00378780 -0.00112438
v -0.00850461 0.00730917 -0.00107560
v -0.00848406 0.00781222 -0.00106761
v -0.00844297 0.00881740 -0.00105080
v -0.00798063 0.01277906 -0.00109494
v -0.00817070 0.00580001 -0.00122402
v -0.00817070 0.00680612 -0.00119753
v -0.00804484 0.01233785 -0.00108822
v -0.00858809 0.00529696 -0.00110461
v -0.00889759 0.00378780 -0.00103104
v -0.00917628 0.00335121 -0.00089860
v -0.00817070 0.00529696 -0.00123663
v -0.00862662 0.00429085 -0.00111807
f 1 2 3
f 1 3 11
f 1 11 26
f 1 26 42
f 1 42 63
f 1 63 88
f 1 88 120
f 1 120 165
f 1 165 206
f 1 206 202
f 1 202 242
f 1 242 241
f 1 241 275
f 1 275 307
f 1 307 336
f 1 336 335
f 1 335 357
f 1 357 356
f 1 356 384
f 1 384 410
f 1 410 426
f 1 426 444
f 1 444 443
f 1 443 460
f 1 460 450
f 1 450 430
f 1 430 448
f 1 448 447
f 1 447 462
f 1 462 474
f 1 474 494
f 1 494 501
f 1 501 483
f 1 483 469
f 1 469 451
f 1 451 433
f 1 433 412
f 1 412 386
f 1 386 359
f 1 359 337
f 1 337 308
f 1 308 278
f 1 278 244
f 1 244 207
f 1 207 166
f 1 166 121
f 1 121 90
f 1 90 65
f 1 65 44
f 1 44 28
f 1 28 14
f 1 14 4
f 1 4 5
f 1 5 6
f 1 6 7
f 1 7 2
f 2 8 3
f 2 7 9
f 2 9 10
f 2 10 8
f 3 8 11
f 4 12 13
f 4 13 5
f 4 14 12
f 5 13 12
f 5 12 14
f 5 14 28
f 5 28 47
f 5 47 68
f 5 68 96
f 5 96 141
f 5 141 140
f 5 140 138
f 5 138 137
f 5 137 183
f 5 183 132
f 5 132 182
f 5 182 220
f 5 220 222
f 5 222 221
f 5 221 184
f 5 184 142
f 5 142 102
f 5 102 101
f 5 101 100
f 5 100 99
f 5 99 98
f 5 98 97
f 5 97 69
f 5 69 50
f 5 50 49
f 5 49 48
f 5 48 29
f 5 29 15
f 5 15 6
f 6 15 16
f 6 16 7
f 7 16 17
f 7 17 18
f 7 18 19
f 7 19 20
f 7 20 10
f 7 10 9
f 8 10 21
f 8 21 22
f 8 22 11
f 10 20 23
f 10 23 24
f 10 24 21
f 11 25 26
f 11 22 27
f 11 27 25
f 15 29 30
f 15 30 16
f 16 30 17
f 17 30 18
f 18 30 31
f 18 31 32
f 18 32 33
f 18 33 34
f 18 34 19
f 19 34 23
f 19 23 20
f 21 24 35
f 21 35 22
f 22 35 36
f 22 36 27
f 23 34 37
f 23 37 38
f 23 38 24
f 24 39 40
f 24 40 35
f 24 38 39
f 25 41 42
f 25 42 26
f 25 27 43
f 25 43 41
f 27 36 43
f 28 44 45
f 28 45 46
f 28 46 47
f 29 48 30
f 30 48 49
f 30 49 31
f 31 49 50
f 31 50 32
f 32 51 33
f 32 50 51
f 33 51 52
f 33 52 34
f 34 52 37
f 35 40 36
f 36 40 43
f 37 53 38
f 37 52 54
f 37 54 55
f 37 55 56
f 37 56 53
f 38 53 57
f 38 57 39
f 39 57 58
f 39 58 40
f 40 58 59
f 40 59 60
f 40 60 43
f 41 61 62
f 41 62 42
f 41 43 60
f 41 60 61
f 42 62 63
f 44 64 45
f 44 65 64
f 45 64 46
f 46 66 47
f 46 64 67
f 46 67 66
f 47 66 68
f 50 69 70
f 50 70 51
f 51 71 52
f 51 70 72
f 51 72 73
f 51 73 74
f 51 74 71
f 52 71 54
f 53 58 57
f 53 56 58
f 54 71 74
f 54 74 55
f 55 75 56
f 55 74 76
f 55 76 77
f 55 77 75
f 56 75 58
f 58 75 78
f 58 78 79
f 58 79 80
f 58 80 81
f 58 81 59
f 59 81 82
f 59 82 83
f 59 83 84
f 59 84 85
f 59 85 60
f 60 85 61
f 61 86 87
f 61 87 62
f 61 85 86
f 62 87 63
f 63 87 89
f 63 89 88
f 64 65 67
f 65 90 91
f 65 91 92
f 65 92 67
f 66 67 92
f 66 92 93
f 66 93 94
f 66 94 95
f 66 95 96
f 66 96 68
f 69 97 70
f 70 97 98
f 70 98 72
f 72 98 99
f 72 99 73
f 73 99 100
f 73 100 101
f 73 101 102
f 73 102 103
f 73 103 78
f 73 78 77
f 73 77 104
f 73 104 76
f 73 76 74
f 75 77 78
f 76 104 77
f 78 103 105
f 78 105 106
f 78 106 79
f 79 106 107
f 79 107 108
f 79 108 80
f 80 108 82
f 80 82 81
f 82 108 83
f 83 109 110
f 83 110 111
f 83 111 84
f 83 108 107
f 83 107 106
f 83 106 112
f 83 112 109
f 84 111 85
f 85 113 114
f 85 114 115
f 85 115 116
f 85 116 117
f 85 117 118
f 85 118 86
f 85 111 113
f 86 118 89
f 86 89 87
f 88 89 118
f 88 118 119
f 88 119 120
f 90 121 91
f 91 121 122
f 91 122 123
f 91 123 124
f 91 124 92
f 92 124 125
f 92 125 93
f 93 126 127
f 93 127 128
f 93 128 129
f 93 129 130
f 93 130 131
f 93 131 132
f 93 132 133
f 93 133 94
f 93 125 134
f 93 134 135
f 93 135 126
f 94 133 136
f 94 136 137
f 94 137 138
f 94 138 139
f 94 139 140
f 94 140 95
f 95 140 141
f 95 141 96
f 102 142 103
f 103 142 143
f 103 143 144
f 103 144 145
f 103 145 105
f 105 145 144
f 105 144 146
f 105 146 112
f 105 112 106
f 109 112 147
f 109 147 148
f 109 148 149
f 109 149 110
f 110 149 150
f 110 150 113
f 110 113 111
f 112 146 144
f 112 144 147
f 113 150 114
f 114 151 152
f 114 152 115
f 114 150 151
f 115 153 154
f 115 154 155
f 115 155 156
f 115 156 157
f 115 157 158
f 115 158 116
f 115 152 151
f 115 151 159
f 115 159 160
f 115 160 161
f 115 161 162
f 115 162 163
f 115 163 164
f 115 164 153
f 116 118 117
f 116 158 119
f 116 119 118
f 119 158 120
f 120 158 165
f 121 166 122
f 122 166 167
f 122 167 168
f 122 168 169
f 122 169 170
f 122 170 171
f 122 171 123
f 123 171 124
f 124 172 125
f 124 171 170
f 124 170 172
f 125 172 169
f 125 169 173
f 125 173 134
f 126 135 174
f 126 174 127
f 127 175 128
f 127 174 176
f 127 176 177
f 127 177 213
f 127 213 175
f 128 175 178
f 128 178 129
f 129 179 180
f 129 180 181
f 129 181 130
f 129 178 179
f 130 181 182
f 130 182 132
f 130 132 131
f 132 183 133
f 133 183 137
f 133 137 136
f 134 173 174
f 134 174 135
f 138 140 139
f 142 184 143
f 143 184 185
f 143 185 186
f 143 186 187
f 143 187 144
f 144 187 188
f 144 188 147
f 147 189 190
f 147 190 148
f 147 188 189
f 148 190 191
f 148 191 192
f 148 192 193
f 148 193 194
f 148 194 149
f 149 194 150
f 150 194 195
f 150 195 162
f 150 162 161
f 150 161 160
f 150 160 159
f 150 159 151
f 153 196 154
f 153 164 196
f 154 196 197
f 154 197 198
f 154 198 199
f 154 199 155
f 155 199 200
f 155 200 201
f 155 201 202
f 155 202 203
f 155 203 156
f 156 203 157
f 157 203 158
f 158 203 165
f 162 195 204
f 162 204 164
f 162 164 163
f 164 204 205
f 164 205 196
f 165 203 206
f 166 207 208
f 166 208 209
f 166 209 210
f 166 210 211
f 166 211 167
f 167 211 174
f 167 174 173
f 167 173 169
f 167 169 212
f 167 212 168
f 168 212 169
f 169 172 170
f 174 211 176
f 175 213 178
f 176 211 177
f 177 211 210
f 177 210 214
f 177 214 213
f 178 215 179
f 178 213 216
f 178 216 215
f 179 217 218
f 179 218 180
f 179 215 217
f 180 182 181
f 180 218 219
f 180 219 254
f 180 254 217
f 180 217 253
f 180 253 290
f 180 290 318
f 180 318 317
f 180 317 346
f 180 346 370
f 180 370 369
f 180 369 367
f 180 367 396
f 180 396 423
f 180 423 422
f 180 422 421
f 180 421 440
f 180 440 459
f 180 459 473
f 180 473 491
f 180 491 507
f 180 507 496
f 180 496 480
f 180 480 464
f 180 464 449
f 180 449 428
f 180 428 404
f 180 404 377
f 180 377 353
f 180 353 328
f 180 328 324
f 180 324 323
f 180 323 298
f 180 298 322
f 180 322 321
f 180 321 320
f 180 320 319
f 180 319 291
f 180 291 256
f 180 256 224
f 180 224 220
f 180 220 182
f 184 221 185
f 185 221 222
f 185 222 186
f 186 223 187
f 186 222 224
f 186 224 223
f 187 223 188
f 188 223 189
f 189 225 191
f 189 191 190
f 189 223 224
f 189 224 225
f 191 224 226
f 191 226 227
f 191 227 228
f 191 228 192
f 191 225 224
f 192 228 193
f 193 195 194
f 193 228 229
f 193 229 230
f 193 230 195
f 195 230 204
f 196 205 231
f 196 231 232
f 196 232 233
f 196 233 234
f 196 234 197
f 197 234 198
f 198 234 233
f 198 233 232
f 198 232 235
f 198 235 236
f 198 236 237
f 198 237 238
f 198 238 239
f 198 239 199
f 199 239 201
f 199 201 200
f 201 239 240
f 201 240 241
f 201 241 242
f 201 242 202
f 202 206 203
f 204 230 205
f 205 230 231
f 207 243 208
f 207 244 243
f 208 243 245
f 208 245 209
f 209 245 246
f 209 246 247
f 209 247 210
f 210 247 214
f 213 214 248
f 213 248 249
f 213 249 250
f 213 250 251
f 213 251 216
f 214 247 248
f 215 216 252
f 215 252 253
f 215 253 217
f 216 251 252
f 217 254 218
f 218 254 219
f 220 224 222
f 224 255 226
f 224 256 257
f 224 257 258
f 224 258 255
f 226 255 227
f 227 255 259
f 227 259 228
f 228 259 260
f 228 260 261
f 228 261 229
f 229 261 262
f 229 262 230
f 230 262 263
f 230 263 264
f 230 264 265
f 230 265 266
f 230 266 231
f 231 266 267
f 231 267 232
f 232 267 235
f 235 267 268
f 235 268 269
f 235 269 270
f 235 270 271
f 235 271 236
f 236 271 272
f 236 272 237
f 237 272 273
f 237 273 274
f 237 274 240
f 237 240 238
f 238 240 239
f 240 274 275
f 240 275 241
f 243 244 245
f 244 276 277
f 244 277 246
f 244 246 245
f 244 278 279
f 244 279 276
f 246 277 247
f 247 280 248
f 247 277 281
f 247 281 282
f 247 282 283
f 247 283 284
f 247 284 280
f 248 280 285
f 248 285 284
f 248 284 286
f 248 286 249
f 249 286 284
f 249 284 283
f 249 283 250
f 250 283 251
f 251 283 287
f 251 287 314
f 251 314 288
f 251 288 252
f 252 288 289
f 252 289 253
f 253 289 290
f 255 260 259
f 255 258 260
f 256 291 292
f 256 292 257
f 257 292 293
f 257 293 258
f 258 293 260
f 260 293 294
f 260 294 261
f 261 294 295
f 261 295 263
f 261 263 262
f 263 295 296
f 263 296 297
f 263 297 298
f 263 298 264
f 264 299 300
f 264 300 266
f 264 266 265
f 264 298 301
f 264 301 299
f 266 300 268
f 266 268 267
f 268 300 302
f 268 302 269
f 269 302 303
f 269 303 270
f 270 303 271
f 271 303 304
f 271 304 272
f 272 304 305
f 272 305 306
f 272 306 273
f 273 306 307
f 273 307 275
f 273 275 274
f 276 279 282
f 276 282 281
f 276 281 277
f 278 308 309
f 278 309 310
f 278 310 311
f 278 311 312
f 278 312 279
f 279 312 313
f 279 313 282
f 280 284 285
f 282 313 287
f 282 287 283
f 287 313 315
f 287 315 314
f 288 314 316
f 288 316 317
f 288 317 318
f 288 318 290
f 288 290 289
f 291 319 293
f 291 293 292
f 293 297 296
f 293 296 295
f 293 295 294
f 293 319 320
f 293 320 321
f 293 321 322
f 293 322 297
f 297 322 298
f 298 323 301
f 299 301 323
f 299 323 324
f 299 324 300
f 300 325 326
f 300 326 327
f 300 327 302
f 300 324 328
f 300 328 329
f 300 329 325
f 302 330 303
f 302 327 330
f 303 330 331
f 303 331 332
f 303 332 305
f 303 305 304
f 305 332 333
f 305 333 334
f 305 334 335
f 305 335 336
f 305 336 306
f 306 336 307
f 308 337 309
f 309 337 338
f 309 338 310
f 310 339 340
f 310 340 341
f 310 341 342
f 310 342 315
f 310 315 311
f 310 338 343
f 310 343 339
f 311 315 313
f 311 313 312
f 314 315 340
f 314 340 344
f 314 344 345
f 314 345 317
f 314 317 316
f 315 342 341
f 315 341 340
f 317 345 347
f 317 347 346
f 325 329 348
f 325 348 349
f 325 349 326
f 326 349 350
f 326 350 327
f 327 350 351
f 327 351 352
f 327 352 330
f 328 353 354
f 328 354 329
f 329 354 348
f 330 352 333
f 330 333 331
f 331 333 332
f 333 352 351
f 333 351 355
f 333 355 334
f 334 355 356
f 334 356 357
f 334 357 335
f 337 358 338
f 337 359 358
f 338 358 343
f 339 360 340
f 339 343 361
f 339 361 362
f 339 362 363
f 339 363 364
f 339 364 360
f 340 360 365
f 340 365 344
f 343 358 361
f 344 365 366
f 344 366 367
f 344 367 368
f 344 368 345
f 345 368 367
f 345 367 369
f 345 369 347
f 346 347 370
f 347 369 370
f 348 354 371
f 348 371 372
f 348 372 349
f 349 372 373
f 349 373 350
f 350 374 351
f 350 373 374
f 351 374 375
f 351 375 376
f 351 376 355
f 353 377 378
f 353 378 354
f 354 379 380
f 354 380 371
f 354 378 379
f 355 376 381
f 355 381 382
f 355 382 383
f 355 383 356
f 356 383 384
f 358 385 361
f 358 359 385
f 359 386 387
f 359 387 388
f 359 388 389
f 359 389 390
f 359 390 391
f 359 391 385
f 360 364 392
f 360 392 365
f 361 385 391
f 361 391 390
f 361 390 389
f 361 389 362
f 362 389 363
f 363 389 364
f 364 389 392
f 365 392 393
f 365 393 366
f 366 394 367
f 366 393 394
f 367 394 395
f 367 395 396
f 371 380 372
f 372 397 373
f 372 380 397
f 373 398 399
f 373 399 374
f 373 397 398
f 374 399 400
f 374 400 401
f 374 401 402
f 374 402 375
f 375 402 376
f 376 402 403
f 376 403 381
f 377 404 405
f 377 405 378
f 378 405 406
f 378 406 407
f 378 407 408
f 378 408 379
f 379 408 380
f 380 409 397
f 380 408 407
f 380 407 409
f 381 403 382
f 382 403 383
f 383 410 384
f 383 403 411
f 383 411 410
f 386 412 387
f 387 413 388
f 387 412 413
f 388 413 414
f 388 414 415
f 388 415 393
f 388 393 392
f 388 392 389
f 393 415 416
f 393 416 417
f 393 417 418
f 393 418 419
f 393 419 394
f 394 419 420
f 394 420 421
f 394 421 395
f 395 421 422
f 395 422 423
f 395 423 396
f 397 409 398
f 398 424 400
f 398 400 399
f 398 409 425
f 398 425 424
f 400 424 401
f 401 424 402
f 402 424 403
f 403 424 426
f 403 426 411
f 404 427 405
f 404 428 427
f 405 427 429
f 405 429 406
f 406 429 407
f 407 429 430
f 407 430 431
f 407 431 425
f 407 425 409
f 410 411 426
f 412 432 413
f 412 433 432
f 413 432 414
f 414 432 434
f 414 434 435
f 414 435 436
f 414 436 415
f 415 436 437
f 415 437 416
f 416 437 417
f 417 437 418
f 418 437 438
f 418 438 455
f 418 455 439
f 418 439 421
f 418 421 420
f 418 420 419
f 421 439 440
f 424 425 441
f 424 441 442
f 424 442 443
f 424 443 444
f 424 444 426
f 425 431 445
f 425 445 441
f 427 428 446
f 427 446 447
f 427 447 448
f 427 448 430
f 427 430 429
f 428 449 446
f 430 450 431
f 431 450 445
f 432 433 434
f 433 451 452
f 433 452 434
f 434 452 453
f 434 453 454
f 434 454 438
f 434 438 437
f 434 437 435
f 435 437 436
f 438 454 456
f 438 456 457
f 438 457 455
f 439 455 458
f 439 458 459
f 439 459 440
f 441 445 460
f 441 460 442
f 442 460 443
f 445 450 460
f 446 461 447
f 446 449 461
f 447 461 462
f 449 463 461
f 449 464 463
f 451 465 466
f 451 466 467
f 451 467 468
f 451 468 452
f 451 469 465
f 452 468 456
f 452 456 454
f 452 454 453
f 455 457 458
f 456 468 467
f 456 467 466
f 456 466 457
f 457 466 470
f 457 470 471
f 457 471 458
f 458 471 459
f 459 471 472
f 459 472 473
f 461 463 474
f 461 474 462
f 463 464 475
f 463 475 474
f 464 476 477
f 464 477 478
f 464 478 479
f 464 479 475
f 464 480 476
f 465 481 482
f 465 482 470
f 465 470 466
f 465 469 481
f 469 483 484
f 469 484 485
f 469 485 486
f 469 486 482
f 469 482 481
f 470 487 471
f 470 482 486
f 470 486 485
f 470 485 488
f 470 488 489
f 470 489 487
f 471 487 490
f 471 490 472
f 472 491 473
f 472 490 492
f 472 492 491
f 474 475 479
f 474 479 478
f 474 478 477
f 474 477 493
f 474 493 494
f 476 495 493
f 476 493 477
f 476 480 495
f 480 496 497
f 480 497 495
f 483 498 499
f 483 499 500
f 483 500 484
f 483 501 502
f 483 502 503
f 483 503 504
f 483 504 505
f 483 505 498
f 484 500 485
f 485 500 499
f 485 499 488
f 487 489 506
f 487 506 490
f 488 499 498
f 488 498 489
f 489 498 505
f 489 505 506
f 490 506 492
f 491 492 507
f 492 506 496
f 492 496 507
f 493 495 508
f 493 508 494
f 494 508 502
f 494 502 501
f 495 497 508
f 496 506 497
f 497 509 508
f 497 506 509
f 502 508 509
f 502 509 505
f 502 505 503
f 503 505 504
f 505 509 506

