# https://github.com/mikedh/trimesh
v 0.00021686 0.01487142 0.00625054
v 0.00020582 0.01487142 0.00647491
v 0.00021686 0.01487142 0.00621910
v 0.00015066 0.01729186 0.00625054
v 0.00013742 0.01729186 0.00675358
v 0.00013080 0.01729186 0.00692936
v 0.00011645 0.01729186 0.00725663
v 0.00019148 0.01487142 0.00676216
v 0.00021575 0.01487142 0.00574892
v 0.00014955 0.01729186 0.00574892
v 0.00010763 0.01729186 0.00738382
v 0.00008115 0.01729186 0.00775967
v 0.00003922 0.01729186 0.00826272
v 0.00014845 0.01487142 0.00725663
v 0.00021465 0.01487142 0.00572606
v 0.00011535 0.01729186 0.00474283
v 0.00012197 0.01729186 0.00490003
v 0.00013521 0.01729186 0.00524588
v 0.00014183 0.01729186 0.00544452
v -0.00001043 0.01729186 0.00875147
v 0.00008115 0.01487142 0.00778254
v 0.00020472 0.01487142 0.00552598
v 0.00019148 0.01487142 0.00526589
v 0.00019038 0.01487142 0.00524445
v 0.00008556 0.01729186 0.00431839
v 0.00001053 0.01487142 0.00826272
v -0.00002808 0.01729186 0.00885866
v 0.00015617 0.01487142 0.00484573
v 0.00003922 0.01729186 0.00375961
v -0.00007994 0.01487142 0.00876576
v -0.00010532 0.01729186 0.00926738
v 0.00014624 0.01487142 0.00474283
v 0.00000171 0.01729186 0.00335517
v -0.00018807 0.01487142 0.00926738
v -0.00021896 0.01729186 0.00977042
v 0.00012528 0.01487142 0.00457849
v -0.00001153 0.01729186 0.00324799
v -0.00031936 0.01487142 0.00977185
v -0.00035357 0.01729186 0.01023346
v 0.00007563 0.01487142 0.00419691
v 0.00000833 0.01487142 0.00373674
v 0.00000502 0.01487142 0.00371816
v -0.00008656 0.01487142 0.00321512
v -0.00010752 0.01729186 0.00273065
v -0.00033702 0.01487142 0.00982902
v -0.00054444 0.01729186 0.01074793
v -0.00047273 0.01487142 0.01023917
v -0.00044845 0.01487142 0.01016629
v -0.00019138 0.01487142 0.00273065
v -0.00020241 0.01729186 0.00230335
v -0.00057644 0.01729186 0.01082225
v -0.00068567 0.01487142 0.01077652
v -0.00019469 0.01487142 0.00271779
v -0.00021896 0.01729186 0.00222904
v -0.00083572 0.01487142 0.01110378
v -0.00078938 0.01729186 0.01125384
v -0.00032709 0.01487142 0.00221046
v -0.00032488 0.01729186 0.00186604
v -0.00082028 0.01729186 0.01130671
v -0.00098798 0.01487142 0.01135530
v -0.00038777 0.01487142 0.00201896
v -0.00047714 0.01487142 0.00176172
v -0.00054555 0.01729186 0.00125010
v -0.00092068 0.01729186 0.01146391
v -0.00123844 0.01487142 0.01170829
v -0.00049369 0.01487142 0.00171885
v -0.00068788 0.01487142 0.00122152
v -0.00069229 0.01487142 0.00121151
v -0.00083572 0.01487142 0.00089568
v -0.00079269 0.01729186 0.00074563
v -0.00115017 0.01729186 0.01177689
v -0.00118217 0.01729186 0.01181690
v -0.00137194 0.01729186 0.01204270
v -0.00144476 0.01487142 0.01195124
v -0.00098798 0.01487142 0.00064416
v -0.00089861 0.01729186 0.00056985
v -0.00145248 0.01487142 0.01195981
v -0.00159481 0.01729186 0.01223563
v -0.00170404 0.01487142 0.01218418
v -0.00099681 0.01487142 0.00063130
v -0.00097143 0.01729186 0.00046695
v -0.00192802 0.01729186 0.01251002
v -0.00202953 0.01487142 0.01242713
v -0.00123954 0.01487142 0.00029260
v -0.00114907 0.01729186 0.00022114
v -0.00196664 0.01729186 0.01253289
v -0.00229322 0.01487142 0.01259005
v -0.00204166 0.01487142 0.01243571
v -0.00124726 0.01487142 0.00028260
v -0.00122078 0.01729186 0.00013254
v -0.00217958 0.01729186 0.01264436
v -0.00224137 0.01729186 0.01267294
v -0.00263857 0.01487142 0.01274868
v -0.00145469 0.01487142 0.00004108
v -0.00138628 0.01713714 -0.00003038
v -0.00154627 0.01729186 -0.00019473
v -0.00263857 0.01729186 0.01284443
v -0.00312403 0.01487142 0.01292017
v -0.00146352 0.01487142 0.00003250
v -0.00159261 0.01729186 -0.00023474
v -0.00170625 0.01487142 -0.00018329
v -0.00311741 0.01729186 0.01299020
v -0.00314169 0.01487142 0.01292589
v -0.00171839 0.01487142 -0.00019330
v -0.00188499 0.01729186 -0.00047054
v -0.00348813 0.01487142 0.01301592
v -0.00336346 0.01729186 0.01304736
v -0.00204387 0.01487142 -0.00043482
v -0.00193354 0.01729186 -0.00050770
v -0.00350137 0.01487142 0.01301878
v -0.00339656 0.01729186 0.01305308
v -0.00374411 0.01487142 0.01306594
v -0.00205270 0.01487142 -0.00044053
v -0.00229543 0.01487142 -0.00059202
v -0.00218510 0.01729186 -0.00064489
v -0.00364039 0.01729186 0.01309309
v -0.00375293 0.01487142 0.01306737
v -0.00230757 0.01487142 -0.00059773
v -0.00263857 0.01487142 -0.00075208
v -0.00263857 0.01729186 -0.00084640
v -0.00372094 0.01729186 0.01310310
v -0.00465105 0.01487142 0.01319313
v -0.00414793 0.01487142 0.01313025
v -0.00314169 0.01487142 -0.00092500
v -0.00310969 0.01729186 -0.00099360
v -0.00414793 0.01729186 0.01315455
v -0.00513541 0.01487142 0.01324315
v -0.00353778 0.01487142 -0.00101789
v -0.00335573 0.01729186 -0.00104933
v -0.00422406 0.01729186 0.01316169
v -0.00515417 0.01487142 0.01324458
v -0.00378934 0.01487142 -0.00105933
v -0.00414793 0.01487142 -0.00111650
v -0.00364039 0.01729186 -0.00109363
v -0.00472718 0.01729186 0.01319885
v -0.00565618 0.01487142 0.01328174
v -0.00416668 0.01487142 -0.00111936
v -0.00466980 0.01487142 -0.00119081
v -0.00515417 0.01487142 -0.00124512
v -0.00414793 0.01729186 -0.00114937
v -0.00515417 0.01729186 0.01322886
v -0.00615930 0.01487142 0.01330032
v -0.00565618 0.01729186 0.01325744
v -0.00565618 0.01487142 -0.00128228
v -0.00515417 0.01729186 -0.00122940
v -0.00666132 0.01487142 0.01329031
v -0.00615930 0.01729186 0.01327030
v -0.00623433 0.01729186 0.01326887
v -0.00615930 0.01487142 -0.00129942
v -0.00565618 0.01729186 -0.00125655
v -0.00666132 0.01729186 0.01325744
v -0.00716444 0.01487142 0.01323886
v -0.00666132 0.01487142 -0.00128942
v -0.00615930 0.01729186 -0.00126941
v -0.00608317 0.01729186 -0.00126798
v -0.00673745 0.01729186 0.01324887
v -0.00716444 0.01729186 0.01319742
v -0.00766977 0.01487142 0.01312739
v -0.00668008 0.01487142 -0.00128799
v -0.00666132 0.01729186 -0.00125655
v -0.00658519 0.01729186 -0.00125941
v -0.00759474 0.01729186 0.01309738
v -0.00763005 0.01636192 0.01310739
v -0.00793898 0.01487142 0.01304879
v -0.00716444 0.01487142 -0.00123797
v -0.00716444 0.01535617 -0.00122940
v -0.00716444 0.01729186 -0.00119510
v -0.00763225 0.01729186 0.01308595
v -0.00788160 0.01636192 0.01302878
v -0.00791471 0.01555732 0.01303879
v -0.00817730 0.01487142 0.01294447
v -0.00766977 0.01487142 -0.00112936
v -0.00751861 0.01729186 -0.00111221
v -0.00784630 0.01729186 0.01301592
v -0.00817068 0.01729186 0.01286444
v -0.00818833 0.01487142 0.01293875
v -0.00794229 0.01487142 -0.00105076
v -0.00758481 0.01729186 -0.00109649
v -0.00857339 0.01729186 0.01263721
v -0.00864952 0.01535617 0.01267722
v -0.00871462 0.01487142 0.01266008
v -0.00819164 0.01487142 -0.00094643
v -0.00792794 0.01521472 -0.00104504
v -0.00789926 0.01585916 -0.00103504
v -0.00783637 0.01729186 -0.00101217
v -0.00861201 0.01729186 0.01261149
v -0.00892094 0.01487142 0.01253574
v -0.00875544 0.01487142 0.01263578
v -0.00821150 0.01487142 -0.00093643
v -0.00817068 0.01729186 -0.00085926
v -0.00817068 0.01686491 -0.00087641
v -0.00891653 0.01500102 0.01253146
v -0.00882495 0.01729186 0.01246143
v -0.00884150 0.01686491 0.01247572
v -0.00911623 0.01487142 0.01236568
v -0.00872234 0.01488279 -0.00066776
v -0.00871131 0.01487142 -0.00067348
v -0.00865725 0.01535617 -0.00068205
v -0.00850940 0.01729186 -0.00067205
v -0.00910741 0.01729186 0.01220991
v -0.00912396 0.01686491 0.01222420
v -0.00945385 0.01487142 0.01206271
v -0.00861201 0.01636192 -0.00065918
v -0.00872124 0.01487142 -0.00066776
v -0.00873779 0.01487142 -0.00065776
v -0.00892205 0.01507044 -0.00053628
v -0.00857229 0.01729186 -0.00063632
v -0.00935897 0.01729186 0.01195124
v -0.00937552 0.01686491 0.01197268
v -0.00939538 0.01636192 0.01199697
v -0.00942627 0.01558480 0.01203270
v -0.00943951 0.01524955 0.01204699
v -0.00966238 0.01487142 0.01179547
v -0.00911734 0.01487142 -0.00037479
v -0.00910630 0.01729186 -0.00021045
v -0.00906327 0.01729186 -0.00024903
v -0.00882385 0.01729186 -0.00046197
v -0.00954874 0.01729186 0.01169972
v -0.00956639 0.01686491 0.01172115
v -0.00967121 0.01487142 0.01178403
v -0.00912837 0.01487142 -0.00036479
v -0.00925636 0.01487142 -0.00024760
v -0.00945606 0.01487142 -0.00006468
v -0.00944061 0.01526993 -0.00004896
v -0.00942737 0.01560518 -0.00003467
v -0.00941744 0.01585916 -0.00002323
v -0.00935786 0.01729186 0.00004679
v -0.00958625 0.01729186 0.01164255
v -0.00985878 0.01585916 0.01141390
v -0.00987864 0.01535617 0.01144819
v -0.00989850 0.01487142 0.01147963
v -0.00967893 0.01487142 0.00021400
v -0.00957081 0.01686491 0.00027688
v -0.00952336 0.01729186 0.00025973
v -0.00980030 0.01729186 0.01131100
v -0.00981795 0.01686491 0.01134244
v -0.01000773 0.01585916 0.01116237
v -0.01002869 0.01535617 0.01119667
v -0.01004303 0.01487142 0.01123812
v -0.00990401 0.01487142 0.00051125
v -0.00955315 0.01729186 0.00029832
v -0.00982237 0.01729186 0.01127384
v -0.00996690 0.01686491 0.01109092
v -0.01027032 0.01487142 0.01079224
v -0.01004855 0.01487142 0.01122811
v -0.00990953 0.01487142 0.00051983
v -0.00984223 0.01636192 0.00061558
v -0.00980471 0.01729186 0.00068417
v -0.00994815 0.01729186 0.01105948
v -0.00997021 0.01729186 0.01101232
v -0.01023722 0.01535617 0.01077652
v -0.01041155 0.01487142 0.01046068
v -0.01005076 0.01487142 0.00076277
v -0.01002979 0.01535617 0.00079564
v -0.01000883 0.01585916 0.00083137
v -0.00998787 0.01636192 0.00086710
v -0.00994925 0.01729186 0.00093570
v -0.01007503 0.01729186 0.01077652
v -0.01026922 0.01729186 0.01027347
v -0.01036962 0.01585916 0.01033778
v -0.01044134 0.01619181 0.01004338
v -0.01049650 0.01487142 0.01020916
v -0.01005848 0.01487142 0.00077707
v -0.01028246 0.01487142 0.00122152
v -0.01024163 0.01535617 0.00122152
v -0.01015668 0.01636192 0.00122152
v -0.01007724 0.01729186 0.00122152
v -0.01028577 0.01729186 0.01022488
v -0.01042699 0.01652706 0.00999908
v -0.01062890 0.01487142 0.00978472
v -0.01041486 0.01487142 0.00153020
v -0.01027363 0.01729186 0.00172456
v -0.01039500 0.01729186 0.00989047
v -0.01049761 0.01636050 0.00980758
v -0.01046892 0.01729186 0.00963895
v -0.01075579 0.01487142 0.00926738
v -0.01049761 0.01487142 0.00178173
v -0.01045789 0.01585916 0.00190606
v -0.01036410 0.01637377 0.00175886
v -0.01044244 0.01621408 0.00195036
v -0.01042810 0.01654933 0.00199609
v -0.01041486 0.01686491 0.00204754
v -0.01039610 0.01729186 0.00211471
v -0.01048437 0.01729186 0.00957321
v -0.01058808 0.01686491 0.00926738
v -0.01064656 0.01729186 0.00876576
v -0.01076682 0.01585916 0.00876576
v -0.01084957 0.01487142 0.00876576
v -0.01050202 0.01487142 0.00179602
v -0.01063221 0.01487142 0.00222761
v -0.01054946 0.01585916 0.00222761
v -0.01049540 0.01637377 0.00218902
v -0.01046451 0.01729186 0.00236623
v -0.01055167 0.01729186 0.00926738
v -0.01056601 0.01729186 0.00919164
v -0.01072048 0.01729186 0.00826272
v -0.01092018 0.01487142 0.00828416
v -0.01075468 0.01487142 0.00273065
v -0.01071386 0.01535617 0.00273065
v -0.01058587 0.01686491 0.00273065
v -0.01054946 0.01729186 0.00273065
v -0.01072931 0.01729186 0.00818555
v -0.01077675 0.01729186 0.00775967
v -0.01096983 0.01487142 0.00783399
v -0.01084847 0.01487142 0.00323370
v -0.01080875 0.01535617 0.00323370
v -0.01068186 0.01686491 0.00323370
v -0.01063111 0.01729186 0.00315796
v -0.01093894 0.01563764 0.00752959
v -0.01095108 0.01535617 0.00763534
v -0.01090253 0.01582694 0.00772252
v -0.01081537 0.01729186 0.00725663
v -0.01097204 0.01488777 0.00779826
v -0.01097314 0.01487142 0.00779683
v -0.01085178 0.01487142 0.00325228
v -0.01091908 0.01489629 0.00372388
v -0.01079771 0.01636192 0.00373674
v -0.01064545 0.01729186 0.00323370
v -0.01070834 0.01729186 0.00366100
v -0.01092570 0.01596981 0.00725663
v -0.01094666 0.01571819 0.00725663
v -0.01097645 0.01535617 0.00725663
v -0.01101617 0.01487142 0.00725663
v -0.01083523 0.01729186 0.00675358
v -0.01091798 0.01487142 0.00370244
v -0.01092460 0.01487142 0.00375246
v -0.01093563 0.01509271 0.00399970
v -0.01071938 0.01729186 0.00373674
v -0.01103714 0.01487142 0.00675358
v -0.01085178 0.01729186 0.00625054
v -0.01093894 0.01613281 0.00655351
v -0.01096542 0.01487142 0.00414118
v -0.01097094 0.01487142 0.00419834
v -0.01093673 0.01560020 0.00449988
v -0.01077344 0.01729186 0.00423979
v -0.01105258 0.01487142 0.00626912
v -0.01101286 0.01535617 0.00625054
v -0.01085398 0.01729186 0.00574892
v -0.01099631 0.01487142 0.00450989
v -0.01101507 0.01487142 0.00474140
v -0.01089260 0.01636192 0.00474283
v -0.01081537 0.01729186 0.00474283
v -0.01094446 0.01619702 0.00574892
v -0.01097204 0.01585916 0.00574892
v -0.01105258 0.01487142 0.00574892
v -0.01088929 0.01686491 0.00574892
v -0.01084185 0.01729186 0.00524588
v -0.01101617 0.01487142 0.00476141
v -0.01093563 0.01609372 0.00505009
v -0.01094887 0.01575871 0.00483430
v -0.01087715 0.01686491 0.00524588
v -0.01094004 0.01614347 0.00538593
v -0.01104155 0.01487142 0.00526446
f 1 2 8
f 1 8 14
f 1 14 21
f 1 21 26
f 1 26 30
f 1 30 34
f 1 34 38
f 1 38 45
f 1 45 48
f 1 48 47
f 1 47 52
f 1 52 55
f 1 55 60
f 1 60 65
f 1 65 74
f 1 74 77
f 1 77 79
f 1 79 83
f 1 83 88
f 1 88 87
f 1 87 93
f 1 93 98
f 1 98 103
f 1 103 106
f 1 106 110
f 1 110 112
f 1 112 117
f 1 117 123
f 1 123 122
f 1 122 127
f 1 127 131
f 1 131 136
f 1 136 142
f 1 142 146
f 1 146 152
f 1 152 158
f 1 158 164
f 1 164 171
f 1 171 176
f 1 176 181
f 1 181 188
f 1 188 187
f 1 187 195
f 1 195 202
f 1 202 213
f 1 213 220
f 1 220 231
f 1 231 239
f 1 239 245
f 1 245 244
f 1 244 252
f 1 252 262
f 1 262 270
f 1 270 276
f 1 276 288
f 1 288 297
f 1 297 304
f 1 304 314
f 1 314 323
f 1 323 329
f 1 329 336
f 1 336 345
f 1 345 353
f 1 353 348
f 1 348 340
f 1 340 339
f 1 339 333
f 1 333 332
f 1 332 326
f 1 326 325
f 1 325 315
f 1 315 305
f 1 305 298
f 1 298 290
f 1 290 289
f 1 289 277
f 1 277 271
f 1 271 264
f 1 264 263
f 1 263 253
f 1 253 246
f 1 246 240
f 1 240 232
f 1 232 223
f 1 223 222
f 1 222 221
f 1 221 214
f 1 214 205
f 1 205 204
f 1 204 197
f 1 197 189
f 1 189 182
f 1 182 177
f 1 177 172
f 1 172 165
f 1 165 159
f 1 159 153
f 1 153 149
f 1 149 144
f 1 144 139
f 1 139 138
f 1 138 137
f 1 137 133
f 1 133 132
f 1 132 128
f 1 128 124
f 1 124 119
f 1 119 118
f 1 118 114
f 1 114 113
f 1 113 108
f 1 108 104
f 1 104 101
f 1 101 99
f 1 99 94
f 1 94 89
f 1 89 84
f 1 84 80
f 1 80 75
f 1 75 69
f 1 69 68
f 1 68 67
f 1 67 66
f 1 66 62
f 1 62 61
f 1 61 57
f 1 57 53
f 1 53 49
f 1 49 43
f 1 43 42
f 1 42 41
f 1 41 40
f 1 40 36
f 1 36 32
f 1 32 28
f 1 28 24
f 1 24 23
f 1 23 22
f 1 22 15
f 1 15 9
f 1 9 3
f 1 3 4
f 1 4 5
f 1 5 6
f 1 6 7
f 1 7 2
f 2 7 8
f 3 9 10
f 3 10 4
f 4 10 19
f 4 19 18
f 4 18 17
f 4 17 16
f 4 16 25
f 4 25 29
f 4 29 33
f 4 33 37
f 4 37 44
f 4 44 50
f 4 50 54
f 4 54 58
f 4 58 63
f 4 63 70
f 4 70 76
f 4 76 81
f 4 81 85
f 4 85 90
f 4 90 96
f 4 96 100
f 4 100 105
f 4 105 109
f 4 109 115
f 4 115 120
f 4 120 125
f 4 125 129
f 4 129 134
f 4 134 140
f 4 140 145
f 4 145 150
f 4 150 155
f 4 155 154
f 4 154 161
f 4 161 160
f 4 160 167
f 4 167 173
f 4 173 178
f 4 178 185
f 4 185 190
f 4 190 199
f 4 199 207
f 4 207 217
f 4 217 216
f 4 216 215
f 4 215 227
f 4 227 234
f 4 234 241
f 4 241 248
f 4 248 257
f 4 257 267
f 4 267 272
f 4 272 283
f 4 283 293
f 4 293 301
f 4 301 308
f 4 308 318
f 4 318 319
f 4 319 328
f 4 328 335
f 4 335 342
f 4 342 347
f 4 347 338
f 4 338 330
f 4 330 324
f 4 324 312
f 4 312 303
f 4 303 302
f 4 302 296
f 4 296 286
f 4 286 295
f 4 295 294
f 4 294 284
f 4 284 275
f 4 275 273
f 4 273 268
f 4 268 259
f 4 259 258
f 4 258 250
f 4 250 249
f 4 249 242
f 4 242 235
f 4 235 228
f 4 228 218
f 4 218 208
f 4 208 200
f 4 200 193
f 4 193 186
f 4 186 179
f 4 179 175
f 4 175 174
f 4 174 168
f 4 168 162
f 4 162 157
f 4 157 156
f 4 156 151
f 4 151 148
f 4 148 147
f 4 147 143
f 4 143 141
f 4 141 135
f 4 135 130
f 4 130 126
f 4 126 121
f 4 121 116
f 4 116 111
f 4 111 107
f 4 107 102
f 4 102 97
f 4 97 92
f 4 92 91
f 4 91 86
f 4 86 82
f 4 82 78
f 4 78 73
f 4 73 72
f 4 72 71
f 4 71 64
f 4 64 59
f 4 59 56
f 4 56 51
f 4 51 46
f 4 46 39
f 4 39 35
f 4 35 31
f 4 31 27
f 4 27 20
f 4 20 13
f 4 13 12
f 4 12 11
f 4 11 7
f 4 7 6
f 4 6 5
f 7 11 8
f 8 11 12
f 8 12 13
f 8 13 14
f 9 15 16
f 9 16 17
f 9 17 18
f 9 18 19
f 9 19 10
f 13 20 14
f 14 20 21
f 15 22 16
f 16 22 23
f 16 23 24
f 16 24 25
f 20 26 21
f 20 27 26
f 24 28 29
f 24 29 25
f 26 27 30
f 27 31 30
f 28 32 33
f 28 33 29
f 30 31 34
f 31 35 34
f 32 36 37
f 32 37 33
f 34 35 38
f 35 39 38
f 36 40 37
f 37 40 41
f 37 41 42
f 37 42 43
f 37 43 44
f 38 39 45
f 39 46 47
f 39 47 48
f 39 48 45
f 43 49 44
f 44 49 50
f 46 51 52
f 46 52 47
f 49 53 54
f 49 54 50
f 51 55 52
f 51 56 55
f 53 57 54
f 54 57 58
f 55 56 59
f 55 59 60
f 57 61 58
f 58 62 63
f 58 61 62
f 59 64 60
f 60 64 65
f 62 66 63
f 63 66 67
f 63 67 68
f 63 68 69
f 63 69 70
f 64 71 65
f 65 71 72
f 65 72 73
f 65 73 74
f 69 75 76
f 69 76 70
f 73 77 74
f 73 78 79
f 73 79 77
f 75 80 76
f 76 80 81
f 78 82 79
f 79 82 83
f 80 84 81
f 81 84 85
f 82 86 87
f 82 87 88
f 82 88 83
f 84 89 85
f 85 89 90
f 86 91 87
f 87 91 92
f 87 92 93
f 89 94 90
f 90 94 95
f 90 95 96
f 92 97 93
f 93 97 98
f 94 99 95
f 95 99 96
f 96 99 101
f 96 101 100
f 97 102 103
f 97 103 98
f 100 101 104
f 100 104 105
f 102 106 103
f 102 107 106
f 104 108 109
f 104 109 105
f 106 107 110
f 107 111 112
f 107 112 110
f 108 113 109
f 109 114 115
f 109 113 114
f 111 116 112
f 112 116 117
f 114 118 115
f 115 118 119
f 115 119 120
f 116 121 122
f 116 122 123
f 116 123 117
f 119 124 120
f 120 124 125
f 121 126 122
f 122 126 127
f 124 128 125
f 125 128 129
f 126 130 127
f 127 130 131
f 128 132 129
f 129 132 133
f 129 133 134
f 130 135 136
f 130 136 131
f 133 137 134
f 134 137 138
f 134 138 139
f 134 139 140
f 135 141 136
f 136 141 143
f 136 143 142
f 139 144 145
f 139 145 140
f 142 143 147
f 142 147 148
f 142 148 146
f 144 149 150
f 144 150 145
f 146 148 151
f 146 151 152
f 149 153 154
f 149 154 155
f 149 155 150
f 151 156 152
f 152 156 157
f 152 157 158
f 153 159 160
f 153 160 161
f 153 161 154
f 157 162 158
f 158 162 163
f 158 163 164
f 159 165 160
f 160 165 166
f 160 166 167
f 162 168 164
f 162 164 163
f 164 168 169
f 164 169 170
f 164 170 171
f 165 172 166
f 166 172 167
f 167 172 173
f 168 174 169
f 169 174 171
f 169 171 170
f 171 174 175
f 171 175 176
f 172 177 178
f 172 178 173
f 175 179 180
f 175 180 181
f 175 181 176
f 177 182 183
f 177 183 184
f 177 184 178
f 178 184 185
f 179 186 187
f 179 187 188
f 179 188 181
f 179 181 180
f 182 189 190
f 182 190 191
f 182 191 185
f 182 185 184
f 182 184 183
f 185 191 190
f 186 192 187
f 186 193 194
f 186 194 192
f 187 192 195
f 189 196 190
f 189 197 196
f 190 196 198
f 190 198 199
f 192 194 195
f 193 200 201
f 193 201 194
f 194 201 195
f 195 201 202
f 196 203 198
f 196 197 204
f 196 204 205
f 196 205 206
f 196 206 207
f 196 207 203
f 198 203 199
f 199 203 207
f 200 208 209
f 200 209 210
f 200 210 211
f 200 211 212
f 200 212 202
f 200 202 201
f 202 212 213
f 205 214 206
f 206 214 215
f 206 215 216
f 206 216 217
f 206 217 207
f 208 218 219
f 208 219 209
f 209 219 220
f 209 220 210
f 210 220 211
f 211 220 213
f 211 213 212
f 214 221 215
f 215 221 222
f 215 222 223
f 215 223 224
f 215 224 225
f 215 225 226
f 215 226 227
f 218 228 229
f 218 229 230
f 218 230 231
f 218 231 219
f 219 231 220
f 223 232 224
f 224 232 225
f 225 232 226
f 226 232 233
f 226 233 227
f 227 233 234
f 228 235 236
f 228 236 229
f 229 236 243
f 229 243 237
f 229 237 238
f 229 238 239
f 229 239 230
f 230 239 231
f 232 240 233
f 233 240 241
f 233 241 234
f 235 242 236
f 236 242 243
f 237 243 244
f 237 244 238
f 238 244 245
f 238 245 239
f 240 246 247
f 240 247 241
f 241 247 248
f 242 249 243
f 243 249 244
f 244 249 250
f 244 250 251
f 244 251 252
f 246 253 247
f 247 253 254
f 247 254 255
f 247 255 256
f 247 256 248
f 248 256 257
f 250 258 251
f 251 258 252
f 252 258 259
f 252 259 260
f 252 260 261
f 252 261 262
f 253 263 254
f 254 263 255
f 255 263 256
f 256 263 264
f 256 264 257
f 257 264 265
f 257 265 266
f 257 266 267
f 259 268 260
f 260 268 261
f 261 268 269
f 261 269 270
f 261 270 262
f 264 271 265
f 265 271 266
f 266 271 267
f 267 271 272
f 268 273 269
f 269 273 274
f 269 274 270
f 270 274 275
f 270 275 276
f 271 277 278
f 271 278 279
f 271 279 272
f 272 279 280
f 272 280 281
f 272 281 282
f 272 282 283
f 273 275 274
f 275 284 276
f 276 284 285
f 276 285 286
f 276 286 287
f 276 287 288
f 277 289 278
f 278 280 279
f 278 289 290
f 278 290 280
f 280 290 281
f 281 290 291
f 281 291 292
f 281 292 293
f 281 293 282
f 282 293 283
f 284 294 285
f 285 294 295
f 285 295 286
f 286 296 287
f 287 296 297
f 287 297 288
f 290 298 293
f 290 293 291
f 291 293 292
f 293 298 299
f 293 299 300
f 293 300 301
f 296 302 297
f 297 302 303
f 297 303 304
f 298 305 306
f 298 306 307
f 298 307 299
f 299 307 300
f 300 307 308
f 300 308 301
f 303 309 310
f 303 310 311
f 303 311 304
f 303 312 309
f 304 311 310
f 304 310 313
f 304 313 314
f 305 315 306
f 306 315 316
f 306 316 317
f 306 317 307
f 307 318 308
f 307 317 319
f 307 319 318
f 309 312 320
f 309 320 321
f 309 321 322
f 309 322 323
f 309 323 310
f 310 323 313
f 312 324 320
f 313 323 314
f 315 325 316
f 316 325 326
f 316 326 317
f 317 326 327
f 317 327 328
f 317 328 319
f 320 324 329
f 320 329 321
f 321 329 322
f 322 329 323
f 324 330 331
f 324 331 329
f 326 332 327
f 327 332 333
f 327 333 334
f 327 334 335
f 327 335 328
f 329 331 336
f 330 337 331
f 330 338 337
f 331 337 336
f 333 339 334
f 334 339 340
f 334 340 341
f 334 341 342
f 334 342 335
f 336 337 343
f 336 343 344
f 336 344 345
f 337 338 346
f 337 346 343
f 338 347 351
f 338 351 346
f 340 348 349
f 340 349 350
f 340 350 341
f 341 350 349
f 341 349 342
f 342 349 347
f 343 346 351
f 343 351 352
f 343 352 353
f 343 353 344
f 344 353 345
f 347 349 351
f 348 353 349
f 349 353 352
f 349 352 351

