# https://github.com/mikedh/trimesh
v 0.00011853 0.00335028 0.00476603
v -0.00113494 0.00335028 0.00600971
v 0.00007444 0.00328966 0.00476603
v -0.01188123 0.00335028 0.00476603
v -0.00615838 -0.00074391 0.00600971
v -0.00009356 0.00311537 0.00476603
v -0.01191340 0.00335028 0.00600971
v -0.01200276 0.00129669 0.00476603
v -0.01194200 0.00251131 0.00502865
v -0.01189910 0.00335028 0.00524512
v -0.00629302 -0.00085217 0.00600971
v -0.00643957 -0.00096962 0.00600971
v -0.00664094 -0.00150115 0.00476603
v -0.01191340 0.00335028 0.00574795
v -0.01191578 0.00331835 0.00600971
v -0.01200395 0.00127287 0.00476603
v -0.01202302 0.00127287 0.00524512
v -0.01190148 0.00335028 0.00531062
v -0.00669098 -0.00112443 0.00600971
v -0.00719380 -0.00182267 0.00476603
v -0.01191817 0.00328425 0.00574795
v -0.01191817 0.00328425 0.00600971
v -0.01201945 0.00076949 0.00476603
v -0.01203970 0.00076949 0.00524512
v -0.01203851 0.00127287 0.00574795
v -0.01197893 0.00227856 0.00574795
v -0.01193842 0.00295136 0.00574795
v -0.00691261 -0.00124513 0.00600971
v -0.00715329 -0.00137612 0.00600971
v -0.00740470 -0.00149845 0.00600971
v -0.00753100 -0.00153309 0.00600971
v -0.00766803 -0.00157044 0.00600971
v -0.00790871 -0.00163485 0.00600971
v -0.00817085 -0.00170467 0.00600971
v -0.00766803 -0.00193363 0.00476603
v -0.01193842 0.00295028 0.00600971
v -0.01198370 0.00044040 0.00476603
v -0.01205400 0.00076949 0.00574795
v -0.01199204 0.00039763 0.00524512
v -0.01203851 0.00127287 0.00600971
v -0.01200872 0.00177572 0.00600971
v -0.01199323 0.00203715 0.00600971
v -0.00841153 -0.00175122 0.00600971
v -0.00817085 -0.00203864 0.00476603
v -0.01198132 0.00042307 0.00476603
v -0.01199800 0.00037923 0.00574795
v -0.01199681 0.00037869 0.00600971
v -0.01205281 0.00076949 0.00600971
v -0.01204566 0.00103147 0.00600971
v -0.01186812 0.00017138 0.00476603
v -0.01187765 0.00014594 0.00524512
v -0.01188838 0.00012808 0.00574795
v -0.00867367 -0.00180156 0.00600971
v -0.00867367 -0.00213282 0.00476603
v -0.01188957 0.00012700 0.00600971
v -0.01194200 0.00024770 0.00600971
v -0.01162863 -0.00020859 0.00476603
v -0.01161552 -0.00022862 0.00476603
v -0.01164531 -0.00023566 0.00574795
v -0.00917649 -0.00184865 0.00600971
v -0.00917649 -0.00217937 0.00476603
v -0.01177280 -0.00004729 0.00600971
v -0.01143322 -0.00047815 0.00476603
v -0.01144871 -0.00049872 0.00574795
v -0.01155237 -0.00036177 0.00600971
v -0.01164650 -0.00023566 0.00600971
v -0.00941837 -0.00185407 0.00600971
v -0.00967931 -0.00185948 0.00600971
v -0.00969480 -0.00208357 0.00476603
v -0.01122947 -0.00073633 0.00476603
v -0.01144871 -0.00049926 0.00600971
v -0.01098283 -0.00103891 0.00476603
v -0.01124258 -0.00074987 0.00574795
v -0.00992118 -0.00179561 0.00600971
v -0.01018213 -0.00172632 0.00600971
v -0.01033226 -0.00164026 0.00600971
v -0.01049430 -0.00154662 0.00600971
v -0.01015710 -0.00180319 0.00476603
v -0.01124139 -0.00075095 0.00600971
v -0.01074452 -0.00129060 0.00476603
v -0.01098759 -0.00104324 0.00524512
v -0.01099117 -0.00104594 0.00574795
v -0.01112104 -0.00089276 0.00600971
v -0.01062537 -0.00141672 0.00600971
v -0.01074691 -0.00129764 0.00574795
v -0.01049550 -0.00154662 0.00574795
v -0.01049311 -0.00154662 0.00476603
v -0.01074571 -0.00129493 0.00524512
v -0.01050503 -0.00153471 0.00476603
v -0.01086367 -0.00117639 0.00600971
v -0.01098997 -0.00104540 0.00600971
v -0.01074571 -0.00129710 0.00600971
f 1 2 3
f 1 3 6
f 1 6 13
f 1 13 20
f 1 20 35
f 1 35 44
f 1 44 54
f 1 54 61
f 1 61 69
f 1 69 78
f 1 78 87
f 1 87 89
f 1 89 80
f 1 80 72
f 1 72 70
f 1 70 63
f 1 63 58
f 1 58 57
f 1 57 50
f 1 50 45
f 1 45 37
f 1 37 23
f 1 23 16
f 1 16 8
f 1 8 4
f 1 4 10
f 1 10 18
f 1 18 14
f 1 14 7
f 1 7 2
f 2 5 6
f 2 6 3
f 2 7 15
f 2 15 22
f 2 22 36
f 2 36 42
f 2 42 41
f 2 41 40
f 2 40 49
f 2 49 48
f 2 48 47
f 2 47 56
f 2 56 55
f 2 55 62
f 2 62 66
f 2 66 65
f 2 65 71
f 2 71 79
f 2 79 83
f 2 83 91
f 2 91 90
f 2 90 92
f 2 92 84
f 2 84 77
f 2 77 76
f 2 76 75
f 2 75 74
f 2 74 68
f 2 68 67
f 2 67 60
f 2 60 53
f 2 53 43
f 2 43 34
f 2 34 33
f 2 33 32
f 2 32 31
f 2 31 30
f 2 30 29
f 2 29 28
f 2 28 19
f 2 19 12
f 2 12 11
f 2 11 5
f 4 8 9
f 4 9 10
f 5 11 6
f 6 11 12
f 6 12 13
f 7 14 15
f 8 16 17
f 8 17 9
f 9 17 18
f 9 18 10
f 12 19 13
f 13 19 20
f 14 21 15
f 14 18 21
f 15 21 22
f 16 23 24
f 16 24 17
f 17 24 25
f 17 25 26
f 17 26 18
f 18 26 27
f 18 27 21
f 19 28 20
f 20 28 29
f 20 29 30
f 20 30 31
f 20 31 32
f 20 32 33
f 20 33 34
f 20 34 35
f 21 27 22
f 22 27 36
f 23 37 24
f 24 38 25
f 24 37 39
f 24 39 38
f 25 38 40
f 25 40 41
f 25 41 26
f 26 41 42
f 26 42 36
f 26 36 27
f 34 43 44
f 34 44 35
f 37 45 39
f 38 46 47
f 38 47 48
f 38 48 49
f 38 49 40
f 38 39 46
f 39 45 50
f 39 50 51
f 39 51 52
f 39 52 46
f 43 53 44
f 44 53 54
f 46 52 55
f 46 55 56
f 46 56 47
f 50 57 51
f 51 57 52
f 52 57 58
f 52 58 59
f 52 59 55
f 53 60 54
f 54 60 61
f 55 59 62
f 58 63 59
f 59 63 64
f 59 64 65
f 59 65 66
f 59 66 62
f 60 67 61
f 61 67 68
f 61 68 69
f 63 70 64
f 64 71 65
f 64 70 72
f 64 72 73
f 64 73 71
f 68 74 69
f 69 74 75
f 69 75 76
f 69 76 77
f 69 77 78
f 71 73 79
f 72 80 81
f 72 81 73
f 73 82 83
f 73 83 79
f 73 81 82
f 77 84 85
f 77 85 86
f 77 86 78
f 78 86 87
f 80 88 82
f 80 82 81
f 80 89 88
f 82 88 85
f 82 85 90
f 82 90 91
f 82 91 83
f 84 92 85
f 85 88 89
f 85 89 87
f 85 87 86
f 85 92 90

