# https://github.com/mikedh/trimesh
v 0.00081029 0.01277998 0.00574893
v 0.00078554 0.01277998 0.00524640
v 0.00060527 0.01350613 0.00574893
v 0.00060527 0.01350633 0.00625003
v 0.00079261 0.01284140 0.00625003
v 0.00080911 0.01277998 0.00625003
v 0.00059231 0.01346068 0.00524640
v 0.00050866 0.01384699 0.00574893
v 0.00074548 0.01277998 0.00480992
v 0.00064651 0.01314930 0.00484438
v 0.00050866 0.01384699 0.00625003
v 0.00059231 0.01346109 0.00675256
v 0.00076787 0.01284140 0.00675256
v 0.00080675 0.01277998 0.00631177
v 0.00019054 0.01487121 0.00524353
v 0.00019171 0.01487121 0.00526507
v 0.00022117 0.01485299 0.00574893
v 0.00021763 0.01487121 0.00621988
v 0.00073606 0.01277998 0.00471085
v 0.00070542 0.01288766 0.00470367
v 0.00062884 0.01308604 0.00450840
v 0.00014694 0.01487121 0.00474243
v 0.00015637 0.01487121 0.00484581
v 0.00021763 0.01487121 0.00625003
v 0.00019171 0.01487121 0.00676118
v 0.00064651 0.01314950 0.00715028
v 0.00077965 0.01277998 0.00681430
v 0.00078436 0.01277998 0.00675256
v 0.00020467 0.01487121 0.00552638
v 0.00021528 0.01487121 0.00574893
v 0.00067832 0.01277998 0.00425139
v 0.00000555 0.01487121 0.00371870
v 0.00007507 0.01487121 0.00419683
v 0.00014812 0.01487121 0.00725653
v 0.00073606 0.01277998 0.00728668
v 0.00067597 0.01277998 0.00423990
v -0.00008282 0.01487121 0.00323340
v 0.00008096 0.01487121 0.00778204
v 0.00062766 0.01308420 0.00748626
v 0.00067597 0.01277998 0.00775906
v 0.00063473 0.01277998 0.00405325
v -0.00019121 0.01487121 0.00273087
v -0.00008635 0.01487121 0.00321617
v 0.00001027 0.01487121 0.00826159
v -0.00007692 0.01487121 0.00874690
v -0.00008046 0.01487121 0.00876556
v -0.00018414 0.01487121 0.00924943
v -0.00018886 0.01487121 0.00926810
v -0.00031964 0.01487121 0.00977206
v -0.00033731 0.01487121 0.00982806
v -0.00036795 0.01465093 0.01004343
v -0.00034438 0.01434999 0.01012096
v -0.00043157 0.01434999 0.01037223
v -0.00064837 0.01277998 0.01127679
v -0.00043275 0.01434999 0.00163104
v -0.00034556 0.01434999 0.00188231
v -0.00038798 0.01487121 0.00201871
v -0.00032789 0.01487121 0.00220967
v -0.00032082 0.01487121 0.00223264
v -0.00064719 0.01277998 0.00072218
v -0.00044807 0.01487121 0.01016691
v -0.00047281 0.01487121 0.01023870
v -0.00068607 0.01487121 0.01077713
v -0.00060359 0.01434999 0.01077713
v -0.00075441 0.01384699 0.01121792
v -0.00082981 0.01277998 0.01158549
v -0.00047635 0.01487121 0.00176170
v -0.00060595 0.01434999 0.00122184
v -0.00068843 0.01487121 0.00122184
v -0.00079682 0.01277998 0.00045655
v -0.00075559 0.01384699 0.00078104
v -0.00083571 0.01487121 0.01110306
v -0.00098181 0.01487121 0.01134571
v -0.00123866 0.01487121 0.01170897
v -0.00145310 0.01487121 0.01196023
v -0.00107960 0.01277998 0.01183675
v -0.00098770 0.01487121 0.01135432
v -0.00083571 0.01487121 0.00089591
v -0.00082864 0.01277998 0.00041204
v -0.00099712 0.01487121 0.00063028
v -0.00098770 0.01487121 0.00064464
v -0.00170406 0.01487121 0.01218422
v -0.00133056 0.01277998 0.01207653
v -0.00124691 0.01487121 0.00028282
v -0.00104661 0.01277998 0.00019093
v -0.00145428 0.01487121 0.00004017
v -0.00203043 0.01487121 0.01242687
v -0.00204222 0.01485299 0.01243692
v -0.00163337 0.01277998 0.01228760
v -0.00129875 0.01277998 -0.00005029
v -0.00146370 0.01487121 0.00003155
v -0.00204222 0.01487121 0.01243548
v -0.00196092 0.01277998 0.01249866
v -0.00228375 0.01487121 0.01258481
v -0.00132939 0.01277998 -0.00007757
v -0.00170642 0.01487121 -0.00018382
v -0.00229318 0.01487121 0.01259055
v -0.00221306 0.01277998 0.01261927
v -0.00159213 0.01277998 -0.00026135
v -0.00204339 0.01487121 -0.00043508
v -0.00262662 0.01487121 0.01274275
v -0.00263958 0.01487121 0.01274849
v -0.00226844 0.01277998 0.01264224
v -0.00163337 0.01277998 -0.00028863
v -0.00192675 0.01277998 -0.00047529
v -0.00196328 0.01277998 -0.00049826
v -0.00229554 0.01487121 -0.00059302
v -0.00263958 0.01277998 0.01279443
v -0.00314151 0.01487121 0.01292653
v -0.00218360 0.01277998 -0.00060594
v -0.00230732 0.01487121 -0.00059877
v -0.00314151 0.01277998 0.01294807
v -0.00350205 0.01487121 0.01301986
v -0.00350087 0.01485299 0.01301986
v -0.00221424 0.01277998 -0.00061887
v -0.00263958 0.01487121 -0.00075096
v -0.00346906 0.01277998 0.01302560
v -0.00374359 0.01487121 0.01306580
v -0.00414772 0.01277998 0.01315769
v -0.00349969 0.01277998 0.01303278
v -0.00258420 0.01277998 -0.00076963
v -0.00265725 0.01487121 -0.00075814
v -0.00414772 0.01487121 0.01313041
v -0.00465082 0.01277998 0.01323236
v -0.00263958 0.01277998 -0.00079116
v -0.00314151 0.01487121 -0.00092469
v -0.00463315 0.01487121 0.01319072
v -0.00515393 0.01485299 0.01324528
v -0.00515393 0.01277998 0.01328404
v -0.00314151 0.01277998 -0.00094623
v -0.00315683 0.01487121 -0.00092900
v -0.00513508 0.01487121 0.01324241
v -0.00563701 0.01487121 0.01328117
v -0.00565586 0.01487121 0.01328261
v -0.00565586 0.01284140 0.01331994
v -0.00521402 0.01277998 0.01328835
v -0.00343489 0.01277998 -0.00101802
v -0.00353739 0.01487121 -0.00101802
v -0.00615896 0.01487121 0.01329984
v -0.00615896 0.01277998 0.01333430
v -0.00565586 0.01277998 0.01331994
v -0.00347259 0.01277998 -0.00102664
v -0.00380250 0.01487121 -0.00106110
v -0.00372356 0.01277998 -0.00107545
v -0.00409352 0.01277998 -0.00114724
v -0.00414772 0.01277998 -0.00115729
v -0.00666207 0.01487121 0.01328979
v -0.00666207 0.01434999 0.01329840
v -0.00666207 0.01277998 0.01332425
v -0.00414772 0.01487121 -0.00111709
v -0.00458956 0.01277998 -0.00122334
v -0.00716517 0.01334419 0.01326538
v -0.00716517 0.01277998 0.01327543
v -0.00672334 0.01277998 0.01331850
v -0.00716517 0.01487121 0.01323810
v -0.00465082 0.01487121 -0.00118888
v -0.00465082 0.01277998 -0.00123196
v -0.00766710 0.01277998 0.01317492
v -0.00766946 0.01487121 0.01312754
v -0.00766710 0.01485299 0.01312898
v -0.00515393 0.01487121 -0.00124488
v -0.00509266 0.01277998 -0.00127790
v -0.00771305 0.01277998 0.01316200
v -0.00793810 0.01487121 0.01304857
v -0.00795695 0.01434999 0.01305575
v -0.00801821 0.01277998 0.01307585
v -0.00515393 0.01277998 -0.00128364
v -0.00517278 0.01487121 -0.00124631
v -0.00818788 0.01487121 0.01293945
v -0.00819024 0.01485299 0.01293945
v -0.00826918 0.01277998 0.01298109
v -0.00804885 0.01277998 0.01306437
v -0.00559459 0.01277998 -0.00131667
v -0.00565586 0.01487121 -0.00128221
v -0.00868509 0.01487121 0.01267670
v -0.00867331 0.01434999 0.01270972
v -0.00867331 0.01334419 0.01275854
v -0.00867331 0.01277998 0.01278438
v -0.00565586 0.01277998 -0.00132098
v -0.00615896 0.01485299 -0.00129944
v -0.00615896 0.01487121 -0.00129800
v -0.00871455 0.01487121 0.01266091
v -0.00900086 0.01284140 0.01259055
v -0.00871573 0.01277998 0.01275998
v -0.00609770 0.01277998 -0.00133246
v -0.00615896 0.01277998 -0.00133390
v -0.00666207 0.01487121 -0.00128939
v -0.00617664 0.01487121 -0.00129800
v -0.00892192 0.01487121 0.01253455
v -0.00893017 0.01466547 0.01254173
v -0.00898083 0.01334419 0.01257763
v -0.00903385 0.01277998 0.01256901
v -0.00900322 0.01277998 0.01259199
v -0.00660080 0.01277998 -0.00132528
v -0.00667974 0.01487121 -0.00128795
v -0.00666207 0.01434999 -0.00129800
v -0.00908923 0.01487121 0.01238954
v -0.00923297 0.01334419 0.01237518
v -0.00925183 0.01284140 0.01239385
v -0.00925418 0.01277998 0.01239528
v -0.00666207 0.01277998 -0.00132385
v -0.00710391 0.01277998 -0.00128364
v -0.00716517 0.01277998 -0.00127790
v -0.00716517 0.01334419 -0.00126785
v -0.00716517 0.01485299 -0.00123914
v -0.00716517 0.01487121 -0.00123770
v -0.00944623 0.01487121 0.01206935
v -0.00945448 0.01485299 0.01206361
v -0.00919409 0.01434999 0.01233498
v -0.00949336 0.01384699 0.01210381
v -0.00953578 0.01277998 0.01214401
v -0.00928835 0.01277998 0.01236513
v -0.00766710 0.01277998 -0.00118170
v -0.00766710 0.01334419 -0.00116878
v -0.00766710 0.01485299 -0.00113001
v -0.00766946 0.01487121 -0.00112858
v -0.00945330 0.01487121 0.01206217
v -0.00967128 0.01487121 0.01178506
v -0.00998233 0.01284140 0.01160272
v -0.00981149 0.01277998 0.01182670
v -0.00978439 0.01284140 0.01185398
v -0.00978674 0.01277998 0.01185685
v -0.00956641 0.01277998 0.01210956
v -0.00798169 0.01277998 -0.00109412
v -0.00802411 0.01284140 -0.00108120
v -0.00768124 0.01487121 -0.00112571
v -0.00988807 0.01487121 0.01149359
v -0.00993049 0.01409000 0.01153093
v -0.01018852 0.01277998 0.01127966
v -0.01001179 0.01277998 0.01156251
v -0.00998469 0.01277998 0.01160559
v -0.00802764 0.01277998 -0.00108120
v -0.00827860 0.01277998 -0.00098500
v -0.00796284 0.01434999 -0.00105822
v -0.00794163 0.01487121 -0.00104961
v -0.00989868 0.01487121 0.01147924
v -0.01004360 0.01487121 0.01123802
v -0.01038529 0.01277998 0.01092358
v -0.00867331 0.01277998 -0.00078686
v -0.00867331 0.01284140 -0.00078542
v -0.00825622 0.01334419 -0.00097495
v -0.00794870 0.01487121 -0.00104674
v -0.01026982 0.01487121 0.01079292
v -0.01038293 0.01284140 0.01091784
v -0.01039942 0.01277998 0.01089343
v -0.00895962 0.01277998 -0.00061743
v -0.00900086 0.01277998 -0.00059302
v -0.00899968 0.01284140 -0.00059159
v -0.00867331 0.01384699 -0.00074378
v -0.00821498 0.01434999 -0.00095628
v -0.00819142 0.01487121 -0.00094623
v -0.01027689 0.01487121 0.01077713
v -0.01027924 0.01485299 0.01077713
v -0.01049840 0.01284140 0.01066657
v -0.01050075 0.01277998 0.01067231
v -0.00925300 0.01277998 -0.00039632
v -0.00898201 0.01334419 -0.00058010
v -0.00894784 0.01434999 -0.00055569
v -0.00867331 0.01434999 -0.00072081
v -0.00821145 0.01487121 -0.00093618
v -0.01040532 0.01487121 0.01047417
v -0.01041239 0.01485299 0.01046269
v -0.01042652 0.01451295 0.01050432
v -0.01044066 0.01417782 0.01054022
v -0.01064685 0.01284140 0.01027460
v -0.01065157 0.01277998 0.01027460
v -0.00953814 0.01277998 -0.00014505
v -0.00925065 0.01284140 -0.00039488
v -0.00893488 0.01473487 -0.00054564
v -0.00873812 0.01487121 -0.00065763
v -0.00871102 0.01487121 -0.00067343
v -0.00852014 0.01487121 -0.00077393
v -0.01041121 0.01487121 0.01045981
v -0.01049368 0.01487121 0.01021860
v -0.01081063 0.01277998 0.00976632
v -0.00978910 0.01277998 0.00013637
v -0.00953578 0.01284140 -0.00014361
v -0.00919998 0.01434999 -0.00033745
v -0.00912811 0.01487121 -0.00036473
v -0.00911633 0.01487121 -0.00037478
v -0.01063271 0.01487121 0.00977063
v -0.01082241 0.01277998 0.00972325
v -0.00996583 0.01277998 0.00035748
v -0.00945684 0.01485299 -0.00006608
v -0.00951575 0.01334419 -0.00012495
v -0.00945566 0.01487121 -0.00006465
v -0.01075525 0.01487121 0.00926810
v -0.01090960 0.01277998 0.00938152
v -0.00999058 0.01277998 0.00038907
v -0.00998822 0.01284140 0.00039194
v -0.00967835 0.01487121 0.00021390
v -0.00946155 0.01487121 -0.00005747
v -0.01084951 0.01487121 0.00876556
v -0.01094377 0.01316609 0.00904842
v -0.01084244 0.01384699 0.00926810
v -0.01090724 0.01284140 0.00936860
v -0.01091431 0.01277998 0.00935855
v -0.01019677 0.01277998 0.00071930
v -0.00994698 0.01384699 0.00044650
v -0.00993402 0.01414179 0.00046230
v -0.00991988 0.01447712 0.00048383
v -0.00990457 0.01485299 0.00050968
v -0.00990339 0.01487121 0.00051111
v -0.01089782 0.01435224 0.00873972
v -0.01092020 0.01487121 0.00828457
v -0.01093081 0.01452134 0.00845256
v -0.01094377 0.01418601 0.00855450
v -0.01102035 0.01284140 0.00876556
v -0.01095909 0.01277998 0.00913600
v -0.01039000 0.01277998 0.00106677
v -0.01019205 0.01284140 0.00071930
v -0.00990928 0.01487121 0.00051973
v -0.01096969 0.01487121 0.00783372
v -0.01110401 0.01277998 0.00820129
v -0.01109223 0.01284140 0.00826159
v -0.01103449 0.01277998 0.00870382
v -0.01102507 0.01277998 0.00876556
v -0.01048897 0.01277998 0.00128788
v -0.01045834 0.01384699 0.00141854
v -0.01034523 0.01384699 0.00116728
v -0.01028278 0.01487121 0.00122184
v -0.01005067 0.01487121 0.00076238
v -0.01015082 0.01334419 0.00071930
v -0.01097322 0.01487121 0.00779639
v -0.01106277 0.01384699 0.00775906
v -0.01114642 0.01284140 0.00775906
v -0.01109694 0.01277998 0.00826159
v -0.01115114 0.01277998 0.00775906
v -0.01050193 0.01277998 0.00131804
v -0.01049957 0.01284140 0.00132378
v -0.01047837 0.01334419 0.00136973
v -0.01044302 0.01420423 0.00145300
v -0.01065274 0.01277998 0.00172437
v -0.01042888 0.01453956 0.00148890
v -0.01041474 0.01487121 0.00153054
v -0.01101682 0.01487121 0.00725653
v -0.01102035 0.01434999 0.00775906
v -0.01114289 0.01334419 0.00725653
v -0.01118413 0.01284140 0.00725653
v -0.01115585 0.01277998 0.00769732
v -0.01078942 0.01277998 0.00216660
v -0.01080356 0.01284140 0.00222834
v -0.01049840 0.01487121 0.00178180
v -0.01056438 0.01384699 0.00172437
v -0.01103685 0.01487121 0.00675256
v -0.01108044 0.01434999 0.00675256
v -0.01116410 0.01334419 0.00675256
v -0.01118884 0.01277998 0.00725653
v -0.01120534 0.01284140 0.00675256
v -0.01080945 0.01277998 0.00223264
v -0.01063271 0.01487121 0.00222834
v -0.01090253 0.01277998 0.00258872
v -0.01105217 0.01487121 0.00626870
v -0.01105452 0.01485299 0.00625003
v -0.01122654 0.01277998 0.00625003
v -0.01121240 0.01277998 0.00669226
v -0.01121005 0.01277998 0.00675256
v -0.01090960 0.01277998 0.00261600
v -0.01063743 0.01487121 0.00224700
v -0.01105334 0.01487121 0.00576760
v -0.01105334 0.01487121 0.00574893
v -0.01122065 0.01284140 0.00574893
v -0.01122537 0.01277998 0.00574893
v -0.01095202 0.01277998 0.00282850
v -0.01075525 0.01487121 0.00273087
v -0.01104156 0.01487121 0.00526363
v -0.01104274 0.01485299 0.00524640
v -0.01122419 0.01277998 0.00568719
v -0.01102389 0.01277998 0.00323340
v -0.01101917 0.01284140 0.00323340
v -0.01095673 0.01284140 0.00288163
v -0.01094259 0.01316465 0.00295198
v -0.01092845 0.01349999 0.00302952
v -0.01085069 0.01485299 0.00323340
v -0.01085187 0.01487121 0.00325207
v -0.01101682 0.01487121 0.00476110
v -0.01121005 0.01277998 0.00518466
v -0.01120769 0.01284140 0.00524640
v -0.01105923 0.01434999 0.00474243
v -0.01118413 0.01284140 0.00474243
v -0.01121240 0.01277998 0.00524640
v -0.01109812 0.01277998 0.00373737
v -0.01094377 0.01417536 0.00344734
v -0.01089782 0.01434569 0.00326068
v -0.01091431 0.01384699 0.00311423
v -0.01092963 0.01451070 0.00354784
v -0.01091785 0.01487121 0.00370291
v -0.01101564 0.01487121 0.00474100
v -0.01118884 0.01277998 0.00474243
v -0.01106041 0.01384699 0.00423990
v -0.01114407 0.01284140 0.00423990
v -0.01118413 0.01277998 0.00468213
v -0.01114289 0.01277998 0.00417816
v -0.01094966 0.01475718 0.00388239
v -0.01100857 0.01384699 0.00373737
v -0.01096498 0.01434569 0.00372301
v -0.01092374 0.01487121 0.00375173
v -0.01099679 0.01487121 0.00450983
v -0.01096615 0.01487121 0.00414083
v -0.01114878 0.01277998 0.00423990
f 1 2 3
f 1 3 4
f 1 4 5
f 1 5 6
f 1 6 14
f 1 14 28
f 1 28 27
f 1 27 35
f 1 35 40
f 1 40 54
f 1 54 66
f 1 66 76
f 1 76 83
f 1 83 89
f 1 89 93
f 1 93 98
f 1 98 103
f 1 103 108
f 1 108 112
f 1 112 117
f 1 117 120
f 1 120 119
f 1 119 124
f 1 124 129
f 1 129 136
f 1 136 141
f 1 141 140
f 1 140 149
f 1 149 154
f 1 154 153
f 1 153 158
f 1 158 163
f 1 163 166
f 1 166 172
f 1 172 171
f 1 171 178
f 1 178 184
f 1 184 193
f 1 193 192
f 1 192 200
f 1 200 212
f 1 212 211
f 1 211 223
f 1 223 222
f 1 222 220
f 1 220 231
f 1 231 230
f 1 230 229
f 1 229 238
f 1 238 245
f 1 245 255
f 1 255 266
f 1 266 275
f 1 275 282
f 1 282 288
f 1 288 297
f 1 297 309
f 1 309 317
f 1 317 316
f 1 316 327
f 1 327 314
f 1 314 328
f 1 328 340
f 1 340 348
f 1 348 357
f 1 357 356
f 1 356 355
f 1 355 363
f 1 363 368
f 1 368 381
f 1 381 377
f 1 377 389
f 1 389 392
f 1 392 400
f 1 400 393
f 1 393 382
f 1 382 369
f 1 369 364
f 1 364 358
f 1 358 352
f 1 352 350
f 1 350 341
f 1 341 333
f 1 333 329
f 1 329 318
f 1 318 310
f 1 310 298
f 1 298 289
f 1 289 283
f 1 283 276
f 1 276 267
f 1 267 256
f 1 256 247
f 1 247 246
f 1 246 239
f 1 239 233
f 1 233 232
f 1 232 224
f 1 224 213
f 1 213 203
f 1 203 202
f 1 202 201
f 1 201 194
f 1 194 186
f 1 186 185
f 1 185 179
f 1 179 173
f 1 173 167
f 1 167 162
f 1 162 157
f 1 157 151
f 1 151 146
f 1 146 145
f 1 145 144
f 1 144 142
f 1 142 137
f 1 137 130
f 1 130 125
f 1 125 121
f 1 121 115
f 1 115 110
f 1 110 106
f 1 106 105
f 1 105 104
f 1 104 99
f 1 99 95
f 1 95 90
f 1 90 85
f 1 85 79
f 1 79 70
f 1 70 60
f 1 60 41
f 1 41 36
f 1 36 31
f 1 31 19
f 1 19 9
f 1 9 2
f 2 7 8
f 2 8 3
f 2 9 10
f 2 10 7
f 3 8 4
f 4 11 12
f 4 12 13
f 4 13 5
f 4 8 11
f 5 13 14
f 5 14 6
f 7 15 16
f 7 16 8
f 7 10 15
f 8 16 17
f 8 17 18
f 8 18 24
f 8 24 11
f 9 19 10
f 10 19 20
f 10 20 21
f 10 21 22
f 10 22 23
f 10 23 15
f 11 24 25
f 11 25 12
f 12 25 26
f 12 26 13
f 13 26 27
f 13 27 28
f 13 28 14
f 15 23 22
f 15 22 33
f 15 33 32
f 15 32 37
f 15 37 43
f 15 43 42
f 15 42 59
f 15 59 58
f 15 58 57
f 15 57 67
f 15 67 69
f 15 69 78
f 15 78 81
f 15 81 80
f 15 80 84
f 15 84 86
f 15 86 91
f 15 91 96
f 15 96 100
f 15 100 107
f 15 107 111
f 15 111 116
f 15 116 122
f 15 122 126
f 15 126 131
f 15 131 138
f 15 138 143
f 15 143 150
f 15 150 156
f 15 156 161
f 15 161 168
f 15 168 174
f 15 174 181
f 15 181 188
f 15 188 187
f 15 187 195
f 15 195 206
f 15 206 216
f 15 216 226
f 15 226 235
f 15 235 242
f 15 242 251
f 15 251 260
f 15 260 272
f 15 272 271
f 15 271 270
f 15 270 280
f 15 280 279
f 15 279 286
f 15 286 292
f 15 292 291
f 15 291 303
f 15 303 312
f 15 312 322
f 15 322 321
f 15 321 335
f 15 335 343
f 15 343 351
f 15 351 359
f 15 359 365
f 15 365 375
f 15 375 387
f 15 387 397
f 15 397 399
f 15 399 398
f 15 398 388
f 15 388 376
f 15 376 366
f 15 366 361
f 15 361 360
f 15 360 353
f 15 353 345
f 15 345 336
f 15 336 324
f 15 324 313
f 15 313 305
f 15 305 293
f 15 293 287
f 15 287 281
f 15 281 274
f 15 274 273
f 15 273 261
f 15 261 252
f 15 252 243
f 15 243 237
f 15 237 236
f 15 236 227
f 15 227 218
f 15 218 217
f 15 217 207
f 15 207 197
f 15 197 189
f 15 189 182
f 15 182 175
f 15 175 169
f 15 169 164
f 15 164 159
f 15 159 155
f 15 155 147
f 15 147 139
f 15 139 134
f 15 134 133
f 15 133 132
f 15 132 127
f 15 127 123
f 15 123 118
f 15 118 113
f 15 113 109
f 15 109 102
f 15 102 101
f 15 101 97
f 15 97 94
f 15 94 92
f 15 92 87
f 15 87 82
f 15 82 75
f 15 75 74
f 15 74 77
f 15 77 73
f 15 73 72
f 15 72 63
f 15 63 62
f 15 62 61
f 15 61 50
f 15 50 49
f 15 49 48
f 15 48 47
f 15 47 46
f 15 46 45
f 15 45 44
f 15 44 38
f 15 38 34
f 15 34 25
f 15 25 24
f 15 24 18
f 15 18 30
f 15 30 29
f 15 29 16
f 16 29 17
f 17 29 30
f 17 30 18
f 19 31 21
f 19 21 20
f 21 31 32
f 21 32 33
f 21 33 22
f 25 34 26
f 26 34 35
f 26 35 27
f 31 36 43
f 31 43 37
f 31 37 32
f 34 38 39
f 34 39 35
f 35 39 40
f 36 41 42
f 36 42 43
f 38 40 39
f 38 44 40
f 40 44 45
f 40 45 46
f 40 46 47
f 40 47 48
f 40 48 49
f 40 49 50
f 40 50 51
f 40 51 52
f 40 52 53
f 40 53 54
f 41 55 56
f 41 56 57
f 41 57 58
f 41 58 59
f 41 59 42
f 41 60 55
f 50 61 51
f 51 61 62
f 51 62 53
f 51 53 52
f 53 62 63
f 53 63 64
f 53 64 54
f 54 64 65
f 54 65 66
f 55 67 56
f 55 60 68
f 55 68 69
f 55 69 67
f 56 67 57
f 60 70 71
f 60 71 68
f 63 72 64
f 64 72 65
f 65 72 73
f 65 73 66
f 66 74 75
f 66 75 76
f 66 73 77
f 66 77 74
f 68 71 78
f 68 78 69
f 70 79 80
f 70 80 81
f 70 81 71
f 71 81 78
f 75 82 83
f 75 83 76
f 79 84 80
f 79 85 86
f 79 86 84
f 82 87 83
f 83 87 88
f 83 88 89
f 85 90 86
f 86 90 91
f 87 92 88
f 88 93 89
f 88 92 94
f 88 94 93
f 90 95 91
f 91 95 96
f 93 94 97
f 93 97 98
f 95 99 100
f 95 100 96
f 97 101 98
f 98 101 102
f 98 102 103
f 99 104 100
f 100 104 105
f 100 105 106
f 100 106 107
f 102 108 103
f 102 109 108
f 106 110 107
f 107 110 111
f 108 109 112
f 109 113 114
f 109 114 112
f 110 115 116
f 110 116 111
f 112 114 117
f 113 118 114
f 114 118 119
f 114 119 120
f 114 120 117
f 115 121 116
f 116 121 122
f 118 123 119
f 119 123 124
f 121 125 122
f 122 125 126
f 123 127 124
f 124 127 128
f 124 128 129
f 125 130 126
f 126 130 131
f 127 132 128
f 128 132 133
f 128 133 134
f 128 134 129
f 129 134 135
f 129 135 136
f 130 137 131
f 131 137 138
f 134 139 135
f 135 139 140
f 135 140 141
f 135 141 136
f 137 142 138
f 138 142 144
f 138 144 145
f 138 145 146
f 138 146 143
f 139 147 148
f 139 148 140
f 140 148 149
f 143 146 150
f 146 151 150
f 147 152 153
f 147 153 154
f 147 154 148
f 147 155 152
f 148 154 149
f 150 151 156
f 151 157 156
f 152 155 158
f 152 158 153
f 155 159 160
f 155 160 158
f 156 157 161
f 157 162 161
f 158 160 163
f 159 164 160
f 160 164 165
f 160 165 166
f 160 166 163
f 161 162 167
f 161 167 168
f 164 169 170
f 164 170 171
f 164 171 172
f 164 172 166
f 164 166 165
f 167 173 168
f 168 173 174
f 169 175 170
f 170 175 176
f 170 176 177
f 170 177 178
f 170 178 171
f 173 179 174
f 174 179 180
f 174 180 181
f 175 182 176
f 176 182 177
f 177 182 183
f 177 183 184
f 177 184 178
f 179 185 180
f 180 185 186
f 180 186 187
f 180 187 188
f 180 188 181
f 182 189 190
f 182 190 191
f 182 191 183
f 183 191 192
f 183 192 193
f 183 193 184
f 186 194 187
f 187 194 196
f 187 196 195
f 189 197 198
f 189 198 199
f 189 199 190
f 190 199 192
f 190 192 191
f 192 199 200
f 194 201 196
f 195 196 201
f 195 201 202
f 195 202 203
f 195 203 204
f 195 204 205
f 195 205 206
f 197 207 208
f 197 208 209
f 197 209 198
f 198 209 208
f 198 208 210
f 198 210 211
f 198 211 199
f 199 211 212
f 199 212 200
f 203 213 204
f 204 213 205
f 205 213 214
f 205 214 215
f 205 215 216
f 205 216 206
f 207 217 208
f 208 217 218
f 208 218 219
f 208 219 220
f 208 220 221
f 208 221 222
f 208 222 210
f 210 222 223
f 210 223 211
f 213 224 225
f 213 225 214
f 214 225 226
f 214 226 215
f 215 226 216
f 218 227 228
f 218 228 219
f 219 228 229
f 219 229 230
f 219 230 231
f 219 231 220
f 220 222 221
f 224 232 225
f 225 232 233
f 225 233 234
f 225 234 226
f 226 234 235
f 227 236 228
f 228 236 229
f 229 236 237
f 229 237 238
f 233 239 240
f 233 240 241
f 233 241 235
f 233 235 234
f 235 241 242
f 237 243 244
f 237 244 238
f 238 244 245
f 239 246 240
f 240 246 247
f 240 247 248
f 240 248 249
f 240 249 250
f 240 250 241
f 241 250 242
f 242 250 251
f 243 252 253
f 243 253 244
f 244 253 245
f 245 253 254
f 245 254 255
f 247 256 248
f 248 257 249
f 248 256 257
f 249 257 258
f 249 258 259
f 249 259 260
f 249 260 250
f 250 260 251
f 252 261 253
f 253 261 262
f 253 262 263
f 253 263 264
f 253 264 254
f 254 264 265
f 254 265 266
f 254 266 255
f 256 267 277
f 256 277 268
f 256 268 269
f 256 269 258
f 256 258 257
f 258 269 259
f 259 269 270
f 259 270 271
f 259 271 272
f 259 272 260
f 261 273 262
f 262 273 274
f 262 274 265
f 262 265 263
f 263 265 264
f 265 274 275
f 265 275 266
f 267 276 277
f 268 277 269
f 269 277 278
f 269 278 279
f 269 279 280
f 269 280 270
f 274 281 275
f 275 281 282
f 276 283 284
f 276 284 285
f 276 285 277
f 277 285 279
f 277 279 278
f 279 285 284
f 279 284 286
f 281 287 288
f 281 288 282
f 283 289 290
f 283 290 284
f 284 290 291
f 284 291 292
f 284 292 286
f 287 293 294
f 287 294 295
f 287 295 296
f 287 296 288
f 288 296 297
f 289 298 290
f 290 299 291
f 290 298 299
f 291 299 300
f 291 300 301
f 291 301 302
f 291 302 303
f 293 304 294
f 293 305 306
f 293 306 307
f 293 307 304
f 294 304 308
f 294 308 309
f 294 309 295
f 295 309 296
f 296 309 297
f 298 310 311
f 298 311 299
f 299 311 300
f 300 311 301
f 301 311 312
f 301 312 302
f 302 312 303
f 304 307 308
f 305 313 314
f 305 314 315
f 305 315 306
f 306 315 307
f 307 315 316
f 307 316 308
f 308 316 317
f 308 317 309
f 310 318 319
f 310 319 320
f 310 320 321
f 310 321 322
f 310 322 311
f 311 322 323
f 311 323 312
f 312 323 322
f 313 324 325
f 313 325 326
f 313 326 314
f 314 327 315
f 314 326 328
f 315 327 316
f 318 329 330
f 318 330 331
f 318 331 319
f 319 332 321
f 319 321 320
f 319 331 330
f 319 330 333
f 319 333 332
f 321 332 334
f 321 334 335
f 324 336 337
f 324 337 325
f 325 337 336
f 325 336 326
f 326 336 338
f 326 338 339
f 326 339 340
f 326 340 328
f 329 333 330
f 332 333 334
f 333 341 342
f 333 342 343
f 333 343 344
f 333 344 334
f 334 344 343
f 334 343 335
f 336 345 346
f 336 346 347
f 336 347 338
f 338 347 349
f 338 349 339
f 339 348 340
f 339 349 357
f 339 357 348
f 341 350 342
f 342 351 343
f 342 350 352
f 342 352 351
f 345 353 354
f 345 354 346
f 346 354 347
f 347 354 355
f 347 355 356
f 347 356 349
f 349 356 357
f 351 352 358
f 351 358 359
f 353 360 354
f 354 360 355
f 355 360 361
f 355 361 362
f 355 362 363
f 358 364 365
f 358 365 359
f 361 366 367
f 361 367 362
f 362 367 368
f 362 368 363
f 364 369 370
f 364 370 371
f 364 371 372
f 364 372 365
f 365 372 373
f 365 373 374
f 365 374 375
f 366 376 367
f 367 377 378
f 367 378 368
f 367 376 379
f 367 379 380
f 367 380 377
f 368 378 381
f 369 382 370
f 370 382 383
f 370 383 384
f 370 384 374
f 370 374 385
f 370 385 373
f 370 373 372
f 370 372 371
f 373 385 374
f 374 384 383
f 374 383 386
f 374 386 375
f 375 386 387
f 376 388 379
f 377 381 378
f 377 380 389
f 379 388 390
f 379 390 391
f 379 391 380
f 380 391 392
f 380 392 389
f 382 393 394
f 382 394 395
f 382 395 396
f 382 396 386
f 382 386 383
f 386 396 394
f 386 394 387
f 387 394 397
f 388 398 390
f 390 398 399
f 390 399 391
f 391 400 392
f 391 399 394
f 391 394 393
f 391 393 400
f 394 396 395
f 394 399 397

