# https://github.com/mikedh/trimesh
v -0.01085459 0.01729296 0.00574771
v -0.01084158 0.01729296 0.00524465
v -0.01085351 0.01729296 0.00600747
v -0.01074292 0.01863414 0.00600747
v -0.01080689 0.01787090 0.00574771
v -0.01083833 0.01729296 0.00516880
v -0.01079388 0.01787090 0.00524465
v 0.00015032 0.01729296 0.00600747
v -0.01072123 0.01887789 0.00600747
v -0.01072123 0.01887789 0.00574771
v -0.01076460 0.01837494 0.00574771
v -0.01081556 0.01729296 0.00474160
v -0.01075159 0.01837494 0.00524465
v 0.00015032 0.01729296 0.00596525
v 0.00022188 0.01744075 0.00600747
v -0.01069413 0.01913708 0.00600747
v -0.01066810 0.01938083 0.00600747
v -0.01066702 0.01938083 0.00574771
v -0.01070388 0.01887789 0.00524465
v -0.01077327 0.01729296 0.00423854
v -0.01072448 0.01837494 0.00474160
v -0.01064100 0.01887789 0.00423854
v -0.01068328 0.01837494 0.00423854
v -0.01068003 0.01887789 0.00474160
v 0.00014924 0.01729296 0.00574771
v 0.00022188 0.01744186 0.00574771
v 0.00022188 0.02855951 0.00600747
v -0.01060522 0.01988377 0.00600747
v -0.01060414 0.01988377 0.00574771
v -0.01058896 0.01988377 0.00524465
v -0.01064750 0.01938083 0.00524465
v -0.01062690 0.01938083 0.00474160
v -0.01071906 0.01729296 0.00373549
v -0.01058353 0.01887789 0.00373549
v -0.01062799 0.01837494 0.00373549
v -0.01059004 0.01938083 0.00423854
v 0.00014165 0.01729296 0.00544359
v 0.00022188 0.01747274 0.00524465
v 0.00022188 0.02855951 -0.00122136
v -0.00475798 0.02855951 0.00600747
v -0.01056510 0.02014296 0.00600747
v -0.01052607 0.02038671 0.00574771
v -0.01051306 0.02038671 0.00524465
v -0.01056727 0.01988377 0.00474160
v -0.01070822 0.01729296 0.00365964
v -0.01050981 0.01887789 0.00323315
v -0.01053041 0.01938083 0.00373549
v -0.01046319 0.01935546 0.00324102
v -0.01055318 0.01837494 0.00323315
v -0.01059655 0.01787090 0.00323315
v -0.01052716 0.01988377 0.00423854
v -0.01046861 0.01988928 0.00372976
v 0.00013514 0.01729296 0.00524465
v 0.00022188 0.01747494 0.00521532
v 0.00022188 0.02843268 -0.00122279
v -0.00012399 0.02843268 -0.00124569
v 0.00013514 0.02855951 -0.00122708
v -0.00699799 0.02855951 0.00456700
v -0.00762142 0.02735400 0.00600747
v -0.01052716 0.02038671 0.00600747
v -0.01045668 0.02073855 0.00600747
v -0.01045560 0.02073524 0.00574771
v -0.01044909 0.02070877 0.00524465
v -0.01044258 0.02067899 0.00487470
v -0.01048053 0.02042531 0.00472085
v -0.01046427 0.02029627 0.00423854
v -0.01064534 0.01729296 0.00323315
v -0.01043933 0.01917127 0.00295407
v -0.01044584 0.01972495 0.00341419
v -0.01044584 0.02020142 0.00389363
v -0.01042415 0.02006024 0.00355802
v 0.00011563 0.01729296 0.00474160
v 0.00022188 0.01751134 0.00474160
v 0.00022188 0.02792974 -0.00121992
v -0.00012399 0.02792974 -0.00124569
v -0.00062707 0.02792974 -0.00126644
v -0.00062707 0.02843268 -0.00126429
v -0.00012399 0.02855951 -0.00124354
v -0.00705763 0.02855951 0.00435018
v -0.00787296 0.02710032 0.00600747
v -0.00774286 0.02723267 0.00600747
v -0.01042957 0.02085987 0.00600747
v -0.01040030 0.02098671 0.00574771
v -0.01039596 0.02096134 0.00524465
v -0.01043066 0.02061943 0.00453980
v -0.01039271 0.02086318 0.00472085
v -0.01041765 0.02054774 0.00423854
v -0.01063124 0.01729296 0.00315658
v -0.01039922 0.01887789 0.00264494
v -0.01054884 0.01729296 0.00273010
v -0.01041656 0.01950656 0.00307930
v -0.01029621 0.01988377 0.00273010
v -0.01037536 0.01935546 0.00276373
v -0.01039379 0.01988928 0.00324102
v -0.01039271 0.02037568 0.00372976
v -0.01031248 0.02038671 0.00323315
v 0.00007985 0.01729296 0.00423854
v 0.00022188 0.01757972 0.00423854
v 0.00022188 0.01751796 0.00468364
v 0.00022188 0.02742679 -0.00120991
v -0.00012399 0.02742679 -0.00123781
v -0.00062707 0.02742679 -0.00126143
v -0.00113015 0.02792974 -0.00127932
v -0.00213632 0.02591797 -0.00129435
v -0.00213632 0.02642091 -0.00129792
v -0.00113015 0.02843268 -0.00127502
v -0.00062707 0.02855951 -0.00126143
v -0.00706305 0.02855951 0.00423854
v -0.00786971 0.02710032 0.00574771
v -0.00800524 0.02684885 0.00574771
v -0.00800524 0.02684885 0.00600747
v -0.01040030 0.02099002 0.00600747
v -0.01030164 0.02139260 0.00574771
v -0.01029079 0.02139260 0.00524465
v -0.01026694 0.02139260 0.00474160
v -0.01034717 0.02088965 0.00423854
v -0.01029079 0.02088965 0.00373549
v -0.01029513 0.01887789 0.00222776
v -0.01043066 0.01808046 0.00249467
v -0.01053366 0.01729296 0.00266426
v -0.01016719 0.01988377 0.00222776
v -0.01023875 0.01938083 0.00222776
v -0.01021707 0.02038671 0.00273010
v -0.01021273 0.02088965 0.00323315
v -0.01011840 0.02088965 0.00273010
v 0.00003973 0.01729296 0.00375839
v 0.00022188 0.01760399 0.00410831
v 0.00022188 0.02692385 -0.00119416
v -0.00012399 0.02692385 -0.00122422
v -0.00062707 0.02692385 -0.00125356
v -0.00062707 0.02591797 -0.00123209
v -0.00163323 0.02390620 -0.00124569
v -0.00163323 0.02440914 -0.00125570
v -0.00213632 0.02390620 -0.00126930
v -0.00213632 0.02440914 -0.00127645
v -0.00213632 0.02541503 -0.00128934
v -0.00213632 0.02692385 -0.00129649
v -0.00263940 0.02541503 -0.00129935
v -0.00263940 0.02642091 -0.00130078
v -0.00263940 0.02591797 -0.00130150
v -0.00163323 0.02843268 -0.00127359
v -0.00113015 0.02855951 -0.00127216
v -0.00700558 0.02855951 0.00374121
v -0.00746421 0.02777532 0.00423854
v -0.00767997 0.02742679 0.00474160
v -0.00748590 0.02778745 0.00474160
v -0.00799657 0.02683120 0.00524465
v -0.00821341 0.02642091 0.00574771
v -0.00821450 0.02642091 0.00600747
v -0.01030164 0.02139260 0.00600747
v -0.01015418 0.02189554 0.00574771
v -0.01014117 0.02189554 0.00524465
v -0.01011515 0.02189554 0.00474160
v -0.01007612 0.02189554 0.00423854
v -0.01022574 0.02139260 0.00423854
v -0.01017261 0.02139260 0.00373549
v -0.01009672 0.02139260 0.00323315
v -0.01013792 0.01887789 0.00172470
v -0.01039705 0.01729296 0.00211469
v -0.01045451 0.01729296 0.00232865
v -0.01046427 0.01729296 0.00236586
v -0.01044475 0.01774516 0.00243814
v -0.01000022 0.01987384 0.00170037
v -0.01007937 0.01938083 0.00172470
v -0.01008696 0.02038671 0.00222776
v -0.00996986 0.02038671 0.00185780
v -0.00991674 0.02003487 0.00151575
v -0.00999263 0.02086870 0.00222489
v -0.00999588 0.02140914 0.00272008
v -0.00991674 0.02158782 0.00254619
v -0.00995902 0.02125252 0.00239019
v 0.00000178 0.01729296 0.00335480
v 0.00022188 0.01767789 0.00373549
v 0.00022188 0.02642091 -0.00117270
v -0.00012399 0.02541503 -0.00117055
v -0.00012399 0.02591797 -0.00119130
v -0.00012399 0.02642091 -0.00120848
v -0.00113015 0.02440914 -0.00122565
v -0.00163323 0.02340326 -0.00122923
v -0.00213632 0.02340326 -0.00125785
v -0.00565572 0.01729296 -0.00125713
v -0.00615880 0.01729296 -0.00127002
v -0.00263940 0.02440914 -0.00128790
v -0.00263940 0.02491208 -0.00129435
v -0.00213632 0.02742679 -0.00128790
v -0.00314248 0.02642091 -0.00128862
v -0.00263940 0.02692385 -0.00129220
v -0.00314248 0.02591797 -0.00129506
v -0.00213632 0.02792974 -0.00127789
v -0.00213632 0.02843268 -0.00126429
v -0.00163323 0.02855951 -0.00127002
v -0.00698824 0.02855951 0.00361885
v -0.00741542 0.02767716 0.00348790
v -0.00732760 0.02790657 0.00368755
v -0.00743819 0.02772348 0.00382351
v -0.00791742 0.02666907 0.00349935
v -0.00763443 0.02742679 0.00423854
v -0.00786212 0.02705731 0.00474160
v -0.00819607 0.02642091 0.00524465
v -0.00837063 0.02606135 0.00524465
v -0.00837822 0.02607900 0.00574771
v -0.00837930 0.02608010 0.00600747
v -0.01015418 0.02189554 0.00600747
v -0.01000130 0.02234774 0.00574771
v -0.00999480 0.02233120 0.00524465
v -0.00998179 0.02229591 0.00474160
v -0.00996227 0.02223965 0.00423854
v -0.00994492 0.02218892 0.00387145
v -0.01000998 0.02193414 0.00371688
v -0.00998287 0.02180289 0.00323315
v -0.00995143 0.02170693 0.00288180
v -0.00999046 0.01887789 0.00133900
v -0.01001323 0.01837494 0.00128462
v -0.01018129 0.01837494 0.00172470
v -0.00996227 0.01938083 0.00140340
v -0.01027345 0.01729296 0.00172470
v -0.00994059 0.01969958 0.00145206
v -0.00994167 0.02068671 0.00194295
v -0.00988746 0.02038671 0.00160663
v -0.00973025 0.02038671 0.00122165
v -0.00990589 0.02102201 0.00205602
v -0.00986144 0.02188340 0.00272008
v -0.00973675 0.02189554 0.00222776
v -0.00987120 0.02140914 0.00222489
v -0.00001123 0.01729296 0.00324746
v 0.00022188 0.01778377 0.00329397
v 0.00022188 0.02591797 -0.00114622
v -0.00012399 0.02491208 -0.00114193
v -0.00062707 0.02440914 -0.00117914
v -0.00113015 0.02390620 -0.00120848
v -0.00163323 0.02290142 -0.00120490
v -0.00414756 0.01729296 -0.00114980
v -0.00465064 0.01729296 -0.00118987
v -0.00515372 0.01729296 -0.00122923
v -0.00658599 0.01729296 -0.00125928
v -0.00615880 0.01988377 -0.00125570
v -0.00364448 0.02591797 -0.00127431
v -0.00314248 0.02692385 -0.00127431
v -0.00263940 0.02792974 -0.00126501
v -0.00615880 0.02088965 -0.00124569
v -0.00615880 0.02038671 -0.00125213
v -0.00213632 0.02855951 -0.00126071
v -0.00691776 0.02855951 0.00323315
v -0.00738940 0.02762422 0.00323315
v -0.00751517 0.02737275 0.00323315
v -0.00773961 0.02692385 0.00323315
v -0.00723544 0.02792974 0.00323315
v -0.00783827 0.02700878 0.00423854
v -0.00789140 0.02661503 0.00323315
v -0.00801391 0.02636356 0.00323315
v -0.00823076 0.02591797 0.00323315
v -0.00841616 0.02565326 0.00354014
v -0.00833376 0.02598635 0.00423854
v -0.00817004 0.02642091 0.00474160
v -0.00835653 0.02603488 0.00474160
v -0.00847796 0.02578341 0.00474160
v -0.00849097 0.02580988 0.00524465
v -0.00849856 0.02582753 0.00574771
v -0.00844110 0.02594995 0.00600747
v -0.01000130 0.02234774 0.00600747
v -0.00995902 0.02246907 0.00600747
v -0.00991348 0.02259921 0.00574771
v -0.00990698 0.02258267 0.00524465
v -0.00989505 0.02254738 0.00474160
v -0.00987662 0.02249113 0.00423854
v -0.00992432 0.02212826 0.00353656
v -0.00986252 0.02237311 0.00371688
v -0.00990155 0.02205436 0.00323315
v -0.00969230 0.02239848 0.00273010
v -0.00987662 0.01887789 0.00108712
v -0.00990264 0.01837494 0.00103345
v -0.00991999 0.01799553 0.00099409
v -0.01007828 0.01729296 0.00122165
v -0.01024417 0.01729296 0.00164885
v -0.00982674 0.01987384 0.00125886
v -0.00984518 0.01938083 0.00115223
v -0.00984192 0.02086870 0.00175476
v -0.00963267 0.02088965 0.00122165
v -0.00952208 0.02038671 0.00080375
v -0.00947328 0.02088965 0.00089033
v -0.00971507 0.02139260 0.00172470
v -0.00954376 0.02244149 0.00218554
v -0.00942450 0.02263892 0.00199018
v -0.00948088 0.02230363 0.00182989
v -0.00955027 0.02193083 0.00168677
v -0.00010772 0.01729296 0.00273010
v 0.00022188 0.01796796 0.00272652
v 0.00022188 0.01780362 0.00322242
v 0.00022188 0.02542385 -0.00111545
v 0.00022188 0.02491208 -0.00108110
v -0.00008496 0.02438157 -0.00109398
v -0.00062707 0.02390620 -0.00115051
v -0.00113015 0.02340326 -0.00118200
v -0.00364014 0.01729296 -0.00109327
v -0.00666188 0.01729296 -0.00125713
v -0.00414756 0.02541503 -0.00125570
v -0.00364448 0.02642091 -0.00125928
v -0.00314248 0.02742679 -0.00125570
v -0.00263940 0.02843268 -0.00124783
v -0.00666188 0.01887789 -0.00123781
v -0.00666188 0.01938083 -0.00122994
v -0.00666188 0.01988377 -0.00122136
v -0.00666188 0.02038671 -0.00120991
v -0.00615880 0.02139260 -0.00123280
v -0.00666188 0.01736796 -0.00125642
v -0.00666188 0.01787090 -0.00125069
v -0.00666188 0.01837494 -0.00124425
v -0.00263940 0.02855951 -0.00124211
v -0.00681801 0.02855951 0.00278233
v -0.00733302 0.02751282 0.00273010
v -0.00762793 0.02692385 0.00273010
v -0.00783610 0.02650473 0.00273010
v -0.00795970 0.02625326 0.00273010
v -0.00812342 0.02591797 0.00273010
v -0.00833376 0.02548120 0.00273010
v -0.00838689 0.02559370 0.00323315
v -0.00850724 0.02534223 0.00323315
v -0.00870999 0.02491208 0.00323315
v -0.00887696 0.02455473 0.00323315
v -0.00890840 0.02462201 0.00362171
v -0.00881299 0.02486576 0.00376769
v -0.00892900 0.02466833 0.00395732
v -0.00882709 0.02495510 0.00423854
v -0.00860807 0.02541503 0.00423854
v -0.00845520 0.02573488 0.00423854
v -0.00865144 0.02541503 0.00474160
v -0.00896478 0.02474554 0.00474160
v -0.00867421 0.02541503 0.00524465
v -0.00868830 0.02541503 0.00574771
v -0.00868939 0.02541503 0.00600747
v -0.00859072 0.02562900 0.00600747
v -0.00849856 0.02582863 0.00600747
v -0.00991348 0.02259921 0.00600747
v -0.00979639 0.02290142 0.00574771
v -0.00978446 0.02290142 0.00524465
v -0.00976061 0.02290142 0.00474160
v -0.00972157 0.02290142 0.00423854
v -0.00966736 0.02290142 0.00373549
v -0.00978446 0.02239848 0.00323315
v -0.00950473 0.02291245 0.00275371
v -0.00947003 0.02275142 0.00232507
v -0.00967929 0.01887789 0.00071859
v -0.00961749 0.01938083 0.00071859
v -0.00973133 0.01837494 0.00071859
v -0.00993408 0.01766024 0.00096404
v -0.00994926 0.01729296 0.00093613
v -0.00953617 0.01985509 0.00068710
v -0.00951449 0.02137164 0.00120876
v -0.00940173 0.02152495 0.00103273
v -0.00943859 0.02118965 0.00095044
v -0.00937679 0.02038671 0.00055186
v -0.00940823 0.02000289 0.00049891
v -0.00928246 0.02137164 0.00075723
v -0.00932475 0.02088965 0.00063916
v -0.00947220 0.02178635 0.00136834
v -0.00938329 0.02244149 0.00168677
v -0.00936378 0.02291245 0.00218554
v -0.00894527 0.02369885 0.00191576
v -0.00901466 0.02340326 0.00173901
v -0.00922391 0.02290142 0.00172470
v -0.00942016 0.02212164 0.00149428
v -0.00021940 0.01729296 0.00222847
v 0.00022188 0.01816869 0.00222776
v 0.00022188 0.02472458 -0.00106464
v -0.00021073 0.02390620 -0.00107824
v -0.00335499 0.01729296 -0.00104962
v -0.00708907 0.01729296 -0.00120490
v -0.00414756 0.02591797 -0.00123495
v -0.00615880 0.02189554 -0.00121348
v -0.00364448 0.02692385 -0.00123781
v -0.00314248 0.02792974 -0.00123638
v -0.00716496 0.01729296 -0.00119559
v -0.00716496 0.01787090 -0.00118558
v -0.00716496 0.01837494 -0.00117556
v -0.00716496 0.01887789 -0.00116482
v -0.00666188 0.02088965 -0.00119559
v -0.00314248 0.02855951 -0.00120132
v -0.00314248 0.02843268 -0.00120991
v -0.00680608 0.02855951 0.00273010
v -0.00742518 0.02719297 0.00244529
v -0.00692101 0.02819665 0.00244887
v -0.00792718 0.02618598 0.00244959
v -0.00842484 0.02516797 0.00246962
v -0.00845411 0.02522973 0.00273010
v -0.00860482 0.02491208 0.00273010
v -0.00895502 0.02422275 0.00286892
v -0.00898972 0.02430326 0.00323315
v -0.00916753 0.02390620 0.00323315
v -0.00935510 0.02348046 0.00323315
v -0.00938980 0.02356539 0.00373549
v -0.00941474 0.02362274 0.00411189
v -0.00894527 0.02470363 0.00423854
v -0.00907754 0.02440914 0.00423854
v -0.00911874 0.02440914 0.00474160
v -0.00933884 0.02396245 0.00524465
v -0.00945377 0.02371098 0.00524465
v -0.00945919 0.02372311 0.00574771
v -0.00945919 0.02372311 0.00600747
v -0.00979639 0.02290142 0.00600747
v -0.00959363 0.02340326 0.00574771
v -0.00958171 0.02340326 0.00524465
v -0.00955894 0.02340326 0.00474160
v -0.00943208 0.02366466 0.00444749
v -0.00950798 0.02343414 0.00426359
v -0.00959580 0.02290142 0.00323315
v -0.00949605 0.02331392 0.00373549
v -0.00946027 0.02322899 0.00323315
v -0.00943751 0.02317495 0.00293690
v -0.00940064 0.02308561 0.00260201
v -0.00948304 0.01887789 0.00039085
v -0.00943317 0.01966759 0.00046027
v -0.00945268 0.01938083 0.00043379
v -0.00950798 0.01837494 0.00035579
v -0.00980506 0.01729296 0.00068424
v -0.00980506 0.01784553 0.00076510
v -0.00992758 0.01729296 0.00089820
v -0.00936053 0.02193083 0.00120876
v -0.00901357 0.02239848 0.00082450
v -0.00908730 0.02191980 0.00068066
v -0.00901466 0.02139260 0.00034363
v -0.00907321 0.02088965 0.00026992
v -0.00909489 0.02039664 0.00017332
v -0.00896478 0.02176870 0.00041161
v -0.00921199 0.02239848 0.00122165
v -0.00916320 0.02340326 0.00222776
v -0.00898972 0.02379039 0.00222776
v -0.00849206 0.02490436 0.00227284
v -0.00837605 0.02506650 0.00213545
v -0.00845628 0.02473120 0.00189072
v -0.00888672 0.02357201 0.00158087
v -0.00896153 0.02323671 0.00140269
v -0.00032457 0.01729296 0.00186567
v 0.00022188 0.01841024 0.00177121
v 0.00022188 0.01838818 0.00181200
v 0.00022188 0.02449848 -0.00104103
v 0.00018176 0.02453157 -0.00105534
v 0.00010912 0.02419627 -0.00103745
v -0.00030505 0.02351245 -0.00105892
v -0.00310887 0.01729296 -0.00099308
v -0.00465064 0.02541503 -0.00120347
v -0.00615880 0.02239848 -0.00118844
v -0.00666188 0.02139260 -0.00117270
v -0.00751842 0.01729296 -0.00111187
v -0.00758456 0.01729296 -0.00109613
v -0.00756179 0.01787090 -0.00109040
v -0.00754011 0.01837494 -0.00108396
v -0.00751625 0.01887789 -0.00107752
v -0.00716496 0.01938083 -0.00114980
v -0.00716496 0.01988377 -0.00113119
v -0.00711617 0.02088965 -0.00110114
v -0.00364448 0.02792974 -0.00117270
v -0.00366074 0.02855951 -0.00110686
v -0.00672477 0.02855951 0.00240379
v -0.00677247 0.02839187 0.00225996
v -0.00687656 0.02810731 0.00211398
v -0.00737856 0.02710032 0.00211112
v -0.00750433 0.02692937 0.00225781
v -0.00668790 0.02855951 0.00226067
v -0.00787947 0.02608672 0.00211469
v -0.00800307 0.02591907 0.00226067
v -0.00777755 0.02638010 0.00226067
v -0.00827196 0.02536760 0.00227284
v -0.00904718 0.02393819 0.00271221
v -0.00931390 0.02336686 0.00275371
v -0.00932475 0.02386208 0.00426359
v -0.00933017 0.02393929 0.00474160
v -0.00944293 0.02368782 0.00474160
v -0.00952424 0.02356870 0.00600747
v -0.00959363 0.02340326 0.00600747
v -0.00928571 0.01887789 0.00013968
v -0.00931282 0.01837494 0.00010462
v -0.00924993 0.01985509 0.00026205
v -0.00925427 0.01938083 0.00018190
v -0.00933559 0.01787090 0.00007600
v -0.00952967 0.01787090 0.00032717
v -0.00955352 0.01729296 0.00029783
v -0.00895286 0.02270620 0.00092253
v -0.00886286 0.02239848 0.00057261
v -0.00891166 0.02210399 0.00048817
v -0.00882600 0.02139260 0.00009246
v -0.00888130 0.02088965 0.00001803
v -0.00891382 0.02057090 -0.00002275
v -0.00878155 0.02191980 0.00023271
v -0.00902658 0.02288488 0.00122952
v -0.00795970 0.02575142 0.00186495
v -0.00789790 0.02562128 0.00153006
v -0.00839448 0.02409591 0.00103416
v -0.00797597 0.02528598 0.00134473
v -0.00807246 0.02493855 0.00119517
v -0.00846929 0.02376061 0.00088174
v -0.00050347 0.01729296 0.00136691
v 0.00022188 0.01875546 0.00129320
v -0.00054575 0.01729296 0.00124955
v 0.00022188 0.02427900 -0.00101741
v 0.00004081 0.02390620 -0.00102099
v -0.00263940 0.01729296 -0.00084711
v -0.00013158 0.02336797 -0.00099666
v -0.00414756 0.02692385 -0.00116983
v -0.00666188 0.02189554 -0.00113978
v -0.00615880 0.02290142 -0.00114622
v -0.00465064 0.02591797 -0.00116411
v -0.00706196 0.02139260 -0.00108826
v -0.00783610 0.01729296 -0.00101312
v -0.00781333 0.01787090 -0.00100453
v -0.00779165 0.01837494 -0.00099595
v -0.00748806 0.01938083 -0.00106822
v -0.00745554 0.01988377 -0.00105606
v -0.00720508 0.02039112 -0.00109971
v -0.00743168 0.02022679 -0.00104747
v -0.00368568 0.02846687 -0.00111116
v -0.00445548 0.02729113 -0.00106106
v -0.00395457 0.02832128 -0.00106178
v -0.00378109 0.02855951 -0.00107538
v -0.00667489 0.02238083 -0.00109112
v -0.00693728 0.02220105 -0.00105033
v -0.00652202 0.02855951 0.00175833
v -0.00696005 0.02777201 0.00186567
v -0.00746204 0.02676503 0.00186567
v -0.00903417 0.01887789 -0.00014726
v -0.00896804 0.01988377 -0.00008143
v -0.00900273 0.01938083 -0.00011649
v -0.00906128 0.01837494 -0.00017303
v -0.00894201 0.02023561 -0.00005352
v -0.00935836 0.01729296 0.00004666
v -0.00952424 0.01729296 0.00025990
v -0.00955027 0.01736796 0.00030141
v -0.00837605 0.02355546 0.00054614
v -0.00845086 0.02322017 0.00042663
v -0.00851700 0.02290142 0.00034076
v -0.00858964 0.02239186 0.00018906
v -0.00850399 0.02189554 -0.00012150
v -0.00857446 0.02139260 -0.00018734
v -0.00862976 0.02088965 -0.00023242
v -0.00866987 0.02036245 -0.00028537
v -0.00844869 0.02221980 -0.00006426
v -0.00781875 0.02591907 0.00170824
v -0.00645805 0.02855951 0.00160591
v -0.00628132 0.02855951 0.00118587
v -0.00639950 0.02816025 0.00099481
v -0.00690150 0.02715326 0.00099624
v -0.00740349 0.02614297 0.00099838
v -0.00783502 0.02543819 0.00119517
v -0.00790007 0.02512495 0.00100983
v -0.00798139 0.02478966 0.00086815
v 0.00022188 0.01883818 0.00119302
v -0.00079296 0.01729296 0.00074578
v 0.00022188 0.01895068 0.00106994
v 0.00022188 0.02390620 -0.00096875
v 0.00022188 0.02241502 -0.00068968
v -0.00218511 0.01729296 -0.00064531
v 0.00022188 0.02339223 -0.00088718
v 0.00022188 0.02290142 -0.00079487
v -0.00699040 0.02189554 -0.00106750
v -0.00731350 0.02139260 -0.00100740
v -0.00740024 0.02056208 -0.00103673
v -0.00736771 0.02088965 -0.00102672
v -0.00817113 0.01729296 -0.00085999
v -0.00817113 0.01837494 -0.00081490
v -0.00776780 0.01887789 -0.00098378
v -0.00817113 0.01736796 -0.00085712
v -0.00817113 0.01787090 -0.00083709
v -0.00773961 0.01938083 -0.00097090
v -0.00762685 0.02039112 -0.00095444
v -0.00770708 0.01988377 -0.00095659
v -0.00400986 0.02855951 -0.00100310
v -0.00724194 0.02189554 -0.00097591
v -0.00712810 0.02238083 -0.00093798
v -0.00685054 0.02253635 -0.00102242
v -0.00875011 0.01887789 -0.00039915
v -0.00877830 0.01837494 -0.00042491
v -0.00872300 0.01938083 -0.00036766
v -0.00869481 0.01988377 -0.00033260
v -0.00842592 0.02015509 -0.00054155
v -0.00908405 0.01787090 -0.00019235
v -0.00910682 0.01729296 -0.00021167
v -0.00688306 0.02661172 0.00051393
v -0.00696547 0.02627642 0.00039873
v -0.00795862 0.02423819 0.00041661
v -0.00803994 0.02390620 0.00031786
v -0.00817872 0.02341870 0.00020480
v -0.00831533 0.02290142 0.00008959
v -0.00838581 0.02255510 0.00000444
v -0.00823293 0.02189554 -0.00037267
v -0.00816029 0.02237091 -0.00028108
v -0.00829798 0.02139260 -0.00043851
v -0.00835003 0.02088965 -0.00048359
v -0.00839231 0.02049039 -0.00051651
v -0.00806379 0.02290142 -0.00017660
v -0.00605146 0.02855951 0.00073576
v -0.00648298 0.02782496 0.00084668
v -0.00698498 0.02681797 0.00084883
v -0.00748373 0.02580767 0.00085813
v -0.00731784 0.02595216 0.00070213
v -0.00089921 0.01729296 0.00056975
v 0.00022188 0.01921318 0.00080732
v 0.00017851 0.01903892 0.00089033
v 0.00022188 0.02194076 -0.00058162
v -0.00193356 0.01729296 -0.00050863
v 0.00013731 0.02162311 -0.00054441
v -0.00766805 0.02139260 -0.00084353
v -0.00766805 0.02088965 -0.00089290
v -0.00857229 0.01729296 -0.00063744
v -0.00854952 0.01787090 -0.00062313
v -0.00852675 0.01837494 -0.00060953
v -0.00817113 0.01887789 -0.00078557
v -0.00817113 0.01938083 -0.00075551
v -0.00817113 0.01988377 -0.00072188
v -0.00413238 0.02846687 -0.00097090
v -0.00413563 0.02855951 -0.00094943
v -0.00766805 0.02189554 -0.00076911
v -0.00716496 0.02290142 -0.00080846
v -0.00844327 0.01988377 -0.00055515
v -0.00880106 0.01787090 -0.00044352
v -0.00847146 0.01938083 -0.00057518
v -0.00804644 0.02139260 -0.00062671
v -0.00809848 0.02088965 -0.00065676
v -0.00820257 0.02034811 -0.00065676
v -0.00882383 0.01729296 -0.00046284
v -0.00708039 0.02643525 0.00069641
v -0.00596147 0.02855951 0.00058335
v -0.00638107 0.02762201 0.00051107
v -0.00596472 0.02829701 0.00039228
v -0.00646564 0.02728672 0.00039515
v -0.00582920 0.02802349 0.00005739
v -0.00632902 0.02701098 0.00006025
v -0.00684729 0.02591797 0.00004165
v -0.00790224 0.02361833 -0.00001703
v -0.00798030 0.02328304 -0.00009646
v -0.00793477 0.02218782 -0.00055014
v -0.00798139 0.02189554 -0.00058377
v -0.00786429 0.02252311 -0.00049790
v -0.00777972 0.02290142 -0.00042777
v -0.00097077 0.01729296 0.00046671
v 0.00022188 0.01979774 0.00035722
v 0.00015900 0.01957605 0.00042878
v 0.00022188 0.01947237 0.00059909
v 0.00022188 0.01936318 0.00068424
v 0.00022188 0.02189554 -0.00056803
v -0.00159203 0.01729296 -0.00023457
v 0.00022188 0.02154149 -0.00045854
v 0.00022188 0.02134076 -0.00038770
v 0.00022188 0.02088965 -0.00022025
v 0.00022188 0.02060840 -0.00010862
v -0.00465064 0.02792974 -0.00085211
v -0.00469509 0.02847018 -0.00069683
v -0.00467124 0.02855951 -0.00068610
v -0.00768539 0.02237311 -0.00065461
v -0.00752818 0.02290142 -0.00061168
v -0.00718882 0.02340105 -0.00066678
v -0.00582811 0.02855951 0.00039228
v -0.00569584 0.02855951 0.00022054
v -0.00544755 0.02855951 -0.00007785
v -0.00591268 0.02768819 -0.00004136
v -0.00641143 0.02667569 -0.00003778
v -0.00690909 0.02565767 -0.00003134
v -0.00757914 0.02390620 -0.00018877
v -0.00767672 0.02342532 -0.00030183
v -0.00647431 0.02642091 -0.00009646
v -0.00745228 0.02323230 -0.00056445
v -0.00737205 0.02356760 -0.00050792
v -0.00114858 0.01729296 0.00022054
v 0.00022188 0.01988377 0.00030141
v -0.00154650 0.01729296 -0.00019521
v 0.00022188 0.02049149 -0.00004995
v 0.00019477 0.02051245 -0.00008859
v -0.00604929 0.02591797 -0.00062671
v -0.00478617 0.02855951 -0.00062027
v -0.00514505 0.02855951 -0.00034906
v -0.00547791 0.02843268 -0.00010719
v -0.00659574 0.02591797 -0.00020451
v -0.00502578 0.02855951 -0.00045568
v -0.00538575 0.02764187 -0.00052581
v -0.00596147 0.02628635 -0.00057518
v -0.00630083 0.02591797 -0.00045568
v -0.00122014 0.01729296 0.00013253
v 0.00022188 0.02025215 0.00007099
v 0.00010370 0.02017715 -0.00001345
v -0.00496507 0.02832679 -0.00058091
f 1 2 6
f 1 6 12
f 1 12 20
f 1 20 33
f 1 33 45
f 1 45 67
f 1 67 88
f 1 88 90
f 1 90 120
f 1 120 161
f 1 161 160
f 1 160 159
f 1 159 216
f 1 216 274
f 1 274 273
f 1 273 346
f 1 346 416
f 1 416 414
f 1 414 476
f 1 476 525
f 1 525 524
f 1 524 575
f 1 575 618
f 1 618 602
f 1 602 557
f 1 557 503
f 1 503 444
f 1 444 443
f 1 443 372
f 1 372 367
f 1 367 295
f 1 295 235
f 1 235 182
f 1 182 181
f 1 181 234
f 1 234 233
f 1 233 232
f 1 232 294
f 1 294 366
f 1 366 439
f 1 439 496
f 1 496 550
f 1 550 598
f 1 598 639
f 1 639 663
f 1 663 675
f 1 675 661
f 1 661 633
f 1 633 594
f 1 594 546
f 1 546 493
f 1 493 491
f 1 491 432
f 1 432 362
f 1 362 286
f 1 286 225
f 1 225 172
f 1 172 126
f 1 126 97
f 1 97 72
f 1 72 53
f 1 53 37
f 1 37 25
f 1 25 14
f 1 14 8
f 1 8 3
f 1 3 4
f 1 4 5
f 1 5 7
f 1 7 2
f 2 7 6
f 3 8 15
f 3 15 27
f 3 27 40
f 3 40 59
f 3 59 81
f 3 81 80
f 3 80 111
f 3 111 149
f 3 149 202
f 3 202 259
f 3 259 332
f 3 332 331
f 3 331 330
f 3 330 398
f 3 398 468
f 3 468 469
f 3 469 399
f 3 399 333
f 3 333 261
f 3 261 260
f 3 260 203
f 3 203 150
f 3 150 112
f 3 112 82
f 3 82 61
f 3 61 60
f 3 60 41
f 3 41 28
f 3 28 17
f 3 17 16
f 3 16 9
f 3 9 4
f 4 9 10
f 4 10 11
f 4 11 5
f 5 11 13
f 5 13 7
f 6 7 13
f 6 13 12
f 8 14 15
f 9 16 10
f 10 16 17
f 10 17 18
f 10 18 19
f 10 19 13
f 10 13 11
f 12 13 21
f 12 21 22
f 12 22 23
f 12 23 20
f 13 19 24
f 13 24 21
f 14 25 26
f 14 26 15
f 15 26 38
f 15 38 54
f 15 54 73
f 15 73 99
f 15 99 98
f 15 98 127
f 15 127 173
f 15 173 226
f 15 226 288
f 15 288 287
f 15 287 363
f 15 363 434
f 15 434 433
f 15 433 492
f 15 492 545
f 15 545 547
f 15 547 595
f 15 595 637
f 15 637 636
f 15 636 634
f 15 634 662
f 15 662 676
f 15 676 664
f 15 664 643
f 15 643 642
f 15 642 641
f 15 641 640
f 15 640 638
f 15 638 597
f 15 597 549
f 15 549 552
f 15 552 551
f 15 551 548
f 15 548 494
f 15 494 435
f 15 435 364
f 15 364 290
f 15 290 289
f 15 289 227
f 15 227 174
f 15 174 128
f 15 128 100
f 15 100 74
f 15 74 55
f 15 55 39
f 15 39 27
f 17 28 29
f 17 29 18
f 18 29 30
f 18 30 31
f 18 31 19
f 19 31 32
f 19 32 24
f 20 23 33
f 21 24 22
f 22 34 35
f 22 35 33
f 22 33 23
f 22 24 36
f 22 36 34
f 24 32 36
f 25 37 26
f 26 37 38
f 27 39 57
f 27 57 78
f 27 78 107
f 27 107 142
f 27 142 191
f 27 191 242
f 27 242 308
f 27 308 377
f 27 377 452
f 27 452 513
f 27 513 565
f 27 565 609
f 27 609 646
f 27 646 667
f 27 667 671
f 27 671 668
f 27 668 652
f 27 652 651
f 27 651 650
f 27 650 620
f 27 620 589
f 27 589 538
f 27 538 537
f 27 537 516
f 27 516 458
f 27 458 453
f 27 453 379
f 27 379 309
f 27 309 243
f 27 243 192
f 27 192 143
f 27 143 108
f 27 108 79
f 27 79 58
f 27 58 40
f 28 41 29
f 29 41 42
f 29 42 43
f 29 43 30
f 30 43 44
f 30 44 32
f 30 32 31
f 32 44 36
f 33 35 45
f 34 46 35
f 34 36 47
f 34 47 48
f 34 48 46
f 35 46 49
f 35 49 50
f 35 50 45
f 36 44 51
f 36 51 52
f 36 52 47
f 37 53 38
f 38 53 54
f 39 55 56
f 39 56 57
f 40 58 59
f 41 60 42
f 42 60 61
f 42 61 62
f 42 62 63
f 42 63 43
f 43 63 64
f 43 64 65
f 43 65 44
f 44 65 66
f 44 66 51
f 45 50 67
f 46 48 68
f 46 68 49
f 47 69 48
f 47 52 69
f 48 69 68
f 49 68 50
f 50 68 67
f 51 66 70
f 51 70 52
f 52 70 71
f 52 71 69
f 53 72 73
f 53 73 54
f 55 74 75
f 55 75 56
f 56 75 76
f 56 76 77
f 56 77 78
f 56 78 57
f 58 79 80
f 58 80 81
f 58 81 59
f 61 82 83
f 61 83 62
f 62 83 84
f 62 84 63
f 63 84 64
f 64 85 65
f 64 84 86
f 64 86 85
f 65 85 66
f 66 85 87
f 66 87 70
f 67 68 88
f 68 89 90
f 68 90 88
f 68 69 91
f 68 91 92
f 68 92 93
f 68 93 89
f 69 71 94
f 69 94 91
f 70 87 95
f 70 95 71
f 71 95 96
f 71 96 94
f 72 97 98
f 72 98 99
f 72 99 73
f 74 100 101
f 74 101 75
f 75 101 130
f 75 130 102
f 75 102 76
f 76 103 77
f 76 102 136
f 76 136 104
f 76 104 105
f 76 105 103
f 77 103 106
f 77 106 142
f 77 142 107
f 77 107 78
f 79 108 80
f 80 109 110
f 80 110 111
f 80 108 109
f 82 112 83
f 83 112 113
f 83 113 84
f 84 113 114
f 84 114 115
f 84 115 86
f 85 86 116
f 85 116 87
f 86 115 116
f 87 116 117
f 87 117 95
f 89 93 118
f 89 118 119
f 89 119 90
f 90 119 120
f 91 94 92
f 92 121 122
f 92 122 93
f 92 94 123
f 92 123 121
f 93 122 118
f 94 96 123
f 95 117 124
f 95 124 96
f 96 124 125
f 96 125 123
f 97 126 98
f 98 126 127
f 100 128 177
f 100 177 129
f 100 129 101
f 101 129 131
f 101 131 132
f 101 132 133
f 101 133 130
f 102 130 134
f 102 134 135
f 102 135 136
f 103 105 137
f 103 137 106
f 104 136 184
f 104 184 138
f 104 138 105
f 105 139 137
f 105 138 140
f 105 140 139
f 106 141 142
f 106 137 141
f 108 143 144
f 108 144 145
f 108 145 146
f 108 146 109
f 109 146 110
f 110 147 148
f 110 148 149
f 110 149 111
f 110 146 145
f 110 145 147
f 112 150 113
f 113 150 203
f 113 203 151
f 113 151 114
f 114 151 152
f 114 152 115
f 115 152 153
f 115 153 154
f 115 154 155
f 115 155 116
f 116 155 156
f 116 156 117
f 117 156 157
f 117 157 124
f 118 158 159
f 118 159 160
f 118 160 161
f 118 161 162
f 118 162 119
f 118 122 158
f 119 162 120
f 120 162 161
f 121 163 164
f 121 164 122
f 121 123 165
f 121 165 166
f 121 166 167
f 121 167 163
f 122 164 158
f 123 125 168
f 123 168 165
f 124 157 125
f 125 157 169
f 125 169 170
f 125 170 171
f 125 171 168
f 126 172 127
f 127 172 173
f 128 174 175
f 128 175 176
f 128 176 177
f 129 177 178
f 129 178 131
f 130 133 134
f 131 178 132
f 132 178 179
f 132 179 180
f 132 180 134
f 132 134 133
f 134 180 181
f 134 181 182
f 134 182 135
f 135 182 183
f 135 183 184
f 135 184 136
f 137 139 187
f 137 187 185
f 137 185 141
f 138 184 182
f 138 182 140
f 139 186 187
f 139 140 182
f 139 182 188
f 139 188 186
f 141 189 190
f 141 190 242
f 141 242 191
f 141 191 142
f 141 185 187
f 141 187 189
f 143 192 193
f 143 193 194
f 143 194 195
f 143 195 144
f 144 195 196
f 144 196 197
f 144 197 198
f 144 198 145
f 145 198 147
f 147 198 199
f 147 199 148
f 148 199 200
f 148 200 201
f 148 201 202
f 148 202 149
f 151 203 260
f 151 260 204
f 151 204 205
f 151 205 152
f 152 205 206
f 152 206 153
f 153 206 207
f 153 207 154
f 154 207 208
f 154 208 209
f 154 209 155
f 155 209 156
f 156 209 210
f 156 210 157
f 157 210 211
f 157 211 169
f 158 212 213
f 158 213 214
f 158 214 159
f 158 164 215
f 158 215 212
f 159 214 216
f 163 167 164
f 164 167 217
f 164 217 215
f 165 168 218
f 165 218 166
f 166 218 219
f 166 219 167
f 167 219 220
f 167 220 217
f 168 171 221
f 168 221 218
f 169 211 170
f 170 211 222
f 170 222 223
f 170 223 224
f 170 224 171
f 171 224 221
f 172 225 226
f 172 226 173
f 174 227 175
f 175 227 228
f 175 228 292
f 175 292 229
f 175 229 230
f 175 230 176
f 176 230 178
f 176 178 177
f 178 230 179
f 179 230 231
f 179 231 232
f 179 232 233
f 179 233 234
f 179 234 180
f 180 234 181
f 182 235 236
f 182 236 188
f 182 184 183
f 186 237 238
f 186 238 239
f 186 239 187
f 186 188 241
f 186 241 240
f 186 240 237
f 187 239 190
f 187 190 189
f 188 236 241
f 190 239 242
f 192 243 193
f 193 244 245
f 193 245 246
f 193 246 196
f 193 196 195
f 193 195 194
f 193 243 247
f 193 247 244
f 196 248 197
f 196 246 249
f 196 249 250
f 196 250 251
f 196 251 252
f 196 252 248
f 197 248 198
f 198 248 253
f 198 253 254
f 198 254 200
f 198 200 199
f 200 255 256
f 200 256 257
f 200 257 258
f 200 258 201
f 200 254 255
f 201 258 202
f 202 258 259
f 204 260 261
f 204 261 262
f 204 262 263
f 204 263 205
f 205 263 264
f 205 264 206
f 206 264 265
f 206 265 207
f 207 265 208
f 208 266 209
f 208 265 267
f 208 267 266
f 209 266 210
f 210 266 268
f 210 268 211
f 211 268 269
f 211 269 222
f 212 270 271
f 212 271 213
f 212 215 270
f 213 271 272
f 213 272 273
f 213 273 274
f 213 274 216
f 213 216 214
f 215 217 275
f 215 275 276
f 215 276 270
f 217 220 275
f 218 221 277
f 218 277 219
f 219 277 278
f 219 278 220
f 220 279 275
f 220 278 280
f 220 280 279
f 221 224 281
f 221 281 277
f 222 269 223
f 223 281 224
f 223 269 282
f 223 282 283
f 223 283 284
f 223 284 285
f 223 285 281
f 225 286 287
f 225 287 288
f 225 288 226
f 227 289 228
f 228 289 290
f 228 290 291
f 228 291 292
f 229 292 293
f 229 293 230
f 230 293 231
f 231 293 232
f 232 293 294
f 235 295 236
f 236 295 241
f 237 296 297
f 237 297 238
f 237 240 296
f 238 297 298
f 238 298 299
f 238 299 239
f 239 299 242
f 240 241 307
f 240 307 300
f 240 300 301
f 240 301 302
f 240 302 303
f 240 303 304
f 240 304 296
f 241 295 305
f 241 305 306
f 241 306 307
f 242 299 308
f 243 309 247
f 244 310 311
f 244 311 245
f 244 247 309
f 244 309 310
f 245 311 246
f 246 311 312
f 246 312 313
f 246 313 249
f 248 252 253
f 249 313 314
f 249 314 250
f 250 314 251
f 251 314 315
f 251 315 316
f 251 316 252
f 252 316 317
f 252 317 318
f 252 318 319
f 252 319 320
f 252 320 321
f 252 321 322
f 252 322 323
f 252 323 324
f 252 324 325
f 252 325 253
f 253 325 256
f 253 256 255
f 253 255 254
f 256 325 324
f 256 324 323
f 256 323 326
f 256 326 257
f 257 326 327
f 257 327 328
f 257 328 258
f 258 328 329
f 258 329 330
f 258 330 331
f 258 331 332
f 258 332 259
f 261 333 262
f 262 333 399
f 262 399 334
f 262 334 335
f 262 335 263
f 263 335 336
f 263 336 264
f 264 336 337
f 264 337 265
f 265 337 338
f 265 338 267
f 266 267 339
f 266 339 268
f 267 338 339
f 268 339 269
f 269 339 340
f 269 340 341
f 269 341 282
f 270 342 271
f 270 276 343
f 270 343 342
f 271 342 344
f 271 344 272
f 272 344 345
f 272 345 273
f 273 345 346
f 275 279 276
f 276 279 347
f 276 347 343
f 277 281 278
f 278 281 348
f 278 348 349
f 278 349 350
f 278 350 280
f 279 280 351
f 279 351 352
f 279 352 347
f 280 350 353
f 280 353 354
f 280 354 351
f 281 285 355
f 281 355 348
f 282 341 283
f 283 356 284
f 283 341 357
f 283 357 358
f 283 358 359
f 283 359 360
f 283 360 356
f 284 356 361
f 284 361 285
f 285 361 355
f 286 362 363
f 286 363 287
f 290 364 365
f 290 365 291
f 291 365 292
f 292 365 366
f 292 366 294
f 292 294 293
f 295 367 305
f 296 368 297
f 296 304 369
f 296 369 368
f 297 370 371
f 297 371 298
f 297 368 370
f 298 371 299
f 299 371 308
f 300 307 372
f 300 372 301
f 301 372 302
f 302 372 373
f 302 373 374
f 302 374 375
f 302 375 303
f 303 376 304
f 303 375 376
f 304 376 369
f 305 367 372
f 305 372 306
f 306 372 307
f 308 371 378
f 308 378 377
f 309 379 310
f 310 380 311
f 310 379 381
f 310 381 380
f 311 380 382
f 311 382 312
f 312 382 313
f 313 382 314
f 314 382 383
f 314 383 315
f 315 383 384
f 315 384 317
f 315 317 316
f 317 384 385
f 317 385 318
f 318 385 319
f 319 385 386
f 319 386 387
f 319 387 320
f 320 322 321
f 320 387 388
f 320 388 389
f 320 389 390
f 320 390 391
f 320 391 322
f 322 392 323
f 322 391 393
f 322 393 392
f 323 392 326
f 326 392 327
f 327 392 394
f 327 394 328
f 328 394 395
f 328 395 329
f 329 395 396
f 329 396 397
f 329 397 330
f 330 397 398
f 334 399 469
f 334 469 400
f 334 400 401
f 334 401 335
f 335 401 402
f 335 402 336
f 336 402 403
f 336 403 337
f 337 404 338
f 337 403 404
f 338 405 339
f 338 404 391
f 338 391 406
f 338 406 407
f 338 407 405
f 339 405 340
f 340 405 408
f 340 408 409
f 340 409 341
f 341 409 357
f 342 410 344
f 342 343 411
f 342 411 412
f 342 412 410
f 343 347 411
f 344 410 413
f 344 413 414
f 344 414 415
f 344 415 345
f 345 415 346
f 346 415 416
f 347 352 411
f 348 355 349
f 349 353 350
f 349 355 417
f 349 417 418
f 349 418 419
f 349 419 353
f 351 354 420
f 351 420 421
f 351 421 422
f 351 422 352
f 352 422 411
f 353 420 354
f 353 419 423
f 353 423 420
f 355 361 417
f 356 424 361
f 356 360 424
f 357 409 425
f 357 425 358
f 358 425 426
f 358 426 427
f 358 427 428
f 358 428 429
f 358 429 430
f 358 430 359
f 359 430 360
f 360 430 431
f 360 431 424
f 361 424 417
f 362 432 433
f 362 433 434
f 362 434 363
f 364 435 436
f 364 436 365
f 365 436 437
f 365 437 438
f 365 438 366
f 366 438 439
f 368 440 370
f 368 369 441
f 368 441 440
f 369 376 442
f 369 442 441
f 370 378 371
f 370 440 378
f 372 443 373
f 373 443 444
f 373 444 445
f 373 445 374
f 374 445 375
f 375 445 446
f 375 446 447
f 375 447 448
f 375 448 376
f 376 448 449
f 376 449 450
f 376 450 442
f 377 451 452
f 377 378 440
f 377 440 451
f 379 453 381
f 380 381 454
f 380 454 455
f 380 455 456
f 380 456 457
f 380 457 382
f 381 453 458
f 381 458 454
f 382 459 460
f 382 460 383
f 382 457 456
f 382 456 461
f 382 461 459
f 383 460 462
f 383 462 428
f 383 428 427
f 383 427 426
f 383 426 463
f 383 463 386
f 383 386 385
f 383 385 384
f 386 463 464
f 386 464 408
f 386 408 387
f 387 408 388
f 388 408 389
f 389 408 407
f 389 407 406
f 389 406 390
f 390 406 391
f 391 404 403
f 391 403 465
f 391 465 393
f 392 393 403
f 392 403 394
f 393 465 403
f 394 403 466
f 394 466 396
f 394 396 395
f 396 466 467
f 396 467 401
f 396 401 400
f 396 400 397
f 397 400 468
f 397 468 398
f 400 469 468
f 401 467 402
f 402 467 403
f 403 467 466
f 405 407 408
f 408 464 409
f 409 464 425
f 410 470 471
f 410 471 413
f 410 412 470
f 411 422 472
f 411 472 473
f 411 473 412
f 412 473 470
f 413 471 474
f 413 474 475
f 413 475 414
f 414 416 415
f 414 475 476
f 417 424 418
f 418 424 477
f 418 477 478
f 418 478 479
f 418 479 419
f 419 479 423
f 420 423 480
f 420 480 421
f 421 481 482
f 421 482 422
f 421 480 481
f 422 482 472
f 423 479 483
f 423 483 480
f 424 431 484
f 424 484 477
f 425 464 426
f 426 464 463
f 428 462 459
f 428 459 485
f 428 485 429
f 429 485 486
f 429 486 430
f 430 487 431
f 430 486 488
f 430 488 489
f 430 489 487
f 431 487 490
f 431 490 477
f 431 477 484
f 432 491 433
f 433 491 493
f 433 493 492
f 435 494 436
f 436 494 437
f 437 494 495
f 437 495 438
f 438 495 439
f 439 495 497
f 439 497 496
f 440 498 451
f 440 441 498
f 441 442 499
f 441 499 500
f 441 500 501
f 441 501 498
f 442 450 502
f 442 502 499
f 444 503 445
f 445 503 446
f 446 503 504
f 446 504 447
f 447 504 505
f 447 505 506
f 447 506 448
f 448 506 449
f 449 506 507
f 449 507 508
f 449 508 450
f 450 508 509
f 450 509 502
f 451 510 452
f 451 498 510
f 452 511 512
f 452 512 513
f 452 510 514
f 452 514 515
f 452 515 511
f 454 458 455
f 455 458 516
f 455 516 517
f 455 517 456
f 456 518 459
f 456 459 461
f 456 517 518
f 459 462 460
f 459 518 485
f 470 519 471
f 470 473 520
f 470 520 521
f 470 521 519
f 471 519 522
f 471 522 474
f 472 482 523
f 472 523 473
f 473 523 520
f 474 522 524
f 474 524 525
f 474 525 475
f 475 525 526
f 475 526 476
f 476 526 525
f 477 490 527
f 477 527 528
f 477 528 478
f 478 528 529
f 478 529 479
f 479 529 530
f 479 530 483
f 480 483 531
f 480 531 532
f 480 532 481
f 481 532 482
f 482 532 533
f 482 533 534
f 482 534 523
f 483 530 535
f 483 535 531
f 485 518 536
f 485 536 486
f 486 536 518
f 486 518 517
f 486 517 516
f 486 516 537
f 486 537 538
f 486 538 539
f 486 539 540
f 486 540 541
f 486 541 542
f 486 542 488
f 487 489 543
f 487 543 544
f 487 544 490
f 488 542 543
f 488 543 489
f 490 544 527
f 492 493 545
f 493 546 547
f 493 547 545
f 494 548 495
f 495 548 497
f 496 549 550
f 496 497 548
f 496 548 551
f 496 551 552
f 496 552 549
f 498 501 514
f 498 514 510
f 499 553 514
f 499 514 500
f 499 502 553
f 500 514 501
f 502 554 553
f 502 509 555
f 502 555 556
f 502 556 554
f 503 557 504
f 504 557 505
f 505 558 559
f 505 559 506
f 505 557 560
f 505 560 561
f 505 561 558
f 506 562 507
f 506 559 562
f 507 562 509
f 507 509 508
f 509 563 555
f 509 562 564
f 509 564 563
f 511 565 512
f 511 515 565
f 512 565 513
f 514 553 515
f 515 553 566
f 515 566 567
f 515 567 568
f 515 568 565
f 519 569 570
f 519 570 522
f 519 521 571
f 519 571 569
f 520 572 521
f 520 523 573
f 520 573 572
f 521 572 573
f 521 573 571
f 522 574 524
f 522 570 574
f 523 534 573
f 524 574 575
f 527 544 576
f 527 576 577
f 527 577 578
f 527 578 528
f 528 578 579
f 528 579 580
f 528 580 581
f 528 581 529
f 529 581 582
f 529 582 530
f 530 582 535
f 531 583 532
f 531 535 584
f 531 584 583
f 532 583 585
f 532 585 533
f 533 586 587
f 533 587 534
f 533 585 586
f 534 587 573
f 535 582 588
f 535 588 584
f 538 589 539
f 539 589 590
f 539 590 540
f 540 590 591
f 540 591 541
f 541 592 544
f 541 544 543
f 541 543 542
f 541 591 592
f 544 592 593
f 544 593 576
f 546 594 595
f 546 595 596
f 546 596 547
f 547 596 595
f 549 597 550
f 550 597 599
f 550 599 598
f 553 554 566
f 554 600 566
f 554 556 563
f 554 563 601
f 554 601 600
f 555 563 556
f 557 602 560
f 558 561 602
f 558 602 603
f 558 603 604
f 558 604 605
f 558 605 562
f 558 562 559
f 560 602 561
f 562 606 564
f 562 605 606
f 563 564 601
f 564 606 607
f 564 607 601
f 565 608 609
f 565 568 608
f 566 600 610
f 566 610 567
f 567 610 611
f 567 611 609
f 567 609 608
f 567 608 568
f 569 571 573
f 569 573 612
f 569 612 570
f 570 604 613
f 570 613 574
f 570 612 614
f 570 614 604
f 573 587 615
f 573 615 616
f 573 616 617
f 573 617 607
f 573 607 612
f 574 613 618
f 574 618 575
f 576 593 592
f 576 592 619
f 576 619 591
f 576 591 620
f 576 620 621
f 576 621 622
f 576 622 623
f 576 623 577
f 577 623 624
f 577 624 625
f 577 625 626
f 577 626 579
f 577 579 578
f 579 626 627
f 579 627 580
f 580 627 581
f 581 627 628
f 581 628 582
f 582 628 588
f 583 584 629
f 583 629 630
f 583 630 585
f 584 631 629
f 584 588 631
f 585 630 615
f 585 615 586
f 586 615 587
f 588 628 632
f 588 632 631
f 589 620 590
f 590 620 591
f 591 619 592
f 594 633 634
f 594 634 635
f 594 635 636
f 594 636 637
f 594 637 595
f 597 638 599
f 598 599 640
f 598 640 641
f 598 641 642
f 598 642 643
f 598 643 639
f 599 638 640
f 600 615 610
f 600 601 607
f 600 607 617
f 600 617 616
f 600 616 615
f 602 618 603
f 603 618 604
f 604 618 613
f 604 614 607
f 604 607 606
f 604 606 605
f 607 614 612
f 609 644 645
f 609 645 646
f 609 611 644
f 610 615 630
f 610 630 629
f 610 629 647
f 610 647 611
f 611 648 649
f 611 649 645
f 611 645 644
f 611 647 648
f 620 650 622
f 620 622 621
f 622 650 651
f 622 651 624
f 622 624 623
f 624 651 652
f 624 652 653
f 624 653 625
f 625 654 626
f 625 653 654
f 626 655 627
f 626 654 655
f 627 655 628
f 628 656 657
f 628 657 632
f 628 655 658
f 628 658 656
f 629 631 659
f 629 659 648
f 629 648 647
f 631 632 660
f 631 660 659
f 632 657 660
f 633 661 634
f 634 636 635
f 634 661 662
f 639 643 663
f 643 664 665
f 643 665 663
f 645 649 648
f 645 648 666
f 645 666 646
f 646 666 667
f 648 659 666
f 652 668 669
f 652 669 658
f 652 658 653
f 653 658 654
f 654 658 655
f 656 660 657
f 656 658 670
f 656 670 660
f 658 669 671
f 658 671 670
f 659 660 672
f 659 672 673
f 659 673 666
f 660 670 674
f 660 674 672
f 661 675 676
f 661 676 662
f 663 665 677
f 663 677 675
f 664 676 677
f 664 677 665
f 666 673 667
f 667 678 671
f 667 673 678
f 668 671 669
f 670 671 674
f 671 678 672
f 671 672 674
f 672 678 673
f 675 677 676

