# https://github.com/mikedh/trimesh
v 0.00009929 0.00335028 0.00722271
v 0.00000413 0.00321166 0.00722271
v -0.00113545 0.00335028 0.00600983
v -0.01188175 0.00335028 0.00722271
v -0.00615887 -0.00074359 0.00600983
v -0.00643961 -0.00144154 0.00722271
v -0.00643961 -0.00097013 0.00600983
v -0.01191386 0.00335028 0.00600983
v -0.01189721 0.00335028 0.00681937
v -0.01191743 0.00274942 0.00722271
v -0.00711883 -0.00178675 0.00722271
v -0.00715333 -0.00137574 0.00600983
v -0.00691304 -0.00124521 0.00600983
v -0.00669179 -0.00112439 0.00600983
v -0.00657045 -0.00105050 0.00600983
v -0.01191624 0.00331846 0.00600983
v -0.01191386 0.00335028 0.00625110
v -0.01189959 0.00335028 0.00675394
v -0.01202211 0.00127260 0.00675394
v -0.01194122 0.00250993 0.00696802
v -0.01197691 0.00174132 0.00722271
v -0.00754945 -0.00190217 0.00722271
v -0.00766721 -0.00157046 0.00600983
v -0.00753041 -0.00153324 0.00600983
v -0.00740432 -0.00149818 0.00600983
v -0.01200903 0.00177584 0.00600983
v -0.01195312 0.00269818 0.00625110
v -0.01203877 0.00127260 0.00625110
v -0.01205185 0.00076990 0.00625110
v -0.01200546 0.00123862 0.00722271
v -0.01200427 0.00127260 0.00722271
v -0.00799552 -0.00199333 0.00722271
v -0.00817038 -0.00170476 0.00600983
v -0.00790869 -0.00163518 0.00600983
v -0.01203877 0.00127260 0.00600983
v -0.01204590 0.00103150 0.00600983
v -0.01205304 0.00076990 0.00600983
v -0.01203282 0.00076990 0.00675394
v -0.01199594 0.00037831 0.00625110
v -0.01198643 0.00039881 0.00675394
v -0.01197453 0.00042740 0.00722271
v -0.01201379 0.00076990 0.00722271
v -0.00842019 -0.00207639 0.00722271
v -0.00841186 -0.00175115 0.00600983
v -0.01199713 0.00037885 0.00600983
v -0.01189126 0.00012643 0.00625110
v -0.01188532 0.00014692 0.00675394
v -0.01188175 0.00019277 0.00722271
v -0.00867356 -0.00211253 0.00722271
v -0.00867356 -0.00180131 0.00600983
v -0.01194241 0.00024779 0.00600983
v -0.01188888 0.00012750 0.00600983
v -0.01164741 -0.00023550 0.00600983
v -0.01164860 -0.00023550 0.00625110
v -0.01162005 -0.00023064 0.00722271
v -0.01187461 0.00017605 0.00722271
v -0.00884961 -0.00213410 0.00722271
v -0.00917674 -0.00184877 0.00600983
v -0.01144875 -0.00049925 0.00600983
v -0.01144994 -0.00050033 0.00625110
v -0.01159745 -0.00028404 0.00676701
v -0.01143329 -0.00047876 0.00722271
v -0.00917674 -0.00215946 0.00722271
v -0.00967991 -0.00185956 0.00600983
v -0.01124178 -0.00075060 0.00600983
v -0.01124178 -0.00075168 0.00625110
v -0.01098127 -0.00103755 0.00722271
v -0.01122988 -0.00073550 0.00722271
v -0.01144400 -0.00049278 0.00660814
v -0.01142259 -0.00049278 0.00722271
v -0.00934089 -0.00214327 0.00722271
v -0.00969299 -0.00206884 0.00722271
v -0.00992020 -0.00179592 0.00600983
v -0.01112163 -0.00089300 0.00600983
v -0.01099078 -0.00104564 0.00600983
v -0.01098959 -0.00104510 0.00625110
v -0.01098602 -0.00104079 0.00675394
v -0.01076001 -0.00127164 0.00722271
v -0.01018546 -0.00178513 0.00722271
v -0.01033297 -0.00164004 0.00600983
v -0.01018190 -0.00172634 0.00600983
v -0.01074574 -0.00129699 0.00600983
v -0.01074574 -0.00129645 0.00625110
v -0.01074455 -0.00129268 0.00675394
v -0.01074336 -0.00128890 0.00722271
v -0.01049118 -0.00154618 0.00722271
v -0.01049474 -0.00154672 0.00625110
v -0.01049474 -0.00154672 0.00600983
v -0.01062559 -0.00141673 0.00600983
f 1 2 3
f 1 3 8
f 1 8 17
f 1 17 18
f 1 18 9
f 1 9 4
f 1 4 10
f 1 10 21
f 1 21 31
f 1 31 30
f 1 30 42
f 1 42 41
f 1 41 48
f 1 48 56
f 1 56 55
f 1 55 62
f 1 62 70
f 1 70 68
f 1 68 67
f 1 67 78
f 1 78 85
f 1 85 86
f 1 86 79
f 1 79 72
f 1 72 71
f 1 71 63
f 1 63 57
f 1 57 49
f 1 49 43
f 1 43 32
f 1 32 22
f 1 22 11
f 1 11 6
f 1 6 2
f 2 5 3
f 2 6 7
f 2 7 5
f 3 5 7
f 3 7 15
f 3 15 14
f 3 14 13
f 3 13 12
f 3 12 25
f 3 25 24
f 3 24 23
f 3 23 34
f 3 34 33
f 3 33 44
f 3 44 50
f 3 50 58
f 3 58 64
f 3 64 73
f 3 73 81
f 3 81 80
f 3 80 88
f 3 88 89
f 3 89 82
f 3 82 75
f 3 75 74
f 3 74 65
f 3 65 59
f 3 59 53
f 3 53 52
f 3 52 51
f 3 51 45
f 3 45 37
f 3 37 36
f 3 36 35
f 3 35 26
f 3 26 16
f 3 16 8
f 4 9 10
f 6 11 12
f 6 12 13
f 6 13 14
f 6 14 15
f 6 15 7
f 8 16 17
f 9 18 19
f 9 19 20
f 9 20 10
f 10 20 21
f 11 22 23
f 11 23 24
f 11 24 25
f 11 25 12
f 16 26 27
f 16 27 17
f 17 27 18
f 18 27 28
f 18 28 19
f 19 28 29
f 19 29 30
f 19 30 31
f 19 31 21
f 19 21 20
f 22 32 33
f 22 33 34
f 22 34 23
f 26 35 28
f 26 28 27
f 28 35 36
f 28 36 37
f 28 37 29
f 29 38 30
f 29 37 39
f 29 39 40
f 29 40 41
f 29 41 38
f 30 38 42
f 32 43 33
f 33 43 44
f 37 45 39
f 38 41 42
f 39 45 46
f 39 46 47
f 39 47 40
f 40 47 48
f 40 48 41
f 43 49 50
f 43 50 44
f 45 51 46
f 46 52 53
f 46 53 54
f 46 54 55
f 46 55 47
f 46 51 52
f 47 55 56
f 47 56 48
f 49 57 50
f 50 57 58
f 53 59 60
f 53 60 54
f 54 60 61
f 54 61 55
f 55 61 62
f 57 63 58
f 58 63 64
f 59 65 60
f 60 65 66
f 60 66 67
f 60 67 68
f 60 68 69
f 60 69 61
f 61 69 62
f 62 69 70
f 63 71 64
f 64 71 72
f 64 72 73
f 65 74 66
f 66 74 75
f 66 75 76
f 66 76 77
f 66 77 67
f 67 77 78
f 68 70 69
f 72 79 80
f 72 80 81
f 72 81 73
f 75 82 83
f 75 83 76
f 76 83 84
f 76 84 85
f 76 85 78
f 76 78 77
f 79 86 87
f 79 87 88
f 79 88 80
f 82 89 87
f 82 87 83
f 83 87 86
f 83 86 84
f 84 86 85
f 87 89 88

