solid AssimpScene
 facet normal 0 0 0
  outer loop
  vertex -0.00551095186 0.000358367281 -0.00558019942
  vertex -0.00700520584 -0.00356105692 -0.00808188878
  vertex -0.00666361442 -0.00366160483 -0.00348755508
  endloop
 endfacet

 facet normal 0 0 0
  outer loop
  vertex -0.00551095186 0.000358367281 -0.00558019942
  vertex -0.00666361442 -0.00366160483 -0.00348755508
  vertex -0.0053732926 -0.000848013849 -0.00121728482
  endloop
 endfacet

 facet normal 0 0 0
  outer loop
  vertex -0.00551095186 0.000358367281 -0.00558019942
  vertex -0.0053732926 -0.000848013849 -0.00121728482
  vertex -0.00473527424 0.00166410068 -0.00251595164
  endloop
 endfacet

 facet normal 0 0 0
  outer loop
  vertex 0.00520091923 -0.0312165432 -0.0231589302
  vertex 0.00549996644 -0.00681297667 -0.00292255613
  vertex 0.000750756415 -0.0376971401 -0.0158678312
  endloop
 endfacet

 facet normal 0 0 0
  outer loop
  vertex -0.00901557691 -0.0291641671 -0.0205111075
  vertex -0.00563095789 -0.037209224 -0.0157919899
  vertex -0.00666361442 -0.00366160483 -0.00348755508
  endloop
 endfacet

 facet normal 0 0 0
  outer loop
  vertex -0.00473527424 0.00166410068 -0.00251595164
  vertex -0.000911969517 0.00243228697 -0.00197855849
  vertex -0.00551095186 0.000358367281 -0.00558019942
  endloop
 endfacet

 facet normal 0 0 0
  outer loop
  vertex -0.00772868283 -0.0122269038 -0.0167476311
  vertex -0.00547073502 -0.0110140685 -0.0187753346
  vertex -0.00817349087 -0.0310819447 -0.0272689518
  endloop
 endfacet

 facet normal 0 0 0
  outer loop
  vertex 0.000227326134 -0.0131704845 -0.0209112857
  vertex -0.00547073502 -0.0110140685 -0.0187753346
  vertex 0.00116387114 -0.00643442664 -0.0146970227
  endloop
 endfacet

 facet normal 0 0 0
  outer loop
  vertex 0.000227326134 -0.0131704845 -0.0209112857
  vertex 0.00116387114 -0.00643442664 -0.0146970227
  vertex 0.00468076859 -0.00544017367 -0.0122128353
  endloop
 endfacet

 facet normal 0 0 0
  outer loop
  vertex 0.000227326134 -0.0131704845 -0.0209112857
  vertex 0.00468076859 -0.00544017367 -0.0122128353
  vertex 0.00510315457 -0.0139189698 -0.0193006657
  endloop
 endfacet

 facet normal 0 0 0
  outer loop
  vertex 0.000227326134 -0.0131704845 -0.0209112857
  vertex 0.00510315457 -0.0139189698 -0.0193006657
  vertex 0.00272473507 -0.0317505784 -0.0282653198
  endloop
 endfacet

 facet normal 0 0 0
  outer loop
  vertex -0.00346486317 -0.0307539292 -0.0289224926
  vertex -0.00817349087 -0.0310819447 -0.0272689518
  vertex -0.00547073502 -0.0110140685 -0.0187753346
  endloop
 endfacet

 facet normal 0 0 0
  outer loop
  vertex -0.00346486317 -0.0307539292 -0.0289224926
  vertex -0.00547073502 -0.0110140685 -0.0187753346
  vertex 0.000227326134 -0.0131704845 -0.0209112857
  endloop
 endfacet

 facet normal 0 0 0
  outer loop
  vertex -0.00346486317 -0.0307539292 -0.0289224926
  vertex 0.000227326134 -0.0131704845 -0.0209112857
  vertex 0.00272473507 -0.0317505784 -0.0282653198
  endloop
 endfacet

 facet normal 0 0 0
  outer loop
  vertex 0.00272473507 -0.0317505784 -0.0282653198
  vertex 0.000915332232 -0.0395160243 -0.0270378198
  vertex -0.00501508452 -0.0387311354 -0.0275211241
  endloop
 endfacet

 facet normal 0 0 0
  outer loop
  vertex 0.00272473507 -0.0317505784 -0.0282653198
  vertex -0.00501508452 -0.0387311354 -0.0275211241
  vertex -0.00346486317 -0.0307539292 -0.0289224926
  endloop
 endfacet

 facet normal 0 0 0
  outer loop
  vertex -0.00346486317 -0.0307539292 -0.0289224926
  vertex -0.00501508452 -0.0387311354 -0.0275211241
  vertex -0.00817349087 -0.0310819447 -0.0272689518
  endloop
 endfacet

 facet normal 0 0 0
  outer loop
  vertex -0.00537322834 -0.00467581581 -0.00155475608
  vertex -0.00666361442 -0.00366160483 -0.00348755508
  vertex -0.00563095789 -0.037209224 -0.0157919899
  endloop
 endfacet

 facet normal 0 0 0
  outer loop
  vertex 0.00145803881 0.000118201388 -0.00707782386
  vertex -0.00551095186 0.000358367281 -0.00558019942
  vertex -0.000911969517 0.00243228697 -0.00197855849
  endloop
 endfacet

 facet normal 0 0 0
  outer loop
  vertex 0.00145803881 0.000118201388 -0.00707782386
  vertex -0.000911969517 0.00243228697 -0.00197855849
  vertex 0.00397634739 0.00164577737 -0.00228660717
  endloop
 endfacet

 facet normal 0 0 0
  outer loop
  vertex 0.00145803881 0.000118201388 -0.00707782386
  vertex 0.00397634739 0.00164577737 -0.00228660717
  vertex 0.00582278008 -0.000480864983 -0.00511755794
  endloop
 endfacet

 facet normal 0 0 0
  outer loop
  vertex 0.000625370885 -0.00743630622 -0.00163019868
  vertex -0.00262307562 -0.00098210678 0.000132853369
  vertex -0.00537322834 -0.00467581581 -0.00155475608
  endloop
 endfacet

 facet normal 0 0 0
  outer loop
  vertex 0.000625370885 -0.00743630622 -0.00163019868
  vertex -0.00537322834 -0.00467581581 -0.00155475608
  vertex -0.00563095789 -0.037209224 -0.0157919899
  endloop
 endfacet

 facet normal 0 0 0
  outer loop
  vertex 0.000625370885 -0.00743630622 -0.00163019868
  vertex -0.00563095789 -0.037209224 -0.0157919899
  vertex 0.000750756415 -0.0376971401 -0.0158678312
  endloop
 endfacet

 facet normal 0 0 0
  outer loop
  vertex 0.0046897484 -0.0325046107 -0.0261585452
  vertex 0.00520091923 -0.0312165432 -0.0231589302
  vertex 0.000383189443 -0.0431925431 -0.0238447897
  endloop
 endfacet

 facet normal 0 0 0
  outer loop
  vertex 0.0046897484 -0.0325046107 -0.0261585452
  vertex 0.000383189443 -0.0431925431 -0.0238447897
  vertex 0.000915332232 -0.0395160243 -0.0270378198
  endloop
 endfacet

 facet normal 0 0 0
  outer loop
  vertex 0.0046897484 -0.0325046107 -0.0261585452
  vertex 0.000915332232 -0.0395160243 -0.0270378198
  vertex 0.00272473507 -0.0317505784 -0.0282653198
  endloop
 endfacet

 facet normal 0 0 0
  outer loop
  vertex 0.0046897484 -0.0325046107 -0.0261585452
  vertex 0.00272473507 -0.0317505784 -0.0282653198
  vertex 0.00510315457 -0.0139189698 -0.0193006657
  endloop
 endfacet

 facet normal 0 0 0
  outer loop
  vertex -0.00596827129 -0.0422919169 -0.0215997305
  vertex -0.00563095789 -0.037209224 -0.0157919899
  vertex -0.00901557691 -0.0291641671 -0.0205111075
  endloop
 endfacet

 facet normal 0 0 0
  outer loop
  vertex -0.00596827129 -0.0422919169 -0.0215997305
  vertex -0.00628378335 -0.0424656719 -0.0237888396
  vertex 0.000383189443 -0.0431925431 -0.0238447897
  endloop
 endfacet

 facet normal 0 0 0
  outer loop
  vertex -0.00596827129 -0.0422919169 -0.0215997305
  vertex 0.00041847353 -0.0427034684 -0.0216105059
  vertex 0.000750756415 -0.0376971401 -0.0158678312
  endloop
 endfacet

 facet normal 0 0 0
  outer loop
  vertex -0.00596827129 -0.0422919169 -0.0215997305
  vertex 0.000750756415 -0.0376971401 -0.0158678312
  vertex -0.00563095789 -0.037209224 -0.0157919899
  endloop
 endfacet

 facet normal 0 0 0
  outer loop
  vertex 0.00394660886 -0.00280800671 -0.000362925057
  vertex -0.00262307562 -0.00098210678 0.000132853369
  vertex 0.000625370885 -0.00743630622 -0.00163019868
  endloop
 endfacet

 facet normal 0 0 0
  outer loop
  vertex 0.00394660886 -0.00280800671 -0.000362925057
  vertex 0.000625370885 -0.00743630622 -0.00163019868
  vertex 0.000750756415 -0.0376971401 -0.0158678312
  endloop
 endfacet

 facet normal 0 0 0
  outer loop
  vertex 0.00394660886 -0.00280800671 -0.000362925057
  vertex 0.000750756415 -0.0376971401 -0.0158678312
  vertex 0.00549996644 -0.00681297667 -0.00292255613
  endloop
 endfacet

 facet normal 0 0 0
  outer loop
  vertex -0.0053732926 -0.000848013849 -0.00121728482
  vertex -0.00666361442 -0.00366160483 -0.00348755508
  vertex -0.00537322834 -0.00467581581 -0.00155475608
  endloop
 endfacet

 facet normal 0 0 0
  outer loop
  vertex -0.0053732926 -0.000848013849 -0.00121728482
  vertex -0.00537322834 -0.00467581581 -0.00155475608
  vertex -0.00262307562 -0.00098210678 0.000132853369
  endloop
 endfacet

 facet normal 0 0 0
  outer loop
  vertex -0.0053732926 -0.000848013849 -0.00121728482
  vertex -0.00262307562 -0.00098210678 0.000132853369
  vertex -0.00473527424 0.00166410068 -0.00251595164
  endloop
 endfacet

 facet normal 0 0 0
  outer loop
  vertex -0.00916939415 -0.0315608643 -0.0250224881
  vertex -0.00628378335 -0.0424656719 -0.0237888396
  vertex -0.00596827129 -0.0422919169 -0.0215997305
  endloop
 endfacet

 facet normal 0 0 0
  outer loop
  vertex -0.00916939415 -0.0315608643 -0.0250224881
  vertex -0.00596827129 -0.0422919169 -0.0215997305
  vertex -0.00901557691 -0.0291641671 -0.0205111075
  endloop
 endfacet

 facet normal 0 0 0
  outer loop
  vertex -0.00916939415 -0.0315608643 -0.0250224881
  vertex -0.00772868283 -0.0122269038 -0.0167476311
  vertex -0.00817349087 -0.0310819447 -0.0272689518
  endloop
 endfacet

 facet normal 0 0 0
  outer loop
  vertex -0.00916939415 -0.0315608643 -0.0250224881
  vertex -0.00817349087 -0.0310819447 -0.0272689518
  vertex -0.00628378335 -0.0424656719 -0.0237888396
  endloop
 endfacet

 facet normal 0 0 0
  outer loop
  vertex 0.00643583899 -0.00759893749 -0.0109846825
  vertex 0.00549996644 -0.00681297667 -0.00292255613
  vertex 0.00520091923 -0.0312165432 -0.0231589302
  endloop
 endfacet

 facet normal 0 0 0
  outer loop
  vertex 0.00643583899 -0.00759893749 -0.0109846825
  vertex 0.00520091923 -0.0312165432 -0.0231589302
  vertex 0.0046897484 -0.0325046107 -0.0261585452
  endloop
 endfacet

 facet normal 0 0 0
  outer loop
  vertex 0.00643583899 -0.00759893749 -0.0109846825
  vertex 0.0046897484 -0.0325046107 -0.0261585452
  vertex 0.00510315457 -0.0139189698 -0.0193006657
  endloop
 endfacet

 facet normal 0 0 0
  outer loop
  vertex 0.00041847353 -0.0427034684 -0.0216105059
  vertex -0.00596827129 -0.0422919169 -0.0215997305
  vertex 0.000383189443 -0.0431925431 -0.0238447897
  endloop
 endfacet

 facet normal 0 0 0
  outer loop
  vertex 0.00041847353 -0.0427034684 -0.0216105059
  vertex 0.000383189443 -0.0431925431 -0.0238447897
  vertex 0.00520091923 -0.0312165432 -0.0231589302
  endloop
 endfacet

 facet normal 0 0 0
  outer loop
  vertex 0.00041847353 -0.0427034684 -0.0216105059
  vertex 0.00520091923 -0.0312165432 -0.0231589302
  vertex 0.000750756415 -0.0376971401 -0.0158678312
  endloop
 endfacet

 facet normal 0 0 0
  outer loop
  vertex 0.00567970611 -0.00158629543 -0.00193976681
  vertex 0.00582278008 -0.000480864983 -0.00511755794
  vertex 0.00397634739 0.00164577737 -0.00228660717
  endloop
 endfacet

 facet normal 0 0 0
  outer loop
  vertex 0.00567970611 -0.00158629543 -0.00193976681
  vertex 0.00397634739 0.00164577737 -0.00228660717
  vertex 0.00426473748 -0.000146541512 -0.000822239264
  endloop
 endfacet

 facet normal 0 0 0
  outer loop
  vertex 0.00567970611 -0.00158629543 -0.00193976681
  vertex 0.00426473748 -0.000146541512 -0.000822239264
  vertex 0.00394660886 -0.00280800671 -0.000362925057
  endloop
 endfacet

 facet normal 0 0 0
  outer loop
  vertex 0.00567970611 -0.00158629543 -0.00193976681
  vertex 0.00394660886 -0.00280800671 -0.000362925057
  vertex 0.00549996644 -0.00681297667 -0.00292255613
  endloop
 endfacet

 facet normal 0 0 0
  outer loop
  vertex 0.00567970611 -0.00158629543 -0.00193976681
  vertex 0.00549996644 -0.00681297667 -0.00292255613
  vertex 0.00643583899 -0.00759893749 -0.0109846825
  endloop
 endfacet

 facet normal 0 0 0
  outer loop
  vertex 0.00567970611 -0.00158629543 -0.00193976681
  vertex 0.00643583899 -0.00759893749 -0.0109846825
  vertex 0.00582278008 -0.000480864983 -0.00511755794
  endloop
 endfacet

 facet normal 0 0 0
  outer loop
  vertex -0.00520359678 -0.0417009518 -0.0258282479
  vertex -0.00628378335 -0.0424656719 -0.0237888396
  vertex -0.00817349087 -0.0310819447 -0.0272689518
  endloop
 endfacet

 facet normal 0 0 0
  outer loop
  vertex -0.00520359678 -0.0417009518 -0.0258282479
  vertex -0.00817349087 -0.0310819447 -0.0272689518
  vertex -0.00501508452 -0.0387311354 -0.0275211241
  endloop
 endfacet

 facet normal 0 0 0
  outer loop
  vertex -0.00520359678 -0.0417009518 -0.0258282479
  vertex -0.00501508452 -0.0387311354 -0.0275211241
  vertex 0.000915332232 -0.0395160243 -0.0270378198
  endloop
 endfacet

 facet normal 0 0 0
  outer loop
  vertex -0.00520359678 -0.0417009518 -0.0258282479
  vertex 0.000915332232 -0.0395160243 -0.0270378198
  vertex 0.000383189443 -0.0431925431 -0.0238447897
  endloop
 endfacet

 facet normal 0 0 0
  outer loop
  vertex -0.00520359678 -0.0417009518 -0.0258282479
  vertex 0.000383189443 -0.0431925431 -0.0238447897
  vertex -0.00628378335 -0.0424656719 -0.0237888396
  endloop
 endfacet

 facet normal 0 0 0
  outer loop
  vertex 0.00468076859 -0.00544017367 -0.0122128353
  vertex 0.00116387114 -0.00643442664 -0.0146970227
  vertex 0.00145803881 0.000118201388 -0.00707782386
  endloop
 endfacet

 facet normal 0 0 0
  outer loop
  vertex 0.00468076859 -0.00544017367 -0.0122128353
  vertex 0.00145803881 0.000118201388 -0.00707782386
  vertex 0.00582278008 -0.000480864983 -0.00511755794
  endloop
 endfacet

 facet normal 0 0 0
  outer loop
  vertex 0.00468076859 -0.00544017367 -0.0122128353
  vertex 0.00582278008 -0.000480864983 -0.00511755794
  vertex 0.00643583899 -0.00759893749 -0.0109846825
  endloop
 endfacet

 facet normal 0 0 0
  outer loop
  vertex 0.00468076859 -0.00544017367 -0.0122128353
  vertex 0.00643583899 -0.00759893749 -0.0109846825
  vertex 0.00510315457 -0.0139189698 -0.0193006657
  endloop
 endfacet

 facet normal 0 0 0
  outer loop
  vertex 6.00932763e-05 0.00094110996 -0.000320279127
  vertex -0.000911969517 0.00243228697 -0.00197855849
  vertex -0.00473527424 0.00166410068 -0.00251595164
  endloop
 endfacet

 facet normal 0 0 0
  outer loop
  vertex 6.00932763e-05 0.00094110996 -0.000320279127
  vertex -0.00473527424 0.00166410068 -0.00251595164
  vertex -0.00262307562 -0.00098210678 0.000132853369
  endloop
 endfacet

 facet normal 0 0 0
  outer loop
  vertex 6.00932763e-05 0.00094110996 -0.000320279127
  vertex -0.00262307562 -0.00098210678 0.000132853369
  vertex 0.00394660886 -0.00280800671 -0.000362925057
  endloop
 endfacet

 facet normal 0 0 0
  outer loop
  vertex 6.00932763e-05 0.00094110996 -0.000320279127
  vertex 0.00394660886 -0.00280800671 -0.000362925057
  vertex 0.00426473748 -0.000146541512 -0.000822239264
  endloop
 endfacet

 facet normal 0 0 0
  outer loop
  vertex 6.00932763e-05 0.00094110996 -0.000320279127
  vertex 0.00426473748 -0.000146541512 -0.000822239264
  vertex 0.00397634739 0.00164577737 -0.00228660717
  endloop
 endfacet

 facet normal 0 0 0
  outer loop
  vertex 6.00932763e-05 0.00094110996 -0.000320279127
  vertex 0.00397634739 0.00164577737 -0.00228660717
  vertex -0.000911969517 0.00243228697 -0.00197855849
  endloop
 endfacet

 facet normal 0 0 0
  outer loop
  vertex -0.00293954113 -0.00152772747 -0.00935091916
  vertex -0.00551095186 0.000358367281 -0.00558019942
  vertex 0.00145803881 0.000118201388 -0.00707782386
  endloop
 endfacet

 facet normal 0 0 0
  outer loop
  vertex -0.00293954113 -0.00152772747 -0.00935091916
  vertex 0.00145803881 0.000118201388 -0.00707782386
  vertex 0.00116387114 -0.00643442664 -0.0146970227
  endloop
 endfacet

 facet normal 0 0 0
  outer loop
  vertex -0.00293954113 -0.00152772747 -0.00935091916
  vertex 0.00116387114 -0.00643442664 -0.0146970227
  vertex -0.00547073502 -0.0110140685 -0.0187753346
  endloop
 endfacet

 facet normal 0 0 0
  outer loop
  vertex -0.00293954113 -0.00152772747 -0.00935091916
  vertex -0.00547073502 -0.0110140685 -0.0187753346
  vertex -0.00551095186 0.000358367281 -0.00558019942
  endloop
 endfacet

 facet normal 0 0 0
  outer loop
  vertex -0.00700520584 -0.00356105692 -0.00808188878
  vertex -0.00551095186 0.000358367281 -0.00558019942
  vertex -0.00547073502 -0.0110140685 -0.0187753346
  endloop
 endfacet

 facet normal 0 0 0
  outer loop
  vertex -0.00700520584 -0.00356105692 -0.00808188878
  vertex -0.00547073502 -0.0110140685 -0.0187753346
  vertex -0.00772868283 -0.0122269038 -0.0167476311
  endloop
 endfacet

 facet normal 0 0 0
  outer loop
  vertex -0.00700520584 -0.00356105692 -0.00808188878
  vertex -0.00772868283 -0.0122269038 -0.0167476311
  vertex -0.00916939415 -0.0315608643 -0.0250224881
  endloop
 endfacet

 facet normal 0 0 0
  outer loop
  vertex -0.00700520584 -0.00356105692 -0.00808188878
  vertex -0.00916939415 -0.0315608643 -0.0250224881
  vertex -0.00901557691 -0.0291641671 -0.0205111075
  endloop
 endfacet

 facet normal 0 0 0
  outer loop
  vertex -0.00700520584 -0.00356105692 -0.00808188878
  vertex -0.00901557691 -0.0291641671 -0.0205111075
  vertex -0.00666361442 -0.00366160483 -0.00348755508
  endloop
 endfacet

endsolid AssimpScene
