solid AssimpScene
 facet normal 0 0 0
  outer loop
  vertex 0.00979612302 -0.0235056635 -0.0204048827
  vertex 0.00726689352 -0.00494698528 -0.00493478309
  vertex 0.00654215692 -0.0058774869 -0.00286993966
  endloop
 endfacet

 facet normal 0 0 0
  outer loop
  vertex 0.00979612302 -0.0235056635 -0.0204048827
  vertex 0.00654215692 -0.0058774869 -0.00286993966
  vertex 0.00689034117 -0.030439049 -0.012990199
  endloop
 endfacet

 facet normal 0 0 0
  outer loop
  vertex -0.00439079013 -0.0255491193 -0.0211093873
  vertex 0.000857773004 -0.0368892625 -0.0201246589
  vertex 0.000231630504 -0.0311816651 -0.0129805049
  endloop
 endfacet

 facet normal 0 0 0
  outer loop
  vertex 0.00801907945 -0.012284888 -0.0180270672
  vertex 0.00484566391 -0.0105023319 -0.0189063046
  vertex 0.00591092138 -4.41048214e-05 -0.00608891062
  endloop
 endfacet

 facet normal 0 0 0
  outer loop
  vertex 0.00801907945 -0.012284888 -0.0180270672
  vertex 0.00591092138 -4.41048214e-05 -0.00608891062
  vertex 0.00726689352 -0.00494698528 -0.00493478309
  endloop
 endfacet

 facet normal 0 0 0
  outer loop
  vertex 0.00801907945 -0.012284888 -0.0180270672
  vertex 0.00726689352 -0.00494698528 -0.00493478309
  vertex 0.00979612302 -0.0235056635 -0.0204048827
  endloop
 endfacet

 facet normal 0 0 0
  outer loop
  vertex 0.00801907945 -0.012284888 -0.0180270672
  vertex 0.00827195309 -0.0242080968 -0.0248722695
  vertex 0.00484566391 -0.0105023319 -0.0189063046
  endloop
 endfacet

 facet normal 0 0 0
  outer loop
  vertex 0.00503367977 0.00110249734 -0.00204871269
  vertex 0.00726689352 -0.00494698528 -0.00493478309
  vertex 0.00591092138 -4.41048214e-05 -0.00608891062
  endloop
 endfacet

 facet normal 0 0 0
  outer loop
  vertex 0.000131818597 -0.00164356513 -0.00957958587
  vertex 0.00591092138 -4.41048214e-05 -0.00608891062
  vertex 0.00484566391 -0.0105023319 -0.0189063046
  endloop
 endfacet

 facet normal 0 0 0
  outer loop
  vertex 0.00603664434 -0.0322497264 -0.0246853773
  vertex 0.00749846455 -0.0360032506 -0.0215267111
  vertex 0.0012568353 -0.03391416 -0.0241675898
  endloop
 endfacet

 facet normal 0 0 0
  outer loop
  vertex 0.00603664434 -0.0322497264 -0.0246853773
  vertex 0.00827195309 -0.0242080968 -0.0248722695
  vertex 0.00963695813 -0.0248196535 -0.0229714829
  endloop
 endfacet

 facet normal 0 0 0
  outer loop
  vertex 0.00603664434 -0.0322497264 -0.0246853773
  vertex 0.00963695813 -0.0248196535 -0.0229714829
  vertex 0.00749846455 -0.0360032506 -0.0215267111
  endloop
 endfacet

 facet normal 0 0 0
  outer loop
  vertex -0.00170541368 -0.0111001125 -0.0190038998
  vertex 0.000131818597 -0.00164356513 -0.00957958587
  vertex 0.00484566391 -0.0105023319 -0.0189063046
  endloop
 endfacet

 facet normal 0 0 0
  outer loop
  vertex -0.00170541368 -0.0111001125 -0.0190038998
  vertex -0.00235238997 -0.0256226789 -0.0252052024
  vertex -0.00488915714 -0.0139739392 -0.0186936967
  endloop
 endfacet

 facet normal 0 0 0
  outer loop
  vertex -0.00355191808 0.00168122258 -0.00211772253
  vertex 0.00190538028 0.00251264451 -0.00211689016
  vertex 0.000131818597 -0.00164356513 -0.00957958587
  endloop
 endfacet

 facet normal 0 0 0
  outer loop
  vertex -0.00355191808 0.00168122258 -0.00211772253
  vertex 0.000131818597 -0.00164356513 -0.00957958587
  vertex -0.0055279932 9.43140458e-06 -0.00440494064
  endloop
 endfacet

 facet normal 0 0 0
  outer loop
  vertex 0.0074599958 -0.0356216095 -0.0187144913
  vertex 0.000857773004 -0.0368892625 -0.0201246589
  vertex 0.00749846455 -0.0360032506 -0.0215267111
  endloop
 endfacet

 facet normal 0 0 0
  outer loop
  vertex 0.0074599958 -0.0356216095 -0.0187144913
  vertex 0.00749846455 -0.0360032506 -0.0215267111
  vertex 0.00963695813 -0.0248196535 -0.0229714829
  endloop
 endfacet

 facet normal 0 0 0
  outer loop
  vertex 0.0074599958 -0.0356216095 -0.0187144913
  vertex 0.00963695813 -0.0248196535 -0.0229714829
  vertex 0.00979612302 -0.0235056635 -0.0204048827
  endloop
 endfacet

 facet normal 0 0 0
  outer loop
  vertex 0.0074599958 -0.0356216095 -0.0187144913
  vertex 0.00979612302 -0.0235056635 -0.0204048827
  vertex 0.00689034117 -0.030439049 -0.012990199
  endloop
 endfacet

 facet normal 0 0 0
  outer loop
  vertex 0.0074599958 -0.0356216095 -0.0187144913
  vertex 0.00689034117 -0.030439049 -0.012990199
  vertex 0.000231630504 -0.0311816651 -0.0129805049
  endloop
 endfacet

 facet normal 0 0 0
  outer loop
  vertex 0.0074599958 -0.0356216095 -0.0187144913
  vertex 0.000231630504 -0.0311816651 -0.0129805049
  vertex 0.000857773004 -0.0368892625 -0.0201246589
  endloop
 endfacet

 facet normal 0 0 0
  outer loop
  vertex 0.00311247678 -0.0242865663 -0.0260840822
  vertex -0.00235238997 -0.0256226789 -0.0252052024
  vertex -0.00170541368 -0.0111001125 -0.0190038998
  endloop
 endfacet

 facet normal 0 0 0
  outer loop
  vertex 0.00311247678 -0.0242865663 -0.0260840822
  vertex -0.00170541368 -0.0111001125 -0.0190038998
  vertex 0.00484566391 -0.0105023319 -0.0189063046
  endloop
 endfacet

 facet normal 0 0 0
  outer loop
  vertex 0.00311247678 -0.0242865663 -0.0260840822
  vertex 0.00484566391 -0.0105023319 -0.0189063046
  vertex 0.00827195309 -0.0242080968 -0.0248722695
  endloop
 endfacet

 facet normal 0 0 0
  outer loop
  vertex 0.00311247678 -0.0242865663 -0.0260840822
  vertex 0.00827195309 -0.0242080968 -0.0248722695
  vertex 0.00603664434 -0.0322497264 -0.0246853773
  endloop
 endfacet

 facet normal 0 0 0
  outer loop
  vertex 0.00311247678 -0.0242865663 -0.0260840822
  vertex 0.00603664434 -0.0322497264 -0.0246853773
  vertex 0.0012568353 -0.03391416 -0.0241675898
  endloop
 endfacet

 facet normal 0 0 0
  outer loop
  vertex 0.00311247678 -0.0242865663 -0.0260840822
  vertex 0.0012568353 -0.03391416 -0.0241675898
  vertex -0.00235238997 -0.0256226789 -0.0252052024
  endloop
 endfacet

 facet normal 0 0 0
  outer loop
  vertex 0.00125038705 0.00082579843 -0.000255156367
  vertex 0.00190538028 0.00251264451 -0.00211689016
  vertex -0.00355191808 0.00168122258 -0.00211772253
  endloop
 endfacet

 facet normal 0 0 0
  outer loop
  vertex 0.00125038705 0.00082579843 -0.000255156367
  vertex -0.00355191808 0.00168122258 -0.00211772253
  vertex -0.00380082545 -0.000122486643 -0.000645582099
  endloop
 endfacet

 facet normal 0 0 0
  outer loop
  vertex 0.00125038705 0.00082579843 -0.000255156367
  vertex 0.00430440204 -0.00217090081 -0.000358620746
  vertex 0.00503367977 0.00110249734 -0.00204871269
  endloop
 endfacet

 facet normal 0 0 0
  outer loop
  vertex 0.00125038705 0.00082579843 -0.000255156367
  vertex 0.00503367977 0.00110249734 -0.00204871269
  vertex 0.00190538028 0.00251264451 -0.00211689016
  endloop
 endfacet

 facet normal 0 0 0
  outer loop
  vertex -0.00619561505 -0.00716831302 -0.00792979449
  vertex -0.00488915714 -0.0139739392 -0.0186936967
  vertex -0.00439079013 -0.0255491193 -0.0211093873
  endloop
 endfacet

 facet normal 0 0 0
  outer loop
  vertex -0.000186253194 -0.00739669567 -0.00159853173
  vertex -0.0050153872 -0.00509016402 -0.00173075765
  vertex 0.000231630504 -0.0311816651 -0.0129805049
  endloop
 endfacet

 facet normal 0 0 0
  outer loop
  vertex -0.000186253194 -0.00739669567 -0.00159853173
  vertex 0.000231630504 -0.0311816651 -0.0129805049
  vertex 0.00689034117 -0.030439049 -0.012990199
  endloop
 endfacet

 facet normal 0 0 0
  outer loop
  vertex -0.000186253194 -0.00739669567 -0.00159853173
  vertex 0.00689034117 -0.030439049 -0.012990199
  vertex 0.00430440204 -0.00217090081 -0.000358620746
  endloop
 endfacet

 facet normal 0 0 0
  outer loop
  vertex 0.00654215692 -0.0058774869 -0.00286993966
  vertex 0.00726689352 -0.00494698528 -0.00493478309
  vertex 0.00503367977 0.00110249734 -0.00204871269
  endloop
 endfacet

 facet normal 0 0 0
  outer loop
  vertex 0.00654215692 -0.0058774869 -0.00286993966
  vertex 0.00503367977 0.00110249734 -0.00204871269
  vertex 0.00430440204 -0.00217090081 -0.000358620746
  endloop
 endfacet

 facet normal 0 0 0
  outer loop
  vertex 0.00654215692 -0.0058774869 -0.00286993966
  vertex 0.00430440204 -0.00217090081 -0.000358620746
  vertex 0.00689034117 -0.030439049 -0.012990199
  endloop
 endfacet

 facet normal 0 0 0
  outer loop
  vertex -0.00216677226 -0.00161965576 0.000150589025
  vertex -0.0050153872 -0.00509016402 -0.00173075765
  vertex -0.000186253194 -0.00739669567 -0.00159853173
  endloop
 endfacet

 facet normal 0 0 0
  outer loop
  vertex -0.00216677226 -0.00161965576 0.000150589025
  vertex -0.000186253194 -0.00739669567 -0.00159853173
  vertex 0.00430440204 -0.00217090081 -0.000358620746
  endloop
 endfacet

 facet normal 0 0 0
  outer loop
  vertex -0.00216677226 -0.00161965576 0.000150589025
  vertex 0.00430440204 -0.00217090081 -0.000358620746
  vertex 0.00125038705 0.00082579843 -0.000255156367
  endloop
 endfacet

 facet normal 0 0 0
  outer loop
  vertex -0.00216677226 -0.00161965576 0.000150589025
  vertex 0.00125038705 0.00082579843 -0.000255156367
  vertex -0.00380082545 -0.000122486643 -0.000645582099
  endloop
 endfacet

 facet normal 0 0 0
  outer loop
  vertex -0.0050153872 -0.00509016402 -0.00173075765
  vertex -0.00216677226 -0.00161965576 0.000150589025
  vertex -0.00380082545 -0.000122486643 -0.000645582099
  endloop
 endfacet

 facet normal 0 0 0
  outer loop
  vertex -0.0050153872 -0.00509016402 -0.00173075765
  vertex -0.00380082545 -0.000122486643 -0.000645582099
  vertex -0.00545639731 -0.00151851249 -0.00167142262
  endloop
 endfacet

 facet normal 0 0 0
  outer loop
  vertex -0.00545639731 -0.00151851249 -0.00167142262
  vertex -0.00380082545 -0.000122486643 -0.000645582099
  vertex -0.00355191808 0.00168122258 -0.00211772253
  endloop
 endfacet

 facet normal 0 0 0
  outer loop
  vertex -0.00545639731 -0.00151851249 -0.00167142262
  vertex -0.00355191808 0.00168122258 -0.00211772253
  vertex -0.0055279932 9.43140458e-06 -0.00440494064
  endloop
 endfacet

 facet normal 0 0 0
  outer loop
  vertex -0.00545639731 -0.00151851249 -0.00167142262
  vertex -0.0055279932 9.43140458e-06 -0.00440494064
  vertex -0.00619561505 -0.00716831302 -0.00792979449
  endloop
 endfacet

 facet normal 0 0 0
  outer loop
  vertex 0.000857773004 -0.0368892625 -0.0201246589
  vertex -0.00439079013 -0.0255491193 -0.0211093873
  vertex -0.00389362895 -0.026292529 -0.0233404115
  endloop
 endfacet

 facet normal 0 0 0
  outer loop
  vertex 0.000857773004 -0.0368892625 -0.0201246589
  vertex -0.00389362895 -0.026292529 -0.0233404115
  vertex 0.000439216557 -0.0358735695 -0.0224744175
  endloop
 endfacet

 facet normal 0 0 0
  outer loop
  vertex 0.000439216557 -0.0358735695 -0.0224744175
  vertex -0.00235238997 -0.0256226789 -0.0252052024
  vertex 0.0012568353 -0.03391416 -0.0241675898
  endloop
 endfacet

 facet normal 0 0 0
  outer loop
  vertex 0.000439216557 -0.0358735695 -0.0224744175
  vertex 0.0012568353 -0.03391416 -0.0241675898
  vertex 0.00749846455 -0.0360032506 -0.0215267111
  endloop
 endfacet

 facet normal 0 0 0
  outer loop
  vertex 0.000439216557 -0.0358735695 -0.0224744175
  vertex 0.00749846455 -0.0360032506 -0.0215267111
  vertex 0.000857773004 -0.0368892625 -0.0201246589
  endloop
 endfacet

 facet normal 0 0 0
  outer loop
  vertex 0.00963695813 -0.0248196535 -0.0229714829
  vertex 0.00827195309 -0.0242080968 -0.0248722695
  vertex 0.00801907945 -0.012284888 -0.0180270672
  endloop
 endfacet

 facet normal 0 0 0
  outer loop
  vertex 0.00963695813 -0.0248196535 -0.0229714829
  vertex 0.00801907945 -0.012284888 -0.0180270672
  vertex 0.00979612302 -0.0235056635 -0.0204048827
  endloop
 endfacet

 facet normal 0 0 0
  outer loop
  vertex 0.00473079784 0.00180120359 -0.00377381756
  vertex 0.00190538028 0.00251264451 -0.00211689016
  vertex 0.00503367977 0.00110249734 -0.00204871269
  endloop
 endfacet

 facet normal 0 0 0
  outer loop
  vertex 0.00473079784 0.00180120359 -0.00377381756
  vertex 0.00503367977 0.00110249734 -0.00204871269
  vertex 0.00591092138 -4.41048214e-05 -0.00608891062
  endloop
 endfacet

 facet normal 0 0 0
  outer loop
  vertex 0.00473079784 0.00180120359 -0.00377381756
  vertex 0.00591092138 -4.41048214e-05 -0.00608891062
  vertex 0.000131818597 -0.00164356513 -0.00957958587
  endloop
 endfacet

 facet normal 0 0 0
  outer loop
  vertex 0.00473079784 0.00180120359 -0.00377381756
  vertex 0.000131818597 -0.00164356513 -0.00957958587
  vertex 0.00190538028 0.00251264451 -0.00211689016
  endloop
 endfacet

 facet normal 0 0 0
  outer loop
  vertex -0.00389362895 -0.026292529 -0.0233404115
  vertex -0.00235238997 -0.0256226789 -0.0252052024
  vertex 0.000439216557 -0.0358735695 -0.0224744175
  endloop
 endfacet

 facet normal 0 0 0
  outer loop
  vertex -0.00389362895 -0.026292529 -0.0233404115
  vertex -0.00439079013 -0.0255491193 -0.0211093873
  vertex -0.00488915714 -0.0139739392 -0.0186936967
  endloop
 endfacet

 facet normal 0 0 0
  outer loop
  vertex -0.00389362895 -0.026292529 -0.0233404115
  vertex -0.00488915714 -0.0139739392 -0.0186936967
  vertex -0.00235238997 -0.0256226789 -0.0252052024
  endloop
 endfacet

 facet normal 0 0 0
  outer loop
  vertex -0.00493529765 -0.00596991414 -0.0120571209
  vertex -0.0055279932 9.43140458e-06 -0.00440494064
  vertex 0.000131818597 -0.00164356513 -0.00957958587
  endloop
 endfacet

 facet normal 0 0 0
  outer loop
  vertex -0.00493529765 -0.00596991414 -0.0120571209
  vertex 0.000131818597 -0.00164356513 -0.00957958587
  vertex -0.00170541368 -0.0111001125 -0.0190038998
  endloop
 endfacet

 facet normal 0 0 0
  outer loop
  vertex -0.00493529765 -0.00596991414 -0.0120571209
  vertex -0.00170541368 -0.0111001125 -0.0190038998
  vertex -0.00488915714 -0.0139739392 -0.0186936967
  endloop
 endfacet

 facet normal 0 0 0
  outer loop
  vertex -0.00488915714 -0.0139739392 -0.0186936967
  vertex -0.00619561505 -0.00716831302 -0.00792979449
  vertex -0.0055279932 9.43140458e-06 -0.00440494064
  endloop
 endfacet

 facet normal 0 0 0
  outer loop
  vertex -0.00488915714 -0.0139739392 -0.0186936967
  vertex -0.0055279932 9.43140458e-06 -0.00440494064
  vertex -0.00493529765 -0.00596991414 -0.0120571209
  endloop
 endfacet

 facet normal 0 0 0
  outer loop
  vertex -0.00502007548 -0.0109822834 -0.00546414033
  vertex -0.0050153872 -0.00509016402 -0.00173075765
  vertex -0.00545639731 -0.00151851249 -0.00167142262
  endloop
 endfacet

 facet normal 0 0 0
  outer loop
  vertex -0.00502007548 -0.0109822834 -0.00546414033
  vertex -0.00545639731 -0.00151851249 -0.00167142262
  vertex -0.00619561505 -0.00716831302 -0.00792979449
  endloop
 endfacet

 facet normal 0 0 0
  outer loop
  vertex -0.00502007548 -0.0109822834 -0.00546414033
  vertex -0.00619561505 -0.00716831302 -0.00792979449
  vertex -0.00439079013 -0.0255491193 -0.0211093873
  endloop
 endfacet

 facet normal 0 0 0
  outer loop
  vertex -0.00502007548 -0.0109822834 -0.00546414033
  vertex -0.00439079013 -0.0255491193 -0.0211093873
  vertex 0.000231630504 -0.0311816651 -0.0129805049
  endloop
 endfacet

 facet normal 0 0 0
  outer loop
  vertex -0.00502007548 -0.0109822834 -0.00546414033
  vertex 0.000231630504 -0.0311816651 -0.0129805049
  vertex -0.0050153872 -0.00509016402 -0.00173075765
  endloop
 endfacet

endsolid AssimpScene
