solid AssimpScene
 facet normal 0 0 0
  outer loop
  vertex -0.00588771375 0.00363882654 -0.00175991957
  vertex -0.00593349617 0.00783343986 -0.00367006357
  vertex -0.00662031956 -0.000408612832 -0.00735256448
  endloop
 endfacet

 facet normal 0 0 0
  outer loop
  vertex -0.00588771375 0.00363882654 -0.00175991957
  vertex -0.00662031956 -0.000408612832 -0.00735256448
  vertex -0.00645166636 -0.032082323 -0.00749690831
  endloop
 endfacet

 facet normal 0 0 0
  outer loop
  vertex -0.00588771375 0.00363882654 -0.00175991957
  vertex -0.00645166636 -0.032082323 -0.00749690831
  vertex -0.00615506992 -0.0268108249 -0.00306455535
  endloop
 endfacet

 facet normal 0 0 0
  outer loop
  vertex 0.00488754502 -0.0338900536 -0.0103186127
  vertex 0.0056314636 -0.00894068461 -0.0124389892
  vertex 0.00702206744 -0.028424954 -0.0096725896
  endloop
 endfacet

 facet normal 0 0 0
  outer loop
  vertex 0.00755779073 -0.0278532039 -0.00402706955
  vertex 0.00650462136 0.00551940734 -0.0028210599
  vertex 0.00336000021 -0.0324889682 0.00359605718
  endloop
 endfacet

 facet normal 0 0 0
  outer loop
  vertex 0.0076323445 -0.0328570791 -0.00783773139
  vertex 0.00488754502 -0.0338900536 -0.0103186127
  vertex 0.00702206744 -0.028424954 -0.0096725896
  endloop
 endfacet

 facet normal 0 0 0
  outer loop
  vertex 0.00355493836 -0.0398534797 0.00130506442
  vertex -0.00248448062 -0.0417590141 -0.00178522535
  vertex 0.00401245337 -0.04139008 -0.00143790233
  endloop
 endfacet

 facet normal 0 0 0
  outer loop
  vertex 0.00355493836 -0.0398534797 0.00130506442
  vertex 0.00401245337 -0.04139008 -0.00143790233
  vertex 0.0076323445 -0.0328570791 -0.00783773139
  endloop
 endfacet

 facet normal 0 0 0
  outer loop
  vertex 0.00355493836 -0.0398534797 0.00130506442
  vertex 0.0076323445 -0.0328570791 -0.00783773139
  vertex 0.00755779073 -0.0278532039 -0.00402706955
  endloop
 endfacet

 facet normal 0 0 0
  outer loop
  vertex 0.00355493836 -0.0398534797 0.00130506442
  vertex 0.00755779073 -0.0278532039 -0.00402706955
  vertex 0.00336000021 -0.0324889682 0.00359605718
  endloop
 endfacet

 facet normal 0 0 0
  outer loop
  vertex -0.000162311015 0.00459624827 -0.00960334763
  vertex 0.00231917435 0.00893075112 -0.00742103066
  vertex 0.00577653619 0.00798240956 -0.00673694303
  endloop
 endfacet

 facet normal 0 0 0
  outer loop
  vertex -0.000162311015 0.00459624827 -0.00960334763
  vertex 0.00577653619 0.00798240956 -0.00673694303
  vertex 0.0056314636 -0.00894068461 -0.0124389892
  endloop
 endfacet

 facet normal 0 0 0
  outer loop
  vertex -0.00283628842 -0.0399204455 0.000976529613
  vertex -0.00248448062 -0.0417590141 -0.00178522535
  vertex 0.00355493836 -0.0398534797 0.00130506442
  endloop
 endfacet

 facet normal 0 0 0
  outer loop
  vertex -0.00283628842 -0.0399204455 0.000976529613
  vertex 0.00355493836 -0.0398534797 0.00130506442
  vertex 0.00336000021 -0.0324889682 0.00359605718
  endloop
 endfacet

 facet normal 0 0 0
  outer loop
  vertex -0.00283628842 -0.0399204455 0.000976529613
  vertex 0.00336000021 -0.0324889682 0.00359605718
  vertex -0.00303121773 -0.0325559378 0.00326752267
  endloop
 endfacet

 facet normal 0 0 0
  outer loop
  vertex -0.00283628842 -0.0399204455 0.000976529613
  vertex -0.00645166636 -0.032082323 -0.00749690831
  vertex -0.00248448062 -0.0417590141 -0.00178522535
  endloop
 endfacet

 facet normal 0 0 0
  outer loop
  vertex 0.00317826308 -0.0399054214 -0.00562030263
  vertex 0.00488754502 -0.0338900536 -0.0103186127
  vertex 0.0076323445 -0.0328570791 -0.00783773139
  endloop
 endfacet

 facet normal 0 0 0
  outer loop
  vertex 0.00317826308 -0.0399054214 -0.00562030263
  vertex 0.0076323445 -0.0328570791 -0.00783773139
  vertex 0.00401245337 -0.04139008 -0.00143790233
  endloop
 endfacet

 facet normal 0 0 0
  outer loop
  vertex 0.00317826308 -0.0399054214 -0.00562030263
  vertex 0.00401245337 -0.04139008 -0.00143790233
  vertex -0.00248448062 -0.0417590141 -0.00178522535
  endloop
 endfacet

 facet normal 0 0 0
  outer loop
  vertex -0.000285505521 -0.0118693504 -0.0137051018
  vertex 0.0056314636 -0.00894068461 -0.0124389892
  vertex 0.00488754502 -0.0338900536 -0.0103186127
  endloop
 endfacet

 facet normal 0 0 0
  outer loop
  vertex -0.000285505521 -0.0118693504 -0.0137051018
  vertex 0.00488754502 -0.0338900536 -0.0103186127
  vertex -0.00301350607 -0.03370573 -0.0109137781
  endloop
 endfacet

 facet normal 0 0 0
  outer loop
  vertex -0.000285505521 -0.0118693504 -0.0137051018
  vertex -0.00301350607 -0.03370573 -0.0109137781
  vertex -0.0052900603 -0.0100239627 -0.0123372888
  endloop
 endfacet

 facet normal 0 0 0
  outer loop
  vertex 0.0075074546 -0.00944835786 -0.0100994101
  vertex 0.0076323445 -0.0328570791 -0.00783773139
  vertex 0.00702206744 -0.028424954 -0.0096725896
  endloop
 endfacet

 facet normal 0 0 0
  outer loop
  vertex 0.0075074546 -0.00944835786 -0.0100994101
  vertex 0.00702206744 -0.028424954 -0.0096725896
  vertex 0.0056314636 -0.00894068461 -0.0124389892
  endloop
 endfacet

 facet normal 0 0 0
  outer loop
  vertex -0.00413808925 0.010832265 -0.00561952405
  vertex -0.000162311015 0.00459624827 -0.00960334763
  vertex -0.00559056271 0.00801582728 -0.00684196269
  endloop
 endfacet

 facet normal 0 0 0
  outer loop
  vertex 0.00511985458 0.00567367673 -0.000791433908
  vertex 0.00336000021 -0.0324889682 0.00359605718
  vertex 0.00650462136 0.00551940734 -0.0028210599
  endloop
 endfacet

 facet normal 0 0 0
  outer loop
  vertex -0.00301350607 -0.03370573 -0.0109137781
  vertex 0.00488754502 -0.0338900536 -0.0103186127
  vertex 0.00317826308 -0.0399054214 -0.00562030263
  endloop
 endfacet

 facet normal 0 0 0
  outer loop
  vertex -0.00301350607 -0.03370573 -0.0109137781
  vertex 0.00317826308 -0.0399054214 -0.00562030263
  vertex -0.00175056525 -0.0399570651 -0.00587366521
  endloop
 endfacet

 facet normal 0 0 0
  outer loop
  vertex -0.00175056525 -0.0399570651 -0.00587366521
  vertex 0.00317826308 -0.0399054214 -0.00562030263
  vertex -0.00248448062 -0.0417590141 -0.00178522535
  endloop
 endfacet

 facet normal 0 0 0
  outer loop
  vertex -0.00397117948 0.00808194373 -0.00129825762
  vertex -0.00588771375 0.00363882654 -0.00175991957
  vertex -0.00303121773 -0.0325559378 0.00326752267
  endloop
 endfacet

 facet normal 0 0 0
  outer loop
  vertex -0.00539676845 -0.0335860699 -0.00943822321
  vertex -0.00301350607 -0.03370573 -0.0109137781
  vertex -0.00175056525 -0.0399570651 -0.00587366521
  endloop
 endfacet

 facet normal 0 0 0
  outer loop
  vertex -0.00539676845 -0.0335860699 -0.00943822321
  vertex -0.00175056525 -0.0399570651 -0.00587366521
  vertex -0.00248448062 -0.0417590141 -0.00178522535
  endloop
 endfacet

 facet normal 0 0 0
  outer loop
  vertex -0.00539676845 -0.0335860699 -0.00943822321
  vertex -0.00248448062 -0.0417590141 -0.00178522535
  vertex -0.00645166636 -0.032082323 -0.00749690831
  endloop
 endfacet

 facet normal 0 0 0
  outer loop
  vertex -0.00539676845 -0.0335860699 -0.00943822321
  vertex -0.00645166636 -0.032082323 -0.00749690831
  vertex -0.0052900603 -0.0100239627 -0.0123372888
  endloop
 endfacet

 facet normal 0 0 0
  outer loop
  vertex -0.00539676845 -0.0335860699 -0.00943822321
  vertex -0.0052900603 -0.0100239627 -0.0123372888
  vertex -0.00301350607 -0.03370573 -0.0109137781
  endloop
 endfacet

 facet normal 0 0 0
  outer loop
  vertex 0.00507126562 0.00945117977 -0.00234664883
  vertex 0.00230028084 0.00965532102 -0.00125367183
  vertex 0.00511985458 0.00567367673 -0.000791433908
  endloop
 endfacet

 facet normal 0 0 0
  outer loop
  vertex 0.00507126562 0.00945117977 -0.00234664883
  vertex 0.00511985458 0.00567367673 -0.000791433908
  vertex 0.00650462136 0.00551940734 -0.0028210599
  endloop
 endfacet

 facet normal 0 0 0
  outer loop
  vertex 0.00507126562 0.00945117977 -0.00234664883
  vertex 0.00650462136 0.00551940734 -0.0028210599
  vertex 0.00486286916 0.0107833622 -0.00479068793
  endloop
 endfacet

 facet normal 0 0 0
  outer loop
  vertex -0.00662031956 -0.000408612832 -0.00735256448
  vertex -0.0052900603 -0.0100239627 -0.0123372888
  vertex -0.00645166636 -0.032082323 -0.00749690831
  endloop
 endfacet

 facet normal 0 0 0
  outer loop
  vertex -0.00662031956 -0.000408612832 -0.00735256448
  vertex -0.00559056271 0.00801582728 -0.00684196269
  vertex -0.0052900603 -0.0100239627 -0.0123372888
  endloop
 endfacet

 facet normal 0 0 0
  outer loop
  vertex -0.00615506992 -0.0268108249 -0.00306455535
  vertex -0.00645166636 -0.032082323 -0.00749690831
  vertex -0.00283628842 -0.0399204455 0.000976529613
  endloop
 endfacet

 facet normal 0 0 0
  outer loop
  vertex -0.00615506992 -0.0268108249 -0.00306455535
  vertex -0.00283628842 -0.0399204455 0.000976529613
  vertex -0.00303121773 -0.0325559378 0.00326752267
  endloop
 endfacet

 facet normal 0 0 0
  outer loop
  vertex -0.00615506992 -0.0268108249 -0.00306455535
  vertex -0.00303121773 -0.0325559378 0.00326752267
  vertex -0.00588771375 0.00363882654 -0.00175991957
  endloop
 endfacet

 facet normal 0 0 0
  outer loop
  vertex -0.000162311015 0.00459624827 -0.00960334763
  vertex 0.0056314636 -0.00894068461 -0.0124389892
  vertex -0.000285505521 -0.0118693504 -0.0137051018
  endloop
 endfacet

 facet normal 0 0 0
  outer loop
  vertex -0.000162311015 0.00459624827 -0.00960334763
  vertex -0.000285505521 -0.0118693504 -0.0137051018
  vertex -0.00304098823 -0.00677131582 -0.0127602862
  endloop
 endfacet

 facet normal 0 0 0
  outer loop
  vertex -0.00304098823 -0.00677131582 -0.0127602862
  vertex -0.000285505521 -0.0118693504 -0.0137051018
  vertex -0.0052900603 -0.0100239627 -0.0123372888
  endloop
 endfacet

 facet normal 0 0 0
  outer loop
  vertex -0.00304098823 -0.00677131582 -0.0127602862
  vertex -0.0052900603 -0.0100239627 -0.0123372888
  vertex -0.00559056271 0.00801582728 -0.00684196269
  endloop
 endfacet

 facet normal 0 0 0
  outer loop
  vertex -0.00304098823 -0.00677131582 -0.0127602862
  vertex -0.00559056271 0.00801582728 -0.00684196269
  vertex -0.000162311015 0.00459624827 -0.00960334763
  endloop
 endfacet

 facet normal 0 0 0
  outer loop
  vertex 0.000766810437 0.00352975493 0.000179042909
  vertex 0.00230028084 0.00965532102 -0.00125367183
  vertex -0.00397117948 0.00808194373 -0.00129825762
  endloop
 endfacet

 facet normal 0 0 0
  outer loop
  vertex 0.000766810437 0.00352975493 0.000179042909
  vertex -0.00397117948 0.00808194373 -0.00129825762
  vertex -0.00303121773 -0.0325559378 0.00326752267
  endloop
 endfacet

 facet normal 0 0 0
  outer loop
  vertex 0.000766810437 0.00352975493 0.000179042909
  vertex -0.00303121773 -0.0325559378 0.00326752267
  vertex 0.00336000021 -0.0324889682 0.00359605718
  endloop
 endfacet

 facet normal 0 0 0
  outer loop
  vertex 0.000766810437 0.00352975493 0.000179042909
  vertex 0.00336000021 -0.0324889682 0.00359605718
  vertex 0.00511985458 0.00567367673 -0.000791433908
  endloop
 endfacet

 facet normal 0 0 0
  outer loop
  vertex 0.000766810437 0.00352975493 0.000179042909
  vertex 0.00511985458 0.00567367673 -0.000791433908
  vertex 0.00230028084 0.00965532102 -0.00125367183
  endloop
 endfacet

 facet normal 0 0 0
  outer loop
  vertex 0.00231917435 0.00893075112 -0.00742103066
  vertex -0.000162311015 0.00459624827 -0.00960334763
  vertex -0.00413808925 0.010832265 -0.00561952405
  endloop
 endfacet

 facet normal 0 0 0
  outer loop
  vertex 0.00231917435 0.00893075112 -0.00742103066
  vertex -0.00413808925 0.010832265 -0.00561952405
  vertex 0.00012336194 0.0119052343 -0.00482623372
  endloop
 endfacet

 facet normal 0 0 0
  outer loop
  vertex 0.00231917435 0.00893075112 -0.00742103066
  vertex 0.00012336194 0.0119052343 -0.00482623372
  vertex 0.00486286916 0.0107833622 -0.00479068793
  endloop
 endfacet

 facet normal 0 0 0
  outer loop
  vertex 0.00231917435 0.00893075112 -0.00742103066
  vertex 0.00486286916 0.0107833622 -0.00479068793
  vertex 0.00577653619 0.00798240956 -0.00673694303
  endloop
 endfacet

 facet normal 0 0 0
  outer loop
  vertex -0.0013086712 0.0111883348 -0.00282019586
  vertex 0.00012336194 0.0119052343 -0.00482623372
  vertex -0.00413808925 0.010832265 -0.00561952405
  endloop
 endfacet

 facet normal 0 0 0
  outer loop
  vertex -0.0013086712 0.0111883348 -0.00282019586
  vertex -0.00413808925 0.010832265 -0.00561952405
  vertex -0.00462978659 0.0101185441 -0.00325297751
  endloop
 endfacet

 facet normal 0 0 0
  outer loop
  vertex -0.0013086712 0.0111883348 -0.00282019586
  vertex -0.00462978659 0.0101185441 -0.00325297751
  vertex -0.00397117948 0.00808194373 -0.00129825762
  endloop
 endfacet

 facet normal 0 0 0
  outer loop
  vertex -0.0013086712 0.0111883348 -0.00282019586
  vertex -0.00397117948 0.00808194373 -0.00129825762
  vertex 0.00230028084 0.00965532102 -0.00125367183
  endloop
 endfacet

 facet normal 0 0 0
  outer loop
  vertex 0.00246002944 0.0114081036 -0.00322199124
  vertex 0.00230028084 0.00965532102 -0.00125367183
  vertex 0.00507126562 0.00945117977 -0.00234664883
  endloop
 endfacet

 facet normal 0 0 0
  outer loop
  vertex 0.00246002944 0.0114081036 -0.00322199124
  vertex 0.00507126562 0.00945117977 -0.00234664883
  vertex 0.00486286916 0.0107833622 -0.00479068793
  endloop
 endfacet

 facet normal 0 0 0
  outer loop
  vertex 0.00246002944 0.0114081036 -0.00322199124
  vertex 0.00486286916 0.0107833622 -0.00479068793
  vertex 0.00012336194 0.0119052343 -0.00482623372
  endloop
 endfacet

 facet normal 0 0 0
  outer loop
  vertex 0.00246002944 0.0114081036 -0.00322199124
  vertex 0.00012336194 0.0119052343 -0.00482623372
  vertex -0.0013086712 0.0111883348 -0.00282019586
  endloop
 endfacet

 facet normal 0 0 0
  outer loop
  vertex 0.00246002944 0.0114081036 -0.00322199124
  vertex -0.0013086712 0.0111883348 -0.00282019586
  vertex 0.00230028084 0.00965532102 -0.00125367183
  endloop
 endfacet

 facet normal 0 0 0
  outer loop
  vertex 0.00707484223 0.00325552095 -0.00681026932
  vertex 0.00650462136 0.00551940734 -0.0028210599
  vertex 0.00755779073 -0.0278532039 -0.00402706955
  endloop
 endfacet

 facet normal 0 0 0
  outer loop
  vertex 0.00707484223 0.00325552095 -0.00681026932
  vertex 0.00755779073 -0.0278532039 -0.00402706955
  vertex 0.0076323445 -0.0328570791 -0.00783773139
  endloop
 endfacet

 facet normal 0 0 0
  outer loop
  vertex 0.00707484223 0.00325552095 -0.00681026932
  vertex 0.0076323445 -0.0328570791 -0.00783773139
  vertex 0.0075074546 -0.00944835786 -0.0100994101
  endloop
 endfacet

 facet normal 0 0 0
  outer loop
  vertex 0.00707484223 0.00325552095 -0.00681026932
  vertex 0.0075074546 -0.00944835786 -0.0100994101
  vertex 0.0056314636 -0.00894068461 -0.0124389892
  endloop
 endfacet

 facet normal 0 0 0
  outer loop
  vertex 0.00707484223 0.00325552095 -0.00681026932
  vertex 0.0056314636 -0.00894068461 -0.0124389892
  vertex 0.00577653619 0.00798240956 -0.00673694303
  endloop
 endfacet

 facet normal 0 0 0
  outer loop
  vertex 0.00707484223 0.00325552095 -0.00681026932
  vertex 0.00577653619 0.00798240956 -0.00673694303
  vertex 0.00486286916 0.0107833622 -0.00479068793
  endloop
 endfacet

 facet normal 0 0 0
  outer loop
  vertex 0.00707484223 0.00325552095 -0.00681026932
  vertex 0.00486286916 0.0107833622 -0.00479068793
  vertex 0.00650462136 0.00551940734 -0.0028210599
  endloop
 endfacet

 facet normal 0 0 0
  outer loop
  vertex -0.00593349617 0.00783343986 -0.00367006357
  vertex -0.00588771375 0.00363882654 -0.00175991957
  vertex -0.00397117948 0.00808194373 -0.00129825762
  endloop
 endfacet

 facet normal 0 0 0
  outer loop
  vertex -0.00593349617 0.00783343986 -0.00367006357
  vertex -0.00397117948 0.00808194373 -0.00129825762
  vertex -0.00462978659 0.0101185441 -0.00325297751
  endloop
 endfacet

 facet normal 0 0 0
  outer loop
  vertex -0.00593349617 0.00783343986 -0.00367006357
  vertex -0.00462978659 0.0101185441 -0.00325297751
  vertex -0.00413808925 0.010832265 -0.00561952405
  endloop
 endfacet

 facet normal 0 0 0
  outer loop
  vertex -0.00593349617 0.00783343986 -0.00367006357
  vertex -0.00413808925 0.010832265 -0.00561952405
  vertex -0.00559056271 0.00801582728 -0.00684196269
  endloop
 endfacet

 facet normal 0 0 0
  outer loop
  vertex -0.00593349617 0.00783343986 -0.00367006357
  vertex -0.00559056271 0.00801582728 -0.00684196269
  vertex -0.00662031956 -0.000408612832 -0.00735256448
  endloop
 endfacet

endsolid AssimpScene
