solid AssimpScene
 facet normal 0 0 0
  outer loop
  vertex 0.00130843814 -0.033610899 -0.0300995335
  vertex 0.00244415761 -0.0419606045 -0.028639663
  vertex -0.00352259399 -0.0423597097 -0.0281233341
  endloop
 endfacet

 facet normal 0 0 0
  outer loop
  vertex 0.00130843814 -0.033610899 -0.0300995335
  vertex -0.00352259399 -0.0423597097 -0.0281233341
  vertex -0.00499702897 -0.034196429 -0.0293489024
  endloop
 endfacet

 facet normal 0 0 0
  outer loop
  vertex -0.00723389676 -0.0330271348 -0.023467198
  vertex -0.00320545305 -0.0401975177 -0.0169546548
  vertex -0.00593309989 -0.00645316858 -0.00290565239
  endloop
 endfacet

 facet normal 0 0 0
  outer loop
  vertex 0.00703204004 -0.0322772712 -0.0214175414
  vertex 0.00640513003 -0.00407878961 -0.00350812823
  vertex 0.003194544 -0.0401939526 -0.0169651639
  endloop
 endfacet

 facet normal 0 0 0
  outer loop
  vertex -0.00262077968 -0.00782598555 -0.0160712674
  vertex -0.00605631154 -0.0141193857 -0.0195979085
  vertex -0.00585856894 -0.000107771717 -0.00509745209
  endloop
 endfacet

 facet normal 0 0 0
  outer loop
  vertex 0.00686781015 -0.0133518036 -0.0173498802
  vertex 0.00592686282 -0.0341611244 -0.0286137164
  vertex 0.00486689992 -0.0117388703 -0.0190425497
  endloop
 endfacet

 facet normal 0 0 0
  outer loop
  vertex -0.00114019867 -0.0137336142 -0.0213067085
  vertex -0.00605631154 -0.0141193857 -0.0195979085
  vertex -0.00262077968 -0.00782598555 -0.0160712674
  endloop
 endfacet

 facet normal 0 0 0
  outer loop
  vertex -0.00114019867 -0.0137336142 -0.0213067085
  vertex -0.00262077968 -0.00782598555 -0.0160712674
  vertex 0.00486689992 -0.0117388703 -0.0190425497
  endloop
 endfacet

 facet normal 0 0 0
  outer loop
  vertex -0.00114019867 -0.0137336142 -0.0213067085
  vertex -0.00499702897 -0.034196429 -0.0293489024
  vertex -0.00605631154 -0.0141193857 -0.0195979085
  endloop
 endfacet

 facet normal 0 0 0
  outer loop
  vertex 0.00130843814 -0.033610899 -0.0300995335
  vertex -0.00499702897 -0.034196429 -0.0293489024
  vertex -0.00114019867 -0.0137336142 -0.0213067085
  endloop
 endfacet

 facet normal 0 0 0
  outer loop
  vertex 0.00130843814 -0.033610899 -0.0300995335
  vertex -0.00114019867 -0.0137336142 -0.0213067085
  vertex 0.00486689992 -0.0117388703 -0.0190425497
  endloop
 endfacet

 facet normal 0 0 0
  outer loop
  vertex 0.00130843814 -0.033610899 -0.0300995335
  vertex 0.00486689992 -0.0117388703 -0.0190425497
  vertex 0.00592686282 -0.0341611244 -0.0286137164
  endloop
 endfacet

 facet normal 0 0 0
  outer loop
  vertex 0.00130843814 -0.033610899 -0.0300995335
  vertex 0.00592686282 -0.0341611244 -0.0286137164
  vertex 0.00244415761 -0.0419606045 -0.028639663
  endloop
 endfacet

 facet normal 0 0 0
  outer loop
  vertex -0.00117819768 1.96530818e-05 -0.00737630622
  vertex -0.00262077968 -0.00782598555 -0.0160712674
  vertex -0.00585856894 -0.000107771717 -0.00509745209
  endloop
 endfacet

 facet normal 0 0 0
  outer loop
  vertex -0.00117819768 1.96530818e-05 -0.00737630622
  vertex -4.45488695e-06 0.00239118771 -0.00190190459
  vertex 0.00471823849 0.00143125444 -0.00246995315
  endloop
 endfacet

 facet normal 0 0 0
  outer loop
  vertex -0.00117819768 1.96530818e-05 -0.00737630622
  vertex 0.00471823849 0.00143125444 -0.00246995315
  vertex 0.00549707795 8.24658855e-06 -0.0056062704
  endloop
 endfacet

 facet normal 0 0 0
  outer loop
  vertex -0.00431295251 0.00173435791 -0.00269870576
  vertex -4.45488695e-06 0.00239118771 -0.00190190459
  vertex -0.00117819768 1.96530818e-05 -0.00737630622
  endloop
 endfacet

 facet normal 0 0 0
  outer loop
  vertex -0.00431295251 0.00173435791 -0.00269870576
  vertex -0.00117819768 1.96530818e-05 -0.00737630622
  vertex -0.00585856894 -0.000107771717 -0.00509745209
  endloop
 endfacet

 facet normal 0 0 0
  outer loop
  vertex 0.00513169076 -0.00499193836 -0.00160937291
  vertex 0.003194544 -0.0401939526 -0.0169651639
  vertex 0.00640513003 -0.00407878961 -0.00350812823
  endloop
 endfacet

 facet normal 0 0 0
  outer loop
  vertex -0.00685031526 -0.034929052 -0.027190851
  vertex -0.00499702897 -0.034196429 -0.0293489024
  vertex -0.00352259399 -0.0423597097 -0.0281233341
  endloop
 endfacet

 facet normal 0 0 0
  outer loop
  vertex -0.00685031526 -0.034929052 -0.027190851
  vertex -0.00352259399 -0.0423597097 -0.0281233341
  vertex -0.00321509968 -0.0459535122 -0.0247793868
  endloop
 endfacet

 facet normal 0 0 0
  outer loop
  vertex -0.00685031526 -0.034929052 -0.027190851
  vertex -0.00321509968 -0.0459535122 -0.0247793868
  vertex -0.00321191153 -0.0454009771 -0.0226508435
  endloop
 endfacet

 facet normal 0 0 0
  outer loop
  vertex -0.00685031526 -0.034929052 -0.027190851
  vertex -0.00321191153 -0.0454009771 -0.0226508435
  vertex -0.00723389676 -0.0330271348 -0.023467198
  endloop
 endfacet

 facet normal 0 0 0
  outer loop
  vertex -0.00685031526 -0.034929052 -0.027190851
  vertex -0.00605631154 -0.0141193857 -0.0195979085
  vertex -0.00499702897 -0.034196429 -0.0293489024
  endloop
 endfacet

 facet normal 0 0 0
  outer loop
  vertex -0.00394686218 -0.00281479047 -0.00036703283
  vertex -0.00593309989 -0.00645316858 -0.00290565239
  vertex -0.00320545305 -0.0401975177 -0.0169546548
  endloop
 endfacet

 facet normal 0 0 0
  outer loop
  vertex 0.00698911678 -0.0348716788 -0.0264843348
  vertex 0.00592686282 -0.0341611244 -0.0286137164
  vertex 0.00686781015 -0.0133518036 -0.0173498802
  endloop
 endfacet

 facet normal 0 0 0
  outer loop
  vertex 0.00698911678 -0.0348716788 -0.0264843348
  vertex 0.00703204004 -0.0322772712 -0.0214175414
  vertex 0.00318809436 -0.0453974083 -0.0226613525
  endloop
 endfacet

 facet normal 0 0 0
  outer loop
  vertex 0.00698911678 -0.0348716788 -0.0264843348
  vertex 0.00318809436 -0.0453974083 -0.0226613525
  vertex 0.00348478882 -0.0456511863 -0.0247613993
  endloop
 endfacet

 facet normal 0 0 0
  outer loop
  vertex 0.00318809436 -0.0453974083 -0.0226613525
  vertex -0.00321509968 -0.0459535122 -0.0247793868
  vertex 0.00348478882 -0.0456511863 -0.0247613993
  endloop
 endfacet

 facet normal 0 0 0
  outer loop
  vertex 0.00318809436 -0.0453974083 -0.0226613525
  vertex 0.00703204004 -0.0322772712 -0.0214175414
  vertex 0.003194544 -0.0401939526 -0.0169651639
  endloop
 endfacet

 facet normal 0 0 0
  outer loop
  vertex 0.00504153548 -0.000946773274 -0.00104449561
  vertex 0.00233477936 -0.00136918714 0.000142797682
  vertex 0.00513169076 -0.00499193836 -0.00160937291
  endloop
 endfacet

 facet normal 0 0 0
  outer loop
  vertex 0.00504153548 -0.000946773274 -0.00104449561
  vertex 0.00513169076 -0.00499193836 -0.00160937291
  vertex 0.00640513003 -0.00407878961 -0.00350812823
  endloop
 endfacet

 facet normal 0 0 0
  outer loop
  vertex 0.00504153548 -0.000946773274 -0.00104449561
  vertex 0.00640513003 -0.00407878961 -0.00350812823
  vertex 0.00471823849 0.00143125444 -0.00246995315
  endloop
 endfacet

 facet normal 0 0 0
  outer loop
  vertex -0.00605631154 -0.0141193857 -0.0195979085
  vertex -0.00685031526 -0.034929052 -0.027190851
  vertex -0.00723389676 -0.0330271348 -0.023467198
  endloop
 endfacet

 facet normal 0 0 0
  outer loop
  vertex -0.00605631154 -0.0141193857 -0.0195979085
  vertex -0.00723389676 -0.0330271348 -0.023467198
  vertex -0.00694456603 -0.00720501784 -0.0109907603
  endloop
 endfacet

 facet normal 0 0 0
  outer loop
  vertex -0.00723389676 -0.0330271348 -0.023467198
  vertex -0.00593309989 -0.00645316858 -0.00290565239
  vertex -0.00603476539 -0.00186891865 -0.00243678829
  endloop
 endfacet

 facet normal 0 0 0
  outer loop
  vertex -0.00723389676 -0.0330271348 -0.023467198
  vertex -0.00603476539 -0.00186891865 -0.00243678829
  vertex -0.00694456603 -0.00720501784 -0.0109907603
  endloop
 endfacet

 facet normal 0 0 0
  outer loop
  vertex -0.00694456603 -0.00720501784 -0.0109907603
  vertex -0.00585856894 -0.000107771717 -0.00509745209
  vertex -0.00605631154 -0.0141193857 -0.0195979085
  endloop
 endfacet

 facet normal 0 0 0
  outer loop
  vertex 0.00259042415 -0.045253586 -0.0264917258
  vertex -0.00321509968 -0.0459535122 -0.0247793868
  vertex -0.00352259399 -0.0423597097 -0.0281233341
  endloop
 endfacet

 facet normal 0 0 0
  outer loop
  vertex 0.00259042415 -0.045253586 -0.0264917258
  vertex -0.00352259399 -0.0423597097 -0.0281233341
  vertex 0.00244415761 -0.0419606045 -0.028639663
  endloop
 endfacet

 facet normal 0 0 0
  outer loop
  vertex 0.00259042415 -0.045253586 -0.0264917258
  vertex 0.00244415761 -0.0419606045 -0.028639663
  vertex 0.00592686282 -0.0341611244 -0.0286137164
  endloop
 endfacet

 facet normal 0 0 0
  outer loop
  vertex 0.00592686282 -0.0341611244 -0.0286137164
  vertex 0.00698911678 -0.0348716788 -0.0264843348
  vertex 0.00348478882 -0.0456511863 -0.0247613993
  endloop
 endfacet

 facet normal 0 0 0
  outer loop
  vertex 0.00592686282 -0.0341611244 -0.0286137164
  vertex 0.00348478882 -0.0456511863 -0.0247613993
  vertex 0.00259042415 -0.045253586 -0.0264917258
  endloop
 endfacet

 facet normal 0 0 0
  outer loop
  vertex 0.00259042415 -0.045253586 -0.0264917258
  vertex 0.00348478882 -0.0456511863 -0.0247613993
  vertex -0.00321509968 -0.0459535122 -0.0247793868
  endloop
 endfacet

 facet normal 0 0 0
  outer loop
  vertex -0.00321191153 -0.0454009771 -0.0226508435
  vertex -0.00321509968 -0.0459535122 -0.0247793868
  vertex 0.00318809436 -0.0453974083 -0.0226613525
  endloop
 endfacet

 facet normal 0 0 0
  outer loop
  vertex -0.00321191153 -0.0454009771 -0.0226508435
  vertex 0.00318809436 -0.0453974083 -0.0226613525
  vertex 0.003194544 -0.0401939526 -0.0169651639
  endloop
 endfacet

 facet normal 0 0 0
  outer loop
  vertex -0.00321191153 -0.0454009771 -0.0226508435
  vertex 0.003194544 -0.0401939526 -0.0169651639
  vertex -0.00320545305 -0.0401975177 -0.0169546548
  endloop
 endfacet

 facet normal 0 0 0
  outer loop
  vertex -0.00321191153 -0.0454009771 -0.0226508435
  vertex -0.00320545305 -0.0401975177 -0.0169546548
  vertex -0.00723389676 -0.0330271348 -0.023467198
  endloop
 endfacet

 facet normal 0 0 0
  outer loop
  vertex -0.00133538397 0.000681139587 -0.000250553654
  vertex -4.45488695e-06 0.00239118771 -0.00190190459
  vertex -0.00431295251 0.00173435791 -0.00269870576
  endloop
 endfacet

 facet normal 0 0 0
  outer loop
  vertex -0.00133538397 0.000681139587 -0.000250553654
  vertex -0.00431295251 0.00173435791 -0.00269870576
  vertex -0.00468614744 -8.26472751e-05 -0.000992562505
  endloop
 endfacet

 facet normal 0 0 0
  outer loop
  vertex -0.00133538397 0.000681139587 -0.000250553654
  vertex -0.00468614744 -8.26472751e-05 -0.000992562505
  vertex -0.00394686218 -0.00281479047 -0.00036703283
  endloop
 endfacet

 facet normal 0 0 0
  outer loop
  vertex -0.00133538397 0.000681139587 -0.000250553654
  vertex -0.00394686218 -0.00281479047 -0.00036703283
  vertex 0.00233477936 -0.00136918714 0.000142797682
  endloop
 endfacet

 facet normal 0 0 0
  outer loop
  vertex 0.00081331539 -0.00740822358 -0.00162975502
  vertex 0.00233477936 -0.00136918714 0.000142797682
  vertex -0.00394686218 -0.00281479047 -0.00036703283
  endloop
 endfacet

 facet normal 0 0 0
  outer loop
  vertex 0.00081331539 -0.00740822358 -0.00162975502
  vertex -0.00394686218 -0.00281479047 -0.00036703283
  vertex -0.00320545305 -0.0401975177 -0.0169546548
  endloop
 endfacet

 facet normal 0 0 0
  outer loop
  vertex 0.00081331539 -0.00740822358 -0.00162975502
  vertex -0.00320545305 -0.0401975177 -0.0169546548
  vertex 0.003194544 -0.0401939526 -0.0169651639
  endloop
 endfacet

 facet normal 0 0 0
  outer loop
  vertex 0.00081331539 -0.00740822358 -0.00162975502
  vertex 0.003194544 -0.0401939526 -0.0169651639
  vertex 0.00513169076 -0.00499193836 -0.00160937291
  endloop
 endfacet

 facet normal 0 0 0
  outer loop
  vertex 0.00081331539 -0.00740822358 -0.00162975502
  vertex 0.00513169076 -0.00499193836 -0.00160937291
  vertex 0.00233477936 -0.00136918714 0.000142797682
  endloop
 endfacet

 facet normal 0 0 0
  outer loop
  vertex 0.00240886188 0.00113890739 -0.000679405406
  vertex 0.00471823849 0.00143125444 -0.00246995315
  vertex -4.45488695e-06 0.00239118771 -0.00190190459
  endloop
 endfacet

 facet normal 0 0 0
  outer loop
  vertex 0.00240886188 0.00113890739 -0.000679405406
  vertex -4.45488695e-06 0.00239118771 -0.00190190459
  vertex -0.00133538397 0.000681139587 -0.000250553654
  endloop
 endfacet

 facet normal 0 0 0
  outer loop
  vertex 0.00240886188 0.00113890739 -0.000679405406
  vertex -0.00133538397 0.000681139587 -0.000250553654
  vertex 0.00233477936 -0.00136918714 0.000142797682
  endloop
 endfacet

 facet normal 0 0 0
  outer loop
  vertex 0.00240886188 0.00113890739 -0.000679405406
  vertex 0.00233477936 -0.00136918714 0.000142797682
  vertex 0.00504153548 -0.000946773274 -0.00104449561
  endloop
 endfacet

 facet normal 0 0 0
  outer loop
  vertex 0.00240886188 0.00113890739 -0.000679405406
  vertex 0.00504153548 -0.000946773274 -0.00104449561
  vertex 0.00471823849 0.00143125444 -0.00246995315
  endloop
 endfacet

 facet normal 0 0 0
  outer loop
  vertex 0.00673849462 -0.00401489157 -0.00811778195
  vertex 0.00640513003 -0.00407878961 -0.00350812823
  vertex 0.00703204004 -0.0322772712 -0.0214175414
  endloop
 endfacet

 facet normal 0 0 0
  outer loop
  vertex 0.00673849462 -0.00401489157 -0.00811778195
  vertex 0.00703204004 -0.0322772712 -0.0214175414
  vertex 0.00698911678 -0.0348716788 -0.0264843348
  endloop
 endfacet

 facet normal 0 0 0
  outer loop
  vertex 0.00673849462 -0.00401489157 -0.00811778195
  vertex 0.00698911678 -0.0348716788 -0.0264843348
  vertex 0.00686781015 -0.0133518036 -0.0173498802
  endloop
 endfacet

 facet normal 0 0 0
  outer loop
  vertex 0.00673849462 -0.00401489157 -0.00811778195
  vertex 0.00686781015 -0.0133518036 -0.0173498802
  vertex 0.00486689992 -0.0117388703 -0.0190425497
  endloop
 endfacet

 facet normal 0 0 0
  outer loop
  vertex 0.00673849462 -0.00401489157 -0.00811778195
  vertex 0.00486689992 -0.0117388703 -0.0190425497
  vertex 0.00549707795 8.24658855e-06 -0.0056062704
  endloop
 endfacet

 facet normal 0 0 0
  outer loop
  vertex 0.00673849462 -0.00401489157 -0.00811778195
  vertex 0.00549707795 8.24658855e-06 -0.0056062704
  vertex 0.00471823849 0.00143125444 -0.00246995315
  endloop
 endfacet

 facet normal 0 0 0
  outer loop
  vertex 0.00673849462 -0.00401489157 -0.00811778195
  vertex 0.00471823849 0.00143125444 -0.00246995315
  vertex 0.00640513003 -0.00407878961 -0.00350812823
  endloop
 endfacet

 facet normal 0 0 0
  outer loop
  vertex 0.00280460669 -0.00172248599 -0.00937336776
  vertex 0.00486689992 -0.0117388703 -0.0190425497
  vertex -0.00262077968 -0.00782598555 -0.0160712674
  endloop
 endfacet

 facet normal 0 0 0
  outer loop
  vertex 0.00280460669 -0.00172248599 -0.00937336776
  vertex -0.00262077968 -0.00782598555 -0.0160712674
  vertex -0.00117819768 1.96530818e-05 -0.00737630622
  endloop
 endfacet

 facet normal 0 0 0
  outer loop
  vertex 0.00280460669 -0.00172248599 -0.00937336776
  vertex -0.00117819768 1.96530818e-05 -0.00737630622
  vertex 0.00549707795 8.24658855e-06 -0.0056062704
  endloop
 endfacet

 facet normal 0 0 0
  outer loop
  vertex 0.00280460669 -0.00172248599 -0.00937336776
  vertex 0.00549707795 8.24658855e-06 -0.0056062704
  vertex 0.00486689992 -0.0117388703 -0.0190425497
  endloop
 endfacet

 facet normal 0 0 0
  outer loop
  vertex -0.00603476539 -0.00186891865 -0.00243678829
  vertex -0.00593309989 -0.00645316858 -0.00290565239
  vertex -0.00394686218 -0.00281479047 -0.00036703283
  endloop
 endfacet

 facet normal 0 0 0
  outer loop
  vertex -0.00603476539 -0.00186891865 -0.00243678829
  vertex -0.00394686218 -0.00281479047 -0.00036703283
  vertex -0.00468614744 -8.26472751e-05 -0.000992562505
  endloop
 endfacet

 facet normal 0 0 0
  outer loop
  vertex -0.00603476539 -0.00186891865 -0.00243678829
  vertex -0.00468614744 -8.26472751e-05 -0.000992562505
  vertex -0.00431295251 0.00173435791 -0.00269870576
  endloop
 endfacet

 facet normal 0 0 0
  outer loop
  vertex -0.00603476539 -0.00186891865 -0.00243678829
  vertex -0.00431295251 0.00173435791 -0.00269870576
  vertex -0.00585856894 -0.000107771717 -0.00509745209
  endloop
 endfacet

 facet normal 0 0 0
  outer loop
  vertex -0.00603476539 -0.00186891865 -0.00243678829
  vertex -0.00585856894 -0.000107771717 -0.00509745209
  vertex -0.00694456603 -0.00720501784 -0.0109907603
  endloop
 endfacet

endsolid AssimpScene
