solid AssimpScene
 facet normal 0 0 0
  outer loop
  vertex 0.0318647437 0.0097198505 -0.00314019737
  vertex 0.0318647437 -0.0123096434 -0.00314019737
  vertex 0.0309862569 -0.0144306961 -0.00314019737
  endloop
 endfacet

 facet normal 0 0 0
  outer loop
  vertex 0.0318647437 0.0097198505 -0.00314019737
  vertex 0.0309862569 -0.0144306961 -0.00314019737
  vertex 0.0288652014 -0.0153091867 -0.00314019737
  endloop
 endfacet

 facet normal 0 0 0
  outer loop
  vertex 0.0318647437 0.0097198505 -0.00314019737
  vertex 0.0288652014 -0.0153091867 -0.00314019737
  vertex -0.02718197 -0.0151313115 -0.00314019737
  endloop
 endfacet

 facet normal 0 0 0
  outer loop
  vertex 0.0318647437 0.0097198505 -0.00314019737
  vertex -0.02718197 -0.0151313115 -0.00314019737
  vertex -0.0291638337 -0.0123096434 -0.00314019737
  endloop
 endfacet

 facet normal 0 0 0
  outer loop
  vertex 0.0318647437 0.0097198505 -0.00314019737
  vertex -0.0291638337 -0.0123096434 -0.00314019737
  vertex -0.0291638356 0.0097198505 -0.00314019737
  endloop
 endfacet

 facet normal 0 0 0
  outer loop
  vertex 0.0318647437 0.0097198505 -0.00314019737
  vertex -0.0291638356 0.0097198505 -0.00314019737
  vertex -0.0261642933 0.0127193946 -0.00314019737
  endloop
 endfacet

 facet normal 0 0 0
  outer loop
  vertex 0.0318647437 0.0097198505 -0.00314019737
  vertex -0.0261642933 0.0127193946 -0.00314019737
  vertex 0.0298828762 0.0125415176 -0.00314019737
  endloop
 endfacet

 facet normal 0 0 0
  outer loop
  vertex 0.0298832897 -0.0146045843 -0.0007212247
  vertex 0.030746812 -0.0117571829 -0.000480854127
  vertex 0.0191824175 -0.013844694 0.000165588077
  endloop
 endfacet

 facet normal 0 0 0
  outer loop
  vertex -0.0261642933 0.0127193946 -0.00314019737
  vertex 0.00662773103 0.0121023385 -0.00101880834
  vertex 0.0298828762 0.0125415176 -0.00314019737
  endloop
 endfacet

 facet normal 0 0 0
  outer loop
  vertex 0.0288652014 -0.0153091867 -0.00314019737
  vertex 0.0298832897 -0.0146045843 -0.0007212247
  vertex -0.0271497909 -0.0150991753 -0.00129839883
  endloop
 endfacet

 facet normal 0 0 0
  outer loop
  vertex 0.0288652014 -0.0153091867 -0.00314019737
  vertex -0.0271497909 -0.0150991753 -0.00129839883
  vertex -0.02718197 -0.0151313115 -0.00314019737
  endloop
 endfacet

 facet normal 0 0 0
  outer loop
  vertex -0.0288883075 -0.0116956588 -0.000850022945
  vertex -0.0291638356 0.0097198505 -0.00314019737
  vertex -0.0291638337 -0.0123096434 -0.00314019737
  endloop
 endfacet

 facet normal 0 0 0
  outer loop
  vertex -0.0260068942 0.011801742 -0.0015200387
  vertex 0.00662773103 0.0121023385 -0.00101880834
  vertex -0.0261642933 0.0127193946 -0.00314019737
  endloop
 endfacet

 facet normal 0 0 0
  outer loop
  vertex 0.0286296736 0.0119908918 -0.00157574669
  vertex 0.00662773103 0.0121023385 -0.00101880834
  vertex 0.0172908027 0.00725836027 -0.000644319865
  endloop
 endfacet

 facet normal 0 0 0
  outer loop
  vertex 0.0286296736 0.0119908918 -0.00157574669
  vertex 0.0172908027 0.00725836027 -0.000644319865
  vertex 0.0191824175 -0.013844694 0.000165588077
  endloop
 endfacet

 facet normal 0 0 0
  outer loop
  vertex 0.0286296736 0.0119908918 -0.00157574669
  vertex 0.0191824175 -0.013844694 0.000165588077
  vertex 0.030746812 -0.0117571829 -0.000480854127
  endloop
 endfacet

 facet normal 0 0 0
  outer loop
  vertex 0.0286296736 0.0119908918 -0.00157574669
  vertex 0.030746812 -0.0117571829 -0.000480854127
  vertex 0.0318311751 0.0097050257 -0.0022333723
  endloop
 endfacet

 facet normal 0 0 0
  outer loop
  vertex 0.0286296736 0.0119908918 -0.00157574669
  vertex 0.0318311751 0.0097050257 -0.0022333723
  vertex 0.0298828762 0.0125415176 -0.00314019737
  endloop
 endfacet

 facet normal 0 0 0
  outer loop
  vertex 0.0286296736 0.0119908918 -0.00157574669
  vertex 0.0298828762 0.0125415176 -0.00314019737
  vertex 0.00662773103 0.0121023385 -0.00101880834
  endloop
 endfacet

 facet normal 0 0 0
  outer loop
  vertex -0.028282227 0.0118178148 -0.00239089993
  vertex -0.0291638356 0.0097198505 -0.00314019737
  vertex -0.0288883075 -0.0116956588 -0.000850022945
  endloop
 endfacet

 facet normal 0 0 0
  outer loop
  vertex -0.028282227 0.0118178148 -0.00239089993
  vertex -0.0288883075 -0.0116956588 -0.000850022945
  vertex -0.0272207819 0.00496922061 -0.000978567754
  endloop
 endfacet

 facet normal 0 0 0
  outer loop
  vertex -0.028282227 0.0118178148 -0.00239089993
  vertex -0.0272207819 0.00496922061 -0.000978567754
  vertex -0.0260068942 0.011801742 -0.0015200387
  endloop
 endfacet

 facet normal 0 0 0
  outer loop
  vertex -0.028282227 0.0118178148 -0.00239089993
  vertex -0.0260068942 0.011801742 -0.0015200387
  vertex -0.0261642933 0.0127193946 -0.00314019737
  endloop
 endfacet

 facet normal 0 0 0
  outer loop
  vertex -0.028282227 0.0118178148 -0.00239089993
  vertex -0.0261642933 0.0127193946 -0.00314019737
  vertex -0.0291638356 0.0097198505 -0.00314019737
  endloop
 endfacet

 facet normal 0 0 0
  outer loop
  vertex 0.0191824175 -0.013844694 0.000165588077
  vertex 0.0172908027 0.00725836027 -0.000644319865
  vertex 0.00662773103 0.0121023385 -0.00101880834
  endloop
 endfacet

 facet normal 0 0 0
  outer loop
  vertex 0.0191824175 -0.013844694 0.000165588077
  vertex 0.00662773103 0.0121023385 -0.00101880834
  vertex -0.0260068942 0.011801742 -0.0015200387
  endloop
 endfacet

 facet normal 0 0 0
  outer loop
  vertex 0.0191824175 -0.013844694 0.000165588077
  vertex -0.0260068942 0.011801742 -0.0015200387
  vertex -0.0272207819 0.00496922061 -0.000978567754
  endloop
 endfacet

 facet normal 0 0 0
  outer loop
  vertex 0.0191824175 -0.013844694 0.000165588077
  vertex -0.0272207819 0.00496922061 -0.000978567754
  vertex -0.0131615521 -0.014019236 0.00024891537
  endloop
 endfacet

 facet normal 0 0 0
  outer loop
  vertex -0.0131615521 -0.014019236 0.00024891537
  vertex -0.0271497909 -0.0150991753 -0.00129839883
  vertex 0.0298832897 -0.0146045843 -0.0007212247
  endloop
 endfacet

 facet normal 0 0 0
  outer loop
  vertex -0.0131615521 -0.014019236 0.00024891537
  vertex 0.0298832897 -0.0146045843 -0.0007212247
  vertex 0.0191824175 -0.013844694 0.000165588077
  endloop
 endfacet

 facet normal 0 0 0
  outer loop
  vertex 0.0316663533 -0.0132229561 -0.00125903729
  vertex 0.030746812 -0.0117571829 -0.000480854127
  vertex 0.0298832897 -0.0146045843 -0.0007212247
  endloop
 endfacet

 facet normal 0 0 0
  outer loop
  vertex 0.0316663533 -0.0132229561 -0.00125903729
  vertex 0.0318647437 -0.0123096434 -0.00314019737
  vertex 0.0318311751 0.0097050257 -0.0022333723
  endloop
 endfacet

 facet normal 0 0 0
  outer loop
  vertex 0.0316663533 -0.0132229561 -0.00125903729
  vertex 0.0318311751 0.0097050257 -0.0022333723
  vertex 0.030746812 -0.0117571829 -0.000480854127
  endloop
 endfacet

 facet normal 0 0 0
  outer loop
  vertex 0.0309862569 -0.0144306961 -0.00314019737
  vertex 0.0318647437 -0.0123096434 -0.00314019737
  vertex 0.0316663533 -0.0132229561 -0.00125903729
  endloop
 endfacet

 facet normal 0 0 0
  outer loop
  vertex 0.0309862569 -0.0144306961 -0.00314019737
  vertex 0.0316663533 -0.0132229561 -0.00125903729
  vertex 0.0298832897 -0.0146045843 -0.0007212247
  endloop
 endfacet

 facet normal 0 0 0
  outer loop
  vertex 0.0309862569 -0.0144306961 -0.00314019737
  vertex 0.0298832897 -0.0146045843 -0.0007212247
  vertex 0.0288652014 -0.0153091867 -0.00314019737
  endloop
 endfacet

 facet normal 0 0 0
  outer loop
  vertex 0.0318647437 0.0097198505 -0.00314019737
  vertex 0.0298828762 0.0125415176 -0.00314019737
  vertex 0.0318311751 0.0097050257 -0.0022333723
  endloop
 endfacet

 facet normal 0 0 0
  outer loop
  vertex 0.0318647437 0.0097198505 -0.00314019737
  vertex 0.0318311751 0.0097050257 -0.0022333723
  vertex 0.0318647437 -0.0123096434 -0.00314019737
  endloop
 endfacet

 facet normal 0 0 0
  outer loop
  vertex -0.0287805591 -0.013661474 -0.00125975267
  vertex -0.0288883075 -0.0116956588 -0.000850022945
  vertex -0.0291638337 -0.0123096434 -0.00314019737
  endloop
 endfacet

 facet normal 0 0 0
  outer loop
  vertex -0.0287805591 -0.013661474 -0.00125975267
  vertex -0.0291638337 -0.0123096434 -0.00314019737
  vertex -0.02718197 -0.0151313115 -0.00314019737
  endloop
 endfacet

 facet normal 0 0 0
  outer loop
  vertex -0.0287805591 -0.013661474 -0.00125975267
  vertex -0.02718197 -0.0151313115 -0.00314019737
  vertex -0.0271497909 -0.0150991753 -0.00129839883
  endloop
 endfacet

 facet normal 0 0 0
  outer loop
  vertex -0.0266851708 -0.0141505981 -0.000362211053
  vertex -0.0271497909 -0.0150991753 -0.00129839883
  vertex -0.0131615521 -0.014019236 0.00024891537
  endloop
 endfacet

 facet normal 0 0 0
  outer loop
  vertex -0.0266851708 -0.0141505981 -0.000362211053
  vertex -0.0131615521 -0.014019236 0.00024891537
  vertex -0.0272207819 0.00496922061 -0.000978567754
  endloop
 endfacet

 facet normal 0 0 0
  outer loop
  vertex -0.0266851708 -0.0141505981 -0.000362211053
  vertex -0.0272207819 0.00496922061 -0.000978567754
  vertex -0.0288883075 -0.0116956588 -0.000850022945
  endloop
 endfacet

 facet normal 0 0 0
  outer loop
  vertex -0.0266851708 -0.0141505981 -0.000362211053
  vertex -0.0288883075 -0.0116956588 -0.000850022945
  vertex -0.0287805591 -0.013661474 -0.00125975267
  endloop
 endfacet

 facet normal 0 0 0
  outer loop
  vertex -0.0266851708 -0.0141505981 -0.000362211053
  vertex -0.0287805591 -0.013661474 -0.00125975267
  vertex -0.0271497909 -0.0150991753 -0.00129839883
  endloop
 endfacet

endsolid AssimpScene
