solid AssimpScene
 facet normal 0 0 0
  outer loop
  vertex -0.0190129038 0.0199238732 0.0142109282
  vertex -0.0103245517 0.0257674456 0.0140498029
  vertex 0.000833145401 0.0279188193 0.0140221603
  endloop
 endfacet

 facet normal 0 0 0
  outer loop
  vertex -0.0190129038 0.0199238732 0.0142109282
  vertex 0.000833145401 0.0279188193 0.0140221603
  vertex 0.000833219441 -0.0169795696 0.0140000023
  endloop
 endfacet

 facet normal 0 0 0
  outer loop
  vertex -0.0190129038 0.0199238732 0.0142109282
  vertex 0.000833219441 -0.0169795696 0.0140000023
  vertex 0.000833219441 -0.0281975158 0.0141370194
  endloop
 endfacet

 facet normal 0 0 0
  outer loop
  vertex -0.0190129038 0.0199238732 0.0142109282
  vertex 0.000833219441 -0.0281975158 0.0141370194
  vertex -0.00685132714 -0.0274431929 0.0142220818
  endloop
 endfacet

 facet normal 0 0 0
  outer loop
  vertex -0.0190129038 0.0199238732 0.0142109282
  vertex -0.00685132714 -0.0274431929 0.0142220818
  vertex -0.0191831719 -0.0200439636 0.0144489147
  endloop
 endfacet

 facet normal 0 0 0
  outer loop
  vertex -0.0190129038 0.0199238732 0.0142109282
  vertex -0.0191831719 -0.0200439636 0.0144489147
  vertex -0.0253069084 -0.00714894524 0.0144030787
  endloop
 endfacet

 facet normal 0 0 0
  outer loop
  vertex -0.00371919153 0.0380986258 0.0196506809
  vertex -0.0190129038 0.0199238732 0.0142109282
  vertex -0.0203241035 0.0289675742 0.0261423327
  endloop
 endfacet

 facet normal 0 0 0
  outer loop
  vertex 0.00683321944 0.0359094329 0.0827614889
  vertex 0.00683321944 -0.0356710665 0.0812632814
  vertex 0.00683321944 -0.0354829952 0.0582999997
  endloop
 endfacet

 facet normal 0 0 0
  outer loop
  vertex 0.00683321944 0.0359094329 0.0827614889
  vertex 0.00683321944 -0.0354829952 0.0582999997
  vertex 0.00642796326 0.0335904956 0.0213961434
  endloop
 endfacet

 facet normal 0 0 0
  outer loop
  vertex 0.00683321944 0.0359094329 0.0827614889
  vertex 0.00642796326 0.0335904956 0.0213961434
  vertex 0.00648776488 0.0382990539 0.0216374584
  endloop
 endfacet

 facet normal 0 0 0
  outer loop
  vertex 0.00683321944 0.0359094329 0.0827614889
  vertex 0.00648776488 0.0382990539 0.0216374584
  vertex 0.00665073656 0.0400155373 0.0283060074
  endloop
 endfacet

 facet normal 0 0 0
  outer loop
  vertex 0.00591471558 0.0428503789 0.0477192402
  vertex 0.00683321944 0.0359094329 0.0827614889
  vertex 0.00665073656 0.0400155373 0.0283060074
  endloop
 endfacet

 facet normal 0 0 0
  outer loop
  vertex -0.0252207723 0.00815699715 0.0147173889
  vertex -0.0190129038 0.0199238732 0.0142109282
  vertex -0.0253069084 -0.00714894524 0.0144030787
  endloop
 endfacet

 facet normal 0 0 0
  outer loop
  vertex 0.00683321944 -0.0356710665 0.0812632814
  vertex 0.00683321944 0.0359094329 0.0827614889
  vertex 0.000833219441 0.0359632522 0.0977465957
  endloop
 endfacet

 facet normal 0 0 0
  outer loop
  vertex 0.00683321944 -0.0356710665 0.0812632814
  vertex 0.000833219441 0.0359632522 0.0977465957
  vertex 0.000833219441 -0.000125537816 0.0986830741
  endloop
 endfacet

 facet normal 0 0 0
  outer loop
  vertex -0.00818350352 0.0178929232 0.100113146
  vertex -0.0235648938 0.000671337824 0.0965946242
  vertex -0.0225971751 -0.0213371217 0.0955277681
  endloop
 endfacet

 facet normal 0 0 0
  outer loop
  vertex -0.00818350352 0.0178929232 0.100113146
  vertex -0.0225971751 -0.0213371217 0.0955277681
  vertex -0.00872020144 -0.0201159064 0.0989348143
  endloop
 endfacet

 facet normal 0 0 0
  outer loop
  vertex -0.00872020144 -0.0201159064 0.0989348143
  vertex 0.000833219441 -0.0187747777 0.0976548791
  vertex 0.000833219441 -0.000125537816 0.0986830741
  endloop
 endfacet

 facet normal 0 0 0
  outer loop
  vertex -0.00872020144 -0.0201159064 0.0989348143
  vertex 0.000833219441 -0.000125537816 0.0986830741
  vertex -0.00818350352 0.0178929232 0.100113146
  endloop
 endfacet

 facet normal 0 0 0
  outer loop
  vertex -0.0237916168 -0.0246021412 0.0269359481
  vertex -0.0253069084 -0.00714894524 0.0144030787
  vertex -0.0191831719 -0.0200439636 0.0144489147
  endloop
 endfacet

 facet normal 0 0 0
  outer loop
  vertex -0.0237916168 -0.0246021412 0.0269359481
  vertex -0.0191831719 -0.0200439636 0.0144489147
  vertex -0.0187556911 -0.0304883663 0.0255590566
  endloop
 endfacet

 facet normal 0 0 0
  outer loop
  vertex -0.0092015788 -0.0342083536 0.0240683891
  vertex 0.000833269733 -0.0354212113 0.0258689281
  vertex -0.0108332755 -0.0361513868 0.0334913619
  endloop
 endfacet

 facet normal 0 0 0
  outer loop
  vertex 0.000833219441 0.0359632522 0.0977465957
  vertex -0.00764786964 0.0358914435 0.0988174006
  vertex -0.00818350352 0.0178929232 0.100113146
  endloop
 endfacet

 facet normal 0 0 0
  outer loop
  vertex 0.000833219441 0.0359632522 0.0977465957
  vertex -0.00818350352 0.0178929232 0.100113146
  vertex 0.000833219441 -0.000125537816 0.0986830741
  endloop
 endfacet

 facet normal 0 0 0
  outer loop
  vertex -0.023814613 0.0251152329 0.0273672827
  vertex -0.024201218 0.0273169633 0.0402982756
  vertex -0.0203241035 0.0289675742 0.0261423327
  endloop
 endfacet

 facet normal 0 0 0
  outer loop
  vertex -0.023814613 0.0251152329 0.0273672827
  vertex -0.0203241035 0.0289675742 0.0261423327
  vertex -0.0190129038 0.0199238732 0.0142109282
  endloop
 endfacet

 facet normal 0 0 0
  outer loop
  vertex -0.023814613 0.0251152329 0.0273672827
  vertex -0.0190129038 0.0199238732 0.0142109282
  vertex -0.0252207723 0.00815699715 0.0147173889
  endloop
 endfacet

 facet normal 0 0 0
  outer loop
  vertex -0.0259210393 9.0614285e-06 0.0622060187
  vertex -0.0239692349 -0.0104390737 0.095440194
  vertex -0.0235648938 0.000671337824 0.0965946242
  endloop
 endfacet

 facet normal 0 0 0
  outer loop
  vertex -0.0259210393 9.0614285e-06 0.0622060187
  vertex -0.0235648938 0.000671337824 0.0965946242
  vertex -0.0226015188 0.0318390578 0.0941156894
  endloop
 endfacet

 facet normal 0 0 0
  outer loop
  vertex 0.00642796326 0.0335904956 0.0213961434
  vertex 0.000833219441 -0.0281975158 0.0141370194
  vertex 0.000833219441 -0.0169795696 0.0140000023
  endloop
 endfacet

 facet normal 0 0 0
  outer loop
  vertex 0.000833219441 -0.0169795696 0.0140000023
  vertex 0.000833145401 0.0279188193 0.0140221603
  vertex 0.00439031702 0.0376834124 0.0187130608
  endloop
 endfacet

 facet normal 0 0 0
  outer loop
  vertex 0.000833219441 -0.0169795696 0.0140000023
  vertex 0.00439031702 0.0376834124 0.0187130608
  vertex 0.00648776488 0.0382990539 0.0216374584
  endloop
 endfacet

 facet normal 0 0 0
  outer loop
  vertex 0.000833219441 -0.0169795696 0.0140000023
  vertex 0.00648776488 0.0382990539 0.0216374584
  vertex 0.00642796326 0.0335904956 0.0213961434
  endloop
 endfacet

 facet normal 0 0 0
  outer loop
  vertex 0.00642796326 0.0335904956 0.0213961434
  vertex 0.00683321944 -0.0354829952 0.0582999997
  vertex 0.000833219441 -0.0281975158 0.0141370194
  endloop
 endfacet

 facet normal 0 0 0
  outer loop
  vertex 0.000790309685 0.0411586985 0.0273198746
  vertex -0.00269581703 0.0431572236 0.0466403961
  vertex 0.00591471558 0.0428503789 0.0477192402
  endloop
 endfacet

 facet normal 0 0 0
  outer loop
  vertex 0.000790309685 0.0411586985 0.0273198746
  vertex 0.00591471558 0.0428503789 0.0477192402
  vertex 0.00665073656 0.0400155373 0.0283060074
  endloop
 endfacet

 facet normal 0 0 0
  outer loop
  vertex 0.000790309685 0.0411586985 0.0273198746
  vertex 0.00439031702 0.0376834124 0.0187130608
  vertex -0.00371919153 0.0380986258 0.0196506809
  endloop
 endfacet

 facet normal 0 0 0
  outer loop
  vertex -0.00371919153 0.0380986258 0.0196506809
  vertex -0.0203241035 0.0289675742 0.0261423327
  vertex -0.0182973221 0.0328972787 0.0343022645
  endloop
 endfacet

 facet normal 0 0 0
  outer loop
  vertex -0.00371919153 0.0380986258 0.0196506809
  vertex -0.0182973221 0.0328972787 0.0343022645
  vertex -0.00463907421 0.0408514217 0.0293190517
  endloop
 endfacet

 facet normal 0 0 0
  outer loop
  vertex -0.00463907421 0.0408514217 0.0293190517
  vertex -0.0187396277 0.0350014977 0.0532579906
  vertex -0.00269581703 0.0431572236 0.0466403961
  endloop
 endfacet

 facet normal 0 0 0
  outer loop
  vertex -0.00463907421 0.0408514217 0.0293190517
  vertex -0.00269581703 0.0431572236 0.0466403961
  vertex 0.000790309685 0.0411586985 0.0273198746
  endloop
 endfacet

 facet normal 0 0 0
  outer loop
  vertex -0.00463907421 0.0408514217 0.0293190517
  vertex 0.000790309685 0.0411586985 0.0273198746
  vertex -0.00371919153 0.0380986258 0.0196506809
  endloop
 endfacet

 facet normal 0 0 0
  outer loop
  vertex 0.00648776488 0.0382990539 0.0216374584
  vertex 0.00439031702 0.0376834124 0.0187130608
  vertex 0.000790309685 0.0411586985 0.0273198746
  endloop
 endfacet

 facet normal 0 0 0
  outer loop
  vertex 0.00648776488 0.0382990539 0.0216374584
  vertex 0.000790309685 0.0411586985 0.0273198746
  vertex 0.00665073656 0.0400155373 0.0283060074
  endloop
 endfacet

 facet normal 0 0 0
  outer loop
  vertex 0.000676509924 0.0368202142 0.0172377415
  vertex -0.00371919153 0.0380986258 0.0196506809
  vertex 0.00439031702 0.0376834124 0.0187130608
  endloop
 endfacet

 facet normal 0 0 0
  outer loop
  vertex 0.000676509924 0.0368202142 0.0172377415
  vertex 0.00439031702 0.0376834124 0.0187130608
  vertex 0.000833145401 0.0279188193 0.0140221603
  endloop
 endfacet

 facet normal 0 0 0
  outer loop
  vertex -0.0166852977 -0.0346857272 0.0387311466
  vertex -0.0108332755 -0.0361513868 0.0334913619
  vertex -0.0127959447 -0.0379360765 0.062188141
  endloop
 endfacet

 facet normal 0 0 0
  outer loop
  vertex -0.0166852977 -0.0346857272 0.0387311466
  vertex -0.0127959447 -0.0379360765 0.062188141
  vertex -0.020183282 -0.0341802277 0.0621235557
  endloop
 endfacet

 facet normal 0 0 0
  outer loop
  vertex -0.0184435975 0.0359245948 0.0928012282
  vertex -0.0126928184 0.038424857 0.0913292766
  vertex -0.00269581703 0.0431572236 0.0466403961
  endloop
 endfacet

 facet normal 0 0 0
  outer loop
  vertex -0.0184435975 0.0359245948 0.0928012282
  vertex -0.00269581703 0.0431572236 0.0466403961
  vertex -0.0187396277 0.0350014977 0.0532579906
  endloop
 endfacet

 facet normal 0 0 0
  outer loop
  vertex -0.0184435975 0.0359245948 0.0928012282
  vertex -0.0226015188 0.0318390578 0.0941156894
  vertex -0.00764786964 0.0358914435 0.0988174006
  endloop
 endfacet

 facet normal 0 0 0
  outer loop
  vertex -0.0184435975 0.0359245948 0.0928012282
  vertex -0.00764786964 0.0358914435 0.0988174006
  vertex -0.0126928184 0.038424857 0.0913292766
  endloop
 endfacet

 facet normal 0 0 0
  outer loop
  vertex -0.00431618607 -0.039327573 0.0832110643
  vertex -0.0124654686 -0.0379961468 0.0910294056
  vertex -0.0127959447 -0.0379360765 0.062188141
  endloop
 endfacet

 facet normal 0 0 0
  outer loop
  vertex -0.00431618607 -0.039327573 0.0832110643
  vertex -0.0127959447 -0.0379360765 0.062188141
  vertex 0.000834345352 -0.0379776917 0.0436153002
  endloop
 endfacet

 facet normal 0 0 0
  outer loop
  vertex -0.00431618607 -0.039327573 0.0832110643
  vertex 0.000834345352 -0.0379776917 0.0436153002
  vertex 0.000833989121 -0.0389517583 0.0619461425
  endloop
 endfacet

 facet normal 0 0 0
  outer loop
  vertex -0.0188918225 -0.0353045166 0.0924434736
  vertex -0.0225383323 -0.0318004563 0.0937922373
  vertex -0.020183282 -0.0341802277 0.0621235557
  endloop
 endfacet

 facet normal 0 0 0
  outer loop
  vertex -0.0188918225 -0.0353045166 0.0924434736
  vertex -0.020183282 -0.0341802277 0.0621235557
  vertex -0.0127959447 -0.0379360765 0.062188141
  endloop
 endfacet

 facet normal 0 0 0
  outer loop
  vertex -0.0188918225 -0.0353045166 0.0924434736
  vertex -0.0127959447 -0.0379360765 0.062188141
  vertex -0.0124654686 -0.0379961468 0.0910294056
  endloop
 endfacet

 facet normal 0 0 0
  outer loop
  vertex -0.0188918225 -0.0353045166 0.0924434736
  vertex -0.00823205151 -0.0362046957 0.0968505442
  vertex -0.0225383323 -0.0318004563 0.0937922373
  endloop
 endfacet

 facet normal 0 0 0
  outer loop
  vertex 0.000833236205 -0.0393734463 0.0812537298
  vertex 0.000833219441 -0.0378555693 0.0950912759
  vertex -0.00431618607 -0.039327573 0.0832110643
  endloop
 endfacet

 facet normal 0 0 0
  outer loop
  vertex 0.000833236205 -0.0393734463 0.0812537298
  vertex -0.00431618607 -0.039327573 0.0832110643
  vertex 0.000833989121 -0.0389517583 0.0619461425
  endloop
 endfacet

 facet normal 0 0 0
  outer loop
  vertex 0.000833236205 -0.0393734463 0.0812537298
  vertex 0.000833989121 -0.0389517583 0.0619461425
  vertex 0.00683321944 -0.0354829952 0.0582999997
  endloop
 endfacet

 facet normal 0 0 0
  outer loop
  vertex 0.000833236205 -0.0393734463 0.0812537298
  vertex 0.00683321944 -0.0354829952 0.0582999997
  vertex 0.00683321944 -0.0356710665 0.0812632814
  endloop
 endfacet

 facet normal 0 0 0
  outer loop
  vertex 0.000833236205 -0.0393734463 0.0812537298
  vertex 0.00683321944 -0.0356710665 0.0812632814
  vertex 0.000833219441 -0.0378555693 0.0950912759
  endloop
 endfacet

 facet normal 0 0 0
  outer loop
  vertex -0.0262813475 0.00169094291 0.0150771029
  vertex -0.0253069084 -0.00714894524 0.0144030787
  vertex -0.0237916168 -0.0246021412 0.0269359481
  endloop
 endfacet

 facet normal 0 0 0
  outer loop
  vertex -0.0262813475 0.00169094291 0.0150771029
  vertex -0.0237916168 -0.0246021412 0.0269359481
  vertex -0.024281919 -0.026985066 0.0413135625
  endloop
 endfacet

 facet normal 0 0 0
  outer loop
  vertex -0.0262813475 0.00169094291 0.0150771029
  vertex -0.024201218 0.0273169633 0.0402982756
  vertex -0.023814613 0.0251152329 0.0273672827
  endloop
 endfacet

 facet normal 0 0 0
  outer loop
  vertex -0.0262813475 0.00169094291 0.0150771029
  vertex -0.023814613 0.0251152329 0.0273672827
  vertex -0.0252207723 0.00815699715 0.0147173889
  endloop
 endfacet

 facet normal 0 0 0
  outer loop
  vertex -0.0262813475 0.00169094291 0.0150771029
  vertex -0.0252207723 0.00815699715 0.0147173889
  vertex -0.0253069084 -0.00714894524 0.0144030787
  endloop
 endfacet

 facet normal 0 0 0
  outer loop
  vertex 0.00083324319 0.0392615274 0.0853625461
  vertex 0.00591471558 0.0428503789 0.0477192402
  vertex -0.00269581703 0.0431572236 0.0466403961
  endloop
 endfacet

 facet normal 0 0 0
  outer loop
  vertex 0.00083324319 0.0392615274 0.0853625461
  vertex -0.00269581703 0.0431572236 0.0466403961
  vertex -0.0126928184 0.038424857 0.0913292766
  endloop
 endfacet

 facet normal 0 0 0
  outer loop
  vertex -0.0231037885 0.0314382389 0.0639932901
  vertex -0.0226015188 0.0318390578 0.0941156894
  vertex -0.0184435975 0.0359245948 0.0928012282
  endloop
 endfacet

 facet normal 0 0 0
  outer loop
  vertex -0.0231037885 0.0314382389 0.0639932901
  vertex -0.0184435975 0.0359245948 0.0928012282
  vertex -0.0187396277 0.0350014977 0.0532579906
  endloop
 endfacet

 facet normal 0 0 0
  outer loop
  vertex -0.0231037885 0.0314382389 0.0639932901
  vertex -0.0187396277 0.0350014977 0.0532579906
  vertex -0.0182973221 0.0328972787 0.0343022645
  endloop
 endfacet

 facet normal 0 0 0
  outer loop
  vertex -0.0231037885 0.0314382389 0.0639932901
  vertex -0.0182973221 0.0328972787 0.0343022645
  vertex -0.0203241035 0.0289675742 0.0261423327
  endloop
 endfacet

 facet normal 0 0 0
  outer loop
  vertex -0.0231037885 0.0314382389 0.0639932901
  vertex -0.0203241035 0.0289675742 0.0261423327
  vertex -0.024201218 0.0273169633 0.0402982756
  endloop
 endfacet

 facet normal 0 0 0
  outer loop
  vertex -0.00274442742 0.0372257866 0.0975996852
  vertex -0.0126928184 0.038424857 0.0913292766
  vertex -0.00764786964 0.0358914435 0.0988174006
  endloop
 endfacet

 facet normal 0 0 0
  outer loop
  vertex -0.00274442742 0.0372257866 0.0975996852
  vertex 0.000833219441 0.0371118411 0.0973438695
  vertex 0.00083324319 0.0392615274 0.0853625461
  endloop
 endfacet

 facet normal 0 0 0
  outer loop
  vertex -0.00274442742 0.0372257866 0.0975996852
  vertex 0.00083324319 0.0392615274 0.0853625461
  vertex -0.0126928184 0.038424857 0.0913292766
  endloop
 endfacet

 facet normal 0 0 0
  outer loop
  vertex 0.000831506273 -0.0340930149 0.0219594426
  vertex 0.000833269733 -0.0354212113 0.0258689281
  vertex -0.0092015788 -0.0342083536 0.0240683891
  endloop
 endfacet

 facet normal 0 0 0
  outer loop
  vertex -0.0092015788 -0.0342083536 0.0240683891
  vertex -0.00685132714 -0.0274431929 0.0142220818
  vertex 0.000833219441 -0.0281975158 0.0141370194
  endloop
 endfacet

 facet normal 0 0 0
  outer loop
  vertex -0.0092015788 -0.0342083536 0.0240683891
  vertex 0.000833219441 -0.0281975158 0.0141370194
  vertex 0.000831506273 -0.0340930149 0.0219594426
  endloop
 endfacet

 facet normal 0 0 0
  outer loop
  vertex 0.000831506273 -0.0340930149 0.0219594426
  vertex 0.000833219441 -0.0281975158 0.0141370194
  vertex 0.00683321944 -0.0354829952 0.0582999997
  endloop
 endfacet

 facet normal 0 0 0
  outer loop
  vertex 0.000831506273 -0.0340930149 0.0219594426
  vertex 0.00683321944 -0.0354829952 0.0582999997
  vertex 0.000833269733 -0.0354212113 0.0258689281
  endloop
 endfacet

 facet normal 0 0 0
  outer loop
  vertex -0.0227825921 0.0229791347 0.0957987309
  vertex -0.0226015188 0.0318390578 0.0941156894
  vertex -0.0235648938 0.000671337824 0.0965946242
  endloop
 endfacet

 facet normal 0 0 0
  outer loop
  vertex -0.0235648938 0.000671337824 0.0965946242
  vertex -0.00818350352 0.0178929232 0.100113146
  vertex -0.00764786964 0.0358914435 0.0988174006
  endloop
 endfacet

 facet normal 0 0 0
  outer loop
  vertex -0.0235648938 0.000671337824 0.0965946242
  vertex -0.00764786964 0.0358914435 0.0988174006
  vertex -0.0227825921 0.0229791347 0.0957987309
  endloop
 endfacet

 facet normal 0 0 0
  outer loop
  vertex -0.0227825921 0.0229791347 0.0957987309
  vertex -0.00764786964 0.0358914435 0.0988174006
  vertex -0.0226015188 0.0318390578 0.0941156894
  endloop
 endfacet

 facet normal 0 0 0
  outer loop
  vertex -0.0103245517 0.0257674456 0.0140498029
  vertex -0.0190129038 0.0199238732 0.0142109282
  vertex -0.00371919153 0.0380986258 0.0196506809
  endloop
 endfacet

 facet normal 0 0 0
  outer loop
  vertex -0.0103245517 0.0257674456 0.0140498029
  vertex -0.00371919153 0.0380986258 0.0196506809
  vertex 0.000676509924 0.0368202142 0.0172377415
  endloop
 endfacet

 facet normal 0 0 0
  outer loop
  vertex -0.0103245517 0.0257674456 0.0140498029
  vertex 0.000676509924 0.0368202142 0.0172377415
  vertex 0.000833145401 0.0279188193 0.0140221603
  endloop
 endfacet

 facet normal 0 0 0
  outer loop
  vertex 0.000834345352 -0.0379776917 0.0436153002
  vertex 0.000833269733 -0.0354212113 0.0258689281
  vertex 0.00683321944 -0.0354829952 0.0582999997
  endloop
 endfacet

 facet normal 0 0 0
  outer loop
  vertex 0.000834345352 -0.0379776917 0.0436153002
  vertex 0.00683321944 -0.0354829952 0.0582999997
  vertex 0.000833989121 -0.0389517583 0.0619461425
  endloop
 endfacet

 facet normal 0 0 0
  outer loop
  vertex 0.000834345352 -0.0379776917 0.0436153002
  vertex -0.0127959447 -0.0379360765 0.062188141
  vertex -0.0108332755 -0.0361513868 0.0334913619
  endloop
 endfacet

 facet normal 0 0 0
  outer loop
  vertex 0.000834345352 -0.0379776917 0.0436153002
  vertex -0.0108332755 -0.0361513868 0.0334913619
  vertex 0.000833269733 -0.0354212113 0.0258689281
  endloop
 endfacet

 facet normal 0 0 0
  outer loop
  vertex 0.000833219441 0.0371118411 0.0973438695
  vertex 0.000833219441 0.0359632522 0.0977465957
  vertex 0.00683321944 0.0359094329 0.0827614889
  endloop
 endfacet

 facet normal 0 0 0
  outer loop
  vertex 0.00683321944 0.0359094329 0.0827614889
  vertex 0.00591471558 0.0428503789 0.0477192402
  vertex 0.00083324319 0.0392615274 0.0853625461
  endloop
 endfacet

 facet normal 0 0 0
  outer loop
  vertex 0.00683321944 0.0359094329 0.0827614889
  vertex 0.00083324319 0.0392615274 0.0853625461
  vertex 0.000833219441 0.0371118411 0.0973438695
  endloop
 endfacet

 facet normal 0 0 0
  outer loop
  vertex 0.000833219441 0.0371118411 0.0973438695
  vertex -0.00274442742 0.0372257866 0.0975996852
  vertex -0.00764786964 0.0358914435 0.0988174006
  endloop
 endfacet

 facet normal 0 0 0
  outer loop
  vertex 0.000833219441 0.0371118411 0.0973438695
  vertex -0.00764786964 0.0358914435 0.0988174006
  vertex 0.000833219441 0.0359632522 0.0977465957
  endloop
 endfacet

 facet normal 0 0 0
  outer loop
  vertex -0.0182973221 0.0328972787 0.0343022645
  vertex -0.0187396277 0.0350014977 0.0532579906
  vertex -0.00463907421 0.0408514217 0.0293190517
  endloop
 endfacet

 facet normal 0 0 0
  outer loop
  vertex -0.0247494746 0.0242090393 0.0621824525
  vertex -0.024201218 0.0273169633 0.0402982756
  vertex -0.0262813475 0.00169094291 0.0150771029
  endloop
 endfacet

 facet normal 0 0 0
  outer loop
  vertex -0.0262813475 0.00169094291 0.0150771029
  vertex -0.0259210393 9.0614285e-06 0.0622060187
  vertex -0.0226015188 0.0318390578 0.0941156894
  endloop
 endfacet

 facet normal 0 0 0
  outer loop
  vertex -0.0262813475 0.00169094291 0.0150771029
  vertex -0.0226015188 0.0318390578 0.0941156894
  vertex -0.0247494746 0.0242090393 0.0621824525
  endloop
 endfacet

 facet normal 0 0 0
  outer loop
  vertex -0.0226015188 0.0318390578 0.0941156894
  vertex -0.0231037885 0.0314382389 0.0639932901
  vertex -0.024201218 0.0273169633 0.0402982756
  endloop
 endfacet

 facet normal 0 0 0
  outer loop
  vertex -0.0226015188 0.0318390578 0.0941156894
  vertex -0.024201218 0.0273169633 0.0402982756
  vertex -0.0247494746 0.0242090393 0.0621824525
  endloop
 endfacet

 facet normal 0 0 0
  outer loop
  vertex -0.0262813475 0.00169094291 0.0150771029
  vertex -0.024281919 -0.026985066 0.0413135625
  vertex -0.0247575752 -0.0241913125 0.0621826164
  endloop
 endfacet

 facet normal 0 0 0
  outer loop
  vertex -0.0262813475 0.00169094291 0.0150771029
  vertex -0.0247575752 -0.0241913125 0.0621826164
  vertex -0.0239692349 -0.0104390737 0.095440194
  endloop
 endfacet

 facet normal 0 0 0
  outer loop
  vertex -0.0262813475 0.00169094291 0.0150771029
  vertex -0.0239692349 -0.0104390737 0.095440194
  vertex -0.0259210393 9.0614285e-06 0.0622060187
  endloop
 endfacet

 facet normal 0 0 0
  outer loop
  vertex -0.0137918983 -0.0317380056 0.0226016305
  vertex -0.00685132714 -0.0274431929 0.0142220818
  vertex -0.0092015788 -0.0342083536 0.0240683891
  endloop
 endfacet

 facet normal 0 0 0
  outer loop
  vertex -0.0137918983 -0.0317380056 0.0226016305
  vertex -0.0187556911 -0.0304883663 0.0255590566
  vertex -0.0191831719 -0.0200439636 0.0144489147
  endloop
 endfacet

 facet normal 0 0 0
  outer loop
  vertex -0.0137918983 -0.0317380056 0.0226016305
  vertex -0.0191831719 -0.0200439636 0.0144489147
  vertex -0.00685132714 -0.0274431929 0.0142220818
  endloop
 endfacet

 facet normal 0 0 0
  outer loop
  vertex -0.015132417 -0.0333673544 0.0270885192
  vertex -0.0187556911 -0.0304883663 0.0255590566
  vertex -0.0137918983 -0.0317380056 0.0226016305
  endloop
 endfacet

 facet normal 0 0 0
  outer loop
  vertex -0.015132417 -0.0333673544 0.0270885192
  vertex -0.0137918983 -0.0317380056 0.0226016305
  vertex -0.0092015788 -0.0342083536 0.0240683891
  endloop
 endfacet

 facet normal 0 0 0
  outer loop
  vertex -0.015132417 -0.0333673544 0.0270885192
  vertex -0.0092015788 -0.0342083536 0.0240683891
  vertex -0.0108332755 -0.0361513868 0.0334913619
  endloop
 endfacet

 facet normal 0 0 0
  outer loop
  vertex -0.015132417 -0.0333673544 0.0270885192
  vertex -0.0108332755 -0.0361513868 0.0334913619
  vertex -0.0166852977 -0.0346857272 0.0387311466
  endloop
 endfacet

 facet normal 0 0 0
  outer loop
  vertex -0.0239692349 -0.0104390737 0.095440194
  vertex -0.0247575752 -0.0241913125 0.0621826164
  vertex -0.0225383323 -0.0318004563 0.0937922373
  endloop
 endfacet

 facet normal 0 0 0
  outer loop
  vertex -0.0230974872 -0.031016428 0.0620663911
  vertex -0.020183282 -0.0341802277 0.0621235557
  vertex -0.0225383323 -0.0318004563 0.0937922373
  endloop
 endfacet

 facet normal 0 0 0
  outer loop
  vertex -0.0225383323 -0.0318004563 0.0937922373
  vertex -0.0247575752 -0.0241913125 0.0621826164
  vertex -0.024281919 -0.026985066 0.0413135625
  endloop
 endfacet

 facet normal 0 0 0
  outer loop
  vertex -0.0225383323 -0.0318004563 0.0937922373
  vertex -0.024281919 -0.026985066 0.0413135625
  vertex -0.0230974872 -0.031016428 0.0620663911
  endloop
 endfacet

 facet normal 0 0 0
  outer loop
  vertex -0.00561001385 -0.037547268 0.0961542204
  vertex 0.000833219441 -0.0378555693 0.0950912759
  vertex -0.00823205151 -0.0362046957 0.0968505442
  endloop
 endfacet

 facet normal 0 0 0
  outer loop
  vertex -0.00561001385 -0.037547268 0.0961542204
  vertex -0.00823205151 -0.0362046957 0.0968505442
  vertex -0.0188918225 -0.0353045166 0.0924434736
  endloop
 endfacet

 facet normal 0 0 0
  outer loop
  vertex -0.00561001385 -0.037547268 0.0961542204
  vertex -0.0188918225 -0.0353045166 0.0924434736
  vertex -0.0124654686 -0.0379961468 0.0910294056
  endloop
 endfacet

 facet normal 0 0 0
  outer loop
  vertex -0.0124654686 -0.0379961468 0.0910294056
  vertex -0.00431618607 -0.039327573 0.0832110643
  vertex 0.000833219441 -0.0378555693 0.0950912759
  endloop
 endfacet

 facet normal 0 0 0
  outer loop
  vertex -0.0124654686 -0.0379961468 0.0910294056
  vertex 0.000833219441 -0.0378555693 0.0950912759
  vertex -0.00561001385 -0.037547268 0.0961542204
  endloop
 endfacet

 facet normal 0 0 0
  outer loop
  vertex -0.0201544631 -0.0312190894 0.0331457816
  vertex -0.0187556911 -0.0304883663 0.0255590566
  vertex -0.015132417 -0.0333673544 0.0270885192
  endloop
 endfacet

 facet normal 0 0 0
  outer loop
  vertex -0.0201544631 -0.0312190894 0.0331457816
  vertex -0.015132417 -0.0333673544 0.0270885192
  vertex -0.0166852977 -0.0346857272 0.0387311466
  endloop
 endfacet

 facet normal 0 0 0
  outer loop
  vertex -0.0201544631 -0.0312190894 0.0331457816
  vertex -0.0166852977 -0.0346857272 0.0387311466
  vertex -0.020183282 -0.0341802277 0.0621235557
  endloop
 endfacet

 facet normal 0 0 0
  outer loop
  vertex -0.0201544631 -0.0312190894 0.0331457816
  vertex -0.020183282 -0.0341802277 0.0621235557
  vertex -0.0230974872 -0.031016428 0.0620663911
  endloop
 endfacet

 facet normal 0 0 0
  outer loop
  vertex -0.0201544631 -0.0312190894 0.0331457816
  vertex -0.0230974872 -0.031016428 0.0620663911
  vertex -0.024281919 -0.026985066 0.0413135625
  endloop
 endfacet

 facet normal 0 0 0
  outer loop
  vertex -0.0201544631 -0.0312190894 0.0331457816
  vertex -0.024281919 -0.026985066 0.0413135625
  vertex -0.0237916168 -0.0246021412 0.0269359481
  endloop
 endfacet

 facet normal 0 0 0
  outer loop
  vertex -0.0201544631 -0.0312190894 0.0331457816
  vertex -0.0237916168 -0.0246021412 0.0269359481
  vertex -0.0187556911 -0.0304883663 0.0255590566
  endloop
 endfacet

 facet normal 0 0 0
  outer loop
  vertex 0.000833219441 -0.0187747777 0.0976548791
  vertex -0.00872020144 -0.0201159064 0.0989348143
  vertex -0.00823205151 -0.0362046957 0.0968505442
  endloop
 endfacet

 facet normal 0 0 0
  outer loop
  vertex 0.000833219441 -0.0187747777 0.0976548791
  vertex -0.00823205151 -0.0362046957 0.0968505442
  vertex 0.000833219441 -0.0378555693 0.0950912759
  endloop
 endfacet

 facet normal 0 0 0
  outer loop
  vertex 0.000833219441 -0.0187747777 0.0976548791
  vertex 0.000833219441 -0.0378555693 0.0950912759
  vertex 0.00683321944 -0.0356710665 0.0812632814
  endloop
 endfacet

 facet normal 0 0 0
  outer loop
  vertex 0.000833219441 -0.0187747777 0.0976548791
  vertex 0.00683321944 -0.0356710665 0.0812632814
  vertex 0.000833219441 -0.000125537816 0.0986830741
  endloop
 endfacet

 facet normal 0 0 0
  outer loop
  vertex -0.0225971751 -0.0213371217 0.0955277681
  vertex -0.0235648938 0.000671337824 0.0965946242
  vertex -0.0239692349 -0.0104390737 0.095440194
  endloop
 endfacet

 facet normal 0 0 0
  outer loop
  vertex -0.0225971751 -0.0213371217 0.0955277681
  vertex -0.0239692349 -0.0104390737 0.095440194
  vertex -0.0225383323 -0.0318004563 0.0937922373
  endloop
 endfacet

 facet normal 0 0 0
  outer loop
  vertex -0.0225971751 -0.0213371217 0.0955277681
  vertex -0.0225383323 -0.0318004563 0.0937922373
  vertex -0.00823205151 -0.0362046957 0.0968505442
  endloop
 endfacet

 facet normal 0 0 0
  outer loop
  vertex -0.0225971751 -0.0213371217 0.0955277681
  vertex -0.00823205151 -0.0362046957 0.0968505442
  vertex -0.00872020144 -0.0201159064 0.0989348143
  endloop
 endfacet

endsolid AssimpScene
