solid AssimpScene
 facet normal 0 0 0
  outer loop
  vertex 0.0150482124 -0.0193339437 -4.52995336e-10
  vertex -0.00411486486 -0.024659032 0.000500000548
  vertex -0.0120110549 -0.0219256599 0.000500000548
  endloop
 endfacet

 facet normal 0 0 0
  outer loop
  vertex 0.0150482124 -0.0193339437 -4.52995336e-10
  vertex -0.0120110549 -0.0219256599 0.000500000548
  vertex -0.0209667664 -0.0136159761 0.000500000548
  endloop
 endfacet

 facet normal 0 0 0
  outer loop
  vertex 0.0150482124 -0.0193339437 -4.52995336e-10
  vertex -0.0209667664 -0.0136159761 0.000500000548
  vertex -0.02441632 0.00202319399 -4.52995336e-10
  endloop
 endfacet

 facet normal 0 0 0
  outer loop
  vertex 0.0150482124 -0.0193339437 -4.52995336e-10
  vertex -0.02441632 0.00202319399 -4.52995336e-10
  vertex -0.0153553179 0.0197285134 0.000500000548
  endloop
 endfacet

 facet normal 0 0 0
  outer loop
  vertex 0.0150482124 -0.0193339437 -4.52995336e-10
  vertex -0.0153553179 0.0197285134 0.000500000548
  vertex 0.00300000026 0.0211700406 -4.52995336e-10
  endloop
 endfacet

 facet normal 0 0 0
  outer loop
  vertex 0.00300000026 0.0211700406 -4.52995336e-10
  vertex 0.0153553179 0.0197285134 0.000500000548
  vertex 0.0209291615 0.013673705 0.000500000548
  endloop
 endfacet

 facet normal 0 0 0
  outer loop
  vertex 0.00300000026 0.0211700406 -4.52995336e-10
  vertex 0.0209291615 0.013673705 0.000500000548
  vertex 0.0242350083 0.0061371373 0.000500000548
  endloop
 endfacet

 facet normal 0 0 0
  outer loop
  vertex 0.00300000026 0.0211700406 -4.52995336e-10
  vertex 0.0242350083 0.0061371373 0.000500000548
  vertex 0.024914613 -0.00206448371 0.000500000548
  endloop
 endfacet

 facet normal 0 0 0
  outer loop
  vertex 0.00300000026 0.0211700406 -4.52995336e-10
  vertex 0.024914613 -0.00206448371 0.000500000548
  vertex 0.0150482124 -0.0193339437 -4.52995336e-10
  endloop
 endfacet

 facet normal 0 0 0
  outer loop
  vertex 0.0229140557 -0.0099973008 0.000500000548
  vertex 0.024914613 -0.00206448371 0.0134000005
  vertex 0.0109762168 -0.0321010016 0.108146429
  endloop
 endfacet

 facet normal 0 0 0
  outer loop
  vertex 0.0229140557 -0.0099973008 0.000500000548
  vertex 0.0109762168 -0.0321010016 0.108146429
  vertex 0.0140889427 -0.0322829969 0.0338534676
  endloop
 endfacet

 facet normal 0 0 0
  outer loop
  vertex 0.00411486486 0.024659032 0.000500000548
  vertex 0.0153553179 0.0197285134 0.000500000548
  vertex 0.00300000026 0.0211700406 -4.52995336e-10
  endloop
 endfacet

 facet normal 0 0 0
  outer loop
  vertex 0.00411486486 0.024659032 0.000500000548
  vertex 0.00300000026 0.0211700406 -4.52995336e-10
  vertex -0.00811748672 0.0236454327 0.000500000548
  endloop
 endfacet

 facet normal 0 0 0
  outer loop
  vertex 0.00411486486 0.024659032 0.000500000548
  vertex -0.00811748672 0.0236454327 0.000500000548
  vertex 0.00130913628 0.0382411107 0.0303629003
  endloop
 endfacet

 facet normal 0 0 0
  outer loop
  vertex 0.0208604056 0.0315712318 0.0449111909
  vertex 0.023360407 0.0272411127 0.0449109748
  vertex 0.023188265 0.028535204 0.0246109888
  endloop
 endfacet

 facet normal 0 0 0
  outer loop
  vertex 0.024914613 -0.00206448371 0.0134000005
  vertex 0.023360407 0.0272411127 0.0449109748
  vertex 0.0109762168 -0.0321010016 0.108146429
  endloop
 endfacet

 facet normal 0 0 0
  outer loop
  vertex -0.0194506776 -0.0287996568 0.0556053668
  vertex -0.0120110549 -0.0219256599 0.000500000548
  vertex -0.00411486486 -0.024659032 0.000500000548
  endloop
 endfacet

 facet normal 0 0 0
  outer loop
  vertex -0.0194506776 -0.0287996568 0.0556053668
  vertex -0.00411486486 -0.024659032 0.000500000548
  vertex 0.0085794488 -0.0340829976 0.0329670236
  endloop
 endfacet

 facet normal 0 0 0
  outer loop
  vertex -0.0194506776 -0.0287996568 0.0556053668
  vertex 0.0085794488 -0.0340829976 0.0329670236
  vertex -0.0200489592 -0.0318198837 0.0843408927
  endloop
 endfacet

 facet normal 0 0 0
  outer loop
  vertex 0.0196527299 0.0320707336 0.024611298
  vertex 0.0153553179 0.0197285134 0.000500000548
  vertex 0.00411486486 0.024659032 0.000500000548
  endloop
 endfacet

 facet normal 0 0 0
  outer loop
  vertex 0.0196527299 0.0320707336 0.024611298
  vertex 0.0208604056 0.0315712318 0.0449111909
  vertex 0.023188265 0.028535204 0.0246109888
  endloop
 endfacet

 facet normal 0 0 0
  outer loop
  vertex 0.00811748672 -0.0236454327 0.000500000548
  vertex 0.0085794488 -0.0340829976 0.0329670236
  vertex -0.00411486486 -0.024659032 0.000500000548
  endloop
 endfacet

 facet normal 0 0 0
  outer loop
  vertex 0.00811748672 -0.0236454327 0.000500000548
  vertex -0.00411486486 -0.024659032 0.000500000548
  vertex 0.0150482124 -0.0193339437 -4.52995336e-10
  endloop
 endfacet

 facet normal 0 0 0
  outer loop
  vertex -0.0120110549 -0.0219256599 0.000500000548
  vertex -0.0194506776 -0.0287996568 0.0556053668
  vertex -0.0209667664 -0.0136159761 0.000500000548
  endloop
 endfacet

 facet normal 0 0 0
  outer loop
  vertex -0.0211310312 0.030571647 0.0859830007
  vertex -0.0250000004 2.40557357e-18 0.00199999986
  vertex -0.0212833267 -0.0299795754 0.0845086128
  endloop
 endfacet

 facet normal 0 0 0
  outer loop
  vertex -0.0211310312 0.030571647 0.0859830007
  vertex -0.0212833267 -0.0299795754 0.0845086128
  vertex -0.0212832633 -0.00547521561 0.0865175873
  endloop
 endfacet

 facet normal 0 0 0
  outer loop
  vertex 0.00111007004 0.0344428122 0.0930153131
  vertex -0.00135530706 0.0316316411 0.107660592
  vertex 0.010036069 0.0319261253 0.109199293
  endloop
 endfacet

 facet normal 0 0 0
  outer loop
  vertex 0.023360407 0.0272411127 0.0449109748
  vertex 0.024914613 -0.00206448371 0.0134000005
  vertex 0.024914613 -0.00206448371 0.000500000548
  endloop
 endfacet

 facet normal 0 0 0
  outer loop
  vertex 0.023360407 0.0272411127 0.0449109748
  vertex 0.024914613 -0.00206448371 0.000500000548
  vertex 0.0242350083 0.0061371373 0.000500000548
  endloop
 endfacet

 facet normal 0 0 0
  outer loop
  vertex 0.023360407 0.0272411127 0.0449109748
  vertex 0.0242350083 0.0061371373 0.000500000548
  vertex 0.023188265 0.028535204 0.0246109888
  endloop
 endfacet

 facet normal 0 0 0
  outer loop
  vertex 0.024914613 -0.00206448371 0.000500000548
  vertex 0.024914613 -0.00206448371 0.0134000005
  vertex 0.0229140557 -0.0099973008 0.000500000548
  endloop
 endfacet

 facet normal 0 0 0
  outer loop
  vertex 0.024914613 -0.00206448371 0.000500000548
  vertex 0.0229140557 -0.0099973008 0.000500000548
  vertex 0.0150482124 -0.0193339437 -4.52995336e-10
  endloop
 endfacet

 facet normal 0 0 0
  outer loop
  vertex -0.00649522757 0.00661769975 0.10391932
  vertex -0.0064951377 0.029360367 0.103286363
  vertex -0.0211310312 0.030571647 0.0859830007
  endloop
 endfacet

 facet normal 0 0 0
  outer loop
  vertex -0.00649522757 0.00661769975 0.10391932
  vertex -0.0211310312 0.030571647 0.0859830007
  vertex -0.0212832633 -0.00547521561 0.0865175873
  endloop
 endfacet

 facet normal 0 0 0
  outer loop
  vertex -0.0153553179 0.0197285134 0.000500000548
  vertex -0.0209291615 0.013673705 0.000500000548
  vertex -0.0200992022 0.0294559058 0.0571124405
  endloop
 endfacet

 facet normal 0 0 0
  outer loop
  vertex -0.0153553179 0.0197285134 0.000500000548
  vertex -0.0200992022 0.0294559058 0.0571124405
  vertex 0.00130913628 0.0382411107 0.0303629003
  endloop
 endfacet

 facet normal 0 0 0
  outer loop
  vertex -0.0153553179 0.0197285134 0.000500000548
  vertex 0.00130913628 0.0382411107 0.0303629003
  vertex -0.00811748672 0.0236454327 0.000500000548
  endloop
 endfacet

 facet normal 0 0 0
  outer loop
  vertex -0.0153553179 0.0197285134 0.000500000548
  vertex -0.00811748672 0.0236454327 0.000500000548
  vertex 0.00300000026 0.0211700406 -4.52995336e-10
  endloop
 endfacet

 facet normal 0 0 0
  outer loop
  vertex -0.0153553179 0.0197285134 0.000500000548
  vertex -0.02441632 0.00202319399 -4.52995336e-10
  vertex -0.0209291615 0.013673705 0.000500000548
  endloop
 endfacet

 facet normal 0 0 0
  outer loop
  vertex -0.0242422372 -0.00610851031 0.000500000548
  vertex -0.0250000004 2.40557357e-18 0.00199999986
  vertex -0.02441632 0.00202319399 -4.52995336e-10
  endloop
 endfacet

 facet normal 0 0 0
  outer loop
  vertex -0.0242422372 -0.00610851031 0.000500000548
  vertex -0.02441632 0.00202319399 -4.52995336e-10
  vertex -0.0209667664 -0.0136159761 0.000500000548
  endloop
 endfacet

 facet normal 0 0 0
  outer loop
  vertex -0.00056949869 0.00461770035 0.108911887
  vertex -0.00135530706 0.0316316411 0.107660592
  vertex -0.0064951377 0.029360367 0.103286363
  endloop
 endfacet

 facet normal 0 0 0
  outer loop
  vertex -0.00056949869 0.00461770035 0.108911887
  vertex -0.0064951377 0.029360367 0.103286363
  vertex -0.00649522757 0.00661769975 0.10391932
  endloop
 endfacet

 facet normal 0 0 0
  outer loop
  vertex -0.00056949869 0.00461770035 0.108911887
  vertex -0.00649522757 0.00661769975 0.10391932
  vertex -0.00135532161 -0.0245905407 0.106899537
  endloop
 endfacet

 facet normal 0 0 0
  outer loop
  vertex 0.0109762168 -0.0321010016 0.108146429
  vertex 0.023360407 0.0272411127 0.0449109748
  vertex 0.0117397718 0.0307517871 0.107198462
  endloop
 endfacet

 facet normal 0 0 0
  outer loop
  vertex 0.0109762168 -0.0321010016 0.108146429
  vertex 0.0117397718 0.0307517871 0.107198462
  vertex 0.0116737047 0.0257821977 0.107848421
  endloop
 endfacet

 facet normal 0 0 0
  outer loop
  vertex 0.0209291615 0.013673705 0.000500000548
  vertex 0.0153553179 0.0197285134 0.000500000548
  vertex 0.0196527299 0.0320707336 0.024611298
  endloop
 endfacet

 facet normal 0 0 0
  outer loop
  vertex 0.0209291615 0.013673705 0.000500000548
  vertex 0.0196527299 0.0320707336 0.024611298
  vertex 0.023188265 0.028535204 0.0246109888
  endloop
 endfacet

 facet normal 0 0 0
  outer loop
  vertex 0.0209291615 0.013673705 0.000500000548
  vertex 0.023188265 0.028535204 0.0246109888
  vertex 0.0242350083 0.0061371373 0.000500000548
  endloop
 endfacet

 facet normal 0 0 0
  outer loop
  vertex 0.00945048872 -0.0134381382 0.11044012
  vertex 0.0094504552 0.0113177001 0.11102549
  vertex -0.00056949869 0.00461770035 0.108911887
  endloop
 endfacet

 facet normal 0 0 0
  outer loop
  vertex -0.00056949869 0.00461770035 0.108911887
  vertex -0.00135532161 -0.0245905407 0.106899537
  vertex -0.00135532161 -0.0327456184 0.106042407
  endloop
 endfacet

 facet normal 0 0 0
  outer loop
  vertex -0.00056949869 0.00461770035 0.108911887
  vertex -0.00135532161 -0.0327456184 0.106042407
  vertex 0.00945055392 -0.0320230164 0.108734064
  endloop
 endfacet

 facet normal 0 0 0
  outer loop
  vertex -0.00056949869 0.00461770035 0.108911887
  vertex 0.00945055392 -0.0320230164 0.108734064
  vertex 0.00945048872 -0.0134381382 0.11044012
  endloop
 endfacet

 facet normal 0 0 0
  outer loop
  vertex -0.0212833267 -0.0299795754 0.0845086128
  vertex -0.0200489592 -0.0318198837 0.0843408927
  vertex -0.00135532161 -0.0327456184 0.106042407
  endloop
 endfacet

 facet normal 0 0 0
  outer loop
  vertex -0.0212833267 -0.0299795754 0.0845086128
  vertex -0.0250000004 2.40557357e-18 0.00199999986
  vertex -0.0242422372 -0.00610851031 0.000500000548
  endloop
 endfacet

 facet normal 0 0 0
  outer loop
  vertex -0.0212833267 -0.0299795754 0.0845086128
  vertex -0.0242422372 -0.00610851031 0.000500000548
  vertex -0.0209667664 -0.0136159761 0.000500000548
  endloop
 endfacet

 facet normal 0 0 0
  outer loop
  vertex -0.0212833267 -0.0299795754 0.0845086128
  vertex -0.0209667664 -0.0136159761 0.000500000548
  vertex -0.0194506776 -0.0287996568 0.0556053668
  endloop
 endfacet

 facet normal 0 0 0
  outer loop
  vertex -0.0212833267 -0.0299795754 0.0845086128
  vertex -0.0194506776 -0.0287996568 0.0556053668
  vertex -0.0200489592 -0.0318198837 0.0843408927
  endloop
 endfacet

 facet normal 0 0 0
  outer loop
  vertex 0.00945055857 0.0307923183 0.110318206
  vertex 0.010036069 0.0319261253 0.109199293
  vertex -0.00135530706 0.0316316411 0.107660592
  endloop
 endfacet

 facet normal 0 0 0
  outer loop
  vertex -0.00135530706 0.0316316411 0.107660592
  vertex -0.00056949869 0.00461770035 0.108911887
  vertex 0.0094504552 0.0113177001 0.11102549
  endloop
 endfacet

 facet normal 0 0 0
  outer loop
  vertex -0.00135530706 0.0316316411 0.107660592
  vertex 0.0094504552 0.0113177001 0.11102549
  vertex 0.00945055857 0.0307923183 0.110318206
  endloop
 endfacet

 facet normal 0 0 0
  outer loop
  vertex 0.0117397718 0.0307517871 0.107198462
  vertex 0.023360407 0.0272411127 0.0449109748
  vertex 0.0208604056 0.0315712318 0.0449111909
  endloop
 endfacet

 facet normal 0 0 0
  outer loop
  vertex 0.0117397718 0.0307517871 0.107198462
  vertex 0.0208604056 0.0315712318 0.0449111909
  vertex 0.010036069 0.0319261253 0.109199293
  endloop
 endfacet

 facet normal 0 0 0
  outer loop
  vertex 0.0109342132 0.00561769959 0.110544272
  vertex 0.0109762168 -0.0321010016 0.108146429
  vertex 0.0116737047 0.0257821977 0.107848421
  endloop
 endfacet

 facet normal 0 0 0
  outer loop
  vertex 0.0109342132 0.00561769959 0.110544272
  vertex 0.0094504552 0.0113177001 0.11102549
  vertex 0.00945048872 -0.0134381382 0.11044012
  endloop
 endfacet

 facet normal 0 0 0
  outer loop
  vertex 0.0109342132 0.00561769959 0.110544272
  vertex 0.00945048872 -0.0134381382 0.11044012
  vertex 0.0109762168 -0.0321010016 0.108146429
  endloop
 endfacet

 facet normal 0 0 0
  outer loop
  vertex -0.0242350083 0.0061371373 0.000500000548
  vertex -0.0209291615 0.013673705 0.000500000548
  vertex -0.02441632 0.00202319399 -4.52995336e-10
  endloop
 endfacet

 facet normal 0 0 0
  outer loop
  vertex -0.0242350083 0.0061371373 0.000500000548
  vertex -0.02441632 0.00202319399 -4.52995336e-10
  vertex -0.0250000004 2.40557357e-18 0.00199999986
  endloop
 endfacet

 facet normal 0 0 0
  outer loop
  vertex -0.0242350083 0.0061371373 0.000500000548
  vertex -0.0250000004 2.40557357e-18 0.00199999986
  vertex -0.0211310312 0.030571647 0.0859830007
  endloop
 endfacet

 facet normal 0 0 0
  outer loop
  vertex -0.0242350083 0.0061371373 0.000500000548
  vertex -0.0211310312 0.030571647 0.0859830007
  vertex -0.0200992022 0.0294559058 0.0571124405
  endloop
 endfacet

 facet normal 0 0 0
  outer loop
  vertex -0.0242350083 0.0061371373 0.000500000548
  vertex -0.0200992022 0.0294559058 0.0571124405
  vertex -0.0209291615 0.013673705 0.000500000548
  endloop
 endfacet

 facet normal 0 0 0
  outer loop
  vertex 0.0116598858 -0.0340829976 0.034628626
  vertex 0.0085794488 -0.0340829976 0.0329670236
  vertex 0.00811748672 -0.0236454327 0.000500000548
  endloop
 endfacet

 facet normal 0 0 0
  outer loop
  vertex 0.00811748672 -0.0236454327 0.000500000548
  vertex 0.0150482124 -0.0193339437 -4.52995336e-10
  vertex 0.0140889427 -0.0322829969 0.0338534676
  endloop
 endfacet

 facet normal 0 0 0
  outer loop
  vertex 0.00811748672 -0.0236454327 0.000500000548
  vertex 0.0140889427 -0.0322829969 0.0338534676
  vertex 0.0116598858 -0.0340829976 0.034628626
  endloop
 endfacet

 facet normal 0 0 0
  outer loop
  vertex 0.018452974 -0.0168667641 0.000500000548
  vertex 0.0150482124 -0.0193339437 -4.52995336e-10
  vertex 0.0229140557 -0.0099973008 0.000500000548
  endloop
 endfacet

 facet normal 0 0 0
  outer loop
  vertex 0.018452974 -0.0168667641 0.000500000548
  vertex 0.0229140557 -0.0099973008 0.000500000548
  vertex 0.0140889427 -0.0322829969 0.0338534676
  endloop
 endfacet

 facet normal 0 0 0
  outer loop
  vertex 0.018452974 -0.0168667641 0.000500000548
  vertex 0.0140889427 -0.0322829969 0.0338534676
  vertex 0.0150482124 -0.0193339437 -4.52995336e-10
  endloop
 endfacet

 facet normal 0 0 0
  outer loop
  vertex 0.0109356353 0.0307921432 0.109833136
  vertex 0.0117397718 0.0307517871 0.107198462
  vertex 0.010036069 0.0319261253 0.109199293
  endloop
 endfacet

 facet normal 0 0 0
  outer loop
  vertex 0.0109356353 0.0307921432 0.109833136
  vertex 0.010036069 0.0319261253 0.109199293
  vertex 0.00945055857 0.0307923183 0.110318206
  endloop
 endfacet

 facet normal 0 0 0
  outer loop
  vertex 0.0109356353 0.0307921432 0.109833136
  vertex 0.00945055857 0.0307923183 0.110318206
  vertex 0.0094504552 0.0113177001 0.11102549
  endloop
 endfacet

 facet normal 0 0 0
  outer loop
  vertex 0.0109356353 0.0307921432 0.109833136
  vertex 0.0094504552 0.0113177001 0.11102549
  vertex 0.0109342132 0.00561769959 0.110544272
  endloop
 endfacet

 facet normal 0 0 0
  outer loop
  vertex 0.0109342132 0.00561769959 0.110544272
  vertex 0.0116737047 0.0257821977 0.107848421
  vertex 0.0117397718 0.0307517871 0.107198462
  endloop
 endfacet

 facet normal 0 0 0
  outer loop
  vertex 0.0109342132 0.00561769959 0.110544272
  vertex 0.0117397718 0.0307517871 0.107198462
  vertex 0.0109356353 0.0307921432 0.109833136
  endloop
 endfacet

 facet normal 0 0 0
  outer loop
  vertex 0.00992671866 -0.0331063718 0.107763886
  vertex 0.00691000698 -0.0349152908 0.0912884101
  vertex 0.0116598858 -0.0340829976 0.034628626
  endloop
 endfacet

 facet normal 0 0 0
  outer loop
  vertex 0.00992671866 -0.0331063718 0.107763886
  vertex 0.0116598858 -0.0340829976 0.034628626
  vertex 0.0140889427 -0.0322829969 0.0338534676
  endloop
 endfacet

 facet normal 0 0 0
  outer loop
  vertex 0.00992671866 -0.0331063718 0.107763886
  vertex 0.0140889427 -0.0322829969 0.0338534676
  vertex 0.0109762168 -0.0321010016 0.108146429
  endloop
 endfacet

 facet normal 0 0 0
  outer loop
  vertex 0.00111007004 0.0344428122 0.0930153131
  vertex 0.00380990584 0.0382411107 0.0391626805
  vertex 0.00130913628 0.0382411107 0.0303629003
  endloop
 endfacet

 facet normal 0 0 0
  outer loop
  vertex 0.00111007004 0.0344428122 0.0930153131
  vertex 0.00130913628 0.0382411107 0.0303629003
  vertex -0.0192836691 0.0318063125 0.0859458148
  endloop
 endfacet

 facet normal 0 0 0
  outer loop
  vertex -0.0192836691 0.0318063125 0.0859458148
  vertex 0.00130913628 0.0382411107 0.0303629003
  vertex -0.0200992022 0.0294559058 0.0571124405
  endloop
 endfacet

 facet normal 0 0 0
  outer loop
  vertex -0.0192836691 0.0318063125 0.0859458148
  vertex -0.0200992022 0.0294559058 0.0571124405
  vertex -0.0211310312 0.030571647 0.0859830007
  endloop
 endfacet

 facet normal 0 0 0
  outer loop
  vertex -0.0192836691 0.0318063125 0.0859458148
  vertex -0.0211310312 0.030571647 0.0859830007
  vertex -0.00135530706 0.0316316411 0.107660592
  endloop
 endfacet

 facet normal 0 0 0
  outer loop
  vertex -0.0192836691 0.0318063125 0.0859458148
  vertex -0.00135530706 0.0316316411 0.107660592
  vertex 0.00111007004 0.0344428122 0.0930153131
  endloop
 endfacet

 facet normal 0 0 0
  outer loop
  vertex 0.00691007031 0.0344428122 0.0930152982
  vertex 0.010036069 0.0319261253 0.109199293
  vertex 0.0208604056 0.0315712318 0.0449111909
  endloop
 endfacet

 facet normal 0 0 0
  outer loop
  vertex 0.00691007031 0.0344428122 0.0930152982
  vertex 0.0208604056 0.0315712318 0.0449111909
  vertex 0.0196527299 0.0320707336 0.024611298
  endloop
 endfacet

 facet normal 0 0 0
  outer loop
  vertex 0.00691007031 0.0344428122 0.0930152982
  vertex 0.0196527299 0.0320707336 0.024611298
  vertex 0.00380913774 0.0382411107 0.0303626787
  endloop
 endfacet

 facet normal 0 0 0
  outer loop
  vertex 0.00691007031 0.0344428122 0.0930152982
  vertex 0.00380913774 0.0382411107 0.0303626787
  vertex 0.00380990584 0.0382411107 0.0391626805
  endloop
 endfacet

 facet normal 0 0 0
  outer loop
  vertex 0.00691007031 0.0344428122 0.0930152982
  vertex 0.00380990584 0.0382411107 0.0391626805
  vertex 0.00111007004 0.0344428122 0.0930153131
  endloop
 endfacet

 facet normal 0 0 0
  outer loop
  vertex 0.00691007031 0.0344428122 0.0930152982
  vertex 0.00111007004 0.0344428122 0.0930153131
  vertex 0.010036069 0.0319261253 0.109199293
  endloop
 endfacet

 facet normal 0 0 0
  outer loop
  vertex 0.00945055392 -0.0320230164 0.108734064
  vertex 0.0109762168 -0.0321010016 0.108146429
  vertex 0.00945048872 -0.0134381382 0.11044012
  endloop
 endfacet

 facet normal 0 0 0
  outer loop
  vertex 0.00945055392 -0.0320230164 0.108734064
  vertex -0.00135532161 -0.0327456184 0.106042407
  vertex 0.00992671866 -0.0331063718 0.107763886
  endloop
 endfacet

 facet normal 0 0 0
  outer loop
  vertex 0.00945055392 -0.0320230164 0.108734064
  vertex 0.00992671866 -0.0331063718 0.107763886
  vertex 0.0109762168 -0.0321010016 0.108146429
  endloop
 endfacet

 facet normal 0 0 0
  outer loop
  vertex 0.00111000717 -0.0349152945 0.0912884325
  vertex -0.0200489592 -0.0318198837 0.0843408927
  vertex 0.0085794488 -0.0340829976 0.0329670236
  endloop
 endfacet

 facet normal 0 0 0
  outer loop
  vertex 0.00111000717 -0.0349152945 0.0912884325
  vertex 0.0085794488 -0.0340829976 0.0329670236
  vertex 0.0116598858 -0.0340829976 0.034628626
  endloop
 endfacet

 facet normal 0 0 0
  outer loop
  vertex 0.00111000717 -0.0349152945 0.0912884325
  vertex 0.0116598858 -0.0340829976 0.034628626
  vertex 0.00691000698 -0.0349152908 0.0912884101
  endloop
 endfacet

 facet normal 0 0 0
  outer loop
  vertex 0.00111000717 -0.0349152945 0.0912884325
  vertex 0.00691000698 -0.0349152908 0.0912884101
  vertex 0.00992671866 -0.0331063718 0.107763886
  endloop
 endfacet

 facet normal 0 0 0
  outer loop
  vertex 0.00111000717 -0.0349152945 0.0912884325
  vertex 0.00992671866 -0.0331063718 0.107763886
  vertex -0.00135532161 -0.0327456184 0.106042407
  endloop
 endfacet

 facet normal 0 0 0
  outer loop
  vertex 0.00111000717 -0.0349152945 0.0912884325
  vertex -0.00135532161 -0.0327456184 0.106042407
  vertex -0.0200489592 -0.0318198837 0.0843408927
  endloop
 endfacet

 facet normal 0 0 0
  outer loop
  vertex -0.0064951377 0.029360367 0.103286363
  vertex -0.00135530706 0.0316316411 0.107660592
  vertex -0.0211310312 0.030571647 0.0859830007
  endloop
 endfacet

 facet normal 0 0 0
  outer loop
  vertex -0.0064951675 -0.0292414613 0.101881184
  vertex -0.00135532161 -0.0327456184 0.106042407
  vertex -0.00135532161 -0.0245905407 0.106899537
  endloop
 endfacet

 facet normal 0 0 0
  outer loop
  vertex -0.0064951675 -0.0292414613 0.101881184
  vertex -0.00135532161 -0.0245905407 0.106899537
  vertex -0.00649522757 0.00661769975 0.10391932
  endloop
 endfacet

 facet normal 0 0 0
  outer loop
  vertex -0.00649522757 0.00661769975 0.10391932
  vertex -0.0212832633 -0.00547521561 0.0865175873
  vertex -0.0212833267 -0.0299795754 0.0845086128
  endloop
 endfacet

 facet normal 0 0 0
  outer loop
  vertex -0.00649522757 0.00661769975 0.10391932
  vertex -0.0212833267 -0.0299795754 0.0845086128
  vertex -0.0064951675 -0.0292414613 0.101881184
  endloop
 endfacet

 facet normal 0 0 0
  outer loop
  vertex -0.0064951675 -0.0292414613 0.101881184
  vertex -0.0212833267 -0.0299795754 0.0845086128
  vertex -0.00135532161 -0.0327456184 0.106042407
  endloop
 endfacet

 facet normal 0 0 0
  outer loop
  vertex 0.00380913774 0.0382411107 0.0303626787
  vertex 0.00130913628 0.0382411107 0.0303629003
  vertex 0.00380990584 0.0382411107 0.0391626805
  endloop
 endfacet

 facet normal 0 0 0
  outer loop
  vertex 0.00380913774 0.0382411107 0.0303626787
  vertex 0.0196527299 0.0320707336 0.024611298
  vertex 0.00411486486 0.024659032 0.000500000548
  endloop
 endfacet

 facet normal 0 0 0
  outer loop
  vertex 0.00380913774 0.0382411107 0.0303626787
  vertex 0.00411486486 0.024659032 0.000500000548
  vertex 0.00130913628 0.0382411107 0.0303629003
  endloop
 endfacet

endsolid AssimpScene
