solid AssimpScene
 facet normal 0 0 0
  outer loop
  vertex -0.00668999972 -0.0290340595 0.0199159365
  vertex -0.00668999972 -0.0308500007 0.0242999997
  vertex -0.00668999972 -0.0326424278 0.0435614847
  endloop
 endfacet

 facet normal 0 0 0
  outer loop
  vertex -0.00668999972 -0.0290340595 0.0199159365
  vertex -0.00668999972 -0.0326424278 0.0435614847
  vertex -0.00668999972 0.0348500013 0.0430999994
  endloop
 endfacet

 facet normal 0 0 0
  outer loop
  vertex -0.00668999972 -0.0290340595 0.0199159365
  vertex -0.00668999972 0.0348500013 0.0430999994
  vertex -0.00668999972 0.0311791003 0.0222606864
  endloop
 endfacet

 facet normal 0 0 0
  outer loop
  vertex -0.00668999972 -0.0290340595 0.0199159365
  vertex -0.00668999972 0.0311791003 0.0222606864
  vertex -0.00668999972 0.0267425999 0.0185377505
  endloop
 endfacet

 facet normal 0 0 0
  outer loop
  vertex -0.00668999972 -0.0290340595 0.0199159365
  vertex -0.00668999972 0.0267425999 0.0185377505
  vertex -0.00668999972 -0.02465 0.0180999991
  endloop
 endfacet

 facet normal 0 0 0
  outer loop
  vertex -0.00668999972 -0.02465 0.0180999991
  vertex -0.00668999972 0.0267425999 0.0185377505
  vertex 0.000833219499 0.0280125998 0.01404134
  endloop
 endfacet

 facet normal 0 0 0
  outer loop
  vertex 0.000833223166 -0.0346849337 0.0232688673
  vertex 0.000833203667 -0.0376157314 0.0396756902
  vertex -0.00668999972 -0.0308500007 0.0242999997
  endloop
 endfacet

 facet normal 0 0 0
  outer loop
  vertex 0.00083320454 0.0397173092 0.0812538639
  vertex -0.00668999972 0.0348500013 0.0430999994
  vertex 0.000833219499 0.0373188369 0.0969539061
  endloop
 endfacet

 facet normal 0 0 0
  outer loop
  vertex -0.00668999972 0.0311791003 0.0222606864
  vertex 0.000310000119 0.0359320678 0.0258500054
  vertex 0.000833219499 0.0280125998 0.01404134
  endloop
 endfacet

 facet normal 0 0 0
  outer loop
  vertex -0.00668999972 0.0311791003 0.0222606864
  vertex 0.000833219499 0.0280125998 0.01404134
  vertex -0.00668999972 0.0267425999 0.0185377505
  endloop
 endfacet

 facet normal 0 0 0
  outer loop
  vertex -0.00668999972 0.0311791003 0.0222606864
  vertex -0.00668999972 0.0348500013 0.0430999994
  vertex 0.000310000119 0.0359320678 0.0258500054
  endloop
 endfacet

 facet normal 0 0 0
  outer loop
  vertex 0.000833219499 -0.0283243209 0.0142076444
  vertex -0.00668999972 -0.02465 0.0180999991
  vertex 0.000833219499 0.0280125998 0.01404134
  endloop
 endfacet

 facet normal 0 0 0
  outer loop
  vertex 0.0248431619 -0.00836531073 0.0150805246
  vertex 0.016854845 -0.032449387 0.0311798546
  vertex 0.0199184511 -0.0184875075 0.0144811627
  endloop
 endfacet

 facet normal 0 0 0
  outer loop
  vertex -0.00668999972 -0.0326424278 0.0435614847
  vertex 0.000833219499 -0.0375904404 0.0954558328
  vertex 0.000833219499 -0.0186472889 0.0977045074
  endloop
 endfacet

 facet normal 0 0 0
  outer loop
  vertex -0.00668999972 -0.0326424278 0.0435614847
  vertex 0.000833219499 -0.0186472889 0.0977045074
  vertex 0.000833219499 0.0177460928 0.0987404808
  endloop
 endfacet

 facet normal 0 0 0
  outer loop
  vertex -0.00668999972 -0.0326424278 0.0435614847
  vertex 0.000833219499 0.0177460928 0.0987404808
  vertex 0.000833219499 0.0364202298 0.0977490321
  endloop
 endfacet

 facet normal 0 0 0
  outer loop
  vertex -0.00668999972 -0.0326424278 0.0435614847
  vertex 0.000833219499 0.0364202298 0.0977490321
  vertex -0.00668999972 0.0348500013 0.0430999994
  endloop
 endfacet

 facet normal 0 0 0
  outer loop
  vertex -0.00668999972 -0.0326424278 0.0435614847
  vertex -0.00668999972 -0.0308500007 0.0242999997
  vertex 0.000833203667 -0.0376157314 0.0396756902
  endloop
 endfacet

 facet normal 0 0 0
  outer loop
  vertex 0.00804039184 0.0316202715 0.0195999946
  vertex 0.000833219499 0.0280125998 0.01404134
  vertex 0.000310000119 0.0359320678 0.0258500054
  endloop
 endfacet

 facet normal 0 0 0
  outer loop
  vertex 0.0230447594 0.0133583508 0.0149816778
  vertex 0.0176325012 0.0208026674 0.014207704
  vertex 0.0153712826 0.0269947499 0.0195999425
  endloop
 endfacet

 facet normal 0 0 0
  outer loop
  vertex 0.000833234342 -0.0393735506 0.0812537819
  vertex 0.000833203667 -0.0376157314 0.0396756902
  vertex 0.0101103922 -0.0378692001 0.0513000488
  endloop
 endfacet

 facet normal 0 0 0
  outer loop
  vertex 0.000833234342 -0.0393735506 0.0812537819
  vertex 0.000833219499 -0.0375904404 0.0954558328
  vertex -0.00668999972 -0.0326424278 0.0435614847
  endloop
 endfacet

 facet normal 0 0 0
  outer loop
  vertex 0.000833234342 -0.0393735506 0.0812537819
  vertex -0.00668999972 -0.0326424278 0.0435614847
  vertex 0.000833203667 -0.0376157314 0.0396756902
  endloop
 endfacet

 facet normal 0 0 0
  outer loop
  vertex 0.0119032701 -0.0353342555 0.0307976212
  vertex 0.0101103922 -0.0378692001 0.0513000488
  vertex 0.000833203667 -0.0376157314 0.0396756902
  endloop
 endfacet

 facet normal 0 0 0
  outer loop
  vertex 0.0125021748 0.0306105185 0.0929549783
  vertex 0.011810692 0.0352244005 0.0886762366
  vertex 0.00828089193 0.0359125882 0.0963591486
  endloop
 endfacet

 facet normal 0 0 0
  outer loop
  vertex 0.0125021748 0.0306105185 0.0929549783
  vertex 0.00828089193 0.0359125882 0.0963591486
  vertex 0.0108513897 0.0176343136 0.0973490998
  endloop
 endfacet

 facet normal 0 0 0
  outer loop
  vertex 0.0125021748 0.0306105185 0.0929549783
  vertex 0.0108513897 0.0176343136 0.0973490998
  vertex 0.0117694903 -0.0183401052 0.0954405814
  endloop
 endfacet

 facet normal 0 0 0
  outer loop
  vertex 0.0125021748 0.0306105185 0.0929549783
  vertex 0.0117694903 -0.0183401052 0.0954405814
  vertex 0.0137959765 -0.0113856327 0.0902317017
  endloop
 endfacet

 facet normal 0 0 0
  outer loop
  vertex 0.0125021748 0.0306105185 0.0929549783
  vertex 0.0137959765 -0.0113856327 0.0902317017
  vertex 0.0257750154 0.00283530378 0.0151625257
  endloop
 endfacet

 facet normal 0 0 0
  outer loop
  vertex 0.00390999997 0.0362670049 0.0271000024
  vertex 0.00669607101 0.0388540253 0.0624787323
  vertex 0.0123994667 0.0361586548 0.0685398802
  endloop
 endfacet

 facet normal 0 0 0
  outer loop
  vertex 0.00390999997 0.0362670049 0.0271000024
  vertex 0.0123994667 0.0361586548 0.0685398802
  vertex 0.0153712826 0.0269947499 0.0195999425
  endloop
 endfacet

 facet normal 0 0 0
  outer loop
  vertex 0.00390999997 0.0362670049 0.0271000024
  vertex 0.0153712826 0.0269947499 0.0195999425
  vertex 0.00804039184 0.0316202715 0.0195999946
  endloop
 endfacet

 facet normal 0 0 0
  outer loop
  vertex 0.00390999997 0.0362670049 0.0271000024
  vertex 0.00804039184 0.0316202715 0.0195999946
  vertex 0.000310000119 0.0359320678 0.0258500054
  endloop
 endfacet

 facet normal 0 0 0
  outer loop
  vertex 0.00814195815 0.0384739302 0.0838856399
  vertex 0.00669607101 0.0388540253 0.0624787323
  vertex 0.00083320454 0.0397173092 0.0812538639
  endloop
 endfacet

 facet normal 0 0 0
  outer loop
  vertex 0.00814195815 0.0384739302 0.0838856399
  vertex 0.00083320454 0.0397173092 0.0812538639
  vertex 0.000833219499 0.0373188369 0.0969539061
  endloop
 endfacet

 facet normal 0 0 0
  outer loop
  vertex 0.00814195815 0.0384739302 0.0838856399
  vertex 0.000833219499 0.0373188369 0.0969539061
  vertex 0.00828089193 0.0359125882 0.0963591486
  endloop
 endfacet

 facet normal 0 0 0
  outer loop
  vertex 0.00814195815 0.0384739302 0.0838856399
  vertex 0.00828089193 0.0359125882 0.0963591486
  vertex 0.011810692 0.0352244005 0.0886762366
  endloop
 endfacet

 facet normal 0 0 0
  outer loop
  vertex 0.00814195815 0.0384739302 0.0838856399
  vertex 0.011810692 0.0352244005 0.0886762366
  vertex 0.0123994667 0.0361586548 0.0685398802
  endloop
 endfacet

 facet normal 0 0 0
  outer loop
  vertex 0.00814195815 0.0384739302 0.0838856399
  vertex 0.0123994667 0.0361586548 0.0685398802
  vertex 0.00669607101 0.0388540253 0.0624787323
  endloop
 endfacet

 facet normal 0 0 0
  outer loop
  vertex -0.00668999972 -0.0290340595 0.0199159365
  vertex -0.00668999972 -0.02465 0.0180999991
  vertex 0.000833219499 -0.0283243209 0.0142076444
  endloop
 endfacet

 facet normal 0 0 0
  outer loop
  vertex -0.00668999972 -0.0290340595 0.0199159365
  vertex 0.000833219499 -0.0283243209 0.0142076444
  vertex 0.000833223166 -0.0346849337 0.0232688673
  endloop
 endfacet

 facet normal 0 0 0
  outer loop
  vertex -0.00668999972 -0.0290340595 0.0199159365
  vertex 0.000833223166 -0.0346849337 0.0232688673
  vertex -0.00668999972 -0.0308500007 0.0242999997
  endloop
 endfacet

 facet normal 0 0 0
  outer loop
  vertex 0.018130064 -0.0297725592 0.0425509103
  vertex 0.016854845 -0.032449387 0.0311798546
  vertex 0.0248431619 -0.00836531073 0.0150805246
  endloop
 endfacet

 facet normal 0 0 0
  outer loop
  vertex 0.00750105223 -0.0386907756 0.0831125677
  vertex 0.000833234342 -0.0393735506 0.0812537819
  vertex 0.0101103922 -0.0378692001 0.0513000488
  endloop
 endfacet

 facet normal 0 0 0
  outer loop
  vertex 0.0108233737 -0.0354657881 0.0918212086
  vertex 0.00778796384 -0.0365037918 0.0953070745
  vertex 0.00555143459 -0.0377294719 0.094508484
  endloop
 endfacet

 facet normal 0 0 0
  outer loop
  vertex 0.0108233737 -0.0354657881 0.0918212086
  vertex 0.00555143459 -0.0377294719 0.094508484
  vertex 0.00750105223 -0.0386907756 0.0831125677
  endloop
 endfacet

 facet normal 0 0 0
  outer loop
  vertex 0.0130974492 -0.0305570494 0.0898526013
  vertex 0.0108233737 -0.0354657881 0.0918212086
  vertex 0.018130064 -0.0297725592 0.0425509103
  endloop
 endfacet

 facet normal 0 0 0
  outer loop
  vertex 0.0130974492 -0.0305570494 0.0898526013
  vertex 0.018130064 -0.0297725592 0.0425509103
  vertex 0.0248431619 -0.00836531073 0.0150805246
  endloop
 endfacet

 facet normal 0 0 0
  outer loop
  vertex 0.0130974492 -0.0305570494 0.0898526013
  vertex 0.0248431619 -0.00836531073 0.0150805246
  vertex 0.0257750154 0.00283530378 0.0151625257
  endloop
 endfacet

 facet normal 0 0 0
  outer loop
  vertex 0.0130974492 -0.0305570494 0.0898526013
  vertex 0.0257750154 0.00283530378 0.0151625257
  vertex 0.0137959765 -0.0113856327 0.0902317017
  endloop
 endfacet

 facet normal 0 0 0
  outer loop
  vertex 0.010178986 0.0262220614 0.014207704
  vertex 0.000833219499 0.0280125998 0.01404134
  vertex 0.00804039184 0.0316202715 0.0195999946
  endloop
 endfacet

 facet normal 0 0 0
  outer loop
  vertex 0.010178986 0.0262220614 0.014207704
  vertex 0.00804039184 0.0316202715 0.0195999946
  vertex 0.0153712826 0.0269947499 0.0195999425
  endloop
 endfacet

 facet normal 0 0 0
  outer loop
  vertex 0.010178986 0.0262220614 0.014207704
  vertex 0.0153712826 0.0269947499 0.0195999425
  vertex 0.0176325012 0.0208026674 0.014207704
  endloop
 endfacet

 facet normal 0 0 0
  outer loop
  vertex 0.0129887629 -0.024740437 0.014207704
  vertex 0.0199184511 -0.0184875075 0.0144811627
  vertex 0.0156604387 -0.0304883756 0.0234174784
  endloop
 endfacet

 facet normal 0 0 0
  outer loop
  vertex 0.0129887629 -0.024740437 0.014207704
  vertex 0.0156604387 -0.0304883756 0.0234174784
  vertex 0.0129400073 -0.0314345993 0.0214839187
  endloop
 endfacet

 facet normal 0 0 0
  outer loop
  vertex 0.0129887629 -0.024740437 0.014207704
  vertex 0.0129400073 -0.0314345993 0.0214839187
  vertex 0.0052007311 -0.0272110961 0.0140000051
  endloop
 endfacet

 facet normal 0 0 0
  outer loop
  vertex 0.014663565 -0.0354544967 0.0447719842
  vertex 0.0108233737 -0.0354657881 0.0918212086
  vertex 0.00750105223 -0.0386907756 0.0831125677
  endloop
 endfacet

 facet normal 0 0 0
  outer loop
  vertex 0.014663565 -0.0354544967 0.0447719842
  vertex 0.00750105223 -0.0386907756 0.0831125677
  vertex 0.0101103922 -0.0378692001 0.0513000488
  endloop
 endfacet

 facet normal 0 0 0
  outer loop
  vertex 0.014663565 -0.0354544967 0.0447719842
  vertex 0.0101103922 -0.0378692001 0.0513000488
  vertex 0.0119032701 -0.0353342555 0.0307976212
  endloop
 endfacet

 facet normal 0 0 0
  outer loop
  vertex 0.014663565 -0.0354544967 0.0447719842
  vertex 0.0119032701 -0.0353342555 0.0307976212
  vertex 0.016854845 -0.032449387 0.0311798546
  endloop
 endfacet

 facet normal 0 0 0
  outer loop
  vertex 0.014663565 -0.0354544967 0.0447719842
  vertex 0.016854845 -0.032449387 0.0311798546
  vertex 0.018130064 -0.0297725592 0.0425509103
  endloop
 endfacet

 facet normal 0 0 0
  outer loop
  vertex 0.014663565 -0.0354544967 0.0447719842
  vertex 0.018130064 -0.0297725592 0.0425509103
  vertex 0.0108233737 -0.0354657881 0.0918212086
  endloop
 endfacet

 facet normal 0 0 0
  outer loop
  vertex 0.000833219499 -0.0186472889 0.0977045074
  vertex 0.000833219499 -0.0375904404 0.0954558328
  vertex 0.00778796384 -0.0365037918 0.0953070745
  endloop
 endfacet

 facet normal 0 0 0
  outer loop
  vertex 0.000833219499 -0.0186472889 0.0977045074
  vertex 0.00778796384 -0.0365037918 0.0953070745
  vertex 0.00951341912 -0.0187051818 0.0971441045
  endloop
 endfacet

 facet normal 0 0 0
  outer loop
  vertex 0.0117694903 -0.0183401052 0.0954405814
  vertex 0.00951341912 -0.0187051818 0.0971441045
  vertex 0.00778796384 -0.0365037918 0.0953070745
  endloop
 endfacet

 facet normal 0 0 0
  outer loop
  vertex 0.0117694903 -0.0183401052 0.0954405814
  vertex 0.00778796384 -0.0365037918 0.0953070745
  vertex 0.0108233737 -0.0354657881 0.0918212086
  endloop
 endfacet

 facet normal 0 0 0
  outer loop
  vertex 0.0117694903 -0.0183401052 0.0954405814
  vertex 0.0108233737 -0.0354657881 0.0918212086
  vertex 0.0130974492 -0.0305570494 0.0898526013
  endloop
 endfacet

 facet normal 0 0 0
  outer loop
  vertex 0.0117694903 -0.0183401052 0.0954405814
  vertex 0.0130974492 -0.0305570494 0.0898526013
  vertex 0.0137959765 -0.0113856327 0.0902317017
  endloop
 endfacet

 facet normal 0 0 0
  outer loop
  vertex 0.0117694903 -0.0183401052 0.0954405814
  vertex 0.0108513897 0.0176343136 0.0973490998
  vertex 0.0086093545 -0.000179931027 0.0983640775
  endloop
 endfacet

 facet normal 0 0 0
  outer loop
  vertex 0.0117694903 -0.0183401052 0.0954405814
  vertex 0.0086093545 -0.000179931027 0.0983640775
  vertex 0.00951341912 -0.0187051818 0.0971441045
  endloop
 endfacet

 facet normal 0 0 0
  outer loop
  vertex 0.0249129143 -3.68170513e-05 0.0140000051
  vertex 0.0232208874 -0.0111617856 0.0140442019
  vertex 0.0052007311 -0.0272110961 0.0140000051
  endloop
 endfacet

 facet normal 0 0 0
  outer loop
  vertex 0.0249129143 -3.68170513e-05 0.0140000051
  vertex 0.0052007311 -0.0272110961 0.0140000051
  vertex 0.000833219499 -0.0283243209 0.0142076444
  endloop
 endfacet

 facet normal 0 0 0
  outer loop
  vertex 0.0249129143 -3.68170513e-05 0.0140000051
  vertex 0.000833219499 -0.0283243209 0.0142076444
  vertex 0.000833219499 0.0280125998 0.01404134
  endloop
 endfacet

 facet normal 0 0 0
  outer loop
  vertex 0.0249129143 -3.68170513e-05 0.0140000051
  vertex 0.000833219499 0.0280125998 0.01404134
  vertex 0.010178986 0.0262220614 0.014207704
  endloop
 endfacet

 facet normal 0 0 0
  outer loop
  vertex 0.0249129143 -3.68170513e-05 0.0140000051
  vertex 0.010178986 0.0262220614 0.014207704
  vertex 0.0176325012 0.0208026674 0.014207704
  endloop
 endfacet

 facet normal 0 0 0
  outer loop
  vertex 0.0249129143 -3.68170513e-05 0.0140000051
  vertex 0.0257750154 0.00283530378 0.0151625257
  vertex 0.0248431619 -0.00836531073 0.0150805246
  endloop
 endfacet

 facet normal 0 0 0
  outer loop
  vertex 0.000839207612 0.0387920924 0.0523509569
  vertex 0.00669607101 0.0388540253 0.0624787323
  vertex 0.00390999997 0.0362670049 0.0271000024
  endloop
 endfacet

 facet normal 0 0 0
  outer loop
  vertex 0.000839207612 0.0387920924 0.0523509569
  vertex 0.00390999997 0.0362670049 0.0271000024
  vertex 0.000310000119 0.0359320678 0.0258500054
  endloop
 endfacet

 facet normal 0 0 0
  outer loop
  vertex 0.000839207612 0.0387920924 0.0523509569
  vertex 0.000310000119 0.0359320678 0.0258500054
  vertex -0.00668999972 0.0348500013 0.0430999994
  endloop
 endfacet

 facet normal 0 0 0
  outer loop
  vertex 0.000839207612 0.0387920924 0.0523509569
  vertex -0.00668999972 0.0348500013 0.0430999994
  vertex 0.00083320454 0.0397173092 0.0812538639
  endloop
 endfacet

 facet normal 0 0 0
  outer loop
  vertex 0.000839207612 0.0387920924 0.0523509569
  vertex 0.00083320454 0.0397173092 0.0812538639
  vertex 0.00669607101 0.0388540253 0.0624787323
  endloop
 endfacet

 facet normal 0 0 0
  outer loop
  vertex 0.0086093545 -0.000179931027 0.0983640775
  vertex 0.000833219499 0.0177460928 0.0987404808
  vertex 0.000833219499 -0.0186472889 0.0977045074
  endloop
 endfacet

 facet normal 0 0 0
  outer loop
  vertex 0.0086093545 -0.000179931027 0.0983640775
  vertex 0.000833219499 -0.0186472889 0.0977045074
  vertex 0.00951341912 -0.0187051818 0.0971441045
  endloop
 endfacet

 facet normal 0 0 0
  outer loop
  vertex 0.0086093545 -0.000179931027 0.0983640775
  vertex 0.0108513897 0.0176343136 0.0973490998
  vertex 0.000833219499 0.0177460928 0.0987404808
  endloop
 endfacet

 facet normal 0 0 0
  outer loop
  vertex 0.0168189649 0.0281410497 0.0542016737
  vertex 0.011810692 0.0352244005 0.0886762366
  vertex 0.0125021748 0.0306105185 0.0929549783
  endloop
 endfacet

 facet normal 0 0 0
  outer loop
  vertex 0.0168189649 0.0281410497 0.0542016737
  vertex 0.0125021748 0.0306105185 0.0929549783
  vertex 0.0257750154 0.00283530378 0.0151625257
  endloop
 endfacet

 facet normal 0 0 0
  outer loop
  vertex 0.0168189649 0.0281410497 0.0542016737
  vertex 0.0230447594 0.0133583508 0.0149816778
  vertex 0.0153712826 0.0269947499 0.0195999425
  endloop
 endfacet

 facet normal 0 0 0
  outer loop
  vertex 0.0168189649 0.0281410497 0.0542016737
  vertex 0.0153712826 0.0269947499 0.0195999425
  vertex 0.0123994667 0.0361586548 0.0685398802
  endloop
 endfacet

 facet normal 0 0 0
  outer loop
  vertex 0.0168189649 0.0281410497 0.0542016737
  vertex 0.0123994667 0.0361586548 0.0685398802
  vertex 0.011810692 0.0352244005 0.0886762366
  endloop
 endfacet

 facet normal 0 0 0
  outer loop
  vertex 0.00758080138 -0.0344739594 0.0240273904
  vertex 0.0129400073 -0.0314345993 0.0214839187
  vertex 0.0119032701 -0.0353342555 0.0307976212
  endloop
 endfacet

 facet normal 0 0 0
  outer loop
  vertex 0.0119032701 -0.0353342555 0.0307976212
  vertex 0.000833203667 -0.0376157314 0.0396756902
  vertex 0.000833223166 -0.0346849337 0.0232688673
  endloop
 endfacet

 facet normal 0 0 0
  outer loop
  vertex 0.0119032701 -0.0353342555 0.0307976212
  vertex 0.000833223166 -0.0346849337 0.0232688673
  vertex 0.00758080138 -0.0344739594 0.0240273904
  endloop
 endfacet

 facet normal 0 0 0
  outer loop
  vertex 0.00758080138 -0.0344739594 0.0240273904
  vertex 0.000833223166 -0.0346849337 0.0232688673
  vertex 0.000833219499 -0.0283243209 0.0142076444
  endloop
 endfacet

 facet normal 0 0 0
  outer loop
  vertex 0.00758080138 -0.0344739594 0.0240273904
  vertex 0.000833219499 -0.0283243209 0.0142076444
  vertex 0.0052007311 -0.0272110961 0.0140000051
  endloop
 endfacet

 facet normal 0 0 0
  outer loop
  vertex 0.00758080138 -0.0344739594 0.0240273904
  vertex 0.0052007311 -0.0272110961 0.0140000051
  vertex 0.0129400073 -0.0314345993 0.0214839187
  endloop
 endfacet

 facet normal 0 0 0
  outer loop
  vertex 0.00483287638 0.0362555198 0.0974242687
  vertex 0.000833219499 0.0177460928 0.0987404808
  vertex 0.0108513897 0.0176343136 0.0973490998
  endloop
 endfacet

 facet normal 0 0 0
  outer loop
  vertex 0.00483287638 0.0362555198 0.0974242687
  vertex 0.0108513897 0.0176343136 0.0973490998
  vertex 0.00828089193 0.0359125882 0.0963591486
  endloop
 endfacet

 facet normal 0 0 0
  outer loop
  vertex 0.00483287638 0.0362555198 0.0974242687
  vertex 0.00828089193 0.0359125882 0.0963591486
  vertex 0.000833219499 0.0373188369 0.0969539061
  endloop
 endfacet

 facet normal 0 0 0
  outer loop
  vertex 0.016854845 -0.032449387 0.0311798546
  vertex 0.0119032701 -0.0353342555 0.0307976212
  vertex 0.0129400073 -0.0314345993 0.0214839187
  endloop
 endfacet

 facet normal 0 0 0
  outer loop
  vertex 0.016854845 -0.032449387 0.0311798546
  vertex 0.0129400073 -0.0314345993 0.0214839187
  vertex 0.0156604387 -0.0304883756 0.0234174784
  endloop
 endfacet

 facet normal 0 0 0
  outer loop
  vertex 0.0156604387 -0.0304883756 0.0234174784
  vertex 0.0199184511 -0.0184875075 0.0144811627
  vertex 0.016854845 -0.032449387 0.0311798546
  endloop
 endfacet

 facet normal 0 0 0
  outer loop
  vertex 0.0245416332 0.00790948234 0.014207704
  vertex 0.0257750154 0.00283530378 0.0151625257
  vertex 0.0249129143 -3.68170513e-05 0.0140000051
  endloop
 endfacet

 facet normal 0 0 0
  outer loop
  vertex 0.0245416332 0.00790948234 0.014207704
  vertex 0.0249129143 -3.68170513e-05 0.0140000051
  vertex 0.0176325012 0.0208026674 0.014207704
  endloop
 endfacet

 facet normal 0 0 0
  outer loop
  vertex 0.0245416332 0.00790948234 0.014207704
  vertex 0.0176325012 0.0208026674 0.014207704
  vertex 0.0230447594 0.0133583508 0.0149816778
  endloop
 endfacet

 facet normal 0 0 0
  outer loop
  vertex 0.0245416332 0.00790948234 0.014207704
  vertex 0.0230447594 0.0133583508 0.0149816778
  vertex 0.0168189649 0.0281410497 0.0542016737
  endloop
 endfacet

 facet normal 0 0 0
  outer loop
  vertex 0.0245416332 0.00790948234 0.014207704
  vertex 0.0168189649 0.0281410497 0.0542016737
  vertex 0.0257750154 0.00283530378 0.0151625257
  endloop
 endfacet

 facet normal 0 0 0
  outer loop
  vertex 0.0232208874 -0.0111617856 0.0140442019
  vertex 0.0199184511 -0.0184875075 0.0144811627
  vertex 0.0129887629 -0.024740437 0.014207704
  endloop
 endfacet

 facet normal 0 0 0
  outer loop
  vertex 0.0232208874 -0.0111617856 0.0140442019
  vertex 0.0129887629 -0.024740437 0.014207704
  vertex 0.0052007311 -0.0272110961 0.0140000051
  endloop
 endfacet

 facet normal 0 0 0
  outer loop
  vertex 0.0232208874 -0.0111617856 0.0140442019
  vertex 0.0249129143 -3.68170513e-05 0.0140000051
  vertex 0.0248431619 -0.00836531073 0.0150805246
  endloop
 endfacet

 facet normal 0 0 0
  outer loop
  vertex 0.0232208874 -0.0111617856 0.0140442019
  vertex 0.0248431619 -0.00836531073 0.0150805246
  vertex 0.0199184511 -0.0184875075 0.0144811627
  endloop
 endfacet

 facet normal 0 0 0
  outer loop
  vertex 0.00555143459 -0.0377294719 0.094508484
  vertex 0.000833219499 -0.0375904404 0.0954558328
  vertex 0.000833234342 -0.0393735506 0.0812537819
  endloop
 endfacet

 facet normal 0 0 0
  outer loop
  vertex 0.00555143459 -0.0377294719 0.094508484
  vertex 0.000833234342 -0.0393735506 0.0812537819
  vertex 0.00750105223 -0.0386907756 0.0831125677
  endloop
 endfacet

 facet normal 0 0 0
  outer loop
  vertex 0.00555143459 -0.0377294719 0.094508484
  vertex 0.00778796384 -0.0365037918 0.0953070745
  vertex 0.000833219499 -0.0375904404 0.0954558328
  endloop
 endfacet

 facet normal 0 0 0
  outer loop
  vertex 0.000833219499 0.0364202298 0.0977490321
  vertex 0.000833219499 0.0177460928 0.0987404808
  vertex 0.00483287638 0.0362555198 0.0974242687
  endloop
 endfacet

 facet normal 0 0 0
  outer loop
  vertex 0.000833219499 0.0364202298 0.0977490321
  vertex 0.00483287638 0.0362555198 0.0974242687
  vertex 0.000833219499 0.0373188369 0.0969539061
  endloop
 endfacet

 facet normal 0 0 0
  outer loop
  vertex 0.000833219499 0.0364202298 0.0977490321
  vertex 0.000833219499 0.0373188369 0.0969539061
  vertex -0.00668999972 0.0348500013 0.0430999994
  endloop
 endfacet

endsolid AssimpScene
