solid AssimpScene
 facet normal 0 0 0
  outer loop
  vertex -0.00295849261 0.0291542672 -0.000929657486
  vertex 0.00325289904 0.0370441936 -3.20036233e-05
  vertex 0.00437411061 0.0325789265 6.83887629e-05
  endloop
 endfacet

 facet normal 0 0 0
  outer loop
  vertex -0.00295849261 0.0291542672 -0.000929657486
  vertex 0.00437411061 0.0325789265 6.83887629e-05
  vertex -0.00198274571 0.00561099965 -0.000502635376
  endloop
 endfacet

 facet normal 0 0 0
  outer loop
  vertex -0.00295849261 0.0291542672 -0.000929657486
  vertex -0.00198274571 0.00561099965 -0.000502635376
  vertex -0.0069323699 0.00194925687 -0.00122275297
  endloop
 endfacet

 facet normal 0 0 0
  outer loop
  vertex -0.0110767307 0.000230679201 0.0103071649
  vertex -0.00973188598 0.00535232946 0.0121353446
  vertex -0.00888163783 0.0225712154 0.0107195359
  endloop
 endfacet

 facet normal 0 0 0
  outer loop
  vertex -0.00427446747 0.00473378273 0.0130869867
  vertex 0.00282774726 -0.00100193417 0.00919999182
  vertex 0.00301907118 0.0346011184 0.0124084717
  endloop
 endfacet

 facet normal 0 0 0
  outer loop
  vertex -0.0084054973 0.000585407834 0.0129185375
  vertex -0.00973188598 0.00535232946 0.0121353446
  vertex -0.0110767307 0.000230679201 0.0103071649
  endloop
 endfacet

 facet normal 0 0 0
  outer loop
  vertex -0.00089924084 -0.00776854157 0.00919999182
  vertex 0.00282774726 -0.00100193417 0.00919999182
  vertex -0.00427446747 0.00473378273 0.0130869867
  endloop
 endfacet

 facet normal 0 0 0
  outer loop
  vertex -0.00427446747 0.00473378273 0.0130869867
  vertex -0.0084054973 0.000585407834 0.0129185375
  vertex -0.00394610502 -0.00871193688 0.00949999038
  endloop
 endfacet

 facet normal 0 0 0
  outer loop
  vertex -0.00427446747 0.00473378273 0.0130869867
  vertex -0.00394610502 -0.00871193688 0.00949999038
  vertex -0.00089924084 -0.00776854157 0.00919999182
  endloop
 endfacet

 facet normal 0 0 0
  outer loop
  vertex -0.00089924084 -0.00776854157 0.00919999182
  vertex -0.00394610502 -0.00871193688 0.00949999038
  vertex -0.00376245496 -0.00903847255 0.00279999152
  endloop
 endfacet

 facet normal 0 0 0
  outer loop
  vertex -0.00089924084 -0.00776854157 0.00919999182
  vertex -0.00089924084 -0.00776854157 0.00279999152
  vertex 0.00279261661 -0.0010960442 0.00279999152
  endloop
 endfacet

 facet normal 0 0 0
  outer loop
  vertex -0.00089924084 -0.00776854157 0.00919999182
  vertex 0.00279261661 -0.0010960442 0.00279999152
  vertex 0.00282774726 -0.00100193417 0.00919999182
  endloop
 endfacet

 facet normal 0 0 0
  outer loop
  vertex -0.00769630307 -0.00638489751 0.00846778415
  vertex -0.00394610502 -0.00871193688 0.00949999038
  vertex -0.0084054973 0.000585407834 0.0129185375
  endloop
 endfacet

 facet normal 0 0 0
  outer loop
  vertex -0.00769630307 -0.00638489751 0.00846778415
  vertex -0.0084054973 0.000585407834 0.0129185375
  vertex -0.0110767307 0.000230679201 0.0103071649
  endloop
 endfacet

 facet normal 0 0 0
  outer loop
  vertex -0.00769630307 -0.00638489751 0.00846778415
  vertex -0.00769630307 -0.00638489751 0.00353219896
  vertex -0.00376245496 -0.00903847255 0.00279999152
  endloop
 endfacet

 facet normal 0 0 0
  outer loop
  vertex -0.00769630307 -0.00638489751 0.00846778415
  vertex -0.00376245496 -0.00903847255 0.00279999152
  vertex -0.00394610502 -0.00871193688 0.00949999038
  endloop
 endfacet

 facet normal 0 0 0
  outer loop
  vertex -0.00704791117 0.0214521717 0.0128139146
  vertex -0.00973188598 0.00535232946 0.0121353446
  vertex -0.0084054973 0.000585407834 0.0129185375
  endloop
 endfacet

 facet normal 0 0 0
  outer loop
  vertex -0.00704791117 0.0214521717 0.0128139146
  vertex -0.00888163783 0.0225712154 0.0107195359
  vertex -0.00973188598 0.00535232946 0.0121353446
  endloop
 endfacet

 facet normal 0 0 0
  outer loop
  vertex -0.0102730179 0.0201685708 0.00489101326
  vertex -0.0118032387 0.000730154221 0.00599999167
  vertex -0.0110767307 0.000230679201 0.0103071649
  endloop
 endfacet

 facet normal 0 0 0
  outer loop
  vertex -0.0102730179 0.0201685708 0.00489101326
  vertex -0.0110767307 0.000230679201 0.0103071649
  vertex -0.00888163783 0.0225712154 0.0107195359
  endloop
 endfacet

 facet normal 0 0 0
  outer loop
  vertex -0.0102730179 0.0201685708 0.00489101326
  vertex -0.00888163783 0.0225712154 0.0107195359
  vertex -0.00673775747 0.0286614802 0.00440002466
  endloop
 endfacet

 facet normal 0 0 0
  outer loop
  vertex -0.0102730179 0.0201685708 0.00489101326
  vertex -0.00673775747 0.0286614802 0.00440002466
  vertex -0.00481119147 0.0306546502 0.000958528661
  endloop
 endfacet

 facet normal 0 0 0
  outer loop
  vertex -0.0102730179 0.0201685708 0.00489101326
  vertex -0.00481119147 0.0306546502 0.000958528661
  vertex -0.00860327668 0.0203121156 -2.01362436e-05
  endloop
 endfacet

 facet normal 0 0 0
  outer loop
  vertex -0.0102730179 0.0201685708 0.00489101326
  vertex -0.00860327668 0.0203121156 -2.01362436e-05
  vertex -0.0111535471 0.000405239349 0.00169427122
  endloop
 endfacet

 facet normal 0 0 0
  outer loop
  vertex -0.00089924084 -0.00776854157 0.00279999152
  vertex -0.00089924084 -0.00776854157 0.00919999182
  vertex -0.00376245496 -0.00903847255 0.00279999152
  endloop
 endfacet

 facet normal 0 0 0
  outer loop
  vertex -0.00089924084 -0.00776854157 0.00279999152
  vertex -0.00376245496 -0.00903847255 0.00279999152
  vertex -0.0069323699 0.00194925687 -0.00122275297
  endloop
 endfacet

 facet normal 0 0 0
  outer loop
  vertex 0.00515486067 0.034386158 0.0110587953
  vertex 0.00301907118 0.0346011184 0.0124084717
  vertex 0.00282774726 -0.00100193417 0.00919999182
  endloop
 endfacet

 facet normal 0 0 0
  outer loop
  vertex -0.00176583871 0.0375123322 0.00503006717
  vertex -0.00673775747 0.0286614802 0.00440002466
  vertex -0.00888163783 0.0225712154 0.0107195359
  endloop
 endfacet

 facet normal 0 0 0
  outer loop
  vertex -0.00176583871 0.0375123322 0.00503006717
  vertex -0.00888163783 0.0225712154 0.0107195359
  vertex -0.0003379728 0.0377310738 0.0115131764
  endloop
 endfacet

 facet normal 0 0 0
  outer loop
  vertex -0.0003379728 0.0377310738 0.0115131764
  vertex 0.00221347483 0.0403949991 0.0103517938
  vertex 0.00243957224 0.041258622 0.00599999167
  endloop
 endfacet

 facet normal 0 0 0
  outer loop
  vertex -0.0003379728 0.0377310738 0.0115131764
  vertex 0.00243957224 0.041258622 0.00599999167
  vertex -0.00176583871 0.0375123322 0.00503006717
  endloop
 endfacet

 facet normal 0 0 0
  outer loop
  vertex -0.00176583871 0.0375123322 0.00503006717
  vertex 0.00243957224 0.041258622 0.00599999167
  vertex 0.00201855833 0.040375188 0.00163330219
  endloop
 endfacet

 facet normal 0 0 0
  outer loop
  vertex -0.00176583871 0.0375123322 0.00503006717
  vertex 0.00201855833 0.040375188 0.00163330219
  vertex 0.000152025183 0.0377928764 0.000149730011
  endloop
 endfacet

 facet normal 0 0 0
  outer loop
  vertex 0.00552507304 0.0368590355 0.00205204496
  vertex 0.00279261661 -0.0010960442 0.00279999152
  vertex 0.00437411061 0.0325789265 6.83887629e-05
  endloop
 endfacet

 facet normal 0 0 0
  outer loop
  vertex -0.00930124056 0.000464153331 -0.000559429231
  vertex -0.0111535471 0.000405239349 0.00169427122
  vertex -0.00860327668 0.0203121156 -2.01362436e-05
  endloop
 endfacet

 facet normal 0 0 0
  outer loop
  vertex -0.00930124056 0.000464153331 -0.000559429231
  vertex -0.00860327668 0.0203121156 -2.01362436e-05
  vertex -0.0069323699 0.00194925687 -0.00122275297
  endloop
 endfacet

 facet normal 0 0 0
  outer loop
  vertex -0.00930124056 0.000464153331 -0.000559429231
  vertex -0.0069323699 0.00194925687 -0.00122275297
  vertex -0.00376245496 -0.00903847255 0.00279999152
  endloop
 endfacet

 facet normal 0 0 0
  outer loop
  vertex -0.00930124056 0.000464153331 -0.000559429231
  vertex -0.00376245496 -0.00903847255 0.00279999152
  vertex -0.00769630307 -0.00638489751 0.00353219896
  endloop
 endfacet

 facet normal 0 0 0
  outer loop
  vertex -0.00930124056 0.000464153331 -0.000559429231
  vertex -0.00769630307 -0.00638489751 0.00353219896
  vertex -0.0111535471 0.000405239349 0.00169427122
  endloop
 endfacet

 facet normal 0 0 0
  outer loop
  vertex 0.00426776102 0.0383846611 0.0110425819
  vertex 0.00221347483 0.0403949991 0.0103517938
  vertex -0.0003379728 0.0377310738 0.0115131764
  endloop
 endfacet

 facet normal 0 0 0
  outer loop
  vertex 0.00426776102 0.0383846611 0.0110425819
  vertex -0.0003379728 0.0377310738 0.0115131764
  vertex 0.00301907118 0.0346011184 0.0124084717
  endloop
 endfacet

 facet normal 0 0 0
  outer loop
  vertex 0.00426776102 0.0383846611 0.0110425819
  vertex 0.00301907118 0.0346011184 0.0124084717
  vertex 0.00515486067 0.034386158 0.0110587953
  endloop
 endfacet

 facet normal 0 0 0
  outer loop
  vertex 0.00426776102 0.0383846611 0.0110425819
  vertex 0.00515486067 0.034386158 0.0110587953
  vertex 0.00552312331 0.0383922718 0.00833280478
  endloop
 endfacet

 facet normal 0 0 0
  outer loop
  vertex 0.00426776102 0.0383846611 0.0110425819
  vertex 0.00552312331 0.0383922718 0.00833280478
  vertex 0.00221347483 0.0403949991 0.0103517938
  endloop
 endfacet

 facet normal 0 0 0
  outer loop
  vertex -0.00295849261 0.0291542672 -0.000929657486
  vertex -0.0069323699 0.00194925687 -0.00122275297
  vertex -0.00860327668 0.0203121156 -2.01362436e-05
  endloop
 endfacet

 facet normal 0 0 0
  outer loop
  vertex 0.00591193186 0.0321576595 0.00685891137
  vertex 0.00282774726 -0.00100193417 0.00919999182
  vertex 0.00279261661 -0.0010960442 0.00279999152
  endloop
 endfacet

 facet normal 0 0 0
  outer loop
  vertex 0.00591193186 0.0321576595 0.00685891137
  vertex 0.00279261661 -0.0010960442 0.00279999152
  vertex 0.00552507304 0.0368590355 0.00205204496
  endloop
 endfacet

 facet normal 0 0 0
  outer loop
  vertex 0.00591193186 0.0321576595 0.00685891137
  vertex 0.00552507304 0.0368590355 0.00205204496
  vertex 0.00552312331 0.0383922718 0.00833280478
  endloop
 endfacet

 facet normal 0 0 0
  outer loop
  vertex 0.00591193186 0.0321576595 0.00685891137
  vertex 0.00552312331 0.0383922718 0.00833280478
  vertex 0.00515486067 0.034386158 0.0110587953
  endloop
 endfacet

 facet normal 0 0 0
  outer loop
  vertex 0.00591193186 0.0321576595 0.00685891137
  vertex 0.00515486067 0.034386158 0.0110587953
  vertex 0.00282774726 -0.00100193417 0.00919999182
  endloop
 endfacet

 facet normal 0 0 0
  outer loop
  vertex 0.00444871187 0.0401862934 0.00466552423
  vertex 0.00552312331 0.0383922718 0.00833280478
  vertex 0.00552507304 0.0368590355 0.00205204496
  endloop
 endfacet

 facet normal 0 0 0
  outer loop
  vertex 0.00444871187 0.0401862934 0.00466552423
  vertex 0.00552507304 0.0368590355 0.00205204496
  vertex 0.00400532596 0.0392156355 0.00131552049
  endloop
 endfacet

 facet normal 0 0 0
  outer loop
  vertex 0.00444871187 0.0401862934 0.00466552423
  vertex 0.00400532596 0.0392156355 0.00131552049
  vertex 0.00201855833 0.040375188 0.00163330219
  endloop
 endfacet

 facet normal 0 0 0
  outer loop
  vertex 0.00444871187 0.0401862934 0.00466552423
  vertex 0.00201855833 0.040375188 0.00163330219
  vertex 0.00243957224 0.041258622 0.00599999167
  endloop
 endfacet

 facet normal 0 0 0
  outer loop
  vertex 0.00444871187 0.0401862934 0.00466552423
  vertex 0.00243957224 0.041258622 0.00599999167
  vertex 0.00221347483 0.0403949991 0.0103517938
  endloop
 endfacet

 facet normal 0 0 0
  outer loop
  vertex 0.00444871187 0.0401862934 0.00466552423
  vertex 0.00221347483 0.0403949991 0.0103517938
  vertex 0.00552312331 0.0383922718 0.00833280478
  endloop
 endfacet

 facet normal 0 0 0
  outer loop
  vertex -0.00198274571 0.00561099965 -0.000502635376
  vertex 0.00279261661 -0.0010960442 0.00279999152
  vertex -0.00089924084 -0.00776854157 0.00279999152
  endloop
 endfacet

 facet normal 0 0 0
  outer loop
  vertex -0.00198274571 0.00561099965 -0.000502635376
  vertex -0.00089924084 -0.00776854157 0.00279999152
  vertex -0.0069323699 0.00194925687 -0.00122275297
  endloop
 endfacet

 facet normal 0 0 0
  outer loop
  vertex -0.00198274571 0.00561099965 -0.000502635376
  vertex 0.00437411061 0.0325789265 6.83887629e-05
  vertex 0.00279261661 -0.0010960442 0.00279999152
  endloop
 endfacet

 facet normal 0 0 0
  outer loop
  vertex -0.00481119147 0.0306546502 0.000958528661
  vertex -0.00673775747 0.0286614802 0.00440002466
  vertex -0.00176583871 0.0375123322 0.00503006717
  endloop
 endfacet

 facet normal 0 0 0
  outer loop
  vertex -0.00481119147 0.0306546502 0.000958528661
  vertex -0.00176583871 0.0375123322 0.00503006717
  vertex 0.000152025183 0.0377928764 0.000149730011
  endloop
 endfacet

 facet normal 0 0 0
  outer loop
  vertex -0.00481119147 0.0306546502 0.000958528661
  vertex 0.000152025183 0.0377928764 0.000149730011
  vertex -0.00295849261 0.0291542672 -0.000929657486
  endloop
 endfacet

 facet normal 0 0 0
  outer loop
  vertex -0.00481119147 0.0306546502 0.000958528661
  vertex -0.00295849261 0.0291542672 -0.000929657486
  vertex -0.00860327668 0.0203121156 -2.01362436e-05
  endloop
 endfacet

 facet normal 0 0 0
  outer loop
  vertex -0.00132811943 0.0331107192 0.0127480887
  vertex -0.0003379728 0.0377310738 0.0115131764
  vertex -0.00888163783 0.0225712154 0.0107195359
  endloop
 endfacet

 facet normal 0 0 0
  outer loop
  vertex -0.00132811943 0.0331107192 0.0127480887
  vertex -0.00888163783 0.0225712154 0.0107195359
  vertex -0.00704791117 0.0214521717 0.0128139146
  endloop
 endfacet

 facet normal 0 0 0
  outer loop
  vertex -0.00132811943 0.0331107192 0.0127480887
  vertex -0.00704791117 0.0214521717 0.0128139146
  vertex -0.0084054973 0.000585407834 0.0129185375
  endloop
 endfacet

 facet normal 0 0 0
  outer loop
  vertex -0.00132811943 0.0331107192 0.0127480887
  vertex -0.0084054973 0.000585407834 0.0129185375
  vertex -0.00427446747 0.00473378273 0.0130869867
  endloop
 endfacet

 facet normal 0 0 0
  outer loop
  vertex -0.00132811943 0.0331107192 0.0127480887
  vertex -0.00427446747 0.00473378273 0.0130869867
  vertex 0.00301907118 0.0346011184 0.0124084717
  endloop
 endfacet

 facet normal 0 0 0
  outer loop
  vertex -0.00132811943 0.0331107192 0.0127480887
  vertex 0.00301907118 0.0346011184 0.0124084717
  vertex -0.0003379728 0.0377310738 0.0115131764
  endloop
 endfacet

 facet normal 0 0 0
  outer loop
  vertex 0.00325289904 0.0370441936 -3.20036233e-05
  vertex 0.000152025183 0.0377928764 0.000149730011
  vertex 0.00201855833 0.040375188 0.00163330219
  endloop
 endfacet

 facet normal 0 0 0
  outer loop
  vertex 0.00325289904 0.0370441936 -3.20036233e-05
  vertex 0.00201855833 0.040375188 0.00163330219
  vertex 0.00400532596 0.0392156355 0.00131552049
  endloop
 endfacet

 facet normal 0 0 0
  outer loop
  vertex 0.00325289904 0.0370441936 -3.20036233e-05
  vertex 0.00400532596 0.0392156355 0.00131552049
  vertex 0.00552507304 0.0368590355 0.00205204496
  endloop
 endfacet

 facet normal 0 0 0
  outer loop
  vertex 0.00325289904 0.0370441936 -3.20036233e-05
  vertex 0.00552507304 0.0368590355 0.00205204496
  vertex 0.00437411061 0.0325789265 6.83887629e-05
  endloop
 endfacet

 facet normal 0 0 0
  outer loop
  vertex 0.00325289904 0.0370441936 -3.20036233e-05
  vertex -0.00295849261 0.0291542672 -0.000929657486
  vertex 0.000152025183 0.0377928764 0.000149730011
  endloop
 endfacet

 facet normal 0 0 0
  outer loop
  vertex -0.0118032387 0.000730154221 0.00599999167
  vertex -0.0102730179 0.0201685708 0.00489101326
  vertex -0.0111535471 0.000405239349 0.00169427122
  endloop
 endfacet

 facet normal 0 0 0
  outer loop
  vertex -0.0118032387 0.000730154221 0.00599999167
  vertex -0.0111535471 0.000405239349 0.00169427122
  vertex -0.00769630307 -0.00638489751 0.00353219896
  endloop
 endfacet

 facet normal 0 0 0
  outer loop
  vertex -0.0118032387 0.000730154221 0.00599999167
  vertex -0.00769630307 -0.00638489751 0.00353219896
  vertex -0.00769630307 -0.00638489751 0.00846778415
  endloop
 endfacet

 facet normal 0 0 0
  outer loop
  vertex -0.0118032387 0.000730154221 0.00599999167
  vertex -0.00769630307 -0.00638489751 0.00846778415
  vertex -0.0110767307 0.000230679201 0.0103071649
  endloop
 endfacet

endsolid AssimpScene
