solid AssimpScene
 facet normal 0 0 0
  outer loop
  vertex -0.000910004193 -0.00778281223 0.00919987913
  vertex -0.000910004193 -0.00778281223 0.00249987911
  vertex 0.00282774097 -0.00100193999 0.00249987911
  endloop
 endfacet

 facet normal 0 0 0
  outer loop
  vertex -0.000910004193 -0.00778281223 0.00919987913
  vertex 0.00282774097 -0.00100193999 0.00249987911
  vertex 0.00282774097 -0.00100193999 0.00919987913
  endloop
 endfacet

 facet normal 0 0 0
  outer loop
  vertex -0.00630371179 0.00282715703 -0.00116720726
  vertex 0.00444269087 0.0255110841 6.48998684e-05
  vertex 0.00282774097 -0.00100193999 0.00249987911
  endloop
 endfacet

 facet normal 0 0 0
  outer loop
  vertex -0.00458148168 0.00454823393 0.0130490903
  vertex 0.00282774097 -0.00100193999 0.00919987913
  vertex 0.00312608271 0.027553536 0.0124030802
  endloop
 endfacet

 facet normal 0 0 0
  outer loop
  vertex -0.0073146373 0.0141260317 0.012817747
  vertex -0.00899697188 0.0159126595 0.0105464654
  vertex -0.00981289614 0.000853022852 0.0121571803
  endloop
 endfacet

 facet normal 0 0 0
  outer loop
  vertex -0.0116033489 0.000947019609 0.007776062
  vertex -0.00981289614 0.000853022852 0.0121571803
  vertex -0.00899697188 0.0159126595 0.0105464654
  endloop
 endfacet

 facet normal 0 0 0
  outer loop
  vertex -0.0116033489 0.000947019609 0.007776062
  vertex -0.00779122906 -0.00626871269 0.00846767146
  vertex -0.00981289614 0.000853022852 0.0121571803
  endloop
 endfacet

 facet normal 0 0 0
  outer loop
  vertex -0.00769474311 -0.00638677832 0.00353208673
  vertex -0.00779122906 -0.00626871269 0.00846767146
  vertex -0.0116033489 0.000947019609 0.007776062
  endloop
 endfacet

 facet normal 0 0 0
  outer loop
  vertex -0.00769474311 -0.00638677832 0.00353208673
  vertex -0.0116033489 0.000947019609 0.007776062
  vertex -0.010804316 0.000580130029 0.00117915194
  endloop
 endfacet

 facet normal 0 0 0
  outer loop
  vertex -0.000910004193 -0.00778281223 0.00249987911
  vertex -0.00630371179 0.00282715703 -0.00116720726
  vertex 0.00282774097 -0.00100193999 0.00249987911
  endloop
 endfacet

 facet normal 0 0 0
  outer loop
  vertex 0.00525720185 0.0272972155 0.0110528711
  vertex 0.00312608271 0.027553536 0.0124030802
  vertex 0.00282774097 -0.00100193999 0.00919987913
  endloop
 endfacet

 facet normal 0 0 0
  outer loop
  vertex -0.000910004193 -0.00778281223 0.00919987913
  vertex -0.00312244147 -0.00873258617 0.00949987955
  vertex -0.00344841345 -0.00905253831 0.00249987911
  endloop
 endfacet

 facet normal 0 0 0
  outer loop
  vertex -0.000910004193 -0.00778281223 0.00919987913
  vertex -0.00344841345 -0.00905253831 0.00249987911
  vertex -0.000910004193 -0.00778281223 0.00249987911
  endloop
 endfacet

 facet normal 0 0 0
  outer loop
  vertex -0.000910004193 -0.00778281223 0.00919987913
  vertex 0.00282774097 -0.00100193999 0.00919987913
  vertex -0.00458148168 0.00454823393 0.0130490903
  endloop
 endfacet

 facet normal 0 0 0
  outer loop
  vertex 0.00567304576 0.0297595933 0.00204555667
  vertex 0.00282774097 -0.00100193999 0.00249987911
  vertex 0.00444269087 0.0255110841 6.48998684e-05
  endloop
 endfacet

 facet normal 0 0 0
  outer loop
  vertex -0.00950694177 0.0162331741 0.00433187513
  vertex -0.00899697188 0.0159126595 0.0105464654
  vertex -0.00329853664 0.0280629918 0.00522592571
  endloop
 endfacet

 facet normal 0 0 0
  outer loop
  vertex -0.00950694177 0.0162331741 0.00433187513
  vertex -0.00890286453 0.0141774341 0.000295343518
  vertex -0.010804316 0.000580130029 0.00117915194
  endloop
 endfacet

 facet normal 0 0 0
  outer loop
  vertex -0.00950694177 0.0162331741 0.00433187513
  vertex -0.010804316 0.000580130029 0.00117915194
  vertex -0.0116033489 0.000947019609 0.007776062
  endloop
 endfacet

 facet normal 0 0 0
  outer loop
  vertex -0.00950694177 0.0162331741 0.00433187513
  vertex -0.0116033489 0.000947019609 0.007776062
  vertex -0.00899697188 0.0159126595 0.0105464654
  endloop
 endfacet

 facet normal 0 0 0
  outer loop
  vertex -0.00864744093 0.00069963804 -0.000762455456
  vertex -0.010804316 0.000580130029 0.00117915194
  vertex -0.00890286453 0.0141774341 0.000295343518
  endloop
 endfacet

 facet normal 0 0 0
  outer loop
  vertex -0.00864744093 0.00069963804 -0.000762455456
  vertex -0.00630371179 0.00282715703 -0.00116720726
  vertex -0.000910004193 -0.00778281223 0.00249987911
  endloop
 endfacet

 facet normal 0 0 0
  outer loop
  vertex -0.00864744093 0.00069963804 -0.000762455456
  vertex -0.000910004193 -0.00778281223 0.00249987911
  vertex -0.00344841345 -0.00905253831 0.00249987911
  endloop
 endfacet

 facet normal 0 0 0
  outer loop
  vertex -0.00864744093 0.00069963804 -0.000762455456
  vertex -0.00344841345 -0.00905253831 0.00249987911
  vertex -0.00769474311 -0.00638677832 0.00353208673
  endloop
 endfacet

 facet normal 0 0 0
  outer loop
  vertex -0.00864744093 0.00069963804 -0.000762455456
  vertex -0.00769474311 -0.00638677832 0.00353208673
  vertex -0.010804316 0.000580130029 0.00117915194
  endloop
 endfacet

 facet normal 0 0 0
  outer loop
  vertex 0.00444632303 0.0313118808 0.011035841
  vertex 0.00243305811 0.0333634205 0.0103576733
  vertex -0.000175944457 0.0307505019 0.0115058832
  endloop
 endfacet

 facet normal 0 0 0
  outer loop
  vertex 0.00444632303 0.0313118808 0.011035841
  vertex -0.000175944457 0.0307505019 0.0115058832
  vertex 0.00312608271 0.027553536 0.0124030802
  endloop
 endfacet

 facet normal 0 0 0
  outer loop
  vertex 0.00444632303 0.0313118808 0.011035841
  vertex 0.00312608271 0.027553536 0.0124030802
  vertex 0.00525720185 0.0272972155 0.0110528711
  endloop
 endfacet

 facet normal 0 0 0
  outer loop
  vertex 0.00444632303 0.0313118808 0.011035841
  vertex 0.00525720185 0.0272972155 0.0110528711
  vertex 0.00570122851 0.0312946476 0.00832589902
  endloop
 endfacet

 facet normal 0 0 0
  outer loop
  vertex 0.00444632303 0.0313118808 0.011035841
  vertex 0.00570122851 0.0312946476 0.00832589902
  vertex 0.00243305811 0.0333634205 0.0103576733
  endloop
 endfacet

 facet normal 0 0 0
  outer loop
  vertex -0.00294293906 0.0222311579 -0.000930709066
  vertex 0.00340454397 0.0299873743 -3.81677419e-05
  vertex 0.00444269087 0.0255110841 6.48998684e-05
  endloop
 endfacet

 facet normal 0 0 0
  outer loop
  vertex -0.00294293906 0.0222311579 -0.000930709066
  vertex 0.00444269087 0.0255110841 6.48998684e-05
  vertex -0.00630371179 0.00282715703 -0.00116720726
  endloop
 endfacet

 facet normal 0 0 0
  outer loop
  vertex -0.00294293906 0.0222311579 -0.000930709066
  vertex -0.00630371179 0.00282715703 -0.00116720726
  vertex -0.00864744093 0.00069963804 -0.000762455456
  endloop
 endfacet

 facet normal 0 0 0
  outer loop
  vertex -0.00294293906 0.0222311579 -0.000930709066
  vertex -0.00864744093 0.00069963804 -0.000762455456
  vertex -0.00890286453 0.0141774341 0.000295343518
  endloop
 endfacet

 facet normal 0 0 0
  outer loop
  vertex -0.00294293906 0.0222311579 -0.000930709066
  vertex -0.00890286453 0.0141774341 0.000295343518
  vertex 0.000323860615 0.0308047626 0.000149568266
  endloop
 endfacet

 facet normal 0 0 0
  outer loop
  vertex 0.00597083429 0.0250534695 0.00685428455
  vertex 0.00282774097 -0.00100193999 0.00919987913
  vertex 0.00282774097 -0.00100193999 0.00249987911
  endloop
 endfacet

 facet normal 0 0 0
  outer loop
  vertex 0.00597083429 0.0250534695 0.00685428455
  vertex 0.00282774097 -0.00100193999 0.00249987911
  vertex 0.00567304576 0.0297595933 0.00204555667
  endloop
 endfacet

 facet normal 0 0 0
  outer loop
  vertex 0.00597083429 0.0250534695 0.00685428455
  vertex 0.00567304576 0.0297595933 0.00204555667
  vertex 0.00570122851 0.0312946476 0.00832589902
  endloop
 endfacet

 facet normal 0 0 0
  outer loop
  vertex 0.00597083429 0.0250534695 0.00685428455
  vertex 0.00570122851 0.0312946476 0.00832589902
  vertex 0.00525720185 0.0272972155 0.0110528711
  endloop
 endfacet

 facet normal 0 0 0
  outer loop
  vertex 0.00597083429 0.0250534695 0.00685428455
  vertex 0.00525720185 0.0272972155 0.0110528711
  vertex 0.00282774097 -0.00100193999 0.00919987913
  endloop
 endfacet

 facet normal 0 0 0
  outer loop
  vertex -0.0075060809 0.00124678679 0.0130387451
  vertex -0.00312244147 -0.00873258617 0.00949987955
  vertex -0.000910004193 -0.00778281223 0.00919987913
  endloop
 endfacet

 facet normal 0 0 0
  outer loop
  vertex -0.0075060809 0.00124678679 0.0130387451
  vertex -0.000910004193 -0.00778281223 0.00919987913
  vertex -0.00458148168 0.00454823393 0.0130490903
  endloop
 endfacet

 facet normal 0 0 0
  outer loop
  vertex -0.0075060809 0.00124678679 0.0130387451
  vertex -0.0073146373 0.0141260317 0.012817747
  vertex -0.00981289614 0.000853022852 0.0121571803
  endloop
 endfacet

 facet normal 0 0 0
  outer loop
  vertex -0.0075060809 0.00124678679 0.0130387451
  vertex -0.00981289614 0.000853022852 0.0121571803
  vertex -0.00312244147 -0.00873258617 0.00949987955
  endloop
 endfacet

 facet normal 0 0 0
  outer loop
  vertex -0.00312244147 -0.00873258617 0.00949987955
  vertex -0.00981289614 0.000853022852 0.0121571803
  vertex -0.00779122906 -0.00626871269 0.00846767146
  endloop
 endfacet

 facet normal 0 0 0
  outer loop
  vertex -0.00312244147 -0.00873258617 0.00949987955
  vertex -0.00779122906 -0.00626871269 0.00846767146
  vertex -0.00509160152 -0.00860671792 0.00846767146
  endloop
 endfacet

 facet normal 0 0 0
  outer loop
  vertex -0.00509160152 -0.00860671792 0.00846767146
  vertex -0.00779122906 -0.00626871269 0.00846767146
  vertex -0.00769474311 -0.00638677832 0.00353208673
  endloop
 endfacet

 facet normal 0 0 0
  outer loop
  vertex -0.00509160152 -0.00860671792 0.00846767146
  vertex -0.00769474311 -0.00638677832 0.00353208673
  vertex -0.00344841345 -0.00905253831 0.00249987911
  endloop
 endfacet

 facet normal 0 0 0
  outer loop
  vertex -0.00509160152 -0.00860671792 0.00846767146
  vertex -0.00344841345 -0.00905253831 0.00249987911
  vertex -0.00312244147 -0.00873258617 0.00949987955
  endloop
 endfacet

 facet normal 0 0 0
  outer loop
  vertex 0.00466073072 0.0331076346 0.0046581612
  vertex 0.00570122851 0.0312946476 0.00832589902
  vertex 0.00567304576 0.0297595933 0.00204555667
  endloop
 endfacet

 facet normal 0 0 0
  outer loop
  vertex 0.00466073072 0.0331076346 0.0046581612
  vertex 0.00567304576 0.0297595933 0.00204555667
  vertex 0.00419844594 0.0321445093 0.00130853779
  endloop
 endfacet

 facet normal 0 0 0
  outer loop
  vertex 0.00466073072 0.0331076346 0.0046581612
  vertex 0.00419844594 0.0321445093 0.00130853779
  vertex 0.00223940937 0.0333509333 0.0016331689
  endloop
 endfacet

 facet normal 0 0 0
  outer loop
  vertex 0.00466073072 0.0331076346 0.0046581612
  vertex 0.00223940937 0.0333509333 0.0016331689
  vertex 0.00267767906 0.0342262015 0.00599987945
  endloop
 endfacet

 facet normal 0 0 0
  outer loop
  vertex 0.00466073072 0.0331076346 0.0046581612
  vertex 0.00267767906 0.0342262015 0.00599987945
  vertex 0.00243305811 0.0333634205 0.0103576733
  endloop
 endfacet

 facet normal 0 0 0
  outer loop
  vertex 0.00466073072 0.0331076346 0.0046581612
  vertex 0.00243305811 0.0333634205 0.0103576733
  vertex 0.00570122851 0.0312946476 0.00832589902
  endloop
 endfacet

 facet normal 0 0 0
  outer loop
  vertex -0.0012397758 0.02615254 0.0127489362
  vertex -0.000175944457 0.0307505019 0.0115058832
  vertex -0.00899697188 0.0159126595 0.0105464654
  endloop
 endfacet

 facet normal 0 0 0
  outer loop
  vertex -0.0012397758 0.02615254 0.0127489362
  vertex -0.00899697188 0.0159126595 0.0105464654
  vertex -0.0073146373 0.0141260317 0.012817747
  endloop
 endfacet

 facet normal 0 0 0
  outer loop
  vertex -0.0012397758 0.02615254 0.0127489362
  vertex -0.0073146373 0.0141260317 0.012817747
  vertex -0.0075060809 0.00124678679 0.0130387451
  endloop
 endfacet

 facet normal 0 0 0
  outer loop
  vertex -0.0012397758 0.02615254 0.0127489362
  vertex -0.0075060809 0.00124678679 0.0130387451
  vertex -0.00458148168 0.00454823393 0.0130490903
  endloop
 endfacet

 facet normal 0 0 0
  outer loop
  vertex -0.0012397758 0.02615254 0.0127489362
  vertex -0.00458148168 0.00454823393 0.0130490903
  vertex 0.00312608271 0.027553536 0.0124030802
  endloop
 endfacet

 facet normal 0 0 0
  outer loop
  vertex -0.0012397758 0.02615254 0.0127489362
  vertex 0.00312608271 0.027553536 0.0124030802
  vertex -0.000175944457 0.0307505019 0.0115058832
  endloop
 endfacet

 facet normal 0 0 0
  outer loop
  vertex -0.00491871964 0.0239497796 0.00145528908
  vertex -0.00890286453 0.0141774341 0.000295343518
  vertex -0.00950694177 0.0162331741 0.00433187513
  endloop
 endfacet

 facet normal 0 0 0
  outer loop
  vertex -0.00491871964 0.0239497796 0.00145528908
  vertex -0.00950694177 0.0162331741 0.00433187513
  vertex -0.00329853664 0.0280629918 0.00522592571
  endloop
 endfacet

 facet normal 0 0 0
  outer loop
  vertex -0.00491871964 0.0239497796 0.00145528908
  vertex -0.00329853664 0.0280629918 0.00522592571
  vertex 0.000323860615 0.0308047626 0.000149568266
  endloop
 endfacet

 facet normal 0 0 0
  outer loop
  vertex -0.00491871964 0.0239497796 0.00145528908
  vertex 0.000323860615 0.0308047626 0.000149568266
  vertex -0.00890286453 0.0141774341 0.000295343518
  endloop
 endfacet

 facet normal 0 0 0
  outer loop
  vertex -0.000475844659 0.031816002 0.00802827906
  vertex 0.00267767906 0.0342262015 0.00599987945
  vertex 0.00223940937 0.0333509333 0.0016331689
  endloop
 endfacet

 facet normal 0 0 0
  outer loop
  vertex -0.000475844659 0.031816002 0.00802827906
  vertex 0.00223940937 0.0333509333 0.0016331689
  vertex 0.000323860615 0.0308047626 0.000149568266
  endloop
 endfacet

 facet normal 0 0 0
  outer loop
  vertex -0.000475844659 0.031816002 0.00802827906
  vertex 0.000323860615 0.0308047626 0.000149568266
  vertex -0.00329853664 0.0280629918 0.00522592571
  endloop
 endfacet

 facet normal 0 0 0
  outer loop
  vertex -0.00329853664 0.0280629918 0.00522592571
  vertex -0.00899697188 0.0159126595 0.0105464654
  vertex -0.000175944457 0.0307505019 0.0115058832
  endloop
 endfacet

 facet normal 0 0 0
  outer loop
  vertex -0.00329853664 0.0280629918 0.00522592571
  vertex -0.000175944457 0.0307505019 0.0115058832
  vertex -0.000475844659 0.031816002 0.00802827906
  endloop
 endfacet

 facet normal 0 0 0
  outer loop
  vertex -0.000475844659 0.031816002 0.00802827906
  vertex -0.000175944457 0.0307505019 0.0115058832
  vertex 0.00243305811 0.0333634205 0.0103576733
  endloop
 endfacet

 facet normal 0 0 0
  outer loop
  vertex -0.000475844659 0.031816002 0.00802827906
  vertex 0.00243305811 0.0333634205 0.0103576733
  vertex 0.00267767906 0.0342262015 0.00599987945
  endloop
 endfacet

 facet normal 0 0 0
  outer loop
  vertex 0.00340454397 0.0299873743 -3.81677419e-05
  vertex 0.000323860615 0.0308047626 0.000149568266
  vertex 0.00223940937 0.0333509333 0.0016331689
  endloop
 endfacet

 facet normal 0 0 0
  outer loop
  vertex 0.00340454397 0.0299873743 -3.81677419e-05
  vertex 0.00223940937 0.0333509333 0.0016331689
  vertex 0.00419844594 0.0321445093 0.00130853779
  endloop
 endfacet

 facet normal 0 0 0
  outer loop
  vertex 0.00340454397 0.0299873743 -3.81677419e-05
  vertex 0.00419844594 0.0321445093 0.00130853779
  vertex 0.00567304576 0.0297595933 0.00204555667
  endloop
 endfacet

 facet normal 0 0 0
  outer loop
  vertex 0.00340454397 0.0299873743 -3.81677419e-05
  vertex 0.00567304576 0.0297595933 0.00204555667
  vertex 0.00444269087 0.0255110841 6.48998684e-05
  endloop
 endfacet

 facet normal 0 0 0
  outer loop
  vertex 0.00340454397 0.0299873743 -3.81677419e-05
  vertex -0.00294293906 0.0222311579 -0.000930709066
  vertex 0.000323860615 0.0308047626 0.000149568266
  endloop
 endfacet

endsolid AssimpScene
