solid AssimpScene
 facet normal 0 0 0
  outer loop
  vertex -0.00420786208 0.0256475694 -0.000624017091
  vertex 0.000818458095 0.0346835628 0.00013038727
  vertex 0.00516324164 0.0341090746 0.000576066552
  endloop
 endfacet

 facet normal 0 0 0
  outer loop
  vertex -0.00420786208 0.0256475694 -0.000624017091
  vertex 0.00516324164 0.0341090746 0.000576066552
  vertex 0.00792547967 -0.00373354321 3.38910795e-05
  endloop
 endfacet

 facet normal 0 0 0
  outer loop
  vertex -0.00420786208 0.0256475694 -0.000624017091
  vertex 0.00792547967 -0.00373354321 3.38910795e-05
  vertex 0.00124205311 -0.00652782759 -0.000897317426
  endloop
 endfacet

 facet normal 0 0 0
  outer loop
  vertex 0.011252352 0.00976843294 0.00717994384
  vertex 0.00516324164 0.0341090746 0.000576066552
  vertex 0.0052616247 0.0342403613 0.0133738527
  endloop
 endfacet

 facet normal 0 0 0
  outer loop
  vertex -0.00796763878 0.0301739071 0.00700000022
  vertex 0.000341988285 0.0348697938 0.0132831242
  vertex 0.00301275519 0.0358746909 0.00340000005
  endloop
 endfacet

 facet normal 0 0 0
  outer loop
  vertex -0.00796763878 0.0301739071 0.00700000022
  vertex 0.00301275519 0.0358746909 0.00340000005
  vertex 0.000818458095 0.0346835628 0.00013038727
  endloop
 endfacet

 facet normal 0 0 0
  outer loop
  vertex -0.00192272954 -0.0102908313 0.0119891306
  vertex -0.000302041153 -0.0104386192 0.00250000018
  vertex 0.00436086953 -0.00978236832 0.00250000018
  endloop
 endfacet

 facet normal 0 0 0
  outer loop
  vertex -0.00192272954 -0.0102908313 0.0119891306
  vertex 0.00436086953 -0.00978236832 0.00250000018
  vertex 0.00397625519 -0.00945565663 0.013618988
  endloop
 endfacet

 facet normal 0 0 0
  outer loop
  vertex -0.00700579118 0.0301648043 0.00220943312
  vertex -0.00796763878 0.0301739071 0.00700000022
  vertex 0.000818458095 0.0346835628 0.00013038727
  endloop
 endfacet

 facet normal 0 0 0
  outer loop
  vertex -0.00700579118 0.0301648043 0.00220943312
  vertex 0.000818458095 0.0346835628 0.00013038727
  vertex -0.00767818093 0.0262914859 0.00103174546
  endloop
 endfacet

 facet normal 0 0 0
  outer loop
  vertex -0.00700579118 0.0301648043 0.0117905661
  vertex 0.000341988285 0.0348697938 0.0132831242
  vertex -0.00796763878 0.0301739071 0.00700000022
  endloop
 endfacet

 facet normal 0 0 0
  outer loop
  vertex 0.00343075604 0.0358437002 0.0127434675
  vertex 0.00301275519 0.0358746909 0.00340000005
  vertex 0.000341988285 0.0348697938 0.0132831242
  endloop
 endfacet

 facet normal 0 0 0
  outer loop
  vertex 0.00343075604 0.0358437002 0.0127434675
  vertex 0.000341988285 0.0348697938 0.0132831242
  vertex 0.0052616247 0.0342403613 0.0133738527
  endloop
 endfacet

 facet normal 0 0 0
  outer loop
  vertex -0.00928024203 0.0266931038 0.0056311572
  vertex -0.00796763878 0.0301739071 0.00700000022
  vertex -0.00700579118 0.0301648043 0.00220943312
  endloop
 endfacet

 facet normal 0 0 0
  outer loop
  vertex -0.00928024203 0.0266931038 0.0056311572
  vertex -0.00700579118 0.0301648043 0.00220943312
  vertex -0.00767818093 0.0262914859 0.00103174546
  endloop
 endfacet

 facet normal 0 0 0
  outer loop
  vertex -0.00420786208 0.0256475694 0.0146240173
  vertex -0.00554959429 0.0284058861 0.0139801251
  vertex -0.00767818093 0.0262914859 0.0129682552
  endloop
 endfacet

 facet normal 0 0 0
  outer loop
  vertex -0.00420786208 0.0256475694 0.0146240173
  vertex -0.00767818093 0.0262914859 0.0129682552
  vertex -0.00580602651 -0.00776980957 0.0134763019
  endloop
 endfacet

 facet normal 0 0 0
  outer loop
  vertex -0.00420786208 0.0256475694 0.0146240173
  vertex -0.00580602651 -0.00776980957 0.0134763019
  vertex -0.000988684944 0.00459580403 0.01506266
  endloop
 endfacet

 facet normal 0 0 0
  outer loop
  vertex -0.00420786208 0.0256475694 0.0146240173
  vertex 0.0052616247 0.0342403613 0.0133738527
  vertex 0.000341988285 0.0348697938 0.0132831242
  endloop
 endfacet

 facet normal 0 0 0
  outer loop
  vertex -0.00420786208 0.0256475694 -0.000624017091
  vertex -0.00767818093 0.0262914859 0.00103174546
  vertex 0.000818458095 0.0346835628 0.00013038727
  endloop
 endfacet

 facet normal 0 0 0
  outer loop
  vertex 0.00530275796 -0.00647661742 0.0146015324
  vertex 0.00772537244 -0.0068665971 0.0136435935
  vertex 0.00994720403 -0.0034392369 0.0127740372
  endloop
 endfacet

 facet normal 0 0 0
  outer loop
  vertex 0.00530275796 -0.00647661742 0.0146015324
  vertex 0.00994720403 -0.0034392369 0.0127740372
  vertex 0.0052616247 0.0342403613 0.0133738527
  endloop
 endfacet

 facet normal 0 0 0
  outer loop
  vertex 0.00530275796 -0.00647661742 0.0146015324
  vertex 0.0052616247 0.0342403613 0.0133738527
  vertex -0.00420786208 0.0256475694 0.0146240173
  endloop
 endfacet

 facet normal 0 0 0
  outer loop
  vertex 0.00530275796 -0.00647661742 0.0146015324
  vertex -0.00420786208 0.0256475694 0.0146240173
  vertex -0.000988684944 0.00459580403 0.01506266
  endloop
 endfacet

 facet normal 0 0 0
  outer loop
  vertex 0.00362276752 0.0357346497 0.00100421696
  vertex 0.00516324164 0.0341090746 0.000576066552
  vertex 0.000818458095 0.0346835628 0.00013038727
  endloop
 endfacet

 facet normal 0 0 0
  outer loop
  vertex 0.00362276752 0.0357346497 0.00100421696
  vertex 0.000818458095 0.0346835628 0.00013038727
  vertex 0.00301275519 0.0358746909 0.00340000005
  endloop
 endfacet

 facet normal 0 0 0
  outer loop
  vertex 0.00362276752 0.0357346497 0.00100421696
  vertex 0.00301275519 0.0358746909 0.00340000005
  vertex 0.00343075604 0.0358437002 0.0127434675
  endloop
 endfacet

 facet normal 0 0 0
  outer loop
  vertex 0.00362276752 0.0357346497 0.00100421696
  vertex 0.00343075604 0.0358437002 0.0127434675
  vertex 0.0052616247 0.0342403613 0.0133738527
  endloop
 endfacet

 facet normal 0 0 0
  outer loop
  vertex 0.00362276752 0.0357346497 0.00100421696
  vertex 0.0052616247 0.0342403613 0.0133738527
  vertex 0.00516324164 0.0341090746 0.000576066552
  endloop
 endfacet

 facet normal 0 0 0
  outer loop
  vertex 0.0106500583 0.00972727127 0.0105831306
  vertex 0.011252352 0.00976843294 0.00717994384
  vertex 0.0052616247 0.0342403613 0.0133738527
  endloop
 endfacet

 facet normal 0 0 0
  outer loop
  vertex 0.0052616247 0.0342403613 0.0133738527
  vertex 0.00994720403 -0.0034392369 0.0127740372
  vertex 0.0110284863 -0.00224311347 0.0114999069
  endloop
 endfacet

 facet normal 0 0 0
  outer loop
  vertex 0.0052616247 0.0342403613 0.0133738527
  vertex 0.0110284863 -0.00224311347 0.0114999069
  vertex 0.0106500583 0.00972727127 0.0105831306
  endloop
 endfacet

 facet normal 0 0 0
  outer loop
  vertex -0.00489788037 -0.00956980512 0.00234504347
  vertex -0.000302041153 -0.0104386192 0.00250000018
  vertex -0.00192272954 -0.0102908313 0.0119891306
  endloop
 endfacet

 facet normal 0 0 0
  outer loop
  vertex -0.00489788037 -0.00956980512 0.00234504347
  vertex -0.00843176711 -0.00741977477 0.00789718516
  vertex -0.00771943573 -0.00679651042 0.00246146019
  endloop
 endfacet

 facet normal 0 0 0
  outer loop
  vertex -0.00489788037 -0.00956980512 0.00234504347
  vertex -0.00771943573 -0.00679651042 0.00246146019
  vertex -0.00438205805 -0.00857235771 0.000159583302
  endloop
 endfacet

 facet normal 0 0 0
  outer loop
  vertex 0.0106959669 0.00964132696 0.00349475327
  vertex 0.00516324164 0.0341090746 0.000576066552
  vertex 0.011252352 0.00976843294 0.00717994384
  endloop
 endfacet

 facet normal 0 0 0
  outer loop
  vertex 0.0106959669 0.00964132696 0.00349475327
  vertex 0.011252352 0.00976843294 0.00717994384
  vertex 0.0104500977 -0.00289436593 0.00171281176
  endloop
 endfacet

 facet normal 0 0 0
  outer loop
  vertex 0.0106959669 0.00964132696 0.00349475327
  vertex 0.0104500977 -0.00289436593 0.00171281176
  vertex 0.00516324164 0.0341090746 0.000576066552
  endloop
 endfacet

 facet normal 0 0 0
  outer loop
  vertex -0.00819096807 0.00198205956 0.0122623332
  vertex -0.00580602651 -0.00776980957 0.0134763019
  vertex -0.00767818093 0.0262914859 0.0129682552
  endloop
 endfacet

 facet normal 0 0 0
  outer loop
  vertex 0.0110284863 -0.00224311347 0.0114999069
  vertex 0.0104500977 -0.00289436593 0.00171281176
  vertex 0.011252352 0.00976843294 0.00717994384
  endloop
 endfacet

 facet normal 0 0 0
  outer loop
  vertex 0.0110284863 -0.00224311347 0.0114999069
  vertex 0.011252352 0.00976843294 0.00717994384
  vertex 0.0106500583 0.00972727127 0.0105831306
  endloop
 endfacet

 facet normal 0 0 0
  outer loop
  vertex 0.0110284863 -0.00224311347 0.0114999069
  vertex 0.00994720403 -0.0034392369 0.0127740372
  vertex 0.00885936152 -0.00691160373 0.011500001
  endloop
 endfacet

 facet normal 0 0 0
  outer loop
  vertex 0.0110284863 -0.00224311347 0.0114999069
  vertex 0.00885936152 -0.00691160373 0.011500001
  vertex 0.00912733003 -0.00652163709 0.00214801705
  endloop
 endfacet

 facet normal 0 0 0
  outer loop
  vertex 0.0110284863 -0.00224311347 0.0114999069
  vertex 0.00912733003 -0.00652163709 0.00214801705
  vertex 0.0104500977 -0.00289436593 0.00171281176
  endloop
 endfacet

 facet normal 0 0 0
  outer loop
  vertex 0.00108933239 -0.0096976608 0.000133594745
  vertex -0.000302041153 -0.0104386192 0.00250000018
  vertex -0.00489788037 -0.00956980512 0.00234504347
  endloop
 endfacet

 facet normal 0 0 0
  outer loop
  vertex 0.00108933239 -0.0096976608 0.000133594745
  vertex -0.00489788037 -0.00956980512 0.00234504347
  vertex -0.00438205805 -0.00857235771 0.000159583302
  endloop
 endfacet

 facet normal 0 0 0
  outer loop
  vertex 0.00108933239 -0.0096976608 0.000133594745
  vertex -0.00438205805 -0.00857235771 0.000159583302
  vertex 0.00124205311 -0.00652782759 -0.000897317426
  endloop
 endfacet

 facet normal 0 0 0
  outer loop
  vertex 0.00108933239 -0.0096976608 0.000133594745
  vertex 0.00124205311 -0.00652782759 -0.000897317426
  vertex 0.00567794358 -0.0085598873 0.000198762631
  endloop
 endfacet

 facet normal 0 0 0
  outer loop
  vertex -0.0064995815 0.00267271488 0.000122566023
  vertex -0.00767818093 0.0262914859 0.00103174546
  vertex -0.00420786208 0.0256475694 -0.000624017091
  endloop
 endfacet

 facet normal 0 0 0
  outer loop
  vertex -0.00420786208 0.0256475694 -0.000624017091
  vertex 0.00124205311 -0.00652782759 -0.000897317426
  vertex -0.00438205805 -0.00857235771 0.000159583302
  endloop
 endfacet

 facet normal 0 0 0
  outer loop
  vertex -0.00420786208 0.0256475694 -0.000624017091
  vertex -0.00438205805 -0.00857235771 0.000159583302
  vertex -0.0064995815 0.00267271488 0.000122566023
  endloop
 endfacet

 facet normal 0 0 0
  outer loop
  vertex -0.0064995815 0.00267271488 0.000122566023
  vertex -0.00438205805 -0.00857235771 0.000159583302
  vertex -0.00771943573 -0.00679651042 0.00246146019
  endloop
 endfacet

 facet normal 0 0 0
  outer loop
  vertex 0.00792547967 -0.00373354321 3.38910795e-05
  vertex 0.0104500977 -0.00289436593 0.00171281176
  vertex 0.00912733003 -0.00652163709 0.00214801705
  endloop
 endfacet

 facet normal 0 0 0
  outer loop
  vertex 0.00792547967 -0.00373354321 3.38910795e-05
  vertex 0.00912733003 -0.00652163709 0.00214801705
  vertex 0.00567794358 -0.0085598873 0.000198762631
  endloop
 endfacet

 facet normal 0 0 0
  outer loop
  vertex 0.00792547967 -0.00373354321 3.38910795e-05
  vertex 0.00567794358 -0.0085598873 0.000198762631
  vertex 0.00124205311 -0.00652782759 -0.000897317426
  endloop
 endfacet

 facet normal 0 0 0
  outer loop
  vertex 0.00792547967 -0.00373354321 3.38910795e-05
  vertex 0.00516324164 0.0341090746 0.000576066552
  vertex 0.0104500977 -0.00289436593 0.00171281176
  endloop
 endfacet

 facet normal 0 0 0
  outer loop
  vertex -0.00923262816 0.00154595578 0.00429835683
  vertex -0.00938340649 0.00148409349 0.00881865621
  vertex -0.00928024203 0.0266931038 0.0056311572
  endloop
 endfacet

 facet normal 0 0 0
  outer loop
  vertex -0.00923262816 0.00154595578 0.00429835683
  vertex -0.00928024203 0.0266931038 0.0056311572
  vertex -0.00767818093 0.0262914859 0.00103174546
  endloop
 endfacet

 facet normal 0 0 0
  outer loop
  vertex -0.00767818093 0.0262914859 0.00103174546
  vertex -0.0064995815 0.00267271488 0.000122566023
  vertex -0.00771943573 -0.00679651042 0.00246146019
  endloop
 endfacet

 facet normal 0 0 0
  outer loop
  vertex -0.00767818093 0.0262914859 0.00103174546
  vertex -0.00771943573 -0.00679651042 0.00246146019
  vertex -0.00923262816 0.00154595578 0.00429835683
  endloop
 endfacet

 facet normal 0 0 0
  outer loop
  vertex -0.00923262816 0.00154595578 0.00429835683
  vertex -0.00771943573 -0.00679651042 0.00246146019
  vertex -0.00843176711 -0.00741977477 0.00789718516
  endloop
 endfacet

 facet normal 0 0 0
  outer loop
  vertex -0.00923262816 0.00154595578 0.00429835683
  vertex -0.00843176711 -0.00741977477 0.00789718516
  vertex -0.00938340649 0.00148409349 0.00881865621
  endloop
 endfacet

 facet normal 0 0 0
  outer loop
  vertex 0.00772537244 -0.0068665971 0.0136435935
  vertex 0.00530275796 -0.00647661742 0.0146015324
  vertex 0.00397625519 -0.00945565663 0.013618988
  endloop
 endfacet

 facet normal 0 0 0
  outer loop
  vertex 0.00772537244 -0.0068665971 0.0136435935
  vertex 0.00397625519 -0.00945565663 0.013618988
  vertex 0.00885936152 -0.00691160373 0.011500001
  endloop
 endfacet

 facet normal 0 0 0
  outer loop
  vertex 0.00772537244 -0.0068665971 0.0136435935
  vertex 0.00885936152 -0.00691160373 0.011500001
  vertex 0.00994720403 -0.0034392369 0.0127740372
  endloop
 endfacet

 facet normal 0 0 0
  outer loop
  vertex -0.00565531058 -0.00910843536 0.0122251092
  vertex -0.00843176711 -0.00741977477 0.00789718516
  vertex -0.00489788037 -0.00956980512 0.00234504347
  endloop
 endfacet

 facet normal 0 0 0
  outer loop
  vertex -0.00565531058 -0.00910843536 0.0122251092
  vertex -0.00489788037 -0.00956980512 0.00234504347
  vertex -0.00192272954 -0.0102908313 0.0119891306
  endloop
 endfacet

 facet normal 0 0 0
  outer loop
  vertex 0.000897764694 -0.00845654029 0.0145948064
  vertex 0.00397625519 -0.00945565663 0.013618988
  vertex 0.00530275796 -0.00647661742 0.0146015324
  endloop
 endfacet

 facet normal 0 0 0
  outer loop
  vertex 0.000897764694 -0.00845654029 0.0145948064
  vertex 0.00530275796 -0.00647661742 0.0146015324
  vertex -0.000988684944 0.00459580403 0.01506266
  endloop
 endfacet

 facet normal 0 0 0
  outer loop
  vertex 0.000897764694 -0.00845654029 0.0145948064
  vertex -0.000988684944 0.00459580403 0.01506266
  vertex -0.00580602651 -0.00776980957 0.0134763019
  endloop
 endfacet

 facet normal 0 0 0
  outer loop
  vertex 0.000897764694 -0.00845654029 0.0145948064
  vertex -0.00580602651 -0.00776980957 0.0134763019
  vertex -0.00565531058 -0.00910843536 0.0122251092
  endloop
 endfacet

 facet normal 0 0 0
  outer loop
  vertex 0.000897764694 -0.00845654029 0.0145948064
  vertex -0.00565531058 -0.00910843536 0.0122251092
  vertex -0.00192272954 -0.0102908313 0.0119891306
  endloop
 endfacet

 facet normal 0 0 0
  outer loop
  vertex 0.000897764694 -0.00845654029 0.0145948064
  vertex -0.00192272954 -0.0102908313 0.0119891306
  vertex 0.00397625519 -0.00945565663 0.013618988
  endloop
 endfacet

 facet normal 0 0 0
  outer loop
  vertex -0.00554959429 0.0284058861 0.0139801251
  vertex -0.00420786208 0.0256475694 0.0146240173
  vertex 0.000341988285 0.0348697938 0.0132831242
  endloop
 endfacet

 facet normal 0 0 0
  outer loop
  vertex -0.00554959429 0.0284058861 0.0139801251
  vertex 0.000341988285 0.0348697938 0.0132831242
  vertex -0.00700579118 0.0301648043 0.0117905661
  endloop
 endfacet

 facet normal 0 0 0
  outer loop
  vertex -0.00554959429 0.0284058861 0.0139801251
  vertex -0.00700579118 0.0301648043 0.0117905661
  vertex -0.00767818093 0.0262914859 0.0129682552
  endloop
 endfacet

 facet normal 0 0 0
  outer loop
  vertex -0.00768118352 -0.00632065209 0.0118226446
  vertex -0.00580602651 -0.00776980957 0.0134763019
  vertex -0.00819096807 0.00198205956 0.0122623332
  endloop
 endfacet

 facet normal 0 0 0
  outer loop
  vertex -0.00768118352 -0.00632065209 0.0118226446
  vertex -0.00819096807 0.00198205956 0.0122623332
  vertex -0.00938340649 0.00148409349 0.00881865621
  endloop
 endfacet

 facet normal 0 0 0
  outer loop
  vertex -0.00768118352 -0.00632065209 0.0118226446
  vertex -0.00938340649 0.00148409349 0.00881865621
  vertex -0.00843176711 -0.00741977477 0.00789718516
  endloop
 endfacet

 facet normal 0 0 0
  outer loop
  vertex -0.00768118352 -0.00632065209 0.0118226446
  vertex -0.00843176711 -0.00741977477 0.00789718516
  vertex -0.00565531058 -0.00910843536 0.0122251092
  endloop
 endfacet

 facet normal 0 0 0
  outer loop
  vertex -0.00768118352 -0.00632065209 0.0118226446
  vertex -0.00565531058 -0.00910843536 0.0122251092
  vertex -0.00580602651 -0.00776980957 0.0134763019
  endloop
 endfacet

 facet normal 0 0 0
  outer loop
  vertex -0.00857175887 0.0283409916 0.0103255818
  vertex -0.00700579118 0.0301648043 0.0117905661
  vertex -0.00796763878 0.0301739071 0.00700000022
  endloop
 endfacet

 facet normal 0 0 0
  outer loop
  vertex -0.00857175887 0.0283409916 0.0103255818
  vertex -0.00796763878 0.0301739071 0.00700000022
  vertex -0.00928024203 0.0266931038 0.0056311572
  endloop
 endfacet

 facet normal 0 0 0
  outer loop
  vertex -0.00857175887 0.0283409916 0.0103255818
  vertex -0.00928024203 0.0266931038 0.0056311572
  vertex -0.00938340649 0.00148409349 0.00881865621
  endloop
 endfacet

 facet normal 0 0 0
  outer loop
  vertex -0.00938340649 0.00148409349 0.00881865621
  vertex -0.00819096807 0.00198205956 0.0122623332
  vertex -0.00767818093 0.0262914859 0.0129682552
  endloop
 endfacet

 facet normal 0 0 0
  outer loop
  vertex -0.00938340649 0.00148409349 0.00881865621
  vertex -0.00767818093 0.0262914859 0.0129682552
  vertex -0.00857175887 0.0283409916 0.0103255818
  endloop
 endfacet

 facet normal 0 0 0
  outer loop
  vertex -0.00857175887 0.0283409916 0.0103255818
  vertex -0.00767818093 0.0262914859 0.0129682552
  vertex -0.00700579118 0.0301648043 0.0117905661
  endloop
 endfacet

 facet normal 0 0 0
  outer loop
  vertex 0.00436086953 -0.00978236832 0.00250000018
  vertex -0.000302041153 -0.0104386192 0.00250000018
  vertex 0.00108933239 -0.0096976608 0.000133594745
  endloop
 endfacet

 facet normal 0 0 0
  outer loop
  vertex 0.00436086953 -0.00978236832 0.00250000018
  vertex 0.00108933239 -0.0096976608 0.000133594745
  vertex 0.00567794358 -0.0085598873 0.000198762631
  endloop
 endfacet

 facet normal 0 0 0
  outer loop
  vertex 0.00436086953 -0.00978236832 0.00250000018
  vertex 0.00567794358 -0.0085598873 0.000198762631
  vertex 0.00912733003 -0.00652163709 0.00214801705
  endloop
 endfacet

 facet normal 0 0 0
  outer loop
  vertex 0.00436086953 -0.00978236832 0.00250000018
  vertex 0.00912733003 -0.00652163709 0.00214801705
  vertex 0.00885936152 -0.00691160373 0.011500001
  endloop
 endfacet

 facet normal 0 0 0
  outer loop
  vertex 0.00436086953 -0.00978236832 0.00250000018
  vertex 0.00885936152 -0.00691160373 0.011500001
  vertex 0.00397625519 -0.00945565663 0.013618988
  endloop
 endfacet

endsolid AssimpScene
