solid AssimpScene
 facet normal 0 0 0
  outer loop
  vertex -0.00249599991 -0.00319853588 -0.0104997829
  vertex -0.00399867119 -0.000688499596 -0.0104996506
  vertex 0.00274906633 0.0117668007 -0.010701498
  endloop
 endfacet

 facet normal 0 0 0
  outer loop
  vertex -0.00249599991 -0.00319853588 -0.0104997829
  vertex 0.00274906633 0.0117668007 -0.010701498
  vertex 0.00353592564 -0.00198666146 -0.0105003091
  endloop
 endfacet

 facet normal 0 0 0
  outer loop
  vertex -0.00249599991 -0.00319853588 -0.0104997829
  vertex 0.00353592564 -0.00198666146 -0.0105003091
  vertex 0.000304288522 -0.00404511113 -0.0105000269
  endloop
 endfacet

 facet normal 0 0 0
  outer loop
  vertex 0.00353592564 -0.00198666146 -0.0105003091
  vertex 0.00274952711 0.0165414438 -0.0054204287
  vertex 0.00275034946 0.0115949623 0.00400267821
  endloop
 endfacet

 facet normal 0 0 0
  outer loop
  vertex 0.00353592564 -0.00198666146 -0.0105003091
  vertex 0.00275034946 0.0115949623 0.00400267821
  vertex 0.00353684206 -0.00198666146 -3.08729113e-07
  endloop
 endfacet

 facet normal 0 0 0
  outer loop
  vertex 0.00274906633 0.0117668007 -0.010701498
  vertex 0.00274952711 0.0165414438 -0.0054204287
  vertex 0.00353592564 -0.00198666146 -0.0105003091
  endloop
 endfacet

 facet normal 0 0 0
  outer loop
  vertex 0.00274906633 0.0117668007 -0.010701498
  vertex -0.00399867119 -0.000688499596 -0.0104996506
  vertex -0.0027509022 0.0124534518 -0.0103381416
  endloop
 endfacet

 facet normal 0 0 0
  outer loop
  vertex 0.000305204885 -0.00404511113 -2.66922306e-08
  vertex -0.00274962233 0.00985905901 0.00432812562
  vertex -0.00319871027 -0.00249486021 2.79107326e-07
  endloop
 endfacet

 facet normal 0 0 0
  outer loop
  vertex 0.000305204885 -0.00404511113 -2.66922306e-08
  vertex 0.000304288522 -0.00404511113 -0.0105000269
  vertex 0.00353592564 -0.00198666146 -0.0105003091
  endloop
 endfacet

 facet normal 0 0 0
  outer loop
  vertex 0.000305204885 -0.00404511113 -2.66922306e-08
  vertex 0.00353592564 -0.00198666146 -0.0105003091
  vertex 0.00353684206 -0.00198666146 -3.08729113e-07
  endloop
 endfacet

 facet normal 0 0 0
  outer loop
  vertex -0.00274975598 0.01288315 0.00279504736
  vertex 0.00275034946 0.0115949623 0.00400267821
  vertex 0.00274952711 0.0165414438 -0.0054204287
  endloop
 endfacet

 facet normal 0 0 0
  outer loop
  vertex -0.00274975598 0.01288315 0.00279504736
  vertex 0.00274952711 0.0165414438 -0.0054204287
  vertex -0.00275039976 0.0164731126 -0.00457982952
  endloop
 endfacet

 facet normal 0 0 0
  outer loop
  vertex -0.00274975598 0.01288315 0.00279504736
  vertex -0.00274962233 0.00985905901 0.00432812562
  vertex 0.00275034946 0.0115949623 0.00400267821
  endloop
 endfacet

 facet normal 0 0 0
  outer loop
  vertex -0.00249599991 -0.00319853588 -0.0104997829
  vertex -0.00319871027 -0.00249486021 2.79107326e-07
  vertex -0.00399867119 -0.000688499596 -0.0104996506
  endloop
 endfacet

 facet normal 0 0 0
  outer loop
  vertex -0.00249599991 -0.00319853588 -0.0104997829
  vertex 0.000304288522 -0.00404511113 -0.0105000269
  vertex 0.000305204885 -0.00404511113 -2.66922306e-08
  endloop
 endfacet

 facet normal 0 0 0
  outer loop
  vertex -0.00249599991 -0.00319853588 -0.0104997829
  vertex 0.000305204885 -0.00404511113 -2.66922306e-08
  vertex -0.00319871027 -0.00249486021 2.79107326e-07
  endloop
 endfacet

 facet normal 0 0 0
  outer loop
  vertex -0.0027506114 0.0160136521 -0.00700501958
  vertex -0.0027509022 0.0124534518 -0.0103381416
  vertex -0.00399867119 -0.000688499596 -0.0104996506
  endloop
 endfacet

 facet normal 0 0 0
  outer loop
  vertex -0.0027506114 0.0160136521 -0.00700501958
  vertex -0.00275039976 0.0164731126 -0.00457982952
  vertex 0.00274952711 0.0165414438 -0.0054204287
  endloop
 endfacet

 facet normal 0 0 0
  outer loop
  vertex -0.0027506114 0.0160136521 -0.00700501958
  vertex 0.00274952711 0.0165414438 -0.0054204287
  vertex 0.00274906633 0.0117668007 -0.010701498
  endloop
 endfacet

 facet normal 0 0 0
  outer loop
  vertex -0.0027506114 0.0160136521 -0.00700501958
  vertex 0.00274906633 0.0117668007 -0.010701498
  vertex -0.0027509022 0.0124534518 -0.0103381416
  endloop
 endfacet

 facet normal 0 0 0
  outer loop
  vertex -0.00404509017 0.00030548693 3.52973984e-07
  vertex -0.00274962233 0.00985905901 0.00432812562
  vertex -0.00274975598 0.01288315 0.00279504736
  endloop
 endfacet

 facet normal 0 0 0
  outer loop
  vertex -0.00404509017 0.00030548693 3.52973984e-07
  vertex -0.00274975598 0.01288315 0.00279504736
  vertex -0.00275039976 0.0164731126 -0.00457982952
  endloop
 endfacet

 facet normal 0 0 0
  outer loop
  vertex -0.00404509017 0.00030548693 3.52973984e-07
  vertex -0.00275039976 0.0164731126 -0.00457982952
  vertex -0.0027506114 0.0160136521 -0.00700501958
  endloop
 endfacet

 facet normal 0 0 0
  outer loop
  vertex -0.00404509017 0.00030548693 3.52973984e-07
  vertex -0.0027506114 0.0160136521 -0.00700501958
  vertex -0.00399867119 -0.000688499596 -0.0104996506
  endloop
 endfacet

 facet normal 0 0 0
  outer loop
  vertex -0.00404509017 0.00030548693 3.52973984e-07
  vertex -0.00399867119 -0.000688499596 -0.0104996506
  vertex -0.00319871027 -0.00249486021 2.79107326e-07
  endloop
 endfacet

 facet normal 0 0 0
  outer loop
  vertex -0.00404509017 0.00030548693 3.52973984e-07
  vertex -0.00319871027 -0.00249486021 2.79107326e-07
  vertex -0.00274962233 0.00985905901 0.00432812562
  endloop
 endfacet

 facet normal 0 0 0
  outer loop
  vertex 0.00275035924 0.00899285357 0.00411462365
  vertex 0.00275034946 0.0115949623 0.00400267821
  vertex -0.00274962233 0.00985905901 0.00432812562
  endloop
 endfacet

 facet normal 0 0 0
  outer loop
  vertex 0.00275035924 0.00899285357 0.00411462365
  vertex -0.00274962233 0.00985905901 0.00432812562
  vertex 0.000305204885 -0.00404511113 -2.66922306e-08
  endloop
 endfacet

 facet normal 0 0 0
  outer loop
  vertex 0.00275035924 0.00899285357 0.00411462365
  vertex 0.000305204885 -0.00404511113 -2.66922306e-08
  vertex 0.00353684206 -0.00198666146 -3.08729113e-07
  endloop
 endfacet

 facet normal 0 0 0
  outer loop
  vertex 0.00275035924 0.00899285357 0.00411462365
  vertex 0.00353684206 -0.00198666146 -3.08729113e-07
  vertex 0.00275034946 0.0115949623 0.00400267821
  endloop
 endfacet

endsolid AssimpScene
