solid AssimpScene
 facet normal 0 0 0
  outer loop
  vertex -0.00720095681 -0.00833197962 0.00314455573
  vertex -0.0045838058 -0.00894223899 0.000518487301
  vertex -0.000302059605 -0.0104386294 0.0024999918
  endloop
 endfacet

 facet normal 0 0 0
  outer loop
  vertex -0.00720095681 -0.00833197962 0.00314455573
  vertex -0.000302059605 -0.0104386294 0.0024999918
  vertex -0.00192274759 -0.0102908388 0.0119891223
  endloop
 endfacet

 facet normal 0 0 0
  outer loop
  vertex -0.00720095681 -0.00833197962 0.00314455573
  vertex -0.00192274759 -0.0102908388 0.0119891223
  vertex -0.00523263169 -0.00932045933 0.0123168975
  endloop
 endfacet

 facet normal 0 0 0
  outer loop
  vertex 0.000783690077 0.0352317393 0.0131197535
  vertex 0.0030127652 0.035874676 0.00122540537
  vertex -0.00700572971 0.0301648062 0.00220942474
  endloop
 endfacet

 facet normal 0 0 0
  outer loop
  vertex 0.000783690077 0.0352317393 0.0131197535
  vertex -0.00700572971 0.0301648062 0.00220942474
  vertex -0.00795926061 0.0300883148 0.00867806468
  endloop
 endfacet

 facet normal 0 0 0
  outer loop
  vertex 0.00493006548 -0.00888141617 9.20230304e-05
  vertex 0.00452878652 -0.00941651314 0.0132652801
  vertex -0.000302059605 -0.0104386294 0.0024999918
  endloop
 endfacet

 facet normal 0 0 0
  outer loop
  vertex 0.00596384751 0.0328716822 0.00078112632
  vertex 0.00561070861 0.0339883752 0.0132327732
  vertex 0.0112523744 0.00976840034 0.00682004821
  endloop
 endfacet

 facet normal 0 0 0
  outer loop
  vertex 0.00892314129 -0.00684079854 0.0024999918
  vertex 0.00885935035 -0.00691163214 0.0114999926
  vertex 0.00452878652 -0.00941651314 0.0132652801
  endloop
 endfacet

 facet normal 0 0 0
  outer loop
  vertex 0.00892314129 -0.00684079854 0.0024999918
  vertex 0.00452878652 -0.00941651314 0.0132652801
  vertex 0.00493006548 -0.00888141617 9.20230304e-05
  endloop
 endfacet

 facet normal 0 0 0
  outer loop
  vertex -0.00192274759 -0.0102908388 0.0119891223
  vertex -0.000302059605 -0.0104386294 0.0024999918
  vertex 0.00452878652 -0.00941651314 0.0132652801
  endloop
 endfacet

 facet normal 0 0 0
  outer loop
  vertex -0.00658648415 0.0300997328 0.0124142924
  vertex 0.000783690077 0.0352317393 0.0131197535
  vertex -0.00795926061 0.0300883148 0.00867806468
  endloop
 endfacet

 facet normal 0 0 0
  outer loop
  vertex -0.00932808593 0.0267053228 0.0069999923
  vertex -0.00795926061 0.0300883148 0.00867806468
  vertex -0.00700572971 0.0301648062 0.00220942474
  endloop
 endfacet

 facet normal 0 0 0
  outer loop
  vertex -0.00932808593 0.0267053228 0.0069999923
  vertex -0.00700572971 0.0301648062 0.00220942474
  vertex -0.00800459553 0.0263713617 0.00143721653
  endloop
 endfacet

 facet normal 0 0 0
  outer loop
  vertex 0.0036212327 0.0358104669 0.0127770817
  vertex 0.0030127652 0.035874676 0.00122540537
  vertex 0.000783690077 0.0352317393 0.0131197535
  endloop
 endfacet

 facet normal 0 0 0
  outer loop
  vertex 0.000489923579 0.0341928452 3.58726611e-05
  vertex -0.00700572971 0.0301648062 0.00220942474
  vertex 0.0030127652 0.035874676 0.00122540537
  endloop
 endfacet

 facet normal 0 0 0
  outer loop
  vertex -0.0031025908 0.0255915653 0.0147031499
  vertex -0.0071222377 0.0261597354 0.0134911742
  vertex -0.00533304084 -0.00809587352 0.0136657245
  endloop
 endfacet

 facet normal 0 0 0
  outer loop
  vertex -0.0031025908 0.0255915653 0.0147031499
  vertex -0.00533304084 -0.00809587352 0.0136657245
  vertex 0.000466651662 0.0050149234 0.0150431385
  endloop
 endfacet

 facet normal 0 0 0
  outer loop
  vertex -0.00649957452 0.00267271721 0.000122557831
  vertex -0.00382220093 0.0256163739 -0.000665918924
  vertex 0.000748667633 -0.00748979952 -0.000793800224
  endloop
 endfacet

 facet normal 0 0 0
  outer loop
  vertex -0.00649957452 0.00267271721 0.000122557831
  vertex 0.000748667633 -0.00748979952 -0.000793800224
  vertex -0.0045838058 -0.00894223899 0.000518487301
  endloop
 endfacet

 facet normal 0 0 0
  outer loop
  vertex -0.00649957452 0.00267271721 0.000122557831
  vertex -0.0045838058 -0.00894223899 0.000518487301
  vertex -0.00771944737 -0.00679650577 0.00246145204
  endloop
 endfacet

 facet normal 0 0 0
  outer loop
  vertex -0.0092470441 0.00154000765 0.00436652405
  vertex -0.0092470441 0.00154000765 0.00963346008
  vertex -0.00932808593 0.0267053228 0.0069999923
  endloop
 endfacet

 facet normal 0 0 0
  outer loop
  vertex -0.0092470441 0.00154000765 0.00436652405
  vertex -0.00932808593 0.0267053228 0.0069999923
  vertex -0.00800459553 0.0263713617 0.00143721653
  endloop
 endfacet

 facet normal 0 0 0
  outer loop
  vertex -0.00800459553 0.0263713617 0.00143721653
  vertex -0.00649957452 0.00267271721 0.000122557831
  vertex -0.00771944737 -0.00679650577 0.00246145204
  endloop
 endfacet

 facet normal 0 0 0
  outer loop
  vertex -0.00800459553 0.0263713617 0.00143721653
  vertex -0.00771944737 -0.00679650577 0.00246145204
  vertex -0.0092470441 0.00154000765 0.00436652405
  endloop
 endfacet

 facet normal 0 0 0
  outer loop
  vertex -0.0092470441 0.00154000765 0.00436652405
  vertex -0.00771944737 -0.00679650577 0.00246145204
  vertex -0.00824084599 -0.00756898988 0.00887404941
  endloop
 endfacet

 facet normal 0 0 0
  outer loop
  vertex -0.0092470441 0.00154000765 0.00436652405
  vertex -0.00824084599 -0.00756898988 0.00887404941
  vertex -0.0092470441 0.00154000765 0.00963346008
  endloop
 endfacet

 facet normal 0 0 0
  outer loop
  vertex 0.00522509823 0.0349767283 0.00136511168
  vertex 0.00561070861 0.0339883752 0.0132327732
  vertex 0.00596384751 0.0328716822 0.00078112632
  endloop
 endfacet

 facet normal 0 0 0
  outer loop
  vertex 0.00596384751 0.0328716822 0.00078112632
  vertex 0.000489923579 0.0341928452 3.58726611e-05
  vertex 0.0030127652 0.035874676 0.00122540537
  endloop
 endfacet

 facet normal 0 0 0
  outer loop
  vertex 0.00596384751 0.0328716822 0.00078112632
  vertex 0.0030127652 0.035874676 0.00122540537
  vertex 0.00522509823 0.0349767283 0.00136511168
  endloop
 endfacet

 facet normal 0 0 0
  outer loop
  vertex 0.00522509823 0.0349767283 0.00136511168
  vertex 0.0030127652 0.035874676 0.00122540537
  vertex 0.0036212327 0.0358104669 0.0127770817
  endloop
 endfacet

 facet normal 0 0 0
  outer loop
  vertex 0.00522509823 0.0349767283 0.00136511168
  vertex 0.0036212327 0.0358104669 0.0127770817
  vertex 0.00561070861 0.0339883752 0.0132327732
  endloop
 endfacet

 facet normal 0 0 0
  outer loop
  vertex 0.0109842597 -0.0027444805 0.0024999918
  vertex 0.0112523744 0.00976840034 0.00682004821
  vertex 0.010450094 -0.00289439713 0.0122871799
  endloop
 endfacet

 facet normal 0 0 0
  outer loop
  vertex 0.0109842597 -0.0027444805 0.0024999918
  vertex 0.010450094 -0.00289439713 0.0122871799
  vertex 0.00885935035 -0.00691163214 0.0114999926
  endloop
 endfacet

 facet normal 0 0 0
  outer loop
  vertex 0.0109842597 -0.0027444805 0.0024999918
  vertex 0.00885935035 -0.00691163214 0.0114999926
  vertex 0.00892314129 -0.00684079854 0.0024999918
  endloop
 endfacet

 facet normal 0 0 0
  outer loop
  vertex 0.0109842597 -0.0027444805 0.0024999918
  vertex 0.00892314129 -0.00684079854 0.0024999918
  vertex 0.00994720031 -0.00343926717 0.00122595439
  endloop
 endfacet

 facet normal 0 0 0
  outer loop
  vertex -0.00776999164 0.00215727603 0.0128090438
  vertex -0.00533304084 -0.00809587352 0.0136657245
  vertex -0.0071222377 0.0261597354 0.0134911742
  endloop
 endfacet

 facet normal 0 0 0
  outer loop
  vertex 0.00239984458 -0.00895848125 0.014437845
  vertex 0.00530274771 -0.0064766393 0.014601524
  vertex 0.000466651662 0.0050149234 0.0150431385
  endloop
 endfacet

 facet normal 0 0 0
  outer loop
  vertex 0.00239984458 -0.00895848125 0.014437845
  vertex 0.000466651662 0.0050149234 0.0150431385
  vertex -0.00533304084 -0.00809587352 0.0136657245
  endloop
 endfacet

 facet normal 0 0 0
  outer loop
  vertex 0.00239984458 -0.00895848125 0.014437845
  vertex -0.00533304084 -0.00809587352 0.0136657245
  vertex -0.00523263169 -0.00932045933 0.0123168975
  endloop
 endfacet

 facet normal 0 0 0
  outer loop
  vertex 0.00239984458 -0.00895848125 0.014437845
  vertex -0.00523263169 -0.00932045933 0.0123168975
  vertex -0.00192274759 -0.0102908388 0.0119891223
  endloop
 endfacet

 facet normal 0 0 0
  outer loop
  vertex 0.00239984458 -0.00895848125 0.014437845
  vertex -0.00192274759 -0.0102908388 0.0119891223
  vertex 0.00452878652 -0.00941651314 0.0132652801
  endloop
 endfacet

 facet normal 0 0 0
  outer loop
  vertex 0.0106959883 0.0096412953 0.0105052395
  vertex 0.010450094 -0.00289439713 0.0122871799
  vertex 0.0112523744 0.00976840034 0.00682004821
  endloop
 endfacet

 facet normal 0 0 0
  outer loop
  vertex 0.0106959883 0.0096412953 0.0105052395
  vertex 0.0112523744 0.00976840034 0.00682004821
  vertex 0.00561070861 0.0339883752 0.0132327732
  endloop
 endfacet

 facet normal 0 0 0
  outer loop
  vertex 0.0106959883 0.0096412953 0.0105052395
  vertex 0.00561070861 0.0339883752 0.0132327732
  vertex 0.010450094 -0.00289439713 0.0122871799
  endloop
 endfacet

 facet normal 0 0 0
  outer loop
  vertex 0.00498384796 0.00611369032 -0.000634597149
  vertex 0.000748667633 -0.00748979952 -0.000793800224
  vertex -0.00382220093 0.0256163739 -0.000665918924
  endloop
 endfacet

 facet normal 0 0 0
  outer loop
  vertex 0.00498384796 0.00611369032 -0.000634597149
  vertex -0.00382220093 0.0256163739 -0.000665918924
  vertex 0.000489923579 0.0341928452 3.58726611e-05
  endloop
 endfacet

 facet normal 0 0 0
  outer loop
  vertex 0.00498384796 0.00611369032 -0.000634597149
  vertex 0.000489923579 0.0341928452 3.58726611e-05
  vertex 0.00596384751 0.0328716822 0.00078112632
  endloop
 endfacet

 facet normal 0 0 0
  outer loop
  vertex 0.00838230737 -0.00635030726 0.0133919464
  vertex 0.010450094 -0.00289439713 0.0122871799
  vertex 0.00561070861 0.0339883752 0.0132327732
  endloop
 endfacet

 facet normal 0 0 0
  outer loop
  vertex 0.00838230737 -0.00635030726 0.0133919464
  vertex 0.00561070861 0.0339883752 0.0132327732
  vertex 0.00530274771 -0.0064766393 0.014601524
  endloop
 endfacet

 facet normal 0 0 0
  outer loop
  vertex 0.00838230737 -0.00635030726 0.0133919464
  vertex 0.00530274771 -0.0064766393 0.014601524
  vertex 0.00239984458 -0.00895848125 0.014437845
  endloop
 endfacet

 facet normal 0 0 0
  outer loop
  vertex 0.00838230737 -0.00635030726 0.0133919464
  vertex 0.00239984458 -0.00895848125 0.014437845
  vertex 0.00452878652 -0.00941651314 0.0132652801
  endloop
 endfacet

 facet normal 0 0 0
  outer loop
  vertex 0.00838230737 -0.00635030726 0.0133919464
  vertex 0.00452878652 -0.00941651314 0.0132652801
  vertex 0.00885935035 -0.00691163214 0.0114999926
  endloop
 endfacet

 facet normal 0 0 0
  outer loop
  vertex 0.00838230737 -0.00635030726 0.0133919464
  vertex 0.00885935035 -0.00691163214 0.0114999926
  vertex 0.010450094 -0.00289439713 0.0122871799
  endloop
 endfacet

 facet normal 0 0 0
  outer loop
  vertex -0.00605188916 0.0284436997 0.000253056147
  vertex -0.00800459553 0.0263713617 0.00143721653
  vertex -0.00700572971 0.0301648062 0.00220942474
  endloop
 endfacet

 facet normal 0 0 0
  outer loop
  vertex -0.00605188916 0.0284436997 0.000253056147
  vertex -0.00700572971 0.0301648062 0.00220942474
  vertex 0.000489923579 0.0341928452 3.58726611e-05
  endloop
 endfacet

 facet normal 0 0 0
  outer loop
  vertex -0.00605188916 0.0284436997 0.000253056147
  vertex 0.000489923579 0.0341928452 3.58726611e-05
  vertex -0.00382220093 0.0256163739 -0.000665918924
  endloop
 endfacet

 facet normal 0 0 0
  outer loop
  vertex -0.00605188916 0.0284436997 0.000253056147
  vertex -0.00382220093 0.0256163739 -0.000665918924
  vertex -0.00649957452 0.00267271721 0.000122557831
  endloop
 endfacet

 facet normal 0 0 0
  outer loop
  vertex -0.00605188916 0.0284436997 0.000253056147
  vertex -0.00649957452 0.00267271721 0.000122557831
  vertex -0.00800459553 0.0263713617 0.00143721653
  endloop
 endfacet

 facet normal 0 0 0
  outer loop
  vertex -0.00768119423 -0.00632064743 0.0118226362
  vertex -0.00533304084 -0.00809587352 0.0136657245
  vertex -0.00776999164 0.00215727603 0.0128090438
  endloop
 endfacet

 facet normal 0 0 0
  outer loop
  vertex -0.00768119423 -0.00632064743 0.0118226362
  vertex -0.00776999164 0.00215727603 0.0128090438
  vertex -0.0092470441 0.00154000765 0.00963346008
  endloop
 endfacet

 facet normal 0 0 0
  outer loop
  vertex -0.00768119423 -0.00632064743 0.0118226362
  vertex -0.0092470441 0.00154000765 0.00963346008
  vertex -0.00824084599 -0.00756898988 0.00887404941
  endloop
 endfacet

 facet normal 0 0 0
  outer loop
  vertex -0.00868770946 0.0265424382 0.0112802014
  vertex -0.00795926061 0.0300883148 0.00867806468
  vertex -0.00932808593 0.0267053228 0.0069999923
  endloop
 endfacet

 facet normal 0 0 0
  outer loop
  vertex -0.00868770946 0.0265424382 0.0112802014
  vertex -0.00932808593 0.0267053228 0.0069999923
  vertex -0.0092470441 0.00154000765 0.00963346008
  endloop
 endfacet

 facet normal 0 0 0
  outer loop
  vertex -0.00868770946 0.0265424382 0.0112802014
  vertex -0.0092470441 0.00154000765 0.00963346008
  vertex -0.00776999164 0.00215727603 0.0128090438
  endloop
 endfacet

 facet normal 0 0 0
  outer loop
  vertex -0.00868770946 0.0265424382 0.0112802014
  vertex -0.00776999164 0.00215727603 0.0128090438
  vertex -0.0071222377 0.0261597354 0.0134911742
  endloop
 endfacet

 facet normal 0 0 0
  outer loop
  vertex -0.00868770946 0.0265424382 0.0112802014
  vertex -0.0071222377 0.0261597354 0.0134911742
  vertex -0.00658648415 0.0300997328 0.0124142924
  endloop
 endfacet

 facet normal 0 0 0
  outer loop
  vertex -0.00868770946 0.0265424382 0.0112802014
  vertex -0.00658648415 0.0300997328 0.0124142924
  vertex -0.00795926061 0.0300883148 0.00867806468
  endloop
 endfacet

 facet normal 0 0 0
  outer loop
  vertex -0.00720095681 -0.00833197962 0.00314455573
  vertex -0.00771944737 -0.00679650577 0.00246145204
  vertex -0.0045838058 -0.00894223899 0.000518487301
  endloop
 endfacet

 facet normal 0 0 0
  outer loop
  vertex -0.00720095681 -0.00833197962 0.00314455573
  vertex -0.00824084599 -0.00756898988 0.00887404941
  vertex -0.00771944737 -0.00679650577 0.00246145204
  endloop
 endfacet

 facet normal 0 0 0
  outer loop
  vertex -0.00523263169 -0.00932045933 0.0123168975
  vertex -0.00824084599 -0.00756898988 0.00887404941
  vertex -0.00720095681 -0.00833197962 0.00314455573
  endloop
 endfacet

 facet normal 0 0 0
  outer loop
  vertex -0.00523263169 -0.00932045933 0.0123168975
  vertex -0.00533304084 -0.00809587352 0.0136657245
  vertex -0.00768119423 -0.00632064743 0.0118226362
  endloop
 endfacet

 facet normal 0 0 0
  outer loop
  vertex -0.00523263169 -0.00932045933 0.0123168975
  vertex -0.00768119423 -0.00632064743 0.0118226362
  vertex -0.00824084599 -0.00756898988 0.00887404941
  endloop
 endfacet

 facet normal 0 0 0
  outer loop
  vertex 0.0106959883 0.0096412953 0.00349474512
  vertex 0.0112523744 0.00976840034 0.00682004821
  vertex 0.0109842597 -0.0027444805 0.0024999918
  endloop
 endfacet

 facet normal 0 0 0
  outer loop
  vertex 0.0106959883 0.0096412953 0.00349474512
  vertex 0.0109842597 -0.0027444805 0.0024999918
  vertex 0.00994720031 -0.00343926717 0.00122595439
  endloop
 endfacet

 facet normal 0 0 0
  outer loop
  vertex 0.0106959883 0.0096412953 0.00349474512
  vertex 0.00994720031 -0.00343926717 0.00122595439
  vertex 0.00596384751 0.0328716822 0.00078112632
  endloop
 endfacet

 facet normal 0 0 0
  outer loop
  vertex 0.0106959883 0.0096412953 0.00349474512
  vertex 0.00596384751 0.0328716822 0.00078112632
  vertex 0.0112523744 0.00976840034 0.00682004821
  endloop
 endfacet

 facet normal 0 0 0
  outer loop
  vertex -0.000323880085 -0.00991799589 0.00047962644
  vertex -0.000302059605 -0.0104386294 0.0024999918
  vertex -0.0045838058 -0.00894223899 0.000518487301
  endloop
 endfacet

 facet normal 0 0 0
  outer loop
  vertex -0.000323880085 -0.00991799589 0.00047962644
  vertex -0.0045838058 -0.00894223899 0.000518487301
  vertex 0.000748667633 -0.00748979952 -0.000793800224
  endloop
 endfacet

 facet normal 0 0 0
  outer loop
  vertex -0.000323880085 -0.00991799589 0.00047962644
  vertex 0.000748667633 -0.00748979952 -0.000793800224
  vertex 0.00493006548 -0.00888141617 9.20230304e-05
  endloop
 endfacet

 facet normal 0 0 0
  outer loop
  vertex -0.000323880085 -0.00991799589 0.00047962644
  vertex 0.00493006548 -0.00888141617 9.20230304e-05
  vertex -0.000302059605 -0.0104386294 0.0024999918
  endloop
 endfacet

 facet normal 0 0 0
  outer loop
  vertex 0.00129256758 0.0346294865 0.0139430761
  vertex 0.000783690077 0.0352317393 0.0131197535
  vertex -0.00658648415 0.0300997328 0.0124142924
  endloop
 endfacet

 facet normal 0 0 0
  outer loop
  vertex 0.00129256758 0.0346294865 0.0139430761
  vertex -0.00658648415 0.0300997328 0.0124142924
  vertex -0.0071222377 0.0261597354 0.0134911742
  endloop
 endfacet

 facet normal 0 0 0
  outer loop
  vertex 0.00129256758 0.0346294865 0.0139430761
  vertex -0.0071222377 0.0261597354 0.0134911742
  vertex -0.0031025908 0.0255915653 0.0147031499
  endloop
 endfacet

 facet normal 0 0 0
  outer loop
  vertex 0.00129256758 0.0346294865 0.0139430761
  vertex -0.0031025908 0.0255915653 0.0147031499
  vertex 0.000466651662 0.0050149234 0.0150431385
  endloop
 endfacet

 facet normal 0 0 0
  outer loop
  vertex 0.00129256758 0.0346294865 0.0139430761
  vertex 0.000466651662 0.0050149234 0.0150431385
  vertex 0.00530274771 -0.0064766393 0.014601524
  endloop
 endfacet

 facet normal 0 0 0
  outer loop
  vertex 0.00129256758 0.0346294865 0.0139430761
  vertex 0.00530274771 -0.0064766393 0.014601524
  vertex 0.00561070861 0.0339883752 0.0132327732
  endloop
 endfacet

 facet normal 0 0 0
  outer loop
  vertex 0.00129256758 0.0346294865 0.0139430761
  vertex 0.00561070861 0.0339883752 0.0132327732
  vertex 0.0036212327 0.0358104669 0.0127770817
  endloop
 endfacet

 facet normal 0 0 0
  outer loop
  vertex 0.00129256758 0.0346294865 0.0139430761
  vertex 0.0036212327 0.0358104669 0.0127770817
  vertex 0.000783690077 0.0352317393 0.0131197535
  endloop
 endfacet

 facet normal 0 0 0
  outer loop
  vertex 0.00675732316 -0.0057922788 -0.000301653519
  vertex 0.00493006548 -0.00888141617 9.20230304e-05
  vertex 0.000748667633 -0.00748979952 -0.000793800224
  endloop
 endfacet

 facet normal 0 0 0
  outer loop
  vertex 0.00675732316 -0.0057922788 -0.000301653519
  vertex 0.000748667633 -0.00748979952 -0.000793800224
  vertex 0.00498384796 0.00611369032 -0.000634597149
  endloop
 endfacet

 facet normal 0 0 0
  outer loop
  vertex 0.00675732316 -0.0057922788 -0.000301653519
  vertex 0.00498384796 0.00611369032 -0.000634597149
  vertex 0.00596384751 0.0328716822 0.00078112632
  endloop
 endfacet

 facet normal 0 0 0
  outer loop
  vertex 0.00675732316 -0.0057922788 -0.000301653519
  vertex 0.00596384751 0.0328716822 0.00078112632
  vertex 0.00994720031 -0.00343926717 0.00122595439
  endloop
 endfacet

 facet normal 0 0 0
  outer loop
  vertex 0.00675732316 -0.0057922788 -0.000301653519
  vertex 0.00994720031 -0.00343926717 0.00122595439
  vertex 0.00892314129 -0.00684079854 0.0024999918
  endloop
 endfacet

 facet normal 0 0 0
  outer loop
  vertex 0.00675732316 -0.0057922788 -0.000301653519
  vertex 0.00892314129 -0.00684079854 0.0024999918
  vertex 0.00493006548 -0.00888141617 9.20230304e-05
  endloop
 endfacet

endsolid AssimpScene
