solid AssimpScene
 facet normal 0 0 0
  outer loop
  vertex -0.00420772517 0.025647575 -0.000624017091
  vertex 0.000818642613 0.0346835405 0.00013038727
  vertex 0.00516342325 0.0341090336 0.000576066552
  endloop
 endfacet

 facet normal 0 0 0
  outer loop
  vertex -0.00420772517 0.025647575 -0.000624017091
  vertex 0.00516342325 0.0341090336 0.000576066552
  vertex 0.00792546012 -0.00373360189 3.38910795e-05
  endloop
 endfacet

 facet normal 0 0 0
  outer loop
  vertex -0.00420772517 0.025647575 -0.000624017091
  vertex 0.00792546012 -0.00373360189 3.38910795e-05
  vertex 0.00124201865 -0.00652785087 -0.000897317426
  endloop
 endfacet

 facet normal 0 0 0
  outer loop
  vertex 0.0112524051 0.00976835657 0.00717994384
  vertex 0.00516342325 0.0341090336 0.000576066552
  vertex 0.00526180677 0.0342403166 0.0133738527
  endloop
 endfacet

 facet normal 0 0 0
  outer loop
  vertex -0.0079674786 0.030173935 0.00700000022
  vertex 0.000342173764 0.0348697752 0.0132831242
  vertex 0.00301294564 0.0358746611 0.00340000005
  endloop
 endfacet

 facet normal 0 0 0
  outer loop
  vertex -0.0079674786 0.030173935 0.00700000022
  vertex 0.00301294564 0.0358746611 0.00340000005
  vertex 0.000818642613 0.0346835405 0.00013038727
  endloop
 endfacet

 facet normal 0 0 0
  outer loop
  vertex -0.00192278391 -0.0102908378 0.0119891306
  vertex -0.000302096276 -0.010438635 0.00250000018
  vertex 0.00436081784 -0.00978240743 0.00250000018
  endloop
 endfacet

 facet normal 0 0 0
  outer loop
  vertex -0.00192278391 -0.0102908378 0.0119891306
  vertex 0.00436081784 -0.00978240743 0.00250000018
  vertex 0.00397620536 -0.00945569482 0.013618988
  endloop
 endfacet

 facet normal 0 0 0
  outer loop
  vertex -0.00700563053 0.0301648248 0.00220943312
  vertex -0.0079674786 0.030173935 0.00700000022
  vertex 0.000818642613 0.0346835405 0.00013038727
  endloop
 endfacet

 facet normal 0 0 0
  outer loop
  vertex -0.00700563053 0.0301648248 0.00220943312
  vertex 0.000818642613 0.0346835405 0.00013038727
  vertex -0.0076780417 0.026291512 0.00103174546
  endloop
 endfacet

 facet normal 0 0 0
  outer loop
  vertex -0.00700563053 0.0301648248 0.0117905661
  vertex 0.000342173764 0.0348697752 0.0132831242
  vertex -0.0079674786 0.030173935 0.00700000022
  endloop
 endfacet

 facet normal 0 0 0
  outer loop
  vertex 0.00343094673 0.0358436666 0.0127434675
  vertex 0.00301294564 0.0358746611 0.00340000005
  vertex 0.000342173764 0.0348697752 0.0132831242
  endloop
 endfacet

 facet normal 0 0 0
  outer loop
  vertex 0.00343094673 0.0358436666 0.0127434675
  vertex 0.000342173764 0.0348697752 0.0132831242
  vertex 0.00526180677 0.0342403166 0.0133738527
  endloop
 endfacet

 facet normal 0 0 0
  outer loop
  vertex -0.00928010046 0.0266931374 0.0056311572
  vertex -0.0079674786 0.030173935 0.00700000022
  vertex -0.00700563053 0.0301648248 0.00220943312
  endloop
 endfacet

 facet normal 0 0 0
  outer loop
  vertex -0.00928010046 0.0266931374 0.0056311572
  vertex -0.00700563053 0.0301648248 0.00220943312
  vertex -0.0076780417 0.026291512 0.00103174546
  endloop
 endfacet

 facet normal 0 0 0
  outer loop
  vertex -0.00420772517 0.025647575 0.0146240173
  vertex -0.00554944342 0.028405901 0.0139801251
  vertex -0.0076780417 0.026291512 0.0129682552
  endloop
 endfacet

 facet normal 0 0 0
  outer loop
  vertex -0.00420772517 0.025647575 0.0146240173
  vertex -0.0076780417 0.026291512 0.0129682552
  vertex -0.00580606796 -0.0077697956 0.0134763019
  endloop
 endfacet

 facet normal 0 0 0
  outer loop
  vertex -0.00420772517 0.025647575 0.0146240173
  vertex -0.00580606796 -0.0077697956 0.0134763019
  vertex -0.000988660264 0.00459579285 0.01506266
  endloop
 endfacet

 facet normal 0 0 0
  outer loop
  vertex -0.00420772517 0.025647575 0.0146240173
  vertex 0.00526180677 0.0342403166 0.0133738527
  vertex 0.000342173764 0.0348697752 0.0132831242
  endloop
 endfacet

 facet normal 0 0 0
  outer loop
  vertex -0.00420772517 0.025647575 -0.000624017091
  vertex -0.0076780417 0.026291512 0.00103174546
  vertex 0.000818642613 0.0346835405 0.00013038727
  endloop
 endfacet

 facet normal 0 0 0
  outer loop
  vertex 0.0053027235 -0.00647666305 0.0146015324
  vertex 0.00772533659 -0.00686665531 0.0136435935
  vertex 0.00994718634 -0.00343930651 0.0127740372
  endloop
 endfacet

 facet normal 0 0 0
  outer loop
  vertex 0.0053027235 -0.00647666305 0.0146015324
  vertex 0.00994718634 -0.00343930651 0.0127740372
  vertex 0.00526180677 0.0342403166 0.0133738527
  endloop
 endfacet

 facet normal 0 0 0
  outer loop
  vertex 0.0053027235 -0.00647666305 0.0146015324
  vertex 0.00526180677 0.0342403166 0.0133738527
  vertex -0.00420772517 0.025647575 0.0146240173
  endloop
 endfacet

 facet normal 0 0 0
  outer loop
  vertex 0.0053027235 -0.00647666305 0.0146015324
  vertex -0.00420772517 0.025647575 0.0146240173
  vertex -0.000988660264 0.00459579285 0.01506266
  endloop
 endfacet

 facet normal 0 0 0
  outer loop
  vertex 0.00362295751 0.0357346125 0.00100421696
  vertex 0.00516342325 0.0341090336 0.000576066552
  vertex 0.000818642613 0.0346835405 0.00013038727
  endloop
 endfacet

 facet normal 0 0 0
  outer loop
  vertex 0.00362295751 0.0357346125 0.00100421696
  vertex 0.000818642613 0.0346835405 0.00013038727
  vertex 0.00301294564 0.0358746611 0.00340000005
  endloop
 endfacet

 facet normal 0 0 0
  outer loop
  vertex 0.00362295751 0.0357346125 0.00100421696
  vertex 0.00301294564 0.0358746611 0.00340000005
  vertex 0.00343094673 0.0358436666 0.0127434675
  endloop
 endfacet

 facet normal 0 0 0
  outer loop
  vertex 0.00362295751 0.0357346125 0.00100421696
  vertex 0.00343094673 0.0358436666 0.0127434675
  vertex 0.00526180677 0.0342403166 0.0133738527
  endloop
 endfacet

 facet normal 0 0 0
  outer loop
  vertex 0.00362295751 0.0357346125 0.00100421696
  vertex 0.00526180677 0.0342403166 0.0133738527
  vertex 0.00516342325 0.0341090336 0.000576066552
  endloop
 endfacet

 facet normal 0 0 0
  outer loop
  vertex 0.0106501095 0.0097271977 0.0105831306
  vertex 0.0112524051 0.00976835657 0.00717994384
  vertex 0.00526180677 0.0342403166 0.0133738527
  endloop
 endfacet

 facet normal 0 0 0
  outer loop
  vertex 0.00526180677 0.0342403166 0.0133738527
  vertex 0.00994718634 -0.00343930651 0.0127740372
  vertex 0.0110284751 -0.00224318844 0.0114999069
  endloop
 endfacet

 facet normal 0 0 0
  outer loop
  vertex 0.00526180677 0.0342403166 0.0133738527
  vertex 0.0110284751 -0.00224318844 0.0114999069
  vertex 0.0106501095 0.0097271977 0.0105831306
  endloop
 endfacet

 facet normal 0 0 0
  outer loop
  vertex -0.00489793066 -0.0095697958 0.00234504347
  vertex -0.000302096276 -0.010438635 0.00250000018
  vertex -0.00192278391 -0.0102908378 0.0119891306
  endloop
 endfacet

 facet normal 0 0 0
  outer loop
  vertex -0.00489793066 -0.0095697958 0.00234504347
  vertex -0.00843180623 -0.00741974637 0.00789718516
  vertex -0.00771947205 -0.00679648621 0.00246146019
  endloop
 endfacet

 facet normal 0 0 0
  outer loop
  vertex -0.00489793066 -0.0095697958 0.00234504347
  vertex -0.00771947205 -0.00679648621 0.00246146019
  vertex -0.00438210368 -0.00857235119 0.000159583302
  endloop
 endfacet

 facet normal 0 0 0
  outer loop
  vertex 0.0106960181 0.00964125339 0.00349475327
  vertex 0.00516342325 0.0341090336 0.000576066552
  vertex 0.0112524051 0.00976835657 0.00717994384
  endloop
 endfacet

 facet normal 0 0 0
  outer loop
  vertex 0.0106960181 0.00964125339 0.00349475327
  vertex 0.0112524051 0.00976835657 0.00717994384
  vertex 0.0104500828 -0.00289443787 0.00171281176
  endloop
 endfacet

 facet normal 0 0 0
  outer loop
  vertex 0.0106960181 0.00964125339 0.00349475327
  vertex 0.0104500828 -0.00289443787 0.00171281176
  vertex 0.00516342325 0.0341090336 0.000576066552
  endloop
 endfacet

 facet normal 0 0 0
  outer loop
  vertex -0.00819095783 0.0019820868 0.0122623332
  vertex -0.00580606796 -0.0077697956 0.0134763019
  vertex -0.0076780417 0.026291512 0.0129682552
  endloop
 endfacet

 facet normal 0 0 0
  outer loop
  vertex 0.0110284751 -0.00224318844 0.0114999069
  vertex 0.0104500828 -0.00289443787 0.00171281176
  vertex 0.0112524051 0.00976835657 0.00717994384
  endloop
 endfacet

 facet normal 0 0 0
  outer loop
  vertex 0.0110284751 -0.00224318844 0.0114999069
  vertex 0.0112524051 0.00976835657 0.00717994384
  vertex 0.0106501095 0.0097271977 0.0105831306
  endloop
 endfacet

 facet normal 0 0 0
  outer loop
  vertex 0.0110284751 -0.00224318844 0.0114999069
  vertex 0.00994718634 -0.00343930651 0.0127740372
  vertex 0.00885932613 -0.00691166706 0.011500001
  endloop
 endfacet

 facet normal 0 0 0
  outer loop
  vertex 0.0110284751 -0.00224318844 0.0114999069
  vertex 0.00885932613 -0.00691166706 0.011500001
  vertex 0.00912729558 -0.00652170181 0.00214801705
  endloop
 endfacet

 facet normal 0 0 0
  outer loop
  vertex 0.0110284751 -0.00224318844 0.0114999069
  vertex 0.00912729558 -0.00652170181 0.00214801705
  vertex 0.0104500828 -0.00289443787 0.00171281176
  endloop
 endfacet

 facet normal 0 0 0
  outer loop
  vertex 0.00108928117 -0.00969768316 0.000133594745
  vertex -0.000302096276 -0.010438635 0.00250000018
  vertex -0.00489793066 -0.0095697958 0.00234504347
  endloop
 endfacet

 facet normal 0 0 0
  outer loop
  vertex 0.00108928117 -0.00969768316 0.000133594745
  vertex -0.00489793066 -0.0095697958 0.00234504347
  vertex -0.00438210368 -0.00857235119 0.000159583302
  endloop
 endfacet

 facet normal 0 0 0
  outer loop
  vertex 0.00108928117 -0.00969768316 0.000133594745
  vertex -0.00438210368 -0.00857235119 0.000159583302
  vertex 0.00124201865 -0.00652785087 -0.000897317426
  endloop
 endfacet

 facet normal 0 0 0
  outer loop
  vertex 0.00108928117 -0.00969768316 0.000133594745
  vertex 0.00124201865 -0.00652785087 -0.000897317426
  vertex 0.00567789795 -0.00855993386 0.000198762631
  endloop
 endfacet

 facet normal 0 0 0
  outer loop
  vertex -0.006499568 0.00267273304 0.000122566023
  vertex -0.0076780417 0.026291512 0.00103174546
  vertex -0.00420772517 0.025647575 -0.000624017091
  endloop
 endfacet

 facet normal 0 0 0
  outer loop
  vertex -0.00420772517 0.025647575 -0.000624017091
  vertex 0.00124201865 -0.00652785087 -0.000897317426
  vertex -0.00438210368 -0.00857235119 0.000159583302
  endloop
 endfacet

 facet normal 0 0 0
  outer loop
  vertex -0.00420772517 0.025647575 -0.000624017091
  vertex -0.00438210368 -0.00857235119 0.000159583302
  vertex -0.006499568 0.00267273304 0.000122566023
  endloop
 endfacet

 facet normal 0 0 0
  outer loop
  vertex -0.006499568 0.00267273304 0.000122566023
  vertex -0.00438210368 -0.00857235119 0.000159583302
  vertex -0.00771947205 -0.00679648621 0.00246146019
  endloop
 endfacet

 facet normal 0 0 0
  outer loop
  vertex 0.00792546012 -0.00373360189 3.38910795e-05
  vertex 0.0104500828 -0.00289443787 0.00171281176
  vertex 0.00912729558 -0.00652170181 0.00214801705
  endloop
 endfacet

 facet normal 0 0 0
  outer loop
  vertex 0.00792546012 -0.00373360189 3.38910795e-05
  vertex 0.00912729558 -0.00652170181 0.00214801705
  vertex 0.00567789795 -0.00855993386 0.000198762631
  endloop
 endfacet

 facet normal 0 0 0
  outer loop
  vertex 0.00792546012 -0.00373360189 3.38910795e-05
  vertex 0.00567789795 -0.00855993386 0.000198762631
  vertex 0.00124201865 -0.00652785087 -0.000897317426
  endloop
 endfacet

 facet normal 0 0 0
  outer loop
  vertex 0.00792546012 -0.00373360189 3.38910795e-05
  vertex 0.00516342325 0.0341090336 0.000576066552
  vertex 0.0104500828 -0.00289443787 0.00171281176
  endloop
 endfacet

 facet normal 0 0 0
  outer loop
  vertex -0.00923261978 0.00154598837 0.00429835683
  vertex -0.00938339811 0.0014841269 0.00881865621
  vertex -0.00928010046 0.0266931374 0.0056311572
  endloop
 endfacet

 facet normal 0 0 0
  outer loop
  vertex -0.00923261978 0.00154598837 0.00429835683
  vertex -0.00928010046 0.0266931374 0.0056311572
  vertex -0.0076780417 0.026291512 0.00103174546
  endloop
 endfacet

 facet normal 0 0 0
  outer loop
  vertex -0.0076780417 0.026291512 0.00103174546
  vertex -0.006499568 0.00267273304 0.000122566023
  vertex -0.00771947205 -0.00679648621 0.00246146019
  endloop
 endfacet

 facet normal 0 0 0
  outer loop
  vertex -0.0076780417 0.026291512 0.00103174546
  vertex -0.00771947205 -0.00679648621 0.00246146019
  vertex -0.00923261978 0.00154598837 0.00429835683
  endloop
 endfacet

 facet normal 0 0 0
  outer loop
  vertex -0.00923261978 0.00154598837 0.00429835683
  vertex -0.00771947205 -0.00679648621 0.00246146019
  vertex -0.00843180623 -0.00741974637 0.00789718516
  endloop
 endfacet

 facet normal 0 0 0
  outer loop
  vertex -0.00923261978 0.00154598837 0.00429835683
  vertex -0.00843180623 -0.00741974637 0.00789718516
  vertex -0.00938339811 0.0014841269 0.00881865621
  endloop
 endfacet

 facet normal 0 0 0
  outer loop
  vertex 0.00772533659 -0.00686665531 0.0136435935
  vertex 0.0053027235 -0.00647666305 0.0146015324
  vertex 0.00397620536 -0.00945569482 0.013618988
  endloop
 endfacet

 facet normal 0 0 0
  outer loop
  vertex 0.00772533659 -0.00686665531 0.0136435935
  vertex 0.00397620536 -0.00945569482 0.013618988
  vertex 0.00885932613 -0.00691166706 0.011500001
  endloop
 endfacet

 facet normal 0 0 0
  outer loop
  vertex 0.00772533659 -0.00686665531 0.0136435935
  vertex 0.00885932613 -0.00691166706 0.011500001
  vertex 0.00994718634 -0.00343930651 0.0127740372
  endloop
 endfacet

 facet normal 0 0 0
  outer loop
  vertex -0.00565535901 -0.00910842139 0.0122251092
  vertex -0.00843180623 -0.00741974637 0.00789718516
  vertex -0.00489793066 -0.0095697958 0.00234504347
  endloop
 endfacet

 facet normal 0 0 0
  outer loop
  vertex -0.00565535901 -0.00910842139 0.0122251092
  vertex -0.00489793066 -0.0095697958 0.00234504347
  vertex -0.00192278391 -0.0102908378 0.0119891306
  endloop
 endfacet

 facet normal 0 0 0
  outer loop
  vertex 0.000897720165 -0.00845656171 0.0145948064
  vertex 0.00397620536 -0.00945569482 0.013618988
  vertex 0.0053027235 -0.00647666305 0.0146015324
  endloop
 endfacet

 facet normal 0 0 0
  outer loop
  vertex 0.000897720165 -0.00845656171 0.0145948064
  vertex 0.0053027235 -0.00647666305 0.0146015324
  vertex -0.000988660264 0.00459579285 0.01506266
  endloop
 endfacet

 facet normal 0 0 0
  outer loop
  vertex 0.000897720165 -0.00845656171 0.0145948064
  vertex -0.000988660264 0.00459579285 0.01506266
  vertex -0.00580606796 -0.0077697956 0.0134763019
  endloop
 endfacet

 facet normal 0 0 0
  outer loop
  vertex 0.000897720165 -0.00845656171 0.0145948064
  vertex -0.00580606796 -0.0077697956 0.0134763019
  vertex -0.00565535901 -0.00910842139 0.0122251092
  endloop
 endfacet

 facet normal 0 0 0
  outer loop
  vertex 0.000897720165 -0.00845656171 0.0145948064
  vertex -0.00565535901 -0.00910842139 0.0122251092
  vertex -0.00192278391 -0.0102908378 0.0119891306
  endloop
 endfacet

 facet normal 0 0 0
  outer loop
  vertex 0.000897720165 -0.00845656171 0.0145948064
  vertex -0.00192278391 -0.0102908378 0.0119891306
  vertex 0.00397620536 -0.00945569482 0.013618988
  endloop
 endfacet

 facet normal 0 0 0
  outer loop
  vertex -0.00554944342 0.028405901 0.0139801251
  vertex -0.00420772517 0.025647575 0.0146240173
  vertex 0.000342173764 0.0348697752 0.0132831242
  endloop
 endfacet

 facet normal 0 0 0
  outer loop
  vertex -0.00554944342 0.028405901 0.0139801251
  vertex 0.000342173764 0.0348697752 0.0132831242
  vertex -0.00700563053 0.0301648248 0.0117905661
  endloop
 endfacet

 facet normal 0 0 0
  outer loop
  vertex -0.00554944342 0.028405901 0.0139801251
  vertex -0.00700563053 0.0301648248 0.0117905661
  vertex -0.0076780417 0.026291512 0.0129682552
  endloop
 endfacet

 facet normal 0 0 0
  outer loop
  vertex -0.00768121704 -0.00632062741 0.0118226446
  vertex -0.00580606796 -0.0077697956 0.0134763019
  vertex -0.00819095783 0.0019820868 0.0122623332
  endloop
 endfacet

 facet normal 0 0 0
  outer loop
  vertex -0.00768121704 -0.00632062741 0.0118226446
  vertex -0.00819095783 0.0019820868 0.0122623332
  vertex -0.00938339811 0.0014841269 0.00881865621
  endloop
 endfacet

 facet normal 0 0 0
  outer loop
  vertex -0.00768121704 -0.00632062741 0.0118226446
  vertex -0.00938339811 0.0014841269 0.00881865621
  vertex -0.00843180623 -0.00741974637 0.00789718516
  endloop
 endfacet

 facet normal 0 0 0
  outer loop
  vertex -0.00768121704 -0.00632062741 0.0118226446
  vertex -0.00843180623 -0.00741974637 0.00789718516
  vertex -0.00565535901 -0.00910842139 0.0122251092
  endloop
 endfacet

 facet normal 0 0 0
  outer loop
  vertex -0.00768121704 -0.00632062741 0.0118226446
  vertex -0.00565535901 -0.00910842139 0.0122251092
  vertex -0.00580606796 -0.0077697956 0.0134763019
  endloop
 endfacet

 facet normal 0 0 0
  outer loop
  vertex -0.00857160892 0.0283410214 0.0103255818
  vertex -0.00700563053 0.0301648248 0.0117905661
  vertex -0.0079674786 0.030173935 0.00700000022
  endloop
 endfacet

 facet normal 0 0 0
  outer loop
  vertex -0.00857160892 0.0283410214 0.0103255818
  vertex -0.0079674786 0.030173935 0.00700000022
  vertex -0.00928010046 0.0266931374 0.0056311572
  endloop
 endfacet

 facet normal 0 0 0
  outer loop
  vertex -0.00857160892 0.0283410214 0.0103255818
  vertex -0.00928010046 0.0266931374 0.0056311572
  vertex -0.00938339811 0.0014841269 0.00881865621
  endloop
 endfacet

 facet normal 0 0 0
  outer loop
  vertex -0.00938339811 0.0014841269 0.00881865621
  vertex -0.00819095783 0.0019820868 0.0122623332
  vertex -0.0076780417 0.026291512 0.0129682552
  endloop
 endfacet

 facet normal 0 0 0
  outer loop
  vertex -0.00938339811 0.0014841269 0.00881865621
  vertex -0.0076780417 0.026291512 0.0129682552
  vertex -0.00857160892 0.0283410214 0.0103255818
  endloop
 endfacet

 facet normal 0 0 0
  outer loop
  vertex -0.00857160892 0.0283410214 0.0103255818
  vertex -0.0076780417 0.026291512 0.0129682552
  vertex -0.00700563053 0.0301648248 0.0117905661
  endloop
 endfacet

 facet normal 0 0 0
  outer loop
  vertex 0.00436081784 -0.00978240743 0.00250000018
  vertex -0.000302096276 -0.010438635 0.00250000018
  vertex 0.00108928117 -0.00969768316 0.000133594745
  endloop
 endfacet

 facet normal 0 0 0
  outer loop
  vertex 0.00436081784 -0.00978240743 0.00250000018
  vertex 0.00108928117 -0.00969768316 0.000133594745
  vertex 0.00567789795 -0.00855993386 0.000198762631
  endloop
 endfacet

 facet normal 0 0 0
  outer loop
  vertex 0.00436081784 -0.00978240743 0.00250000018
  vertex 0.00567789795 -0.00855993386 0.000198762631
  vertex 0.00912729558 -0.00652170181 0.00214801705
  endloop
 endfacet

 facet normal 0 0 0
  outer loop
  vertex 0.00436081784 -0.00978240743 0.00250000018
  vertex 0.00912729558 -0.00652170181 0.00214801705
  vertex 0.00885932613 -0.00691166706 0.011500001
  endloop
 endfacet

 facet normal 0 0 0
  outer loop
  vertex 0.00436081784 -0.00978240743 0.00250000018
  vertex 0.00885932613 -0.00691166706 0.011500001
  vertex 0.00397620536 -0.00945569482 0.013618988
  endloop
 endfacet

endsolid AssimpScene
