solid AssimpScene
 facet normal 0 0 0
  outer loop
  vertex -0.0072009447 -0.00833199825 0.00314457272
  vertex -0.00458379323 -0.00894225296 0.000518504414
  vertex -0.000302043831 -0.010438635 0.00250000902
  endloop
 endfacet

 facet normal 0 0 0
  outer loop
  vertex -0.0072009447 -0.00833199825 0.00314457272
  vertex -0.000302043831 -0.010438635 0.00250000902
  vertex -0.00192273222 -0.0102908472 0.011989139
  endloop
 endfacet

 facet normal 0 0 0
  outer loop
  vertex -0.0072009447 -0.00833199825 0.00314457272
  vertex -0.00192273222 -0.0102908472 0.011989139
  vertex -0.00523261772 -0.00932047423 0.0123169143
  endloop
 endfacet

 facet normal 0 0 0
  outer loop
  vertex 0.00078361691 0.0352317356 0.0131197711
  vertex 0.00301269046 0.035874676 0.00122542249
  vertex -0.00700579211 0.0301647875 0.00220944197
  endloop
 endfacet

 facet normal 0 0 0
  outer loop
  vertex 0.00078361691 0.0352317356 0.0131197711
  vertex -0.00700579211 0.0301647875 0.00220944197
  vertex -0.00795932394 0.0300882943 0.00867808145
  endloop
 endfacet

 facet normal 0 0 0
  outer loop
  vertex 0.00493007805 -0.00888141152 9.20401508e-05
  vertex 0.00452880003 -0.00941650942 0.0132652968
  vertex -0.000302043831 -0.010438635 0.00250000902
  endloop
 endfacet

 facet normal 0 0 0
  outer loop
  vertex 0.00596377905 0.0328716896 0.000781143433
  vertex 0.00561063783 0.0339883789 0.0132327899
  vertex 0.0112523492 0.00976841711 0.00682006544
  endloop
 endfacet

 facet normal 0 0 0
  outer loop
  vertex 0.00892314967 -0.00684078643 0.00250000902
  vertex 0.00885935873 -0.0069116191 0.0115000103
  vertex 0.00452880003 -0.00941650942 0.0132652968
  endloop
 endfacet

 facet normal 0 0 0
  outer loop
  vertex 0.00892314967 -0.00684078643 0.00250000902
  vertex 0.00452880003 -0.00941650942 0.0132652968
  vertex 0.00493007805 -0.00888141152 9.20401508e-05
  endloop
 endfacet

 facet normal 0 0 0
  outer loop
  vertex -0.00192273222 -0.0102908472 0.011989139
  vertex -0.000302043831 -0.010438635 0.00250000902
  vertex 0.00452880003 -0.00941650942 0.0132652968
  endloop
 endfacet

 facet normal 0 0 0
  outer loop
  vertex -0.00658654748 0.0300997123 0.0124143092
  vertex 0.00078361691 0.0352317356 0.0131197711
  vertex -0.00795932394 0.0300882943 0.00867808145
  endloop
 endfacet

 facet normal 0 0 0
  outer loop
  vertex -0.00932814181 0.0267053004 0.00700000906
  vertex -0.00795932394 0.0300882943 0.00867808145
  vertex -0.00700579211 0.0301647875 0.00220944197
  endloop
 endfacet

 facet normal 0 0 0
  outer loop
  vertex -0.00932814181 0.0267053004 0.00700000906
  vertex -0.00700579211 0.0301647875 0.00220944197
  vertex -0.0080046514 0.0263713412 0.00143723364
  endloop
 endfacet

 facet normal 0 0 0
  outer loop
  vertex 0.00362115819 0.0358104669 0.0127770994
  vertex 0.00301269046 0.035874676 0.00122542249
  vertex 0.00078361691 0.0352317356 0.0131197711
  endloop
 endfacet

 facet normal 0 0 0
  outer loop
  vertex 0.000489852449 0.0341928415 3.58897778e-05
  vertex -0.00700579211 0.0301647875 0.00220944197
  vertex 0.00301269046 0.035874676 0.00122542249
  endloop
 endfacet

 facet normal 0 0 0
  outer loop
  vertex -0.00310264505 0.0255915523 0.0147031676
  vertex -0.00712229265 0.0261597168 0.013491191
  vertex -0.00533302967 -0.00809588935 0.0136657422
  endloop
 endfacet

 facet normal 0 0 0
  outer loop
  vertex -0.00310264505 0.0255915523 0.0147031676
  vertex -0.00533302967 -0.00809588935 0.0136657422
  vertex 0.000466637342 0.00501491921 0.0150431553
  endloop
 endfacet

 facet normal 0 0 0
  outer loop
  vertex -0.0064995843 0.00267269951 0.000122574958
  vertex -0.00382225518 0.0256163608 -0.000665901811
  vertex 0.000748677645 -0.00748980278 -0.000793783111
  endloop
 endfacet

 facet normal 0 0 0
  outer loop
  vertex -0.0064995843 0.00267269951 0.000122574958
  vertex 0.000748677645 -0.00748980278 -0.000793783111
  vertex -0.00458379323 -0.00894225296 0.000518504414
  endloop
 endfacet

 facet normal 0 0 0
  outer loop
  vertex -0.0064995843 0.00267269951 0.000122574958
  vertex -0.00458379323 -0.00894225296 0.000518504414
  vertex -0.00771943806 -0.00679652579 0.00246146903
  endloop
 endfacet

 facet normal 0 0 0
  outer loop
  vertex -0.00924705248 0.0015399846 0.00436654128
  vertex -0.00924705248 0.0015399846 0.00963347778
  vertex -0.00932814181 0.0267053004 0.00700000906
  endloop
 endfacet

 facet normal 0 0 0
  outer loop
  vertex -0.00924705248 0.0015399846 0.00436654128
  vertex -0.00932814181 0.0267053004 0.00700000906
  vertex -0.0080046514 0.0263713412 0.00143723364
  endloop
 endfacet

 facet normal 0 0 0
  outer loop
  vertex -0.0080046514 0.0263713412 0.00143723364
  vertex -0.0064995843 0.00267269951 0.000122574958
  vertex -0.00771943806 -0.00679652579 0.00246146903
  endloop
 endfacet

 facet normal 0 0 0
  outer loop
  vertex -0.0080046514 0.0263713412 0.00143723364
  vertex -0.00771943806 -0.00679652579 0.00246146903
  vertex -0.00924705248 0.0015399846 0.00436654128
  endloop
 endfacet

 facet normal 0 0 0
  outer loop
  vertex -0.00924705248 0.0015399846 0.00436654128
  vertex -0.00771943806 -0.00679652579 0.00246146903
  vertex -0.00824083574 -0.00756901084 0.00887406711
  endloop
 endfacet

 facet normal 0 0 0
  outer loop
  vertex -0.00924705248 0.0015399846 0.00436654128
  vertex -0.00824083574 -0.00756901084 0.00887406711
  vertex -0.00924705248 0.0015399846 0.00963347778
  endloop
 endfacet

 facet normal 0 0 0
  outer loop
  vertex 0.00522502512 0.034976732 0.00136512867
  vertex 0.00561063783 0.0339883789 0.0132327899
  vertex 0.00596377905 0.0328716896 0.000781143433
  endloop
 endfacet

 facet normal 0 0 0
  outer loop
  vertex 0.00596377905 0.0328716896 0.000781143433
  vertex 0.000489852449 0.0341928415 3.58897778e-05
  vertex 0.00301269046 0.035874676 0.00122542249
  endloop
 endfacet

 facet normal 0 0 0
  outer loop
  vertex 0.00596377905 0.0328716896 0.000781143433
  vertex 0.00301269046 0.035874676 0.00122542249
  vertex 0.00522502512 0.034976732 0.00136512867
  endloop
 endfacet

 facet normal 0 0 0
  outer loop
  vertex 0.00522502512 0.034976732 0.00136512867
  vertex 0.00301269046 0.035874676 0.00122542249
  vertex 0.00362115819 0.0358104669 0.0127770994
  endloop
 endfacet

 facet normal 0 0 0
  outer loop
  vertex 0.00522502512 0.034976732 0.00136512867
  vertex 0.00362115819 0.0358104669 0.0127770994
  vertex 0.00561063783 0.0339883789 0.0132327899
  endloop
 endfacet

 facet normal 0 0 0
  outer loop
  vertex 0.0109842587 -0.0027444642 0.00250000902
  vertex 0.0112523492 0.00976841711 0.00682006544
  vertex 0.0104500949 -0.00289438176 0.0122871967
  endloop
 endfacet

 facet normal 0 0 0
  outer loop
  vertex 0.0109842587 -0.0027444642 0.00250000902
  vertex 0.0104500949 -0.00289438176 0.0122871967
  vertex 0.00885935873 -0.0069116191 0.0115000103
  endloop
 endfacet

 facet normal 0 0 0
  outer loop
  vertex 0.0109842587 -0.0027444642 0.00250000902
  vertex 0.00885935873 -0.0069116191 0.0115000103
  vertex 0.00892314967 -0.00684078643 0.00250000902
  endloop
 endfacet

 facet normal 0 0 0
  outer loop
  vertex 0.0109842587 -0.0027444642 0.00250000902
  vertex 0.00892314967 -0.00684078643 0.00250000902
  vertex 0.00994720217 -0.00343925296 0.0012259715
  endloop
 endfacet

 facet normal 0 0 0
  outer loop
  vertex -0.00777000003 0.00215725577 0.0128090614
  vertex -0.00533302967 -0.00809588935 0.0136657422
  vertex -0.00712229265 0.0261597168 0.013491191
  endloop
 endfacet

 facet normal 0 0 0
  outer loop
  vertex 0.00239985762 -0.00895848125 0.0144378617
  vertex 0.00530275516 -0.00647663418 0.0146015408
  vertex 0.000466637342 0.00501491921 0.0150431553
  endloop
 endfacet

 facet normal 0 0 0
  outer loop
  vertex 0.00239985762 -0.00895848125 0.0144378617
  vertex 0.000466637342 0.00501491921 0.0150431553
  vertex -0.00533302967 -0.00809588935 0.0136657422
  endloop
 endfacet

 facet normal 0 0 0
  outer loop
  vertex 0.00239985762 -0.00895848125 0.0144378617
  vertex -0.00533302967 -0.00809588935 0.0136657422
  vertex -0.00523261772 -0.00932047423 0.0123169143
  endloop
 endfacet

 facet normal 0 0 0
  outer loop
  vertex 0.00239985762 -0.00895848125 0.0144378617
  vertex -0.00523261772 -0.00932047423 0.0123169143
  vertex -0.00192273222 -0.0102908472 0.011989139
  endloop
 endfacet

 facet normal 0 0 0
  outer loop
  vertex 0.00239985762 -0.00895848125 0.0144378617
  vertex -0.00192273222 -0.0102908472 0.011989139
  vertex 0.00452880003 -0.00941650942 0.0132652968
  endloop
 endfacet

 facet normal 0 0 0
  outer loop
  vertex 0.0106959632 0.00964131113 0.0105052562
  vertex 0.0104500949 -0.00289438176 0.0122871967
  vertex 0.0112523492 0.00976841711 0.00682006544
  endloop
 endfacet

 facet normal 0 0 0
  outer loop
  vertex 0.0106959632 0.00964131113 0.0105052562
  vertex 0.0112523492 0.00976841711 0.00682006544
  vertex 0.00561063783 0.0339883789 0.0132327899
  endloop
 endfacet

 facet normal 0 0 0
  outer loop
  vertex 0.0106959632 0.00964131113 0.0105052562
  vertex 0.00561063783 0.0339883789 0.0132327899
  vertex 0.0104500949 -0.00289438176 0.0122871967
  endloop
 endfacet

 facet normal 0 0 0
  outer loop
  vertex 0.00498383166 0.00611369452 -0.000634580036
  vertex 0.000748677645 -0.00748980278 -0.000793783111
  vertex -0.00382225518 0.0256163608 -0.000665901811
  endloop
 endfacet

 facet normal 0 0 0
  outer loop
  vertex 0.00498383166 0.00611369452 -0.000634580036
  vertex -0.00382225518 0.0256163608 -0.000665901811
  vertex 0.000489852449 0.0341928415 3.58897778e-05
  endloop
 endfacet

 facet normal 0 0 0
  outer loop
  vertex 0.00498383166 0.00611369452 -0.000634580036
  vertex 0.000489852449 0.0341928415 3.58897778e-05
  vertex 0.00596377905 0.0328716896 0.000781143433
  endloop
 endfacet

 facet normal 0 0 0
  outer loop
  vertex 0.00838231482 -0.00635029608 0.0133919641
  vertex 0.0104500949 -0.00289438176 0.0122871967
  vertex 0.00561063783 0.0339883789 0.0132327899
  endloop
 endfacet

 facet normal 0 0 0
  outer loop
  vertex 0.00838231482 -0.00635029608 0.0133919641
  vertex 0.00561063783 0.0339883789 0.0132327899
  vertex 0.00530275516 -0.00647663418 0.0146015408
  endloop
 endfacet

 facet normal 0 0 0
  outer loop
  vertex 0.00838231482 -0.00635029608 0.0133919641
  vertex 0.00530275516 -0.00647663418 0.0146015408
  vertex 0.00239985762 -0.00895848125 0.0144378617
  endloop
 endfacet

 facet normal 0 0 0
  outer loop
  vertex 0.00838231482 -0.00635029608 0.0133919641
  vertex 0.00239985762 -0.00895848125 0.0144378617
  vertex 0.00452880003 -0.00941650942 0.0132652968
  endloop
 endfacet

 facet normal 0 0 0
  outer loop
  vertex 0.00838231482 -0.00635029608 0.0133919641
  vertex 0.00452880003 -0.00941650942 0.0132652968
  vertex 0.00885935873 -0.0069116191 0.0115000103
  endloop
 endfacet

 facet normal 0 0 0
  outer loop
  vertex 0.00838231482 -0.00635029608 0.0133919641
  vertex 0.00885935873 -0.0069116191 0.0115000103
  vertex 0.0104500949 -0.00289438176 0.0122871967
  endloop
 endfacet

 facet normal 0 0 0
  outer loop
  vertex -0.00605194876 0.0284436811 0.00025307326
  vertex -0.0080046514 0.0263713412 0.00143723364
  vertex -0.00700579211 0.0301647875 0.00220944197
  endloop
 endfacet

 facet normal 0 0 0
  outer loop
  vertex -0.00605194876 0.0284436811 0.00025307326
  vertex -0.00700579211 0.0301647875 0.00220944197
  vertex 0.000489852449 0.0341928415 3.58897778e-05
  endloop
 endfacet

 facet normal 0 0 0
  outer loop
  vertex -0.00605194876 0.0284436811 0.00025307326
  vertex 0.000489852449 0.0341928415 3.58897778e-05
  vertex -0.00382225518 0.0256163608 -0.000665901811
  endloop
 endfacet

 facet normal 0 0 0
  outer loop
  vertex -0.00605194876 0.0284436811 0.00025307326
  vertex -0.00382225518 0.0256163608 -0.000665901811
  vertex -0.0064995843 0.00267269951 0.000122574958
  endloop
 endfacet

 facet normal 0 0 0
  outer loop
  vertex -0.00605194876 0.0284436811 0.00025307326
  vertex -0.0064995843 0.00267269951 0.000122574958
  vertex -0.0080046514 0.0263713412 0.00143723364
  endloop
 endfacet

 facet normal 0 0 0
  outer loop
  vertex -0.00768118631 -0.00632066699 0.0118226539
  vertex -0.00533302967 -0.00809588935 0.0136657422
  vertex -0.00777000003 0.00215725577 0.0128090614
  endloop
 endfacet

 facet normal 0 0 0
  outer loop
  vertex -0.00768118631 -0.00632066699 0.0118226539
  vertex -0.00777000003 0.00215725577 0.0128090614
  vertex -0.00924705248 0.0015399846 0.00963347778
  endloop
 endfacet

 facet normal 0 0 0
  outer loop
  vertex -0.00768118631 -0.00632066699 0.0118226539
  vertex -0.00924705248 0.0015399846 0.00963347778
  vertex -0.00824083574 -0.00756901084 0.00887406711
  endloop
 endfacet

 facet normal 0 0 0
  outer loop
  vertex -0.00868776534 0.026542414 0.0112802191
  vertex -0.00795932394 0.0300882943 0.00867808145
  vertex -0.00932814181 0.0267053004 0.00700000906
  endloop
 endfacet

 facet normal 0 0 0
  outer loop
  vertex -0.00868776534 0.026542414 0.0112802191
  vertex -0.00932814181 0.0267053004 0.00700000906
  vertex -0.00924705248 0.0015399846 0.00963347778
  endloop
 endfacet

 facet normal 0 0 0
  outer loop
  vertex -0.00868776534 0.026542414 0.0112802191
  vertex -0.00924705248 0.0015399846 0.00963347778
  vertex -0.00777000003 0.00215725577 0.0128090614
  endloop
 endfacet

 facet normal 0 0 0
  outer loop
  vertex -0.00868776534 0.026542414 0.0112802191
  vertex -0.00777000003 0.00215725577 0.0128090614
  vertex -0.00712229265 0.0261597168 0.013491191
  endloop
 endfacet

 facet normal 0 0 0
  outer loop
  vertex -0.00868776534 0.026542414 0.0112802191
  vertex -0.00712229265 0.0261597168 0.013491191
  vertex -0.00658654748 0.0300997123 0.0124143092
  endloop
 endfacet

 facet normal 0 0 0
  outer loop
  vertex -0.00868776534 0.026542414 0.0112802191
  vertex -0.00658654748 0.0300997123 0.0124143092
  vertex -0.00795932394 0.0300882943 0.00867808145
  endloop
 endfacet

 facet normal 0 0 0
  outer loop
  vertex -0.0072009447 -0.00833199825 0.00314457272
  vertex -0.00771943806 -0.00679652579 0.00246146903
  vertex -0.00458379323 -0.00894225296 0.000518504414
  endloop
 endfacet

 facet normal 0 0 0
  outer loop
  vertex -0.0072009447 -0.00833199825 0.00314457272
  vertex -0.00824083574 -0.00756901084 0.00887406711
  vertex -0.00771943806 -0.00679652579 0.00246146903
  endloop
 endfacet

 facet normal 0 0 0
  outer loop
  vertex -0.00523261772 -0.00932047423 0.0123169143
  vertex -0.00824083574 -0.00756901084 0.00887406711
  vertex -0.0072009447 -0.00833199825 0.00314457272
  endloop
 endfacet

 facet normal 0 0 0
  outer loop
  vertex -0.00523261772 -0.00932047423 0.0123169143
  vertex -0.00533302967 -0.00809588935 0.0136657422
  vertex -0.00768118631 -0.00632066699 0.0118226539
  endloop
 endfacet

 facet normal 0 0 0
  outer loop
  vertex -0.00523261772 -0.00932047423 0.0123169143
  vertex -0.00768118631 -0.00632066699 0.0118226539
  vertex -0.00824083574 -0.00756901084 0.00887406711
  endloop
 endfacet

 facet normal 0 0 0
  outer loop
  vertex 0.0106959632 0.00964131113 0.00349476212
  vertex 0.0112523492 0.00976841711 0.00682006544
  vertex 0.0109842587 -0.0027444642 0.00250000902
  endloop
 endfacet

 facet normal 0 0 0
  outer loop
  vertex 0.0106959632 0.00964131113 0.00349476212
  vertex 0.0109842587 -0.0027444642 0.00250000902
  vertex 0.00994720217 -0.00343925296 0.0012259715
  endloop
 endfacet

 facet normal 0 0 0
  outer loop
  vertex 0.0106959632 0.00964131113 0.00349476212
  vertex 0.00994720217 -0.00343925296 0.0012259715
  vertex 0.00596377905 0.0328716896 0.000781143433
  endloop
 endfacet

 facet normal 0 0 0
  outer loop
  vertex 0.0106959632 0.00964131113 0.00349476212
  vertex 0.00596377905 0.0328716896 0.000781143433
  vertex 0.0112523492 0.00976841711 0.00682006544
  endloop
 endfacet

 facet normal 0 0 0
  outer loop
  vertex -0.00032386533 -0.00991800148 0.000479643524
  vertex -0.000302043831 -0.010438635 0.00250000902
  vertex -0.00458379323 -0.00894225296 0.000518504414
  endloop
 endfacet

 facet normal 0 0 0
  outer loop
  vertex -0.00032386533 -0.00991800148 0.000479643524
  vertex -0.00458379323 -0.00894225296 0.000518504414
  vertex 0.000748677645 -0.00748980278 -0.000793783111
  endloop
 endfacet

 facet normal 0 0 0
  outer loop
  vertex -0.00032386533 -0.00991800148 0.000479643524
  vertex 0.000748677645 -0.00748980278 -0.000793783111
  vertex 0.00493007805 -0.00888141152 9.20401508e-05
  endloop
 endfacet

 facet normal 0 0 0
  outer loop
  vertex -0.00032386533 -0.00991800148 0.000479643524
  vertex 0.00493007805 -0.00888141152 9.20401508e-05
  vertex -0.000302043831 -0.010438635 0.00250000902
  endloop
 endfacet

 facet normal 0 0 0
  outer loop
  vertex 0.00129249564 0.0346294828 0.0139430948
  vertex 0.00078361691 0.0352317356 0.0131197711
  vertex -0.00658654748 0.0300997123 0.0124143092
  endloop
 endfacet

 facet normal 0 0 0
  outer loop
  vertex 0.00129249564 0.0346294828 0.0139430948
  vertex -0.00658654748 0.0300997123 0.0124143092
  vertex -0.00712229265 0.0261597168 0.013491191
  endloop
 endfacet

 facet normal 0 0 0
  outer loop
  vertex 0.00129249564 0.0346294828 0.0139430948
  vertex -0.00712229265 0.0261597168 0.013491191
  vertex -0.00310264505 0.0255915523 0.0147031676
  endloop
 endfacet

 facet normal 0 0 0
  outer loop
  vertex 0.00129249564 0.0346294828 0.0139430948
  vertex -0.00310264505 0.0255915523 0.0147031676
  vertex 0.000466637342 0.00501491921 0.0150431553
  endloop
 endfacet

 facet normal 0 0 0
  outer loop
  vertex 0.00129249564 0.0346294828 0.0139430948
  vertex 0.000466637342 0.00501491921 0.0150431553
  vertex 0.00530275516 -0.00647663418 0.0146015408
  endloop
 endfacet

 facet normal 0 0 0
  outer loop
  vertex 0.00129249564 0.0346294828 0.0139430948
  vertex 0.00530275516 -0.00647663418 0.0146015408
  vertex 0.00561063783 0.0339883789 0.0132327899
  endloop
 endfacet

 facet normal 0 0 0
  outer loop
  vertex 0.00129249564 0.0346294828 0.0139430948
  vertex 0.00561063783 0.0339883789 0.0132327899
  vertex 0.00362115819 0.0358104669 0.0127770994
  endloop
 endfacet

 facet normal 0 0 0
  outer loop
  vertex 0.00129249564 0.0346294828 0.0139430948
  vertex 0.00362115819 0.0358104669 0.0127770994
  vertex 0.00078361691 0.0352317356 0.0131197711
  endloop
 endfacet

 facet normal 0 0 0
  outer loop
  vertex 0.00675732922 -0.00579227181 -0.000301636435
  vertex 0.00493007805 -0.00888141152 9.20401508e-05
  vertex 0.000748677645 -0.00748980278 -0.000793783111
  endloop
 endfacet

 facet normal 0 0 0
  outer loop
  vertex 0.00675732922 -0.00579227181 -0.000301636435
  vertex 0.000748677645 -0.00748980278 -0.000793783111
  vertex 0.00498383166 0.00611369452 -0.000634580036
  endloop
 endfacet

 facet normal 0 0 0
  outer loop
  vertex 0.00675732922 -0.00579227181 -0.000301636435
  vertex 0.00498383166 0.00611369452 -0.000634580036
  vertex 0.00596377905 0.0328716896 0.000781143433
  endloop
 endfacet

 facet normal 0 0 0
  outer loop
  vertex 0.00675732922 -0.00579227181 -0.000301636435
  vertex 0.00596377905 0.0328716896 0.000781143433
  vertex 0.00994720217 -0.00343925296 0.0012259715
  endloop
 endfacet

 facet normal 0 0 0
  outer loop
  vertex 0.00675732922 -0.00579227181 -0.000301636435
  vertex 0.00994720217 -0.00343925296 0.0012259715
  vertex 0.00892314967 -0.00684078643 0.00250000902
  endloop
 endfacet

 facet normal 0 0 0
  outer loop
  vertex 0.00675732922 -0.00579227181 -0.000301636435
  vertex 0.00892314967 -0.00684078643 0.00250000902
  vertex 0.00493007805 -0.00888141152 9.20401508e-05
  endloop
 endfacet

endsolid AssimpScene
