solid AssimpScene
 facet normal 0 0 0
  outer loop
  vertex -0.016272841 0.0237532146 0.00160539348
  vertex -0.0199407022 0.0227721035 0.000872768636
  vertex -0.0212650225 0.0237935185 0.00446897931
  endloop
 endfacet

 facet normal 0 0 0
  outer loop
  vertex -0.016272841 0.0237532146 0.00160539348
  vertex -0.0212650225 0.0237935185 0.00446897931
  vertex -0.0169708375 0.0253615063 0.00680038333
  endloop
 endfacet

 facet normal 0 0 0
  outer loop
  vertex -0.0205958411 0.0240325183 0.0108130965
  vertex -0.0169708375 0.0253615063 0.00680038333
  vertex -0.0212650225 0.0237935185 0.00446897931
  endloop
 endfacet

 facet normal 0 0 0
  outer loop
  vertex -0.016272841 0.0237532146 0.00160539348
  vertex -0.00984906591 0.0192888211 0.00120804529
  vertex -0.0177438874 0.0190932266 -0.000641940918
  endloop
 endfacet

 facet normal 0 0 0
  outer loop
  vertex -0.00591865089 0.0165453535 0.00772878295
  vertex 0.00299954135 -5.65111295e-05 0.0111497594
  vertex 0.00287012686 0.000873144367 0.0024499998
  endloop
 endfacet

 facet normal 0 0 0
  outer loop
  vertex -0.0199407022 0.0227721035 0.000872768636
  vertex -0.016272841 0.0237532146 0.00160539348
  vertex -0.0177438874 0.0190932266 -0.000641940918
  endloop
 endfacet

 facet normal 0 0 0
  outer loop
  vertex -0.0117957005 -0.00502186967 0.0130145214
  vertex -0.0122677637 -0.00629102346 0.00948456582
  vertex -0.00372440298 -0.00829468109 0.0111498712
  endloop
 endfacet

 facet normal 0 0 0
  outer loop
  vertex -0.0117957005 -0.00502186967 0.0130145214
  vertex -0.00372440298 -0.00829468109 0.0111498712
  vertex -0.00902521983 -0.00237201131 0.01477174
  endloop
 endfacet

 facet normal 0 0 0
  outer loop
  vertex -0.0117957005 -0.00502186967 0.0130145214
  vertex -0.00902521983 -0.00237201131 0.01477174
  vertex -0.0188833904 0.0207372755 0.0138441613
  endloop
 endfacet

 facet normal 0 0 0
  outer loop
  vertex -0.0117957005 -0.00502186967 0.0130145214
  vertex -0.0188833904 0.0207372755 0.0138441613
  vertex -0.0138529884 -0.00135402521 0.0121496683
  endloop
 endfacet

 facet normal 0 0 0
  outer loop
  vertex -0.0151010808 0.0241241027 0.0112024518
  vertex -0.0169708375 0.0253615063 0.00680038333
  vertex -0.0205958411 0.0240325183 0.0108130965
  endloop
 endfacet

 facet normal 0 0 0
  outer loop
  vertex -0.0151010808 0.0241241027 0.0112024518
  vertex -0.0205958411 0.0240325183 0.0108130965
  vertex -0.0188833904 0.0207372755 0.0138441613
  endloop
 endfacet

 facet normal 0 0 0
  outer loop
  vertex -0.0151010808 0.0241241027 0.0112024518
  vertex -0.0188833904 0.0207372755 0.0138441613
  vertex -0.0114836264 0.020956926 0.0122188935
  endloop
 endfacet

 facet normal 0 0 0
  outer loop
  vertex -0.00877070613 -0.00271310378 -0.00110829726
  vertex -0.0116906753 -0.00455609569 0.000213518884
  vertex -0.0177438874 0.0190932266 -0.000641940918
  endloop
 endfacet

 facet normal 0 0 0
  outer loop
  vertex -0.00877070613 -0.00271310378 -0.00110829726
  vertex -0.0177438874 0.0190932266 -0.000641940918
  vertex -0.00560028618 0.00500014564 -0.00119873032
  endloop
 endfacet

 facet normal 0 0 0
  outer loop
  vertex -0.00877070613 -0.00271310378 -0.00110829726
  vertex -0.00265734666 -0.00806067511 0.0024499998
  vertex -0.0116906753 -0.00455609569 0.000213518884
  endloop
 endfacet

 facet normal 0 0 0
  outer loop
  vertex -0.0110689308 -0.00669086305 0.00324136834
  vertex -0.00265734666 -0.00806067511 0.0024499998
  vertex -0.00372440298 -0.00829468109 0.0111498712
  endloop
 endfacet

 facet normal 0 0 0
  outer loop
  vertex -0.0110689308 -0.00669086305 0.00324136834
  vertex -0.00372440298 -0.00829468109 0.0111498712
  vertex -0.0122677637 -0.00629102346 0.00948456582
  endloop
 endfacet

 facet normal 0 0 0
  outer loop
  vertex -0.0110689308 -0.00669086305 0.00324136834
  vertex -0.0116906753 -0.00455609569 0.000213518884
  vertex -0.00265734666 -0.00806067511 0.0024499998
  endloop
 endfacet

 facet normal 0 0 0
  outer loop
  vertex -0.0107250176 0.0217636283 0.00577012496
  vertex -0.014845551 0.0241491739 0.0028517379
  vertex -0.0169708375 0.0253615063 0.00680038333
  endloop
 endfacet

 facet normal 0 0 0
  outer loop
  vertex -0.0107250176 0.0217636283 0.00577012496
  vertex -0.0169708375 0.0253615063 0.00680038333
  vertex -0.0151010808 0.0241241027 0.0112024518
  endloop
 endfacet

 facet normal 0 0 0
  outer loop
  vertex -0.0107250176 0.0217636283 0.00577012496
  vertex -0.0151010808 0.0241241027 0.0112024518
  vertex -0.0114836264 0.020956926 0.0122188935
  endloop
 endfacet

 facet normal 0 0 0
  outer loop
  vertex -0.0107250176 0.0217636283 0.00577012496
  vertex -0.0114836264 0.020956926 0.0122188935
  vertex -0.00591865089 0.0165453535 0.00772878295
  endloop
 endfacet

 facet normal 0 0 0
  outer loop
  vertex -0.00144735922 -0.00712873694 0.011149833
  vertex 0.00299954135 -5.65111295e-05 0.0111497594
  vertex -0.00902521983 -0.00237201131 0.01477174
  endloop
 endfacet

 facet normal 0 0 0
  outer loop
  vertex -0.00144735922 -0.00712873694 0.011149833
  vertex -0.00902521983 -0.00237201131 0.01477174
  vertex -0.00372440298 -0.00829468109 0.0111498712
  endloop
 endfacet

 facet normal 0 0 0
  outer loop
  vertex -0.00144735922 -0.00712873694 0.011149833
  vertex -0.00372440298 -0.00829468109 0.0111498712
  vertex -0.00265734666 -0.00806067511 0.0024499998
  endloop
 endfacet

 facet normal 0 0 0
  outer loop
  vertex 0.00239340798 -0.00180875743 0.00244999956
  vertex 0.00287012686 0.000873144367 0.0024499998
  vertex 0.00299954135 -5.65111295e-05 0.0111497594
  endloop
 endfacet

 facet normal 0 0 0
  outer loop
  vertex 0.00239340798 -0.00180875743 0.00244999956
  vertex 0.00299954135 -5.65111295e-05 0.0111497594
  vertex -0.00144735922 -0.00712873694 0.011149833
  endloop
 endfacet

 facet normal 0 0 0
  outer loop
  vertex 0.00239340798 -0.00180875743 0.00244999956
  vertex -0.00144735922 -0.00712873694 0.011149833
  vertex -0.00265734666 -0.00806067511 0.0024499998
  endloop
 endfacet

 facet normal 0 0 0
  outer loop
  vertex 0.00239340798 -0.00180875743 0.00244999956
  vertex -0.00265734666 -0.00806067511 0.0024499998
  vertex -0.00877070613 -0.00271310378 -0.00110829726
  endloop
 endfacet

 facet normal 0 0 0
  outer loop
  vertex 0.00239340798 -0.00180875743 0.00244999956
  vertex -0.00877070613 -0.00271310378 -0.00110829726
  vertex -0.00560028618 0.00500014564 -0.00119873032
  endloop
 endfacet

 facet normal 0 0 0
  outer loop
  vertex 0.00239340798 -0.00180875743 0.00244999956
  vertex -0.00560028618 0.00500014564 -0.00119873032
  vertex 0.00287012686 0.000873144367 0.0024499998
  endloop
 endfacet

 facet normal 0 0 0
  outer loop
  vertex -0.00336488523 0.00706508523 -0.000277417217
  vertex 0.00287012686 0.000873144367 0.0024499998
  vertex -0.00560028618 0.00500014564 -0.00119873032
  endloop
 endfacet

 facet normal 0 0 0
  outer loop
  vertex -0.00336488523 0.00706508523 -0.000277417217
  vertex -0.00560028618 0.00500014564 -0.00119873032
  vertex -0.0177438874 0.0190932266 -0.000641940918
  endloop
 endfacet

 facet normal 0 0 0
  outer loop
  vertex -0.00336488523 0.00706508523 -0.000277417217
  vertex -0.0177438874 0.0190932266 -0.000641940918
  vertex -0.00984906591 0.0192888211 0.00120804529
  endloop
 endfacet

 facet normal 0 0 0
  outer loop
  vertex -0.0204491168 0.0210285448 0.0121467477
  vertex -0.0188833904 0.0207372755 0.0138441613
  vertex -0.0205958411 0.0240325183 0.0108130965
  endloop
 endfacet

 facet normal 0 0 0
  outer loop
  vertex -0.0204491168 0.0210285448 0.0121467477
  vertex -0.0205958411 0.0240325183 0.0108130965
  vertex -0.0212650225 0.0237935185 0.00446897931
  endloop
 endfacet

 facet normal 0 0 0
  outer loop
  vertex -0.0212650225 0.0237935185 0.00446897931
  vertex -0.013890354 -0.00409080647 0.00442531798
  vertex -0.0134315174 -0.00535265775 0.00942556839
  endloop
 endfacet

 facet normal 0 0 0
  outer loop
  vertex -0.0212650225 0.0237935185 0.00446897931
  vertex -0.0134315174 -0.00535265775 0.00942556839
  vertex -0.0204491168 0.0210285448 0.0121467477
  endloop
 endfacet

 facet normal 0 0 0
  outer loop
  vertex -0.0204491168 0.0210285448 0.0121467477
  vertex -0.0138529884 -0.00135402521 0.0121496683
  vertex -0.0188833904 0.0207372755 0.0138441613
  endloop
 endfacet

 facet normal 0 0 0
  outer loop
  vertex -0.00552812684 0.0140092224 0.0120614227
  vertex -0.00300844037 0.00720098475 0.0136016393
  vertex 0.00299954135 -5.65111295e-05 0.0111497594
  endloop
 endfacet

 facet normal 0 0 0
  outer loop
  vertex -0.00552812684 0.0140092224 0.0120614227
  vertex 0.00299954135 -5.65111295e-05 0.0111497594
  vertex -0.00591865089 0.0165453535 0.00772878295
  endloop
 endfacet

 facet normal 0 0 0
  outer loop
  vertex -0.00552812684 0.0140092224 0.0120614227
  vertex -0.00591865089 0.0165453535 0.00772878295
  vertex -0.0114836264 0.020956926 0.0122188935
  endloop
 endfacet

 facet normal 0 0 0
  outer loop
  vertex -0.00552812684 0.0140092224 0.0120614227
  vertex -0.0114836264 0.020956926 0.0122188935
  vertex -0.00300844037 0.00720098475 0.0136016393
  endloop
 endfacet

 facet normal 0 0 0
  outer loop
  vertex -0.00577491382 0.00484429253 0.0148258135
  vertex -0.0188833904 0.0207372755 0.0138441613
  vertex -0.00902521983 -0.00237201131 0.01477174
  endloop
 endfacet

 facet normal 0 0 0
  outer loop
  vertex -0.00577491382 0.00484429253 0.0148258135
  vertex -0.00902521983 -0.00237201131 0.01477174
  vertex 0.00299954135 -5.65111295e-05 0.0111497594
  endloop
 endfacet

 facet normal 0 0 0
  outer loop
  vertex -0.00577491382 0.00484429253 0.0148258135
  vertex 0.00299954135 -5.65111295e-05 0.0111497594
  vertex -0.00300844037 0.00720098475 0.0136016393
  endloop
 endfacet

 facet normal 0 0 0
  outer loop
  vertex -0.00577491382 0.00484429253 0.0148258135
  vertex -0.00300844037 0.00720098475 0.0136016393
  vertex -0.0114836264 0.020956926 0.0122188935
  endloop
 endfacet

 facet normal 0 0 0
  outer loop
  vertex -0.00577491382 0.00484429253 0.0148258135
  vertex -0.0114836264 0.020956926 0.0122188935
  vertex -0.0188833904 0.0207372755 0.0138441613
  endloop
 endfacet

 facet normal 0 0 0
  outer loop
  vertex -0.00555416802 0.0154357776 0.00337951561
  vertex -0.00984906591 0.0192888211 0.00120804529
  vertex -0.0107250176 0.0217636283 0.00577012496
  endloop
 endfacet

 facet normal 0 0 0
  outer loop
  vertex -0.00555416802 0.0154357776 0.00337951561
  vertex -0.0107250176 0.0217636283 0.00577012496
  vertex -0.00591865089 0.0165453535 0.00772878295
  endloop
 endfacet

 facet normal 0 0 0
  outer loop
  vertex -0.00555416802 0.0154357776 0.00337951561
  vertex -0.00591865089 0.0165453535 0.00772878295
  vertex 0.00287012686 0.000873144367 0.0024499998
  endloop
 endfacet

 facet normal 0 0 0
  outer loop
  vertex 0.00287012686 0.000873144367 0.0024499998
  vertex -0.00336488523 0.00706508523 -0.000277417217
  vertex -0.00984906591 0.0192888211 0.00120804529
  endloop
 endfacet

 facet normal 0 0 0
  outer loop
  vertex 0.00287012686 0.000873144367 0.0024499998
  vertex -0.00984906591 0.0192888211 0.00120804529
  vertex -0.00555416802 0.0154357776 0.00337951561
  endloop
 endfacet

 facet normal 0 0 0
  outer loop
  vertex -0.0193479061 0.0189298131 0.000184352888
  vertex -0.013890354 -0.00409080647 0.00442531798
  vertex -0.0212650225 0.0237935185 0.00446897931
  endloop
 endfacet

 facet normal 0 0 0
  outer loop
  vertex -0.0193479061 0.0189298131 0.000184352888
  vertex -0.0212650225 0.0237935185 0.00446897931
  vertex -0.0199407022 0.0227721035 0.000872768636
  endloop
 endfacet

 facet normal 0 0 0
  outer loop
  vertex -0.0193479061 0.0189298131 0.000184352888
  vertex -0.0199407022 0.0227721035 0.000872768636
  vertex -0.0177438874 0.0190932266 -0.000641940918
  endloop
 endfacet

 facet normal 0 0 0
  outer loop
  vertex -0.0193479061 0.0189298131 0.000184352888
  vertex -0.0177438874 0.0190932266 -0.000641940918
  vertex -0.0116906753 -0.00455609569 0.000213518884
  endloop
 endfacet

 facet normal 0 0 0
  outer loop
  vertex -0.014845551 0.0241491739 0.0028517379
  vertex -0.0107250176 0.0217636283 0.00577012496
  vertex -0.00984906591 0.0192888211 0.00120804529
  endloop
 endfacet

 facet normal 0 0 0
  outer loop
  vertex -0.014845551 0.0241491739 0.0028517379
  vertex -0.00984906591 0.0192888211 0.00120804529
  vertex -0.016272841 0.0237532146 0.00160539348
  endloop
 endfacet

 facet normal 0 0 0
  outer loop
  vertex -0.014845551 0.0241491739 0.0028517379
  vertex -0.016272841 0.0237532146 0.00160539348
  vertex -0.0169708375 0.0253615063 0.00680038333
  endloop
 endfacet

 facet normal 0 0 0
  outer loop
  vertex -0.0128168352 -0.00549535174 0.00240444648
  vertex -0.0116906753 -0.00455609569 0.000213518884
  vertex -0.0110689308 -0.00669086305 0.00324136834
  endloop
 endfacet

 facet normal 0 0 0
  outer loop
  vertex -0.0128168352 -0.00549535174 0.00240444648
  vertex -0.0110689308 -0.00669086305 0.00324136834
  vertex -0.0122677637 -0.00629102346 0.00948456582
  endloop
 endfacet

 facet normal 0 0 0
  outer loop
  vertex -0.0128168352 -0.00549535174 0.00240444648
  vertex -0.013890354 -0.00409080647 0.00442531798
  vertex -0.0193479061 0.0189298131 0.000184352888
  endloop
 endfacet

 facet normal 0 0 0
  outer loop
  vertex -0.0128168352 -0.00549535174 0.00240444648
  vertex -0.0193479061 0.0189298131 0.000184352888
  vertex -0.0116906753 -0.00455609569 0.000213518884
  endloop
 endfacet

 facet normal 0 0 0
  outer loop
  vertex -0.0134315174 -0.00535265775 0.00942556839
  vertex -0.0138529884 -0.00135402521 0.0121496683
  vertex -0.0204491168 0.0210285448 0.0121467477
  endloop
 endfacet

 facet normal 0 0 0
  outer loop
  vertex -0.0134315174 -0.00535265775 0.00942556839
  vertex -0.013890354 -0.00409080647 0.00442531798
  vertex -0.0128168352 -0.00549535174 0.00240444648
  endloop
 endfacet

 facet normal 0 0 0
  outer loop
  vertex -0.0134315174 -0.00535265775 0.00942556839
  vertex -0.0128168352 -0.00549535174 0.00240444648
  vertex -0.0122677637 -0.00629102346 0.00948456582
  endloop
 endfacet

 facet normal 0 0 0
  outer loop
  vertex -0.0134315174 -0.00535265775 0.00942556839
  vertex -0.0122677637 -0.00629102346 0.00948456582
  vertex -0.0117957005 -0.00502186967 0.0130145214
  endloop
 endfacet

 facet normal 0 0 0
  outer loop
  vertex -0.0134315174 -0.00535265775 0.00942556839
  vertex -0.0117957005 -0.00502186967 0.0130145214
  vertex -0.0138529884 -0.00135402521 0.0121496683
  endloop
 endfacet

endsolid AssimpScene
