solid AssimpScene
 facet normal 0 0 0
  outer loop
  vertex -0.00385530642 0.00510581722 0.0131378295
  vertex -0.00865749922 0.000921194034 0.0129754879
  vertex -0.00390764931 -0.00871816184 0.00959980488
  endloop
 endfacet

 facet normal 0 0 0
  outer loop
  vertex -0.00385530642 0.00510581722 0.0131378295
  vertex -0.00390764931 -0.00871816184 0.00959980488
  vertex -0.000893178338 -0.00776040507 0.00929980166
  endloop
 endfacet

 facet normal 0 0 0
  outer loop
  vertex -0.0111447889 0.000404627412 0.0101045193
  vertex -0.00953688193 0.00563050108 0.0123182349
  vertex -0.00828455109 0.0252746772 0.0109914178
  endloop
 endfacet

 facet normal 0 0 0
  outer loop
  vertex 0.00319201406 0.0431190431 0.0107645122
  vertex 0.00066287606 0.0407178253 0.0116059911
  vertex 0.00396522833 0.037522316 0.012508384
  endloop
 endfacet

 facet normal 0 0 0
  outer loop
  vertex -0.00385530642 0.00510581722 0.0131378295
  vertex 0.00282774935 -0.00100190635 0.00929979328
  vertex 0.00396522833 0.037522316 0.012508384
  endloop
 endfacet

 facet normal 0 0 0
  outer loop
  vertex -0.00865749922 0.000921194034 0.0129754879
  vertex -0.00953688193 0.00563050108 0.0123182349
  vertex -0.0111447889 0.000404627412 0.0101045193
  endloop
 endfacet

 facet normal 0 0 0
  outer loop
  vertex -0.000893178338 -0.00776040507 0.00929980166
  vertex 0.00282774935 -0.00100190635 0.00929979328
  vertex -0.00385530642 0.00510581722 0.0131378295
  endloop
 endfacet

 facet normal 0 0 0
  outer loop
  vertex -0.000893178338 -0.00776040507 0.00929980166
  vertex -0.00390764931 -0.00871816184 0.00959980488
  vertex -0.00376244076 -0.00903846044 0.00289978646
  endloop
 endfacet

 facet normal 0 0 0
  outer loop
  vertex -0.0076603014 -0.00642802659 0.00856759958
  vertex -0.00390764931 -0.00871816184 0.00959980488
  vertex -0.00865749922 0.000921194034 0.0129754879
  endloop
 endfacet

 facet normal 0 0 0
  outer loop
  vertex -0.0076603014 -0.00642802659 0.00856759958
  vertex -0.00865749922 0.000921194034 0.0129754879
  vertex -0.0111447889 0.000404627412 0.0101045193
  endloop
 endfacet

 facet normal 0 0 0
  outer loop
  vertex -0.0076603014 -0.00642802659 0.00856759958
  vertex -0.00766030373 -0.00642802799 0.00363199366
  vertex -0.00376244076 -0.00903846044 0.00289978646
  endloop
 endfacet

 facet normal 0 0 0
  outer loop
  vertex -0.0076603014 -0.00642802659 0.00856759958
  vertex -0.00376244076 -0.00903846044 0.00289978646
  vertex -0.00390764931 -0.00871816184 0.00959980488
  endloop
 endfacet

 facet normal 0 0 0
  outer loop
  vertex -0.00979758799 0.0226579439 0.00498692226
  vertex -0.0112789776 0.000704048318 0.00217747362
  vertex -0.0111447889 0.000404627412 0.0101045193
  endloop
 endfacet

 facet normal 0 0 0
  outer loop
  vertex -0.00979758799 0.0226579439 0.00498692226
  vertex -0.0111447889 0.000404627412 0.0101045193
  vertex -0.00828455109 0.0252746772 0.0109914178
  endloop
 endfacet

 facet normal 0 0 0
  outer loop
  vertex -0.00979758799 0.0226579439 0.00498692226
  vertex -0.00782890618 0.0241929311 7.87639001e-05
  vertex -0.0112789776 0.000704048318 0.00217747362
  endloop
 endfacet

 facet normal 0 0 0
  outer loop
  vertex -0.00619476335 0.0243099537 0.0129796062
  vertex -0.00828455109 0.0252746772 0.0109914178
  vertex -0.00953688193 0.00563050108 0.0123182349
  endloop
 endfacet

 facet normal 0 0 0
  outer loop
  vertex -0.00619476335 0.0243099537 0.0129796062
  vertex -0.00953688193 0.00563050108 0.0123182349
  vertex -0.00865749922 0.000921194034 0.0129754879
  endloop
 endfacet

 facet normal 0 0 0
  outer loop
  vertex -0.000893181539 -0.0077604074 0.00289978622
  vertex 0.00282774586 -0.00100190868 0.00289978646
  vertex 0.00282774935 -0.00100190635 0.00929979328
  endloop
 endfacet

 facet normal 0 0 0
  outer loop
  vertex -0.000893181539 -0.0077604074 0.00289978622
  vertex 0.00282774935 -0.00100190635 0.00929979328
  vertex -0.000893178338 -0.00776040507 0.00929980166
  endloop
 endfacet

 facet normal 0 0 0
  outer loop
  vertex -0.000893181539 -0.0077604074 0.00289978622
  vertex -0.000893178338 -0.00776040507 0.00929980166
  vertex -0.00376244076 -0.00903846044 0.00289978646
  endloop
 endfacet

 facet normal 0 0 0
  outer loop
  vertex -0.000893181539 -0.0077604074 0.00289978622
  vertex -0.00376244076 -0.00903846044 0.00289978646
  vertex -0.00743162213 0.00161225419 -0.00106358086
  endloop
 endfacet

 facet normal 0 0 0
  outer loop
  vertex 0.00605454016 0.0372680761 0.0112313181
  vertex 0.00396522833 0.037522316 0.012508384
  vertex 0.00282774935 -0.00100190635 0.00929979328
  endloop
 endfacet

 facet normal 0 0 0
  outer loop
  vertex -0.00766030373 -0.00642802799 0.00363199366
  vertex -0.0076603014 -0.00642802659 0.00856759958
  vertex -0.0111447889 0.000404627412 0.0101045193
  endloop
 endfacet

 facet normal 0 0 0
  outer loop
  vertex -0.00766030373 -0.00642802799 0.00363199366
  vertex -0.0111447889 0.000404627412 0.0101045193
  vertex -0.0112789776 0.000704048318 0.00217747362
  endloop
 endfacet

 facet normal 0 0 0
  outer loop
  vertex 0.00651524775 0.0397290401 0.00215195143
  vertex 0.00282774586 -0.00100190868 0.00289978646
  vertex 0.00527766161 0.0354676731 0.000167860577
  endloop
 endfacet

 facet normal 0 0 0
  outer loop
  vertex -0.00968641602 0.000526569609 -0.000125519524
  vertex -0.00743162213 0.00161225419 -0.00106358086
  vertex -0.00376244076 -0.00903846044 0.00289978646
  endloop
 endfacet

 facet normal 0 0 0
  outer loop
  vertex -0.00968641602 0.000526569609 -0.000125519524
  vertex -0.00376244076 -0.00903846044 0.00289978646
  vertex -0.00766030373 -0.00642802799 0.00363199366
  endloop
 endfacet

 facet normal 0 0 0
  outer loop
  vertex -0.00968641602 0.000526569609 -0.000125519524
  vertex -0.00766030373 -0.00642802799 0.00363199366
  vertex -0.0112789776 0.000704048318 0.00217747362
  endloop
 endfacet

 facet normal 0 0 0
  outer loop
  vertex -0.00968641602 0.000526569609 -0.000125519524
  vertex -0.0112789776 0.000704048318 0.00217747362
  vertex -0.00782890618 0.0241929311 7.87639001e-05
  endloop
 endfacet

 facet normal 0 0 0
  outer loop
  vertex -0.00968641602 0.000526569609 -0.000125519524
  vertex -0.00782890618 0.0241929311 7.87639001e-05
  vertex -0.00743162213 0.00161225419 -0.00106358086
  endloop
 endfacet

 facet normal 0 0 0
  outer loop
  vertex 0.00528895948 0.0412798561 0.0111424346
  vertex 0.00319201406 0.0431190431 0.0107645122
  vertex 0.00396522833 0.037522316 0.012508384
  endloop
 endfacet

 facet normal 0 0 0
  outer loop
  vertex 0.00528895948 0.0412798561 0.0111424346
  vertex 0.00396522833 0.037522316 0.012508384
  vertex 0.00605454016 0.0372680761 0.0112313181
  endloop
 endfacet

 facet normal 0 0 0
  outer loop
  vertex 0.00528895948 0.0412798561 0.0111424346
  vertex 0.00605454016 0.0372680761 0.0112313181
  vertex 0.00654415833 0.0412618108 0.00843355153
  endloop
 endfacet

 facet normal 0 0 0
  outer loop
  vertex -0.00119234982 0.0320412293 -0.000905732275
  vertex -0.00743162213 0.00161225419 -0.00106358086
  vertex -0.00782890618 0.0241929311 7.87639001e-05
  endloop
 endfacet

 facet normal 0 0 0
  outer loop
  vertex -0.00119234982 0.0320412293 -0.000905732275
  vertex -0.00782890618 0.0241929311 7.87639001e-05
  vertex 0.00116246601 0.0407715626 0.00024946942
  endloop
 endfacet

 facet normal 0 0 0
  outer loop
  vertex -0.00205860194 0.00589220552 -0.000484707271
  vertex 0.00282774586 -0.00100190868 0.00289978646
  vertex -0.000893181539 -0.0077604074 0.00289978622
  endloop
 endfacet

 facet normal 0 0 0
  outer loop
  vertex -0.00205860194 0.00589220552 -0.000484707271
  vertex -0.000893181539 -0.0077604074 0.00289978622
  vertex -0.00743162213 0.00161225419 -0.00106358086
  endloop
 endfacet

 facet normal 0 0 0
  outer loop
  vertex -0.00205860194 0.00589220552 -0.000484707271
  vertex -0.00743162213 0.00161225419 -0.00106358086
  vertex -0.00119234982 0.0320412293 -0.000905732275
  endloop
 endfacet

 facet normal 0 0 0
  outer loop
  vertex -0.00205860194 0.00589220552 -0.000484707271
  vertex -0.00119234982 0.0320412293 -0.000905732275
  vertex 0.00424717227 0.0399595685 6.79302466e-05
  endloop
 endfacet

 facet normal 0 0 0
  outer loop
  vertex -0.00205860194 0.00589220552 -0.000484707271
  vertex 0.00424717227 0.0399595685 6.79302466e-05
  vertex 0.00527766161 0.0354676731 0.000167860577
  endloop
 endfacet

 facet normal 0 0 0
  outer loop
  vertex -0.00205860194 0.00589220552 -0.000484707271
  vertex 0.00527766161 0.0354676731 0.000167860577
  vertex 0.00282774586 -0.00100190868 0.00289978646
  endloop
 endfacet

 facet normal 0 0 0
  outer loop
  vertex -0.00771184172 0.0274645258 0.00233706832
  vertex -0.00782890618 0.0241929311 7.87639001e-05
  vertex -0.00979758799 0.0226579439 0.00498692226
  endloop
 endfacet

 facet normal 0 0 0
  outer loop
  vertex -0.00771184172 0.0274645258 0.00233706832
  vertex -0.00979758799 0.0226579439 0.00498692226
  vertex -0.00828455109 0.0252746772 0.0109914178
  endloop
 endfacet

 facet normal 0 0 0
  outer loop
  vertex -0.00771184172 0.0274645258 0.00233706832
  vertex -0.00828455109 0.0252746772 0.0109914178
  vertex -0.00245254789 0.0380489714 0.00530665694
  endloop
 endfacet

 facet normal 0 0 0
  outer loop
  vertex -0.00771184172 0.0274645258 0.00233706832
  vertex -0.00245254789 0.0380489714 0.00530665694
  vertex 0.00116246601 0.0407715626 0.00024946942
  endloop
 endfacet

 facet normal 0 0 0
  outer loop
  vertex -0.00771184172 0.0274645258 0.00233706832
  vertex 0.00116246601 0.0407715626 0.00024946942
  vertex -0.00782890618 0.0241929311 7.87639001e-05
  endloop
 endfacet

 facet normal 0 0 0
  outer loop
  vertex 0.0068045659 0.0349735096 0.00691163819
  vertex 0.00282774935 -0.00100190635 0.00929979328
  vertex 0.00282774586 -0.00100190868 0.00289978646
  endloop
 endfacet

 facet normal 0 0 0
  outer loop
  vertex 0.0068045659 0.0349735096 0.00691163819
  vertex 0.00282774586 -0.00100190868 0.00289978646
  vertex 0.00651524775 0.0397290401 0.00215195143
  endloop
 endfacet

 facet normal 0 0 0
  outer loop
  vertex 0.0068045659 0.0349735096 0.00691163819
  vertex 0.00651524775 0.0397290401 0.00215195143
  vertex 0.00654415833 0.0412618108 0.00843355153
  endloop
 endfacet

 facet normal 0 0 0
  outer loop
  vertex 0.0068045659 0.0349735096 0.00691163819
  vertex 0.00654415833 0.0412618108 0.00843355153
  vertex 0.00605454016 0.0372680761 0.0112313181
  endloop
 endfacet

 facet normal 0 0 0
  outer loop
  vertex 0.0068045659 0.0349735096 0.00691163819
  vertex 0.00605454016 0.0372680761 0.0112313181
  vertex 0.00282774935 -0.00100190635 0.00929979328
  endloop
 endfacet

 facet normal 0 0 0
  outer loop
  vertex 0.00550577091 0.0430772826 0.00476530567
  vertex 0.00654415833 0.0412618108 0.00843355153
  vertex 0.00651524775 0.0397290401 0.00215195143
  endloop
 endfacet

 facet normal 0 0 0
  outer loop
  vertex 0.00550577091 0.0430772826 0.00476530567
  vertex 0.00651524775 0.0397290401 0.00215195143
  vertex 0.00504295016 0.0421155617 0.00141535047
  endloop
 endfacet

 facet normal 0 0 0
  outer loop
  vertex 0.00550577091 0.0430772826 0.00476530567
  vertex 0.00504295016 0.0421155617 0.00141535047
  vertex 0.00308036967 0.0433159657 0.00173307257
  endloop
 endfacet

 facet normal 0 0 0
  outer loop
  vertex 0.00550577091 0.0430772826 0.00476530567
  vertex 0.00308036967 0.0433159657 0.00173307257
  vertex 0.00351889478 0.0441907868 0.00609977916
  endloop
 endfacet

 facet normal 0 0 0
  outer loop
  vertex 0.0049601323 0.0433718413 0.00851073954
  vertex 0.00550577091 0.0430772826 0.00476530567
  vertex 0.00351889478 0.0441907868 0.00609977916
  endloop
 endfacet

 facet normal 0 0 0
  outer loop
  vertex 0.0049601323 0.0433718413 0.00851073954
  vertex 0.00351889478 0.0441907868 0.00609977916
  vertex 0.00319201406 0.0431190431 0.0107645122
  endloop
 endfacet

 facet normal 0 0 0
  outer loop
  vertex 0.0049601323 0.0433718413 0.00851073954
  vertex 0.00319201406 0.0431190431 0.0107645122
  vertex 0.00528895948 0.0412798561 0.0111424346
  endloop
 endfacet

 facet normal 0 0 0
  outer loop
  vertex 0.0049601323 0.0433718413 0.00851073954
  vertex 0.00528895948 0.0412798561 0.0111424346
  vertex 0.00654415833 0.0412618108 0.00843355153
  endloop
 endfacet

 facet normal 0 0 0
  outer loop
  vertex 0.0049601323 0.0433718413 0.00851073954
  vertex 0.00654415833 0.0412618108 0.00843355153
  vertex 0.00550577091 0.0430772826 0.00476530567
  endloop
 endfacet

 facet normal 0 0 0
  outer loop
  vertex 0.000363819767 0.0417836718 0.00812823419
  vertex 0.00351889478 0.0441907868 0.00609977916
  vertex 0.00308036967 0.0433159657 0.00173307257
  endloop
 endfacet

 facet normal 0 0 0
  outer loop
  vertex 0.000363819767 0.0417836718 0.00812823419
  vertex 0.00308036967 0.0433159657 0.00173307257
  vertex 0.00116246601 0.0407715626 0.00024946942
  endloop
 endfacet

 facet normal 0 0 0
  outer loop
  vertex 0.000363819767 0.0417836718 0.00812823419
  vertex 0.00116246601 0.0407715626 0.00024946942
  vertex -0.00245254789 0.0380489714 0.00530665694
  endloop
 endfacet

 facet normal 0 0 0
  outer loop
  vertex -0.00245254789 0.0380489714 0.00530665694
  vertex -0.00828455109 0.0252746772 0.0109914178
  vertex 0.00066287606 0.0407178253 0.0116059911
  endloop
 endfacet

 facet normal 0 0 0
  outer loop
  vertex -0.00245254789 0.0380489714 0.00530665694
  vertex 0.00066287606 0.0407178253 0.0116059911
  vertex 0.000363819767 0.0417836718 0.00812823419
  endloop
 endfacet

 facet normal 0 0 0
  outer loop
  vertex 0.000363819767 0.0417836718 0.00812823419
  vertex 0.00066287606 0.0407178253 0.0116059911
  vertex 0.00319201406 0.0431190431 0.0107645122
  endloop
 endfacet

 facet normal 0 0 0
  outer loop
  vertex 0.000363819767 0.0417836718 0.00812823419
  vertex 0.00319201406 0.0431190431 0.0107645122
  vertex 0.00351889478 0.0441907868 0.00609977916
  endloop
 endfacet

 facet normal 0 0 0
  outer loop
  vertex -0.000419669435 0.0361008532 0.0128493542
  vertex 0.00066287606 0.0407178253 0.0116059911
  vertex -0.00828455109 0.0252746772 0.0109914178
  endloop
 endfacet

 facet normal 0 0 0
  outer loop
  vertex -0.000419669435 0.0361008532 0.0128493542
  vertex -0.00828455109 0.0252746772 0.0109914178
  vertex -0.00619476335 0.0243099537 0.0129796062
  endloop
 endfacet

 facet normal 0 0 0
  outer loop
  vertex -0.000419669435 0.0361008532 0.0128493542
  vertex -0.00619476335 0.0243099537 0.0129796062
  vertex -0.00865749922 0.000921194034 0.0129754879
  endloop
 endfacet

 facet normal 0 0 0
  outer loop
  vertex -0.000419669435 0.0361008532 0.0128493542
  vertex -0.00865749922 0.000921194034 0.0129754879
  vertex -0.00385530642 0.00510581722 0.0131378295
  endloop
 endfacet

 facet normal 0 0 0
  outer loop
  vertex -0.000419669435 0.0361008532 0.0128493542
  vertex -0.00385530642 0.00510581722 0.0131378295
  vertex 0.00396522833 0.037522316 0.012508384
  endloop
 endfacet

 facet normal 0 0 0
  outer loop
  vertex -0.000419669435 0.0361008532 0.0128493542
  vertex 0.00396522833 0.037522316 0.012508384
  vertex 0.00066287606 0.0407178253 0.0116059911
  endloop
 endfacet

 facet normal 0 0 0
  outer loop
  vertex 0.00424717227 0.0399595685 6.79302466e-05
  vertex 0.00116246601 0.0407715626 0.00024946942
  vertex 0.00308036967 0.0433159657 0.00173307257
  endloop
 endfacet

 facet normal 0 0 0
  outer loop
  vertex 0.00424717227 0.0399595685 6.79302466e-05
  vertex 0.00308036967 0.0433159657 0.00173307257
  vertex 0.00504295016 0.0421155617 0.00141535047
  endloop
 endfacet

 facet normal 0 0 0
  outer loop
  vertex 0.00424717227 0.0399595685 6.79302466e-05
  vertex 0.00504295016 0.0421155617 0.00141535047
  vertex 0.00651524775 0.0397290401 0.00215195143
  endloop
 endfacet

 facet normal 0 0 0
  outer loop
  vertex 0.00424717227 0.0399595685 6.79302466e-05
  vertex 0.00651524775 0.0397290401 0.00215195143
  vertex 0.00527766161 0.0354676731 0.000167860577
  endloop
 endfacet

 facet normal 0 0 0
  outer loop
  vertex 0.00424717227 0.0399595685 6.79302466e-05
  vertex -0.00119234982 0.0320412293 -0.000905732275
  vertex 0.00116246601 0.0407715626 0.00024946942
  endloop
 endfacet

endsolid AssimpScene
