solid AssimpScene
 facet normal 0 0 0
  outer loop
  vertex -0.00242080563 0.00341363135 7.89286569e-05
  vertex -0.00843691267 0.00363547355 -0.000938355282
  vertex -0.0104150893 -0.000410723704 -0.00165618886
  endloop
 endfacet

 facet normal 0 0 0
  outer loop
  vertex -0.00242080563 0.00341363135 7.89286569e-05
  vertex -0.0104150893 -0.000410723704 -0.00165618886
  vertex -0.0081879152 -0.00482795155 -0.00164531055
  endloop
 endfacet

 facet normal 0 0 0
  outer loop
  vertex -0.00242080563 0.00341363135 7.89286569e-05
  vertex -0.0081879152 -0.00482795155 -0.00164531055
  vertex -0.00195934856 -0.00358045427 -0.000265243754
  endloop
 endfacet

 facet normal 0 0 0
  outer loop
  vertex -0.0081879152 -0.00482795155 -0.00164531055
  vertex -0.00855663791 -0.0069666109 -0.00717203412
  vertex 0.00114184839 -0.00584499864 -0.00172272243
  endloop
 endfacet

 facet normal 0 0 0
  outer loop
  vertex -0.0111152073 0.00564668793 -0.00538873486
  vertex -0.0128148021 0.00080049393 -0.00525839813
  vertex -0.00936098956 0.00495893741 -0.00237512053
  endloop
 endfacet

 facet normal 0 0 0
  outer loop
  vertex -0.0111152073 0.00564668793 -0.00538873486
  vertex -0.00936098956 0.00495893741 -0.00237512053
  vertex -0.00603455817 0.00764018204 -0.00652133208
  endloop
 endfacet

 facet normal 0 0 0
  outer loop
  vertex -0.0117420936 -0.00478377054 -0.0055588237
  vertex -0.00855663791 -0.0069666109 -0.00717203412
  vertex -0.0081879152 -0.00482795155 -0.00164531055
  endloop
 endfacet

 facet normal 0 0 0
  outer loop
  vertex 0.0155751863 -0.00610767445 -0.0169467963
  vertex 0.0125108622 -0.00694170035 -0.0110357814
  vertex -0.00855663791 -0.0069666109 -0.00717203412
  endloop
 endfacet

 facet normal 0 0 0
  outer loop
  vertex 0.0155751863 -0.00610767445 -0.0169467963
  vertex -0.00855663791 -0.0069666109 -0.00717203412
  vertex 0.014259683 -0.00366951292 -0.0203178525
  endloop
 endfacet

 facet normal 0 0 0
  outer loop
  vertex 0.0218230989 0.00580012379 -0.00607151352
  vertex 0.0225437395 -0.0028164403 -0.00741405413
  vertex 0.0236124843 -0.00240573636 -0.0143242544
  endloop
 endfacet

 facet normal 0 0 0
  outer loop
  vertex 0.0218230989 0.00580012379 -0.00607151352
  vertex 0.0236124843 -0.00240573636 -0.0143242544
  vertex 0.0230927411 0.0062979986 -0.0144727882
  endloop
 endfacet

 facet normal 0 0 0
  outer loop
  vertex 0.0218230989 0.00580012379 -0.00607151352
  vertex 0.0115591837 0.00884174928 -0.00686086947
  vertex 0.0196527634 0.00560401939 -0.00443717418
  endloop
 endfacet

 facet normal 0 0 0
  outer loop
  vertex 0.0218230989 0.00580012379 -0.00607151352
  vertex 0.0196527634 0.00560401939 -0.00443717418
  vertex 0.0209864434 -0.00301137054 -0.00518768607
  endloop
 endfacet

 facet normal 0 0 0
  outer loop
  vertex 0.000641909253 0.0063149468 -0.00137395726
  vertex 0.0196527634 0.00560401939 -0.00443717418
  vertex 0.0115591837 0.00884174928 -0.00686086947
  endloop
 endfacet

 facet normal 0 0 0
  outer loop
  vertex 0.000641909253 0.0063149468 -0.00137395726
  vertex 0.0115591837 0.00884174928 -0.00686086947
  vertex -0.00603455817 0.00764018204 -0.00652133208
  endloop
 endfacet

 facet normal 0 0 0
  outer loop
  vertex 0.000641909253 0.0063149468 -0.00137395726
  vertex -0.00603455817 0.00764018204 -0.00652133208
  vertex -0.00936098956 0.00495893741 -0.00237512053
  endloop
 endfacet

 facet normal 0 0 0
  outer loop
  vertex 0.00363435037 -0.00107611262 -0.000247137388
  vertex 0.0209864434 -0.00301137054 -0.00518768607
  vertex 0.0196527634 0.00560401939 -0.00443717418
  endloop
 endfacet

 facet normal 0 0 0
  outer loop
  vertex 0.00363435037 -0.00107611262 -0.000247137388
  vertex 0.00114184839 -0.00584499864 -0.00172272243
  vertex 0.0209864434 -0.00301137054 -0.00518768607
  endloop
 endfacet

 facet normal 0 0 0
  outer loop
  vertex -0.0104150893 -0.000410723704 -0.00165618886
  vertex -0.00936098956 0.00495893741 -0.00237512053
  vertex -0.0128148021 0.00080049393 -0.00525839813
  endloop
 endfacet

 facet normal 0 0 0
  outer loop
  vertex -0.0104150893 -0.000410723704 -0.00165618886
  vertex -0.0128148021 0.00080049393 -0.00525839813
  vertex -0.0117420936 -0.00478377054 -0.0055588237
  endloop
 endfacet

 facet normal 0 0 0
  outer loop
  vertex -0.0104150893 -0.000410723704 -0.00165618886
  vertex -0.0117420936 -0.00478377054 -0.0055588237
  vertex -0.0081879152 -0.00482795155 -0.00164531055
  endloop
 endfacet

 facet normal 0 0 0
  outer loop
  vertex 0.0224363618 -0.00234691822 -0.0166472923
  vertex 0.0230927411 0.0062979986 -0.0144727882
  vertex 0.0236124843 -0.00240573636 -0.0143242544
  endloop
 endfacet

 facet normal 0 0 0
  outer loop
  vertex 0.0224363618 -0.00234691822 -0.0166472923
  vertex 0.0236124843 -0.00240573636 -0.0143242544
  vertex 0.0155751863 -0.00610767445 -0.0169467963
  endloop
 endfacet

 facet normal 0 0 0
  outer loop
  vertex 0.0224363618 -0.00234691822 -0.0166472923
  vertex 0.0155751863 -0.00610767445 -0.0169467963
  vertex 0.014259683 -0.00366951292 -0.0203178525
  endloop
 endfacet

 facet normal 0 0 0
  outer loop
  vertex 0.0124125527 -0.00653999764 -0.0061927801
  vertex 0.00114184839 -0.00584499864 -0.00172272243
  vertex -0.00855663791 -0.0069666109 -0.00717203412
  endloop
 endfacet

 facet normal 0 0 0
  outer loop
  vertex 0.0124125527 -0.00653999764 -0.0061927801
  vertex -0.00855663791 -0.0069666109 -0.00717203412
  vertex 0.0125108622 -0.00694170035 -0.0110357814
  endloop
 endfacet

 facet normal 0 0 0
  outer loop
  vertex 0.0124125527 -0.00653999764 -0.0061927801
  vertex 0.0209864434 -0.00301137054 -0.00518768607
  vertex 0.00114184839 -0.00584499864 -0.00172272243
  endloop
 endfacet

 facet normal 0 0 0
  outer loop
  vertex 0.0146679217 0.00947493501 -0.0153267384
  vertex 0.0141431605 0.00872656703 -0.0181122143
  vertex -0.00603455817 0.00764018204 -0.00652133208
  endloop
 endfacet

 facet normal 0 0 0
  outer loop
  vertex 0.0146679217 0.00947493501 -0.0153267384
  vertex -0.00603455817 0.00764018204 -0.00652133208
  vertex 0.0115591837 0.00884174928 -0.00686086947
  endloop
 endfacet

 facet normal 0 0 0
  outer loop
  vertex 0.0146679217 0.00947493501 -0.0153267384
  vertex 0.0115591837 0.00884174928 -0.00686086947
  vertex 0.0218230989 0.00580012379 -0.00607151352
  endloop
 endfacet

 facet normal 0 0 0
  outer loop
  vertex 0.0146679217 0.00947493501 -0.0153267384
  vertex 0.0218230989 0.00580012379 -0.00607151352
  vertex 0.0230927411 0.0062979986 -0.0144727882
  endloop
 endfacet

 facet normal 0 0 0
  outer loop
  vertex 0.0140058165 0.0011797637 -0.0211281125
  vertex 0.0160545241 0.00406551082 -0.0203135833
  vertex 0.0224363618 -0.00234691822 -0.0166472923
  endloop
 endfacet

 facet normal 0 0 0
  outer loop
  vertex 0.0140058165 0.0011797637 -0.0211281125
  vertex 0.0224363618 -0.00234691822 -0.0166472923
  vertex 0.014259683 -0.00366951292 -0.0203178525
  endloop
 endfacet

 facet normal 0 0 0
  outer loop
  vertex 0.0140253501 0.00683667185 -0.0200197343
  vertex 0.0160545241 0.00406551082 -0.0203135833
  vertex 0.0140058165 0.0011797637 -0.0211281125
  endloop
 endfacet

 facet normal 0 0 0
  outer loop
  vertex 0.0140253501 0.00683667185 -0.0200197343
  vertex 0.0140058165 0.0011797637 -0.0211281125
  vertex 0.0122715859 0.00484434143 -0.0200342536
  endloop
 endfacet

 facet normal 0 0 0
  outer loop
  vertex -0.010727535 -0.00305382023 -0.00728545571
  vertex 0.0140058165 0.0011797637 -0.0211281125
  vertex 0.014259683 -0.00366951292 -0.0203178525
  endloop
 endfacet

 facet normal 0 0 0
  outer loop
  vertex -0.010727535 -0.00305382023 -0.00728545571
  vertex 0.014259683 -0.00366951292 -0.0203178525
  vertex -0.00855663791 -0.0069666109 -0.00717203412
  endloop
 endfacet

 facet normal 0 0 0
  outer loop
  vertex -0.010727535 -0.00305382023 -0.00728545571
  vertex -0.00855663791 -0.0069666109 -0.00717203412
  vertex -0.0117420936 -0.00478377054 -0.0055588237
  endloop
 endfacet

 facet normal 0 0 0
  outer loop
  vertex -0.010727535 -0.00305382023 -0.00728545571
  vertex -0.0117420936 -0.00478377054 -0.0055588237
  vertex -0.0128148021 0.00080049393 -0.00525839813
  endloop
 endfacet

 facet normal 0 0 0
  outer loop
  vertex 0.0225437395 -0.0028164403 -0.00741405413
  vertex 0.0218230989 0.00580012379 -0.00607151352
  vertex 0.0209864434 -0.00301137054 -0.00518768607
  endloop
 endfacet

 facet normal 0 0 0
  outer loop
  vertex 0.0225437395 -0.0028164403 -0.00741405413
  vertex 0.0209864434 -0.00301137054 -0.00518768607
  vertex 0.0124125527 -0.00653999764 -0.0061927801
  endloop
 endfacet

 facet normal 0 0 0
  outer loop
  vertex 0.0225437395 -0.0028164403 -0.00741405413
  vertex 0.0124125527 -0.00653999764 -0.0061927801
  vertex 0.0125108622 -0.00694170035 -0.0110357814
  endloop
 endfacet

 facet normal 0 0 0
  outer loop
  vertex 0.0225437395 -0.0028164403 -0.00741405413
  vertex 0.0125108622 -0.00694170035 -0.0110357814
  vertex 0.0155751863 -0.00610767445 -0.0169467963
  endloop
 endfacet

 facet normal 0 0 0
  outer loop
  vertex 0.0225437395 -0.0028164403 -0.00741405413
  vertex 0.0155751863 -0.00610767445 -0.0169467963
  vertex 0.0236124843 -0.00240573636 -0.0143242544
  endloop
 endfacet

 facet normal 0 0 0
  outer loop
  vertex -0.0103889955 0.00403210614 -0.00718585402
  vertex 0.0122715859 0.00484434143 -0.0200342536
  vertex 0.0140058165 0.0011797637 -0.0211281125
  endloop
 endfacet

 facet normal 0 0 0
  outer loop
  vertex -0.0103889955 0.00403210614 -0.00718585402
  vertex 0.0140058165 0.0011797637 -0.0211281125
  vertex -0.010727535 -0.00305382023 -0.00728545571
  endloop
 endfacet

 facet normal 0 0 0
  outer loop
  vertex -0.0103889955 0.00403210614 -0.00718585402
  vertex -0.010727535 -0.00305382023 -0.00728545571
  vertex -0.0128148021 0.00080049393 -0.00525839813
  endloop
 endfacet

 facet normal 0 0 0
  outer loop
  vertex -0.0103889955 0.00403210614 -0.00718585402
  vertex -0.0128148021 0.00080049393 -0.00525839813
  vertex -0.0111152073 0.00564668793 -0.00538873486
  endloop
 endfacet

 facet normal 0 0 0
  outer loop
  vertex -0.00672156736 0.00700908387 -0.00808754191
  vertex -0.00603455817 0.00764018204 -0.00652133208
  vertex 0.0141431605 0.00872656703 -0.0181122143
  endloop
 endfacet

 facet normal 0 0 0
  outer loop
  vertex -0.00672156736 0.00700908387 -0.00808754191
  vertex 0.0141431605 0.00872656703 -0.0181122143
  vertex 0.0140253501 0.00683667185 -0.0200197343
  endloop
 endfacet

 facet normal 0 0 0
  outer loop
  vertex -0.00672156736 0.00700908387 -0.00808754191
  vertex 0.0140253501 0.00683667185 -0.0200197343
  vertex 0.0122715859 0.00484434143 -0.0200342536
  endloop
 endfacet

 facet normal 0 0 0
  outer loop
  vertex -0.00672156736 0.00700908387 -0.00808754191
  vertex 0.0122715859 0.00484434143 -0.0200342536
  vertex -0.0103889955 0.00403210614 -0.00718585402
  endloop
 endfacet

 facet normal 0 0 0
  outer loop
  vertex -0.00672156736 0.00700908387 -0.00808754191
  vertex -0.0103889955 0.00403210614 -0.00718585402
  vertex -0.0111152073 0.00564668793 -0.00538873486
  endloop
 endfacet

 facet normal 0 0 0
  outer loop
  vertex -0.00672156736 0.00700908387 -0.00808754191
  vertex -0.0111152073 0.00564668793 -0.00538873486
  vertex -0.00603455817 0.00764018204 -0.00652133208
  endloop
 endfacet

 facet normal 0 0 0
  outer loop
  vertex -0.00843691267 0.00363547355 -0.000938355282
  vertex -0.00936098956 0.00495893741 -0.00237512053
  vertex -0.0104150893 -0.000410723704 -0.00165618886
  endloop
 endfacet

 facet normal 0 0 0
  outer loop
  vertex -0.00843691267 0.00363547355 -0.000938355282
  vertex -0.00242080563 0.00341363135 7.89286569e-05
  vertex 0.000641909253 0.0063149468 -0.00137395726
  endloop
 endfacet

 facet normal 0 0 0
  outer loop
  vertex -0.00843691267 0.00363547355 -0.000938355282
  vertex 0.000641909253 0.0063149468 -0.00137395726
  vertex -0.00936098956 0.00495893741 -0.00237512053
  endloop
 endfacet

 facet normal 0 0 0
  outer loop
  vertex -0.00195934856 -0.00358045427 -0.000265243754
  vertex 0.00114184839 -0.00584499864 -0.00172272243
  vertex 0.00363435037 -0.00107611262 -0.000247137388
  endloop
 endfacet

 facet normal 0 0 0
  outer loop
  vertex -0.00195934856 -0.00358045427 -0.000265243754
  vertex 0.00363435037 -0.00107611262 -0.000247137388
  vertex -0.00242080563 0.00341363135 7.89286569e-05
  endloop
 endfacet

 facet normal 0 0 0
  outer loop
  vertex -0.00195934856 -0.00358045427 -0.000265243754
  vertex -0.0081879152 -0.00482795155 -0.00164531055
  vertex 0.00114184839 -0.00584499864 -0.00172272243
  endloop
 endfacet

 facet normal 0 0 0
  outer loop
  vertex 0.0219885577 0.00632994855 -0.0162008032
  vertex 0.0160545241 0.00406551082 -0.0203135833
  vertex 0.0140253501 0.00683667185 -0.0200197343
  endloop
 endfacet

 facet normal 0 0 0
  outer loop
  vertex 0.0219885577 0.00632994855 -0.0162008032
  vertex 0.0140253501 0.00683667185 -0.0200197343
  vertex 0.0141431605 0.00872656703 -0.0181122143
  endloop
 endfacet

 facet normal 0 0 0
  outer loop
  vertex 0.0219885577 0.00632994855 -0.0162008032
  vertex 0.0141431605 0.00872656703 -0.0181122143
  vertex 0.0146679217 0.00947493501 -0.0153267384
  endloop
 endfacet

 facet normal 0 0 0
  outer loop
  vertex 0.0219885577 0.00632994855 -0.0162008032
  vertex 0.0146679217 0.00947493501 -0.0153267384
  vertex 0.0230927411 0.0062979986 -0.0144727882
  endloop
 endfacet

 facet normal 0 0 0
  outer loop
  vertex 0.0219885577 0.00632994855 -0.0162008032
  vertex 0.0230927411 0.0062979986 -0.0144727882
  vertex 0.0224363618 -0.00234691822 -0.0166472923
  endloop
 endfacet

 facet normal 0 0 0
  outer loop
  vertex 0.0219885577 0.00632994855 -0.0162008032
  vertex 0.0224363618 -0.00234691822 -0.0166472923
  vertex 0.0160545241 0.00406551082 -0.0203135833
  endloop
 endfacet

 facet normal 0 0 0
  outer loop
  vertex 0.00431761984 0.00357805681 -0.00047064395
  vertex -0.00242080563 0.00341363135 7.89286569e-05
  vertex 0.00363435037 -0.00107611262 -0.000247137388
  endloop
 endfacet

 facet normal 0 0 0
  outer loop
  vertex 0.00431761984 0.00357805681 -0.00047064395
  vertex 0.00363435037 -0.00107611262 -0.000247137388
  vertex 0.0196527634 0.00560401939 -0.00443717418
  endloop
 endfacet

 facet normal 0 0 0
  outer loop
  vertex 0.00431761984 0.00357805681 -0.00047064395
  vertex 0.0196527634 0.00560401939 -0.00443717418
  vertex 0.000641909253 0.0063149468 -0.00137395726
  endloop
 endfacet

 facet normal 0 0 0
  outer loop
  vertex 0.00431761984 0.00357805681 -0.00047064395
  vertex 0.000641909253 0.0063149468 -0.00137395726
  vertex -0.00242080563 0.00341363135 7.89286569e-05
  endloop
 endfacet

endsolid AssimpScene
