# https://github.com/mikedh/trimesh
v 0.06907638 0.20336183 -0.03345212
v 0.06978958 0.20040915 -0.02939232
v 0.07078612 0.20138673 -0.03222673
v 0.07305763 0.19965503 -0.03371155
v 0.06907638 0.20336183 -0.03485414
v 0.06828012 0.20336183 -0.03345212
v 0.06667297 0.20055280 -0.02925708
v 0.06667297 0.19710536 -0.02842084
v 0.07005338 0.19710536 -0.02919637
v 0.07208552 0.19710536 -0.03159471
v 0.07311137 0.19710536 -0.03362875
v 0.07307718 0.19731683 -0.03648524
v 0.07302832 0.19959119 -0.03647696
v 0.06667297 0.20019369 -0.03942176
v 0.06828012 0.20336183 -0.03485414
v 0.07282804 0.19922809 -0.03856344
v 0.07073727 0.19981463 -0.03898846
v 0.06018084 0.19937572 -0.03647696
v 0.06023946 0.19935178 -0.03390750
v 0.06682441 0.20248002 -0.03222397
v 0.06382503 0.19975079 -0.02986978
v 0.06252562 0.19702555 -0.02964623
v 0.06017107 0.19561705 -0.03018993
v 0.06017107 0.19393323 -0.03018993
v 0.03190660 0.17445757 -0.03840060
v 0.06260867 0.19336663 -0.02984494
v 0.06667297 0.19357811 -0.02954411
v 0.06942321 0.19421253 -0.02978974
v 0.07293551 0.19483499 -0.03408690
v 0.07293551 0.19483499 -0.03513841
v 0.07252517 0.19610384 -0.03784863
v 0.07282804 0.19881312 -0.03856344
v 0.06260867 0.19966301 -0.03910438
v 0.06682441 0.20219672 -0.03631689
v 0.06667297 0.19710536 -0.04084863
v 0.06069864 0.19511430 -0.04259012
v 0.06041043 0.19511430 -0.04259012
v 0.02320646 0.17470894 -0.05486887
v 0.06038601 0.19924006 -0.03866831
v 0.06260867 0.20055679 -0.03647696
v 0.07099617 0.19731683 -0.03933897
v 0.05263355 0.18715804 -0.04674652
v 0.02320646 0.17783319 -0.04878331
v 0.04754341 0.19147932 -0.03756160
v 0.05572085 0.19573276 -0.03370603
v 0.06252562 0.20022162 -0.03249720
v 0.02798885 0.17888258 -0.04251008
v 0.03643008 0.18256544 -0.03869315
v 0.03255630 0.17806063 -0.03868487
v 0.03190660 0.17535135 -0.03840060
v 0.02373892 0.17033979 -0.04247420
v 0.02320646 0.16982108 -0.04275847
v 0.02320646 0.16909488 -0.04296270
v 0.02320646 0.16545591 -0.04464348
v 0.03009916 0.16956970 -0.04148064
v 0.03416346 0.17432590 -0.03829573
v 0.06260867 0.19133568 -0.03052664
v 0.05154908 0.18294051 -0.03448432
v 0.05854437 0.18615653 -0.03360115
v 0.06667297 0.19154316 -0.03143464
v 0.06874909 0.19098455 -0.03433804
v 0.07043929 0.19317112 -0.03285874
v 0.06874909 0.19098455 -0.03463887
v 0.06845598 0.19124390 -0.03734909
v 0.06981889 0.19395318 -0.03925341
v 0.02320646 0.17677581 -0.05282104
v 0.05041577 0.18752513 -0.04708046
v 0.02320646 0.17243459 -0.05623502
v 0.05263355 0.18667923 -0.04674652
v 0.02320646 0.16866395 -0.05661312
v 0.02320646 0.17623316 -0.04494431
v 0.02403202 0.17458525 -0.04259564
v 0.02373892 0.17187598 -0.04247420
v 0.02320646 0.17081860 -0.04275847
v 0.02320646 0.16483345 -0.04526169
v 0.03416346 0.17012432 -0.04180079
v 0.04008405 0.17480870 -0.03856068
v 0.03737289 0.17448151 -0.03833161
v 0.04635635 0.17776935 -0.03745672
v 0.06098198 0.18672313 -0.03413105
v 0.04892585 0.17849156 -0.03799490
v 0.03645451 0.17056323 -0.04235829
v 0.04635635 0.17680374 -0.04053952
v 0.03649359 0.17051934 -0.04460208
v 0.03633727 0.17059116 -0.04684587
v 0.06574482 0.19027431 -0.03932241
v 0.02320646 0.16263491 -0.05272996
v 0.04907240 0.18211456 -0.04711082
v 0.02320646 0.16501700 -0.05536013
v 0.03694301 0.17411043 -0.05117890
v 0.02320646 0.16550379 -0.05578792
v 0.02320646 0.17387900 -0.04299858
v 0.02320646 0.17228297 -0.04282471
v 0.02320646 0.16259900 -0.04865084
f 1 2 3
f 1 3 4
f 1 4 5
f 1 5 15
f 1 15 6
f 1 6 7
f 1 7 2
f 2 7 8
f 2 8 9
f 2 9 10
f 2 10 4
f 2 4 3
f 4 10 11
f 4 11 12
f 4 12 13
f 4 13 5
f 5 14 15
f 5 13 16
f 5 16 17
f 5 17 14
f 6 15 18
f 6 18 19
f 6 19 20
f 6 20 7
f 7 20 21
f 7 21 8
f 8 21 22
f 8 22 23
f 8 23 24
f 8 24 25
f 8 25 26
f 8 26 27
f 8 27 28
f 8 28 9
f 9 28 10
f 10 29 11
f 10 28 29
f 11 29 30
f 11 30 12
f 12 30 31
f 12 31 32
f 12 32 16
f 12 16 13
f 14 33 34
f 14 34 15
f 14 17 35
f 14 35 36
f 14 36 37
f 14 37 38
f 14 38 33
f 15 34 33
f 15 33 39
f 15 39 40
f 15 40 18
f 16 32 41
f 16 41 42
f 16 42 35
f 16 35 17
f 18 40 39
f 18 39 43
f 18 43 19
f 19 44 45
f 19 45 21
f 19 21 46
f 19 46 20
f 19 43 44
f 20 46 21
f 21 23 22
f 21 45 47
f 21 47 48
f 21 48 49
f 21 49 23
f 23 49 50
f 23 50 25
f 23 25 24
f 25 50 73
f 25 73 51
f 25 51 52
f 25 52 53
f 25 53 54
f 25 54 55
f 25 55 56
f 25 56 57
f 25 57 26
f 26 57 27
f 27 57 58
f 27 58 59
f 27 59 28
f 28 60 61
f 28 61 62
f 28 62 29
f 28 59 60
f 29 62 61
f 29 61 63
f 29 63 30
f 30 63 64
f 30 64 65
f 30 65 31
f 31 65 32
f 32 65 41
f 33 38 66
f 33 66 39
f 35 42 67
f 35 67 36
f 36 67 68
f 36 68 38
f 36 38 37
f 38 68 70
f 38 70 91
f 38 91 89
f 38 89 87
f 38 87 94
f 38 94 75
f 38 75 54
f 38 54 53
f 38 53 52
f 38 52 74
f 38 74 93
f 38 93 92
f 38 92 71
f 38 71 43
f 38 43 66
f 39 66 43
f 41 65 69
f 41 69 42
f 42 69 70
f 42 70 68
f 42 68 67
f 43 71 47
f 43 47 44
f 44 47 45
f 47 71 72
f 47 72 48
f 48 72 49
f 49 72 50
f 50 72 73
f 51 73 74
f 51 74 52
f 54 75 55
f 55 75 76
f 55 76 77
f 55 77 78
f 55 78 56
f 56 78 57
f 57 78 58
f 58 79 59
f 58 78 77
f 58 77 79
f 59 79 80
f 59 80 60
f 60 80 61
f 61 80 81
f 61 81 82
f 61 82 83
f 61 83 84
f 61 84 63
f 63 84 85
f 63 85 64
f 64 86 65
f 64 85 87
f 64 87 86
f 65 88 69
f 65 86 87
f 65 87 89
f 65 89 90
f 65 90 88
f 69 88 90
f 69 90 91
f 69 91 70
f 71 92 72
f 72 92 93
f 72 93 73
f 73 93 74
f 75 94 76
f 76 82 79
f 76 79 77
f 76 94 82
f 79 81 80
f 79 82 81
f 82 94 84
f 82 84 83
f 84 94 87
f 84 87 85
f 89 91 90

