# https://github.com/mikedh/trimesh
v 0.02099553 0.25808522 -0.05274315
v 0.02084840 0.25808522 -0.05680141
v 0.02097918 0.27838962 -0.05272798
v 0.02036343 0.27432588 -0.04971917
v 0.02036343 0.26213464 -0.04975860
v 0.02036343 0.25808522 -0.04978590
v 0.02021358 0.25808522 -0.05943109
v 0.02082933 0.27838962 -0.05679231
v 0.02081843 0.28245337 -0.05679231
v 0.02095466 0.28245337 -0.05272798
v 0.02034708 0.27838962 -0.04974647
v 0.01935534 0.28247725 -0.04774160
v 0.01936624 0.27432588 -0.04768701
v 0.01937169 0.27026452 -0.04771431
v 0.01931175 0.25808522 -0.04774464
v 0.02019451 0.27838962 -0.05937042
v 0.01903929 0.25808522 -0.06146325
v 0.02019451 0.28245337 -0.05934009
v 0.02081570 0.28247725 -0.05680747
v 0.02095193 0.28247725 -0.05275225
v 0.02095193 0.28247725 -0.05272798
v 0.02033073 0.28247725 -0.04978893
v 0.02032801 0.28245337 -0.04977377
v 0.01733372 0.28247725 -0.04516349
v 0.01732282 0.28245337 -0.04514832
v 0.01734189 0.27026452 -0.04510283
v 0.01728740 0.25808522 -0.04520292
v 0.01700405 0.25808522 -0.06389274
v 0.01696863 0.27026452 -0.06388364
v 0.01896573 0.27838962 -0.06140259
v 0.01893303 0.28245337 -0.06137226
v 0.02018633 0.28247725 -0.05935223
v 0.01496335 0.28247725 -0.04311616
v 0.01494156 0.26620077 -0.04309796
v 0.01731737 0.26620077 -0.04513012
v 0.01496335 0.27026452 -0.04307066
v 0.01488162 0.25808522 -0.04316166
v 0.01382993 0.25808522 -0.06582481
v 0.01384083 0.27026452 -0.06585211
v 0.01690051 0.28245337 -0.06382602
v 0.01697135 0.27432588 -0.06384421
v 0.01892214 0.28247725 -0.06138742
v 0.01294445 0.28247725 -0.04204548
v 0.01293356 0.28245337 -0.04203942
v 0.01285727 0.25808522 -0.04208188
v 0.01072121 0.25808522 -0.06685606
v 0.01080295 0.27026452 -0.06688942
v 0.01085472 0.28245337 -0.06683786
v 0.01382449 0.28247725 -0.06574595
v 0.01384083 0.28245337 -0.06573989
v 0.01688417 0.28247725 -0.06383511
v 0.00977579 0.28247725 -0.04123565
v -0.00683857 0.27480340 -0.03608852
v 0.00977579 0.25808522 -0.04125385
v 0.00869142 0.25808522 -0.06703501
v 0.00882220 0.28245337 -0.06707444
v 0.01084382 0.28247725 -0.06683786
v 0.00571620 0.28247725 -0.04130541
v -0.00683857 0.27510425 -0.03632813
v -0.00683857 0.27451211 -0.03610672
v -0.00683857 0.27026690 -0.03658291
v 0.00571620 0.25808522 -0.04126598
v 0.00724195 0.25808522 -0.06703198
v 0.00702671 0.27838962 -0.06706838
v 0.00862058 0.27838962 -0.06706838
v 0.00703761 0.28245337 -0.06707444
v 0.00881402 0.28247725 -0.06707141
v 0.00259930 0.28247725 -0.04210918
v -0.00683857 0.27743935 -0.03901241
v -0.00683857 0.26764052 -0.03797206
v 0.00255298 0.25808522 -0.04208795
v 0.00522033 0.25808522 -0.06669228
v 0.00499419 0.27838962 -0.06672867
v 0.00500509 0.28247725 -0.06671047
v 0.00702671 0.28247725 -0.06707141
v 0.00056951 0.28247725 -0.04309796
v -0.00683857 0.27791449 -0.03986773
v -0.00683857 0.26561580 -0.03992536
v 0.00052319 0.25808522 -0.04305853
v 0.00164026 0.25808522 -0.06542748
v 0.00165116 0.27838962 -0.06537289
v 0.00165116 0.28245337 -0.06532739
v 0.00163753 0.28247725 -0.06531829
v -0.00174637 0.28247725 -0.04513012
v -0.00683857 0.27800521 -0.04063207
v -0.00377617 0.28247725 -0.04795999
v -0.00474066 0.28247725 -0.04999215
v -0.00527195 0.28247725 -0.05272798
v -0.00683857 0.26360781 -0.04192719
v -0.00250107 0.25808522 -0.04526661
v -0.00128047 0.25808522 -0.06365313
v -0.00126957 0.26213464 -0.06365920
v -0.00114969 0.27838962 -0.06356820
v -0.00112517 0.28245337 -0.06354091
v -0.00113607 0.28247725 -0.06352574
v -0.00683857 0.27750381 -0.04491781
v -0.00511392 0.28247725 -0.05679231
v -0.00683857 0.26216090 -0.04482075
v -0.00463440 0.25808522 -0.04862423
v -0.00278715 0.25808522 -0.04567304
v -0.00259916 0.25808522 -0.04540310
v -0.00330482 0.25808522 -0.06127216
v -0.00315769 0.28247725 -0.06110231
v -0.00683857 0.27594469 -0.04883654
v -0.00458536 0.28247725 -0.05905802
v -0.00683857 0.27026452 -0.05244894
v -0.00683857 0.27453360 -0.05046531
v -0.00683857 0.26213703 -0.04881835
v -0.00525288 0.25808522 -0.05272798
v -0.00479788 0.25808522 -0.04902763
v -0.00477063 0.25808522 -0.04889417
v -0.00466165 0.25808522 -0.05923394
v -0.00457991 0.28245337 -0.05907015
v -0.00683857 0.26665681 -0.05247017
v -0.00683857 0.26384179 -0.05168460
v -0.00520111 0.25808522 -0.05679231
v -0.00683857 0.26620077 -0.05244894
f 1 2 3
f 1 3 4
f 1 4 5
f 1 5 6
f 1 6 15
f 1 15 27
f 1 27 37
f 1 37 45
f 1 45 54
f 1 54 62
f 1 62 71
f 1 71 79
f 1 79 90
f 1 90 101
f 1 101 100
f 1 100 99
f 1 99 111
f 1 111 110
f 1 110 109
f 1 109 116
f 1 116 112
f 1 112 102
f 1 102 91
f 1 91 80
f 1 80 72
f 1 72 63
f 1 63 55
f 1 55 46
f 1 46 38
f 1 38 28
f 1 28 17
f 1 17 7
f 1 7 2
f 2 7 8
f 2 8 3
f 3 8 9
f 3 9 10
f 3 10 11
f 3 11 4
f 4 11 12
f 4 12 13
f 4 13 5
f 5 13 14
f 5 14 6
f 6 14 15
f 7 16 8
f 7 17 16
f 8 16 18
f 8 18 19
f 8 19 9
f 9 20 10
f 9 19 20
f 10 20 21
f 10 21 22
f 10 22 23
f 10 23 11
f 11 23 12
f 12 23 22
f 12 22 21
f 12 21 20
f 12 20 19
f 12 19 32
f 12 32 42
f 12 42 51
f 12 51 49
f 12 49 57
f 12 57 67
f 12 67 75
f 12 75 74
f 12 74 83
f 12 83 95
f 12 95 103
f 12 103 105
f 12 105 97
f 12 97 88
f 12 88 87
f 12 87 86
f 12 86 84
f 12 84 76
f 12 76 68
f 12 68 58
f 12 58 52
f 12 52 43
f 12 43 33
f 12 33 24
f 12 24 25
f 12 25 13
f 13 25 26
f 13 26 14
f 14 26 15
f 15 26 27
f 16 17 18
f 17 28 29
f 17 29 30
f 17 30 18
f 18 31 32
f 18 32 19
f 18 30 31
f 24 33 25
f 25 33 26
f 26 34 35
f 26 35 27
f 26 33 36
f 26 36 34
f 27 35 34
f 27 34 37
f 28 38 39
f 28 39 29
f 29 40 41
f 29 41 30
f 29 39 40
f 30 41 40
f 30 40 42
f 30 42 31
f 31 42 32
f 33 43 44
f 33 44 36
f 34 36 45
f 34 45 37
f 36 44 45
f 38 46 47
f 38 47 39
f 39 47 48
f 39 48 49
f 39 49 50
f 39 50 40
f 40 50 51
f 40 51 42
f 43 52 44
f 44 52 53
f 44 53 45
f 45 53 54
f 46 55 47
f 47 55 56
f 47 56 48
f 48 57 49
f 48 56 57
f 49 51 50
f 52 58 53
f 53 58 59
f 53 59 69
f 53 69 77
f 53 77 85
f 53 85 96
f 53 96 104
f 53 104 107
f 53 107 106
f 53 106 114
f 53 114 117
f 53 117 115
f 53 115 108
f 53 108 98
f 53 98 89
f 53 89 78
f 53 78 70
f 53 70 61
f 53 61 60
f 53 60 54
f 54 60 61
f 54 61 62
f 55 63 64
f 55 64 65
f 55 65 56
f 56 66 75
f 56 75 67
f 56 67 57
f 56 65 64
f 56 64 66
f 58 68 59
f 59 68 69
f 61 70 62
f 62 70 71
f 63 72 73
f 63 73 64
f 64 73 66
f 66 73 74
f 66 74 75
f 68 76 69
f 69 76 77
f 70 78 79
f 70 79 71
f 72 80 73
f 73 80 81
f 73 81 74
f 74 81 82
f 74 82 83
f 76 84 77
f 77 84 86
f 77 86 87
f 77 87 88
f 77 88 85
f 78 89 79
f 79 89 90
f 80 91 92
f 80 92 81
f 81 92 93
f 81 93 94
f 81 94 82
f 82 94 83
f 83 94 95
f 85 88 96
f 88 97 96
f 89 98 99
f 89 99 100
f 89 100 101
f 89 101 90
f 91 102 92
f 92 94 93
f 92 102 103
f 92 103 94
f 94 103 95
f 96 97 104
f 97 105 106
f 97 106 107
f 97 107 104
f 98 108 109
f 98 109 110
f 98 110 111
f 98 111 99
f 102 112 113
f 102 113 103
f 103 113 105
f 105 113 112
f 105 112 106
f 106 112 114
f 108 115 116
f 108 116 109
f 112 116 115
f 112 115 117
f 112 117 114

