# https://github.com/mikedh/trimesh
v -0.00777401 0.03017760 -0.05273887
v -0.00775278 0.03017760 -0.05588161
v -0.00770122 0.03017760 -0.05183406
v -0.00534494 0.22859945 -0.05273284
v -0.00759205 0.03017760 -0.05679246
v -0.00521757 0.22859945 -0.05679246
v -0.00661254 0.03017760 -0.04852544
v -0.00477482 0.22555010 -0.05002442
v -0.00473843 0.22859945 -0.05006363
v -0.00659131 0.03017760 -0.06093049
v -0.00506898 0.22859945 -0.05739265
v -0.00568761 0.03017760 -0.04606132
v -0.00397120 0.22859945 -0.04854354
v -0.00335256 0.03017760 -0.06496899
v -0.00461106 0.22859945 -0.05914498
v -0.00426838 0.22859945 -0.05965771
v -0.00325552 0.22555010 -0.06121098
v -0.00399242 0.03017760 -0.04302717
v -0.00369523 0.22859945 -0.04803081
v -0.00270359 0.03017760 -0.06574713
v -0.00319486 0.22859945 -0.06117780
v -0.00122068 0.22555010 -0.06357557
v -0.00105389 0.03017760 -0.04138643
v 0.00069286 0.22859945 -0.04322623
v -0.00166343 0.22859945 -0.04525905
v -0.00217593 0.22859945 -0.04594068
v 0.00172089 0.03017760 -0.06895923
v -0.00268237 0.22859945 -0.06177197
v -0.00116003 0.22859945 -0.06353636
v 0.00165114 0.22859945 -0.06529774
v 0.00165114 0.22555010 -0.06536409
v 0.00153287 0.03017760 -0.04042129
v 0.00272466 0.22859945 -0.04211330
v 0.00175425 0.03017760 -0.06897733
v 0.00495964 0.22859945 -0.06668211
v 0.00470794 0.03017760 -0.03938980
v 0.00571475 0.22859945 -0.04132913
v 0.00571475 0.03017760 -0.06991532
v 0.00699145 0.22859945 -0.06710134
v 0.00571475 0.03017760 -0.03927519
v 0.00875336 0.22859945 -0.04129293
v 0.00656689 0.03017760 -0.07008724
v 0.00921127 0.22859945 -0.06710134
v 0.00977836 0.03017760 -0.03934758
v 0.00977836 0.22859945 -0.04128087
v 0.00980565 0.03017760 -0.07003295
v 0.00972377 0.22859945 -0.06705308
v 0.01057895 0.03017760 -0.06996358
v 0.01354781 0.03017760 -0.04054797
v 0.02320646 0.16980707 -0.04276176
v 0.02320646 0.17081705 -0.04276176
v 0.01208006 0.22859945 -0.04186900
v 0.01124307 0.22859945 -0.06689323
v 0.01406940 0.03017760 -0.06921258
v 0.01183745 0.21560570 -0.06696562
v 0.01357207 0.03017760 -0.04056305
v 0.02320646 0.16908844 -0.04296685
v 0.01817244 0.03017760 -0.04381738
v 0.01883656 0.03017760 -0.04447488
v 0.02250594 0.03017760 -0.04890547
v 0.02304270 0.03017760 -0.05273284
v 0.02316097 0.03017760 -0.05360750
v 0.02320646 0.17227375 -0.04282811
v 0.01285335 0.22859945 -0.04206806
v 0.01384196 0.22859945 -0.06586777
v 0.01639537 0.03017760 -0.06777392
v 0.02320646 0.16543698 -0.04464679
v 0.02310335 0.03017760 -0.05679547
v 0.02320646 0.16864171 -0.05661451
v 0.02320646 0.16549524 -0.05578811
v 0.02320646 0.16500967 -0.05535983
v 0.02320646 0.16262069 -0.05273284
v 0.02320646 0.16258184 -0.04865212
v 0.02320646 0.16481545 -0.04526508
v 0.02320646 0.17386641 -0.04300304
v 0.01488819 0.22859945 -0.04315384
v 0.01437569 0.22859945 -0.04287637
v 0.01696548 0.22859945 -0.06389829
v 0.01908826 0.03017760 -0.06607890
v 0.02306696 0.03017760 -0.05762187
v 0.01920350 0.21335267 -0.06175085
v 0.02039529 0.21335267 -0.05971803
v 0.02023456 0.22859945 -0.05941039
v 0.02320646 0.17242913 -0.05623449
v 0.02239677 0.03017760 -0.06133765
v 0.02320646 0.17621655 -0.04494538
v 0.02095025 0.22859945 -0.05273284
v 0.02080468 0.22859945 -0.05199692
v 0.02035283 0.22859945 -0.04977409
v 0.02009810 0.22859945 -0.04926438
v 0.01932480 0.22859945 -0.04774428
v 0.01881230 0.22859945 -0.04709583
v 0.01728997 0.22859945 -0.04518667
v 0.01747798 0.22859945 -0.06328301
v 0.02088353 0.03017760 -0.06362684
v 0.01900032 0.22859945 -0.06144020
v 0.02083198 0.22859945 -0.05679246
v 0.02320646 0.17470158 -0.05486821
v 0.02320646 0.17782863 -0.04878784
v 0.02320646 0.17676038 -0.05282332
f 1 2 5
f 1 5 10
f 1 10 14
f 1 14 20
f 1 20 27
f 1 27 34
f 1 34 38
f 1 38 42
f 1 42 46
f 1 46 48
f 1 48 54
f 1 54 66
f 1 66 79
f 1 79 95
f 1 95 85
f 1 85 80
f 1 80 68
f 1 68 62
f 1 62 61
f 1 61 60
f 1 60 59
f 1 59 58
f 1 58 56
f 1 56 49
f 1 49 44
f 1 44 40
f 1 40 36
f 1 36 32
f 1 32 23
f 1 23 18
f 1 18 12
f 1 12 7
f 1 7 3
f 1 3 4
f 1 4 2
f 2 4 6
f 2 6 5
f 3 7 8
f 3 8 4
f 4 8 9
f 4 9 13
f 4 13 19
f 4 19 26
f 4 26 25
f 4 25 24
f 4 24 33
f 4 33 37
f 4 37 41
f 4 41 45
f 4 45 52
f 4 52 64
f 4 64 77
f 4 77 76
f 4 76 93
f 4 93 92
f 4 92 91
f 4 91 90
f 4 90 89
f 4 89 88
f 4 88 87
f 4 87 97
f 4 97 83
f 4 83 96
f 4 96 94
f 4 94 78
f 4 78 65
f 4 65 53
f 4 53 47
f 4 47 43
f 4 43 39
f 4 39 35
f 4 35 30
f 4 30 29
f 4 29 28
f 4 28 21
f 4 21 16
f 4 16 15
f 4 15 11
f 4 11 6
f 5 6 10
f 6 11 10
f 7 12 8
f 8 13 9
f 8 12 13
f 10 11 15
f 10 15 16
f 10 16 17
f 10 17 14
f 12 18 19
f 12 19 13
f 14 17 20
f 16 21 17
f 17 21 22
f 17 22 20
f 18 23 24
f 18 24 25
f 18 25 26
f 18 26 19
f 20 22 27
f 21 28 22
f 22 28 29
f 22 29 30
f 22 30 31
f 22 31 27
f 23 32 33
f 23 33 24
f 27 31 34
f 30 35 31
f 31 35 34
f 32 36 33
f 33 36 37
f 34 35 38
f 35 39 38
f 36 40 37
f 37 40 41
f 38 39 42
f 39 43 42
f 40 44 45
f 40 45 41
f 42 43 46
f 43 47 48
f 43 48 46
f 44 49 50
f 44 50 51
f 44 51 45
f 45 51 52
f 47 53 48
f 48 53 55
f 48 55 54
f 49 56 50
f 50 57 67
f 50 67 74
f 50 74 73
f 50 73 72
f 50 72 71
f 50 71 70
f 50 70 69
f 50 69 84
f 50 84 98
f 50 98 100
f 50 100 99
f 50 99 86
f 50 86 75
f 50 75 63
f 50 63 51
f 50 56 58
f 50 58 59
f 50 59 60
f 50 60 61
f 50 61 62
f 50 62 57
f 51 63 64
f 51 64 52
f 53 65 55
f 54 55 65
f 54 65 66
f 57 62 67
f 62 68 69
f 62 69 70
f 62 70 71
f 62 71 72
f 62 72 73
f 62 73 74
f 62 74 67
f 63 75 76
f 63 76 77
f 63 77 64
f 65 78 79
f 65 79 66
f 68 80 69
f 69 81 82
f 69 82 83
f 69 83 84
f 69 80 85
f 69 85 81
f 75 86 87
f 75 87 88
f 75 88 89
f 75 89 90
f 75 90 91
f 75 91 92
f 75 92 93
f 75 93 76
f 78 94 81
f 78 81 79
f 79 81 95
f 81 94 96
f 81 96 83
f 81 83 82
f 81 85 95
f 83 97 84
f 84 97 98
f 86 99 87
f 87 99 100
f 87 100 97
f 97 100 98

